<?xml version="1.0" encoding="UTF-8"?>
<svg xmlns="http://www.w3.org/2000/svg" width="580" height="440.8" xmlns:xlink="http://www.w3.org/1999/xlink" viewBox="0 0 580 440.8">
  <defs>
    <clipPath id="b">
      <rect y="0" width="580" height="440.8" fill="none"/>
    </clipPath>
    <pattern id="c" data-name="40 % 10 ppp" x="0" y="0" width="10" height="10" patternTransform="translate(1120 -1254.566)" patternUnits="userSpaceOnUse" viewBox="0 0 10 10">
      <g>
        <rect width="10" height="10" fill="none"/>
        <g>
          <circle cx="8.947" cy="8.947" r="1.053" fill="#1d1061"/>
          <circle cx="3.684" cy="8.947" r="1.053" fill="#1d1061"/>
          <path d="M8.947,4.737c.581,0,1.053-.471,1.053-1.053s-.472-1.053-1.053-1.053-1.053.471-1.053,1.053.471,1.053,1.053,1.053Z" fill="#1d1061"/>
          <path d="M3.684,4.737c.581,0,1.053-.471,1.053-1.053s-.472-1.053-1.053-1.053-1.053.471-1.053,1.053.471,1.053,1.053,1.053Z" fill="#1d1061"/>
          <path d="M1.053,7.368c.581,0,1.053-.471,1.053-1.053s-.472-1.053-1.053-1.053S0,5.734,0,6.316s.471,1.053,1.053,1.053Z" fill="#1d1061"/>
          <circle cx="6.316" cy="6.316" r="1.053" fill="#1d1061"/>
          <path d="M1.053,2.105c.581,0,1.053-.471,1.053-1.053S1.634,0,1.053,0,0,.471,0,1.053s.471,1.053,1.053,1.053Z" fill="#1d1061"/>
          <circle cx="6.316" cy="1.053" r="1.053" fill="#1d1061"/>
        </g>
      </g>
    </pattern>
    <clipPath id="d">
      <polygon points="-29.909 151.111 100.31 151.111 223.118 28.304 92.899 28.304 -29.909 151.111" fill="none"/>
    </clipPath>
    <linearGradient id="e" data-name="Dégradé sans nom 2" x1="61.834" y1="129.481" x2="63.944" y2="29.602" gradientUnits="userSpaceOnUse">
      <stop offset="0" stop-color="#6a90c6" stop-opacity="0"/>
      <stop offset="1" stop-color="#6a90c6"/>
    </linearGradient>
    <clipPath id="f">
      <polygon points="-43.039 116.087 87.18 116.087 169.001 34.266 38.782 34.266 -43.039 116.087" fill="none"/>
    </clipPath>
    <linearGradient id="g" data-name="Dégradé sans nom 15" x1="189.701" y1="364.665" x2="80.871" y2="-2.823" gradientUnits="userSpaceOnUse">
      <stop offset="0" stop-color="#fff" stop-opacity="0"/>
      <stop offset="1" stop-color="#ffffe8"/>
    </linearGradient>
    <pattern id="h" data-name="40 % 10 ppp" patternTransform="translate(1109 -1254.566)" xlink:href="#c"/>
    <pattern id="i" data-name="40 % 10 ppp" patternTransform="translate(1109 -1254.566)" xlink:href="#c"/>
    <pattern id="j" data-name="40 % 10 ppp" patternTransform="translate(1109 -1254.566)" xlink:href="#c"/>
    <pattern id="k" data-name="40 % 10 ppp" patternTransform="translate(1109 -1254.566)" xlink:href="#c"/>
    <pattern id="l" data-name="40 % 10 ppp" patternTransform="translate(1109 -1254.566)" xlink:href="#c"/>
    <clipPath id="n">
      <rect y="-495.4" width="580" height="450" rx="20.004" ry="20.004" fill="none"/>
    </clipPath>
    <clipPath id="o">
      <path d="M603.117-209.013h-43.107v-43.933c0-2.431-1.534-4.59-3.835-5.374-16.004-5.456-80.034-23.971-152.988.077-2.315.763-3.866,2.953-3.866,5.391V-98.936h160.689v-28.674h38.488v-6.928h39.262v-74.475h-34.643Z" fill="none"/>
    </clipPath>
  </defs>
  <g isolation="isolate">
    <g id="a" data-name="BG">
      <g clip-path="url(#b)">
        <g>
          <g>
            <rect x="-11.732" y="384.365" width="643.143" height="167.835" fill="#dedede"/>
            <rect x="-11.736" y="-24.485" width="643.143" height="411.442" fill="#dedede"/>
            <polygon points="631.406 386.957 -11.736 386.957 -11.736 379.547 164.926 385.318 631.406 377.912 631.406 386.957" fill="#1d1061"/>
            <polygon points="-15.2 185.662 161.462 185.662 371.609 -24.485 -11.736 -24.485 -15.2 185.662" fill="#cecece"/>
            <polygon points="-22.554 389.939 154.439 389.939 154.439 188.874 364.255 -21.273 -19.09 -21.273 -22.554 389.939" fill="url(#c)" mix-blend-mode="multiply" opacity=".03"/>
            <line x1="161.793" y1="188.548" x2="161.793" y2="268.457" fill="none" stroke="#1d1061" stroke-linecap="round" stroke-linejoin="round"/>
            <g>
              <polygon points="-29.909 151.111 100.31 151.111 223.118 28.304 92.899 28.304 -29.909 151.111" fill="#fdfdfd"/>
              <line x1="93.048" y1="131.502" x2="99.68" y2="149.41" fill="none" stroke="#1d1061" stroke-linecap="round" stroke-linejoin="round"/>
              <g clip-path="url(#d)">
                <g>
                  <polygon points="-37.606 130.327 92.613 130.327 215.42 7.52 85.201 7.52 -37.606 130.327" fill="#dedede"/>
                  <polygon points="-42.225 119.935 87.994 119.935 173.653 34.277 43.434 34.277 -42.225 119.935" fill="#fdfdfd"/>
                  <polygon points="-43.039 116.087 87.18 116.087 169.001 34.266 38.782 34.266 -43.039 116.087" fill="#6a90c6"/>
                  <polygon points="-43.039 116.087 87.18 116.087 169.001 34.266 38.782 34.266 -43.039 116.087" fill="url(#c)" mix-blend-mode="multiply" opacity=".05"/>
                  <polygon points="-43.039 116.087 87.18 116.087 169.001 34.266 38.782 34.266 -43.039 116.087" fill="url(#e)"/>
                  <line x1="87.694" y1="118.889" x2="87.259" y2="116.954" fill="none" stroke="#1d1061" stroke-linecap="round" stroke-linejoin="round"/>
                  <g clip-path="url(#f)">
                    <g>
                      <path d="M-14.575,88.607c-2.616-5.313-4.091-11.289-4.091-17.611C-18.666,48.941-.788,31.063,21.266,31.063c15.632,0,29.157,8.987,35.714,22.072,2.284-1.285,4.57-1.713,6.661-1.071,6.828,2.096,9,14.757,4.849,28.28-.166.54-.342,1.071-.522,1.597,6.236.847,11.992,3.198,16.902,6.666H-14.575ZM70.675,31.063c-2.724,0-4.932,2.208-4.932,4.932s2.208,4.932,4.932,4.932,4.932-2.208,4.932-4.932-2.208-4.932-4.932-4.932ZM62.172,94.046c-1.434,0-2.597,1.163-2.597,2.597s1.163,2.597,2.597,2.597,2.597-1.163,2.597-2.597-1.163-2.597-2.597-2.597Z" fill="#6a90c6" mix-blend-mode="multiply" opacity=".5"/>
                      <path d="M-14.575,85.847c-2.616-5.313-4.091-11.289-4.091-17.611C-18.666,46.182-.788,28.304,21.266,28.304c15.632,0,29.157,8.987,35.714,22.072,2.284-1.285,4.57-1.713,6.661-1.071,6.828,2.096,9,14.757,4.849,28.28-.166.54-.342,1.071-.522,1.597,6.236.847,11.992,3.198,16.902,6.666H-14.575ZM70.675,28.304c-2.724,0-4.932,2.208-4.932,4.932s2.208,4.932,4.932,4.932,4.932-2.208,4.932-4.932-2.208-4.932-4.932-4.932ZM62.172,91.286c-1.434,0-2.597,1.163-2.597,2.597s1.163,2.597,2.597,2.597,2.597-1.163,2.597-2.597-1.163-2.597-2.597-2.597Z" fill="#fff"/>
                    </g>
                  </g>
                </g>
              </g>
            </g>
            <polygon points="223.118 28.304 365.066 312.291 -4.423 353.695 -29.909 151.111 92.899 28.304 223.118 28.304" fill="url(#g)" mix-blend-mode="lighten" opacity=".25"/>
          </g>
          <g>
            <polygon points="343.301 262.274 343.301 268.336 349.074 268.336 349.074 387.65 399.013 387.65 399.013 268.336 399.013 265.305 399.013 262.274 343.301 262.274" fill="#1d1061"/>
            <rect x="351.114" y="264.611" width="49.939" height="122.345" fill="#a5a5a5"/>
            <line x1="357.176" y1="381.664" x2="357.176" y2="386.957" fill="none" stroke="#1d1061" stroke-linecap="round" stroke-linejoin="round"/>
            <line x1="357.176" y1="371.561" x2="357.176" y2="342.117" fill="none" stroke="#1d1061" stroke-linecap="round" stroke-linejoin="round"/>
            <line x1="357.176" y1="332.835" x2="357.176" y2="306.636" fill="none" stroke="#1d1061" stroke-linecap="round" stroke-linejoin="round"/>
            <line x1="357.176" y1="295.931" x2="357.176" y2="270.24" fill="none" stroke="#1d1061" stroke-linecap="round" stroke-linejoin="round"/>
            <polygon points="351.114 267.642 351.114 270.24 357.176 270.24 373.197 278.195 401.053 278.195 401.053 267.642 351.114 267.642" fill="url(#c)" mix-blend-mode="multiply" opacity=".15"/>
            <line x1="372.563" y1="270.24" x2="372.563" y2="371.561" fill="none" stroke="#1d1061" stroke-linecap="round" stroke-linejoin="round"/>
            <polygon points="357.176 303.995 372.563 312.291 401.053 312.291 401.053 303.995 357.176 303.995" fill="url(#c)" mix-blend-mode="multiply" opacity=".15"/>
            <polygon points="357.176 340.349 372.563 348.644 401.053 348.644 401.053 340.349 357.176 340.349" fill="url(#c)" mix-blend-mode="multiply" opacity=".15"/>
            <rect x="357.176" y="374.083" width="43.877" height="5.348" fill="#7a7a7a"/>
            <rect x="357.176" y="335" width="43.877" height="5.348" fill="#7a7a7a"/>
            <rect x="357.176" y="298.647" width="43.877" height="5.348" fill="#7a7a7a"/>
            <rect x="345.341" y="261.58" width="55.712" height="6.062" fill="#7a7a7a"/>
          </g>
          <g>
            <polygon points="-9.031 275.371 -9.031 287.123 109.896 287.123 109.896 301.48 60.989 301.48 60.989 343.224 109.896 343.224 109.896 404.534 160.647 404.534 160.647 287.123 168.433 287.123 168.433 275.371 -9.031 275.371" fill="#1d1061"/>
            <path d="M170.439,403.134c0,4.125-41.4,4.125-92.47,4.125s-92.47-1.847-92.47-4.125,41.4-4.125,92.47-4.125,92.47,0,92.47,4.125Z" fill="url(#h)" mix-blend-mode="multiply" opacity=".1"/>
            <rect x="-7.025" y="274.437" width="177.464" height="11.752" fill="#7a7a7a"/>
            <rect x="111.902" y="286.189" width="50.751" height="117.411" fill="#a5a5a5"/>
            <rect x="60.404" y="300.16" width="61.131" height="41.744" fill="#7a7a7a"/>
            <polygon points="108.63 287.824 108.63 301.795 57.132 301.795 57.132 343.539 108.63 343.539 108.63 405.236 124.307 405.236 151.203 287.824 108.63 287.824" fill="url(#i)" mix-blend-mode="overlay" opacity=".25"/>
            <rect x="-4.061" y="286.189" width="68.911" height="117.411" fill="#a5a5a5"/>
            <line x1="-1.282" y1="325.88" x2="62.071" y2="325.88" fill="none" stroke="#1d1061" stroke-linecap="round" stroke-linejoin="round"/>
            <line x1="-1.282" y1="365.967" x2="62.071" y2="365.967" fill="none" stroke="#1d1061" stroke-linecap="round" stroke-linejoin="round"/>
            <circle cx="28.758" cy="308.709" r="4.118" fill="url(#j)" mix-blend-mode="overlay" opacity=".25"/>
            <circle cx="30.394" cy="307.073" r="4.118" fill="#7a7a7a"/>
            <circle cx="28.758" cy="348.083" r="4.118" fill="url(#k)" mix-blend-mode="overlay" opacity=".25"/>
            <circle cx="30.394" cy="346.447" r="4.118" fill="#7a7a7a"/>
            <circle cx="28.758" cy="387.458" r="4.118" fill="url(#l)" mix-blend-mode="overlay" opacity=".25"/>
            <circle cx="30.394" cy="385.822" r="4.118" fill="#7a7a7a"/>
            <line x1="153.926" y1="398.503" x2="153.926" y2="290.214" fill="none" stroke="#1d1061" stroke-linecap="round" stroke-linejoin="round"/>
            <polygon points="162.653 286.189 162.653 288.234 153.926 288.234 111.902 295.354 111.902 286.189 162.653 286.189" fill="#1d1061"/>
            <polygon points="64.85 286.189 64.85 288.307 -4.061 291.135 -4.061 286.189 64.85 286.189" fill="#1d1061"/>
          </g>
          <g>
            <path d="M595.706,327.096h-38.488v-88.085c0-2.431-1.534-4.59-3.835-5.374-16.004-5.456-80.034-23.971-152.988.077-2.315.763-3.866,2.953-3.866,5.391v153.916h160.689v-28.674h38.488v-37.251Z" fill="#1d1061"/>
            <path d="M705.882,393.021c0,4.125-71.34,4.125-159.343,4.125s-159.343-1.847-159.343-4.125,71.34-4.125,159.343-4.125,159.343,0,159.343,4.125Z" fill="url(#c)" mix-blend-mode="multiply" opacity=".1"/>
            <path d="M556.175,232.48c-16.004-5.456-80.034-23.971-152.988.077-2.315.763-3.866,2.953-3.866,5.391v153.916h160.689v-154.01c0-2.431-1.534-4.59-3.835-5.374Z" fill="#7a7a7a"/>
            <polygon points="416.051 365.094 442.552 393.768 563.462 393.768 563.462 365.094 416.051 365.094" fill="url(#c)" mix-blend-mode="overlay" opacity=".25"/>
            <line x1="406.249" y1="236.874" x2="406.249" y2="388.015" fill="none" stroke="#1d1061" stroke-linecap="round" stroke-linejoin="round"/>
            <path d="M435.062,253.27c-4.813,3.228,5.16,14.108,5.16,14.108v25.19l33.586-1.208s-27.911-45.357-38.746-38.091Z" fill="url(#c)" mix-blend-mode="overlay" opacity=".25"/>
            <path d="M548.227,283.342c.338-7.6-25.694-34.36-40.897-36.184-15.203-1.824-54.732-2.889-60.205,8.058-5.473,10.946,8.254,28.734,23.207,32.535,14.953,3.801,77.591,2.433,77.895-4.409Z" fill="#f2f0ec"/>
            <path d="M544.23,289.832s-9.24-28.537-30.361-31.424c17.948,24.677-95.026-14.361-32.568,30.809,23.977,17.34,62.929.614,62.929.614Z" fill="url(#c)" mix-blend-mode="multiply" opacity=".1"/>
            <path d="M520.101,255.368s6.558-11.859,3.583-13.075c-2.975-1.216-14.681,8.21-14.681,8.21l11.098,4.865Z" fill="#f2f0ec"/>
            <path d="M454.27,252.784s-10.946-5.777-16.572-3.193c-5.625,2.585,10.49,13.075,10.49,13.075l6.081-9.882Z" fill="#f2f0ec"/>
            <path d="M454.27,258.409s10.81,14.806,20.22,19.612" fill="none" stroke="#1d1061" stroke-linecap="round" stroke-linejoin="round"/>
            <line x1="464.381" y1="264.642" x2="481.301" y2="276.805" fill="none" stroke="#1d1061" stroke-linecap="round" stroke-linejoin="round"/>
            <path d="M430.526,285.22h167.973v49.681h-178.394v-39.26c0-5.752,4.67-10.421,10.421-10.421Z" fill="#f2f0ec"/>
            <rect x="412.599" y="325.939" width="185.899" height="37.251" fill="#a5a5a5"/>
            <polygon points="412.599 363.19 412.599 364.12 559.931 375.33 560.01 363.19 412.599 363.19" fill="#1d1061"/>
            <path d="M472.694,281.787h130.423v74.475h-142.6v-62.299c0-6.72,5.456-12.176,12.176-12.176Z" fill="#fff"/>
            <path d="M507.337,281.787h130.423v74.475h-142.6v-62.299c0-6.72,5.456-12.176,12.176-12.176Z" fill="#ffcb57"/>
            <path d="M504.573,336.197c0-5.349,3.204-15.647,9.919-20.788" fill="none" stroke="#1d1061" stroke-linecap="round" stroke-linejoin="round"/>
            <path d="M508.338,306.195s-7.769,9.214-6.331,33.658" fill="none" stroke="#1d1061" stroke-linecap="round" stroke-linejoin="round"/>
            <path d="M514.493,321.564s-2.814,9.496,3.517,16.179" fill="none" stroke="#1d1061" stroke-linecap="round" stroke-linejoin="round"/>
          </g>
        </g>
      </g>
    </g>
  </g>
</svg>