<?xml version="1.0" encoding="UTF-8"?>
<svg xmlns="http://www.w3.org/2000/svg" width="333" height="300" xmlns:xlink="http://www.w3.org/1999/xlink" viewBox="0 0 333 300">
  <defs>
    <clipPath id="b">
      <path d="M-229.233,287.741c-.816.653-1.468,1.175-2.26,1.809-.003-.066.008.174.02.45-3.648-.359-3.792-2.724-.105-3.305,1.446-.527,1.479-1.986,2.057-3.537-1.664.64-2.789.544-4.356.807.286,1.003,1.018.974,1.652,1.649-.55.583-1.331.68-2.023.586-.185-1.171-1.168-2.851.14-3.72,1.235-.513-.209-1.932-.643-2.306-.658.318-1.27,1.104-.708,1.83.351.535.578.99-.135,1.514-1.359,3.754-3.454-.531-5.543-1.246.049-.215.149-.653.286-1.257-1.984,1.194-1.03-3.645-3.337-.934-1.852-1.2-2.455-5.548-4.868-4.973-.223.139-.822-.098-.984-.369-.9-2.96-3.645-4.23-4.61-6.96-.737-1.733-2.251-2.72-3.546-3.947-.119-.174-.846-.124-.982.068-1.092,1.374-3.352.144-3.465-1.485-.347-.648-1.675-1.293-1.584-2.277-1.131-1.303.052-1.222.864-1.891-.814-.34-.992-1.019-.98-1.984.21-.923-1.897-2.463-.447-2.952,1.663-.322.354-1.346.339-2.545-1.139,1.636-2.31,2.609-4.198,2.36-.856.701-1.38.231-1.95-.301-1.469-1.618-3.679.535-4.989,1.602.118-4.309-5.35,1.042-7.468,1.365-.049-1.482-1.76-2.648-2.891-1.184-2.565-.691-3.389-4.524-5.334-6.393-.401-1.758-2.736-1.315-2.843-2.998-.195-1.866-2.622-2.142-2.604-4.206-1.644-.673-1.276-2.912-2.459-3.94-2.032-2.619-7.405-5.89-6.553-9.276,1.023-1.053.003-1.369-.689-2.016-.533-1.159-1.148-.048-2.027-.27,2.151-2.364-1.669-2.673,1.5-6.844.352-1.028-.969-.741-1.267-.117-.79,1.416-1.917,1.222-3.009,1.077-.583-.628-.064-2.205-1.517-1.905-.098-.418-.197-.837-.301-1.277-1.417.347-2.206,1.834-.593,2.532-1.507,1.439-4.1,5.167-5.529,1.934-1.699.395-1.529-2.561-3.417-1.079-.09-.801-.164-1.452-.247-2.186-.204.136-.463.308-.723.481-.406-.851-.437-2.055-1.771-1.859-.145-1.096-.288-2.18-.451-3.419-.312.459-.526.774-.652.96-1.984-.453-2.396-2.545-3.45-4.044-.109.016-.217.031-.326.047-.073.384-.146.769-.219,1.153-.114-.005-.229-.011-.343-.016.312-3.889-3.262-5.063-4.389-8.334.308-1.155.341-1.631-.352-2.566-.44.475-.842.91-1.394,1.505-.89-.659-.441-2.292-1.769-1.943-.379-1.555-.027-2.692.999-3.739-1.118-1.252,1.779-3.99-.486-4.18-.125.536-.242,1.041-.36,1.547h-.246c.033-1.275.065-2.547.103-4.039,2.773,1.345,2.61-2.578,2.861-4.525-1.105.818-1.875,2.302-3.222,1.197.2.343.4.687.699,1.2-.593.151-1.107.283-1.451.371-.392-2.187.537-3.599,1.963-5.163.145.098.335.228.451.306,3.321-5.322,6.648-11.274,11.449-15.83-1.255-1.026-1.902-3.142-.243-4.088.755.061,1.557.386,1.95.09.721-.896,1.297-2.113-.373-2.695-.006-1.57,2.079-3.297.589-4.678-.868-.973-.565-3.018-2.24-3.133-1.758-.532-2.686,1.063-4.19,1.54-1.463-.273-1.754,1.172-2.511,2.144-.887-.506-1.981-.652-2.57-1.397-.401-1.636-1.627-1.137-2.941-1.428.32-.339.585-.621.864-.917-1.836-.517-1.422,1.356-.785,2.261-.397.33-.753.625-1.328,1.102-.164-1.144.826-2.604-.554-3.09-2.287-.023-2.382-4.322-4.709-2.689.016-.362.031-.713.047-1.069-1.277-.023-1.311-1.118-1.982-1.902-2.619-2.157-1.85-1.439-2.617-4.559-.23.154-.446.299-.722.484-.736-1.126-1.782-1.294-2.113-2.939-1.51-3.299-6.096-3.494-8.069-6.158-.668.097-1.189.172-1.828.265,1.583-2.347.197-3.802.336-6.063.92-2.265,1.837-4.523,2.752-6.775l.408.036c-.098,1.134-.195,2.27-.315,3.665.931-1.052.61-2.125,1.101-3.104.208.137.382.252.555.366.077-.039.153-.077.23-.116.03-1.737-2.119-1.08-.697-2.827,9.275-17.496,16.498-35.899,26.443-52.976.518-.988.843-1.839,1.879-.652,1.99.638,2.073-2.697,4.069-2.522.492-.03.851-1.457.505-2.169-.083.367-.142.623-.216.952-1.137.028-2.239.056-3.363.084.333-2.355,2.971-2.476,4.683-1.754,1.926-2.857,2.644-7.139,6.571-7.793-.159-.197-.303-.374-.614-.758,2.877-.682,5.223,2.909,7.61,2.169.503-.448.849-.341.933.352-.247.091-.491.181-.818.301,4.86,1.746,9.825,6.003,14.277,6.88,1.044,2.766,2.716-.674,3.922-1.715.594-.955,1.59-.084,2.308-.694,10.239-10.379,19.365-22.403,30.617-30.996.626-.011,1.821.266,2.22.938,2.106,1.46,2.823-4.355,7.807,1.316.758,1.313,2.77-.536,3.089,1.193.319,1.305,1.925,1.242,2.514,2.364,2.037,1.235,2.921,3.601,5.399,4.349.786.448.912.973,1.708-.023.132,1.621.349,1.737,1.595.869.089.466.174.908.259,1.35.391-.168.783-.335,1.283-.55-.546,7.959,28.122-27.547,31.823-29.593,1.841.401-.217,1.445.791,2.478.575.163,1.099-.794,1.529-1.023,1.914-.379-.029,2.2,1.399,2.547.824.206.945,2.177,1.912,1.099.206.416.48.749.535,1.123.136.997,1.708.925,1.925.127.128-1.062-.717-2.699,1.057-2.442.793.049.474,1.252,1.086,1.568-.289.462-.51.815-.731,1.168.497.142.994.283,1.638.467-.522,1.28-.469,1.488.799,2.013.267,1.153,1.402,1.68,2.248,2.334.972.805,1.884,2.341,3.435,2.252-.422,1.594,1.624.622,2.419,1.103-1.185,1.117-1.061,1.484.156,2.209-.03.074-.06.148-.089.221-.539-.059-1.079-.118-1.825-.2.307.837,1.319.71.848,1.69-.079.837,1.394,1.047,2.096.483-.189.362-.302.579-.457.877.651-.046.236,1.162,1.1.809.482-.197.869-.627,1.259-1.091-1.235.75-1.531-.453-.457-1.092,1.555.037,2.347-.991,3.23-2.003,1.332-1.51,2.473-2.402,4.45-1.516.479.418.903.844,1.55.095,1.167,1.059,2.291,2.078,3.415,3.098.092-.077.184-.153.276-.23-.229-.38-.458-.759-.804-1.334,2.193,1.482,4.473-1.189,6.115.453.273,1.862,1.31,2.851,2.689,3.951,1.227,1.1.519,3.028,1.863,4.02.674.501.476,1.765,1.553,1.086,1.298-.923,2.354,1.488,1.605,2.482.483.092.85.162,1.161.222-.4.49-.752.922-1.105,1.355.685.299-.584,1.574.837,1.533.091-.269.187-.553.278-.821,1.136.764,2.622,1.356,1.389,2.938.367.051.692.096,1.092.151-.059.268-.11.498-.129.582.454.413.841.765,1.279,1.164-.225.286-.428.544-.746.948,1.14-.3,2.112-.555,3.177-.835.018.36.029.57.04.778,2.891.623.529,5.074,0,6.939.092.064.185.128.277.193,1.847-1.582,2.807-4.007,4.437-5.815.094.055.189.111.283.166-.44,1.117-1.024,2.19-1.238,3.38,1.177-.039,1.703-.929,2.308-1.801,3.715,2.557,16.741-21.236,15.403-9.188.108.034.215.067.323.101,1.254-2.46,5.153-3.016,5.157.451-.111,1.021.838.635,1.475.569.677-.161.924.12.926.757-.095,2.25,5.147.591,4.529,3.7,2.449-.529,1.412,2.549,3.264,2.752.69-.006,1.381.424,2.096.669-.258.557-.496,1.071-.777,1.676,5.729,1.13,1.255.888,3.99,3.355,5.022,2.622.17,7.125-.48,11.09.101.047.203.094.304.141-.211.134-.422.268-.692.439.067.177.143.377.222.585-1.654.035-.786,1.462-1.588,2.454-.399.547-.598.927.088,1.396.831.972.699,2.594,1.041,3.776-.083-.068-.263-.215-.309-.252-.751,1.654.094,3.428-2.062,3.994-.234.868-.321,1.874-1.355,2.382-.359-.382-.665-.709-.971-1.035-.156-.01-.312-.019-.468-.029.33,2.432-.983,3.952-2.064,6.008,1.416,1.121,3.422.924,4.45,2.134.155.232.302.703.416.691,1.641-.094,1.97,1.507,3.053,2.279.735-.759,1.424-1.471,2.132-2.202.296.214.531.383.766.553.06-.035.12-.07.18-.105l-.487-1.059c1.79-3.631,1.942.759,3.212-1.358.542.224-.24,1.34.783,1.06.147-.04.132-.677.223-1.224,1.311-.011,1.636,1.772,3.182.434.082.886.042,1.311.241,2.013,1.925-.969,3.812-2.51,5.595-4.076,1.171-1.522,2.19-2.191,3.981-.86-.543.164-.854.257-1.165.351-.006.077-.013.154-.019.232.431.078.862.155,1.363.246.04-.208.073-.383.116-.606,1.966.258.026,1.408,1.227,2.06.153-.234.293-.448.339-.52,2.132.421,1.171-1.885,1.123-3.156l.233-.012c1.474,1.259,1.156,3.901,2.698,4.685.545.048.947.164,1.329.573,1.645.941.833-1.755,1.659-2.166.942-.072,1.464.862,1.972,1.618-.746,2.237,2.549,3.258,3.793,4.761-1.768-.475-2.662-.094-.921,1.655.262-.401.414-.632.68-1.039.41.752.575,1.305,1.221,1.757.374-.69.064-1.2-.157-1.87.776.224,1.455.455.989,1.487.396,2.468,4.903-.917,3.865,2.498,1.026-.35,3.489.357,2.043,1.59-.15.109-.157.694-.008.866.192.222.716.435.907.325.988-.602,1.466.702,2.142,1.183,1.23,2.145-1.297,4.397-1.117,6.339,1.37.604-.415,2.311-1.22,1.009-.353.475-.558.874.22.988,1.841,2.081-2.831,7.416-4.219,9.898.417-.123.674-.2,1.039-.308.18.708,1.151,1.953-.015,2.278-.851.636-.304,1.782-.267,2.866.329.017,1.334-.477,1.604-.44.681.59,1.278.297,1.869-.062.639-.388.795-.062.892.531.909,2.711,1.336,5.472,2.361,8.059.335,1.479.808,3.887,2.476,4.253.406,1.11,2.151,1.204,1.848,2.874,2.966-.317,2.416,3.587,2.462,5.461,3.341,1.625-2.183,5.652-2.366,8.081-1.563,1.205-1.969,3.692-3.16,4.411-.631.382.144,2.046-1.077,1.893-.911.963-1.398,2.245-2.36,3.656,3.834.48,7.36.921,10.878,1.361.033,1.91,1.009.417,1.985,1.457-.53.367-.912.632-1.269.88,1.312,1.386,2.227,4.354.016,5.176-1.384-.48-.848.57-.937,1.282.619-.204,1.139-.376,1.736-.573,1.108,1.337-2.056,2.189-.498,3.791.003,6.501-10.609,7.532-2.487,15.076-.688,1.067.916,1.808.394,2.853-.989,1.424-.641,2.862,1.168,3.173.035-.137.109-.423.187-.726,1.156.707,2.823,4.676,2.671,6.222.231-.036.525-.083.818-.129-.012.11-.024.22-.036.331-.209.226-.418.451-.627.677.025.105.05.21.075.315.449-.077.898-.154,1.512-.259-.691.782-.275,2.462-1.359,2.546-.167-.01-.345.332-.517.512.805.698,1.734-.012,2.632-.188.045.075.089.15.134.225-3.577,4.788-10.36,7.418-12.416,13.123-.149,1.807-.47.932-1.677,1.24.583.35,1.628,1.005.707,1.58-.873.513.069,1.338-.293,2.149-.099.004-.198.007-.298.011-.138-.225-.277-.45-.588-.957-3.155,11.343-16.843,12.297-25.071,18.571-5.398,4.601-10.822,9.467-16.852,13.116-1.182,1.927-5.539,5.585-7.01,2.485.267-.117.523-.229,1.044-.456-.594-.372-.984-.616-1.536-.961.166,1.276-1.113,3.664-.702,1.26-1.382-.664-.165-2.258-.883-3.655-.459,1.014-.809,1.786-1.159,2.56-1.628-.835-.169-4.163-2.08-4.387-.77,1.175-1.322.684-1.845-.351-.342.619-.616,1.112-.913,1.649-3.728-3.927-11.217,7.665-15.289,6.984-2.213.213-3.96,4.295-6.324,3.249-10.236-2.536-31.883,26.655-37.905,21.574.317-.137.609-.263,1.173-.506-.56-.408-.938-.682-1.384-1.007-1.435,2.815-1.549-.756-1.425-2.068-.112-.035-.225-.071-.337-.106-.419.749-.838,1.498-1.25,2.234-1.854-.248.064-5.48-2.034-4.393-1.029,1.499-1.047.079-1.895-.365-.205.495-.397.96-.578,1.398-2.373-1.965-5.034.989-7.797.382-.934.437-3.087,1.375-2.784-.685.813-.863,1.693-4.53-.421-3.555-.789-1.255-.698-1.61.441-1.872-.145-1.645-.58-2.271-1.794-.815.196-2.732-1.988-3.874-1.304-6.311.18-.613-.487-1.625-.301-2.25.881-1.691-.376-2.445-1.027-3.441-2.202-.844-2.979-2.516-4.004-4.655-.753.594-1.532,1.208-2.378,1.874.032-.327.057-.589.086-.885-2.437.526-.986,2.327-2.642,3.929-.543-2.36,1.453-3.982,1.335-6.287-8.57,10.16-16.327,23.344-25.065,32.064ZM-52.222,167.36c.981,1.041-.205,1.568.991,2.07.279-.98,1.684-1.485.705-2.824l-.713.356-.471-.223c.253-.308.507-.617.757-.922-1.599-1.875-1.372.372-1.268,1.543ZM-335.471,188.905c-.504.686-1.008,1.374-1.512,2.059.475.265,1.017.567,1.565.872,1.112-1.166,1.108-2.075-.053-2.932ZM-51.355,176.342c-.253-.108-.507-.216-.76-.324.392-.566.784-1.132,1.136-1.641-.285-.195-.628-.429-.967-.661q-.64.549.021,1.205c-.323.217-.643.433-.964.648-.01.139-.021.278-.031.416.522.118,1.043.237,1.565.355ZM-53.585,163.803c-.364.71-.635,1.239-1.02,1.988,1.212-.317,2.638-1.313,1.02-1.988ZM-109.971,80.126c-.08.027-.16.053-.24.08-.102.727-.204,1.454-.316,2.253l1.03-.475c-.156-.61-.315-1.234-.475-1.858ZM-168.36,28.141c-.969.578-.99.91-.119,1.634.041-.563.075-1.037.119-1.634ZM-329.235,68.504c.74.176,1.172.197,1.214-.558-.488-.622-.784.021-1.214.558ZM-337.32,197.237c-.535,1.072-.436,1.281.542,1.419-.203-.531-.372-.975-.542-1.419ZM-52.661,172.271c.176.014.352.028.528.042.007-.469.014-.937.021-1.406-.137-.011-.274-.022-.411-.033-.046.465-.092.931-.138,1.397ZM-286.714,252.309c-.037.441-.075.883-.123,1.461,1.06-.569.959-1.022.123-1.461Z" fill="none"/>
    </clipPath>
    <linearGradient id="c" data-name="Dégradé sans nom 19" x1="-191.229" y1="24.54" x2="-191.229" y2="224.555" gradientUnits="userSpaceOnUse">
      <stop offset="0" stop-color="#b1ddea"/>
      <stop offset="1" stop-color="#54bfd1"/>
    </linearGradient>
    <clipPath id="e">
      <path d="M139.767,287.741c-.816.653-1.468,1.175-2.26,1.809-.003-.066.008.174.02.45-3.648-.359-3.792-2.724-.105-3.305,1.446-.527,1.479-1.986,2.057-3.537-1.664.64-2.789.544-4.356.807.286,1.003,1.018.974,1.652,1.649-.55.583-1.331.68-2.023.586-.185-1.171-1.168-2.851.14-3.72,1.235-.513-.209-1.932-.643-2.306-.658.318-1.27,1.104-.708,1.83.351.535.578.99-.135,1.514-1.359,3.754-3.454-.531-5.543-1.246.049-.215.149-.653.286-1.257-1.984,1.194-1.03-3.645-3.337-.934-1.852-1.2-2.455-5.548-4.868-4.973-.223.139-.822-.098-.984-.369-.9-2.96-3.645-4.23-4.61-6.96-.737-1.733-2.251-2.72-3.546-3.947-.119-.174-.846-.124-.982.068-1.092,1.374-3.352.144-3.465-1.485-.347-.648-1.675-1.293-1.584-2.277-1.131-1.303.052-1.222.864-1.891-.814-.34-.992-1.019-.98-1.984.21-.923-1.897-2.463-.447-2.952,1.663-.322.354-1.346.339-2.545-1.139,1.636-2.31,2.609-4.198,2.36-.856.701-1.38.231-1.95-.301-1.469-1.618-3.679.535-4.989,1.602.118-4.309-5.35,1.042-7.468,1.365-.049-1.482-1.76-2.648-2.891-1.184-2.565-.691-3.389-4.524-5.334-6.393-.401-1.758-2.736-1.315-2.843-2.998-.195-1.866-2.622-2.142-2.604-4.206-1.644-.673-1.276-2.912-2.459-3.94-2.032-2.619-7.405-5.89-6.553-9.276,1.023-1.053.003-1.369-.689-2.016-.533-1.159-1.148-.048-2.027-.27,2.151-2.364-1.669-2.673,1.5-6.844.352-1.028-.969-.741-1.267-.117-.79,1.416-1.917,1.222-3.009,1.077-.583-.628-.064-2.205-1.517-1.905-.098-.418-.197-.837-.301-1.277-1.417.347-2.206,1.834-.593,2.532-1.507,1.439-4.1,5.167-5.529,1.934-1.699.395-1.529-2.561-3.417-1.079-.09-.801-.164-1.452-.247-2.186-.204.136-.463.308-.723.481-.406-.851-.437-2.055-1.771-1.859-.145-1.096-.288-2.18-.451-3.419-.312.459-.526.774-.652.96-1.984-.453-2.396-2.545-3.45-4.044-.109.016-.217.031-.326.047-.073.384-.146.769-.219,1.153-.114-.005-.229-.011-.343-.016.312-3.889-3.262-5.063-4.389-8.334.308-1.155.341-1.631-.352-2.566-.44.475-.842.91-1.394,1.505-.89-.659-.441-2.292-1.769-1.943-.379-1.555-.027-2.692.999-3.739-1.118-1.252,1.779-3.99-.486-4.18-.125.536-.242,1.041-.36,1.547h-.246c.033-1.275.065-2.547.103-4.039,2.773,1.345,2.61-2.578,2.861-4.525-1.105.818-1.875,2.302-3.222,1.197.2.343.4.687.699,1.2-.593.151-1.107.283-1.451.371-.392-2.187.537-3.599,1.963-5.163.145.098.335.228.451.306,3.321-5.322,6.648-11.274,11.449-15.83-1.255-1.026-1.902-3.142-.243-4.088.755.061,1.557.386,1.95.09.721-.896,1.297-2.113-.373-2.695-.006-1.57,2.079-3.297.589-4.678-.868-.973-.565-3.018-2.24-3.133-1.758-.532-2.686,1.063-4.19,1.54-1.463-.273-1.754,1.172-2.511,2.144-.887-.506-1.981-.652-2.57-1.397-.401-1.636-1.627-1.137-2.941-1.428.32-.339.585-.621.864-.917-1.836-.517-1.422,1.356-.785,2.261-.397.33-.753.625-1.328,1.102-.164-1.144.826-2.604-.554-3.09-2.287-.023-2.382-4.322-4.709-2.689.016-.362.031-.713.047-1.069-1.277-.023-1.311-1.118-1.982-1.902-2.619-2.157-1.85-1.439-2.617-4.559-.23.154-.446.299-.722.484-.736-1.126-1.782-1.294-2.113-2.939-1.51-3.299-6.096-3.494-8.069-6.158-.668.097-1.189.172-1.828.265,1.583-2.347.197-3.802.336-6.063.92-2.265,1.837-4.523,2.752-6.775l.408.036c-.098,1.134-.195,2.27-.315,3.665.931-1.052.61-2.125,1.101-3.104.208.137.382.252.555.366.077-.039.153-.077.23-.116.03-1.737-2.119-1.08-.697-2.827,9.275-17.496,16.498-35.899,26.443-52.976.518-.988.843-1.839,1.879-.652,1.99.638,2.073-2.697,4.069-2.522.492-.03.851-1.457.505-2.169-.083.367-.142.623-.216.952-1.137.028-2.239.056-3.363.084.333-2.355,2.971-2.476,4.683-1.754,1.926-2.857,2.644-7.139,6.571-7.793-.159-.197-.303-.374-.614-.758,2.877-.682,5.223,2.909,7.61,2.169.503-.448.849-.341.933.352-.247.091-.491.181-.818.301,4.86,1.746,9.825,6.003,14.277,6.88,1.044,2.766,2.716-.674,3.922-1.715.594-.955,1.59-.084,2.308-.694,10.239-10.379,19.365-22.403,30.617-30.996.626-.011,1.821.266,2.22.938,2.106,1.46,2.823-4.355,7.807,1.316.758,1.313,2.77-.536,3.089,1.193.319,1.305,1.925,1.242,2.514,2.364,2.037,1.235,2.921,3.601,5.399,4.349.786.448.912.973,1.708-.023.132,1.621.349,1.737,1.595.869.089.466.174.908.259,1.35.391-.168.783-.335,1.283-.55-.546,7.959,28.122-27.547,31.823-29.593,1.841.401-.217,1.445.791,2.478.575.163,1.099-.794,1.529-1.023,1.914-.379-.029,2.2,1.399,2.547.824.206.945,2.177,1.912,1.099.206.416.48.749.535,1.123.136.997,1.708.925,1.925.127.128-1.062-.717-2.699,1.057-2.442.793.049.474,1.252,1.086,1.568-.289.462-.51.815-.731,1.168.497.142.994.283,1.638.467-.522,1.28-.469,1.488.799,2.013.267,1.153,1.402,1.68,2.248,2.334.972.805,1.884,2.341,3.435,2.252-.422,1.594,1.624.622,2.419,1.103-1.185,1.117-1.061,1.484.156,2.209-.03.074-.06.148-.089.221-.539-.059-1.079-.118-1.825-.2.307.837,1.319.71.848,1.69-.079.837,1.394,1.047,2.096.483-.189.362-.302.579-.457.877.651-.046.236,1.162,1.1.809.482-.197.869-.627,1.259-1.091-1.235.75-1.531-.453-.457-1.092,1.555.037,2.347-.991,3.23-2.003,1.332-1.51,2.473-2.402,4.45-1.516.479.418.903.844,1.55.095,1.167,1.059,2.291,2.078,3.415,3.098.092-.077.184-.153.276-.23-.229-.38-.458-.759-.804-1.334,2.193,1.482,4.473-1.189,6.115.453.273,1.862,1.31,2.851,2.689,3.951,1.227,1.1.519,3.028,1.863,4.02.674.501.476,1.765,1.553,1.086,1.298-.923,2.354,1.488,1.605,2.482.483.092.85.162,1.161.222-.4.49-.752.922-1.105,1.355.685.299-.584,1.574.837,1.533.091-.269.187-.553.278-.821,1.136.764,2.622,1.356,1.389,2.938.367.051.692.096,1.092.151-.059.268-.11.498-.129.582.454.413.841.765,1.279,1.164-.225.286-.428.544-.746.948,1.14-.3,2.112-.555,3.177-.835.018.36.029.57.04.778,2.891.623.529,5.074,0,6.939.092.064.185.128.277.193,1.847-1.582,2.807-4.007,4.437-5.815.094.055.189.111.283.166-.44,1.117-1.024,2.19-1.238,3.38,1.177-.039,1.703-.929,2.308-1.801,3.715,2.557,16.741-21.236,15.403-9.188.108.034.215.067.323.101,1.254-2.46,5.153-3.016,5.157.451-.111,1.021.838.635,1.475.569.677-.161.924.12.926.757-.095,2.25,5.147.591,4.529,3.7,2.449-.529,1.412,2.549,3.264,2.752.69-.006,1.381.424,2.096.669-.258.557-.496,1.071-.777,1.676,5.729,1.13,1.255.888,3.99,3.355,5.022,2.622.17,7.125-.48,11.09.101.047.203.094.304.141-.211.134-.422.268-.692.439.067.177.143.377.222.585-1.654.035-.786,1.462-1.588,2.454-.399.547-.598.927.088,1.396.831.972.699,2.594,1.041,3.776-.083-.068-.263-.215-.309-.252-.751,1.654.094,3.428-2.062,3.994-.234.868-.321,1.874-1.355,2.382-.359-.382-.665-.709-.971-1.035-.156-.01-.312-.019-.468-.029.33,2.432-.983,3.952-2.064,6.008,1.416,1.121,3.422.924,4.45,2.134.155.232.302.703.416.691,1.641-.094,1.97,1.507,3.053,2.279.735-.759,1.424-1.471,2.132-2.202.296.214.531.383.766.553.06-.035.12-.07.18-.105l-.487-1.059c1.79-3.631,1.942.759,3.212-1.358.542.224-.24,1.34.783,1.06.147-.04.132-.677.223-1.224,1.311-.011,1.636,1.772,3.182.434.082.886.042,1.311.241,2.013,1.925-.969,3.812-2.51,5.595-4.076,1.171-1.522,2.19-2.191,3.981-.86-.543.164-.854.257-1.165.351-.006.077-.013.154-.019.232.431.078.862.155,1.363.246.04-.208.073-.383.116-.606,1.966.258.026,1.408,1.227,2.06.153-.234.293-.448.339-.52,2.132.421,1.171-1.885,1.123-3.156l.233-.012c1.474,1.259,1.156,3.901,2.698,4.685.545.048.947.164,1.329.573,1.645.941.833-1.755,1.659-2.166.942-.072,1.464.862,1.972,1.618-.746,2.237,2.549,3.258,3.793,4.761-1.768-.475-2.662-.094-.921,1.655.262-.401.414-.632.68-1.039.41.752.575,1.305,1.221,1.757.374-.69.064-1.2-.157-1.87.776.224,1.455.455.989,1.487.396,2.468,4.903-.917,3.865,2.498,1.026-.35,3.489.357,2.043,1.59-.15.109-.157.694-.008.866.192.222.716.435.907.325.988-.602,1.466.702,2.142,1.183,1.23,2.145-1.297,4.397-1.117,6.339,1.37.604-.415,2.311-1.22,1.009-.353.475-.558.874.22.988,1.841,2.081-2.831,7.416-4.219,9.898.417-.123.674-.2,1.039-.308.18.708,1.151,1.953-.015,2.278-.851.636-.304,1.782-.267,2.866.329.017,1.334-.477,1.604-.44.681.59,1.278.297,1.869-.062.639-.388.795-.062.892.531.909,2.711,1.336,5.472,2.361,8.059.335,1.479.808,3.887,2.476,4.253.406,1.11,2.151,1.204,1.848,2.874,2.966-.317,2.416,3.587,2.462,5.461,3.341,1.625-2.183,5.652-2.366,8.081-1.563,1.205-1.969,3.692-3.16,4.411-.631.382.144,2.046-1.077,1.893-.911.963-1.398,2.245-2.36,3.656,3.834.48,7.36.921,10.878,1.361.033,1.91,1.009.417,1.985,1.457-.53.367-.912.632-1.269.88,1.312,1.386,2.227,4.354.016,5.176-1.384-.48-.848.57-.937,1.282.619-.204,1.139-.376,1.736-.573,1.108,1.337,2.509,3.817,4.068,5.419.003,6.501-15.175,5.904-7.052,13.448-.688,1.067.916,1.808.394,2.853-.989,1.424-.641,2.862,1.168,3.173.035-.137.109-.423.187-.726,1.156.707,2.823,4.676,2.671,6.222.231-.036.525-.083.818-.129-.012.11-.024.22-.036.331-.209.226-.418.451-.627.677.025.105.05.21.075.315.449-.077.898-.154,1.512-.259-.691.782-.275,2.462-1.359,2.546-.167-.01-.345.332-.517.512.805.698,1.734-.012,2.632-.188.045.075.089.15.134.225-3.577,4.788-10.36,7.418-12.416,13.123-.149,1.807-.47.932-1.677,1.24.583.35,1.628,1.005.707,1.58-.873.513.069,1.338-.293,2.149-.099.004-.198.007-.298.011-.138-.225-.277-.45-.588-.957-3.155,11.343-16.843,12.297-25.071,18.571-5.398,4.601-10.822,9.467-16.852,13.116-1.182,1.927-5.539,5.585-7.01,2.485.267-.117.523-.229,1.044-.456-.594-.372-.984-.616-1.536-.961.166,1.276-1.113,3.664-.702,1.26-1.382-.664-.165-2.258-.883-3.655-.459,1.014-.809,1.786-1.159,2.56-1.628-.835-.169-4.163-2.08-4.387-.77,1.175-1.322.684-1.845-.351-.342.619-.616,1.112-.913,1.649-3.728-3.927-11.217,7.665-15.289,6.984-2.213.213-3.96,4.295-6.324,3.249-10.236-2.536-31.883,26.655-37.905,21.574.317-.137.609-.263,1.173-.506-.56-.408-.938-.682-1.384-1.007-1.435,2.815-1.549-.756-1.425-2.068-.112-.035-.225-.071-.337-.106-.419.749-.838,1.498-1.25,2.234-1.854-.248.064-5.48-2.034-4.393-1.029,1.499-1.047.079-1.895-.365-.205.495-.397.96-.578,1.398-2.373-1.965-5.034.989-7.797.382-.934.437-3.087,1.375-2.784-.685.813-.863,1.693-4.53-.421-3.555-.789-1.255-.698-1.61.441-1.872-.145-1.645-.58-2.271-1.794-.815.196-2.732-1.988-3.874-1.304-6.311.18-.613-.487-1.625-.301-2.25.881-1.691-.376-2.445-1.027-3.441-2.202-.844-2.979-2.516-4.004-4.655-.753.594-1.532,1.208-2.378,1.874.032-.327.057-.589.086-.885-2.437.526-.986,2.327-2.642,3.929-.543-2.36,1.453-3.982,1.335-6.287-8.57,10.16-16.327,23.344-25.065,32.064ZM316.778,167.36c.981,1.041-.205,1.568.991,2.07.279-.98,1.684-1.485.705-2.824l-.713.356-.471-.223c.253-.308.507-.617.757-.922-1.599-1.875-1.372.372-1.268,1.543ZM33.529,188.905c-.504.686-1.008,1.374-1.512,2.059.475.265,1.017.567,1.565.872,1.112-1.166,1.108-2.075-.053-2.932ZM317.645,176.342c-.253-.108-.507-.216-.76-.324.392-.566.784-1.132,1.136-1.641-.285-.195-.628-.429-.967-.661q-.64.549.021,1.205c-.323.217-.643.433-.964.648-.01.139-.021.278-.031.416.522.118,1.043.237,1.565.355ZM315.415,163.803c-.364.71-.635,1.239-1.02,1.988,1.212-.317,2.638-1.313,1.02-1.988ZM259.029,80.126c-.08.027-.16.053-.24.08-.102.727-.204,1.454-.316,2.253l1.03-.475c-.156-.61-.315-1.234-.475-1.858ZM200.64,28.141c-.969.578-.99.91-.119,1.634.041-.563.075-1.037.119-1.634ZM39.765,68.504c.74.176,1.172.197,1.214-.558-.488-.622-.784.021-1.214.558ZM31.68,197.237c-.535,1.072-.436,1.281.542,1.419-.203-.531-.372-.975-.542-1.419ZM316.339,172.271c.176.014.352.028.528.042.007-.469.014-.937.021-1.406-.137-.011-.274-.022-.411-.033-.046.465-.092.931-.138,1.397ZM82.286,252.309c-.037.441-.075.883-.123,1.461,1.06-.569.959-1.022.123-1.461Z" fill="none"/>
    </clipPath>
    <linearGradient id="f" data-name="Dégradé sans nom 36" x1="663.762" y1="2875.247" x2="663.762" y2="2686.04" gradientTransform="translate(-497.945 -2695.615)" gradientUnits="userSpaceOnUse">
      <stop offset="0" stop-color="#f4af13"/>
      <stop offset="1" stop-color="#e86170"/>
    </linearGradient>
    <linearGradient id="g" data-name="Dégradé sans nom 8" x1="164.231" y1="102.958" x2="164.231" y2="235.117" gradientUnits="userSpaceOnUse">
      <stop offset="0" stop-color="#6498d1"/>
      <stop offset="1" stop-color="#336a9b"/>
    </linearGradient>
    <filter id="h" data-name="drop-shadow-2" x="64.645" y="123.137" width="199.71" height="126.301" filterUnits="userSpaceOnUse">
      <feOffset dx="-4" dy="0"/>
      <feGaussianBlur result="i" stdDeviation="0"/>
      <feFlood flood-color="#42496f" flood-opacity="1"/>
      <feComposite in2="i" operator="in"/>
      <feComposite in="SourceGraphic"/>
    </filter>
  </defs>
  <g isolation="isolate">
    <g id="a" data-name="Calque 8">
      <g clip-path="url(#b)">
        <g>
          <rect x="-385.489" y="-6.014" width="388.518" height="257.002" fill="url(#c)"/>
          <path d="M-376.324,246.806s53.86-56.553,188.511-56.553c123.205,0,210.055,59.246,210.055,59.246v95.602h-413.378l14.812-98.295Z" fill="#ffd66e"/>
        </g>
      </g>
    </g>
    <g id="d" data-name="Calque 10">
      <g>
        <g clip-path="url(#e)">
          <g>
            <rect x="-.768" y="-34.204" width="333.168" height="290.878" transform="translate(331.632 222.47) rotate(180)" fill="url(#f)"/>
            <path d="M282.628,176.82c2.651-1.781,4.521-4.345,3.801-7.386-1.722-7.267-27.129-8.337-31.898-8.096-.078-2.834-.35-6.904-.621-10.838-9.904-7.869-24.36-11.49-36.259-10.915-1.377.066-2.798.154-4.093-.319-1.163-.425-2.118-1.264-3.097-2.023-5.325-4.133-12.161-6.273-18.892-5.914,2.149-4.461,4.833-10.523,4.257-16.154-1.058-1.578-2.812-4.094-3.827-5.467-9.226-2.713-30.481,8.864-36.659,17.807,1.791-5.044-.623-8.539-4.766-11.928-4.143-3.388-9.572-4.761-14.881-5.442-9.458-1.214-19.157-.52-28.346,2.029-3.623,1.005-7.642,2.967-9.431,5.977-.101,2.135-.111,2.021-.184,4.271.905,1.637,2.421,2.993,4.11,3.85,2.657,1.347,5.69,1.699,8.65,2.029-13.215,4.042-26.012,9.24-37.61,17.761-3.058,3.707-1.88,10.077,2.303,12.445-13.38-.975-28.822,6.574-29.426,14.166-.098,1.234.411,2.703,1.045,4.148H-8.614v152.494h344.061l1.628-152.494h-54.447Z" fill="url(#g)"/>
          </g>
        </g>
        <g filter="url(#h)">
          <g>
            <path d="M101.105,181.343c17.404-1.172,31.537,1.919,31.568,6.902s-14.053,9.974-31.457,11.145c-17.404,1.172-31.537-1.919-31.568-6.902-.03-4.984,14.053-9.974,31.457-11.145Z" fill="#f4af13"/>
            <path d="M69.648,192.488c-.123-.049-1.003-5.748-1.003-5.748l63.025-4.243,1.003,5.748-63.025,4.243Z" fill="#f4af13"/>
            <path d="M100.102,175.595c17.404-1.172,31.537,1.919,31.568,6.902s-14.053,9.974-31.457,11.145c-17.404,1.172-31.537-1.919-31.568-6.902-.03-4.984,14.053-9.974,31.457-11.145Z" fill="#ffd66e"/>
          </g>
          <g>
            <path d="M105.313,174.988c17.435-.525,31.444,3.088,31.29,8.07-.155,4.981-14.414,9.445-31.849,9.97s-31.444-3.088-31.29-8.07c.155-4.981,14.414-9.445,31.849-9.97Z" fill="#f4af13"/>
            <path d="M73.464,184.958c-.121-.053-.789-5.781-.789-5.781l63.139-1.9.789,5.781-63.139,1.9Z" fill="#f4af13"/>
            <path d="M104.524,169.207c17.435-.525,31.444,3.088,31.29,8.07s-14.414,9.445-31.849,9.97c-17.435.525-31.444-3.088-31.29-8.07.155-4.981,14.414-9.445,31.849-9.97Z" fill="#ffd66e"/>
          </g>
          <g>
            <path d="M101.381,163.391c17.405-1.161,31.536,1.939,31.563,6.922.027,4.984-14.06,9.965-31.464,11.125-17.405,1.161-31.536-1.939-31.563-6.922s14.06-9.965,31.464-11.125Z" fill="#f4af13"/>
            <path d="M69.916,174.516c-.123-.049-1-5.748-1-5.748l63.028-4.203,1,5.748-63.028,4.203Z" fill="#f4af13"/>
            <path d="M100.381,157.642c17.405-1.161,31.536,1.939,31.563,6.922s-14.06,9.965-31.464,11.125c-17.405,1.161-31.536-1.939-31.563-6.922-.027-4.984,14.06-9.965,31.464-11.125Z" fill="#ffd66e"/>
            <path d="M77.459,174.364c5.76,1.376,13.942,1.931,23.021,1.326,3.486-.232,6.834-.62,9.967-1.128-4.827-.34-12.945-.498-14.048-3.677-1.625-4.684,7.2-4.858,4.981-7.494-3.275-3.889-5.912-2.551-8.886-4.937-5.207.732-9.884,1.802-13.679,3.078,4.325.428,11.457.982,11.763,3.533.485,4.042-8.568-1.132-7.436,3.557,1.087,4.502.517,5.128-5.684,5.743Z" fill="#fff" opacity=".5"/>
          </g>
          <g>
            <ellipse cx="138.458" cy="171.221" rx="10.103" ry="35.398" transform="translate(-73.708 112.289) rotate(-35.516)" fill="#f4af13"/>
            <path d="M117.894,142.409c-.028-.15,4.666-4.666,4.666-4.666l41.128,57.625-4.666,4.666-41.128-57.625Z" fill="#f4af13"/>
            <ellipse cx="143.124" cy="166.556" rx="10.103" ry="35.398" transform="translate(-70.129 114.131) rotate(-35.516)" fill="#ffd66e"/>
            <path d="M140.249,147.36c-4.302-4.36-8.359-7.529-11.644-9.095,1.707,7.153,10.237,16.296,9.825,19.04-.485,3.233-8.406-7.921-9.7-5.82-1.199,1.948-4.894.828-7.488-6.807,1.138,6.741,6.093,17.147,13.658,27.747,2.644,3.705,5.37,7.087,8.056,10.081.218.112.425.233.647.341,0,0-8.891-9.376-8.73-16.489.162-7.113,11.478,1.617,9.7-5.496-1.326-5.304-3.37-10.964-4.324-13.501Z" fill="#fff" opacity=".5"/>
          </g>
          <g>
            <g>
              <circle cx="179.461" cy="189.635" r="6.784" fill="#54bfd1"/>
              <path d="M185.018,187.504c-.474-.835-1.739-.704-2.032.211-.182.568-.451,1.13-.812,1.664-1.196,1.767-3.044,2.744-4.759,2.705-.818-.018-1.354.799-1.017,1.545.292.647.737,1.203,1.337,1.609,2.079,1.407,5.32.585,6.881-2.06,1.478-2.505,1.119-4.409.401-5.674Z" fill="#6498d1" mix-blend-mode="multiply" opacity=".25"/>
              <circle cx="175.954" cy="186.455" r="1.348" fill="#fff"/>
            </g>
            <g>
              <circle cx="167.55" cy="191.616" r="6.784" fill="#54bfd1"/>
              <path d="M173.107,189.484c-.474-.835-1.739-.704-2.032.211-.182.568-.451,1.13-.812,1.664-1.196,1.767-3.044,2.744-4.759,2.705-.818-.018-1.354.799-1.017,1.545.292.647.737,1.203,1.337,1.609,2.079,1.407,5.32.585,6.881-2.06,1.478-2.505,1.119-4.409.401-5.674Z" fill="#6498d1" mix-blend-mode="multiply" opacity=".25"/>
              <circle cx="164.043" cy="188.435" r="1.348" fill="#fff"/>
            </g>
            <g>
              <circle cx="156.316" cy="195.746" r="6.784" fill="#54bfd1"/>
              <path d="M161.873,193.615c-.474-.835-1.739-.704-2.032.211-.182.568-.451,1.13-.812,1.664-1.196,1.767-3.044,2.744-4.759,2.705-.818-.018-1.354.799-1.017,1.545.292.647.737,1.203,1.337,1.609,2.079,1.407,5.32.585,6.881-2.06,1.478-2.505,1.119-4.409.401-5.674Z" fill="#6498d1" mix-blend-mode="multiply" opacity=".25"/>
              <circle cx="152.809" cy="192.566" r="1.348" fill="#fff"/>
            </g>
            <g>
              <circle cx="146.318" cy="202.049" r="6.784" fill="#54bfd1"/>
              <path d="M151.876,199.918c-.474-.835-1.739-.704-2.032.211-.182.568-.451,1.13-.812,1.664-1.196,1.767-3.044,2.744-4.759,2.705-.818-.018-1.354.799-1.017,1.545.292.647.737,1.203,1.337,1.609,2.079,1.407,5.32.585,6.881-2.06,1.478-2.505,1.119-4.409.401-5.674Z" fill="#6498d1" mix-blend-mode="multiply" opacity=".25"/>
              <circle cx="142.812" cy="198.869" r="1.348" fill="#fff"/>
            </g>
            <g>
              <circle cx="141.589" cy="212.278" r="6.784" fill="#54bfd1"/>
              <path d="M147.147,210.146c-.474-.835-1.739-.704-2.032.211-.182.568-.451,1.13-.812,1.664-1.196,1.767-3.044,2.744-4.759,2.705-.818-.018-1.354.799-1.017,1.545.292.647.737,1.203,1.337,1.609,2.079,1.407,5.32.585,6.881-2.06,1.478-2.505,1.119-4.409.401-5.674Z" fill="#6498d1" mix-blend-mode="multiply" opacity=".25"/>
              <circle cx="138.083" cy="209.097" r="1.348" fill="#fff"/>
            </g>
            <g>
              <circle cx="145.597" cy="223.201" r="6.784" fill="#54bfd1"/>
              <path d="M151.154,221.069c-.474-.835-1.739-.704-2.032.211-.182.568-.451,1.13-.812,1.664-1.196,1.767-3.044,2.744-4.759,2.705-.818-.018-1.354.799-1.017,1.545.292.647.737,1.203,1.337,1.609,2.079,1.407,5.32.585,6.881-2.06,1.478-2.505,1.119-4.409.401-5.674Z" fill="#6498d1" mix-blend-mode="multiply" opacity=".25"/>
              <circle cx="142.09" cy="220.02" r="1.348" fill="#fff"/>
            </g>
            <g>
              <circle cx="154.919" cy="230.617" r="6.784" fill="#54bfd1"/>
              <path d="M160.476,228.486c-.474-.835-1.739-.704-2.032.211-.182.568-.451,1.13-.812,1.664-1.196,1.767-3.044,2.744-4.759,2.705-.818-.018-1.354.799-1.017,1.545.292.647.737,1.203,1.337,1.609,2.079,1.407,5.32.585,6.881-2.06,1.478-2.505,1.119-4.409.401-5.674Z" fill="#6498d1" mix-blend-mode="multiply" opacity=".25"/>
              <circle cx="151.412" cy="227.437" r="1.348" fill="#fff"/>
            </g>
            <g>
              <circle cx="166.115" cy="235.139" r="6.784" fill="#54bfd1"/>
              <path d="M171.672,233.008c-.474-.835-1.739-.704-2.032.211-.182.568-.451,1.13-.812,1.664-1.196,1.767-3.044,2.744-4.759,2.705-.818-.018-1.354.799-1.017,1.545.292.647.737,1.203,1.337,1.609,2.079,1.407,5.32.585,6.881-2.06,1.478-2.505,1.119-4.409.401-5.674Z" fill="#6498d1" mix-blend-mode="multiply" opacity=".25"/>
              <circle cx="162.608" cy="231.959" r="1.348" fill="#fff"/>
            </g>
            <g>
              <circle cx="177.311" cy="239.661" r="6.784" fill="#54bfd1"/>
              <path d="M182.868,237.53c-.474-.835-1.739-.704-2.032.211-.182.568-.451,1.13-.812,1.664-1.196,1.767-3.044,2.744-4.759,2.705-.818-.018-1.354.799-1.017,1.545.292.647.737,1.203,1.337,1.609,2.079,1.407,5.32.585,6.881-2.06,1.478-2.505,1.119-4.409.401-5.674Z" fill="#6498d1" mix-blend-mode="multiply" opacity=".25"/>
              <circle cx="173.804" cy="236.481" r="1.348" fill="#fff"/>
            </g>
            <g>
              <circle cx="189.149" cy="241.406" r="6.784" fill="#54bfd1"/>
              <path d="M194.706,239.274c-.474-.835-1.739-.704-2.032.211-.182.568-.451,1.13-.812,1.664-1.196,1.767-3.044,2.744-4.759,2.705-.818-.018-1.354.799-1.017,1.545.292.647.737,1.203,1.337,1.609,2.079,1.407,5.32.585,6.881-2.06,1.478-2.505,1.119-4.409.401-5.674Z" fill="#6498d1" mix-blend-mode="multiply" opacity=".25"/>
              <circle cx="185.642" cy="238.225" r="1.348" fill="#fff"/>
            </g>
            <g>
              <circle cx="201.194" cy="242.258" r="6.784" fill="#54bfd1"/>
              <path d="M206.751,240.126c-.474-.835-1.739-.704-2.032.211-.182.568-.451,1.13-.812,1.664-1.196,1.767-3.044,2.744-4.759,2.705-.818-.018-1.354.799-1.017,1.545.292.647.737,1.203,1.337,1.609,2.079,1.407,5.32.585,6.881-2.06,1.478-2.505,1.119-4.409.401-5.674Z" fill="#6498d1" mix-blend-mode="multiply" opacity=".25"/>
              <circle cx="197.687" cy="239.077" r="1.348" fill="#fff"/>
            </g>
            <g>
              <circle cx="213.232" cy="242.655" r="6.784" fill="#54bfd1"/>
              <path d="M218.789,240.523c-.474-.835-1.739-.704-2.032.211-.182.568-.451,1.13-.812,1.664-1.196,1.767-3.044,2.744-4.759,2.705-.818-.018-1.354.799-1.017,1.545.292.647.737,1.203,1.337,1.609,2.079,1.407,5.32.585,6.881-2.06,1.478-2.505,1.119-4.409.401-5.674Z" fill="#6498d1" mix-blend-mode="multiply" opacity=".25"/>
              <circle cx="209.726" cy="239.474" r="1.348" fill="#fff"/>
            </g>
            <g>
              <circle cx="225.25" cy="241.48" r="6.784" fill="#54bfd1"/>
              <path d="M230.807,239.349c-.474-.835-1.739-.704-2.032.211-.182.568-.451,1.13-.812,1.664-1.196,1.767-3.044,2.744-4.759,2.705-.818-.018-1.354.799-1.017,1.545.292.647.737,1.203,1.337,1.609,2.079,1.407,5.32.585,6.881-2.06,1.478-2.505,1.119-4.409.401-5.674Z" fill="#6498d1" mix-blend-mode="multiply" opacity=".25"/>
              <circle cx="221.743" cy="238.3" r="1.348" fill="#fff"/>
            </g>
            <g>
              <circle cx="236.831" cy="238.448" r="6.784" fill="#54bfd1"/>
              <path d="M242.389,236.317c-.474-.835-1.739-.704-2.032.211-.182.568-.451,1.13-.812,1.664-1.196,1.767-3.044,2.744-4.759,2.705-.818-.018-1.354.799-1.017,1.545.292.647.737,1.203,1.337,1.609,2.079,1.407,5.32.585,6.881-2.06,1.478-2.505,1.119-4.409.401-5.674Z" fill="#6498d1" mix-blend-mode="multiply" opacity=".25"/>
              <circle cx="233.325" cy="235.268" r="1.348" fill="#fff"/>
            </g>
            <g>
              <circle cx="248.117" cy="234.156" r="6.784" fill="#54bfd1"/>
              <path d="M253.674,232.024c-.474-.835-1.739-.704-2.032.211-.182.568-.451,1.13-.812,1.664-1.196,1.767-3.044,2.744-4.759,2.705-.818-.018-1.354.799-1.017,1.545.292.647.737,1.203,1.337,1.609,2.079,1.407,5.32.585,6.881-2.06,1.478-2.505,1.119-4.409.401-5.674Z" fill="#6498d1" mix-blend-mode="multiply" opacity=".25"/>
              <circle cx="244.61" cy="230.975" r="1.348" fill="#fff"/>
            </g>
          </g>
          <g>
            <polygon points="175.764 211.319 264.355 206.204 225.481 124.774 207.886 123.137 178.014 135.413 156.736 171.013 164.511 204.568 175.764 211.319" fill="#e86170"/>
            <polygon points="167.375 179.607 175.764 211.319 164.511 204.568 156.736 171.013 167.375 179.607" fill="#a384bb" mix-blend-mode="multiply"/>
            <polygon points="175.764 211.319 264.355 206.204 225.481 124.774 192.745 137.459 167.375 179.607 175.764 211.319" fill="#e86170"/>
            <polygon points="167.375 179.607 175.764 211.319 264.355 206.204 167.375 179.607" fill="#a384bb" mix-blend-mode="multiply" opacity=".5"/>
            <polygon points="178.014 135.413 192.745 137.459 167.375 179.607 156.736 171.013 178.014 135.413" fill="#e86170"/>
            <polygon points="264.355 206.204 192.745 137.459 167.375 179.607 264.355 206.204" fill="#fff" opacity=".5"/>
            <polygon points="264.355 206.204 225.481 124.774 192.745 137.459 264.355 206.204" fill="#fff" opacity=".25"/>
            <polygon points="192.745 137.459 178.014 135.413 156.736 171.013 167.375 179.607 192.745 137.459" fill="#fff" opacity=".25"/>
            <path d="M264.355,206.204s-45.919-12.954-49.917-18.706c-3.997-5.752,9.652-3.022,4.095-17.938-5.557-14.916-11.016-9.554-10.529-17.353,9.359-2.242,9.847-7.507,11.114-11.309,1.267-3.802,7.799-12.869,7.799-12.869l-1.436-3.256-13.382,5.01c-4.875,5.849,5.752,11.699-6.629,19.693-7.702,11.699-2.145,12.674,0,16.768s-7.117,8.677-8.774,14.234c-1.657,5.557-9.944,7.019-14.429-1.755-4.485-8.774-2.73-19.498-2.73-19.498l-12.162,20.38,96.98,26.598Z" fill="#fff" opacity=".5"/>
          </g>
          <g>
            <g>
              <circle cx="156.226" cy="204.575" r="6.784" fill="#54bfd1"/>
              <path d="M161.784,202.443c-.474-.835-1.739-.704-2.032.211-.182.568-.451,1.13-.812,1.664-1.196,1.767-3.044,2.744-4.759,2.705-.818-.018-1.354.799-1.017,1.545.292.647.737,1.203,1.337,1.609,2.079,1.407,5.32.585,6.881-2.06,1.478-2.505,1.119-4.409.401-5.674Z" fill="#6498d1" mix-blend-mode="multiply" opacity=".25"/>
              <circle cx="152.72" cy="201.394" r="1.348" fill="#fff"/>
            </g>
            <g>
              <circle cx="163.089" cy="212.389" r="6.784" fill="#54bfd1"/>
              <path d="M168.647,210.257c-.474-.835-1.739-.704-2.032.211-.182.568-.451,1.13-.812,1.664-1.196,1.767-3.044,2.744-4.759,2.705-.818-.018-1.354.799-1.017,1.545.292.647.737,1.203,1.337,1.609,2.079,1.407,5.32.585,6.881-2.06,1.478-2.505,1.119-4.409.401-5.674Z" fill="#6498d1" mix-blend-mode="multiply" opacity=".25"/>
              <circle cx="159.583" cy="209.208" r="1.348" fill="#fff"/>
            </g>
            <g>
              <circle cx="174.908" cy="214.614" r="6.784" fill="#54bfd1"/>
              <path d="M180.466,212.482c-.474-.835-1.739-.704-2.032.211-.182.568-.451,1.13-.812,1.664-1.196,1.767-3.044,2.744-4.759,2.705-.818-.018-1.354.799-1.017,1.545.292.647.737,1.203,1.337,1.609,2.079,1.407,5.32.585,6.881-2.06,1.478-2.505,1.119-4.409.401-5.674Z" fill="#6498d1" mix-blend-mode="multiply" opacity=".25"/>
              <circle cx="171.402" cy="211.433" r="1.348" fill="#fff"/>
            </g>
            <g>
              <circle cx="186.964" cy="215.107" r="6.784" fill="#54bfd1"/>
              <path d="M192.521,212.975c-.474-.835-1.739-.704-2.032.211-.182.568-.451,1.13-.812,1.664-1.196,1.767-3.044,2.744-4.759,2.705-.818-.018-1.354.799-1.017,1.545.292.647.737,1.203,1.337,1.609,2.079,1.407,5.32.585,6.881-2.06,1.478-2.505,1.119-4.409.401-5.674Z" fill="#6498d1" mix-blend-mode="multiply" opacity=".25"/>
              <circle cx="183.457" cy="211.926" r="1.348" fill="#fff"/>
            </g>
            <g>
              <circle cx="199.029" cy="214.688" r="6.784" fill="#54bfd1"/>
              <path d="M204.586,212.557c-.474-.835-1.739-.704-2.032.211-.182.568-.451,1.13-.812,1.664-1.196,1.767-3.044,2.744-4.759,2.705-.818-.018-1.354.799-1.017,1.545.292.647.737,1.203,1.337,1.609,2.079,1.407,5.32.585,6.881-2.06,1.478-2.505,1.119-4.409.401-5.674Z" fill="#6498d1" mix-blend-mode="multiply" opacity=".25"/>
              <circle cx="195.522" cy="211.508" r="1.348" fill="#fff"/>
            </g>
            <g>
              <circle cx="211.072" cy="213.819" r="6.784" fill="#54bfd1"/>
              <path d="M216.629,211.688c-.474-.835-1.739-.704-2.032.211-.182.568-.451,1.13-.812,1.664-1.196,1.767-3.044,2.744-4.759,2.705-.818-.018-1.354.799-1.017,1.545.292.647.737,1.203,1.337,1.609,2.079,1.407,5.32.585,6.881-2.06,1.478-2.505,1.119-4.409.401-5.674Z" fill="#6498d1" mix-blend-mode="multiply" opacity=".25"/>
              <circle cx="207.565" cy="210.639" r="1.348" fill="#fff"/>
            </g>
            <g>
              <circle cx="223.123" cy="213.071" r="6.784" fill="#54bfd1"/>
              <path d="M228.68,210.94c-.474-.835-1.739-.704-2.032.211-.182.568-.451,1.13-.812,1.664-1.196,1.767-3.044,2.744-4.759,2.705-.818-.018-1.354.799-1.017,1.545.292.647.737,1.203,1.337,1.609,2.079,1.407,5.32.585,6.881-2.06,1.478-2.505,1.119-4.409.401-5.674Z" fill="#6498d1" mix-blend-mode="multiply" opacity=".25"/>
              <circle cx="219.616" cy="209.891" r="1.348" fill="#fff"/>
            </g>
            <g>
              <circle cx="235.023" cy="214.282" r="6.784" fill="#54bfd1"/>
              <path d="M240.581,212.151c-.474-.835-1.739-.704-2.032.211-.182.568-.451,1.13-.812,1.664-1.196,1.767-3.044,2.744-4.759,2.705-.818-.018-1.354.799-1.017,1.545.292.647.737,1.203,1.337,1.609,2.079,1.407,5.32.585,6.881-2.06,1.478-2.505,1.119-4.409.401-5.674Z" fill="#6498d1" mix-blend-mode="multiply" opacity=".25"/>
              <circle cx="231.517" cy="211.101" r="1.348" fill="#fff"/>
            </g>
            <g>
              <circle cx="246.817" cy="216.873" r="6.784" fill="#54bfd1"/>
              <path d="M252.374,214.742c-.474-.835-1.739-.704-2.032.211-.182.568-.451,1.13-.812,1.664-1.196,1.767-3.044,2.744-4.759,2.705-.818-.018-1.354.799-1.017,1.545.292.647.737,1.203,1.337,1.609,2.079,1.407,5.32.585,6.881-2.06,1.478-2.505,1.119-4.409.401-5.674Z" fill="#6498d1" mix-blend-mode="multiply" opacity=".25"/>
              <circle cx="243.31" cy="213.693" r="1.348" fill="#fff"/>
            </g>
            <g>
              <circle cx="254.532" cy="224.69" r="6.784" fill="#54bfd1"/>
              <path d="M260.089,222.559c-.474-.835-1.739-.704-2.032.211-.182.568-.451,1.13-.812,1.664-1.196,1.767-3.044,2.744-4.759,2.705-.818-.018-1.354.799-1.017,1.545.292.647.737,1.203,1.337,1.609,2.079,1.407,5.32.585,6.881-2.06,1.478-2.505,1.119-4.409.401-5.674Z" fill="#6498d1" mix-blend-mode="multiply" opacity=".25"/>
              <circle cx="251.025" cy="221.51" r="1.348" fill="#fff"/>
            </g>
            <g>
              <circle cx="248.117" cy="234.156" r="6.784" fill="#54bfd1"/>
              <path d="M253.674,232.024c-.474-.835-1.739-.704-2.032.211-.182.568-.451,1.13-.812,1.664-1.196,1.767-3.044,2.744-4.759,2.705-.818-.018-1.354.799-1.017,1.545.292.647.737,1.203,1.337,1.609,2.079,1.407,5.32.585,6.881-2.06,1.478-2.505,1.119-4.409.401-5.674Z" fill="#6498d1" mix-blend-mode="multiply" opacity=".25"/>
              <circle cx="244.61" cy="230.975" r="1.348" fill="#fff"/>
            </g>
          </g>
        </g>
      </g>
      <g opacity=".5">
        <circle cx="69.916" cy="158.453" r="9.007" fill="#fff" opacity=".5"/>
        <circle cx="69.916" cy="167.264" r="3.21" fill="#fff"/>
        <circle cx="228.903" cy="123.968" r="9.29" fill="#fff" opacity=".5"/>
        <circle cx="219.613" cy="124.774" r="6.225" fill="#fff"/>
        <circle cx="235.232" cy="144.946" r="6.681" fill="#fff"/>
      </g>
    </g>
  </g>
</svg>