<?xml version="1.0" encoding="UTF-8"?><svg xmlns="http://www.w3.org/2000/svg" xmlns:xlink="http://www.w3.org/1999/xlink" viewBox="0 0 200 180"><defs><style>.cls-1{fill:url(#_40_10_ppp-3);}.cls-1,.cls-2,.cls-3,.cls-4,.cls-5,.cls-6,.cls-7,.cls-8,.cls-9,.cls-10,.cls-11,.cls-12,.cls-13,.cls-14,.cls-15,.cls-16,.cls-17,.cls-18,.cls-19,.cls-20{stroke-width:0px;}.cls-1,.cls-4,.cls-18,.cls-19,.cls-20{opacity:.25;}.cls-1,.cls-4,.cls-18,.cls-19,.cls-20,.cls-21{mix-blend-mode:overlay;}.cls-2{fill:url(#Dégradé_sans_nom_51);mix-blend-mode:hard-light;}.cls-3{fill:#fdfdfd;opacity:.5;}.cls-4{fill:url(#_40_10_ppp-4);}.cls-5{fill:#db6b4c;}.cls-6{fill:#ffa544;}.cls-22{clip-path:url(#clippath-2);}.cls-23{isolation:isolate;}.cls-7{fill:#d07b73;mix-blend-mode:soft-light;}.cls-8,.cls-24,.cls-21{fill:none;}.cls-9{fill:#a5a5a5;}.cls-10{fill:url(#Dégradé_sans_nom_58);}.cls-25{clip-path:url(#clippath-1);}.cls-11{fill:#ffcb57;}.cls-12{fill:#6a90c6;}.cls-13{fill:#1d1061;}.cls-14{fill:#f2f0ec;}.cls-15{fill:#dedede;}.cls-16{fill:url(#Dégradé_sans_nom_64);}.cls-17{fill:url(#Dégradé_sans_nom_59);}.cls-26{clip-path:url(#clippath);}.cls-18{fill:url(#_40_10_ppp-2);}.cls-24{stroke:#1d1061;}.cls-24,.cls-21{stroke-linecap:round;stroke-linejoin:round;stroke-width:.8px;}.cls-19{fill:url(#_40_10_ppp-5);}.cls-20{fill:url(#_40_10_ppp);}.cls-21{stroke:#f2f0ec;}</style><clipPath id="clippath"><rect class="cls-8" width="200" height="180" rx="10" ry="10"/></clipPath><pattern id="_40_10_ppp" x="0" y="0" width="4.93" height="4.93" patternTransform="translate(8382.81 9269.18) scale(2.08)" patternUnits="userSpaceOnUse" viewBox="0 0 4.93 4.93"><rect class="cls-8" y="0" width="4.93" height="4.93"/><circle class="cls-13" cx="4.41" cy="4.41" r=".52"/><circle class="cls-13" cx="1.82" cy="4.41" r=".52"/><path class="cls-13" d="M4.41,2.34c.29,0,.52-.23.52-.52s-.23-.52-.52-.52-.52.23-.52.52.23.52.52.52Z"/><path class="cls-13" d="M1.82,2.34c.29,0,.52-.23.52-.52s-.23-.52-.52-.52-.52.23-.52.52.23.52.52.52Z"/><path class="cls-13" d="M.52,3.63c.29,0,.52-.23.52-.52s-.23-.52-.52-.52S0,2.83,0,3.11s.23.52.52.52Z"/><circle class="cls-13" cx="3.11" cy="3.11" r=".52"/><path class="cls-13" d="M.52,1.04c.29,0,.52-.23.52-.52S.81,0,.52,0,0,.23,0,.52s.23.52.52.52Z"/><circle class="cls-13" cx="3.11" cy=".52" r=".52"/></pattern><linearGradient id="Dégradé_sans_nom_58" x1="-1013.01" y1="79.77" x2="-582.38" y2="19.9" gradientTransform="translate(-163.93 1231.2) rotate(90) scale(1 -1)" gradientUnits="userSpaceOnUse"><stop offset="0" stop-color="#6a90c6" stop-opacity="0"/><stop offset="1" stop-color="#6a90c6"/></linearGradient><linearGradient id="Dégradé_sans_nom_59" x1="-2077.17" y1="268.61" x2="-1609.42" y2="181.7" gradientTransform="translate(129.84 -1902.87) rotate(-90) scale(1 -1)" gradientUnits="userSpaceOnUse"><stop offset="0" stop-color="#ffa544" stop-opacity="0"/><stop offset="1" stop-color="#db6b4c"/></linearGradient><linearGradient id="Dégradé_sans_nom_51" x1="-2062.93" y1="187.39" x2="-1597.2" y2="295.75" gradientTransform="translate(129.84 -1902.87) rotate(-90) scale(1 -1)" gradientUnits="userSpaceOnUse"><stop offset="0" stop-color="#ffa544" stop-opacity="0"/><stop offset="1" stop-color="#db6b4c"/></linearGradient><clipPath id="clippath-1"><rect class="cls-8" width="200" height="180" rx="10" ry="10"/></clipPath><pattern id="_40_10_ppp-2" patternTransform="translate(-5153.35 703.75) rotate(26.65) scale(.82)" xlink:href="#_40_10_ppp"/><pattern id="_40_10_ppp-3" patternTransform="translate(-5152.32 704.17) rotate(26.65) scale(.82)" xlink:href="#_40_10_ppp"/><pattern id="_40_10_ppp-4" patternTransform="translate(-5152.32 704.17) rotate(26.65) scale(.82)" xlink:href="#_40_10_ppp"/><clipPath id="clippath-2"><circle class="cls-8" cx="117.5" cy="77.57" r="7.72"/></clipPath><linearGradient id="Dégradé_sans_nom_64" x1="758.5" y1="130.94" x2="768.11" y2="120.33" gradientTransform="translate(-283.21 -585.38) rotate(49.49)" gradientUnits="userSpaceOnUse"><stop offset="0" stop-color="#fff" stop-opacity="0"/><stop offset="1" stop-color="#fff"/></linearGradient><pattern id="_40_10_ppp-5" patternTransform="translate(-5152.32 704.17) rotate(26.65) scale(.82)" xlink:href="#_40_10_ppp"/></defs><g class="cls-23"><g id="BG_4"><g class="cls-26"><rect class="cls-13" x="-599.71" y="-230.29" width="986.65" height="822.97"/><rect class="cls-20" x="-599.71" y="-230.29" width="986.65" height="822.97"/><path class="cls-10" d="M386.94,592.69V212.12c-249.49-99.28-431.82,36.26-663.99,22.18-150.75-9.14-188.29-99.44-322.66-70.81v429.19s986.65,0,986.65,0Z"/><path class="cls-17" d="M-599.71-230.29V122.73c154.03,72.7,343.77,22.27,549.41,42.46,250.75,24.62,272.22,72.72,437.24,65.09V-230.29s-986.65,0-986.65,0Z"/><path class="cls-2" d="M-599.71-230.29V130.61C-445.68,203.3-255.94,71.02-50.3,91.21c250.75,24.62,272.22,59.84,437.24,52.21V-230.29s-986.65,0-986.65,0Z"/><polygon class="cls-21" points="92.69 75.89 87.02 68.48 85.51 78.2 91.88 71.03 83.84 71.66 92.69 75.89"/><polygon class="cls-21" points="174.77 53.27 176.9 44.75 179.63 52.13 172.31 47.74 181.43 46.48 174.77 53.27"/><path class="cls-7" d="M75.13-29.57C46.87-30.24,36.52-10.16,3.69-10.85c-20.5-.43-47.01-14.35-64.52-15.21-29.82-1.46-58.27,10.37-57.01,19.7,1.87,13.88,38.45-1.51,63.78,5.71C-33.49,5.21-5.7,42.98,26.2,46.6c31.91,3.61,67.83-21.68,92.75-15.65,24.92,6.03,91.29-5.63,87.2-21.71-5.15-20.25-40.47,1.82-76.29-11.89-21.06-8.06-24.75-26.21-54.73-26.92Z"/><path class="cls-24" d="M71.37-33.79C43.1-34.46,32.76-14.39-.07-15.08c-20.5-.43-47.01-14.35-64.52-15.21-29.82-1.46-58.27,10.37-57.01,19.7,1.87,13.88,38.45-1.51,63.78,5.71C-37.25.99-9.47,38.76,22.44,42.37c31.91,3.61,67.83-21.68,92.75-15.65,24.92,6.03,91.29-5.63,87.2-21.71-5.15-20.25-40.47,1.82-76.29-11.89-21.06-8.06-24.75-26.21-54.73-26.92Z"/></g><g class="cls-25"><g id="E1"><path class="cls-3" d="M70.43,135c.93-.72,1.81-1.48,2.62-2.28l-13.38-23.44c-3.04,4.2-6.71,7.91-11,11.12-4.89,3.63-10.22,6.32-15.98,8.08-2.63.72-4.59,1.27-5.9,1.66-2.28.69-4.15,1.47-5.62,2.32-1.65.96-3.12,2.17-4.4,3.62-1.29,1.45-2.32,3.05-3.08,4.8-.53,1.28-.8,2.4-.8,3.36-2.68-1.72-5.29-1.87-7.82-.44-2.55,1.43-3.86,4.09-3.94,8-1.75-.4-3.67-.51-5.76-.32-3.2.31-5.9,1.25-8.1,2.84-2.13,1.53-3.83,3.73-5.1,6.6-.45,1.04-.84,2.17-1.16,3.38-.24-.19-.39-.3-.44-.34-.77-.48-1.66-.81-2.66-.98-.67-.11-1.26-.13-1.78-.06-1.67.21-3.19,1.26-4.56,3.14-.85,1.2-1.51,2.52-1.96,3.96-.19.6-.33,1.2-.42,1.8l20.14,24.34c.12.17.48.65,1.08,1.42,4.27,2.55,6.74,1.39,7.42-3.46,4.68-1.15,8.86-2.97,12.54-5.46,2.75-1.87,5.11-4.07,7.08-6.62,2.07-2.67,3.56-5.51,4.48-8.54.95-3.09,1.35-6.67,1.2-10.72-.04-1.23-.16-2.73-.36-4.5.19.07.38.13.58.18,1.16.32,2.13.37,2.9.16.92-.25,1.68-.83,2.28-1.72.47-.65.83-1.54,1.1-2.66.15-.6.25-1.21.3-1.82,1.8.55,3.69.81,5.66.8,2.73-.03,5.31-.61,7.72-1.76,1.15-.55,2.14-1.18,2.98-1.9.71-.63,1.46-1.48,2.26-2.56,1.52-2.04,2.77-4.1,3.74-6.18,4.12-.04,7.95-.75,11.48-2.12,2.41-.93,4.63-2.17,6.66-3.7Z"/><path class="cls-18" d="M71.23,136.6c.93-.72,1.81-1.48,2.62-2.28l-13.38-23.44c-3.04,4.2-6.71,7.91-11,11.12-4.89,3.63-10.22,6.32-15.98,8.08-2.63.72-4.59,1.27-5.9,1.66-2.28.69-4.15,1.47-5.62,2.32-1.65.96-3.12,2.17-4.4,3.62-1.29,1.45-2.32,3.05-3.08,4.8-.53,1.28-.8,2.4-.8,3.36-2.68-1.72-5.29-1.87-7.82-.44-2.55,1.43-3.86,4.09-3.94,8-1.75-.4-3.67-.51-5.76-.32-3.2.31-5.9,1.25-8.1,2.84-2.13,1.53-3.83,3.73-5.1,6.6-.45,1.04-.84,2.17-1.16,3.38-.24-.19-.39-.3-.44-.34-.77-.48-1.66-.81-2.66-.98-.67-.11-1.26-.13-1.78-.06-1.67.21-3.19,1.26-4.56,3.14-.85,1.2-1.51,2.52-1.96,3.96-.19.6-.33,1.2-.42,1.8l20.14,24.34c.12.17.48.65,1.08,1.42,4.27,2.55,6.74,1.39,7.42-3.46,4.68-1.15,8.86-2.97,12.54-5.46,2.75-1.87,5.11-4.07,7.08-6.62,2.07-2.67,3.56-5.51,4.48-8.54.95-3.09,1.35-6.67,1.2-10.72-.04-1.23-.16-2.73-.36-4.5.19.07.38.13.58.18,1.16.32,2.13.37,2.9.16.92-.25,1.68-.83,2.28-1.72.47-.65.83-1.54,1.1-2.66.15-.6.25-1.21.3-1.82,1.8.55,3.69.81,5.66.8,2.73-.03,5.31-.61,7.72-1.76,1.15-.55,2.14-1.18,2.98-1.9.71-.63,1.46-1.48,2.26-2.56,1.52-2.04,2.77-4.1,3.74-6.18,4.12-.04,7.95-.75,11.48-2.12,2.41-.93,4.63-2.17,6.66-3.7Z"/></g></g><path class="cls-11" d="M90.6,101.42c-7.19-9.57-20.78-11.5-30.35-4.31-15.33,11.52-9.38,29.01-12.68,36.19l6.71-2.29-3.18,3.9c10.13,0,21.26,7.33,35.19-3.13,9.57-7.19,11.5-20.78,4.31-30.35Z"/><circle class="cls-5" cx="80.93" cy="108.68" r="12.26" transform="translate(-53.13 128.4) rotate(-61.69)"/><path class="cls-1" d="M88.52,100.98c-5.96-7.93-17.21-9.53-25.14-3.57-12.7,9.54-7.77,24.03-10.51,29.98l5.56-1.9-2.63,3.23c8.39,0,17.61,6.07,29.15-2.59,7.93-5.96,9.53-17.21,3.57-25.14Z"/><path class="cls-13" d="M124.83,105.89c-.28-1.13-1.63-1.59-2.54-.86l-7.09,5.67c.1-2.1-.05-4.11-.39-6.02,8.06-5.26,18.61-14.73,24.06-30.3h0s0,0,0,0c.82-2.35,1.53-4.84,2.09-7.48.02-.1.04-.2.06-.3.11-.52.21-1.05.31-1.58.03-.18.06-.36.1-.54.08-.46.16-.93.23-1.4.03-.21.06-.42.09-.63.07-.47.13-.95.19-1.43.02-.2.05-.4.07-.6.08-.68.14-1.36.2-2.05.01-.18.01-.35,0-.52-.03-.25-.1-.5-.2-.73-.07-.15-.15-.3-.24-.43-.14-.2-.31-.39-.51-.54-.39-.31-.87-.51-1.4-.55-.69-.05-1.38-.09-2.06-.12-.2,0-.4-.01-.6-.02-.48-.02-.96-.03-1.44-.04-.21,0-.43,0-.64,0-.48,0-.95,0-1.42,0-.18,0-.37,0-.55.01-.54.01-1.08.03-1.61.06-.1,0-.2,0-.3.01-20.52,1.1-33.98,11.72-41.4,19.93-1.83-.63-3.8-1.09-5.89-1.32l6.71-6.12c.86-.78.62-2.19-.45-2.64-4.61-1.93-15.82-4.41-25.47,10.85-.46.74-.39,1.69.17,2.35l4.87,5.7c.73.85,2.02.93,2.85.18l2.84-2.59c1.63.08,3.65.28,5.88.68.37.07.74.14,1.12.22,0,0,.02,0,.02,0,.37.08.75.16,1.13.25,0,0,.02,0,.03,0,.1.02.2.05.3.08-.81,1.27-1.21,2.02-1.21,2.02l2.09,2.45-4.8,6.82,14.58,17.06,7.48-3.68,2.09,2.45s.81-.28,2.19-.88c.06.74.11,1.47.13,2.18h0c.08,2.45-.05,4.65-.23,6.38l-3,2.4c-.88.7-1,1.99-.27,2.84l4.87,5.7c.56.66,1.5.88,2.3.54,16.59-7.15,15.88-18.61,14.7-23.46Z"/><polygon class="cls-13" points="87.29 85.66 81.54 93.81 96.12 110.87 105.08 106.47 87.29 85.66"/><path class="cls-9" d="M107.36,86.52s-9.69-13.35-25.13-13.13l-9.24,7.89s18.23-1.39,28.31,10.41l6.06-5.17Z"/><path class="cls-13" d="M90.88,74.71c-2.04,1.5-4.72,3.79-8,7.26,2.96.54,6.27,1.45,9.49,2.99l2.21-8.78c-1.16-.56-2.4-1.06-3.7-1.48Z"/><path class="cls-6" d="M74.17,83.87l18.03-16.45c.86-.78.62-2.19-.45-2.64-4.61-1.93-15.82-4.41-25.47,10.85-.46.74-.39,1.69.17,2.35l4.87,5.7c.73.85,2.02.93,2.85.18Z"/><path class="cls-9" d="M107.36,86.52s11.67,11.66,9.04,26.87l-9.24,7.89s4.22-17.79-5.86-29.59l6.06-5.17Z"/><path class="cls-13" d="M108.01,110.94c3.66-1.99,6.45-4.24,8.46-6.18-.14-.91-.32-1.8-.53-2.66l-8.38,3.95c.26,1.69.4,3.34.46,4.89Z"/><path class="cls-6" d="M104.78,119.71l19.06-15.24c.91-.73,2.26-.27,2.54.86,1.18,4.86,1.89,16.31-14.7,23.46-.8.34-1.73.12-2.3-.54l-4.87-5.7c-.73-.85-.61-2.14.27-2.84Z"/><path class="cls-14" d="M141.4,55.04c-40.05-2.98-57.15,29.51-57.15,29.51l21.44,25.09s34.76-11.81,38.08-51.83c.12-1.42-.95-2.66-2.37-2.77Z"/><path class="cls-13" d="M140.43,73.82c1.66-4.75,2.85-10.07,3.34-16.01.12-1.42-.95-2.66-2.37-2.77-5.95-.44-11.38-.1-16.33.8l15.36,17.98Z"/><path class="cls-4" d="M125.35,63.41c-27.79-1.52-40.11,21.15-40.11,21.15l14.56,17.05s24.32-8.63,27.16-36.32c.1-.98-.62-1.83-1.61-1.88Z"/><circle class="cls-15" cx="117.5" cy="77.57" r="11.66"/><ellipse class="cls-13" cx="117.43" cy="77.36" rx="8.16" ry="8.27" transform="translate(-22.1 94.81) rotate(-40.5)"/><circle class="cls-12" cx="117.5" cy="77.57" r="7.72"/><g class="cls-22"><path class="cls-16" d="M108.35,72.43s2.88-2.98,8.59.67c5.7,3.65,10.32.74,10.32.74l.57,3.09s-3.91,4.8-9.45,2.55c-5.54-2.25-7.9-.48-9.77,2.02l-.26-9.08Z"/></g><circle class="cls-19" cx="117.43" cy="77.28" r="6.65"/></g></g></svg>