<?xml version="1.0" encoding="UTF-8"?><svg xmlns="http://www.w3.org/2000/svg" xmlns:xlink="http://www.w3.org/1999/xlink" viewBox="0 0 1500 300"><defs><style>.cls-1{fill:url(#_40_10_ppp-3);}.cls-1,.cls-2,.cls-3,.cls-4,.cls-5,.cls-6,.cls-7,.cls-8,.cls-9,.cls-10,.cls-11,.cls-12,.cls-13,.cls-14,.cls-15,.cls-16,.cls-17,.cls-18,.cls-19,.cls-20,.cls-21,.cls-22,.cls-23,.cls-24,.cls-25,.cls-26,.cls-27,.cls-28,.cls-29,.cls-30,.cls-31,.cls-32,.cls-33,.cls-34,.cls-35,.cls-36,.cls-37,.cls-38,.cls-39,.cls-40,.cls-41,.cls-42,.cls-43,.cls-44,.cls-45,.cls-46,.cls-47,.cls-48,.cls-49,.cls-50,.cls-51{stroke-width:0px;}.cls-1,.cls-3,.cls-4,.cls-6,.cls-52,.cls-9,.cls-10,.cls-12,.cls-13,.cls-15,.cls-16,.cls-18,.cls-25,.cls-27,.cls-30,.cls-37,.cls-38,.cls-41,.cls-43,.cls-44,.cls-45,.cls-46,.cls-48,.cls-49,.cls-50,.cls-51{mix-blend-mode:overlay;}.cls-1,.cls-3,.cls-4,.cls-6,.cls-9,.cls-10,.cls-12,.cls-13,.cls-15,.cls-16,.cls-18,.cls-25,.cls-27,.cls-30,.cls-37,.cls-38,.cls-41,.cls-43,.cls-44,.cls-45,.cls-46,.cls-48,.cls-49,.cls-50,.cls-51{opacity:.25;}.cls-53{clip-path:url(#clippath-11);}.cls-2{fill:url(#Dégradé_sans_nom_51-9);}.cls-3{fill:url(#_40_10_ppp-22);}.cls-4{fill:url(#_40_10_ppp-20);}.cls-5{fill:#fdfdfd;opacity:.5;}.cls-6{fill:url(#_40_10_ppp-4);}.cls-52{stroke:#f2f0ec;}.cls-52,.cls-54{stroke-linecap:round;stroke-linejoin:round;stroke-width:1.08px;}.cls-52,.cls-54,.cls-19{fill:none;}.cls-7{fill:url(#Dégradé_sans_nom_64-3);}.cls-54{stroke:#1d1061;}.cls-8{fill:#db6b4c;}.cls-9{fill:url(#_40_10_ppp-8);}.cls-10{fill:url(#_40_10_ppp-25);}.cls-11{fill:#ffa544;}.cls-12{fill:url(#_40_10_ppp-19);}.cls-55{clip-path:url(#clippath-2);}.cls-56{clip-path:url(#clippath-13);}.cls-57{isolation:isolate;}.cls-13{fill:url(#_40_10_ppp-10);}.cls-14{fill:url(#Dégradé_sans_nom_51-2);}.cls-14,.cls-31,.cls-33,.cls-39,.cls-40{mix-blend-mode:hard-light;}.cls-15{fill:url(#_40_10_ppp-24);}.cls-16{fill:url(#_40_10_ppp-6);}.cls-58{clip-path:url(#clippath-6);}.cls-17{fill:#d07b73;mix-blend-mode:soft-light;}.cls-18{fill:url(#_40_10_ppp-11);}.cls-20{fill:#a5a5a5;}.cls-59{clip-path:url(#clippath-7);}.cls-21{fill:url(#Dégradé_sans_nom_64-4);}.cls-60{clip-path:url(#clippath-1);}.cls-61{clip-path:url(#clippath-4);}.cls-22{fill:#ffcb57;}.cls-23{fill:#6a90c6;}.cls-24{fill:#1d1061;}.cls-25{fill:url(#_40_10_ppp-17);}.cls-26{fill:url(#Dégradé_sans_nom_51);}.cls-27{fill:url(#_40_10_ppp-14);}.cls-28{fill:url(#Dégradé_sans_nom_64-2);}.cls-29{fill:#f2f0ec;}.cls-62{clip-path:url(#clippath-12);}.cls-30{fill:url(#_40_10_ppp-23);}.cls-31{fill:url(#Dégradé_sans_nom_51-6);}.cls-32{fill:#dedede;}.cls-33{fill:url(#Dégradé_sans_nom_51-4);}.cls-34{fill:url(#Dégradé_sans_nom_64);}.cls-63{clip-path:url(#clippath-9);}.cls-64{clip-path:url(#clippath);}.cls-65{clip-path:url(#clippath-3);}.cls-35{fill:url(#Dégradé_sans_nom_64-5);}.cls-36{fill:url(#Dégradé_sans_nom_51-5);}.cls-66{clip-path:url(#clippath-8);}.cls-37{fill:url(#_40_10_ppp-2);}.cls-38{fill:url(#_40_10_ppp-16);}.cls-39{fill:url(#Dégradé_sans_nom_51-10);}.cls-40{fill:url(#Dégradé_sans_nom_51-8);}.cls-67{clip-path:url(#clippath-14);}.cls-41{fill:url(#_40_10_ppp-9);}.cls-68{clip-path:url(#clippath-5);}.cls-42{fill:url(#Dégradé_sans_nom_51-7);}.cls-43{fill:url(#_40_10_ppp-5);}.cls-44{fill:url(#_40_10_ppp-15);}.cls-45{fill:url(#_40_10_ppp);}.cls-69{clip-path:url(#clippath-10);}.cls-46{fill:url(#_40_10_ppp-13);}.cls-47{fill:url(#Dégradé_sans_nom_51-3);}.cls-48{fill:url(#_40_10_ppp-18);}.cls-49{fill:url(#_40_10_ppp-12);}.cls-50{fill:url(#_40_10_ppp-7);}.cls-51{fill:url(#_40_10_ppp-21);}</style><clipPath id="clippath"><rect class="cls-19" x="1200" y="0" width="300" height="300" rx="150" ry="150"/></clipPath><pattern id="_40_10_ppp" x="0" y="0" width="4.93" height="4.93" patternTransform="translate(14019.6 15403.45) scale(2.8)" patternUnits="userSpaceOnUse" viewBox="0 0 4.93 4.93"><rect class="cls-19" y="0" width="4.93" height="4.93"/><circle class="cls-24" cx="4.41" cy="4.41" r=".52"/><circle class="cls-24" cx="1.82" cy="4.41" r=".52"/><path class="cls-24" d="M4.41,2.34c.29,0,.52-.23.52-.52s-.23-.52-.52-.52-.52.23-.52.52.23.52.52.52Z"/><path class="cls-24" d="M1.82,2.34c.29,0,.52-.23.52-.52s-.23-.52-.52-.52-.52.23-.52.52.23.52.52.52Z"/><path class="cls-24" d="M.52,3.63c.29,0,.52-.23.52-.52s-.23-.52-.52-.52S0,2.83,0,3.11s.23.52.52.52Z"/><circle class="cls-24" cx="3.11" cy="3.11" r=".52"/><path class="cls-24" d="M.52,1.04c.29,0,.52-.23.52-.52S.81,0,.52,0,0,.23,0,.52s.23.52.52.52Z"/><circle class="cls-24" cx="3.11" cy=".52" r=".52"/></pattern><linearGradient id="Dégradé_sans_nom_51" x1="-2237.58" y1="-1030.88" x2="-1607.65" y2="-1147.93" gradientTransform="translate(129.84 -1902.87) rotate(-90) scale(1 -1)" gradientUnits="userSpaceOnUse"><stop offset="0" stop-color="#ffa544" stop-opacity="0"/><stop offset="1" stop-color="#db6b4c"/></linearGradient><linearGradient id="Dégradé_sans_nom_51-2" x1="-2218.41" y1="-1140.27" x2="-1591.19" y2="-994.33" xlink:href="#Dégradé_sans_nom_51"/><clipPath id="clippath-1"><rect class="cls-19" x="900" y="0" width="300" height="300" rx="150" ry="150"/></clipPath><pattern id="_40_10_ppp-2" patternTransform="translate(14009.93 15403.45) scale(2.8)" xlink:href="#_40_10_ppp"/><linearGradient id="Dégradé_sans_nom_51-3" x1="-2237.58" y1="-730.88" x2="-1607.65" y2="-847.93" xlink:href="#Dégradé_sans_nom_51"/><linearGradient id="Dégradé_sans_nom_51-4" x1="-2218.41" y1="-840.27" x2="-1591.19" y2="-694.33" xlink:href="#Dégradé_sans_nom_51"/><clipPath id="clippath-2"><rect class="cls-19" x="600" y="0" width="300" height="300" rx="150" ry="150"/></clipPath><pattern id="_40_10_ppp-3" patternTransform="translate(14014.08 15403.45) scale(2.8)" xlink:href="#_40_10_ppp"/><linearGradient id="Dégradé_sans_nom_51-5" x1="-2237.58" y1="-430.88" x2="-1607.65" y2="-547.93" xlink:href="#Dégradé_sans_nom_51"/><linearGradient id="Dégradé_sans_nom_51-6" x1="-2218.41" y1="-540.27" x2="-1591.19" y2="-394.33" xlink:href="#Dégradé_sans_nom_51"/><clipPath id="clippath-3"><rect class="cls-19" x="300" y="0" width="300" height="300" rx="150" ry="150"/></clipPath><pattern id="_40_10_ppp-4" patternTransform="translate(14018.24 15403.45) scale(2.8)" xlink:href="#_40_10_ppp"/><linearGradient id="Dégradé_sans_nom_51-7" x1="-2237.58" y1="-130.88" x2="-1607.65" y2="-247.93" xlink:href="#Dégradé_sans_nom_51"/><linearGradient id="Dégradé_sans_nom_51-8" x1="-2218.41" y1="-240.27" x2="-1591.19" y2="-94.33" xlink:href="#Dégradé_sans_nom_51"/><clipPath id="clippath-4"><rect class="cls-19" x="0" y="0" width="300" height="300" rx="150" ry="150"/></clipPath><pattern id="_40_10_ppp-5" patternTransform="translate(14008.57 15403.45) scale(2.8)" xlink:href="#_40_10_ppp"/><linearGradient id="Dégradé_sans_nom_51-9" x1="-2237.58" y1="169.12" x2="-1607.65" y2="52.07" xlink:href="#Dégradé_sans_nom_51"/><linearGradient id="Dégradé_sans_nom_51-10" x1="-2218.41" y1="59.73" x2="-1591.19" y2="205.67" xlink:href="#Dégradé_sans_nom_51"/><clipPath id="clippath-5"><rect class="cls-19" x="1200" y="0" width="300" height="300" rx="150" ry="150"/></clipPath><pattern id="_40_10_ppp-6" patternTransform="translate(-2967.39 6766.75) rotate(26.65) scale(1.37)" xlink:href="#_40_10_ppp"/><pattern id="_40_10_ppp-7" patternTransform="translate(-2965.67 6767.45) rotate(26.65) scale(1.37)" xlink:href="#_40_10_ppp"/><pattern id="_40_10_ppp-8" patternTransform="translate(-2965.67 6767.45) rotate(26.65) scale(1.37)" xlink:href="#_40_10_ppp"/><clipPath id="clippath-6"><circle class="cls-19" cx="1379.17" cy="129.29" r="12.86" transform="translate(2.12 279.51) rotate(-11.58)"/></clipPath><linearGradient id="Dégradé_sans_nom_64" x1="1613.42" y1="-791.43" x2="1629.43" y2="-809.11" gradientTransform="translate(-283.21 -585.38) rotate(49.49)" gradientUnits="userSpaceOnUse"><stop offset="0" stop-color="#fff" stop-opacity="0"/><stop offset="1" stop-color="#fff"/></linearGradient><pattern id="_40_10_ppp-9" patternTransform="translate(-2965.67 6767.45) rotate(26.65) scale(1.37)" xlink:href="#_40_10_ppp"/><clipPath id="clippath-7"><rect class="cls-19" x="900" y="0" width="300" height="300" rx="150" ry="150"/></clipPath><pattern id="_40_10_ppp-10" patternTransform="translate(-2968.71 6758.16) rotate(26.65) scale(1.37)" xlink:href="#_40_10_ppp"/><pattern id="_40_10_ppp-11" patternTransform="translate(-2967 6758.85) rotate(26.65) scale(1.37)" xlink:href="#_40_10_ppp"/><pattern id="_40_10_ppp-12" patternTransform="translate(-2967 6758.85) rotate(26.65) scale(1.37)" xlink:href="#_40_10_ppp"/><clipPath id="clippath-8"><circle class="cls-19" cx="1079.17" cy="129.29" r="12.86" transform="translate(-3.99 219.28) rotate(-11.58)"/></clipPath><linearGradient id="Dégradé_sans_nom_64-2" x1="1418.56" y1="-563.33" x2="1434.57" y2="-581.01" xlink:href="#Dégradé_sans_nom_64"/><pattern id="_40_10_ppp-13" patternTransform="translate(-2967 6758.85) rotate(26.65) scale(1.37)" xlink:href="#_40_10_ppp"/><clipPath id="clippath-9"><rect class="cls-19" x="600" y="0" width="300" height="300" rx="150" ry="150"/></clipPath><pattern id="_40_10_ppp-14" patternTransform="translate(-3099.83 6797.64) rotate(26.65) scale(1.37)" xlink:href="#_40_10_ppp"/><pattern id="_40_10_ppp-15" patternTransform="translate(-3098.12 6798.33) rotate(26.65) scale(1.37)" xlink:href="#_40_10_ppp"/><pattern id="_40_10_ppp-16" patternTransform="translate(-3098.12 6798.33) rotate(26.65) scale(1.37)" xlink:href="#_40_10_ppp"/><clipPath id="clippath-10"><circle class="cls-19" cx="779.17" cy="129.29" r="12.86" transform="translate(-10.09 159.05) rotate(-11.58)"/></clipPath><linearGradient id="Dégradé_sans_nom_64-3" x1="1223.7" y1="-335.23" x2="1239.71" y2="-352.9" xlink:href="#Dégradé_sans_nom_64"/><pattern id="_40_10_ppp-17" patternTransform="translate(-3098.12 6798.33) rotate(26.65) scale(1.37)" xlink:href="#_40_10_ppp"/><clipPath id="clippath-11"><rect class="cls-19" x="300" y="0" width="300" height="300" rx="150" ry="150"/></clipPath><pattern id="_40_10_ppp-18" patternTransform="translate(-3194.71 6810.02) rotate(26.65) scale(1.37)" xlink:href="#_40_10_ppp"/><pattern id="_40_10_ppp-19" patternTransform="translate(-3193 6810.71) rotate(26.65) scale(1.37)" xlink:href="#_40_10_ppp"/><pattern id="_40_10_ppp-20" patternTransform="translate(-3193 6810.71) rotate(26.65) scale(1.37)" xlink:href="#_40_10_ppp"/><clipPath id="clippath-12"><circle class="cls-19" cx="479.17" cy="129.29" r="12.86" transform="translate(-16.2 98.83) rotate(-11.58)"/></clipPath><linearGradient id="Dégradé_sans_nom_64-4" x1="1028.84" y1="-107.12" x2="1044.85" y2="-124.8" xlink:href="#Dégradé_sans_nom_64"/><pattern id="_40_10_ppp-21" patternTransform="translate(-3193 6810.71) rotate(26.65) scale(1.37)" xlink:href="#_40_10_ppp"/><clipPath id="clippath-13"><rect class="cls-19" x="0" y="0" width="300" height="300" rx="150" ry="150"/></clipPath><pattern id="_40_10_ppp-22" patternTransform="translate(-3316.78 6846.49) rotate(26.65) scale(1.37)" xlink:href="#_40_10_ppp"/><pattern id="_40_10_ppp-23" patternTransform="translate(-3315.06 6847.19) rotate(26.65) scale(1.37)" xlink:href="#_40_10_ppp"/><pattern id="_40_10_ppp-24" patternTransform="translate(-3315.06 6847.19) rotate(26.65) scale(1.37)" xlink:href="#_40_10_ppp"/><clipPath id="clippath-14"><circle class="cls-19" cx="179.17" cy="129.29" r="12.86" transform="translate(-22.31 38.6) rotate(-11.58)"/></clipPath><linearGradient id="Dégradé_sans_nom_64-5" x1="833.99" y1="120.98" x2="850" y2="103.3" xlink:href="#Dégradé_sans_nom_64"/><pattern id="_40_10_ppp-25" patternTransform="translate(-3315.06 6847.19) rotate(26.65) scale(1.37)" xlink:href="#_40_10_ppp"/></defs><g class="cls-57"><g id="BG_2_-_copie"><g class="cls-64"><rect class="cls-24" x="539.96" y="-210.16" width="1328.76" height="1108.33"/><rect class="cls-45" x="539.96" y="-210.16" width="1328.76" height="1108.33"/><path class="cls-26" d="M539.96-210.16v475.42c207.44,97.9,462.97,29.99,739.91,57.18,337.69,33.16,366.61,97.94,588.85,87.66V-210.16s-1328.76,0-1328.76,0Z"/><path class="cls-14" d="M539.96-210.16v486.03c207.44,97.9,462.97-80.25,739.91-53.05,337.69,33.16,366.61,80.59,588.85,70.32V-210.16s-1328.76,0-1328.76,0Z"/><polygon class="cls-52" points="1283.67 89.9 1285.64 80.76 1279.19 85.42 1290.3 85.42 1281.79 80.42 1283.67 89.9"/><polygon class="cls-52" points="1463.16 43.14 1460.29 31.67 1456.62 41.62 1466.48 35.7 1454.2 34 1463.16 43.14"/><polygon class="cls-52" points="1472.44 202.18 1464.8 192.21 1462.78 205.3 1471.35 195.64 1460.52 196.49 1472.44 202.18"/><polygon class="cls-52" points="963.98 115.78 964.54 104.17 958.59 115.65 969.48 109.1 955.99 106.47 963.98 115.78"/><polygon class="cls-52" points="1094.32 9.4 1091.46 -2.07 1087.78 7.87 1097.64 1.96 1085.36 .26 1094.32 9.4"/><polygon class="cls-52" points="1071.42 281.75 1063.78 271.78 1061.76 284.87 1070.33 275.21 1059.5 276.07 1071.42 281.75"/><path class="cls-17" d="M1448.79,60.15c-38.06-.9-51.99,26.14-96.21,25.21-27.61-.58-63.31-19.33-86.89-20.48-40.16-1.97-78.47,13.97-76.78,26.53,2.52,18.69,51.79-2.04,85.89,7.69,27.7,7.9,65.12,58.77,108.09,63.63,42.97,4.87,91.35-29.2,124.91-21.07,33.56,8.13,122.94-7.58,117.43-29.24-6.94-27.27-54.5,2.46-102.74-16.01-28.36-10.86-33.34-35.3-73.71-36.25Z"/><path class="cls-54" d="M1443.72,54.47c-38.06-.9-51.99,26.14-96.21,25.21-27.61-.58-63.31-19.33-86.89-20.48-40.16-1.97-78.47,13.97-76.78,26.53,2.52,18.69,51.79-2.04,85.89,7.69,27.7,7.9,65.12,58.77,108.09,63.63,42.97,4.87,91.35-29.2,124.91-21.07,33.56,8.13,122.94-7.58,117.43-29.24-6.94-27.27-54.5,2.46-102.74-16.01-28.36-10.86-33.34-35.3-73.71-36.25Z"/><path class="cls-17" d="M920.2,194.6c-23.12-.64-31.66,15.75-58.52,15.07-16.77-.42-38.42-11.91-52.74-12.67-24.4-1.3-47.72,8.28-46.72,15.92,1.49,11.36,31.47-1.1,52.17,4.89,16.81,4.87,39.41,35.87,65.51,38.94,26.1,3.07,55.58-17.51,75.95-12.48,20.37,5.02,74.72-4.29,71.43-17.46-4.15-16.59-33.12,1.35-62.39-9.99-17.21-6.67-20.17-21.53-44.69-22.22Z"/><path class="cls-54" d="M916.25,189.78c-23.12-.64-31.66,15.75-58.52,15.07-16.77-.42-38.42-11.91-52.74-12.67-24.4-1.3-47.72,8.28-46.72,15.92,1.49,11.36,31.47-1.1,52.17,4.89,16.81,4.87,39.41,35.87,65.51,38.94s55.58-17.51,75.95-12.48c20.37,5.02,74.72-4.29,71.43-17.46-4.15-16.59-33.12,1.35-62.39-9.99-17.21-6.67-20.17-21.53-44.69-22.22Z"/></g><g class="cls-60"><rect class="cls-24" x="239.96" y="-210.16" width="1328.76" height="1108.33"/><rect class="cls-37" x="239.96" y="-210.16" width="1328.76" height="1108.33"/><path class="cls-47" d="M239.96-210.16v475.42c207.44,97.9,462.97,29.99,739.91,57.18,337.69,33.16,366.61,97.94,588.85,87.66V-210.16s-1328.76,0-1328.76,0Z"/><path class="cls-33" d="M239.96-210.16v486.03c207.44,97.9,462.97-80.25,739.91-53.05,337.69,33.16,366.61,80.59,588.85,70.32V-210.16s-1328.76,0-1328.76,0Z"/><polygon class="cls-52" points="983.67 89.9 985.64 80.76 979.19 85.42 990.3 85.42 981.79 80.42 983.67 89.9"/><polygon class="cls-52" points="1163.16 43.14 1160.29 31.67 1156.62 41.62 1166.48 35.7 1154.2 34 1163.16 43.14"/><polygon class="cls-52" points="1172.44 202.18 1164.8 192.21 1162.78 205.3 1171.35 195.64 1160.52 196.49 1172.44 202.18"/><polygon class="cls-52" points="663.98 115.78 664.54 104.17 658.59 115.65 669.48 109.1 655.99 106.47 663.98 115.78"/><polygon class="cls-52" points="794.32 9.4 791.46 -2.07 787.78 7.87 797.64 1.96 785.36 .26 794.32 9.4"/><polygon class="cls-52" points="771.42 281.75 763.78 271.78 761.76 284.87 770.33 275.21 759.5 276.07 771.42 281.75"/><polygon class="cls-52" points="1409.92 49.88 1417.56 39.91 1419.58 53 1411.01 43.33 1421.84 44.19 1409.92 49.88"/><polygon class="cls-52" points="1456.92 262.14 1454.95 253 1461.4 257.66 1450.29 257.66 1458.79 252.66 1456.92 262.14"/><polygon class="cls-52" points="1282.98 171.71 1285.85 160.24 1289.53 170.19 1279.67 164.27 1291.95 162.57 1282.98 171.71"/><path class="cls-17" d="M1148.79,60.15c-38.06-.9-51.99,26.14-96.21,25.21-27.61-.58-63.31-19.33-86.89-20.48-40.16-1.97-78.47,13.97-76.78,26.53,2.52,18.69,51.79-2.04,85.89,7.69,27.7,7.9,65.12,58.77,108.09,63.63,42.97,4.87,91.35-29.2,124.91-21.07,33.56,8.13,122.94-7.58,117.43-29.24-6.94-27.27-54.5,2.46-102.74-16.01-28.36-10.86-33.34-35.3-73.71-36.25Z"/><path class="cls-54" d="M1143.72,54.47c-38.06-.9-51.99,26.14-96.21,25.21-27.61-.58-63.31-19.33-86.89-20.48-40.16-1.97-78.47,13.97-76.78,26.53,2.52,18.69,51.79-2.04,85.89,7.69,27.7,7.9,65.12,58.77,108.09,63.63,42.97,4.87,91.35-29.2,124.91-21.07,33.56,8.13,122.94-7.58,117.43-29.24-6.94-27.27-54.5,2.46-102.74-16.01-28.36-10.86-33.34-35.3-73.71-36.25Z"/><path class="cls-17" d="M620.2,194.6c-23.12-.64-31.66,15.75-58.52,15.07-16.77-.42-38.42-11.91-52.74-12.67-24.4-1.3-47.72,8.28-46.72,15.92,1.49,11.36,31.47-1.1,52.17,4.89,16.81,4.87,39.41,35.87,65.51,38.94,26.1,3.07,55.58-17.51,75.95-12.48,20.37,5.02,74.72-4.29,71.43-17.46-4.15-16.59-33.12,1.35-62.39-9.99-17.21-6.67-20.17-21.53-44.69-22.22Z"/><path class="cls-54" d="M616.25,189.78c-23.12-.64-31.66,15.75-58.52,15.07-16.77-.42-38.42-11.91-52.74-12.67-24.4-1.3-47.72,8.28-46.72,15.92,1.49,11.36,31.47-1.1,52.17,4.89,16.81,4.87,39.41,35.87,65.51,38.94s55.58-17.51,75.95-12.48c20.37,5.02,74.72-4.29,71.43-17.46-4.15-16.59-33.12,1.35-62.39-9.99-17.21-6.67-20.17-21.53-44.69-22.22Z"/></g><g class="cls-55"><rect class="cls-24" x="-60.04" y="-210.16" width="1328.76" height="1108.33"/><rect class="cls-1" x="-60.04" y="-210.16" width="1328.76" height="1108.33"/><path class="cls-36" d="M-60.04-210.16v475.42c207.44,97.9,462.97,29.99,739.91,57.18,337.69,33.16,366.61,97.94,588.85,87.66V-210.16s-1328.76,0-1328.76,0Z"/><path class="cls-31" d="M-60.04-210.16v486.03c207.44,97.9,462.97-80.25,739.91-53.05,337.69,33.16,366.61,80.59,588.85,70.32V-210.16s-1328.76,0-1328.76,0Z"/><polygon class="cls-52" points="683.67 89.9 685.64 80.76 679.19 85.42 690.3 85.42 681.79 80.42 683.67 89.9"/><polygon class="cls-52" points="863.16 43.14 860.29 31.67 856.62 41.62 866.48 35.7 854.2 34 863.16 43.14"/><polygon class="cls-52" points="872.44 202.18 864.8 192.21 862.78 205.3 871.35 195.64 860.52 196.49 872.44 202.18"/><polygon class="cls-52" points="363.98 115.78 364.54 104.17 358.59 115.65 369.48 109.1 355.99 106.47 363.98 115.78"/><polygon class="cls-52" points="494.32 9.4 491.46 -2.07 487.78 7.87 497.64 1.96 485.36 .26 494.32 9.4"/><polygon class="cls-52" points="471.42 281.75 463.78 271.78 461.76 284.87 470.33 275.21 459.5 276.07 471.42 281.75"/><polygon class="cls-52" points="1274.35 20.9 1273.8 9.29 1279.75 20.77 1268.86 14.22 1282.35 11.59 1274.35 20.9"/><polygon class="cls-52" points="1109.92 49.88 1117.56 39.91 1119.58 53 1111.01 43.33 1121.84 44.19 1109.92 49.88"/><polygon class="cls-52" points="1156.92 262.14 1154.95 253 1161.4 257.66 1150.29 257.66 1158.79 252.66 1156.92 262.14"/><polygon class="cls-52" points="982.98 171.71 985.85 160.24 989.53 170.19 979.67 164.27 991.95 162.57 982.98 171.71"/><polygon class="cls-52" points="1495.65 305.63 1495.09 294.01 1501.05 305.49 1490.16 298.95 1503.65 296.31 1495.65 305.63"/><polygon class="cls-52" points="1351.82 137.97 1354.69 126.5 1358.36 136.45 1348.5 130.53 1360.78 128.83 1351.82 137.97"/><path class="cls-17" d="M848.79,60.15c-38.06-.9-51.99,26.14-96.21,25.21-27.61-.58-63.31-19.33-86.89-20.48-40.16-1.97-78.47,13.97-76.78,26.53,2.52,18.69,51.79-2.04,85.89,7.69,27.7,7.9,65.12,58.77,108.09,63.63,42.97,4.87,91.35-29.2,124.91-21.07,33.56,8.13,122.94-7.58,117.43-29.24-6.94-27.27-54.5,2.46-102.74-16.01-28.36-10.86-33.34-35.3-73.71-36.25Z"/><path class="cls-54" d="M843.72,54.47c-38.06-.9-51.99,26.14-96.21,25.21-27.61-.58-63.31-19.33-86.89-20.48-40.16-1.97-78.47,13.97-76.78,26.53,2.52,18.69,51.79-2.04,85.89,7.69,27.7,7.9,65.12,58.77,108.09,63.63,42.97,4.87,91.35-29.2,124.91-21.07,33.56,8.13,122.94-7.58,117.43-29.24-6.94-27.27-54.5,2.46-102.74-16.01-28.36-10.86-33.34-35.3-73.71-36.25Z"/><path class="cls-17" d="M320.2,194.6c-23.12-.64-31.66,15.75-58.52,15.07-16.77-.42-38.42-11.91-52.74-12.67-24.4-1.3-47.72,8.28-46.72,15.92,1.49,11.36,31.47-1.1,52.17,4.89,16.81,4.87,39.41,35.87,65.51,38.94,26.1,3.07,55.58-17.51,75.95-12.48,20.37,5.02,74.72-4.29,71.43-17.46-4.15-16.59-33.12,1.35-62.39-9.99-17.21-6.67-20.17-21.53-44.69-22.22Z"/><path class="cls-54" d="M316.25,189.78c-23.12-.64-31.66,15.75-58.52,15.07-16.77-.42-38.42-11.91-52.74-12.67-24.4-1.3-47.72,8.28-46.72,15.92,1.49,11.36,31.47-1.1,52.17,4.89,16.81,4.87,39.41,35.87,65.51,38.94s55.58-17.51,75.95-12.48c20.37,5.02,74.72-4.29,71.43-17.46-4.15-16.59-33.12,1.35-62.39-9.99-17.21-6.67-20.17-21.53-44.69-22.22Z"/></g><g class="cls-65"><rect class="cls-24" x="-360.04" y="-210.16" width="1328.76" height="1108.33"/><rect class="cls-6" x="-360.04" y="-210.16" width="1328.76" height="1108.33"/><path class="cls-42" d="M-360.04-210.16v475.42c207.44,97.9,462.97,29.99,739.91,57.18,337.69,33.16,366.61,97.94,588.85,87.66V-210.16s-1328.76,0-1328.76,0Z"/><path class="cls-40" d="M-360.04-210.16v486.03c207.44,97.9,462.97-80.25,739.91-53.05,337.69,33.16,366.61,80.59,588.85,70.32V-210.16s-1328.76,0-1328.76,0Z"/><polygon class="cls-52" points="383.67 89.9 385.64 80.76 379.19 85.42 390.3 85.42 381.79 80.42 383.67 89.9"/><polygon class="cls-52" points="563.16 43.14 560.29 31.67 556.62 41.62 566.48 35.7 554.2 34 563.16 43.14"/><polygon class="cls-52" points="572.44 202.18 564.8 192.21 562.78 205.3 571.35 195.64 560.52 196.49 572.44 202.18"/><polygon class="cls-52" points="63.98 115.78 64.54 104.17 58.59 115.65 69.48 109.1 55.99 106.47 63.98 115.78"/><polygon class="cls-52" points="194.32 9.4 191.46 -2.07 187.78 7.87 197.64 1.96 185.36 .26 194.32 9.4"/><polygon class="cls-52" points="171.42 281.75 163.78 271.78 161.76 284.87 170.33 275.21 159.5 276.07 171.42 281.75"/><polygon class="cls-52" points="974.35 20.9 973.8 9.29 979.75 20.77 968.86 14.22 982.35 11.59 974.35 20.9"/><polygon class="cls-52" points="809.92 49.88 817.56 39.91 819.58 53 811.01 43.33 821.84 44.19 809.92 49.88"/><polygon class="cls-52" points="856.92 262.14 854.95 253 861.4 257.66 850.29 257.66 858.79 252.66 856.92 262.14"/><polygon class="cls-52" points="682.98 171.71 685.85 160.24 689.53 170.19 679.67 164.27 691.95 162.57 682.98 171.71"/><polygon class="cls-52" points="1195.65 305.63 1195.09 294.01 1201.05 305.49 1190.16 298.95 1203.65 296.31 1195.65 305.63"/><polygon class="cls-52" points="1051.82 137.97 1054.69 126.5 1058.36 136.45 1048.5 130.53 1060.78 128.83 1051.82 137.97"/><path class="cls-17" d="M548.79,60.15c-38.06-.9-51.99,26.14-96.21,25.21-27.61-.58-63.31-19.33-86.89-20.48-40.16-1.97-78.47,13.97-76.78,26.53,2.52,18.69,51.79-2.04,85.89,7.69,27.7,7.9,65.12,58.77,108.09,63.63,42.97,4.87,91.35-29.2,124.91-21.07,33.56,8.13,122.94-7.58,117.43-29.24-6.94-27.27-54.5,2.46-102.74-16.01-28.36-10.86-33.34-35.3-73.71-36.25Z"/><path class="cls-54" d="M543.72,54.47c-38.06-.9-51.99,26.14-96.21,25.21-27.61-.58-63.31-19.33-86.89-20.48-40.16-1.97-78.47,13.97-76.78,26.53,2.52,18.69,51.79-2.04,85.89,7.69,27.7,7.9,65.12,58.77,108.09,63.63,42.97,4.87,91.35-29.2,124.91-21.07,33.56,8.13,122.94-7.58,117.43-29.24-6.94-27.27-54.5,2.46-102.74-16.01-28.36-10.86-33.34-35.3-73.71-36.25Z"/><path class="cls-17" d="M20.2,194.6c-23.12-.64-31.66,15.75-58.52,15.07-16.77-.42-38.42-11.91-52.74-12.67-24.4-1.3-47.72,8.28-46.72,15.92,1.49,11.36,31.47-1.1,52.17,4.89,16.81,4.87,39.41,35.87,65.51,38.94,26.1,3.07,55.58-17.51,75.95-12.48,20.37,5.02,74.72-4.29,71.43-17.46-4.15-16.59-33.12,1.35-62.39-9.99-17.21-6.67-20.17-21.53-44.69-22.22Z"/><path class="cls-54" d="M16.25,189.78c-23.12-.64-31.66,15.75-58.52,15.07-16.77-.42-38.42-11.91-52.74-12.67-24.4-1.3-47.72,8.28-46.72,15.92,1.49,11.36,31.47-1.1,52.17,4.89,16.81,4.87,39.41,35.87,65.51,38.94s55.58-17.51,75.95-12.48c20.37,5.02,74.72-4.29,71.43-17.46-4.15-16.59-33.12,1.35-62.39-9.99-17.21-6.67-20.17-21.53-44.69-22.22Z"/></g><g class="cls-61"><rect class="cls-24" x="-660.04" y="-210.16" width="1328.76" height="1108.33"/><rect class="cls-43" x="-660.04" y="-210.16" width="1328.76" height="1108.33"/><path class="cls-2" d="M-660.04-210.16v475.42c207.44,97.9,462.97,29.99,739.91,57.18,337.69,33.16,366.61,97.94,588.85,87.66V-210.16s-1328.76,0-1328.76,0Z"/><path class="cls-39" d="M-660.04-210.16v486.03c207.44,97.9,462.97-80.25,739.91-53.05,337.69,33.16,366.61,80.59,588.85,70.32V-210.16s-1328.76,0-1328.76,0Z"/><polygon class="cls-52" points="83.67 89.9 85.64 80.76 79.19 85.42 90.3 85.42 81.79 80.42 83.67 89.9"/><polygon class="cls-52" points="263.16 43.14 260.29 31.67 256.62 41.62 266.48 35.7 254.2 34 263.16 43.14"/><polygon class="cls-52" points="272.44 202.18 264.8 192.21 262.78 205.3 271.35 195.64 260.52 196.49 272.44 202.18"/><polygon class="cls-52" points="674.35 20.9 673.8 9.29 679.75 20.77 668.86 14.22 682.35 11.59 674.35 20.9"/><polygon class="cls-52" points="509.92 49.88 517.56 39.91 519.58 53 511.01 43.33 521.84 44.19 509.92 49.88"/><polygon class="cls-52" points="556.92 262.14 554.95 253 561.4 257.66 550.29 257.66 558.79 252.66 556.92 262.14"/><polygon class="cls-52" points="382.98 171.71 385.85 160.24 389.53 170.19 379.67 164.27 391.95 162.57 382.98 171.71"/><polygon class="cls-52" points="895.65 305.63 895.09 294.01 901.05 305.49 890.16 298.95 903.65 296.31 895.65 305.63"/><polygon class="cls-52" points="751.82 137.97 754.69 126.5 758.36 136.45 748.5 130.53 760.78 128.83 751.82 137.97"/><path class="cls-17" d="M248.79,60.15c-38.06-.9-51.99,26.14-96.21,25.21-27.61-.58-63.31-19.33-86.89-20.48-40.16-1.97-78.47,13.97-76.78,26.53,2.52,18.69,51.79-2.04,85.89,7.69,27.7,7.9,65.12,58.77,108.09,63.63,42.97,4.87,91.35-29.2,124.91-21.07,33.56,8.13,122.94-7.58,117.43-29.24-6.94-27.27-54.5,2.46-102.74-16.01-28.36-10.86-33.34-35.3-73.71-36.25Z"/><path class="cls-54" d="M243.72,54.47c-38.06-.9-51.99,26.14-96.21,25.21-27.61-.58-63.31-19.33-86.89-20.48-40.16-1.97-78.47,13.97-76.78,26.53,2.52,18.69,51.79-2.04,85.89,7.69,27.7,7.9,65.12,58.77,108.09,63.63,42.97,4.87,91.35-29.2,124.91-21.07,33.56,8.13,122.94-7.58,117.43-29.24-6.94-27.27-54.5,2.46-102.74-16.01-28.36-10.86-33.34-35.3-73.71-36.25Z"/></g></g><g id="Fusée_E04"><g class="cls-68"><g id="E5"><path class="cls-5" d="M1128.65,276.33c-.18.13-.33.27-.47.4l34.87,52.33c10.04,2.04,19.2-2.62,27.47-14,14.07,2.02,25.53-15.74,34.4-53.3,13.58,2.42,22.32-2.14,26.23-13.7,11.69-3.53,18.17-5.52,19.43-5.97,4.36-1.51,7.52-2.83,9.5-3.97,1.62-.93,3.54-2.27,5.77-4,7.44-5.91,12.93-11.96,16.47-18.13l-17.47-30.07c-1.8,1.4-4.14,3.24-7.03,5.53-4.29,3.4-7.83,6.07-10.63,8-9.13,6.31-18.83,11.28-29.1,14.9-3.8,1.36-6.19,2.26-7.17,2.7-2.62,1.16-4.72,2.51-6.3,4.07-2.16,2.13-3.91,5.2-5.27,9.2-.24.71-.47,1.42-.67,2.13-3.09,1.4-7.03,2.58-11.83,3.53-7.93,1.6-12.71,2.66-14.33,3.17-3.51,1.11-6.12,2.53-7.83,4.27-1.24,1.31-2.39,3.2-3.43,5.67-.47,1.09-.81,2.12-1.03,3.1-3.56-.44-7.14-.43-10.77.03-4.33.56-8.44,1.72-12.33,3.5-1.53.67-2.88,1.4-4.03,2.2-2.22,1.51-4.3,3.69-6.23,6.53-1.96,2.87-3.51,5.89-4.67,9.07-.89-.11-1.72-.17-2.5-.17-1.22-.02-2.5.07-3.83.27-3.16.47-5.56,1.37-7.2,2.7Z"/><path class="cls-16" d="M1129.98,279c-.18.13-.33.27-.47.4l34.87,52.33c10.04,2.04,19.2-2.62,27.47-14,14.07,2.02,25.53-15.74,34.4-53.3,13.58,2.42,22.32-2.14,26.23-13.7,11.69-3.53,18.17-5.52,19.43-5.97,4.36-1.51,7.52-2.83,9.5-3.97,1.62-.93,3.54-2.27,5.77-4,7.44-5.91,12.93-11.96,16.47-18.13l-17.47-30.07c-1.8,1.4-4.14,3.24-7.03,5.53-4.29,3.4-7.83,6.07-10.63,8-9.13,6.31-18.83,11.28-29.1,14.9-3.8,1.36-6.19,2.26-7.17,2.7-2.62,1.16-4.72,2.51-6.3,4.07-2.16,2.13-3.91,5.2-5.27,9.2-.24.71-.47,1.42-.67,2.13-3.09,1.4-7.03,2.58-11.83,3.53-7.93,1.6-12.71,2.66-14.33,3.17-3.51,1.11-6.12,2.53-7.83,4.27-1.24,1.31-2.39,3.2-3.43,5.67-.47,1.09-.81,2.12-1.03,3.1-3.56-.44-7.14-.43-10.77.03-4.33.56-8.44,1.72-12.33,3.5-1.53.67-2.88,1.4-4.03,2.2-2.22,1.51-4.3,3.69-6.23,6.53-1.96,2.87-3.51,5.89-4.67,9.07-.89-.11-1.72-.17-2.5-.17-1.22-.02-2.5.07-3.83.27-3.16.47-5.56,1.37-7.2,2.7Z"/></g></g><path class="cls-22" d="M1334.33,169.03c-11.98-15.95-34.63-19.17-50.59-7.19-25.56,19.2-15.63,48.34-21.14,60.32l11.18-3.82-5.29,6.5c16.89,0,35.44,12.22,58.65-5.22,15.95-11.98,19.17-34.63,7.19-50.59Z"/><circle class="cls-8" cx="1318.21" cy="181.14" r="20.43" transform="translate(533.67 1255.84) rotate(-61.69)"/><path class="cls-50" d="M1330.87,168.3c-9.93-13.22-28.69-15.88-41.9-5.95-21.17,15.9-12.95,40.04-17.51,49.97l9.26-3.17-4.39,5.38c13.99,0,29.36,10.12,48.58-4.32,13.22-9.93,15.88-28.69,5.95-41.9Z"/><path class="cls-24" d="M1391.38,176.48c-.46-1.88-2.72-2.64-4.23-1.44l-11.81,9.44c.17-3.5-.09-6.86-.65-10.03,13.43-8.76,31.02-24.55,40.1-50.51h0s0,0,0,0c1.37-3.92,2.55-8.07,3.49-12.46.04-.16.07-.33.1-.49.18-.87.35-1.74.51-2.63.05-.3.11-.6.16-.9.13-.77.26-1.55.38-2.34.05-.35.11-.7.16-1.05.11-.79.21-1.58.31-2.39.04-.33.08-.66.12-1,.13-1.13.24-2.27.34-3.42.02-.29.02-.59-.02-.87-.05-.42-.17-.83-.34-1.21-.11-.25-.25-.49-.41-.72-.24-.34-.52-.64-.85-.9-.65-.52-1.45-.85-2.34-.92-1.16-.09-2.3-.15-3.43-.2-.34-.02-.67-.02-1.01-.04-.81-.03-1.61-.05-2.4-.07-.36,0-.71,0-1.07,0-.79,0-1.58,0-2.36.01-.31,0-.61,0-.92.02-.9.02-1.79.05-2.68.1-.17,0-.34.01-.5.02-34.2,1.83-56.63,19.53-69.01,33.21-3.05-1.05-6.33-1.82-9.81-2.2l11.18-10.2c1.43-1.3,1.03-3.65-.76-4.4-7.69-3.22-26.36-7.36-42.45,18.09-.77,1.23-.66,2.82.29,3.92l8.12,9.51c1.22,1.42,3.37,1.56,4.75.3l4.73-4.31c2.71.14,6.08.46,9.8,1.13.61.11,1.23.23,1.86.36.01,0,.03,0,.04,0,.62.13,1.25.27,1.88.42.01,0,.03,0,.04.01.16.04.33.09.49.13-1.35,2.11-2.02,3.37-2.02,3.37l3.49,4.08-8.01,11.36,24.29,28.44,12.47-6.13,3.49,4.08s1.35-.46,3.65-1.47c.11,1.24.18,2.46.22,3.63h0c.14,4.08-.08,7.74-.39,10.63l-5,4c-1.46,1.17-1.67,3.32-.45,4.74l8.12,9.51c.94,1.1,2.5,1.47,3.83.89,27.64-11.92,26.47-31.01,24.5-39.1Z"/><polygon class="cls-24" points="1328.82 142.76 1319.24 156.35 1343.53 184.79 1358.46 177.45 1328.82 142.76"/><path class="cls-20" d="M1362.27,144.19s-16.15-22.25-41.88-21.88l-15.4,13.16s30.39-2.31,47.18,17.35l10.09-8.62Z"/><path class="cls-24" d="M1334.8,124.51c-3.4,2.5-7.87,6.32-13.33,12.1,4.93.9,10.45,2.42,15.82,4.99l3.68-14.63c-1.94-.93-4-1.76-6.17-2.46Z"/><path class="cls-11" d="M1306.94,139.79l30.05-27.41c1.43-1.3,1.03-3.65-.76-4.4-7.69-3.22-26.36-7.36-42.45,18.09-.77,1.23-.66,2.82.29,3.92l8.12,9.51c1.22,1.42,3.37,1.56,4.75.3Z"/><path class="cls-20" d="M1362.27,144.19s19.45,19.43,15.07,44.78l-15.4,13.16s7.03-29.66-9.76-49.32l10.09-8.62Z"/><path class="cls-24" d="M1363.36,184.9c6.1-3.32,10.75-7.06,14.1-10.3-.23-1.52-.53-2.99-.89-4.43l-13.97,6.59c.44,2.82.67,5.57.76,8.14Z"/><path class="cls-11" d="M1357.97,199.52l31.77-25.4c1.51-1.21,3.77-.45,4.23,1.44,1.97,8.09,3.15,27.18-24.5,39.1-1.33.57-2.89.21-3.83-.89l-8.12-9.51c-1.22-1.42-1.01-3.57.45-4.74Z"/><path class="cls-29" d="M1419.01,91.73c-66.75-4.97-95.24,49.18-95.24,49.18l35.73,41.82s57.94-19.69,63.46-86.39c.2-2.36-1.58-4.44-3.94-4.62Z"/><path class="cls-24" d="M1417.38,123.03c2.77-7.92,4.75-16.78,5.57-26.68.2-2.36-1.58-4.44-3.94-4.62-9.91-.74-18.97-.16-27.22,1.33l25.6,29.96Z"/><path class="cls-9" d="M1392.25,105.68c-46.32-2.54-66.85,35.25-66.85,35.25l24.27,28.41s40.53-14.38,45.26-60.53c.17-1.63-1.04-3.05-2.68-3.14Z"/><circle class="cls-32" cx="1379.17" cy="129.29" r="19.43" transform="translate(2.12 279.51) rotate(-11.58)"/><ellipse class="cls-24" cx="1379.04" cy="128.93" rx="13.61" ry="13.78" transform="translate(246.74 926.6) rotate(-40.5)"/><circle class="cls-23" cx="1379.17" cy="129.29" r="12.86" transform="translate(2.12 279.51) rotate(-11.58)"/><g class="cls-58"><path class="cls-34" d="M1363.91,120.72s4.8-4.96,14.31,1.12c9.51,6.09,17.2,1.24,17.2,1.24l.95,5.15s-6.52,8-15.74,4.26c-9.23-3.74-13.17-.8-16.29,3.36l-.44-15.13Z"/></g><circle class="cls-41" cx="1379.05" cy="128.81" r="11.08"/><g class="cls-59"><g id="E4"><path class="cls-5" d="M996.91,223.06c2.93-1.91,5.48-3.9,7.63-5.97l-19-31.43c-5.16,3.96-11.03,7.87-17.63,11.73-5.47,3.18-12.42,6.88-20.87,11.1-2,1-3.47,1.8-4.4,2.4-1.56,1-2.79,2.09-3.7,3.27-1.51,1.98-2.56,4.94-3.13,8.9v.07c-.27.2-.54.41-.83.63-11.47,8.42-25.66,14.29-42.57,17.6-2.11.4-3.6.72-4.47.97-1.64.44-3.04,1.01-4.2,1.7-3.22,1.93-5.61,5.36-7.17,10.27-2.02-.53-3.89-.82-5.6-.87-3.04-.11-5.81.49-8.3,1.8-2.22,1.2-4.13,3-5.73,5.4-.6.89-1.09,1.76-1.47,2.6-.36.78-.66,1.59-.9,2.43-5.96-.11-11.03.98-15.23,3.27-1.18.64-2.46,1.49-3.83,2.53-4.71,3.49-8.17,7.29-10.37,11.4-.18.33-.36.69-.53,1.07l41.67,47.1c14.8-4.47,26.66-12.56,35.57-24.27,5.67-.51,10.04-9.48,13.13-26.9,11.29-2.42,18.24-9.13,20.87-20.13,21.11-4.07,34.73-12.77,40.87-26.1.07-.16.14-.3.23-.43.22-.07.44-.14.67-.23.38-.13.77-.28,1.17-.43.38-.16.77-.31,1.17-.47,2.24-.93,4.82-2.17,7.73-3.7,3.76-1.96,6.83-3.72,9.23-5.3Z"/><path class="cls-13" d="M998.25,225.73c2.93-1.91,5.48-3.9,7.63-5.97l-19-31.43c-5.16,3.96-11.03,7.87-17.63,11.73-5.47,3.18-12.42,6.88-20.87,11.1-2,1-3.47,1.8-4.4,2.4-1.56,1-2.79,2.09-3.7,3.27-1.51,1.98-2.56,4.94-3.13,8.9v.07c-.27.2-.54.41-.83.63-11.47,8.42-25.66,14.29-42.57,17.6-2.11.4-3.6.72-4.47.97-1.64.44-3.04,1.01-4.2,1.7-3.22,1.93-5.61,5.36-7.17,10.27-2.02-.53-3.89-.82-5.6-.87-3.04-.11-5.81.49-8.3,1.8-2.22,1.2-4.13,3-5.73,5.4-.6.89-1.09,1.76-1.47,2.6-.36.78-.66,1.59-.9,2.43-5.96-.11-11.03.98-15.23,3.27-1.18.64-2.46,1.49-3.83,2.53-4.71,3.49-8.17,7.29-10.37,11.4-.18.33-.36.69-.53,1.07l41.67,47.1c14.8-4.47,26.66-12.56,35.57-24.27,5.67-.51,10.04-9.48,13.13-26.9,11.29-2.42,18.24-9.13,20.87-20.13,21.11-4.07,34.73-12.77,40.87-26.1.07-.16.14-.3.23-.43.22-.07.44-.14.67-.23.38-.13.77-.28,1.17-.43.38-.16.77-.31,1.17-.47,2.24-.93,4.82-2.17,7.73-3.7,3.76-1.96,6.83-3.72,9.23-5.3Z"/></g></g><path class="cls-22" d="M1034.33,169.03c-11.98-15.95-34.63-19.17-50.59-7.19-25.56,19.2-15.63,48.34-21.14,60.32l11.18-3.82-5.29,6.5c16.89,0,35.44,12.22,58.65-5.22,15.95-11.98,19.17-34.63,7.19-50.59Z"/><circle class="cls-8" cx="1018.21" cy="181.14" r="20.43" transform="translate(375.92 991.71) rotate(-61.69)"/><path class="cls-18" d="M1030.87,168.3c-9.93-13.22-28.69-15.88-41.9-5.95-21.17,15.9-12.95,40.04-17.51,49.97l9.26-3.17-4.39,5.38c13.99,0,29.36,10.12,48.58-4.32,13.22-9.93,15.88-28.69,5.95-41.9Z"/><path class="cls-24" d="M1091.38,176.48c-.46-1.88-2.72-2.64-4.23-1.44l-11.81,9.44c.17-3.5-.09-6.86-.65-10.03,13.43-8.76,31.02-24.55,40.1-50.51h0s0,0,0,0c1.37-3.92,2.55-8.07,3.49-12.46.04-.16.07-.33.1-.49.18-.87.35-1.74.51-2.63.05-.3.11-.6.16-.9.13-.77.26-1.55.38-2.34.05-.35.11-.7.16-1.05.11-.79.21-1.58.31-2.39.04-.33.08-.66.12-1,.13-1.13.24-2.27.34-3.42.02-.29.02-.59-.02-.87-.05-.42-.17-.83-.34-1.21-.11-.25-.25-.49-.41-.72-.24-.34-.52-.64-.85-.9-.65-.52-1.45-.85-2.34-.92-1.16-.09-2.3-.15-3.43-.2-.34-.02-.67-.02-1.01-.04-.81-.03-1.61-.05-2.4-.07-.36,0-.71,0-1.07,0-.79,0-1.58,0-2.36.01-.31,0-.61,0-.92.02-.9.02-1.79.05-2.68.1-.17,0-.34.01-.5.02-34.2,1.83-56.63,19.53-69.01,33.21-3.05-1.05-6.33-1.82-9.81-2.2l11.18-10.2c1.43-1.3,1.03-3.65-.76-4.4-7.69-3.22-26.36-7.36-42.45,18.09-.77,1.23-.66,2.82.29,3.92l8.12,9.51c1.22,1.42,3.37,1.56,4.75.3l4.73-4.31c2.71.14,6.08.46,9.8,1.13.61.11,1.23.23,1.86.36.01,0,.03,0,.04,0,.62.13,1.25.27,1.88.42.01,0,.03,0,.04.01.16.04.33.09.49.13-1.35,2.11-2.02,3.37-2.02,3.37l3.49,4.08-8.01,11.36,24.29,28.44,12.47-6.13,3.49,4.08s1.35-.46,3.65-1.47c.11,1.24.18,2.46.22,3.63h0c.14,4.08-.08,7.74-.39,10.63l-5,4c-1.46,1.17-1.67,3.32-.45,4.74l8.12,9.51c.94,1.1,2.5,1.47,3.83.89,27.64-11.92,26.47-31.01,24.5-39.1Z"/><polygon class="cls-24" points="1028.82 142.76 1019.24 156.35 1043.53 184.79 1058.46 177.45 1028.82 142.76"/><path class="cls-20" d="M1062.27,144.19s-16.15-22.25-41.88-21.88l-15.4,13.16s30.39-2.31,47.18,17.35l10.09-8.62Z"/><path class="cls-24" d="M1034.8,124.51c-3.4,2.5-7.87,6.32-13.33,12.1,4.93.9,10.45,2.42,15.82,4.99l3.68-14.63c-1.94-.93-4-1.76-6.17-2.46Z"/><path class="cls-11" d="M1006.94,139.79l30.05-27.41c1.43-1.3,1.03-3.65-.76-4.4-7.69-3.22-26.36-7.36-42.45,18.09-.77,1.23-.66,2.82.29,3.92l8.12,9.51c1.22,1.42,3.37,1.56,4.75.3Z"/><path class="cls-20" d="M1062.27,144.19s19.45,19.43,15.07,44.78l-15.4,13.16s7.03-29.66-9.76-49.32l10.09-8.62Z"/><path class="cls-24" d="M1063.36,184.9c6.1-3.32,10.75-7.06,14.1-10.3-.23-1.52-.53-2.99-.89-4.43l-13.97,6.59c.44,2.82.67,5.57.76,8.14Z"/><path class="cls-11" d="M1057.97,199.52l31.77-25.4c1.51-1.21,3.77-.45,4.23,1.44,1.97,8.09,3.15,27.18-24.5,39.1-1.33.57-2.89.21-3.83-.89l-8.12-9.51c-1.22-1.42-1.01-3.57.45-4.74Z"/><path class="cls-29" d="M1119.01,91.73c-66.75-4.97-95.24,49.18-95.24,49.18l35.73,41.82s57.94-19.69,63.46-86.39c.2-2.36-1.58-4.44-3.94-4.62Z"/><path class="cls-24" d="M1117.38,123.03c2.77-7.92,4.75-16.78,5.57-26.68.2-2.36-1.58-4.44-3.94-4.62-9.91-.74-18.97-.16-27.22,1.33l25.6,29.96Z"/><path class="cls-49" d="M1092.25,105.68c-46.32-2.54-66.85,35.25-66.85,35.25l24.27,28.41s40.53-14.38,45.26-60.53c.17-1.63-1.04-3.05-2.68-3.14Z"/><circle class="cls-32" cx="1079.17" cy="129.29" r="19.43" transform="translate(-3.99 219.28) rotate(-11.58)"/><ellipse class="cls-24" cx="1079.04" cy="128.93" rx="13.61" ry="13.78" transform="translate(174.85 731.74) rotate(-40.5)"/><circle class="cls-23" cx="1079.17" cy="129.29" r="12.86" transform="translate(-3.99 219.28) rotate(-11.58)"/><g class="cls-66"><path class="cls-28" d="M1063.91,120.72s4.8-4.96,14.31,1.12c9.51,6.09,17.2,1.24,17.2,1.24l.95,5.15s-6.52,8-15.74,4.26c-9.23-3.74-13.17-.8-16.29,3.36l-.44-15.13Z"/></g><circle class="cls-46" cx="1079.05" cy="128.81" r="11.08"/><g class="cls-63"><g id="E3"><path class="cls-5" d="M554.35,262c-3.22.53-6.21,1.56-8.97,3.07-2.91,1.58-5.33,3.57-7.27,5.97-1.27,1.6-2.56,3.71-3.87,6.33-1.24,2.58-2.14,4.82-2.7,6.73-.53,1.89-.83,3.68-.9,5.37l37.07,42.63c7.51-2.02,15.78-6.93,24.8-14.73,9-7.82,16.13-18.9,21.4-33.23.64.02,1.48-.08,2.5-.3,1.02-.22,1.74-.49,2.17-.8s.77-.77,1.03-1.37c.18-.38.38-.94.6-1.7.27-1.02.44-1.8.53-2.33.18-1.02.24-2.4.2-4.13-.02-1.16-.06-2.21-.1-3.17,7.58-.73,12.86-3.34,15.83-7.83,2.98-4.51,4.6-8.12,4.87-10.83,1.53.07,3.26.07,5.17,0,3.6-.11,6.5-.3,8.7-.57,3.13-.4,5.92-1.06,8.37-1.97,2.16-.8,4.56-2.03,7.2-3.7,5.98-3.78,11.2-8.49,15.67-14.13,2.8-3.53,5.18-7.28,7.13-11.23,3.98-1.44,6.98-2.64,9-3.6l-19.2-31.97c-1.82,1.29-3.76,2.54-5.8,3.77-1.58.96-4,2.33-7.27,4.13-2.82,1.64-5.11,3.2-6.87,4.67-2.29,1.91-4.1,4.03-5.43,6.37-1.02,1.78-1.68,3.57-1.97,5.37-6.58,4.87-14.34,9.33-23.3,13.4-6.8,3.09-16.96,7-30.47,11.73-3.04,1.09-5.32,2.01-6.83,2.77-2.44,1.24-4.38,2.69-5.8,4.33-1.02,1.2-2.26,3.27-3.7,6.2-.22.44-.42.89-.6,1.33-2.22-.18-4.12-.19-5.7-.03-2.33.22-4.34.8-6.03,1.73-2.69,1.49-4.84,3.91-6.47,7.27-.58,1.22-1.13,2.72-1.67,4.5-3.93-.62-7.71-.63-11.33-.03Z"/><path class="cls-27" d="M555.68,264.66c-3.22.53-6.21,1.56-8.97,3.07-2.91,1.58-5.33,3.57-7.27,5.97-1.27,1.6-2.56,3.71-3.87,6.33-1.24,2.58-2.14,4.82-2.7,6.73-.53,1.89-.83,3.68-.9,5.37l37.07,42.63c7.51-2.02,15.78-6.93,24.8-14.73,9-7.82,16.13-18.9,21.4-33.23.64.02,1.48-.08,2.5-.3,1.02-.22,1.74-.49,2.17-.8s.77-.77,1.03-1.37c.18-.38.38-.94.6-1.7.27-1.02.44-1.8.53-2.33.18-1.02.24-2.4.2-4.13-.02-1.16-.06-2.21-.1-3.17,7.58-.73,12.86-3.34,15.83-7.83,2.98-4.51,4.6-8.12,4.87-10.83,1.53.07,3.26.07,5.17,0,3.6-.11,6.5-.3,8.7-.57,3.13-.4,5.92-1.06,8.37-1.97,2.16-.8,4.56-2.03,7.2-3.7,5.98-3.78,11.2-8.49,15.67-14.13,2.8-3.53,5.18-7.28,7.13-11.23,3.98-1.44,6.98-2.64,9-3.6l-19.2-31.97c-1.82,1.29-3.76,2.54-5.8,3.77-1.58.96-4,2.33-7.27,4.13-2.82,1.64-5.11,3.2-6.87,4.67-2.29,1.91-4.1,4.03-5.43,6.37-1.02,1.78-1.68,3.57-1.97,5.37-6.58,4.87-14.34,9.33-23.3,13.4-6.8,3.09-16.96,7-30.47,11.73-3.04,1.09-5.32,2.01-6.83,2.77-2.44,1.24-4.38,2.69-5.8,4.33-1.02,1.2-2.26,3.27-3.7,6.2-.22.44-.42.89-.6,1.33-2.22-.18-4.12-.19-5.7-.03-2.33.22-4.34.8-6.03,1.73-2.69,1.49-4.84,3.91-6.47,7.27-.58,1.22-1.13,2.72-1.67,4.5-3.93-.62-7.71-.63-11.33-.03Z"/></g></g><path class="cls-22" d="M734.33,169.03c-11.98-15.95-34.63-19.17-50.59-7.19-25.56,19.2-15.63,48.34-21.14,60.32l11.18-3.82-5.29,6.5c16.89,0,35.44,12.22,58.65-5.22,15.95-11.98,19.17-34.63,7.19-50.59Z"/><circle class="cls-8" cx="718.21" cy="181.14" r="20.43" transform="translate(218.17 727.58) rotate(-61.69)"/><path class="cls-44" d="M730.87,168.3c-9.93-13.22-28.69-15.88-41.9-5.95-21.17,15.9-12.95,40.04-17.51,49.97l9.26-3.17-4.39,5.38c13.99,0,29.36,10.12,48.58-4.32,13.22-9.93,15.88-28.69,5.95-41.9Z"/><path class="cls-24" d="M791.38,176.48c-.46-1.88-2.72-2.64-4.23-1.44l-11.81,9.44c.17-3.5-.09-6.86-.65-10.03,13.43-8.76,31.02-24.55,40.1-50.51h0s0,0,0,0c1.37-3.92,2.55-8.07,3.49-12.46.04-.16.07-.33.1-.49.18-.87.35-1.74.51-2.63.05-.3.11-.6.16-.9.13-.77.26-1.55.38-2.34.05-.35.11-.7.16-1.05.11-.79.21-1.58.31-2.39.04-.33.08-.66.12-1,.13-1.13.24-2.27.34-3.42.02-.29.02-.59-.02-.87-.05-.42-.17-.83-.34-1.21-.11-.25-.25-.49-.41-.72-.24-.34-.52-.64-.85-.9-.65-.52-1.45-.85-2.34-.92-1.16-.09-2.3-.15-3.43-.2-.34-.02-.67-.02-1.01-.04-.81-.03-1.61-.05-2.4-.07-.36,0-.71,0-1.07,0-.79,0-1.58,0-2.36.01-.31,0-.61,0-.92.02-.9.02-1.79.05-2.68.1-.17,0-.34.01-.5.02-34.2,1.83-56.63,19.53-69.01,33.21-3.05-1.05-6.33-1.82-9.81-2.2l11.18-10.2c1.43-1.3,1.03-3.65-.76-4.4-7.69-3.22-26.36-7.36-42.45,18.09-.77,1.23-.66,2.82.29,3.92l8.12,9.51c1.22,1.42,3.37,1.56,4.75.3l4.73-4.31c2.71.14,6.08.46,9.8,1.13.61.11,1.23.23,1.86.36.01,0,.03,0,.04,0,.62.13,1.25.27,1.88.42.01,0,.03,0,.04.01.16.04.33.09.49.13-1.35,2.11-2.02,3.37-2.02,3.37l3.49,4.08-8.01,11.36,24.29,28.44,12.47-6.13,3.49,4.08s1.35-.46,3.65-1.47c.11,1.24.18,2.46.22,3.63h0c.14,4.08-.08,7.74-.39,10.63l-5,4c-1.46,1.17-1.67,3.32-.45,4.74l8.12,9.51c.94,1.1,2.5,1.47,3.83.89,27.64-11.92,26.47-31.01,24.5-39.1Z"/><polygon class="cls-24" points="728.82 142.76 719.24 156.35 743.53 184.79 758.46 177.45 728.82 142.76"/><path class="cls-20" d="M762.27,144.19s-16.15-22.25-41.88-21.88l-15.4,13.16s30.39-2.31,47.18,17.35l10.09-8.62Z"/><path class="cls-24" d="M734.8,124.51c-3.4,2.5-7.87,6.32-13.33,12.1,4.93.9,10.45,2.42,15.82,4.99l3.68-14.63c-1.94-.93-4-1.76-6.17-2.46Z"/><path class="cls-11" d="M706.94,139.79l30.05-27.41c1.43-1.3,1.03-3.65-.76-4.4-7.69-3.22-26.36-7.36-42.45,18.09-.77,1.23-.66,2.82.29,3.92l8.12,9.51c1.22,1.42,3.37,1.56,4.75.3Z"/><path class="cls-20" d="M762.27,144.19s19.45,19.43,15.07,44.78l-15.4,13.16s7.03-29.66-9.76-49.32l10.09-8.62Z"/><path class="cls-24" d="M763.36,184.9c6.1-3.32,10.75-7.06,14.1-10.3-.23-1.52-.53-2.99-.89-4.43l-13.97,6.59c.44,2.82.67,5.57.76,8.14Z"/><path class="cls-11" d="M757.97,199.52l31.77-25.4c1.51-1.21,3.77-.45,4.23,1.44,1.97,8.09,3.15,27.18-24.5,39.1-1.33.57-2.89.21-3.83-.89l-8.12-9.51c-1.22-1.42-1.01-3.57.45-4.74Z"/><path class="cls-29" d="M819.01,91.73c-66.75-4.97-95.24,49.18-95.24,49.18l35.73,41.82s57.94-19.69,63.46-86.39c.2-2.36-1.58-4.44-3.94-4.62Z"/><path class="cls-24" d="M817.38,123.03c2.77-7.92,4.75-16.78,5.57-26.68.2-2.36-1.58-4.44-3.94-4.62-9.91-.74-18.97-.16-27.22,1.33l25.6,29.96Z"/><path class="cls-38" d="M792.25,105.68c-46.32-2.54-66.85,35.25-66.85,35.25l24.27,28.41s40.53-14.38,45.26-60.53c.17-1.63-1.04-3.05-2.68-3.14Z"/><circle class="cls-32" cx="779.17" cy="129.29" r="19.43" transform="translate(-10.09 159.05) rotate(-11.58)"/><ellipse class="cls-24" cx="779.04" cy="128.93" rx="13.61" ry="13.78" transform="translate(102.96 536.89) rotate(-40.5)"/><circle class="cls-23" cx="779.17" cy="129.29" r="12.86" transform="translate(-10.09 159.05) rotate(-11.58)"/><g class="cls-69"><path class="cls-7" d="M763.91,120.72s4.8-4.96,14.31,1.12c9.51,6.09,17.2,1.24,17.2,1.24l.95,5.15s-6.52,8-15.74,4.26c-9.23-3.74-13.17-.8-16.29,3.36l-.44-15.13Z"/></g><circle class="cls-25" cx="779.05" cy="128.81" r="11.08"/><g class="cls-53"><g id="E2"><path class="cls-5" d="M398.18,221.66c1.64-1.91,2.84-3.36,3.6-4.33.11-.13.21-.27.3-.4l-19-35.13-6.07,6.13c-4.2,4.27-7.46,7.48-9.77,9.63-3.71,3.44-7.21,6.36-10.5,8.73-2.16,1.56-5.03,3.42-8.63,5.6-5.62,3.33-10.86,6.1-15.7,8.3-5.76,2.58-11.31,4.53-16.67,5.87-4.11,1.02-6.27,1.57-6.47,1.63-2.42.71-4.43,1.58-6.03,2.6-2.24,1.42-4.14,3.4-5.7,5.93-1.24,2.02-2.21,4.29-2.9,6.8-.13-.02-.28-.06-.43-.1-1.31-.27-3.14-.38-5.5-.33-2.27.09-3.93.32-5,.7-2.02.69-4.16,2.36-6.4,5-.69.78-1.2,1.44-1.53,2-.49.78-.93,1.79-1.33,3.03-.49,1.56-.82,3.12-1,4.7-1.04-.18-2.26-.34-3.63-.5-1.73-.2-3.03-.32-3.9-.37-1.47-.09-2.78-.07-3.93.07-2.02.27-4.19.88-6.5,1.83-3.67,1.49-6.56,3.33-8.67,5.53-1.67,1.76-3.27,4.32-4.8,7.7-1.31,2.89-2.26,5.61-2.83,8.17-.89-.62-1.76-1.02-2.6-1.2-.4-.09-.89-.13-1.47-.13-.67,0-1.17-.01-1.5-.03-.78,0-1.3.03-1.57.1-.31.04-.73.2-1.27.47-1.07.53-1.84.99-2.33,1.37-.76.58-1.31,1.27-1.67,2.07-.22.53-.33,1.17-.33,1.9l43.2,48.3c3.02-1.02,5.9-2.21,8.63-3.57,9.38-4.71,17.31-11.62,23.8-20.73,5.98-8.36,10.23-18,12.77-28.93.49-2.09.84-4.02,1.07-5.8,1.62.33,3.24.29,4.87-.13,1.22-.31,2.19-.76,2.9-1.33,1.07-.87,1.77-2.14,2.1-3.83.22-1.16.27-2.63.13-4.43-.02-.4-.04-.78-.07-1.13,2.56.22,5.17.02,7.83-.6,3.09-.71,6.03-1.94,8.83-3.7,5.11-3.2,9.38-7.86,12.8-13.97.16-.27.3-.52.43-.77,6.64-1,12.71-2.59,18.2-4.77,7.87-3.18,14.41-7.42,19.63-12.73,1.2-1.22,2.73-2.96,4.6-5.2Z"/><path class="cls-48" d="M399.51,224.33c1.64-1.91,2.84-3.36,3.6-4.33.11-.13.21-.27.3-.4l-19-35.13-6.07,6.13c-4.2,4.27-7.46,7.48-9.77,9.63-3.71,3.44-7.21,6.36-10.5,8.73-2.16,1.56-5.03,3.42-8.63,5.6-5.62,3.33-10.86,6.1-15.7,8.3-5.76,2.58-11.31,4.53-16.67,5.87-4.11,1.02-6.27,1.57-6.47,1.63-2.42.71-4.43,1.58-6.03,2.6-2.24,1.42-4.14,3.4-5.7,5.93-1.24,2.02-2.21,4.29-2.9,6.8-.13-.02-.28-.06-.43-.1-1.31-.27-3.14-.38-5.5-.33-2.27.09-3.93.32-5,.7-2.02.69-4.16,2.36-6.4,5-.69.78-1.2,1.44-1.53,2-.49.78-.93,1.79-1.33,3.03-.49,1.56-.82,3.12-1,4.7-1.04-.18-2.26-.34-3.63-.5-1.73-.2-3.03-.32-3.9-.37-1.47-.09-2.78-.07-3.93.07-2.02.27-4.19.88-6.5,1.83-3.67,1.49-6.56,3.33-8.67,5.53-1.67,1.76-3.27,4.32-4.8,7.7-1.31,2.89-2.26,5.61-2.83,8.17-.89-.62-1.76-1.02-2.6-1.2-.4-.09-.89-.13-1.47-.13-.67,0-1.17-.01-1.5-.03-.78,0-1.3.03-1.57.1-.31.04-.73.2-1.27.47-1.07.53-1.84.99-2.33,1.37-.76.58-1.31,1.27-1.67,2.07-.22.53-.33,1.17-.33,1.9l43.2,48.3c3.02-1.02,5.9-2.21,8.63-3.57,9.38-4.71,17.31-11.62,23.8-20.73,5.98-8.36,10.23-18,12.77-28.93.49-2.09.84-4.02,1.07-5.8,1.62.33,3.24.29,4.87-.13,1.22-.31,2.19-.76,2.9-1.33,1.07-.87,1.77-2.14,2.1-3.83.22-1.16.27-2.63.13-4.43-.02-.4-.04-.78-.07-1.13,2.56.22,5.17.02,7.83-.6,3.09-.71,6.03-1.94,8.83-3.7,5.11-3.2,9.38-7.86,12.8-13.97.16-.27.3-.52.43-.77,6.64-1,12.71-2.59,18.2-4.77,7.87-3.18,14.41-7.42,19.63-12.73,1.2-1.22,2.73-2.96,4.6-5.2Z"/></g></g><path class="cls-22" d="M434.33,169.03c-11.98-15.95-34.63-19.17-50.59-7.19-25.56,19.2-15.63,48.34-21.14,60.32l11.18-3.82-5.29,6.5c16.89,0,35.44,12.22,58.65-5.22,15.95-11.98,19.17-34.63,7.19-50.59Z"/><circle class="cls-8" cx="418.21" cy="181.14" r="20.43" transform="translate(60.43 463.45) rotate(-61.69)"/><path class="cls-12" d="M430.87,168.3c-9.93-13.22-28.69-15.88-41.9-5.95-21.17,15.9-12.95,40.04-17.51,49.97l9.26-3.17-4.39,5.38c13.99,0,29.36,10.12,48.58-4.32,13.22-9.93,15.88-28.69,5.95-41.9Z"/><path class="cls-24" d="M491.38,176.48c-.46-1.88-2.72-2.64-4.23-1.44l-11.81,9.44c.17-3.5-.09-6.86-.65-10.03,13.43-8.76,31.02-24.55,40.1-50.51h0s0,0,0,0c1.37-3.92,2.55-8.07,3.49-12.46.04-.16.07-.33.1-.49.18-.87.35-1.74.51-2.63.05-.3.11-.6.16-.9.13-.77.26-1.55.38-2.34.05-.35.11-.7.16-1.05.11-.79.21-1.58.31-2.39.04-.33.08-.66.12-1,.13-1.13.24-2.27.34-3.42.02-.29.02-.59-.02-.87-.05-.42-.17-.83-.34-1.21-.11-.25-.25-.49-.41-.72-.24-.34-.52-.64-.85-.9-.65-.52-1.45-.85-2.34-.92-1.16-.09-2.3-.15-3.43-.2-.34-.02-.67-.02-1.01-.04-.81-.03-1.61-.05-2.4-.07-.36,0-.71,0-1.07,0-.79,0-1.58,0-2.36.01-.31,0-.61,0-.92.02-.9.02-1.79.05-2.68.1-.17,0-.34.01-.5.02-34.2,1.83-56.63,19.53-69.01,33.21-3.05-1.05-6.33-1.82-9.81-2.2l11.18-10.2c1.43-1.3,1.03-3.65-.76-4.4-7.69-3.22-26.36-7.36-42.45,18.09-.77,1.23-.66,2.82.29,3.92l8.12,9.51c1.22,1.42,3.37,1.56,4.75.3l4.73-4.31c2.71.14,6.08.46,9.8,1.13.61.11,1.23.23,1.86.36.01,0,.03,0,.04,0,.62.13,1.25.27,1.88.42.01,0,.03,0,.04.01.16.04.33.09.49.13-1.35,2.11-2.02,3.37-2.02,3.37l3.49,4.08-8.01,11.36,24.29,28.44,12.47-6.13,3.49,4.08s1.35-.46,3.65-1.47c.11,1.24.18,2.46.22,3.63h0c.14,4.08-.08,7.74-.39,10.63l-5,4c-1.46,1.17-1.67,3.32-.45,4.74l8.12,9.51c.94,1.1,2.5,1.47,3.83.89,27.64-11.92,26.47-31.01,24.5-39.1Z"/><polygon class="cls-24" points="428.82 142.76 419.24 156.35 443.53 184.79 458.46 177.45 428.82 142.76"/><path class="cls-20" d="M462.27,144.19s-16.15-22.25-41.88-21.88l-15.4,13.16s30.39-2.31,47.18,17.35l10.09-8.62Z"/><path class="cls-24" d="M434.8,124.51c-3.4,2.5-7.87,6.32-13.33,12.1,4.93.9,10.45,2.42,15.82,4.99l3.68-14.63c-1.94-.93-4-1.76-6.17-2.46Z"/><path class="cls-11" d="M406.94,139.79l30.05-27.41c1.43-1.3,1.03-3.65-.76-4.4-7.69-3.22-26.36-7.36-42.45,18.09-.77,1.23-.66,2.82.29,3.92l8.12,9.51c1.22,1.42,3.37,1.56,4.75.3Z"/><path class="cls-20" d="M462.27,144.19s19.45,19.43,15.07,44.78l-15.4,13.16s7.03-29.66-9.76-49.32l10.09-8.62Z"/><path class="cls-24" d="M463.36,184.9c6.1-3.32,10.75-7.06,14.1-10.3-.23-1.52-.53-2.99-.89-4.43l-13.97,6.59c.44,2.82.67,5.57.76,8.14Z"/><path class="cls-11" d="M457.97,199.52l31.77-25.4c1.51-1.21,3.77-.45,4.23,1.44,1.97,8.09,3.15,27.18-24.5,39.1-1.33.57-2.89.21-3.83-.89l-8.12-9.51c-1.22-1.42-1.01-3.57.45-4.74Z"/><path class="cls-29" d="M519.01,91.73c-66.75-4.97-95.24,49.18-95.24,49.18l35.73,41.82s57.94-19.69,63.46-86.39c.2-2.36-1.58-4.44-3.94-4.62Z"/><path class="cls-24" d="M517.38,123.03c2.77-7.92,4.75-16.78,5.57-26.68.2-2.36-1.58-4.44-3.94-4.62-9.91-.74-18.97-.16-27.22,1.33l25.6,29.96Z"/><path class="cls-4" d="M492.25,105.68c-46.32-2.54-66.85,35.25-66.85,35.25l24.27,28.41s40.53-14.38,45.26-60.53c.17-1.63-1.04-3.05-2.68-3.14Z"/><circle class="cls-32" cx="479.17" cy="129.29" r="19.43" transform="translate(-16.2 98.83) rotate(-11.58)"/><ellipse class="cls-24" cx="479.04" cy="128.93" rx="13.61" ry="13.78" transform="translate(31.06 342.04) rotate(-40.5)"/><circle class="cls-23" cx="479.17" cy="129.29" r="12.86" transform="translate(-16.2 98.83) rotate(-11.58)"/><g class="cls-62"><path class="cls-21" d="M463.91,120.72s4.8-4.96,14.31,1.12c9.51,6.09,17.2,1.24,17.2,1.24l.95,5.15s-6.52,8-15.74,4.26c-9.23-3.74-13.17-.8-16.29,3.36l-.44-15.13Z"/></g><circle class="cls-51" cx="479.05" cy="128.81" r="11.08"/><g class="cls-56"><g id="E1"><path class="cls-5" d="M100.71,225c1.56-1.2,3.01-2.47,4.37-3.8l-22.3-39.07c-5.07,7-11.18,13.18-18.33,18.53-8.16,6.04-17.03,10.53-26.63,13.47-4.38,1.2-7.66,2.12-9.83,2.77-3.8,1.16-6.92,2.44-9.37,3.87-2.76,1.6-5.2,3.61-7.33,6.03-2.16,2.42-3.87,5.09-5.13,8-.89,2.13-1.33,4-1.33,5.6-4.47-2.87-8.81-3.11-13.03-.73-4.24,2.38-6.43,6.82-6.57,13.33-2.91-.67-6.11-.84-9.6-.53-5.33.51-9.83,2.09-13.5,4.73-3.56,2.56-6.39,6.22-8.5,11-.76,1.73-1.4,3.61-1.93,5.63-.4-.31-.64-.5-.73-.57-1.29-.8-2.77-1.34-4.43-1.63-1.11-.18-2.1-.21-2.97-.1-2.78.36-5.31,2.1-7.6,5.23-1.42,2-2.51,4.2-3.27,6.6-.31,1-.54,2-.7,3l33.57,40.57c.2.29.8,1.08,1.8,2.37,7.11,4.24,11.23,2.32,12.37-5.77,7.8-1.91,14.77-4.94,20.9-9.1,4.58-3.11,8.51-6.79,11.8-11.03,3.44-4.44,5.93-9.19,7.47-14.23,1.58-5.16,2.24-11.11,2-17.87-.07-2.04-.27-4.54-.6-7.5.31.11.63.21.97.3,1.93.53,3.54.62,4.83.27,1.53-.42,2.8-1.38,3.8-2.87.78-1.09,1.39-2.57,1.83-4.43.24-1,.41-2.01.5-3.03,3,.91,6.14,1.36,9.43,1.33,4.56-.04,8.84-1.02,12.87-2.93,1.91-.91,3.57-1.97,4.97-3.17,1.18-1.04,2.43-2.47,3.77-4.27,2.53-3.4,4.61-6.83,6.23-10.3,6.87-.07,13.24-1.24,19.13-3.53,4.02-1.56,7.72-3.61,11.1-6.17Z"/><path class="cls-3" d="M102.05,227.66c1.56-1.2,3.01-2.47,4.37-3.8l-22.3-39.07c-5.07,7-11.18,13.18-18.33,18.53-8.16,6.04-17.03,10.53-26.63,13.47-4.38,1.2-7.66,2.12-9.83,2.77-3.8,1.16-6.92,2.44-9.37,3.87-2.76,1.6-5.2,3.61-7.33,6.03-2.16,2.42-3.87,5.09-5.13,8-.89,2.13-1.33,4-1.33,5.6-4.47-2.87-8.81-3.11-13.03-.73-4.24,2.38-6.43,6.82-6.57,13.33-2.91-.67-6.11-.84-9.6-.53-5.33.51-9.83,2.09-13.5,4.73-3.56,2.56-6.39,6.22-8.5,11-.76,1.73-1.4,3.61-1.93,5.63-.4-.31-.64-.5-.73-.57-1.29-.8-2.77-1.34-4.43-1.63-1.11-.18-2.1-.21-2.97-.1-2.78.36-5.31,2.1-7.6,5.23-1.42,2-2.51,4.2-3.27,6.6-.31,1-.54,2-.7,3l33.57,40.57c.2.29.8,1.08,1.8,2.37,7.11,4.24,11.23,2.32,12.37-5.77,7.8-1.91,14.77-4.94,20.9-9.1,4.58-3.11,8.51-6.79,11.8-11.03,3.44-4.44,5.93-9.19,7.47-14.23,1.58-5.16,2.24-11.11,2-17.87-.07-2.04-.27-4.54-.6-7.5.31.11.63.21.97.3,1.93.53,3.54.62,4.83.27,1.53-.42,2.8-1.38,3.8-2.87.78-1.09,1.39-2.57,1.83-4.43.24-1,.41-2.01.5-3.03,3,.91,6.14,1.36,9.43,1.33,4.56-.04,8.84-1.02,12.87-2.93,1.91-.91,3.57-1.97,4.97-3.17,1.18-1.04,2.43-2.47,3.77-4.27,2.53-3.4,4.61-6.83,6.23-10.3,6.87-.07,13.24-1.24,19.13-3.53,4.02-1.56,7.72-3.61,11.1-6.17Z"/></g></g><path class="cls-22" d="M134.33,169.03c-11.98-15.95-34.63-19.17-50.59-7.19-25.56,19.2-15.63,48.34-21.14,60.32l11.18-3.82-5.29,6.5c16.89,0,35.44,12.22,58.65-5.22,15.95-11.98,19.17-34.63,7.19-50.59Z"/><circle class="cls-8" cx="118.21" cy="181.14" r="20.43" transform="translate(-97.32 199.32) rotate(-61.69)"/><path class="cls-30" d="M130.87,168.3c-9.93-13.22-28.69-15.88-41.9-5.95-21.17,15.9-12.95,40.04-17.51,49.97l9.26-3.17-4.39,5.38c13.99,0,29.36,10.12,48.58-4.32,13.22-9.93,15.88-28.69,5.95-41.9Z"/><path class="cls-24" d="M191.38,176.48c-.46-1.88-2.72-2.64-4.23-1.44l-11.81,9.44c.17-3.5-.09-6.86-.65-10.03,13.43-8.76,31.02-24.55,40.1-50.51h0s0,0,0,0c1.37-3.92,2.55-8.07,3.49-12.46.04-.16.07-.33.1-.49.18-.87.35-1.74.51-2.63.05-.3.11-.6.16-.9.13-.77.26-1.55.38-2.34.05-.35.11-.7.16-1.05.11-.79.21-1.58.31-2.39.04-.33.08-.66.12-1,.13-1.13.24-2.27.34-3.42.02-.29.02-.59-.02-.87-.05-.42-.17-.83-.34-1.21-.11-.25-.25-.49-.41-.72-.24-.34-.52-.64-.85-.9-.65-.52-1.45-.85-2.34-.92-1.16-.09-2.3-.15-3.43-.2-.34-.02-.67-.02-1.01-.04-.81-.03-1.61-.05-2.4-.07-.36,0-.71,0-1.07,0-.79,0-1.58,0-2.36.01-.31,0-.61,0-.92.02-.9.02-1.79.05-2.68.1-.17,0-.34.01-.5.02-34.2,1.83-56.63,19.53-69.01,33.21-3.05-1.05-6.33-1.82-9.81-2.2l11.18-10.2c1.43-1.3,1.03-3.65-.76-4.4-7.69-3.22-26.36-7.36-42.45,18.09-.77,1.23-.66,2.82.29,3.92l8.12,9.51c1.22,1.42,3.37,1.56,4.75.3l4.73-4.31c2.71.14,6.08.46,9.8,1.13.61.11,1.23.23,1.86.36.01,0,.03,0,.04,0,.62.13,1.25.27,1.88.42.01,0,.03,0,.04.01.16.04.33.09.49.13-1.35,2.11-2.02,3.37-2.02,3.37l3.49,4.08-8.01,11.36,24.29,28.44,12.47-6.13,3.49,4.08s1.35-.46,3.65-1.47c.11,1.24.18,2.46.22,3.63h0c.14,4.08-.08,7.74-.39,10.63l-5,4c-1.46,1.17-1.67,3.32-.45,4.74l8.12,9.51c.94,1.1,2.5,1.47,3.83.89,27.64-11.92,26.47-31.01,24.5-39.1Z"/><polygon class="cls-24" points="128.82 142.76 119.24 156.35 143.53 184.79 158.46 177.45 128.82 142.76"/><path class="cls-20" d="M162.27,144.19s-16.15-22.25-41.88-21.88l-15.4,13.16s30.39-2.31,47.18,17.35l10.09-8.62Z"/><path class="cls-24" d="M134.8,124.51c-3.4,2.5-7.87,6.32-13.33,12.1,4.93.9,10.45,2.42,15.82,4.99l3.68-14.63c-1.94-.93-4-1.76-6.17-2.46Z"/><path class="cls-11" d="M106.94,139.79l30.05-27.41c1.43-1.3,1.03-3.65-.76-4.4-7.69-3.22-26.36-7.36-42.45,18.09-.77,1.23-.66,2.82.29,3.92l8.12,9.51c1.22,1.42,3.37,1.56,4.75.3Z"/><path class="cls-20" d="M162.27,144.19s19.45,19.43,15.07,44.78l-15.4,13.16s7.03-29.66-9.76-49.32l10.09-8.62Z"/><path class="cls-24" d="M163.36,184.9c6.1-3.32,10.75-7.06,14.1-10.3-.23-1.52-.53-2.99-.89-4.43l-13.97,6.59c.44,2.82.67,5.57.76,8.14Z"/><path class="cls-11" d="M157.97,199.52l31.77-25.4c1.51-1.21,3.77-.45,4.23,1.44,1.97,8.09,3.15,27.18-24.5,39.1-1.33.57-2.89.21-3.83-.89l-8.12-9.51c-1.22-1.42-1.01-3.57.45-4.74Z"/><path class="cls-29" d="M219.01,91.73c-66.75-4.97-95.24,49.18-95.24,49.18l35.73,41.82s57.94-19.69,63.46-86.39c.2-2.36-1.58-4.44-3.94-4.62Z"/><path class="cls-24" d="M217.38,123.03c2.77-7.92,4.75-16.78,5.57-26.68.2-2.36-1.58-4.44-3.94-4.62-9.91-.74-18.97-.16-27.22,1.33l25.6,29.96Z"/><path class="cls-15" d="M192.25,105.68c-46.32-2.54-66.85,35.25-66.85,35.25l24.27,28.41s40.53-14.38,45.26-60.53c.17-1.63-1.04-3.05-2.68-3.14Z"/><circle class="cls-32" cx="179.17" cy="129.29" r="19.43" transform="translate(-22.31 38.6) rotate(-11.58)"/><ellipse class="cls-24" cx="179.04" cy="128.93" rx="13.61" ry="13.78" transform="translate(-40.83 147.19) rotate(-40.5)"/><circle class="cls-23" cx="179.17" cy="129.29" r="12.86" transform="translate(-22.31 38.6) rotate(-11.58)"/><g class="cls-67"><path class="cls-35" d="M163.91,120.72s4.8-4.96,14.31,1.12c9.51,6.09,17.2,1.24,17.2,1.24l.95,5.15s-6.52,8-15.74,4.26c-9.23-3.74-13.17-.8-16.29,3.36l-.44-15.13Z"/></g><circle class="cls-10" cx="179.05" cy="128.81" r="11.08"/></g></g></svg>