<?xml version="1.0" encoding="UTF-8"?><svg xmlns="http://www.w3.org/2000/svg" xmlns:xlink="http://www.w3.org/1999/xlink" viewBox="0 0 400 400"><defs><style>.cls-1{fill:url(#_40_10_ppp-3);}.cls-1,.cls-2,.cls-3,.cls-4,.cls-5,.cls-6,.cls-7,.cls-8,.cls-9,.cls-10,.cls-11,.cls-12,.cls-13,.cls-14,.cls-15,.cls-16,.cls-17{stroke-width:0px;}.cls-1,.cls-2,.cls-15,.cls-16{mix-blend-mode:overlay;opacity:.25;}.cls-2{fill:url(#_40_10_ppp-4);}.cls-3{fill:#db6b4c;}.cls-4{fill:#ffa544;}.cls-18{isolation:isolate;}.cls-5{fill:url(#Dégradé_sans_nom_58-2);mix-blend-mode:hard-light;}.cls-6,.cls-19,.cls-20{fill:none;}.cls-7{fill:#a5a5a5;}.cls-8{fill:url(#Dégradé_sans_nom_58);}.cls-21{clip-path:url(#clippath-1);}.cls-9{fill:#ffcb57;}.cls-10{fill:#6a90c6;}.cls-11{fill:#1d1061;}.cls-12{fill:#f2f0ec;}.cls-19{stroke:#fdcb59;stroke-miterlimit:10;stroke-width:10px;}.cls-19,.cls-20{stroke-linecap:round;}.cls-13{fill:#dedede;}.cls-14{fill:url(#Dégradé_sans_nom_64);}.cls-22{clip-path:url(#clippath);}.cls-15{fill:url(#_40_10_ppp-2);}.cls-16{fill:url(#_40_10_ppp);}.cls-17{fill:#fdcb59;}.cls-20{stroke:#bcada2;stroke-dasharray:0 0 0 16;stroke-linejoin:round;stroke-width:8px;}</style><clipPath id="clippath"><rect class="cls-6" x="-400" y="-500" width="400" height="400" rx="20" ry="20"/></clipPath><pattern id="_40_10_ppp" x="0" y="0" width="4.93" height="4.93" patternTransform="translate(3924.29 4147.05) scale(1.54)" patternUnits="userSpaceOnUse" viewBox="0 0 4.93 4.93"><rect class="cls-6" y="0" width="4.93" height="4.93"/><circle class="cls-11" cx="4.41" cy="4.41" r=".52"/><circle class="cls-11" cx="1.82" cy="4.41" r=".52"/><path class="cls-11" d="M4.41,2.34c.29,0,.52-.23.52-.52s-.23-.52-.52-.52-.52.23-.52.52.23.52.52.52Z"/><path class="cls-11" d="M1.82,2.34c.29,0,.52-.23.52-.52s-.23-.52-.52-.52-.52.23-.52.52.23.52.52.52Z"/><path class="cls-11" d="M.52,3.63c.29,0,.52-.23.52-.52s-.23-.52-.52-.52S0,2.83,0,3.11s.23.52.52.52Z"/><circle class="cls-11" cx="3.11" cy="3.11" r=".52"/><path class="cls-11" d="M.52,1.04c.29,0,.52-.23.52-.52S.81,0,.52,0,0,.23,0,.52s.23.52.52.52Z"/><circle class="cls-11" cx="3.11" cy=".52" r=".52"/></pattern><linearGradient id="Dégradé_sans_nom_58" x1="-1392.15" y1="-101.18" x2="-1073.16" y2="-145.53" gradientTransform="translate(-63.93 1131.2) rotate(90) scale(1 -1)" gradientUnits="userSpaceOnUse"><stop offset="0" stop-color="#6a90c6" stop-opacity="0"/><stop offset="1" stop-color="#6a90c6"/></linearGradient><linearGradient id="Dégradé_sans_nom_58-2" x1="-1381.07" y1="-146.07" x2="-1078.94" y2="-81.08" xlink:href="#Dégradé_sans_nom_58"/><pattern id="_40_10_ppp-2" patternTransform="translate(-6597.67 -3362.17) rotate(26.65) scale(.5)" xlink:href="#_40_10_ppp"/><pattern id="_40_10_ppp-3" patternTransform="translate(-6597.67 -3362.17) rotate(26.65) scale(.5)" xlink:href="#_40_10_ppp"/><clipPath id="clippath-1"><circle class="cls-6" cx="93.21" cy="313.75" r="4.73"/></clipPath><linearGradient id="Dégradé_sans_nom_64" x1="1164.54" y1="-178.5" x2="1170.43" y2="-185" gradientTransform="translate(-803.57 -456.48) rotate(49.49)" gradientUnits="userSpaceOnUse"><stop offset="0" stop-color="#fff" stop-opacity="0"/><stop offset="1" stop-color="#fff"/></linearGradient><pattern id="_40_10_ppp-4" patternTransform="translate(-6597.67 -3362.17) rotate(26.65) scale(.5)" xlink:href="#_40_10_ppp"/></defs><g class="cls-18"><g id="BG_2_-_copie"><g class="cls-22"><rect class="cls-11" x="-547" y="-593.15" width="730.85" height="609.61"/><rect class="cls-16" x="-547" y="-593.15" width="730.85" height="609.61"/><path class="cls-8" d="M183.85,16.46v-281.9C-.96-338.98-136.02-238.58-308-249.01c-111.67-6.77-139.47-73.66-239-52.45V16.46s730.85,0,730.85,0Z"/><path class="cls-5" d="M183.85,16.46V-251.98C-.96-325.53-132.87-180.97-304.85-191.4c-111.67-6.77-142.62-68.95-242.15-47.74V16.46s730.85,0,730.85,0Z"/></g></g><g id="Calque_20"><circle class="cls-17" cx="39.35" cy="364.26" r="13.76"/><line class="cls-20" x1="39.35" y1="364.26" x2="322.47" y2="81.14"/><line class="cls-19" x1="39.35" y1="364.26" x2="70.81" y2="332.8"/><path class="cls-9" d="M76.73,328.36c-4.4-5.86-12.72-7.04-18.59-2.64-9.39,7.05-5.74,17.76-7.77,22.16l4.11-1.4-1.95,2.39c6.2,0,13.02,4.49,21.55-1.92,5.86-4.4,7.04-12.72,2.64-18.59Z"/><circle class="cls-3" cx="70.81" cy="332.8" r="7.5" transform="translate(-255.78 237.34) rotate(-61.69)"/><path class="cls-15" d="M75.46,328.09c-3.65-4.86-10.54-5.83-15.39-2.19-7.78,5.84-4.76,14.71-6.43,18.36l3.4-1.16-1.61,1.98c5.14,0,10.79,3.72,17.85-1.59,4.86-3.65,5.83-10.54,2.19-15.39Z"/><path class="cls-11" d="M97.69,331.09c-.17-.69-1-.97-1.55-.53l-4.34,3.47c.06-1.29-.03-2.52-.24-3.69,4.93-3.22,11.4-9.02,14.73-18.56h0s0,0,0,0c.5-1.44.94-2.96,1.28-4.58.01-.06.02-.12.04-.18.07-.32.13-.64.19-.97.02-.11.04-.22.06-.33.05-.28.1-.57.14-.86.02-.13.04-.26.06-.39.04-.29.08-.58.11-.88.01-.12.03-.24.04-.37.05-.41.09-.83.12-1.26,0-.11,0-.22,0-.32-.02-.16-.06-.31-.12-.45-.04-.09-.09-.18-.15-.26-.09-.12-.19-.24-.31-.33-.24-.19-.53-.31-.86-.34-.42-.03-.84-.06-1.26-.07-.12,0-.25,0-.37-.01-.3-.01-.59-.02-.88-.02-.13,0-.26,0-.39,0-.29,0-.58,0-.87,0-.11,0-.22,0-.34,0-.33,0-.66.02-.98.04-.06,0-.12,0-.19,0-12.56.67-20.81,7.17-25.35,12.2-1.12-.38-2.33-.67-3.61-.81l4.11-3.75c.53-.48.38-1.34-.28-1.62-2.82-1.18-9.68-2.7-15.6,6.64-.28.45-.24,1.04.1,1.44l2.98,3.49c.45.52,1.24.57,1.75.11l1.74-1.58c1,.05,2.24.17,3.6.42.22.04.45.09.68.13,0,0,0,0,.01,0,.23.05.46.1.69.15,0,0,.01,0,.02,0,.06.01.12.03.18.05-.5.78-.74,1.24-.74,1.24l1.28,1.5-2.94,4.17,8.93,10.45,4.58-2.25,1.28,1.5s.5-.17,1.34-.54c.04.46.07.9.08,1.33h0c.05,1.5-.03,2.84-.14,3.9l-1.84,1.47c-.54.43-.61,1.22-.17,1.74l2.98,3.49c.35.4.92.54,1.41.33,10.16-4.38,9.73-11.39,9-14.37Z"/><polygon class="cls-11" points="74.71 318.7 71.19 323.7 80.11 334.15 85.6 331.45 74.71 318.7"/><path class="cls-7" d="M87,319.23s-5.93-8.18-15.39-8.04l-5.66,4.83s11.17-.85,17.34,6.37l3.71-3.17Z"/><path class="cls-11" d="M76.9,312c-1.25.92-2.89,2.32-4.9,4.45,1.81.33,3.84.89,5.81,1.83l1.35-5.38c-.71-.34-1.47-.65-2.27-.9Z"/><path class="cls-4" d="M66.67,317.61l11.04-10.07c.53-.48.38-1.34-.28-1.62-2.82-1.18-9.68-2.7-15.6,6.64-.28.45-.24,1.04.1,1.44l2.98,3.49c.45.52,1.24.57,1.75.11Z"/><path class="cls-7" d="M87,319.23s7.15,7.14,5.54,16.45l-5.66,4.83s2.58-10.9-3.59-18.12l3.71-3.17Z"/><path class="cls-11" d="M87.4,334.19c2.24-1.22,3.95-2.59,5.18-3.79-.08-.56-.19-1.1-.33-1.63l-5.13,2.42c.16,1.04.25,2.05.28,2.99Z"/><path class="cls-4" d="M85.42,339.56l11.67-9.33c.56-.44,1.38-.16,1.55.53.73,2.97,1.16,9.99-9,14.37-.49.21-1.06.08-1.41-.33l-2.98-3.49c-.45-.52-.37-1.31.17-1.74Z"/><path class="cls-12" d="M107.84,299.96c-24.52-1.83-34.99,18.07-34.99,18.07l13.13,15.37s21.29-7.23,23.31-31.74c.07-.87-.58-1.63-1.45-1.7Z"/><path class="cls-11" d="M107.24,311.45c1.02-2.91,1.75-6.16,2.05-9.8.07-.87-.58-1.63-1.45-1.7-3.64-.27-6.97-.06-10,.49l9.4,11.01Z"/><path class="cls-1" d="M98.01,305.08c-17.02-.93-24.56,12.95-24.56,12.95l8.92,10.44s14.89-5.28,16.63-22.24c.06-.6-.38-1.12-.98-1.15Z"/><circle class="cls-13" cx="93.21" cy="313.75" r="7.14"/><ellipse class="cls-11" cx="93.16" cy="313.62" rx="5" ry="5.06" transform="translate(-181.37 135.67) rotate(-40.5)"/><circle class="cls-10" cx="93.21" cy="313.75" r="4.73"/><g class="cls-21"><path class="cls-14" d="M87.6,310.61s1.76-1.82,5.26.41,6.32.45,6.32.45l.35,1.89s-2.39,2.94-5.78,1.56-4.84-.3-5.98,1.24l-.16-5.56Z"/></g><circle class="cls-2" cx="93.16" cy="313.58" r="4.07"/></g></g></svg>