<?xml version="1.0" encoding="UTF-8"?><svg xmlns="http://www.w3.org/2000/svg" xmlns:xlink="http://www.w3.org/1999/xlink" viewBox="0 0 400 400"><defs><style>.cls-1{fill:#f2f0ec;mix-blend-mode:lighten;}.cls-1,.cls-2,.cls-3,.cls-4,.cls-5,.cls-6,.cls-7,.cls-8,.cls-9,.cls-10,.cls-11,.cls-12,.cls-13,.cls-14,.cls-15,.cls-16,.cls-17,.cls-18{stroke-width:0px;}.cls-1,.cls-3{opacity:.75;}.cls-2{fill:url(#_40_10_ppp-3);}.cls-2,.cls-5,.cls-19,.cls-15,.cls-16,.cls-18{mix-blend-mode:overlay;}.cls-2,.cls-5,.cls-15,.cls-16,.cls-18{opacity:.25;}.cls-3{fill:#ffa544;}.cls-4{fill:url(#Dégradé_sans_nom_51);}.cls-4,.cls-8{mix-blend-mode:hard-light;}.cls-5{fill:url(#_40_10_ppp-4);}.cls-6{fill:#6a90c6;}.cls-6,.cls-10{mix-blend-mode:soft-light;}.cls-20{stroke-width:.58px;}.cls-20,.cls-21,.cls-11,.cls-22,.cls-19,.cls-23{fill:none;}.cls-20,.cls-21,.cls-22,.cls-19,.cls-23{stroke-linecap:round;stroke-linejoin:round;}.cls-20,.cls-21,.cls-23{stroke:#cd4d35;}.cls-7{fill:#db6b4c;}.cls-21{stroke-width:.77px;}.cls-24{isolation:isolate;}.cls-8{fill:url(#Dégradé_sans_nom_58-2);}.cls-9,.cls-10{fill:#d07b73;}.cls-22{stroke:#1d1061;}.cls-22,.cls-19{stroke-width:.59px;}.cls-12{fill:url(#Dégradé_sans_nom_58);}.cls-25{clip-path:url(#clippath-1);}.cls-13{fill:#1d1061;}.cls-19{stroke:#f2f0ec;}.cls-26{mix-blend-mode:screen;}.cls-23{stroke-width:.42px;}.cls-14{fill:url(#Dégradé_sans_nom_59);}.cls-27{clip-path:url(#clippath);}.cls-15{fill:url(#_40_10_ppp-2);}.cls-16{fill:url(#_40_10_ppp-5);}.cls-17{fill:#cd4d35;}.cls-18{fill:url(#_40_10_ppp);}</style><clipPath id="clippath"><rect class="cls-11" width="400" height="400" rx="20" ry="20"/></clipPath><pattern id="_40_10_ppp" x="0" y="0" width="4.93" height="4.93" patternTransform="translate(4324.29 4647.05) scale(1.54)" patternUnits="userSpaceOnUse" viewBox="0 0 4.93 4.93"><rect class="cls-11" y="0" width="4.93" height="4.93"/><circle class="cls-13" cx="4.41" cy="4.41" r=".52"/><circle class="cls-13" cx="1.82" cy="4.41" r=".52"/><path class="cls-13" d="M4.41,2.34c.29,0,.52-.23.52-.52s-.23-.52-.52-.52-.52.23-.52.52.23.52.52.52Z"/><path class="cls-13" d="M1.82,2.34c.29,0,.52-.23.52-.52s-.23-.52-.52-.52-.52.23-.52.52.23.52.52.52Z"/><path class="cls-13" d="M.52,3.63c.29,0,.52-.23.52-.52s-.23-.52-.52-.52S0,2.83,0,3.11s.23.52.52.52Z"/><circle class="cls-13" cx="3.11" cy="3.11" r=".52"/><path class="cls-13" d="M.52,1.04c.29,0,.52-.23.52-.52S.81,0,.52,0,0,.23,0,.52s.23.52.52.52Z"/><circle class="cls-13" cx="3.11" cy=".52" r=".52"/></pattern><linearGradient id="Dégradé_sans_nom_58" x1="-992.15" y1="398.82" x2="-673.16" y2="354.47" gradientTransform="translate(-163.93 1231.2) rotate(90) scale(1 -1)" gradientUnits="userSpaceOnUse"><stop offset="0" stop-color="#6a90c6" stop-opacity="0"/><stop offset="1" stop-color="#6a90c6"/></linearGradient><linearGradient id="Dégradé_sans_nom_58-2" x1="-981.07" y1="353.93" x2="-678.94" y2="418.92" xlink:href="#Dégradé_sans_nom_58"/><linearGradient id="Dégradé_sans_nom_59" x1="-2109.42" y1="-64.59" x2="-1762.94" y2="-128.98" gradientTransform="translate(129.84 -1902.87) rotate(-90) scale(1 -1)" gradientUnits="userSpaceOnUse"><stop offset="0" stop-color="#ffa544" stop-opacity="0"/><stop offset="1" stop-color="#db6b4c"/></linearGradient><linearGradient id="Dégradé_sans_nom_51" x1="-2098.87" y1="-124.76" x2="-1753.89" y2="-44.49" gradientTransform="translate(129.84 -1902.87) rotate(-90) scale(1 -1)" gradientUnits="userSpaceOnUse"><stop offset="0" stop-color="#ffa544" stop-opacity="0"/><stop offset="1" stop-color="#db6b4c"/></linearGradient><clipPath id="clippath-1"><circle class="cls-11" cx="360" cy="51" r="16.6"/></clipPath><pattern id="_40_10_ppp-2" patternTransform="translate(-3087.73 -3370.64) scale(.61)" xlink:href="#_40_10_ppp"/><pattern id="_40_10_ppp-3" patternTransform="translate(-3125.55 7685.79) rotate(26.65) scale(1.44)" xlink:href="#_40_10_ppp"/><pattern id="_40_10_ppp-4" patternTransform="translate(-3125.55 7685.79) rotate(26.65) scale(1.44)" xlink:href="#_40_10_ppp"/><pattern id="_40_10_ppp-5" patternTransform="translate(-3125.55 7685.79) rotate(26.65) scale(1.44)" xlink:href="#_40_10_ppp"/></defs><g class="cls-24"><g id="BG_2_-_copie"><g class="cls-27"><rect class="cls-13" x="-147" y="-93.15" width="730.85" height="609.61"/><rect class="cls-18" x="-147" y="-93.15" width="730.85" height="609.61"/><path class="cls-12" d="M583.85,516.46V234.56c-184.8-73.54-319.87,26.86-491.85,16.43-111.67-6.77-139.47-73.66-239-52.45v317.92s730.85,0,730.85,0Z"/><path class="cls-8" d="M583.85,516.46V248.02c-184.8-73.54-316.72,71.01-488.7,60.59-111.67-6.77-142.62-68.95-242.15-47.74v255.6s730.85,0,730.85,0Z"/><path class="cls-14" d="M-147-93.15V168.35c114.1,53.85,254.65,16.5,406.97,31.45,185.74,18.24,201.65,53.87,323.88,48.22V-93.15s-730.85,0-730.85,0Z"/><path class="cls-4" d="M-147-93.15V174.18c114.1,53.85,254.65-44.14,406.97-29.18,185.74,18.24,201.65,44.33,323.88,38.68V-93.15s-730.85,0-730.85,0Z"/><polygon class="cls-19" points="49.73 97.07 50.04 90.68 46.76 97 52.75 93.39 45.33 91.95 49.73 97.07"/><polygon class="cls-19" points="11.3 16.17 12.39 11.14 8.84 13.71 14.95 13.71 10.27 10.96 11.3 16.17"/><polygon class="cls-19" points="173.84 13.76 172.26 7.45 170.24 12.92 175.66 9.66 168.91 8.73 173.84 13.76"/><polygon class="cls-19" points="174.39 79.72 170.19 74.23 169.08 81.43 173.79 76.12 167.84 76.59 174.39 79.72"/><polygon class="cls-19" points="159.17 368.79 159.48 362.4 156.2 368.72 162.19 365.12 154.77 363.67 159.17 368.79"/><polygon class="cls-19" points="111.27 205.74 112.35 200.71 108.8 203.27 114.91 203.27 110.23 200.52 111.27 205.74"/><polygon class="cls-19" points="209.99 180.02 208.41 173.71 206.39 179.18 211.82 175.93 205.06 174.99 209.99 180.02"/><polygon class="cls-19" points="215.09 267.49 210.89 262.01 209.78 269.21 214.49 263.89 208.54 264.37 215.09 267.49"/><polygon class="cls-19" points="12.77 400.37 13.86 395.34 10.31 397.91 16.42 397.91 11.74 395.16 12.77 400.37"/><polygon class="cls-19" points="7.12 161.46 5.54 155.15 3.52 160.62 8.95 157.37 2.19 156.43 7.12 161.46"/><polygon class="cls-19" points="346.27 117.76 347.85 111.45 349.87 116.93 344.44 113.67 351.2 112.73 346.27 117.76"/><polygon class="cls-19" points="345.72 183.72 349.92 178.24 351.03 185.44 346.32 180.13 352.27 180.6 345.72 183.72"/><polygon class="cls-19" points="352.13 359.13 351.83 352.74 355.1 359.06 349.11 355.46 356.53 354.01 352.13 359.13"/><polygon class="cls-19" points="371.57 300.48 370.48 295.45 374.03 298.01 367.92 298.01 372.6 295.26 371.57 300.48"/><polygon class="cls-19" points="275.9 250.74 277.47 244.43 279.5 249.9 274.07 246.64 280.83 245.71 275.9 250.74"/><polygon class="cls-19" points="247.34 392.17 251.54 386.69 252.65 393.89 247.94 388.57 253.9 389.04 247.34 392.17"/><path class="cls-10" d="M352.88,55.53c-20.93-.49-28.6,14.38-52.92,13.87-15.19-.32-34.82-10.63-47.79-11.27-22.09-1.08-43.16,7.68-42.23,14.59,1.39,10.28,28.48-1.12,47.24,4.23,15.23,4.34,35.82,32.32,59.45,35s50.24-16.06,68.7-11.59,67.62-4.17,64.59-16.08c-3.82-15-29.98,1.35-56.51-8.81-15.6-5.97-18.34-19.42-40.54-19.94Z"/><path class="cls-22" d="M350.09,52.4c-20.93-.49-28.6,14.38-52.92,13.87-15.19-.32-34.82-10.63-47.79-11.27-22.09-1.08-43.16,7.68-42.23,14.59,1.39,10.28,28.48-1.12,47.24,4.23,15.23,4.34,35.82,32.32,59.45,35s50.24-16.06,68.7-11.59c18.46,4.47,67.62-4.17,64.59-16.08-3.82-15-29.98,1.35-56.51-8.81-15.6-5.97-18.34-19.42-40.54-19.94Z"/><path class="cls-10" d="M62.14,129.48c-12.72-.35-17.41,8.66-32.19,8.29-9.23-.23-21.13-6.55-29.01-6.97-13.42-.71-26.25,4.56-25.7,8.76.82,6.25,17.31-.61,28.69,2.69,9.24,2.68,21.68,19.73,36.03,21.42,14.35,1.69,30.57-9.63,41.77-6.87,11.2,2.76,41.1-2.36,39.29-9.61-2.28-9.12-18.22.74-34.31-5.5-9.46-3.67-11.09-11.84-24.58-12.22Z"/><path class="cls-22" d="M59.97,126.83c-12.72-.35-17.41,8.66-32.19,8.29-9.23-.23-21.13-6.55-29.01-6.97-13.42-.71-26.25,4.56-25.7,8.76.82,6.25,17.31-.61,28.69,2.69,9.24,2.68,21.68,19.73,36.03,21.42s30.57-9.63,41.77-6.87,41.1-2.36,39.29-9.61c-2.28-9.12-18.22.74-34.31-5.5-9.46-3.67-11.09-11.84-24.58-12.22Z"/><path class="cls-6" d="M97.84,327.04c20.93.55,28.64-14.29,52.95-13.72,15.19.36,34.79,10.73,47.76,11.4,22.09,1.14,43.18-7.56,42.27-14.47-1.36-10.28-28.49,1.04-47.23-4.36-15.22-4.39-35.72-32.42-59.35-35.17-23.63-2.74-50.29,15.92-68.74,11.4-18.45-4.52-67.63,3.98-64.63,15.9,3.78,15.01,29.98-1.27,56.49,8.97,15.58,6.02,18.28,19.47,40.48,20.05Z"/><path class="cls-22" d="M95.15,323.83c20.93.55,28.64-14.29,52.95-13.72,15.19.36,34.79,10.73,47.76,11.4,22.09,1.14,43.18-7.56,42.27-14.47-1.36-10.28-28.49,1.04-47.23-4.36-15.22-4.39-35.72-32.42-59.35-35.17s-50.29,15.92-68.74,11.4c-18.45-4.52-67.63,3.98-64.63,15.9,3.78,15.01,29.98-1.27,56.49,8.97,15.58,6.02,18.28,19.47,40.48,20.05Z"/><path class="cls-6" d="M393.35,356.3c-16.86.49-22.39,12.77-41.97,13.4-12.23.39-28.46-7.07-38.91-7.03-17.81.07-34.39,8.01-33.34,13.53,1.55,8.21,22.86-2.11,38.17,1.4,12.44,2.85,30.17,24.47,49.3,25.62,19.12,1.15,39.72-15.05,54.76-12.24,15.03,2.81,54.2-6.22,51.26-15.67-3.71-11.9-24.05,2.36-45.82-4.69-12.8-4.14-15.57-14.84-33.45-14.31Z"/><path class="cls-22" d="M390.32,353.4c-16.86.49-22.39,12.77-41.97,13.4-12.23.39-28.46-7.07-38.91-7.03-17.81.07-34.39,8.01-33.34,13.53,1.55,8.21,22.86-2.11,38.17,1.4,12.44,2.85,30.17,24.47,49.3,25.62,19.12,1.15,39.72-15.05,54.76-12.24,15.03,2.81,54.2-6.22,51.26-15.67-3.71-11.9-24.05,2.36-45.82-4.69-12.8-4.14-15.57-14.84-33.45-14.31Z"/><g class="cls-26"><path class="cls-3" d="M350.06,19.65c-20.79,4.46-31.45,42.89-9.42,56.05,22.03,13.16,46.12-3.58,51.64-17.02,5.52-13.45-6.18-46.75-42.22-39.03Z"/><path class="cls-1" d="M379.13,59.81c10.54-18.12-8.27-37.02-25.27-31.86-17.01,5.16-22.21,22.48-16.24,33.06,5.89,10.43,30.4,17.91,41.51-1.2Z"/></g><circle class="cls-17" cx="360" cy="51" r="16.6"/><g class="cls-25"><path class="cls-7" d="M337.21,55.53c1.01-11.79,20.52-9.2,25.28-13.66,4.76-4.46,7.64-10.78,7.64-10.78l3.4,1.96s1.2,9.4-5.7,14.86-19.84,2.73-24.44,16.96l-6.18-9.34Z"/><path class="cls-7" d="M353.63,69.7s5.34-9.11,9.6-12.31c4.11-3.09,13.3-8.05,15.62-13.89l1.06.95c-4.21,10.4-8.07,7.59-15.23,17.67-4.12,5.8-6.06,9.94-6.06,9.94l-4.99-2.36Z"/><path class="cls-7" d="M342.52,42.72c5.26-4.26,8.2-3.17,12.52-5.01,4.66-1.99,6.09-6.26,6.09-6.26l-12.44,2.59-6.18,8.68Z"/><path class="cls-7" d="M377.33,56.16c-8.68,3.51-7.28,10.27-10.57,11.94l8.4-3.23,2.17-8.71Z"/></g><circle class="cls-15" cx="358.82" cy="52.48" r="13.97"/><circle class="cls-22" cx="359.11" cy="50.11" r="16.6"/></g><path class="cls-13" d="M64.54,250.82s-.05-.05-.08-.08c-.19-.18-.36-.37-.54-.55-.05-.05-.09-.1-.13-.14-.14-.15-.28-.3-.41-.45-.04-.04-.07-.08-.11-.12-.16-.18-.31-.36-.46-.55-.04-.04-.07-.09-.1-.13-.12-.15-.24-.3-.35-.44-.04-.05-.07-.1-.11-.14-.14-.18-.27-.36-.39-.54-.03-.04-.05-.07-.07-.11-.1-.15-.2-.3-.3-.45-.03-.05-.07-.1-.1-.16-.11-.18-.22-.36-.33-.53-.01-.02-.03-.05-.04-.07-.09-.16-.18-.32-.26-.48-.03-.06-.06-.11-.09-.17-.08-.15-.16-.3-.23-.45-.01-.03-.03-.06-.04-.09-.08-.17-.16-.34-.23-.52-.02-.06-.05-.11-.07-.17-.06-.13-.11-.27-.16-.4-.02-.05-.04-.09-.05-.14-.06-.17-.12-.33-.18-.5-.02-.06-.04-.11-.06-.17-.04-.12-.08-.25-.11-.37-.02-.06-.03-.11-.05-.17-.04-.16-.09-.32-.12-.48-.01-.06-.03-.11-.04-.17-.03-.12-.05-.23-.07-.35-.01-.06-.03-.13-.04-.19-.03-.16-.06-.31-.08-.46,0-.05-.01-.11-.02-.16-.02-.11-.03-.23-.04-.34,0-.07-.01-.13-.02-.2-.01-.12-.02-.23-.03-.35,0-.08-.01-.15-.01-.23,0-.12-.01-.24-.01-.35,0-.07,0-.14,0-.21,0-.1,0-.2,0-.3,0-.06,0-.12,0-.18,0,0,0,0,0,0h0c.04-1.81.43-3.49.99-5.01,2.84-7.62,11.27-11.45,16.23-11.72,1.63-.09,3.88.66,6.22,2,.59-.16,1.21-.44,1.74-.91,2.87.58,5.93,3.84,6.25,5.9,0,0-.32.81-.15,2,1.55,2.11,2.71,4.47,3.17,6.95.22,1.22-.12,2.79-.78,4.44h0s0,0,0,0c-.19.46-.4.93-.63,1.4,0,.01,0,.02-.01.03-.23.47-.48.93-.74,1.39,0,0,0,0,0,.01-.13.22-.26.45-.4.67,0,0,0,.01-.01.02-.27.44-.55.87-.84,1.28-.02.02-.03.05-.05.07-.28.4-.57.78-.85,1.15-.02.02-.04.05-.06.07-.12.15-.24.3-.36.44-.03.03-.05.06-.08.09-.14.16-.27.32-.41.47,0,0,0,0,0,0-.13.14-.26.28-.38.41-.03.03-.07.07-.1.1-.11.11-.21.21-.31.3-.02.02-.05.05-.07.07-.12.11-.24.21-.35.31-.03.02-.05.04-.08.06-.09.07-.18.14-.26.2-.03.02-.06.04-.09.06-.11.07-.21.14-.31.19-2.53,1.36-14.27,6.13-20.41.79-.21-.19-.42-.37-.62-.56-.05-.05-.11-.1-.16-.15-.17-.16-.34-.32-.51-.49Z"/><path class="cls-9" d="M58.67,234.1c2.84-7.62,11.27-11.45,16.23-11.72s15.61,7.1,17.23,15.95c.74,4-4.66,11.87-7.19,13.23s-14.27,6.13-20.41.79c-7.68-6.69-7.68-13.36-5.86-18.25Z"/><path class="cls-17" d="M64.53,252.35c6.14,5.34,17.88.57,20.41-.79,1.76-.95,4.9-5.04,6.41-8.79-.15-.66-.36-1.34-.64-1.68-.81,1.86-4.08,6.79-11.4,8.9,0-.16-.04-.31-.14-.45-.51-.74-2.47-.37-2.47-.37.62.1,1.08.62,1.4,1.14-1.2.28-2.51.48-3.91.59-.55-.46-.56-.92-.56-.92-.15.25-.14.64-.09.96-1.24.07-2.55.06-3.95-.04-4.22-.29-9.84-5.31-11.9-11.8-.09,4.02,1.55,8.63,6.85,13.24ZM62.02,236.57c1.66,1.53,5.51-1.7,5.51-1.7-4.04,6.39-5.51,1.7-5.51,1.7Z"/><path class="cls-9" d="M78.76,224.55s2.47.37,4.1-1.07c2.87.58,5.93,3.84,6.25,5.9,0,0-.76,1.92.68,4.17l-11.03-9Z"/><path class="cls-23" d="M68.55,228.02s1.25,1.29.51,3.65"/><path class="cls-23" d="M84.35,238.95s-.51-1.68-2.05-.8"/><path class="cls-23" d="M81.08,239.42s-1.12,1.56-.83,3.75"/><path class="cls-13" d="M83.02,239.38c1.22-.33,1.96,1.97-.48,3.68s-1.18-3.23.48-3.68Z"/><path class="cls-13" d="M73.95,250.93s-.27-.81,1.23-.83,2.91.73,2.79,1.13-2.49.67-4.02-.3Z"/><path class="cls-13" d="M83.49,224.13c3.04,1.09,5.01,4.68,4.68,4.58-2.52-.75-5.3-4.01-4.68-4.58"/><path class="cls-23" d="M88.8,229.39s-1.13.63-3.75-1.78"/><path class="cls-23" d="M83.86,225.94s-.52.65-2.18.71"/><path class="cls-23" d="M83.39,225.59s-.54.41-1.28.4"/><path class="cls-13" d="M65.55,228.58c-.21-.06-.44-.06-.68-.04,1.78-1.26,2.69.04,2.63,2.52-.05,2.09-1.89,4.6-3.72,5.36-1.1.46-1.79-.55-2.04-1.68-.22-3.12,3.81-6.16,3.81-6.16Z"/><path class="cls-23" d="M68.27,227.11s-1.3.56-2.3.53c0,0-1.43.06-3.5,2.74"/><path class="cls-23" d="M70.28,230.18s.5,1.65-.9,3.19"/><path class="cls-2" d="M61.57,237.76c2.26-6.07,8.97-9.12,12.92-9.33s12.43,5.65,13.72,12.7c.59,3.18-3.71,9.45-5.73,10.53s-11.37,4.88-16.25.63c-6.12-5.32-6.11-10.64-4.66-14.53Z"/><path class="cls-13" d="M310.24,370c.02-.07.04-.13.06-.2.14-.46.27-.91.39-1.35.03-.12.06-.23.09-.35.1-.37.19-.73.27-1.09.02-.09.05-.19.07-.28.1-.43.19-.86.27-1.28.02-.1.04-.2.06-.3.06-.34.12-.68.18-1.01.02-.11.04-.22.05-.32.06-.41.12-.81.16-1.21,0-.08.02-.16.03-.24.04-.33.07-.66.09-.98,0-.11.02-.23.03-.34.03-.38.05-.77.06-1.14,0-.05,0-.09,0-.14.01-.33.01-.67.01-.99,0-.11,0-.23,0-.34,0-.31-.01-.62-.02-.92,0-.06,0-.12,0-.18-.02-.35-.04-.69-.07-1.03,0-.11-.02-.22-.03-.34-.03-.26-.06-.52-.09-.78-.01-.09-.02-.18-.03-.27-.04-.32-.09-.64-.15-.95-.02-.11-.04-.22-.06-.32-.04-.23-.09-.46-.14-.69-.02-.11-.04-.21-.07-.32-.07-.3-.14-.59-.22-.88-.03-.1-.06-.2-.09-.31-.06-.21-.12-.42-.18-.62-.03-.11-.07-.23-.11-.34-.09-.27-.18-.55-.28-.81-.03-.09-.07-.18-.1-.27-.07-.2-.15-.39-.23-.58-.05-.11-.09-.23-.14-.34-.08-.2-.17-.4-.26-.59-.06-.13-.12-.25-.17-.38-.09-.19-.19-.39-.28-.58-.06-.11-.11-.22-.17-.34-.08-.16-.17-.32-.26-.48-.05-.1-.1-.19-.16-.29,0,0,0,0,0,0h0c-1.63-2.87-3.71-5.24-5.93-7.19-11.16-9.8-28.02-8.66-36.23-4.78-2.7,1.27-5.67,4.42-8.27,8.61-1.09.25-2.32.34-3.58.05-4.1,3.42-6.2,11.3-4.94,14.9,0,0,1.21,1.03,1.97,3.09-.66,4.73-.49,9.53.93,13.91.69,2.15,2.62,4.38,5.1,6.45h0s0,0,0,0c.7.58,1.45,1.15,2.22,1.71.02.01.03.02.05.04.78.55,1.58,1.08,2.4,1.59,0,0,.01,0,.02.01.4.25.81.49,1.22.73.01,0,.02.01.04.02.81.47,1.63.91,2.45,1.33.05.02.09.05.14.07.8.4,1.59.77,2.36,1.11.05.02.1.04.15.06.33.14.65.27.97.4.07.03.14.06.21.08.36.14.72.28,1.07.4,0,0,0,0,0,0,.33.12.65.22.97.32.08.03.16.05.24.07.26.08.51.15.76.22.06.02.12.03.17.05.29.07.57.14.84.19.06.01.12.02.18.03.21.04.41.07.6.09.07,0,.14.02.2.02.23.02.46.04.66.04,5.24,0,28.25-2.51,33.49-16.4.18-.48.35-.96.52-1.44.04-.13.09-.25.13-.38.14-.41.27-.82.39-1.22Z"/><path class="cls-9" d="M305.21,338.03c-11.16-9.8-28.02-8.66-36.23-4.78-8.2,3.87-18.94,24.92-13.9,40.55,2.28,7.06,17.77,15.04,23.01,15.04s28.25-2.51,33.49-16.4c6.56-17.4.77-28.13-6.38-34.4Z"/><path class="cls-17" d="M311.59,372.43c-5.24,13.9-28.25,16.4-33.49,16.4-3.64,0-12.25-3.86-17.91-8.58-.33-1.2-.58-2.47-.42-3.25,2.91,2.3,12.43,7.38,26.04,4.44-.14-.26-.21-.54-.17-.85.18-1.64,3.65-2.74,3.65-2.74-.92.7-1.2,1.94-1.26,3.04,2.18-.59,4.44-1.4,6.8-2.44.48-1.21.11-1.97.11-1.97.45.27.77.91.98,1.47,2.05-.97,4.15-2.11,6.32-3.48,6.53-4.12,11.22-17.06,8.91-29.26,3.62,6.38,4.97,15.21.45,27.21ZM301.97,344.9c-1.35,3.89-10.33,2.03-10.33,2.03,12.02,6.77,10.33-2.03,10.33-2.03Z"/><path class="cls-9" d="M264.66,340.08s-3.65,2.73-7.52,1.82c-4.1,3.42-6.2,11.3-4.94,14.9,0,0,2.88,2.43,2.52,7.29l9.94-24.01Z"/><path class="cls-21" d="M284.06,336.82s-.9,3.15,2.34,6.3"/><path class="cls-21" d="M268.13,368.06s-.63-3.15,2.61-3.06"/><path class="cls-21" d="M273.8,365.99s3.15,1.53,4.59,5.31"/><path class="cls-13" d="M270.65,367.61c-2.24.53-1.44,4.86,3.96,5.49,5.4.63-.9-6.21-3.96-5.49Z"/><path class="cls-13" d="M295.23,378.32s-.27-1.53-2.7-.27-4.05,3.69-3.51,4.23,4.59-1.08,6.21-3.96Z"/><path class="cls-13" d="M256.69,343.5c-3.95,4.39-4.01,11.86-3.56,11.42,3.41-3.39,5.04-11.04,3.56-11.42"/><path class="cls-21" d="M252.71,356.55s2.36.04,4.49-6.11"/><path class="cls-21" d="M257.66,346.73s1.39.6,4.11-.74"/><path class="cls-21" d="M258.11,345.75s1.22.2,2.4-.47"/><path class="cls-13" d="M289.37,335.11c.28-.27.66-.48,1.05-.65-3.94-.48-4.28,2.39-2.04,6.32,1.89,3.31,7.02,5.76,10.62,5.4,2.16-.22,2.4-2.44,1.83-4.48-2.35-5.2-11.46-6.6-11.46-6.6Z"/><path class="cls-21" d="M283.74,335.11s2.58-.23,4.15-1.14c0,0,2.35-1.14,8,1.37"/><path class="cls-21" d="M283.16,341.79s.63,3.09,4.21,4.35"/><path class="cls-5" d="M303.72,346.43c-8.89-7.8-22.31-6.89-28.84-3.81-6.53,3.08-15.08,19.84-11.07,32.29,1.81,5.62,14.15,11.97,18.32,11.97s22.49-2,26.67-13.06c5.22-13.85.62-22.39-5.08-27.39Z"/><path class="cls-13" d="M215.52,101.86s.08-.07.11-.11c.26-.25.5-.51.75-.76.06-.07.12-.13.19-.2.2-.21.39-.42.57-.63.05-.05.1-.11.15-.16.22-.25.43-.5.64-.76.05-.06.1-.12.15-.18.17-.2.33-.41.48-.61.05-.07.1-.13.15-.2.19-.25.37-.5.54-.75.04-.05.07-.1.1-.15.14-.21.28-.41.41-.62.05-.07.09-.14.14-.22.16-.25.31-.49.45-.74.02-.03.03-.06.05-.09.13-.22.25-.44.37-.66.04-.08.08-.15.12-.23.11-.21.21-.42.32-.63.02-.04.04-.08.06-.12.11-.24.22-.48.32-.71.03-.08.07-.16.1-.24.08-.18.15-.37.22-.55.02-.06.05-.13.08-.19.09-.23.17-.46.24-.69.03-.08.05-.16.08-.24.05-.17.11-.34.15-.51.02-.08.05-.16.07-.24.06-.22.12-.44.17-.67.02-.08.04-.16.05-.23.04-.16.07-.32.1-.48.02-.09.03-.18.05-.26.04-.21.08-.43.11-.64.01-.07.02-.15.03-.22.02-.16.04-.31.06-.47.01-.09.02-.19.03-.28.02-.16.03-.32.04-.49,0-.1.01-.21.02-.31,0-.16.02-.33.02-.49,0-.1,0-.19,0-.29,0-.14,0-.28,0-.41,0-.08,0-.17,0-.25,0,0,0,0,0,0h0c-.06-2.5-.59-4.83-1.37-6.92-3.93-10.54-15.58-15.84-22.44-16.2-2.26-.12-5.37.91-8.61,2.77-.82-.22-1.67-.6-2.4-1.25-3.96.81-8.19,5.31-8.65,8.16,0,0,.44,1.13.2,2.77-2.14,2.92-3.75,6.18-4.38,9.61-.31,1.68.17,3.86,1.08,6.13h0s0,0,0,0c.26.64.55,1.29.87,1.94,0,.01.01.03.02.04.32.65.66,1.29,1.03,1.92,0,0,0,.01,0,.02.18.31.36.62.55.92,0,0,.01.02.02.03.37.61.76,1.2,1.16,1.76.02.03.05.07.07.1.39.55.78,1.09,1.18,1.58.03.03.05.06.08.1.17.21.33.41.5.61.04.04.07.09.11.13.19.22.38.44.57.65,0,0,0,0,0,0,.18.2.36.38.53.56.05.05.09.09.13.14.15.15.29.29.43.42.03.03.07.06.1.09.17.15.33.3.49.43.04.03.07.06.11.09.13.1.25.19.37.28.04.03.08.06.13.09.15.1.29.19.43.26,3.49,1.88,19.74,8.47,28.22,1.09.3-.26.58-.51.86-.77.07-.07.15-.14.22-.21.24-.22.47-.45.7-.67Z"/><path class="cls-9" d="M223.64,78.73c-3.93-10.54-15.58-15.84-22.44-16.2-6.86-.36-21.58,9.81-23.83,22.05-1.02,5.53,6.45,16.41,9.94,18.29s19.74,8.47,28.22,1.09c10.62-9.25,10.62-18.48,8.1-25.23Z"/><path class="cls-17" d="M215.54,103.96c-8.49,7.39-24.73.79-28.22-1.09-2.43-1.31-6.78-6.97-8.86-12.16.21-.92.5-1.86.89-2.32,1.12,2.58,5.64,9.39,15.77,12.31,0-.22.06-.43.19-.63.71-1.03,3.42-.51,3.42-.51-.86.14-1.5.86-1.93,1.58,1.66.39,3.47.66,5.41.81.76-.64.78-1.27.78-1.27.2.34.19.88.12,1.33,1.71.09,3.53.08,5.46-.05,5.83-.4,13.61-7.34,16.45-16.31.12,5.56-2.15,11.93-9.47,18.31ZM219.01,82.15c-2.3,2.11-7.62-2.35-7.62-2.35,5.58,8.83,7.62,2.35,7.62,2.35Z"/><path class="cls-9" d="M195.86,65.54s-3.41.51-5.67-1.48c-3.96.81-8.19,5.31-8.65,8.16,0,0,1.05,2.66-.94,5.77l15.25-12.44Z"/><path class="cls-20" d="M209.98,70.33s-1.73,1.78-.7,5.04"/><path class="cls-20" d="M188.13,85.44s.71-2.33,2.84-1.1"/><path class="cls-20" d="M192.66,86.09s1.55,2.15,1.15,5.19"/><path class="cls-13" d="M189.97,86.04c-1.68-.45-2.71,2.72.67,5.08s1.63-4.47-.67-5.08Z"/><path class="cls-13" d="M202.52,102.01s.37-1.12-1.7-1.15-4.03,1.01-3.86,1.56,3.45.93,5.56-.41Z"/><path class="cls-13" d="M189.32,64.95c-4.21,1.51-6.93,6.47-6.47,6.34,3.49-1.04,7.32-5.55,6.47-6.34"/><path class="cls-20" d="M181.98,72.23s1.56.88,5.19-2.46"/><path class="cls-20" d="M188.81,67.46s.71.9,3.01.98"/><path class="cls-20" d="M189.46,66.97s.74.57,1.77.55"/><path class="cls-13" d="M214.13,71.1c.28-.08.61-.09.94-.06-2.46-1.74-3.71.06-3.63,3.48.07,2.89,2.61,6.36,5.14,7.42,1.52.63,2.48-.76,2.83-2.33.3-4.31-5.28-8.51-5.28-8.51Z"/><path class="cls-20" d="M210.37,69.07s1.8.77,3.18.73c0,0,1.98.08,4.84,3.79"/><path class="cls-20" d="M207.59,73.32s-.69,2.28,1.24,4.41"/><path class="cls-16" d="M219.63,83.79c-3.13-8.39-12.4-12.61-17.87-12.9-5.46-.29-17.18,7.81-18.98,17.56-.81,4.4,5.14,13.07,7.92,14.56s15.72,6.75,22.47.87c8.46-7.36,8.45-14.71,6.45-20.09Z"/></g></g></svg>