<?xml version="1.0" encoding="UTF-8"?><svg xmlns="http://www.w3.org/2000/svg" xmlns:xlink="http://www.w3.org/1999/xlink" viewBox="0 0 400 400"><defs><style>.cls-1{fill:#ffa544;}.cls-1,.cls-2,.cls-3,.cls-4,.cls-5,.cls-6,.cls-7,.cls-8,.cls-9,.cls-10,.cls-11,.cls-12,.cls-13,.cls-14,.cls-15,.cls-16,.cls-17{stroke-width:0px;}.cls-18{isolation:isolate;}.cls-2,.cls-19{fill:none;}.cls-3{fill:#a5a5a5;}.cls-4{fill:#ffcb57;}.cls-5{fill:url(#_40_10_ppp-7);}.cls-6{fill:#6a90c6;}.cls-7{fill:url(#_40_10_ppp-6);}.cls-8{fill:#1d1061;}.cls-9{fill:url(#_40_10_ppp-3);}.cls-10{fill:#f2f0ec;}.cls-11{fill:#dedede;}.cls-12{fill:url(#Dégradé_sans_nom_64);}.cls-20{clip-path:url(#clippath);}.cls-19{mix-blend-mode:multiply;stroke:#cd4d35;stroke-linecap:round;stroke-linejoin:round;stroke-width:.53px;}.cls-19,.cls-21{opacity:.5;}.cls-13{fill:url(#_40_10_ppp-2);}.cls-13,.cls-16{opacity:.25;}.cls-13,.cls-16,.cls-21{mix-blend-mode:overlay;}.cls-14{fill:url(#_40_10_ppp-8);}.cls-15{fill:url(#_40_10_ppp-5);}.cls-16{fill:url(#_40_10_ppp);}.cls-17{fill:url(#_40_10_ppp-4);}</style><pattern id="_40_10_ppp" x="0" y="0" width="4.93" height="4.93" patternTransform="translate(-9984.59 -7524.37) rotate(-180) scale(.27 -.27)" patternUnits="userSpaceOnUse" viewBox="0 0 4.93 4.93"><rect class="cls-2" y="0" width="4.93" height="4.93"/><circle class="cls-8" cx="4.41" cy="4.41" r=".52"/><circle class="cls-8" cx="1.82" cy="4.41" r=".52"/><path class="cls-8" d="M4.41,2.34c.29,0,.52-.23.52-.52s-.23-.52-.52-.52-.52.23-.52.52.23.52.52.52Z"/><path class="cls-8" d="M1.82,2.34c.29,0,.52-.23.52-.52s-.23-.52-.52-.52-.52.23-.52.52.23.52.52.52Z"/><path class="cls-8" d="M.52,3.63c.29,0,.52-.23.52-.52s-.23-.52-.52-.52S0,2.83,0,3.11s.23.52.52.52Z"/><circle class="cls-8" cx="3.11" cy="3.11" r=".52"/><path class="cls-8" d="M.52,1.04c.29,0,.52-.23.52-.52S.81,0,.52,0,0,.23,0,.52s.23.52.52.52Z"/><circle class="cls-8" cx="3.11" cy=".52" r=".52"/></pattern><clipPath id="clippath"><circle class="cls-2" cx="350.89" cy="29.31" r="2.54"/></clipPath><linearGradient id="Dégradé_sans_nom_64" x1="1207.96" y1="3.48" x2="1211.13" y2="-.02" gradientTransform="translate(1465.19 -442.03) rotate(157.16) scale(1 -1)" gradientUnits="userSpaceOnUse"><stop offset="0" stop-color="#fff" stop-opacity="0"/><stop offset="1" stop-color="#fff"/></linearGradient><pattern id="_40_10_ppp-2" patternTransform="translate(-9981.96 -7525.29) rotate(-180) scale(.27 -.27)" xlink:href="#_40_10_ppp"/><pattern id="_40_10_ppp-3" patternTransform="translate(-3087.73 -4767.73) scale(.61)" xlink:href="#_40_10_ppp"/><pattern id="_40_10_ppp-4" patternTransform="translate(-3087.73 -4767.73) scale(.61)" xlink:href="#_40_10_ppp"/><pattern id="_40_10_ppp-5" patternTransform="translate(-3087.73 -4767.73) scale(.61)" xlink:href="#_40_10_ppp"/><pattern id="_40_10_ppp-6" patternTransform="translate(-3087.73 -4767.73) scale(.61)" xlink:href="#_40_10_ppp"/><pattern id="_40_10_ppp-7" patternTransform="translate(-3087.73 -4767.73) scale(.61)" xlink:href="#_40_10_ppp"/><pattern id="_40_10_ppp-8" patternTransform="translate(-3087.73 -4767.73) scale(.61)" xlink:href="#_40_10_ppp"/></defs><g class="cls-18"><g id="Calque_12"><path class="cls-19" d="M366.12,37.17s-11.67,4.18-20.49,8.6"/><path class="cls-8" d="M343.77,36.44c.25-.29.71-.23.87.12l1.25,2.72c.28-.63.62-1.2,1-1.72-1.6-2.74-3.31-7.09-2.61-12.49h0s0,0,0,0c.11-.81.27-1.65.49-2.51,0-.03.02-.06.03-.1.04-.17.09-.34.14-.51.02-.06.03-.12.05-.17.04-.15.09-.3.14-.45.02-.07.04-.13.07-.2.05-.15.1-.3.16-.45.02-.06.04-.12.07-.19.08-.21.16-.42.24-.63.02-.05.05-.11.08-.15.05-.07.1-.13.17-.18.04-.03.09-.07.14-.09.07-.04.15-.07.23-.08.16-.03.33-.02.49.05.21.09.42.18.62.27.06.03.12.06.18.08.15.07.29.13.43.2.06.03.13.06.19.09.14.07.28.14.42.21.05.03.11.06.16.08.16.08.31.17.46.25.03.02.06.03.09.05,5.89,3.36,8.28,8.48,9.25,12,.63.09,1.28.24,1.93.48l-1.07-2.8c-.14-.36.14-.74.52-.71,1.64.11,5.31,1.04,5.9,6.97.03.29-.13.56-.4.67l-2.28.96c-.34.14-.73-.02-.87-.37l-.45-1.18c-.49-.22-1.12-.46-1.83-.67-.12-.03-.24-.07-.36-.1,0,0,0,0,0,0-.12-.03-.24-.06-.37-.09,0,0,0,0,0,0-.03,0-.07-.01-.1-.02.05.49.06.78.06.78l-.98.41.41,2.72-6.82,2.87-1.66-2.19-.98.41s-.2-.2-.51-.58c-.13.21-.25.42-.36.62h0c-.39.71-.67,1.38-.87,1.91l.53,1.15c.15.34,0,.73-.34.88l-2.28.96c-.26.11-.57.04-.76-.18-3.83-4.56-1.93-7.83-.86-9.09Z"/><polygon class="cls-8" points="358.6 36.16 359.09 39.42 352.27 42.29 350.28 39.67 358.6 36.16"/><path class="cls-3" d="M352.56,33.45s4.83-2.5,9.35-.15l1.56,3.69s-5.17-3.11-9.88-1.12l-1.02-2.42Z"/><path class="cls-8" d="M359.16,32.4c.38.74.83,1.82,1.28,3.32-.95-.28-2.06-.5-3.24-.52l.65-2.91c.43,0,.86.04,1.31.11Z"/><path class="cls-1" d="M362.73,37.58l-2.88-7.51c-.14-.36.14-.74.52-.71,1.64.11,5.31,1.04,5.9,6.97.03.29-.13.56-.4.67l-2.28.96c-.34.14-.73-.02-.87-.37Z"/><path class="cls-3" d="M352.56,33.45s-5.16,1.71-6.64,6.58l1.56,3.69s1.39-5.87,6.1-7.85l-1.02-2.42Z"/><path class="cls-8" d="M348.75,40.55c-.78-1.13-1.27-2.2-1.58-3.07.18-.25.36-.48.55-.7l1.89,2.4c-.33.46-.61.92-.86,1.37Z"/><path class="cls-1" d="M348.41,43.61l-3.36-7.31c-.16-.35-.63-.41-.87-.12-1.07,1.26-2.97,4.53.86,9.09.18.22.49.29.76.18l2.28-.96c.34-.14.5-.54.34-.88Z"/><path class="cls-10" d="M347.18,19.13c12.24,5.05,12.48,17.15,12.48,17.15l-10.03,4.22s-8.5-8.62-3.55-20.91c.17-.43.67-.64,1.11-.47Z"/><path class="cls-8" d="M344.69,24.81c.21-1.65.65-3.39,1.38-5.21.17-.43.67-.64,1.11-.47,1.82.75,3.37,1.65,4.7,2.65l-7.19,3.03Z"/><path class="cls-16" d="M347.77,25.03c8.42,3.66,8.69,12.17,8.69,12.17l-6.81,2.87s-5.89-6.14-2.63-14.72c.12-.3.45-.45.75-.32Z"/><circle class="cls-11" cx="350.89" cy="29.31" r="3.84"/><ellipse class="cls-8" cx="350.95" cy="29.26" rx="2.73" ry="2.69" transform="translate(16.16 138.53) rotate(-22.84)"/><circle class="cls-6" cx="350.89" cy="29.31" r="2.54"/><g class="cls-20"><path class="cls-12" d="M354.35,29.15s-.41-1.3-2.63-1.07-3.15-1.31-3.15-1.31l-.63.83s.44,1.99,2.41,2.15,2.4,1.03,2.58,2.04l1.42-2.64Z"/></g><circle class="cls-13" cx="350.69" cy="29.37" r="2.19"/><g id="Layer4_0_FILL"><path class="cls-4" d="M378.22,29.47l-6.04-4.91-1.95,6.03,7.99-1.13Z"/></g><g id="Layer3_0_FILL"><path class="cls-8" d="M372.55,24.24l-.92-.13-4.07,13,.63.22,4.36-13.08Z"/></g><polygon class="cls-4" points="348.73 14.35 347.78 9.15 350.49 9.23 348.73 14.35"/><polygon class="cls-4" points="355.84 16.01 357.94 11.15 360.15 12.73 355.84 16.01"/><polygon class="cls-4" points="360.4 21.87 364.39 18.39 365.71 20.76 360.4 21.87"/><polygon class="cls-4" points="340.9 16.89 337.4 12.93 335.79 15.12 340.9 16.89"/><polygon class="cls-4" points="337.81 23.51 332.69 22.17 332.57 24.88 337.81 23.51"/><polygon class="cls-4" points="339.6 30.72 334.4 31.71 335.45 34.21 339.6 30.72"/><g class="cls-21"><polygon class="cls-9" points="348.2 14.88 347.25 9.68 349.96 9.76 348.2 14.88"/><polygon class="cls-17" points="355.31 16.53 357.42 11.68 359.63 13.26 355.31 16.53"/><polygon class="cls-15" points="359.88 22.39 363.86 18.92 365.18 21.29 359.88 22.39"/><polygon class="cls-7" points="340.37 17.42 336.87 13.46 335.26 15.64 340.37 17.42"/><polygon class="cls-5" points="337.28 24.04 332.17 22.7 332.04 25.41 337.28 24.04"/><polygon class="cls-14" points="339.07 31.25 333.88 32.24 334.93 34.74 339.07 31.25"/></g></g></g></svg>