<?xml version="1.0" encoding="UTF-8"?>
<svg xmlns="http://www.w3.org/2000/svg" width="200" height="180" xmlns:xlink="http://www.w3.org/1999/xlink" viewBox="0 0 200 180">
  <defs>
    <clipPath id="b">
      <rect width="200" height="180" rx="10" ry="10" fill="none"/>
    </clipPath>
    <pattern id="c" data-name="40 % 10 ppp 2" x="0" y="0" width="4.931" height="4.931" patternTransform="translate(8959.259 9124.667) scale(2.134)" patternUnits="userSpaceOnUse" viewBox="0 0 4.931 4.931">
      <g>
        <rect width="4.931" height="4.931" fill="none"/>
        <g>
          <circle cx="4.412" cy="4.412" r=".519" fill="#1d1d1b"/>
          <circle cx="1.817" cy="4.412" r=".519" fill="#1d1d1b"/>
          <path d="M4.412,2.336c.287,0,.519-.232.519-.519s-.233-.519-.519-.519-.519.232-.519.519.232.519.519.519Z" fill="#1d1d1b"/>
          <path d="M1.817,2.336c.287,0,.519-.232.519-.519s-.233-.519-.519-.519-.519.232-.519.519.232.519.519.519Z" fill="#1d1d1b"/>
          <path d="M.519,3.633c.287,0,.519-.232.519-.519s-.233-.519-.519-.519S0,2.827,0,3.114s.232.519.519.519Z" fill="#1d1d1b"/>
          <circle cx="3.114" cy="3.114" r=".519" fill="#1d1d1b"/>
          <path d="M.519,1.038c.287,0,.519-.232.519-.519S.806,0,.519,0,0,.232,0,.519s.232.519.519.519Z" fill="#1d1d1b"/>
          <circle cx="3.114" cy=".519" r=".519" fill="#1d1d1b"/>
        </g>
      </g>
    </pattern>
    <linearGradient id="d" data-name="Dégradé sans nom 20" x1="92.359" y1="17.925" x2="92.359" y2="165.628" gradientUnits="userSpaceOnUse">
      <stop offset="0" stop-color="#6a90c6"/>
      <stop offset="1" stop-color="#6a90c6" stop-opacity="0"/>
    </linearGradient>
  </defs>
  <g isolation="isolate">
    <g id="a" data-name="Calque 3 - copie 2">
      <g clip-path="url(#b)">
        <g>
          <rect x="-148.571" y="-73.714" width="497.143" height="385.714" rx="17.146" ry="17.146" fill="#6a90c6"/>
          <rect x="-58.418" y="-26.614" width="303.461" height="234.766" fill="url(#c)" mix-blend-mode="overlay" opacity=".25"/>
          <rect x="-67.212" y="-28.746" width="319.14" height="240.289" fill="url(#d)"/>
          <path d="M182.833,88.286c-5.001,12.261-17.979,0-24.638,12-4.661,8.399,9.988,33.429.666,51.429-17.825,34.418-75.91,21.429-97.218,12.857-21.308-8.571-35.292-27.429-28.633-37.714,6.659-10.286,14.649-7.714,16.647-11.143C58.975,99.721,3.045,49.714,21.69,30c18.645-19.714,55.934,4.286,60.595,0s-5.541-18.63,2.664-22.286c34.626-15.429,111.868,46.286,97.884,80.571ZM178.168,123.949c-3.407,0-6.168,2.762-6.168,6.168s2.762,6.168,6.168,6.168,6.168-2.762,6.168-6.168-2.762-6.168-6.168-6.168ZM24.985,103.714c-4.021,0-7.281,3.262-7.281,7.286s3.26,7.286,7.281,7.286,7.281-3.262,7.281-7.286-3.26-7.286-7.281-7.286Z" fill="#ffbd94" mix-blend-mode="color-burn"/>
        </g>
        <path d="M91.81,91.024c2.205-3.308,5.355-6.903,9.45-10.789,2.624-2.52,4.541-4.568,5.749-6.142,1.205-1.575,1.811-3.254,1.811-5.041,0-2.308-.999-4.12-2.993-5.434-1.995-1.312-4.515-1.969-7.559-1.969-3.362,0-6.512.972-9.45,2.914-2.94,1.945-5.251,4.543-6.93,7.797l-28.035-14.017c4.198-7.979,10.419-14.227,18.664-18.743,8.241-4.513,18.4-6.773,30.476-6.773,12.809,0,23.204,2.626,31.185,7.875,7.978,5.251,11.971,12.654,11.971,22.208,0,4.41-.764,8.268-2.284,11.576-1.524,3.308-3.334,6.091-5.434,8.347-2.102,2.259-4.779,4.752-8.032,7.482-3.362,2.939-5.777,5.303-7.245,7.087-1.472,1.786-2.205,3.779-2.205,5.985h-32.445c0-4.935,1.102-9.057,3.307-12.363ZM89.762,141.66c-3.886-3.674-5.828-8.135-5.828-13.388,0-5.355,1.942-9.789,5.828-13.309,3.883-3.516,8.871-5.276,14.962-5.276s11.076,1.76,14.962,5.276c3.884,3.52,5.827,7.954,5.827,13.309,0,5.253-1.943,9.714-5.827,13.388-3.886,3.677-8.874,5.513-14.962,5.513s-11.079-1.836-14.962-5.513Z" fill="#fff"/>
      </g>
    </g>
  </g>
</svg>