<?xml version="1.0" encoding="UTF-8"?><svg xmlns="http://www.w3.org/2000/svg" xmlns:xlink="http://www.w3.org/1999/xlink" viewBox="0 0 300 300"><defs><style>.cls-1{clip-path:url(#clippath-6);}.cls-2{clip-path:url(#clippath-7);}.cls-3{fill:#ffcb57;}.cls-4{clip-path:url(#clippath-4);}.cls-5{fill:#777;}.cls-6{fill:url(#_40_10_ppp-2);}.cls-6,.cls-7,.cls-8{mix-blend-mode:multiply;}.cls-6,.cls-9{opacity:.25;}.cls-10{fill:#fff;}.cls-11{fill:#282659;}.cls-12{fill:#1d1061;}.cls-13{fill:#9b9b9b;}.cls-14,.cls-15,.cls-16,.cls-17,.cls-18{fill:none;}.cls-19{fill:#5cc6a0;}.cls-15{stroke:#6a90c6;}.cls-15,.cls-16,.cls-17,.cls-18{stroke-linecap:round;stroke-linejoin:round;stroke-width:2px;}.cls-20{clip-path:url(#clippath-1);}.cls-21{isolation:isolate;}.cls-22{clip-path:url(#clippath-5);}.cls-23{fill:#f2f0ec;}.cls-7{fill:url(#_40_10_ppp);opacity:.1;}.cls-16{stroke:#ffcb57;}.cls-9{fill:url(#_40_10_ppp_6);mix-blend-mode:overlay;}.cls-17{stroke:#9b9b9b;}.cls-18{stroke:#1d1061;}.cls-8{fill:url(#_40_10_ppp_4);opacity:.05;}.cls-24{fill:#dedede;}.cls-25{fill:#a5a5a5;}.cls-26{clip-path:url(#clippath);}.cls-27{fill:url(#Dégradé_sans_nom_8);}.cls-28{fill:#fdfdfd;}</style><clipPath id="clippath"><rect class="cls-14" x="10" y="10" width="280" height="280" rx="20" ry="20"/></clipPath><pattern id="_40_10_ppp_4" x="0" y="0" width="11.34" height="11.34" patternTransform="translate(7397.83 5535.43) scale(2)" patternUnits="userSpaceOnUse" viewBox="0 0 11.34 11.34"><rect class="cls-14" x="0" width="11.34" height="11.34"/><circle class="cls-11" cx="9.7" cy="9.69" r="1.2"/><circle class="cls-11" cx="4.03" cy="9.69" r="1.2"/><path class="cls-11" d="M9.7,5.22c.66,0,1.2-.54,1.2-1.2s-.54-1.2-1.2-1.2-1.2.54-1.2,1.2.54,1.2,1.2,1.2Z"/><path class="cls-11" d="M4.03,5.22c.66,0,1.2-.54,1.2-1.2s-.54-1.2-1.2-1.2-1.2.54-1.2,1.2.54,1.2,1.2,1.2Z"/><path class="cls-11" d="M1.2,8.06c.66,0,1.2-.54,1.2-1.2s-.54-1.2-1.2-1.2S0,6.2,0,6.86s.54,1.2,1.2,1.2Z"/><circle class="cls-11" cx="6.86" cy="6.86" r="1.2"/><path class="cls-11" d="M1.2,2.39c.66,0,1.2-.54,1.2-1.2S1.86,0,1.2,0,0,.54,0,1.2s.54,1.2,1.2,1.2Z"/><circle class="cls-11" cx="6.86" cy="1.2" r="1.2"/></pattern><linearGradient id="Dégradé_sans_nom_8" x1="150" y1="300" x2="150" y2="8.88" gradientUnits="userSpaceOnUse"><stop offset="0" stop-color="#f2f0ec" stop-opacity="0"/><stop offset="1" stop-color="#f2f0ec"/></linearGradient><clipPath id="clippath-1"><rect class="cls-14" x="-340" y="10" width="280" height="280" rx="20" ry="20"/></clipPath><clipPath id="clippath-2"><path class="cls-14" d="M-234.03,177.2c.43,5.17-35.74,5.17-35.74,5.17,0,0,30.57,4.72,30.57,12.06,0,3.88-31.86,4.31-31.86,4.31,0,0,1.07,31.18-6.27,39.58H-106.61c-7.41-8.29-6.33-39.65-6.33-39.65,0,0-31.86-.43-31.86-4.31,0-7.33,30.57-12.06,30.57-12.06,0,0-36.17,0-35.74-5.17.69-8.27,31.14-15.33,45.18-15.18-13.85-67.91-28.66-103.89-28.66-103.89-44.13,6.97-117.08,0-117.08,0-12.58,25.08-22.41,66.91-29.28,103.96,13.76-.36,45.08,6.78,45.78,15.18Z"/></clipPath><clipPath id="clippath-3"><circle class="cls-14" cx="-211.07" cy="159.64" r="49.05"/></clipPath><clipPath id="clippath-4"><rect class="cls-14" x="10" y="10" width="280" height="280" rx="20" ry="20"/></clipPath><pattern id="_40_10_ppp_6" x="0" y="0" width="11.34" height="11.34" patternTransform="translate(12079.34 10762.28) scale(2.76)" patternUnits="userSpaceOnUse" viewBox="0 0 11.34 11.34"><rect class="cls-14" x="0" y="0" width="11.34" height="11.34"/><circle class="cls-11" cx="9.57" cy="9.69" r="1.2"/><circle class="cls-11" cx="3.99" cy="9.69" r="1.2"/><path class="cls-11" d="M9.57,5.22c.66,0,1.2-.54,1.2-1.2s-.54-1.2-1.2-1.2-1.2.54-1.2,1.2.54,1.2,1.2,1.2Z"/><path class="cls-11" d="M3.99,5.22c.66,0,1.2-.54,1.2-1.2s-.54-1.2-1.2-1.2-1.2.54-1.2,1.2.54,1.2,1.2,1.2Z"/><path class="cls-11" d="M1.2,8.06c.66,0,1.2-.54,1.2-1.2s-.54-1.2-1.2-1.2S0,6.2,0,6.86s.54,1.2,1.2,1.2Z"/><circle class="cls-11" cx="6.78" cy="6.86" r="1.2"/><path class="cls-11" d="M1.2,2.39c.66,0,1.2-.54,1.2-1.2S1.86,0,1.2,0,0,.54,0,1.2s.54,1.2,1.2,1.2Z"/><circle class="cls-11" cx="6.78" cy="1.2" r="1.2"/></pattern><pattern id="_40_10_ppp" x="0" y="0" width="10" height="10" patternTransform="translate(12076.31 10821.76) scale(2.76)" patternUnits="userSpaceOnUse" viewBox="0 0 10 10"><rect class="cls-14" width="10" height="10"/><circle class="cls-12" cx="8.95" cy="8.95" r="1.05"/><circle class="cls-12" cx="3.68" cy="8.95" r="1.05"/><path class="cls-12" d="M8.95,4.74c.58,0,1.05-.47,1.05-1.05s-.47-1.05-1.05-1.05-1.05.47-1.05,1.05.47,1.05,1.05,1.05Z"/><path class="cls-12" d="M3.68,4.74c.58,0,1.05-.47,1.05-1.05s-.47-1.05-1.05-1.05-1.05.47-1.05,1.05.47,1.05,1.05,1.05Z"/><path class="cls-12" d="M1.05,7.37c.58,0,1.05-.47,1.05-1.05s-.47-1.05-1.05-1.05S0,5.73,0,6.32s.47,1.05,1.05,1.05Z"/><circle class="cls-12" cx="6.32" cy="6.32" r="1.05"/><path class="cls-12" d="M1.05,2.11c.58,0,1.05-.47,1.05-1.05S1.63,0,1.05,0,0,.47,0,1.05s.47,1.05,1.05,1.05Z"/><circle class="cls-12" cx="6.32" cy="1.05" r="1.05"/></pattern><clipPath id="clippath-5"><path class="cls-14" d="M115.97,177.2c.43,5.17-35.74,5.17-35.74,5.17,0,0,30.57,4.72,30.57,12.06,0,3.88-31.86,4.31-31.86,4.31,0,0,1.07,31.18-6.27,39.58h170.71c-7.41-8.29-6.33-39.65-6.33-39.65,0,0-31.86-.43-31.86-4.31,0-7.33,30.57-12.06,30.57-12.06,0,0-36.17,0-35.74-5.17.69-8.27,31.14-15.33,45.18-15.18-13.85-67.91-28.66-103.89-28.66-103.89-44.13,6.97-117.08,0-117.08,0-12.58,25.08-22.41,66.91-29.28,103.96,13.76-.36,45.08,6.78,45.78,15.18Z"/></clipPath><pattern id="_40_10_ppp-2" patternTransform="translate(1647.1 -438.49) scale(1.43)" xlink:href="#_40_10_ppp"/><clipPath id="clippath-6"><path class="cls-14" d="M161.2,143.89c4.74,2.89,13.48,9.01,20.97,18.67,2.93,3.78-.15,9.03-5.21,9.03h-38.52c-5.05,0-8.14-5.25-5.21-9.03,7.49-9.66,16.23-15.78,20.97-18.67,2.13-1.3,4.86-1.3,7,0Z"/></clipPath><clipPath id="clippath-7"><rect class="cls-14" x="360" y="10" width="280" height="280" rx="20" ry="20"/></clipPath></defs><g class="cls-21"><g id="Calque_25"><rect class="cls-23" x="10" y="10" width="280" height="280" rx="20" ry="20"/><g class="cls-26"><rect class="cls-8" width="300" height="300"/><rect class="cls-27" width="300" height="300"/></g></g><g id="ZONE_2_Tshirt"><g class="cls-20"><path class="cls-12" d="M-91.83,244.16c15.53-4.22,94.87-26.46,94.19-40.44-.68-14.05-65.53-75.65-77.66-87.06l3.22-4.84-65.98-50.07c-10.78,1.7-23.28,2.57-36.02,2.91v-30.72h0c35.46-.86,68.02-4.03,83.72-10.86.92-2.77,1.05-7.82.55-14.48,3.05,1.19,6.37,1.87,9.84,1.87,14.98,0,27.13-12.15,27.13-27.13s-12.15-27.13-27.13-27.13c-6.53,0-12.53,2.31-17.21,6.16-9.09-44.02-24.01-97.54-31.82-113.17-32.2-6.44-109.48-6.44-148.12,6.44-7.08,19.47-15.3,66.24-20.42,106.6-4.66-3.77-10.58-6.03-17.04-6.03-14.98,0-27.13,12.15-27.13,27.13s12.15,27.13,27.13,27.13c4.53,0,8.79-1.13,12.55-3.09-.5,8.44-.6,15.17-.16,19.24,11.13,3.42,44.58,6.47,83.53,7.33h0v30.19c-21-.91-36.49-2.39-36.49-2.39l-65.98,50.07,3.18,4.77c-12.65,11.2-81.79,73.04-82.48,87.13-.68,13.98,82.62,36.22,98.92,40.44v.03s4.89,2.22,12.04.98l.82,11.24,30.48,420.17,3.01.16-32.35,14.49h98.75v-10.96l1.81.1-11.85-404.46c1.97.04,3.97.06,6.06.06,1.23,0,2.61-.06,3.88-.08l54.18,404.47,2.26-.12v10.98H-33.67l-32.39-14.51,2.6-.14-39.1-431.27c6.17.77,10.33-.96,10.73-1.14ZM-284.43,165.74c-2.45.07-4.41.35-5.45.94-3.13,1.76-5.64,14.58-7.44,28.02l-.86-.23s-.02-.02-.03-.02c0,0-.02,0-.03,0l-39.94-10.62c0-.08-.03-.15-.03-.23l40.21-37.11,3.58,5.37,15.64-14.15c-2.06,9.42-3.94,18.87-5.64,28.03ZM-103.35,166.61c-1.13-.63-3.31-.92-6.05-.95-2.15-10.53-4.32-20.27-6.45-29.25l17.08,15.45,3.58-5.36,11.02,10.2,29.25,27.07-40.97,10.93c-1.81-13.47-4.31-26.33-7.45-28.09Z"/><path class="cls-24" d="M-72.63,111.15S6.22,184.53,6.97,200.03s-96.83,41.15-96.83,41.15l-6.46-48.82,46-12.27-44.71-41.39,22.39-27.56Z"/></g><g class="cls-4"><path class="cls-12" d="M258.17,244.16c15.53-4.22,94.87-26.46,94.19-40.44-.68-14.05-65.53-75.65-77.66-87.06l3.22-4.84-65.98-50.07c-10.78,1.7-23.28,2.57-36.02,2.91v-30.72h0c35.46-.86,68.02-4.03,83.72-10.86.92-2.77,1.05-7.82.55-14.48,3.05,1.19,6.37,1.87,9.84,1.87,14.98,0,27.13-12.15,27.13-27.13s-12.15-27.13-27.13-27.13c-6.53,0-12.53,2.31-17.21,6.16-9.09-44.02-24.01-97.54-31.82-113.17-32.2-6.44-109.48-6.44-148.12,6.44-7.08,19.47-15.3,66.24-20.42,106.6-4.66-3.77-10.58-6.03-17.04-6.03-14.98,0-27.13,12.15-27.13,27.13s12.15,27.13,27.13,27.13c4.53,0,8.79-1.13,12.55-3.09-.5,8.44-.6,15.17-.16,19.24,11.13,3.42,44.58,6.47,83.53,7.33h0v30.19c-21-.91-36.49-2.39-36.49-2.39L28.88,111.82l3.18,4.77c-12.65,11.2-81.79,73.04-82.48,87.13-.68,13.98,82.62,36.22,98.92,40.44v.03s4.89,2.22,12.04.98l.82,11.24,30.48,420.17,3.01.16-32.35,14.49h98.75v-10.96l1.81.1-11.85-404.46c1.97.04,3.97.06,6.06.06,1.23,0,2.61-.06,3.88-.08l54.18,404.47,2.26-.12v10.98h98.75l-32.39-14.51,2.6-.14-39.1-431.27c6.17.77,10.33-.96,10.73-1.14ZM65.57,165.74c-2.45.07-4.41.35-5.45.94-3.13,1.76-5.64,14.58-7.44,28.02l-.86-.23s-.02-.02-.03-.02c0,0-.02,0-.03,0l-39.94-10.62c0-.08-.03-.15-.03-.23l40.21-37.11,3.58,5.37,15.64-14.15c-2.06,9.42-3.94,18.87-5.64,28.03ZM246.65,166.61c-1.13-.63-3.31-.92-6.05-.95-2.15-10.53-4.32-20.27-6.45-29.25l17.08,15.45,3.58-5.36,11.02,10.2,29.25,27.07-40.97,10.93c-1.81-13.47-4.31-26.33-7.45-28.09Z"/><rect class="cls-24" x="135.96" y="21.02" width="44.57" height="68.45"/><path class="cls-5" d="M180.54,39.46v-18.44h-44.57v29.73c20.98-.14,36.06-6.42,44.57-11.3Z"/><circle class="cls-24" cx="274.28" cy="-20.32" r="27.13"/><path class="cls-24" d="M77.12-148.02c38.64-12.88,115.92-12.88,148.12-6.44C238.12-128.7,270.32.1,263.88,19.42c-39.35,17.11-186.63,11.29-211.82,3.54-2.58-23.9,12.92-137.59,25.06-170.98Z"/><polygon class="cls-25" points="64.62 234.21 96.44 672.89 167.66 676.67 155.79 271.33 165.64 271.33 219.94 676.67 291.16 672.89 251.38 234.21 64.62 234.21"/><path class="cls-5" d="M251.38,234.21H64.62l1.34,18.51c65.63.57,167.26-8.52,186.16-10.27l-.75-8.24Z"/><path class="cls-18" d="M116.2,266.97s42.89,9.22,103.1-1.32"/><path class="cls-24" d="M277.37,111.15s78.85,73.38,79.6,88.88-96.83,41.15-96.83,41.15l-6.46-48.82,46-12.27-44.71-41.39,22.39-27.56Z"/><path class="cls-5" d="M283.12,116.57c-3.58-3.4-5.75-5.42-5.75-5.42l-22.39,27.56,15.46,14.31c6.63-10.65,10.61-26.22,12.68-36.45Z"/><polygon class="cls-13" points="216.55 58.07 282.53 108.14 255.84 148.18 228.71 123.64 216.55 58.07"/><path class="cls-24" d="M38.66,111.15s-83.71,73.38-84.47,88.88c-.76,15.5,101.69,41.15,101.69,41.15l6.46-48.82-46.13-12.27,44.84-41.39-22.39-27.56Z"/><path class="cls-5" d="M46.93,151.74l14.12-13.03-22.39-27.56s-1.38,1.21-3.77,3.33c2.67,10.6,7.07,26.34,12.04,37.25Z"/><path class="cls-18" d="M14.92,180.09s-9.1-2.27-16.1,0"/><polygon class="cls-13" points="99.47 58.07 33.49 108.14 60.19 148.18 87.31 123.64 99.47 58.07"/><path class="cls-9" d="M99.42,75.11s-42.4,27.23-56.88,41.02l17.58,28.61,31.02-24.13,8.27-45.5Z"/><path class="cls-25" d="M99.47,58.07s72.94,6.97,117.08,0c0,0,26.02,63.18,41.35,180.25H58.6s14.35-127.36,40.87-180.25Z"/><path class="cls-24" d="M262.03,224.07s-3.88-57.27-10.76-61.14c-6.89-3.88-50.41,4.3-51.24,14.21-.43,5.17,35.74,5.17,35.74,5.17,0,0-30.57,4.72-30.57,12.06,0,3.88,31.86,4.31,31.86,4.31,0,0-1.29,37.46,8.61,41.33,9.9,3.88,17.22.43,17.22.43l-.86-16.36Z"/><path class="cls-24" d="M53.97,224.14s3.88-57.27,10.76-61.14c6.89-3.88,50.41,4.3,51.24,14.21.43,5.17-35.74,5.17-35.74,5.17,0,0,30.57,4.72,30.57,12.06,0,3.88-31.86,4.31-31.86,4.31,0,0,1.29,37.46-8.61,41.33-9.9,3.88-17.22.43-17.22.43l.86-16.36Z"/><circle class="cls-24" cx="39.67" cy="-20.32" r="27.13"/><path class="cls-17" d="M132.77,64.4s10.7,4.94,25.51,4.94"/><path class="cls-18" d="M56.1,192.35s-3.98,21.02-.57,38.64"/><path class="cls-18" d="M260.09,192.92s2.84,21.59,1.14,35.8"/></g><polygon class="cls-28" points="216.55 58.07 282.53 108.14 255.84 148.18 228.71 123.64 216.55 58.07"/><polygon class="cls-28" points="99.47 58.07 33.49 108.14 60.19 148.18 87.31 123.64 99.47 58.07"/><path class="cls-7" d="M99.42,75.11s-42.4,27.23-56.88,41.02l17.58,28.61,31.02-24.13,8.27-45.5Z"/><path class="cls-10" d="M115.97,177.2c.43,5.17-35.74,5.17-35.74,5.17,0,0,30.57,4.72,30.57,12.06,0,3.88-31.86,4.31-31.86,4.31,0,0,1.07,31.18-6.27,39.58h170.71c-7.41-8.29-6.33-39.65-6.33-39.65,0,0-31.86-.43-31.86-4.31,0-7.33,30.57-12.06,30.57-12.06,0,0-36.17,0-35.74-5.17.69-8.27,31.14-15.33,45.18-15.18-13.85-67.91-28.66-103.89-28.66-103.89-44.13,6.97-117.08,0-117.08,0-12.58,25.08-22.41,66.91-29.28,103.96,13.76-.36,45.08,6.78,45.78,15.18Z"/><path class="cls-15" d="M132.77,64.4s10.7,4.94,25.51,4.94"/><g class="cls-22"><polyline class="cls-3" points="129.39 125.97 129.39 104.64 123.78 109.67 120.8 106.78 129.67 98.56 145.13 98.56 145.13 125.97 149.91 125.97 149.91 128.73 124.61 128.73 124.61 125.97 129.39 125.97"/><polyline class="cls-16" points="175.43 108.75 175.43 127.56 159.69 127.56 159.69 108.75"/><rect class="cls-16" x="182.12" y="108.75" width="12.48" height="9.41"/><line class="cls-16" x1="182.12" y1="118.15" x2="182.12" y2="127.56"/><circle class="cls-12" cx="157.7" cy="165.25" r="32.56"/><path class="cls-23" d="M141.23,161.19h32.93v23.04c0,1.85-1.5,3.35-3.35,3.35h-26.23c-1.85,0-3.35-1.5-3.35-3.35v-23.04h0Z"/><polygon class="cls-12" points="141.23 174.21 141.23 161.19 174.16 161.19 174.16 172.75 141.23 174.21"/><line class="cls-18" x1="151.73" y1="169.34" x2="151.73" y2="177.47"/><line class="cls-18" x1="163.67" y1="169.34" x2="163.67" y2="177.47"/><path class="cls-19" d="M161.2,143.89c4.74,2.89,13.48,9.01,20.97,18.67,2.93,3.78-.15,9.03-5.21,9.03h-38.52c-5.05,0-8.14-5.25-5.21-9.03,7.49-9.66,16.23-15.78,20.97-18.67,2.13-1.3,4.86-1.3,7,0Z"/><path class="cls-6" d="M161.2,145.82c4.74,2.89,13.48,9.01,20.97,18.67,2.93,3.78-.15,9.03-5.21,9.03h-38.52c-5.05,0-8.14-5.25-5.21-9.03,7.49-9.66,16.23-15.78,20.97-18.67,2.13-1.3,4.86-1.3,7,0Z"/><g class="cls-1"><circle class="cls-28" cx="146.78" cy="171.58" r="10.39"/><circle class="cls-28" cx="169.42" cy="152.94" r="10.25"/><circle class="cls-28" cx="146.78" cy="149.96" r="5.29"/></g></g><g class="cls-2"><path class="cls-12" d="M608.17,244.16c15.53-4.22,94.87-26.46,94.19-40.44-.68-14.05-65.53-75.65-77.66-87.06l3.22-4.84-65.98-50.07c-10.78,1.7-23.28,2.57-36.02,2.91v-30.72h0c35.46-.86,68.02-4.03,83.72-10.86.92-2.77,1.05-7.82.55-14.48,3.05,1.19,6.37,1.87,9.84,1.87,14.98,0,27.13-12.15,27.13-27.13s-12.15-27.13-27.13-27.13c-6.53,0-12.53,2.31-17.21,6.16-9.09-44.02-24.01-97.54-31.82-113.17-32.2-6.44-109.48-6.44-148.12,6.44-7.08,19.47-15.3,66.24-20.42,106.6-4.66-3.77-10.58-6.03-17.04-6.03-14.98,0-27.13,12.15-27.13,27.13s12.15,27.13,27.13,27.13c4.53,0,8.79-1.13,12.55-3.09-.5,8.44-.6,15.17-.16,19.24,11.13,3.42,44.58,6.47,83.53,7.33h0v30.19c-21-.91-36.49-2.39-36.49-2.39l-65.98,50.07,3.18,4.77c-12.65,11.2-81.79,73.04-82.48,87.13-.68,13.98,82.62,36.22,98.92,40.44v.03s4.89,2.22,12.04.98l.82,11.24,30.48,420.17,3.01.16-32.35,14.49h98.75v-10.96l1.81.1-11.85-404.46c1.97.04,3.97.06,6.06.06,1.23,0,2.61-.06,3.88-.08l54.18,404.47,2.26-.12v10.98h98.75l-32.39-14.51,2.6-.14-39.1-431.27c6.17.77,10.33-.96,10.73-1.14ZM415.57,165.74c-2.45.07-4.41.35-5.45.94-3.13,1.76-5.64,14.58-7.44,28.02l-.86-.23s-.02-.02-.03-.02c0,0-.02,0-.03,0l-39.94-10.62c0-.08-.03-.15-.03-.23l40.21-37.11,3.58,5.37,15.64-14.15c-2.06,9.42-3.94,18.87-5.64,28.03ZM596.65,166.61c-1.13-.63-3.31-.92-6.05-.95-2.15-10.53-4.32-20.27-6.45-29.25l17.08,15.45,3.58-5.36,11.02,10.2,29.25,27.07-40.97,10.93c-1.81-13.47-4.31-26.33-7.45-28.09Z"/></g></g></g></svg>