<?xml version="1.0" encoding="UTF-8"?><svg xmlns="http://www.w3.org/2000/svg" xmlns:xlink="http://www.w3.org/1999/xlink" viewBox="0 0 300 300"><defs><style>.cls-1{fill:#282659;}.cls-2{fill:#1d1061;}.cls-3,.cls-4{fill:none;}.cls-5{fill:url(#_40_10_ppp-5);}.cls-5,.cls-6,.cls-7,.cls-8,.cls-9{mix-blend-mode:multiply;opacity:.05;}.cls-10{clip-path:url(#clippath-1);}.cls-11{isolation:isolate;}.cls-6{fill:url(#_40_10_ppp-4);}.cls-7{fill:url(#_40_10_ppp-3);}.cls-12{fill:#f2f0ec;}.cls-4{stroke:#1d1061;stroke-linecap:round;stroke-linejoin:round;stroke-width:2px;}.cls-8{fill:url(#_40_10_ppp_4);}.cls-13{fill:#a5a5a5;}.cls-9{fill:url(#_40_10_ppp-2);}.cls-14{fill:url(#_40_10_ppp);mix-blend-mode:overlay;opacity:.25;}.cls-15{fill:#7a7a7a;}.cls-16{clip-path:url(#clippath);}.cls-17{fill:url(#Dégradé_sans_nom_8);}.cls-18{opacity:.5;}.cls-19{fill:#fdfdfd;}.cls-20{fill:#6a90c6;}</style><clipPath id="clippath"><rect class="cls-3" x="10" y="10" width="280" height="280" rx="20" ry="20"/></clipPath><pattern id="_40_10_ppp_4" x="0" y="0" width="11.34" height="11.34" patternTransform="translate(7261.76 8914.33) scale(2)" patternUnits="userSpaceOnUse" viewBox="0 0 11.34 11.34"><rect class="cls-3" x="0" width="11.34" height="11.34"/><circle class="cls-1" cx="9.7" cy="9.69" r="1.2"/><circle class="cls-1" cx="4.03" cy="9.69" r="1.2"/><path class="cls-1" d="M9.7,5.22c.66,0,1.2-.54,1.2-1.2s-.54-1.2-1.2-1.2-1.2.54-1.2,1.2.54,1.2,1.2,1.2Z"/><path class="cls-1" d="M4.03,5.22c.66,0,1.2-.54,1.2-1.2s-.54-1.2-1.2-1.2-1.2.54-1.2,1.2.54,1.2,1.2,1.2Z"/><path class="cls-1" d="M1.2,8.06c.66,0,1.2-.54,1.2-1.2s-.54-1.2-1.2-1.2S0,6.2,0,6.86s.54,1.2,1.2,1.2Z"/><circle class="cls-1" cx="6.86" cy="6.86" r="1.2"/><path class="cls-1" d="M1.2,2.39c.66,0,1.2-.54,1.2-1.2S1.86,0,1.2,0,0,.54,0,1.2s.54,1.2,1.2,1.2Z"/><circle class="cls-1" cx="6.86" cy="1.2" r="1.2"/></pattern><linearGradient id="Dégradé_sans_nom_8" x1="150" y1="300" x2="150" y2="8.88" gradientUnits="userSpaceOnUse"><stop offset="0" stop-color="#f2f0ec" stop-opacity="0"/><stop offset="1" stop-color="#f2f0ec"/></linearGradient><clipPath id="clippath-1"><rect class="cls-3" x="10" y="10" width="280" height="280" rx="20" ry="20"/></clipPath><pattern id="_40_10_ppp" x="0" y="0" width="10" height="10" patternTransform="translate(6858.93 7375.86) scale(2)" patternUnits="userSpaceOnUse" viewBox="0 0 10 10"><rect class="cls-3" width="10" height="10"/><circle class="cls-2" cx="8.95" cy="8.95" r="1.05"/><circle class="cls-2" cx="3.68" cy="8.95" r="1.05"/><path class="cls-2" d="M8.95,4.74c.58,0,1.05-.47,1.05-1.05s-.47-1.05-1.05-1.05-1.05.47-1.05,1.05.47,1.05,1.05,1.05Z"/><path class="cls-2" d="M3.68,4.74c.58,0,1.05-.47,1.05-1.05s-.47-1.05-1.05-1.05-1.05.47-1.05,1.05.47,1.05,1.05,1.05Z"/><path class="cls-2" d="M1.05,7.37c.58,0,1.05-.47,1.05-1.05s-.47-1.05-1.05-1.05S0,5.73,0,6.32s.47,1.05,1.05,1.05Z"/><circle class="cls-2" cx="6.32" cy="6.32" r="1.05"/><path class="cls-2" d="M1.05,2.11c.58,0,1.05-.47,1.05-1.05S1.63,0,1.05,0,0,.47,0,1.05s.47,1.05,1.05,1.05Z"/><circle class="cls-2" cx="6.32" cy="1.05" r="1.05"/></pattern><pattern id="_40_10_ppp-2" patternTransform="translate(6900.93 7375.86) scale(2)" xlink:href="#_40_10_ppp"/><pattern id="_40_10_ppp-3" patternTransform="translate(6900.93 7375.86) scale(2)" xlink:href="#_40_10_ppp"/><pattern id="_40_10_ppp-4" patternTransform="translate(6900.93 7375.86) scale(2)" xlink:href="#_40_10_ppp"/><pattern id="_40_10_ppp-5" patternTransform="translate(6900.93 7375.86) scale(2)" xlink:href="#_40_10_ppp"/></defs><g class="cls-11"><g id="Calque_25"><rect class="cls-12" x="10" y="10" width="280" height="280" rx="20" ry="20"/><g class="cls-16"><rect class="cls-8" y="0" width="300" height="300"/><rect class="cls-17" x="0" y="0" width="300" height="300"/></g></g><g id="BG_-_copie_4"><g class="cls-18"><g class="cls-10"><polygon class="cls-2" points="-77.13 255.92 -77.13 279.43 160.72 279.43 160.72 308.14 62.91 308.14 62.91 391.63 160.72 391.63 160.72 514.25 262.22 514.25 262.22 279.43 277.8 279.43 277.8 255.92 -77.13 255.92"/><rect class="cls-15" x="-73.12" y="254.06" width="354.93" height="23.5"/><rect class="cls-13" x="164.73" y="277.56" width="101.5" height="234.82"/><polygon class="cls-14" points="158.19 280.83 158.19 308.77 55.19 308.77 55.19 392.26 158.19 392.26 158.19 515.65 189.54 515.65 243.33 280.83 158.19 280.83"/><rect class="cls-13" x="-67.19" y="277.56" width="137.82" height="234.82"/><line class="cls-4" x1="248.78" y1="502.19" x2="248.78" y2="285.61"/><polygon class="cls-2" points="266.24 277.56 266.24 281.65 248.78 281.65 164.73 295.89 164.73 277.56 266.24 277.56"/><polygon class="cls-2" points="70.63 277.56 70.63 281.8 -67.19 287.45 -67.19 277.56 70.63 277.56"/></g></g></g><g id="ZONE_1_A_-_copie"><rect class="cls-2" x="115.74" y="141.75" width="133.94" height="115.47"/><rect class="cls-13" x="119.01" y="138.48" width="133.94" height="115.47"/><polygon class="cls-2" points="119.01 253.95 172.95 253.95 124.95 138.48 119.01 138.48 119.01 253.95"/><rect class="cls-9" x="115.74" y="141.75" width="83.9" height="115.47"/><rect class="cls-19" x="202.92" y="138.48" width="50.04" height="115.47"/><rect class="cls-4" x="211" y="150.8" width="37.33" height="11.93"/><rect class="cls-4" x="211" y="171.97" width="37.33" height="11.93"/><rect class="cls-7" x="213.1" y="152.78" width="37.33" height="11.93"/><rect class="cls-6" x="213.1" y="173.94" width="37.33" height="11.93"/><polygon class="cls-2" points="190.41 233.55 190.41 106.03 44.54 106.03 35.85 106.03 35.85 233.55 44.54 233.55 100.73 233.55 100.73 251.06 100.73 257.22 143.45 257.22 161.16 257.22 161.16 251.06 143.45 251.06 143.45 233.55 190.41 233.55"/><rect class="cls-19" x="39.13" y="102.76" width="154.55" height="127.52"/><rect class="cls-13" x="39.13" y="102.76" width="8.68" height="127.52"/><rect class="cls-5" x="36.24" y="104.68" width="8.68" height="127.52"/><rect class="cls-20" x="58.2" y="111.54" width="125.86" height="111.62"/><line class="cls-4" x1="47.81" y1="225.47" x2="47.81" y2="106.54"/><rect class="cls-13" x="104" y="230.28" width="42.72" height="23.67"/><polygon class="cls-2" points="146.72 234.32 104 237.59 104 230.28 146.72 230.28 146.72 234.32"/><rect class="cls-19" x="104" y="247.79" width="60.43" height="6.16"/></g></g></svg>