<?xml version="1.0" encoding="UTF-8"?><svg xmlns="http://www.w3.org/2000/svg" xmlns:xlink="http://www.w3.org/1999/xlink" viewBox="0 0 300 300"><defs><style>.cls-1{fill:#ffcb57;}.cls-2{fill:url(#_40_10_ppp-8);}.cls-2,.cls-3,.cls-4,.cls-5,.cls-6,.cls-7,.cls-8,.cls-9,.cls-10{mix-blend-mode:overlay;opacity:.25;}.cls-3{fill:url(#_40_10_ppp-11);}.cls-4{fill:url(#_40_10_ppp-12);}.cls-11{fill:#282659;}.cls-12{fill:#1d1061;}.cls-13,.cls-14,.cls-15,.cls-16{fill:none;}.cls-17{clip-path:url(#clippath-1);}.cls-5{fill:url(#_40_10_ppp-10);}.cls-6{fill:url(#_40_10_ppp-3);}.cls-18{isolation:isolate;}.cls-19{fill:url(#_40_10_ppp-6);}.cls-19,.cls-20,.cls-21{opacity:.1;}.cls-19,.cls-20,.cls-21,.cls-22{mix-blend-mode:multiply;}.cls-14{stroke:#f2f0ec;}.cls-14,.cls-15,.cls-16{stroke-linecap:round;stroke-linejoin:round;stroke-width:2px;}.cls-7{fill:url(#_40_10_ppp-5);}.cls-23{clip-path:url(#clippath-3);}.cls-15{stroke:#ffac5a;}.cls-24{fill:#f2f0ec;}.cls-20{fill:url(#_40_10_ppp);}.cls-21{fill:url(#_40_10_ppp-2);}.cls-8{fill:url(#_40_10_ppp-9);}.cls-16{stroke:#1d1061;}.cls-22{fill:url(#_40_10_ppp_4);opacity:.05;}.cls-25{fill:#a5a5a5;}.cls-26{clip-path:url(#clippath-2);}.cls-9{fill:url(#_40_10_ppp-4);}.cls-10{fill:url(#_40_10_ppp-7);}.cls-27{fill:#7a7a7a;}.cls-28{clip-path:url(#clippath);}.cls-29{fill:url(#Dégradé_sans_nom_8);}.cls-30{opacity:.5;}.cls-31{fill:#6a90c6;}</style><clipPath id="clippath"><rect class="cls-13" x="10" y="10" width="280" height="280" rx="20" ry="20"/></clipPath><pattern id="_40_10_ppp_4" x="0" y="0" width="11.34" height="11.34" patternTransform="translate(8146.17 8258.2) scale(2)" patternUnits="userSpaceOnUse" viewBox="0 0 11.34 11.34"><rect class="cls-13" x="0" width="11.34" height="11.34"/><circle class="cls-11" cx="9.7" cy="9.69" r="1.2"/><circle class="cls-11" cx="4.03" cy="9.69" r="1.2"/><path class="cls-11" d="M9.7,5.22c.66,0,1.2-.54,1.2-1.2s-.54-1.2-1.2-1.2-1.2.54-1.2,1.2.54,1.2,1.2,1.2Z"/><path class="cls-11" d="M4.03,5.22c.66,0,1.2-.54,1.2-1.2s-.54-1.2-1.2-1.2-1.2.54-1.2,1.2.54,1.2,1.2,1.2Z"/><path class="cls-11" d="M1.2,8.06c.66,0,1.2-.54,1.2-1.2s-.54-1.2-1.2-1.2S0,6.2,0,6.86s.54,1.2,1.2,1.2Z"/><circle class="cls-11" cx="6.86" cy="6.86" r="1.2"/><path class="cls-11" d="M1.2,2.39c.66,0,1.2-.54,1.2-1.2S1.86,0,1.2,0,0,.54,0,1.2s.54,1.2,1.2,1.2Z"/><circle class="cls-11" cx="6.86" cy="1.2" r="1.2"/></pattern><linearGradient id="Dégradé_sans_nom_8" x1="150" y1="300" x2="150" y2="8.88" gradientUnits="userSpaceOnUse"><stop offset="0" stop-color="#f2f0ec" stop-opacity="0"/><stop offset="1" stop-color="#f2f0ec"/></linearGradient><clipPath id="clippath-1"><rect class="cls-13" x="360" y="-375.41" width="280" height="280" rx="20" ry="20"/></clipPath><pattern id="_40_10_ppp" x="0" y="0" width="10" height="10" patternTransform="translate(7748.93 6990.45) scale(2)" patternUnits="userSpaceOnUse" viewBox="0 0 10 10"><rect class="cls-13" width="10" height="10"/><circle class="cls-12" cx="8.95" cy="8.95" r="1.05"/><circle class="cls-12" cx="3.68" cy="8.95" r="1.05"/><path class="cls-12" d="M8.95,4.74c.58,0,1.05-.47,1.05-1.05s-.47-1.05-1.05-1.05-1.05.47-1.05,1.05.47,1.05,1.05,1.05Z"/><path class="cls-12" d="M3.68,4.74c.58,0,1.05-.47,1.05-1.05s-.47-1.05-1.05-1.05-1.05.47-1.05,1.05.47,1.05,1.05,1.05Z"/><path class="cls-12" d="M1.05,7.37c.58,0,1.05-.47,1.05-1.05s-.47-1.05-1.05-1.05S0,5.73,0,6.32s.47,1.05,1.05,1.05Z"/><circle class="cls-12" cx="6.32" cy="6.32" r="1.05"/><path class="cls-12" d="M1.05,2.11c.58,0,1.05-.47,1.05-1.05S1.63,0,1.05,0,0,.47,0,1.05s.47,1.05,1.05,1.05Z"/><circle class="cls-12" cx="6.32" cy="1.05" r="1.05"/></pattern><clipPath id="clippath-2"><rect class="cls-13" x="10" y="-375.41" width="280" height="280" rx="20" ry="20"/></clipPath><pattern id="_40_10_ppp-2" patternTransform="translate(7758.93 6730.45) scale(2)" xlink:href="#_40_10_ppp"/><pattern id="_40_10_ppp-3" patternTransform="translate(7758.93 6730.45) scale(2)" xlink:href="#_40_10_ppp"/><pattern id="_40_10_ppp-4" patternTransform="translate(7758.93 6730.45) scale(2)" xlink:href="#_40_10_ppp"/><pattern id="_40_10_ppp-5" patternTransform="translate(7758.93 6730.45) scale(2)" xlink:href="#_40_10_ppp"/><clipPath id="clippath-3"><rect class="cls-13" x="10" y="10" width="280" height="280" rx="20" ry="20"/></clipPath><pattern id="_40_10_ppp-6" patternTransform="translate(7784.76 6937.44) scale(2)" xlink:href="#_40_10_ppp"/><pattern id="_40_10_ppp-7" patternTransform="translate(7784.76 6937.44) scale(2)" xlink:href="#_40_10_ppp"/><pattern id="_40_10_ppp-8" patternTransform="translate(7784.76 6937.44) scale(2)" xlink:href="#_40_10_ppp"/><pattern id="_40_10_ppp-9" patternTransform="translate(7784.76 6937.44) scale(2)" xlink:href="#_40_10_ppp"/><pattern id="_40_10_ppp-10" patternTransform="translate(7784.76 6937.44) scale(2)" xlink:href="#_40_10_ppp"/><pattern id="_40_10_ppp-11" patternTransform="translate(7784.76 6937.44) scale(2)" xlink:href="#_40_10_ppp"/><pattern id="_40_10_ppp-12" patternTransform="translate(7796.76 6957.44) scale(2)" xlink:href="#_40_10_ppp"/></defs><g class="cls-18"><g id="Calque_25"><rect class="cls-24" x="10" y="10" width="280" height="280" rx="20" ry="20"/><g class="cls-28"><rect class="cls-22" y="0" width="300" height="300"/><rect class="cls-29" x="0" y="0" width="300" height="300"/></g></g><g id="BG_-_copie_4"><g class="cls-30"><g class="cls-17"><polygon class="cls-12" points="272.87 -129.49 272.87 -105.98 510.72 -105.98 510.72 -77.27 412.91 -77.27 412.91 6.22 510.72 6.22 510.72 128.84 612.22 128.84 612.22 -105.98 627.8 -105.98 627.8 -129.49 272.87 -129.49"/><path class="cls-20" d="M631.81,126.04c0,8.25-82.8,8.25-184.94,8.25s-184.94-3.69-184.94-8.25,82.8-8.25,184.94-8.25,184.94,0,184.94,8.25Z"/><rect class="cls-25" x="282.81" y="-107.85" width="137.82" height="234.82"/><line class="cls-16" x1="288.36" y1="51.7" x2="415.07" y2="51.7"/></g></g><g class="cls-30"><g class="cls-26"><polygon class="cls-12" points="-77.13 -129.49 -77.13 -105.98 160.72 -105.98 160.72 -77.27 62.91 -77.27 62.91 6.22 160.72 6.22 160.72 128.84 262.22 128.84 262.22 -105.98 277.8 -105.98 277.8 -129.49 -77.13 -129.49"/><path class="cls-21" d="M281.81,126.04c0,8.25-82.8,8.25-184.94,8.25s-184.94-3.69-184.94-8.25,82.8-8.25,184.94-8.25,184.94,0,184.94,8.25Z"/><rect class="cls-25" x="164.73" y="-107.85" width="101.5" height="234.82"/><rect class="cls-27" x="61.74" y="-79.91" width="122.26" height="83.49"/><polygon class="cls-6" points="158.19 -104.58 158.19 -76.64 55.19 -76.64 55.19 6.85 158.19 6.85 158.19 130.24 189.54 130.24 243.33 -104.58 158.19 -104.58"/><rect class="cls-25" x="-67.19" y="-107.85" width="137.82" height="234.82"/><line class="cls-16" x1="-61.64" y1="51.7" x2="65.07" y2="51.7"/><circle class="cls-9" cx="-1.55" cy="15.94" r="8.24"/><circle class="cls-27" cx="1.72" cy="12.67" r="8.24"/><circle class="cls-7" cx="-1.55" cy="94.69" r="8.24"/><circle class="cls-27" cx="1.72" cy="91.41" r="8.24"/><line class="cls-16" x1="248.78" y1="116.78" x2="248.78" y2="-99.8"/></g></g></g><g id="BG_-_copie_5"><g class="cls-30"><g class="cls-23"><polygon class="cls-12" points="-11.3 -42.5 -11.3 -19 226.55 -19 226.55 9.71 128.74 9.71 128.74 93.2 226.55 93.2 226.55 215.82 328.05 215.82 328.05 -19 343.62 -19 343.62 -42.5 -11.3 -42.5"/><path class="cls-19" d="M347.64,213.02c0,8.25-82.8,8.25-184.94,8.25s-184.94-3.69-184.94-8.25,82.8-8.25,184.94-8.25,184.94,0,184.94,8.25Z"/><rect class="cls-25" x="230.56" y="-20.87" width="101.5" height="234.82"/><rect class="cls-27" x="127.57" y="7.07" width="122.26" height="83.49"/><polygon class="cls-10" points="224.02 -17.6 224.02 10.35 121.02 10.35 121.02 93.83 224.02 93.83 224.02 217.23 255.37 217.23 309.16 -17.6 224.02 -17.6"/><rect class="cls-25" x="-1.36" y="-20.87" width="137.82" height="234.82"/><line class="cls-16" x1="4.19" y1="58.51" x2="130.9" y2="58.51"/><line class="cls-16" x1="4.19" y1="138.69" x2="130.9" y2="138.69"/><circle class="cls-2" cx="64.28" cy="24.17" r="8.24"/><circle class="cls-27" cx="67.55" cy="20.9" r="8.24"/><circle class="cls-8" cx="64.28" cy="102.92" r="8.24"/><circle class="cls-27" cx="67.55" cy="99.65" r="8.24"/><circle class="cls-5" cx="64.28" cy="181.67" r="8.24"/><circle class="cls-27" cx="67.55" cy="178.4" r="8.24"/></g></g></g><g id="ZONE_1_B_-_copie"><ellipse class="cls-31" cx="141.89" cy="261.73" rx="24.05" ry="3.85"/><ellipse class="cls-3" cx="143.89" cy="262.73" rx="24.05" ry="3.85"/><circle class="cls-12" cx="140.38" cy="235.4" r="29.25"/><circle class="cls-1" cx="143.38" cy="234.4" r="29.25"/><circle class="cls-4" cx="148.53" cy="237.67" r="22.22"/><path class="cls-14" d="M162.13,214.48c1.9,8.24-29.48,1.22-28.85,19.92.63,18.7,28.59,14.02,28.85,18.12"/><line class="cls-15" x1="148.53" y1="203.14" x2="147.75" y2="207.63"/><line class="cls-15" x1="142.08" y1="204.12" x2="142.08" y2="206.65"/><line class="cls-15" x1="112.32" y1="231.35" x2="116.11" y2="231.35"/><line class="cls-15" x1="112.88" y1="234.4" x2="115.55" y2="234.4"/><line class="cls-15" x1="123.69" y1="257.88" x2="125.51" y2="256.2"/><line class="cls-15" x1="151.9" y1="238.79" x2="153.45" y2="239.5"/><line class="cls-15" x1="163.27" y1="226.72" x2="165.94" y2="226.72"/><line class="cls-15" x1="162.22" y1="225.04" x2="163.97" y2="224.2"/></g></g></svg>