<?xml version="1.0" encoding="UTF-8"?><svg xmlns="http://www.w3.org/2000/svg" xmlns:xlink="http://www.w3.org/1999/xlink" viewBox="0 0 300 300"><defs><style>.cls-1{fill:#ffcb57;}.cls-2{fill:url(#_40_10_ppp-2);}.cls-2,.cls-3{mix-blend-mode:multiply;}.cls-2,.cls-4{opacity:.25;}.cls-5{fill:#cecece;}.cls-6{fill:#282659;}.cls-7{fill:#1d1061;}.cls-8,.cls-9{fill:none;}.cls-10{clip-path:url(#clippath-1);}.cls-11{isolation:isolate;}.cls-12{fill:#f2f0ec;}.cls-9{stroke:#1d1061;stroke-linecap:round;stroke-linejoin:round;stroke-width:2px;}.cls-3{fill:url(#_40_10_ppp_4);opacity:.05;}.cls-13{fill:#a5a5a5;}.cls-14{clip-path:url(#clippath-2);}.cls-4{fill:url(#_40_10_ppp);mix-blend-mode:overlay;}.cls-15{fill:#7a7a7a;}.cls-16{clip-path:url(#clippath);}.cls-17{fill:url(#Dégradé_sans_nom_8);}.cls-18{opacity:.5;}.cls-19{fill:#fdfdfd;}.cls-20{fill:#6a90c6;}</style><clipPath id="clippath"><rect class="cls-8" x="10" y="10" width="280" height="280" rx="20" ry="20"/></clipPath><pattern id="_40_10_ppp_4" x="0" y="0" width="11.34" height="11.34" patternTransform="translate(7806.01 8914.33) scale(2)" patternUnits="userSpaceOnUse" viewBox="0 0 11.34 11.34"><rect class="cls-8" x="0" width="11.34" height="11.34"/><circle class="cls-6" cx="9.7" cy="9.69" r="1.2"/><circle class="cls-6" cx="4.03" cy="9.69" r="1.2"/><path class="cls-6" d="M9.7,5.22c.66,0,1.2-.54,1.2-1.2s-.54-1.2-1.2-1.2-1.2.54-1.2,1.2.54,1.2,1.2,1.2Z"/><path class="cls-6" d="M4.03,5.22c.66,0,1.2-.54,1.2-1.2s-.54-1.2-1.2-1.2-1.2.54-1.2,1.2.54,1.2,1.2,1.2Z"/><path class="cls-6" d="M1.2,8.06c.66,0,1.2-.54,1.2-1.2s-.54-1.2-1.2-1.2S0,6.2,0,6.86s.54,1.2,1.2,1.2Z"/><circle class="cls-6" cx="6.86" cy="6.86" r="1.2"/><path class="cls-6" d="M1.2,2.39c.66,0,1.2-.54,1.2-1.2S1.86,0,1.2,0,0,.54,0,1.2s.54,1.2,1.2,1.2Z"/><circle class="cls-6" cx="6.86" cy="1.2" r="1.2"/></pattern><linearGradient id="Dégradé_sans_nom_8" x1="150" y1="300" x2="150" y2="8.88" gradientUnits="userSpaceOnUse"><stop offset="0" stop-color="#f2f0ec" stop-opacity="0"/><stop offset="1" stop-color="#f2f0ec"/></linearGradient><clipPath id="clippath-1"><rect class="cls-8" x="360" y="10" width="280" height="280" rx="20" ry="20"/></clipPath><clipPath id="clippath-2"><rect class="cls-8" x="10" y="10" width="280" height="280" rx="20" ry="20"/></clipPath><pattern id="_40_10_ppp" x="0" y="0" width="10" height="10" patternTransform="translate(7398.93 7375.86) scale(2)" patternUnits="userSpaceOnUse" viewBox="0 0 10 10"><rect class="cls-8" width="10" height="10"/><circle class="cls-7" cx="8.95" cy="8.95" r="1.05"/><circle class="cls-7" cx="3.68" cy="8.95" r="1.05"/><path class="cls-7" d="M8.95,4.74c.58,0,1.05-.47,1.05-1.05s-.47-1.05-1.05-1.05-1.05.47-1.05,1.05.47,1.05,1.05,1.05Z"/><path class="cls-7" d="M3.68,4.74c.58,0,1.05-.47,1.05-1.05s-.47-1.05-1.05-1.05-1.05.47-1.05,1.05.47,1.05,1.05,1.05Z"/><path class="cls-7" d="M1.05,7.37c.58,0,1.05-.47,1.05-1.05s-.47-1.05-1.05-1.05S0,5.73,0,6.32s.47,1.05,1.05,1.05Z"/><circle class="cls-7" cx="6.32" cy="6.32" r="1.05"/><path class="cls-7" d="M1.05,2.11c.58,0,1.05-.47,1.05-1.05S1.63,0,1.05,0,0,.47,0,1.05s.47,1.05,1.05,1.05Z"/><circle class="cls-7" cx="6.32" cy="1.05" r="1.05"/></pattern><pattern id="_40_10_ppp-2" patternTransform="translate(-24031.62 7372.46) rotate(-180) scale(2 -2)" xlink:href="#_40_10_ppp"/></defs><g class="cls-11"><g id="Calque_25"><rect class="cls-12" x="10" y="10" width="280" height="280" rx="20" ry="20"/><g class="cls-16"><rect class="cls-3" y="0" width="300" height="300"/><rect class="cls-17" x="0" y="0" width="300" height="300"/></g></g><g id="BG_-_copie_4"><g class="cls-18"><g class="cls-10"><polygon class="cls-7" points="272.87 255.92 272.87 279.43 510.72 279.43 510.72 308.14 412.91 308.14 412.91 391.63 510.72 391.63 510.72 514.25 612.22 514.25 612.22 279.43 627.8 279.43 627.8 255.92 272.87 255.92"/><rect class="cls-15" x="276.88" y="254.06" width="354.93" height="23.5"/><rect class="cls-13" x="282.81" y="277.56" width="137.82" height="234.82"/><polygon class="cls-7" points="420.63 277.56 420.63 281.8 282.81 287.45 282.81 277.56 420.63 277.56"/></g></g><g class="cls-18"><g class="cls-14"><polygon class="cls-7" points="-77.13 255.92 -77.13 279.43 160.72 279.43 160.72 308.14 62.91 308.14 62.91 391.63 160.72 391.63 160.72 514.25 262.22 514.25 262.22 279.43 277.8 279.43 277.8 255.92 -77.13 255.92"/><rect class="cls-15" x="-73.12" y="254.06" width="354.93" height="23.5"/><rect class="cls-13" x="164.73" y="277.56" width="101.5" height="234.82"/><polygon class="cls-4" points="158.19 280.83 158.19 308.77 55.19 308.77 55.19 392.26 158.19 392.26 158.19 515.65 189.54 515.65 243.33 280.83 158.19 280.83"/><rect class="cls-13" x="-67.19" y="277.56" width="137.82" height="234.82"/><line class="cls-9" x1="248.78" y1="502.19" x2="248.78" y2="285.61"/><polygon class="cls-7" points="266.24 277.56 266.24 281.65 248.78 281.65 164.73 295.89 164.73 277.56 266.24 277.56"/><polygon class="cls-7" points="70.63 277.56 70.63 281.8 -67.19 287.45 -67.19 277.56 70.63 277.56"/></g></g></g><g id="ZONE_1_A_-_copie"><path class="cls-1" d="M88.13,248.38h21.93l-10-113.65c-.53-6.06-5.87-10.96-11.93-10.96h0c-6.06,0-10.53,4.91-10,10.96l10,113.65Z"/><rect class="cls-1" x="59.64" y="99.5" width="112.73" height="13.98" rx="1.61" ry="1.61" transform="translate(272.76 91.42) rotate(131.96)"/><path class="cls-1" d="M143.04,78.72l16.65,3.85c3.74.97,7.55-1.27,8.52-5.01h0c.97-3.74-1.27-7.55-5.01-8.52l-16.65-3.85c-3.74-.97-7.55,1.27-8.52,5.01h0c-.97,3.74,1.27,7.55,5.01,8.52Z"/><circle class="cls-7" cx="144.31" cy="72.36" r="1.72"/><circle class="cls-7" cx="87.19" cy="138.03" r="1.72"/><rect class="cls-5" x="46.87" y="242.93" width="107.99" height="10.89" rx="1.26" ry="1.26" transform="translate(201.73 496.75) rotate(180)"/><path class="cls-7" d="M163.42,70.44l-4.25-22,35.23-6.81,4.25,22c1.27,6.59,5.58,12.04,11.4,15.37,14.93,8.54,27.42,25.81,32.88,47.5l-97.18,18.78c-3.01-22.17,2.15-42.84,12.82-56.33,4.16-5.26,6.13-11.92,4.85-18.51Z"/><polygon class="cls-7" points="97.1 244.2 143.45 244.2 124.67 173.26 78.32 173.26 97.1 244.2"/><polygon class="cls-19" points="100.53 242.93 146.88 242.93 128.1 171.99 81.75 171.99 100.53 242.93"/><polygon class="cls-2" points="99 242.93 105.91 242.93 87.13 171.99 80.22 171.99 99 242.93"/><polygon class="cls-20" points="106.96 237.39 142.12 237.39 125.81 175.77 90.64 175.77 106.96 237.39"/><line class="cls-9" x1="110.97" y1="174.21" x2="108.3" y2="174.21"/><line class="cls-9" x1="105.51" y1="174.21" x2="105.15" y2="174.21"/><line class="cls-9" x1="126.82" y1="240.25" x2="124.24" y2="240.25"/></g></g></svg>