<?xml version="1.0" encoding="UTF-8"?><svg xmlns="http://www.w3.org/2000/svg" xmlns:xlink="http://www.w3.org/1999/xlink" viewBox="0 0 300 300"><defs><style>.cls-1{fill:#ffcb57;}.cls-2{fill:url(#_40_10_ppp-2);}.cls-2,.cls-3{mix-blend-mode:multiply;}.cls-2,.cls-4{opacity:.25;}.cls-5{fill:#282659;}.cls-6{fill:#1d1061;}.cls-7,.cls-8{fill:none;}.cls-9{fill:#5cc6a0;}.cls-10{clip-path:url(#clippath-1);}.cls-11{isolation:isolate;}.cls-12{fill:#f2f0ec;}.cls-13{fill:#ff7461;}.cls-8{stroke:#1d1061;stroke-linecap:round;stroke-linejoin:round;stroke-width:2px;}.cls-3{fill:url(#_40_10_ppp_4);opacity:.05;}.cls-14{fill:#a5a5a5;}.cls-15{clip-path:url(#clippath-2);}.cls-4{fill:url(#_40_10_ppp);mix-blend-mode:overlay;}.cls-16{fill:#7a7a7a;}.cls-17{clip-path:url(#clippath);}.cls-18{fill:url(#Dégradé_sans_nom_8);}.cls-19{opacity:.5;}.cls-20{fill:#fdfdfd;}.cls-21{fill:#6a90c6;}</style><clipPath id="clippath"><rect class="cls-7" x="10" y="10" width="280" height="280" rx="20" ry="20"/></clipPath><pattern id="_40_10_ppp_4" x="0" y="0" width="11.34" height="11.34" patternTransform="translate(8168.85 8619.52) scale(2)" patternUnits="userSpaceOnUse" viewBox="0 0 11.34 11.34"><rect class="cls-7" x="0" width="11.34" height="11.34"/><circle class="cls-5" cx="9.7" cy="9.69" r="1.2"/><circle class="cls-5" cx="4.03" cy="9.69" r="1.2"/><path class="cls-5" d="M9.7,5.22c.66,0,1.2-.54,1.2-1.2s-.54-1.2-1.2-1.2-1.2.54-1.2,1.2.54,1.2,1.2,1.2Z"/><path class="cls-5" d="M4.03,5.22c.66,0,1.2-.54,1.2-1.2s-.54-1.2-1.2-1.2-1.2.54-1.2,1.2.54,1.2,1.2,1.2Z"/><path class="cls-5" d="M1.2,8.06c.66,0,1.2-.54,1.2-1.2s-.54-1.2-1.2-1.2S0,6.2,0,6.86s.54,1.2,1.2,1.2Z"/><circle class="cls-5" cx="6.86" cy="6.86" r="1.2"/><path class="cls-5" d="M1.2,2.39c.66,0,1.2-.54,1.2-1.2S1.86,0,1.2,0,0,.54,0,1.2s.54,1.2,1.2,1.2Z"/><circle class="cls-5" cx="6.86" cy="1.2" r="1.2"/></pattern><linearGradient id="Dégradé_sans_nom_8" x1="150" y1="300" x2="150" y2="8.88" gradientUnits="userSpaceOnUse"><stop offset="0" stop-color="#f2f0ec" stop-opacity="0"/><stop offset="1" stop-color="#f2f0ec"/></linearGradient><clipPath id="clippath-1"><rect class="cls-7" x="360" y="10" width="280" height="280" rx="20" ry="20"/></clipPath><clipPath id="clippath-2"><rect class="cls-7" x="10" y="10" width="280" height="280" rx="20" ry="20"/></clipPath><pattern id="_40_10_ppp" x="0" y="0" width="10" height="10" patternTransform="translate(7758.93 7115.87) scale(2)" patternUnits="userSpaceOnUse" viewBox="0 0 10 10"><rect class="cls-7" width="10" height="10"/><circle class="cls-6" cx="8.95" cy="8.95" r="1.05"/><circle class="cls-6" cx="3.68" cy="8.95" r="1.05"/><path class="cls-6" d="M8.95,4.74c.58,0,1.05-.47,1.05-1.05s-.47-1.05-1.05-1.05-1.05.47-1.05,1.05.47,1.05,1.05,1.05Z"/><path class="cls-6" d="M3.68,4.74c.58,0,1.05-.47,1.05-1.05s-.47-1.05-1.05-1.05-1.05.47-1.05,1.05.47,1.05,1.05,1.05Z"/><path class="cls-6" d="M1.05,7.37c.58,0,1.05-.47,1.05-1.05s-.47-1.05-1.05-1.05S0,5.73,0,6.32s.47,1.05,1.05,1.05Z"/><circle class="cls-6" cx="6.32" cy="6.32" r="1.05"/><path class="cls-6" d="M1.05,2.11c.58,0,1.05-.47,1.05-1.05S1.63,0,1.05,0,0,.47,0,1.05s.47,1.05,1.05,1.05Z"/><circle class="cls-6" cx="6.32" cy="1.05" r="1.05"/></pattern><pattern id="_40_10_ppp-2" patternTransform="translate(-23736.99 7114.72) rotate(-180) scale(2 -2)" xlink:href="#_40_10_ppp"/></defs><g class="cls-11"><g id="Calque_25"><rect class="cls-12" x="10" y="10" width="280" height="280" rx="20" ry="20"/><g class="cls-17"><rect class="cls-3" y="0" width="300" height="300"/><rect class="cls-18" x="0" y="0" width="300" height="300"/></g></g><g id="BG_-_copie_4"><g class="cls-19"><g class="cls-10"><polygon class="cls-6" points="272.87 255.92 272.87 279.43 510.72 279.43 510.72 308.14 412.91 308.14 412.91 391.63 510.72 391.63 510.72 514.25 612.22 514.25 612.22 279.43 627.8 279.43 627.8 255.92 272.87 255.92"/><rect class="cls-16" x="276.88" y="254.06" width="354.93" height="23.5"/><rect class="cls-14" x="282.81" y="277.56" width="137.82" height="234.82"/><polygon class="cls-6" points="420.63 277.56 420.63 281.8 282.81 287.45 282.81 277.56 420.63 277.56"/></g></g><g class="cls-19"><g class="cls-15"><polygon class="cls-6" points="-77.13 255.92 -77.13 279.43 160.72 279.43 160.72 308.14 62.91 308.14 62.91 391.63 160.72 391.63 160.72 514.25 262.22 514.25 262.22 279.43 277.8 279.43 277.8 255.92 -77.13 255.92"/><rect class="cls-16" x="-73.12" y="254.06" width="354.93" height="23.5"/><rect class="cls-14" x="164.73" y="277.56" width="101.5" height="234.82"/><polygon class="cls-4" points="158.19 280.83 158.19 308.77 55.19 308.77 55.19 392.26 158.19 392.26 158.19 515.65 189.54 515.65 243.33 280.83 158.19 280.83"/><rect class="cls-14" x="-67.19" y="277.56" width="137.82" height="234.82"/><line class="cls-8" x1="248.78" y1="502.19" x2="248.78" y2="285.61"/><polygon class="cls-6" points="266.24 277.56 266.24 281.65 248.78 281.65 164.73 295.89 164.73 277.56 266.24 277.56"/><polygon class="cls-6" points="70.63 277.56 70.63 281.8 -67.19 287.45 -67.19 277.56 70.63 277.56"/></g></g></g><g id="ZONE_1_A_-_copie"><rect class="cls-6" x="100.79" y="208.58" width="68.89" height="46.76"/><rect class="cls-1" x="160.37" y="207.28" width="13.49" height="15.59" transform="translate(334.24 430.14) rotate(180)"/><rect class="cls-13" x="147.03" y="207.28" width="13.49" height="15.59" transform="translate(307.54 430.14) rotate(180)"/><rect class="cls-20" x="133.68" y="207.33" width="13.49" height="15.59" transform="translate(280.85 430.25) rotate(180)"/><rect class="cls-21" x="124.15" y="207.33" width="9.69" height="15.59" transform="translate(257.99 430.25) rotate(180)"/><rect class="cls-1" x="114.56" y="207.33" width="9.69" height="15.59" transform="translate(238.81 430.25) rotate(180)"/><rect class="cls-9" x="104.97" y="207.33" width="9.69" height="15.59" transform="translate(219.63 430.25) rotate(180)"/><rect class="cls-21" x="160.37" y="222.86" width="13.49" height="15.59" transform="translate(334.24 461.32) rotate(180)"/><rect class="cls-1" x="147.03" y="222.86" width="13.49" height="15.59" transform="translate(307.54 461.32) rotate(180)"/><rect class="cls-13" x="133.68" y="222.86" width="13.49" height="15.59" transform="translate(280.85 461.32) rotate(180)"/><rect class="cls-1" x="124.15" y="222.92" width="9.69" height="15.59" transform="translate(257.99 461.43) rotate(180)"/><rect class="cls-9" x="114.56" y="222.92" width="9.69" height="15.59" transform="translate(238.81 461.43) rotate(180)"/><rect class="cls-20" x="104.97" y="222.92" width="9.69" height="15.59" transform="translate(219.63 461.43) rotate(180)"/><rect class="cls-20" x="160.37" y="238.45" width="13.49" height="15.59" transform="translate(334.24 492.49) rotate(180)"/><rect class="cls-9" x="147.03" y="238.45" width="13.49" height="15.59" transform="translate(307.54 492.49) rotate(180)"/><rect class="cls-21" x="133.68" y="238.45" width="13.49" height="15.59" transform="translate(280.85 492.49) rotate(180)"/><rect class="cls-20" x="124.15" y="238.51" width="9.69" height="15.59" transform="translate(257.99 492.6) rotate(180)"/><rect class="cls-13" x="114.56" y="238.51" width="9.69" height="15.59" transform="translate(238.81 492.6) rotate(180)"/><rect class="cls-1" x="104.97" y="238.51" width="9.69" height="15.59" transform="translate(219.63 492.6) rotate(180)"/><polygon class="cls-2" points="131.72 208.54 103.01 208.54 103.01 255.3 131.72 255.3 131.72 208.54"/><line class="cls-8" x1="160.52" y1="209.75" x2="160.52" y2="251.57"/><line class="cls-8" x1="124.34" y1="209.75" x2="124.34" y2="251.57"/><line class="cls-8" x1="114.96" y1="209.75" x2="114.96" y2="251.57"/><line class="cls-8" x1="107.88" y1="222.92" x2="170.32" y2="222.92"/><line class="cls-8" x1="170.32" y1="238.51" x2="107.67" y2="238.51"/><line class="cls-8" x1="147.17" y1="209.75" x2="147.17" y2="251.57"/></g></g></svg>