<?xml version="1.0" encoding="UTF-8"?><svg xmlns="http://www.w3.org/2000/svg" xmlns:xlink="http://www.w3.org/1999/xlink" viewBox="0 0 300 300"><defs><style>.cls-1{fill:#ffcb57;}.cls-2{fill:url(#_40_10_ppp-8);}.cls-2,.cls-3,.cls-4,.cls-5,.cls-6,.cls-7,.cls-8,.cls-9{mix-blend-mode:overlay;opacity:.25;}.cls-3{fill:url(#_40_10_ppp-11);}.cls-10{fill:#282659;}.cls-11{fill:#1d1061;}.cls-12,.cls-13,.cls-14{fill:none;}.cls-13{stroke:#db6b4c;}.cls-13,.cls-14{stroke-linecap:round;stroke-linejoin:round;stroke-width:2px;}.cls-15{clip-path:url(#clippath-1);}.cls-4{fill:url(#_40_10_ppp-10);}.cls-5{fill:url(#_40_10_ppp-3);}.cls-16{isolation:isolate;}.cls-17{fill:url(#_40_10_ppp-6);}.cls-17,.cls-18,.cls-19,.cls-20,.cls-21{mix-blend-mode:multiply;}.cls-17,.cls-19,.cls-20{opacity:.1;}.cls-18{fill:url(#_40_10_ppp_3);}.cls-18,.cls-22{opacity:.5;}.cls-6{fill:url(#_40_10_ppp-5);}.cls-23{clip-path:url(#clippath-3);}.cls-24{fill:#f2f0ec;}.cls-19{fill:url(#_40_10_ppp);}.cls-20{fill:url(#_40_10_ppp-2);}.cls-7{fill:url(#_40_10_ppp-9);}.cls-14{stroke:#1d1061;}.cls-21{fill:url(#_40_10_ppp_4);opacity:.05;}.cls-25{fill:#a5a5a5;}.cls-26{clip-path:url(#clippath-2);}.cls-8{fill:url(#_40_10_ppp-4);}.cls-9{fill:url(#_40_10_ppp-7);}.cls-27{fill:#7a7a7a;}.cls-28{clip-path:url(#clippath);}.cls-29{fill:url(#Dégradé_sans_nom_8);}.cls-30{fill:#6a90c6;}</style><clipPath id="clippath"><rect class="cls-12" x="10" y="10" width="280" height="280" rx="20" ry="20"/></clipPath><pattern id="_40_10_ppp_4" x="0" y="0" width="11.34" height="11.34" patternTransform="translate(7579.24 8258.2) scale(2)" patternUnits="userSpaceOnUse" viewBox="0 0 11.34 11.34"><rect class="cls-12" x="0" width="11.34" height="11.34"/><circle class="cls-10" cx="9.7" cy="9.69" r="1.2"/><circle class="cls-10" cx="4.03" cy="9.69" r="1.2"/><path class="cls-10" d="M9.7,5.22c.66,0,1.2-.54,1.2-1.2s-.54-1.2-1.2-1.2-1.2.54-1.2,1.2.54,1.2,1.2,1.2Z"/><path class="cls-10" d="M4.03,5.22c.66,0,1.2-.54,1.2-1.2s-.54-1.2-1.2-1.2-1.2.54-1.2,1.2.54,1.2,1.2,1.2Z"/><path class="cls-10" d="M1.2,8.06c.66,0,1.2-.54,1.2-1.2s-.54-1.2-1.2-1.2S0,6.2,0,6.86s.54,1.2,1.2,1.2Z"/><circle class="cls-10" cx="6.86" cy="6.86" r="1.2"/><path class="cls-10" d="M1.2,2.39c.66,0,1.2-.54,1.2-1.2S1.86,0,1.2,0,0,.54,0,1.2s.54,1.2,1.2,1.2Z"/><circle class="cls-10" cx="6.86" cy="1.2" r="1.2"/></pattern><linearGradient id="Dégradé_sans_nom_8" x1="150" y1="300" x2="150" y2="8.88" gradientUnits="userSpaceOnUse"><stop offset="0" stop-color="#f2f0ec" stop-opacity="0"/><stop offset="1" stop-color="#f2f0ec"/></linearGradient><clipPath id="clippath-1"><rect class="cls-12" x="360" y="-375.41" width="280" height="280" rx="20" ry="20"/></clipPath><pattern id="_40_10_ppp" x="0" y="0" width="10" height="10" patternTransform="translate(7208.93 6990.45) scale(2)" patternUnits="userSpaceOnUse" viewBox="0 0 10 10"><rect class="cls-12" width="10" height="10"/><circle class="cls-11" cx="8.95" cy="8.95" r="1.05"/><circle class="cls-11" cx="3.68" cy="8.95" r="1.05"/><path class="cls-11" d="M8.95,4.74c.58,0,1.05-.47,1.05-1.05s-.47-1.05-1.05-1.05-1.05.47-1.05,1.05.47,1.05,1.05,1.05Z"/><path class="cls-11" d="M3.68,4.74c.58,0,1.05-.47,1.05-1.05s-.47-1.05-1.05-1.05-1.05.47-1.05,1.05.47,1.05,1.05,1.05Z"/><path class="cls-11" d="M1.05,7.37c.58,0,1.05-.47,1.05-1.05s-.47-1.05-1.05-1.05S0,5.73,0,6.32s.47,1.05,1.05,1.05Z"/><circle class="cls-11" cx="6.32" cy="6.32" r="1.05"/><path class="cls-11" d="M1.05,2.11c.58,0,1.05-.47,1.05-1.05S1.63,0,1.05,0,0,.47,0,1.05s.47,1.05,1.05,1.05Z"/><circle class="cls-11" cx="6.32" cy="1.05" r="1.05"/></pattern><clipPath id="clippath-2"><rect class="cls-12" x="10" y="-375.41" width="280" height="280" rx="20" ry="20"/></clipPath><pattern id="_40_10_ppp-2" patternTransform="translate(7198.93 6990.45) scale(2)" xlink:href="#_40_10_ppp"/><pattern id="_40_10_ppp-3" patternTransform="translate(7198.93 6990.45) scale(2)" xlink:href="#_40_10_ppp"/><pattern id="_40_10_ppp-4" patternTransform="translate(7198.93 6990.45) scale(2)" xlink:href="#_40_10_ppp"/><pattern id="_40_10_ppp-5" patternTransform="translate(7198.93 6990.45) scale(2)" xlink:href="#_40_10_ppp"/><clipPath id="clippath-3"><rect class="cls-12" x="10" y="10" width="280" height="280" rx="20" ry="20"/></clipPath><pattern id="_40_10_ppp-6" patternTransform="translate(7224.76 6937.44) scale(2)" xlink:href="#_40_10_ppp"/><pattern id="_40_10_ppp-7" patternTransform="translate(7224.76 6937.44) scale(2)" xlink:href="#_40_10_ppp"/><pattern id="_40_10_ppp-8" patternTransform="translate(7224.76 6937.44) scale(2)" xlink:href="#_40_10_ppp"/><pattern id="_40_10_ppp-9" patternTransform="translate(7224.76 6937.44) scale(2)" xlink:href="#_40_10_ppp"/><pattern id="_40_10_ppp-10" patternTransform="translate(7224.76 6937.44) scale(2)" xlink:href="#_40_10_ppp"/><pattern id="_40_10_ppp-11" patternTransform="translate(7224.76 6937.44) scale(2)" xlink:href="#_40_10_ppp"/><pattern id="_40_10_ppp_3" x="0" y="0" width="10" height="10" patternTransform="translate(7236.76 6957.44) scale(2)" patternUnits="userSpaceOnUse" viewBox="0 0 10 10"><rect class="cls-12" width="10" height="10"/><circle class="cls-1" cx="8.95" cy="8.95" r="1.05"/><circle class="cls-1" cx="3.68" cy="8.95" r="1.05"/><path class="cls-1" d="M8.95,4.74c.58,0,1.05-.47,1.05-1.05s-.47-1.05-1.05-1.05-1.05.47-1.05,1.05.47,1.05,1.05,1.05Z"/><path class="cls-1" d="M3.68,4.74c.58,0,1.05-.47,1.05-1.05s-.47-1.05-1.05-1.05-1.05.47-1.05,1.05.47,1.05,1.05,1.05Z"/><path class="cls-1" d="M1.05,7.37c.58,0,1.05-.47,1.05-1.05s-.47-1.05-1.05-1.05S0,5.73,0,6.32s.47,1.05,1.05,1.05Z"/><circle class="cls-1" cx="6.32" cy="6.32" r="1.05"/><path class="cls-1" d="M1.05,2.11c.58,0,1.05-.47,1.05-1.05S1.63,0,1.05,0,0,.47,0,1.05s.47,1.05,1.05,1.05Z"/><circle class="cls-1" cx="6.32" cy="1.05" r="1.05"/></pattern></defs><g class="cls-16"><g id="Calque_25"><rect class="cls-24" x="10" y="10" width="280" height="280" rx="20" ry="20"/><g class="cls-28"><rect class="cls-21" y="0" width="300" height="300"/><rect class="cls-29" x="0" y="0" width="300" height="300"/></g></g><g id="BG_-_copie_4"><g class="cls-22"><g class="cls-15"><polygon class="cls-11" points="272.87 -129.49 272.87 -105.98 510.72 -105.98 510.72 -77.27 412.91 -77.27 412.91 6.22 510.72 6.22 510.72 128.84 612.22 128.84 612.22 -105.98 627.8 -105.98 627.8 -129.49 272.87 -129.49"/><path class="cls-19" d="M631.81,126.04c0,8.25-82.8,8.25-184.94,8.25s-184.94-3.69-184.94-8.25,82.8-8.25,184.94-8.25,184.94,0,184.94,8.25Z"/><rect class="cls-25" x="282.81" y="-107.85" width="137.82" height="234.82"/><line class="cls-14" x1="288.36" y1="51.7" x2="415.07" y2="51.7"/></g></g><g class="cls-22"><g class="cls-26"><polygon class="cls-11" points="-77.13 -129.49 -77.13 -105.98 160.72 -105.98 160.72 -77.27 62.91 -77.27 62.91 6.22 160.72 6.22 160.72 128.84 262.22 128.84 262.22 -105.98 277.8 -105.98 277.8 -129.49 -77.13 -129.49"/><path class="cls-20" d="M281.81,126.04c0,8.25-82.8,8.25-184.94,8.25s-184.94-3.69-184.94-8.25,82.8-8.25,184.94-8.25,184.94,0,184.94,8.25Z"/><rect class="cls-25" x="164.73" y="-107.85" width="101.5" height="234.82"/><rect class="cls-27" x="61.74" y="-79.91" width="122.26" height="83.49"/><polygon class="cls-5" points="158.19 -104.58 158.19 -76.64 55.19 -76.64 55.19 6.85 158.19 6.85 158.19 130.24 189.54 130.24 243.33 -104.58 158.19 -104.58"/><rect class="cls-25" x="-67.19" y="-107.85" width="137.82" height="234.82"/><line class="cls-14" x1="-61.64" y1="51.7" x2="65.07" y2="51.7"/><circle class="cls-8" cx="-1.55" cy="15.94" r="8.24"/><circle class="cls-27" cx="1.72" cy="12.67" r="8.24"/><circle class="cls-6" cx="-1.55" cy="94.69" r="8.24"/><circle class="cls-27" cx="1.72" cy="91.41" r="8.24"/><line class="cls-14" x1="248.78" y1="116.78" x2="248.78" y2="-99.8"/></g></g></g><g id="BG_-_copie_5"><g class="cls-22"><g class="cls-23"><polygon class="cls-11" points="-11.3 -42.5 -11.3 -19 226.55 -19 226.55 9.71 128.74 9.71 128.74 93.2 226.55 93.2 226.55 215.82 328.05 215.82 328.05 -19 343.62 -19 343.62 -42.5 -11.3 -42.5"/><path class="cls-17" d="M347.64,213.02c0,8.25-82.8,8.25-184.94,8.25s-184.94-3.69-184.94-8.25,82.8-8.25,184.94-8.25,184.94,0,184.94,8.25Z"/><rect class="cls-25" x="230.56" y="-20.87" width="101.5" height="234.82"/><rect class="cls-27" x="127.57" y="7.07" width="122.26" height="83.49"/><polygon class="cls-9" points="224.02 -17.6 224.02 10.35 121.02 10.35 121.02 93.83 224.02 93.83 224.02 217.23 255.37 217.23 309.16 -17.6 224.02 -17.6"/><rect class="cls-25" x="-1.36" y="-20.87" width="137.82" height="234.82"/><line class="cls-14" x1="4.19" y1="58.51" x2="130.9" y2="58.51"/><line class="cls-14" x1="4.19" y1="138.69" x2="130.9" y2="138.69"/><circle class="cls-2" cx="64.28" cy="24.17" r="8.24"/><circle class="cls-27" cx="67.55" cy="20.9" r="8.24"/><circle class="cls-7" cx="64.28" cy="102.92" r="8.24"/><circle class="cls-27" cx="67.55" cy="99.65" r="8.24"/><circle class="cls-4" cx="64.28" cy="181.67" r="8.24"/><circle class="cls-27" cx="67.55" cy="178.4" r="8.24"/></g></g></g><g id="ZONE_1_B_-_copie"><ellipse class="cls-30" cx="147.42" cy="259.84" rx="50.82" ry="5.74"/><ellipse class="cls-3" cx="149.42" cy="260.84" rx="50.82" ry="5.74"/><circle class="cls-11" cx="138.48" cy="199.4" r="62.93"/><circle class="cls-1" cx="142.48" cy="198.4" r="62.93"/><path class="cls-13" d="M84.45,187.72s22.23,11.26,58.02,10.68"/><path class="cls-13" d="M174.81,151.92s-22.52,15.88-32.33,46.47c0,0,14.72,36.95,10.68,58.02"/><path class="cls-13" d="M120.18,197.21s.65-23.35,30.67-51.06"/><path class="cls-13" d="M100.33,187.72s2.89-23.67,22.52-38.97"/><path class="cls-13" d="M148.26,217.78s-21.44,9.27-59.24-6.24"/><path class="cls-13" d="M148.03,239.79s-22.68,7.38-44.83-3.96"/><path class="cls-13" d="M151.48,179.27s18.88,13.75,24.71,54.17"/><path class="cls-13" d="M170.55,168.29s17.87,15.78,19.36,40.61"/><circle class="cls-18" cx="149.02" cy="204.94" r="51.55"/></g></g></svg>