<?xml version="1.0" encoding="UTF-8"?><svg xmlns="http://www.w3.org/2000/svg" xmlns:xlink="http://www.w3.org/1999/xlink" viewBox="0 0 300 300"><defs><style>.cls-1{fill:#ffcb57;}.cls-2{fill:url(#_40_10_ppp-2);}.cls-2,.cls-3,.cls-4{mix-blend-mode:multiply;}.cls-2,.cls-5,.cls-4{opacity:.25;}.cls-6{fill:#fff;}.cls-7{fill:#cecece;}.cls-8{fill:#1d1061;}.cls-9,.cls-10,.cls-11{fill:none;}.cls-12{fill:#5cc6a0;}.cls-13{fill:#65447a;}.cls-14{clip-path:url(#clippath-1);}.cls-15{isolation:isolate;}.cls-16{fill:#f2f0ec;}.cls-3{opacity:.1;}.cls-3,.cls-5{fill:url(#_40_10_ppp);}.cls-10{stroke:#ffcb57;}.cls-10,.cls-11{stroke-linecap:round;stroke-linejoin:round;stroke-width:2px;}.cls-11{stroke:#1d1061;}.cls-17{fill:#a5a5a5;}.cls-5{mix-blend-mode:overlay;}.cls-4{fill:url(#_40_10_ppp-3);}.cls-18{fill:#7a7a7a;}.cls-19{opacity:.5;}.cls-20{fill:#fdfdfd;}</style><clipPath id="clippath"><rect class="cls-9" x="360" y="10" width="280" height="280" rx="20" ry="20"/></clipPath><clipPath id="clippath-1"><rect class="cls-9" x="10" y="10" width="280" height="280" rx="20" ry="20"/></clipPath><pattern id="_40_10_ppp" x="0" y="0" width="10" height="10" patternTransform="translate(7779.01 7042.95) scale(2)" patternUnits="userSpaceOnUse" viewBox="0 0 10 10"><rect class="cls-9" width="10" height="10"/><circle class="cls-8" cx="8.95" cy="8.95" r="1.05"/><circle class="cls-8" cx="3.68" cy="8.95" r="1.05"/><path class="cls-8" d="M8.95,4.74c.58,0,1.05-.47,1.05-1.05s-.47-1.05-1.05-1.05-1.05.47-1.05,1.05.47,1.05,1.05,1.05Z"/><path class="cls-8" d="M3.68,4.74c.58,0,1.05-.47,1.05-1.05s-.47-1.05-1.05-1.05-1.05.47-1.05,1.05.47,1.05,1.05,1.05Z"/><path class="cls-8" d="M1.05,7.37c.58,0,1.05-.47,1.05-1.05s-.47-1.05-1.05-1.05S0,5.73,0,6.32s.47,1.05,1.05,1.05Z"/><circle class="cls-8" cx="6.32" cy="6.32" r="1.05"/><path class="cls-8" d="M1.05,2.11c.58,0,1.05-.47,1.05-1.05S1.63,0,1.05,0,0,.47,0,1.05s.47,1.05,1.05,1.05Z"/><circle class="cls-8" cx="6.32" cy="1.05" r="1.05"/></pattern><pattern id="_40_10_ppp-2" patternTransform="translate(7785.86 7040.17) scale(2)" xlink:href="#_40_10_ppp"/><pattern id="_40_10_ppp-3" patternTransform="translate(7785.86 7040.17) scale(2)" xlink:href="#_40_10_ppp"/></defs><g class="cls-15"><g id="BG_-_copie_7"><g class="cls-19"><g class="cls-14"><path class="cls-8" d="M350.42,286.46h-76.98V110.29c0-4.86-3.07-9.18-7.67-10.75-32.01-10.91-160.07-47.94-305.98.15-4.63,1.53-7.73,5.91-7.73,10.78v307.83h321.38v-57.35h76.98v-74.5Z"/><path class="cls-18" d="M271.36,97.23c-32.01-10.91-160.07-47.94-305.98.15-4.63,1.53-7.73,5.91-7.73,10.78v307.83h321.38V107.98c0-4.86-3.07-9.18-7.67-10.75Z"/><path class="cls-5" d="M29.13,138.81c-9.63,6.46,10.32,28.22,10.32,28.22v50.38l67.17-2.42S50.8,124.28,29.13,138.81Z"/><path class="cls-16" d="M255.47,198.95c.68-15.2-51.39-68.72-81.79-72.37-30.41-3.65-109.46-5.78-120.41,16.12-10.95,21.89,16.51,57.47,46.41,65.07,29.91,7.6,155.18,4.87,155.79-8.82Z"/><path class="cls-3" d="M247.47,211.93s-18.48-57.07-60.72-62.85c35.9,49.35-190.05-28.72-65.14,61.62,47.95,34.68,125.86,1.23,125.86,1.23Z"/><path class="cls-16" d="M199.21,143.01s13.12-23.72,7.17-26.15c-5.95-2.43-29.36,16.42-29.36,16.42l22.2,9.73Z"/><path class="cls-16" d="M67.55,137.84s-21.89-11.55-33.14-6.39c-11.25,5.17,20.98,26.15,20.98,26.15l12.16-19.76Z"/><path class="cls-11" d="M67.55,149.09s21.62,29.61,40.44,39.22"/><line class="cls-11" x1="87.77" y1="161.55" x2="121.61" y2="185.88"/><path class="cls-16" d="M9.64,202.71h346.37v99.36H-.78v-88.94c0-5.75,4.67-10.42,10.42-10.42Z"/><rect class="cls-17" x="-15.79" y="284.15" width="371.8" height="74.5"/><path class="cls-6" d="M92.22,195.84h273.02v148.95H80.05v-136.77c0-6.72,5.46-12.18,12.18-12.18Z"/><path class="cls-1" d="M161.51,195.84h273.02v148.95H149.33v-136.77c0-6.72,5.46-12.18,12.18-12.18Z"/><path class="cls-11" d="M168.16,304.66c0-10.7,6.41-31.29,19.84-41.58"/><path class="cls-11" d="M175.69,244.66s-15.54,18.43-12.66,67.32"/><path class="cls-11" d="M188,275.4s-5.63,18.99,7.03,32.36"/></g></g></g><g id="ZONE_3_A_-_copie"><path class="cls-8" d="M174.96,145.09c-2.06-3.87-5.03-2.53-6.48,1.32-.49-.59-.99-1.17-1.51-1.71-3.25-3.37-3.64,5.8-3.62,10.96-.29.03-.57.05-.89.08-.67-1.69-1.67-3.46-3.03-3.6-1.17-.12-1.91,1.75-2.37,3.89-7.2.21-16.12-.37-20.7-3.89,1.56-2.81,3.22-6.01,4.78-9.38.07-.16.14-.32.22-.48.44-.96.88-1.93,1.3-2.91.13-.31.25-.62.38-.93.35-.84.7-1.68,1.03-2.52.16-.41.3-.82.45-1.24.28-.74.56-1.49.81-2.23.16-.46.28-.92.43-1.37.22-.68.45-1.37.64-2.04.15-.55.27-1.08.4-1.61.14-.57.31-1.15.42-1.71.12-.57.19-1.11.29-1.67.08-.5.2-1.02.26-1.5.07-.56.08-1.07.12-1.61.03-.45.09-.93.1-1.37,0-.48-.05-.92-.08-1.37-.03-.45-.02-.92-.08-1.35-.07-.49-.21-.92-.32-1.37-.09-.35-.13-.72-.25-1.05-.17-.48-.43-.89-.66-1.32-.13-.24-.22-.51-.37-.74-.25-.37-.6-.66-.91-.98-.21-.22-.38-.48-.63-.67-.43-.34-.96-.59-1.49-.85-.16-.08-.29-.19-.47-.27l.8-9.94c.04-.45-.3-.84-.75-.88-.45-.07-.84.3-.88.75l-.77,9.62c-.41-.1-.76-.25-1.21-.31-1.01-.14-2.04-.16-3.07-.09-.04,0-.09.01-.13.01l-2.78-6.88c-.17-.42-.65-.63-1.06-.45-.42.17-.62.65-.45,1.06l2.65,6.56c-.45.08-.9.12-1.35.25-.45.12-.9.32-1.35.48-.61.21-1.21.39-1.82.66-.5.23-1.01.53-1.52.79-.55.29-1.11.56-1.66.9-.55.34-1.1.74-1.66,1.13-.51.35-1.02.68-1.53,1.07-.6.46-1.2.98-1.8,1.49-.46.39-.91.75-1.37,1.16-.65.59-1.3,1.24-1.95,1.89-.39.39-.79.76-1.18,1.18-.7.73-1.39,1.52-2.09,2.31-.33.38-.67.74-1,1.13-.75.88-1.48,1.81-2.22,2.75-.27.34-.53.66-.8,1.01-.79,1.04-1.57,2.11-2.34,3.21-.2.28-.4.55-.59.83-.52.75-1.03,1.51-1.53,2.27-5.35-.15-15.39-.22-15.95,1.44-.52,1.54,7.8,2.91,12.79,3.59-.21.35-.42.71-.63,1.07-.09.15-.18.3-.26.45-.85,1.46-1.68,2.94-2.49,4.45-.05.08-.09.17-.14.25-.84,1.57-1.66,3.15-2.46,4.76-.01.03-.03.06-.05.09-.81,1.64-1.6,3.3-2.36,4.97,0,0,0,0,0,.01-.77,1.68-1.5,3.37-2.21,5.07,0,0,0,0,0,0h0c-.32.76-.65,1.51-.96,2.27-6.05,15.11-5.92,27.8,1.87,36.2-10.87,2.22-21.79,3.01-26.06,3.25,1.7-3.66,2.92-11.1,2.02-17.69-.97-7.09-7.29-15.74-9.83-12.12-1.59,2.26,2.89,5.77,2.17,10.54-4.18-1.92-12.02-3.61-12.41.87-.26,2.97,4.73-.02,9.67,5.56,4.94,5.58.44,21.11,7.22,14.71.04-.04.09-.13.13-.18,3.19-.15,15.95-.9,28.42-3.56,1.48,1.35,3.24,2.54,5.18,3.62-.89,8.26-3.71,20.91,2.21,15.32.08-.07.17-.2.25-.29,4.13-.71,23.59-4.27,30.61-9.25,40.33-1.26,65.52-17.7,40.94-63.87ZM109.19,206.51c5.84,1.67,12.97,2.54,21.53,2.48-7.08,3.56-20.43,6.28-25.92,7.3,1.39-2.28,2.96-5.79,4.39-9.78Z"/><path class="cls-1" d="M70.49,200.88c2.25-2.12,4.28-11.53,3.19-19.55-.97-7.09-7.29-15.75-9.83-12.12-1.59,2.26,2.89,5.77,2.17,10.54-4.18-1.92-12.02-3.61-12.41.87-.26,2.97,4.73-.02,9.67,5.56,4.94,5.58.44,21.11,7.22,14.71Z"/><path class="cls-10" d="M69.82,199.92s18.15-.61,33.86-4.69"/><path class="cls-7" d="M143.18,106.43c-16.41-2.28-36.09,25.09-47.32,53.14-11.24,28.05-1.41,47.92,39.85,47.04,41.26-.88,67.42-17.15,42.53-63.93-3.25-6.11-8.78.74-7.01,10.05,0,0-23.16,3.49-31.59-3,8.27-14.91,19.52-41.09,3.55-43.31Z"/><path class="cls-13" d="M139.65,149.69c8.27-14.92,19.48-41.05,3.53-43.26-15.96-2.22-35,23.63-46.37,50.86,9.53,2.55,29.55-1.92,42.84-7.6Z"/><path class="cls-2" d="M141.24,151.61c8.27-14.92,19.48-41.05,3.53-43.26-15.96-2.22-35,23.63-46.37,50.86,9.53,2.55,29.55-1.92,42.84-7.6Z"/><path class="cls-4" d="M139.05,159.64c-6.43,5.82-15.08,28.89,16.86,29.78,31.94.89,29.36-30.08,15.97-43.99-4.44-4.61-3.55,14.21-3.55,14.21,0,0-1.33-6.5-3.99-6.77-2.66-.27-3.11,9.83-3.11,9.83-11.69,0-17.82-7.01-22.18-3.06Z"/><path class="cls-12" d="M137.41,156.5c-6.43,5.82-15.08,28.89,16.86,29.78,31.94.89,29.36-30.08,15.97-43.99-4.44-4.61-3.55,14.21-3.55,14.21,0,0-1.33-6.5-3.99-6.77-2.66-.27-3.11,9.83-3.11,9.83-11.69,0-17.82-7.01-22.18-3.06Z"/><path class="cls-20" d="M147,185.59c2.15.37,4.55.62,7.27.69,5.76.16,10.38-.73,14.04-2.36.39-11-5.94-21.75-8.62-25.76-.07.84-.1,1.4-.1,1.4-2.51,0-4.76-.33-6.79-.8-.05,9.24-3.53,20.48-5.8,26.83Z"/><path class="cls-17" d="M158.71,186.17c20.16-1.5,23.77-17.61,19.09-31.24-3.77-.55-7.75-.56-11.16-.35.02,1.16.06,1.92.06,1.92,0,0-.18-.83-.51-1.89-2.5.17-4.64.43-6.15.65-.34,2.24-.44,4.3-.44,4.3-.75,0-1.48-.03-2.18-.08,3.92,10.45,2.63,20.87,1.3,26.69Z"/><path class="cls-1" d="M113.9,131.27s-18.5-.95-19.26,1.32c-.74,2.2,16.42,4.04,16.42,4.04,0,0,1.86.64,2.84-1.5,1.36-2.97,0-3.85,0-3.85Z"/><line class="cls-11" x1="123.6" y1="124.45" x2="121.87" y2="127.49"/><line class="cls-11" x1="132.31" y1="129.39" x2="134.14" y2="125.83"/><line class="cls-11" x1="145.1" y1="108.01" x2="145.97" y2="97.18"/><line class="cls-11" x1="139.76" y1="108.01" x2="136.44" y2="99.78"/><path class="cls-1" d="M106.43,216.09c4.23-3.99,12.91-28.48,9.62-37.33-3.8-10.25-5.1,7.36-7.62,9.3-1.09-3.67-4.5-15.21-7.82-12.18-2.2,2.01,3.96,14.19,3.84,21.64-.12,7.45-4.81,24.97,1.97,18.57Z"/><path class="cls-10" d="M105.76,215.13s23.86-3.9,31.27-9.38"/></g></g></svg>