<?xml version="1.0" encoding="UTF-8"?><svg xmlns="http://www.w3.org/2000/svg" xmlns:xlink="http://www.w3.org/1999/xlink" viewBox="0 0 300 300"><defs><style>.cls-1{fill:url(#_40_10_ppp-2);}.cls-1,.cls-2,.cls-3{mix-blend-mode:multiply;}.cls-1,.cls-4,.cls-3{opacity:.25;}.cls-5{fill:#282659;}.cls-6{fill:#1d1061;}.cls-7,.cls-8{fill:none;}.cls-9{clip-path:url(#clippath-1);}.cls-10{isolation:isolate;}.cls-11{fill:#f2f0ec;}.cls-8{stroke:#1d1061;stroke-linecap:round;stroke-linejoin:round;stroke-width:2px;}.cls-2{fill:url(#_40_10_ppp_4);opacity:.05;}.cls-12{fill:#a5a5a5;}.cls-13{clip-path:url(#clippath-2);}.cls-4{fill:url(#_40_10_ppp);mix-blend-mode:overlay;}.cls-3{fill:url(#_40_10_ppp-3);}.cls-14{fill:#7a7a7a;}.cls-15{clip-path:url(#clippath);}.cls-16{fill:url(#Dégradé_sans_nom_8);}.cls-17{opacity:.5;}.cls-18{fill:#fdfdfd;}.cls-19{fill:#6a90c6;}</style><clipPath id="clippath"><rect class="cls-7" x="10" y="10" width="280" height="280" rx="20" ry="20"/></clipPath><pattern id="_40_10_ppp_4" x="0" y="0" width="11.34" height="11.34" patternTransform="translate(7601.92 8914.33) scale(2)" patternUnits="userSpaceOnUse" viewBox="0 0 11.34 11.34"><rect class="cls-7" x="0" width="11.34" height="11.34"/><circle class="cls-5" cx="9.7" cy="9.69" r="1.2"/><circle class="cls-5" cx="4.03" cy="9.69" r="1.2"/><path class="cls-5" d="M9.7,5.22c.66,0,1.2-.54,1.2-1.2s-.54-1.2-1.2-1.2-1.2.54-1.2,1.2.54,1.2,1.2,1.2Z"/><path class="cls-5" d="M4.03,5.22c.66,0,1.2-.54,1.2-1.2s-.54-1.2-1.2-1.2-1.2.54-1.2,1.2.54,1.2,1.2,1.2Z"/><path class="cls-5" d="M1.2,8.06c.66,0,1.2-.54,1.2-1.2s-.54-1.2-1.2-1.2S0,6.2,0,6.86s.54,1.2,1.2,1.2Z"/><circle class="cls-5" cx="6.86" cy="6.86" r="1.2"/><path class="cls-5" d="M1.2,2.39c.66,0,1.2-.54,1.2-1.2S1.86,0,1.2,0,0,.54,0,1.2s.54,1.2,1.2,1.2Z"/><circle class="cls-5" cx="6.86" cy="1.2" r="1.2"/></pattern><linearGradient id="Dégradé_sans_nom_8" x1="150" y1="300" x2="150" y2="8.88" gradientUnits="userSpaceOnUse"><stop offset="0" stop-color="#f2f0ec" stop-opacity="0"/><stop offset="1" stop-color="#f2f0ec"/></linearGradient><clipPath id="clippath-1"><rect class="cls-7" x="360" y="10" width="280" height="280" rx="20" ry="20"/></clipPath><clipPath id="clippath-2"><rect class="cls-7" x="10" y="10" width="280" height="280" rx="20" ry="20"/></clipPath><pattern id="_40_10_ppp" x="0" y="0" width="10" height="10" patternTransform="translate(7198.93 7375.86) scale(2)" patternUnits="userSpaceOnUse" viewBox="0 0 10 10"><rect class="cls-7" width="10" height="10"/><circle class="cls-6" cx="8.95" cy="8.95" r="1.05"/><circle class="cls-6" cx="3.68" cy="8.95" r="1.05"/><path class="cls-6" d="M8.95,4.74c.58,0,1.05-.47,1.05-1.05s-.47-1.05-1.05-1.05-1.05.47-1.05,1.05.47,1.05,1.05,1.05Z"/><path class="cls-6" d="M3.68,4.74c.58,0,1.05-.47,1.05-1.05s-.47-1.05-1.05-1.05-1.05.47-1.05,1.05.47,1.05,1.05,1.05Z"/><path class="cls-6" d="M1.05,7.37c.58,0,1.05-.47,1.05-1.05s-.47-1.05-1.05-1.05S0,5.73,0,6.32s.47,1.05,1.05,1.05Z"/><circle class="cls-6" cx="6.32" cy="6.32" r="1.05"/><path class="cls-6" d="M1.05,2.11c.58,0,1.05-.47,1.05-1.05S1.63,0,1.05,0,0,.47,0,1.05s.47,1.05,1.05,1.05Z"/><circle class="cls-6" cx="6.32" cy="1.05" r="1.05"/></pattern><pattern id="_40_10_ppp-2" patternTransform="translate(7241.93 7375.86) scale(2)" xlink:href="#_40_10_ppp"/><pattern id="_40_10_ppp-3" patternTransform="translate(7241.93 7375.86) scale(2)" xlink:href="#_40_10_ppp"/></defs><g class="cls-10"><g id="Calque_25"><rect class="cls-11" x="10" y="10" width="280" height="280" rx="20" ry="20"/><g class="cls-15"><rect class="cls-2" y="0" width="300" height="300"/><rect class="cls-16" x="0" y="0" width="300" height="300"/></g></g><g id="BG_-_copie_4"><g class="cls-17"><g class="cls-9"><polygon class="cls-6" points="272.87 255.92 272.87 279.43 510.72 279.43 510.72 308.14 412.91 308.14 412.91 391.63 510.72 391.63 510.72 514.25 612.22 514.25 612.22 279.43 627.8 279.43 627.8 255.92 272.87 255.92"/><rect class="cls-14" x="276.88" y="254.06" width="354.93" height="23.5"/><rect class="cls-12" x="282.81" y="277.56" width="137.82" height="234.82"/><polygon class="cls-6" points="420.63 277.56 420.63 281.8 282.81 287.45 282.81 277.56 420.63 277.56"/></g></g><g class="cls-17"><g class="cls-13"><polygon class="cls-6" points="-77.13 255.92 -77.13 279.43 160.72 279.43 160.72 308.14 62.91 308.14 62.91 391.63 160.72 391.63 160.72 514.25 262.22 514.25 262.22 279.43 277.8 279.43 277.8 255.92 -77.13 255.92"/><rect class="cls-14" x="-73.12" y="254.06" width="354.93" height="23.5"/><rect class="cls-12" x="164.73" y="277.56" width="101.5" height="234.82"/><polygon class="cls-4" points="158.19 280.83 158.19 308.77 55.19 308.77 55.19 392.26 158.19 392.26 158.19 515.65 189.54 515.65 243.33 280.83 158.19 280.83"/><rect class="cls-12" x="-67.19" y="277.56" width="137.82" height="234.82"/><line class="cls-8" x1="248.78" y1="502.19" x2="248.78" y2="285.61"/><polygon class="cls-6" points="266.24 277.56 266.24 281.65 248.78 281.65 164.73 295.89 164.73 277.56 266.24 277.56"/><polygon class="cls-6" points="70.63 277.56 70.63 281.8 -67.19 287.45 -67.19 277.56 70.63 277.56"/></g></g></g><g id="ZONE_1_A_-_copie"><rect class="cls-6" x="68.12" y="243.65" width="171.04" height="13.57"/><polygon class="cls-6" points="48.37 146.76 177.88 146.76 185.88 243.62 56.37 243.62 48.37 146.76"/><rect class="cls-18" x="71.39" y="240.38" width="171.04" height="13.57"/><rect class="cls-1" x="68.7" y="243.07" width="73.59" height="13.57"/><polygon class="cls-18" points="51.65 143.49 181.15 143.49 189.15 240.35 59.65 240.35 51.65 143.49"/><polygon class="cls-3" points="49.48 145.26 56.15 145.26 64.15 242.11 57.48 242.11 49.48 145.26"/><polygon class="cls-19" points="65.61 149.7 175.21 149.7 182.18 234.14 72.58 234.14 65.61 149.7"/><line class="cls-8" x1="58.51" y1="146.55" x2="66.02" y2="237.42"/><line class="cls-8" x1="144.99" y1="243.06" x2="144.99" y2="251.18"/><line class="cls-8" x1="117.24" y1="146.55" x2="119.91" y2="146.55"/><line class="cls-8" x1="122.69" y1="146.55" x2="123.05" y2="146.55"/></g></g></svg>