<?xml version="1.0" encoding="UTF-8"?><svg xmlns="http://www.w3.org/2000/svg" xmlns:xlink="http://www.w3.org/1999/xlink" viewBox="0 0 300 300"><defs><style>.cls-1{fill:#ffcb57;}.cls-2{fill:url(#_40_10_ppp-4);}.cls-2,.cls-3,.cls-4,.cls-5{mix-blend-mode:multiply;}.cls-2,.cls-3,.cls-6,.cls-5{opacity:.25;}.cls-3{fill:url(#_40_10_ppp-2);}.cls-7{fill:#fff;}.cls-8{fill:#1d1061;}.cls-9,.cls-10{fill:none;}.cls-11{clip-path:url(#clippath-1);}.cls-12{isolation:isolate;}.cls-13{fill:#d07b73;}.cls-14{fill:#f2f0ec;}.cls-4{opacity:.1;}.cls-4,.cls-6{fill:url(#_40_10_ppp);}.cls-10{stroke:#1d1061;stroke-linecap:round;stroke-linejoin:round;stroke-width:2px;}.cls-15{fill:#a5a5a5;}.cls-16{clip-path:url(#clippath-2);}.cls-6{mix-blend-mode:overlay;}.cls-5{fill:url(#_40_10_ppp-3);}.cls-17{fill:#7a7a7a;}.cls-18{opacity:.5;}</style><clipPath id="clippath"><rect class="cls-9" x="360" y="10" width="280" height="280" rx="20" ry="20"/></clipPath><clipPath id="clippath-1"><rect class="cls-9" x="10" y="10" width="280" height="280" rx="20" ry="20"/></clipPath><pattern id="_40_10_ppp" x="0" y="0" width="10" height="10" patternTransform="translate(7419.01 7042.95) scale(2)" patternUnits="userSpaceOnUse" viewBox="0 0 10 10"><rect class="cls-9" width="10" height="10"/><circle class="cls-8" cx="8.95" cy="8.95" r="1.05"/><circle class="cls-8" cx="3.68" cy="8.95" r="1.05"/><path class="cls-8" d="M8.95,4.74c.58,0,1.05-.47,1.05-1.05s-.47-1.05-1.05-1.05-1.05.47-1.05,1.05.47,1.05,1.05,1.05Z"/><path class="cls-8" d="M3.68,4.74c.58,0,1.05-.47,1.05-1.05s-.47-1.05-1.05-1.05-1.05.47-1.05,1.05.47,1.05,1.05,1.05Z"/><path class="cls-8" d="M1.05,7.37c.58,0,1.05-.47,1.05-1.05s-.47-1.05-1.05-1.05S0,5.73,0,6.32s.47,1.05,1.05,1.05Z"/><circle class="cls-8" cx="6.32" cy="6.32" r="1.05"/><path class="cls-8" d="M1.05,2.11c.58,0,1.05-.47,1.05-1.05S1.63,0,1.05,0,0,.47,0,1.05s.47,1.05,1.05,1.05Z"/><circle class="cls-8" cx="6.32" cy="1.05" r="1.05"/></pattern><clipPath id="clippath-2"><rect class="cls-9" x="-340" y="10" width="280" height="280" rx="20" ry="20"/></clipPath><pattern id="_40_10_ppp-2" patternTransform="translate(5472.34 8695.14) rotate(6.44) scale(2)" xlink:href="#_40_10_ppp"/><pattern id="_40_10_ppp-3" patternTransform="translate(5472.34 8695.14) rotate(6.44) scale(2)" xlink:href="#_40_10_ppp"/><pattern id="_40_10_ppp-4" patternTransform="translate(5472.34 8695.14) rotate(6.44) scale(2)" xlink:href="#_40_10_ppp"/></defs><g class="cls-12"><g id="BG_-_copie_7"><g class="cls-18"><g class="cls-11"><path class="cls-8" d="M350.42,286.46h-76.98V110.29c0-4.86-3.07-9.18-7.67-10.75-32.01-10.91-160.07-47.94-305.98.15-4.63,1.53-7.73,5.91-7.73,10.78v307.83h321.38v-57.35h76.98v-74.5Z"/><path class="cls-17" d="M271.36,97.23c-32.01-10.91-160.07-47.94-305.98.15-4.63,1.53-7.73,5.91-7.73,10.78v307.83h321.38V107.98c0-4.86-3.07-9.18-7.67-10.75Z"/><path class="cls-6" d="M29.13,138.81c-9.63,6.46,10.32,28.22,10.32,28.22v50.38l67.17-2.42S50.8,124.28,29.13,138.81Z"/><path class="cls-14" d="M255.47,198.95c.68-15.2-51.39-68.72-81.79-72.37-30.41-3.65-109.46-5.78-120.41,16.12-10.95,21.89,16.51,57.47,46.41,65.07,29.91,7.6,155.18,4.87,155.79-8.82Z"/><path class="cls-4" d="M247.47,211.93s-18.48-57.07-60.72-62.85c35.9,49.35-190.05-28.72-65.14,61.62,47.95,34.68,125.86,1.23,125.86,1.23Z"/><path class="cls-14" d="M199.21,143.01s13.12-23.72,7.17-26.15c-5.95-2.43-29.36,16.42-29.36,16.42l22.2,9.73Z"/><path class="cls-14" d="M67.55,137.84s-21.89-11.55-33.14-6.39c-11.25,5.17,20.98,26.15,20.98,26.15l12.16-19.76Z"/><path class="cls-10" d="M67.55,149.09s21.62,29.61,40.44,39.22"/><line class="cls-10" x1="87.77" y1="161.55" x2="121.61" y2="185.88"/><path class="cls-14" d="M9.64,202.71h346.37v99.36H-.78v-88.94c0-5.75,4.67-10.42,10.42-10.42Z"/><rect class="cls-15" x="-15.79" y="284.15" width="371.8" height="74.5"/><path class="cls-7" d="M92.22,195.84h273.02v148.95H80.05v-136.77c0-6.72,5.46-12.18,12.18-12.18Z"/><path class="cls-1" d="M161.51,195.84h273.02v148.95H149.33v-136.77c0-6.72,5.46-12.18,12.18-12.18Z"/><path class="cls-10" d="M168.16,304.66c0-10.7,6.41-31.29,19.84-41.58"/><path class="cls-10" d="M175.69,244.66s-15.54,18.43-12.66,67.32"/><path class="cls-10" d="M188,275.4s-5.63,18.99,7.03,32.36"/></g></g><g class="cls-18"><g class="cls-16"><path class="cls-8" d="M.42,286.46h-76.98V110.29c0-4.86-3.07-9.18-7.67-10.75-32.01-10.91-160.07-47.94-305.98.15-4.63,1.53-7.73,5.91-7.73,10.78v307.83H-76.55v-57.35H.42v-74.5Z"/><path class="cls-14" d="M-340.36,202.71H6.01v99.36h-356.79v-88.94c0-5.75,4.67-10.42,10.42-10.42Z"/><rect class="cls-15" x="-365.79" y="284.15" width="371.8" height="74.5"/><path class="cls-7" d="M-257.78,195.84H15.25v148.95h-285.2v-136.77c0-6.72,5.46-12.18,12.18-12.18Z"/><path class="cls-1" d="M-188.49,195.84H84.53v148.95H-200.67v-136.77c0-6.72,5.46-12.18,12.18-12.18Z"/></g></g></g><g id="ZONE_3_A_-_copie"><path class="cls-8" d="M219.79,190.96c1.05-17.94-26.91-15.7-35.75-14.54-2.14-4.34-4.91-8.64-8.26-12.66.39-.03.8-.06,1.23-.1h.09s0,0,0,0c9.91-.85,29.52-4,24.7-15.65-1.95-4.72-6.72-6.4-12.4-6.48,1.55-5.86,1.88-12.39,1.95-15.37.16-6-6.29-8.89-14.52-9.93-.25-1.09-.52-2.13-.82-3.12l.05.03s18.28-13.15.13-24.26c-14.73-9.01-19.64,2.16-20.97,6.7-3.86-.69-8.28-1.12-13.43-1.43-4.83-.29-9.27-.16-13.28.6-3.17-4.91-10.85-13.93-20.75-5.84-12.09,9.88-3.63,19.56.95,23.52-4.6,11.71-7.65,25.47,10.12,33.11-.13.07-.25.15-.38.23h0s0,0,0,0c-.2.11-.4.24-.6.35-8.91-2.35-36.42-8.43-39.97,5.09-3.01,11.45,13.76,13,26.88,12.46l-.14.43c-.3.87-.6,1.75-.87,2.65l-.24.74s.03,0,.03,0c-.26.9-.52,1.79-.75,2.72-2.66-.49-6.67-.19-8.88,5.05-3.49,8.3,5.7,11.5,5.7,11.5l.07-.18c.09.06.18.13.27.18-.03.24-.06.47-.09.7-.08.74.31,1.47,1.04,2.19,2.24,2.95,28.92,37.46,42.9,22.57,3.93-4.19,3.66-8.51,1.2-12.59.62.04,1.23.07,1.85.11.26.01.51.03.77.04,1.13.06,2.25.11,3.36.16.24,0,.48.02.71.03,1.14.04,2.26.07,3.38.08.21,0,.41,0,.62,0,1.14.01,2.26.02,3.38,0,.18,0,.36,0,.54,0,1.13-.01,2.25-.04,3.35-.08.14,0,.28-.01.43-.02,1.12-.04,2.22-.1,3.3-.17.11,0,.21-.02.31-.02,1.1-.08,2.18-.17,3.22-.27.08,0,.15-.02.22-.02,1.07-.11,2.1-.24,3.1-.39.04,0,.07-.01.11-.02,1.03-.15,2.02-.32,2.96-.51,0,0,0,0,0,0h0c3.88-.78,7.05-1.87,9.15-3.34,6.92,3.24,32.95,14.18,34.03-4.27Z"/><path class="cls-13" d="M102.26,185.34s-9.19-3.2-5.7-11.5c3.49-8.3,11.53-4.22,11.53-4.22l-5.83,15.72Z"/><path class="cls-8" d="M105.51,186.78s-9.22-2.95-5.84-10.23c3.38-7.28,11.45-3.57,11.45-3.57l-5.61,13.8Z"/><path class="cls-3" d="M103.22,183.85s-9.19-3.2-5.7-11.5c3.49-8.3,11.53-4.22,11.53-4.22l-5.83,15.72Z"/><path class="cls-13" d="M161.51,148.07s36.56-16.94,42.95-1.5-30.13,15.96-30.13,15.96l-12.82-14.46Z"/><path class="cls-1" d="M196.15,144.56c-3.99-2.5-10.71.03-10.73,6.92-.02,5.42,6.78,7.35,11.09,4.49,4.31-2.85,4.2-8.56-.35-11.41Z"/><polygon class="cls-8" points="168.76 153.69 177.05 162.41 179.76 162.22 174.73 151.63 168.76 153.69"/><path class="cls-5" d="M162.67,149.55s36.56-16.94,42.95-1.5c6.39,15.44-30.13,15.96-30.13,15.96l-12.82-14.46Z"/><path class="cls-13" d="M138.72,141.07c-27.01-2.01-33.43,20.28-36.21,44.98-1.22,10.8,92.18,20.99,88.69,2.01-3.65-19.85-23.5-44.83-52.48-46.99Z"/><path class="cls-1" d="M179.28,197.14c-.99-12.28-5.92-40.05-30.99-42.27-23.53-2.09-28.32,25-29.22,39.38,17.51,3.99,44.66,6.01,60.21,2.89Z"/><path class="cls-13" d="M184.07,175.37s39.63-7.14,38.39,14.15c-1.24,21.29-35.72,3.45-35.72,3.45l-2.67-17.6Z"/><path class="cls-1" d="M213.55,184.31c-3.99-2.5-10.71.03-10.73,6.92-.02,5.42,6.78,7.35,11.09,4.49,4.31-2.85,4.2-8.56-.35-11.41Z"/><path class="cls-13" d="M103.39,188.02s28.47,38.34,43.07,22.79c14.6-15.54-28.45-32.96-28.45-32.96l-14.62,10.17Z"/><path class="cls-8" d="M106.16,166.07s13.92-1.66,17.39-6.85l-15.91,2.36-1.47,4.48Z"/><path class="cls-13" d="M123.29,145.48s-38.51-11.85-42.76,4.31c-4.25,16.16,30.92,12.61,39.6,11.26s3.16-15.58,3.16-15.58Z"/><path class="cls-1" d="M88.5,146.68c3.62-3.02,10.62-1.42,11.57,5.41.75,5.37-5.72,8.19-10.38,5.95-4.66-2.24-5.32-7.91-1.19-11.36Z"/><path class="cls-13" d="M157.45,95.91s3.24-19.56,21.4-8.46c18.16,11.11-.13,24.26-.13,24.26l-21.27-15.8Z"/><path class="cls-1" d="M163.84,96.38s3.13-10.46,12.06-4.74c8.93,5.72-1.8,12.93-1.8,12.93l-10.26-8.18Z"/><path class="cls-8" d="M121.1,144.34s19.15,14.68,40.64,15.04c7.91.13,11.02-3.08,11.02-3.08,0,0,6.12,2.29,8.47-7.11l-6.36-3.41-53.77-1.44Z"/><path class="cls-2" d="M155.86,167.02c13.65,1.77,19.98-1.37,22.9-4.31-9.29-11.29-23.08-20.37-40.04-21.64-1.04-.08-2-.05-2.99-.06l-2.89.07c-6.09.41-10.93,2.29-14.8,5.26,6.99,6.77,21.25,18.53,37.81,20.68Z"/><path class="cls-13" d="M144.45,92.72c23.91,1.45,33.04,5.1,36.22,28.56,3.18,23.46-17.45,32.69-48.42,26.13-30.97-6.56-25.84-24.38-20.07-38.4,5.77-14.01,17.15-17.21,32.28-16.29Z"/><path class="cls-1" d="M148.54,117.46c10.31-3.81,45.84-6.73,45.47,7.26-.19,7.32-1.91,36.13-19.48,23.58-9.8,8.37-20.77,4.32-37.01-.04-2.83-15.48-3-25.61,11.01-30.79Z"/><path class="cls-8" d="M182.9,119.13s-10.95-1.89-25.96.39c-15.01,2.28,10.33,20.03,18.97,19.75s14.5-19.48,6.99-20.14Z"/><line class="cls-10" x1="168.44" y1="111.39" x2="168.77" y2="114.73"/><line class="cls-10" x1="152.38" y1="112.38" x2="152.89" y2="116.29"/><line class="cls-10" x1="148.86" y1="94.5" x2="150.63" y2="90.4"/><line class="cls-10" x1="144.98" y1="94.06" x2="147.23" y2="84.55"/><path class="cls-13" d="M132.76,96.08s-9.23-19.3-22.33-8.6c-15.74,12.86,3.36,25.39,3.36,25.39l18.98-16.8Z"/><path class="cls-1" d="M126.49,96.65s-5.23-9.68-12.59-4.82c-8.45,5.59,3.51,13.51,3.51,13.51l9.08-8.69Z"/><line class="cls-10" x1="147.43" y1="132.41" x2="147.48" y2="132.81"/><line class="cls-10" x1="143.84" y1="138.07" x2="143.89" y2="138.48"/><line class="cls-10" x1="150.31" y1="139.2" x2="150.36" y2="139.6"/><line class="cls-10" x1="189.09" y1="132.52" x2="189.14" y2="132.92"/><line class="cls-10" x1="186.41" y1="138.77" x2="186.46" y2="139.17"/><line class="cls-10" x1="191.16" y1="138.51" x2="191.21" y2="138.91"/></g></g></svg>