<?xml version="1.0" encoding="UTF-8"?><svg xmlns="http://www.w3.org/2000/svg" xmlns:xlink="http://www.w3.org/1999/xlink" viewBox="0 0 300 300"><defs><style>.cls-1{fill:url(#_40_10_ppp_3);}.cls-2{fill:#ffcb57;}.cls-3{fill:url(#_40_10_ppp);opacity:.15;}.cls-3,.cls-4,.cls-5,.cls-6,.cls-7,.cls-8{mix-blend-mode:multiply;}.cls-9{clip-path:url(#clippath-4);}.cls-4{fill:url(#_40_10_ppp-3);}.cls-4,.cls-7{opacity:.1;}.cls-5{fill:url(#_40_10_ppp-2);}.cls-5,.cls-6,.cls-10{opacity:.25;}.cls-11{fill:#282659;}.cls-12{fill:#1d1061;}.cls-13,.cls-14,.cls-15{fill:none;}.cls-16{clip-path:url(#clippath-1);}.cls-17{fill:#ffdf96;}.cls-18{isolation:isolate;}.cls-10{fill:url(#_40_10_ppp-5);mix-blend-mode:overlay;}.cls-19{clip-path:url(#clippath-3);}.cls-7{fill:url(#_40_10_ppp-4);}.cls-20{fill:#f2f0ec;}.cls-14{stroke-width:2px;}.cls-14,.cls-15{stroke:#1d1061;stroke-linecap:round;stroke-linejoin:round;}.cls-8{fill:url(#_40_10_ppp_4);opacity:.05;}.cls-15{stroke-width:4px;}.cls-21{fill:url(#Dégradé_sans_nom_34-2);}.cls-22{fill:#a5a5a5;}.cls-23{clip-path:url(#clippath-2);}.cls-24{fill:#7a7a7a;}.cls-25{clip-path:url(#clippath);}.cls-26{fill:url(#Dégradé_sans_nom_8);}.cls-27{opacity:.5;}.cls-28{fill:url(#Dégradé_sans_nom_34);}.cls-29{fill:#6a90c6;}</style><clipPath id="clippath"><rect class="cls-13" x="10" y="10" width="280" height="280" rx="20" ry="20"/></clipPath><pattern id="_40_10_ppp_4" x="0" y="0" width="11.34" height="11.34" patternTransform="translate(8146.17 7508.34) scale(2)" patternUnits="userSpaceOnUse" viewBox="0 0 11.34 11.34"><rect class="cls-13" x="0" width="11.34" height="11.34"/><circle class="cls-11" cx="9.7" cy="9.69" r="1.2"/><circle class="cls-11" cx="4.03" cy="9.69" r="1.2"/><path class="cls-11" d="M9.7,5.22c.66,0,1.2-.54,1.2-1.2s-.54-1.2-1.2-1.2-1.2.54-1.2,1.2.54,1.2,1.2,1.2Z"/><path class="cls-11" d="M4.03,5.22c.66,0,1.2-.54,1.2-1.2s-.54-1.2-1.2-1.2-1.2.54-1.2,1.2.54,1.2,1.2,1.2Z"/><path class="cls-11" d="M1.2,8.06c.66,0,1.2-.54,1.2-1.2s-.54-1.2-1.2-1.2S0,6.2,0,6.86s.54,1.2,1.2,1.2Z"/><circle class="cls-11" cx="6.86" cy="6.86" r="1.2"/><path class="cls-11" d="M1.2,2.39c.66,0,1.2-.54,1.2-1.2S1.86,0,1.2,0,0,.54,0,1.2s.54,1.2,1.2,1.2Z"/><circle class="cls-11" cx="6.86" cy="1.2" r="1.2"/></pattern><linearGradient id="Dégradé_sans_nom_8" x1="150" y1="300" x2="150" y2="8.88" gradientUnits="userSpaceOnUse"><stop offset="0" stop-color="#f2f0ec" stop-opacity="0"/><stop offset="1" stop-color="#f2f0ec"/></linearGradient><clipPath id="clippath-1"><rect class="cls-13" x="10" y="10" width="280" height="280" rx="20" ry="20"/></clipPath><pattern id="_40_10_ppp" x="0" y="0" width="10" height="10" patternTransform="translate(7803.48 6218.6) scale(2)" patternUnits="userSpaceOnUse" viewBox="0 0 10 10"><rect class="cls-13" width="10" height="10"/><circle class="cls-12" cx="8.95" cy="8.95" r="1.05"/><circle class="cls-12" cx="3.68" cy="8.95" r="1.05"/><path class="cls-12" d="M8.95,4.74c.58,0,1.05-.47,1.05-1.05s-.47-1.05-1.05-1.05-1.05.47-1.05,1.05.47,1.05,1.05,1.05Z"/><path class="cls-12" d="M3.68,4.74c.58,0,1.05-.47,1.05-1.05s-.47-1.05-1.05-1.05-1.05.47-1.05,1.05.47,1.05,1.05,1.05Z"/><path class="cls-12" d="M1.05,7.37c.58,0,1.05-.47,1.05-1.05s-.47-1.05-1.05-1.05S0,5.73,0,6.32s.47,1.05,1.05,1.05Z"/><circle class="cls-12" cx="6.32" cy="6.32" r="1.05"/><path class="cls-12" d="M1.05,2.11c.58,0,1.05-.47,1.05-1.05S1.63,0,1.05,0,0,.47,0,1.05s.47,1.05,1.05,1.05Z"/><circle class="cls-12" cx="6.32" cy="1.05" r="1.05"/></pattern><clipPath id="clippath-2"><rect class="cls-13" x="10" y="10" width="280" height="280" rx="20" ry="20"/></clipPath><linearGradient id="Dégradé_sans_nom_34" x1="173.37" y1="165.67" x2="173.37" y2="237.13" gradientUnits="userSpaceOnUse"><stop offset="0" stop-color="#ffffb6" stop-opacity=".5"/><stop offset="1" stop-color="#ffffb6" stop-opacity="0"/></linearGradient><linearGradient id="Dégradé_sans_nom_34-2" x1="173.37" y1="128.41" x2="173.37" y2="50.47" xlink:href="#Dégradé_sans_nom_34"/><pattern id="_40_10_ppp_3" x="0" y="0" width="10" height="10" patternTransform="translate(7833.48 6218.6) scale(2)" patternUnits="userSpaceOnUse" viewBox="0 0 10 10"><rect class="cls-13" width="10" height="10"/><circle class="cls-2" cx="8.95" cy="8.95" r="1.05"/><circle class="cls-2" cx="3.68" cy="8.95" r="1.05"/><path class="cls-2" d="M8.95,4.74c.58,0,1.05-.47,1.05-1.05s-.47-1.05-1.05-1.05-1.05.47-1.05,1.05.47,1.05,1.05,1.05Z"/><path class="cls-2" d="M3.68,4.74c.58,0,1.05-.47,1.05-1.05s-.47-1.05-1.05-1.05-1.05.47-1.05,1.05.47,1.05,1.05,1.05Z"/><path class="cls-2" d="M1.05,7.37c.58,0,1.05-.47,1.05-1.05s-.47-1.05-1.05-1.05S0,5.73,0,6.32s.47,1.05,1.05,1.05Z"/><circle class="cls-2" cx="6.32" cy="6.32" r="1.05"/><path class="cls-2" d="M1.05,2.11c.58,0,1.05-.47,1.05-1.05S1.63,0,1.05,0,0,.47,0,1.05s.47,1.05,1.05,1.05Z"/><circle class="cls-2" cx="6.32" cy="1.05" r="1.05"/></pattern><pattern id="_40_10_ppp-2" patternTransform="translate(7833.48 6218.6) scale(2)" xlink:href="#_40_10_ppp"/><clipPath id="clippath-3"><rect class="cls-13" x="360" y="-368.35" width="280" height="280" rx="20" ry="20"/></clipPath><pattern id="_40_10_ppp-3" patternTransform="translate(7769.01 6664.6) scale(2)" xlink:href="#_40_10_ppp"/><clipPath id="clippath-4"><rect class="cls-13" x="10" y="-368.35" width="280" height="280" rx="20" ry="20"/></clipPath><pattern id="_40_10_ppp-4" patternTransform="translate(7779.01 6664.6) scale(2)" xlink:href="#_40_10_ppp"/><pattern id="_40_10_ppp-5" patternTransform="translate(7779.01 6664.6) scale(2)" xlink:href="#_40_10_ppp"/></defs><g class="cls-18"><g id="Calque_25"><rect class="cls-20" x="10" y="10" width="280" height="280" rx="20" ry="20"/><g class="cls-25"><rect class="cls-8" y="0" width="300" height="300"/><rect class="cls-26" x="0" y="0" width="300" height="300"/></g></g><g id="BG_-_copie_6"><g class="cls-27"><g class="cls-16"><polygon class="cls-12" points="90.08 252.45 90.08 264.57 101.63 264.57 101.63 503.2 275.51 503.2 275.51 264.57 201.51 258.51 201.51 252.45 90.08 252.45"/><rect class="cls-22" x="105.71" y="257.12" width="99.88" height="244.69"/><line class="cls-14" x1="117.83" y1="319.76" x2="117.83" y2="268.38"/><polygon class="cls-3" points="105.71 263.18 105.71 268.38 117.83 268.38 149.88 284.29 205.59 284.29 205.59 263.18 105.71 263.18"/><line class="cls-14" x1="148.61" y1="268.38" x2="148.61" y2="471.02"/><rect class="cls-24" x="94.16" y="251.06" width="111.42" height="12.12"/><rect class="cls-24" x="203.91" y="257.12" width="73.07" height="244.69"/><rect class="cls-24" x="195.46" y="251.06" width="81.52" height="12.12"/></g></g></g><g id="ZONE_3_B_-_copie"><g class="cls-23"><path class="cls-12" d="M233.21,196.25l-40.24-71.46h-47.52l-40.24,71.46h34.83c-6.95,7.26-11.24,17.08-11.24,27.92s4.54,21.3,11.88,28.62h57.06c7.34-7.32,11.88-17.44,11.88-28.62s-4.29-20.67-11.24-27.92h34.83Z"/><path class="cls-17" d="M144.85,251.33h57.06c7.34-7.32,11.88-17.44,11.88-28.62,0-22.32-18.09-40.41-40.41-40.41s-40.41,18.09-40.41,40.41c0,11.18,4.54,21.3,11.88,28.62Z"/><polygon class="cls-28" points="273.79 240.59 72.96 240.59 136.09 169.14 210.66 169.14 273.79 240.59"/><polygon class="cls-21" points="241.53 55.15 105.21 55.15 153.86 126.61 192.89 126.61 241.53 55.15"/><g class="cls-6"><polygon class="cls-1" points="280.5 244.03 79.66 244.03 142.8 172.57 217.36 172.57 280.5 244.03"/><polygon class="cls-1" points="248.24 58.59 111.92 58.59 160.57 130.04 199.59 130.04 248.24 58.59"/></g><polygon class="cls-29" points="237.37 194.79 109.38 194.79 149.61 123.34 197.14 123.34 237.37 194.79"/><path class="cls-15" d="M202.71,246.66h5.8c3.02,0,5.47,2.45,5.47,5.47h0c0,3.02-2.45,5.47-5.47,5.47h-15.86c-3.8,0-6.88,3.08-6.88,6.88v54.35c0,9.15,3.64,17.93,10.11,24.4l21.26,21.26c6.47,6.47,15.25,10.11,24.4,10.11h0"/><circle class="cls-20" cx="185.77" cy="304.09" r="11.29"/><circle class="cls-5" cx="187.83" cy="305.94" r="10.09"/></g></g><g id="BG_-_copie_7"><g class="cls-27"><g class="cls-19"><path class="cls-4" d="M920.77,39.96c0,8.25-142.68,8.25-318.69,8.25s-318.69-3.69-318.69-8.25,142.68-8.25,318.69-8.25,318.69,0,318.69,8.25Z"/></g></g><g class="cls-27"><g class="cls-9"><path class="cls-12" d="M350.42-91.89h-76.98v-176.17c0-4.86-3.07-9.18-7.67-10.75-32.01-10.91-160.07-47.94-305.98.15-4.63,1.53-7.73,5.91-7.73,10.78V39.96h321.38V-17.39h76.98v-74.5Z"/><path class="cls-7" d="M570.77,39.96c0,8.25-142.68,8.25-318.69,8.25s-318.69-3.69-318.69-8.25,142.68-8.25,318.69-8.25,318.69,0,318.69,8.25Z"/><path class="cls-24" d="M271.36-281.12c-32.01-10.91-160.07-47.94-305.98.15-4.63,1.53-7.73,5.91-7.73,10.78V37.64h321.38v-308.02c0-4.86-3.07-9.18-7.67-10.75Z"/><polygon class="cls-10" points="-8.89 -15.89 44.12 41.45 285.94 41.45 285.94 -15.89 -8.89 -15.89"/><polygon class="cls-12" points="-15.79 -19.7 -15.79 -17.84 278.87 4.58 279.03 -19.7 -15.79 -19.7"/></g></g></g></g></svg>