<?xml version="1.0" encoding="UTF-8"?><svg xmlns="http://www.w3.org/2000/svg" xmlns:xlink="http://www.w3.org/1999/xlink" viewBox="0 0 300 300"><defs><style>.cls-1{fill:#ffcb57;}.cls-2{fill:#777;}.cls-3{fill:#fff;}.cls-4{fill:#282659;}.cls-5{fill:#1d1061;}.cls-6{fill:#9b9b9b;}.cls-7,.cls-8,.cls-9,.cls-10{fill:none;}.cls-11{fill:#5cc6a0;}.cls-8{stroke:#6a90c6;}.cls-8,.cls-9,.cls-10{stroke-linecap:round;stroke-linejoin:round;stroke-width:2px;}.cls-12{clip-path:url(#clippath-1);}.cls-13{isolation:isolate;}.cls-14{fill:url(#_40_10_ppp_3);opacity:.5;}.cls-14,.cls-15,.cls-16{mix-blend-mode:multiply;}.cls-17{clip-path:url(#clippath-3);}.cls-18{fill:#f2f0ec;}.cls-19{fill:#ff7461;}.cls-15{fill:url(#_40_10_ppp);opacity:.1;}.cls-20{fill:url(#_40_10_ppp_6);}.cls-20,.cls-21{mix-blend-mode:overlay;opacity:.25;}.cls-9{stroke:#9b9b9b;}.cls-10{stroke:#1d1061;}.cls-16{fill:url(#_40_10_ppp_4);opacity:.05;}.cls-22{fill:#dedede;}.cls-23{fill:#a5a5a5;}.cls-24{clip-path:url(#clippath-2);}.cls-25{clip-path:url(#clippath);}.cls-26{fill:url(#Dégradé_sans_nom_8);}.cls-21{fill:url(#_40_10_ppp-2);}.cls-27{fill:#fdfdfd;}</style><clipPath id="clippath"><rect class="cls-7" x="10" y="10" width="280" height="280" rx="20" ry="20"/></clipPath><pattern id="_40_10_ppp_4" x="0" y="0" width="11.34" height="11.34" patternTransform="translate(7397.83 5535.43) scale(2)" patternUnits="userSpaceOnUse" viewBox="0 0 11.34 11.34"><rect class="cls-7" x="0" width="11.34" height="11.34"/><circle class="cls-4" cx="9.7" cy="9.69" r="1.2"/><circle class="cls-4" cx="4.03" cy="9.69" r="1.2"/><path class="cls-4" d="M9.7,5.22c.66,0,1.2-.54,1.2-1.2s-.54-1.2-1.2-1.2-1.2.54-1.2,1.2.54,1.2,1.2,1.2Z"/><path class="cls-4" d="M4.03,5.22c.66,0,1.2-.54,1.2-1.2s-.54-1.2-1.2-1.2-1.2.54-1.2,1.2.54,1.2,1.2,1.2Z"/><path class="cls-4" d="M1.2,8.06c.66,0,1.2-.54,1.2-1.2s-.54-1.2-1.2-1.2S0,6.2,0,6.86s.54,1.2,1.2,1.2Z"/><circle class="cls-4" cx="6.86" cy="6.86" r="1.2"/><path class="cls-4" d="M1.2,2.39c.66,0,1.2-.54,1.2-1.2S1.86,0,1.2,0,0,.54,0,1.2s.54,1.2,1.2,1.2Z"/><circle class="cls-4" cx="6.86" cy="1.2" r="1.2"/></pattern><linearGradient id="Dégradé_sans_nom_8" x1="150" y1="300" x2="150" y2="8.88" gradientUnits="userSpaceOnUse"><stop offset="0" stop-color="#f2f0ec" stop-opacity="0"/><stop offset="1" stop-color="#f2f0ec"/></linearGradient><clipPath id="clippath-1"><rect class="cls-7" x="-340" y="10" width="280" height="280" rx="20" ry="20"/></clipPath><clipPath id="clippath-2"><rect class="cls-7" x="10" y="10" width="280" height="280" rx="20" ry="20"/></clipPath><pattern id="_40_10_ppp_6" x="0" y="0" width="11.34" height="11.34" patternTransform="translate(11735.64 10762.28) scale(2.76)" patternUnits="userSpaceOnUse" viewBox="0 0 11.34 11.34"><rect class="cls-7" x="0" y="0" width="11.34" height="11.34"/><circle class="cls-4" cx="9.57" cy="9.69" r="1.2"/><circle class="cls-4" cx="3.99" cy="9.69" r="1.2"/><path class="cls-4" d="M9.57,5.22c.66,0,1.2-.54,1.2-1.2s-.54-1.2-1.2-1.2-1.2.54-1.2,1.2.54,1.2,1.2,1.2Z"/><path class="cls-4" d="M3.99,5.22c.66,0,1.2-.54,1.2-1.2s-.54-1.2-1.2-1.2-1.2.54-1.2,1.2.54,1.2,1.2,1.2Z"/><path class="cls-4" d="M1.2,8.06c.66,0,1.2-.54,1.2-1.2s-.54-1.2-1.2-1.2S0,6.2,0,6.86s.54,1.2,1.2,1.2Z"/><circle class="cls-4" cx="6.78" cy="6.86" r="1.2"/><path class="cls-4" d="M1.2,2.39c.66,0,1.2-.54,1.2-1.2S1.86,0,1.2,0,0,.54,0,1.2s.54,1.2,1.2,1.2Z"/><circle class="cls-4" cx="6.78" cy="1.2" r="1.2"/></pattern><pattern id="_40_10_ppp" x="0" y="0" width="10" height="10" patternTransform="translate(11718.07 10821.76) scale(2.76)" patternUnits="userSpaceOnUse" viewBox="0 0 10 10"><rect class="cls-7" width="10" height="10"/><circle class="cls-5" cx="8.95" cy="8.95" r="1.05"/><circle class="cls-5" cx="3.68" cy="8.95" r="1.05"/><path class="cls-5" d="M8.95,4.74c.58,0,1.05-.47,1.05-1.05s-.47-1.05-1.05-1.05-1.05.47-1.05,1.05.47,1.05,1.05,1.05Z"/><path class="cls-5" d="M3.68,4.74c.58,0,1.05-.47,1.05-1.05s-.47-1.05-1.05-1.05-1.05.47-1.05,1.05.47,1.05,1.05,1.05Z"/><path class="cls-5" d="M1.05,7.37c.58,0,1.05-.47,1.05-1.05s-.47-1.05-1.05-1.05S0,5.73,0,6.32s.47,1.05,1.05,1.05Z"/><circle class="cls-5" cx="6.32" cy="6.32" r="1.05"/><path class="cls-5" d="M1.05,2.11c.58,0,1.05-.47,1.05-1.05S1.63,0,1.05,0,0,.47,0,1.05s.47,1.05,1.05,1.05Z"/><circle class="cls-5" cx="6.32" cy="1.05" r="1.05"/></pattern><clipPath id="clippath-3"><path class="cls-7" d="M115.97,177.2c.43,5.17-35.74,5.17-35.74,5.17,0,0,30.57,4.72,30.57,12.06,0,3.88-31.86,4.31-31.86,4.31,0,0,1.07,31.18-6.27,39.58h170.71c-7.41-8.29-6.33-39.65-6.33-39.65,0,0-31.86-.43-31.86-4.31,0-7.33,30.57-12.06,30.57-12.06,0,0-36.17,0-35.74-5.17.69-8.27,31.14-15.33,45.18-15.18-13.85-67.91-28.66-103.89-28.66-103.89-44.13,6.97-117.08,0-117.08,0-12.58,25.08-22.41,66.91-29.28,103.96,13.76-.36,45.08,6.78,45.78,15.18Z"/></clipPath><pattern id="_40_10_ppp-2" patternTransform="translate(2950.94 1229.11) rotate(-.41) scale(1.63)" xlink:href="#_40_10_ppp"/><pattern id="_40_10_ppp_3" x="0" y="0" width="10" height="10" patternTransform="translate(-5831.19 1159.97) rotate(26.34) scale(1.24)" patternUnits="userSpaceOnUse" viewBox="0 0 10 10"><rect class="cls-7" width="10" height="10"/><circle class="cls-1" cx="8.95" cy="8.95" r="1.05"/><circle class="cls-1" cx="3.68" cy="8.95" r="1.05"/><path class="cls-1" d="M8.95,4.74c.58,0,1.05-.47,1.05-1.05s-.47-1.05-1.05-1.05-1.05.47-1.05,1.05.47,1.05,1.05,1.05Z"/><path class="cls-1" d="M3.68,4.74c.58,0,1.05-.47,1.05-1.05s-.47-1.05-1.05-1.05-1.05.47-1.05,1.05.47,1.05,1.05,1.05Z"/><path class="cls-1" d="M1.05,7.37c.58,0,1.05-.47,1.05-1.05s-.47-1.05-1.05-1.05S0,5.73,0,6.32s.47,1.05,1.05,1.05Z"/><circle class="cls-1" cx="6.32" cy="6.32" r="1.05"/><path class="cls-1" d="M1.05,2.11c.58,0,1.05-.47,1.05-1.05S1.63,0,1.05,0,0,.47,0,1.05s.47,1.05,1.05,1.05Z"/><circle class="cls-1" cx="6.32" cy="1.05" r="1.05"/></pattern></defs><g class="cls-13"><g id="Calque_25"><rect class="cls-18" x="10" y="10" width="280" height="280" rx="20" ry="20"/><g class="cls-25"><rect class="cls-16" width="300" height="300"/><rect class="cls-26" width="300" height="300"/></g></g><g id="ZONE_2_Tshirt"><g class="cls-12"><path class="cls-5" d="M-91.83,244.16c15.53-4.22,94.87-26.46,94.19-40.44-.68-14.05-65.53-75.65-77.66-87.06l3.22-4.84-65.98-50.07c-10.78,1.7-23.28,2.57-36.02,2.91v-30.72h0c35.46-.86,68.02-4.03,83.72-10.86.92-2.77,1.05-7.82.55-14.48,3.05,1.19,6.37,1.87,9.84,1.87,14.98,0,27.13-12.15,27.13-27.13s-12.15-27.13-27.13-27.13c-6.53,0-12.53,2.31-17.21,6.16-9.09-44.02-24.01-97.54-31.82-113.17-32.2-6.44-109.48-6.44-148.12,6.44-7.08,19.47-15.3,66.24-20.42,106.6-4.66-3.77-10.58-6.03-17.04-6.03-14.98,0-27.13,12.15-27.13,27.13s12.15,27.13,27.13,27.13c4.53,0,8.79-1.13,12.55-3.09-.5,8.44-.6,15.17-.16,19.24,11.13,3.42,44.58,6.47,83.53,7.33h0v30.19c-21-.91-36.49-2.39-36.49-2.39l-65.98,50.07,3.18,4.77c-12.65,11.2-81.79,73.04-82.48,87.13-.68,13.98,82.62,36.22,98.92,40.44v.03s4.89,2.22,12.04.98l.82,11.24,30.48,420.17,3.01.16-32.35,14.49h98.75v-10.96l1.81.1-11.85-404.46c1.97.04,3.97.06,6.06.06,1.23,0,2.61-.06,3.88-.08l54.18,404.47,2.26-.12v10.98H-33.67l-32.39-14.51,2.6-.14-39.1-431.27c6.17.77,10.33-.96,10.73-1.14ZM-284.43,165.74c-2.45.07-4.41.35-5.45.94-3.13,1.76-5.64,14.58-7.44,28.02l-.86-.23s-.02-.02-.03-.02c0,0-.02,0-.03,0l-39.94-10.62c0-.08-.03-.15-.03-.23l40.21-37.11,3.58,5.37,15.64-14.15c-2.06,9.42-3.94,18.87-5.64,28.03ZM-103.35,166.61c-1.13-.63-3.31-.92-6.05-.95-2.15-10.53-4.32-20.27-6.45-29.25l17.08,15.45,3.58-5.36,11.02,10.2,29.25,27.07-40.97,10.93c-1.81-13.47-4.31-26.33-7.45-28.09Z"/><path class="cls-22" d="M-72.63,111.15S6.22,184.53,6.97,200.03s-96.83,41.15-96.83,41.15l-6.46-48.82,46-12.27-44.71-41.39,22.39-27.56Z"/></g><g class="cls-24"><path class="cls-5" d="M258.17,244.16c15.53-4.22,94.87-26.46,94.19-40.44-.68-14.05-65.53-75.65-77.66-87.06l3.22-4.84-65.98-50.07c-10.78,1.7-23.28,2.57-36.02,2.91v-30.72h0c35.46-.86,68.02-4.03,83.72-10.86.92-2.77,1.05-7.82.55-14.48,3.05,1.19,6.37,1.87,9.84,1.87,14.98,0,27.13-12.15,27.13-27.13s-12.15-27.13-27.13-27.13c-6.53,0-12.53,2.31-17.21,6.16-9.09-44.02-24.01-97.54-31.82-113.17-32.2-6.44-109.48-6.44-148.12,6.44-7.08,19.47-15.3,66.24-20.42,106.6-4.66-3.77-10.58-6.03-17.04-6.03-14.98,0-27.13,12.15-27.13,27.13s12.15,27.13,27.13,27.13c4.53,0,8.79-1.13,12.55-3.09-.5,8.44-.6,15.17-.16,19.24,11.13,3.42,44.58,6.47,83.53,7.33h0v30.19c-21-.91-36.49-2.39-36.49-2.39L28.88,111.82l3.18,4.77c-12.65,11.2-81.79,73.04-82.48,87.13-.68,13.98,82.62,36.22,98.92,40.44v.03s4.89,2.22,12.04.98l.82,11.24,30.48,420.17,3.01.16-32.35,14.49h98.75v-10.96l1.81.1-11.85-404.46c1.97.04,3.97.06,6.06.06,1.23,0,2.61-.06,3.88-.08l54.18,404.47,2.26-.12v10.98h98.75l-32.39-14.51,2.6-.14-39.1-431.27c6.17.77,10.33-.96,10.73-1.14ZM65.57,165.74c-2.45.07-4.41.35-5.45.94-3.13,1.76-5.64,14.58-7.44,28.02l-.86-.23s-.02-.02-.03-.02c0,0-.02,0-.03,0l-39.94-10.62c0-.08-.03-.15-.03-.23l40.21-37.11,3.58,5.37,15.64-14.15c-2.06,9.42-3.94,18.87-5.64,28.03ZM246.65,166.61c-1.13-.63-3.31-.92-6.05-.95-2.15-10.53-4.32-20.27-6.45-29.25l17.08,15.45,3.58-5.36,11.02,10.2,29.25,27.07-40.97,10.93c-1.81-13.47-4.31-26.33-7.45-28.09Z"/><rect class="cls-22" x="135.96" y="21.02" width="44.57" height="68.45"/><path class="cls-2" d="M180.54,39.46v-18.44h-44.57v29.73c20.98-.14,36.06-6.42,44.57-11.3Z"/><circle class="cls-22" cx="274.28" cy="-20.32" r="27.13"/><path class="cls-22" d="M77.12-148.02c38.64-12.88,115.92-12.88,148.12-6.44C238.12-128.7,270.32.1,263.88,19.42c-39.35,17.11-186.63,11.29-211.82,3.54-2.58-23.9,12.92-137.59,25.06-170.98Z"/><polygon class="cls-23" points="64.62 234.21 96.44 672.89 167.66 676.67 155.79 271.33 165.64 271.33 219.94 676.67 291.16 672.89 251.38 234.21 64.62 234.21"/><path class="cls-2" d="M251.38,234.21H64.62l1.34,18.51c65.63.57,167.26-8.52,186.16-10.27l-.75-8.24Z"/><path class="cls-10" d="M116.2,266.97s42.89,9.22,103.1-1.32"/><path class="cls-22" d="M277.37,111.15s78.85,73.38,79.6,88.88-96.83,41.15-96.83,41.15l-6.46-48.82,46-12.27-44.71-41.39,22.39-27.56Z"/><path class="cls-2" d="M283.12,116.57c-3.58-3.4-5.75-5.42-5.75-5.42l-22.39,27.56,15.46,14.31c6.63-10.65,10.61-26.22,12.68-36.45Z"/><polygon class="cls-6" points="216.55 58.07 282.53 108.14 255.84 148.18 228.71 123.64 216.55 58.07"/><path class="cls-22" d="M38.66,111.15s-83.71,73.38-84.47,88.88c-.76,15.5,101.69,41.15,101.69,41.15l6.46-48.82-46.13-12.27,44.84-41.39-22.39-27.56Z"/><path class="cls-2" d="M46.93,151.74l14.12-13.03-22.39-27.56s-1.38,1.21-3.77,3.33c2.67,10.6,7.07,26.34,12.04,37.25Z"/><path class="cls-10" d="M14.92,180.09s-9.1-2.27-16.1,0"/><polygon class="cls-6" points="99.47 58.07 33.49 108.14 60.19 148.18 87.31 123.64 99.47 58.07"/><path class="cls-20" d="M99.42,75.11s-42.4,27.23-56.88,41.02l17.58,28.61,31.02-24.13,8.27-45.5Z"/><path class="cls-23" d="M99.47,58.07s72.94,6.97,117.08,0c0,0,26.02,63.18,41.35,180.25H58.6s14.35-127.36,40.87-180.25Z"/><path class="cls-22" d="M262.03,224.07s-3.88-57.27-10.76-61.14c-6.89-3.88-50.41,4.3-51.24,14.21-.43,5.17,35.74,5.17,35.74,5.17,0,0-30.57,4.72-30.57,12.06,0,3.88,31.86,4.31,31.86,4.31,0,0-1.29,37.46,8.61,41.33,9.9,3.88,17.22.43,17.22.43l-.86-16.36Z"/><path class="cls-22" d="M53.97,224.14s3.88-57.27,10.76-61.14c6.89-3.88,50.41,4.3,51.24,14.21.43,5.17-35.74,5.17-35.74,5.17,0,0,30.57,4.72,30.57,12.06,0,3.88-31.86,4.31-31.86,4.31,0,0,1.29,37.46-8.61,41.33-9.9,3.88-17.22.43-17.22.43l.86-16.36Z"/><circle class="cls-22" cx="39.67" cy="-20.32" r="27.13"/><path class="cls-9" d="M132.77,64.4s10.7,4.94,25.51,4.94"/><path class="cls-10" d="M56.1,192.35s-3.98,21.02-.57,38.64"/><path class="cls-10" d="M260.09,192.92s2.84,21.59,1.14,35.8"/></g><polygon class="cls-27" points="216.55 58.07 282.53 108.14 255.84 148.18 228.71 123.64 216.55 58.07"/><polygon class="cls-27" points="99.47 58.07 33.49 108.14 60.19 148.18 87.31 123.64 99.47 58.07"/><path class="cls-15" d="M99.42,75.11s-42.4,27.23-56.88,41.02l17.58,28.61,31.02-24.13,8.27-45.5Z"/><path class="cls-3" d="M115.97,177.2c.43,5.17-35.74,5.17-35.74,5.17,0,0,30.57,4.72,30.57,12.06,0,3.88-31.86,4.31-31.86,4.31,0,0,1.07,31.18-6.27,39.58h170.71c-7.41-8.29-6.33-39.65-6.33-39.65,0,0-31.86-.43-31.86-4.31,0-7.33,30.57-12.06,30.57-12.06,0,0-36.17,0-35.74-5.17.69-8.27,31.14-15.33,45.18-15.18-13.85-67.91-28.66-103.89-28.66-103.89-44.13,6.97-117.08,0-117.08,0-12.58,25.08-22.41,66.91-29.28,103.96,13.76-.36,45.08,6.78,45.78,15.18Z"/><path class="cls-8" d="M132.77,64.4s10.7,4.94,25.51,4.94"/><g class="cls-17"><circle class="cls-19" cx="155.9" cy="144.97" r="43.15"/><circle class="cls-21" cx="158.25" cy="146.41" r="39.8" transform="translate(-57.17 154.78) rotate(-45)"/><path class="cls-5" d="M196.84,133.22c.92-1.86.93-3.91.24-5.71,3.96-3.32,9.48-7.85,3.81-14.03-1.39-1.74-3.66-3.62-7.12-5.64-9.91-5.78-18.1-5.96-25.29,1.94-1.03,1.13-2.24,2.42-3.58,3.83-.3-.16-.59-.32-.89-.47.39-2.94-1.07-5.93-3.87-7.31-3.52-1.74-7.8-.3-9.54,3.22s-.3,7.8,3.22,9.54c2.06,1.02,4.36.92,6.27,0-9.53,9.77-22.79,22.94-32.95,33.76.34-2.91-1.11-5.84-3.89-7.21-3.52-1.74-7.8-.3-9.54,3.22-1.74,3.52-.3,7.8,3.22,9.54,1.48.73,3.08.87,4.58.57-3.64,4.07-6.5,7.52-8.05,9.91-4.47,6.91-5.07,11.09-1.02,15.54,1.63,2.03,4.22,4.08,7.87,6.45,7.92,5.12,15.93,6.19,22.82-3.32,1.8-2.48,4.95-6.27,8.83-10.74,3.14.73,6.49-.75,7.98-3.76.9-1.81.94-3.82.3-5.58,9.67-10.74,20.85-22.74,27.84-30.2,3.35,1.19,7.13-.26,8.74-3.52Z"/><path class="cls-5" d="M196.7,108.89c-9.91-5.78-18.1-5.96-25.29,1.94-11.96,13.12-47.75,47.38-55,58.58-6.29,9.71-4.96,14.04,6.24,21.29,7.92,5.12,15.93,6.19,22.82-3.32,8.69-12,48.88-54.4,51.59-57.39,3.75-4.12,17.51-10.67-.36-21.1Z"/><path class="cls-11" d="M196.1,108.19c-9.91-5.78-18.1-5.96-25.29,1.94-11.96,13.12-47.75,47.38-55,58.58-6.29,9.71-4.96,14.04,6.24,21.29,7.92,5.12,15.93,6.19,22.82-3.32,8.69-12,48.88-54.4,51.59-57.39,3.75-4.12,17.51-10.67-.36-21.1Z"/><path class="cls-23" d="M127.47,155.64s4.34,3.88,3.12,7.4l12.41,6.94,4.15-3.81-19.68-10.54Z"/><circle class="cls-1" cx="122.43" cy="151.86" r="7.12"/><circle class="cls-14" cx="123.81" cy="152.93" r="6.1"/><path class="cls-27" d="M124.58,150.18c7.41,3.95,32.43,17.31,32.43,17.31l-3.34,4.05-31.5-16.82c-1.34-.72-1.77-2.44-.92-3.7h0c.74-1.09,2.17-1.46,3.33-.84Z"/><circle class="cls-1" cx="155.9" cy="169.72" r="7.12"/><circle class="cls-14" cx="157.75" cy="171.38" r="6.1"/><path class="cls-23" d="M164.36,116.34s4.34,3.88,3.12,7.4l12.41,6.94,4.15-3.81-19.68-10.54Z"/><circle class="cls-1" cx="159.31" cy="112.55" r="7.12"/><circle class="cls-14" cx="160.69" cy="113.62" r="6.1"/><path class="cls-27" d="M161.46,110.88c7.41,3.95,32.43,17.31,32.43,17.31l-3.34,4.05-31.5-16.82c-1.34-.72-1.77-2.44-.92-3.7h0c.74-1.09,2.17-1.46,3.33-.84Z"/><circle class="cls-1" cx="192.78" cy="130.41" r="7.12"/><circle class="cls-14" cx="194.63" cy="132.08" r="6.1"/></g></g></g></svg>