<?xml version="1.0" encoding="UTF-8"?><svg xmlns="http://www.w3.org/2000/svg" xmlns:xlink="http://www.w3.org/1999/xlink" viewBox="0 0 300 300"><defs><style>.cls-1{clip-path:url(#clippath-6);}.cls-2{clip-path:url(#clippath-7);}.cls-3{stroke:#f2f0ec;stroke-width:.5px;}.cls-3,.cls-4,.cls-5,.cls-6,.cls-7,.cls-8{fill:none;}.cls-3,.cls-5,.cls-6,.cls-7,.cls-8{stroke-linecap:round;stroke-linejoin:round;}.cls-3,.cls-9,.cls-10,.cls-11,.cls-12,.cls-13,.cls-14{mix-blend-mode:overlay;}.cls-15{fill:#ffcb57;}.cls-16{clip-path:url(#clippath-4);}.cls-17{fill:#777;}.cls-18{fill:#d07b73;mix-blend-mode:soft-light;}.cls-19{fill:url(#Dégradé_sans_nom_51-2);mix-blend-mode:hard-light;}.cls-20{clip-path:url(#clippath-9);}.cls-21{clip-path:url(#clippath-10);}.cls-22{fill:#fff;}.cls-23{mix-blend-mode:lighten;}.cls-23,.cls-24{fill:#f2f0ec;}.cls-23,.cls-25{opacity:.75;}.cls-26{fill:#282659;}.cls-27{fill:#1d1061;}.cls-28{fill:#9b9b9b;}.cls-5{stroke:#6a90c6;}.cls-5,.cls-7,.cls-8{stroke-width:2px;}.cls-29{fill:url(#Dégradé_sans_nom_51);}.cls-30{fill:#db6b4c;}.cls-9{fill:url(#_40_10_ppp-3);}.cls-9,.cls-10,.cls-11,.cls-12,.cls-13,.cls-14{opacity:.25;}.cls-31{isolation:isolate;}.cls-32{clip-path:url(#clippath-5);}.cls-33{clip-path:url(#clippath-8);}.cls-6,.cls-8{stroke:#1d1061;}.cls-10{fill:url(#_40_10_ppp-5);}.cls-34{fill:#cd4d35;}.cls-35{fill:url(#_40_10_ppp);opacity:.1;}.cls-35,.cls-36{mix-blend-mode:multiply;}.cls-11{fill:url(#_40_10_ppp_6);}.cls-37,.cls-25{fill:#ffa544;}.cls-38{mix-blend-mode:screen;}.cls-7{stroke:#9b9b9b;}.cls-36{fill:url(#_40_10_ppp_4);opacity:.05;}.cls-39{fill:url(#Dégradé_sans_nom_64);}.cls-40{fill:#dedede;}.cls-41{fill:#a5a5a5;}.cls-12{fill:url(#_40_10_ppp-4);}.cls-13{fill:url(#_40_10_ppp-6);}.cls-42{clip-path:url(#clippath);}.cls-43{fill:url(#Dégradé_sans_nom_8);}.cls-14{fill:url(#_40_10_ppp-2);}.cls-44{fill:#fdfdfd;}.cls-45{fill:#6a90c6;}</style><clipPath id="clippath"><rect class="cls-4" x="10" y="10" width="280" height="280" rx="20" ry="20"/></clipPath><pattern id="_40_10_ppp_4" x="0" y="0" width="11.34" height="11.34" patternTransform="translate(7511.21 5535.43) scale(2)" patternUnits="userSpaceOnUse" viewBox="0 0 11.34 11.34"><rect class="cls-4" x="0" width="11.34" height="11.34"/><circle class="cls-26" cx="9.7" cy="9.69" r="1.2"/><circle class="cls-26" cx="4.03" cy="9.69" r="1.2"/><path class="cls-26" d="M9.7,5.22c.66,0,1.2-.54,1.2-1.2s-.54-1.2-1.2-1.2-1.2.54-1.2,1.2.54,1.2,1.2,1.2Z"/><path class="cls-26" d="M4.03,5.22c.66,0,1.2-.54,1.2-1.2s-.54-1.2-1.2-1.2-1.2.54-1.2,1.2.54,1.2,1.2,1.2Z"/><path class="cls-26" d="M1.2,8.06c.66,0,1.2-.54,1.2-1.2s-.54-1.2-1.2-1.2S0,6.2,0,6.86s.54,1.2,1.2,1.2Z"/><circle class="cls-26" cx="6.86" cy="6.86" r="1.2"/><path class="cls-26" d="M1.2,2.39c.66,0,1.2-.54,1.2-1.2S1.86,0,1.2,0,0,.54,0,1.2s.54,1.2,1.2,1.2Z"/><circle class="cls-26" cx="6.86" cy="1.2" r="1.2"/></pattern><linearGradient id="Dégradé_sans_nom_8" x1="150" y1="300" x2="150" y2="8.88" gradientUnits="userSpaceOnUse"><stop offset="0" stop-color="#f2f0ec" stop-opacity="0"/><stop offset="1" stop-color="#f2f0ec"/></linearGradient><clipPath id="clippath-1"><rect class="cls-4" x="-340" y="-340" width="280" height="280" rx="20" ry="20"/></clipPath><clipPath id="clippath-2"><path class="cls-4" d="M-25.17-213.18h-92.94v-94.72c0-5.24-3.31-9.9-8.27-11.59-34.51-11.76-172.56-51.68-329.85.17-4.99,1.65-8.34,6.37-8.34,11.62V24.15H-118.11v-61.82H-35.13v-14.94H49.52v-160.57H-25.17Z"/></clipPath><clipPath id="clippath-3"><rect class="cls-4" x="-1350.81" y="-873.51" width="1386.64" height="1243.35"/></clipPath><clipPath id="clippath-4"><rect class="cls-4" x="-340" y="10" width="280" height="280" rx="20" ry="20"/></clipPath><clipPath id="clippath-5"><rect class="cls-4" x="10" y="10" width="280" height="280" rx="20" ry="20"/></clipPath><pattern id="_40_10_ppp_6" x="0" y="0" width="11.34" height="11.34" patternTransform="translate(12454.29 10762.28) scale(2.76)" patternUnits="userSpaceOnUse" viewBox="0 0 11.34 11.34"><rect class="cls-4" x="0" y="0" width="11.34" height="11.34"/><circle class="cls-26" cx="9.57" cy="9.69" r="1.2"/><circle class="cls-26" cx="3.99" cy="9.69" r="1.2"/><path class="cls-26" d="M9.57,5.22c.66,0,1.2-.54,1.2-1.2s-.54-1.2-1.2-1.2-1.2.54-1.2,1.2.54,1.2,1.2,1.2Z"/><path class="cls-26" d="M3.99,5.22c.66,0,1.2-.54,1.2-1.2s-.54-1.2-1.2-1.2-1.2.54-1.2,1.2.54,1.2,1.2,1.2Z"/><path class="cls-26" d="M1.2,8.06c.66,0,1.2-.54,1.2-1.2s-.54-1.2-1.2-1.2S0,6.2,0,6.86s.54,1.2,1.2,1.2Z"/><circle class="cls-26" cx="6.78" cy="6.86" r="1.2"/><path class="cls-26" d="M1.2,2.39c.66,0,1.2-.54,1.2-1.2S1.86,0,1.2,0,0,.54,0,1.2s.54,1.2,1.2,1.2Z"/><circle class="cls-26" cx="6.78" cy="1.2" r="1.2"/></pattern><pattern id="_40_10_ppp" x="0" y="0" width="10" height="10" patternTransform="translate(12434.55 10821.76) scale(2.76)" patternUnits="userSpaceOnUse" viewBox="0 0 10 10"><rect class="cls-4" width="10" height="10"/><circle class="cls-27" cx="8.95" cy="8.95" r="1.05"/><circle class="cls-27" cx="3.68" cy="8.95" r="1.05"/><path class="cls-27" d="M8.95,4.74c.58,0,1.05-.47,1.05-1.05s-.47-1.05-1.05-1.05-1.05.47-1.05,1.05.47,1.05,1.05,1.05Z"/><path class="cls-27" d="M3.68,4.74c.58,0,1.05-.47,1.05-1.05s-.47-1.05-1.05-1.05-1.05.47-1.05,1.05.47,1.05,1.05,1.05Z"/><path class="cls-27" d="M1.05,7.37c.58,0,1.05-.47,1.05-1.05s-.47-1.05-1.05-1.05S0,5.73,0,6.32s.47,1.05,1.05,1.05Z"/><circle class="cls-27" cx="6.32" cy="6.32" r="1.05"/><path class="cls-27" d="M1.05,2.11c.58,0,1.05-.47,1.05-1.05S1.63,0,1.05,0,0,.47,0,1.05s.47,1.05,1.05,1.05Z"/><circle class="cls-27" cx="6.32" cy="1.05" r="1.05"/></pattern><clipPath id="clippath-6"><path class="cls-4" d="M115.97,177.2c.43,5.17-35.74,5.17-35.74,5.17,0,0,30.57,4.72,30.57,12.06,0,3.88-31.86,4.31-31.86,4.31,0,0,1.07,31.18-6.27,39.58h170.71c-7.41-8.29-6.33-39.65-6.33-39.65,0,0-31.86-.43-31.86-4.31,0-7.33,30.57-12.06,30.57-12.06,0,0-36.17,0-35.74-5.17.69-8.27,31.14-15.33,45.18-15.18-13.85-67.91-28.66-103.89-28.66-103.89-44.13,6.97-117.08,0-117.08,0-12.58,25.08-22.41,66.91-29.28,103.96,13.76-.36,45.08,6.78,45.78,15.18Z"/></clipPath><clipPath id="clippath-7"><circle class="cls-4" cx="138.93" cy="159.64" r="49.05"/></clipPath><pattern id="_40_10_ppp-2" patternTransform="translate(3552.57 1314.2) scale(1.63)" xlink:href="#_40_10_ppp"/><linearGradient id="Dégradé_sans_nom_51" x1="-7665.95" y1="-5483.01" x2="-7368.29" y2="-5538.32" gradientTransform="translate(-5370.16 -7402.87) rotate(-90) scale(1 -1)" gradientUnits="userSpaceOnUse"><stop offset="0" stop-color="#ffa544" stop-opacity="0"/><stop offset="1" stop-color="#db6b4c"/></linearGradient><linearGradient id="Dégradé_sans_nom_51-2" x1="-7634.83" y1="-5533.85" x2="-7420.46" y2="-5483.97" xlink:href="#Dégradé_sans_nom_51"/><clipPath id="clippath-8"><circle class="cls-4" cx="194.27" cy="122.04" r="17.56"/></clipPath><pattern id="_40_10_ppp-3" patternTransform="translate(3552.57 1314.2) scale(1.63)" xlink:href="#_40_10_ppp"/><pattern id="_40_10_ppp-4" patternTransform="translate(3552.57 1314.2) scale(1.63)" xlink:href="#_40_10_ppp"/><pattern id="_40_10_ppp-5" patternTransform="translate(3552.57 1314.2) scale(1.63)" xlink:href="#_40_10_ppp"/><clipPath id="clippath-9"><circle class="cls-4" cx="140.39" cy="157.7" r="6.04"/></clipPath><linearGradient id="Dégradé_sans_nom_64" x1="3462.29" y1="-2336.94" x2="3469.81" y2="-2345.25" gradientTransform="translate(-3891.27 -957.85) rotate(49.49)" gradientUnits="userSpaceOnUse"><stop offset="0" stop-color="#fff" stop-opacity="0"/><stop offset="1" stop-color="#fff"/></linearGradient><pattern id="_40_10_ppp-6" patternTransform="translate(3552.57 1314.2) scale(1.63)" xlink:href="#_40_10_ppp"/><clipPath id="clippath-10"><rect class="cls-4" x="360" y="10" width="280" height="280" rx="20" ry="20"/></clipPath></defs><g class="cls-31"><g id="Calque_25"><rect class="cls-24" x="10" y="10" width="280" height="280" rx="20" ry="20"/><g class="cls-42"><rect class="cls-36" width="300" height="300"/><rect class="cls-43" width="300" height="300"/></g></g><g id="ZONE_2_Tshirt"><g class="cls-16"><path class="cls-27" d="M-91.83,244.16c15.53-4.22,94.87-26.46,94.19-40.44-.68-14.05-65.53-75.65-77.66-87.06l3.22-4.84-65.98-50.07c-10.78,1.7-23.28,2.57-36.02,2.91v-30.72h0c35.46-.86,68.02-4.03,83.72-10.86.92-2.77,1.05-7.82.55-14.48,3.05,1.19,6.37,1.87,9.84,1.87,14.98,0,27.13-12.15,27.13-27.13s-12.15-27.13-27.13-27.13c-6.53,0-12.53,2.31-17.21,6.16-9.09-44.02-24.01-97.54-31.82-113.17-32.2-6.44-109.48-6.44-148.12,6.44-7.08,19.47-15.3,66.24-20.42,106.6-4.66-3.77-10.58-6.03-17.04-6.03-14.98,0-27.13,12.15-27.13,27.13s12.15,27.13,27.13,27.13c4.53,0,8.79-1.13,12.55-3.09-.5,8.44-.6,15.17-.16,19.24,11.13,3.42,44.58,6.47,83.53,7.33h0v30.19c-21-.91-36.49-2.39-36.49-2.39l-65.98,50.07,3.18,4.77c-12.65,11.2-81.79,73.04-82.48,87.13-.68,13.98,82.62,36.22,98.92,40.44v.03s4.89,2.22,12.04.98l.82,11.24,30.48,420.17,3.01.16-32.35,14.49h98.75v-10.96l1.81.1-11.85-404.46c1.97.04,3.97.06,6.06.06,1.23,0,2.61-.06,3.88-.08l54.18,404.47,2.26-.12v10.98H-33.67l-32.39-14.51,2.6-.14-39.1-431.27c6.17.77,10.33-.96,10.73-1.14ZM-284.43,165.74c-2.45.07-4.41.35-5.45.94-3.13,1.76-5.64,14.58-7.44,28.02l-.86-.23s-.02-.02-.03-.02c0,0-.02,0-.03,0l-39.94-10.62c0-.08-.03-.15-.03-.23l40.21-37.11,3.58,5.37,15.64-14.15c-2.06,9.42-3.94,18.87-5.64,28.03ZM-103.35,166.61c-1.13-.63-3.31-.92-6.05-.95-2.15-10.53-4.32-20.27-6.45-29.25l17.08,15.45,3.58-5.36,11.02,10.2,29.25,27.07-40.97,10.93c-1.81-13.47-4.31-26.33-7.45-28.09Z"/><path class="cls-40" d="M-72.63,111.15S6.22,184.53,6.97,200.03s-96.83,41.15-96.83,41.15l-6.46-48.82,46-12.27-44.71-41.39,22.39-27.56Z"/></g><g class="cls-32"><path class="cls-27" d="M258.17,244.16c15.53-4.22,94.87-26.46,94.19-40.44-.68-14.05-65.53-75.65-77.66-87.06l3.22-4.84-65.98-50.07c-10.78,1.7-23.28,2.57-36.02,2.91v-30.72h0c35.46-.86,68.02-4.03,83.72-10.86.92-2.77,1.05-7.82.55-14.48,3.05,1.19,6.37,1.87,9.84,1.87,14.98,0,27.13-12.15,27.13-27.13s-12.15-27.13-27.13-27.13c-6.53,0-12.53,2.31-17.21,6.16-9.09-44.02-24.01-97.54-31.82-113.17-32.2-6.44-109.48-6.44-148.12,6.44-7.08,19.47-15.3,66.24-20.42,106.6-4.66-3.77-10.58-6.03-17.04-6.03-14.98,0-27.13,12.15-27.13,27.13s12.15,27.13,27.13,27.13c4.53,0,8.79-1.13,12.55-3.09-.5,8.44-.6,15.17-.16,19.24,11.13,3.42,44.58,6.47,83.53,7.33h0v30.19c-21-.91-36.49-2.39-36.49-2.39L28.88,111.82l3.18,4.77c-12.65,11.2-81.79,73.04-82.48,87.13-.68,13.98,82.62,36.22,98.92,40.44v.03s4.89,2.22,12.04.98l.82,11.24,30.48,420.17,3.01.16-32.35,14.49h98.75v-10.96l1.81.1-11.85-404.46c1.97.04,3.97.06,6.06.06,1.23,0,2.61-.06,3.88-.08l54.18,404.47,2.26-.12v10.98h98.75l-32.39-14.51,2.6-.14-39.1-431.27c6.17.77,10.33-.96,10.73-1.14ZM65.57,165.74c-2.45.07-4.41.35-5.45.94-3.13,1.76-5.64,14.58-7.44,28.02l-.86-.23s-.02-.02-.03-.02c0,0-.02,0-.03,0l-39.94-10.62c0-.08-.03-.15-.03-.23l40.21-37.11,3.58,5.37,15.64-14.15c-2.06,9.42-3.94,18.87-5.64,28.03ZM246.65,166.61c-1.13-.63-3.31-.92-6.05-.95-2.15-10.53-4.32-20.27-6.45-29.25l17.08,15.45,3.58-5.36,11.02,10.2,29.25,27.07-40.97,10.93c-1.81-13.47-4.31-26.33-7.45-28.09Z"/><rect class="cls-40" x="135.96" y="21.02" width="44.57" height="68.45"/><path class="cls-17" d="M180.54,39.46v-18.44h-44.57v29.73c20.98-.14,36.06-6.42,44.57-11.3Z"/><circle class="cls-40" cx="274.28" cy="-20.32" r="27.13"/><path class="cls-40" d="M77.12-148.02c38.64-12.88,115.92-12.88,148.12-6.44C238.12-128.7,270.32.1,263.88,19.42c-39.35,17.11-186.63,11.29-211.82,3.54-2.58-23.9,12.92-137.59,25.06-170.98Z"/><polygon class="cls-41" points="64.62 234.21 96.44 672.89 167.66 676.67 155.79 271.33 165.64 271.33 219.94 676.67 291.16 672.89 251.38 234.21 64.62 234.21"/><path class="cls-17" d="M251.38,234.21H64.62l1.34,18.51c65.63.57,167.26-8.52,186.16-10.27l-.75-8.24Z"/><path class="cls-8" d="M116.2,266.97s42.89,9.22,103.1-1.32"/><path class="cls-40" d="M277.37,111.15s78.85,73.38,79.6,88.88-96.83,41.15-96.83,41.15l-6.46-48.82,46-12.27-44.71-41.39,22.39-27.56Z"/><path class="cls-17" d="M283.12,116.57c-3.58-3.4-5.75-5.42-5.75-5.42l-22.39,27.56,15.46,14.31c6.63-10.65,10.61-26.22,12.68-36.45Z"/><polygon class="cls-28" points="216.55 58.07 282.53 108.14 255.84 148.18 228.71 123.64 216.55 58.07"/><path class="cls-40" d="M38.66,111.15s-83.71,73.38-84.47,88.88c-.76,15.5,101.69,41.15,101.69,41.15l6.46-48.82-46.13-12.27,44.84-41.39-22.39-27.56Z"/><path class="cls-17" d="M46.93,151.74l14.12-13.03-22.39-27.56s-1.38,1.21-3.77,3.33c2.67,10.6,7.07,26.34,12.04,37.25Z"/><path class="cls-8" d="M14.92,180.09s-9.1-2.27-16.1,0"/><polygon class="cls-28" points="99.47 58.07 33.49 108.14 60.19 148.18 87.31 123.64 99.47 58.07"/><path class="cls-11" d="M99.42,75.11s-42.4,27.23-56.88,41.02l17.58,28.61,31.02-24.13,8.27-45.5Z"/><path class="cls-41" d="M99.47,58.07s72.94,6.97,117.08,0c0,0,26.02,63.18,41.35,180.25H58.6s14.35-127.36,40.87-180.25Z"/><path class="cls-40" d="M262.03,224.07s-3.88-57.27-10.76-61.14c-6.89-3.88-50.41,4.3-51.24,14.21-.43,5.17,35.74,5.17,35.74,5.17,0,0-30.57,4.72-30.57,12.06,0,3.88,31.86,4.31,31.86,4.31,0,0-1.29,37.46,8.61,41.33,9.9,3.88,17.22.43,17.22.43l-.86-16.36Z"/><path class="cls-40" d="M53.97,224.14s3.88-57.27,10.76-61.14c6.89-3.88,50.41,4.3,51.24,14.21.43,5.17-35.74,5.17-35.74,5.17,0,0,30.57,4.72,30.57,12.06,0,3.88-31.86,4.31-31.86,4.31,0,0,1.29,37.46-8.61,41.33-9.9,3.88-17.22.43-17.22.43l.86-16.36Z"/><circle class="cls-40" cx="39.67" cy="-20.32" r="27.13"/><path class="cls-7" d="M132.77,64.4s10.7,4.94,25.51,4.94"/><path class="cls-8" d="M56.1,192.35s-3.98,21.02-.57,38.64"/><path class="cls-8" d="M260.09,192.92s2.84,21.59,1.14,35.8"/></g><polygon class="cls-44" points="216.55 58.07 282.53 108.14 255.84 148.18 228.71 123.64 216.55 58.07"/><polygon class="cls-44" points="99.47 58.07 33.49 108.14 60.19 148.18 87.31 123.64 99.47 58.07"/><path class="cls-35" d="M99.42,75.11s-42.4,27.23-56.88,41.02l17.58,28.61,31.02-24.13,8.27-45.5Z"/><path class="cls-22" d="M115.97,177.2c.43,5.17-35.74,5.17-35.74,5.17,0,0,30.57,4.72,30.57,12.06,0,3.88-31.86,4.31-31.86,4.31,0,0,1.07,31.18-6.27,39.58h170.71c-7.41-8.29-6.33-39.65-6.33-39.65,0,0-31.86-.43-31.86-4.31,0-7.33,30.57-12.06,30.57-12.06,0,0-36.17,0-35.74-5.17.69-8.27,31.14-15.33,45.18-15.18-13.85-67.91-28.66-103.89-28.66-103.89-44.13,6.97-117.08,0-117.08,0-12.58,25.08-22.41,66.91-29.28,103.96,13.76-.36,45.08,6.78,45.78,15.18Z"/><path class="cls-5" d="M132.77,64.4s10.7,4.94,25.51,4.94"/><g class="cls-1"><g class="cls-2"><rect class="cls-27" x="60.44" y="57.16" width="181.2" height="208.81"/><rect class="cls-14" x="55.1" y="56.65" width="179.4" height="236.76"/><path class="cls-29" d="M20.65,275.56s44.97,1.58,67.85,3.83c75.23,7.39,163.05,26.77,163.05,26.77l2.18-336.52H20.67s-.02,305.93-.02,305.93Z"/><path class="cls-19" d="M-9.84,224.49c32.15-4.48,64.98-6.33,98.34-3.05,85.46,8.39,136.92,18.35,178.43,26.44l22.84-212.31H-14.04s4.2,188.92,4.2,188.92Z"/><polygon class="cls-3" points="35.65 258.47 33.99 251.79 31.85 257.58 37.58 254.14 30.44 253.15 35.65 258.47"/><polygon class="cls-3" points="274.8 245.53 274.48 238.78 277.94 245.46 271.6 241.65 279.45 240.12 274.8 245.53"/><polygon class="cls-3" points="273.58 193.89 272.43 188.57 276.19 191.28 269.72 191.28 274.67 188.37 273.58 193.89"/><polygon class="cls-3" points="179.75 192.64 181.42 185.97 183.56 191.75 177.82 188.31 184.96 187.32 179.75 192.64"/><polygon class="cls-3" points="179.17 262.39 183.61 256.59 184.79 264.2 179.8 258.58 186.1 259.08 179.17 262.39"/><path class="cls-18" d="M186.74,126.84c-22.14-.52-30.24,15.2-55.95,14.66-16.06-.34-36.82-11.24-50.53-11.91-23.36-1.14-45.64,8.12-44.65,15.43,1.47,10.87,30.12-1.18,49.95,4.47,16.11,4.59,37.87,34.18,62.86,37.01,24.99,2.83,53.13-16.98,72.65-12.26,19.52,4.73,71.5-4.41,68.3-17.01-4.04-15.86-31.7,1.43-59.75-9.31-16.5-6.32-19.39-20.53-42.87-21.08Z"/><path class="cls-6" d="M183.79,123.53c-22.14-.52-30.24,15.2-55.95,14.66-16.06-.34-36.82-11.24-50.53-11.91-23.36-1.14-45.64,8.12-44.65,15.43,1.47,10.87,30.12-1.18,49.95,4.47,16.11,4.59,37.87,34.18,62.86,37.01,24.99,2.83,53.13-16.98,72.65-12.26,19.52,4.73,71.5-4.41,68.3-17.01-4.04-15.86-31.7,1.43-59.75-9.31-16.5-6.32-19.39-20.53-42.87-21.08Z"/></g><g class="cls-38"><path class="cls-25" d="M183.76,88.9c-21.98,4.71-33.25,45.35-9.96,59.27,23.29,13.91,48.77-3.78,54.61-18,5.83-14.22-6.53-49.44-44.65-41.27Z"/><path class="cls-23" d="M214.5,131.36c11.14-19.16-8.74-39.14-26.73-33.69-17.98,5.45-23.49,23.77-17.17,34.95,6.23,11.03,32.14,18.94,43.9-1.27Z"/></g><circle class="cls-34" cx="194.27" cy="122.04" r="17.56"/><g class="cls-33"><path class="cls-30" d="M170.18,126.83c1.06-12.46,21.7-9.73,26.73-14.44,5.04-4.71,8.08-11.4,8.08-11.4l3.59,2.07s1.27,9.94-6.02,15.71c-7.3,5.78-20.98,2.89-25.84,17.94l-6.54-9.88Z"/><path class="cls-30" d="M187.53,141.82s5.65-9.64,10.15-13.02c4.34-3.26,14.06-8.51,16.52-14.68l1.12,1.01c-4.45,11-8.54,8.03-16.1,18.69-4.36,6.14-6.4,10.51-6.4,10.51l-5.28-2.5Z"/><path class="cls-30" d="M175.78,113.29c5.56-4.5,8.67-3.35,13.24-5.3,4.93-2.1,6.44-6.62,6.44-6.62l-13.15,2.74-6.53,9.18Z"/><path class="cls-30" d="M212.6,127.5c-9.18,3.71-7.7,10.86-11.18,12.62l8.88-3.41,2.3-9.21Z"/></g><circle class="cls-9" cx="193.02" cy="123.61" r="14.77"/><circle class="cls-6" cx="193.33" cy="121.1" r="17.56"/><path class="cls-15" d="M119.32,176.37c-5.63-7.5-16.28-9.01-23.77-3.38-12.01,9.02-7.35,22.72-9.93,28.35l5.25-1.8-2.49,3.05c7.94,0,16.66,5.74,27.56-2.45,7.5-5.63,9.01-16.28,3.38-23.77Z"/><circle class="cls-30" cx="111.75" cy="182.07" r="9.6" transform="translate(-99.5 150.27) rotate(-49.9)"/><path class="cls-12" d="M117.69,176.03c-4.67-6.21-13.48-7.46-19.69-2.8-9.95,7.47-6.09,18.82-8.23,23.48l4.35-1.49-2.06,2.53c6.57,0,13.8,4.76,22.83-2.03,6.21-4.67,7.46-13.48,2.8-19.69Z"/><path class="cls-27" d="M146.13,179.88c-.22-.88-1.28-1.24-1.99-.67l-5.55,4.44c.08-1.64-.04-3.22-.3-4.71,6.31-4.12,14.58-11.54,18.84-23.74h0s0,0,0,0c.64-1.84,1.2-3.79,1.64-5.86.02-.08.03-.16.05-.23.08-.41.17-.82.24-1.24.03-.14.05-.28.08-.42.06-.36.12-.73.18-1.1.03-.16.05-.33.07-.5.05-.37.1-.74.15-1.12.02-.16.04-.31.06-.47.06-.53.11-1.06.16-1.61.01-.14,0-.28,0-.41-.02-.2-.08-.39-.16-.57-.05-.12-.12-.23-.19-.34-.11-.16-.25-.3-.4-.42-.3-.24-.68-.4-1.1-.43-.54-.04-1.08-.07-1.61-.09-.16,0-.32-.01-.47-.02-.38-.01-.76-.02-1.13-.03-.17,0-.34,0-.5,0-.37,0-.74,0-1.11,0-.14,0-.29,0-.43,0-.42.01-.84.03-1.26.05-.08,0-.16,0-.24.01-16.07.86-26.61,9.18-32.43,15.61-1.43-.49-2.98-.85-4.61-1.03l5.26-4.79c.67-.61.48-1.72-.36-2.07-3.61-1.51-12.39-3.46-19.95,8.5-.36.58-.31,1.32.13,1.84l3.82,4.47c.57.67,1.58.73,2.23.14l2.22-2.03c1.28.07,2.86.22,4.6.53.29.05.58.11.87.17,0,0,.01,0,.02,0,.29.06.59.13.88.2,0,0,.01,0,.02,0,.08.02.15.04.23.06-.64.99-.95,1.58-.95,1.58l1.64,1.92-3.76,5.34,11.42,13.36,5.86-2.88,1.64,1.92s.63-.22,1.71-.69c.05.58.08,1.15.1,1.71h0c.06,1.92-.04,3.64-.18,4.99l-2.35,1.88c-.69.55-.78,1.56-.21,2.23l3.82,4.47c.44.52,1.17.69,1.8.42,12.99-5.6,12.44-14.57,11.51-18.38Z"/><polygon class="cls-27" points="116.73 164.03 112.23 170.42 123.64 183.78 130.66 180.33 116.73 164.03"/><path class="cls-41" d="M132.45,164.7s-7.59-10.46-19.68-10.28l-7.24,6.18s14.28-1.09,22.17,8.15l4.74-4.05Z"/><path class="cls-27" d="M119.54,155.45c-1.6,1.18-3.7,2.97-6.27,5.69,2.32.42,4.91,1.14,7.44,2.35l1.73-6.88c-.91-.44-1.88-.83-2.9-1.16Z"/><path class="cls-37" d="M106.45,162.63l14.12-12.88c.67-.61.48-1.72-.36-2.07-3.61-1.51-12.39-3.46-19.95,8.5-.36.58-.31,1.32.13,1.84l3.82,4.47c.57.67,1.58.73,2.23.14Z"/><path class="cls-41" d="M132.45,164.7s9.14,9.13,7.08,21.04l-7.24,6.18s3.3-13.94-4.59-23.18l4.74-4.05Z"/><path class="cls-27" d="M132.96,183.83c2.87-1.56,5.05-3.32,6.63-4.84-.11-.71-.25-1.41-.42-2.08l-6.57,3.1c.21,1.33.32,2.62.36,3.83Z"/><path class="cls-37" d="M130.43,190.71l14.93-11.94c.71-.57,1.77-.21,1.99.67.93,3.8,1.48,12.78-11.51,18.38-.63.27-1.36.1-1.8-.42l-3.82-4.47c-.57-.67-.48-1.68.21-2.23Z"/><path class="cls-24" d="M159.11,140.05c-31.37-2.33-44.76,23.11-44.76,23.11l16.79,19.65s27.23-9.25,29.82-40.6c.09-1.11-.74-2.09-1.85-2.17Z"/><path class="cls-27" d="M158.35,154.76c1.3-3.72,2.23-7.89,2.62-12.54.09-1.11-.74-2.09-1.85-2.17-4.66-.35-8.91-.08-12.79.63l12.03,14.08Z"/><path class="cls-10" d="M146.54,146.6c-21.77-1.19-31.42,16.57-31.42,16.57l11.41,13.35s19.05-6.76,21.27-28.44c.08-.77-.49-1.43-1.26-1.47Z"/><circle class="cls-40" cx="140.39" cy="157.7" r="9.13"/><ellipse class="cls-27" cx="140.33" cy="157.53" rx="6.39" ry="6.47" transform="translate(-68.69 128.9) rotate(-40.51)"/><circle class="cls-45" cx="140.39" cy="157.7" r="6.04"/><g class="cls-20"><path class="cls-39" d="M133.22,153.67s2.26-2.33,6.72.53c4.47,2.86,8.08.58,8.08.58l.45,2.42s-3.06,3.76-7.4,2c-4.34-1.76-6.19-.38-7.65,1.58l-.21-7.11Z"/></g><circle class="cls-13" cx="140.33" cy="157.47" r="5.21"/></g><g class="cls-21"><path class="cls-27" d="M608.17,244.16c15.53-4.22,94.87-26.46,94.19-40.44-.68-14.05-65.53-75.65-77.66-87.06l3.22-4.84-65.98-50.07c-10.78,1.7-23.28,2.57-36.02,2.91v-30.72h0c35.46-.86,68.02-4.03,83.72-10.86.92-2.77,1.05-7.82.55-14.48,3.05,1.19,6.37,1.87,9.84,1.87,14.98,0,27.13-12.15,27.13-27.13s-12.15-27.13-27.13-27.13c-6.53,0-12.53,2.31-17.21,6.16-9.09-44.02-24.01-97.54-31.82-113.17-32.2-6.44-109.48-6.44-148.12,6.44-7.08,19.47-15.3,66.24-20.42,106.6-4.66-3.77-10.58-6.03-17.04-6.03-14.98,0-27.13,12.15-27.13,27.13s12.15,27.13,27.13,27.13c4.53,0,8.79-1.13,12.55-3.09-.5,8.44-.6,15.17-.16,19.24,11.13,3.42,44.58,6.47,83.53,7.33h0v30.19c-21-.91-36.49-2.39-36.49-2.39l-65.98,50.07,3.18,4.77c-12.65,11.2-81.79,73.04-82.48,87.13-.68,13.98,82.62,36.22,98.92,40.44v.03s4.89,2.22,12.04.98l.82,11.24,30.48,420.17,3.01.16-32.35,14.49h98.75v-10.96l1.81.1-11.85-404.46c1.97.04,3.97.06,6.06.06,1.23,0,2.61-.06,3.88-.08l54.18,404.47,2.26-.12v10.98h98.75l-32.39-14.51,2.6-.14-39.1-431.27c6.17.77,10.33-.96,10.73-1.14ZM415.57,165.74c-2.45.07-4.41.35-5.45.94-3.13,1.76-5.64,14.58-7.44,28.02l-.86-.23s-.02-.02-.03-.02c0,0-.02,0-.03,0l-39.94-10.62c0-.08-.03-.15-.03-.23l40.21-37.11,3.58,5.37,15.64-14.15c-2.06,9.42-3.94,18.87-5.64,28.03ZM596.65,166.61c-1.13-.63-3.31-.92-6.05-.95-2.15-10.53-4.32-20.27-6.45-29.25l17.08,15.45,3.58-5.36,11.02,10.2,29.25,27.07-40.97,10.93c-1.81-13.47-4.31-26.33-7.45-28.09Z"/></g></g></g></svg>