<?xml version="1.0" encoding="UTF-8"?><svg xmlns="http://www.w3.org/2000/svg" xmlns:xlink="http://www.w3.org/1999/xlink" viewBox="0 0 300 300"><defs><style>.cls-1{fill:#ffcb57;}.cls-2{fill:url(#_40_10_ppp-4);}.cls-2,.cls-3,.cls-4,.cls-5{mix-blend-mode:multiply;}.cls-2,.cls-3,.cls-5{opacity:.15;}.cls-6{fill:#fff;}.cls-7{fill:#1d1061;}.cls-8,.cls-9,.cls-10{fill:none;}.cls-11{fill:#65447a;}.cls-12{clip-path:url(#clippath-1);}.cls-13{isolation:isolate;}.cls-9{stroke:#f2f0ec;}.cls-9,.cls-10{stroke-linecap:round;stroke-linejoin:round;stroke-width:2px;}.cls-3{fill:url(#_40_10_ppp-3);}.cls-14{fill:#f2f0ec;}.cls-4{opacity:.1;}.cls-4,.cls-15{fill:url(#_40_10_ppp);}.cls-10{stroke:#1d1061;}.cls-5{fill:url(#_40_10_ppp-2);}.cls-16{fill:#a5a5a5;}.cls-17{clip-path:url(#clippath-2);}.cls-15{mix-blend-mode:overlay;opacity:.25;}.cls-18{fill:#7a7a7a;}.cls-19{opacity:.5;}.cls-20{fill:#fdfdfd;}</style><clipPath id="clippath"><rect class="cls-8" x="360" y="10" width="280" height="280" rx="20" ry="20"/></clipPath><clipPath id="clippath-1"><rect class="cls-8" x="10" y="10" width="280" height="280" rx="20" ry="20"/></clipPath><pattern id="_40_10_ppp" x="0" y="0" width="10" height="10" patternTransform="translate(7219.01 7042.95) scale(2)" patternUnits="userSpaceOnUse" viewBox="0 0 10 10"><rect class="cls-8" width="10" height="10"/><circle class="cls-7" cx="8.95" cy="8.95" r="1.05"/><circle class="cls-7" cx="3.68" cy="8.95" r="1.05"/><path class="cls-7" d="M8.95,4.74c.58,0,1.05-.47,1.05-1.05s-.47-1.05-1.05-1.05-1.05.47-1.05,1.05.47,1.05,1.05,1.05Z"/><path class="cls-7" d="M3.68,4.74c.58,0,1.05-.47,1.05-1.05s-.47-1.05-1.05-1.05-1.05.47-1.05,1.05.47,1.05,1.05,1.05Z"/><path class="cls-7" d="M1.05,7.37c.58,0,1.05-.47,1.05-1.05s-.47-1.05-1.05-1.05S0,5.73,0,6.32s.47,1.05,1.05,1.05Z"/><circle class="cls-7" cx="6.32" cy="6.32" r="1.05"/><path class="cls-7" d="M1.05,2.11c.58,0,1.05-.47,1.05-1.05S1.63,0,1.05,0,0,.47,0,1.05s.47,1.05,1.05,1.05Z"/><circle class="cls-7" cx="6.32" cy="1.05" r="1.05"/></pattern><clipPath id="clippath-2"><rect class="cls-8" x="-340" y="10" width="280" height="280" rx="20" ry="20"/></clipPath><pattern id="_40_10_ppp-2" patternTransform="translate(7238.38 7038.1) scale(2)" xlink:href="#_40_10_ppp"/><pattern id="_40_10_ppp-3" patternTransform="translate(7238.38 7038.1) scale(2)" xlink:href="#_40_10_ppp"/><pattern id="_40_10_ppp-4" patternTransform="translate(7238.38 7038.1) scale(2)" xlink:href="#_40_10_ppp"/></defs><g class="cls-13"><g id="BG_-_copie_7"><g class="cls-19"><g class="cls-12"><path class="cls-7" d="M350.42,286.46h-76.98V110.29c0-4.86-3.07-9.18-7.67-10.75-32.01-10.91-160.07-47.94-305.98.15-4.63,1.53-7.73,5.91-7.73,10.78v307.83h321.38v-57.35h76.98v-74.5Z"/><path class="cls-18" d="M271.36,97.23c-32.01-10.91-160.07-47.94-305.98.15-4.63,1.53-7.73,5.91-7.73,10.78v307.83h321.38V107.98c0-4.86-3.07-9.18-7.67-10.75Z"/><path class="cls-15" d="M29.13,138.81c-9.63,6.46,10.32,28.22,10.32,28.22v50.38l67.17-2.42S50.8,124.28,29.13,138.81Z"/><path class="cls-14" d="M255.47,198.95c.68-15.2-51.39-68.72-81.79-72.37-30.41-3.65-109.46-5.78-120.41,16.12-10.95,21.89,16.51,57.47,46.41,65.07,29.91,7.6,155.18,4.87,155.79-8.82Z"/><path class="cls-4" d="M247.47,211.93s-18.48-57.07-60.72-62.85c35.9,49.35-190.05-28.72-65.14,61.62,47.95,34.68,125.86,1.23,125.86,1.23Z"/><path class="cls-14" d="M199.21,143.01s13.12-23.72,7.17-26.15c-5.95-2.43-29.36,16.42-29.36,16.42l22.2,9.73Z"/><path class="cls-14" d="M67.55,137.84s-21.89-11.55-33.14-6.39c-11.25,5.17,20.98,26.15,20.98,26.15l12.16-19.76Z"/><path class="cls-10" d="M67.55,149.09s21.62,29.61,40.44,39.22"/><line class="cls-10" x1="87.77" y1="161.55" x2="121.61" y2="185.88"/><path class="cls-14" d="M9.64,202.71h346.37v99.36H-.78v-88.94c0-5.75,4.67-10.42,10.42-10.42Z"/><rect class="cls-16" x="-15.79" y="284.15" width="371.8" height="74.5"/><path class="cls-6" d="M92.22,195.84h273.02v148.95H80.05v-136.77c0-6.72,5.46-12.18,12.18-12.18Z"/><path class="cls-1" d="M161.51,195.84h273.02v148.95H149.33v-136.77c0-6.72,5.46-12.18,12.18-12.18Z"/><path class="cls-10" d="M168.16,304.66c0-10.7,6.41-31.29,19.84-41.58"/><path class="cls-10" d="M175.69,244.66s-15.54,18.43-12.66,67.32"/><path class="cls-10" d="M188,275.4s-5.63,18.99,7.03,32.36"/></g></g><g class="cls-19"><g class="cls-17"><path class="cls-7" d="M.42,286.46h-76.98V110.29c0-4.86-3.07-9.18-7.67-10.75-32.01-10.91-160.07-47.94-305.98.15-4.63,1.53-7.73,5.91-7.73,10.78v307.83H-76.55v-57.35H.42v-74.5Z"/><path class="cls-14" d="M-340.36,202.71H6.01v99.36h-356.79v-88.94c0-5.75,4.67-10.42,10.42-10.42Z"/><rect class="cls-16" x="-365.79" y="284.15" width="371.8" height="74.5"/><path class="cls-6" d="M-257.78,195.84H15.25v148.95h-285.2v-136.77c0-6.72,5.46-12.18,12.18-12.18Z"/><path class="cls-1" d="M-188.49,195.84H84.53v148.95H-200.67v-136.77c0-6.72,5.46-12.18,12.18-12.18Z"/></g></g></g><g id="ZONE_3_A_-_copie"><path class="cls-7" d="M200.06,123.11c-7.87-3.56-14.49-5.94-20-7.3-2.48-23.64-6.19-45.23-16.76-51.66-1.78-1.08-3.76-1.73-5.96-1.89-1.45-.1-2.89-.16-4.31-.17-.54,0-1.06.02-1.6.03-.86.01-1.72.02-2.57.07-.67.04-1.33.12-1.99.18-.68.07-1.36.13-2.03.22-.74.1-1.47.24-2.2.37-.56.1-1.12.21-1.68.33-.79.18-1.56.39-2.33.61-.46.13-.92.27-1.38.42-.82.27-1.64.56-2.44.88-.37.15-.73.3-1.1.46-.86.38-1.72.78-2.55,1.22-.26.14-.52.29-.77.43-.92.51-1.82,1.05-2.7,1.65-.12.08-.24.17-.36.26-7.59,5.27-13.94,13.81-18.62,26.82-3.35.13-6.39.62-6.32,2.03.06,1.42,2.02,2.66,4.47,3.7-.79,2.69-1.55,5.48-2.21,8.5-.35,1.59-.7,3.18-1.05,4.76-5.78.38-14.14,3.59-25.49,10.4-15.18,9.11-6.45,31.26-2.65,31.81,3.8.55,2.25-5.98,4.42-7.46,6.22-4.21,12.83-7.74,18.57-11.07-5.32,25.16-9,46.4-6.85,54.71-5.54.22-11.43.72-16.68,1.73-14.53,2.79,1.24,12.37,6.89,10.8,5.04-1.4,12.87-3.49,19.36-5.67,6.33,1.85,15.36,3.23,25.17,3.92-4.29,1.71-8.89,3.76-13.52,6.19-12.98,6.81,14.55,8.37,22.62,4.12,4.05-2.13,8.96-6.24,12.05-9.94,2.02-.08,4.02-.19,5.97-.33.02,0,.04,0,.05,0,2-.15,3.96-.34,5.86-.57.05,0,.09-.01.14-.02,1.88-.23,3.69-.49,5.44-.8.06,0,.11-.02.17-.03,1.78-.32,3.48-.67,5.07-1.08,1.54-.39,3.02-.81,4.44-1.26,1.84-.58,3.53-1.22,5.16-1.88,3.38-1.37,6.36-2.87,8.88-4.44,1.87-1.16,3.51-2.35,4.93-3.53.83-.69,1.56-1.37,2.24-2.04,4.62-4.55,6.08-8.64,5.11-10-1.48-2.08-8.46-1.59-11.86-1.22-1.13.12-1.87.24-1.87.24,0,0-.53-3.63-1.31-9.39-.13-.96-.27-1.98-.41-3.05-.8-6.07-1.78-13.81-2.69-21.96,5.92,2.51,12.31,5.18,18.47,8.39,2.72,1.42,1.8,9.22,6.14,8.07,4.34-1.15,11.5-28.05-7.36-36.59Z"/><path class="cls-11" d="M116.5,117.29c-3.16-7.11-13.97-6.66-34.8,5.83-15.18,9.11-6.45,31.26-2.65,31.81,3.8.55,2.25-5.98,4.42-7.46,17.51-11.87,38.33-18.29,33.03-30.18Z"/><path class="cls-5" d="M116.86,120.77c-3.16-7.11-13.97-6.66-34.8,5.83-15.18,9.11-6.45,31.26-2.65,31.81,3.8.55,2.25-5.98,4.42-7.46,17.51-11.87,38.33-18.29,33.03-30.18Z"/><path class="cls-1" d="M115.9,191.34s-21.64-1.52-37.4,1.5c-14.53,2.79,1.24,12.37,6.89,10.8,10.42-2.89,32.76-8.71,30.51-12.3Z"/><path class="cls-1" d="M152.28,194.81s-17.72,3.75-35.88,13.28c-12.98,6.81,14.55,8.37,22.62,4.12,8.08-4.26,19.59-16.37,13.25-17.4Z"/><path class="cls-20" d="M160.94,59.95c-24.41-1.75-43.97,8.55-52.7,48.02-8.73,39.46-17.32,77.67-12.14,85.5,5.18,7.82,52.99,12.21,77.68,5.99,24.7-6.23,32.74-20.37,30.76-23.14-1.98-2.77-13.73-.98-13.73-.98,0,0-3.78-25.81-5.91-48.94-2.98-32.3-6.39-65.17-23.97-66.43Z"/><path class="cls-11" d="M173.79,199.44c24.7-6.23,32.74-20.37,30.76-23.14-1.98-2.77-13.73-.98-13.73-.98,0,0-3.77-25.81-5.91-48.94-2.98-32.3-6.39-65.17-23.97-66.43-22.24-1.59-40.43,6.9-50.09,38.26,2.29,5.47,5.86,9.32,11.41,9.2,18.82-.41,44.06-32.17,49.8-12.19,3.05,10.58-14.93,1.57-21.13,22.34-4.69,15.71-4.46,53.05-.09,84.71,8.44-.3,16.48-1.2,22.94-2.83Z"/><path class="cls-3" d="M168.75,101.43c-16.75-1.2-30.17,5.87-36.16,32.95-5.99,27.08-11.88,53.3-8.33,58.66,3.55,5.37,36.36,8.38,53.3,4.11,16.95-4.27,22.46-13.98,21.11-15.88-1.36-1.9-9.42-.67-9.42-.67,0,0-2.59-17.71-4.05-33.58-2.04-22.16-4.38-44.72-16.45-45.58Z"/><line class="cls-10" x1="152.51" y1="62.28" x2="151.37" y2="49.94"/><path class="cls-7" d="M162.45,118.7s-2.06,3.9-.01,8.74,13.68,10.86,24.3,15.39l-.58-4.7-23.71-19.43Z"/><path class="cls-11" d="M162.45,118.7c2.72-8.68,15.34-9.62,41.21,2.09,18.86,8.54,11.7,35.44,7.36,36.59-4.34,1.15-3.42-6.65-6.14-8.07-21.93-11.43-46.98-16.09-42.43-30.61Z"/><path class="cls-2" d="M159.71,120.27c2.72-8.68,15.34-9.62,41.21,2.09,18.86,8.54,11.7,35.44,7.36,36.59-4.34,1.15-3.42-6.65-6.14-8.07-21.93-11.43-46.98-16.09-42.43-30.61Z"/><line class="cls-10" x1="158.33" y1="61.39" x2="159.61" y2="53.13"/><path class="cls-1" d="M120.86,93.96s-15.01-1.32-14.87,1.8,9.37,5.41,13,6.41c3.63,1,7.27-7.52,1.87-8.21Z"/><line class="cls-9" x1="121.79" y1="85.75" x2="121.01" y2="90.14"/><line class="cls-9" x1="133.57" y1="87.4" x2="132.4" y2="92.03"/></g></g></svg>