<?xml version="1.0" encoding="UTF-8"?><svg xmlns="http://www.w3.org/2000/svg" xmlns:xlink="http://www.w3.org/1999/xlink" viewBox="0 0 300 300"><defs><style>.cls-1{fill:#ffcb57;}.cls-2{fill:#fff;}.cls-3{fill:#1d1061;}.cls-4{fill:#65447a;}.cls-4,.cls-5{opacity:.5;}.cls-6,.cls-7{fill:none;}.cls-8{fill:#5cc6a0;}.cls-9{clip-path:url(#clippath-1);}.cls-10{isolation:isolate;}.cls-11{fill:#f2f0ec;}.cls-12{opacity:.1;}.cls-12,.cls-13{mix-blend-mode:multiply;}.cls-12,.cls-13,.cls-14{fill:url(#_40_10_ppp);}.cls-7{stroke:#1d1061;stroke-linecap:round;stroke-linejoin:round;stroke-width:2px;}.cls-13,.cls-14{opacity:.25;}.cls-15{fill:#a5a5a5;}.cls-14{mix-blend-mode:overlay;}.cls-16{fill:#7a7a7a;}.cls-17{clip-path:url(#clippath);}</style><clipPath id="clippath"><rect class="cls-6" x="10" y="10" width="280" height="280" rx="20" ry="20"/></clipPath><pattern id="_40_10_ppp" x="0" y="0" width="10" height="10" patternTransform="translate(6879.01 7042.95) scale(2)" patternUnits="userSpaceOnUse" viewBox="0 0 10 10"><rect class="cls-6" width="10" height="10"/><circle class="cls-3" cx="8.95" cy="8.95" r="1.05"/><circle class="cls-3" cx="3.68" cy="8.95" r="1.05"/><path class="cls-3" d="M8.95,4.74c.58,0,1.05-.47,1.05-1.05s-.47-1.05-1.05-1.05-1.05.47-1.05,1.05.47,1.05,1.05,1.05Z"/><path class="cls-3" d="M3.68,4.74c.58,0,1.05-.47,1.05-1.05s-.47-1.05-1.05-1.05-1.05.47-1.05,1.05.47,1.05,1.05,1.05Z"/><path class="cls-3" d="M1.05,7.37c.58,0,1.05-.47,1.05-1.05s-.47-1.05-1.05-1.05S0,5.73,0,6.32s.47,1.05,1.05,1.05Z"/><circle class="cls-3" cx="6.32" cy="6.32" r="1.05"/><path class="cls-3" d="M1.05,2.11c.58,0,1.05-.47,1.05-1.05S1.63,0,1.05,0,0,.47,0,1.05s.47,1.05,1.05,1.05Z"/><circle class="cls-3" cx="6.32" cy="1.05" r="1.05"/></pattern><clipPath id="clippath-1"><rect class="cls-6" x="-340" y="10" width="280" height="280" rx="20" ry="20"/></clipPath></defs><g class="cls-10"><g id="BG_-_copie_7"><g class="cls-5"><g class="cls-17"><path class="cls-3" d="M350.42,286.46h-76.98V110.29c0-4.86-3.07-9.18-7.67-10.75-32.01-10.91-160.07-47.94-305.98.15-4.63,1.53-7.73,5.91-7.73,10.78v307.83h321.38v-57.35h76.98v-74.5Z"/><path class="cls-16" d="M271.36,97.23c-32.01-10.91-160.07-47.94-305.98.15-4.63,1.53-7.73,5.91-7.73,10.78v307.83h321.38V107.98c0-4.86-3.07-9.18-7.67-10.75Z"/><path class="cls-14" d="M29.13,138.81c-9.63,6.46,10.32,28.22,10.32,28.22v50.38l67.17-2.42S50.8,124.28,29.13,138.81Z"/><path class="cls-11" d="M255.47,198.95c.68-15.2-51.39-68.72-81.79-72.37-30.41-3.65-109.46-5.78-120.41,16.12s16.51,57.47,46.41,65.07c29.91,7.6,155.18,4.87,155.79-8.82Z"/><path class="cls-12" d="M247.47,211.93s-18.48-57.07-60.72-62.85c35.9,49.35-190.05-28.72-65.14,61.62,47.95,34.68,125.86,1.23,125.86,1.23Z"/><path class="cls-11" d="M199.21,143.01s13.12-23.72,7.17-26.15c-5.95-2.43-29.36,16.42-29.36,16.42l22.2,9.73Z"/><path class="cls-11" d="M67.55,137.84s-21.89-11.55-33.14-6.39c-11.25,5.17,20.98,26.15,20.98,26.15l12.16-19.76Z"/><path class="cls-7" d="M67.55,149.09s21.62,29.61,40.44,39.22"/><line class="cls-7" x1="87.77" y1="161.55" x2="121.61" y2="185.88"/><path class="cls-11" d="M9.64,202.71h346.37v99.36H-.78v-88.94c0-5.75,4.67-10.42,10.42-10.42Z"/><rect class="cls-15" x="-15.79" y="284.15" width="371.8" height="74.5"/><path class="cls-2" d="M92.22,195.84h273.02v148.95H80.05v-136.77c0-6.72,5.46-12.18,12.18-12.18Z"/><path class="cls-1" d="M161.51,195.84h273.02v148.95H149.33v-136.77c0-6.72,5.46-12.18,12.18-12.18Z"/><path class="cls-7" d="M168.16,304.66c0-10.7,6.41-31.29,19.84-41.58"/><path class="cls-7" d="M175.69,244.66s-15.54,18.43-12.66,67.32"/><path class="cls-7" d="M188,275.4s-5.63,18.99,7.03,32.36"/></g></g><g class="cls-5"><g class="cls-9"><path class="cls-3" d="M.42,286.46h-76.98V110.29c0-4.86-3.07-9.18-7.67-10.75-32.01-10.91-160.07-47.94-305.98.15-4.63,1.53-7.73,5.91-7.73,10.78v307.83H-76.55v-57.35H.42v-74.5Z"/><path class="cls-11" d="M-340.36,202.71H6.01v99.36h-356.79v-88.94c0-5.75,4.67-10.42,10.42-10.42Z"/><rect class="cls-15" x="-365.79" y="284.15" width="371.8" height="74.5"/><path class="cls-2" d="M-257.78,195.84H15.25v148.95h-285.2v-136.77c0-6.72,5.46-12.18,12.18-12.18Z"/><path class="cls-1" d="M-188.49,195.84H84.53v148.95H-200.67v-136.77c0-6.72,5.46-12.18,12.18-12.18Z"/></g></g></g><g id="ZONE_3_A_-_copie"><path class="cls-3" d="M213.7,170.9c-1.89.14-3.81.36-5.76.67-.9.15-1.77.33-2.61.54.04.03.08.07.12.11-12.32,3.37-18.33,13.51-22.8,23.9-.03,0-.05-.01-.08-.02-2.31,5.22-4.19,10.54-6.26,15.14.01,0,.03.02.04.03-2.84,6.07-6.11,10.71-11.33,11.81-41.96,8.84-23.74-58.73-38.15-78.95-14.41-20.23-36.74-32.41-42.25-66.06h32.33s0,0,0,.01h34.39c-3.31,9.03-5.71,28.49,3.62,43.19.05.07.1.14.14.21.6.93,1.23,1.84,1.93,2.73.24.31.52.6.77.9.46.55.91,1.11,1.41,1.65-.12.54-.29,1.05-.35,1.63-1.74,17.62,4.79,31.76,21.79,34.5,17,2.73,23.97-.75,33.12,1.86,9.15,2.61,33.99,3.49,36.61-17,.75-5.88-17.43-2.61-17.87-7.41s.53-28.98-18.64-32.04c-4.32-.69-8.17-.36-11.41.4-.21-.51-.48-1.03-.66-1.53-2.29-6.27-2.23-12.05-1.59-17.67h0c.22-1.91.49-3.81.76-5.7.09-.61.17-1.23.26-1.84.04-.26.07-.52.11-.79.87-6.4,1.31-12.82-1.41-19.82-2.78-7.15-11.48-13.6-22.29-17.13,0,0,0,0-.01,0-3-.98-6.16-1.73-9.42-2.21,0,0,0,0,0,0h0c-17.69-2.6-37.81,2.97-47.44,24.45-.14.31-.28.63-.42.95-.26.6-.52,1.2-.76,1.82-4.6-6.95-12.19-16.48-22.39-22.93.02-.06.05-.13.07-.19-5.35-3.34-11.43-5.75-18.15-6.57-.53-.07-1.07-.12-1.6-.17-.63-.05-1.25-.11-1.88-.13-4.67-.18-9.63.43-14.87,2.12-31.97,10.34-30.86,37.35-25.61,53.31.02.05.03.09.05.14.43,1.3.89,2.52,1.36,3.66.03.08.06.15.09.22.46,1.11.94,2.13,1.4,3.04.03.06.06.12.09.17.49.95.97,1.79,1.43,2.49,5.03,7.71,9.28,14.7,12.89,21.1,1.8,3.2,3.45,6.25,4.94,9.18.75,1.46,1.46,2.89,2.14,4.29,2.04,4.19,3.77,8.11,5.26,11.81.5,1.23.97,2.44,1.41,3.63,2.66,7.12,4.42,13.44,5.74,19.41.44,1.99.83,3.94,1.19,5.87.36,1.93.69,3.84,1,5.74.16.95.31,1.9.46,2.85,1.52,9.5,2.89,19.06,6.28,30.76,1.98,6.82,5.01,15.27,9.91,23.5.49.82,1,1.64,1.53,2.46,7.39,11.42,18.57,22.02,35.74,26.66,2.45.66,5.03,1.21,7.73,1.61,2.7.41,5.54.67,8.5.79,4.45.18,9.2.01,14.28-.54,1.71-.19,3.36-.44,4.97-.75.45-.09.87-.21,1.31-.3,1.15-.25,2.3-.51,3.4-.82.45-.13.87-.28,1.3-.42,1.07-.33,2.13-.67,3.15-1.06.38-.14.75-.31,1.12-.46,1.05-.43,2.1-.86,3.1-1.34.3-.14.58-.3.87-.44,1.06-.53,2.11-1.09,3.12-1.68.21-.12.41-.25.62-.38,1.08-.65,2.13-1.32,3.14-2.03.12-.09.25-.18.37-.26,1.09-.77,2.14-1.57,3.16-2.41.05-.04.11-.09.16-.13,1.08-.89,2.12-1.81,3.13-2.76h0c22.99-21.74,27.56-58.64,32.86-60.2,7.21-2.12,31.79,4.66,35.6-5.09,3.6-9.21-18.13-24.58-46.27-22.09Z"/><path class="cls-8" d="M206.98,107.24c-9.28-18.38,3.28-32.21-3.46-49.49-8.45-21.69-71.14-37.12-82.97,16.74h34.39c-4,10.92-6.73,37.12,11.1,51.67l40.94-18.92Z"/><line class="cls-7" x1="162.19" y1="35.61" x2="160.42" y2="40.36"/><line class="cls-7" x1="155.04" y1="36.89" x2="155.85" y2="40.36"/><path class="cls-1" d="M154.94,74.49c1.57-9.16-15.69-12.08-24.98,0h24.98Z"/><path class="cls-3" d="M120.56,74.49h19.79c-4.69-5.2-10.54-10.65-14.68-14.34-2.15,4.12-3.91,8.85-5.11,14.34Z"/><path class="cls-4" d="M205.59,69.55c-11.5-1.35-26.91,3.55-25.98,13.56.68,7.36,14.47,5.23,24.2,2.79.62-5.48,1.75-10.83,1.78-16.35Z"/><path class="cls-4" d="M171.81,38.4c-10.7,6.34-14.91,15.5-8.04,17.1,6.32,1.47,17.62-6.37,25.9-11.32-5.19-2.78-11.35-4.83-17.86-5.78Z"/><path class="cls-13" d="M207.87,71.5c-11.5-1.35-26.91,3.55-25.98,13.56.68,7.36,14.47,5.23,24.2,2.79.62-5.48,1.75-10.83,1.78-16.35Z"/><path class="cls-13" d="M174.08,40.36c-10.7,6.34-14.91,15.5-8.04,17.1,6.32,1.47,17.62-6.37,25.9-11.32-5.19-2.78-11.35-4.83-17.86-5.78Z"/><path class="cls-7" d="M142.5,69.32s-.27,2.83,1.92,4"/><path class="cls-3" d="M205.4,103.57c-3.12-.04-8.62.64-14.79,4.88,0,0-19.55-6.41-33.8,6.14,2.16,4.25,5.13,8.23,9.23,11.57l40.94-18.92c-.63-1.24-1.14-2.46-1.58-3.67Z"/><path class="cls-7" d="M243.73,158.16s12.57-1.93,18.23,3.25"/><path class="cls-7" d="M265.1,170.66s.15-6.83-3.14-9.25c0,0,6.21-1.7,11.05,2.54"/><path class="cls-8" d="M253.98,144.15c.75-5.88-17.43-2.61-17.87-7.41s.53-28.98-18.64-32.04c-13.28-2.13-22.23,5.37-22.23,5.37,0,0-31.03-2.9-32.77,14.72-1.74,17.62,4.79,31.76,21.79,34.5,17,2.73,23.97-.75,33.12,1.86,9.15,2.61,33.99,3.49,36.61-17Z"/><line class="cls-7" x1="226.67" y1="104.32" x2="222" y2="110.32"/><line class="cls-7" x1="230.7" y1="109.45" x2="227.32" y2="111.68"/><line class="cls-7" x1="250.25" y1="147.25" x2="252.74" y2="143.99"/><line class="cls-7" x1="235.3" y1="149.36" x2="241.82" y2="150.32"/><line class="cls-7" x1="230.7" y1="131.15" x2="231.66" y2="136.71"/><line class="cls-7" x1="218.43" y1="140.54" x2="217.47" y2="136.71"/><path class="cls-8" d="M128.36,74.47s-23.74-49.72-64-36.7c-40.27,13.02-28.07,52.5-21.19,63.04,40.27,61.69,30.47,77.18,41.33,114.64,6.32,21.82,23.52,60.4,77.7,54.48,52.75-5.77,58.57-73.33,65.78-75.45,7.21-2.12,31.79,4.66,35.6-5.09,3.81-9.75-20.77-26.44-51.29-21.49-30.52,4.96-26.23,47.91-43.66,51.58-41.96,8.84-23.74-58.73-38.15-78.95-14.41-20.23-36.74-32.41-42.25-66.06h40.13Z"/><line class="cls-7" x1="45.61" y1="45.53" x2="48.87" y2="50.01"/><line class="cls-7" x1="41.47" y1="50.86" x2="44.73" y2="53.36"/><line class="cls-7" x1="261.96" y1="177.78" x2="256.3" y2="182.04"/><line class="cls-7" x1="260.44" y1="185.84" x2="266.32" y2="185.84"/><path class="cls-1" d="M155.07,263.57c-31.48.12-45.2-11.21-57.07-35.02-11.87-23.81-5.66-42.97-17.95-84.56-9.6-32.5-31.37-48.26-37.72-59.28-3.4-5.9-4.99-12.87-5.74-18.1-2.51,14.02,2.82,28.44,6.58,34.2,40.27,61.69,30.47,77.18,41.33,114.64,6.32,21.82,23.52,60.4,77.7,54.48,13.97-1.53,24.63-7.41,32.92-15.25-10.74,4.67-24.45,8.83-40.04,8.89Z"/><path class="cls-7" d="M88.29,72.17s0-10.09,6.9-13.54"/><path class="cls-4" d="M100.87,42.51c-9.78-6.1-21.93-9.34-36.15-4.74-.93.3-1.8.63-2.67.96-.53,4.66,2.98,9.67,18.63,10.92,13.84,1.11,18.81-2.72,20.19-7.14Z"/><path class="cls-4" d="M88.98,79.06c-12.39.63-28.21,8-23.26,18.33,4.53,9.45,17.82,1.97,28.61-2.43-2.22-4.75-4.06-10-5.35-15.9Z"/><path class="cls-4" d="M118.28,126.2c-11.32,2.6-27.74,9.57-23.94,19.24,4.35,11.08,22.91.62,36.06-4.99-3.7-5.02-7.86-9.64-12.12-14.25Z"/><path class="cls-4" d="M139.71,195.18c-.82-4.99-1.32-10.33-1.75-15.7-11.73-.38-26.9,2.77-26.31,13.75.63,11.74,14.74,4.3,28.07,1.95Z"/><path class="cls-4" d="M163.11,220.36c-5.67.29-10.01-1.11-13.33-3.76-7.13,6.16-15.52,20.08-3.62,23.57,11.37,3.33,15.54-11.71,16.95-19.81Z"/><path class="cls-4" d="M179.92,207.64c6.75,4.43,14.71,14.61,20.93,11.6,7.13-3.44,8.51-22.09-14.67-26.74-2.31,5.22-4.19,10.54-6.26,15.14Z"/><path class="cls-4" d="M222.3,167.09c-3.47.02-7.07.29-10.75.88-.9.15-1.77.33-2.61.54,4.67,3.75,9.15,11.04,17.19,9.97,7.43-.99,2.39-7.43-3.83-11.4Z"/><path class="cls-13" d="M102.39,46.03c-9.78-6.1-21.93-9.34-36.15-4.74-.93.3-1.8.63-2.67.96-.53,4.66,2.98,9.67,18.63,10.92,13.84,1.11,18.81-2.72,20.19-7.14Z"/><path class="cls-13" d="M90.85,81.56c-12.39.63-28.21,8-23.26,18.33,4.53,9.45,17.82,1.97,28.61-2.43-2.22-4.75-4.06-10-5.35-15.9Z"/><path class="cls-13" d="M119.41,128.7c-11.32,2.6-27.74,9.57-23.94,19.24,4.35,11.08,22.91.62,36.06-4.99-3.7-5.02-7.86-9.64-12.12-14.25Z"/><path class="cls-13" d="M141.59,197.68c-.82-4.99-1.32-10.33-1.75-15.7-11.73-.38-26.9,2.77-26.31,13.75.63,11.74,14.74,4.3,28.07,1.95Z"/><path class="cls-13" d="M164.99,223.71c-5.67.29-10.01-1.11-13.33-3.76-7.13,6.16-15.52,20.08-3.62,23.57,11.37,3.33,15.54-11.71,16.95-19.81Z"/><path class="cls-13" d="M182.33,210.14c6.75,4.43,14.71,14.61,20.93,11.6,7.13-3.44,8.51-22.09-14.67-26.74-2.31,5.22-4.19,10.54-6.26,15.14Z"/><path class="cls-13" d="M224.91,170.54c-3.47.02-7.07.29-10.75.88-.9.15-1.77.33-2.61.54,4.67,3.75,9.15,11.04,17.19,9.97,7.43-.99,2.39-7.43-3.83-11.4Z"/><path class="cls-7" d="M47.13,95.41s-2.1,2.99-1.37,5.99"/><path class="cls-7" d="M60.66,112.69s-3.33,1.89-3.33,6.01"/><path class="cls-7" d="M73.77,135.28s-3.58,1.4-4.66,7.13"/><path class="cls-7" d="M82.72,166.67s-2.83.73-4.38,3.56"/><path class="cls-7" d="M87.65,199.25s-2.96-.96-4.93,1.2"/><path class="cls-7" d="M93.04,221.95s-1.58,1.78-2.56,3.56"/><path class="cls-7" d="M105.81,246.05s-1.64,1.78-1.64,3.56"/><line class="cls-7" x1="83.3" y1="218.5" x2="86.64" y2="217.45"/><line class="cls-7" x1="81.69" y1="213.78" x2="84.97" y2="213.78"/></g></g></svg>