<?xml version="1.0" encoding="UTF-8"?><svg xmlns="http://www.w3.org/2000/svg" xmlns:xlink="http://www.w3.org/1999/xlink" viewBox="0 0 300 300"><defs><style>.cls-1{fill:url(#_40_10_ppp-8);}.cls-1,.cls-2,.cls-3,.cls-4,.cls-5,.cls-6,.cls-7{mix-blend-mode:multiply;}.cls-1,.cls-4,.cls-5{opacity:.1;}.cls-8{fill:#ffcb57;}.cls-2{fill:url(#_40_10_ppp-4);}.cls-2,.cls-9,.cls-10,.cls-7,.cls-11,.cls-12{opacity:.25;}.cls-3{fill:url(#_40_10_ppp);opacity:.15;}.cls-13{clip-path:url(#clippath-4);}.cls-14{fill:#282659;}.cls-15{fill:#1d1061;}.cls-16,.cls-17,.cls-18{fill:none;}.cls-4{fill:url(#_40_10_ppp-5);}.cls-19{clip-path:url(#clippath-1);}.cls-9{fill:#ffffb6;}.cls-20{fill:#db6b4c;}.cls-10{fill:url(#_40_10_ppp-3);}.cls-10,.cls-11,.cls-12{mix-blend-mode:overlay;}.cls-21{isolation:isolate;}.cls-22{clip-path:url(#clippath-5);}.cls-5{fill:url(#_40_10_ppp-6);}.cls-23{clip-path:url(#clippath-3);}.cls-24{fill:#f2f0ec;}.cls-17{stroke-width:2px;}.cls-17,.cls-18{stroke:#1d1061;stroke-linecap:round;stroke-linejoin:round;}.cls-6{fill:url(#_40_10_ppp_4);opacity:.05;}.cls-7{fill:url(#_40_10_ppp_3);}.cls-18{stroke-width:4px;}.cls-25{fill:#a5a5a5;}.cls-26{clip-path:url(#clippath-2);}.cls-11{fill:url(#_40_10_ppp-7);}.cls-27{fill:#7a7a7a;}.cls-28{clip-path:url(#clippath);}.cls-29{fill:url(#Dégradé_sans_nom_8);}.cls-30{opacity:.5;}.cls-12{fill:url(#_40_10_ppp-2);}</style><clipPath id="clippath"><rect class="cls-16" x="10" y="10" width="280" height="280" rx="20" ry="20"/></clipPath><pattern id="_40_10_ppp_4" x="0" y="0" width="11.34" height="11.34" patternTransform="translate(7783.34 7508.34) scale(2)" patternUnits="userSpaceOnUse" viewBox="0 0 11.34 11.34"><rect class="cls-16" x="0" width="11.34" height="11.34"/><circle class="cls-14" cx="9.7" cy="9.69" r="1.2"/><circle class="cls-14" cx="4.03" cy="9.69" r="1.2"/><path class="cls-14" d="M9.7,5.22c.66,0,1.2-.54,1.2-1.2s-.54-1.2-1.2-1.2-1.2.54-1.2,1.2.54,1.2,1.2,1.2Z"/><path class="cls-14" d="M4.03,5.22c.66,0,1.2-.54,1.2-1.2s-.54-1.2-1.2-1.2-1.2.54-1.2,1.2.54,1.2,1.2,1.2Z"/><path class="cls-14" d="M1.2,8.06c.66,0,1.2-.54,1.2-1.2s-.54-1.2-1.2-1.2S0,6.2,0,6.86s.54,1.2,1.2,1.2Z"/><circle class="cls-14" cx="6.86" cy="6.86" r="1.2"/><path class="cls-14" d="M1.2,2.39c.66,0,1.2-.54,1.2-1.2S1.86,0,1.2,0,0,.54,0,1.2s.54,1.2,1.2,1.2Z"/><circle class="cls-14" cx="6.86" cy="1.2" r="1.2"/></pattern><linearGradient id="Dégradé_sans_nom_8" x1="150" y1="300" x2="150" y2="8.88" gradientUnits="userSpaceOnUse"><stop offset="0" stop-color="#f2f0ec" stop-opacity="0"/><stop offset="1" stop-color="#f2f0ec"/></linearGradient><clipPath id="clippath-1"><rect class="cls-16" x="10" y="10" width="280" height="280" rx="20" ry="20"/></clipPath><pattern id="_40_10_ppp" x="0" y="0" width="10" height="10" patternTransform="translate(7443.48 6218.6) scale(2)" patternUnits="userSpaceOnUse" viewBox="0 0 10 10"><rect class="cls-16" width="10" height="10"/><circle class="cls-15" cx="8.95" cy="8.95" r="1.05"/><circle class="cls-15" cx="3.68" cy="8.95" r="1.05"/><path class="cls-15" d="M8.95,4.74c.58,0,1.05-.47,1.05-1.05s-.47-1.05-1.05-1.05-1.05.47-1.05,1.05.47,1.05,1.05,1.05Z"/><path class="cls-15" d="M3.68,4.74c.58,0,1.05-.47,1.05-1.05s-.47-1.05-1.05-1.05-1.05.47-1.05,1.05.47,1.05,1.05,1.05Z"/><path class="cls-15" d="M1.05,7.37c.58,0,1.05-.47,1.05-1.05s-.47-1.05-1.05-1.05S0,5.73,0,6.32s.47,1.05,1.05,1.05Z"/><circle class="cls-15" cx="6.32" cy="6.32" r="1.05"/><path class="cls-15" d="M1.05,2.11c.58,0,1.05-.47,1.05-1.05S1.63,0,1.05,0,0,.47,0,1.05s.47,1.05,1.05,1.05Z"/><circle class="cls-15" cx="6.32" cy="1.05" r="1.05"/></pattern><clipPath id="clippath-2"><rect class="cls-16" x="10" y="10" width="280" height="280" rx="20" ry="20"/></clipPath><pattern id="_40_10_ppp_3" x="0" y="0" width="10" height="10" patternTransform="translate(7473.48 6218.6) scale(2)" patternUnits="userSpaceOnUse" viewBox="0 0 10 10"><rect class="cls-16" width="10" height="10"/><circle class="cls-8" cx="8.95" cy="8.95" r="1.05"/><circle class="cls-8" cx="3.68" cy="8.95" r="1.05"/><path class="cls-8" d="M8.95,4.74c.58,0,1.05-.47,1.05-1.05s-.47-1.05-1.05-1.05-1.05.47-1.05,1.05.47,1.05,1.05,1.05Z"/><path class="cls-8" d="M3.68,4.74c.58,0,1.05-.47,1.05-1.05s-.47-1.05-1.05-1.05-1.05.47-1.05,1.05.47,1.05,1.05,1.05Z"/><path class="cls-8" d="M1.05,7.37c.58,0,1.05-.47,1.05-1.05s-.47-1.05-1.05-1.05S0,5.73,0,6.32s.47,1.05,1.05,1.05Z"/><circle class="cls-8" cx="6.32" cy="6.32" r="1.05"/><path class="cls-8" d="M1.05,2.11c.58,0,1.05-.47,1.05-1.05S1.63,0,1.05,0,0,.47,0,1.05s.47,1.05,1.05,1.05Z"/><circle class="cls-8" cx="6.32" cy="1.05" r="1.05"/></pattern><pattern id="_40_10_ppp-2" patternTransform="translate(7473.48 6218.6) scale(2)" xlink:href="#_40_10_ppp"/><pattern id="_40_10_ppp-3" patternTransform="translate(7473.48 6218.6) scale(2)" xlink:href="#_40_10_ppp"/><pattern id="_40_10_ppp-4" patternTransform="translate(7473.48 6218.6) scale(2)" xlink:href="#_40_10_ppp"/><clipPath id="clippath-3"><rect class="cls-16" x="360" y="-368.35" width="280" height="280" rx="20" ry="20"/></clipPath><pattern id="_40_10_ppp-5" patternTransform="translate(7569.01 6664.6) scale(2)" xlink:href="#_40_10_ppp"/><clipPath id="clippath-4"><rect class="cls-16" x="10" y="-368.35" width="280" height="280" rx="20" ry="20"/></clipPath><pattern id="_40_10_ppp-6" patternTransform="translate(7419.01 6664.6) scale(2)" xlink:href="#_40_10_ppp"/><pattern id="_40_10_ppp-7" patternTransform="translate(7419.01 6664.6) scale(2)" xlink:href="#_40_10_ppp"/><clipPath id="clippath-5"><rect class="cls-16" x="-340" y="-368.35" width="280" height="280" rx="20" ry="20"/></clipPath><pattern id="_40_10_ppp-8" patternTransform="translate(7429.01 6664.6) scale(2)" xlink:href="#_40_10_ppp"/></defs><g class="cls-21"><g id="Calque_25"><rect class="cls-24" x="10" y="10" width="280" height="280" rx="20" ry="20"/><g class="cls-28"><rect class="cls-6" y="0" width="300" height="300"/><rect class="cls-29" x="0" y="0" width="300" height="300"/></g></g><g id="BG_-_copie_6"><g class="cls-30"><g class="cls-19"><polygon class="cls-15" points="90.08 252.45 90.08 264.57 101.63 264.57 101.63 503.2 275.51 503.2 275.51 264.57 201.51 258.51 201.51 252.45 90.08 252.45"/><rect class="cls-25" x="105.71" y="257.12" width="99.88" height="244.69"/><line class="cls-17" x1="117.83" y1="319.76" x2="117.83" y2="268.38"/><polygon class="cls-3" points="105.71 263.18 105.71 268.38 117.83 268.38 149.88 284.29 205.59 284.29 205.59 263.18 105.71 263.18"/><line class="cls-17" x1="148.61" y1="268.38" x2="148.61" y2="471.02"/><rect class="cls-27" x="94.16" y="251.06" width="111.42" height="12.12"/><rect class="cls-27" x="203.91" y="257.12" width="73.07" height="244.69"/><rect class="cls-27" x="195.46" y="251.06" width="81.52" height="12.12"/></g></g></g><g id="ZONE_3_B_-_copie"><g class="cls-26"><circle class="cls-9" cx="180.9" cy="178.74" r="64.05"/><circle class="cls-7" cx="184.72" cy="182.31" r="64.05"/><path class="cls-15" d="M190.3,216.07c0-4.18,2.12-8.11,5.68-10.29,9.21-5.63,15.36-15.75,15.36-27.34,0-18.92-16.39-34.02-35.74-31.87-14.37,1.6-26.12,13-28.09,27.32-1.84,13.41,4.62,25.46,14.97,31.83,3.59,2.21,5.76,6.13,5.76,10.34v6.43h-17.11v31.6h56.28v-31.6h-17.11v-6.43Z"/><path class="cls-8" d="M213.32,177.01c0-18.92-16.39-34.02-35.74-31.87-14.37,1.6-26.12,13-28.09,27.32-1.84,13.41,4.62,25.46,14.97,31.83,3.59,2.21,5.76,6.13,5.76,10.34v8.58h22.06v-8.58c0-4.18,2.12-8.11,5.68-10.29,9.21-5.63,15.36-15.75,15.36-27.34Z"/><path class="cls-12" d="M215.54,180.7c0-18.92-16.39-34.02-35.74-31.87-14.37,1.6-26.12,13-28.09,27.32-1.84,13.41,4.62,25.46,14.97,31.83,3.59,2.21,5.76,6.13,5.76,10.34v8.58h22.06v-8.58c0-4.18,2.12-8.11,5.68-10.29,9.21-5.63,15.36-15.75,15.36-27.34Z"/><path class="cls-17" d="M187.92,217.04s-.99-14.03,1.84-19.6c2.3-4.52,8.99-16.29,4.08-19.13s-13.17,7.27-8.95,9.4c4.22,2.13,7.97-12.28-3.13-13.12-11.1-.83-8.68,15.01-4.45,13.59s-2.89-13.9-8.93-8.91c-4.68,3.88,2.87,11.03,5.06,19.31s1.95,16.38,1.95,16.38"/><rect class="cls-20" x="153.11" y="221.07" width="56.28" height="31.6"/><rect class="cls-10" x="149.7" y="223.08" width="23.4" height="31.6"/><path class="cls-18" d="M202.47,246.51h5.8c3.02,0,5.47,2.45,5.47,5.47h0c0,3.02-2.45,5.47-5.47,5.47h-15.86c-3.8,0-6.88,3.08-6.88,6.88v54.35c0,9.15,3.64,17.93,10.11,24.4l21.26,21.26c6.47,6.47,15.25,10.11,24.4,10.11h0"/><circle class="cls-24" cx="185.53" cy="303.94" r="11.29"/><circle class="cls-2" cx="187.58" cy="305.8" r="10.09"/></g></g><g id="BG_-_copie_7"><g class="cls-30"><g class="cls-23"><path class="cls-4" d="M920.77,39.96c0,8.25-142.68,8.25-318.69,8.25s-318.69-3.69-318.69-8.25,142.68-8.25,318.69-8.25,318.69,0,318.69,8.25Z"/></g></g><g class="cls-30"><g class="cls-13"><path class="cls-15" d="M350.42-91.89h-76.98v-176.17c0-4.86-3.07-9.18-7.67-10.75-32.01-10.91-160.07-47.94-305.98.15-4.63,1.53-7.73,5.91-7.73,10.78V39.96h321.38V-17.39h76.98v-74.5Z"/><path class="cls-5" d="M570.77,39.96c0,8.25-142.68,8.25-318.69,8.25s-318.69-3.69-318.69-8.25,142.68-8.25,318.69-8.25,318.69,0,318.69,8.25Z"/><path class="cls-27" d="M271.36-281.12c-32.01-10.91-160.07-47.94-305.98.15-4.63,1.53-7.73,5.91-7.73,10.78V37.64h321.38v-308.02c0-4.86-3.07-9.18-7.67-10.75Z"/><polygon class="cls-11" points="-8.89 -15.89 44.12 41.45 285.94 41.45 285.94 -15.89 -8.89 -15.89"/><polygon class="cls-15" points="-15.79 -19.7 -15.79 -17.84 278.87 4.58 279.03 -19.7 -15.79 -19.7"/></g></g><g class="cls-30"><g class="cls-22"><path class="cls-15" d="M.42-91.89h-76.98v-176.17c0-4.86-3.07-9.18-7.67-10.75-32.01-10.91-160.07-47.94-305.98.15-4.63,1.53-7.73,5.91-7.73,10.78V39.96H-76.55V-17.39H.42v-74.5Z"/><path class="cls-1" d="M220.77,39.96c0,8.25-142.68,8.25-318.69,8.25s-318.69-3.69-318.69-8.25,142.68-8.25,318.69-8.25,318.69,0,318.69,8.25Z"/></g></g></g></g></svg>