<?xml version="1.0" encoding="UTF-8"?><svg xmlns="http://www.w3.org/2000/svg" xmlns:xlink="http://www.w3.org/1999/xlink" viewBox="0 0 300 300"><defs><style>.cls-1{clip-path:url(#clippath-6);}.cls-2{clip-path:url(#clippath-7);}.cls-3{fill:#ffcb57;}.cls-4{clip-path:url(#clippath-4);}.cls-5{fill:url(#Dégradé_sans_nom_2-2);}.cls-6{fill:url(#_40_10_ppp-4);}.cls-7{fill:#fff;}.cls-8{fill:#282659;}.cls-9{fill:#1d1061;}.cls-10,.cls-11,.cls-12{fill:none;}.cls-13{fill:#5cc6a0;}.cls-11{stroke-width:1.29px;}.cls-11,.cls-12{stroke:#1d1061;stroke-linecap:round;stroke-linejoin:round;}.cls-14{fill:url(#Dégradé_sans_nom_2);}.cls-15{clip-path:url(#clippath-1);}.cls-16{isolation:isolate;}.cls-17{fill:url(#_40_10_ppp);}.cls-17,.cls-18,.cls-19,.cls-20,.cls-21,.cls-22{mix-blend-mode:multiply;}.cls-17,.cls-20,.cls-21,.cls-22{opacity:.05;}.cls-23{clip-path:url(#clippath-5);}.cls-18,.cls-24{opacity:.5;}.cls-18,.cls-25{fill:#6a90c6;}.cls-26{clip-path:url(#clippath-3);}.cls-19{fill:url(#_40_10_ppp-7);opacity:.15;}.cls-27{fill:#f2f0ec;}.cls-28{fill:#ff7461;}.cls-12{stroke-width:2px;}.cls-20{fill:url(#_40_10_ppp_4);}.cls-29{fill:#dedede;}.cls-30{fill:#a5a5a5;}.cls-21{fill:url(#_40_10_ppp-2);}.cls-31{clip-path:url(#clippath-2);}.cls-32{fill:url(#_40_10_ppp-6);}.cls-33{fill:url(#_40_10_ppp-3);}.cls-34{fill:#7a7a7a;}.cls-35{clip-path:url(#clippath);}.cls-36{fill:url(#Dégradé_sans_nom_8);}.cls-37{fill:#fdfdfd;}.cls-38{fill:url(#_40_10_ppp-5);}</style><clipPath id="clippath"><rect class="cls-10" x="10" y="10" width="280" height="280" rx="20" ry="20"/></clipPath><pattern id="_40_10_ppp_4" x="0" y="0" width="11.34" height="11.34" patternTransform="translate(8168.85 7419.14) scale(2)" patternUnits="userSpaceOnUse" viewBox="0 0 11.34 11.34"><rect class="cls-10" x="0" width="11.34" height="11.34"/><circle class="cls-8" cx="9.7" cy="9.69" r="1.2"/><circle class="cls-8" cx="4.03" cy="9.69" r="1.2"/><path class="cls-8" d="M9.7,5.22c.66,0,1.2-.54,1.2-1.2s-.54-1.2-1.2-1.2-1.2.54-1.2,1.2.54,1.2,1.2,1.2Z"/><path class="cls-8" d="M4.03,5.22c.66,0,1.2-.54,1.2-1.2s-.54-1.2-1.2-1.2-1.2.54-1.2,1.2.54,1.2,1.2,1.2Z"/><path class="cls-8" d="M1.2,8.06c.66,0,1.2-.54,1.2-1.2s-.54-1.2-1.2-1.2S0,6.2,0,6.86s.54,1.2,1.2,1.2Z"/><circle class="cls-8" cx="6.86" cy="6.86" r="1.2"/><path class="cls-8" d="M1.2,2.39c.66,0,1.2-.54,1.2-1.2S1.86,0,1.2,0,0,.54,0,1.2s.54,1.2,1.2,1.2Z"/><circle class="cls-8" cx="6.86" cy="1.2" r="1.2"/></pattern><linearGradient id="Dégradé_sans_nom_8" x1="150" y1="300" x2="150" y2="8.88" gradientUnits="userSpaceOnUse"><stop offset="0" stop-color="#f2f0ec" stop-opacity="0"/><stop offset="1" stop-color="#f2f0ec"/></linearGradient><clipPath id="clippath-1"><rect class="cls-10" x="360" y="10" width="280" height="280" rx="20" ry="20"/></clipPath><clipPath id="clippath-2"><polygon class="cls-10" points="261.42 255.95 429.27 255.95 587.57 97.65 419.72 97.65 261.42 255.95"/></clipPath><pattern id="_40_10_ppp" x="0" y="0" width="10" height="10" patternTransform="translate(2130.37 -176.77) scale(1.29)" patternUnits="userSpaceOnUse" viewBox="0 0 10 10"><rect class="cls-10" width="10" height="10"/><circle class="cls-9" cx="8.95" cy="8.95" r="1.05"/><circle class="cls-9" cx="3.68" cy="8.95" r="1.05"/><path class="cls-9" d="M8.95,4.74c.58,0,1.05-.47,1.05-1.05s-.47-1.05-1.05-1.05-1.05.47-1.05,1.05.47,1.05,1.05,1.05Z"/><path class="cls-9" d="M3.68,4.74c.58,0,1.05-.47,1.05-1.05s-.47-1.05-1.05-1.05-1.05.47-1.05,1.05.47,1.05,1.05,1.05Z"/><path class="cls-9" d="M1.05,7.37c.58,0,1.05-.47,1.05-1.05s-.47-1.05-1.05-1.05S0,5.73,0,6.32s.47,1.05,1.05,1.05Z"/><circle class="cls-9" cx="6.32" cy="6.32" r="1.05"/><path class="cls-9" d="M1.05,2.11c.58,0,1.05-.47,1.05-1.05S1.63,0,1.05,0,0,.47,0,1.05s.47,1.05,1.05,1.05Z"/><circle class="cls-9" cx="6.32" cy="1.05" r="1.05"/></pattern><linearGradient id="Dégradé_sans_nom_2" x1="379.68" y1="228.07" x2="382.4" y2="99.32" gradientUnits="userSpaceOnUse"><stop offset="0" stop-color="#6a90c6" stop-opacity="0"/><stop offset="1" stop-color="#6a90c6"/></linearGradient><clipPath id="clippath-3"><polygon class="cls-10" points="244.49 210.8 412.35 210.8 517.82 105.33 349.96 105.33 244.49 210.8"/></clipPath><clipPath id="clippath-4"><rect class="cls-10" x="10" y="10" width="280" height="280" rx="20" ry="20"/></clipPath><clipPath id="clippath-5"><polygon class="cls-10" points="-88.58 255.95 79.27 255.95 237.57 97.65 69.72 97.65 -88.58 255.95"/></clipPath><pattern id="_40_10_ppp-2" patternTransform="translate(2192.86 -176.77) scale(1.29)" xlink:href="#_40_10_ppp"/><linearGradient id="Dégradé_sans_nom_2-2" x1="29.68" y1="228.07" x2="32.4" y2="99.32" xlink:href="#Dégradé_sans_nom_2"/><clipPath id="clippath-6"><polygon class="cls-10" points="-105.51 210.8 62.35 210.8 167.82 105.33 -.04 105.33 -105.51 210.8"/></clipPath><pattern id="_40_10_ppp-3" patternTransform="translate(2181.21 -176.17) scale(1.29)" xlink:href="#_40_10_ppp"/><pattern id="_40_10_ppp-4" patternTransform="translate(2181.21 -176.17) scale(1.29)" xlink:href="#_40_10_ppp"/><pattern id="_40_10_ppp-5" patternTransform="translate(2181.21 -176.17) scale(1.29)" xlink:href="#_40_10_ppp"/><pattern id="_40_10_ppp-6" patternTransform="translate(2181.21 -176.17) scale(1.29)" xlink:href="#_40_10_ppp"/><clipPath id="clippath-7"><rect class="cls-10" x="10" y="-374" width="280" height="280" rx="20" ry="20"/></clipPath><pattern id="_40_10_ppp-7" patternTransform="translate(7803.48 5834.6) scale(2)" xlink:href="#_40_10_ppp"/></defs><g class="cls-16"><g id="Calque_25"><rect class="cls-27" x="10" y="10" width="280" height="280" rx="20" ry="20"/><g class="cls-35"><rect class="cls-20" y="0" width="300" height="300"/><rect class="cls-36" x="0" y="0" width="300" height="300"/></g></g><g id="BG_-_copie"><g class="cls-24"><g class="cls-15"><polygon class="cls-37" points="261.42 255.95 429.27 255.95 587.57 97.65 419.72 97.65 261.42 255.95"/><g class="cls-31"><polygon class="cls-29" points="251.5 229.16 419.35 229.16 577.65 70.86 409.8 70.86 251.5 229.16"/><polygon class="cls-37" points="245.54 215.76 413.4 215.76 523.81 105.35 355.96 105.35 245.54 215.76"/><polygon class="cls-25" points="244.49 210.8 412.35 210.8 517.82 105.33 349.96 105.33 244.49 210.8"/><polygon class="cls-17" points="244.49 210.8 412.35 210.8 517.82 105.33 349.96 105.33 244.49 210.8"/><polygon class="cls-14" points="244.49 210.8 412.35 210.8 517.82 105.33 349.96 105.33 244.49 210.8"/><g class="cls-26"><path class="cls-18" d="M281.18,175.38c-3.37-6.85-5.27-14.55-5.27-22.7,0-28.43,23.05-51.47,51.47-51.47,20.15,0,37.58,11.58,46.04,28.45,2.94-1.66,5.89-2.21,8.59-1.38,8.8,2.7,11.6,19.02,6.25,36.45-.21.7-.44,1.38-.67,2.06,8.04,1.09,15.46,4.12,21.79,8.59h-128.19ZM391.07,101.2c-3.51,0-6.36,2.85-6.36,6.36s2.85,6.36,6.36,6.36,6.36-2.85,6.36-6.36-2.85-6.36-6.36-6.36ZM380.11,182.39c-1.85,0-3.35,1.5-3.35,3.35s1.5,3.35,3.35,3.35,3.35-1.5,3.35-3.35-1.5-3.35-3.35-3.35Z"/><path class="cls-7" d="M281.18,171.82c-3.37-6.85-5.27-14.55-5.27-22.7,0-28.43,23.05-51.47,51.47-51.47,20.15,0,37.58,11.58,46.04,28.45,2.94-1.66,5.89-2.21,8.59-1.38,8.8,2.7,11.6,19.02,6.25,36.45-.21.7-.44,1.38-.67,2.06,8.04,1.09,15.46,4.12,21.79,8.59h-128.19ZM391.07,97.65c-3.51,0-6.36,2.85-6.36,6.36s2.85,6.36,6.36,6.36,6.36-2.85,6.36-6.36-2.85-6.36-6.36-6.36ZM380.11,178.83c-1.85,0-3.35,1.5-3.35,3.35s1.5,3.35,3.35,3.35,3.35-1.5,3.35-3.35-1.5-3.35-3.35-3.35Z"/></g></g></g></g><g class="cls-24"><g class="cls-4"><polygon class="cls-37" points="-88.58 255.95 79.27 255.95 237.57 97.65 69.72 97.65 -88.58 255.95"/><line class="cls-11" x1="69.91" y1="230.67" x2="78.46" y2="253.75"/><g class="cls-23"><polygon class="cls-29" points="-98.5 229.16 69.35 229.16 227.65 70.86 59.8 70.86 -98.5 229.16"/><polygon class="cls-37" points="-104.46 215.76 63.4 215.76 173.81 105.35 5.96 105.35 -104.46 215.76"/><polygon class="cls-25" points="-105.51 210.8 62.35 210.8 167.82 105.33 -.04 105.33 -105.51 210.8"/><polygon class="cls-21" points="-105.51 210.8 62.35 210.8 167.82 105.33 -.04 105.33 -105.51 210.8"/><polygon class="cls-5" points="-105.51 210.8 62.35 210.8 167.82 105.33 -.04 105.33 -105.51 210.8"/><line class="cls-11" x1="63.01" y1="214.41" x2="62.45" y2="211.92"/><g class="cls-1"><path class="cls-18" d="M-68.82,175.38c-3.37-6.85-5.27-14.55-5.27-22.7,0-28.43,23.05-51.47,51.47-51.47,20.15,0,37.58,11.58,46.04,28.45,2.94-1.66,5.89-2.21,8.59-1.38,8.8,2.7,11.6,19.02,6.25,36.45-.21.7-.44,1.38-.67,2.06,8.04,1.09,15.46,4.12,21.79,8.59H-68.82ZM41.07,101.2c-3.51,0-6.36,2.85-6.36,6.36s2.85,6.36,6.36,6.36,6.36-2.85,6.36-6.36-2.85-6.36-6.36-6.36ZM30.11,182.39c-1.85,0-3.35,1.5-3.35,3.35s1.5,3.35,3.35,3.35,3.35-1.5,3.35-3.35-1.5-3.35-3.35-3.35Z"/><path class="cls-7" d="M-68.82,171.82c-3.37-6.85-5.27-14.55-5.27-22.7,0-28.43,23.05-51.47,51.47-51.47,20.15,0,37.58,11.58,46.04,28.45,2.94-1.66,5.89-2.21,8.59-1.38,8.8,2.7,11.6,19.02,6.25,36.45-.21.7-.44,1.38-.67,2.06,8.04,1.09,15.46,4.12,21.79,8.59H-68.82ZM41.07,97.65c-3.51,0-6.36,2.85-6.36,6.36s2.85,6.36,6.36,6.36,6.36-2.85,6.36-6.36-2.85-6.36-6.36-6.36ZM30.11,178.83c-1.85,0-3.35,1.5-3.35,3.35s1.5,3.35,3.35,3.35,3.35-1.5,3.35-3.35-1.5-3.35-3.35-3.35Z"/></g></g></g></g></g><g id="ZONE_4_A_-_copie"><path class="cls-9" d="M88.27,125.15l-30.91,33.59-5.22-49.46c9.08,5.21,21.32,11.15,36.13,15.86ZM97.5,127.82l19.53,45.27,25.38-39.46c-16.48,0-31.57-2.32-44.9-5.81ZM157.08,133.01l21.62,37.12,13.15-43.57c-12.07,3.46-23.69,5.51-34.77,6.45ZM203.07,122.96l26.69,28.19,5.17-42.56c-10.88,5.97-21.52,10.71-31.86,14.37ZM38.34,147.05c0-2.42-1.83-4.38-4.09-4.38s-4.09,1.96-4.09,4.38,1.83,4.38,4.09,4.38,4.09-1.96,4.09-4.38ZM258.24,147.05c0-2.42-1.83-4.38-4.09-4.38s-4.09,1.96-4.09,4.38,1.83,4.38,4.09,4.38,4.09-1.96,4.09-4.38Z"/><path class="cls-11" d="M36.05,146.36v-48.54s97.24,82.25,219.91,0v48.54"/><path class="cls-28" d="M53.95,108.59l5.22,49.46,30.91-33.59c-14.81-4.72-27.05-10.66-36.13-15.86Z"/><path class="cls-25" d="M99.3,127.14l19.53,45.27,25.38-39.46c-16.48,0-31.57-2.32-44.9-5.81Z"/><path class="cls-3" d="M158.88,132.32l21.62,37.12,13.15-43.57c-12.07,3.46-23.69,5.51-34.77,6.45Z"/><path class="cls-13" d="M204.87,122.28l26.69,28.19,5.17-42.56c-10.88,5.97-21.52,10.71-31.86,14.37Z"/><g class="cls-22"><path class="cls-33" d="M56.32,110.25l5.22,49.46,30.91-33.59c-14.81-4.72-27.05-10.66-36.13-15.86Z"/><path class="cls-6" d="M101.67,128.8l19.53,45.27,25.38-39.46c-16.48,0-31.57-2.32-44.9-5.81Z"/><path class="cls-38" d="M161.25,133.98l21.62,37.12,13.15-43.57c-12.07,3.46-23.69,5.51-34.77,6.45Z"/><path class="cls-32" d="M207.25,123.94l26.69,28.19,5.17-42.56c-10.88,5.97-21.52,10.71-31.86,14.37Z"/></g><ellipse class="cls-3" cx="36.05" cy="146.36" rx="4.09" ry="4.38"/><ellipse class="cls-3" cx="255.96" cy="146.36" rx="4.09" ry="4.38"/></g><g id="BG_-_copie_6"><g class="cls-24"><g class="cls-2"><polygon class="cls-9" points="90.08 -131.55 90.08 -119.43 101.63 -119.43 101.63 119.2 275.51 119.2 275.51 -119.43 201.51 -125.49 201.51 -131.55 90.08 -131.55"/><rect class="cls-30" x="105.71" y="-126.88" width="99.88" height="244.69"/><line class="cls-12" x1="117.83" y1="107.23" x2="117.83" y2="117.81"/><line class="cls-12" x1="117.83" y1="87.02" x2="117.83" y2="28.13"/><line class="cls-12" x1="117.83" y1="9.57" x2="117.83" y2="-42.83"/><line class="cls-12" x1="148.61" y1="-115.62" x2="148.61" y2="87.02"/><polygon class="cls-19" points="117.83 24.59 148.61 41.19 205.59 41.19 205.59 24.59 117.83 24.59"/><rect class="cls-34" x="117.83" y="92.06" width="87.75" height="10.7"/><rect class="cls-34" x="117.83" y="13.9" width="87.75" height="10.7"/><rect class="cls-34" x="203.91" y="-126.88" width="73.07" height="244.69"/></g></g></g></g></svg>