<?xml version="1.0" encoding="UTF-8"?><svg xmlns="http://www.w3.org/2000/svg" xmlns:xlink="http://www.w3.org/1999/xlink" viewBox="0 0 300 300"><defs><style>.cls-1{clip-path:url(#clippath-6);}.cls-2{clip-path:url(#clippath-7);}.cls-3{fill:#ffcb57;}.cls-4{clip-path:url(#clippath-4);}.cls-5{fill:url(#Dégradé_sans_nom_2-2);}.cls-6{fill:url(#_40_10_ppp-4);opacity:.15;}.cls-6,.cls-7,.cls-8,.cls-9,.cls-10,.cls-11{mix-blend-mode:multiply;}.cls-12{fill:url(#Dégradé_sans_nom_51-2);mix-blend-mode:hard-light;}.cls-13{clip-path:url(#clippath-9);}.cls-14{fill:#fff;}.cls-15{fill:#282659;}.cls-16{fill:#1d1061;}.cls-17,.cls-18,.cls-19,.cls-20,.cls-21,.cls-22,.cls-23{fill:none;}.cls-18,.cls-19,.cls-20,.cls-21,.cls-22,.cls-23{stroke-linecap:round;stroke-linejoin:round;}.cls-18,.cls-19,.cls-20,.cls-21,.cls-23{stroke-width:1.29px;}.cls-18,.cls-22{stroke:#1d1061;}.cls-24{fill:url(#Dégradé_sans_nom_2);}.cls-25{clip-path:url(#clippath-1);}.cls-26{fill:#ffffb6;}.cls-26,.cls-27,.cls-10{opacity:.25;}.cls-28{fill:url(#Dégradé_sans_nom_51);}.cls-27{fill:url(#_40_10_ppp-3);mix-blend-mode:overlay;}.cls-29{isolation:isolate;}.cls-7{fill:url(#_40_10_ppp);}.cls-7,.cls-9,.cls-11{opacity:.05;}.cls-30{clip-path:url(#clippath-5);}.cls-31{clip-path:url(#clippath-8);}.cls-8,.cls-32{opacity:.5;}.cls-8,.cls-33{fill:#6a90c6;}.cls-19{stroke:#5cc6a0;}.cls-34{clip-path:url(#clippath-3);}.cls-20{stroke:#6a90c6;}.cls-35{fill:#f2f0ec;}.cls-21{stroke:#ffcb57;}.cls-22{stroke-width:2px;}.cls-9{fill:url(#_40_10_ppp_4);}.cls-10{fill:url(#_40_10_ppp_3);}.cls-36{fill:#dedede;}.cls-37{fill:#a5a5a5;}.cls-11{fill:url(#_40_10_ppp-2);}.cls-38{clip-path:url(#clippath-2);}.cls-39{fill:#7a7a7a;}.cls-23{stroke:#ff7461;}.cls-40{clip-path:url(#clippath);}.cls-41{fill:url(#Dégradé_sans_nom_8);}.cls-42{fill:#fdfdfd;}</style><clipPath id="clippath"><rect class="cls-17" x="10" y="10" width="280" height="280" rx="20" ry="20"/></clipPath><pattern id="_40_10_ppp_4" x="0" y="0" width="11.34" height="11.34" patternTransform="translate(7806.01 7419.14) scale(2)" patternUnits="userSpaceOnUse" viewBox="0 0 11.34 11.34"><rect class="cls-17" x="0" width="11.34" height="11.34"/><circle class="cls-15" cx="9.7" cy="9.69" r="1.2"/><circle class="cls-15" cx="4.03" cy="9.69" r="1.2"/><path class="cls-15" d="M9.7,5.22c.66,0,1.2-.54,1.2-1.2s-.54-1.2-1.2-1.2-1.2.54-1.2,1.2.54,1.2,1.2,1.2Z"/><path class="cls-15" d="M4.03,5.22c.66,0,1.2-.54,1.2-1.2s-.54-1.2-1.2-1.2-1.2.54-1.2,1.2.54,1.2,1.2,1.2Z"/><path class="cls-15" d="M1.2,8.06c.66,0,1.2-.54,1.2-1.2s-.54-1.2-1.2-1.2S0,6.2,0,6.86s.54,1.2,1.2,1.2Z"/><circle class="cls-15" cx="6.86" cy="6.86" r="1.2"/><path class="cls-15" d="M1.2,2.39c.66,0,1.2-.54,1.2-1.2S1.86,0,1.2,0,0,.54,0,1.2s.54,1.2,1.2,1.2Z"/><circle class="cls-15" cx="6.86" cy="1.2" r="1.2"/></pattern><linearGradient id="Dégradé_sans_nom_8" x1="150" y1="300" x2="150" y2="8.88" gradientUnits="userSpaceOnUse"><stop offset="0" stop-color="#f2f0ec" stop-opacity="0"/><stop offset="1" stop-color="#f2f0ec"/></linearGradient><clipPath id="clippath-1"><rect class="cls-17" x="360" y="10" width="280" height="280" rx="20" ry="20"/></clipPath><clipPath id="clippath-2"><polygon class="cls-17" points="261.42 255.95 429.27 255.95 587.57 97.65 419.72 97.65 261.42 255.95"/></clipPath><pattern id="_40_10_ppp" x="0" y="0" width="10" height="10" patternTransform="translate(1769.45 -176.77) scale(1.29)" patternUnits="userSpaceOnUse" viewBox="0 0 10 10"><rect class="cls-17" width="10" height="10"/><circle class="cls-16" cx="8.95" cy="8.95" r="1.05"/><circle class="cls-16" cx="3.68" cy="8.95" r="1.05"/><path class="cls-16" d="M8.95,4.74c.58,0,1.05-.47,1.05-1.05s-.47-1.05-1.05-1.05-1.05.47-1.05,1.05.47,1.05,1.05,1.05Z"/><path class="cls-16" d="M3.68,4.74c.58,0,1.05-.47,1.05-1.05s-.47-1.05-1.05-1.05-1.05.47-1.05,1.05.47,1.05,1.05,1.05Z"/><path class="cls-16" d="M1.05,7.37c.58,0,1.05-.47,1.05-1.05s-.47-1.05-1.05-1.05S0,5.73,0,6.32s.47,1.05,1.05,1.05Z"/><circle class="cls-16" cx="6.32" cy="6.32" r="1.05"/><path class="cls-16" d="M1.05,2.11c.58,0,1.05-.47,1.05-1.05S1.63,0,1.05,0,0,.47,0,1.05s.47,1.05,1.05,1.05Z"/><circle class="cls-16" cx="6.32" cy="1.05" r="1.05"/></pattern><linearGradient id="Dégradé_sans_nom_2" x1="379.68" y1="228.07" x2="382.4" y2="99.32" gradientUnits="userSpaceOnUse"><stop offset="0" stop-color="#6a90c6" stop-opacity="0"/><stop offset="1" stop-color="#6a90c6"/></linearGradient><clipPath id="clippath-3"><polygon class="cls-17" points="244.49 210.8 412.35 210.8 517.82 105.33 349.96 105.33 244.49 210.8"/></clipPath><clipPath id="clippath-4"><rect class="cls-17" x="10" y="10" width="280" height="280" rx="20" ry="20"/></clipPath><clipPath id="clippath-5"><polygon class="cls-17" points="-88.58 255.95 79.27 255.95 237.57 97.65 69.72 97.65 -88.58 255.95"/></clipPath><pattern id="_40_10_ppp-2" patternTransform="translate(1780.37 -176.77) scale(1.29)" xlink:href="#_40_10_ppp"/><linearGradient id="Dégradé_sans_nom_2-2" x1="29.68" y1="228.07" x2="32.4" y2="99.32" xlink:href="#Dégradé_sans_nom_2"/><clipPath id="clippath-6"><polygon class="cls-17" points="-105.51 210.8 62.35 210.8 167.82 105.33 -.04 105.33 -105.51 210.8"/></clipPath><clipPath id="clippath-7"><rect class="cls-17" x="10" y="10" width="280" height="280" rx="20" ry="20"/></clipPath><pattern id="_40_10_ppp_3" x="0" y="0" width="10" height="10" patternTransform="translate(1767.43 -188.97) scale(1.29)" patternUnits="userSpaceOnUse" viewBox="0 0 10 10"><rect class="cls-17" width="10" height="10"/><circle class="cls-3" cx="8.95" cy="8.95" r="1.05"/><circle class="cls-3" cx="3.68" cy="8.95" r="1.05"/><path class="cls-3" d="M8.95,4.74c.58,0,1.05-.47,1.05-1.05s-.47-1.05-1.05-1.05-1.05.47-1.05,1.05.47,1.05,1.05,1.05Z"/><path class="cls-3" d="M3.68,4.74c.58,0,1.05-.47,1.05-1.05s-.47-1.05-1.05-1.05-1.05.47-1.05,1.05.47,1.05,1.05,1.05Z"/><path class="cls-3" d="M1.05,7.37c.58,0,1.05-.47,1.05-1.05s-.47-1.05-1.05-1.05S0,5.73,0,6.32s.47,1.05,1.05,1.05Z"/><circle class="cls-3" cx="6.32" cy="6.32" r="1.05"/><path class="cls-3" d="M1.05,2.11c.58,0,1.05-.47,1.05-1.05S1.63,0,1.05,0,0,.47,0,1.05s.47,1.05,1.05,1.05Z"/><circle class="cls-3" cx="6.32" cy="1.05" r="1.05"/></pattern><clipPath id="clippath-8"><rect class="cls-17" x="755.55" y="419.57" width="178.55" height="213.29"/></clipPath><pattern id="_40_10_ppp-3" patternTransform="translate(7604.27 5874.25) scale(2)" xlink:href="#_40_10_ppp"/><linearGradient id="Dégradé_sans_nom_51" x1="-5598.56" y1="-3580.98" x2="-5148.99" y2="-3664.52" gradientTransform="translate(-2892.63 -4925.34) rotate(-90) scale(1 -1)" gradientUnits="userSpaceOnUse"><stop offset="0" stop-color="#ffa544" stop-opacity="0"/><stop offset="1" stop-color="#db6b4c"/></linearGradient><linearGradient id="Dégradé_sans_nom_51-2" x1="-5584.88" y1="-3659.06" x2="-5137.24" y2="-3554.9" xlink:href="#Dégradé_sans_nom_51"/><clipPath id="clippath-9"><rect class="cls-17" x="10" y="-374" width="280" height="280" rx="20" ry="20"/></clipPath><pattern id="_40_10_ppp-4" patternTransform="translate(7443.48 5834.6) scale(2)" xlink:href="#_40_10_ppp"/></defs><g class="cls-29"><g id="Calque_25"><rect class="cls-35" x="10" y="10" width="280" height="280" rx="20" ry="20"/><g class="cls-40"><rect class="cls-9" y="0" width="300" height="300"/><rect class="cls-41" x="0" y="0" width="300" height="300"/></g></g><g id="BG_-_copie"><g class="cls-32"><g class="cls-25"><polygon class="cls-42" points="261.42 255.95 429.27 255.95 587.57 97.65 419.72 97.65 261.42 255.95"/><g class="cls-38"><polygon class="cls-36" points="251.5 229.16 419.35 229.16 577.65 70.86 409.8 70.86 251.5 229.16"/><polygon class="cls-42" points="245.54 215.76 413.4 215.76 523.81 105.35 355.96 105.35 245.54 215.76"/><polygon class="cls-33" points="244.49 210.8 412.35 210.8 517.82 105.33 349.96 105.33 244.49 210.8"/><polygon class="cls-7" points="244.49 210.8 412.35 210.8 517.82 105.33 349.96 105.33 244.49 210.8"/><polygon class="cls-24" points="244.49 210.8 412.35 210.8 517.82 105.33 349.96 105.33 244.49 210.8"/><g class="cls-34"><path class="cls-8" d="M281.18,175.38c-3.37-6.85-5.27-14.55-5.27-22.7,0-28.43,23.05-51.47,51.47-51.47,20.15,0,37.58,11.58,46.04,28.45,2.94-1.66,5.89-2.21,8.59-1.38,8.8,2.7,11.6,19.02,6.25,36.45-.21.7-.44,1.38-.67,2.06,8.04,1.09,15.46,4.12,21.79,8.59h-128.19ZM391.07,101.2c-3.51,0-6.36,2.85-6.36,6.36s2.85,6.36,6.36,6.36,6.36-2.85,6.36-6.36-2.85-6.36-6.36-6.36ZM380.11,182.39c-1.85,0-3.35,1.5-3.35,3.35s1.5,3.35,3.35,3.35,3.35-1.5,3.35-3.35-1.5-3.35-3.35-3.35Z"/><path class="cls-14" d="M281.18,171.82c-3.37-6.85-5.27-14.55-5.27-22.7,0-28.43,23.05-51.47,51.47-51.47,20.15,0,37.58,11.58,46.04,28.45,2.94-1.66,5.89-2.21,8.59-1.38,8.8,2.7,11.6,19.02,6.25,36.45-.21.7-.44,1.38-.67,2.06,8.04,1.09,15.46,4.12,21.79,8.59h-128.19ZM391.07,97.65c-3.51,0-6.36,2.85-6.36,6.36s2.85,6.36,6.36,6.36,6.36-2.85,6.36-6.36-2.85-6.36-6.36-6.36ZM380.11,178.83c-1.85,0-3.35,1.5-3.35,3.35s1.5,3.35,3.35,3.35,3.35-1.5,3.35-3.35-1.5-3.35-3.35-3.35Z"/></g></g></g></g><g class="cls-32"><g class="cls-4"><polygon class="cls-42" points="-88.58 255.95 79.27 255.95 237.57 97.65 69.72 97.65 -88.58 255.95"/><line class="cls-18" x1="69.91" y1="230.67" x2="78.46" y2="253.75"/><g class="cls-30"><polygon class="cls-36" points="-98.5 229.16 69.35 229.16 227.65 70.86 59.8 70.86 -98.5 229.16"/><polygon class="cls-42" points="-104.46 215.76 63.4 215.76 173.81 105.35 5.96 105.35 -104.46 215.76"/><polygon class="cls-33" points="-105.51 210.8 62.35 210.8 167.82 105.33 -.04 105.33 -105.51 210.8"/><polygon class="cls-11" points="-105.51 210.8 62.35 210.8 167.82 105.33 -.04 105.33 -105.51 210.8"/><polygon class="cls-5" points="-105.51 210.8 62.35 210.8 167.82 105.33 -.04 105.33 -105.51 210.8"/><line class="cls-18" x1="63.01" y1="214.41" x2="62.45" y2="211.92"/><g class="cls-1"><path class="cls-8" d="M-68.82,175.38c-3.37-6.85-5.27-14.55-5.27-22.7,0-28.43,23.05-51.47,51.47-51.47,20.15,0,37.58,11.58,46.04,28.45,2.94-1.66,5.89-2.21,8.59-1.38,8.8,2.7,11.6,19.02,6.25,36.45-.21.7-.44,1.38-.67,2.06,8.04,1.09,15.46,4.12,21.79,8.59H-68.82ZM41.07,101.2c-3.51,0-6.36,2.85-6.36,6.36s2.85,6.36,6.36,6.36,6.36-2.85,6.36-6.36-2.85-6.36-6.36-6.36ZM30.11,182.39c-1.85,0-3.35,1.5-3.35,3.35s1.5,3.35,3.35,3.35,3.35-1.5,3.35-3.35-1.5-3.35-3.35-3.35Z"/><path class="cls-14" d="M-68.82,171.82c-3.37-6.85-5.27-14.55-5.27-22.7,0-28.43,23.05-51.47,51.47-51.47,20.15,0,37.58,11.58,46.04,28.45,2.94-1.66,5.89-2.21,8.59-1.38,8.8,2.7,11.6,19.02,6.25,36.45-.21.7-.44,1.38-.67,2.06,8.04,1.09,15.46,4.12,21.79,8.59H-68.82ZM41.07,97.65c-3.51,0-6.36,2.85-6.36,6.36s2.85,6.36,6.36,6.36,6.36-2.85,6.36-6.36-2.85-6.36-6.36-6.36ZM30.11,178.83c-1.85,0-3.35,1.5-3.35,3.35s1.5,3.35,3.35,3.35,3.35-1.5,3.35-3.35-1.5-3.35-3.35-3.35Z"/></g></g></g></g></g><g id="ZONE_4_A_-_copie"><g class="cls-2"><path class="cls-18" d="M36.12,182.68v-84.38s97.24,82.25,219.91,0v99.14"/><circle class="cls-26" cx="219.78" cy="117.03" r="28.81"/><circle class="cls-26" cx="259.77" cy="142.04" r="32.73"/><circle class="cls-26" cx="255.3" cy="197.68" r="30.01"/><circle class="cls-26" cx="172.89" cy="134.67" r="32.73"/><circle class="cls-26" cx="118.38" cy="131.19" r="29.41"/><circle class="cls-26" cx="70.75" cy="117.67" r="32.73"/><circle class="cls-26" cx="36.27" cy="142.01" r="32.73"/><circle class="cls-26" cx="36.77" cy="180.6" r="29.5"/><circle class="cls-10" cx="223.99" cy="119.14" r="28.81"/><circle class="cls-10" cx="263.98" cy="144.15" r="32.73"/><circle class="cls-10" cx="259.52" cy="199.79" r="30.01"/><circle class="cls-10" cx="177.11" cy="136.78" r="32.73"/><circle class="cls-10" cx="122.59" cy="133.29" r="29.41"/><circle class="cls-10" cx="74.97" cy="119.78" r="32.73"/><circle class="cls-10" cx="40.49" cy="144.12" r="32.73"/><circle class="cls-10" cx="40.98" cy="182.71" r="29.5"/><path class="cls-18" d="M175.43,142.27c-5.92.61-12.07-2.28-15.37-7.23-3.16-4.74-3.15-12.12,1.58-15.31,3.66-2.47,8.7-1.57,12.58.53,2.68,1.45,5.18,3.55,6.26,6.4,1.08,2.85.34,6.53-2.24,8.14-2.59,1.61-6.76.03-7.02-3.01-.21-2.43,1.85-4.45,3.93-5.72,1.8-1.1,4.05-1.95,5.99-1.11,3.09,1.34,3.08,5.86,1.56,8.86-2.13,4.18-6.57,7.38-11.25,7.1-4.69-.28-8.99-4.74-8.28-9.38.8-5.23,6.76-7.98,12.02-8.42,1.82-.15,3.75-.12,5.34.76,2.32,1.29,3.4,4.1,3.54,6.75.36,6.74-4.7,13.31-11.27,14.87-6.57,1.56-13.93-1.89-17.12-7.83-1.83-3.41-2.33-7.65-.79-11.2,2.63-6.04,9.96-8.36,16.51-9.01,3.64-.36,7.81-.21,10.28,2.49,2.1,2.3,2.28,5.71,2.31,8.82.03,3.34,0,6.74-1.07,9.9-1.07,3.16-3.35,6.09-6.53,7.09-2.72.85-5.68.21-8.34-.8-3.82-1.44-7.48-3.73-9.65-7.19-2.17-3.46-2.53-8.24-.12-11.54,1.89-2.59,5.16-3.9,8.36-4.11s6.38.56,9.46,1.43c1.42.4,2.87.84,4.04,1.75,2.19,1.71,2.93,4.75,2.71,7.51-.43,5.53-4.54,10.72-9.95,11.96-5.41,1.23-11.62-1.97-13.32-7.25-2.02-6.27,2.73-13.37,9.04-15.25,2.4-.72,5.18-.77,7.21.69,1.94,1.39,2.8,3.86,3.18,6.22.65,4-.4,9.06-4.27,10.26-2.26.7-4.68-.21-6.82-1.22-2.38-1.13-4.78-2.5-6.23-4.7-1.45-2.2-1.61-5.45.28-7.28,1.33-1.29,3.32-1.6,5.17-1.64,3.65-.09,7.58.74,10.07,3.41,2.49,2.68,2.74,7.54-.21,9.7-1.08.79-2.44,1.13-3.77,1.2-4.24.2-8.67-2.96-8.98-7.19-.31-4.24,4.69-8.16,8.44-6.19,1.57.82,2.63,2.41,3.16,4.09,1.13,3.58-.29,8.02-3.66,9.68s-8.21-.43-8.73-4.15c-.33-2.39,1.07-4.8,3.07-6.15,2-1.35,4.5-1.79,6.91-1.76,1.73.02,3.62.33,4.78,1.62,1.99,2.21-.2,6.48-3.16,6.15s-4.14-4.99-1.71-6.7c.96,2.25.98,4.9.04,7.16-2.37-1.03-4.24-3.17-4.94-5.66M65.23,120.11c.95.68,1.89,1.36,2.84,2.04,1.14-.96,2.31-1.97,2.94-3.32s.57-3.15-.54-4.13c-1.54-1.36-4.17-.36-5.19,1.42s-.92,3.97-.78,6.02c.06.93.32,2.1,1.24,2.28.5.1,1-.16,1.43-.45,2.47-1.64,4.24-4.31,4.78-7.23.13-.71.1-1.62-.55-1.93-.28-.14-.61-.12-.92-.07-2.86.44-5.17,3.28-4.9,6.16s3.19,5.26,6.05,4.84c2.86-.42,4.98-3.67,4.1-6.43-1.21-3.8-6.4-4.6-10.2-3.38-.94.3-1.93.75-2.38,1.62-.36.69-.32,1.52-.16,2.29.45,2.12,1.89,4.07,3.92,4.84,2.02.77,4.58.13,5.77-1.67,2.2-3.33-1.52-7.95-5.5-8.23-3.57-.25-7.19,1.93-8.64,5.21-.55,1.25-.77,2.8.04,3.9.68.92,1.89,1.26,3.02,1.4,3.05.39,6.21-.22,8.9-1.71,1.36-.75,2.63-1.76,3.4-3.12,1.85-3.25-.1-7.91-3.63-9.13s-7.78,1.01-9.04,4.53.38,7.76,3.54,9.75c1.23.78,2.69,1.25,4.15,1.16,4.06-.25,6.74-5.41,4.96-9.07s-6.99-4.91-10.48-2.83-4.96,6.8-3.71,10.68c.75,2.31,2.4,4.38,4.64,5.33,2.04.86,4.4.75,6.48-.02,5.43-2.02,8.52-8.89,6.28-14.24s-9.45-7.96-14.53-5.15c-5.07,2.8-6.65,10.46-3,14.96,1.35,1.66,3.22,2.84,5.19,3.68,3.45,1.46,7.72,1.84,10.71-.42,2.99-2.26,3.78-6.51,3.16-10.2-.83-4.94-3.98-9.54-8.52-11.66-4.54-2.12-10.38-1.44-13.98,2.03-3.61,3.47-4.43,9.64-1.46,13.68,1.03,1.4,2.41,2.5,3.9,3.4,4.36,2.64,10.04,3.54,14.59,1.23,4.54-2.31,7.2-8.33,4.87-12.86-2.46-4.79-9.39-5.95-14.06-3.29-3.49,1.99-5.94,5.81-5.99,9.83-.05,4.02,2.46,8.03,6.21,9.46,1.54.59,3.21.75,4.85.66,5.11-.28,10.12-3.28,12.33-7.9,2.21-4.62,1.23-10.71-2.66-14.05-3.44-2.96-8.55-3.45-12.88-2.08-5.75,1.82-10.45,6.91-11.38,12.87-.93,5.96,2.19,12.45,7.62,15.07,5.43,2.62,12.73.82,16-4.24,2.15-3.32,2.5-7.48,2.31-11.43-.23-4.85-1.56-10.24-5.72-12.74-3.31-1.99-7.61-1.55-11.16-.03-6.63,2.83-11.71,10.24-9.83,17.19,1.95,7.24,11.24,11.01,18.12,8.05,6.89-2.96,10.6-11.28,9.26-18.66-1.11-6.08-5.79-11.78-11.91-12.57-4.06-.52-8.15,1.11-11.44,3.54-2.76,2.04-5.16,4.77-6.13,8.06-1.34,4.54.3,9.69,3.69,12.99,3.4,3.29,8.33,4.78,13.05,4.42,4.42-.33,9.02-2.54,10.77-6.61M114.13,128.21c-2.95,1.78-3.34,6.66-.61,8.77s7.49.31,7.99-3.1-3.78-6.51-6.79-4.83c-1.78.99-2.71,3.15-2.62,5.19.1,2.3,1.85,4.78,4.15,4.57.86-.08,1.66-.53,2.23-1.17,2.01-2.27.09-6.52-2.94-6.69s-5.43,3.54-4.22,6.31,5.32,3.63,7.67,1.71c1.71-1.39,2.33-4.09,1.08-5.9s-4.37-2.02-5.6-.2c-1.01,1.5-.29,3.85,1.39,4.52,1.68.67,3.82-.53,4.13-2.32.12-.68-.02-1.42-.45-1.96-.22-.28-.51-.5-.81-.67-2.27-1.28-5.5.34-6.11,2.87s1.19,5.3,3.68,6.06c2.49.76,5.34-.31,6.99-2.33,2.63-3.2,2.02-8.48-1.15-11.15-3.17-2.67-8.32-2.44-11.38.36-3.05,2.8-3.76,7.76-1.78,11.4,1.12,2.06,3.07,3.72,5.37,4.15,3.85.72,7.48-2.02,10-5.01,2.55-3.04,4.48-7.79,1.8-10.71-1-1.09-2.45-1.64-3.86-2.06-4.76-1.4-10.59-1.44-13.91,2.24-3.22,3.56-2.51,9.73,1.12,12.87,3.63,3.14,9.4,3.15,13.38.48,3.98-2.67,6.13-7.63,5.97-12.42-.07-1.98-.52-3.99-1.63-5.63-1.73-2.55-4.93-3.86-8.01-3.8s-6.03,1.36-8.54,3.15c-3.33,2.38-6.16,6.14-5.75,10.22.31,3.02,2.36,5.63,4.83,7.4,3.04,2.18,6.94,3.32,10.59,2.51,3.65-.81,6.87-3.81,7.39-7.51.8-5.75-5.05-10.69-10.84-11.14-2.54-.2-5.51.48-6.67,2.75-.86,1.69-.45,3.75.29,5.49,1.62,3.77,4.79,6.84,8.61,8.34,1.9.74,4.2,1.06,5.86-.13,2.15-1.55,2.11-4.79,1.32-7.32-1.43-4.56-4.64-8.54-8.79-10.92-1.09-.63-2.43-1.15-3.58-.65-2.04.89-1.68,3.92-.67,5.9,2.41,4.71,6.61,8.47,11.56,10.33.76.29,1.58.53,2.37.34,2.04-.5,2.33-3.26,2.05-5.34-.43-3.21-1.18-6.44-2.89-9.19-1.71-2.75-4.5-4.97-7.71-5.35-1.65-.19-3.34.1-4.91.67-5.9,2.16-9.92,8.58-9.29,14.83.63,6.25,5.87,11.73,12.08,12.66,6.21.93,12.82-2.79,15.25-8.58,2.46-5.87.28-13.44-5.15-16.76-3.32-2.03-7.36-2.43-11.25-2.52-2.8-.07-5.74.04-8.16,1.44-4.68,2.71-5.61,9.39-3.68,14.44,1.41,3.69,4.05,6.9,7.4,9,2.33,1.46,5.05,2.4,7.8,2.3,4.59-.16,8.91-3.45,10.28-7.84s-.31-9.55-4-12.29c-4.14-3.08-10.41-2.77-14.31.61-3.9,3.38-5.12,9.44-2.96,14.12,2.16,4.68,7.47,7.66,12.61,7.21,2.45-.22,4.93-1.23,6.41-3.2,2.29-3.06,1.17-8.07-2.21-9.86s-8.15.1-9.39,3.71M252.56,142.29c.95.68,1.89,1.36,2.84,2.04,1.14-.96,2.31-1.97,2.94-3.32s.57-3.15-.54-4.13c-1.54-1.36-4.17-.36-5.19,1.42s-.92,3.97-.78,6.02c.06.93.32,2.1,1.24,2.28.5.1,1-.16,1.43-.45,2.47-1.64,4.24-4.31,4.78-7.23.13-.71.1-1.62-.55-1.93-.28-.14-.61-.12-.92-.07-2.86.44-5.17,3.28-4.9,6.16.27,2.88,3.19,5.26,6.05,4.84,2.86-.42,4.98-3.67,4.1-6.43-1.21-3.8-6.4-4.6-10.2-3.38-.94.3-1.93.75-2.38,1.62-.36.69-.32,1.52-.16,2.29.45,2.12,1.89,4.07,3.92,4.84,2.02.77,4.58.13,5.77-1.67,2.2-3.33-1.52-7.95-5.5-8.23-3.57-.25-7.19,1.93-8.64,5.21-.55,1.25-.77,2.8.04,3.9.68.92,1.89,1.26,3.02,1.4,3.05.39,6.21-.22,8.9-1.71,1.36-.75,2.63-1.76,3.4-3.12,1.85-3.25-.1-7.91-3.63-9.13-3.53-1.21-7.78,1.01-9.04,4.53-1.27,3.52.38,7.76,3.54,9.75,1.23.78,2.69,1.25,4.15,1.16,4.06-.25,6.74-5.41,4.96-9.07-1.78-3.66-6.99-4.91-10.48-2.83-3.5,2.08-4.96,6.8-3.71,10.68.75,2.31,2.4,4.38,4.64,5.33,2.04.86,4.4.75,6.48-.02,5.43-2.02,8.52-8.89,6.28-14.24-2.24-5.35-9.45-7.96-14.53-5.15-5.07,2.8-6.65,10.46-3,14.96,1.35,1.66,3.22,2.84,5.19,3.68,3.45,1.46,7.72,1.84,10.71-.42,2.99-2.26,3.78-6.51,3.16-10.2-.83-4.94-3.98-9.54-8.52-11.66-4.54-2.12-10.38-1.44-13.98,2.03s-4.43,9.64-1.46,13.68c1.03,1.4,2.41,2.5,3.9,3.4,4.36,2.64,10.04,3.54,14.59,1.23,4.54-2.31,7.2-8.33,4.87-12.86-2.46-4.79-9.39-5.95-14.06-3.29-3.49,1.99-5.94,5.81-5.99,9.83-.05,4.02,2.46,8.03,6.21,9.46,1.54.59,3.21.75,4.85.66,5.11-.28,10.12-3.28,12.33-7.9,2.21-4.62,1.23-10.71-2.66-14.05-3.44-2.96-8.55-3.45-12.88-2.08-5.75,1.82-10.45,6.91-11.38,12.87-.93,5.96,2.19,12.45,7.62,15.07,5.43,2.62,12.73.82,16-4.24,2.15-3.32,2.5-7.48,2.31-11.43-.23-4.85-1.56-10.24-5.72-12.74-3.31-1.99-7.61-1.55-11.16-.03-6.63,2.83-11.71,10.24-9.83,17.19,1.95,7.24,11.24,11.01,18.12,8.05,6.89-2.96,10.6-11.28,9.26-18.66-1.11-6.08-5.79-11.78-11.91-12.57-4.06-.52-8.15,1.11-11.44,3.54-2.76,2.04-5.16,4.77-6.13,8.06-1.34,4.54.3,9.69,3.69,12.99,3.4,3.29,8.33,4.78,13.05,4.42,4.42-.33,9.02-2.54,10.77-6.61M251.19,191.6c-2.95,1.78-3.34,6.66-.61,8.77s7.49.31,7.99-3.1-3.78-6.51-6.79-4.83c-1.78.99-2.71,3.15-2.62,5.19.1,2.3,1.85,4.78,4.15,4.57.86-.08,1.66-.53,2.23-1.17,2.01-2.27.09-6.52-2.94-6.69-3.02-.17-5.43,3.54-4.22,6.31,1.22,2.77,5.32,3.63,7.67,1.71,1.71-1.39,2.33-4.09,1.08-5.9-1.25-1.81-4.37-2.02-5.6-.2-1.01,1.5-.29,3.85,1.39,4.52,1.68.67,3.82-.53,4.13-2.32.12-.68-.02-1.42-.45-1.96-.22-.28-.51-.5-.81-.67-2.27-1.28-5.5.34-6.11,2.87-.62,2.53,1.19,5.3,3.68,6.06,2.49.76,5.34-.31,6.99-2.33,2.63-3.2,2.02-8.48-1.15-11.15-3.17-2.67-8.32-2.44-11.38.36-3.05,2.8-3.76,7.76-1.78,11.4,1.12,2.06,3.07,3.72,5.37,4.15,3.85.72,7.48-2.02,10-5.01,2.55-3.04,4.48-7.79,1.8-10.71-1-1.09-2.45-1.64-3.86-2.06-4.76-1.4-10.59-1.44-13.91,2.24-3.22,3.56-2.51,9.73,1.12,12.87,3.63,3.14,9.4,3.15,13.38.48s6.13-7.63,5.97-12.42c-.07-1.98-.52-3.99-1.63-5.63-1.73-2.55-4.93-3.86-8.01-3.8-3.08.06-6.03,1.36-8.54,3.15-3.33,2.38-7.53,7.84-7.12,11.91.31,3.02,3.74,3.94,6.2,5.71,3.04,2.18,6.94,3.32,10.59,2.51s6.87-3.81,7.39-7.51c.8-5.75-5.05-10.69-10.84-11.14-2.54-.2-5.51.48-6.67,2.75-.86,1.69-.45,3.75.29,5.49,1.62,3.77,4.79,6.84,8.61,8.34,1.9.74,4.2,1.06,5.86-.13,2.15-1.55,2.11-4.79,1.32-7.32-1.43-4.56-4.64-8.54-8.79-10.92-1.09-.63-2.43-1.15-3.58-.65-2.04.89-1.68,3.92-.67,5.9,2.41,4.71,6.61,8.47,11.56,10.33.76.29,1.58.53,2.37.34,2.04-.5,2.33-3.26,2.05-5.34-.43-3.21-1.18-6.44-2.89-9.19-1.71-2.75-4.5-4.97-7.71-5.35-1.65-.19-3.34.1-4.91.67-5.9,2.16-9.92,8.58-9.29,14.83.63,6.25,5.87,11.73,12.08,12.66s12.82-2.79,15.25-8.58c2.46-5.87.28-13.44-5.15-16.76-3.32-2.03-7.36-2.43-11.25-2.52-2.8-.07-5.74.04-8.16,1.44-4.68,2.71-5.61,9.39-3.68,14.44,1.41,3.69,4.05,6.9,7.4,9,2.33,1.46,5.05,2.4,7.8,2.3,4.59-.16,8.91-3.45,10.28-7.84s-.31-9.55-4-12.29c-4.14-3.08-10.41-2.77-14.31.61s-5.12,9.44-2.96,14.12c2.16,4.68,7.47,7.66,12.61,7.21,2.45-.22,4.93-1.23,6.41-3.2,2.29-3.06,1.17-8.07-2.21-9.86s-8.15.1-9.39,3.71M216.25,120.76c.46-1.29-1.52-2.56-2.51-1.61,1.1,1.17,2.39,2.28,3.96,2.58s3.45-.5,3.85-2.05c.19-.73.03-1.52-.33-2.18-1.43-2.63-5.9-2.41-7.38.2-1.48,2.61.16,6.29,2.97,7.33,1.7.63,3.93.27,4.81-1.31.75-1.34.31-3.03-.38-4.39-.66-1.29-1.63-2.55-3.01-2.99-2.4-.76-5.04,1.61-4.96,4.12.08,2.52,2.37,4.61,4.86,4.97,4.5.64,8.7-4.41,7.38-8.75s-7.42-6.27-11.08-3.59c-3.66,2.69-3.76,8.92-.28,11.84,3.48,2.92,9.46,1.85,11.85-2,2.39-3.86.82-9.56-3.14-11.78-4.6-2.58-11.28.23-12.66,5.32-.6,2.21-.29,4.6.57,6.73,1.03,2.53,2.94,4.81,5.51,5.74,4.71,1.71,10.28-2.05,11.24-6.97s-2.08-10.06-6.49-12.45c-2.93-1.58-6.69-2.06-9.52-.31-2.42,1.49-3.74,4.33-4.05,7.15-.54,4.87,1.9,10.08,6.26,12.31,4.36,2.23,10.37.91,12.99-3.23,2.61-4.14.85-10.53-3.7-12.33-4.42-1.75-9.43.88-12.7,4.32-2.46,2.6-4.35,6.85-2,9.55,1.63,1.88,4.5,1.95,6.96,1.59,4.9-.71,9.93-2.83,12.56-7.02,2.63-4.2,1.76-10.71-2.68-12.91-4.96-2.46-10.72,1.39-14.35,5.57-1.43,1.65-2.8,3.47-3.25,5.61s.25,4.66,2.15,5.73c1.33.75,2.95.67,4.47.53,3.15-.3,6.39-.87,9.05-2.59s4.61-4.86,4.1-7.99c-.41-2.52-2.32-4.57-4.48-5.92-5.51-3.44-14.14-2.24-16.82,3.68-1.18,2.59-1.07,5.61-.37,8.38,1.19,4.72,4.07,8.99,7.99,11.87,2.67,1.96,6.18,3.29,9.27,2.09,3.09-1.2,4.79-4.56,5.48-7.79,1.19-5.54.21-11.52-2.69-16.39-2.65-4.45-7.58-8.13-12.67-7.23-5.05.89-8.41,5.96-9.44,10.99-.73,3.58-.54,7.47,1.29,10.63,2.67,4.63,8.7,6.84,13.87,5.48,5.17-1.36,9.22-5.92,10.45-11.12,1.41-5.94-1.13-12.94-6.64-15.58-7.07-3.39-15.81,1.53-19.57,8.41-2.73,5-3.29,11.93.85,15.84,1.56,1.47,3.61,2.34,5.7,2.84,5.59,1.33,11.73.11,16.39-3.26s7.73-8.83,8.21-14.56c.4-4.8-1.32-10.13-5.5-12.52-4.07-2.33-9.32-1.28-13.42,1.01-4.41,2.46-8.17,6.44-9.4,11.34-1.23,4.9.55,10.66,4.86,13.29M32.61,181.99c.7,2.49,2.56,4.63,4.94,5.66.94-2.27.92-4.91-.04-7.16-2.44,1.71-1.25,6.36,1.71,6.7,2.96.34,5.16-3.93,3.16-6.15-1.16-1.29-3.05-1.6-4.78-1.62-2.41-.02-4.91.41-6.91,1.76s-3.4,3.76-3.07,6.15c.52,3.72,5.36,5.82,8.73,4.15,3.37-1.67,4.79-6.1,3.66-9.68-.53-1.69-1.6-3.27-3.16-4.09-3.76-1.98-8.75,1.95-8.44,6.19.31,4.24,4.74,7.39,8.98,7.19,1.34-.06,2.69-.41,3.77-1.2,2.95-2.15,2.7-7.02.21-9.7-2.49-2.68-6.42-3.51-10.07-3.41-1.85.05-3.84.36-5.17,1.64-1.9,1.83-1.73,5.08-.28,7.28s3.85,3.57,6.23,4.7c2.14,1.02,4.56,1.93,6.82,1.22,3.87-1.2,4.92-6.26,4.27-10.26-.39-2.36-1.24-4.82-3.18-6.22-2.03-1.46-4.82-1.41-7.21-.69-6.31,1.89-11.07,8.99-9.04,15.25,1.71,5.28,7.91,8.49,13.32,7.25,5.41-1.23,9.52-6.42,9.95-11.96.22-2.77-.52-5.81-2.71-7.51-1.17-.91-2.62-1.35-4.04-1.75-3.09-.87-6.26-1.64-9.46-1.43s-6.47,1.52-8.36,4.11c-2.41,3.3-2.04,8.08.12,11.54,2.17,3.46,5.83,5.75,9.65,7.19,2.66,1,5.63,1.65,8.34.8,3.18-1,5.47-3.93,6.53-7.09,1.07-3.16,1.1-6.57,1.07-9.9-.03-3.11-.21-6.52-2.31-8.82-2.47-2.7-6.64-2.85-10.28-2.49-6.55.64-13.89,2.97-16.51,9.01-1.54,3.55-1.04,7.79.79,11.2,3.19,5.95,10.55,9.4,17.12,7.83,6.57-1.56,11.63-8.13,11.27-14.87-.14-2.65-1.22-5.47-3.54-6.75-1.6-.89-3.52-.92-5.34-.76-5.27.45-11.23,3.2-12.02,8.42-.71,4.64,3.6,9.1,8.28,9.38,4.69.28,9.13-2.91,11.25-7.1,1.53-3,1.53-7.51-1.56-8.86-1.94-.84-4.18.01-5.99,1.11-2.08,1.27-4.14,3.29-3.93,5.72.26,3.04,4.43,4.62,7.02,3.01,2.59-1.61,3.33-5.28,2.24-8.14-1.08-2.85-3.58-4.95-6.26-6.4-3.89-2.1-8.92-2.99-12.58-.53-4.73,3.19-4.74,10.57-1.58,15.31,3.3,4.95,9.45,7.84,15.37,7.23M34.03,142.02c.46-1.29-1.52-2.56-2.51-1.61,1.1,1.17,2.39,2.28,3.96,2.58s3.45-.5,3.85-2.05c.19-.73.03-1.52-.33-2.18-1.43-2.63-5.9-2.41-7.38.2s.16,6.29,2.97,7.33c1.7.63,3.93.27,4.81-1.31.75-1.34.31-3.03-.38-4.39-.66-1.29-1.63-2.55-3.01-2.99-2.4-.76-5.04,1.61-4.96,4.12.08,2.52,2.37,4.61,4.86,4.97,4.5.64,8.7-4.41,7.38-8.75-1.32-4.35-7.42-6.27-11.08-3.59-3.66,2.69-3.76,8.92-.28,11.84,3.48,2.92,9.46,1.85,11.85-2s.82-9.56-3.14-11.78c-4.6-2.58-11.28.23-12.66,5.32-.6,2.21-.29,4.6.57,6.73,1.03,2.53,2.94,4.81,5.51,5.74,4.71,1.71,10.28-2.05,11.24-6.97s-2.08-10.06-6.49-12.45c-2.93-1.58-6.69-2.06-9.52-.31-2.42,1.49-3.74,4.33-4.05,7.15-.54,4.87,1.9,10.08,6.26,12.31,4.36,2.23,10.37.91,12.99-3.23s.85-10.53-3.7-12.33c-4.42-1.75-9.43.88-12.7,4.32-2.46,2.6-4.35,6.85-2,9.55,1.63,1.88,4.5,1.95,6.96,1.59,4.9-.71,9.93-2.83,12.56-7.02s1.76-10.71-2.68-12.91c-4.96-2.46-10.72,1.39-14.35,5.57-1.43,1.65-2.8,3.47-3.25,5.61-.45,2.14.25,4.66,2.15,5.73,1.33.75,2.95.67,4.47.53,3.15-.3,6.39-.87,9.05-2.59s4.61-4.86,4.1-7.99c-.41-2.52-2.32-4.57-4.48-5.92-5.51-3.44-14.14-2.24-16.82,3.68-1.18,2.59-1.07,5.61-.37,8.38,1.19,4.72,4.07,8.99,7.99,11.87,2.67,1.96,6.18,3.29,9.27,2.09,3.09-1.2,4.79-4.56,5.48-7.79,1.19-5.54.21-11.52-2.69-16.39-2.65-4.45-7.58-8.13-12.67-7.23-5.05.89-8.41,5.96-9.44,10.99-.73,3.58-.54,7.47,1.29,10.63,2.67,4.63,8.7,6.84,13.87,5.48,5.17-1.36,9.22-5.92,10.45-11.12,1.41-5.94-1.13-12.94-6.64-15.58-7.07-3.39-15.81,1.53-19.57,8.41-2.73,5-3.29,11.93.85,15.84,1.56,1.47,3.61,2.34,5.7,2.84,5.59,1.33,11.73.11,16.39-3.26s7.73-8.83,8.21-14.56c.4-4.8-1.32-10.13-5.5-12.52-4.07-2.33-9.32-1.28-13.42,1.01-4.41,2.46-8.17,6.44-9.4,11.34-1.23,4.9.55,10.66,4.86,13.29"/><path class="cls-21" d="M169.76,128.49c.7,2.49,2.56,4.63,4.94,5.66.94-2.27.92-4.91-.04-7.16-2.44,1.71-1.25,6.36,1.71,6.7s5.16-3.93,3.16-6.15c-1.16-1.29-3.05-1.6-4.78-1.62-2.41-.02-4.91.41-6.91,1.76-2,1.35-3.4,3.76-3.07,6.15.52,3.72,5.36,5.82,8.73,4.15s4.79-6.1,3.66-9.68c-.53-1.69-1.6-3.27-3.16-4.09-3.76-1.98-8.75,1.95-8.44,6.19.31,4.24,4.74,7.39,8.98,7.19,1.34-.06,2.69-.41,3.77-1.2,2.95-2.15,2.7-7.02.21-9.7-2.49-2.68-6.42-3.51-10.07-3.41-1.85.05-3.84.36-5.17,1.64-1.9,1.83-1.73,5.08-.28,7.28,1.45,2.2,3.85,3.57,6.23,4.7,2.14,1.02,4.56,1.93,6.82,1.22,3.87-1.2,4.92-6.26,4.27-10.26-.39-2.36-1.24-4.82-3.18-6.22-2.03-1.46-4.82-1.41-7.21-.69-6.31,1.89-11.07,8.99-9.04,15.25,1.71,5.28,7.91,8.49,13.32,7.25,5.41-1.23,9.52-6.42,9.95-11.96.22-2.77-.52-5.81-2.71-7.51-1.17-.91-2.62-1.35-4.04-1.75-3.09-.87-6.26-1.64-9.46-1.43s-6.47,1.52-8.36,4.11c-2.41,3.3-2.04,8.08.12,11.54,2.17,3.46,5.83,5.75,9.65,7.19,2.66,1,5.63,1.65,8.34.8,3.18-1,5.47-3.93,6.53-7.09,1.07-3.16,1.1-6.57,1.07-9.9-.03-3.11-.21-6.52-2.31-8.82-2.47-2.7-6.64-2.85-10.28-2.49-6.55.64-13.89,2.97-16.51,9.01-1.54,3.55-1.04,7.79.79,11.2,3.19,5.95,10.55,9.4,17.12,7.83,6.57-1.56,11.63-8.13,11.27-14.87-.14-2.65-1.22-5.47-3.54-6.75-1.6-.89-3.52-.92-5.34-.76-5.27.45-11.23,3.2-12.02,8.42-.71,4.64,3.6,9.1,8.28,9.38s9.13-2.91,11.25-7.1c1.53-3,1.53-7.51-1.56-8.86-1.94-.84-4.18.01-5.99,1.11-2.08,1.27-4.14,3.29-3.93,5.72.26,3.04,4.43,4.62,7.02,3.01,2.59-1.61,3.33-5.28,2.24-8.14-1.08-2.85-3.58-4.95-6.26-6.4-3.89-2.1-8.92-2.99-12.58-.53-4.73,3.19-4.74,10.57-1.58,15.31,3.3,4.95,9.45,7.84,15.37,7.23"/><path class="cls-23" d="M66.52,118.82l2.84,2.04c1.14-.96,2.31-1.97,2.94-3.32s.57-3.15-.54-4.13c-1.54-1.36-4.17-.36-5.19,1.42s-.92,3.97-.78,6.02c.06.93.32,2.1,1.24,2.28.5.1,1-.16,1.43-.45,2.47-1.64,4.24-4.31,4.78-7.23.13-.71.1-1.62-.55-1.93-.28-.14-.61-.12-.92-.07-2.86.44-5.17,3.28-4.9,6.16s3.19,5.26,6.05,4.84c2.86-.42,4.98-3.67,4.1-6.43-1.21-3.8-6.4-4.6-10.2-3.38-.94.3-1.93.75-2.38,1.62-.36.69-.32,1.52-.16,2.29.45,2.12,1.89,4.07,3.92,4.84,2.02.77,4.58.13,5.77-1.67,2.2-3.33-1.52-7.95-5.5-8.23-3.57-.25-7.19,1.93-8.64,5.21-.55,1.25-.77,2.8.04,3.9.68.92,1.89,1.26,3.02,1.4,3.05.39,6.21-.22,8.9-1.71,1.36-.75,2.63-1.76,3.4-3.12,1.85-3.25-.1-7.91-3.63-9.13-3.53-1.21-7.78,1.01-9.04,4.53-1.27,3.52.38,7.76,3.54,9.75,1.23.78,2.69,1.25,4.15,1.16,4.06-.25,6.74-5.41,4.96-9.07s-6.99-4.91-10.48-2.83c-3.5,2.08-4.96,6.8-3.71,10.68.75,2.31,2.4,4.38,4.64,5.33,2.04.86,4.4.75,6.48-.02,5.43-2.02,8.52-8.89,6.28-14.24-2.24-5.35-9.45-7.96-14.53-5.15-5.07,2.8-6.65,10.46-3,14.96,1.35,1.66,3.22,2.84,5.19,3.68,3.45,1.46,7.72,1.84,10.71-.42,2.99-2.26,3.78-6.51,3.16-10.2-.83-4.94-3.98-9.54-8.52-11.66s-10.38-1.44-13.98,2.03c-3.61,3.47-4.43,9.64-1.46,13.68,1.03,1.4,2.41,2.5,3.9,3.4,4.36,2.64,10.04,3.54,14.59,1.23,4.54-2.31,7.2-8.33,4.87-12.86-2.46-4.79-9.39-5.95-14.06-3.29-3.49,1.99-5.94,5.81-5.99,9.83s2.46,8.03,6.21,9.46c1.54.59,3.21.75,4.85.66,5.11-.28,10.12-3.28,12.33-7.9s1.23-10.71-2.66-14.05c-3.44-2.96-8.55-3.45-12.88-2.08-5.75,1.82-10.45,6.91-11.38,12.87-.93,5.96,2.19,12.45,7.62,15.07,5.43,2.62,12.73.82,16-4.24,2.15-3.32,2.5-7.48,2.31-11.43-.23-4.85-1.56-10.24-5.72-12.74-3.31-1.99-7.61-1.55-11.16-.03-6.63,2.83-11.71,10.24-9.83,17.19,1.95,7.24,11.24,11.01,18.12,8.05s10.6-11.28,9.26-18.66c-1.11-6.08-5.79-11.78-11.91-12.57-4.06-.52-8.15,1.11-11.44,3.54-2.76,2.04-5.16,4.77-6.13,8.06-1.34,4.54.3,9.69,3.69,12.99s8.33,4.78,13.05,4.42c4.42-.33,9.02-2.54,10.77-6.61"/><path class="cls-20" d="M115.42,126.92c-2.95,1.78-3.34,6.66-.61,8.77s7.49.31,7.99-3.1c.51-3.41-3.78-6.51-6.79-4.83-1.78.99-2.71,3.15-2.62,5.19.1,2.3,1.85,4.78,4.15,4.57.86-.08,1.66-.53,2.23-1.17,2.01-2.27.09-6.52-2.94-6.69s-5.43,3.54-4.22,6.31,5.32,3.63,7.67,1.71c1.71-1.39,2.33-4.09,1.08-5.9s-4.37-2.02-5.6-.2c-1.01,1.5-.29,3.85,1.39,4.52,1.68.67,3.82-.53,4.13-2.32.12-.68-.02-1.42-.45-1.96-.22-.28-.51-.5-.81-.67-2.27-1.28-5.5.34-6.11,2.87s1.19,5.3,3.68,6.06,5.34-.31,6.99-2.33c2.63-3.2,2.02-8.48-1.15-11.15-3.17-2.67-8.32-2.44-11.38.36-3.05,2.8-3.76,7.76-1.78,11.4,1.12,2.06,3.07,3.72,5.37,4.15,3.85.72,7.48-2.02,10-5.01,2.55-3.04,4.48-7.79,1.8-10.71-1-1.09-2.45-1.64-3.86-2.06-4.76-1.4-10.59-1.44-13.91,2.24-3.22,3.56-2.51,9.73,1.12,12.87s9.4,3.15,13.38.48c3.98-2.67,6.13-7.63,5.97-12.42-.07-1.98-.52-3.99-1.63-5.63-1.73-2.55-4.93-3.86-8.01-3.8-3.08.06-6.03,1.36-8.54,3.15-3.33,2.38-6.16,6.14-5.75,10.22.31,3.02,2.36,5.63,4.83,7.4,3.04,2.18,6.94,3.32,10.59,2.51s6.87-3.81,7.39-7.51c.8-5.75-5.05-10.69-10.84-11.14-2.54-.2-5.51.48-6.67,2.75-.86,1.69-.45,3.75.29,5.49,1.62,3.77,4.79,6.84,8.61,8.34,1.9.74,4.2,1.06,5.86-.13,2.15-1.55,2.11-4.79,1.32-7.32-1.43-4.56-4.64-8.54-8.79-10.92-1.09-.63-2.43-1.15-3.58-.65-2.04.89-1.68,3.92-.67,5.9,2.41,4.71,6.61,8.47,11.56,10.33.76.29,1.58.53,2.37.34,2.04-.5,2.33-3.26,2.05-5.34-.43-3.21-1.18-6.44-2.89-9.19-1.71-2.75-4.5-4.97-7.71-5.35-1.65-.19-3.34.1-4.91.67-5.9,2.16-9.92,8.58-9.29,14.83.63,6.25,5.87,11.73,12.08,12.66,6.21.93,12.82-2.79,15.25-8.58,2.46-5.87.28-13.44-5.15-16.76-3.32-2.03-7.36-2.43-11.25-2.52-2.8-.07-5.74.04-8.16,1.44-4.68,2.71-5.61,9.39-3.68,14.44,1.41,3.69,4.05,6.9,7.4,9,2.33,1.46,5.05,2.4,7.8,2.3,4.59-.16,8.91-3.45,10.28-7.84s-.31-9.55-4-12.29c-4.14-3.08-10.41-2.77-14.31.61-3.9,3.38-5.12,9.44-2.96,14.12,2.16,4.68,7.47,7.66,12.61,7.21,2.45-.22,4.93-1.23,6.41-3.2,2.29-3.06,1.17-8.07-2.21-9.86-3.38-1.79-8.15.1-9.39,3.71"/><path class="cls-23" d="M253.85,141l2.84,2.04c1.14-.96,2.31-1.97,2.94-3.32s.57-3.15-.54-4.13c-1.54-1.36-4.17-.36-5.19,1.42s-.92,3.97-.78,6.02c.06.93.32,2.1,1.24,2.28.5.1,1-.16,1.43-.45,2.47-1.64,4.24-4.31,4.78-7.23.13-.71.1-1.62-.55-1.93-.28-.14-.61-.12-.92-.07-2.86.44-5.17,3.28-4.9,6.16s3.19,5.26,6.05,4.84c2.86-.42,4.98-3.67,4.1-6.43-1.21-3.8-6.4-4.6-10.2-3.38-.94.3-1.93.75-2.38,1.62-.36.69-.32,1.52-.16,2.29.45,2.12,1.89,4.07,3.92,4.84,2.02.77,4.58.13,5.77-1.67,2.2-3.33-1.52-7.95-5.5-8.23-3.57-.25-7.19,1.93-8.64,5.21-.55,1.25-.77,2.8.04,3.9.68.92,1.89,1.26,3.02,1.4,3.05.39,6.21-.22,8.9-1.71,1.36-.75,2.63-1.76,3.4-3.12,1.85-3.25-.1-7.91-3.63-9.13-3.53-1.21-7.78,1.01-9.04,4.53-1.27,3.52.38,7.76,3.54,9.75,1.23.78,2.69,1.25,4.15,1.16,4.06-.25,6.74-5.41,4.96-9.07s-6.99-4.91-10.48-2.83-4.96,6.8-3.71,10.68c.75,2.31,2.4,4.38,4.64,5.33,2.04.86,4.4.75,6.48-.02,5.43-2.02,8.52-8.89,6.28-14.24-2.24-5.35-9.45-7.96-14.53-5.15-5.07,2.8-6.65,10.46-3,14.96,1.35,1.66,3.22,2.84,5.19,3.68,3.45,1.46,7.72,1.84,10.71-.42,2.99-2.26,3.78-6.51,3.16-10.2-.83-4.94-3.98-9.54-8.52-11.66-4.54-2.12-10.38-1.44-13.98,2.03s-4.43,9.64-1.46,13.68c1.03,1.4,2.41,2.5,3.9,3.4,4.36,2.64,10.04,3.54,14.59,1.23,4.54-2.31,7.2-8.33,4.87-12.86-2.46-4.79-9.39-5.95-14.06-3.29-3.49,1.99-5.94,5.81-5.99,9.83-.05,4.02,2.46,8.03,6.21,9.46,1.54.59,3.21.75,4.85.66,5.11-.28,10.12-3.28,12.33-7.9s1.23-10.71-2.66-14.05c-3.44-2.96-8.55-3.45-12.88-2.08-5.75,1.82-10.45,6.91-11.38,12.87s2.19,12.45,7.62,15.07c5.43,2.62,12.73.82,16-4.24,2.15-3.32,2.5-7.48,2.31-11.43-.23-4.85-1.56-10.24-5.72-12.74-3.31-1.99-7.61-1.55-11.16-.03-6.63,2.83-11.71,10.24-9.83,17.19,1.95,7.24,11.24,11.01,18.12,8.05,6.89-2.96,10.6-11.28,9.26-18.66-1.11-6.08-5.79-11.78-11.91-12.57-4.06-.52-8.15,1.11-11.44,3.54-2.76,2.04-5.16,4.77-6.13,8.06-1.34,4.54.3,9.69,3.69,12.99,3.4,3.29,8.33,4.78,13.05,4.42,4.42-.33,9.02-2.54,10.77-6.61"/><path class="cls-20" d="M252.48,190.31c-2.95,1.78-3.34,6.66-.61,8.77,2.73,2.11,7.49.31,7.99-3.1s-3.78-6.51-6.79-4.83c-1.78.99-2.71,3.15-2.62,5.19.1,2.3,1.85,4.78,4.15,4.57.86-.08,1.66-.53,2.23-1.17,2.01-2.27.09-6.52-2.94-6.69-3.02-.17-5.43,3.54-4.22,6.31,1.22,2.77,5.32,3.63,7.67,1.71,1.71-1.39,2.33-4.09,1.08-5.9-1.25-1.81-4.37-2.02-5.6-.2-1.01,1.5-.29,3.85,1.39,4.52,1.68.67,3.82-.53,4.13-2.32.12-.68-.02-1.42-.45-1.96-.22-.28-.51-.5-.81-.67-2.27-1.28-5.5.34-6.11,2.87s1.19,5.3,3.68,6.06,5.34-.31,6.99-2.33c2.63-3.2,2.02-8.48-1.15-11.15-3.17-2.67-8.32-2.44-11.38.36-3.05,2.8-3.76,7.76-1.78,11.4,1.12,2.06,3.07,3.72,5.37,4.15,3.85.72,7.48-2.02,10-5.01,2.55-3.04,4.48-7.79,1.8-10.71-1-1.09-2.45-1.64-3.86-2.06-4.76-1.4-10.59-1.44-13.91,2.24-3.22,3.56-2.51,9.73,1.12,12.87,3.63,3.14,9.4,3.15,13.38.48,3.98-2.67,6.13-7.63,5.97-12.42-.07-1.98-.52-3.99-1.63-5.63-1.73-2.55-4.93-3.86-8.01-3.8-3.08.06-6.03,1.36-8.54,3.15-3.33,2.38-7.53,7.84-7.12,11.91.31,3.02,3.74,3.94,6.2,5.71,3.04,2.18,6.94,3.32,10.59,2.51s6.87-3.81,7.39-7.51c.8-5.75-5.05-10.69-10.84-11.14-2.54-.2-5.51.48-6.67,2.75-.86,1.69-.45,3.75.29,5.49,1.62,3.77,4.79,6.84,8.61,8.34,1.9.74,4.2,1.06,5.86-.13,2.15-1.55,2.11-4.79,1.32-7.32-1.43-4.56-4.64-8.54-8.79-10.92-1.09-.63-2.43-1.15-3.58-.65-2.04.89-1.68,3.92-.67,5.9,2.41,4.71,6.61,8.47,11.56,10.33.76.29,1.58.53,2.37.34,2.04-.5,2.33-3.26,2.05-5.34-.43-3.21-1.18-6.44-2.89-9.19-1.71-2.75-4.5-4.97-7.71-5.35-1.65-.19-3.34.1-4.91.67-5.9,2.16-9.92,8.58-9.29,14.83.63,6.25,5.87,11.73,12.08,12.66s12.82-2.79,15.25-8.58c2.46-5.87.28-13.44-5.15-16.76-3.32-2.03-7.36-2.43-11.25-2.52-2.8-.07-5.74.04-8.16,1.44-4.68,2.71-5.61,9.39-3.68,14.44,1.41,3.69,4.05,6.9,7.4,9,2.33,1.46,5.05,2.4,7.8,2.3,4.59-.16,8.91-3.45,10.28-7.84s-.31-9.55-4-12.29c-4.14-3.08-10.41-2.77-14.31.61s-5.12,9.44-2.96,14.12,7.47,7.66,12.61,7.21c2.45-.22,4.93-1.23,6.41-3.2,2.29-3.06,1.17-8.07-2.21-9.86-3.38-1.79-8.15.1-9.39,3.71"/><path class="cls-19" d="M217.54,119.47c.46-1.29-1.52-2.56-2.51-1.61,1.1,1.17,2.39,2.28,3.96,2.58,1.57.3,3.45-.5,3.85-2.05.19-.73.03-1.52-.33-2.18-1.43-2.63-5.9-2.41-7.38.2-1.48,2.61.16,6.29,2.97,7.33,1.7.63,3.93.27,4.81-1.31.75-1.34.31-3.03-.38-4.39-.66-1.29-1.63-2.55-3.01-2.99-2.4-.76-5.04,1.61-4.96,4.12.08,2.52,2.37,4.61,4.86,4.97,4.5.64,8.7-4.41,7.38-8.75-1.32-4.35-7.42-6.27-11.08-3.59-3.66,2.69-3.76,8.92-.28,11.84,3.48,2.92,9.46,1.85,11.85-2,2.39-3.86.82-9.56-3.14-11.78-4.6-2.58-11.28.23-12.66,5.32-.6,2.21-.29,4.6.57,6.73,1.03,2.53,2.94,4.81,5.51,5.74,4.71,1.71,10.28-2.05,11.24-6.97.96-4.91-2.08-10.06-6.49-12.45-2.93-1.58-6.69-2.06-9.52-.31-2.42,1.49-3.74,4.33-4.05,7.15-.54,4.87,1.9,10.08,6.26,12.31s10.37.91,12.99-3.23c2.61-4.14.85-10.53-3.7-12.33-4.42-1.75-9.43.88-12.7,4.32-2.46,2.6-4.35,6.85-2,9.55,1.63,1.88,4.5,1.95,6.96,1.59,4.9-.71,9.93-2.83,12.56-7.02,2.63-4.2,1.76-10.71-2.68-12.91-4.96-2.46-10.72,1.39-14.35,5.57-1.43,1.65-2.8,3.47-3.25,5.61s.25,4.66,2.15,5.73c1.33.75,2.95.67,4.47.53,3.15-.3,6.39-.87,9.05-2.59s4.61-4.86,4.1-7.99c-.41-2.52-2.32-4.57-4.48-5.92-5.51-3.44-14.14-2.24-16.82,3.68-1.18,2.59-1.07,5.61-.37,8.38,1.19,4.72,4.07,8.99,7.99,11.87,2.67,1.96,6.18,3.29,9.27,2.09,3.09-1.2,4.79-4.56,5.48-7.79,1.19-5.54.21-11.52-2.69-16.39-2.65-4.45-7.58-8.13-12.67-7.23-5.05.89-8.41,5.96-9.44,10.99-.73,3.58-.54,7.47,1.29,10.63,2.67,4.63,8.7,6.84,13.87,5.48,5.17-1.36,9.22-5.92,10.45-11.12,1.41-5.94-1.13-12.94-6.64-15.58-7.07-3.39-15.81,1.53-19.57,8.41-2.73,5-3.29,11.93.85,15.84,1.56,1.47,3.61,2.34,5.7,2.84,5.59,1.33,11.73.11,16.39-3.26,4.65-3.37,7.73-8.83,8.21-14.56.4-4.8-1.32-10.13-5.5-12.52-4.07-2.33-9.32-1.28-13.42,1.01-4.41,2.46-8.17,6.44-9.4,11.34-1.23,4.9.55,10.66,4.86,13.29"/><path class="cls-21" d="M33.9,180.7c.7,2.49,2.56,4.63,4.94,5.66.94-2.27.92-4.91-.04-7.16-2.44,1.71-1.25,6.36,1.71,6.7,2.96.34,5.16-3.93,3.16-6.15-1.16-1.29-3.05-1.6-4.78-1.62-2.41-.02-4.91.41-6.91,1.76-2,1.35-3.4,3.76-3.07,6.15.52,3.72,5.36,5.82,8.73,4.15,3.37-1.67,4.79-6.1,3.66-9.68-.53-1.69-1.6-3.27-3.16-4.09-3.76-1.98-8.75,1.95-8.44,6.19.31,4.24,4.74,7.39,8.98,7.19,1.34-.06,2.69-.41,3.77-1.2,2.95-2.15,2.7-7.02.21-9.7-2.49-2.68-6.42-3.51-10.07-3.41-1.85.05-3.84.36-5.17,1.64-1.9,1.83-1.73,5.08-.28,7.28,1.45,2.2,3.85,3.57,6.23,4.7,2.14,1.02,4.56,1.93,6.82,1.22,3.87-1.2,4.92-6.26,4.27-10.26-.39-2.36-1.24-4.82-3.18-6.22-2.03-1.46-4.82-1.41-7.21-.69-6.31,1.89-11.07,8.99-9.04,15.25,1.71,5.28,7.91,8.49,13.32,7.25,5.41-1.23,9.52-6.42,9.95-11.96.22-2.77-.52-5.81-2.71-7.51-1.17-.91-2.62-1.35-4.04-1.75-3.09-.87-6.26-1.64-9.46-1.43s-6.47,1.52-8.36,4.11c-2.41,3.3-2.04,8.08.12,11.54,2.17,3.46,5.83,5.75,9.65,7.19,2.66,1,5.63,1.65,8.34.8,3.18-1,5.47-3.93,6.53-7.09,1.07-3.16,1.1-6.57,1.07-9.9-.03-3.11-.21-6.52-2.31-8.82-2.47-2.7-6.64-2.85-10.28-2.49-6.55.64-13.89,2.97-16.51,9.01-1.54,3.55-1.04,7.79.79,11.2,3.19,5.95,10.55,9.4,17.12,7.83s11.63-8.13,11.27-14.87c-.14-2.65-1.22-5.47-3.54-6.75-1.6-.89-3.52-.92-5.34-.76-5.27.45-11.23,3.2-12.02,8.42-.71,4.64,3.6,9.1,8.28,9.38,4.69.28,9.13-2.91,11.25-7.1,1.53-3,1.53-7.51-1.56-8.86-1.94-.84-4.18.01-5.99,1.11-2.08,1.27-4.14,3.29-3.93,5.72.26,3.04,4.43,4.62,7.02,3.01,2.59-1.61,3.33-5.28,2.24-8.14-1.08-2.85-3.58-4.95-6.26-6.4-3.89-2.1-8.92-2.99-12.58-.53-4.73,3.19-4.74,10.57-1.58,15.31,3.3,4.95,9.45,7.84,15.37,7.23"/><path class="cls-19" d="M35.32,140.73c.46-1.29-1.52-2.56-2.51-1.61,1.1,1.17,2.39,2.28,3.96,2.58s3.45-.5,3.85-2.05c.19-.73.03-1.52-.33-2.18-1.43-2.63-5.9-2.41-7.38.2s.16,6.29,2.97,7.33c1.7.63,3.93.27,4.81-1.31.75-1.34.31-3.03-.38-4.39-.66-1.29-1.63-2.55-3.01-2.99-2.4-.76-5.04,1.61-4.96,4.12.08,2.52,2.37,4.61,4.86,4.97,4.5.64,8.7-4.41,7.38-8.75-1.32-4.35-7.42-6.27-11.08-3.59s-3.76,8.92-.28,11.84c3.48,2.92,9.46,1.85,11.85-2,2.39-3.86.82-9.56-3.14-11.78-4.6-2.58-11.28.23-12.66,5.32-.6,2.21-.29,4.6.57,6.73,1.03,2.53,2.94,4.81,5.51,5.74,4.71,1.71,10.28-2.05,11.24-6.97s-2.08-10.06-6.49-12.45c-2.93-1.58-6.69-2.06-9.52-.31-2.42,1.49-3.74,4.33-4.05,7.15-.54,4.87,1.9,10.08,6.26,12.31,4.36,2.23,10.37.91,12.99-3.23s.85-10.53-3.7-12.33c-4.42-1.75-9.43.88-12.7,4.32-2.46,2.6-4.35,6.85-2,9.55,1.63,1.88,4.5,1.95,6.96,1.59,4.9-.71,9.93-2.83,12.56-7.02s1.76-10.71-2.68-12.91c-4.96-2.46-10.72,1.39-14.35,5.57-1.43,1.65-2.8,3.47-3.25,5.61s.25,4.66,2.15,5.73c1.33.75,2.95.67,4.47.53,3.15-.3,6.39-.87,9.05-2.59s4.61-4.86,4.1-7.99c-.41-2.52-2.32-4.57-4.48-5.92-5.51-3.44-14.14-2.24-16.82,3.68-1.18,2.59-1.07,5.61-.37,8.38,1.19,4.72,4.07,8.99,7.99,11.87,2.67,1.96,6.18,3.29,9.27,2.09,3.09-1.2,4.79-4.56,5.48-7.79,1.19-5.54.21-11.52-2.69-16.39-2.65-4.45-7.58-8.13-12.67-7.23-5.05.89-8.41,5.96-9.44,10.99-.73,3.58-.54,7.47,1.29,10.63,2.67,4.63,8.7,6.84,13.87,5.48,5.17-1.36,9.22-5.92,10.45-11.12,1.41-5.94-1.13-12.94-6.64-15.58-7.07-3.39-15.81,1.53-19.57,8.41-2.73,5-3.29,11.93.85,15.84,1.56,1.47,3.61,2.34,5.7,2.84,5.59,1.33,11.73.11,16.39-3.26s7.73-8.83,8.21-14.56c.4-4.8-1.32-10.13-5.5-12.52-4.07-2.33-9.32-1.28-13.42,1.01-4.41,2.46-8.17,6.44-9.4,11.34-1.23,4.9.55,10.66,4.86,13.29"/></g></g><g id="ZONE_4_B_-_copie"><g class="cls-31"><rect class="cls-16" x="245.32" y="284.36" width="948.32" height="791"/><rect class="cls-27" x="245.32" y="284.36" width="948.32" height="791"/><path class="cls-28" d="M245.32,284.36v339.3c148.05,69.87,330.42,21.4,528.07,40.81,241.01,23.66,261.65,69.9,420.25,62.56v-442.68s-948.32,0-948.32,0Z"/><path class="cls-12" d="M245.32,284.36v346.87c148.05,69.87,330.42-57.27,528.07-37.86,241.01,23.66,261.65,57.52,420.25,50.18v-359.19s-948.32,0-948.32,0Z"/></g></g><g id="BG_-_copie_6"><g class="cls-32"><g class="cls-13"><polygon class="cls-16" points="90.08 -131.55 90.08 -119.43 101.63 -119.43 101.63 119.2 275.51 119.2 275.51 -119.43 201.51 -125.49 201.51 -131.55 90.08 -131.55"/><rect class="cls-37" x="105.71" y="-126.88" width="99.88" height="244.69"/><line class="cls-22" x1="117.83" y1="107.23" x2="117.83" y2="117.81"/><line class="cls-22" x1="117.83" y1="87.02" x2="117.83" y2="28.13"/><line class="cls-22" x1="117.83" y1="9.57" x2="117.83" y2="-42.83"/><line class="cls-22" x1="148.61" y1="-115.62" x2="148.61" y2="87.02"/><polygon class="cls-6" points="117.83 24.59 148.61 41.19 205.59 41.19 205.59 24.59 117.83 24.59"/><rect class="cls-39" x="117.83" y="92.06" width="87.75" height="10.7"/><rect class="cls-39" x="117.83" y="13.9" width="87.75" height="10.7"/><rect class="cls-39" x="203.91" y="-126.88" width="73.07" height="244.69"/></g></g></g></g></svg>