<?xml version="1.0" encoding="UTF-8"?><svg xmlns="http://www.w3.org/2000/svg" xmlns:xlink="http://www.w3.org/1999/xlink" viewBox="0 0 300 300"><defs><style>.cls-1{fill:#ffcb57;}.cls-2{fill:url(#_40_10_ppp);opacity:.15;}.cls-2,.cls-3,.cls-4,.cls-5,.cls-6,.cls-7,.cls-8{mix-blend-mode:multiply;}.cls-9{clip-path:url(#clippath-4);}.cls-3{fill:url(#_40_10_ppp-3);}.cls-3,.cls-5,.cls-6{opacity:.1;}.cls-4{fill:url(#_40_10_ppp-2);}.cls-4,.cls-10,.cls-8{opacity:.25;}.cls-11{fill:#282659;}.cls-12{fill:#1d1061;}.cls-13,.cls-14,.cls-15{fill:none;}.cls-16{fill:#5cc6a0;}.cls-17{clip-path:url(#clippath-1);}.cls-18{fill:#ffdf96;}.cls-19{isolation:isolate;}.cls-20{clip-path:url(#clippath-5);}.cls-5{fill:url(#_40_10_ppp-6);}.cls-10{fill:url(#_40_10_ppp-5);mix-blend-mode:overlay;}.cls-21{clip-path:url(#clippath-3);}.cls-6{fill:url(#_40_10_ppp-4);}.cls-22{fill:#f2f0ec;}.cls-14{stroke-width:2px;}.cls-14,.cls-15{stroke:#1d1061;stroke-linecap:round;stroke-linejoin:round;}.cls-7{fill:url(#_40_10_ppp_4);opacity:.05;}.cls-8{fill:url(#_40_10_ppp_3);}.cls-15{stroke-width:4px;}.cls-23{fill:#a5a5a5;}.cls-24{clip-path:url(#clippath-2);}.cls-25{fill:#7a7a7a;}.cls-26{clip-path:url(#clippath);}.cls-27{fill:url(#Dégradé_sans_nom_8);}.cls-28{opacity:.5;}.cls-29{fill:url(#Dégradé_sans_nom_34);}</style><clipPath id="clippath"><rect class="cls-13" x="10" y="10" width="280" height="280" rx="20" ry="20"/></clipPath><pattern id="_40_10_ppp_4" x="0" y="0" width="11.34" height="11.34" patternTransform="translate(7443.18 7508.34) scale(2)" patternUnits="userSpaceOnUse" viewBox="0 0 11.34 11.34"><rect class="cls-13" x="0" width="11.34" height="11.34"/><circle class="cls-11" cx="9.7" cy="9.69" r="1.2"/><circle class="cls-11" cx="4.03" cy="9.69" r="1.2"/><path class="cls-11" d="M9.7,5.22c.66,0,1.2-.54,1.2-1.2s-.54-1.2-1.2-1.2-1.2.54-1.2,1.2.54,1.2,1.2,1.2Z"/><path class="cls-11" d="M4.03,5.22c.66,0,1.2-.54,1.2-1.2s-.54-1.2-1.2-1.2-1.2.54-1.2,1.2.54,1.2,1.2,1.2Z"/><path class="cls-11" d="M1.2,8.06c.66,0,1.2-.54,1.2-1.2s-.54-1.2-1.2-1.2S0,6.2,0,6.86s.54,1.2,1.2,1.2Z"/><circle class="cls-11" cx="6.86" cy="6.86" r="1.2"/><path class="cls-11" d="M1.2,2.39c.66,0,1.2-.54,1.2-1.2S1.86,0,1.2,0,0,.54,0,1.2s.54,1.2,1.2,1.2Z"/><circle class="cls-11" cx="6.86" cy="1.2" r="1.2"/></pattern><linearGradient id="Dégradé_sans_nom_8" x1="150" y1="300" x2="150" y2="8.88" gradientUnits="userSpaceOnUse"><stop offset="0" stop-color="#f2f0ec" stop-opacity="0"/><stop offset="1" stop-color="#f2f0ec"/></linearGradient><clipPath id="clippath-1"><rect class="cls-13" x="10" y="10" width="280" height="280" rx="20" ry="20"/></clipPath><pattern id="_40_10_ppp" x="0" y="0" width="10" height="10" patternTransform="translate(7083.48 6218.6) scale(2)" patternUnits="userSpaceOnUse" viewBox="0 0 10 10"><rect class="cls-13" width="10" height="10"/><circle class="cls-12" cx="8.95" cy="8.95" r="1.05"/><circle class="cls-12" cx="3.68" cy="8.95" r="1.05"/><path class="cls-12" d="M8.95,4.74c.58,0,1.05-.47,1.05-1.05s-.47-1.05-1.05-1.05-1.05.47-1.05,1.05.47,1.05,1.05,1.05Z"/><path class="cls-12" d="M3.68,4.74c.58,0,1.05-.47,1.05-1.05s-.47-1.05-1.05-1.05-1.05.47-1.05,1.05.47,1.05,1.05,1.05Z"/><path class="cls-12" d="M1.05,7.37c.58,0,1.05-.47,1.05-1.05s-.47-1.05-1.05-1.05S0,5.73,0,6.32s.47,1.05,1.05,1.05Z"/><circle class="cls-12" cx="6.32" cy="6.32" r="1.05"/><path class="cls-12" d="M1.05,2.11c.58,0,1.05-.47,1.05-1.05S1.63,0,1.05,0,0,.47,0,1.05s.47,1.05,1.05,1.05Z"/><circle class="cls-12" cx="6.32" cy="1.05" r="1.05"/></pattern><clipPath id="clippath-2"><rect class="cls-13" x="10" y="10" width="280" height="280" rx="20" ry="20"/></clipPath><linearGradient id="Dégradé_sans_nom_34" x1="189.33" y1="161.32" x2="189.33" y2="-7.4" gradientUnits="userSpaceOnUse"><stop offset="0" stop-color="#ffffb6" stop-opacity=".5"/><stop offset="1" stop-color="#ffffb6" stop-opacity="0"/></linearGradient><pattern id="_40_10_ppp_3" x="0" y="0" width="10" height="10" patternTransform="translate(7113.48 6218.6) scale(2)" patternUnits="userSpaceOnUse" viewBox="0 0 10 10"><rect class="cls-13" width="10" height="10"/><circle class="cls-1" cx="8.95" cy="8.95" r="1.05"/><circle class="cls-1" cx="3.68" cy="8.95" r="1.05"/><path class="cls-1" d="M8.95,4.74c.58,0,1.05-.47,1.05-1.05s-.47-1.05-1.05-1.05-1.05.47-1.05,1.05.47,1.05,1.05,1.05Z"/><path class="cls-1" d="M3.68,4.74c.58,0,1.05-.47,1.05-1.05s-.47-1.05-1.05-1.05-1.05.47-1.05,1.05.47,1.05,1.05,1.05Z"/><path class="cls-1" d="M1.05,7.37c.58,0,1.05-.47,1.05-1.05s-.47-1.05-1.05-1.05S0,5.73,0,6.32s.47,1.05,1.05,1.05Z"/><circle class="cls-1" cx="6.32" cy="6.32" r="1.05"/><path class="cls-1" d="M1.05,2.11c.58,0,1.05-.47,1.05-1.05S1.63,0,1.05,0,0,.47,0,1.05s.47,1.05,1.05,1.05Z"/><circle class="cls-1" cx="6.32" cy="1.05" r="1.05"/></pattern><pattern id="_40_10_ppp-2" patternTransform="translate(7113.48 6218.6) scale(2)" xlink:href="#_40_10_ppp"/><clipPath id="clippath-3"><rect class="cls-13" x="360" y="-368.35" width="280" height="280" rx="20" ry="20"/></clipPath><pattern id="_40_10_ppp-3" patternTransform="translate(7229.01 6664.6) scale(2)" xlink:href="#_40_10_ppp"/><clipPath id="clippath-4"><rect class="cls-13" x="10" y="-368.35" width="280" height="280" rx="20" ry="20"/></clipPath><pattern id="_40_10_ppp-4" patternTransform="translate(7219.01 6664.6) scale(2)" xlink:href="#_40_10_ppp"/><pattern id="_40_10_ppp-5" patternTransform="translate(7219.01 6664.6) scale(2)" xlink:href="#_40_10_ppp"/><clipPath id="clippath-5"><rect class="cls-13" x="-340" y="-368.35" width="280" height="280" rx="20" ry="20"/></clipPath><pattern id="_40_10_ppp-6" patternTransform="translate(7069.01 6664.6) scale(2)" xlink:href="#_40_10_ppp"/></defs><g class="cls-19"><g id="Calque_25"><rect class="cls-22" x="10" y="10" width="280" height="280" rx="20" ry="20"/><g class="cls-26"><rect class="cls-7" y="0" width="300" height="300"/><rect class="cls-27" x="0" y="0" width="300" height="300"/></g></g><g id="BG_-_copie_6"><g class="cls-28"><g class="cls-17"><polygon class="cls-12" points="90.08 252.45 90.08 264.57 101.63 264.57 101.63 503.2 275.51 503.2 275.51 264.57 201.51 258.51 201.51 252.45 90.08 252.45"/><rect class="cls-23" x="105.71" y="257.12" width="99.88" height="244.69"/><line class="cls-14" x1="117.83" y1="319.76" x2="117.83" y2="268.38"/><polygon class="cls-2" points="105.71 263.18 105.71 268.38 117.83 268.38 149.88 284.29 205.59 284.29 205.59 263.18 105.71 263.18"/><line class="cls-14" x1="148.61" y1="268.38" x2="148.61" y2="471.02"/><rect class="cls-25" x="94.16" y="251.06" width="111.42" height="12.12"/><rect class="cls-25" x="203.91" y="257.12" width="73.07" height="244.69"/><rect class="cls-25" x="195.46" y="251.06" width="81.52" height="12.12"/></g></g></g><g id="ZONE_3_B_-_copie"><g class="cls-24"><path class="cls-29" d="M253.41,16.8l-60.62,143.75h-12.41l-37.34-95.6c19.11-9.55,53.42-25.65,102-44.4-58.65,5.94-93.77,16.11-110.68,22.17l-9.11-23.33c77.36-17.03,128.17-2.6,128.17-2.6Z"/><path class="cls-12" d="M213.1,243.14l-6.45-28.07h-1.53l-13.36-58.15h-18.47l-18.42,58.15h-1.32l-8.69,27.45c-1.63,5.14,2.21,10.37,7.59,10.37h52.9c5.12,0,8.91-4.76,7.76-9.75Z"/><path class="cls-8" d="M256.68,20.07l-60.62,143.75h-12.41l-37.34-95.6c19.11-9.55,53.42-25.65,102-44.4-58.65,5.94-93.77,16.11-110.68,22.17l-9.11-23.33c77.36-17.03,128.17-2.6,128.17-2.6Z"/><path class="cls-18" d="M177.2,155.36h18.47l19.26,83.79c1.08,4.69-2.48,9.15-7.29,9.15h-49.67c-5.06,0-8.66-4.92-7.13-9.74l26.36-83.21Z"/><path class="cls-16" d="M148.77,240.96c-1.63,5.14,2.21,10.37,7.59,10.37h52.9c5.12,0,8.91-4.76,7.76-9.75l-6.45-28.07h-53.11l-8.69,27.45Z"/><path class="cls-15" d="M202.89,244.49h5.8c3.02,0,5.47,2.45,5.47,5.47h0c0,3.02-2.45,5.47-5.47,5.47h-15.86c-3.8,0-6.88,3.08-6.88,6.88v54.35c0,9.15,3.64,17.93,10.11,24.4l21.26,21.26c6.47,6.47,15.25,10.11,24.4,10.11h0"/><circle class="cls-22" cx="185.94" cy="301.93" r="11.29"/><circle class="cls-4" cx="188" cy="303.78" r="10.09"/></g></g><g id="BG_-_copie_7"><g class="cls-28"><g class="cls-21"><path class="cls-3" d="M920.77,39.96c0,8.25-142.68,8.25-318.69,8.25s-318.69-3.69-318.69-8.25,142.68-8.25,318.69-8.25,318.69,0,318.69,8.25Z"/></g></g><g class="cls-28"><g class="cls-9"><path class="cls-12" d="M350.42-91.89h-76.98v-176.17c0-4.86-3.07-9.18-7.67-10.75-32.01-10.91-160.07-47.94-305.98.15-4.63,1.53-7.73,5.91-7.73,10.78V39.96h321.38V-17.39h76.98v-74.5Z"/><path class="cls-6" d="M570.77,39.96c0,8.25-142.68,8.25-318.69,8.25s-318.69-3.69-318.69-8.25,142.68-8.25,318.69-8.25,318.69,0,318.69,8.25Z"/><path class="cls-25" d="M271.36-281.12c-32.01-10.91-160.07-47.94-305.98.15-4.63,1.53-7.73,5.91-7.73,10.78V37.64h321.38v-308.02c0-4.86-3.07-9.18-7.67-10.75Z"/><polygon class="cls-10" points="-8.89 -15.89 44.12 41.45 285.94 41.45 285.94 -15.89 -8.89 -15.89"/><polygon class="cls-12" points="-15.79 -19.7 -15.79 -17.84 278.87 4.58 279.03 -19.7 -15.79 -19.7"/></g></g><g class="cls-28"><g class="cls-20"><path class="cls-12" d="M.42-91.89h-76.98v-176.17c0-4.86-3.07-9.18-7.67-10.75-32.01-10.91-160.07-47.94-305.98.15-4.63,1.53-7.73,5.91-7.73,10.78V39.96H-76.55V-17.39H.42v-74.5Z"/><path class="cls-5" d="M220.77,39.96c0,8.25-142.68,8.25-318.69,8.25s-318.69-3.69-318.69-8.25,142.68-8.25,318.69-8.25,318.69,0,318.69,8.25Z"/></g></g></g></g></svg>