<?xml version="1.0" encoding="UTF-8"?><svg xmlns="http://www.w3.org/2000/svg" xmlns:xlink="http://www.w3.org/1999/xlink" viewBox="0 0 300 300"><defs><style>.cls-1{fill:url(#_40_10_ppp-8);}.cls-1,.cls-2,.cls-3,.cls-4,.cls-5,.cls-6,.cls-7,.cls-8,.cls-9,.cls-10{opacity:.25;}.cls-1,.cls-2,.cls-4,.cls-5,.cls-6,.cls-7,.cls-8,.cls-9,.cls-10{mix-blend-mode:overlay;}.cls-2{fill:url(#_40_10_ppp-11);}.cls-3,.cls-11,.cls-12,.cls-13{fill:none;}.cls-3,.cls-14,.cls-15,.cls-16,.cls-17{mix-blend-mode:multiply;}.cls-3,.cls-12,.cls-13{stroke-linecap:round;stroke-linejoin:round;stroke-width:2px;}.cls-3,.cls-13{stroke:#1d1061;}.cls-4{fill:url(#_40_10_ppp-12);}.cls-18{fill:#282659;}.cls-19{fill:#1d1061;}.cls-20{clip-path:url(#clippath-1);}.cls-5{fill:url(#_40_10_ppp-10);}.cls-21{fill:#db6b4c;}.cls-6{fill:url(#_40_10_ppp-3);}.cls-22{isolation:isolate;}.cls-14{fill:url(#_40_10_ppp-6);}.cls-14,.cls-15,.cls-16{opacity:.1;}.cls-7{fill:url(#_40_10_ppp-5);}.cls-23{clip-path:url(#clippath-3);}.cls-24{fill:#f2f0ec;}.cls-15{fill:url(#_40_10_ppp);}.cls-12{stroke:#ffcb57;}.cls-16{fill:url(#_40_10_ppp-2);}.cls-8{fill:url(#_40_10_ppp-9);}.cls-17{fill:url(#_40_10_ppp_4);opacity:.05;}.cls-25{fill:#a5a5a5;}.cls-26{clip-path:url(#clippath-2);}.cls-9{fill:url(#_40_10_ppp-4);}.cls-10{fill:url(#_40_10_ppp-7);}.cls-27{fill:#7a7a7a;}.cls-28{clip-path:url(#clippath);}.cls-29{fill:url(#Dégradé_sans_nom_8);}.cls-30{opacity:.5;}.cls-31{fill:#6a90c6;}</style><clipPath id="clippath"><rect class="cls-11" x="10" y="10" width="280" height="280" rx="20" ry="20"/></clipPath><pattern id="_40_10_ppp_4" x="0" y="0" width="11.34" height="11.34" patternTransform="translate(7783.34 8258.2) scale(2)" patternUnits="userSpaceOnUse" viewBox="0 0 11.34 11.34"><rect class="cls-11" x="0" width="11.34" height="11.34"/><circle class="cls-18" cx="9.7" cy="9.69" r="1.2"/><circle class="cls-18" cx="4.03" cy="9.69" r="1.2"/><path class="cls-18" d="M9.7,5.22c.66,0,1.2-.54,1.2-1.2s-.54-1.2-1.2-1.2-1.2.54-1.2,1.2.54,1.2,1.2,1.2Z"/><path class="cls-18" d="M4.03,5.22c.66,0,1.2-.54,1.2-1.2s-.54-1.2-1.2-1.2-1.2.54-1.2,1.2.54,1.2,1.2,1.2Z"/><path class="cls-18" d="M1.2,8.06c.66,0,1.2-.54,1.2-1.2s-.54-1.2-1.2-1.2S0,6.2,0,6.86s.54,1.2,1.2,1.2Z"/><circle class="cls-18" cx="6.86" cy="6.86" r="1.2"/><path class="cls-18" d="M1.2,2.39c.66,0,1.2-.54,1.2-1.2S1.86,0,1.2,0,0,.54,0,1.2s.54,1.2,1.2,1.2Z"/><circle class="cls-18" cx="6.86" cy="1.2" r="1.2"/></pattern><linearGradient id="Dégradé_sans_nom_8" x1="150" y1="300" x2="150" y2="8.88" gradientUnits="userSpaceOnUse"><stop offset="0" stop-color="#f2f0ec" stop-opacity="0"/><stop offset="1" stop-color="#f2f0ec"/></linearGradient><clipPath id="clippath-1"><rect class="cls-11" x="360" y="-375.41" width="280" height="280" rx="20" ry="20"/></clipPath><pattern id="_40_10_ppp" x="0" y="0" width="10" height="10" patternTransform="translate(7548.93 6990.45) scale(2)" patternUnits="userSpaceOnUse" viewBox="0 0 10 10"><rect class="cls-11" width="10" height="10"/><circle class="cls-19" cx="8.95" cy="8.95" r="1.05"/><circle class="cls-19" cx="3.68" cy="8.95" r="1.05"/><path class="cls-19" d="M8.95,4.74c.58,0,1.05-.47,1.05-1.05s-.47-1.05-1.05-1.05-1.05.47-1.05,1.05.47,1.05,1.05,1.05Z"/><path class="cls-19" d="M3.68,4.74c.58,0,1.05-.47,1.05-1.05s-.47-1.05-1.05-1.05-1.05.47-1.05,1.05.47,1.05,1.05,1.05Z"/><path class="cls-19" d="M1.05,7.37c.58,0,1.05-.47,1.05-1.05s-.47-1.05-1.05-1.05S0,5.73,0,6.32s.47,1.05,1.05,1.05Z"/><circle class="cls-19" cx="6.32" cy="6.32" r="1.05"/><path class="cls-19" d="M1.05,2.11c.58,0,1.05-.47,1.05-1.05S1.63,0,1.05,0,0,.47,0,1.05s.47,1.05,1.05,1.05Z"/><circle class="cls-19" cx="6.32" cy="1.05" r="1.05"/></pattern><clipPath id="clippath-2"><rect class="cls-11" x="10" y="-375.41" width="280" height="280" rx="20" ry="20"/></clipPath><pattern id="_40_10_ppp-2" patternTransform="translate(7398.93 6990.45) scale(2)" xlink:href="#_40_10_ppp"/><pattern id="_40_10_ppp-3" patternTransform="translate(7398.93 6990.45) scale(2)" xlink:href="#_40_10_ppp"/><pattern id="_40_10_ppp-4" patternTransform="translate(7398.93 6990.45) scale(2)" xlink:href="#_40_10_ppp"/><pattern id="_40_10_ppp-5" patternTransform="translate(7398.93 6990.45) scale(2)" xlink:href="#_40_10_ppp"/><clipPath id="clippath-3"><rect class="cls-11" x="10" y="10" width="280" height="280" rx="20" ry="20"/></clipPath><pattern id="_40_10_ppp-6" patternTransform="translate(7424.76 6937.44) scale(2)" xlink:href="#_40_10_ppp"/><pattern id="_40_10_ppp-7" patternTransform="translate(7424.76 6937.44) scale(2)" xlink:href="#_40_10_ppp"/><pattern id="_40_10_ppp-8" patternTransform="translate(7424.76 6937.44) scale(2)" xlink:href="#_40_10_ppp"/><pattern id="_40_10_ppp-9" patternTransform="translate(7424.76 6937.44) scale(2)" xlink:href="#_40_10_ppp"/><pattern id="_40_10_ppp-10" patternTransform="translate(7424.76 6937.44) scale(2)" xlink:href="#_40_10_ppp"/><pattern id="_40_10_ppp-11" patternTransform="translate(7424.76 6937.44) scale(2)" xlink:href="#_40_10_ppp"/><pattern id="_40_10_ppp-12" patternTransform="translate(7436.76 6957.44) scale(2)" xlink:href="#_40_10_ppp"/></defs><g class="cls-22"><g id="Calque_25"><rect class="cls-24" x="10" y="10" width="280" height="280" rx="20" ry="20"/><g class="cls-28"><rect class="cls-17" y="0" width="300" height="300"/><rect class="cls-29" x="0" y="0" width="300" height="300"/></g></g><g id="BG_-_copie_4"><g class="cls-30"><g class="cls-20"><polygon class="cls-19" points="272.87 -129.49 272.87 -105.98 510.72 -105.98 510.72 -77.27 412.91 -77.27 412.91 6.22 510.72 6.22 510.72 128.84 612.22 128.84 612.22 -105.98 627.8 -105.98 627.8 -129.49 272.87 -129.49"/><path class="cls-15" d="M631.81,126.04c0,8.25-82.8,8.25-184.94,8.25s-184.94-3.69-184.94-8.25,82.8-8.25,184.94-8.25,184.94,0,184.94,8.25Z"/><rect class="cls-25" x="282.81" y="-107.85" width="137.82" height="234.82"/><line class="cls-13" x1="288.36" y1="51.7" x2="415.07" y2="51.7"/></g></g><g class="cls-30"><g class="cls-26"><polygon class="cls-19" points="-77.13 -129.49 -77.13 -105.98 160.72 -105.98 160.72 -77.27 62.91 -77.27 62.91 6.22 160.72 6.22 160.72 128.84 262.22 128.84 262.22 -105.98 277.8 -105.98 277.8 -129.49 -77.13 -129.49"/><path class="cls-16" d="M281.81,126.04c0,8.25-82.8,8.25-184.94,8.25s-184.94-3.69-184.94-8.25,82.8-8.25,184.94-8.25,184.94,0,184.94,8.25Z"/><rect class="cls-25" x="164.73" y="-107.85" width="101.5" height="234.82"/><rect class="cls-27" x="61.74" y="-79.91" width="122.26" height="83.49"/><polygon class="cls-6" points="158.19 -104.58 158.19 -76.64 55.19 -76.64 55.19 6.85 158.19 6.85 158.19 130.24 189.54 130.24 243.33 -104.58 158.19 -104.58"/><rect class="cls-25" x="-67.19" y="-107.85" width="137.82" height="234.82"/><line class="cls-13" x1="-61.64" y1="51.7" x2="65.07" y2="51.7"/><circle class="cls-9" cx="-1.55" cy="15.94" r="8.24"/><circle class="cls-27" cx="1.72" cy="12.67" r="8.24"/><circle class="cls-7" cx="-1.55" cy="94.69" r="8.24"/><circle class="cls-27" cx="1.72" cy="91.41" r="8.24"/><line class="cls-13" x1="248.78" y1="116.78" x2="248.78" y2="-99.8"/></g></g></g><g id="BG_-_copie_5"><g class="cls-30"><g class="cls-23"><polygon class="cls-19" points="-11.3 -42.5 -11.3 -19 226.55 -19 226.55 9.71 128.74 9.71 128.74 93.2 226.55 93.2 226.55 215.82 328.05 215.82 328.05 -19 343.62 -19 343.62 -42.5 -11.3 -42.5"/><path class="cls-14" d="M347.64,213.02c0,8.25-82.8,8.25-184.94,8.25s-184.94-3.69-184.94-8.25,82.8-8.25,184.94-8.25,184.94,0,184.94,8.25Z"/><rect class="cls-25" x="230.56" y="-20.87" width="101.5" height="234.82"/><rect class="cls-27" x="127.57" y="7.07" width="122.26" height="83.49"/><polygon class="cls-10" points="224.02 -17.6 224.02 10.35 121.02 10.35 121.02 93.83 224.02 93.83 224.02 217.23 255.37 217.23 309.16 -17.6 224.02 -17.6"/><rect class="cls-25" x="-1.36" y="-20.87" width="137.82" height="234.82"/><line class="cls-13" x1="4.19" y1="58.51" x2="130.9" y2="58.51"/><line class="cls-13" x1="4.19" y1="138.69" x2="130.9" y2="138.69"/><circle class="cls-1" cx="64.28" cy="24.17" r="8.24"/><circle class="cls-27" cx="67.55" cy="20.9" r="8.24"/><circle class="cls-8" cx="64.28" cy="102.92" r="8.24"/><circle class="cls-27" cx="67.55" cy="99.65" r="8.24"/><circle class="cls-5" cx="64.28" cy="181.67" r="8.24"/><circle class="cls-27" cx="67.55" cy="178.4" r="8.24"/></g></g></g><g id="ZONE_1_B_-_copie"><ellipse class="cls-31" cx="144.89" cy="261.71" rx="59.02" ry="3.87"/><ellipse class="cls-2" cx="146.89" cy="262.71" rx="59.02" ry="3.87"/><path class="cls-19" d="M206.56,229.22c0,12.17-30.03,35.59-67.08,35.59s-67.08-24.8-67.08-35.59,30.03-35.59,67.08-35.59,67.08,23.42,67.08,35.59Z"/><path class="cls-21" d="M209.56,227.22c0,12.17-30.03,35.59-67.08,35.59s-67.08-24.8-67.08-35.59,30.03-35.59,67.08-35.59,67.08,23.42,67.08,35.59Z"/><path class="cls-4" d="M206.44,231.22c0,9.98-27.26,29.18-60.89,29.18s-60.89-20.33-60.89-29.18,27.26-29.18,60.89-29.18,60.89,19.2,60.89,29.18Z"/><path class="cls-3" d="M78.11,230.35s13.41,16.39,58.45,16.39c60.64,0,69.72-16.39,69.72-16.39"/><line class="cls-12" x1="112.91" y1="238.54" x2="122.49" y2="252.12"/><line class="cls-12" x1="112.91" y1="251.27" x2="123.54" y2="239.86"/><line class="cls-12" x1="134.74" y1="239.86" x2="145.52" y2="253.6"/><line class="cls-12" x1="133.05" y1="253.6" x2="147.21" y2="239.86"/><line class="cls-12" x1="158.98" y1="252.12" x2="166.86" y2="239.86"/><line class="cls-12" x1="157.35" y1="239.86" x2="168.13" y2="250"/></g></g></svg>