<?xml version="1.0" encoding="UTF-8"?><svg xmlns="http://www.w3.org/2000/svg" xmlns:xlink="http://www.w3.org/1999/xlink" viewBox="0 0 300 300"><defs><style>.cls-1{clip-path:url(#clippath-4);}.cls-2{fill:url(#Dégradé_sans_nom_51-2);mix-blend-mode:hard-light;}.cls-3{fill:#fff;}.cls-4{fill:#282659;}.cls-5{fill:#1d1061;}.cls-6,.cls-7,.cls-8{fill:none;}.cls-9{fill:#5cc6a0;}.cls-7{stroke-width:1.29px;}.cls-7,.cls-8{stroke:#1d1061;stroke-linecap:round;stroke-linejoin:round;}.cls-10{fill:url(#Dégradé_sans_nom_2);}.cls-11{fill:#65447a;}.cls-12{clip-path:url(#clippath-1);}.cls-13{fill:url(#Dégradé_sans_nom_51);}.cls-14{isolation:isolate;}.cls-15,.cls-16,.cls-17,.cls-18,.cls-19{mix-blend-mode:multiply;}.cls-15,.cls-18{opacity:.05;}.cls-15,.cls-19{fill:url(#_40_10_ppp);}.cls-20{clip-path:url(#clippath-5);}.cls-16,.cls-21{opacity:.5;}.cls-16,.cls-22{fill:#6a90c6;}.cls-23{clip-path:url(#clippath-3);}.cls-17{fill:url(#_40_10_ppp-3);opacity:.15;}.cls-24{fill:#f2f0ec;}.cls-8{stroke-width:2px;}.cls-18{fill:url(#_40_10_ppp_4);}.cls-25{fill:#dedede;}.cls-19,.cls-26{opacity:.25;}.cls-27{fill:#a5a5a5;}.cls-28{clip-path:url(#clippath-2);}.cls-29{fill:#7a7a7a;}.cls-30{clip-path:url(#clippath);}.cls-31{fill:url(#Dégradé_sans_nom_8);}.cls-26{fill:url(#_40_10_ppp-2);mix-blend-mode:overlay;}.cls-32{fill:#fdfdfd;}</style><clipPath id="clippath"><rect class="cls-6" x="10" y="10" width="280" height="280" rx="20" ry="20"/></clipPath><pattern id="_40_10_ppp_4" x="0" y="0" width="11.34" height="11.34" patternTransform="translate(7465.86 7419.14) scale(2)" patternUnits="userSpaceOnUse" viewBox="0 0 11.34 11.34"><rect class="cls-6" x="0" width="11.34" height="11.34"/><circle class="cls-4" cx="9.7" cy="9.69" r="1.2"/><circle class="cls-4" cx="4.03" cy="9.69" r="1.2"/><path class="cls-4" d="M9.7,5.22c.66,0,1.2-.54,1.2-1.2s-.54-1.2-1.2-1.2-1.2.54-1.2,1.2.54,1.2,1.2,1.2Z"/><path class="cls-4" d="M4.03,5.22c.66,0,1.2-.54,1.2-1.2s-.54-1.2-1.2-1.2-1.2.54-1.2,1.2.54,1.2,1.2,1.2Z"/><path class="cls-4" d="M1.2,8.06c.66,0,1.2-.54,1.2-1.2s-.54-1.2-1.2-1.2S0,6.2,0,6.86s.54,1.2,1.2,1.2Z"/><circle class="cls-4" cx="6.86" cy="6.86" r="1.2"/><path class="cls-4" d="M1.2,2.39c.66,0,1.2-.54,1.2-1.2S1.86,0,1.2,0,0,.54,0,1.2s.54,1.2,1.2,1.2Z"/><circle class="cls-4" cx="6.86" cy="1.2" r="1.2"/></pattern><linearGradient id="Dégradé_sans_nom_8" x1="150" y1="300" x2="150" y2="8.88" gradientUnits="userSpaceOnUse"><stop offset="0" stop-color="#f2f0ec" stop-opacity="0"/><stop offset="1" stop-color="#f2f0ec"/></linearGradient><clipPath id="clippath-1"><rect class="cls-6" x="10" y="10" width="280" height="280" rx="20" ry="20"/></clipPath><clipPath id="clippath-2"><polygon class="cls-6" points="-88.58 255.95 79.27 255.95 237.57 97.65 69.72 97.65 -88.58 255.95"/></clipPath><pattern id="_40_10_ppp" x="0" y="0" width="10" height="10" patternTransform="translate(1419.45 -176.77) scale(1.29)" patternUnits="userSpaceOnUse" viewBox="0 0 10 10"><rect class="cls-6" width="10" height="10"/><circle class="cls-5" cx="8.95" cy="8.95" r="1.05"/><circle class="cls-5" cx="3.68" cy="8.95" r="1.05"/><path class="cls-5" d="M8.95,4.74c.58,0,1.05-.47,1.05-1.05s-.47-1.05-1.05-1.05-1.05.47-1.05,1.05.47,1.05,1.05,1.05Z"/><path class="cls-5" d="M3.68,4.74c.58,0,1.05-.47,1.05-1.05s-.47-1.05-1.05-1.05-1.05.47-1.05,1.05.47,1.05,1.05,1.05Z"/><path class="cls-5" d="M1.05,7.37c.58,0,1.05-.47,1.05-1.05s-.47-1.05-1.05-1.05S0,5.73,0,6.32s.47,1.05,1.05,1.05Z"/><circle class="cls-5" cx="6.32" cy="6.32" r="1.05"/><path class="cls-5" d="M1.05,2.11c.58,0,1.05-.47,1.05-1.05S1.63,0,1.05,0,0,.47,0,1.05s.47,1.05,1.05,1.05Z"/><circle class="cls-5" cx="6.32" cy="1.05" r="1.05"/></pattern><linearGradient id="Dégradé_sans_nom_2" x1="29.68" y1="228.07" x2="32.4" y2="99.32" gradientUnits="userSpaceOnUse"><stop offset="0" stop-color="#6a90c6" stop-opacity="0"/><stop offset="1" stop-color="#6a90c6"/></linearGradient><clipPath id="clippath-3"><polygon class="cls-6" points="-105.51 210.8 62.35 210.8 167.82 105.33 -.04 105.33 -105.51 210.8"/></clipPath><clipPath id="clippath-4"><rect class="cls-6" x="405.55" y="419.57" width="178.55" height="213.29"/></clipPath><pattern id="_40_10_ppp-2" patternTransform="translate(7254.27 5874.25) scale(2)" xlink:href="#_40_10_ppp"/><linearGradient id="Dégradé_sans_nom_51" x1="-5948.56" y1="-3580.98" x2="-5498.99" y2="-3664.52" gradientTransform="translate(-3242.63 -5275.34) rotate(-90) scale(1 -1)" gradientUnits="userSpaceOnUse"><stop offset="0" stop-color="#ffa544" stop-opacity="0"/><stop offset="1" stop-color="#db6b4c"/></linearGradient><linearGradient id="Dégradé_sans_nom_51-2" x1="-5934.88" y1="-3659.06" x2="-5487.24" y2="-3554.9" xlink:href="#Dégradé_sans_nom_51"/><clipPath id="clippath-5"><rect class="cls-6" x="10" y="-374" width="280" height="280" rx="20" ry="20"/></clipPath><pattern id="_40_10_ppp-3" patternTransform="translate(7083.48 5834.6) scale(2)" xlink:href="#_40_10_ppp"/></defs><g class="cls-14"><g id="Calque_25"><rect class="cls-24" x="10" y="10" width="280" height="280" rx="20" ry="20"/><g class="cls-30"><rect class="cls-18" y="0" width="300" height="300"/><rect class="cls-31" x="0" y="0" width="300" height="300"/></g></g><g id="BG_-_copie"><g class="cls-21"><g class="cls-12"><polygon class="cls-32" points="-88.58 255.95 79.27 255.95 237.57 97.65 69.72 97.65 -88.58 255.95"/><line class="cls-7" x1="69.91" y1="230.67" x2="78.46" y2="253.75"/><g class="cls-28"><polygon class="cls-25" points="-98.5 229.16 69.35 229.16 227.65 70.86 59.8 70.86 -98.5 229.16"/><polygon class="cls-32" points="-104.46 215.76 63.4 215.76 173.81 105.35 5.96 105.35 -104.46 215.76"/><polygon class="cls-22" points="-105.51 210.8 62.35 210.8 167.82 105.33 -.04 105.33 -105.51 210.8"/><polygon class="cls-15" points="-105.51 210.8 62.35 210.8 167.82 105.33 -.04 105.33 -105.51 210.8"/><polygon class="cls-10" points="-105.51 210.8 62.35 210.8 167.82 105.33 -.04 105.33 -105.51 210.8"/><line class="cls-7" x1="63.01" y1="214.41" x2="62.45" y2="211.92"/><g class="cls-23"><path class="cls-16" d="M-68.82,175.38c-3.37-6.85-5.27-14.55-5.27-22.7,0-28.43,23.05-51.47,51.47-51.47,20.15,0,37.58,11.58,46.04,28.45,2.94-1.66,5.89-2.21,8.59-1.38,8.8,2.7,11.6,19.02,6.25,36.45-.21.7-.44,1.38-.67,2.06,8.04,1.09,15.46,4.12,21.79,8.59H-68.82ZM41.07,101.2c-3.51,0-6.36,2.85-6.36,6.36s2.85,6.36,6.36,6.36,6.36-2.85,6.36-6.36-2.85-6.36-6.36-6.36ZM30.11,182.39c-1.85,0-3.35,1.5-3.35,3.35s1.5,3.35,3.35,3.35,3.35-1.5,3.35-3.35-1.5-3.35-3.35-3.35Z"/><path class="cls-3" d="M-68.82,171.82c-3.37-6.85-5.27-14.55-5.27-22.7,0-28.43,23.05-51.47,51.47-51.47,20.15,0,37.58,11.58,46.04,28.45,2.94-1.66,5.89-2.21,8.59-1.38,8.8,2.7,11.6,19.02,6.25,36.45-.21.7-.44,1.38-.67,2.06,8.04,1.09,15.46,4.12,21.79,8.59H-68.82ZM41.07,97.65c-3.51,0-6.36,2.85-6.36,6.36s2.85,6.36,6.36,6.36,6.36-2.85,6.36-6.36-2.85-6.36-6.36-6.36ZM30.11,178.83c-1.85,0-3.35,1.5-3.35,3.35s1.5,3.35,3.35,3.35,3.35-1.5,3.35-3.35-1.5-3.35-3.35-3.35Z"/></g></g></g></g></g><g id="ZONE_4_A_-_copie"><polygon class="cls-5" points="38.43 153.87 29.87 181.99 38.3 197.88 45.01 179.22 39.78 154.34 50.73 130.75 34.08 98.98 29.87 133.08 38.43 153.87"/><polygon class="cls-5" points="37.69 215.42 38.3 197.88 29.87 210.94 37.69 215.42"/><path class="cls-5" d="M253.31,97.8c.02-.07.02-.12-.02-.12-.79.01-27.23,5.92-27.23,5.92l-1.56,14.86-15.91-1.74-6.39,7.7-28.96.37-5.06,11.87-19.86-11.55-9.47,7.3-13.94-13.2-27.07,14.07-9.09-15.93-5.42,3.72-7.03-11.81-14.05.18-20.42-21.94-7.74,11.47,10.33,14.31,16.75-.21,12.93,17.37,5.49-4.26-3.55,8.36,25.3,4.83-1.68-2.94,18.12,10.46,19.96-11.71,4.98,11.39,26.14-7.41,20.25,8.87,14.12-21.6,14.71,9.36,8.09-14.21,15.52-5.31s10.04-14.93,11.57-18.04l-10.74,37.25s14.67-5.03,15.27-5.04c.57,0-4.02-30.54-4.34-32.66Z"/><polygon class="cls-5" points="256.82 155.34 248.35 172.46 257.44 175.04 257.44 156.19 257.65 130.46 242.38 135.5 256.82 155.34"/><polygon class="cls-9" points="41.75 154.37 53.3 129.46 32.44 131.79 41.75 154.37"/><polygon class="cls-11" points="40.27 214.14 32.44 209.66 40.88 196.59 40.27 214.14"/><polygon class="cls-9" points="40.88 196.59 47.59 177.93 32.44 180.71 40.88 196.59"/><polygon class="cls-11" points="32.44 180.71 41.75 150.15 47.59 177.93 32.44 180.71"/><polygon class="cls-11" points="32.44 131.79 36.66 97.69 53.3 129.46 32.44 131.79"/><polygon class="cls-9" points="36.66 97.69 44.4 86.22 46.99 112 36.66 97.69"/><polygon class="cls-11" points="44.4 86.22 68.14 111.73 46.99 112 44.4 86.22"/><polygon class="cls-9" points="61.08 108.21 78.88 107.98 76.66 129.16 61.08 108.21"/><polygon class="cls-11" points="78.88 107.98 86.8 121.29 76.66 129.16 78.88 107.98"/><polygon class="cls-9" points="83.67 121.33 91.33 116.08 78.6 133.26 83.67 121.33"/><polygon class="cls-11" points="91.33 116.08 103.9 138.1 78.6 133.26 91.33 116.08"/><polygon class="cls-9" points="98.49 133.01 127.49 117.93 120.35 145.62 98.49 133.01"/><polygon class="cls-11" points="127.49 117.93 142.82 132.44 120.35 145.62 127.49 117.93"/><polygon class="cls-9" points="139.68 132.48 150.9 123.83 145.29 145.3 139.68 132.48"/><polygon class="cls-9" points="169.96 137.25 175.81 123.51 191.69 146.77 169.96 137.25"/><polygon class="cls-9" points="226.67 120.98 244.13 115.01 228.63 102.31 226.67 120.98"/><path class="cls-11" d="M244.13,115.01s12.53-18.63,11.74-18.62c-.79.01-27.23,5.92-27.23,5.92l15.49,12.7Z"/><path class="cls-9" d="M255.87,96.39s4.96,32.78,4.36,32.78-15.27,5.04-15.27,5.04l10.91-37.83Z"/><polygon class="cls-11" points="244.96 134.21 260.02 154.9 260.23 129.17 244.96 134.21"/><polygon class="cls-9" points="260.02 152.8 250.92 171.17 260.02 173.75 260.02 152.8"/><polygon class="cls-9" points="204.02 124.03 211.16 115.43 220.51 134.53 204.02 124.03"/><polygon class="cls-19" points="43.86 156.48 55.41 131.57 34.55 133.9 43.86 156.48"/><polygon class="cls-19" points="42.99 198.7 49.69 180.04 34.55 182.81 42.99 198.7"/><polygon class="cls-19" points="38.77 99.8 46.51 88.33 49.1 114.11 38.77 99.8"/><polygon class="cls-19" points="63.18 110.32 80.99 110.09 78.77 131.27 63.18 110.32"/><polygon class="cls-19" points="83.95 122.16 93.17 118.18 80.44 135.37 83.95 122.16"/><polygon class="cls-19" points="100.6 135.12 129.6 120.04 122.45 147.73 100.6 135.12"/><polygon class="cls-19" points="141.79 134.59 153.01 125.93 147.4 147.41 141.79 134.59"/><polygon class="cls-19" points="172.06 139.36 177.92 125.61 193.8 148.88 172.06 139.36"/><polygon class="cls-19" points="228.78 123.09 246.23 117.12 230.74 104.42 228.78 123.09"/><path class="cls-19" d="M257.97,98.5s4.96,32.78,4.36,32.78-15.27,5.04-15.27,5.04l10.91-37.83Z"/><polygon class="cls-19" points="262.13 154.9 253.03 173.28 262.13 175.86 262.13 154.9"/><polygon class="cls-19" points="206.13 126.14 213.27 117.54 222.62 136.64 206.13 126.14"/><polygon class="cls-11" points="211.16 115.43 230.2 117.51 220.51 134.53 211.16 115.43"/><polygon class="cls-11" points="191.69 146.77 207.16 123.1 175.81 123.51 191.69 146.77"/><polygon class="cls-11" points="150.9 123.83 173.9 137.2 145.29 145.3 150.9 123.83"/></g><g id="ZONE_4_B_-_copie"><g class="cls-1"><rect class="cls-5" x="-104.68" y="284.36" width="948.32" height="791"/><rect class="cls-26" x="-104.68" y="284.36" width="948.32" height="791"/><path class="cls-13" d="M-104.68,284.36v339.3c148.05,69.87,330.42,21.4,528.07,40.81,241.01,23.66,261.65,69.9,420.25,62.56v-442.68s-948.32,0-948.32,0Z"/><path class="cls-2" d="M-104.68,284.36v346.87c148.05,69.87,330.42-57.27,528.07-37.86,241.01,23.66,261.65,57.52,420.25,50.18v-359.19s-948.32,0-948.32,0Z"/></g></g><g id="BG_-_copie_6"><g class="cls-21"><g class="cls-20"><polygon class="cls-5" points="90.08 -131.55 90.08 -119.43 101.63 -119.43 101.63 119.2 275.51 119.2 275.51 -119.43 201.51 -125.49 201.51 -131.55 90.08 -131.55"/><rect class="cls-27" x="105.71" y="-126.88" width="99.88" height="244.69"/><line class="cls-8" x1="117.83" y1="107.23" x2="117.83" y2="117.81"/><line class="cls-8" x1="117.83" y1="87.02" x2="117.83" y2="28.13"/><line class="cls-8" x1="117.83" y1="9.57" x2="117.83" y2="-42.83"/><line class="cls-8" x1="148.61" y1="-115.62" x2="148.61" y2="87.02"/><polygon class="cls-17" points="117.83 24.59 148.61 41.19 205.59 41.19 205.59 24.59 117.83 24.59"/><rect class="cls-29" x="117.83" y="92.06" width="87.75" height="10.7"/><rect class="cls-29" x="117.83" y="13.9" width="87.75" height="10.7"/><rect class="cls-29" x="203.91" y="-126.88" width="73.07" height="244.69"/></g></g></g></g></svg>