<?xml version="1.0" encoding="UTF-8"?><svg id="bateau_00" xmlns="http://www.w3.org/2000/svg" xmlns:xlink="http://www.w3.org/1999/xlink" viewBox="0 0 300 300"><defs><style>.cls-1{fill:#ffd66e;}.cls-2{fill:#f4af13;}.cls-3{fill:#e86170;}.cls-4,.cls-5{fill:none;}.cls-6{filter:url(#drop-shadow-1);}.cls-7{fill:#fff;opacity:.75;}.cls-8{fill:#9bc8ec;}.cls-9{fill:#42496f;}.cls-10{clip-path:url(#clippath);}.cls-5{stroke:#336a9b;stroke-linecap:round;stroke-linejoin:round;stroke-width:.61px;}</style><clipPath id="clippath"><path class="cls-4" d="M27.11,60.22v165.95c1.89.35,3.97.55,6.16.55,5.08,0,9.57-1.04,12.41-2.65.14,0,.28-.01.41-.02,1.53,1.62,3.96,2.67,6.71,2.67s5.18-1.05,6.71-2.67c1.96,1.62,5.06,2.67,8.57,2.67,2.89,0,5.51-.71,7.43-1.87,2.25,1.16,5.31,1.87,8.68,1.87,2.91,0,5.58-.53,7.7-1.42.52.89,1.18,1.42,1.9,1.42s1.35-.52,1.87-1.38c2.11.86,4.74,1.38,7.61,1.38,3.75,0,7.1-.88,9.39-2.27,1.96,1.39,4.84,2.27,8.04,2.27,2.98,0,5.67-.76,7.61-1.97,2.27,1.22,5.41,1.97,8.89,1.97.15,0,.3-.02.45-.02.31,0,.61.02.93.02,5.08,0,9.57-1.04,12.41-2.65.14,0,.28-.01.41-.02,1.53,1.62,3.96,2.67,6.71,2.67s5.18-1.05,6.71-2.67c1.96,1.62,5.06,2.67,8.57,2.67,2.89,0,5.51-.71,7.43-1.87,2.25,1.16,5.31,1.87,8.68,1.87,2.91,0,5.58-.53,7.7-1.42.52.89,1.18,1.42,1.9,1.42s1.35-.52,1.87-1.38c2.11.86,4.74,1.38,7.61,1.38,3.75,0,7.1-.88,9.39-2.27,1.96,1.39,4.84,2.27,8.04,2.27,2.98,0,5.67-.76,7.61-1.97,2.27,1.22,5.41,1.97,8.89,1.97.62,0,1.23-.04,1.82-.08V60.22H27.11Z"/></clipPath><filter id="drop-shadow-1" x="98.62" y="112.24" width="98.87" height="116.46" filterUnits="userSpaceOnUse"><feOffset dx="-1.22" dy="0"/><feGaussianBlur result="blur" stdDeviation="0"/><feFlood flood-color="#42496f" flood-opacity="1"/><feComposite in2="blur" operator="in"/><feComposite in="SourceGraphic"/></filter></defs><g class="cls-10"><g class="cls-6"><path class="cls-1" d="M138.92,112.25h0c-.97.07-1.7.91-1.62,1.88l8.72,109.26,5.88-.4-11.12-109.17c-.1-.94-.92-1.63-1.86-1.57Z"/><polygon class="cls-9" points="146.02 223.39 151.91 222.98 150.91 213.26 145.33 214.78 146.02 223.39"/><path class="cls-9" d="M147.2,176.81l-.48-4.67-2.88.99s.7,2.11,3.36,3.68Z"/><rect class="cls-2" x="142.61" y="164.39" width="44.85" height="2.83" rx="1.42" ry="1.42" transform="translate(-45.07 62.93) rotate(-19.05)"/><path class="cls-8" d="M176.62,139.71c-.59.46-1.2.92-1.26.87-.13-.1.28-1.15.28-1.15,0,0-2.59,1.39-2.81.43-.14-.61,1.01-2.5,1.87-3.82-3.2-5.74-7.39-11.47-12.72-15.63-1.44,1.77-4.02,4.66-5.15,4.11-1.61-.79.58-6.47.58-6.47,0,0-2.82,3.86-3.65,3.46-.46-.22.76-2.74,1.94-4.94-4.64-2.1-9.94-3-15.98-2.01l5.07,56.74s4.8-3.75,12.1-7.28c.1-.72.24-1.61.45-2.55-.41-.11-.74-.46-.77-.92-.04-.57.39-1.06.96-1.1.12,0,.24.01.35.05.68-2.02,1.72-3.8,3.33-4.03,3.9-.53,4.3,4.43,4.3,4.43,0,0,1.01-2.05,3.45-2.25,1.06-.09,1.34.65,1.32,1.51,4.17-.98,8.6-1.5,13.07-1.18,0,0-2-8.66-6.73-18.28Z"/><path class="cls-7" d="M176.62,139.71c-.59.46-1.2.92-1.26.87-.13-.1.28-1.15.28-1.15,0,0-2.59,1.39-2.81.43-.14-.61,1.01-2.5,1.87-3.82-3.2-5.74-7.39-11.47-12.72-15.63-1.44,1.77-4.02,4.66-5.15,4.11-1.61-.79.58-6.47.58-6.47,0,0-2.82,3.86-3.65,3.46-.46-.22.76-2.74,1.94-4.94-4.64-2.1-9.94-3-15.98-2.01l5.07,56.74s4.8-3.75,12.1-7.28c.1-.72.24-1.61.45-2.55-.41-.11-.74-.46-.77-.92-.04-.57.39-1.06.96-1.1.12,0,.24.01.35.05.68-2.02,1.72-3.8,3.33-4.03,3.9-.53,4.3,4.43,4.3,4.43,0,0,1.01-2.05,3.45-2.25,1.06-.09,1.34.65,1.32,1.51,4.17-.98,8.6-1.5,13.07-1.18,0,0-2-8.66-6.73-18.28Z"/><rect class="cls-3" x="104.11" y="219.85" width="63.46" height="8.55"/><circle class="cls-8" cx="167.57" cy="224.12" r="4.27"/><circle class="cls-1" cx="104.11" cy="224.12" r="4.27"/><rect class="cls-3" x="112.66" y="219.85" width="63.46" height="8.55"/><circle class="cls-8" cx="176.12" cy="224.12" r="4.27"/><circle class="cls-1" cx="112.66" cy="224.12" r="4.27"/><rect class="cls-3" x="121.21" y="219.85" width="63.46" height="8.55"/><circle class="cls-8" cx="184.66" cy="224.12" r="4.27"/><circle class="cls-1" cx="121.21" cy="224.12" r="4.27"/><rect class="cls-3" x="129.72" y="219.85" width="63.46" height="8.55"/><circle class="cls-3" cx="193.21" cy="224.12" r="4.27"/><circle class="cls-1" cx="129.76" cy="224.12" r="4.27"/><path class="cls-5" d="M140.97,228.4c2.36,0,4.27-1.91,4.27-4.27s-1.91-4.27-4.27-4.27"/><path class="cls-5" d="M141.8,228.4c2.36,0,4.27-1.91,4.27-4.27s-1.91-4.27-4.27-4.27"/><path class="cls-5" d="M142.63,228.4c2.36,0,4.27-1.91,4.27-4.27s-1.91-4.27-4.27-4.27"/><path class="cls-5" d="M176.92,228.4c2.36,0,4.27-1.91,4.27-4.27s-1.91-4.27-4.27-4.27"/><path class="cls-5" d="M177.75,228.4c2.36,0,4.27-1.91,4.27-4.27s-1.91-4.27-4.27-4.27"/><path class="cls-5" d="M178.58,228.4c2.36,0,4.27-1.91,4.27-4.27s-1.91-4.27-4.27-4.27"/></g></g></svg>