<?xml version="1.0" encoding="UTF-8"?>
<svg id="b" data-name="bateau 00" xmlns="http://www.w3.org/2000/svg" width="300" height="300" xmlns:xlink="http://www.w3.org/1999/xlink" viewBox="0 0 300 300">
  <defs>
    <clipPath id="c">
      <path d="M27.111,60.224v165.947c1.89.35,3.973.545,6.164.545,5.076,0,9.57-1.043,12.415-2.649.138-.006.275-.012.413-.018,1.532,1.617,3.964,2.668,6.71,2.668s5.18-1.051,6.712-2.67c1.956,1.618,5.059,2.67,8.566,2.67,2.89,0,5.507-.714,7.435-1.87,2.251,1.156,5.308,1.87,8.683,1.87,2.909,0,5.578-.533,7.704-1.418.523.885,1.18,1.418,1.895,1.418.705,0,1.352-.518,1.871-1.38,2.11.862,4.742,1.38,7.607,1.38,3.747,0,7.1-.881,9.394-2.269,1.964,1.388,4.835,2.269,8.044,2.269,2.976,0,5.668-.755,7.61-1.972,2.268,1.217,5.412,1.972,8.888,1.972.154,0,.299-.017.451-.021.308.008.613.021.926.021,5.076,0,9.57-1.043,12.415-2.649.138-.006.275-.012.413-.018,1.532,1.617,3.964,2.668,6.71,2.668s5.18-1.051,6.712-2.67c1.956,1.618,5.059,2.67,8.566,2.67,2.89,0,5.507-.714,7.435-1.87,2.251,1.156,5.308,1.87,8.683,1.87,2.909,0,5.578-.533,7.704-1.418.523.885,1.18,1.418,1.895,1.418.705,0,1.352-.518,1.871-1.38,2.11.862,4.742,1.38,7.607,1.38,3.747,0,7.1-.881,9.394-2.269,1.964,1.388,4.835,2.269,8.044,2.269,2.976,0,5.668-.755,7.61-1.972,2.268,1.217,5.412,1.972,8.888,1.972.622,0,1.226-.036,1.824-.083V60.224H27.111Z" fill="none"/>
    </clipPath>
    <filter id="d" data-name="drop-shadow-1" x="98.616" y="112.245" width="98.872" height="116.459" filterUnits="userSpaceOnUse">
      <feOffset dx="-1.219" dy="0"/>
      <feGaussianBlur result="e" stdDeviation="0"/>
      <feFlood flood-color="#42496f" flood-opacity="1"/>
      <feComposite in2="e" operator="in"/>
      <feComposite in="SourceGraphic"/>
    </filter>
  </defs>
  <g clip-path="url(#c)">
    <g filter="url(#d)">
      <g>
        <path d="M138.922,112.249h0c-.971.067-1.7.913-1.623,1.883l8.722,109.258,5.885-.405-11.125-109.169c-.096-.938-.918-1.632-1.859-1.567Z" fill="#ffd66e"/>
        <g>
          <polygon points="146.021 223.39 151.905 222.985 150.915 213.265 145.333 214.781 146.021 223.39" fill="#42496f"/>
          <path d="M147.2,176.806l-.476-4.673-2.883.991s.697,2.108,3.359,3.682Z" fill="#42496f"/>
        </g>
        <rect x="142.613" y="164.391" width="44.85" height="2.831" rx="1.416" ry="1.416" transform="translate(-45.071 62.93) rotate(-19.045)" fill="#f4af13"/>
        <path d="M176.616,139.711c-.586.464-1.198.924-1.262.872-.125-.102.276-1.15.276-1.15,0,0-2.595,1.391-2.808.43-.135-.607,1.008-2.503,1.869-3.819-3.205-5.739-7.392-11.471-12.715-15.631-1.436,1.766-4.021,4.66-5.155,4.106-1.611-.788.584-6.467.584-6.467,0,0-2.819,3.863-3.651,3.456-.459-.225.76-2.736,1.943-4.941-4.635-2.104-9.941-2.997-15.983-2.008l5.067,56.743s4.805-3.749,12.103-7.283c.097-.722.239-1.61.45-2.551-.415-.11-.737-.463-.768-.915-.039-.569.39-1.062.959-1.101.124-.009.242.014.354.046.676-2.015,1.72-3.804,3.333-4.025,3.895-.534,4.296,4.434,4.296,4.434,0,0,1.012-2.05,3.452-2.248,1.059-.086,1.338.651,1.316,1.512,4.172-.98,8.597-1.498,13.073-1.185,0,0-1.998-8.656-6.735-18.276Z" fill="#9bc8ec"/>
        <path d="M176.616,139.711c-.586.464-1.198.924-1.262.872-.125-.102.276-1.15.276-1.15,0,0-2.595,1.391-2.808.43-.135-.607,1.008-2.503,1.869-3.819-3.205-5.739-7.392-11.471-12.715-15.631-1.436,1.766-4.021,4.66-5.155,4.106-1.611-.788.584-6.467.584-6.467,0,0-2.819,3.863-3.651,3.456-.459-.225.76-2.736,1.943-4.941-4.635-2.104-9.941-2.997-15.983-2.008l5.067,56.743s4.805-3.749,12.103-7.283c.097-.722.239-1.61.45-2.551-.415-.11-.737-.463-.768-.915-.039-.569.39-1.062.959-1.101.124-.009.242.014.354.046.676-2.015,1.72-3.804,3.333-4.025,3.895-.534,4.296,4.434,4.296,4.434,0,0,1.012-2.05,3.452-2.248,1.059-.086,1.338.651,1.316,1.512,4.172-.98,8.597-1.498,13.073-1.185,0,0-1.998-8.656-6.735-18.276Z" fill="#fff" opacity=".75"/>
      </g>
      <g>
        <rect x="104.11" y="219.849" width="63.456" height="8.549" fill="#e86170"/>
        <circle cx="167.566" cy="224.124" r="4.275" fill="#9bc8ec"/>
        <circle cx="104.11" cy="224.124" r="4.275" fill="#ffd66e"/>
      </g>
      <g>
        <rect x="112.66" y="219.849" width="63.456" height="8.549" fill="#e86170"/>
        <circle cx="176.115" cy="224.124" r="4.275" fill="#9bc8ec"/>
        <circle cx="112.66" cy="224.124" r="4.275" fill="#ffd66e"/>
      </g>
      <g>
        <rect x="121.209" y="219.849" width="63.456" height="8.549" fill="#e86170"/>
        <circle cx="184.665" cy="224.124" r="4.275" fill="#9bc8ec"/>
        <circle cx="121.209" cy="224.124" r="4.275" fill="#ffd66e"/>
      </g>
      <g>
        <rect x="129.716" y="219.849" width="63.456" height="8.549" fill="#e86170"/>
        <circle cx="193.214" cy="224.124" r="4.275" fill="#e86170"/>
        <circle cx="129.758" cy="224.124" r="4.275" fill="#ffd66e"/>
        <path d="M140.969,228.399c2.361,0,4.275-1.914,4.275-4.275s-1.914-4.275-4.275-4.275" fill="none" stroke="#336a9b" stroke-linecap="round" stroke-linejoin="round" stroke-width=".61"/>
        <path d="M141.8,228.399c2.361,0,4.275-1.914,4.275-4.275s-1.914-4.275-4.275-4.275" fill="none" stroke="#336a9b" stroke-linecap="round" stroke-linejoin="round" stroke-width=".61"/>
        <path d="M142.631,228.399c2.361,0,4.275-1.914,4.275-4.275s-1.914-4.275-4.275-4.275" fill="none" stroke="#336a9b" stroke-linecap="round" stroke-linejoin="round" stroke-width=".61"/>
        <path d="M176.921,228.399c2.361,0,4.275-1.914,4.275-4.275s-1.914-4.275-4.275-4.275" fill="none" stroke="#336a9b" stroke-linecap="round" stroke-linejoin="round" stroke-width=".61"/>
        <path d="M177.753,228.399c2.361,0,4.275-1.914,4.275-4.275s-1.914-4.275-4.275-4.275" fill="none" stroke="#336a9b" stroke-linecap="round" stroke-linejoin="round" stroke-width=".61"/>
        <path d="M178.584,228.399c2.361,0,4.275-1.914,4.275-4.275s-1.914-4.275-4.275-4.275" fill="none" stroke="#336a9b" stroke-linecap="round" stroke-linejoin="round" stroke-width=".61"/>
      </g>
    </g>
  </g>
</svg>