<?xml version="1.0" encoding="UTF-8"?>
<svg xmlns="http://www.w3.org/2000/svg" width="300" height="300" xmlns:xlink="http://www.w3.org/1999/xlink" viewBox="0 0 300 300">
  <defs>
    <linearGradient id="f" data-name="Dégradé sans nom 21" x1="150" y1="39.58" x2="150" y2="245.835" gradientUnits="userSpaceOnUse">
      <stop offset="0" stop-color="#9bc8ec"/>
      <stop offset="1" stop-color="#336a9b"/>
    </linearGradient>
    <linearGradient id="g" data-name="Dégradé sans nom 7" x1="128.357" y1="134.431" x2="128.357" y2="55.069" gradientUnits="userSpaceOnUse">
      <stop offset="0" stop-color="#ffd66e"/>
      <stop offset="1" stop-color="#fff" stop-opacity="0"/>
    </linearGradient>
    <linearGradient id="h" data-name="Dégradé sans nom 7" x1="37.871" y1="124.73" x2="37.871" y2="69.008" xlink:href="#g"/>
    <linearGradient id="i" data-name="Dégradé sans nom 7" x1="229.462" y1="126.082" x2="229.462" y2="55.162" xlink:href="#g"/>
    <radialGradient id="j" data-name="Dégradé sans nom 6" cx="125.531" cy="115.238" fx="125.531" fy="115.238" r="75.451" gradientUnits="userSpaceOnUse">
      <stop offset="0" stop-color="#ffd66e"/>
      <stop offset="1" stop-color="#ffd66e" stop-opacity="0"/>
    </radialGradient>
    <filter id="k" data-name="drop-shadow-3" x="26.31" y="87.663" width="269.811" height="143.637" filterUnits="userSpaceOnUse">
      <feOffset dx="-3" dy="0"/>
      <feGaussianBlur result="l" stdDeviation="0"/>
      <feFlood flood-color="#42496f" flood-opacity="1"/>
      <feComposite in2="l" operator="in"/>
      <feComposite in="SourceGraphic"/>
    </filter>
    <clipPath id="m">
      <rect x="37.999" y="108.815" width="208.781" height="116.557" fill="none"/>
    </clipPath>
    <clipPath id="n">
      <polygon points="206.237 230.348 178.248 97.753 268.131 97.729 296.121 230.324 206.237 230.348" fill="none"/>
    </clipPath>
  </defs>
  <g isolation="isolate">
    <g id="e" data-name="Calque 7">
      <g>
        <path d="M128.518,260.684c-.656.525-1.18.944-1.816,1.454-.002-.053.006.14.016.362-2.931-.289-3.047-2.189-.085-2.656,1.162-.424,1.188-1.596,1.653-2.842-1.337.514-2.241.437-3.5.649.23.806.818.782,1.327,1.325-.442.469-1.07.546-1.626.471-.148-.941-.938-2.291.113-2.99.992-.412-.168-1.552-.516-1.853-.529.256-1.021.887-.569,1.47.282.43.464.795-.108,1.217-1.092,3.016-2.776-.427-4.454-1.001.039-.173.12-.524.23-1.01-1.595.96-.827-2.929-2.682-.751-1.488-.964-1.973-4.458-3.912-3.996-.179.111-.661-.079-.79-.296-.723-2.378-2.929-3.399-3.704-5.593-.592-1.393-1.809-2.186-2.849-3.172-.096-.14-.68-.099-.789.054-.878,1.104-2.693.116-2.785-1.193-.279-.521-1.346-1.039-1.273-1.83-.909-1.047.042-.982.694-1.52-.654-.273-.797-.819-.787-1.594.168-.742-1.524-1.979-.359-2.372,1.336-.258.284-1.081.272-2.045-.916,1.315-1.856,2.096-3.374,1.897-.688.563-1.109.185-1.567-.242-1.18-1.3-2.956.43-4.009,1.287.095-3.463-4.299.837-6.001,1.097-.039-1.191-1.414-2.128-2.323-.951-2.062-.556-2.723-3.635-4.287-5.138-.323-1.413-2.198-1.056-2.285-2.409-.156-1.5-2.107-1.721-2.092-3.379-1.321-.541-1.025-2.34-1.976-3.166-1.633-2.105-5.95-4.733-5.265-7.454.822-.846.003-1.1-.554-1.62-.428-.931-.922-.039-1.629-.217,1.729-1.899-1.341-2.148,1.206-5.5.283-.826-.778-.595-1.018-.094-.634,1.138-1.54.982-2.418.865-.468-.505-.051-1.772-1.219-1.531-.079-.336-.158-.673-.242-1.026-1.138.278-1.773,1.474-.476,2.035-1.211,1.157-3.294,4.152-4.443,1.554-1.365.317-1.229-2.058-2.746-.867-.073-.644-.132-1.167-.198-1.757-.164.109-.372.247-.581.386-.327-.684-.351-1.652-1.423-1.494-.116-.881-.231-1.751-.363-2.748-.251.369-.423.622-.524.771-1.594-.364-1.925-2.045-2.772-3.249-.087.012-.175.025-.262.037-.059.309-.118.618-.176.927-.092-.004-.184-.009-.276-.013.251-3.125-2.621-4.068-3.527-6.697.247-.928.274-1.31-.283-2.062-.353.382-.677.731-1.12,1.21-.715-.529-.354-1.842-1.422-1.562-.305-1.25-.022-2.164.803-3.005-.898-1.006,1.429-3.206-.39-3.359-.1.431-.195.837-.289,1.243h-.198c.026-1.024.052-2.047.083-3.245,2.228,1.081,2.097-2.072,2.299-3.636-.888.657-1.507,1.85-2.589.962.161.276.321.552.561.964-.476.122-.89.227-1.166.298-.315-1.757.432-2.892,1.577-4.149.116.079.269.183.362.246,2.669-4.276,5.342-9.06,9.2-12.721-1.008-.824-1.528-2.525-.195-3.285.607.049,1.251.31,1.567.072.579-.72,1.043-1.698-.3-2.166-.005-1.262,1.67-2.65.473-3.759-.698-.782-.454-2.425-1.8-2.518-1.412-.427-2.158.854-3.367,1.238-1.176-.22-1.409.942-2.017,1.722-.713-.407-1.592-.524-2.065-1.123-.323-1.315-1.307-.914-2.364-1.148.257-.272.47-.499.695-.737-1.476-.416-1.142,1.089-.631,1.817-.319.265-.605.502-1.067.885-.132-.919.664-2.092-.446-2.483-1.838-.018-1.914-3.473-3.784-2.161.013-.291.025-.573.038-.859-1.026-.018-1.053-.899-1.593-1.528-2.105-1.733-1.487-1.156-2.103-3.663-.185.124-.358.24-.58.389-.591-.905-1.432-1.04-1.698-2.362-1.213-2.651-4.898-2.808-6.484-4.949-.537.078-.955.138-1.469.213,1.272-1.886.158-3.055.27-4.872.739-1.82,1.476-3.635,2.211-5.445l.328.029c-.078.911-.157,1.824-.253,2.945.748-.845.49-1.707.885-2.494.167.11.307.202.446.294.061-.031.123-.062.184-.093.024-1.396-1.702-.867-.56-2.271,7.453-14.059,13.257-28.847,21.249-42.57.416-.794.677-1.478,1.51-.524,1.599.513,1.665-2.167,3.27-2.027.395-.024.684-1.171.405-1.743-.067.295-.114.501-.174.765-.914.023-1.8.045-2.703.068.267-1.892,2.387-1.989,3.763-1.409,1.548-2.296,2.124-5.736,5.28-6.262-.128-.158-.243-.3-.493-.609,2.312-.548,4.197,2.337,6.115,1.743.405-.36.682-.274.75.283-.198.073-.394.145-.657.242,3.905,1.403,7.895,4.824,11.473,5.528.839,2.223,2.183-.542,3.152-1.378.478-.768,1.278-.068,1.854-.557,8.228-8.341,15.561-18.002,24.603-24.907.503-.009,1.463.214,1.784.753,1.693,1.173,2.268-3.5,6.273,1.057.609,1.055,2.226-.431,2.482.959.256,1.049,1.547.998,2.02,1.9,1.637.992,2.347,2.894,4.338,3.495.632.36.733.782,1.373-.019.106,1.302.281,1.396,1.282.698.072.375.14.73.208,1.085.314-.135.629-.269,1.031-.442-.439,6.396,22.598-22.136,25.572-23.78,1.48.322-.174,1.162.635,1.991.462.131.883-.638,1.229-.822,1.538-.305-.023,1.768,1.124,2.047.662.166.759,1.75,1.537.883.165.334.386.602.43.902.109.801,1.373.743,1.547.102.103-.853-.576-2.169.85-1.962.637.039.381,1.006.873,1.26-.232.371-.41.655-.587.939.399.114.798.228,1.316.376-.419,1.029-.377,1.196.642,1.617.214.927,1.126,1.35,1.806,1.876.781.647,1.514,1.881,2.761,1.809-.339,1.281,1.305.5,1.944.887-.952.898-.852,1.193.125,1.775-.024.059-.048.119-.072.178-.433-.047-.867-.095-1.467-.161.247.673,1.06.571.682,1.358-.063.673,1.12.842,1.684.388-.152.291-.243.465-.368.705.523-.037.19.934.884.65.387-.158.698-.504,1.012-.876-.992.603-1.23-.364-.368-.878,1.249.029,1.886-.796,2.596-1.61,1.07-1.213,1.987-1.931,3.576-1.218.385.336.725.678,1.245.077.938.851,1.841,1.67,2.744,2.49.074-.062.148-.123.221-.185-.184-.305-.368-.61-.646-1.072,1.762,1.191,3.595-.956,4.914.364.219,1.496,1.052,2.291,2.161,3.175.986.884.417,2.433,1.497,3.23.541.403.383,1.418,1.248.872,1.043-.742,1.891,1.196,1.29,1.995.388.074.683.13.933.178-.321.394-.604.741-.888,1.089.551.24-.469,1.265.672,1.232.073-.216.151-.445.223-.659.913.614,2.107,1.089,1.116,2.361.295.041.556.077.877.121-.048.215-.089.4-.104.468.365.332.676.615,1.028.935-.181.23-.344.437-.599.762.916-.241,1.697-.446,2.553-.671.015.29.023.458.032.626,2.323.5.425,4.077,0,5.576.074.052.149.103.223.155,1.484-1.271,2.256-3.22,3.565-4.673.076.044.152.089.227.133-.354.898-.822,1.76-.995,2.716.946-.031,1.368-.747,1.855-1.447,2.986,2.055,13.453-17.065,12.378-7.384.087.027.173.054.26.081,1.007-1.976,4.141-2.424,4.144.363-.089.82.673.51,1.185.457.544-.129.743.097.744.608-.076,1.808,4.136.475,3.639,2.974,1.968-.425,1.135,2.048,2.623,2.211.555-.004,1.11.341,1.684.538-.207.447-.399.861-.624,1.347,4.603.908,1.009.714,3.206,2.696,4.036,2.107.137,5.726-.386,8.911.081.038.163.075.244.113-.17.108-.339.216-.556.353.054.142.115.303.178.47-1.329.028-.632,1.175-1.276,1.972-.321.44-.48.745.071,1.122.668.781.562,2.085.836,3.034-.067-.055-.211-.173-.248-.203-.604,1.329.075,2.754-1.657,3.209-.188.697-.258,1.506-1.089,1.914-.288-.307-.534-.57-.78-.832-.125-.008-.251-.016-.376-.023.265,1.954-.79,3.176-1.659,4.828,1.138.901,2.75.742,3.576,1.715.124.186.242.565.334.555,1.319-.075,1.583,1.211,2.454,1.832.591-.61,1.144-1.182,1.713-1.77.238.172.427.308.616.444.048-.028.096-.056.144-.084-.117-.254-.234-.509-.391-.851,1.438-2.917,1.561.61,2.581-1.092.436.18-.193,1.077.629.852.118-.032.106-.544.179-.983,1.053-.009,1.315,1.424,2.557.348.066.712.033,1.053.194,1.618,1.547-.779,3.063-2.017,4.496-3.275.941-1.223,1.76-1.761,3.199-.691-.436.132-.686.207-.936.282-.005.062-.01.124-.015.186.346.062.693.125,1.096.197.032-.167.059-.307.093-.487,1.58.207.021,1.132.986,1.655.123-.188.235-.36.273-.418,1.713.338.941-1.515.902-2.536l.188-.009c1.184,1.012.929,3.135,2.168,3.765.438.038.761.131,1.068.46,1.322.756.669-1.41,1.333-1.741.757-.058,1.177.693,1.585,1.3-.6,1.797,2.049,2.618,3.048,3.826-1.421-.381-2.139-.076-.74,1.33.211-.322.332-.508.546-.835.33.605.462,1.048.981,1.412.3-.554.052-.965-.126-1.503.624.18,1.169.366.795,1.195.318,1.983,3.94-.737,3.106,2.007.824-.281,2.804.287,1.642,1.278-.12.088-.126.557-.006.696.154.179.575.35.729.261.794-.484,1.178.564,1.721.951.988,1.724-1.042,3.533-.898,5.094,1.101.486-.334,1.857-.98.811-.284.382-.449.703.177.794,1.479,1.672-2.275,5.96-3.39,7.953.335-.099.542-.16.835-.247.145.569.925,1.569-.012,1.83-.684.511-.244,1.432-.214,2.303.265.013,1.072-.383,1.289-.354.547.474,1.027.239,1.502-.05.514-.312.639-.05.716.427.731,2.179,1.073,4.397,1.897,6.476.27,1.188.649,3.124,1.989,3.418.326.892,1.729.968,1.485,2.31,2.383-.255,1.941,2.883,1.979,4.389,2.684,1.306-1.754,4.542-1.901,6.494-1.256.968-1.582,2.967-2.54,3.545-.507.307.116,1.644-.865,1.521-.732.774-1.123,1.804-1.897,2.938,3.081.385,5.915.74,8.741,1.094.027,1.535.811.335,1.595,1.171-.426.295-.733.508-1.02.707,1.055,1.114,1.789,3.499.013,4.159-1.112-.386-.681.458-.753,1.03.497-.164.915-.302,1.395-.461.89,1.074-1.652,1.759-.4,3.046.003,5.224-8.525,6.053-1.998,12.115-.553.858.736,1.453.317,2.293-.794,1.145-.515,2.3.939,2.55.028-.11.087-.34.15-.583.929.569,2.269,3.758,2.146,4.999.186-.029.422-.066.657-.103-.01.089-.019.177-.029.266-.168.181-.336.363-.503.544.02.084.04.169.06.253.361-.062.721-.124,1.215-.209-.555.628-.221,1.978-1.092,2.046-.134-.008-.277.267-.416.412.647.561,1.393-.01,2.115-.151.036.06.072.121.108.181-2.875,3.848-8.325,5.961-9.977,10.545-.12,1.452-.378.749-1.348.996.468.282,1.308.808.568,1.27-.702.412.055,1.075-.235,1.727-.08.003-.159.006-.239.009-.111-.181-.222-.362-.473-.769-2.535,9.115-13.535,9.881-20.146,14.923-4.338,3.697-8.696,7.607-13.542,10.54-.95,1.548-4.451,4.488-5.633,1.997.215-.094.42-.184.839-.367-.477-.299-.791-.495-1.234-.772.133,1.026-.895,2.944-.564,1.013-1.11-.534-.132-1.815-.71-2.937-.369.815-.65,1.435-.932,2.057-1.309-.671-.136-3.346-1.672-3.526-.619.944-1.062.549-1.482-.282-.275.497-.495.894-.733,1.325-2.996-3.155-9.014,6.16-12.286,5.612-1.778.171-3.182,3.452-5.082,2.611-8.225-2.038-25.62,21.419-30.459,17.336.255-.11.489-.211.943-.407-.45-.327-.754-.548-1.112-.809-1.153,2.262-1.245-.607-1.145-1.662-.09-.028-.181-.057-.271-.085-.337.601-.673,1.203-1.005,1.795-1.49-.2.051-4.403-1.634-3.53-.827,1.205-.841.063-1.523-.293-.165.398-.319.771-.464,1.123-1.907-1.579-4.045.794-6.265.307-.75.351-2.481,1.105-2.237-.551.654-.694,1.361-3.64-.338-2.856-.634-1.008-.561-1.294.354-1.504-.117-1.322-.466-1.825-1.441-.655.158-2.195-1.598-3.113-1.048-5.072.145-.492-.391-1.306-.242-1.808.708-1.358-.302-1.964-.826-2.765-1.77-.678-2.394-2.022-3.218-3.74-.605.477-1.231.97-1.911,1.506.026-.263.046-.474.069-.711-1.958.422-.792,1.87-2.123,3.158-.437-1.896,1.167-3.199,1.073-5.052-6.887,8.164-13.12,18.759-20.141,25.766ZM270.759,163.95c.788.836-.165,1.26.796,1.663.224-.787,1.353-1.193.566-2.269-.2.1-.387.193-.573.286-.126-.06-.252-.12-.379-.179.204-.248.407-.496.609-.741-1.285-1.507-1.102.299-1.019,1.24ZM43.148,181.263c-.405.551-.81,1.104-1.215,1.655.382.213.817.456,1.257.701.894-.937.89-1.668-.042-2.356ZM271.456,171.168c-.204-.087-.407-.174-.611-.261.315-.455.63-.91.913-1.319-.229-.156-.504-.344-.777-.531q-.514.441.017.969c-.259.174-.517.348-.775.521-.008.112-.016.223-.025.335.419.095.838.19,1.258.286ZM269.664,161.092c-.293.571-.511.996-.819,1.597.974-.255,2.12-1.055.819-1.597ZM224.354,93.851c-.064.021-.129.043-.193.064-.082.584-.164,1.169-.254,1.811.274-.126.505-.233.828-.382-.125-.49-.253-.992-.381-1.493ZM177.434,52.077c-.779.465-.795.731-.095,1.313.033-.452.061-.834.095-1.313ZM48.16,84.512c.595.141.942.158.976-.448-.392-.5-.63.017-.976.448ZM41.663,187.958c-.43.861-.35,1.03.436,1.14-.163-.427-.299-.784-.436-1.14ZM270.406,167.896c.141.011.283.022.424.034.006-.377.011-.753.017-1.129-.11-.009-.22-.018-.33-.027-.037.374-.074.748-.111,1.122ZM82.328,232.212c-.03.355-.06.71-.099,1.174.852-.457.771-.821.099-1.174Z" fill="url(#f)"/>
        <g>
          <polygon points="73.745 118.086 29.31 48.011 227.404 48.011 194.477 127.373 73.745 118.086" fill="url(#g)"/>
          <polygon points="64.472 119.775 23.647 64.052 11.269 79.906 53.483 119.775 64.472 119.775" fill="url(#h)"/>
          <polygon points="205.133 119.775 237.184 48.855 253.792 53.39 212.995 119.775 205.133 119.775" fill="url(#i)"/>
        </g>
        <circle cx="125.531" cy="115.238" r="75.451" fill="url(#j)"/>
        <g>
          <g>
            <path d="M96.308,114.953c.177.95-.603,1.588-1.203,1.606-.716.021-1.338-.491-1.399-1.185-.064-.731.466-1.366,1.202-1.435.118-.011.238-.003.357-.011,1.003-.068,1.074,0,1.043,1.025Z" fill="#e86170"/>
            <path d="M77.001,107.394c.651-.006,1.181.509,1.202,1.165.021.69-.509,1.236-1.19,1.225-.643-.01-1.175-.548-1.182-1.194-.006-.644.529-1.191,1.17-1.197Z" fill="#e86170"/>
            <path d="M82.463,120.59c.546-.001.865.353.882.976.016.6-.441,1.089-1.019,1.09-.562.001-1.01-.458-1.008-1.032.002-.602.479-1.033,1.146-1.034Z" fill="#e86170"/>
            <path d="M86.907,126.487c-.562-.011-.987-.445-.971-.992.015-.542.468-.966,1.019-.955.596.011,1.06.455,1.045,1-.016.548-.49.959-1.092.947Z" fill="#e86170"/>
            <path d="M88.587,112.144c.544-.003,1,.438,1.009.975.01.546-.432.993-.98.995-.557.002-.993-.422-1.002-.975-.01-.558.415-.992.973-.996Z" fill="#e86170"/>
            <path d="M99.329,123.711c.517.015.928.47.899.996-.027.501-.443.893-.947.891-.532-.002-.94-.425-.927-.964.013-.527.447-.939.974-.924Z" fill="#e86170"/>
            <path d="M72.164,111.766c.018-.512.419-.894.935-.889.537.005.941.43.919.968-.021.509-.431.899-.937.894-.535-.006-.936-.431-.917-.972Z" fill="#e86170"/>
            <path d="M94.167,126.175c-.485-.015-.853-.389-.826-.838.029-.465.456-.863.916-.851.473.012.819.377.809.854-.01.492-.396.85-.899.835Z" fill="#e86170"/>
            <path d="M79.35,103.407c.138.002.279-.011.414.009.418.061.646.311.598.734-.048.428-.343.608-.754.577-.215-.016-.423-.102-.638-.124-.395-.041-.646-.228-.621-.639.026-.42.315-.559.703-.543.099.004.198.003.297.005,0-.006,0-.011,0-.017Z" fill="#e86170"/>
            <path d="M78.244,126.086c-.469.006-.861-.358-.863-.801-.002-.449.427-.865.892-.865.438,0,.836.409.825.847-.011.451-.389.813-.854.818Z" fill="#e86170"/>
            <path d="M94.387,101.56c-.012-.517.289-.891.737-.916.421-.023.805.345.818.784.013.441-.608,1.074-1.046,1.065-.346-.007-.494-.278-.509-.933Z" fill="#e86170"/>
            <path d="M98.45,106.684c-.462-.018-.824-.413-.781-.883.045-.491.335-.76.826-.774.472-.014.826.369.812.847-.014.473-.39.829-.857.81Z" fill="#e86170"/>
            <path d="M87.588,98.763c.443.025.809.446.784.902-.025.465-.375.782-.831.753-.462-.029-.82-.429-.793-.884.026-.432.422-.795.84-.771Z" fill="#e86170"/>
            <path d="M81.873,109.187c.005-.432.374-.805.801-.81.448-.005.825.398.804.862-.02.438-.396.792-.826.777-.426-.015-.785-.397-.78-.829Z" fill="#e86170"/>
            <path d="M92.53,108.983c-.055.379-.289.639-.737.647-.41.007-.781-.373-.746-.771.039-.438.308-.685.743-.704.404-.018.756.37.739.829Z" fill="#e86170"/>
            <path d="M75.916,116.427c-.259.185-.498.478-.781.53-.423.079-.661-.255-.667-.664-.006-.421.272-.732.667-.679.279.038.523.342.782.527v.285Z" fill="#e86170"/>
            <path d="M87.477,118.881c.372-.318.565-.574.812-.649.098-.03.433.327.457.531.043.362-.218.606-.607.541-.173-.029-.322-.198-.662-.423Z" fill="#e86170"/>
            <path d="M79.911,120.624c-.227-.346-.463-.549-.442-.719.022-.181.289-.333.449-.497.159.165.427.319.446.499.019.172-.221.373-.453.717Z" fill="#e86170"/>
            <path d="M79.455,113.527c.212.319.43.503.414.663-.017.168-.259.313-.403.468-.161-.16-.411-.3-.452-.485-.03-.137.215-.334.44-.646Z" fill="#e86170"/>
            <path d="M76.595,101.103c.224.341.45.536.423.687-.029.168-.272.376-.452.412-.106.021-.377-.253-.384-.402-.007-.172.196-.352.413-.696Z" fill="#e86170"/>
            <path d="M84.11,107.159c.333-.205.525-.418.678-.393.166.027.295.277.441.429-.155.146-.299.39-.467.408-.153.016-.332-.213-.652-.444Z" fill="#e86170"/>
            <path d="M87.979,106.336c.285-.202.45-.41.591-.394.149.016.381.244.382.381.001.138-.225.369-.375.389-.14.019-.311-.184-.599-.376Z" fill="#e86170"/>
            <path d="M75.288,120.491c.29-.196.449-.386.603-.383.134.003.385.249.366.347-.032.168-.214.395-.368.427-.129.027-.309-.19-.601-.392Z" fill="#e86170"/>
            <path d="M73.946,117.5c-.298.195-.471.397-.613.377-.157-.021-.286-.247-.427-.383.142-.136.272-.361.428-.38.144-.017.315.187.612.386Z" fill="#e86170"/>
            <path d="M98.707,113.04c.232-.157.405-.357.512-.327.157.044.267.254.397.393-.148.122-.285.318-.448.342-.108.016-.252-.213-.461-.408Z" fill="#e86170"/>
            <path d="M100.74,121.55c-.15-.26-.34-.446-.304-.561.048-.153.272-.251.42-.372.103.145.292.294.286.434-.006.14-.207.271-.402.499Z" fill="#e86170"/>
            <path d="M80.555,115.779c.166.221.355.365.335.47-.028.152-.208.275-.323.41-.116-.133-.297-.252-.327-.403-.022-.107.159-.254.315-.478Z" fill="#e86170"/>
            <path d="M84.613,117.083c.157.217.309.341.324.479.01.085-.22.293-.285.272-.137-.045-.29-.188-.331-.323-.025-.082.146-.224.292-.428Z" fill="#e86170"/>
          </g>
          <g>
            <path d="M143.787,103.655c.619,1.598-.53,2.965-1.571,3.192-1.24.27-2.492-.418-2.825-1.606-.351-1.252.366-2.533,1.624-2.894.202-.058.414-.083.619-.136,1.726-.447,1.872-.35,2.153,1.445Z" fill="#e86170"/>
            <path d="M107.673,96.801c1.132-.223,2.225.5,2.475,1.637.263,1.195-.482,2.32-1.673,2.525-1.123.193-2.227-.57-2.45-1.693-.222-1.12.531-2.248,1.648-2.468Z" fill="#e86170"/>
            <path d="M121.508,118.008c.95-.18,1.623.332,1.856,1.412.224,1.041-.412,2.041-1.419,2.233-.979.186-1.91-.467-2.094-1.469-.193-1.05.497-1.956,1.658-2.176Z" fill="#e86170"/>
            <path d="M131.181,126.829c-.983.164-1.865-.453-2.017-1.411-.151-.949.499-1.836,1.463-1.998,1.043-.175,1.996.446,2.147,1.401.152.96-.539,1.832-1.593,2.008Z" fill="#e86170"/>
            <path d="M129.416,101.287c.947-.183,1.886.436,2.078,1.369.195.947-.427,1.872-1.382,2.054-.97.185-1.868-.411-2.065-1.371-.199-.968.399-1.865,1.369-2.053Z" fill="#e86170"/>
            <path d="M151.918,117.928c.906-.143,1.77.515,1.893,1.442.117.882-.48,1.701-1.359,1.863-.928.171-1.777-.434-1.93-1.376-.15-.923.472-1.782,1.395-1.928Z" fill="#e86170"/>
            <path d="M100.675,106.002c-.137-.898.438-1.694,1.338-1.855.938-.167,1.781.442,1.918,1.385.13.894-.456,1.708-1.341,1.864-.934.164-1.771-.444-1.916-1.394Z" fill="#e86170"/>
            <path d="M143.729,123.911c-.849.133-1.614-.398-1.713-1.19-.102-.82.513-1.653,1.317-1.782.828-.134,1.55.389,1.689,1.223.143.861-.411,1.611-1.293,1.749Z" fill="#e86170"/>
            <path d="M110.461,89.086c.242-.042.482-.11.725-.12.749-.031,1.227.331,1.282,1.082.056.762-.4,1.171-1.125,1.252-.379.042-.771-.039-1.153-.007-.702.058-1.2-.185-1.29-.911-.092-.74.367-1.078,1.048-1.177.173-.025.346-.059.518-.089-.002-.01-.003-.02-.005-.029Z" fill="#e86170"/>
            <path d="M115.955,128.965c-.815.163-1.617-.342-1.766-1.113-.151-.781.461-1.647,1.271-1.799.763-.143,1.591.439,1.715,1.207.127.789-.413,1.543-1.22,1.705Z" fill="#e86170"/>
            <path d="M136.058,80.948c-.19-.898.213-1.648.985-1.837.726-.177,1.515.338,1.682,1.098.168.765-.707,2.07-1.474,2.198-.605.101-.952-.323-1.192-1.459Z" fill="#e86170"/>
            <path d="M144.815,88.546c-.81.119-1.571-.451-1.649-1.283-.082-.87.335-1.433,1.186-1.619.818-.178,1.56.373,1.691,1.21.13.829-.409,1.572-1.229,1.693Z" fill="#e86170"/>
            <path d="M123.297,78.299c.78-.101,1.555.513,1.661,1.316.108.818-.398,1.485-1.202,1.584-.815.1-1.57-.478-1.671-1.281-.096-.761.474-1.524,1.212-1.619Z" fill="#e86170"/>
            <path d="M116.749,98.332c-.132-.755.389-1.525,1.131-1.673.779-.156,1.568.424,1.683,1.238.109.77-.431,1.51-1.184,1.624-.747.113-1.498-.435-1.63-1.19Z" fill="#e86170"/>
            <path d="M135.251,94.489c.028.679-.294,1.209-1.072,1.368-.713.146-1.483-.395-1.551-1.099-.075-.776.312-1.295,1.064-1.471.697-.163,1.438.397,1.559,1.202Z" fill="#e86170"/>
            <path d="M108.738,112.897c-.39.407-.711.995-1.188,1.18-.711.276-1.235-.229-1.379-.938-.149-.731.235-1.364.94-1.401.499-.026,1.023.424,1.535.662l.092.497Z" fill="#e86170"/>
            <path d="M129.685,113.389c.544-.676.796-1.184,1.203-1.397.161-.084.862.428.971.776.193.616-.182,1.128-.881,1.141-.31.006-.625-.24-1.292-.52Z" fill="#e86170"/>
            <path d="M117.071,118.902c-.508-.529-.987-.804-1.006-1.109-.021-.323.394-.674.619-1.013.332.236.848.416.941.724.089.294-.264.722-.554,1.398Z" fill="#e86170"/>
            <path d="M113.955,106.686c.474.487.915.736.939,1.02.025.298-.349.63-.548.948-.332-.226-.815-.387-.946-.698-.097-.229.266-.652.556-1.27Z" fill="#e86170"/>
            <path d="M104.906,85.973c.501.522.959.787.963,1.058.004.302-.351.743-.654.866-.178.072-.74-.317-.801-.575-.069-.297.226-.678.492-1.348Z" fill="#e86170"/>
            <path d="M119.983,94.066c.512-.467.777-.901,1.053-.907.298-.007.605.385.908.603-.222.304-.393.777-.68.864-.261.079-.649-.263-1.28-.56Z" fill="#e86170"/>
            <path d="M126.455,91.367c.43-.445.65-.861.901-.881.266-.021.744.3.791.539.047.239-.272.716-.526.801-.238.079-.602-.218-1.166-.459Z" fill="#e86170"/>
            <path d="M108.974,120.184c.441-.436.656-.82.926-.864.235-.038.752.309.752.485,0,.304-.243.759-.502.865-.216.089-.6-.229-1.176-.486Z" fill="#e86170"/>
            <path d="M105.657,115.411c-.456.437-.691.846-.945.858-.28.014-.579-.336-.869-.528.202-.282.356-.719.621-.802.245-.078.61.222,1.193.472Z" fill="#e86170"/>
            <path d="M147.343,99.537c.353-.35.588-.754.786-.737.288.026.548.355.82.555-.218.262-.393.647-.669.742-.184.063-.509-.289-.937-.56Z" fill="#e86170"/>
            <path d="M153.669,113.7c-.347-.405-.739-.666-.713-.878.034-.282.392-.526.611-.786.228.219.605.416.64.663.035.246-.272.541-.538,1.001Z" fill="#e86170"/>
            <path d="M116.608,110.25c.362.33.738.52.738.71,0,.273-.273.547-.429.821-.246-.193-.599-.343-.702-.595-.073-.179.194-.495.393-.936Z" fill="#e86170"/>
            <path d="M124.107,111.195c.345.327.649.493.722.729.045.145-.287.583-.408.567-.253-.033-.566-.233-.683-.455-.071-.135.18-.438.369-.842Z" fill="#e86170"/>
          </g>
          <g>
            <path d="M178.418,114.172c-.021,1.199-1.127,1.781-1.861,1.653-.875-.153-1.505-.929-1.406-1.788.104-.904.907-1.545,1.817-1.446.147.016.29.056.437.075,1.237.166,1.305.268,1.013,1.505Z" fill="#e86170"/>
            <path d="M156.827,100.185c.792.155,1.31.912,1.171,1.715-.146.844-.926,1.376-1.751,1.194-.779-.171-1.293-.958-1.14-1.745.152-.784.939-1.317,1.72-1.164Z" fill="#e86170"/>
            <path d="M160.187,117.584c.663.134.964.644.829,1.406-.13.734-.806,1.214-1.51,1.072-.683-.138-1.114-.808-.969-1.505.153-.731.839-1.136,1.65-.972Z" fill="#e86170"/>
            <path d="M164.124,125.857c-.68-.153-1.089-.786-.934-1.447.153-.655.809-1.058,1.476-.908.722.162,1.175.817,1.021,1.475-.155.663-.834,1.044-1.563.88Z" fill="#e86170"/>
            <path d="M169.731,108.839c.662.132,1.107.781.985,1.437-.124.665-.772,1.1-1.439.966-.677-.137-1.102-.76-.976-1.434.127-.68.752-1.103,1.43-.968Z" fill="#e86170"/>
            <path d="M179.915,125.57c.625.146,1.011.802.846,1.435-.158.602-.761.975-1.373.848-.647-.135-1.037-.751-.887-1.402.147-.638.777-1.03,1.414-.881Z" fill="#e86170"/>
            <path d="M149.861,104.297c.149-.618.732-.982,1.358-.848.652.139,1.038.757.877,1.405-.152.613-.747.986-1.361.853-.649-.14-1.03-.756-.873-1.41Z" fill="#e86170"/>
            <path d="M173.026,127.282c-.586-.138-.941-.684-.796-1.224.151-.559.769-.935,1.325-.807.572.132.902.662.771,1.239-.135.596-.692.935-1.301.792Z" fill="#e86170"/>
            <path d="M160.674,95.922c.168.037.341.056.501.114.493.178.708.539.545,1.04-.165.509-.568.653-1.06.514-.257-.073-.489-.229-.745-.31-.47-.148-.729-.437-.595-.932.136-.504.522-.602.99-.486.119.03.24.053.359.079.001-.007.003-.014.004-.02Z" fill="#e86170"/>
            <path d="M153.693,123.216c-.571-.11-.957-.649-.85-1.188.108-.546.734-.945,1.299-.83.532.109.915.705.792,1.235-.126.545-.675.891-1.242.782Z" fill="#e86170"/>
            <path d="M179.412,97.414c.114-.632.573-1.012,1.124-.93.517.077.892.619.799,1.156-.093.54-1.006,1.154-1.536,1.035-.419-.094-.531-.461-.387-1.261Z" fill="#e86170"/>
            <path d="M183.078,104.653c-.557-.137-.899-.707-.729-1.268.177-.585.596-.84,1.197-.735.577.101.912.654.776,1.231-.135.572-.68.91-1.244.772Z" fill="#e86170"/>
            <path d="M171.842,92.325c.532.141.872.743.729,1.292-.146.559-.65.857-1.197.709-.554-.151-.891-.725-.744-1.272.139-.519.71-.862,1.213-.729Z" fill="#e86170"/>
            <path d="M162.304,103.576c.114-.524.655-.885,1.175-.785.546.105.904.689.763,1.247-.133.528-.678.865-1.197.74-.514-.124-.856-.678-.742-1.202Z" fill="#e86170"/>
            <path d="M175.31,105.976c-.161.447-.51.706-1.056.603-.5-.094-.857-.648-.715-1.122.157-.523.544-.756,1.078-.672.495.079.827.637.693,1.191Z" fill="#e86170"/>
            <path d="M153.263,110.896c-.361.161-.724.457-1.081.451-.533-.009-.74-.475-.646-.973.097-.513.513-.822.979-.659.33.115.551.545.82.835l-.072.346Z" fill="#e86170"/>
            <path d="M166.707,116.752c.531-.294.829-.557,1.148-.587.127-.012.445.505.424.76-.038.45-.416.683-.872.506-.203-.078-.342-.321-.7-.679Z" fill="#e86170"/>
            <path d="M157.076,116.991c-.189-.477-.427-.782-.359-.984.072-.215.434-.333.669-.493.152.241.44.494.419.718-.02.214-.362.398-.729.76Z" fill="#e86170"/>
            <path d="M158.286,108.251c.179.441.398.719.339.909-.062.2-.393.316-.606.469-.156-.234-.426-.467-.429-.703-.002-.174.344-.352.696-.676Z" fill="#e86170"/>
            <path d="M157.896,92.437c.187.47.413.763.344.94-.077.197-.424.389-.652.388-.134,0-.396-.401-.367-.584.034-.211.326-.38.675-.744Z" fill="#e86170"/>
            <path d="M165.527,101.666c.455-.167.742-.378.922-.31.195.074.29.41.429.631-.224.139-.46.4-.669.38-.19-.018-.351-.342-.682-.701Z" fill="#e86170"/>
            <path d="M170.435,101.628c.396-.175.649-.386.817-.333.178.057.403.391.37.558-.033.167-.365.392-.553.38-.175-.011-.332-.3-.634-.605Z" fill="#e86170"/>
            <path d="M151.49,115.681c.401-.166.642-.358.828-.315.162.037.406.399.359.513-.08.197-.358.427-.554.428-.164,0-.328-.307-.633-.626Z" fill="#e86170"/>
            <path d="M150.602,111.711c-.411.163-.671.365-.839.306-.185-.065-.286-.371-.424-.572.206-.13.421-.372.615-.356.179.015.337.305.649.621Z" fill="#e86170"/>
            <path d="M181.811,112.443c.321-.133.581-.333.704-.27.18.093.261.375.385.577-.21.112-.426.315-.629.304-.136-.008-.254-.322-.459-.611Z" fill="#e86170"/>
            <path d="M182.166,123.294c-.118-.354-.303-.627-.23-.758.096-.174.393-.237.603-.348.09.202.282.43.24.599-.042.168-.319.278-.613.507Z" fill="#e86170"/>
            <path d="M159.063,111.261c.147.31.341.532.29.655-.072.177-.321.283-.495.419-.108-.19-.298-.381-.298-.571,0-.135.256-.27.502-.503Z" fill="#e86170"/>
            <path d="M163.673,113.856c.137.303.29.491.275.663-.009.106-.34.302-.415.259-.155-.088-.305-.301-.322-.475-.01-.106.233-.236.462-.448Z" fill="#e86170"/>
          </g>
          <g>
            <path d="M185.836,145.578c-.672-.196-.83-.909-.645-1.303.221-.469.755-.704,1.223-.517.493.198.731.748.535,1.246-.031.08-.076.155-.11.234-.284.671-.352.694-1.004.339Z" fill="#e86170"/>
            <path d="M197.037,135.571c-.209.422-.715.597-1.146.396-.453-.212-.632-.733-.403-1.17.216-.412.739-.581,1.158-.374.418.206.597.731.391,1.148Z" fill="#e86170"/>
            <path d="M186.72,134.786c-.178.353-.511.444-.919.251-.393-.186-.56-.641-.371-1.015.183-.364.626-.503.997-.314.388.198.511.648.294,1.079Z" fill="#e86170"/>
            <path d="M181.455,135.729c.191-.36.611-.492.959-.303.345.187.471.618.284.971-.202.382-.641.536-.988.348-.349-.189-.46-.63-.255-1.016Z" fill="#e86170"/>
            <path d="M190.177,141.507c-.176.352-.61.503-.961.333-.356-.172-.501-.604-.323-.959.181-.361.598-.503.958-.329.364.176.506.593.325.954Z" fill="#e86170"/>
            <path d="M179.187,144.667c-.179.329-.607.446-.938.255-.315-.181-.432-.579-.266-.904.175-.344.582-.468.926-.284.336.181.461.596.278.932Z" fill="#e86170"/>
            <path d="M195.793,131.014c.325.179.441.563.269.895-.179.346-.586.468-.926.278-.322-.18-.441-.573-.271-.898.179-.344.584-.464.928-.275Z" fill="#e86170"/>
            <path d="M179.282,140.524c.168-.309.53-.425.812-.26.291.171.408.577.251.87-.162.302-.512.406-.816.244-.315-.168-.42-.534-.246-.854Z" fill="#e86170"/>
            <path d="M198.846,138.393c-.047.089-.084.184-.141.265-.176.25-.412.316-.67.147-.261-.171-.28-.421-.126-.676.081-.133.204-.24.289-.372.156-.242.358-.343.616-.192.263.154.258.387.121.632-.035.062-.067.127-.1.19.004.002.007.004.011.006Z" fill="#e86170"/>
            <path d="M184.548,130.261c.15-.305.513-.439.8-.296.291.145.419.559.267.86-.143.283-.538.407-.818.256-.287-.155-.398-.517-.25-.82Z" fill="#e86170"/>
            <path d="M195.121,148.717c.338.162.482.479.351.776-.123.28-.486.407-.774.272-.29-.136-.495-.744-.346-1.025.118-.222.341-.228.77-.024Z" fill="#e86170"/>
            <path d="M190.481,149.668c.163-.292.537-.397.826-.216.303.19.382.465.23.787-.145.31-.509.413-.813.248-.301-.164-.408-.523-.243-.819Z" fill="#e86170"/>
            <path d="M199.153,145.237c-.161.278-.553.377-.84.212-.292-.168-.383-.498-.215-.783.17-.289.545-.39.831-.224.271.158.376.533.224.795Z" fill="#e86170"/>
            <path d="M194.284,138.134c.277.145.398.505.261.783-.143.291-.527.403-.82.238-.277-.156-.383-.515-.232-.788.149-.27.513-.378.791-.233Z" fill="#e86170"/>
            <path d="M190.931,145.089c-.227-.16-.319-.396-.177-.688.13-.267.497-.383.742-.23.27.169.342.423.212.711-.12.267-.486.368-.777.207Z" fill="#e86170"/>
            <path d="M191.553,131.915c-.035-.228-.146-.478-.087-.678.087-.299.381-.344.647-.214.274.134.384.415.221.653-.116.168-.392.226-.596.333l-.184-.094Z" fill="#e86170"/>
            <path d="M186.186,138.585c.084.344.186.552.154.737-.013.073-.353.173-.493.122-.248-.091-.321-.339-.151-.569.075-.102.233-.143.49-.29Z" fill="#e86170"/>
            <path d="M187.533,133.124c.298-.033.506-.12.61-.051.11.074.121.295.175.453-.159.049-.346.172-.469.125-.117-.044-.168-.265-.316-.527Z" fill="#e86170"/>
            <path d="M192.27,135.151c-.276.033-.466.114-.564.051-.103-.066-.118-.27-.171-.413.156-.052.328-.168.462-.133.098.025.145.248.274.496Z" fill="#e86170"/>
            <path d="M201.236,137.365c-.294.033-.493.115-.582.049-.099-.074-.154-.299-.118-.427.021-.076.287-.161.385-.117.113.051.164.242.315.495Z" fill="#e86170"/>
            <path d="M194.864,140.243c.024.282.099.476.033.567-.072.098-.275.1-.421.144-.044-.148-.154-.321-.111-.435.039-.104.246-.145.5-.276Z" fill="#e86170"/>
            <path d="M194.13,143.012c.037.25.118.425.062.511-.059.091-.282.167-.371.123-.089-.044-.165-.266-.129-.37.033-.097.22-.141.439-.264Z" fill="#e86170"/>
            <path d="M189.131,130.18c.032.251.103.417.05.515-.046.086-.287.167-.344.123-.099-.076-.186-.267-.156-.378.025-.092.224-.138.45-.26Z" fill="#e86170"/>
            <path d="M191.503,130.291c-.029-.256-.103-.434-.043-.52.065-.094.253-.104.387-.151.041.136.145.294.106.401-.036.099-.224.143-.45.27Z" fill="#e86170"/>
            <path d="M186.288,147.755c.026.202.098.378.044.438-.08.087-.251.089-.384.128-.031-.136-.112-.288-.074-.401.025-.075.22-.093.415-.165Z" fill="#e86170"/>
            <path d="M180.122,146.286c.218-.012.4-.074.462-.013.083.081.073.258.103.393-.128.019-.285.093-.374.043-.088-.05-.108-.223-.191-.423Z" fill="#e86170"/>
            <path d="M190.454,135.125c-.197.035-.352.11-.414.063-.089-.068-.11-.224-.16-.343.124-.032.26-.109.367-.08.076.021.112.186.206.36Z" fill="#e86170"/>
            <path d="M188.284,137.322c-.192.031-.321.088-.416.053-.058-.022-.118-.238-.082-.273.074-.074.216-.126.317-.108.061.011.097.167.181.329Z" fill="#e86170"/>
          </g>
        </g>
        <g filter="url(#k)">
          <rect x="37.999" y="108.815" width="208.781" height="116.363" fill="#efa78e"/>
          <g clip-path="url(#m)">
            <g mix-blend-mode="multiply" opacity=".25">
              <line x1="30.89" y1="134.532" x2="243.71" y2="134.532" fill="none" stroke="#a384bb" stroke-linecap="round" stroke-linejoin="round"/>
              <line x1="42.748" y1="164.812" x2="255.568" y2="164.812" fill="none" stroke="#a384bb" stroke-linecap="round" stroke-linejoin="round"/>
              <line x1="30.89" y1="195.092" x2="243.71" y2="195.092" fill="none" stroke="#a384bb" stroke-linecap="round" stroke-linejoin="round"/>
            </g>
          </g>
          <rect x="42.932" y="158.036" width="117.359" height="13.552" transform="translate(-86.778 120.123) rotate(-45)" fill="#e86170"/>
          <rect x="156.853" y="158.036" width="102.763" height="13.552" transform="translate(-43.1 250.577) rotate(-57.202)" fill="#e86170"/>
          <rect x="169.909" y="108.815" width="76.652" height="116.557" fill="#6498d1" mix-blend-mode="multiply" opacity=".5"/>
          <rect x="29.31" y="221.983" width="225.721" height="9.317" fill="#efa78e"/>
          <rect x="164.827" y="221.983" width="90.204" height="9.317" fill="#6498d1" mix-blend-mode="multiply" opacity=".5"/>
          <polygon points="250.858 230.812 197.769 231.3 196.204 221.983 194.725 221.983 191.567 203.187 192.61 201.418 189.576 183.335 188.233 183.342 174.912 104.06 251.077 104.06 250.858 230.812" fill="#42496f"/>
          <g>
            <polygon points="206.237 230.348 178.248 97.753 268.131 97.729 296.121 230.324 206.237 230.348" fill="#efa78e"/>
            <g clip-path="url(#n)">
              <g mix-blend-mode="multiply" opacity=".5">
                <line x1="198.46" y1="88.163" x2="226.449" y2="220.758" fill="none" stroke="#a384bb" stroke-linecap="round" stroke-linejoin="round"/>
                <line x1="223.19" y1="97.762" x2="251.179" y2="230.357" fill="none" stroke="#a384bb" stroke-linecap="round" stroke-linejoin="round"/>
                <line x1="244.531" y1="91.269" x2="272.52" y2="223.864" fill="none" stroke="#a384bb" stroke-linecap="round" stroke-linejoin="round"/>
              </g>
            </g>
            <polygon points="264.756 116.128 222.115 217.239 209.613 211.949 252.253 110.838 264.756 116.128" fill="#e86170"/>
            <polygon points="206.237 230.348 178.248 97.753 268.131 97.729 296.121 230.324 206.237 230.348" fill="#6498d1" mix-blend-mode="multiply" opacity=".5"/>
            <rect x="122.251" y="162.249" width="135.517" height="4.564" transform="translate(311.749 -55.363) rotate(78.08)" fill="#efa78e"/>
            <polygon points="201.771 231.3 291.655 231.275 295.952 230.324 206.068 230.348 201.771 231.3" fill="#efa78e"/>
            <polygon points="201.771 231.3 291.655 231.275 295.952 230.324 206.068 230.348 201.771 231.3" fill="#42496f" opacity=".82"/>
          </g>
        </g>
      </g>
    </g>
  </g>
</svg>