<?xml version="1.0" encoding="UTF-8"?>
<svg xmlns="http://www.w3.org/2000/svg" width="300" height="300" xmlns:xlink="http://www.w3.org/1999/xlink" viewBox="0 0 300 300">
  <defs>
    <linearGradient id="d" data-name="Dégradé sans nom 21" x1="150" y1="39.58" x2="150" y2="245.835" gradientUnits="userSpaceOnUse">
      <stop offset="0" stop-color="#9bc8ec"/>
      <stop offset="1" stop-color="#336a9b"/>
    </linearGradient>
    <filter id="e" data-name="drop-shadow-3" x="26.31" y="99.594" width="229.758" height="131.706" filterUnits="userSpaceOnUse">
      <feOffset dx="-3" dy="0"/>
      <feGaussianBlur result="f" stdDeviation="0"/>
      <feFlood flood-color="#42496f" flood-opacity="1"/>
      <feComposite in2="f" operator="in"/>
      <feComposite in="SourceGraphic"/>
    </filter>
    <clipPath id="g">
      <rect x="37.78" y="104.253" width="208.781" height="121.118" fill="none"/>
    </clipPath>
  </defs>
  <g isolation="isolate">
    <g id="c" data-name="Calque 2">
      <g>
        <g>
          <path d="M128.518,260.684c-.656.525-1.18.944-1.816,1.454-.002-.053.006.14.016.362-2.931-.289-3.047-2.189-.085-2.656,1.162-.424,1.188-1.596,1.653-2.842-1.337.514-2.241.437-3.5.649.23.806.818.782,1.327,1.325-.442.469-1.07.546-1.626.471-.148-.941-.938-2.291.113-2.99.992-.412-.168-1.552-.516-1.853-.529.256-1.021.887-.569,1.47.282.43.464.795-.108,1.217-1.092,3.016-2.776-.427-4.454-1.001.039-.173.12-.524.23-1.01-1.595.96-.827-2.929-2.682-.751-1.488-.964-1.973-4.458-3.912-3.996-.179.111-.661-.079-.79-.296-.723-2.378-2.929-3.399-3.704-5.593-.592-1.393-1.809-2.186-2.849-3.172-.096-.14-.68-.099-.789.054-.878,1.104-2.693.116-2.785-1.193-.279-.521-1.346-1.039-1.273-1.83-.909-1.047.042-.982.694-1.52-.654-.273-.797-.819-.787-1.594.168-.742-1.524-1.979-.359-2.372,1.336-.258.284-1.081.272-2.045-.916,1.315-1.856,2.096-3.374,1.897-.688.563-1.109.185-1.567-.242-1.18-1.3-2.956.43-4.009,1.287.095-3.463-4.299.837-6.001,1.097-.039-1.191-1.414-2.128-2.323-.951-2.062-.556-2.723-3.635-4.287-5.138-.323-1.413-2.198-1.056-2.285-2.409-.156-1.5-2.107-1.721-2.092-3.379-1.321-.541-1.025-2.34-1.976-3.166-1.633-2.105-5.95-4.733-5.265-7.454.822-.846.003-1.1-.554-1.62-.428-.931-.922-.039-1.629-.217,1.729-1.899-1.341-2.148,1.206-5.5.283-.826-.778-.595-1.018-.094-.634,1.138-1.54.982-2.418.865-.468-.505-.051-1.772-1.219-1.531-.079-.336-.158-.673-.242-1.026-1.138.278-1.773,1.474-.476,2.035-1.211,1.157-3.294,4.152-4.443,1.554-1.365.317-1.229-2.058-2.746-.867-.073-.644-.132-1.167-.198-1.757-.164.109-.372.247-.581.386-.327-.684-.351-1.652-1.423-1.494-.116-.881-.231-1.751-.363-2.748-.251.369-.423.622-.524.771-1.594-.364-1.925-2.045-2.772-3.249-.087.012-.175.025-.262.037-.059.309-.118.618-.176.927-.092-.004-.184-.009-.276-.013.251-3.125-2.621-4.068-3.527-6.697.247-.928.274-1.31-.283-2.062-.353.382-.677.731-1.12,1.21-.715-.529-.354-1.842-1.422-1.562-.305-1.25-.022-2.164.803-3.005-.898-1.006,1.429-3.206-.39-3.359-.1.431-.195.837-.289,1.243h-.198c.026-1.024.052-2.047.083-3.245,2.228,1.081,2.097-2.072,2.299-3.636-.888.657-1.507,1.85-2.589.962.161.276.321.552.561.964-.476.122-.89.227-1.166.298-.315-1.757.432-2.892,1.577-4.149.116.079.269.183.362.246,2.669-4.276,5.342-9.06,9.2-12.721-1.008-.824-1.528-2.525-.195-3.285.607.049,1.251.31,1.567.072.579-.72,1.043-1.698-.3-2.166-.005-1.262,1.67-2.65.473-3.759-.698-.782-.454-2.425-1.8-2.518-1.412-.427-2.158.854-3.367,1.238-1.176-.22-1.409.942-2.017,1.722-.713-.407-1.592-.524-2.065-1.123-.323-1.315-1.307-.914-2.364-1.148.257-.272.47-.499.695-.737-1.476-.416-1.142,1.089-.631,1.817-.319.265-.605.502-1.067.885-.132-.919.664-2.092-.446-2.483-1.838-.018-1.914-3.473-3.784-2.161.013-.291.025-.573.038-.859-1.026-.018-1.053-.899-1.593-1.528-2.105-1.733-1.487-1.156-2.103-3.663-.185.124-.358.24-.58.389-.591-.905-1.432-1.04-1.698-2.362-1.213-2.651-4.898-2.808-6.484-4.949-.537.078-.955.138-1.469.213,1.272-1.886.158-3.055.27-4.872.739-1.82,1.476-3.635,2.211-5.445l.328.029c-.078.911-.157,1.824-.253,2.945.748-.845.49-1.707.885-2.494.167.11.307.202.446.294.061-.031.123-.062.184-.093.024-1.396-1.702-.867-.56-2.271,7.453-14.059,13.257-28.847,21.249-42.57.416-.794.677-1.478,1.51-.524,1.599.513,1.665-2.167,3.27-2.027.395-.024.684-1.171.405-1.743-.067.295-.114.501-.174.765-.914.023-1.8.045-2.703.068.267-1.892,2.387-1.989,3.763-1.409,1.548-2.296,2.124-5.736,5.28-6.262-.128-.158-.243-.3-.493-.609,2.312-.548,4.197,2.337,6.115,1.743.405-.36.682-.274.75.283-.198.073-.394.145-.657.242,3.905,1.403,7.895,4.824,11.473,5.528.839,2.223,2.183-.542,3.152-1.378.478-.768,1.278-.068,1.854-.557,8.228-8.34,15.561-18.002,24.603-24.907.503-.009,1.463.214,1.784.753,1.693,1.173,2.268-3.5,6.273,1.057.609,1.055,2.226-.431,2.482.959.256,1.049,1.547.998,2.02,1.9,1.637.992,2.347,2.894,4.338,3.495.632.36.733.782,1.373-.019.106,1.302.281,1.396,1.282.698.072.375.14.73.208,1.085.314-.135.629-.269,1.031-.442-.439,6.396,22.598-22.136,25.572-23.78,1.48.322-.174,1.162.635,1.991.462.131.883-.638,1.229-.822,1.538-.305-.023,1.768,1.124,2.047.662.166.759,1.75,1.537.883.165.334.386.602.43.902.109.801,1.373.743,1.547.102.103-.853-.576-2.169.85-1.962.637.039.381,1.006.873,1.26-.232.371-.41.655-.587.939.399.114.798.228,1.316.376-.419,1.029-.377,1.196.642,1.617.214.927,1.126,1.35,1.806,1.876.781.647,1.514,1.881,2.761,1.809-.339,1.281,1.305.5,1.944.887-.952.898-.852,1.193.125,1.775-.024.059-.048.119-.072.178-.433-.047-.867-.095-1.467-.161.247.673,1.06.571.682,1.358-.063.673,1.12.842,1.684.388-.152.291-.243.465-.368.705.523-.037.19.934.884.65.387-.158.698-.504,1.012-.876-.992.603-1.23-.364-.368-.878,1.249.029,1.886-.796,2.596-1.61,1.07-1.213,1.987-1.931,3.576-1.218.385.336.725.678,1.245.077.938.851,1.841,1.67,2.744,2.49.074-.062.148-.123.221-.185-.184-.305-.368-.61-.646-1.072,1.762,1.191,3.595-.956,4.914.364.219,1.496,1.052,2.291,2.161,3.175.986.884.417,2.433,1.497,3.23.541.403.383,1.418,1.248.872,1.043-.742,1.891,1.196,1.29,1.995.388.074.683.13.933.178-.321.394-.604.741-.888,1.089.551.24-.469,1.265.672,1.232.073-.216.151-.445.223-.659.913.614,2.107,1.089,1.116,2.361.295.041.556.077.877.121-.048.215-.089.4-.104.468.365.332.676.615,1.028.935-.181.23-.344.437-.599.762.916-.241,1.697-.446,2.553-.671.015.29.023.458.032.626,2.323.5.425,4.077,0,5.576.074.052.149.103.223.155,1.484-1.271,2.256-3.22,3.565-4.673.076.044.152.089.227.133-.354.898-.822,1.76-.995,2.716.946-.031,1.368-.747,1.855-1.447,2.986,2.055,13.453-17.065,12.378-7.384.087.027.173.054.26.081,1.007-1.976,4.141-2.424,4.144.363-.089.82.673.51,1.185.457.544-.129.743.097.744.608-.076,1.808,4.136.475,3.639,2.974,1.968-.425,1.135,2.048,2.623,2.211.555-.004,1.11.341,1.684.538-.207.447-.399.861-.624,1.347,4.603.908,1.009.714,3.206,2.696,4.036,2.107.137,5.726-.386,8.911.081.038.163.075.244.113-.17.108-.339.216-.556.353.054.142.115.303.178.47-1.329.028-.632,1.175-1.276,1.972-.321.44-.48.745.071,1.122.668.781.562,2.085.836,3.034-.067-.055-.211-.173-.248-.203-.604,1.329.075,2.754-1.657,3.209-.188.697-.258,1.506-1.089,1.914-.288-.307-.534-.57-.78-.832-.125-.008-.251-.016-.376-.023.265,1.954-.79,3.176-1.659,4.828,1.138.901,2.75.742,3.576,1.715.124.186.242.565.334.555,1.319-.075,1.583,1.211,2.454,1.832.591-.61,1.144-1.182,1.713-1.77.238.172.427.308.616.444.048-.028.096-.056.144-.084-.117-.254-.234-.509-.391-.851,1.438-2.917,1.561.61,2.581-1.092.436.18-.193,1.077.629.852.118-.032.106-.544.179-.983,1.053-.009,1.315,1.424,2.557.348.066.712.033,1.053.194,1.618,1.547-.779,3.063-2.017,4.496-3.275.941-1.223,1.76-1.761,3.199-.691-.436.132-.686.207-.936.282-.005.062-.01.124-.015.186.346.062.693.125,1.096.197.032-.167.059-.307.093-.487,1.58.207.021,1.132.986,1.655.123-.188.235-.36.273-.418,1.713.338.941-1.515.902-2.536l.188-.009c1.184,1.012.929,3.135,2.168,3.765.438.038.761.131,1.068.46,1.322.756.669-1.41,1.333-1.741.757-.058,1.177.693,1.585,1.3-.6,1.797,2.049,2.618,3.048,3.826-1.421-.381-2.139-.076-.74,1.33.211-.322.332-.508.546-.835.33.605.462,1.048.981,1.412.3-.554.052-.965-.126-1.503.624.18,1.169.366.795,1.195.318,1.983,3.94-.737,3.106,2.007.824-.281,2.804.287,1.642,1.278-.12.088-.126.557-.006.696.154.179.575.35.729.261.794-.484,1.178.564,1.721.951.988,1.724-1.042,3.533-.898,5.094,1.101.486-.334,1.857-.98.811-.284.382-.449.703.177.794,1.479,1.672-2.275,5.96-3.39,7.953.335-.099.542-.16.835-.247.145.569.925,1.569-.012,1.83-.684.511-.244,1.432-.214,2.303.265.013,1.072-.383,1.289-.354.547.474,1.027.239,1.502-.05.514-.312.639-.05.716.427.731,2.179,1.073,4.397,1.897,6.476.27,1.188.649,3.124,1.989,3.418.326.892,1.729.968,1.485,2.31,2.383-.255,1.941,2.883,1.979,4.389,2.684,1.306-1.754,4.542-1.901,6.494-1.256.968-1.582,2.967-2.54,3.545-.507.307.116,1.644-.865,1.521-.732.774-1.123,1.804-1.897,2.938,3.081.385,5.915.74,8.741,1.094.027,1.535.811.335,1.595,1.171-.426.295-.733.508-1.02.707,1.055,1.114,1.789,3.499.013,4.159-1.112-.386-.681.458-.753,1.03.497-.164.915-.302,1.395-.461.89,1.074-1.652,1.759-.4,3.046.003,5.224-8.525,6.053-1.998,12.115-.553.858.736,1.453.317,2.293-.794,1.145-.515,2.3.939,2.55.028-.11.087-.34.15-.583.929.569,2.269,3.758,2.146,4.999.186-.029.422-.066.657-.103-.01.089-.019.177-.029.266-.168.181-.336.363-.503.544.02.084.04.169.06.253.361-.062.721-.124,1.215-.209-.555.628-.221,1.978-1.092,2.046-.134-.008-.277.267-.416.412.647.561,1.393-.01,2.115-.151.036.06.072.121.108.181-2.875,3.848-8.325,5.961-9.977,10.545-.12,1.452-.378.749-1.348.996.468.282,1.308.808.568,1.27-.702.412.055,1.075-.235,1.727-.08.003-.159.006-.239.009-.111-.181-.222-.362-.473-.769-2.535,9.115-13.535,9.881-20.146,14.923-4.338,3.697-8.696,7.607-13.542,10.54-.95,1.548-4.451,4.488-5.633,1.997.215-.094.42-.184.839-.367-.477-.299-.791-.495-1.234-.772.133,1.026-.895,2.944-.564,1.013-1.11-.534-.132-1.815-.71-2.937-.369.815-.65,1.435-.932,2.057-1.309-.671-.136-3.346-1.672-3.526-.619.944-1.062.549-1.482-.282-.275.497-.495.894-.733,1.325-2.996-3.155-9.014,6.16-12.286,5.612-1.778.171-3.182,3.452-5.082,2.611-8.225-2.038-25.62,21.419-30.459,17.336.255-.11.489-.211.943-.407-.45-.327-.754-.548-1.112-.809-1.153,2.262-1.245-.607-1.145-1.662-.09-.028-.181-.057-.271-.085-.337.601-.673,1.203-1.005,1.795-1.49-.2.051-4.403-1.634-3.53-.827,1.205-.841.063-1.523-.293-.165.398-.319.771-.464,1.123-1.907-1.579-4.045.794-6.265.307-.75.351-2.481,1.105-2.237-.551.654-.694,1.361-3.64-.338-2.856-.634-1.008-.561-1.294.354-1.504-.117-1.322-.466-1.825-1.441-.655.158-2.195-1.598-3.113-1.048-5.072.145-.492-.391-1.306-.242-1.808.708-1.358-.302-1.964-.826-2.765-1.77-.678-2.394-2.022-3.218-3.74-.605.477-1.231.97-1.911,1.506.026-.263.046-.474.069-.711-1.958.422-.792,1.87-2.123,3.158-.437-1.896,1.167-3.199,1.073-5.052-6.887,8.164-13.12,18.759-20.141,25.766ZM270.759,163.95c.788.836-.165,1.26.796,1.663.224-.787,1.353-1.193.566-2.269l-.573.286-.379-.179c.204-.248.407-.496.609-.741-1.285-1.507-1.102.299-1.019,1.24ZM43.148,181.263c-.405.551-.81,1.104-1.215,1.655.382.213.817.456,1.257.701.894-.937.89-1.668-.042-2.356ZM271.456,171.168c-.204-.087-.407-.174-.611-.261.315-.455.63-.91.913-1.319-.229-.156-.504-.344-.777-.531q-.514.441.017.969c-.259.174-.517.348-.775.521-.008.112-.016.223-.025.335.419.095.838.19,1.258.286ZM269.664,161.092c-.293.571-.511.996-.819,1.597.974-.255,2.12-1.055.819-1.597ZM224.354,93.851c-.064.021-.129.043-.193.064-.082.584-.164,1.169-.254,1.811l.828-.382c-.125-.49-.253-.992-.381-1.493ZM177.434,52.077c-.779.465-.795.731-.095,1.313.033-.452.061-.834.095-1.313ZM48.16,84.512c.595.141.942.158.976-.448-.392-.5-.63.017-.976.448ZM41.663,187.958c-.43.861-.35,1.03.436,1.14-.163-.427-.299-.784-.436-1.14ZM270.406,167.896c.141.011.283.022.424.034.006-.377.011-.753.017-1.129-.11-.009-.22-.018-.33-.027-.037.374-.074.748-.111,1.122ZM82.328,232.212c-.03.355-.06.71-.099,1.174.852-.457.771-.821.099-1.174Z" fill="url(#d)"/>
          <g filter="url(#e)">
            <rect x="37.78" y="104.253" width="208.781" height="121.118" fill="#efa78e"/>
            <g clip-path="url(#g)">
              <g mix-blend-mode="multiply" opacity=".25">
                <line x1="30.89" y1="134.532" x2="243.71" y2="134.532" fill="none" stroke="#a384bb" stroke-linecap="round" stroke-linejoin="round"/>
                <line x1="42.748" y1="164.812" x2="255.568" y2="164.812" fill="none" stroke="#a384bb" stroke-linecap="round" stroke-linejoin="round"/>
                <line x1="30.89" y1="195.092" x2="243.71" y2="195.092" fill="none" stroke="#a384bb" stroke-linecap="round" stroke-linejoin="round"/>
              </g>
            </g>
            <polygon points="246.561 116.211 169.909 112.465 37.78 112.465 37.78 104.253 246.561 104.253 246.561 116.211" fill="#42496f"/>
            <rect x="42.932" y="158.036" width="117.359" height="13.552" transform="translate(-86.778 120.123) rotate(-45)" fill="#e86170"/>
            <rect x="156.853" y="158.036" width="102.763" height="13.552" transform="translate(-43.1 250.577) rotate(-57.202)" fill="#e86170"/>
            <rect x="169.909" y="104.253" width="76.652" height="121.118" fill="#6498d1" mix-blend-mode="multiply" opacity=".25"/>
            <rect x="29.31" y="99.594" width="225.72" height="9.317" fill="#efa78e"/>
            <rect x="29.31" y="221.983" width="225.72" height="9.317" fill="#efa78e"/>
            <rect x="164.827" y="99.594" width="90.203" height="9.317" fill="#6498d1" mix-blend-mode="multiply" opacity=".25"/>
            <rect x="164.827" y="221.983" width="90.203" height="9.317" fill="#6498d1" mix-blend-mode="multiply" opacity=".25"/>
          </g>
        </g>
        <path d="M278.256,195.041c-.722.142-1.468.712-2.115.151.139-.145.282-.42.416-.412.871-.068.536-1.418,1.092-2.046-.494.085-.854.147-1.215.209-.02-.084-.04-.169-.06-.253.168-.181.336-.363.503-.544.01-.089.019-.177.029-.266-.236.037-.471.074-.657.104.123-1.242-1.217-4.431-2.146-5-.063.244-.122.474-.15.583-1.454-.25-1.733-1.405-.939-2.55.419-.84-.87-1.435-.317-2.293-6.527-6.062,2.001-6.891,1.998-12.115-1.253-1.287,1.29-1.972.4-3.046-.479.158-.898.296-1.395.461.071-.572-.359-1.416.753-1.03,1.777-.66,1.042-3.045-.013-4.159.287-.199.594-.412,1.02-.707-.785-.836-1.569.364-1.595-1.171-2.827-.354-5.661-.708-8.741-1.094.774-1.134,1.165-2.164,1.897-2.938.981.123.358-1.214.865-1.521.958-.578,1.283-2.577,2.54-3.545.148-1.952,4.586-5.188,1.901-6.494-.037-1.506.404-4.644-1.979-4.388.243-1.342-1.159-1.418-1.485-2.31-1.34-.294-1.72-2.229-1.989-3.418-.824-2.079-1.166-4.298-1.897-6.476-.078-.477-.203-.739-.716-.427-.475.288-.955.524-1.502.05-.217-.03-1.024.367-1.289.354-.03-.871-.47-1.792.214-2.303.938-.261.157-1.261.012-1.83-.293.087-.5.148-.835.247,1.116-1.994,4.87-6.282,3.39-7.953-.626-.091-.46-.412-.177-.794.646,1.047,2.081-.325.98-.811-.144-1.561,1.886-3.37.898-5.094-.544-.387-.927-1.434-1.721-.951-.154.089-.575-.082-.729-.261-.12-.139-.114-.609.006-.696,1.162-.991-.818-1.559-1.642-1.278.834-2.744-2.788-.024-3.106-2.007.374-.829-.172-1.014-.795-1.195.178.538.427.948.126,1.503-.519-.363-.652-.807-.981-1.412-.214.327-.335.512-.546.835-1.398-1.405-.68-1.711.74-1.33-.536-.648-1.544-1.185-2.273-1.821v-2.007h-.776c-.408-.607-.827-1.356-1.583-1.298-.336.168-.335.806-.424,1.298h-1.849c-.043-.005-.082-.013-.128-.017-1.239-.63-.984-2.753-2.168-3.765-.062.003-.125.006-.188.009.038,1.021.811,2.874-.902,2.536-.037.057-.15.229-.273.418-.965-.523.594-1.448-.986-1.655-.034.18-.061.32-.093.487-.403-.073-.749-.135-1.096-.197l.015-.186c.25-.075.5-.151.936-.282-1.439-1.069-2.258-.532-3.199.691-.782.686-1.589,1.359-2.412,1.962h-2.255c-.007-.098-.012-.19-.023-.304-.167.145-.315.241-.451.304h-.759c-.41-.203-.752-.658-1.347-.653-.037.224-.053.464-.074.653h-.563c.005-.207.029-.439-.171-.521-.939,1.565-1.121-1.281-2.263.521h-5.752c-.873-.498-2.094-.544-3.013-1.271.869-1.652,1.924-2.874,1.659-4.828.125.008.251.016.376.023.246.262.492.524.78.832.831-.408.9-1.217,1.089-1.914,1.732-.455,1.053-1.88,1.657-3.209.037.03.181.148.248.203-.274-.949-.168-2.253-.836-3.034-.551-.377-.391-.682-.071-1.122.644-.797-.053-1.944,1.276-1.972-.064-.168-.125-.328-.178-.47.216-.138.386-.245.556-.353-.081-.038-.163-.075-.244-.113.523-3.186,4.422-6.805.386-8.911-2.197-1.982,1.397-1.787-3.206-2.696.225-.486.417-.9.624-1.347-.575-.197-1.129-.542-1.684-.538-1.488-.163-.656-2.636-2.623-2.211.497-2.499-3.715-1.166-3.639-2.974-.001-.511-.2-.737-.744-.608-.512.053-1.274.363-1.185-.457-.003-2.786-3.137-2.339-4.144-.363-.087-.027-.173-.054-.26-.081,1.075-9.681-9.392,9.439-12.378,7.384-.486.701-.909,1.416-1.855,1.447.172-.956.641-1.819.995-2.716-.076-.044-.152-.089-.227-.133-1.309,1.453-2.081,3.402-3.565,4.673-.074-.052-.148-.103-.223-.155.426-1.499,2.324-5.076,0-5.576-.008-.167-.017-.336-.032-.626-.857.225-1.638.43-2.553.671.255-.324.418-.531.599-.762-.352-.32-.663-.603-1.028-.935.015-.068.056-.252.104-.468-.321-.044-.582-.08-.877-.121.99-1.272-.203-1.747-1.116-2.361-.073.215-.15.444-.223.659-1.142.033-.122-.992-.672-1.232.283-.348.567-.695.888-1.089-.25-.048-.545-.104-.933-.178.602-.799-.246-2.736-1.29-1.995-.866.546-.707-.47-1.248-.872-1.08-.798-.511-2.346-1.497-3.23-1.109-.884-1.942-1.679-2.161-3.175-1.319-1.32-3.151.826-4.914-.364.278.461.462.766.646,1.072-.074.062-.148.123-.221.185-.904-.82-1.806-1.639-2.744-2.49-.52.601-.861.259-1.245-.077-1.589-.712-2.506.005-3.576,1.218-.709.814-1.346,1.639-2.596,1.61-.863.514-.625,1.48.368.878-.313.373-.625.718-1.012.876-.694.284-.361-.687-.884-.65.125-.24.216-.414.368-.705-.564.454-1.747.285-1.684-.388.378-.787-.435-.685-.682-1.358.6.066,1.033.113,1.467.161.024-.059.048-.119.072-.178-.978-.583-1.078-.878-.125-1.775-.639-.387-2.283.394-1.944-.887-1.247.072-1.979-1.163-2.761-1.809-.68-.526-1.592-.949-1.806-1.876-1.019-.422-1.062-.589-.642-1.617-.518-.148-.917-.262-1.316-.376.177-.284.355-.567.587-.939-.492-.254-.235-1.221-.873-1.26-1.426-.207-.747,1.109-.85,1.962-.174.641-1.438.699-1.547-.102-.044-.3-.264-.569-.43-.902-.777.866-.875-.717-1.537-.883-1.147-.279.414-2.351-1.124-2.047-.346.184-.767.953-1.229.822-.81-.83.844-1.669-.635-1.991-2.974,1.645-26.011,30.176-25.572,23.78-.402.172-.717.307-1.031.442-.068-.355-.136-.71-.208-1.085-1.001.698-1.176.604-1.282-.698-.64.8-.741.379-1.373.019-1.991-.601-2.702-2.502-4.338-3.495-.473-.902-1.764-.851-2.02-1.9-.257-1.39-1.873.096-2.482-.959-4.005-4.557-4.581.116-6.273-1.057-.32-.54-1.281-.762-1.784-.753-9.042,6.905-16.375,16.567-24.603,24.907-.577.49-1.377-.21-1.854.557-.969.836-2.313,3.601-3.152,1.378-3.577-.705-7.568-4.125-11.473-5.529.263-.097.459-.169.657-.242-.068-.557-.345-.643-.75-.283-1.918.594-3.803-2.291-6.115-1.743.25.308.365.451.493.609-3.156.526-3.732,3.966-5.28,6.262-1.376-.58-3.496-.483-3.763,1.409.903-.023,1.789-.045,2.703-.068.06-.264.107-.47.174-.765.279.573-.01,1.719-.405,1.743-1.604-.141-1.67,2.54-3.27,2.027-.833-.954-1.093-.271-1.51.524-3.224,5.536-6.087,11.248-8.851,17.013h-11.233v9.317h6.826c-2.566,5.453-5.159,10.899-7.99,16.24-1.143,1.404.584.876.56,2.271-.061.031-.123.062-.184.093-.139-.092-.279-.184-.446-.294-.394.787-.137,1.649-.885,2.494.096-1.121.175-2.034.253-2.945-.109-.01-.218-.019-.328-.029-.735,1.81-1.472,3.625-2.211,5.445-.112,1.817,1.002,2.986-.27,4.872.514-.074.932-.135,1.469-.213,1.586,2.141,5.271,2.297,6.484,4.949.266,1.322,1.106,1.457,1.698,2.362.222-.149.395-.265.58-.389.616,2.507-.002,1.93,2.103,3.663.347.405.482.914.807,1.23v73.321s-8.47,0-8.47,0v9.317h53.985c.712,1.237,1.439,2.435,2.651,2.761.909-1.176,2.284-.24,2.323.951,1.702-.26,6.095-4.56,6.001-1.097,1.053-.857,2.829-2.587,4.009-1.287.458.427.879.805,1.567.242,1.385.182,2.289-.458,3.132-1.57h.285c.182.819.867,1.49-.315,1.718-1.165.393.527,1.63.359,2.372-.01.776.134,1.322.787,1.594-.652.538-1.603.473-.694,1.52-.073.791.994,1.309,1.273,1.83.091,1.309,1.907,2.297,2.785,1.193.109-.154.693-.194.789-.054,1.041.986,2.257,1.779,2.849,3.172.775,2.194,2.981,3.215,3.704,5.593.13.217.611.408.79.296,1.939-.462,2.424,3.032,3.912,3.996,1.854-2.178,1.087,1.711,2.682.751-.111.485-.191.837-.23,1.01,1.678.575,3.362,4.018,4.454,1.001.573-.422.39-.787.108-1.217-.452-.583.04-1.214.569-1.47.349.301,1.509,1.441.516,1.853-1.051.698-.261,2.048-.113,2.99.556.075,1.184-.002,1.626-.471-.51-.543-1.098-.519-1.327-1.325,1.259-.211,2.163-.134,3.5-.649-.464,1.246-.491,2.418-1.653,2.842-2.963.467-2.846,2.367.085,2.656-.01-.222-.018-.415-.016-.362.636-.509,1.16-.929,1.816-1.454,7.021-7.007,13.254-17.602,20.141-25.766.095,1.853-1.509,3.156-1.073,5.052,1.331-1.288.165-2.735,2.123-3.158-.023.237-.044.448-.069.711.679-.535,1.305-1.029,1.911-1.506.824,1.718,1.448,3.062,3.218,3.74.524.801,1.534,1.407.826,2.765-.149.502.387,1.316.242,1.808-.55,1.958,1.206,2.877,1.048,5.072.975-1.17,1.325-.667,1.441.655-.916.211-.988.496-.354,1.504,1.699-.784.992,2.163.338,2.856-.243,1.655,1.487.902,2.237.551,2.22.488,4.358-1.886,6.265-.307.146-.352.3-.725.464-1.123.682.357.696,1.498,1.523.293,1.686-.873.145,3.33,1.634,3.53.331-.592.668-1.194,1.005-1.795.09.028.18.057.271.085-.1,1.054-.008,3.924,1.145,1.662.358.261.662.482,1.112.809-.453.196-.688.297-.943.407,4.839,4.084,22.234-19.374,30.459-17.336,1.9.841,3.304-2.439,5.082-2.611,3.272.548,9.29-8.767,12.286-5.612.239-.431.458-.828.733-1.325.42.832.863,1.226,1.482.282,1.536.18.363,2.854,1.672,3.526.282-.622.562-1.242.931-2.057.577,1.122-.401,2.403.71,2.937-.33,1.932.698.013.564-1.013.444.278.757.474,1.234.772-.419.183-.624.273-.839.367,1.182,2.491,4.683-.449,5.633-1.997,1.588-.961,3.121-2.034,4.621-3.163h17.438v-9.317h-5.427c6.514-3.489,14.886-5.178,17.057-12.983.25.407.362.588.473.769.08-.003.159-.006.239-.009.29-.652-.467-1.315.235-1.727.74-.462-.1-.989-.568-1.27.97-.247,1.228.456,1.348-.996,1.652-4.584,7.103-6.698,9.977-10.545-.036-.06-.072-.121-.108-.181ZM224.161,93.915c.064-.021.128-.043.193-.064.128.501.256,1.003.381,1.493-.323.149-.554.255-.828.382.09-.642.172-1.227.254-1.811ZM177.434,52.077c-.035.479-.062.86-.095,1.313-.7-.582-.683-.848.095-1.313ZM49.135,84.064c-.034.607-.381.59-.976.448.346-.432.584-.949.976-.448ZM82.229,233.386c.039-.465.069-.819.099-1.174.671.353.753.717-.099,1.174ZM271.779,162.71c-.201.245-.405.493-.609.741.126.06.252.12.379.179.187-.093.373-.186.573-.286.787,1.076-.342,1.482-.566,2.269-.961-.403-.008-.827-.796-1.663-.083-.941-.266-2.747,1.019-1.24ZM270.517,166.774l.33.027c-.006.376-.011.753-.017,1.129-.141-.011-.283-.022-.424-.034.037-.374.074-.748.111-1.122ZM268.844,162.689c.309-.602.527-1.027.819-1.597,1.301.543.154,1.342-.819,1.597ZM270.223,170.548c.258-.173.515-.347.775-.521q-.531-.527-.017-.969c.273.186.548.374.777.531-.283.409-.598.864-.913,1.319.204.087.407.174.611.26-.419-.095-.839-.19-1.258-.286.008-.112.016-.223.025-.335Z" mix-blend-mode="saturation"/>
      </g>
    </g>
  </g>
</svg>