<?xml version="1.0" encoding="UTF-8"?><svg xmlns="http://www.w3.org/2000/svg" xmlns:xlink="http://www.w3.org/1999/xlink" viewBox="0 0 200 180"><defs><style>.cls-1{fill:url(#Dégradé_sans_nom_18-5);}.cls-1,.cls-2,.cls-3,.cls-4,.cls-5,.cls-6,.cls-7,.cls-8,.cls-9,.cls-10,.cls-11,.cls-12,.cls-13,.cls-14,.cls-15,.cls-16,.cls-17,.cls-18,.cls-19,.cls-20,.cls-21,.cls-22,.cls-23,.cls-24,.cls-25,.cls-26,.cls-27,.cls-28,.cls-29,.cls-30{stroke-width:0px;}.cls-2{fill:url(#_40_10_ppp_2-8);}.cls-2,.cls-7,.cls-10,.cls-16,.cls-18,.cls-23,.cls-24{opacity:.25;}.cls-2,.cls-7,.cls-10,.cls-16,.cls-18,.cls-23,.cls-24,.cls-31{mix-blend-mode:overlay;}.cls-32{stroke:#ffcb57;}.cls-32,.cls-33{stroke-linecap:round;stroke-linejoin:round;stroke-width:.8px;}.cls-32,.cls-33,.cls-12{fill:none;}.cls-3{fill:#fff;opacity:.8;}.cls-4{fill:url(#Dégradé_sans_nom_18-11);}.cls-5{fill:url(#Dégradé_sans_nom_18-13);}.cls-6{fill:#ffa544;}.cls-34{clip-path:url(#clippath-2);}.cls-7{fill:url(#_40_10_ppp_2-4);}.cls-35{isolation:isolate;}.cls-8{fill:url(#Dégradé_sans_nom_18-2);}.cls-33{stroke:#ffa544;}.cls-9{fill:url(#Dégradé_sans_nom_18-3);}.cls-10{fill:url(#_40_10_ppp_2-3);}.cls-11{fill:url(#Dégradé_sans_nom_18-16);}.cls-36{clip-path:url(#clippath-1);}.cls-37{clip-path:url(#clippath-4);}.cls-13{fill:#ffcb57;}.cls-14{fill:#1d1061;}.cls-15{fill:url(#Dégradé_sans_nom_18-9);}.cls-16{fill:url(#_40_10_ppp_2-5);}.cls-17{fill:url(#Dégradé_sans_nom_18-4);}.cls-18{fill:url(#_40_10_ppp_2);}.cls-19{fill:url(#Dégradé_sans_nom_39);}.cls-20{fill:url(#Dégradé_sans_nom_18-8);}.cls-21{fill:url(#Dégradé_sans_nom_18);}.cls-38{clip-path:url(#clippath);}.cls-22{fill:url(#_40_10_ppp_2-2);mix-blend-mode:color-dodge;}.cls-23{fill:url(#_40_10_ppp_2-6);}.cls-39{clip-path:url(#clippath-3);}.cls-24{fill:url(#_40_10_ppp_2-7);}.cls-25{fill:url(#Dégradé_sans_nom_18-10);}.cls-26{fill:url(#Dégradé_sans_nom_18-12);}.cls-27{fill:url(#Dégradé_sans_nom_18-7);}.cls-28{fill:url(#Dégradé_sans_nom_18-6);}.cls-29{fill:url(#Dégradé_sans_nom_18-15);}.cls-30{fill:url(#Dégradé_sans_nom_18-14);}</style><clipPath id="clippath"><rect class="cls-12" width="200" height="180" rx="10" ry="10"/></clipPath><pattern id="_40_10_ppp_2" x="0" y="0" width="4.93" height="4.93" patternTransform="translate(9539.59 10328.22) scale(2.22)" patternUnits="userSpaceOnUse" viewBox="0 0 4.93 4.93"><rect class="cls-12" y="0" width="4.93" height="4.93"/><circle class="cls-14" cx="4.41" cy="4.41" r=".52"/><circle class="cls-14" cx="1.82" cy="4.41" r=".52"/><path class="cls-14" d="M4.41,2.34c.29,0,.52-.23.52-.52s-.23-.52-.52-.52-.52.23-.52.52.23.52.52.52Z"/><path class="cls-14" d="M1.82,2.34c.29,0,.52-.23.52-.52s-.23-.52-.52-.52-.52.23-.52.52.23.52.52.52Z"/><path class="cls-14" d="M.52,3.63c.29,0,.52-.23.52-.52s-.23-.52-.52-.52S0,2.83,0,3.11s.23.52.52.52Z"/><circle class="cls-14" cx="3.11" cy="3.11" r=".52"/><path class="cls-14" d="M.52,1.04c.29,0,.52-.23.52-.52S.81,0,.52,0,0,.23,0,.52s.23.52.52.52Z"/><circle class="cls-14" cx="3.11" cy=".52" r=".52"/></pattern><linearGradient id="Dégradé_sans_nom_39" x1="45.6" y1="-35.67" x2="45.6" y2="197.96" gradientUnits="userSpaceOnUse"><stop offset="0" stop-color="#ffa544"/><stop offset="1" stop-color="#ffcb57" stop-opacity="0"/></linearGradient><radialGradient id="Dégradé_sans_nom_18" cx="49.41" cy="263.81" fx="49.41" fy="263.81" r="263.46" gradientUnits="userSpaceOnUse"><stop offset="0" stop-color="#dedede"/><stop offset="1" stop-color="#dedede" stop-opacity="0"/></radialGradient><radialGradient id="Dégradé_sans_nom_18-2" cx="49.41" cy="263.81" fx="49.41" fy="263.81" r="320.08" xlink:href="#Dégradé_sans_nom_18"/><radialGradient id="Dégradé_sans_nom_18-3" cx="37.31" cy="258.48" fx="37.31" fy="258.48" r="333.41" xlink:href="#Dégradé_sans_nom_18"/><radialGradient id="Dégradé_sans_nom_18-4" cx="49.41" cy="263.81" fx="49.41" fy="263.81" r="298.97" xlink:href="#Dégradé_sans_nom_18"/><radialGradient id="Dégradé_sans_nom_18-5" cx="1.45" cy="220.16" fx="1.45" fy="220.16" r="339.25" gradientTransform="translate(17.47 31.38) rotate(-6.24)" xlink:href="#Dégradé_sans_nom_18"/><radialGradient id="Dégradé_sans_nom_18-6" cx="49.41" cy="263.81" fx="49.41" fy="263.81" r="308.19" xlink:href="#Dégradé_sans_nom_18"/><radialGradient id="Dégradé_sans_nom_18-7" cx="49.41" cy="263.81" fx="49.41" fy="263.81" r="356.52" xlink:href="#Dégradé_sans_nom_18"/><radialGradient id="Dégradé_sans_nom_18-8" cy="263.81" fy="263.81" r="337.91" xlink:href="#Dégradé_sans_nom_18"/><radialGradient id="Dégradé_sans_nom_18-9" cx="626.55" fx="626.55" gradientTransform="translate(668.74) rotate(-180) scale(1 -1)" xlink:href="#Dégradé_sans_nom_18"/><radialGradient id="Dégradé_sans_nom_18-10" cx="626.55" cy="263.81" fx="626.55" fy="263.81" r="320.08" gradientTransform="translate(668.74) rotate(-180) scale(1 -1)" xlink:href="#Dégradé_sans_nom_18"/><radialGradient id="Dégradé_sans_nom_18-11" cx="614.45" cy="258.48" fx="614.45" fy="258.48" r="333.41" gradientTransform="translate(668.74) rotate(-180) scale(1 -1)" xlink:href="#Dégradé_sans_nom_18"/><radialGradient id="Dégradé_sans_nom_18-12" cx="626.55" cy="263.81" fx="626.55" fy="263.81" r="298.97" gradientTransform="translate(668.74) rotate(-180) scale(1 -1)" xlink:href="#Dégradé_sans_nom_18"/><radialGradient id="Dégradé_sans_nom_18-13" cx="590.77" cy="267.39" fx="590.77" fy="267.39" r="339.25" gradientTransform="translate(657.19 26.59) rotate(-175.81) scale(1 -1)" xlink:href="#Dégradé_sans_nom_18"/><radialGradient id="Dégradé_sans_nom_18-14" cx="626.55" cy="263.81" fx="626.55" fy="263.81" r="308.19" gradientTransform="translate(668.74) rotate(-180) scale(1 -1)" xlink:href="#Dégradé_sans_nom_18"/><radialGradient id="Dégradé_sans_nom_18-15" cx="626.55" cy="263.81" fx="626.55" fy="263.81" r="356.52" gradientTransform="translate(668.74) rotate(-180) scale(1 -1)" xlink:href="#Dégradé_sans_nom_18"/><radialGradient id="Dégradé_sans_nom_18-16" cx="626.55" cy="263.81" fx="626.55" fy="263.81" r="337.91" gradientTransform="translate(668.74) rotate(-180) scale(1 -1)" xlink:href="#Dégradé_sans_nom_18"/><pattern id="_40_10_ppp_2-2" patternTransform="translate(9548.64 10328.22) scale(2.22)" xlink:href="#_40_10_ppp_2"/><clipPath id="clippath-1"><path class="cls-12" d="M59.41,114.21h-8.01c-3.28,37.88-37.15,32.42-37.15,32.42l.36,11.29,40.8-.36,40.8.36.36-8.98s-34.6,3.88-37.15-34.73Z"/></clipPath><pattern id="_40_10_ppp_2-3" patternTransform="translate(1447.42 1598.04) scale(1.19)" xlink:href="#_40_10_ppp_2"/><pattern id="_40_10_ppp_2-4" patternTransform="translate(1447.42 1598.04) scale(1.19)" xlink:href="#_40_10_ppp_2"/><pattern id="_40_10_ppp_2-5" patternTransform="translate(1447.42 1598.04) scale(1.19)" xlink:href="#_40_10_ppp_2"/><clipPath id="clippath-2"><path class="cls-12" d="M103.85,23.15H6.96S-1.06,94.09,55.4,94.09,103.85,23.15,103.85,23.15Z"/></clipPath><pattern id="_40_10_ppp_2-6" patternTransform="translate(1447.42 1598.04) scale(1.19)" xlink:href="#_40_10_ppp_2"/><clipPath id="clippath-3"><path class="cls-12" d="M-2.42,46.8c0,1.56,11.18,4.13,11.18-9.28,0-7.89-7.4-18.42-21.65-12.18-16.05,7.03-13.51,30.7,5.75,44.41,16.01,11.4,46.66,28.15,46.38,37.1s-5.72,7.5-5.72,8.75,10.71,2.37,10.71-8.75c0-12.75-22.32-24.79-44.84-41.73-14.14-10.64-20.69-30.75-7.83-34.86,7.83-2.5,12.39,3.23,12.39,7.31,0,9.71-6.39,7.66-6.39,9.23Z"/></clipPath><pattern id="_40_10_ppp_2-7" patternTransform="translate(1447.42 1598.04) scale(1.19)" xlink:href="#_40_10_ppp_2"/><clipPath id="clippath-4"><path class="cls-12" d="M113.23,46.8c0,1.56-11.18,4.13-11.18-9.28,0-7.89,7.4-18.42,21.65-12.18,16.05,7.03,13.51,30.7-5.75,44.41-16.01,11.4-46.66,28.15-46.38,37.1s5.72,7.5,5.72,8.75-10.71,2.37-10.71-8.75c0-12.75,22.32-24.79,44.84-41.73,14.14-10.64,20.69-30.75,7.83-34.86-7.83-2.5-12.39,3.23-12.39,7.31,0,9.71,6.39,7.66,6.39,9.23Z"/></clipPath><pattern id="_40_10_ppp_2-8" patternTransform="translate(1447.42 1598.04) scale(1.19)" xlink:href="#_40_10_ppp_2"/></defs><g class="cls-35"><g id="Calque_1"><g class="cls-38"><rect class="cls-13" x="-184.89" y="-98.12" width="464" height="360" rx="16" ry="16"/><rect class="cls-18" x="-192.89" y="-106.12" width="480" height="371.34"/><rect class="cls-19" x="-206.8" y="-109.49" width="504.8" height="380.08"/><g class="cls-31"><polygon class="cls-21" points="39.88 267.27 -323.15 138.75 -311.43 107.48 45.54 252.19 39.88 267.27"/><polygon class="cls-8" points="366.64 32.38 58.18 262.95 48.3 250.23 346.16 6.01 366.64 32.38"/><polygon class="cls-9" points="23.44 263.53 -206.11 -101.92 -97.33 -157.46 52.08 247.37 23.44 263.53"/><polygon class="cls-17" points="472.35 176.91 58.02 293.64 38.65 238.03 432.17 61.56 472.35 176.91"/><polygon class="cls-1" points="28.33 254.89 -64.03 -109.35 75.99 -124.67 58.8 251.55 28.33 254.89"/><polygon class="cls-28" points="33.59 280.32 -275.45 23.94 -252.09 -3.71 44.85 266.99 33.59 280.32"/><polygon class="cls-27" points="39.67 255.31 186.71 -118.34 220.28 -104.79 55.85 261.84 39.67 255.31"/><polygon class="cls-20" points="36.9 246.17 321.3 -112.46 365 -75.53 57.96 263.98 36.9 246.17"/></g><g class="cls-31"><polygon class="cls-15" points="51.72 267.27 414.75 138.75 403.03 107.48 46.07 252.19 51.72 267.27"/><polygon class="cls-25" points="-275.04 32.38 33.42 262.95 43.3 250.23 -254.56 6.01 -275.04 32.38"/><polygon class="cls-4" points="68.17 263.53 297.72 -101.92 188.93 -157.46 39.52 247.37 68.17 263.53"/><polygon class="cls-26" points="-380.75 176.91 33.59 293.64 52.95 238.03 -340.57 61.56 -380.75 176.91"/><polygon class="cls-5" points="63.14 254.36 142.4 -112.95 1.93 -123.25 32.56 252.11 63.14 254.36"/><polygon class="cls-30" points="58.02 280.32 367.06 23.94 343.7 -3.71 46.76 266.99 58.02 280.32"/><polygon class="cls-29" points="51.94 255.31 -95.11 -118.34 -128.67 -104.79 35.76 261.84 51.94 255.31"/><polygon class="cls-11" points="54.71 246.17 -229.69 -112.46 -273.4 -75.53 33.64 263.98 54.71 246.17"/></g><path class="cls-22" d="M103.27,8.69c1.9,0,3.72.37,5.39,1.04,5.92-1.38,12.8-.9,20.26,2.37,10.85,4.75,17.79,14.32,19.02,26.24,1.63,15.75-6.88,32.3-22.19,43.2-4.3,3.06-9.35,6.33-14.7,9.79-6.32,4.09-16.78,10.86-22.65,15.68,1.95,2.73,2.76,5.86,2.76,8.6,0,5.78-3.53,12.3-11.35,14.49,2.43,2.15,5.81,3.75,10.53,4.32,3.68-.03,5.87-.06,5.9-.06,3.99-.07,7.84,1.53,10.62,4.41,2.78,2.87,4.24,6.77,4.05,10.76l-.47,9.6c-.38,7.71-6.74,13.76-14.44,13.76h-.09l-81.5-.47s-.09,0-.13,0h-.09c-7.86.07-14.34-6.14-14.6-13.99l-.14-4.32-.75-6.02c-.55-4.43.98-8.86,4.14-12.01s7.59-4.67,12.02-4.11c1.34.17,2.83.33,4.44.49,4.05-.18,7.1-1.18,9.42-2.69-7.03-2.48-10.21-8.63-10.21-14.13,0-2.75.8-5.87,2.76-8.6-5.87-4.83-16.33-11.59-22.65-15.68-5.35-3.46-10.4-6.73-14.7-9.79-15.31-10.9-23.81-27.45-22.19-43.2,1.23-11.92,8.16-21.49,19.02-26.24,7.46-3.27,14.34-3.74,20.26-2.36,1.67-.67,3.49-1.04,5.39-1.04h96.89Z"/><path class="cls-14" d="M121.69,27.34c-9.77-4.28-16.32-.67-19.48,4.56-.08-4.17-.37-6.75-.37-6.75H4.96s-.29,2.58-.37,6.75c-3.15-5.24-9.7-8.85-19.48-4.56-16.05,7.03-13.51,30.7,5.75,44.41,16.01,11.4,46.66,28.15,46.38,37.1-.27,8.95-5.72,7.5-5.72,8.75,0,1.04,7.44,1.99,9.91-4.17,1.51,3.11,4.19,5.54,7.47,6.72-.16.87-.62,3.31-.99,4.85-.07.25-.13.51-.2.75,0,0,0,.02,0,.02-7.66,27.34-35.47,22.85-35.47,22.85l.36,11.29,40.8-.36,40.8.36.36-8.98s-32.17,3.6-36.76-30.76c3.32-1.17,6.03-3.61,7.55-6.75,2.48,6.16,9.91,5.21,9.91,4.17,0-1.25-5.44.19-5.72-8.75-.27-8.95,30.37-25.7,46.38-37.1,19.27-13.71,21.8-37.38,5.75-44.41ZM65.94,103.28c-1.14-3.26-3.5-5.93-6.55-7.48,7.29-.71,13.36-2.72,18.41-5.65-5.57,4.53-9.81,8.83-11.86,13.12ZM-10.43,32.26c7.83-2.5,12.39,3.23,12.39,7.31,0,9.71-6.39,7.66-6.39,9.23,0,1.2,6.64,3,9.68-2.38,1.41,12.35,5.41,27.43,15.86,37.72-7.14-5.19-15.41-10.77-23.72-17.02-14.14-10.64-20.69-30.75-7.83-34.86ZM29,90.15c5.03,2.91,11.07,4.92,18.32,5.64-.28.16-.66.39-1.11.69-.3.19-.59.4-.87.62-.02.02-.04.03-.06.05-.17.13-.33.26-.49.4-.29.24-.59.49-.88.77,0,0,.01,0,.03.01-1.37,1.39-2.43,3.08-3.08,4.96-2.05-4.29-6.29-8.59-11.86-13.12ZM109.41,67.12c-8.31,6.25-16.58,11.82-23.72,17.02,10.45-10.29,14.45-25.37,15.86-37.72,3.05,5.37,9.68,3.58,9.68,2.38,0-1.56-6.39.49-6.39-9.23,0-4.08,4.57-9.81,12.39-7.31,12.87,4.11,6.32,24.23-7.83,34.86Z"/><path class="cls-13" d="M59.41,114.21h-8.01c-3.28,37.88-37.15,32.42-37.15,32.42l.36,11.29,40.8-.36,40.8.36.36-8.98s-34.6,3.88-37.15-34.73Z"/><g class="cls-36"><path class="cls-6" d="M61.23,117.33s-4.36,2.08-10.68,0c0,0-.92,7.8-3.33,12.17,0,0,10.79-.6,14.02-12.17Z"/><path class="cls-14" d="M59.53,117.83h-8.55s-.82,4.49-1.27,5.99c0,0,9.05-2.44,9.82-5.99Z"/><path class="cls-3" d="M60.49,125.77c.62,2.44,3.06,11.34,9.44,16.09,7.75,5.77,14.47,6.75,11.17,6.49-8.68-.71-19.61-7.18-23.25-21.41-.18-.71-.06-1.5.49-1.94.01,0,.02-.02.04-.03.78-.63,1.85-.22,2.11.8Z"/><path class="cls-10" d="M65.15,117.37s-.59,9.06-14.05,15.59c0,0-7.7,13.64-27.99,10.22l27.53-30.04,11.79-.54,2.73,4.76Z"/></g><path class="cls-7" d="M96.56,158.4l.47-9.6s-56.47.86-83.41-2.53l1.44,11.65,81.5.47Z"/><line class="cls-33" x1="94.97" y1="149.62" x2="57.18" y2="149.62"/><path class="cls-33" d="M38.23,149.23l-26.34-2.37"/><path class="cls-33" d="M43.74,149.66l-1.62-.26"/><circle class="cls-13" cx="55.4" cy="105.65" r="13.3"/><circle class="cls-6" cx="51.85" cy="108.41" r="8.44"/><path class="cls-3" d="M64.17,96.84c-3.28-1.89-8.87-1.28-6.76,2.96s5.99,5.23,8.12,2.83.03-4.98-1.37-5.79Z"/><circle class="cls-16" cx="54.25" cy="107.97" r="9.4"/><path class="cls-32" d="M46.33,106.58c-.17,2.1.23,4.24,1.14,6.13"/><path class="cls-32" d="M48.15,109.4c.34,1.55.98,3.04,1.86,4.36"/><path class="cls-32" d="M50.63,110.9c.75,1.18,1.56,2.31,2.43,3.4"/><path class="cls-6" d="M61.38,93.54s-4.83.76-11.6,0c0,0-2,1-3.87,2.76,0,0,10.02,2.97,15.47-2.76Z"/><path class="cls-14" d="M60.95,93.55s-6.87,1.93-12.8,1.93c-1.86,0,2.88-2.51,2.88-2.51l9.92.57Z"/><path class="cls-14" d="M66.59,106.17s-1.41,6.17-.71,6.44,1.79-3.22,1.79-3.22l-1.08-3.22Z"/><path class="cls-14" d="M44.24,106.85s.65,5.61.28,5.75-1.12-3.21-1.12-3.21l.83-2.54Z"/><path class="cls-13" d="M103.85,23.15H6.96S-1.06,94.09,55.4,94.09,103.85,23.15,103.85,23.15Z"/><path class="cls-6" d="M91.64,73.59c-10.49,12.29-11.35,6.55-26.64,5.73s-16.65,5.73-31.4,0c-10.49-4.08-21.05-23.48-26.27-34.34,2.49,20.85,12.44,49.11,48.08,49.11,21.36,0,33.49-10.16,40.31-22.78-.66-.76-1.93-.24-4.08,2.28Z"/><g class="cls-34"><path class="cls-14" d="M18.99,76.03c.96,2.62,6.63,9.09,12.09,12.17,5.46,3.09,12.33,6.49,25.58,6.34,7.67-.09,5.45-1.66.3-2.19-12.93-1.33-13.57-7.1-21.23-6.24s-13.64-6.1-16.74-10.08Z"/><path class="cls-23" d="M7.33,34.47s2.43,45.85,25.23,57.89c22.8,12.03,40.65,5.82,49.44-3.32,8.79-9.14,11.94-22.29,11.94-22.29,0,0-10.25-42.37-86.61-32.28Z"/></g><path class="cls-3" d="M102.13,25.34h-20.48c-15.51,8.95-.96,14.4-6.21,19.86-5.25,5.46-36.11-1.36-48.94,24.71,0,0,4.98,10.4,18.48,9.96,0-16.18,7.33-27.82,23.72-25.7,22.44,2.91,29.5-3.2,24.15-11.98-3.21-5.28-1.24-15.26,9.28-16.85Z"/><path class="cls-14" d="M102.13,36s-.36,13.14,0,14.27,1.37-14.27,1.37-14.27h-1.37Z"/><path class="cls-14" d="M8.66,35.93s1.27,14.9.77,16.68-2.87-16.02-2.87-16.02l2.1-.66Z"/><path class="cls-13" d="M-2.42,46.8c0,1.56,11.18,4.13,11.18-9.28,0-7.89-7.4-18.42-21.65-12.18-16.05,7.03-13.51,30.7,5.75,44.41,16.01,11.4,46.66,28.15,46.38,37.1s-5.72,7.5-5.72,8.75,10.71,2.37,10.71-8.75c0-12.75-22.32-24.79-44.84-41.73-14.14-10.64-20.69-30.75-7.83-34.86,7.83-2.5,12.39,3.23,12.39,7.31,0,9.71-6.39,7.66-6.39,9.23Z"/><path class="cls-3" d="M4.15,28.7s-3.54-4.84-8.29-4.79-12.19,1.8-15.64,8.46,4.62-4.57,11.68-5.45c8.81-1.1,13.62,4.72,12.24,1.78Z"/><g class="cls-39"><path class="cls-6" d="M.99,50.2c-2.73,0-4.38-2.76-1.14-3.4,6.71-1.33,8.87-10.93,9.2-5.87s-3.25,9.27-8.06,9.27Z"/><path class="cls-6" d="M-16.61,57.14c0-3,8.11,9.12,20.19,16.68,13.42,8.4,38.17,26.03,33.62,29.5-4.55,3.47-53.81-38.28-53.81-46.18Z"/><path class="cls-6" d="M44.85,106.22c-.41-1.65-1.04-2.15-1.36,0s-2.32,9.09-7.19,9.66,1.39,2.08,4.27,1.15,6.31-2.72,4.27-10.81Z"/><path class="cls-24" d="M-5.94,48.75s7.98-.21,11.44-5.58c4.38-6.81-.02-18.44-12.3-17.83-14.87.74-16.63,18.99-6.14,30.74,8.13,9.11,20.38,10.21,19.52,9.91s-12.51-17.24-12.51-17.24Z"/></g><path class="cls-13" d="M113.23,46.8c0,1.56-11.18,4.13-11.18-9.28,0-7.89,7.4-18.42,21.65-12.18,16.05,7.03,13.51,30.7-5.75,44.41-16.01,11.4-46.66,28.15-46.38,37.1s5.72,7.5,5.72,8.75-10.71,2.37-10.71-8.75c0-12.75,22.32-24.79,44.84-41.73,14.14-10.64,20.69-30.75,7.83-34.86-7.83-2.5-12.39,3.23-12.39,7.31,0,9.71,6.39,7.66,6.39,9.23Z"/><path class="cls-3" d="M106.66,28.7s3.54-4.84,8.29-4.79,12.19,1.8,15.64,8.46-4.62-4.57-11.68-5.45c-8.81-1.1-13.62,4.72-12.24,1.78Z"/><g class="cls-37"><path class="cls-6" d="M109.81,50.2c2.73,0,4.38-2.76,1.14-3.4-6.71-1.33-8.87-10.93-9.2-5.87s3.25,9.27,8.06,9.27Z"/><path class="cls-6" d="M127.42,57.14c0-3-8.11,9.12-20.19,16.68-13.42,8.4-38.17,26.03-33.62,29.5s53.81-38.28,53.81-46.18Z"/><path class="cls-6" d="M89.82,79.88c4.72,0-17.62,16.72-21.12,16.33s17.62-16.33,21.12-16.33Z"/><path class="cls-3" d="M105.29,71.75c-3.95,2.37-26.69,19.63-31.24,23.94s-7.08,9.29-4.57,13.7c2.39-1.43-3.24-3.11,2.09-10.08.97-1.27,1.78-.77,4.23-4.11.99-1.34,5.87-5.72,12.02-9.46,14.91-9.05,21.61-16.49,17.47-14Z"/><path class="cls-6" d="M65.96,106.22c.41-1.65,1.04-2.15,1.36,0s2.32,9.09,7.19,9.66-1.39,2.08-4.27,1.15-6.31-2.72-4.27-10.81Z"/><path class="cls-2" d="M76.07,120.82s-15.95-9.39-6.48-19.37,20.12-12.85,33.91-18.06c13.79-5.21-27.43,37.43-27.43,37.43Z"/></g></g></g></g></svg>