<?xml version="1.0" encoding="UTF-8"?>
<svg xmlns="http://www.w3.org/2000/svg" width="200" height="180" xmlns:xlink="http://www.w3.org/1999/xlink" viewBox="0 0 200 180">
  <defs>
    <clipPath id="b">
      <rect width="200" height="180" rx="10" ry="10" fill="none"/>
    </clipPath>
    <pattern id="c" data-name="40 % 10 ppp 2" x="0" y="0" width="4.931" height="4.931" patternTransform="translate(9539.593 10328.216) scale(2.216)" patternUnits="userSpaceOnUse" viewBox="0 0 4.931 4.931">
      <g>
        <rect y="0" width="4.931" height="4.931" fill="none"/>
        <g>
          <circle cx="4.412" cy="4.412" r=".519" fill="#1d1061"/>
          <circle cx="1.817" cy="4.412" r=".519" fill="#1d1061"/>
          <path d="M4.412,2.336c.287,0,.519-.232.519-.519s-.233-.519-.519-.519-.519.232-.519.519.232.519.519.519Z" fill="#1d1061"/>
          <path d="M1.817,2.336c.287,0,.519-.232.519-.519s-.233-.519-.519-.519-.519.232-.519.519.232.519.519.519Z" fill="#1d1061"/>
          <path d="M.519,3.633c.287,0,.519-.232.519-.519s-.233-.519-.519-.519S0,2.827,0,3.114s.232.519.519.519Z" fill="#1d1061"/>
          <circle cx="3.114" cy="3.114" r=".519" fill="#1d1061"/>
          <path d="M.519,1.038c.287,0,.519-.232.519-.519S.806,0,.519,0,0,.232,0,.519s.232.519.519.519Z" fill="#1d1061"/>
          <circle cx="3.114" cy=".519" r=".519" fill="#1d1061"/>
        </g>
      </g>
    </pattern>
    <linearGradient id="d" data-name="Dégradé sans nom 39" x1="45.598" y1="-35.667" x2="45.598" y2="197.963" gradientUnits="userSpaceOnUse">
      <stop offset="0" stop-color="#ffa544"/>
      <stop offset="1" stop-color="#ffcb57" stop-opacity="0"/>
    </linearGradient>
    <radialGradient id="e" data-name="Dégradé sans nom 18" cx="49.412" cy="263.813" fx="49.412" fy="263.813" r="263.456" gradientUnits="userSpaceOnUse">
      <stop offset="0" stop-color="#dedede"/>
      <stop offset="1" stop-color="#dedede" stop-opacity="0"/>
    </radialGradient>
    <radialGradient id="f" data-name="Dégradé sans nom 18" cx="49.412" cy="263.813" fx="49.412" fy="263.813" r="320.078" xlink:href="#e"/>
    <radialGradient id="g" data-name="Dégradé sans nom 18" cx="37.311" cy="258.484" fx="37.311" fy="258.484" r="333.414" xlink:href="#e"/>
    <radialGradient id="h" data-name="Dégradé sans nom 18" cx="49.412" cy="263.813" fx="49.412" fy="263.813" r="298.973" xlink:href="#e"/>
    <radialGradient id="i" data-name="Dégradé sans nom 18" cx="1.453" cy="220.161" fx="1.453" fy="220.161" r="339.248" gradientTransform="translate(17.467 31.379) rotate(-6.244)" xlink:href="#e"/>
    <radialGradient id="j" data-name="Dégradé sans nom 18" cx="49.412" cy="263.813" fx="49.412" fy="263.813" r="308.194" xlink:href="#e"/>
    <radialGradient id="k" data-name="Dégradé sans nom 18" cx="49.412" cy="263.813" fx="49.412" fy="263.813" r="356.524" xlink:href="#e"/>
    <radialGradient id="l" data-name="Dégradé sans nom 18" cy="263.813" fy="263.813" r="337.907" xlink:href="#e"/>
    <radialGradient id="m" data-name="Dégradé sans nom 18" cx="626.548" fx="626.548" gradientTransform="translate(668.739) rotate(-180) scale(1 -1)" xlink:href="#e"/>
    <radialGradient id="n" data-name="Dégradé sans nom 18" cx="626.548" cy="263.813" fx="626.548" fy="263.813" r="320.078" gradientTransform="translate(668.739) rotate(-180) scale(1 -1)" xlink:href="#e"/>
    <radialGradient id="o" data-name="Dégradé sans nom 18" cx="614.447" cy="258.484" fx="614.447" fy="258.484" r="333.414" gradientTransform="translate(668.739) rotate(-180) scale(1 -1)" xlink:href="#e"/>
    <radialGradient id="p" data-name="Dégradé sans nom 18" cx="626.548" cy="263.813" fx="626.548" fy="263.813" r="298.973" gradientTransform="translate(668.739) rotate(-180) scale(1 -1)" xlink:href="#e"/>
    <radialGradient id="q" data-name="Dégradé sans nom 18" cx="590.775" cy="267.388" fx="590.775" fy="267.388" r="339.248" gradientTransform="translate(657.192 26.59) rotate(-175.807) scale(1 -1)" xlink:href="#e"/>
    <radialGradient id="r" data-name="Dégradé sans nom 18" cx="626.548" cy="263.813" fx="626.548" fy="263.813" r="308.194" gradientTransform="translate(668.739) rotate(-180) scale(1 -1)" xlink:href="#e"/>
    <radialGradient id="s" data-name="Dégradé sans nom 18" cx="626.548" cy="263.813" fx="626.548" fy="263.813" r="356.524" gradientTransform="translate(668.739) rotate(-180) scale(1 -1)" xlink:href="#e"/>
    <radialGradient id="t" data-name="Dégradé sans nom 18" cx="626.548" cy="263.813" fx="626.548" fy="263.813" r="337.907" gradientTransform="translate(668.739) rotate(-180) scale(1 -1)" xlink:href="#e"/>
    <pattern id="u" data-name="40 % 10 ppp 2" patternTransform="translate(9548.637 10328.216) scale(2.216)" xlink:href="#c"/>
    <clipPath id="v">
      <path d="M59.41,114.213h-8.013c-3.278,37.882-37.153,32.418-37.153,32.418l.364,11.292,40.796-.364,40.796.364.364-8.978s-34.604,3.879-37.153-34.732Z" fill="none"/>
    </clipPath>
    <pattern id="w" data-name="40 % 10 ppp 2" patternTransform="translate(1447.422 1598.045) scale(1.187)" xlink:href="#c"/>
    <pattern id="x" data-name="40 % 10 ppp 2" patternTransform="translate(1447.422 1598.045) scale(1.187)" xlink:href="#c"/>
    <pattern id="y" data-name="40 % 10 ppp 2" patternTransform="translate(1447.422 1598.045) scale(1.187)" xlink:href="#c"/>
    <clipPath id="z">
      <path d="M103.848,23.147H6.958S-1.056,94.093,55.403,94.093,103.848,23.147,103.848,23.147Z" fill="none"/>
    </clipPath>
    <pattern id="aa" data-name="40 % 10 ppp 2" patternTransform="translate(1447.422 1598.045) scale(1.187)" xlink:href="#c"/>
    <clipPath id="ab">
      <path d="M-2.423,46.798c0,1.562,11.184,4.13,11.184-9.281,0-7.894-7.401-18.422-21.651-12.181-16.05,7.03-13.513,30.699,5.754,44.413,16.012,11.397,46.656,28.15,46.384,37.098s-5.716,7.503-5.716,8.754,10.706,2.372,10.706-8.754c0-12.754-22.316-24.788-44.841-41.726-14.145-10.636-20.692-30.752-7.825-34.863,7.825-2.5,12.394,3.23,12.394,7.313,0,9.712-6.388,7.664-6.388,9.226Z" fill="none"/>
    </clipPath>
    <pattern id="ac" data-name="40 % 10 ppp 2" patternTransform="translate(1447.422 1598.045) scale(1.187)" xlink:href="#c"/>
    <clipPath id="ad">
      <path d="M113.229,46.798c0,1.562-11.184,4.13-11.184-9.281,0-7.894,7.401-18.422,21.651-12.181,16.05,7.03,13.513,30.699-5.754,44.413-16.012,11.397-46.656,28.15-46.384,37.098s5.716,7.503,5.716,8.754-10.706,2.372-10.706-8.754c0-12.754,22.316-24.788,44.841-41.726,14.145-10.636,20.692-30.752,7.825-34.863-7.825-2.5-12.394,3.23-12.394,7.313,0,9.712,6.388,7.664,6.388,9.226Z" fill="none"/>
    </clipPath>
    <pattern id="ae" data-name="40 % 10 ppp 2" patternTransform="translate(1447.422 1598.045) scale(1.187)" xlink:href="#c"/>
  </defs>
  <g isolation="isolate">
    <g id="a" data-name="Calque 1">
      <g clip-path="url(#b)">
        <g>
          <rect x="-184.894" y="-98.116" width="464" height="360" rx="16.003" ry="16.003" fill="#ffcb57"/>
          <g>
            <rect x="-192.894" y="-106.116" width="480" height="371.341" fill="url(#c)" mix-blend-mode="overlay" opacity=".25"/>
            <rect x="-206.803" y="-109.488" width="504.801" height="380.078" fill="url(#d)"/>
            <g mix-blend-mode="overlay">
              <polygon points="39.885 267.266 -323.149 138.748 -311.426 107.484 45.536 252.194 39.885 267.266" fill="url(#e)"/>
              <polygon points="366.641 32.38 58.179 262.947 48.305 250.235 346.16 6.01 366.641 32.38" fill="url(#f)"/>
              <polygon points="23.435 263.531 -206.113 -101.915 -97.325 -157.457 52.079 247.371 23.435 263.531" fill="url(#g)"/>
              <polygon points="472.352 176.906 58.018 293.641 38.649 238.033 432.174 61.557 472.352 176.906" fill="url(#h)"/>
              <polygon points="28.327 254.888 -64.027 -109.346 75.989 -124.666 58.804 251.554 28.327 254.888" fill="url(#i)"/>
              <polygon points="33.586 280.323 -275.455 23.942 -252.093 -3.707 44.848 266.994 33.586 280.323" fill="url(#j)"/>
              <polygon points="39.668 255.307 186.714 -118.344 220.276 -104.785 55.847 261.843 39.668 255.307" fill="url(#k)"/>
              <polygon points="36.896 246.175 321.298 -112.458 365 -75.532 57.964 263.976 36.896 246.175" fill="url(#l)"/>
            </g>
            <g mix-blend-mode="overlay">
              <polygon points="51.719 267.266 414.752 138.748 403.03 107.484 46.067 252.194 51.719 267.266" fill="url(#m)"/>
              <polygon points="-275.037 32.38 33.425 262.947 43.298 250.235 -254.556 6.01 -275.037 32.38" fill="url(#n)"/>
              <polygon points="68.168 263.531 297.716 -101.915 188.928 -157.457 39.525 247.371 68.168 263.531" fill="url(#o)"/>
              <polygon points="-380.749 176.906 33.585 293.641 52.954 238.033 -340.571 61.557 -380.749 176.906" fill="url(#p)"/>
              <polygon points="63.142 254.356 142.399 -112.951 1.925 -123.249 32.565 252.114 63.142 254.356" fill="url(#q)"/>
              <polygon points="58.018 280.323 367.058 23.942 343.696 -3.707 46.755 266.994 58.018 280.323" fill="url(#r)"/>
              <polygon points="51.936 255.307 -95.111 -118.344 -128.673 -104.785 35.756 261.843 51.936 255.307" fill="url(#s)"/>
              <polygon points="54.708 246.175 -229.695 -112.458 -273.397 -75.532 33.64 263.976 54.708 246.175" fill="url(#t)"/>
            </g>
          </g>
        </g>
        <g>
          <path d="M103.27,8.686c1.899,0,3.72.368,5.391,1.04,5.919-1.376,12.798-.902,20.258,2.365,10.854,4.753,17.785,14.318,19.017,26.242,1.626,15.748-6.875,32.3-22.186,43.198-4.296,3.058-9.348,6.327-14.696,9.787-6.323,4.091-16.777,10.856-22.652,15.683,1.952,2.732,2.755,5.856,2.755,8.601,0,5.781-3.526,12.296-11.354,14.485,2.431,2.152,5.809,3.754,10.53,4.315,3.683-.027,5.868-.06,5.9-.061,3.986-.069,7.837,1.534,10.615,4.406,2.777,2.872,4.243,6.765,4.049,10.756l-.467,9.596c-.376,7.708-6.736,13.757-14.442,13.758h-.086l-81.5-.473c-.045,0-.09-.001-.134-.002h-.094c-7.857.072-14.343-6.136-14.597-13.993l-.14-4.323-.745-6.018c-.548-4.427.978-8.86,4.136-12.012s7.593-4.67,12.02-4.113c1.344.169,2.833.333,4.437.49,4.047-.183,7.102-1.176,9.424-2.686-7.032-2.478-10.215-8.634-10.215-14.126,0-2.745.803-5.869,2.755-8.601-5.874-4.827-16.328-11.592-22.652-15.683-5.348-3.46-10.399-6.729-14.696-9.787-15.311-10.898-23.812-27.45-22.186-43.198,1.231-11.923,8.162-21.488,19.017-26.242,7.458-3.266,14.339-3.74,20.258-2.365,1.671-.672,3.491-1.04,5.391-1.04h96.89Z" fill="url(#u)" mix-blend-mode="color-dodge"/>
          <path d="M121.694,27.338c-9.774-4.281-16.325-.672-19.476,4.565-.08-4.172-.371-6.754-.371-6.754H4.957s-.29,2.582-.371,6.754c-3.152-5.236-9.702-8.845-19.476-4.565-16.05,7.03-13.513,30.699,5.753,44.413,16.012,11.396,46.656,28.15,46.384,37.098-.272,8.949-5.716,7.503-5.716,8.754,0,1.043,7.436,1.989,9.912-4.169,1.507,3.112,4.185,5.542,7.469,6.722-.161.871-.623,3.313-.993,4.847-.066.252-.128.507-.197.754-.002.007-.004.015-.006.022-7.661,27.34-35.474,22.854-35.474,22.854l.364,11.292,40.796-.364,40.796.364.364-8.978s-32.17,3.6-36.756-30.759c3.323-1.168,6.035-3.614,7.555-6.753,2.475,6.159,9.912,5.212,9.912,4.169,0-1.251-5.444.195-5.716-8.754-.272-8.949,30.372-25.702,46.384-37.098,19.267-13.713,21.803-37.383,5.754-44.413ZM65.944,103.277c-1.138-3.259-3.502-5.934-6.547-7.477,7.293-.712,13.362-2.724,18.407-5.645-5.571,4.531-9.808,8.833-11.86,13.122ZM-10.429,32.26c7.825-2.5,12.394,3.23,12.394,7.313,0,9.712-6.388,7.664-6.388,9.226,0,1.204,6.637,2.997,9.684-2.376,1.407,12.345,5.409,27.43,15.857,37.718-7.141-5.194-15.415-10.772-23.721-17.018-14.145-10.636-20.692-30.752-7.825-34.863ZM29,90.154c5.025,2.91,11.068,4.917,18.324,5.637-.275.156-.659.389-1.109.69-.299.193-.587.4-.869.615-.022.016-.042.031-.064.048-.167.129-.334.258-.494.395-.291.238-.585.49-.878.767,0,0,.013.004.035.01-1.371,1.388-2.427,3.08-3.084,4.961-2.052-4.289-6.289-8.591-11.86-13.122ZM109.407,67.123c-8.306,6.246-16.58,11.823-23.721,17.018,10.448-10.287,14.45-25.372,15.857-37.717,3.047,5.372,9.684,3.58,9.684,2.376,0-1.562-6.388.486-6.388-9.226,0-4.083,4.568-9.813,12.394-7.313,12.867,4.111,6.319,24.227-7.825,34.863Z" fill="#1d1061"/>
          <g>
            <g>
              <path d="M59.41,114.213h-8.013c-3.278,37.882-37.153,32.418-37.153,32.418l.364,11.292,40.796-.364,40.796.364.364-8.978s-34.604,3.879-37.153-34.732Z" fill="#ffcb57"/>
              <g clip-path="url(#v)">
                <path d="M61.228,117.328s-4.363,2.077-10.683,0c0,0-.917,7.802-3.334,12.171,0,0,10.787-.595,14.017-12.171Z" fill="#ffa544"/>
                <path d="M59.525,117.826h-8.552s-.815,4.488-1.268,5.99c0,0,9.046-2.441,9.819-5.99Z" fill="#1d1061"/>
                <path d="M60.489,125.767c.621,2.44,3.061,11.336,9.444,16.088,7.751,5.77,14.472,6.755,11.172,6.486-8.685-.709-19.613-7.179-23.253-21.409-.183-.715-.056-1.496.493-1.938.012-.01.025-.02.037-.03.778-.63,1.845-.225,2.107.803Z" fill="#fff" opacity=".8"/>
                <path d="M65.154,117.366s-.593,9.058-14.051,15.595c0,0-7.696,13.636-27.994,10.217l27.526-30.037,11.788-.539,2.732,4.764Z" fill="url(#w)" mix-blend-mode="overlay" opacity=".25"/>
              </g>
              <path d="M96.563,158.396l.467-9.595s-56.474.862-83.41-2.529l1.442,11.651,81.5.473Z" fill="url(#x)" mix-blend-mode="overlay" opacity=".25"/>
              <line x1="94.969" y1="149.618" x2="57.178" y2="149.618" fill="none" stroke="#ffa544" stroke-linecap="round" stroke-linejoin="round" stroke-width=".8"/>
              <path d="M38.232,149.233l-26.343-2.374" fill="none" stroke="#ffa544" stroke-linecap="round" stroke-linejoin="round" stroke-width=".8"/>
              <path d="M43.739,149.663l-1.625-.258" fill="none" stroke="#ffa544" stroke-linecap="round" stroke-linejoin="round" stroke-width=".8"/>
            </g>
            <g>
              <circle cx="55.403" cy="105.653" r="13.295" fill="#ffcb57"/>
              <circle cx="51.849" cy="108.408" r="8.443" fill="#ffa544"/>
              <path d="M64.172,96.838c-3.277-1.892-8.871-1.276-6.756,2.956s5.994,5.228,8.122,2.831.034-4.978-1.366-5.787Z" fill="#fff" opacity=".8"/>
              <circle cx="54.246" cy="107.967" r="9.399" fill="url(#y)" mix-blend-mode="overlay" opacity=".25"/>
              <path d="M46.327,106.576c-.173,2.097.225,4.239,1.141,6.133" fill="none" stroke="#ffcb57" stroke-linecap="round" stroke-linejoin="round" stroke-width=".8"/>
              <path d="M48.148,109.399c.344,1.551.977,3.038,1.856,4.361" fill="none" stroke="#ffcb57" stroke-linecap="round" stroke-linejoin="round" stroke-width=".8"/>
              <path d="M50.634,110.903c.748,1.175,1.559,2.311,2.429,3.399" fill="none" stroke="#ffcb57" stroke-linecap="round" stroke-linejoin="round" stroke-width=".8"/>
              <path d="M61.382,93.542s-4.835.76-11.604,0c0,0-2.003.995-3.868,2.763,0,0,10.015,2.97,15.472-2.763Z" fill="#ffa544"/>
              <path d="M60.95,93.554s-6.866,1.929-12.802,1.935c-1.861.002,2.878-2.508,2.878-2.508l9.924.573Z" fill="#1d1061"/>
              <path d="M66.59,106.166s-1.409,6.175-.714,6.437,1.792-3.218,1.792-3.218l-1.078-3.218Z" fill="#1d1061"/>
              <path d="M44.238,106.848s.651,5.615.285,5.754-1.117-3.211-1.117-3.211l.832-2.543Z" fill="#1d1061"/>
            </g>
            <g>
              <path d="M103.848,23.147H6.958S-1.056,94.093,55.403,94.093,103.848,23.147,103.848,23.147Z" fill="#ffcb57"/>
              <path d="M91.639,73.589c-10.493,12.286-11.35,6.553-26.639,5.734s-16.655,5.734-31.399,0c-10.489-4.079-21.05-23.481-26.274-34.341,2.492,20.849,12.439,49.112,48.076,49.112,21.358,0,33.486-10.155,40.315-22.78-.658-.763-1.926-.244-4.078,2.276Z" fill="#ffa544"/>
              <g clip-path="url(#z)">
                <path d="M18.986,76.034c.964,2.618,6.63,9.087,12.088,12.173,5.458,3.085,12.332,6.491,25.576,6.337,7.667-.089,5.452-1.656.301-2.186-12.931-1.329-13.571-7.101-21.226-6.244s-13.642-6.098-16.739-10.08Z" fill="#1d1061"/>
                <path d="M7.327,34.472s2.43,45.852,25.232,57.887c22.802,12.035,40.651,5.821,49.443-3.317,8.792-9.139,11.939-22.294,11.939-22.294,0,0-10.251-42.368-86.614-32.275Z" fill="url(#aa)" mix-blend-mode="overlay" opacity=".25"/>
              </g>
              <path d="M102.132,25.336h-20.477c-15.51,8.955-.962,14.397-6.215,19.857-5.253,5.461-36.105-1.362-48.938,24.711,0,0,4.98,10.404,18.48,9.964,0-16.181,7.326-27.823,23.716-25.699,22.442,2.908,29.496-3.199,24.151-11.979-3.214-5.28-1.236-15.26,9.283-16.854Z" fill="#fff" opacity=".8"/>
              <path d="M102.132,36.002s-.363,13.143,0,14.273,1.367-14.273,1.367-14.273h-1.367Z" fill="#1d1061"/>
              <path d="M8.664,35.927s1.272,14.898.77,16.683-2.867-16.023-2.867-16.023l2.098-.659Z" fill="#1d1061"/>
            </g>
            <g>
              <path d="M-2.423,46.798c0,1.562,11.184,4.13,11.184-9.281,0-7.894-7.401-18.422-21.651-12.181-16.05,7.03-13.513,30.699,5.754,44.413,16.012,11.397,46.656,28.15,46.384,37.098s-5.716,7.503-5.716,8.754,10.706,2.372,10.706-8.754c0-12.754-22.316-24.788-44.841-41.726-14.145-10.636-20.692-30.752-7.825-34.863,7.825-2.5,12.394,3.23,12.394,7.313,0,9.712-6.388,7.664-6.388,9.226Z" fill="#ffcb57"/>
              <path d="M4.148,28.698s-3.537-4.838-8.288-4.785-12.19,1.795-15.637,8.457,4.619-4.57,11.683-5.453c8.806-1.1,13.621,4.725,12.242,1.78Z" fill="#fff" opacity=".8"/>
              <g clip-path="url(#ab)">
                <path d="M.992,50.195c-2.727,0-4.375-2.755-1.138-3.397,6.713-1.332,8.873-10.933,9.2-5.873s-3.249,9.271-8.062,9.271Z" fill="#ffa544"/>
                <path d="M-16.615,57.137c0-2.997,8.112,9.122,20.187,16.677,13.423,8.399,38.173,26.033,33.619,29.502-4.554,3.469-53.806-38.285-53.806-46.179Z" fill="#ffa544"/>
                <path d="M44.847,106.222c-.414-1.646-1.038-2.147-1.357,0s-2.323,9.089-7.189,9.662,1.39,2.075,4.273,1.145,6.307-2.72,4.273-10.807Z" fill="#ffa544"/>
                <path d="M-5.943,48.749s7.985-.206,11.441-5.58c4.38-6.811-.022-18.445-12.305-17.832-14.869.742-16.631,18.995-6.143,30.74,8.131,9.106,20.379,10.207,19.517,9.914s-12.509-17.242-12.509-17.242Z" fill="url(#ac)" mix-blend-mode="overlay" opacity=".25"/>
              </g>
            </g>
            <g>
              <path d="M113.229,46.798c0,1.562-11.184,4.13-11.184-9.281,0-7.894,7.401-18.422,21.651-12.181,16.05,7.03,13.513,30.699-5.754,44.413-16.012,11.397-46.656,28.15-46.384,37.098s5.716,7.503,5.716,8.754-10.706,2.372-10.706-8.754c0-12.754,22.316-24.788,44.841-41.726,14.145-10.636,20.692-30.752,7.825-34.863-7.825-2.5-12.394,3.23-12.394,7.313,0,9.712,6.388,7.664,6.388,9.226Z" fill="#ffcb57"/>
              <path d="M106.658,28.698s3.537-4.838,8.288-4.785,12.19,1.795,15.637,8.457-4.619-4.57-11.683-5.453c-8.806-1.1-13.621,4.725-12.242,1.78Z" fill="#fff" opacity=".8"/>
              <g clip-path="url(#ad)">
                <path d="M109.814,50.195c2.727,0,4.375-2.755,1.138-3.397-6.713-1.332-8.873-10.933-9.2-5.873s3.249,9.271,8.062,9.271Z" fill="#ffa544"/>
                <path d="M127.421,57.137c0-2.997-8.112,9.122-20.187,16.677-13.423,8.399-38.173,26.033-33.619,29.502s53.806-38.285,53.806-46.179Z" fill="#ffa544"/>
                <path d="M89.819,79.882c4.715,0-17.62,16.716-21.121,16.332s17.623-16.332,21.121-16.332Z" fill="#ffa544"/>
                <path d="M105.288,71.755c-3.952,2.369-26.687,19.626-31.235,23.944s-7.08,9.29-4.573,13.7c2.386-1.432-3.242-3.114,2.091-10.077.974-1.272,1.777-.774,4.229-4.108.985-1.339,5.875-5.724,12.023-9.457,14.907-9.051,21.615-16.488,17.465-14.001Z" fill="#fff" opacity=".8"/>
                <path d="M65.959,106.222c.414-1.646,1.038-2.147,1.357,0s2.323,9.089,7.189,9.662-1.39,2.075-4.273,1.145-6.307-2.72-4.273-10.807Z" fill="#ffa544"/>
                <path d="M76.073,120.824s-15.948-9.392-6.485-19.374,20.116-12.847,33.911-18.058c13.794-5.211-27.426,37.432-27.426,37.432Z" fill="url(#ae)" mix-blend-mode="overlay" opacity=".25"/>
              </g>
            </g>
          </g>
        </g>
      </g>
    </g>
  </g>
</svg>