<?xml version="1.0" encoding="UTF-8"?>
<svg xmlns="http://www.w3.org/2000/svg" width="250" height="190" xmlns:xlink="http://www.w3.org/1999/xlink" viewBox="0 0 250 190">
  <defs>
    <clipPath id="b">
      <rect x="0" width="250" height="190" rx="10" ry="10" fill="none"/>
    </clipPath>
    <pattern id="c" data-name="40 % 10 ppp" x="0" y="0" width="4.931" height="4.931" patternTransform="translate(1310.607 1447.818) scale(1.17)" patternUnits="userSpaceOnUse" viewBox="0 0 4.931 4.931">
      <g>
        <rect y="0" width="4.931" height="4.931" fill="none"/>
        <g>
          <circle cx="4.412" cy="4.412" r=".519" fill="#1d1061"/>
          <circle cx="1.817" cy="4.412" r=".519" fill="#1d1061"/>
          <path d="M4.412,2.336c.287,0,.519-.232.519-.519s-.233-.519-.519-.519-.519.232-.519.519.232.519.519.519Z" fill="#1d1061"/>
          <path d="M1.817,2.336c.287,0,.519-.232.519-.519s-.233-.519-.519-.519-.519.232-.519.519.232.519.519.519Z" fill="#1d1061"/>
          <path d="M.519,3.633c.287,0,.519-.232.519-.519s-.233-.519-.519-.519S0,2.827,0,3.114s.232.519.519.519Z" fill="#1d1061"/>
          <circle cx="3.114" cy="3.114" r=".519" fill="#1d1061"/>
          <path d="M.519,1.038c.287,0,.519-.232.519-.519S.806,0,.519,0,0,.232,0,.519s.232.519.519.519Z" fill="#1d1061"/>
          <circle cx="3.114" cy=".519" r=".519" fill="#1d1061"/>
        </g>
      </g>
    </pattern>
    <linearGradient id="d" data-name="Dégradé sans nom 39" x1="124.204" y1="32.959" x2="124.204" y2="156.264" gradientUnits="userSpaceOnUse">
      <stop offset="0" stop-color="#ffa544"/>
      <stop offset="1" stop-color="#ffcb57" stop-opacity="0"/>
    </linearGradient>
    <radialGradient id="e" data-name="Dégradé sans nom 18" cx="126.217" cy="191.018" fx="126.217" fy="191.018" r="127.43" gradientUnits="userSpaceOnUse">
      <stop offset="0" stop-color="#dedede"/>
      <stop offset="1" stop-color="#dedede" stop-opacity="0"/>
    </radialGradient>
    <radialGradient id="f" data-name="Dégradé sans nom 18" cx="126.217" fx="126.217" r="130.518" xlink:href="#e"/>
    <radialGradient id="g" data-name="Dégradé sans nom 18" cx="126.217" fx="126.217" r="139.046" xlink:href="#e"/>
    <radialGradient id="h" data-name="Dégradé sans nom 19" cx="126.217" cy="191.018" fx="126.217" fy="191.018" r="168.93" gradientUnits="userSpaceOnUse">
      <stop offset="0" stop-color="#dedede"/>
      <stop offset="1" stop-color="#dedede" stop-opacity="0"/>
    </radialGradient>
    <radialGradient id="i" data-name="Dégradé sans nom 18" cx="119.831" cy="188.206" fx="119.831" fy="188.206" r="175.969" xlink:href="#e"/>
    <radialGradient id="j" data-name="Dégradé sans nom 18" cx="126.217" cy="191.018" fx="126.217" fy="191.018" r="157.791" xlink:href="#e"/>
    <radialGradient id="k" data-name="Dégradé sans nom 18" cx="88.092" cy="162.937" fx="88.092" fy="162.937" r="179.048" gradientTransform="translate(17.467 31.379) rotate(-6.244)" xlink:href="#e"/>
    <radialGradient id="l" data-name="Dégradé sans nom 18" cx="126.217" fx="126.217" r="162.658" xlink:href="#e"/>
    <radialGradient id="m" data-name="Dégradé sans nom 18" cx="126.217" fx="126.217" r="188.165" xlink:href="#e"/>
    <radialGradient id="n" data-name="Dégradé sans nom 18" cx="126.217" fx="126.217" r="178.34" xlink:href="#e"/>
    <radialGradient id="o" data-name="Dégradé sans nom 18" cx="546.333" fx="546.333" r="127.43" gradientTransform="translate(668.739) rotate(-180) scale(1 -1)" xlink:href="#e"/>
    <radialGradient id="p" data-name="Dégradé sans nom 18" cx="546.333" fx="546.333" r="130.518" gradientTransform="translate(668.739) rotate(-180) scale(1 -1)" xlink:href="#e"/>
    <radialGradient id="q" data-name="Dégradé sans nom 18" cx="546.333" fx="546.333" r="139.046" gradientTransform="translate(668.739) rotate(-180) scale(1 -1)" xlink:href="#e"/>
    <radialGradient id="r" data-name="Dégradé sans nom 19" cx="546.333" fx="546.333" r="168.93" gradientTransform="translate(668.739) rotate(-180) scale(1 -1)" xlink:href="#h"/>
    <radialGradient id="s" data-name="Dégradé sans nom 18" cx="539.947" cy="188.206" fx="539.947" fy="188.206" r="175.969" gradientTransform="translate(668.739) rotate(-180) scale(1 -1)" xlink:href="#e"/>
    <radialGradient id="t" data-name="Dégradé sans nom 18" cx="546.333" cy="191.018" fx="546.333" fy="191.018" r="157.791" gradientTransform="translate(668.739) rotate(-180) scale(1 -1)" xlink:href="#e"/>
    <radialGradient id="u" data-name="Dégradé sans nom 18" cx="518.569" cy="195.613" fx="518.569" fy="195.613" r="179.048" gradientTransform="translate(657.192 26.59) rotate(-175.807) scale(1 -1)" xlink:href="#e"/>
    <radialGradient id="v" data-name="Dégradé sans nom 18" cx="546.333" fx="546.333" r="162.658" gradientTransform="translate(668.739) rotate(-180) scale(1 -1)" xlink:href="#e"/>
    <radialGradient id="w" data-name="Dégradé sans nom 18" cx="546.333" fx="546.333" r="188.165" gradientTransform="translate(668.739) rotate(-180) scale(1 -1)" xlink:href="#e"/>
    <radialGradient id="x" data-name="Dégradé sans nom 18" cx="546.333" fx="546.333" r="178.34" gradientTransform="translate(668.739) rotate(-180) scale(1 -1)" xlink:href="#e"/>
    <pattern id="y" data-name="Nouveau motif" x="0" y="0" width="4.931" height="4.931" patternTransform="translate(1311.244 1448.102) scale(1.17)" patternUnits="userSpaceOnUse" viewBox="0 0 4.931 4.931">
      <g>
        <rect y="0" width="4.931" height="4.931" fill="none"/>
        <g>
          <circle cx="4.412" cy="4.412" r=".519" fill="#ffcb57"/>
          <circle cx="1.817" cy="4.412" r=".519" fill="#ffcb57"/>
          <path d="M4.412,2.336c.287,0,.519-.232.519-.519s-.233-.519-.519-.519-.519.232-.519.519.232.519.519.519Z" fill="#ffcb57"/>
          <path d="M1.817,2.336c.287,0,.519-.232.519-.519s-.233-.519-.519-.519-.519.232-.519.519.232.519.519.519Z" fill="#ffcb57"/>
          <path d="M.519,3.633c.287,0,.519-.232.519-.519s-.233-.519-.519-.519S0,2.827,0,3.114s.232.519.519.519Z" fill="#ffcb57"/>
          <circle cx="3.114" cy="3.114" r=".519" fill="#ffcb57"/>
          <path d="M.519,1.038c.287,0,.519-.232.519-.519S.806,0,.519,0,0,.232,0,.519s.232.519.519.519Z" fill="#ffcb57"/>
          <circle cx="3.114" cy=".519" r=".519" fill="#ffcb57"/>
        </g>
      </g>
    </pattern>
    <pattern id="z" data-name="40 % 10 ppp" patternTransform="translate(-1068.495 -1127.57) scale(.866)" xlink:href="#c"/>
    <pattern id="aa" data-name="40 % 10 ppp" patternTransform="translate(-1068.495 -1127.57) scale(.866)" xlink:href="#c"/>
    <pattern id="ab" data-name="40 % 10 ppp" patternTransform="translate(-1068.495 -1127.57) scale(.866)" xlink:href="#c"/>
    <clipPath id="ac">
      <path d="M76.058,114.099l-2.257.475-2.257.475c2.646,21.724-17.081,22.663-17.081,22.663l1.544,6.316,22.933-5.042,23.019-4.632-.859-5.1s-19.029,6.287-25.043-15.156Z" fill="none"/>
    </clipPath>
    <pattern id="ad" data-name="40 % 10 ppp" patternTransform="translate(-1068.495 -1127.57) scale(.866)" xlink:href="#c"/>
    <pattern id="ae" data-name="40 % 10 ppp" patternTransform="translate(-1456.276 -3912.712) rotate(-11.889) scale(.683)" xlink:href="#c"/>
    <pattern id="af" data-name="40 % 10 ppp" patternTransform="translate(-1068.495 -1127.57) scale(.866)" xlink:href="#c"/>
    <clipPath id="ag">
      <path d="M90.287,57.541l-27.284,5.744-27.284,5.744s3.899,40.908,35.697,34.213c31.798-6.695,18.872-45.702,18.872-45.702Z" fill="none"/>
    </clipPath>
    <pattern id="ah" data-name="40 % 10 ppp" patternTransform="translate(-1068.495 -1127.57) scale(.866)" xlink:href="#c"/>
    <clipPath id="ai">
      <path d="M33.24,83.462c.185.88,6.789,1,5.199-6.553-.936-4.446-6.352-9.498-13.638-4.293-8.206,5.862-3.971,18.892,8.507,24.331,10.369,4.52,29.615,10.322,30.522,15.394s-2.33,4.904-2.181,5.608,6.311.067,4.992-6.2c-1.512-7.183-15.507-11.315-30.202-18.183-9.228-4.313-15.3-14.866-8.541-18.707,4.111-2.336,7.363.35,7.847,2.649,1.152,5.47-2.689,5.074-2.504,5.954Z" fill="none"/>
    </clipPath>
    <pattern id="aj" data-name="40 % 10 ppp" patternTransform="translate(-1068.495 -1127.57) scale(.866)" xlink:href="#c"/>
    <clipPath id="ak">
      <path d="M98.375,69.749c.185.88-5.809,3.652-7.399-3.901-.936-4.446,1.984-11.253,10.749-9.427,9.873,2.056,11.251,15.688,2.026,25.696-7.667,8.317-22.939,21.386-21.725,26.394s4.109,3.548,4.257,4.253-5.748,2.606-7.068-3.661c-1.512-7.183,9.629-16.607,20.307-28.817,6.705-7.668,8.008-19.773.273-20.563-4.704-.48-6.597,3.289-6.113,5.588,1.152,5.47,4.507,3.559,4.692,4.439Z" fill="none"/>
    </clipPath>
    <pattern id="al" data-name="40 % 10 ppp" patternTransform="translate(-1068.495 -1127.57) scale(.866)" xlink:href="#c"/>
    <pattern id="am" data-name="40 % 10 ppp" patternTransform="translate(-1066.02 -1126.784) scale(.866)" xlink:href="#c"/>
    <pattern id="an" data-name="40 % 10 ppp" patternTransform="translate(-1066.02 -1126.784) scale(.866)" xlink:href="#c"/>
    <pattern id="ao" data-name="40 % 10 ppp" patternTransform="translate(-1066.02 -1126.784) scale(.866)" xlink:href="#c"/>
    <clipPath id="ap">
      <path d="M182.396,120.032l-1.829-.404-1.829-.404c-5.314,16.959-20.224,11.052-20.224,11.052l-.972,5.19,18.656,3.945,18.583,4.277,1.071-4.061s-16.184-1.717-13.457-19.596Z" fill="none"/>
    </clipPath>
    <pattern id="aq" data-name="40 % 10 ppp" patternTransform="translate(-1066.02 -1126.784) scale(.866)" xlink:href="#c"/>
    <pattern id="ar" data-name="40 % 10 ppp" patternTransform="translate(-4658.036 -2939.082) rotate(12.451) scale(.555)" xlink:href="#c"/>
    <pattern id="as" data-name="40 % 10 ppp" patternTransform="translate(-1066.02 -1126.784) scale(.866)" xlink:href="#c"/>
    <clipPath id="at">
      <path d="M211.855,82.947l-22.111-4.882-22.111-4.882s-10.807,31.573,14.961,37.263c25.768,5.689,29.26-27.499,29.26-27.499Z" fill="none"/>
    </clipPath>
    <pattern id="au" data-name="40 % 10 ppp" patternTransform="translate(-1066.02 -1126.784) scale(.866)" xlink:href="#c"/>
    <clipPath id="av">
      <path d="M160.968,83.033c-.157.713,4.689,3.012,6.04-3.109.795-3.603-1.521-9.154-8.654-7.741-8.034,1.591-9.261,12.65-1.85,20.85,6.159,6.815,18.458,17.549,17.432,21.606s-3.365,2.848-3.491,3.419,4.647,2.162,5.769-2.917c1.285-5.821-7.687-13.562-16.261-23.563-5.384-6.28-6.345-16.121-.058-16.7,3.824-.353,5.331,2.723,4.92,4.587-.979,4.432-3.688,2.854-3.845,3.567Z" fill="none"/>
    </clipPath>
    <pattern id="aw" data-name="40 % 10 ppp" patternTransform="translate(-1066.02 -1126.784) scale(.866)" xlink:href="#c"/>
    <clipPath id="ax">
      <path d="M213.753,94.687c-.157.713-5.521.758-4.169-5.363.795-3.603,5.234-7.662,11.109-3.378,6.617,4.826,3.074,15.373-7.101,19.691-8.456,3.588-24.131,8.146-24.909,12.258s1.853,4.001,1.727,4.571-5.125.004-4.004-5.074c1.285-5.821,12.683-9.065,24.671-14.526,7.528-3.429,12.543-11.95,7.085-15.123-3.32-1.93-5.982.225-6.394,2.089-.979,4.432,2.143,4.142,1.986,4.855Z" fill="none"/>
    </clipPath>
    <pattern id="ay" data-name="40 % 10 ppp" patternTransform="translate(-1066.02 -1126.784) scale(.866)" xlink:href="#c"/>
    <pattern id="az" data-name="40 % 10 ppp" patternTransform="translate(-1068.495 -1127.57) scale(.866)" xlink:href="#c"/>
    <pattern id="ba" data-name="40 % 10 ppp" patternTransform="translate(-1068.495 -1127.57) scale(.866)" xlink:href="#c"/>
    <pattern id="bb" data-name="40 % 10 ppp" patternTransform="translate(-1068.495 -1127.57) scale(.866)" xlink:href="#c"/>
    <clipPath id="bc">
      <path d="M127.111,100.585h-5.849c-2.393,27.652-27.12,23.663-27.12,23.663l.266,8.242,29.779-.266,29.779.266.266-6.553s-25.259,2.831-27.12-25.352Z" fill="none"/>
    </clipPath>
    <pattern id="bd" data-name="40 % 10 ppp" patternTransform="translate(-1068.495 -1127.57) scale(.866)" xlink:href="#c"/>
    <pattern id="be" data-name="40 % 10 ppp" patternTransform="translate(-1068.495 -1127.57) scale(.866)" xlink:href="#c"/>
    <pattern id="bf" data-name="40 % 10 ppp" patternTransform="translate(-1068.495 -1127.57) scale(.866)" xlink:href="#c"/>
    <clipPath id="bg">
      <path d="M159.548,34.112h-70.724s-5.849,51.787,35.362,51.787,35.362-51.787,35.362-51.787Z" fill="none"/>
    </clipPath>
    <pattern id="bh" data-name="40 % 10 ppp" patternTransform="translate(-1068.495 -1127.57) scale(.866)" xlink:href="#c"/>
    <clipPath id="bi">
      <path d="M81.977,51.376c0,1.14,8.164,3.014,8.164-6.774,0-5.762-5.402-13.447-15.804-8.891-11.715,5.131-9.864,22.409,4.2,32.419,11.688,8.319,34.056,20.548,33.857,27.08s-4.173,5.477-4.173,6.39,7.815,1.732,7.815-6.39c0-9.31-16.289-18.094-32.731-30.457-10.325-7.764-15.104-22.447-5.712-25.448,5.712-1.825,9.047,2.358,9.047,5.338,0,7.089-4.663,5.594-4.663,6.734Z" fill="none"/>
    </clipPath>
    <pattern id="bj" data-name="40 % 10 ppp" patternTransform="translate(-1068.495 -1127.57) scale(.866)" xlink:href="#c"/>
    <clipPath id="bk">
      <path d="M166.396,51.376c0,1.14-8.164,3.014-8.164-6.774,0-5.762,5.402-13.447,15.804-8.891,11.715,5.131,9.864,22.409-4.2,32.419-11.688,8.319-34.056,20.548-33.857,27.08s4.173,5.477,4.173,6.39-7.815,1.732-7.815-6.39c0-9.31,16.289-18.094,32.731-30.457,10.325-7.764,15.104-22.447,5.712-25.448-5.712-1.825-9.047,2.358-9.047,5.338,0,7.089,4.663,5.594,4.663,6.734Z" fill="none"/>
    </clipPath>
    <pattern id="bl" data-name="40 % 10 ppp" patternTransform="translate(-1068.495 -1127.57) scale(.866)" xlink:href="#c"/>
  </defs>
  <g isolation="isolate">
    <g id="a" data-name="Calque 10 - copie 3">
      <g clip-path="url(#b)">
        <g>
          <rect x="-6.747" width="263.494" height="190" fill="#ffcb57"/>
          <rect x="-1.667" y="-4.222" width="253.333" height="195.986" fill="url(#c)" mix-blend-mode="overlay" opacity=".25"/>
          <rect x="-9.007" y="-6.002" width="266.423" height="200.597" fill="url(#d)"/>
          <g mix-blend-mode="overlay">
            <polygon points="122.297 198.264 -32.201 205.308 -32.201 172.278 122.297 182.341 122.297 198.264" fill="url(#e)"/>
            <polygon points="282.123 205.308 127.625 198.264 127.625 182.341 282.123 172.278 282.123 205.308" fill="url(#f)"/>
            <polygon points="121.189 192.84 -70.412 125.011 -64.225 108.511 124.171 184.886 121.189 192.84" fill="url(#g)"/>
            <polygon points="293.643 68.873 130.844 190.561 125.633 183.852 282.834 54.956 293.643 68.873" fill="url(#h)"/>
            <polygon points="112.507 190.869 -8.643 -2.005 48.773 -31.319 127.625 182.341 112.507 190.869" fill="url(#i)"/>
            <polygon points="349.436 145.151 130.759 206.761 120.537 177.412 328.231 84.272 349.436 145.151" fill="url(#j)"/>
            <polygon points="115.089 186.308 66.347 -5.927 140.244 -14.012 131.174 184.548 115.089 186.308" fill="url(#k)"/>
            <polygon points="117.864 199.732 -45.24 64.42 -32.91 49.827 123.808 192.697 117.864 199.732" fill="url(#l)"/>
            <polygon points="121.074 186.529 198.682 -10.676 216.395 -3.52 129.614 189.978 121.074 186.529" fill="url(#m)"/>
            <polygon points="119.611 181.709 269.712 -7.569 292.778 11.919 130.73 191.104 119.611 181.709" fill="url(#n)"/>
          </g>
          <g mix-blend-mode="overlay">
            <polygon points="126.326 198.264 280.824 205.308 280.824 172.278 126.326 182.341 126.326 198.264" fill="url(#o)"/>
            <polygon points="-33.499 205.308 120.999 198.264 120.999 182.341 -33.499 172.278 -33.499 205.308" fill="url(#p)"/>
            <polygon points="127.435 192.84 319.036 125.011 312.849 108.511 124.452 184.886 127.435 192.84" fill="url(#q)"/>
            <polygon points="-45.02 68.873 117.779 190.561 122.99 183.852 -34.211 54.956 -45.02 68.873" fill="url(#r)"/>
            <polygon points="136.116 190.869 257.267 -2.005 199.851 -31.319 120.999 182.341 136.116 190.869" fill="url(#s)"/>
            <polygon points="-100.812 145.151 117.864 206.761 128.087 177.412 -79.607 84.272 -100.812 145.151" fill="url(#t)"/>
            <polygon points="133.463 186.027 175.294 -7.829 101.155 -13.265 117.325 184.844 133.463 186.027" fill="url(#u)"/>
            <polygon points="130.759 199.732 293.864 64.42 281.534 49.827 124.815 192.697 130.759 199.732" fill="url(#v)"/>
            <polygon points="127.549 186.529 49.941 -10.676 32.228 -3.52 119.01 189.978 127.549 186.529" fill="url(#w)"/>
            <polygon points="129.012 181.709 -21.089 -7.569 -44.154 11.919 117.893 191.104 129.012 181.709" fill="url(#x)"/>
          </g>
          <g>
            <path d="M61.698,114.311c2.966-5.594.733-11.563-3.951-11.32-2.853.148-3.988,1.798-4.114,3.429-.52-.989-.899-1.572-.899-1.572l-4.014,2.012c-2.901.222-4.353-1.589-4.353-1.589l-.542.272c-.95-1.064-2.848-1.318-4.727-.62.127-.3.127-.65-.03-.964-.285-.568-.977-.798-1.545-.513-.568.285-.798.977-.513,1.545.157.314.438.523.754.601-1.683,1.088-2.615,2.761-2.331,4.159l-1.034.518c.788,1.572-.496,3.383-1.734,4.641l-3.119,1.564s.24.653.722,1.661c-1.383-.875-3.383-.953-5.209,1.244-2.998,3.608.449,8.969,6.705,9.939,5.199.807,14.544,1.139,15.552,3.314,1.008,2.174-.468,2.482-.318,2.781.125.25,2.018-.416,1.872-2.187.734.564,1.668.824,2.596.712,2.07,6.454-1.927,9.519-4.095,10.66-.511.199-.999.382-1.458.544l.998,1.498.636,1.173.108-.056h0s19.562-9.664,19.562-9.664l-1.039-2.352s-.607.316-1.627.836c-2.413.934-7.21,1.807-10.955-3.697.655-.678,1.011-1.589.998-2.523,1.331,1.177,2.998.058,2.872-.191-.15-.299-1.28.7-2.418-1.409-1.139-2.109,4.185-9.795,6.65-14.444ZM57.816,109.384c-.187-.374-1.471.883-2.636-1.442-.49-.977-.084-2.897,2.089-3.237,3.573-.56,4.419,5.04,2.31,9.283-1.237,2.489-2.547,4.814-3.632,6.913.005-.013.009-.027.013-.04.024-.072.047-.144.07-.216.02-.064.039-.128.058-.193.022-.074.044-.148.064-.222.017-.062.032-.125.048-.187.035-.138.067-.276.097-.415.012-.054.024-.109.034-.163.017-.084.032-.167.047-.251.009-.051.017-.102.026-.153.014-.088.029-.175.041-.263.003-.018.004-.036.007-.054.027-.196.049-.392.066-.588.003-.036.007-.072.01-.108.008-.095.014-.189.02-.284.002-.038.004-.077.006-.115.005-.098.01-.197.013-.295,0,0,0,0,0,0h0c.082-2.625-.566-5.228-1.353-7.375,1.374.92,2.747-.305,2.603-.593ZM26.716,120.021c1.573-1.537,3.354-.714,3.844.263,1.165,2.324-.61,2.601-.422,2.975.144.288,1.948-.079,2.033-1.731.027.042.055.084.083.126h0s0,0,0,0c.139.211.283.423.433.636.013.019.026.037.04.056.095.135.192.269.292.404.004.005.007.01.011.015.047.064.095.127.143.191.024.031.047.063.071.094.076.099.153.199.231.298.03.038.06.076.09.114.045.057.091.113.136.17.04.049.08.098.121.147.065.078.13.156.196.234.041.049.083.097.125.146.042.049.084.097.127.146.071.081.143.161.216.241.04.044.081.088.122.132.053.057.107.114.161.171.043.045.086.09.129.135.074.076.149.152.224.227.039.038.077.077.116.115.075.073.15.146.227.219.039.036.077.073.116.109.072.067.145.134.219.2.036.032.072.064.108.096.093.082.187.163.282.244.032.027.064.053.095.079.079.066.16.131.24.196.03.024.06.048.09.072.101.079.204.157.307.234.033.025.066.049.099.073.097.071.195.141.294.21.019.013.037.026.056.039.107.074.216.145.326.216.032.021.064.042.097.062.114.072.228.143.344.211.022.013.045.026.067.039.104.061.209.12.315.178.028.015.055.031.083.046.12.064.242.127.365.188.028.014.057.027.085.041.115.055.23.109.347.161.017.007.033.015.05.022.128.056.259.11.39.161.031.012.061.024.092.036.133.051.267.101.403.147.01.004.021.007.031.01.038.013.077.025.115.038-2.33-.386-4.976-.728-7.71-1.226-4.661-.849-8.642-4.877-6.056-7.405ZM43.116,129.151c.042.002.084.004.126.005.033.002.065.003.098.004.154.006.309.009.465.008.021,0,.043,0,.064-.001.144-.002.289-.007.436-.014.029-.002.057-.003.086-.004.159-.01.319-.023.48-.04.032-.003.064-.007.097-.011.154-.017.308-.037.464-.061.015-.002.031-.004.046-.007.166-.026.333-.057.502-.091.037-.007.074-.015.111-.023.169-.036.34-.074.512-.118.015-.004.029-.008.044-.012.162-.042.325-.088.489-.137.036-.011.072-.021.109-.033.172-.053.346-.11.521-.172.033-.012.066-.024.099-.036.098-.035.197-.071.296-.109-.047.07-.11.171-.18.295-.048.082-.093.166-.134.252-.003.006-.006.012-.009.019-.025.051-.049.102-.071.154-.041.092-.081.187-.118.289,0,0,.004,0,.01-.002-.161.497-.211,1.028-.143,1.557-1.003-.778-2.526-1.298-4.395-1.714ZM53.515,127.855c-.662-.642-1.547-.999-2.459-1.004.102-.065.203-.13.302-.195.015-.01.031-.02.047-.03.159-.106.312-.215.462-.324.046-.033.09-.067.134-.1.107-.08.212-.16.314-.242.046-.037.093-.074.138-.111.115-.094.227-.189.337-.285.023-.021.048-.041.071-.061.129-.115.253-.231.373-.348.039-.038.076-.076.114-.113.084-.084.166-.168.247-.253.041-.043.081-.086.121-.129.084-.091.165-.183.244-.276.028-.032.057-.065.084-.097.1-.12.197-.241.29-.363.034-.044.066-.089.099-.133.062-.084.123-.168.182-.252.036-.051.071-.102.106-.154.017-.026.036-.051.053-.077-.786,1.747-1.281,3.28-1.258,4.549Z" fill="#1d1061"/>
            <path d="M116.153,106.82c3.784-3.045,4.017-7.929.641-9.176-2.056-.759-3.355.06-3.938,1.172-.067-.854-.158-1.38-.158-1.38l-3.439.203c-2.113-.721-2.588-2.438-2.588-2.438l-.464.027c-.347-1.038-1.609-1.791-3.144-1.868.18-.173.286-.42.27-.689-.029-.487-.447-.858-.934-.83-.487.029-.858.447-.83.934.016.269.151.502.35.652-1.516.257-2.68,1.155-2.902,2.226l-.886.052c.08,1.347-1.374,2.234-2.627,2.747l-2.672.158s-.028.533.006,1.389c-.71-1.035-2.097-1.696-4.049-.7-3.206,1.636-2.398,6.458,1.718,9.036,3.421,2.142,9.908,5.206,9.96,7.044.053,1.838-1.081,1.608-1.066,1.864.013.214,1.549.318,1.982-.975.347.62.926,1.086,1.614,1.288-.494,5.176-4.24,6.127-6.114,6.275-.421-.014-.82-.033-1.192-.058l.25,1.358.093,1.019.093-.006h0s16.716-.891,16.716-.891l-.021-1.973s-.524.039-1.4.097c-1.984-.072-5.63-.909-6.603-5.923.667-.28,1.193-.814,1.467-1.476.582,1.233,2.095.948,2.083.735-.015-.257-1.114.106-1.278-1.726-.164-1.832,5.916-5.638,9.06-8.169ZM114.908,102.171c-.019-.32-1.304.177-1.422-1.814-.05-.837.818-2.068,2.452-1.65,2.688.687,1.59,4.891-1.182,7.243-1.626,1.38-3.253,2.623-4.653,3.774.007-.008.014-.016.021-.024.039-.043.077-.087.115-.131.034-.039.066-.079.099-.118.038-.046.076-.091.112-.137.031-.039.06-.078.09-.118.066-.087.131-.175.194-.263.025-.035.05-.07.074-.105.037-.054.073-.108.109-.163.022-.033.043-.067.064-.1.037-.057.073-.115.109-.173.007-.012.014-.024.021-.036.078-.13.153-.262.225-.395.013-.024.027-.048.04-.073.034-.064.067-.129.1-.194.013-.026.026-.053.039-.079.033-.068.066-.136.098-.204,0,0,0,0,0,0h0c.852-1.826,1.183-3.857,1.279-5.609.69,1.065,2.029.617,2.014.37ZM89.763,100.256c1.574-.608,2.58.512,2.63,1.349.118,1.991-1.217,1.649-1.198,1.969.015.247,1.397.534,1.957-.605.007.038.013.076.02.114h0s0,0,0,0c.034.19.072.384.113.579.004.017.007.034.011.052.026.124.054.248.083.373.001.005.002.009.003.014.014.059.028.119.043.178.007.029.015.058.022.088.023.093.047.186.072.28.01.036.019.072.029.108.015.054.03.107.045.161.013.047.027.093.041.14.022.075.044.149.067.224.014.047.029.094.044.141.015.047.03.094.045.141.026.078.052.157.079.235.015.043.03.087.046.13.02.056.041.113.061.169.017.045.033.09.05.134.029.076.059.152.089.228.016.039.031.077.047.116.031.074.062.149.094.223.016.037.033.075.049.112.031.069.062.138.094.207.016.034.031.067.047.101.041.086.082.172.125.257.014.028.029.057.043.085.036.071.073.141.11.211.014.026.028.052.042.078.047.087.096.173.145.258.016.027.032.054.048.081.047.08.095.159.144.237.009.015.018.03.028.044.053.084.108.168.164.251.016.024.033.049.049.073.058.085.118.17.179.253.012.016.024.032.036.048.055.074.111.148.168.22.015.019.03.038.045.057.065.082.132.163.201.243.016.018.032.036.048.055.064.074.129.147.196.219.009.01.019.021.028.031.074.079.149.156.226.232.018.018.036.036.054.053.078.076.158.152.24.225.006.006.013.011.019.017.023.021.047.041.07.061-1.526-.977-3.288-2.019-5.064-3.198-3.029-2.009-4.616-6.054-2.027-7.053ZM98.561,111.656c.029.014.058.028.087.042.022.011.045.022.068.033.107.051.215.1.325.146.015.006.03.012.045.018.102.042.206.083.311.122.021.008.041.016.062.023.115.041.232.08.35.117.024.007.048.014.071.022.113.034.228.067.345.097.012.003.023.006.034.009.125.032.252.061.381.088.028.006.056.012.085.017.13.026.262.051.397.072.011.002.023.003.034.005.127.02.255.036.386.052.029.003.057.007.086.01.138.015.277.027.419.037.027.002.054.003.08.005.08.005.16.009.242.013-.054.035-.129.087-.216.153-.059.043-.116.089-.171.137-.004.004-.008.007-.012.01-.033.029-.065.057-.097.087-.057.052-.114.107-.171.168,0,0,.003,0,.007.002-.264.301-.46.661-.572,1.055-.471-.852-1.388-1.68-2.579-2.538ZM106.284,113.89c-.272-.653-.788-1.173-1.43-1.452.092-.014.182-.03.272-.046.014-.003.028-.005.042-.007.144-.027.285-.057.424-.088.042-.01.083-.02.125-.03.099-.024.198-.049.295-.075.044-.012.088-.024.131-.036.11-.032.218-.065.324-.099.023-.007.046-.014.069-.022.125-.042.248-.086.369-.132.039-.015.076-.03.115-.045.085-.034.168-.068.251-.104.042-.018.083-.036.124-.055.087-.039.172-.079.255-.121.029-.014.06-.028.089-.043.107-.054.212-.11.314-.168.037-.021.073-.042.11-.064.069-.04.137-.081.204-.123.041-.025.081-.051.121-.077.02-.013.041-.025.061-.038-1.083.994-1.896,1.924-2.264,2.826Z" fill="#1d1061"/>
          </g>
          <path d="M232.769,137.56c8.247-.361,13.482-6.814,10.114-11.92-2.051-3.109-4.655-3.295-6.572-2.359.768-1.238,1.173-2.049,1.173-2.049l-4.913-3.183c-2.167-3.115-1.089-5.943-1.089-5.943l-.663-.43c.569-1.77-.399-4.072-2.425-5.723.42-.056.815-.287,1.064-.671.451-.696.252-1.625-.444-2.076-.696-.451-1.625-.252-2.076.444-.249.384-.299.839-.178,1.245-2.335-1.174-4.831-1.116-6.215.127l-1.266-.82c-1.247,1.924-4.13,1.676-6.362,1.116l-3.818-2.473s-.575.701-1.39,1.908c.071-2.132-1.164-4.433-4.84-5.034-6.036-.987-9.785,6.429-6.743,14.103,2.528,6.378,8.326,17.102,6.548,19.672-1.778,2.57-3.099,1.113-3.336,1.48-.198.306,1.801,1.994,3.695.66-.149,1.198.175,2.419.914,3.388-5.887,6.591-11.974,4.121-14.689,2.438-.561-.443-1.09-.871-1.574-1.279l-1.024,2.111-.898,1.489.134.085h0s23.787,15.607,23.787,15.607l1.958-2.722s-.757-.474-2.015-1.277c-2.644-2.096-6.794-6.912-3.08-14.757,1.195.288,2.454.087,3.495-.545-.444,2.274,1.915,3.408,2.113,3.103.237-.367-1.632-.976-.013-3.65,1.619-2.673,13.776-1.766,20.63-2.066ZM235.744,129.941c.296-.458-1.964-1.07-.121-3.915.775-1.196,3.201-2.008,5.019.21,2.989,3.646-2.746,8.297-8.909,8.729-3.615.253-7.094.317-10.17.483.018-.004.036-.008.054-.012.097-.02.193-.042.289-.064.085-.02.17-.041.255-.062.098-.025.195-.049.292-.075.081-.022.161-.047.242-.07.178-.052.355-.107.531-.165.069-.023.138-.046.206-.069.105-.037.209-.074.313-.113.063-.024.126-.048.189-.072.108-.042.216-.084.323-.128.022-.009.043-.019.065-.028.238-.099.473-.204.705-.314.042-.02.085-.04.127-.06.112-.054.222-.109.333-.165.045-.023.089-.046.134-.069.114-.059.227-.119.34-.18,0,0,0,0,0,0h0c3.005-1.642,5.503-4.091,7.397-6.393-.127,2.152,2.158,2.887,2.386,2.534ZM203.241,102.007c2.767.753,3.018,3.298,2.243,4.495-1.843,2.845-3.326,1.033-3.623,1.491-.228.353,1.376,2.137,3.288,1.142-.029.058-.058.117-.087.176h0s0,0,0,.001c-.145.295-.288.598-.428.907-.012.027-.025.054-.037.082-.088.196-.176.394-.262.595-.003.007-.006.014-.009.022-.041.095-.081.191-.121.287-.02.047-.039.095-.058.142-.062.151-.123.303-.182.456-.023.059-.046.118-.069.177-.034.088-.067.176-.1.265-.029.077-.057.155-.085.232-.045.124-.09.249-.133.375-.027.079-.054.158-.081.237-.027.08-.054.159-.08.239-.044.133-.086.267-.128.402-.023.074-.045.149-.068.224-.029.097-.058.195-.086.293-.022.078-.045.156-.067.234-.037.133-.073.267-.108.402-.018.069-.035.137-.052.206-.033.133-.065.266-.096.4-.016.067-.031.135-.046.203-.028.126-.055.252-.08.378-.013.062-.025.123-.037.185-.031.159-.06.318-.088.478-.009.053-.017.106-.026.16-.022.133-.042.266-.061.4-.007.05-.015.099-.021.149-.022.166-.043.333-.061.5-.006.053-.011.106-.016.16-.016.156-.03.313-.042.47-.002.03-.005.059-.007.089-.012.169-.021.339-.028.509-.002.05-.004.1-.006.15-.006.175-.01.351-.01.526,0,.034,0,.067,0,.101,0,.157.003.314.009.471.001.041.002.083.004.124.007.178.017.356.03.534.003.041.007.082.01.123.013.166.029.331.048.497.003.024.005.047.008.071.022.182.048.363.076.545.007.042.014.085.021.127.03.183.063.367.101.55.003.014.006.028.009.042.011.052.023.103.034.155-1.106-2.874-2.469-6.075-3.716-9.477-2.125-5.801-.226-12.936,4.324-11.699ZM203.812,126.474c.025.048.051.097.077.145.02.038.04.075.06.113.095.177.194.353.298.528.014.024.029.047.043.071.097.161.199.321.304.48.021.031.041.063.062.094.116.172.236.343.362.514.025.034.051.068.076.101.121.161.245.322.375.481.013.016.025.032.038.047.139.169.284.337.434.504.033.036.066.073.099.109.152.167.308.333.471.497.014.014.028.028.042.042.154.154.313.307.477.459.036.034.072.067.108.101.174.159.352.316.537.472.035.029.07.058.105.087.105.087.21.174.318.26-.11-.006-.264-.011-.451-.008-.124,0-.248.006-.372.015-.009,0-.018.001-.027.002-.074.006-.147.012-.22.022-.131.015-.264.032-.402.058,0,0,.003.004.008.01-.665.147-1.296.442-1.845.868.212-1.641-.209-3.697-.977-6.072ZM212.138,137.307c.285-1.169.101-2.399-.496-3.428.14.073.28.143.419.211.021.01.043.022.065.032.224.108.447.209.669.305.067.029.134.057.202.085.16.067.32.132.479.193.072.028.144.056.216.082.182.067.363.131.543.19.039.013.078.027.116.04.214.069.426.131.638.19.068.019.135.035.203.053.15.039.299.076.447.11.075.017.15.034.225.05.158.034.315.064.471.092.055.01.11.021.165.03.201.034.401.062.6.086.072.009.143.015.214.023.135.014.269.027.403.038.081.006.162.012.243.017.04.002.081.006.121.009-2.483.271-4.533.727-5.945,1.591Z" fill="#1d1061"/>
          <g>
            <path d="M116.918,60.866c-2.107-6.569-7.145-11.135-13.822-12.525-4.589-.956-8.519-.407-11.69,1.07-1.021-.18-2.09-.172-3.159.053l-7.432,1.565c-.616-.303-.92-.667-1.041-.846-1.006-2.009-2.749-3.471-4.781-4.157-1.816-1.544-4.034-2.695-6.506-3.38-2.403-3.458-6.727-5.337-11.1-4.416s-7.572,4.383-8.377,8.517c-1.694,1.385-3.083,3.006-4.099,4.784-2.685,1.452-4.388,4.298-4.361,7.387-.225.207-.553.479-1.016.802l-5.857,1.233c-1.07.225-2.051.648-2.913,1.225-3.497-.073-7.316,1.01-11.129,3.734-5.549,3.964-8.319,10.173-7.598,17.035.951,9.062,7.702,17.376,17.618,21.698,2.782,1.213,6.015,2.455,9.437,3.77,4.047,1.554,10.736,4.124,14.617,6.147-.776,1.77-.857,3.625-.532,5.171.651,3.093,3.174,6.183,7.428,6.745-1.129,1.126-2.732,2.047-4.989,2.63-.922.102-1.78.186-2.557.25-2.559.211-4.877,1.592-6.282,3.741s-1.739,4.827-.905,7.255l1.133,3.301.591,2.418c1.074,4.395,5.464,7.122,9.88,6.15l.053-.012c.025-.005.05-.01.076-.015l45.957-9.397.048-.01c4.34-.914,7.205-5.075,6.503-9.461l-.875-5.46c-.364-2.271-1.651-4.289-3.556-5.578-1.905-1.288-4.264-1.734-6.501-1.223-.017.004-1.244.282-3.315.734-2.726.244-4.818-.258-6.442-1.182,4.149-2.161,5.362-6.249,4.677-9.505-.326-1.546-1.148-3.21-2.572-4.517,2.736-3.415,7.822-8.464,10.898-11.518,2.602-2.583,5.059-5.023,7.117-7.255,7.331-7.953,10.156-18.283,7.373-26.96Z" fill="url(#y)" mix-blend-mode="lighten" opacity=".5"/>
            <path d="M100.068,56.176c-6.012-1.252-9.274,1.557-10.428,4.88-.54-2.34-1.01-3.76-1.01-3.76l-9.445,1.989c-6.154-1.124-8.182-5.684-8.182-5.684l-1.275.268c-1.393-2.731-5.2-4.298-9.488-3.875.427-.554.619-1.283.464-2.021-.282-1.338-1.594-2.194-2.932-1.912s-2.194,1.594-1.912,2.932c.155.738.625,1.328,1.239,1.662-4.095,1.342-6.948,4.31-7.121,7.371l-2.434.512c.779,3.7-2.882,6.761-6.142,8.7l-7.34,1.545s.143,1.489.592,3.848c-2.396-2.575-6.513-3.831-11.51-.261-8.206,5.862-3.971,18.892,8.507,24.331,10.369,4.52,29.615,10.322,30.522,15.394.908,5.072-2.33,4.904-2.181,5.608.124.587,4.415.239,5.086-3.512,1.219,1.573,3.02,2.624,5.009,2.897.772,14.543-9.214,18.729-14.344,19.916-1.171.135-2.287.248-3.328.334l1.256,3.659.681,2.786.256-.056v.002s45.958-9.397,45.958-9.397l-.875-5.459s-1.436.325-3.84.848c-5.528.623-15.976-.186-20.752-13.671,1.732-1.051,2.973-2.75,3.458-4.696,2.126,3.163,6.194,1.75,6.07,1.164-.148-.705-3.043.755-4.257-4.253s14.058-18.077,21.725-26.394c9.225-10.008,7.847-23.64-2.026-25.696ZM26.239,74.615c4.111-2.336,7.363.35,7.847,2.649,1.152,5.47-2.689,5.074-2.504,5.954.143.678,4.093.901,5.172-2.486.034.102.069.205.104.307h0s0,0,0,.001c.174.514.359,1.034.554,1.56.017.046.034.092.051.138.126.336.256.674.391,1.013.003.008.006.015.009.023.063.159.128.318.193.478.032.077.064.154.096.231.104.249.21.499.318.749.041.095.082.19.124.285.063.143.127.286.192.428.055.122.112.244.168.366.092.2.186.399.282.598.059.123.118.245.179.368.061.125.123.25.185.374.104.207.21.414.318.62.059.113.12.227.18.34.078.147.158.293.238.44.066.121.133.242.201.362.11.196.223.392.337.587.059.102.119.203.18.304.114.192.23.383.349.573.061.099.124.198.186.296.113.178.227.356.344.532.057.087.114.174.172.261.148.221.299.441.453.66.051.073.104.145.156.218.129.18.259.359.392.536.05.067.099.134.149.201.167.22.337.438.51.655.055.069.111.138.167.206.163.201.328.4.497.597.032.037.063.075.095.112.183.212.37.421.56.628.055.061.111.121.167.181.197.212.396.421.6.627.039.039.079.078.118.117.183.183.369.363.558.541.05.047.099.094.148.14.215.2.433.396.656.589.052.045.104.089.156.134.208.178.419.353.633.524.031.024.061.05.091.074.237.187.478.37.722.549.057.042.114.083.171.124.249.179.501.355.758.526.02.013.04.026.06.039.072.048.146.094.219.141-4.634-2.076-9.948-4.234-15.36-6.764-9.228-4.313-15.3-14.866-8.541-18.707ZM55.346,102.564c.085.028.172.053.258.08.067.021.134.042.201.062.317.096.638.187.964.271.043.011.087.021.13.031.301.075.607.145.916.209.061.013.121.026.182.038.335.067.675.127,1.019.18.069.011.139.02.208.03.328.048.66.091.997.126.033.004.066.008.099.011.359.036.724.064,1.092.085.081.005.162.009.243.013.372.018.747.031,1.129.035.032,0,.065,0,.097,0,.359.002.724-.005,1.092-.017.081-.003.161-.005.243-.008.388-.016.78-.04,1.178-.072.074-.006.15-.014.224-.02.223-.02.448-.041.674-.065-.105.093-.238.216-.391.367-.312.293-.597.612-.855.95-.125.157-.249.322-.371.498,0,0,.007,0,.02.001-.606.942-1.006,2.017-1.153,3.152-1.66-2.162-4.541-4.075-8.195-5.959ZM77.676,105.546c-1.024-1.693-2.669-2.916-4.558-3.426.247-.078.49-.158.731-.24.035-.012.072-.023.108-.035.388-.134.767-.276,1.139-.421.113-.044.223-.09.334-.135.266-.108.529-.218.787-.332.116-.051.232-.102.346-.154.291-.133.577-.27.858-.41.06-.03.121-.058.18-.088.33-.168.651-.342.966-.519.101-.057.2-.116.3-.174.22-.128.437-.258.65-.391.108-.067.216-.135.323-.204.223-.144.442-.291.657-.44.075-.052.153-.103.228-.156.274-.195.541-.394.802-.596.094-.073.185-.148.277-.222.175-.14.347-.281.516-.425.102-.087.204-.174.304-.263.05-.044.102-.087.152-.131-2.586,3.198-4.453,6.112-5.1,8.761ZM97.865,80.04c-3.934,4.498-7.928,8.617-11.332,12.386.017-.025.032-.051.049-.076.09-.137.178-.274.264-.412.076-.122.151-.244.224-.367.086-.143.173-.285.256-.429.066-.116.129-.233.194-.349.151-.273.297-.549.437-.827.053-.105.107-.211.159-.317.081-.165.159-.332.236-.499.046-.1.092-.201.136-.302.078-.175.155-.349.229-.525.016-.037.03-.074.045-.112.163-.392.315-.787.459-1.186.026-.072.053-.144.078-.216.068-.193.134-.387.197-.581.026-.078.051-.156.076-.234.065-.202.129-.405.189-.608h0c1.606-5.413,1.681-11.18,1.219-16.073,2.353,2.664,5.879.868,5.736.19-.185-.88-3.54,1.031-4.692-4.439-.484-2.3,1.409-6.069,6.113-5.588,7.734.79,6.432,12.895-.273,20.563Z" fill="#1d1061"/>
            <g>
              <g>
                <circle cx="59.938" cy="48.728" r="2.475" fill="#ffcb57"/>
                <circle cx="59.428" cy="49.51" r="1.435" fill="#ffa544"/>
                <circle cx="59.681" cy="49.122" r="1.929" fill="url(#z)" mix-blend-mode="overlay" opacity=".25"/>
                <ellipse cx="61.785" cy="57.501" rx="10.272" ry="7.171" transform="translate(-10.521 13.962) rotate(-11.889)" fill="#ffcb57"/>
                <ellipse cx="60.841" cy="47.352" rx=".657" ry="1.15" transform="translate(-13.981 65.94) rotate(-51.845)" fill="#fff" opacity=".8"/>
                <ellipse cx="56.616" cy="59.835" rx="4.734" ry="5.62" transform="translate(-11.113 12.948) rotate(-11.889)" fill="#ffa544"/>
                <path d="M70.123,53.68s-2.186-3.354-8.158-3.068c3.182.496,3.422,1.445,4.435,2.042s2.013.37,2.526,1.278l1.197-.252Z" fill="#fff" opacity=".8"/>
                <ellipse cx="60.837" cy="58.113" rx="9.219" ry="6.435" transform="translate(-10.667 13.78) rotate(-11.889)" fill="url(#aa)" mix-blend-mode="overlay" opacity=".25"/>
                <path d="M38.44,69.745s12.118-4.516,10.761-10.961l23.459-4.939s3.527,7.953,15.425,5.447l-49.645,10.452Z" fill="#ffcb57"/>
                <path d="M59.778,56.874l12.596-2.652s2.461,4.883,6.205,5.139c-4.155.875-5.854-3.278-6.626-3.116s-.655,1.586-1.478,2.081-1.633-1.769-2.319-1.755-.643,1.288-1.763.819c-2.771-1.16-5.883.379-6.615-.517Z" fill="#fff" opacity=".8"/>
                <path d="M56.708,61.06l-7.763,1.634c-2.084,3.878-8.681,6.367-8.681,6.367l27.633-5.818c-5.752,1.211-9.239-.475-11.189-2.183Z" fill="#ffa544"/>
                <path d="M40.093,69.097s11.302-4.109,10.107-9.781l15.324-3.226s3.195,6.981,14.272,4.648l-39.704,8.359Z" fill="url(#ab)" mix-blend-mode="overlay" opacity=".25"/>
                <path d="M79.168,60.333c-20.55,4.327-30.804,3.26-35.903,7.559l35.903-7.559Z" fill="#1d1061"/>
                <path d="M53.956,56.583c.536-1.512,2.509-3.145,3.28-3.308s.139,1.702-.64,1.652,2.162-1.831,2.529-1.908.448.312-.22,1.023c.729-.671,1.936-1.174,2.669-1.102" fill="none" stroke="#ffa544" stroke-linecap="round" stroke-linejoin="round" stroke-width=".333"/>
                <line x1="52.159" y1="57.462" x2="64.692" y2="54.824" fill="none" stroke="#ffa544" stroke-linecap="round" stroke-linejoin="round" stroke-width=".333"/>
                <path d="M46.22,65.991c2.67-1.73,4.268-4.088,5.465-6.266-.578,1.113-2.081,5.471-1.499,5.429s3.183-3.513,3.789-5.774c-.357,1.096-1.111,2.971-.624,3.751s1.923-1.626,2.465-2.614" fill="none" stroke="#ffa544" stroke-linecap="round" stroke-linejoin="round" stroke-width=".333"/>
                <path d="M56.911,59.299c-.368,1.099-.442,4.023.244,3.949s1.862-2.863,2.383-4.827c-.27,1.911-.336,4.095.4,3.94s2.897-4.786,2.221-4.731-.669,4.426,1.103,3.857,2.505-4.077,1.673-3.865.554,3.224,2.329,2.715,1.172-2.602,1.67-1.852c1.166,1.725,2.52.045,2.976-.551" fill="none" stroke="#ffa544" stroke-linecap="round" stroke-linejoin="round" stroke-width=".333"/>
                <path d="M71.461,55.967c1.155,1.423,2.63,2.585,4.283,3.376" fill="none"/>
                <line x1="65.862" y1="54.577" x2="66.174" y2="54.512" fill="none" stroke="#ffa544" stroke-linecap="round" stroke-linejoin="round" stroke-width=".333"/>
              </g>
              <g>
                <path d="M76.058,114.099l-2.257.475-2.257.475c2.646,21.724-17.081,22.663-17.081,22.663l1.544,6.316,22.933-5.042,23.019-4.632-.859-5.1s-19.029,6.287-25.043-15.156Z" fill="#ffcb57"/>
                <g clip-path="url(#ac)">
                  <path d="M77.451,115.638s-2.211,1.687-6.017,1.267c0,0,.408,4.503-.434,7.25,0,0,6.005-1.614,6.451-8.517Z" fill="#ffa544"/>
                  <path d="M76.551,116.12l-4.816,1.014s.073,2.624-.004,3.524c0,0,4.805-2.447,4.82-4.538Z" fill="#1d1061"/>
                  <path d="M78.036,120.478c.639,1.301,3.068,6.022,7.226,7.941,5.05,2.331,8.952,2.088,7.061,2.328-4.975.631-11.898-1.717-15.635-9.3-.188-.381-.209-.836.048-1.15.006-.007.012-.014.017-.021.363-.447,1.013-.345,1.282.203Z" fill="#fff" opacity=".8"/>
                  <path d="M79.667,115.194s.74,5.172-6.065,10.449c0,0-2.718,8.592-14.555,9.074l11.941-20.181,6.575-1.701,2.104,2.359Z" fill="url(#ad)" mix-blend-mode="overlay" opacity=".25"/>
                </g>
                <path d="M102.221,134.578l-.875-5.459s-31.704,7.182-47.276,8.466l2.194,6.391,45.957-9.397Z" fill="url(#ae)" mix-blend-mode="overlay" opacity=".25"/>
                <line x1="100.283" y1="129.823" x2="78.999" y2="134.304" fill="none" stroke="#ffa544" stroke-linecap="round" stroke-linejoin="round" stroke-width=".333"/>
                <path d="M68.283,136.333c-5.039.595-10.078,1.191-15.118,1.786" fill="none" stroke="#ffa544" stroke-linecap="round" stroke-linejoin="round" stroke-width=".333"/>
                <path d="M71.435,135.922l-.946.048" fill="none" stroke="#ffa544" stroke-linecap="round" stroke-linejoin="round" stroke-width=".333"/>
              </g>
              <g>
                <circle cx="72.786" cy="109.753" r="7.652" fill="#ffcb57"/>
                <circle cx="71.111" cy="111.726" r="4.859" fill="#ffa544"/>
                <path d="M76.68,103.749c-2.07-.677-5.147.333-3.454,2.466s3.996,2.234,4.91.631-.571-2.808-1.456-3.097Z" fill="#fff" opacity=".8"/>
                <circle cx="72.409" cy="111.193" r="5.41" fill="url(#af)" mix-blend-mode="overlay" opacity=".25"/>
                <path d="M67.784,111.349c.151,1.202.629,2.361,1.37,3.319" fill="none" stroke="#ffcb57" stroke-linecap="round" stroke-linejoin="round" stroke-width=".333"/>
                <path d="M69.144,112.723c.378.833.91,1.595,1.562,2.236" fill="none" stroke="#ffcb57" stroke-linecap="round" stroke-linejoin="round" stroke-width=".333"/>
                <path d="M70.723,113.275c.561.573,1.152,1.116,1.771,1.626" fill="none" stroke="#ffcb57" stroke-linecap="round" stroke-linejoin="round" stroke-width=".333"/>
                <path d="M74.717,102.223s-2.633,1.001-6.535,1.376c0,0-1.01.798-1.851,2.015,0,0,5.993.485,8.386-3.391Z" fill="#ffa544"/>
                <path d="M74.476,102.281s-3.638,1.9-6.981,2.608c-1.048.222,1.324-1.754,1.324-1.754l5.657-.854Z" fill="#1d1061"/>
                <path d="M79.147,108.715s-.061,3.645.361,3.71.628-2.025.628-2.025l-.989-1.685Z" fill="#1d1061"/>
                <path d="M66.64,111.75s1.033,3.085.843,3.207-1.01-1.676-1.01-1.676l.167-1.531Z" fill="#1d1061"/>
              </g>
              <g>
                <path d="M90.287,57.541l-27.284,5.744-27.284,5.744s3.899,40.908,35.697,34.213c31.798-6.695,18.872-45.702,18.872-45.702Z" fill="#ffcb57"/>
                <path d="M89.392,87.398c-4.453,8.164-5.615,5.036-14.324,6.388-8.708,1.352-8.7,5.204-17.684,3.723-6.391-1.054-14.64-10.728-18.87-16.226,3.876,11.447,12.829,26.185,32.9,21.96,12.029-2.533,17.655-9.69,20.004-17.61-.461-.352-1.114.091-2.027,1.765Z" fill="#ffa544"/>
                <g clip-path="url(#ag)">
                  <path d="M48.764,97.39c.853,1.36,4.812,4.332,8.252,5.422s7.715,2.193,15.156.536c4.308-.959,2.874-1.579-.089-1.267-7.44.785-8.485-2.39-12.695-1s-8.406-1.817-10.623-3.692Z" fill="#1d1061"/>
                  <path d="M37.269,75.364s6.805,25.536,21.075,29.61,23.585-1.542,27.453-7.731,4.08-13.972,4.08-13.972c0,0-10.797-22.646-52.608-7.907Z" fill="url(#ah)" mix-blend-mode="overlay" opacity=".25"/>
                </g>
                <path d="M89.581,58.978l-11.533,2.428c-7.673,6.882,1.165,8.222-1.145,11.921s-20.496,3.514-24.632,19.72c0,0,4.038,5.269,11.589,3.42-1.919-9.113.827-16.539,10.309-17.286,12.984-1.023,16.233-5.299,12.182-9.61-2.436-2.593-2.506-8.448,3.23-10.593Z" fill="#fff" opacity=".8"/>
                <path d="M90.845,64.985s1.354,7.445,1.692,8.039-.922-8.201-.922-8.201l-.77.162Z" fill="#1d1061"/>
                <path d="M38.195,76.025s2.483,8.24,2.412,9.304-3.515-8.684-3.515-8.684l1.103-.62Z" fill="#1d1061"/>
              </g>
              <g>
                <path d="M33.24,83.462c.185.88,6.789,1,5.199-6.553-.936-4.446-6.352-9.498-13.638-4.293-8.206,5.862-3.971,18.892,8.507,24.331,10.369,4.52,29.615,10.322,30.522,15.394s-2.33,4.904-2.181,5.608,6.311.067,4.992-6.2c-1.512-7.183-15.507-11.315-30.202-18.183-9.228-4.313-15.3-14.866-8.541-18.707,4.111-2.336,7.363.35,7.847,2.649,1.152,5.47-2.689,5.074-2.504,5.954Z" fill="#ffcb57"/>
                <path d="M34.794,72.49s-2.566-2.306-5.235-1.712-6.653,2.456-7.804,6.617,2.06-3.122,5.934-4.456c4.829-1.664,8.232,1.046,7.106-.449Z" fill="#fff" opacity=".8"/>
                <g clip-path="url(#ai)">
                  <path d="M35.566,84.971c-1.536.323-2.791-1.033-1.044-1.778,3.623-1.546,3.701-7.21,4.485-4.399s-.731,5.606-3.441,6.177Z" fill="#ffa544"/>
                  <path d="M26.473,90.968c-.355-1.688,5.65,4.176,13.347,6.999,8.556,3.139,24.586,10.135,22.433,12.629s-34.843-15.182-35.779-19.628Z" fill="#ffa544"/>
                  <path d="M66.908,111.325c-.428-.878-.839-1.086-.764.161s-.23,5.394-2.903,6.294,1.029,1.004,2.542.138,3.23-2.279,1.125-6.593Z" fill="#ffa544"/>
                  <path d="M31.488,84.978s4.472-1.063,5.782-4.499c1.659-4.355-2.2-10.385-9.045-8.584-8.287,2.181-7.114,12.67.185,18.041,5.659,4.165,12.688,3.332,12.167,3.27s-9.09-8.228-9.09-8.228Z" fill="url(#aj)" mix-blend-mode="overlay" opacity=".25"/>
                </g>
              </g>
              <g>
                <path d="M98.375,69.749c.185.88-5.809,3.652-7.399-3.901-.936-4.446,1.984-11.253,10.749-9.427,9.873,2.056,11.251,15.688,2.026,25.696-7.667,8.317-22.939,21.386-21.725,26.394s4.109,3.548,4.257,4.253-5.748,2.606-7.068-3.661c-1.512-7.183,9.629-16.607,20.307-28.817,6.705-7.668,8.008-19.773.273-20.563-4.704-.48-6.597,3.289-6.113,5.588,1.152,5.47,4.507,3.559,4.692,4.439Z" fill="#ffcb57"/>
                <path d="M92.528,60.334s1.418-3.144,4.1-3.678,7.078-.434,9.81,2.909c2.731,3.343-3.143-2.026-7.227-1.686-5.09.425-7.111,4.276-6.684,2.454Z" fill="#fff" opacity=".8"/>
                <g clip-path="url(#ak)">
                  <path d="M96.855,72.067c1.536-.323,2.137-2.07.238-2.048-3.939.046-6.294-5.106-5.878-2.217s2.929,4.836,5.64,4.265Z" fill="#ffa544"/>
                  <path d="M107.594,73.889c-.355-1.688-3.487,6.099-9.392,11.786-6.564,6.322-18.412,19.188-15.436,20.602s25.764-27.942,24.828-32.388Z" fill="#ffa544"/>
                  <path d="M89.114,91.158c2.656-.559-7.942,11.504-9.959,11.703s7.989-11.288,9.959-11.703Z" fill="#ffa544"/>
                  <path d="M96.862,84.746c-1.945,1.803-12.703,14.218-14.753,17.189s-2.886,6.072-.951,8.258c1.174-1.089-2.195-1.369-.017-5.924.398-.832.909-.647,1.895-2.815.396-.871,2.63-3.92,5.65-6.752,7.322-6.865,10.218-11.849,8.176-9.956Z" fill="#fff" opacity=".8"/>
                  <path d="M78.799,108.822c.038-.976.33-1.332.764-.161s2.386,4.844,5.195,4.589-.537,1.334-2.271,1.152-3.875-.784-3.688-5.58Z" fill="#ffa544"/>
                  <path d="M86.227,115.846s-10.096-3.399-5.949-10.142,9.806-9.621,16.957-14.191-11.008,24.334-11.008,24.334Z" fill="url(#al)" mix-blend-mode="overlay" opacity=".25"/>
                </g>
              </g>
            </g>
            <path d="M103.751,82.117c9.225-10.008,7.847-23.64-2.026-25.696-6.012-1.252-9.274,1.557-10.428,4.88-.54-2.34-1.01-3.76-1.01-3.76l-9.445,1.989c-6.154-1.124-8.182-5.684-8.182-5.684l-1.275.268c-1.393-2.731-5.2-4.298-9.488-3.875.427-.554.619-1.283.464-2.021-.282-1.338-1.594-2.194-2.932-1.912-1.338.282-2.194,1.594-1.912,2.932.155.738.625,1.328,1.239,1.662-4.095,1.342-6.948,4.31-7.121,7.371l-2.434.512c.779,3.7-2.882,6.761-6.142,8.7l-7.34,1.545s.143,1.489.592,3.848c-2.396-2.575-6.513-3.831-11.51-.261-8.206,5.862-3.971,18.892,8.507,24.331,10.369,4.52,29.615,10.322,30.522,15.394.908,5.072-2.33,4.904-2.181,5.608.124.587,4.424.239,5.088-3.524,1.219,1.575,3.016,2.626,5.007,2.901.776,14.55-9.212,18.737-14.344,19.924-1.171.135-2.287.248-3.328.334l1.256,3.659.681,2.786.256-.056v.002s45.958-9.397,45.958-9.397l-.875-5.459s-1.436.325-3.84.848c-5.529.623-15.979-.186-20.754-13.677,1.733-1.052,2.97-2.751,3.454-4.699,2.124,3.175,6.2,1.76,6.077,1.173-.148-.705-3.043.755-4.257-4.253-1.214-5.008,14.058-18.077,21.725-26.394ZM98.375,69.749c-.185-.88-3.54,1.031-4.692-4.439-.484-2.3,1.409-6.069,6.113-5.588,7.734.79,6.432,12.895-.273,20.563-3.934,4.498-7.928,8.617-11.332,12.386.017-.025.032-.051.049-.076.089-.136.177-.273.263-.411.077-.122.151-.245.226-.369.086-.142.172-.284.254-.427.069-.12.134-.242.201-.363.148-.268.291-.538.428-.81.054-.107.108-.214.161-.321.08-.165.158-.33.235-.497.047-.101.092-.202.137-.304.078-.175.155-.349.229-.525.015-.036.029-.072.044-.108.163-.393.316-.788.46-1.187.026-.073.054-.145.079-.218.068-.193.133-.386.197-.58.026-.078.051-.157.076-.236.064-.202.128-.403.188-.606,0,0,0,0,0-.001h0c1.606-5.413,1.681-11.18,1.219-16.073,2.353,2.664,5.879.868,5.736.19ZM27.896,74.86c4.111-2.336,7.363.35,7.847,2.649,1.152,5.47-2.689,5.074-2.504,5.954.143.678,4.093.901,5.172-2.486.034.102.069.205.103.307h0s0,.001,0,.002c.174.514.358,1.034.553,1.559.017.046.034.092.052.139.124.332.253.665.386,1.001.005.012.009.024.014.036.063.158.127.317.192.475.032.078.064.156.097.234.103.248.208.496.316.745.041.096.083.191.125.287.063.142.126.285.191.427.056.124.113.247.171.371.092.198.185.395.28.593.059.124.119.248.18.371.061.124.122.249.184.373.104.207.21.413.317.619.06.114.12.227.181.341.079.148.159.296.24.443.064.117.129.235.195.352.112.199.226.397.341.595.059.101.119.202.179.302.116.194.233.387.352.579.06.097.121.193.182.29.113.179.229.358.345.535.057.087.114.173.171.259.148.222.299.442.453.661.051.073.103.145.155.217.129.181.26.36.393.538.049.066.098.133.148.199.167.22.337.439.51.655.055.069.111.137.166.206.163.201.329.401.497.598.032.037.063.075.095.111.183.212.37.421.559.628.056.061.111.122.167.182.197.212.396.421.6.627.039.039.079.078.118.117.183.183.369.363.558.541.05.047.099.094.148.14.215.2.434.396.656.589.051.044.103.088.154.132.208.178.419.353.634.525.031.024.06.05.091.074.236.187.478.369.722.548.057.042.115.084.172.125.249.179.501.355.758.526.02.013.04.026.06.039.073.048.146.094.219.141-4.634-2.076-9.948-4.234-15.36-6.764-9.228-4.313-15.3-14.866-8.541-18.707ZM57.003,102.809c.085.028.172.053.258.08.067.021.134.042.201.062.317.096.637.187.963.27.044.011.089.021.133.032.301.075.605.144.914.208.06.013.12.026.181.038.335.067.675.127,1.02.18.069.011.138.02.207.03.329.048.661.091.998.127.033.004.066.008.099.011.359.036.724.064,1.093.085.081.005.161.009.242.013.372.018.747.031,1.129.035.032,0,.065,0,.098,0,.359.002.723-.005,1.091-.017.081-.003.162-.005.244-.008.388-.016.78-.04,1.177-.072.075-.006.15-.014.225-.02.224-.02.448-.041.675-.065-.136.121-.322.295-.536.514-.146.144-.283.295-.417.45-.01.011-.02.022-.03.034-.079.093-.158.185-.232.282-.136.169-.271.345-.403.536,0,0,.008,0,.021.001-.607.944-1.002,2.022-1.149,3.16-1.659-2.165-4.542-4.081-8.2-5.966ZM79.331,105.8c-1.026-1.698-2.671-2.923-4.564-3.433.248-.078.493-.158.735-.241.037-.013.076-.024.113-.037.388-.134.766-.275,1.138-.421.113-.044.223-.09.334-.135.266-.108.528-.218.785-.331.116-.051.233-.102.348-.155.291-.133.576-.269.856-.409.06-.03.122-.058.182-.089.33-.168.651-.342.967-.519.101-.057.199-.116.299-.174.221-.128.438-.259.651-.391.108-.067.216-.135.322-.203.224-.144.442-.291.658-.44.076-.052.153-.103.228-.156.274-.195.541-.394.802-.596.094-.073.185-.148.278-.222.175-.14.347-.281.516-.424.102-.087.204-.174.304-.262.05-.044.102-.087.152-.131-2.589,3.202-4.457,6.119-5.102,8.77Z" fill="#1d1061" mix-blend-mode="multiply" opacity=".25"/>
          </g>
          <g>
            <path d="M230.446,94.321c.64-5.566-1.56-10.63-6.035-13.894-3.075-2.243-6.167-3.152-9.007-3.121-.695-.475-1.489-.826-2.356-1.018l-6.023-1.33c-.354-.43-.457-.801-.487-.975-.072-1.823-.872-3.488-2.146-4.676-.826-1.75-2.083-3.344-3.682-4.679-.621-3.363-3.191-6.201-6.735-6.983s-7.07.709-9.049,3.498c-1.717.458-3.287,1.193-4.634,2.168-2.473.176-4.686,1.711-5.699,4.006-.236.078-.569.169-1.02.254l-4.747-1.048c-.867-.191-1.735-.207-2.565-.069-2.563-1.224-5.751-1.701-9.484-.962-5.433,1.076-9.56,4.743-11.324,10.061-2.329,7.024-.117,15.435,5.773,21.952,1.653,1.829,3.629,3.83,5.721,5.948,2.474,2.505,6.563,6.645,8.758,9.44-1.166,1.05-1.848,2.395-2.124,3.648-.553,2.507.279,5.637,3.239,7.477-1.212.455-2.706.601-4.572.276-.716-.233-1.38-.458-1.976-.671-1.964-.7-4.142-.454-5.9.666s-2.902,2.99-3.098,5.066l-.266,2.822-.372,1.987c-.676,3.611,1.659,7.098,5.252,7.858l.043.009c.02.005.041.01.061.014l37.15,8.429.039.009c3.517.776,7.03-1.344,7.978-4.824l1.18-4.332c.491-1.802.214-3.726-.764-5.317-.978-1.591-2.575-2.711-4.401-3.081-.014-.003-1.015-.208-2.699-.567-2.098-.732-3.478-1.804-4.371-3.031,3.793-.21,6.059-2.829,6.642-5.467.277-1.253.225-2.76-.391-4.203,3.168-1.611,8.62-3.645,11.919-4.875,2.79-1.041,5.425-2.023,7.694-2.986,8.086-3.431,13.634-10.129,14.479-17.48Z" fill="url(#y)" mix-blend-mode="lighten" opacity=".5"/>
            <path d="M219.156,85.977c-4.03-2.939-7.383-1.952-9.349.121.384-1.912.511-3.12.511-3.12l-7.654-1.69c-4.177-2.891-4.151-6.945-4.151-6.945l-1.033-.228c-.116-2.487-2.409-4.921-5.724-6.043.501-.267.888-.742,1.02-1.34.239-1.084-.445-2.157-1.529-2.396s-2.157.445-2.396,1.529c-.132.598.018,1.192.361,1.645-3.479-.378-6.583.864-7.736,3.071l-1.972-.435c-.662,2.998-4.395,4.038-7.457,4.382l-5.948-1.313s-.393,1.149-.85,3.045c-.911-2.708-3.537-5.015-8.429-4.046-8.034,1.591-9.261,12.65-1.85,20.85,6.159,6.815,18.458,17.549,17.432,21.606-1.026,4.057-3.365,2.848-3.491,3.419-.105.476,3.187,1.655,4.939-.897.376,1.572,1.356,2.952,2.737,3.82-4.297,11.019-13.086,10.774-17.279,9.935-.912-.292-1.775-.582-2.574-.867l-.295,3.128-.429,2.289.208.044v.002s37.15,8.429,37.15,8.429l1.18-4.332s-1.171-.24-3.125-.658c-4.298-1.389-11.758-5.485-10.779-17.061,1.633-.198,3.12-1.04,4.131-2.317.515,3.052,3.997,3.368,4.102,2.893.126-.571-2.504-.46-1.727-4.571s16.452-8.67,24.909-12.258c10.176-4.317,13.718-14.865,7.101-19.691ZM158.357,74.91c3.824-.353,5.331,2.723,4.92,4.587-.979,4.432-3.688,2.854-3.845,3.567-.121.549,2.727,2.036,4.659-.109-.009.087-.018.174-.026.262h0s0,0,0,.001c-.043.439-.081.885-.112,1.339-.003.04-.005.079-.008.119-.019.291-.036.584-.05.88,0,.007,0,.013-.001.02-.006.139-.012.278-.017.418-.002.068-.004.135-.007.203-.007.219-.012.439-.015.661-.001.084-.003.168-.003.252-.001.127-.002.254-.002.381,0,.109.001.218.002.327.002.179.004.358.009.537.003.111.005.221.009.332.004.113.007.226.012.339.008.188.017.377.028.565.006.104.013.208.02.312.009.135.019.27.029.405.009.112.017.223.027.335.016.182.034.365.053.547.01.095.02.19.031.285.02.18.042.36.066.541.012.094.025.188.039.282.024.17.049.339.076.509.013.084.026.167.04.251.036.213.073.427.114.64.014.071.028.142.042.213.035.176.072.352.11.528.014.066.028.132.043.199.05.219.103.437.158.655.018.07.036.139.054.208.053.203.109.406.168.608.011.038.022.076.033.114.064.218.133.436.204.652.021.063.042.127.063.19.075.223.152.444.234.665.016.042.032.084.048.126.074.197.151.392.231.587.021.051.041.102.063.153.092.22.188.438.288.655.023.051.047.101.071.151.094.201.192.401.293.599.014.028.028.057.043.085.112.218.23.433.351.648.028.05.057.1.085.149.124.216.252.431.385.643.01.016.021.033.032.049.038.06.077.119.115.178-2.734-3.087-5.944-6.463-9.101-10.146-5.384-6.28-6.345-16.121-.058-16.7ZM170.539,105.332c.054.049.11.097.164.146.042.038.085.076.128.113.202.177.409.352.622.523.028.022.057.044.085.067.198.157.401.31.608.461.041.03.081.06.122.089.225.162.457.32.693.474.048.031.096.061.144.092.227.145.458.288.695.427.023.014.046.028.069.042.253.147.514.289.78.429.058.031.117.061.175.091.269.138.542.273.824.403.024.011.048.021.072.032.265.122.537.239.814.353.061.025.121.05.182.075.292.118.591.232.896.341.057.02.115.04.173.06.172.06.345.12.521.177-.109.034-.248.08-.412.141-.329.112-.646.253-.95.417-.145.074-.292.155-.441.244,0,0,.005.003.014.008-.764.494-1.419,1.156-1.908,1.946-.505-2.155-1.996-4.535-4.069-7.152ZM186.063,115.012c-.191-1.595-.999-3.051-2.225-4.061.209.025.416.048.621.067.03.003.061.007.092.01.332.031.659.053.983.07.098.005.195.008.292.012.233.009.464.015.693.018.103.001.206.002.308.002.26,0,.518-.006.772-.016.054-.002.109-.002.163-.005.3-.014.596-.035.889-.061.094-.008.187-.019.28-.028.206-.021.41-.045.612-.072.103-.014.205-.027.307-.043.214-.032.425-.067.634-.106.073-.013.148-.025.221-.039.268-.052.532-.11.793-.173.094-.023.186-.048.279-.071.176-.045.351-.092.524-.142.105-.03.209-.061.313-.093.052-.016.105-.03.156-.046-2.984,1.501-5.34,3.032-6.706,4.776ZM209.539,102.897c-4.416,2.012-8.75,3.722-12.53,5.372.021-.013.041-.027.061-.04.112-.071.223-.143.333-.216.097-.064.193-.13.289-.196.111-.077.223-.153.333-.232.088-.063.174-.129.26-.194.203-.152.403-.307.6-.465.075-.06.15-.12.223-.181.115-.095.229-.192.341-.29.068-.059.135-.118.202-.178.116-.103.232-.206.345-.312.024-.022.047-.045.071-.067.252-.236.497-.477.737-.723.043-.045.087-.089.13-.133.115-.12.228-.242.341-.364.045-.049.09-.098.134-.148.116-.128.231-.256.343-.387h0c3-3.468,4.986-7.71,6.282-11.485.849,2.759,4.059,2.61,4.181,2.06.157-.713-2.965-.422-1.986-4.855.411-1.864,3.074-4.019,6.394-2.089,5.458,3.173.443,11.694-7.085,15.123Z" fill="#1d1061"/>
            <g>
              <g>
                <circle cx="192.349" cy="66.268" r="2.01" fill="#ffcb57"/>
                <circle cx="191.71" cy="66.676" r="1.165" fill="#ffa544"/>
                <circle cx="192.026" cy="66.473" r="1.566" fill="url(#am)" mix-blend-mode="overlay" opacity=".25"/>
                <ellipse cx="190.779" cy="73.378" rx="5.824" ry="8.342" transform="translate(77.996 243.85) rotate(-77.549)" fill="#ffcb57"/>
                <ellipse cx="193.477" cy="65.552" rx=".533" ry=".934" transform="translate(-8.405 96.762) rotate(-27.505)" fill="#fff" opacity=".8"/>
                <ellipse cx="186.173" cy="73.374" rx="4.564" ry="3.844" transform="translate(74.386 239.35) rotate(-77.549)" fill="#ffa544"/>
                <path d="M198.227,73.341s-.494-3.214-5.009-5c2.189,1.432,2.048,2.215,2.598,2.995s1.365.948,1.442,1.791l.97.214Z" fill="#fff" opacity=".8"/>
                <ellipse cx="189.872" cy="73.513" rx="5.226" ry="7.486" transform="translate(77.153 243.071) rotate(-77.549)" fill="url(#an)" mix-blend-mode="overlay" opacity=".25"/>
                <path d="M169.407,74.623s10.478.714,11.631-4.508l19.011,4.197s-.052,7.065,9.59,9.194l-40.232-8.883Z" fill="#ffcb57"/>
                <path d="M189.503,72.242l10.207,2.254s.186,4.437,2.871,5.879c-3.368-.744-3.234-4.385-3.86-4.523s-1.015.954-1.79,1.046-.616-1.855-1.129-2.075-.907.738-1.579.016c-1.662-1.785-4.48-1.689-4.722-2.597Z" fill="#fff" opacity=".8"/>
                <path d="M185.831,74.311l-6.291-1.389c-2.84,2.172-8.554,1.805-8.554,1.805l22.393,4.944c-4.661-1.029-6.677-3.444-7.548-5.36Z" fill="#ffa544"/>
                <path d="M170.847,74.697s9.738.742,10.752-3.854l12.419,2.742s.027,6.234,9.004,8.216l-32.175-7.104Z" fill="url(#ao)" mix-blend-mode="overlay" opacity=".25"/>
                <path d="M202.693,81.291c-16.653-3.677-23.884-7.898-29.095-6.424,0,0,14.614,3.227,29.095,6.424Z" fill="#1d1061"/>
                <path d="M185.293,70.078c.903-.939,2.909-1.487,3.534-1.35s-.467,1.306-1.026,1.008,2.212-.631,2.51-.565.227.381-.506.684c.764-.253,1.825-.22,2.343.078" fill="none" stroke="#ffa544" stroke-linecap="round" stroke-linejoin="round" stroke-width=".27"/>
                <line x1="183.669" y1="70.127" x2="193.826" y2="72.369" fill="none" stroke="#ffa544" stroke-linecap="round" stroke-linejoin="round" stroke-width=".27"/>
                <path d="M176.42,74.45c2.555-.386,4.526-1.596,6.141-2.807-.8.63-3.371,3.352-2.926,3.515s3.531-1.534,4.736-3.004c-.631.691-1.817,1.826-1.717,2.567s1.967-.56,2.699-1.109" fill="none" stroke="#ffa544" stroke-linecap="round" stroke-linejoin="round" stroke-width=".27"/>
                <path d="M186.57,73.077c-.64.69-1.674,2.829-1.141,3.003s2.336-1.495,3.379-2.774c-.84,1.324-1.619,2.918-1.023,3.05s3.746-2.572,3.227-2.757-1.976,3.051-.475,3.223,3.218-2.178,2.532-2.3-.669,2.571.814,2.789,1.738-1.533,1.855-.811c.285,1.667,1.85.877,2.386.588" fill="none" stroke="#ffa544" stroke-linecap="round" stroke-linejoin="round" stroke-width=".27"/>
                <path d="M198.452,75.481c.379,1.439,1.081,2.793,2.039,3.932" fill="none"/>
                <line x1="194.774" y1="72.579" x2="195.027" y2="72.635" fill="none" stroke="#ffa544" stroke-linecap="round" stroke-linejoin="round" stroke-width=".27"/>
              </g>
              <g>
                <path d="M182.396,120.032l-1.829-.404-1.829-.404c-5.314,16.959-20.224,11.052-20.224,11.052l-.972,5.19,18.656,3.945,18.583,4.277,1.071-4.061s-16.184-1.717-13.457-19.596Z" fill="#ffcb57"/>
                <g clip-path="url(#ap)">
                  <path d="M182.911,121.637s-2.201.508-4.876-1.077c0,0-1.205,3.468-2.748,5.219,0,0,4.983.815,7.624-4.143Z" fill="#ffa544"/>
                  <path d="M182.084,121.693l-3.903-.862s-.824,1.966-1.182,2.606c0,0,4.375-.202,5.085-1.745Z" fill="#1d1061"/>
                  <path d="M181.724,125.414c.037,1.176.255,5.482,2.689,8.294,2.956,3.415,5.925,4.541,4.446,4.086-3.892-1.199-8.228-5.253-8.455-12.114-.011-.345.125-.689.42-.835.007-.003.013-.007.02-.01.419-.209.865.083.881.579Z" fill="#fff" opacity=".8"/>
                  <path d="M184.7,122.05s-1.183,4.074-7.985,5.702c0,0-4.887,5.448-13.806,1.842l15.59-10.935,5.434.942.767,2.45Z" fill="url(#aq)" mix-blend-mode="overlay" opacity=".25"/>
                </g>
                <path d="M194.901,143.942l1.18-4.332s-25.862-5.298-37.814-9.56l-.516,5.463,37.15,8.429Z" fill="url(#ar)" mix-blend-mode="overlay" opacity=".25"/>
                <line x1="195.058" y1="139.775" x2="177.809" y2="135.967" fill="none" stroke="#ffa544" stroke-linecap="round" stroke-linejoin="round" stroke-width=".27"/>
                <path d="M169.201,133.882l-11.784-3.738" fill="none" stroke="#ffa544" stroke-linecap="round" stroke-linejoin="round" stroke-width=".27"/>
                <path d="M171.671,134.633l-.716-.281" fill="none" stroke="#ffa544" stroke-linecap="round" stroke-linejoin="round" stroke-width=".27"/>
              </g>
              <g>
                <circle cx="181.43" cy="115.722" r="6.214" fill="#ffcb57"/>
                <circle cx="179.53" cy="116.621" r="3.946" fill="#ffa544"/>
                <path d="M186.32,112.582c-1.305-1.194-3.92-1.476-3.381.669s2.209,2.99,3.422,2.11.517-2.269-.04-2.779Z" fill="#fff" opacity=".8"/>
                <circle cx="180.668" cy="116.661" r="4.393" fill="url(#as)" mix-blend-mode="overlay" opacity=".25"/>
                <path d="M177.194,115.228c-.29.94-.324,1.957-.097,2.914" fill="none" stroke="#ffcb57" stroke-linecap="round" stroke-linejoin="round" stroke-width=".27"/>
                <path d="M177.741,116.7c0,.743.14,1.485.408,2.178" fill="none" stroke="#ffcb57" stroke-linecap="round" stroke-linejoin="round" stroke-width=".27"/>
                <path d="M178.724,117.637c.223.612.479,1.212.766,1.796" fill="none" stroke="#ffcb57" stroke-linecap="round" stroke-linejoin="round" stroke-width=".27"/>
                <path d="M185.379,110.797s-2.283-.14-5.296-1.169c0,0-1.015.253-2.044.871,0,0,4.272,2.365,7.34.298Z" fill="#ffa544"/>
                <path d="M185.181,110.759s-3.328.188-6.038-.407c-.85-.187,1.566-.855,1.566-.855l4.472,1.262Z" fill="#1d1061"/>
                <path d="M186.484,117.083s-1.265,2.676-.975,2.866,1.142-1.288,1.142-1.288l-.168-1.577Z" fill="#1d1061"/>
                <path d="M176.214,115.142s-.269,2.628-.45,2.655-.186-1.578-.186-1.578l.636-1.077Z" fill="#1d1061"/>
              </g>
              <g>
                <path d="M211.855,82.947l-22.111-4.882-22.111-4.882s-10.807,31.573,14.961,37.263c25.768,5.689,29.26-27.499,29.26-27.499Z" fill="#ffcb57"/>
                <path d="M201.199,104.739c-6.027,4.55-5.84,1.847-12.736-.068s-8.179.939-14.331-3.164c-4.376-2.919-7.241-12.838-8.531-18.321-.964,9.767.728,23.669,16.993,27.26,9.748,2.152,16.307-1.261,20.696-6.335-.223-.415-.855-.306-2.091.628Z" fill="#ffa544"/>
                <g clip-path="url(#at)">
                  <path d="M167.793,98.534c.176,1.292,2.11,4.816,4.291,6.774s4.975,4.205,11.035,5.469c3.508.732,2.655-.207.358-.967-5.768-1.91-5.478-4.609-9.059-4.989s-5.612-4.158-6.624-6.287Z" fill="#1d1061"/>
                  <path d="M166.66,78.389s-3.511,21.172,5.683,28.963c9.195,7.791,17.967,6.753,22.901,3.468s7.695-8.972,7.695-8.972c0,0-.409-20.37-36.279-23.459Z" fill="url(#au)" mix-blend-mode="overlay" opacity=".25"/>
                </g>
                <path d="M210.851,83.773l-9.346-2.064c-7.981,2.524-1.89,6.474-4.837,8.437s-16.342-4.26-24.826,6.347c0,0,1.224,5.25,7.43,6.41,1.631-7.385,6.148-11.96,13.414-9.339,9.95,3.589,13.785,1.513,12.23-3.034-.935-2.734.974-7.089,5.935-6.757Z" fill="#fff" opacity=".8"/>
                <path d="M209.776,88.641s-1.49,5.962-1.438,6.514,2.062-6.377,2.062-6.377l-.624-.138Z" fill="#1d1061"/>
                <path d="M167.124,79.188s-.921,6.928-1.33,7.692.306-7.602.306-7.602l1.024-.09Z" fill="#1d1061"/>
              </g>
              <g>
                <path d="M160.968,83.033c-.157.713,4.689,3.012,6.04-3.109.795-3.603-1.521-9.154-8.654-7.741-8.034,1.591-9.261,12.65-1.85,20.85,6.159,6.815,18.458,17.549,17.432,21.606s-3.365,2.848-3.491,3.419,4.647,2.162,5.769-2.917c1.285-5.821-7.687-13.562-16.261-23.563-5.384-6.28-6.345-16.121-.058-16.7,3.824-.353,5.331,2.723,4.92,4.587-.979,4.432-3.688,2.854-3.845,3.567Z" fill="#ffcb57"/>
                <path d="M165.791,75.434s-1.127-2.565-3.301-3.019-5.745-.409-7.989,2.284,2.569-1.62,5.882-1.311c4.13.385,5.741,3.529,5.408,2.046Z" fill="#fff" opacity=".8"/>
                <g clip-path="url(#av)">
                  <path d="M162.184,84.927c-1.245-.275-1.719-1.698-.177-1.665,3.198.068,5.151-4.096,4.791-1.753s-2.417,3.904-4.614,3.419Z" fill="#ffa544"/>
                  <path d="M153.449,86.321c.302-1.368,2.783,4.981,7.533,9.646,5.28,5.186,14.799,15.728,12.371,16.853s-20.7-22.896-19.904-26.499Z" fill="#ffa544"/>
                  <path d="M176.554,114.918c-.023-.793-.257-1.085-.619-.137s-1.976,3.914-4.255,3.685.425,1.087,1.835.953,3.153-.606,3.039-4.502Z" fill="#ffa544"/>
                  <path d="M159.165,83.568s3.665.71,5.784-1.394c2.685-2.667,1.848-8.421-3.819-9.379-6.861-1.16-9.505,6.993-5.902,13.411,2.793,4.976,8.273,6.712,7.908,6.492s-3.972-9.13-3.972-9.13Z" fill="url(#aw)" mix-blend-mode="overlay" opacity=".25"/>
                </g>
              </g>
              <g>
                <path d="M213.753,94.687c-.157.713-5.521.758-4.169-5.363.795-3.603,5.234-7.662,11.109-3.378,6.617,4.826,3.074,15.373-7.101,19.691-8.456,3.588-24.131,8.146-24.909,12.258s1.853,4.001,1.727,4.571-5.125.004-4.004-5.074c1.285-5.821,12.683-9.065,24.671-14.526,7.528-3.429,12.543-11.95,7.085-15.123-3.32-1.93-5.982.225-6.394,2.089-.979,4.432,2.143,4.142,1.986,4.855Z" fill="#ffcb57"/>
                <path d="M212.578,85.764s2.102-1.852,4.265-1.349,5.383,2.048,6.285,5.436-1.648-2.551-4.783-3.666c-3.908-1.39-6.693.784-5.767-.421Z" fill="#fff" opacity=".8"/>
                <g clip-path="url(#ax)">
                  <path d="M211.852,95.893c1.245.275,2.274-.817.862-1.436-2.929-1.284-2.948-5.884-3.607-3.608s.549,4.559,2.745,5.044Z" fill="#ffa544"/>
                  <path d="M219.188,100.836c.302-1.368-4.621,3.346-10.894,5.577-6.973,2.481-20.046,8.035-18.317,10.077s28.416-12.052,29.211-15.654Z" fill="#ffa544"/>
                  <path d="M199.735,107.428c2.152.475-9.727,5.854-11.286,5.326s9.689-5.678,11.286-5.326Z" fill="#ffa544"/>
                  <path d="M207.614,105.277c-2.043.683-14.158,6.268-16.669,7.781s-4.168,3.527-3.468,5.792c1.233-.413-1.166-1.748,1.97-4.389.573-.482.889-.174,2.344-1.449.585-.512,3.258-2.021,6.44-3.105,7.716-2.629,11.527-5.347,9.382-4.63Z" fill="#fff" opacity=".8"/>
                  <path d="M186.19,117.045c.355-.71.69-.875.619.137s.144,4.382,2.308,5.134-.843.807-2.066.092-2.604-1.877-.861-5.363Z" fill="#ffa544"/>
                  <path d="M189.335,124.729s-6.332-5.894-1.007-9.496c5.325-3.602,10.476-3.836,17.297-4.825,6.821-.988-16.29,14.321-16.29,14.321Z" fill="url(#ay)" mix-blend-mode="overlay" opacity=".25"/>
                </g>
              </g>
            </g>
            <path d="M213.591,105.637c10.176-4.317,13.718-14.865,7.101-19.691-4.03-2.939-7.383-1.952-9.349.121.384-1.912.511-3.12.511-3.12l-7.654-1.69c-4.177-2.891-4.151-6.945-4.151-6.945l-1.033-.228c-.116-2.487-2.409-4.921-5.724-6.043.501-.267.888-.742,1.02-1.34.239-1.084-.445-2.157-1.529-2.396-1.084-.239-2.157.445-2.396,1.529-.132.598.018,1.192.361,1.645-3.479-.378-6.583.864-7.736,3.071l-1.972-.435c-.662,2.998-4.395,4.038-7.457,4.382l-5.948-1.313s-.393,1.149-.85,3.045c-.911-2.708-3.537-5.015-8.429-4.046-8.034,1.591-9.261,12.65-1.85,20.85,6.159,6.815,18.458,17.549,17.432,21.606-1.026,4.057-3.365,2.848-3.491,3.419-.105.476,3.194,1.657,4.944-.904.374,1.573,1.353,2.953,2.734,3.822-4.296,11.025-13.088,10.78-17.282,9.941-.912-.292-1.775-.582-2.574-.867l-.295,3.128-.428,2.289.208.044v.002s37.15,8.429,37.15,8.429l1.18-4.332s-1.171-.24-3.125-.658c-4.299-1.39-11.761-5.486-10.779-17.067,1.634-.198,3.118-1.041,4.129-2.321.509,3.06,3.999,3.378,4.104,2.902.126-.571-2.504-.46-1.727-4.571.778-4.112,16.452-8.67,24.908-12.258ZM213.753,94.687c.157-.713-2.965-.422-1.986-4.855.411-1.864,3.074-4.019,6.394-2.089,5.458,3.173.443,11.694-7.085,15.123-4.416,2.012-8.75,3.722-12.53,5.372.021-.013.041-.027.062-.04.112-.071.222-.143.332-.216.098-.065.194-.131.29-.197.111-.076.222-.152.331-.231.091-.066.18-.134.27-.201.199-.149.395-.301.588-.456.076-.061.152-.122.226-.184.115-.095.228-.192.34-.289.068-.059.136-.119.203-.179.116-.103.232-.206.345-.312.023-.021.045-.044.068-.065.252-.236.497-.478.738-.724.044-.045.088-.09.132-.135.115-.12.228-.241.34-.363.045-.049.09-.099.135-.149.115-.128.23-.255.342-.385,0,0,0,0,0,0h0c3-3.468,4.986-7.71,6.282-11.485.849,2.759,4.059,2.61,4.181,2.06ZM159.894,74.879c3.824-.353,5.331,2.723,4.92,4.587-.979,4.432-3.688,2.854-3.845,3.567-.121.549,2.727,2.036,4.659-.109-.009.087-.018.174-.026.262h0s0,.001,0,.002c-.043.438-.081.885-.112,1.338-.003.04-.005.08-.008.12-.019.287-.036.577-.049.869,0,.011-.001.021-.002.032-.006.138-.012.277-.017.416-.002.068-.005.137-.007.206-.007.218-.012.437-.015.657-.001.085-.003.169-.003.254-.001.126-.002.253-.002.38,0,.11.001.221.002.332.002.177.004.354.008.532.003.112.006.223.009.335.004.112.007.225.012.337.008.188.017.376.028.564.006.104.013.208.02.313.009.136.019.272.029.408.008.108.017.217.026.325.016.185.034.369.053.554.01.094.02.189.031.283.021.182.043.364.067.546.012.092.025.184.038.276.024.171.049.341.076.512.013.083.026.166.04.249.036.214.073.427.114.641.014.071.028.142.042.213.035.177.072.353.111.53.014.066.028.131.043.197.05.219.103.437.158.655.018.069.036.139.054.208.053.203.109.406.168.609.011.038.022.076.033.114.064.218.133.435.204.652.021.064.042.127.063.191.075.223.152.444.234.665.016.042.032.084.048.126.074.197.152.392.232.587.021.051.042.102.063.154.092.22.188.439.288.656.023.05.047.1.07.149.095.201.192.402.294.601.014.028.028.057.043.085.112.218.23.433.351.647.028.05.057.1.086.15.124.216.252.43.385.642.01.016.021.032.031.049.038.06.077.119.115.178-2.734-3.087-5.944-6.463-9.101-10.146-5.384-6.28-6.345-16.121-.058-16.7ZM172.076,105.301c.054.049.11.097.164.146.042.038.085.076.128.113.202.177.409.351.622.522.029.023.059.046.088.069.197.156.4.309.606.46.041.03.08.059.121.089.226.162.457.32.694.475.047.031.095.061.143.092.227.146.458.288.696.428.023.014.046.028.07.042.253.147.514.289.78.429.058.03.116.061.175.091.269.138.542.273.824.403.024.011.049.021.072.032.265.121.537.238.813.352.061.025.122.051.183.076.292.118.59.232.895.341.057.02.116.04.173.06.172.06.345.12.521.178-.141.044-.337.11-.569.201-.156.058-.308.123-.459.193-.011.005-.022.01-.033.015-.089.042-.179.084-.266.131-.157.079-.316.164-.478.261,0,0,.006.003.015.008-.765.495-1.418,1.161-1.908,1.953-.503-2.157-1.995-4.54-4.071-7.159ZM187.595,114.988c-.191-1.599-.998-3.057-2.228-4.068.21.025.418.048.625.068.032.003.065.007.096.01.332.031.659.053.983.069.098.005.195.008.293.012.233.009.463.015.692.018.103.001.207.002.309.002.26,0,.516-.006.771-.016.054-.002.11-.002.164-.005.3-.014.596-.035.889-.061.094-.008.186-.019.279-.028.206-.021.411-.045.613-.072.102-.014.205-.027.306-.043.214-.032.425-.067.634-.106.073-.013.148-.025.221-.039.268-.052.532-.11.793-.173.094-.023.187-.048.28-.071.176-.045.351-.092.524-.142.105-.03.209-.061.312-.092.052-.016.105-.03.156-.046-2.987,1.503-5.346,3.036-6.711,4.782Z" fill="#1d1061" mix-blend-mode="multiply" opacity=".5"/>
          </g>
          <g>
            <ellipse cx="125" cy="194.669" rx="101.706" ry="83.824" fill="#f2f0ec"/>
            <circle cx="51.08" cy="138.154" r="14.593" fill="#f2f0ec"/>
            <circle cx="46.112" cy="111.244" r="4.243" fill="#f2f0ec"/>
            <circle cx="57.083" cy="73.364" r="4.243" fill="#f2f0ec"/>
            <circle cx="82.44" cy="121.697" r="7.866" fill="#f2f0ec"/>
            <circle cx="76.644" cy="110.934" r="1.863" fill="#f2f0ec"/>
            <circle cx="21.686" cy="145.813" r="3.208" fill="#f2f0ec"/>
            <circle cx="150.231" cy="102.55" r="5.899" fill="#f2f0ec"/>
            <circle cx="160.788" cy="94.477" r="2.587" fill="#f2f0ec"/>
            <circle cx="179.832" cy="122.215" r="12.937" fill="#f2f0ec"/>
            <circle cx="193.183" cy="120.041" r="3.105" fill="#f2f0ec"/>
            <circle cx="210.778" cy="151.712" r="8.073" fill="#f2f0ec"/>
            <circle cx="230.028" cy="154.817" r="2.898" fill="#f2f0ec"/>
            <circle cx="97.009" cy="97.136" r="1.788" fill="#f2f0ec"/>
          </g>
        </g>
        <g>
          <path d="M191.729,45.197c-.899-8.704-5.958-15.686-13.881-19.155-5.445-2.385-10.466-2.731-14.787-1.726-1.22-.49-2.549-.759-3.935-.759h-9.632c-.685-.536-.967-1.068-1.071-1.322-.724-2.756-2.504-5.025-4.847-6.408-1.85-2.391-4.302-4.398-7.191-5.895-2.079-4.92-6.954-8.381-12.622-8.381s-10.543,3.461-12.622,8.381c-2.464,1.277-4.611,2.925-6.337,4.866-3.712,1.101-6.569,4.187-7.342,8.028-.334.198-.811.449-1.47.73h-7.591c-1.386,0-2.715.269-3.935.759-4.321-1.004-9.343-.658-14.787,1.726-7.923,3.47-12.982,10.452-13.881,19.155-1.187,11.495,5.019,23.577,16.195,31.532,3.136,2.232,6.823,4.618,10.727,7.144,4.616,2.986,12.247,7.924,16.534,11.448-1.425,1.994-2.011,4.274-2.011,6.278,0,4.009,2.323,8.502,7.456,10.311-1.695,1.102-3.925,1.827-6.879,1.961-1.171-.114-2.258-.234-3.239-.357-3.231-.407-6.469.701-8.774,3.002s-3.419,5.536-3.019,8.768l.544,4.393.102,3.156c.185,5.735,4.92,10.266,10.655,10.215h.069c.033,0,.065,0,.098,0l59.49.346h.063c5.625,0,10.268-4.416,10.542-10.042l.341-7.004c.142-2.913-.928-5.755-2.956-7.851-2.028-2.097-4.839-3.267-7.748-3.216-.023,0-1.618.024-4.306.044-3.446-.41-5.912-1.579-7.686-3.15,5.714-1.598,8.288-6.354,8.288-10.573,0-2.004-.586-4.284-2.011-6.278,4.288-3.524,11.919-8.461,16.534-11.447,3.904-2.526,7.591-4.912,10.727-7.144,11.176-7.955,17.381-20.037,16.195-31.532Z" fill="url(#y)" mix-blend-mode="lighten" opacity=".5"/>
          <path d="M172.347,36.133c-7.134-3.125-11.916-.49-14.216,3.332-.059-3.045-.271-4.93-.271-4.93h-12.242c-7.344-3.003-8.669-9.193-8.669-9.193h-1.653c-1.015-3.754-5.33-6.693-10.763-7.288.675-.576,1.104-1.431,1.104-2.387,0-1.734-1.405-3.139-3.139-3.139s-3.139,1.405-3.139,3.139c0,.956.429,1.811,1.104,2.387-5.433.595-9.748,3.534-10.763,7.288h-3.154c0,4.795-5.343,7.638-9.896,9.193h-9.513s-.212,1.885-.271,4.93c-2.3-3.822-7.082-6.457-14.216-3.332-11.715,5.131-9.864,22.409,4.2,32.419,11.688,8.319,34.056,20.548,33.857,27.08-.199,6.532-4.173,5.477-4.173,6.39,0,.761,5.417,1.45,7.229-3.03,1.102,2.27,3.063,4.045,5.46,4.905-2.842,18.25-16.328,20.836-23.005,20.968-1.489-.139-2.903-.29-4.218-.456l.603,4.87.117,3.635.332-.003v.003s59.491.346,59.491.346l.341-7.004s-1.867.028-4.987.049c-7.023-.672-19.778-4.405-22.182-22.388,2.424-.851,4.408-2.636,5.519-4.925,1.812,4.48,7.229,3.791,7.229,3.03,0-.913-3.974.142-4.173-6.39s22.17-18.761,33.857-27.08c14.064-10.01,15.915-27.288,4.2-32.419ZM75.905,39.726c5.712-1.825,9.047,2.358,9.047,5.338,0,7.089-4.663,5.594-4.663,6.734,0,.879,4.844,2.187,7.069-1.734.015.135.032.272.048.408h0s0,.001,0,.002c.082.683.175,1.377.28,2.08.009.061.018.123.028.184.068.45.141.903.22,1.359.002.01.003.021.005.031.037.214.076.428.115.643.019.104.039.208.058.312.063.337.13.674.199,1.013.026.129.052.257.08.386.041.194.083.387.126.582.037.166.075.332.113.498.063.272.127.544.194.816.041.168.083.336.126.503.044.171.087.342.132.513.075.284.153.568.233.853.044.156.09.313.135.469.059.203.119.405.181.608.051.168.102.335.154.502.086.272.174.545.265.817.047.142.095.283.144.424.092.268.186.535.283.802.05.139.102.278.154.416.093.251.189.501.287.75.048.123.096.246.146.369.126.313.256.626.389.937.045.104.091.207.136.311.113.257.228.513.346.768.044.096.088.192.133.288.149.317.304.632.461.946.05.1.102.2.153.299.15.292.303.582.46.871.03.054.059.109.089.163.172.311.35.619.53.926.053.09.106.179.16.269.189.314.382.626.581.935.038.059.078.118.116.177.179.275.363.547.551.817.049.071.098.142.148.213.215.304.435.605.66.902.052.069.106.138.159.207.212.275.427.547.648.815.032.038.062.077.094.116.245.294.497.584.753.87.06.067.12.133.18.199.262.287.529.572.803.85.021.022.043.042.065.064.077.078.157.155.235.232-5.208-3.788-11.24-7.854-17.296-12.408-10.325-7.764-15.104-22.447-5.712-25.448ZM104.724,82.017c.099.057.2.111.3.167.077.043.155.087.233.13.368.202.742.399,1.125.588.05.025.102.048.153.073.354.172.715.338,1.082.499.072.031.143.064.215.095.398.17.804.333,1.217.49.083.031.167.061.251.092.395.145.796.285,1.204.417.04.013.079.027.12.04.436.139.882.268,1.334.391.099.027.198.053.298.08.457.12.919.234,1.392.338.04.009.08.016.12.025.446.096.9.183,1.36.264.101.018.202.036.303.053.486.081.979.155,1.481.219.094.012.189.022.283.034.282.034.566.067.854.095-.154.088-.352.206-.582.353-.464.282-.9.603-1.309.956-.196.162-.394.335-.59.521,0,0,.009.003.024.007-.998,1.011-1.775,2.241-2.255,3.611-1.495-3.117-4.571-6.244-8.613-9.536ZM131.657,91.553c-.829-2.369-2.55-4.317-4.761-5.443.326-.032.65-.067.97-.106.047-.006.096-.01.143-.016.517-.065,1.023-.142,1.523-.225.151-.025.3-.053.45-.08.359-.064.713-.133,1.063-.206.157-.033.315-.066.47-.101.397-.089.787-.184,1.172-.284.082-.021.166-.04.247-.062.453-.122.897-.254,1.335-.392.141-.044.279-.092.418-.138.307-.101.61-.206.909-.315.152-.055.304-.111.453-.168.315-.12.625-.246.931-.375.107-.045.217-.088.323-.134.391-.17.774-.347,1.151-.531.136-.066.268-.135.402-.203.253-.128.504-.258.751-.392.15-.081.299-.163.446-.246.073-.042.149-.081.222-.123-4.045,3.294-7.123,6.422-8.619,9.541ZM163.378,65.174c-6.057,4.555-12.09,8.622-17.299,12.411.027-.027.053-.055.08-.081.147-.146.292-.294.436-.442.126-.131.251-.263.374-.396.144-.155.289-.309.429-.466.113-.126.221-.255.332-.383.259-.3.512-.603.759-.912.094-.117.188-.234.28-.352.143-.184.284-.37.423-.557.084-.113.166-.226.248-.34.142-.196.284-.393.422-.592.029-.042.057-.085.085-.127.304-.444.597-.895.88-1.351.051-.082.103-.164.154-.247.135-.222.267-.445.397-.67.052-.09.104-.18.155-.27.133-.234.265-.469.393-.705h0c3.407-6.298,5.008-13.436,5.713-19.629,2.224,3.922,7.069,2.613,7.069,1.734,0-1.14-4.663.354-4.663-6.734,0-2.98,3.335-7.163,9.047-5.338,9.392,3.001,4.613,17.684-5.712,25.448Z" fill="#1d1061"/>
          <g>
            <g>
              <circle cx="124.186" cy="15.245" r="3.139" fill="#ffcb57"/>
              <circle cx="123.349" cy="16.082" r="1.82" fill="#ffa544"/>
              <circle cx="123.764" cy="15.667" r="2.446" fill="url(#az)" mix-blend-mode="overlay" opacity=".25"/>
              <ellipse cx="124.186" cy="26.616" rx="13.028" ry="9.095" fill="#ffcb57"/>
              <ellipse cx="125.666" cy="13.774" rx=".833" ry="1.459" transform="translate(20.492 83.917) rotate(-39.955)" fill="#fff" opacity=".8"/>
              <ellipse cx="117.162" cy="28.161" rx="6.004" ry="7.127" fill="#ffa544"/>
              <path d="M135.533,24.052s-1.836-4.734-9.322-5.939c3.819,1.447,3.87,2.688,4.97,3.693s2.401.985,2.801,2.246h1.551Z" fill="#fff" opacity=".8"/>
              <ellipse cx="122.85" cy="27.127" rx="11.691" ry="8.162" fill="url(#ba)" mix-blend-mode="overlay" opacity=".25"/>
              <path d="M92.015,35.711s16.219-2.439,16.219-10.791h30.404s2.299,10.791,17.72,10.791h-64.343Z" fill="#ffcb57"/>
              <path d="M121.859,25.313h16.325s1.778,6.703,6.358,7.999c-5.386,0-6.408-5.598-7.409-5.598s-1.227,1.797-2.378,2.197-1.564-2.621-2.42-2.784-1.135,1.431-2.402.556c-3.136-2.163-7.4-1.067-8.075-2.37Z" fill="#fff" opacity=".8"/>
              <path d="M116.955,29.705h-10.061c-3.6,4.268-12.437,5.633-12.437,5.633h35.814c-7.454,0-11.341-3.004-13.316-5.633Z" fill="#ffa544"/>
              <path d="M94.235,35.338s15.099-2.146,15.099-9.498h19.861s2.141,9.498,16.497,9.498h-51.458Z" fill="url(#bb)" mix-blend-mode="overlay" opacity=".25"/>
              <path d="M145.019,34.671c-26.634,0-39.081-4.002-46.532,0h46.532Z" fill="#1d1061"/>
              <path d="M114.71,23.43c1.06-1.736,3.935-3.248,4.935-3.248s-.273,2.148-1.226,1.883,3.161-1.707,3.637-1.707.474.504-.541,1.213c1.08-.642,2.709-.951,3.6-.67" fill="none" stroke="#ffa544" stroke-linecap="round" stroke-linejoin="round" stroke-width=".422"/>
              <line x1="112.25" y1="24.052" x2="128.493" y2="24.052" fill="none" stroke="#ffa544" stroke-linecap="round" stroke-linejoin="round" stroke-width=".422"/>
              <path d="M102.651,33.085c3.766-1.449,6.365-3.958,8.42-6.348-1.008,1.23-4.012,6.247-3.278,6.346s4.868-3.528,6.211-6.176c-.73,1.267-2.155,3.396-1.754,4.492s2.811-1.515,3.742-2.6" fill="none" stroke="#ffa544" stroke-linecap="round" stroke-linejoin="round" stroke-width=".422"/>
              <path d="M117.668,27.574c-.744,1.268-1.599,4.878-.729,4.964s3.06-3.067,4.219-5.368c-.835,2.301-1.487,4.995-.533,4.995s4.846-5.183,3.993-5.291-1.987,5.318.361,5.075,4.174-4.405,3.087-4.359-.155,4.146,2.181,3.978,2.134-2.924,2.556-1.862c.997,2.446,3.116.714,3.837.094" fill="none" stroke="#ffa544" stroke-linecap="round" stroke-linejoin="round" stroke-width=".422"/>
              <path d="M136.596,27.24c1.062,2.068,2.588,3.895,4.433,5.309" fill="none"/>
              <line x1="130.01" y1="24.052" x2="130.414" y2="24.052" fill="none" stroke="#ffa544" stroke-linecap="round" stroke-linejoin="round" stroke-width=".422"/>
            </g>
            <g>
              <path d="M127.111,100.585h-5.849c-2.393,27.652-27.12,23.663-27.12,23.663l.266,8.242,29.779-.266,29.779.266.266-6.553s-25.259,2.831-27.12-25.352Z" fill="#ffcb57"/>
              <g clip-path="url(#bc)">
                <path d="M128.438,102.859s-3.185,1.516-7.798,0c0,0-.67,5.695-2.433,8.884,0,0,7.874-.435,10.231-8.884Z" fill="#ffa544"/>
                <path d="M127.195,103.223h-6.242s-.595,3.276-.925,4.373c0,0,6.603-1.782,7.168-4.373Z" fill="#1d1061"/>
                <path d="M127.899,109.019c.453,1.781,2.235,8.275,6.894,11.743,5.658,4.212,10.564,4.931,8.155,4.734-6.34-.517-14.317-5.24-16.973-15.627-.133-.522-.041-1.092.36-1.415.009-.007.018-.015.027-.022.568-.46,1.347-.164,1.538.586Z" fill="#fff" opacity=".8"/>
                <path d="M131.304,102.887s-.433,6.612-10.257,11.383c0,0-5.618,9.953-20.434,7.458l20.092-21.925,8.604-.394,1.994,3.478Z" fill="url(#bd)" mix-blend-mode="overlay" opacity=".25"/>
              </g>
              <path d="M154.231,132.837l.341-7.004s-41.223.629-60.884-1.846l1.053,8.505,59.49.346Z" fill="url(#be)" mix-blend-mode="overlay" opacity=".25"/>
              <line x1="153.067" y1="126.429" x2="125.482" y2="126.429" fill="none" stroke="#ffa544" stroke-linecap="round" stroke-linejoin="round" stroke-width=".422"/>
              <path d="M111.653,126.148c-6.409-.578-12.819-1.155-19.228-1.733" fill="none" stroke="#ffa544" stroke-linecap="round" stroke-linejoin="round" stroke-width=".422"/>
              <path d="M115.673,126.461l-1.186-.188" fill="none" stroke="#ffa544" stroke-linecap="round" stroke-linejoin="round" stroke-width=".422"/>
            </g>
            <g>
              <circle cx="124.186" cy="94.337" r="9.705" fill="#ffcb57"/>
              <circle cx="121.592" cy="96.348" r="6.163" fill="#ffa544"/>
              <path d="M130.588,87.903c-2.392-1.381-6.475-.931-4.931,2.158s4.375,3.816,5.929,2.066.025-3.634-.997-4.224Z" fill="#fff" opacity=".8"/>
              <circle cx="123.342" cy="96.026" r="6.861" fill="url(#bf)" mix-blend-mode="overlay" opacity=".25"/>
              <path d="M117.561,95.011c-.127,1.531.164,3.094.833,4.477" fill="none" stroke="#ffcb57" stroke-linecap="round" stroke-linejoin="round" stroke-width=".422"/>
              <path d="M118.891,97.071c.251,1.132.713,2.217,1.355,3.184" fill="none" stroke="#ffcb57" stroke-linecap="round" stroke-linejoin="round" stroke-width=".422"/>
              <path d="M120.706,98.169c.546.858,1.138,1.687,1.773,2.481" fill="none" stroke="#ffcb57" stroke-linecap="round" stroke-linejoin="round" stroke-width=".422"/>
              <path d="M128.551,85.497s-3.529.555-8.47,0c0,0-1.462.727-2.823,2.017,0,0,7.31,2.168,11.293-2.017Z" fill="#ffa544"/>
              <path d="M128.236,85.506s-5.012,1.408-9.345,1.412c-1.358.001,2.101-1.831,2.101-1.831l7.244.418Z" fill="#1d1061"/>
              <path d="M132.352,94.711s-1.029,4.507-.521,4.698,1.308-2.349,1.308-2.349l-.787-2.349Z" fill="#1d1061"/>
              <path d="M116.037,95.209s.475,4.098.208,4.2-.815-2.344-.815-2.344l.607-1.856Z" fill="#1d1061"/>
            </g>
            <g>
              <path d="M159.548,34.112h-70.724s-5.849,51.787,35.362,51.787,35.362-51.787,35.362-51.787Z" fill="#ffcb57"/>
              <path d="M150.637,70.932c-7.659,8.968-8.285,4.783-19.445,4.185s-12.157,4.185-22.919,0c-7.656-2.977-15.365-17.139-19.179-25.067,1.819,15.219,9.08,35.849,35.092,35.849,15.59,0,24.442-7.413,29.427-16.628-.48-.557-1.406-.178-2.977,1.661Z" fill="#ffa544"/>
              <g clip-path="url(#bg)">
                <path d="M97.604,72.717c.703,1.911,4.839,6.633,8.824,8.885s9.002,4.738,18.669,4.625c5.596-.065,3.98-1.209.22-1.595-9.439-.97-9.906-5.184-15.494-4.558s-9.958-4.451-12.219-7.358Z" fill="#1d1061"/>
                <path d="M89.094,42.379s1.774,33.469,18.418,42.254c16.644,8.785,29.673,4.249,36.09-2.422,6.418-6.671,8.714-16.273,8.714-16.273,0,0-7.483-30.926-63.223-23.559Z" fill="url(#bh)" mix-blend-mode="overlay" opacity=".25"/>
              </g>
              <path d="M158.296,35.711h-14.947c-11.321,6.536-.702,10.509-4.536,14.495s-26.355-.994-35.722,18.038c0,0,3.635,7.594,13.489,7.273,0-11.811,5.348-20.309,17.311-18.759,16.381,2.123,21.531-2.335,17.629-8.744-2.346-3.854-.902-11.139,6.776-12.302Z" fill="#fff" opacity=".8"/>
              <path d="M158.296,43.496s-.265,9.594,0,10.419.998-10.419.998-10.419h-.998Z" fill="#1d1061"/>
              <path d="M90.069,43.441s.929,10.875.562,12.177-2.093-11.696-2.093-11.696l1.531-.481Z" fill="#1d1061"/>
            </g>
            <g>
              <path d="M81.977,51.376c0,1.14,8.164,3.014,8.164-6.774,0-5.762-5.402-13.447-15.804-8.891-11.715,5.131-9.864,22.409,4.2,32.419,11.688,8.319,34.056,20.548,33.857,27.08s-4.173,5.477-4.173,6.39,7.815,1.732,7.815-6.39c0-9.31-16.289-18.094-32.731-30.457-10.325-7.764-15.104-22.447-5.712-25.448,5.712-1.825,9.047,2.358,9.047,5.338,0,7.089-4.663,5.594-4.663,6.734Z" fill="#ffcb57"/>
              <path d="M86.773,38.165s-2.582-3.532-6.05-3.493-8.898,1.31-11.414,6.173,3.372-3.336,8.528-3.98c6.428-.803,9.943,3.449,8.936,1.3Z" fill="#fff" opacity=".8"/>
              <g clip-path="url(#bi)">
                <path d="M84.469,53.856c-1.99,0-3.194-2.011-.831-2.48,4.9-.972,6.477-7.981,6.715-4.287s-2.372,6.767-5.885,6.767Z" fill="#ffa544"/>
                <path d="M71.618,58.923c0-2.188,5.921,6.658,14.735,12.173,9.798,6.131,27.864,19.002,24.54,21.534-3.324,2.532-39.275-27.946-39.275-33.708Z" fill="#ffa544"/>
                <path d="M116.481,94.752c-.302-1.202-.758-1.567-.991,0s-1.696,6.634-5.248,7.052,1.014,1.515,3.119.836,4.604-1.985,3.119-7.888Z" fill="#ffa544"/>
                <path d="M79.407,52.8s5.828-.151,8.351-4.073c3.197-4.971-.016-13.464-8.982-13.016-10.854.542-12.14,13.865-4.484,22.439,5.935,6.647,14.875,7.45,14.246,7.237s-9.131-12.586-9.131-12.586Z" fill="url(#bj)" mix-blend-mode="overlay" opacity=".25"/>
              </g>
            </g>
            <g>
              <path d="M166.396,51.376c0,1.14-8.164,3.014-8.164-6.774,0-5.762,5.402-13.447,15.804-8.891,11.715,5.131,9.864,22.409-4.2,32.419-11.688,8.319-34.056,20.548-33.857,27.08s4.173,5.477,4.173,6.39-7.815,1.732-7.815-6.39c0-9.31,16.289-18.094,32.731-30.457,10.325-7.764,15.104-22.447,5.712-25.448-5.712-1.825-9.047,2.358-9.047,5.338,0,7.089,4.663,5.594,4.663,6.734Z" fill="#ffcb57"/>
              <path d="M161.6,38.165s2.582-3.532,6.05-3.493,8.898,1.31,11.414,6.173-3.372-3.336-8.528-3.98c-6.428-.803-9.943,3.449-8.936,1.3Z" fill="#fff" opacity=".8"/>
              <g clip-path="url(#bk)">
                <path d="M163.903,53.856c1.99,0,3.194-2.011.831-2.48-4.9-.972-6.477-7.981-6.715-4.287s2.372,6.767,5.885,6.767Z" fill="#ffa544"/>
                <path d="M176.755,58.923c0-2.188-5.921,6.658-14.735,12.173-9.798,6.131-27.864,19.002-24.54,21.534,3.324,2.532,39.275-27.946,39.275-33.708Z" fill="#ffa544"/>
                <path d="M149.308,75.526c3.442,0-12.862,12.202-15.417,11.921s12.864-11.921,15.417-11.921Z" fill="#ffa544"/>
                <path d="M160.6,69.593c-2.885,1.729-19.48,14.326-22.8,17.478s-5.168,6.781-3.338,10c1.741-1.045-2.366-2.273,1.527-7.356.711-.928,1.297-.565,3.087-2.999.719-.978,4.288-4.178,8.776-6.903,10.881-6.607,15.778-12.035,12.749-10.22Z" fill="#fff" opacity=".8"/>
                <path d="M131.892,94.752c.302-1.202.758-1.567.991,0s1.696,6.634,5.248,7.052-1.014,1.515-3.119.836-4.604-1.985-3.119-7.888Z" fill="#ffa544"/>
                <path d="M139.275,105.411s-11.641-6.856-4.734-14.142c6.907-7.286,14.684-9.377,24.753-13.181s-20.019,27.323-20.019,27.323Z" fill="url(#bl)" mix-blend-mode="overlay" opacity=".25"/>
              </g>
            </g>
          </g>
        </g>
      </g>
    </g>
  </g>
</svg>