<?xml version="1.0" encoding="utf-8"?>
<!-- Generator: Adobe Illustrator 16.0.0, SVG Export Plug-In . SVG Version: 6.00 Build 0)  -->
<!DOCTYPE svg PUBLIC "-//W3C//DTD SVG 1.1//EN" "http://www.w3.org/Graphics/SVG/1.1/DTD/svg11.dtd">
<svg version="1.1" id="img_x5F_score" xmlns="http://www.w3.org/2000/svg" xmlns:xlink="http://www.w3.org/1999/xlink" x="0px"
	 y="0px" width="200px" height="180px" viewBox="0 0 200 180" enable-background="new 0 0 200 180" xml:space="preserve">
<g>
	<path fill="#FF4E5E" d="M178.771,135.413c0-9.873-6.465-12.31-11.922-12.31h-1.472c-5.457,0-9.921-4.463-9.921-9.92v-0.994
		c0-5.457,4.464-9.92,9.921-9.92h7.252c5.457,0,9.921-4.465,9.921-9.922V90.57c0-5.458-4.464-9.921-9.921-9.921h-11.603
		c-5.457,0-9.92-4.437-9.92-9.859s4.463-9.859,9.92-9.859h18.996c5.457,0,9.92-4.464,9.92-9.921v-2.854
		c0-5.457-3.766-9.921-8.371-9.921c-4.604,0-8.37-3.905-8.37-8.678s4.464-8.678,9.921-8.678h6.43c5.457,0,9.922-4.437,9.922-9.859
		s-4.465-9.859-9.922-9.859H70.617c-5.457,0-9.921,4.437-9.921,9.859s4.464,9.859,9.921,9.859H76.6c5.457,0,9.921,3.905,9.921,8.678
		s-4.464,8.678-9.921,8.678H43.652c-5.457,0-9.921,4.464-9.921,9.921v2.854c0,5.457-4.464,9.921-9.921,9.921H10.971
		c-5.457,0-9.921,4.437-9.921,9.859s3.882,9.859,8.626,9.859c4.744,0,8.626,4.464,8.626,9.921v1.777
		c0,5.457,4.464,9.922,9.921,9.922h6.775c5.457,0,9.921,4.463,9.921,9.92v0.994c0,5.457-4.464,9.92-9.921,9.92H19.844
		c-5.457,0-9.921,4.465-9.921,9.922v5.775c0,5.457,4.464,8.922,9.921,8.922H166.85C172.307,147.723,178.771,145.286,178.771,135.413
		z"/>
	<g>
		<path fill="#BEC7E4" d="M126.975,165.684c-3.367,1.166-9.066,2.215-17.101,3.148c-23.467,2.867-45.767,2.852-66.9-0.051
			c-21.133-2.932-31.966-5.766-32.5-8.5c0.767-2.732,12.717-5.148,35.851-7.25c23.1-2.1,45.633-2.582,67.6-1.449
			c21.935,1.134,30.884,3.551,26.851,7.25C138.508,160.966,133.908,163.249,126.975,165.684z"/>
	</g>
	<g>
		<path fill="#BEC7E4" d="M102.725,166.281c0.5-2.065,5.416-3.25,14.75-3.549c9.301-0.301,17.066,1.684,23.301,5.949
			c1.3,0.834,2.166,1.649,2.6,2.45c0.6,1.101,0.768,2.116,0.5,3.05c-0.232,0.967-0.917,1.668-2.05,2.1
			c-4.468,1.801-9.017,2.65-13.65,2.551c-5.233-0.1-10.85-1.383-16.85-3.85c-3.101-1.268-5.435-2.801-7-4.601
			C102.958,168.816,102.424,167.449,102.725,166.281z"/>
	</g>
	<g>
		<g>
			<path fill="#D7A354" d="M14.875,91.482c8.852-15.393,20.877-26.576,36.075-33.55c0.143-0.07,0.284-0.137,0.425-0.2l0.35,0.05
				c0.101,0.067,0.15,0.233,0.15,0.5c0,0.104-0.009,0.212-0.025,0.325c-0.015,0.065-0.031,0.131-0.05,0.2
				c0.097-0.008,0.196-0.016,0.3-0.025c4.387,3.359,9.486,7.243,15.301,11.65c31.077,23.552,46.835,35.493,47.274,35.825
				c0.063,0.041,0.132,0.082,0.2,0.125c-0.025-0.012-0.05-0.021-0.075-0.024c1.271,0.988,2.388,2.406,3.351,4.25
				c1.47,2.806,4.701,5.806,9.699,9c4.998,3.201,8.172,6.343,9.525,9.424c1.352,3.084,1.885,7.092,1.6,12.025
				c-0.289,4.928-5.404,10.219-15.35,15.875c-9.938,5.664-24.254,8.764-42.95,9.301h-5.05c-0.531,0.004-1.064,0.004-1.6,0
				l-15.5,0.25c-21.567-0.601-36.784-5.301-45.65-14.101c-6.066-5.967-9.1-13.851-9.1-23.649
				C3.775,116.766,7.474,104.35,14.875,91.482z"/>
		</g>
		<path fill="#C99444" d="M89.475,155.809c-2.057-0.799-3.957-1.531-5.699-2.201c-0.688-1.477-1.288-2.91-1.801-4.299
			c2.043,1.133,4.293,2.375,6.75,3.725c0.499,0.275,0.99,0.542,1.476,0.8c-0.186,0.522-0.377,1.058-0.576,1.601
			C89.58,155.551,89.53,155.676,89.475,155.809z M90.95,151.582c-3.947-1.354-7.063-2.436-9.35-3.25
			c0.053,0.136,0.103,0.27,0.15,0.4c2.236,1.172,4.694,2.455,7.375,3.85c0.429,0.23,0.855,0.455,1.275,0.676
			C90.599,152.682,90.783,152.123,90.95,151.582z M89,156.883c-1.708-0.686-3.216-1.293-4.526-1.824
			c0.347,0.676,0.672,1.276,0.976,1.799c0.892,0.527,1.8,1.076,2.725,1.65C88.484,157.939,88.76,157.396,89,156.883z
			 M87.575,159.559c0.083-0.143,0.166-0.285,0.25-0.426c-0.538-0.35-1.08-0.699-1.625-1.051
			C86.73,158.857,87.188,159.35,87.575,159.559z M129.45,144.309c0.303-2.51,0.137-4.834-0.5-6.976
			c-0.657-2.214-1.55-4.272-2.675-6.175c-1.121-1.901-2.68-4.959-4.676-9.176c2.502-0.214,4.647-0.966,6.443-2.245
			c-0.066-0.044-0.126-0.087-0.193-0.13c-4.998-3.194-8.229-6.194-9.699-9c-0.963-1.844-2.08-3.262-3.351-4.25
			c0.025,0.004,0.05,0.013,0.075,0.024c-0.068-0.043-0.137-0.084-0.2-0.125c-0.438-0.332-16.197-12.272-47.274-35.825
			c-3.968-3.007-7.594-5.765-10.896-8.284c-3.075-1.116-5.882-2.055-8.435-2.823c-5.114,2.598-9.841,5.709-14.196,9.313
			c0.972,3.043,2.972,6.337,6.051,9.896c4.267,4.967,9.934,9.733,17,14.3c7.2,4.633,14.7,8.333,22.5,11.1
			c1.933,0.688,3.834,1.297,5.7,1.825c-2.053,2.517-3.67,6.259-4.85,11.226c-1.167,4.9-1.75,9.916-1.75,15.05
			c0,2.733,0.149,4.95,0.449,6.649c0.267,1.566,0.884,3.967,1.851,7.2c0.02,0.068,0.036,0.136,0.05,0.199
			c1.937,0.638,4.187,1.403,6.75,2.301c1.252,0.445,2.551,0.911,3.9,1.399c0.277-0.92,0.511-1.77,0.699-2.551
			c0.474-1.834,0.808-3.56,1-5.174c0-0.023,0-0.05,0-0.076c0-0.5-0.024-1.133-0.074-1.899l0.074-0.05v-0.024
			c-0.012-0.104-0.029-0.196-0.05-0.274v-0.426l-0.1-0.524c0.039-0.06,0.073-0.116,0.1-0.175v-5.625c-0.067-0.367-0.1-0.95-0.1-1.75
			c0-0.615,0.017-1.25,0.05-1.9c0-2.967,0.35-6.699,1.05-11.199c0.374-2.209,0.641-3.826,0.8-4.851
			c5.678,3.763,11.17,6.313,16.476,7.649c0.479,1.428,1.202,3.028,2.175,4.801c1.434,2.6,3.184,5.199,5.25,7.8
			c2.359,3.043,4.135,5.901,5.325,8.575C125.723,142.706,127.473,143.439,129.45,144.309z M129.275,145.482
			c-1.604-0.725-3.119-1.416-4.551-2.076c0.375,1.006,0.668,1.98,0.875,2.926c0.967,0.57,1.908,1.129,2.824,1.676
			C128.803,147.289,129.085,146.447,129.275,145.482z M126.5,150.082h0.05c0.063-0.042,0.13-0.084,0.2-0.125
			c-0.259-0.214-0.518-0.432-0.775-0.648c0.002,0.127,0.002,0.252,0,0.375C126.148,149.811,126.324,149.945,126.5,150.082z
			 M127.95,148.758c-0.728-0.447-1.445-0.889-2.15-1.324c0.028,0.183,0.054,0.365,0.075,0.549c0.543,0.418,1.092,0.843,1.65,1.275
			C127.671,149.104,127.813,148.938,127.95,148.758z"/>
		<g>
			<path fill="#EED37C" d="M89.025,93.531v0.051l0.5,0.1c0.184,0.162,0.366,0.32,0.55,0.475c0.378,0.348,0.77,0.705,1.175,1.076
				c-0.549,0.11-1.407,0.252-2.575,0.424c-2.051,0.299-6.867-0.534-14.45-2.5c-7.585-1.965-14.485-5.115-20.699-9.449
				c-6.205-4.338-10.822-8.421-13.851-12.25c-3.031-3.819-4.548-6.911-4.55-9.275c0-7.498,3.684-9.547,11.05-6.15
				c0.502,0.507,1.043,1.041,1.625,1.6c-0.05,0-0.108,0-0.175,0c-0.09-0.015-0.182-0.031-0.275-0.05
				c0.728,0.56,1.444,1.11,2.15,1.65c1.309,1.234,2.767,2.584,4.375,4.05c6.733,6.1,12.366,11,16.9,14.7
				c2.609,2.124,8.326,6.907,17.149,14.35C88.305,92.741,88.672,93.141,89.025,93.531z"/>
			<g>
				<path fill="#DBC066" d="M67.924,91.382c0.167,0.134,0.05,0.2-0.35,0.2c-1,0-1.816-1.333-2.45-4
					c-0.434-2.667-0.65-4.017-0.65-4.05c0-1.367,0.134-2.8,0.4-4.3h0.25c0.267,1.3,0.583,3.3,0.95,6
					C66.474,87.666,67.091,89.716,67.924,91.382z M74.424,86.882c1.033,2.3,2.217,4.7,3.55,7.2c-0.066,0.268-0.216,0.434-0.449,0.5
					c-0.767-0.367-1.584-1.467-2.45-3.301c-0.8-1.699-1.2-3-1.2-3.899c0-0.233,0.1-0.383,0.3-0.45
					C74.241,86.933,74.325,86.916,74.424,86.882z M83.424,94.632c0.066,0.067,0.134,0.101,0.2,0.101
					c0.033,0.033,0.05,0.166,0.05,0.399c0,0.435-0.017,0.55-0.05,0.351c-0.066,0.1-0.233,0.184-0.5,0.25
					c-0.1-0.066-0.167-0.117-0.2-0.15c-0.033-0.033-0.05-0.184-0.05-0.45v-0.35c0.066,0,0.116-0.05,0.15-0.15H83.424z
					 M46.025,67.683c-0.434,1.7-0.65,3.383-0.65,5.05c0,1.9,0.184,3.65,0.55,5.25c0,0.133,0,0.267,0,0.4
					c-0.066,0.1-0.233,0.15-0.5,0.15c-0.733,0-1.2-0.966-1.399-2.9c-0.067-1.967-0.101-2.967-0.101-3c0-5.2,1.5-8.5,4.5-9.9
					C47.358,63.766,46.558,65.416,46.025,67.683z M45.025,57.032c0,0.067-0.134,0.1-0.4,0.1c-1.733-0.767-2.65-1.267-2.75-1.5v-0.55
					c0.434,0,1,0.183,1.7,0.55c0.7,0.333,1.184,0.7,1.45,1.1C45.025,56.833,45.025,56.933,45.025,57.032z M37.575,61.183
					c-1.2,1.5-1.634,3.15-1.3,4.95c-0.101,0.133-0.267,0.25-0.5,0.35c-0.434-0.633-0.65-1.667-0.65-3.1c0-1.3,0.934-2.683,2.8-4.15
					c2.033-1.6,4.066-2.167,6.101-1.7l0.1,0.2C41.125,58.266,38.941,59.416,37.575,61.183z M53.525,78.632c0,1,0.3,2.35,0.899,4.05
					c0.334,0.933,0.767,2.167,1.3,3.7c-0.033,0.133-0.149,0.25-0.35,0.35c-1.2-0.9-2.116-2.217-2.75-3.95
					c-0.467-1.333-0.7-2.716-0.7-4.15c0-1.6,0.384-3.283,1.15-5.05c0.967-2.2,2.184-3.35,3.649-3.45
					c-1.366,1.733-2.25,3.2-2.649,4.4C53.708,75.532,53.525,76.899,53.525,78.632z"/>
			</g>
		</g>
		<g>
			<path fill="#EED37C" d="M93.375,102.982c-0.5,7.867-0.75,13.434-0.75,16.699c0,3.135,0.3,7.051,0.9,11.75
				c0.333,2.7,0.866,6.566,1.6,11.601v2.05l-0.2,0.15c-1.267-1.601-2.366-4.435-3.3-8.5c0.333,2.767,0.5,4.934,0.5,6.5
				c0,0.434-0.033,0.8-0.1,1.1c0.1,0.167-0.067,0.25-0.5,0.25c-0.934,0-1.7-1.6-2.301-4.8c-0.233-1.833-0.383-3.149-0.449-3.95
				c-0.2,0.102-0.4,0.217-0.601,0.352c0.033,0.666,0.066,1.1,0.101,1.299c0.166,1.066,0.3,2.283,0.399,3.65
				c0.066,0.801,0.167,2.083,0.3,3.85l-0.5,0.301c-0.6-0.7-1.116-2.135-1.55-4.301c-0.267-1.399-0.434-2.633-0.5-3.699
				c-0.267,0.134-0.5,0.267-0.7,0.4l0.15,3.85c0.066,1.134,0.267,2.833,0.6,5.102c0,0.266-0.083,0.665-0.25,1.198
				c-0.166,0.601-0.366,0.983-0.6,1.149c-0.6-0.666-1.116-2.334-1.55-5c-0.3-1.866-0.467-3.517-0.5-4.949
				c-0.101,0.033-0.2,0.083-0.3,0.15c0,0.032,0,0.065,0,0.1c0.066,0.9,0.1,2.384,0.1,4.449c0,0.166-0.033,0.584-0.1,1.25
				c-0.101,0.634-0.134,1.134-0.101,1.5h-0.25c-0.033-0.166-0.267-1.315-0.7-3.449c-0.233-1.2-0.383-2.167-0.449-2.898
				c-0.134,0.065-0.25,0.133-0.351,0.198c-0.133,1.269-0.267,2.7-0.399,4.302c-0.601-0.468-1.084-1.701-1.45-3.701
				c-0.267-1.5-0.4-2.884-0.4-4.149c0-7.167,0.967-14.101,2.9-20.8c1.899-6.666,5.783-12.467,11.649-17.4
				C93.591,99.749,93.474,101.216,93.375,102.982z"/>
			<g>
				<path fill="#DBC066" d="M91.325,102.281c-1.2,1.168-1.834,1.75-1.9,1.75c-0.434,0-0.649-0.166-0.649-0.5
					c0-0.732,0.633-1.465,1.899-2.199c1.367-0.833,2.584-0.916,3.65-0.25c-0.101,0.268-0.434,0.467-1,0.602
					C92.424,101.883,91.758,102.082,91.325,102.281z M88.674,111.383c-0.866,0.366-1.883,1.016-3.05,1.949
					c-1.4,1.134-2.434,2.434-3.1,3.9l-0.2,0.05c-0.101,0-0.167,0-0.2,0c-0.066-0.033-0.1-0.134-0.1-0.3c0-1.4,0.899-2.95,2.699-4.65
					c2.334-2.199,5.134-3.016,8.4-2.449c-0.2,0.199-0.866,0.467-2,0.801C89.724,111.049,88.908,111.281,88.674,111.383z
					 M79.075,132.031c0-2.299,1.184-4.582,3.55-6.85c2.9-2.8,6.55-4.101,10.95-3.9l0.05,0.15c-4.767,0.834-8.333,2.6-10.7,5.301
					c-1.267,1.434-2.416,3.666-3.45,6.699C79.208,133.031,79.075,132.566,79.075,132.031z"/>
			</g>
		</g>
		<g>
			<path fill="#EED37C" d="M112.575,110.082c-0.033-0.666-0.05-1.333-0.05-2c0-0.633,0.199-1.083,0.6-1.35
				c0.3,0.565,0.616,1.283,0.95,2.149c0.434-0.101,0.967-0.134,1.6-0.101c0.634,0.033,1.185,0.15,1.65,0.351
				c0.065-0.167,0.166-0.301,0.3-0.399c8.033,9.899,17.4,18.449,28.1,25.649c0,0.166-0.017,0.283-0.05,0.351
				c-0.065,0.1-0.233,0.149-0.5,0.149c-1.333,0-3.833-1.149-7.5-3.45c-0.1,0.168-0.217,0.351-0.35,0.551
				c0.233,0.133,0.483,0.267,0.75,0.399c4.7,2.8,7.05,4.616,7.05,5.449c0,0.233-0.018,0.366-0.05,0.399l0.05,0.101
				c-0.134,0.101-0.366,0.149-0.7,0.149c-1.032,0-3.366-1.133-7-3.399c-0.565-0.333-1.083-0.666-1.55-1
				c-0.167,0.233-0.333,0.45-0.5,0.649c3.732,2.666,6.283,4.851,7.65,6.551c-4.435-2.066-7.168-3.385-8.2-3.95
				c-0.435-0.231-0.851-0.468-1.25-0.699c-0.101,0.065-0.185,0.149-0.25,0.25c0.733,0.468,1.483,1.017,2.25,1.649
				c1.934,1.634,3.583,3.365,4.95,5.199l-0.15,0.5l-0.4,0.101c-1.5-0.8-3.55-2.101-6.148-3.899c-1.066-0.732-1.983-1.399-2.75-2
				c2.066,2.533,3.449,4.668,4.148,6.399c-8.767-6.033-14.582-11.783-17.449-17.25c-2.834-5.5-4.517-10.833-5.051-16
				c-0.033-0.033-0.065-0.05-0.1-0.05c0-0.033-0.033-0.066-0.1-0.1c-0.067-0.035-0.102-0.185-0.102-0.451
				C112.424,110.615,112.475,110.316,112.575,110.082z"/>
			<g>
				<path fill="#DBC066" d="M119.975,110.633c-2.967,2.699-4.551,6.5-4.75,11.399l-0.301,0.149c-0.066-0.134-0.199-0.717-0.398-1.75
					c-0.168-0.967-0.25-1.55-0.25-1.75c0-1.533,0.466-3.149,1.398-4.851C116.809,111.732,118.241,110.666,119.975,110.633z
					 M123.075,115.531c0.032,0,0.05,0.068,0.05,0.201c-0.232,0.399-0.518,0.867-0.85,1.399c-0.635,1.065-1.102,2.05-1.4,2.949
					c-0.1,0.334-0.2,1-0.3,2c-0.101,0.866-0.15,1.551-0.15,2.051c0,1.134,0.283,3,0.851,5.601c0.601,2.699,1.117,4.299,1.551,4.799
					c0,0.102-0.135,0.15-0.4,0.15c-0.199,0-0.699-0.666-1.5-2c-0.8-1.4-1.3-2.482-1.5-3.25c-0.333-1.5-0.55-2.467-0.648-2.9
					c-0.102-0.565-0.15-1.383-0.15-2.449c0-1.934,0.184-3.383,0.55-4.35c0.601-1.666,1.835-3.101,3.7-4.301
					C122.908,115.466,122.975,115.499,123.075,115.531z M131.575,120.832c0.065,0.066,0.1,0.167,0.1,0.301l-1.149,2
					c-0.834,1.434-1.383,2.717-1.649,3.85c-0.3,1.367-0.483,2.4-0.55,3.101c-0.033,0.301-0.051,1.167-0.051,2.601
					c0,1.533,0.268,3.399,0.801,5.601c0.267,1.101,0.533,2.101,0.8,3v0.2c-0.065-0.033-0.116-0.051-0.149-0.051
					c-1.301-1.566-2.149-3.05-2.551-4.449c-0.3-1-0.449-2.45-0.449-4.351c0-2.268,0.283-4.334,0.851-6.2
					c0.8-2.634,2.065-4.533,3.8-5.699C131.441,120.766,131.508,120.799,131.575,120.832z"/>
			</g>
		</g>
		<g>
			<path fill="#D7A354" d="M41.375,27.732c0-6.133,3.434-7.767,10.3-4.9c5.233,2.167,11.05,6.1,17.45,11.8
				c5.366,4.067,15.65,10.95,30.85,20.65c10.466,6.7,18.767,13.75,24.9,21.15c6.4,7.733,9.6,14.849,9.6,21.349
				c0,2.9-0.832,5.484-2.5,7.75c-2.898,3.968-7.883,5.951-14.949,5.951c-9.101,0-18.783-4.75-29.05-14.25
				c-2.067-1.938-4.517-4.521-7.35-7.75c-4.328-0.783-11.012-5.433-20.05-13.95c-4.033-3.8-7.533-7.466-10.5-11
				c-0.642-0.771-1.217-1.479-1.726-2.125c-1.124-1.682-1.749-2.607-1.875-2.775c-0.308-0.472-0.69-1.097-1.149-1.875
				c-0.473-7.985-0.855-12.743-1.15-14.275C42.308,34.849,41.375,29.599,41.375,27.732z"/>
			<g>
				<path fill="#C99444" d="M93.099,99.883c0.613,0.528-0.845-1.082-4.375-4.824c-3.531-3.742-7.539-8.85-12.024-15.326
					c-4.483-6.477-8.233-9.427-11.25-8.85H65.4c0.336,1.062,0.762,2.412,1.274,4.05c-3.45-2.254-6.433-6.679-8.95-13.275
					c-2.869-7.508-5.476-13.699-7.824-18.575c-2.347-4.874-3.922-6.315-4.725-4.325c0.401,3.463,0.601,8.205,0.601,14.225
					c0,0.102-0.13,1.733-0.389,4.878c0.43,0.728,0.793,1.321,1.087,1.771c0.126,0.168,0.751,1.093,1.875,2.775
					c0.509,0.646,1.084,1.354,1.726,2.125c2.967,3.534,6.467,7.2,10.5,11c9.038,8.517,15.722,13.167,20.05,13.95
					c2.833,3.229,5.283,5.812,7.35,7.75c1.412,1.307,2.813,2.515,4.203,3.642C92.198,99.703,92.504,99.368,93.099,99.883z"/>
				<path fill="#B6853C" d="M117.025,111.482c3.891,0,7.127-0.624,9.755-1.826c-0.565,0.049-1.086,0.076-1.556,0.076
					c-6.832,0-14.082-1.815-21.75-5.449c-2.938-1.391-5.454-2.782-7.55-4.176c-4.771-3.145-9.979-8.061-15.625-14.75
					c-5.652-6.691-9.71-10.149-12.175-10.375v0.125c1.842,2.494,4.1,5.552,6.775,9.175c-0.885-0.701-1.861-1.467-2.926-2.3
					c-7.2-5.6-12.567-10.183-16.1-13.75c-3.824-3.718-7.237-7.047-10.282-10.027c0.341,0.571,0.636,1.05,0.882,1.426
					c0.126,0.168,0.751,1.093,1.875,2.775c0.509,0.646,1.084,1.354,1.726,2.125c2.967,3.534,6.467,7.2,10.5,11
					c9.038,8.517,15.722,13.167,20.05,13.95c2.833,3.229,5.283,5.812,7.35,7.75C98.242,106.732,107.925,111.482,117.025,111.482z"/>
			</g>
		</g>
		<g>
			<g>
				<path fill="#C99444" d="M122.674,80.782c3.4,5,5.102,10,5.102,15c0,0.603-0.067,1.261-0.2,1.977c2.317,0.006,4.435-0.326,6.35-1
					c-0.429,0.766-1.587,2.006-3.475,3.725c-1.884,1.713-4.451,2.598-7.7,2.65c-3.255,0.059-5.921-2.018-8-6.227
					c-2.081-4.213-4.773-7.838-8.075-10.875c-2.434-2.267-6.065-5.4-10.899-9.4c-4.967-4.133-8.634-7.267-11-9.4
					c-4.233-3.9-9.817-10.217-16.75-18.95c-4.048-5.119-8.514-10.386-13.4-15.8c7.372,5.54,16.039,11.423,26,17.65
					c2.467,1.567,6.934,4.2,13.4,7.9c5.767,3.333,9.8,5.767,12.1,7.3C113.458,70.266,118.975,75.416,122.674,80.782z"/>
			</g>
			<path fill="#B6853C" d="M64.974,43.132c2.736,2.918,6.986,6.176,12.75,9.775c5.76,3.599,11.594,7.174,17.5,10.725
				c5.901,3.561,11.076,6.603,15.525,9.125c4.448,2.516,7.933,5.799,10.45,9.85c2.517,4.051,3.775,8.609,3.773,13.674
				c0,0.068-0.166,1.135-0.5,3.201c-0.418,1.276-1.052,2.151-1.898,2.625c1.35,0.094,2.783,0.17,4.3,0.225
				c-1.134,0.967-2,1.634-2.601,2c-1,0.602-3.051,0.9-6.149,0.9c-5.364,0.002-9.797-1.356-13.3-4.076
				c-3.51-2.721-6.358-5.18-8.55-7.375c-2.192-2.193-4.676-5.152-7.45-8.875c-2.77-3.718-6.387-8.943-10.851-15.675
				c-0.399-0.6-4.267-6.783-11.6-18.55c-4.7-7.534-9-13.733-12.9-18.6l0.15-0.05C57.709,35.205,61.493,38.905,64.974,43.132z"/>
		</g>
		<g>
			<g>
				<path fill="#F3C93C" d="M105.775,159.832v-0.699c1.466,0.467,3.1,0.434,4.898-0.102c3.367-1.032,7.467-1.266,12.301-0.699
					c4.899,0.602,9,1.834,12.301,3.699c3.466,1.968,5.898,3.334,7.3,4.102l-0.05,0.25c-0.435,1.033-0.817,2.916-1.15,5.648
					c-0.467,0.734-1.167,1.451-2.1,2.15c-2.367,1.668-6.367,2.6-12,2.801c-5.602,0.166-10.7-1.117-15.301-3.851
					c-4.334-2.565-6.666-5.366-7-8.399C105.341,163.966,105.607,162.332,105.775,159.832z"/>
			</g>
			<g>
				<path fill="#FCD961" d="M127.924,172.457c-5.601,0.182-10.699-1.094-15.3-3.824c-4.599-2.732-6.897-5.566-6.899-8.5
					c0-2.602,1.866-4.467,5.601-5.602c3.366-1.032,7.467-1.266,12.3-0.699c4.866,0.602,8.95,1.834,12.25,3.699
					c3.727,2.137,5.91,4.271,6.55,6.4c0.644,2.139-0.215,4.047-2.575,5.725C137.493,171.336,133.518,172.27,127.924,172.457z"/>
			</g>
			<path fill="#FFE9A1" d="M135.875,157.531c-0.496-0.28-1.016-0.542-1.548-0.794c-0.991,0.292-1.991,0.446-3.002,0.446
				c-1,0-2.351-0.201-4.05-0.602c-1.7-0.4-2.885-0.6-3.551-0.6c-1.699,0-3.199,0.465-4.5,1.399c-0.334,0.3-0.633,0.683-0.899,1.149
				c-0.233,0.434-0.55,0.967-0.95,1.601c-0.9,1.366-1.982,2.05-3.25,2.05c-0.866,0-2.1-0.232-3.7-0.699
				c-1.633-0.5-2.633-0.75-3-0.75c-0.551,0.061-1.085,0.172-1.61,0.309c0.418,2.55,2.597,5.023,6.538,7.419
				c1.484,0.054,2.863,0.225,4.122,0.526c0.801,0.166,1.65,0.382,2.551,0.65h2.648c0.967-0.035,1.817-0.486,2.551-1.352
				c0.666-0.768,1-1.467,1-2.1l-0.199-1.852c0-0.934,0.232-1.699,0.699-2.3c0.732-1,1.967-1.367,3.699-1.101h3.551
				c2.298-0.214,3.931-0.929,4.923-2.128C137.278,158.381,136.616,157.956,135.875,157.531z"/>
			<g opacity="0.5">
				<path fill="#E9AB35" d="M125.225,155.633c-1.736-0.297-3.912-0.289-6.524,0.023c-2.614,0.31-4.813,0.852-6.601,1.625
					c-1.791,0.775-2.6,1.717-2.426,2.826c0.161,1.023,0.578,2.158,1.25,3.399c-0.842-0.269-1.542-0.81-2.1-1.625
					c-0.623-0.92-0.748-1.92-0.375-3c0.416-1.233,2.357-2.301,5.824-3.2c3.367-0.934,7.066-1,11.101-0.199l0.101,0.049
					C125.542,155.6,125.458,155.633,125.225,155.633z"/>
			</g>
			<g>
				<path fill="#FFFFFF" fill-opacity="0.502" d="M139.575,161.982c0.333,0,0.5,0.166,0.5,0.5s-0.185,0.5-0.55,0.5
					c-0.233,0-0.4-0.084-0.5-0.25l-0.051-0.25C138.975,162.148,139.174,161.982,139.575,161.982z M140.725,163.482
					c0,0.232-0.134,0.35-0.399,0.35c-0.2,0-0.316-0.051-0.351-0.148v-0.15c0-0.233,0.133-0.35,0.399-0.35
					C140.607,163.184,140.725,163.281,140.725,163.482z M138.625,163.184c0.134-0.067,0.3,0.017,0.5,0.25
					c-0.167,0.166-0.268,0.25-0.3,0.25l-0.25-0.051l-0.05-0.199C138.525,163.332,138.559,163.249,138.625,163.184z M122.025,155.582
					c0,0.268-0.117,0.4-0.352,0.4c-0.166,0-0.283-0.084-0.35-0.25l-0.051-0.25c0-0.233,0.134-0.351,0.399-0.351
					C121.908,155.133,122.025,155.281,122.025,155.582z M123.225,155.684c-0.301,0-0.533-0.117-0.699-0.352
					c-0.135-0.166-0.2-0.301-0.2-0.398c0-0.334,0.2-0.5,0.6-0.5c0.4,0,0.65,0.232,0.75,0.699
					C123.674,155.499,123.525,155.684,123.225,155.684z M107.775,158.934c-0.301,0.232-0.7,0.35-1.2,0.35
					c-1.134,0-1.7-0.316-1.7-0.95c0-0.767,0.55-1.133,1.65-1.101c1.1,0.033,1.648,0.367,1.648,1
					C108.174,158.499,108.042,158.732,107.775,158.934z M107.924,159.531c0.4,0,0.617,0.234,0.65,0.701
					c0,0.166-0.102,0.35-0.301,0.549c-0.199,0.168-0.416,0.25-0.649,0.25c-0.435,0-0.649-0.199-0.649-0.6
					C106.975,159.832,107.292,159.531,107.924,159.531z M118.674,168.531c0-0.332,0.15-0.5,0.45-0.5c0.3,0.035,0.45,0.168,0.45,0.4
					c0,0.033-0.051,0.116-0.15,0.25c-0.133,0.135-0.267,0.2-0.398,0.2C118.792,168.883,118.674,168.766,118.674,168.531z"/>
			</g>
			<g opacity="0.5">
				<path fill="#E9AB35" d="M129.325,170.383c-2.334,0.066-4.15-0.117-5.45-0.551c7.033,0.066,11.783-0.732,14.25-2.398
					c0.634-0.435,1.116-0.935,1.45-1.5c0.032,0.865-0.3,1.582-1,2.148c-0.733,0.566-1.884,1.084-3.45,1.551
					C133.559,170.066,131.625,170.316,129.325,170.383z"/>
			</g>
		</g>
		<g>
			<g>
				<defs>
					<path id="SVGID_1_" d="M64.974,43.132c2.736,2.918,6.986,6.176,12.75,9.775c5.76,3.599,11.594,7.174,17.5,10.725
						c5.901,3.561,11.076,6.603,15.525,9.125c4.448,2.516,7.933,5.799,10.45,9.85c2.517,4.051,3.775,8.609,3.773,13.674
						c0,0.068-0.166,1.135-0.5,3.201c-0.418,1.276-1.052,2.151-1.898,2.625c1.35,0.094,2.783,0.17,4.3,0.225
						c-1.134,0.967-2,1.634-2.601,2c-1,0.602-3.051,0.9-6.149,0.9c-5.364,0.002-9.797-1.356-13.3-4.076
						c-3.51-2.721-6.358-5.18-8.55-7.375c-2.192-2.193-4.676-5.152-7.45-8.875c-2.77-3.718-6.387-8.943-10.851-15.675
						c-0.399-0.6-4.267-6.783-11.6-18.55c-4.7-7.534-9-13.733-12.9-18.6l0.15-0.05C57.709,35.205,61.493,38.905,64.974,43.132z"/>
				</defs>
				<clipPath id="SVGID_2_">
					<use xlink:href="#SVGID_1_"  overflow="visible"/>
				</clipPath>
				<g clip-path="url(#SVGID_2_)">
					<g>
						<path fill="#F3C93C" d="M115.275,91.382c-1.5,1.935-3.75,3.033-6.75,3.3c-2.967,0.268-5.168-0.617-6.602-2.649
							c-1.5-2-2.25-4-2.25-6c-0.033-2,0.816-3.733,2.551-5.2c1.699-1.533,3.717-2.383,6.051-2.55c2.3-0.133,4.267,0.45,5.898,1.75
							c1.667,1.333,2.65,3.067,2.95,5.2C117.391,87.366,116.775,89.416,115.275,91.382z"/>
						<g opacity="0.5">
							<path fill="#E9AB35" d="M114.475,89.933c0.366-0.8,0.551-1.55,0.551-2.25c0-3.267-1.584-5.534-4.75-6.8
								c-0.256-0.106-0.506-0.198-0.75-0.275c1.67-0.37,3.137,0.255,4.398,1.875c1.2,1.533,1.801,3,1.801,4.4
								c0,0.5-0.184,1.167-0.551,2c-0.252,0.542-0.502,0.926-0.75,1.15C114.445,89.995,114.461,89.962,114.475,89.933z"/>
						</g>
					</g>
					<g>
						<path fill="#F3C93C" d="M96.275,80.333c-1.608,2.083-3.992,3.25-7.15,3.5c-3.166,0.254-5.524-0.679-7.075-2.8
							c-1.543-2.121-2.326-4.238-2.35-6.35c-0.029-2.119,0.871-3.985,2.7-5.6c1.827-1.61,3.961-2.493,6.399-2.65
							c2.445-0.162,4.554,0.455,6.325,1.85s2.805,3.229,3.1,5.5C98.528,76.059,97.877,78.242,96.275,80.333z"/>
						<g>
							<g>
								<defs>
									<path id="SVGID_3_" d="M96.275,80.333c-1.608,2.083-3.992,3.25-7.15,3.5c-3.166,0.254-5.524-0.679-7.075-2.8
										c-1.543-2.121-2.326-4.238-2.35-6.35c-0.029-2.119,0.871-3.985,2.7-5.6c1.827-1.61,3.961-2.493,6.399-2.65
										c2.445-0.162,4.554,0.455,6.325,1.85s2.805,3.229,3.1,5.5C98.528,76.059,97.877,78.242,96.275,80.333z"/>
								</defs>
								<clipPath id="SVGID_4_">
									<use xlink:href="#SVGID_3_"  overflow="visible"/>
								</clipPath>
								<g opacity="0.5" clip-path="url(#SVGID_4_)">
									<path fill="#FFE9A1" d="M93.424,68.632c2.934,0,5.267,0.95,7,2.85c0.145,0.159,0.276,0.317,0.4,0.475
										c-0.205,1.2-0.338,2.142-0.4,2.825c-0.043,0.371-0.118,0.813-0.225,1.325c-0.169-0.209-0.344-0.417-0.525-0.625
										c-1.467-1.567-3.083-2.35-4.85-2.35c-1.566,0-3.101,0.417-4.601,1.25c-1.533,0.8-2.983,1.2-4.35,1.2
										c-1.967,0-3.55-0.733-4.75-2.2c-1.167-1.467-2-2.2-2.5-2.2c-0.105,0-0.214,0.008-0.325,0.025
										c0.51-0.669,1.034-1.361,1.575-2.075c2.3-2.767,4.1-4.667,5.4-5.7c0.023-0.019,0.048-0.036,0.074-0.05
										c-0.007,0.077-0.016,0.161-0.024,0.25c-0.033,0.333-0.084,0.8-0.15,1.4c0,0.7,0.267,1.45,0.8,2.25
										c0.867,1.3,2.15,1.95,3.851,1.95c0.467,0,1.017-0.1,1.649-0.3C92.075,68.732,92.724,68.632,93.424,68.632z"/>
								</g>
							</g>
							<g opacity="0.5">
								<path fill="#E9AB35" d="M93.375,69.933c-0.028-0.386-0.053-0.761-0.075-1.125c0.396,0.19,0.771,0.415,1.125,0.675
									c1.032,0.78,1.707,1.771,2.025,2.975c0.147,0.558,0.223,1.133,0.225,1.725v0.125c-0.032,0.098-0.099,0.273-0.2,0.525
									c-0.1,0.333-0.183,0.517-0.25,0.55c0-0.434-0.066-0.892-0.199-1.375c-0.137-0.49-0.345-1.007-0.625-1.55
									c-0.07-0.143-0.146-0.284-0.226-0.425c-0.463-0.821-1.021-1.479-1.675-1.975C93.456,70.017,93.414,69.976,93.375,69.933z
									 M92.375,69.208c-0.057-0.279-0.115-0.554-0.175-0.825c0.285,0.085,0.56,0.185,0.825,0.3c0.031,0.342,0.064,0.692,0.1,1.05
									C92.877,69.537,92.627,69.362,92.375,69.208z M89.299,68.083c0.132,0.132,0.266,0.266,0.4,0.4
									c-3.063,0.035-5.056,1.235-5.976,3.6c-0.311,0.809-0.478,2.051-0.5,3.725c-0.024,0.509-0.033,1.059-0.024,1.65
									c-0.283,0.043-0.55,0.085-0.8,0.125c-0.048-0.206-0.089-0.439-0.125-0.7c-0.101-1.233-0.15-1.867-0.15-1.9
									c0-2.1,0.75-3.783,2.25-5.05C85.712,68.791,87.354,68.174,89.299,68.083z M90.799,68.583c-0.153-0.17-0.304-0.337-0.45-0.5
									c0.314,0.021,0.623,0.054,0.926,0.1c0.045,0.188,0.086,0.379,0.125,0.575C91.2,68.686,91,68.627,90.799,68.583z"/>
							</g>
						</g>
						<g>
							<path fill="#FCD961" d="M105.424,87.933c0.334,2.466-0.383,4.85-2.148,7.15c-1.733,2.267-4.352,3.55-7.852,3.851
								c-3.467,0.299-6.033-0.718-7.7-3.051c-1.733-2.333-2.6-4.667-2.6-7c-0.033-2.333,0.95-4.367,2.95-6.1
								c2-1.767,4.35-2.75,7.05-2.95c2.667-0.167,4.967,0.517,6.899,2.05C103.958,83.416,105.091,85.433,105.424,87.933z"/>
							<g>
								<g>
									<defs>
										<path id="SVGID_5_" d="M105.424,87.933c0.334,2.466-0.383,4.85-2.148,7.15c-1.733,2.267-4.352,3.55-7.852,3.851
											c-3.467,0.299-6.033-0.718-7.7-3.051c-1.733-2.333-2.6-4.667-2.6-7c-0.033-2.333,0.95-4.367,2.95-6.1
											c2-1.767,4.35-2.75,7.05-2.95c2.667-0.167,4.967,0.517,6.899,2.05C103.958,83.416,105.091,85.433,105.424,87.933z"/>
									</defs>
									<clipPath id="SVGID_6_">
										<use xlink:href="#SVGID_5_"  overflow="visible"/>
									</clipPath>
									<g clip-path="url(#SVGID_6_)">
										<path fill="#FFE9A1" d="M107.075,84.657c0.129,1.002,0.229,1.836,0.3,2.5c-0.709-0.25-1.477-0.375-2.3-0.375
											c-0.9,0-2.185,0.4-3.851,1.2c-1.667,0.8-3.268,1.2-4.801,1.2c-1,0-3.533-1.017-7.6-3.05
											c-2.063-1.042-3.897-1.417-5.5-1.125c0.618-1.274,1.46-2.783,2.524-4.525c2.072,0.096,3.848,0.946,5.325,2.55
											c1.566,1.7,3.283,2.55,5.15,2.55c1.033,0,2.1-0.267,3.2-0.8c1.1-0.533,3.049-0.8,5.85-0.8
											C105.713,83.982,106.281,84.208,107.075,84.657z"/>
									</g>
								</g>
								<g opacity="0.5">
									<path fill="#E9AB35" d="M103.95,87.958c0.235,1.266,0.128,2.158-0.325,2.675c-0.07-0.52-0.203-1.304-0.4-2.35
										c-0.277-1.521-0.586-2.538-0.925-3.05C103.158,85.74,103.708,86.648,103.95,87.958z M95.599,81.907
										c-0.36,0.089-0.752,0.214-1.175,0.375c-2.467,0.9-4.2,2.1-5.2,3.6c-0.633,0.967-1.033,2.167-1.199,3.6
										c-0.027,0.17-0.053,0.354-0.075,0.55c-0.05-0.381-0.075-0.748-0.075-1.1c0-1.7,0.55-3.3,1.65-4.8
										C90.955,82.162,92.98,81.42,95.599,81.907z"/>
								</g>
							</g>
							<g>
								<path fill="#FCD961" d="M119.674,91.934c1.768,2.399,2.483,5.282,2.15,8.648c-0.334,3.334-2.117,6.134-5.352,8.4
									c-3.199,2.3-6.315,2.699-9.35,1.199c-3.1-1.467-5.35-3.4-6.75-5.8c-1.434-2.399-1.684-5.065-0.75-8
									c0.866-2.967,2.583-5.3,5.15-7c2.5-1.7,5.133-2.283,7.898-1.75C115.508,88.099,117.841,89.532,119.674,91.934z"/>
								<g>
									<g>
										<defs>
											<path id="SVGID_7_" d="M119.674,91.934c1.768,2.399,2.483,5.282,2.15,8.648c-0.334,3.334-2.117,6.134-5.352,8.4
												c-3.199,2.3-6.315,2.699-9.35,1.199c-3.1-1.467-5.35-3.4-6.75-5.8c-1.434-2.399-1.684-5.065-0.75-8
												c0.866-2.967,2.583-5.3,5.15-7c2.5-1.7,5.133-2.283,7.898-1.75C115.508,88.099,117.841,89.532,119.674,91.934z"/>
										</defs>
										<clipPath id="SVGID_8_">
											<use xlink:href="#SVGID_7_"  overflow="visible"/>
										</clipPath>
										<g clip-path="url(#SVGID_8_)">
											<path fill="#FFE9A1" d="M107.775,91.333c2-1.033,3.5-1.55,4.5-1.55c2.865,0,4.582,1.767,5.148,5.3
												c0.301,1.933,0.551,3.133,0.75,3.601c0.5,1.1,1.352,1.648,2.551,1.648s2.399-0.583,3.601-1.75v3.051
												c-0.081,0.094-0.164,0.194-0.25,0.301c-0.563,0.68-1.138,1.237-1.726,1.674c-1.021,0.685-1.961,1.025-2.824,1.025
												c-1.733,0-2.9-0.533-3.5-1.601c-0.367-0.634-0.617-1.816-0.75-3.55c-0.168-1.733-0.467-2.935-0.9-3.601
												c-0.7-1.067-1.982-1.601-3.85-1.601c-1.801,0-3.317,0.449-4.551,1.351c-0.566,0.399-1.518,1.384-2.851,2.949
												c-1.976,2.3-4.475,3.666-7.5,4.101c0.198-0.916,0.348-1.666,0.45-2.25c0.479-2.99,1.47-5.873,2.975-8.649
												c0.167,0.006,0.358,0.03,0.575,0.075c1.079,0.649,2.329,0.975,3.75,0.975C104.309,92.833,105.775,92.333,107.775,91.333z
												 M99.625,99.184v0.1c-0.1,0.033-0.233,0.134-0.4,0.3C99.658,99.316,99.792,99.184,99.625,99.184z"/>
										</g>
									</g>
									<g opacity="0.5">
										<path fill="#E9AB35" d="M114.825,92.031c3.133,0.968,4.7,3.185,4.7,6.65c0,1.467-0.217,2.616-0.65,3.45
											c-0.066-0.09-0.107-0.28-0.125-0.575c0.217-0.798,0.325-1.623,0.325-2.476c0-2.208-0.959-4.149-2.875-5.825
											C115.789,92.84,115.331,92.432,114.825,92.031z M101.575,102.434c-0.5-0.968-0.75-2.102-0.75-3.4
											c0-1.333,0.315-2.566,0.95-3.7c0.633-1.133,1.898-2.183,3.8-3.149c-1.233,0.967-2.167,1.983-2.8,3.051
											c-0.301,0.434-0.551,1.017-0.75,1.75c-0.2,0.8-0.301,1.8-0.301,3c0,0.834,0.066,1.517,0.199,2.05
											c0.102,0.467,0.334,1.083,0.7,1.851c0.065,0.166,0.134,0.35,0.2,0.551C102.458,104.066,102.042,103.398,101.575,102.434z"
											/>
									</g>
								</g>
								<g>
									<path fill="#F3C93C" d="M67.325,68.683c-1.2-1.6-1.8-3.2-1.8-4.8c-0.034-1.6,0.633-2.983,2-4.15
										c1.366-1.2,2.983-1.867,4.85-2c1.833-0.1,3.4,0.367,4.7,1.4c1.3,1.033,2.066,2.4,2.3,4.1c0.234,1.7-0.25,3.333-1.45,4.9
										c-1.2,1.533-2.983,2.417-5.35,2.65C70.208,70.982,68.458,70.282,67.325,68.683z"/>
									<g>
										<g>
											<defs>
												<path id="SVGID_9_" d="M67.325,68.683c-1.2-1.6-1.8-3.2-1.8-4.8c-0.034-1.6,0.633-2.983,2-4.15
													c1.366-1.2,2.983-1.867,4.85-2c1.833-0.1,3.4,0.367,4.7,1.4c1.3,1.033,2.066,2.4,2.3,4.1c0.234,1.7-0.25,3.333-1.45,4.9
													c-1.2,1.533-2.983,2.417-5.35,2.65C70.208,70.982,68.458,70.282,67.325,68.683z"/>
											</defs>
											<clipPath id="SVGID_10_">
												<use xlink:href="#SVGID_9_"  overflow="visible"/>
											</clipPath>
											<g opacity="0.5" clip-path="url(#SVGID_10_)">
												<path fill="#FFE9A1" d="M66.525,56.382c0.966-0.171,1.841-0.188,2.625-0.05c0.71,0.286,1.734,0.952,3.074,2
													c1.834,1.4,4.101,2.1,6.801,2.1c0.833,0,1.917-0.275,3.25-0.825c0.067,0.249,0.134,0.507,0.199,0.775
													c-2.098,1.762-4.281,2.795-6.55,3.1c-0.352,0.033-0.702,0.05-1.05,0.05c-0.417,0-0.817-0.025-1.2-0.075
													c-0.729-0.182-1.645-0.59-2.75-1.225c-1.6-0.933-3.1-1.4-4.5-1.4c-0.513,0-1.004,0.042-1.475,0.125
													c-0.12,0.012-0.229,0.028-0.325,0.05c0.298-1.558,0.522-2.867,0.675-3.925l0.025-0.025c0.3-0.271,0.6-0.463,0.899-0.575
													C66.321,56.437,66.42,56.403,66.525,56.382z"/>
											</g>
										</g>
										<g opacity="0.5">
											<path fill="#E9AB35" d="M68.474,61.433c1-1.367,2.534-2.05,4.601-2.05c0.823,0,1.431,0.133,1.825,0.4
												c-0.825-0.208-1.733-0.141-2.726,0.2c-2.523,0.851-3.94,2.751-4.25,5.7c-0.045-0.12-0.095-0.253-0.149-0.4
												c-0.2-0.466-0.301-0.75-0.301-0.85C67.474,63.366,67.808,62.366,68.474,61.433z"/>
										</g>
									</g>
									<g>
										<path fill="#FFFFFF" fill-opacity="0.502" d="M109.725,80.282c-0.166,0.233-0.351,0.35-0.551,0.35
											c-0.365,0-0.6-0.167-0.699-0.5l-0.051-0.5c0-0.667,0.25-1,0.75-1s0.75,0.333,0.75,1
											C109.924,79.866,109.857,80.083,109.725,80.282z M110.975,80.583c0-0.5,0.217-0.817,0.649-0.95
											c0.399-0.1,0.601,0.133,0.601,0.7c0,0.333-0.25,0.583-0.75,0.75c-0.166-0.033-0.283-0.067-0.351-0.1
											C111.025,80.916,110.975,80.782,110.975,80.583z M109.674,90.132c-0.267,0.333-0.615,0.5-1.05,0.5
											c-0.5,0-0.866-0.217-1.101-0.65l-0.199-0.65c0-0.9,0.449-1.35,1.35-1.35c0.867,0,1.301,0.45,1.301,1.35
											C109.975,89.599,109.875,89.866,109.674,90.132z M106.325,91.781c0-0.565,0.333-0.832,1-0.799c0.666,0.033,1,0.399,1,1.1
											c0,0.633-0.3,0.949-0.9,0.949c-0.399,0-0.7-0.199-0.899-0.6C106.391,92.199,106.325,91.982,106.325,91.781z
											 M117.025,97.982c-0.034-0.233-0.051-0.367-0.051-0.4c0-0.6,0.366-0.934,1.101-1c0.7-0.066,1.05,0.184,1.05,0.75
											c0,0.268-0.134,0.518-0.4,0.75c-0.267,0.199-0.565,0.301-0.898,0.301C117.391,98.383,117.125,98.249,117.025,97.982z
											 M114.424,98.982c-0.033-0.033-0.1-0.084-0.199-0.15c-0.033,0.033-0.051-0.116-0.051-0.449c0-0.533,0.25-0.783,0.75-0.75
											s0.75,0.232,0.75,0.6c0,0.201-0.115,0.384-0.35,0.551s-0.417,0.25-0.551,0.25
											C114.575,99.031,114.458,99.016,114.424,98.982z M86.174,68.632v-0.65c0-0.833,0.25-1.217,0.75-1.15
											c0.5,0.1,0.75,0.566,0.75,1.4c0,0.7-0.25,1.05-0.75,1.05C86.525,69.282,86.275,69.066,86.174,68.632z M95.674,68.183
											c0.5,0,0.75,0.3,0.75,0.9c0,0.633-0.217,0.95-0.649,0.95c-0.434,0-0.7-0.15-0.801-0.45c-0.033-0.3-0.05-0.467-0.05-0.5
											C94.924,68.449,95.174,68.149,95.674,68.183z M74.924,59.183c0.134-0.167,0.417-0.184,0.851-0.05l0.05,0.25v0.9
											c0.033,0.167-0.117,0.25-0.45,0.25s-0.5-0.283-0.5-0.85C74.875,59.416,74.891,59.249,74.924,59.183z M78.375,61.232
											c0,0.5-0.283,0.75-0.85,0.75c-0.334,0-0.567-0.117-0.7-0.35c-0.066-0.133-0.101-0.267-0.101-0.4
											c0-0.5,0.284-0.817,0.851-0.95C78.108,60.183,78.375,60.499,78.375,61.232z M96.575,71.833
											c-0.2-0.033-0.334-0.067-0.4-0.1c-0.1-0.067-0.149-0.2-0.149-0.4s0.05-0.367,0.149-0.5c0.2-0.267,0.517-0.317,0.95-0.15
											l0.1,0.1c0.034,0.034,0.051,0.15,0.051,0.35C97.275,71.333,97.042,71.566,96.575,71.833z M100.125,82.032l-0.6,0.1
											l-0.4-0.1c-0.066-0.033-0.1-0.167-0.1-0.4s0.083-0.4,0.25-0.5c0.199-0.1,0.483-0.033,0.85,0.2l0.05,0.25L100.125,82.032z
											 M102.825,82.132c0,0.267-0.134,0.533-0.4,0.8c-0.3,0.3-0.684,0.45-1.149,0.45c-0.366,0-0.616-0.167-0.75-0.5
											c-0.066-0.333-0.101-0.517-0.101-0.55c0-0.667,0.4-1.083,1.2-1.25C102.424,80.882,102.825,81.232,102.825,82.132z
											 M90.775,83.732c-0.067-0.433-0.101-0.667-0.101-0.7c0-1,0.384-1.5,1.15-1.5c0.766,0,1.149,0.483,1.149,1.45
											c0,0.3-0.066,0.583-0.199,0.85c-0.2,0.4-0.517,0.6-0.95,0.6C91.292,84.433,90.941,84.199,90.775,83.732z M98.825,86.382
											l-0.601-0.1c-0.066,0.034-0.1-0.117-0.1-0.45c0-0.2,0.116-0.35,0.35-0.45c0.233-0.133,0.5-0.15,0.801-0.05l0.149,0.45
											l-0.1,0.5L98.825,86.382z M102.325,93.281c-0.468,0-0.783-0.315-0.95-0.949c-0.1-0.633-0.15-0.967-0.15-1
											c0-1.067,0.467-1.6,1.4-1.6s1.4,0.45,1.4,1.35c0,0.3-0.135,0.699-0.4,1.199C103.258,92.949,102.825,93.281,102.325,93.281
											z"/>
									</g>
								</g>
							</g>
						</g>
					</g>
				</g>
			</g>
		</g>
		<g>
			<path fill="#DBC066" d="M127.225,118.633c0,0.266-0.233,0.5-0.699,0.699c-0.067,0-0.117,0-0.15,0
				c-0.033-0.033-0.05-0.1-0.05-0.199c0-0.234,0.217-0.467,0.649-0.699c0.066,0.032,0.133,0.049,0.199,0.049
				C127.208,118.482,127.225,118.531,127.225,118.633z M128.424,119.434c0,0.199-0.383,0.517-1.148,0.949
				c-0.168-0.066-0.25-0.184-0.25-0.352c0-0.133,0.183-0.299,0.55-0.5c0.267-0.199,0.483-0.315,0.649-0.35
				C128.357,119.249,128.424,119.332,128.424,119.434z M126.125,117.684l-0.5,0.449c-0.066,0.066-0.1,0.016-0.1-0.15l0.449-0.399
				L126.125,117.684z M117.174,124.232c0,0.166-0.3,0.55-0.898,1.149l-0.051-0.301c0-0.065,0.101-0.231,0.301-0.5
				c0.199-0.333,0.35-0.517,0.449-0.55c0.033,0.033,0.084,0.05,0.149,0.05C117.158,124.082,117.174,124.133,117.174,124.232z
				 M116.725,123.582c-0.434,0.566-0.717,0.852-0.851,0.852c-0.065,0-0.134-0.018-0.2-0.051c-0.033,0.066-0.05,0.016-0.05-0.15
				c0-0.065,0.116-0.217,0.351-0.449c0.232-0.268,0.383-0.417,0.449-0.45L116.725,123.582z M137.174,129.434l-0.5-0.15v-0.149
				c0.233-0.032,0.834-0.065,1.801-0.101l0.101,0.15l-0.3,0.25H137.174z M131.775,133.934c0.199-0.102,0.433,0.032,0.699,0.398
				l0.449,0.801l-0.05,0.1c-0.233-0.1-0.483-0.282-0.75-0.549C131.792,134.35,131.674,134.1,131.775,133.934z M131.075,137.482
				c-0.367-0.133-0.601-0.301-0.7-0.5c-0.1-0.201-0.2-0.383-0.3-0.551l0.05-0.15c0.3,0.068,0.667,0.418,1.1,1.051L131.075,137.482z
				 M129.625,136.732l0.85,1.399v0.05c-0.633-0.332-0.982-0.816-1.05-1.449H129.625z M37.125,54.683c0.066,0.1,0.217,0.267,0.45,0.5
				c0.233,0.267,0.35,0.5,0.35,0.7l-0.1,0.1c-0.533-0.533-0.8-0.967-0.8-1.3H37.125z M37.075,55.683
				c0.267,0.267,0.45,0.483,0.55,0.65l-0.05,0.15c-0.533-0.533-0.884-0.933-1.05-1.2C36.591,55.282,36.775,55.416,37.075,55.683z
				 M36.375,56.833l-0.05,0.05l-0.351-0.35h0.051L36.375,56.833z M38.724,67.833c0,0.133-0.116,0.25-0.35,0.35
				c-0.134,0-0.233-0.034-0.3-0.1c0.233-0.233,0.434-0.35,0.6-0.35l0.05-0.05V67.833z M38.575,68.782c0.2-0.2,0.383-0.3,0.55-0.3
				l0.2,0.2c-0.066,0.1-0.134,0.183-0.2,0.25c-0.134,0.066-0.3,0.083-0.5,0.05L38.575,68.782z M39.575,70.333
				c0-0.233,0.1-0.417,0.3-0.55c0.134,0.067,0.2,0.184,0.2,0.35c0,0.167-0.101,0.3-0.3,0.4c-0.067,0-0.117,0-0.15,0
				C39.591,70.499,39.575,70.433,39.575,70.333z M50.525,73.482l-0.051,0.15l-0.3,0.05c-0.066-0.067-0.1-0.167-0.1-0.3
				c0.033-0.033,0.166-0.05,0.399-0.05L50.525,73.482z M49.375,72.732l-0.1-0.1c0.1-0.267,0.316-0.333,0.649-0.2l0.05,0.2
				c-0.1,0.1-0.199,0.15-0.3,0.15L49.375,72.732z M57.724,86.132c0-0.133,0.067-0.283,0.2-0.45c0.134-0.167,0.25-0.233,0.351-0.2
				h0.05c0.033,0,0.05,0.05,0.05,0.15l-0.55,0.65C57.758,86.349,57.724,86.299,57.724,86.132z M59.174,86.132
				c0.033,0.233-0.184,0.617-0.649,1.15h-0.101v-0.15c0-0.1,0.101-0.283,0.3-0.55C58.891,86.316,59.042,86.166,59.174,86.132z
				 M59.775,88.032l-0.051-0.4c0-0.4,0.134-0.566,0.4-0.5C60.125,87.532,60.008,87.833,59.775,88.032z M88.025,106.732l0.05,0.3
				l-0.101,0.149c-0.133,0-0.283-0.082-0.449-0.25v-0.199H88.025z M85.974,106.482c0.167,0,0.351,0.149,0.551,0.449
				c0.133,0.168,0.3,0.434,0.5,0.801c-0.067,0.065-0.134,0.1-0.2,0.1c-0.134,0-0.3-0.184-0.5-0.551
				c-0.233-0.398-0.367-0.615-0.4-0.648L85.974,106.482z M86.375,108.684c-0.2-0.135-0.483-0.435-0.85-0.9
				c-0.301-0.399-0.45-0.616-0.45-0.649c0.033-0.065,0.05-0.134,0.05-0.2h0.15c0.267,0.434,0.683,0.967,1.25,1.601L86.375,108.684z
				 M92.775,114.582l-0.601,0.4l-0.149-0.101c0.033-0.101,0.133-0.217,0.3-0.351c0.133-0.1,0.217-0.149,0.25-0.149L92.775,114.582z
				 M91.875,115.982c0-0.233,0.15-0.416,0.45-0.551c0.166-0.066,0.434-0.166,0.8-0.3l0.15,0.101c-0.301,0.6-0.667,0.899-1.101,0.899
				C92.141,116.133,92.042,116.082,91.875,115.982z M91.825,116.732c0.133-0.233,0.416-0.4,0.85-0.5c0.367-0.101,0.667-0.101,0.9,0
				l-1.55,0.55C91.958,116.781,91.891,116.766,91.825,116.732z M88.325,130.934v0.148c0,0.102-0.05,0.184-0.15,0.25
				c-0.133,0.066-0.283,0.134-0.45,0.199c-0.166-0.065-0.25-0.166-0.25-0.299c0-0.166,0.117-0.25,0.351-0.25h0.45L88.325,130.934z
				 M88.875,131.732c0,0.065,0.017,0.133,0.05,0.199c0,0.233-0.166,0.35-0.5,0.35l-0.35-0.049l-0.05-0.25
				c0-0.201,0.149-0.301,0.449-0.301L88.875,131.732z"/>
		</g>
		<g>
			<path fill="#B6853C" d="M48.724,20.282c0.467,0.3,0.7,0.75,0.7,1.35l-0.05,0.9l-0.2,0.1c-0.366-0.566-0.55-1.2-0.55-1.9l0.05-0.4
				L48.724,20.282z M50.674,22.032c0,0.5-0.033,0.85-0.1,1.05l-0.3,0.05c-0.101-0.2-0.15-0.583-0.15-1.15s0.116-0.95,0.35-1.15
				C50.608,21.032,50.674,21.433,50.674,22.032z M46.924,29.132c0.101-0.2,0.2-0.316,0.3-0.35c0.101-0.066,0.317-0.05,0.65,0.05
				l0.1,0.65c0.101,0.133-0.017,0.2-0.35,0.2C47.292,29.416,47.058,29.232,46.924,29.132z M49.174,32.083
				c0,0.167-0.166,0.25-0.5,0.25c-0.2-0.067-0.434-0.1-0.7-0.1c-0.1-0.067-0.149-0.267-0.149-0.6c0-0.167,0.116-0.316,0.35-0.45
				c0.234-0.134,0.533-0.1,0.9,0.1L49.174,32.083z M49.075,34.882c-0.134,0.033-0.2-0.117-0.2-0.45c0-0.5,0.217-0.7,0.65-0.6
				c0.3,0.1,0.449,0.3,0.449,0.6l-0.149,0.35L49.075,34.882z M23.174,78.433c0,0.033,0,0.066,0,0.1h0.15
				c0.066,0.233,0.25,0.567,0.55,1c-0.5-0.333-0.75-0.6-0.75-0.8C23.124,78.533,23.141,78.433,23.174,78.433z M21.375,81.833
				c0.566,0.8,0.866,1.4,0.9,1.8c-0.034,0.133-0.067,0.233-0.101,0.3c-0.066,0.1-0.2,0.15-0.399,0.15
				c-0.367,0-0.801-0.45-1.301-1.35c-0.399-0.733-0.633-1.317-0.699-1.75l0.1-0.5l0.05-0.05
				C20.292,80.599,20.775,81.066,21.375,81.833z M18.575,84.683c-0.5-1.133-0.75-1.867-0.75-2.2c0-1.067,0.333-1.067,1,0
				c0.533,0.867,1.1,2.117,1.7,3.75c-0.034,0.1-0.051,0.2-0.051,0.3c-0.033,0.067-0.149,0.1-0.35,0.1
				C19.658,86.632,19.141,85.982,18.575,84.683z M23.125,111.332c-0.066,0.102-0.2,0.167-0.4,0.199
				c-0.133-0.133-0.199-0.398-0.199-0.799l0.449-0.051l0.15,0.051c0.033,0,0.05,0.1,0.05,0.299
				C23.174,111.365,23.158,111.466,23.125,111.332z M19.424,108.281c0.267,0.367,0.4,0.584,0.4,0.65c0,0.334-0.017,0.5-0.05,0.5
				c-0.034,0.1-0.134,0.184-0.301,0.25c-0.133-0.033-0.333-0.232-0.6-0.601c-0.233-0.333-0.35-0.565-0.35-0.699
				c0-0.233,0.1-0.483,0.3-0.75C18.958,107.699,19.158,107.916,19.424,108.281z M17.775,109.684c-0.301,0-0.584-0.285-0.851-0.852
				c-0.2-0.434-0.3-0.732-0.3-0.898c0.4,0.032,0.75,0.25,1.05,0.648c0.134,0.199,0.316,0.467,0.55,0.801
				c0,0.1-0.017,0.166-0.05,0.199C18.108,109.648,17.974,109.684,17.775,109.684z M3.224,133.934c0.767-0.4,1.367-0.551,1.801-0.451
				v0.5c-0.267,0-0.684,0.185-1.25,0.551c-0.534,0.333-1.051,0.5-1.551,0.5c-0.066,0.167-0.1,0.083-0.1-0.25
				C2.125,134.549,2.491,134.266,3.224,133.934z M0.525,137.332c0-0.333,0.767-0.949,2.3-1.85c1.5-0.9,2.517-1.351,3.05-1.351
				l0.1,0.05c0.034,0.033,0.051,0.149,0.051,0.35c-2.334,1.935-4.084,2.984-5.25,3.15C0.608,137.781,0.525,137.666,0.525,137.332z
				 M19.224,156.482c-0.566,0.232-0.949,0.416-1.149,0.549c-0.2-0.065-0.316-0.115-0.351-0.148c-0.066-0.066-0.1-0.217-0.1-0.449
				c0-0.301,0.316-0.567,0.95-0.801c0.5-0.167,0.883-0.25,1.149-0.25l0.101-0.051c0.066,0.033,0.1,0.15,0.1,0.352
				C19.924,155.982,19.691,156.249,19.224,156.482z M20.924,156.582c0.033,0,0.05,0.102,0.05,0.301c0,0.333-0.5,0.732-1.5,1.199
				c-0.199,0-0.316-0.016-0.35-0.051v-0.049c-0.134,0.1-0.2-0.018-0.2-0.351c0-0.301,0.233-0.584,0.7-0.851
				c0.434-0.233,0.816-0.316,1.15-0.25L20.924,156.582z M122.575,72.333c-0.134,0.2-0.384,0.467-0.75,0.8
				c-0.4,0.367-0.685,0.567-0.851,0.6c-0.101,0.1-0.149-0.017-0.149-0.35c0-0.267,0.233-0.533,0.7-0.8
				C121.958,72.349,122.309,72.266,122.575,72.333z M123.325,73.232c0.032,0,0.05,0.1,0.05,0.3c0,0.133-0.2,0.35-0.6,0.65
				c-0.435,0.333-0.784,0.5-1.051,0.5c-0.166,0.2-0.25,0.133-0.25-0.2s0.199-0.567,0.601-0.7c0.633-0.2,1.032-0.367,1.2-0.5
				L123.325,73.232z M131.674,94.333c0-0.133,0.033-0.3,0.102-0.5c0.267-0.067,0.85-0.067,1.75,0c0,0.033,0.033,0.065,0.1,0.101
				c0.033,0,0.05,0.1,0.05,0.299c0,0.4-0.333,0.601-1,0.601l-0.85-0.05c-0.066-0.066-0.117-0.1-0.15-0.1
				C131.674,94.648,131.674,94.531,131.674,94.333z M130.125,105.434c-0.2-0.201-0.316-0.317-0.35-0.352
				c0.232-0.333,0.5-0.467,0.8-0.398c0.3,0.032,0.583,0.25,0.85,0.648c-0.1,0.301-0.3,0.449-0.6,0.449
				C130.625,105.781,130.391,105.666,130.125,105.434z M127.924,106.184c0.2-0.135,0.518-0.168,0.95-0.102
				c0,0.102,0.033,0.417,0.101,0.949c0.033,0.135-0.117,0.201-0.449,0.201c-0.2,0-0.367-0.166-0.5-0.5
				C127.958,106.531,127.924,106.35,127.924,106.184z M109.275,141.883c-0.067-0.033-0.117-0.066-0.15-0.102
				c-0.033-0.032-0.05-0.148-0.05-0.35c0-0.5,0.267-0.832,0.8-1c0.066,0.066,0.134,0.084,0.2,0.051c0,0.033,0,0.149,0,0.35
				C110.075,141.1,109.809,141.449,109.275,141.883z M110.825,142.684c-0.066-0.067-0.101-0.218-0.101-0.451
				c0-0.232,0.184-0.399,0.551-0.5c0.3-0.065,0.615-0.084,0.949-0.049l0.101,0.299c-0.767,0.5-1.185,0.768-1.25,0.801
				L110.825,142.684z M111.924,144.184c-0.434-0.301-0.648-0.483-0.648-0.551c0-0.367,0.216-0.734,0.648-1.102
				c0.5-0.5,1.033-0.516,1.602-0.049l0.148,0.299c-0.133,0.234-0.398,0.5-0.8,0.801
				C112.508,143.883,112.191,144.082,111.924,144.184z M60.875,125.434c0,0.166-0.05,0.416-0.15,0.75
				c-0.133,0.365-0.283,0.6-0.449,0.699c-0.267-0.033-0.434-0.051-0.5-0.051c-0.067-0.033-0.101-0.166-0.101-0.398
				c0-0.135,0.084-0.367,0.25-0.701c0.167-0.434,0.334-0.699,0.5-0.799c0.101,0.032,0.217,0.065,0.351,0.1
				C60.841,125.1,60.875,125.232,60.875,125.434z M58.075,127.082l-0.15,0.102c-0.133-0.168-0.233-0.435-0.3-0.801l-0.15-0.852
				c0.367,0.102,0.584,0.234,0.65,0.4c0.033,0.033,0.05,0.2,0.05,0.5C58.174,126.766,58.141,126.982,58.075,127.082z
				 M28.625,146.982l-0.05,0.649c-0.467,0.199-0.783,0.3-0.95,0.3c-0.2-0.199-0.3-0.416-0.3-0.65c0-0.032,0.133-0.215,0.399-0.549
				c0.267-0.301,0.434-0.467,0.5-0.5C28.491,146.332,28.625,146.582,28.625,146.982z M25.525,144.832
				c-0.233-0.1-0.367-0.199-0.4-0.301c0.366-0.365,0.75-0.648,1.15-0.85c0.166,0.1,0.3,0.301,0.399,0.6l-0.149,0.5
				c-0.067,0.102-0.267,0.15-0.601,0.15L25.525,144.832z"/>
		</g>
	</g>
</g>
</svg>
