<?xml version="1.0" encoding="utf-8"?>
<!-- Generator: Adobe Illustrator 16.0.0, SVG Export Plug-In . SVG Version: 6.00 Build 0)  -->
<!DOCTYPE svg PUBLIC "-//W3C//DTD SVG 1.1//EN" "http://www.w3.org/Graphics/SVG/1.1/DTD/svg11.dtd">
<svg version="1.1" id="img_x5F_score" xmlns="http://www.w3.org/2000/svg" xmlns:xlink="http://www.w3.org/1999/xlink" x="0px"
	 y="0px" width="250px" height="190px" viewBox="0 0 250 190" enable-background="new 0 0 250 190" xml:space="preserve">
<g>
	<g>
		<path fill-rule="evenodd" clip-rule="evenodd" fill="#FF4E5E" d="M225.337,145.654c0-10.592-6.937-13.207-12.791-13.207h-1.579
			c-5.854,0-10.645-4.79-10.645-10.645v-1.065c0-5.855,4.79-10.645,10.645-10.645h7.78c5.855,0,10.646-4.79,10.646-10.645v-1.907
			c0-5.855-4.79-10.645-10.646-10.645H206.3c-5.854,0-10.645-4.76-10.645-10.578c0-5.818,4.79-10.578,10.645-10.578h20.38
			c5.855,0,10.646-4.79,10.646-10.645v-3.062c0-5.855-4.042-10.645-8.981-10.645c-4.94,0-8.981-4.189-8.981-9.31
			c0-5.121,4.789-9.311,10.645-9.311h6.898c5.854,0,10.645-4.76,10.645-10.578c0-5.818-4.79-10.578-10.645-10.578H77.091
			c-5.855,0-10.646,4.76-10.646,10.578c0,5.817,4.79,10.578,10.646,10.578h6.418c5.855,0,10.646,4.189,10.646,9.311
			c0,5.121-4.79,9.31-10.646,9.31h-35.35c-5.854,0-10.645,4.79-10.645,10.645v3.062c0,5.855-4.79,10.645-10.645,10.645H13.095
			C7.24,65.74,2.45,70.5,2.45,76.318c0,5.817,4.165,10.578,9.255,10.578c5.091,0,9.256,4.79,9.256,10.645v1.907
			c0,5.855,4.79,10.645,10.645,10.645h7.27c5.855,0,10.645,4.79,10.645,10.645v1.065c0,5.855-4.789,10.645-10.645,10.645h-16.26
			c-5.855,0-10.646,4.79-10.646,10.645v6.197c0,5.855,4.79,9.571,10.646,9.571h189.931
			C218.4,158.861,225.337,156.247,225.337,145.654z"/>
	</g>
	<g>
		<path fill-rule="evenodd" clip-rule="evenodd" fill="#BEC7E4" d="M48.659,154.959c-1.665,0-13.964,4.929-10.952,6.571
			s106.509,26.011,121.294,26.832s75.294-18.892,52.843-23.273S95.479,154.959,48.659,154.959z"/>
		<g>
			<path fill-rule="evenodd" clip-rule="evenodd" fill="#BEC7E4" d="M123.118,183.13c0.074-0.676,1.585-1.253,4.532-1.732
				c2.937-0.478,5.481-0.168,7.634,0.928c0.447,0.211,0.756,0.435,0.926,0.67c0.235,0.324,0.33,0.64,0.284,0.947
				c-0.034,0.316-0.223,0.566-0.564,0.75c-1.342,0.754-2.75,1.211-4.224,1.37c-1.664,0.184-3.498,0.008-5.502-0.527
				c-1.035-0.274-1.839-0.665-2.409-1.171C123.297,183.925,123.071,183.513,123.118,183.13z"/>
		</g>
		<g>
			<path fill-rule="evenodd" clip-rule="evenodd" fill="#BEC7E4" d="M104.493,182.13c0.074-0.676,1.585-1.253,4.532-1.732
				c2.937-0.478,5.481-0.168,7.634,0.928c0.447,0.211,0.756,0.435,0.926,0.67c0.235,0.324,0.33,0.64,0.284,0.947
				c-0.034,0.316-0.223,0.566-0.564,0.75c-1.342,0.754-2.75,1.211-4.224,1.37c-1.664,0.184-3.498,0.008-5.502-0.527
				c-1.035-0.274-1.839-0.665-2.409-1.171C104.672,182.925,104.446,182.513,104.493,182.13z"/>
		</g>
		<g>
			<path fill-rule="evenodd" clip-rule="evenodd" fill="#BEC7E4" d="M129.451,184.969c0.074-0.676,1.585-1.253,4.532-1.732
				c2.937-0.478,5.481-0.168,7.634,0.928c0.447,0.211,0.756,0.435,0.926,0.67c0.235,0.324,0.33,0.64,0.284,0.947
				c-0.034,0.316-0.223,0.566-0.564,0.75c-1.342,0.754-2.75,1.211-4.224,1.37c-1.664,0.184-3.498,0.008-5.502-0.527
				c-1.035-0.274-1.839-0.665-2.409-1.171C129.63,185.764,129.404,185.352,129.451,184.969z"/>
		</g>
		<g>
			<path fill-rule="evenodd" clip-rule="evenodd" fill="#BEC7E4" d="M179.179,184.426c0.074-0.676,1.585-1.253,4.532-1.732
				c2.937-0.478,5.481-0.168,7.634,0.928c0.447,0.211,0.756,0.435,0.926,0.67c0.235,0.324,0.33,0.64,0.284,0.947
				c-0.034,0.316-0.223,0.566-0.564,0.75c-1.342,0.754-2.75,1.211-4.224,1.37c-1.664,0.184-3.498,0.008-5.502-0.527
				c-1.035-0.274-1.839-0.665-2.409-1.171C179.357,185.221,179.132,184.809,179.179,184.426z"/>
		</g>
		<g>
			<g>
				<g>
					<g>
						<path fill-rule="evenodd" clip-rule="evenodd" fill="#E09E28" d="M92.546,48.969l-3.094-0.243
							c2.13-1.888,4.348-4.611,6.654-8.171c2.993-4.584,4.807-7.267,5.439-8.049c0.027-0.054,0.055-0.094,0.081-0.121
							c2.036-2.44,4.126-3.661,6.27-3.661l0.749,0.061c1.415,0.216,2.744,1.072,3.984,2.568c0.646,0.769,1.132,1.551,1.456,2.346
							c-2.616-0.162-4.079-0.256-4.389-0.283c-2.225,0.041-3.749,0.351-4.571,0.93c-0.85,0.58-2.157,2.42-3.924,5.521
							C99.423,42.969,96.537,46.003,92.546,48.969z"/>
						<path fill-rule="evenodd" clip-rule="evenodd" fill="#C18442" d="M114.086,33.7l58.004,3.56h0.041l-1.942,1.598
							c-1.038,1.038-1.826,2.231-2.365,3.58c-2.226,5.299-5.656,9.182-10.295,11.649l-64.982-5.117c3.991-2.966,6.877-6,8.656-9.101
							c1.767-3.101,3.074-4.941,3.924-5.521c0.822-0.58,2.347-0.89,4.571-0.93C110.007,33.443,111.47,33.538,114.086,33.7z"/>
						<g>
							<defs>
								<path id="SVGID_1_" d="M114.086,33.7l58.004,3.56h0.041l-1.942,1.598c-1.038,1.038-1.826,2.231-2.365,3.58
									c-2.226,5.299-5.656,9.182-10.295,11.649l-64.982-5.117c3.991-2.966,6.877-6,8.656-9.101
									c1.767-3.101,3.074-4.941,3.924-5.521c0.822-0.58,2.347-0.89,4.571-0.93C110.007,33.443,111.47,33.538,114.086,33.7z"/>
							</defs>
							<clipPath id="SVGID_2_">
								<use xlink:href="#SVGID_1_"  overflow="visible"/>
							</clipPath>
							<g clip-path="url(#SVGID_2_)">
								<path fill-rule="evenodd" clip-rule="evenodd" fill="#935C25" d="M172.146,44.809c0.712-0.125-54.161-2.971-61.017-2.971
									C111.129,41.838,163.004,46.408,172.146,44.809z"/>
								<path opacity="0.5" fill-rule="evenodd" clip-rule="evenodd" fill="#935C25" d="M118.274,33.071
									c0,0-7.193-1.534-11.807,3.08c-4.613,4.614-4.813,10.523-13.206,14.514l-6.241-0.543
									C87.021,50.121,100.634,27.372,118.274,33.071z"/>
								<path fill-rule="evenodd" clip-rule="evenodd" fill="#935C25" d="M120.27,51.664c0,0-2.285-2.285-5.256-2.285
									C115.014,49.379,119.355,48.008,120.27,51.664z"/>
							</g>
						</g>
						<path fill-rule="evenodd" clip-rule="evenodd" fill="#F7D239" d="M169.016,64.239L54.2,55.219v-0.021
							c6.148-1.833,11.178-3.984,15.088-6.451c3.883-2.468,7.207-5.576,9.971-9.324c2.751-3.749,5.124-6.566,7.119-8.454
							c1.982-1.901,5.049-2.966,9.202-3.195l12.316,0.951c-2.144,0-4.233,1.22-6.27,3.661c-0.026,0.027-0.054,0.067-0.081,0.121
							c-0.633,0.782-2.446,3.465-5.439,8.049c-2.307,3.56-4.524,6.283-6.654,8.171l3.094,0.243l64.982,5.117
							c4.639-2.467,8.069-6.35,10.295-11.649c0.539-1.348,1.327-2.542,2.365-3.58l1.942-1.598h-0.041
							c1.511-1.038,3.351-1.861,5.521-2.467l19.76,0.748c-4.14,0.014-7.511,1.456-10.112,4.328
							c-0.135,0.162-0.276,0.337-0.425,0.526c-1.443,1.793-3.027,4.928-4.753,9.404c-1.739,4.477-3.492,7.719-5.258,9.728
							c-1.78,2.009-4.255,3.533-7.423,4.571C169.279,64.138,169.15,64.185,169.016,64.239z"/>
						<path fill-rule="evenodd" clip-rule="evenodd" fill="#E09E28" d="M211.589,85.191l-43.24-16.705l1.011-4.227l0.041-0.162
							c3.168-1.038,5.643-2.562,7.423-4.571c1.766-2.009,3.519-5.251,5.258-9.728c1.726-4.476,3.31-7.611,4.753-9.404
							c0.148-0.189,0.29-0.364,0.425-0.526c2.602-2.872,5.973-4.314,10.112-4.328l1.273,0.101c4.005,0.607,6.816,1.807,8.435,3.6
							c1.618,1.78,2.845,3.58,3.681,5.4c0.85,1.807,1.273,4.638,1.273,8.494c0,1.875-0.586,4.821-1.759,8.838
							c-1.2,4.018-1.8,7.564-1.8,10.638c0,0.067,0.007,0.142,0.02,0.223c0.054,1.362,0.735,3.121,2.043,5.278
							c0.688,1.12,1.47,2.158,2.346,3.115L211.589,85.191z"/>
						<path fill-rule="evenodd" clip-rule="evenodd" fill="#FF6666" d="M196.38,47.169c-1.564,0.337-2.737,1.2-3.52,2.589
							c-0.458,0.795-1.099,2.912-1.921,6.35c-0.769,3.115-1.787,5.521-3.054,7.22c-0.176,0.243-0.364,0.479-0.566,0.708l12.6,5.218
							l2.791,1.173c-0.013-0.189-0.021-0.344-0.021-0.465c0-1.928,0.466-4.207,1.396-6.836c0.944-2.629,1.416-5.198,1.416-7.706
							c0-1.86-0.849-3.728-2.548-5.602c-1.672-1.874-3.324-2.812-4.955-2.812C197.418,47.007,196.879,47.062,196.38,47.169z"/>
						<path fill-rule="evenodd" clip-rule="evenodd" fill="#966318" d="M99.402,62.742c-0.229,1.969-0.344,3.101-0.344,3.398
							c0,2.71,0.276,5.022,0.829,6.937h-0.04L53.654,58.94L99.402,62.742z"/>
						<path fill-rule="evenodd" clip-rule="evenodd" fill="#A5692D" d="M199.919,69.254l-12.6-5.218
							c0.202-0.229,0.391-0.465,0.566-0.708c1.267-1.699,2.285-4.105,3.054-7.22c0.822-3.438,1.463-5.555,1.921-6.35
							c0.782-1.389,1.955-2.252,3.52-2.589c1.254,0.337,2.515,1.22,3.782,2.649c1.698,1.874,2.548,3.742,2.548,5.602
							c0,2.508-0.472,5.077-1.415,7.706C200.473,65.446,200.014,67.488,199.919,69.254z"/>
						<g>
							<defs>
								<path id="SVGID_3_" d="M199.919,69.254l-12.6-5.218c0.202-0.229,0.391-0.465,0.566-0.708
									c1.267-1.699,2.285-4.105,3.054-7.22c0.822-3.438,1.463-5.555,1.921-6.35c0.782-1.389,1.955-2.252,3.52-2.589
									c1.254,0.337,2.515,1.22,3.782,2.649c1.698,1.874,2.548,3.742,2.548,5.602c0,2.508-0.472,5.077-1.415,7.706
									C200.473,65.446,200.014,67.488,199.919,69.254z"/>
							</defs>
							<clipPath id="SVGID_4_">
								<use xlink:href="#SVGID_3_"  overflow="visible"/>
							</clipPath>
							<path clip-path="url(#SVGID_4_)" fill-rule="evenodd" clip-rule="evenodd" fill="#935C25" d="M187.229,54.178l17.825,7.77
								l-1.371-2.057c0,0-9.37-2.971-14.169-6.399L187.229,54.178z"/>
						</g>
						<path fill-rule="evenodd" clip-rule="evenodd" fill="#C4831C" d="M199.919,69.254c0.095-1.766,0.554-3.809,1.376-6.128
							c0.943-2.629,1.415-5.198,1.415-7.706c0-1.86-0.85-3.728-2.548-5.602c-1.268-1.429-2.528-2.313-3.782-2.649
							c0.499-0.108,1.038-0.162,1.618-0.162c1.631,0,3.283,0.938,4.955,2.812c1.699,1.874,2.548,3.742,2.548,5.602
							c0,2.508-0.472,5.077-1.416,7.706c-0.93,2.629-1.396,4.908-1.396,6.836c0,0.122,0.008,0.276,0.021,0.465L199.919,69.254z"/>
						<polygon fill-rule="evenodd" clip-rule="evenodd" fill="#FFE164" points="168.349,68.486 99.402,62.742 53.654,58.94 
							54.2,55.219 169.016,64.239 169.359,64.259 						"/>
						<path fill-rule="evenodd" clip-rule="evenodd" fill="#935C25" d="M211.589,85.191l-0.021,0.061L99.888,73.077
							c-0.553-1.915-0.829-4.227-0.829-6.937c0-0.297,0.115-1.429,0.344-3.398l68.946,5.744L211.589,85.191z"/>
					</g>
				</g>
				<path opacity="0.5" fill-rule="evenodd" clip-rule="evenodd" fill="#E09E28" d="M153.473,57.695
					c-4.366,1.228-7.004,2.803-9.68,4.563l25.223,1.981c0.135-0.054,0.264-0.101,0.385-0.142c3.168-1.038,5.643-2.562,7.423-4.571
					c1.335-1.519,2.663-3.746,3.983-6.676C172.124,60.143,163.394,54.904,153.473,57.695z"/>
				<g opacity="0.5">
					<path fill-rule="evenodd" clip-rule="evenodd" fill="#FFFFFF" d="M118.273,56.726c10.997,1.173,17.2-1.315,22.116-3.99
						l-47.844-3.767l-3.094-0.243c2.13-1.888,4.348-4.611,6.654-8.171c0.17-0.261,0.336-0.515,0.499-0.764
						c-2.596-1.214-4.862-2.403-6.749-3.41c-1.962-1.046-4.561-1.298-7.456-1.034c-0.986,1.209-2.032,2.563-3.142,4.075
						c-2.764,3.748-6.088,6.856-9.971,9.324c-3.91,2.467-8.939,4.618-15.088,6.451v0.021l13.592,1.068
						C87.392,48.823,97.223,54.48,118.273,56.726z"/>
					<path fill-rule="evenodd" clip-rule="evenodd" fill="#FFFFFF" d="M167.691,42.733c-1.093,2.525-2.463,4.726-4.116,6.595
						c10.153,1.278,16.734-3.029,22.143-7.326c0.382-0.621,0.753-1.157,1.116-1.608c0.148-0.189,0.29-0.364,0.425-0.526
						c2.602-2.872,5.973-4.314,10.112-4.328l-8.806-0.333c-3.465,1.144-6.927,2.68-9.905,4.728
						C174.426,42.845,171.384,43.045,167.691,42.733z"/>
				</g>
				<path opacity="0.5" fill-rule="evenodd" clip-rule="evenodd" fill="#FFFFFF" d="M54.2,55.219l114.815,9.02
					C169.016,64.239,65.826,58.526,54.2,55.219z"/>
			</g>
			<g>
				<g>
					<g>
						<g>
							<polygon fill-rule="evenodd" clip-rule="evenodd" fill="#A5692D" points="210.86,87.417 99.767,74.23 99.757,74.23 
								99.716,73.017 211.498,85.252 							"/>
							<polygon fill-rule="evenodd" clip-rule="evenodd" fill="#E09E28" points="99.757,74.23 36.888,82.34 35.938,80.338 
								99.716,73.017 							"/>
							<path fill-rule="evenodd" clip-rule="evenodd" fill="#89622E" d="M99.757,74.23h0.01v0.192L99.757,74.23z M99.767,74.23
								L210.86,87.417l-8.362,28.355l-101.033,10.254L99.767,74.23z"/>
							<polygon fill-rule="evenodd" clip-rule="evenodd" fill="#89622E" points="36.888,82.34 99.757,74.23 99.767,74.422 
								99.767,74.23 101.465,126.025 52.279,114.73 							"/>
							<g>
								<path fill-rule="evenodd" clip-rule="evenodd" fill="#B6853C" d="M107.169,77.062c0,0.108,0.681,0.964,2.043,2.568
									c0.301,0.407,0.567,0.798,0.798,1.173c0.862-1.031,1.863-1.82,3.004-2.367c0.741-0.351,2.515-1.422,5.319-3.216
									c0.822-0.521,1.533-0.936,2.134-1.244c-0.534-0.364-0.942-0.604-1.224-0.718c-1.78-0.755-2.765-1.193-2.953-1.314
									c-0.409-0.269-0.625-0.676-0.646-1.224c0.194-0.231,0.525-0.569,0.99-1.011c0.504,0.044,1.029,0.095,1.578,0.152
									c2.197,0.229,4.807,0.344,7.826,0.344c0.754,0,1.436-0.034,2.043-0.101c0.903,0.284,1.355,0.662,1.355,1.132
									c0,0.418-0.917,1.274-2.751,2.569c-0.714,0.5-1.341,0.905-1.881,1.213c0.473,0.664,0.931,1.527,1.375,2.589
									c0.674,1.624,1.115,3.097,1.325,4.419c0.193-0.174,0.392-0.353,0.597-0.536c0.755-0.796,2.292-1.382,4.611-1.76
									c1.335-0.216,3.472-0.499,6.411-0.849c-0.971-0.688-1.76-1.43-2.366-2.225c-0.647-0.863-0.971-1.651-0.971-2.366
									c0-0.957,0.613-1.396,1.84-1.314c0.661,0.041,2.238,0.391,4.732,1.052c0.647,0.108,3.074,0.195,7.281,0.263
									c2.427,0.041,3.641,0.519,3.641,1.436c0,0.317-0.698,1.109-2.093,2.376c-0.383,0.344-0.817,0.725-1.306,1.143
									c-1.194,1.023-2.148,1.802-2.861,2.336c-0.57,0.432-0.985,0.705-1.243,0.819c0.094,0.311,0.249,0.944,0.465,1.901
									c0.105,0.454,0.189,0.848,0.253,1.183c1.487-0.567,2.569-1.022,3.246-1.365c-0.796-0.431-1.288-0.735-1.477-0.91
									c-0.229-0.215-0.344-0.532-0.344-0.951c0-0.566,0.681-1.166,2.042-1.8c1.241-0.566,2.73-1.031,4.47-1.396
									c1.78-0.377,3.27-0.519,4.47-0.425c1.362,0.095,2.043,0.472,2.043,1.133c0,0.078-0.004,0.159-0.01,0.243
									c0.152-0.214,0.371-0.417,0.657-0.607c0.521-0.366,1.172-0.619,1.951-0.758c5.769,1.221,9.278,1.773,10.527,1.659
									c1.251-0.114,1.878,0.227,1.881,1.021c0,0.31-0.344,0.958-1.031,1.941c-0.554,0.782-1.059,1.423-1.518,1.921
									c1.012,0.405,2.259,1.221,3.742,2.447c0.292,0.243,0.559,0.476,0.799,0.698c0.361-0.55,0.837-1.174,1.426-1.871
									c1.402-1.658,2.407-2.629,3.014-2.912c0.629-0.302,1.31-0.814,2.042-1.537c-0.435,0.136-1.554-0.042-3.356-0.536
									c-1.808-0.493-2.714-0.883-2.721-1.173c-0.003-0.289,0-0.44,0.01-0.455c0.108-0.216,0.392-0.337,0.85-0.364
									c0.127-0.007,0.315-0.011,0.566-0.01c2.461-0.742,3.91-1.399,4.349-1.972c0.437-0.575,1.262-1.098,2.478-1.567
									c1.218-0.467,2.421-0.72,3.609-0.759c1.362-0.04,2.043,0.344,2.043,1.153c-0.486,1.425-0.972,2.544-1.456,3.357
									c0.85,0.232,1.274,0.677,1.274,1.335c0,0.458-0.169,1.18-0.506,2.164s-0.506,1.598-0.506,1.84
									c0,0.088,0.067,0.227,0.202,0.415c1.205,1.334,1.99,2.456,2.356,3.368c-2.224,0.533-4.867,1.217-7.928,2.053
									c-8.137,2.219-12.536,3.362-13.196,3.428c-3.142,0.324-6.189,0.762-9.143,1.315c-2.494,0.472-5.514,0.843-9.061,1.112
									h-4.975c-2.238-0.27-3.526-0.465-3.863-0.586c-1.289-0.447-2.005-1.33-2.144-2.649c-0.094-0.02-0.175-0.047-0.243-0.081
									c-16.274-2.535-28.346-4.396-36.212-5.582c-0.007-0.065-0.01-0.133-0.01-0.202c-0.041-1.079-0.048-1.813-0.021-2.205
									c0.017-0.237,0.064-0.523,0.142-0.859c-0.376-0.488-0.808-1.132-1.295-1.932c-1.227-2.049-1.968-3.074-2.225-3.074
									c-0.147,0-0.357,0.067-0.627,0.203c-0.27,0.134-0.485,0.202-0.647,0.202c-0.458,0-1.132-0.337-2.022-1.011
									c-0.89-0.674-1.334-1.193-1.334-1.558c0-0.89,0.465-1.847,1.396-2.872c0.876-0.971,1.907-1.733,3.094-2.286
									c1.241-0.58,2.266-0.728,3.074-0.445c0.931,0.337,1.396,1.213,1.396,2.629C107.775,74.614,107.573,75.498,107.169,77.062z
									 M83.485,68.708c0,0.621-0.114,1.787-0.344,3.499c5.433,0.908,9.077,2.745,10.932,5.511c0.063,0.21,0.113,0.436,0.152,0.677
									c0.134,0.85,0.134,1.719,0,2.609c0,1.497-0.027,2.434-0.081,2.811c-0.243,1.618-0.843,2.548-1.801,2.791h-6.755
									c-4.679-0.917-7.361-1.49-8.049-1.719c-1.221-0.42-1.989-1.034-2.306-1.84c0.755-1.432,1.867-3.643,3.337-6.634
									c0.104-0.154,0.206-0.302,0.304-0.445c-0.013,0.007-0.026,0.014-0.041,0.02c-2.197,0.958-4.126,1.436-5.784,1.436
									c-1.281,0-2.083-0.148-2.407-0.445c-0.121-0.121-0.182-0.432-0.182-0.93c0-0.809,0.681-2.124,2.043-3.944
									c1.361-1.82,2.852-3.398,4.47-4.733c1.847-1.537,3.337-2.285,4.47-2.245C82.805,65.169,83.485,66.362,83.485,68.708z
									 M160.946,81.996c-0.127-0.185-0.208-0.452-0.243-0.799c-0.098,0.316-0.226,0.65-0.384,1.001
									c-0.458,1.011-0.984,1.746-1.577,2.205c0.943,0.485,1.826,1.126,2.649,1.921c0.032,0.032,0.066,0.063,0.101,0.091
									c0.55-0.297,1.163-0.556,1.841-0.779c0.284-0.094,0.551-0.175,0.799-0.243c-0.721-0.527-1.323-1.1-1.811-1.719
									C161.553,82.771,161.095,82.212,160.946,81.996z"/>
							</g>
						</g>
					</g>
					<g>
						<g>
							<path fill-rule="evenodd" clip-rule="evenodd" fill="#F7D239" d="M35.938,80.338c7.87,0.879,15.812,1.803,23.824,2.771
								c13.812,1.657,27.298,3.376,40.46,5.157c16.426,2.23,32.347,4.556,47.761,6.978c2.46,0.39,4.907,0.781,7.342,1.173v88.523
								c-0.136-0.037-0.271-0.071-0.405-0.101c-23.527-5.339-48.033-10.625-73.517-15.856c-16.109-3.311-29.377-6.078-39.802-8.302
								c-0.084-1.772-0.165-3.583-0.243-5.43c-0.741-18.054-1.166-28.059-1.273-30.014C39.278,109.818,37.896,94.852,35.938,80.338z
								"/>
							<path fill-rule="evenodd" clip-rule="evenodd" fill="#E09E28" d="M211.498,85.252c-8.521,1.645-16.891,3.276-25.109,4.894
								c-9.639,1.901-18.204,3.62-25.695,5.157c-1.855,0.383-3.646,0.753-5.369,1.113c-2.435-0.392-4.882-0.783-7.342-1.173
								c-15.414-2.422-31.335-4.748-47.761-6.978c-13.162-1.781-26.648-3.5-40.46-5.157c-8.013-0.967-15.954-1.891-23.824-2.771
								l6.27-0.749c38.018,4.13,75.387,9.092,112.105,14.885l51.401-9.87L211.498,85.252z"/>
							<path fill-rule="evenodd" clip-rule="evenodd" fill="#E09E28" d="M155.324,96.417c1.724-0.359,3.514-0.73,5.369-1.113
								c7.491-1.537,16.057-3.256,25.695-5.157c8.219-1.618,16.589-3.25,25.109-4.894c-0.459,9.06-0.874,21.295-1.244,36.708
								c-0.373,15.685-0.619,30.354-0.738,44.009c-4.12,1.358-33.964,10.481-54.172,18.971h-0.02V96.417z"/>
						</g>
					</g>
					<g>
						<g>
							<polygon fill-rule="evenodd" clip-rule="evenodd" fill="#C4831C" points="168.985,156.615 194.287,149.951 196.238,104.172 
								198.564,103.708 196.886,152.024 168.925,160.094 							"/>
							<polygon fill-rule="evenodd" clip-rule="evenodd" fill="#A5692D" points="168.985,156.615 169.835,109.451 196.238,104.172 
								194.287,149.951 							"/>
							<g>
								<defs>
									<polygon id="SVGID_5_" points="168.985,156.615 169.835,109.451 196.238,104.172 194.287,149.951 									"/>
								</defs>
								<clipPath id="SVGID_6_">
									<use xlink:href="#SVGID_5_"  overflow="visible"/>
								</clipPath>
								<g clip-path="url(#SVGID_6_)">
									<path fill-rule="evenodd" clip-rule="evenodd" fill="#935C25" d="M163.462,126.85c0,0,18.511-5.485,23.538-7.084
										l-4.799,2.742c0,0,15.311-2.285,18.738-2.971l-0.914,1.371c0,0-26.28,3.428-35.192,6.17L163.462,126.85z"/>
									<path fill-rule="evenodd" clip-rule="evenodd" fill="#935C25" d="M161.862,145.589c0,0,30.852-6.855,37.479-9.141
										l-1.372-0.686c0,0-31.536,8.456-35.649,8.456L161.862,145.589z"/>
								</g>
							</g>
						</g>
					</g>
					<g>
						<g>
							<path fill-rule="evenodd" clip-rule="evenodd" fill="#C18442" d="M101.557,115.923c2.762-0.522,4.67-1.284,5.724-2.285
								c1.053-1,1.72-3.829,2.002-8.484l32.157,3.418l-0.627,46.254l-82.881-13.581L55.546,99.43l26.969,2.872
								c-0.04,0.839-0.087,1.736-0.142,2.69c0,4.557,0.978,7.638,2.933,9.243c1.82,1.498,4.476,2.293,7.969,2.386
								c3.495,0.094,6.367-0.135,8.616-0.688h-0.324L101.557,115.923z"/>
							<path opacity="0.5" fill-rule="evenodd" clip-rule="evenodd" fill="#935C25" d="M109.282,105.153l32.157,3.418l-0.042,3.09
								l-29.051-4.04l-0.607,5.46c0,0-2.831,5.46-10.314,5.258c-7.482-0.202-8.15-1.719-8.15-1.719
								c3.495,0.094,6.367-0.135,8.616-0.688h-0.324l-0.01-0.01c2.762-0.522,4.67-1.284,5.724-2.285
								C108.333,112.637,109,109.809,109.282,105.153z M58.751,102.767l23.623,2.286c0-0.021-0.001-0.041-0.001-0.062
								c0.055-0.954,0.102-1.851,0.142-2.69L55.546,99.43l2.386,41.814l3.246,0.532L58.751,102.767z"/>
							<g>
								<defs>
									<path id="SVGID_7_" d="M101.557,115.923c2.762-0.522,4.67-1.284,5.724-2.285c1.053-1,1.72-3.829,2.002-8.484l32.157,3.418
										l-0.627,46.254l-82.881-13.581L55.546,99.43l26.969,2.872c-0.04,0.839-0.087,1.736-0.142,2.69
										c0,4.557,0.978,7.638,2.933,9.243c1.82,1.498,4.476,2.293,7.969,2.386c3.495,0.094,6.367-0.135,8.616-0.688h-0.324
										L101.557,115.923z"/>
								</defs>
								<clipPath id="SVGID_8_">
									<use xlink:href="#SVGID_7_"  overflow="visible"/>
								</clipPath>
								<path clip-path="url(#SVGID_8_)" fill-rule="evenodd" clip-rule="evenodd" fill="#935C25" d="M146.568,126.733
									c0,0-67.525-8.76-80.738-12.265c0,0,27.774,3.505,39.64,5.124c11.865,1.618,30.202,4.314,30.202,4.314
									s-10.548-2.262-14.763-3.973c0,0,16.363,3.202,21.757,5.089C148.059,126.909,146.568,126.733,146.568,126.733z"/>
								<path clip-path="url(#SVGID_8_)" fill-rule="evenodd" clip-rule="evenodd" fill="#935C25" d="M143.492,139.576
									l-86.764-12.539l-0.404,1.213c0,0,11.528,1.416,19.415,2.629c7.888,1.213,54.81,7.483,60.877,8.292
									S143.492,139.576,143.492,139.576z"/>
								<path clip-path="url(#SVGID_8_)" fill-rule="evenodd" clip-rule="evenodd" fill="#935C25" d="M62.998,145.846
									c0,0,20.831-2.225,25.483-2.022C88.481,143.823,74.729,147.261,62.998,145.846z"/>
								<path clip-path="url(#SVGID_8_)" fill-rule="evenodd" clip-rule="evenodd" fill="#935C25" d="M135.2,156.362
									c0,0-5.663-6.876-15.169-5.056L135.2,156.362z"/>
							</g>
							<path fill-rule="evenodd" clip-rule="evenodd" fill="#E09E28" d="M109.282,105.153c-0.282,4.656-0.949,7.484-2.002,8.484
								c-1.054,1.001-2.962,1.763-5.724,2.285c0.471-0.194,0.885-0.44,1.244-0.738c1.824-1.508,2.791-4.98,2.901-10.416
								L109.282,105.153z M55.546,99.43l2.386,41.814l82.881,13.581l-0.04,2.922l-85.47-14.693l-2.831-43.948L55.546,99.43z"/>
						</g>
					</g>
				</g>
				<g opacity="0.5">
					<path fill-rule="evenodd" clip-rule="evenodd" fill="#FFFFFF" d="M48.571,128.115c1.966,0.083,3.896,0.191,5.789,0.306
						l-1.279-19.85c-4.829-0.987-9.666-1.205-14.075,0.436c0.43,5.354,0.792,10.762,1.078,16.229
						c0.035,0.64,0.104,2.148,0.208,4.513C42.576,128.608,45.307,127.977,48.571,128.115z"/>
					<path fill-rule="evenodd" clip-rule="evenodd" fill="#FFFFFF" d="M85.306,114.234c1.82,1.498,4.476,2.293,7.969,2.386
						c0.195,0.005,0.382,0.006,0.573,0.009c3.677-4.363,7.622-6.476,11.551-7.712c0.17-1.227,0.273-2.605,0.304-4.148l3.58,0.384
						l8.921,0.948c5.242-1.501,9.731-4.496,12.524-13.498c-1.516-0.226-3.04-0.45-4.564-0.674
						c-1.131,4.394-4.339,11.106-13.412,11.106c-12.862,0-20.816,0.497-29.247,8.735C83.965,112.804,84.564,113.626,85.306,114.234z
						"/>
				</g>
				<g>
					<path fill-rule="evenodd" clip-rule="evenodd" fill="#E09E28" d="M94.878,98.426c-2.657-1.18-5.222,2.711-4.304,4.454
						c0.917,1.742,3.494,2.614,5.233,0.968C97.546,102.202,97.277,99.491,94.878,98.426z"/>
					<polygon fill-rule="evenodd" clip-rule="evenodd" fill="#E09E28" points="92.854,103.088 91.641,109.251 95.048,110.007 
						95.982,109.534 93.977,102.976 					"/>
					<path fill-rule="evenodd" clip-rule="evenodd" fill="#966318" d="M95.498,98.444c-2.798-1.154-4.974,2.651-3.868,4.355
						c1.105,1.705,3.79,2.557,5.368,0.947C98.578,102.137,98.024,99.486,95.498,98.444z"/>
					<polygon fill-rule="evenodd" clip-rule="evenodd" fill="#966318" points="93.781,103.386 92.498,108.839 96.024,109.549 
						94.903,103.274 					"/>
				</g>
				<g opacity="0.5">
					<path fill-rule="evenodd" clip-rule="evenodd" fill="#E09E28" d="M111.941,157.239c6.275,0.396,11.516-0.313,15.91-1.712
						l-36.476-6.271c-8.098,4.4-14.845,12.85-18.437,17.983c2.729,0.563,5.548,1.144,8.463,1.743
						c3.277,0.673,6.537,1.347,9.781,2.021C93.151,163.199,98.618,156.398,111.941,157.239z"/>
					<path fill-rule="evenodd" clip-rule="evenodd" fill="#E09E28" d="M155.324,119.577c-2.183,0.81-5.133,2.927-8.597,7.999
						c-1.349,1.975-3.277,3.76-5.619,5.378l-0.198,14.68c6.28-6.228,8.723-13.502,10.132-15.475c1.175-1.645,2.81-1.6,4.282-1.026
						V119.577z"/>
				</g>
			</g>
			<g>
				<path opacity="0.5" fill-rule="evenodd" clip-rule="evenodd" fill="#FFFFFF" d="M169.38,62.924
					c-3.44-0.156-4.854,4.247-1.214,4.247C171.807,67.171,173.829,63.126,169.38,62.924z"/>
				<path opacity="0.5" fill-rule="evenodd" clip-rule="evenodd" fill="#FFFFFF" d="M166.617,62.815
					c-2.305-0.104-3.251,2.845-0.813,2.845S169.598,62.951,166.617,62.815z"/>
				<path opacity="0.5" fill-rule="evenodd" clip-rule="evenodd" fill="#FFFFFF" d="M91.551,27.487
					c-3.365,0.729-3.604,5.348-0.086,4.417C94.983,30.971,95.903,26.543,91.551,27.487z"/>
				<path opacity="0.5" fill-rule="evenodd" clip-rule="evenodd" fill="#FFFFFF" d="M88.853,28.089
					c-2.254,0.489-2.414,3.583-0.057,2.958C91.152,30.423,91.769,27.457,88.853,28.089z"/>
				<path opacity="0.5" fill-rule="evenodd" clip-rule="evenodd" fill="#FFFFFF" d="M39.447,82.544
					c-4.102,1.903-3.077,7.889,1.162,5.683S44.752,80.085,39.447,82.544z"/>
				<path opacity="0.5" fill-rule="evenodd" clip-rule="evenodd" fill="#FFFFFF" d="M36.164,84.092
					c-2.747,1.274-2.062,5.284,0.779,3.806C39.782,86.421,39.718,82.444,36.164,84.092z"/>
				<path opacity="0.5" fill-rule="evenodd" clip-rule="evenodd" fill="#FFFFFF" d="M84.751,107.017
					c-4.102,1.902-3.078,7.888,1.161,5.683C90.152,110.494,90.055,104.557,84.751,107.017z"/>
				<path opacity="0.5" fill-rule="evenodd" clip-rule="evenodd" fill="#FFFFFF" d="M81.468,108.564
					c-2.747,1.274-2.062,5.284,0.778,3.806C85.086,110.893,85.021,106.916,81.468,108.564z"/>
			</g>
			<g>
				<g>
					<path opacity="0.5" fill="#E09E28" d="M60.132,83.101c0,0-0.386,7.935,2.058,8.138c2.442,0.204,3.541-7.731,3.541-7.731
						L60.132,83.101z"/>
					<g>
						<defs>
							<path id="SVGID_9_" d="M42.207,79.589c38.018,4.13,75.387,9.092,112.105,14.885l51.401-9.87l-53.728-44.13L48.841,57.666
								L42.207,79.589z"/>
						</defs>
						<clipPath id="SVGID_10_">
							<use xlink:href="#SVGID_9_"  overflow="visible"/>
						</clipPath>
						<g clip-path="url(#SVGID_10_)">
							<path fill-rule="evenodd" clip-rule="evenodd" fill="#D7A354" d="M78.146,84.534l-4.753-0.03l-0.566-0.121H62.664
								c0.539-0.897,1.702-2.286,3.489-4.167c2.454-2.588,3.822-3.89,4.105-3.903c1.955-0.135,3.829,1.052,5.622,3.56
								C77.255,81.781,78.01,83.335,78.146,84.534z"/>
						</g>
					</g>
					<g>
						<path fill-rule="evenodd" clip-rule="evenodd" fill="#EED37C" d="M72.059,77.547c0,0.458-0.351,1.072-1.052,1.84
							c-0.836,0.917-1.739,1.375-2.71,1.375c-0.89,0-1.335-0.223-1.335-0.667c0-0.337,0.533-0.856,1.598-1.558
							c1.093-0.714,1.666-1.254,1.72-1.618c0.188-1.227,0.539-1.578,1.052-1.052C71.816,76.367,72.059,76.927,72.059,77.547z"/>
					</g>
					<g>
						<path fill-rule="evenodd" clip-rule="evenodd" fill="#D7A354" d="M62.877,71.924c2.157,0.634,4.024,1.409,5.602,2.326
							c1.7,0.97,2.587,1.667,2.66,2.093c0.074,0.428-0.03,0.904-0.313,1.426c-0.282,0.522-1.24,1.196-2.872,2.022
							c-0.994,1.378-1.925,2.457-2.791,3.236c-4.18,3.802-7.133,5.703-8.858,5.703c-0.89,0-1.53-0.175-1.921-0.526
							c-0.229-0.216-0.344-0.452-0.344-0.708c0-0.525,0.377-1.658,1.132-3.397c0.755-1.753,1.133-2.986,1.133-3.701
							c0-1.065-0.263-2.501-0.789-4.308c-0.525-1.82-0.788-2.953-0.788-3.397c0-1.038,0.849-1.591,2.548-1.659
							C58.758,70.967,60.625,71.264,62.877,71.924z"/>
						<g>
							<path fill-rule="evenodd" clip-rule="evenodd" fill="#C99444" d="M57.477,73.583c0.014-0.094,0.095-0.142,0.243-0.142
								c1.065,0.917,1.598,3.593,1.598,8.029c0,0.553-0.188,1.362-0.566,2.427c-0.513,1.456-1.126,2.184-1.841,2.184
								c-0.323,0-0.553-0.115-0.688-0.344c-0.054-0.216-0.081-0.331-0.081-0.344c0.297-0.863,0.601-1.746,0.91-2.649
								c0.594-1.807,0.891-3.586,0.891-5.339c0-0.755-0.027-1.308-0.081-1.658C57.739,75.126,57.611,74.405,57.477,73.583z"/>
						</g>
					</g>
				</g>
				<g>
					<g>
						<path opacity="0.5" fill="#C4831C" d="M159.268,92.655c0,0,0,1.483,2.022,2.022c0,0,0.405,3.505,1.888,5.124
							c1.483,1.618,1.483,14.831,2.696,12.539c1.214-2.292,1.888-13.213,1.888-13.213S164.796,90.093,159.268,92.655z"/>
						<g>
							<defs>
								<path id="SVGID_11_" d="M42.207,79.589c38.018,4.13,75.387,9.092,112.105,14.885l6.658-1.278l1.045,10.361l43.698-18.953
									l-53.728-44.13L48.841,57.666L42.207,79.589z"/>
							</defs>
							<clipPath id="SVGID_12_">
								<use xlink:href="#SVGID_11_"  overflow="visible"/>
							</clipPath>
							<path clip-path="url(#SVGID_12_)" fill-rule="evenodd" clip-rule="evenodd" fill="#D7A354" d="M169.289,100.026
								c-0.064,0.037-0.129,0.074-0.192,0.111c-0.182,0.106-0.357,0.217-0.525,0.334c-0.201,0.023-0.64-0.183-1.314-0.617
								c-0.791-0.513-2.133-2.259-4.025-5.238c-0.134,0.041-0.276,0.061-0.425,0.061c-0.603,0-1.188-0.145-1.759-0.435
								c-0.275,0.601-0.868,1.15-1.78,1.648c-1.321,0.742-2.872,1.112-4.651,1.112c-1.646,0-2.98-0.263-4.005-0.789
								c-0.809-0.418-1.214-0.835-1.214-1.253c0-0.351,0.466-1.362,1.396-3.034c0.473-0.836,0.951-1.652,1.437-2.447
								c0.472-0.85,1.544-1.753,3.216-2.71c1.698-0.984,3.182-1.544,4.449-1.679c3.236-0.337,5.825,0.897,7.767,3.702
								c1.456,2.118,2.076,4.736,1.86,7.857C169.42,98.12,169.342,99.246,169.289,100.026z"/>
						</g>
						<g>
							<path fill-rule="evenodd" clip-rule="evenodd" fill="#C99444" d="M159.268,90.47c0.728,0.807,1.57,1.828,2.528,3.064
								c-0.027-0.068-0.055-0.139-0.081-0.212c-0.445-1.577-0.667-2.379-0.667-2.406c0-0.229,0.047-0.486,0.141-0.769
								c0.782,0.701,1.686,2.373,2.711,5.016c0,0.27-0.021,0.371-0.062,0.303l-0.121,0.101c-0.081,0.067-0.202,0.101-0.364,0.101
								c-0.389,0-0.79-0.428-1.203-1.284c-0.047,0.007-0.104,0.01-0.172,0.01c-0.647,0-1.335-0.6-2.063-1.8
								c-0.62-1.2-0.931-1.813-0.931-1.84c0-0.162,0.007-0.25,0.021-0.263c0.013-0.014,0.021-0.007,0.021,0.02
								C159.187,90.511,159.268,90.497,159.268,90.47z"/>
						</g>
					</g>
					<g>
						<path fill-rule="evenodd" clip-rule="evenodd" fill="#EED37C" d="M170.048,98.803c0,0.27-0.048,0.479-0.143,0.627
							c-0.188,0.324-0.546,0.364-1.071,0.122c-0.095,0.162-0.128,0.573-0.101,1.234c-0.081,0.566-0.405,0.849-0.972,0.849
							c-0.444,0-0.721-0.29-0.829-0.87c-0.027-0.58-0.04-0.883-0.04-0.91c0-0.903,0.525-1.523,1.577-1.86
							C169.521,97.657,170.048,97.926,170.048,98.803z"/>
					</g>
					<g>
						<path fill-rule="evenodd" clip-rule="evenodd" fill="#D7A354" d="M171.342,98.449c0.902,0.274,1.587,0.689,2.053,1.244
							c0.466,0.553,0.698,1.294,0.698,2.225c0,0.984-0.276,2.002-0.83,3.054c-0.93,1.726-1.517,2.905-1.759,3.539
							c-0.122,0.337-0.304,1.49-0.546,3.458c0.241,2.47-0.362,3.08-1.811,1.83c-1.449-1.247-2.205-3.879-2.266-7.897
							c-0.061-4.022,0.441-6.338,1.507-6.947C169.455,98.344,170.439,98.176,171.342,98.449z"/>
						<g>
							<path fill-rule="evenodd" clip-rule="evenodd" fill="#C99444" d="M168.389,102.595c0.078-0.393,0.18-0.791,0.304-1.193
								c0.222-0.412,0.552-0.644,0.991-0.698l0.162,0.223c-0.352,0.444-0.587,0.998-0.708,1.658
								c-0.081,0.432-0.122,1.018-0.122,1.759c0,0.095,0.034,0.479,0.102,1.153c0.067,0.661,0.101,1.146,0.101,1.457
								c0,0.539,0.257,0.917,0.769,1.132c0.513,0.216,0.77,0.526,0.77,0.931c0,0.107-0.129,0.445-0.385,1.011
								c-0.152,0.338-0.273,0.598-0.364,0.778c-0.899-0.225-1.395-1.614-1.486-4.166c-0.114-1.429-0.172-2.241-0.172-2.438
								C168.349,103.503,168.362,102.967,168.389,102.595z"/>
						</g>
					</g>
				</g>
				<g>
					<g>
						<defs>
							<path id="SVGID_13_" d="M42.207,79.589c38.018,4.13,75.387,9.092,112.105,14.885l51.401-9.87l-53.728-44.13L48.841,57.666
								L42.207,79.589z"/>
						</defs>
						<clipPath id="SVGID_14_">
							<use xlink:href="#SVGID_13_"  overflow="visible"/>
						</clipPath>
						<g clip-path="url(#SVGID_14_)">
							<path fill-rule="evenodd" clip-rule="evenodd" fill="#D7A354" d="M92.749,79.812c2.75-3.749,5.446-4.712,8.09-2.892
								c2.562,1.672,4.766,3.533,6.613,5.582c2.104,2.306,3.155,4.24,3.155,5.804c0,0.108-0.014,0.213-0.041,0.313
								c-1.051-0.043-5.251-0.29-12.6-0.738c-3.769-0.229-6.742-0.408-8.919-0.536c0.254-0.795,0.635-1.775,1.143-2.943
								C90.979,82.583,91.832,81.053,92.749,79.812z"/>
						</g>
					</g>
					<g>
						<path fill-rule="evenodd" clip-rule="evenodd" fill="#EED37C" d="M100.96,75.989c0.364,0.229,0.546,0.701,0.546,1.416
							c0,0.674-0.532,1.429-1.598,2.265c-1.159,0.917-2.373,1.375-3.641,1.375c-0.755,0-1.301-0.162-1.638-0.485
							c-0.229-0.202-0.344-0.431-0.344-0.688c0-0.539,0.667-0.923,2.002-1.153c1.537-0.27,2.501-0.735,2.892-1.396
							C99.895,76.138,100.488,75.693,100.96,75.989z"/>
					</g>
					<g>
						<path fill-rule="evenodd" clip-rule="evenodd" fill="#D7A354" d="M100.798,71.378c0.378,1.119,0.566,1.989,0.566,2.609
							c0,1.281-0.107,2.191-0.323,2.73c-0.418,1.011-1.375,1.948-2.872,2.811c-0.54,0.31-2.022,0.951-4.449,1.921
							c-2.765,1.105-4.463,1.658-5.097,1.658c-0.459,0-0.815-0.236-1.072-0.708c-0.162-0.31-0.242-0.559-0.242-0.748
							c0-0.31,0.384-1.739,1.152-4.288c0.81-2.656,1.416-4.436,1.82-5.339c0.741-1.658,2.366-2.663,4.874-3.014
							c1.794-0.242,3.216-0.202,4.268,0.122C99.908,69.349,100.367,70.097,100.798,71.378z"/>
						<g>
							<path fill-rule="evenodd" clip-rule="evenodd" fill="#C99444" d="M89.978,78.507c0.228-0.441,0.409-0.825,0.546-1.153
								c0.238-0.047,0.596-0.071,1.072-0.071c1.362,0,2.805-0.775,4.328-2.326c1.281-1.294,1.922-2.137,1.922-2.528
								c0-0.162-0.081-0.364-0.243-0.606c-0.256-0.297-0.465-0.56-0.627-0.789c0.836,0.041,1.396,0.256,1.679,0.647
								c0.175,0.229,0.263,0.606,0.263,1.133c-0.001,0.878-1.021,2.29-3.063,4.237c-2.039,1.945-3.694,3-4.966,3.165
								c-1.271,0.165-1.739-0.044-1.405-0.627c0.331-0.582,0.496-0.939,0.495-1.072V78.507z"/>
						</g>
					</g>
				</g>
				<g>
					<g>
						<defs>
							<path id="SVGID_15_" d="M42.207,79.589c38.018,4.13,75.387,9.092,112.105,14.885l51.401-9.87l-53.728-44.13L48.841,57.666
								L42.207,79.589z"/>
						</defs>
						<clipPath id="SVGID_16_">
							<use xlink:href="#SVGID_15_"  overflow="visible"/>
						</clipPath>
						<g clip-path="url(#SVGID_16_)">
							<path fill-rule="evenodd" clip-rule="evenodd" fill="#D7A354" d="M135.223,94.418c-0.036-0.737-0.137-1.663-0.303-2.776
								c-0.258-1.736-0.637-3.238-1.136-4.508c-1.491-3.833-3.575-5.273-6.25-4.323c-2.571,0.842-4.881,1.928-6.929,3.256
								c-2.324,1.489-3.666,2.901-4.023,4.237c-0.025,0.093-0.038,0.185-0.037,0.277c0.907,0.203,4.552,0.955,10.934,2.253
								C130.752,93.501,133.333,94.029,135.223,94.418z"/>
						</g>
					</g>
					<g>
						<path fill-rule="evenodd" clip-rule="evenodd" fill="#EED37C" d="M127.381,84.789c0,0.597,0.472,1.264,1.413,2.003
							c1.026,0.811,2.1,1.216,3.221,1.216c0.668,0,1.151-0.143,1.449-0.429c0.202-0.179,0.304-0.381,0.304-0.608
							c0-0.477-0.59-0.817-1.771-1.02c-1.36-0.238-2.213-0.65-2.559-1.234c-0.632-1.05-1.157-1.443-1.574-1.181
							C127.542,83.74,127.381,84.157,127.381,84.789z"/>
					</g>
					<g>
						<path fill-rule="evenodd" clip-rule="evenodd" fill="#D7A354" d="M127.506,81.766c0,1.133,0.096,1.938,0.287,2.416
							c0.369,0.894,1.216,1.723,2.54,2.486c0.478,0.274,1.789,0.841,3.936,1.699c2.445,0.978,3.948,1.467,4.509,1.467
							c0.405,0,0.721-0.208,0.948-0.626c0.143-0.274,0.214-0.495,0.214-0.662c0-0.274-0.34-1.539-1.02-3.792
							c-0.716-2.35-1.252-3.924-1.61-4.723c-0.655-1.467-2.093-2.355-4.312-2.666c-1.586-0.215-2.845-0.179-3.774,0.107
							c-0.43,0.191-0.835,0.853-1.217,1.986C127.673,80.448,127.506,81.217,127.506,81.766z"/>
						<g>
							<path fill-rule="evenodd" clip-rule="evenodd" fill="#C99444" d="M137.448,85.68c-0.2-0.39-0.361-0.73-0.482-1.02
								c-0.21-0.042-0.526-0.063-0.948-0.063c-1.204,0-2.48-0.686-3.828-2.057c-1.133-1.145-1.7-1.89-1.7-2.236
								c0-0.143,0.071-0.322,0.215-0.537c0.227-0.263,0.412-0.495,0.555-0.698c-0.739,0.036-1.234,0.227-1.485,0.572
								c-0.154,0.203-0.232,0.537-0.232,1.002c0.001,0.776,0.904,2.026,2.711,3.748c1.803,1.721,3.267,2.654,4.392,2.8
								c1.125,0.146,1.539-0.04,1.243-0.555c-0.293-0.515-0.438-0.831-0.438-0.948V85.68z"/>
						</g>
					</g>
				</g>
			</g>
		</g>
		<g>
			<g>
				<path fill-rule="evenodd" clip-rule="evenodd" fill="#F3C93C" d="M123.82,180.959l-0.028-0.222
					c0.484,0.088,1.001,0.01,1.55-0.233c1.025-0.466,2.315-0.709,3.872-0.729c1.578-0.011,2.93,0.212,4.053,0.667
					c1.18,0.481,2.009,0.814,2.484,1l-0.006,0.081c-0.095,0.346-0.14,0.958-0.133,1.839c-0.117,0.251-0.311,0.508-0.577,0.769
					c-0.683,0.625-1.912,1.086-3.69,1.381c-1.77,0.283-3.439,0.086-5.011-0.591c-1.479-0.636-2.335-1.428-2.566-2.376
					C123.854,182.288,123.871,181.759,123.82,180.959z"/>
			</g>
			<g>
				<path fill-rule="evenodd" clip-rule="evenodd" fill="#FCD961" d="M131.364,184.052c-1.769,0.289-3.438,0.094-5.009-0.583
					c-1.571-0.677-2.417-1.481-2.538-2.412c-0.107-0.825,0.408-1.494,1.545-2.007c1.025-0.466,2.316-0.709,3.872-0.728
					c1.568-0.01,2.914,0.213,4.037,0.669c1.27,0.525,2.05,1.111,2.341,1.761c0.292,0.651,0.098,1.292-0.581,1.921
					C134.353,183.303,133.13,183.762,131.364,184.052z"/>
			</g>
			<g>
				<defs>
					<path id="SVGID_17_" d="M131.364,184.052c-1.769,0.289-3.438,0.094-5.009-0.583c-1.571-0.677-2.417-1.481-2.538-2.412
						c-0.107-0.825,0.408-1.494,1.545-2.007c1.025-0.466,2.316-0.709,3.872-0.728c1.568-0.01,2.914,0.213,4.037,0.669
						c1.27,0.525,2.05,1.111,2.341,1.761c0.292,0.651,0.098,1.292-0.581,1.921C134.353,183.303,133.13,183.762,131.364,184.052z"/>
				</defs>
				<clipPath id="SVGID_18_">
					<use xlink:href="#SVGID_17_"  overflow="visible"/>
				</clipPath>
				<g clip-path="url(#SVGID_18_)">
					<path fill-rule="evenodd" clip-rule="evenodd" fill="#FFE9A1" d="M123.581,181.474c0.252-0.129,0.519-0.228,0.8-0.297
						c0.116-0.015,0.443,0.023,0.982,0.115c0.527,0.083,0.927,0.105,1.202,0.07c0.401-0.052,0.717-0.313,0.946-0.784
						c0.101-0.217,0.18-0.4,0.235-0.546c0.065-0.159,0.146-0.293,0.238-0.402c0.374-0.35,0.83-0.559,1.369-0.629
						c0.211-0.028,0.596-0.014,1.15,0.043c0.556,0.057,0.992,0.065,1.31,0.024c0.719-0.093,1.392-0.417,2.018-0.972
						c0.039-0.038,0.077-0.069,0.117-0.096c0.085,0.075,0.13,0.134,0.136,0.175c0.003,0.021,0.006,0.048,0.011,0.08
						c0.028-0.025,0.058-0.05,0.087-0.076c0.023,0.352,0.005,0.618-0.059,0.797c-0.189,0.606-0.734,1.009-1.632,1.212l-1.126,0.146
						c-0.562-0.013-0.938,0.154-1.128,0.501c-0.124,0.209-0.166,0.462-0.127,0.758l0.139,0.579c0.026,0.201-0.051,0.436-0.23,0.707
						c-0.197,0.305-0.448,0.483-0.753,0.534l-0.841,0.109c-0.297-0.047-0.575-0.082-0.836-0.101
						c-0.501-0.054-1.048-0.042-1.64,0.035c-0.666,0.086-1.159,0.382-1.481,0.886l-0.326-0.522
						c-0.588-0.805-1.017-1.421-1.287-1.848C123.076,181.771,123.318,181.605,123.581,181.474z"/>
				</g>
			</g>
			<g opacity="0.5">
				<path fill-rule="evenodd" clip-rule="evenodd" fill="#E9AB35" d="M129.815,178.828c-0.563-0.023-1.252,0.069-2.067,0.276
					c-0.816,0.206-1.491,0.468-2.026,0.787c-0.536,0.319-0.754,0.651-0.653,0.996c0.094,0.318,0.272,0.661,0.537,1.027
					c-0.278-0.05-0.523-0.192-0.733-0.429c-0.235-0.267-0.316-0.578-0.242-0.936c0.081-0.408,0.653-0.827,1.716-1.255
					c1.028-0.434,2.199-0.608,3.512-0.52l0.034,0.012C129.915,178.804,129.89,178.818,129.815,178.828z"/>
			</g>
			<g opacity="0.5">
				<path fill-rule="evenodd" clip-rule="evenodd" fill="#E9AB35" d="M131.724,183.336c-0.738,0.117-1.321,0.134-1.752,0.05
					c2.233-0.269,3.707-0.717,4.421-1.347c0.184-0.164,0.315-0.342,0.398-0.536c0.046,0.273-0.03,0.514-0.229,0.723
					c-0.209,0.21-0.554,0.421-1.031,0.634C133.053,183.062,132.45,183.221,131.724,183.336z"/>
			</g>
		</g>
		<g>
			<g>
				<path fill-rule="evenodd" clip-rule="evenodd" fill="#F3C93C" d="M105.195,179.959l-0.028-0.222
					c0.484,0.088,1.001,0.01,1.55-0.233c1.025-0.466,2.315-0.709,3.872-0.729c1.578-0.011,2.93,0.212,4.053,0.667
					c1.18,0.481,2.009,0.814,2.484,1l-0.006,0.081c-0.095,0.346-0.14,0.958-0.133,1.839c-0.117,0.251-0.311,0.508-0.577,0.769
					c-0.683,0.625-1.912,1.086-3.69,1.381c-1.77,0.283-3.439,0.086-5.011-0.591c-1.479-0.636-2.335-1.428-2.566-2.376
					C105.229,181.288,105.246,180.759,105.195,179.959z"/>
			</g>
			<g>
				<path fill-rule="evenodd" clip-rule="evenodd" fill="#FCD961" d="M112.739,183.052c-1.769,0.289-3.438,0.094-5.009-0.583
					c-1.571-0.677-2.417-1.481-2.538-2.412c-0.107-0.825,0.408-1.494,1.545-2.007c1.025-0.466,2.316-0.709,3.872-0.728
					c1.568-0.01,2.914,0.213,4.037,0.669c1.27,0.525,2.05,1.111,2.341,1.761c0.292,0.651,0.098,1.292-0.581,1.921
					C115.728,182.303,114.505,182.762,112.739,183.052z"/>
			</g>
			<g>
				<defs>
					<path id="SVGID_19_" d="M112.739,183.052c-1.769,0.289-3.438,0.094-5.009-0.583c-1.571-0.677-2.417-1.481-2.538-2.412
						c-0.107-0.825,0.408-1.494,1.545-2.007c1.025-0.466,2.316-0.709,3.872-0.728c1.568-0.01,2.914,0.213,4.037,0.669
						c1.27,0.525,2.05,1.111,2.341,1.761c0.292,0.651,0.098,1.292-0.581,1.921C115.728,182.303,114.505,182.762,112.739,183.052z"/>
				</defs>
				<clipPath id="SVGID_20_">
					<use xlink:href="#SVGID_19_"  overflow="visible"/>
				</clipPath>
				<g clip-path="url(#SVGID_20_)">
					<path fill-rule="evenodd" clip-rule="evenodd" fill="#FFE9A1" d="M104.956,180.474c0.252-0.129,0.519-0.228,0.8-0.297
						c0.116-0.015,0.443,0.023,0.982,0.115c0.527,0.083,0.927,0.105,1.202,0.07c0.401-0.052,0.717-0.313,0.946-0.784
						c0.101-0.217,0.18-0.4,0.235-0.546c0.065-0.159,0.146-0.293,0.238-0.402c0.374-0.35,0.83-0.559,1.369-0.629
						c0.211-0.028,0.596-0.014,1.15,0.043c0.556,0.057,0.992,0.065,1.31,0.024c0.719-0.093,1.392-0.417,2.018-0.972
						c0.039-0.038,0.077-0.069,0.117-0.096c0.085,0.075,0.13,0.134,0.136,0.175c0.003,0.021,0.006,0.048,0.011,0.08
						c0.028-0.025,0.058-0.05,0.087-0.076c0.023,0.352,0.005,0.618-0.059,0.797c-0.189,0.606-0.734,1.009-1.632,1.212l-1.126,0.146
						c-0.562-0.013-0.938,0.154-1.128,0.501c-0.124,0.209-0.166,0.462-0.127,0.758l0.139,0.579c0.026,0.201-0.051,0.436-0.23,0.707
						c-0.197,0.305-0.448,0.483-0.753,0.534l-0.841,0.109c-0.297-0.047-0.575-0.082-0.836-0.101
						c-0.501-0.054-1.048-0.042-1.64,0.035c-0.666,0.086-1.159,0.382-1.481,0.886l-0.326-0.522
						c-0.588-0.805-1.017-1.421-1.287-1.848C104.451,180.771,104.693,180.605,104.956,180.474z"/>
				</g>
			</g>
			<g opacity="0.5">
				<path fill-rule="evenodd" clip-rule="evenodd" fill="#E9AB35" d="M111.19,177.828c-0.563-0.023-1.252,0.069-2.067,0.276
					c-0.816,0.206-1.491,0.468-2.026,0.787c-0.536,0.319-0.754,0.651-0.653,0.996c0.094,0.318,0.272,0.661,0.537,1.027
					c-0.278-0.05-0.523-0.192-0.733-0.429c-0.235-0.267-0.316-0.578-0.242-0.936c0.081-0.408,0.653-0.827,1.716-1.255
					c1.028-0.434,2.199-0.608,3.512-0.52l0.034,0.012C111.29,177.804,111.265,177.818,111.19,177.828z"/>
			</g>
			<g opacity="0.5">
				<path fill-rule="evenodd" clip-rule="evenodd" fill="#E9AB35" d="M113.099,182.336c-0.738,0.117-1.321,0.134-1.752,0.05
					c2.233-0.269,3.707-0.717,4.421-1.347c0.184-0.164,0.315-0.342,0.398-0.536c0.046,0.273-0.03,0.514-0.229,0.723
					c-0.209,0.21-0.554,0.421-1.031,0.634C114.428,182.062,113.825,182.221,113.099,182.336z"/>
			</g>
		</g>
		<g>
			<g>
				<path fill-rule="evenodd" clip-rule="evenodd" fill="#F3C93C" d="M131.557,179.221l0.059-0.216
					c0.414,0.267,0.921,0.393,1.521,0.379c1.126-0.037,2.411,0.234,3.855,0.813c1.462,0.596,2.624,1.321,3.486,2.172
					c0.904,0.897,1.542,1.523,1.909,1.877l-0.036,0.073c-0.221,0.283-0.496,0.832-0.829,1.647c-0.204,0.187-0.48,0.35-0.827,0.488
					c-0.87,0.316-2.183,0.269-3.938-0.141c-1.742-0.417-3.209-1.24-4.399-2.469c-1.122-1.155-1.608-2.215-1.457-3.179
					C131.077,180.46,131.296,179.979,131.557,179.221z"/>
			</g>
			<g>
				<path fill-rule="evenodd" clip-rule="evenodd" fill="#FCD961" d="M137.336,184.972c-1.744-0.413-3.211-1.233-4.402-2.461
					c-1.19-1.229-1.663-2.296-1.417-3.201c0.218-0.803,0.95-1.223,2.197-1.26c1.125-0.037,2.41,0.235,3.854,0.814
					c1.452,0.593,2.608,1.315,3.471,2.167c0.972,0.972,1.467,1.813,1.485,2.524c0.02,0.713-0.405,1.23-1.274,1.551
					C140.383,185.427,139.077,185.382,137.336,184.972z"/>
			</g>
			<g>
				<defs>
					<path id="SVGID_21_" d="M137.336,184.972c-1.744-0.413-3.211-1.233-4.402-2.461c-1.19-1.229-1.663-2.296-1.417-3.201
						c0.218-0.803,0.95-1.223,2.197-1.26c1.125-0.037,2.41,0.235,3.854,0.814c1.452,0.593,2.608,1.315,3.471,2.167
						c0.972,0.972,1.467,1.813,1.485,2.524c0.02,0.713-0.405,1.23-1.274,1.551C140.383,185.427,139.077,185.382,137.336,184.972z"/>
				</defs>
				<clipPath id="SVGID_22_">
					<use xlink:href="#SVGID_21_"  overflow="visible"/>
				</clipPath>
				<g clip-path="url(#SVGID_22_)">
					<path fill-rule="evenodd" clip-rule="evenodd" fill="#FFE9A1" d="M131.138,179.604c0.282-0.022,0.566-0.011,0.853,0.033
						c0.114,0.031,0.401,0.192,0.863,0.483c0.455,0.279,0.816,0.454,1.084,0.526c0.391,0.105,0.781-0.015,1.174-0.361
						c0.177-0.162,0.319-0.3,0.428-0.414c0.121-0.122,0.247-0.215,0.374-0.279c0.479-0.18,0.981-0.198,1.506-0.055
						c0.206,0.055,0.555,0.216,1.046,0.482s0.891,0.441,1.199,0.525c0.699,0.19,1.445,0.149,2.236-0.123
						c0.05-0.02,0.098-0.034,0.146-0.043c0.05,0.102,0.068,0.173,0.058,0.214c-0.006,0.021-0.013,0.047-0.021,0.078
						c0.036-0.012,0.073-0.024,0.109-0.037c-0.113,0.334-0.232,0.572-0.359,0.714c-0.408,0.487-1.065,0.65-1.973,0.493l-1.096-0.297
						c-0.513-0.228-0.924-0.218-1.233,0.029c-0.195,0.146-0.33,0.363-0.408,0.651l-0.095,0.588
						c-0.053,0.195-0.214,0.383-0.484,0.564c-0.299,0.206-0.599,0.274-0.899,0.204l-0.818-0.222
						c-0.256-0.158-0.499-0.296-0.732-0.414c-0.442-0.242-0.952-0.441-1.527-0.597c-0.648-0.176-1.218-0.092-1.708,0.249
						l-0.101-0.607c-0.234-0.969-0.394-1.702-0.479-2.201C130.559,179.684,130.846,179.624,131.138,179.604z"/>
				</g>
			</g>
			<g opacity="0.5">
				<path fill-rule="evenodd" clip-rule="evenodd" fill="#E9AB35" d="M137.911,179.554c-0.511-0.237-1.183-0.417-2.016-0.54
					c-0.833-0.124-1.557-0.14-2.173-0.051c-0.617,0.089-0.946,0.312-0.985,0.668c-0.036,0.33-0.002,0.715,0.102,1.154
					c-0.238-0.153-0.409-0.378-0.513-0.677c-0.114-0.336-0.069-0.655,0.136-0.958c0.231-0.346,0.921-0.513,2.066-0.5
					c1.116-0.006,2.264,0.283,3.441,0.868l0.027,0.024C138.013,179.57,137.983,179.573,137.911,179.554z"/>
			</g>
			<g opacity="0.5">
				<path fill-rule="evenodd" clip-rule="evenodd" fill="#E9AB35" d="M137.941,184.449c-0.726-0.175-1.271-0.384-1.636-0.626
					c2.165,0.609,3.697,0.761,4.599,0.453c0.232-0.081,0.423-0.194,0.573-0.342c-0.062,0.271-0.226,0.463-0.488,0.58
					c-0.273,0.114-0.673,0.177-1.195,0.19C139.274,184.706,138.657,184.622,137.941,184.449z"/>
			</g>
		</g>
		<g>
			<g>
				<path fill-rule="evenodd" clip-rule="evenodd" fill="#F3C93C" d="M179.881,182.255l-0.028-0.222
					c0.484,0.088,1.001,0.01,1.55-0.233c1.025-0.466,2.315-0.709,3.872-0.729c1.578-0.011,2.93,0.212,4.053,0.667
					c1.18,0.481,2.009,0.814,2.484,1l-0.006,0.081c-0.095,0.346-0.14,0.958-0.133,1.839c-0.117,0.251-0.311,0.508-0.577,0.769
					c-0.683,0.625-1.912,1.086-3.69,1.381c-1.77,0.283-3.439,0.086-5.011-0.591c-1.479-0.636-2.335-1.428-2.566-2.376
					C179.914,183.584,179.932,183.055,179.881,182.255z"/>
			</g>
			<g>
				<path fill-rule="evenodd" clip-rule="evenodd" fill="#FCD961" d="M187.425,185.348c-1.769,0.289-3.438,0.094-5.009-0.583
					c-1.571-0.677-2.417-1.481-2.538-2.412c-0.107-0.825,0.408-1.494,1.545-2.007c1.025-0.466,2.316-0.709,3.872-0.728
					c1.568-0.01,2.914,0.213,4.037,0.669c1.27,0.525,2.05,1.111,2.341,1.761c0.292,0.651,0.098,1.292-0.581,1.921
					C190.413,184.599,189.19,185.058,187.425,185.348z"/>
			</g>
			<g>
				<defs>
					<path id="SVGID_23_" d="M187.425,185.348c-1.769,0.289-3.438,0.094-5.009-0.583c-1.571-0.677-2.417-1.481-2.538-2.412
						c-0.107-0.825,0.408-1.494,1.545-2.007c1.025-0.466,2.316-0.709,3.872-0.728c1.568-0.01,2.914,0.213,4.037,0.669
						c1.27,0.525,2.05,1.111,2.341,1.761c0.292,0.651,0.098,1.292-0.581,1.921C190.413,184.599,189.19,185.058,187.425,185.348z"/>
				</defs>
				<clipPath id="SVGID_24_">
					<use xlink:href="#SVGID_23_"  overflow="visible"/>
				</clipPath>
				<g clip-path="url(#SVGID_24_)">
					<path fill-rule="evenodd" clip-rule="evenodd" fill="#FFE9A1" d="M179.642,182.77c0.252-0.129,0.519-0.228,0.8-0.297
						c0.116-0.015,0.443,0.023,0.982,0.115c0.527,0.083,0.927,0.105,1.202,0.07c0.401-0.052,0.717-0.313,0.946-0.784
						c0.101-0.217,0.18-0.4,0.235-0.546c0.065-0.159,0.146-0.293,0.238-0.402c0.374-0.35,0.83-0.559,1.369-0.629
						c0.211-0.028,0.596-0.014,1.15,0.043c0.556,0.057,0.992,0.065,1.31,0.024c0.719-0.093,1.392-0.417,2.018-0.972
						c0.039-0.038,0.077-0.069,0.117-0.096c0.085,0.075,0.13,0.134,0.136,0.175c0.003,0.021,0.006,0.048,0.011,0.08
						c0.028-0.025,0.058-0.05,0.087-0.076c0.023,0.352,0.005,0.618-0.059,0.797c-0.189,0.606-0.734,1.009-1.632,1.212l-1.126,0.146
						c-0.562-0.013-0.938,0.154-1.128,0.501c-0.124,0.209-0.166,0.462-0.127,0.758l0.139,0.579c0.026,0.201-0.051,0.436-0.23,0.707
						c-0.197,0.305-0.448,0.483-0.753,0.534l-0.841,0.109c-0.297-0.047-0.575-0.082-0.836-0.101
						c-0.501-0.054-1.048-0.042-1.64,0.035c-0.666,0.086-1.159,0.382-1.481,0.886l-0.326-0.522
						c-0.588-0.805-1.017-1.421-1.287-1.848C179.137,183.067,179.379,182.901,179.642,182.77z"/>
				</g>
			</g>
			<g opacity="0.5">
				<path fill-rule="evenodd" clip-rule="evenodd" fill="#E9AB35" d="M185.876,180.124c-0.563-0.023-1.252,0.069-2.067,0.276
					c-0.816,0.206-1.491,0.468-2.026,0.787c-0.536,0.319-0.754,0.651-0.653,0.996c0.094,0.318,0.272,0.661,0.537,1.027
					c-0.278-0.05-0.523-0.192-0.733-0.429c-0.235-0.267-0.316-0.578-0.242-0.936c0.081-0.408,0.653-0.827,1.716-1.255
					c1.028-0.434,2.199-0.608,3.512-0.52l0.034,0.012C185.976,180.1,185.95,180.114,185.876,180.124z"/>
			</g>
			<g opacity="0.5">
				<path fill-rule="evenodd" clip-rule="evenodd" fill="#E9AB35" d="M187.784,184.632c-0.738,0.117-1.321,0.134-1.752,0.05
					c2.233-0.269,3.707-0.717,4.421-1.347c0.184-0.164,0.315-0.342,0.398-0.536c0.046,0.273-0.03,0.514-0.229,0.723
					c-0.209,0.21-0.554,0.421-1.031,0.634C189.113,184.358,188.511,184.517,187.784,184.632z"/>
			</g>
		</g>
	</g>
</g>
<g>
</g>
<g>
</g>
<g>
</g>
<g>
</g>
<g>
</g>
<g>
</g>
</svg>
