<?xml version="1.0" encoding="UTF-8"?>
<svg xmlns="http://www.w3.org/2000/svg" width="300" height="300" xmlns:xlink="http://www.w3.org/1999/xlink" viewBox="0 0 300 300">
  <defs>
    <clipPath id="c">
      <path d="M125.176,277.902c-.758.606-1.363,1.091-2.099,1.68-.003-.062.007.162.019.418-3.387-.334-3.522-2.53-.098-3.069,1.342-.49,1.373-1.844,1.91-3.284-1.545.594-2.59.506-4.045.75.265.932.945.904,1.534,1.532-.51.542-1.236.631-1.879.545-.171-1.088-1.084-2.648.13-3.455,1.146-.477-.194-1.794-.597-2.141-.611.296-1.18,1.025-.657,1.699.326.497.537.919-.125,1.406-1.262,3.485-3.207-.493-5.147-1.157.045-.2.138-.606.266-1.167-1.843,1.109-.956-3.384-3.099-.868-1.719-1.114-2.28-5.151-4.52-4.617-.207.129-.764-.091-.913-.342-.836-2.748-3.385-3.928-4.281-6.463-.684-1.609-2.09-2.526-3.293-3.665-.111-.161-.786-.115-.912.063-1.014,1.276-3.112.134-3.218-1.378-.322-.602-1.556-1.201-1.471-2.115-1.051-1.21.048-1.135.802-1.756-.756-.315-.921-.946-.91-1.842.195-.857-1.761-2.287-.415-2.741,1.544-.299.328-1.25.315-2.363-1.058,1.519-2.145,2.422-3.898,2.192-.795.651-1.282.214-1.811-.279-1.364-1.502-3.416.497-4.633,1.488.109-4.002-4.968.967-6.934,1.268-.046-1.376-1.634-2.458-2.685-1.099-2.382-.642-3.147-4.201-4.953-5.937-.373-1.633-2.54-1.221-2.64-2.783-.181-1.733-2.434-1.989-2.418-3.905-1.526-.625-1.185-2.704-2.284-3.658-1.887-2.432-6.876-5.47-6.084-8.614.95-.978.003-1.271-.64-1.872-.495-1.076-1.066-.045-1.882-.251,1.998-2.195-1.55-2.482,1.393-6.355.327-.955-.899-.688-1.176-.108-.733,1.315-1.78,1.135-2.794,1-.541-.583-.059-2.048-1.408-1.769-.091-.388-.183-.777-.279-1.185-1.315.322-2.049,1.703-.55,2.351-1.399,1.336-3.807,4.797-5.134,1.796-1.578.367-1.42-2.378-3.173-1.002-.084-.744-.152-1.349-.229-2.03-.19.126-.43.286-.672.447-.377-.79-.406-1.909-1.645-1.727-.134-1.018-.267-2.024-.419-3.175-.29.427-.488.719-.605.891-1.842-.421-2.225-2.363-3.204-3.755-.101.014-.202.029-.303.043-.068.357-.136.714-.204,1.071-.106-.005-.212-.01-.319-.015.29-3.611-3.029-4.701-4.076-7.738.286-1.072.316-1.514-.327-2.383-.408.441-.782.845-1.294,1.398-.826-.612-.409-2.128-1.643-1.805-.352-1.444-.025-2.5.928-3.472-1.038-1.162,1.651-3.705-.451-3.882-.116.498-.225.967-.334,1.436h-.228c.03-1.184.06-2.366.096-3.75,2.575,1.249,2.423-2.394,2.656-4.202-1.026.759-1.741,2.138-2.991,1.111.186.319.371.638.649,1.114-.55.141-1.028.263-1.348.344-.364-2.031.499-3.342,1.823-4.795.134.091.311.211.418.285,3.084-4.942,6.173-10.469,10.632-14.7-1.165-.953-1.766-2.917-.226-3.796.701.057,1.446.358,1.811.083.669-.832,1.205-1.962-.347-2.502-.005-1.458,1.93-3.062.547-4.344-.806-.904-.524-2.803-2.08-2.91-1.632-.494-2.494.987-3.891,1.43-1.359-.254-1.628,1.089-2.331,1.99-.824-.47-1.84-.606-2.386-1.297-.373-1.519-1.51-1.056-2.731-1.326.297-.315.543-.577.803-.852-1.705-.48-1.32,1.259-.729,2.099-.369.306-.699.58-1.233,1.023-.152-1.062.767-2.418-.515-2.869-2.124-.021-2.212-4.014-4.373-2.497.015-.336.029-.662.043-.993-1.186-.021-1.217-1.038-1.84-1.766-2.432-2.003-1.718-1.336-2.43-4.233-.214.143-.414.277-.671.449-.683-1.046-1.655-1.202-1.962-2.729-1.402-3.064-5.66-3.244-7.493-5.718-.621.09-1.104.16-1.698.246,1.47-2.179.183-3.53.312-5.63.854-2.103,1.706-4.2,2.555-6.292l.379.033c-.091,1.053-.181,2.107-.293,3.403.864-.977.566-1.973,1.022-2.882.193.127.354.234.516.34.071-.036.142-.072.213-.108.028-1.613-1.967-1.002-.647-2.625,8.612-16.246,15.32-33.335,24.554-49.192.481-.918.782-1.708,1.744-.605,1.848.592,1.924-2.504,3.778-2.342.457-.028.79-1.353.469-2.014-.077.341-.131.579-.201.884-1.056.026-2.079.052-3.123.078.309-2.187,2.758-2.299,4.348-1.629,1.788-2.653,2.455-6.629,6.101-7.236-.148-.182-.281-.347-.57-.704,2.672-.633,4.85,2.701,7.066,2.014.467-.416.788-.317.866.327-.229.084-.456.168-.759.28,4.513,1.621,9.124,5.574,13.257,6.388.97,2.569,2.522-.626,3.642-1.592.552-.887,1.476-.078,2.143-.644,9.508-9.638,17.982-20.802,28.43-28.782.581-.01,1.691.247,2.061.871,1.956,1.356,2.621-4.044,7.249,1.222.704,1.219,2.572-.498,2.868,1.108.296,1.212,1.788,1.153,2.335,2.195,1.891,1.147,2.712,3.344,5.013,4.038.73.416.847.903,1.586-.022.122,1.505.324,1.613,1.481.807.083.433.162.843.24,1.253l1.191-.51c-.507,7.39,26.113-25.579,29.55-27.479,1.71.373-.201,1.342.734,2.301.534.151,1.02-.737,1.42-.95,1.777-.352-.027,2.043,1.299,2.365.765.192.877,2.022,1.776,1.021.191.386.446.696.496,1.043.126.926,1.586.859,1.788.118.119-.986-.666-2.506.982-2.267.736.046.44,1.163,1.008,1.456-.268.429-.473.757-.678,1.085.461.132.923.263,1.521.434-.485,1.189-.436,1.382.742,1.869.248,1.071,1.302,1.56,2.087,2.168.903.747,1.75,2.174,3.19,2.091-.392,1.48,1.508.578,2.246,1.025-1.1,1.038-.985,1.378.145,2.052-.028.068-.055.137-.083.205-.501-.055-1.002-.11-1.695-.186.285.777,1.225.66.788,1.569-.073.777,1.294.973,1.946.448-.175.336-.28.538-.425.815.604-.042.219,1.079,1.021.751.447-.183.807-.582,1.169-1.013-1.147.696-1.422-.42-.425-1.014,1.444.034,2.18-.92,2.999-1.86,1.237-1.402,2.296-2.231,4.132-1.408.444.388.838.783,1.439.089,1.084.983,2.127,1.93,3.171,2.877.085-.071.171-.142.256-.214-.213-.353-.425-.705-.747-1.238,2.036,1.376,4.154-1.104,5.678.421.253,1.729,1.216,2.647,2.497,3.669,1.139,1.021.482,2.811,1.73,3.733.626.465.442,1.639,1.442,1.008,1.206-.857,2.185,1.382,1.49,2.305.449.086.789.151,1.078.206-.371.455-.698.857-1.026,1.258.636.277-.542,1.462.777,1.424.084-.249.174-.514.258-.762,1.055.709,2.434,1.259,1.29,2.728.341.047.643.089,1.014.14-.055.249-.102.462-.12.54.422.384.781.71,1.188,1.081-.209.266-.398.505-.693.88,1.058-.278,1.961-.515,2.951-.775.017.335.027.53.037.723,2.685.578.491,4.712,0,6.443.086.06.172.119.257.179,1.715-1.469,2.607-3.721,4.12-5.4.088.051.175.103.263.154-.409,1.037-.95,2.034-1.149,3.139,1.093-.036,1.581-.863,2.143-1.672,3.45,2.375,15.545-19.719,14.303-8.532.1.031.2.063.3.094,1.164-2.284,4.785-2.801,4.789.419-.103.948.778.59,1.369.528.629-.149.858.112.86.703-.088,2.089,4.779.549,4.205,3.436,2.274-.491,1.311,2.367,3.031,2.555.641-.005,1.282.394,1.946.621-.239.517-.461.995-.721,1.556,5.319,1.05,1.166.825,3.705,3.115,4.664,2.434.158,6.616-.446,10.297.094.044.188.087.282.131-.196.125-.392.249-.642.408.062.164.133.35.206.543-1.536.032-.73,1.358-1.475,2.279-.37.508-.555.861.082,1.296.772.902.649,2.409.967,3.506-.077-.063-.244-.199-.287-.234-.698,1.536.087,3.183-1.914,3.709-.218.806-.298,1.74-1.258,2.212-.333-.355-.618-.658-.902-.961-.145-.009-.29-.018-.435-.027.306,2.258-.913,3.67-1.917,5.579,1.315,1.041,3.178.858,4.132,1.982.144.215.28.653.386.642,1.524-.087,1.83,1.399,2.835,2.117.683-.705,1.322-1.366,1.98-2.045.275.198.493.356.712.513.056-.033.111-.065.167-.098l-.452-.983c1.662-3.371,1.804.704,2.983-1.261.504.208-.223,1.245.727.984.136-.037.123-.629.207-1.136,1.217-.011,1.52,1.645,2.955.403.076.822.039,1.217.224,1.869,1.788-.9,3.539-2.33,5.195-3.785,1.087-1.413,2.034-2.034,3.697-.799-.504.152-.793.239-1.082.326-.006.072-.012.143-.018.215.4.072.801.144,1.266.228.037-.193.068-.355.107-.563,1.826.24.024,1.308,1.14,1.913.142-.218.272-.416.315-.483,1.98.39,1.087-1.75,1.043-2.93l.217-.011c1.368,1.169,1.073,3.622,2.506,4.35.506.044.879.152,1.234.532,1.528.874.773-1.63,1.54-2.012.875-.067,1.36.8,1.831,1.502-.693,2.077,2.367,3.026,3.522,4.421-1.642-.441-2.471-.087-.856,1.537.244-.372.384-.587.631-.964.381.699.534,1.211,1.134,1.631.347-.64.06-1.115-.146-1.737.721.208,1.351.423.919,1.38.367,2.291,4.553-.851,3.589,2.319.952-.325,3.24.332,1.897,1.476-.139.101-.146.644-.007.805.178.206.665.404.842.301.918-.559,1.361.651,1.989,1.098,1.142,1.992-1.205,4.083-1.038,5.886,1.273.561-.386,2.146-1.133.937-.328.441-.519.812.204.917,1.71,1.932-2.629,6.887-3.918,9.191.387-.115.626-.185.964-.286.167.657,1.069,1.814-.014,2.115-.79.591-.282,1.655-.248,2.661.306.015,1.239-.443,1.489-.409.632.548,1.186.276,1.736-.057.594-.36.738-.058.828.494.844,2.517,1.24,5.081,2.192,7.484.312,1.373.75,3.61,2.299,3.949.377,1.031,1.998,1.118,1.716,2.669,2.754-.295,2.243,3.331,2.287,5.071,3.102,1.509-2.027,5.248-2.197,7.504-1.452,1.119-1.828,3.428-2.935,4.096-.586.354.134,1.9-1,1.758-.846.894-1.298,2.084-2.192,3.395,3.56.445,6.835.855,10.101,1.264.031,1.773.937.387,1.844,1.353-.492.341-.847.587-1.178.817,1.219,1.287,2.068,4.043.015,4.806-1.285-.446-.787.53-.87,1.19.574-.19,1.058-.349,1.612-.532,1.029,1.241-1.909,2.032-.462,3.52.003,6.036-9.851,6.994-2.309,13.999-.639.991.851,1.679.366,2.649-.918,1.323-.596,2.658,1.085,2.947.033-.127.101-.392.174-.674,1.073.657,2.622,4.342,2.48,5.777.215-.034.487-.077.76-.12-.011.102-.022.205-.033.307-.194.209-.388.419-.582.629.023.097.046.195.069.292.417-.072.833-.143,1.404-.241-.641.726-.255,2.286-1.261,2.364-.155-.009-.32.308-.48.476.748.648,1.61-.011,2.444-.175.041.07.083.139.124.209-3.322,4.446-9.62,6.889-11.529,12.186-.139,1.678-.436.865-1.557,1.151.541.325,1.511.933.657,1.468-.811.476.064,1.243-.272,1.996-.092.003-.184.007-.276.01-.128-.209-.257-.418-.546-.889-2.929,10.533-15.64,11.418-23.28,17.245-5.012,4.273-10.049,8.79-15.649,12.18-1.097,1.789-5.144,5.186-6.509,2.308.248-.108.486-.212.969-.424-.551-.345-.914-.572-1.426-.893.154,1.185-1.034,3.402-.652,1.17-1.283-.617-.153-2.097-.82-3.394-.427.942-.751,1.658-1.076,2.377-1.512-.775-.157-3.866-1.932-4.074-.715,1.091-1.228.635-1.713-.326-.318.575-.572,1.033-.847,1.531-3.462-3.646-10.416,7.118-14.197,6.485-2.055.198-3.677,3.989-5.872,3.017-9.505-2.355-29.605,24.751-35.198,20.033.294-.127.565-.244,1.089-.47-.52-.378-.871-.634-1.285-.935-1.333,2.614-1.439-.702-1.323-1.92-.104-.033-.209-.066-.313-.098-.389.695-.778,1.391-1.161,2.075-1.721-.231.059-5.088-1.888-4.079-.955,1.392-.972.073-1.76-.339-.19.46-.368.891-.537,1.298-2.203-1.825-4.674.918-7.24.354-.867.406-2.867,1.276-2.586-.636.755-.802,1.572-4.206-.391-3.301-.733-1.165-.648-1.495.41-1.738-.135-1.528-.539-2.109-1.666-.757.182-2.536-1.846-3.598-1.211-5.861.167-.569-.452-1.509-.28-2.089.818-1.57-.349-2.27-.954-3.196-2.045-.783-2.766-2.336-3.718-4.322-.699.551-1.423,1.121-2.208,1.74.03-.304.053-.547.08-.821-2.263.488-.916,2.161-2.453,3.649-.505-2.191,1.349-3.697,1.239-5.838-7.958,9.434-15.161,21.677-23.274,29.774ZM289.544,166.12c.911.967-.19,1.456.92,1.922.259-.91,1.564-1.379.654-2.622l-.662.331-.437-.207c.235-.286.47-.573.703-.856-1.485-1.741-1.274.345-1.178,1.433ZM26.527,186.126c-.468.637-.936,1.276-1.404,1.912.441.246.944.527,1.453.81,1.033-1.082,1.029-1.927-.049-2.723ZM290.349,174.461c-.235-.1-.47-.201-.706-.301.364-.526.728-1.051,1.055-1.524-.265-.181-.583-.398-.898-.613q-.594.51.02,1.119c-.3.202-.597.402-.895.602-.01.129-.019.258-.029.387.484.11.969.22,1.453.33ZM288.278,162.817c-.338.659-.59,1.15-.947,1.846,1.125-.295,2.45-1.219.947-1.846ZM235.92,85.117c-.074.025-.148.049-.223.074-.095.675-.189,1.35-.293,2.092l.957-.441c-.145-.566-.293-1.146-.441-1.725ZM181.702,36.845c-.9.537-.919.845-.11,1.517.038-.523.07-.963.11-1.517ZM32.318,74.325c.687.163,1.088.183,1.127-.518-.453-.578-.728.019-1.127.518ZM24.81,193.863c-.497.995-.404,1.19.503,1.318-.188-.493-.346-.905-.503-1.318ZM289.136,170.68c.163.013.327.026.49.039.006-.435.013-.87.019-1.305-.127-.01-.254-.02-.381-.031-.043.432-.085.864-.128,1.297ZM71.801,245.001c-.035.41-.069.82-.115,1.357.984-.528.89-.949.115-1.357Z" fill="none"/>
    </clipPath>
    <filter id="d" data-name="drop-shadow-1" x="-5.407" y="78.013" width="350.47" height="187.786" filterUnits="userSpaceOnUse">
      <feOffset dx="-4" dy="0"/>
      <feGaussianBlur result="e" stdDeviation="0"/>
      <feFlood flood-color="#42496f" flood-opacity="1"/>
      <feComposite in2="e" operator="in"/>
      <feComposite in="SourceGraphic"/>
    </filter>
    <clipPath id="f">
      <path d="M201.311,155.725c-1.123-9.524-2.246-19.048-3.369-28.572-19.636,4.099-39.298,8.076-58.983,11.932-14.16,2.773-28.413,5.493-42.838,5.815l-4.994,4.777c.956,6.001,1.913,12.002,2.869,18.003.22,1.379.456,2.803,1.212,3.977.969,1.505,2.647,2.381,4.283,3.108,17.719,7.869,38.168,5.607,57.198,1.897,14.793-2.884,29.818-6.725,42.145-15.396.94-.661,1.905-1.404,2.33-2.472.383-.962.268-2.04.147-3.069Z" fill="none"/>
    </clipPath>
    <clipPath id="g">
      <path d="M219.934,113.867c.848-6.697-2.152-8.549-5.589-10.619-13.207-7.952-29.798-6.955-45.063-4.799-18.556,2.621-36.923,6.578-54.912,11.831-17.462,5.099-36.39,13.066-43.485,29.816-1.196,2.824-1.918,6.326-.063,8.769,1.025,1.349,2.646,2.091,4.229,2.695,5.814,2.221,11.999,3.304,18.177,4.06,31.077,3.803,63.812,1.045,92.066-12.443,34.014-16.238,34.641-29.31,34.641-29.31Z" fill="none"/>
    </clipPath>
    <clipPath id="h">
      <path d="M72.051,256.695l-6.711-7.899c32.235-27.384,72.582-43.501,110.693-44.221,5.574-.092,11.036.564,16.329,1.209,6.058.739,11.778,1.436,17.398,1.014,12.257-.922,22.079-4.088,29.194-9.409,2.203-1.647,5.945-4.987,6.26-8.846.265-3.251-2.101-6.89-5.754-8.85-3.436-1.842-7.979-2.527-13.896-2.091-7.446.549-14.915,4.271-22.823,8.213-6.077,3.029-12.36,6.16-18.887,7.879-18.566,4.889-37.683,3.826-56.169,2.794-11.01-.614-22.396-1.247-33.372-.576-36.234,2.215-62.021,11.25-78.834,27.62l-7.231-7.427c18.669-18.176,46.615-28.166,85.433-30.539,11.582-.706,23.274-.057,34.581.573,18.497,1.03,35.969,2.002,52.953-2.469,5.496-1.448,11.037-4.209,16.902-7.133,8.459-4.216,17.205-8.575,26.686-9.274,7.938-.583,14.334.493,19.556,3.294,7.29,3.909,11.786,11.475,11.187,18.826-.485,5.95-4.075,11.588-10.383,16.306-8.72,6.52-20.369,10.371-34.624,11.444-6.639.497-13.141-.294-19.432-1.062-5.166-.631-10.045-1.227-14.878-1.134-35.763.675-73.734,15.894-104.178,41.756Z" fill="none"/>
    </clipPath>
    <clipPath id="i">
      <rect x="57.778" y="244.652" width="22.364" height="15.792" transform="translate(-146.831 104.324) rotate(-40.243)" fill="none"/>
    </clipPath>
    <clipPath id="j">
      <polygon points="85.266 230.383 76.145 236.901 67.068 243.481 76.34 256.264 85.37 249.718 94.444 243.233 85.266 230.383" fill="none"/>
    </clipPath>
    <clipPath id="k">
      <polygon points="99.068 222.343 89.453 228.109 79.879 233.941 88.096 247.426 97.622 241.624 107.186 235.888 99.068 222.343" fill="none"/>
    </clipPath>
    <clipPath id="l">
      <polygon points="113.493 215.453 103.439 220.415 93.42 225.447 100.511 239.557 110.477 234.551 120.477 229.616 113.493 215.453" fill="none"/>
    </clipPath>
    <clipPath id="m">
      <polygon points="128.474 209.805 118.035 213.898 107.626 218.067 113.501 232.725 123.853 228.579 134.234 224.509 128.474 209.805" fill="none"/>
    </clipPath>
    <clipPath id="n">
      <polygon points="143.936 205.51 133.172 208.658 122.433 211.89 126.987 227.01 137.663 223.798 148.364 220.668 143.936 205.51" fill="none"/>
    </clipPath>
    <clipPath id="o">
      <polygon points="159.783 202.697 148.768 204.814 137.77 207.022 140.884 222.504 151.812 220.309 162.759 218.206 159.783 202.697" fill="none"/>
    </clipPath>
    <clipPath id="p">
      <polygon points="175.888 201.504 164.713 202.5 153.547 203.594 155.092 219.309 166.184 218.222 177.284 217.234 175.888 201.504" fill="none"/>
    </clipPath>
    <clipPath id="q">
      <polygon points="192.39 202.637 181.159 201.961 169.918 201.47 169.238 217.247 180.34 217.732 191.432 218.4 192.39 202.637" fill="none"/>
    </clipPath>
    <clipPath id="r">
      <polygon points="207.948 204.782 196.857 203.583 185.774 202.314 183.975 218.003 195.111 219.278 206.255 220.482 207.948 204.782" fill="none"/>
    </clipPath>
    <clipPath id="s">
      <polygon points="221.668 202.97 210.591 204.006 199.501 204.894 200.754 220.635 211.957 219.739 223.146 218.692 221.668 202.97" fill="none"/>
    </clipPath>
    <clipPath id="t">
      <polygon points="234.722 198.349 224.11 201.581 213.432 204.589 217.704 219.792 228.552 216.735 239.333 213.452 234.722 198.349" fill="none"/>
    </clipPath>
    <clipPath id="u">
      <polygon points="244.934 189.986 235.837 196.264 226.551 202.261 235.106 215.534 244.606 209.397 253.916 202.974 244.934 189.986" fill="none"/>
    </clipPath>
    <clipPath id="v">
      <path d="M244.769,178.71l-1.255,5.448-.627,2.724-.314,1.362-.157.681c-.033.088-.062.172-.087.259-.025.087-.046.173-.065.266l-.229.66-.459,1.32-.917,2.641-1.834,5.281,14.918,5.181,1.834-5.282.917-2.641.459-1.32.229-.66.323-1.077.3-1.084.157-.681.314-1.362.627-2.724,1.255-5.448-15.389-3.544Z" fill="none"/>
    </clipPath>
    <clipPath id="w">
      <polygon points="231.745 176.427 236.027 180.022 238.168 181.82 239.238 182.719 239.773 183.168 240.053 183.431 240.342 183.685 240.839 184.176 241.835 185.157 243.826 187.119 247.808 191.044 258.893 179.797 254.911 175.873 252.92 173.91 251.925 172.929 251.427 172.438 250.682 171.752 249.928 171.074 249.392 170.625 248.322 169.726 246.181 167.929 241.899 164.333 231.745 176.427" fill="none"/>
    </clipPath>
    <clipPath id="x">
      <polygon points="219.779 179.776 230.801 180.251 241.799 181.12 243.06 165.379 231.764 164.489 220.443 163.998 219.779 179.776" fill="none"/>
    </clipPath>
    <clipPath id="y">
      <polygon points="208.07 185.307 218.578 181.802 229.17 178.561 224.562 163.457 213.769 166.76 203.062 170.33 208.07 185.307" fill="none"/>
    </clipPath>
    <clipPath id="z">
      <rect x="190.93" y="172.46" width="22.364" height="15.792" transform="translate(-59.103 108.634) rotate(-26.391)" fill="none"/>
    </clipPath>
    <clipPath id="aa">
      <polygon points="180.542 198.137 191.081 194.166 201.543 189.996 195.686 175.331 185.374 179.442 174.984 183.355 180.542 198.137" fill="none"/>
    </clipPath>
    <clipPath id="ab">
      <polygon points="163.573 200.122 174.674 198.397 185.753 196.533 183.126 180.961 172.151 182.808 161.154 184.517 163.573 200.122" fill="none"/>
    </clipPath>
    <clipPath id="ac">
      <polygon points="147.263 200.33 158.473 199.947 169.68 199.473 169.006 183.695 157.869 184.167 146.729 184.547 147.263 200.33" fill="none"/>
    </clipPath>
    <clipPath id="ad">
      <rect x="134.979" y="180.828" width="15.792" height="22.364" transform="translate(-53.773 328.431) rotate(-88.097)" fill="none"/>
    </clipPath>
    <clipPath id="ae">
      <rect x="119.657" y="180.11" width="15.792" height="22.364" transform="translate(-70.533 308.016) rotate(-86.814)" fill="none"/>
    </clipPath>
    <clipPath id="af">
      <rect x="104.33" y="179.41" width="15.792" height="22.364" transform="translate(-81.735 296.891) rotate(-88.234)" fill="none"/>
    </clipPath>
    <clipPath id="ag">
      <polygon points="86.116 198.992 97.251 198.481 108.39 198.062 107.801 182.281 96.592 182.703 85.387 183.217 86.116 198.992" fill="none"/>
    </clipPath>
    <clipPath id="ah">
      <path d="M71.432,200.898c7.432-.86,14.739-1.669,22.179-2.456l-1.689-15.701c-7.386.78-14.898,1.612-22.277,2.466l1.786,15.69Z" fill="none"/>
    </clipPath>
    <clipPath id="ai">
      <polygon points="57.033 203.929 67.978 201.799 78.938 199.751 76.043 184.228 65.019 186.287 54.012 188.429 57.033 203.929" fill="none"/>
    </clipPath>
    <clipPath id="aj">
      <polygon points="43.211 208.446 53.87 205.206 64.56 202.072 60.122 186.917 49.352 190.075 38.614 193.338 43.211 208.446" fill="none"/>
    </clipPath>
    <clipPath id="ak">
      <polygon points="30.332 214.746 40.463 210.139 50.651 205.659 44.301 191.201 34.017 195.723 23.79 200.373 30.332 214.746" fill="none"/>
    </clipPath>
    <clipPath id="al">
      <polygon points="18.908 223.039 28.144 216.849 37.473 210.801 28.889 197.547 19.453 203.664 10.111 209.924 18.908 223.039" fill="none"/>
    </clipPath>
    <clipPath id="am">
      <polygon points="9.609 233.034 17.596 225.26 25.651 217.555 14.738 206.142 6.631 213.896 -1.407 221.72 9.609 233.034" fill="none"/>
    </clipPath>
    <clipPath id="an">
      <path d="M176.229,214.939c-2.855.054-5.725.21-8.603.449-1.977-.201-3.88-.985-6.698-2.147-2.751-1.135-4.69-3.852-5.835-6.766-1.015-2.582-1.327-5.493-.702-8.245.069-.304.154-.604.243-.902-3.535.06-7.067.022-10.59-.079-.628,3.775-.309,7.626.802,11.212,1.09,3.518,2.925,6.777,5.382,9.433,1.714,1.853,3.72,3.417,5.974,4.572,3.483,1.784,7.425,2.677,11.788,2.677,3.215,0,6.659-.485,10.314-1.456,5.541-1.471,11.039-3.817,16.725-7.15-1.315-.149-2.625-.306-3.923-.464-5.166-.631-10.045-1.227-14.878-1.134ZM159.14,216.348c-.191.027-.383.057-.574.085.191-.028.383-.058.574-.085ZM318.03,147.101l-.472,10.354c-23.554-1.068-47.633,4.977-68.123,16.833-3.156,1.826-6.225,3.791-9.195,5.888-1.403.991-2.788,2.007-4.145,3.057-2.269,1.756-4.505,3.614-6.709,5.518-3.006-.786-6.606-1.808-11.764-3.441,2.912-2.615,5.893-5.239,8.975-7.761,1.04-.851,2.091-1.691,3.155-2.514,3.01-2.329,6.132-4.519,9.345-6.578,23.248-14.899,51.415-22.614,78.933-21.356ZM208.76,193.279c4.642,1.576,8.553,2.731,11.415,3.692-3.254,2.94-6.604,5.942-10.049,8.8-.444.368-.882.72-1.321,1.077-5.215.276-10.528-.342-16.127-1.025,3.464-2.232,7.052-4.893,10.83-8.029,1.761-1.461,3.515-2.979,5.253-4.515Z" fill="none"/>
    </clipPath>
    <clipPath id="ao">
      <path d="M167.99,225.144c-4.363,0-8.305-.893-11.788-2.677-9.162-4.694-14.287-16.099-11.92-26.53,2.169-9.561,10.338-17.685,20.327-20.215,3.955-1.002,8.269-1.26,13.576-.821,11.464.953,22.279,4.621,32.738,8.167,2.204.748,4.448,1.509,6.699,2.243,3.895-3.497,7.913-7.012,12.13-10.275,24.791-19.181,56.957-29.366,88.278-27.934l-.472,10.354c-28.895-1.31-58.585,8.078-81.463,25.778-2.269,1.756-4.505,3.614-6.709,5.518,29.07,7.327,62.667,6.966,102.467-1.078l2.054,10.161c-44.034,8.899-80.982,8.693-112.954-.635-.259-.075-.519-.152-.778-.229-3.254,2.94-6.604,5.942-10.049,8.8-11.446,9.498-21.557,15.192-31.821,17.918-3.656.971-7.099,1.456-10.314,1.456ZM173.503,185.058c-2.4,0-4.469.235-6.348.71-6.306,1.597-11.436,6.606-12.765,12.461-1.329,5.858,1.542,12.452,6.537,15.011,4.608,2.36,10.547,1.537,14.715.429,8.76-2.327,17.614-7.372,27.863-15.877,1.761-1.461,3.515-2.979,5.253-4.515-.39-.132-.778-.264-1.165-.395-10.321-3.501-20.069-6.806-30.268-7.654-1.367-.114-2.636-.171-3.823-.171Z" fill="none"/>
    </clipPath>
    <clipPath id="ap">
      <polygon points="292.008 161.284 303.111 160.387 314.222 159.603 313.116 143.85 301.919 144.64 290.731 145.544 292.008 161.284" fill="none"/>
    </clipPath>
    <clipPath id="aq">
      <polygon points="277.971 164.511 288.893 162.315 299.835 160.227 296.881 144.714 285.856 146.818 274.852 149.031 277.971 164.511" fill="none"/>
    </clipPath>
    <clipPath id="ar">
      <polygon points="264.389 169.341 274.982 165.892 285.608 162.548 280.873 147.484 270.167 150.853 259.495 154.327 264.389 169.341" fill="none"/>
    </clipPath>
    <clipPath id="as">
      <polygon points="251.46 175.714 261.58 171.059 271.746 166.504 265.294 152.09 255.052 156.68 244.855 161.37 251.46 175.714" fill="none"/>
    </clipPath>
    <clipPath id="at">
      <polygon points="239.388 183.564 248.887 177.747 258.446 172.028 250.343 158.474 240.71 164.238 231.137 170.099 239.388 183.564" fill="none"/>
    </clipPath>
    <clipPath id="au">
      <polygon points="228.368 192.809 237.102 185.891 245.901 179.057 236.22 166.582 227.356 173.465 218.559 180.433 228.368 192.809" fill="none"/>
    </clipPath>
    <clipPath id="av">
      <rect x="209.42" y="181.72" width="22.364" height="15.792" transform="translate(-70.217 196.196) rotate(-41.976)" fill="none"/>
    </clipPath>
    <clipPath id="aw">
      <path d="M205.799,213.039c5.664-4.805,11.403-9.725,17.018-14.587l-10.315-11.957c-5.656,4.898-11.236,9.681-16.942,14.522l10.239,12.022Z" fill="none"/>
    </clipPath>
    <clipPath id="ax">
      <polygon points="192.151 221.884 201.514 215.667 210.792 209.325 201.874 196.292 192.69 202.571 183.422 208.724 192.151 221.884" fill="none"/>
    </clipPath>
    <clipPath id="ay">
      <polygon points="176.191 227.865 186.675 223.721 197.067 219.353 190.936 204.8 180.712 209.099 170.397 213.175 176.191 227.865" fill="none"/>
    </clipPath>
    <clipPath id="az">
      <polygon points="157.768 227.916 169.141 227.818 180.498 227.207 179.623 211.44 168.649 212.035 157.659 212.125 157.768 227.916" fill="none"/>
    </clipPath>
    <clipPath id="ba">
      <polygon points="141.325 212.682 145.227 216.687 147.178 218.689 148.153 219.69 148.641 220.191 149.376 220.896 150.12 221.591 150.646 222.051 151.699 222.97 153.806 224.808 158.018 228.484 168.401 216.585 164.188 212.909 162.082 211.071 161.029 210.152 160.502 209.693 160.231 209.427 159.952 209.171 159.464 208.671 158.489 207.669 156.538 205.667 152.636 201.662 141.325 212.682" fill="none"/>
    </clipPath>
    <clipPath id="bb">
      <polygon points="141.189 190.158 141.087 195.749 141.036 198.544 141.011 199.941 140.998 200.64 141.011 201.625 141.034 202.61 141.072 203.308 141.148 204.703 141.299 207.495 141.603 213.077 157.371 212.22 157.068 206.637 156.916 203.846 156.84 202.45 156.802 201.752 156.8 201.34 156.787 200.927 156.8 200.229 156.825 198.831 156.876 196.036 156.978 190.446 141.189 190.158" fill="none"/>
    </clipPath>
    <clipPath id="bc">
      <polygon points="156.564 174.095 152.659 178.095 150.706 180.096 149.73 181.096 149.241 181.596 148.605 182.283 147.974 182.975 147.517 183.503 146.602 184.56 144.773 186.674 141.115 190.903 153.058 201.234 160.231 192.969 167.864 185.126 156.564 174.095" fill="none"/>
    </clipPath>
    <clipPath id="bd">
      <polygon points="177.388 170.83 166.146 172.62 165.26 172.786 164.576 172.929 163.209 173.217 160.473 173.793 155.002 174.943 158.252 190.397 169 188.152 179.844 186.429 177.388 170.83" fill="none"/>
    </clipPath>
    <clipPath id="be">
      <polygon points="195.097 174.672 183.991 172.865 172.857 171.243 170.589 186.871 181.585 188.473 192.552 190.257 195.097 174.672" fill="none"/>
    </clipPath>
    <clipPath id="bf">
      <polygon points="210.656 179.905 199.933 176.626 189.188 173.425 184.683 188.56 195.37 191.744 206.034 195.005 210.656 179.905" fill="none"/>
    </clipPath>
    <clipPath id="bg">
      <rect x="204.291" y="177.774" width="15.792" height="22.364" transform="translate(-34.6 329.753) rotate(-71.391)" fill="none"/>
    </clipPath>
    <clipPath id="bh">
      <polygon points="239.58 188.565 228.782 185.793 218.007 182.935 213.953 198.197 224.794 201.073 235.657 203.862 239.58 188.565" fill="none"/>
    </clipPath>
    <clipPath id="bi">
      <polygon points="254.035 190.603 243.028 188.818 232.035 186.951 229.387 202.519 240.442 204.396 251.51 206.192 254.035 190.603" fill="none"/>
    </clipPath>
    <clipPath id="bj">
      <polygon points="268.672 191.489 257.552 190.608 246.439 189.654 245.084 205.387 256.253 206.346 267.428 207.232 268.672 191.489" fill="none"/>
    </clipPath>
    <clipPath id="bk">
      <path d="M283.402,191.343c-7.482-.033-14.832-.102-22.314-.209l-.197,15.79c7.427.107,14.985.178,22.412.21l.099-15.791Z" fill="none"/>
    </clipPath>
    <clipPath id="bl">
      <path d="M298.162,190.287c-7.465.441-14.819.844-22.288,1.22l.82,15.77c7.421-.374,14.955-.786,22.373-1.224l-.906-15.766Z" fill="none"/>
    </clipPath>
    <clipPath id="bm">
      <rect x="291.523" y="189.616" width="22.364" height="15.792" transform="translate(-19.911 34.539) rotate(-6.323)" fill="none"/>
    </clipPath>
    <clipPath id="bn">
      <path d="M333.906,197.834c-31.92,6.451-60.101,8.091-85.378,4.967,3.108-3.006,5.229-6.291,6.279-9.736,22.88,2.193,48.342.41,77.045-5.391l2.054,10.161ZM217.622,185.31c-2.25-.735-4.494-1.496-6.699-2.243-.498-.169-1-.337-1.499-.506-4.704-1.592-9.479-3.18-14.359-4.511-5.487-1.497-11.1-2.669-16.88-3.15-5.307-.439-9.621-.18-13.576.821-6.647,1.684-12.475,5.851-16.279,11.263,5.664.081,11.244-.043,16.758-.548.672-.26,1.361-.488,2.066-.667,1.879-.476,3.947-.71,6.348-.71.444,0,.911.016,1.379.032.783.027,1.589.068,2.444.139,6.316.525,12.461,1.995,18.675,3.868,3.819,1.151,7.665,2.453,11.593,3.786.387.131.776.263,1.165.395,4.642,1.576,8.553,2.731,11.415,3.692.259.077.519.154.778.229,4.28,1.249,8.657,2.321,13.121,3.243,1.737-.929,3.383-1.932,4.881-3.053,1.565-1.17,3.901-3.197,5.239-5.655-5.061-.791-10.003-1.771-14.808-2.983-3.006-.786-6.606-1.808-11.764-3.441Z" fill="none"/>
    </clipPath>
    <clipPath id="bo">
      <path d="M167.99,225.144c-4.363,0-8.305-.893-11.788-2.677-9.162-4.694-14.287-16.099-11.92-26.53,2.169-9.561,10.338-17.685,20.327-20.215,3.955-1.002,8.269-1.26,13.576-.821,11.464.953,22.279,4.621,32.738,8.167,2.204.748,4.448,1.509,6.699,2.243,3.895-3.497,7.913-7.012,12.13-10.275,24.791-19.181,56.957-29.366,88.278-27.934l-.472,10.354c-28.895-1.31-58.585,8.078-81.463,25.778-2.269,1.756-4.505,3.614-6.709,5.518,29.07,7.327,62.667,6.966,102.467-1.078l2.054,10.161c-44.034,8.899-80.982,8.693-112.954-.635-.259-.075-.519-.152-.778-.229-3.254,2.94-6.604,5.942-10.049,8.8-11.446,9.498-21.557,15.192-31.821,17.918-3.656.971-7.099,1.456-10.314,1.456ZM173.503,185.058c-2.4,0-4.469.235-6.348.71-6.306,1.597-11.436,6.606-12.765,12.461-1.329,5.858,1.542,12.452,6.537,15.011,4.608,2.36,10.547,1.537,14.715.429,8.76-2.327,17.614-7.372,27.863-15.877,1.761-1.461,3.515-2.979,5.253-4.515-.39-.132-.778-.264-1.165-.395-10.321-3.501-20.069-6.806-30.268-7.654-1.367-.114-2.636-.171-3.823-.171Z" fill="none"/>
    </clipPath>
    <clipPath id="bp">
      <polygon points="167.69 229.13 178.601 226.413 189.47 223.529 185.416 208.267 174.668 211.119 163.878 213.805 167.69 229.13" fill="none"/>
    </clipPath>
    <clipPath id="bq">
      <polygon points="148.172 222.686 153.438 224.565 156.071 225.505 157.387 225.975 158.054 226.212 158.999 226.514 159.948 226.806 160.631 226.993 161.979 227.361 164.676 228.096 170.071 229.566 174.223 214.33 168.829 212.86 166.132 212.125 164.783 211.757 164.118 211.575 163.733 211.449 163.345 211.333 162.694 211.102 161.378 210.632 158.745 209.692 153.479 207.813 148.172 222.686" fill="none"/>
    </clipPath>
    <clipPath id="br">
      <polygon points="139.101 200.531 140.969 205.801 141.903 208.436 142.37 209.753 142.607 210.419 142.961 211.328 143.324 212.232 143.606 212.88 144.167 214.161 145.288 216.721 147.53 221.843 161.996 215.511 159.754 210.389 158.633 207.828 158.073 206.548 157.797 205.915 157.645 205.52 157.485 205.128 157.254 204.477 156.787 203.16 155.853 200.525 153.985 195.255 139.101 200.531" fill="none"/>
    </clipPath>
    <clipPath id="bs">
      <polygon points="148.837 179.477 146.273 184.445 144.992 186.929 144.351 188.172 144.027 188.8 143.609 189.674 143.2 190.552 142.92 191.201 142.368 192.486 141.264 195.054 139.057 200.191 153.565 206.426 155.773 201.289 156.876 198.721 157.428 197.437 157.702 196.802 157.889 196.416 158.068 196.027 158.384 195.412 159.025 194.17 160.307 191.686 162.871 186.717 148.837 179.477" fill="none"/>
    </clipPath>
    <clipPath id="bt">
      <polygon points="169.01 170.512 163.871 172.715 161.302 173.816 160.017 174.367 159.369 174.646 158.52 175.037 157.675 175.434 157.044 175.751 155.796 176.38 153.299 177.637 148.305 180.151 155.407 194.256 160.4 191.742 162.897 190.484 164.146 189.856 164.764 189.545 165.186 189.353 165.604 189.154 166.24 188.881 167.524 188.33 170.094 187.229 175.232 185.026 169.01 170.512" fill="none"/>
    </clipPath>
    <clipPath id="bu">
      <polygon points="189.19 173.143 177.961 172.162 166.71 171.428 165.691 187.187 176.756 187.908 187.807 188.874 189.19 173.143" fill="none"/>
    </clipPath>
    <clipPath id="bv">
      <polygon points="205.787 178.152 194.954 175.207 184.09 172.377 180.115 187.66 190.892 190.468 201.639 193.389 205.787 178.152" fill="none"/>
    </clipPath>
    <clipPath id="bw">
      <rect x="200.134" y="176.382" width="15.792" height="22.364" transform="translate(-36.352 324.438) rotate(-71.291)" fill="none"/>
    </clipPath>
    <clipPath id="bx">
      <polygon points="236.009 187.861 225.282 184.835 214.58 181.718 210.16 196.878 220.93 200.015 231.726 203.061 236.009 187.861" fill="none"/>
    </clipPath>
    <clipPath id="by">
      <polygon points="250.926 190.267 239.955 188.278 229.001 186.204 226.059 201.719 237.078 203.805 248.113 205.806 250.926 190.267" fill="none"/>
    </clipPath>
    <clipPath id="bz">
      <polygon points="266.059 191.409 254.954 190.375 243.857 189.264 242.28 204.977 253.436 206.094 264.599 207.133 266.059 191.409" fill="none"/>
    </clipPath>
    <clipPath id="ca">
      <path d="M281.307,191.421c-7.483-.104-14.827-.245-22.308-.428l-.355,15.788c7.424.182,14.986.327,22.411.43l.251-15.79Z" fill="none"/>
    </clipPath>
    <clipPath id="cb">
      <path d="M296.596,190.438c-7.469.395-14.82.75-22.293,1.077l.717,15.775c7.423-.325,14.963-.689,22.383-1.082l-.807-15.771Z" fill="none"/>
    </clipPath>
    <clipPath id="cc">
      <rect x="290.455" y="189.732" width="22.364" height="15.792" transform="translate(-19.332 33.248) rotate(-6.113)" fill="none"/>
    </clipPath>
  </defs>
  <g isolation="isolate">
    <g id="b" data-name="Calque 2">
      <g clip-path="url(#c)">
        <rect x="-6.19" y="-32.003" width="308.22" height="325.01" fill="#336a9b"/>
        <g>
          <polygon points="5.539 173.72 328.35 120.272 360.45 227.93 84.592 320.593 5.539 173.72" fill="#ffd66e"/>
          <g>
            <line x1="73.023" y1="214.186" x2="182.994" y2="314.825" fill="none" stroke="#f4af13" stroke-miterlimit="10" stroke-width="1.395"/>
            <line x1="83.515" y1="210.46" x2="195.99" y2="309.16" fill="none" stroke="#f4af13" stroke-miterlimit="10" stroke-width="1.395"/>
            <line x1="94.006" y1="206.735" x2="208.986" y2="303.496" fill="none" stroke="#f4af13" stroke-miterlimit="10" stroke-width="1.395"/>
            <line x1="104.497" y1="203.009" x2="221.982" y2="297.831" fill="none" stroke="#f4af13" stroke-miterlimit="10" stroke-width="1.395"/>
            <line x1="114.988" y1="199.283" x2="234.978" y2="292.166" fill="none" stroke="#f4af13" stroke-miterlimit="10" stroke-width="1.395"/>
            <line x1="125.48" y1="195.557" x2="247.974" y2="286.502" fill="none" stroke="#f4af13" stroke-miterlimit="10" stroke-width="1.395"/>
            <line x1="135.971" y1="191.831" x2="260.97" y2="280.837" fill="none" stroke="#f4af13" stroke-miterlimit="10" stroke-width="1.395"/>
            <line x1="146.462" y1="188.106" x2="273.966" y2="275.173" fill="none" stroke="#f4af13" stroke-miterlimit="10" stroke-width="1.395"/>
            <line x1="156.954" y1="184.38" x2="286.962" y2="269.508" fill="none" stroke="#f4af13" stroke-miterlimit="10" stroke-width="1.395"/>
            <line x1="167.445" y1="180.654" x2="299.958" y2="263.843" fill="none" stroke="#f4af13" stroke-miterlimit="10" stroke-width="1.395"/>
            <line x1="177.936" y1="176.928" x2="312.954" y2="258.179" fill="none" stroke="#f4af13" stroke-miterlimit="10" stroke-width="1.395"/>
            <line x1="188.428" y1="173.202" x2="325.95" y2="252.514" fill="none" stroke="#f4af13" stroke-miterlimit="10" stroke-width="1.395"/>
            <line x1="198.919" y1="169.477" x2="338.946" y2="246.85" fill="none" stroke="#f4af13" stroke-miterlimit="10" stroke-width="1.395"/>
            <line x1="209.41" y1="165.751" x2="351.943" y2="241.185" fill="none" stroke="#f4af13" stroke-miterlimit="10" stroke-width="1.395"/>
            <line x1="219.902" y1="162.025" x2="364.939" y2="235.52" fill="none" stroke="#f4af13" stroke-miterlimit="10" stroke-width="1.395"/>
            <line x1="230.393" y1="158.299" x2="377.935" y2="229.856" fill="none" stroke="#f4af13" stroke-miterlimit="10" stroke-width="1.395"/>
            <line x1="240.884" y1="154.573" x2="390.931" y2="224.191" fill="none" stroke="#f4af13" stroke-miterlimit="10" stroke-width="1.395"/>
          </g>
          <polygon points="333.137 136.327 328.35 120.272 5.539 173.719 20.882 202.225 34.717 227.93 340.259 160.215 333.137 136.327" fill="#fff"/>
          <polyline points="20.882 202.225 34.717 227.93 340.259 160.215 333.137 136.327 20.882 202.225" fill="#6498d1" mix-blend-mode="multiply" opacity=".25"/>
          <g>
            <path d="M271.708,136.277c-1.509-2.118-4.435-3.106-6.919-2.336l-1.623.451c-6.414.474-12.717,2.403-18.297,5.6-.696.399-1.462.946-1.499,1.747-.047,1.026,1.103,1.655,2.097,1.91,3.252.831,6.686.388,9.981-.248,5.055-.976,10.025-2.398,14.831-4.244.869-.334,1.885-.898,1.862-1.828-.009-.385-.21-.738-.433-1.052Z" fill="#9bc8ec"/>
            <path d="M263.99,114.607l-12.333,1.795c2.868,2.873,4.429,6.88,4.832,10.919.403,4.039-.281,8.123-1.416,12.02,2.291.541,4.71.533,6.997-.021.683-.166,1.394-.405,1.845-.944.444-.532.556-1.258.642-1.945.9-7.249.708-14.632-.567-21.824Z" fill="#6498d1"/>
            <path d="M295.362,102.022c-17.848,3.473-35.649,7.185-53.397,11.133-3.745.833-9.369,1.547-9.369,5.769s43.908-2.358,65.338-7.599l-2.572-9.303Z" fill="#9bc8ec"/>
          </g>
        </g>
        <g filter="url(#d)">
          <g>
            <path d="M201.311,155.725c-1.123-9.524-2.246-19.048-3.369-28.572-19.636,4.099-39.298,8.076-58.983,11.932-14.16,2.773-28.413,5.493-42.838,5.815l-4.994,4.777c.956,6.001,1.913,12.002,2.869,18.003.22,1.379.456,2.803,1.212,3.977.969,1.505,2.647,2.381,4.283,3.108,17.719,7.869,38.168,5.607,57.198,1.897,14.793-2.884,29.818-6.725,42.145-15.396.94-.661,1.905-1.404,2.33-2.472.383-.962.268-2.04.147-3.069Z" fill="#42496f"/>
            <g clip-path="url(#f)">
              <path d="M200.452,128.663s7.189,6.186-13.542,24.911c-17.042,15.393-55.84,32.769-93.959,20.23l-4.514-25.747,112.015-19.394Z" fill="#6498d1" mix-blend-mode="multiply" opacity=".5"/>
            </g>
            <path d="M219.934,113.867c.848-6.697-2.152-8.549-5.589-10.619-13.207-7.952-29.798-6.955-45.063-4.799-18.556,2.621-36.923,6.578-54.912,11.831-17.462,5.099-36.39,13.066-43.485,29.816-1.196,2.824-1.918,6.326-.063,8.769,1.025,1.349,2.646,2.091,4.229,2.695,5.814,2.221,11.999,3.304,18.177,4.06,31.077,3.803,63.812,1.045,92.066-12.443,34.014-16.238,34.641-29.31,34.641-29.31Z" fill="#fff"/>
            <g clip-path="url(#g)">
              <path d="M77.037,154.872c-14.812-4.217-21.212-22.036-2.557-16.403,17.739,5.356,20.943,7.132,59.265,2.566,17.068-2.034,54.837-20.397,82.009-27.897,11.823-3.264-32.338,72.017-138.717,41.734Z" fill="#6498d1" mix-blend-mode="multiply" opacity=".25"/>
              <g mix-blend-mode="multiply" opacity=".25">
                <path d="M164.843,112.398c2.079-3.716,4.231-7.842,3.411-12.021s-6.321-7.411-9.479-4.555c1.887-4.665-1.065-10.652-5.914-11.996-4.85-1.344-10.461,2.269-11.245,7.241l-1.226.452c1.593-3.27-1.172-7.469-4.739-8.178-3.567-.71-7.233,1.323-9.493,4.172-1.946,2.453-3.058,5.43-4.028,8.424-.189-1.433-1.923-2.882-3.542-2.574-2.197.418-3.593,2.538-4.663,4.503-1.605,2.947-3.09,6.099-3.158,9.454-.068,3.355,1.639,6.958,4.78,8.14-1.742,1.67-3.088,3.814-3.534,6.186-.575,3.061.591,6.535,3.244,8.167,2.019,1.242,4.829,1.061,6.671-.321-1.339,2.385-.953,5.778.968,7.861,2.427,2.631,6.504,3.253,9.942,2.257s6.322-3.355,8.775-5.962c-1.202,2.496.388,5.67,2.844,6.952,2.456,1.282,5.439,1.053,8.104.297,7.112-2.017,13.391-8.638,12.712-15.999-.125-1.358-.997-3.048-2.325-2.741,2.189-.241,4.121-2.019,4.541-4.182.42-2.162-.705-4.535-2.645-5.578Z" fill="#6498d1"/>
              </g>
            </g>
            <path d="M166.14,107.212c2.079-3.716,4.231-7.842,3.411-12.021s-6.321-7.411-9.479-4.555c1.887-4.665-1.065-10.652-5.914-11.996s-10.461,2.269-11.245,7.241l-1.226.452c1.593-3.27-1.172-7.469-4.739-8.178-3.567-.71-7.233,1.323-9.493,4.172-1.946,2.453-3.058,5.43-4.028,8.424-.189-1.433-1.923-2.882-3.542-2.574-2.197.418-3.593,2.538-4.663,4.503-1.605,2.947-3.09,6.099-3.158,9.454-.068,3.355,1.639,6.958,4.78,8.14-1.742,1.67-3.088,3.814-3.534,6.186-.575,3.061.591,6.535,3.244,8.167,2.019,1.242,4.829,1.061,6.671-.321-1.339,2.385-.953,5.778.968,7.861,2.427,2.631,6.504,3.253,9.942,2.257,3.438-.995,6.322-3.355,8.775-5.962-1.202,2.496.388,5.67,2.844,6.952,2.456,1.282,5.439,1.053,8.104.297,7.112-2.017,13.391-8.638,12.712-15.999-.125-1.358-.997-3.048-2.325-2.741,2.189-.241,4.121-2.019,4.541-4.182.42-2.162-.705-4.535-2.645-5.578Z" fill="#e86170"/>
          </g>
          <g>
            <g>
              <path d="M68.696,252.746c29.759-25.28,68.396-42.251,107.436-42.989,11.341-.214,22.707,3.061,34.018,2.209,11.311-.852,22.825-3.634,31.909-10.427,4.151-3.104,7.901-7.409,8.322-12.576.465-5.706-3.425-11.132-8.47-13.837-5.045-2.706-11.017-3.113-16.727-2.693-14.664,1.08-28.431,12.504-42.65,16.249-28.702,7.559-58.912.246-88.538,2.058-29.625,1.811-60.867,8.375-82.133,29.079" fill="none" stroke="#efa78e" stroke-miterlimit="10" stroke-width="10.35"/>
              <g clip-path="url(#h)">
                <g>
                  <g clip-path="url(#i)">
                    <line x1="67.921" y1="265.028" x2="69.999" y2="240.069" fill="none" stroke="#e86170" stroke-miterlimit="10" stroke-width="1.5"/>
                  </g>
                  <g clip-path="url(#j)">
                    <polyline points="78.787 255.674 80.757 243.31 82.814 230.955" fill="none" stroke="#e86170" stroke-miterlimit="10" stroke-width="1.5"/>
                  </g>
                  <g clip-path="url(#k)">
                    <polyline points="90.583 247.034 93.537 234.866 96.579 222.717" fill="none" stroke="#e86170" stroke-miterlimit="10" stroke-width="1.5"/>
                  </g>
                  <g clip-path="url(#l)">
                    <polyline points="103.021 239.369 106.958 227.483 110.981 215.622" fill="none" stroke="#e86170" stroke-miterlimit="10" stroke-width="1.5"/>
                  </g>
                  <g clip-path="url(#m)">
                    <polyline points="116.018 232.75 120.944 221.238 125.958 209.761" fill="none" stroke="#e86170" stroke-miterlimit="10" stroke-width="1.5"/>
                  </g>
                  <g clip-path="url(#n)">
                    <polyline points="129.492 227.257 135.418 216.228 141.433 205.242" fill="none" stroke="#e86170" stroke-miterlimit="10" stroke-width="1.5"/>
                  </g>
                  <g clip-path="url(#o)">
                    <polyline points="143.354 222.985 150.29 212.562 157.317 202.194" fill="none" stroke="#e86170" stroke-miterlimit="10" stroke-width="1.5"/>
                  </g>
                  <g clip-path="url(#p)">
                    <polyline points="157.502 220.036 165.448 210.361 173.486 200.755" fill="none" stroke="#e86170" stroke-miterlimit="10" stroke-width="1.5"/>
                  </g>
                  <g clip-path="url(#q)">
                    <polyline points="171.522 218.305 180.749 209.846 190.125 201.539" fill="none" stroke="#e86170" stroke-miterlimit="10" stroke-width="1.5"/>
                  </g>
                  <g clip-path="url(#r)">
                    <polyline points="186.178 219.221 195.984 211.43 205.737 203.579" fill="none" stroke="#e86170" stroke-miterlimit="10" stroke-width="1.5"/>
                  </g>
                  <g clip-path="url(#s)">
                    <polyline points="203.15 221.407 211.274 211.872 219.262 202.233" fill="none" stroke="#e86170" stroke-miterlimit="10" stroke-width="1.5"/>
                  </g>
                  <g clip-path="url(#t)">
                    <polyline points="220.203 220.086 226.331 209.158 232.216 198.111" fill="none" stroke="#e86170" stroke-miterlimit="10" stroke-width="1.5"/>
                  </g>
                  <g clip-path="url(#u)">
                    <polyline points="237.582 215.08 240.222 202.831 242.475 190.52" fill="none" stroke="#e86170" stroke-miterlimit="10" stroke-width="1.5"/>
                  </g>
                  <g clip-path="url(#v)">
                    <path d="M255.412,202.651c-1.836-3.762-3.604-7.502-5.495-11.281-2.14-3.52-4.407-7.072-6.605-10.607" fill="none" stroke="#e86170" stroke-miterlimit="10" stroke-width="1.5"/>
                  </g>
                  <g clip-path="url(#w)">
                    <polyline points="257.909 177.481 245.367 177.591 232.91 178.658" fill="none" stroke="#e86170" stroke-miterlimit="10" stroke-width="1.5"/>
                  </g>
                  <g clip-path="url(#x)">
                    <polyline points="240.817 164.237 231.282 172.37 222.064 180.832" fill="none" stroke="#e86170" stroke-miterlimit="10" stroke-width="1.5"/>
                  </g>
                  <g clip-path="url(#y)">
                    <polyline points="222.056 163.219 216.174 174.281 210.581 185.478" fill="none" stroke="#e86170" stroke-miterlimit="10" stroke-width="1.5"/>
                  </g>
                  <g clip-path="url(#z)">
                    <line x1="206.108" y1="168.488" x2="198.116" y2="192.224" fill="none" stroke="#e86170" stroke-miterlimit="10" stroke-width="1.5"/>
                  </g>
                  <g clip-path="url(#aa)">
                    <polyline points="193.169 175.303 188.227 186.804 183.058 198.215" fill="none" stroke="#e86170" stroke-miterlimit="10" stroke-width="1.5"/>
                  </g>
                  <g clip-path="url(#ab)">
                    <polyline points="180.672 180.403 173.413 190.603 166.02 200.714" fill="none" stroke="#e86170" stroke-miterlimit="10" stroke-width="1.5"/>
                  </g>
                  <g clip-path="url(#ac)">
                    <polyline points="166.641 182.836 158.171 192.057 149.621 201.21" fill="none" stroke="#e86170" stroke-miterlimit="10" stroke-width="1.5"/>
                  </g>
                  <g clip-path="url(#ad)">
                    <line x1="152.019" y1="183.454" x2="133.731" y2="200.566" fill="none" stroke="#e86170" stroke-miterlimit="10" stroke-width="1.5"/>
                  </g>
                  <g clip-path="url(#ae)">
                    <line x1="136.886" y1="182.943" x2="118.219" y2="199.641" fill="none" stroke="#e86170" stroke-miterlimit="10" stroke-width="1.5"/>
                  </g>
                  <g clip-path="url(#af)">
                    <line x1="121.349" y1="182.014" x2="103.102" y2="199.17" fill="none" stroke="#e86170" stroke-miterlimit="10" stroke-width="1.5"/>
                  </g>
                  <g clip-path="url(#ag)">
                    <polyline points="105.44 181.41 96.922 190.592 88.484 199.843" fill="none" stroke="#e86170" stroke-miterlimit="10" stroke-width="1.5"/>
                  </g>
                  <g clip-path="url(#ah)">
                    <polyline points="89.506 182.036 81.65 191.79 73.853 201.587" fill="none" stroke="#e86170" stroke-miterlimit="10" stroke-width="1.5"/>
                  </g>
                  <g clip-path="url(#ai)">
                    <polyline points="73.579 183.712 66.499 194.043 59.501 204.425" fill="none" stroke="#e86170" stroke-miterlimit="10" stroke-width="1.5"/>
                  </g>
                  <g clip-path="url(#aj)">
                    <polyline points="57.619 186.651 51.611 197.641 45.716 208.686" fill="none" stroke="#e86170" stroke-miterlimit="10" stroke-width="1.5"/>
                  </g>
                  <g clip-path="url(#ak)">
                    <polyline points="41.784 191.259 37.24 202.931 32.848 214.655" fill="none" stroke="#e86170" stroke-miterlimit="10" stroke-width="1.5"/>
                  </g>
                  <g clip-path="url(#al)">
                    <polyline points="26.415 198.007 23.799 210.257 21.375 222.539" fill="none" stroke="#e86170" stroke-miterlimit="10" stroke-width="1.5"/>
                  </g>
                  <g clip-path="url(#am)">
                    <polyline points="12.393 207.057 12.114 219.578 11.945 232.098" fill="none" stroke="#e86170" stroke-miterlimit="10" stroke-width="1.5"/>
                  </g>
                </g>
                <g>
                  <path d="M158.221,203.547l-17.674,3.327s2.287,11.124,8.941,15.595l22.664-5.614s-12.06-7.07-13.931-13.307Z" fill="#42496f"/>
                  <path d="M168.721,185.458c6.342,1.352,23.392,7.693,29.11,8.941l17.258-11.852s-11.54-7.901-24.327-8.109l-22.04,11.02Z" fill="#42496f"/>
                  <path d="M235.466,164.873s-13.619,12.58-15.179,15.179l17.882,5.614s10.292-9.149,17.466-9.565c0,0-8.213-10.604-20.169-11.228Z" fill="#42496f"/>
                </g>
              </g>
            </g>
            <g clip-path="url(#an)">
              <g>
                <path d="M317.794,152.278c-30.263-1.38-60.91,8.318-84.87,26.856-9.114,7.051-17.241,15.289-26.108,22.647-8.867,7.359-18.706,13.939-29.842,16.897-6.074,1.613-12.815,2.04-18.408-.825-7.259-3.719-11.034-12.816-9.229-20.77,1.805-7.954,8.64-14.336,16.546-16.339,3.861-.978,7.904-1.01,11.873-.68,15.408,1.281,29.805,7.83,44.648,12.159,35.704,10.414,74.021,7.897,110.475.53" fill="none" stroke="#efa78e" stroke-miterlimit="10" stroke-width="11"/>
                <g clip-path="url(#ao)">
                  <g>
                    <g clip-path="url(#ap)">
                      <polyline points="310.727 143.056 302.515 152.514 294.405 162.052" fill="none" stroke="#e86170" stroke-miterlimit="10" stroke-width="1.5"/>
                    </g>
                    <g clip-path="url(#aq)">
                      <polyline points="294.415 144.207 287.374 154.566 280.442 164.992" fill="none" stroke="#e86170" stroke-miterlimit="10" stroke-width="1.5"/>
                    </g>
                    <g clip-path="url(#ar)">
                      <polyline points="278.365 147.266 272.574 158.372 266.899 169.532" fill="none" stroke="#e86170" stroke-miterlimit="10" stroke-width="1.5"/>
                    </g>
                    <g clip-path="url(#as)">
                      <polyline points="262.779 152.166 258.316 163.869 253.975 175.612" fill="none" stroke="#e86170" stroke-miterlimit="10" stroke-width="1.5"/>
                    </g>
                    <g clip-path="url(#at)">
                      <polyline points="247.853 158.846 244.799 170.993 241.873 183.166" fill="none" stroke="#e86170" stroke-miterlimit="10" stroke-width="1.5"/>
                    </g>
                    <g clip-path="url(#au)">
                      <polyline points="233.793 167.251 232.229 179.678 230.788 192.115" fill="none" stroke="#e86170" stroke-miterlimit="10" stroke-width="1.5"/>
                    </g>
                    <g clip-path="url(#av)">
                      <line x1="221.262" y1="177.11" x2="219.941" y2="202.12" fill="none" stroke="#e86170" stroke-miterlimit="10" stroke-width="1.5"/>
                    </g>
                    <g clip-path="url(#aw)">
                      <polyline points="210.113 187.288 209.191 199.775 208.192 212.26" fill="none" stroke="#e86170" stroke-miterlimit="10" stroke-width="1.5"/>
                    </g>
                    <g clip-path="url(#ax)">
                      <polyline points="199.412 196.815 197.102 209.119 194.62 221.397" fill="none" stroke="#e86170" stroke-miterlimit="10" stroke-width="1.5"/>
                    </g>
                    <g clip-path="url(#ay)">
                      <polyline points="188.419 204.819 183.693 216.41 178.708 227.904" fill="none" stroke="#e86170" stroke-miterlimit="10" stroke-width="1.5"/>
                    </g>
                    <g clip-path="url(#az)">
                      <polyline points="177.246 210.611 168.895 219.927 160.102 228.859" fill="none" stroke="#e86170" stroke-miterlimit="10" stroke-width="1.5"/>
                    </g>
                    <g clip-path="url(#ba)">
                      <polyline points="167.278 214.333 154.803 215.162 142.262 215.018" fill="none" stroke="#e86170" stroke-miterlimit="10" stroke-width="1.5"/>
                    </g>
                    <g clip-path="url(#bb)">
                      <polyline points="158.203 209.844 148.905 201.482 140.188 192.468" fill="none" stroke="#e86170" stroke-miterlimit="10" stroke-width="1.5"/>
                    </g>
                    <g clip-path="url(#bc)">
                      <polyline points="155.306 200.102 154.418 187.626 154.253 175.09" fill="none" stroke="#e86170" stroke-miterlimit="10" stroke-width="1.5"/>
                    </g>
                    <g clip-path="url(#bd)">
                      <polyline points="160.727 190.856 167.573 180.386 174.94 170.244" fill="none" stroke="#e86170" stroke-miterlimit="10" stroke-width="1.5"/>
                    </g>
                    <g clip-path="url(#be)">
                      <polyline points="172.754 188.154 182.788 180.669 192.955 173.351" fill="none" stroke="#e86170" stroke-miterlimit="10" stroke-width="1.5"/>
                    </g>
                    <g clip-path="url(#bf)">
                      <polyline points="186.64 190.143 197.652 184.185 208.711 178.306" fill="none" stroke="#e86170" stroke-miterlimit="10" stroke-width="1.5"/>
                    </g>
                    <g clip-path="url(#bg)">
                      <line x1="200.969" y1="194.522" x2="223.404" y2="183.389" fill="none" stroke="#e86170" stroke-miterlimit="10" stroke-width="1.5"/>
                    </g>
                    <g clip-path="url(#bh)">
                      <polyline points="215.956 199.721 226.788 193.433 237.564 187.058" fill="none" stroke="#e86170" stroke-miterlimit="10" stroke-width="1.5"/>
                    </g>
                    <g clip-path="url(#bi)">
                      <polyline points="231.521 203.855 241.735 196.607 251.891 189.284" fill="none" stroke="#e86170" stroke-miterlimit="10" stroke-width="1.5"/>
                    </g>
                    <g clip-path="url(#bj)">
                      <polyline points="247.321 206.542 256.903 198.477 266.427 190.35" fill="none" stroke="#e86170" stroke-miterlimit="10" stroke-width="1.5"/>
                    </g>
                    <g clip-path="url(#bk)">
                      <polyline points="263.206 207.912 272.171 199.167 281.081 190.369" fill="none" stroke="#e86170" stroke-miterlimit="10" stroke-width="1.5"/>
                    </g>
                    <g clip-path="url(#bl)">
                      <path d="M279.069,208.114c5.6-6.193,11.172-12.41,16.715-18.651" fill="none" stroke="#e86170" stroke-miterlimit="10" stroke-width="1.5"/>
                    </g>
                    <g clip-path="url(#bm)">
                      <line x1="294.879" y1="207.288" x2="310.53" y2="187.736" fill="none" stroke="#e86170" stroke-miterlimit="10" stroke-width="1.5"/>
                    </g>
                  </g>
                </g>
              </g>
              <g>
                <path d="M176.131,209.757l-8.505,5.631s18.95,4.726,30.318,10.578l19.728-22.069s-25.078-1.337-29.759-3.344c-.502,1.672-11.782,9.204-11.782,9.204Z" fill="#42496f"/>
                <polygon points="197.944 194.534 218.007 200.887 235.729 187.512 215.332 181.494 197.944 194.534" fill="#42496f"/>
                <path d="M158.154,199.55s-16.05,2.675-22.403,2.006l2.006-8.694,22.737-.334-2.341,7.022Z" fill="#42496f"/>
              </g>
            </g>
            <g clip-path="url(#bn)">
              <g>
                <path d="M317.794,152.278c-30.263-1.38-60.91,8.318-84.87,26.856-9.114,7.051-17.241,15.289-26.108,22.647-8.867,7.359-18.706,13.939-29.842,16.897-6.074,1.613-12.815,2.04-18.408-.825-7.259-3.719-11.034-12.816-9.229-20.77,1.805-7.954,8.64-14.336,16.546-16.339,3.861-.978,7.904-1.01,11.873-.68,15.408,1.281,29.805,7.83,44.648,12.159,35.704,10.414,74.021,7.897,110.475.53" fill="none" stroke="#efa78e" stroke-miterlimit="10" stroke-width="11"/>
                <g clip-path="url(#bo)">
                  <g>
                    <g clip-path="url(#bp)">
                      <polyline points="182.921 207.937 176.635 218.766 170.18 229.499" fill="none" stroke="#e86170" stroke-miterlimit="10" stroke-width="1.5"/>
                    </g>
                    <g clip-path="url(#bq)">
                      <polyline points="172.23 212.793 161.366 218.982 150.041 224.372" fill="none" stroke="#e86170" stroke-miterlimit="10" stroke-width="1.5"/>
                    </g>
                    <g clip-path="url(#br)">
                      <polyline points="161.942 212.995 150.303 208.424 138.974 203.045" fill="none" stroke="#e86170" stroke-miterlimit="10" stroke-width="1.5"/>
                    </g>
                    <g clip-path="url(#bs)">
                      <polyline points="155.365 204.666 150.749 193.045 146.918 181.105" fill="none" stroke="#e86170" stroke-miterlimit="10" stroke-width="1.5"/>
                    </g>
                    <g clip-path="url(#bt)">
                      <polyline points="157.917 194.066 161.853 182.195 166.493 170.547" fill="none" stroke="#e86170" stroke-miterlimit="10" stroke-width="1.5"/>
                    </g>
                    <g clip-path="url(#bu)">
                      <polyline points="167.952 188.294 177.359 180.035 186.956 171.984" fill="none" stroke="#e86170" stroke-miterlimit="10" stroke-width="1.5"/>
                    </g>
                    <g clip-path="url(#bv)">
                      <polyline points="182.125 189.174 192.923 182.838 203.794 176.616" fill="none" stroke="#e86170" stroke-miterlimit="10" stroke-width="1.5"/>
                    </g>
                    <g clip-path="url(#bw)">
                      <line x1="196.802" y1="193.111" x2="219.257" y2="182.018" fill="none" stroke="#e86170" stroke-miterlimit="10" stroke-width="1.5"/>
                    </g>
                    <g clip-path="url(#bx)">
                      <polyline points="212.125 198.45 223.106 192.425 234.029 186.307" fill="none" stroke="#e86170" stroke-miterlimit="10" stroke-width="1.5"/>
                    </g>
                    <g clip-path="url(#by)">
                      <polyline points="228.167 203.095 238.517 196.042 248.807 188.909" fill="none" stroke="#e86170" stroke-miterlimit="10" stroke-width="1.5"/>
                    </g>
                    <g clip-path="url(#bz)">
                      <polyline points="244.5 206.164 254.195 198.235 263.83 190.239" fill="none" stroke="#e86170" stroke-miterlimit="10" stroke-width="1.5"/>
                    </g>
                    <g clip-path="url(#ca)">
                      <polyline points="260.949 207.792 270.001 199.135 278.995 190.425" fill="none" stroke="#e86170" stroke-miterlimit="10" stroke-width="1.5"/>
                    </g>
                    <g clip-path="url(#cb)">
                      <polyline points="277.389 208.143 285.832 198.893 294.223 189.599" fill="none" stroke="#e86170" stroke-miterlimit="10" stroke-width="1.5"/>
                    </g>
                    <g clip-path="url(#cc)">
                      <line x1="293.775" y1="207.375" x2="309.498" y2="187.88" fill="none" stroke="#e86170" stroke-miterlimit="10" stroke-width="1.5"/>
                    </g>
                  </g>
                </g>
              </g>
              <g>
                <path d="M161.498,190.187l7.691-2.675,1.003-2.341s-19.394,0-25.412-2.675l-3.344,4.681,20.062,3.009Z" fill="#42496f"/>
                <path d="M252.447,190.856l-10.366,14.044,7.691,2.675s9.864-9.864,11.369-16.05l-8.694-.669Z" fill="#42496f"/>
                <path d="M247.766,190.522l-6.687-1.672s-7.858,10.198-13.709,12.372l7.356,3.009,13.041-13.709Z" fill="#42496f"/>
              </g>
            </g>
          </g>
        </g>
      </g>
    </g>
  </g>
</svg>