<?xml version="1.0" encoding="UTF-8"?><svg xmlns="http://www.w3.org/2000/svg" xmlns:xlink="http://www.w3.org/1999/xlink" viewBox="0 0 580 440.8"><defs><style>.cls-1{stroke:#d07b73;}.cls-1,.cls-2,.cls-3,.cls-4{fill:none;}.cls-1,.cls-2,.cls-4{stroke-linecap:round;stroke-linejoin:round;}.cls-5{fill:#ffcb57;}.cls-2{stroke:#cd4d35;}.cls-6{fill:#1d1061;}.cls-7{fill:#5cc6a0;}.cls-8{fill:#65447a;}.cls-9{fill:#db6b4c;}.cls-10{isolation:isolate;}.cls-4{stroke:#1d1061;}.cls-11{fill:#cd4d35;}.cls-12{mix-blend-mode:multiply;opacity:.1;}.cls-12,.cls-13{fill:url(#_40_10_ppp);}.cls-14{fill:#ff7461;opacity:.5;}.cls-15{fill:#dedede;}.cls-13{mix-blend-mode:overlay;opacity:.25;}.cls-16{clip-path:url(#clippath);}.cls-17{fill:#6a90c6;}</style><clipPath id="clippath"><rect class="cls-3" x="0" y="-490.8" width="580" height="440.8"/></clipPath><pattern id="_40_10_ppp" x="0" y="0" width="10" height="10" patternTransform="translate(750 -1644.56)" patternUnits="userSpaceOnUse" viewBox="0 0 10 10"><rect class="cls-3" width="10" height="10"/><circle class="cls-6" cx="8.95" cy="8.95" r="1.05"/><circle class="cls-6" cx="3.68" cy="8.95" r="1.05"/><path class="cls-6" d="M8.95,4.74c.58,0,1.05-.47,1.05-1.05s-.47-1.05-1.05-1.05-1.05.47-1.05,1.05.47,1.05,1.05,1.05Z"/><path class="cls-6" d="M3.68,4.74c.58,0,1.05-.47,1.05-1.05s-.47-1.05-1.05-1.05-1.05.47-1.05,1.05.47,1.05,1.05,1.05Z"/><path class="cls-6" d="M1.05,7.37c.58,0,1.05-.47,1.05-1.05s-.47-1.05-1.05-1.05S0,5.73,0,6.32s.47,1.05,1.05,1.05Z"/><circle class="cls-6" cx="6.32" cy="6.32" r="1.05"/><path class="cls-6" d="M1.05,2.11c.58,0,1.05-.47,1.05-1.05S1.63,0,1.05,0,0,.47,0,1.05s.47,1.05,1.05,1.05Z"/><circle class="cls-6" cx="6.32" cy="1.05" r="1.05"/></pattern></defs><g class="cls-10"><g id="BG"><g class="cls-16"><rect class="cls-15" x="-11.73" y="-106.44" width="643.14" height="167.84"/></g></g><g id="ZONE_2_garçons_corps"><ellipse class="cls-17" cx="296.1" cy="418.76" rx="61.3" ry="5.64"/><ellipse class="cls-12" cx="300.61" cy="420.81" rx="61.3" ry="5.64"/><path class="cls-6" d="M311.2,116.08c1.48-4.09,4.53-14.26.62-19.74-4.97-6.96-28.84-18.9-41.77-18.23-12.93.66,10.61,9.95,10.61,9.95,0,0-33.25-.16-42.1,14.59-1.99,3.32,15.58,0,15.58,0,0,0-15.91,6.96-17.9,10.28-1.99,3.32,9.95,3.32,9.95,3.32,0,0-8.3,3.93-7.88,5.98.3,1.49,5.51.65,5.51.65l2.92,31.71s9.39-12.48,6.67-34.1c18.58,3.24,42.94.31,53.46-1.78,1.59.3,2.61.54,2.61.54-.79,21.78,9.99,35.41,9.99,35.41l.02-35.33-8.28-3.23Z"/><path class="cls-6" d="M321.4,256.9c5.64-1.53,34.43-9.6,34.18-14.68-.25-5.1-23.78-27.45-28.18-31.59l1.17-1.75-23.94-18.17c-3.91.62-8.45.93-13.07,1.06v-11.15h0c12.87-.31,24.68-1.46,30.38-3.94.34-1.01.38-2.84.2-5.25,1.11.43,2.31.68,3.57.68,5.44,0,9.85-4.41,9.85-9.85s-4.41-9.85-9.85-9.85c-2.37,0-4.55.84-6.25,2.24-3.3-15.97-8.71-35.4-11.55-41.07-11.68-2.34-39.73-2.34-53.75,2.34-2.57,7.07-5.55,24.04-7.41,38.68-1.69-1.37-3.84-2.19-6.18-2.19-5.44,0-9.85,4.41-9.85,9.85s4.41,9.85,9.85,9.85c1.64,0,3.19-.41,4.55-1.12-.18,3.06-.22,5.5-.06,6.98,4.04,1.24,16.18,2.35,30.31,2.66h0v10.96c-7.62-.33-13.24-.87-13.24-.87l-23.94,18.17,1.15,1.73c-4.59,4.06-29.68,26.51-29.93,31.62-.25,5.07,29.98,13.15,35.89,14.68h0s1.78.82,4.37.36l.3,4.08,11.06,152.47,1.09.06-11.74,5.26h35.83v-3.98l.66.03-4.3-146.77c.71.01,1.44.02,2.2.02.45,0,.95-.02,1.41-.03l19.66,146.77.82-.04v3.99h35.83l-11.76-5.27.94-.05-14.19-156.5c2.24.28,3.75-.35,3.89-.42ZM251.51,228.44c-.89.03-1.6.13-1.98.34-1.14.64-2.05,5.29-2.7,10.17l-.31-.08s0,0-.01,0c0,0,0,0,0,0l-14.49-3.85s0-.06-.01-.08l14.59-13.47,1.3,1.95,5.68-5.14c-.75,3.42-1.43,6.85-2.05,10.17ZM317.22,228.76c-.41-.23-1.2-.33-2.2-.35-.78-3.82-1.57-7.36-2.34-10.61l6.2,5.61,1.3-1.95,4,3.7,10.61,9.82-14.87,3.97c-.66-4.89-1.56-9.55-2.7-10.19Z"/><circle class="cls-6" cx="242.67" cy="170.77" r="1.95"/><rect class="cls-5" x="277.05" y="175.93" width="16.17" height="24.84"/><path class="cls-6" d="M293.22,182.62v-6.69h-16.17v10.79c7.61-.05,13.08-2.33,16.17-4.1Z"/><circle class="cls-5" cx="327.24" cy="160.92" r="9.85"/><path class="cls-5" d="M255.7,114.58c14.02-4.67,42.07-4.67,53.75-2.34,4.67,9.35,16.36,56.09,14.02,63.1-14.28,6.21-67.73,4.1-76.87,1.29-.94-8.67,4.69-49.93,9.1-62.05Z"/><circle class="cls-14" cx="265.08" cy="161.51" r="3.33"/><circle class="cls-14" cx="305.09" cy="161.51" r="3.33"/><polygon class="cls-6" points="266.37 411.38 252.06 417.79 287.9 417.79 287.9 412.64 266.37 411.38"/><polygon class="cls-6" points="329.87 411.38 344.18 417.79 308.34 417.79 308.34 412.64 329.87 411.38"/><polygon class="cls-17" points="251.16 253.29 262.71 412.48 288.55 413.85 284.24 266.76 287.82 266.76 307.52 413.85 333.37 412.48 318.93 253.29 251.16 253.29"/><path class="cls-6" d="M318.93,253.29h-67.77l.49,6.72c23.82.21,60.7-3.09,67.56-3.73l-.27-2.99Z"/><path class="cls-4" d="M269.88,265.18s15.57,3.35,37.41-.48"/><path class="cls-5" d="M328.36,208.63s28.61,26.63,28.89,32.25c.27,5.62-35.14,14.93-35.14,14.93l-2.34-17.72,16.69-4.45-16.22-15.02,8.12-10Z"/><path class="cls-6" d="M330.45,210.6c-1.3-1.23-2.09-1.97-2.09-1.97l-8.12,10,5.61,5.19c2.4-3.86,3.85-9.51,4.6-13.23Z"/><polygon class="cls-11" points="306.29 189.37 330.24 207.54 320.55 222.07 310.71 213.16 306.29 189.37"/><path class="cls-1" d="M337.11,232.98s6.19-1.2,8.78,0"/><path class="cls-5" d="M241.74,208.63s-30.38,26.63-30.65,32.25c-.27,5.62,36.9,14.93,36.9,14.93l2.34-17.72-16.74-4.45,16.27-15.02-8.12-10Z"/><path class="cls-6" d="M244.74,223.36l5.12-4.73-8.12-10s-.5.44-1.37,1.21c.97,3.85,2.56,9.56,4.37,13.52Z"/><path class="cls-1" d="M233.12,233.65s-3.3-.83-5.84,0"/><polygon class="cls-11" points="263.81 189.37 239.86 207.54 249.55 222.07 259.39 213.16 263.81 189.37"/><path class="cls-13" d="M263.79,195.56s-15.39,9.88-20.64,14.89l6.38,10.38,11.26-8.76,3-16.51Z"/><path class="cls-9" d="M263.81,189.37s26.47,2.53,42.49,0c0,0,9.44,22.93,15,65.41h-72.32s5.21-46.22,14.83-65.41Z"/><path class="cls-5" d="M322.8,249.61s-1.41-20.78-3.91-22.19-18.29,1.56-18.59,5.16c-.16,1.87,12.97,1.87,12.97,1.87,0,0-11.09,1.71-11.09,4.37,0,1.41,11.56,1.56,11.56,1.56,0,0-.47,13.59,3.12,15,3.59,1.41,6.25.16,6.25.16l-.31-5.94Z"/><path class="cls-5" d="M247.29,249.63s1.41-20.78,3.91-22.19,18.29,1.56,18.59,5.16c.16,1.87-12.97,1.87-12.97,1.87,0,0,11.09,1.71,11.09,4.37,0,1.41-11.56,1.56-11.56,1.56,0,0,.47,13.59-3.12,15-3.59,1.41-6.25.16-6.25.16l.31-5.94Z"/><line class="cls-4" x1="273.74" y1="152.96" x2="273.74" y2="157.36"/><line class="cls-4" x1="296.52" y1="152.75" x2="296.52" y2="157.26"/><polyline class="cls-1" points="286.86 149.39 289.7 165.14 286.02 163.56"/><path class="cls-4" d="M292.32,140.57s5.98-6.51,13.54-1.85"/><path class="cls-4" d="M264.12,139.75s7.4-7.44,14.77,1.14"/><path class="cls-1" d="M276.16,167.97s9.24,7.66,21.41-.31"/><circle class="cls-5" cx="242.11" cy="160.92" r="9.85"/><line class="cls-1" x1="236.88" y1="157.18" x2="247.48" y2="160.21"/><line class="cls-1" x1="243.38" y1="159.29" x2="238.95" y2="164.27"/><line class="cls-1" x1="331.44" y1="157.18" x2="320.84" y2="160.21"/><line class="cls-1" x1="324.95" y1="159.29" x2="329.38" y2="164.27"/><path class="cls-2" d="M275.89,191.67s3.88,1.79,9.26,1.79"/><path class="cls-1" d="M248.07,238.1s-1.44,7.63-.21,14.02"/><path class="cls-1" d="M322.09,238.31s1.03,7.84.41,12.99"/><path class="cls-7" d="M245.36,121.54l2.92,31.71s9.39-12.48,6.67-34.1c21.29,3.71,50.17-.67,57.11-2.63,0,0,6.28-14.55,1.31-21.51-4.97-6.96-28.84-18.9-41.77-18.23-12.93.66,10.61,9.95,10.61,9.95,0,0-33.25-.16-42.1,14.59-1.99,3.32,15.58,0,15.58,0,0,0-15.91,6.96-17.9,10.28s9.95,3.32,9.95,3.32c0,0-8.3,3.93-7.88,5.98.3,1.49,5.51.65,5.51.65Z"/><path class="cls-7" d="M294.06,116.52c6.25-1.14,16.97,1.38,16.97,1.38-.79,21.78,9.99,35.41,9.99,35.41l.02-35.33-9.89-3.85-1.86-9.13c-3.82-1.1-6.62.83-11.17.58l-4.06,10.95Z"/><circle class="cls-8" cx="244.06" cy="169.33" r="1.95"/></g></g></svg>