<?xml version="1.0" encoding="UTF-8"?><svg xmlns="http://www.w3.org/2000/svg" xmlns:xlink="http://www.w3.org/1999/xlink" viewBox="0 0 75 75"><defs><style>.cls-1{fill:#ffcb57;}.cls-2,.cls-3{fill:#1d1061;}.cls-4,.cls-5{fill:none;}.cls-6{isolation:isolate;}.cls-5{stroke:#1d1061;stroke-linecap:round;stroke-linejoin:round;}.cls-7{fill:#ff7461;}.cls-3{mix-blend-mode:multiply;}.cls-3,.cls-8{opacity:.25;}.cls-9{fill:#dedede;}.cls-8{fill:url(#_40_10_ppp);mix-blend-mode:overlay;}.cls-10{clip-path:url(#clippath);}.cls-11{fill:#fdfdfd;}</style><clipPath id="clippath"><rect class="cls-4" x="1.32" y="36.06" width="65.44" height="24.85" rx="2.48" ry="2.48"/></clipPath><pattern id="_40_10_ppp" x="0" y="0" width="10" height="10" patternTransform="translate(-1318.14 -1349.62) scale(.83)" patternUnits="userSpaceOnUse" viewBox="0 0 10 10"><rect class="cls-4" width="10" height="10"/><circle class="cls-2" cx="8.95" cy="8.95" r="1.05"/><circle class="cls-2" cx="3.68" cy="8.95" r="1.05"/><path class="cls-2" d="M8.95,4.74c.58,0,1.05-.47,1.05-1.05s-.47-1.05-1.05-1.05-1.05.47-1.05,1.05.47,1.05,1.05,1.05Z"/><path class="cls-2" d="M3.68,4.74c.58,0,1.05-.47,1.05-1.05s-.47-1.05-1.05-1.05-1.05.47-1.05,1.05.47,1.05,1.05,1.05Z"/><path class="cls-2" d="M1.05,7.37c.58,0,1.05-.47,1.05-1.05s-.47-1.05-1.05-1.05S0,5.73,0,6.32s.47,1.05,1.05,1.05Z"/><circle class="cls-2" cx="6.32" cy="6.32" r="1.05"/><path class="cls-2" d="M1.05,2.11c.58,0,1.05-.47,1.05-1.05S1.63,0,1.05,0,0,.47,0,1.05s.47,1.05,1.05,1.05Z"/><circle class="cls-2" cx="6.32" cy="1.05" r="1.05"/></pattern></defs><g class="cls-6"><g id="Calque_1"><rect class="cls-1" x="1.32" y="36.06" width="65.44" height="24.85" rx="2.48" ry="2.48"/><line class="cls-5" x1="2.32" y1="42.96" x2="65.8" y2="42.96"/><g class="cls-10"><circle class="cls-7" cx="66.75" cy="60.91" r="4.14"/><circle class="cls-7" cx="1.32" cy="60.91" r="4.14"/><circle class="cls-7" cx="1.32" cy="36.06" r="4.14"/><circle class="cls-7" cx="66.75" cy="36.06" r="4.14"/><circle class="cls-7" cx="40.47" cy="36.06" r="4.14"/><circle class="cls-7" cx="40.47" cy="60.91" r="4.14"/><path class="cls-3" d="M42.96,36.06h25.57v24.85h-25.57c-1.37,0-2.48-1.11-2.48-2.48v-19.88c0-1.37,1.11-2.48,2.48-2.48Z"/></g><rect class="cls-11" x="18.25" y="39.44" width="5.29" height="7.05"/><rect class="cls-9" x="22.36" y="39.44" width="1.18" height="7.05"/><rect class="cls-5" x="18.25" y="39.44" width="5.29" height="7.05"/><line class="cls-5" x1="18.2" y1="42.96" x2="21.42" y2="42.96"/><rect class="cls-8" x="41.3" y="36.89" width="26.28" height="24.85" rx="2.48" ry="2.48"/></g></g></svg>