<?xml version="1.0" encoding="UTF-8"?><svg xmlns="http://www.w3.org/2000/svg" xmlns:xlink="http://www.w3.org/1999/xlink" viewBox="0 0 75 75"><defs><style>.cls-1{fill:#ffcb57;}.cls-2,.cls-3,.cls-4{fill:#1d1061;}.cls-5,.cls-6{fill:none;}.cls-7{clip-path:url(#clippath-1);}.cls-8{isolation:isolate;}.cls-6{stroke:#1d1061;stroke-linecap:round;stroke-linejoin:round;}.cls-9{fill:#ff7461;}.cls-3,.cls-10{opacity:.25;}.cls-3,.cls-4{mix-blend-mode:multiply;}.cls-11{fill:#dedede;}.cls-10{fill:url(#_40_10_ppp);mix-blend-mode:overlay;}.cls-4{opacity:.5;}.cls-12{clip-path:url(#clippath);}.cls-13{fill:#fdfdfd;}</style><clipPath id="clippath"><path class="cls-5" d="M39.17,5.97h22.97c1.37,0,2.48,1.11,2.48,2.48v43.57h-26.69c-.69,0-1.24-.56-1.24-1.24V8.45c0-1.37,1.11-2.48,2.48-2.48Z" transform="translate(79.65 -21.66) rotate(90)"/></clipPath><pattern id="_40_10_ppp" x="0" y="0" width="10" height="10" patternTransform="translate(-1309.86 -1349.62) scale(.83)" patternUnits="userSpaceOnUse" viewBox="0 0 10 10"><rect class="cls-5" width="10" height="10"/><circle class="cls-2" cx="8.95" cy="8.95" r="1.05"/><circle class="cls-2" cx="3.68" cy="8.95" r="1.05"/><path class="cls-2" d="M8.95,4.74c.58,0,1.05-.47,1.05-1.05s-.47-1.05-1.05-1.05-1.05.47-1.05,1.05.47,1.05,1.05,1.05Z"/><path class="cls-2" d="M3.68,4.74c.58,0,1.05-.47,1.05-1.05s-.47-1.05-1.05-1.05-1.05.47-1.05,1.05.47,1.05,1.05,1.05Z"/><path class="cls-2" d="M1.05,7.37c.58,0,1.05-.47,1.05-1.05s-.47-1.05-1.05-1.05S0,5.73,0,6.32s.47,1.05,1.05,1.05Z"/><circle class="cls-2" cx="6.32" cy="6.32" r="1.05"/><path class="cls-2" d="M1.05,2.11c.58,0,1.05-.47,1.05-1.05S1.63,0,1.05,0,0,.47,0,1.05s.47,1.05,1.05,1.05Z"/><circle class="cls-2" cx="6.32" cy="1.05" r="1.05"/></pattern><clipPath id="clippath-1"><path class="cls-5" d="M1.32,42.96h65.44v15.46c0,1.37-1.11,2.48-2.48,2.48H3.8c-1.37,0-2.48-1.11-2.48-2.48v-15.46h0Z"/></clipPath></defs><g class="cls-8"><g id="Calque_1"><rect class="cls-13" x="44.55" y="13.26" width="5.29" height="3.53"/><rect class="cls-11" x="48.66" y="13.26" width="1.18" height="3.53"/><rect class="cls-6" x="44.55" y="13.26" width="5.29" height="3.53"/><path class="cls-1" d="M39.17,5.97h22.97c1.37,0,2.48,1.11,2.48,2.48v43.57h-26.69c-.69,0-1.24-.56-1.24-1.24V8.45c0-1.37,1.11-2.48,2.48-2.48Z" transform="translate(79.65 -21.66) rotate(90)"/><g class="cls-12"><path class="cls-4" d="M66.75,42.96V15.03H28.87c-.64,0-1.24.49-1.24,1.24,0,1.7,0,26.69,0,26.69h39.12Z"/><circle class="cls-9" cx="73.68" cy="42.96" r="4.14"/><circle class="cls-9" cx="73.68" cy="16.68" r="4.14"/><path class="cls-3" d="M58.69,27.26h25.57v6.91h-28.06v-4.42c0-1.37,1.11-2.48,2.48-2.48Z" transform="translate(100.94 -39.52) rotate(90)"/><path class="cls-3" d="M19.54,27.26h25.57v6.91h-28.06v-4.42c0-1.37,1.11-2.48,2.48-2.48Z" transform="translate(61.8 -.37) rotate(90)"/></g><path class="cls-10" d="M70.37,17.51H26.8v26.28h43.57c1.37,0,2.48-1.11,2.48-2.48v-21.31c0-1.37-1.11-2.48-2.48-2.48Z"/><line class="cls-6" x1="66.78" y1="16.03" x2="66.78" y2="42.01"/><path class="cls-6" d="M33.99,15.75c.45.45.73,1.07.73,1.76v23.94"/><path class="cls-1" d="M1.32,42.96h65.44v15.46c0,1.37-1.11,2.48-2.48,2.48H3.8c-1.37,0-2.48-1.11-2.48-2.48v-15.46h0Z"/><line class="cls-6" x1="2.32" y1="42.96" x2="65.8" y2="42.96"/><g class="cls-7"><circle class="cls-9" cx="66.75" cy="60.91" r="4.14"/><circle class="cls-9" cx="1.32" cy="60.91" r="4.14"/><circle class="cls-9" cx="40.47" cy="60.91" r="4.14"/><path class="cls-3" d="M42.96,36.06h25.57v24.85h-25.57c-1.37,0-2.48-1.11-2.48-2.48v-19.88c0-1.37,1.11-2.48,2.48-2.48Z"/></g><rect class="cls-13" x="18.25" y="42.96" width="5.29" height="3.53"/><rect class="cls-11" x="22.36" y="42.96" width="1.18" height="3.53"/><rect class="cls-6" x="18.25" y="42.96" width="5.29" height="3.53"/><path class="cls-10" d="M67.58,59.25v-15.46h-26.28v15.46c0,1.37,1.11,2.48,2.48,2.48h21.31c1.37,0,2.48-1.11,2.48-2.48Z"/></g></g></svg>