<?xml version="1.0" encoding="UTF-8"?><svg xmlns="http://www.w3.org/2000/svg" xmlns:xlink="http://www.w3.org/1999/xlink" viewBox="0 0 300 300"><defs><style>.cls-1{fill:#282659;}.cls-2{fill:none;}.cls-3{isolation:isolate;}.cls-4{fill:url(#_40_10_ppp_4);mix-blend-mode:multiply;opacity:.05;}.cls-5{fill:url(#Dégradé_sans_nom_21);}.cls-6{clip-path:url(#clippath);}.cls-7{fill:#fdfdfd;}.cls-8{fill:#6a90c6;}</style><clipPath id="clippath"><rect class="cls-2" x="10" y="10" width="280" height="280" rx="20" ry="20"/></clipPath><pattern id="_40_10_ppp_4" x="0" y="0" width="11.34" height="11.34" patternTransform="translate(8168.85 8959.68) scale(2)" patternUnits="userSpaceOnUse" viewBox="0 0 11.34 11.34"><rect class="cls-2" x="0" width="11.34" height="11.34"/><circle class="cls-1" cx="9.7" cy="9.69" r="1.2"/><circle class="cls-1" cx="4.03" cy="9.69" r="1.2"/><path class="cls-1" d="M9.7,5.22c.66,0,1.2-.54,1.2-1.2s-.54-1.2-1.2-1.2-1.2.54-1.2,1.2.54,1.2,1.2,1.2Z"/><path class="cls-1" d="M4.03,5.22c.66,0,1.2-.54,1.2-1.2s-.54-1.2-1.2-1.2-1.2.54-1.2,1.2.54,1.2,1.2,1.2Z"/><path class="cls-1" d="M1.2,8.06c.66,0,1.2-.54,1.2-1.2s-.54-1.2-1.2-1.2S0,6.2,0,6.86s.54,1.2,1.2,1.2Z"/><circle class="cls-1" cx="6.86" cy="6.86" r="1.2"/><path class="cls-1" d="M1.2,2.39c.66,0,1.2-.54,1.2-1.2S1.86,0,1.2,0,0,.54,0,1.2s.54,1.2,1.2,1.2Z"/><circle class="cls-1" cx="6.86" cy="1.2" r="1.2"/></pattern><linearGradient id="Dégradé_sans_nom_21" x1="150" y1="300" x2="150" y2="8.88" gradientUnits="userSpaceOnUse"><stop offset="0" stop-color="#6a90c6" stop-opacity="0"/><stop offset="1" stop-color="#1d1061"/></linearGradient></defs><g class="cls-3"><g id="Calque_25"><rect class="cls-8" x="10" y="10" width="280" height="280" rx="20" ry="20"/><g class="cls-6"><rect class="cls-4" y="0" width="300" height="300"/><rect class="cls-5" x="0" y="0" width="300" height="300"/></g><path class="cls-7" d="M145.2,173.9c-5.8,0-10-4.4-10.8-9.8l-2-13.6c-1-6.6,2.8-11.2,9.2-12,17.4-2.2,25.4-7.6,25.4-17.4v-.4c0-9-6.8-14.2-18.4-14.2-8.6,0-16,2.6-23.2,8-2.4,1.8-5.6,3.2-9,3.2-7.6,0-14-6.4-14-14,0-3.8,1.6-7.8,5.2-10.8,10.6-8.8,24-14.4,41.6-14.4,28.8,0,48.4,14.8,48.4,41.4v.4c0,25.4-17.6,35.8-39.4,40.2l-.6,3.6c-.8,5.2-5,9.8-10.8,9.8h-1.6ZM145.2,187.1c10,0,17.4,7.4,17.4,17v.4c0,9.6-7.4,17-17.4,17s-17.4-7.4-17.4-17v-.4c0-9.6,7.4-17,17.4-17Z"/></g></g></svg>