avatar_exo_en cours.svg<?xml version="1.0" encoding="UTF-8"?><svg xmlns="http://www.w3.org/2000/svg" xmlns:xlink="http://www.w3.org/1999/xlink" viewBox="0 0 97 97"><defs><style>.cls-1{fill:#282659;}.cls-2{fill:none;}.cls-3{isolation:isolate;}.cls-4{fill:url(#_40_10_ppp_4);mix-blend-mode:multiply;opacity:.05;}.cls-5{fill:url(#Dégradé_sans_nom_21);}.cls-6{clip-path:url(#clippath);}.cls-7{fill:#fdfdfd;}.cls-8{fill:#6a90c6;}</style><clipPath id="clippath"><rect class="cls-2" x="3.5" y="3.5" width="90" height="90" rx="6.43" ry="6.43"/></clipPath><pattern id="_40_10_ppp_4" x="0" y="0" width="11.34" height="11.34" patternTransform="translate(-2884.56 -2521.03) scale(.64)" patternUnits="userSpaceOnUse" viewBox="0 0 11.34 11.34"><rect class="cls-2" x="0" width="11.34" height="11.34"/><circle class="cls-1" cx="9.7" cy="9.69" r="1.2"/><circle class="cls-1" cx="4.03" cy="9.69" r="1.2"/><path class="cls-1" d="M9.7,5.22c.66,0,1.2-.54,1.2-1.2s-.54-1.2-1.2-1.2-1.2.54-1.2,1.2.54,1.2,1.2,1.2Z"/><path class="cls-1" d="M4.03,5.22c.66,0,1.2-.54,1.2-1.2s-.54-1.2-1.2-1.2-1.2.54-1.2,1.2.54,1.2,1.2,1.2Z"/><path class="cls-1" d="M1.2,8.06c.66,0,1.2-.54,1.2-1.2s-.54-1.2-1.2-1.2S0,6.2,0,6.86s.54,1.2,1.2,1.2Z"/><circle class="cls-1" cx="6.86" cy="6.86" r="1.2"/><path class="cls-1" d="M1.2,2.39c.66,0,1.2-.54,1.2-1.2S1.86,0,1.2,0,0,.54,0,1.2s.54,1.2,1.2,1.2Z"/><circle class="cls-1" cx="6.86" cy="1.2" r="1.2"/></pattern><linearGradient id="Dégradé_sans_nom_21" x1="48.5" y1="96.71" x2="48.5" y2="3.14" gradientUnits="userSpaceOnUse"><stop offset="0" stop-color="#6a90c6" stop-opacity="0"/><stop offset="1" stop-color="#1d1061"/></linearGradient></defs><g class="cls-3"><g id="Calque_1"><rect class="cls-8" x="3.5" y="3.5" width="90" height="90" rx="6.43" ry="6.43"/><g class="cls-6"><rect class="cls-4" x=".29" y=".29" width="96.43" height="96.43"/><rect class="cls-5" x=".29" y=".29" width="96.43" height="96.43"/></g><path class="cls-7" d="M46.96,56.18c-1.86,0-3.21-1.41-3.47-3.15l-.64-4.37c-.32-2.12.9-3.6,2.96-3.86,5.59-.71,8.16-2.44,8.16-5.59v-.13c0-2.89-2.19-4.56-5.91-4.56-2.76,0-5.14.84-7.46,2.57-.77.58-1.8,1.03-2.89,1.03-2.44,0-4.5-2.06-4.5-4.5,0-1.22.51-2.51,1.67-3.47,3.41-2.83,7.71-4.63,13.37-4.63,9.26,0,15.56,4.76,15.56,13.31v.13c0,8.16-5.66,11.51-12.66,12.92l-.19,1.16c-.26,1.67-1.61,3.15-3.47,3.15h-.51ZM46.96,60.43c3.21,0,5.59,2.38,5.59,5.46v.13c0,3.09-2.38,5.46-5.59,5.46s-5.59-2.38-5.59-5.46v-.13c0-3.09,2.38-5.46,5.59-5.46Z"/></g></g></svg>