<?xml version="1.0" encoding="UTF-8"?><svg xmlns="http://www.w3.org/2000/svg" xmlns:xlink="http://www.w3.org/1999/xlink" viewBox="0 0 97 97"><defs><style>.cls-1{stroke:#d07b73;}.cls-1,.cls-2,.cls-3,.cls-4{fill:none;}.cls-1,.cls-2,.cls-4{stroke-linecap:round;stroke-linejoin:round;}.cls-5{fill:#ffcb57;}.cls-2{stroke:#cd4d35;}.cls-6{fill:#282659;}.cls-7{fill:#1d1061;}.cls-8{fill:#5cc6a0;}.cls-9{fill:#65447a;}.cls-10{clip-path:url(#clippath-1);}.cls-11{fill:#db6b4c;}.cls-12{isolation:isolate;}.cls-4{stroke:#1d1061;}.cls-13{fill:#cd4d35;}.cls-14{fill:url(#_40_10_ppp_4);mix-blend-mode:multiply;opacity:.05;}.cls-15{fill:url(#Dégradé_sans_nom_21);}.cls-16{fill:#ff7461;opacity:.5;}.cls-17{fill:url(#_40_10_ppp);mix-blend-mode:overlay;opacity:.25;}.cls-18{clip-path:url(#clippath);}.cls-19{fill:#6a90c6;}</style><clipPath id="clippath"><rect class="cls-3" x="3.5" y="3.5" width="90" height="90" rx="6.43" ry="6.43"/></clipPath><pattern id="_40_10_ppp_4" x="0" y="0" width="11.34" height="11.34" patternTransform="translate(-2541.98 -2513.74) scale(.64)" patternUnits="userSpaceOnUse" viewBox="0 0 11.34 11.34"><rect class="cls-3" x="0" width="11.34" height="11.34"/><circle class="cls-6" cx="9.7" cy="9.69" r="1.2"/><circle class="cls-6" cx="4.03" cy="9.69" r="1.2"/><path class="cls-6" d="M9.7,5.22c.66,0,1.2-.54,1.2-1.2s-.54-1.2-1.2-1.2-1.2.54-1.2,1.2.54,1.2,1.2,1.2Z"/><path class="cls-6" d="M4.03,5.22c.66,0,1.2-.54,1.2-1.2s-.54-1.2-1.2-1.2-1.2.54-1.2,1.2.54,1.2,1.2,1.2Z"/><path class="cls-6" d="M1.2,8.06c.66,0,1.2-.54,1.2-1.2s-.54-1.2-1.2-1.2S0,6.2,0,6.86s.54,1.2,1.2,1.2Z"/><circle class="cls-6" cx="6.86" cy="6.86" r="1.2"/><path class="cls-6" d="M1.2,2.39c.66,0,1.2-.54,1.2-1.2S1.86,0,1.2,0,0,.54,0,1.2s.54,1.2,1.2,1.2Z"/><circle class="cls-6" cx="6.86" cy="1.2" r="1.2"/></pattern><linearGradient id="Dégradé_sans_nom_21" x1="48.5" y1="96.71" x2="48.5" y2="3.14" gradientUnits="userSpaceOnUse"><stop offset="0" stop-color="#6a90c6" stop-opacity="0"/><stop offset="1" stop-color="#1d1061"/></linearGradient><clipPath id="clippath-1"><rect class="cls-3" width="97" height="97"/></clipPath><pattern id="_40_10_ppp" x="0" y="0" width="10" height="10" patternTransform="translate(-2809.51 -2842.34) scale(.65)" patternUnits="userSpaceOnUse" viewBox="0 0 10 10"><rect class="cls-3" width="10" height="10"/><circle class="cls-7" cx="8.95" cy="8.95" r="1.05"/><circle class="cls-7" cx="3.68" cy="8.95" r="1.05"/><path class="cls-7" d="M8.95,4.74c.58,0,1.05-.47,1.05-1.05s-.47-1.05-1.05-1.05-1.05.47-1.05,1.05.47,1.05,1.05,1.05Z"/><path class="cls-7" d="M3.68,4.74c.58,0,1.05-.47,1.05-1.05s-.47-1.05-1.05-1.05-1.05.47-1.05,1.05.47,1.05,1.05,1.05Z"/><path class="cls-7" d="M1.05,7.37c.58,0,1.05-.47,1.05-1.05s-.47-1.05-1.05-1.05S0,5.73,0,6.32s.47,1.05,1.05,1.05Z"/><circle class="cls-7" cx="6.32" cy="6.32" r="1.05"/><path class="cls-7" d="M1.05,2.11c.58,0,1.05-.47,1.05-1.05S1.63,0,1.05,0,0,.47,0,1.05s.47,1.05,1.05,1.05Z"/><circle class="cls-7" cx="6.32" cy="1.05" r="1.05"/></pattern></defs><g class="cls-12"><g id="Calque_1"><rect class="cls-19" x="3.5" y="3.5" width="90" height="90" rx="6.43" ry="6.43"/><g class="cls-18"><rect class="cls-14" x=".29" y=".29" width="96.43" height="96.43"/><rect class="cls-15" x=".29" y=".29" width="96.43" height="96.43"/></g><g class="cls-10"><path class="cls-7" d="M65.07,31.85c.96-2.65,2.94-9.25.4-12.81-3.23-4.52-18.71-12.26-27.1-11.83-8.39.43,6.88,6.45,6.88,6.45,0,0-21.57-.11-27.31,9.46-1.29,2.15,10.11,0,10.11,0,0,0-10.32,4.52-11.61,6.67-1.29,2.15,6.45,2.15,6.45,2.15,0,0-5.38,2.55-5.11,3.88.2.97,3.57.42,3.57.42l1.9,20.57s6.09-8.1,4.33-22.12c12.05,2.1,27.86.2,34.68-1.16,1.03.19,1.69.35,1.69.35-.51,14.13,6.48,22.97,6.48,22.97v-22.92s-5.36-2.09-5.36-2.09Z"/><path class="cls-7" d="M71.68,123.2c3.66-.99,22.33-6.23,22.17-9.52-.16-3.31-15.43-17.81-18.28-20.49l.76-1.14-15.53-11.79c-2.54.4-5.48.6-8.48.69v-7.23h0c8.35-.2,16.01-.95,19.71-2.56.22-.65.25-1.84.13-3.41.72.28,1.5.44,2.32.44,3.53,0,6.39-2.86,6.39-6.39s-2.86-6.39-6.39-6.39c-1.54,0-2.95.54-4.05,1.45-2.14-10.36-5.65-22.96-7.49-26.64-7.58-1.52-25.77-1.52-34.87,1.52-1.67,4.58-3.6,15.59-4.81,25.09-1.1-.89-2.49-1.42-4.01-1.42-3.53,0-6.39,2.86-6.39,6.39s2.86,6.39,6.39,6.39c1.07,0,2.07-.26,2.95-.73-.12,1.99-.14,3.57-.04,4.53,2.62.81,10.5,1.52,19.66,1.73h0v7.11c-4.94-.22-8.59-.56-8.59-.56l-15.53,11.79.75,1.12c-2.98,2.64-19.25,17.19-19.42,20.51-.16,3.29,19.45,8.53,23.29,9.52h0s1.15.53,2.83.24l.19,2.65,7.17,98.91.71.04-7.61,3.41h23.25v-2.58l.43.02-2.79-95.21c.46,0,.94.01,1.43.01.29,0,.61-.01.91-.02l12.76,95.21.53-.03v2.59h23.25l-7.63-3.42.61-.03-9.21-101.52c1.45.18,2.43-.23,2.53-.27ZM26.34,104.74c-.58.02-1.04.08-1.28.22-.74.42-1.33,3.43-1.75,6.6l-.2-.05s0,0,0,0c0,0,0,0,0,0l-9.4-2.5s0-.04,0-.05l9.47-8.74.84,1.26,3.68-3.33c-.48,2.22-.93,4.44-1.33,6.6ZM68.97,104.94c-.27-.15-.78-.22-1.42-.22-.51-2.48-1.02-4.77-1.52-6.88l4.02,3.64.84-1.26,2.59,2.4,6.89,6.37-9.64,2.57c-.43-3.17-1.01-6.2-1.75-6.61Z"/><circle class="cls-7" cx="20.61" cy="67.33" r="1.27"/><rect class="cls-5" x="42.91" y="70.67" width="10.49" height="16.11"/><path class="cls-7" d="M53.41,75.01v-4.34h-10.49v7c4.94-.03,8.49-1.51,10.49-2.66Z"/><circle class="cls-5" cx="75.47" cy="60.94" r="6.39"/><path class="cls-5" d="M29.06,30.88c9.1-3.03,27.29-3.03,34.87-1.52,3.03,6.06,10.61,36.38,9.1,40.93-9.26,4.03-43.93,2.66-49.86.83-.61-5.63,3.04-32.39,5.9-40.25Z"/><circle class="cls-16" cx="35.15" cy="61.32" r="2.16"/><circle class="cls-16" cx="61.1" cy="61.32" r="2.16"/><path class="cls-5" d="M76.2,91.89s18.56,17.27,18.74,20.92-22.79,9.69-22.79,9.69l-1.52-11.49,10.83-2.89-10.52-9.74,5.27-6.49Z"/><path class="cls-7" d="M77.56,93.17c-.84-.8-1.35-1.28-1.35-1.28l-5.27,6.49,3.64,3.37c1.56-2.51,2.5-6.17,2.99-8.58Z"/><polygon class="cls-13" points="61.88 79.39 77.42 91.18 71.13 100.61 64.75 94.83 61.88 79.39"/><path class="cls-5" d="M20.01,91.89S.3,109.16.12,112.81s23.94,9.69,23.94,9.69l1.52-11.49-10.86-2.89,10.55-9.74-5.27-6.49Z"/><path class="cls-7" d="M21.95,101.44l3.32-3.07-5.27-6.49s-.33.29-.89.79c.63,2.5,1.66,6.2,2.83,8.77Z"/><polygon class="cls-13" points="34.32 79.39 18.79 91.18 25.08 100.61 31.46 94.83 34.32 79.39"/><path class="cls-17" d="M34.31,83.41s-9.98,6.41-13.39,9.66l4.14,6.74,7.3-5.68,1.95-10.71Z"/><path class="cls-11" d="M34.32,79.39s17.17,1.64,27.56,0c0,0,6.12,14.87,9.73,42.43H24.7s3.38-29.98,9.62-42.43Z"/><line class="cls-4" x1="40.77" y1="55.77" x2="40.77" y2="58.63"/><line class="cls-4" x1="55.55" y1="55.64" x2="55.55" y2="58.56"/><polyline class="cls-1" points="49.28 53.46 51.12 63.67 48.74 62.65"/><path class="cls-4" d="M52.82,47.74s3.88-4.22,8.79-1.2"/><path class="cls-4" d="M34.52,47.2s4.8-4.82,9.58.74"/><path class="cls-1" d="M42.34,65.51s5.99,4.97,13.89-.2"/><circle class="cls-5" cx="20.25" cy="60.94" r="6.39"/><line class="cls-1" x1="16.86" y1="58.51" x2="23.73" y2="60.47"/><line class="cls-1" x1="21.07" y1="59.88" x2="18.2" y2="63.11"/><line class="cls-1" x1="78.2" y1="58.51" x2="71.32" y2="60.47"/><line class="cls-1" x1="73.99" y1="59.88" x2="76.86" y2="63.11"/><path class="cls-2" d="M42.16,80.88s2.52,1.16,6.01,1.16"/><path class="cls-8" d="M22.36,35.39l1.9,20.57s6.09-8.1,4.33-22.12c13.81,2.41,32.55-.44,37.05-1.7,0,0,4.07-9.44.85-13.95-3.23-4.52-18.71-12.26-27.1-11.83-8.39.43,6.88,6.45,6.88,6.45,0,0-21.57-.11-27.31,9.46-1.29,2.15,10.11,0,10.11,0,0,0-10.32,4.52-11.61,6.67s6.45,2.15,6.45,2.15c0,0-5.38,2.55-5.11,3.88.2.97,3.57.42,3.57.42Z"/><path class="cls-8" d="M53.95,32.14c4.05-.74,11.01.89,11.01.89-.51,14.13,6.48,22.97,6.48,22.97v-22.92s-6.4-2.5-6.4-2.5l-1.2-5.92c-2.48-.72-4.29.54-7.25.37l-2.64,7.1Z"/><circle class="cls-9" cx="21.51" cy="66.39" r="1.27"/></g></g></g></svg>