<?xml version="1.0" encoding="UTF-8"?>
<svg xmlns="http://www.w3.org/2000/svg" width="469" height="300" xmlns:xlink="http://www.w3.org/1999/xlink" viewBox="0 0 469 300">
  <defs>
    <filter id="c" data-name="drop-shadow-1" x="65.084" y="-1.701" width="339.732" height="296.095" filterUnits="userSpaceOnUse">
      <feOffset dx="-2.808" dy="0"/>
      <feGaussianBlur result="d" stdDeviation="0"/>
      <feFlood flood-color="#42496f" flood-opacity="1"/>
      <feComposite in2="d" operator="in"/>
      <feComposite in="SourceGraphic"/>
    </filter>
    <clipPath id="e">
      <path d="M207.87,287.744c-.818.652-1.472,1.173-2.266,1.805-.003-.066.008.174.021.45-3.664-.366-3.814-2.732-.112-3.306,1.451-.525,1.481-1.984,2.059-3.534-1.67.637-2.8.539-4.373.799.289,1.004,1.024.976,1.662,1.653-.551.583-1.336.678-2.031.583-.188-1.172-1.178-2.854.134-3.721,1.239-.511-.213-1.933-.65-2.308-.661.317-1.274,1.102-.707,1.829.353.536.582.991-.133,1.514-1.358,3.752-3.47-.537-5.569-1.257.049-.215.148-.652.285-1.256-1.991,1.191-1.041-3.647-3.354-.941-1.862-1.204-2.476-5.553-4.899-4.983-.223.138-.826-.1-.989-.371-.909-2.962-3.669-4.238-4.643-6.97-.743-1.735-2.266-2.725-3.569-3.955-.12-.174-.85-.125-.987.066-1.095,1.372-3.366.138-3.483-1.491-.349-.649-1.685-1.297-1.595-2.281-1.139-1.305.05-1.222.864-1.89-.818-.341-.998-1.021-.988-1.986.209-.923-1.91-2.467-.454-2.953,1.669-.319.353-1.345.336-2.545-1.141,1.634-2.315,2.605-4.212,2.353-.858.699-1.386.228-1.959-.304-1.478-1.621-3.694.528-5.008,1.593.11-4.31-5.371,1.032-7.498,1.352-.052-1.483-1.772-2.651-2.906-1.189-2.578-.696-3.412-4.531-5.37-6.405-.406-1.759-2.75-1.32-2.861-3.003-.199-1.867-2.637-2.148-2.623-4.211-1.652-.676-1.287-2.915-2.477-3.945-2.046-2.624-7.448-5.905-6.598-9.29,1.025-1.051,0-1.369-.696-2.017-.537-1.16-1.153-.051-2.036-.274,2.156-2.36-1.681-2.676,1.494-6.843.352-1.028-.974-.743-1.273-.119-.79,1.415-1.923,1.219-3.02,1.071-.587-.629-.068-2.206-1.527-1.908-.099-.419-.199-.837-.304-1.277-1.422.344-2.212,1.831-.59,2.531-1.511,1.437-4.108,5.16-5.549,1.924-1.706.392-1.541-2.564-3.434-1.086-.092-.802-.167-1.453-.252-2.187-.205.136-.465.307-.726.48-.41-.852-.443-2.057-1.782-1.863-.147-1.096-.293-2.181-.46-3.421-.313.459-.527.773-.653.959-1.994-.457-2.411-2.55-3.473-4.051-.109.015-.218.031-.327.046-.073.384-.146.769-.218,1.153-.115-.006-.23-.011-.345-.017.306-3.889-3.285-5.07-4.424-8.344.307-1.155.339-1.63-.359-2.567-.441.474-.844.908-1.397,1.503-.895-.66-.447-2.293-1.781-1.947-.384-1.556-.033-2.693.997-3.738-1.125-1.254,1.779-3.988-.496-4.182-.124.536-.241,1.041-.359,1.547h-.247c.03-1.275.061-2.548.096-4.04,2.787,1.35,2.616-2.574,2.865-4.521-1.109.816-1.879,2.299-3.233,1.191.201.344.403.688.704,1.201-.595.15-1.111.281-1.457.368-.398-2.188.533-3.599,1.962-5.161.145.099.337.228.453.307,3.325-5.317,6.655-11.264,11.47-15.812-1.262-1.029-1.916-3.146-.252-4.089.758.062,1.565.389,1.959.093.722-.895,1.299-2.111-.38-2.696-.009-1.57,2.082-3.294.583-4.678-.874-.975-.573-3.02-2.255-3.138-1.766-.535-2.695,1.058-4.205,1.533-1.47-.276-1.759,1.169-2.518,2.139-.892-.508-1.991-.656-2.584-1.402-.406-1.637-1.636-1.141-2.957-1.434.32-.338.587-.62.867-.916-1.845-.521-1.425,1.353-.784,2.26-.398.329-.755.624-1.331,1.1-.167-1.144.825-2.603-.563-3.091-2.297-.027-2.401-4.328-4.735-2.698.015-.362.03-.714.045-1.069-1.283-.025-1.319-1.121-1.994-1.906-2.635-2.162-1.861-1.442-2.637-4.564-.231.154-.447.298-.724.483-.741-1.128-1.792-1.298-2.127-2.944-1.522-3.303-6.129-3.506-8.116-6.175-.671.095-1.193.17-1.836.261,1.585-2.344.191-3.802.326-6.063.92-2.263,1.837-4.52,2.751-6.772l.41.036c-.096,1.134-.192,2.27-.31,3.665.933-1.05.609-2.124,1.1-3.102.209.138.384.252.558.367.077-.039.154-.077.23-.116.027-1.737-2.13-1.084-.705-2.829,9.282-17.482,16.503-35.875,26.459-52.937.518-.988.843-1.838,1.886-.648,2,.642,2.076-2.694,4.082-2.515.494-.029.852-1.455.503-2.169-.083.367-.141.623-.215.952-1.142.026-2.249.052-3.378.078.33-2.355,2.979-2.471,4.7-1.746,1.929-2.854,2.642-7.135,6.585-7.782-.16-.197-.305-.375-.618-.759,2.889-.676,5.251,2.919,7.647,2.184.505-.447.852-.34.938.354-.247.09-.493.18-.821.3,4.884,1.756,9.879,6.023,14.352,6.908,1.054,2.769,2.727-.669,3.936-1.708.595-.955,1.597-.081,2.316-.689,10.264-10.362,19.408-22.371,30.693-30.945.628-.01,1.83.269,2.231.942,2.118,1.464,2.827-4.351,7.843,1.331.764,1.314,2.781-.531,3.105,1.199.323,1.306,1.936,1.246,2.53,2.37,2.048,1.239,2.94,3.607,5.431,4.36.79.45.918.974,1.716-.02.135,1.621.354,1.738,1.604.872.091.466.177.908.263,1.351.393-.167.785-.334,1.288-.547-.534,7.959,28.193-27.5,31.906-29.54,1.85.405-.215,1.445.799,2.48.577.164,1.102-.792,1.534-1.02,1.922-.376-.025,2.2,1.41,2.55.828.208.953,2.179,1.923,1.103.208.416.484.75.539,1.124.138.997,1.718.928,1.934.131.127-1.062-.725-2.701,1.057-2.44.797.051.478,1.253,1.094,1.571-.289.461-.51.814-.732,1.167.499.143.998.285,1.646.47-.522,1.28-.468,1.487.807,2.015.27,1.154,1.411,1.683,2.262,2.339.978.807,1.897,2.345,3.455,2.259-.421,1.594,1.632.625,2.432,1.108-1.188,1.115-1.063,1.483.161,2.21-.03.074-.06.147-.089.221-.542-.06-1.084-.12-1.833-.203.31.838,1.326.713.855,1.692-.077.837,1.402,1.05,2.106.487-.189.362-.302.579-.458.877.654-.044.239,1.163,1.106.811.483-.196.872-.625,1.262-1.088-1.239.748-1.539-.456-.461-1.093,1.562.04,2.356-.987,3.24-1.998,1.335-1.508,2.479-2.398,4.467-1.508.482.419.908.845,1.557.098,1.174,1.061,2.305,2.083,3.436,3.105.092-.077.184-.153.276-.23-.231-.38-.461-.76-.81-1.335,2.205,1.486,4.491-1.181,6.142.465.278,1.863,1.321,2.854,2.708,3.957,1.234,1.103.526,3.029,1.878,4.024.678.503.481,1.766,1.562,1.089,1.302-.921,2.367,1.493,1.616,2.486.486.093.854.164,1.167.224-.4.49-.754.921-1.107,1.353.689.3-.584,1.573.843,1.535.091-.268.187-.553.278-.82,1.143.766,2.636,1.361,1.401,2.941.369.051.695.097,1.097.153-.059.268-.11.497-.128.582.457.414.846.767,1.287,1.166-.226.286-.429.544-.747.947,1.144-.297,2.12-.551,3.19-.829.019.361.03.571.041.779,2.905.628.541,5.076.012,6.94.093.064.186.129.279.193,1.852-1.579,2.812-4.002,4.445-5.808.095.055.19.111.285.166-.44,1.116-1.024,2.189-1.237,3.379,1.182-.036,1.708-.926,2.315-1.797,3.736,2.565,16.774-21.209,15.453-9.162.108.034.216.068.325.102,1.255-2.458,5.17-3.007,5.18.461-.11,1.021.843.637,1.482.572.68-.159.928.122.931.758-.091,2.25,5.17.601,4.555,3.71,2.458-.524,1.423,2.552,3.284,2.759.693-.004,1.388.426,2.106.673-.258.556-.497,1.071-.777,1.675,5.756,1.141,1.262.891,4.013,3.363,5.049,2.632.184,7.127-.462,11.091.102.047.204.094.305.141-.212.134-.424.267-.694.438.068.177.144.377.224.586-1.661.031-.787,1.461-1.591,2.452-.4.547-.599.926.091,1.397.837.973.707,2.596,1.052,3.779-.084-.068-.265-.215-.311-.253-.752,1.653.1,3.429-2.063,3.991-.234.867-.319,1.874-1.356,2.38-.361-.383-.669-.71-.977-1.037-.157-.01-.314-.02-.47-.03.336,2.433-.98,3.951-2.062,6.006,1.424,1.124,3.439.93,4.473,2.143.156.232.304.704.419.692,1.648-.09,1.982,1.511,3.071,2.286.737-.758,1.428-1.469,2.137-2.199.298.214.534.384.771.554.06-.035.12-.07.18-.105-.147-.317-.294-.634-.491-1.06,1.791-3.628,1.952.762,3.224-1.353.545.225-.238,1.34.789,1.062.147-.04.131-.677.221-1.224,1.316-.009,1.647,1.775,3.197.44.084.886.044,1.311.246,2.014,1.932-.965,3.823-2.503,5.612-4.066,1.173-1.52,2.196-2.187,3.997-.853-.545.163-.857.256-1.17.349-.006.077-.012.154-.019.232.433.079.866.157,1.37.248.039-.208.073-.383.115-.606,1.975.262.029,1.409,1.236,2.062.153-.234.293-.448.34-.519,2.142.425,1.172-1.883,1.122-3.154l.234-.011c1.482,1.262,1.168,3.904,2.719,4.691.548.049.951.165,1.336.576,1.654.944.833-1.754,1.662-2.164.946-.07,1.472.865,1.984,1.622-.746,2.236,2.567,3.264,3.818,4.769-1.777-.478-2.673-.099-.922,1.654.263-.401.414-.631.681-1.038.414.753.58,1.306,1.23,1.759.374-.689.062-1.201-.161-1.871.78.226,1.462.458.996,1.489.402,2.469,4.923-.908,3.887,2.505,1.03-.348,3.505.364,2.055,1.594-.15.109-.157.694-.006.867.193.223.72.437.912.326.992-.6,1.473.704,2.154,1.187,1.239,2.148-1.295,4.396-1.11,6.338,1.378.607-.413,2.311-1.223,1.007-.353.475-.559.874.223.988,1.853,2.084-2.829,7.413-4.219,9.892.418-.123.676-.198,1.043-.306.182.708,1.16,1.956-.011,2.278-.854.635-.302,1.782-.263,2.866.331.017,1.339-.475,1.61-.437.685.592,1.284.299,1.877-.058.641-.387.798-.061.896.533.918,2.713,1.352,5.476,2.386,8.065.34,1.479.818,3.89,2.494,4.258.41,1.111,2.163,1.209,1.862,2.878,2.978-.312,2.433,3.593,2.483,5.467,3.358,1.632-2.182,5.649-2.361,8.078-1.568,1.202-1.97,3.689-3.166,4.406-.633.381.149,2.047-1.078,1.891-.913.961-1.399,2.242-2.364,3.652,3.851.487,7.394.935,10.928,1.382.037,1.91,1.014.418,1.997,1.461-.531.367-.915.631-1.273.878,1.321,1.389,2.245,4.359.026,5.177-1.391-.483-.851.569-.938,1.28.621-.203,1.143-.374,1.742-.57,1.115,1.339-2.061,2.185-.493,3.791.015,6.502-10.641,7.514-2.469,15.074-.689,1.066.923,1.81.401,2.855-.99,1.423-.639,2.861,1.179,3.176.035-.137.109-.422.186-.726,1.162.71,2.844,4.683,2.694,6.228.232-.036.527-.082.821-.127-.012.11-.024.22-.035.331-.209.225-.419.451-.628.676.025.105.05.21.076.315.451-.076.901-.152,1.518-.257-.692.781-.272,2.462-1.36,2.544-.167-.01-.346.331-.519.511.81.7,1.741-.009,2.643-.183.045.075.09.15.135.226-3.584,4.782-10.391,7.401-12.446,13.103-.147,1.807-.47.931-1.682,1.237.586.352,1.637,1.008.713,1.582-.876.511.072,1.339-.29,2.149-.1.003-.199.007-.299.01-.139-.225-.279-.451-.593-.959-3.147,11.34-16.893,12.268-25.146,18.528-5.413,4.592-10.851,9.448-16.901,13.088-1.183,1.925-5.553,5.576-7.036,2.473.268-.116.525-.228,1.048-.454-.597-.373-.989-.618-1.544-.964.169,1.277-1.111,3.663-.703,1.259-1.389-.667-.17-2.259-.894-3.657-.459,1.014-.809,1.785-1.159,2.558-1.637-.838-.177-4.164-2.097-4.392-.771,1.174-1.326.681-1.853-.355-.343.618-.616,1.112-.913,1.648-3.752-3.934-11.252,7.646-15.342,6.957-2.222.209-3.969,4.289-6.345,3.238-10.285-2.556-31.972,26.601-38.03,21.507.318-.136.611-.262,1.177-.504-.563-.409-.943-.684-1.392-1.01-1.436,2.813-1.558-.759-1.435-2.071-.113-.036-.226-.071-.339-.107-.419.748-.839,1.496-1.252,2.232-1.862-.252.054-5.481-2.051-4.397-1.031,1.498-1.051.077-1.904-.368-.205.495-.397.959-.578,1.397-2.387-1.97-5.054.979-7.83.367-.937.435-3.098,1.369-2.798-.691.815-.862,1.692-4.528-.429-3.556-.795-1.256-.704-1.612.44-1.871-.149-1.646-.587-2.272-1.803-.819.192-2.732-2.004-3.879-1.322-6.315.18-.613-.492-1.626-.307-2.251.882-1.689-.382-2.446-1.038-3.444-2.213-.848-2.996-2.522-4.031-4.663-.755.592-1.537,1.205-2.385,1.87.031-.327.056-.589.085-.885-2.447.521-.986,2.325-2.646,3.925-.55-2.362,1.452-3.98,1.329-6.286-8.589,10.146-16.354,23.319-25.114,32.024ZM385.428,167.671c.987,1.043-.203,1.568.999,2.072.278-.979,1.689-1.482.702-2.823l-.716.355-.474-.224c.254-.308.508-.616.759-.921-1.609-1.879-1.377.369-1.271,1.541ZM100.985,188.691c-.505.685-1.01,1.372-1.515,2.057.477.266,1.022.569,1.573.876,1.115-1.164,1.109-2.074-.058-2.933ZM386.315,176.656c-.255-.109-.509-.217-.764-.326.393-.566.785-1.131,1.138-1.639-.286-.195-.631-.43-.973-.662q-.642.548.023,1.206c-.324.217-.645.432-.967.647-.01.139-.02.278-.03.416.524.119,1.048.239,1.573.358ZM384.052,164.11c-.365.71-.636,1.238-1.02,1.986,1.216-.315,2.647-1.308,1.02-1.986ZM327.264,80.311c-.08.026-.161.053-.241.079-.101.727-.202,1.454-.313,2.253.342-.157.63-.288,1.034-.473-.158-.61-.319-1.235-.48-1.859ZM268.524,28.206c-.972.577-.992.908-.116,1.634.04-.563.074-1.037.116-1.634ZM107.023,68.277c.744.177,1.178.199,1.218-.556-.491-.623-.787.019-1.218.556ZM99.144,197.02c-.536,1.071-.435,1.281.547,1.42-.205-.531-.376-.976-.547-1.42ZM384.996,172.582c.177.014.353.029.53.043.006-.469.012-.937.018-1.406-.138-.011-.275-.023-.413-.034-.045.465-.091.931-.136,1.397ZM150.073,252.198c-.037.441-.073.883-.121,1.461,1.063-.567.961-1.02.121-1.461Z" fill="none"/>
    </clipPath>
    <linearGradient id="f" data-name="Dégradé sans nom 35" x1="233.174" y1="45.288" x2="233.174" y2="184.518" gradientUnits="userSpaceOnUse">
      <stop offset="0" stop-color="#b1ddea"/>
      <stop offset="1" stop-color="#54bfd1"/>
    </linearGradient>
    <linearGradient id="g" data-name="Dégradé sans nom 14" x1="235.185" y1="207.042" x2="235.185" y2="254.801" gradientUnits="userSpaceOnUse">
      <stop offset="0" stop-color="#6498d1"/>
      <stop offset="1" stop-color="#336a9b"/>
    </linearGradient>
    <filter id="i" data-name="drop-shadow-2" x="100.409" y="146.312" width="50.923" height="46.298" filterUnits="userSpaceOnUse">
      <feOffset dx="-4" dy="0"/>
      <feGaussianBlur result="j" stdDeviation="0"/>
      <feFlood flood-color="#42496f" flood-opacity="1"/>
      <feComposite in2="j" operator="in"/>
      <feComposite in="SourceGraphic"/>
    </filter>
    <clipPath id="k">
      <path d="M109.628,186.424s37.819-4.349,41.704-5.051c-1.157,3.513-5.409,8.147-12.829,9.966,0,0-22.843-.666-26.222-.79-2.223-1.284-2.654-4.125-2.654-4.125Z" fill="none"/>
    </clipPath>
    <filter id="m" data-name="drop-shadow-3" x="85.701" y="197.73" width="85.722" height="36.078" filterUnits="userSpaceOnUse">
      <feOffset dx="-4" dy="0"/>
      <feGaussianBlur result="n" stdDeviation="0"/>
      <feFlood flood-color="#42496f" flood-opacity="1"/>
      <feComposite in2="n" operator="in"/>
      <feComposite in="SourceGraphic"/>
    </filter>
    <filter id="p" data-name="drop-shadow-4" x="331.854" y="146.312" width="50.923" height="46.298" filterUnits="userSpaceOnUse">
      <feOffset dx="-4" dy="0"/>
      <feGaussianBlur result="q" stdDeviation="0"/>
      <feFlood flood-color="#42496f" flood-opacity="1"/>
      <feComposite in2="q" operator="in"/>
      <feComposite in="SourceGraphic"/>
    </filter>
    <clipPath id="r">
      <path d="M341.073,186.424s37.819-4.349,41.704-5.051c-1.157,3.513-5.409,8.147-12.829,9.966,0,0-22.843-.666-26.222-.79-2.223-1.284-2.654-4.125-2.654-4.125Z" fill="none"/>
    </clipPath>
    <filter id="t" data-name="drop-shadow-5" x="315.492" y="197.73" width="85.722" height="36.078" filterUnits="userSpaceOnUse">
      <feOffset dx="-4" dy="0"/>
      <feGaussianBlur result="u" stdDeviation="0"/>
      <feFlood flood-color="#42496f" flood-opacity="1"/>
      <feComposite in2="u" operator="in"/>
      <feComposite in="SourceGraphic"/>
    </filter>
    <filter id="w" data-name="drop-shadow-6" x="190.535" y="116.019" width="81.119" height="84.102" filterUnits="userSpaceOnUse">
      <feOffset dx="-4" dy="0"/>
      <feGaussianBlur result="x" stdDeviation="0"/>
      <feFlood flood-color="#42496f" flood-opacity="1"/>
      <feComposite in2="x" operator="in"/>
      <feComposite in="SourceGraphic"/>
    </filter>
    <clipPath id="y">
      <path d="M203.113,189.953s62.156-7.147,68.542-8.302c-1.902,5.774-8.89,13.39-21.084,16.379,0,0-37.543-1.094-43.096-1.298-3.654-2.11-4.361-6.779-4.361-6.779Z" fill="none"/>
    </clipPath>
    <filter id="aa" data-name="drop-shadow-7" x="163.357" y="31.468" width="120.793" height="66.422" filterUnits="userSpaceOnUse">
      <feOffset dx="-4" dy="0"/>
      <feGaussianBlur result="ab" stdDeviation="0"/>
      <feFlood flood-color="#42496f" flood-opacity="1"/>
      <feComposite in2="ab" operator="in"/>
      <feComposite in="SourceGraphic"/>
    </filter>
  </defs>
  <g isolation="isolate">
    <g id="b" data-name="BG">
      <g filter="url(#c)">
        <g clip-path="url(#e)">
          <g>
            <rect x="67.946" y="-1.701" width="329.167" height="202.795" fill="#54bfd1"/>
            <rect x="68.59" y=".181" width="329.167" height="202.795" fill="url(#f)"/>
            <g opacity=".33">
              <path d="M394.493,158.939c.578,9.351,1.156,18.703,1.734,28.054.883,4.248-3.292,5.948-7.187,5.786-67.139.084-134.849,6.174-201.67-1.676,11.932-11.856,12.527-15.872,30.641-11.818,15.711.341,23.145-15.552,32.423-25.212,2.653-1.501,6.133.228,9.039-.726,9.004-5.019.397-22.738,14.478-28.192,12.704-4.662,29.87,8.946,30.054,21.884,4.676-2.983,12.633-.168,14.342,8.651,11.36-72.676,78.799-39.08,75.327-9.722l.818,12.971Z" fill="#b1ddea"/>
              <path d="M394.493,158.939c.578,9.351,1.156,18.703,1.734,28.054.883,4.248-3.292,5.948-7.187,5.786-67.139.084-134.849,6.174-201.67-1.676,11.932-11.856,12.527-15.872,30.641-11.818,15.711.341,23.145-15.552,32.423-25.212,2.653-1.501,6.133.228,9.039-.726,9.004-5.019.397-22.738,14.478-28.192,12.704-4.662,29.87,8.946,30.054,21.884,4.676-2.983,12.633-.168,14.342,8.651,11.36-72.676,78.799-39.08,75.327-9.722l.818,12.971Z" fill="none"/>
            </g>
            <g opacity=".2">
              <path d="M65.084,167.707c.746,14.346.162,29.118,1.609,43.266,52.085,2.597,105.537-10.426,158.097-7.228,8.423-.335,19.207,2.391,26.111-4.159-.679-6.049-5.029-11.231-7.106-16.836-3.803-10.622-10.875-14.643-19.559-14.654-3.236-1.598-9.201-5.807-10.892.266.877-24.86-15.247-63.536-42.792-49.382-9.323-34.342-61.663-14.087-65.27.614.98-5.335.45-12.999-1.995-14.766-2.445-1.767-5.161-2.236-5.053-.975-2.339-27.319-31.282-24.976-31.157,22.252l-1.992,41.603Z" fill="#b1ddea"/>
              <path d="M65.084,167.707c.746,14.346.162,29.118,1.609,43.266,52.085,2.597,105.537-10.426,158.097-7.228,8.423-.335,19.207,2.391,26.111-4.159-.679-6.049-5.029-11.231-7.106-16.836-3.803-10.622-10.875-14.643-19.559-14.654-3.236-1.598-9.201-5.807-10.892.266.877-24.86-15.247-63.536-42.792-49.382-9.323-34.342-61.663-14.087-65.27.614.98-5.335.45-12.999-1.995-14.766-2.445-1.767-5.161-2.236-5.053-.975-2.339-27.319-31.282-24.976-31.157,22.252l-1.992,41.603Z" fill="none"/>
            </g>
            <path d="M354.833,187.941c-4.857.892-10.894,1.427-17.462,1.427s-12.605-.535-17.462-1.427h-.266c-4.857.892-10.894,1.427-17.462,1.427s-12.605-.535-17.462-1.427h-.266c-4.857.892-10.894,1.427-17.462,1.427s-12.605-.535-17.462-1.427h-.266c-4.857.892-10.894,1.427-17.462,1.427s-12.605-.535-17.462-1.427h-.266c-4.857.892-10.894,1.427-17.462,1.427s-12.605-.535-17.462-1.427h-.266c-4.857.892-10.894,1.427-17.462,1.427s-12.605-.535-17.462-1.427h-77.466l-.941,106.452h338.32l.941-106.452h-49.983Z" fill="url(#g)"/>
            <g opacity=".5">
              <path d="M266.292,210.953s9.743-3.342,12.09-4.978c0,0,.284,3.485,12.659,3.698-15.29,4.409-11.094-.427-24.749,1.28Z" fill="#fff"/>
              <path d="M308.108,197.868s2.916-1.493,3.414-2.276c1.941,1.121,5.12,2.489,5.974,2.276-6.116-.742-6.498,1.668-9.387,0Z" fill="#fff"/>
              <path d="M168.488,201.664s3.666-.564,4.891-1.63c1.601,1.187,6.05,1.63,6.05,1.63-5.027-.01-7.698,1.108-10.942,0Z" fill="#fff"/>
              <path d="M187.37,212.935c4.115.232,9.404-2.43,11.043-3.58,2.071,2.315,5.753,4.114,11.348,1.692,3.515,1.474,9.289,2.098,11.905,1.401-9.684,1.601-8.14.436-10.876.839s-6.64,2.54-12.471.144c-4.275,1.302-8.261,1.222-10.949-.496Z" fill="#fff"/>
            </g>
          </g>
        </g>
      </g>
    </g>
    <g id="h" data-name="bateau_APRES">
      <g>
        <g filter="url(#i)">
          <path d="M121.068,147.173s23.384,22.419,29.387,33.166c-7.72-1.695-18.798-.413-22.849,1.033l-6.538-34.2Z" fill="#a384bb"/>
          <path d="M121.619,148.941s10.005,24.845,13.881,28.279c0,0-6.522,2.398-7.894,4.152l-5.987-32.431Z" fill="#6498d1" mix-blend-mode="multiply" opacity=".25"/>
          <path d="M121.068,148.829s-10.299,29.016-15.148,34.61l20.805-2.976-5.656-31.634Z" fill="#a384bb"/>
          <path d="M121.434,150.041s-1.268,26.399-10.251,32.406l15.485-2.122-5.234-30.284Z" fill="#6498d1" mix-blend-mode="multiply" opacity=".25"/>
          <polygon points="120.583 146.422 121.173 146.312 128.968 184.536 127.009 184.9 120.583 146.422" fill="#fff"/>
          <path d="M109.628,186.424s37.819-4.349,41.704-5.051c-1.157,3.513-5.409,8.147-12.829,9.966,0,0-22.843-.666-26.222-.79-2.223-1.284-2.654-4.125-2.654-4.125Z" fill="#fff"/>
          <g clip-path="url(#k)">
            <path d="M139.125,192.61s5.449-1.528,9.087-7.68c.307-.519-.1-1.175-.701-1.121-5.913.53-29.543,2.514-36.186,3.207-.622.065-1.048.668-.881,1.271.3,1.082.999,2.627,2.593,3.254l26.089,1.07Z" fill="#6498d1" mix-blend-mode="multiply" opacity=".25"/>
          </g>
          <polygon points="104.592 184.07 126.724 181.212 126.667 180.325 104.409 183.509 104.592 184.07" fill="#fff"/>
        </g>
        <path d="M150.155,190.439c-.659-.523-1.83-.952-2.941-.965-2.001-.024-2.572.413-2.572.413-2.633-1.52-7.86-4.67-12.076-2.976s11.321,7.335,12.148,6.673c.827-.661-4.598-2.86-3.51-2.978,1.163-.126,3.019.025,4.094.273,1.446-.544,6.418.798,4.858-.441Z" fill="#a7caec"/>
        <g>
          <path d="M138.274,187.12c-1.26-1.069-3.006-1.539-4.632-1.247-.456.082-.945.253-1.176.655-.379.659.137,1.501-.03,2.242-.126.557-.633.967-1.18,1.132s-1.133.126-1.701.069c-1.436-.145-2.864-.401-4.307-.433s-2.931.178-4.18.9" fill="none"/>
          <g>
            <g>
              <path d="M123.276,189.592c.143.094.128.271.057.35-.085.094-.226.11-.322.033-.101-.081-.117-.227-.036-.329.013-.016.029-.031.042-.047.114-.136.132-.137.258-.007Z" fill="#a7caec"/>
              <path d="M119.948,191.124c.079-.084.21-.088.296-.01.09.082.095.216.01.302-.08.081-.214.083-.297.004-.083-.078-.087-.213-.009-.296Z" fill="#a7caec"/>
              <path d="M122.297,192.046c.067-.07.151-.067.232.007.078.072.085.19.014.263-.069.072-.182.073-.255.002-.076-.074-.073-.188.009-.273Z" fill="#a7caec"/>
              <path d="M123.593,192.203c-.07.07-.178.071-.245.002-.067-.068-.066-.178.003-.247.075-.075.188-.079.255-.01.068.069.062.18-.013.255Z" fill="#a7caec"/>
              <path d="M121.973,190.231c.066-.07.178-.074.248-.009.071.066.074.177.007.247-.068.071-.175.075-.247.008-.072-.067-.075-.174-.008-.246Z" fill="#a7caec"/>
              <path d="M124.761,190.281c.065-.064.174-.061.237.008.06.065.059.166-.003.23-.065.068-.169.068-.236,0-.066-.066-.065-.172.002-.237Z" fill="#a7caec"/>
              <path d="M119.912,192.276c-.063-.065-.062-.163.001-.228.066-.068.17-.067.236.002.062.065.062.165-.001.229-.066.067-.169.066-.236-.002Z" fill="#a7caec"/>
              <path d="M124.443,191.24c-.061.06-.154.061-.208.002-.056-.061-.054-.164.004-.221.059-.059.148-.058.208.002.061.062.06.155-.004.217Z" fill="#a7caec"/>
              <path d="M119.728,190.337c.017-.017.033-.037.052-.052.059-.046.119-.044.167.014.049.059.035.118-.019.167-.028.025-.065.041-.094.066-.054.045-.108.054-.157,0-.05-.055-.033-.109.017-.156.013-.012.025-.025.037-.037l-.002-.002Z" fill="#a7caec"/>
              <path d="M122.48,193.256c-.057.06-.151.066-.208.012-.057-.055-.058-.16,0-.22.054-.056.155-.056.209-.001.056.057.056.149,0,.209Z" fill="#a7caec"/>
              <path d="M121.336,188.196c-.067-.062-.078-.146-.026-.206.049-.056.142-.06.2-.008.058.052.062.209.007.264-.043.043-.096.029-.181-.05Z" fill="#a7caec"/>
              <path d="M122.486,188.306c-.059.057-.154.054-.208-.009-.057-.066-.056-.136.003-.2.056-.062.148-.06.207,0,.059.06.058.151-.002.208Z" fill="#a7caec"/>
              <path d="M120.147,188.719c.058-.053.156-.048.211.011.056.06.054.144-.006.198-.06.055-.155.052-.21-.007-.052-.056-.05-.151.005-.201Z" fill="#a7caec"/>
              <path d="M120.773,190.724c-.054-.054-.057-.146-.005-.201.054-.058.152-.056.208.003.053.056.052.147-.002.2-.054.052-.147.051-.201-.002Z" fill="#a7caec"/>
              <path d="M122.053,189.342c.041.054.046.115-.008.173-.049.053-.143.054-.19,0-.051-.059-.05-.123.001-.181.047-.054.14-.051.196.007Z" fill="#a7caec"/>
              <path d="M120.965,192.369c-.008.056,0,.122-.028.164-.042.063-.113.053-.166.004-.054-.051-.06-.124-.005-.168.039-.031.108-.025.163-.035l.036.035Z" fill="#a7caec"/>
              <path d="M122.694,191.198c.005-.086-.004-.142.017-.183.008-.016.095-.015.124.007.051.039.05.102-.006.144-.025.018-.065.017-.135.032Z" fill="#a7caec"/>
              <path d="M121.989,192.375c-.072-.014-.127-.008-.146-.032-.02-.025-.007-.078-.008-.118.041,0,.093-.015.118.004.024.019.02.074.036.146Z" fill="#a7caec"/>
              <path d="M121.03,191.563c.067.012.117.007.135.029.019.023.008.071.01.109-.04,0-.089.016-.117-.002-.021-.013-.016-.068-.028-.135Z" fill="#a7caec"/>
              <path d="M119.097,190.405c.071.013.123.008.139.03.018.024.015.081-.003.108-.01.016-.078.017-.098,0-.023-.02-.021-.068-.038-.138Z" fill="#a7caec"/>
              <path d="M120.789,190.19c.015-.068.011-.118.033-.135.024-.018.071-.004.109-.004,0,.038.013.086-.005.109-.017.021-.068.016-.136.029Z" fill="#a7caec"/>
              <path d="M121.159,189.597c.009-.061.003-.108.022-.124.02-.017.078-.019.095-.002.018.017.019.074.004.095-.015.02-.061.017-.121.03Z" fill="#a7caec"/>
              <path d="M121.406,192.947c.011-.061.006-.104.025-.124.017-.017.079-.018.089-.004.018.025.024.076.009.099-.012.02-.062.016-.124.029Z" fill="#a7caec"/>
              <path d="M120.86,192.751c-.012.062-.007.109-.027.124-.022.017-.066.006-.101.007,0-.035-.013-.079.004-.101.015-.02.062-.017.124-.031Z" fill="#a7caec"/>
              <path d="M123.327,189.053c.008-.049.004-.095.021-.105.025-.015.065-.003.099-.002-.003.034.005.075-.011.099-.011.016-.058.006-.108.009Z" fill="#a7caec"/>
              <path d="M124.659,189.837c-.052-.013-.098-.011-.109-.03-.014-.025.001-.065.004-.099.031.005.073-.001.09.017.017.018.009.06.014.112Z" fill="#a7caec"/>
              <path d="M121.451,191.699c.048.006.09,0,.101.015.016.022.01.06.013.091-.031-.001-.068.007-.091-.008-.016-.01-.013-.051-.022-.099Z" fill="#a7caec"/>
              <path d="M122.114,191.342c.047.007.081.002.101.017.012.009.01.064,0,.07-.022.012-.059.014-.082.003-.014-.007-.011-.046-.019-.09Z" fill="#a7caec"/>
            </g>
            <g>
              <path d="M127.886,190.337c.015.137-.102.219-.187.215-.102-.004-.185-.083-.186-.182-.002-.104.08-.189.185-.191.017,0,.034.002.051.002.143,0,.152.011.137.156Z" fill="#a7caec"/>
              <path d="M125.225,189.066c.092.006.162.084.159.178-.004.098-.085.17-.181.162-.091-.008-.161-.09-.155-.181.006-.091.087-.164.178-.158Z" fill="#a7caec"/>
              <path d="M125.864,190.994c.077.005.119.059.115.148-.004.085-.074.15-.156.144-.08-.006-.139-.075-.132-.157.007-.085.079-.142.173-.135Z" fill="#a7caec"/>
              <path d="M126.434,191.877c-.08-.007-.135-.073-.128-.151.008-.077.076-.132.154-.125.084.008.146.075.138.153-.008.078-.079.131-.165.123Z" fill="#a7caec"/>
              <path d="M126.819,189.859c.077.005.137.072.133.149-.004.077-.071.137-.149.131-.079-.006-.136-.07-.132-.149.004-.079.069-.137.148-.131Z" fill="#a7caec"/>
              <path d="M128.225,191.61c.073.007.127.076.117.151-.009.071-.072.122-.144.117-.076-.006-.129-.07-.122-.146.007-.075.073-.129.148-.121Z" fill="#a7caec"/>
              <path d="M124.493,189.637c.008-.072.069-.122.142-.117.076.006.129.071.12.147-.008.072-.07.123-.142.117-.076-.006-.128-.071-.12-.147Z" fill="#a7caec"/>
              <path d="M127.467,191.907c-.069-.007-.117-.064-.109-.127.009-.066.074-.118.139-.111.067.007.112.062.106.129-.007.07-.065.117-.136.109Z" fill="#a7caec"/>
              <path d="M125.599,188.525c.02.002.04.001.059.006.059.013.088.051.077.11-.011.06-.055.083-.113.074-.03-.004-.059-.019-.089-.024-.056-.01-.089-.039-.081-.097.008-.059.05-.076.105-.07.014.002.028.002.042.004v-.002Z" fill="#a7caec"/>
              <path d="M125.209,191.731c-.067-.004-.118-.06-.114-.122.004-.064.069-.118.135-.114.062.005.114.067.108.129-.006.064-.064.111-.13.107Z" fill="#a7caec"/>
              <path d="M127.751,188.417c.004-.074.05-.123.114-.122.06.001.111.057.108.12-.003.063-.097.146-.159.14-.049-.005-.067-.045-.063-.138Z" fill="#a7caec"/>
              <path d="M128.275,189.186c-.065-.007-.113-.067-.102-.133.011-.069.055-.104.125-.101.067.003.113.061.106.128-.007.067-.064.114-.13.106Z" fill="#a7caec"/>
              <path d="M126.815,187.95c.063.008.11.072.102.136-.008.066-.061.107-.126.098-.065-.009-.112-.069-.103-.134.008-.061.068-.109.127-.101Z" fill="#a7caec"/>
              <path d="M125.897,189.371c.005-.061.061-.11.122-.107.064.004.113.065.105.13-.007.062-.064.108-.125.102-.06-.006-.107-.064-.102-.126Z" fill="#a7caec"/>
              <path d="M127.411,189.451c-.012.053-.048.088-.111.084-.058-.003-.107-.061-.098-.117.01-.062.051-.094.113-.092.057.002.103.06.096.125Z" fill="#a7caec"/>
              <path d="M124.978,190.337c-.039.024-.076.063-.116.067-.061.007-.091-.043-.088-.101.003-.06.046-.101.102-.089.039.008.071.054.106.083l-.003.04Z" fill="#a7caec"/>
              <path d="M126.593,190.803c.056-.041.086-.076.122-.084.014-.003.058.051.059.08.002.052-.037.084-.092.07-.024-.006-.044-.031-.09-.067Z" fill="#a7caec"/>
              <path d="M125.501,190.973c-.029-.051-.06-.083-.055-.107.005-.025.044-.044.069-.066.021.025.057.05.058.075,0,.025-.035.051-.072.097Z" fill="#a7caec"/>
              <path d="M125.51,189.962c.027.047.056.076.052.098-.004.024-.04.042-.062.062-.021-.024-.055-.047-.059-.074-.003-.02.034-.045.069-.087Z" fill="#a7caec"/>
              <path d="M125.231,188.17c.028.051.058.081.053.102-.006.024-.042.05-.068.054-.015.002-.051-.04-.05-.061,0-.024.031-.048.066-.095Z" fill="#a7caec"/>
              <path d="M126.235,189.106c.049-.026.079-.054.1-.049.023.006.039.042.058.065-.023.019-.046.052-.07.053-.022,0-.045-.034-.088-.07Z" fill="#a7caec"/>
              <path d="M126.793,189.029c.042-.026.068-.054.088-.05.021.004.052.039.05.058-.001.02-.036.05-.057.051-.02.001-.042-.029-.081-.059Z" fill="#a7caec"/>
              <path d="M124.847,190.907c.043-.025.068-.05.089-.048.019.002.052.039.048.053-.006.024-.034.054-.057.057-.019.002-.042-.03-.081-.062Z" fill="#a7caec"/>
              <path d="M124.687,190.469c-.044.025-.071.051-.091.047-.022-.005-.038-.038-.057-.059.021-.018.042-.048.065-.05.021,0,.043.03.083.061Z" fill="#a7caec"/>
              <path d="M128.246,190.09c.035-.02.061-.046.076-.041.022.008.035.039.052.06-.022.016-.044.042-.067.044-.016.001-.034-.033-.061-.063Z" fill="#a7caec"/>
              <path d="M128.447,191.318c-.019-.038-.044-.067-.037-.083.008-.021.041-.033.063-.048.013.022.038.045.036.065-.002.02-.032.036-.062.067Z" fill="#a7caec"/>
              <path d="M125.643,190.292c.021.033.047.055.043.07-.006.021-.032.037-.05.055-.015-.02-.039-.039-.042-.06-.002-.015.025-.034.05-.065Z" fill="#a7caec"/>
              <path d="M126.205,190.519c.02.032.04.052.041.071,0,.012-.034.039-.043.036-.019-.008-.039-.03-.044-.049-.003-.012.023-.03.046-.058Z" fill="#a7caec"/>
            </g>
            <g>
              <path d="M133.202,189.892c.045.182-.098.314-.214.325-.138.012-.265-.079-.285-.213-.021-.141.074-.27.215-.292.023-.004.046-.003.069-.006.193-.025.208-.013.214.186Z" fill="#a7caec"/>
              <path d="M129.378,188.657c.126-.009.235.084.246.211.012.133-.084.245-.216.251-.124.006-.234-.092-.243-.217-.009-.124.088-.237.212-.245Z" fill="#a7caec"/>
              <path d="M130.59,191.146c.106-.007.172.058.182.178.01.116-.072.216-.184.223-.109.007-.201-.077-.207-.188-.007-.117.081-.205.209-.214Z" fill="#a7caec"/>
              <path d="M131.52,192.234c-.109.004-.196-.074-.2-.18-.003-.105.079-.192.186-.197.115-.005.21.076.214.181.003.106-.083.191-.2.196Z" fill="#a7caec"/>
              <path d="M131.675,189.439c.105-.007.199.073.207.177.008.105-.072.197-.178.204-.108.007-.197-.07-.205-.177-.008-.108.069-.197.176-.204Z" fill="#a7caec"/>
              <path d="M133.89,191.55c.1-.003.185.08.186.182,0,.097-.075.178-.173.184-.103.006-.187-.071-.191-.175-.004-.102.075-.187.178-.19Z" fill="#a7caec"/>
              <path d="M128.494,189.56c-.003-.099.071-.178.17-.183.104-.005.187.072.189.176.002.099-.073.179-.171.184-.104.005-.186-.072-.189-.177Z" fill="#a7caec"/>
              <path d="M132.921,192.088c-.094.003-.17-.065-.17-.152,0-.09.078-.172.167-.175.092-.003.163.063.167.156.004.095-.067.169-.164.172Z" fill="#a7caec"/>
              <path d="M129.785,187.858c.027-.001.054-.005.08-.003.082.007.129.053.124.135-.004.083-.059.122-.139.12-.042,0-.083-.015-.125-.016-.077-.003-.128-.036-.128-.116,0-.082.054-.112.13-.113.019,0,.038-.002.057-.003v-.003Z" fill="#a7caec"/>
              <path d="M129.839,192.259c-.091.007-.171-.059-.176-.145-.006-.087.072-.172.162-.178.085-.005.167.069.17.154.003.087-.066.162-.156.168Z" fill="#a7caec"/>
              <path d="M132.672,187.323c-.008-.1.045-.176.132-.186.081-.009.16.057.167.142.008.085-.105.215-.19.218-.067.003-.099-.048-.109-.175Z" fill="#a7caec"/>
              <path d="M133.519,188.267c-.09.002-.164-.07-.161-.162.003-.095.056-.151.151-.159.091-.008.164.062.167.154.003.092-.066.165-.156.167Z" fill="#a7caec"/>
              <path d="M131.324,186.863c.086,0,.162.077.162.165,0,.09-.063.156-.152.155-.09,0-.164-.073-.164-.162,0-.084.072-.159.153-.159Z" fill="#a7caec"/>
              <path d="M130.342,188.947c-.004-.084.063-.16.145-.166.087-.006.164.067.166.157.001.085-.067.158-.151.16-.083.002-.157-.068-.161-.151Z" fill="#a7caec"/>
              <path d="M132.401,188.781c-.006.074-.048.127-.135.134-.079.006-.156-.063-.153-.14.002-.085.051-.136.135-.145.078-.008.151.063.153.152Z" fill="#a7caec"/>
              <path d="M129.275,190.418c-.048.039-.091.098-.145.112-.081.02-.131-.042-.137-.12-.006-.081.044-.145.121-.139.054.004.105.06.158.093l.003.055Z" fill="#a7caec"/>
              <path d="M131.54,190.756c.068-.066.102-.118.149-.135.019-.007.088.058.095.097.013.069-.035.12-.111.112-.034-.004-.065-.035-.133-.074Z" fill="#a7caec"/>
              <path d="M130.097,191.182c-.048-.064-.096-.101-.094-.134.002-.035.052-.068.081-.102.033.03.086.057.092.091.006.033-.038.075-.079.144Z" fill="#a7caec"/>
              <path d="M129.925,189.815c.045.059.089.092.088.123-.001.033-.046.064-.072.095-.033-.029-.083-.053-.093-.089-.007-.026.038-.067.078-.13Z" fill="#a7caec"/>
              <path d="M129.225,187.445c.047.063.093.098.09.128-.004.033-.048.076-.083.085-.02.005-.076-.044-.079-.073-.003-.033.034-.07.072-.14Z" fill="#a7caec"/>
              <path d="M130.75,188.528c.062-.044.097-.087.127-.084.032.003.06.05.09.078-.028.03-.053.079-.086.084-.029.005-.067-.037-.131-.078Z" fill="#a7caec"/>
              <path d="M131.489,188.323c.053-.042.082-.085.11-.083.029.001.077.043.078.069.002.027-.039.074-.068.08-.027.005-.062-.032-.12-.066Z" fill="#a7caec"/>
              <path d="M129.201,191.211c.054-.041.082-.08.112-.081.026,0,.077.044.075.063-.004.033-.037.079-.066.087-.025.007-.062-.033-.121-.069Z" fill="#a7caec"/>
              <path d="M128.906,190.649c-.055.041-.086.082-.114.08-.031-.002-.058-.044-.087-.069.026-.028.048-.073.078-.079.028-.005.063.032.123.067Z" fill="#a7caec"/>
              <path d="M133.644,189.493c.043-.033.074-.074.095-.069.031.007.055.046.081.071-.027.025-.051.065-.083.071-.021.004-.051-.038-.094-.073Z" fill="#a7caec"/>
              <path d="M134.137,191.115c-.032-.049-.071-.082-.065-.105.007-.03.05-.052.077-.077.022.027.06.053.06.081,0,.027-.037.055-.072.101Z" fill="#a7caec"/>
              <path d="M130.164,190.238c.035.041.073.066.07.087-.004.03-.037.056-.058.083-.024-.024-.06-.045-.068-.074-.005-.02.028-.051.055-.096Z" fill="#a7caec"/>
              <path d="M130.965,190.442c.033.04.064.062.068.089.003.016-.039.059-.052.056-.027-.007-.058-.033-.068-.059-.006-.016.026-.045.051-.086Z" fill="#a7caec"/>
            </g>
            <g>
              <path d="M134.852,184.42c.21.025.292.23.256.356-.043.151-.19.247-.339.214-.157-.035-.254-.187-.221-.345.005-.025.015-.05.021-.075.052-.214.07-.224.282-.15Z" fill="#a7caec"/>
              <path d="M132.011,187.95c.041-.136.183-.213.322-.174.145.041.224.187.178.328-.044.133-.191.209-.326.168-.135-.041-.214-.188-.173-.322Z" fill="#a7caec"/>
              <path d="M135.121,187.676c.036-.114.13-.157.261-.12.126.036.198.163.16.284-.037.117-.162.181-.281.143-.125-.04-.184-.168-.141-.307Z" fill="#a7caec"/>
              <path d="M136.641,187.136c-.039.116-.157.177-.27.138-.112-.039-.171-.161-.132-.275.041-.124.164-.191.277-.152.113.039.168.165.126.29Z" fill="#a7caec"/>
              <path d="M133.761,185.846c.035-.114.157-.18.27-.147.114.034.179.155.143.27-.036.116-.153.179-.269.145-.117-.035-.18-.152-.144-.268Z" fill="#a7caec"/>
              <path d="M136.876,184.364c.037-.107.159-.163.267-.122.103.038.157.151.124.256-.035.111-.15.168-.262.13-.109-.037-.166-.155-.129-.264Z" fill="#a7caec"/>
              <path d="M132.606,189.245c-.106-.037-.159-.146-.124-.253.036-.112.151-.168.262-.128.105.038.159.149.125.254-.036.111-.151.167-.263.128Z" fill="#a7caec"/>
              <path d="M137.052,185.602c-.035.1-.137.152-.229.117-.095-.036-.15-.152-.117-.247.033-.098.132-.146.231-.113.102.034.151.138.115.242Z" fill="#a7caec"/>
              <path d="M131.334,187.199c.009-.029.016-.059.029-.086.04-.083.107-.114.192-.077.086.038.104.111.071.195-.017.044-.049.082-.068.125-.034.08-.09.12-.174.087-.086-.033-.096-.102-.067-.182.007-.02.014-.041.02-.062h-.003Z" fill="#a7caec"/>
              <path d="M135.99,188.916c-.03.098-.131.156-.224.127-.094-.029-.152-.146-.122-.243.029-.091.14-.148.231-.116.093.032.144.134.115.232Z" fill="#a7caec"/>
              <path d="M131.934,183.943c-.109-.031-.167-.119-.143-.214.023-.089.125-.145.217-.119.093.026.184.197.154.288-.024.072-.09.085-.228.045Z" fill="#a7caec"/>
              <path d="M133.269,183.432c-.034.095-.14.145-.235.105-.099-.042-.136-.12-.107-.223.028-.099.131-.148.23-.114.098.034.147.136.113.232Z" fill="#a7caec"/>
              <path d="M130.906,185.177c.034-.091.146-.139.24-.104.095.036.138.129.103.223-.036.094-.143.143-.236.107-.088-.034-.138-.14-.106-.226Z" fill="#a7caec"/>
              <path d="M132.705,187.052c-.09-.029-.143-.131-.116-.22.028-.094.137-.146.232-.111.09.033.139.134.108.223-.031.088-.134.138-.224.108Z" fill="#a7caec"/>
              <path d="M133.36,184.817c.075.036.114.102.087.196-.025.086-.129.138-.21.105-.089-.037-.123-.109-.098-.201.023-.085.127-.133.221-.1Z" fill="#a7caec"/>
              <path d="M133.824,188.768c.022.066.067.135.059.198-.011.093-.097.121-.182.096-.088-.026-.135-.105-.098-.184.026-.056.105-.087.161-.129l.059.019Z" fill="#a7caec"/>
              <path d="M135.093,186.519c-.042-.098-.083-.155-.082-.212,0-.022.097-.069.141-.061.078.015.112.085.073.162-.017.034-.062.054-.132.11Z" fill="#a7caec"/>
              <path d="M134.961,188.211c-.087.025-.145.061-.179.045-.036-.016-.05-.082-.074-.126.045-.022.094-.068.133-.06.037.007.063.071.12.141Z" fill="#a7caec"/>
              <path d="M133.451,187.841c.08-.023.133-.057.165-.043.034.015.048.075.071.115-.044.023-.089.066-.131.062-.031-.003-.055-.067-.106-.134Z" fill="#a7caec"/>
              <path d="M130.673,187.623c.086-.024.141-.059.171-.043.033.017.06.081.056.121-.003.024-.077.062-.109.054-.036-.01-.061-.064-.118-.132Z" fill="#a7caec"/>
              <path d="M132.428,186.453c-.021-.083-.053-.137-.038-.167.017-.033.077-.043.118-.064.02.042.062.088.054.124-.007.033-.066.055-.135.107Z" fill="#a7caec"/>
              <path d="M132.51,185.592c-.023-.073-.056-.121-.044-.149.013-.03.076-.063.104-.055.029.009.062.071.057.104-.005.03-.059.053-.118.1Z" fill="#a7caec"/>
              <path d="M134.63,189.166c-.022-.073-.051-.119-.04-.151.009-.028.077-.064.096-.054.033.018.068.07.065.105-.003.029-.06.052-.121.1Z" fill="#a7caec"/>
              <path d="M133.918,189.249c.021.075.052.124.038.153-.015.031-.07.043-.108.064-.019-.038-.057-.08-.051-.114.006-.031.06-.053.121-.102Z" fill="#a7caec"/>
              <path d="M134.611,183.794c-.018-.059-.048-.108-.035-.128.019-.03.07-.039.108-.057.016.039.048.08.042.116-.004.024-.061.039-.115.069Z" fill="#a7caec"/>
              <path d="M136.518,183.928c-.064.014-.115.042-.137.027-.029-.02-.034-.073-.05-.112.037-.012.08-.042.109-.031.029.01.043.061.078.117Z" fill="#a7caec"/>
              <path d="M133.993,187.759c.057-.02.099-.05.12-.039.03.016.044.061.064.094-.035.016-.072.045-.105.042-.024-.002-.043-.05-.079-.097Z" fill="#a7caec"/>
              <path d="M134.53,186.998c.056-.019.091-.042.121-.036.018.004.047.065.038.077-.018.026-.058.048-.089.048-.019,0-.037-.045-.07-.089Z" fill="#a7caec"/>
            </g>
            <g>
              <path d="M140.489,187.698c.048.219-.129.373-.268.381-.166.01-.314-.104-.333-.265-.02-.169.099-.32.269-.341.027-.003.055-.002.083-.005.232-.023.249-.007.249.23Z" fill="#a7caec"/>
              <path d="M135.959,186.081c.151-.006.278.11.287.262.01.16-.109.29-.267.293-.149.002-.276-.119-.282-.269-.006-.149.114-.28.263-.286Z" fill="#a7caec"/>
              <path d="M137.318,189.102c.126-.004.203.076.211.22.008.139-.095.256-.229.26-.13.004-.237-.099-.241-.232-.004-.14.104-.243.258-.248Z" fill="#a7caec"/>
              <path d="M138.39,190.439c-.13.001-.232-.096-.232-.223,0-.126.102-.227.23-.229.138-.002.249.098.249.225,0,.127-.107.226-.247.227Z" fill="#a7caec"/>
              <path d="M138.679,187.101c.126-.004.235.095.241.219.006.126-.093.233-.22.238-.129.004-.233-.091-.239-.219-.006-.129.089-.233.219-.238Z" fill="#a7caec"/>
              <path d="M141.251,189.708c.12,0,.218.102.216.225-.003.116-.097.21-.213.213-.123.003-.221-.092-.222-.217,0-.122.097-.221.219-.221Z" fill="#a7caec"/>
              <path d="M134.868,187.128c0-.119.091-.21.211-.213.125-.003.221.093.22.218-.001.118-.094.212-.211.214-.124.002-.22-.093-.219-.219Z" fill="#a7caec"/>
              <path d="M140.071,190.315c-.113,0-.201-.084-.197-.188.003-.108.1-.203.206-.204.11,0,.193.082.194.192.001.114-.086.2-.203.2Z" fill="#a7caec"/>
              <path d="M136.476,185.14c.032,0,.065-.004.096,0,.097.011.152.068.144.166-.008.1-.075.143-.171.139-.05-.002-.099-.021-.149-.024-.092-.007-.151-.048-.148-.144.003-.098.069-.132.159-.131.023,0,.046,0,.069,0v-.004Z" fill="#a7caec"/>
              <path d="M136.378,190.406c-.109.005-.202-.077-.206-.18-.004-.104.093-.204.201-.207.102-.003.197.089.197.191,0,.105-.085.191-.192.196Z" fill="#a7caec"/>
              <path d="M139.95,184.606c-.006-.12.061-.209.164-.217.097-.008.189.074.195.176.006.102-.133.253-.235.254-.08,0-.117-.061-.125-.213Z" fill="#a7caec"/>
              <path d="M140.928,185.766c-.107,0-.194-.09-.187-.199.007-.114.072-.178.186-.185.109-.007.194.08.194.191,0,.11-.085.195-.193.194Z" fill="#a7caec"/>
              <path d="M138.354,184.005c.103.003.191.098.188.204-.003.108-.082.184-.187.18-.107-.004-.193-.094-.19-.199.003-.1.092-.187.189-.185Z" fill="#a7caec"/>
              <path d="M137.101,186.462c-.002-.1.081-.189.18-.193.104-.004.194.087.192.194-.002.102-.086.186-.186.186-.099,0-.185-.087-.187-.187Z" fill="#a7caec"/>
              <path d="M139.571,186.34c-.01.088-.062.15-.166.155-.095.004-.184-.081-.178-.174.006-.102.067-.161.167-.169.093-.007.178.08.177.187Z" fill="#a7caec"/>
              <path d="M135.771,188.183c-.059.045-.112.114-.177.128-.097.021-.155-.055-.159-.149-.004-.098.058-.172.15-.162.065.007.124.076.185.117l.002.066Z" fill="#a7caec"/>
              <path d="M138.469,188.671c.084-.076.127-.137.184-.156.023-.008.103.073.11.12.012.084-.046.142-.137.13-.04-.006-.076-.044-.157-.093Z" fill="#a7caec"/>
              <path d="M136.726,189.128c-.055-.079-.111-.124-.108-.164.004-.042.065-.079.101-.118.038.037.101.071.107.113.006.04-.049.088-.1.17Z" fill="#a7caec"/>
              <path d="M136.571,187.486c.051.073.103.114.101.151-.003.039-.058.074-.09.111-.038-.036-.098-.067-.108-.109-.008-.032.048-.079.098-.153Z" fill="#a7caec"/>
              <path d="M135.821,184.625c.054.078.108.121.103.156-.006.039-.06.089-.102.099-.024.006-.089-.056-.092-.091-.003-.04.043-.083.091-.164Z" fill="#a7caec"/>
              <path d="M137.606,185.976c.076-.05.119-.101.154-.096.039.005.07.062.105.096-.035.035-.067.093-.105.098-.035.005-.079-.047-.154-.098Z" fill="#a7caec"/>
              <path d="M138.497,185.759c.065-.049.101-.098.134-.096.035.003.09.054.091.086.001.032-.05.087-.084.093-.032.005-.073-.04-.141-.083Z" fill="#a7caec"/>
              <path d="M135.654,189.13c.066-.047.101-.093.137-.093.031,0,.091.055.087.078-.006.039-.047.093-.082.102-.03.007-.073-.042-.142-.087Z" fill="#a7caec"/>
              <path d="M135.321,188.445c-.068.047-.106.095-.14.092-.037-.004-.068-.055-.102-.086.032-.032.061-.086.097-.091.033-.005.074.041.145.085Z" fill="#a7caec"/>
              <path d="M141.032,187.238c.053-.038.091-.086.116-.079.037.009.064.057.095.088-.033.029-.064.076-.101.082-.025.004-.06-.048-.11-.091Z" fill="#a7caec"/>
              <path d="M141.563,189.197c-.037-.059-.082-.101-.074-.128.01-.036.061-.06.095-.089.025.033.07.066.069.099,0,.032-.046.064-.09.119Z" fill="#a7caec"/>
              <path d="M136.842,188c.04.05.085.082.081.107-.005.035-.046.065-.072.097-.028-.03-.071-.056-.079-.091-.006-.025.035-.06.07-.113Z" fill="#a7caec"/>
              <path d="M137.792,188.274c.038.049.074.077.079.109.003.02-.049.07-.064.065-.032-.009-.068-.042-.079-.073-.006-.019.032-.053.065-.101Z" fill="#a7caec"/>
            </g>
          </g>
        </g>
        <path d="M139.738,191.044s-3.201.157-6.324-.331-4.621-1.464-6.336-1.423,1.583,1.423,1.583,1.423c0,0-2.959-.581-4.313-.159-1.056.329.965.985.965.985,0,0-4.361-.537-5.869-.248s-4.175.62-6.407.248c-2.232-.372,1.013.992,2.935,1.033,1.922.041,2.976-.558,5.497-.207s6.534-.08,6.596-.411-2.554-.513-1.636-.622c.516-.061,1.228.018,3.017.207,3.385.356,9.073.827,10.292-.496Z" fill="#a7caec"/>
        <path d="M125.286,190.92s-1.07-.123-3.766-.144-3.267-.362-5.062-.336-7.489.116-9.762.142-4.078-.154-4.623-.143c-2.75.053,3.499.522,5.139.494,1.64-.028,2.802-.249,4.313-.235s5.24.287,6.957.235c1.717-.052,4.845.631,5.312.693,2.082.278,3.135-.592,1.492-.707Z" fill="#a7caec"/>
      </g>
    </g>
    <g id="l" data-name="encart_APRES">
      <path d="M91.989,233.808h77.147c1.263,0,2.288-1.024,2.288-2.288v-25.534c0-1.263-1.024-2.288-2.288-2.288h-33.146c-.817,0-1.573-.436-1.981-1.144l-2.455-4.253c-.44-.763-1.541-.763-1.981,0l-2.455,4.253c-.409.708-1.164,1.144-1.981,1.144h-33.146c-1.263,0-2.288,1.024-2.288,2.288v25.534c0,1.263,1.024,2.288,2.288,2.288Z" fill="#ffd66e" filter="url(#m)"/>
    </g>
    <g id="o" data-name="bateau_AVANT">
      <g>
        <g filter="url(#p)">
          <path d="M352.513,147.173s23.384,22.419,29.387,33.166c-7.72-1.695-18.798-.413-22.849,1.033l-6.538-34.2Z" fill="#93d1ad"/>
          <path d="M353.064,148.941s10.005,24.845,13.881,28.279c0,0-6.522,2.398-7.894,4.152l-5.987-32.431Z" fill="#6498d1" mix-blend-mode="multiply" opacity=".25"/>
          <path d="M352.513,148.829s-10.299,29.016-15.148,34.61l20.805-2.976-5.656-31.634Z" fill="#93d1ad"/>
          <path d="M352.879,150.041s-1.268,26.399-10.251,32.406l15.485-2.122-5.234-30.284Z" fill="#6498d1" mix-blend-mode="multiply" opacity=".25"/>
          <polygon points="352.028 146.422 352.618 146.312 360.413 184.536 358.454 184.9 352.028 146.422" fill="#fff"/>
          <path d="M341.073,186.424s37.819-4.349,41.704-5.051c-1.157,3.513-5.409,8.147-12.829,9.966,0,0-22.843-.666-26.222-.79-2.223-1.284-2.654-4.125-2.654-4.125Z" fill="#fff"/>
          <g clip-path="url(#r)">
            <path d="M370.57,192.61s5.449-1.528,9.087-7.68c.307-.519-.1-1.175-.701-1.121-5.913.53-29.543,2.514-36.186,3.207-.622.065-1.048.668-.881,1.271.3,1.082.999,2.627,2.593,3.254l26.089,1.07Z" fill="#6498d1" mix-blend-mode="multiply" opacity=".25"/>
          </g>
          <polygon points="336.037 184.07 358.169 181.212 358.112 180.325 335.854 183.509 336.037 184.07" fill="#fff"/>
        </g>
        <path d="M381.6,190.439c-.659-.523-1.83-.952-2.941-.965-2.001-.024-2.572.413-2.572.413-2.633-1.52-7.86-4.67-12.076-2.976s11.321,7.335,12.148,6.673-4.598-2.86-3.51-2.978c1.163-.126,3.019.025,4.094.273,1.446-.544,6.418.798,4.858-.441Z" fill="#a7caec"/>
        <g>
          <path d="M369.72,187.12c-1.26-1.069-3.006-1.539-4.632-1.247-.456.082-.945.253-1.176.655-.379.659.137,1.501-.03,2.242-.126.557-.633.967-1.18,1.132s-1.133.126-1.701.069c-1.436-.145-2.864-.401-4.307-.433s-2.931.178-4.18.9" fill="none"/>
          <g>
            <g>
              <path d="M354.721,189.592c.143.094.128.271.057.35-.085.094-.226.11-.322.033-.101-.081-.117-.227-.036-.329.013-.016.029-.031.042-.047.114-.136.132-.137.258-.007Z" fill="#a7caec"/>
              <path d="M351.393,191.124c.079-.084.21-.088.296-.01.09.082.095.216.01.302-.08.081-.214.083-.297.004-.083-.078-.087-.213-.009-.296Z" fill="#a7caec"/>
              <path d="M353.742,192.046c.067-.07.151-.067.232.007.078.072.085.19.014.263-.069.072-.182.073-.255.002-.076-.074-.073-.188.009-.273Z" fill="#a7caec"/>
              <path d="M355.038,192.203c-.07.07-.178.071-.245.002-.067-.068-.066-.178.003-.247.075-.075.188-.079.255-.01.068.069.062.18-.013.255Z" fill="#a7caec"/>
              <path d="M353.418,190.231c.066-.07.178-.074.248-.009.071.066.074.177.007.247-.068.071-.175.075-.247.008-.072-.067-.075-.174-.008-.246Z" fill="#a7caec"/>
              <path d="M356.207,190.281c.065-.064.174-.061.237.008.06.065.059.166-.003.23-.065.068-.169.068-.236,0-.066-.066-.065-.172.002-.237Z" fill="#a7caec"/>
              <path d="M351.357,192.276c-.063-.065-.062-.163.001-.228.066-.068.17-.067.236.002.062.065.062.165-.001.229-.066.067-.169.066-.236-.002Z" fill="#a7caec"/>
              <path d="M355.888,191.24c-.061.06-.154.061-.208.002-.056-.061-.054-.164.004-.221.059-.059.148-.058.208.002.061.062.06.155-.004.217Z" fill="#a7caec"/>
              <path d="M351.173,190.337c.017-.017.033-.037.052-.052.059-.046.119-.044.167.014.049.059.035.118-.019.167-.028.025-.065.041-.094.066-.054.045-.108.054-.157,0-.05-.055-.033-.109.017-.156.013-.012.025-.025.037-.037l-.002-.002Z" fill="#a7caec"/>
              <path d="M353.925,193.256c-.057.06-.151.066-.208.012-.057-.055-.058-.16,0-.22.054-.056.155-.056.209-.001.056.057.056.149,0,.209Z" fill="#a7caec"/>
              <path d="M352.781,188.196c-.067-.062-.078-.146-.026-.206.049-.056.142-.06.2-.008.058.052.062.209.007.264-.043.043-.096.029-.181-.05Z" fill="#a7caec"/>
              <path d="M353.931,188.306c-.059.057-.154.054-.208-.009-.057-.066-.056-.136.003-.2.056-.062.148-.06.207,0,.059.06.058.151-.002.208Z" fill="#a7caec"/>
              <path d="M351.592,188.719c.058-.053.156-.048.211.011.056.06.054.144-.006.198-.06.055-.155.052-.21-.007-.052-.056-.05-.151.005-.201Z" fill="#a7caec"/>
              <path d="M352.219,190.724c-.054-.054-.057-.146-.005-.201.054-.058.152-.056.208.003.053.056.052.147-.002.2-.054.052-.147.051-.201-.002Z" fill="#a7caec"/>
              <path d="M353.498,189.342c.041.054.046.115-.008.173-.049.053-.143.054-.19,0-.051-.059-.05-.123.001-.181.047-.054.14-.051.196.007Z" fill="#a7caec"/>
              <path d="M352.41,192.369c-.008.056,0,.122-.028.164-.042.063-.113.053-.166.004-.054-.051-.06-.124-.005-.168.039-.031.108-.025.163-.035l.036.035Z" fill="#a7caec"/>
              <path d="M354.139,191.198c.005-.086-.004-.142.017-.183.008-.016.095-.015.124.007.051.039.05.102-.006.144-.025.018-.065.017-.135.032Z" fill="#a7caec"/>
              <path d="M353.434,192.375c-.072-.014-.127-.008-.146-.032-.02-.025-.007-.078-.008-.118.041,0,.093-.015.118.004.024.019.02.074.036.146Z" fill="#a7caec"/>
              <path d="M352.475,191.563c.067.012.117.007.135.029.019.023.008.071.01.109-.04,0-.089.016-.117-.002-.021-.013-.016-.068-.028-.135Z" fill="#a7caec"/>
              <path d="M350.543,190.405c.071.013.123.008.139.03.018.024.015.081-.003.108-.01.016-.078.017-.098,0-.023-.02-.021-.068-.038-.138Z" fill="#a7caec"/>
              <path d="M352.234,190.19c.015-.068.011-.118.033-.135.024-.018.071-.004.109-.004,0,.038.013.086-.005.109-.017.021-.068.016-.136.029Z" fill="#a7caec"/>
              <path d="M352.604,189.597c.009-.061.003-.108.022-.124.02-.017.078-.019.095-.002.018.017.019.074.004.095-.015.02-.061.017-.121.03Z" fill="#a7caec"/>
              <path d="M352.851,192.947c.011-.061.006-.104.025-.124.017-.017.079-.018.089-.004.018.025.024.076.009.099-.012.02-.062.016-.124.029Z" fill="#a7caec"/>
              <path d="M352.305,192.751c-.012.062-.007.109-.027.124-.022.017-.066.006-.101.007,0-.035-.013-.079.004-.101.015-.02.062-.017.124-.031Z" fill="#a7caec"/>
              <path d="M354.772,189.053c.008-.049.004-.095.021-.105.025-.015.065-.003.099-.002-.003.034.005.075-.011.099-.011.016-.058.006-.108.009Z" fill="#a7caec"/>
              <path d="M356.104,189.837c-.052-.013-.098-.011-.109-.03-.014-.025.001-.065.004-.099.031.005.073-.001.09.017.017.018.009.06.014.112Z" fill="#a7caec"/>
              <path d="M352.896,191.699c.048.006.09,0,.101.015.016.022.01.06.013.091-.031-.001-.068.007-.091-.008-.016-.01-.013-.051-.022-.099Z" fill="#a7caec"/>
              <path d="M353.56,191.342c.047.007.081.002.101.017.012.009.01.064,0,.07-.022.012-.059.014-.082.003-.014-.007-.011-.046-.019-.09Z" fill="#a7caec"/>
            </g>
            <g>
              <path d="M359.331,190.337c.015.137-.102.219-.187.215-.102-.004-.185-.083-.186-.182-.002-.104.08-.189.185-.191.017,0,.034.002.051.002.143,0,.152.011.137.156Z" fill="#a7caec"/>
              <path d="M356.67,189.066c.092.006.162.084.159.178-.004.098-.085.17-.181.162-.091-.008-.161-.09-.155-.181.006-.091.087-.164.178-.158Z" fill="#a7caec"/>
              <path d="M357.309,190.994c.077.005.119.059.115.148-.004.085-.074.15-.156.144-.08-.006-.139-.075-.132-.157.007-.085.079-.142.173-.135Z" fill="#a7caec"/>
              <path d="M357.879,191.877c-.08-.007-.135-.073-.128-.151.008-.077.076-.132.154-.125.084.008.146.075.138.153-.008.078-.079.131-.165.123Z" fill="#a7caec"/>
              <path d="M358.264,189.859c.077.005.137.072.133.149-.004.077-.071.137-.149.131-.079-.006-.136-.07-.132-.149.004-.079.069-.137.148-.131Z" fill="#a7caec"/>
              <path d="M359.67,191.61c.073.007.127.076.117.151-.009.071-.072.122-.144.117-.076-.006-.129-.07-.122-.146.007-.075.073-.129.148-.121Z" fill="#a7caec"/>
              <path d="M355.938,189.637c.008-.072.069-.122.142-.117.076.006.129.071.12.147-.008.072-.07.123-.142.117-.076-.006-.128-.071-.12-.147Z" fill="#a7caec"/>
              <path d="M358.912,191.907c-.069-.007-.117-.064-.109-.127.009-.066.074-.118.139-.111.067.007.112.062.106.129-.007.07-.065.117-.136.109Z" fill="#a7caec"/>
              <path d="M357.044,188.525c.02.002.04.001.059.006.059.013.088.051.077.11-.011.06-.055.083-.113.074-.03-.004-.059-.019-.089-.024-.056-.01-.089-.039-.081-.097.008-.059.05-.076.105-.07.014.002.028.002.042.004v-.002Z" fill="#a7caec"/>
              <path d="M356.654,191.731c-.067-.004-.118-.06-.114-.122.004-.064.069-.118.135-.114.062.005.114.067.108.129-.006.064-.064.111-.13.107Z" fill="#a7caec"/>
              <path d="M359.196,188.417c.004-.074.05-.123.114-.122.06.001.111.057.108.12-.003.063-.097.146-.159.14-.049-.005-.067-.045-.063-.138Z" fill="#a7caec"/>
              <path d="M359.72,189.186c-.065-.007-.113-.067-.102-.133.011-.069.055-.104.125-.101.067.003.113.061.106.128-.007.067-.064.114-.13.106Z" fill="#a7caec"/>
              <path d="M358.26,187.95c.063.008.11.072.102.136-.008.066-.061.107-.126.098-.065-.009-.112-.069-.103-.134.008-.061.068-.109.127-.101Z" fill="#a7caec"/>
              <path d="M357.342,189.371c.005-.061.061-.11.122-.107.064.004.113.065.105.13-.007.062-.064.108-.125.102-.06-.006-.107-.064-.102-.126Z" fill="#a7caec"/>
              <path d="M358.856,189.451c-.012.053-.048.088-.111.084-.058-.003-.107-.061-.098-.117.01-.062.051-.094.113-.092.057.002.103.06.096.125Z" fill="#a7caec"/>
              <path d="M356.423,190.337c-.039.024-.076.063-.116.067-.061.007-.091-.043-.088-.101.003-.06.046-.101.102-.089.039.008.071.054.106.083l-.003.04Z" fill="#a7caec"/>
              <path d="M358.038,190.803c.056-.041.086-.076.122-.084.014-.003.058.051.059.08.002.052-.037.084-.092.07-.024-.006-.044-.031-.09-.067Z" fill="#a7caec"/>
              <path d="M356.946,190.973c-.029-.051-.06-.083-.055-.107.005-.025.044-.044.069-.066.021.025.057.05.058.075,0,.025-.035.051-.072.097Z" fill="#a7caec"/>
              <path d="M356.955,189.962c.027.047.056.076.052.098-.004.024-.04.042-.062.062-.021-.024-.055-.047-.059-.074-.003-.02.034-.045.069-.087Z" fill="#a7caec"/>
              <path d="M356.676,188.17c.028.051.058.081.053.102-.006.024-.042.05-.068.054-.015.002-.051-.04-.05-.061,0-.024.031-.048.066-.095Z" fill="#a7caec"/>
              <path d="M357.681,189.106c.049-.026.079-.054.1-.049.023.006.039.042.058.065-.023.019-.046.052-.07.053-.022,0-.045-.034-.088-.07Z" fill="#a7caec"/>
              <path d="M358.238,189.029c.042-.026.068-.054.088-.05.021.004.052.039.05.058-.001.02-.036.05-.057.051-.02.001-.042-.029-.081-.059Z" fill="#a7caec"/>
              <path d="M356.292,190.907c.043-.025.068-.05.089-.048.019.002.052.039.048.053-.006.024-.034.054-.057.057-.019.002-.042-.03-.081-.062Z" fill="#a7caec"/>
              <path d="M356.132,190.469c-.044.025-.071.051-.091.047-.022-.005-.038-.038-.057-.059.021-.018.042-.048.065-.05.021,0,.043.03.083.061Z" fill="#a7caec"/>
              <path d="M359.691,190.09c.035-.02.061-.046.076-.041.022.008.035.039.052.06-.022.016-.044.042-.067.044-.016.001-.034-.033-.061-.063Z" fill="#a7caec"/>
              <path d="M359.892,191.318c-.019-.038-.044-.067-.037-.083.008-.021.041-.033.063-.048.013.022.038.045.036.065-.002.02-.032.036-.062.067Z" fill="#a7caec"/>
              <path d="M357.088,190.292c.021.033.047.055.043.07-.006.021-.032.037-.05.055-.015-.02-.039-.039-.042-.06-.002-.015.025-.034.05-.065Z" fill="#a7caec"/>
              <path d="M357.65,190.519c.02.032.04.052.041.071,0,.012-.034.039-.043.036-.019-.008-.039-.03-.044-.049-.003-.012.023-.03.046-.058Z" fill="#a7caec"/>
            </g>
            <g>
              <path d="M364.647,189.892c.045.182-.098.314-.214.325-.138.012-.265-.079-.285-.213-.021-.141.074-.27.215-.292.023-.004.046-.003.069-.006.193-.025.208-.013.214.186Z" fill="#a7caec"/>
              <path d="M360.823,188.657c.126-.009.235.084.246.211.012.133-.084.245-.216.251-.124.006-.234-.092-.243-.217-.009-.124.088-.237.212-.245Z" fill="#a7caec"/>
              <path d="M362.035,191.146c.106-.007.172.058.182.178.01.116-.072.216-.184.223-.109.007-.201-.077-.207-.188-.007-.117.081-.205.209-.214Z" fill="#a7caec"/>
              <path d="M362.965,192.234c-.109.004-.196-.074-.2-.18-.003-.105.079-.192.186-.197.115-.005.21.076.214.181.003.106-.083.191-.2.196Z" fill="#a7caec"/>
              <path d="M363.12,189.439c.105-.007.199.073.207.177.008.105-.072.197-.178.204-.108.007-.197-.07-.205-.177-.008-.108.069-.197.176-.204Z" fill="#a7caec"/>
              <path d="M365.335,191.55c.1-.003.185.08.186.182,0,.097-.075.178-.173.184-.103.006-.187-.071-.191-.175-.004-.102.075-.187.178-.19Z" fill="#a7caec"/>
              <path d="M359.939,189.56c-.003-.099.071-.178.17-.183.104-.005.187.072.189.176.002.099-.073.179-.171.184-.104.005-.186-.072-.189-.177Z" fill="#a7caec"/>
              <path d="M364.366,192.088c-.094.003-.17-.065-.17-.152,0-.09.078-.172.167-.175.092-.003.163.063.167.156.004.095-.067.169-.164.172Z" fill="#a7caec"/>
              <path d="M361.23,187.858c.027-.001.054-.005.08-.003.082.007.129.053.124.135-.004.083-.059.122-.139.12-.042,0-.083-.015-.125-.016-.077-.003-.128-.036-.128-.116,0-.082.054-.112.13-.113.019,0,.038-.002.057-.003v-.003Z" fill="#a7caec"/>
              <path d="M361.284,192.259c-.091.007-.171-.059-.176-.145-.006-.087.072-.172.162-.178.085-.005.167.069.17.154.003.087-.066.162-.156.168Z" fill="#a7caec"/>
              <path d="M364.117,187.323c-.008-.1.045-.176.132-.186.081-.009.16.057.167.142.008.085-.105.215-.19.218-.067.003-.099-.048-.109-.175Z" fill="#a7caec"/>
              <path d="M364.964,188.267c-.09.002-.164-.07-.161-.162.003-.095.056-.151.151-.159.091-.008.164.062.167.154.003.092-.066.165-.156.167Z" fill="#a7caec"/>
              <path d="M362.769,186.863c.086,0,.162.077.162.165,0,.09-.063.156-.152.155-.09,0-.164-.073-.164-.162,0-.084.072-.159.153-.159Z" fill="#a7caec"/>
              <path d="M361.787,188.947c-.004-.084.063-.16.145-.166.087-.006.164.067.166.157.001.085-.067.158-.151.16-.083.002-.157-.068-.161-.151Z" fill="#a7caec"/>
              <path d="M363.846,188.781c-.006.074-.048.127-.135.134-.079.006-.156-.063-.153-.14.002-.085.051-.136.135-.145.078-.008.151.063.153.152Z" fill="#a7caec"/>
              <path d="M360.72,190.418c-.048.039-.091.098-.145.112-.081.02-.131-.042-.137-.12-.006-.081.044-.145.121-.139.054.004.105.06.158.093l.003.055Z" fill="#a7caec"/>
              <path d="M362.985,190.756c.068-.066.102-.118.149-.135.019-.007.088.058.095.097.013.069-.035.12-.111.112-.034-.004-.065-.035-.133-.074Z" fill="#a7caec"/>
              <path d="M361.542,191.182c-.048-.064-.096-.101-.094-.134.002-.035.052-.068.081-.102.033.03.086.057.092.091.006.033-.038.075-.079.144Z" fill="#a7caec"/>
              <path d="M361.37,189.815c.045.059.089.092.088.123-.001.033-.046.064-.072.095-.033-.029-.083-.053-.093-.089-.007-.026.038-.067.078-.13Z" fill="#a7caec"/>
              <path d="M360.67,187.445c.047.063.093.098.09.128-.004.033-.048.076-.083.085-.02.005-.076-.044-.079-.073-.003-.033.034-.07.072-.14Z" fill="#a7caec"/>
              <path d="M362.195,188.528c.062-.044.097-.087.127-.084.032.003.06.05.09.078-.028.03-.053.079-.086.084-.029.005-.067-.037-.131-.078Z" fill="#a7caec"/>
              <path d="M362.934,188.323c.053-.042.082-.085.11-.083.029.001.077.043.078.069.002.027-.039.074-.068.08-.027.005-.062-.032-.12-.066Z" fill="#a7caec"/>
              <path d="M360.646,191.211c.054-.041.082-.08.112-.081.026,0,.077.044.075.063-.004.033-.037.079-.066.087-.025.007-.062-.033-.121-.069Z" fill="#a7caec"/>
              <path d="M360.351,190.649c-.055.041-.086.082-.114.08-.031-.002-.058-.044-.087-.069.026-.028.048-.073.078-.079.028-.005.063.032.123.067Z" fill="#a7caec"/>
              <path d="M365.089,189.493c.043-.033.074-.074.095-.069.031.007.055.046.081.071-.027.025-.051.065-.083.071-.021.004-.051-.038-.094-.073Z" fill="#a7caec"/>
              <path d="M365.583,191.115c-.032-.049-.071-.082-.065-.105.007-.03.05-.052.077-.077.022.027.06.053.06.081,0,.027-.037.055-.072.101Z" fill="#a7caec"/>
              <path d="M361.609,190.238c.035.041.073.066.07.087-.004.03-.037.056-.058.083-.024-.024-.06-.045-.068-.074-.005-.02.028-.051.055-.096Z" fill="#a7caec"/>
              <path d="M362.41,190.442c.033.04.064.062.068.089.003.016-.039.059-.052.056-.027-.007-.058-.033-.068-.059-.006-.016.026-.045.051-.086Z" fill="#a7caec"/>
            </g>
            <g>
              <path d="M366.297,184.42c.21.025.292.23.256.356-.043.151-.19.247-.339.214-.157-.035-.254-.187-.221-.345.005-.025.015-.05.021-.075.052-.214.07-.224.282-.15Z" fill="#a7caec"/>
              <path d="M363.456,187.95c.041-.136.183-.213.322-.174.145.041.224.187.178.328-.044.133-.191.209-.326.168-.135-.041-.214-.188-.173-.322Z" fill="#a7caec"/>
              <path d="M366.566,187.676c.036-.114.13-.157.261-.12.126.036.198.163.16.284-.037.117-.162.181-.281.143-.125-.04-.184-.168-.141-.307Z" fill="#a7caec"/>
              <path d="M368.086,187.136c-.039.116-.157.177-.27.138-.112-.039-.171-.161-.132-.275.041-.124.164-.191.277-.152.113.039.168.165.126.29Z" fill="#a7caec"/>
              <path d="M365.206,185.846c.035-.114.157-.18.27-.147.114.034.179.155.143.27-.036.116-.153.179-.269.145-.117-.035-.18-.152-.144-.268Z" fill="#a7caec"/>
              <path d="M368.322,184.364c.037-.107.159-.163.267-.122.103.038.157.151.124.256-.035.111-.15.168-.262.13-.109-.037-.166-.155-.129-.264Z" fill="#a7caec"/>
              <path d="M364.051,189.245c-.106-.037-.159-.146-.124-.253.036-.112.151-.168.262-.128.105.038.159.149.125.254-.036.111-.151.167-.263.128Z" fill="#a7caec"/>
              <path d="M368.497,185.602c-.035.1-.137.152-.229.117-.095-.036-.15-.152-.117-.247.033-.098.132-.146.231-.113.102.034.151.138.115.242Z" fill="#a7caec"/>
              <path d="M362.779,187.199c.009-.029.016-.059.029-.086.04-.083.107-.114.192-.077.086.038.104.111.071.195-.017.044-.049.082-.068.125-.034.08-.09.12-.174.087-.086-.033-.096-.102-.067-.182.007-.02.014-.041.02-.062h-.003Z" fill="#a7caec"/>
              <path d="M367.435,188.916c-.03.098-.131.156-.224.127-.094-.029-.152-.146-.122-.243.029-.091.14-.148.231-.116.093.032.144.134.115.232Z" fill="#a7caec"/>
              <path d="M363.379,183.943c-.109-.031-.167-.119-.143-.214.023-.089.125-.145.217-.119.093.026.184.197.154.288-.024.072-.09.085-.228.045Z" fill="#a7caec"/>
              <path d="M364.714,183.432c-.034.095-.14.145-.235.105-.099-.042-.136-.12-.107-.223.028-.099.131-.148.23-.114.098.034.147.136.113.232Z" fill="#a7caec"/>
              <path d="M362.351,185.177c.034-.091.146-.139.24-.104.095.036.138.129.103.223-.036.094-.143.143-.236.107-.088-.034-.138-.14-.106-.226Z" fill="#a7caec"/>
              <path d="M364.15,187.052c-.09-.029-.143-.131-.116-.22.028-.094.137-.146.232-.111.09.033.139.134.108.223-.031.088-.134.138-.224.108Z" fill="#a7caec"/>
              <path d="M364.805,184.817c.075.036.114.102.087.196-.025.086-.129.138-.21.105-.089-.037-.123-.109-.098-.201.023-.085.127-.133.221-.1Z" fill="#a7caec"/>
              <path d="M365.269,188.768c.022.066.067.135.059.198-.011.093-.097.121-.182.096-.088-.026-.135-.105-.098-.184.026-.056.105-.087.161-.129l.059.019Z" fill="#a7caec"/>
              <path d="M366.538,186.519c-.042-.098-.083-.155-.082-.212,0-.022.097-.069.141-.061.078.015.112.085.073.162-.017.034-.062.054-.132.11Z" fill="#a7caec"/>
              <path d="M366.406,188.211c-.087.025-.145.061-.179.045-.036-.016-.05-.082-.074-.126.045-.022.094-.068.133-.06.037.007.063.071.12.141Z" fill="#a7caec"/>
              <path d="M364.896,187.841c.08-.023.133-.057.165-.043.034.015.048.075.071.115-.044.023-.089.066-.131.062-.031-.003-.055-.067-.106-.134Z" fill="#a7caec"/>
              <path d="M362.118,187.623c.086-.024.141-.059.171-.043.033.017.06.081.056.121-.003.024-.077.062-.109.054-.036-.01-.061-.064-.118-.132Z" fill="#a7caec"/>
              <path d="M363.873,186.453c-.021-.083-.053-.137-.038-.167.017-.033.077-.043.118-.064.02.042.062.088.054.124-.007.033-.066.055-.135.107Z" fill="#a7caec"/>
              <path d="M363.955,185.592c-.023-.073-.056-.121-.044-.149.013-.03.076-.063.104-.055.029.009.062.071.057.104-.005.03-.059.053-.118.1Z" fill="#a7caec"/>
              <path d="M366.075,189.166c-.022-.073-.051-.119-.04-.151.009-.028.077-.064.096-.054.033.018.068.07.065.105-.003.029-.06.052-.121.1Z" fill="#a7caec"/>
              <path d="M365.363,189.249c.021.075.052.124.038.153-.015.031-.07.043-.108.064-.019-.038-.057-.08-.051-.114.006-.031.06-.053.121-.102Z" fill="#a7caec"/>
              <path d="M366.056,183.794c-.018-.059-.048-.108-.035-.128.019-.03.07-.039.108-.057.016.039.048.08.042.116-.004.024-.061.039-.115.069Z" fill="#a7caec"/>
              <path d="M367.963,183.928c-.064.014-.115.042-.137.027-.029-.02-.034-.073-.05-.112.037-.012.08-.042.109-.031.029.01.043.061.078.117Z" fill="#a7caec"/>
              <path d="M365.438,187.759c.057-.02.099-.05.12-.039.03.016.044.061.064.094-.035.016-.072.045-.105.042-.024-.002-.043-.05-.079-.097Z" fill="#a7caec"/>
              <path d="M365.975,186.998c.056-.019.091-.042.121-.036.018.004.047.065.038.077-.018.026-.058.048-.089.048-.019,0-.037-.045-.07-.089Z" fill="#a7caec"/>
            </g>
            <g>
              <path d="M371.934,187.698c.048.219-.129.373-.268.381-.166.01-.314-.104-.333-.265-.02-.169.099-.32.269-.341.027-.003.055-.002.083-.005.232-.023.249-.007.249.23Z" fill="#a7caec"/>
              <path d="M367.404,186.081c.151-.006.278.11.287.262.01.16-.109.29-.267.293-.149.002-.276-.119-.282-.269-.006-.149.114-.28.263-.286Z" fill="#a7caec"/>
              <path d="M368.763,189.102c.126-.004.203.076.211.22.008.139-.095.256-.229.26-.13.004-.237-.099-.241-.232-.004-.14.104-.243.258-.248Z" fill="#a7caec"/>
              <path d="M369.835,190.439c-.13.001-.232-.096-.232-.223,0-.126.102-.227.23-.229.138-.002.249.098.249.225,0,.127-.107.226-.247.227Z" fill="#a7caec"/>
              <path d="M370.124,187.101c.126-.004.235.095.241.219.006.126-.093.233-.22.238-.129.004-.233-.091-.239-.219-.006-.129.089-.233.219-.238Z" fill="#a7caec"/>
              <path d="M372.696,189.708c.12,0,.218.102.216.225-.003.116-.097.21-.213.213-.123.003-.221-.092-.222-.217,0-.122.097-.221.219-.221Z" fill="#a7caec"/>
              <path d="M366.313,187.128c0-.119.091-.21.211-.213.125-.003.221.093.22.218-.001.118-.094.212-.211.214-.124.002-.22-.093-.219-.219Z" fill="#a7caec"/>
              <path d="M371.516,190.315c-.113,0-.201-.084-.197-.188.003-.108.1-.203.206-.204.11,0,.193.082.194.192.001.114-.086.2-.203.2Z" fill="#a7caec"/>
              <path d="M367.921,185.14c.032,0,.065-.004.096,0,.097.011.152.068.144.166-.008.1-.075.143-.171.139-.05-.002-.099-.021-.149-.024-.092-.007-.151-.048-.148-.144.003-.098.069-.132.159-.131.023,0,.046,0,.069,0v-.004Z" fill="#a7caec"/>
              <path d="M367.823,190.406c-.109.005-.202-.077-.206-.18-.004-.104.093-.204.201-.207.102-.003.197.089.197.191,0,.105-.085.191-.192.196Z" fill="#a7caec"/>
              <path d="M371.395,184.606c-.006-.12.061-.209.164-.217.097-.008.189.074.195.176.006.102-.133.253-.235.254-.08,0-.117-.061-.125-.213Z" fill="#a7caec"/>
              <path d="M372.373,185.766c-.107,0-.194-.09-.187-.199.007-.114.072-.178.186-.185.109-.007.194.08.194.191,0,.11-.085.195-.193.194Z" fill="#a7caec"/>
              <path d="M369.799,184.005c.103.003.191.098.188.204-.003.108-.082.184-.187.18-.107-.004-.193-.094-.19-.199.003-.1.092-.187.189-.185Z" fill="#a7caec"/>
              <path d="M368.546,186.462c-.002-.1.081-.189.18-.193.104-.004.194.087.192.194-.002.102-.086.186-.186.186-.099,0-.185-.087-.187-.187Z" fill="#a7caec"/>
              <path d="M371.016,186.34c-.01.088-.062.15-.166.155-.095.004-.184-.081-.178-.174.006-.102.067-.161.167-.169.093-.007.178.08.177.187Z" fill="#a7caec"/>
              <path d="M367.216,188.183c-.059.045-.112.114-.177.128-.097.021-.155-.055-.159-.149-.004-.098.058-.172.15-.162.065.007.124.076.185.117l.002.066Z" fill="#a7caec"/>
              <path d="M369.914,188.671c.084-.076.127-.137.184-.156.023-.008.103.073.11.12.012.084-.046.142-.137.13-.04-.006-.076-.044-.157-.093Z" fill="#a7caec"/>
              <path d="M368.171,189.128c-.055-.079-.111-.124-.108-.164.004-.042.065-.079.101-.118.038.037.101.071.107.113.006.04-.049.088-.1.17Z" fill="#a7caec"/>
              <path d="M368.016,187.486c.051.073.103.114.101.151-.003.039-.058.074-.09.111-.038-.036-.098-.067-.108-.109-.008-.032.048-.079.098-.153Z" fill="#a7caec"/>
              <path d="M367.266,184.625c.054.078.108.121.103.156-.006.039-.06.089-.102.099-.024.006-.089-.056-.092-.091-.003-.04.043-.083.091-.164Z" fill="#a7caec"/>
              <path d="M369.051,185.976c.076-.05.119-.101.154-.096.039.005.07.062.105.096-.035.035-.067.093-.105.098-.035.005-.079-.047-.154-.098Z" fill="#a7caec"/>
              <path d="M369.942,185.759c.065-.049.101-.098.134-.096.035.003.09.054.091.086.001.032-.05.087-.084.093-.032.005-.073-.04-.141-.083Z" fill="#a7caec"/>
              <path d="M367.099,189.13c.066-.047.101-.093.137-.093.031,0,.091.055.087.078-.006.039-.047.093-.082.102-.03.007-.073-.042-.142-.087Z" fill="#a7caec"/>
              <path d="M366.767,188.445c-.068.047-.106.095-.14.092-.037-.004-.068-.055-.102-.086.032-.032.061-.086.097-.091.033-.005.074.041.145.085Z" fill="#a7caec"/>
              <path d="M372.477,187.238c.053-.038.091-.086.116-.079.037.009.064.057.095.088-.033.029-.064.076-.101.082-.025.004-.06-.048-.11-.091Z" fill="#a7caec"/>
              <path d="M373.008,189.197c-.037-.059-.082-.101-.074-.128.01-.036.061-.06.095-.089.025.033.07.066.069.099,0,.032-.046.064-.09.119Z" fill="#a7caec"/>
              <path d="M368.287,188c.04.05.085.082.081.107-.005.035-.046.065-.072.097-.028-.03-.071-.056-.079-.091-.006-.025.035-.06.07-.113Z" fill="#a7caec"/>
              <path d="M369.237,188.274c.038.049.074.077.079.109.003.02-.049.07-.064.065-.032-.009-.068-.042-.079-.073-.006-.019.032-.053.065-.101Z" fill="#a7caec"/>
            </g>
          </g>
        </g>
        <path d="M371.183,191.044s-3.201.157-6.324-.331-4.621-1.464-6.336-1.423,1.583,1.423,1.583,1.423c0,0-2.959-.581-4.313-.159-1.056.329.965.985.965.985,0,0-4.361-.537-5.869-.248s-4.175.62-6.407.248c-2.232-.372,1.013.992,2.935,1.033,1.922.041,2.976-.558,5.497-.207s6.534-.08,6.596-.411-2.554-.513-1.636-.622c.516-.061,1.228.018,3.017.207,3.385.356,9.073.827,10.292-.496Z" fill="#a7caec"/>
        <path d="M356.731,190.92s-1.07-.123-3.766-.144-3.267-.362-5.062-.336-7.489.116-9.762.142-4.078-.154-4.623-.143c-2.75.053,3.499.522,5.139.494,1.64-.028,2.802-.249,4.313-.235s5.24.287,6.957.235c1.717-.052,4.845.631,5.312.693,2.082.278,3.135-.592,1.492-.707Z" fill="#a7caec"/>
      </g>
    </g>
    <g id="s" data-name="encart_AVANT">
      <path d="M321.78,233.808h77.147c1.263,0,2.288-1.024,2.288-2.288v-25.534c0-1.263-1.024-2.288-2.288-2.288h-33.146c-.817,0-1.573-.436-1.981-1.144l-2.455-4.253c-.44-.763-1.541-.763-1.981,0l-2.455,4.253c-.409.708-1.164,1.144-1.981,1.144h-33.146c-1.263,0-2.288,1.024-2.288,2.288v25.534c0,1.263,1.024,2.288,2.288,2.288Z" fill="#ffd66e" filter="url(#t)"/>
    </g>
    <g id="v" data-name="bateau_PERSO">
      <g>
        <g>
          <path d="M202.138,192.306l-.3-.3" fill="none"/>
          <g>
            <path d="M205.777,193.793c.042.395-.299.631-.545.619-.294-.015-.532-.245-.535-.531-.002-.301.236-.545.539-.549.049,0,.098.007.147.007.413.005.44.035.394.454Z" fill="#fff"/>
            <path d="M198.113,190.068c.267.019.467.247.454.516-.014.283-.249.49-.527.463-.263-.025-.464-.263-.445-.528.018-.264.255-.471.518-.452Z" fill="#fff"/>
            <path d="M199.921,195.652c.224.017.343.173.329.429-.013.246-.216.432-.453.413-.23-.018-.399-.22-.379-.456.021-.247.23-.407.503-.386Z" fill="#fff"/>
            <path d="M201.55,198.213c-.23-.023-.39-.215-.366-.438.024-.221.223-.38.449-.358.244.024.419.221.395.444-.024.224-.232.377-.478.353Z" fill="#fff"/>
            <path d="M202.705,192.391c.223.016.395.212.382.432-.014.224-.209.393-.434.376-.228-.017-.393-.205-.379-.432.014-.229.202-.393.431-.376Z" fill="#fff"/>
            <path d="M206.73,197.48c.211.023.365.223.336.437-.027.204-.211.351-.417.334-.218-.018-.371-.205-.348-.425.022-.216.214-.37.429-.347Z" fill="#fff"/>
            <path d="M195.989,191.702c.024-.209.201-.353.412-.334.22.019.372.207.345.426-.025.208-.206.355-.413.336-.219-.02-.369-.207-.344-.428Z" fill="#fff"/>
            <path d="M204.535,198.322c-.198-.022-.337-.187-.311-.37.027-.19.215-.339.403-.319.193.02.323.181.304.376-.02.201-.19.335-.396.313Z" fill="#fff"/>
            <path d="M199.205,188.511c.057.005.115.005.169.017.169.039.254.148.221.32-.034.174-.16.238-.328.212-.087-.014-.17-.055-.257-.072-.16-.03-.257-.114-.233-.282.024-.171.147-.219.306-.2.04.005.081.008.121.012v-.007Z" fill="#fff"/>
            <path d="M198.014,197.767c-.192-.013-.341-.175-.328-.356.014-.184.203-.34.394-.325.179.014.329.195.31.374-.019.184-.186.32-.377.307Z" fill="#fff"/>
            <path d="M205.426,188.244c.012-.212.148-.356.332-.351.173.004.318.167.31.348-.009.181-.284.42-.463.402-.142-.014-.193-.13-.178-.399Z" fill="#fff"/>
            <path d="M206.924,190.475c-.189-.022-.324-.196-.291-.387.035-.2.162-.3.364-.29.194.01.326.178.305.373-.021.193-.187.327-.378.304Z" fill="#fff"/>
            <path d="M202.732,186.876c.181.025.317.209.292.395-.025.19-.179.308-.365.281-.188-.027-.322-.202-.296-.388.025-.176.199-.312.369-.289Z" fill="#fff"/>
            <path d="M200.051,190.961c.016-.177.179-.318.355-.306.184.012.325.19.301.379-.022.179-.188.312-.364.292-.174-.02-.309-.188-.292-.365Z" fill="#fff"/>
            <path d="M204.424,191.224c-.035.154-.139.253-.323.241-.168-.011-.308-.178-.28-.34.03-.178.148-.271.327-.264.166.006.298.176.276.364Z" fill="#fff"/>
            <path d="M197.374,193.734c-.112.067-.219.179-.337.192-.176.019-.262-.126-.252-.294.011-.173.135-.291.295-.256.113.024.203.157.303.241l-.01.117Z" fill="#fff"/>
            <path d="M202.031,195.115c.163-.118.25-.217.354-.239.041-.009.167.148.17.233.006.15-.109.241-.266.202-.07-.018-.125-.092-.258-.195Z" fill="#fff"/>
            <path d="M198.874,195.583c-.082-.149-.172-.24-.158-.309.015-.074.129-.127.2-.189.06.073.165.145.167.219.002.071-.103.145-.209.279Z" fill="#fff"/>
            <path d="M198.919,192.661c.077.138.16.22.148.285-.012.068-.116.12-.18.179-.061-.071-.159-.136-.169-.214-.008-.057.099-.13.201-.25Z" fill="#fff"/>
            <path d="M198.151,187.477c.08.147.167.234.151.295-.017.068-.124.145-.199.154-.044.005-.146-.116-.144-.177.003-.071.092-.138.192-.272Z" fill="#fff"/>
            <path d="M201.033,190.203c.143-.073.229-.154.291-.139.067.017.112.123.167.19-.068.055-.135.15-.205.152-.063.002-.129-.098-.253-.203Z" fill="#fff"/>
            <path d="M202.645,189.992c.123-.073.198-.153.255-.142.061.012.148.112.144.169-.004.056-.104.144-.166.147-.058.003-.121-.085-.233-.173Z" fill="#fff"/>
            <path d="M196.985,195.378c.125-.071.197-.144.26-.137.055.006.149.115.139.154-.018.068-.1.155-.165.163-.054.007-.12-.088-.234-.18Z" fill="#fff"/>
            <path d="M196.533,194.109c-.128.07-.206.147-.264.135-.064-.014-.109-.11-.162-.171.062-.051.123-.139.188-.142.06-.002.123.087.238.178Z" fill="#fff"/>
            <path d="M206.823,193.088c.1-.057.177-.133.221-.117.063.023.101.113.15.174-.065.045-.127.121-.195.125-.045.003-.096-.096-.176-.182Z" fill="#fff"/>
            <path d="M207.378,196.64c-.053-.112-.125-.194-.106-.24.025-.061.12-.094.184-.139.038.063.11.13.103.187-.007.057-.094.104-.181.191Z" fill="#fff"/>
            <path d="M199.296,193.619c.061.096.133.161.122.204-.017.061-.094.106-.146.158-.043-.058-.113-.113-.121-.176-.005-.044.073-.099.145-.186Z" fill="#fff"/>
            <path d="M200.916,194.286c.057.094.115.15.117.207.001.035-.1.113-.126.102-.055-.023-.113-.086-.125-.143-.008-.034.067-.087.134-.166Z" fill="#fff"/>
          </g>
        </g>
        <g>
          <path d="M266.381,190.858l-.3-.3" fill="none"/>
          <g>
            <path d="M268.178,196.146c-.314.405-.841.322-1.06.09-.261-.276-.278-.703-.024-.972.267-.283.705-.297.992-.031.046.043.085.093.13.138.381.373.378.425-.038.774Z" fill="#fff"/>
            <path d="M264.362,185.837c.232.256.215.647-.037.887-.266.252-.669.234-.905-.039-.223-.258-.198-.659.056-.889.253-.23.658-.211.887.041Z" fill="#fff"/>
            <path d="M261.064,192.653c.193.216.165.467-.076.693-.232.218-.586.209-.791-.019-.199-.222-.175-.561.053-.763.239-.211.578-.174.813.089Z" fill="#fff"/>
            <path d="M260.297,196.492c-.194-.226-.172-.548.05-.734.22-.185.547-.155.738.067.206.24.194.58-.028.766-.223.187-.552.144-.76-.098Z" fill="#fff"/>
            <path d="M266.568,192.099c.193.214.179.55-.03.744-.213.196-.546.179-.739-.037-.197-.22-.183-.542.033-.741.217-.2.539-.186.737.034Z" fill="#fff"/>
            <path d="M265.776,200.43c.176.21.141.533-.077.707-.208.166-.51.139-.687-.061-.187-.211-.163-.522.055-.707.213-.181.529-.154.709.06Z" fill="#fff"/>
            <path d="M260.926,185.463c.209-.174.502-.149.682.057.188.214.162.525-.059.705-.209.171-.508.147-.684-.056-.186-.214-.159-.522.061-.706Z" fill="#fff"/>
            <path d="M262.98,199.256c-.165-.197-.147-.475.04-.622.194-.153.502-.124.66.062.162.191.139.457-.053.621-.198.17-.476.143-.648-.061Z" fill="#fff"/>
            <path d="M266.769,185.36c.048.055.103.106.143.167.123.187.105.365-.079.496-.186.132-.362.078-.494-.095-.069-.091-.109-.204-.176-.296-.123-.171-.138-.336.034-.471.175-.138.333-.072.463.087.033.041.068.079.103.119l.007-.006Z" fill="#fff"/>
            <path d="M257.401,192.92c-.167-.183-.162-.467.013-.624.177-.159.493-.136.657.048.154.173.133.475-.045.625-.182.154-.459.132-.625-.05Z" fill="#fff"/>
            <path d="M272.803,190.662c.201-.187.455-.2.622-.031.157.159.147.44-.022.6-.17.161-.639.138-.791-.039-.119-.139-.064-.294.19-.531Z" fill="#fff"/>
            <path d="M272.207,194.078c-.156-.189-.127-.472.074-.62.21-.155.419-.135.598.054.172.182.145.457-.049.62-.192.161-.466.138-.623-.054Z" fill="#fff"/>
            <path d="M271.513,186.984c.146.184.109.477-.081.629-.193.154-.442.127-.591-.063-.151-.193-.12-.476.07-.626.18-.142.464-.114.602.061Z" fill="#fff"/>
            <path d="M265.37,188.398c.173-.15.451-.136.603.032.16.176.133.467-.058.622-.18.147-.453.123-.599-.053-.144-.174-.12-.451.053-.601Z" fill="#fff"/>
            <path d="M269.21,192.545c-.17.112-.355.111-.516-.064-.147-.16-.128-.441.042-.567.187-.139.38-.12.541.046.149.153.12.43-.067.585Z" fill="#fff"/>
            <path d="M260.403,188.593c-.165-.037-.365-.029-.485-.122-.18-.14-.132-.352.027-.498.164-.151.386-.15.504.025.084.124.049.327.067.495l-.113.1Z" fill="#fff"/>
            <path d="M263.509,194.035c.257.035.426.021.543.093.046.028.023.287-.049.368-.128.144-.317.128-.428-.05-.049-.079-.035-.197-.066-.411Z" fill="#fff"/>
            <path d="M260.15,191.654c.057-.212.054-.377.129-.429.08-.055.234-.003.355.002-.009.121.024.282-.04.353-.062.068-.226.044-.444.074Z" fill="#fff"/>
            <path d="M262.799,188.971c-.052.197-.047.348-.116.398-.072.053-.215.008-.327.006.007-.12-.026-.269.033-.35.044-.06.208-.033.411-.054Z" fill="#fff"/>
            <path d="M266.709,183.457c-.056.209-.054.367-.122.41-.077.048-.245.025-.323-.034-.046-.034-.033-.239.024-.294.065-.063.209-.047.421-.082Z" fill="#fff"/>
            <path d="M266.962,188.568c.199.059.351.06.395.13.048.075-.005.214-.014.326-.112-.01-.26.019-.326-.041-.06-.055-.033-.207-.054-.414Z" fill="#fff"/>
            <path d="M268.652,189.81c.18.042.321.034.365.095.046.065.038.237-.016.286-.054.049-.225.041-.286-.011-.057-.049-.037-.188-.062-.369Z" fill="#fff"/>
            <path d="M258.573,189.777c.18.046.311.041.364.104.046.054.037.24-.008.267-.078.047-.232.055-.299.005-.056-.042-.034-.189-.057-.376Z" fill="#fff"/>
            <path d="M259.284,188.191c-.182-.049-.323-.046-.366-.11-.047-.07-.003-.2.001-.304.104.008.239-.02.301.035.058.051.037.191.063.379Z" fill="#fff"/>
            <path d="M269.782,196.421c.144.037.284.034.31.088.038.078-.006.195-.016.296-.101-.015-.227,0-.293-.057-.044-.037-.005-.175-.001-.326Z" fill="#fff"/>
            <path d="M267.129,200.227c.05-.151.057-.292.115-.318.078-.035.195.019.296.035-.021.092-.013.219-.071.266-.057.047-.181.014-.339.017Z" fill="#fff"/>
            <path d="M262.296,190.2c-.029.144-.019.269-.068.299-.07.042-.182.015-.276.017.012-.093-.005-.206.044-.271.035-.046.157-.027.3-.044Z" fill="#fff"/>
            <path d="M263.211,192.267c-.031.139-.026.242-.075.297-.03.034-.194.016-.208-.017-.031-.07-.028-.181.011-.245.024-.039.14-.021.273-.035Z" fill="#fff"/>
          </g>
        </g>
        <g>
          <g filter="url(#w)">
            <path d="M221.916,125.443s38.432,36.847,48.298,54.51c-12.688-2.785-30.895-.679-37.552,1.698l-10.746-56.208Z" fill="#e86170"/>
            <path d="M222.822,128.349s16.443,40.834,22.814,46.477c0,0-10.72,3.941-12.974,6.824l-9.839-53.301Z" fill="#6498d1" mix-blend-mode="multiply" opacity=".25"/>
            <path d="M221.916,128.164s-16.926,47.689-24.897,56.883l34.193-4.891-9.296-51.992Z" fill="#e86170"/>
            <path d="M222.516,130.157s-2.083,43.387-16.847,53.26l25.449-3.487-8.602-49.773Z" fill="#6498d1" mix-blend-mode="multiply" opacity=".25"/>
            <polygon points="220.136 119.039 221.106 118.859 234.899 186.85 231.68 187.448 220.136 119.039" fill="#fff"/>
            <path d="M203.113,189.953s62.156-7.147,68.542-8.302c-1.902,5.774-8.89,13.39-21.084,16.379,0,0-37.543-1.094-43.096-1.298-3.654-2.11-4.361-6.779-4.361-6.779Z" fill="#fff"/>
            <g clip-path="url(#y)">
              <path d="M251.593,200.12s8.956-2.512,14.934-12.623c.504-.853-.165-1.931-1.152-1.842-9.718.871-48.554,4.132-59.473,5.27-1.022.107-1.723,1.099-1.448,2.089.494,1.778,1.641,4.318,4.261,5.348l42.878,1.758Z" fill="#6498d1" mix-blend-mode="multiply" opacity=".25"/>
            </g>
            <polygon points="194.837 186.084 231.212 181.387 231.118 179.93 194.535 185.163 194.837 186.084" fill="#fff"/>
            <path d="M221.916,118.312c1.907-1.633,4.683-3.439,7.723-1.355,9.664,6.622,8.01-.761,14.785-.131-4.344.997-4.512,7.738-11.949,7.978-4.597.148-4.699-2.517-9.259.715l-1.301-7.207Z" fill="#e86170"/>
          </g>
          <path d="M269.721,196.551c-1.083-.86-3.007-1.564-4.834-1.586-3.289-.04-4.226.679-4.226.679-4.328-2.499-12.918-7.676-19.847-4.891-6.929,2.785,18.606,12.055,19.965,10.968s-7.556-4.701-5.769-4.895c1.911-.208,4.962.041,6.728.449,2.376-.893,10.548,1.312,7.985-.724Z" fill="#a7caec"/>
          <path d="M252.6,197.547s-5.262.257-10.394-.543-7.594-2.406-10.414-2.338c-2.819.068,2.601,2.338,2.601,2.338,0,0-4.863-.955-7.089-.261-1.736.541,1.586,1.619,1.586,1.619,0,0-7.167-.883-9.647-.408s-6.861,1.019-10.53.408c-3.668-.611,1.664,1.63,4.823,1.698s4.891-.917,9.035-.34,10.739-.132,10.841-.675-4.198-.844-2.689-1.023c.848-.101,2.018.03,4.959.34,5.563.586,14.911,1.359,16.915-.815Z" fill="#a7caec"/>
          <path d="M228.848,197.342s-1.759-.202-6.19-.236-5.369-.594-8.319-.552-12.309.191-16.044.233c-3.735.042-6.702-.253-7.597-.236-4.52.087,5.751.858,8.446.812,2.695-.046,4.605-.409,7.088-.387s8.612.472,11.434.387c2.822-.085,7.962,1.037,8.73,1.139,3.421.456,5.152-.973,2.451-1.161Z" fill="#a7caec"/>
          <g>
            <path d="M250.195,191.097c-2.07-1.757-4.941-2.53-7.613-2.049-.75.135-1.553.416-1.933,1.076-.623,1.082.226,2.466-.049,3.684-.206.916-1.04,1.589-1.939,1.86-.899.271-1.862.208-2.796.114-2.36-.238-4.707-.66-7.078-.712-2.372-.052-4.817.292-6.87,1.48" fill="none"/>
            <g>
              <g>
                <path d="M233.133,196.759c-.014.278-.275.404-.444.369-.202-.042-.342-.227-.312-.425.031-.209.222-.351.433-.321.034.005.067.015.101.021.285.048.301.072.223.357Z" fill="#a7caec"/>
                <path d="M228.234,193.349c.183.042.297.222.258.407-.04.195-.225.312-.415.263-.179-.046-.292-.232-.251-.413.041-.181.228-.298.408-.257Z" fill="#a7caec"/>
                <path d="M228.879,197.41c.153.036.219.157.181.332-.036.169-.196.275-.358.237-.157-.037-.252-.196-.213-.357.041-.168.203-.257.39-.213Z" fill="#a7caec"/>
                <path d="M229.728,199.359c-.157-.041-.246-.191-.205-.343.041-.151.196-.239.349-.199.166.043.266.198.225.35-.041.152-.201.236-.369.192Z" fill="#a7caec"/>
                <path d="M231.159,195.456c.152.036.251.19.217.341-.034.153-.187.249-.341.213-.156-.037-.25-.185-.215-.34.035-.157.183-.25.339-.214Z" fill="#a7caec"/>
                <path d="M233.392,199.414c.144.039.228.194.185.339-.041.138-.184.22-.325.186-.149-.036-.235-.182-.195-.332.039-.147.188-.233.335-.193Z" fill="#a7caec"/>
                <path d="M226.586,194.249c.039-.142.177-.222.321-.186.15.037.235.184.192.333-.04.141-.181.223-.322.187-.149-.038-.233-.183-.192-.334Z" fill="#a7caec"/>
                <path d="M231.781,199.758c-.135-.037-.213-.166-.175-.29.039-.128.186-.211.313-.177.132.035.204.161.169.293-.036.137-.168.212-.308.174Z" fill="#a7caec"/>
                <path d="M229.158,192.39c.039.01.079.016.115.03.113.045.16.13.118.245-.042.117-.137.147-.25.111-.059-.019-.112-.057-.17-.078-.108-.038-.166-.107-.131-.221.035-.116.126-.136.233-.105.027.008.055.014.083.021v-.005Z" fill="#a7caec"/>
                <path d="M227.329,198.666c-.132-.03-.217-.158-.188-.282.029-.126.178-.214.308-.182.123.029.207.171.174.293-.033.125-.163.201-.294.172Z" fill="#a7caec"/>
                <path d="M233.492,192.881c.031-.146.141-.23.268-.207.119.022.202.15.176.274-.026.124-.242.26-.364.228-.096-.025-.12-.111-.08-.295Z" fill="#a7caec"/>
                <path d="M234.287,194.588c-.128-.036-.203-.171-.159-.3.046-.134.145-.19.283-.161.133.028.206.159.171.291-.036.132-.165.206-.294.169Z" fill="#a7caec"/>
                <path d="M231.776,191.642c.122.037.197.179.159.305-.038.128-.157.194-.283.155-.127-.039-.201-.175-.163-.301.036-.119.171-.194.287-.16Z" fill="#a7caec"/>
                <path d="M229.478,194.178c.03-.121.159-.2.279-.173.126.029.204.167.167.295-.035.121-.164.195-.283.162-.118-.033-.193-.164-.163-.284Z" fill="#a7caec"/>
                <path d="M232.475,194.835c-.041.102-.124.16-.25.132-.115-.026-.194-.157-.157-.266.04-.12.132-.171.255-.147.114.022.187.154.151.282Z" fill="#a7caec"/>
                <path d="M227.324,195.806c-.085.035-.171.1-.254.096-.124-.006-.168-.116-.142-.231.026-.118.125-.187.232-.145.076.029.123.131.184.2l-.019.08Z" fill="#a7caec"/>
                <path d="M230.397,197.267c.125-.064.196-.123.271-.127.029-.002.099.121.092.179-.012.104-.102.155-.206.111-.046-.02-.077-.077-.157-.163Z" fill="#a7caec"/>
                <path d="M228.162,197.248c-.04-.112-.093-.185-.076-.231.018-.049.103-.074.159-.109.034.057.098.118.092.17-.006.05-.087.089-.175.171Z" fill="#a7caec"/>
                <path d="M228.509,195.231c.038.104.087.17.072.213-.016.046-.093.07-.144.104-.034-.055-.095-.111-.094-.166,0-.04.083-.079.167-.151Z" fill="#a7caec"/>
                <path d="M228.541,191.561c.04.111.09.18.073.221-.019.045-.101.087-.154.085-.031-.001-.089-.096-.081-.138.009-.049.078-.086.162-.167Z" fill="#a7caec"/>
                <path d="M230.24,193.76c.107-.035.175-.082.216-.065.045.019.064.097.095.15-.053.03-.11.089-.158.083-.044-.006-.079-.082-.153-.168Z" fill="#a7caec"/>
                <path d="M231.378,193.789c.093-.037.153-.085.192-.071.041.015.09.094.082.132-.009.039-.088.088-.131.084-.041-.004-.075-.072-.142-.145Z" fill="#a7caec"/>
                <path d="M226.876,196.902c.094-.035.152-.078.194-.067.037.01.091.096.079.122-.02.045-.086.096-.132.095-.038-.001-.074-.074-.142-.15Z" fill="#a7caec"/>
                <path d="M226.701,195.974c-.097.035-.158.08-.197.065-.042-.017-.063-.088-.094-.136.049-.028.1-.083.145-.078.042.005.076.073.146.149Z" fill="#a7caec"/>
                <path d="M233.933,196.385c.076-.028.137-.073.165-.057.041.023.058.089.085.137-.05.024-.101.07-.148.066-.031-.003-.056-.077-.102-.145Z" fill="#a7caec"/>
                <path d="M233.931,198.904c-.025-.083-.065-.148-.048-.178.024-.04.093-.052.143-.076.019.048.062.102.051.141-.011.039-.076.062-.146.113Z" fill="#a7caec"/>
                <path d="M228.667,195.935c.032.073.075.126.062.154-.018.041-.077.063-.118.093-.024-.045-.066-.091-.065-.135.001-.031.062-.061.12-.113Z" fill="#a7caec"/>
                <path d="M229.715,196.572c.03.071.064.116.059.156-.003.025-.081.067-.098.057-.035-.022-.069-.072-.071-.113-.002-.025.056-.053.111-.1Z" fill="#a7caec"/>
              </g>
              <g>
                <path d="M242.834,188.388c.473.122.598.616.478.895-.144.332-.511.508-.842.387-.348-.127-.526-.506-.4-.857.02-.057.05-.11.071-.166.184-.474.23-.492.693-.258Z" fill="#a7caec"/>
                <path d="M235.24,195.61c.137-.299.486-.432.791-.301.32.138.457.497.306.807-.142.292-.502.421-.8.286-.296-.135-.432-.497-.297-.792Z" fill="#a7caec"/>
                <path d="M242.451,195.933c.116-.25.347-.321.636-.195.278.121.404.435.281.7-.12.258-.426.365-.688.241-.275-.13-.37-.441-.228-.746Z" fill="#a7caec"/>
                <path d="M246.103,195.161c-.125.255-.415.357-.662.232-.245-.123-.342-.421-.219-.671.133-.271.435-.388.681-.264.248.124.334.43.2.703Z" fill="#a7caec"/>
                <path d="M239.895,191.321c.115-.25.415-.364.663-.253.252.112.362.41.246.662-.119.255-.406.364-.661.25-.257-.115-.366-.403-.248-.659Z" fill="#a7caec"/>
                <path d="M247.491,188.879c.117-.234.414-.324.649-.199.224.12.314.394.205.624-.115.243-.396.339-.64.218-.239-.119-.334-.406-.214-.644Z" fill="#a7caec"/>
                <path d="M236.206,198.76c-.231-.118-.32-.383-.207-.618.117-.245.399-.339.64-.214.228.119.32.39.209.62-.117.244-.397.336-.641.212Z" fill="#a7caec"/>
                <path d="M247.514,191.77c-.11.219-.361.308-.56.199-.207-.113-.297-.394-.194-.602.107-.214.348-.294.564-.188.223.11.305.363.19.59Z" fill="#a7caec"/>
                <path d="M233.917,193.681c.031-.063.055-.13.093-.188.118-.179.281-.229.464-.117.186.114.205.287.103.469-.053.095-.137.172-.193.266-.103.172-.242.247-.426.147-.187-.102-.189-.264-.098-.438.023-.044.044-.09.066-.135l-.008-.004Z" fill="#a7caec"/>
                <path d="M244.064,199.042c-.098.216-.348.317-.551.224-.206-.095-.305-.381-.205-.594.094-.201.366-.295.565-.196.204.102.289.352.192.566Z" fill="#a7caec"/>
                <path d="M236.29,186.4c-.239-.105-.346-.323-.261-.533.08-.198.33-.295.534-.207.205.088.362.508.264.707-.077.157-.233.167-.536.033Z" fill="#a7caec"/>
                <path d="M239.506,185.636c-.107.207-.366.289-.571.168-.215-.126-.276-.316-.178-.544.095-.219.346-.299.561-.19.214.108.296.356.188.566Z" fill="#a7caec"/>
                <path d="M233.554,188.914c.106-.197.377-.275.581-.166.207.111.278.339.167.542-.112.205-.372.284-.574.174-.192-.104-.274-.363-.173-.55Z" fill="#a7caec"/>
                <path d="M237.104,193.763c-.197-.095-.288-.344-.199-.54.094-.206.359-.292.567-.184.196.103.278.351.179.544-.098.192-.35.274-.546.179Z" fill="#a7caec"/>
                <path d="M239.291,188.839c.162.106.231.269.138.476-.085.189-.338.278-.513.176-.192-.112-.248-.287-.163-.491.078-.189.331-.267.538-.161Z" fill="#a7caec"/>
                <path d="M239.144,198.04c.029.158.112.33.076.471-.054.21-.258.248-.447.163-.194-.087-.277-.281-.168-.451.077-.12.268-.166.409-.245l.13.061Z" fill="#a7caec"/>
                <path d="M242.742,193.272c-.066-.238-.142-.381-.123-.511.007-.051.242-.128.341-.096.175.058.231.23.118.394-.05.073-.16.105-.335.213Z" fill="#a7caec"/>
                <path d="M241.92,197.109c-.207.03-.35.095-.424.049-.078-.049-.091-.203-.132-.312.11-.038.237-.127.324-.098.083.028.123.181.232.361Z" fill="#a7caec"/>
                <path d="M238.573,195.799c.192-.029.322-.089.392-.048.073.044.088.186.128.285-.107.039-.225.124-.319.103-.069-.016-.107-.17-.202-.34Z" fill="#a7caec"/>
                <path d="M232.272,194.449c.204-.029.342-.091.405-.047.071.049.114.205.092.295-.013.053-.196.119-.266.09-.08-.033-.119-.165-.23-.338Z" fill="#a7caec"/>
                <path d="M236.654,192.304c-.023-.196-.079-.33-.035-.395.048-.07.19-.076.291-.11.034.102.115.22.087.301-.025.074-.169.107-.343.203Z" fill="#a7caec"/>
                <path d="M237.105,190.357c-.032-.174-.091-.294-.054-.355.039-.065.193-.122.256-.094.063.029.121.182.098.255-.021.068-.151.103-.3.194Z" fill="#a7caec"/>
                <path d="M240.87,199.198c-.028-.175-.081-.288-.046-.358.03-.061.197-.123.237-.093.07.051.135.182.117.26-.015.065-.153.101-.308.191Z" fill="#a7caec"/>
                <path d="M239.213,199.172c.025.178.081.301.041.362-.043.067-.174.078-.267.113-.032-.094-.107-.202-.082-.277.023-.07.153-.104.308-.198Z" fill="#a7caec"/>
                <path d="M242.471,186.879c-.022-.14-.077-.262-.04-.304.054-.062.173-.068.265-.098.024.094.084.199.06.278-.016.053-.152.07-.286.124Z" fill="#a7caec"/>
                <path d="M246.803,187.77c-.151.013-.277.06-.322.019-.06-.055-.057-.178-.08-.272.089-.016.197-.071.26-.038.063.033.08.153.142.291Z" fill="#a7caec"/>
                <path d="M239.84,195.777c.137-.029.243-.084.287-.053.063.045.081.154.119.236-.086.025-.179.082-.254.064-.053-.013-.082-.127-.152-.247Z" fill="#a7caec"/>
                <path d="M241.306,194.198c.133-.026.222-.068.289-.046.041.014.087.163.063.189-.05.053-.148.092-.219.082-.043-.006-.071-.115-.133-.225Z" fill="#a7caec"/>
              </g>
              <g>
                <path d="M252.442,192.103c.075.229-.097.412-.244.436-.176.029-.347-.077-.385-.247-.04-.178.07-.353.25-.394.029-.007.059-.009.088-.014.246-.05.265-.035.291.219Z" fill="#a7caec"/>
                <path d="M247.425,190.871c.161-.023.309.087.335.248.028.17-.085.322-.254.342-.159.019-.308-.097-.331-.256-.023-.159.091-.312.25-.334Z" fill="#a7caec"/>
                <path d="M249.208,193.951c.135-.018.225.059.25.212.024.148-.073.283-.216.303-.139.019-.265-.08-.283-.222-.019-.149.084-.271.249-.293Z" fill="#a7caec"/>
                <path d="M250.5,195.261c-.139.016-.258-.077-.273-.213-.014-.134.084-.254.22-.27.148-.017.277.078.291.213.014.136-.089.253-.239.27Z" fill="#a7caec"/>
                <path d="M250.443,191.663c.134-.019.261.075.281.208.02.134-.074.26-.209.278-.138.019-.259-.072-.28-.208-.021-.137.07-.259.208-.278Z" fill="#a7caec"/>
                <path d="M253.477,194.167c.128-.013.245.086.255.217.01.125-.08.235-.205.251-.132.017-.246-.074-.261-.208-.014-.131.08-.247.21-.26Z" fill="#a7caec"/>
                <path d="M246.374,192.11c-.013-.127.074-.235.202-.25.133-.016.247.075.259.209.012.126-.077.236-.202.252-.132.016-.245-.076-.259-.21Z" fill="#a7caec"/>
                <path d="M252.283,194.945c-.12.012-.224-.068-.232-.18-.008-.116.084-.228.198-.24.117-.013.215.066.228.184.014.122-.07.223-.195.236Z" fill="#a7caec"/>
                <path d="M247.874,189.809c.034-.004.068-.012.103-.011.105.001.17.056.172.161.002.107-.065.161-.167.167-.054.003-.108-.011-.162-.01-.099.003-.167-.035-.174-.138-.007-.105.059-.149.156-.157.025-.002.049-.006.073-.009v-.004Z" fill="#a7caec"/>
                <path d="M248.347,195.447c-.116.017-.224-.06-.24-.169-.015-.111.077-.228.192-.243.108-.014.22.073.232.182.012.112-.069.214-.184.23Z" fill="#a7caec"/>
                <path d="M251.527,188.858c-.02-.127.042-.23.152-.25.103-.019.21.059.228.167.018.109-.115.285-.223.298-.086.01-.131-.052-.156-.214Z" fill="#a7caec"/>
                <path d="M252.7,189.99c-.115.011-.217-.075-.222-.192-.005-.123.058-.199.179-.218.116-.019.216.064.228.182.012.117-.069.218-.185.228Z" fill="#a7caec"/>
                <path d="M249.756,188.391c.11-.008.214.084.223.197.009.116-.067.205-.18.213-.115.008-.217-.079-.225-.192-.008-.108.078-.21.182-.218Z" fill="#a7caec"/>
                <path d="M248.687,191.154c-.013-.107.066-.211.171-.226.111-.016.217.071.227.186.01.109-.072.209-.178.219-.106.01-.207-.072-.22-.179Z" fill="#a7caec"/>
                <path d="M251.313,190.752c-.001.095-.05.167-.161.184-.101.015-.205-.066-.21-.166-.005-.11.053-.179.16-.198.099-.018.199.066.21.18Z" fill="#a7caec"/>
                <path d="M247.454,193.138c-.058.054-.107.134-.176.157-.102.033-.172-.041-.187-.142-.015-.104.043-.19.142-.19.07,0,.14.067.211.104l.009.07Z" fill="#a7caec"/>
                <path d="M250.39,193.364c.081-.091.121-.16.179-.187.023-.011.118.066.13.116.022.088-.034.157-.132.154-.044-.002-.086-.038-.178-.083Z" fill="#a7caec"/>
                <path d="M248.579,194.043c-.067-.078-.132-.12-.133-.163,0-.046.06-.092.094-.138.045.036.116.065.127.109.01.042-.042.099-.088.192Z" fill="#a7caec"/>
                <path d="M248.233,192.306c.063.072.123.11.124.15.001.042-.054.086-.084.129-.045-.034-.112-.06-.128-.105-.012-.033.042-.09.087-.174Z" fill="#a7caec"/>
                <path d="M247.117,189.331c.066.077.129.118.127.156-.002.042-.055.102-.098.117-.025.009-.102-.05-.108-.087-.007-.042.037-.093.079-.186Z" fill="#a7caec"/>
                <path d="M249.173,190.579c.075-.062.116-.121.155-.119.042.001.082.059.123.091-.033.041-.061.106-.102.116-.037.009-.089-.042-.176-.088Z" fill="#a7caec"/>
                <path d="M250.101,190.249c.064-.059.098-.116.133-.117.037,0,.102.048.107.082.005.034-.043.098-.08.108-.034.009-.083-.035-.16-.073Z" fill="#a7caec"/>
                <path d="M247.433,194.163c.065-.058.098-.11.136-.114.033-.004.103.049.102.074-.002.043-.04.105-.077.118-.031.011-.082-.037-.161-.077Z" fill="#a7caec"/>
                <path d="M247.003,193.468c-.067.058-.103.114-.139.113-.039,0-.079-.052-.118-.081.031-.038.055-.098.093-.108.035-.009.084.036.164.075Z" fill="#a7caec"/>
                <path d="M252.972,191.551c.052-.046.088-.102.116-.098.04.006.074.054.111.084-.033.035-.06.088-.099.099-.026.007-.069-.044-.127-.086Z" fill="#a7caec"/>
                <path d="M253.754,193.587c-.046-.059-.099-.099-.094-.129.007-.039.059-.071.092-.106.03.032.082.063.085.098.003.035-.042.074-.083.137Z" fill="#a7caec"/>
                <path d="M248.578,192.826c.048.049.1.078.098.105-.002.038-.042.075-.066.112-.033-.029-.082-.053-.094-.089-.009-.026.031-.068.062-.129Z" fill="#a7caec"/>
                <path d="M249.624,193.014c.046.048.087.074.096.108.005.021-.045.08-.062.077-.035-.007-.078-.037-.092-.069-.009-.019.029-.06.058-.115Z" fill="#a7caec"/>
              </g>
            </g>
          </g>
        </g>
      </g>
    </g>
    <g id="z" data-name="encart_PERSO">
      <path d="M279.939,31.468h-108.369c-2.326,0-4.212,1.886-4.212,4.212v47.01c0,2.326,1.886,4.212,4.212,4.212h44.193c1.505,0,2.895.803,3.648,2.106l4.52,7.829c.811,1.404,2.837,1.404,3.648,0l4.52-7.829c.752-1.303,2.143-2.106,3.648-2.106h44.193c2.326,0,4.212-1.886,4.212-4.212v-47.01c0-2.326-1.886-4.212-4.212-4.212Z" fill="#ffd66e" filter="url(#aa)"/>
    </g>
  </g>
</svg>