<?xml version="1.0" encoding="UTF-8"?>
<svg xmlns="http://www.w3.org/2000/svg" width="230" height="300" xmlns:xlink="http://www.w3.org/1999/xlink" viewBox="0 0 230 300">
  <defs>
    <filter id="b" data-name="drop-shadow-1" x="-51.741" y="36.668" width="332.022" height="234.444" filterUnits="userSpaceOnUse">
      <feOffset dx="-2.944" dy="0"/>
      <feGaussianBlur result="c" stdDeviation="0"/>
      <feFlood flood-color="#42496f" flood-opacity="1"/>
      <feComposite in2="c" operator="in"/>
      <feComposite in="SourceGraphic"/>
    </filter>
    <clipPath id="d">
      <path d="M96.75,259.369c-.561.447-1.009.804-1.553,1.237-.002-.045.006.119.014.309-2.511-.251-2.614-1.872-.077-2.266.994-.36,1.015-1.359,1.411-2.422-1.144.437-1.919.37-2.997.548.198.688.702.669,1.139,1.133-.378.399-.915.464-1.392.399-.129-.803-.807-1.956.092-2.55.849-.35-.146-1.325-.445-1.582-.453.217-.873.755-.485,1.253.242.367.399.679-.091,1.038-.93,2.571-2.378-.368-3.817-.861.033-.147.102-.447.195-.861-1.364.816-.713-2.5-2.298-.645-1.276-.825-1.697-3.806-3.357-3.415-.153.095-.566-.069-.677-.254-.623-2.03-2.514-2.905-3.182-4.777-.509-1.189-1.553-1.868-2.446-2.71-.082-.119-.583-.086-.676.045-.75.94-2.307.095-2.387-1.022-.239-.445-1.155-.889-1.093-1.563-.78-.894.034-.838.592-1.295-.561-.234-.684-.7-.677-1.361.143-.633-1.309-1.69-.311-2.024,1.144-.218.242-.922.23-1.744-.782,1.12-1.587,1.785-2.887,1.612-.588.479-.95.156-1.343-.209-1.013-1.111-2.531.362-3.432,1.092.076-2.954-3.681.707-5.138.926-.036-1.016-1.215-1.817-1.992-.815-1.767-.477-2.338-3.105-3.68-4.389-.279-1.206-1.885-.905-1.961-2.058-.136-1.28-1.807-1.472-1.797-2.886-1.132-.464-.882-1.998-1.698-2.704-1.402-1.798-5.104-4.047-4.522-6.367.703-.72,0-.938-.477-1.383-.368-.795-.79-.035-1.395-.188,1.478-1.617-1.152-1.834,1.024-4.69.241-.704-.668-.509-.872-.082-.542.969-1.318.835-2.07.734-.402-.431-.047-1.512-1.047-1.308-.068-.287-.137-.574-.209-.875-.975.236-1.516,1.255-.405,1.735-1.036.985-2.815,3.536-3.803,1.319-1.169.269-1.056-1.757-2.354-.744-.063-.549-.115-.996-.173-1.499-.141.093-.318.211-.497.329-.281-.584-.304-1.41-1.222-1.277-.101-.751-.201-1.494-.315-2.344-.214.314-.361.53-.448.657-1.366-.313-1.652-1.748-2.38-2.776-.075.01-.149.021-.224.031-.05.263-.1.527-.15.79-.079-.004-.157-.008-.236-.011.21-2.665-2.252-3.475-3.032-5.718.21-.791.232-1.117-.246-1.759-.302.325-.578.622-.957,1.03-.613-.453-.306-1.572-1.22-1.334-.263-1.067-.022-1.846.683-2.562-.771-.86,1.219-2.733-.34-2.866-.085.367-.165.713-.246,1.06h-.169c.021-.874.042-1.746.066-2.769,1.91.926,1.793-1.764,1.963-3.098-.76.559-1.288,1.576-2.216.816.138.236.276.471.482.823-.408.103-.762.193-.999.252-.273-1.5.365-2.466,1.344-3.537.1.068.231.157.311.211,2.279-3.644,4.561-7.72,7.861-10.837-.865-.705-1.313-2.156-.173-2.802.52.043,1.072.267,1.342.064.495-.613.89-1.447-.26-1.848-.006-1.076,1.427-2.258.399-3.206-.599-.668-.392-2.07-1.546-2.151-1.211-.367-1.847.725-2.882,1.051-1.007-.189-1.205.801-1.725,1.466-.611-.348-1.364-.45-1.771-.961-.278-1.122-1.121-.782-2.026-.983.219-.232.402-.425.594-.628-1.265-.357-.977.927-.538,1.549-.273.225-.518.427-.912.754-.114-.784.565-1.784-.386-2.119-1.574-.018-1.645-2.966-3.245-1.849.01-.248.021-.489.031-.733-.879-.017-.904-.768-1.367-1.306-1.806-1.482-1.275-.989-1.807-3.128-.158.106-.306.204-.496.331-.508-.773-1.228-.889-1.458-2.017-1.043-2.264-4.2-2.403-5.562-4.232-.46.065-.818.116-1.258.179,1.086-1.607.131-2.606.224-4.155.63-1.551,1.259-3.098,1.886-4.641l.281.025c-.066.777-.131,1.555-.212,2.512.639-.72.417-1.456.754-2.126.144.094.263.173.383.252.053-.026.105-.053.158-.079.019-1.19-1.46-.743-.483-1.939,6.362-11.981,11.31-24.587,18.133-36.28.355-.677.578-1.26,1.292-.444,1.371.44,1.423-1.846,2.797-1.724.338-.02.584-.997.345-1.486-.057.252-.097.427-.148.652-.783.018-1.541.036-2.315.053.226-1.614,2.042-1.693,3.221-1.196,1.322-1.956,1.81-4.89,4.513-5.333-.11-.135-.209-.257-.423-.52,1.98-.464,3.599,2.001,5.241,1.497.346-.306.584-.233.643.242-.17.062-.338.123-.563.205,3.347,1.203,6.771,4.128,9.836,4.734.722,1.897,1.869-.459,2.698-1.171.408-.654,1.094-.056,1.588-.473,7.034-7.102,13.301-15.332,21.035-21.208.431-.007,1.254.185,1.529.646,1.452,1.003,1.937-2.982,5.375.912.524.901,1.906-.364,2.128.822.221.895,1.327.854,1.734,1.624,1.403.849,2.015,2.472,3.722,2.988.542.308.629.668,1.176-.014.093,1.111.243,1.191,1.099.598.062.32.121.623.18.926l.882-.375c-.366,5.455,19.321-18.846,21.867-20.245,1.268.277-.147.991.547,1.7.396.112.755-.543,1.051-.699,1.317-.257-.017,1.508.966,1.748.567.143.653,1.494,1.318.756.142.285.332.514.369.771.095.684,1.177.636,1.325.09.087-.728-.497-1.851.725-1.672.546.035.328.859.749,1.076-.198.316-.35.558-.501.8.342.098.684.196,1.128.322-.358.877-.321,1.019.553,1.381.185.791.967,1.153,1.55,1.603.67.553,1.3,1.607,2.368,1.548-.288,1.092,1.118.428,1.666.759-.814.764-.728,1.016.11,1.515-.02.051-.041.101-.061.152-.371-.041-.743-.082-1.256-.139.212.574.909.489.586,1.159-.053.574.961.72,1.443.333-.13.248-.207.397-.314.601.448-.03.164.797.758.556.331-.134.597-.428.865-.746-.849.512-1.055-.312-.316-.749,1.07.027,1.615-.676,2.221-1.369.915-1.033,1.699-1.644,3.061-1.033.33.287.623.579,1.067.067.805.727,1.579,1.427,2.355,2.128.063-.052.126-.105.189-.157-.158-.261-.316-.521-.555-.915,1.511,1.019,3.078-.81,4.209.319.19,1.277.905,1.956,1.856,2.712.846.756.361,2.076,1.287,2.758.464.344.33,1.211,1.071.746.892-.631,1.622,1.023,1.108,1.704.333.064.585.112.8.153-.274.336-.516.631-.759.927.472.206-.4,1.078.578,1.052.062-.184.128-.379.19-.562.783.525,1.806.933.96,2.016.253.035.476.066.752.105-.041.184-.075.341-.088.399.313.284.58.525.882.799-.155.196-.294.373-.512.649.784-.204,1.453-.378,2.186-.568.013.247.021.391.028.534,1.991.431.371,3.479.008,4.756.064.044.127.088.191.132,1.27-1.082,1.927-2.743,3.047-3.981.065.038.13.076.195.114-.302.765-.702,1.5-.848,2.316.81-.025,1.171-.635,1.586-1.232,2.561,1.758,11.496-14.536,10.591-6.279.074.023.148.046.223.07.86-1.684,3.543-2.061,3.55.316-.075.699.577.437,1.016.392.466-.109.636.084.638.52-.063,1.542,3.543.412,3.122,2.542,1.685-.359.975,1.749,2.251,1.891.475-.003.951.292,1.444.461-.177.381-.34.734-.532,1.148,3.945.782.865.61,2.75,2.305,3.46,1.803.126,4.884-.317,7.601.07.032.14.064.209.097-.145.092-.29.183-.476.3.046.121.099.258.154.401-1.138.022-.539,1.001-1.09,1.68-.274.375-.41.635.062.957.574.667.485,1.779.721,2.59-.057-.047-.181-.148-.213-.173-.515,1.133.069,2.35-1.414,2.735-.16.594-.218,1.284-.93,1.631-.248-.263-.459-.487-.67-.711-.107-.007-.215-.014-.322-.021.23,1.668-.671,2.708-1.413,4.116.976.77,2.357.638,3.066,1.469.107.159.208.482.287.474,1.129-.062,1.358,1.036,2.105,1.566.505-.52.978-1.006,1.465-1.507.204.147.366.263.528.38.041-.024.082-.048.124-.072l-.337-.726c1.227-2.486,1.338.522,2.209-.927.374.154-.163.919.541.728.101-.027.09-.464.152-.839.902-.006,1.129,1.216,2.191.301.058.607.03.898.169,1.38,1.324-.662,2.62-1.715,3.846-2.787.804-1.042,1.505-1.499,2.739-.585-.373.111-.588.175-.802.239-.004.053-.009.106-.013.159.297.054.594.108.939.17.027-.142.05-.262.079-.415,1.354.179.02.965.847,1.413.105-.16.201-.307.233-.356,1.468.291.804-1.291.769-2.162l.161-.008c1.016.865.801,2.675,1.863,3.215.375.033.652.113.915.394,1.134.647.571-1.202,1.139-1.483.648-.048,1.009.593,1.36,1.111-.511,1.532,1.759,2.237,2.617,3.268-1.218-.328-1.832-.068-.632,1.133.18-.274.284-.433.467-.711.283.516.397.895.843,1.206.257-.472.043-.823-.111-1.282.534.155,1.002.314.683,1.02.276,1.692,3.374-.622,2.664,1.717.706-.238,2.402.249,1.408,1.093-.103.074-.107.475-.004.594.132.153.493.299.625.224.68-.411,1.01.483,1.476.814.849,1.472-.887,3.012-.761,4.344.944.416-.283,1.584-.838.69-.242.325-.383.599.153.677,1.27,1.429-1.939,5.08-2.891,6.779.287-.084.464-.136.714-.21.125.486.795,1.34-.008,1.561-.585.435-.207,1.221-.18,1.964.227.012.918-.325,1.104-.3.47.405.88.205,1.287-.04.44-.265.547-.042.614.365.629,1.86.926,3.753,1.635,5.528.233,1.014.561,2.666,1.709,2.918.281.762,1.482.828,1.276,1.973,2.041-.214,1.667,2.462,1.702,3.747,2.302,1.118-1.495,3.872-1.618,5.536-1.075.824-1.35,2.528-2.17,3.02-.434.261.102,1.403-.739,1.296-.626.659-.959,1.537-1.62,2.503,2.64.334,5.067.641,7.489.947.025,1.309.695.287,1.368,1.001-.364.251-.627.432-.872.602.905.952,1.538,2.987.018,3.548-.953-.331-.583.39-.643.877.426-.139.784-.256,1.194-.391.764.918-1.413,1.498-.338,2.598.011,4.456-7.293,5.15-1.692,10.331-.472.731.633,1.241.275,1.956-.679.975-.438,1.961.808,2.177.024-.094.074-.29.128-.497.796.486,1.949,3.209,1.846,4.268.159-.025.361-.056.563-.087-.008.076-.016.151-.024.227-.143.154-.287.309-.43.463.017.072.035.144.052.216.309-.052.618-.104,1.04-.176-.475.535-.186,1.687-.932,1.744-.115-.007-.237.227-.355.35.555.48,1.193-.006,1.812-.126.031.052.062.103.093.155-2.456,3.278-7.121,5.072-8.53,8.98-.101,1.238-.322.638-1.153.848.402.241,1.122.691.489,1.084-.6.35.049.917-.199,1.473-.068.002-.137.005-.205.007-.096-.155-.191-.309-.406-.657-2.157,7.772-11.578,8.407-17.233,12.698-3.71,3.147-7.437,6.475-11.583,8.969-.811,1.319-3.806,3.822-4.822,1.695.184-.08.36-.156.718-.311-.409-.255-.678-.423-1.058-.661.116.875-.762,2.51-.482.863-.952-.457-.116-1.548-.612-2.506-.315.695-.554,1.223-.795,1.753-1.122-.575-.122-2.854-1.437-3.01-.529.804-.909.467-1.27-.243-.235.424-.422.762-.626,1.129-2.571-2.696-7.711,5.24-10.515,4.768-1.523.143-2.72,2.939-4.349,2.219-7.049-1.751-21.911,18.231-26.063,14.74.218-.093.419-.179.807-.345-.386-.28-.646-.469-.954-.692-.984,1.928-1.068-.52-.984-1.419-.077-.024-.155-.049-.232-.073-.287.513-.575,1.026-.858,1.53-1.276-.173.037-3.756-1.405-3.014-.706,1.026-.72.053-1.305-.252-.14.339-.272.657-.396.957-1.636-1.35-3.464.671-5.366.252-.642.298-2.123.938-1.917-.473.559-.591,1.16-3.103-.294-2.437-.545-.861-.483-1.104.301-1.283-.102-1.128-.402-1.557-1.236-.561.132-1.872-1.374-2.658-.906-4.328.123-.42-.337-1.114-.21-1.543.604-1.158-.262-1.676-.712-2.36-1.517-.581-2.054-1.728-2.762-3.196-.518.406-1.053.826-1.634,1.282.022-.224.039-.404.058-.606-1.677.357-.676,1.594-1.814,2.69-.377-1.618.995-2.727.911-4.308-5.886,6.954-11.208,15.981-17.211,21.947ZM218.437,177.078c.676.715-.139,1.075.685,1.42.191-.671,1.157-1.016.481-1.935l-.491.243-.325-.154c.174-.211.348-.422.52-.631-1.103-1.288-.944.253-.871,1.056ZM23.497,191.484c-.346.47-.692.94-1.038,1.41.327.182.701.39,1.078.6.764-.798.76-1.421-.04-2.01ZM219.045,183.236c-.175-.074-.349-.149-.523-.223.269-.388.538-.775.78-1.123-.196-.134-.433-.295-.667-.454q-.44.376.016.826c-.222.148-.442.296-.663.443-.007.095-.014.19-.021.285.359.082.719.164,1.078.246ZM217.493,174.638c-.25.486-.436.848-.699,1.361.834-.216,1.814-.896.699-1.361ZM178.575,117.207c-.055.018-.11.036-.165.054-.069.498-.138.997-.214,1.544l.709-.324c-.108-.418-.219-.846-.329-1.274ZM138.318,81.498c-.666.395-.68.622-.08,1.12.027-.386.051-.711.08-1.12ZM27.635,108.96c.51.122.807.137.835-.381-.337-.427-.54.013-.835.381ZM22.235,197.193c-.367.734-.298.878.375.973-.14-.364-.258-.669-.375-.973ZM218.14,180.444c.121.01.242.02.363.029.004-.321.008-.642.013-.963-.094-.008-.189-.015-.283-.023-.031.319-.062.638-.093.957ZM57.139,235.008c-.025.303-.05.605-.083,1.001.729-.388.659-.699.083-1.001Z" fill="none"/>
    </clipPath>
    <linearGradient id="e" data-name="Dégradé sans nom 35" x1="112.861" y1="77.403" x2="112.861" y2="203.139" gradientUnits="userSpaceOnUse">
      <stop offset="0" stop-color="#b1ddea"/>
      <stop offset="1" stop-color="#54bfd1"/>
    </linearGradient>
    <linearGradient id="f" data-name="Dégradé sans nom 14" x1="126.821" y1="217.699" x2="126.821" y2="246.902" gradientUnits="userSpaceOnUse">
      <stop offset="0" stop-color="#6498d1"/>
      <stop offset="1" stop-color="#336a9b"/>
    </linearGradient>
    <filter id="g" data-name="drop-shadow-2" x="70.412" y="123.258" width="84.846" height="88.166" filterUnits="userSpaceOnUse">
      <feOffset dx="-4" dy="0"/>
      <feGaussianBlur result="h" stdDeviation="0"/>
      <feFlood flood-color="#42496f" flood-opacity="1"/>
      <feComposite in2="h" operator="in"/>
      <feComposite in="SourceGraphic"/>
    </filter>
    <clipPath id="i">
      <path d="M83.404,200.765s65.16-7.493,71.854-8.703c-1.994,6.053-9.32,14.037-22.103,17.171,0,0-39.358-1.147-45.179-1.361-3.831-2.212-4.572-7.107-4.572-7.107Z" fill="none"/>
    </clipPath>
    <filter id="j" data-name="drop-shadow-3" x="50.749" y="39.085" width="124.503" height="69.632" filterUnits="userSpaceOnUse">
      <feOffset dx="-4" dy="0"/>
      <feGaussianBlur result="k" stdDeviation="0"/>
      <feFlood flood-color="#42496f" flood-opacity="1"/>
      <feComposite in2="k" operator="in"/>
      <feComposite in="SourceGraphic"/>
    </filter>
  </defs>
  <g isolation="isolate">
    <g id="a" data-name="Calque 5">
      <g>
        <g filter="url(#b)">
          <g clip-path="url(#d)">
            <g>
              <rect x="-13.239" y="36.668" width="252.2" height="183.14" fill="#54bfd1"/>
              <rect x="-13.239" y="36.668" width="252.2" height="183.14" fill="url(#e)"/>
              <g opacity=".33">
                <path d="M278.376,175.616c.594,9.803,1.189,19.606,1.783,29.409.907,4.454-3.385,6.236-7.389,6.065-69.027.088-138.641,6.472-207.342-1.757,12.268-12.429,12.879-16.639,31.503-12.389,16.152.357,23.795-16.303,33.335-26.43,2.728-1.574,6.306.239,9.293-.761,9.257-5.261.408-23.837,14.885-29.555,13.062-4.888,30.71,9.378,30.899,22.941,4.808-3.128,12.988-.176,14.746,9.069,11.679-76.188,81.015-40.969,77.446-10.191l.841,13.598Z" fill="#b1ddea"/>
                <path d="M278.376,175.616c.594,9.803,1.189,19.606,1.783,29.409.907,4.454-3.385,6.236-7.389,6.065-69.027.088-138.641,6.472-207.342-1.757,12.268-12.429,12.879-16.639,31.503-12.389,16.152.357,23.795-16.303,33.335-26.43,2.728-1.574,6.306.239,9.293-.761,9.257-5.261.408-23.837,14.885-29.555,13.062-4.888,30.71,9.378,30.899,22.941,4.808-3.128,12.988-.176,14.746,9.069,11.679-76.188,81.015-40.969,77.446-10.191l.841,13.598Z" fill="none"/>
              </g>
              <g opacity=".2">
                <path d="M-51.741,184.808c.738,15.039.161,30.525,1.591,45.357,51.511,2.722,104.374-10.929,156.355-7.577,8.331-.352,18.995,2.506,25.823-4.36-.672-6.341-4.973-11.774-7.028-17.65-3.761-11.136-10.755-15.351-19.344-15.362-3.2-1.675-9.1-6.088-10.772.279.867-26.061-15.079-66.606-42.321-51.768-9.221-36.001-60.984-14.767-64.551.644.97-5.592.445-13.627-1.973-15.479s-5.104-2.344-4.997-1.022c-2.313-28.639-30.937-26.183-30.814,23.327l-1.97,43.613Z" fill="#b1ddea"/>
                <path d="M-51.741,184.808c.738,15.039.161,30.525,1.591,45.357,51.511,2.722,104.374-10.929,156.355-7.577,8.331-.352,18.995,2.506,25.823-4.36-.672-6.341-4.973-11.774-7.028-17.65-3.761-11.136-10.755-15.351-19.344-15.362-3.2-1.675-9.1-6.088-10.772.279.867-26.061-15.079-66.606-42.321-51.768-9.221-36.001-60.984-14.767-64.551.644.97-5.592.445-13.627-1.973-15.479s-5.104-2.344-4.997-1.022c-2.313-28.639-30.937-26.183-30.814,23.327l-1.97,43.613Z" fill="none"/>
              </g>
              <g opacity=".2">
                <path d="M-51.354,185.969c.738,15.039.161,30.525,1.591,45.357,51.511,2.722,104.374-10.929,156.355-7.577,8.331-.352,18.995,2.506,25.823-4.36-.672-6.341-4.973-11.774-7.028-17.65-3.761-11.136-10.755-15.351-19.344-15.362-3.2-1.675-9.1-6.088-10.772.279.867-26.061-15.079-66.606-42.321-51.768-9.221-36.001-60.984-14.767-64.551.644.97-5.592.445-13.627-1.973-15.479s-5.104-2.344-4.997-1.022c-2.313-28.639-30.937-26.183-30.814,23.327l-1.97,43.613Z" fill="#b1ddea"/>
                <path d="M-51.354,185.969c.738,15.039.161,30.525,1.591,45.357,51.511,2.722,104.374-10.929,156.355-7.577,8.331-.352,18.995,2.506,25.823-4.36-.672-6.341-4.973-11.774-7.028-17.65-3.761-11.136-10.755-15.351-19.344-15.362-3.2-1.675-9.1-6.088-10.772.279.867-26.061-15.079-66.606-42.321-51.768-9.221-36.001-60.984-14.767-64.551.644.97-5.592.445-13.627-1.973-15.479s-5.104-2.344-4.997-1.022c-2.313-28.639-30.937-26.183-30.814,23.327l-1.97,43.613Z" fill="none"/>
              </g>
              <g>
                <path d="M80.595,205.862l.315.315" fill="none"/>
                <g>
                  <path d="M77.807,205.085c-.015-.269.224-.418.391-.401.199.02.353.184.345.378-.009.205-.178.361-.384.354-.033-.001-.066-.008-.099-.01-.28-.017-.297-.039-.252-.321Z" fill="#fff"/>
                  <path d="M82.878,207.872c-.18-.022-.309-.183-.291-.366.019-.192.185-.324.373-.296.178.026.306.194.284.373-.021.178-.189.311-.367.289Z" fill="#fff"/>
                  <path d="M81.842,204.023c-.151-.019-.227-.129-.209-.302.017-.167.161-.285.321-.265.156.02.263.163.242.322-.022.167-.17.269-.354.245Z" fill="#fff"/>
                  <path d="M80.824,202.231c.155.023.257.159.233.31-.024.149-.164.25-.316.228-.165-.025-.277-.164-.253-.314.024-.151.17-.248.336-.223Z" fill="#fff"/>
                  <path d="M79.843,206.14c-.151-.019-.261-.157-.244-.306.017-.151.155-.259.307-.24.154.02.26.153.242.306-.017.155-.151.26-.305.241Z" fill="#fff"/>
                  <path d="M77.286,202.552c-.143-.023-.24-.163-.213-.308.026-.138.155-.231.294-.213.147.02.245.152.222.3-.023.145-.158.244-.303.221Z" fill="#fff"/>
                  <path d="M84.375,206.836c-.023.141-.148.232-.291.212-.149-.021-.245-.153-.22-.301.024-.14.152-.233.292-.214.148.021.243.153.219.302Z" fill="#fff"/>
                  <path d="M78.803,202.056c.134.021.222.138.198.262-.025.128-.157.222-.284.203-.13-.02-.213-.134-.193-.265.021-.136.14-.221.279-.199Z" fill="#fff"/>
                  <path d="M82.085,208.891c-.038-.006-.078-.007-.114-.017-.114-.032-.168-.109-.139-.225.029-.117.117-.156.229-.132.059.012.114.043.172.057.108.026.171.086.149.199-.022.115-.107.143-.214.125-.027-.005-.055-.008-.082-.012v.005Z" fill="#fff"/>
                  <path d="M83.207,202.654c.13.015.225.13.21.253-.015.124-.149.224-.278.207-.121-.016-.217-.143-.198-.264.019-.124.137-.211.266-.196Z" fill="#fff"/>
                  <path d="M77.856,208.861c-.015.144-.112.236-.237.227-.117-.009-.21-.124-.198-.246.012-.123.207-.275.328-.257.096.014.127.095.107.277Z" fill="#fff"/>
                  <path d="M76.916,207.297c.127.022.213.144.184.273-.03.134-.12.198-.257.184-.131-.013-.215-.132-.194-.264.021-.13.138-.215.266-.193Z" fill="#fff"/>
                  <path d="M79.638,209.88c-.122-.023-.208-.153-.185-.278.024-.128.132-.203.257-.178.127.025.212.148.188.273-.023.119-.145.205-.26.183Z" fill="#fff"/>
                  <path d="M81.594,207.2c-.017.119-.133.209-.251.195-.124-.015-.214-.14-.191-.267.021-.121.138-.205.256-.185.117.019.203.138.186.258Z" fill="#fff"/>
                  <path d="M78.638,206.873c.029-.103.103-.167.227-.152.114.013.203.131.179.24-.027.12-.11.179-.231.168-.112-.01-.196-.13-.175-.256Z" fill="#fff"/>
                  <path d="M83.504,205.411c.078-.042.155-.114.235-.119.12-.007.174.094.161.208-.013.117-.102.193-.209.164-.076-.02-.132-.113-.198-.174l.011-.079Z" fill="#fff"/>
                  <path d="M80.392,204.316c-.114.075-.177.138-.248.15-.028.005-.108-.106-.107-.164.001-.102.082-.16.188-.128.047.014.082.066.168.141Z" fill="#fff"/>
                  <path d="M82.549,204.105c.05.104.108.168.097.215-.013.049-.092.082-.142.122-.038-.051-.107-.104-.106-.154.001-.048.075-.095.151-.182Z" fill="#fff"/>
                  <path d="M82.42,206.086c-.047-.096-.101-.155-.091-.198.011-.046.083-.077.128-.115.039.05.103.098.108.151.003.039-.072.085-.145.163Z" fill="#fff"/>
                  <path d="M82.765,209.628c-.05-.103-.105-.165-.092-.205.014-.045.089-.094.14-.098.03-.002.095.084.092.125-.004.048-.067.091-.139.178Z" fill="#fff"/>
                  <path d="M80.902,207.681c-.099.045-.16.097-.202.084-.045-.013-.072-.087-.107-.135.048-.035.097-.097.144-.096.043,0,.084.071.164.146Z" fill="#fff"/>
                  <path d="M79.802,207.77c-.086.046-.139.097-.178.088-.041-.01-.097-.081-.092-.119.005-.038.076-.094.118-.094.039,0,.079.062.152.126Z" fill="#fff"/>
                  <path d="M83.824,204.309c-.087.044-.138.091-.181.084-.037-.006-.097-.083-.089-.109.015-.045.073-.102.117-.105.037-.003.079.064.152.13Z" fill="#fff"/>
                  <path d="M84.088,205.185c.09-.043.145-.093.183-.082.043.012.07.079.104.121-.044.032-.088.09-.132.09-.041,0-.08-.063-.156-.129Z" fill="#fff"/>
                  <path d="M77.074,205.528c-.07.035-.125.084-.154.072-.042-.018-.065-.08-.096-.123.045-.029.09-.078.136-.078.031,0,.062.068.113.13Z" fill="#fff"/>
                  <path d="M76.818,203.1c.032.077.078.136.064.166-.019.041-.084.06-.13.088-.023-.044-.07-.092-.064-.131.007-.038.067-.068.129-.124Z" fill="#fff"/>
                  <path d="M82.197,205.423c-.038-.067-.085-.114-.076-.142.013-.041.067-.069.104-.102.027.041.073.081.076.123.002.03-.053.065-.104.121Z" fill="#fff"/>
                  <path d="M81.12,204.916c-.036-.066-.073-.105-.073-.144,0-.024.071-.073.089-.065.036.017.073.062.08.101.004.024-.048.057-.096.108Z" fill="#fff"/>
                </g>
              </g>
              <g>
                <path d="M147.943,204.344l.315.315" fill="none"/>
                <g>
                  <path d="M145.155,203.567c-.015-.269.224-.418.391-.401.199.02.353.184.345.378-.009.205-.178.361-.384.354-.033-.001-.066-.008-.099-.01-.28-.017-.297-.039-.252-.321Z" fill="#fff"/>
                  <path d="M150.226,206.353c-.18-.022-.309-.183-.291-.366.019-.192.185-.324.373-.296.178.026.306.194.284.373-.021.178-.189.311-.367.289Z" fill="#fff"/>
                  <path d="M149.19,202.505c-.151-.019-.227-.129-.209-.302.017-.167.161-.285.321-.265.156.02.263.163.242.322-.022.167-.17.269-.354.245Z" fill="#fff"/>
                  <path d="M148.172,200.712c.155.023.257.159.233.31-.024.149-.164.25-.316.228-.165-.025-.277-.164-.253-.314.024-.151.17-.248.336-.223Z" fill="#fff"/>
                  <path d="M147.191,204.622c-.151-.019-.261-.157-.244-.306.017-.151.155-.259.307-.24.154.02.26.153.242.306-.017.155-.151.26-.305.241Z" fill="#fff"/>
                  <path d="M144.634,201.034c-.143-.023-.24-.163-.213-.308.026-.138.155-.231.294-.213.147.02.245.152.222.3-.023.145-.158.244-.303.221Z" fill="#fff"/>
                  <path d="M151.723,205.317c-.023.141-.148.232-.291.212-.149-.021-.245-.153-.22-.301.024-.14.152-.233.292-.214.148.021.243.153.219.302Z" fill="#fff"/>
                  <path d="M146.151,200.537c.134.021.222.138.198.262-.025.128-.157.222-.284.203-.13-.02-.213-.134-.193-.265.021-.136.14-.221.279-.199Z" fill="#fff"/>
                  <path d="M149.433,207.372c-.038-.006-.078-.007-.114-.017-.114-.032-.168-.109-.139-.225.029-.117.117-.156.229-.132.059.012.114.043.172.057.108.026.171.086.149.199-.022.115-.107.143-.214.125-.027-.005-.055-.008-.082-.012v.005Z" fill="#fff"/>
                  <path d="M150.555,201.135c.13.015.225.13.21.253-.015.124-.149.224-.278.207-.121-.016-.217-.143-.198-.264.019-.124.137-.211.266-.196Z" fill="#fff"/>
                  <path d="M145.205,207.342c-.015.144-.112.236-.237.227-.117-.009-.21-.124-.198-.246.012-.123.207-.275.328-.257.096.014.127.095.107.277Z" fill="#fff"/>
                  <path d="M144.264,205.778c.127.022.213.144.184.273-.03.134-.12.198-.257.184-.131-.013-.215-.132-.194-.264.021-.13.138-.215.266-.193Z" fill="#fff"/>
                  <path d="M146.986,208.361c-.122-.023-.208-.153-.185-.278.024-.128.132-.203.257-.178.127.025.212.148.188.273-.023.119-.145.205-.26.183Z" fill="#fff"/>
                  <path d="M148.943,205.682c-.017.119-.133.209-.251.195-.124-.015-.214-.14-.191-.267.021-.121.138-.205.256-.185.117.019.203.138.186.258Z" fill="#fff"/>
                  <path d="M145.986,205.355c.029-.103.103-.167.227-.152.114.013.203.131.179.24-.027.12-.11.179-.231.168-.112-.01-.196-.13-.175-.256Z" fill="#fff"/>
                  <path d="M150.852,203.892c.078-.042.155-.114.235-.119.12-.007.174.094.161.208-.013.117-.102.193-.209.164-.076-.02-.132-.113-.198-.174l.011-.079Z" fill="#fff"/>
                  <path d="M147.74,202.797c-.114.075-.177.138-.248.15-.028.005-.108-.106-.107-.164.001-.102.082-.16.188-.128.047.014.082.066.168.141Z" fill="#fff"/>
                  <path d="M149.897,202.587c.05.104.108.168.097.215-.013.049-.092.082-.142.122-.038-.051-.107-.104-.106-.154.001-.048.075-.095.151-.182Z" fill="#fff"/>
                  <path d="M149.768,204.567c-.047-.096-.101-.155-.091-.198.011-.046.083-.077.128-.115.039.05.103.098.108.151.003.039-.072.085-.145.163Z" fill="#fff"/>
                  <path d="M150.113,208.109c-.05-.103-.105-.165-.092-.205.014-.045.089-.094.14-.098.03-.002.095.084.092.125-.004.048-.067.091-.139.178Z" fill="#fff"/>
                  <path d="M148.251,206.163c-.099.045-.16.097-.202.084-.045-.013-.072-.087-.107-.135.048-.035.097-.097.144-.096.043,0,.084.071.164.146Z" fill="#fff"/>
                  <path d="M147.15,206.251c-.086.046-.139.097-.178.088-.041-.01-.097-.081-.092-.119.005-.038.076-.094.118-.094.039,0,.079.062.152.126Z" fill="#fff"/>
                  <path d="M151.172,202.79c-.087.044-.138.091-.181.084-.037-.006-.097-.083-.089-.109.015-.045.073-.102.117-.105.037-.003.079.064.152.13Z" fill="#fff"/>
                  <path d="M151.436,203.666c.09-.043.145-.093.183-.082.043.012.07.079.104.121-.044.032-.088.09-.132.09-.041,0-.08-.063-.156-.129Z" fill="#fff"/>
                  <path d="M144.422,204.01c-.07.035-.125.084-.154.072-.042-.018-.065-.08-.096-.123.045-.029.09-.078.136-.078.031,0,.062.068.113.13Z" fill="#fff"/>
                  <path d="M144.166,201.581c.032.077.078.136.064.166-.019.041-.084.06-.13.088-.023-.044-.07-.092-.064-.131.007-.038.067-.068.129-.124Z" fill="#fff"/>
                  <path d="M149.545,203.905c-.038-.067-.085-.114-.076-.142.013-.041.067-.069.104-.102.027.041.073.081.076.123.002.03-.053.065-.104.121Z" fill="#fff"/>
                  <path d="M148.468,203.398c-.036-.066-.073-.105-.073-.144,0-.024.071-.073.089-.065.036.017.073.062.08.101.004.024-.048.057-.096.108Z" fill="#fff"/>
                </g>
              </g>
              <path d="M240.983,206.02c-5.092.935-11.42,1.496-18.306,1.496s-13.214-.561-18.306-1.496h-.279c-5.092.935-11.42,1.496-18.306,1.496s-13.214-.561-18.306-1.496h-.279c-5.092.935-11.42,1.496-18.306,1.496s-13.214-.561-18.306-1.496h-.279c-5.092.935-11.42,1.496-18.306,1.496s-13.214-.561-18.306-1.496h-.279c-5.092.935-11.42,1.496-18.306,1.496s-13.214-.561-18.306-1.496h-.279c-5.092.935-11.42,1.496-18.305,1.496s-13.214-.561-18.306-1.496H-5.499v65.092h264.639v-65.092h-18.157Z" fill="#6498d1"/>
              <path d="M240.983,206.02c-5.092.935-11.42,1.496-18.306,1.496s-13.214-.561-18.306-1.496h-.279c-5.092.935-11.42,1.496-18.306,1.496s-13.214-.561-18.306-1.496h-.279c-5.092.935-11.42,1.496-18.306,1.496s-13.214-.561-18.306-1.496h-.279c-5.092.935-11.42,1.496-18.306,1.496s-13.214-.561-18.306-1.496h-.279c-5.092.935-11.42,1.496-18.306,1.496s-13.214-.561-18.306-1.496h-.279c-5.092.935-11.42,1.496-18.305,1.496s-13.214-.561-18.306-1.496H-5.499v65.092h264.639v-65.092h-18.157Z" fill="url(#f)"/>
              <g opacity=".5">
                <path d="M148.164,230.143s10.214-3.504,12.674-5.219c0,0,.298,3.653,13.27,3.877-16.029,4.622-11.63-.447-25.945,1.342Z" fill="#fff"/>
                <path d="M192.001,216.426s3.057-1.566,3.579-2.386c2.035,1.175,5.368,2.609,6.262,2.386-6.412-.778-6.812,1.749-9.841,0Z" fill="#fff"/>
                <path d="M45.633,220.405s3.843-.591,5.128-1.709c1.679,1.244,6.343,1.709,6.343,1.709-5.27-.011-8.07,1.162-11.47,0Z" fill="#fff"/>
                <path d="M65.428,232.221c4.314.243,9.858-2.548,11.576-3.753,2.171,2.427,6.031,4.313,11.896,1.774,3.685,1.545,9.738,2.2,12.48,1.468-10.152,1.679-8.534.457-11.402.88s-6.961,2.662-13.074.151c-4.482,1.365-8.661,1.281-11.478-.52Z" fill="#fff"/>
              </g>
              <g filter="url(#g)">
                <path d="M103.116,133.137s40.289,38.628,50.632,57.144c-13.302-2.92-32.388-.712-39.367,1.78l-11.265-58.924Z" fill="#e86170"/>
                <path d="M104.066,136.184s17.237,42.807,23.916,48.723c0,0-11.238,4.131-13.601,7.154l-10.315-55.877Z" fill="#6498d1" mix-blend-mode="multiply" opacity=".25"/>
                <path d="M103.116,135.99s-17.744,49.994-26.1,59.632l35.845-5.128-9.746-54.504Z" fill="#e86170"/>
                <path d="M103.746,138.079s-2.184,45.483-17.662,55.834l26.679-3.656-9.018-52.178Z" fill="#6498d1" mix-blend-mode="multiply" opacity=".25"/>
                <polygon points="101.25 126.425 102.267 126.236 116.727 197.512 113.352 198.139 101.25 126.425" fill="#fff"/>
                <path d="M83.404,200.765s65.16-7.493,71.854-8.703c-1.994,6.053-9.32,14.037-22.103,17.171,0,0-39.358-1.147-45.179-1.361-3.831-2.212-4.572-7.107-4.572-7.107Z" fill="#fff"/>
                <g clip-path="url(#i)">
                  <path d="M134.227,211.423s9.389-2.633,15.656-13.233c.529-.894-.173-2.024-1.208-1.931-10.188.913-50.9,4.332-62.347,5.525-1.071.112-1.806,1.152-1.518,2.19.517,1.864,1.72,4.527,4.467,5.607l44.95,1.843Z" fill="#6498d1" mix-blend-mode="multiply" opacity=".25"/>
                </g>
                <polygon points="74.729 196.709 112.861 191.785 112.763 190.257 74.412 195.743 74.729 196.709" fill="#fff"/>
                <path d="M103.116,125.662c2-1.712,4.909-3.605,8.097-1.42,10.131,6.942,8.397-.798,15.499-.137-4.554,1.045-4.73,8.112-12.526,8.363-4.819.155-4.926-2.639-9.706.75l-1.364-7.555Z" fill="#e86170"/>
              </g>
              <path d="M153.232,207.682c-1.135-.902-3.153-1.639-5.068-1.662-3.448-.041-4.431.712-4.431.712-4.537-2.619-13.542-8.047-20.806-5.127-7.264,2.92,19.505,12.637,20.93,11.498s-7.921-4.928-6.048-5.132c2.003-.218,5.201.043,7.053.471,2.491-.937,11.058,1.375,8.37-.759Z" fill="#a7caec"/>
              <g>
                <path d="M123.236,205.152l.315.315" fill="none"/>
                <g>
                  <path d="M120.448,204.375c-.015-.269.224-.418.391-.401.199.02.353.184.345.378-.009.205-.178.361-.384.354-.033-.001-.066-.008-.099-.01-.28-.017-.297-.039-.252-.321Z" fill="#fff"/>
                  <path d="M125.519,207.162c-.18-.022-.309-.183-.291-.366.019-.192.185-.324.373-.296.178.026.306.194.284.373-.021.178-.189.311-.367.289Z" fill="#fff"/>
                  <path d="M124.482,203.313c-.151-.019-.227-.129-.209-.302.017-.167.161-.285.321-.265.156.02.263.163.242.322-.022.167-.17.269-.354.245Z" fill="#fff"/>
                  <path d="M123.465,201.521c.155.023.257.159.233.31-.024.149-.164.25-.316.228-.165-.025-.277-.164-.253-.314.024-.151.17-.248.336-.223Z" fill="#fff"/>
                  <path d="M122.484,205.431c-.151-.019-.261-.157-.244-.306.017-.151.155-.259.307-.24.154.02.26.153.242.306-.017.155-.151.26-.305.241Z" fill="#fff"/>
                  <path d="M119.927,201.843c-.143-.023-.24-.163-.213-.308.026-.138.155-.231.294-.213.147.02.245.152.222.3-.023.145-.158.244-.303.221Z" fill="#fff"/>
                  <path d="M127.016,206.126c-.023.141-.148.232-.291.212-.149-.021-.245-.153-.22-.301.024-.14.152-.233.292-.214.148.021.243.153.219.302Z" fill="#fff"/>
                  <path d="M121.444,201.346c.134.021.222.138.198.262-.025.128-.157.222-.284.203-.13-.02-.213-.134-.193-.265.021-.136.14-.221.279-.199Z" fill="#fff"/>
                  <path d="M124.726,208.181c-.038-.006-.078-.007-.114-.017-.114-.032-.168-.109-.139-.225.029-.117.117-.156.229-.132.059.012.114.043.172.057.108.026.171.086.149.199-.022.115-.107.143-.214.125-.027-.005-.055-.008-.082-.012v.005Z" fill="#fff"/>
                  <path d="M125.848,201.944c.13.015.225.13.21.253-.015.124-.149.224-.278.207-.121-.016-.217-.143-.198-.264.019-.124.137-.211.266-.196Z" fill="#fff"/>
                  <path d="M120.497,208.151c-.015.144-.112.236-.237.227-.117-.009-.21-.124-.198-.246.012-.123.207-.275.328-.257.096.014.127.095.107.277Z" fill="#fff"/>
                  <path d="M119.557,206.587c.127.022.213.144.184.273-.03.134-.12.198-.257.184-.131-.013-.215-.132-.194-.264.021-.13.138-.215.266-.193Z" fill="#fff"/>
                  <path d="M122.279,209.17c-.122-.023-.208-.153-.185-.278.024-.128.132-.203.257-.178.127.025.212.148.188.273-.023.119-.145.205-.26.183Z" fill="#fff"/>
                  <path d="M124.235,206.491c-.017.119-.133.209-.251.195-.124-.015-.214-.14-.191-.267.021-.121.138-.205.256-.185.117.019.203.138.186.258Z" fill="#fff"/>
                  <path d="M121.279,206.164c.029-.103.103-.167.227-.152.114.013.203.131.179.24-.027.12-.11.179-.231.168-.112-.01-.196-.13-.175-.256Z" fill="#fff"/>
                  <path d="M126.145,204.701c.078-.042.155-.114.235-.119.12-.007.174.094.161.208-.013.117-.102.193-.209.164-.076-.02-.132-.113-.198-.174l.011-.079Z" fill="#fff"/>
                  <path d="M123.033,203.606c-.114.075-.177.138-.248.15-.028.005-.108-.106-.107-.164.001-.102.082-.16.188-.128.047.014.082.066.168.141Z" fill="#fff"/>
                  <path d="M125.19,203.396c.05.104.108.168.097.215-.013.049-.092.082-.142.122-.038-.051-.107-.104-.106-.154.001-.048.075-.095.151-.182Z" fill="#fff"/>
                  <path d="M125.061,205.376c-.047-.096-.101-.155-.091-.198.011-.046.083-.077.128-.115.039.05.103.098.108.151.003.039-.072.085-.145.163Z" fill="#fff"/>
                  <path d="M125.406,208.918c-.05-.103-.105-.165-.092-.205.014-.045.089-.094.14-.098.03-.002.095.084.092.125-.004.048-.067.091-.139.178Z" fill="#fff"/>
                  <path d="M123.543,206.971c-.099.045-.16.097-.202.084-.045-.013-.072-.087-.107-.135.048-.035.097-.097.144-.096.043,0,.084.071.164.146Z" fill="#fff"/>
                  <path d="M122.443,207.06c-.086.046-.139.097-.178.088-.041-.01-.097-.081-.092-.119.005-.038.076-.094.118-.094.039,0,.079.062.152.126Z" fill="#fff"/>
                  <path d="M126.465,203.599c-.087.044-.138.091-.181.084-.037-.006-.097-.083-.089-.109.015-.045.073-.102.117-.105.037-.003.079.064.152.13Z" fill="#fff"/>
                  <path d="M126.729,204.475c.09-.043.145-.093.183-.082.043.012.07.079.104.121-.044.032-.088.09-.132.09-.041,0-.08-.063-.156-.129Z" fill="#fff"/>
                  <path d="M119.715,204.818c-.07.035-.125.084-.154.072-.042-.018-.065-.08-.096-.123.045-.029.09-.078.136-.078.031,0,.062.068.113.13Z" fill="#fff"/>
                  <path d="M119.458,202.39c.032.077.078.136.064.166-.019.041-.084.06-.13.088-.023-.044-.07-.092-.064-.131.007-.038.067-.068.129-.124Z" fill="#fff"/>
                  <path d="M124.838,204.714c-.038-.067-.085-.114-.076-.142.013-.041.067-.069.104-.102.027.041.073.081.076.123.002.03-.053.065-.104.121Z" fill="#fff"/>
                  <path d="M123.761,204.206c-.036-.066-.073-.105-.073-.144,0-.024.071-.073.089-.065.036.017.073.062.08.101.004.024-.048.057-.096.108Z" fill="#fff"/>
                </g>
              </g>
              <path d="M135.282,208.726s-5.516.27-10.896-.57-7.961-2.523-10.917-2.451c-2.955.071,2.727,2.451,2.727,2.451,0,0-5.098-1.001-7.432-.273-1.82.568,1.663,1.698,1.663,1.698,0,0-7.513-.926-10.113-.427s-7.193,1.068-11.039.427c-3.846-.641,1.745,1.709,5.056,1.78,3.312.071,5.128-.961,9.472-.356s11.258-.138,11.365-.708-4.4-.885-2.819-1.073c.889-.106,2.116.032,5.199.356,5.832.614,15.632,1.424,17.733-.855Z" fill="#a7caec"/>
              <path d="M110.384,208.511s-1.844-.212-6.489-.247c-4.645-.036-5.629-.623-8.721-.578-3.092.044-12.903.2-16.819.245-3.916.044-7.026-.265-7.964-.247-4.739.091,6.029.899,8.854.851,2.825-.048,4.828-.429,7.431-.405s9.028.494,11.987.405c2.959-.089,8.347,1.087,9.152,1.195,3.587.478,5.401-1.02,2.57-1.217Z" fill="#a7caec"/>
              <g>
                <path d="M132.762,201.964c-2.17-1.842-5.18-2.652-7.981-2.148-.786.141-1.628.436-2.026,1.128-.653,1.135.237,2.585-.051,3.862-.216.96-1.091,1.666-2.033,1.95s-1.952.218-2.931.119c-2.474-.25-4.934-.692-7.42-.746s-5.049.306-7.202,1.551" fill="none"/>
                <g>
                  <g>
                    <path d="M114.875,207.9c-.015.291-.288.424-.466.387-.211-.044-.358-.238-.327-.446.033-.219.233-.368.454-.337.036.005.07.016.106.022.299.05.315.076.234.374Z" fill="#a7caec"/>
                    <path d="M109.739,204.325c.191.044.311.232.271.426-.042.204-.236.327-.435.276-.188-.048-.307-.243-.263-.433.043-.189.239-.312.428-.269Z" fill="#a7caec"/>
                    <path d="M110.415,208.582c.16.038.229.164.19.348-.038.177-.206.289-.376.248-.165-.039-.264-.205-.223-.374.043-.177.213-.269.409-.223Z" fill="#a7caec"/>
                    <path d="M111.305,210.625c-.164-.043-.258-.2-.215-.359.043-.158.205-.251.366-.209.174.045.279.208.236.367-.043.16-.211.247-.387.201Z" fill="#a7caec"/>
                    <path d="M112.806,206.533c.16.037.263.199.228.357-.036.161-.196.261-.358.223-.164-.039-.262-.194-.226-.357.036-.164.192-.262.355-.224Z" fill="#a7caec"/>
                    <path d="M115.146,210.683c.151.041.239.203.194.356-.043.145-.193.231-.341.195-.156-.038-.246-.191-.204-.348.041-.154.197-.244.351-.203Z" fill="#a7caec"/>
                    <path d="M108.012,205.269c.041-.149.186-.233.337-.195.157.039.246.192.202.349-.042.148-.19.234-.338.196-.157-.039-.244-.192-.201-.35Z" fill="#a7caec"/>
                    <path d="M113.458,211.044c-.141-.038-.223-.174-.184-.304.041-.135.195-.221.329-.185.138.037.214.168.177.307-.038.144-.176.222-.323.182Z" fill="#a7caec"/>
                    <path d="M110.708,203.32c.04.01.083.016.121.032.119.047.168.137.124.257-.044.122-.143.154-.262.116-.062-.02-.117-.06-.179-.081-.113-.04-.174-.112-.137-.231.037-.121.132-.142.245-.11.029.008.058.015.087.022v-.005Z" fill="#a7caec"/>
                    <path d="M108.791,209.899c-.138-.031-.227-.166-.197-.296.031-.132.186-.224.323-.191.129.031.217.179.183.307-.035.131-.171.211-.308.18Z" fill="#a7caec"/>
                    <path d="M115.252,203.834c.033-.153.148-.241.281-.217.125.023.212.158.185.287-.027.131-.254.272-.382.239-.101-.026-.125-.116-.084-.31Z" fill="#a7caec"/>
                    <path d="M116.085,205.624c-.134-.038-.213-.179-.167-.314.048-.141.152-.199.297-.169.139.029.216.166.179.306-.037.138-.173.216-.309.178Z" fill="#a7caec"/>
                    <path d="M113.453,202.536c.128.039.206.188.167.32-.04.135-.165.203-.297.163-.134-.041-.211-.183-.171-.315.038-.125.18-.204.301-.167Z" fill="#a7caec"/>
                    <path d="M111.043,205.194c.032-.126.166-.21.292-.181.132.03.214.175.175.309-.037.127-.172.205-.297.17-.124-.034-.203-.172-.171-.298Z" fill="#a7caec"/>
                    <path d="M114.185,205.882c-.043.107-.13.167-.262.138-.121-.027-.203-.164-.165-.279.042-.126.138-.179.268-.155.12.023.196.162.159.295Z" fill="#a7caec"/>
                    <path d="M108.786,206.9c-.089.036-.18.105-.267.101-.13-.007-.176-.121-.149-.242.028-.124.131-.196.243-.152.079.031.129.137.193.21l-.02.084Z" fill="#a7caec"/>
                    <path d="M112.007,208.433c.132-.067.206-.129.284-.133.031-.002.104.126.097.188-.013.109-.107.163-.216.116-.049-.021-.08-.081-.165-.171Z" fill="#a7caec"/>
                    <path d="M109.664,208.413c-.042-.118-.097-.194-.079-.242.019-.052.108-.077.167-.114.035.06.103.124.096.178-.007.052-.091.094-.183.179Z" fill="#a7caec"/>
                    <path d="M110.028,206.298c.04.109.091.178.075.224-.017.048-.098.074-.151.109-.036-.058-.1-.117-.099-.174,0-.042.087-.083.175-.159Z" fill="#a7caec"/>
                    <path d="M110.062,202.45c.042.116.094.189.076.231-.02.047-.106.091-.162.089-.033-.001-.093-.101-.084-.145.01-.051.082-.09.17-.175Z" fill="#a7caec"/>
                    <path d="M111.842,204.756c.112-.037.183-.086.227-.068.047.02.067.102.099.157-.056.032-.115.093-.166.087-.046-.006-.083-.086-.16-.176Z" fill="#a7caec"/>
                    <path d="M113.035,204.786c.098-.039.161-.089.201-.074.043.015.095.098.085.139-.009.04-.092.092-.137.088-.043-.004-.078-.076-.149-.152Z" fill="#a7caec"/>
                    <path d="M108.316,208.049c.099-.037.159-.082.204-.07.039.01.095.1.083.128-.021.047-.091.101-.138.1-.04-.001-.077-.077-.149-.157Z" fill="#a7caec"/>
                    <path d="M108.132,207.077c-.101.036-.166.083-.207.068-.045-.017-.067-.092-.098-.142.051-.03.105-.087.152-.082.044.005.079.077.153.156Z" fill="#a7caec"/>
                    <path d="M115.714,207.507c.079-.03.144-.076.173-.06.043.024.06.093.089.143-.052.026-.106.073-.155.069-.033-.003-.059-.08-.107-.152Z" fill="#a7caec"/>
                    <path d="M115.712,210.148c-.026-.087-.068-.155-.05-.186.025-.042.097-.054.15-.08.02.05.065.107.053.148-.012.041-.08.065-.153.118Z" fill="#a7caec"/>
                    <path d="M110.193,207.036c.033.076.078.132.065.162-.019.043-.08.066-.124.098-.025-.047-.069-.095-.068-.141.001-.033.064-.063.126-.118Z" fill="#a7caec"/>
                    <path d="M111.293,207.704c.031.075.067.122.062.163-.003.026-.085.071-.103.06-.037-.023-.072-.076-.075-.118-.002-.026.058-.056.116-.105Z" fill="#a7caec"/>
                  </g>
                  <g>
                    <path d="M125.045,199.124c.496.128.627.646.501.938-.151.348-.536.532-.882.406-.365-.133-.551-.53-.419-.899.021-.059.052-.115.075-.174.192-.497.241-.515.726-.271Z" fill="#a7caec"/>
                    <path d="M117.084,206.695c.143-.314.509-.453.829-.315.336.145.479.521.321.846-.149.306-.527.441-.838.299-.311-.141-.453-.521-.312-.83Z" fill="#a7caec"/>
                    <path d="M124.644,207.034c.122-.262.364-.336.666-.204.292.127.424.456.294.734-.125.27-.446.382-.722.252-.289-.136-.388-.462-.239-.782Z" fill="#a7caec"/>
                    <path d="M128.471,206.224c-.131.267-.435.374-.694.244-.257-.129-.359-.441-.23-.704.139-.284.456-.407.714-.277.26.13.351.45.21.737Z" fill="#a7caec"/>
                    <path d="M121.964,202.199c.121-.262.435-.382.695-.266.264.118.38.43.258.694-.124.268-.425.382-.693.262-.27-.12-.383-.422-.26-.69Z" fill="#a7caec"/>
                    <path d="M129.927,199.639c.123-.245.434-.34.68-.208.234.125.329.413.215.655-.12.255-.415.356-.671.229-.25-.124-.35-.425-.225-.675Z" fill="#a7caec"/>
                    <path d="M118.097,209.998c-.242-.123-.335-.402-.217-.648.123-.257.418-.355.671-.224.24.124.335.409.219.65-.123.255-.417.352-.672.222Z" fill="#a7caec"/>
                    <path d="M129.951,202.67c-.116.229-.378.322-.587.208-.217-.118-.312-.413-.203-.631.112-.224.365-.308.591-.197.234.115.319.381.199.619Z" fill="#a7caec"/>
                    <path d="M115.697,204.673c.032-.066.057-.136.097-.197.123-.187.294-.24.486-.123.195.119.215.301.108.491-.056.099-.144.18-.203.278-.108.18-.254.259-.446.154-.196-.107-.198-.277-.103-.46.024-.046.046-.094.069-.141l-.008-.004Z" fill="#a7caec"/>
                    <path d="M126.335,210.293c-.102.226-.365.333-.578.235-.216-.099-.319-.399-.215-.622.098-.21.384-.31.592-.206.214.107.303.369.201.594Z" fill="#a7caec"/>
                    <path d="M118.185,197.04c-.251-.11-.363-.339-.274-.559.084-.207.346-.309.56-.217.215.093.379.533.277.741-.081.165-.244.175-.562.035Z" fill="#a7caec"/>
                    <path d="M121.556,196.24c-.112.218-.383.303-.599.176-.225-.132-.289-.331-.186-.57.099-.23.363-.313.589-.2.224.113.31.373.197.593Z" fill="#a7caec"/>
                    <path d="M115.317,199.676c.112-.207.396-.288.609-.174.217.116.291.356.175.568-.118.215-.39.298-.602.182-.202-.109-.287-.381-.182-.576Z" fill="#a7caec"/>
                    <path d="M119.038,204.759c-.206-.1-.302-.36-.209-.566.098-.216.376-.307.594-.193.206.108.291.368.188.571-.103.201-.367.288-.573.188Z" fill="#a7caec"/>
                    <path d="M121.331,199.597c.17.112.242.282.145.499-.089.198-.354.291-.537.185-.202-.117-.26-.301-.171-.515.082-.198.347-.28.564-.169Z" fill="#a7caec"/>
                    <path d="M121.176,209.243c.031.166.118.346.079.494-.057.221-.271.26-.468.171-.203-.091-.29-.295-.176-.472.081-.126.281-.174.428-.257l.137.064Z" fill="#a7caec"/>
                    <path d="M124.948,204.244c-.069-.25-.149-.4-.129-.535.008-.054.254-.135.358-.1.183.061.242.241.123.413-.053.076-.167.11-.352.223Z" fill="#a7caec"/>
                    <path d="M124.087,208.267c-.217.031-.367.099-.445.051-.082-.051-.095-.213-.138-.327.115-.039.249-.133.34-.102.087.03.129.19.243.378Z" fill="#a7caec"/>
                    <path d="M120.579,206.893c.201-.03.338-.094.411-.05.077.046.092.195.134.298-.113.041-.236.13-.334.108-.072-.016-.112-.178-.211-.356Z" fill="#a7caec"/>
                    <path d="M113.973,205.478c.214-.031.358-.096.425-.049.074.052.119.215.096.31-.014.056-.206.124-.279.094-.084-.035-.125-.173-.242-.354Z" fill="#a7caec"/>
                    <path d="M118.566,203.23c-.024-.206-.083-.346-.037-.414.05-.074.199-.08.305-.115.035.107.12.231.091.316-.026.077-.177.112-.359.213Z" fill="#a7caec"/>
                    <path d="M119.04,201.188c-.033-.182-.096-.308-.057-.372.041-.068.203-.128.269-.098.066.03.126.191.103.267-.022.072-.158.108-.315.203Z" fill="#a7caec"/>
                    <path d="M122.986,210.456c-.029-.183-.085-.302-.048-.375.032-.064.206-.129.249-.098.074.053.142.191.122.273-.016.068-.16.106-.323.201Z" fill="#a7caec"/>
                    <path d="M121.249,210.429c.027.187.085.315.043.379-.046.07-.183.082-.28.119-.033-.098-.112-.212-.086-.291.024-.073.16-.109.323-.207Z" fill="#a7caec"/>
                    <path d="M124.665,197.543c-.023-.147-.081-.274-.042-.319.056-.065.182-.071.278-.102.026.099.089.208.063.292-.017.056-.159.073-.299.13Z" fill="#a7caec"/>
                    <path d="M129.206,198.477c-.159.014-.291.063-.338.02-.063-.057-.059-.187-.084-.285.093-.017.207-.074.273-.04.066.034.084.16.149.305Z" fill="#a7caec"/>
                    <path d="M121.906,206.871c.143-.03.255-.088.301-.055.066.048.085.162.124.247-.09.026-.188.086-.267.067-.056-.014-.086-.133-.159-.259Z" fill="#a7caec"/>
                    <path d="M123.443,205.215c.14-.027.233-.072.303-.048.043.014.091.171.066.198-.052.056-.155.097-.229.086-.045-.006-.075-.12-.14-.236Z" fill="#a7caec"/>
                  </g>
                  <g>
                    <path d="M135.118,203.019c.079.24-.101.432-.256.457-.185.03-.363-.081-.403-.258-.042-.187.074-.37.262-.413.03-.007.062-.009.092-.015.257-.052.278-.037.306.229Z" fill="#a7caec"/>
                    <path d="M129.857,201.727c.168-.024.323.091.351.26.029.178-.089.338-.266.358-.167.02-.323-.101-.347-.268-.024-.167.096-.327.262-.35Z" fill="#a7caec"/>
                    <path d="M131.727,204.956c.141-.019.236.062.262.222.025.155-.077.297-.226.317-.145.02-.277-.084-.297-.233-.02-.156.088-.284.261-.307Z" fill="#a7caec"/>
                    <path d="M133.082,206.33c-.146.016-.271-.081-.286-.223-.015-.141.088-.266.231-.283.155-.018.29.081.305.223.015.142-.094.265-.25.283Z" fill="#a7caec"/>
                    <path d="M133.022,202.558c.141-.02.274.079.295.218.021.141-.078.272-.219.291-.144.02-.272-.075-.293-.218-.022-.144.073-.271.218-.291Z" fill="#a7caec"/>
                    <path d="M136.202,205.182c.134-.014.256.09.267.227.01.131-.084.247-.214.263-.138.018-.258-.078-.273-.218-.015-.137.083-.259.22-.273Z" fill="#a7caec"/>
                    <path d="M128.756,203.027c-.013-.133.078-.246.211-.263.139-.017.259.079.271.219.012.133-.081.248-.212.264-.139.017-.257-.079-.271-.22Z" fill="#a7caec"/>
                    <path d="M134.951,205.999c-.126.013-.234-.071-.243-.188-.009-.122.088-.239.208-.252.123-.013.225.069.239.193.014.128-.073.234-.204.247Z" fill="#a7caec"/>
                    <path d="M130.328,200.614c.036-.004.072-.012.108-.012.11.001.178.058.18.169.002.113-.068.169-.175.175-.056.003-.113-.012-.17-.01-.104.003-.175-.037-.183-.144-.008-.11.062-.156.163-.165.026-.002.051-.006.077-.009v-.004Z" fill="#a7caec"/>
                    <path d="M130.824,206.525c-.121.018-.235-.063-.251-.178-.016-.116.081-.239.201-.255.113-.015.231.077.243.191.013.117-.073.224-.193.241Z" fill="#a7caec"/>
                    <path d="M134.158,199.617c-.021-.134.044-.241.159-.263.108-.02.22.062.239.175.019.114-.12.299-.234.312-.09.01-.138-.055-.164-.224Z" fill="#a7caec"/>
                    <path d="M135.387,200.803c-.12.011-.228-.079-.233-.202-.005-.129.06-.208.187-.229.122-.02.227.067.239.191.013.123-.072.228-.194.239Z" fill="#a7caec"/>
                    <path d="M132.301,199.127c.116-.009.225.088.234.207.01.121-.07.215-.189.224-.121.008-.227-.083-.236-.202-.008-.113.082-.221.191-.229Z" fill="#a7caec"/>
                    <path d="M131.181,202.024c-.014-.112.069-.221.18-.237.116-.017.227.075.238.195.01.114-.075.219-.187.23-.111.011-.217-.076-.23-.188Z" fill="#a7caec"/>
                    <path d="M133.934,201.603c-.001.1-.053.176-.168.193-.106.016-.215-.07-.22-.174-.005-.115.056-.188.168-.208.104-.019.209.07.22.189Z" fill="#a7caec"/>
                    <path d="M129.888,204.104c-.061.057-.112.141-.184.164-.107.035-.18-.043-.196-.149-.016-.109.045-.199.149-.199.074,0,.147.07.221.109l.01.074Z" fill="#a7caec"/>
                    <path d="M132.967,204.34c.085-.095.126-.168.188-.196.024-.011.123.07.137.122.024.092-.036.165-.139.161-.046-.002-.09-.04-.186-.087Z" fill="#a7caec"/>
                    <path d="M131.067,205.053c-.071-.082-.139-.126-.139-.171,0-.048.063-.096.099-.144.047.037.122.068.133.114.011.044-.044.104-.092.201Z" fill="#a7caec"/>
                    <path d="M130.705,203.231c.066.075.129.115.13.157.001.044-.056.09-.088.135-.047-.036-.117-.063-.134-.11-.012-.034.044-.094.092-.183Z" fill="#a7caec"/>
                    <path d="M129.535,200.113c.07.081.135.123.133.163-.002.045-.057.107-.103.122-.027.009-.106-.052-.113-.091-.008-.044.039-.098.083-.195Z" fill="#a7caec"/>
                    <path d="M131.69,201.421c.079-.065.121-.126.162-.125.044.001.086.061.129.096-.035.043-.064.111-.107.122-.039.01-.093-.044-.184-.092Z" fill="#a7caec"/>
                    <path d="M132.664,201.075c.067-.062.102-.122.139-.123.039,0,.107.05.112.085.005.036-.046.103-.084.114-.036.01-.087-.037-.168-.077Z" fill="#a7caec"/>
                    <path d="M129.866,205.178c.068-.061.103-.116.143-.12.035-.004.108.051.107.077-.002.045-.042.11-.081.123-.033.011-.086-.038-.169-.081Z" fill="#a7caec"/>
                    <path d="M129.415,204.45c-.07.061-.108.119-.146.119-.041,0-.083-.054-.124-.084.032-.04.058-.103.098-.113.037-.009.088.037.172.079Z" fill="#a7caec"/>
                    <path d="M135.673,202.44c.055-.049.092-.106.121-.102.042.006.078.057.116.088-.034.037-.063.092-.104.104-.028.008-.073-.046-.134-.09Z" fill="#a7caec"/>
                    <path d="M136.493,204.574c-.048-.062-.103-.104-.098-.135.007-.041.062-.074.096-.111.032.034.086.066.089.103.003.036-.044.077-.087.143Z" fill="#a7caec"/>
                    <path d="M131.067,203.776c.051.051.104.082.103.11-.002.04-.044.078-.07.117-.035-.03-.086-.055-.099-.093-.009-.027.032-.071.065-.135Z" fill="#a7caec"/>
                    <path d="M132.163,203.974c.048.051.092.078.101.113.005.022-.047.083-.065.08-.037-.007-.081-.039-.097-.072-.009-.02.03-.063.061-.121Z" fill="#a7caec"/>
                  </g>
                </g>
              </g>
            </g>
          </g>
        </g>
        <path d="M170.836,39.085H59.164c-2.439,0-4.415,1.977-4.415,4.415v49.282c0,2.439,1.977,4.415,4.415,4.415h45.362c1.577,0,3.035.842,3.824,2.208l4.739,8.208c.85,1.472,2.974,1.472,3.824,0l4.739-8.208c.789-1.366,2.246-2.208,3.824-2.208h45.362c2.439,0,4.415-1.977,4.415-4.415v-49.282c0-2.439-1.977-4.415-4.415-4.415Z" fill="#ffd66e" filter="url(#j)"/>
      </g>
    </g>
  </g>
</svg>