<?xml version="1.0" encoding="UTF-8"?>
<svg xmlns="http://www.w3.org/2000/svg" width="150" height="150" xmlns:xlink="http://www.w3.org/1999/xlink" viewBox="0 0 150 150">
  <defs>
    <filter id="b" data-name="drop-shadow-3" x="2.339" y="15.273" width="133.308" height="132.533" filterUnits="userSpaceOnUse">
      <feOffset dx="-4" dy="0"/>
      <feGaussianBlur result="c" stdDeviation="0"/>
      <feFlood flood-color="#42496f" flood-opacity="1"/>
      <feComposite in2="c" operator="in"/>
      <feComposite in="SourceGraphic"/>
    </filter>
    <clipPath id="d">
      <path d="M130.711,68.087c-2.468-30.229-29.994-52.406-60.503-47.787-26.226,3.971-45.614,27.412-44.652,53.92.482,13.267,5.772,25.116,14.076,34.031,4.04,4.337,6.647,9.812,7.129,15.72l.045.548c.499,6.116,5.862,10.669,11.978,10.17l48.692-3.975c6.116-.499,10.669-5.862,10.17-11.978l-.045-.548c-.482-5.908,1.203-11.734,4.486-16.669,6.331-9.518,9.625-21.154,8.623-33.431Z" fill="none"/>
    </clipPath>
  </defs>
  <g isolation="isolate">
    <g id="a" data-name="Calque 6">
      <g filter="url(#b)">
        <g>
          <g>
            <rect x="26.562" y="32.205" width="3.049" height="8.913" transform="translate(-18.039 34.344) rotate(-49.667)" fill="#336a9b"/>
            <circle cx="36.801" cy="44.061" r="10.173" fill="#54bfd1"/>
            <rect x="12.348" y="28.606" width="21.509" height="7.65" rx="2.753" ry="2.753" transform="translate(-16.572 29.052) rotate(-49.667)" fill="#54bfd1"/>
          </g>
          <g>
            <rect x="120.344" y="24.549" width="3.049" height="8.913" transform="translate(195.996 129.993) rotate(-139.667)" fill="#336a9b"/>
            <circle cx="114.469" cy="37.721" r="10.173" fill="#54bfd1"/>
            <rect x="115.346" y="20.197" width="21.509" height="7.65" rx="2.753" ry="2.753" transform="translate(206.678 123.949) rotate(-139.667)" fill="#54bfd1"/>
          </g>
        </g>
        <path d="M130.711,68.087c-2.468-30.229-29.994-52.406-60.503-47.787-26.226,3.971-45.614,27.412-44.652,53.92.482,13.267,5.772,25.116,14.076,34.031,4.04,4.337,6.647,9.812,7.129,15.72l.045.548c.499,6.116,5.862,10.669,11.978,10.17l48.692-3.975c6.116-.499,10.669-5.862,10.17-11.978l-.045-.548c-.482-5.908,1.203-11.734,4.486-16.669,6.331-9.518,9.625-21.154,8.623-33.431Z" fill="#93d1ad"/>
        <g clip-path="url(#d)">
          <path d="M111.528,81.167c-2.468-30.229-29.994-52.406-60.503-47.787-26.226,3.971-45.614,27.412-44.652,53.92.482,13.267,5.772,25.116,14.076,34.031,4.04,4.337,6.647,9.812,7.129,15.72l.045.548c.499,6.116,5.862,10.669,11.978,10.17l48.692-3.975c6.116-.499,10.669-5.862,10.17-11.978l-.045-.548c-.482-5.908,1.203-11.734,4.486-16.669,6.331-9.518,9.625-21.154,8.623-33.431Z" fill="#6498d1" mix-blend-mode="multiply" opacity=".25"/>
        </g>
        <g>
          <rect x="57.409" y="109.145" width="14.995" height="6.095" rx="3.048" ry="3.048" transform="translate(-8.914 5.653) rotate(-4.667)" fill="#e86170"/>
          <rect x="90.289" y="106.46" width="14.995" height="6.095" rx="3.048" ry="3.048" transform="translate(-8.586 8.32) rotate(-4.667)" fill="#e86170"/>
          <path d="M81.595,113.888h0c-1.678.137-3.148-1.112-3.285-2.789h0c-.137-1.678,1.112-3.149,2.789-3.285h0c1.678-.137,3.148,1.112,3.285,2.789h0c.137,1.678-1.112,3.149-2.789,3.285Z" fill="#9bc8ec"/>
        </g>
        <g>
          <path d="M52.431,87.478c-3.359,0-6.206-2.625-6.479-5.976l-1.976-24.198c-.292-3.575,2.379-6.721,5.954-7.013l52.594-4.293c.179-.015.357-.022.534-.022,3.359,0,6.205,2.625,6.478,5.976l1.976,24.198c.292,3.575-2.379,6.721-5.954,7.013l-52.594,4.294c-.179.015-.357.022-.534.022Z" fill="#fff"/>
          <path d="M103.059,47.975c2.322,0,4.293,1.784,4.485,4.139l1.975,24.198c.202,2.48-1.644,4.654-4.124,4.857l-52.594,4.294c-.125.01-.249.015-.372.015-2.322,0-4.293-1.784-4.485-4.139l-1.975-24.198c-.202-2.48,1.644-4.654,4.124-4.857l52.594-4.294c.125-.01.249-.015.372-.015M103.059,43.975h0c-.231,0-.463.009-.697.028l-52.594,4.294c-2.264.185-4.321,1.24-5.791,2.972-1.47,1.732-2.178,3.933-1.993,6.197l1.975,24.198c.358,4.381,4.079,7.813,8.472,7.813.23,0,.463-.009.697-.028l52.594-4.294c4.674-.382,8.167-4.495,7.785-9.169l-1.976-24.198c-.358-4.381-4.079-7.813-8.472-7.813h0Z" fill="#42496f"/>
        </g>
        <rect x="46.855" y="50.082" width="61.779" height="33.289" rx="4.505" ry="4.505" transform="translate(-5.172 6.547) rotate(-4.667)" fill="#fff"/>
        <path d="M106,53.419c-.188-2.302-2.206-4.015-4.508-3.827l-49.96,4.079c-2.302.188-4.015,2.206-3.827,4.508l.52,6.364c8.097,2.82,18.46,4.082,29.617,3.163,11.145-.918,21.152-3.854,28.676-7.954l-.517-6.332Z" fill="#9bc8ec" opacity=".25"/>
      </g>
    </g>
  </g>
</svg>