<?xml version="1.0" encoding="UTF-8"?><svg xmlns="http://www.w3.org/2000/svg" xmlns:xlink="http://www.w3.org/1999/xlink" viewBox="0 0 150 150"><defs><style>.cls-1,.cls-2{fill:#9bc8ec;}.cls-1,.cls-3{opacity:.25;}.cls-4{fill:#54bfd1;}.cls-5{fill:#fff;}.cls-6{fill:#e86170;}.cls-7{fill:none;}.cls-8{isolation:isolate;}.cls-9{filter:url(#drop-shadow-3);}.cls-10{fill:#42496f;}.cls-11{fill:#93d1ad;}.cls-12{fill:#336a9b;}.cls-13{clip-path:url(#clippath);}.cls-3{fill:#6498d1;mix-blend-mode:multiply;}</style><filter id="drop-shadow-3" x="2.34" y="15.27" width="133.31" height="132.53" filterUnits="userSpaceOnUse"><feOffset dx="-4" dy="0"/><feGaussianBlur result="blur" stdDeviation="0"/><feFlood flood-color="#42496f" flood-opacity="1"/><feComposite in2="blur" operator="in"/><feComposite in="SourceGraphic"/></filter><clipPath id="clippath"><path class="cls-7" d="M130.71,68.09c-2.47-30.23-29.99-52.41-60.5-47.79-26.23,3.97-45.61,27.41-44.65,53.92.48,13.27,5.77,25.12,14.08,34.03,4.04,4.34,6.65,9.81,7.13,15.72l.04.55c.5,6.12,5.86,10.67,11.98,10.17l48.69-3.98c6.12-.5,10.67-5.86,10.17-11.98l-.04-.55c-.48-5.91,1.2-11.73,4.49-16.67,6.33-9.52,9.63-21.15,8.62-33.43Z"/></clipPath></defs><g class="cls-8"><g id="Calque_6"><g class="cls-9"><rect class="cls-12" x="26.56" y="32.21" width="3.05" height="8.91" transform="translate(-18.04 34.34) rotate(-49.67)"/><circle class="cls-4" cx="36.8" cy="44.06" r="10.17"/><rect class="cls-4" x="12.35" y="28.61" width="21.51" height="7.65" rx="2.75" ry="2.75" transform="translate(-16.57 29.05) rotate(-49.67)"/><rect class="cls-12" x="120.34" y="24.55" width="3.05" height="8.91" transform="translate(196 129.99) rotate(-139.67)"/><circle class="cls-4" cx="114.47" cy="37.72" r="10.17"/><rect class="cls-4" x="115.35" y="20.2" width="21.51" height="7.65" rx="2.75" ry="2.75" transform="translate(206.68 123.95) rotate(-139.67)"/><path class="cls-11" d="M130.71,68.09c-2.47-30.23-29.99-52.41-60.5-47.79-26.23,3.97-45.61,27.41-44.65,53.92.48,13.27,5.77,25.12,14.08,34.03,4.04,4.34,6.65,9.81,7.13,15.72l.04.55c.5,6.12,5.86,10.67,11.98,10.17l48.69-3.98c6.12-.5,10.67-5.86,10.17-11.98l-.04-.55c-.48-5.91,1.2-11.73,4.49-16.67,6.33-9.52,9.63-21.15,8.62-33.43Z"/><g class="cls-13"><path class="cls-3" d="M111.53,81.17c-2.47-30.23-29.99-52.41-60.5-47.79-26.23,3.97-45.61,27.41-44.65,53.92.48,13.27,5.77,25.12,14.08,34.03,4.04,4.34,6.65,9.81,7.13,15.72l.04.55c.5,6.12,5.86,10.67,11.98,10.17l48.69-3.98c6.12-.5,10.67-5.86,10.17-11.98l-.04-.55c-.48-5.91,1.2-11.73,4.49-16.67,6.33-9.52,9.63-21.15,8.62-33.43Z"/></g><rect class="cls-6" x="57.41" y="109.14" width="14.99" height="6.1" rx="3.05" ry="3.05" transform="translate(-8.91 5.65) rotate(-4.67)"/><rect class="cls-6" x="90.29" y="106.46" width="14.99" height="6.1" rx="3.05" ry="3.05" transform="translate(-8.59 8.32) rotate(-4.67)"/><path class="cls-2" d="M81.59,113.89h0c-1.68.14-3.15-1.11-3.29-2.79h0c-.14-1.68,1.11-3.15,2.79-3.29h0c1.68-.14,3.15,1.11,3.29,2.79h0c.14,1.68-1.11,3.15-2.79,3.29Z"/><path class="cls-5" d="M52.43,87.48c-3.36,0-6.21-2.62-6.48-5.98l-1.98-24.2c-.29-3.57,2.38-6.72,5.95-7.01l52.59-4.29c.18-.01.36-.02.53-.02,3.36,0,6.21,2.62,6.48,5.98l1.98,24.2c.29,3.57-2.38,6.72-5.95,7.01l-52.59,4.29c-.18.01-.36.02-.53.02Z"/><path class="cls-10" d="M103.06,47.98c2.32,0,4.29,1.78,4.49,4.14l1.98,24.2c.2,2.48-1.64,4.65-4.12,4.86l-52.59,4.29c-.12.01-.25.02-.37.02-2.32,0-4.29-1.78-4.49-4.14l-1.98-24.2c-.2-2.48,1.64-4.65,4.12-4.86l52.59-4.29c.12-.01.25-.02.37-.02M103.06,43.98h0c-.23,0-.46,0-.7.03l-52.59,4.29c-2.26.18-4.32,1.24-5.79,2.97-1.47,1.73-2.18,3.93-1.99,6.2l1.98,24.2c.36,4.38,4.08,7.81,8.47,7.81.23,0,.46,0,.7-.03l52.59-4.29c4.67-.38,8.17-4.49,7.78-9.17l-1.98-24.2c-.36-4.38-4.08-7.81-8.47-7.81h0Z"/><rect class="cls-5" x="46.85" y="50.08" width="61.78" height="33.29" rx="4.51" ry="4.51" transform="translate(-5.17 6.55) rotate(-4.67)"/><path class="cls-1" d="M106,53.42c-.19-2.3-2.21-4.02-4.51-3.83l-49.96,4.08c-2.3.19-4.02,2.21-3.83,4.51l.52,6.36c8.1,2.82,18.46,4.08,29.62,3.16,11.14-.92,21.15-3.85,28.68-7.95l-.52-6.33Z"/></g></g></g></svg>