<?xml version="1.0" encoding="UTF-8"?>
<svg xmlns="http://www.w3.org/2000/svg" width="300" height="300" xmlns:xlink="http://www.w3.org/1999/xlink" viewBox="0 0 300 300">
  <defs>
    <clipPath id="c">
      <path d="M125.176,277.902c-.758.606-1.363,1.091-2.099,1.68-.003-.062.007.162.019.418-3.387-.334-3.522-2.53-.098-3.069,1.342-.49,1.373-1.844,1.91-3.284-1.545.594-2.59.506-4.045.75.265.932.945.904,1.534,1.532-.51.542-1.236.631-1.879.545-.171-1.088-1.084-2.648.13-3.455,1.146-.477-.194-1.794-.597-2.141-.611.296-1.18,1.025-.657,1.699.326.497.537.919-.125,1.406-1.262,3.485-3.207-.493-5.147-1.157.045-.2.138-.606.266-1.167-1.843,1.109-.956-3.384-3.099-.868-1.719-1.114-2.28-5.151-4.52-4.617-.207.129-.764-.091-.913-.342-.836-2.748-3.385-3.928-4.281-6.463-.684-1.609-2.09-2.526-3.293-3.665-.111-.161-.786-.115-.912.063-1.014,1.276-3.112.134-3.218-1.378-.322-.602-1.556-1.201-1.471-2.115-1.051-1.21.048-1.135.802-1.756-.756-.315-.921-.946-.91-1.842.195-.857-1.761-2.287-.415-2.741,1.544-.299.328-1.25.315-2.363-1.058,1.519-2.145,2.422-3.898,2.192-.795.651-1.282.214-1.811-.279-1.364-1.502-3.416.497-4.633,1.488.109-4.002-4.968.967-6.934,1.268-.046-1.376-1.634-2.458-2.685-1.099-2.382-.642-3.147-4.201-4.953-5.937-.373-1.633-2.54-1.221-2.64-2.783-.181-1.733-2.434-1.989-2.418-3.905-1.526-.625-1.185-2.704-2.284-3.658-1.887-2.432-6.876-5.47-6.084-8.614.95-.978.003-1.271-.64-1.872-.495-1.076-1.066-.045-1.882-.251,1.998-2.195-1.55-2.482,1.393-6.355.327-.955-.899-.688-1.176-.108-.733,1.315-1.78,1.135-2.794,1-.541-.583-.059-2.048-1.408-1.769-.091-.388-.183-.777-.279-1.185-1.315.322-2.049,1.703-.55,2.351-1.399,1.336-3.807,4.797-5.134,1.796-1.578.367-1.42-2.378-3.173-1.002-.084-.744-.152-1.349-.229-2.03-.19.126-.43.286-.672.447-.377-.79-.406-1.909-1.645-1.727-.134-1.018-.267-2.024-.419-3.175-.29.427-.488.719-.605.891-1.842-.421-2.225-2.363-3.204-3.755-.101.014-.202.029-.303.043-.068.357-.136.714-.204,1.071-.106-.005-.212-.01-.319-.015.29-3.611-3.029-4.701-4.076-7.738.286-1.072.316-1.514-.327-2.383-.408.441-.782.845-1.294,1.398-.826-.612-.409-2.128-1.643-1.805-.352-1.444-.025-2.5.928-3.472-1.038-1.162,1.651-3.705-.451-3.882-.116.498-.225.967-.334,1.436h-.228c.03-1.184.06-2.366.096-3.75,2.575,1.249,2.423-2.394,2.656-4.202-1.026.759-1.741,2.138-2.991,1.111.186.319.371.638.649,1.114-.55.141-1.028.263-1.348.344-.364-2.031.499-3.342,1.823-4.795.134.091.311.211.418.285,3.084-4.942,6.173-10.469,10.632-14.7-1.165-.953-1.766-2.917-.226-3.796.701.057,1.446.358,1.811.083.669-.832,1.205-1.962-.347-2.502-.005-1.458,1.93-3.062.547-4.344-.806-.904-.524-2.803-2.08-2.91-1.632-.494-2.494.987-3.891,1.43-1.359-.254-1.628,1.089-2.331,1.99-.824-.47-1.84-.606-2.386-1.297-.373-1.519-1.51-1.056-2.731-1.326.297-.315.543-.577.803-.852-1.705-.48-1.32,1.259-.729,2.099-.369.306-.699.58-1.233,1.023-.152-1.062.767-2.418-.515-2.869-2.124-.021-2.212-4.014-4.373-2.497.015-.336.029-.662.043-.993-1.186-.021-1.217-1.038-1.84-1.766-2.432-2.003-1.718-1.336-2.43-4.233-.214.143-.414.277-.671.449-.683-1.046-1.655-1.202-1.962-2.729-1.402-3.064-5.66-3.244-7.493-5.718-.621.09-1.104.16-1.698.246,1.47-2.179.183-3.53.312-5.63.854-2.103,1.706-4.2,2.555-6.292l.379.033c-.091,1.053-.181,2.107-.293,3.403.864-.977.566-1.973,1.022-2.882.193.127.354.234.516.34.071-.036.142-.072.213-.108.028-1.613-1.967-1.002-.647-2.625,8.612-16.246,15.32-33.335,24.554-49.192.481-.918.782-1.708,1.744-.605,1.848.592,1.924-2.504,3.778-2.342.457-.028.79-1.353.469-2.014-.077.341-.131.579-.201.884-1.056.026-2.079.052-3.123.078.309-2.187,2.758-2.299,4.348-1.629,1.788-2.653,2.455-6.629,6.101-7.236-.148-.182-.281-.347-.57-.704,2.672-.633,4.85,2.701,7.066,2.014.467-.416.788-.317.866.327-.229.084-.456.168-.759.28,4.513,1.621,9.124,5.574,13.257,6.388.97,2.569,2.522-.626,3.642-1.592.552-.887,1.476-.078,2.143-.644,9.508-9.638,17.982-20.802,28.43-28.782.581-.01,1.691.247,2.061.871,1.956,1.356,2.621-4.044,7.249,1.222.704,1.219,2.572-.498,2.868,1.108.296,1.212,1.788,1.153,2.335,2.195,1.891,1.147,2.712,3.344,5.013,4.038.73.416.847.903,1.586-.022.122,1.505.324,1.613,1.481.807.083.433.162.843.24,1.253l1.191-.51c-.507,7.39,26.113-25.579,29.55-27.479,1.71.373-.201,1.342.734,2.301.534.151,1.02-.737,1.42-.95,1.777-.352-.027,2.043,1.299,2.365.765.192.877,2.022,1.776,1.021.191.386.446.696.496,1.043.126.926,1.586.859,1.788.118.119-.986-.666-2.506.982-2.267.736.046.44,1.163,1.008,1.456-.268.429-.473.757-.678,1.085.461.132.923.263,1.521.434-.485,1.189-.436,1.382.742,1.869.248,1.071,1.302,1.56,2.087,2.168.903.747,1.75,2.174,3.19,2.091-.392,1.48,1.508.578,2.246,1.025-1.1,1.038-.985,1.378.145,2.052-.028.068-.055.137-.083.205-.501-.055-1.002-.11-1.695-.186.285.777,1.225.66.788,1.569-.073.777,1.294.973,1.946.448-.175.336-.28.538-.425.815.604-.042.219,1.079,1.021.751.447-.183.807-.582,1.169-1.013-1.147.696-1.422-.42-.425-1.014,1.444.034,2.18-.92,2.999-1.86,1.237-1.402,2.296-2.231,4.132-1.408.444.388.838.783,1.439.089,1.084.983,2.127,1.93,3.171,2.877.085-.071.171-.142.256-.214-.213-.353-.425-.705-.747-1.238,2.036,1.376,4.154-1.104,5.678.421.253,1.729,1.216,2.647,2.497,3.669,1.139,1.021.482,2.811,1.73,3.733.626.465.442,1.639,1.442,1.008,1.206-.857,2.185,1.382,1.49,2.305.449.086.789.151,1.078.206-.371.455-.698.857-1.026,1.258.636.277-.542,1.462.777,1.424.084-.249.174-.514.258-.762,1.055.709,2.434,1.259,1.29,2.728.341.047.643.089,1.014.14-.055.249-.102.462-.12.54.422.384.781.71,1.188,1.081-.209.266-.398.505-.693.88,1.058-.278,1.961-.515,2.951-.775.017.335.027.53.037.723,2.685.578.491,4.712,0,6.443.086.06.172.119.257.179,1.715-1.469,2.607-3.721,4.12-5.4.088.051.175.103.263.154-.409,1.037-.95,2.034-1.149,3.139,1.093-.036,1.581-.863,2.143-1.672,3.45,2.375,15.545-19.719,14.303-8.532.1.031.2.063.3.094,1.164-2.284,4.785-2.801,4.789.419-.103.948.778.59,1.369.528.629-.149.858.112.86.703-.088,2.089,4.779.549,4.205,3.436,2.274-.491,1.311,2.367,3.031,2.555.641-.005,1.282.394,1.946.621-.239.517-.461.995-.721,1.556,5.319,1.05,1.166.825,3.705,3.115,4.664,2.434.158,6.616-.446,10.297.094.044.188.087.282.131-.196.125-.392.249-.642.408.062.164.133.35.206.543-1.536.032-.73,1.358-1.475,2.279-.37.508-.555.861.082,1.296.772.902.649,2.409.967,3.506-.077-.063-.244-.199-.287-.234-.698,1.536.087,3.183-1.914,3.709-.218.806-.298,1.74-1.258,2.212-.333-.355-.618-.658-.902-.961-.145-.009-.29-.018-.435-.027.306,2.258-.913,3.67-1.917,5.579,1.315,1.041,3.178.858,4.132,1.982.144.215.28.653.386.642,1.524-.087,1.83,1.399,2.835,2.117.683-.705,1.322-1.366,1.98-2.045.275.198.493.356.712.513.056-.033.111-.065.167-.098-.135-.294-.27-.588-.452-.983,1.662-3.371,1.804.704,2.983-1.261.504.208-.223,1.245.727.984.136-.037.123-.629.207-1.136,1.217-.011,1.52,1.645,2.955.403.076.822.039,1.217.224,1.869,1.788-.9,3.539-2.33,5.195-3.785,1.087-1.413,2.034-2.034,3.697-.799-.504.152-.793.239-1.082.326-.006.072-.012.143-.018.215.4.072.801.144,1.266.228.037-.193.068-.355.107-.563,1.826.24.024,1.308,1.14,1.913.142-.218.272-.416.315-.483,1.98.39,1.087-1.75,1.043-2.93l.217-.011c1.368,1.169,1.073,3.622,2.506,4.35.506.044.879.152,1.234.532,1.528.874.773-1.63,1.54-2.012.875-.067,1.36.8,1.831,1.502-.693,2.077,2.367,3.026,3.522,4.421-1.642-.441-2.471-.087-.856,1.537.244-.372.384-.587.631-.964.381.699.534,1.211,1.134,1.631.347-.64.06-1.115-.146-1.737.721.208,1.351.423.919,1.38.367,2.291,4.553-.851,3.589,2.319.952-.325,3.24.332,1.897,1.476-.139.101-.146.644-.007.805.178.206.665.404.842.301.918-.559,1.361.651,1.989,1.098,1.142,1.992-1.205,4.083-1.038,5.886,1.273.561-.386,2.146-1.133.937-.328.441-.519.812.204.917,1.71,1.932-2.629,6.887-3.918,9.191.387-.115.626-.185.964-.286.167.657,1.069,1.814-.014,2.115-.79.591-.282,1.655-.248,2.661.306.015,1.239-.443,1.489-.409.632.548,1.186.276,1.736-.057.594-.36.738-.058.828.494.844,2.517,1.24,5.081,2.192,7.484.312,1.373.75,3.61,2.299,3.949.377,1.031,1.998,1.118,1.716,2.669,2.754-.295,2.243,3.331,2.287,5.071,3.102,1.509-2.027,5.248-2.197,7.504-1.452,1.119-1.828,3.428-2.935,4.096-.586.354.134,1.9-1,1.758-.846.894-1.298,2.084-2.192,3.395,3.56.445,6.835.855,10.101,1.264.031,1.773.937.387,1.844,1.353-.492.341-.847.587-1.178.817,1.219,1.287,2.068,4.043.015,4.806-1.285-.446-.787.53-.87,1.19.574-.19,1.058-.349,1.612-.532,1.029,1.241-1.909,2.032-.462,3.52.003,6.036-9.851,6.994-2.309,13.999-.639.991.851,1.679.366,2.649-.918,1.323-.596,2.658,1.085,2.947.033-.127.101-.392.174-.674,1.073.657,2.622,4.342,2.48,5.777.215-.034.487-.077.76-.12-.011.102-.022.205-.033.307-.194.209-.388.419-.582.629.023.097.046.195.069.292.417-.072.833-.143,1.404-.241-.641.726-.255,2.286-1.261,2.364-.155-.009-.32.308-.48.476.748.648,1.61-.011,2.444-.175.041.07.083.139.124.209-3.322,4.446-9.62,6.889-11.529,12.186-.139,1.678-.436.865-1.557,1.151.541.325,1.511.933.657,1.468-.811.476.064,1.243-.272,1.996-.092.003-.184.007-.276.01-.128-.209-.257-.418-.546-.889-2.929,10.533-15.64,11.418-23.28,17.245-5.012,4.273-10.049,8.79-15.649,12.18-1.097,1.789-5.144,5.186-6.509,2.308.248-.108.486-.212.969-.424-.551-.345-.914-.572-1.426-.893.154,1.185-1.034,3.402-.652,1.17-1.283-.617-.153-2.097-.82-3.394-.427.942-.751,1.658-1.076,2.377-1.512-.775-.157-3.866-1.932-4.074-.715,1.091-1.228.635-1.713-.326-.318.575-.572,1.033-.847,1.531-3.462-3.646-10.416,7.118-14.197,6.485-2.055.198-3.677,3.989-5.872,3.017-9.505-2.355-29.605,24.751-35.198,20.033.294-.127.565-.244,1.089-.47-.52-.378-.871-.634-1.285-.935-1.333,2.614-1.439-.702-1.323-1.92-.104-.033-.209-.066-.313-.098-.389.695-.778,1.391-1.161,2.075-1.721-.231.059-5.088-1.888-4.079-.955,1.392-.972.073-1.76-.339-.19.46-.368.891-.537,1.298-2.203-1.825-4.674.918-7.24.354-.867.406-2.867,1.276-2.586-.636.755-.802,1.572-4.206-.391-3.301-.733-1.165-.648-1.495.41-1.738-.135-1.528-.539-2.109-1.666-.757.182-2.536-1.846-3.598-1.211-5.861.167-.569-.452-1.509-.28-2.089.818-1.57-.349-2.27-.954-3.196-2.045-.783-2.766-2.336-3.718-4.322-.699.551-1.423,1.121-2.208,1.74.03-.304.053-.547.08-.821-2.263.488-.916,2.161-2.453,3.649-.505-2.191,1.349-3.697,1.239-5.838-7.958,9.434-15.161,21.677-23.274,29.774ZM289.544,166.12c.911.967-.19,1.456.92,1.922.259-.91,1.564-1.379.654-2.622l-.662.331-.437-.207c.235-.286.47-.573.703-.856-1.485-1.741-1.274.345-1.178,1.433ZM26.527,186.126c-.468.637-.936,1.276-1.404,1.912.441.246.944.527,1.453.81,1.033-1.082,1.029-1.927-.049-2.723ZM290.349,174.461c-.235-.1-.47-.201-.706-.301.364-.526.728-1.051,1.055-1.524-.265-.181-.583-.398-.898-.613q-.594.51.02,1.119c-.3.202-.597.402-.895.602-.01.129-.019.258-.029.387.484.11.969.22,1.453.33ZM288.278,162.817c-.338.659-.59,1.15-.947,1.846,1.125-.295,2.45-1.219.947-1.846ZM235.92,85.117c-.074.025-.148.049-.223.074-.095.675-.189,1.35-.293,2.092l.957-.441c-.145-.566-.293-1.146-.441-1.725ZM181.702,36.845c-.9.537-.919.845-.11,1.517.038-.523.07-.963.11-1.517ZM32.318,74.325c.687.163,1.088.183,1.127-.518-.453-.578-.728.019-1.127.518ZM24.81,193.863c-.497.995-.404,1.19.503,1.318-.188-.493-.346-.905-.503-1.318ZM289.136,170.68c.163.013.327.026.49.039.006-.435.013-.87.019-1.305-.127-.01-.254-.02-.381-.031-.043.432-.085.864-.128,1.297ZM71.801,245.001c-.035.41-.069.82-.115,1.357.984-.528.89-.949.115-1.357Z" fill="none"/>
    </clipPath>
    <linearGradient id="d" data-name="Dégradé sans nom 19" x1="162.528" y1="191.71" x2="162.528" y2="4.602" gradientUnits="userSpaceOnUse">
      <stop offset="0" stop-color="#b1ddea"/>
      <stop offset="1" stop-color="#54bfd1"/>
    </linearGradient>
    <filter id="e" data-name="drop-shadow-4" x="48.876" y="112.638" width="246.505" height="111.588" filterUnits="userSpaceOnUse">
      <feOffset dx="-4" dy="0"/>
      <feGaussianBlur result="f" stdDeviation="0"/>
      <feFlood flood-color="#42496f" flood-opacity="1"/>
      <feComposite in2="f" operator="in"/>
      <feComposite in="SourceGraphic"/>
    </filter>
    <clipPath id="g">
      <path d="M108.376,224.226l79.735-17.916c9.646-1.926,44.784-16.009,60.882-34.56,23.859-27.493,24.272-43.235,26.163-53.333,0,0-78.953,27.983-175.602,56.334-3.506,1.029-5.484,4.739-4.371,8.22l13.193,41.255Z" fill="none"/>
    </clipPath>
    <linearGradient id="h" data-name="Dégradé sans nom 17" x1="166.984" y1="196.195" x2="166.984" y2="290.851" gradientUnits="userSpaceOnUse">
      <stop offset="0" stop-color="#6498d1"/>
      <stop offset="1" stop-color="#336a9b"/>
    </linearGradient>
  </defs>
  <g isolation="isolate">
    <g id="b" data-name="Calque 7">
      <g clip-path="url(#c)">
        <g>
          <rect x="-3.613" y="-14.838" width="332.282" height="240.418" fill="url(#d)"/>
          <g>
            <path d="M83.965,201.935s-13.588-31.129-30.35-33.177c-16.763-2.048-10.228,15.954-6.171,22.319-7.479-6.343-13.943-5.11-15.573-3.037s3.1,8.524,6.844,11.962c-5.97-5.064-13.245-4.717-14.131,1.128,0,0,6.235-2.984,15.219,3.483,0,0,7.002-4.953,17.672-.068,0,0,6.128-5.798,26.492-2.61Z" fill="#6498d1"/>
            <path d="M39.731,202.03c-1.501-11.816,8.236-8.006,10.084-5.196.693-1.847,1.553-2.46,4.459,1.061,0,0-4.653-10.782,7.448-11.229,7.568-.28,16.499,8.578,22.128,15.253.039.006.076.011.116.017,0,0-13.588-31.129-30.35-33.177-16.763-2.048-10.229,15.954-6.172,22.319-7.479-6.343-13.943-5.11-15.573-3.037-1.63,2.073,3.099,8.524,6.843,11.962-5.97-5.064-13.245-4.717-14.131,1.128,0,0,.081-.036.207-.085,4.01-4.147,10.755-2.3,14.942.984Z" fill="#fff" opacity=".75"/>
          </g>
          <g filter="url(#e)">
            <g>
              <path d="M187.072,135.809h-43.749c-.792,0-1.434.642-1.434,1.434h0c0,.792.642,1.434,1.434,1.434h3.853c.697,0,1.262.565,1.262,1.262h0c0,.697-.565,1.262-1.262,1.262h-.655c-.822,0-1.489.666-1.489,1.489h0c0,.822.666,1.489,1.489,1.489h6.631l33.92-8.368Z" fill="#9bc8ec"/>
              <circle cx="141.086" cy="142.654" r="1.42" fill="#9bc8ec"/>
              <path d="M224.304,138.612s-35.752-8.279-73.385,3.011l-20.887,31.988,94.272-34.999Z" fill="#9bc8ec"/>
              <path d="M187.359,135.804c-.104.004-.205.006-.309.01l.022-.006h-12.967c-4.339,25.109-29.784,30.665-29.784,30.665,1.874,0,3.659-.06,5.376-.163l29.078-10.795c6.352-6.315,8.196-14.087,8.584-19.711Z" fill="#fff"/>
              <path d="M147.969,164.812s19.041-13.157,20.101-29.003h-2.23s0,13.338-20.397,29.003h2.525Z" fill="#fff"/>
            </g>
            <g>
              <path d="M88.008,170.261c5.725-1.831,11.85,1.326,13.681,7.051" fill="none" stroke="#336a9b" stroke-miterlimit="10" stroke-width="2.917"/>
              <rect x="86.895" y="186.345" width="9.785" height="28.329" transform="translate(-56.713 37.486) rotate(-17.734)" fill="#42496f"/>
              <path d="M65.934,170.312h21.624c1.822,0,3.301,1.479,3.301,3.301v8.742h-28.225v-8.742c0-1.822,1.479-3.301,3.301-3.301Z" transform="translate(-50.064 31.756) rotate(-17.734)" fill="#336a9b"/>
              <path d="M64.798,179.947h29.945v7.521c0,2.3-1.868,4.168-4.168,4.168h-21.609c-2.3,0-4.168-1.868-4.168-4.168v-7.521h0Z" transform="translate(-52.801 33.127) rotate(-17.734)" fill="#42496f"/>
              <path d="M92.294,183.829l-2.976-9.786c-.447-1.472-2.022-2.282-3.48-1.792l-14.898,5.013c-2.739.922-4.424,3.672-4.003,6.531l.92,6.231c.227,1.537,1.74,2.535,3.243,2.138l19.408-5.131c1.396-.369,2.206-1.823,1.786-3.204Z" fill="#6498d1" mix-blend-mode="multiply" opacity=".25"/>
              <path d="M86.418,167.172h-29.756c-.792,0-1.434.642-1.434,1.434h0c0,.792.642,1.434,1.434,1.434h3.853c.697,0,1.262.565,1.262,1.262h0c0,.697-.565,1.262-1.262,1.262h-.655c-.822,0-1.489.666-1.489,1.489h0c0,.822.666,1.489,1.489,1.489h7.278l19.28-8.368Z" fill="#336a9b"/>
              <circle cx="54.296" cy="174.018" r="1.42" fill="#336a9b"/>
            </g>
            <g>
              <path d="M272.776,113.39h-9.7c-1.023,0-1.852.829-1.852,1.852h0c0,.888.631,1.651,1.503,1.819l9.336,1.788.712-5.458Z" fill="#e86170"/>
              <path d="M274.062,124.856c.426-2.38.733-4.512,1.094-6.439v-2.66c0-1.605-1.565-2.744-3.093-2.25h0c-.914.296-1.557,1.101-1.629,2.059-.123,1.639-.403,4.609-1.028,9.097" fill="#e86170"/>
              <circle cx="253.899" cy="115.094" r="2.455" fill="#e86170"/>
            </g>
            <path d="M108.376,224.226l79.735-17.916c9.646-1.926,44.784-16.009,60.882-34.56,23.859-27.493,24.272-43.235,26.163-53.333,0,0-78.953,27.983-175.602,56.334-3.506,1.029-5.484,4.739-4.371,8.22l13.193,41.255Z" fill="#fff"/>
            <g clip-path="url(#g)">
              <path d="M94.124,198.716c96.65-28.351,201.257-66.023,201.257-66.023l-.779-2.281s-104.607,37.672-201.257,66.023l2.42,7.085" fill="#e86170"/>
              <path d="M91.787,192.231c96.65-28.351,201.257-66.023,201.257-66.023l-2.42-7.085s-104.607,37.672-201.257,66.023l2.42,7.085" fill="#e86170"/>
              <path d="M201.536,210.868s57.128-38.251,65.464-75.464c2.367-10.566-82.446,32.352-165.701,42.046-2.286.266-3.941,2.3-3.703,4.59l3.165,30.472,100.775-1.643Z" fill="#6498d1" mix-blend-mode="multiply" opacity=".25"/>
            </g>
          </g>
          <g>
            <path d="M317.071,200.509c-7.947,0-15.211-1.7-20.805-4.506h-1.678c-2.335,1.542-5.067,2.446-7.999,2.446-2.531,0-4.913-.674-7.021-1.847-4.289,2.422-9.926,3.907-16.124,3.907-6.703,0-12.772-1.722-17.164-4.506h-.9c-11.102,0-3.536-6.525-11.102-8.656-9.973-2.809-17.096,9.007-18.917,7.557-1.821-1.449-43.492-35.608-59.736-25.914-3.906,2.331,18.064,7.066,32.365,20.803-27.284-13.36-40.268-10.914-42.526-7.527-2.258,3.387,15.618,6.21,25.591,12.795-16.182-4.892-16.371-4.328-21.451-1.505-16.935,0-32.391-6.682-40.644,0-4.893-5.269-10.459-2.557-12.663,1.32h-17.066c-5.808,3.474-13.903,5.632-22.864,5.632-8.405,0-16.048-1.899-21.757-5.001-2.483,1.852-5.486,2.941-8.726,2.941-2.531,0-4.913-.674-7.021-1.847-4.289,2.422-9.926,3.907-16.124,3.907-2.201,0-4.323-.202-6.35-.55v100.009h341.195v-103.815c-5.553,2.718-12.704,4.357-20.51,4.357Z" fill="url(#h)"/>
            <path d="M105.082,200.509s-21.568-16.981-29.163-13.74,9.923,13.74,9.923,13.74c0,0-9.721-5.741-14.784-4.019s4.583,7.291,4.583,7.291c-2.403-4.761,2.875-5.696,14.981-.898-4.153-2.938-3.087-5.686-1.178-6.725,2.012-1.095,6.166-1.089,15.637,4.351Z" fill="#6498d1"/>
            <g opacity=".5">
              <path d="M105.082,200.509s-21.568-16.981-29.163-13.74,9.923,13.74,9.923,13.74c0,0-9.721-5.741-14.784-4.019s4.583,7.291,4.583,7.291c-2.403-4.761,2.875-5.696,14.981-.898-4.153-2.938-3.087-5.686-1.178-6.725,2.012-1.095,6.166-1.089,15.637,4.351Z" fill="#fff"/>
              <path d="M155.623,168.991c-3.906,2.331,18.064,7.066,32.365,20.803-27.284-13.36-40.268-10.914-42.526-7.527-2.258,3.387,15.618,6.21,25.591,12.795-16.182-4.892-16.371-4.328-21.451-1.505,0,0-13.584.643-5.424,1.736,8.159,1.093,9.926,5.216,9.926,5.216,8.243-4.121,7.907,3.271,7.907,3.271l9.198,2.289s-9.94-5.739-4.224-8.561,21.38,4.47,21.38,4.47c0,0-5.457-5.542-3.351-6.909,2.106-1.367,6.676,1.367,16.276,6.909-.811-3.245-16.721-13.807-8.409-16.187,8.312-2.38,24.085,14.718,24.085,14.718l-1.606-5.605c-1.821-1.449-43.492-35.608-59.736-25.914Z" fill="#fff"/>
            </g>
            <g opacity=".5">
              <path d="M211.274,226.824s10.12-3.472,12.558-5.171c0,0,.295,3.62,13.149,3.841-15.882,4.58-11.524-.443-25.706,1.33Z" fill="#fff"/>
              <path d="M254.709,213.232s3.029-1.551,3.546-2.364c2.016,1.164,5.319,2.585,6.205,2.364-6.353-.771-6.75,1.733-9.751,0Z" fill="#fff"/>
              <path d="M109.684,217.175s3.807-.586,5.081-1.694c1.663,1.233,6.285,1.694,6.285,1.694-5.221-.011-7.996,1.151-11.365,0Z" fill="#fff"/>
              <path d="M129.298,228.882c4.274.241,9.768-2.525,11.47-3.719,2.151,2.405,5.975,4.273,11.787,1.758,3.651,1.531,9.649,2.18,12.366,1.455-10.058,1.663-8.455.453-11.297.872s-6.897,2.638-12.954.15c-4.441,1.352-8.581,1.269-11.372-.515Z" fill="#fff"/>
            </g>
          </g>
          <g>
            <g>
              <g>
                <path d="M41.658,184.791c.125.534-.299.916-.639.942-.405.031-.771-.243-.824-.634-.056-.412.228-.786.643-.845.067-.009.135-.008.202-.016.567-.065.608-.028.618.553Z" fill="#fff"/>
                <path d="M30.521,181.02c.368-.021.683.257.712.628.03.39-.255.714-.642.726-.364.012-.68-.279-.701-.645-.021-.365.268-.689.631-.709Z" fill="#fff"/>
                <path d="M33.965,188.351c.309-.015.5.177.525.53.025.34-.221.628-.549.644-.318.016-.584-.233-.598-.558-.015-.341.244-.598.622-.616Z" fill="#fff"/>
                <path d="M36.639,191.574c-.319.009-.571-.226-.577-.536-.006-.307.239-.559.552-.568.338-.009.613.23.618.539.006.311-.252.556-.594.566Z" fill="#fff"/>
                <path d="M37.21,183.404c.308-.016.578.222.598.526.02.309-.218.574-.529.59-.315.016-.573-.213-.594-.526-.02-.316.209-.573.525-.59Z" fill="#fff"/>
                <path d="M43.602,189.672c.293-.005.538.242.536.541-.002.285-.228.518-.513.53-.302.013-.544-.216-.55-.521-.007-.299.228-.544.527-.549Z" fill="#fff"/>
                <path d="M27.896,183.625c-.004-.29.214-.517.506-.528.304-.012.545.219.546.524.001.289-.22.521-.507.531-.303.011-.541-.219-.545-.526Z" fill="#fff"/>
                <path d="M40.743,191.205c-.275.005-.494-.198-.49-.453.004-.264.236-.501.496-.506.268-.006.474.192.481.462.007.279-.202.492-.487.497Z" fill="#fff"/>
                <path d="M31.746,178.699c.078-.003.158-.014.235-.006.239.024.374.159.358.4-.016.244-.178.353-.412.347-.122-.003-.243-.046-.365-.053-.225-.013-.372-.112-.368-.346.003-.239.164-.325.384-.327.056,0,.112-.003.168-.005v-.01Z" fill="#fff"/>
                <path d="M31.72,191.576c-.265.016-.497-.18-.51-.431-.013-.254.219-.501.482-.514.248-.012.484.21.49.458.005.256-.199.471-.462.486Z" fill="#fff"/>
                <path d="M40.215,177.255c-.02-.293.14-.513.393-.538.238-.024.465.174.484.422.019.25-.316.624-.564.631-.196.005-.287-.144-.313-.515Z" fill="#fff"/>
                <path d="M42.653,180.049c-.262.002-.478-.212-.466-.48.013-.279.17-.439.448-.46.267-.02.478.187.482.458.005.268-.199.48-.464.482Z" fill="#fff"/>
                <path d="M36.29,175.85c.252.003.47.231.468.49-.002.264-.192.453-.451.449-.263-.004-.476-.221-.473-.48.003-.245.218-.462.456-.459Z" fill="#fff"/>
                <path d="M33.328,181.907c-.008-.245.191-.466.432-.48.254-.015.478.204.478.467,0,.249-.203.459-.447.462-.242.003-.455-.204-.464-.449Z" fill="#fff"/>
                <path d="M39.36,181.509c-.021.216-.147.37-.4.386-.232.015-.452-.191-.443-.417.011-.249.156-.396.402-.419.228-.021.438.189.441.45Z" fill="#fff"/>
                <path d="M30.145,186.166c-.142.112-.269.284-.428.321-.237.056-.381-.127-.395-.358-.015-.238.135-.422.36-.402.159.014.305.18.457.278l.007.161Z" fill="#fff"/>
                <path d="M36.76,187.25c.202-.19.305-.34.443-.389.055-.02.254.174.273.289.034.204-.107.349-.33.322-.099-.012-.187-.104-.386-.222Z" fill="#fff"/>
                <path d="M32.52,188.438c-.137-.19-.277-.298-.27-.396.008-.103.155-.196.241-.294.095.089.25.169.266.271.015.097-.115.217-.238.418Z" fill="#fff"/>
                <path d="M32.073,184.43c.129.175.257.274.252.365-.005.096-.138.184-.216.276-.095-.086-.241-.159-.269-.263-.021-.077.113-.195.232-.378Z" fill="#fff"/>
                <path d="M30.124,177.467c.136.187.269.292.258.378-.012.096-.144.22-.245.245-.06.015-.221-.133-.228-.218-.009-.097.102-.205.215-.405Z" fill="#fff"/>
                <path d="M34.542,180.699c.183-.125.286-.251.374-.241.095.011.175.149.261.231-.084.087-.159.229-.254.243-.086.013-.194-.112-.381-.234Z" fill="#fff"/>
                <path d="M36.712,180.13c.156-.122.244-.244.324-.239.085.005.222.128.227.206.004.078-.118.215-.202.23-.079.015-.181-.096-.349-.197Z" fill="#fff"/>
                <path d="M29.897,188.485c.159-.119.244-.231.332-.233.076-.002.225.131.217.187-.013.096-.111.23-.197.252-.072.019-.18-.099-.351-.206Z" fill="#fff"/>
                <path d="M29.058,186.826c-.164.118-.256.237-.338.23-.089-.008-.168-.132-.252-.206.077-.081.145-.212.232-.227.081-.014.183.097.357.202Z" fill="#fff"/>
                <path d="M42.967,183.643c.127-.095.22-.213.282-.199.09.021.158.137.235.212-.081.073-.153.188-.245.205-.061.012-.149-.114-.272-.219Z" fill="#fff"/>
                <path d="M44.344,188.41c-.092-.144-.205-.244-.187-.31.023-.088.147-.149.228-.222.062.079.173.159.174.238,0,.079-.11.159-.215.293Z" fill="#fff"/>
                <path d="M32.756,185.676c.1.121.211.197.202.258-.012.087-.111.161-.172.241-.069-.072-.175-.135-.196-.219-.015-.06.083-.148.166-.279Z" fill="#fff"/>
                <path d="M35.09,186.308c.095.119.184.185.196.263.008.048-.117.172-.155.162-.079-.022-.169-.099-.196-.174-.016-.046.077-.131.154-.25Z" fill="#fff"/>
              </g>
              <g>
                <path d="M64.3,193.981c-.022.906-.86,1.341-1.414,1.241-.66-.119-1.133-.709-1.054-1.357.083-.683.692-1.163,1.38-1.084.111.013.219.044.33.059.934.132.985.208.759,1.142Z" fill="#fff"/>
                <path d="M48.052,183.312c.598.121.985.695.877,1.301-.114.637-.706,1.035-1.329.894-.588-.133-.972-.73-.853-1.324.119-.592.715-.99,1.305-.872Z" fill="#fff"/>
                <path d="M50.51,196.474c.501.105.725.491.62,1.066-.102.554-.615.913-1.146.803-.516-.107-.838-.615-.725-1.142.119-.552.639-.855,1.251-.727Z" fill="#fff"/>
                <path d="M53.445,202.744c-.513-.119-.819-.599-.699-1.098.119-.494.616-.795,1.12-.679.545.126.884.623.765,1.119-.12.5-.635.785-1.185.658Z" fill="#fff"/>
                <path d="M57.761,189.911c.499.103.833.595.737,1.09-.097.502-.588.828-1.091.723-.511-.106-.829-.579-.731-1.088.099-.513.573-.83,1.085-.725Z" fill="#fff"/>
                <path d="M65.378,202.6c.471.114.76.611.632,1.088-.122.454-.58.733-1.041.634-.488-.105-.78-.572-.664-1.063.114-.481.592-.775,1.072-.659Z" fill="#fff"/>
                <path d="M42.768,186.387c.115-.466.557-.739,1.03-.635.492.108.78.577.656,1.065-.118.463-.569.742-1.033.639-.49-.109-.775-.576-.653-1.069Z" fill="#fff"/>
                <path d="M60.165,203.862c-.442-.107-.708-.522-.595-.928.116-.421.585-.703,1.005-.603.431.103.678.504.577.94-.105.449-.528.703-.986.592Z" fill="#fff"/>
                <path d="M50.977,180.109c.126.029.258.044.378.088.372.137.532.41.407.789-.127.383-.433.491-.803.383-.194-.056-.369-.175-.561-.237-.354-.114-.548-.334-.446-.707.105-.38.398-.452.75-.363.09.023.181.041.271.062.001-.005.002-.01.003-.015Z" fill="#fff"/>
                <path d="M45.576,200.7c-.431-.085-.72-.495-.637-.902.085-.412.559-.711.986-.621.402.085.688.537.593.937-.098.411-.514.67-.942.585Z" fill="#fff"/>
                <path d="M65.129,181.324c.089-.477.438-.762.853-.697.391.061.671.472.599.877-.073.408-.765.868-1.166.775-.316-.073-.399-.351-.286-.954Z" fill="#fff"/>
                <path d="M67.866,186.81c-.42-.106-.676-.538-.545-.961.136-.442.454-.632.908-.55.436.079.686.499.581.934-.104.431-.518.685-.943.578Z" fill="#fff"/>
                <path d="M59.433,177.443c.402.109.655.566.545.979-.113.421-.495.645-.908.53-.418-.116-.67-.552-.557-.964.107-.391.541-.648.92-.545Z" fill="#fff"/>
                <path d="M52.174,185.9c.089-.395.499-.666.892-.588.412.082.68.525.571.946-.103.398-.516.65-.908.553-.388-.096-.643-.516-.555-.911Z" fill="#fff"/>
                <path d="M61.99,187.774c-.124.337-.388.531-.801.451-.378-.073-.644-.493-.535-.851.121-.394.415-.569.818-.502.374.062.622.485.518.903Z" fill="#fff"/>
                <path d="M45.308,191.389c-.273.12-.549.342-.819.335-.403-.009-.557-.362-.484-.738.076-.387.391-.619.743-.494.249.089.413.415.616.635l-.056.261Z" fill="#fff"/>
                <path d="M55.439,195.876c.403-.22.629-.417.87-.438.096-.008.334.384.317.576-.031.34-.317.514-.662.378-.153-.06-.257-.244-.526-.516Z" fill="#fff"/>
                <path d="M48.161,196.012c-.141-.361-.319-.593-.267-.746.055-.162.329-.249.508-.369.114.182.33.375.313.544-.016.162-.275.299-.554.571Z" fill="#fff"/>
                <path d="M49.116,189.414c.133.334.298.545.252.689-.048.151-.298.237-.46.352-.116-.178-.32-.354-.321-.533,0-.131.262-.265.529-.508Z" fill="#fff"/>
                <path d="M48.895,177.463c.139.356.309.579.256.712-.059.149-.322.292-.495.29-.101,0-.297-.305-.274-.443.026-.159.248-.285.514-.559Z" fill="#fff"/>
                <path d="M54.618,184.472c.345-.124.562-.282.698-.23.147.057.217.311.321.479-.17.104-.349.3-.507.284-.144-.015-.264-.26-.512-.533Z" fill="#fff"/>
                <path d="M58.326,184.466c.3-.13.492-.289.619-.247.134.044.303.298.277.424-.026.126-.278.295-.419.284-.132-.009-.25-.229-.476-.46Z" fill="#fff"/>
                <path d="M43.946,194.996c.304-.124.487-.268.627-.234.122.029.305.303.269.389-.062.148-.273.321-.42.321-.124,0-.246-.234-.476-.476Z" fill="#fff"/>
                <path d="M43.294,191.992c-.311.121-.509.273-.636.228-.14-.05-.214-.282-.318-.434.156-.097.32-.279.466-.266.136.012.253.232.487.472Z" fill="#fff"/>
                <path d="M66.872,192.69c.244-.099.44-.249.533-.201.135.071.196.285.288.437-.159.084-.323.236-.477.227-.102-.006-.19-.244-.344-.464Z" fill="#fff"/>
                <path d="M67.09,200.891c-.088-.268-.226-.475-.17-.574.074-.131.298-.177.458-.26.067.153.211.326.178.454-.033.127-.243.209-.466.38Z" fill="#fff"/>
                <path d="M49.689,191.692c.11.235.255.404.216.496-.055.134-.244.212-.376.314-.081-.144-.223-.289-.222-.433,0-.102.195-.203.382-.378Z" fill="#fff"/>
                <path d="M53.16,193.674c.102.23.217.372.205.503-.008.08-.258.226-.314.194-.117-.067-.229-.229-.241-.36-.007-.08.177-.177.351-.336Z" fill="#fff"/>
              </g>
              <g>
                <path d="M83.743,192.67c.12.698-.458,1.158-.899,1.164-.525.008-.976-.374-1.013-.883-.039-.536.356-.996.896-1.039.087-.007.175,0,.262-.004.736-.039.787.012.754.762Z" fill="#fff"/>
                <path d="M69.673,186.926c.477.003.861.385.868.867.008.506-.386.9-.885.886-.471-.014-.856-.414-.854-.887.002-.472.4-.867.87-.865Z" fill="#fff"/>
                <path d="M73.537,196.656c.4.005.63.268.636.725.005.44-.335.793-.759.788-.412-.005-.736-.346-.728-.767.008-.441.362-.752.851-.746Z" fill="#fff"/>
                <path d="M76.731,201.025c-.412-.014-.719-.337-.701-.737.017-.397.353-.703.757-.689.437.015.772.345.755.744-.017.402-.369.698-.811.683Z" fill="#fff"/>
                <path d="M78.114,190.53c.399.004.728.332.729.726.001.4-.327.724-.729.719-.408-.005-.723-.32-.724-.725-.001-.409.315-.723.724-.719Z" fill="#fff"/>
                <path d="M85.866,199.122c.379.016.675.354.649.74-.025.367-.334.65-.704.643-.39-.007-.684-.322-.669-.716.015-.386.338-.683.724-.667Z" fill="#fff"/>
                <path d="M66.081,190.079c.018-.375.317-.651.695-.642.394.009.686.325.663.719-.021.373-.325.655-.696.645-.392-.01-.681-.326-.662-.722Z" fill="#fff"/>
                <path d="M82.056,200.873c-.355-.016-.621-.294-.596-.623.026-.341.344-.627.68-.614.346.014.596.285.584.634-.013.361-.299.619-.668.603Z" fill="#fff"/>
                <path d="M71.436,184.028c.101.003.204-.005.304.011.306.049.47.235.431.544-.04.313-.258.442-.559.415-.157-.014-.309-.079-.466-.098-.289-.034-.471-.174-.448-.475.023-.307.237-.407.521-.391.072.004.145.004.217.007,0-.004,0-.008,0-.012Z" fill="#fff"/>
                <path d="M70.386,200.639c-.343,0-.627-.272-.624-.596.003-.329.322-.629.663-.624.321.005.608.309.596.63-.013.33-.294.591-.635.591Z" fill="#fff"/>
                <path d="M82.477,182.834c-.003-.379.222-.65.55-.663.309-.012.586.261.591.583.005.324-.457.781-.778.77-.254-.009-.359-.209-.363-.689Z" fill="#fff"/>
                <path d="M85.401,186.632c-.338-.018-.599-.312-.563-.656.038-.359.253-.553.614-.559.346-.005.601.279.586.629-.015.347-.295.603-.637.585Z" fill="#fff"/>
                <path d="M77.524,180.712c.325.023.588.335.565.67-.023.34-.283.569-.617.543-.338-.026-.597-.323-.572-.656.024-.316.317-.578.624-.557Z" fill="#fff"/>
                <path d="M73.225,188.292c.009-.317.283-.586.596-.585.329,0,.6.301.58.64-.019.321-.299.576-.613.561-.312-.015-.571-.299-.563-.616Z" fill="#fff"/>
                <path d="M81.038,188.254c-.045.277-.218.466-.547.466-.301,0-.569-.282-.538-.573.033-.321.233-.499.552-.508.296-.009.55.279.533.615Z" fill="#fff"/>
                <path d="M68.782,193.535c-.192.133-.37.345-.578.381-.311.053-.482-.194-.482-.493,0-.309.207-.534.496-.49.204.031.38.256.568.394l-.004.209Z" fill="#fff"/>
                <path d="M77.229,195.456c.276-.229.42-.414.602-.467.072-.021.314.244.33.394.028.266-.166.442-.451.39-.126-.023-.234-.149-.481-.317Z" fill="#fff"/>
                <path d="M71.665,196.653c-.162-.256-.334-.407-.317-.532.018-.133.215-.241.334-.36.115.123.31.238.322.371.012.127-.166.271-.339.521Z" fill="#fff"/>
                <path d="M71.406,191.447c.152.236.31.373.297.491-.014.123-.193.227-.3.339-.116-.119-.298-.224-.326-.361-.02-.101.161-.242.329-.469Z" fill="#fff"/>
                <path d="M69.441,182.311c.16.253.324.398.303.508-.023.123-.203.272-.336.297-.078.014-.274-.189-.277-.299-.004-.126.147-.256.31-.506Z" fill="#fff"/>
                <path d="M74.886,186.829c.246-.147.389-.301.501-.281.121.022.213.206.318.319-.115.105-.223.283-.347.294-.112.01-.241-.16-.473-.332Z" fill="#fff"/>
                <path d="M77.73,186.267c.211-.145.334-.296.437-.283.109.014.277.183.276.283,0,.101-.169.268-.279.281-.103.013-.226-.138-.435-.282Z" fill="#fff"/>
                <path d="M68.279,196.507c.215-.141.333-.278.446-.274.098.004.279.187.265.258-.025.123-.161.287-.274.309-.095.018-.224-.142-.437-.294Z" fill="#fff"/>
                <path d="M67.327,194.301c-.221.14-.349.286-.454.27-.115-.017-.207-.184-.309-.285.105-.098.203-.262.318-.274.106-.011.229.14.445.289Z" fill="#fff"/>
                <path d="M85.523,191.293c.172-.113.3-.257.379-.234.114.034.193.189.287.292-.11.088-.213.23-.332.246-.08.01-.183-.159-.334-.304Z" fill="#fff"/>
                <path d="M86.922,197.553c-.108-.192-.245-.331-.217-.415.037-.112.202-.181.312-.268.074.107.211.218.205.321-.006.102-.155.197-.3.362Z" fill="#fff"/>
                <path d="M72.188,193.109c.119.164.256.271.241.348-.022.111-.155.199-.241.297-.084-.099-.215-.188-.236-.299-.015-.078.119-.185.236-.347Z" fill="#fff"/>
                <path d="M75.149,194.108c.113.161.223.253.233.355.006.063-.164.212-.212.196-.1-.034-.21-.141-.239-.24-.018-.06.109-.163.219-.311Z" fill="#fff"/>
              </g>
            </g>
            <g>
              <g>
                <path d="M139.6,182.11c.843-.502,1.724.017,1.951.582.271.674.002,1.446-.637,1.747-.673.317-1.464.035-1.788-.641-.052-.109-.086-.226-.136-.336-.417-.931-.376-1.023.61-1.353Z" fill="#fff"/>
                <path d="M139.175,203.144c-.234-.617.07-1.303.688-1.553.649-.262,1.355.051,1.584.703.216.615-.109,1.311-.722,1.544-.611.232-1.32-.086-1.55-.695Z" fill="#fff"/>
                <path d="M149.824,193.315c-.192-.519.033-.948.62-1.182.566-.226,1.191.038,1.395.588.198.535-.082,1.122-.629,1.322-.574.209-1.151-.094-1.386-.728Z" fill="#fff"/>
                <path d="M153.88,187.015c.186.539-.078,1.096-.604,1.273-.521.175-1.084-.107-1.267-.635-.198-.572.062-1.169.586-1.345.527-.177,1.085.13,1.285.708Z" fill="#fff"/>
                <path d="M139.634,190.447c-.194-.517.066-1.106.575-1.303.516-.2,1.097.063,1.291.584.197.53-.054,1.093-.577,1.296-.527.205-1.091-.047-1.289-.577Z" fill="#fff"/>
                <path d="M146.88,176.161c-.167-.497.122-1.048.633-1.206.487-.15,1.006.109,1.181.589.185.508-.075,1.044-.593,1.22-.506.173-1.051-.096-1.221-.604Z" fill="#fff"/>
                <path d="M145.035,206.217c-.494.163-.998-.085-1.175-.578-.184-.513.08-1.047.599-1.215.492-.158,1.008.095,1.18.579.182.512-.082,1.042-.604,1.214Z" fill="#fff"/>
                <path d="M151.037,180.212c.156.467-.071.949-.508,1.08-.453.136-.981-.132-1.132-.574-.154-.454.072-.912.529-1.07.472-.163.948.079,1.111.563Z" fill="#fff"/>
                <path d="M134.555,202.307c-.047-.132-.108-.261-.137-.398-.089-.42.07-.724.489-.827.425-.104.699.114.814.516.06.21.052.439.106.651.099.39.01.695-.391.815-.409.123-.643-.104-.764-.479-.031-.095-.066-.189-.1-.284-.005.002-.011.004-.016.006Z" fill="#fff"/>
                <path d="M156.537,195.404c.17.444-.039.945-.46,1.103-.426.16-.973-.103-1.136-.546-.154-.417.096-.94.517-1.083.433-.147.91.086,1.079.526Z" fill="#fff"/>
                <path d="M127.522,188.637c-.489.193-.95.037-1.13-.381-.169-.393.046-.887.459-1.054.416-.168,1.236.202,1.381.622.115.332-.091.568-.71.812Z" fill="#fff"/>
                <path d="M130.975,182.971c.145.446-.105.929-.567,1.053-.483.129-.841-.052-1.027-.515-.179-.444.062-.916.521-1.07.456-.153.926.081,1.072.532Z" fill="#fff"/>
                <path d="M127.244,196.091c-.131-.431.141-.926.584-1.063.451-.139.876.083,1.008.527.134.45-.12.931-.563,1.065-.421.127-.905-.122-1.029-.529Z" fill="#fff"/>
                <path d="M139.174,197.876c-.413.146-.897-.074-1.052-.479-.162-.425.09-.925.538-1.068.424-.135.893.099,1.03.513.135.411-.103.887-.516,1.033Z" fill="#fff"/>
                <path d="M135.241,187.801c.38-.08.71.051.874.475.15.388-.081.875-.473.98-.431.116-.76-.053-.931-.46-.159-.378.087-.849.53-.995Z" fill="#fff"/>
                <path d="M148.157,201.009c.267.181.629.306.779.558.223.375-.011.719-.398.868-.399.154-.792-.002-.88-.397-.062-.279.142-.618.227-.93l.272-.099Z" fill="#fff"/>
                <path d="M146.438,189.141c-.433-.243-.744-.336-.903-.546-.063-.083.159-.527.346-.622.329-.168.654-.005.728.388.033.175-.076.376-.17.779Z" fill="#fff"/>
                <path d="M150.752,195.734c-.25.337-.36.633-.53.673-.18.043-.418-.158-.631-.253.102-.21.154-.518.319-.6.158-.078.432.08.842.179Z" fill="#fff"/>
                <path d="M144.155,198.657c.23-.314.328-.586.486-.627.166-.043.389.137.587.219-.096.209-.141.497-.304.601-.12.076-.393-.088-.77-.192Z" fill="#fff"/>
                <path d="M133.328,205.738c.247-.333.353-.616.505-.644.17-.031.453.127.551.286.058.094-.108.448-.248.507-.161.067-.404-.063-.808-.149Z" fill="#fff"/>
                <path d="M136.458,196.458c-.312-.245-.583-.353-.612-.508-.032-.167.16-.378.254-.57.193.096.476.148.552.302.069.14-.086.391-.194.776Z" fill="#fff"/>
                <path d="M134.318,193.063c-.292-.2-.548-.285-.583-.424-.037-.148.099-.449.229-.498.131-.049.43.085.502.221.068.127-.066.36-.148.702Z" fill="#fff"/>
                <path d="M152.247,200.181c-.288-.207-.525-.292-.576-.44-.044-.129.102-.454.202-.471.171-.029.451.065.536.201.071.114-.072.36-.162.71Z" fill="#fff"/>
                <path d="M149.869,202.508c.29.215.543.309.574.452.035.157-.135.359-.215.541-.179-.087-.439-.132-.512-.274-.067-.131.067-.365.152-.718Z" fill="#fff"/>
                <path d="M136.937,180.496c-.231-.166-.482-.26-.491-.373-.013-.165.148-.343.235-.516.168.098.403.16.482.307.053.098-.114.315-.227.582Z" fill="#fff"/>
                <path d="M144.327,175.576c-.195.235-.306.48-.428.486-.163.008-.334-.171-.502-.27.102-.149.177-.381.313-.425.135-.043.331.102.616.208Z" fill="#fff"/>
                <path d="M145.913,196.82c.152-.236.223-.466.33-.484.154-.026.335.102.504.164-.086.157-.136.371-.269.453-.094.058-.298-.062-.566-.132Z" fill="#fff"/>
                <path d="M145.731,192.498c.152-.226.216-.413.343-.477.078-.039.356.107.359.176.006.146-.077.342-.191.429-.069.053-.264-.06-.51-.128Z" fill="#fff"/>
              </g>
              <g>
                <path d="M155.219,178.653c.088.56-.379.921-.731.921-.42,0-.776-.31-.8-.717-.025-.429.296-.793.728-.821.069-.005.14.002.209,0,.589-.023.629.018.594.618Z" fill="#fff"/>
                <path d="M144.033,173.907c.381.007.684.318.685.702.001.405-.318.716-.717.698-.376-.016-.68-.34-.673-.719.007-.377.329-.689.705-.682Z" fill="#fff"/>
                <path d="M147.015,181.728c.32.008.501.221.5.586,0,.352-.276.631-.615.622-.329-.008-.584-.285-.574-.621.011-.353.298-.597.688-.587Z" fill="#fff"/>
                <path d="M149.522,185.256c-.329-.016-.571-.277-.553-.597.018-.317.29-.558.613-.543.349.016.614.284.595.603-.018.321-.303.554-.656.537Z" fill="#fff"/>
                <path d="M150.742,176.88c.319.007.579.273.575.588-.003.32-.269.575-.591.567-.326-.008-.575-.264-.571-.588.004-.327.26-.575.586-.567Z" fill="#fff"/>
                <path d="M156.845,183.834c.303.017.536.291.51.599-.024.293-.275.516-.57.507-.312-.01-.544-.265-.527-.58.016-.309.277-.543.586-.525Z" fill="#fff"/>
                <path d="M141.127,176.388c.019-.3.26-.517.562-.506.315.012.545.268.523.582-.021.298-.267.52-.564.508-.313-.012-.541-.268-.521-.585Z" fill="#fff"/>
                <path d="M153.78,185.193c-.284-.017-.494-.242-.47-.504.024-.272.282-.498.551-.483.277.015.474.235.46.513-.014.288-.246.492-.541.474Z" fill="#fff"/>
                <path d="M145.474,171.609c.081.003.163-.002.243.012.244.043.373.193.338.44-.035.25-.211.35-.451.325-.125-.013-.246-.067-.372-.083-.231-.031-.375-.144-.353-.385.022-.246.194-.323.421-.307.058.004.116.005.174.008v-.01Z" fill="#fff"/>
                <path d="M144.453,184.878c-.275-.004-.498-.224-.492-.483.006-.263.264-.5.537-.492.257.007.483.253.469.51-.014.264-.241.47-.514.465Z" fill="#fff"/>
                <path d="M154.315,170.775c.002-.303.184-.517.447-.524.247-.006.466.215.466.473,0,.259-.374.619-.63.607-.203-.01-.285-.171-.283-.555Z" fill="#fff"/>
                <path d="M156.611,173.844c-.27-.018-.476-.256-.443-.53.035-.287.209-.44.497-.44.277,0,.478.23.462.509-.016.277-.242.479-.516.461Z" fill="#fff"/>
                <path d="M150.378,169.025c.259.022.466.275.444.542-.022.272-.233.452-.499.427-.27-.025-.474-.265-.45-.531.022-.253.26-.459.505-.438Z" fill="#fff"/>
                <path d="M146.858,175.038c.01-.253.232-.465.483-.461.263.004.477.247.457.518-.019.256-.245.458-.496.442-.249-.016-.453-.246-.443-.499Z" fill="#fff"/>
                <path d="M153.104,175.093c-.039.221-.18.37-.442.367-.24-.003-.452-.231-.424-.464.03-.256.191-.396.447-.4.237-.004.437.229.419.498Z" fill="#fff"/>
                <path d="M143.248,179.181c-.155.104-.299.272-.466.298-.249.039-.383-.161-.38-.4.003-.247.172-.424.402-.387.163.027.301.209.45.322l-.005.167Z" fill="#fff"/>
                <path d="M149.981,180.809c.223-.18.34-.327.486-.367.058-.016.248.199.259.319.019.213-.138.352-.365.307-.101-.02-.185-.121-.381-.259Z" fill="#fff"/>
                <path d="M145.519,181.706c-.127-.207-.262-.329-.247-.429.016-.106.175-.19.271-.284.091.099.245.194.253.3.008.101-.136.215-.277.413Z" fill="#fff"/>
                <path d="M145.369,177.541c.119.19.244.302.232.395-.013.098-.157.179-.244.268-.091-.096-.236-.182-.257-.292-.015-.081.132-.192.269-.371Z" fill="#fff"/>
                <path d="M143.898,170.214c.125.204.255.321.237.409-.02.098-.165.216-.272.234-.062.011-.217-.154-.218-.242-.002-.101.12-.203.253-.401Z" fill="#fff"/>
                <path d="M148.201,173.886c.198-.115.314-.237.404-.219.097.019.168.167.251.259-.093.083-.181.224-.28.231-.09.007-.191-.13-.374-.271Z" fill="#fff"/>
                <path d="M150.481,173.468c.17-.114.27-.233.353-.221.087.012.219.149.218.23-.002.081-.138.212-.226.222-.082.009-.179-.113-.344-.23Z" fill="#fff"/>
                <path d="M142.813,181.552c.173-.11.269-.219.36-.214.078.004.221.152.209.209-.021.098-.132.228-.223.244-.076.014-.178-.116-.346-.24Z" fill="#fff"/>
                <path d="M142.076,179.777c-.178.109-.282.225-.366.211-.092-.015-.163-.149-.244-.231.085-.077.165-.207.257-.216.085-.008.181.115.352.236Z" fill="#fff"/>
                <path d="M156.657,177.572c.139-.088.243-.202.306-.183.091.029.152.153.226.237-.089.069-.172.182-.268.193-.064.007-.144-.129-.264-.247Z" fill="#fff"/>
                <path d="M157.707,182.592c-.084-.155-.192-.267-.169-.334.031-.089.163-.142.252-.211.058.087.166.177.16.259-.006.082-.126.156-.244.286Z" fill="#fff"/>
                <path d="M145.976,178.878c.094.132.202.22.189.281-.019.088-.126.158-.196.235-.066-.08-.17-.153-.185-.241-.011-.063.097-.146.193-.275Z" fill="#fff"/>
                <path d="M148.333,179.709c.089.13.175.205.182.286.004.05-.134.168-.172.155-.079-.028-.167-.115-.189-.195-.013-.048.089-.129.178-.246Z" fill="#fff"/>
              </g>
              <g>
                <path d="M178.117,173.093c.44.636.079,1.356-.353,1.565-.516.249-1.137.079-1.408-.408-.285-.513-.106-1.15.408-1.44.083-.047.173-.08.257-.125.71-.378.784-.35,1.096.407Z" fill="#fff"/>
                <path d="M161.554,173.883c.473-.217,1.029-.015,1.258.458.241.497.032,1.068-.468,1.283-.472.203-1.037-.016-1.253-.485-.215-.468-.003-1.042.463-1.256Z" fill="#fff"/>
                <path d="M169.853,181.731c.398-.179.747-.025.963.425.208.433.034.939-.388,1.129-.41.185-.887-.004-1.073-.424-.195-.44.013-.91.498-1.129Z" fill="#fff"/>
                <path d="M175.023,184.584c-.414.175-.866-.003-1.033-.407-.166-.4.026-.858.432-1.03.439-.187.922-.014,1.089.389.168.405-.044.86-.488,1.048Z" fill="#fff"/>
                <path d="M171.563,173.565c.396-.18.873-.007,1.055.382.185.395.009.866-.39,1.046-.406.183-.862.016-1.05-.384-.189-.404-.021-.86.385-1.045Z" fill="#fff"/>
                <path d="M183.184,178.499c.382-.158.831.04.982.433.144.375-.032.797-.4.96-.389.173-.825-.004-.991-.401-.163-.389.02-.831.409-.993Z" fill="#fff"/>
                <path d="M159.451,178.655c-.154-.379.014-.789.392-.955.394-.172.828.007.987.406.151.378-.021.797-.392.959-.393.17-.824-.009-.987-.41Z" fill="#fff"/>
                <path d="M180.221,181.985c-.359.148-.75-.005-.876-.342-.131-.349.051-.779.391-.92.349-.146.721.008.869.359.153.363-.011.75-.384.903Z" fill="#fff"/>
                <path d="M161.966,170.205c.102-.044.2-.099.305-.129.325-.092.573.016.676.34.105.328-.052.556-.362.667-.162.058-.342.064-.506.118-.302.099-.546.045-.662-.264-.118-.315.047-.511.336-.627.073-.029.145-.062.218-.093-.002-.004-.004-.008-.005-.012Z" fill="#fff"/>
                <path d="M168.568,187.121c-.34.157-.745.02-.892-.303-.148-.327.029-.771.369-.923.32-.143.744.025.879.349.139.333-.019.72-.356.876Z" fill="#fff"/>
                <path d="M172.339,163.944c-.178-.374-.08-.745.239-.909.3-.154.7-.011.853.305.154.318-.093.982-.416,1.119-.255.108-.451-.042-.676-.515Z" fill="#fff"/>
                <path d="M176.979,166.357c-.343.138-.736-.033-.858-.39-.127-.373-.004-.664.35-.835.34-.164.724,0,.869.353.144.35-.014.732-.361.872Z" fill="#fff"/>
                <path d="M166.463,164.124c.332-.126.736.061.867.403.133.347-.018.693-.361.821-.347.13-.739-.045-.868-.386-.122-.324.048-.718.361-.838Z" fill="#fff"/>
                <path d="M165.696,173.6c-.137-.317.01-.71.32-.853.326-.15.732.021.868.366.129.326-.03.708-.349.837-.316.128-.703-.033-.84-.351Z" fill="#fff"/>
                <path d="M173.409,169.969c.083.295-.002.561-.327.713-.297.139-.692-.017-.796-.319-.115-.333,0-.601.312-.757.289-.145.673.023.81.363Z" fill="#fff"/>
                <path d="M163.713,180.832c-.128.22-.207.511-.397.642-.283.196-.566.029-.704-.267-.142-.305-.04-.623.265-.713.216-.064.493.079.743.129l.092.208Z" fill="#fff"/>
                <path d="M172.954,178.845c.168-.354.225-.603.381-.739.062-.054.423.097.507.239.149.25.039.514-.267.593-.136.035-.299-.039-.622-.092Z" fill="#fff"/>
                <path d="M168,182.59c-.278-.179-.517-.249-.558-.381-.043-.14.102-.337.165-.51.17.069.416.093.489.219.07.12-.04.344-.096.672Z" fill="#fff"/>
                <path d="M165.349,177.559c.259.164.479.227.519.349.043.128-.087.313-.141.473-.169-.064-.398-.084-.489-.207-.067-.09.048-.314.11-.616Z" fill="#fff"/>
                <path d="M159.202,169.424c.275.176.503.244.533.363.034.132-.076.363-.196.448-.07.05-.358-.061-.412-.168-.062-.123.028-.321.074-.643Z" fill="#fff"/>
                <path d="M166.666,171.389c.176-.259.246-.477.366-.509.13-.034.306.105.462.169-.065.157-.091.382-.208.45-.106.062-.312-.047-.621-.111Z" fill="#fff"/>
                <path d="M169.222,169.524c.142-.24.195-.446.303-.481.114-.037.358.054.404.153.046.1-.044.343-.147.407-.096.06-.287-.032-.56-.079Z" fill="#fff"/>
                <path d="M164.583,184.003c.148-.238.201-.429.315-.476.099-.041.362.056.381.134.032.133-.027.358-.129.432-.085.062-.287-.038-.567-.09Z" fill="#fff"/>
                <path d="M162.626,182.258c-.154.24-.214.444-.325.476-.122.036-.289-.087-.437-.14.059-.145.081-.353.188-.417.099-.06.291.033.573.082Z" fill="#fff"/>
                <path d="M179.244,170.912c.118-.191.179-.393.267-.406.129-.019.278.098.418.157-.068.138-.105.325-.215.396-.074.047-.254-.073-.47-.147Z" fill="#fff"/>
                <path d="M183.508,176.461c-.195-.141-.394-.215-.405-.31-.015-.127.117-.272.185-.409.123.072.309.119.351.224.041.104-.063.266-.131.496Z" fill="#fff"/>
                <path d="M166.887,178.843c.193.107.378.151.398.234.029.12-.062.269-.102.405-.128-.059-.299-.087-.37-.187-.051-.071.033-.238.074-.452Z" fill="#fff"/>
                <path d="M170.276,178.469c.186.107.337.148.393.244.035.059-.065.286-.12.292-.115.012-.273-.043-.347-.128-.045-.052.033-.211.073-.408Z" fill="#fff"/>
              </g>
              <g>
                <path d="M193.24,181.7c-.251.346-.693.29-.882.102-.224-.223-.25-.579-.045-.809.215-.243.581-.266.826-.051.04.035.073.076.112.111.327.301.327.345-.012.647Z" fill="#fff"/>
                <path d="M189.792,173.202c.2.207.196.534-.008.74-.215.217-.551.213-.756-.009-.192-.209-.182-.544.024-.743.205-.198.543-.193.74.012Z" fill="#fff"/>
                <path d="M187.218,178.97c.166.175.15.385-.045.58-.188.188-.484.19-.66.004-.171-.18-.16-.464.025-.638.194-.182.477-.16.68.053Z" fill="#fff"/>
                <path d="M186.677,182.191c-.167-.184-.157-.452.023-.614.179-.16.452-.144.617.037.178.195.176.479-.003.64-.181.162-.457.135-.636-.062Z" fill="#fff"/>
                <path d="M191.792,178.366c.166.174.164.454-.006.621-.172.169-.45.164-.618-.012-.17-.178-.166-.447.008-.618.176-.173.445-.169.616.009Z" fill="#fff"/>
                <path d="M191.347,185.334c.153.17.131.441-.046.592-.169.144-.422.129-.574-.033-.161-.171-.149-.431.027-.591.173-.156.437-.142.593.032Z" fill="#fff"/>
                <path d="M186.917,172.979c.17-.15.414-.137.57.03.162.174.148.433-.031.589-.17.148-.42.135-.572-.029-.161-.174-.146-.431.033-.59Z" fill="#fff"/>
                <path d="M188.985,184.427c-.143-.16-.135-.392.018-.52.158-.132.416-.116.552.035.14.155.128.378-.028.519-.161.146-.393.132-.542-.035Z" fill="#fff"/>
                <path d="M191.787,172.743c.041.045.088.086.123.136.108.153.097.302-.053.415-.152.115-.3.075-.415-.067-.06-.074-.096-.167-.154-.243-.107-.139-.123-.277.016-.394.143-.119.276-.069.388.06.029.033.059.064.089.097l.005-.005Z" fill="#fff"/>
                <path d="M184.17,179.288c-.144-.149-.147-.385-.006-.521.143-.137.408-.126.549.023.133.141.123.393-.021.523-.148.133-.379.122-.523-.025Z" fill="#fff"/>
                <path d="M196.955,177.008c.163-.161.374-.178.518-.042.135.128.134.363-.003.501-.138.139-.53.132-.66-.012-.103-.113-.061-.243.145-.447Z" fill="#fff"/>
                <path d="M196.546,179.871c-.135-.154-.118-.39.046-.519.171-.135.346-.124.5.03.148.147.133.377-.025.518-.156.139-.385.127-.521-.029Z" fill="#fff"/>
                <path d="M195.784,173.975c.127.15.103.395-.051.526-.157.133-.365.117-.495-.038-.131-.157-.112-.394.042-.524.147-.123.384-.107.503.035Z" fill="#fff"/>
                <path d="M190.699,175.311c.14-.13.372-.125.504.011.138.142.123.386-.032.52-.147.127-.375.114-.501-.029-.125-.141-.111-.373.029-.503Z" fill="#fff"/>
                <path d="M194.007,178.67c-.139.098-.293.102-.432-.04-.127-.13-.118-.364.021-.474.153-.121.314-.11.452.024.129.124.111.355-.041.489Z" fill="#fff"/>
                <path d="M186.562,175.602c-.138-.027-.305-.014-.408-.089-.154-.112-.119-.29.01-.416.133-.13.318-.135.421.008.073.101.049.272.069.411l-.092.086Z" fill="#fff"/>
                <path d="M189.292,180.06c.215.023.356.007.455.063.039.022.027.238-.031.309-.103.124-.261.115-.358-.03-.043-.064-.034-.164-.066-.341Z" fill="#fff"/>
                <path d="M186.43,178.161c.042-.178.035-.316.096-.361.065-.048.195-.009.296-.007-.005.101.028.234-.024.295-.05.058-.187.042-.368.073Z" fill="#fff"/>
                <path d="M188.569,175.856c-.038.165-.031.291-.087.335-.059.046-.179.012-.273.013.002-.1-.029-.223.018-.293.035-.051.173-.032.341-.055Z" fill="#fff"/>
                <path d="M191.688,171.157c-.042.176-.035.307-.092.345-.063.042-.203.027-.27-.02-.039-.028-.034-.198.012-.246.053-.055.173-.044.349-.079Z" fill="#fff"/>
                <path d="M192.03,175.412c.167.044.294.041.333.098.042.061.001.179-.004.272-.094-.005-.216.023-.273-.026-.052-.044-.033-.172-.056-.344Z" fill="#fff"/>
                <path d="M193.471,176.404c.151.03.268.02.306.07.04.053.038.197-.006.239-.044.042-.187.04-.239-.002-.049-.039-.036-.156-.062-.306Z" fill="#fff"/>
                <path d="M185.066,176.637c.151.033.261.027.306.077.04.044.037.199,0,.223-.064.041-.192.052-.249.012-.048-.033-.033-.157-.057-.312Z" fill="#fff"/>
                <path d="M185.618,175.296c-.153-.036-.271-.03-.308-.082-.041-.057-.008-.167-.007-.254.087.004.199-.023.252.022.049.041.036.158.063.314Z" fill="#fff"/>
                <path d="M194.584,181.888c.121.027.238.021.261.065.033.064,0,.163-.005.247-.084-.01-.189.005-.246-.04-.038-.03-.008-.146-.009-.272Z" fill="#fff"/>
                <path d="M192.47,185.13c.038-.128.04-.245.088-.268.064-.031.163.011.247.022-.015.077-.005.183-.052.224-.047.041-.15.016-.283.023Z" fill="#fff"/>
                <path d="M188.181,176.894c-.02.121-.009.225-.049.251-.057.037-.152.017-.23.021.007-.078-.009-.172.03-.228.028-.039.13-.026.249-.044Z" fill="#fff"/>
                <path d="M188.997,178.594c-.022.117-.015.203-.055.25-.024.029-.161.019-.174-.009-.027-.058-.028-.15.003-.205.019-.033.116-.021.226-.036Z" fill="#fff"/>
              </g>
            </g>
            <g>
              <path d="M56.414,191.437c.791.588.651,1.605.214,2.034-.521.512-1.341.561-1.867.084-.554-.502-.598-1.345-.097-1.906.081-.09.176-.167.259-.256.703-.747.803-.744,1.49.043Z" fill="#fff"/>
              <path d="M36.741,199.17c.482-.455,1.236-.439,1.706.038.494.501.476,1.276-.04,1.741-.487.438-1.258.405-1.711-.073-.451-.477-.43-1.257.045-1.706Z" fill="#fff"/>
              <path d="M49.972,205.248c.407-.379.892-.336,1.336.119.428.438.425,1.119-.006,1.521-.419.391-1.073.358-1.469-.073-.416-.452-.357-1.104.14-1.567Z" fill="#fff"/>
              <path d="M57.382,206.577c-.428.381-1.046.351-1.414-.068-.364-.416-.32-1.046.1-1.421.454-.405,1.108-.395,1.474.024.368.421.299,1.057-.16,1.465Z" fill="#fff"/>
              <path d="M48.695,194.689c.405-.379,1.051-.366,1.431.03.385.401.366,1.042-.043,1.423-.415.387-1.035.372-1.425-.034-.394-.41-.378-1.03.037-1.419Z" fill="#fff"/>
              <path d="M64.745,195.89c.397-.347,1.019-.292,1.363.121.327.393.287.975-.09,1.323-.399.368-.997.333-1.361-.078-.356-.403-.316-1.012.088-1.366Z" fill="#fff"/>
              <path d="M36.156,205.791c-.342-.395-.306-.959.083-1.313.405-.369,1.002-.331,1.358.086.337.395.301.971-.081,1.318-.404.366-.998.327-1.359-.091Z" fill="#fff"/>
              <path d="M62.593,201.311c-.372.325-.907.301-1.198-.054-.301-.368-.257-.961.095-1.271.362-.319.874-.286,1.197.077.333.375.293.91-.093,1.248Z" fill="#fff"/>
              <path d="M35.733,194.561c.105-.094.201-.201.316-.281.355-.244.698-.215.956.134.261.353.164.692-.164.954-.172.137-.387.217-.563.35-.324.243-.641.278-.907-.048-.272-.332-.152-.637.149-.894.077-.065.15-.135.225-.202-.004-.004-.008-.008-.011-.013Z" fill="#fff"/>
              <path d="M50.628,212.282c-.346.329-.892.329-1.2,0-.313-.334-.28-.943.067-1.265.327-.304.909-.274,1.204.062.304.345.272.877-.071,1.204Z" fill="#fff"/>
              <path d="M45.695,182.756c-.367-.379-.402-.867-.084-1.195.299-.309.84-.3,1.155.019.316.321.29,1.224-.044,1.521-.264.235-.562.135-1.027-.345Z" fill="#fff"/>
              <path d="M52.284,183.77c-.358.306-.902.262-1.196-.119-.306-.398-.276-.8.081-1.151.343-.337.873-.296,1.194.07.318.363.283.89-.079,1.2Z" fill="#fff"/>
              <path d="M38.673,185.378c.349-.288.914-.227,1.212.131.303.365.262.845-.099,1.139-.366.298-.91.248-1.206-.111-.28-.341-.236-.887.093-1.159Z" fill="#fff"/>
              <path d="M41.627,197.133c-.295-.327-.278-.861.038-1.161.331-.315.893-.274,1.198.087.289.341.253.867-.078,1.153-.329.284-.862.247-1.158-.079Z" fill="#fff"/>
              <path d="M49.452,189.593c.221.322.227.678-.103.994-.302.289-.843.263-1.092-.06-.274-.355-.245-.725.067-1.042.289-.293.821-.248,1.127.107Z" fill="#fff"/>
              <path d="M42.192,206.675c-.065.318-.041.702-.216.938-.261.352-.671.267-.959-.034-.297-.31-.304-.736.028-.97.235-.166.628-.107.95-.148l.197.214Z" fill="#fff"/>
              <path d="M52.535,200.495c.058-.496.024-.82.157-1.048.053-.09.55-.056.71.08.283.241.257.605-.079.825-.149.098-.378.075-.788.143Z" fill="#fff"/>
              <path d="M48.087,207.044c-.409-.102-.726-.089-.829-.231-.109-.151-.015-.449-.009-.683.234.013.54-.058.68.064.133.116.093.432.159.85Z" fill="#fff"/>
              <path d="M42.827,202.054c.38.092.671.078.77.209.104.137.024.414.024.629-.231-.008-.515.061-.674-.05-.117-.082-.07-.399-.119-.788Z" fill="#fff"/>
              <path d="M32.076,194.749c.404.1.708.089.793.22.095.146.057.469-.053.622-.065.089-.457.073-.566-.034-.125-.123-.098-.399-.174-.807Z" fill="#fff"/>
              <path d="M41.893,194.066c.106-.384.102-.677.234-.764.143-.095.412.002.627.015-.015.216.047.499-.066.629-.103.118-.396.071-.795.12Z" fill="#fff"/>
              <path d="M44.215,190.769c.073-.348.052-.618.168-.705.123-.091.454-.082.55.02.096.102.087.432-.011.551-.091.112-.36.078-.708.134Z" fill="#fff"/>
              <path d="M44.54,210.149c.081-.347.068-.6.186-.704.102-.09.46-.08.515.006.093.148.114.444.021.575-.078.11-.362.072-.721.124Z" fill="#fff"/>
              <path d="M41.463,208.842c-.088.352-.077.623-.197.707-.132.093-.385.014-.585.01.012-.199-.047-.459.056-.581.096-.113.365-.079.725-.136Z" fill="#fff"/>
              <path d="M56.882,188.344c.065-.278.055-.547.157-.599.148-.076.376.005.569.019-.026.194.007.436-.098.566-.07.087-.336.016-.628.015Z" fill="#fff"/>
              <path d="M64.301,193.297c-.293-.09-.564-.098-.616-.209-.07-.148.03-.376.056-.57.178.037.422.017.515.126.092.109.033.347.045.652Z" fill="#fff"/>
              <path d="M45.21,202.975c.277.05.518.027.577.119.084.133.035.35.043.531-.179-.019-.397.017-.524-.074-.09-.065-.057-.3-.096-.576Z" fill="#fff"/>
              <path d="M49.149,201.137c.268.053.467.041.575.134.066.057.039.372-.025.401-.133.062-.347.06-.472-.012-.076-.044-.046-.268-.078-.523Z" fill="#fff"/>
            </g>
          </g>
        </g>
      </g>
      <g>
        <line x1="295.757" y1="142.654" x2="236.981" y2="142.654" fill="none" stroke="#42496f" stroke-linecap="round" stroke-linejoin="round" stroke-width="2"/>
        <line x1="292.233" y1="162.133" x2="216.966" y2="162.133" fill="none" stroke="#42496f" stroke-linecap="round" stroke-linejoin="round" stroke-width="2"/>
        <line x1="227.503" y1="167.172" x2="201.536" y2="167.172" fill="none" stroke="#42496f" stroke-linecap="round" stroke-linejoin="round" stroke-width="2"/>
        <line x1="243.309" y1="98.156" x2="111.216" y2="98.156" fill="none" stroke="#42496f" stroke-linecap="round" stroke-linejoin="round" stroke-width="2"/>
        <line x1="139.665" y1="88.748" x2="72.077" y2="88.748" fill="none" stroke="#42496f" stroke-linecap="round" stroke-linejoin="round" stroke-width="2"/>
        <line x1="141.086" y1="129.204" x2="29.551" y2="129.204" fill="none" stroke="#42496f" stroke-linecap="round" stroke-linejoin="round" stroke-width="2"/>
        <line x1="85.318" y1="154.648" x2="2.831" y2="154.648" fill="none" stroke="#42496f" stroke-linecap="round" stroke-linejoin="round" stroke-width="2"/>
      </g>
    </g>
  </g>
</svg>