<?xml version="1.0" encoding="UTF-8"?>
<svg xmlns="http://www.w3.org/2000/svg" width="150" height="150" xmlns:xlink="http://www.w3.org/1999/xlink" viewBox="0 0 150 150">
  <defs>
    <filter id="b" data-name="drop-shadow-2" x="-3.892" y="9.295" width="139.043" height="142.59" filterUnits="userSpaceOnUse">
      <feOffset dx="-4" dy="0"/>
      <feGaussianBlur result="c" stdDeviation="0"/>
      <feFlood flood-color="#42496f" flood-opacity="1"/>
      <feComposite in2="c" operator="in"/>
      <feComposite in="SourceGraphic"/>
    </filter>
    <clipPath id="d">
      <path d="M108.937,36.333c-3.738-15.729-20.029-25.194-35.732-20.301-13.499,4.207-21.824,18.121-19.18,32.01,1.323,6.952,5.066,12.769,10.161,16.796,2.479,1.96,4.293,4.634,5.024,7.708l.068.285c.756,3.182,3.949,5.149,7.131,4.393l25.336-6.021c3.182-.756,5.149-3.949,4.393-7.131l-.068-.285c-.731-3.074-.312-6.279,1.02-9.145,2.569-5.525,3.366-11.922,1.848-18.31Z" fill="none"/>
    </clipPath>
    <clipPath id="e">
      <path d="M89.91,78.797c3.483-21.256-11.684-41.26-33.502-43.309-18.755-1.761-36.137,11.069-40.019,29.502-1.943,9.226-.33,18.299,3.865,25.867,2.041,3.682,2.898,7.902,2.218,12.056l-.063.386c-.705,4.301,2.21,8.358,6.511,9.063l34.239,5.611c4.301.705,8.358-2.21,9.063-6.511l.063-.386c.681-4.155,2.841-7.88,5.95-10.719,5.996-5.473,10.261-12.928,11.676-21.561Z" fill="none"/>
    </clipPath>
    <clipPath id="f">
      <path d="M130.932,83.74c-2.11-25.84-25.64-44.798-51.719-40.849-22.419,3.394-38.992,23.432-38.169,46.092.412,11.341,4.934,21.47,12.033,29.091,3.454,3.708,5.682,8.387,6.094,13.438l.038.469c.427,5.228,5.011,9.12,10.239,8.693l41.623-3.398c5.228-.427,9.12-5.011,8.693-10.239l-.038-.469c-.412-5.051,1.028-10.03,3.835-14.249,5.412-8.136,8.228-18.083,7.371-28.578Z" fill="none"/>
    </clipPath>
  </defs>
  <g isolation="isolate">
    <g id="a" data-name="Calque 6">
      <g filter="url(#b)">
        <g>
          <g>
            <g>
              <rect x="51.517" y="25.674" width="1.625" height="4.751" transform="translate(1.003 57.893) rotate(-58.367)" fill="#336a9b"/>
              <circle cx="57.518" cy="31.245" r="5.423" fill="#54bfd1"/>
              <rect x="43.63" y="24.183" width="11.465" height="4.078" rx="1.467" ry="1.467" transform="translate(1.148 54.498) rotate(-58.367)" fill="#54bfd1"/>
            </g>
            <g>
              <rect x="100.314" y="14.078" width="1.625" height="4.751" transform="translate(178.599 83.5) rotate(-148.367)" fill="#336a9b"/>
              <circle cx="97.93" cy="21.642" r="5.423" fill="#54bfd1"/>
              <rect x="97.222" y="11.448" width="11.465" height="4.078" rx="1.467" ry="1.467" transform="translate(183.539 78.965) rotate(-148.367)" fill="#54bfd1"/>
            </g>
          </g>
          <path d="M108.937,36.333c-3.738-15.729-20.029-25.194-35.732-20.301-13.499,4.207-21.824,18.121-19.18,32.01,1.323,6.952,5.066,12.769,10.161,16.796,2.479,1.96,4.293,4.634,5.024,7.708l.068.285c.756,3.182,3.949,5.149,7.131,4.393l25.336-6.021c3.182-.756,5.149-3.949,4.393-7.131l-.068-.285c-.731-3.074-.312-6.279,1.02-9.145,2.569-5.525,3.366-11.922,1.848-18.31Z" fill="#93d1ad"/>
          <g clip-path="url(#d)">
            <path d="M99.884,44.771c-3.738-15.729-20.029-25.194-35.732-20.301-13.499,4.207-21.824,18.121-19.18,32.01,1.323,6.952,5.066,12.769,10.161,16.796,2.479,1.96,4.293,4.634,5.024,7.708l.068.285c.756,3.182,3.949,5.149,7.131,4.393l25.336-6.021c3.182-.756,5.149-3.949,4.393-7.131l-.068-.285c-.731-3.074-.312-6.279,1.02-9.145,2.569-5.525,3.366-11.922,1.848-18.31Z" fill="#6498d1" mix-blend-mode="multiply" opacity=".25"/>
          </g>
          <g>
            <rect x="73.824" y="63.253" width="7.993" height="3.249" rx="1.624" ry="1.624" transform="translate(-12.891 19.749) rotate(-13.367)" fill="#e86170"/>
            <rect x="90.932" y="59.187" width="7.993" height="3.249" rx="1.624" ry="1.624" transform="translate(-11.488 23.595) rotate(-13.367)" fill="#e86170"/>
            <path d="M86.75,64.425h0c-.873.207-1.749-.332-1.956-1.205h0c-.207-.873.332-1.749,1.205-1.956h0c.873-.207,1.749.332,1.956,1.205h0c.207.873-.332,1.749-1.205,1.956Z" fill="#9bc8ec"/>
          </g>
          <g>
            <path d="M68.73,52.901c-1.612,0-2.999-1.096-3.372-2.666l-2.992-12.591c-.214-.901-.064-1.832.421-2.62.486-.789,1.25-1.341,2.151-1.555l27.365-6.503c.264-.063.534-.095.804-.095,1.612,0,2.999,1.097,3.372,2.667l2.992,12.591c.441,1.86-.712,3.733-2.572,4.175l-27.366,6.503c-.264.062-.534.094-.803.094Z" fill="#fff"/>
            <path d="M93.108,27.937c1.087,0,2.072.743,2.334,1.847l2.992,12.591c.307,1.29-.491,2.585-1.781,2.892l-27.365,6.503c-.187.044-.373.066-.557.066-1.087,0-2.072-.743-2.334-1.847l-2.992-12.591c-.307-1.29.491-2.585,1.781-2.892l27.365-6.503c.187-.044.373-.066.557-.066M93.108,25.805c-.352,0-.706.042-1.05.123l-27.365,6.503c-1.178.28-2.177,1.002-2.812,2.033-.635,1.031-.831,2.248-.551,3.426l2.992,12.591c.488,2.052,2.301,3.486,4.409,3.486.352,0,.706-.042,1.05-.123l27.365-6.503c1.178-.28,2.177-1.002,2.812-2.033.635-1.031.831-2.248.551-3.426l-2.992-12.591c-.488-2.052-2.301-3.486-4.409-3.486h0Z" fill="#42496f"/>
          </g>
          <rect x="64.454" y="31.014" width="32.93" height="17.744" rx="2.401" ry="2.401" transform="translate(-7.029 19.789) rotate(-13.367)" fill="#fff"/>
          <path d="M94.734,30.597c-.285-1.198-1.486-1.938-2.684-1.653l-25.995,6.177c-1.198.285-1.938,1.486-1.653,2.684l.787,3.311c4.494.833,10.056.662,15.86-.722,5.798-1.382,10.834-3.736,14.468-6.503l-.783-3.295Z" fill="#9bc8ec" opacity=".25"/>
          <path d="M107.655,13.987l-7.263-4.474c-.69-.425-1.594-.21-2.019.48l-.6.973c-.425.69-.21,1.594.48,2.019l2.94,1.811-1.146,1.86c-2.001-.852-4.306-.413-5.854,1.064-6.24-3.13-13.677-3.967-20.988-1.688-5.804,1.809-10.648,5.415-14.078,10.04-2.057-.641-4.33.002-5.741,1.672l-1.86-1.146,1.811-2.94c.425-.69.21-1.594-.48-2.019l-.973-.6c-.69-.425-1.594-.21-2.019.48l-4.474,7.263c-.425.69-.21,1.594.48,2.019l.973.6c.69.425,1.594.21,2.019-.48l1.811-2.94,1.86,1.146c-1.002,2.354-.217,5.132,1.944,6.597-1.042,3.93-1.249,8.124-.451,12.317,1.323,6.951,5.066,12.769,10.161,16.796,2.479,1.96,4.293,4.634,5.024,7.708l.068.285c.756,3.182,3.949,5.149,7.131,4.393l25.336-6.021c3.182-.756,5.149-3.949,4.393-7.131l-.068-.285c-.731-3.074-.312-6.279,1.02-9.145,2.569-5.525,3.366-11.922,1.848-18.31-1.104-4.644-3.308-8.736-6.262-12.079,1.255-2.277.704-5.098-1.244-6.745l1.146-1.86,2.94,1.811c.69.425,1.594.21,2.019-.48l.6-.973c.425-.69.21-1.594-.48-2.019Z" fill="#42496f" mix-blend-mode="multiply" opacity=".75"/>
        </g>
        <g>
          <g>
            <g>
              <rect x="23.49" y="36.376" width="2.166" height="6.33" transform="translate(-18.454 21.765) rotate(-35.694)" fill="#336a9b"/>
              <circle cx="29.31" cy="46.135" r="7.225" fill="#54bfd1"/>
              <rect x="14.227" y="33.054" width="15.275" height="5.433" rx="1.955" ry="1.955" transform="translate(-16.763 19.476) rotate(-35.694)" fill="#54bfd1"/>
            </g>
            <g>
              <rect x="89.435" y="47.182" width="2.166" height="6.33" transform="translate(102.442 153.236) rotate(-125.694)" fill="#336a9b"/>
              <circle cx="83.924" cy="55.084" r="7.225" fill="#54bfd1"/>
              <rect x="86.651" y="44.922" width="15.275" height="5.433" rx="1.955" ry="1.955" transform="translate(110.613 152.009) rotate(-125.694)" fill="#54bfd1"/>
            </g>
          </g>
          <path d="M89.91,78.797c3.483-21.256-11.684-41.26-33.502-43.309-18.755-1.761-36.137,11.069-40.019,29.502-1.943,9.226-.33,18.299,3.865,25.867,2.041,3.682,2.898,7.902,2.218,12.056l-.063.386c-.705,4.301,2.21,8.358,6.511,9.063l34.239,5.611c4.301.705,8.358-2.21,9.063-6.511l.063-.386c.681-4.155,2.841-7.88,5.95-10.719,5.996-5.473,10.261-12.928,11.676-21.561Z" fill="#93d1ad"/>
          <g clip-path="url(#e)">
            <path d="M74.446,84.521c3.483-21.256-11.684-41.26-33.502-43.309-18.755-1.761-36.137,11.069-40.019,29.502-1.943,9.226-.33,18.299,3.865,25.867,2.041,3.682,2.898,7.902,2.218,12.056l-.063.386c-.705,4.301,2.21,8.358,6.511,9.063l34.239,5.611c4.301.705,8.358-2.21,9.063-6.511l.063-.386c.681-4.155,2.841-7.88,5.95-10.719,5.996-5.473,10.261-12.928,11.676-21.561Z" fill="#6498d1" mix-blend-mode="multiply" opacity=".25"/>
          </g>
          <g>
            <rect x="31.672" y="95.744" width="10.649" height="4.329" rx="2.164" ry="2.164" transform="translate(16.32 -4.694) rotate(9.306)" fill="#e86170"/>
            <rect x="54.791" y="99.532" width="10.649" height="4.329" rx="2.164" ry="2.164" transform="translate(17.236 -8.383) rotate(9.306)" fill="#e86170"/>
            <path d="M48.206,101.938h0c-1.18-.193-1.979-1.306-1.786-2.486h0c.193-1.18,1.306-1.979,2.486-1.786h0c1.18.193,1.979,1.306,1.786,2.486h0c-.193,1.18-1.306,1.979-2.486,1.786Z" fill="#9bc8ec"/>
          </g>
          <g>
            <path d="M70.741,84.934c-.248,0-.498-.02-.75-.061l-36.982-6.06c-2.514-.413-4.224-2.793-3.812-5.306l2.788-17.016c.368-2.244,2.283-3.873,4.555-3.873.248,0,.5.02.752.061l36.982,6.06c1.218.2,2.285.861,3.005,1.864.72,1.002,1.007,2.225.808,3.442l-2.789,17.015c-.368,2.245-2.284,3.874-4.556,3.874Z" fill="#fff"/>
            <path d="M36.539,54.038c.172,0,.346.014.521.043l36.982,6.06c1.744.286,2.926,1.931,2.64,3.675l-2.788,17.015c-.257,1.569-1.614,2.683-3.154,2.683-.172,0-.346-.014-.521-.043l-36.982-6.06c-1.744-.286-2.926-1.931-2.64-3.675l2.788-17.015c.257-1.569,1.614-2.683,3.154-2.683M36.539,51.198h0c-2.971,0-5.476,2.13-5.957,5.064l-2.788,17.015c-.261,1.592.114,3.191,1.055,4.501.941,1.31,2.337,2.176,3.929,2.437l36.982,6.06c.324.053.654.08.981.08,2.971,0,5.476-2.13,5.957-5.064l2.788-17.015c.261-1.592-.114-3.191-1.055-4.501-.941-1.31-2.337-2.176-3.929-2.437l-36.982-6.06c-.324-.053-.654-.08-.981-.08h0Z" fill="#42496f"/>
          </g>
          <rect x="31.703" y="56.955" width="43.875" height="23.641" rx="3.2" ry="3.2" transform="translate(11.828 -7.769) rotate(9.306)" fill="#fff"/>
          <path d="M75.395,64.451c.265-1.619-.832-3.146-2.45-3.411l-35.13-5.757c-1.619-.265-3.146.832-3.411,2.45l-.733,4.475c5.097,3.332,12.022,5.979,19.869,7.259,7.838,1.278,15.238.971,21.126-.564l.73-4.452Z" fill="#9bc8ec" opacity=".25"/>
          <path d="M99.81,50.668l-6.631-9.23c-.63-.877-1.851-1.077-2.728-.447l-1.237.889c-.877.63-1.077,1.851-.447,2.728l2.684,3.736-2.364,1.698c-2.022-2.075-5.081-2.719-7.744-1.698-6.064-7.053-14.777-11.901-24.935-12.855-8.065-.757-15.871,1.189-22.464,5.113-2.199-1.844-5.324-2.221-7.917-.893l-1.698-2.364,3.736-2.684c.877-.63,1.077-1.851.447-2.728l-.889-1.237c-.63-.877-1.851-1.077-2.728-.447l-9.23,6.631c-.877.63-1.077,1.851-.447,2.728l.889,1.237c.63.877,1.851,1.077,2.728.447l3.736-2.684,1.698,2.364c-2.442,2.38-2.903,6.197-.999,9.109-3.299,4.296-5.708,9.345-6.88,14.91-1.943,9.226-.33,18.299,3.865,25.867,2.041,3.682,2.898,7.902,2.218,12.056l-.063.386c-.705,4.301,2.21,8.358,6.511,9.063l34.239,5.611c4.301.705,8.358-2.21,9.063-6.511l.063-.385c.681-4.155,2.841-7.88,5.95-10.719,5.996-5.473,10.261-12.928,11.676-21.561,1.028-6.276.42-12.438-1.494-18.066,2.713-2.155,3.484-5.906,1.935-8.931l2.364-1.698,2.684,3.736c.63.877,1.851,1.077,2.728.447l1.237-.889c.877-.63,1.077-1.851.447-2.728Z" fill="#42496f" mix-blend-mode="multiply" opacity=".5"/>
        </g>
        <g>
          <g>
            <g>
              <rect x="41.902" y="53.067" width="2.607" height="7.619" transform="translate(-28.115 53) rotate(-49.667)" fill="#336a9b"/>
              <circle cx="50.655" cy="63.202" r="8.696" fill="#54bfd1"/>
              <rect x="29.753" y="49.99" width="18.386" height="6.539" rx="2.353" ry="2.353" transform="translate(-26.861 48.477) rotate(-49.667)" fill="#54bfd1"/>
            </g>
            <g>
              <rect x="122.07" y="46.522" width="2.607" height="7.619" transform="translate(184.844 168.55) rotate(-139.667)" fill="#336a9b"/>
              <circle cx="117.048" cy="57.782" r="8.696" fill="#54bfd1"/>
              <rect x="117.797" y="42.802" width="18.386" height="6.539" rx="2.353" ry="2.353" transform="translate(193.975 163.383) rotate(-139.667)" fill="#54bfd1"/>
            </g>
          </g>
          <path d="M130.932,83.74c-2.11-25.84-25.64-44.798-51.719-40.849-22.419,3.394-38.992,23.432-38.169,46.092.412,11.341,4.934,21.47,12.033,29.091,3.454,3.708,5.682,8.387,6.094,13.438l.038.469c.427,5.228,5.011,9.12,10.239,8.693l41.623-3.398c5.228-.427,9.12-5.011,8.693-10.239l-.038-.469c-.412-5.051,1.028-10.03,3.835-14.249,5.412-8.136,8.228-18.083,7.371-28.578Z" fill="#93d1ad"/>
          <g clip-path="url(#f)">
            <path d="M114.533,94.92c-2.11-25.84-25.64-44.798-51.719-40.849-22.419,3.394-38.992,23.432-38.169,46.092.412,11.341,4.934,21.47,12.033,29.091,3.454,3.708,5.682,8.387,6.094,13.438l.038.469c.427,5.228,5.011,9.12,10.239,8.693l41.623-3.398c5.228-.427,9.12-5.011,8.693-10.239l-.038-.469c-.412-5.051,1.028-10.03,3.835-14.249,5.412-8.136,8.228-18.083,7.371-28.578Z" fill="#6498d1" mix-blend-mode="multiply" opacity=".25"/>
          </g>
          <g>
            <rect x="68.272" y="118.836" width="12.818" height="5.21" rx="2.605" ry="2.605" transform="translate(-9.634 6.479) rotate(-4.667)" fill="#e86170"/>
            <rect x="96.378" y="116.542" width="12.818" height="5.21" rx="2.605" ry="2.605" transform="translate(-9.354 8.759) rotate(-4.667)" fill="#e86170"/>
            <path d="M88.946,122.891h0c-1.434.117-2.691-.951-2.808-2.385h0c-.117-1.434.951-2.691,2.385-2.808h0c1.434-.117,2.691.951,2.808,2.385h0c.117,1.434-.951,2.691-2.385,2.808Z" fill="#9bc8ec"/>
          </g>
          <g>
            <path d="M64.016,100.315c-2.872,0-5.304-2.244-5.538-5.108l-1.689-20.685c-.249-3.056,2.034-5.745,5.09-5.995l44.958-3.67c.153-.012.306-.019.457-.019,2.871,0,5.304,2.244,5.538,5.108l1.688,20.685c.249,3.057-2.034,5.746-5.09,5.995l-44.958,3.67c-.153.012-.306.019-.457.019Z" fill="#fff"/>
            <path d="M107.294,66.547c1.985,0,3.67,1.525,3.834,3.538l1.689,20.685c.173,2.12-1.405,3.979-3.525,4.152l-44.958,3.67c-.106.009-.213.013-.318.013-1.985,0-3.67-1.525-3.834-3.538l-1.689-20.685c-.173-2.12,1.405-3.979,3.525-4.152l44.958-3.67c.106-.009.213-.013.318-.013M107.294,63.128h0c-.197,0-.396.008-.596.024l-44.958,3.67c-3.996.326-6.981,3.842-6.655,7.838l1.689,20.685c.306,3.745,3.487,6.679,7.242,6.679.197,0,.396-.008.596-.024l44.958-3.67c1.936-.158,3.694-1.06,4.951-2.541,1.257-1.48,1.862-3.362,1.704-5.297l-1.689-20.685c-.306-3.745-3.487-6.679-7.242-6.679h0Z" fill="#42496f"/>
          </g>
          <rect x="59.25" y="68.348" width="52.81" height="28.456" rx="3.851" ry="3.851" transform="translate(-6.435 7.243) rotate(-4.667)" fill="#fff"/>
          <path d="M109.808,71.201c-.161-1.968-1.886-3.432-3.853-3.272l-42.707,3.487c-1.968.161-3.432,1.886-3.272,3.853l.444,5.44c6.922,2.411,15.78,3.489,25.317,2.703,9.527-.785,18.081-3.294,24.512-6.799l-.442-5.413Z" fill="#9bc8ec" opacity=".25"/>
        </g>
      </g>
    </g>
  </g>
</svg>