<?xml version="1.0" encoding="UTF-8"?><svg xmlns="http://www.w3.org/2000/svg" xmlns:xlink="http://www.w3.org/1999/xlink" viewBox="0 0 150 150"><defs><style>.cls-1,.cls-2{fill:#9bc8ec;}.cls-1,.cls-3{opacity:.25;}.cls-4{fill:#54bfd1;}.cls-5{filter:url(#drop-shadow-2);}.cls-6{fill:#fff;}.cls-7{fill:#e86170;}.cls-8{fill:none;}.cls-9{clip-path:url(#clippath-1);}.cls-10{isolation:isolate;}.cls-11{opacity:.75;}.cls-11,.cls-12,.cls-13{fill:#42496f;}.cls-11,.cls-12,.cls-3{mix-blend-mode:multiply;}.cls-12{opacity:.5;}.cls-14{clip-path:url(#clippath-2);}.cls-15{fill:#93d1ad;}.cls-16{fill:#336a9b;}.cls-17{clip-path:url(#clippath);}.cls-3{fill:#6498d1;}</style><filter id="drop-shadow-2" x="-3.89" y="9.3" width="139.04" height="142.59" filterUnits="userSpaceOnUse"><feOffset dx="-4" dy="0"/><feGaussianBlur result="blur" stdDeviation="0"/><feFlood flood-color="#42496f" flood-opacity="1"/><feComposite in2="blur" operator="in"/><feComposite in="SourceGraphic"/></filter><clipPath id="clippath"><path class="cls-8" d="M108.94,36.33c-3.74-15.73-20.03-25.19-35.73-20.3-13.5,4.21-21.82,18.12-19.18,32.01,1.32,6.95,5.07,12.77,10.16,16.8,2.48,1.96,4.29,4.63,5.02,7.71l.07.29c.76,3.18,3.95,5.15,7.13,4.39l25.34-6.02c3.18-.76,5.15-3.95,4.39-7.13l-.07-.29c-.73-3.07-.31-6.28,1.02-9.14,2.57-5.53,3.37-11.92,1.85-18.31Z"/></clipPath><clipPath id="clippath-1"><path class="cls-8" d="M89.91,78.8c3.48-21.26-11.68-41.26-33.5-43.31-18.76-1.76-36.14,11.07-40.02,29.5-1.94,9.23-.33,18.3,3.86,25.87,2.04,3.68,2.9,7.9,2.22,12.06l-.06.39c-.7,4.3,2.21,8.36,6.51,9.06l34.24,5.61c4.3.7,8.36-2.21,9.06-6.51l.06-.39c.68-4.15,2.84-7.88,5.95-10.72,6-5.47,10.26-12.93,11.68-21.56Z"/></clipPath><clipPath id="clippath-2"><path class="cls-8" d="M130.93,83.74c-2.11-25.84-25.64-44.8-51.72-40.85-22.42,3.39-38.99,23.43-38.17,46.09.41,11.34,4.93,21.47,12.03,29.09,3.45,3.71,5.68,8.39,6.09,13.44l.04.47c.43,5.23,5.01,9.12,10.24,8.69l41.62-3.4c5.23-.43,9.12-5.01,8.69-10.24l-.04-.47c-.41-5.05,1.03-10.03,3.83-14.25,5.41-8.14,8.23-18.08,7.37-28.58Z"/></clipPath></defs><g class="cls-10"><g id="Calque_6"><g class="cls-5"><rect class="cls-16" x="51.52" y="25.67" width="1.63" height="4.75" transform="translate(1 57.89) rotate(-58.37)"/><circle class="cls-4" cx="57.52" cy="31.25" r="5.42"/><rect class="cls-4" x="43.63" y="24.18" width="11.46" height="4.08" rx="1.47" ry="1.47" transform="translate(1.15 54.5) rotate(-58.37)"/><rect class="cls-16" x="100.31" y="14.08" width="1.63" height="4.75" transform="translate(178.6 83.5) rotate(-148.37)"/><circle class="cls-4" cx="97.93" cy="21.64" r="5.42"/><rect class="cls-4" x="97.22" y="11.45" width="11.46" height="4.08" rx="1.47" ry="1.47" transform="translate(183.54 78.97) rotate(-148.37)"/><path class="cls-15" d="M108.94,36.33c-3.74-15.73-20.03-25.19-35.73-20.3-13.5,4.21-21.82,18.12-19.18,32.01,1.32,6.95,5.07,12.77,10.16,16.8,2.48,1.96,4.29,4.63,5.02,7.71l.07.29c.76,3.18,3.95,5.15,7.13,4.39l25.34-6.02c3.18-.76,5.15-3.95,4.39-7.13l-.07-.29c-.73-3.07-.31-6.28,1.02-9.14,2.57-5.53,3.37-11.92,1.85-18.31Z"/><g class="cls-17"><path class="cls-3" d="M99.88,44.77c-3.74-15.73-20.03-25.19-35.73-20.3-13.5,4.21-21.82,18.12-19.18,32.01,1.32,6.95,5.07,12.77,10.16,16.8,2.48,1.96,4.29,4.63,5.02,7.71l.07.29c.76,3.18,3.95,5.15,7.13,4.39l25.34-6.02c3.18-.76,5.15-3.95,4.39-7.13l-.07-.29c-.73-3.07-.31-6.28,1.02-9.14,2.57-5.53,3.37-11.92,1.85-18.31Z"/></g><rect class="cls-7" x="73.82" y="63.25" width="7.99" height="3.25" rx="1.62" ry="1.62" transform="translate(-12.89 19.75) rotate(-13.37)"/><rect class="cls-7" x="90.93" y="59.19" width="7.99" height="3.25" rx="1.62" ry="1.62" transform="translate(-11.49 23.59) rotate(-13.37)"/><path class="cls-2" d="M86.75,64.43h0c-.87.21-1.75-.33-1.96-1.2h0c-.21-.87.33-1.75,1.2-1.96h0c.87-.21,1.75.33,1.96,1.2h0c.21.87-.33,1.75-1.2,1.96Z"/><path class="cls-6" d="M68.73,52.9c-1.61,0-3-1.1-3.37-2.67l-2.99-12.59c-.21-.9-.06-1.83.42-2.62.49-.79,1.25-1.34,2.15-1.56l27.37-6.5c.26-.06.53-.09.8-.09,1.61,0,3,1.1,3.37,2.67l2.99,12.59c.44,1.86-.71,3.73-2.57,4.18l-27.37,6.5c-.26.06-.53.09-.8.09Z"/><path class="cls-13" d="M93.11,27.94c1.09,0,2.07.74,2.33,1.85l2.99,12.59c.31,1.29-.49,2.58-1.78,2.89l-27.37,6.5c-.19.04-.37.07-.56.07-1.09,0-2.07-.74-2.33-1.85l-2.99-12.59c-.31-1.29.49-2.58,1.78-2.89l27.37-6.5c.19-.04.37-.07.56-.07M93.11,25.81c-.35,0-.71.04-1.05.12l-27.37,6.5c-1.18.28-2.18,1-2.81,2.03-.64,1.03-.83,2.25-.55,3.43l2.99,12.59c.49,2.05,2.3,3.49,4.41,3.49.35,0,.71-.04,1.05-.12l27.37-6.5c1.18-.28,2.18-1,2.81-2.03.64-1.03.83-2.25.55-3.43l-2.99-12.59c-.49-2.05-2.3-3.49-4.41-3.49h0Z"/><rect class="cls-6" x="64.45" y="31.01" width="32.93" height="17.74" rx="2.4" ry="2.4" transform="translate(-7.03 19.79) rotate(-13.37)"/><path class="cls-1" d="M94.73,30.6c-.28-1.2-1.49-1.94-2.68-1.65l-26,6.18c-1.2.28-1.94,1.49-1.65,2.68l.79,3.31c4.49.83,10.06.66,15.86-.72,5.8-1.38,10.83-3.74,14.47-6.5l-.78-3.29Z"/><path class="cls-11" d="M107.65,13.99l-7.26-4.47c-.69-.42-1.59-.21-2.02.48l-.6.97c-.42.69-.21,1.59.48,2.02l2.94,1.81-1.15,1.86c-2-.85-4.31-.41-5.85,1.06-6.24-3.13-13.68-3.97-20.99-1.69-5.8,1.81-10.65,5.42-14.08,10.04-2.06-.64-4.33,0-5.74,1.67l-1.86-1.15,1.81-2.94c.42-.69.21-1.59-.48-2.02l-.97-.6c-.69-.42-1.59-.21-2.02.48l-4.47,7.26c-.42.69-.21,1.59.48,2.02l.97.6c.69.42,1.59.21,2.02-.48l1.81-2.94,1.86,1.15c-1,2.35-.22,5.13,1.94,6.6-1.04,3.93-1.25,8.12-.45,12.32,1.32,6.95,5.07,12.77,10.16,16.8,2.48,1.96,4.29,4.63,5.02,7.71l.07.29c.76,3.18,3.95,5.15,7.13,4.39l25.34-6.02c3.18-.76,5.15-3.95,4.39-7.13l-.07-.29c-.73-3.07-.31-6.28,1.02-9.14,2.57-5.53,3.37-11.92,1.85-18.31-1.1-4.64-3.31-8.74-6.26-12.08,1.26-2.28.7-5.1-1.24-6.74l1.15-1.86,2.94,1.81c.69.43,1.59.21,2.02-.48l.6-.97c.42-.69.21-1.59-.48-2.02Z"/><rect class="cls-16" x="23.49" y="36.38" width="2.17" height="6.33" transform="translate(-18.45 21.77) rotate(-35.69)"/><circle class="cls-4" cx="29.31" cy="46.13" r="7.22"/><rect class="cls-4" x="14.23" y="33.05" width="15.28" height="5.43" rx="1.95" ry="1.95" transform="translate(-16.76 19.48) rotate(-35.69)"/><rect class="cls-16" x="89.44" y="47.18" width="2.17" height="6.33" transform="translate(102.44 153.24) rotate(-125.69)"/><circle class="cls-4" cx="83.92" cy="55.08" r="7.22"/><rect class="cls-4" x="86.65" y="44.92" width="15.28" height="5.43" rx="1.95" ry="1.95" transform="translate(110.61 152.01) rotate(-125.69)"/><path class="cls-15" d="M89.91,78.8c3.48-21.26-11.68-41.26-33.5-43.31-18.76-1.76-36.14,11.07-40.02,29.5-1.94,9.23-.33,18.3,3.86,25.87,2.04,3.68,2.9,7.9,2.22,12.06l-.06.39c-.7,4.3,2.21,8.36,6.51,9.06l34.24,5.61c4.3.7,8.36-2.21,9.06-6.51l.06-.39c.68-4.15,2.84-7.88,5.95-10.72,6-5.47,10.26-12.93,11.68-21.56Z"/><g class="cls-9"><path class="cls-3" d="M74.45,84.52c3.48-21.26-11.68-41.26-33.5-43.31-18.76-1.76-36.14,11.07-40.02,29.5-1.94,9.23-.33,18.3,3.86,25.87,2.04,3.68,2.9,7.9,2.22,12.06l-.06.39c-.7,4.3,2.21,8.36,6.51,9.06l34.24,5.61c4.3.7,8.36-2.21,9.06-6.51l.06-.39c.68-4.15,2.84-7.88,5.95-10.72,6-5.47,10.26-12.93,11.68-21.56Z"/></g><rect class="cls-7" x="31.67" y="95.74" width="10.65" height="4.33" rx="2.16" ry="2.16" transform="translate(16.32 -4.69) rotate(9.31)"/><rect class="cls-7" x="54.79" y="99.53" width="10.65" height="4.33" rx="2.16" ry="2.16" transform="translate(17.24 -8.38) rotate(9.31)"/><path class="cls-2" d="M48.21,101.94h0c-1.18-.19-1.98-1.31-1.79-2.49h0c.19-1.18,1.31-1.98,2.49-1.79h0c1.18.19,1.98,1.31,1.79,2.49h0c-.19,1.18-1.31,1.98-2.49,1.79Z"/><path class="cls-6" d="M70.74,84.93c-.25,0-.5-.02-.75-.06l-36.98-6.06c-2.51-.41-4.22-2.79-3.81-5.31l2.79-17.02c.37-2.24,2.28-3.87,4.55-3.87.25,0,.5.02.75.06l36.98,6.06c1.22.2,2.29.86,3,1.86.72,1,1.01,2.22.81,3.44l-2.79,17.02c-.37,2.24-2.28,3.87-4.56,3.87Z"/><path class="cls-13" d="M36.54,54.04c.17,0,.35.01.52.04l36.98,6.06c1.74.29,2.93,1.93,2.64,3.67l-2.79,17.02c-.26,1.57-1.61,2.68-3.15,2.68-.17,0-.35-.01-.52-.04l-36.98-6.06c-1.74-.29-2.93-1.93-2.64-3.67l2.79-17.02c.26-1.57,1.61-2.68,3.15-2.68M36.54,51.2h0c-2.97,0-5.48,2.13-5.96,5.06l-2.79,17.02c-.26,1.59.11,3.19,1.06,4.5.94,1.31,2.34,2.18,3.93,2.44l36.98,6.06c.32.05.65.08.98.08,2.97,0,5.48-2.13,5.96-5.06l2.79-17.02c.26-1.59-.11-3.19-1.06-4.5-.94-1.31-2.34-2.18-3.93-2.44l-36.98-6.06c-.32-.05-.65-.08-.98-.08h0Z"/><rect class="cls-6" x="31.7" y="56.96" width="43.87" height="23.64" rx="3.2" ry="3.2" transform="translate(11.83 -7.77) rotate(9.31)"/><path class="cls-1" d="M75.4,64.45c.27-1.62-.83-3.15-2.45-3.41l-35.13-5.76c-1.62-.27-3.15.83-3.41,2.45l-.73,4.48c5.1,3.33,12.02,5.98,19.87,7.26,7.84,1.28,15.24.97,21.13-.56l.73-4.45Z"/><path class="cls-12" d="M99.81,50.67l-6.63-9.23c-.63-.88-1.85-1.08-2.73-.45l-1.24.89c-.88.63-1.08,1.85-.45,2.73l2.68,3.74-2.36,1.7c-2.02-2.07-5.08-2.72-7.74-1.7-6.06-7.05-14.78-11.9-24.94-12.86-8.06-.76-15.87,1.19-22.46,5.11-2.2-1.84-5.32-2.22-7.92-.89l-1.7-2.36,3.74-2.68c.88-.63,1.08-1.85.45-2.73l-.89-1.24c-.63-.88-1.85-1.08-2.73-.45l-9.23,6.63c-.88.63-1.08,1.85-.45,2.73l.89,1.24c.63.88,1.85,1.08,2.73.45l3.74-2.68,1.7,2.36c-2.44,2.38-2.9,6.2-1,9.11-3.3,4.3-5.71,9.35-6.88,14.91-1.94,9.23-.33,18.3,3.86,25.87,2.04,3.68,2.9,7.9,2.22,12.06l-.06.39c-.7,4.3,2.21,8.36,6.51,9.06l34.24,5.61c4.3.7,8.36-2.21,9.06-6.51l.06-.39c.68-4.15,2.84-7.88,5.95-10.72,6-5.47,10.26-12.93,11.68-21.56,1.03-6.28.42-12.44-1.49-18.07,2.71-2.16,3.48-5.91,1.93-8.93l2.36-1.7,2.68,3.74c.63.88,1.85,1.08,2.73.45l1.24-.89c.88-.63,1.08-1.85.45-2.73Z"/><rect class="cls-16" x="41.9" y="53.07" width="2.61" height="7.62" transform="translate(-28.12 53) rotate(-49.67)"/><circle class="cls-4" cx="50.66" cy="63.2" r="8.7"/><rect class="cls-4" x="29.75" y="49.99" width="18.39" height="6.54" rx="2.35" ry="2.35" transform="translate(-26.86 48.48) rotate(-49.67)"/><rect class="cls-16" x="122.07" y="46.52" width="2.61" height="7.62" transform="translate(184.84 168.55) rotate(-139.67)"/><circle class="cls-4" cx="117.05" cy="57.78" r="8.7"/><rect class="cls-4" x="117.8" y="42.8" width="18.39" height="6.54" rx="2.35" ry="2.35" transform="translate(193.98 163.38) rotate(-139.67)"/><path class="cls-15" d="M130.93,83.74c-2.11-25.84-25.64-44.8-51.72-40.85-22.42,3.39-38.99,23.43-38.17,46.09.41,11.34,4.93,21.47,12.03,29.09,3.45,3.71,5.68,8.39,6.09,13.44l.04.47c.43,5.23,5.01,9.12,10.24,8.69l41.62-3.4c5.23-.43,9.12-5.01,8.69-10.24l-.04-.47c-.41-5.05,1.03-10.03,3.83-14.25,5.41-8.14,8.23-18.08,7.37-28.58Z"/><g class="cls-14"><path class="cls-3" d="M114.53,94.92c-2.11-25.84-25.64-44.8-51.72-40.85-22.42,3.39-38.99,23.43-38.17,46.09.41,11.34,4.93,21.47,12.03,29.09,3.45,3.71,5.68,8.39,6.09,13.44l.04.47c.43,5.23,5.01,9.12,10.24,8.69l41.62-3.4c5.23-.43,9.12-5.01,8.69-10.24l-.04-.47c-.41-5.05,1.03-10.03,3.83-14.25,5.41-8.14,8.23-18.08,7.37-28.58Z"/></g><rect class="cls-7" x="68.27" y="118.84" width="12.82" height="5.21" rx="2.61" ry="2.61" transform="translate(-9.63 6.48) rotate(-4.67)"/><rect class="cls-7" x="96.38" y="116.54" width="12.82" height="5.21" rx="2.61" ry="2.61" transform="translate(-9.35 8.76) rotate(-4.67)"/><path class="cls-2" d="M88.95,122.89h0c-1.43.12-2.69-.95-2.81-2.38h0c-.12-1.43.95-2.69,2.38-2.81h0c1.43-.12,2.69.95,2.81,2.38h0c.12,1.43-.95,2.69-2.38,2.81Z"/><path class="cls-6" d="M64.02,100.31c-2.87,0-5.3-2.24-5.54-5.11l-1.69-20.69c-.25-3.06,2.03-5.75,5.09-6l44.96-3.67c.15-.01.31-.02.46-.02,2.87,0,5.3,2.24,5.54,5.11l1.69,20.68c.25,3.06-2.03,5.75-5.09,6l-44.96,3.67c-.15.01-.31.02-.46.02Z"/><path class="cls-13" d="M107.29,66.55c1.99,0,3.67,1.52,3.83,3.54l1.69,20.68c.17,2.12-1.41,3.98-3.52,4.15l-44.96,3.67c-.11,0-.21.01-.32.01-1.99,0-3.67-1.52-3.83-3.54l-1.69-20.68c-.17-2.12,1.41-3.98,3.52-4.15l44.96-3.67c.11,0,.21-.01.32-.01M107.29,63.13h0c-.2,0-.4,0-.6.02l-44.96,3.67c-4,.33-6.98,3.84-6.65,7.84l1.69,20.68c.31,3.75,3.49,6.68,7.24,6.68.2,0,.4,0,.6-.02l44.96-3.67c1.94-.16,3.69-1.06,4.95-2.54,1.26-1.48,1.86-3.36,1.7-5.3l-1.69-20.68c-.31-3.75-3.49-6.68-7.24-6.68h0Z"/><rect class="cls-6" x="59.25" y="68.35" width="52.81" height="28.46" rx="3.85" ry="3.85" transform="translate(-6.44 7.24) rotate(-4.67)"/><path class="cls-1" d="M109.81,71.2c-.16-1.97-1.89-3.43-3.85-3.27l-42.71,3.49c-1.97.16-3.43,1.89-3.27,3.85l.44,5.44c6.92,2.41,15.78,3.49,25.32,2.7,9.53-.78,18.08-3.29,24.51-6.8l-.44-5.41Z"/></g></g></g></svg>