<?xml version="1.0" encoding="UTF-8"?>
<svg xmlns="http://www.w3.org/2000/svg" width="300" height="300" xmlns:xlink="http://www.w3.org/1999/xlink" viewBox="0 0 300 300">
  <defs>
    <clipPath id="b">
      <path d="M126.772,270.147c-.714.568-1.284,1.023-1.977,1.575-.003-.058.007.152.018.393-3.196-.319-3.327-2.383-.098-2.884,1.266-.458,1.292-1.73,1.796-3.082-1.457.556-2.442.47-3.814.697.252.876.893.851,1.45,1.442-.481.508-1.165.591-1.771.508-.164-1.022-1.028-2.49.117-3.246,1.081-.446-.186-1.686-.567-2.013-.576.277-1.111.961-.617,1.595.308.467.508.864-.116,1.321-1.184,3.272-3.027-.469-4.858-1.096.043-.188.129-.569.249-1.096-1.736,1.039-.908-3.182-2.925-.821-1.624-1.05-2.16-4.844-4.273-4.346-.195.121-.721-.087-.862-.323-.793-2.584-3.2-3.697-4.05-6.08-.648-1.513-1.976-2.377-3.113-3.449-.105-.152-.742-.109-.861.057-.955,1.197-2.936.12-3.038-1.301-.305-.566-1.47-1.131-1.391-1.989-.993-1.138.043-1.066.753-1.648-.713-.298-.871-.891-.862-1.733.182-.805-1.666-2.151-.396-2.576,1.456-.278.308-1.173.293-2.22-.995,1.425-2.019,2.272-3.674,2.052-.749.61-1.209.199-1.709-.265-1.289-1.414-3.222.461-4.368,1.389.096-3.759-4.685.9-6.54,1.179-.045-1.293-1.546-2.313-2.535-1.037-2.249-.607-2.976-3.952-4.684-5.586-.354-1.535-2.399-1.151-2.496-2.62-.174-1.629-2.3-1.873-2.288-3.673-1.441-.59-1.123-2.543-2.161-3.441-1.784-2.289-6.496-5.151-5.755-8.104.894-.917,0-1.194-.607-1.76-.469-1.012-1.005-.044-1.776-.239,1.881-2.059-1.466-2.334,1.303-5.969.307-.896-.85-.648-1.11-.104-.689,1.234-1.677,1.063-2.634.934-.512-.549-.059-1.924-1.332-1.664-.087-.365-.174-.73-.265-1.114-1.241.3-1.93,1.597-.515,2.208-1.318,1.253-3.583,4.501-4.84,1.678-1.488.342-1.344-2.237-2.996-.947-.081-.699-.146-1.267-.22-1.908-.179.118-.405.268-.633.418-.357-.743-.386-1.794-1.555-1.625-.128-.956-.256-1.902-.401-2.984-.273.4-.459.674-.57.836-1.739-.398-2.103-2.224-3.029-3.533-.095.013-.19.027-.285.04-.063.335-.127.67-.19,1.006-.1-.005-.2-.01-.301-.014.267-3.392-2.866-4.422-3.859-7.278.268-1.007.296-1.422-.313-2.239-.385.414-.736.792-1.218,1.311-.78-.576-.39-2-1.553-1.698-.335-1.357-.028-2.349.869-3.26-.982-1.094,1.552-3.478-.432-3.648-.108.467-.211.908-.313,1.349h-.215c.026-1.112.053-2.223.084-3.524,2.431,1.178,2.282-2.245,2.499-3.943-.967.712-1.639,2.005-2.82,1.039.176.3.352.6.614,1.048-.519.131-.969.245-1.271.321-.347-1.909.465-3.139,1.711-4.501.127.086.294.199.395.268,2.901-4.637,5.805-9.825,10.004-13.792-1.101-.897-1.671-2.744-.22-3.567.661.055,1.365.339,1.709.081.63-.781,1.133-1.841-.331-2.352-.007-1.37,1.816-2.873.508-4.08-.762-.851-.499-2.634-1.967-2.737-1.541-.467-2.351.923-3.668,1.337-1.282-.241-1.534,1.02-2.196,1.866-.778-.443-1.737-.572-2.254-1.223-.354-1.428-1.427-.995-2.579-1.251.279-.295.512-.541.756-.799-1.61-.454-1.243,1.18-.684,1.971-.347.287-.659.544-1.161.959-.146-.998.719-2.27-.491-2.696-2.003-.024-2.094-3.775-4.13-2.353.013-.316.026-.622.039-.933-1.119-.022-1.15-.978-1.739-1.663-2.298-1.886-1.623-1.258-2.3-3.981-.202.134-.39.26-.632.421-.647-.984-1.563-1.132-1.856-2.568-1.328-2.881-5.346-3.058-7.079-5.386-.585.083-1.041.148-1.601.228,1.383-2.045.167-3.317.285-5.289.802-1.974,1.602-3.943,2.4-5.907l.357.032c-.084.989-.167,1.98-.27,3.197.814-.916.531-1.853.959-2.706.183.12.335.22.487.32.067-.034.134-.067.201-.101.024-1.515-1.858-.945-.615-2.467,8.097-15.249,14.395-31.292,23.079-46.174.452-.861.735-1.603,1.645-.565,1.744.56,1.811-2.35,3.56-2.194.431-.026.743-1.269.438-1.892-.072.32-.123.543-.188.83-.996.023-1.962.045-2.946.068.288-2.054,2.598-2.155,4.1-1.523,1.683-2.489,2.304-6.224,5.744-6.788-.14-.172-.266-.327-.539-.662,2.52-.59,4.58,2.546,6.67,1.905.44-.39.743-.297.818.309-.216.079-.43.157-.716.261,4.26,1.531,8.617,5.253,12.519,6.025.919,2.415,2.378-.584,3.433-1.49.519-.833,1.393-.071,2.021-.601,8.953-9.038,16.928-19.513,26.772-26.991.548-.009,1.596.235,1.946.822,1.848,1.277,2.466-3.795,6.841,1.161.667,1.147,2.425-.463,2.708,1.046.282,1.139,1.689,1.087,2.207,2.067,1.786,1.081,2.565,3.146,4.737,3.803.689.392.8.85,1.497-.017.118,1.414.309,1.516,1.399.76.079.407.154.792.229,1.178l1.123-.477c-.465,6.943,24.591-23.986,27.83-25.766,1.614.353-.188,1.261.697,2.163.504.143.961-.691,1.338-.89,1.676-.328-.022,1.919,1.229,2.224.722.181.831,1.901,1.677.962.181.363.422.654.47.981.121.87,1.498.81,1.687.114.111-.926-.632-2.356.922-2.128.695.044.417,1.093.954,1.37-.252.402-.445.71-.638,1.018.435.124.871.249,1.436.41-.455,1.116-.409,1.297.704,1.757.236,1.007,1.231,1.468,1.973,2.04.853.704,1.654,2.045,3.013,1.97-.367,1.39,1.423.545,2.121.967-1.036.973-.927,1.293.14,1.928-.026.064-.052.129-.078.193-.473-.052-.945-.105-1.599-.177.27.731,1.157.622.746,1.475-.068.73,1.223.916,1.837.424-.165.316-.264.505-.399.765.57-.039.209,1.014.965.708.422-.171.76-.545,1.101-.949-1.081.652-1.342-.397-.403-.954,1.362.035,2.055-.861,2.827-1.742,1.164-1.315,2.162-2.092,3.896-1.315.42.365.792.737,1.358.086,1.024.926,2.01,1.817,2.997,2.709.08-.067.161-.134.241-.2-.201-.332-.402-.663-.707-1.165,1.923,1.296,3.917-1.03,5.357.406.242,1.625,1.152,2.489,2.362,3.451,1.077.962.459,2.642,1.638,3.51.591.438.42,1.541,1.363.95,1.136-.803,2.064,1.302,1.41,2.168.424.081.745.143,1.018.195-.349.427-.657.804-.966,1.18.601.262-.509,1.372.736,1.339.079-.234.163-.483.242-.715.997.668,2.299,1.187,1.222,2.566.322.045.606.085.957.133-.052.234-.096.434-.112.508.399.361.738.669,1.123,1.017-.197.249-.374.474-.652.826.998-.259,1.849-.481,2.782-.723.017.314.026.498.036.679,2.534.548.472,4.428.011,6.054.081.056.162.112.243.169,1.616-1.377,2.453-3.491,3.878-5.066.083.048.165.097.248.145-.384.974-.893,1.909-1.079,2.947,1.031-.032,1.49-.808,2.019-1.568,3.259,2.237,14.631-18.5,13.479-7.991.094.03.189.059.283.089,1.094-2.144,4.509-2.623,4.519.402-.096.89.735.556,1.293.499.593-.139.81.106.812.662-.08,1.962,4.51.524,3.973,3.236,2.144-.457,1.241,2.226,2.864,2.406.605-.004,1.21.372,1.837.587-.225.485-.433.934-.678,1.461,5.02.996,1.101.777,3.501,2.933,4.404,2.295.161,6.216-.403,9.674.089.041.178.082.266.123-.185.117-.369.233-.605.382.059.154.126.329.196.511-1.449.027-.687,1.274-1.387,2.138-.349.477-.522.808.079,1.218.73.849.617,2.264.918,3.296-.073-.059-.231-.188-.271-.221-.656,1.441.088,2.991-1.8,3.481-.204.757-.278,1.634-1.183,2.076-.315-.334-.584-.62-.852-.905-.137-.009-.274-.017-.41-.026.293,2.122-.855,3.447-1.799,5.239,1.242.98,3,.811,3.902,1.869.136.202.265.614.366.604,1.437-.079,1.729,1.318,2.679,1.994.643-.661,1.245-1.281,1.864-1.918.26.187.466.335.672.483.052-.03.105-.061.157-.091l-.428-.924c1.562-3.164,1.703.665,2.812-1.18.475.196-.208,1.169.688.926.129-.035.115-.591.193-1.067,1.148-.008,1.437,1.548,2.789.384.073.773.039,1.143.215,1.756,1.685-.842,3.335-2.183,4.895-3.547,1.023-1.326,1.915-1.908,3.486-.744-.475.142-.748.223-1.02.305-.005.067-.011.135-.016.202.378.068.756.137,1.195.217.034-.181.063-.334.1-.528,1.723.228.025,1.229,1.078,1.799.134-.204.256-.391.296-.453,1.868.37,1.023-1.643.979-2.751l.204-.01c1.293,1.101,1.019,3.405,2.372,4.092.478.042.83.144,1.165.502,1.443.824.727-1.53,1.45-1.887.825-.061,1.284.754,1.73,1.415-.65,1.95,2.239,2.847,3.33,4.16-1.55-.417-2.332-.086-.804,1.442.229-.349.361-.551.594-.905.361.657.506,1.139,1.073,1.535.326-.601.054-1.047-.141-1.632.68.197,1.275.399.869,1.299.351,2.153,4.294-.792,3.39,2.185.898-.303,3.057.317,1.793,1.39-.131.095-.137.605-.006.756.169.194.628.381.795.285.865-.523,1.285.614,1.879,1.035,1.081,1.873-1.129,3.834-.969,5.528,1.202.529-.36,2.016-1.067.878-.308.414-.488.762.194.862,1.616,1.818-2.468,6.466-3.68,8.628.365-.107.59-.173.909-.267.159.618,1.012,1.706-.01,1.987-.745.554-.263,1.555-.229,2.5.289.015,1.168-.414,1.404-.381.598.516,1.12.261,1.637-.051.559-.337.696-.053.782.465.801,2.367,1.179,4.776,2.081,7.035.296,1.29.714,3.393,2.176,3.714.357.969,1.887,1.054,1.624,2.511,2.597-.272,2.122,3.134,2.166,4.769,2.929,1.423-1.903,4.927-2.06,7.046-1.368,1.049-1.719,3.218-2.761,3.844-.552.332.13,1.785-.94,1.65-.796.839-1.221,1.956-2.062,3.186,3.359.425,6.449.815,9.532,1.205.032,1.666.885.365,1.742,1.274-.463.32-.798.55-1.11.766,1.152,1.211,1.958,3.802.022,4.516-1.213-.421-.742.496-.819,1.117.542-.177.997-.326,1.52-.497.973,1.168-1.798,1.906-.43,3.306.013,5.671-9.282,6.554-2.154,13.149-.601.93.805,1.579.35,2.49-.864,1.241-.557,2.496,1.028,2.77.031-.119.095-.368.163-.633,1.014.619,2.481,4.084,2.35,5.432.203-.031.46-.071.716-.111-.01.096-.021.192-.031.288-.183.196-.365.393-.548.59.022.092.044.183.066.275.393-.066.786-.133,1.324-.224-.604.681-.237,2.147-1.186,2.219-.146-.009-.301.289-.452.446.707.611,1.519-.008,2.306-.16.039.066.079.131.118.197-3.126,4.171-9.064,6.455-10.856,11.429-.128,1.576-.41.812-1.467,1.079.511.307,1.427.88.622,1.38-.764.446.062,1.168-.253,1.875-.087.003-.174.006-.261.009-.122-.197-.243-.393-.517-.836-2.745,9.891-14.735,10.7-21.933,16.161-4.721,4.006-9.465,8.241-14.742,11.416-1.032,1.679-4.844,4.864-6.137,2.157.234-.101.458-.199.914-.396-.521-.325-.863-.539-1.347-.841.147,1.114-.969,3.195-.613,1.098-1.212-.582-.148-1.97-.78-3.19-.401.884-.706,1.557-1.011,2.231-1.428-.731-.155-3.632-1.829-3.831-.673,1.024-1.157.594-1.616-.31-.299.539-.537.97-.797,1.437-3.272-3.432-9.814,6.669-13.382,6.068-1.938.182-3.462,3.741-5.535,2.824-8.971-2.229-27.887,23.203-33.172,18.759.277-.119.533-.228,1.027-.44-.491-.356-.823-.597-1.214-.881-1.253,2.454-1.359-.662-1.252-1.807-.098-.031-.197-.062-.295-.093-.366.652-.732,1.305-1.092,1.947-1.624-.22.047-4.78-1.789-3.836-.899,1.306-.917.067-1.661-.321-.179.432-.346.837-.504,1.219-2.082-1.718-4.408.854-6.83.32-.817.38-2.702,1.194-2.44-.602.711-.752,1.476-3.949-.374-3.102-.693-1.096-.614-1.406.383-1.632-.13-1.436-.512-1.982-1.573-.714.167-2.383-1.748-3.383-1.153-5.508.157-.534-.429-1.418-.268-1.963.769-1.473-.333-2.133-.906-3.004-1.931-.74-2.614-2.2-3.516-4.067-.659.517-1.34,1.051-2.08,1.631.027-.286.049-.514.074-.772-2.134.455-.86,2.028-2.308,3.424-.48-2.06,1.266-3.471,1.159-5.483-7.491,8.85-14.265,20.34-21.905,27.933ZM281.647,165.413c.861.91-.177,1.368.871,1.808.243-.854,1.473-1.293.613-2.462l-.624.31-.413-.196c.221-.269.443-.537.662-.803-1.404-1.639-1.201.322-1.109,1.344ZM33.541,183.748c-.44.598-.881,1.197-1.321,1.794.416.232.892.496,1.372.764.972-1.015.967-1.809-.051-2.558ZM282.421,173.251c-.222-.095-.444-.189-.666-.284.342-.493.685-.986.992-1.43-.25-.17-.55-.375-.848-.578q-.56.478.02,1.052c-.282.189-.563.377-.843.564-.009.121-.018.242-.026.363.457.104.914.208,1.372.313ZM280.446,162.308c-.318.619-.555,1.08-.89,1.733,1.061-.275,2.309-1.141.89-1.733ZM230.913,89.214c-.07.023-.14.046-.21.069-.088.634-.176,1.268-.273,1.965l.902-.413c-.137-.532-.278-1.077-.419-1.622ZM179.677,43.765c-.848.503-.866.792-.101,1.425.035-.491.064-.905.101-1.425ZM38.809,78.717c.649.155,1.027.174,1.063-.485-.428-.544-.687.017-1.063.485ZM31.936,191.013c-.467.934-.379,1.117.477,1.239-.178-.463-.328-.851-.477-1.239ZM281.27,169.697c.154.012.308.025.462.037.005-.409.011-.818.016-1.226-.12-.01-.24-.02-.36-.03-.039.406-.079.812-.118,1.218ZM76.359,239.142c-.032.385-.064.77-.106,1.275.927-.494.838-.89.106-1.275Z" fill="none"/>
    </clipPath>
    <linearGradient id="c" data-name="Dégradé sans nom 13" x1="148.843" y1="67.007" x2="148.843" y2="252.017" gradientUnits="userSpaceOnUse">
      <stop offset="0" stop-color="#ffd66e"/>
      <stop offset="1" stop-color="#e86170"/>
    </linearGradient>
    <clipPath id="d">
      <path d="M-244.607-70.883v340.524c4.979.922,10.468,1.437,16.242,1.437,13.373,0,25.217-2.748,32.711-6.981.363-.016.725-.032,1.088-.048,4.038,4.26,10.444,7.029,17.681,7.029s13.648-2.771,17.686-7.034c5.153,4.264,13.331,7.034,22.57,7.034,7.614,0,14.51-1.881,19.59-4.926,5.932,3.045,13.987,4.926,22.879,4.926,7.664,0,14.698-1.404,20.298-3.737,1.378,2.333,3.108,3.737,4.994,3.737,1.857,0,3.563-1.364,4.931-3.635,5.559,2.271,12.495,3.635,20.045,3.635,9.873,0,18.708-2.32,24.753-5.979,5.176,3.658,12.741,5.979,21.194,5.979,7.842,0,14.934-1.989,20.052-5.197,5.977,3.207,14.259,5.197,23.418,5.197.405,0,.788-.044,1.188-.054.812.02,1.616.054,2.44.054,13.373,0,25.217-2.748,32.711-6.981.363-.016.725-.032,1.088-.048,4.038,4.26,10.444,7.029,17.681,7.029s13.648-2.771,17.686-7.034c5.153,4.264,13.331,7.034,22.57,7.034,7.614,0,14.51-1.881,19.59-4.926,5.932,3.045,13.987,4.926,22.879,4.926,7.664,0,14.698-1.404,20.298-3.737,1.378,2.333,3.108,3.737,4.994,3.737,1.857,0,3.563-1.364,4.931-3.635,5.559,2.271,12.495,3.635,20.045,3.635,9.873,0,18.708-2.32,24.753-5.979,5.176,3.658,12.741,5.979,21.194,5.979,7.842,0,14.934-1.989,20.052-5.197,5.977,3.207,14.259,5.197,23.418,5.197,1.639,0,3.232-.095,4.805-.219V-70.883H-244.607Z" fill="none"/>
    </clipPath>
    <filter id="e" data-name="drop-shadow-3" x="-178.931" y="82.365" width="437.557" height="220.964" filterUnits="userSpaceOnUse">
      <feOffset dx="-3" dy="0"/>
      <feGaussianBlur result="f" stdDeviation="0"/>
      <feFlood flood-color="#42496f" flood-opacity="1"/>
      <feComposite in2="f" operator="in"/>
      <feComposite in="SourceGraphic"/>
    </filter>
    <clipPath id="g">
      <path d="M-162.823,140.502H224.535s-27.005,108.676-39.322,139.27H-127.872l-10.28-73.33c-1.071-7.639-4.294-14.815-9.293-20.69l-5.692-6.689c-6.253-7.349-9.686-16.682-9.686-26.331v-12.229Z" fill="none"/>
    </clipPath>
  </defs>
  <g isolation="isolate">
    <g id="a" data-name="bateau 04">
      <g clip-path="url(#b)">
        <rect x="5.286" y="7.067" width="287.116" height="269.478" fill="url(#c)"/>
        <path d="M233.689,230.949c-6.711-2.381-24.784,9.779-39.076,20.667,13.139-43.58,29.921-111.114,29.921-111.114h-1.27l4.314-22.22c.089-.46-.027-.937-.318-1.304-.292-.367-.729-.589-1.197-.607-.124-.005-4.62-.157-11.878.086-.124-.011-.246-.005-.365.013-11.008.385-28.17,1.688-46.196,5.739-.042.007-.082.017-.123.028-3.594.81-7.22,1.723-10.839,2.767-.688.198-1.161.828-1.161,1.543v13.955h-22.247v-8.758h0v-9.687h0v-2.974h6.877v-5.634h-6.877v-25.45h6.877v-5.634H-138.992v5.634h6.859v9.4h.018s0,16.05,0,16.05h-6.877v5.634h6.877v3.099h-35.733c-.516,0-1,.248-1.302.666-.302.418-.384.956-.222,1.445l6.551,19.756v8.682c0,9.649,3.434,18.982,9.686,26.331l5.692,6.689c.905,1.063,1.73,2.183,2.516,3.327-1.945,2.849-3.455,5.95-4.527,9.203-1.04,3.157-1.679,6.451-1.83,9.811l-.594,13.161-2.604,57.726h26.5l.111.792H172.347l31.813,9.952s3.446-4.606,7.704-10.972l.76.238s32.83-43.866,21.065-48.04ZM202.156,140.502l1.905-20.294c2.965-.213,5.706-.362,8.18-.464l-2.422,20.758h-7.663ZM198.929,140.502h-7.665l1.297-19.22c2.872-.332,5.629-.6,8.249-.82l-1.881,20.04ZM188.044,140.502h-7.665l.645-17.615c2.83-.462,5.601-.863,8.291-1.208l-1.27,18.823ZM177.164,140.502h-7.662v-15.426c2.793-.611,5.561-1.153,8.287-1.638l-.625,17.064ZM224.062,119.542l-4.01,20.654c-.02.103-.028.205-.028.306h-6.972l2.436-20.873c3.847-.111,6.807-.108,8.574-.087ZM158.712,127.759c2.529-.711,5.06-1.357,7.578-1.951v14.694h-7.578v-12.742ZM-149.055,140.502l-5.01-15.108h7.869l5.01,15.108h-7.87ZM-134.941,125.394l2.825,8.521v6.587h-5.685l-5.01-15.108h7.87ZM-160.615,140.502l-5.01-15.108h8.176l5.01,15.108h-8.176Z" fill="none" stroke="#fff" stroke-linecap="round" stroke-linejoin="round" stroke-width="20"/>
        <g clip-path="url(#d)">
          <g>
            <path d="M212.624,278.989s32.83-43.866,21.065-48.04c-11.764-4.174-58.457,36.343-58.457,36.343l37.391,11.697Z" fill="#fff"/>
            <path d="M204.16,289.723s32.83-43.866,21.065-48.04c-11.764-4.174-58.457,36.343-58.457,36.343l37.391,11.697Z" fill="#9bc8ec"/>
            <g>
              <path d="M235.454,266.632c-1.381.698-2.712-.214-3.008-1.129-.353-1.09.154-2.277,1.193-2.681,1.094-.426,2.309.104,2.745,1.203.07.177.111.365.177.544.555,1.512.481,1.651-1.108,2.063Z" fill="#fff"/>
              <path d="M238.414,233.569c.301.997-.252,2.044-1.252,2.369-1.051.342-2.127-.228-2.417-1.28-.273-.992.315-2.052,1.305-2.352.987-.299,2.068.278,2.364,1.262Z" fill="#fff"/>
              <path d="M220.582,247.882c.246.838-.154,1.488-1.105,1.793-.915.294-1.871-.189-2.132-1.078-.254-.863.251-1.758,1.135-2.012.927-.266,1.802.274,2.103,1.297Z" fill="#fff"/>
              <path d="M213.511,257.357c-.235-.869.242-1.716,1.089-1.938.839-.219,1.694.286,1.925,1.138.25.922-.224,1.833-1.069,2.054-.85.222-1.694-.322-1.946-1.254Z" fill="#fff"/>
              <path d="M236.31,253.507c.248.834-.225,1.733-1.047,1.989-.834.259-1.72-.218-1.969-1.06-.252-.855.204-1.715,1.049-1.977.853-.265,1.712.193,1.966,1.049Z" fill="#fff"/>
              <path d="M223.348,275.204c.209.801-.306,1.637-1.128,1.829-.782.183-1.571-.281-1.794-1.056-.236-.819.232-1.635,1.066-1.856.816-.217,1.644.266,1.857,1.083Z" fill="#fff"/>
              <path d="M229.526,228.095c.795-.203,1.562.243,1.786,1.038.234.828-.239,1.64-1.075,1.847-.792.196-1.576-.259-1.794-1.04-.23-.825.242-1.631,1.083-1.845Z" fill="#fff"/>
              <path d="M217.246,268.375c-.195-.752.215-1.486.917-1.645.728-.165,1.531.314,1.719,1.026.193.732-.213,1.428-.949,1.626-.761.205-1.484-.227-1.687-1.007Z" fill="#fff"/>
              <path d="M245.596,235.391c.059.213.142.423.172.641.094.67-.189,1.132-.859,1.248-.68.118-1.088-.255-1.225-.9-.071-.337-.033-.696-.095-1.037-.114-.625.06-1.095.704-1.24.657-.149,1.001.234,1.151.837.038.154.084.305.126.458.009-.002.017-.005.026-.007Z" fill="#fff"/>
              <path d="M210.243,243.862c-.219-.718.164-1.483.844-1.685.688-.205,1.521.269,1.729.983.196.673-.254,1.468-.932,1.648-.698.184-1.423-.234-1.641-.946Z" fill="#fff"/>
              <path d="M255.177,257.675c.79-.25,1.5.045,1.738.722.224.637-.169,1.391-.838,1.608-.672.219-1.923-.452-2.106-1.13-.145-.535.206-.884,1.206-1.201Z" fill="#fff"/>
              <path d="M249.125,266.217c-.179-.718.266-1.451,1.007-1.596.775-.151,1.318.174,1.56.923.233.719-.197,1.435-.937,1.627-.734.191-1.449-.228-1.63-.954Z" fill="#fff"/>
              <path d="M256.427,245.971c.16.692-.323,1.443-1.035,1.61-.725.17-1.37-.226-1.53-.94-.162-.723.291-1.453,1.003-1.615.676-.154,1.411.291,1.562.945Z" fill="#fff"/>
              <path d="M237.843,241.862c.666-.185,1.405.214,1.604.868.209.687-.242,1.446-.964,1.622-.682.166-1.395-.253-1.565-.92-.168-.661.258-1.384.925-1.57Z" fill="#fff"/>
              <path d="M242.936,258.149c-.608.085-1.112-.157-1.325-.842-.194-.628.223-1.368.851-1.492.691-.136,1.191.165,1.416.826.208.612-.229,1.328-.942,1.508Z" fill="#fff"/>
              <path d="M224.043,235.952c-.401-.315-.957-.551-1.166-.963-.311-.614.096-1.13.721-1.323.644-.199,1.247.09,1.342.721.067.446-.291.957-.459,1.438l-.438.126Z" fill="#fff"/>
              <path d="M225.457,254.821c.655.429,1.135.61,1.362.957.09.137-.308.812-.612.941-.537.228-1.03-.063-1.103-.691-.033-.278.16-.583.353-1.208Z" fill="#fff"/>
              <path d="M219.385,243.974c.43-.503.635-.958.907-1.002.289-.047.641.295.966.466-.183.319-.299.799-.567.91-.257.106-.672-.173-1.306-.374Z" fill="#fff"/>
              <path d="M230.087,240.091c-.395.469-.58.887-.834.934-.266.049-.597-.258-.9-.409.173-.318.276-.767.543-.912.197-.107.609.181,1.191.387Z" fill="#fff"/>
              <path d="M247.9,230.123c-.424.497-.622.931-.865.959-.271.031-.699-.249-.836-.511-.08-.153.219-.693.446-.77.26-.088.629.143,1.255.322Z" fill="#fff"/>
              <path d="M241.963,244.39c.465.419.879.619.909.866.033.267-.293.578-.462.87-.293-.172-.733-.284-.836-.535-.094-.228.178-.606.389-1.2Z" fill="#fff"/>
              <path d="M244.962,249.967c.438.347.832.508.871.732.042.237-.204.695-.414.759-.211.063-.667-.181-.766-.402-.093-.207.143-.56.309-1.088Z" fill="#fff"/>
              <path d="M217.516,236.81c.431.358.795.517.858.755.055.207-.211.703-.369.719-.273.027-.703-.151-.822-.374-.099-.186.153-.56.333-1.1Z" fill="#fff"/>
              <path d="M221.512,233.406c-.433-.371-.821-.546-.855-.774-.037-.251.251-.55.397-.828.272.157.677.256.776.487.091.214-.146.568-.318,1.114Z" fill="#fff"/>
              <path d="M239.471,269.463c.346.287.73.462.732.641.002.261-.271.524-.426.786-.255-.173-.617-.296-.726-.535-.073-.159.214-.483.42-.892Z" fill="#fff"/>
              <path d="M227.302,276.403c.333-.348.533-.723.726-.719.257.005.507.306.76.479-.177.224-.321.581-.539.634-.218.054-.51-.197-.947-.394Z" fill="#fff"/>
              <path d="M227.12,242.791c-.265.354-.402.709-.573.726-.246.025-.516-.197-.776-.313.152-.238.255-.569.472-.683.154-.081.462.13.876.27Z" fill="#fff"/>
              <path d="M226.935,249.614c-.263.339-.385.627-.591.714-.127.053-.549-.207-.546-.317.007-.23.159-.53.348-.654.115-.075.41.123.789.257Z" fill="#fff"/>
            </g>
          </g>
          <g filter="url(#e)">
            <g>
              <polygon points="140.13 87.999 140.13 82.365 133.253 82.365 -132.116 82.365 -138.992 82.365 -138.992 87.999 -132.116 87.999 -132.116 113.449 -138.992 113.449 -138.992 119.083 -132.116 119.083 -132.116 142.651 133.253 142.651 133.253 119.083 140.13 119.083 140.13 113.449 133.253 113.449 133.253 87.999 140.13 87.999" fill="#9bc8ec"/>
              <polygon points="140.13 87.999 140.13 82.365 133.253 82.365 -132.116 82.365 -138.992 82.365 -138.992 87.999 -132.116 87.999 -132.116 113.449 -138.992 113.449 -138.992 119.083 -132.116 119.083 -132.116 142.651 133.253 142.651 133.253 119.083 140.13 119.083 140.13 113.449 133.253 113.449 133.253 87.999 140.13 87.999" fill="#fff" opacity=".8"/>
              <polygon points="133.253 149.079 -132.116 149.079 -132.116 138.172 133.253 131.744 133.253 149.079" fill="#42496f"/>
              <polygon points="133.236 87.998 -132.133 87.998 -132.133 97.399 133.236 90.971 133.236 87.998" fill="#a384bb" mix-blend-mode="multiply" opacity=".25"/>
              <polygon points="133.253 119.083 -132.116 119.083 -132.116 128.485 133.253 122.057 133.253 119.083" fill="#a384bb" mix-blend-mode="multiply" opacity=".25"/>
              <rect x="72.638" y="91.956" width="60.51" height="18.236" fill="#42496f"/>
              <polygon points="140.13 87.999 140.13 82.365 133.253 82.365 83.414 82.365 76.538 82.365 76.538 87.999 83.414 87.999 83.414 113.449 76.538 113.449 76.538 119.083 83.414 119.083 83.414 142.651 133.253 142.651 133.253 119.083 140.13 119.083 140.13 113.449 133.253 113.449 133.253 87.999 140.13 87.999" fill="#a384bb" mix-blend-mode="multiply" opacity=".25"/>
              <circle cx="30.986" cy="100.453" r="6.839" fill="#42496f"/>
              <path d="M30.986,94.9c-2.205,0-4.094,1.277-5.021,3.121.927,1.844,2.816,3.122,5.021,3.122s4.094-1.277,5.021-3.122c-.927-1.844-2.816-3.121-5.021-3.121Z" fill="#9bc8ec" opacity=".25"/>
            </g>
            <g>
              <g>
                <path d="M221.628,140.502l4.373-22.526s-34.612-1.319-68.895,8.571v18.13" fill="none" stroke="#336a9b" stroke-linecap="round" stroke-linejoin="round" stroke-width="3.212"/>
                <g>
                  <line x1="214.054" y1="118.054" x2="210.448" y2="148.962" fill="none" stroke="#336a9b" stroke-linecap="round" stroke-linejoin="round" stroke-width="3.212"/>
                  <line x1="202.515" y1="119.487" x2="199.81" y2="148.303" fill="none" stroke="#336a9b" stroke-linecap="round" stroke-linejoin="round" stroke-width="3.212"/>
                  <line x1="190.976" y1="120.921" x2="189.172" y2="147.644" fill="none" stroke="#336a9b" stroke-linecap="round" stroke-linejoin="round" stroke-width="3.212"/>
                  <line x1="179.436" y1="122.354" x2="178.534" y2="146.984" fill="none" stroke="#336a9b" stroke-linecap="round" stroke-linejoin="round" stroke-width="3.212"/>
                  <line x1="167.897" y1="123.788" x2="167.897" y2="146.325" fill="none" stroke="#336a9b" stroke-linecap="round" stroke-linejoin="round" stroke-width="3.212"/>
                </g>
              </g>
              <path d="M-162.823,140.502H224.535s-27.005,108.676-39.322,139.27H-127.872l-10.28-73.33c-1.071-7.639-4.294-14.815-9.293-20.69l-5.692-6.689c-6.253-7.349-9.686-16.682-9.686-26.331v-12.229Z" fill="#9bc8ec"/>
              <path d="M-162.823,140.502H224.535s-27.005,108.676-39.322,139.27H-127.872l-10.28-73.33c-1.071-7.639-4.294-14.815-9.293-20.69l-5.692-6.689c-6.253-7.349-9.686-16.682-9.686-26.331v-12.229Z" fill="#fff" opacity=".8"/>
              <g clip-path="url(#g)">
                <rect x="-175.931" y="163.521" width="434.557" height="90.28" fill="#42496f"/>
                <rect x="-175.931" y="246.07" width="434.557" height="57.068" transform="translate(82.694 549.208) rotate(180)" fill="#e86170"/>
                <rect x="-175.931" y="158.373" width="434.557" height="7.46" fill="#ffd66e"/>
                <g>
                  <circle cx="1.647" cy="180.883" r="8.121" fill="#e86170"/>
                  <circle cx="1.647" cy="180.883" r="6.555" fill="#fff"/>
                  <path d="M1.646,175.244c-2.205,0-4.094,1.277-5.021,3.121.927,1.844,2.816,3.122,5.021,3.122s4.094-1.277,5.021-3.122c-.927-1.844-2.816-3.121-5.021-3.121Z" fill="#9bc8ec" opacity=".25"/>
                </g>
                <g>
                  <circle cx="49.534" cy="180.883" r="8.121" fill="#e86170"/>
                  <circle cx="49.534" cy="180.883" r="6.555" fill="#fff"/>
                  <path d="M49.534,175.244c-2.205,0-4.094,1.277-5.021,3.121.927,1.844,2.816,3.122,5.021,3.122s4.094-1.277,5.021-3.122c-.927-1.844-2.816-3.121-5.021-3.121Z" fill="#9bc8ec" opacity=".25"/>
                </g>
                <g>
                  <circle cx="97.422" cy="180.883" r="8.121" fill="#e86170"/>
                  <circle cx="97.422" cy="180.883" r="6.555" fill="#fff"/>
                  <path d="M97.422,175.244c-2.205,0-4.094,1.277-5.021,3.121.927,1.844,2.816,3.122,5.021,3.122s4.094-1.277,5.021-3.122c-.927-1.844-2.816-3.121-5.021-3.121Z" fill="#9bc8ec" opacity=".25"/>
                </g>
                <g>
                  <circle cx="145.31" cy="180.883" r="8.121" fill="#e86170"/>
                  <circle cx="145.31" cy="180.883" r="6.555" fill="#fff"/>
                  <path d="M145.31,175.244c-2.205,0-4.094,1.277-5.021,3.121.927,1.844,2.816,3.122,5.021,3.122s4.094-1.277,5.021-3.122c-.927-1.844-2.816-3.121-5.021-3.121Z" fill="#9bc8ec" opacity=".25"/>
                </g>
                <path d="M175.838,291.724s29.864-74.763,23.21-98.64c-7.046-25.282-349.8-33.571-342.34,14.92,3.45,22.425,12.434,95.325,12.434,95.325l306.697-11.605Z" fill="#a384bb" mix-blend-mode="multiply" opacity=".25"/>
                <g>
                  <path d="M167.548,179.024h-2.056v5.576h-1.651v-5.576h-2.019v-1.275h5.726v1.275Z" fill="#fff"/>
                  <path d="M170.004,184.6h-1.647v-6.851h1.647v6.851Z" fill="#fff"/>
                  <path d="M176.394,179.024h-2.056v5.576h-1.651v-5.576h-2.019v-1.275h5.726v1.275Z" fill="#fff"/>
                  <path d="M177.58,179.895l-.696-.376c.26-.452.394-.894.4-1.327v-.819h1.158v.767c0,.292-.084.603-.252.934-.168.331-.371.605-.609.821Z" fill="#fff"/>
                  <path d="M185.15,184.6h-1.642l-2.428-4.263v4.263h-1.651v-6.851h1.651l2.423,4.263v-4.263h1.646v6.851Z" fill="#fff"/>
                  <path d="M187.955,184.6h-1.647v-6.851h1.647v6.851Z" fill="#fff"/>
                  <path d="M194.645,182.28c-.022.477-.15.898-.386,1.264-.235.365-.565.648-.99.849-.425.201-.911.301-1.457.301-.9,0-1.609-.293-2.126-.88s-.776-1.415-.776-2.484v-.339c0-.671.117-1.259.351-1.762.233-.503.57-.892,1.009-1.167.439-.274.947-.412,1.524-.412.831,0,1.499.219,2.004.657.505.438.792,1.041.861,1.809h-1.646c-.013-.417-.118-.717-.315-.899-.198-.182-.499-.273-.903-.273-.411,0-.712.154-.903.461-.191.307-.292.798-.301,1.473v.484c0,.731.092,1.253.275,1.567.183.314.5.471.948.471.38,0,.67-.089.871-.268.201-.179.308-.463.32-.852h1.642Z" fill="#fff"/>
                </g>
              </g>
            </g>
          </g>
        </g>
        <g>
          <path d="M189.973,276.204s-25.21-69.085-47.615-53.344c-6.338,4.453,10.289,39.902,10.289,39.902,0,0-22.132-10.75-23.9-1.517-1.769,9.234-10.281,16.422-27.307,13.017-17.026-3.405,48.05,20.644,49.564,10.984,1.513-9.66,21.506,9.135,25.982,4.467,4.475-4.668-3.281-18.378,12.988-13.509Z" fill="#9bc8ec"/>
          <path d="M180.935,266.206c.81-14.943-22.204-55.119-38.577-43.346-10.779,7.75,7.594,30.593,10.289,39.902-13.676-7.896-29.659-8.817-33.938-4.41-4.278,4.408,7.89,6.282,4.541,10.289s-34.786,4.089-34.786,4.089c0,0,36.04,12.749,46.246,8.277,6.43-2.817-3.905-11.987,1.795-13.982,14.246-4.985,27.11,20.782,37.999,18.012,6.452-1.641-9.332-22.371-5.167-24.086,4.165-1.715,11.599,5.254,11.599,5.254Z" fill="#fff"/>
          <g>
            <g>
              <path d="M87.88,265.807c.941.525.934,1.649.521,2.176-.492.629-1.375.798-2.013.356-.673-.466-.84-1.374-.376-2.054.075-.109.167-.206.245-.314.656-.909.766-.921,1.623-.165Z" fill="#fff"/>
              <path d="M67.639,276.986c.459-.562,1.278-.651,1.856-.201.607.473.698,1.317.204,1.894-.466.544-1.307.618-1.866.164-.557-.453-.645-1.302-.193-1.857Z" fill="#fff"/>
              <path d="M82.853,281.702c.388-.469.919-.491,1.466-.061.526.414.62,1.154.209,1.651-.399.483-1.113.541-1.604.129-.515-.431-.544-1.147-.071-1.719Z" fill="#fff"/>
              <path d="M91.079,282.09c-.41.474-1.085.529-1.543.127-.454-.399-.495-1.089-.094-1.555.435-.504,1.146-.585,1.602-.184.459.404.474,1.104.035,1.612Z" fill="#fff"/>
              <path d="M79.97,270.43c.385-.469,1.088-.546,1.556-.171.475.38.545,1.078.155,1.55-.396.479-1.069.551-1.55.165-.485-.389-.556-1.063-.161-1.544Z" fill="#fff"/>
              <path d="M97.548,269.454c.381-.433,1.064-.461,1.496-.062.411.38.45,1.017.09,1.448-.381.456-1.035.503-1.487.108-.443-.387-.487-1.053-.098-1.494Z" fill="#fff"/>
              <path d="M67.944,284.251c-.427-.38-.468-.996-.097-1.436.387-.457,1.04-.501,1.485-.099.422.381.465,1.01.099,1.441-.386.455-1.036.496-1.487.094Z" fill="#fff"/>
              <path d="M95.984,275.639c-.358.406-.941.455-1.307.112-.379-.356-.415-1.006-.078-1.392.347-.397.907-.434,1.309-.086.415.359.448.945.076,1.366Z" fill="#fff"/>
              <path d="M65.892,272.13c.1-.117.189-.247.303-.349.35-.315.727-.332,1.056.009.333.346.277.727-.042,1.058-.167.173-.389.291-.561.459-.317.31-.655.392-.991.077-.342-.321-.255-.669.035-.991.074-.082.144-.167.215-.251-.005-.004-.009-.008-.014-.012Z" fill="#fff"/>
              <path d="M84.563,289.237c-.329.406-.92.483-1.302.17-.387-.317-.438-.983-.106-1.382.312-.376.947-.426,1.315-.104.378.331.42.913.094,1.316Z" fill="#fff"/>
              <path d="M75.021,257.913c-.452-.359-.559-.883-.261-1.285.28-.377.869-.445,1.255-.143.388.303.488,1.286.169,1.656-.253.292-.591.226-1.163-.228Z" fill="#fff"/>
              <path d="M82.312,258.077c-.344.383-.942.412-1.314.04-.389-.389-.413-.828-.075-1.26.324-.415.905-.445,1.305-.093.396.349.433.925.084,1.313Z" fill="#fff"/>
              <path d="M67.777,261.753c.337-.362.959-.376,1.333-.03.381.353.404.879.054,1.25-.354.376-.952.398-1.323.051-.352-.33-.382-.928-.063-1.27Z" fill="#fff"/>
              <path d="M72.649,274.084c-.367-.312-.424-.894-.124-1.264.315-.388.929-.424,1.312-.076.362.329.398.904.079,1.262-.316.355-.9.391-1.267.078Z" fill="#fff"/>
              <path d="M80.066,264.794c.286.318.343.703.03,1.093-.287.357-.877.404-1.193.09-.348-.346-.369-.752-.075-1.139.272-.359.856-.385,1.238-.044Z" fill="#fff"/>
              <path d="M74.617,284.354c-.026.354.055.767-.101,1.048-.233.419-.69.385-1.045.1-.366-.294-.434-.755-.107-1.056.231-.213.666-.205,1.009-.296l.244.204Z" fill="#fff"/>
              <path d="M84.959,276.182c-.008-.546-.09-.893.022-1.159.044-.105.589-.139.782-.014.341.221.365.619.031.906-.148.127-.399.135-.835.267Z" fill="#fff"/>
              <path d="M81.064,283.916c-.458-.052-.801.007-.932-.133-.14-.148-.08-.485-.107-.739.255-.019.578-.139.747-.027.161.107.162.455.293.9Z" fill="#fff"/>
              <path d="M74.65,279.251c.425.045.738-.011.864.117.132.134.084.445.115.679-.251.024-.55.14-.739.042-.139-.072-.133-.422-.241-.838Z" fill="#fff"/>
              <path d="M61.952,272.853c.452.051.78-.004.891.126.123.145.129.501.031.682-.057.106-.486.144-.619.043-.153-.116-.163-.419-.303-.85Z" fill="#fff"/>
              <path d="M72.503,270.72c.061-.432.015-.748.146-.862.141-.123.448-.056.682-.072.015.236.122.534.017.691-.095.143-.42.133-.845.243Z" fill="#fff"/>
              <path d="M74.553,266.814c.03-.388-.031-.678.083-.788.12-.117.481-.153.599-.057.119.097.156.456.067.599-.083.134-.379.136-.749.246Z" fill="#fff"/>
              <path d="M77.656,287.788c.038-.388-.012-.66.101-.79.098-.113.488-.152.559-.067.122.147.187.465.104.62-.069.13-.383.13-.765.237Z" fill="#fff"/>
              <path d="M74.134,286.808c-.045.395.005.687-.113.795-.13.119-.415.07-.633.093-.015-.218-.116-.491-.021-.638.088-.136.385-.137.767-.251Z" fill="#fff"/>
              <path d="M87.949,262.385c.031-.311-.018-.602.085-.672.15-.103.408-.048.62-.06,0,.214.069.471-.026.628-.064.104-.363.065-.679.105Z" fill="#fff"/>
              <path d="M96.699,266.704c-.331-.056-.625-.026-.698-.139-.097-.15-.021-.412-.02-.626.198.015.46-.041.576.064.116.105.085.371.142.701Z" fill="#fff"/>
              <path d="M77.366,279.912c.308.015.566-.044.642.048.11.132.088.374.122.57-.197.005-.428.075-.579-.006-.107-.057-.105-.317-.186-.611Z" fill="#fff"/>
              <path d="M81.376,277.359c.299.02.512-.022.642.063.08.052.095.398.03.439-.136.086-.368.115-.513.054-.088-.037-.089-.285-.159-.556Z" fill="#fff"/>
            </g>
            <g>
              <path d="M144.97,266.482c.287,2.113-1.499,3.435-2.823,3.408-1.579-.031-2.895-1.226-2.954-2.76-.062-1.617,1.175-2.96,2.802-3.033.262-.012.525.019.788.014,2.218-.042,2.366.117,2.188,2.371Z" fill="#fff"/>
              <path d="M103.249,247.747c1.434.057,2.548,1.248,2.522,2.697-.027,1.522-1.254,2.668-2.754,2.572-1.415-.091-2.531-1.334-2.475-2.757.055-1.419,1.293-2.567,2.708-2.511Z" fill="#fff"/>
              <path d="M113.86,277.409c1.202.057,1.868.871,1.837,2.246-.03,1.324-1.089,2.351-2.363,2.292-1.238-.058-2.176-1.117-2.109-2.383.07-1.326,1.167-2.223,2.635-2.154Z" fill="#fff"/>
              <path d="M123.015,290.881c-1.237-.085-2.126-1.087-2.033-2.29.092-1.192,1.134-2.077,2.348-1.995,1.313.089,2.286,1.117,2.193,2.316-.093,1.206-1.182,2.061-2.509,1.969Z" fill="#fff"/>
              <path d="M128.263,259.461c1.198.052,2.156,1.073,2.119,2.258-.038,1.203-1.058,2.142-2.266,2.086-1.227-.057-2.141-1.037-2.103-2.256.039-1.229,1.022-2.142,2.251-2.088Z" fill="#fff"/>
              <path d="M150.683,286.104c1.138.088,1.994,1.135,1.874,2.292-.114,1.101-1.073,1.919-2.183,1.861-1.173-.061-2.025-1.039-1.938-2.223.085-1.16,1.087-2.02,2.246-1.93Z" fill="#fff"/>
              <path d="M92.12,256.857c.094-1.126,1.02-1.924,2.156-1.858,1.183.069,2.028,1.05,1.921,2.231-.102,1.119-1.046,1.935-2.161,1.868-1.178-.071-2.015-1.05-1.916-2.241Z" fill="#fff"/>
              <path d="M139.043,290.977c-1.066-.084-1.838-.948-1.729-1.935.113-1.022,1.098-1.852,2.11-1.776,1.04.078,1.764.919,1.69,1.968-.076,1.083-.964,1.831-2.071,1.743Z" fill="#fff"/>
              <path d="M108.853,239.215c.304.019.615.006.912.064.915.18,1.389.755,1.239,1.681-.152.938-.822,1.301-1.723,1.189-.471-.059-.922-.27-1.393-.342-.866-.133-1.398-.571-1.298-1.476.102-.922.755-1.199,1.608-1.122.217.02.435.029.653.042,0-.012.002-.025.002-.037Z" fill="#fff"/>
              <path d="M103.972,289.063c-1.033-.038-1.857-.882-1.815-1.857.043-.988,1.034-1.86,2.059-1.809.965.047,1.798.991,1.726,1.956-.074.991-.945,1.748-1.97,1.711Z" fill="#fff"/>
              <path d="M142.182,236.768c.03-1.141.734-1.933,1.723-1.938.93-.005,1.735.846,1.718,1.815-.018.974-1.455,2.3-2.42,2.234-.762-.052-1.059-.666-1.021-2.111Z" fill="#fff"/>
              <path d="M150.582,248.494c-1.015-.09-1.77-.999-1.624-2.03.153-1.077.82-1.638,1.904-1.616,1.041.021,1.78.903,1.697,1.953-.082,1.041-.949,1.784-1.976,1.693Z" fill="#fff"/>
              <path d="M127.505,229.873c.974.104,1.733,1.07,1.63,2.073-.105,1.021-.911,1.682-1.912,1.569-1.015-.114-1.761-1.033-1.652-2.033.104-.949,1.014-1.707,1.934-1.609Z" fill="#fff"/>
              <path d="M113.79,252.223c.058-.951.911-1.732,1.853-1.697.988.037,1.774.967,1.678,1.985-.091.963-.958,1.703-1.903,1.623-.936-.079-1.687-.959-1.628-1.911Z" fill="#fff"/>
              <path d="M137.291,252.921c-.163.829-.705,1.378-1.693,1.346-.905-.029-1.681-.906-1.56-1.779.134-.961.752-1.476,1.713-1.472.891.004,1.626.896,1.54,1.905Z" fill="#fff"/>
              <path d="M99.883,267.532c-.59.38-1.148.998-1.778,1.084-.94.128-1.429-.634-1.398-1.534.031-.928.679-1.583,1.543-1.423.611.113,1.115.809,1.667,1.245l-.033.628Z" fill="#fff"/>
              <path d="M125.09,274.183c.854-.66,1.306-1.203,1.859-1.342.219-.055.919.767.95,1.22.055.802-.546,1.313-1.396,1.126-.377-.083-.687-.471-1.413-1.003Z" fill="#fff"/>
              <path d="M108.232,277.209c-.462-.787-.961-1.258-.897-1.633.068-.397.672-.702,1.042-1.047.333.381.906.749.93,1.148.022.382-.528.797-1.075,1.532Z" fill="#fff"/>
              <path d="M107.993,261.525c.433.726.894,1.155.841,1.506-.055.368-.604.662-.937.989-.337-.369-.874-.705-.944-1.118-.051-.305.51-.712,1.04-1.376Z" fill="#fff"/>
              <path d="M103.031,233.843c.456.776.933,1.229.859,1.558-.082.367-.639.798-1.041.859-.236.036-.804-.597-.803-.927.002-.379.469-.755.985-1.49Z" fill="#fff"/>
              <path d="M118.936,247.996c.755-.417,1.201-.865,1.536-.794.362.078.621.641.924.993-.356.304-.7.827-1.073.848-.339.02-.709-.505-1.388-1.047Z" fill="#fff"/>
              <path d="M127.548,246.6c.649-.414,1.036-.854,1.345-.805.327.052.814.579.801.881-.012.303-.536.788-.868.817-.311.027-.665-.438-1.278-.892Z" fill="#fff"/>
              <path d="M98.062,276.418c.66-.401,1.031-.803,1.37-.778.295.022.821.591.769.805-.088.368-.514.848-.857.902-.287.045-.66-.451-1.282-.928Z" fill="#fff"/>
              <path d="M95.429,269.683c-.678.397-1.08.824-1.392.765-.343-.064-.603-.574-.899-.89.327-.283.639-.767.984-.791.319-.023.674.445,1.308.916Z" fill="#fff"/>
              <path d="M150.463,262.526c.529-.321.93-.743,1.164-.664.341.114.561.588.832.909-.339.254-.663.67-1.024.704-.24.023-.533-.497-.972-.949Z" fill="#fff"/>
              <path d="M154.024,281.495c-.303-.59-.701-1.02-.609-1.269.122-.332.626-.523.966-.775.212.331.612.679.583.988-.028.307-.486.575-.94,1.056Z" fill="#fff"/>
              <path d="M110.173,266.604c.342.504.742.843.688,1.073-.079.331-.488.583-.756.869-.242-.305-.626-.588-.677-.922-.036-.237.377-.543.746-1.02Z" fill="#fff"/>
              <path d="M118.975,269.915c.323.496.643.784.663,1.091.012.189-.516.622-.658.568-.297-.113-.618-.446-.695-.747-.047-.183.345-.478.69-.912Z" fill="#fff"/>
            </g>
            <g>
              <path d="M162.821,223.236c.824.918.397,2.131-.245,2.549-.766.497-1.784.353-2.311-.363-.555-.754-.398-1.799.357-2.362.122-.091.258-.161.382-.249,1.048-.74,1.171-.712,1.817.425Z" fill="#fff"/>
              <path d="M136.76,227.809c.705-.438,1.625-.229,2.083.472.481.738.266,1.685-.484,2.126-.707.416-1.645.183-2.08-.517-.434-.698-.214-1.649.481-2.081Z" fill="#fff"/>
              <path d="M151.471,238.568c.594-.363,1.177-.19,1.609.479.416.644.242,1.479-.388,1.865-.612.374-1.405.171-1.784-.456-.397-.658-.163-1.444.563-1.887Z" fill="#fff"/>
              <path d="M160.229,242.046c-.62.361-1.371.17-1.717-.437-.343-.601-.131-1.363.477-1.718.658-.383,1.457-.207,1.802.397.347.608.103,1.371-.562,1.757Z" fill="#fff"/>
              <path d="M152.541,225.297c.591-.364,1.381-.186,1.748.393.372.588.189,1.369-.408,1.735-.606.371-1.362.199-1.739-.398-.381-.601-.206-1.357.4-1.731Z" fill="#fff"/>
              <path d="M171.927,230.777c.573-.327,1.323-.104,1.641.489.303.564.109,1.268-.441,1.6-.582.351-1.307.16-1.65-.436-.336-.583-.136-1.32.449-1.654Z" fill="#fff"/>
              <path d="M134.389,235.784c-.321-.57-.136-1.252.429-1.59.589-.351,1.312-.156,1.644.445.315.569.127,1.266-.428,1.596-.587.348-1.306.151-1.645-.451Z" fill="#fff"/>
              <path d="M167.935,236.889c-.538.306-1.188.143-1.456-.365-.278-.526-.075-1.243.434-1.535.523-.301,1.143-.132,1.448.394.315.543.133,1.189-.426,1.507Z" fill="#fff"/>
              <path d="M136.674,221.904c.152-.09.296-.197.457-.265.497-.211.91-.089,1.139.402.232.499.029.89-.439,1.129-.245.125-.529.17-.778.288-.458.217-.855.181-1.101-.285-.251-.475-.027-.819.406-1.059.11-.061.218-.128.326-.192-.004-.006-.007-.012-.011-.018Z" fill="#fff"/>
              <path d="M150.52,247.358c-.507.317-1.176.181-1.472-.3-.3-.487-.108-1.226.398-1.535.477-.291,1.183-.109,1.462.376.287.499.115,1.144-.388,1.459Z" fill="#fff"/>
              <path d="M151.84,209.912c-.356-.556-.276-1.164.196-1.487.444-.304,1.106-.158,1.412.311.308.472.05,1.574-.433,1.855-.382.222-.723.025-1.174-.679Z" fill="#fff"/>
              <path d="M159.669,212.8c-.515.287-1.172.096-1.437-.445-.276-.565-.139-1.05.387-1.392.505-.328,1.145-.145,1.447.384.299.525.125,1.162-.397,1.452Z" fill="#fff"/>
              <path d="M142.573,211.375c.5-.266,1.177-.05,1.453.463.281.523.11,1.101-.406,1.372-.523.275-1.179.077-1.451-.437-.259-.488-.068-1.147.404-1.398Z" fill="#fff"/>
              <path d="M143.261,226.53c-.281-.474-.126-1.125.336-1.414.485-.303,1.163-.113,1.448.406.269.491.094,1.126-.384,1.395-.474.266-1.119.088-1.4-.386Z" fill="#fff"/>
              <path d="M154.741,219.235c.191.45.11.889-.374,1.194-.443.28-1.099.112-1.324-.346-.248-.504-.119-.951.343-1.261.428-.287,1.069-.099,1.356.413Z" fill="#fff"/>
              <path d="M141.572,238.376c-.159.374-.226.851-.499,1.097-.408.366-.89.16-1.168-.281-.286-.455-.189-.978.277-1.182.329-.144.797.026,1.202.055l.188.311Z" fill="#fff"/>
              <path d="M155.802,233.377c.194-.593.235-1,.454-1.246.087-.098.689.069.851.276.287.366.165.806-.303.992-.208.083-.482-.002-1.003-.022Z" fill="#fff"/>
              <path d="M148.711,240.299c-.477-.227-.869-.291-.96-.491-.096-.212.094-.554.159-.84.283.075.677.064.818.248.135.176.006.553-.017,1.083Z" fill="#fff"/>
              <path d="M143.505,232.866c.443.207.803.263.892.448.093.194-.074.513-.128.778-.281-.067-.647-.054-.815-.229-.123-.129.013-.507.051-.996Z" fill="#fff"/>
              <path d="M132.142,221.222c.47.224.846.286.917.467.08.203-.047.59-.22.749-.101.094-.579-.025-.685-.184-.122-.182-.021-.514-.012-1.033Z" fill="#fff"/>
              <path d="M144.353,222.835c.226-.445.294-.804.478-.879.199-.08.505.105.765.175-.072.261-.067.623-.238.755-.156.119-.504-.012-1.005-.051Z" fill="#fff"/>
              <path d="M148.024,219.371c.176-.409.219-.745.383-.822.174-.081.577.013.67.162.093.149,0,.551-.15.673-.14.114-.461.006-.902-.012Z" fill="#fff"/>
              <path d="M143.585,243.222c.186-.406.233-.719.403-.817.148-.085.585.017.63.135.077.205.029.573-.118.71-.123.115-.462-.002-.915-.028Z" fill="#fff"/>
              <path d="M140.137,240.852c-.196.41-.25.745-.418.818-.185.081-.475-.079-.72-.134.064-.242.057-.574.214-.698.145-.115.467-.006.924.014Z" fill="#fff"/>
              <path d="M164.167,219.558c.149-.325.204-.658.342-.696.2-.056.459.1.694.165-.08.232-.1.536-.262.669-.108.089-.417-.065-.774-.139Z" fill="#fff"/>
              <path d="M172.03,227.485c-.337-.184-.667-.261-.704-.41-.049-.199.13-.454.211-.685.209.09.513.127.6.284.086.156-.046.433-.107.811Z" fill="#fff"/>
              <path d="M146.198,234.591c.328.13.629.162.678.29.07.184-.044.438-.08.662-.215-.068-.491-.078-.624-.222-.094-.102.004-.383.026-.73Z" fill="#fff"/>
              <path d="M151.488,233.319c.316.132.562.167.672.307.067.087-.045.465-.131.486-.179.042-.441-.013-.575-.132-.082-.073.01-.341.034-.661Z" fill="#fff"/>
            </g>
          </g>
        </g>
      </g>
    </g>
  </g>
</svg>