<?xml version="1.0" encoding="UTF-8"?>
<svg xmlns="http://www.w3.org/2000/svg" width="300" height="300" xmlns:xlink="http://www.w3.org/1999/xlink" viewBox="0 0 300 300">
  <defs>
    <clipPath id="b">
      <path d="M126.772,270.147c-.714.568-1.284,1.023-1.977,1.575-.003-.058.007.152.018.393-3.196-.319-3.327-2.383-.098-2.884,1.266-.458,1.292-1.73,1.796-3.082-1.457.556-2.442.47-3.814.697.252.876.893.851,1.45,1.442-.481.508-1.165.591-1.771.508-.164-1.022-1.028-2.49.117-3.246,1.081-.446-.186-1.686-.567-2.013-.576.277-1.111.961-.617,1.595.308.467.508.864-.116,1.321-1.184,3.272-3.027-.469-4.858-1.096.043-.188.129-.569.249-1.096-1.736,1.039-.908-3.182-2.925-.821-1.624-1.05-2.16-4.844-4.273-4.346-.195.121-.721-.087-.862-.323-.793-2.584-3.2-3.697-4.05-6.08-.648-1.513-1.976-2.377-3.113-3.449-.105-.152-.742-.109-.861.057-.955,1.197-2.936.12-3.038-1.301-.305-.566-1.47-1.131-1.391-1.989-.993-1.138.043-1.066.753-1.648-.713-.298-.871-.891-.862-1.733.182-.805-1.666-2.151-.396-2.576,1.456-.278.308-1.173.293-2.22-.995,1.425-2.019,2.272-3.674,2.052-.749.61-1.209.199-1.709-.265-1.289-1.414-3.222.461-4.368,1.389.096-3.759-4.685.9-6.54,1.179-.045-1.293-1.546-2.313-2.535-1.037-2.249-.607-2.976-3.952-4.684-5.586-.354-1.535-2.399-1.151-2.496-2.62-.174-1.629-2.3-1.873-2.288-3.673-1.441-.59-1.123-2.543-2.161-3.441-1.784-2.289-6.496-5.151-5.755-8.104.894-.917,0-1.194-.607-1.76-.469-1.012-1.005-.044-1.776-.239,1.881-2.059-1.466-2.334,1.303-5.969.307-.896-.85-.648-1.11-.104-.689,1.234-1.677,1.063-2.634.934-.512-.549-.059-1.924-1.332-1.664-.087-.365-.174-.73-.265-1.114-1.241.3-1.93,1.597-.515,2.208-1.318,1.253-3.583,4.501-4.84,1.678-1.488.342-1.344-2.237-2.996-.947-.081-.699-.146-1.267-.22-1.908-.179.118-.405.268-.633.418-.357-.743-.386-1.794-1.555-1.625-.128-.956-.256-1.902-.401-2.984-.273.4-.459.674-.57.836-1.739-.398-2.103-2.224-3.029-3.533-.095.013-.19.027-.285.04-.063.335-.127.67-.19,1.006-.1-.005-.2-.01-.301-.014.267-3.392-2.866-4.422-3.859-7.278.268-1.007.296-1.422-.313-2.239-.385.414-.736.792-1.218,1.311-.78-.576-.39-2-1.553-1.698-.335-1.357-.028-2.349.869-3.26-.982-1.094,1.552-3.478-.432-3.648-.108.467-.211.908-.313,1.349h-.215c.026-1.112.053-2.223.084-3.524,2.431,1.178,2.282-2.245,2.499-3.943-.967.712-1.639,2.005-2.82,1.039.176.3.352.6.614,1.048-.519.131-.969.245-1.271.321-.347-1.909.465-3.139,1.711-4.501.127.086.294.199.395.268,2.901-4.637,5.805-9.825,10.004-13.792-1.101-.897-1.671-2.744-.22-3.567.661.055,1.365.339,1.709.081.63-.781,1.133-1.841-.331-2.352-.007-1.37,1.816-2.873.508-4.08-.762-.851-.499-2.634-1.967-2.737-1.541-.467-2.351.923-3.668,1.337-1.282-.241-1.534,1.02-2.196,1.866-.778-.443-1.737-.572-2.254-1.223-.354-1.428-1.427-.995-2.579-1.251.279-.295.512-.541.756-.799-1.61-.454-1.243,1.18-.684,1.971-.347.287-.659.544-1.161.959-.146-.998.719-2.27-.491-2.696-2.003-.024-2.094-3.775-4.13-2.353.013-.316.026-.622.039-.933-1.119-.022-1.15-.978-1.739-1.663-2.298-1.886-1.623-1.258-2.3-3.981-.202.134-.39.26-.632.421-.647-.984-1.563-1.132-1.856-2.568-1.328-2.881-5.346-3.058-7.079-5.386-.585.083-1.041.148-1.601.228,1.383-2.045.167-3.317.285-5.289.802-1.974,1.602-3.943,2.4-5.907l.357.032c-.084.989-.167,1.98-.27,3.197.814-.916.531-1.853.959-2.706.183.12.335.22.487.32.067-.034.134-.067.201-.101.024-1.515-1.858-.945-.615-2.467,8.097-15.249,14.395-31.292,23.079-46.174.452-.861.735-1.603,1.645-.565,1.744.56,1.811-2.35,3.56-2.194.431-.026.743-1.269.438-1.892-.072.32-.123.543-.188.83-.996.023-1.962.045-2.946.068.288-2.054,2.598-2.155,4.1-1.523,1.683-2.489,2.304-6.224,5.744-6.788-.14-.172-.266-.327-.539-.662,2.52-.59,4.58,2.546,6.67,1.905.44-.39.743-.297.818.309-.216.079-.43.157-.716.261,4.26,1.531,8.617,5.253,12.519,6.025.919,2.415,2.378-.584,3.433-1.49.519-.833,1.393-.071,2.021-.601,8.953-9.038,16.928-19.513,26.772-26.991.548-.009,1.596.235,1.946.822,1.848,1.277,2.466-3.795,6.841,1.161.667,1.147,2.425-.463,2.708,1.046.282,1.139,1.689,1.087,2.207,2.067,1.786,1.081,2.565,3.146,4.737,3.803.689.392.8.85,1.497-.017.118,1.414.309,1.516,1.399.76.079.407.154.792.229,1.178l1.123-.477c-.465,6.943,24.591-23.986,27.83-25.766,1.614.353-.188,1.261.697,2.163.504.143.961-.691,1.338-.89,1.676-.328-.022,1.919,1.229,2.224.722.181.831,1.901,1.677.962.181.363.422.654.47.981.121.87,1.498.81,1.687.114.111-.926-.632-2.356.922-2.128.695.044.417,1.093.954,1.37-.252.402-.445.71-.638,1.018.435.124.871.249,1.436.41-.455,1.116-.409,1.297.704,1.757.236,1.007,1.231,1.468,1.973,2.04.853.704,1.654,2.045,3.013,1.97-.367,1.39,1.423.545,2.121.967-1.036.973-.927,1.293.14,1.928-.026.064-.052.129-.078.193-.473-.052-.945-.105-1.599-.177.27.731,1.157.622.746,1.475-.068.73,1.223.916,1.837.424-.165.316-.264.505-.399.765.57-.039.209,1.014.965.708.422-.171.76-.545,1.101-.949-1.081.652-1.342-.397-.403-.954,1.362.035,2.055-.861,2.827-1.742,1.164-1.315,2.162-2.092,3.896-1.315.42.365.792.737,1.358.086,1.024.926,2.01,1.817,2.997,2.709.08-.067.161-.134.241-.2-.201-.332-.402-.663-.707-1.165,1.923,1.296,3.917-1.03,5.357.406.242,1.625,1.152,2.489,2.362,3.451,1.077.962.459,2.642,1.638,3.51.591.438.42,1.541,1.363.95,1.136-.803,2.064,1.302,1.41,2.168.424.081.745.143,1.018.195-.349.427-.657.804-.966,1.18.601.262-.509,1.372.736,1.339.079-.234.163-.483.242-.715.997.668,2.299,1.187,1.222,2.566.322.045.606.085.957.133-.052.234-.096.434-.112.508.399.361.738.669,1.123,1.017-.197.249-.374.474-.652.826.998-.259,1.849-.481,2.782-.723.017.314.026.498.036.679,2.534.548.472,4.428.011,6.054.081.056.162.112.243.169,1.616-1.377,2.453-3.491,3.878-5.066.083.048.165.097.248.145-.384.974-.893,1.909-1.079,2.947,1.031-.032,1.49-.808,2.019-1.568,3.259,2.237,14.631-18.5,13.479-7.991.094.03.189.059.283.089,1.094-2.144,4.509-2.623,4.519.402-.096.89.735.556,1.293.499.593-.139.81.106.812.662-.08,1.962,4.51.524,3.973,3.236,2.144-.457,1.241,2.226,2.864,2.406.605-.004,1.21.372,1.837.587-.225.485-.433.934-.678,1.461,5.02.996,1.101.777,3.501,2.933,4.404,2.295.161,6.216-.403,9.674.089.041.178.082.266.123-.185.117-.369.233-.605.382.059.154.126.329.196.511-1.449.027-.687,1.274-1.387,2.138-.349.477-.522.808.079,1.218.73.849.617,2.264.918,3.296-.073-.059-.231-.188-.271-.221-.656,1.441.088,2.991-1.8,3.481-.204.757-.278,1.634-1.183,2.076-.315-.334-.584-.62-.852-.905-.137-.009-.274-.017-.41-.026.293,2.122-.855,3.447-1.799,5.239,1.242.98,3,.811,3.902,1.869.136.202.265.614.366.604,1.437-.079,1.729,1.318,2.679,1.994.643-.661,1.245-1.281,1.864-1.918.26.187.466.335.672.483.052-.03.105-.061.157-.091l-.428-.924c1.562-3.164,1.703.665,2.812-1.18.475.196-.208,1.169.688.926.129-.035.115-.591.193-1.067,1.148-.008,1.437,1.548,2.789.384.073.773.039,1.143.215,1.756,1.685-.842,3.335-2.183,4.895-3.547,1.023-1.326,1.915-1.908,3.486-.744-.475.142-.748.223-1.02.305-.005.067-.011.135-.016.202.378.068.756.137,1.195.217.034-.181.063-.334.1-.528,1.723.228.025,1.229,1.078,1.799.134-.204.256-.391.296-.453,1.868.37,1.023-1.643.979-2.751l.204-.01c1.293,1.101,1.019,3.405,2.372,4.092.478.042.83.144,1.165.502,1.443.824.727-1.53,1.45-1.887.825-.061,1.284.754,1.73,1.415-.65,1.95,2.239,2.847,3.33,4.16-1.55-.417-2.332-.086-.804,1.442.229-.349.361-.551.594-.905.361.657.506,1.139,1.073,1.535.326-.601.054-1.047-.141-1.632.68.197,1.275.399.869,1.299.351,2.153,4.294-.792,3.39,2.185.898-.303,3.057.317,1.793,1.39-.131.095-.137.605-.006.756.169.194.628.381.795.285.865-.523,1.285.614,1.879,1.035,1.081,1.873-1.129,3.834-.969,5.528,1.202.529-.36,2.016-1.067.878-.308.414-.488.762.194.862,1.616,1.818-2.468,6.466-3.68,8.628.365-.107.59-.173.909-.267.159.618,1.012,1.706-.01,1.987-.745.554-.263,1.555-.229,2.5.289.015,1.168-.414,1.404-.381.598.516,1.12.261,1.637-.051.559-.337.696-.053.782.465.801,2.367,1.179,4.776,2.081,7.035.296,1.29.714,3.393,2.176,3.714.357.969,1.887,1.054,1.624,2.511,2.597-.272,2.122,3.134,2.166,4.769,2.929,1.423-1.903,4.927-2.06,7.046-1.368,1.049-1.719,3.218-2.761,3.844-.552.332.13,1.785-.94,1.65-.796.839-1.221,1.956-2.062,3.186,3.359.425,6.449.815,9.532,1.205.032,1.666.885.365,1.742,1.274-.463.32-.798.55-1.11.766,1.152,1.211,1.958,3.802.022,4.516-1.213-.421-.742.496-.819,1.117.542-.177.997-.326,1.52-.497.973,1.168-1.798,1.906-.43,3.306.013,5.671-9.282,6.554-2.154,13.149-.601.93.805,1.579.35,2.49-.864,1.241-.557,2.496,1.028,2.77.031-.119.095-.368.163-.633,1.014.619,2.481,4.084,2.35,5.432.203-.031.46-.071.716-.111-.01.096-.021.192-.031.288-.183.196-.365.393-.548.59.022.092.044.183.066.275.393-.066.786-.133,1.324-.224-.604.681-.237,2.147-1.186,2.219-.146-.009-.301.289-.452.446.707.611,1.519-.008,2.306-.16.039.066.079.131.118.197-3.126,4.171-9.064,6.455-10.856,11.429-.128,1.576-.41.812-1.467,1.079.511.307,1.427.88.622,1.38-.764.446.062,1.168-.253,1.875-.087.003-.174.006-.261.009-.122-.197-.243-.393-.517-.836-2.745,9.891-14.735,10.7-21.933,16.161-4.721,4.006-9.465,8.241-14.742,11.416-1.032,1.679-4.844,4.864-6.137,2.157.234-.101.458-.199.914-.396-.521-.325-.863-.539-1.347-.841.147,1.114-.969,3.195-.613,1.098-1.212-.582-.148-1.97-.78-3.19-.401.884-.706,1.557-1.011,2.231-1.428-.731-.155-3.632-1.829-3.831-.673,1.024-1.157.594-1.616-.31-.299.539-.537.97-.797,1.437-3.272-3.432-9.814,6.669-13.382,6.068-1.938.182-3.462,3.741-5.535,2.824-8.971-2.229-27.887,23.203-33.172,18.759.277-.119.533-.228,1.027-.44-.491-.356-.823-.597-1.214-.881-1.253,2.454-1.359-.662-1.252-1.807-.098-.031-.197-.062-.295-.093-.366.652-.732,1.305-1.092,1.947-1.624-.22.047-4.78-1.789-3.836-.899,1.306-.917.067-1.661-.321-.179.432-.346.837-.504,1.219-2.082-1.718-4.408.854-6.83.32-.817.38-2.702,1.194-2.44-.602.711-.752,1.476-3.949-.374-3.102-.693-1.096-.614-1.406.383-1.632-.13-1.436-.512-1.982-1.573-.714.167-2.383-1.748-3.383-1.153-5.508.157-.534-.429-1.418-.268-1.963.769-1.473-.333-2.133-.906-3.004-1.931-.74-2.614-2.2-3.516-4.067-.659.517-1.34,1.051-2.08,1.631.027-.286.049-.514.074-.772-2.134.455-.86,2.028-2.308,3.424-.48-2.06,1.266-3.471,1.159-5.483-7.491,8.85-14.265,20.34-21.905,27.933ZM281.647,165.413c.861.91-.177,1.368.871,1.808.243-.854,1.473-1.293.613-2.462l-.624.31-.413-.196c.221-.269.443-.537.662-.803-1.404-1.639-1.201.322-1.109,1.344ZM33.541,183.748c-.44.598-.881,1.197-1.321,1.794.416.232.892.496,1.372.764.972-1.015.967-1.809-.051-2.558ZM282.421,173.251c-.222-.095-.444-.189-.666-.284.342-.493.685-.986.992-1.43-.25-.17-.55-.375-.848-.578q-.56.478.02,1.052c-.282.189-.563.377-.843.564-.009.121-.018.242-.026.363.457.104.914.208,1.372.313ZM280.446,162.308c-.318.619-.555,1.08-.89,1.733,1.061-.275,2.309-1.141.89-1.733ZM230.913,89.214c-.07.023-.14.046-.21.069-.088.634-.176,1.268-.273,1.965l.902-.413c-.137-.532-.278-1.077-.419-1.622ZM179.677,43.765c-.848.503-.866.792-.101,1.425.035-.491.064-.905.101-1.425ZM38.809,78.717c.649.155,1.027.174,1.063-.485-.428-.544-.687.017-1.063.485ZM31.936,191.013c-.467.934-.379,1.117.477,1.239-.178-.463-.328-.851-.477-1.239ZM281.27,169.697c.154.012.308.025.462.037.005-.409.011-.818.016-1.226-.12-.01-.24-.02-.36-.03-.039.406-.079.812-.118,1.218ZM76.359,239.142c-.032.385-.064.77-.106,1.275.927-.494.838-.89.106-1.275Z" fill="none"/>
    </clipPath>
    <linearGradient id="c" data-name="Dégradé sans nom 13" x1="148.843" y1="67.007" x2="148.843" y2="252.017" gradientUnits="userSpaceOnUse">
      <stop offset="0" stop-color="#ffd66e"/>
      <stop offset="1" stop-color="#e86170"/>
    </linearGradient>
    <clipPath id="d">
      <path d="M292.088-21.436H-65.872v296.631c6.043,1.12,12.705,1.744,19.713,1.744,16.231,0,30.605-3.335,39.7-8.473.44-.019.88-.039,1.321-.058,4.901,5.171,12.675,8.531,21.459,8.531s16.565-3.363,21.465-8.537c6.254,5.175,16.179,8.537,27.393,8.537,9.241,0,17.611-2.283,23.776-5.979,7.2,3.696,16.976,5.979,27.768,5.979,9.301,0,17.839-1.704,24.636-4.535,1.672,2.831,3.773,4.535,6.061,4.535,2.254,0,4.325-1.656,5.985-4.412,6.747,2.756,15.165,4.412,24.328,4.412,11.982,0,22.705-2.816,30.042-7.256,6.282,4.44,15.463,7.256,25.723,7.256,9.518,0,18.126-2.415,24.336-6.307,7.254,3.893,17.306,6.307,28.423,6.307,1.989,0,3.922-.115,5.832-.266V-21.436Z" fill="none"/>
    </clipPath>
    <filter id="e" data-name="drop-shadow-1" x="-14.65" y="92.685" width="263.135" height="249.334" filterUnits="userSpaceOnUse">
      <feOffset dx="-6" dy="0"/>
      <feGaussianBlur result="f" stdDeviation="0"/>
      <feFlood flood-color="#42496f" flood-opacity="1"/>
      <feComposite in2="f" operator="in"/>
      <feComposite in="SourceGraphic"/>
    </filter>
  </defs>
  <g isolation="isolate">
    <g id="a" data-name="bateau 07">
      <g clip-path="url(#b)">
        <rect x="5.286" y="7.067" width="287.116" height="269.478" fill="url(#c)"/>
        <path d="M247.98,213.221c-.032-.969-.073-1.936-.127-2.899-.006-.106-.014-.212-.02-.318-.411-7.007-1.398-13.862-2.928-20.513l3.58-.943v-.002s0,0,0,0l-.946-3.59-1.04-3.948h0s0,0,0,0l-3.588.945c-8.704-29.231-27.897-53.983-53.198-69.876l1.89-3.242h0s0-.002,0-.002l-5.194-3.028-1.541-.899h0s0,0,0,0l-1.88,3.225c-1.009-.549-2.028-1.08-3.053-1.601-.202-.103-.405-.204-.607-.306l-2.262-1.318-.098.168c-.056-.026-.112-.052-.168-.078-.355-.168-.71-.334-1.067-.499-.742-.343-1.488-.677-2.237-1.005-.32-.14-.639-.283-.961-.421-2.125-.909-4.28-1.761-6.464-2.553-.328-.119-.658-.232-.987-.348-.779-.275-1.562-.544-2.348-.804-.374-.124-.749-.246-1.125-.366-.792-.253-1.587-.498-2.386-.735-.333-.099-.665-.201-1-.298-2.251-.65-4.529-1.237-6.83-1.761-.339-.077-.681-.148-1.021-.223-.826-.18-1.654-.354-2.485-.518-.389-.077-.778-.151-1.168-.224-.834-.156-1.672-.302-2.512-.442-.347-.057-.692-.118-1.04-.173-2.356-.37-4.734-.674-7.132-.909-.352-.035-.706-.063-1.059-.094-.861-.077-1.724-.147-2.59-.206-.402-.028-.804-.053-1.207-.077-.871-.051-1.744-.092-2.62-.125-.355-.013-.708-.03-1.064-.041-1.223-.036-2.449-.059-3.68-.059-1.167,0-2.329.019-3.489.052-.139.004-.277.011-.416.016-1.295-.04-2.593-.067-3.897-.067-6.963,0-13.791.585-20.445,1.692l-.558-2.12h0s0-.001,0-.001l-7.295,1.923-.506-1.922-7.539,1.986.945,3.589c-29.232,8.704-53.984,27.897-69.878,53.199l-3.244-1.891-3.928,6.735,3.226,1.881c-9.574,17.602-15.016,37.761-15.016,59.169,0,9.576,1.091,18.902,3.152,27.861l-3.58.943,1.986,7.54,3.589-.945c8.704,29.231,27.897,53.984,53.198,69.877l-1.892,3.245,6.736,3.927,1.88-3.225c1.187.646,2.39,1.265,3.6,1.873l2.321,1.354.099-.17c16.123,7.663,34.142,11.959,53.149,11.959,1.266,0,2.526-.025,3.783-.063.143.005.288.003.431.007,1.027.029,2.057.045,3.089.049.167,0,.332.008.499.008.272,0,.543-.01.815-.012.863-.006,1.726-.015,2.585-.038.308-.009.614-.024.921-.035.887-.031,1.773-.067,2.656-.116.164-.009.327-.021.49-.031,4.391-.262,8.72-.753,12.977-1.461l.558,2.12,7.296-1.922.506,1.922,7.539-1.986v-.002s0,0,0,0l-.945-3.587c29.231-8.704,53.983-27.897,69.877-53.198l3.243,1.891,2.816-4.83,1.111-1.906h0s.001-.002.001-.002l-3.225-1.88c.03-.055.058-.112.088-.167.512-.944,1.009-1.896,1.497-2.855.174-.342.342-.687.513-1.031.346-.695.686-1.393,1.019-2.095.18-.38.358-.761.535-1.143.328-.71.647-1.424.961-2.141.153-.349.308-.696.458-1.046.436-1.019.861-2.044,1.27-3.077.031-.079.062-.157.093-.236.404-1.025.791-2.058,1.168-3.096.131-.36.255-.722.382-1.083.262-.743.519-1.489.767-2.239.133-.402.264-.805.394-1.209.24-.752.472-1.508.698-2.266.111-.371.224-.74.332-1.113.307-1.066.603-2.136.882-3.213.027-.103.053-.207.08-.31.275-1.072.534-2.151.78-3.234.087-.381.167-.765.25-1.147.169-.777.333-1.556.487-2.339.084-.427.167-.855.246-1.283.146-.783.283-1.569.414-2.357.065-.393.134-.784.196-1.178.174-1.111.336-2.226.48-3.347.014-.11.028-.219.042-.329.141-1.118.265-2.242.375-3.369.04-.403.072-.807.108-1.211.071-.804.136-1.609.192-2.418.031-.445.059-.891.085-1.337.047-.812.085-1.627.116-2.444.016-.407.035-.813.047-1.221.033-1.149.053-2.301.055-3.457,0-.059.003-.117.003-.176,0-.092-.004-.184-.004-.276-.002-1.06-.018-2.116-.047-3.169-.006-.23-.018-.458-.026-.687ZM117.299,329.702c-.443-.025-.885-.054-1.326-.084-.682-.047-1.362-.102-2.041-.161-.4-.035-.801-.068-1.2-.107-.902-.089-1.8-.189-2.696-.299-.164-.02-.33-.036-.495-.057-1.062-.135-2.119-.288-3.172-.453-.302-.047-.603-.101-.905-.15-.776-.128-1.55-.262-2.321-.406-.33-.062-.659-.125-.988-.19-.784-.154-1.565-.316-2.343-.485-.27-.059-.541-.116-.81-.177-2.141-.484-4.26-1.027-6.353-1.631-.092-.026-.182-.055-.273-.081-.955-.279-1.906-.57-2.85-.873-.174-.056-.348-.113-.522-.17-.91-.297-1.815-.604-2.715-.924-.124-.044-.248-.087-.371-.131-3.152-1.131-6.239-2.398-9.255-3.796-.051-.023-.101-.047-.152-.071-.974-.453-1.941-.92-2.901-1.4-.035-.017-.07-.035-.105-.052-.995-.5-1.982-1.013-2.96-1.541l10.361-17.771c10.771,4.667,22.642,7.261,35.109,7.261,1.307,0,2.607-.034,3.901-.091.237.01.474.019.711.027.189.007.378.016.568.022.871.025,1.745.042,2.622.042,3.832,0,7.608-.245,11.314-.719l5.765,21.886c-6.783,1.537-13.797,2.456-20.979,2.702-.198-.007-.396-.015-.593-.023-.677-.027-1.352-.057-2.026-.096ZM117.476,104.992c.819-.047,1.642-.078,2.465-.106,17.8.613,34.563,5.375,49.349,13.355l-10.363,17.774c-5.939-2.573-12.212-4.514-18.736-5.738-.027-.005-.053-.01-.08-.015-1.742-.325-3.501-.602-5.276-.823-.071-.009-.143-.016-.214-.025-.75-.092-1.503-.174-2.259-.246-.252-.024-.506-.045-.759-.068-.586-.051-1.174-.097-1.763-.137-.297-.02-.595-.04-.893-.057-.574-.033-1.15-.059-1.727-.081-.286-.011-.572-.025-.859-.033-.773-.022-1.549-.034-2.327-.036-.072,0-.144-.003-.216-.003-.2,0-.398.007-.598.008-.586.004-1.172.009-1.755.024-.167.004-.333.014-.5.019-.35.011-.699.025-1.047.04-1.294-.056-2.593-.091-3.901-.091-3.832,0-7.608.245-11.314.719l-5.757-21.859c5.986-1.356,12.145-2.251,18.445-2.616.029-.002.057-.004.086-.005ZM228.56,217.353c0,17.861-4.189,34.759-11.625,49.775l-14.701-8.571c4.873-9.237,8.165-19.431,9.505-30.224,0-.004,0-.008.001-.012.102-.82.19-1.645.269-2.472.02-.208.037-.418.056-.626.056-.636.106-1.273.149-1.913.017-.258.034-.516.049-.774.036-.625.065-1.253.088-1.882.009-.24.021-.479.027-.72.025-.858.04-1.717.04-2.581,0-.8-.012-1.597-.033-2.391-.001-.05-.004-.099-.006-.149-.157-5.554-.832-10.98-1.97-16.236l15.798-4.161c1.54,7.408,2.353,15.079,2.353,22.937ZM11.327,214.06c.01-.347.026-.693.04-1.039.029-.763.064-1.524.108-2.283.022-.377.046-.754.072-1.131.052-.768.114-1.533.182-2.297.029-.324.055-.649.087-.973.104-1.063.219-2.123.352-3.177.001-.01.002-.02.003-.029.14-1.103.298-2.2.47-3.292.035-.223.074-.444.111-.666.141-.863.291-1.723.451-2.58.05-.269.102-.537.155-.805.168-.862.346-1.72.533-2.575.044-.202.087-.405.133-.607.492-2.184,1.046-4.345,1.664-6.48.004-.012.007-.024.011-.037.302-1.041.62-2.075.951-3.104.038-.117.076-.234.115-.352.319-.981.651-1.958.996-2.927.022-.062.044-.125.066-.187,1.467-4.096,3.17-8.079,5.083-11.941l14.694,8.567c-6.499,12.317-10.186,26.338-10.186,41.206,0,6.441.697,12.721,2.009,18.775l-15.76,4.151c-1.115-5.349-1.869-10.829-2.197-16.422-.004-.064-.009-.127-.012-.191-.051-.892-.086-1.789-.116-2.686-.005-.174-.015-.348-.02-.522-.028-.994-.042-1.991-.043-2.992,0-.037-.001-.075-.001-.112,0-.018,0-.037,0-.055,0-1.083.02-2.162.051-3.238ZM117.976,266.612c-5.554-.671-10.823-2.275-15.67-4.621l14.766-25.326,7.77,29.501c-1.6.289-3.226.5-4.875.63-.593-.047-1.188-.088-1.776-.157-.072-.008-.143-.019-.215-.027ZM165.632,217.353c0,6.313-1.198,12.347-3.357,17.906l-20.227-11.793c.481-1.435.798-2.942.927-4.505.051-.516.078-1.039.079-1.57,0-.013.002-.025.002-.038,0-.345-.034-.682-.052-1.022l22.142-5.832c.311,2.242.485,4.528.485,6.854ZM74.285,214.577c.009-.158.026-.313.036-.471.053-.796.118-1.588.209-2.373.009-.079.021-.158.03-.237.508-4.192,1.562-8.214,3.051-12.022l20.176,11.763c-.645,1.923-1.01,3.975-1.01,6.116,0,.345.034.681.052,1.022l-22.113,5.824c-.323-2.238-.514-4.519-.514-6.845,0-.932.029-1.858.082-2.777ZM135.041,232.957l21.718,12.662c-4.479,6.436-10.436,11.767-17.384,15.491l-6.992-26.549c.932-.465,1.82-1,2.658-1.604ZM140.016,206.999c-.936-1.462-2.066-2.783-3.351-3.939l12.937-22.188c5.93,5.464,10.523,12.351,13.244,20.114l-22.829,6.013ZM107.453,200.144c-.931.464-1.818.999-2.656,1.602l-21.704-12.654c4.477-6.432,10.438-11.736,17.38-15.449l6.98,26.501ZM77.031,233.707l22.788-6.002c.937,1.462,2.066,2.783,3.352,3.94l-12.919,22.159c-5.917-5.462-10.5-12.339-13.221-20.096ZM122.763,198.041l-4.254-16.152-3.509-13.322c1.639-.295,3.305-.514,4.991-.656,6.25.498,12.181,2.145,17.568,4.753l-14.796,25.377ZM207.254,187.546c-.04-.112-.078-.225-.119-.337-.402-1.108-.829-2.204-1.273-3.291-.058-.141-.115-.282-.173-.422-.451-1.086-.923-2.161-1.415-3.225-.052-.112-.104-.223-.156-.335-.517-1.104-1.053-2.197-1.614-3.276-.011-.021-.022-.042-.033-.063-7.143-13.729-17.774-25.365-30.714-33.722l9.861-16.913c19.895,14.321,34.942,34.969,42.176,58.972l-15.98,4.209c-.18-.535-.369-1.067-.559-1.597ZM89.7,132.743c-18.737,5.84-34.824,17.746-45.953,33.409l-15.078-8.792c13.013-20.565,32.504-36.616,55.579-45.317l5.452,20.699ZM32.022,245.562c6.464,19.194,19.334,35.468,36.057,46.269l-9.837,16.872c-19.892-14.318-34.955-34.932-42.188-58.935l15.968-4.206ZM153.675,300.77c.087-.031.175-.061.262-.093,1.129-.409,2.246-.844,3.353-1.297.119-.049.237-.096.356-.146,1.107-.459,2.203-.94,3.287-1.443.087-.04.174-.081.261-.122,14.001-6.542,26.024-16.634,34.895-29.119l15.099,8.803c-13.014,20.57-32.507,36.647-55.59,45.349l-5.463-20.74c1.191-.371,2.37-.772,3.54-1.192Z" fill="none" stroke="#fff" stroke-linecap="round" stroke-linejoin="round" stroke-width="20"/>
        <g>
          <g clip-path="url(#d)">
            <g filter="url(#e)">
              <g>
                <circle cx="123.818" cy="217.352" r="118.39" fill="none" stroke="#efa78e" stroke-miterlimit="10" stroke-width="11.695"/>
                <g>
                  <line x1=".145" y1="249.927" x2="247.492" y2="184.778" fill="none" stroke="#efa78e" stroke-miterlimit="10" stroke-width="7.797"/>
                  <line x1="156.393" y1="341.026" x2="91.244" y2="93.679" fill="none" stroke="#efa78e" stroke-miterlimit="10" stroke-width="7.797"/>
                  <line x1="13.334" y1="152.936" x2="234.302" y2="281.769" fill="none" stroke="#efa78e" stroke-miterlimit="10" stroke-width="7.797"/>
                  <line x1="59.402" y1="327.836" x2="188.235" y2="106.869" fill="none" stroke="#efa78e" stroke-miterlimit="10" stroke-width="7.797"/>
                </g>
                <circle cx="123.818" cy="217.352" r="69.107" fill="none" stroke="#ffd66e" stroke-miterlimit="10" stroke-width="38.984"/>
                <circle cx="123.818" cy="217.352" r="19.238" fill="#ffd66e"/>
              </g>
              <path d="M244.869,189.498l3.616-.953-1.987-7.538-3.607.95c-8.705-29.228-27.891-53.969-53.19-69.862l1.902-3.262-6.735-3.929-1.881,3.226c-17.602-9.574-37.762-15.016-59.169-15.016-9.578,0-18.892,1.126-27.853,3.187l-.953-3.618-7.538,1.987.95,3.608c-29.229,8.704-53.969,27.889-69.863,53.188l-3.263-1.903-3.929,6.738,3.226,1.881C5.023,175.786-.42,195.947-.42,217.353c0,9.578,1.126,18.891,3.187,27.852l-3.615.952,1.987,7.538,3.606-.95c8.704,29.23,27.891,53.972,53.191,69.866l-1.902,3.262,6.735,3.929,1.881-3.226c17.602,9.574,37.762,15.016,59.169,15.016,9.578,0,18.893-1.126,27.854-3.187l.952,3.614,7.538-1.987-.949-3.604c29.229-8.705,53.971-27.891,69.864-53.191l3.261,1.902,3.929-6.738-3.225-1.88c9.573-17.602,15.015-37.76,15.015-59.166,0-9.578-1.126-18.893-3.188-27.855ZM231.582,184.937l-23.155,6.099c-6.239-20.016-19.414-36.988-36.683-48.142l12.064-20.692c22.663,14.34,39.876,36.529,47.773,62.735ZM173.434,217.353c0,7.714-1.821,14.993-4.975,21.511l-26.475-15.437c.643-1.92,1.073-3.938,1.073-6.075,0-.346-.084-.669-.102-1.011l29.647-7.809c.518,2.869.831,5.807.831,8.821ZM77.03,233.707l29.636-7.806c1.085,2.17,2.546,4.094,4.332,5.702l-15.438,26.478c-8.503-5.918-15.043-14.428-18.53-24.374ZM74.203,217.353c0-7.715,1.821-14.995,4.976-21.514l26.474,15.436c-.643,1.921-1.074,3.939-1.074,6.077,0,.345.084.667.102,1.009l-29.647,7.809c-.517-2.867-.831-5.804-.831-8.817ZM123.818,198.114c-.346,0-.668.084-1.009.102l-7.809-29.648c2.867-.517,5.805-.831,8.819-.831,7.715,0,14.995,1.822,21.514,4.977l-15.436,26.475c-1.921-.643-3.941-1.075-6.079-1.075ZM115.271,200.201c-2.169,1.084-4.094,2.545-5.7,4.329l-26.478-15.438c5.918-8.502,14.427-15.04,24.372-18.528l7.806,29.637ZM117.741,235.517c1.921.643,3.94,1.074,6.077,1.074.346,0,.669-.084,1.01-.101l7.809,29.646c-2.867.517-5.805.831-8.819.831-7.714,0-14.994-1.821-21.513-4.976l15.436-26.474ZM132.367,234.503c2.17-1.084,4.094-2.545,5.7-4.33l26.478,15.438c-5.918,8.502-14.428,15.04-24.373,18.528l-7.806-29.637ZM140.969,208.804c-1.084-2.169-2.545-4.094-4.33-5.7l15.438-26.479c8.502,5.918,15.04,14.428,18.528,24.373l-29.637,7.806ZM123.819,104.81c19.261,0,37.404,4.871,53.272,13.435l-12.072,20.705c-12.317-6.5-26.332-10.198-41.2-10.198-6.442,0-12.719.709-18.774,2.021l-6.1-23.159c8.008-1.814,16.325-2.804,24.873-2.804ZM91.404,109.589l6.098,23.153c-20.016,6.239-36.987,19.414-48.142,36.683l-20.692-12.064c14.34-22.662,36.53-39.874,62.735-47.772ZM11.275,217.353c0-19.262,4.871-37.404,13.435-53.272l20.707,12.072c-6.499,12.318-10.197,26.331-10.197,41.2,0,6.441.709,12.717,2.021,18.772l-23.161,6.101c-1.814-8.007-2.804-16.324-2.804-24.872ZM16.054,249.766l23.155-6.099c6.239,20.017,19.415,36.989,36.685,48.144l-12.066,20.694c-22.664-14.34-39.877-36.531-47.774-62.739ZM123.819,329.897c-19.261,0-37.404-4.871-53.272-13.435l12.074-20.708c12.317,6.499,26.33,10.197,41.198,10.197,6.442,0,12.719-.709,18.774-2.021l6.101,23.163c-8.008,1.814-16.325,2.804-24.874,2.804ZM156.234,325.117l-6.099-23.156c20.016-6.239,36.988-19.414,48.142-36.683l20.693,12.065c-14.34,22.664-36.53,39.876-62.736,47.773ZM202.221,258.549c6.498-12.317,10.196-26.329,10.196-41.196,0-6.442-.709-12.72-2.021-18.775l23.161-6.101c1.815,8.009,2.805,16.326,2.805,24.876,0,19.261-4.87,37.401-13.433,53.269l-20.708-12.073Z" fill="#a384bb" mix-blend-mode="multiply" opacity=".5"/>
              <g>
                <circle cx="116.017" cy="217.352" r="118.39" fill="none" stroke="#efa78e" stroke-miterlimit="10" stroke-width="11.695"/>
                <g>
                  <line x1="-7.657" y1="249.927" x2="239.69" y2="184.778" fill="none" stroke="#efa78e" stroke-miterlimit="10" stroke-width="7.797"/>
                  <line x1="148.591" y1="341.026" x2="83.442" y2="93.679" fill="none" stroke="#efa78e" stroke-miterlimit="10" stroke-width="7.797"/>
                  <line x1="5.533" y1="152.936" x2="226.501" y2="281.769" fill="none" stroke="#efa78e" stroke-miterlimit="10" stroke-width="7.797"/>
                  <line x1="51.6" y1="327.836" x2="180.433" y2="106.869" fill="none" stroke="#efa78e" stroke-miterlimit="10" stroke-width="7.797"/>
                </g>
                <circle cx="116.017" cy="217.352" r="69.107" fill="none" stroke="#ffd66e" stroke-miterlimit="10" stroke-width="38.984"/>
                <circle cx="116.017" cy="217.352" r="19.238" fill="#ffd66e"/>
              </g>
            </g>
          </g>
          <g>
            <path d="M33.351,273.461S2.754,189.613-24.439,208.719c-7.692,5.404,12.488,48.428,12.488,48.428,0,0-26.861-13.047-29.008-1.841-2.146,11.207-12.478,19.931-33.142,15.799-20.664-4.133,58.318,25.055,60.155,13.331,1.837-11.724,26.102,11.087,31.534,5.421,5.432-5.665-3.982-22.305,15.764-16.396Z" fill="#9bc8ec"/>
            <path d="M22.382,261.327c.983-18.137-26.948-66.897-46.821-52.608-13.082,9.407,9.217,37.13,12.488,48.428-16.598-9.583-35.997-10.702-41.19-5.352-5.193,5.35,9.575,7.624,5.511,12.488-4.064,4.863-42.22,4.963-42.22,4.963,0,0,43.741,15.473,56.129,10.045,7.804-3.42-4.74-14.549,2.178-16.97,17.291-6.05,32.903,25.223,46.119,21.861,7.831-1.992-11.326-27.151-6.272-29.233,5.054-2.081,14.077,6.377,14.077,6.377Z" fill="#fff"/>
            <g>
              <path d="M.396,209.174c.999,1.115.482,2.587-.298,3.093-.93.604-2.166.428-2.805-.44-.673-.915-.483-2.183.433-2.867.148-.11.313-.196.464-.302,1.272-.898,1.421-.864,2.206.516Z" fill="#fff"/>
              <path d="M11.448,218.327c.696-.397,1.606-.126,1.992.594.368.685.133,1.538-.535,1.942-.706.427-1.586.194-2.002-.529-.407-.708-.165-1.602.545-2.007Z" fill="#fff"/>
              <path d="M6.603,225.745c-.653.371-1.442.173-1.767-.443-.337-.639-.091-1.509.526-1.863.635-.365,1.387-.161,1.758.478.383.659.161,1.444-.517,1.829Z" fill="#fff"/>
              <path d="M2.03,204.71c.181-.395.248-.798.415-.845.243-.068.558.121.842.2-.097.281-.122.65-.317.813-.131.108-.506-.079-.939-.168Z" fill="#fff"/>
              <path d="M11.574,214.332c-.409-.223-.809-.316-.854-.498-.06-.241.158-.551.256-.831.254.109.623.154.728.344.105.19-.056.526-.13.984Z" fill="#fff"/>
            </g>
          </g>
        </g>
      </g>
    </g>
  </g>
</svg>