<?xml version="1.0" encoding="UTF-8"?>
<svg xmlns="http://www.w3.org/2000/svg" width="300" height="300" xmlns:xlink="http://www.w3.org/1999/xlink" viewBox="0 0 300 300">
  <defs>
    <clipPath id="b">
      <path d="M126.772,270.147c-.714.568-1.284,1.023-1.977,1.575-.003-.058.007.152.018.393-3.196-.319-3.327-2.383-.098-2.884,1.266-.458,1.292-1.73,1.796-3.082-1.457.556-2.442.47-3.814.697.252.876.893.851,1.45,1.442-.481.508-1.165.591-1.771.508-.164-1.022-1.028-2.49.117-3.246,1.081-.446-.186-1.686-.567-2.013-.576.277-1.111.961-.617,1.595.308.467.508.864-.116,1.321-1.184,3.272-3.027-.469-4.858-1.096.043-.188.129-.569.249-1.096-1.736,1.039-.908-3.182-2.925-.821-1.624-1.05-2.16-4.844-4.273-4.346-.195.121-.721-.087-.862-.323-.793-2.584-3.2-3.697-4.05-6.08-.648-1.513-1.976-2.377-3.113-3.449-.105-.152-.742-.109-.861.057-.955,1.197-2.936.12-3.038-1.301-.305-.566-1.47-1.131-1.391-1.989-.993-1.138.043-1.066.753-1.648-.713-.298-.871-.891-.862-1.733.182-.805-1.666-2.151-.396-2.576,1.456-.278.308-1.173.293-2.22-.995,1.425-2.019,2.272-3.674,2.052-.749.61-1.209.199-1.709-.265-1.289-1.414-3.222.461-4.368,1.389.096-3.759-4.685.9-6.54,1.179-.045-1.293-1.546-2.313-2.535-1.037-2.249-.607-2.976-3.952-4.684-5.586-.354-1.535-2.399-1.151-2.496-2.62-.174-1.629-2.3-1.873-2.288-3.673-1.441-.59-1.123-2.543-2.161-3.441-1.784-2.289-6.496-5.151-5.755-8.104.894-.917,0-1.194-.607-1.76-.469-1.012-1.005-.044-1.776-.239,1.881-2.059-1.466-2.334,1.303-5.969.307-.896-.85-.648-1.11-.104-.689,1.234-1.677,1.063-2.634.934-.512-.549-.059-1.924-1.332-1.664-.087-.365-.174-.73-.265-1.114-1.241.3-1.93,1.597-.515,2.208-1.318,1.253-3.583,4.501-4.84,1.678-1.488.342-1.344-2.237-2.996-.947-.081-.699-.146-1.267-.22-1.908-.179.118-.405.268-.633.418-.357-.743-.386-1.794-1.555-1.625-.128-.956-.256-1.902-.401-2.984-.273.4-.459.674-.57.836-1.739-.398-2.103-2.224-3.029-3.533-.095.013-.19.027-.285.04-.063.335-.127.67-.19,1.006-.1-.005-.2-.01-.301-.014.267-3.392-2.866-4.422-3.859-7.278.268-1.007.296-1.422-.313-2.239-.385.414-.736.792-1.218,1.311-.78-.576-.39-2-1.553-1.698-.335-1.357-.028-2.349.869-3.26-.982-1.094,1.552-3.478-.432-3.648-.108.467-.211.908-.313,1.349h-.215c.026-1.112.053-2.223.084-3.524,2.431,1.178,2.282-2.245,2.499-3.943-.967.712-1.639,2.005-2.82,1.039.176.3.352.6.614,1.048-.519.131-.969.245-1.271.321-.347-1.909.465-3.139,1.711-4.501.127.086.294.199.395.268,2.901-4.637,5.805-9.825,10.004-13.792-1.101-.897-1.671-2.744-.22-3.567.661.055,1.365.339,1.709.081.63-.781,1.133-1.841-.331-2.352-.007-1.37,1.816-2.873.508-4.08-.762-.851-.499-2.634-1.967-2.737-1.541-.467-2.351.923-3.668,1.337-1.282-.241-1.534,1.02-2.196,1.866-.778-.443-1.737-.572-2.254-1.223-.354-1.428-1.427-.995-2.579-1.251.279-.295.512-.541.756-.799-1.61-.454-1.243,1.18-.684,1.971-.347.287-.659.544-1.161.959-.146-.998.719-2.27-.491-2.696-2.003-.024-2.094-3.775-4.13-2.353.013-.316.026-.622.039-.933-1.119-.022-1.15-.978-1.739-1.663-2.298-1.886-1.623-1.258-2.3-3.981-.202.134-.39.26-.632.421-.647-.984-1.563-1.132-1.856-2.568-1.328-2.881-5.346-3.058-7.079-5.386-.585.083-1.041.148-1.601.228,1.383-2.045.167-3.317.285-5.289.802-1.974,1.602-3.943,2.4-5.907l.357.032c-.084.989-.167,1.98-.27,3.197.814-.916.531-1.853.959-2.706.183.12.335.22.487.32.067-.034.134-.067.201-.101.024-1.515-1.858-.945-.615-2.467,8.097-15.249,14.395-31.292,23.079-46.174.452-.861.735-1.603,1.645-.565,1.744.56,1.811-2.35,3.56-2.194.431-.026.743-1.269.438-1.892-.072.32-.123.543-.188.83-.996.023-1.962.045-2.946.068.288-2.054,2.598-2.155,4.1-1.523,1.683-2.489,2.304-6.224,5.744-6.788-.14-.172-.266-.327-.539-.662,2.52-.59,4.58,2.546,6.67,1.905.44-.39.743-.297.818.309-.216.079-.43.157-.716.261,4.26,1.531,8.617,5.253,12.519,6.025.919,2.415,2.378-.584,3.433-1.49.519-.833,1.393-.071,2.021-.601,8.953-9.038,16.928-19.513,26.772-26.991.548-.009,1.596.235,1.946.822,1.848,1.277,2.466-3.795,6.841,1.161.667,1.147,2.425-.463,2.708,1.046.282,1.139,1.689,1.087,2.207,2.067,1.786,1.081,2.565,3.146,4.737,3.803.689.392.8.85,1.497-.017.118,1.414.309,1.516,1.399.76.079.407.154.792.229,1.178l1.123-.477c-.465,6.943,24.591-23.986,27.83-25.766,1.614.353-.188,1.261.697,2.163.504.143.961-.691,1.338-.89,1.676-.328-.022,1.919,1.229,2.224.722.181.831,1.901,1.677.962.181.363.422.654.47.981.121.87,1.498.81,1.687.114.111-.926-.632-2.356.922-2.128.695.044.417,1.093.954,1.37-.252.402-.445.71-.638,1.018.435.124.871.249,1.436.41-.455,1.116-.409,1.297.704,1.757.236,1.007,1.231,1.468,1.973,2.04.853.704,1.654,2.045,3.013,1.97-.367,1.39,1.423.545,2.121.967-1.036.973-.927,1.293.14,1.928-.026.064-.052.129-.078.193-.473-.052-.945-.105-1.599-.177.27.731,1.157.622.746,1.475-.068.73,1.223.916,1.837.424-.165.316-.264.505-.399.765.57-.039.209,1.014.965.708.422-.171.76-.545,1.101-.949-1.081.652-1.342-.397-.403-.954,1.362.035,2.055-.861,2.827-1.742,1.164-1.315,2.162-2.092,3.896-1.315.42.365.792.737,1.358.086,1.024.926,2.01,1.817,2.997,2.709.08-.067.161-.134.241-.2-.201-.332-.402-.663-.707-1.165,1.923,1.296,3.917-1.03,5.357.406.242,1.625,1.152,2.489,2.362,3.451,1.077.962.459,2.642,1.638,3.51.591.438.42,1.541,1.363.95,1.136-.803,2.064,1.302,1.41,2.168.424.081.745.143,1.018.195-.349.427-.657.804-.966,1.18.601.262-.509,1.372.736,1.339.079-.234.163-.483.242-.715.997.668,2.299,1.187,1.222,2.566.322.045.606.085.957.133-.052.234-.096.434-.112.508.399.361.738.669,1.123,1.017-.197.249-.374.474-.652.826.998-.259,1.849-.481,2.782-.723.017.314.026.498.036.679,2.534.548.472,4.428.011,6.054.081.056.162.112.243.169,1.616-1.377,2.453-3.491,3.878-5.066.083.048.165.097.248.145-.384.974-.893,1.909-1.079,2.947,1.031-.032,1.49-.808,2.019-1.568,3.259,2.237,14.631-18.5,13.479-7.991.094.03.189.059.283.089,1.094-2.144,4.509-2.623,4.519.402-.096.89.735.556,1.293.499.593-.139.81.106.812.662-.08,1.962,4.51.524,3.973,3.236,2.144-.457,1.241,2.226,2.864,2.406.605-.004,1.21.372,1.837.587-.225.485-.433.934-.678,1.461,5.02.996,1.101.777,3.501,2.933,4.404,2.295.161,6.216-.403,9.674.089.041.178.082.266.123-.185.117-.369.233-.605.382.059.154.126.329.196.511-1.449.027-.687,1.274-1.387,2.138-.349.477-.522.808.079,1.218.73.849.617,2.264.918,3.296-.073-.059-.231-.188-.271-.221-.656,1.441.088,2.991-1.8,3.481-.204.757-.278,1.634-1.183,2.076-.315-.334-.584-.62-.852-.905-.137-.009-.274-.017-.41-.026.293,2.122-.855,3.447-1.799,5.239,1.242.98,3,.811,3.902,1.869.136.202.265.614.366.604,1.437-.079,1.729,1.318,2.679,1.994.643-.661,1.245-1.281,1.864-1.918.26.187.466.335.672.483.052-.03.105-.061.157-.091l-.428-.924c1.562-3.164,1.703.665,2.812-1.18.475.196-.208,1.169.688.926.129-.035.115-.591.193-1.067,1.148-.008,1.437,1.548,2.789.384.073.773.039,1.143.215,1.756,1.685-.842,3.335-2.183,4.895-3.547,1.023-1.326,1.915-1.908,3.486-.744-.475.142-.748.223-1.02.305-.005.067-.011.135-.016.202.378.068.756.137,1.195.217.034-.181.063-.334.1-.528,1.723.228.025,1.229,1.078,1.799.134-.204.256-.391.296-.453,1.868.37,1.023-1.643.979-2.751l.204-.01c1.293,1.101,1.019,3.405,2.372,4.092.478.042.83.144,1.165.502,1.443.824.727-1.53,1.45-1.887.825-.061,1.284.754,1.73,1.415-.65,1.95,2.239,2.847,3.33,4.16-1.55-.417-2.332-.086-.804,1.442.229-.349.361-.551.594-.905.361.657.506,1.139,1.073,1.535.326-.601.054-1.047-.141-1.632.68.197,1.275.399.869,1.299.351,2.153,4.294-.792,3.39,2.185.898-.303,3.057.317,1.793,1.39-.131.095-.137.605-.006.756.169.194.628.381.795.285.865-.523,1.285.614,1.879,1.035,1.081,1.873-1.129,3.834-.969,5.528,1.202.529-.36,2.016-1.067.878-.308.414-.488.762.194.862,1.616,1.818-2.468,6.466-3.68,8.628.365-.107.59-.173.909-.267.159.618,1.012,1.706-.01,1.987-.745.554-.263,1.555-.229,2.5.289.015,1.168-.414,1.404-.381.598.516,1.12.261,1.637-.051.559-.337.696-.053.782.465.801,2.367,1.179,4.776,2.081,7.035.296,1.29.714,3.393,2.176,3.714.357.969,1.887,1.054,1.624,2.511,2.597-.272,2.122,3.134,2.166,4.769,2.929,1.423-1.903,4.927-2.06,7.046-1.368,1.049-1.719,3.218-2.761,3.844-.552.332.13,1.785-.94,1.65-.796.839-1.221,1.956-2.062,3.186,3.359.425,6.449.815,9.532,1.205.032,1.666.885.365,1.742,1.274-.463.32-.798.55-1.11.766,1.152,1.211,1.958,3.802.022,4.516-1.213-.421-.742.496-.819,1.117.542-.177.997-.326,1.52-.497.973,1.168-1.798,1.906-.43,3.306.013,5.671-9.282,6.554-2.154,13.149-.601.93.805,1.579.35,2.49-.864,1.241-.557,2.496,1.028,2.77.031-.119.095-.368.163-.633,1.014.619,2.481,4.084,2.35,5.432.203-.031.46-.071.716-.111-.01.096-.021.192-.031.288-.183.196-.365.393-.548.59.022.092.044.183.066.275.393-.066.786-.133,1.324-.224-.604.681-.237,2.147-1.186,2.219-.146-.009-.301.289-.452.446.707.611,1.519-.008,2.306-.16.039.066.079.131.118.197-3.126,4.171-9.064,6.455-10.856,11.429-.128,1.576-.41.812-1.467,1.079.511.307,1.427.88.622,1.38-.764.446.062,1.168-.253,1.875-.087.003-.174.006-.261.009-.122-.197-.243-.393-.517-.836-2.745,9.891-14.735,10.7-21.933,16.161-4.721,4.006-9.465,8.241-14.742,11.416-1.032,1.679-4.844,4.864-6.137,2.157.234-.101.458-.199.914-.396-.521-.325-.863-.539-1.347-.841.147,1.114-.969,3.195-.613,1.098-1.212-.582-.148-1.97-.78-3.19-.401.884-.706,1.557-1.011,2.231-1.428-.731-.155-3.632-1.829-3.831-.673,1.024-1.157.594-1.616-.31-.299.539-.537.97-.797,1.437-3.272-3.432-9.814,6.669-13.382,6.068-1.938.182-3.462,3.741-5.535,2.824-8.971-2.229-27.887,23.203-33.172,18.759.277-.119.533-.228,1.027-.44-.491-.356-.823-.597-1.214-.881-1.253,2.454-1.359-.662-1.252-1.807-.098-.031-.197-.062-.295-.093-.366.652-.732,1.305-1.092,1.947-1.624-.22.047-4.78-1.789-3.836-.899,1.306-.917.067-1.661-.321-.179.432-.346.837-.504,1.219-2.082-1.718-4.408.854-6.83.32-.817.38-2.702,1.194-2.44-.602.711-.752,1.476-3.949-.374-3.102-.693-1.096-.614-1.406.383-1.632-.13-1.436-.512-1.982-1.573-.714.167-2.383-1.748-3.383-1.153-5.508.157-.534-.429-1.418-.268-1.963.769-1.473-.333-2.133-.906-3.004-1.931-.74-2.614-2.2-3.516-4.067-.659.517-1.34,1.051-2.08,1.631.027-.286.049-.514.074-.772-2.134.455-.86,2.028-2.308,3.424-.48-2.06,1.266-3.471,1.159-5.483-7.491,8.85-14.265,20.34-21.905,27.933ZM281.647,165.413c.861.91-.177,1.368.871,1.808.243-.854,1.473-1.293.613-2.462l-.624.31-.413-.196c.221-.269.443-.537.662-.803-1.404-1.639-1.201.322-1.109,1.344ZM33.541,183.748c-.44.598-.881,1.197-1.321,1.794.416.232.892.496,1.372.764.972-1.015.967-1.809-.051-2.558ZM282.421,173.251c-.222-.095-.444-.189-.666-.284.342-.493.685-.986.992-1.43-.25-.17-.55-.375-.848-.578q-.56.478.02,1.052c-.282.189-.563.377-.843.564-.009.121-.018.242-.026.363.457.104.914.208,1.372.313ZM280.446,162.308c-.318.619-.555,1.08-.89,1.733,1.061-.275,2.309-1.141.89-1.733ZM230.913,89.214c-.07.023-.14.046-.21.069-.088.634-.176,1.268-.273,1.965l.902-.413c-.137-.532-.278-1.077-.419-1.622ZM179.677,43.765c-.848.503-.866.792-.101,1.425.035-.491.064-.905.101-1.425ZM38.809,78.717c.649.155,1.027.174,1.063-.485-.428-.544-.687.017-1.063.485ZM31.936,191.013c-.467.934-.379,1.117.477,1.239-.178-.463-.328-.851-.477-1.239ZM281.27,169.697c.154.012.308.025.462.037.005-.409.011-.818.016-1.226-.12-.01-.24-.02-.36-.03-.039.406-.079.812-.118,1.218ZM76.359,239.142c-.032.385-.064.77-.106,1.275.927-.494.838-.89.106-1.275Z" fill="none"/>
    </clipPath>
    <linearGradient id="c" data-name="Dégradé sans nom 13" x1="148.843" y1="67.007" x2="148.843" y2="252.017" gradientUnits="userSpaceOnUse">
      <stop offset="0" stop-color="#ffd66e"/>
      <stop offset="1" stop-color="#e86170"/>
    </linearGradient>
    <clipPath id="d">
      <path d="M-308.262-96.035v382.338c5.591,1.035,11.753,1.613,18.236,1.613,15.015,0,28.313-3.085,36.727-7.838.407-.018.814-.036,1.222-.054,4.534,4.784,11.726,7.892,19.852,7.892s15.324-3.111,19.857-7.898c5.785,4.787,14.967,7.898,25.342,7.898,8.549,0,16.292-2.112,21.995-5.531,6.661,3.419,15.704,5.531,25.689,5.531,8.605,0,16.503-1.576,22.791-4.195,1.547,2.619,3.49,4.195,5.607,4.195,2.085,0,4.001-1.532,5.536-4.082,6.242,2.55,14.029,4.082,22.506,4.082,11.085,0,21.005-2.605,27.792-6.713,5.811,4.107,14.305,6.713,23.796,6.713,8.805,0,16.768-2.234,22.514-5.835,6.711,3.601,16.01,5.835,26.294,5.835.455,0,.885-.049,1.333-.061.912.023,1.814.061,2.74.061,15.015,0,28.313-3.085,36.727-7.838.407-.018.814-.036,1.222-.054,4.534,4.784,11.726,7.892,19.852,7.892s15.324-3.111,19.857-7.898c5.785,4.787,14.967,7.898,25.342,7.898,8.549,0,16.292-2.112,21.995-5.531,6.661,3.419,15.704,5.531,25.689,5.531,8.605,0,16.503-1.576,22.791-4.195,1.547,2.619,3.49,4.195,5.607,4.195,2.085,0,4.001-1.532,5.536-4.082,6.242,2.55,14.029,4.082,22.506,4.082,11.085,0,21.005-2.605,27.792-6.713,5.811,4.107,14.305,6.713,23.796,6.713,8.805,0,16.768-2.234,22.514-5.835,6.711,3.601,16.01,5.835,26.294,5.835,1.84,0,3.628-.107,5.395-.246V-96.035H-308.262Z" fill="none"/>
    </clipPath>
    <clipPath id="e">
      <path d="M-308.262-96.035v382.338c5.591,1.035,11.753,1.613,18.236,1.613,15.015,0,28.313-3.085,36.727-7.838.407-.018.814-.036,1.222-.054,4.534,4.784,11.726,7.892,19.852,7.892s15.324-3.111,19.857-7.898c5.785,4.787,14.967,7.898,25.342,7.898,8.549,0,16.292-2.112,21.995-5.531,6.661,3.419,15.704,5.531,25.689,5.531,8.605,0,16.503-1.576,22.791-4.195,1.547,2.619,3.49,4.195,5.607,4.195,2.085,0,4.001-1.532,5.536-4.082,6.242,2.55,14.029,4.082,22.506,4.082,11.085,0,21.005-2.605,27.792-6.713,5.811,4.107,14.305,6.713,23.796,6.713,8.805,0,16.768-2.234,22.514-5.835,6.711,3.601,16.01,5.835,26.294,5.835.455,0,.885-.049,1.333-.061.912.023,1.814.061,2.74.061,15.015,0,28.313-3.085,36.727-7.838.407-.018.814-.036,1.222-.054,4.534,4.784,11.726,7.892,19.852,7.892s15.324-3.111,19.857-7.898c5.785,4.787,14.967,7.898,25.342,7.898,8.549,0,16.292-2.112,21.995-5.531,6.661,3.419,15.704,5.531,25.689,5.531,8.605,0,16.503-1.576,22.791-4.195,1.547,2.619,3.49,4.195,5.607,4.195,2.085,0,4.001-1.532,5.536-4.082,6.242,2.55,14.029,4.082,22.506,4.082,11.085,0,21.005-2.605,27.792-6.713,5.811,4.107,14.305,6.713,23.796,6.713,8.805,0,16.768-2.234,22.514-5.835,6.711,3.601,16.01,5.835,26.294,5.835,1.84,0,3.628-.107,5.395-.246V-96.035H-308.262Z" fill="none"/>
    </clipPath>
    <filter id="f" data-name="drop-shadow-4" x="-276.52" y="106.876" width="500.871" height="190.014" filterUnits="userSpaceOnUse">
      <feOffset dx="-6" dy="0"/>
      <feGaussianBlur result="g" stdDeviation="0"/>
      <feFlood flood-color="#42496f" flood-opacity="1"/>
      <feComposite in2="g" operator="in"/>
      <feComposite in="SourceGraphic"/>
    </filter>
    <clipPath id="h">
      <path d="M-216.435,141.306H218.486s-20.641,155.493-155.493,155.493h-247.165l-32.263-155.493Z" fill="none"/>
    </clipPath>
    <clipPath id="i">
      <circle cx="90.447" cy="148.012" r="33.854" fill="none"/>
    </clipPath>
  </defs>
  <g isolation="isolate">
    <g id="a" data-name="bateau 01">
      <g clip-path="url(#b)">
        <rect x="5.286" y="7.067" width="287.116" height="269.478" fill="url(#c)"/>
        <g clip-path="url(#d)">
          <path d="M178.758,242.86c-.299-.106-.625-.178-.963-.234,44.094-56.136,46.555-135.75,46.555-135.75h-14.658s-.475,12.065-3.649,30.119h-75.965c-4.818-17.367-20.73-30.119-39.631-30.119s-34.814,12.752-39.631,30.119H4.774C-.044,119.629-15.957,106.876-34.858,106.876s-34.814,12.752-39.631,30.119h-46.042c-4.818-17.367-20.73-30.119-39.631-30.119s-34.814,12.752-39.631,30.119h-12.062l-5.171-24.788h-9.627l15.817,80.878-.085,1.325-.415,6.468h0s-1.555,24.249-1.555,24.249c-.321,5.004-2.906,9.589-7.023,12.452l-5.817,4.047c-4.395,3.057-7.266,7.854-7.884,13.172l-4.884,42H68.775s17.834,1.392,40.982-6.731c.307-.094.614-.187.919-.283-4.341,3.578-7.056,5.932-7.056,5.932l41.983,13.133s3.869-5.171,8.651-12.319l.853.267s13.716-18.328,21.416-33.687l.521,1.691c1.822-2.908,2.834-6.299,2.99-9.725,2.196-6.171,2.394-10.915-1.276-12.218Z" fill="none" stroke="#fff" stroke-linecap="round" stroke-linejoin="round" stroke-width="20"/>
        </g>
        <g>
          <g clip-path="url(#e)">
            <g>
              <path d="M155.107,296.799s36.861-49.252,23.652-53.939c-13.209-4.687-65.635,40.806-65.635,40.806l41.983,13.133Z" fill="#fff"/>
              <path d="M145.603,308.851s36.861-49.252,23.652-53.939c-13.209-4.687-65.635,40.806-65.635,40.806l41.983,13.133Z" fill="#9bc8ec"/>
              <g>
                <path d="M159.963,268.588c-.992-.981-.593-2.379.105-2.894.831-.613,1.99-.519,2.633.253.677.814.571,2.003-.243,2.69-.131.111-.28.199-.414.307-1.133.906-1.274.883-2.08-.357Z" fill="#fff"/>
                <path d="M189.07,261.663c-.766.542-1.819.369-2.383-.392-.593-.8-.414-1.883.402-2.432.77-.517,1.844-.318,2.383.443.538.758.353,1.847-.403,2.382Z" fill="#fff"/>
                <path d="M171.737,250.514c-.646.45-1.316.294-1.848-.432-.513-.699-.373-1.653.311-2.131.665-.464,1.574-.289,2.044.394.493.716.281,1.619-.507,2.168Z" fill="#fff"/>
                <path d="M161.616,247.18c.675-.449,1.536-.284,1.968.377.428.655.24,1.53-.422,1.971-.716.477-1.631.333-2.061-.326-.433-.663-.209-1.54.515-2.022Z" fill="#fff"/>
                <path d="M171.427,265.565c-.642.451-1.546.304-1.999-.326-.46-.639-.306-1.533.343-1.986.659-.46,1.524-.316,1.99.331.47.653.324,1.518-.334,1.981Z" fill="#fff"/>
                <path d="M149.175,260.692c-.625.408-1.487.206-1.886-.441-.38-.616-.209-1.423.389-1.836.633-.436,1.464-.269,1.891.38.418.635.242,1.481-.395,1.897Z" fill="#fff"/>
                <path d="M191.207,252.5c.4.621.239,1.404-.377,1.823-.641.436-1.47.264-1.886-.391-.394-.621-.229-1.421.376-1.831.639-.433,1.463-.259,1.887.398Z" fill="#fff"/>
                <path d="M153.267,253.523c.587-.382,1.331-.242,1.668.314.349.575.169,1.398-.385,1.762-.57.375-1.281.227-1.661-.346-.393-.592-.23-1.334.379-1.73Z" fill="#fff"/>
                <path d="M189.567,268.322c-.166.111-.321.242-.498.33-.546.272-1.021.163-1.313-.377-.295-.547-.093-1.003.419-1.304.268-.157.586-.228.859-.378.502-.276.953-.262,1.262.247.315.519.086.923-.387,1.223-.12.076-.237.159-.355.238.005.007.009.013.014.02Z" fill="#fff"/>
                <path d="M172.216,240.527c.551-.392,1.315-.284,1.682.239.372.53.205,1.377-.346,1.759-.519.36-1.328.203-1.675-.326-.357-.544-.207-1.284.339-1.673Z" fill="#fff"/>
                <path d="M173.26,282.884c.44.604.39,1.295-.12,1.692-.48.373-1.237.253-1.614-.256-.379-.512-.163-1.773.364-2.123.416-.277.814-.077,1.371.687Z" fill="#fff"/>
                <path d="M164.228,280.154c.562-.358,1.317-.188,1.652.405.35.619.228,1.176-.343,1.597-.548.405-1.283.242-1.659-.336-.373-.573-.219-1.303.35-1.666Z" fill="#fff"/>
                <path d="M183.621,280.605c-.546.335-1.326.137-1.672-.425-.353-.571-.199-1.236.366-1.576.572-.345,1.325-.167,1.667.395.325.534.155,1.29-.361,1.606Z" fill="#fff"/>
                <path d="M181.819,263.546c.349.517.219,1.262-.284,1.619-.527.375-1.306.206-1.662-.36-.337-.536-.183-1.265.339-1.601.517-.333,1.257-.175,1.606.341Z" fill="#fff"/>
                <path d="M169.354,272.557c-.246-.495-.184-.995.341-1.373.481-.346,1.233-.2,1.518.3.314.552.199,1.065-.301,1.447-.464.353-1.2.184-1.558-.374Z" fill="#fff"/>
                <path d="M182.924,250.061c.154-.433.197-.976.49-1.272.436-.441.994-.241,1.337.238.354.494.28,1.092-.232,1.353-.362.185-.901.025-1.361.019l-.233-.339Z" fill="#fff"/>
                <path d="M167.2,256.666c-.179.683-.197,1.144-.429,1.438-.092.116-.782-.031-.979-.254-.348-.394-.241-.898.275-1.14.229-.107.544-.03,1.133-.044Z" fill="#fff"/>
                <path d="M174.735,248.373c.553.224,1,.269,1.116.489.123.233-.068.632-.123.959-.325-.065-.769-.027-.94-.225-.164-.189-.044-.624-.054-1.223Z" fill="#fff"/>
                <path d="M181.114,256.41c-.514-.204-.924-.242-1.037-.445-.118-.213.049-.584.092-.886.322.057.734.017.935.204.148.138.02.573.01,1.128Z" fill="#fff"/>
                <path d="M194.729,268.785c-.546-.221-.974-.265-1.067-.466-.104-.223.013-.669.198-.861.108-.113.655-.011.786.161.15.197.058.579.083,1.165Z" fill="#fff"/>
                <path d="M180.836,267.79c-.225.517-.278.928-.48,1.024-.219.104-.578-.085-.875-.146.063-.3.033-.708.218-.868.168-.145.569-.021,1.137-.01Z" fill="#fff"/>
                <path d="M176.927,271.949c-.171.474-.196.856-.376.954-.191.104-.653.024-.767-.137-.115-.162-.036-.622.124-.77.15-.138.52-.038,1.019-.047Z" fill="#fff"/>
                <path d="M180.324,244.727c-.182.471-.214.827-.4.95-.162.106-.661.021-.72-.11-.101-.226-.072-.644.085-.809.131-.138.522-.029,1.035-.03Z" fill="#fff"/>
                <path d="M184.375,247.169c.193-.476.232-.858.417-.952.204-.104.542.057.821.103-.056.277-.025.652-.194.803-.156.139-.527.038-1.043.047Z" fill="#fff"/>
                <path d="M158.693,272.831c-.146.377-.186.756-.338.809-.222.077-.525-.081-.794-.14.075-.267.077-.612.25-.773.115-.108.475.045.883.104Z" fill="#fff"/>
                <path d="M149.281,264.415c.393.185.77.249.822.415.069.221-.116.521-.192.787-.242-.087-.588-.108-.696-.28-.108-.171.023-.492.066-.923Z" fill="#fff"/>
                <path d="M177.958,254.646c-.379-.125-.721-.141-.784-.282-.091-.203.02-.497.045-.752.247.062.559.055.719.208.113.109.021.432.02.826Z" fill="#fff"/>
                <path d="M172.073,256.44c-.365-.128-.646-.15-.779-.301-.082-.093.02-.528.115-.557.199-.06.498-.015.658.11.097.076.012.385.006.748Z" fill="#fff"/>
              </g>
            </g>
            <g filter="url(#f)">
              <g>
                <path d="M-216.435,141.306H218.486s-20.641,155.493-155.493,155.493h-247.165l-32.263-155.493Z" fill="#ffd66e"/>
                <g mix-blend-mode="multiply" opacity=".5">
                  <g clip-path="url(#h)">
                    <g>
                      <line x1="-204.179" y1="159.355" x2="186.575" y2="159.355" fill="none" stroke="#a384bb" stroke-linecap="round" stroke-linejoin="round" stroke-width="1.803"/>
                      <line x1="-197.665" y1="177.403" x2="203.468" y2="177.403" fill="none" stroke="#a384bb" stroke-linecap="round" stroke-linejoin="round" stroke-width="1.803"/>
                      <line x1="-191.15" y1="195.452" x2="195.266" y2="195.452" fill="none" stroke="#a384bb" stroke-linecap="round" stroke-linejoin="round" stroke-width="1.803"/>
                      <line x1="-226.653" y1="213.501" x2="174.479" y2="213.501" fill="none" stroke="#a384bb" stroke-linecap="round" stroke-linejoin="round" stroke-width="1.803"/>
                      <line x1="-188.69" y1="231.55" x2="212.442" y2="231.55" fill="none" stroke="#a384bb" stroke-linecap="round" stroke-linejoin="round" stroke-width="1.803"/>
                      <line x1="-184.635" y1="249.599" x2="170.254" y2="249.599" fill="none" stroke="#a384bb" stroke-linecap="round" stroke-linejoin="round" stroke-width="1.803"/>
                      <line x1="-269.619" y1="267.648" x2="131.514" y2="267.648" fill="none" stroke="#a384bb" stroke-linecap="round" stroke-linejoin="round" stroke-width="1.803"/>
                      <line x1="-184.635" y1="285.696" x2="115.11" y2="285.696" fill="none" stroke="#a384bb" stroke-linecap="round" stroke-linejoin="round" stroke-width="1.803"/>
                    </g>
                  </g>
                </g>
                <path d="M68.775,296.799s94.973,7.451,131.114-111.896c0,0-275.115,29.977-401.186,34.74l17.125,77.156H68.775Z" fill="#a384bb" mix-blend-mode="multiply" opacity=".25"/>
                <rect x="-216.435" y="136.996" width="429.491" height="10.086" fill="#f4af13"/>
                <path d="M62.41,296.799c156.077,0,161.941-189.922,161.941-189.922h-14.658s-6.98,177.995-147.282,189.922Z" fill="#f4af13"/>
              </g>
              <g>
                <circle cx="-34.858" cy="152.37" r="41.135" fill="#42496f"/>
                <circle cx="-34.858" cy="148.012" r="41.135" fill="#6498d1"/>
              </g>
              <g>
                <circle cx="90.447" cy="152.37" r="41.135" fill="#42496f"/>
                <circle cx="90.447" cy="148.012" r="41.135" fill="#6498d1"/>
                <circle cx="90.447" cy="148.012" r="33.854" fill="#ffd66e"/>
                <rect x="87.082" y="144.647" width="6.729" height="6.729" rx="1.082" ry="1.082" transform="translate(-78.167 107.299) rotate(-44.997)" fill="#b1ddea"/>
                <g mix-blend-mode="multiply" opacity=".5">
                  <g clip-path="url(#i)">
                    <g>
                      <line x1="64.791" y1="121.451" x2="64.791" y2="167.489" fill="none" stroke="#a384bb" stroke-linecap="round" stroke-linejoin="round" stroke-width="1.803"/>
                      <line x1="81.895" y1="113.136" x2="81.895" y2="183.713" fill="none" stroke="#a384bb" stroke-linecap="round" stroke-linejoin="round" stroke-width="1.803"/>
                      <line x1="98.998" y1="183.713" x2="98.998" y2="119.626" fill="none" stroke="#a384bb" stroke-linecap="round" stroke-linejoin="round" stroke-width="1.803"/>
                      <line x1="116.102" y1="122.263" x2="116.102" y2="165.866" fill="none" stroke="#a384bb" stroke-linecap="round" stroke-linejoin="round" stroke-width="1.803"/>
                    </g>
                  </g>
                </g>
              </g>
            </g>
          </g>
          <g>
            <path d="M129.675,293.671s-28.306-77.568-53.462-59.894c-7.116,4.999,11.552,44.802,11.552,44.802,0,0-24.849-12.07-26.835-1.703-1.986,10.367-11.544,18.439-30.66,14.615-19.116-3.823,53.95,23.179,55.65,12.333,1.699-10.846,24.147,10.256,29.172,5.015,5.025-5.241-3.684-20.635,14.583-15.168Z" fill="#9bc8ec"/>
            <path d="M119.527,282.446c.91-16.778-24.93-61.887-43.314-48.668-12.102,8.702,8.527,34.349,11.552,44.802-15.355-8.865-33.301-9.9-38.105-4.951-4.804,4.949,8.858,7.053,5.098,11.552-3.76,4.499-39.058,4.591-39.058,4.591,0,0,40.465,14.314,51.925,9.293,7.22-3.163-4.385-13.459,2.015-15.699,15.996-5.597,30.439,23.334,42.665,20.224,7.245-1.843-10.478-25.118-5.802-27.043,4.676-1.925,13.023,5.9,13.023,5.9Z" fill="#fff"/>
            <g>
              <g>
                <path d="M28.314,290.649c.822,2.099-.683,3.902-2.05,4.205-1.629.361-3.28-.537-3.723-2.099-.467-1.645.469-3.333,2.122-3.814.266-.077.545-.111.813-.182,2.268-.596,2.46-.47,2.838,1.89Z" fill="#fff"/>
                <path d="M9.403,287.601c1.244-.245,2.482.564,2.739,1.791.261,1.245-.553,2.464-1.808,2.708-1.275.248-2.458-.532-2.722-1.793-.267-1.272.516-2.455,1.791-2.706Z" fill="#fff"/>
                <path d="M18.044,260.822c-.254-1.18.272-2.168,1.286-2.42.954-.237,1.994.437,2.217,1.436.224,1.005-.921,2.725-1.928,2.898-.796.136-1.253-.42-1.574-1.914Z" fill="#fff"/>
                <path d="M29.595,270.773c-1.065.161-2.068-.585-2.175-1.68-.112-1.144.434-1.886,1.553-2.135,1.074-.238,2.053.484,2.23,1.583.175,1.09-.53,2.069-1.608,2.232Z" fill="#fff"/>
                <path d="M1.248,257.398c1.026-.136,2.047.667,2.191,1.723.146,1.075-.516,1.955-1.573,2.089-1.071.135-2.066-.622-2.204-1.676-.13-1.001.616-2.006,1.586-2.135Z" fill="#fff"/>
                <path d="M17.046,278.633c.04.892-.381,1.591-1.404,1.804-.937.195-1.952-.512-2.045-1.438-.102-1.021.404-1.704,1.393-1.939.916-.218,1.893.515,2.056,1.573Z" fill="#fff"/>
                <path d="M5.463,274.569c.563-.587.851-1.136,1.181-1.162.349-.028.98.392,1.043.705.063.314-.354.943-.688,1.055-.313.106-.793-.284-1.535-.598Z" fill="#fff"/>
                <path d="M32.97,285.215c.463-.462.77-.995,1.03-.973.378.033.722.465,1.081.726-.285.345-.514.853-.876.978-.241.084-.671-.377-1.235-.732Z" fill="#fff"/>
              </g>
              <g>
                <path d="M69.439,262.472c1.752.674,2.014,2.613,1.432,3.623-.694,1.205-2.173,1.714-3.382,1.109-1.274-.638-1.785-2.161-1.152-3.448.102-.207.238-.397.345-.602.908-1.729,1.094-1.776,2.757-.683Z" fill="#fff"/>
                <path d="M37.294,286.716c.652-1.082,2.044-1.436,3.15-.802,1.163.667,1.526,2.099.816,3.215-.67,1.053-2.102,1.387-3.177.74-1.072-.644-1.432-2.086-.789-3.153Z" fill="#fff"/>
                <path d="M64.678,291.107c.553-.903,1.464-1.072,2.512-.465,1.009.584,1.352,1.837.766,2.795-.569.931-1.785,1.205-2.733.617-.994-.616-1.22-1.843-.545-2.947Z" fill="#fff"/>
                <path d="M78.953,289.756c-.59.918-1.74,1.179-2.629.597-.88-.576-1.122-1.756-.543-2.658.625-.975,1.831-1.29,2.717-.71.891.583,1.089,1.786.456,2.77Z" fill="#fff"/>
                <path d="M56.938,272.385c.548-.902,1.742-1.208,2.64-.677.912.539,1.204,1.725.649,2.633-.564.923-1.708,1.212-2.632.666-.932-.551-1.219-1.697-.657-2.622Z" fill="#fff"/>
                <path d="M87,266.385c.55-.84,1.721-1.057,2.563-.474.801.555,1.026,1.642.511,2.473-.545.879-1.66,1.122-2.537.552-.859-.558-1.098-1.695-.537-2.551Z" fill="#fff"/>
                <path d="M39.605,299.165c-.829-.55-1.052-1.602-.519-2.451.554-.884,1.67-1.119,2.536-.536.82.553,1.05,1.628.525,2.459-.554.879-1.664,1.109-2.541.528Z" fill="#fff"/>
                <path d="M85.824,277.431c-.517.787-1.511,1.016-2.226.513-.741-.521-.963-1.632-.476-2.381.501-.77,1.457-.971,2.235-.47.804.518,1.004,1.52.467,2.337Z" fill="#fff"/>
                <path d="M33.089,278.775c.144-.227.265-.472.436-.676.527-.63,1.171-.752,1.822-.243.659.515.656,1.186.187,1.834-.245.339-.599.597-.855.929-.47.611-1.033.837-1.689.376-.668-.47-.605-1.091-.183-1.716.107-.159.207-.324.31-.486-.009-.006-.018-.012-.028-.017Z" fill="#fff"/>
                <path d="M45.333,252.024c-.868-.507-1.18-1.386-.765-2.151.391-.719,1.389-.98,2.128-.556.744.427,1.158,2.098.698,2.814-.363.566-.963.534-2.061-.108Z" fill="#fff"/>
                <path d="M57.941,250.516c-.5.745-1.522.942-2.255.393-.766-.574-.916-1.327-.44-2.154.457-.795,1.451-.99,2.226-.481.769.505.974,1.488.468,2.243Z" fill="#fff"/>
                <path d="M33.79,260.424c.493-.707,1.56-.884,2.29-.379.743.514.912,1.416.4,2.141-.519.735-1.543.921-2.269.412-.688-.482-.887-1.506-.421-2.175Z" fill="#fff"/>
                <path d="M45.217,280.482c-.709-.448-.95-1.438-.524-2.149.447-.747,1.498-.959,2.243-.453.705.479.908,1.461.446,2.156-.458.689-1.455.894-2.164.446Z" fill="#fff"/>
                <path d="M55.721,262.647c.571.477.764,1.128.32,1.877-.406.685-1.412.912-2.034.449-.685-.511-.82-1.206-.409-1.946.381-.686,1.381-.874,2.123-.38Z" fill="#fff"/>
                <path d="M51.132,297.702c.043.617.284,1.309.083,1.832-.3.779-1.095.833-1.776.428-.703-.418-.934-1.195-.444-1.794.346-.424,1.097-.517,1.667-.758l.471.291Z" fill="#fff"/>
                <path d="M66.952,281.075c-.147-.939-.374-1.517-.247-2.003.05-.193.981-.384,1.344-.216.642.297.781.978.276,1.554-.224.256-.655.331-1.373.665Z" fill="#fff"/>
                <path d="M62.137,295.364c-.803.022-1.378.208-1.64,0-.277-.221-.257-.816-.366-1.248.435-.095.962-.382,1.28-.231.304.145.391.745.726,1.479Z" fill="#fff"/>
                <path d="M49.936,288.898c.744-.026,1.27-.2,1.519-.011.261.199.255.747.365,1.142-.428.103-.914.376-1.263.254-.257-.09-.333-.695-.621-1.386Z" fill="#fff"/>
                <path d="M26.475,280.989c.792-.023,1.344-.199,1.567-.002.248.219.345.832.221,1.167-.073.197-.802.367-1.056.226-.291-.162-.384-.682-.732-1.391Z" fill="#fff"/>
                <path d="M44.138,274.719c-.002-.759-.158-1.294.039-1.522.214-.247.758-.207,1.158-.292.084.404.341.891.2,1.188-.129.27-.691.333-1.396.626Z" fill="#fff"/>
                <path d="M46.713,267.483c-.044-.676-.22-1.161-.051-1.379.179-.231.791-.382,1.019-.245.229.138.381.747.262,1.016-.111.252-.62.328-1.23.608Z" fill="#fff"/>
                <path d="M68.716,256.557c-.023-.544-.179-1.033-.019-1.18.233-.214.692-.183,1.054-.256.052.369.235.796.109,1.088-.084.195-.609.201-1.144.348Z" fill="#fff"/>
                <path d="M84.86,261.853c-.584-.016-1.084.109-1.238-.068-.204-.235-.138-.705-.188-1.074.345-.023.783-.184,1.009-.031.225.152.238.619.416,1.173Z" fill="#fff"/>
                <path d="M54.779,289.37c.534-.05.965-.215,1.119-.076.222.201.243.624.35.952-.338.057-.719.234-.999.131-.198-.073-.259-.521-.47-1.008Z" fill="#fff"/>
                <path d="M61.066,283.984c.52-.039.877-.164,1.123-.049.151.071.261.662.159.749-.213.181-.606.288-.871.219-.161-.042-.222-.469-.411-.919Z" fill="#fff"/>
              </g>
              <g>
                <path d="M105.756,251.74c-.651,2.403-3.172,3.013-4.585,2.383-1.683-.751-2.557-2.634-1.923-4.311.668-1.767,2.608-2.649,4.391-1.989.287.106.556.26.841.373,2.404.962,2.491,1.201,1.276,3.543Z" fill="#fff"/>
                <path d="M69.402,212.637c1.516.713,2.173,2.5,1.487,4.046-.721,1.625-2.561,2.299-4.13,1.514-1.48-.74-2.116-2.584-1.409-4.09.704-1.501,2.557-2.173,4.052-1.47Z" fill="#fff"/>
                <path d="M67.337,249.357c1.267.607,1.613,1.785.956,3.25-.634,1.411-2.239,2.034-3.583,1.391-1.305-.625-1.833-2.19-1.186-3.521.678-1.395,2.266-1.861,3.813-1.119Z" fill="#fff"/>
                <path d="M71.061,268.003c-1.291-.654-1.792-2.135-1.146-3.387.641-1.24,2.164-1.718,3.432-1.078,1.371.692,1.951,2.24,1.307,3.487-.648,1.255-2.207,1.679-3.593.978Z" fill="#fff"/>
                <path d="M90.98,236.599c1.265.601,1.831,2.133,1.253,3.391-.587,1.276-2.111,1.823-3.385,1.214-1.294-.619-1.831-2.088-1.236-3.381.6-1.304,2.072-1.839,3.369-1.223Z" fill="#fff"/>
                <path d="M102.985,275.437c1.183.612,1.628,2.127.974,3.316-.623,1.132-2.026,1.577-3.193,1.01-1.234-.599-1.705-2.037-1.074-3.271.619-1.209,2.086-1.679,3.292-1.055Z" fill="#fff"/>
                <path d="M53.295,217.379c.612-1.168,1.971-1.606,3.163-1.019,1.241.611,1.704,2.05,1.052,3.272-.618,1.157-2.004,1.606-3.173,1.027-1.235-.612-1.69-2.044-1.042-3.28Z" fill="#fff"/>
                <path d="M88.254,275.389c-1.109-.575-1.546-1.855-.98-2.866.586-1.048,2.022-1.492,3.076-.952,1.084.556,1.479,1.79.924,2.884-.573,1.13-1.868,1.531-3.019.934Z" fill="#fff"/>
                <path d="M79.305,206.009c.319.159.659.286.951.483.903.609,1.151,1.443.569,2.37-.59.94-1.475,1.026-2.394.496-.48-.277-.869-.709-1.342-1.001-.87-.536-1.244-1.249-.726-2.177.529-.945,1.357-.946,2.239-.475.225.12.455.228.683.342.006-.013.013-.026.019-.039Z" fill="#fff"/>
                <path d="M51.409,257.397c-1.094-.51-1.597-1.792-1.108-2.822.495-1.043,1.957-1.53,3.036-1.01,1.016.489,1.483,1.883.968,2.888-.53,1.033-1.811,1.451-2.896.945Z" fill="#fff"/>
                <path d="M116.258,218.52c.551-1.213,1.667-1.745,2.733-1.301,1.002.417,1.482,1.699,1.023,2.732-.462,1.039-2.609,1.813-3.617,1.303-.796-.403-.836-1.197-.138-2.734Z" fill="#fff"/>
                <path d="M119.964,234.946c-1.051-.558-1.45-1.879-.825-2.921.653-1.088,1.625-1.389,2.781-.873,1.11.495,1.504,1.779.938,2.871-.561,1.082-1.831,1.487-2.894.923Z" fill="#fff"/>
                <path d="M103.607,204.436c1,.554,1.378,1.938.811,2.969-.577,1.05-1.744,1.395-2.769.819-1.039-.584-1.425-1.911-.853-2.937.543-.974,1.866-1.375,2.811-.852Z" fill="#fff"/>
                <path d="M78.704,222.24c.495-.996,1.767-1.449,2.763-.984,1.046.489,1.469,1.846.903,2.897-.535.995-1.804,1.396-2.783.881-.971-.51-1.378-1.798-.883-2.794Z" fill="#fff"/>
                <path d="M103.659,233.668c-.552.818-1.384,1.161-2.432.678-.96-.443-1.396-1.738-.869-2.622.58-.973,1.479-1.246,2.511-.805.956.409,1.341,1.702.79,2.748Z" fill="#fff"/>
                <path d="M56.794,232.386c-.807.141-1.688.552-2.405.358-1.069-.289-1.248-1.331-.807-2.285.455-.984,1.449-1.394,2.306-.83.606.399.831,1.377,1.226,2.096l-.32.66Z" fill="#fff"/>
                <path d="M80.879,250.99c1.218-.322,1.95-.7,2.609-.599.261.04.64,1.242.468,1.744-.305.887-1.183,1.164-2.013.576-.368-.261-.525-.819-1.064-1.721Z" fill="#fff"/>
                <path d="M61.376,246.585c-.139-1.056-.462-1.79-.223-2.163.254-.396,1.042-.45,1.596-.653.185.561.635,1.217.478,1.657-.149.421-.929.617-1.852,1.159Z" fill="#fff"/>
                <path d="M68.244,229.61c.136.977.437,1.648.221,2.002-.227.371-.951.438-1.457.637-.194-.55-.62-1.155-.507-1.631.084-.351.872-.534,1.743-1.008Z" fill="#fff"/>
                <path d="M75.484,197.587c.138,1.042.445,1.746.216,2.066-.255.357-1.05.568-1.51.45-.27-.069-.594-1.008-.442-1.362.174-.407.848-.599,1.736-1.155Z" fill="#fff"/>
                <path d="M86.159,220.032c1.001-.105,1.685-.385,2.013-.155.354.248.376.971.543,1.487-.522.165-1.129.571-1.539.425-.373-.133-.533-.866-1.016-1.757Z" fill="#fff"/>
                <path d="M96.054,222.445c.886-.151,1.502-.448,1.812-.255.328.205.612.992.462,1.311-.151.32-.934.604-1.305.484-.347-.112-.516-.773-.969-1.54Z" fill="#fff"/>
                <path d="M50.798,241.114c.892-.131,1.473-.395,1.827-.214.307.157.614,1.008.462,1.215-.262.355-.937.678-1.331.58-.329-.082-.504-.785-.957-1.581Z" fill="#fff"/>
                <path d="M51.026,232.675c-.909.119-1.536.395-1.845.19-.34-.225-.388-.891-.563-1.366.48-.156,1.035-.534,1.417-.404.354.12.522.785.99,1.579Z" fill="#fff"/>
                <path d="M113.461,249.981c.715-.105,1.338-.376,1.553-.186.314.278.336.887.482,1.356-.48.119-1.017.419-1.421.292-.269-.084-.347-.776-.615-1.462Z" fill="#fff"/>
                <path d="M108.672,271.998c-.058-.772-.291-1.415-.079-1.642.282-.301.911-.278,1.391-.394.078.452.349,1.008.179,1.327-.17.318-.784.398-1.491.709Z" fill="#fff"/>
                <path d="M68.281,236.062c.139.698.415,1.243.252,1.466-.235.32-.79.406-1.208.591-.122-.438-.406-.917-.309-1.3.069-.272.653-.413,1.266-.758Z" fill="#fff"/>
                <path d="M76.242,243.622c.122.68.336,1.135.217,1.475-.073.209-.838.434-.966.312-.268-.256-.462-.76-.408-1.12.033-.218.588-.357,1.156-.667Z" fill="#fff"/>
              </g>
            </g>
          </g>
        </g>
      </g>
    </g>
  </g>
</svg>