<?xml version="1.0" encoding="UTF-8"?>
<svg xmlns="http://www.w3.org/2000/svg" width="300" height="300" xmlns:xlink="http://www.w3.org/1999/xlink" viewBox="0 0 300 300">
  <defs>
    <clipPath id="b">
      <path d="M526.772,270.147c-.714.568-1.284,1.023-1.977,1.575-.003-.058.007.152.018.393-3.196-.319-3.327-2.383-.098-2.884,1.266-.458,1.292-1.73,1.796-3.082-1.457.556-2.442.47-3.814.697.252.876.893.851,1.45,1.442-.481.508-1.165.591-1.771.508-.164-1.022-1.028-2.49.117-3.246,1.081-.446-.186-1.686-.567-2.013-.576.277-1.111.961-.617,1.595.308.467.508.864-.116,1.321-1.184,3.272-3.027-.469-4.858-1.096.043-.188.129-.569.249-1.096-1.736,1.039-.908-3.182-2.925-.821-1.624-1.05-2.16-4.844-4.273-4.346-.195.121-.721-.087-.862-.323-.793-2.584-3.2-3.697-4.05-6.08-.648-1.513-1.976-2.377-3.113-3.449-.105-.152-.742-.109-.861.057-.955,1.197-2.936.12-3.038-1.301-.305-.566-1.47-1.131-1.391-1.989-.993-1.138.043-1.066.753-1.648-.713-.298-.871-.891-.862-1.733.182-.805-1.666-2.151-.396-2.576,1.456-.278.308-1.173.293-2.22-.995,1.425-2.019,2.272-3.674,2.052-.749.61-1.209.199-1.709-.265-1.289-1.414-3.222.461-4.368,1.389.096-3.759-4.685.9-6.54,1.179-.045-1.293-1.546-2.313-2.535-1.037-2.249-.607-2.976-3.952-4.684-5.586-.354-1.535-2.399-1.151-2.496-2.62-.174-1.629-2.3-1.873-2.288-3.673-1.441-.59-1.123-2.543-2.161-3.441-1.784-2.289-6.496-5.151-5.755-8.104.894-.917,0-1.194-.607-1.76-.469-1.012-1.005-.044-1.776-.239,1.881-2.059-1.466-2.334,1.303-5.969.307-.896-.85-.648-1.11-.104-.689,1.234-1.677,1.063-2.634.934-.512-.549-.059-1.924-1.332-1.664-.087-.365-.174-.73-.265-1.114-1.241.3-1.93,1.597-.515,2.208-1.318,1.253-3.583,4.501-4.84,1.678-1.488.342-1.344-2.237-2.996-.947-.081-.699-.146-1.267-.22-1.908-.179.118-.405.268-.633.418-.357-.743-.386-1.794-1.555-1.625-.128-.956-.256-1.902-.401-2.984-.273.4-.459.674-.57.836-1.739-.398-2.103-2.224-3.029-3.533-.095.013-.19.027-.285.04-.063.335-.127.67-.19,1.006-.1-.005-.2-.01-.301-.014.267-3.392-2.866-4.422-3.859-7.278.268-1.007.296-1.422-.313-2.239-.385.414-.736.792-1.218,1.311-.78-.576-.39-2-1.553-1.698-.335-1.357-.028-2.349.869-3.26-.982-1.094,1.552-3.478-.432-3.648-.108.467-.211.908-.313,1.349h-.215c.026-1.112.053-2.223.084-3.524,2.431,1.178,2.282-2.245,2.499-3.943-.967.712-1.639,2.005-2.82,1.039.176.3.352.6.614,1.048-.519.131-.969.245-1.271.321-.347-1.909.465-3.139,1.711-4.501.127.086.294.199.395.268,2.901-4.637,5.805-9.825,10.004-13.792-1.101-.897-1.671-2.744-.22-3.567.661.055,1.365.339,1.709.081.63-.781,1.133-1.841-.331-2.352-.007-1.37,1.816-2.873.508-4.08-.762-.851-.499-2.634-1.967-2.737-1.541-.467-2.351.923-3.668,1.337-1.282-.241-1.534,1.02-2.196,1.866-.778-.443-1.737-.572-2.254-1.223-.354-1.428-1.427-.995-2.579-1.251.279-.295.512-.541.756-.799-1.61-.454-1.243,1.18-.684,1.971-.347.287-.659.544-1.161.959-.146-.998.719-2.27-.491-2.696-2.003-.024-2.094-3.775-4.13-2.353.013-.316.026-.622.039-.933-1.119-.022-1.15-.978-1.739-1.663-2.298-1.886-1.623-1.258-2.3-3.981-.202.134-.39.26-.632.421-.647-.984-1.563-1.132-1.856-2.568-1.328-2.881-5.346-3.058-7.079-5.386-.585.083-1.041.148-1.601.228,1.383-2.045.167-3.317.285-5.289.802-1.974,1.602-3.943,2.4-5.907l.357.032c-.084.989-.167,1.98-.27,3.197.814-.916.531-1.853.959-2.706.183.12.335.22.487.32.067-.034.134-.067.201-.101.024-1.515-1.858-.945-.615-2.467,8.097-15.249,14.395-31.292,23.079-46.174.452-.861.735-1.603,1.645-.565,1.744.56,1.811-2.35,3.56-2.194.431-.026.743-1.269.438-1.892-.072.32-.123.543-.188.83-.996.023-1.962.045-2.946.068.288-2.054,2.598-2.155,4.1-1.523,1.683-2.489,2.304-6.224,5.744-6.788-.14-.172-.266-.327-.539-.662,2.52-.59,4.58,2.546,6.67,1.905.44-.39.743-.297.818.309-.216.079-.43.157-.716.261,4.26,1.531,8.617,5.253,12.519,6.025.919,2.415,2.378-.584,3.433-1.49.519-.833,1.393-.071,2.021-.601,8.953-9.038,16.928-19.513,26.772-26.991.548-.009,1.596.235,1.946.822,1.848,1.277,2.466-3.795,6.841,1.161.667,1.147,2.425-.463,2.708,1.046.282,1.139,1.689,1.087,2.207,2.067,1.786,1.081,2.565,3.146,4.737,3.803.689.392.8.85,1.497-.017.118,1.414.309,1.516,1.399.76.079.407.154.792.229,1.178l1.123-.477c-.465,6.943,24.591-23.986,27.83-25.766,1.614.353-.188,1.261.697,2.163.504.143.961-.691,1.338-.89,1.676-.328-.022,1.919,1.229,2.224.722.181.831,1.901,1.677.962.181.363.422.654.47.981.121.87,1.498.81,1.687.114.111-.926-.632-2.356.922-2.128.695.044.417,1.093.954,1.37-.252.402-.445.71-.638,1.018.435.124.871.249,1.436.41-.455,1.116-.409,1.297.704,1.757.236,1.007,1.231,1.468,1.973,2.04.853.704,1.654,2.045,3.013,1.97-.367,1.39,1.423.545,2.121.967-1.036.973-.927,1.293.14,1.928-.026.064-.052.129-.078.193-.473-.052-.945-.105-1.599-.177.27.731,1.157.622.746,1.475-.068.73,1.223.916,1.837.424-.165.316-.264.505-.399.765.57-.039.209,1.014.965.708.422-.171.76-.545,1.101-.949-1.081.652-1.342-.397-.403-.954,1.362.035,2.055-.861,2.827-1.742,1.164-1.315,2.162-2.092,3.896-1.315.42.365.792.737,1.358.086,1.024.926,2.01,1.817,2.997,2.709.08-.067.161-.134.241-.2-.201-.332-.402-.663-.707-1.165,1.923,1.296,3.917-1.03,5.357.406.242,1.625,1.152,2.489,2.362,3.451,1.077.962.459,2.642,1.638,3.51.591.438.42,1.541,1.363.95,1.136-.803,2.064,1.302,1.41,2.168.424.081.745.143,1.018.195-.349.427-.657.804-.966,1.18.601.262-.509,1.372.736,1.339.079-.234.163-.483.242-.715.997.668,2.299,1.187,1.222,2.566.322.045.606.085.957.133-.052.234-.096.434-.112.508.399.361.738.669,1.123,1.017-.197.249-.374.474-.652.826.998-.259,1.849-.481,2.782-.723.017.314.026.498.036.679,2.534.548.472,4.428.011,6.054.081.056.162.112.243.169,1.616-1.377,2.453-3.491,3.878-5.066.083.048.165.097.248.145-.384.974-.893,1.909-1.079,2.947,1.031-.032,1.49-.808,2.019-1.568,3.259,2.237,14.631-18.5,13.479-7.991.094.03.189.059.283.089,1.094-2.144,4.509-2.623,4.519.402-.096.89.735.556,1.293.499.593-.139.81.106.812.662-.08,1.962,4.51.524,3.973,3.236,2.144-.457,1.241,2.226,2.864,2.406.605-.004,1.21.372,1.837.587-.225.485-.433.934-.678,1.461,5.02.996,1.101.777,3.501,2.933,4.404,2.295.161,6.216-.403,9.674.089.041.178.082.266.123-.185.117-.369.233-.605.382.059.154.126.329.196.511-1.449.027-.687,1.274-1.387,2.138-.349.477-.522.808.079,1.218.73.849.617,2.264.918,3.296-.073-.059-.231-.188-.271-.221-.656,1.441.088,2.991-1.8,3.481-.204.757-.278,1.634-1.183,2.076-.315-.334-.584-.62-.852-.905-.137-.009-.274-.017-.41-.026.293,2.122-.855,3.447-1.799,5.239,1.242.98,3,.811,3.902,1.869.136.202.265.614.366.604,1.437-.079,1.729,1.318,2.679,1.994.643-.661,1.245-1.281,1.864-1.918.26.187.466.335.672.483.052-.03.105-.061.157-.091l-.428-.924c1.562-3.164,1.703.665,2.812-1.18.475.196-.208,1.169.688.926.129-.035.115-.591.193-1.067,1.148-.008,1.437,1.548,2.789.384.073.773.039,1.143.215,1.756,1.685-.842,3.335-2.183,4.895-3.547,1.023-1.326,1.915-1.908,3.486-.744-.475.142-.748.223-1.02.305-.005.067-.011.135-.016.202.378.068.756.137,1.195.217.034-.181.063-.334.1-.528,1.723.228.025,1.229,1.078,1.799.134-.204.256-.391.296-.453,1.868.37,1.023-1.643.979-2.751l.204-.01c1.293,1.101,1.019,3.405,2.372,4.092.478.042.83.144,1.165.502,1.443.824.727-1.53,1.45-1.887.825-.061,1.284.754,1.73,1.415-.65,1.95,2.239,2.847,3.33,4.16-1.55-.417-2.332-.086-.804,1.442.229-.349.361-.551.594-.905.361.657.506,1.139,1.073,1.535.326-.601.054-1.047-.141-1.632.68.197,1.275.399.869,1.299.351,2.153,4.294-.792,3.39,2.185.898-.303,3.057.317,1.793,1.39-.131.095-.137.605-.006.756.169.194.628.381.795.285.865-.523,1.285.614,1.879,1.035,1.081,1.873-1.129,3.834-.969,5.528,1.202.529-.36,2.016-1.067.878-.308.414-.488.762.194.862,1.616,1.818-2.468,6.466-3.68,8.628.365-.107.59-.173.909-.267.159.618,1.012,1.706-.01,1.987-.745.554-.263,1.555-.229,2.5.289.015,1.168-.414,1.404-.381.598.516,1.12.261,1.637-.051.559-.337.696-.053.782.465.801,2.367,1.179,4.776,2.081,7.035.296,1.29.714,3.393,2.176,3.714.357.969,1.887,1.054,1.624,2.511,2.597-.272,2.122,3.134,2.166,4.769,2.929,1.423-1.903,4.927-2.06,7.046-1.368,1.049-1.719,3.218-2.761,3.844-.552.332.13,1.785-.94,1.65-.796.839-1.221,1.956-2.062,3.186,3.359.425,6.449.815,9.532,1.205.032,1.666.885.365,1.742,1.274-.463.32-.798.55-1.11.766,1.152,1.211,1.958,3.802.022,4.516-1.213-.421-.742.496-.819,1.117.542-.177.997-.326,1.52-.497.973,1.168-1.798,1.906-.43,3.306.013,5.671-9.282,6.554-2.154,13.149-.601.93.805,1.579.35,2.49-.864,1.241-.557,2.496,1.028,2.77.031-.119.095-.368.163-.633,1.014.619,2.481,4.084,2.35,5.432.203-.031.46-.071.716-.111-.01.096-.021.192-.031.288-.183.196-.365.393-.548.59.022.092.044.183.066.275.393-.066.786-.133,1.324-.224-.604.681-.237,2.147-1.186,2.219-.146-.009-.301.289-.452.446.707.611,1.519-.008,2.306-.16.039.066.079.131.118.197-3.126,4.171-9.064,6.455-10.856,11.429-.128,1.576-.41.812-1.467,1.079.511.307,1.427.88.622,1.38-.764.446.062,1.168-.253,1.875-.087.003-.174.006-.261.009-.122-.197-.243-.393-.517-.836-2.745,9.891-14.735,10.7-21.933,16.161-4.721,4.006-9.465,8.241-14.742,11.416-1.032,1.679-4.844,4.864-6.137,2.157.234-.101.458-.199.914-.396-.521-.325-.863-.539-1.347-.841.147,1.114-.969,3.195-.613,1.098-1.212-.582-.148-1.97-.78-3.19-.401.884-.706,1.557-1.011,2.231-1.428-.731-.155-3.632-1.829-3.831-.673,1.024-1.157.594-1.616-.31-.299.539-.537.97-.797,1.437-3.272-3.432-9.814,6.669-13.382,6.068-1.938.182-3.462,3.741-5.535,2.824-8.971-2.229-27.887,23.203-33.172,18.759.277-.119.533-.228,1.027-.44-.491-.356-.823-.597-1.214-.881-1.253,2.454-1.359-.662-1.252-1.807-.098-.031-.197-.062-.295-.093-.366.652-.732,1.305-1.092,1.947-1.624-.22.047-4.78-1.789-3.836-.899,1.306-.917.067-1.661-.321-.179.432-.346.837-.504,1.219-2.082-1.718-4.408.854-6.83.32-.817.38-2.702,1.194-2.44-.602.711-.752,1.476-3.949-.374-3.102-.693-1.096-.614-1.406.383-1.632-.13-1.436-.512-1.982-1.573-.714.167-2.383-1.748-3.383-1.153-5.508.157-.534-.429-1.418-.268-1.963.769-1.473-.333-2.133-.906-3.004-1.931-.74-2.614-2.2-3.516-4.067-.659.517-1.34,1.051-2.08,1.631.027-.286.049-.514.074-.772-2.134.455-.86,2.028-2.308,3.424-.48-2.06,1.266-3.471,1.159-5.483-7.491,8.85-14.265,20.34-21.905,27.933ZM681.647,165.413c.861.91-.177,1.368.871,1.808.243-.854,1.473-1.293.613-2.462l-.624.31-.413-.196c.221-.269.443-.537.662-.803-1.404-1.639-1.201.322-1.109,1.344ZM433.541,183.748c-.44.598-.881,1.197-1.321,1.794.416.232.892.496,1.372.764.972-1.015.967-1.809-.051-2.558ZM682.421,173.251c-.222-.095-.444-.189-.666-.284.342-.493.685-.986.992-1.43-.25-.17-.55-.375-.848-.578q-.56.478.02,1.052c-.282.189-.563.377-.843.564-.009.121-.018.242-.026.363.457.104.914.208,1.372.313ZM680.446,162.308c-.318.619-.555,1.08-.89,1.733,1.061-.275,2.309-1.141.89-1.733ZM630.913,89.214c-.07.023-.14.046-.21.069-.088.634-.176,1.268-.273,1.965l.902-.413c-.137-.532-.278-1.077-.419-1.622ZM579.677,43.765c-.848.503-.866.792-.101,1.425.035-.491.064-.905.101-1.425ZM438.809,78.717c.649.155,1.027.174,1.063-.485-.428-.544-.687.017-1.063.485ZM431.936,191.013c-.467.934-.379,1.117.477,1.239-.178-.463-.328-.851-.477-1.239ZM681.27,169.697c.154.012.308.025.462.037.005-.409.011-.818.016-1.226-.12-.01-.24-.02-.36-.03-.039.406-.079.812-.118,1.218ZM476.359,239.142c-.032.385-.064.77-.106,1.275.927-.494.838-.89.106-1.275Z" fill="none"/>
    </clipPath>
    <clipPath id="c">
      <path d="M126.772,270.147c-.714.568-1.284,1.023-1.977,1.575-.003-.058.007.152.018.393-3.196-.319-3.327-2.383-.098-2.884,1.266-.458,1.292-1.73,1.796-3.082-1.457.556-2.442.47-3.814.697.252.876.893.851,1.45,1.442-.481.508-1.165.591-1.771.508-.164-1.022-1.028-2.49.117-3.246,1.081-.446-.186-1.686-.567-2.013-.576.277-1.111.961-.617,1.595.308.467.508.864-.116,1.321-1.184,3.272-3.027-.469-4.858-1.096.043-.188.129-.569.249-1.096-1.736,1.039-.908-3.182-2.925-.821-1.624-1.05-2.16-4.844-4.273-4.346-.195.121-.721-.087-.862-.323-.793-2.584-3.2-3.697-4.05-6.08-.648-1.513-1.976-2.377-3.113-3.449-.105-.152-.742-.109-.861.057-.955,1.197-2.936.12-3.038-1.301-.305-.566-1.47-1.131-1.391-1.989-.993-1.138.043-1.066.753-1.648-.713-.298-.871-.891-.862-1.733.182-.805-1.666-2.151-.396-2.576,1.456-.278.308-1.173.293-2.22-.995,1.425-2.019,2.272-3.674,2.052-.749.61-1.209.199-1.709-.265-1.289-1.414-3.222.461-4.368,1.389.096-3.759-4.685.9-6.54,1.179-.045-1.293-1.546-2.313-2.535-1.037-2.249-.607-2.976-3.952-4.684-5.586-.354-1.535-2.399-1.151-2.496-2.62-.174-1.629-2.3-1.873-2.288-3.673-1.441-.59-1.123-2.543-2.161-3.441-1.784-2.289-6.496-5.151-5.755-8.104.894-.917,0-1.194-.607-1.76-.469-1.012-1.005-.044-1.776-.239,1.881-2.059-1.466-2.334,1.303-5.969.307-.896-.85-.648-1.11-.104-.689,1.234-1.677,1.063-2.634.934-.512-.549-.059-1.924-1.332-1.664-.087-.365-.174-.73-.265-1.114-1.241.3-1.93,1.597-.515,2.208-1.318,1.253-3.583,4.501-4.84,1.678-1.488.342-1.344-2.237-2.996-.947-.081-.699-.146-1.267-.22-1.908-.179.118-.405.268-.633.418-.357-.743-.386-1.794-1.555-1.625-.128-.956-.256-1.902-.401-2.984-.273.4-.459.674-.57.836-1.739-.398-2.103-2.224-3.029-3.533-.095.013-.19.027-.285.04-.063.335-.127.67-.19,1.006-.1-.005-.2-.01-.301-.014.267-3.392-2.866-4.422-3.859-7.278.268-1.007.296-1.422-.313-2.239-.385.414-.736.792-1.218,1.311-.78-.576-.39-2-1.553-1.698-.335-1.357-.028-2.349.869-3.26-.982-1.094,1.552-3.478-.432-3.648-.108.467-.211.908-.313,1.349h-.215c.026-1.112.053-2.223.084-3.524,2.431,1.178,2.282-2.245,2.499-3.943-.967.712-1.639,2.005-2.82,1.039.176.3.352.6.614,1.048-.519.131-.969.245-1.271.321-.347-1.909.465-3.139,1.711-4.501.127.086.294.199.395.268,2.901-4.637,5.805-9.825,10.004-13.792-1.101-.897-1.671-2.744-.22-3.567.661.055,1.365.339,1.709.081.63-.781,1.133-1.841-.331-2.352-.007-1.37,1.816-2.873.508-4.08-.762-.851-.499-2.634-1.967-2.737-1.541-.467-2.351.923-3.668,1.337-1.282-.241-1.534,1.02-2.196,1.866-.778-.443-1.737-.572-2.254-1.223-.354-1.428-1.427-.995-2.579-1.251.279-.295.512-.541.756-.799-1.61-.454-1.243,1.18-.684,1.971-.347.287-.659.544-1.161.959-.146-.998.719-2.27-.491-2.696-2.003-.024-2.094-3.775-4.13-2.353.013-.316.026-.622.039-.933-1.119-.022-1.15-.978-1.739-1.663-2.298-1.886-1.623-1.258-2.3-3.981-.202.134-.39.26-.632.421-.647-.984-1.563-1.132-1.856-2.568-1.328-2.881-5.346-3.058-7.079-5.386-.585.083-1.041.148-1.601.228,1.383-2.045.167-3.317.285-5.289.802-1.974,1.602-3.943,2.4-5.907l.357.032c-.084.989-.167,1.98-.27,3.197.814-.916.531-1.853.959-2.706.183.12.335.22.487.32.067-.034.134-.067.201-.101.024-1.515-1.858-.945-.615-2.467,8.097-15.249,14.395-31.292,23.079-46.174.452-.861.735-1.603,1.645-.565,1.744.56,1.811-2.35,3.56-2.194.431-.026.743-1.269.438-1.892-.072.32-.123.543-.188.83-.996.023-1.962.045-2.946.068.288-2.054,2.598-2.155,4.1-1.523,1.683-2.489,2.304-6.224,5.744-6.788-.14-.172-.266-.327-.539-.662,2.52-.59,4.58,2.546,6.67,1.905.44-.39.743-.297.818.309-.216.079-.43.157-.716.261,4.26,1.531,8.617,5.253,12.519,6.025.919,2.415,2.378-.584,3.433-1.49.519-.833,1.393-.071,2.021-.601,8.953-9.038,16.928-19.513,26.772-26.991.548-.009,1.596.235,1.946.822,1.848,1.277,2.466-3.795,6.841,1.161.667,1.147,2.425-.463,2.708,1.046.282,1.139,1.689,1.087,2.207,2.067,1.786,1.081,2.565,3.146,4.737,3.803.689.392.8.85,1.497-.017.118,1.414.309,1.516,1.399.76.079.407.154.792.229,1.178l1.123-.477c-.465,6.943,24.591-23.986,27.83-25.766,1.614.353-.188,1.261.697,2.163.504.143.961-.691,1.338-.89,1.676-.328-.022,1.919,1.229,2.224.722.181.831,1.901,1.677.962.181.363.422.654.47.981.121.87,1.498.81,1.687.114.111-.926-.632-2.356.922-2.128.695.044.417,1.093.954,1.37-.252.402-.445.71-.638,1.018.435.124.871.249,1.436.41-.455,1.116-.409,1.297.704,1.757.236,1.007,1.231,1.468,1.973,2.04.853.704,1.654,2.045,3.013,1.97-.367,1.39,1.423.545,2.121.967-1.036.973-.927,1.293.14,1.928-.026.064-.052.129-.078.193-.473-.052-.945-.105-1.599-.177.27.731,1.157.622.746,1.475-.068.73,1.223.916,1.837.424-.165.316-.264.505-.399.765.57-.039.209,1.014.965.708.422-.171.76-.545,1.101-.949-1.081.652-1.342-.397-.403-.954,1.362.035,2.055-.861,2.827-1.742,1.164-1.315,2.162-2.092,3.896-1.315.42.365.792.737,1.358.086,1.024.926,2.01,1.817,2.997,2.709.08-.067.161-.134.241-.2-.201-.332-.402-.663-.707-1.165,1.923,1.296,3.917-1.03,5.357.406.242,1.625,1.152,2.489,2.362,3.451,1.077.962.459,2.642,1.638,3.51.591.438.42,1.541,1.363.95,1.136-.803,2.064,1.302,1.41,2.168.424.081.745.143,1.018.195-.349.427-.657.804-.966,1.18.601.262-.509,1.372.736,1.339.079-.234.163-.483.242-.715.997.668,2.299,1.187,1.222,2.566.322.045.606.085.957.133-.052.234-.096.434-.112.508.399.361.738.669,1.123,1.017-.197.249-.374.474-.652.826.998-.259,1.849-.481,2.782-.723.017.314.026.498.036.679,2.534.548.472,4.428.011,6.054.081.056.162.112.243.169,1.616-1.377,2.453-3.491,3.878-5.066.083.048.165.097.248.145-.384.974-.893,1.909-1.079,2.947,1.031-.032,1.49-.808,2.019-1.568,3.259,2.237,14.631-18.5,13.479-7.991.094.03.189.059.283.089,1.094-2.144,4.509-2.623,4.519.402-.096.89.735.556,1.293.499.593-.139.81.106.812.662-.08,1.962,4.51.524,3.973,3.236,2.144-.457,1.241,2.226,2.864,2.406.605-.004,1.21.372,1.837.587-.225.485-.433.934-.678,1.461,5.02.996,1.101.777,3.501,2.933,4.404,2.295.161,6.216-.403,9.674.089.041.178.082.266.123-.185.117-.369.233-.605.382.059.154.126.329.196.511-1.449.027-.687,1.274-1.387,2.138-.349.477-.522.808.079,1.218.73.849.617,2.264.918,3.296-.073-.059-.231-.188-.271-.221-.656,1.441.088,2.991-1.8,3.481-.204.757-.278,1.634-1.183,2.076-.315-.334-.584-.62-.852-.905-.137-.009-.274-.017-.41-.026.293,2.122-.855,3.447-1.799,5.239,1.242.98,3,.811,3.902,1.869.136.202.265.614.366.604,1.437-.079,1.729,1.318,2.679,1.994.643-.661,1.245-1.281,1.864-1.918.26.187.466.335.672.483.052-.03.105-.061.157-.091l-.428-.924c1.562-3.164,1.703.665,2.812-1.18.475.196-.208,1.169.688.926.129-.035.115-.591.193-1.067,1.148-.008,1.437,1.548,2.789.384.073.773.039,1.143.215,1.756,1.685-.842,3.335-2.183,4.895-3.547,1.023-1.326,1.915-1.908,3.486-.744-.475.142-.748.223-1.02.305-.005.067-.011.135-.016.202.378.068.756.137,1.195.217.034-.181.063-.334.1-.528,1.723.228.025,1.229,1.078,1.799.134-.204.256-.391.296-.453,1.868.37,1.023-1.643.979-2.751l.204-.01c1.293,1.101,1.019,3.405,2.372,4.092.478.042.83.144,1.165.502,1.443.824.727-1.53,1.45-1.887.825-.061,1.284.754,1.73,1.415-.65,1.95,2.239,2.847,3.33,4.16-1.55-.417-2.332-.086-.804,1.442.229-.349.361-.551.594-.905.361.657.506,1.139,1.073,1.535.326-.601.054-1.047-.141-1.632.68.197,1.275.399.869,1.299.351,2.153,4.294-.792,3.39,2.185.898-.303,3.057.317,1.793,1.39-.131.095-.137.605-.006.756.169.194.628.381.795.285.865-.523,1.285.614,1.879,1.035,1.081,1.873-1.129,3.834-.969,5.528,1.202.529-.36,2.016-1.067.878-.308.414-.488.762.194.862,1.616,1.818-2.468,6.466-3.68,8.628.365-.107.59-.173.909-.267.159.618,1.012,1.706-.01,1.987-.745.554-.263,1.555-.229,2.5.289.015,1.168-.414,1.404-.381.598.516,1.12.261,1.637-.051.559-.337.696-.053.782.465.801,2.367,1.179,4.776,2.081,7.035.296,1.29.714,3.393,2.176,3.714.357.969,1.887,1.054,1.624,2.511,2.597-.272,2.122,3.134,2.166,4.769,2.929,1.423-1.903,4.927-2.06,7.046-1.368,1.049-1.719,3.218-2.761,3.844-.552.332.13,1.785-.94,1.65-.796.839-1.221,1.956-2.062,3.186,3.359.425,6.449.815,9.532,1.205.032,1.666.885.365,1.742,1.274-.463.32-.798.55-1.11.766,1.152,1.211,1.958,3.802.022,4.516-1.213-.421-.742.496-.819,1.117.542-.177.997-.326,1.52-.497.973,1.168-1.798,1.906-.43,3.306.013,5.671-9.282,6.554-2.154,13.149-.601.93.805,1.579.35,2.49-.864,1.241-.557,2.496,1.028,2.77.031-.119.095-.368.163-.633,1.014.619,2.481,4.084,2.35,5.432.203-.031.46-.071.716-.111-.01.096-.021.192-.031.288-.183.196-.365.393-.548.59.022.092.044.183.066.275.393-.066.786-.133,1.324-.224-.604.681-.237,2.147-1.186,2.219-.146-.009-.301.289-.452.446.707.611,1.519-.008,2.306-.16.039.066.079.131.118.197-3.126,4.171-9.064,6.455-10.856,11.429-.128,1.576-.41.812-1.467,1.079.511.307,1.427.88.622,1.38-.764.446.062,1.168-.253,1.875-.087.003-.174.006-.261.009-.122-.197-.243-.393-.517-.836-2.745,9.891-14.735,10.7-21.933,16.161-4.721,4.006-9.465,8.241-14.742,11.416-1.032,1.679-4.844,4.864-6.137,2.157.234-.101.458-.199.914-.396-.521-.325-.863-.539-1.347-.841.147,1.114-.969,3.195-.613,1.098-1.212-.582-.148-1.97-.78-3.19-.401.884-.706,1.557-1.011,2.231-1.428-.731-.155-3.632-1.829-3.831-.673,1.024-1.157.594-1.616-.31-.299.539-.537.97-.797,1.437-3.272-3.432-9.814,6.669-13.382,6.068-1.938.182-3.462,3.741-5.535,2.824-8.971-2.229-27.887,23.203-33.172,18.759.277-.119.533-.228,1.027-.44-.491-.356-.823-.597-1.214-.881-1.253,2.454-1.359-.662-1.252-1.807-.098-.031-.197-.062-.295-.093-.366.652-.732,1.305-1.092,1.947-1.624-.22.047-4.78-1.789-3.836-.899,1.306-.917.067-1.661-.321-.179.432-.346.837-.504,1.219-2.082-1.718-4.408.854-6.83.32-.817.38-2.702,1.194-2.44-.602.711-.752,1.476-3.949-.374-3.102-.693-1.096-.614-1.406.383-1.632-.13-1.436-.512-1.982-1.573-.714.167-2.383-1.748-3.383-1.153-5.508.157-.534-.429-1.418-.268-1.963.769-1.473-.333-2.133-.906-3.004-1.931-.74-2.614-2.2-3.516-4.067-.659.517-1.34,1.051-2.08,1.631.027-.286.049-.514.074-.772-2.134.455-.86,2.028-2.308,3.424-.48-2.06,1.266-3.471,1.159-5.483-7.491,8.85-14.265,20.34-21.905,27.933ZM281.647,165.413c.861.91-.177,1.368.871,1.808.243-.854,1.473-1.293.613-2.462l-.624.31-.413-.196c.221-.269.443-.537.662-.803-1.404-1.639-1.201.322-1.109,1.344ZM33.541,183.748c-.44.598-.881,1.197-1.321,1.794.416.232.892.496,1.372.764.972-1.015.967-1.809-.051-2.558ZM282.421,173.251c-.222-.095-.444-.189-.666-.284.342-.493.685-.986.992-1.43-.25-.17-.55-.375-.848-.578q-.56.478.02,1.052c-.282.189-.563.377-.843.564-.009.121-.018.242-.026.363.457.104.914.208,1.372.313ZM280.446,162.308c-.318.619-.555,1.08-.89,1.733,1.061-.275,2.309-1.141.89-1.733ZM230.913,89.214c-.07.023-.14.046-.21.069-.088.634-.176,1.268-.273,1.965l.902-.413c-.137-.532-.278-1.077-.419-1.622ZM179.677,43.765c-.848.503-.866.792-.101,1.425.035-.491.064-.905.101-1.425ZM38.809,78.717c.649.155,1.027.174,1.063-.485-.428-.544-.687.017-1.063.485ZM31.936,191.013c-.467.934-.379,1.117.477,1.239-.178-.463-.328-.851-.477-1.239ZM281.27,169.697c.154.012.308.025.462.037.005-.409.011-.818.016-1.226-.12-.01-.24-.02-.36-.03-.039.406-.079.812-.118,1.218ZM76.359,239.142c-.032.385-.064.77-.106,1.275.927-.494.838-.89.106-1.275Z" fill="none"/>
    </clipPath>
    <linearGradient id="d" data-name="Dégradé sans nom 13" x1="148.843" y1="67.007" x2="148.843" y2="252.017" gradientUnits="userSpaceOnUse">
      <stop offset="0" stop-color="#ffd66e"/>
      <stop offset="1" stop-color="#e86170"/>
    </linearGradient>
    <filter id="e" data-name="drop-shadow-3" x="3.482" y="56.626" width="239.847" height="235.659" filterUnits="userSpaceOnUse">
      <feOffset dx="-6" dy="0"/>
      <feGaussianBlur result="f" stdDeviation="0"/>
      <feFlood flood-color="#42496f" flood-opacity="1"/>
      <feComposite in2="f" operator="in"/>
      <feComposite in="SourceGraphic"/>
    </filter>
    <clipPath id="g">
      <path d="M87.16,179.592c-16.945-1.922-20.093,2.047-22.698,11.163-2.605,9.116-18.791,66.791-13.395,74.419,5.395,7.628,47.07.93,57.489-26.605,6.321-16.706,14.698-54.884-21.395-58.977Z" fill="none"/>
    </clipPath>
    <clipPath id="h">
      <path d="M142.197,145.154c3.086-5.781,4.847-12.375,4.847-19.385,0-22.773-18.461-41.234-41.234-41.234s-41.234,18.461-41.234,41.234,18.461,41.234,41.234,41.234c4.766,0,9.323-.849,13.582-2.337,1.617,3.297,4.414,7.862,7.372,7.455,4.586-.632,3.316-5.999,3.316-5.999,0,0,3.744,4.698,8.214,3.232,4.471-1.465,1.633-8.835,1.633-8.835,0,0,1.716,3.02,6.036,2.001,3.244-.765-1.301-11.88-3.765-17.366Z" fill="none"/>
    </clipPath>
  </defs>
  <g isolation="isolate">
    <g id="a" data-name="bateau 10">
      <g clip-path="url(#c)">
        <rect x="5.286" y="7.067" width="287.116" height="269.478" fill="url(#d)"/>
        <path d="M150.526,180.24c-8.671,4.817-27.716,16.551-37.046,22.335,2.268,12.561-1.609,27.23-4.925,35.993-5.32,14.06-18.787,22.675-31.414,26.736.415.732,2.628,4.898,1.156,7.795,1.167,2.051,2.871,6.14-.354,8.448.815,1.461,4.384,8.597-2.633,10.219-7.828,1.809-11.718-1.621-12.981-2.55-1.263-.929-1.544-4.488.384-7.993h.252c-.053-.032-.112-.069-.158-.097-1.289-.782-1.882-4.065-.497-7.57-.32-.236-.583-.444-.775-.589-.872-.656-1.253-2.58-.745-4.863-4.792-.024-8.381-1.034-9.723-2.931-5.152-7.283,9.372-60.192,12.962-72.893-.173.05-.341.1-.523.149-8.79,10.125-36.158,43.442-36.158,43.442,3.811,20.123-5.709,11.422-10.138,5.999-13.911,3.033-6.597-9.897,2.845-10.487,0,0,35.487-43.976,35.249-46.265-.239-2.289,3.672-10.046,6.803-.89,1.648.19,3.152.596,4.364,1.138.879-1.681,1.98-3.032,3.505-4.042-1.105-.876-2.102-1.542-2.945-1.825-3.483-1.17-4.902.459-5.264-2.462,0,0,6.802-1.197,9.746,2.739.126.169.287.344.462.521,1.099-.431,2.364-.748,3.845-.943.452-1.347,1.378-2.87,2.805-4.221-.286-.387-.503-.715-.663-.941-.896-1.265-.065-4.662,2.785-7.367-.179-.253-.323-.469-.439-.632-.807-1.14-.208-4.012,2.003-6.549-10.715-7.447-17.735-19.838-17.735-33.875,0-22.773,18.461-41.234,41.234-41.234s41.234,18.461,41.234,41.234c0,7.01-1.761,13.604-4.847,19.385,2.464,5.486,7.009,16.6,3.765,17.366-4.319,1.019-6.035-2.001-6.035-2.001,0,0,2.838,7.37-1.633,8.835-4.47,1.466-8.214-3.232-8.214-3.232,0,0,1.27,5.368-3.316,5.999-2.958.408-5.755-4.158-7.372-7.455-4.259,1.488-8.816,2.337-13.582,2.337-2.743,0-5.421-.274-8.014-.785.052,2.075-.351,4.777-2.542,5.943.275,1.678.711,6.218-2.205,7.92.028.143.065.349.103.599,2.804.721,5.264,1.696,7.418,2.882.222-.543.425-1.078.583-1.587.828-2.67,3.556-1.711,3.395-.74-.161.971-1.032,1.242-1.668,2.028-.149.184-.396.644-.699,1.256,3.367,2.177,5.886,4.923,7.722,8.041,8.418-4.815,34.945-20.116,35.414-21.994.558-2.233,6.884-8.186,6.698,1.488,6.325,3.163,8.93,9.116-1.489,8.186ZM238.452,56.626l-35.877,66.046c-6.23-.815-12.801,3.06-14.589,4.784l5.413,4.96c-2.974.733-2.425,4.757-2.425,4.757l-32,26.419s-3.535-3.721-5.582-1.116c-2.047,2.605,5.209,6.698,5.209,6.698,0,0-1.488,10.791,1.488,10.047s7.442-9.674,7.442-9.674l26.419-23.814s.744,2.977,5.209.744c4.465-2.233-2.605-6.326-2.605-6.326,0,0,.878-1.913,1.082-3.851l10.719,9.822s4.587-8.971,3.014-15.868c2.245-1.086,5.641-2.87,9.419-5.343-.153-1.399-.044-2.909,1.253-3.699,2.42-1.472,5.68-2.946,5.68-2.946,0,0-1.788-2.945.211-3.996,1.998-1.052,3.996-1.894,3.996-1.894l.211-4.418s3.366-2.946,4.629-3.576c1.262-.632,3.366-3.787,3.366-3.787,0,0-.842-5.26,1.472-6.312.509-.23.999-.543,1.48-.881,1.521-16.684-4.635-36.776-4.635-36.776Z" fill="none" stroke="#fff" stroke-linecap="round" stroke-linejoin="round" stroke-width="20"/>
        <g filter="url(#e)">
          <g>
            <g>
              <path d="M190.974,137.173l-32,26.419s-3.535-3.721-5.581-1.116c-2.047,2.605,5.209,6.698,5.209,6.698,0,0-1.488,10.791,1.488,10.047,2.977-.744,7.442-9.674,7.442-9.674l26.419-23.814s.744,2.977,5.209.744c4.465-2.233-2.605-6.326-2.605-6.326,0,0,3.349-7.256-1.488-7.814-4.837-.558-4.093,4.837-4.093,4.837Z" fill="#b1ddea"/>
              <path d="M190.974,137.173l-32,26.419s-3.535-3.721-5.581-1.116c-2.047,2.605,5.209,6.698,5.209,6.698,0,0-1.488,10.791,1.488,10.047,2.977-.744,7.442-9.674,7.442-9.674l26.419-23.814s.744,2.977,5.209.744c4.465-2.233-2.605-6.326-2.605-6.326,0,0,3.349-7.256-1.488-7.814-4.837-.558-4.093,4.837-4.093,4.837Z" fill="#fff" opacity=".75"/>
            </g>
            <g>
              <path d="M107.363,194.008s37.396-21.209,37.954-23.442c.558-2.233,6.884-8.186,6.698,1.488,6.326,3.163,8.93,9.116-1.488,8.186-11.721,6.512-42.419,25.675-42.419,25.675l-.744-11.907Z" fill="#b1ddea"/>
              <path d="M107.363,194.008s37.396-21.209,37.954-23.442c.558-2.233,6.884-8.186,6.698,1.488,6.326,3.163,8.93,9.116-1.488,8.186-11.721,6.512-42.419,25.675-42.419,25.675l-.744-11.907Z" fill="#fff" opacity=".75"/>
            </g>
            <path d="M222.043,121.212c2.42-1.472,5.68-2.946,5.68-2.946,0,0-1.788-2.945.211-3.996,1.998-1.052,3.996-1.894,3.996-1.894l.211-4.418s3.366-2.946,4.629-3.576c1.262-.632,3.366-3.787,3.366-3.787,0,0-.842-5.26,1.472-6.312.508-.23.999-.543,1.48-.881,1.521-16.684-4.635-36.776-4.635-36.776l-37.026,68.161,7.153,6.732s5.502-2.217,12.211-6.609c-.153-1.399-.044-2.909,1.253-3.699Z" fill="#b1ddea"/>
            <path d="M187.987,127.456l20.37,18.665s7.415-14.489.17-20.796c-7.245-6.307-18.154-.17-20.54,2.131Z" fill="#ffd66e"/>
          </g>
          <g>
            <path d="M62.712,281.224c-1.928,3.505-1.647,7.063-.384,7.993,1.263.929,5.153,4.359,12.981,2.55,7.828-1.809,2.479-10.485,2.479-10.485l-15.076-.058Z" fill="#b1ddea"/>
            <path d="M62.712,281.224c-1.928,3.505-1.647,7.063-.384,7.993,1.263.929,5.153,4.359,12.981,2.55,7.828-1.809,2.479-10.485,2.479-10.485l-15.076-.058Z" fill="#fff" opacity=".75"/>
            <path d="M64.708,282.498c-1.423,2.586-1.215,5.211-.283,5.897.932.686,3.802,3.216,9.577,1.881,5.775-1.335,1.829-7.736,1.829-7.736l-11.123-.042Z" fill="#a384bb" mix-blend-mode="multiply" opacity=".25"/>
          </g>
          <g>
            <path d="M62.481,273.132c-1.61,3.661-1.016,7.181.325,7.995,1.341.814,5.519,3.886,13.156,1.391,7.637-2.495,1.541-10.663,1.541-10.663l-15.022,1.277Z" fill="#b1ddea"/>
            <path d="M62.481,273.132c-1.61,3.661-1.016,7.181.325,7.995,1.341.814,5.519,3.886,13.156,1.391,7.637-2.495,1.541-10.663,1.541-10.663l-15.022,1.277Z" fill="#fff" opacity=".75"/>
            <path d="M64.19,273.618c-1.142,2.597-.72,5.093.23,5.671.951.577,3.914,2.756,9.331.987,5.416-1.769,1.093-7.563,1.093-7.563l-10.654.906Z" fill="#a384bb" mix-blend-mode="multiply" opacity=".25"/>
          </g>
          <g>
            <path d="M62,264.979c-1.964,3.485-1.719,7.046-.466,7.988s5.108,4.411,12.954,2.683c7.846-1.729,2.586-10.459,2.586-10.459l-15.075-.212Z" fill="#b1ddea"/>
            <path d="M62,264.979c-1.964,3.485-1.719,7.046-.466,7.988s5.108,4.411,12.954,2.683c7.846-1.729,2.586-10.459,2.586-10.459l-15.075-.212Z" fill="#fff" opacity=".75"/>
            <path d="M63.699,266.088c-1.523,2.702-1.333,5.463-.361,6.193s3.961,3.42,10.043,2.08c6.083-1.34,2.005-8.109,2.005-8.109l-11.688-.164Z" fill="#a384bb" mix-blend-mode="multiply" opacity=".25"/>
          </g>
          <g>
            <path d="M87.16,179.592c-16.945-1.922-20.093,2.047-22.698,11.163-2.605,9.116-18.791,66.791-13.395,74.419,5.395,7.628,47.07.93,57.489-26.605,6.321-16.706,14.698-54.884-21.395-58.977Z" fill="#b1ddea"/>
            <path d="M87.16,179.592c-16.945-1.922-20.093,2.047-22.698,11.163-2.605,9.116-18.791,66.791-13.395,74.419,5.395,7.628,47.07.93,57.489-26.605,6.321-16.706,14.698-54.884-21.395-58.977Z" fill="#fff" opacity=".75"/>
            <g opacity=".5">
              <g clip-path="url(#g)">
                <g>
                  <path d="M67.811,177.731s6.329,18.522,32.466,24.066c0,0,10.511-18.671-14.605-26.299" fill="none" stroke="#9bc8ec" stroke-linecap="round" stroke-linejoin="round" stroke-width="4.348"/>
                  <path d="M61.113,182.941s.287,46.702,38.054,32.004" fill="none" stroke="#9bc8ec" stroke-linecap="round" stroke-linejoin="round" stroke-width="4.348"/>
                  <path d="M105.766,213.641s14.283,14.283,16.609,4.429" fill="none" stroke="#9bc8ec" stroke-linecap="round" stroke-linejoin="round" stroke-width="4.348"/>
                  <path d="M56.648,198.197s-3.04,55.184,39.193,32.114" fill="none" stroke="#9bc8ec" stroke-linecap="round" stroke-linejoin="round" stroke-width="4.348"/>
                  <path d="M105.102,228.699s1.218,10.297,9.744,5.758" fill="none" stroke="#9bc8ec" stroke-linecap="round" stroke-linejoin="round" stroke-width="4.348"/>
                  <path d="M102.444,241.765s1.329,7.308,8.194,5.979" fill="none" stroke="#9bc8ec" stroke-linecap="round" stroke-linejoin="round" stroke-width="4.348"/>
                  <path d="M52.555,217.546s-5.027,52.999,43.761,23.378" fill="none" stroke="#9bc8ec" stroke-linecap="round" stroke-linejoin="round" stroke-width="4.348"/>
                  <path d="M48.834,230.197s-7.642,40.982,27.207,28.626" fill="none" stroke="#9bc8ec" stroke-linecap="round" stroke-linejoin="round" stroke-width="4.348"/>
                </g>
                <path d="M103.994,176.437c-4.06-2.03-24.331-5.365-32.677-.533-7.041,4.076-12.6,12.971-13.526,19.456-1.398,9.785-15.248,68.218-12.702,70.321s57.355,10.408,59.57,7.086,11.183-27.238,4.429-30.339c-6.754-3.1-11.515-3.875-16.387.221-4.872,4.097-17.827,13.73-21.481,11.515-3.654-2.214.974-21.201,3.765-24.802,25.053-32.336,46.048-13.219,44.509-21.774-.707-3.929-2.212-24.509-15.499-31.152Z" fill="#a384bb" mix-blend-mode="multiply" opacity=".25"/>
              </g>
            </g>
          </g>
          <g>
            <path d="M27.347,235.872s27.368-33.317,36.158-43.442c10.109-2.686,5.627-7.391-1.399-8.202-3.131-9.156-7.042-1.399-6.803.89s-35.249,46.265-35.249,46.265c-9.441.59-16.755,13.52-2.845,10.487,4.429,5.423,13.948,14.124,10.138-5.999Z" fill="#b1ddea"/>
            <path d="M27.347,235.872s27.368-33.317,36.158-43.442c10.109-2.686,5.627-7.391-1.399-8.202-3.131-9.156-7.042-1.399-6.803.89s-35.249,46.265-35.249,46.265c-9.441.59-16.755,13.52-2.845,10.487,4.429,5.423,13.948,14.124,10.138-5.999Z" fill="#fff" opacity=".75"/>
          </g>
          <g>
            <path d="M78.708,175.046c-2.933,2.72-3.786,6.186-2.88,7.466.907,1.28,3.52,5.759,11.519,6.506,7.999.747,5.653-9.173,5.653-9.173l-14.292-4.8Z" fill="#b1ddea"/>
            <path d="M78.708,175.046c-2.933,2.72-3.786,6.186-2.88,7.466.907,1.28,3.52,5.759,11.519,6.506,7.999.747,5.653-9.173,5.653-9.173l-14.292-4.8Z" fill="#fff" opacity=".75"/>
            <path d="M80.201,176.884c-2.164,2.007-2.793,4.564-2.125,5.508.669.944,2.597,4.249,8.498,4.8,5.902.551,4.171-6.767,4.171-6.767l-10.544-3.541Z" fill="#a384bb" mix-blend-mode="multiply" opacity=".25"/>
          </g>
          <g>
            <path d="M61.766,177.038s6.802-1.197,9.746,2.739c2.943,3.937,19.783,10.29,21.761,12.873,3.077,4.019,3.567,6.319.168,4.241-3.398-2.077-5.116-3.294-10.996-5.954-5.879-2.661-11.932-10.267-15.415-11.437s-4.902.459-5.264-2.462Z" fill="#b1ddea"/>
            <path d="M61.766,177.038s6.802-1.197,9.746,2.739c2.943,3.937,19.783,10.29,21.761,12.873,3.077,4.019,3.567,6.319.168,4.241-3.398-2.077-5.116-3.294-10.996-5.954-5.879-2.661-11.932-10.267-15.415-11.437s-4.902.459-5.264-2.462Z" fill="#fff" opacity=".75"/>
          </g>
          <g>
            <path d="M104.548,181.234c.161-.971-2.567-1.929-3.395.74-1.091,3.518-3.999,8.075-4.565,10.421-.88,3.651-.104,6.61.616,4.917.72-1.694.358-3.558,1.504-5.565,1.146-2.006,3.536-7.7,4.171-8.485.635-.786,1.507-1.057,1.668-2.028Z" fill="#b1ddea"/>
            <path d="M104.548,181.234c.161-.971-2.567-1.929-3.395.74-1.091,3.518-3.999,8.075-4.565,10.421-.88,3.651-.104,6.61.616,4.917.72-1.694.358-3.558,1.504-5.565,1.146-2.006,3.536-7.7,4.171-8.485.635-.786,1.507-1.057,1.668-2.028Z" fill="#fff" opacity=".75"/>
          </g>
          <g>
            <path d="M80.841,166.727c-2.933,2.72-3.786,6.186-2.88,7.466s3.52,5.759,11.519,6.506c7.999.747,5.653-9.173,5.653-9.173l-14.292-4.8Z" fill="#b1ddea"/>
            <path d="M80.841,166.727c-2.933,2.72-3.786,6.186-2.88,7.466s3.52,5.759,11.519,6.506c7.999.747,5.653-9.173,5.653-9.173l-14.292-4.8Z" fill="#fff" opacity=".75"/>
            <path d="M82.216,167.853c-2.08,1.929-2.685,4.387-2.042,5.295.643.908,2.496,4.085,8.17,4.614,5.673.53,4.009-6.506,4.009-6.506l-10.137-3.404Z" fill="#a384bb" mix-blend-mode="multiply" opacity=".25"/>
          </g>
          <g>
            <path d="M83.188,158.728c-2.933,2.72-3.786,6.186-2.88,7.466.907,1.28,3.52,5.759,11.519,6.506,7.999.747,5.653-9.173,5.653-9.173l-14.292-4.8Z" fill="#b1ddea"/>
            <path d="M83.188,158.728c-2.933,2.72-3.786,6.186-2.88,7.466.907,1.28,3.52,5.759,11.519,6.506,7.999.747,5.653-9.173,5.653-9.173l-14.292-4.8Z" fill="#fff" opacity=".75"/>
            <path d="M84.467,160.302c-2.274,2.109-2.936,4.796-2.233,5.788.703.992,2.729,4.465,8.931,5.044,6.202.579,4.383-7.112,4.383-7.112l-11.081-3.721Z" fill="#a384bb" mix-blend-mode="multiply" opacity=".25"/>
          </g>
          <g>
            <path d="M142.197,145.154c3.086-5.781,4.847-12.375,4.847-19.385,0-22.773-18.461-41.234-41.234-41.234s-41.234,18.461-41.234,41.234,18.461,41.234,41.234,41.234c4.766,0,9.323-.849,13.582-2.337,1.617,3.297,4.414,7.862,7.372,7.455,4.586-.632,3.316-5.999,3.316-5.999,0,0,3.744,4.698,8.214,3.232,4.471-1.465,1.633-8.835,1.633-8.835,0,0,1.716,3.02,6.036,2.001,3.244-.765-1.301-11.88-3.765-17.366Z" fill="#b1ddea"/>
            <path d="M142.197,145.154c3.086-5.781,4.847-12.375,4.847-19.385,0-22.773-18.461-41.234-41.234-41.234s-41.234,18.461-41.234,41.234,18.461,41.234,41.234,41.234c4.766,0,9.323-.849,13.582-2.337,1.617,3.297,4.414,7.862,7.372,7.455,4.586-.632,3.316-5.999,3.316-5.999,0,0,3.744,4.698,8.214,3.232,4.471-1.465,1.633-8.835,1.633-8.835,0,0,1.716,3.02,6.036,2.001,3.244-.765-1.301-11.88-3.765-17.366Z" fill="#fff" opacity=".75"/>
            <g clip-path="url(#h)">
              <path d="M84.436,103.429c-21.701,2.218-22.81,29.938-21.226,42.135s27.404,27.879,45.62,26.929c18.216-.95,26.295.317,26.295.317,0,0,2.693-.317,0-9.821-2.693-9.504-2.693-26.77-5.069-31.681,0,0,7.958.363,8.573-9.956l.053-5.47-.388-5.166s-11.251,11.56-18.623,14.548c-4.568,1.852-19.973,5.215-24.566,2.839-4.594-2.376,2.004-25.466-10.668-24.674Z" fill="#a384bb" mix-blend-mode="multiply" opacity=".25"/>
            </g>
            <path d="M134.966,114.896c-3.21,3.305-7.445,7.275-10.709,9.734,1.225,2.535,3.796,4.296,6.799,4.296,4.183,0,7.574-3.39,7.574-7.574,0-2.745-1.475-5.128-3.663-6.456Z" fill="#42496f"/>
            <path d="M127.796,135.135c-2.382,1.152-.615,14.444,1.383,15.52,1.998,1.076,7.606-2.843,7.837-4.61s-6.838-12.062-9.22-10.91Z" fill="#42496f"/>
            <path d="M96.213,131.401c.414,5.898,5.278,10.568,11.28,10.568,6.274,0,11.36-5.086,11.36-11.36,0-1.026-.18-2.002-.435-2.948-5.886,1.87-15.271,3.066-22.205,3.74Z" fill="#42496f"/>
          </g>
        </g>
      </g>
    </g>
  </g>
</svg>