<?xml version="1.0" encoding="UTF-8"?>
<svg id="a" data-name="bateau 06" xmlns="http://www.w3.org/2000/svg" width="300" height="300" xmlns:xlink="http://www.w3.org/1999/xlink" viewBox="0 0 300 300">
  <defs>
    <clipPath id="b">
      <path d="M126.772,270.147c-.714.568-1.284,1.023-1.977,1.575-.003-.058.007.152.018.393-3.196-.319-3.327-2.383-.098-2.884,1.266-.458,1.292-1.73,1.796-3.082-1.457.556-2.442.47-3.814.697.252.876.893.851,1.45,1.442-.481.508-1.165.591-1.771.508-.164-1.022-1.028-2.49.117-3.246,1.081-.446-.186-1.686-.567-2.013-.576.277-1.111.961-.617,1.595.308.467.508.864-.116,1.321-1.184,3.272-3.027-.469-4.858-1.096.043-.188.129-.569.249-1.096-1.736,1.039-.908-3.182-2.925-.821-1.624-1.05-2.16-4.844-4.273-4.346-.195.121-.721-.087-.862-.323-.793-2.584-3.2-3.697-4.05-6.08-.648-1.513-1.976-2.377-3.113-3.449-.105-.152-.742-.109-.861.057-.955,1.197-2.936.12-3.038-1.301-.305-.566-1.47-1.131-1.391-1.989-.993-1.138.043-1.066.753-1.648-.713-.298-.871-.891-.862-1.733.182-.805-1.666-2.151-.396-2.576,1.456-.278.308-1.173.293-2.22-.995,1.425-2.019,2.272-3.674,2.052-.749.61-1.209.199-1.709-.265-1.289-1.414-3.222.461-4.368,1.389.096-3.759-4.685.9-6.54,1.179-.045-1.293-1.546-2.313-2.535-1.037-2.249-.607-2.976-3.952-4.684-5.586-.354-1.535-2.399-1.151-2.496-2.62-.174-1.629-2.3-1.873-2.288-3.673-1.441-.59-1.123-2.543-2.161-3.441-1.784-2.289-6.496-5.151-5.755-8.104.894-.917,0-1.194-.607-1.76-.469-1.012-1.005-.044-1.776-.239,1.881-2.059-1.466-2.334,1.303-5.969.307-.896-.85-.648-1.11-.104-.689,1.234-1.677,1.063-2.634.934-.512-.549-.059-1.924-1.332-1.664-.087-.365-.174-.73-.265-1.114-1.241.3-1.93,1.597-.515,2.208-1.318,1.253-3.583,4.501-4.84,1.678-1.488.342-1.344-2.237-2.996-.947-.081-.699-.146-1.267-.22-1.908-.179.118-.405.268-.633.418-.357-.743-.386-1.794-1.555-1.625-.128-.956-.256-1.902-.401-2.984-.273.4-.459.674-.57.836-1.739-.398-2.103-2.224-3.029-3.533-.095.013-.19.027-.285.04-.063.335-.127.67-.19,1.006-.1-.005-.2-.01-.301-.014.267-3.392-2.866-4.422-3.859-7.278.268-1.007.296-1.422-.313-2.239-.385.414-.736.792-1.218,1.311-.78-.576-.39-2-1.553-1.698-.335-1.357-.028-2.349.869-3.26-.982-1.094,1.552-3.478-.432-3.648-.108.467-.211.908-.313,1.349h-.215c.026-1.112.053-2.223.084-3.524,2.431,1.178,2.282-2.245,2.499-3.943-.967.712-1.639,2.005-2.82,1.039.176.3.352.6.614,1.048-.519.131-.969.245-1.271.321-.347-1.909.465-3.139,1.711-4.501.127.086.294.199.395.268,2.901-4.637,5.805-9.825,10.004-13.792-1.101-.897-1.671-2.744-.22-3.567.661.055,1.365.339,1.709.081.63-.781,1.133-1.841-.331-2.352-.007-1.37,1.816-2.873.508-4.08-.762-.851-.499-2.634-1.967-2.737-1.541-.467-2.351.923-3.668,1.337-1.282-.241-1.534,1.02-2.196,1.866-.778-.443-1.737-.572-2.254-1.223-.354-1.428-1.427-.995-2.579-1.251.279-.295.512-.541.756-.799-1.61-.454-1.243,1.18-.684,1.971-.347.287-.659.544-1.161.959-.146-.998.719-2.27-.491-2.696-2.003-.024-2.094-3.775-4.13-2.353.013-.316.026-.622.039-.933-1.119-.022-1.15-.978-1.739-1.663-2.298-1.886-1.623-1.258-2.3-3.981-.202.134-.39.26-.632.421-.647-.984-1.563-1.132-1.856-2.568-1.328-2.881-5.346-3.058-7.079-5.386-.585.083-1.041.148-1.601.228,1.383-2.045.167-3.317.285-5.289.802-1.974,1.602-3.943,2.4-5.907l.357.032c-.084.989-.167,1.98-.27,3.197.814-.916.531-1.853.959-2.706.183.12.335.22.487.32.067-.034.134-.067.201-.101.024-1.515-1.858-.945-.615-2.467,8.097-15.249,14.395-31.292,23.079-46.174.452-.861.735-1.603,1.645-.565,1.744.56,1.811-2.35,3.56-2.194.431-.026.743-1.269.438-1.892-.072.32-.123.543-.188.83-.996.023-1.962.045-2.946.068.288-2.054,2.598-2.155,4.1-1.523,1.683-2.489,2.304-6.224,5.744-6.788-.14-.172-.266-.327-.539-.662,2.52-.59,4.58,2.546,6.67,1.905.44-.39.743-.297.818.309-.216.079-.43.157-.716.261,4.26,1.531,8.617,5.253,12.519,6.025.919,2.415,2.378-.584,3.433-1.49.519-.833,1.393-.071,2.021-.601,8.953-9.038,16.928-19.513,26.772-26.991.548-.009,1.596.235,1.946.822,1.848,1.277,2.466-3.795,6.841,1.161.667,1.147,2.425-.463,2.708,1.046.282,1.139,1.689,1.087,2.207,2.067,1.786,1.081,2.565,3.146,4.737,3.803.689.392.8.85,1.497-.017.118,1.414.309,1.516,1.399.76.079.407.154.792.229,1.178l1.123-.477c-.465,6.943,24.591-23.986,27.83-25.766,1.614.353-.188,1.261.697,2.163.504.143.961-.691,1.338-.89,1.676-.328-.022,1.919,1.229,2.224.722.181.831,1.901,1.677.962.181.363.422.654.47.981.121.87,1.498.81,1.687.114.111-.926-.632-2.356.922-2.128.695.044.417,1.093.954,1.37-.252.402-.445.71-.638,1.018.435.124.871.249,1.436.41-.455,1.116-.409,1.297.704,1.757.236,1.007,1.231,1.468,1.973,2.04.853.704,1.654,2.045,3.013,1.97-.367,1.39,1.423.545,2.121.967-1.036.973-.927,1.293.14,1.928-.026.064-.052.129-.078.193-.473-.052-.945-.105-1.599-.177.27.731,1.157.622.746,1.475-.068.73,1.223.916,1.837.424-.165.316-.264.505-.399.765.57-.039.209,1.014.965.708.422-.171.76-.545,1.101-.949-1.081.652-1.342-.397-.403-.954,1.362.035,2.055-.861,2.827-1.742,1.164-1.315,2.162-2.092,3.896-1.315.42.365.792.737,1.358.086,1.024.926,2.01,1.817,2.997,2.709.08-.067.161-.134.241-.2-.201-.332-.402-.663-.707-1.165,1.923,1.296,3.917-1.03,5.357.406.242,1.625,1.152,2.489,2.362,3.451,1.077.962.459,2.642,1.638,3.51.591.438.42,1.541,1.363.95,1.136-.803,2.064,1.302,1.41,2.168.424.081.745.143,1.018.195-.349.427-.657.804-.966,1.18.601.262-.509,1.372.736,1.339.079-.234.163-.483.242-.715.997.668,2.299,1.187,1.222,2.566.322.045.606.085.957.133-.052.234-.096.434-.112.508.399.361.738.669,1.123,1.017-.197.249-.374.474-.652.826.998-.259,1.849-.481,2.782-.723.017.314.026.498.036.679,2.534.548.472,4.428.011,6.054.081.056.162.112.243.169,1.616-1.377,2.453-3.491,3.878-5.066.083.048.165.097.248.145-.384.974-.893,1.909-1.079,2.947,1.031-.032,1.49-.808,2.019-1.568,3.259,2.237,14.631-18.5,13.479-7.991.094.03.189.059.283.089,1.094-2.144,4.509-2.623,4.519.402-.096.89.735.556,1.293.499.593-.139.81.106.812.662-.08,1.962,4.51.524,3.973,3.236,2.144-.457,1.241,2.226,2.864,2.406.605-.004,1.21.372,1.837.587-.225.485-.433.934-.678,1.461,5.02.996,1.101.777,3.501,2.933,4.404,2.295.161,6.216-.403,9.674.089.041.178.082.266.123-.185.117-.369.233-.605.382.059.154.126.329.196.511-1.449.027-.687,1.274-1.387,2.138-.349.477-.522.808.079,1.218.73.849.617,2.264.918,3.296-.073-.059-.231-.188-.271-.221-.656,1.441.088,2.991-1.8,3.481-.204.757-.278,1.634-1.183,2.076-.315-.334-.584-.62-.852-.905-.137-.009-.274-.017-.41-.026.293,2.122-.855,3.447-1.799,5.239,1.242.98,3,.811,3.902,1.869.136.202.265.614.366.604,1.437-.079,1.729,1.318,2.679,1.994.643-.661,1.245-1.281,1.864-1.918.26.187.466.335.672.483.052-.03.105-.061.157-.091l-.428-.924c1.562-3.164,1.703.665,2.812-1.18.475.196-.208,1.169.688.926.129-.035.115-.591.193-1.067,1.148-.008,1.437,1.548,2.789.384.073.773.039,1.143.215,1.756,1.685-.842,3.335-2.183,4.895-3.547,1.023-1.326,1.915-1.908,3.486-.744-.475.142-.748.223-1.02.305-.005.067-.011.135-.016.202.378.068.756.137,1.195.217.034-.181.063-.334.1-.528,1.723.228.025,1.229,1.078,1.799.134-.204.256-.391.296-.453,1.868.37,1.023-1.643.979-2.751l.204-.01c1.293,1.101,1.019,3.405,2.372,4.092.478.042.83.144,1.165.502,1.443.824.727-1.53,1.45-1.887.825-.061,1.284.754,1.73,1.415-.65,1.95,2.239,2.847,3.33,4.16-1.55-.417-2.332-.086-.804,1.442.229-.349.361-.551.594-.905.361.657.506,1.139,1.073,1.535.326-.601.054-1.047-.141-1.632.68.197,1.275.399.869,1.299.351,2.153,4.294-.792,3.39,2.185.898-.303,3.057.317,1.793,1.39-.131.095-.137.605-.006.756.169.194.628.381.795.285.865-.523,1.285.614,1.879,1.035,1.081,1.873-1.129,3.834-.969,5.528,1.202.529-.36,2.016-1.067.878-.308.414-.488.762.194.862,1.616,1.818-2.468,6.466-3.68,8.628.365-.107.59-.173.909-.267.159.618,1.012,1.706-.01,1.987-.745.554-.263,1.555-.229,2.5.289.015,1.168-.414,1.404-.381.598.516,1.12.261,1.637-.051.559-.337.696-.053.782.465.801,2.367,1.179,4.776,2.081,7.035.296,1.29.714,3.393,2.176,3.714.357.969,1.887,1.054,1.624,2.511,2.597-.272,2.122,3.134,2.166,4.769,2.929,1.423-1.903,4.927-2.06,7.046-1.368,1.049-1.719,3.218-2.761,3.844-.552.332.13,1.785-.94,1.65-.796.839-1.221,1.956-2.062,3.186,3.359.425,6.449.815,9.532,1.205.032,1.666.885.365,1.742,1.274-.463.32-.798.55-1.11.766,1.152,1.211,1.958,3.802.022,4.516-1.213-.421-.742.496-.819,1.117.542-.177.997-.326,1.52-.497.973,1.168-1.798,1.906-.43,3.306.013,5.671-9.282,6.554-2.154,13.149-.601.93.805,1.579.35,2.49-.864,1.241-.557,2.496,1.028,2.77.031-.119.095-.368.163-.633,1.014.619,2.481,4.084,2.35,5.432.203-.031.46-.071.716-.111-.01.096-.021.192-.031.288-.183.196-.365.393-.548.59.022.092.044.183.066.275.393-.066.786-.133,1.324-.224-.604.681-.237,2.147-1.186,2.219-.146-.009-.301.289-.452.446.707.611,1.519-.008,2.306-.16.039.066.079.131.118.197-3.126,4.171-9.064,6.455-10.856,11.429-.128,1.576-.41.812-1.467,1.079.511.307,1.427.88.622,1.38-.764.446.062,1.168-.253,1.875-.087.003-.174.006-.261.009-.122-.197-.243-.393-.517-.836-2.745,9.891-14.735,10.7-21.933,16.161-4.721,4.006-9.465,8.241-14.742,11.416-1.032,1.679-4.844,4.864-6.137,2.157.234-.101.458-.199.914-.396-.521-.325-.863-.539-1.347-.841.147,1.114-.969,3.195-.613,1.098-1.212-.582-.148-1.97-.78-3.19-.401.884-.706,1.557-1.011,2.231-1.428-.731-.155-3.632-1.829-3.831-.673,1.024-1.157.594-1.616-.31-.299.539-.537.97-.797,1.437-3.272-3.432-9.814,6.669-13.382,6.068-1.938.182-3.462,3.741-5.535,2.824-8.971-2.229-27.887,23.203-33.172,18.759.277-.119.533-.228,1.027-.44-.491-.356-.823-.597-1.214-.881-1.253,2.454-1.359-.662-1.252-1.807-.098-.031-.197-.062-.295-.093-.366.652-.732,1.305-1.092,1.947-1.624-.22.047-4.78-1.789-3.836-.899,1.306-.917.067-1.661-.321-.179.432-.346.837-.504,1.219-2.082-1.718-4.408.854-6.83.32-.817.38-2.702,1.194-2.44-.602.711-.752,1.476-3.949-.374-3.102-.693-1.096-.614-1.406.383-1.632-.13-1.436-.512-1.982-1.573-.714.167-2.383-1.748-3.383-1.153-5.508.157-.534-.429-1.418-.268-1.963.769-1.473-.333-2.133-.906-3.004-1.931-.74-2.614-2.2-3.516-4.067-.659.517-1.34,1.051-2.08,1.631.027-.286.049-.514.074-.772-2.134.455-.86,2.028-2.308,3.424-.48-2.06,1.266-3.471,1.159-5.483-7.491,8.85-14.265,20.34-21.905,27.933ZM281.647,165.413c.861.91-.177,1.368.871,1.808.243-.854,1.473-1.293.613-2.462l-.624.31-.413-.196c.221-.269.443-.537.662-.803-1.404-1.639-1.201.322-1.109,1.344ZM33.541,183.748c-.44.598-.881,1.197-1.321,1.794.416.232.892.496,1.372.764.972-1.015.967-1.809-.051-2.558ZM282.421,173.251c-.222-.095-.444-.189-.666-.284.342-.493.685-.986.992-1.43-.25-.17-.55-.375-.848-.578q-.56.478.02,1.052c-.282.189-.563.377-.843.564-.009.121-.018.242-.026.363.457.104.914.208,1.372.313ZM280.446,162.308c-.318.619-.555,1.08-.89,1.733,1.061-.275,2.309-1.141.89-1.733ZM230.913,89.214c-.07.023-.14.046-.21.069-.088.634-.176,1.268-.273,1.965l.902-.413c-.137-.532-.278-1.077-.419-1.622ZM179.677,43.765c-.848.503-.866.792-.101,1.425.035-.491.064-.905.101-1.425ZM38.809,78.717c.649.155,1.027.174,1.063-.485-.428-.544-.687.017-1.063.485ZM31.936,191.013c-.467.934-.379,1.117.477,1.239-.178-.463-.328-.851-.477-1.239ZM281.27,169.697c.154.012.308.025.462.037.005-.409.011-.818.016-1.226-.12-.01-.24-.02-.36-.03-.039.406-.079.812-.118,1.218ZM76.359,239.142c-.032.385-.064.77-.106,1.275.927-.494.838-.89.106-1.275Z" fill="none"/>
    </clipPath>
    <linearGradient id="c" data-name="Dégradé sans nom 13" x1="148.843" y1="67.007" x2="148.843" y2="252.017" gradientUnits="userSpaceOnUse">
      <stop offset="0" stop-color="#ffd66e"/>
      <stop offset="1" stop-color="#e86170"/>
    </linearGradient>
    <filter id="d" data-name="drop-shadow-2" x="-8.652" y="123.877" width="260.739" height="87.706" filterUnits="userSpaceOnUse">
      <feOffset dx="-6" dy="0"/>
      <feGaussianBlur result="e" stdDeviation="0"/>
      <feFlood flood-color="#42496f" flood-opacity="1"/>
      <feComposite in2="e" operator="in"/>
      <feComposite in="SourceGraphic"/>
    </filter>
    <clipPath id="f">
      <path d="M77.152,208.685c1.723,13.972,119.813-53.973,174.934-56.653,0,0-39.619-6.89-85.17,7.273,44.595-18.565,71.007-24.881,85.17-26.412-33.494-4.402-119.79,9.973-174.934,31.006,0,0-2.297,30.814,0,44.786Z" fill="none"/>
    </clipPath>
    <clipPath id="g">
      <path d="M13.61,151.65s40.575-28.9,84.213-21.053l1.531,43.255s-28.326,6.89-78.089,27.178l-7.656-49.38Z" fill="none"/>
    </clipPath>
  </defs>
  <g clip-path="url(#b)">
    <rect x="5.286" y="7.067" width="287.116" height="269.478" fill="url(#c)"/>
    <path d="M166.916,159.305c44.595-18.565,71.007-24.881,85.17-26.412-29.378-3.861-99.376,6.725-153.348,23.577l-.916-25.874c-43.638-7.847-84.213,21.053-84.213,21.053l7.656,49.38c21.789-8.883,39.467-15.197,52.458-19.49l2.961,23.443c.129,1.324.282,2.573.468,3.703,1.723,13.972,119.813-53.973,174.934-56.653,0,0-39.618-6.89-85.17,7.273Z" fill="none" stroke="#fff" stroke-linecap="round" stroke-linejoin="round" stroke-width="20"/>
    <g filter="url(#d)">
      <path d="M77.152,208.685c1.723,13.972,119.813-53.973,174.934-56.653,0,0-39.619-6.89-85.17,7.273,44.595-18.565,71.007-24.881,85.17-26.412-33.494-4.402-119.79,9.973-174.934,31.006,0,0-2.297,30.814,0,44.786Z" fill="#efa78e"/>
      <g clip-path="url(#f)">
        <g>
          <path d="M10.091,205.084c.314,1.233.092,2.438-.667,3.613-.429.652-.937,1.168-1.523,1.545-.628.389-1.514.728-2.657,1.02-1.637.418-3.285.427-4.946.028-.138-.027-.243-.18-.314-.459-.015-.058-.147-.558-.397-1.501-.249-.943-.384-1.453-.402-1.526-.025-.099.049-.171.222-.215l.506-.129c.147-.038.242-.009.284.085.078.305.178.594.301.869.321.707.87,1.252,1.646,1.636s1.728.431,2.855.144c1.529-.39,2.456-1.152,2.779-2.286.134-.507.108-1.122-.077-1.846-.166-.648-.525-1.113-1.078-1.392-.575-.396-1.568-.634-2.98-.712-1.573-.088-2.895-.396-3.967-.924-1.072-.528-1.8-1.544-2.185-3.05-.354-1.389-.045-2.734.928-4.034.761-1,1.901-1.693,3.424-2.082,1.677-.428,3.087-.395,4.229.102.159.074.262.166.308.276.229.519.49,1.356.784,2.506.044.173.029.268-.045.287l-.604.154c-.091.023-.161-.011-.21-.104-.14-.271-.306-.562-.499-.871-.284-.462-.688-.792-1.212-.992-.897-.322-1.941-.331-3.134-.026-.913.233-1.558.655-1.936,1.269-.418.693-.502,1.478-.254,2.35.168.588.582,1.097,1.243,1.522.335.213,1.398.433,3.189.658,1.069.139,1.851.268,2.346.387.83.2,1.561.486,2.19.86.888.527,1.506,1.473,1.854,2.837Z" fill="#fff"/>
          <path d="M22.778,204.499c-.004.053-.017.105-.04.155-.404.682-1,1.333-1.787,1.954-.83.659-1.723,1.111-2.676,1.354-1.521.388-2.84.269-3.954-.357-1.278-.716-2.17-1.842-2.676-3.377-.255-.794-.382-1.65-.38-2.57.006-1.315.291-2.409.857-3.28.606-.953,1.452-1.567,2.538-1.844.871-.222,1.78-.284,2.725-.183.82.088,1.617.362,2.391.822.537.317.946.617,1.227.895.089.074.154.193.196.358.025.098-.025.192-.151.281-.126.088-.624.347-1.491.774-.868.428-1.42.689-1.658.785-.475.2-.953.405-1.433.616-.918.384-1.521.612-1.809.686-.041.01-.207.057-.496.14-.29.083-.459.13-.509.143-.083.021-.065.227.052.617.477,1.56,1.266,2.729,2.368,3.509.371.254.918.388,1.638.396.631.005,1.243-.072,1.833-.231.915-.261,1.608-.599,2.079-1.018.299-.269.514-.512.643-.729.025-.033.061-.068.104-.106.041-.01.134.027.278.113.083.049.126.081.13.098ZM18.292,198.917c-.004-.016-.069-.114-.193-.292-.29-.311-.474-.501-.552-.568-.245-.201-.58-.399-1.006-.597-.605-.275-1.22-.333-1.845-.173-.526.134-.918.537-1.177,1.207-.087.242-.14.635-.159,1.177-.019.543.011.968.088,1.272.042.165.096.238.162.222.436-.111,1.019-.296,1.75-.552.249-.09.729-.313,1.439-.67.71-.356,1.166-.604,1.367-.742.109-.089.15-.184.125-.283Z" fill="#fff"/>
          <path d="M35.094,202.564c-.006.044-.032.116-.076.216-.312.526-.616.914-.911,1.166-.06.076-.131.125-.212.146-.601.153-1.278.083-2.032-.211-.754-.293-1.332-.712-1.734-1.258-.095-.133-.165-.133-.21,0-.176.579-.444,1.108-.804,1.585-.579.752-1.275,1.231-2.09,1.439-.625.16-1.217.158-1.775-.007-.635-.187-1.041-.626-1.217-1.318-.21-.822-.136-1.612.223-2.37.358-.757.945-1.41,1.76-1.96.857-.586,1.785-1.139,2.783-1.655.069-.037.088-.137.054-.304-.264-1.237-.475-2.063-.633-2.479-.155-.399-.416-.684-.782-.852-.407-.186-.886-.207-1.436-.066-.551.141-.979.368-1.284.683-.148.142-.187.348-.117.621l.123.481c.109.428.108.804-.001,1.13-.139.553-.533.911-1.183,1.077-.501.128-.806-.018-.913-.437-.099-.387-.017-.911.248-1.575.265-.663.625-1.21,1.085-1.644.717-.691,1.675-1.189,2.876-1.496,1.053-.269,1.946-.233,2.681.104.267.116.527.383.782.799.226.371.376.718.45,1.041l.997,4.883c.201.921.615,1.516,1.244,1.785.551.236,1.173.361,1.87.376.142.008.221.041.235.098ZM29.118,199.28c-.04-.156-.125-.217-.257-.183-.55.141-1.102.451-1.653.934-1.023.901-1.408,1.844-1.156,2.831.151.592.408.98.77,1.163.362.183.73.202,1.104.053.628-.248,1.125-.826,1.488-1.734.098-.235.135-.484.11-.751-.088-.826-.224-1.598-.407-2.313Z" fill="#fff"/>
          <path d="M40.691,202.567c.182,1.022-.211,2.156-1.181,3.402-.086.109-.223.241-.412.394-.31.123-.524.089-.642-.099-.062-.106.012-.313.222-.622.384-.588.506-1.276.367-2.064-.085-.434-.239-.679-.463-.735-.077-.025-.309.013-.694.112-.312.08-.637.026-.974-.159s-.548-.448-.634-.785c-.071-.278-.049-.535.067-.767.22-.406.715-.681,1.484-.825.594-.108,1.179.041,1.756.445.608.432.978.999,1.104,1.702Z" fill="#fff"/>
          <path d="M57.936,192.869c.315,1.233.093,2.438-.667,3.612-.43.653-.937,1.168-1.523,1.546-.628.388-1.514.728-2.657,1.02-1.636.417-3.284.427-4.946.028-.138-.027-.243-.179-.314-.458-.015-.058-.147-.559-.396-1.501-.25-.943-.384-1.453-.403-1.526-.025-.099.048-.171.221-.215l.506-.129c.148-.038.242-.009.284.085.078.305.178.593.301.869.32.707.869,1.252,1.646,1.636.777.384,1.729.432,2.855.144,1.528-.391,2.456-1.152,2.779-2.286.133-.507.107-1.122-.077-1.847-.166-.648-.525-1.113-1.078-1.392-.574-.396-1.568-.634-2.98-.712-1.573-.088-2.896-.397-3.967-.924-1.072-.528-1.8-1.543-2.184-3.049-.355-1.389-.046-2.734.928-4.034.761-1,1.901-1.693,3.423-2.082,1.678-.428,3.087-.395,4.23.102.158.074.261.166.307.276.229.519.491,1.356.785,2.506.044.173.029.269-.045.287l-.604.154c-.091.023-.161-.011-.211-.104-.14-.271-.306-.562-.498-.871-.285-.462-.688-.792-1.213-.992-.896-.322-1.941-.332-3.134-.027-.912.233-1.558.656-1.936,1.269-.418.694-.503,1.478-.254,2.35.168.589.582,1.097,1.243,1.522.334.213,1.398.433,3.19.658,1.068.139,1.851.268,2.345.387.831.2,1.562.486,2.191.86.888.527,1.506,1.473,1.854,2.837Z" fill="#fff"/>
          <path d="M70.624,192.284c-.004.053-.018.105-.039.154-.404.682-1,1.333-1.788,1.954-.83.66-1.722,1.111-2.676,1.354-1.521.389-2.839.27-3.954-.357-1.277-.716-2.169-1.842-2.675-3.377-.255-.794-.383-1.65-.38-2.57.005-1.315.291-2.408.856-3.28.606-.953,1.453-1.567,2.538-1.844.871-.223,1.78-.284,2.726-.183.82.088,1.616.362,2.391.822.537.318.946.617,1.227.895.088.074.155.193.197.358.025.098-.025.192-.151.281-.127.088-.623.348-1.49.775-.869.427-1.421.689-1.659.785-.475.2-.952.405-1.433.615-.919.384-1.521.612-1.809.686-.041.01-.207.057-.497.14-.29.083-.459.13-.508.143-.083.021-.065.227.052.617.477,1.561,1.266,2.73,2.367,3.509.372.255.918.388,1.638.396.632.005,1.244-.072,1.833-.23.914-.261,1.607-.599,2.079-1.018.299-.269.513-.512.642-.729.026-.033.062-.067.104-.105.042-.011.135.027.279.113.082.05.126.082.13.098ZM66.137,186.702c-.004-.016-.068-.113-.193-.292-.29-.311-.474-.501-.552-.568-.244-.201-.58-.399-1.007-.597-.604-.275-1.22-.333-1.845-.173-.525.134-.917.537-1.176,1.207-.088.242-.14.635-.159,1.178-.019.543.01.968.088,1.271.042.165.096.238.162.222.436-.111,1.019-.295,1.751-.552.248-.091.728-.313,1.438-.67.71-.356,1.167-.604,1.367-.743.109-.089.151-.184.126-.283Z" fill="#fff"/>
          <path d="M85.508,190.375c.029.115.02.179-.029.191l-5.896,1.505c-.083.021-.134-.009-.155-.091l-.117-.457c-.021-.081.001-.132.067-.148l1.295-.331c.148-.038.207-.118.175-.242-.029-.114-.12-.231-.273-.351-.616-.526-1.75-1.484-3.401-2.875-.102-.088-.194-.074-.277.044-.783,1.05-1.3,1.875-1.55,2.472-.375.866-.515,1.484-.42,1.854.09.354.287.493.592.415l1.159-.296c.065-.017.114.033.143.147l.092.358c.029.115-.006.186-.104.21l-4.823,1.231c-.115.029-.183.003-.204-.079l-.129-.506c-.017-.065.024-.111.123-.136l.888-.227c.173-.044.297-.176.371-.397.023-.049.136-.31.339-.782.543-1.234,1.057-2.211,1.539-2.929.562-.817,1.003-1.421,1.324-1.81.099-.13.109-.225.033-.284-.653-.534-1.459-1.151-2.417-1.852-1.089-.8-1.833-1.329-2.231-1.586-.357-.233-.758-.293-1.202-.18l-.555.142c-.082.021-.134-.009-.155-.092l-.116-.456c-.025-.099.003-.159.085-.18l5.81-1.483c.065-.017.109.017.13.099l.123.48c.017.066-.016.109-.099.13l-1.061.271c-.206.052-.291.145-.258.277.038.147.205.341.503.581.434.361,1.303,1.055,2.607,2.08.119.092.21.069.271-.069.302-.498.699-1.155,1.191-1.972.322-.556.41-1.117.266-1.686-.061-.238-.231-.322-.51-.25l-1.061.271c-.074.019-.119-.004-.136-.07l-.123-.48c-.003-.044,0-.077.007-.101s.048-.045.122-.064l4.773-1.219c.082-.021.131.002.148.068l.129.505c.021.083-.018.136-.116.161l-.766.195c-.23.059-.415.242-.556.551-.389.843-.945,1.853-1.67,3.027-.247.405-.589.935-1.027,1.59-.082.125-.062.235.058.326,1.663,1.267,2.965,2.283,3.905,3.049,1.032.85,1.745,1.224,2.14,1.124l.814-.208c.049-.013.082.015.099.08l.117.456Z" fill="#fff"/>
          <path d="M113.424,180.121c.078.305.085.61.023.914-.219.993-.587,1.832-1.104,2.517-.258.328-.625.554-1.102.676-.963.246-1.875.344-2.736.297s-1.578-.142-2.149-.286c-.186-.041-.339-.009-.462.092-1.267,1.111-3.052,1.961-5.354,2.549-3.01.768-5.318.75-6.926-.058-1.376-.69-2.291-1.99-2.743-3.898-.25-1.049-.253-2.143-.01-3.282.156-.696.408-1.242.758-1.638.35-.396.648-.709.896-.938.084-.048.051-.144-.101-.29-.2-.203-.442-.447-.726-.734-.354-.426-.59-.871-.708-1.331-.059-.23,0-.52.172-.872.567-1.108,1.246-1.999,2.037-2.674.152-.126.479-.253.98-.381.649-.166,1.345-.256,2.085-.271.56-.002,1.012.053,1.356.167.258.083.382.178.375.285.023.502.005,1.134-.056,1.893-.032.385-.091.589-.172.61-.05.013-.194-.07-.431-.245-.21-.139-.505-.261-.882-.367-.995-.262-1.958-.275-2.887-.038-.641.164-.904.471-.789.923.052.206.211.437.479.692.643.633,1.385,1.258,2.226,1.876,1.316.969,2.373,1.659,3.169,2.068.062.038.112.063.151.08.155.057.215.019.181-.112-.329-1.291-.152-2.331.531-3.118.709-.829,1.58-1.376,2.616-1.641.839-.214,1.825-.312,2.96-.297.94.015,1.966-.12,3.076-.403.6-.153,1.032-.399,1.296-.739.336-.435.397-.863.186-1.282-.087-.17-.107-.283-.061-.34.11-.185.23-.296.362-.329.041-.011.134.028.279.114.206.122.376.376.51.762.288.786.333,1.444.137,1.976-.338.91-.853,1.465-1.545,1.668-.962.281-1.763.367-2.404.259-.101-.018-.157,0-.169.056-.014.048.018.105.097.173.511.492.899,1.137,1.165,1.937.057.187.106.366.15.54.372,1.455.231,2.822-.424,4.103-.045.098.002.179.141.239.237.141.729.23,1.474.268.579.037,1.115-.008,1.608-.134.74-.189,1.306-.785,1.699-1.788.1-.261.181-.387.245-.377.078-.001.206,0,.383.008.072.008.117.048.136.123ZM104.646,183.769c-.781-.143-1.73-.448-2.849-.916-1.48-.62-2.743-1.24-3.785-1.858-1.92-1.139-3.395-2.182-4.425-3.127-.118-.084-.221-.093-.309-.026-.713.638-.88,1.7-.5,3.189.41,1.604,1.373,2.856,2.89,3.755.888.528,2,.8,3.335.817.863.017,1.8-.104,2.812-.362,1.167-.298,2.083-.694,2.745-1.187.222-.162.25-.257.085-.285ZM106.629,177.849c-.262-1.028-.792-1.765-1.589-2.209-.852-.589-1.848-.737-2.991-.445-.781.2-1.359.527-1.733.981-.086.109-.161.331-.225.662-.07.412-.059.8.033,1.161.22.863.553,1.427.996,1.689.496.294,1.234.632,2.217,1.011,1.062.42,1.935.702,2.619.843.249.05.413-.01.493-.179.462-1.002.523-2.173.18-3.514Z" fill="#fff"/>
          <path d="M131.154,174.175c.315,1.233.093,2.438-.667,3.613-.43.652-.937,1.168-1.523,1.545-.628.389-1.514.728-2.657,1.02-1.636.418-3.284.427-4.946.028-.138-.027-.243-.18-.314-.459-.015-.058-.147-.558-.396-1.501-.25-.943-.384-1.453-.403-1.526-.025-.099.048-.17.221-.214l.506-.129c.148-.038.242-.009.284.085.078.305.178.594.301.869.32.707.87,1.252,1.646,1.636s1.729.431,2.855.144c1.528-.39,2.456-1.152,2.779-2.286.133-.507.107-1.122-.077-1.846-.166-.648-.525-1.113-1.078-1.392-.574-.396-1.568-.634-2.98-.712-1.573-.088-2.896-.396-3.967-.924-1.072-.528-1.8-1.544-2.184-3.05-.355-1.389-.046-2.734.928-4.034.761-1,1.901-1.693,3.423-2.082,1.678-.428,3.087-.395,4.23.102.159.074.261.166.307.276.229.519.491,1.356.785,2.506.044.173.029.268-.045.287l-.604.154c-.091.023-.161-.011-.211-.104-.14-.271-.306-.562-.498-.871-.285-.462-.688-.792-1.213-.992-.896-.322-1.941-.331-3.134-.026-.912.232-1.558.655-1.936,1.269-.418.693-.503,1.478-.254,2.35.168.588.582,1.097,1.243,1.522.334.213,1.398.432,3.19.657,1.068.139,1.851.268,2.345.387.831.2,1.562.486,2.191.86.888.527,1.506,1.473,1.854,2.837Z" fill="#fff"/>
          <path d="M146.306,174.499c.017.064-.01.132-.079.203-.374.183-.804.403-1.29.658-.15.1-.346.245-.585.438-.084.082-.134.126-.15.13-.065.017-.192-.017-.381-.101-.363-.152-.842-.621-1.436-1.406-.069-.097-.153-.083-.252.039-.244.351-.878,1.006-1.902,1.97-.402.312-1.159.61-2.268.893-.716.183-1.399.047-2.049-.409-.611-.44-1.01-1.022-1.195-1.746l-1.219-4.773c-.529-2.072-.97-3.063-1.324-2.973l-1.369.349c-.115.03-.183.003-.205-.079l-.129-.506c-.021-.082.002-.131.067-.148l1.591-.406c.766-.195,1.372-.39,1.822-.583.341-.139.594-.229.758-.271.107-.027.188.069.245.292.004.016.317,1.273.938,3.773.62,2.5.958,3.857,1.013,4.07.201.791.461,1.282.778,1.477s.837.2,1.561.015c.657-.168,1.273-.482,1.848-.944.258-.258.521-.515.789-.768.083-.021.106-.101.07-.24l-1.587-6.217c-.292-1.143-.59-1.676-.895-1.598l-1.344.343c-.115.03-.183.003-.204-.079l-.129-.506c-.021-.082.009-.134.091-.155l1.925-.491c.542-.139,1-.281,1.375-.429.062-.033.194-.089.397-.167.204-.079.337-.129.4-.155.111-.046.199.06.265.314.008.032.329,1.323.962,3.873.633,2.549.967,3.89,1,4.022.3,1.176.925,1.887,1.872,2.136.133.037.207.088.224.154Z" fill="#fff"/>
          <path d="M160.668,171.213c.025.099.005.156-.061.172l-5.255,1.342c-.082.021-.132-.002-.148-.067l-.129-.506c-.021-.083.01-.133.092-.154l.938-.239c.09-.023.138-.11.144-.261-.155-1.02-.574-2.866-1.256-5.54-.345-1.348-.762-2.19-1.25-2.525s-1.103-.408-1.843-.219c-.724.185-1.431.5-2.122.95-.128.084-.169.214-.125.387.041.365.511,2.309,1.409,5.828.427,1.669.775,2.469,1.046,2.4l1.234-.315c.09-.023.146.006.167.089l.129.506c.017.065-.02.11-.11.133l-5.711,1.458c-.041.01-.074.009-.099,0-.025-.011-.046-.05-.062-.115l-.123-.481c-.017-.065.016-.109.098-.13l1.419-.362c.131-.034.181-.13.149-.288-.891-3.696-1.533-6.314-1.926-7.852-.312-1.225-.604-1.803-.876-1.734l-1.442.369c-.1.025-.161-.011-.186-.11l-.123-.481c-.019-.074.004-.12.069-.136l1.666-.425c.525-.134.945-.258,1.257-.373.777-.286,1.194-.437,1.251-.452.115-.029.197.051.245.24.011.041.045.192.103.453.058.262.094.42.109.478.069.272.148.361.239.268.333-.374.765-.79,1.296-1.25.617-.534,1.226-.878,1.826-1.031,1.077-.275,1.977-.198,2.699.23.847.502,1.474,1.55,1.881,3.146.141.551.361,1.481.661,2.794.299,1.312.446,1.955.44,1.931.241.944.323,1.297.243,1.054.14.446.288.649.445.609l1.295-.331c.099-.025.154-.013.167.036l.129.507Z" fill="#fff"/>
        </g>
      </g>
      <path d="M99.354,173.851c0,13.398-23.924,13.972-22.202,34.834l-4.593-36.365,26.795,1.531Z" fill="#42496f"/>
      <path d="M13.61,151.65s40.575-28.9,84.213-21.053l1.531,43.255s-28.326,6.89-78.089,27.178l-7.656-49.38Z" fill="#efa78e"/>
      <g clip-path="url(#g)">
        <g>
          <path d="M51.008,167.886c.315,1.233.092,2.438-.667,3.613-.43.653-.938,1.168-1.524,1.545-.628.389-1.513.728-2.656,1.02-1.636.418-3.285.427-4.946.027-.138-.026-.242-.178-.313-.458-.015-.058-.147-.559-.397-1.503-.25-.942-.383-1.452-.403-1.525-.025-.099.049-.171.222-.215l.505-.129c.148-.038.243-.009.285.085.078.305.178.594.301.869.32.707.869,1.252,1.646,1.636.777.384,1.729.431,2.856.144,1.529-.39,2.456-1.152,2.78-2.286.133-.507.107-1.122-.077-1.846-.166-.648-.525-1.113-1.078-1.392-.575-.396-1.568-.634-2.98-.712-1.573-.088-2.896-.396-3.968-.924-1.072-.528-1.8-1.544-2.184-3.05-.355-1.389-.045-2.733.928-4.034.761-1,1.901-1.693,3.423-2.082,1.678-.428,3.087-.395,4.23.102.159.074.261.166.307.276.229.519.49,1.355.784,2.506.044.173.029.268-.045.287l-.604.154c-.091.023-.16-.011-.21-.104-.14-.272-.306-.562-.499-.871-.285-.462-.688-.792-1.212-.992-.896-.322-1.941-.332-3.134-.027-.913.233-1.559.655-1.936,1.27-.419.692-.503,1.478-.254,2.35.168.589.582,1.097,1.242,1.522.335.213,1.398.433,3.19.658,1.069.139,1.851.268,2.345.387.831.2,1.561.486,2.19.859.888.527,1.506,1.473,1.854,2.837Z" fill="#fff"/>
          <path d="M63.695,167.301c-.004.053-.017.105-.039.155-.404.682-1,1.333-1.788,1.954-.83.658-1.722,1.111-2.676,1.354-1.521.388-2.84.269-3.954-.357-1.278-.716-2.169-1.842-2.675-3.377-.255-.794-.382-1.65-.38-2.57.005-1.315.291-2.408.857-3.28.606-.952,1.453-1.567,2.538-1.844.871-.223,1.779-.284,2.726-.184.819.088,1.616.362,2.391.821.537.318.945.618,1.227.896.089.074.155.193.197.358.025.098-.025.192-.151.281-.127.088-.624.347-1.491.774-.868.428-1.421.689-1.659.785-.475.2-.952.405-1.433.616-.919.383-1.521.612-1.81.686-.041.01-.206.057-.496.14-.29.082-.459.129-.509.142-.082.021-.064.227.053.617.477,1.56,1.266,2.729,2.367,3.509.371.254.918.388,1.638.396.632.005,1.244-.073,1.833-.231.915-.26,1.608-.599,2.079-1.018.3-.269.514-.513.642-.729.026-.033.062-.068.104-.105.041-.011.134.027.279.113.082.05.125.081.129.098ZM59.209,161.719c-.004-.016-.069-.113-.193-.292-.29-.311-.474-.501-.552-.568-.245-.201-.58-.399-1.007-.597-.604-.275-1.22-.333-1.845-.173-.526.134-.918.537-1.176,1.207-.087.242-.14.634-.159,1.177-.019.544.01.968.088,1.272.042.165.096.238.161.222.437-.111,1.02-.296,1.751-.552.249-.09.728-.313,1.438-.67.711-.356,1.167-.604,1.367-.742.109-.09.151-.184.126-.283Z" fill="#fff"/>
          <path d="M76.011,165.366c-.007.044-.031.116-.076.215-.312.527-.616.915-.911,1.167-.06.076-.13.125-.212.146-.6.153-1.277.083-2.031-.212-.753-.293-1.332-.712-1.734-1.258-.095-.133-.165-.133-.21,0-.176.58-.444,1.109-.804,1.585-.579.752-1.275,1.231-2.089,1.439-.625.16-1.217.158-1.775-.006-.636-.188-1.041-.627-1.217-1.318-.21-.822-.136-1.612.222-2.369.359-.757.945-1.411,1.76-1.961.857-.586,1.785-1.139,2.783-1.656.069-.036.088-.136.054-.303-.263-1.237-.474-2.063-.633-2.479-.155-.399-.415-.684-.782-.852-.407-.185-.886-.207-1.437-.066s-.979.368-1.284.683c-.147.142-.187.348-.117.62l.123.482c.109.428.108.804,0,1.13-.139.553-.534.911-1.183,1.077-.502.128-.807-.018-.913-.437-.099-.387-.016-.912.248-1.575.265-.664.626-1.21,1.085-1.644.717-.691,1.676-1.189,2.876-1.496,1.052-.269,1.946-.233,2.68.103.267.117.526.384.782.8.226.371.376.718.45,1.041l.996,4.883c.201.921.615,1.516,1.245,1.785.55.236,1.173.361,1.869.375.143.009.22.041.235.099ZM70.035,162.082c-.04-.156-.125-.217-.257-.183-.551.141-1.102.451-1.653.934-1.023.901-1.408,1.844-1.156,2.831.151.592.408.98.77,1.163.362.183.73.202,1.104.053.629-.248,1.125-.826,1.489-1.733.097-.235.134-.485.11-.751-.088-.826-.224-1.598-.407-2.313Z" fill="#fff"/>
          <path d="M81.609,165.369c.182,1.021-.212,2.156-1.181,3.402-.086.109-.224.241-.412.395-.311.123-.524.089-.643-.1-.062-.106.013-.313.223-.621.384-.588.505-1.277.367-2.065-.085-.434-.239-.679-.464-.735-.077-.025-.308.013-.694.112-.312.08-.637.026-.973-.159-.336-.187-.548-.448-.634-.785-.071-.279-.049-.535.067-.766.22-.407.715-.681,1.484-.825.594-.108,1.18.041,1.756.445.609.432.978.999,1.104,1.702Z" fill="#fff"/>
          <path d="M98.854,155.671c.315,1.233.092,2.438-.667,3.612-.429.653-.937,1.168-1.523,1.546-.628.388-1.514.728-2.657,1.02-1.636.417-3.285.427-4.946.027-.138-.026-.243-.178-.314-.458-.015-.058-.147-.559-.396-1.502-.25-.942-.384-1.452-.403-1.525-.025-.099.049-.17.222-.215l.506-.129c.148-.038.243-.009.284.085.078.305.178.593.301.869.32.707.869,1.252,1.646,1.636s1.729.432,2.855.144c1.529-.391,2.456-1.152,2.779-2.286.133-.507.108-1.122-.077-1.847-.166-.648-.525-1.113-1.078-1.392-.574-.396-1.568-.634-2.98-.712-1.573-.088-2.896-.396-3.967-.924-1.072-.528-1.8-1.543-2.185-3.049-.354-1.389-.045-2.734.928-4.034.76-1,1.901-1.693,3.423-2.082,1.678-.428,3.088-.395,4.23.102.159.073.261.165.307.276.229.519.491,1.355.785,2.506.044.173.03.269-.044.287l-.604.154c-.091.023-.161-.011-.21-.103-.14-.272-.306-.562-.499-.872-.284-.462-.688-.792-1.212-.992-.897-.322-1.942-.333-3.134-.028-.913.233-1.558.656-1.936,1.27-.418.693-.503,1.478-.254,2.35.168.589.582,1.097,1.243,1.522.334.213,1.398.433,3.189.658,1.069.139,1.851.268,2.345.387.831.2,1.561.486,2.191.86.888.527,1.506,1.473,1.854,2.837Z" fill="#fff"/>
          <path d="M111.541,155.085c-.004.053-.017.105-.039.154-.404.682-1,1.333-1.788,1.955-.83.658-1.722,1.11-2.676,1.354-1.521.389-2.839.27-3.954-.357-1.278-.716-2.169-1.842-2.675-3.377-.255-.794-.382-1.65-.38-2.57.005-1.315.291-2.409.857-3.28.606-.953,1.453-1.567,2.538-1.844.872-.223,1.78-.284,2.726-.183.82.088,1.616.362,2.391.821.537.319.946.618,1.227.896.089.074.155.194.197.359.025.098-.025.191-.151.281-.126.089-.623.348-1.49.775-.868.427-1.421.689-1.659.785-.474.2-.952.405-1.433.615-.918.383-1.521.612-1.809.686-.041.011-.207.057-.497.14-.29.083-.459.13-.509.143-.082.021-.064.227.053.617.478,1.561,1.267,2.73,2.368,3.509.372.255.918.388,1.638.396.631.005,1.243-.073,1.833-.231.914-.261,1.607-.599,2.079-1.018.299-.269.514-.513.642-.729.026-.033.061-.067.104-.105.041-.011.134.027.279.113.082.05.125.082.13.098ZM107.054,149.503c-.004-.016-.068-.113-.193-.292-.289-.311-.474-.501-.552-.568-.245-.201-.58-.399-1.007-.597-.604-.275-1.219-.333-1.844-.173-.526.134-.918.537-1.176,1.207-.087.242-.14.634-.159,1.178-.019.543.011.968.088,1.271.042.165.097.239.162.222.436-.111,1.019-.295,1.751-.552.248-.091.729-.313,1.438-.67.71-.356,1.166-.604,1.367-.743.109-.09.151-.184.125-.283Z" fill="#fff"/>
          <path d="M126.425,153.177c.029.115.02.179-.029.191l-5.896,1.505c-.082.021-.133-.009-.155-.091l-.116-.457c-.021-.081,0-.131.067-.148l1.295-.331c.148-.038.206-.118.174-.242-.029-.114-.12-.231-.273-.351-.617-.526-1.75-1.484-3.401-2.876-.102-.087-.194-.073-.278.045-.783,1.05-1.299,1.875-1.55,2.472-.375.866-.514,1.484-.42,1.854.091.354.288.493.592.415l1.159-.296c.066-.017.114.033.144.147l.091.358c.029.115-.005.186-.104.21l-4.823,1.231c-.116.029-.183.003-.205-.079l-.129-.507c-.017-.064.024-.11.123-.135l.888-.227c.173-.044.297-.176.372-.397.022-.049.135-.31.338-.782.544-1.234,1.057-2.211,1.539-2.929.562-.817,1.003-1.421,1.325-1.81.099-.13.109-.225.033-.284-.653-.534-1.459-1.151-2.417-1.852-1.089-.8-1.832-1.329-2.231-1.586-.357-.233-.758-.293-1.202-.18l-.555.142c-.083.021-.134-.009-.155-.092l-.117-.456c-.025-.099.003-.159.086-.18l5.81-1.483c.065-.017.109.017.13.099l.123.48c.017.066-.016.109-.099.13l-1.061.271c-.205.052-.291.145-.258.277.038.147.206.341.503.581.434.361,1.303,1.055,2.607,2.08.12.092.21.069.271-.069.302-.498.7-1.155,1.192-1.973.322-.555.411-1.116.266-1.685-.061-.238-.23-.322-.511-.25l-1.061.271c-.074.019-.119-.004-.136-.07l-.123-.48c-.003-.044,0-.077.007-.101s.048-.045.122-.064l4.773-1.219c.082-.021.131.002.148.068l.129.505c.021.083-.018.136-.116.161l-.765.195c-.23.059-.416.242-.556.551-.389.843-.945,1.853-1.67,3.027-.247.405-.589.935-1.027,1.59-.081.126-.062.235.058.326,1.663,1.267,2.966,2.283,3.906,3.05,1.032.85,1.745,1.224,2.139,1.123l.814-.208c.049-.013.082.015.099.079l.116.457Z" fill="#fff"/>
          <path d="M154.341,142.923c.078.305.085.609.022.914-.219.993-.587,1.832-1.104,2.517-.258.328-.625.554-1.102.676-.962.246-1.875.344-2.735.297-.862-.047-1.579-.142-2.149-.286-.186-.041-.34-.009-.463.091-1.267,1.112-3.051,1.961-5.354,2.549-3.009.768-5.318.75-6.926-.058-1.376-.691-2.291-1.99-2.742-3.898-.25-1.049-.254-2.143-.011-3.282.155-.696.407-1.243.758-1.638.35-.396.648-.709.896-.938.084-.048.051-.144-.1-.29-.201-.204-.443-.448-.726-.734-.354-.426-.59-.871-.708-1.331-.059-.23,0-.52.172-.872.566-1.108,1.246-1.999,2.037-2.675.152-.125.478-.252.98-.38.649-.166,1.345-.256,2.085-.27.56-.003,1.012.052,1.357.167.257.083.382.178.375.285.023.502.005,1.134-.056,1.893-.033.385-.091.589-.173.61-.049.013-.192-.07-.43-.246-.211-.139-.505-.261-.882-.366-.996-.262-1.958-.275-2.887-.038-.642.164-.904.471-.789.923.053.206.213.437.479.692.643.633,1.385,1.258,2.226,1.876,1.316.969,2.373,1.659,3.169,2.068.062.036.112.062.151.079.154.057.215.02.182-.112-.33-1.29-.153-2.33.531-3.118.708-.829,1.58-1.376,2.616-1.641.839-.214,1.825-.312,2.959-.295.94.015,1.966-.121,3.076-.404.6-.153,1.033-.399,1.296-.739.336-.435.397-.863.186-1.282-.087-.17-.107-.283-.061-.339.11-.186.231-.296.362-.33.042-.011.134.027.279.114.206.122.376.376.51.762.288.786.334,1.444.136,1.976-.337.91-.852,1.466-1.544,1.668-.962.281-1.763.367-2.404.259-.101-.018-.157,0-.169.056-.015.048.018.105.096.173.512.492.899,1.137,1.165,1.936.056.188.106.367.151.541.372,1.455.23,2.822-.424,4.102-.045.099.002.18.14.24.237.142.729.23,1.474.268.579.036,1.114-.008,1.608-.134.739-.189,1.306-.786,1.698-1.788.1-.262.182-.388.245-.378.078-.002.206,0,.384.008.071.007.117.048.136.122ZM145.563,146.57c-.781-.143-1.729-.448-2.849-.916-1.48-.62-2.742-1.24-3.785-1.858-1.919-1.139-3.395-2.182-4.424-3.127-.118-.084-.221-.093-.309-.026-.713.638-.879,1.7-.5,3.188.41,1.604,1.373,2.856,2.89,3.756.888.527,2,.799,3.335.816.863.017,1.799-.104,2.811-.363,1.168-.298,2.083-.694,2.746-1.187.221-.162.25-.257.084-.284ZM147.546,140.651c-.262-1.028-.792-1.765-1.588-2.209-.852-.589-1.848-.737-2.992-.445-.781.2-1.358.527-1.733.981-.085.109-.16.331-.225.662-.07.412-.059.8.033,1.161.221.863.553,1.427.997,1.689.496.294,1.234.632,2.216,1.011,1.062.421,1.935.702,2.62.843.249.05.413-.01.493-.179.462-1.002.522-2.174.18-3.514Z" fill="#fff"/>
          <path d="M172.071,136.977c.315,1.233.092,2.438-.667,3.613-.429.653-.937,1.168-1.523,1.545-.628.389-1.514.728-2.657,1.02-1.636.418-3.285.427-4.946.027-.138-.026-.243-.179-.314-.458-.015-.058-.147-.558-.396-1.502-.25-.942-.384-1.452-.402-1.525-.025-.099.048-.171.221-.215l.506-.129c.148-.038.243-.009.284.085.078.305.178.594.301.869.32.707.869,1.252,1.646,1.636s1.729.431,2.855.144c1.529-.39,2.456-1.152,2.779-2.286.133-.507.108-1.122-.077-1.846-.166-.648-.525-1.113-1.078-1.392-.574-.396-1.568-.634-2.98-.712-1.573-.088-2.896-.396-3.967-.924-1.072-.528-1.8-1.544-2.185-3.05-.354-1.389-.045-2.733.928-4.034.76-1,1.901-1.693,3.423-2.082,1.678-.428,3.088-.395,4.23.102.159.074.261.166.307.276.229.519.491,1.355.785,2.506.044.173.03.268-.044.287l-.604.154c-.091.023-.161-.011-.21-.104-.14-.272-.306-.562-.499-.871-.284-.462-.688-.792-1.212-.992-.897-.322-1.942-.332-3.134-.027-.913.233-1.558.655-1.936,1.27-.418.692-.503,1.478-.254,2.35.168.589.582,1.097,1.243,1.522.334.213,1.398.433,3.189.658,1.069.139,1.851.268,2.345.387.831.2,1.561.485,2.191.859.888.527,1.506,1.473,1.854,2.837Z" fill="#fff"/>
          <path d="M187.223,137.3c.017.065-.01.133-.079.205-.374.183-.804.402-1.29.658-.15.1-.345.246-.584.438-.084.082-.134.126-.151.13-.066.017-.192-.017-.38-.101-.363-.152-.842-.621-1.437-1.406-.068-.097-.152-.084-.252.038-.244.351-.877,1.007-1.901,1.971-.402.312-1.159.61-2.269.893-.715.183-1.398.047-2.049-.409-.612-.44-1.01-1.021-1.195-1.745l-1.219-4.773c-.529-2.072-.971-3.063-1.324-2.973l-1.369.35c-.115.029-.184.003-.205-.079l-.129-.506c-.021-.082.002-.131.067-.148l1.591-.406c.765-.195,1.372-.39,1.822-.583.341-.139.594-.229.758-.271.107-.027.189.069.246.292.004.016.316,1.273.937,3.774.621,2.5.958,3.856,1.013,4.07.202.79.461,1.282.777,1.477.317.195.838.2,1.562.015.657-.168,1.273-.482,1.848-.944.258-.258.521-.515.79-.767.082-.021.106-.101.07-.241l-1.587-6.217c-.292-1.143-.59-1.676-.895-1.598l-1.344.343c-.116.03-.184.003-.205-.08l-.129-.505c-.021-.082.01-.134.092-.156l1.925-.491c.542-.139,1-.281,1.375-.429.062-.033.194-.089.397-.167.203-.079.336-.129.4-.155.111-.046.199.06.264.313.009.033.329,1.324.963,3.874.633,2.549.967,3.89,1,4.022.301,1.176.925,1.887,1.873,2.136.132.037.207.087.223.153Z" fill="#fff"/>
          <path d="M201.585,134.015c.025.098.005.156-.06.172l-5.255,1.342c-.083.021-.132-.002-.149-.067l-.129-.506c-.021-.083.01-.133.092-.154l.938-.239c.091-.023.138-.11.144-.261-.155-1.02-.574-2.866-1.256-5.54-.344-1.348-.761-2.19-1.25-2.525-.488-.335-1.103-.408-1.842-.219-.724.185-1.431.5-2.123.95-.127.084-.169.213-.125.387.041.365.511,2.309,1.409,5.828.426,1.669.775,2.469,1.047,2.4l1.233-.315c.091-.023.146.006.167.089l.129.506c.017.065-.02.11-.11.133l-5.711,1.458c-.041.01-.074.009-.099,0-.025-.011-.045-.05-.062-.115l-.123-.482c-.017-.064.016-.108.098-.129l1.419-.362c.131-.034.181-.13.149-.289-.892-3.696-1.533-6.312-1.926-7.851-.313-1.225-.604-1.803-.876-1.734l-1.443.368c-.099.025-.161-.011-.186-.11l-.123-.481c-.019-.074.004-.12.07-.136l1.665-.425c.526-.134.946-.258,1.258-.373.776-.286,1.193-.437,1.251-.452.115-.029.197.051.245.24.011.041.045.191.103.453.058.261.095.42.109.478.069.271.148.361.239.268.333-.375.766-.791,1.296-1.25.617-.534,1.226-.878,1.826-1.031,1.077-.275,1.977-.198,2.699.23.847.501,1.474,1.55,1.881,3.146.141.551.361,1.482.661,2.793.3,1.312.446,1.956.44,1.931.241.945.322,1.298.243,1.056.14.445.288.649.444.609l1.295-.331c.099-.025.154-.013.167.036l.129.507Z" fill="#fff"/>
        </g>
      </g>
    </g>
  </g>
</svg>