<?xml version="1.0" encoding="UTF-8"?>
<svg id="a" data-name="bateau 01" xmlns="http://www.w3.org/2000/svg" width="300" height="300" xmlns:xlink="http://www.w3.org/1999/xlink" viewBox="0 0 300 300">
  <defs>
    <clipPath id="b">
      <path d="M126.772,270.147c-.714.568-1.284,1.023-1.977,1.575-.003-.058.007.152.018.393-3.196-.319-3.327-2.383-.098-2.884,1.266-.458,1.292-1.73,1.796-3.082-1.457.556-2.442.47-3.814.697.252.876.893.851,1.45,1.442-.481.508-1.165.591-1.771.508-.164-1.022-1.028-2.49.117-3.246,1.081-.446-.186-1.686-.567-2.013-.576.277-1.111.961-.617,1.595.308.467.508.864-.116,1.321-1.184,3.272-3.027-.469-4.858-1.096.043-.188.129-.569.249-1.096-1.736,1.039-.908-3.182-2.925-.821-1.624-1.05-2.16-4.844-4.273-4.346-.195.121-.721-.087-.862-.323-.793-2.584-3.2-3.697-4.05-6.08-.648-1.513-1.976-2.377-3.113-3.449-.105-.152-.742-.109-.861.057-.955,1.197-2.936.12-3.038-1.301-.305-.566-1.47-1.131-1.391-1.989-.993-1.138.043-1.066.753-1.648-.713-.298-.871-.891-.862-1.733.182-.805-1.666-2.151-.396-2.576,1.456-.278.308-1.173.293-2.22-.995,1.425-2.019,2.272-3.674,2.052-.749.61-1.209.199-1.709-.265-1.289-1.414-3.222.461-4.368,1.389.096-3.759-4.685.9-6.54,1.179-.045-1.293-1.546-2.313-2.535-1.037-2.249-.607-2.976-3.952-4.684-5.586-.354-1.535-2.399-1.151-2.496-2.62-.174-1.629-2.3-1.873-2.288-3.673-1.441-.59-1.123-2.543-2.161-3.441-1.784-2.289-6.496-5.151-5.755-8.104.894-.917,0-1.194-.607-1.76-.469-1.012-1.005-.044-1.776-.239,1.881-2.059-1.466-2.334,1.303-5.969.307-.896-.85-.648-1.11-.104-.689,1.234-1.677,1.063-2.634.934-.512-.549-.059-1.924-1.332-1.664-.087-.365-.174-.73-.265-1.114-1.241.3-1.93,1.597-.515,2.208-1.318,1.253-3.583,4.501-4.84,1.678-1.488.342-1.344-2.237-2.996-.947-.081-.699-.146-1.267-.22-1.908-.179.118-.405.268-.633.418-.357-.743-.386-1.794-1.555-1.625-.128-.956-.256-1.902-.401-2.984-.273.4-.459.674-.57.836-1.739-.398-2.103-2.224-3.029-3.533-.095.013-.19.027-.285.04-.063.335-.127.67-.19,1.006-.1-.005-.2-.01-.301-.014.267-3.392-2.866-4.422-3.859-7.278.268-1.007.296-1.422-.313-2.239-.385.414-.736.792-1.218,1.311-.78-.576-.39-2-1.553-1.698-.335-1.357-.028-2.349.869-3.26-.982-1.094,1.552-3.478-.432-3.648-.108.467-.211.908-.313,1.349h-.215c.026-1.112.053-2.223.084-3.524,2.431,1.178,2.282-2.245,2.499-3.943-.967.712-1.639,2.005-2.82,1.039.176.3.352.6.614,1.048-.519.131-.969.245-1.271.321-.347-1.909.465-3.139,1.711-4.501.127.086.294.199.395.268,2.901-4.637,5.805-9.825,10.004-13.792-1.101-.897-1.671-2.744-.22-3.567.661.055,1.365.339,1.709.081.63-.781,1.133-1.841-.331-2.352-.007-1.37,1.816-2.873.508-4.08-.762-.851-.499-2.634-1.967-2.737-1.541-.467-2.351.923-3.668,1.337-1.282-.241-1.534,1.02-2.196,1.866-.778-.443-1.737-.572-2.254-1.223-.354-1.428-1.427-.995-2.579-1.251.279-.295.512-.541.756-.799-1.61-.454-1.243,1.18-.684,1.971-.347.287-.659.544-1.161.959-.146-.998.719-2.27-.491-2.696-2.003-.024-2.094-3.775-4.13-2.353.013-.316.026-.622.039-.933-1.119-.022-1.15-.978-1.739-1.663-2.298-1.886-1.623-1.258-2.3-3.981-.202.134-.39.26-.632.421-.647-.984-1.563-1.132-1.856-2.568-1.328-2.881-5.346-3.058-7.079-5.386-.585.083-1.041.148-1.601.228,1.383-2.045.167-3.317.285-5.289.802-1.974,1.602-3.943,2.4-5.907l.357.032c-.084.989-.167,1.98-.27,3.197.814-.916.531-1.853.959-2.706.183.12.335.22.487.32.067-.034.134-.067.201-.101.024-1.515-1.858-.945-.615-2.467,8.097-15.249,14.395-31.292,23.079-46.174.452-.861.735-1.603,1.645-.565,1.744.56,1.811-2.35,3.56-2.194.431-.026.743-1.269.438-1.892-.072.32-.123.543-.188.83-.996.023-1.962.045-2.946.068.288-2.054,2.598-2.155,4.1-1.523,1.683-2.489,2.304-6.224,5.744-6.788-.14-.172-.266-.327-.539-.662,2.52-.59,4.58,2.546,6.67,1.905.44-.39.743-.297.818.309-.216.079-.43.157-.716.261,4.26,1.531,8.617,5.253,12.519,6.025.919,2.415,2.378-.584,3.433-1.49.519-.833,1.393-.071,2.021-.601,8.953-9.038,16.928-19.513,26.772-26.991.548-.009,1.596.235,1.946.822,1.848,1.277,2.466-3.795,6.841,1.161.667,1.147,2.425-.463,2.708,1.046.282,1.139,1.689,1.087,2.207,2.067,1.786,1.081,2.565,3.146,4.737,3.803.689.392.8.85,1.497-.017.118,1.414.309,1.516,1.399.76.079.407.154.792.229,1.178l1.123-.477c-.465,6.943,24.591-23.986,27.83-25.766,1.614.353-.188,1.261.697,2.163.504.143.961-.691,1.338-.89,1.676-.328-.022,1.919,1.229,2.224.722.181.831,1.901,1.677.962.181.363.422.654.47.981.121.87,1.498.81,1.687.114.111-.926-.632-2.356.922-2.128.695.044.417,1.093.954,1.37-.252.402-.445.71-.638,1.018.435.124.871.249,1.436.41-.455,1.116-.409,1.297.704,1.757.236,1.007,1.231,1.468,1.973,2.04.853.704,1.654,2.045,3.013,1.97-.367,1.39,1.423.545,2.121.967-1.036.973-.927,1.293.14,1.928-.026.064-.052.129-.078.193-.473-.052-.945-.105-1.599-.177.27.731,1.157.622.746,1.475-.068.73,1.223.916,1.837.424-.165.316-.264.505-.399.765.57-.039.209,1.014.965.708.422-.171.76-.545,1.101-.949-1.081.652-1.342-.397-.403-.954,1.362.035,2.055-.861,2.827-1.742,1.164-1.315,2.162-2.092,3.896-1.315.42.365.792.737,1.358.086,1.024.926,2.01,1.817,2.997,2.709.08-.067.161-.134.241-.2-.201-.332-.402-.663-.707-1.165,1.923,1.296,3.917-1.03,5.357.406.242,1.625,1.152,2.489,2.362,3.451,1.077.962.459,2.642,1.638,3.51.591.438.42,1.541,1.363.95,1.136-.803,2.064,1.302,1.41,2.168.424.081.745.143,1.018.195-.349.427-.657.804-.966,1.18.601.262-.509,1.372.736,1.339.079-.234.163-.483.242-.715.997.668,2.299,1.187,1.222,2.566.322.045.606.085.957.133-.052.234-.096.434-.112.508.399.361.738.669,1.123,1.017-.197.249-.374.474-.652.826.998-.259,1.849-.481,2.782-.723.017.314.026.498.036.679,2.534.548.472,4.428.011,6.054.081.056.162.112.243.169,1.616-1.377,2.453-3.491,3.878-5.066.083.048.165.097.248.145-.384.974-.893,1.909-1.079,2.947,1.031-.032,1.49-.808,2.019-1.568,3.259,2.237,14.631-18.5,13.479-7.991.094.03.189.059.283.089,1.094-2.144,4.509-2.623,4.519.402-.096.89.735.556,1.293.499.593-.139.81.106.812.662-.08,1.962,4.51.524,3.973,3.236,2.144-.457,1.241,2.226,2.864,2.406.605-.004,1.21.372,1.837.587-.225.485-.433.934-.678,1.461,5.02.996,1.101.777,3.501,2.933,4.404,2.295.161,6.216-.403,9.674.089.041.178.082.266.123-.185.117-.369.233-.605.382.059.154.126.329.196.511-1.449.027-.687,1.274-1.387,2.138-.349.477-.522.808.079,1.218.73.849.617,2.264.918,3.296-.073-.059-.231-.188-.271-.221-.656,1.441.088,2.991-1.8,3.481-.204.757-.278,1.634-1.183,2.076-.315-.334-.584-.62-.852-.905-.137-.009-.274-.017-.41-.026.293,2.122-.855,3.447-1.799,5.239,1.242.98,3,.811,3.902,1.869.136.202.265.614.366.604,1.437-.079,1.729,1.318,2.679,1.994.643-.661,1.245-1.281,1.864-1.918.26.187.466.335.672.483.052-.03.105-.061.157-.091l-.428-.924c1.562-3.164,1.703.665,2.812-1.18.475.196-.208,1.169.688.926.129-.035.115-.591.193-1.067,1.148-.008,1.437,1.548,2.789.384.073.773.039,1.143.215,1.756,1.685-.842,3.335-2.183,4.895-3.547,1.023-1.326,1.915-1.908,3.486-.744-.475.142-.748.223-1.02.305-.005.067-.011.135-.016.202.378.068.756.137,1.195.217.034-.181.063-.334.1-.528,1.723.228.025,1.229,1.078,1.799.134-.204.256-.391.296-.453,1.868.37,1.023-1.643.979-2.751l.204-.01c1.293,1.101,1.019,3.405,2.372,4.092.478.042.83.144,1.165.502,1.443.824.727-1.53,1.45-1.887.825-.061,1.284.754,1.73,1.415-.65,1.95,2.239,2.847,3.33,4.16-1.55-.417-2.332-.086-.804,1.442.229-.349.361-.551.594-.905.361.657.506,1.139,1.073,1.535.326-.601.054-1.047-.141-1.632.68.197,1.275.399.869,1.299.351,2.153,4.294-.792,3.39,2.185.898-.303,3.057.317,1.793,1.39-.131.095-.137.605-.006.756.169.194.628.381.795.285.865-.523,1.285.614,1.879,1.035,1.081,1.873-1.129,3.834-.969,5.528,1.202.529-.36,2.016-1.067.878-.308.414-.488.762.194.862,1.616,1.818-2.468,6.466-3.68,8.628.365-.107.59-.173.909-.267.159.618,1.012,1.706-.01,1.987-.745.554-.263,1.555-.229,2.5.289.015,1.168-.414,1.404-.381.598.516,1.12.261,1.637-.051.559-.337.696-.053.782.465.801,2.367,1.179,4.776,2.081,7.035.296,1.29.714,3.393,2.176,3.714.357.969,1.887,1.054,1.624,2.511,2.597-.272,2.122,3.134,2.166,4.769,2.929,1.423-1.903,4.927-2.06,7.046-1.368,1.049-1.719,3.218-2.761,3.844-.552.332.13,1.785-.94,1.65-.796.839-1.221,1.956-2.062,3.186,3.359.425,6.449.815,9.532,1.205.032,1.666.885.365,1.742,1.274-.463.32-.798.55-1.11.766,1.152,1.211,1.958,3.802.022,4.516-1.213-.421-.742.496-.819,1.117.542-.177.997-.326,1.52-.497.973,1.168-1.798,1.906-.43,3.306.013,5.671-9.282,6.554-2.154,13.149-.601.93.805,1.579.35,2.49-.864,1.241-.557,2.496,1.028,2.77.031-.119.095-.368.163-.633,1.014.619,2.481,4.084,2.35,5.432.203-.031.46-.071.716-.111-.01.096-.021.192-.031.288-.183.196-.365.393-.548.59.022.092.044.183.066.275.393-.066.786-.133,1.324-.224-.604.681-.237,2.147-1.186,2.219-.146-.009-.301.289-.452.446.707.611,1.519-.008,2.306-.16.039.066.079.131.118.197-3.126,4.171-9.064,6.455-10.856,11.429-.128,1.576-.41.812-1.467,1.079.511.307,1.427.88.622,1.38-.764.446.062,1.168-.253,1.875-.087.003-.174.006-.261.009-.122-.197-.243-.393-.517-.836-2.745,9.891-14.735,10.7-21.933,16.161-4.721,4.006-9.465,8.241-14.742,11.416-1.032,1.679-4.844,4.864-6.137,2.157.234-.101.458-.199.914-.396-.521-.325-.863-.539-1.347-.841.147,1.114-.969,3.195-.613,1.098-1.212-.582-.148-1.97-.78-3.19-.401.884-.706,1.557-1.011,2.231-1.428-.731-.155-3.632-1.829-3.831-.673,1.024-1.157.594-1.616-.31-.299.539-.537.97-.797,1.437-3.272-3.432-9.814,6.669-13.382,6.068-1.938.182-3.462,3.741-5.535,2.824-8.971-2.229-27.887,23.203-33.172,18.759.277-.119.533-.228,1.027-.44-.491-.356-.823-.597-1.214-.881-1.253,2.454-1.359-.662-1.252-1.807-.098-.031-.197-.062-.295-.093-.366.652-.732,1.305-1.092,1.947-1.624-.22.047-4.78-1.789-3.836-.899,1.306-.917.067-1.661-.321-.179.432-.346.837-.504,1.219-2.082-1.718-4.408.854-6.83.32-.817.38-2.702,1.194-2.44-.602.711-.752,1.476-3.949-.374-3.102-.693-1.096-.614-1.406.383-1.632-.13-1.436-.512-1.982-1.573-.714.167-2.383-1.748-3.383-1.153-5.508.157-.534-.429-1.418-.268-1.963.769-1.473-.333-2.133-.906-3.004-1.931-.74-2.614-2.2-3.516-4.067-.659.517-1.34,1.051-2.08,1.631.027-.286.049-.514.074-.772-2.134.455-.86,2.028-2.308,3.424-.48-2.06,1.266-3.471,1.159-5.483-7.491,8.85-14.265,20.34-21.905,27.933ZM281.647,165.413c.861.91-.177,1.368.871,1.808.243-.854,1.473-1.293.613-2.462l-.624.31-.413-.196c.221-.269.443-.537.662-.803-1.404-1.639-1.201.322-1.109,1.344ZM33.541,183.748c-.44.598-.881,1.197-1.321,1.794.416.232.892.496,1.372.764.972-1.015.967-1.809-.051-2.558ZM282.421,173.251c-.222-.095-.444-.189-.666-.284.342-.493.685-.986.992-1.43-.25-.17-.55-.375-.848-.578q-.56.478.02,1.052c-.282.189-.563.377-.843.564-.009.121-.018.242-.026.363.457.104.914.208,1.372.313ZM280.446,162.308c-.318.619-.555,1.08-.89,1.733,1.061-.275,2.309-1.141.89-1.733ZM230.913,89.214c-.07.023-.14.046-.21.069-.088.634-.176,1.268-.273,1.965l.902-.413c-.137-.532-.278-1.077-.419-1.622ZM179.677,43.765c-.848.503-.866.792-.101,1.425.035-.491.064-.905.101-1.425ZM38.809,78.717c.649.155,1.027.174,1.063-.485-.428-.544-.687.017-1.063.485ZM31.936,191.013c-.467.934-.379,1.117.477,1.239-.178-.463-.328-.851-.477-1.239ZM281.27,169.697c.154.012.308.025.462.037.005-.409.011-.818.016-1.226-.12-.01-.24-.02-.36-.03-.039.406-.079.812-.118,1.218ZM76.359,239.142c-.032.385-.064.77-.106,1.275.927-.494.838-.89.106-1.275Z" fill="none"/>
    </clipPath>
    <linearGradient id="c" data-name="Dégradé sans nom 13" x1="148.843" y1="67.007" x2="148.843" y2="252.017" gradientUnits="userSpaceOnUse">
      <stop offset="0" stop-color="#ffd66e"/>
      <stop offset="1" stop-color="#e86170"/>
    </linearGradient>
    <filter id="d" data-name="drop-shadow-2" x="47.133" y="69.223" width="201.761" height="210.783" filterUnits="userSpaceOnUse">
      <feOffset dx="-6" dy="0"/>
      <feGaussianBlur result="e" stdDeviation="0"/>
      <feFlood flood-color="#42496f" flood-opacity="1"/>
      <feComposite in2="e" operator="in"/>
      <feComposite in="SourceGraphic"/>
    </filter>
  </defs>
  <g clip-path="url(#b)">
    <rect x="5.286" y="7.067" width="287.116" height="269.478" fill="url(#c)"/>
    <path d="M169.597,161.639c.744,5.583-3.232,10.693-8.827,11.343l-35.032,4.067c11.754,35.862,3.801,65.943-1.841,80.444,2.082,3.745,2.789,7.911,1.519,12.398-7.45,26.307-71.225-4.606-60.796-25.756,1.724-3.496,6.02-5.471,11.584-6.148,5.42-10.761,10.216-23.959,11.515-38.916l-11.331-4.197,11.674-2.919c.014-1.622-.011-3.26-.087-4.917-.173-3.795-.587-7.363-1.16-10.757l-17.432-1.859,15.424-7.23c-1.549-5.682-3.476-10.826-5.407-15.606l-21.503-.977,17.287-9.364c-2.043-5.202-3.661-10.093-4.192-14.981l-17.858-5.912,18.303-3.295c.368-1.709.891-3.438,1.635-5.206.338-.802.714-1.574,1.106-2.333l-9.698-21.525,20.531,8.897c4.634-3.584,9.824-6.265,14.711-8.264l-.222-18.003,12.578,13.975c1.423-.359,2.67-.642,3.669-.858,4.953-1.069,9.996-1.713,14.881-1.946l5.293-12.572,9.116,13.167c10.623,1.51,18.699,5.469,20.441,11.72,2.54,8.298,13.264,39.417,13.264,39.417-27.18,1.347-50.513,11.084-53.634,33.672l44.49-5.561ZM209.482,140.453c2.593-2.647,6.113-6.874,8.868-12.835,3.617-7.824,4.201-14.924,4.223-19.051,0,0-7.393,15.999-24.574,24.02-14.839,6.927-25.97,3.498-42.623,10.964-10.84,4.86-16.116,10.043-21.226,16.894,9.387-3.629,17.221-4.814,22.608-5.231,21.314-1.648,28.854,2.655,48.43-1.792,19.577-4.447,28.207-20.005,29.661-26.665-8.426,9.585-25.368,13.695-25.368,13.695ZM215.08,91.983c-4.994-3.746-14.69,19.385-11.912,21.509,3.518,2.69,16.906-17.763,11.912-21.509ZM248.153,113.116c-3.815-4.117-8.73,2.557-7.909,4.842,1.27,3.535,11.438-1.033,7.909-4.842ZM227.089,160.5c-.228,4.579,16.311,3.083,14.718-2.632-1.428-5.12-14.457-2.591-14.718,2.632Z" fill="none" stroke="#fff" stroke-linecap="round" stroke-linejoin="round" stroke-width="20"/>
    <g filter="url(#d)">
      <polygon points="146.006 83.792 135.921 69.223 129.197 85.193 146.006 83.792" fill="#ffd66e"/>
      <polygon points="114.628 87.434 99.5 70.624 99.78 93.317 114.628 87.434" fill="#ffd66e"/>
      <polygon points="89.694 98.921 64.48 87.994 75.966 113.489 89.694 98.921" fill="#ffd66e"/>
      <polygon points="74.145 116.571 53.133 120.353 73.865 127.217 74.145 116.571" fill="#ffd66e"/>
      <polygon points="78.067 139.684 57.896 150.61 82.55 151.731 78.067 139.684" fill="#ffd66e"/>
      <polygon points="87.313 166.019 69.382 174.424 90.394 176.665 87.313 166.019" fill="#ffd66e"/>
      <polygon points="92.075 190.953 76.386 194.876 91.515 200.479 92.075 190.953" fill="#ffd66e"/>
      <path d="M178.741,133.528c-28.112,1.393-52.113,11.759-53.887,36.04l-20.545,1.307c4.669-24.561,36.52-50.04,74.432-37.347Z" fill="#42496f"/>
      <path d="M64.619,244.136c-10.429,21.15,53.347,52.063,60.796,25.756,7.45-26.307-52.995-41.577-60.796-25.756Z" fill="#ffd66e"/>
      <path d="M119.641,266.801s22.692-39.118,6.096-89.752l35.032-4.067c5.595-.65,9.572-5.759,8.827-11.343h0s-56.899,7.112-56.899,7.112c1.647-5.293,6.049-16.748,17.273-25.74,20.424-16.363,45.617-10.298,48.771-9.483,0,0-10.724-31.119-13.264-39.417-3.175-11.393-27.375-15.195-49.732-10.37-8.488,1.832-34.352,8.335-42.674,28.111-9.394,22.325,13.252,38.974,14.902,75.188,1.134,24.885-8.245,45.863-16.934,60.286,0,0-1.75,7.971,16.367,17.122,7.443,3.76,27.362,9.992,32.235,2.352Z" fill="#93d1ad"/>
      <path d="M152.084,113.393l9.259,4.511c-1.261,2.4-3.946,3.532-6.173,2.849-2.708-.83-4.391-4.234-3.086-7.36Z" fill="#42496f"/>
      <path d="M167.13,112.565l-3.023,5.144c1.028,2.235,2.331,2.329,3.121,1.463.96-1.053,1.1-3.666-.098-6.607Z" fill="#42496f"/>
      <path d="M126.574,117.617s-5.232,14.689-28.027,8.791c0,0,2.68.265,7.985-2.657,0,0-7.985-1.858-12.389-11.187l32.43,5.052Z" fill="#42496f"/>
      <path d="M97.332,114.147l26.026,4.29s-14.179,10.818-26.026-4.29Z" fill="#ffd66e"/>
      <g>
        <path d="M134.15,160.446c5.11-6.851,10.386-12.034,21.226-16.894,16.653-7.467,27.785-4.037,42.623-10.964,17.181-8.021,24.574-24.02,24.574-24.02-.022,4.127-.606,11.227-4.223,19.051-2.755,5.961-6.275,10.188-8.868,12.835,0,0,16.942-4.11,25.368-13.695-1.454,6.66-10.084,22.218-29.661,26.665-19.577,4.447-27.117.144-48.43,1.792-5.387.417-13.221,1.602-22.608,5.231Z" fill="#e86170"/>
        <path d="M203.167,113.493c3.518,2.69,16.906-17.763,11.912-21.509-4.994-3.746-14.69,19.385-11.912,21.509Z" fill="#e86170"/>
        <path d="M203.721,112.99c2.046,1.563,9.819-10.387,6.914-12.565-2.905-2.177-8.53,11.33-6.914,12.565Z" fill="#ffd66e"/>
        <path d="M240.245,117.958c1.27,3.535,11.438-1.033,7.909-4.842-3.815-4.117-8.73,2.557-7.909,4.842Z" fill="#e86170"/>
        <path d="M240.656,118.036c.606,1.687,5.457-.493,3.773-2.31-1.82-1.964-4.165,1.22-3.773,2.31Z" fill="#ffd66e"/>
        <path d="M227.089,160.5c-.228,4.579,16.311,3.083,14.718-2.632-1.428-5.12-14.457-2.591-14.718,2.632Z" fill="#e86170"/>
        <path d="M227.478,160.456c-.121,2.432,8.662,1.637,7.816-1.398-.758-2.719-7.678-1.376-7.816,1.398Z" fill="#ffd66e"/>
        <path d="M135.194,159.657s9.957-5.45,24.54-6.467c12.956-.903,27.947-1.201,27.175-7.27-.833-6.542-23.21-3.62-30.932-.316-8.825,3.776-16.066,9.014-20.783,14.053Z" fill="#ffd66e"/>
      </g>
      <path d="M125.737,177.049l-5.158.502c-6.297.613-12.601-1.087-17.737-4.781h0s4.222,13.567,25.541,13.567l-2.646-9.287Z" fill="#42496f"/>
    </g>
  </g>
</svg>