<?xml version="1.0" encoding="UTF-8"?>
<svg xmlns="http://www.w3.org/2000/svg" width="300" height="300" xmlns:xlink="http://www.w3.org/1999/xlink" viewBox="0 0 300 300">
  <defs>
    <clipPath id="b">
      <path d="M126.772,270.147c-.714.568-1.284,1.023-1.977,1.575-.003-.058.007.152.018.393-3.196-.319-3.327-2.383-.098-2.884,1.266-.458,1.292-1.73,1.796-3.082-1.457.556-2.442.47-3.814.697.252.876.893.851,1.45,1.442-.481.508-1.165.591-1.771.508-.164-1.022-1.028-2.49.117-3.246,1.081-.446-.186-1.686-.567-2.013-.576.277-1.111.961-.617,1.595.308.467.508.864-.116,1.321-1.184,3.272-3.027-.469-4.858-1.096.043-.188.129-.569.249-1.096-1.736,1.039-.908-3.182-2.925-.821-1.624-1.05-2.16-4.844-4.273-4.346-.195.121-.721-.087-.862-.323-.793-2.584-3.2-3.697-4.05-6.08-.648-1.513-1.976-2.377-3.113-3.449-.105-.152-.742-.109-.861.057-.955,1.197-2.936.12-3.038-1.301-.305-.566-1.47-1.131-1.391-1.989-.993-1.138.043-1.066.753-1.648-.713-.298-.871-.891-.862-1.733.182-.805-1.666-2.151-.396-2.576,1.456-.278.308-1.173.293-2.22-.995,1.425-2.019,2.272-3.674,2.052-.749.61-1.209.199-1.709-.265-1.289-1.414-3.222.461-4.368,1.389.096-3.759-4.685.9-6.54,1.179-.045-1.293-1.546-2.313-2.535-1.037-2.249-.607-2.976-3.952-4.684-5.586-.354-1.535-2.399-1.151-2.496-2.62-.174-1.629-2.3-1.873-2.288-3.673-1.441-.59-1.123-2.543-2.161-3.441-1.784-2.289-6.496-5.151-5.755-8.104.894-.917,0-1.194-.607-1.76-.469-1.012-1.005-.044-1.776-.239,1.881-2.059-1.466-2.334,1.303-5.969.307-.896-.85-.648-1.11-.104-.689,1.234-1.677,1.063-2.634.934-.512-.549-.059-1.924-1.332-1.664-.087-.365-.174-.73-.265-1.114-1.241.3-1.93,1.597-.515,2.208-1.318,1.253-3.583,4.501-4.84,1.678-1.488.342-1.344-2.237-2.996-.947-.081-.699-.146-1.267-.22-1.908-.179.118-.405.268-.633.418-.357-.743-.386-1.794-1.555-1.625-.128-.956-.256-1.902-.401-2.984-.273.4-.459.674-.57.836-1.739-.398-2.103-2.224-3.029-3.533-.095.013-.19.027-.285.04-.063.335-.127.67-.19,1.006-.1-.005-.2-.01-.301-.014.267-3.392-2.866-4.422-3.859-7.278.268-1.007.296-1.422-.313-2.239-.385.414-.736.792-1.218,1.311-.78-.576-.39-2-1.553-1.698-.335-1.357-.028-2.349.869-3.26-.982-1.094,1.552-3.478-.432-3.648-.108.467-.211.908-.313,1.349h-.215c.026-1.112.053-2.223.084-3.524,2.431,1.178,2.282-2.245,2.499-3.943-.967.712-1.639,2.005-2.82,1.039.176.3.352.6.614,1.048-.519.131-.969.245-1.271.321-.347-1.909.465-3.139,1.711-4.501.127.086.294.199.395.268,2.901-4.637,5.805-9.825,10.004-13.792-1.101-.897-1.671-2.744-.22-3.567.661.055,1.365.339,1.709.081.63-.781,1.133-1.841-.331-2.352-.007-1.37,1.816-2.873.508-4.08-.762-.851-.499-2.634-1.967-2.737-1.541-.467-2.351.923-3.668,1.337-1.282-.241-1.534,1.02-2.196,1.866-.778-.443-1.737-.572-2.254-1.223-.354-1.428-1.427-.995-2.579-1.251.279-.295.512-.541.756-.799-1.61-.454-1.243,1.18-.684,1.971-.347.287-.659.544-1.161.959-.146-.998.719-2.27-.491-2.696-2.003-.024-2.094-3.775-4.13-2.353.013-.316.026-.622.039-.933-1.119-.022-1.15-.978-1.739-1.663-2.298-1.886-1.623-1.258-2.3-3.981-.202.134-.39.26-.632.421-.647-.984-1.563-1.132-1.856-2.568-1.328-2.881-5.346-3.058-7.079-5.386-.585.083-1.041.148-1.601.228,1.383-2.045.167-3.317.285-5.289.802-1.974,1.602-3.943,2.4-5.907l.357.032c-.084.989-.167,1.98-.27,3.197.814-.916.531-1.853.959-2.706.183.12.335.22.487.32.067-.034.134-.067.201-.101.024-1.515-1.858-.945-.615-2.467,8.097-15.249,14.395-31.292,23.079-46.174.452-.861.735-1.603,1.645-.565,1.744.56,1.811-2.35,3.56-2.194.431-.026.743-1.269.438-1.892-.072.32-.123.543-.188.83-.996.023-1.962.045-2.946.068.288-2.054,2.598-2.155,4.1-1.523,1.683-2.489,2.304-6.224,5.744-6.788-.14-.172-.266-.327-.539-.662,2.52-.59,4.58,2.546,6.67,1.905.44-.39.743-.297.818.309-.216.079-.43.157-.716.261,4.26,1.531,8.617,5.253,12.519,6.025.919,2.415,2.378-.584,3.433-1.49.519-.833,1.393-.071,2.021-.601,8.953-9.038,16.928-19.513,26.772-26.991.548-.009,1.596.235,1.946.822,1.848,1.277,2.466-3.795,6.841,1.161.667,1.147,2.425-.463,2.708,1.046.282,1.139,1.689,1.087,2.207,2.067,1.786,1.081,2.565,3.146,4.737,3.803.689.392.8.85,1.497-.017.118,1.414.309,1.516,1.399.76.079.407.154.792.229,1.178l1.123-.477c-.465,6.943,24.591-23.986,27.83-25.766,1.614.353-.188,1.261.697,2.163.504.143.961-.691,1.338-.89,1.676-.328-.022,1.919,1.229,2.224.722.181.831,1.901,1.677.962.181.363.422.654.47.981.121.87,1.498.81,1.687.114.111-.926-.632-2.356.922-2.128.695.044.417,1.093.954,1.37-.252.402-.445.71-.638,1.018.435.124.871.249,1.436.41-.455,1.116-.409,1.297.704,1.757.236,1.007,1.231,1.468,1.973,2.04.853.704,1.654,2.045,3.013,1.97-.367,1.39,1.423.545,2.121.967-1.036.973-.927,1.293.14,1.928-.026.064-.052.129-.078.193-.473-.052-.945-.105-1.599-.177.27.731,1.157.622.746,1.475-.068.73,1.223.916,1.837.424-.165.316-.264.505-.399.765.57-.039.209,1.014.965.708.422-.171.76-.545,1.101-.949-1.081.652-1.342-.397-.403-.954,1.362.035,2.055-.861,2.827-1.742,1.164-1.315,2.162-2.092,3.896-1.315.42.365.792.737,1.358.086,1.024.926,2.01,1.817,2.997,2.709.08-.067.161-.134.241-.2-.201-.332-.402-.663-.707-1.165,1.923,1.296,3.917-1.03,5.357.406.242,1.625,1.152,2.489,2.362,3.451,1.077.962.459,2.642,1.638,3.51.591.438.42,1.541,1.363.95,1.136-.803,2.064,1.302,1.41,2.168.424.081.745.143,1.018.195-.349.427-.657.804-.966,1.18.601.262-.509,1.372.736,1.339.079-.234.163-.483.242-.715.997.668,2.299,1.187,1.222,2.566.322.045.606.085.957.133-.052.234-.096.434-.112.508.399.361.738.669,1.123,1.017-.197.249-.374.474-.652.826.998-.259,1.849-.481,2.782-.723.017.314.026.498.036.679,2.534.548.472,4.428.011,6.054.081.056.162.112.243.169,1.616-1.377,2.453-3.491,3.878-5.066.083.048.165.097.248.145-.384.974-.893,1.909-1.079,2.947,1.031-.032,1.49-.808,2.019-1.568,3.259,2.237,14.631-18.5,13.479-7.991.094.03.189.059.283.089,1.094-2.144,4.509-2.623,4.519.402-.096.89.735.556,1.293.499.593-.139.81.106.812.662-.08,1.962,4.51.524,3.973,3.236,2.144-.457,1.241,2.226,2.864,2.406.605-.004,1.21.372,1.837.587-.225.485-.433.934-.678,1.461,5.02.996,1.101.777,3.501,2.933,4.404,2.295.161,6.216-.403,9.674.089.041.178.082.266.123-.185.117-.369.233-.605.382.059.154.126.329.196.511-1.449.027-.687,1.274-1.387,2.138-.349.477-.522.808.079,1.218.73.849.617,2.264.918,3.296-.073-.059-.231-.188-.271-.221-.656,1.441.088,2.991-1.8,3.481-.204.757-.278,1.634-1.183,2.076-.315-.334-.584-.62-.852-.905-.137-.009-.274-.017-.41-.026.293,2.122-.855,3.447-1.799,5.239,1.242.98,3,.811,3.902,1.869.136.202.265.614.366.604,1.437-.079,1.729,1.318,2.679,1.994.643-.661,1.245-1.281,1.864-1.918.26.187.466.335.672.483.052-.03.105-.061.157-.091l-.428-.924c1.562-3.164,1.703.665,2.812-1.18.475.196-.208,1.169.688.926.129-.035.115-.591.193-1.067,1.148-.008,1.437,1.548,2.789.384.073.773.039,1.143.215,1.756,1.685-.842,3.335-2.183,4.895-3.547,1.023-1.326,1.915-1.908,3.486-.744-.475.142-.748.223-1.02.305-.005.067-.011.135-.016.202.378.068.756.137,1.195.217.034-.181.063-.334.1-.528,1.723.228.025,1.229,1.078,1.799.134-.204.256-.391.296-.453,1.868.37,1.023-1.643.979-2.751l.204-.01c1.293,1.101,1.019,3.405,2.372,4.092.478.042.83.144,1.165.502,1.443.824.727-1.53,1.45-1.887.825-.061,1.284.754,1.73,1.415-.65,1.95,2.239,2.847,3.33,4.16-1.55-.417-2.332-.086-.804,1.442.229-.349.361-.551.594-.905.361.657.506,1.139,1.073,1.535.326-.601.054-1.047-.141-1.632.68.197,1.275.399.869,1.299.351,2.153,4.294-.792,3.39,2.185.898-.303,3.057.317,1.793,1.39-.131.095-.137.605-.006.756.169.194.628.381.795.285.865-.523,1.285.614,1.879,1.035,1.081,1.873-1.129,3.834-.969,5.528,1.202.529-.36,2.016-1.067.878-.308.414-.488.762.194.862,1.616,1.818-2.468,6.466-3.68,8.628.365-.107.59-.173.909-.267.159.618,1.012,1.706-.01,1.987-.745.554-.263,1.555-.229,2.5.289.015,1.168-.414,1.404-.381.598.516,1.12.261,1.637-.051.559-.337.696-.053.782.465.801,2.367,1.179,4.776,2.081,7.035.296,1.29.714,3.393,2.176,3.714.357.969,1.887,1.054,1.624,2.511,2.597-.272,2.122,3.134,2.166,4.769,2.929,1.423-1.903,4.927-2.06,7.046-1.368,1.049-1.719,3.218-2.761,3.844-.552.332.13,1.785-.94,1.65-.796.839-1.221,1.956-2.062,3.186,3.359.425,6.449.815,9.532,1.205.032,1.666.885.365,1.742,1.274-.463.32-.798.55-1.11.766,1.152,1.211,1.958,3.802.022,4.516-1.213-.421-.742.496-.819,1.117.542-.177.997-.326,1.52-.497.973,1.168-1.798,1.906-.43,3.306.013,5.671-9.282,6.554-2.154,13.149-.601.93.805,1.579.35,2.49-.864,1.241-.557,2.496,1.028,2.77.031-.119.095-.368.163-.633,1.014.619,2.481,4.084,2.35,5.432.203-.031.46-.071.716-.111-.01.096-.021.192-.031.288-.183.196-.365.393-.548.59.022.092.044.183.066.275.393-.066.786-.133,1.324-.224-.604.681-.237,2.147-1.186,2.219-.146-.009-.301.289-.452.446.707.611,1.519-.008,2.306-.16.039.066.079.131.118.197-3.126,4.171-9.064,6.455-10.856,11.429-.128,1.576-.41.812-1.467,1.079.511.307,1.427.88.622,1.38-.764.446.062,1.168-.253,1.875-.087.003-.174.006-.261.009-.122-.197-.243-.393-.517-.836-2.745,9.891-14.735,10.7-21.933,16.161-4.721,4.006-9.465,8.241-14.742,11.416-1.032,1.679-4.844,4.864-6.137,2.157.234-.101.458-.199.914-.396-.521-.325-.863-.539-1.347-.841.147,1.114-.969,3.195-.613,1.098-1.212-.582-.148-1.97-.78-3.19-.401.884-.706,1.557-1.011,2.231-1.428-.731-.155-3.632-1.829-3.831-.673,1.024-1.157.594-1.616-.31-.299.539-.537.97-.797,1.437-3.272-3.432-9.814,6.669-13.382,6.068-1.938.182-3.462,3.741-5.535,2.824-8.971-2.229-27.887,23.203-33.172,18.759.277-.119.533-.228,1.027-.44-.491-.356-.823-.597-1.214-.881-1.253,2.454-1.359-.662-1.252-1.807-.098-.031-.197-.062-.295-.093-.366.652-.732,1.305-1.092,1.947-1.624-.22.047-4.78-1.789-3.836-.899,1.306-.917.067-1.661-.321-.179.432-.346.837-.504,1.219-2.082-1.718-4.408.854-6.83.32-.817.38-2.702,1.194-2.44-.602.711-.752,1.476-3.949-.374-3.102-.693-1.096-.614-1.406.383-1.632-.13-1.436-.512-1.982-1.573-.714.167-2.383-1.748-3.383-1.153-5.508.157-.534-.429-1.418-.268-1.963.769-1.473-.333-2.133-.906-3.004-1.931-.74-2.614-2.2-3.516-4.067-.659.517-1.34,1.051-2.08,1.631.027-.286.049-.514.074-.772-2.134.455-.86,2.028-2.308,3.424-.48-2.06,1.266-3.471,1.159-5.483-7.491,8.85-14.265,20.34-21.905,27.933ZM281.647,165.413c.861.91-.177,1.368.871,1.808.243-.854,1.473-1.293.613-2.462l-.624.31-.413-.196c.221-.269.443-.537.662-.803-1.404-1.639-1.201.322-1.109,1.344ZM33.541,183.748c-.44.598-.881,1.197-1.321,1.794.416.232.892.496,1.372.764.972-1.015.967-1.809-.051-2.558ZM282.421,173.251c-.222-.095-.444-.189-.666-.284.342-.493.685-.986.992-1.43-.25-.17-.55-.375-.848-.578q-.56.478.02,1.052c-.282.189-.563.377-.843.564-.009.121-.018.242-.026.363.457.104.914.208,1.372.313ZM280.446,162.308c-.318.619-.555,1.08-.89,1.733,1.061-.275,2.309-1.141.89-1.733ZM230.913,89.214c-.07.023-.14.046-.21.069-.088.634-.176,1.268-.273,1.965l.902-.413c-.137-.532-.278-1.077-.419-1.622ZM179.677,43.765c-.848.503-.866.792-.101,1.425.035-.491.064-.905.101-1.425ZM38.809,78.717c.649.155,1.027.174,1.063-.485-.428-.544-.687.017-1.063.485ZM31.936,191.013c-.467.934-.379,1.117.477,1.239-.178-.463-.328-.851-.477-1.239ZM281.27,169.697c.154.012.308.025.462.037.005-.409.011-.818.016-1.226-.12-.01-.24-.02-.36-.03-.039.406-.079.812-.118,1.218ZM76.359,239.142c-.032.385-.064.77-.106,1.275.927-.494.838-.89.106-1.275Z" fill="none"/>
    </clipPath>
    <linearGradient id="c" data-name="Dégradé sans nom 13" x1="148.843" y1="67.007" x2="148.843" y2="252.017" gradientUnits="userSpaceOnUse">
      <stop offset="0" stop-color="#ffd66e"/>
      <stop offset="1" stop-color="#e86170"/>
    </linearGradient>
    <filter id="d" data-name="drop-shadow-4" x="12.717" y="11.46" width="236.48" height="298.592" filterUnits="userSpaceOnUse">
      <feOffset dx="-6" dy="0"/>
      <feGaussianBlur result="e" stdDeviation="0"/>
      <feFlood flood-color="#42496f" flood-opacity="1"/>
      <feComposite in2="e" operator="in"/>
      <feComposite in="SourceGraphic"/>
    </filter>
  </defs>
  <g isolation="isolate">
    <g id="a" data-name="bateau 08">
      <g clip-path="url(#b)">
        <rect x="5.286" y="7.067" width="287.116" height="269.478" fill="url(#c)"/>
        <path d="M245.93,249.204h-7.444c1.919-56.706-4.259-112.097-17.941-167.142h5.529c1.805,0,3.267-1.463,3.267-3.267s-1.463-3.267-3.267-3.267h-97.526c-3.266-21.55-6.821-42.426-10.651-61.511-.3-1.497-1.616-2.556-3.143-2.556-.488,0-.947.109-1.358.3-.411-.187-.861-.3-1.337-.3h0c-1.928,0-3.421,1.677-3.178,3.59,1.068,8.391,3.926,30.857,7.392,60.477H19.289c-1.805,0-3.267,1.463-3.267,3.267s1.463,3.267,3.267,3.267h6.989c13.684,55.044,19.861,110.438,17.94,167.142h-5.073c-1.805,0-3.267,1.463-3.267,3.267s1.463,3.267,3.267,3.267h94.324c.025.409.051.822.076,1.229.014.224.028.45.041.673.093,1.551.184,3.092.271,4.623.002.042.005.084.007.126.089,1.566.175,3.121.258,4.665.849,15.838,1.343,30.434,1.343,42.997h18.663s-1.554-21.463-4.538-54.313h96.339c1.805,0,3.267-1.463,3.267-3.267s-1.463-3.267-3.267-3.267Z" fill="none" stroke="#fff" stroke-linecap="round" stroke-linejoin="round" stroke-width="20"/>
        <g filter="url(#d)">
          <path d="M154.129,310.052s-13.082-180.7-36.232-296.036c-.3-1.497-1.616-2.556-3.143-2.556h0c-1.928,0-3.421,1.677-3.178,3.59,3.527,27.719,26.585,208.89,26.585,295.002h15.967Z" fill="#ffd66e"/>
          <path d="M148.711,246.178l-13.055,1.601c.44,6.607.829,13.057,1.165,19.32,4.332-1.476,9.125-3.26,13.327-5.174-.443-4.964-.922-10.219-1.437-15.746Z" fill="#42496f"/>
          <g>
            <path d="M238.387,252.47c-63.857,0-127.715,0-191.572,0,2.319-58.969-4.117-116.501-18.643-173.677,63.857,0,127.715,0,191.572,0,14.524,57.179,20.961,114.707,18.643,173.677Z" fill="#e86170"/>
            <g>
              <path d="M133.653,175.862c-1.88-5.503-4.028-10.472-6.783-15.729.924,3.474,1.749,7.036,1.761,10.55.006,1.701-.146,3.508-.918,4.988-.492.943-.688,1.424-1.613.723-1.297-.984-1.667-3.031-2.059-4.466.345,4.013-.498,8.009-2.387,11.397-.815,1.461-2.394,2.968-4.002,2.214-.831-.389-1.327-1.27-1.682-2.115-.762-1.812-1.165-3.755-1.177-5.668-1.333,5.096-5.06,9.359-9.898,11.421-.425.181-.887.349-1.357.256-1.277-.253-1.518-1.996-1.448-3.266.851-15.572,1.015-31.264-.199-46.705-.366-4.65-.997-9.645.757-13.653,1.754-4.008,6.769-6.572,11.265-4.17,3.664,1.958,5.445,6.184,6.772,9.963,1.416-.043,2.943.065,4.433-.043-3.111-6.332-5.484-13.555-6.852-20.194-.402-1.951-.697-4.075.294-5.526.7-1.026,1.942-1.543,3.191-1.912,3.553-1.048,7.559-1.178,11.578-.375,1.674.334,3.388.846,4.904,1.831,4.428,2.878,5.587,8.491,6.13,13.251-.933-.884-1.913-1.796-3.077-2.258-1.163-.462-2.562-.326-3.056.624-.312.599-.213,1.383-.064,2.12.96,4.735,3.802,9.23,7.795,12.482,1.674,0,2.511,0,4.185,0,.052-3.779.297-8.005,3.229-9.963,3.598-2.402,9.601.163,12.792,4.17,3.191,4.008,4.283,8.96,5.314,13.653,3.415,15.535,7.102,31.156,10.302,46.705.262,1.271.236,3.013-1.008,3.266-.457.093-.941-.075-1.39-.256-5.106-2.062-9.411-6.325-11.616-11.421.315,1.912.224,3.855-.266,5.668-.228.845-.597,1.726-1.372,2.115-1.5.754-3.292-.753-4.327-2.214-2.43-3.43-3.357-7.049-4.351-10.89.457,1.766-.951,4.931-2.61,3.714-1.256-.922-1.793-3.552-2.096-4.899-.828-3.681-.743-7.471-.628-11.116-1.523,5.257-2.723,10.271-3.625,15.774" fill="none" stroke="#fff" stroke-linecap="round" stroke-linejoin="round" stroke-width="1.983"/>
              <path d="M133.23,110.497c.161.776.241,1.165.399,1.941" fill="none" stroke="#fff" stroke-linecap="round" stroke-linejoin="round" stroke-width="1.983"/>
              <path d="M145.34,137.272c1.124.672,2.117,1.882,2.426,3.031.259.961.32,2.339-.343,3.104-.583.674-1.715.258-2.327-.416-.638-.702-.975-1.608-1.584-2.337.933,1.134,1.081,2.773.344,3.81-.737,1.037-2.29,1.381-3.607.799-.954-.421-1.71-1.231-2.431-2.013-.525-.569-1.05-1.138-1.577-1.707-.125-.135-.259-.276-.428-.333-.467-.157-.726.383-.898.793-.8,1.905-3.627,2.431-5.517,1.028" fill="none" stroke="#fff" stroke-linecap="round" stroke-linejoin="round" stroke-width="1.983"/>
              <path d="M137.034,110.497c.161.776.241,1.165.399,1.941" fill="none" stroke="#fff" stroke-linecap="round" stroke-linejoin="round" stroke-width="1.983"/>
              <path d="M152.479,180.046c-8.333,0-12.499,0-20.832,0-.131-1.61-.199-2.415-.342-4.025h20.832c.143,1.61.211,2.415.342,4.025Z" fill="none" stroke="#fff" stroke-linecap="round" stroke-linejoin="round" stroke-width="1.983"/>
              <path d="M133.828,179.892c-.416,3.498-1.69,6.899-1.493,10.512.048.883.301,4.281,1.503,4.483,2.333.392,3.06-7.104,3.365-8.39-.373,3.023.039,6.197,1.186,9.11.492,1.25,1.772,1.281,2.436.151,1.19-2.025,1.375-5.38,2.132-9.181-.12.602.262,1.672.375,2.294.155.852.333,1.703.565,2.541.401,1.448.903,3.264,1.996,4.384,1.534,1.571,1.756-2.841,1.791-3.435.12-2.077-.103-4.193-.665-6.243.824,3.006,1.848,6.569,4.748,8.298.167.1.36.195.541.147.678-.179.518-1.739.527-2.282.022-1.431-.172-2.863-.521-4.274-.712-2.885-2.008-5.632-3.326-8.338" fill="none" stroke="#fff" stroke-linecap="round" stroke-linejoin="round" stroke-width="1.983"/>
              <path d="M132.06,184.135c-1.902,4.599-2.877,6.897-4.875,11.495-1.772-2.656-2.666-3.984-4.471-6.64-5.808,9.4-8.813,14.101-15.022,23.482" fill="none" stroke="#fff" stroke-linecap="round" stroke-linejoin="round" stroke-width="1.983"/>
              <path d="M107.692,204.054c-.019,3.522-.043,5.281-.119,8.799,3.09-.867,4.634-1.3,7.72-2.167" fill="none" stroke="#fff" stroke-linecap="round" stroke-linejoin="round" stroke-width="1.983"/>
              <path d="M136.563,194.424c-.865,4.987-1.326,7.481-2.304,12.463-2.263-2.213-3.4-3.319-5.685-5.533-3.052,8.893-6.333,17.745-9.81,26.48" fill="none" stroke="#fff" stroke-linecap="round" stroke-linejoin="round" stroke-width="1.983"/>
              <path d="M117.083,219.596c.684,3.457,1.012,5.185,1.641,8.638,2.84-1.547,4.258-2.321,7.087-3.87" fill="none" stroke="#fff" stroke-linecap="round" stroke-linejoin="round" stroke-width="1.983"/>
              <path d="M154.674,183.866c2.585,4.599,3.854,6.897,6.343,11.495,1.488-2.656,2.224-3.984,3.681-6.64,5.813,7.738,11.518,15.574,17.098,23.482" fill="none" stroke="#fff" stroke-linecap="round" stroke-linejoin="round" stroke-width="1.983"/>
              <path d="M181.282,203.785c.288,3.522.418,5.282.65,8.8-3.128-.867-4.693-1.3-7.825-2.167" fill="none" stroke="#fff" stroke-linecap="round" stroke-linejoin="round" stroke-width="1.983"/>
              <path d="M151.507,194.154c1.42,4.987,2.102,7.481,3.409,12.463,2.117-2.213,3.17-3.319,5.264-5.534,3.796,8.737,7.412,17.585,10.817,26.481" fill="none" stroke="#fff" stroke-linecap="round" stroke-linejoin="round" stroke-width="1.983"/>
              <path d="M172.639,219.327c-.615,3.458-.936,5.185-1.606,8.639-2.822-1.547-4.236-2.321-7.069-3.87" fill="none" stroke="#fff" stroke-linecap="round" stroke-linejoin="round" stroke-width="1.983"/>
              <g>
                <path d="M135.06,217.437c.009.656-.25,1.228-.773,1.719-.295.27-.614.469-.952.577-.358.115-.848.171-1.455.171-.87,0-1.698-.205-2.48-.617-.066-.031-.1-.121-.101-.27,0-.029-.006-.297-.016-.798-.01-.504-.017-.777-.017-.814,0-.052.045-.079.137-.079h.269c.079,0,.128.03.132.079.015.146.017.318.046.472.075.394.283.735.626,1.026.342.291.812.436,1.412.436.814,0,1.372-.262,1.672-.787.129-.236.19-.546.185-.932-.005-.346-.159-.624-.373-.835-.241-.237-.71-.515-1.409-.735-.778-.245-1.406-.567-1.88-.966-.476-.4-.721-1.003-.737-1.801-.016-.74.295-1.379.934-1.899.494-.402,1.15-.604,1.96-.604.893,0,1.597.197,2.115.591.071.058.112.116.122.179.056.289.09.738.103,1.35.002.095-.017.139-.056.139h-.322c-.049,0-.079-.026-.094-.079-.039-.152-.089-.321-.149-.499-.089-.267-.254-.483-.494-.649-.414-.278-.938-.415-1.572-.415-.486,0-.859.129-1.119.389-.291.292-.424.672-.401,1.14.016.315.164.622.446.919.143.15.651.394,1.524.735.52.207.897.37,1.131.494.393.205.726.441.997.709.383.375.58.927.589,1.654Z" fill="#fff"/>
                <path d="M143.099,213.552c.014.67-.226,1.242-.709,1.72-.533.527-1.303.795-2.31.795-.482,0-.943-.06-1.388-.179-.036-.008-.052.018-.051.079.012.764.018,1.146.028,1.911.013.992.112,1.488.299,1.488h1.037c.052,0,.079.029.08.087.001.107.002.161.003.268,0,.052-.016.079-.052.079h-3.898c-.035,0-.053-.018-.053-.052-.001-.118-.002-.176-.003-.294,0-.058.021-.087.065-.087h.952c.075,0,.111-.052.11-.157-.027-2.634-.049-3.952-.108-6.589-.018-.796-.083-1.195-.192-1.195h-.768c-.062,0-.092-.018-.093-.053-.003-.124-.005-.186-.008-.31-.001-.042.025-.063.077-.063.69-.029,1.034-.044,1.724-.074.227-.008.813-.013,1.758-.013.516,0,.952.032,1.302.087.523.082,1.024.326,1.475.746.466.434.707,1.04.723,1.807ZM141.716,213.644c-.011-.53-.237-1.037-.679-1.521-.443-.483-1.143-.725-2.102-.725-.154,0-.246.01-.272.029-.027.019-.047.066-.058.134-.02.268-.017.922.005,1.964,0,.039.005.339.011.898.007.562.009.856.01.887.001.06.032.1.094.118.3.1.646.15,1.04.15.673,0,1.159-.152,1.456-.457.344-.352.51-.843.497-1.478Z" fill="#fff"/>
                <path d="M154.367,222.348c0,.079-.387.149-1.161.21-.538.042-1.05.06-1.535.06-.193,0-.358-.039-.499-.118-.451-.268-.932-.637-1.443-1.115-.356-.32-.812-.784-1.369-1.398-.053-.079-.15-.12-.283-.123-.669-.017-1.271-.131-1.775-.359-.447-.203-.801-.441-1.058-.716-.708-.74-1.071-1.813-1.095-3.22-.012-.698.071-1.313.248-1.846.219-.662.528-1.192.91-1.594.368-.386.878-.714,1.532-.972.594-.234,1.235-.349,1.927-.349,1.024,0,1.825.127,2.392.386.494.225.951.604,1.366,1.129.581.735.883,1.652.903,2.747.024,1.355-.337,2.462-1.079,3.318-.353.412-.788.753-1.301,1.023-.392.207-.778.336-1.158.388-.122.018-.157.052-.104.105.38.375.952.798,1.716,1.264.479.294.923.519,1.333.677.41.157.753.236,1.029.236.232,0,.382-.01.44-.013.041-.003.066.021.066.066,0,.086,0,.129.001.215ZM151.864,215.474c-.012-.672-.082-1.216-.208-1.628-.151-.497-.408-.964-.758-1.397-.284-.351-.648-.627-1.089-.819-.473-.206-.946-.31-1.419-.31-.568,0-1.011.104-1.325.31-.446.292-.781.712-.995,1.261-.236.606-.346,1.339-.331,2.19.023,1.271.256,2.278.702,3.026.268.441.677.802,1.226,1.076.412.205.88.307,1.401.307.542,0,1.055-.168,1.537-.509.369-.26.679-.709.936-1.333.224-.544.337-1.27.321-2.173Z" fill="#fff"/>
                <path d="M163.399,219.72c0,.052-.019.079-.058.079h-2.336c-.105,0-.191-.026-.257-.079-.234-.197-.808-.884-1.73-2.06-.418-.533-.781-1.121-1.089-1.759-.031-.071-.067-.105-.107-.105-.241-.021-.542-.05-.901-.087-.075-.008-.111.026-.11.1-.001-.079.005.126.016.609.011.488.021.99.028,1.512.012.955.119,1.435.325,1.435h1.076c.049,0,.072.024.073.071.001.119.002.178.003.296,0,.045-.019.066-.058.066-1.462,0-2.193,0-3.656,0-.062,0-.092-.021-.093-.066-.001-.112-.002-.168-.003-.281,0-.058.025-.087.078-.087h.768c.079,0,.117-.066.116-.197-.015-1.394-.024-2.091-.047-3.485-.017-1.021-.027-1.531-.049-2.552-.034-1.182-.129-1.773-.277-1.773h-.755c-.043,0-.066-.021-.067-.066-.003-.118-.004-.177-.007-.294-.001-.045.015-.068.051-.074.826-.021,1.24-.031,2.066-.052.691-.018,1.211-.026,1.561-.026.377,0,.69.018.94.052.644.09,1.186.32,1.618.688.492.418.744.932.757,1.544.015.691-.21,1.273-.674,1.746-.267.27-.684.509-1.254.717-.035.016-.048.042-.038.079.396.685.858,1.312,1.387,1.869.411.433.688.719.825.861.296.291.555.509.769.656.294.203.623.307.981.307.083,0,.125.029.126.087.001.107.002.161.003.268ZM159.846,213.478c-.012-.58-.216-1.058-.609-1.423-.517-.481-1.268-.722-2.249-.722-.154,0-.247.052-.253.131-.08,1.083.035,1.962.025,2.272.011.559.017.838.027,1.397.001.071.036.114.101.126.163.029.412.035.735.026.436-.012.76-.05.969-.11.853-.236,1.272-.803,1.254-1.696Z" fill="#fff"/>
              </g>
            </g>
            <path d="M66.486,78.793c14.526,57.177,20.962,114.708,18.643,173.678" fill="none" mix-blend-mode="multiply" opacity=".5" stroke="#9bc8ec" stroke-miterlimit="10" stroke-width="2.696"/>
            <path d="M104.801,78.793c14.525,57.178,20.962,114.708,18.643,173.678" fill="none" mix-blend-mode="multiply" opacity=".5" stroke="#9bc8ec" stroke-miterlimit="10" stroke-width="2.696"/>
            <path d="M143.115,78.793c14.525,57.178,20.962,114.708,18.643,173.678" fill="none" mix-blend-mode="multiply" opacity=".5" stroke="#9bc8ec" stroke-miterlimit="10" stroke-width="2.696"/>
            <path d="M181.429,78.793c14.525,57.178,20.962,114.708,18.643,173.678" fill="none" mix-blend-mode="multiply" opacity=".5" stroke="#9bc8ec" stroke-miterlimit="10" stroke-width="2.696"/>
            <path d="M238.387,252.47c-63.857,0-127.715,0-191.572,0,.878-22.138.651-44.06-.654-66.181,50.321,42.521,128.807,53.323,192.634,56.455-.128,3.894-.21,5.839-.408,9.726Z" fill="#a384bb" mix-blend-mode="multiply" opacity=".25"/>
          </g>
          <rect x="38.573" y="249.204" width="210.624" height="6.535" rx="3.267" ry="3.267" fill="#336a9b"/>
          <rect x="18.717" y="75.527" width="210.624" height="6.535" rx="3.267" ry="3.267" fill="#336a9b"/>
        </g>
      </g>
    </g>
  </g>
</svg>