<?xml version="1.0" encoding="UTF-8"?>
<svg id="a" data-name="bateau 06" xmlns="http://www.w3.org/2000/svg" width="300" height="300" xmlns:xlink="http://www.w3.org/1999/xlink" viewBox="0 0 300 300">
  <defs>
    <clipPath id="b">
      <path d="M126.772,270.147c-.714.568-1.284,1.023-1.977,1.575-.003-.058.007.152.018.393-3.196-.319-3.327-2.383-.098-2.884,1.266-.458,1.292-1.73,1.796-3.082-1.457.556-2.442.47-3.814.697.252.876.893.851,1.45,1.442-.481.508-1.165.591-1.771.508-.164-1.022-1.028-2.49.117-3.246,1.081-.446-.186-1.686-.567-2.013-.576.277-1.111.961-.617,1.595.308.467.508.864-.116,1.321-1.184,3.272-3.027-.469-4.858-1.096.043-.188.129-.569.249-1.096-1.736,1.039-.908-3.182-2.925-.821-1.624-1.05-2.16-4.844-4.273-4.346-.195.121-.721-.087-.862-.323-.793-2.584-3.2-3.697-4.05-6.08-.648-1.513-1.976-2.377-3.113-3.449-.105-.152-.742-.109-.861.057-.955,1.197-2.936.12-3.038-1.301-.305-.566-1.47-1.131-1.391-1.989-.993-1.138.043-1.066.753-1.648-.713-.298-.871-.891-.862-1.733.182-.805-1.666-2.151-.396-2.576,1.456-.278.308-1.173.293-2.22-.995,1.425-2.019,2.272-3.674,2.052-.749.61-1.209.199-1.709-.265-1.289-1.414-3.222.461-4.368,1.389.096-3.759-4.685.9-6.54,1.179-.045-1.293-1.546-2.313-2.535-1.037-2.249-.607-2.976-3.952-4.684-5.586-.354-1.535-2.399-1.151-2.496-2.62-.174-1.629-2.3-1.873-2.288-3.673-1.441-.59-1.123-2.543-2.161-3.441-1.784-2.289-6.496-5.151-5.755-8.104.894-.917,0-1.194-.607-1.76-.469-1.012-1.005-.044-1.776-.239,1.881-2.059-1.466-2.334,1.303-5.969.307-.896-.85-.648-1.11-.104-.689,1.234-1.677,1.063-2.634.934-.512-.549-.059-1.924-1.332-1.664-.087-.365-.174-.73-.265-1.114-1.241.3-1.93,1.597-.515,2.208-1.318,1.253-3.583,4.501-4.84,1.678-1.488.342-1.344-2.237-2.996-.947-.081-.699-.146-1.267-.22-1.908-.179.118-.405.268-.633.418-.357-.743-.386-1.794-1.555-1.625-.128-.956-.256-1.902-.401-2.984-.273.4-.459.674-.57.836-1.739-.398-2.103-2.224-3.029-3.533-.095.013-.19.027-.285.04-.063.335-.127.67-.19,1.006-.1-.005-.2-.01-.301-.014.267-3.392-2.866-4.422-3.859-7.278.268-1.007.296-1.422-.313-2.239-.385.414-.736.792-1.218,1.311-.78-.576-.39-2-1.553-1.698-.335-1.357-.028-2.349.869-3.26-.982-1.094,1.552-3.478-.432-3.648-.108.467-.211.908-.313,1.349h-.215c.026-1.112.053-2.223.084-3.524,2.431,1.178,2.282-2.245,2.499-3.943-.967.712-1.639,2.005-2.82,1.039.176.3.352.6.614,1.048-.519.131-.969.245-1.271.321-.347-1.909.465-3.139,1.711-4.501.127.086.294.199.395.268,2.901-4.637,5.805-9.825,10.004-13.792-1.101-.897-1.671-2.744-.22-3.567.661.055,1.365.339,1.709.081.63-.781,1.133-1.841-.331-2.352-.007-1.37,1.816-2.873.508-4.08-.762-.851-.499-2.634-1.967-2.737-1.541-.467-2.351.923-3.668,1.337-1.282-.241-1.534,1.02-2.196,1.866-.778-.443-1.737-.572-2.254-1.223-.354-1.428-1.427-.995-2.579-1.251.279-.295.512-.541.756-.799-1.61-.454-1.243,1.18-.684,1.971-.347.287-.659.544-1.161.959-.146-.998.719-2.27-.491-2.696-2.003-.024-2.094-3.775-4.13-2.353.013-.316.026-.622.039-.933-1.119-.022-1.15-.978-1.739-1.663-2.298-1.886-1.623-1.258-2.3-3.981-.202.134-.39.26-.632.421-.647-.984-1.563-1.132-1.856-2.568-1.328-2.881-5.346-3.058-7.079-5.386-.585.083-1.041.148-1.601.228,1.383-2.045.167-3.317.285-5.289.802-1.974,1.602-3.943,2.4-5.907l.357.032c-.084.989-.167,1.98-.27,3.197.814-.916.531-1.853.959-2.706.183.12.335.22.487.32.067-.034.134-.067.201-.101.024-1.515-1.858-.945-.615-2.467,8.097-15.249,14.395-31.292,23.079-46.174.452-.861.735-1.603,1.645-.565,1.744.56,1.811-2.35,3.56-2.194.431-.026.743-1.269.438-1.892-.072.32-.123.543-.188.83-.996.023-1.962.045-2.946.068.288-2.054,2.598-2.155,4.1-1.523,1.683-2.489,2.304-6.224,5.744-6.788-.14-.172-.266-.327-.539-.662,2.52-.59,4.58,2.546,6.67,1.905.44-.39.743-.297.818.309-.216.079-.43.157-.716.261,4.26,1.531,8.617,5.253,12.519,6.025.919,2.415,2.378-.584,3.433-1.49.519-.833,1.393-.071,2.021-.601,8.953-9.038,16.928-19.513,26.772-26.991.548-.009,1.596.235,1.946.822,1.848,1.277,2.466-3.795,6.841,1.161.667,1.147,2.425-.463,2.708,1.046.282,1.139,1.689,1.087,2.207,2.067,1.786,1.081,2.565,3.146,4.737,3.803.689.392.8.85,1.497-.017.118,1.414.309,1.516,1.399.76.079.407.154.792.229,1.178l1.123-.477c-.465,6.943,24.591-23.986,27.83-25.766,1.614.353-.188,1.261.697,2.163.504.143.961-.691,1.338-.89,1.676-.328-.022,1.919,1.229,2.224.722.181.831,1.901,1.677.962.181.363.422.654.47.981.121.87,1.498.81,1.687.114.111-.926-.632-2.356.922-2.128.695.044.417,1.093.954,1.37-.252.402-.445.71-.638,1.018.435.124.871.249,1.436.41-.455,1.116-.409,1.297.704,1.757.236,1.007,1.231,1.468,1.973,2.04.853.704,1.654,2.045,3.013,1.97-.367,1.39,1.423.545,2.121.967-1.036.973-.927,1.293.14,1.928-.026.064-.052.129-.078.193-.473-.052-.945-.105-1.599-.177.27.731,1.157.622.746,1.475-.068.73,1.223.916,1.837.424-.165.316-.264.505-.399.765.57-.039.209,1.014.965.708.422-.171.76-.545,1.101-.949-1.081.652-1.342-.397-.403-.954,1.362.035,2.055-.861,2.827-1.742,1.164-1.315,2.162-2.092,3.896-1.315.42.365.792.737,1.358.086,1.024.926,2.01,1.817,2.997,2.709.08-.067.161-.134.241-.2-.201-.332-.402-.663-.707-1.165,1.923,1.296,3.917-1.03,5.357.406.242,1.625,1.152,2.489,2.362,3.451,1.077.962.459,2.642,1.638,3.51.591.438.42,1.541,1.363.95,1.136-.803,2.064,1.302,1.41,2.168.424.081.745.143,1.018.195-.349.427-.657.804-.966,1.18.601.262-.509,1.372.736,1.339.079-.234.163-.483.242-.715.997.668,2.299,1.187,1.222,2.566.322.045.606.085.957.133-.052.234-.096.434-.112.508.399.361.738.669,1.123,1.017-.197.249-.374.474-.652.826.998-.259,1.849-.481,2.782-.723.017.314.026.498.036.679,2.534.548.472,4.428.011,6.054.081.056.162.112.243.169,1.616-1.377,2.453-3.491,3.878-5.066.083.048.165.097.248.145-.384.974-.893,1.909-1.079,2.947,1.031-.032,1.49-.808,2.019-1.568,3.259,2.237,14.631-18.5,13.479-7.991.094.03.189.059.283.089,1.094-2.144,4.509-2.623,4.519.402-.096.89.735.556,1.293.499.593-.139.81.106.812.662-.08,1.962,4.51.524,3.973,3.236,2.144-.457,1.241,2.226,2.864,2.406.605-.004,1.21.372,1.837.587-.225.485-.433.934-.678,1.461,5.02.996,1.101.777,3.501,2.933,4.404,2.295.161,6.216-.403,9.674.089.041.178.082.266.123-.185.117-.369.233-.605.382.059.154.126.329.196.511-1.449.027-.687,1.274-1.387,2.138-.349.477-.522.808.079,1.218.73.849.617,2.264.918,3.296-.073-.059-.231-.188-.271-.221-.656,1.441.088,2.991-1.8,3.481-.204.757-.278,1.634-1.183,2.076-.315-.334-.584-.62-.852-.905-.137-.009-.274-.017-.41-.026.293,2.122-.855,3.447-1.799,5.239,1.242.98,3,.811,3.902,1.869.136.202.265.614.366.604,1.437-.079,1.729,1.318,2.679,1.994.643-.661,1.245-1.281,1.864-1.918.26.187.466.335.672.483.052-.03.105-.061.157-.091l-.428-.924c1.562-3.164,1.703.665,2.812-1.18.475.196-.208,1.169.688.926.129-.035.115-.591.193-1.067,1.148-.008,1.437,1.548,2.789.384.073.773.039,1.143.215,1.756,1.685-.842,3.335-2.183,4.895-3.547,1.023-1.326,1.915-1.908,3.486-.744-.475.142-.748.223-1.02.305-.005.067-.011.135-.016.202.378.068.756.137,1.195.217.034-.181.063-.334.1-.528,1.723.228.025,1.229,1.078,1.799.134-.204.256-.391.296-.453,1.868.37,1.023-1.643.979-2.751l.204-.01c1.293,1.101,1.019,3.405,2.372,4.092.478.042.83.144,1.165.502,1.443.824.727-1.53,1.45-1.887.825-.061,1.284.754,1.73,1.415-.65,1.95,2.239,2.847,3.33,4.16-1.55-.417-2.332-.086-.804,1.442.229-.349.361-.551.594-.905.361.657.506,1.139,1.073,1.535.326-.601.054-1.047-.141-1.632.68.197,1.275.399.869,1.299.351,2.153,4.294-.792,3.39,2.185.898-.303,3.057.317,1.793,1.39-.131.095-.137.605-.006.756.169.194.628.381.795.285.865-.523,1.285.614,1.879,1.035,1.081,1.873-1.129,3.834-.969,5.528,1.202.529-.36,2.016-1.067.878-.308.414-.488.762.194.862,1.616,1.818-2.468,6.466-3.68,8.628.365-.107.59-.173.909-.267.159.618,1.012,1.706-.01,1.987-.745.554-.263,1.555-.229,2.5.289.015,1.168-.414,1.404-.381.598.516,1.12.261,1.637-.051.559-.337.696-.053.782.465.801,2.367,1.179,4.776,2.081,7.035.296,1.29.714,3.393,2.176,3.714.357.969,1.887,1.054,1.624,2.511,2.597-.272,2.122,3.134,2.166,4.769,2.929,1.423-1.903,4.927-2.06,7.046-1.368,1.049-1.719,3.218-2.761,3.844-.552.332.13,1.785-.94,1.65-.796.839-1.221,1.956-2.062,3.186,3.359.425,6.449.815,9.532,1.205.032,1.666.885.365,1.742,1.274-.463.32-.798.55-1.11.766,1.152,1.211,1.958,3.802.022,4.516-1.213-.421-.742.496-.819,1.117.542-.177.997-.326,1.52-.497.973,1.168-1.798,1.906-.43,3.306.013,5.671-9.282,6.554-2.154,13.149-.601.93.805,1.579.35,2.49-.864,1.241-.557,2.496,1.028,2.77.031-.119.095-.368.163-.633,1.014.619,2.481,4.084,2.35,5.432.203-.031.46-.071.716-.111-.01.096-.021.192-.031.288-.183.196-.365.393-.548.59.022.092.044.183.066.275.393-.066.786-.133,1.324-.224-.604.681-.237,2.147-1.186,2.219-.146-.009-.301.289-.452.446.707.611,1.519-.008,2.306-.16.039.066.079.131.118.197-3.126,4.171-9.064,6.455-10.856,11.429-.128,1.576-.41.812-1.467,1.079.511.307,1.427.88.622,1.38-.764.446.062,1.168-.253,1.875-.087.003-.174.006-.261.009-.122-.197-.243-.393-.517-.836-2.745,9.891-14.735,10.7-21.933,16.161-4.721,4.006-9.465,8.241-14.742,11.416-1.032,1.679-4.844,4.864-6.137,2.157.234-.101.458-.199.914-.396-.521-.325-.863-.539-1.347-.841.147,1.114-.969,3.195-.613,1.098-1.212-.582-.148-1.97-.78-3.19-.401.884-.706,1.557-1.011,2.231-1.428-.731-.155-3.632-1.829-3.831-.673,1.024-1.157.594-1.616-.31-.299.539-.537.97-.797,1.437-3.272-3.432-9.814,6.669-13.382,6.068-1.938.182-3.462,3.741-5.535,2.824-8.971-2.229-27.887,23.203-33.172,18.759.277-.119.533-.228,1.027-.44-.491-.356-.823-.597-1.214-.881-1.253,2.454-1.359-.662-1.252-1.807-.098-.031-.197-.062-.295-.093-.366.652-.732,1.305-1.092,1.947-1.624-.22.047-4.78-1.789-3.836-.899,1.306-.917.067-1.661-.321-.179.432-.346.837-.504,1.219-2.082-1.718-4.408.854-6.83.32-.817.38-2.702,1.194-2.44-.602.711-.752,1.476-3.949-.374-3.102-.693-1.096-.614-1.406.383-1.632-.13-1.436-.512-1.982-1.573-.714.167-2.383-1.748-3.383-1.153-5.508.157-.534-.429-1.418-.268-1.963.769-1.473-.333-2.133-.906-3.004-1.931-.74-2.614-2.2-3.516-4.067-.659.517-1.34,1.051-2.08,1.631.027-.286.049-.514.074-.772-2.134.455-.86,2.028-2.308,3.424-.48-2.06,1.266-3.471,1.159-5.483-7.491,8.85-14.265,20.34-21.905,27.933ZM281.647,165.413c.861.91-.177,1.368.871,1.808.243-.854,1.473-1.293.613-2.462l-.624.31-.413-.196c.221-.269.443-.537.662-.803-1.404-1.639-1.201.322-1.109,1.344ZM33.541,183.748c-.44.598-.881,1.197-1.321,1.794.416.232.892.496,1.372.764.972-1.015.967-1.809-.051-2.558ZM282.421,173.251c-.222-.095-.444-.189-.666-.284.342-.493.685-.986.992-1.43-.25-.17-.55-.375-.848-.578q-.56.478.02,1.052c-.282.189-.563.377-.843.564-.009.121-.018.242-.026.363.457.104.914.208,1.372.313ZM280.446,162.308c-.318.619-.555,1.08-.89,1.733,1.061-.275,2.309-1.141.89-1.733ZM230.913,89.214c-.07.023-.14.046-.21.069-.088.634-.176,1.268-.273,1.965l.902-.413c-.137-.532-.278-1.077-.419-1.622ZM179.677,43.765c-.848.503-.866.792-.101,1.425.035-.491.064-.905.101-1.425ZM38.809,78.717c.649.155,1.027.174,1.063-.485-.428-.544-.687.017-1.063.485ZM31.936,191.013c-.467.934-.379,1.117.477,1.239-.178-.463-.328-.851-.477-1.239ZM281.27,169.697c.154.012.308.025.462.037.005-.409.011-.818.016-1.226-.12-.01-.24-.02-.36-.03-.039.406-.079.812-.118,1.218ZM76.359,239.142c-.032.385-.064.77-.106,1.275.927-.494.838-.89.106-1.275Z" fill="none"/>
    </clipPath>
    <linearGradient id="c" data-name="Dégradé sans nom 13" x1="148.843" y1="67.007" x2="148.843" y2="252.017" gradientUnits="userSpaceOnUse">
      <stop offset="0" stop-color="#ffd66e"/>
      <stop offset="1" stop-color="#e86170"/>
    </linearGradient>
    <filter id="d" data-name="drop-shadow-1" x="-157.864" y="46.546" width="415.415" height="203.117" filterUnits="userSpaceOnUse">
      <feOffset dx="-5.526" dy="0"/>
      <feGaussianBlur result="e" stdDeviation="0"/>
      <feFlood flood-color="#42496f" flood-opacity="1"/>
      <feComposite in2="e" operator="in"/>
      <feComposite in="SourceGraphic"/>
    </filter>
    <filter id="f" data-name="drop-shadow-2" x="-157.864" y="46.546" width="356.772" height="241.516" filterUnits="userSpaceOnUse">
      <feOffset dx="-5.526" dy="0"/>
      <feGaussianBlur result="g" stdDeviation="0"/>
      <feFlood flood-color="#42496f" flood-opacity="1"/>
      <feComposite in2="g" operator="in"/>
      <feComposite in="SourceGraphic"/>
    </filter>
  </defs>
  <g clip-path="url(#b)">
    <rect x="5.286" y="7.067" width="287.116" height="269.478" fill="url(#c)"/>
    <path d="M222.776,130.289c-7.041-25.981-46.479-41.625-86.52-24.189-3.405,1.483-7.291,1.219-10.63-.406-17.441-8.489-41.841-12.783-59.298-3.409-3.995,2.145-4.292,7.784-.556,10.355,1.02.702,2.128,1.473,3.292,2.292L-150.545,46.608c-.01-.003-.019-.003-.029-.006-.016-.004-.031-.006-.046-.009-.163-.041-.328-.055-.487-.037-.009.001-.018.004-.027.005-.167.022-.328.072-.475.151-.01.006-.019.013-.03.019-.148.085-.281.195-.39.33-.003.004-.007.005-.01.009-.006.007-.006.016-.012.023-.095.125-.175.265-.224.423-.003.009-.003.019-.006.028-.004.016-.005.031-.01.047-.041.164-.055.328-.037.488,0,.008.004.016.005.024.022.169.073.331.152.479.005.009.011.016.016.025.085.15.197.284.333.394.003.003.005.007.008.009L31.887,194.424c.624,2.052,1.2,4.021,1.721,5.859.935,3.299.093,6.69-1.993,9.15-7.985-6.127-16.822-11.329-25.796-15.746-6.405-3.153-13.823-6.059-20.489-3.504-2.863,1.097-4.967,3.732-6.016,6.627-1.087-1.1-2.292-2.097-3.475-2.906-11.366-7.78-26.921-14.958-38.008-6.787-8.405,6.196-9.503,18.931-5.324,28.5,4.18,9.569,12.352,16.708,20.272,23.513-7.64-5.246-17.803-8.632-26.098-4.501-8.295,4.131-7.558,17.414-2.022,22.175-6.322-2.848-15.373.209-17.102,7.561-1.729,7.353,1.784,14.815,5.198,21.553-1.253,1.608-6.723,6.922-10.084,7.313,8.644,0,24.837-.106,44.842-.27,5.638,3.525,12.496,4.472,19.117,5.226,56.925,6.494,114.654,5.904,171.434-1.751l.755-1.49c-1.515-1.313-3.055-2.596-4.607-3.863,2.185-.024,3.361-.037,3.361-.037-1.124-1.475-2.263-2.94-3.412-4.397l10.307-.075c27.921-15.635,56.215-16.007,54.354-23.826-1.861-7.817-34.25-7.445-34.25-7.445-4.386-10.134-11.552-20.505-22.826-29.201-.295-.726-.6-1.448-.912-2.166,5.551-9.358,8.303-21.926,8.321-34.88,2.469-1.964,4.896-3.839,7.259-5.6,1.401,5.457-1.346,7.27-1.346,7.27l27.983,33.694c7.694-19.414-1.138-43.02-6.069-53.668.292-.119.586-.242.87-.348,27.009-10.161,48.16-6.501,54.144-9.956,5.398-3.117-15.101-5.602-33.448-3.766.199-.637.311-1.311.342-2.005,8.069-3.076,24.123-7.701,48.765-8.294,14.831-.357,17.639-16.908-24.879-16.091ZM-144.276,51.453L76.115,120.02c4.826,3.575,10.018,7.626,14.697,11.712,3.891,3.398,4.742,9.144,1.807,13.395-4.984,7.217-9.685,14.956-14.038,22.774-.264-.246-.523-.496-.795-.734-6.99-6.12-17.316-9.137-25.86-5.788-6.553-2.968-13.407-4.791-20.267-5.152-6.844-.36-11.547,6.798-8.817,13.084,2.926,6.737,5.475,13.873,7.583,20.431L-144.276,51.453Z" fill="none" stroke="#fff" stroke-linecap="round" stroke-linejoin="round" stroke-width="20"/>
    <g>
      <g>
        <g filter="url(#d)">
          <path d="M174.108,165.052s19.223,33.426,8.943,59.365l-27.983-33.694s3.957-2.576,0-10.915l19.04-14.756Z" fill="#336a9b"/>
          <path d="M222.776,130.289c-7.041-25.981-46.479-41.625-86.52-24.189-3.405,1.483-7.291,1.219-10.63-.406-17.441-8.489-41.841-12.783-59.298-3.409-3.995,2.145-4.292,7.784-.556,10.355,6.619,4.555,16.656,11.769,25.041,19.092,3.891,3.398,4.742,9.144,1.807,13.395-26.856,38.89-45.53,92.928-45.53,92.928l36.1,11.607s67.655-69.1,94.663-79.262c27.009-10.161,48.16-6.501,54.144-9.956,5.983-3.454-19.85-6.135-39.302-3.013,0,0,17.633-10.153,54.963-11.051,14.831-.357,17.639-16.908-24.879-16.091Z" fill="#b1ddea"/>
          <circle cx="190.98" cy="154.309" r="7.929" fill="#42496f"/>
          <line x1="-150.956" y1="47.927" x2="190.98" y2="154.309" fill="none" stroke="#42496f" stroke-linecap="round" stroke-linejoin="round" stroke-width="2.763"/>
          <path d="M149.004,183.504c1.436,24.602-6.88,49.292-25.384,54.863v-38.551s5.028-.802,4.494-7.487l20.89-8.824Z" fill="#b1ddea"/>
          <line x1="204.122" y1="127.728" x2="205.969" y2="133.267" fill="none" stroke="#42496f" stroke-linecap="round" stroke-linejoin="round" stroke-width="2.763"/>
          <line x1="214.789" y1="126.908" x2="216.225" y2="132.036" fill="none" stroke="#42496f" stroke-linecap="round" stroke-linejoin="round" stroke-width="2.763"/>
        </g>
        <path d="M138.665,219.271c-2.741-5.51-6.501-11.184-12.391-12.969-5.105-1.548-11.601,1.855-12.399,6.707-.434-6.225-3.769-12.068-7.699-17.017-1.693-2.13-3.609-4.235-6.142-5.23-2.533-.996-5.827-.542-7.367,1.701-3.136-9.392-7.433-18.773-14.881-25.297-7.449-6.522-18.687-9.522-27.519-5.046-11.426,5.788-14.371,21.095-12.123,33.707,2.248,12.61,8.211,24.459,9.287,37.223-9.061-11.471-25.225-16.79-39.328-12.94-2.416.66-4.99,1.758-6.064,4.021-.923,1.944-.49,4.241.114,6.305,2.416,8.26,7.353,15.766,13.982,21.253l132.869,6.301c-.811-13.424-4.35-26.677-10.339-38.719Z" fill="#fff"/>
        <g>
          <g>
            <path d="M19.171,158.439c1.613-.509,2.886.71,3.044,1.748.188,1.238-.569,2.428-1.76,2.68-1.255.266-2.471-.52-2.747-1.782-.044-.203-.055-.413-.095-.618-.331-1.728-.227-1.865,1.559-2.029Z" fill="#fff"/>
            <path d="M10.139,193.566c-.148-1.128.633-2.159,1.768-2.334,1.194-.183,2.254.621,2.38,1.807.119,1.118-.702,2.157-1.822,2.305-1.117.148-2.18-.665-2.326-1.778Z" fill="#fff"/>
            <path d="M31.895,181.283c-.117-.947.429-1.577,1.508-1.738,1.039-.155,1.984.535,2.109,1.539.121.975-.581,1.851-1.579,1.969-1.046.124-1.895-.613-2.038-1.77Z" fill="#fff"/>
            <path d="M41.192,172.317c.1.978-.564,1.808-1.517,1.897-.944.088-1.776-.607-1.875-1.567-.107-1.038.566-1.937,1.515-2.026.955-.089,1.77.647,1.876,1.696Z" fill="#fff"/>
            <path d="M15.93,172.44c-.12-.944.548-1.829,1.48-1.959.945-.132,1.817.539,1.935,1.491.121.967-.523,1.813-1.48,1.947-.966.135-1.811-.511-1.935-1.478Z" fill="#fff"/>
            <path d="M33.738,151.335c-.084-.901.619-1.711,1.539-1.773.876-.059,1.644.581,1.748,1.455.11.925-.539,1.722-1.477,1.813-.918.089-1.725-.577-1.811-1.496Z" fill="#fff"/>
            <path d="M18.756,201.038c-.893.078-1.641-.538-1.742-1.435-.106-.934.548-1.726,1.485-1.801.888-.071,1.653.557,1.75,1.438.103.93-.55,1.716-1.494,1.798Z" fill="#fff"/>
            <path d="M39.112,159.777c.078.845-.494,1.564-1.28,1.611-.814.049-1.595-.609-1.672-1.41-.079-.824.481-1.502,1.311-1.586.857-.087,1.56.507,1.641,1.384Z" fill="#fff"/>
            <path d="M2.718,190.333c-.026-.24-.078-.482-.073-.721.017-.739.403-1.187,1.147-1.194.754-.007,1.128.467,1.161,1.187.018.376-.087.757-.08,1.134.012.694-.258,1.17-.979,1.213-.735.044-1.038-.429-1.093-1.106-.014-.172-.036-.344-.055-.516-.01.001-.019.002-.029.003Z" fill="#fff"/>
            <path d="M42.332,187.444c.109.812-.439,1.57-1.207,1.668-.778.099-1.592-.558-1.691-1.366-.093-.761.533-1.538,1.297-1.612.785-.076,1.494.504,1.602,1.31Z" fill="#fff"/>
            <path d="M4.358,156.472c.066.805-.543,1.518-1.368,1.543-.862.026-1.39-.42-1.519-1.27-.124-.816.466-1.512,1.298-1.589.825-.076,1.522.502,1.589,1.317Z" fill="#fff"/>
            <path d="M12.22,184.725c-.751.082-1.477-.479-1.576-1.22-.104-.777.517-1.517,1.326-1.578.765-.058,1.46.52,1.524,1.269.064.742-.523,1.447-1.274,1.529Z" fill="#fff"/>
            <path d="M9.605,166.264c.67.016,1.171.366,1.279,1.142.099.711-.482,1.436-1.181,1.458-.769.025-1.255-.389-1.381-1.141-.117-.697.482-1.391,1.282-1.459Z" fill="#fff"/>
            <path d="M26.055,193.535c.376.41.935.763,1.087,1.244.226.717-.303,1.202-1.011,1.299-.73.1-1.328-.317-1.32-1.014.006-.493.483-.98.749-1.47l.495-.059Z" fill="#fff"/>
            <path d="M27.864,172.94c-.631-.578-1.116-.859-1.299-1.272-.073-.164.476-.821.826-.907.619-.151,1.099.25,1.067.94-.014.306-.276.6-.594,1.24Z" fill="#fff"/>
            <path d="M32.495,185.709c-.553.467-.854.921-1.155.921-.32,0-.639-.431-.959-.673.253-.312.463-.809.772-.881.295-.069.694.305,1.342.634Z" fill="#fff"/>
            <path d="M20.269,188.005c.509-.436.782-.854,1.064-.86.295-.006.599.383.899.6-.243.313-.433.778-.747.888-.231.081-.625-.303-1.215-.627Z" fill="#fff"/>
            <path d="M-.698,195.606c.545-.461.835-.894,1.102-.881.298.015.71.392.811.698.059.18-.359.709-.617.752-.296.049-.653-.265-1.297-.569Z" fill="#fff"/>
            <path d="M8.224,181.272c-.427-.534-.838-.822-.827-1.094.012-.294.418-.571.651-.856.286.238.74.436.807.724.061.262-.3.622-.632,1.225Z" fill="#fff"/>
            <path d="M5.975,174.729c-.411-.452-.807-.695-.81-.943-.003-.263.343-.714.581-.745.239-.031.688.313.755.569.063.239-.253.579-.525,1.119Z" fill="#fff"/>
            <path d="M33.245,193.763c-.402-.462-.766-.698-.792-.966-.023-.233.351-.721.525-.71.299.019.732.287.82.549.074.218-.264.576-.553,1.127Z" fill="#fff"/>
            <path d="M28.335,196.727c.402.476.789.734.785.985-.004.277-.368.549-.575.823-.265-.217-.685-.396-.751-.662-.061-.246.257-.586.54-1.145Z" fill="#fff"/>
            <path d="M15.34,154.678c-.322-.37-.706-.627-.676-.82.044-.282.384-.517.599-.773.244.231.612.428.688.705.05.185-.317.483-.611.887Z" fill="#fff"/>
            <path d="M29.687,149.344c-.42.316-.703.685-.91.647-.276-.051-.493-.419-.735-.651.23-.21.448-.569.694-.589.244-.019.515.302.952.593Z" fill="#fff"/>
            <path d="M23.946,185.618c.348-.335.559-.693.746-.682.269.017.522.303.781.474-.206.23-.375.569-.63.653-.18.06-.475-.222-.897-.446Z" fill="#fff"/>
            <path d="M25.35,178.294c.344-.319.526-.608.764-.665.146-.035.556.32.532.438-.048.247-.265.543-.491.644-.137.061-.42-.205-.805-.417Z" fill="#fff"/>
          </g>
          <g>
            <path d="M90.275,205.906c-2.661,2.374-6.164,1.134-7.367-.727-1.433-2.218-1.008-5.161,1.064-6.678,2.184-1.598,5.203-1.139,6.826,1.048.261.352.464.747.717,1.106,2.133,3.036,2.051,3.39-1.241,5.251Z" fill="#fff"/>
            <path d="M77.231,130.536c1.262,2.042.652,4.7-1.38,6.019-2.136,1.386-4.872.756-6.142-1.413-1.198-2.046-.518-4.756,1.508-6.011,2.02-1.251,4.769-.608,6.013,1.406Z" fill="#fff"/>
            <path d="M46.028,172.992c1.046,1.719.54,3.405-1.395,4.648-1.864,1.197-4.278.689-5.388-1.133-1.078-1.771-.486-4.063,1.331-5.153,1.905-1.143,4.175-.461,5.452,1.639Z" fill="#fff"/>
            <path d="M35.913,198.285c-1.038-1.794-.481-3.965,1.274-4.961,1.739-.987,3.941-.37,4.962,1.39,1.104,1.903.589,4.215-1.16,5.207-1.76.999-3.963.288-5.077-1.636Z" fill="#fff"/>
            <path d="M84.385,176.175c1.049,1.71.529,3.992-1.149,5.049-1.703,1.073-3.96.536-5.013-1.191-1.069-1.755-.565-3.939,1.161-5.026,1.741-1.096,3.926-.586,5.001,1.167Z" fill="#fff"/>
            <path d="M68.413,232.18c.941,1.66.29,3.826-1.425,4.742-1.633.872-3.665.307-4.622-1.285-1.012-1.684-.454-3.779,1.27-4.766,1.688-.967,3.817-.383,4.777,1.309Z" fill="#fff"/>
            <path d="M54.19,123.628c1.649-.923,3.621-.386,4.593,1.251,1.011,1.704.441,3.794-1.297,4.75-1.646.906-3.662.36-4.611-1.249-1.003-1.7-.429-3.775,1.315-4.752Z" fill="#fff"/>
            <path d="M50.77,220.598c-.881-1.558-.405-3.436,1.066-4.207,1.523-.799,3.594-.209,4.436,1.264.866,1.515.375,3.305-1.148,4.184-1.572.908-3.439.376-4.354-1.241Z" fill="#fff"/>
            <path d="M94.301,130.328c.258.44.567.858.764,1.324.607,1.437.252,2.632-1.171,3.29-1.443.667-2.573.077-3.261-1.277-.359-.708-.488-1.531-.828-2.251-.625-1.325-.516-2.473.832-3.18,1.374-.721,2.368-.074,3.059,1.181.176.319.367.63.552.945.018-.01.036-.021.053-.031Z" fill="#fff"/>
            <path d="M20.622,170.182c-.913-1.468-.515-3.4.878-4.254,1.411-.865,3.546-.305,4.434,1.162.837,1.382.307,3.42-1.097,4.223-1.444.825-3.308.324-4.214-1.131Z" fill="#fff"/>
            <path d="M128.866,174.25c1.61-1.026,3.366-.79,4.298.576.876,1.285.45,3.198-.91,4.079-1.367.886-4.55.135-5.36-1.265-.64-1.105-.067-2.09,1.972-3.389Z" fill="#fff"/>
            <path d="M120.464,196.864c-.825-1.491-.27-3.389,1.295-4.151,1.635-.795,3.037-.395,4.021,1.128.945,1.463.413,3.312-1.121,4.18-1.52.86-3.36.353-4.196-1.157Z" fill="#fff"/>
            <path d="M124.699,147.45c.767,1.447.138,3.404-1.349,4.198-1.514.809-3.184.31-3.964-1.183-.791-1.514-.215-3.408,1.274-4.192,1.413-.744,3.315-.19,4.04,1.177Z" fill="#fff"/>
            <path d="M80.883,149.338c1.374-.809,3.254-.357,4.086.981.873,1.405.319,3.364-1.183,4.183-1.421.775-3.257.265-4.03-1.12-.766-1.372-.247-3.236,1.126-4.044Z" fill="#fff"/>
            <path d="M101.895,182.575c-1.302.55-2.569.311-3.449-1.089-.805-1.282-.315-3.178,1.008-3.826,1.457-.714,2.75-.339,3.643.999.828,1.24.278,3.092-1.202,3.917Z" fill="#fff"/>
            <path d="M46.65,144.376c-1.079-.463-2.458-.658-3.167-1.451-1.056-1.183-.457-2.574.819-3.373,1.316-.824,2.83-.54,3.416.808.415.953-.079,2.303-.168,3.475l-.901.542Z" fill="#fff"/>
            <path d="M61.004,185.546c1.714.566,2.889.685,3.6,1.322.282.252-.203,1.991-.803,2.459-1.06.826-2.331.471-2.866-.883-.238-.601.01-1.393.069-2.898Z" fill="#fff"/>
            <path d="M41.042,165.002c.659-1.376.846-2.51,1.425-2.771.615-.277,1.602.275,2.427.465-.217.818-.19,1.957-.722,2.363-.508.388-1.599.014-3.129-.058Z" fill="#fff"/>
            <path d="M62.565,150.001c-.602,1.279-.765,2.32-1.301,2.575-.562.268-1.483-.219-2.247-.375.197-.812.159-1.871.668-2.354.375-.356,1.464.041,2.88.154Z" fill="#fff"/>
            <path d="M96.304,117.231c-.65,1.358-.832,2.443-1.357,2.649-.586.229-1.704-.14-2.164-.641-.27-.294.076-1.674.535-1.98.527-.352,1.486-.056,2.987-.028Z" fill="#fff"/>
            <path d="M91.557,152.52c1.284.657,2.323.856,2.537,1.388.231.575-.308,1.46-.512,2.21-.755-.21-1.801-.197-2.18-.694-.344-.452.037-1.456.154-2.904Z" fill="#fff"/>
            <path d="M101.547,163.156c1.181.512,2.153.637,2.374,1.111.234.503-.041,1.669-.472,1.935-.432.267-1.593-.006-1.944-.44-.329-.406-.015-1.332.042-2.607Z" fill="#fff"/>
            <path d="M32.627,150.162c1.172.54,2.077.678,2.36,1.172.246.429-.052,1.69-.396,1.819-.592.222-1.656.081-2.052-.345-.331-.356.009-1.337.088-2.646Z" fill="#fff"/>
            <path d="M39.502,140.212c-1.185-.568-2.152-.727-2.363-1.215-.232-.536.232-1.373.393-2.079.698.188,1.66.169,2.017.624.33.421.013,1.351-.047,2.67Z" fill="#fff"/>
            <path d="M100.899,209.822c.94.433,1.9.595,2.01.992.16.579-.291,1.328-.482,2.004-.669-.233-1.549-.293-1.934-.761-.257-.312.19-1.204.406-2.235Z" fill="#fff"/>
            <path d="M77.928,232.501c.534-.973.758-1.926,1.19-2.032.575-.141,1.311.379,1.978.615-.26.603-.369,1.483-.824,1.733-.453.248-1.252-.136-2.344-.316Z" fill="#fff"/>
            <path d="M57.561,157.775c-.379.947-.474,1.817-.844,1.957-.532.201-1.265-.131-1.913-.236.197-.621.23-1.418.645-1.802.295-.272,1.106.015,2.112.081Z" fill="#fff"/>
            <path d="M61.202,173.075c-.385.912-.485,1.625-.893,1.94-.251.194-1.345-.134-1.403-.381-.121-.517.04-1.273.387-1.663.21-.236.985.031,1.91.104Z" fill="#fff"/>
          </g>
        </g>
      </g>
      <g>
        <g filter="url(#f)">
          <path d="M198.821,262.746c-1.861-7.817-34.25-7.445-34.25-7.445-8.175-18.887-25.985-38.605-62.1-46.753-5.612-1.266-10.247-5.069-12.828-10.211-11.528-22.97-34.73-40.887-57.985-42.11-6.844-.36-11.547,6.798-8.817,13.084,4.606,10.607,8.282,22.206,10.766,30.972,1.385,4.887-1.119,9.985-5.807,11.94-49.172,20.501-87.344,75.839-87.344,75.839l204.012-1.49c27.921-15.635,56.215-16.007,54.353-23.826Z" fill="#b1ddea"/>
          <circle cx="132.182" cy="272.053" r="8.563" fill="#42496f"/>
          <line x1="138.337" y1="245.355" x2="140.183" y2="250.894" fill="none" stroke="#42496f" stroke-linecap="round" stroke-linejoin="round" stroke-width="2.763"/>
          <line x1="149.004" y1="244.535" x2="150.44" y2="249.663" fill="none" stroke="#42496f" stroke-linecap="round" stroke-linejoin="round" stroke-width="2.763"/>
          <line x1="132.182" y1="272.053" x2="-150.956" y2="47.927" fill="none" stroke="#42496f" stroke-linecap="round" stroke-linejoin="round" stroke-width="2.763"/>
        </g>
        <path d="M-97.329,293.23c39.326,0,234.902-2.186,234.902-2.186-16.917-22.185-36.586-42.562-59.91-57.87-5.27-3.459-11.679-6.769-17.61-4.632-2.756.993-4.503,3.802-5.024,6.654-10.75-18.626-29.68-31.897-49.209-41.51-6.405-3.153-13.823-6.059-20.489-3.504-2.863,1.097-4.967,3.732-6.016,6.627-1.087-1.1-2.292-2.097-3.475-2.906-11.366-7.78-26.921-14.958-38.008-6.787-8.405,6.196-9.503,18.931-5.324,28.5,4.18,9.569,12.352,16.708,20.272,23.513-7.64-5.246-17.803-8.632-26.098-4.501-8.295,4.131-7.558,17.414-2.022,22.175-6.322-2.848-15.373.209-17.102,7.561-1.729,7.353,1.784,14.815,5.198,21.553-1.253,1.608-6.723,6.922-10.084,7.313Z" fill="#fff"/>
        <path d="M43.603,248.263c-9.272-1.855-19.158-3.024-27.968.409-14.994,5.844-22.292,26.016-14.508,40.099-7.923-14.143-22.097-24.629-37.938-28.068-4.07-.884-8.904-1.102-11.784,1.905-4.327,4.517-.867,11.893,2.696,17.034-4.475-2.291-12.9-4.34-17.081-.87-4.575,3.797,4.429,10.254,10.133,13.967,5.704,3.713,12.716,4.676,19.478,5.447,56.925,6.494,114.654,5.904,171.434-1.751l.755-1.49c-27.008-23.415-60.166-39.671-95.217-46.682Z" fill="#9bc8ec"/>
        <g>
          <g>
            <path d="M12.693,162.807c3.286,1.358,3.693,5.041,2.544,6.928-1.369,2.249-4.195,3.144-6.456,1.942-2.382-1.267-3.28-4.176-2.021-6.582.203-.387.469-.741.682-1.123,1.8-3.232,2.153-3.312,5.251-1.164Z" fill="#fff"/>
            <path d="M2.348,216.804c1.09-1.685,2.822-1.962,4.777-.764,1.883,1.154,2.475,3.541,1.32,5.328-1.122,1.736-3.436,2.199-5.203,1.041-1.853-1.214-2.225-3.547-.894-5.605Z" fill="#fff"/>
            <path d="M29.44,214.909c-1.16,1.711-3.35,2.152-5.006,1.009-1.64-1.132-2.042-3.377-.905-5.057,1.229-1.817,3.527-2.358,5.177-1.219,1.66,1.146,1.978,3.432.734,5.267Z" fill="#fff"/>
            <path d="M45.762,171.031c1.081-1.565,3.308-1.921,4.875-.778,1.491,1.088,1.866,3.156.852,4.707-1.072,1.639-3.195,2.047-4.829.928-1.6-1.096-2-3.26-.898-4.856Z" fill="#fff"/>
            <path d="M43.022,191.892c-1.016,1.466-2.908,1.854-4.238.869-1.378-1.021-1.747-3.136-.79-4.53.984-1.434,2.804-1.77,4.254-.785,1.498,1.017,1.83,2.924.775,4.447Z" fill="#fff"/>
            <path d="M10.848,240.827c-.921,1.457-2.828,1.937-4.199,1.058-1.388-.891-1.812-3.05-.881-4.484.878-1.351,2.936-1.76,4.266-.847,1.367.938,1.727,2.829.813,4.274Z" fill="#fff"/>
            <path d="M7.118,197.914c-.236-1.784-.638-2.89-.375-3.805.104-.362,1.876-.682,2.555-.346,1.202.593,1.434,1.888.451,2.956-.436.474-1.255.595-2.631,1.195Z" fill="#fff"/>
            <path d="M11.599,151.572c-.019-1.031-.29-1.964.019-2.235.451-.395,1.318-.314,2.008-.437.081.702.409,1.517.156,2.066-.168.366-1.163.351-2.183.605Z" fill="#fff"/>
            <path d="M41.922,162.351c-1.105-.058-2.058.155-2.34-.187-.376-.455-.228-1.341-.306-2.042.655-.028,1.491-.312,1.913-.012.419.298.422,1.183.734,2.241Z" fill="#fff"/>
          </g>
          <g>
            <path d="M60.498,235.359c-.542,1.32-2.02,1.487-2.779,1.028-.904-.548-1.266-1.681-.786-2.59.506-.957,1.673-1.321,2.64-.817.156.081.298.187.452.273,1.299.719,1.331.861.472,2.107Z" fill="#fff"/>
            <path d="M42.612,210.515c.811.514,1.057,1.578.557,2.408-.526.873-1.621,1.125-2.458.566-.789-.527-1.019-1.621-.509-2.427.508-.804,1.61-1.054,2.41-.547Z" fill="#fff"/>
            <path d="M38.812,231.257c.677.436.79,1.131.311,1.917-.461.757-1.419.997-2.137.535-.698-.449-.886-1.377-.423-2.088.485-.745,1.422-.897,2.249-.364Z" fill="#fff"/>
            <path d="M39.598,242.131c-.688-.464-.867-1.343-.41-2.009.453-.66,1.354-.823,2.029-.368.731.492.95,1.414.494,2.077-.459.667-1.376.797-2.114.3Z" fill="#fff"/>
            <path d="M53.174,225.689c.677.432.889,1.344.47,2.018-.425.684-1.331.886-2.013.449-.692-.444-.893-1.319-.462-2.012.435-.699,1.31-.898,2.004-.455Z" fill="#fff"/>
            <path d="M57.227,248.642c.629.433.774,1.326.317,1.956-.435.6-1.265.752-1.889.346-.659-.429-.825-1.281-.377-1.938.438-.643,1.307-.806,1.948-.365Z" fill="#fff"/>
            <path d="M33.11,212.061c.432-.621,1.236-.773,1.872-.353.662.436.823,1.288.365,1.936-.434.614-1.255.77-1.878.357-.659-.436-.815-1.284-.358-1.94Z" fill="#fff"/>
            <path d="M48.85,247.561c-.59-.406-.747-1.166-.353-1.701.408-.554,1.257-.704,1.818-.321.577.394.713,1.124.319,1.707-.407.602-1.172.737-1.784.315Z" fill="#fff"/>
            <path d="M48.719,207.452c.17.113.354.21.507.343.47.411.552.903.154,1.389-.403.492-.913.478-1.397.111-.253-.192-.444-.466-.692-.665-.457-.367-.619-.8-.257-1.29.368-.5.839-.441,1.308-.11.119.084.243.162.364.243.005-.007.009-.014.014-.021Z" fill="#fff"/>
            <path d="M29.176,234.692c-.586-.368-.78-1.134-.429-1.685.356-.558,1.223-.73,1.799-.358.543.351.709,1.177.344,1.712-.375.55-1.134.696-1.715.33Z" fill="#fff"/>
            <path d="M68.847,217.212c.4-.651,1.073-.874,1.648-.545.54.309.721,1.072.386,1.627-.337.558-1.614.845-2.151.483-.424-.286-.39-.741.117-1.565Z" fill="#fff"/>
            <path d="M69.781,226.821c-.558-.392-.69-1.173-.26-1.721.449-.573,1.024-.674,1.645-.298.596.361.728,1.12.328,1.7-.397.576-1.148.715-1.713.318Z" fill="#fff"/>
            <path d="M62.657,208.295c.529.386.645,1.201.249,1.747-.403.556-1.092.669-1.634.268-.55-.407-.674-1.189-.275-1.732.378-.515,1.16-.649,1.66-.283Z" fill="#fff"/>
            <path d="M47.217,216.643c.353-.531,1.109-.698,1.642-.362.56.353.704,1.155.306,1.713-.376.528-1.126.665-1.646.302-.516-.36-.655-1.121-.302-1.653Z" fill="#fff"/>
            <path d="M60.597,224.928c-.372.426-.87.562-1.432.212-.514-.32-.67-1.089-.307-1.553.4-.512.93-.603,1.486-.278.515.301.641,1.064.253,1.62Z" fill="#fff"/>
            <path d="M34.027,220.848c-.469.022-1,.193-1.394.032-.587-.241-.615-.846-.295-1.358.329-.527.924-.689,1.371-.307.316.27.374.843.548,1.28l-.229.353Z" fill="#fff"/>
            <path d="M46.399,233.154c.716-.096,1.16-.259,1.527-.154.146.042.275.752.141,1.026-.237.483-.756.577-1.186.184-.191-.175-.24-.503-.482-1.055Z" fill="#fff"/>
            <path d="M35.619,229.253c-.004-.611-.135-1.051.028-1.247.173-.207.625-.181.955-.257.065.333.274.738.154.977-.115.229-.573.285-1.136.527Z" fill="#fff"/>
            <path d="M40.74,220.088c.007.566.131.969-.018,1.155-.156.195-.572.181-.875.258-.071-.327-.27-.701-.172-.964.073-.194.534-.241,1.064-.449Z" fill="#fff"/>
            <path d="M47.148,202.388c.004.602.128,1.025-.025,1.191-.171.185-.638.248-.891.148-.149-.059-.266-.616-.154-.806.128-.219.525-.28,1.07-.533Z" fill="#fff"/>
            <path d="M51.616,215.92c.577.012.986-.098,1.156.055.184.167.145.579.203.885-.309.057-.683.244-.906.132-.203-.102-.241-.531-.453-1.072Z" fill="#fff"/>
            <path d="M57.073,218c.515-.022.887-.148,1.049-.016.172.14.277.608.169.779-.109.171-.574.277-.777.182-.189-.088-.239-.477-.441-.946Z" fill="#fff"/>
            <path d="M29.993,225.385c.517-.011.866-.119,1.054.009.163.111.277.617.176.724-.174.184-.582.319-.799.235-.182-.07-.231-.483-.432-.968Z" fill="#fff"/>
            <path d="M30.726,220.601c-.526.003-.902.115-1.063-.024-.177-.152-.157-.535-.223-.817.284-.055.627-.23.835-.129.193.094.241.484.45.969Z" fill="#fff"/>
            <path d="M65.007,234.91c.414-.009.788-.118.897.005.159.18.127.529.177.806-.282.033-.609.165-.829.065-.147-.067-.142-.467-.245-.876Z" fill="#fff"/>
            <path d="M60.708,247.092c.022-.444-.064-.826.073-.94.182-.151.538-.093.819-.125.012.263.127.598.007.768-.119.169-.475.17-.899.297Z" fill="#fff"/>
            <path d="M40.299,223.761c.029.407.147.737.039.852-.157.165-.478.174-.73.25-.038-.258-.166-.551-.083-.761.059-.15.401-.188.774-.341Z" fill="#fff"/>
            <path d="M44.288,228.631c.021.396.11.67.018.854-.056.114-.508.187-.572.108-.134-.165-.209-.465-.152-.666.034-.122.36-.161.705-.297Z" fill="#fff"/>
          </g>
        </g>
      </g>
    </g>
  </g>
</svg>