<?xml version="1.0" encoding="UTF-8"?>
<svg xmlns="http://www.w3.org/2000/svg" width="300" height="300" xmlns:xlink="http://www.w3.org/1999/xlink" viewBox="0 0 300 300">
  <defs>
    <clipPath id="b">
      <path d="M126.772,270.147c-.714.568-1.284,1.023-1.977,1.575-.003-.058.007.152.018.393-3.196-.319-3.327-2.383-.098-2.884,1.266-.458,1.292-1.73,1.796-3.082-1.457.556-2.442.47-3.814.697.252.876.893.851,1.45,1.442-.481.508-1.165.591-1.771.508-.164-1.022-1.028-2.49.117-3.246,1.081-.446-.186-1.686-.567-2.013-.576.277-1.111.961-.617,1.595.308.467.508.864-.116,1.321-1.184,3.272-3.027-.469-4.858-1.096.043-.188.129-.569.249-1.096-1.736,1.039-.908-3.182-2.925-.821-1.624-1.05-2.16-4.844-4.273-4.346-.195.121-.721-.087-.862-.323-.793-2.584-3.2-3.697-4.05-6.08-.648-1.513-1.976-2.377-3.113-3.449-.105-.152-.742-.109-.861.057-.955,1.197-2.936.12-3.038-1.301-.305-.566-1.47-1.131-1.391-1.989-.993-1.138.043-1.066.753-1.648-.713-.298-.871-.891-.862-1.733.182-.805-1.666-2.151-.396-2.576,1.456-.278.308-1.173.293-2.22-.995,1.425-2.019,2.272-3.674,2.052-.749.61-1.209.199-1.709-.265-1.289-1.414-3.222.461-4.368,1.389.096-3.759-4.685.9-6.54,1.179-.045-1.293-1.546-2.313-2.535-1.037-2.249-.607-2.976-3.952-4.684-5.586-.354-1.535-2.399-1.151-2.496-2.62-.174-1.629-2.3-1.873-2.288-3.673-1.441-.59-1.123-2.543-2.161-3.441-1.784-2.289-6.496-5.151-5.755-8.104.894-.917,0-1.194-.607-1.76-.469-1.012-1.005-.044-1.776-.239,1.881-2.059-1.466-2.334,1.303-5.969.307-.896-.85-.648-1.11-.104-.689,1.234-1.677,1.063-2.634.934-.512-.549-.059-1.924-1.332-1.664-.087-.365-.174-.73-.265-1.114-1.241.3-1.93,1.597-.515,2.208-1.318,1.253-3.583,4.501-4.84,1.678-1.488.342-1.344-2.237-2.996-.947-.081-.699-.146-1.267-.22-1.908-.179.118-.405.268-.633.418-.357-.743-.386-1.794-1.555-1.625-.128-.956-.256-1.902-.401-2.984-.273.4-.459.674-.57.836-1.739-.398-2.103-2.224-3.029-3.533-.095.013-.19.027-.285.04-.063.335-.127.67-.19,1.006-.1-.005-.2-.01-.301-.014.267-3.392-2.866-4.422-3.859-7.278.268-1.007.296-1.422-.313-2.239-.385.414-.736.792-1.218,1.311-.78-.576-.39-2-1.553-1.698-.335-1.357-.028-2.349.869-3.26-.982-1.094,1.552-3.478-.432-3.648-.108.467-.211.908-.313,1.349h-.215c.026-1.112.053-2.223.084-3.524,2.431,1.178,2.282-2.245,2.499-3.943-.967.712-1.639,2.005-2.82,1.039.176.3.352.6.614,1.048-.519.131-.969.245-1.271.321-.347-1.909.465-3.139,1.711-4.501.127.086.294.199.395.268,2.901-4.637,5.805-9.825,10.004-13.792-1.101-.897-1.671-2.744-.22-3.567.661.055,1.365.339,1.709.081.63-.781,1.133-1.841-.331-2.352-.007-1.37,1.816-2.873.508-4.08-.762-.851-.499-2.634-1.967-2.737-1.541-.467-2.351.923-3.668,1.337-1.282-.241-1.534,1.02-2.196,1.866-.778-.443-1.737-.572-2.254-1.223-.354-1.428-1.427-.995-2.579-1.251.279-.295.512-.541.756-.799-1.61-.454-1.243,1.18-.684,1.971-.347.287-.659.544-1.161.959-.146-.998.719-2.27-.491-2.696-2.003-.024-2.094-3.775-4.13-2.353.013-.316.026-.622.039-.933-1.119-.022-1.15-.978-1.739-1.663-2.298-1.886-1.623-1.258-2.3-3.981-.202.134-.39.26-.632.421-.647-.984-1.563-1.132-1.856-2.568-1.328-2.881-5.346-3.058-7.079-5.386-.585.083-1.041.148-1.601.228,1.383-2.045.167-3.317.285-5.289.802-1.974,1.602-3.943,2.4-5.907l.357.032c-.084.989-.167,1.98-.27,3.197.814-.916.531-1.853.959-2.706.183.12.335.22.487.32.067-.034.134-.067.201-.101.024-1.515-1.858-.945-.615-2.467,8.097-15.249,14.395-31.292,23.079-46.174.452-.861.735-1.603,1.645-.565,1.744.56,1.811-2.35,3.56-2.194.431-.026.743-1.269.438-1.892-.072.32-.123.543-.188.83-.996.023-1.962.045-2.946.068.288-2.054,2.598-2.155,4.1-1.523,1.683-2.489,2.304-6.224,5.744-6.788-.14-.172-.266-.327-.539-.662,2.52-.59,4.58,2.546,6.67,1.905.44-.39.743-.297.818.309-.216.079-.43.157-.716.261,4.26,1.531,8.617,5.253,12.519,6.025.919,2.415,2.378-.584,3.433-1.49.519-.833,1.393-.071,2.021-.601,8.953-9.038,16.928-19.513,26.772-26.991.548-.009,1.596.235,1.946.822,1.848,1.277,2.466-3.795,6.841,1.161.667,1.147,2.425-.463,2.708,1.046.282,1.139,1.689,1.087,2.207,2.067,1.786,1.081,2.565,3.146,4.737,3.803.689.392.8.85,1.497-.017.118,1.414.309,1.516,1.399.76.079.407.154.792.229,1.178l1.123-.477c-.465,6.943,24.591-23.986,27.83-25.766,1.614.353-.188,1.261.697,2.163.504.143.961-.691,1.338-.89,1.676-.328-.022,1.919,1.229,2.224.722.181.831,1.901,1.677.962.181.363.422.654.47.981.121.87,1.498.81,1.687.114.111-.926-.632-2.356.922-2.128.695.044.417,1.093.954,1.37-.252.402-.445.71-.638,1.018.435.124.871.249,1.436.41-.455,1.116-.409,1.297.704,1.757.236,1.007,1.231,1.468,1.973,2.04.853.704,1.654,2.045,3.013,1.97-.367,1.39,1.423.545,2.121.967-1.036.973-.927,1.293.14,1.928-.026.064-.052.129-.078.193-.473-.052-.945-.105-1.599-.177.27.731,1.157.622.746,1.475-.068.73,1.223.916,1.837.424-.165.316-.264.505-.399.765.57-.039.209,1.014.965.708.422-.171.76-.545,1.101-.949-1.081.652-1.342-.397-.403-.954,1.362.035,2.055-.861,2.827-1.742,1.164-1.315,2.162-2.092,3.896-1.315.42.365.792.737,1.358.086,1.024.926,2.01,1.817,2.997,2.709.08-.067.161-.134.241-.2-.201-.332-.402-.663-.707-1.165,1.923,1.296,3.917-1.03,5.357.406.242,1.625,1.152,2.489,2.362,3.451,1.077.962.459,2.642,1.638,3.51.591.438.42,1.541,1.363.95,1.136-.803,2.064,1.302,1.41,2.168.424.081.745.143,1.018.195-.349.427-.657.804-.966,1.18.601.262-.509,1.372.736,1.339.079-.234.163-.483.242-.715.997.668,2.299,1.187,1.222,2.566.322.045.606.085.957.133-.052.234-.096.434-.112.508.399.361.738.669,1.123,1.017-.197.249-.374.474-.652.826.998-.259,1.849-.481,2.782-.723.017.314.026.498.036.679,2.534.548.472,4.428.011,6.054.081.056.162.112.243.169,1.616-1.377,2.453-3.491,3.878-5.066.083.048.165.097.248.145-.384.974-.893,1.909-1.079,2.947,1.031-.032,1.49-.808,2.019-1.568,3.259,2.237,14.631-18.5,13.479-7.991.094.03.189.059.283.089,1.094-2.144,4.509-2.623,4.519.402-.096.89.735.556,1.293.499.593-.139.81.106.812.662-.08,1.962,4.51.524,3.973,3.236,2.144-.457,1.241,2.226,2.864,2.406.605-.004,1.21.372,1.837.587-.225.485-.433.934-.678,1.461,5.02.996,1.101.777,3.501,2.933,4.404,2.295.161,6.216-.403,9.674.089.041.178.082.266.123-.185.117-.369.233-.605.382.059.154.126.329.196.511-1.449.027-.687,1.274-1.387,2.138-.349.477-.522.808.079,1.218.73.849.617,2.264.918,3.296-.073-.059-.231-.188-.271-.221-.656,1.441.088,2.991-1.8,3.481-.204.757-.278,1.634-1.183,2.076-.315-.334-.584-.62-.852-.905-.137-.009-.274-.017-.41-.026.293,2.122-.855,3.447-1.799,5.239,1.242.98,3,.811,3.902,1.869.136.202.265.614.366.604,1.437-.079,1.729,1.318,2.679,1.994.643-.661,1.245-1.281,1.864-1.918.26.187.466.335.672.483.052-.03.105-.061.157-.091l-.428-.924c1.562-3.164,1.703.665,2.812-1.18.475.196-.208,1.169.688.926.129-.035.115-.591.193-1.067,1.148-.008,1.437,1.548,2.789.384.073.773.039,1.143.215,1.756,1.685-.842,3.335-2.183,4.895-3.547,1.023-1.326,1.915-1.908,3.486-.744-.475.142-.748.223-1.02.305-.005.067-.011.135-.016.202.378.068.756.137,1.195.217.034-.181.063-.334.1-.528,1.723.228.025,1.229,1.078,1.799.134-.204.256-.391.296-.453,1.868.37,1.023-1.643.979-2.751l.204-.01c1.293,1.101,1.019,3.405,2.372,4.092.478.042.83.144,1.165.502,1.443.824.727-1.53,1.45-1.887.825-.061,1.284.754,1.73,1.415-.65,1.95,2.239,2.847,3.33,4.16-1.55-.417-2.332-.086-.804,1.442.229-.349.361-.551.594-.905.361.657.506,1.139,1.073,1.535.326-.601.054-1.047-.141-1.632.68.197,1.275.399.869,1.299.351,2.153,4.294-.792,3.39,2.185.898-.303,3.057.317,1.793,1.39-.131.095-.137.605-.006.756.169.194.628.381.795.285.865-.523,1.285.614,1.879,1.035,1.081,1.873-1.129,3.834-.969,5.528,1.202.529-.36,2.016-1.067.878-.308.414-.488.762.194.862,1.616,1.818-2.468,6.466-3.68,8.628.365-.107.59-.173.909-.267.159.618,1.012,1.706-.01,1.987-.745.554-.263,1.555-.229,2.5.289.015,1.168-.414,1.404-.381.598.516,1.12.261,1.637-.051.559-.337.696-.053.782.465.801,2.367,1.179,4.776,2.081,7.035.296,1.29.714,3.393,2.176,3.714.357.969,1.887,1.054,1.624,2.511,2.597-.272,2.122,3.134,2.166,4.769,2.929,1.423-1.903,4.927-2.06,7.046-1.368,1.049-1.719,3.218-2.761,3.844-.552.332.13,1.785-.94,1.65-.796.839-1.221,1.956-2.062,3.186,3.359.425,6.449.815,9.532,1.205.032,1.666.885.365,1.742,1.274-.463.32-.798.55-1.11.766,1.152,1.211,1.958,3.802.022,4.516-1.213-.421-.742.496-.819,1.117.542-.177.997-.326,1.52-.497.973,1.168-1.798,1.906-.43,3.306.013,5.671-9.282,6.554-2.154,13.149-.601.93.805,1.579.35,2.49-.864,1.241-.557,2.496,1.028,2.77.031-.119.095-.368.163-.633,1.014.619,2.481,4.084,2.35,5.432.203-.031.46-.071.716-.111-.01.096-.021.192-.031.288-.183.196-.365.393-.548.59.022.092.044.183.066.275.393-.066.786-.133,1.324-.224-.604.681-.237,2.147-1.186,2.219-.146-.009-.301.289-.452.446.707.611,1.519-.008,2.306-.16.039.066.079.131.118.197-3.126,4.171-9.064,6.455-10.856,11.429-.128,1.576-.41.812-1.467,1.079.511.307,1.427.88.622,1.38-.764.446.062,1.168-.253,1.875-.087.003-.174.006-.261.009-.122-.197-.243-.393-.517-.836-2.745,9.891-14.735,10.7-21.933,16.161-4.721,4.006-9.465,8.241-14.742,11.416-1.032,1.679-4.844,4.864-6.137,2.157.234-.101.458-.199.914-.396-.521-.325-.863-.539-1.347-.841.147,1.114-.969,3.195-.613,1.098-1.212-.582-.148-1.97-.78-3.19-.401.884-.706,1.557-1.011,2.231-1.428-.731-.155-3.632-1.829-3.831-.673,1.024-1.157.594-1.616-.31-.299.539-.537.97-.797,1.437-3.272-3.432-9.814,6.669-13.382,6.068-1.938.182-3.462,3.741-5.535,2.824-8.971-2.229-27.887,23.203-33.172,18.759.277-.119.533-.228,1.027-.44-.491-.356-.823-.597-1.214-.881-1.253,2.454-1.359-.662-1.252-1.807-.098-.031-.197-.062-.295-.093-.366.652-.732,1.305-1.092,1.947-1.624-.22.047-4.78-1.789-3.836-.899,1.306-.917.067-1.661-.321-.179.432-.346.837-.504,1.219-2.082-1.718-4.408.854-6.83.32-.817.38-2.702,1.194-2.44-.602.711-.752,1.476-3.949-.374-3.102-.693-1.096-.614-1.406.383-1.632-.13-1.436-.512-1.982-1.573-.714.167-2.383-1.748-3.383-1.153-5.508.157-.534-.429-1.418-.268-1.963.769-1.473-.333-2.133-.906-3.004-1.931-.74-2.614-2.2-3.516-4.067-.659.517-1.34,1.051-2.08,1.631.027-.286.049-.514.074-.772-2.134.455-.86,2.028-2.308,3.424-.48-2.06,1.266-3.471,1.159-5.483-7.491,8.85-14.265,20.34-21.905,27.933ZM281.647,165.413c.861.91-.177,1.368.871,1.808.243-.854,1.473-1.293.613-2.462l-.624.31-.413-.196c.221-.269.443-.537.662-.803-1.404-1.639-1.201.322-1.109,1.344ZM33.541,183.748c-.44.598-.881,1.197-1.321,1.794.416.232.892.496,1.372.764.972-1.015.967-1.809-.051-2.558ZM282.421,173.251c-.222-.095-.444-.189-.666-.284.342-.493.685-.986.992-1.43-.25-.17-.55-.375-.848-.578q-.56.478.02,1.052c-.282.189-.563.377-.843.564-.009.121-.018.242-.026.363.457.104.914.208,1.372.313ZM280.446,162.308c-.318.619-.555,1.08-.89,1.733,1.061-.275,2.309-1.141.89-1.733ZM230.913,89.214c-.07.023-.14.046-.21.069-.088.634-.176,1.268-.273,1.965l.902-.413c-.137-.532-.278-1.077-.419-1.622ZM179.677,43.765c-.848.503-.866.792-.101,1.425.035-.491.064-.905.101-1.425ZM38.809,78.717c.649.155,1.027.174,1.063-.485-.428-.544-.687.017-1.063.485ZM31.936,191.013c-.467.934-.379,1.117.477,1.239-.178-.463-.328-.851-.477-1.239ZM281.27,169.697c.154.012.308.025.462.037.005-.409.011-.818.016-1.226-.12-.01-.24-.02-.36-.03-.039.406-.079.812-.118,1.218ZM76.359,239.142c-.032.385-.064.77-.106,1.275.927-.494.838-.89.106-1.275Z" fill="none"/>
    </clipPath>
    <linearGradient id="c" data-name="Dégradé sans nom 13" x1="148.843" y1="67.007" x2="148.843" y2="252.017" gradientUnits="userSpaceOnUse">
      <stop offset="0" stop-color="#ffd66e"/>
      <stop offset="1" stop-color="#e86170"/>
    </linearGradient>
    <filter id="d" data-name="drop-shadow-2" x="-6.474" y="68.648" width="238.136" height="224.627" filterUnits="userSpaceOnUse">
      <feOffset dx="-6" dy="0"/>
      <feGaussianBlur result="e" stdDeviation="0"/>
      <feFlood flood-color="#42496f" flood-opacity="1"/>
      <feComposite in2="e" operator="in"/>
      <feComposite in="SourceGraphic"/>
    </filter>
    <clipPath id="f">
      <path d="M227.229,118.069s-1.795-35.185-12.925-35.185-6.462,17.951-6.462,17.951l-33.749-3.59c-.718-5.385,9.335-.718,5.385-12.207-3.949-11.489-45.707-9.025-55.649,13.643-8.976,20.465-10.771,101.246-39.493,102.682-28.722,1.436-24.414-53.495-49.546-51.7-25.132,1.795-38.057,59.24-25.132,86.885,12.925,27.645,21.901,54.213,7.899,56.726,42.006-7.899,0-81.499,17.951-86.885,17.951-5.385-5.385,77.191,58.881,76.114,64.266-1.077,45.909-122.787,68.215-122.787,15.03,0,4.347,15.45,23.163,15.45,14.002,0,12.022-12.578,12.022-12.578h23.696s3.669.14,3.669-4.963h-26.311c-3.435,0-6.219,2.784-6.219,6.219h0c0,3.435-2.784,6.219-6.219,6.219h-1.276c-3.435,0-6.219-2.784-6.219-6.219v-43.373c0-5.548,4.498-10.046,10.046-10.046h17.7c11.162,0,20.573,7.644,20.573,7.644Z" fill="none"/>
    </clipPath>
  </defs>
  <g isolation="isolate">
    <g id="a" data-name="bateau 09">
      <g clip-path="url(#b)">
        <rect x="5.286" y="7.067" width="287.116" height="269.478" fill="url(#c)"/>
        <g>
          <path d="M230.734,149.653l-6.06-16.396v10.337c0,3.347,2.713,6.059,6.06,6.059Z" fill="none" stroke="#fff" stroke-linecap="round" stroke-linejoin="round" stroke-width="20"/>
          <path d="M227.229,118.069s-1.795-35.185-12.925-35.185-6.463,17.951-6.463,17.951l-33.749-3.59c-.718-5.385,9.335-.718,5.385-12.207-1.279-3.722-6.538-5.969-13.387-6.549-1.699-1.303-3.735-2.246-5.768-2.958-16.84-5.891-36.153-.497-52.812-6.884,10.398,5.836,22.123,9.289,34.025,10.019-15.378,1.076-30.342,7.378-41.857,17.627-4.372,3.891-8.239,8.308-12.092,12.714,11.29-6.571,24.016-10.657,37.02-11.898-.037.069-.069.142-.105.211-14.808,7.492-25.233,22.467-40.832,28.165,11.62-1.793,23.886-3.871,32.857-11.472-11.371,14.45-24.693,27.363-39.492,38.276,5.21-1.075,10.42-2.151,15.629-3.227,6.817-1.408,13.906-2.937,19.374-7.245-6.597,8.253-13.855,15.977-21.684,23.072,7.852-1.03,15.39-4.326,21.494-9.37-.108.493-.217.987-.327,1.478-5.367,9.405-12.755,17.533-20.07,25.551,5.094-.618,10.132-2.372,14.377-5.216-4.898,13.621-11.597,23.536-21.493,24.031-5.806.29-10.261-1.724-13.883-5.105-.782-5.659.755-12.008-1.6-17.312-.345-.776-.991-1.632-1.829-1.493-.35.058-.646.287-.905.529-1.322,1.237-2.071,2.953-2.785,4.617-.308.717-.614,1.453-.852,2.201-7.206-14.287-11.395-32.924-24.123-34.986-1.206-2.557-3.083-4.802-5.434-6.375-1.254-.839-2.708-1.512-4.213-1.407-1.504.104-3.016,1.197-3.171,2.697-.065.628.103,1.254.271,1.863.438,1.6.876,3.201,1.314,4.802.053.193.11.388.172.581-7.469,4.176-13.426,13.527-17.363,24.906-1.907.308-3.765.827-5.446,1.763-2.781,1.549-5.002,4.457-4.908,7.639.011.372.058.759.259,1.073.421.656,1.323.755,2.103.787,1.615.066,3.231.133,4.846.2-2.174,10.36-2.812,21.428-1.619,31.342-.881.839-1.852,1.636-2.648,2.523-2.039,2.273-2.972,5.495-2.462,8.506.076.448.191.909.484,1.256.878,1.039,2.554.422,3.717-.282.997-.602,1.985-1.247,2.874-1.994.693,2.433,1.531,4.731,2.523,6.852,2.771,5.927,5.358,11.802,7.578,17.404-.232.299-.474.59-.712.863-.918,1.052-1.832,2.175-2.2,3.522-.368,1.347-.046,2.981,1.111,3.762,1.369.925,3.152.333,4.67-.448,2.404,6.943,4.018,13.227,4.424,18.342-1.036.194-2.052.499-3.009.94-.946.435-1.981,1.357-1.598,2.325.178.45.619.731,1.032.983,1.044.633,2.139,1.283,3.357,1.375.025.002.051-.001.077,0-.668,4.189-2.786,6.934-6.832,7.66,42.006-7.899,0-81.499,17.951-86.885,17.951-5.385-5.385,77.191,58.881,76.114,31.367-.526,43.048-29.789,49.385-59.612,1.028.251,2.103.218,3.073-.209,1.328-.585,2.193-1.733,2.822-3.064.496-1.051.849-2.213,1.142-3.321,1.423-5.381,2.847-10.762,4.27-16.144.169-.641.405-1.323.735-1.911-.118,1.078-.148,2.156-.034,3.224.005.045.008.091.013.136.042.358.097.714.175,1.069.158.715.415,1.422.757,2.084.085.165.176.328.272.487,1.054,1.753,2.725,3.099,4.729,3.291.414.04.827.018,1.237-.032,1.014-.125,2.006-.485,2.915-.964.403-.213.8-.469,1.173-.756.534-.411,1.004-.894,1.364-1.429.471-.701.749-1.488.66-2.338-.123-1.186-1.002-2.258-2.14-2.614-.621-.194-1.297-.161-1.912.05-.371.127-.722.315-1.019.57-.113.096-.218.201-.315.314-.087.102-.162.213-.238.324-.273.398-.5.831-.777,1.226-.067.095-.13.192-.206.281-.478.557-1.326.934-1.943.536-.26-.168-.43-.442-.573-.716-.502-.965-.76-2.049-.773-3.135-.013-1.087.219-2.177.698-3.153,0-.001.001-.003.002-.004.006-.013.012-.027.019-.04,2.311-1.091,4.622-2.182,6.932-3.273,1.743-.823,3.854-1.609,5.539-.87.192.084.381.174.561.3.68.478,1.168,1.222,1.63,1.975.154.251.305.503.459.746.099.156.2.305.302.452.54.768,1.157,1.374,2.084,1.45.351.029.694-.044,1.012-.182.46-.199.862-.544,1.154-.966.106-.153.202-.312.275-.48.207-.479.293-.996.291-1.518s-.091-1.051-.232-1.553c-.235-.832-.632-1.601-1.138-2.292-.182-.249-.376-.489-.587-.716-.021-.023-.04-.048-.061-.07-1.82-1.911-4.594-2.957-7.201-2.448-1.263.246-2.435.798-3.558,1.44-.374.214-.743.438-1.107.664-.919.57-1.818,1.171-2.711,1.782-.465.319-.932.636-1.392.963.445-.768.891-1.535,1.336-2.303.404-.695.807-1.39,1.21-2.086,1.077-1.856,2.552-3.952,4.698-3.932,2.215.02,4.389,2.367,6.309,1.264.906-.52,1.288-1.702,1.085-2.726-.051-.256-.132-.503-.238-.739-.317-.709-.855-1.324-1.458-1.823-1.289-1.067-2.931-1.622-4.598-1.686-.017,0-.034-.003-.051-.004-.788-.026-1.578.065-2.341.257-.316.08-.625.179-.928.295-.19.073-.377.154-.561.242-.76.363-1.463.842-2.057,1.449-.3.307-.572.636-.823.981-.336.464-.624.962-.896,1.472-.335.629-.641,1.277-.926,1.928-.975,2.234-1.807,4.526-2.572,6.841-.181-.624-.345-1.252-.498-1.882-.256-1.051-.472-2.111-.62-3.183-.033-.242-.059-.496-.067-.75-.004-.151,0-.302.011-.45.014-.197.045-.388.095-.57.054-.198.137-.381.247-.547.097-.145.21-.28.36-.388.916-.662,2.314-.068,3.272-.668,1.078-.675.786-2.479-.245-3.222-.258-.186-.538-.323-.833-.422-.885-.297-1.902-.248-2.848-.133-.737.09-1.498.23-2.179.514-.473.198-.908.463-1.263.838-.098.104-.168.221-.249.333-.486.672-.692,1.478-.712,2.338-.023,1.003.182,2.068.41,3.041.447,1.905.893,3.81,1.34,5.715-.933-.017-1.851.143-2.65.55-.045.022-.09.043-.134.067-.251.139-.493.296-.713.491-.001.001-.003.002-.004.003-.595.527-.988,1.2-1.269,1.938-.114.299-.21.608-.29.924-.03.121-.06.242-.086.364-.073.339-.132.682-.183,1.026-.046.312-.087.624-.124.93-.02.169-.04.339-.061.509-.258,2.166-.516,4.332-.775,6.498-.37,3.105-.755,6.264-2.018,9.125-.033.074-.069.15-.108.225-.275.527-.705,1.034-1.27.953-.024-.003-.042-.021-.065-.026-.202-.048-.377-.164-.534-.307,5.335-28.651,6.829-55.605,17.326-55.605,15.03,0,4.347,15.45,23.163,15.45,14.002,0,12.022-12.578,12.022-12.578h23.696s3.669.14,3.669-4.963h-6.066c-1.098-4.179-4.804-17.222-8.286-17.222-4.146,0-2.87,14.989-2.87,14.989,0,0-1.754-5.422-4.784-5.741-3.03-.319-3.508,5.741-3.508,5.741,0,0-1.595-3.349-3.827-3.189-1.759.126-1.933,5.582-1.928,7.898-.788,1.042-1.261,2.336-1.261,3.743,0,3.435-2.784,6.219-6.219,6.219h-1.276c-3.435,0-6.219-2.784-6.219-6.219v-43.373c0-4.149,2.516-7.709,6.104-9.242.182,3.281.81,7.36,2.825,7.169,3.349-.319,4.784-6.378,4.784-6.378,0,0,1.276,9.568,5.741,9.887.559.04,1.033-.085,1.435-.335v11.685l5.023-13.591c1.558,3.383,3.52,6.626,5.342,6.706,2.593.113,2.954-9.493,2.943-15.135,1.357.328,2.65.736,3.871,1.191l7.697,20.828v-16.979c1.622,1.036,2.554,1.792,2.554,1.792Z" fill="none" stroke="#fff" stroke-linecap="round" stroke-linejoin="round" stroke-width="20"/>
          <path d="M199.799,143.593v-10.337l-6.06,16.396c3.347,0,6.06-2.713,6.06-6.059Z" fill="none" stroke="#fff" stroke-linecap="round" stroke-linejoin="round" stroke-width="20"/>
        </g>
        <g filter="url(#d)">
          <path d="M137.19,207.234c-.199,2.834.067,5.7.783,8.448.542,2.08,1.387,4.161,2.944,5.642,1.558,1.481,3.962,2.225,5.928,1.358,2.376-1.047,3.3-3.875,3.964-6.385,1.423-5.381,2.847-10.763,4.27-16.144.369-1.396.996-3.043,2.417-3.3.667-.121,1.383.114,2.019-.12,1.03-.378,1.268-1.86.685-2.79-.583-.93-1.686-1.39-2.753-1.648-1.84-.445-3.971-.387-5.389.868-1.415,1.253-1.727,3.306-1.951,5.182-.278,2.336-.557,4.671-.835,7.007-.37,3.105-.754,6.264-2.018,9.125-.263.596-.733,1.271-1.378,1.178-.285-.041-.524-.233-.724-.439-1.05-1.086-1.361-2.675-1.54-4.175-.18-1.5-.296-3.072-1.082-4.363-.786-1.291-2.503-2.167-3.843-1.469-1.364.711-1.609,2.523-1.688,4.059" fill="#e86170"/>
          <path d="M184.969,107.236s-.478,11.481,2.87,11.162c3.349-.319,4.784-6.378,4.784-6.378,0,0,1.276,9.568,5.741,9.887s3.508-9.887,3.508-9.887c0,0,4.455,14.185,8.292,14.351,3.668.159,2.87-19.135,2.87-19.135h-28.065Z" fill="#fff"/>
          <path d="M219.413,158.901s-4.465-18.497-8.611-18.497-2.87,14.989-2.87,14.989c0,0-1.754-5.422-4.784-5.741-3.03-.319-3.508,5.741-3.508,5.741,0,0-1.595-3.349-3.827-3.189-2.232.159-1.914,8.93-1.914,8.93l25.514-2.232Z" fill="#fff"/>
          <path d="M179.905,192.734c-1.05-3.718-5.195-6.266-8.987-5.526-1.684.328-3.207,1.2-4.665,2.104-1.398.868-2.761,1.792-4.103,2.746.849-1.463,1.698-2.926,2.547-4.389,1.077-1.856,2.552-3.952,4.698-3.932,2.215.02,4.389,2.367,6.309,1.264.906-.52,1.288-1.702,1.085-2.726-.203-1.025-.891-1.896-1.696-2.562-2.976-2.464-7.835-2.209-10.536.553-1.2,1.227-1.958,2.809-2.644,4.381-.975,2.234-1.807,4.527-2.572,6.841-.482-1.663-.882-3.35-1.118-5.065-.133-.967-.146-2.133.646-2.705.916-.662,2.314-.068,3.272-.668,1.078-.675.786-2.479-.245-3.222-1.032-.743-2.419-.708-3.681-.554-1.249.152-2.577.438-3.442,1.352-1.373,1.451-1.008,3.766-.552,5.711.697,2.972,1.393,5.944,2.09,8.916-.515,2.462-.881,4.98-.342,7.419.633,2.861,2.842,5.584,5.758,5.862,1.437.137,2.875-.323,4.152-.997,1.736-.915,3.4-2.571,3.197-4.523-.123-1.186-1.002-2.259-2.14-2.614-1.138-.355-2.471.028-3.246.934-.478.558-.744,1.273-1.221,1.831-.478.558-1.326.934-1.944.537-.26-.168-.43-.442-.572-.716-1.004-1.929-1.033-4.335-.075-6.289.007-.014.014-.029.021-.044,2.311-1.091,4.622-2.182,6.932-3.273,1.941-.916,4.344-1.804,6.1-.57,1.812,1.274,2.268,4.441,4.476,4.623,1.041.086,2.027-.67,2.441-1.628.415-.959.343-2.066.059-3.072Z" fill="#e86170"/>
          <g mix-blend-mode="multiply" opacity=".75">
            <path d="M179.905,192.734c-1.05-3.718-5.195-6.266-8.987-5.526-1.684.328-3.207,1.201-4.665,2.105-1.398.868-2.761,1.792-4.103,2.746.849-1.463,1.698-2.926,2.547-4.389,1.077-1.856,2.552-3.952,4.698-3.932,2.215.02,4.389,2.368,6.309,1.264.906-.52,1.288-1.702,1.085-2.725-.203-1.025-.891-1.896-1.696-2.562-2.976-2.464-7.835-2.209-10.536.553-1.2,1.227-1.958,2.809-2.644,4.381-.975,2.234-1.807,4.526-2.572,6.841-.482-1.663-.882-3.35-1.118-5.065-.133-.967-.146-2.133.646-2.705.916-.662,2.314-.068,3.272-.668,1.078-.675.787-2.478-.245-3.222-1.032-.743-2.419-.708-3.681-.554-1.249.152-2.577.438-3.442,1.352-1.373,1.451-1.008,3.766-.552,5.712.448,1.912.897,3.825,1.345,5.738-1.287-.024-2.559.248-3.507,1.088-1.415,1.253-1.727,3.306-1.951,5.182-.278,2.335-.557,4.671-.835,7.006-.37,3.106-.754,6.264-2.018,9.125-.263.596-.733,1.271-1.378,1.178-.285-.041-.524-.233-.724-.439-1.05-1.086-1.361-2.675-1.54-4.175-.18-1.5-.296-3.072-1.081-4.363-.786-1.291-2.503-2.167-3.843-1.469-.905.471-1.296,1.437-1.494,2.476-.142,2.686.099,5.394.778,7.996.542,2.081,1.386,4.161,2.944,5.642,1.558,1.481,3.962,2.225,5.928,1.359,2.376-1.047,3.3-3.875,3.964-6.386,1.423-5.381,2.847-10.762,4.27-16.144.173-.656.413-1.359.756-1.956-.168,1.501-.192,3.003.133,4.475.633,2.861,2.842,5.583,5.758,5.862,1.437.138,2.875-.323,4.152-.996,1.736-.916,3.4-2.571,3.197-4.523-.123-1.186-1.002-2.258-2.14-2.614-1.138-.355-2.471.029-3.246.934-.478.558-.743,1.273-1.221,1.831-.478.557-1.326.934-1.944.536-.26-.168-.43-.442-.572-.716-1.004-1.929-1.033-4.336-.075-6.289.007-.014.014-.029.021-.044,2.311-1.091,4.622-2.181,6.932-3.272,1.941-.916,4.344-1.805,6.1-.57,1.812,1.274,2.268,4.441,4.476,4.623,1.041.086,2.027-.67,2.441-1.629.415-.958.342-2.066.059-3.071Z" fill="#a384bb"/>
          </g>
          <path d="M160.323,75.532c-16.84-5.891-36.153-.497-52.812-6.884,10.398,5.836,22.123,9.289,34.025,10.019-15.378,1.076-30.342,7.378-41.857,17.627-4.372,3.891-8.239,8.308-12.092,12.714,11.396-6.633,24.254-10.738,37.384-11.936-15.062,7.408-25.535,22.656-41.301,28.415,11.62-1.793,23.886-3.871,32.857-11.472-11.371,14.45-24.693,27.363-39.492,38.276,5.21-1.075,10.42-2.151,15.629-3.227,6.817-1.408,13.906-2.937,19.374-7.245-6.597,8.253-13.855,15.977-21.684,23.072,8.243-1.081,16.143-4.656,22.398-10.133-5.432,10.37-13.411,19.143-21.301,27.791,8.238-1,16.337-4.963,21.155-11.719,5.233-7.338,6.045-16.809,7.445-25.712,1.533-9.74,3.965-19.317,6.707-28.787,1.129-3.899,2.329-7.824,4.38-11.325,2.788-4.759,7.135-8.587,12.208-10.752,7.992-3.41,17.505-2.749,24.891-7.326l.768-5.174c-1.776-3.18-5.246-5.02-8.684-6.223Z" fill="#ffd66e"/>
          <path d="M214.469,105.642h3.428c3.743,0,6.777,3.034,6.777,6.777v31.175c0,3.347,2.713,6.059,6.059,6.059h0" fill="none" stroke="#ffd66e" stroke-linecap="round" stroke-linejoin="round" stroke-width="1.855"/>
          <g>
            <path d="M68.853,178.947c-.345-.776-.991-1.632-1.829-1.493-.35.058-.645.287-.904.529-1.322,1.237-2.071,2.953-2.785,4.617-.71,1.655-1.435,3.401-1.253,5.193.218,2.144,1.683,3.927,3.112,5.54,2.007,2.264,4.087,4.464,6.208,6.623-2.624-6.445.336-14.51-2.549-21.008Z" fill="#ffd66e"/>
            <path d="M32.925,143.439c-1.254-.839-2.708-1.512-4.213-1.407-1.504.104-3.016,1.197-3.171,2.697-.065.628.103,1.254.27,1.863.438,1.6.876,3.201,1.314,4.802.189.69.397,1.413.901,1.92.788.792,2.039.825,3.155.775,2.486-.111,4.966-.383,7.418-.812l.954.086c-.798-4.003-3.237-7.654-6.629-9.925Z" fill="#ffd66e"/>
            <path d="M4.489,178.645c-2.782,1.549-5.002,4.457-4.908,7.639.011.372.058.759.259,1.073.421.656,1.323.755,2.103.787,2.333.096,4.665.193,6.998.289.582.024,1.182.045,1.727-.161,1.616-.61,1.978-2.822,3.396-3.81l-.355-7.967c-3.178.182-6.438.601-9.219,2.149Z" fill="#ffd66e"/>
            <path d="M7.497,215.988c-.427,2.672-3.168,4.208-4.976,6.222-2.039,2.273-2.972,5.495-2.462,8.506.076.448.191.909.485,1.256.878,1.039,2.554.422,3.717-.282,1.639-.99,3.294-2.054,4.431-3.594,1.137-1.541,1.663-3.675.839-5.402l-2.034-6.706Z" fill="#ffd66e"/>
            <path d="M22.201,259.914c.166-.466.096-.979.01-1.466-.394-2.229-1.079-4.407-2.033-6.461l-1.827-1.628c.514,1.603-.721,3.186-1.827,4.454-.918,1.052-1.832,2.175-2.2,3.522-.368,1.347-.046,2.981,1.111,3.762,1.539,1.04,3.602.164,5.222-.743.629-.352,1.302-.763,1.544-1.441Z" fill="#ffd66e"/>
            <path d="M26.814,280.101l-.335-.336c-1.709.053-3.407.452-4.959,1.168-.946.435-1.981,1.357-1.598,2.325.178.45.619.731,1.033.983,1.044.633,2.139,1.283,3.357,1.375,1.218.091,2.586-.57,2.87-1.757.296-1.236-.644-2.515-.367-3.757Z" fill="#ffd66e"/>
          </g>
          <path d="M227.229,118.069s-1.795-35.185-12.925-35.185-6.462,17.951-6.462,17.951l-33.749-3.59c-.718-5.385,9.335-.718,5.385-12.207-3.949-11.489-45.707-9.025-55.649,13.643-8.976,20.465-10.771,101.246-39.493,102.682-28.722,1.436-24.414-53.495-49.546-51.7-25.132,1.795-38.057,59.24-25.132,86.885,12.925,27.645,21.901,54.213,7.899,56.726,42.006-7.899,0-81.499,17.951-86.885,17.951-5.385-5.385,77.191,58.881,76.114,64.266-1.077,45.909-122.787,68.215-122.787,15.03,0,4.347,15.45,23.163,15.45,14.002,0,12.022-12.578,12.022-12.578h23.696s3.669.14,3.669-4.963h-26.311c-3.435,0-6.219,2.784-6.219,6.219h0c0,3.435-2.784,6.219-6.219,6.219h-1.276c-3.435,0-6.219-2.784-6.219-6.219v-43.373c0-5.548,4.498-10.046,10.046-10.046h17.7c11.162,0,20.573,7.644,20.573,7.644Z" fill="#e86170"/>
          <circle cx="216.088" cy="96.662" r="2.939" fill="#42496f"/>
          <g clip-path="url(#f)">
            <path d="M143.613,211.041s-11.706,73.976-57.841,76.31c-46.135,2.334-40.766-81.546-50.264-80.961-26.209,1.616,16.589,62.377-9.028,73.374,2.027-15.93-22.555-18.62-26.42-49.049-3.865-30.429,13.727-71.896,38.321-68.306,24.593,3.59,13.643,73.242,43.083,77.191,29.44,3.949,56.264-18.523,62.15-28.559Z" fill="#a384bb" mix-blend-mode="multiply" opacity=".25"/>
          </g>
          <path d="M210.005,105.642h-3.428c-3.743,0-6.777,3.034-6.777,6.777v31.175c0,3.347-2.713,6.059-6.059,6.059h0" fill="none" stroke="#ffd66e" stroke-linecap="round" stroke-linejoin="round" stroke-width="1.855"/>
          <path d="M103.269,201.309c.526,3.393,1.608,6.699,3.19,9.746,1.197,2.306,2.751,4.532,4.984,5.859,2.233,1.327,5.266,1.56,7.351.01,2.519-1.872,2.849-5.452,2.958-8.589.234-6.724.467-13.448.701-20.171.061-1.744.357-3.853,1.962-4.537.754-.321,1.66-.237,2.347-.683,1.112-.722.995-2.533.059-3.472-.936-.939-2.36-1.186-3.686-1.204-2.287-.031-4.784.61-6.118,2.468-1.332,1.856-1.149,4.359-.909,6.631.299,2.827.597,5.654.896,8.481.397,3.759.792,7.585.071,11.295-.15.773-.523,1.694-1.307,1.758-.347.028-.68-.133-.971-.324-1.529-.998-2.321-2.787-2.936-4.507-.614-1.72-1.173-3.541-2.445-4.851-1.272-1.31-3.531-1.882-4.923-.7-1.416,1.203-1.22,3.405-.9,5.236" fill="#e86170"/>
          <path d="M149.719,172.758c-2.235-4.099-7.803-5.991-12.074-4.1-1.897.839-3.457,2.275-4.933,3.732-1.415,1.398-2.773,2.853-4.099,4.337.608-1.952,1.216-3.904,1.824-5.856.772-2.476,1.947-5.342,4.481-5.895,2.615-.571,5.808,1.612,7.775-.204.928-.856,1.062-2.351.547-3.503-.514-1.153-1.559-1.995-2.686-2.564-4.168-2.106-9.826-.501-12.268,3.479-1.085,1.768-1.554,3.836-1.941,5.873-.55,2.895-.915,5.819-1.196,8.752-1.014-1.831-1.938-3.711-2.676-5.669-.417-1.104-.745-2.475.035-3.361.902-1.026,2.709-.701,3.676-1.666,1.089-1.085.262-3.132-1.153-3.732-1.415-.599-3.041-.185-4.487.335-1.432.514-2.92,1.207-3.694,2.517-1.229,2.079-.177,4.709.882,6.879,1.619,3.315,3.237,6.631,4.856,9.947.054,3.04.298,6.106,1.588,8.835,1.514,3.202,4.848,5.818,8.359,5.363,1.73-.224,3.302-1.152,4.626-2.289,1.8-1.544,3.317-3.943,2.554-6.188-.464-1.365-1.787-2.393-3.224-2.506-1.437-.113-2.904.697-3.575,1.972-.413.786-.535,1.699-.948,2.485-.413.785-1.312,1.456-2.147,1.154-.351-.128-.625-.406-.867-.69-1.701-2.004-2.38-4.832-1.776-7.391.005-.018.008-.038.013-.057,2.431-1.906,4.861-3.811,7.292-5.717,2.042-1.6,4.636-3.292,7.035-2.309,2.477,1.015,3.865,4.625,6.515,4.247,1.25-.178,2.209-1.333,2.44-2.574.231-1.241-.151-2.527-.755-3.636Z" fill="#e86170"/>
          <g mix-blend-mode="multiply" opacity=".5">
            <path d="M103.399,202.291c-.012-.152.003-.299-.002-.451-.031-.179-.1-.351-.128-.532l.13.983Z" fill="#a384bb"/>
            <path d="M103.399,202.291c.041.497.111.993.194,1.465l-.194-1.465Z" fill="#a384bb"/>
            <path d="M149.719,172.758c-2.235-4.099-7.803-5.991-12.074-4.1-1.897.839-3.457,2.275-4.933,3.732-1.415,1.398-2.773,2.853-4.099,4.337.608-1.952,1.216-3.904,1.824-5.856.772-2.476,1.947-5.342,4.481-5.895,2.615-.571,5.808,1.612,7.775-.204.928-.856,1.062-2.351.547-3.503-.514-1.153-1.559-1.995-2.686-2.564-4.168-2.106-9.826-.501-12.268,3.479-1.085,1.768-1.554,3.836-1.941,5.873-.55,2.895-.915,5.819-1.196,8.752-1.014-1.831-1.938-3.711-2.676-5.669-.417-1.104-.745-2.475.035-3.361.902-1.026,2.709-.701,3.676-1.666,1.089-1.085.262-3.132-1.153-3.732-1.415-.599-3.041-.185-4.487.335-1.432.514-2.92,1.207-3.694,2.517-1.229,2.079-.177,4.709.882,6.879,1.042,2.133,2.083,4.267,3.125,6.401-1.523.317-2.948.98-3.841,2.224-1.332,1.856-1.149,4.359-.909,6.631.299,2.827.597,5.655.896,8.481.398,3.759.792,7.584.071,11.295-.15.773-.523,1.695-1.307,1.758-.346.028-.68-.134-.971-.323-1.529-.999-2.321-2.787-2.936-4.507-.615-1.72-1.173-3.541-2.446-4.851-1.272-1.31-3.532-1.882-4.923-.7-.94.799-1.141,2.043-1.096,3.32.553,3.204,1.564,6.329,3.062,9.215,1.197,2.305,2.751,4.531,4.984,5.858,2.234,1.327,5.266,1.56,7.351.01,2.519-1.872,2.849-5.452,2.957-8.589.234-6.723.467-13.447.701-20.171.028-.821.122-1.714.366-2.509.205,1.814.579,3.59,1.358,5.239,1.514,3.202,4.848,5.818,8.359,5.363,1.73-.224,3.302-1.152,4.626-2.289,1.8-1.544,3.317-3.943,2.554-6.188-.464-1.365-1.787-2.393-3.224-2.506-1.437-.113-2.904.697-3.575,1.972-.413.786-.535,1.699-.948,2.485-.413.785-1.312,1.456-2.147,1.154-.351-.128-.625-.406-.867-.69-1.701-2.004-2.38-4.832-1.776-7.391.005-.018.008-.038.013-.057,2.431-1.906,4.861-3.811,7.292-5.717,2.042-1.6,4.636-3.292,7.035-2.309,2.477,1.015,3.865,4.625,6.515,4.247,1.25-.178,2.209-1.333,2.44-2.574.231-1.241-.151-2.527-.755-3.636Z" fill="#a384bb"/>
          </g>
          <line x1="151.501" y1="95.254" x2="170.173" y2="95.927" fill="none" stroke="#42496f" stroke-linecap="round" stroke-linejoin="round" stroke-width="1.855"/>
          <line x1="165.434" y1="95.516" x2="165.434" y2="99.721" fill="none" stroke="#42496f" stroke-linecap="round" stroke-linejoin="round" stroke-width="1.855"/>
        </g>
      </g>
    </g>
  </g>
</svg>