<?xml version="1.0" encoding="UTF-8"?>
<svg id="a" data-name="bateau 08" xmlns="http://www.w3.org/2000/svg" width="300" height="300" xmlns:xlink="http://www.w3.org/1999/xlink" viewBox="0 0 300 300">
  <defs>
    <clipPath id="b">
      <path d="M126.772,270.147c-.714.568-1.284,1.023-1.977,1.575-.003-.058.007.152.018.393-3.196-.319-3.327-2.383-.098-2.884,1.266-.458,1.292-1.73,1.796-3.082-1.457.556-2.442.47-3.814.697.252.876.893.851,1.45,1.442-.481.508-1.165.591-1.771.508-.164-1.022-1.028-2.49.117-3.246,1.081-.446-.186-1.686-.567-2.013-.576.277-1.111.961-.617,1.595.308.467.508.864-.116,1.321-1.184,3.272-3.027-.469-4.858-1.096.043-.188.129-.569.249-1.096-1.736,1.039-.908-3.182-2.925-.821-1.624-1.05-2.16-4.844-4.273-4.346-.195.121-.721-.087-.862-.323-.793-2.584-3.2-3.697-4.05-6.08-.648-1.513-1.976-2.377-3.113-3.449-.105-.152-.742-.109-.861.057-.955,1.197-2.936.12-3.038-1.301-.305-.566-1.47-1.131-1.391-1.989-.993-1.138.043-1.066.753-1.648-.713-.298-.871-.891-.862-1.733.182-.805-1.666-2.151-.396-2.576,1.456-.278.308-1.173.293-2.22-.995,1.425-2.019,2.272-3.674,2.052-.749.61-1.209.199-1.709-.265-1.289-1.414-3.222.461-4.368,1.389.096-3.759-4.685.9-6.54,1.179-.045-1.293-1.546-2.313-2.535-1.037-2.249-.607-2.976-3.952-4.684-5.586-.354-1.535-2.399-1.151-2.496-2.62-.174-1.629-2.3-1.873-2.288-3.673-1.441-.59-1.123-2.543-2.161-3.441-1.784-2.289-6.496-5.151-5.755-8.104.894-.917,0-1.194-.607-1.76-.469-1.012-1.005-.044-1.776-.239,1.881-2.059-1.466-2.334,1.303-5.969.307-.896-.85-.648-1.11-.104-.689,1.234-1.677,1.063-2.634.934-.512-.549-.059-1.924-1.332-1.664-.087-.365-.174-.73-.265-1.114-1.241.3-1.93,1.597-.515,2.208-1.318,1.253-3.583,4.501-4.84,1.678-1.488.342-1.344-2.237-2.996-.947-.081-.699-.146-1.267-.22-1.908-.179.118-.405.268-.633.418-.357-.743-.386-1.794-1.555-1.625-.128-.956-.256-1.902-.401-2.984-.273.4-.459.674-.57.836-1.739-.398-2.103-2.224-3.029-3.533-.095.013-.19.027-.285.04-.063.335-.127.67-.19,1.006-.1-.005-.2-.01-.301-.014.267-3.392-2.866-4.422-3.859-7.278.268-1.007.296-1.422-.313-2.239-.385.414-.736.792-1.218,1.311-.78-.576-.39-2-1.553-1.698-.335-1.357-.028-2.349.869-3.26-.982-1.094,1.552-3.478-.432-3.648-.108.467-.211.908-.313,1.349h-.215c.026-1.112.053-2.223.084-3.524,2.431,1.178,2.282-2.245,2.499-3.943-.967.712-1.639,2.005-2.82,1.039.176.3.352.6.614,1.048-.519.131-.969.245-1.271.321-.347-1.909.465-3.139,1.711-4.501.127.086.294.199.395.268,2.901-4.637,5.805-9.825,10.004-13.792-1.101-.897-1.671-2.744-.22-3.567.661.055,1.365.339,1.709.081.63-.781,1.133-1.841-.331-2.352-.007-1.37,1.816-2.873.508-4.08-.762-.851-.499-2.634-1.967-2.737-1.541-.467-2.351.923-3.668,1.337-1.282-.241-1.534,1.02-2.196,1.866-.778-.443-1.737-.572-2.254-1.223-.354-1.428-1.427-.995-2.579-1.251.279-.295.512-.541.756-.799-1.61-.454-1.243,1.18-.684,1.971-.347.287-.659.544-1.161.959-.146-.998.719-2.27-.491-2.696-2.003-.024-2.094-3.775-4.13-2.353.013-.316.026-.622.039-.933-1.119-.022-1.15-.978-1.739-1.663-2.298-1.886-1.623-1.258-2.3-3.981-.202.134-.39.26-.632.421-.647-.984-1.563-1.132-1.856-2.568-1.328-2.881-5.346-3.058-7.079-5.386-.585.083-1.041.148-1.601.228,1.383-2.045.167-3.317.285-5.289.802-1.974,1.602-3.943,2.4-5.907l.357.032c-.084.989-.167,1.98-.27,3.197.814-.916.531-1.853.959-2.706.183.12.335.22.487.32.067-.034.134-.067.201-.101.024-1.515-1.858-.945-.615-2.467,8.097-15.249,14.395-31.292,23.079-46.174.452-.861.735-1.603,1.645-.565,1.744.56,1.811-2.35,3.56-2.194.431-.026.743-1.269.438-1.892-.072.32-.123.543-.188.83-.996.023-1.962.045-2.946.068.288-2.054,2.598-2.155,4.1-1.523,1.683-2.489,2.304-6.224,5.744-6.788-.14-.172-.266-.327-.539-.662,2.52-.59,4.58,2.546,6.67,1.905.44-.39.743-.297.818.309-.216.079-.43.157-.716.261,4.26,1.531,8.617,5.253,12.519,6.025.919,2.415,2.378-.584,3.433-1.49.519-.833,1.393-.071,2.021-.601,8.953-9.038,16.928-19.513,26.772-26.991.548-.009,1.596.235,1.946.822,1.848,1.277,2.466-3.795,6.841,1.161.667,1.147,2.425-.463,2.708,1.046.282,1.139,1.689,1.087,2.207,2.067,1.786,1.081,2.565,3.146,4.737,3.803.689.392.8.85,1.497-.017.118,1.414.309,1.516,1.399.76.079.407.154.792.229,1.178l1.123-.477c-.465,6.943,24.591-23.986,27.83-25.766,1.614.353-.188,1.261.697,2.163.504.143.961-.691,1.338-.89,1.676-.328-.022,1.919,1.229,2.224.722.181.831,1.901,1.677.962.181.363.422.654.47.981.121.87,1.498.81,1.687.114.111-.926-.632-2.356.922-2.128.695.044.417,1.093.954,1.37-.252.402-.445.71-.638,1.018.435.124.871.249,1.436.41-.455,1.116-.409,1.297.704,1.757.236,1.007,1.231,1.468,1.973,2.04.853.704,1.654,2.045,3.013,1.97-.367,1.39,1.423.545,2.121.967-1.036.973-.927,1.293.14,1.928-.026.064-.052.129-.078.193-.473-.052-.945-.105-1.599-.177.27.731,1.157.622.746,1.475-.068.73,1.223.916,1.837.424-.165.316-.264.505-.399.765.57-.039.209,1.014.965.708.422-.171.76-.545,1.101-.949-1.081.652-1.342-.397-.403-.954,1.362.035,2.055-.861,2.827-1.742,1.164-1.315,2.162-2.092,3.896-1.315.42.365.792.737,1.358.086,1.024.926,2.01,1.817,2.997,2.709.08-.067.161-.134.241-.2-.201-.332-.402-.663-.707-1.165,1.923,1.296,3.917-1.03,5.357.406.242,1.625,1.152,2.489,2.362,3.451,1.077.962.459,2.642,1.638,3.51.591.438.42,1.541,1.363.95,1.136-.803,2.064,1.302,1.41,2.168.424.081.745.143,1.018.195-.349.427-.657.804-.966,1.18.601.262-.509,1.372.736,1.339.079-.234.163-.483.242-.715.997.668,2.299,1.187,1.222,2.566.322.045.606.085.957.133-.052.234-.096.434-.112.508.399.361.738.669,1.123,1.017-.197.249-.374.474-.652.826.998-.259,1.849-.481,2.782-.723.017.314.026.498.036.679,2.534.548.472,4.428.011,6.054.081.056.162.112.243.169,1.616-1.377,2.453-3.491,3.878-5.066.083.048.165.097.248.145-.384.974-.893,1.909-1.079,2.947,1.031-.032,1.49-.808,2.019-1.568,3.259,2.237,14.631-18.5,13.479-7.991.094.03.189.059.283.089,1.094-2.144,4.509-2.623,4.519.402-.096.89.735.556,1.293.499.593-.139.81.106.812.662-.08,1.962,4.51.524,3.973,3.236,2.144-.457,1.241,2.226,2.864,2.406.605-.004,1.21.372,1.837.587-.225.485-.433.934-.678,1.461,5.02.996,1.101.777,3.501,2.933,4.404,2.295.161,6.216-.403,9.674.089.041.178.082.266.123-.185.117-.369.233-.605.382.059.154.126.329.196.511-1.449.027-.687,1.274-1.387,2.138-.349.477-.522.808.079,1.218.73.849.617,2.264.918,3.296-.073-.059-.231-.188-.271-.221-.656,1.441.088,2.991-1.8,3.481-.204.757-.278,1.634-1.183,2.076-.315-.334-.584-.62-.852-.905-.137-.009-.274-.017-.41-.026.293,2.122-.855,3.447-1.799,5.239,1.242.98,3,.811,3.902,1.869.136.202.265.614.366.604,1.437-.079,1.729,1.318,2.679,1.994.643-.661,1.245-1.281,1.864-1.918.26.187.466.335.672.483.052-.03.105-.061.157-.091l-.428-.924c1.562-3.164,1.703.665,2.812-1.18.475.196-.208,1.169.688.926.129-.035.115-.591.193-1.067,1.148-.008,1.437,1.548,2.789.384.073.773.039,1.143.215,1.756,1.685-.842,3.335-2.183,4.895-3.547,1.023-1.326,1.915-1.908,3.486-.744-.475.142-.748.223-1.02.305-.005.067-.011.135-.016.202.378.068.756.137,1.195.217.034-.181.063-.334.1-.528,1.723.228.025,1.229,1.078,1.799.134-.204.256-.391.296-.453,1.868.37,1.023-1.643.979-2.751l.204-.01c1.293,1.101,1.019,3.405,2.372,4.092.478.042.83.144,1.165.502,1.443.824.727-1.53,1.45-1.887.825-.061,1.284.754,1.73,1.415-.65,1.95,2.239,2.847,3.33,4.16-1.55-.417-2.332-.086-.804,1.442.229-.349.361-.551.594-.905.361.657.506,1.139,1.073,1.535.326-.601.054-1.047-.141-1.632.68.197,1.275.399.869,1.299.351,2.153,4.294-.792,3.39,2.185.898-.303,3.057.317,1.793,1.39-.131.095-.137.605-.006.756.169.194.628.381.795.285.865-.523,1.285.614,1.879,1.035,1.081,1.873-1.129,3.834-.969,5.528,1.202.529-.36,2.016-1.067.878-.308.414-.488.762.194.862,1.616,1.818-2.468,6.466-3.68,8.628.365-.107.59-.173.909-.267.159.618,1.012,1.706-.01,1.987-.745.554-.263,1.555-.229,2.5.289.015,1.168-.414,1.404-.381.598.516,1.12.261,1.637-.051.559-.337.696-.053.782.465.801,2.367,1.179,4.776,2.081,7.035.296,1.29.714,3.393,2.176,3.714.357.969,1.887,1.054,1.624,2.511,2.597-.272,2.122,3.134,2.166,4.769,2.929,1.423-1.903,4.927-2.06,7.046-1.368,1.049-1.719,3.218-2.761,3.844-.552.332.13,1.785-.94,1.65-.796.839-1.221,1.956-2.062,3.186,3.359.425,6.449.815,9.532,1.205.032,1.666.885.365,1.742,1.274-.463.32-.798.55-1.11.766,1.152,1.211,1.958,3.802.022,4.516-1.213-.421-.742.496-.819,1.117.542-.177.997-.326,1.52-.497.973,1.168-1.798,1.906-.43,3.306.013,5.671-9.282,6.554-2.154,13.149-.601.93.805,1.579.35,2.49-.864,1.241-.557,2.496,1.028,2.77.031-.119.095-.368.163-.633,1.014.619,2.481,4.084,2.35,5.432.203-.031.46-.071.716-.111-.01.096-.021.192-.031.288-.183.196-.365.393-.548.59.022.092.044.183.066.275.393-.066.786-.133,1.324-.224-.604.681-.237,2.147-1.186,2.219-.146-.009-.301.289-.452.446.707.611,1.519-.008,2.306-.16.039.066.079.131.118.197-3.126,4.171-9.064,6.455-10.856,11.429-.128,1.576-.41.812-1.467,1.079.511.307,1.427.88.622,1.38-.764.446.062,1.168-.253,1.875-.087.003-.174.006-.261.009-.122-.197-.243-.393-.517-.836-2.745,9.891-14.735,10.7-21.933,16.161-4.721,4.006-9.465,8.241-14.742,11.416-1.032,1.679-4.844,4.864-6.137,2.157.234-.101.458-.199.914-.396-.521-.325-.863-.539-1.347-.841.147,1.114-.969,3.195-.613,1.098-1.212-.582-.148-1.97-.78-3.19-.401.884-.706,1.557-1.011,2.231-1.428-.731-.155-3.632-1.829-3.831-.673,1.024-1.157.594-1.616-.31-.299.539-.537.97-.797,1.437-3.272-3.432-9.814,6.669-13.382,6.068-1.938.182-3.462,3.741-5.535,2.824-8.971-2.229-27.887,23.203-33.172,18.759.277-.119.533-.228,1.027-.44-.491-.356-.823-.597-1.214-.881-1.253,2.454-1.359-.662-1.252-1.807-.098-.031-.197-.062-.295-.093-.366.652-.732,1.305-1.092,1.947-1.624-.22.047-4.78-1.789-3.836-.899,1.306-.917.067-1.661-.321-.179.432-.346.837-.504,1.219-2.082-1.718-4.408.854-6.83.32-.817.38-2.702,1.194-2.44-.602.711-.752,1.476-3.949-.374-3.102-.693-1.096-.614-1.406.383-1.632-.13-1.436-.512-1.982-1.573-.714.167-2.383-1.748-3.383-1.153-5.508.157-.534-.429-1.418-.268-1.963.769-1.473-.333-2.133-.906-3.004-1.931-.74-2.614-2.2-3.516-4.067-.659.517-1.34,1.051-2.08,1.631.027-.286.049-.514.074-.772-2.134.455-.86,2.028-2.308,3.424-.48-2.06,1.266-3.471,1.159-5.483-7.491,8.85-14.265,20.34-21.905,27.933ZM281.647,165.413c.861.91-.177,1.368.871,1.808.243-.854,1.473-1.293.613-2.462l-.624.31-.413-.196c.221-.269.443-.537.662-.803-1.404-1.639-1.201.322-1.109,1.344ZM33.541,183.748c-.44.598-.881,1.197-1.321,1.794.416.232.892.496,1.372.764.972-1.015.967-1.809-.051-2.558ZM282.421,173.251c-.222-.095-.444-.189-.666-.284.342-.493.685-.986.992-1.43-.25-.17-.55-.375-.848-.578q-.56.478.02,1.052c-.282.189-.563.377-.843.564-.009.121-.018.242-.026.363.457.104.914.208,1.372.313ZM280.446,162.308c-.318.619-.555,1.08-.89,1.733,1.061-.275,2.309-1.141.89-1.733ZM230.913,89.214c-.07.023-.14.046-.21.069-.088.634-.176,1.268-.273,1.965l.902-.413c-.137-.532-.278-1.077-.419-1.622ZM179.677,43.765c-.848.503-.866.792-.101,1.425.035-.491.064-.905.101-1.425ZM38.809,78.717c.649.155,1.027.174,1.063-.485-.428-.544-.687.017-1.063.485ZM31.936,191.013c-.467.934-.379,1.117.477,1.239-.178-.463-.328-.851-.477-1.239ZM281.27,169.697c.154.012.308.025.462.037.005-.409.011-.818.016-1.226-.12-.01-.24-.02-.36-.03-.039.406-.079.812-.118,1.218ZM76.359,239.142c-.032.385-.064.77-.106,1.275.927-.494.838-.89.106-1.275Z" fill="none"/>
    </clipPath>
    <linearGradient id="c" data-name="Dégradé sans nom 13" x1="148.843" y1="67.007" x2="148.843" y2="252.017" gradientUnits="userSpaceOnUse">
      <stop offset="0" stop-color="#ffd66e"/>
      <stop offset="1" stop-color="#e86170"/>
    </linearGradient>
    <filter id="d" data-name="drop-shadow-3" x="6.273" y="94.028" width="230.963" height="148.032" filterUnits="userSpaceOnUse">
      <feOffset dx="-6" dy="0"/>
      <feGaussianBlur result="e" stdDeviation="0"/>
      <feFlood flood-color="#42496f" flood-opacity="1"/>
      <feComposite in2="e" operator="in"/>
      <feComposite in="SourceGraphic"/>
    </filter>
  </defs>
  <g clip-path="url(#b)">
    <rect x="5.286" y="7.067" width="287.116" height="269.478" fill="url(#c)"/>
    <path d="M187.051,165.518s43.359-23.435,38.822-56.576c-22.862,11.222-41.636,20.393-68.217,20.477-29.019.092-51.088-35.389-88.964-35.391-35.981-.001-56.419,25.092-56.419,25.092l11.442,112.205s2.467-1.401,6.669-3.462c.547,4.628,1.1,9.318,1.661,14.102,11.141.619,19.354-1.887,25.222-5.34-.96-6.248-1.932-12.46-2.91-18.657,11.548-3.891,25.019-7.119,37.971-7.119,44.303,0,50.903,14.451,89.86,15.071,33.98.541,55.048-24.895,55.048-24.895,0,0-34.798-7.575-50.185-35.508Z" fill="none" stroke="#fff" stroke-linecap="round" stroke-linejoin="round" stroke-width="20"/>
    <g filter="url(#d)">
      <path d="M53.98,215.572l-24.352,5.909c.792,6.681,1.596,13.489,2.417,20.485,11.141.619,19.354-1.887,25.222-5.34-1.083-7.052-2.181-14.064-3.287-21.054Z" fill="#42496f"/>
      <path d="M12.273,119.121l11.442,112.205s35.981-20.476,68.613-20.476c44.303,0,50.903,14.451,89.86,15.071,33.98.541,55.048-24.895,55.048-24.895,0,0-34.798-7.575-50.185-35.508,0,0,43.359-23.435,38.822-56.576-22.862,11.222-41.636,20.393-68.217,20.477-29.019.092-51.088-35.389-88.964-35.391-35.981-.001-56.419,25.092-56.419,25.092Z" fill="#e86170"/>
      <g>
        <path d="M68.955,161.572c0,2.526-.929,4.779-2.783,6.913-1.044,1.179-2.167,2.118-3.358,2.761-1.257.678-2.976,1.246-5.105,1.82-3.049.822-5.942,1.041-8.669.559-.23-.028-.345-.337-.345-.94,0-.115-.009-1.191-.023-3.205-.014-2.026-.023-3.122-.023-3.27,0-.212.161-.386.483-.519.377-.156.566-.232.943-.38.276-.108.445-.047.46.138.048.589.046,1.257.138,1.842.244,1.486.961,2.571,2.152,3.316,1.187.746,2.828.772,4.93.217,2.852-.752,4.815-2.112,5.887-4.327.46-.994.69-2.23.69-3.732,0-1.349-.54-2.373-1.265-3.07-.828-.796-2.461-1.642-4.898-1.959-2.714-.347-4.896-.951-6.531-1.989-1.639-1.041-2.459-3.135-2.459-6.345,0-2.98,1.14-6.005,3.427-8.747,1.768-2.12,4.084-3.483,6.921-3.931,3.128-.493,5.579.124,7.359,1.565.244.212.382.429.414.672.17,1.108.253,2.838.253,5.201,0,.365-.069.541-.207.548-.45.024-.676.038-1.127.07-.17.012-.276-.081-.323-.282-.124-.58-.287-1.222-.482-1.898-.293-1.013-.851-1.811-1.679-2.374-1.425-.945-3.252-1.268-5.473-.858-1.701.315-3.021,1.141-3.955,2.418-1.044,1.432-1.541,3.108-1.495,4.959.032,1.248.528,2.319,1.494,3.229.492.458,2.253.907,5.289,1.673,1.807.474,3.118.931,3.932,1.307,1.366.621,2.516,1.428,3.45,2.385,1.32,1.343,1.978,3.431,1.978,6.233Z" fill="#fff"/>
        <path d="M97.357,149.814c0,2.41-.877,4.281-2.598,5.687-1.898,1.55-4.612,2.055-8.14,1.594-1.688-.221-3.302-.622-4.852-1.204-.125-.041-.184.051-.184.278v7.146c0,3.712.332,5.586.989,5.631,1.453.099,2.18.161,3.634.304.184.018.276.135.276.348v.989c0,.195-.06.286-.184.274-5.464-.521-8.197-.669-13.662-.436-.124.006-.184-.061-.184-.192v-1.123c0-.22.078-.335.23-.341,1.334-.051,2.001-.062,3.335-.06.262,0,.39-.198.39-.595,0-9.978,0-14.966,0-24.941,0-3.01-.192-4.536-.575-4.563-1.076-.074-1.614-.104-2.69-.144-.216-.008-.323-.08-.323-.211v-1.183c0-.159.092-.236.276-.229,2.42-.015,3.629.027,6.049.18.796.058,2.852.256,6.163.804,1.808.299,3.331.707,4.553,1.151,1.822.663,3.555,1.927,5.104,3.791,1.598,1.923,2.392,4.283,2.392,7.042ZM92.505,149.159c0-1.931-.754-3.927-2.262-5.986-1.513-2.059-3.945-3.427-7.303-3.901-.538-.076-.865-.08-.958-.023-.094.058-.17.222-.215.471-.092.989-.138,3.428-.138,7.325,0,.146-.01,1.265-.024,3.354-.013,2.1-.023,3.199-.023,3.317,0,.225.106.382.322.472,1.045.474,2.255.789,3.635.963,2.36.299,4.07.014,5.127-.924,1.228-1.082,1.839-2.751,1.839-5.067Z" fill="#fff"/>
        <path d="M136.449,186.331c0,.256-1.356.482-4.07.529-1.886.034-3.68-.046-5.381-.21-.676-.065-1.255-.257-1.747-.575-1.576-1.069-3.255-2.525-5.035-4.403-1.241-1.267-2.827-3.093-4.76-5.536-.184-.303-.52-.503-.989-.596-2.344-.463-4.449-1.24-6.21-2.367-1.557-.997-2.791-2.066-3.68-3.206-2.452-3.077-3.68-7.152-3.68-12.176,0-2.492.331-4.617.989-6.365.814-2.17,1.941-3.788,3.312-4.866,1.318-1.036,3.137-1.729,5.451-2.035,2.102-.277,4.361-.092,6.784.503,3.587.882,6.38,1.934,8.346,3.203,1.713,1.106,3.278,2.655,4.691,4.621,1.977,2.752,2.967,5.865,2.967,9.459,0,4.449-1.319,7.965-3.955,10.501-1.256,1.224-2.791,2.174-4.598,2.834-1.38.507-2.736.745-4.07.716-.427-.003-.551.093-.368.301,1.32,1.48,3.311,3.208,5.977,5.071,1.669,1.172,3.223,2.061,4.653,2.685,1.435.624,2.635.942,3.601.98.814.032,1.337.015,1.54.008.143-.005.23.074.23.22,0,.28,0,.421,0,.701ZM127.943,162.92c0-2.239-.21-4.083-.621-5.529-.495-1.744-1.357-3.456-2.552-5.15-.968-1.372-2.221-2.567-3.748-3.562-1.641-1.069-3.289-1.819-4.944-2.225-1.992-.489-3.554-.523-4.669-.089-1.585.617-2.792,1.783-3.588,3.517-.874,1.916-1.311,4.397-1.311,7.391,0,4.473.769,8.188,2.3,11.106.92,1.724,2.337,3.248,4.255,4.554,1.439.972,3.073,1.612,4.898,1.918,1.899.318,3.702.028,5.404-.868,1.301-.682,2.406-2.038,3.334-3.991.808-1.7,1.242-4.062,1.241-7.071Z" fill="#fff"/>
        <path d="M168.161,172.371c0,.157-.069.265-.207.326-3.274,1.441-4.912,2.015-8.186,2.933-.368.103-.667.104-.897.003-.814-.387-2.806-1.944-5.979-5.141-1.439-1.449-2.681-3.165-3.725-5.093-.106-.215-.23-.313-.368-.304-.842-.008-1.895-.042-3.151-.127-.262-.019-.391.092-.391.327,0-.251.01.4.023,1.936.014,1.552.023,3.145.023,4.806,0,3.039.359,4.549,1.081,4.501,1.508-.101,2.262-.17,3.771-.351.17-.021.253.043.253.191v.93c0,.14-.069.215-.207.232-5.123.637-7.684.69-12.808.516-.216-.007-.323-.08-.323-.225v-.912c0-.188.092-.278.276-.271,1.076.041,1.615.055,2.691.065.276.003.414-.209.414-.631,0-4.493,0-6.74,0-11.232,0-3.289,0-4.934,0-8.222-.033-3.808-.309-5.731-.828-5.775-1.058-.09-1.587-.142-2.644-.261-.152-.017-.23-.094-.23-.24,0-.383,0-.575,0-.957,0-.145.06-.215.184-.218,2.897.269,4.347.358,7.244.395,2.424.027,4.245-.038,5.473-.085,1.32-.05,2.416-.072,3.288-.04,2.248.082,4.125.511,5.611,1.36,1.688.964,2.53,2.304,2.53,4.164,0,2.099-.828,4.096-2.483,5.901-.952,1.034-2.429,2.074-4.438,3.016-.124.067-.17.155-.138.265,1.348,1.928,2.936,3.577,4.76,4.837,1.419.98,2.378,1.56,2.852,1.848,1.025.575,1.921.927,2.667,1.103,1.022.242,2.171.108,3.427-.433.29-.125.437-.104.437.068v.797ZM156.043,157.051c0-1.79-.677-3.146-2.024-4.125-1.77-1.287-4.383-1.833-7.818-1.853-.538-.003-.871.158-.897.407-.365,3.394-.031,6.234-.091,7.221v4.441c0,.225.119.362.345.394.572.081,1.443.076,2.576-.014,1.528-.122,2.668-.349,3.404-.614,3.003-1.049,4.507-3.104,4.507-5.857Z" fill="#fff"/>
      </g>
    </g>
  </g>
</svg>