<?xml version="1.0" encoding="UTF-8"?>
<svg xmlns="http://www.w3.org/2000/svg" width="300" height="300" xmlns:xlink="http://www.w3.org/1999/xlink" viewBox="0 0 300 300">
  <defs>
    <clipPath id="b">
      <path d="M126.772,270.147c-.714.568-1.284,1.023-1.977,1.575-.003-.058.007.152.018.393-3.196-.319-3.327-2.383-.098-2.884,1.266-.458,1.292-1.73,1.796-3.082-1.457.556-2.442.47-3.814.697.252.876.893.851,1.45,1.442-.481.508-1.165.591-1.771.508-.164-1.022-1.028-2.49.117-3.246,1.081-.446-.186-1.686-.567-2.013-.576.277-1.111.961-.617,1.595.308.467.508.864-.116,1.321-1.184,3.272-3.027-.469-4.858-1.096.043-.188.129-.569.249-1.096-1.736,1.039-.908-3.182-2.925-.821-1.624-1.05-2.16-4.844-4.273-4.346-.195.121-.721-.087-.862-.323-.793-2.584-3.2-3.697-4.05-6.08-.648-1.513-1.976-2.377-3.113-3.449-.105-.152-.742-.109-.861.057-.955,1.197-2.936.12-3.038-1.301-.305-.566-1.47-1.131-1.391-1.989-.993-1.138.043-1.066.753-1.648-.713-.298-.871-.891-.862-1.733.182-.805-1.666-2.151-.396-2.576,1.456-.278.308-1.173.293-2.22-.995,1.425-2.019,2.272-3.674,2.052-.749.61-1.209.199-1.709-.265-1.289-1.414-3.222.461-4.368,1.389.096-3.759-4.685.9-6.54,1.179-.045-1.293-1.546-2.313-2.535-1.037-2.249-.607-2.976-3.952-4.684-5.586-.354-1.535-2.399-1.151-2.496-2.62-.174-1.629-2.3-1.873-2.288-3.673-1.441-.59-1.123-2.543-2.161-3.441-1.784-2.289-6.496-5.151-5.755-8.104.894-.917,0-1.194-.607-1.76-.469-1.012-1.005-.044-1.776-.239,1.881-2.059-1.466-2.334,1.303-5.969.307-.896-.85-.648-1.11-.104-.689,1.234-1.677,1.063-2.634.934-.512-.549-.059-1.924-1.332-1.664-.087-.365-.174-.73-.265-1.114-1.241.3-1.93,1.597-.515,2.208-1.318,1.253-3.583,4.501-4.84,1.678-1.488.342-1.344-2.237-2.996-.947-.081-.699-.146-1.267-.22-1.908-.179.118-.405.268-.633.418-.357-.743-.386-1.794-1.555-1.625-.128-.956-.256-1.902-.401-2.984-.273.4-.459.674-.57.836-1.739-.398-2.103-2.224-3.029-3.533-.095.013-.19.027-.285.04-.063.335-.127.67-.19,1.006-.1-.005-.2-.01-.301-.014.267-3.392-2.866-4.422-3.859-7.278.268-1.007.296-1.422-.313-2.239-.385.414-.736.792-1.218,1.311-.78-.576-.39-2-1.553-1.698-.335-1.357-.028-2.349.869-3.26-.982-1.094,1.552-3.478-.432-3.648-.108.467-.211.908-.313,1.349h-.215c.026-1.112.053-2.223.084-3.524,2.431,1.178,2.282-2.245,2.499-3.943-.967.712-1.639,2.005-2.82,1.039.176.3.352.6.614,1.048-.519.131-.969.245-1.271.321-.347-1.909.465-3.139,1.711-4.501.127.086.294.199.395.268,2.901-4.637,5.805-9.825,10.004-13.792-1.101-.897-1.671-2.744-.22-3.567.661.055,1.365.339,1.709.081.63-.781,1.133-1.841-.331-2.352-.007-1.37,1.816-2.873.508-4.08-.762-.851-.499-2.634-1.967-2.737-1.541-.467-2.351.923-3.668,1.337-1.282-.241-1.534,1.02-2.196,1.866-.778-.443-1.737-.572-2.254-1.223-.354-1.428-1.427-.995-2.579-1.251.279-.295.512-.541.756-.799-1.61-.454-1.243,1.18-.684,1.971-.347.287-.659.544-1.161.959-.146-.998.719-2.27-.491-2.696-2.003-.024-2.094-3.775-4.13-2.353.013-.316.026-.622.039-.933-1.119-.022-1.15-.978-1.739-1.663-2.298-1.886-1.623-1.258-2.3-3.981-.202.134-.39.26-.632.421-.647-.984-1.563-1.132-1.856-2.568-1.328-2.881-5.346-3.058-7.079-5.386-.585.083-1.041.148-1.601.228,1.383-2.045.167-3.317.285-5.289.802-1.974,1.602-3.943,2.4-5.907l.357.032c-.084.989-.167,1.98-.27,3.197.814-.916.531-1.853.959-2.706.183.12.335.22.487.32.067-.034.134-.067.201-.101.024-1.515-1.858-.945-.615-2.467,8.097-15.249,14.395-31.292,23.079-46.174.452-.861.735-1.603,1.645-.565,1.744.56,1.811-2.35,3.56-2.194.431-.026.743-1.269.438-1.892-.072.32-.123.543-.188.83-.996.023-1.962.045-2.946.068.288-2.054,2.598-2.155,4.1-1.523,1.683-2.489,2.304-6.224,5.744-6.788-.14-.172-.266-.327-.539-.662,2.52-.59,4.58,2.546,6.67,1.905.44-.39.743-.297.818.309-.216.079-.43.157-.716.261,4.26,1.531,8.617,5.253,12.519,6.025.919,2.415,2.378-.584,3.433-1.49.519-.833,1.393-.071,2.021-.601,8.953-9.038,16.928-19.513,26.772-26.991.548-.009,1.596.235,1.946.822,1.848,1.277,2.466-3.795,6.841,1.161.667,1.147,2.425-.463,2.708,1.046.282,1.139,1.689,1.087,2.207,2.067,1.786,1.081,2.565,3.146,4.737,3.803.689.392.8.85,1.497-.017.118,1.414.309,1.516,1.399.76.079.407.154.792.229,1.178l1.123-.477c-.465,6.943,24.591-23.986,27.83-25.766,1.614.353-.188,1.261.697,2.163.504.143.961-.691,1.338-.89,1.676-.328-.022,1.919,1.229,2.224.722.181.831,1.901,1.677.962.181.363.422.654.47.981.121.87,1.498.81,1.687.114.111-.926-.632-2.356.922-2.128.695.044.417,1.093.954,1.37-.252.402-.445.71-.638,1.018.435.124.871.249,1.436.41-.455,1.116-.409,1.297.704,1.757.236,1.007,1.231,1.468,1.973,2.04.853.704,1.654,2.045,3.013,1.97-.367,1.39,1.423.545,2.121.967-1.036.973-.927,1.293.14,1.928-.026.064-.052.129-.078.193-.473-.052-.945-.105-1.599-.177.27.731,1.157.622.746,1.475-.068.73,1.223.916,1.837.424-.165.316-.264.505-.399.765.57-.039.209,1.014.965.708.422-.171.76-.545,1.101-.949-1.081.652-1.342-.397-.403-.954,1.362.035,2.055-.861,2.827-1.742,1.164-1.315,2.162-2.092,3.896-1.315.42.365.792.737,1.358.086,1.024.926,2.01,1.817,2.997,2.709.08-.067.161-.134.241-.2-.201-.332-.402-.663-.707-1.165,1.923,1.296,3.917-1.03,5.357.406.242,1.625,1.152,2.489,2.362,3.451,1.077.962.459,2.642,1.638,3.51.591.438.42,1.541,1.363.95,1.136-.803,2.064,1.302,1.41,2.168.424.081.745.143,1.018.195-.349.427-.657.804-.966,1.18.601.262-.509,1.372.736,1.339.079-.234.163-.483.242-.715.997.668,2.299,1.187,1.222,2.566.322.045.606.085.957.133-.052.234-.096.434-.112.508.399.361.738.669,1.123,1.017-.197.249-.374.474-.652.826.998-.259,1.849-.481,2.782-.723.017.314.026.498.036.679,2.534.548.472,4.428.011,6.054.081.056.162.112.243.169,1.616-1.377,2.453-3.491,3.878-5.066.083.048.165.097.248.145-.384.974-.893,1.909-1.079,2.947,1.031-.032,1.49-.808,2.019-1.568,3.259,2.237,14.631-18.5,13.479-7.991.094.03.189.059.283.089,1.094-2.144,4.509-2.623,4.519.402-.096.89.735.556,1.293.499.593-.139.81.106.812.662-.08,1.962,4.51.524,3.973,3.236,2.144-.457,1.241,2.226,2.864,2.406.605-.004,1.21.372,1.837.587-.225.485-.433.934-.678,1.461,5.02.996,1.101.777,3.501,2.933,4.404,2.295.161,6.216-.403,9.674.089.041.178.082.266.123-.185.117-.369.233-.605.382.059.154.126.329.196.511-1.449.027-.687,1.274-1.387,2.138-.349.477-.522.808.079,1.218.73.849.617,2.264.918,3.296-.073-.059-.231-.188-.271-.221-.656,1.441.088,2.991-1.8,3.481-.204.757-.278,1.634-1.183,2.076-.315-.334-.584-.62-.852-.905-.137-.009-.274-.017-.41-.026.293,2.122-.855,3.447-1.799,5.239,1.242.98,3,.811,3.902,1.869.136.202.265.614.366.604,1.437-.079,1.729,1.318,2.679,1.994.643-.661,1.245-1.281,1.864-1.918.26.187.466.335.672.483.052-.03.105-.061.157-.091l-.428-.924c1.562-3.164,1.703.665,2.812-1.18.475.196-.208,1.169.688.926.129-.035.115-.591.193-1.067,1.148-.008,1.437,1.548,2.789.384.073.773.039,1.143.215,1.756,1.685-.842,3.335-2.183,4.895-3.547,1.023-1.326,1.915-1.908,3.486-.744-.475.142-.748.223-1.02.305-.005.067-.011.135-.016.202.378.068.756.137,1.195.217.034-.181.063-.334.1-.528,1.723.228.025,1.229,1.078,1.799.134-.204.256-.391.296-.453,1.868.37,1.023-1.643.979-2.751l.204-.01c1.293,1.101,1.019,3.405,2.372,4.092.478.042.83.144,1.165.502,1.443.824.727-1.53,1.45-1.887.825-.061,1.284.754,1.73,1.415-.65,1.95,2.239,2.847,3.33,4.16-1.55-.417-2.332-.086-.804,1.442.229-.349.361-.551.594-.905.361.657.506,1.139,1.073,1.535.326-.601.054-1.047-.141-1.632.68.197,1.275.399.869,1.299.351,2.153,4.294-.792,3.39,2.185.898-.303,3.057.317,1.793,1.39-.131.095-.137.605-.006.756.169.194.628.381.795.285.865-.523,1.285.614,1.879,1.035,1.081,1.873-1.129,3.834-.969,5.528,1.202.529-.36,2.016-1.067.878-.308.414-.488.762.194.862,1.616,1.818-2.468,6.466-3.68,8.628.365-.107.59-.173.909-.267.159.618,1.012,1.706-.01,1.987-.745.554-.263,1.555-.229,2.5.289.015,1.168-.414,1.404-.381.598.516,1.12.261,1.637-.051.559-.337.696-.053.782.465.801,2.367,1.179,4.776,2.081,7.035.296,1.29.714,3.393,2.176,3.714.357.969,1.887,1.054,1.624,2.511,2.597-.272,2.122,3.134,2.166,4.769,2.929,1.423-1.903,4.927-2.06,7.046-1.368,1.049-1.719,3.218-2.761,3.844-.552.332.13,1.785-.94,1.65-.796.839-1.221,1.956-2.062,3.186,3.359.425,6.449.815,9.532,1.205.032,1.666.885.365,1.742,1.274-.463.32-.798.55-1.11.766,1.152,1.211,1.958,3.802.022,4.516-1.213-.421-.742.496-.819,1.117.542-.177.997-.326,1.52-.497.973,1.168-1.798,1.906-.43,3.306.013,5.671-9.282,6.554-2.154,13.149-.601.93.805,1.579.35,2.49-.864,1.241-.557,2.496,1.028,2.77.031-.119.095-.368.163-.633,1.014.619,2.481,4.084,2.35,5.432.203-.031.46-.071.716-.111-.01.096-.021.192-.031.288-.183.196-.365.393-.548.59.022.092.044.183.066.275.393-.066.786-.133,1.324-.224-.604.681-.237,2.147-1.186,2.219-.146-.009-.301.289-.452.446.707.611,1.519-.008,2.306-.16.039.066.079.131.118.197-3.126,4.171-9.064,6.455-10.856,11.429-.128,1.576-.41.812-1.467,1.079.511.307,1.427.88.622,1.38-.764.446.062,1.168-.253,1.875-.087.003-.174.006-.261.009-.122-.197-.243-.393-.517-.836-2.745,9.891-14.735,10.7-21.933,16.161-4.721,4.006-9.465,8.241-14.742,11.416-1.032,1.679-4.844,4.864-6.137,2.157.234-.101.458-.199.914-.396-.521-.325-.863-.539-1.347-.841.147,1.114-.969,3.195-.613,1.098-1.212-.582-.148-1.97-.78-3.19-.401.884-.706,1.557-1.011,2.231-1.428-.731-.155-3.632-1.829-3.831-.673,1.024-1.157.594-1.616-.31-.299.539-.537.97-.797,1.437-3.272-3.432-9.814,6.669-13.382,6.068-1.938.182-3.462,3.741-5.535,2.824-8.971-2.229-27.887,23.203-33.172,18.759.277-.119.533-.228,1.027-.44-.491-.356-.823-.597-1.214-.881-1.253,2.454-1.359-.662-1.252-1.807-.098-.031-.197-.062-.295-.093-.366.652-.732,1.305-1.092,1.947-1.624-.22.047-4.78-1.789-3.836-.899,1.306-.917.067-1.661-.321-.179.432-.346.837-.504,1.219-2.082-1.718-4.408.854-6.83.32-.817.38-2.702,1.194-2.44-.602.711-.752,1.476-3.949-.374-3.102-.693-1.096-.614-1.406.383-1.632-.13-1.436-.512-1.982-1.573-.714.167-2.383-1.748-3.383-1.153-5.508.157-.534-.429-1.418-.268-1.963.769-1.473-.333-2.133-.906-3.004-1.931-.74-2.614-2.2-3.516-4.067-.659.517-1.34,1.051-2.08,1.631.027-.286.049-.514.074-.772-2.134.455-.86,2.028-2.308,3.424-.48-2.06,1.266-3.471,1.159-5.483-7.491,8.85-14.265,20.34-21.905,27.933ZM281.647,165.413c.861.91-.177,1.368.871,1.808.243-.854,1.473-1.293.613-2.462l-.624.31-.413-.196c.221-.269.443-.537.662-.803-1.404-1.639-1.201.322-1.109,1.344ZM33.541,183.748c-.44.598-.881,1.197-1.321,1.794.416.232.892.496,1.372.764.972-1.015.967-1.809-.051-2.558ZM282.421,173.251c-.222-.095-.444-.189-.666-.284.342-.493.685-.986.992-1.43-.25-.17-.55-.375-.848-.578q-.56.478.02,1.052c-.282.189-.563.377-.843.564-.009.121-.018.242-.026.363.457.104.914.208,1.372.313ZM280.446,162.308c-.318.619-.555,1.08-.89,1.733,1.061-.275,2.309-1.141.89-1.733ZM230.913,89.214c-.07.023-.14.046-.21.069-.088.634-.176,1.268-.273,1.965l.902-.413c-.137-.532-.278-1.077-.419-1.622ZM179.677,43.765c-.848.503-.866.792-.101,1.425.035-.491.064-.905.101-1.425ZM38.809,78.717c.649.155,1.027.174,1.063-.485-.428-.544-.687.017-1.063.485ZM31.936,191.013c-.467.934-.379,1.117.477,1.239-.178-.463-.328-.851-.477-1.239ZM281.27,169.697c.154.012.308.025.462.037.005-.409.011-.818.016-1.226-.12-.01-.24-.02-.36-.03-.039.406-.079.812-.118,1.218ZM76.359,239.142c-.032.385-.064.77-.106,1.275.927-.494.838-.89.106-1.275Z" fill="none"/>
    </clipPath>
    <linearGradient id="c" data-name="Dégradé sans nom 13" x1="148.843" y1="67.007" x2="148.843" y2="252.017" gradientUnits="userSpaceOnUse">
      <stop offset="0" stop-color="#ffd66e"/>
      <stop offset="1" stop-color="#e86170"/>
    </linearGradient>
    <clipPath id="d">
      <path d="M-253.715-73.97v347.791c5.085.942,10.691,1.467,16.589,1.467,13.659,0,25.755-2.806,33.409-7.13.37-.016.741-.033,1.111-.049,4.124,4.351,10.666,7.179,18.058,7.179s13.94-2.83,18.063-7.184c5.262,4.355,13.615,7.184,23.052,7.184,7.776,0,14.82-1.921,20.008-5.031,6.059,3.11,14.285,5.031,23.367,5.031,7.827,0,15.012-1.434,20.731-3.816,1.407,2.383,3.175,3.816,5.1,3.816,1.897,0,3.639-1.394,5.036-3.713,5.678,2.319,12.761,3.713,20.472,3.713,10.083,0,19.107-2.37,25.281-6.106,5.286,3.736,13.013,6.106,21.646,6.106,8.01,0,15.253-2.032,20.48-5.308,6.104,3.276,14.564,5.308,23.918,5.308.414,0,.805-.045,1.213-.055.829.021,1.65.055,2.492.055,13.659,0,25.755-2.806,33.409-7.13.37-.016.741-.033,1.111-.049,4.124,4.351,10.666,7.179,18.058,7.179s13.94-2.83,18.063-7.184c5.262,4.355,13.615,7.184,23.052,7.184,7.776,0,14.82-1.921,20.008-5.031,6.059,3.11,14.285,5.031,23.367,5.031,7.827,0,15.012-1.434,20.731-3.816,1.407,2.383,3.175,3.816,5.1,3.816,1.897,0,3.639-1.394,5.036-3.713,5.678,2.319,12.761,3.713,20.472,3.713,10.083,0,19.107-2.37,25.281-6.106,5.286,3.736,13.013,6.106,21.646,6.106,8.01,0,15.253-2.032,20.48-5.308,6.104,3.276,14.564,5.308,23.918,5.308,1.674,0,3.301-.097,4.908-.223V-73.97H-253.715Z" fill="none"/>
    </clipPath>
    <filter id="e" data-name="drop-shadow-4" x="-187.484" y="-41.249" width="498.382" height="346.567" filterUnits="userSpaceOnUse">
      <feOffset dx="-6" dy="0"/>
      <feGaussianBlur result="f" stdDeviation="0"/>
      <feFlood flood-color="#42496f" flood-opacity="1"/>
      <feComposite in2="f" operator="in"/>
      <feComposite in="SourceGraphic"/>
    </filter>
    <clipPath id="g">
      <path d="M225.438,141.925c-1.053-46.012,2.335-68.6-12.319-67.411s-21.258,28.132,0,22.18c0,0,16.239,45.232-28.517,45.232H-143.338c-13.466,0-31.685-95.928,36.438-79.293,0,0,15.843-2.772,7.921-22.18-36.671-2.808-84.983,15.212-71.206,101.473s45.858,150.423,45.858,150.423h400.023v-36.438c-50.259-4.753-71.291-5.941-68.915-22.972,2.376-17.031,19.929-35.413,18.656-91.014Z" fill="none"/>
    </clipPath>
    <clipPath id="h">
      <path d="M-142.327,128.057H184.672c0,27.125-22.022,49.147-49.147,49.147H-93.18c-27.125,0-49.147-22.022-49.147-49.147h0Z" fill="none"/>
    </clipPath>
  </defs>
  <g isolation="isolate">
    <g id="a" data-name="bateau 08">
      <g clip-path="url(#b)">
        <rect x="5.286" y="7.067" width="287.116" height="269.478" fill="url(#c)"/>
        <g>
          <path d="M272.474,251.349v.977c-2.029-.638-3.281-.977-3.281-.977v3.949c-15.081-1.415-27.264-2.565-36.732-4.054,6.111-10.879,10.307-21.534,4.746-23.508-5.249-1.863-17.306,4.987-29.221,13.291-1.263-2.218-1.654-4.87-1.205-8.089,2.376-17.031,19.929-35.413,18.656-91.014-1.053-46.012,2.335-68.6-12.319-67.411-.206.017-.405.057-.608.083-.818-.129-1.703-.162-2.673-.083-13.709,1.112-20.368,24.759-3.766,22.932,1.155.144,2.482.117,3.982-.103,1.77,5.505,12.87,44.583-28.733,44.583h-61.813c0-3.81,0-7.62,0-11.43-1.091.185-2.185.354-3.281.511v-.511c-7.473,1.264-15.065,1.885-22.669,1.964-8.142-.082-16.279-.77-24.28-1.964v.459c-1.096-.144-2.19-.296-3.281-.459v11.43h-19.711c0-3.81,0-7.62,0-11.43-1.091.185-2.185.354-3.281.511v-.511c-7.473,1.264-15.065,1.885-22.669,1.964-8.142-.082-16.279-.77-24.28-1.964v.459c-1.096-.144-2.19-.296-3.281-.459v11.43h-19.711c0-3.81,0-7.62,0-11.43-1.091.185-2.185.354-3.281.511v-.511c-7.473,1.264-15.065,1.885-22.669,1.964-5.202-.052-10.402-.353-15.566-.876v-50.397s-31.483-6.58-38.25-13.562l1.407-1.407-2.68-2.68-1.64,1.64-1.64-1.64-2.68,2.68,1.407,1.407c-4.221,4.356-18.059,8.555-27.875,11.097l-2.179-14.171c4.128-2.548,9.239-4.115,15.499-4.354,3.908.13,8.207.722,12.961,1.883,0,0,.294-.199.752-.564.832.174,1.668.354,2.528.564,0,0,14.678-9.842,1.82-22.223-2.786-.213-5.582-.301-8.364-.247-9.808-.196-19.552,1.291-28.211,5.342l-1.376-8.951c2.699-1.154,4.388-4.016,3.921-7.051s-2.938-5.258-5.859-5.547l-.057-.37c3.83-1.365,6.28-5.291,5.639-9.458s-4.157-7.176-8.22-7.327l-.058-.38c2.699-1.154,4.388-4.016,3.921-7.051s-2.938-5.258-5.859-5.547l-.033-.212,19.926-3.064-1.415-9.204-3.205.493-.076-.493-16.721,2.571-.543-3.529c5-1.57,8.249-6.584,7.428-11.924-.906-5.891-6.414-9.932-12.305-9.029-1.062-.163-2.166-.172-3.285,0-5.892.906-9.934,6.417-9.028,12.309.821,5.34,5.426,9.146,10.667,9.141l.618,4.022-20.03,3.08,1.415,9.204,3.205-.493.076.493,15.964-2.455c-2.214,1.34-3.521,3.921-3.103,6.638.467,3.035,2.938,5.258,5.859,5.547l.058.38c-3.83,1.365-6.28,5.291-5.639,9.458.641,4.168,4.157,7.176,8.22,7.327l.057.37c-2.699,1.154-4.388,4.016-3.921,7.051s2.938,5.258,5.859,5.547l1.823,11.857c-18.794,12.435-30.364,39.914-21.794,93.569,13.777,86.261,45.858,150.423,45.858,150.423h396.801v1.96s1.251-.026,3.281-.159v.159s38.305-.764,38.424-16.67c.119-15.906-38.424-26.288-38.424-26.288ZM-109.981,67.624l.367-.367.367.367c-.115.119-.238.238-.367.356-.129-.119-.252-.237-.367-.356ZM-147.496,139.28c-.086-.103-.171-.206-.256-.314v-49.713h.256v50.028ZM-146.761,80.286c-2.472.577-4.015.9-4.015.9v52.779c-7.385-15.202-12.077-48.298,2.351-64.5l1.664,10.821ZM-144.472,141.697v-46.522l7.189,46.75h-6.055c-.372,0-.751-.085-1.134-.228ZM-98.472,89.252h.256v52.673h-.256v-52.673ZM-95.192,89.252h20.437v41.582c-.804-.109-1.607-.22-2.409-.339v.459c-1.096-.144-2.19-.296-3.281-.459v11.43h-14.748v-52.673ZM-71.475,131.252c-.086-.01-.171-.022-.256-.032v-41.968h.256v42ZM-130.683,141.925l-8.1-52.673h37.286v52.673h-29.187Z" fill="none" stroke="#fff" stroke-linecap="round" stroke-linejoin="round" stroke-width="20"/>
          <g>
            <path d="M217.895,280.523s-25.748-70.56-48.631-54.482c-6.473,4.548,10.508,40.753,10.508,40.753,0,0-22.604-10.98-24.41-1.549-1.806,9.431-10.501,16.773-27.89,13.295-17.389-3.478,49.076,21.085,50.621,11.219,1.546-9.866,21.965,9.33,26.536,4.562,4.571-4.768-3.351-18.77,13.265-13.798Z" fill="#9bc8ec"/>
            <path d="M208.665,270.311c.827-15.262-22.678-56.295-39.401-44.271-11.009,7.916,7.756,31.246,10.508,40.753-13.968-8.064-30.292-9.006-34.662-4.504-4.37,4.502,8.058,6.416,4.638,10.508-3.42,4.093-35.529,4.176-35.529,4.176,0,0,36.809,13.021,47.233,8.453,6.568-2.878-3.988-12.243,1.833-14.28,14.55-5.091,27.688,21.225,38.81,18.396,6.59-1.676-9.531-22.848-5.278-24.6,4.253-1.751,11.846,5.367,11.846,5.367Z" fill="#fff"/>
          </g>
        </g>
        <g>
          <g clip-path="url(#d)">
            <g>
              <path d="M215.693,276.802s33.53-44.802,21.515-49.065c-12.015-4.264-59.704,37.119-59.704,37.119l38.189,11.946Z" fill="#fff"/>
              <path d="M207.048,287.765s33.53-44.802,21.515-49.065c-12.015-4.264-59.704,37.119-59.704,37.119l38.189,11.946Z" fill="#9bc8ec"/>
              <g>
                <path d="M239.011,264.181c-1.411.713-2.77-.218-3.072-1.153-.36-1.114.158-2.325,1.219-2.738,1.118-.435,2.358.106,2.804,1.229.072.181.114.373.181.555.567,1.544.491,1.686-1.131,2.107Z" fill="#fff"/>
                <path d="M242.034,230.413c.307,1.019-.258,2.088-1.279,2.42-1.073.349-2.173-.233-2.469-1.307-.279-1.013.322-2.096,1.333-2.402,1.008-.305,2.112.284,2.415,1.289Z" fill="#fff"/>
                <path d="M223.821,245.031c.251.856-.158,1.52-1.129,1.831-.935.3-1.911-.193-2.178-1.101-.259-.881.256-1.795,1.159-2.055.946-.272,1.841.279,2.148,1.325Z" fill="#fff"/>
                <path d="M216.599,254.708c-.24-.887.247-1.753,1.112-1.979.857-.224,1.73.292,1.966,1.162.255.941-.229,1.872-1.091,2.098-.868.227-1.73-.329-1.987-1.281Z" fill="#fff"/>
                <path d="M239.884,250.776c.254.852-.229,1.77-1.069,2.031-.852.265-1.757-.223-2.011-1.083-.258-.874.208-1.751,1.071-2.02.871-.271,1.748.197,2.008,1.071Z" fill="#fff"/>
                <path d="M226.646,272.936c.214.818-.313,1.672-1.152,1.868-.799.187-1.605-.287-1.833-1.078-.241-.837.237-1.67,1.088-1.896.833-.221,1.679.272,1.896,1.106Z" fill="#fff"/>
                <path d="M232.955,224.822c.812-.207,1.595.248,1.824,1.061.238.845-.244,1.675-1.098,1.886-.809.2-1.609-.264-1.832-1.062-.235-.843.248-1.666,1.106-1.885Z" fill="#fff"/>
                <path d="M220.413,265.961c-.199-.768.219-1.518.937-1.68.744-.168,1.563.321,1.755,1.048.198.748-.217,1.458-.969,1.661-.777.209-1.516-.232-1.723-1.029Z" fill="#fff"/>
                <path d="M249.368,232.273c.06.218.145.432.176.654.096.685-.193,1.156-.877,1.275-.694.121-1.111-.261-1.251-.919-.073-.344-.034-.711-.097-1.059-.116-.639.061-1.118.72-1.267.671-.152,1.023.239,1.175.855.039.157.085.312.128.468.009-.002.018-.005.026-.007Z" fill="#fff"/>
                <path d="M213.261,240.925c-.224-.733.168-1.515.862-1.721.703-.209,1.553.274,1.766,1.004.201.688-.259,1.5-.952,1.683-.713.188-1.454-.239-1.676-.966Z" fill="#fff"/>
                <path d="M259.154,255.032c.807-.255,1.532.046,1.775.738.229.65-.173,1.421-.856,1.643-.687.223-1.964-.462-2.151-1.154-.148-.547.21-.903,1.232-1.226Z" fill="#fff"/>
                <path d="M252.972,263.757c-.183-.733.271-1.482,1.029-1.63.791-.154,1.346.178,1.593.942.238.734-.202,1.465-.957,1.662-.749.195-1.479-.233-1.665-.975Z" fill="#fff"/>
                <path d="M260.431,243.079c.163.707-.33,1.474-1.057,1.644-.741.173-1.399-.231-1.563-.96-.166-.739.297-1.484,1.024-1.65.69-.157,1.442.297,1.596.966Z" fill="#fff"/>
                <path d="M241.45,238.882c.681-.189,1.434.219,1.638.887.214.701-.248,1.477-.984,1.656-.697.17-1.425-.259-1.598-.94-.172-.675.264-1.414.944-1.603Z" fill="#fff"/>
                <path d="M246.652,255.517c-.62.087-1.136-.16-1.353-.86-.199-.641.228-1.397.869-1.523.706-.139,1.216.169,1.446.844.213.625-.234,1.356-.962,1.54Z" fill="#fff"/>
                <path d="M227.356,232.846c-.409-.321-.978-.563-1.19-.983-.317-.627.098-1.154.736-1.351.658-.203,1.273.092,1.371.736.069.456-.297.977-.469,1.469l-.448.129Z" fill="#fff"/>
                <path d="M228.8,252.118c.669.438,1.159.623,1.391.977.092.14-.315.83-.625.961-.548.233-1.052-.065-1.127-.706-.033-.284.164-.596.361-1.233Z" fill="#fff"/>
                <path d="M222.598,241.039c.44-.514.649-.978.927-1.024.295-.048.655.301.986.476-.187.326-.305.816-.579.93-.262.108-.686-.177-1.334-.382Z" fill="#fff"/>
                <path d="M233.529,237.074c-.404.479-.592.906-.851.954-.271.05-.61-.263-.92-.417.177-.325.282-.783.555-.932.201-.11.622.185,1.216.395Z" fill="#fff"/>
                <path d="M251.722,226.893c-.433.507-.635.951-.884.979-.277.031-.714-.255-.854-.522-.082-.157.224-.708.455-.787.266-.09.643.146,1.282.329Z" fill="#fff"/>
                <path d="M245.658,241.464c.475.428.897.632.928.884.033.273-.299.59-.472.888-.3-.176-.749-.29-.854-.546-.096-.233.182-.619.398-1.226Z" fill="#fff"/>
                <path d="M248.721,247.16c.447.354.849.519.89.747.043.242-.208.71-.423.775-.215.065-.682-.185-.783-.41-.094-.211.146-.572.316-1.112Z" fill="#fff"/>
                <path d="M220.689,233.722c.44.365.812.528.877.771.056.212-.215.718-.377.734-.279.027-.718-.155-.839-.382-.101-.19.156-.571.34-1.123Z" fill="#fff"/>
                <path d="M224.77,230.246c-.442-.379-.839-.557-.873-.79-.038-.256.256-.562.406-.846.278.16.692.262.793.498.093.218-.149.58-.325,1.138Z" fill="#fff"/>
                <path d="M243.113,267.072c.353.293.746.472.747.655.002.266-.276.535-.435.803-.26-.176-.63-.303-.741-.547-.074-.163.219-.494.429-.911Z" fill="#fff"/>
                <path d="M230.685,274.16c.34-.355.545-.738.742-.734.262.005.518.312.777.489-.18.229-.328.593-.551.648-.222.055-.521-.201-.968-.403Z" fill="#fff"/>
                <path d="M230.498,239.831c-.27.362-.411.724-.585.742-.251.025-.527-.201-.792-.319.155-.243.26-.581.482-.698.157-.083.472.133.895.276Z" fill="#fff"/>
                <path d="M230.31,246.8c-.269.347-.393.64-.604.729-.129.054-.561-.211-.557-.324.007-.235.163-.541.355-.668.117-.077.418.126.806.263Z" fill="#fff"/>
              </g>
            </g>
            <g filter="url(#e)">
              <path d="M225.438,141.925c-1.053-46.012,2.335-68.6-12.319-67.411s-21.258,28.132,0,22.18c0,0,16.239,45.232-28.517,45.232H-143.338c-13.466,0-35.626-96.479,32.497-79.845,0,0,14.678-9.842,1.82-22.223-36.671-2.808-74.942,15.807-61.165,102.068s45.858,150.423,45.858,150.423h400.023v-36.438c-50.259-4.753-71.291-5.941-68.915-22.972,2.376-17.031,19.929-35.413,18.656-91.014Z" fill="#e86170"/>
              <g clip-path="url(#g)">
                <g mix-blend-mode="multiply" opacity=".5">
                  <line x1="-180.664" y1="185.154" x2="152.578" y2="185.154" fill="none" stroke="#a384bb" stroke-linecap="round" stroke-linejoin="round" stroke-width="1.64"/>
                  <line x1="-147.117" y1="218.383" x2="224.963" y2="218.383" fill="none" stroke="#a384bb" stroke-linecap="round" stroke-linejoin="round" stroke-width="1.64"/>
                  <line x1="-147.752" y1="251.612" x2="215.287" y2="251.612" fill="none" stroke="#a384bb" stroke-linecap="round" stroke-linejoin="round" stroke-width="1.64"/>
                  <line x1="-120.132" y1="284.841" x2="286.235" y2="284.841" fill="none" stroke="#a384bb" stroke-linecap="round" stroke-linejoin="round" stroke-width="1.64"/>
                </g>
                <g>
                  <path d="M-142.327,128.057H184.672c0,27.125-22.022,49.147-49.147,49.147H-93.18c-27.125,0-49.147-22.022-49.147-49.147h0Z" fill="#ffd66e"/>
                  <g clip-path="url(#h)">
                    <g mix-blend-mode="multiply" opacity=".5">
                      <line x1="-145.102" y1="167.321" x2="189.201" y2="167.321" fill="none" stroke="#f4af13" stroke-linecap="round" stroke-linejoin="round" stroke-width="1.64"/>
                      <line x1="-125.529" y1="157.132" x2="189.201" y2="157.132" fill="none" stroke="#f4af13" stroke-linecap="round" stroke-linejoin="round" stroke-width="1.64"/>
                      <line x1="-145.102" y1="146.944" x2="189.201" y2="146.944" fill="none" stroke="#f4af13" stroke-linecap="round" stroke-linejoin="round" stroke-width="1.64"/>
                    </g>
                  </g>
                </g>
                <g>
                  <path d="M213.785,183.77s11.479-26.638-4.217-26.638c-19.444,0-39.943,26.638-39.943,26.638h45.828c2.184,0,3.954,1.77,3.954,3.954h0" fill="none" stroke="#ffd66e" stroke-linecap="round" stroke-linejoin="round" stroke-width="3.281"/>
                  <path d="M209.568,157.132c-2.844,0-5.706.619-8.528,1.592-1.818,1.997-2.955,4.627-2.955,7.54,0,6.21,5.035,11.245,11.245,11.245,2.855,0,5.431-1.098,7.415-2.85,1.855-7.716,2.354-17.527-7.177-17.527Z" fill="none" stroke="#ffd66e" stroke-linecap="round" stroke-linejoin="round" stroke-width="3.281"/>
                  <path d="M230.181,160.403s-10.659-18.959-38.889-3.271c0,0,7.847-8.676,6.794-25.309" fill="none" stroke="#ffd66e" stroke-miterlimit="10" stroke-width="3.281"/>
                  <path d="M283.272,269.761c2.468,2.468-72.384.423-80.427-16.932-8.043-17.355,10.582-38.944,11.852-59.262-44.446,27.091-236.201,46.14-364.884,13.546,0,0,8.466,57.992,31.324,98.205h408.06s-7.196-36.827-5.926-35.557Z" fill="#a384bb" mix-blend-mode="multiply" opacity=".25"/>
                </g>
              </g>
              <path d="M272.474,251.349v42.959s38.305-.764,38.424-16.67c.119-15.907-38.424-26.288-38.424-26.288Z" fill="#336a9b"/>
              <g mix-blend-mode="multiply" opacity=".25">
                <path d="M46.287,189.414c-16.544,2.8-33.683,2.47-50.23,0v-51.301c16.549,2.471,33.683,2.799,50.23,0,0,17.1,0,34.2,0,51.301Z" fill="#9bc8ec"/>
              </g>
              <g mix-blend-mode="multiply" opacity=".25">
                <path d="M119.508,189.414c-16.544,2.8-33.683,2.47-50.23,0v-51.301c16.549,2.471,33.684,2.799,50.23,0,0,17.1,0,34.2,0,51.301Z" fill="#9bc8ec"/>
              </g>
              <g>
                <path d="M46.287,181.795c-16.544,2.8-33.683,2.47-50.23,0v-51.301c16.549,2.471,33.684,2.8,50.23,0,0,17.1,0,34.2,0,51.301Z" fill="#9bc8ec"/>
                <path d="M42.384,178.359c-14.447,1.403-27.977,1.403-42.424,0v-43.291c14.449,1.405,27.976,1.405,42.424,0,0,14.43,0,28.86,0,43.29Z" fill="#336a9b"/>
                <path d="M-.04,178.359c15.165-13.424,29.024-28.13,42.424-43.29" fill="none" stroke="#9bc8ec" stroke-linecap="round" stroke-linejoin="round" stroke-width="2.46"/>
                <path d="M-.04,135.068c13.415,15.175,27.299,29.792,42.424,43.291" fill="none" stroke="#9bc8ec" stroke-linecap="round" stroke-linejoin="round" stroke-width="2.46"/>
                <path d="M26.19,158.041c-2.007-1.938-3.01-2.922-5.017-4.923-2.007,2.001-3.01,2.985-5.016,4.923,2.006,2.063,3.01,3.079,5.016,5.08,2.007-2,3.011-3.016,5.017-5.08Z" fill="#fff"/>
              </g>
              <g>
                <path d="M119.508,181.795c-16.544,2.8-33.683,2.47-50.23,0v-51.301c16.549,2.471,33.684,2.8,50.23,0,0,17.1,0,34.2,0,51.301Z" fill="#9bc8ec"/>
                <path d="M115.605,178.359c-14.447,1.403-27.977,1.403-42.424,0v-43.291c14.449,1.405,27.976,1.405,42.424,0,0,14.43,0,28.86,0,43.29Z" fill="#336a9b"/>
                <path d="M73.181,178.359c15.165-13.424,29.024-28.13,42.424-43.29" fill="none" stroke="#9bc8ec" stroke-linecap="round" stroke-linejoin="round" stroke-width="2.46"/>
                <path d="M73.181,135.068c13.415,15.175,27.299,29.792,42.424,43.291" fill="none" stroke="#9bc8ec" stroke-linecap="round" stroke-linejoin="round" stroke-width="2.46"/>
                <path d="M99.411,158.041c-2.007-1.938-3.01-2.922-5.017-4.923-2.007,2.001-3.01,2.985-5.016,4.923,2.006,2.063,3.01,3.079,5.016,5.08,2.007-2,3.011-3.016,5.017-5.08Z" fill="#fff"/>
              </g>
            </g>
          </g>
          <g>
            <path d="M217.895,280.523s-25.748-70.56-48.631-54.482c-6.473,4.548,10.508,40.753,10.508,40.753,0,0-22.604-10.98-24.41-1.549-1.806,9.431-10.501,16.773-27.89,13.295-17.389-3.478,49.076,21.085,50.621,11.219,1.546-9.866,21.965,9.33,26.536,4.562,4.571-4.768-3.351-18.77,13.265-13.798Z" fill="#9bc8ec"/>
            <path d="M208.665,270.311c.827-15.262-22.678-56.295-39.401-44.271-11.009,7.916,7.756,31.246,10.508,40.753-13.968-8.064-30.292-9.006-34.662-4.504-4.37,4.502,8.058,6.416,4.638,10.508-3.42,4.093-35.529,4.176-35.529,4.176,0,0,36.809,13.021,47.233,8.453,6.568-2.878-3.988-12.243,1.833-14.28,14.55-5.091,27.688,21.225,38.81,18.396,6.59-1.676-9.531-22.848-5.278-24.6,4.253-1.751,11.846,5.367,11.846,5.367Z" fill="#fff"/>
            <g>
              <g>
                <path d="M113.624,269.903c.962.536.954,1.684.532,2.223-.502.642-1.404.815-2.056.364-.687-.476-.858-1.403-.384-2.097.076-.112.171-.211.25-.321.67-.929.782-.941,1.657-.168Z" fill="#fff"/>
                <path d="M92.951,281.321c.468-.574,1.306-.665,1.895-.205.62.483.713,1.345.208,1.935-.476.556-1.335.631-1.906.167-.569-.463-.659-1.33-.197-1.896Z" fill="#fff"/>
                <path d="M108.49,286.137c.396-.479.939-.501,1.497-.062.538.423.633,1.178.213,1.686-.408.493-1.136.552-1.638.132-.526-.44-.556-1.171-.072-1.756Z" fill="#fff"/>
                <path d="M116.891,286.534c-.419.484-1.108.541-1.576.129-.464-.408-.506-1.113-.096-1.588.444-.514,1.17-.598,1.636-.188.469.413.484,1.127.035,1.647Z" fill="#fff"/>
                <path d="M105.544,274.625c.393-.479,1.111-.558,1.589-.175.485.389.556,1.101.159,1.583-.404.489-1.092.563-1.584.169-.496-.397-.568-1.086-.165-1.577Z" fill="#fff"/>
                <path d="M123.498,273.629c.389-.442,1.087-.471,1.528-.063.419.388.46,1.038.092,1.478-.389.465-1.057.514-1.519.111-.452-.395-.497-1.075-.101-1.526Z" fill="#fff"/>
                <path d="M93.262,288.741c-.436-.388-.478-1.018-.099-1.466.395-.467,1.062-.512,1.517-.101.431.389.475,1.032.101,1.472-.395.464-1.058.506-1.519.096Z" fill="#fff"/>
                <path d="M121.9,279.946c-.365.414-.962.465-1.335.114-.387-.364-.424-1.028-.079-1.422.355-.406.926-.443,1.337-.088.424.367.457.966.078,1.396Z" fill="#fff"/>
                <path d="M91.166,276.362c.102-.12.193-.252.309-.357.358-.322.742-.339,1.078.009.34.354.282.743-.043,1.08-.17.176-.397.297-.573.469-.323.316-.669.4-1.012.078-.349-.328-.261-.684.036-1.012.075-.084.147-.171.22-.256-.005-.004-.01-.008-.015-.012Z" fill="#fff"/>
                <path d="M110.236,293.834c-.336.415-.94.494-1.33.174-.395-.324-.447-1.004-.109-1.411.319-.384.967-.435,1.343-.106.386.338.429.932.096,1.344Z" fill="#fff"/>
                <path d="M100.49,261.841c-.462-.366-.571-.902-.266-1.312.286-.385.888-.454,1.282-.146.397.309.499,1.314.172,1.692-.258.298-.603.231-1.188-.233Z" fill="#fff"/>
                <path d="M107.937,262.009c-.352.391-.962.421-1.342.041-.397-.397-.422-.846-.077-1.287.331-.424.925-.455,1.333-.095.405.357.442.945.086,1.341Z" fill="#fff"/>
                <path d="M93.092,265.764c.345-.37.979-.384,1.361-.03.389.36.412.898.055,1.276-.362.384-.972.407-1.352.052-.36-.337-.39-.948-.065-1.298Z" fill="#fff"/>
                <path d="M98.068,278.357c-.375-.319-.433-.913-.126-1.291.322-.397.949-.433,1.34-.077.37.336.406.923.08,1.289-.323.362-.919.399-1.294.08Z" fill="#fff"/>
                <path d="M105.643,268.869c.292.324.35.718.031,1.116-.293.364-.895.413-1.218.092-.355-.353-.377-.768-.077-1.164.278-.367.874-.393,1.264-.045Z" fill="#fff"/>
                <path d="M100.077,288.846c-.026.362.056.784-.104,1.071-.238.428-.705.393-1.067.102-.373-.301-.443-.771-.109-1.078.236-.217.68-.209,1.031-.302l.249.208Z" fill="#fff"/>
                <path d="M110.64,280.5c-.008-.557-.092-.912.022-1.184.045-.108.602-.142.799-.014.348.226.373.632.032.925-.151.13-.408.138-.853.273Z" fill="#fff"/>
                <path d="M106.662,288.399c-.468-.053-.818.007-.952-.136-.143-.151-.082-.495-.109-.755.261-.019.59-.142.762-.028.165.109.166.465.299.919Z" fill="#fff"/>
                <path d="M100.112,283.635c.434.046.754-.011.883.12.135.137.086.455.117.694-.257.025-.562.143-.754.043-.142-.073-.136-.431-.246-.856Z" fill="#fff"/>
                <path d="M87.143,277.1c.462.052.797-.004.91.129.126.148.131.511.032.696-.059.108-.496.147-.632.044-.156-.118-.166-.428-.31-.869Z" fill="#fff"/>
                <path d="M97.918,274.921c.062-.441.015-.764.149-.88.144-.126.457-.058.696-.074.015.242.124.545.018.706-.097.146-.429.136-.863.248Z" fill="#fff"/>
                <path d="M100.013,270.932c.03-.396-.032-.693.084-.805.123-.119.491-.157.612-.058.121.099.159.465.068.612-.085.137-.387.139-.765.251Z" fill="#fff"/>
                <path d="M103.182,292.353c.039-.397-.012-.675.104-.807.1-.115.498-.156.571-.068.125.15.191.475.107.633-.07.133-.391.133-.781.242Z" fill="#fff"/>
                <path d="M99.584,291.352c-.046.403.005.701-.116.812-.133.122-.424.071-.646.095-.016-.223-.119-.501-.022-.652.09-.139.393-.14.784-.256Z" fill="#fff"/>
                <path d="M113.694,266.408c.031-.318-.018-.614.087-.687.153-.105.417-.049.633-.062,0,.219.071.481-.027.641-.065.106-.37.066-.693.107Z" fill="#fff"/>
                <path d="M122.63,270.82c-.338-.058-.639-.027-.713-.142-.099-.153-.022-.421-.02-.639.202.015.47-.042.589.065.118.107.087.379.145.716Z" fill="#fff"/>
                <path d="M102.885,284.309c.314.015.578-.045.656.049.112.135.09.382.124.582-.201.005-.437.076-.591-.006-.109-.059-.107-.324-.19-.624Z" fill="#fff"/>
                <path d="M106.981,281.702c.305.02.523-.023.656.065.082.054.097.406.03.448-.139.088-.376.117-.524.055-.09-.038-.09-.291-.162-.568Z" fill="#fff"/>
              </g>
              <g>
                <path d="M171.932,270.593c.293,2.158-1.531,3.508-2.884,3.481-1.612-.032-2.957-1.252-3.017-2.819-.063-1.651,1.2-3.023,2.862-3.098.267-.012.537.02.805.015,2.265-.043,2.417.12,2.235,2.421Z" fill="#fff"/>
                <path d="M129.32,251.458c1.465.059,2.602,1.275,2.576,2.754-.028,1.555-1.281,2.725-2.813,2.627-1.445-.093-2.585-1.362-2.528-2.816.056-1.45,1.321-2.622,2.765-2.564Z" fill="#fff"/>
                <path d="M140.158,281.753c1.228.058,1.908.889,1.877,2.294-.03,1.353-1.112,2.401-2.414,2.34-1.265-.059-2.223-1.141-2.154-2.434.072-1.355,1.192-2.271,2.692-2.2Z" fill="#fff"/>
                <path d="M149.509,295.512c-1.263-.087-2.171-1.11-2.077-2.339.094-1.217,1.159-2.122,2.398-2.037,1.341.091,2.335,1.141,2.24,2.365-.095,1.232-1.207,2.105-2.562,2.011Z" fill="#fff"/>
                <path d="M154.869,263.422c1.224.053,2.202,1.095,2.164,2.306-.039,1.229-1.081,2.188-2.315,2.131-1.254-.058-2.187-1.059-2.148-2.304.04-1.256,1.044-2.188,2.299-2.133Z" fill="#fff"/>
                <path d="M177.767,290.634c1.162.09,2.036,1.16,1.914,2.341-.116,1.125-1.096,1.96-2.229,1.901-1.198-.063-2.068-1.061-1.979-2.271.087-1.185,1.11-2.063,2.294-1.971Z" fill="#fff"/>
                <path d="M117.954,260.763c.096-1.15,1.041-1.965,2.202-1.898,1.208.07,2.071,1.072,1.962,2.279-.104,1.143-1.068,1.977-2.207,1.908-1.203-.073-2.058-1.072-1.956-2.288Z" fill="#fff"/>
                <path d="M165.879,295.61c-1.089-.086-1.878-.968-1.766-1.976.116-1.044,1.122-1.891,2.155-1.814,1.063.079,1.801.939,1.726,2.01-.077,1.106-.984,1.87-2.115,1.78Z" fill="#fff"/>
                <path d="M135.044,242.745c.311.02.628.006.931.065.935.183,1.419.771,1.265,1.716-.155.958-.84,1.329-1.76,1.215-.481-.06-.942-.276-1.422-.35-.884-.136-1.428-.583-1.326-1.507.104-.942.771-1.224,1.642-1.146.222.02.445.029.667.043,0-.013.002-.025.002-.038Z" fill="#fff"/>
                <path d="M130.059,293.656c-1.055-.039-1.897-.9-1.854-1.897.044-1.01,1.056-1.899,2.103-1.848.986.048,1.836,1.012,1.763,1.998-.075,1.013-.966,1.786-2.012,1.747Z" fill="#fff"/>
                <path d="M169.085,240.245c.031-1.165.749-1.974,1.759-1.979.95-.005,1.772.864,1.754,1.853-.018.995-1.486,2.349-2.471,2.282-.778-.053-1.081-.68-1.042-2.156Z" fill="#fff"/>
                <path d="M177.664,252.222c-1.037-.092-1.808-1.021-1.659-2.073.156-1.1.837-1.672,1.944-1.651,1.063.021,1.818.922,1.733,1.995-.084,1.063-.969,1.822-2.018,1.729Z" fill="#fff"/>
                <path d="M154.094,233.203c.994.106,1.77,1.093,1.665,2.117-.108,1.043-.93,1.718-1.953,1.603-1.037-.117-1.799-1.055-1.687-2.076.106-.969,1.036-1.743,1.975-1.643Z" fill="#fff"/>
                <path d="M140.086,256.03c.06-.972.931-1.769,1.892-1.734,1.009.038,1.812.987,1.714,2.027-.093.984-.978,1.739-1.943,1.658-.956-.081-1.723-.98-1.663-1.952Z" fill="#fff"/>
                <path d="M164.089,256.743c-.166.847-.72,1.407-1.729,1.374-.924-.03-1.717-.926-1.593-1.817.136-.982.768-1.508,1.75-1.503.91.004,1.66.915,1.572,1.946Z" fill="#fff"/>
                <path d="M125.883,271.666c-.603.388-1.172,1.02-1.816,1.108-.96.131-1.459-.647-1.428-1.567.032-.948.693-1.617,1.576-1.454.624.115,1.139.826,1.702,1.272l-.033.641Z" fill="#fff"/>
                <path d="M151.628,278.459c.872-.674,1.333-1.228,1.899-1.371.224-.056.939.783.971,1.246.056.819-.557,1.341-1.426,1.15-.385-.085-.702-.481-1.444-1.025Z" fill="#fff"/>
                <path d="M134.41,281.549c-.472-.804-.982-1.285-.916-1.668.07-.406.686-.717,1.064-1.07.34.39.926.765.95,1.173.023.39-.539.814-1.098,1.565Z" fill="#fff"/>
                <path d="M134.166,265.53c.442.742.913,1.179.859,1.538-.057.376-.617.676-.957,1.01-.344-.377-.893-.72-.964-1.142-.052-.311.521-.727,1.062-1.406Z" fill="#fff"/>
                <path d="M129.098,237.258c.466.793.953,1.255.877,1.592-.084.375-.653.815-1.064.877-.241.036-.822-.61-.82-.947.002-.387.479-.772,1.006-1.521Z" fill="#fff"/>
                <path d="M145.342,251.712c.771-.426,1.227-.884,1.569-.81.37.079.634.655.944,1.014-.364.311-.715.844-1.096.866-.346.02-.725-.516-1.417-1.07Z" fill="#fff"/>
                <path d="M154.138,250.287c.663-.423,1.058-.873,1.374-.822.334.053.831.591.819.899-.012.31-.547.804-.887.834-.318.028-.679-.447-1.305-.911Z" fill="#fff"/>
                <path d="M124.023,280.741c.674-.409,1.053-.82,1.399-.794.301.022.838.603.786.822-.09.376-.525.866-.875.921-.293.046-.674-.461-1.31-.948Z" fill="#fff"/>
                <path d="M121.334,273.863c-.692.406-1.103.841-1.422.782-.351-.066-.616-.586-.919-.909.333-.289.652-.783,1.005-.808.326-.023.688.455,1.336.936Z" fill="#fff"/>
                <path d="M177.542,266.552c.54-.328.95-.759,1.189-.679.348.117.573.601.85.928-.347.259-.677.684-1.045.719-.246.024-.544-.507-.993-.969Z" fill="#fff"/>
                <path d="M181.179,285.926c-.31-.603-.716-1.042-.622-1.296.125-.339.64-.534.987-.791.217.338.625.693.596,1.009-.029.314-.496.588-.96,1.079Z" fill="#fff"/>
                <path d="M136.393,270.718c.35.515.758.861.702,1.096-.08.338-.499.596-.772.888-.247-.311-.64-.601-.692-.942-.037-.242.386-.555.762-1.041Z" fill="#fff"/>
                <path d="M145.382,274.1c.33.506.657.801.677,1.114.012.193-.527.635-.672.58-.303-.115-.631-.455-.71-.763-.048-.187.352-.488.705-.931Z" fill="#fff"/>
              </g>
              <g>
                <path d="M190.164,226.424c.841.938.406,2.177-.251,2.603-.782.508-1.822.36-2.36-.371-.566-.77-.407-1.837.365-2.412.124-.093.263-.165.39-.254,1.071-.756,1.196-.727,1.856.434Z" fill="#fff"/>
                <path d="M163.547,231.094c.72-.447,1.66-.234,2.127.483.491.754.271,1.72-.494,2.171-.722.425-1.68.187-2.125-.528-.444-.712-.219-1.684.492-2.126Z" fill="#fff"/>
                <path d="M178.572,242.083c.607-.371,1.202-.194,1.643.489.425.658.247,1.511-.396,1.904-.625.382-1.435.175-1.822-.466-.406-.672-.166-1.474.575-1.927Z" fill="#fff"/>
                <path d="M187.516,245.636c-.633.368-1.4.173-1.754-.446-.35-.613-.134-1.392.487-1.754.672-.392,1.489-.212,1.841.405.354.621.105,1.4-.574,1.795Z" fill="#fff"/>
                <path d="M179.665,228.529c.603-.372,1.41-.19,1.785.402.38.601.193,1.399-.417,1.772-.619.379-1.391.203-1.776-.406-.389-.614-.21-1.386.408-1.768Z" fill="#fff"/>
                <path d="M199.464,234.126c.586-.334,1.351-.106,1.677.5.309.576.112,1.295-.45,1.634-.594.359-1.335.163-1.685-.445-.343-.596-.138-1.348.459-1.689Z" fill="#fff"/>
                <path d="M161.125,239.24c-.327-.582-.139-1.279.438-1.624.601-.359,1.34-.159,1.679.454.321.581.13,1.293-.438,1.63-.6.356-1.333.155-1.68-.461Z" fill="#fff"/>
                <path d="M195.387,240.368c-.55.312-1.213.146-1.487-.373-.284-.538-.077-1.27.443-1.568.535-.307,1.167-.135,1.479.402.322.555.136,1.215-.435,1.539Z" fill="#fff"/>
                <path d="M163.459,225.064c.155-.091.303-.201.467-.271.507-.216.93-.091,1.163.411.237.509.029.909-.448,1.153-.25.128-.54.174-.795.294-.467.222-.873.184-1.124-.291-.256-.485-.028-.837.415-1.082.113-.062.222-.13.333-.196-.004-.006-.007-.013-.011-.019Z" fill="#fff"/>
                <path d="M177.6,251.061c-.518.324-1.201.185-1.503-.307-.307-.498-.111-1.252.407-1.567.488-.297,1.208-.111,1.493.384.293.509.117,1.169-.396,1.49Z" fill="#fff"/>
                <path d="M178.948,212.816c-.364-.568-.282-1.189.2-1.519.453-.311,1.129-.161,1.442.318.314.482.051,1.607-.443,1.895-.39.227-.738.025-1.199-.694Z" fill="#fff"/>
                <path d="M186.944,215.766c-.526.293-1.197.098-1.467-.454-.282-.577-.142-1.073.395-1.422.516-.335,1.17-.148,1.478.392.305.536.127,1.187-.405,1.483Z" fill="#fff"/>
                <path d="M169.483,214.311c.51-.272,1.202-.052,1.484.473.287.534.112,1.125-.415,1.402-.534.281-1.204.079-1.482-.446-.264-.499-.07-1.171.412-1.428Z" fill="#fff"/>
                <path d="M170.186,229.789c-.287-.485-.129-1.149.343-1.444.495-.31,1.188-.116,1.479.414.275.501.096,1.15-.392,1.425-.484.272-1.143.09-1.43-.395Z" fill="#fff"/>
                <path d="M181.912,222.338c.195.46.112.907-.382,1.219-.452.286-1.123.114-1.353-.353-.253-.514-.122-.971.35-1.288.437-.293,1.092-.101,1.385.421Z" fill="#fff"/>
                <path d="M168.461,241.887c-.163.382-.23.869-.51,1.12-.417.374-.909.164-1.192-.287-.292-.464-.193-.999.282-1.208.336-.147.814.026,1.228.056l.192.318Z" fill="#fff"/>
                <path d="M182.995,236.782c.199-.606.24-1.021.464-1.273.089-.1.704.07.869.282.293.374.168.823-.31,1.013-.212.084-.492-.002-1.024-.022Z" fill="#fff"/>
                <path d="M175.753,243.851c-.487-.232-.887-.297-.98-.501-.098-.217.096-.566.162-.858.289.076.692.066.836.253.138.179.006.565-.018,1.106Z" fill="#fff"/>
                <path d="M170.436,236.26c.452.212.82.268.911.458.095.198-.076.524-.131.794-.287-.069-.661-.055-.832-.234-.126-.132.013-.517.052-1.018Z" fill="#fff"/>
                <path d="M158.83,224.367c.48.228.864.292.937.477.081.207-.048.602-.225.765-.104.096-.591-.025-.7-.187-.125-.186-.021-.525-.012-1.055Z" fill="#fff"/>
                <path d="M171.302,226.015c.231-.454.301-.822.488-.897.203-.082.516.108.781.179-.073.267-.068.637-.243.771-.159.122-.514-.012-1.026-.052Z" fill="#fff"/>
                <path d="M175.051,222.477c.18-.418.223-.761.391-.84.177-.083.59.013.684.165.095.152,0,.563-.154.687-.143.116-.471.006-.921-.013Z" fill="#fff"/>
                <path d="M170.517,246.836c.19-.415.238-.734.412-.835.151-.087.597.017.643.138.079.209.03.585-.12.725-.126.117-.472-.002-.935-.029Z" fill="#fff"/>
                <path d="M166.996,244.416c-.2.419-.255.761-.427.836-.189.082-.485-.081-.735-.137.066-.247.058-.587.219-.713.149-.117.477-.006.943.014Z" fill="#fff"/>
                <path d="M191.538,222.667c.152-.332.209-.672.349-.711.205-.057.469.102.708.169-.082.237-.102.547-.267.684-.11.091-.425-.066-.79-.142Z" fill="#fff"/>
                <path d="M199.569,230.764c-.344-.188-.681-.266-.719-.419-.05-.203.133-.463.216-.699.213.091.524.129.613.29.088.16-.047.443-.11.828Z" fill="#fff"/>
                <path d="M173.186,238.021c.335.133.642.166.692.297.071.188-.045.447-.082.676-.219-.069-.501-.08-.637-.227-.096-.104.005-.391.027-.746Z" fill="#fff"/>
                <path d="M178.589,236.722c.323.135.574.17.686.314.069.088-.046.475-.134.496-.183.043-.45-.013-.588-.135-.084-.074.01-.348.035-.675Z" fill="#fff"/>
              </g>
            </g>
          </g>
        </g>
      </g>
    </g>
  </g>
</svg>