<?xml version="1.0" encoding="UTF-8"?>
<svg xmlns="http://www.w3.org/2000/svg" width="300" height="300" xmlns:xlink="http://www.w3.org/1999/xlink" viewBox="0 0 300 300">
  <defs>
    <clipPath id="b">
      <path d="M126.772,270.147c-.714.568-1.284,1.023-1.977,1.575-.003-.058.007.152.018.393-3.196-.319-3.327-2.383-.098-2.884,1.266-.458,1.292-1.73,1.796-3.082-1.457.556-2.442.47-3.814.697.252.876.893.851,1.45,1.442-.481.508-1.165.591-1.771.508-.164-1.022-1.028-2.49.117-3.246,1.081-.446-.186-1.686-.567-2.013-.576.277-1.111.961-.617,1.595.308.467.508.864-.116,1.321-1.184,3.272-3.027-.469-4.858-1.096.043-.188.129-.569.249-1.096-1.736,1.039-.908-3.182-2.925-.821-1.624-1.05-2.16-4.844-4.273-4.346-.195.121-.721-.087-.862-.323-.793-2.584-3.2-3.697-4.05-6.08-.648-1.513-1.976-2.377-3.113-3.449-.105-.152-.742-.109-.861.057-.955,1.197-2.936.12-3.038-1.301-.305-.566-1.47-1.131-1.391-1.989-.993-1.138.043-1.066.753-1.648-.713-.298-.871-.891-.862-1.733.182-.805-1.666-2.151-.396-2.576,1.456-.278.308-1.173.293-2.22-.995,1.425-2.019,2.272-3.674,2.052-.749.61-1.209.199-1.709-.265-1.289-1.414-3.222.461-4.368,1.389.096-3.759-4.685.9-6.54,1.179-.045-1.293-1.546-2.313-2.535-1.037-2.249-.607-2.976-3.952-4.684-5.586-.354-1.535-2.399-1.151-2.496-2.62-.174-1.629-2.3-1.873-2.288-3.673-1.441-.59-1.123-2.543-2.161-3.441-1.784-2.289-6.496-5.151-5.755-8.104.894-.917,0-1.194-.607-1.76-.469-1.012-1.005-.044-1.776-.239,1.881-2.059-1.466-2.334,1.303-5.969.307-.896-.85-.648-1.11-.104-.689,1.234-1.677,1.063-2.634.934-.512-.549-.059-1.924-1.332-1.664-.087-.365-.174-.73-.265-1.114-1.241.3-1.93,1.597-.515,2.208-1.318,1.253-3.583,4.501-4.84,1.678-1.488.342-1.344-2.237-2.996-.947-.081-.699-.146-1.267-.22-1.908-.179.118-.405.268-.633.418-.357-.743-.386-1.794-1.555-1.625-.128-.956-.256-1.902-.401-2.984-.273.4-.459.674-.57.836-1.739-.398-2.103-2.224-3.029-3.533-.095.013-.19.027-.285.04-.063.335-.127.67-.19,1.006-.1-.005-.2-.01-.301-.014.267-3.392-2.866-4.422-3.859-7.278.268-1.007.296-1.422-.313-2.239-.385.414-.736.792-1.218,1.311-.78-.576-.39-2-1.553-1.698-.335-1.357-.028-2.349.869-3.26-.982-1.094,1.552-3.478-.432-3.648-.108.467-.211.908-.313,1.349h-.215c.026-1.112.053-2.223.084-3.524,2.431,1.178,2.282-2.245,2.499-3.943-.967.712-1.639,2.005-2.82,1.039.176.3.352.6.614,1.048-.519.131-.969.245-1.271.321-.347-1.909.465-3.139,1.711-4.501.127.086.294.199.395.268,2.901-4.637,5.805-9.825,10.004-13.792-1.101-.897-1.671-2.744-.22-3.567.661.055,1.365.339,1.709.081.63-.781,1.133-1.841-.331-2.352-.007-1.37,1.816-2.873.508-4.08-.762-.851-.499-2.634-1.967-2.737-1.541-.467-2.351.923-3.668,1.337-1.282-.241-1.534,1.02-2.196,1.866-.778-.443-1.737-.572-2.254-1.223-.354-1.428-1.427-.995-2.579-1.251.279-.295.512-.541.756-.799-1.61-.454-1.243,1.18-.684,1.971-.347.287-.659.544-1.161.959-.146-.998.719-2.27-.491-2.696-2.003-.024-2.094-3.775-4.13-2.353.013-.316.026-.622.039-.933-1.119-.022-1.15-.978-1.739-1.663-2.298-1.886-1.623-1.258-2.3-3.981-.202.134-.39.26-.632.421-.647-.984-1.563-1.132-1.856-2.568-1.328-2.881-5.346-3.058-7.079-5.386-.585.083-1.041.148-1.601.228,1.383-2.045.167-3.317.285-5.289.802-1.974,1.602-3.943,2.4-5.907l.357.032c-.084.989-.167,1.98-.27,3.197.814-.916.531-1.853.959-2.706.183.12.335.22.487.32.067-.034.134-.067.201-.101.024-1.515-1.858-.945-.615-2.467,8.097-15.249,14.395-31.292,23.079-46.174.452-.861.735-1.603,1.645-.565,1.744.56,1.811-2.35,3.56-2.194.431-.026.743-1.269.438-1.892-.072.32-.123.543-.188.83-.996.023-1.962.045-2.946.068.288-2.054,2.598-2.155,4.1-1.523,1.683-2.489,2.304-6.224,5.744-6.788-.14-.172-.266-.327-.539-.662,2.52-.59,4.58,2.546,6.67,1.905.44-.39.743-.297.818.309-.216.079-.43.157-.716.261,4.26,1.531,8.617,5.253,12.519,6.025.919,2.415,2.378-.584,3.433-1.49.519-.833,1.393-.071,2.021-.601,8.953-9.038,16.928-19.513,26.772-26.991.548-.009,1.596.235,1.946.822,1.848,1.277,2.466-3.795,6.841,1.161.667,1.147,2.425-.463,2.708,1.046.282,1.139,1.689,1.087,2.207,2.067,1.786,1.081,2.565,3.146,4.737,3.803.689.392.8.85,1.497-.017.118,1.414.309,1.516,1.399.76.079.407.154.792.229,1.178l1.123-.477c-.465,6.943,24.591-23.986,27.83-25.766,1.614.353-.188,1.261.697,2.163.504.143.961-.691,1.338-.89,1.676-.328-.022,1.919,1.229,2.224.722.181.831,1.901,1.677.962.181.363.422.654.47.981.121.87,1.498.81,1.687.114.111-.926-.632-2.356.922-2.128.695.044.417,1.093.954,1.37-.252.402-.445.71-.638,1.018.435.124.871.249,1.436.41-.455,1.116-.409,1.297.704,1.757.236,1.007,1.231,1.468,1.973,2.04.853.704,1.654,2.045,3.013,1.97-.367,1.39,1.423.545,2.121.967-1.036.973-.927,1.293.14,1.928-.026.064-.052.129-.078.193-.473-.052-.945-.105-1.599-.177.27.731,1.157.622.746,1.475-.068.73,1.223.916,1.837.424-.165.316-.264.505-.399.765.57-.039.209,1.014.965.708.422-.171.76-.545,1.101-.949-1.081.652-1.342-.397-.403-.954,1.362.035,2.055-.861,2.827-1.742,1.164-1.315,2.162-2.092,3.896-1.315.42.365.792.737,1.358.086,1.024.926,2.01,1.817,2.997,2.709.08-.067.161-.134.241-.2-.201-.332-.402-.663-.707-1.165,1.923,1.296,3.917-1.03,5.357.406.242,1.625,1.152,2.489,2.362,3.451,1.077.962.459,2.642,1.638,3.51.591.438.42,1.541,1.363.95,1.136-.803,2.064,1.302,1.41,2.168.424.081.745.143,1.018.195-.349.427-.657.804-.966,1.18.601.262-.509,1.372.736,1.339.079-.234.163-.483.242-.715.997.668,2.299,1.187,1.222,2.566.322.045.606.085.957.133-.052.234-.096.434-.112.508.399.361.738.669,1.123,1.017-.197.249-.374.474-.652.826.998-.259,1.849-.481,2.782-.723.017.314.026.498.036.679,2.534.548.472,4.428.011,6.054.081.056.162.112.243.169,1.616-1.377,2.453-3.491,3.878-5.066.083.048.165.097.248.145-.384.974-.893,1.909-1.079,2.947,1.031-.032,1.49-.808,2.019-1.568,3.259,2.237,14.631-18.5,13.479-7.991.094.03.189.059.283.089,1.094-2.144,4.509-2.623,4.519.402-.096.89.735.556,1.293.499.593-.139.81.106.812.662-.08,1.962,4.51.524,3.973,3.236,2.144-.457,1.241,2.226,2.864,2.406.605-.004,1.21.372,1.837.587-.225.485-.433.934-.678,1.461,5.02.996,1.101.777,3.501,2.933,4.404,2.295.161,6.216-.403,9.674.089.041.178.082.266.123-.185.117-.369.233-.605.382.059.154.126.329.196.511-1.449.027-.687,1.274-1.387,2.138-.349.477-.522.808.079,1.218.73.849.617,2.264.918,3.296-.073-.059-.231-.188-.271-.221-.656,1.441.088,2.991-1.8,3.481-.204.757-.278,1.634-1.183,2.076-.315-.334-.584-.62-.852-.905-.137-.009-.274-.017-.41-.026.293,2.122-.855,3.447-1.799,5.239,1.242.98,3,.811,3.902,1.869.136.202.265.614.366.604,1.437-.079,1.729,1.318,2.679,1.994.643-.661,1.245-1.281,1.864-1.918.26.187.466.335.672.483.052-.03.105-.061.157-.091l-.428-.924c1.562-3.164,1.703.665,2.812-1.18.475.196-.208,1.169.688.926.129-.035.115-.591.193-1.067,1.148-.008,1.437,1.548,2.789.384.073.773.039,1.143.215,1.756,1.685-.842,3.335-2.183,4.895-3.547,1.023-1.326,1.915-1.908,3.486-.744-.475.142-.748.223-1.02.305-.005.067-.011.135-.016.202.378.068.756.137,1.195.217.034-.181.063-.334.1-.528,1.723.228.025,1.229,1.078,1.799.134-.204.256-.391.296-.453,1.868.37,1.023-1.643.979-2.751l.204-.01c1.293,1.101,1.019,3.405,2.372,4.092.478.042.83.144,1.165.502,1.443.824.727-1.53,1.45-1.887.825-.061,1.284.754,1.73,1.415-.65,1.95,2.239,2.847,3.33,4.16-1.55-.417-2.332-.086-.804,1.442.229-.349.361-.551.594-.905.361.657.506,1.139,1.073,1.535.326-.601.054-1.047-.141-1.632.68.197,1.275.399.869,1.299.351,2.153,4.294-.792,3.39,2.185.898-.303,3.057.317,1.793,1.39-.131.095-.137.605-.006.756.169.194.628.381.795.285.865-.523,1.285.614,1.879,1.035,1.081,1.873-1.129,3.834-.969,5.528,1.202.529-.36,2.016-1.067.878-.308.414-.488.762.194.862,1.616,1.818-2.468,6.466-3.68,8.628.365-.107.59-.173.909-.267.159.618,1.012,1.706-.01,1.987-.745.554-.263,1.555-.229,2.5.289.015,1.168-.414,1.404-.381.598.516,1.12.261,1.637-.051.559-.337.696-.053.782.465.801,2.367,1.179,4.776,2.081,7.035.296,1.29.714,3.393,2.176,3.714.357.969,1.887,1.054,1.624,2.511,2.597-.272,2.122,3.134,2.166,4.769,2.929,1.423-1.903,4.927-2.06,7.046-1.368,1.049-1.719,3.218-2.761,3.844-.552.332.13,1.785-.94,1.65-.796.839-1.221,1.956-2.062,3.186,3.359.425,6.449.815,9.532,1.205.032,1.666.885.365,1.742,1.274-.463.32-.798.55-1.11.766,1.152,1.211,1.958,3.802.022,4.516-1.213-.421-.742.496-.819,1.117.542-.177.997-.326,1.52-.497.973,1.168-1.798,1.906-.43,3.306.013,5.671-9.282,6.554-2.154,13.149-.601.93.805,1.579.35,2.49-.864,1.241-.557,2.496,1.028,2.77.031-.119.095-.368.163-.633,1.014.619,2.481,4.084,2.35,5.432.203-.031.46-.071.716-.111-.01.096-.021.192-.031.288-.183.196-.365.393-.548.59.022.092.044.183.066.275.393-.066.786-.133,1.324-.224-.604.681-.237,2.147-1.186,2.219-.146-.009-.301.289-.452.446.707.611,1.519-.008,2.306-.16.039.066.079.131.118.197-3.126,4.171-9.064,6.455-10.856,11.429-.128,1.576-.41.812-1.467,1.079.511.307,1.427.88.622,1.38-.764.446.062,1.168-.253,1.875-.087.003-.174.006-.261.009-.122-.197-.243-.393-.517-.836-2.745,9.891-14.735,10.7-21.933,16.161-4.721,4.006-9.465,8.241-14.742,11.416-1.032,1.679-4.844,4.864-6.137,2.157.234-.101.458-.199.914-.396-.521-.325-.863-.539-1.347-.841.147,1.114-.969,3.195-.613,1.098-1.212-.582-.148-1.97-.78-3.19-.401.884-.706,1.557-1.011,2.231-1.428-.731-.155-3.632-1.829-3.831-.673,1.024-1.157.594-1.616-.31-.299.539-.537.97-.797,1.437-3.272-3.432-9.814,6.669-13.382,6.068-1.938.182-3.462,3.741-5.535,2.824-8.971-2.229-27.887,23.203-33.172,18.759.277-.119.533-.228,1.027-.44-.491-.356-.823-.597-1.214-.881-1.253,2.454-1.359-.662-1.252-1.807-.098-.031-.197-.062-.295-.093-.366.652-.732,1.305-1.092,1.947-1.624-.22.047-4.78-1.789-3.836-.899,1.306-.917.067-1.661-.321-.179.432-.346.837-.504,1.219-2.082-1.718-4.408.854-6.83.32-.817.38-2.702,1.194-2.44-.602.711-.752,1.476-3.949-.374-3.102-.693-1.096-.614-1.406.383-1.632-.13-1.436-.512-1.982-1.573-.714.167-2.383-1.748-3.383-1.153-5.508.157-.534-.429-1.418-.268-1.963.769-1.473-.333-2.133-.906-3.004-1.931-.74-2.614-2.2-3.516-4.067-.659.517-1.34,1.051-2.08,1.631.027-.286.049-.514.074-.772-2.134.455-.86,2.028-2.308,3.424-.48-2.06,1.266-3.471,1.159-5.483-7.491,8.85-14.265,20.34-21.905,27.933ZM281.647,165.413c.861.91-.177,1.368.871,1.808.243-.854,1.473-1.293.613-2.462l-.624.31-.413-.196c.221-.269.443-.537.662-.803-1.404-1.639-1.201.322-1.109,1.344ZM33.541,183.748c-.44.598-.881,1.197-1.321,1.794.416.232.892.496,1.372.764.972-1.015.967-1.809-.051-2.558ZM282.421,173.251c-.222-.095-.444-.189-.666-.284.342-.493.685-.986.992-1.43-.25-.17-.55-.375-.848-.578q-.56.478.02,1.052c-.282.189-.563.377-.843.564-.009.121-.018.242-.026.363.457.104.914.208,1.372.313ZM280.446,162.308c-.318.619-.555,1.08-.89,1.733,1.061-.275,2.309-1.141.89-1.733ZM230.913,89.214c-.07.023-.14.046-.21.069-.088.634-.176,1.268-.273,1.965l.902-.413c-.137-.532-.278-1.077-.419-1.622ZM179.677,43.765c-.848.503-.866.792-.101,1.425.035-.491.064-.905.101-1.425ZM38.809,78.717c.649.155,1.027.174,1.063-.485-.428-.544-.687.017-1.063.485ZM31.936,191.013c-.467.934-.379,1.117.477,1.239-.178-.463-.328-.851-.477-1.239ZM281.27,169.697c.154.012.308.025.462.037.005-.409.011-.818.016-1.226-.12-.01-.24-.02-.36-.03-.039.406-.079.812-.118,1.218ZM76.359,239.142c-.032.385-.064.77-.106,1.275.927-.494.838-.89.106-1.275Z" fill="none"/>
    </clipPath>
    <linearGradient id="c" data-name="Dégradé sans nom 13" x1="148.843" y1="67.007" x2="148.843" y2="252.017" gradientUnits="userSpaceOnUse">
      <stop offset="0" stop-color="#ffd66e"/>
      <stop offset="1" stop-color="#e86170"/>
    </linearGradient>
    <clipPath id="d">
      <path d="M-263.223-116.711v376.338c5.503,1.019,11.569,1.588,17.95,1.588,14.78,0,27.869-3.037,36.151-7.715.401-.017.802-.036,1.202-.053,4.462,4.709,11.542,7.768,19.54,7.768s15.084-3.062,19.546-7.774c5.694,4.712,14.733,7.774,24.944,7.774,8.415,0,16.036-2.079,21.65-5.444,6.556,3.365,15.458,5.444,25.285,5.444,8.47,0,16.244-1.551,22.433-4.13,1.523,2.578,3.435,4.13,5.519,4.13,2.053,0,3.938-1.508,5.45-4.018,6.144,2.51,13.809,4.018,22.153,4.018,10.911,0,20.675-2.564,27.356-6.607,5.72,4.043,14.081,6.607,23.423,6.607,8.667,0,16.505-2.199,22.161-5.743,6.605,3.545,15.759,5.743,25.881,5.743.448,0,.871-.049,1.313-.06.897.023,1.786.06,2.697.06,14.78,0,27.869-3.037,36.151-7.715.401-.017.802-.036,1.202-.053,4.462,4.709,11.542,7.768,19.54,7.768s15.084-3.062,19.546-7.774c5.694,4.712,14.733,7.774,24.944,7.774,8.415,0,16.036-2.079,21.65-5.444,6.556,3.365,15.458,5.444,25.285,5.444,8.47,0,16.244-1.551,22.433-4.13,1.523,2.578,3.435,4.13,5.519,4.13,2.053,0,3.938-1.508,5.45-4.018,6.144,2.51,13.809,4.018,22.153,4.018,10.911,0,20.675-2.564,27.356-6.607,5.72,4.043,14.081,6.607,23.423,6.607,8.667,0,16.505-2.199,22.161-5.743,6.605,3.545,15.759,5.743,25.881,5.743,1.811,0,3.572-.105,5.31-.242V-116.711H-263.223Z" fill="none"/>
    </clipPath>
    <filter id="e" data-name="drop-shadow-4" x="-203.996" y="36.175" width="506.6" height="266.076" filterUnits="userSpaceOnUse">
      <feOffset dx="-6" dy="0"/>
      <feGaussianBlur result="f" stdDeviation="0"/>
      <feFlood flood-color="#42496f" flood-opacity="1"/>
      <feComposite in2="f" operator="in"/>
      <feComposite in="SourceGraphic"/>
    </filter>
    <clipPath id="g">
      <path d="M255.26,116.905s-2.989,64.26-54.351,105.556c-4.627,26.375-48.123,69.408-48.123,69.408H-94.306s13.419-101.985-82.364-148.626l6.478-41.343,129.561,11.09,5.553,15.501s199.858-.073,290.337-11.585Z" fill="none"/>
    </clipPath>
  </defs>
  <g isolation="isolate">
    <g id="a" data-name="bateau 09">
      <g clip-path="url(#b)">
        <rect x="5.286" y="7.067" width="287.116" height="269.478" fill="url(#c)"/>
        <path d="M227.443,216.865c-5.194-1.843-16.551,4.2-28.315,12.119.808-2.258,1.416-4.443,1.781-6.523,51.362-41.296,54.351-105.556,54.351-105.556-90.48,11.512-290.337,11.585-290.337,11.585l-5.553-15.501-1.527-.131.928-19.976,8.359.388c1.288-27.702-6.126-50.674-16.675-52.294l.002-.055-.829-.038s.002,0,.003,0c0,0-.002,0-.003,0h-.002s.002,0,.002,0l-101.127-4.7h-.001c-10.988-.51-20.965,22.115-22.286,50.537l8.359.389-.704,15.138-4.06-.347-6.478,41.343c25.464,12.4,43.209,28.711,55.541,45.978.442,4.46.612,10.15-.168,16.351.002.004.004.009.005.013-1.987,15.775-10.126,34.843-35.579,45.317v32.343l53.136-2.121-5.137-71.085c19.86,41.523,14.565,81.83,14.565,81.83h247.092s5.887-5.826,13.557-14.499c6.295,3.194,12.946,6.994,15.394,4.44.89-.929,1.339-2.183,1.587-3.581l11.484,3.592s3.809-5.09,8.515-12.125l.84.263s36.282-48.479,23.281-53.093Z" fill="none" stroke="#fff" stroke-linecap="round" stroke-linejoin="round" stroke-width="20"/>
        <g>
          <g clip-path="url(#d)">
            <g>
              <path d="M204.162,269.957s36.282-48.479,23.281-53.093c-13.002-4.613-64.605,40.166-64.605,40.166l41.324,12.927Z" fill="#fff"/>
              <path d="M194.808,281.82s36.282-48.479,23.281-53.093c-13.002-4.613-64.605,40.166-64.605,40.166l41.324,12.927Z" fill="#9bc8ec"/>
              <g>
                <path d="M225.569,256.667c-1.654.434-2.881-.86-2.988-1.917-.128-1.26.695-2.424,1.911-2.62,1.281-.206,2.471.648,2.687,1.937.035.207.036.42.065.629.249,1.762.136,1.895-1.675,1.972Z" fill="#fff"/>
                <path d="M236.437,221.627c.094,1.147-.747,2.15-1.902,2.27-1.215.126-2.246-.739-2.315-1.943-.065-1.135.816-2.145,1.955-2.239,1.136-.094,2.17.78,2.262,1.912Z" fill="#fff"/>
                <path d="M213.848,232.956c.072.963-.512,1.572-1.61,1.681-1.057.105-1.978-.639-2.054-1.659-.074-.991.679-1.841,1.693-1.911,1.063-.073,1.884.714,1.971,1.889Z" fill="#fff"/>
                <path d="M204.01,241.554c-.052-.993.659-1.799,1.626-1.841.958-.042,1.764.702,1.816,1.676.056,1.054-.668,1.929-1.631,1.971-.969.043-1.756-.741-1.812-1.806Z" fill="#fff"/>
                <path d="M229.538,242.682c.075.959-.645,1.821-1.592,1.906-.961.087-1.809-.635-1.881-1.602-.074-.983.618-1.806,1.592-1.893.983-.089,1.805.606,1.881,1.589Z" fill="#fff"/>
                <path d="M210.5,263.121c.04.914-.71,1.698-1.643,1.715-.888.016-1.633-.668-1.694-1.557-.065-.94.63-1.713,1.582-1.759.932-.045,1.714.669,1.755,1.601Z" fill="#fff"/>
                <path d="M228.102,213.65c.906-.035,1.631.625,1.689,1.536.06.949-.639,1.717-1.59,1.746-.901.028-1.643-.645-1.697-1.539-.058-.945.64-1.706,1.598-1.743Z" fill="#fff"/>
                <path d="M205.49,254.326c-.036-.857.576-1.556,1.373-1.565.825-.009,1.581.695,1.619,1.507.039.836-.561,1.494-1.403,1.537-.87.045-1.551-.59-1.589-1.48Z" fill="#fff"/>
                <path d="M243.774,225.261c.014.244.055.49.037.732-.054.746-.466,1.179-1.218,1.15-.762-.03-1.116-.528-1.114-1.257,0-.381.125-.76.137-1.142.022-.702.319-1.169,1.049-1.177.744-.008,1.028.485,1.049,1.172.005.175.02.349.03.524.01,0,.02-.001.03-.002Z" fill="#fff"/>
                <path d="M203.608,226.214c-.07-.826.522-1.565,1.303-1.626.791-.062,1.581.643,1.641,1.464.056.773-.615,1.528-1.39,1.564-.797.037-1.484-.583-1.553-1.402Z" fill="#fff"/>
                <path d="M248.958,251.562c.912-.087,1.61.397,1.71,1.183.094.74-.505,1.464-1.278,1.544-.777.08-1.973-.935-2.014-1.71-.032-.612.427-.908,1.582-1.018Z" fill="#fff"/>
                <path d="M240.437,259.389c-.027-.817.624-1.507,1.459-1.491.872.017,1.383.494,1.472,1.359.085.831-.546,1.505-1.39,1.541-.837.036-1.512-.582-1.54-1.409Z" fill="#fff"/>
                <path d="M253.024,239.205c.012.785-.684,1.484-1.492,1.499-.823.015-1.428-.562-1.435-1.37-.007-.819.651-1.503,1.458-1.513.766-.01,1.458.642,1.469,1.384Z" fill="#fff"/>
                <path d="M233.896,230.455c.763-.046,1.468.557,1.531,1.31.067.79-.597,1.507-1.418,1.529-.776.021-1.449-.597-1.477-1.357-.028-.753.6-1.436,1.363-1.482Z" fill="#fff"/>
                <path d="M235.622,249.236c-.676-.049-1.165-.428-1.236-1.218-.064-.723.558-1.426,1.265-1.415.778.013,1.249.455,1.338,1.221.083.71-.556,1.381-1.368,1.411Z" fill="#fff"/>
                <path d="M220.355,220.868c-.36-.433-.906-.817-1.036-1.311-.193-.736.366-1.199,1.086-1.262.742-.065,1.326.387,1.283,1.09-.031.498-.536.966-.83,1.448l-.503.035Z" fill="#fff"/>
                <path d="M217.507,241.585c.609.616,1.085.923,1.249,1.35.065.169-.521.806-.879.875-.633.122-1.098-.307-1.032-1.002.029-.308.308-.593.662-1.223Z" fill="#fff"/>
                <path d="M213.461,228.456c.582-.444.909-.888,1.213-.873.323.016.624.467.935.728-.271.302-.508.794-.824.852-.302.055-.686-.343-1.324-.707Z" fill="#fff"/>
                <path d="M225.926,226.742c-.536.415-.833.824-1.118.816-.299-.008-.586-.417-.878-.65.261-.304.476-.765.799-.86.238-.07.617.337,1.197.694Z" fill="#fff"/>
                <path d="M247.486,220.103c-.574.438-.888.862-1.158.835-.3-.03-.698-.432-.785-.746-.051-.184.398-.699.66-.729.302-.035.647.3,1.282.64Z" fill="#fff"/>
                <path d="M237.761,234.142c.405.561.806.873.781,1.146-.027.296-.45.557-.701.832-.277-.254-.726-.477-.78-.772-.049-.268.334-.614.699-1.207Z" fill="#fff"/>
                <path d="M239.709,240.864c.393.477.781.742.772.993-.01.266-.382.704-.623.724-.243.02-.679-.35-.735-.612-.052-.245.284-.572.586-1.104Z" fill="#fff"/>
                <path d="M213.103,220.281c.383.487.739.743.752,1.015.011.237-.391.711-.566.691-.301-.034-.725-.327-.801-.595-.064-.224.295-.569.615-1.111Z" fill="#fff"/>
                <path d="M218.21,217.53c-.382-.501-.761-.78-.745-1.034.018-.28.399-.536.621-.803.257.232.672.434.726.706.049.252-.289.58-.602,1.13Z" fill="#fff"/>
                <path d="M229.253,260.657c.307.39.682.669.642.862-.058.282-.414.504-.643.751-.235-.246-.598-.463-.66-.747-.042-.189.344-.473.661-.866Z" fill="#fff"/>
                <path d="M214.494,265.334c.44-.299.744-.657.952-.608.276.065.477.448.711.694-.243.201-.481.553-.73.56-.248.007-.505-.331-.932-.646Z" fill="#fff"/>
                <path d="M222.094,228.972c-.368.322-.599.673-.787.652-.271-.03-.512-.332-.766-.518.219-.222.408-.556.669-.629.185-.052.469.248.884.495Z" fill="#fff"/>
                <path d="M220.311,236.301c-.363.306-.562.588-.805.634-.149.028-.545-.351-.516-.469.061-.247.295-.535.528-.626.141-.055.414.228.793.461Z" fill="#fff"/>
              </g>
            </g>
            <g filter="url(#e)">
              <path d="M255.26,116.905s-2.989,64.26-54.351,105.556c-4.627,26.375-48.123,69.408-48.123,69.408H-94.306s13.419-101.985-82.364-148.626l6.478-41.343,129.561,11.09,5.553,15.501s199.858-.073,290.337-11.585Z" fill="#ffd66e"/>
              <g clip-path="url(#g)">
                <g>
                  <path d="M-197.796,136.9s219.861,25.007,500.185-9.174" fill="none" stroke="#fff" stroke-miterlimit="10" stroke-width="3.55"/>
                  <path d="M-197.796,157.646s219.861,25.007,500.185-9.174" fill="none" stroke="#fff" stroke-miterlimit="10" stroke-width="3.55"/>
                  <path d="M-197.796,178.392s219.861,25.007,500.185-9.174" fill="none" stroke="#fff" stroke-miterlimit="10" stroke-width="3.55"/>
                  <path d="M-197.796,199.137s219.861,25.007,500.185-9.174" fill="none" stroke="#fff" stroke-miterlimit="10" stroke-width="3.55"/>
                  <path d="M-197.796,219.883s219.861,25.007,500.185-9.174" fill="none" stroke="#fff" stroke-miterlimit="10" stroke-width="3.55"/>
                  <path d="M-197.796,240.629s219.861,25.007,500.185-9.174" fill="none" stroke="#fff" stroke-miterlimit="10" stroke-width="3.55"/>
                </g>
                <path d="M139.837,302.251s42.114-40.124,53.72-82.237c25.202-22.881,39.129-67.979,39.129-67.979,0,0-212.889,77.927-372.39,6.632,0,0,81.885,35.545,46.424,141.926-.332.995,233.117,1.658,233.117,1.658Z" fill="#f4af13" mix-blend-mode="multiply" opacity=".5"/>
              </g>
            </g>
          </g>
          <g>
            <path d="M196.091,266.879s-27.861-76.351-52.623-58.954c-7.004,4.921,11.371,44.099,11.371,44.099,0,0-24.459-11.881-26.414-1.676-1.955,10.205-11.363,18.149-30.179,14.386-18.816-3.763,53.104,22.815,54.776,12.139,1.673-10.676,23.768,10.095,28.714,4.937,4.946-5.159-3.626-20.311,14.354-14.93Z" fill="#9bc8ec"/>
            <path d="M186.103,255.83c.895-16.515-24.539-60.916-42.635-47.905-11.913,8.566,8.393,33.81,11.371,44.099-15.114-8.726-32.779-9.745-37.507-4.873-4.728,4.871,8.719,6.942,5.018,11.371s-38.445,4.519-38.445,4.519c0,0,39.83,14.09,51.11,9.147,7.107-3.114-4.316-13.248,1.983-15.452,15.745-5.509,29.961,22.968,41.996,19.907,7.131-1.814-10.313-24.724-5.711-26.619,4.603-1.895,12.819,5.807,12.819,5.807Z" fill="#fff"/>
            <g>
              <g>
                <path d="M83.532,256.372c1.039.583,1.028,1.824.571,2.406-.545.694-1.521.879-2.225.389-.742-.516-.925-1.52-.411-2.27.083-.121.185-.228.271-.347.727-1.004.848-1.016,1.794-.179Z" fill="#fff"/>
                <path d="M61.138,268.684c.508-.621,1.414-.717,2.051-.218.67.524.768,1.457.221,2.094-.516.601-1.446.68-2.063.177-.615-.502-.71-1.441-.209-2.053Z" fill="#fff"/>
                <path d="M77.942,273.928c.43-.517,1.017-.541,1.62-.064.581.459.683,1.277.227,1.825-.442.533-1.231.595-1.773.14-.568-.477-.599-1.269-.075-1.9Z" fill="#fff"/>
                <path d="M87.032,274.375c-.454.523-1.2.583-1.706.137-.501-.442-.545-1.205-.1-1.719.481-.556,1.267-.644,1.771-.2.507.447.522,1.221.035,1.782Z" fill="#fff"/>
                <path d="M74.779,261.464c.426-.517,1.204-.601,1.72-.186.524.422.6,1.193.169,1.713-.438.529-1.183.606-1.714.179-.535-.431-.612-1.176-.175-1.707Z" fill="#fff"/>
                <path d="M94.208,260.423c.422-.478,1.177-.508,1.653-.065.453.421.495,1.124.096,1.6-.422.503-1.144.554-1.644.117-.489-.428-.536-1.164-.106-1.651Z" fill="#fff"/>
                <path d="M61.46,276.714c-.471-.421-.515-1.102-.104-1.587.429-.505,1.151-.552,1.641-.106.465.422.512,1.118.106,1.593-.428.502-1.146.546-1.644.101Z" fill="#fff"/>
                <path d="M92.467,267.256c-.396.447-1.041.501-1.445.121-.418-.394-.457-1.113-.083-1.539.385-.438,1.003-.478,1.447-.092.458.398.493,1.046.081,1.51Z" fill="#fff"/>
                <path d="M59.217,263.314c.111-.129.21-.272.335-.385.388-.348.804-.366,1.167.013.367.383.304.805-.049,1.169-.185.19-.431.32-.621.506-.351.341-.725.432-1.095.083-.377-.356-.281-.74.041-1.095.082-.09.159-.185.239-.277-.005-.004-.01-.009-.016-.013Z" fill="#fff"/>
                <path d="M79.815,282.259c-.364.448-1.018.532-1.439.185-.427-.352-.482-1.087-.115-1.527.346-.415,1.047-.469,1.453-.112.418.366.462,1.01.101,1.454Z" fill="#fff"/>
                <path d="M69.337,247.62c-.499-.397-.616-.978-.285-1.42.311-.416.961-.49,1.387-.156.429.336.537,1.423.183,1.831-.28.322-.653.248-1.285-.255Z" fill="#fff"/>
                <path d="M77.394,247.817c-.381.423-1.041.454-1.452.042-.429-.43-.455-.916-.081-1.393.359-.458,1.001-.49,1.442-.1.437.387.477,1.023.091,1.451Z" fill="#fff"/>
                <path d="M61.323,251.849c.374-.4,1.06-.413,1.473-.03.42.39.444.972.057,1.381-.393.414-1.053.438-1.463.053-.389-.366-.42-1.027-.067-1.404Z" fill="#fff"/>
                <path d="M66.681,265.487c-.405-.346-.466-.989-.134-1.398.349-.429,1.028-.466,1.45-.081.399.365.438,1,.084,1.395-.35.391-.995.43-1.4.084Z" fill="#fff"/>
                <path d="M74.898,255.236c.315.352.378.778.031,1.208-.317.394-.97.445-1.318.097-.384-.383-.406-.832-.08-1.259.302-.396.947-.424,1.368-.046Z" fill="#fff"/>
                <path d="M68.834,276.841c-.029.391.059.848-.114,1.158-.259.462-.763.424-1.155.108-.404-.326-.478-.835-.116-1.167.256-.235.736-.225,1.116-.325l.269.226Z" fill="#fff"/>
                <path d="M80.281,267.832c-.007-.603-.097-.987.026-1.281.049-.116.651-.152.864-.014.376.245.402.685.033,1.001-.164.14-.441.148-.923.293Z" fill="#fff"/>
                <path d="M75.96,276.371c-.507-.059-.885.006-1.03-.149-.154-.164-.087-.536-.117-.817.282-.02.639-.153.825-.029.178.118.178.504.322.995Z" fill="#fff"/>
                <path d="M68.882,271.202c.47.051.816-.011.955.131.146.149.092.492.126.751-.278.026-.608.153-.816.045-.153-.08-.146-.467-.264-.927Z" fill="#fff"/>
                <path d="M54.862,264.104c.5.058.862-.003.984.141.136.16.141.554.033.753-.064.117-.537.158-.684.046-.168-.128-.179-.463-.333-.941Z" fill="#fff"/>
                <path d="M66.527,261.769c.068-.477.018-.827.163-.952.157-.136.495-.061.754-.079.016.261.133.591.018.764-.105.158-.464.146-.934.267Z" fill="#fff"/>
                <path d="M68.801,257.457c.034-.429-.033-.75.093-.871.133-.129.532-.168.663-.061.131.107.171.504.072.662-.092.148-.419.15-.828.27Z" fill="#fff"/>
                <path d="M72.186,280.643c.043-.429-.011-.73.114-.873.109-.124.54-.167.618-.073.134.163.205.514.114.686-.076.143-.423.143-.846.26Z" fill="#fff"/>
                <path d="M68.295,279.552c-.051.436.004.759-.127.879-.144.132-.459.076-.7.102-.017-.241-.127-.543-.022-.705.097-.15.425-.151.849-.275Z" fill="#fff"/>
                <path d="M83.615,252.59c.035-.344-.019-.665.095-.743.166-.114.451-.052.685-.065,0,.237.076.521-.03.694-.071.115-.401.071-.75.115Z" fill="#fff"/>
                <path d="M93.276,257.382c-.365-.063-.691-.03-.771-.155-.107-.166-.023-.455-.021-.692.219.017.509-.045.637.072.128.116.093.41.155.775Z" fill="#fff"/>
                <path d="M71.881,271.938c.34.017.626-.048.71.054.121.146.096.414.133.63-.217.005-.473.082-.639-.008-.118-.064-.115-.351-.204-.676Z" fill="#fff"/>
                <path d="M76.319,269.125c.33.022.566-.023.71.071.088.058.104.44.032.485-.15.094-.407.126-.567.059-.097-.041-.097-.315-.175-.615Z" fill="#fff"/>
              </g>
              <g>
                <path d="M146.405,256.089c.318,2.335-1.656,3.796-3.12,3.767-1.745-.035-3.2-1.355-3.265-3.051-.069-1.787,1.299-3.271,3.097-3.352.289-.013.581.022.871.016,2.451-.047,2.615.129,2.418,2.62Z" fill="#fff"/>
                <path d="M100.296,235.383c1.585.063,2.816,1.38,2.787,2.98-.03,1.683-1.386,2.948-3.044,2.842-1.564-.1-2.797-1.474-2.736-3.047.061-1.569,1.429-2.837,2.992-2.775Z" fill="#fff"/>
                <path d="M112.024,268.166c1.328.062,2.065.962,2.031,2.482-.033,1.464-1.203,2.598-2.612,2.533-1.368-.064-2.405-1.235-2.331-2.634.077-1.466,1.29-2.457,2.912-2.381Z" fill="#fff"/>
                <path d="M122.142,283.054c-1.367-.094-2.35-1.202-2.247-2.531.102-1.317,1.254-2.296,2.595-2.205,1.451.099,2.527,1.235,2.424,2.56-.103,1.333-1.306,2.277-2.773,2.176Z" fill="#fff"/>
                <path d="M127.941,248.33c1.324.058,2.383,1.185,2.341,2.495-.042,1.329-1.169,2.368-2.505,2.306-1.356-.063-2.366-1.146-2.324-2.493.043-1.359,1.13-2.367,2.487-2.308Z" fill="#fff"/>
                <path d="M152.719,277.775c1.257.098,2.203,1.255,2.071,2.533-.126,1.217-1.186,2.121-2.412,2.057-1.296-.068-2.238-1.148-2.141-2.457.094-1.282,1.201-2.233,2.482-2.133Z" fill="#fff"/>
                <path d="M87.997,245.453c.104-1.244,1.127-2.126,2.383-2.054,1.307.076,2.241,1.16,2.123,2.466-.112,1.237-1.156,2.139-2.388,2.064-1.302-.079-2.227-1.16-2.117-2.476Z" fill="#fff"/>
                <path d="M139.855,283.16c-1.179-.093-2.032-1.048-1.911-2.138.125-1.13,1.214-2.046,2.331-1.963,1.15.086,1.949,1.016,1.868,2.175-.084,1.197-1.065,2.023-2.289,1.926Z" fill="#fff"/>
                <path d="M106.49,225.955c.336.021.68.007,1.008.071,1.011.199,1.535.834,1.369,1.857-.168,1.037-.909,1.438-1.905,1.315-.521-.065-1.019-.298-1.539-.378-.957-.147-1.545-.631-1.435-1.631.113-1.019.835-1.325,1.777-1.24.24.022.481.032.722.047,0-.014.002-.027.003-.041Z" fill="#fff"/>
                <path d="M101.096,281.045c-1.142-.042-2.053-.974-2.006-2.053.047-1.092,1.143-2.055,2.275-2,1.067.052,1.987,1.095,1.908,2.162-.082,1.096-1.045,1.932-2.177,1.891Z" fill="#fff"/>
                <path d="M143.324,223.25c.033-1.261.811-2.136,1.904-2.142,1.028-.005,1.918.935,1.898,2.006-.02,1.076-1.607,2.542-2.674,2.469-.842-.058-1.17-.736-1.128-2.333Z" fill="#fff"/>
                <path d="M152.608,236.21c-1.122-.099-1.957-1.104-1.795-2.243.169-1.19.906-1.81,2.104-1.786,1.151.023,1.967.998,1.875,2.158-.09,1.151-1.048,1.971-2.184,1.871Z" fill="#fff"/>
                <path d="M127.103,215.63c1.076.114,1.916,1.182,1.801,2.291-.116,1.128-1.007,1.859-2.113,1.734-1.122-.127-1.946-1.141-1.826-2.247.115-1.049,1.121-1.886,2.138-1.778Z" fill="#fff"/>
                <path d="M111.946,240.331c.065-1.051,1.007-1.915,2.047-1.876,1.092.041,1.961,1.068,1.855,2.194-.101,1.065-1.058,1.882-2.103,1.794-1.035-.087-1.864-1.06-1.799-2.112Z" fill="#fff"/>
                <path d="M137.918,241.102c-.18.917-.779,1.522-1.871,1.487-1-.032-1.858-1.002-1.724-1.966.148-1.062.831-1.632,1.893-1.627.985.005,1.797.99,1.701,2.106Z" fill="#fff"/>
                <path d="M96.577,257.25c-.652.42-1.269,1.103-1.965,1.199-1.038.142-1.579-.701-1.545-1.695.035-1.026.75-1.75,1.705-1.573.676.125,1.232.894,1.842,1.376l-.036.694Z" fill="#fff"/>
                <path d="M124.435,264.601c.944-.73,1.443-1.329,2.055-1.484.242-.061,1.016.847,1.05,1.349.061.886-.603,1.451-1.543,1.244-.417-.092-.76-.521-1.562-1.109Z" fill="#fff"/>
                <path d="M105.804,267.944c-.51-.87-1.062-1.391-.991-1.804.076-.439.743-.776,1.152-1.158.368.422,1.002.827,1.028,1.269.025.422-.583.881-1.188,1.693Z" fill="#fff"/>
                <path d="M105.54,250.611c.478.802.988,1.276.93,1.664-.061.407-.668.732-1.036,1.092-.372-.408-.966-.779-1.043-1.236-.056-.337.564-.787,1.149-1.521Z" fill="#fff"/>
                <path d="M100.055,220.018c.504.858,1.031,1.358.949,1.722-.091.406-.707.882-1.151.949-.261.039-.889-.66-.887-1.025.002-.419.519-.835,1.088-1.646Z" fill="#fff"/>
                <path d="M117.633,235.659c.834-.461,1.328-.956,1.698-.877.401.086.686.708,1.022,1.097-.394.336-.774.914-1.186.938-.375.022-.784-.559-1.534-1.158Z" fill="#fff"/>
                <path d="M127.151,234.117c.717-.458,1.145-.944,1.486-.89.362.057.899.64.886.973-.013.335-.592.87-.959.903-.344.03-.735-.484-1.413-.986Z" fill="#fff"/>
                <path d="M94.564,267.071c.729-.443,1.139-.887,1.514-.86.326.024.907.653.85.889-.097.406-.568.937-.947.996-.317.05-.729-.499-1.417-1.026Z" fill="#fff"/>
                <path d="M91.654,259.627c-.749.439-1.194.91-1.539.846-.379-.071-.667-.635-.994-.983.361-.313.706-.847,1.087-.875.353-.025.745.492,1.445,1.012Z" fill="#fff"/>
                <path d="M152.476,251.717c.584-.355,1.028-.821,1.286-.734.376.126.62.65.92,1.005-.375.28-.733.74-1.131.778-.266.026-.589-.549-1.074-1.048Z" fill="#fff"/>
                <path d="M156.411,272.681c-.335-.652-.775-1.127-.673-1.403.135-.367.692-.578,1.068-.856.234.366.676.75.645,1.092-.031.34-.537.636-1.039,1.167Z" fill="#fff"/>
                <path d="M107.949,256.224c.378.557.82.931.76,1.186-.087.366-.539.645-.836.961-.267-.337-.692-.65-.749-1.019-.04-.262.417-.6.825-1.127Z" fill="#fff"/>
                <path d="M117.676,259.884c.357.548.711.866.733,1.206.013.209-.57.687-.727.628-.328-.125-.683-.492-.768-.826-.052-.202.381-.528.763-1.008Z" fill="#fff"/>
              </g>
              <g>
                <path d="M166.083,208.34c.91,1.015.439,2.355-.271,2.817-.847.55-1.972.39-2.554-.401-.613-.833-.44-1.988.395-2.61.134-.1.285-.178.422-.275,1.159-.818,1.294-.787,2.008.47Z" fill="#fff"/>
                <path d="M137.282,213.394c.779-.484,1.796-.253,2.302.522.532.816.294,1.862-.535,2.349-.781.46-1.818.202-2.299-.571-.48-.771-.237-1.823.532-2.3Z" fill="#fff"/>
                <path d="M153.54,225.284c.656-.401,1.301-.209,1.778.529.459.711.267,1.635-.428,2.061-.676.414-1.553.189-1.971-.504-.439-.727-.18-1.596.622-2.086Z" fill="#fff"/>
                <path d="M163.219,229.129c-.685.399-1.515.187-1.898-.483-.379-.664-.145-1.506.527-1.898.727-.424,1.611-.229,1.992.439.383.672.114,1.515-.621,1.942Z" fill="#fff"/>
                <path d="M154.723,210.618c.653-.402,1.526-.206,1.931.435.412.65.209,1.513-.451,1.917-.67.41-1.505.219-1.922-.439-.421-.665-.228-1.5.442-1.913Z" fill="#fff"/>
                <path d="M176.147,216.674c.634-.361,1.462-.114,1.814.541.335.624.121,1.401-.487,1.768-.643.388-1.444.177-1.823-.481-.371-.644-.15-1.459.496-1.827Z" fill="#fff"/>
                <path d="M134.662,222.208c-.354-.63-.151-1.384.474-1.757.651-.388,1.45-.172,1.817.492.348.629.141,1.399-.473,1.764-.649.385-1.443.167-1.818-.498Z" fill="#fff"/>
                <path d="M171.735,223.429c-.595.338-1.313.158-1.609-.404-.307-.582-.083-1.374.479-1.697.578-.332,1.263-.146,1.601.435.349.6.147,1.315-.471,1.666Z" fill="#fff"/>
                <path d="M137.187,206.868c.168-.099.328-.218.506-.293.549-.233,1.006-.099,1.259.445.256.551.032.984-.485,1.248-.27.138-.585.188-.86.319-.506.24-.945.2-1.216-.315-.277-.525-.03-.905.449-1.171.122-.068.241-.141.361-.212-.004-.007-.008-.014-.012-.02Z" fill="#fff"/>
                <path d="M152.489,234.999c-.56.351-1.299.2-1.627-.332-.332-.538-.12-1.355.44-1.696.528-.321,1.307-.121,1.615.416.317.551.127,1.264-.429,1.612Z" fill="#fff"/>
                <path d="M153.947,193.615c-.394-.615-.305-1.286.216-1.644.49-.336,1.222-.175,1.56.344.34.522.056,1.739-.479,2.05-.422.246-.799.027-1.297-.751Z" fill="#fff"/>
                <path d="M162.6,196.807c-.569.317-1.295.106-1.588-.491-.306-.624-.154-1.161.428-1.538.558-.363,1.266-.161,1.599.425.33.58.138,1.284-.438,1.605Z" fill="#fff"/>
                <path d="M143.706,195.232c.552-.294,1.301-.056,1.606.512.311.578.121,1.217-.449,1.517-.578.304-1.303.085-1.604-.483-.286-.54-.076-1.267.446-1.545Z" fill="#fff"/>
                <path d="M144.466,211.981c-.31-.524-.139-1.244.371-1.563.536-.335,1.286-.125,1.6.448.297.542.104,1.245-.424,1.542-.524.294-1.237.097-1.547-.427Z" fill="#fff"/>
                <path d="M157.154,203.918c.211.497.121.982-.413,1.32-.489.309-1.215.123-1.464-.382-.274-.557-.132-1.051.379-1.394.473-.318,1.182-.109,1.498.456Z" fill="#fff"/>
                <path d="M142.6,225.072c-.176.413-.249.94-.552,1.212-.451.405-.983.177-1.29-.31-.316-.502-.209-1.081.306-1.307.364-.16.88.028,1.329.061l.208.344Z" fill="#fff"/>
                <path d="M158.326,219.548c.215-.656.259-1.105.502-1.377.096-.108.761.076.941.305.317.404.182.891-.335,1.096-.229.091-.533-.003-1.108-.024Z" fill="#fff"/>
                <path d="M150.49,227.197c-.527-.251-.96-.321-1.06-.542-.106-.235.104-.613.176-.928.313.082.748.071.904.274.149.194.007.611-.019,1.196Z" fill="#fff"/>
                <path d="M144.736,218.983c.49.229.888.29.986.495.103.215-.082.567-.141.859-.311-.075-.715-.059-.901-.253-.136-.143.014-.56.056-1.101Z" fill="#fff"/>
                <path d="M132.178,206.114c.52.247.935.316,1.014.517.088.224-.052.652-.243.828-.112.103-.64-.028-.757-.203-.135-.201-.023-.568-.013-1.142Z" fill="#fff"/>
                <path d="M145.673,207.897c.25-.491.325-.889.528-.971.22-.089.558.117.845.194-.079.289-.074.689-.263.834-.172.132-.557-.013-1.11-.056Z" fill="#fff"/>
                <path d="M149.73,204.069c.195-.452.242-.824.423-.909.192-.09.638.014.74.179.102.165,0,.609-.166.744-.155.126-.509.007-.997-.014Z" fill="#fff"/>
                <path d="M144.824,230.428c.206-.449.257-.795.446-.903.164-.094.646.018.696.15.085.226.032.633-.13.785-.136.127-.511-.002-1.012-.031Z" fill="#fff"/>
                <path d="M141.014,227.808c-.216.453-.276.823-.462.904-.205.089-.525-.087-.795-.148.071-.267.063-.635.237-.772.161-.127.516-.006,1.021.016Z" fill="#fff"/>
                <path d="M167.571,204.275c.165-.36.226-.727.378-.769.221-.062.508.11.766.183-.089.256-.111.592-.289.74-.119.098-.46-.072-.855-.153Z" fill="#fff"/>
                <path d="M176.261,213.036c-.372-.203-.737-.288-.778-.453-.054-.22.144-.501.233-.757.231.099.567.14.663.313.095.173-.051.479-.119.896Z" fill="#fff"/>
                <path d="M147.712,220.889c.362.144.695.18.749.321.077.203-.049.484-.088.731-.237-.075-.542-.087-.689-.245-.104-.113.005-.423.029-.807Z" fill="#fff"/>
                <path d="M153.558,219.483c.349.146.622.184.742.34.074.096-.05.514-.145.537-.198.047-.487-.014-.636-.146-.09-.08.011-.377.038-.73Z" fill="#fff"/>
              </g>
            </g>
          </g>
        </g>
      </g>
    </g>
  </g>
</svg>