<?xml version="1.0" encoding="UTF-8"?>
<svg id="a" data-name="bateau 06" xmlns="http://www.w3.org/2000/svg" width="300" height="300" xmlns:xlink="http://www.w3.org/1999/xlink" viewBox="0 0 300 300">
  <defs>
    <clipPath id="b">
      <path d="M526.772,270.147c-.714.568-1.284,1.023-1.977,1.575-.003-.058.007.152.018.393-3.196-.319-3.327-2.383-.098-2.884,1.266-.458,1.292-1.73,1.796-3.082-1.457.556-2.442.47-3.814.697.252.876.893.851,1.45,1.442-.481.508-1.165.591-1.771.508-.164-1.022-1.028-2.49.117-3.246,1.081-.446-.186-1.686-.567-2.013-.576.277-1.111.961-.617,1.595.308.467.508.864-.116,1.321-1.184,3.272-3.027-.469-4.858-1.096.043-.188.129-.569.249-1.096-1.736,1.039-.908-3.182-2.925-.821-1.624-1.05-2.16-4.844-4.273-4.346-.195.121-.721-.087-.862-.323-.793-2.584-3.2-3.697-4.05-6.08-.648-1.513-1.976-2.377-3.113-3.449-.105-.152-.742-.109-.861.057-.955,1.197-2.936.12-3.038-1.301-.305-.566-1.47-1.131-1.391-1.989-.993-1.138.043-1.066.753-1.648-.713-.298-.871-.891-.862-1.733.182-.805-1.666-2.151-.396-2.576,1.456-.278.308-1.173.293-2.22-.995,1.425-2.019,2.272-3.674,2.052-.749.61-1.209.199-1.709-.265-1.289-1.414-3.222.461-4.368,1.389.096-3.759-4.685.9-6.54,1.179-.045-1.293-1.546-2.313-2.535-1.037-2.249-.607-2.976-3.952-4.684-5.586-.354-1.535-2.399-1.151-2.496-2.62-.174-1.629-2.3-1.873-2.288-3.673-1.441-.59-1.123-2.543-2.161-3.441-1.784-2.289-6.496-5.151-5.755-8.104.894-.917,0-1.194-.607-1.76-.469-1.012-1.005-.044-1.776-.239,1.881-2.059-1.466-2.334,1.303-5.969.307-.896-.85-.648-1.11-.104-.689,1.234-1.677,1.063-2.634.934-.512-.549-.059-1.924-1.332-1.664-.087-.365-.174-.73-.265-1.114-1.241.3-1.93,1.597-.515,2.208-1.318,1.253-3.583,4.501-4.84,1.678-1.488.342-1.344-2.237-2.996-.947-.081-.699-.146-1.267-.22-1.908-.179.118-.405.268-.633.418-.357-.743-.386-1.794-1.555-1.625-.128-.956-.256-1.902-.401-2.984-.273.4-.459.674-.57.836-1.739-.398-2.103-2.224-3.029-3.533-.095.013-.19.027-.285.04-.063.335-.127.67-.19,1.006-.1-.005-.2-.01-.301-.014.267-3.392-2.866-4.422-3.859-7.278.268-1.007.296-1.422-.313-2.239-.385.414-.736.792-1.218,1.311-.78-.576-.39-2-1.553-1.698-.335-1.357-.028-2.349.869-3.26-.982-1.094,1.552-3.478-.432-3.648-.108.467-.211.908-.313,1.349h-.215c.026-1.112.053-2.223.084-3.524,2.431,1.178,2.282-2.245,2.499-3.943-.967.712-1.639,2.005-2.82,1.039.176.3.352.6.614,1.048-.519.131-.969.245-1.271.321-.347-1.909.465-3.139,1.711-4.501.127.086.294.199.395.268,2.901-4.637,5.805-9.825,10.004-13.792-1.101-.897-1.671-2.744-.22-3.567.661.055,1.365.339,1.709.081.63-.781,1.133-1.841-.331-2.352-.007-1.37,1.816-2.873.508-4.08-.762-.851-.499-2.634-1.967-2.737-1.541-.467-2.351.923-3.668,1.337-1.282-.241-1.534,1.02-2.196,1.866-.778-.443-1.737-.572-2.254-1.223-.354-1.428-1.427-.995-2.579-1.251.279-.295.512-.541.756-.799-1.61-.454-1.243,1.18-.684,1.971-.347.287-.659.544-1.161.959-.146-.998.719-2.27-.491-2.696-2.003-.024-2.094-3.775-4.13-2.353.013-.316.026-.622.039-.933-1.119-.022-1.15-.978-1.739-1.663-2.298-1.886-1.623-1.258-2.3-3.981-.202.134-.39.26-.632.421-.647-.984-1.563-1.132-1.856-2.568-1.328-2.881-5.346-3.058-7.079-5.386-.585.083-1.041.148-1.601.228,1.383-2.045.167-3.317.285-5.289.802-1.974,1.602-3.943,2.4-5.907l.357.032c-.084.989-.167,1.98-.27,3.197.814-.916.531-1.853.959-2.706.183.12.335.22.487.32.067-.034.134-.067.201-.101.024-1.515-1.858-.945-.615-2.467,8.097-15.249,14.395-31.292,23.079-46.174.452-.861.735-1.603,1.645-.565,1.744.56,1.811-2.35,3.56-2.194.431-.026.743-1.269.438-1.892-.072.32-.123.543-.188.83-.996.023-1.962.045-2.946.068.288-2.054,2.598-2.155,4.1-1.523,1.683-2.489,2.304-6.224,5.744-6.788-.14-.172-.266-.327-.539-.662,2.52-.59,4.58,2.546,6.67,1.905.44-.39.743-.297.818.309-.216.079-.43.157-.716.261,4.26,1.531,8.617,5.253,12.519,6.025.919,2.415,2.378-.584,3.433-1.49.519-.833,1.393-.071,2.021-.601,8.953-9.038,16.928-19.513,26.772-26.991.548-.009,1.596.235,1.946.822,1.848,1.277,2.466-3.795,6.841,1.161.667,1.147,2.425-.463,2.708,1.046.282,1.139,1.689,1.087,2.207,2.067,1.786,1.081,2.565,3.146,4.737,3.803.689.392.8.85,1.497-.017.118,1.414.309,1.516,1.399.76.079.407.154.792.229,1.178l1.123-.477c-.465,6.943,24.591-23.986,27.83-25.766,1.614.353-.188,1.261.697,2.163.504.143.961-.691,1.338-.89,1.676-.328-.022,1.919,1.229,2.224.722.181.831,1.901,1.677.962.181.363.422.654.47.981.121.87,1.498.81,1.687.114.111-.926-.632-2.356.922-2.128.695.044.417,1.093.954,1.37-.252.402-.445.71-.638,1.018.435.124.871.249,1.436.41-.455,1.116-.409,1.297.704,1.757.236,1.007,1.231,1.468,1.973,2.04.853.704,1.654,2.045,3.013,1.97-.367,1.39,1.423.545,2.121.967-1.036.973-.927,1.293.14,1.928-.026.064-.052.129-.078.193-.473-.052-.945-.105-1.599-.177.27.731,1.157.622.746,1.475-.068.73,1.223.916,1.837.424-.165.316-.264.505-.399.765.57-.039.209,1.014.965.708.422-.171.76-.545,1.101-.949-1.081.652-1.342-.397-.403-.954,1.362.035,2.055-.861,2.827-1.742,1.164-1.315,2.162-2.092,3.896-1.315.42.365.792.737,1.358.086,1.024.926,2.01,1.817,2.997,2.709.08-.067.161-.134.241-.2-.201-.332-.402-.663-.707-1.165,1.923,1.296,3.917-1.03,5.357.406.242,1.625,1.152,2.489,2.362,3.451,1.077.962.459,2.642,1.638,3.51.591.438.42,1.541,1.363.95,1.136-.803,2.064,1.302,1.41,2.168.424.081.745.143,1.018.195-.349.427-.657.804-.966,1.18.601.262-.509,1.372.736,1.339.079-.234.163-.483.242-.715.997.668,2.299,1.187,1.222,2.566.322.045.606.085.957.133-.052.234-.096.434-.112.508.399.361.738.669,1.123,1.017-.197.249-.374.474-.652.826.998-.259,1.849-.481,2.782-.723.017.314.026.498.036.679,2.534.548.472,4.428.011,6.054.081.056.162.112.243.169,1.616-1.377,2.453-3.491,3.878-5.066.083.048.165.097.248.145-.384.974-.893,1.909-1.079,2.947,1.031-.032,1.49-.808,2.019-1.568,3.259,2.237,14.631-18.5,13.479-7.991.094.03.189.059.283.089,1.094-2.144,4.509-2.623,4.519.402-.096.89.735.556,1.293.499.593-.139.81.106.812.662-.08,1.962,4.51.524,3.973,3.236,2.144-.457,1.241,2.226,2.864,2.406.605-.004,1.21.372,1.837.587-.225.485-.433.934-.678,1.461,5.02.996,1.101.777,3.501,2.933,4.404,2.295.161,6.216-.403,9.674.089.041.178.082.266.123-.185.117-.369.233-.605.382.059.154.126.329.196.511-1.449.027-.687,1.274-1.387,2.138-.349.477-.522.808.079,1.218.73.849.617,2.264.918,3.296-.073-.059-.231-.188-.271-.221-.656,1.441.088,2.991-1.8,3.481-.204.757-.278,1.634-1.183,2.076-.315-.334-.584-.62-.852-.905-.137-.009-.274-.017-.41-.026.293,2.122-.855,3.447-1.799,5.239,1.242.98,3,.811,3.902,1.869.136.202.265.614.366.604,1.437-.079,1.729,1.318,2.679,1.994.643-.661,1.245-1.281,1.864-1.918.26.187.466.335.672.483.052-.03.105-.061.157-.091l-.428-.924c1.562-3.164,1.703.665,2.812-1.18.475.196-.208,1.169.688.926.129-.035.115-.591.193-1.067,1.148-.008,1.437,1.548,2.789.384.073.773.039,1.143.215,1.756,1.685-.842,3.335-2.183,4.895-3.547,1.023-1.326,1.915-1.908,3.486-.744-.475.142-.748.223-1.02.305-.005.067-.011.135-.016.202.378.068.756.137,1.195.217.034-.181.063-.334.1-.528,1.723.228.025,1.229,1.078,1.799.134-.204.256-.391.296-.453,1.868.37,1.023-1.643.979-2.751l.204-.01c1.293,1.101,1.019,3.405,2.372,4.092.478.042.83.144,1.165.502,1.443.824.727-1.53,1.45-1.887.825-.061,1.284.754,1.73,1.415-.65,1.95,2.239,2.847,3.33,4.16-1.55-.417-2.332-.086-.804,1.442.229-.349.361-.551.594-.905.361.657.506,1.139,1.073,1.535.326-.601.054-1.047-.141-1.632.68.197,1.275.399.869,1.299.351,2.153,4.294-.792,3.39,2.185.898-.303,3.057.317,1.793,1.39-.131.095-.137.605-.006.756.169.194.628.381.795.285.865-.523,1.285.614,1.879,1.035,1.081,1.873-1.129,3.834-.969,5.528,1.202.529-.36,2.016-1.067.878-.308.414-.488.762.194.862,1.616,1.818-2.468,6.466-3.68,8.628.365-.107.59-.173.909-.267.159.618,1.012,1.706-.01,1.987-.745.554-.263,1.555-.229,2.5.289.015,1.168-.414,1.404-.381.598.516,1.12.261,1.637-.051.559-.337.696-.053.782.465.801,2.367,1.179,4.776,2.081,7.035.296,1.29.714,3.393,2.176,3.714.357.969,1.887,1.054,1.624,2.511,2.597-.272,2.122,3.134,2.166,4.769,2.929,1.423-1.903,4.927-2.06,7.046-1.368,1.049-1.719,3.218-2.761,3.844-.552.332.13,1.785-.94,1.65-.796.839-1.221,1.956-2.062,3.186,3.359.425,6.449.815,9.532,1.205.032,1.666.885.365,1.742,1.274-.463.32-.798.55-1.11.766,1.152,1.211,1.958,3.802.022,4.516-1.213-.421-.742.496-.819,1.117.542-.177.997-.326,1.52-.497.973,1.168-1.798,1.906-.43,3.306.013,5.671-9.282,6.554-2.154,13.149-.601.93.805,1.579.35,2.49-.864,1.241-.557,2.496,1.028,2.77.031-.119.095-.368.163-.633,1.014.619,2.481,4.084,2.35,5.432.203-.031.46-.071.716-.111-.01.096-.021.192-.031.288-.183.196-.365.393-.548.59.022.092.044.183.066.275.393-.066.786-.133,1.324-.224-.604.681-.237,2.147-1.186,2.219-.146-.009-.301.289-.452.446.707.611,1.519-.008,2.306-.16.039.066.079.131.118.197-3.126,4.171-9.064,6.455-10.856,11.429-.128,1.576-.41.812-1.467,1.079.511.307,1.427.88.622,1.38-.764.446.062,1.168-.253,1.875-.087.003-.174.006-.261.009-.122-.197-.243-.393-.517-.836-2.745,9.891-14.735,10.7-21.933,16.161-4.721,4.006-9.465,8.241-14.742,11.416-1.032,1.679-4.844,4.864-6.137,2.157.234-.101.458-.199.914-.396-.521-.325-.863-.539-1.347-.841.147,1.114-.969,3.195-.613,1.098-1.212-.582-.148-1.97-.78-3.19-.401.884-.706,1.557-1.011,2.231-1.428-.731-.155-3.632-1.829-3.831-.673,1.024-1.157.594-1.616-.31-.299.539-.537.97-.797,1.437-3.272-3.432-9.814,6.669-13.382,6.068-1.938.182-3.462,3.741-5.535,2.824-8.971-2.229-27.887,23.203-33.172,18.759.277-.119.533-.228,1.027-.44-.491-.356-.823-.597-1.214-.881-1.253,2.454-1.359-.662-1.252-1.807-.098-.031-.197-.062-.295-.093-.366.652-.732,1.305-1.092,1.947-1.624-.22.047-4.78-1.789-3.836-.899,1.306-.917.067-1.661-.321-.179.432-.346.837-.504,1.219-2.082-1.718-4.408.854-6.83.32-.817.38-2.702,1.194-2.44-.602.711-.752,1.476-3.949-.374-3.102-.693-1.096-.614-1.406.383-1.632-.13-1.436-.512-1.982-1.573-.714.167-2.383-1.748-3.383-1.153-5.508.157-.534-.429-1.418-.268-1.963.769-1.473-.333-2.133-.906-3.004-1.931-.74-2.614-2.2-3.516-4.067-.659.517-1.34,1.051-2.08,1.631.027-.286.049-.514.074-.772-2.134.455-.86,2.028-2.308,3.424-.48-2.06,1.266-3.471,1.159-5.483-7.491,8.85-14.265,20.34-21.905,27.933ZM681.647,165.413c.861.91-.177,1.368.871,1.808.243-.854,1.473-1.293.613-2.462l-.624.31-.413-.196c.221-.269.443-.537.662-.803-1.404-1.639-1.201.322-1.109,1.344ZM433.541,183.748c-.44.598-.881,1.197-1.321,1.794.416.232.892.496,1.372.764.972-1.015.967-1.809-.051-2.558ZM682.421,173.251c-.222-.095-.444-.189-.666-.284.342-.493.685-.986.992-1.43-.25-.17-.55-.375-.848-.578q-.56.478.02,1.052c-.282.189-.563.377-.843.564-.009.121-.018.242-.026.363.457.104.914.208,1.372.313ZM680.446,162.308c-.318.619-.555,1.08-.89,1.733,1.061-.275,2.309-1.141.89-1.733ZM630.913,89.214c-.07.023-.14.046-.21.069-.088.634-.176,1.268-.273,1.965l.902-.413c-.137-.532-.278-1.077-.419-1.622ZM579.677,43.765c-.848.503-.866.792-.101,1.425.035-.491.064-.905.101-1.425ZM438.809,78.717c.649.155,1.027.174,1.063-.485-.428-.544-.687.017-1.063.485ZM431.936,191.013c-.467.934-.379,1.117.477,1.239-.178-.463-.328-.851-.477-1.239ZM681.27,169.697c.154.012.308.025.462.037.005-.409.011-.818.016-1.226-.12-.01-.24-.02-.36-.03-.039.406-.079.812-.118,1.218ZM476.359,239.142c-.032.385-.064.77-.106,1.275.927-.494.838-.89.106-1.275Z" fill="none"/>
    </clipPath>
    <filter id="c" data-name="drop-shadow-1" x="242.136" y="46.546" width="415.415" height="203.117" filterUnits="userSpaceOnUse">
      <feOffset dx="-5.526" dy="0"/>
      <feGaussianBlur result="d" stdDeviation="0"/>
      <feFlood flood-color="#42496f" flood-opacity="1"/>
      <feComposite in2="d" operator="in"/>
      <feComposite in="SourceGraphic"/>
    </filter>
    <filter id="e" data-name="drop-shadow-2" x="242.136" y="46.546" width="356.772" height="241.516" filterUnits="userSpaceOnUse">
      <feOffset dx="-5.526" dy="0"/>
      <feGaussianBlur result="f" stdDeviation="0"/>
      <feFlood flood-color="#42496f" flood-opacity="1"/>
      <feComposite in2="f" operator="in"/>
      <feComposite in="SourceGraphic"/>
    </filter>
    <clipPath id="g">
      <path d="M126.772,270.147c-.714.568-1.284,1.023-1.977,1.575-.003-.058.007.152.018.393-3.196-.319-3.327-2.383-.098-2.884,1.266-.458,1.292-1.73,1.796-3.082-1.457.556-2.442.47-3.814.697.252.876.893.851,1.45,1.442-.481.508-1.165.591-1.771.508-.164-1.022-1.028-2.49.117-3.246,1.081-.446-.186-1.686-.567-2.013-.576.277-1.111.961-.617,1.595.308.467.508.864-.116,1.321-1.184,3.272-3.027-.469-4.858-1.096.043-.188.129-.569.249-1.096-1.736,1.039-.908-3.182-2.925-.821-1.624-1.05-2.16-4.844-4.273-4.346-.195.121-.721-.087-.862-.323-.793-2.584-3.2-3.697-4.05-6.08-.648-1.513-1.976-2.377-3.113-3.449-.105-.152-.742-.109-.861.057-.955,1.197-2.936.12-3.038-1.301-.305-.566-1.47-1.131-1.391-1.989-.993-1.138.043-1.066.753-1.648-.713-.298-.871-.891-.862-1.733.182-.805-1.666-2.151-.396-2.576,1.456-.278.308-1.173.293-2.22-.995,1.425-2.019,2.272-3.674,2.052-.749.61-1.209.199-1.709-.265-1.289-1.414-3.222.461-4.368,1.389.096-3.759-4.685.9-6.54,1.179-.045-1.293-1.546-2.313-2.535-1.037-2.249-.607-2.976-3.952-4.684-5.586-.354-1.535-2.399-1.151-2.496-2.62-.174-1.629-2.3-1.873-2.288-3.673-1.441-.59-1.123-2.543-2.161-3.441-1.784-2.289-6.496-5.151-5.755-8.104.894-.917,0-1.194-.607-1.76-.469-1.012-1.005-.044-1.776-.239,1.881-2.059-1.466-2.334,1.303-5.969.307-.896-.85-.648-1.11-.104-.689,1.234-1.677,1.063-2.634.934-.512-.549-.059-1.924-1.332-1.664-.087-.365-.174-.73-.265-1.114-1.241.3-1.93,1.597-.515,2.208-1.318,1.253-3.583,4.501-4.84,1.678-1.488.342-1.344-2.237-2.996-.947-.081-.699-.146-1.267-.22-1.908-.179.118-.405.268-.633.418-.357-.743-.386-1.794-1.555-1.625-.128-.956-.256-1.902-.401-2.984-.273.4-.459.674-.57.836-1.739-.398-2.103-2.224-3.029-3.533-.095.013-.19.027-.285.04-.063.335-.127.67-.19,1.006-.1-.005-.2-.01-.301-.014.267-3.392-2.866-4.422-3.859-7.278.268-1.007.296-1.422-.313-2.239-.385.414-.736.792-1.218,1.311-.78-.576-.39-2-1.553-1.698-.335-1.357-.028-2.349.869-3.26-.982-1.094,1.552-3.478-.432-3.648-.108.467-.211.908-.313,1.349h-.215c.026-1.112.053-2.223.084-3.524,2.431,1.178,2.282-2.245,2.499-3.943-.967.712-1.639,2.005-2.82,1.039.176.3.352.6.614,1.048-.519.131-.969.245-1.271.321-.347-1.909.465-3.139,1.711-4.501.127.086.294.199.395.268,2.901-4.637,5.805-9.825,10.004-13.792-1.101-.897-1.671-2.744-.22-3.567.661.055,1.365.339,1.709.081.63-.781,1.133-1.841-.331-2.352-.007-1.37,1.816-2.873.508-4.08-.762-.851-.499-2.634-1.967-2.737-1.541-.467-2.351.923-3.668,1.337-1.282-.241-1.534,1.02-2.196,1.866-.778-.443-1.737-.572-2.254-1.223-.354-1.428-1.427-.995-2.579-1.251.279-.295.512-.541.756-.799-1.61-.454-1.243,1.18-.684,1.971-.347.287-.659.544-1.161.959-.146-.998.719-2.27-.491-2.696-2.003-.024-2.094-3.775-4.13-2.353.013-.316.026-.622.039-.933-1.119-.022-1.15-.978-1.739-1.663-2.298-1.886-1.623-1.258-2.3-3.981-.202.134-.39.26-.632.421-.647-.984-1.563-1.132-1.856-2.568-1.328-2.881-5.346-3.058-7.079-5.386-.585.083-1.041.148-1.601.228,1.383-2.045.167-3.317.285-5.289.802-1.974,1.602-3.943,2.4-5.907l.357.032c-.084.989-.167,1.98-.27,3.197.814-.916.531-1.853.959-2.706.183.12.335.22.487.32.067-.034.134-.067.201-.101.024-1.515-1.858-.945-.615-2.467,8.097-15.249,14.395-31.292,23.079-46.174.452-.861.735-1.603,1.645-.565,1.744.56,1.811-2.35,3.56-2.194.431-.026.743-1.269.438-1.892-.072.32-.123.543-.188.83-.996.023-1.962.045-2.946.068.288-2.054,2.598-2.155,4.1-1.523,1.683-2.489,2.304-6.224,5.744-6.788-.14-.172-.266-.327-.539-.662,2.52-.59,4.58,2.546,6.67,1.905.44-.39.743-.297.818.309-.216.079-.43.157-.716.261,4.26,1.531,8.617,5.253,12.519,6.025.919,2.415,2.378-.584,3.433-1.49.519-.833,1.393-.071,2.021-.601,8.953-9.038,16.928-19.513,26.772-26.991.548-.009,1.596.235,1.946.822,1.848,1.277,2.466-3.795,6.841,1.161.667,1.147,2.425-.463,2.708,1.046.282,1.139,1.689,1.087,2.207,2.067,1.786,1.081,2.565,3.146,4.737,3.803.689.392.8.85,1.497-.017.118,1.414.309,1.516,1.399.76.079.407.154.792.229,1.178l1.123-.477c-.465,6.943,24.591-23.986,27.83-25.766,1.614.353-.188,1.261.697,2.163.504.143.961-.691,1.338-.89,1.676-.328-.022,1.919,1.229,2.224.722.181.831,1.901,1.677.962.181.363.422.654.47.981.121.87,1.498.81,1.687.114.111-.926-.632-2.356.922-2.128.695.044.417,1.093.954,1.37-.252.402-.445.71-.638,1.018.435.124.871.249,1.436.41-.455,1.116-.409,1.297.704,1.757.236,1.007,1.231,1.468,1.973,2.04.853.704,1.654,2.045,3.013,1.97-.367,1.39,1.423.545,2.121.967-1.036.973-.927,1.293.14,1.928-.026.064-.052.129-.078.193-.473-.052-.945-.105-1.599-.177.27.731,1.157.622.746,1.475-.068.73,1.223.916,1.837.424-.165.316-.264.505-.399.765.57-.039.209,1.014.965.708.422-.171.76-.545,1.101-.949-1.081.652-1.342-.397-.403-.954,1.362.035,2.055-.861,2.827-1.742,1.164-1.315,2.162-2.092,3.896-1.315.42.365.792.737,1.358.086,1.024.926,2.01,1.817,2.997,2.709.08-.067.161-.134.241-.2-.201-.332-.402-.663-.707-1.165,1.923,1.296,3.917-1.03,5.357.406.242,1.625,1.152,2.489,2.362,3.451,1.077.962.459,2.642,1.638,3.51.591.438.42,1.541,1.363.95,1.136-.803,2.064,1.302,1.41,2.168.424.081.745.143,1.018.195-.349.427-.657.804-.966,1.18.601.262-.509,1.372.736,1.339.079-.234.163-.483.242-.715.997.668,2.299,1.187,1.222,2.566.322.045.606.085.957.133-.052.234-.096.434-.112.508.399.361.738.669,1.123,1.017-.197.249-.374.474-.652.826.998-.259,1.849-.481,2.782-.723.017.314.026.498.036.679,2.534.548.472,4.428.011,6.054.081.056.162.112.243.169,1.616-1.377,2.453-3.491,3.878-5.066.083.048.165.097.248.145-.384.974-.893,1.909-1.079,2.947,1.031-.032,1.49-.808,2.019-1.568,3.259,2.237,14.631-18.5,13.479-7.991.094.03.189.059.283.089,1.094-2.144,4.509-2.623,4.519.402-.096.89.735.556,1.293.499.593-.139.81.106.812.662-.08,1.962,4.51.524,3.973,3.236,2.144-.457,1.241,2.226,2.864,2.406.605-.004,1.21.372,1.837.587-.225.485-.433.934-.678,1.461,5.02.996,1.101.777,3.501,2.933,4.404,2.295.161,6.216-.403,9.674.089.041.178.082.266.123-.185.117-.369.233-.605.382.059.154.126.329.196.511-1.449.027-.687,1.274-1.387,2.138-.349.477-.522.808.079,1.218.73.849.617,2.264.918,3.296-.073-.059-.231-.188-.271-.221-.656,1.441.088,2.991-1.8,3.481-.204.757-.278,1.634-1.183,2.076-.315-.334-.584-.62-.852-.905-.137-.009-.274-.017-.41-.026.293,2.122-.855,3.447-1.799,5.239,1.242.98,3,.811,3.902,1.869.136.202.265.614.366.604,1.437-.079,1.729,1.318,2.679,1.994.643-.661,1.245-1.281,1.864-1.918.26.187.466.335.672.483.052-.03.105-.061.157-.091l-.428-.924c1.562-3.164,1.703.665,2.812-1.18.475.196-.208,1.169.688.926.129-.035.115-.591.193-1.067,1.148-.008,1.437,1.548,2.789.384.073.773.039,1.143.215,1.756,1.685-.842,3.335-2.183,4.895-3.547,1.023-1.326,1.915-1.908,3.486-.744-.475.142-.748.223-1.02.305-.005.067-.011.135-.016.202.378.068.756.137,1.195.217.034-.181.063-.334.1-.528,1.723.228.025,1.229,1.078,1.799.134-.204.256-.391.296-.453,1.868.37,1.023-1.643.979-2.751l.204-.01c1.293,1.101,1.019,3.405,2.372,4.092.478.042.83.144,1.165.502,1.443.824.727-1.53,1.45-1.887.825-.061,1.284.754,1.73,1.415-.65,1.95,2.239,2.847,3.33,4.16-1.55-.417-2.332-.086-.804,1.442.229-.349.361-.551.594-.905.361.657.506,1.139,1.073,1.535.326-.601.054-1.047-.141-1.632.68.197,1.275.399.869,1.299.351,2.153,4.294-.792,3.39,2.185.898-.303,3.057.317,1.793,1.39-.131.095-.137.605-.006.756.169.194.628.381.795.285.865-.523,1.285.614,1.879,1.035,1.081,1.873-1.129,3.834-.969,5.528,1.202.529-.36,2.016-1.067.878-.308.414-.488.762.194.862,1.616,1.818-2.468,6.466-3.68,8.628.365-.107.59-.173.909-.267.159.618,1.012,1.706-.01,1.987-.745.554-.263,1.555-.229,2.5.289.015,1.168-.414,1.404-.381.598.516,1.12.261,1.637-.051.559-.337.696-.053.782.465.801,2.367,1.179,4.776,2.081,7.035.296,1.29.714,3.393,2.176,3.714.357.969,1.887,1.054,1.624,2.511,2.597-.272,2.122,3.134,2.166,4.769,2.929,1.423-1.903,4.927-2.06,7.046-1.368,1.049-1.719,3.218-2.761,3.844-.552.332.13,1.785-.94,1.65-.796.839-1.221,1.956-2.062,3.186,3.359.425,6.449.815,9.532,1.205.032,1.666.885.365,1.742,1.274-.463.32-.798.55-1.11.766,1.152,1.211,1.958,3.802.022,4.516-1.213-.421-.742.496-.819,1.117.542-.177.997-.326,1.52-.497.973,1.168-1.798,1.906-.43,3.306.013,5.671-9.282,6.554-2.154,13.149-.601.93.805,1.579.35,2.49-.864,1.241-.557,2.496,1.028,2.77.031-.119.095-.368.163-.633,1.014.619,2.481,4.084,2.35,5.432.203-.031.46-.071.716-.111-.01.096-.021.192-.031.288-.183.196-.365.393-.548.59.022.092.044.183.066.275.393-.066.786-.133,1.324-.224-.604.681-.237,2.147-1.186,2.219-.146-.009-.301.289-.452.446.707.611,1.519-.008,2.306-.16.039.066.079.131.118.197-3.126,4.171-9.064,6.455-10.856,11.429-.128,1.576-.41.812-1.467,1.079.511.307,1.427.88.622,1.38-.764.446.062,1.168-.253,1.875-.087.003-.174.006-.261.009-.122-.197-.243-.393-.517-.836-2.745,9.891-14.735,10.7-21.933,16.161-4.721,4.006-9.465,8.241-14.742,11.416-1.032,1.679-4.844,4.864-6.137,2.157.234-.101.458-.199.914-.396-.521-.325-.863-.539-1.347-.841.147,1.114-.969,3.195-.613,1.098-1.212-.582-.148-1.97-.78-3.19-.401.884-.706,1.557-1.011,2.231-1.428-.731-.155-3.632-1.829-3.831-.673,1.024-1.157.594-1.616-.31-.299.539-.537.97-.797,1.437-3.272-3.432-9.814,6.669-13.382,6.068-1.938.182-3.462,3.741-5.535,2.824-8.971-2.229-27.887,23.203-33.172,18.759.277-.119.533-.228,1.027-.44-.491-.356-.823-.597-1.214-.881-1.253,2.454-1.359-.662-1.252-1.807-.098-.031-.197-.062-.295-.093-.366.652-.732,1.305-1.092,1.947-1.624-.22.047-4.78-1.789-3.836-.899,1.306-.917.067-1.661-.321-.179.432-.346.837-.504,1.219-2.082-1.718-4.408.854-6.83.32-.817.38-2.702,1.194-2.44-.602.711-.752,1.476-3.949-.374-3.102-.693-1.096-.614-1.406.383-1.632-.13-1.436-.512-1.982-1.573-.714.167-2.383-1.748-3.383-1.153-5.508.157-.534-.429-1.418-.268-1.963.769-1.473-.333-2.133-.906-3.004-1.931-.74-2.614-2.2-3.516-4.067-.659.517-1.34,1.051-2.08,1.631.027-.286.049-.514.074-.772-2.134.455-.86,2.028-2.308,3.424-.48-2.06,1.266-3.471,1.159-5.483-7.491,8.85-14.265,20.34-21.905,27.933ZM281.647,165.413c.861.91-.177,1.368.871,1.808.243-.854,1.473-1.293.613-2.462l-.624.31-.413-.196c.221-.269.443-.537.662-.803-1.404-1.639-1.201.322-1.109,1.344ZM33.541,183.748c-.44.598-.881,1.197-1.321,1.794.416.232.892.496,1.372.764.972-1.015.967-1.809-.051-2.558ZM282.421,173.251c-.222-.095-.444-.189-.666-.284.342-.493.685-.986.992-1.43-.25-.17-.55-.375-.848-.578q-.56.478.02,1.052c-.282.189-.563.377-.843.564-.009.121-.018.242-.026.363.457.104.914.208,1.372.313ZM280.446,162.308c-.318.619-.555,1.08-.89,1.733,1.061-.275,2.309-1.141.89-1.733ZM230.913,89.214c-.07.023-.14.046-.21.069-.088.634-.176,1.268-.273,1.965l.902-.413c-.137-.532-.278-1.077-.419-1.622ZM179.677,43.765c-.848.503-.866.792-.101,1.425.035-.491.064-.905.101-1.425ZM38.809,78.717c.649.155,1.027.174,1.063-.485-.428-.544-.687.017-1.063.485ZM31.936,191.013c-.467.934-.379,1.117.477,1.239-.178-.463-.328-.851-.477-1.239ZM281.27,169.697c.154.012.308.025.462.037.005-.409.011-.818.016-1.226-.12-.01-.24-.02-.36-.03-.039.406-.079.812-.118,1.218ZM76.359,239.142c-.032.385-.064.77-.106,1.275.927-.494.838-.89.106-1.275Z" fill="none"/>
    </clipPath>
    <linearGradient id="h" data-name="Dégradé sans nom 13" x1="148.843" y1="67.007" x2="148.843" y2="252.017" gradientUnits="userSpaceOnUse">
      <stop offset="0" stop-color="#ffd66e"/>
      <stop offset="1" stop-color="#e86170"/>
    </linearGradient>
    <filter id="i" data-name="drop-shadow-3" x="45" y="54.504" width="173.583" height="228.372" filterUnits="userSpaceOnUse">
      <feOffset dx="-2.879" dy="0"/>
      <feGaussianBlur result="j" stdDeviation="0"/>
      <feFlood flood-color="#42496f" flood-opacity="1"/>
      <feComposite in2="j" operator="in"/>
      <feComposite in="SourceGraphic"/>
    </filter>
    <clipPath id="k">
      <path d="M140.005,126.395l12.05-68.553c.339-1.93,2.016-3.338,3.976-3.338h0c2.229,0,4.037,1.807,4.037,4.037v67.854h-20.062Z" fill="none"/>
    </clipPath>
  </defs>
  <g clip-path="url(#b)">
    <path d="M622.776,130.289c-7.041-25.981-46.479-41.625-86.52-24.189-3.405,1.483-7.291,1.219-10.63-.406-17.441-8.489-41.841-12.783-59.298-3.409-3.995,2.145-4.292,7.784-.556,10.355,1.02.702,2.128,1.473,3.292,2.292L249.455,46.608c-.01-.003-.019-.003-.029-.006-.016-.004-.031-.006-.046-.009-.163-.041-.328-.055-.487-.037-.009.001-.018.004-.027.005-.167.022-.328.072-.475.151-.01.006-.019.013-.03.019-.148.085-.281.195-.39.33-.003.004-.007.005-.01.009-.006.007-.006.016-.012.023-.095.125-.175.265-.224.423-.003.009-.003.019-.006.028-.004.016-.005.031-.01.047-.041.164-.055.328-.037.488,0,.008.004.016.005.024.022.169.073.331.152.479.005.009.011.016.016.025.085.15.197.284.333.394.003.003.005.007.008.009l183.7,145.413c.624,2.052,1.2,4.021,1.721,5.859.935,3.299.093,6.69-1.993,9.15-7.985-6.127-16.822-11.329-25.796-15.746-6.405-3.153-13.823-6.059-20.489-3.504-2.863,1.097-4.967,3.732-6.016,6.627-1.087-1.1-2.292-2.097-3.475-2.906-11.366-7.78-26.921-14.958-38.008-6.787-8.405,6.196-9.503,18.931-5.324,28.5,4.18,9.569,12.352,16.708,20.272,23.513-7.64-5.246-17.803-8.632-26.098-4.501-8.295,4.131-7.558,17.414-2.022,22.175-6.322-2.848-15.373.209-17.102,7.561-1.729,7.353,1.784,14.815,5.198,21.553-1.253,1.608-6.723,6.922-10.084,7.313,8.644,0,24.837-.106,44.842-.27,5.638,3.525,12.496,4.472,19.117,5.226,56.925,6.494,114.654,5.904,171.434-1.751l.755-1.49c-1.515-1.313-3.055-2.596-4.607-3.863,2.185-.024,3.361-.037,3.361-.037-1.124-1.475-2.263-2.94-3.412-4.397l10.307-.075c27.921-15.635,56.215-16.007,54.354-23.826-1.861-7.817-34.25-7.445-34.25-7.445-4.386-10.134-11.552-20.505-22.826-29.201-.295-.726-.6-1.448-.912-2.166,5.551-9.358,8.303-21.926,8.321-34.88,2.469-1.964,4.896-3.839,7.259-5.6,1.401,5.457-1.346,7.27-1.346,7.27l27.983,33.694c7.694-19.414-1.138-43.02-6.069-53.668.292-.119.586-.242.87-.348,27.009-10.161,48.16-6.501,54.144-9.956,5.398-3.117-15.101-5.602-33.448-3.766.199-.637.311-1.311.342-2.005,8.069-3.076,24.123-7.701,48.765-8.294,14.831-.357,17.639-16.908-24.879-16.091ZM255.724,51.453l220.392,68.567c4.826,3.575,10.018,7.626,14.697,11.712,3.891,3.398,4.742,9.144,1.807,13.395-4.984,7.217-9.685,14.956-14.038,22.774-.264-.246-.523-.496-.795-.734-6.99-6.12-17.316-9.137-25.86-5.788-6.553-2.968-13.407-4.791-20.267-5.152-6.844-.36-11.547,6.798-8.817,13.084,2.926,6.737,5.475,13.873,7.583,20.431L255.724,51.453Z" fill="none" stroke="#fff" stroke-linecap="round" stroke-linejoin="round" stroke-width="20"/>
    <g>
      <g filter="url(#c)">
        <line x1="249.044" y1="47.927" x2="590.98" y2="154.309" fill="none" stroke="#42496f" stroke-linecap="round" stroke-linejoin="round" stroke-width="2.763"/>
      </g>
      <g>
        <g filter="url(#e)">
          <line x1="532.182" y1="272.053" x2="249.044" y2="47.927" fill="none" stroke="#42496f" stroke-linecap="round" stroke-linejoin="round" stroke-width="2.763"/>
        </g>
        <g>
          <g>
            <path d="M291.49,228.162c2.906-1.556,5.785.319,6.461,2.253.806,2.304-.215,4.856-2.406,5.769-2.309.962-4.922-.106-5.906-2.424-.158-.373-.255-.772-.404-1.149-1.257-3.191-1.106-3.491,2.255-4.448Z" fill="#fff"/>
            <path d="M286.845,298.714c-.69-2.109.435-4.365,2.547-5.108,2.221-.781,4.541.378,5.211,2.604.632,2.099-.568,4.386-2.66,5.073-2.086.686-4.417-.489-5.098-2.569Z" fill="#fff"/>
            <path d="M290.327,256.154c-.571-1.765.391-3.702,2.129-4.287,1.763-.594,3.675.378,4.245,2.158.58,1.809-.348,3.662-2.135,4.263-1.802.607-3.655-.326-4.24-2.134Z" fill="#fff"/>
            <path d="M271.462,295.195c-.136-.451-.323-.894-.399-1.356-.233-1.423.345-2.42,1.767-2.702,1.441-.286,2.329.489,2.653,1.856.169.714.106,1.481.255,2.202.274,1.326-.073,2.334-1.438,2.677-1.391.349-2.144-.448-2.492-1.725-.089-.325-.193-.646-.291-.969-.018.006-.037.011-.055.017Z" fill="#fff"/>
            <path d="M249.942,248.225c-1.67.572-3.196-.021-3.737-1.451-.508-1.345.29-2.971,1.703-3.467,1.421-.499,4.117.867,4.542,2.301.335,1.132-.394,1.893-2.508,2.617Z" fill="#fff"/>
            <path d="M262.402,229.731c.417,1.519-.493,3.104-2.065,3.448-1.642.36-2.815-.304-3.368-1.887-.532-1.519.348-3.065,1.914-3.512,1.553-.443,3.096.413,3.519,1.95Z" fill="#fff"/>
            <path d="M247.867,273.21c-.375-1.466.615-3.088,2.124-3.479,1.536-.398,2.929.413,3.305,1.924.381,1.532-.546,3.109-2.055,3.49-1.431.362-3.02-.549-3.374-1.935Z" fill="#fff"/>
            <path d="M287.646,281.028c-1.41.428-3.002-.386-3.458-1.769-.48-1.452.444-3.092,1.971-3.502,1.445-.388,2.984.469,3.378,1.881.391,1.399-.48,2.961-1.89,3.389Z" fill="#fff"/>
            <path d="M275.983,246.601c1.289-.211,2.376.278,2.863,1.728.445,1.327-.407,2.924-1.736,3.219-1.465.325-2.544-.293-3.056-1.688-.474-1.293.422-2.838,1.93-3.258Z" fill="#fff"/>
            <path d="M278.746,275.851c-1.011-.869-1.902-1.274-1.978-1.798-.083-.567.594-1.245.94-1.875.633.352,1.576.569,1.808,1.097.211.48-.35,1.3-.769,2.575Z" fill="#fff"/>
            <path d="M272.08,264.125c-.95-.717-1.797-1.04-1.892-1.514-.101-.502.4-1.491.844-1.636.446-.146,1.43.351,1.652.817.207.436-.276,1.2-.603,2.333Z" fill="#fff"/>
            <path d="M282.795,222.336c-.75-.593-1.578-.947-1.59-1.328-.018-.555.55-1.13.868-1.696.551.355,1.328.6,1.572,1.103.163.336-.432,1.04-.85,1.92Z" fill="#fff"/>
          </g>
          <g>
            <path d="M294.846,206.74c.39-1.308,1.75-2.054,3.078-1.69,1.397.383,2.164,1.783,1.722,3.143-.416,1.282-1.824,2.018-3.123,1.633-1.295-.385-2.062-1.795-1.677-3.086Z" fill="#fff"/>
            <path d="M300.625,219.138c-1.016-.351-1.533-1.392-1.205-2.424.341-1.074,1.444-1.622,2.508-1.245,1.007.357,1.537,1.419,1.213,2.431-.343,1.069-1.441,1.61-2.515,1.238Z" fill="#fff"/>
            <path d="M288.302,199.568c.089-.276.15-.565.274-.825.381-.801,1.022-1.103,1.84-.747.829.361,1.006,1.064.691,1.868-.165.42-.466.786-.643,1.203-.326.766-.855,1.154-1.665.849-.826-.311-.927-.978-.655-1.746.069-.195.129-.394.193-.592-.011-.004-.022-.007-.034-.011Z" fill="#fff"/>
            <path d="M293.886,168.278c-1.045-.296-1.609-1.131-1.381-2.043.214-.858,1.188-1.4,2.076-1.156.893.246,1.778,1.881,1.49,2.755-.227.69-.863.819-2.185.444Z" fill="#fff"/>
            <path d="M284.079,180.183c.324-.873,1.394-1.346,2.293-1.015.916.337,1.336,1.235.996,2.131-.344.908-1.366,1.38-2.262,1.044-.85-.319-1.334-1.336-1.028-2.161Z" fill="#fff"/>
            <path d="M281.982,203.671c.822-.237,1.352-.571,1.638-.425.319.162.585.777.546,1.162-.023.226-.74.601-1.043.521-.349-.091-.586-.61-1.141-1.258Z" fill="#fff"/>
            <path d="M298.765,192.342c-.207-.794-.515-1.311-.37-1.602.157-.316.737-.421,1.132-.618.197.4.597.84.529,1.188-.062.317-.633.535-1.292,1.032Z" fill="#fff"/>
            <path d="M299.505,184.077c-.229-.695-.544-1.155-.426-1.429.125-.29.725-.614,1-.531.276.083.6.679.549.992-.048.293-.56.51-1.123.968Z" fill="#fff"/>
          </g>
        </g>
      </g>
    </g>
  </g>
  <g clip-path="url(#g)">
    <rect x="5.286" y="7.067" width="287.116" height="269.478" fill="url(#h)"/>
    <path d="M218.583,151.016h0c0-.493-.014-.981-.039-1.467-.008-.158-.024-.314-.035-.472-.022-.328-.045-.655-.078-.979-.019-.182-.044-.362-.067-.543-.036-.297-.073-.594-.119-.889-.029-.187-.064-.373-.097-.559-.05-.287-.102-.573-.161-.856-.038-.182-.08-.363-.121-.544-.065-.286-.134-.571-.208-.854-.045-.173-.093-.345-.142-.517-.082-.29-.168-.578-.259-.864-.05-.158-.101-.316-.154-.473-.102-.301-.209-.599-.32-.896-.052-.137-.103-.275-.156-.411-.126-.322-.26-.64-.398-.956-.047-.106-.091-.213-.139-.319-.164-.362-.336-.72-.514-1.074-.028-.056-.054-.112-.083-.168-4.458-8.714-13.316-14.834-23.728-15.357l-31.698-1.591v-62.687c0-2.229-1.807-4.037-4.037-4.037-1.96,0-3.636,1.408-3.976,3.338l-8.558,48.687c-2.299.507-4.635.889-6.947,1.327-1.608.304-3.223.647-4.81,1.076-2.146-2.615-5.172-4.804-9.457-6.038-.227,3.959.049,7.278.65,10.083-2.299,1.776-4.175,4.209-5.063,6.914-2.39-4.581-6.425-8.665-13.253-10.633-.457,7.975.851,13.708,2.903,17.845-1.476.8-2.843,1.815-4.025,2.992-3.508,3.498-5.569,8.22-6.74,13.033-.762,3.132-1.18,6.377-.868,9.584.293,3.028,1.229,5.965,1.541,8.992.718,6.946-2.097,14.166-7.326,18.794,2.247-.039,4.484-.363,6.654-.94-.619,2.139-1.286,4.269-2.174,6.332-4.746,11.023-16.058,19.659-29.114,22.228,5.295,1.22,10.88,2.414,16.358,2.757-3.254,5.392-6.801,10.608-10.749,15.512-3.535,4.391-7.466,8.609-12.392,11.351-2.387,1.329-5.049,2.261-7.756,2.649,2.598.768,5.185,1.788,7.782,2.486,1.696.456,3.429.741,5.174.898-4.805,2.783-10.064,5.121-15.838,6.802,0,0-5.841,32.303,51.557,32.303,24.573-20.645,25.076-79.019,38.172-89.607,7.715-6.238,34.381-11.121,54.995-14.081,0,0,.002.001.002.002.501-.072,1.016-.148,1.51-.218,11.762-1.66,20.975-10.399,23.567-21.545.096-.413.183-.829.26-1.248.311-1.677.472-3.403.472-5.162h0Z" fill="none" stroke="#fff" stroke-linecap="round" stroke-linejoin="round" stroke-width="20"/>
    <g filter="url(#i)">
      <path d="M140.005,126.395l12.05-68.553c.339-1.93,2.016-3.338,3.976-3.338h0c2.229,0,4.037,1.807,4.037,4.037v67.854h-20.062Z" fill="#ffd66e"/>
      <g clip-path="url(#k)">
        <g>
          <path d="M161.447,123.712s-13.295-3.082-19.714-17.996" fill="none" stroke="#f4af13" stroke-linecap="round" stroke-linejoin="round" stroke-width="1.44"/>
          <path d="M161.996,105.715c-3.343-.114-13.216-5.855-17.495-15.798" fill="none" stroke="#f4af13" stroke-linecap="round" stroke-linejoin="round" stroke-width="1.44"/>
          <path d="M162.546,87.719c-6.686-.229-13.137-8.629-15.277-13.6" fill="none" stroke="#f4af13" stroke-linecap="round" stroke-linejoin="round" stroke-width="1.44"/>
          <path d="M163.095,69.723c-10.029-.343-13.059-11.402-13.059-11.402" fill="none" stroke="#f4af13" stroke-linecap="round" stroke-linejoin="round" stroke-width="1.44"/>
        </g>
      </g>
      <path d="M99.604,282.877c24.573-20.645,25.076-79.019,38.172-89.607,7.905-6.391,35.707-11.361,56.507-14.297,13.94-1.968,24.3-13.878,24.3-27.956h0c0-15.042-11.794-27.443-26.817-28.197l-53.248-2.673c-11.354-.57-21.378,7.337-23.461,18.513-3.077,16.513-7.24,38.672-8.817,46.251-2.628,12.633-18.721,54.168-58.194,65.663,0,0-5.841,32.303,51.557,32.303Z" fill="#efa78e"/>
      <path d="M200.114,124.533c-11.094,5.309-18.777,16.606-18.777,29.726,0,9.969,4.443,18.885,11.435,24.931.501-.072,1.016-.148,1.51-.218,13.94-1.968,24.3-13.878,24.3-27.956h0c0-8.182-3.492-15.577-9.095-20.743-2.689-2.48-5.865-4.446-9.374-5.74Z" fill="#ffd66e"/>
      <g>
        <g>
          <path d="M197.406,140.884c-.395,0-.77.085-1.115.225,1.087.442,1.858,1.502,1.858,2.748v14.861c0,1.246-.77,2.306-1.858,2.747.345.141.719.225,1.115.225,1.642,0,2.972-1.331,2.972-2.972v-14.861c0-1.642-1.331-2.973-2.972-2.973Z" fill="#f4af13"/>
          <path d="M198.149,158.717v-14.861c0-1.246-.77-2.306-1.858-2.748-1.087.442-1.858,1.502-1.858,2.748v14.861c0,1.246.77,2.306,1.858,2.747,1.087-.441,1.858-1.501,1.858-2.747Z" fill="#42496f"/>
        </g>
        <g>
          <path d="M208.552,140.884c-.395,0-.77.085-1.115.225,1.087.442,1.858,1.502,1.858,2.748v14.861c0,1.246-.77,2.306-1.858,2.747.345.141.719.225,1.115.225,1.642,0,2.972-1.331,2.972-2.972v-14.861c0-1.642-1.331-2.973-2.972-2.973Z" fill="#f4af13"/>
          <path d="M209.295,158.717v-14.861c0-1.246-.77-2.306-1.858-2.748-1.087.442-1.858,1.502-1.858,2.748v14.861c0,1.246.77,2.306,1.858,2.747,1.087-.441,1.858-1.501,1.858-2.747Z" fill="#42496f"/>
        </g>
      </g>
      <path d="M146.321,166.334s-2.865-22.849,6.13-24.521,13.375,18.948,13.375,18.948" fill="none" stroke="#42496f" stroke-linecap="round" stroke-linejoin="round" stroke-width="2.159"/>
      <line x1="145.887" y1="162.99" x2="132.203" y2="161.69" fill="none" stroke="#42496f" stroke-linecap="round" stroke-linejoin="round" stroke-width="2.159"/>
      <line x1="133.231" y1="153.145" x2="145.967" y2="155.56" fill="none" stroke="#42496f" stroke-linecap="round" stroke-linejoin="round" stroke-width="2.159"/>
      <circle cx="134.669" cy="173.398" r="7.064" fill="#e86170" opacity=".5"/>
      <path d="M136.94,127.81s-16-1.466-14.657-24.916c14.412,4.153,14.657,19.054,14.657,24.916Z" fill="#efa78e"/>
      <path d="M149.934,104.572c-4.241,1.79-8.86,2.429-13.383,3.284-4.523.855-9.12,1.991-12.91,4.604-3.79,2.613-6.656,6.997-6.294,11.587l1.208.911c-.285,1.666.924,3.304,2.441,4.05,1.517.747,3.272.796,4.963.789,8.035-.037,16.974-1.547,21.853-7.932,4.25-5.561,4.171-13.088,5.477-20.015-.588,1.233-2.015,2.155-3.354,2.72Z" fill="#e86170"/>
      <path d="M116.554,129.526l.433-4.11c-4.866-.924-9.984,1.183-13.492,4.68-3.508,3.498-5.57,8.22-6.74,13.033-.762,3.132-1.18,6.377-.869,9.584.293,3.028,1.229,5.965,1.541,8.992.718,6.946-2.097,14.166-7.326,18.794,6.895-.119,13.711-2.884,18.738-7.604,5.028-4.72,8.219-11.347,8.773-18.22.676-8.388-2.42-16.844-1.059-25.148Z" fill="#e86170"/>
      <path d="M121.336,137.68s-18.251-1.672-16.719-28.422c16.44,4.737,16.719,21.734,16.719,28.422Z" fill="#efa78e"/>
      <path d="M122.406,137.015s-8.263-.994-10.225-16.898c7.762,2.816,9.565,12.922,10.225,16.898Z" fill="#ffd66e"/>
      <path d="M106.459,158.698l-4.521,1.366c-1.493,6.069-3.091,12.117-4.793,18.143-.732,2.592-1.487,5.186-2.562,7.684-4.746,11.023-16.058,19.659-29.114,22.228,10.668,2.458,22.516,4.817,32.283.306,9.195-4.246,13.988-13.765,14.457-22.904.469-9.138-2.657-18.09-5.749-26.823Z" fill="#e86170"/>
      <path d="M94.84,198.296l2.512-1.972c-3.025-.375-6.03,1.158-8.188,3.312-2.158,2.152-3.63,4.879-5.14,7.528-3.83,6.719-8.098,13.199-12.948,19.224-3.535,4.391-7.466,8.609-12.392,11.351-2.387,1.329-5.049,2.261-7.756,2.649,2.598.768,5.185,1.788,7.782,2.486,11.735,3.155,25.177-1.009,32.888-10.401,7.711-9.392,9.136-23.549,3.242-34.176Z" fill="#e86170"/>
    </g>
  </g>
</svg>