<?xml version="1.0" encoding="UTF-8"?>
<svg xmlns="http://www.w3.org/2000/svg" width="300" height="300" xmlns:xlink="http://www.w3.org/1999/xlink" viewBox="0 0 300 300">
  <defs>
    <clipPath id="b">
      <path d="M126.772,270.147c-.714.568-1.284,1.023-1.977,1.575-.003-.058.007.152.018.393-3.196-.319-3.327-2.383-.098-2.884,1.266-.458,1.292-1.73,1.796-3.082-1.457.556-2.442.47-3.814.697.252.876.893.851,1.45,1.442-.481.508-1.165.591-1.771.508-.164-1.022-1.028-2.49.117-3.246,1.081-.446-.186-1.686-.567-2.013-.576.277-1.111.961-.617,1.595.308.467.508.864-.116,1.321-1.184,3.272-3.027-.469-4.858-1.096.043-.188.129-.569.249-1.096-1.736,1.039-.908-3.182-2.925-.821-1.624-1.05-2.16-4.844-4.273-4.346-.195.121-.721-.087-.862-.323-.793-2.584-3.2-3.697-4.05-6.08-.648-1.513-1.976-2.377-3.113-3.449-.105-.152-.742-.109-.861.057-.955,1.197-2.936.12-3.038-1.301-.305-.566-1.47-1.131-1.391-1.989-.993-1.138.043-1.066.753-1.648-.713-.298-.871-.891-.862-1.733.182-.805-1.666-2.151-.396-2.576,1.456-.278.308-1.173.293-2.22-.995,1.425-2.019,2.272-3.674,2.052-.749.61-1.209.199-1.709-.265-1.289-1.414-3.222.461-4.368,1.389.096-3.759-4.685.9-6.54,1.179-.045-1.293-1.546-2.313-2.535-1.037-2.249-.607-2.976-3.952-4.684-5.586-.354-1.535-2.399-1.151-2.496-2.62-.174-1.629-2.3-1.873-2.288-3.673-1.441-.59-1.123-2.543-2.161-3.441-1.784-2.289-6.496-5.151-5.755-8.104.894-.917,0-1.194-.607-1.76-.469-1.012-1.005-.044-1.776-.239,1.881-2.059-1.466-2.334,1.303-5.969.307-.896-.85-.648-1.11-.104-.689,1.234-1.677,1.063-2.634.934-.512-.549-.059-1.924-1.332-1.664-.087-.365-.174-.73-.265-1.114-1.241.3-1.93,1.597-.515,2.208-1.318,1.253-3.583,4.501-4.84,1.678-1.488.342-1.344-2.237-2.996-.947-.081-.699-.146-1.267-.22-1.908-.179.118-.405.268-.633.418-.357-.743-.386-1.794-1.555-1.625-.128-.956-.256-1.902-.401-2.984-.273.4-.459.674-.57.836-1.739-.398-2.103-2.224-3.029-3.533-.095.013-.19.027-.285.04-.063.335-.127.67-.19,1.006-.1-.005-.2-.01-.301-.014.267-3.392-2.866-4.422-3.859-7.278.268-1.007.296-1.422-.313-2.239-.385.414-.736.792-1.218,1.311-.78-.576-.39-2-1.553-1.698-.335-1.357-.028-2.349.869-3.26-.982-1.094,1.552-3.478-.432-3.648-.108.467-.211.908-.313,1.349h-.215c.026-1.112.053-2.223.084-3.524,2.431,1.178,2.282-2.245,2.499-3.943-.967.712-1.639,2.005-2.82,1.039.176.3.352.6.614,1.048-.519.131-.969.245-1.271.321-.347-1.909.465-3.139,1.711-4.501.127.086.294.199.395.268,2.901-4.637,5.805-9.825,10.004-13.792-1.101-.897-1.671-2.744-.22-3.567.661.055,1.365.339,1.709.081.63-.781,1.133-1.841-.331-2.352-.007-1.37,1.816-2.873.508-4.08-.762-.851-.499-2.634-1.967-2.737-1.541-.467-2.351.923-3.668,1.337-1.282-.241-1.534,1.02-2.196,1.866-.778-.443-1.737-.572-2.254-1.223-.354-1.428-1.427-.995-2.579-1.251.279-.295.512-.541.756-.799-1.61-.454-1.243,1.18-.684,1.971-.347.287-.659.544-1.161.959-.146-.998.719-2.27-.491-2.696-2.003-.024-2.094-3.775-4.13-2.353.013-.316.026-.622.039-.933-1.119-.022-1.15-.978-1.739-1.663-2.298-1.886-1.623-1.258-2.3-3.981-.202.134-.39.26-.632.421-.647-.984-1.563-1.132-1.856-2.568-1.328-2.881-5.346-3.058-7.079-5.386-.585.083-1.041.148-1.601.228,1.383-2.045.167-3.317.285-5.289.802-1.974,1.602-3.943,2.4-5.907l.357.032c-.084.989-.167,1.98-.27,3.197.814-.916.531-1.853.959-2.706.183.12.335.22.487.32.067-.034.134-.067.201-.101.024-1.515-1.858-.945-.615-2.467,8.097-15.249,14.395-31.292,23.079-46.174.452-.861.735-1.603,1.645-.565,1.744.56,1.811-2.35,3.56-2.194.431-.026.743-1.269.438-1.892-.072.32-.123.543-.188.83-.996.023-1.962.045-2.946.068.288-2.054,2.598-2.155,4.1-1.523,1.683-2.489,2.304-6.224,5.744-6.788-.14-.172-.266-.327-.539-.662,2.52-.59,4.58,2.546,6.67,1.905.44-.39.743-.297.818.309-.216.079-.43.157-.716.261,4.26,1.531,8.617,5.253,12.519,6.025.919,2.415,2.378-.584,3.433-1.49.519-.833,1.393-.071,2.021-.601,8.953-9.038,16.928-19.513,26.772-26.991.548-.009,1.596.235,1.946.822,1.848,1.277,2.466-3.795,6.841,1.161.667,1.147,2.425-.463,2.708,1.046.282,1.139,1.689,1.087,2.207,2.067,1.786,1.081,2.565,3.146,4.737,3.803.689.392.8.85,1.497-.017.118,1.414.309,1.516,1.399.76.079.407.154.792.229,1.178l1.123-.477c-.465,6.943,24.591-23.986,27.83-25.766,1.614.353-.188,1.261.697,2.163.504.143.961-.691,1.338-.89,1.676-.328-.022,1.919,1.229,2.224.722.181.831,1.901,1.677.962.181.363.422.654.47.981.121.87,1.498.81,1.687.114.111-.926-.632-2.356.922-2.128.695.044.417,1.093.954,1.37-.252.402-.445.71-.638,1.018.435.124.871.249,1.436.41-.455,1.116-.409,1.297.704,1.757.236,1.007,1.231,1.468,1.973,2.04.853.704,1.654,2.045,3.013,1.97-.367,1.39,1.423.545,2.121.967-1.036.973-.927,1.293.14,1.928-.026.064-.052.129-.078.193-.473-.052-.945-.105-1.599-.177.27.731,1.157.622.746,1.475-.068.73,1.223.916,1.837.424-.165.316-.264.505-.399.765.57-.039.209,1.014.965.708.422-.171.76-.545,1.101-.949-1.081.652-1.342-.397-.403-.954,1.362.035,2.055-.861,2.827-1.742,1.164-1.315,2.162-2.092,3.896-1.315.42.365.792.737,1.358.086,1.024.926,2.01,1.817,2.997,2.709.08-.067.161-.134.241-.2-.201-.332-.402-.663-.707-1.165,1.923,1.296,3.917-1.03,5.357.406.242,1.625,1.152,2.489,2.362,3.451,1.077.962.459,2.642,1.638,3.51.591.438.42,1.541,1.363.95,1.136-.803,2.064,1.302,1.41,2.168.424.081.745.143,1.018.195-.349.427-.657.804-.966,1.18.601.262-.509,1.372.736,1.339.079-.234.163-.483.242-.715.997.668,2.299,1.187,1.222,2.566.322.045.606.085.957.133-.052.234-.096.434-.112.508.399.361.738.669,1.123,1.017-.197.249-.374.474-.652.826.998-.259,1.849-.481,2.782-.723.017.314.026.498.036.679,2.534.548.472,4.428.011,6.054.081.056.162.112.243.169,1.616-1.377,2.453-3.491,3.878-5.066.083.048.165.097.248.145-.384.974-.893,1.909-1.079,2.947,1.031-.032,1.49-.808,2.019-1.568,3.259,2.237,14.631-18.5,13.479-7.991.094.03.189.059.283.089,1.094-2.144,4.509-2.623,4.519.402-.096.89.735.556,1.293.499.593-.139.81.106.812.662-.08,1.962,4.51.524,3.973,3.236,2.144-.457,1.241,2.226,2.864,2.406.605-.004,1.21.372,1.837.587-.225.485-.433.934-.678,1.461,5.02.996,1.101.777,3.501,2.933,4.404,2.295.161,6.216-.403,9.674.089.041.178.082.266.123-.185.117-.369.233-.605.382.059.154.126.329.196.511-1.449.027-.687,1.274-1.387,2.138-.349.477-.522.808.079,1.218.73.849.617,2.264.918,3.296-.073-.059-.231-.188-.271-.221-.656,1.441.088,2.991-1.8,3.481-.204.757-.278,1.634-1.183,2.076-.315-.334-.584-.62-.852-.905-.137-.009-.274-.017-.41-.026.293,2.122-.855,3.447-1.799,5.239,1.242.98,3,.811,3.902,1.869.136.202.265.614.366.604,1.437-.079,1.729,1.318,2.679,1.994.643-.661,1.245-1.281,1.864-1.918.26.187.466.335.672.483.052-.03.105-.061.157-.091l-.428-.924c1.562-3.164,1.703.665,2.812-1.18.475.196-.208,1.169.688.926.129-.035.115-.591.193-1.067,1.148-.008,1.437,1.548,2.789.384.073.773.039,1.143.215,1.756,1.685-.842,3.335-2.183,4.895-3.547,1.023-1.326,1.915-1.908,3.486-.744-.475.142-.748.223-1.02.305-.005.067-.011.135-.016.202.378.068.756.137,1.195.217.034-.181.063-.334.1-.528,1.723.228.025,1.229,1.078,1.799.134-.204.256-.391.296-.453,1.868.37,1.023-1.643.979-2.751l.204-.01c1.293,1.101,1.019,3.405,2.372,4.092.478.042.83.144,1.165.502,1.443.824.727-1.53,1.45-1.887.825-.061,1.284.754,1.73,1.415-.65,1.95,2.239,2.847,3.33,4.16-1.55-.417-2.332-.086-.804,1.442.229-.349.361-.551.594-.905.361.657.506,1.139,1.073,1.535.326-.601.054-1.047-.141-1.632.68.197,1.275.399.869,1.299.351,2.153,4.294-.792,3.39,2.185.898-.303,3.057.317,1.793,1.39-.131.095-.137.605-.006.756.169.194.628.381.795.285.865-.523,1.285.614,1.879,1.035,1.081,1.873-1.129,3.834-.969,5.528,1.202.529-.36,2.016-1.067.878-.308.414-.488.762.194.862,1.616,1.818-2.468,6.466-3.68,8.628.365-.107.59-.173.909-.267.159.618,1.012,1.706-.01,1.987-.745.554-.263,1.555-.229,2.5.289.015,1.168-.414,1.404-.381.598.516,1.12.261,1.637-.051.559-.337.696-.053.782.465.801,2.367,1.179,4.776,2.081,7.035.296,1.29.714,3.393,2.176,3.714.357.969,1.887,1.054,1.624,2.511,2.597-.272,2.122,3.134,2.166,4.769,2.929,1.423-1.903,4.927-2.06,7.046-1.368,1.049-1.719,3.218-2.761,3.844-.552.332.13,1.785-.94,1.65-.796.839-1.221,1.956-2.062,3.186,3.359.425,6.449.815,9.532,1.205.032,1.666.885.365,1.742,1.274-.463.32-.798.55-1.11.766,1.152,1.211,1.958,3.802.022,4.516-1.213-.421-.742.496-.819,1.117.542-.177.997-.326,1.52-.497.973,1.168-1.798,1.906-.43,3.306.013,5.671-9.282,6.554-2.154,13.149-.601.93.805,1.579.35,2.49-.864,1.241-.557,2.496,1.028,2.77.031-.119.095-.368.163-.633,1.014.619,2.481,4.084,2.35,5.432.203-.031.46-.071.716-.111-.01.096-.021.192-.031.288-.183.196-.365.393-.548.59.022.092.044.183.066.275.393-.066.786-.133,1.324-.224-.604.681-.237,2.147-1.186,2.219-.146-.009-.301.289-.452.446.707.611,1.519-.008,2.306-.16.039.066.079.131.118.197-3.126,4.171-9.064,6.455-10.856,11.429-.128,1.576-.41.812-1.467,1.079.511.307,1.427.88.622,1.38-.764.446.062,1.168-.253,1.875-.087.003-.174.006-.261.009-.122-.197-.243-.393-.517-.836-2.745,9.891-14.735,10.7-21.933,16.161-4.721,4.006-9.465,8.241-14.742,11.416-1.032,1.679-4.844,4.864-6.137,2.157.234-.101.458-.199.914-.396-.521-.325-.863-.539-1.347-.841.147,1.114-.969,3.195-.613,1.098-1.212-.582-.148-1.97-.78-3.19-.401.884-.706,1.557-1.011,2.231-1.428-.731-.155-3.632-1.829-3.831-.673,1.024-1.157.594-1.616-.31-.299.539-.537.97-.797,1.437-3.272-3.432-9.814,6.669-13.382,6.068-1.938.182-3.462,3.741-5.535,2.824-8.971-2.229-27.887,23.203-33.172,18.759.277-.119.533-.228,1.027-.44-.491-.356-.823-.597-1.214-.881-1.253,2.454-1.359-.662-1.252-1.807-.098-.031-.197-.062-.295-.093-.366.652-.732,1.305-1.092,1.947-1.624-.22.047-4.78-1.789-3.836-.899,1.306-.917.067-1.661-.321-.179.432-.346.837-.504,1.219-2.082-1.718-4.408.854-6.83.32-.817.38-2.702,1.194-2.44-.602.711-.752,1.476-3.949-.374-3.102-.693-1.096-.614-1.406.383-1.632-.13-1.436-.512-1.982-1.573-.714.167-2.383-1.748-3.383-1.153-5.508.157-.534-.429-1.418-.268-1.963.769-1.473-.333-2.133-.906-3.004-1.931-.74-2.614-2.2-3.516-4.067-.659.517-1.34,1.051-2.08,1.631.027-.286.049-.514.074-.772-2.134.455-.86,2.028-2.308,3.424-.48-2.06,1.266-3.471,1.159-5.483-7.491,8.85-14.265,20.34-21.905,27.933ZM281.647,165.413c.861.91-.177,1.368.871,1.808.243-.854,1.473-1.293.613-2.462l-.624.31-.413-.196c.221-.269.443-.537.662-.803-1.404-1.639-1.201.322-1.109,1.344ZM33.541,183.748c-.44.598-.881,1.197-1.321,1.794.416.232.892.496,1.372.764.972-1.015.967-1.809-.051-2.558ZM282.421,173.251c-.222-.095-.444-.189-.666-.284.342-.493.685-.986.992-1.43-.25-.17-.55-.375-.848-.578q-.56.478.02,1.052c-.282.189-.563.377-.843.564-.009.121-.018.242-.026.363.457.104.914.208,1.372.313ZM280.446,162.308c-.318.619-.555,1.08-.89,1.733,1.061-.275,2.309-1.141.89-1.733ZM230.913,89.214c-.07.023-.14.046-.21.069-.088.634-.176,1.268-.273,1.965l.902-.413c-.137-.532-.278-1.077-.419-1.622ZM179.677,43.765c-.848.503-.866.792-.101,1.425.035-.491.064-.905.101-1.425ZM38.809,78.717c.649.155,1.027.174,1.063-.485-.428-.544-.687.017-1.063.485ZM31.936,191.013c-.467.934-.379,1.117.477,1.239-.178-.463-.328-.851-.477-1.239ZM281.27,169.697c.154.012.308.025.462.037.005-.409.011-.818.016-1.226-.12-.01-.24-.02-.36-.03-.039.406-.079.812-.118,1.218ZM76.359,239.142c-.032.385-.064.77-.106,1.275.927-.494.838-.89.106-1.275Z" fill="none"/>
    </clipPath>
    <linearGradient id="c" data-name="Dégradé sans nom 13" x1="148.843" y1="67.007" x2="148.843" y2="252.017" gradientUnits="userSpaceOnUse">
      <stop offset="0" stop-color="#ffd66e"/>
      <stop offset="1" stop-color="#e86170"/>
    </linearGradient>
    <filter id="d" data-name="drop-shadow-3" x="-187.229" y="77.85" width="438.875" height="226.235" filterUnits="userSpaceOnUse">
      <feOffset dx="-6" dy="0"/>
      <feGaussianBlur result="e" stdDeviation="0"/>
      <feFlood flood-color="#42496f" flood-opacity="1"/>
      <feComposite in2="e" operator="in"/>
      <feComposite in="SourceGraphic"/>
    </filter>
    <clipPath id="f">
      <path d="M-155.338,143.077l50.222,145.872H157.49s68.619-42.162,68.619-145.871l4.036-45.627h-8.072s-8.26,45.627-8.26,45.627c-90.117,14.568-182.698,11.536-236.557,5.768l-11.265-28.866-129.543-11.265,6.008,27.084-8.064-.375v7.654s10.27,0,10.27,0Z" fill="none"/>
    </clipPath>
  </defs>
  <g isolation="isolate">
    <g id="a" data-name="bateau 05">
      <g clip-path="url(#b)">
        <rect x="5.286" y="7.067" width="287.116" height="269.478" fill="url(#c)"/>
        <path d="M224.808,232.145c-5.171-1.835-17.195,5.1-28.923,13.34,14.942-23.462,28.322-57.248,28.322-103.041l4.036-45.627h-8.072l-8.26,45.627c-90.117,14.568-182.698,11.536-236.557,5.768l-11.265-28.866-1.429-.124v-22.532l9.705.761.67-8.545-140.985-11.056-.67,8.545,5.682.446,4.46,21.848-6.977-.607,6.008,27.083-8.064-.375v7.654h10.27l16.758,48.674-.295.39c-.452.596-.872,1.212-1.277,1.836-.18.274-.356.549-.528.828-.145.238-.281.481-.42.722-2.972,5.101-4.581,10.908-4.581,16.859v26.463c0,9.17-4.97,17.619-12.984,22.075-6.03,3.352-9.769,9.71-9.769,16.609v12.051h47.306v-13.706c0-7.22,1.493-14.318,4.325-20.874l11.687,33.947H155.588s4.023-2.476,10.113-7.687l30.029,9.394s3.394-4.535,7.587-10.804l.748.234s32.329-43.196,20.744-47.307ZM-40.502,118.946l-9.862-.858-.552-22.464,10.414.817v22.505ZM-102.645,113.543l-2.616-22.18,10.39.815,2.118,22.225-9.892-.86ZM-91.67,92.429l10.398.815,1.61,22.297-9.887-.86-2.121-22.253ZM-78.082,93.494l10.405.816,1.088,22.368-9.881-.859-1.612-22.325ZM-64.498,94.56l10.411.816.551,22.437-9.873-.859-1.089-22.395ZM-142.03,110.118l-4.023-21.954,10.355.812,3.562,22.002-9.894-.86ZM-128.886,111.261l-3.567-22.03,10.368.813,3.094,22.078-9.895-.86ZM-159.657,87.097l10.341.811,4.018,21.926-9.892-.86-4.466-21.876ZM-115.757,112.403l-3.098-22.106,10.379.814,2.613,22.152-9.894-.86Z" fill="none" stroke="#fff" stroke-linecap="round" stroke-linejoin="round" stroke-width="20"/>
        <g>
          <g>
            <g>
              <path d="M204.065,279.452s32.329-43.196,20.744-47.307c-11.585-4.111-57.565,35.789-57.565,35.789l36.821,11.518Z" fill="#fff"/>
              <path d="M195.73,290.022s32.329-43.196,20.744-47.307c-11.585-4.111-57.565,35.789-57.565,35.789l36.821,11.518Z" fill="#9bc8ec"/>
              <g>
                <path d="M226.547,267.283c-1.36.687-2.67-.211-2.962-1.111-.347-1.074.152-2.242,1.175-2.64,1.078-.42,2.274.103,2.703,1.185.069.174.11.359.174.536.546,1.488.473,1.626-1.091,2.031Z" fill="#fff"/>
                <path d="M229.462,234.725c.296.982-.248,2.013-1.233,2.333-1.035.337-2.095-.224-2.38-1.26-.269-.977.31-2.021,1.285-2.316.972-.294,2.036.274,2.328,1.243Z" fill="#fff"/>
                <path d="M211.901,248.819c.242.825-.152,1.465-1.088,1.766-.902.289-1.842-.186-2.1-1.061-.25-.85.247-1.731,1.117-1.981.912-.262,1.775.269,2.071,1.277Z" fill="#fff"/>
                <path d="M204.939,258.149c-.231-.855.238-1.69,1.073-1.908.827-.216,1.668.281,1.896,1.121.246.908-.221,1.805-1.052,2.023-.837.219-1.668-.317-1.916-1.235Z" fill="#fff"/>
                <path d="M227.389,254.358c.245.822-.221,1.707-1.031,1.958-.821.255-1.694-.215-1.939-1.044-.248-.842.201-1.689,1.033-1.947.84-.261,1.686.19,1.936,1.033Z" fill="#fff"/>
                <path d="M214.626,275.724c.206.789-.301,1.612-1.111,1.801-.77.18-1.547-.277-1.767-1.04-.232-.807.229-1.61,1.049-1.828.803-.213,1.618.262,1.828,1.067Z" fill="#fff"/>
                <path d="M220.708,229.334c.783-.2,1.538.24,1.759,1.023.23.815-.236,1.615-1.059,1.818-.78.193-1.552-.255-1.766-1.024-.227-.812.239-1.606,1.066-1.817Z" fill="#fff"/>
                <path d="M208.616,268.999c-.192-.74.211-1.463.903-1.62.717-.162,1.507.31,1.692,1.01.191.721-.209,1.406-.935,1.601-.749.202-1.462-.224-1.661-.992Z" fill="#fff"/>
                <path d="M236.533,236.519c.058.21.14.417.17.631.092.66-.186,1.115-.846,1.229-.669.116-1.071-.251-1.206-.886-.07-.332-.033-.686-.094-1.021-.112-.616.059-1.078.694-1.222.647-.146.986.23,1.133.824.037.151.082.301.124.451.008-.002.017-.005.026-.007Z" fill="#fff"/>
                <path d="M201.72,244.86c-.216-.707.162-1.461.831-1.66.678-.202,1.498.264,1.703.968.193.663-.25,1.446-.918,1.623-.687.182-1.402-.23-1.616-.931Z" fill="#fff"/>
                <path d="M245.969,258.462c.778-.246,1.477.044,1.711.711.22.627-.167,1.37-.825,1.584-.662.215-1.894-.445-2.074-1.113-.143-.527.203-.871,1.188-1.182Z" fill="#fff"/>
                <path d="M240.008,266.874c-.176-.707.262-1.429.992-1.571.763-.148,1.298.171,1.536.909.229.708-.194,1.413-.923,1.602-.722.188-1.426-.224-1.605-.94Z" fill="#fff"/>
                <path d="M247.199,246.937c.157.682-.318,1.421-1.02,1.585-.714.167-1.349-.223-1.507-.925-.16-.712.286-1.431.988-1.591.665-.152,1.39.287,1.539.931Z" fill="#fff"/>
                <path d="M228.899,242.891c.656-.183,1.383.211,1.579.855.206.676-.239,1.424-.949,1.597-.672.163-1.374-.249-1.541-.906-.165-.651.254-1.363.911-1.546Z" fill="#fff"/>
                <path d="M233.915,258.929c-.598.084-1.095-.155-1.304-.83-.191-.618.22-1.347.838-1.469.68-.134,1.173.163,1.394.814.205.603-.226,1.307-.928,1.485Z" fill="#fff"/>
                <path d="M215.31,237.071c-.395-.31-.943-.542-1.148-.948-.306-.605.095-1.113.71-1.303.634-.195,1.228.089,1.322.71.066.439-.286.942-.452,1.417l-.432.125Z" fill="#fff"/>
                <path d="M216.703,255.652c.645.423,1.117.601,1.341.942.089.135-.303.8-.602.927-.529.224-1.014-.062-1.086-.68-.032-.274.158-.574.348-1.189Z" fill="#fff"/>
                <path d="M210.723,244.97c.424-.496.626-.943.894-.987.284-.047.631.29.951.459-.18.314-.294.787-.559.896-.253.104-.662-.17-1.286-.368Z" fill="#fff"/>
                <path d="M221.262,241.147c-.389.462-.571.874-.821.92-.262.049-.588-.254-.887-.402.171-.314.272-.755.535-.898.194-.106.6.178,1.172.381Z" fill="#fff"/>
                <path d="M238.803,231.331c-.418.489-.612.917-.852.944-.267.03-.688-.246-.823-.503-.079-.151.216-.683.439-.759.257-.087.62.141,1.236.317Z" fill="#fff"/>
                <path d="M232.956,245.38c.458.413.865.609.895.852.032.263-.288.569-.455.856-.289-.17-.722-.28-.824-.527-.092-.224.176-.597.384-1.182Z" fill="#fff"/>
                <path d="M235.91,250.872c.431.342.819.5.858.72.041.233-.201.685-.408.747-.208.063-.657-.178-.755-.396-.091-.204.141-.552.304-1.072Z" fill="#fff"/>
                <path d="M208.882,237.916c.425.352.783.509.845.744.054.204-.208.692-.364.708-.269.026-.693-.149-.809-.368-.098-.184.151-.551.328-1.083Z" fill="#fff"/>
                <path d="M212.817,234.564c-.427-.365-.809-.537-.842-.762-.037-.247.247-.541.391-.815.268.154.667.252.764.48.09.21-.143.559-.313,1.097Z" fill="#fff"/>
                <path d="M230.502,270.07c.34.282.719.455.721.631.002.257-.267.516-.42.774-.251-.17-.607-.292-.715-.527-.072-.157.211-.476.414-.878Z" fill="#fff"/>
                <path d="M218.519,276.905c.328-.343.525-.712.715-.708.253.005.499.301.749.472-.174.221-.316.572-.531.625-.214.053-.502-.194-.933-.388Z" fill="#fff"/>
                <path d="M218.34,243.806c-.261.349-.396.698-.564.715-.242.024-.508-.194-.764-.308.15-.235.251-.56.465-.673.152-.08.455.128.863.266Z" fill="#fff"/>
                <path d="M218.158,250.524c-.259.334-.379.618-.582.703-.125.052-.541-.203-.537-.312.007-.227.157-.521.343-.644.113-.074.403.121.777.253Z" fill="#fff"/>
              </g>
            </g>
            <g filter="url(#d)">
              <path d="M-157.24,142.443l50.222,145.872H155.588s68.619-42.162,68.619-145.871l4.036-45.627h-8.072s-8.26,45.627-8.26,45.627c-90.117,14.568-182.698,11.536-236.557,5.768l-11.265-28.866-129.543-11.265,6.008,27.084-8.064-.375v7.654s10.27,0,10.27,0Z" fill="#efa78e"/>
              <g clip-path="url(#f)">
                <g mix-blend-mode="multiply" opacity=".5">
                  <path d="M-172.48,168.894s249.344,34.924,416.6,0" fill="none" stroke="#a384bb" stroke-linecap="round" stroke-linejoin="round" stroke-width="1.582"/>
                  <path d="M-170.337,202.907s205.722,32.433,421.192-2.422" fill="none" stroke="#a384bb" stroke-linecap="round" stroke-linejoin="round" stroke-width="1.582"/>
                  <path d="M-161.867,244.281s262.165,26.126,404.151-8.352" fill="none" stroke="#a384bb" stroke-linecap="round" stroke-linejoin="round" stroke-width="1.582"/>
                </g>
                <path d="M148.618,304.085s49.486-52.649,53.975-85.095c0,0-249.266,41.323-330.076-39.793,0,0,17.686,82.647,31.188,119.991l244.913,4.898Z" fill="#a384bb" mix-blend-mode="multiply" opacity=".25"/>
              </g>
            </g>
          </g>
          <g>
            <path d="M181.76,276.709s-24.825-68.031-46.888-52.53c-6.241,4.385,10.132,39.293,10.132,39.293,0,0-21.794-10.586-23.536-1.494-1.742,9.093-10.125,16.172-26.89,12.818-16.766-3.353,47.317,20.329,48.807,10.817,1.49-9.513,21.178,8.995,25.585,4.399,4.407-4.597-3.231-18.098,12.79-13.303Z" fill="#9bc8ec"/>
            <path d="M172.86,266.864c.798-14.715-21.865-54.278-37.989-42.685-10.614,7.632,7.478,30.126,10.132,39.293-13.467-7.775-29.207-8.683-33.42-4.342-4.213,4.341,7.769,6.186,4.471,10.132s-34.256,4.027-34.256,4.027c0,0,35.49,12.554,45.541,8.15,6.332-2.775-3.846-11.804,1.767-13.768,14.029-4.909,26.696,20.465,37.419,17.737,6.354-1.616-9.19-22.03-5.089-23.718,4.101-1.689,11.422,5.174,11.422,5.174Z" fill="#fff"/>
            <g>
              <g>
                <path d="M81.224,266.47c.927.517.919,1.624.513,2.143-.484.619-1.354.786-1.982.351-.662-.459-.827-1.353-.37-2.022.074-.108.165-.203.241-.309.646-.896.754-.907,1.598-.162Z" fill="#fff"/>
                <path d="M61.292,277.479c.452-.554,1.259-.641,1.828-.198.598.466.687,1.297.2,1.865-.459.536-1.288.609-1.838.161-.549-.446-.635-1.282-.19-1.829Z" fill="#fff"/>
                <path d="M76.274,282.123c.382-.462.905-.483,1.443-.06.518.408.61,1.136.206,1.626-.393.476-1.096.532-1.579.127-.507-.424-.536-1.129-.07-1.693Z" fill="#fff"/>
                <path d="M84.374,282.505c-.404.467-1.068.521-1.52.125-.447-.393-.488-1.073-.092-1.531.428-.496,1.128-.576,1.578-.181.452.398.467,1.087.034,1.588Z" fill="#fff"/>
                <path d="M73.434,271.022c.379-.462,1.072-.538,1.532-.168.468.375.537,1.062.153,1.526-.389.472-1.053.542-1.527.163-.478-.383-.547-1.047-.159-1.52Z" fill="#fff"/>
                <path d="M90.744,270.062c.375-.426,1.048-.454,1.473-.061.404.375.443,1.001.089,1.425-.375.449-1.019.496-1.464.107-.436-.381-.479-1.037-.097-1.471Z" fill="#fff"/>
                <path d="M61.593,284.633c-.42-.374-.461-.981-.095-1.414.381-.451,1.024-.493,1.462-.098.415.375.458.995.098,1.419-.381.448-1.02.488-1.465.093Z" fill="#fff"/>
                <path d="M89.204,276.153c-.352.399-.927.448-1.287.11-.373-.351-.409-.991-.076-1.371.342-.391.893-.427,1.289-.085.409.354.441.931.075,1.346Z" fill="#fff"/>
                <path d="M59.571,272.697c.099-.115.186-.243.298-.344.345-.311.716-.327,1.04.009.328.341.272.716-.042,1.042-.164.17-.383.286-.553.452-.312.305-.645.386-.976.076-.337-.316-.251-.659.034-.976.073-.081.141-.165.212-.247-.005-.004-.009-.008-.014-.012Z" fill="#fff"/>
                <path d="M77.957,289.543c-.324.4-.906.476-1.282.167-.381-.313-.431-.968-.105-1.361.307-.37.932-.419,1.295-.102.373.326.413.899.092,1.296Z" fill="#fff"/>
                <path d="M68.562,258.697c-.445-.353-.55-.87-.257-1.265.276-.372.856-.438,1.236-.141.382.298.481,1.267.166,1.631-.249.288-.582.222-1.145-.225Z" fill="#fff"/>
                <path d="M75.741,258.858c-.339.377-.927.406-1.294.04-.383-.383-.407-.816-.074-1.241.319-.408.891-.439,1.285-.092.39.344.426.911.083,1.293Z" fill="#fff"/>
                <path d="M61.428,262.479c.332-.357.944-.37,1.312-.029.375.347.397.866.053,1.23-.349.37-.938.392-1.303.05-.347-.325-.376-.914-.062-1.251Z" fill="#fff"/>
                <path d="M66.226,274.621c-.361-.308-.417-.881-.122-1.245.31-.382.915-.417,1.292-.075.356.324.392.89.077,1.243-.311.349-.886.385-1.247.077Z" fill="#fff"/>
                <path d="M73.53,265.473c.282.313.338.692.029,1.076-.282.351-.863.398-1.174.089-.343-.341-.363-.741-.074-1.122.268-.354.843-.379,1.219-.043Z" fill="#fff"/>
                <path d="M68.163,284.734c-.025.349.054.756-.1,1.032-.23.412-.679.379-1.029.098-.36-.29-.427-.743-.105-1.04.228-.21.655-.202.994-.291l.24.201Z" fill="#fff"/>
                <path d="M78.347,276.687c-.008-.537-.089-.879.021-1.141.044-.104.58-.137.77-.014.336.218.359.61.031.892-.146.125-.393.133-.822.263Z" fill="#fff"/>
                <path d="M74.512,284.303c-.451-.051-.788.006-.918-.131-.138-.146-.079-.477-.105-.728.251-.019.569-.137.735-.027.159.105.16.448.288.886Z" fill="#fff"/>
                <path d="M68.196,279.709c.418.045.727-.011.851.115.13.132.083.439.113.669-.248.024-.542.137-.727.041-.137-.071-.131-.416-.237-.825Z" fill="#fff"/>
                <path d="M55.692,273.409c.445.051.768-.004.877.124.122.143.127.493.03.671-.056.105-.478.142-.609.042-.15-.114-.16-.413-.299-.837Z" fill="#fff"/>
                <path d="M66.082,271.308c.06-.425.015-.737.143-.849.139-.121.441-.055.672-.071.015.233.12.526.017.681-.094.141-.413.131-.832.239Z" fill="#fff"/>
                <path d="M68.101,267.462c.029-.382-.03-.668.081-.776.119-.115.474-.151.59-.056.117.095.153.449.066.59-.082.132-.373.134-.737.242Z" fill="#fff"/>
                <path d="M71.157,288.116c.038-.382-.011-.65.1-.778.097-.111.481-.15.55-.066.12.145.184.458.103.611-.068.128-.377.128-.753.233Z" fill="#fff"/>
                <path d="M67.688,287.151c-.044.389.005.676-.112.783-.128.117-.409.068-.623.092-.015-.215-.114-.483-.021-.628.086-.134.379-.135.756-.247Z" fill="#fff"/>
                <path d="M81.292,263.101c.03-.307-.018-.592.083-.662.147-.101.402-.047.611-.059,0,.211.068.464-.026.618-.063.103-.357.064-.668.103Z" fill="#fff"/>
                <path d="M89.908,267.354c-.326-.056-.616-.026-.688-.137-.096-.148-.021-.406-.02-.616.195.014.453-.041.568.063.114.103.084.366.139.69Z" fill="#fff"/>
                <path d="M70.87,280.36c.303.014.557-.044.633.047.108.13.086.369.12.561-.194.005-.421.073-.57-.006-.105-.056-.103-.313-.183-.602Z" fill="#fff"/>
                <path d="M74.82,277.846c.294.019.504-.022.633.062.079.052.093.391.029.432-.134.084-.362.113-.505.053-.087-.036-.087-.28-.157-.547Z" fill="#fff"/>
              </g>
              <g>
                <path d="M137.443,267.135c.283,2.081-1.476,3.382-2.78,3.356-1.555-.031-2.851-1.207-2.909-2.718-.061-1.592,1.157-2.915,2.759-2.987.258-.012.517.019.776.014,2.184-.041,2.33.115,2.154,2.335Z" fill="#fff"/>
                <path d="M96.358,248.686c1.412.056,2.509,1.229,2.483,2.655-.027,1.499-1.235,2.627-2.712,2.532-1.393-.089-2.492-1.313-2.438-2.715.054-1.398,1.273-2.528,2.666-2.472Z" fill="#fff"/>
                <path d="M106.808,277.896c1.184.056,1.84.858,1.809,2.212-.029,1.304-1.072,2.315-2.327,2.257-1.219-.057-2.143-1.1-2.077-2.347.069-1.306,1.15-2.189,2.595-2.122Z" fill="#fff"/>
                <path d="M115.823,291.161c-1.218-.084-2.094-1.071-2.002-2.255.091-1.174,1.117-2.046,2.313-1.964,1.293.088,2.251,1.1,2.16,2.281-.092,1.188-1.164,2.029-2.47,1.939Z" fill="#fff"/>
                <path d="M120.991,260.221c1.18.051,2.123,1.056,2.086,2.223-.037,1.185-1.042,2.11-2.232,2.055-1.209-.056-2.109-1.021-2.071-2.222.038-1.211,1.006-2.109,2.216-2.057Z" fill="#fff"/>
                <path d="M143.069,286.458c1.12.087,1.963,1.118,1.845,2.257-.112,1.084-1.057,1.89-2.149,1.833-1.155-.06-1.994-1.023-1.908-2.189.084-1.142,1.07-1.989,2.212-1.901Z" fill="#fff"/>
                <path d="M85.4,257.658c.092-1.109,1.004-1.895,2.123-1.83,1.165.067,1.997,1.034,1.891,2.197-.1,1.102-1.03,1.906-2.128,1.839-1.16-.07-1.984-1.034-1.886-2.206Z" fill="#fff"/>
                <path d="M131.607,291.256c-1.05-.083-1.81-.934-1.703-1.905.112-1.007,1.082-1.823,2.077-1.749,1.025.076,1.737.905,1.665,1.938-.074,1.067-.949,1.803-2.039,1.716Z" fill="#fff"/>
                <path d="M101.877,240.285c.3.019.606.006.898.063.901.177,1.368.743,1.22,1.655-.15.924-.81,1.282-1.697,1.171-.464-.058-.908-.266-1.371-.337-.852-.131-1.377-.562-1.278-1.453.101-.908.744-1.18,1.584-1.104.214.019.429.028.643.042,0-.012.002-.024.002-.036Z" fill="#fff"/>
                <path d="M97.071,289.371c-1.017-.037-1.829-.868-1.787-1.829.042-.973,1.018-1.831,2.027-1.782.95.047,1.771.976,1.7,1.926-.073.976-.931,1.722-1.94,1.685Z" fill="#fff"/>
                <path d="M134.698,237.875c.03-1.124.723-1.903,1.696-1.908.916-.005,1.709.833,1.691,1.787-.018.959-1.432,2.265-2.383,2.2-.75-.052-1.042-.656-1.005-2.079Z" fill="#fff"/>
                <path d="M142.97,249.422c-1-.088-1.743-.984-1.6-1.999.15-1.06.807-1.613,1.875-1.591,1.025.02,1.752.889,1.671,1.923-.081,1.025-.934,1.757-1.946,1.667Z" fill="#fff"/>
                <path d="M120.244,231.085c.959.102,1.707,1.053,1.605,2.041-.104,1.005-.897,1.657-1.883,1.545-1-.113-1.734-1.017-1.627-2.002.102-.935.999-1.681,1.905-1.584Z" fill="#fff"/>
                <path d="M106.738,253.094c.058-.937.897-1.706,1.824-1.672.973.036,1.747.952,1.653,1.955-.09.949-.943,1.677-1.874,1.598-.922-.078-1.661-.945-1.603-1.882Z" fill="#fff"/>
                <path d="M129.881,253.781c-.16.817-.694,1.357-1.667,1.325-.891-.029-1.655-.892-1.536-1.752.132-.946.74-1.454,1.687-1.449.878.004,1.601.882,1.516,1.876Z" fill="#fff"/>
                <path d="M93.044,268.17c-.581.374-1.13.983-1.751,1.068-.925.126-1.407-.624-1.377-1.511.031-.914.668-1.559,1.519-1.402.602.111,1.098.797,1.641,1.226l-.032.618Z" fill="#fff"/>
                <path d="M117.867,274.719c.841-.65,1.286-1.184,1.831-1.322.216-.054.905.755.936,1.202.054.789-.538,1.293-1.375,1.108-.371-.082-.677-.464-1.392-.988Z" fill="#fff"/>
                <path d="M101.266,277.698c-.455-.775-.947-1.239-.883-1.608.067-.391.662-.691,1.026-1.031.328.376.893.737.916,1.131.022.376-.52.785-1.059,1.508Z" fill="#fff"/>
                <path d="M101.031,262.254c.426.715.881,1.137.829,1.483-.055.363-.595.652-.923.973-.332-.363-.861-.694-.929-1.101-.05-.3.502-.701,1.024-1.355Z" fill="#fff"/>
                <path d="M96.144,234.994c.449.764.919,1.21.846,1.535-.081.362-.63.786-1.025.845-.232.035-.792-.588-.79-.913.002-.373.462-.744.97-1.467Z" fill="#fff"/>
                <path d="M111.806,248.931c.743-.41,1.183-.852,1.513-.781.357.077.611.631.91.977-.351.3-.689.814-1.057.835-.334.019-.699-.498-1.366-1.031Z" fill="#fff"/>
                <path d="M120.287,247.557c.639-.408,1.02-.841,1.324-.793.322.051.801.57.789.867-.012.298-.527.776-.855.804-.306.027-.655-.431-1.259-.879Z" fill="#fff"/>
                <path d="M91.251,276.92c.65-.394,1.015-.791,1.349-.766.29.021.808.582.758.792-.087.362-.506.835-.844.888-.283.044-.65-.444-1.263-.914Z" fill="#fff"/>
                <path d="M88.658,270.288c-.667.391-1.064.811-1.371.754-.338-.063-.594-.565-.886-.876.322-.279.629-.755.969-.779.314-.023.664.438,1.288.902Z" fill="#fff"/>
                <path d="M142.853,263.239c.521-.316.916-.732,1.146-.654.335.113.552.579.819.895-.334.25-.653.659-1.008.693-.237.023-.525-.489-.957-.934Z" fill="#fff"/>
                <path d="M146.359,281.919c-.299-.581-.691-1.004-.6-1.25.121-.327.617-.515.951-.763.209.326.602.669.574.973-.028.303-.479.567-.926,1.04Z" fill="#fff"/>
                <path d="M103.177,267.255c.337.497.731.83.677,1.056-.077.326-.481.574-.745.856-.238-.3-.617-.579-.667-.908-.036-.234.372-.535.735-1.004Z" fill="#fff"/>
                <path d="M111.845,270.516c.318.488.633.772.653,1.075.012.186-.508.613-.648.559-.292-.111-.609-.439-.684-.736-.046-.18.34-.471.68-.898Z" fill="#fff"/>
              </g>
              <g>
                <path d="M155.022,224.549c.811.904.391,2.099-.242,2.51-.754.49-1.757.348-2.276-.357-.546-.743-.392-1.771.352-2.326.12-.089.254-.159.376-.245,1.032-.729,1.153-.701,1.79.418Z" fill="#fff"/>
                <path d="M129.359,229.052c.694-.431,1.601-.226,2.051.465.474.727.262,1.659-.477,2.093-.696.41-1.62.18-2.049-.509-.428-.687-.211-1.624.474-2.049Z" fill="#fff"/>
                <path d="M143.845,239.647c.585-.358,1.159-.187,1.584.472.409.634.238,1.457-.382,1.836-.602.369-1.383.169-1.756-.449-.391-.648-.16-1.422.554-1.858Z" fill="#fff"/>
                <path d="M152.469,243.072c-.61.355-1.35.167-1.691-.43-.338-.591-.129-1.342.47-1.691.647-.378,1.435-.204,1.775.391.342.599.101,1.35-.553,1.731Z" fill="#fff"/>
                <path d="M144.899,226.579c.582-.359,1.359-.183,1.721.387.367.579.186,1.348-.402,1.708-.597.366-1.341.195-1.713-.392-.375-.592-.203-1.337.394-1.704Z" fill="#fff"/>
                <path d="M163.989,231.975c.565-.322,1.303-.102,1.616.482.298.556.108,1.248-.434,1.575-.573.346-1.287.158-1.624-.429-.331-.574-.134-1.3.442-1.628Z" fill="#fff"/>
                <path d="M127.024,236.906c-.316-.561-.134-1.233.423-1.565.58-.346,1.292-.153,1.619.438.31.56.125,1.247-.422,1.572-.578.343-1.286.149-1.62-.444Z" fill="#fff"/>
                <path d="M160.058,237.994c-.53.301-1.17.141-1.434-.36-.273-.518-.074-1.224.427-1.512.515-.296,1.126-.13,1.426.388.311.535.131,1.171-.419,1.484Z" fill="#fff"/>
                <path d="M129.274,223.238c.15-.088.292-.194.45-.261.489-.208.896-.088,1.122.396.228.491.028.876-.432,1.112-.241.123-.521.167-.766.284-.451.214-.842.178-1.084-.281-.247-.468-.027-.807.4-1.043.109-.06.214-.126.321-.189-.004-.006-.007-.012-.011-.018Z" fill="#fff"/>
                <path d="M142.908,248.303c-.499.312-1.158.178-1.45-.296-.296-.48-.107-1.207.392-1.511.47-.286,1.165-.107,1.439.37.282.491.113,1.127-.382,1.436Z" fill="#fff"/>
                <path d="M144.208,211.429c-.351-.548-.272-1.146.193-1.465.437-.3,1.089-.156,1.39.307.303.465.05,1.55-.427,1.827-.376.219-.712.024-1.156-.669Z" fill="#fff"/>
                <path d="M151.918,214.273c-.507.282-1.154.095-1.415-.438-.272-.556-.137-1.034.381-1.371.497-.323,1.128-.143,1.425.378.294.517.123,1.144-.391,1.43Z" fill="#fff"/>
                <path d="M135.082,212.869c.492-.262,1.159-.05,1.431.456.277.515.108,1.084-.4,1.351-.515.27-1.161.076-1.429-.43-.255-.481-.067-1.129.398-1.377Z" fill="#fff"/>
                <path d="M135.76,227.793c-.277-.467-.124-1.108.331-1.393.478-.299,1.146-.111,1.426.399.265.483.093,1.109-.378,1.374-.467.262-1.102.087-1.379-.381Z" fill="#fff"/>
                <path d="M147.065,220.609c.188.443.108.875-.368,1.176-.436.275-1.082.11-1.304-.34-.244-.496-.118-.936.337-1.242.422-.283,1.053-.097,1.335.406Z" fill="#fff"/>
                <path d="M134.097,239.458c-.157.368-.222.838-.492,1.08-.402.361-.876.158-1.15-.276-.282-.448-.186-.963.272-1.164.324-.142.784.025,1.184.054l.185.307Z" fill="#fff"/>
                <path d="M148.11,234.536c.191-.584.231-.985.447-1.227.086-.096.679.068.838.272.282.36.162.793-.298.977-.204.081-.475-.002-.987-.021Z" fill="#fff"/>
                <path d="M141.127,241.352c-.469-.224-.856-.286-.945-.483-.095-.209.092-.546.156-.827.279.073.667.063.806.244.133.173.006.545-.017,1.066Z" fill="#fff"/>
                <path d="M136.001,234.032c.436.204.791.259.878.441.092.191-.073.505-.126.766-.277-.066-.638-.053-.802-.226-.122-.127.013-.499.05-.981Z" fill="#fff"/>
                <path d="M124.811,222.566c.463.22.833.281.903.46.079.199-.046.581-.217.738-.1.092-.57-.025-.675-.181-.12-.179-.02-.506-.012-1.017Z" fill="#fff"/>
                <path d="M136.836,224.154c.223-.438.29-.792.471-.865.196-.079.498.104.753.172-.071.257-.066.614-.235.743-.154.118-.496-.012-.989-.05Z" fill="#fff"/>
                <path d="M140.451,220.743c.174-.403.215-.734.377-.81.171-.08.569.013.659.159.091.147,0,.543-.148.663-.138.112-.454.006-.888-.012Z" fill="#fff"/>
                <path d="M136.079,244.23c.183-.4.229-.708.397-.805.146-.084.576.016.62.133.076.202.029.564-.116.699-.121.113-.455-.002-.901-.028Z" fill="#fff"/>
                <path d="M132.684,241.896c-.193.404-.246.734-.412.806-.182.079-.468-.078-.709-.132.063-.238.056-.566.211-.688.143-.113.46-.006.91.014Z" fill="#fff"/>
                <path d="M156.347,220.927c.147-.32.201-.648.336-.685.197-.055.452.098.683.163-.079.228-.099.528-.258.659-.106.088-.41-.064-.762-.137Z" fill="#fff"/>
                <path d="M164.09,228.733c-.332-.181-.657-.257-.693-.404-.048-.196.128-.447.208-.674.206.088.505.125.591.279.085.154-.045.427-.106.799Z" fill="#fff"/>
                <path d="M138.653,235.73c.323.128.619.16.667.286.069.181-.044.431-.079.652-.212-.066-.483-.077-.614-.218-.093-.1.004-.377.026-.719Z" fill="#fff"/>
                <path d="M143.861,234.478c.311.13.554.164.661.303.066.085-.045.458-.129.478-.176.042-.434-.013-.567-.13-.081-.071.01-.336.034-.651Z" fill="#fff"/>
              </g>
            </g>
          </g>
        </g>
      </g>
    </g>
  </g>
</svg>