<?xml version="1.0" encoding="UTF-8"?>
<svg xmlns="http://www.w3.org/2000/svg" width="300" height="300" xmlns:xlink="http://www.w3.org/1999/xlink" viewBox="0 0 300 300">
  <defs>
    <clipPath id="b">
      <path d="M126.772,270.147c-.714.568-1.284,1.023-1.977,1.575-.003-.058.007.152.018.393-3.196-.319-3.327-2.383-.098-2.884,1.266-.458,1.292-1.73,1.796-3.082-1.457.556-2.442.47-3.814.697.252.876.893.851,1.45,1.442-.481.508-1.165.591-1.771.508-.164-1.022-1.028-2.49.117-3.246,1.081-.446-.186-1.686-.567-2.013-.576.277-1.111.961-.617,1.595.308.467.508.864-.116,1.321-1.184,3.272-3.027-.469-4.858-1.096.043-.188.129-.569.249-1.096-1.736,1.039-.908-3.182-2.925-.821-1.624-1.05-2.16-4.844-4.273-4.346-.195.121-.721-.087-.862-.323-.793-2.584-3.2-3.697-4.05-6.08-.648-1.513-1.976-2.377-3.113-3.449-.105-.152-.742-.109-.861.057-.955,1.197-2.936.12-3.038-1.301-.305-.566-1.47-1.131-1.391-1.989-.993-1.138.043-1.066.753-1.648-.713-.298-.871-.891-.862-1.733.182-.805-1.666-2.151-.396-2.576,1.456-.278.308-1.173.293-2.22-.995,1.425-2.019,2.272-3.674,2.052-.749.61-1.209.199-1.709-.265-1.289-1.414-3.222.461-4.368,1.389.096-3.759-4.685.9-6.54,1.179-.045-1.293-1.546-2.313-2.535-1.037-2.249-.607-2.976-3.952-4.684-5.586-.354-1.535-2.399-1.151-2.496-2.62-.174-1.629-2.3-1.873-2.288-3.673-1.441-.59-1.123-2.543-2.161-3.441-1.784-2.289-6.496-5.151-5.755-8.104.894-.917,0-1.194-.607-1.76-.469-1.012-1.005-.044-1.776-.239,1.881-2.059-1.466-2.334,1.303-5.969.307-.896-.85-.648-1.11-.104-.689,1.234-1.677,1.063-2.634.934-.512-.549-.059-1.924-1.332-1.664-.087-.365-.174-.73-.265-1.114-1.241.3-1.93,1.597-.515,2.208-1.318,1.253-3.583,4.501-4.84,1.678-1.488.342-1.344-2.237-2.996-.947-.081-.699-.146-1.267-.22-1.908-.179.118-.405.268-.633.418-.357-.743-.386-1.794-1.555-1.625-.128-.956-.256-1.902-.401-2.984-.273.4-.459.674-.57.836-1.739-.398-2.103-2.224-3.029-3.533-.095.013-.19.027-.285.04-.063.335-.127.67-.19,1.006-.1-.005-.2-.01-.301-.014.267-3.392-2.866-4.422-3.859-7.278.268-1.007.296-1.422-.313-2.239-.385.414-.736.792-1.218,1.311-.78-.576-.39-2-1.553-1.698-.335-1.357-.028-2.349.869-3.26-.982-1.094,1.552-3.478-.432-3.648-.108.467-.211.908-.313,1.349h-.215c.026-1.112.053-2.223.084-3.524,2.431,1.178,2.282-2.245,2.499-3.943-.967.712-1.639,2.005-2.82,1.039.176.3.352.6.614,1.048-.519.131-.969.245-1.271.321-.347-1.909.465-3.139,1.711-4.501.127.086.294.199.395.268,2.901-4.637,5.805-9.825,10.004-13.792-1.101-.897-1.671-2.744-.22-3.567.661.055,1.365.339,1.709.081.63-.781,1.133-1.841-.331-2.352-.007-1.37,1.816-2.873.508-4.08-.762-.851-.499-2.634-1.967-2.737-1.541-.467-2.351.923-3.668,1.337-1.282-.241-1.534,1.02-2.196,1.866-.778-.443-1.737-.572-2.254-1.223-.354-1.428-1.427-.995-2.579-1.251.279-.295.512-.541.756-.799-1.61-.454-1.243,1.18-.684,1.971-.347.287-.659.544-1.161.959-.146-.998.719-2.27-.491-2.696-2.003-.024-2.094-3.775-4.13-2.353.013-.316.026-.622.039-.933-1.119-.022-1.15-.978-1.739-1.663-2.298-1.886-1.623-1.258-2.3-3.981-.202.134-.39.26-.632.421-.647-.984-1.563-1.132-1.856-2.568-1.328-2.881-5.346-3.058-7.079-5.386-.585.083-1.041.148-1.601.228,1.383-2.045.167-3.317.285-5.289.802-1.974,1.602-3.943,2.4-5.907l.357.032c-.084.989-.167,1.98-.27,3.197.814-.916.531-1.853.959-2.706.183.12.335.22.487.32.067-.034.134-.067.201-.101.024-1.515-1.858-.945-.615-2.467,8.097-15.249,14.395-31.292,23.079-46.174.452-.861.735-1.603,1.645-.565,1.744.56,1.811-2.35,3.56-2.194.431-.026.743-1.269.438-1.892-.072.32-.123.543-.188.83-.996.023-1.962.045-2.946.068.288-2.054,2.598-2.155,4.1-1.523,1.683-2.489,2.304-6.224,5.744-6.788-.14-.172-.266-.327-.539-.662,2.52-.59,4.58,2.546,6.67,1.905.44-.39.743-.297.818.309-.216.079-.43.157-.716.261,4.26,1.531,8.617,5.253,12.519,6.025.919,2.415,2.378-.584,3.433-1.49.519-.833,1.393-.071,2.021-.601,8.953-9.038,16.928-19.513,26.772-26.991.548-.009,1.596.235,1.946.822,1.848,1.277,2.466-3.795,6.841,1.161.667,1.147,2.425-.463,2.708,1.046.282,1.139,1.689,1.087,2.207,2.067,1.786,1.081,2.565,3.146,4.737,3.803.689.392.8.85,1.497-.017.118,1.414.309,1.516,1.399.76.079.407.154.792.229,1.178l1.123-.477c-.465,6.943,24.591-23.986,27.83-25.766,1.614.353-.188,1.261.697,2.163.504.143.961-.691,1.338-.89,1.676-.328-.022,1.919,1.229,2.224.722.181.831,1.901,1.677.962.181.363.422.654.47.981.121.87,1.498.81,1.687.114.111-.926-.632-2.356.922-2.128.695.044.417,1.093.954,1.37-.252.402-.445.71-.638,1.018.435.124.871.249,1.436.41-.455,1.116-.409,1.297.704,1.757.236,1.007,1.231,1.468,1.973,2.04.853.704,1.654,2.045,3.013,1.97-.367,1.39,1.423.545,2.121.967-1.036.973-.927,1.293.14,1.928-.026.064-.052.129-.078.193-.473-.052-.945-.105-1.599-.177.27.731,1.157.622.746,1.475-.068.73,1.223.916,1.837.424-.165.316-.264.505-.399.765.57-.039.209,1.014.965.708.422-.171.76-.545,1.101-.949-1.081.652-1.342-.397-.403-.954,1.362.035,2.055-.861,2.827-1.742,1.164-1.315,2.162-2.092,3.896-1.315.42.365.792.737,1.358.086,1.024.926,2.01,1.817,2.997,2.709.08-.067.161-.134.241-.2-.201-.332-.402-.663-.707-1.165,1.923,1.296,3.917-1.03,5.357.406.242,1.625,1.152,2.489,2.362,3.451,1.077.962.459,2.642,1.638,3.51.591.438.42,1.541,1.363.95,1.136-.803,2.064,1.302,1.41,2.168.424.081.745.143,1.018.195-.349.427-.657.804-.966,1.18.601.262-.509,1.372.736,1.339.079-.234.163-.483.242-.715.997.668,2.299,1.187,1.222,2.566.322.045.606.085.957.133-.052.234-.096.434-.112.508.399.361.738.669,1.123,1.017-.197.249-.374.474-.652.826.998-.259,1.849-.481,2.782-.723.017.314.026.498.036.679,2.534.548.472,4.428.011,6.054.081.056.162.112.243.169,1.616-1.377,2.453-3.491,3.878-5.066.083.048.165.097.248.145-.384.974-.893,1.909-1.079,2.947,1.031-.032,1.49-.808,2.019-1.568,3.259,2.237,14.631-18.5,13.479-7.991.094.03.189.059.283.089,1.094-2.144,4.509-2.623,4.519.402-.096.89.735.556,1.293.499.593-.139.81.106.812.662-.08,1.962,4.51.524,3.973,3.236,2.144-.457,1.241,2.226,2.864,2.406.605-.004,1.21.372,1.837.587-.225.485-.433.934-.678,1.461,5.02.996,1.101.777,3.501,2.933,4.404,2.295.161,6.216-.403,9.674.089.041.178.082.266.123-.185.117-.369.233-.605.382.059.154.126.329.196.511-1.449.027-.687,1.274-1.387,2.138-.349.477-.522.808.079,1.218.73.849.617,2.264.918,3.296-.073-.059-.231-.188-.271-.221-.656,1.441.088,2.991-1.8,3.481-.204.757-.278,1.634-1.183,2.076-.315-.334-.584-.62-.852-.905-.137-.009-.274-.017-.41-.026.293,2.122-.855,3.447-1.799,5.239,1.242.98,3,.811,3.902,1.869.136.202.265.614.366.604,1.437-.079,1.729,1.318,2.679,1.994.643-.661,1.245-1.281,1.864-1.918.26.187.466.335.672.483.052-.03.105-.061.157-.091l-.428-.924c1.562-3.164,1.703.665,2.812-1.18.475.196-.208,1.169.688.926.129-.035.115-.591.193-1.067,1.148-.008,1.437,1.548,2.789.384.073.773.039,1.143.215,1.756,1.685-.842,3.335-2.183,4.895-3.547,1.023-1.326,1.915-1.908,3.486-.744-.475.142-.748.223-1.02.305-.005.067-.011.135-.016.202.378.068.756.137,1.195.217.034-.181.063-.334.1-.528,1.723.228.025,1.229,1.078,1.799.134-.204.256-.391.296-.453,1.868.37,1.023-1.643.979-2.751l.204-.01c1.293,1.101,1.019,3.405,2.372,4.092.478.042.83.144,1.165.502,1.443.824.727-1.53,1.45-1.887.825-.061,1.284.754,1.73,1.415-.65,1.95,2.239,2.847,3.33,4.16-1.55-.417-2.332-.086-.804,1.442.229-.349.361-.551.594-.905.361.657.506,1.139,1.073,1.535.326-.601.054-1.047-.141-1.632.68.197,1.275.399.869,1.299.351,2.153,4.294-.792,3.39,2.185.898-.303,3.057.317,1.793,1.39-.131.095-.137.605-.006.756.169.194.628.381.795.285.865-.523,1.285.614,1.879,1.035,1.081,1.873-1.129,3.834-.969,5.528,1.202.529-.36,2.016-1.067.878-.308.414-.488.762.194.862,1.616,1.818-2.468,6.466-3.68,8.628.365-.107.59-.173.909-.267.159.618,1.012,1.706-.01,1.987-.745.554-.263,1.555-.229,2.5.289.015,1.168-.414,1.404-.381.598.516,1.12.261,1.637-.051.559-.337.696-.053.782.465.801,2.367,1.179,4.776,2.081,7.035.296,1.29.714,3.393,2.176,3.714.357.969,1.887,1.054,1.624,2.511,2.597-.272,2.122,3.134,2.166,4.769,2.929,1.423-1.903,4.927-2.06,7.046-1.368,1.049-1.719,3.218-2.761,3.844-.552.332.13,1.785-.94,1.65-.796.839-1.221,1.956-2.062,3.186,3.359.425,6.449.815,9.532,1.205.032,1.666.885.365,1.742,1.274-.463.32-.798.55-1.11.766,1.152,1.211,1.958,3.802.022,4.516-1.213-.421-.742.496-.819,1.117.542-.177.997-.326,1.52-.497.973,1.168-1.798,1.906-.43,3.306.013,5.671-9.282,6.554-2.154,13.149-.601.93.805,1.579.35,2.49-.864,1.241-.557,2.496,1.028,2.77.031-.119.095-.368.163-.633,1.014.619,2.481,4.084,2.35,5.432.203-.031.46-.071.716-.111-.01.096-.021.192-.031.288-.183.196-.365.393-.548.59.022.092.044.183.066.275.393-.066.786-.133,1.324-.224-.604.681-.237,2.147-1.186,2.219-.146-.009-.301.289-.452.446.707.611,1.519-.008,2.306-.16.039.066.079.131.118.197-3.126,4.171-9.064,6.455-10.856,11.429-.128,1.576-.41.812-1.467,1.079.511.307,1.427.88.622,1.38-.764.446.062,1.168-.253,1.875-.087.003-.174.006-.261.009-.122-.197-.243-.393-.517-.836-2.745,9.891-14.735,10.7-21.933,16.161-4.721,4.006-9.465,8.241-14.742,11.416-1.032,1.679-4.844,4.864-6.137,2.157.234-.101.458-.199.914-.396-.521-.325-.863-.539-1.347-.841.147,1.114-.969,3.195-.613,1.098-1.212-.582-.148-1.97-.78-3.19-.401.884-.706,1.557-1.011,2.231-1.428-.731-.155-3.632-1.829-3.831-.673,1.024-1.157.594-1.616-.31-.299.539-.537.97-.797,1.437-3.272-3.432-9.814,6.669-13.382,6.068-1.938.182-3.462,3.741-5.535,2.824-8.971-2.229-27.887,23.203-33.172,18.759.277-.119.533-.228,1.027-.44-.491-.356-.823-.597-1.214-.881-1.253,2.454-1.359-.662-1.252-1.807-.098-.031-.197-.062-.295-.093-.366.652-.732,1.305-1.092,1.947-1.624-.22.047-4.78-1.789-3.836-.899,1.306-.917.067-1.661-.321-.179.432-.346.837-.504,1.219-2.082-1.718-4.408.854-6.83.32-.817.38-2.702,1.194-2.44-.602.711-.752,1.476-3.949-.374-3.102-.693-1.096-.614-1.406.383-1.632-.13-1.436-.512-1.982-1.573-.714.167-2.383-1.748-3.383-1.153-5.508.157-.534-.429-1.418-.268-1.963.769-1.473-.333-2.133-.906-3.004-1.931-.74-2.614-2.2-3.516-4.067-.659.517-1.34,1.051-2.08,1.631.027-.286.049-.514.074-.772-2.134.455-.86,2.028-2.308,3.424-.48-2.06,1.266-3.471,1.159-5.483-7.491,8.85-14.265,20.34-21.905,27.933ZM281.647,165.413c.861.91-.177,1.368.871,1.808.243-.854,1.473-1.293.613-2.462l-.624.31-.413-.196c.221-.269.443-.537.662-.803-1.404-1.639-1.201.322-1.109,1.344ZM33.541,183.748c-.44.598-.881,1.197-1.321,1.794.416.232.892.496,1.372.764.972-1.015.967-1.809-.051-2.558ZM282.421,173.251c-.222-.095-.444-.189-.666-.284.342-.493.685-.986.992-1.43-.25-.17-.55-.375-.848-.578q-.56.478.02,1.052c-.282.189-.563.377-.843.564-.009.121-.018.242-.026.363.457.104.914.208,1.372.313ZM280.446,162.308c-.318.619-.555,1.08-.89,1.733,1.061-.275,2.309-1.141.89-1.733ZM230.913,89.214c-.07.023-.14.046-.21.069-.088.634-.176,1.268-.273,1.965l.902-.413c-.137-.532-.278-1.077-.419-1.622ZM179.677,43.765c-.848.503-.866.792-.101,1.425.035-.491.064-.905.101-1.425ZM38.809,78.717c.649.155,1.027.174,1.063-.485-.428-.544-.687.017-1.063.485ZM31.936,191.013c-.467.934-.379,1.117.477,1.239-.178-.463-.328-.851-.477-1.239ZM281.27,169.697c.154.012.308.025.462.037.005-.409.011-.818.016-1.226-.12-.01-.24-.02-.36-.03-.039.406-.079.812-.118,1.218ZM76.359,239.142c-.032.385-.064.77-.106,1.275.927-.494.838-.89.106-1.275Z" fill="none"/>
    </clipPath>
    <linearGradient id="c" data-name="Dégradé sans nom 13" x1="148.843" y1="67.007" x2="148.843" y2="252.017" gradientUnits="userSpaceOnUse">
      <stop offset="0" stop-color="#ffd66e"/>
      <stop offset="1" stop-color="#e86170"/>
    </linearGradient>
    <filter id="d" data-name="drop-shadow-4" x="-2.962" y="14.093" width="243.468" height="307.645" filterUnits="userSpaceOnUse">
      <feOffset dx="-6" dy="0"/>
      <feGaussianBlur result="e" stdDeviation="0"/>
      <feFlood flood-color="#42496f" flood-opacity="1"/>
      <feComposite in2="e" operator="in"/>
      <feComposite in="SourceGraphic"/>
    </filter>
    <clipPath id="f">
      <path d="M216.738,191.89c-4.633-.714-9.268-1.429-13.904-2.144-.937-.144-1.937-.318-2.666-.967-.802-.714-1.077-1.824-1.255-2.855-.976-5.655-.441-11.445,1.552-16.504.386-.98.834-1.996.663-3.094-.25-1.61-1.708-2.843-2.735-4.205-3.727-4.943-1.703-11.462,1.278-15.987,3.621-5.498,8.423-10.076,14.099-13.373-1.643-2.809.765-6.292,3.839-5.514-.837-1.608-2.153-3.043-3.71-4.052.159-2.409,2.143-4.112,4.529-4.39-2.401-11.858-5.16-23.644-8.267-35.337-12.04,0-24.081,0-36.121,0,1.592,4.806,3.123,9.619,4.593,14.437.623,2.04,1.236,4.092,1.504,6.128.468,3.559-.13,6.994.551,10.574.482,2.536,1.548,5.445.176,7.297-3.023-.44-4.926-3.955-6.267-6.807-4.038-8.583-10.969-17.655-17.962-24-1.063-.964-2.185-1.987-2.866-3.21-.792-1.422-.884-2.937-1.185-4.42-37.541,0-75.082,0-112.623,0,2.456,3.935,4.87,7.874,7.244,11.817,1.485,2.466,3.009,5.127,2.898,7.655-.111,2.529-2.69,4.561-5.261,3.247.662.788,1.323,1.577,1.981,2.365-1.941-.179-3.933-.775-5.799-1.734-1.949.664-1.779,3.345-2.033,5.428-.833,6.818-8.182,9.704-14.715,11.701,1.31,3.795,1.14,7.715-.182,11.047,1.389,7.992,2.014,11.991,3.124,19.993,2.528,2.842,5.455,5.548,6.62,9.016.917,2.733.601,5.607,1.42,8.351.754,2.525,2.471,5.079,1.866,7.51-.578,2.321-3.327,3.528-5.75,2.894-.358-.094-.681-.28-1.018-.434.992,10.56,1.665,21.213,2.006,31.814,1.194.181,2.329.852,2.868,1.955,1.111-.923,3.053-.575,3.838.688,2.064-4.349,4.744-8.828,9.238-10.494,4.494-1.667,10.984,1.29,11.022,6.163-.628.549-1.258,1.099-1.888,1.649,2.831,1.851,4.184,5.693,3.081,8.81,3.296,1.072,6.77,2.26,9.025,4.889,2.255,2.63,2.576,7.187-.247,9.175-1.576,1.109-4.127,1.719-4.111,3.637.009.983.781,1.754,1.273,2.597,1.096,1.875.723,4.491-.856,6.048-1.58,1.557-4.212,1.911-6.079.82.936,3.632,1.844,7.334,1.527,11.101-.035.411-.094.823-.162,1.235,31.429,0,62.857,0,94.286,0,.065-.485.105-.971.215-1.453.74-3.249,2.827-6.457,5.981-7.6-.363-.988-.729-1.976-1.098-2.964,3.347-3.574,3.198-9.026,2.456-13.793-.742-4.768-1.815-9.921.292-14.232.774-1.583,2.179-3.062,3.955-3.066,1.291-.003,2.469.769,3.504,1.56,9.152,6.992,14.99,17.973,15.171,29.514.02,1.256-.022,2.588.569,3.682.59,1.094,2.074,1.803,3.16,1.112-.929,1.256.249,3.097,1.75,3.378,1.501.281,3.031-.449,4.426-1.158-.423.673-.864,1.481-.576,2.192.288.71,1.695.622,1.627-.149.005.713.009,1.426.012,2.138,1.104-2.146,4.247-2.7,6.208-1.452.863.549,1.468,1.37,1.898,2.289,9.856,0,14.785,0,24.641,0,.805-16.636.995-33.326.311-49.971-4.19-6.845-8.504-13.696-12.942-20.549ZM127.997,151.386c.157,2.55-.067,5.306-1.834,6.917-2.213,2.017-5.904,1.487-9.104.704-.496,2.598-1.582,5.018-3.155,7.053-.382.494-.852.997-1.506,1.045-.63.047-1.256-.342-1.789-.758-5.158-4.027-6.215-11.112-6.906-17.288-2.46.702-5.096,1.402-7.748.588-2.652-.813-5.115-3.801-4.29-6.177-1.022.608-2.581.114-3.555-.863-.973-.978-1.451-2.312-1.671-3.586-.608-3.537.602-7.03,3.156-9.02,1.58-1.232,3.788-2.162,3.95-4.274.158-2.061-1.739-4.025-2.959-5.991-1.219-1.965-1.285-5.065.855-5.029.999.016,1.966.771,2.815,1.477,1.56,1.3,3.117,2.6,4.669,3.9.508.425,1.025.857,1.609,1.137,1.031.493,2.133.458,3.205.569,6.271.649,12.229,7.663,11.395,13.564.561-.492.841-.737,1.401-1.229,1.363-1.225,3.891-.688,5.567.703,1.675,1.391,2.658,3.399,3.41,5.352,1.413,3.668,2.254,7.46,2.486,11.205ZM173.257,166.552c-1.469,1.254-1.574,3.499-1.843,5.491-.269,1.992-1.089,4.219-3.062,4.592-1.653.313-3.441-.919-4.364-2.46-.922-1.54-1.181-3.32-1.426-5.038-.331-2.313-.674-4.627-1.033-6.941-.115-.744-.224-1.542.113-2.158.249-.455.715-.751.94-1.219.37-.768.004-1.756-.353-2.624-2.461-5.99-4.57-12.107-6.312-18.273-.314-1.11-.194-2.728.937-2.501.617.124,1.023.776,1.392,1.318,2.371,3.487,6.779,4.92,10.013,7.648,3.836,3.236,5.761,8.496,4.738,12.849.008-.016.008-.036.016-.053-.03.154-.045.23-.076.384.029-.108.035-.222.06-.331-.836,1.795-.501,4.201.847,5.965.367.48.824.969.856,1.538.048.849-.834,1.292-1.443,1.813Z" fill="none"/>
    </clipPath>
  </defs>
  <g isolation="isolate">
    <g id="a" data-name="bateau 10">
      <g clip-path="url(#b)">
        <rect x="5.286" y="7.067" width="287.116" height="269.478" fill="url(#c)"/>
        <path d="M237.14,259.045h-7.624c.672-15.521.802-31.082.164-46.605-4.19-6.845-8.504-13.696-12.942-20.549-4.633-.714-9.268-1.429-13.904-2.144-.937-.144-1.937-.318-2.666-.967-.802-.714-1.077-1.824-1.255-2.855-.976-5.655-.441-11.445,1.552-16.504.386-.98.834-1.996.663-3.094-.25-1.61-1.708-2.843-2.735-4.205-3.727-4.943-1.703-11.462,1.278-15.987,3.621-5.498,8.423-10.076,14.099-13.373-1.643-2.809.765-6.292,3.839-5.514-.837-1.608-2.153-3.043-3.71-4.052.159-2.409,2.143-4.112,4.529-4.39-2.171-10.722-4.65-21.381-7.399-31.969h5.653c1.859,0,3.367-1.507,3.367-3.367s-1.507-3.366-3.367-3.366h-100.483c-3.365-22.203-7.027-43.712-10.974-63.376-.31-1.542-1.665-2.633-3.238-2.633-1.987,0-3.525,1.728-3.274,3.699,1.1,8.646,4.045,31.787,7.616,62.311H6.405c-1.859,0-3.367,1.507-3.367,3.366s1.507,3.367,3.367,3.367h35.638c1.739,2.815,3.464,5.631,5.161,8.45,1.485,2.466,3.009,5.127,2.898,7.656-.024.543-.167,1.06-.394,1.529-1.102,1.686-3.689,2.07-5.499,1.265.041.053.082.107.123.16-.059-.027-.124-.044-.181-.074.434.704.867,1.407,1.3,2.11-1.695-.075-3.062-.66-4.668-1.378-.587.258-1.044.703-1.423,1.24-1.135,1.442-1.712,3.741-2.188,5.537-.267,1.007-.651,1.89-1.114,2.692-2.524,3.441-7.225,5.815-11.253,7.76-.177.055-.355.112-.531.166,1.31,3.795,1.14,7.715-.182,11.047,1.389,7.992,2.014,11.991,3.124,19.993,2.528,2.842,5.455,5.548,6.62,9.016.917,2.733.601,5.607,1.42,8.351.754,2.525,2.471,5.079,1.866,7.51-.578,2.321-3.327,3.528-5.75,2.894-.358-.094-.681-.28-1.018-.434.992,10.56,1.665,21.213,2.006,31.814,1.194.181,2.329.852,2.868,1.955,1.111-.923,3.053-.575,3.838.688,2.064-4.349,4.744-8.828,9.238-10.494,4.494-1.667,10.984,1.29,11.022,6.163-.628.549-1.258,1.099-1.888,1.649,2.831,1.851,4.184,5.693,3.081,8.81,3.296,1.072,6.77,2.26,9.025,4.889,2.255,2.63,2.576,7.187-.247,9.175-1.576,1.109-4.127,1.719-4.111,3.637.009.983.781,1.754,1.273,2.597,1.096,1.875.723,4.491-.856,6.048-1.58,1.557-4.212,1.911-6.079.82.722,2.802,1.421,5.646,1.56,8.529-4.954.074-13.83.126-16.986.375l.003.066h-17.241c-1.859,0-3.367,1.507-3.367,3.367s1.507,3.367,3.367,3.367h17.771c.666,1.776,2.292,3.304,4.016,2.713,1.149-.393,2.493-1.591,3.302-.686.205.229.285.542.36.84,1.354,5.369,3.441,10.553,6.185,15.362.26-4.613.098-9.25-.484-13.833,1.343-.348,2.352,1.698,3.727,1.513,1.297-.174,1.466-1.97,1.284-3.266-.123-.881-.247-1.763-.37-2.644h61.394c1.284,20.832,2.055,39.984,2.055,55.96h16.451s-1.601-22.113-4.676-55.96h26.195c.485,3.717,1.347,7.423,2.295,11.214.392,1.569,2.46,3.245,3.637,3.245s2.778-2.131,3.102-3.209c.321-1.07.856-3.102,1.247-5.902,1.577,5.34,3.153,10.681,4.73,16.021,1.081,3.66,3.046,10.777,3.99,10.705s3.18-8.256,3.437-12.65c.052-.884.321-2.049,1.207-2.087.346-.015.665.171.961.351,1.026.624,2.052,1.248,3.078,1.873.181-1.039,1.508-1.687,2.438-1.192,1.066-6.055,1.459-12.225,1.199-18.368h41.744c1.859,0,3.366-1.507,3.366-3.367s-1.507-3.367-3.366-3.367ZM162.23,156.196c-2.461-5.99-4.57-12.107-6.312-18.273-.314-1.11-.194-2.728.937-2.501.617.124,1.023.776,1.392,1.318,2.371,3.487,6.779,4.92,10.013,7.648,3.836,3.236,5.761,8.496,4.738,12.849.008-.016.008-.036.016-.053-.03.154-.045.23-.076.384.029-.108.035-.222.06-.331-.836,1.795-.501,4.201.847,5.965.367.48.824.969.856,1.538.048.849-.834,1.292-1.443,1.813-1.469,1.254-1.574,3.499-1.843,5.491-.269,1.992-1.089,4.219-3.062,4.592-1.653.313-3.441-.919-4.364-2.46-.922-1.54-1.181-3.32-1.426-5.038-.331-2.313-.674-4.627-1.033-6.941-.115-.744-.224-1.542.113-2.158.249-.455.715-.751.94-1.219.37-.768.004-1.756-.353-2.624ZM90.586,119.736c-1.219-1.965-1.285-5.065.855-5.029.999.016,1.966.771,2.815,1.477,1.56,1.3,3.117,2.6,4.669,3.9.508.425,1.025.857,1.609,1.137,1.031.493,2.133.458,3.205.569,2.864.296,5.653,1.927,7.77,4.166,1.321,12.159,2.651,24.794,3.94,37.629-.45.868-.95,1.707-1.545,2.476-.382.494-.852.997-1.506,1.045-.63.047-1.256-.342-1.789-.758-5.158-4.027-6.215-11.112-6.906-17.288-2.46.702-5.096,1.402-7.748.588-2.652-.813-5.115-3.801-4.29-6.177-1.022.608-2.581.114-3.555-.863-.973-.978-1.451-2.312-1.671-3.586-.608-3.537.602-7.03,3.156-9.02,1.58-1.232,3.788-2.162,3.95-4.274.159-2.061-1.739-4.025-2.959-5.991ZM126.614,157.804c-.815-6.825-1.659-13.708-2.532-20.618.581.951,1.038,1.98,1.429,2.995,1.413,3.668,2.254,7.46,2.486,11.205.142,2.307-.04,4.774-1.383,6.418ZM178.632,97.905c.623,2.04,1.236,4.092,1.504,6.128.468,3.559-.13,6.994.551,10.574.381,2.005,1.123,4.241.74,6.006-.707-1.851-2.058-3.418-3.268-5.011-5.04-6.633-8.344-14.936-15.268-19.568l-2.464-1.221c-1.251-1.315-2.52-2.562-3.792-3.716-1.063-.964-2.185-1.987-2.866-3.21-.193-.346-.343-.697-.466-1.052h21.831c1.199,3.687,2.373,7.376,3.499,11.07ZM194.805,258.661c-9.999-.049-31.109-.245-31.109-.245-.008.21,0,.419-.006.629h-7.684c1.013-2.525,2.841-4.77,5.367-5.686-.363-.988-.729-1.976-1.098-2.964,3.347-3.574,3.198-9.026,2.456-13.793-.742-4.768-1.815-9.921.292-14.232.774-1.583,2.179-3.062,3.955-3.066,1.291-.003,2.469.769,3.504,1.56,9.152,6.992,14.99,17.973,15.171,29.514.02,1.256-.022,2.588.569,3.682.59,1.094,2.074,1.803,3.16,1.112-.929,1.256.249,3.097,1.75,3.378,1.501.281,3.031-.449,4.426-1.158-.319.507-.647,1.091-.667,1.652h-.045c-.016-.128-.025-.256-.041-.384Z" fill="none" stroke="#fff" stroke-linecap="round" stroke-linejoin="round" stroke-width="20"/>
        <g filter="url(#d)">
          <path d="M142.555,321.738s-13.479-186.179-37.33-305.012c-.31-1.542-1.665-2.633-3.238-2.633h0c-1.987,0-3.525,1.728-3.274,3.699,3.634,28.56,27.391,215.224,27.391,303.946h16.451Z" fill="#f4af13"/>
          <path d="M136.973,255.927l-13.45,1.649c.453,6.807.854,13.453,1.2,19.905,4.464-1.521,9.402-3.358,13.731-5.331-.457-5.114-.95-10.529-1.48-16.224Z" fill="#42496f"/>
          <g>
            <path d="M216.738,191.89c-4.633-.714-9.268-1.429-13.904-2.144-.937-.144-1.937-.318-2.666-.967-.802-.714-1.077-1.824-1.255-2.855-.976-5.655-.441-11.445,1.552-16.504.386-.98.834-1.996.663-3.094-.25-1.61-1.708-2.843-2.735-4.205-3.727-4.943-1.703-11.462,1.278-15.987,3.621-5.498,8.423-10.076,14.099-13.373-1.643-2.809.765-6.292,3.839-5.514-.837-1.608-2.153-3.043-3.71-4.052.159-2.409,2.143-4.112,4.529-4.39-2.401-11.858-5.16-23.644-8.267-35.337-12.04,0-24.081,0-36.121,0,1.592,4.806,3.123,9.619,4.593,14.437.623,2.04,1.236,4.092,1.504,6.128.468,3.559-.13,6.994.551,10.574.482,2.536,1.548,5.445.176,7.297-3.023-.44-4.926-3.955-6.267-6.807-4.038-8.583-10.969-17.655-17.962-24-1.063-.964-2.185-1.987-2.866-3.21-.792-1.422-.884-2.937-1.185-4.42-37.541,0-75.082,0-112.623,0,2.456,3.935,4.87,7.874,7.244,11.817,1.485,2.466,3.009,5.127,2.898,7.655-.111,2.529-2.69,4.561-5.261,3.247.662.788,1.323,1.577,1.981,2.365-1.941-.179-3.933-.775-5.799-1.734-1.949.664-1.779,3.345-2.033,5.428-.833,6.818-8.182,9.704-14.715,11.701,1.31,3.795,1.14,7.715-.182,11.047,1.389,7.992,2.014,11.991,3.124,19.993,2.528,2.842,5.455,5.548,6.62,9.016.917,2.733.601,5.607,1.42,8.351.754,2.525,2.471,5.079,1.866,7.51-.578,2.321-3.327,3.528-5.75,2.894-.358-.094-.681-.28-1.018-.434.992,10.56,1.665,21.213,2.006,31.814,1.194.181,2.329.852,2.868,1.955,1.111-.923,3.053-.575,3.838.688,2.064-4.349,4.744-8.828,9.238-10.494,4.494-1.667,10.984,1.29,11.022,6.163-.628.549-1.258,1.099-1.888,1.649,2.831,1.851,4.184,5.693,3.081,8.81,3.296,1.072,6.77,2.26,9.025,4.889,2.255,2.63,2.576,7.187-.247,9.175-1.576,1.109-4.127,1.719-4.111,3.637.009.983.781,1.754,1.273,2.597,1.096,1.875.723,4.491-.856,6.048-1.58,1.557-4.212,1.911-6.079.82.936,3.632,1.844,7.334,1.527,11.101-.035.411-.094.823-.162,1.235,31.429,0,62.857,0,94.286,0,.065-.485.105-.971.215-1.453.74-3.249,2.827-6.457,5.981-7.6-.363-.988-.729-1.976-1.098-2.964,3.347-3.574,3.198-9.026,2.456-13.793-.742-4.768-1.815-9.921.292-14.232.774-1.583,2.179-3.062,3.955-3.066,1.291-.003,2.469.769,3.504,1.56,9.152,6.992,14.99,17.973,15.171,29.514.02,1.256-.022,2.588.569,3.682.59,1.094,2.074,1.803,3.16,1.112-.929,1.256.249,3.097,1.75,3.378,1.501.281,3.031-.449,4.426-1.158-.423.673-.864,1.481-.576,2.192.288.71,1.695.622,1.627-.149.005.713.009,1.426.012,2.138,1.104-2.146,4.247-2.7,6.208-1.452.863.549,1.468,1.37,1.898,2.289,9.856,0,14.785,0,24.641,0,.805-16.636.995-33.326.311-49.971-4.19-6.845-8.504-13.696-12.942-20.549ZM127.997,151.386c.157,2.55-.067,5.306-1.834,6.917-2.213,2.017-5.904,1.487-9.104.704-.496,2.598-1.582,5.018-3.155,7.053-.382.494-.852.997-1.506,1.045-.63.047-1.256-.342-1.789-.758-5.158-4.027-6.215-11.112-6.906-17.288-2.46.702-5.096,1.402-7.748.588-2.652-.813-5.115-3.801-4.29-6.177-1.022.608-2.581.114-3.555-.863-.973-.978-1.451-2.312-1.671-3.586-.608-3.537.602-7.03,3.156-9.02,1.58-1.232,3.788-2.162,3.95-4.274.158-2.061-1.739-4.025-2.959-5.991-1.219-1.965-1.285-5.065.855-5.029.999.016,1.966.771,2.815,1.477,1.56,1.3,3.117,2.6,4.669,3.9.508.425,1.025.857,1.609,1.137,1.031.493,2.133.458,3.205.569,6.271.649,12.229,7.663,11.395,13.564.561-.492.841-.737,1.401-1.229,1.363-1.225,3.891-.688,5.567.703,1.675,1.391,2.658,3.399,3.41,5.352,1.413,3.668,2.254,7.46,2.486,11.205ZM173.257,166.552c-1.469,1.254-1.574,3.499-1.843,5.491-.269,1.992-1.089,4.219-3.062,4.592-1.653.313-3.441-.919-4.364-2.46-.922-1.54-1.181-3.32-1.426-5.038-.331-2.313-.674-4.627-1.033-6.941-.115-.744-.224-1.542.113-2.158.249-.455.715-.751.94-1.219.37-.768.004-1.756-.353-2.624-2.461-5.99-4.57-12.107-6.312-18.273-.314-1.11-.194-2.728.937-2.501.617.124,1.023.776,1.392,1.318,2.371,3.487,6.779,4.92,10.013,7.648,3.836,3.236,5.761,8.496,4.738,12.849.008-.016.008-.036.016-.053-.03.154-.045.23-.076.384.029-.108.035-.222.06-.331-.836,1.795-.501,4.201.847,5.965.367.48.824.969.856,1.538.048.849-.834,1.292-1.443,1.813Z" fill="#a384bb"/>
            <g clip-path="url(#f)">
              <path d="M52.256,83.468c14.966,58.911,21.597,118.186,19.208,178.943" fill="none" opacity=".25" stroke="#9bc8ec" stroke-miterlimit="10" stroke-width="2.777"/>
              <path d="M91.732,83.467c14.966,58.911,21.598,118.186,19.209,178.944" fill="none" opacity=".25" stroke="#9bc8ec" stroke-miterlimit="10" stroke-width="2.777"/>
              <path d="M131.208,83.467c14.966,58.912,21.597,118.186,19.209,178.944" fill="none" opacity=".25" stroke="#9bc8ec" stroke-miterlimit="10" stroke-width="2.777"/>
              <path d="M170.684,83.468c14.965,58.912,21.597,118.185,19.208,178.943" fill="none" opacity=".25" stroke="#9bc8ec" stroke-miterlimit="10" stroke-width="2.777"/>
              <path d="M229.368,262.41c-65.793,0-131.587,0-197.38,0,.905-22.809.671-45.395-.674-68.187,51.846,43.81,132.712,54.939,198.475,58.167-.132,4.012-.216,6.016-.42,10.021Z" fill="#a384bb" mix-blend-mode="multiply" opacity=".25"/>
            </g>
          </g>
          <rect x="23.496" y="259.045" width="217.01" height="6.733" rx="3.367" ry="3.367" fill="#f4af13"/>
          <rect x="3.038" y="80.102" width="217.01" height="6.733" rx="3.367" ry="3.367" fill="#f4af13"/>
          <path d="M194.805,258.661c-9.999-.049-31.109-.245-31.109-.245-.25,6.25,1.104,12.296,2.674,18.576.392,1.569,2.46,3.245,3.637,3.245s2.778-2.131,3.102-3.209c.321-1.07.856-3.102,1.247-5.902,1.577,5.34,3.153,10.681,4.73,16.021,1.081,3.66,3.046,10.777,3.99,10.705s3.18-8.256,3.437-12.65c.052-.884.321-2.049,1.207-2.087.346-.015.665.171.961.351,1.026.624,2.052,1.248,3.078,1.873.181-1.039,1.508-1.687,2.438-1.192,1.478-8.4,1.684-17.023.609-25.485Z" fill="#efa78e"/>
          <path d="M44.36,264.747c.317,2.147,2.237,4.447,4.29,3.744,1.149-.393,2.493-1.591,3.302-.686.205.229.285.542.36.84,1.354,5.369,3.441,10.553,6.185,15.362.26-4.613.098-9.25-.484-13.833,1.343-.348,2.352,1.698,3.727,1.513,1.297-.174,1.466-1.97,1.284-3.266-.458-3.276-.916-6.551-1.374-9.827-4.816.079-14.272.125-17.549.384l.259,5.768Z" fill="#efa78e"/>
          <g mix-blend-mode="multiply" opacity=".25">
            <path d="M169.032,137.405c2.3-1.596,1.516-6.093,3.942-7.41.576-.313,1.218-.355,1.821-.575,2.167-.793,3.267-3.727,2.965-6.064-.303-2.337-1.6-4.244-2.713-6.183-4.086-7.114-6.282-15.976-12.442-20.993l-2.889-1.714c2.023,1.97,2.642,5.146,3.171,8.137,2.049,11.601,4.097,23.201,6.146,34.802Z" fill="#a384bb"/>
          </g>
          <path d="M174.366,134.713c2.176-1.533.839-5.751,3.177-7.023.555-.302,1.21-.351,1.804-.566,2.134-.777,2.918-3.551,2.331-5.745-.587-2.194-2.145-3.969-3.519-5.776-5.04-6.633-8.344-14.936-15.268-19.567l-3.172-1.572c2.312,1.825,3.324,4.802,4.22,7.608,3.476,10.881,6.951,21.761,10.427,32.642Z" fill="#efa78e"/>
          <g mix-blend-mode="multiply" opacity=".25">
            <path d="M48.578,126.955c2.349.036,5.475-.599,5.914-3.211.139-.826-.064-1.645-.268-2.43-1.55-5.98-2.686-11.039-4.451-16.93-1.188,1.951-3.856,2.369-5.623,1.436.509.826,1.018,1.652,1.526,2.477-1.904.003-3.307-.718-4.985-1.608-2.073.963-2.886,4.249-3.519,6.64-1.636,6.174-7.32,8.079-12.797,10.87,3.545,2.881,7.575,7.672,11.103,10.579,1.565,1.29,3.162,2.603,5.033,3.279,1.872.676,4.099.628,5.807-.673,2.884-2.196,3.126-6.836,2.26-10.43Z" fill="#a384bb"/>
          </g>
          <path d="M50.092,124.683c2.368.007,5.474-.598,5.74-2.95.084-.744-.176-1.478-.433-2.181-1.965-5.358-3.449-9.893-5.624-15.169-1.065,1.766-3.724,2.171-5.567,1.352.568.737,1.136,1.474,1.704,2.21-1.918.024-3.379-.609-5.129-1.391-2.023.888-2.62,3.85-3.097,6.006-1.232,5.567-7.973,8.859-13.302,11.426,3.764,2.551,9.291,5.296,13.04,7.871,1.663,1.143,3.36,2.305,5.291,2.893,1.931.588,4.17.52,5.803-.668,2.757-2.005,2.688-6.178,1.574-9.399Z" fill="#efa78e"/>
        </g>
      </g>
    </g>
  </g>
</svg>