<?xml version="1.0" encoding="UTF-8"?>
<svg xmlns="http://www.w3.org/2000/svg" width="300" height="300" xmlns:xlink="http://www.w3.org/1999/xlink" viewBox="0 0 300 300">
  <defs>
    <clipPath id="b">
      <path d="M126.772,270.147c-.714.568-1.284,1.023-1.977,1.575-.003-.058.007.152.018.393-3.196-.319-3.327-2.383-.098-2.884,1.266-.458,1.292-1.73,1.796-3.082-1.457.556-2.442.47-3.814.697.252.876.893.851,1.45,1.442-.481.508-1.165.591-1.771.508-.164-1.022-1.028-2.49.117-3.246,1.081-.446-.186-1.686-.567-2.013-.576.277-1.111.961-.617,1.595.308.467.508.864-.116,1.321-1.184,3.272-3.027-.469-4.858-1.096.043-.188.129-.569.249-1.096-1.736,1.039-.908-3.182-2.925-.821-1.624-1.05-2.16-4.844-4.273-4.346-.195.121-.721-.087-.862-.323-.793-2.584-3.2-3.697-4.05-6.08-.648-1.513-1.976-2.377-3.113-3.449-.105-.152-.742-.109-.861.057-.955,1.197-2.936.12-3.038-1.301-.305-.566-1.47-1.131-1.391-1.989-.993-1.138.043-1.066.753-1.648-.713-.298-.871-.891-.862-1.733.182-.805-1.666-2.151-.396-2.576,1.456-.278.308-1.173.293-2.22-.995,1.425-2.019,2.272-3.674,2.052-.749.61-1.209.199-1.709-.265-1.289-1.414-3.222.461-4.368,1.389.096-3.759-4.685.9-6.54,1.179-.045-1.293-1.546-2.313-2.535-1.037-2.249-.607-2.976-3.952-4.684-5.586-.354-1.535-2.399-1.151-2.496-2.62-.174-1.629-2.3-1.873-2.288-3.673-1.441-.59-1.123-2.543-2.161-3.441-1.784-2.289-6.496-5.151-5.755-8.104.894-.917,0-1.194-.607-1.76-.469-1.012-1.005-.044-1.776-.239,1.881-2.059-1.466-2.334,1.303-5.969.307-.896-.85-.648-1.11-.104-.689,1.234-1.677,1.063-2.634.934-.512-.549-.059-1.924-1.332-1.664-.087-.365-.174-.73-.265-1.114-1.241.3-1.93,1.597-.515,2.208-1.318,1.253-3.583,4.501-4.84,1.678-1.488.342-1.344-2.237-2.996-.947-.081-.699-.146-1.267-.22-1.908-.179.118-.405.268-.633.418-.357-.743-.386-1.794-1.555-1.625-.128-.956-.256-1.902-.401-2.984-.273.4-.459.674-.57.836-1.739-.398-2.103-2.224-3.029-3.533-.095.013-.19.027-.285.04-.063.335-.127.67-.19,1.006-.1-.005-.2-.01-.301-.014.267-3.392-2.866-4.422-3.859-7.278.268-1.007.296-1.422-.313-2.239-.385.414-.736.792-1.218,1.311-.78-.576-.39-2-1.553-1.698-.335-1.357-.028-2.349.869-3.26-.982-1.094,1.552-3.478-.432-3.648-.108.467-.211.908-.313,1.349h-.215c.026-1.112.053-2.223.084-3.524,2.431,1.178,2.282-2.245,2.499-3.943-.967.712-1.639,2.005-2.82,1.039.176.3.352.6.614,1.048-.519.131-.969.245-1.271.321-.347-1.909.465-3.139,1.711-4.501.127.086.294.199.395.268,2.901-4.637,5.805-9.825,10.004-13.792-1.101-.897-1.671-2.744-.22-3.567.661.055,1.365.339,1.709.081.63-.781,1.133-1.841-.331-2.352-.007-1.37,1.816-2.873.508-4.08-.762-.851-.499-2.634-1.967-2.737-1.541-.467-2.351.923-3.668,1.337-1.282-.241-1.534,1.02-2.196,1.866-.778-.443-1.737-.572-2.254-1.223-.354-1.428-1.427-.995-2.579-1.251.279-.295.512-.541.756-.799-1.61-.454-1.243,1.18-.684,1.971-.347.287-.659.544-1.161.959-.146-.998.719-2.27-.491-2.696-2.003-.024-2.094-3.775-4.13-2.353.013-.316.026-.622.039-.933-1.119-.022-1.15-.978-1.739-1.663-2.298-1.886-1.623-1.258-2.3-3.981-.202.134-.39.26-.632.421-.647-.984-1.563-1.132-1.856-2.568-1.328-2.881-5.346-3.058-7.079-5.386-.585.083-1.041.148-1.601.228,1.383-2.045.167-3.317.285-5.289.802-1.974,1.602-3.943,2.4-5.907l.357.032c-.084.989-.167,1.98-.27,3.197.814-.916.531-1.853.959-2.706.183.12.335.22.487.32.067-.034.134-.067.201-.101.024-1.515-1.858-.945-.615-2.467,8.097-15.249,14.395-31.292,23.079-46.174.452-.861.735-1.603,1.645-.565,1.744.56,1.811-2.35,3.56-2.194.431-.026.743-1.269.438-1.892-.072.32-.123.543-.188.83-.996.023-1.962.045-2.946.068.288-2.054,2.598-2.155,4.1-1.523,1.683-2.489,2.304-6.224,5.744-6.788-.14-.172-.266-.327-.539-.662,2.52-.59,4.58,2.546,6.67,1.905.44-.39.743-.297.818.309-.216.079-.43.157-.716.261,4.26,1.531,8.617,5.253,12.519,6.025.919,2.415,2.378-.584,3.433-1.49.519-.833,1.393-.071,2.021-.601,8.953-9.038,16.928-19.513,26.772-26.991.548-.009,1.596.235,1.946.822,1.848,1.277,2.466-3.795,6.841,1.161.667,1.147,2.425-.463,2.708,1.046.282,1.139,1.689,1.087,2.207,2.067,1.786,1.081,2.565,3.146,4.737,3.803.689.392.8.85,1.497-.017.118,1.414.309,1.516,1.399.76.079.407.154.792.229,1.178l1.123-.477c-.465,6.943,24.591-23.986,27.83-25.766,1.614.353-.188,1.261.697,2.163.504.143.961-.691,1.338-.89,1.676-.328-.022,1.919,1.229,2.224.722.181.831,1.901,1.677.962.181.363.422.654.47.981.121.87,1.498.81,1.687.114.111-.926-.632-2.356.922-2.128.695.044.417,1.093.954,1.37-.252.402-.445.71-.638,1.018.435.124.871.249,1.436.41-.455,1.116-.409,1.297.704,1.757.236,1.007,1.231,1.468,1.973,2.04.853.704,1.654,2.045,3.013,1.97-.367,1.39,1.423.545,2.121.967-1.036.973-.927,1.293.14,1.928-.026.064-.052.129-.078.193-.473-.052-.945-.105-1.599-.177.27.731,1.157.622.746,1.475-.068.73,1.223.916,1.837.424-.165.316-.264.505-.399.765.57-.039.209,1.014.965.708.422-.171.76-.545,1.101-.949-1.081.652-1.342-.397-.403-.954,1.362.035,2.055-.861,2.827-1.742,1.164-1.315,2.162-2.092,3.896-1.315.42.365.792.737,1.358.086,1.024.926,2.01,1.817,2.997,2.709.08-.067.161-.134.241-.2-.201-.332-.402-.663-.707-1.165,1.923,1.296,3.917-1.03,5.357.406.242,1.625,1.152,2.489,2.362,3.451,1.077.962.459,2.642,1.638,3.51.591.438.42,1.541,1.363.95,1.136-.803,2.064,1.302,1.41,2.168.424.081.745.143,1.018.195-.349.427-.657.804-.966,1.18.601.262-.509,1.372.736,1.339.079-.234.163-.483.242-.715.997.668,2.299,1.187,1.222,2.566.322.045.606.085.957.133-.052.234-.096.434-.112.508.399.361.738.669,1.123,1.017-.197.249-.374.474-.652.826.998-.259,1.849-.481,2.782-.723.017.314.026.498.036.679,2.534.548.472,4.428.011,6.054.081.056.162.112.243.169,1.616-1.377,2.453-3.491,3.878-5.066.083.048.165.097.248.145-.384.974-.893,1.909-1.079,2.947,1.031-.032,1.49-.808,2.019-1.568,3.259,2.237,14.631-18.5,13.479-7.991.094.03.189.059.283.089,1.094-2.144,4.509-2.623,4.519.402-.096.89.735.556,1.293.499.593-.139.81.106.812.662-.08,1.962,4.51.524,3.973,3.236,2.144-.457,1.241,2.226,2.864,2.406.605-.004,1.21.372,1.837.587-.225.485-.433.934-.678,1.461,5.02.996,1.101.777,3.501,2.933,4.404,2.295.161,6.216-.403,9.674.089.041.178.082.266.123-.185.117-.369.233-.605.382.059.154.126.329.196.511-1.449.027-.687,1.274-1.387,2.138-.349.477-.522.808.079,1.218.73.849.617,2.264.918,3.296-.073-.059-.231-.188-.271-.221-.656,1.441.088,2.991-1.8,3.481-.204.757-.278,1.634-1.183,2.076-.315-.334-.584-.62-.852-.905-.137-.009-.274-.017-.41-.026.293,2.122-.855,3.447-1.799,5.239,1.242.98,3,.811,3.902,1.869.136.202.265.614.366.604,1.437-.079,1.729,1.318,2.679,1.994.643-.661,1.245-1.281,1.864-1.918.26.187.466.335.672.483.052-.03.105-.061.157-.091l-.428-.924c1.562-3.164,1.703.665,2.812-1.18.475.196-.208,1.169.688.926.129-.035.115-.591.193-1.067,1.148-.008,1.437,1.548,2.789.384.073.773.039,1.143.215,1.756,1.685-.842,3.335-2.183,4.895-3.547,1.023-1.326,1.915-1.908,3.486-.744-.475.142-.748.223-1.02.305-.005.067-.011.135-.016.202.378.068.756.137,1.195.217.034-.181.063-.334.1-.528,1.723.228.025,1.229,1.078,1.799.134-.204.256-.391.296-.453,1.868.37,1.023-1.643.979-2.751l.204-.01c1.293,1.101,1.019,3.405,2.372,4.092.478.042.83.144,1.165.502,1.443.824.727-1.53,1.45-1.887.825-.061,1.284.754,1.73,1.415-.65,1.95,2.239,2.847,3.33,4.16-1.55-.417-2.332-.086-.804,1.442.229-.349.361-.551.594-.905.361.657.506,1.139,1.073,1.535.326-.601.054-1.047-.141-1.632.68.197,1.275.399.869,1.299.351,2.153,4.294-.792,3.39,2.185.898-.303,3.057.317,1.793,1.39-.131.095-.137.605-.006.756.169.194.628.381.795.285.865-.523,1.285.614,1.879,1.035,1.081,1.873-1.129,3.834-.969,5.528,1.202.529-.36,2.016-1.067.878-.308.414-.488.762.194.862,1.616,1.818-2.468,6.466-3.68,8.628.365-.107.59-.173.909-.267.159.618,1.012,1.706-.01,1.987-.745.554-.263,1.555-.229,2.5.289.015,1.168-.414,1.404-.381.598.516,1.12.261,1.637-.051.559-.337.696-.053.782.465.801,2.367,1.179,4.776,2.081,7.035.296,1.29.714,3.393,2.176,3.714.357.969,1.887,1.054,1.624,2.511,2.597-.272,2.122,3.134,2.166,4.769,2.929,1.423-1.903,4.927-2.06,7.046-1.368,1.049-1.719,3.218-2.761,3.844-.552.332.13,1.785-.94,1.65-.796.839-1.221,1.956-2.062,3.186,3.359.425,6.449.815,9.532,1.205.032,1.666.885.365,1.742,1.274-.463.32-.798.55-1.11.766,1.152,1.211,1.958,3.802.022,4.516-1.213-.421-.742.496-.819,1.117.542-.177.997-.326,1.52-.497.973,1.168-1.798,1.906-.43,3.306.013,5.671-9.282,6.554-2.154,13.149-.601.93.805,1.579.35,2.49-.864,1.241-.557,2.496,1.028,2.77.031-.119.095-.368.163-.633,1.014.619,2.481,4.084,2.35,5.432.203-.031.46-.071.716-.111-.01.096-.021.192-.031.288-.183.196-.365.393-.548.59.022.092.044.183.066.275.393-.066.786-.133,1.324-.224-.604.681-.237,2.147-1.186,2.219-.146-.009-.301.289-.452.446.707.611,1.519-.008,2.306-.16.039.066.079.131.118.197-3.126,4.171-9.064,6.455-10.856,11.429-.128,1.576-.41.812-1.467,1.079.511.307,1.427.88.622,1.38-.764.446.062,1.168-.253,1.875-.087.003-.174.006-.261.009-.122-.197-.243-.393-.517-.836-2.745,9.891-14.735,10.7-21.933,16.161-4.721,4.006-9.465,8.241-14.742,11.416-1.032,1.679-4.844,4.864-6.137,2.157.234-.101.458-.199.914-.396-.521-.325-.863-.539-1.347-.841.147,1.114-.969,3.195-.613,1.098-1.212-.582-.148-1.97-.78-3.19-.401.884-.706,1.557-1.011,2.231-1.428-.731-.155-3.632-1.829-3.831-.673,1.024-1.157.594-1.616-.31-.299.539-.537.97-.797,1.437-3.272-3.432-9.814,6.669-13.382,6.068-1.938.182-3.462,3.741-5.535,2.824-8.971-2.229-27.887,23.203-33.172,18.759.277-.119.533-.228,1.027-.44-.491-.356-.823-.597-1.214-.881-1.253,2.454-1.359-.662-1.252-1.807-.098-.031-.197-.062-.295-.093-.366.652-.732,1.305-1.092,1.947-1.624-.22.047-4.78-1.789-3.836-.899,1.306-.917.067-1.661-.321-.179.432-.346.837-.504,1.219-2.082-1.718-4.408.854-6.83.32-.817.38-2.702,1.194-2.44-.602.711-.752,1.476-3.949-.374-3.102-.693-1.096-.614-1.406.383-1.632-.13-1.436-.512-1.982-1.573-.714.167-2.383-1.748-3.383-1.153-5.508.157-.534-.429-1.418-.268-1.963.769-1.473-.333-2.133-.906-3.004-1.931-.74-2.614-2.2-3.516-4.067-.659.517-1.34,1.051-2.08,1.631.027-.286.049-.514.074-.772-2.134.455-.86,2.028-2.308,3.424-.48-2.06,1.266-3.471,1.159-5.483-7.491,8.85-14.265,20.34-21.905,27.933ZM281.647,165.413c.861.91-.177,1.368.871,1.808.243-.854,1.473-1.293.613-2.462l-.624.31-.413-.196c.221-.269.443-.537.662-.803-1.404-1.639-1.201.322-1.109,1.344ZM33.541,183.748c-.44.598-.881,1.197-1.321,1.794.416.232.892.496,1.372.764.972-1.015.967-1.809-.051-2.558ZM282.421,173.251c-.222-.095-.444-.189-.666-.284.342-.493.685-.986.992-1.43-.25-.17-.55-.375-.848-.578q-.56.478.02,1.052c-.282.189-.563.377-.843.564-.009.121-.018.242-.026.363.457.104.914.208,1.372.313ZM280.446,162.308c-.318.619-.555,1.08-.89,1.733,1.061-.275,2.309-1.141.89-1.733ZM230.913,89.214c-.07.023-.14.046-.21.069-.088.634-.176,1.268-.273,1.965l.902-.413c-.137-.532-.278-1.077-.419-1.622ZM179.677,43.765c-.848.503-.866.792-.101,1.425.035-.491.064-.905.101-1.425ZM38.809,78.717c.649.155,1.027.174,1.063-.485-.428-.544-.687.017-1.063.485ZM31.936,191.013c-.467.934-.379,1.117.477,1.239-.178-.463-.328-.851-.477-1.239ZM281.27,169.697c.154.012.308.025.462.037.005-.409.011-.818.016-1.226-.12-.01-.24-.02-.36-.03-.039.406-.079.812-.118,1.218ZM76.359,239.142c-.032.385-.064.77-.106,1.275.927-.494.838-.89.106-1.275Z" fill="none"/>
    </clipPath>
    <linearGradient id="c" data-name="Dégradé sans nom 13" x1="148.843" y1="67.007" x2="148.843" y2="252.017" gradientUnits="userSpaceOnUse">
      <stop offset="0" stop-color="#ffd66e"/>
      <stop offset="1" stop-color="#e86170"/>
    </linearGradient>
    <clipPath id="d">
      <path d="M-239.619-35.722v319.95c4.678.866,9.835,1.35,15.261,1.35,12.565,0,23.693-2.582,30.734-6.559.341-.015.682-.03,1.022-.045,3.794,4.003,9.813,6.604,16.612,6.604s12.824-2.603,16.617-6.609c4.841,4.006,12.525,6.609,21.207,6.609,7.154,0,13.634-1.768,18.406-4.629,5.574,2.861,13.142,4.629,21.497,4.629,7.201,0,13.81-1.319,19.072-3.511,1.295,2.192,2.921,3.511,4.692,3.511,1.745,0,3.348-1.282,4.633-3.416,5.223,2.134,11.74,3.416,18.833,3.416,9.276,0,17.577-2.18,23.257-5.617,4.863,3.437,11.971,5.617,19.913,5.617,7.369,0,14.032-1.869,18.84-4.883,5.616,3.014,13.398,4.883,22.003,4.883.381,0,.74-.041,1.116-.051.763.019,1.518.051,2.293.051,12.565,0,23.693-2.582,30.734-6.559.341-.015.682-.03,1.022-.045,3.794,4.003,9.813,6.604,16.612,6.604s12.824-2.603,16.617-6.609c4.841,4.006,12.525,6.609,21.207,6.609,7.154,0,13.634-1.768,18.406-4.629,5.574,2.861,13.142,4.629,21.497,4.629,7.201,0,13.81-1.319,19.072-3.511,1.295,2.192,2.921,3.511,4.692,3.511,1.745,0,3.348-1.282,4.633-3.416,5.223,2.134,11.74,3.416,18.833,3.416,9.276,0,17.577-2.18,23.257-5.617,4.863,3.437,11.971,5.617,19.913,5.617,7.369,0,14.032-1.869,18.84-4.883,5.616,3.014,13.398,4.883,22.003,4.883,1.54,0,3.036-.089,4.515-.206V-35.722H-239.619Z" fill="none"/>
    </clipPath>
    <filter id="e" data-name="drop-shadow-4" x="-183.142" y="70.785" width="431.118" height="225.996" filterUnits="userSpaceOnUse">
      <feOffset dx="-6" dy="0"/>
      <feGaussianBlur result="f" stdDeviation="0"/>
      <feFlood flood-color="#42496f" flood-opacity="1"/>
      <feComposite in2="f" operator="in"/>
      <feComposite in="SourceGraphic"/>
    </filter>
    <clipPath id="g">
      <path d="M136.539,114.888c1.293.216,8.19,10.345,8.19,10.345l.431,3.879,2.854,2.338-2.158,2.698,2.398,1.919-2.698,2.278-.779,2.338s-19.537,35.698-19.927,35.552-28.427-2.531-28.427-2.531l4.965-26.967,35.152-31.849Z" fill="none"/>
    </clipPath>
    <clipPath id="h">
      <path d="M115.907,214.765l4.196-5.204-5.526-1.455,10.895-7.49-6.81-6.81,76.288-4.962c18.521-56.321,15.981-110.8,15.981-110.8l-16.343,4.767s-13.619,62.648-45.624,78.99H-61.449l-23.833-84.438h-86.481s2.258,17.767,4.823,37.539h38.28l-6.425,8.762,8.761,5.841-5.257,1.168,5.257,4.673h-37.944c1.321,10.015,2.546,19.116,3.4,25.093,1.324,9.265,6.967,35.933,12.951,63.241l49.356-.594-8.852,6.128,9.533,6.81-4.766,4.767,10.214,2.724-50.854,1.142c6.232,28.038,11.7,51.971,11.7,51.971,1.021.34,239.013,0,239.013,0,38.659-17.851,62.941-49.663,78.182-83.585l-69.701,1.72Z" fill="none"/>
    </clipPath>
  </defs>
  <g isolation="isolate">
    <g id="a" data-name="bateau 10">
      <g clip-path="url(#b)">
        <rect x="5.286" y="7.067" width="287.116" height="269.478" fill="url(#c)"/>
        <path d="M217.292,82.355l-3.442-11.57-24.35,7.243-.792,3.424c-4.195,18.147-18.485,47.18-31.729,63.051l-14.749.106,1.817-1.665-2.119-2.119,1.185-1.778h2.208l.234-.701,2.367-1.999v-.545l-2.067-1.654,2.067-2.584v-.189l-2.762-2.263-.238-2.138h-17.462l-19.194,28.791H-44.262l.047-.124.22-.115,2.57-6.726c-2.84.659-11.551,2.437-22.393,4.61l-19.278-68.299h3.501v-9.93h-97.548v9.93h6.367c.898,7.027,2.312,18.055,3.835,29.79h16.973l4.952,8.762-5.257,4.089,3.505,4.089-3.504,3.504h-13.996c1.321,10.015,2.546,19.116,3.4,25.093,1.324,9.265,6.967,35.933,12.951,63.242l19.61-.236-2.246,3.893,6.175,5.47-6.175,5.105,2.614,6.399-15.347.345c6.232,28.038,11.7,51.971,11.7,51.971.835.278,159.911.102,218.048.028,12.851,3.764,26.728,6.501,27.397,2.233,1.422-9.076,20.207,8.583,24.412,4.197.748-.78,1.128-1.83,1.341-3.001l9.623,3.01s3.238-4.327,7.239-10.309l.714.223s30.846-41.215,19.792-45.137c-2.977-1.056-8.337.936-14.578,4.408,9.439-12.218,17.06-25.555,23.207-39.237l-17.693.437,3.637-6.522-6.211-5.036,6.211-5.539-2.478-5.857,25.876-1.683c14.802-45.011,16.151-88.841,16.097-104.631l6.244-1.857Z" fill="none" stroke="#fff" stroke-linecap="round" stroke-linejoin="round" stroke-width="20"/>
        <g>
          <g clip-path="url(#d)">
            <g>
              <path d="M157.187,293.011s30.846-41.215,19.792-45.137c-11.054-3.922-54.925,34.147-54.925,34.147l35.132,10.99Z" fill="#fff"/>
              <path d="M149.234,303.096s30.846-41.215,19.792-45.137c-11.054-3.922-54.925,34.147-54.925,34.147l35.132,10.99Z" fill="#9bc8ec"/>
              <g>
                <path d="M178.638,281.4c-1.298.656-2.548-.201-2.826-1.06-.331-1.025.145-2.139,1.121-2.519,1.028-.4,2.169.098,2.579,1.13.066.166.105.343.166.511.521,1.42.452,1.551-1.041,1.938Z" fill="#fff"/>
                <path d="M181.419,250.335c.283.937-.237,1.92-1.176,2.226-.987.322-1.999-.214-2.271-1.202-.257-.932.296-1.928,1.226-2.21.927-.281,1.943.261,2.222,1.186Z" fill="#fff"/>
                <path d="M164.664,263.783c.231.787-.145,1.398-1.038,1.685-.86.276-1.758-.178-2.004-1.013-.239-.811.235-1.652,1.066-1.891.871-.25,1.693.257,1.976,1.219Z" fill="#fff"/>
                <path d="M158.021,272.685c-.221-.816.227-1.613,1.023-1.821.789-.206,1.592.268,1.809,1.069.235.866-.211,1.722-1.004,1.93-.798.209-1.592-.303-1.828-1.178Z" fill="#fff"/>
                <path d="M179.442,269.068c.233.784-.211,1.629-.983,1.869-.784.244-1.617-.205-1.85-.996-.237-.804.191-1.611.986-1.858.801-.249,1.608.182,1.847.985Z" fill="#fff"/>
                <path d="M167.264,289.454c.197.753-.288,1.538-1.06,1.719-.735.172-1.476-.264-1.686-.992-.222-.77.218-1.536,1.001-1.744.767-.203,1.544.25,1.745,1.018Z" fill="#fff"/>
                <path d="M173.068,245.192c.747-.19,1.467.229,1.678.976.219.778-.225,1.541-1.01,1.735-.744.184-1.48-.243-1.685-.977-.217-.775.228-1.533,1.017-1.734Z" fill="#fff"/>
                <path d="M161.53,283.037c-.183-.706.202-1.396.862-1.545.684-.155,1.438.295,1.615.964.182.688-.2,1.342-.892,1.528-.715.193-1.395-.213-1.585-.947Z" fill="#fff"/>
                <path d="M188.167,252.046c.055.2.133.398.162.602.088.63-.177,1.064-.807,1.173-.639.111-1.022-.24-1.151-.846-.067-.317-.031-.654-.09-.974-.107-.588.056-1.028.662-1.166.617-.14.941.22,1.081.787.036.144.079.287.118.43.008-.002.016-.004.024-.007Z" fill="#fff"/>
                <path d="M154.95,260.006c-.206-.674.154-1.394.793-1.584.647-.193,1.429.252,1.625.924.185.633-.238,1.38-.876,1.548-.655.173-1.337-.22-1.541-.889Z" fill="#fff"/>
                <path d="M197.169,272.984c.742-.235,1.409.042,1.633.679.21.598-.159,1.307-.787,1.511-.632.205-1.807-.425-1.979-1.062-.136-.503.193-.831,1.133-1.128Z" fill="#fff"/>
                <path d="M191.482,281.01c-.168-.674.25-1.364.946-1.499.728-.142,1.238.163,1.466.867.219.676-.185,1.348-.881,1.529-.689.179-1.361-.214-1.531-.897Z" fill="#fff"/>
                <path d="M198.344,261.987c.15.651-.303,1.356-.973,1.512-.682.16-1.287-.212-1.437-.883-.152-.68.273-1.365.942-1.518.635-.145,1.326.274,1.468.888Z" fill="#fff"/>
                <path d="M180.882,258.126c.626-.174,1.32.201,1.507.816.196.645-.228,1.359-.906,1.524-.641.156-1.311-.238-1.47-.865-.158-.621.243-1.301.869-1.475Z" fill="#fff"/>
                <path d="M185.668,273.429c-.571.08-1.045-.147-1.244-.792-.183-.59.21-1.285.799-1.402.649-.128,1.119.155,1.33.776.196.575-.215,1.247-.885,1.417Z" fill="#fff"/>
                <path d="M167.917,252.574c-.377-.296-.899-.517-1.095-.905-.292-.577.09-1.062.677-1.243.605-.187,1.172.085,1.261.677.063.419-.273.899-.431,1.352l-.412.119Z" fill="#fff"/>
                <path d="M169.245,270.303c.616.403,1.066.574,1.279.899.084.129-.289.763-.575.884-.504.214-.968-.059-1.036-.649-.031-.262.15-.548.332-1.135Z" fill="#fff"/>
                <path d="M163.54,260.111c.404-.473.597-.9.853-.942.271-.044.602.277.907.438-.172.3-.281.751-.533.855-.241.099-.631-.162-1.227-.352Z" fill="#fff"/>
                <path d="M173.596,256.462c-.372.441-.545.834-.783.878-.25.046-.561-.242-.846-.384.163-.299.259-.72.511-.857.185-.101.573.17,1.119.363Z" fill="#fff"/>
                <path d="M190.332,247.097c-.399.467-.584.875-.813.901-.255.029-.657-.234-.785-.48-.075-.144.206-.652.419-.724.245-.083.591.134,1.18.303Z" fill="#fff"/>
                <path d="M184.754,260.502c.437.394.825.581.854.813.031.251-.275.543-.434.817-.276-.162-.689-.267-.786-.503-.088-.214.168-.57.366-1.128Z" fill="#fff"/>
                <path d="M187.572,265.742c.412.326.781.477.819.687.039.223-.192.653-.389.713-.198.06-.627-.17-.72-.378-.087-.194.134-.526.29-1.023Z" fill="#fff"/>
                <path d="M161.784,253.38c.405.336.747.485.807.71.052.195-.198.661-.347.675-.257.025-.661-.142-.772-.352-.093-.175.144-.526.313-1.033Z" fill="#fff"/>
                <path d="M165.538,250.182c-.407-.348-.772-.513-.803-.727-.035-.236.236-.517.373-.778.255.147.636.241.729.458.086.201-.137.533-.299,1.047Z" fill="#fff"/>
                <path d="M182.412,284.06c.325.269.686.434.688.602.002.245-.254.492-.401.739-.239-.162-.579-.278-.682-.503-.068-.15.202-.454.395-.838Z" fill="#fff"/>
                <path d="M170.979,290.581c.313-.327.501-.679.682-.676.241.005.477.287.714.45-.166.21-.301.545-.507.596-.204.05-.479-.185-.89-.371Z" fill="#fff"/>
                <path d="M170.807,258.999c-.249.333-.378.666-.538.682-.231.023-.485-.185-.729-.294.143-.224.24-.535.444-.642.145-.076.434.122.823.254Z" fill="#fff"/>
                <path d="M170.634,265.41c-.248.319-.362.589-.556.67-.119.05-.516-.194-.513-.298.007-.216.149-.498.327-.614.108-.071.385.116.741.242Z" fill="#fff"/>
              </g>
            </g>
            <g filter="url(#e)">
              <polygon points="167.86 187.656 171.553 196.384 165.342 201.924 171.553 206.96 166.685 215.688 104.745 220.053 111.291 190.677 167.86 187.656" fill="#42496f"/>
              <polygon points="163.273 144.458 142.23 144.609 144.047 142.944 141.927 140.824 144.35 137.191 132.693 136.283 117.1 157.78 148.588 157.628 163.273 144.458" fill="#e86170"/>
              <g clip-path="url(#g)">
                <polyline points="147.921 133.01 130.69 133.01 103.82 173.314" fill="none" stroke="#42496f" stroke-miterlimit="10" stroke-width="12.072"/>
              </g>
              <path d="M115.907,214.765l4.196-5.204-5.526-1.455,10.895-7.49-6.81-6.81,76.288-4.962c18.521-56.321,15.981-110.8,15.981-110.8l-16.343,4.767s-13.619,62.648-45.624,78.99H-61.449l-23.833-84.438h-86.481s2.258,17.767,4.823,37.539h38.28l-6.425,8.762,8.761,5.841-5.257,1.168,5.257,4.673h-37.944c1.321,10.015,2.546,19.116,3.4,25.093,1.324,9.265,6.967,35.933,12.951,63.241l49.356-.594-8.852,6.128,9.533,6.81-4.766,4.767,10.214,2.724-50.854,1.142c6.232,28.038,11.7,51.971,11.7,51.971,1.021.34,239.013,0,239.013,0,38.659-17.851,62.941-49.663,78.182-83.585l-69.701,1.72Z" fill="#e86170"/>
              <g clip-path="url(#h)">
                <g mix-blend-mode="multiply" opacity=".5">
                  <line x1="96.227" y1="136.807" x2="192.315" y2="136.807" fill="none" stroke="#a384bb" stroke-linecap="round" stroke-linejoin="round" stroke-width="1.509"/>
                  <line x1="151.134" y1="115.486" x2="247.222" y2="115.486" fill="none" stroke="#a384bb" stroke-linecap="round" stroke-linejoin="round" stroke-width="1.509"/>
                  <line x1="-170.132" y1="174.775" x2="173.623" y2="173.314" fill="none" stroke="#a384bb" stroke-linecap="round" stroke-linejoin="round" stroke-width="1.509"/>
                  <line x1="-166.043" y1="195.219" x2="85.128" y2="195.511" fill="none" stroke="#a384bb" stroke-linecap="round" stroke-linejoin="round" stroke-width="1.509"/>
                  <line x1="-64.991" y1="221.796" x2="97.395" y2="218" fill="none" stroke="#a384bb" stroke-linecap="round" stroke-linejoin="round" stroke-width="1.509"/>
                  <line x1="-84.559" y1="241.949" x2="15.618" y2="241.949" fill="none" stroke="#a384bb" stroke-linecap="round" stroke-linejoin="round" stroke-width="1.509"/>
                  <line x1="-151.732" y1="262.732" x2="10.381" y2="262.732" fill="none" stroke="#a384bb" stroke-linecap="round" stroke-linejoin="round" stroke-width="1.509"/>
                  <line x1="96.811" y1="243.117" x2="170.994" y2="243.117" fill="none" stroke="#a384bb" stroke-linecap="round" stroke-linejoin="round" stroke-width="1.509"/>
                </g>
              </g>
              <polygon points="22.628 241.072 67.605 241.072 70.525 245.161 57.091 250.418 72.278 255.675 63.516 262.685 23.796 262.685 17.37 257.428 33.142 251.002 20.875 245.745 27.885 244.577 22.628 241.072" fill="#42496f"/>
              <g>
                <circle cx="-5.118" cy="205.149" r="14.895" fill="#f4af13"/>
                <circle cx="-5.118" cy="205.149" r="9.054" fill="#42496f"/>
              </g>
              <g>
                <circle cx="63.516" cy="205.149" r="14.895" fill="#f4af13"/>
                <circle cx="63.516" cy="205.149" r="9.054" fill="#42496f"/>
              </g>
              <path d="M-90.655,161.801h231.949c20.716,0,47.85-55.443,53.294-78.99l20.981-6.241" fill="none" stroke="#42496f" stroke-miterlimit="10" stroke-width="12.072"/>
            </g>
          </g>
          <g>
            <path d="M150.473,290.394s-23.687-64.911-44.738-50.121c-5.955,4.184,9.667,37.491,9.667,37.491,0,0-20.795-10.101-22.456-1.425-1.662,8.676-9.66,15.43-25.657,12.23-15.997-3.199,45.147,19.397,46.569,10.32,1.422-9.076,20.207,8.583,24.412,4.197,4.205-4.386-3.083-17.268,12.203-12.693Z" fill="#9bc8ec"/>
            <path d="M141.982,281c.761-14.041-20.862-51.789-36.246-40.727-10.128,7.282,7.135,28.744,9.667,37.491-12.849-7.419-27.867-8.285-31.887-4.143-4.02,4.142,7.413,5.902,4.266,9.667-3.146,3.765-32.685,3.842-32.685,3.842,0,0,33.862,11.978,43.452,7.777,6.042-2.647-3.669-11.263,1.686-13.137,13.386-4.684,25.472,19.526,35.703,16.924,6.062-1.542-8.768-21.019-4.855-22.631,3.913-1.611,10.898,4.937,10.898,4.937Z" fill="#fff"/>
            <g>
              <g>
                <path d="M54.549,280.625c.885.494.877,1.549.489,2.045-.462.591-1.292.75-1.891.335-.632-.438-.789-1.291-.353-1.93.07-.103.157-.194.23-.295.617-.855.719-.865,1.525-.155Z" fill="#fff"/>
                <path d="M35.531,291.128c.431-.528,1.201-.612,1.744-.189.57.445.656,1.237.191,1.78-.438.512-1.228.581-1.754.154-.523-.426-.606-1.224-.181-1.745Z" fill="#fff"/>
                <path d="M49.826,295.559c.364-.44.864-.461,1.377-.057.495.389.582,1.084.196,1.551-.375.454-1.045.508-1.507.122-.484-.405-.512-1.078-.067-1.616Z" fill="#fff"/>
                <path d="M57.555,295.924c-.385.445-1.019.497-1.45.119-.426-.375-.465-1.024-.088-1.461.408-.473,1.077-.55,1.505-.173.432.38.446,1.037.032,1.515Z" fill="#fff"/>
                <path d="M47.117,284.968c.362-.44,1.022-.513,1.462-.161.446.357.512,1.013.146,1.456-.372.45-1.005.518-1.457.155-.456-.365-.522-.999-.151-1.451Z" fill="#fff"/>
                <path d="M63.633,284.052c.358-.407,1-.433,1.405-.058.386.357.423.955.084,1.36-.358.428-.972.473-1.397.102-.416-.363-.457-.989-.092-1.404Z" fill="#fff"/>
                <path d="M35.818,297.955c-.401-.357-.44-.936-.091-1.349.363-.43.977-.471,1.395-.093.396.358.437.949.093,1.354-.363.427-.974.466-1.398.089Z" fill="#fff"/>
                <path d="M62.163,289.863c-.336.381-.885.428-1.228.105-.356-.335-.39-.945-.073-1.308.326-.373.852-.408,1.23-.081.39.338.42.888.071,1.284Z" fill="#fff"/>
                <path d="M33.889,286.566c.094-.11.178-.232.284-.328.329-.296.683-.312.992.009.313.325.26.684-.04.994-.157.162-.366.273-.527.431-.297.291-.616.368-.931.072-.321-.302-.24-.629.033-.931.069-.077.135-.157.202-.236-.004-.004-.009-.008-.013-.011Z" fill="#fff"/>
                <path d="M42.467,273.208c-.425-.337-.525-.83-.245-1.207.263-.355.817-.418,1.179-.135.365.285.459,1.209.158,1.556-.237.274-.555.212-1.093-.214Z" fill="#fff"/>
                <path d="M49.317,273.362c-.324.36-.885.387-1.234.038-.365-.365-.388-.778-.071-1.184.305-.39.851-.418,1.226-.088.372.328.407.869.079,1.234Z" fill="#fff"/>
                <path d="M35.661,276.816c.317-.34.901-.353,1.252-.028.358.331.379.826.051,1.174-.333.353-.895.374-1.243.048-.331-.31-.359-.872-.059-1.194Z" fill="#fff"/>
                <path d="M40.239,288.401c-.345-.294-.398-.84-.116-1.188.296-.365.873-.398,1.233-.071.34.309.374.85.074,1.186-.297.333-.845.367-1.19.073Z" fill="#fff"/>
                <path d="M47.208,279.673c.269.298.322.661.028,1.027-.269.335-.824.38-1.121.085-.327-.325-.346-.707-.07-1.071.256-.337.804-.362,1.163-.041Z" fill="#fff"/>
                <path d="M42.087,298.051c-.024.333.052.721-.095.985-.219.393-.648.362-.982.094-.344-.277-.408-.709-.101-.992.217-.2.625-.193.948-.278l.229.192Z" fill="#fff"/>
                <path d="M51.804,290.373c-.007-.513-.084-.839.02-1.089.042-.099.553-.13.735-.013.32.208.343.582.029.851-.139.12-.375.127-.784.251Z" fill="#fff"/>
                <path d="M48.144,297.64c-.431-.049-.752.006-.876-.125-.131-.139-.075-.456-.101-.695.24-.018.543-.131.701-.026.151.1.152.428.275.845Z" fill="#fff"/>
                <path d="M42.119,293.257c.399.043.694-.01.812.11.124.126.079.418.108.638-.236.023-.517.131-.694.039-.13-.068-.125-.397-.226-.787Z" fill="#fff"/>
                <path d="M30.188,287.245c.425.048.733-.004.837.118.116.136.121.471.029.64-.054.1-.456.135-.581.04-.143-.109-.153-.394-.285-.799Z" fill="#fff"/>
                <path d="M40.101,285.241c.057-.406.014-.703.137-.81.133-.116.421-.053.641-.068.014.222.114.502.016.65-.089.134-.394.125-.794.228Z" fill="#fff"/>
                <path d="M42.027,281.571c.028-.365-.029-.637.078-.741.113-.11.452-.144.563-.053.112.091.146.428.063.563-.078.126-.356.128-.704.231Z" fill="#fff"/>
                <path d="M54.613,277.409c.029-.292-.017-.565.08-.632.141-.097.383-.045.583-.057,0,.201.065.443-.025.59-.06.098-.341.061-.638.099Z" fill="#fff"/>
                <path d="M62.835,281.468c-.311-.053-.587-.025-.656-.131-.091-.141-.02-.387-.019-.588.186.014.432-.039.542.06.109.098.08.349.133.658Z" fill="#fff"/>
                <path d="M44.67,293.877c.289.014.532-.042.604.045.103.124.082.352.114.535-.185.005-.402.07-.544-.006-.1-.054-.099-.298-.175-.574Z" fill="#fff"/>
                <path d="M48.438,291.478c.281.019.481-.021.604.059.075.049.089.374.028.412-.128.081-.346.108-.482.051-.083-.035-.083-.267-.149-.522Z" fill="#fff"/>
              </g>
              <g>
                <path d="M108.189,281.259c.27,1.985-1.408,3.227-2.653,3.203-1.483-.029-2.72-1.152-2.776-2.594-.058-1.519,1.104-2.781,2.633-2.85.246-.011.494.018.74.014,2.084-.04,2.223.11,2.056,2.227Z" fill="#fff"/>
                <path d="M68.989,263.656c1.347.054,2.394,1.173,2.37,2.534-.026,1.43-1.178,2.507-2.588,2.416-1.329-.085-2.378-1.253-2.326-2.591.052-1.334,1.215-2.412,2.544-2.359Z" fill="#fff"/>
                <path d="M78.959,291.526c1.129.053,1.755.818,1.726,2.11-.028,1.244-1.023,2.209-2.22,2.153-1.163-.054-2.045-1.05-1.982-2.239.066-1.246,1.097-2.089,2.476-2.024Z" fill="#fff"/>
                <path d="M92.492,274.662c1.126.049,2.026,1.008,1.991,2.121-.036,1.13-.994,2.013-2.129,1.96-1.153-.053-2.012-.974-1.976-2.12.036-1.155.96-2.012,2.115-1.962Z" fill="#fff"/>
                <path d="M113.557,299.695c1.069.083,1.873,1.067,1.761,2.154-.107,1.035-1.008,1.803-2.051,1.749-1.102-.058-1.902-.976-1.821-2.089.08-1.09,1.021-1.898,2.11-1.814Z" fill="#fff"/>
                <path d="M58.533,272.216c.088-1.058.958-1.808,2.026-1.746,1.112.064,1.905.986,1.805,2.096-.095,1.051-.983,1.818-2.03,1.755-1.107-.067-1.893-.986-1.8-2.105Z" fill="#fff"/>
                <path d="M74.255,255.64c.286.018.578.006.857.06.86.169,1.305.709,1.164,1.579-.143.881-.772,1.223-1.619,1.118-.443-.055-.866-.254-1.308-.322-.813-.125-1.314-.536-1.22-1.386.096-.867.71-1.126,1.511-1.054.204.018.409.027.613.04,0-.012.001-.023.002-.035Z" fill="#fff"/>
                <path d="M69.669,302.475c-.971-.036-1.745-.828-1.705-1.745.04-.929.972-1.747,1.934-1.7.907.044,1.689.931,1.622,1.838-.069.932-.888,1.643-1.851,1.607Z" fill="#fff"/>
                <path d="M105.57,253.341c.028-1.072.689-1.816,1.619-1.821.874-.005,1.631.795,1.614,1.705-.017.915-1.367,2.161-2.273,2.099-.716-.049-.995-.626-.959-1.983Z" fill="#fff"/>
                <path d="M113.463,264.358c-.954-.084-1.663-.939-1.526-1.907.143-1.012.77-1.539,1.789-1.518.978.019,1.672.848,1.594,1.835-.077.978-.891,1.676-1.857,1.591Z" fill="#fff"/>
                <path d="M91.779,246.862c.915.097,1.629,1.005,1.531,1.947-.099.959-.856,1.581-1.797,1.474-.954-.108-1.655-.97-1.552-1.91.097-.892.953-1.604,1.817-1.512Z" fill="#fff"/>
                <path d="M78.893,267.861c.055-.894.856-1.628,1.741-1.595.928.035,1.667.908,1.577,1.865-.085.905-.9,1.6-1.788,1.525-.88-.074-1.585-.901-1.53-1.795Z" fill="#fff"/>
                <path d="M100.974,268.517c-.153.779-.662,1.294-1.591,1.264-.85-.028-1.579-.852-1.465-1.671.126-.903.706-1.387,1.61-1.383.837.004,1.527.842,1.447,1.79Z" fill="#fff"/>
                <path d="M65.827,282.246c-.555.357-1.079.938-1.671,1.019-.883.12-1.342-.596-1.314-1.441.03-.872.638-1.487,1.449-1.337.574.106,1.048.76,1.566,1.17l-.031.59Z" fill="#fff"/>
                <path d="M89.511,288.495c.802-.62,1.227-1.13,1.747-1.261.206-.052.864.72.893,1.146.052.753-.513,1.233-1.312,1.058-.354-.078-.646-.443-1.328-.943Z" fill="#fff"/>
                <path d="M73.671,291.338c-.434-.74-.903-1.182-.843-1.534.064-.373.631-.66.979-.984.313.358.852.703.874,1.079.021.359-.496.749-1.01,1.439Z" fill="#fff"/>
                <path d="M73.447,276.601c.407.682.84,1.085.791,1.415-.052.346-.568.622-.881.929-.316-.347-.821-.662-.887-1.051-.048-.286.479-.669.977-1.293Z" fill="#fff"/>
                <path d="M68.784,250.592c.428.729.877,1.155.807,1.464-.077.345-.601.75-.978.807-.222.033-.756-.561-.754-.871.002-.356.441-.71.925-1.4Z" fill="#fff"/>
                <path d="M83.729,263.89c.709-.392,1.129-.813,1.443-.746.341.073.583.602.869.933-.335.286-.658.777-1.008.797-.318.018-.667-.475-1.304-.984Z" fill="#fff"/>
                <path d="M91.82,262.579c.61-.389.973-.803,1.264-.757.308.049.764.544.753.827-.011.285-.503.74-.816.768-.292.026-.625-.411-1.201-.838Z" fill="#fff"/>
                <path d="M64.116,290.595c.62-.376.968-.754,1.287-.731.277.02.771.555.723.756-.083.345-.483.796-.805.847-.27.042-.62-.424-1.205-.872Z" fill="#fff"/>
                <path d="M61.642,284.267c-.637.373-1.015.774-1.308.719-.323-.06-.567-.539-.845-.836.307-.266.6-.72.924-.744.3-.022.633.418,1.229.861Z" fill="#fff"/>
                <path d="M113.351,277.542c.497-.302.874-.698,1.094-.624.32.107.527.553.782.854-.319.238-.623.629-.962.662-.226.022-.501-.467-.913-.891Z" fill="#fff"/>
                <path d="M116.696,295.365c-.285-.554-.659-.958-.573-1.193.115-.312.588-.491.908-.728.199.311.575.638.548.928-.026.289-.457.541-.883.992Z" fill="#fff"/>
                <path d="M75.495,281.374c.322.474.697.792.646,1.008-.074.311-.459.548-.711.817-.227-.287-.588-.553-.636-.867-.034-.223.355-.51.701-.958Z" fill="#fff"/>
                <path d="M83.765,284.485c.304.466.604.736.623,1.025.011.178-.485.584-.618.534-.279-.106-.581-.419-.653-.702-.044-.172.324-.449.648-.857Z" fill="#fff"/>
              </g>
              <g>
                <path d="M124.962,240.626c.774.863.373,2.003-.231,2.395-.72.467-1.677.332-2.171-.341-.521-.708-.374-1.69.335-2.219.114-.085.242-.152.359-.234.985-.696,1.1-.669,1.707.399Z" fill="#fff"/>
                <path d="M100.476,244.922c.663-.412,1.527-.216,1.957.444.452.693.25,1.583-.455,1.997-.664.391-1.545.172-1.955-.486-.408-.655-.201-1.549.452-1.956Z" fill="#fff"/>
                <path d="M114.298,255.031c.558-.341,1.106-.178,1.512.45.391.605.227,1.39-.364,1.752-.575.352-1.32.161-1.676-.429-.373-.618-.153-1.356.529-1.773Z" fill="#fff"/>
                <path d="M122.526,258.3c-.582.339-1.288.159-1.613-.41-.322-.564-.123-1.281.448-1.614.618-.36,1.369-.195,1.693.373.326.571.097,1.288-.528,1.651Z" fill="#fff"/>
                <path d="M115.303,242.563c.555-.342,1.297-.175,1.642.37.35.553.177,1.287-.383,1.63-.569.349-1.28.187-1.634-.374-.358-.565-.194-1.275.376-1.626Z" fill="#fff"/>
                <path d="M133.518,247.711c.539-.307,1.243-.097,1.542.46.285.53.103,1.191-.414,1.503-.546.33-1.228.15-1.55-.409-.315-.548-.127-1.24.422-1.554Z" fill="#fff"/>
                <path d="M98.248,252.416c-.301-.535-.128-1.177.403-1.494.553-.33,1.233-.146,1.545.418.296.534.12,1.19-.403,1.5-.552.327-1.227.142-1.545-.424Z" fill="#fff"/>
                <path d="M129.767,253.454c-.506.287-1.116.134-1.368-.343-.261-.494-.071-1.168.407-1.443.492-.282,1.074-.124,1.361.37.296.51.125,1.118-.4,1.416Z" fill="#fff"/>
                <path d="M100.395,239.375c.143-.084.279-.185.43-.249.467-.198.855-.084,1.07.378.218.468.027.836-.413,1.061-.23.117-.497.16-.731.271-.43.204-.803.17-1.034-.268-.235-.446-.026-.77.381-.995.104-.057.205-.12.307-.18-.003-.006-.007-.012-.01-.017Z" fill="#fff"/>
                <path d="M113.404,263.291c-.476.298-1.105.17-1.383-.282-.282-.458-.102-1.152.374-1.442.449-.273,1.111-.103,1.373.353.269.469.108,1.075-.364,1.371Z" fill="#fff"/>
                <path d="M114.644,228.107c-.335-.523-.259-1.093.184-1.397.417-.286,1.039-.149,1.326.293.289.444.047,1.479-.407,1.743-.359.209-.679.023-1.103-.638Z" fill="#fff"/>
                <path d="M122,230.821c-.484.269-1.101.09-1.35-.418-.26-.531-.131-.987.364-1.308.475-.308,1.076-.137,1.359.361.281.493.117,1.092-.373,1.365Z" fill="#fff"/>
                <path d="M105.937,229.482c.47-.25,1.106-.047,1.366.435.264.492.103,1.035-.382,1.289-.492.258-1.107.073-1.363-.411-.243-.459-.064-1.077.379-1.314Z" fill="#fff"/>
                <path d="M106.584,243.721c-.264-.446-.119-1.057.316-1.329.456-.285,1.093-.106,1.36.381.253.461.088,1.058-.361,1.311-.445.25-1.051.083-1.315-.363Z" fill="#fff"/>
                <path d="M117.37,236.867c.18.423.103.835-.351,1.122-.416.263-1.033.105-1.244-.325-.233-.473-.112-.893.322-1.185.402-.27,1.005-.093,1.274.388Z" fill="#fff"/>
                <path d="M104.997,254.851c-.15.351-.212.799-.469,1.03-.384.344-.836.151-1.097-.264-.269-.427-.178-.919.26-1.111.309-.136.748.024,1.13.052l.177.292Z" fill="#fff"/>
                <path d="M118.367,250.154c.183-.558.221-.939.427-1.171.082-.092.647.065.8.259.269.344.155.757-.285.932-.195.078-.453-.002-.942-.02Z" fill="#fff"/>
                <path d="M111.705,256.658c-.448-.213-.816-.273-.902-.461-.09-.2.088-.521.149-.789.266.07.636.06.769.233.127.165.006.52-.016,1.017Z" fill="#fff"/>
                <path d="M106.813,249.674c.416.195.755.247.838.421.087.183-.07.482-.12.731-.264-.063-.608-.05-.766-.215-.116-.122.012-.476.048-.936Z" fill="#fff"/>
                <path d="M96.137,238.734c.442.21.795.268.862.439.075.19-.044.554-.207.704-.095.088-.544-.023-.644-.172-.115-.171-.019-.483-.011-.971Z" fill="#fff"/>
                <path d="M107.61,240.249c.212-.418.276-.756.449-.826.187-.076.475.099.719.165-.068.246-.063.586-.224.709-.147.112-.473-.011-.944-.048Z" fill="#fff"/>
                <path d="M111.059,236.995c.166-.384.205-.7.359-.773.163-.076.543.012.629.152.087.14,0,.518-.141.632-.132.107-.433.006-.847-.012Z" fill="#fff"/>
                <path d="M106.888,259.404c.175-.381.219-.676.379-.768.139-.08.549.016.592.127.073.192.027.538-.111.667-.115.108-.434-.002-.86-.027Z" fill="#fff"/>
                <path d="M103.649,257.177c-.184.385-.235.7-.393.769-.174.076-.446-.074-.676-.126.06-.227.054-.54.201-.656.137-.108.439-.005.868.013Z" fill="#fff"/>
                <path d="M126.227,237.17c.14-.306.192-.618.321-.654.188-.052.432.094.652.155-.075.218-.094.504-.246.629-.101.084-.391-.061-.727-.13Z" fill="#fff"/>
                <path d="M133.615,244.618c-.316-.173-.627-.245-.661-.385-.046-.187.122-.426.198-.643.196.084.482.119.564.266.081.147-.043.407-.101.762Z" fill="#fff"/>
                <path d="M109.343,251.294c.308.123.591.153.637.273.066.173-.042.411-.075.622-.202-.063-.461-.074-.586-.208-.089-.096.004-.359.025-.686Z" fill="#fff"/>
                <path d="M114.314,250.1c.297.124.528.156.631.289.063.081-.043.437-.123.456-.168.04-.414-.012-.541-.124-.077-.068.009-.32.032-.621Z" fill="#fff"/>
              </g>
            </g>
          </g>
        </g>
      </g>
    </g>
  </g>
</svg>