<?xml version="1.0" encoding="UTF-8"?>
<svg xmlns="http://www.w3.org/2000/svg" width="300" height="300" xmlns:xlink="http://www.w3.org/1999/xlink" viewBox="0 0 300 300">
  <defs>
    <clipPath id="b">
      <path d="M126.772,270.147c-.714.568-1.284,1.023-1.977,1.575-.003-.058.007.152.018.393-3.196-.319-3.327-2.383-.098-2.884,1.266-.458,1.292-1.73,1.796-3.082-1.457.556-2.442.47-3.814.697.252.876.893.851,1.45,1.442-.481.508-1.165.591-1.771.508-.164-1.022-1.028-2.49.117-3.246,1.081-.446-.186-1.686-.567-2.013-.576.277-1.111.961-.617,1.595.308.467.508.864-.116,1.321-1.184,3.272-3.027-.469-4.858-1.096.043-.188.129-.569.249-1.096-1.736,1.039-.908-3.182-2.925-.821-1.624-1.05-2.16-4.844-4.273-4.346-.195.121-.721-.087-.862-.323-.793-2.584-3.2-3.697-4.05-6.08-.648-1.513-1.976-2.377-3.113-3.449-.105-.152-.742-.109-.861.057-.955,1.197-2.936.12-3.038-1.301-.305-.566-1.47-1.131-1.391-1.989-.993-1.138.043-1.066.753-1.648-.713-.298-.871-.891-.862-1.733.182-.805-1.666-2.151-.396-2.576,1.456-.278.308-1.173.293-2.22-.995,1.425-2.019,2.272-3.674,2.052-.749.61-1.209.199-1.709-.265-1.289-1.414-3.222.461-4.368,1.389.096-3.759-4.685.9-6.54,1.179-.045-1.293-1.546-2.313-2.535-1.037-2.249-.607-2.976-3.952-4.684-5.586-.354-1.535-2.399-1.151-2.496-2.62-.174-1.629-2.3-1.873-2.288-3.673-1.441-.59-1.123-2.543-2.161-3.441-1.784-2.289-6.496-5.151-5.755-8.104.894-.917,0-1.194-.607-1.76-.469-1.012-1.005-.044-1.776-.239,1.881-2.059-1.466-2.334,1.303-5.969.307-.896-.85-.648-1.11-.104-.689,1.234-1.677,1.063-2.634.934-.512-.549-.059-1.924-1.332-1.664-.087-.365-.174-.73-.265-1.114-1.241.3-1.93,1.597-.515,2.208-1.318,1.253-3.583,4.501-4.84,1.678-1.488.342-1.344-2.237-2.996-.947-.081-.699-.146-1.267-.22-1.908-.179.118-.405.268-.633.418-.357-.743-.386-1.794-1.555-1.625-.128-.956-.256-1.902-.401-2.984-.273.4-.459.674-.57.836-1.739-.398-2.103-2.224-3.029-3.533-.095.013-.19.027-.285.04-.063.335-.127.67-.19,1.006-.1-.005-.2-.01-.301-.014.267-3.392-2.866-4.422-3.859-7.278.268-1.007.296-1.422-.313-2.239-.385.414-.736.792-1.218,1.311-.78-.576-.39-2-1.553-1.698-.335-1.357-.028-2.349.869-3.26-.982-1.094,1.552-3.478-.432-3.648-.108.467-.211.908-.313,1.349h-.215c.026-1.112.053-2.223.084-3.524,2.431,1.178,2.282-2.245,2.499-3.943-.967.712-1.639,2.005-2.82,1.039.176.3.352.6.614,1.048-.519.131-.969.245-1.271.321-.347-1.909.465-3.139,1.711-4.501.127.086.294.199.395.268,2.901-4.637,5.805-9.825,10.004-13.792-1.101-.897-1.671-2.744-.22-3.567.661.055,1.365.339,1.709.081.63-.781,1.133-1.841-.331-2.352-.007-1.37,1.816-2.873.508-4.08-.762-.851-.499-2.634-1.967-2.737-1.541-.467-2.351.923-3.668,1.337-1.282-.241-1.534,1.02-2.196,1.866-.778-.443-1.737-.572-2.254-1.223-.354-1.428-1.427-.995-2.579-1.251.279-.295.512-.541.756-.799-1.61-.454-1.243,1.18-.684,1.971-.347.287-.659.544-1.161.959-.146-.998.719-2.27-.491-2.696-2.003-.024-2.094-3.775-4.13-2.353.013-.316.026-.622.039-.933-1.119-.022-1.15-.978-1.739-1.663-2.298-1.886-1.623-1.258-2.3-3.981-.202.134-.39.26-.632.421-.647-.984-1.563-1.132-1.856-2.568-1.328-2.881-5.346-3.058-7.079-5.386-.585.083-1.041.148-1.601.228,1.383-2.045.167-3.317.285-5.289.802-1.974,1.602-3.943,2.4-5.907l.357.032c-.084.989-.167,1.98-.27,3.197.814-.916.531-1.853.959-2.706.183.12.335.22.487.32.067-.034.134-.067.201-.101.024-1.515-1.858-.945-.615-2.467,8.097-15.249,14.395-31.292,23.079-46.174.452-.861.735-1.603,1.645-.565,1.744.56,1.811-2.35,3.56-2.194.431-.026.743-1.269.438-1.892-.072.32-.123.543-.188.83-.996.023-1.962.045-2.946.068.288-2.054,2.598-2.155,4.1-1.523,1.683-2.489,2.304-6.224,5.744-6.788-.14-.172-.266-.327-.539-.662,2.52-.59,4.58,2.546,6.67,1.905.44-.39.743-.297.818.309-.216.079-.43.157-.716.261,4.26,1.531,8.617,5.253,12.519,6.025.919,2.415,2.378-.584,3.433-1.49.519-.833,1.393-.071,2.021-.601,8.953-9.038,16.928-19.513,26.772-26.991.548-.009,1.596.235,1.946.822,1.848,1.277,2.466-3.795,6.841,1.161.667,1.147,2.425-.463,2.708,1.046.282,1.139,1.689,1.087,2.207,2.067,1.786,1.081,2.565,3.146,4.737,3.803.689.392.8.85,1.497-.017.118,1.414.309,1.516,1.399.76.079.407.154.792.229,1.178l1.123-.477c-.465,6.943,24.591-23.986,27.83-25.766,1.614.353-.188,1.261.697,2.163.504.143.961-.691,1.338-.89,1.676-.328-.022,1.919,1.229,2.224.722.181.831,1.901,1.677.962.181.363.422.654.47.981.121.87,1.498.81,1.687.114.111-.926-.632-2.356.922-2.128.695.044.417,1.093.954,1.37-.252.402-.445.71-.638,1.018.435.124.871.249,1.436.41-.455,1.116-.409,1.297.704,1.757.236,1.007,1.231,1.468,1.973,2.04.853.704,1.654,2.045,3.013,1.97-.367,1.39,1.423.545,2.121.967-1.036.973-.927,1.293.14,1.928-.026.064-.052.129-.078.193-.473-.052-.945-.105-1.599-.177.27.731,1.157.622.746,1.475-.068.73,1.223.916,1.837.424-.165.316-.264.505-.399.765.57-.039.209,1.014.965.708.422-.171.76-.545,1.101-.949-1.081.652-1.342-.397-.403-.954,1.362.035,2.055-.861,2.827-1.742,1.164-1.315,2.162-2.092,3.896-1.315.42.365.792.737,1.358.086,1.024.926,2.01,1.817,2.997,2.709.08-.067.161-.134.241-.2-.201-.332-.402-.663-.707-1.165,1.923,1.296,3.917-1.03,5.357.406.242,1.625,1.152,2.489,2.362,3.451,1.077.962.459,2.642,1.638,3.51.591.438.42,1.541,1.363.95,1.136-.803,2.064,1.302,1.41,2.168.424.081.745.143,1.018.195-.349.427-.657.804-.966,1.18.601.262-.509,1.372.736,1.339.079-.234.163-.483.242-.715.997.668,2.299,1.187,1.222,2.566.322.045.606.085.957.133-.052.234-.096.434-.112.508.399.361.738.669,1.123,1.017-.197.249-.374.474-.652.826.998-.259,1.849-.481,2.782-.723.017.314.026.498.036.679,2.534.548.472,4.428.011,6.054.081.056.162.112.243.169,1.616-1.377,2.453-3.491,3.878-5.066.083.048.165.097.248.145-.384.974-.893,1.909-1.079,2.947,1.031-.032,1.49-.808,2.019-1.568,3.259,2.237,14.631-18.5,13.479-7.991.094.03.189.059.283.089,1.094-2.144,4.509-2.623,4.519.402-.096.89.735.556,1.293.499.593-.139.81.106.812.662-.08,1.962,4.51.524,3.973,3.236,2.144-.457,1.241,2.226,2.864,2.406.605-.004,1.21.372,1.837.587-.225.485-.433.934-.678,1.461,5.02.996,1.101.777,3.501,2.933,4.404,2.295.161,6.216-.403,9.674.089.041.178.082.266.123-.185.117-.369.233-.605.382.059.154.126.329.196.511-1.449.027-.687,1.274-1.387,2.138-.349.477-.522.808.079,1.218.73.849.617,2.264.918,3.296-.073-.059-.231-.188-.271-.221-.656,1.441.088,2.991-1.8,3.481-.204.757-.278,1.634-1.183,2.076-.315-.334-.584-.62-.852-.905-.137-.009-.274-.017-.41-.026.293,2.122-.855,3.447-1.799,5.239,1.242.98,3,.811,3.902,1.869.136.202.265.614.366.604,1.437-.079,1.729,1.318,2.679,1.994.643-.661,1.245-1.281,1.864-1.918.26.187.466.335.672.483.052-.03.105-.061.157-.091l-.428-.924c1.562-3.164,1.703.665,2.812-1.18.475.196-.208,1.169.688.926.129-.035.115-.591.193-1.067,1.148-.008,1.437,1.548,2.789.384.073.773.039,1.143.215,1.756,1.685-.842,3.335-2.183,4.895-3.547,1.023-1.326,1.915-1.908,3.486-.744-.475.142-.748.223-1.02.305-.005.067-.011.135-.016.202.378.068.756.137,1.195.217.034-.181.063-.334.1-.528,1.723.228.025,1.229,1.078,1.799.134-.204.256-.391.296-.453,1.868.37,1.023-1.643.979-2.751l.204-.01c1.293,1.101,1.019,3.405,2.372,4.092.478.042.83.144,1.165.502,1.443.824.727-1.53,1.45-1.887.825-.061,1.284.754,1.73,1.415-.65,1.95,2.239,2.847,3.33,4.16-1.55-.417-2.332-.086-.804,1.442.229-.349.361-.551.594-.905.361.657.506,1.139,1.073,1.535.326-.601.054-1.047-.141-1.632.68.197,1.275.399.869,1.299.351,2.153,4.294-.792,3.39,2.185.898-.303,3.057.317,1.793,1.39-.131.095-.137.605-.006.756.169.194.628.381.795.285.865-.523,1.285.614,1.879,1.035,1.081,1.873-1.129,3.834-.969,5.528,1.202.529-.36,2.016-1.067.878-.308.414-.488.762.194.862,1.616,1.818-2.468,6.466-3.68,8.628.365-.107.59-.173.909-.267.159.618,1.012,1.706-.01,1.987-.745.554-.263,1.555-.229,2.5.289.015,1.168-.414,1.404-.381.598.516,1.12.261,1.637-.051.559-.337.696-.053.782.465.801,2.367,1.179,4.776,2.081,7.035.296,1.29.714,3.393,2.176,3.714.357.969,1.887,1.054,1.624,2.511,2.597-.272,2.122,3.134,2.166,4.769,2.929,1.423-1.903,4.927-2.06,7.046-1.368,1.049-1.719,3.218-2.761,3.844-.552.332.13,1.785-.94,1.65-.796.839-1.221,1.956-2.062,3.186,3.359.425,6.449.815,9.532,1.205.032,1.666.885.365,1.742,1.274-.463.32-.798.55-1.11.766,1.152,1.211,1.958,3.802.022,4.516-1.213-.421-.742.496-.819,1.117.542-.177.997-.326,1.52-.497.973,1.168-1.798,1.906-.43,3.306.013,5.671-9.282,6.554-2.154,13.149-.601.93.805,1.579.35,2.49-.864,1.241-.557,2.496,1.028,2.77.031-.119.095-.368.163-.633,1.014.619,2.481,4.084,2.35,5.432.203-.031.46-.071.716-.111-.01.096-.021.192-.031.288-.183.196-.365.393-.548.59.022.092.044.183.066.275.393-.066.786-.133,1.324-.224-.604.681-.237,2.147-1.186,2.219-.146-.009-.301.289-.452.446.707.611,1.519-.008,2.306-.16.039.066.079.131.118.197-3.126,4.171-9.064,6.455-10.856,11.429-.128,1.576-.41.812-1.467,1.079.511.307,1.427.88.622,1.38-.764.446.062,1.168-.253,1.875-.087.003-.174.006-.261.009-.122-.197-.243-.393-.517-.836-2.745,9.891-14.735,10.7-21.933,16.161-4.721,4.006-9.465,8.241-14.742,11.416-1.032,1.679-4.844,4.864-6.137,2.157.234-.101.458-.199.914-.396-.521-.325-.863-.539-1.347-.841.147,1.114-.969,3.195-.613,1.098-1.212-.582-.148-1.97-.78-3.19-.401.884-.706,1.557-1.011,2.231-1.428-.731-.155-3.632-1.829-3.831-.673,1.024-1.157.594-1.616-.31-.299.539-.537.97-.797,1.437-3.272-3.432-9.814,6.669-13.382,6.068-1.938.182-3.462,3.741-5.535,2.824-8.971-2.229-27.887,23.203-33.172,18.759.277-.119.533-.228,1.027-.44-.491-.356-.823-.597-1.214-.881-1.253,2.454-1.359-.662-1.252-1.807-.098-.031-.197-.062-.295-.093-.366.652-.732,1.305-1.092,1.947-1.624-.22.047-4.78-1.789-3.836-.899,1.306-.917.067-1.661-.321-.179.432-.346.837-.504,1.219-2.082-1.718-4.408.854-6.83.32-.817.38-2.702,1.194-2.44-.602.711-.752,1.476-3.949-.374-3.102-.693-1.096-.614-1.406.383-1.632-.13-1.436-.512-1.982-1.573-.714.167-2.383-1.748-3.383-1.153-5.508.157-.534-.429-1.418-.268-1.963.769-1.473-.333-2.133-.906-3.004-1.931-.74-2.614-2.2-3.516-4.067-.659.517-1.34,1.051-2.08,1.631.027-.286.049-.514.074-.772-2.134.455-.86,2.028-2.308,3.424-.48-2.06,1.266-3.471,1.159-5.483-7.491,8.85-14.265,20.34-21.905,27.933ZM281.647,165.413c.861.91-.177,1.368.871,1.808.243-.854,1.473-1.293.613-2.462l-.624.31-.413-.196c.221-.269.443-.537.662-.803-1.404-1.639-1.201.322-1.109,1.344ZM33.541,183.748c-.44.598-.881,1.197-1.321,1.794.416.232.892.496,1.372.764.972-1.015.967-1.809-.051-2.558ZM282.421,173.251c-.222-.095-.444-.189-.666-.284.342-.493.685-.986.992-1.43-.25-.17-.55-.375-.848-.578q-.56.478.02,1.052c-.282.189-.563.377-.843.564-.009.121-.018.242-.026.363.457.104.914.208,1.372.313ZM280.446,162.308c-.318.619-.555,1.08-.89,1.733,1.061-.275,2.309-1.141.89-1.733ZM230.913,89.214c-.07.023-.14.046-.21.069-.088.634-.176,1.268-.273,1.965l.902-.413c-.137-.532-.278-1.077-.419-1.622ZM179.677,43.765c-.848.503-.866.792-.101,1.425.035-.491.064-.905.101-1.425ZM38.809,78.717c.649.155,1.027.174,1.063-.485-.428-.544-.687.017-1.063.485ZM31.936,191.013c-.467.934-.379,1.117.477,1.239-.178-.463-.328-.851-.477-1.239ZM281.27,169.697c.154.012.308.025.462.037.005-.409.011-.818.016-1.226-.12-.01-.24-.02-.36-.03-.039.406-.079.812-.118,1.218ZM76.359,239.142c-.032.385-.064.77-.106,1.275.927-.494.838-.89.106-1.275Z" fill="none"/>
    </clipPath>
    <linearGradient id="c" data-name="Dégradé sans nom 13" x1="148.843" y1="67.007" x2="148.843" y2="252.017" gradientUnits="userSpaceOnUse">
      <stop offset="0" stop-color="#ffd66e"/>
      <stop offset="1" stop-color="#e86170"/>
    </linearGradient>
    <filter id="d" data-name="drop-shadow-4" x="-122.469" y="125.999" width="378.539" height="180.799" filterUnits="userSpaceOnUse">
      <feOffset dx="-3" dy="0"/>
      <feGaussianBlur result="e" stdDeviation="0"/>
      <feFlood flood-color="#42496f" flood-opacity="1"/>
      <feComposite in2="e" operator="in"/>
      <feComposite in="SourceGraphic"/>
    </filter>
    <clipPath id="f">
      <path d="M119.154,182.825s-17.362-21.084-50.286-28.112c-24.157-5.157-68.121-6.076-89.822-6.199-7.393-.042-13.698,5.291-14.914,12.584l-5.776,34.659,160.799-12.931Z" fill="none"/>
    </clipPath>
    <clipPath id="g">
      <path d="M244.025,157.244s-8.208,90.52-89.17,134.093H-75.098s-31.192-69.998-31.192-104.575c226.569,0,181.42-29.517,350.315-29.517Z" fill="none"/>
    </clipPath>
  </defs>
  <g isolation="isolate">
    <g id="a" data-name="bateau 06">
      <g clip-path="url(#b)">
        <rect x="5.286" y="7.067" width="287.116" height="269.478" fill="url(#c)"/>
        <path d="M255.432,127.801c-.73-1.131-1.96-1.802-3.296-1.802-.016,0-.031,0-.046,0-2.601.03-5.193.091-7.779.168-.169-.054-.343-.049-.498.017-22.596.7-44.516,3.172-64.143,7.183-.103-.002-.203.021-.297.061-8.712,1.789-16.985,3.872-24.639,6.249-11.869,3.686-21.947,7.949-29.959,12.612-.05.019-.093.053-.138.082-3.642,2.128-13.313,8.306-17.958,16.241l-3.419.839s-12.323-10.065-34.391-14.738c-24.165-5.118-68.121-6.076-89.822-6.199-7.393-.042-13.698,5.291-14.914,12.584l-4.107,24.643c-19.179.652-41.054,1.02-66.315,1.02,0,34.577,31.193,104.575,31.193,104.575h229.953c1.157-.623,2.296-1.258,3.423-1.899,4.594,2.358,9.09,4.607,10.87,2.75,1.575-1.642,1.476-4.521,1.633-7.168l22.943,7.177s3.117-4.165,6.968-9.922l.687.215s29.69-39.671,19.051-43.446c-1.998-.709-5.112.008-8.85,1.64,28.577-40.825,32.444-83.439,32.444-83.439-.083,0-.164,0-.247,0l11.922-25.642c.573-1.232.473-2.653-.269-3.801ZM219.893,157.466l13.44-29.379c3.17-.177,6.367-.321,9.588-.427l-13.646,29.664c-3.211.036-6.334.083-9.382.142ZM208.298,157.751l13.108-28.824c3.392-.289,6.822-.54,10.288-.747l-13.411,29.317c-3.428.071-6.754.156-9.985.255ZM133.018,149.594l-6.999,15.712c-2.088.351-4.141.709-6.172,1.072l5.741-12.888c2.312-1.337,4.792-2.637,7.43-3.896ZM164.234,160.338c.243-.608.835-1.041,1.529-1.041.401,0,.726-.325.726-.726s-.325-.726-.726-.726c-1.551,0-2.827,1.148-3.054,2.636-2.139.204-4.232.414-6.274.633l10.258-23.029c.036-.081.051-.166.056-.25,3.76-.96,7.646-1.863,11.647-2.705l-11.107,24.934c-1.029.09-2.048.181-3.055.274ZM154.764,161.296c-3.142.346-6.177.71-9.118,1.088l9.252-20.771c.065-.146.065-.298.034-.443,3.242-1.01,6.606-1.973,10.082-2.887l-10.251,23.012ZM143.957,162.605c-2.653.351-5.232.714-7.751,1.087l8.246-18.511c.064-.144.065-.294.035-.437,2.811-1.057,5.74-2.076,8.786-3.052l-9.316,20.913ZM134.501,163.948c-1.425.216-2.833.436-4.223.658.296-.442.799-.734,1.37-.734.401,0,.726-.325.726-.726s-.325-.726-.726-.726c-1.488,0-2.733,1.054-3.031,2.455-.294.048-.589.096-.881.144l7.138-16.023c.043-.097.06-.198.06-.297,2.482-1.134,5.094-2.233,7.827-3.294l-8.26,18.543ZM168.943,159.922l11.206-25.155c4.244-.867,8.611-1.665,13.089-2.39l-11.951,26.631c-4.302.277-8.406.583-12.343.915ZM194.952,132.104c3.927-.616,7.935-1.176,12.016-1.678l-12.589,27.859c-3.969.185-7.783.392-11.455.62l12.028-26.801ZM208.653,130.223c3.643-.431,7.343-.815,11.091-1.15l-13.065,28.73c-3.678.119-7.236.255-10.672.408l12.647-27.988ZM123.421,154.784l-5.303,11.906c-1.034.188-2.063.376-3.087.566v-6.397c2.42-2.093,5.227-4.121,8.391-6.075ZM254.383,130.99l-12.208,26.257c-3.876.005-7.639.026-11.294.061l13.662-29.699c2.508-.074,5.029-.128,7.563-.157.866.018,1.639.416,2.106,1.138.469.726.533,1.624.171,2.401Z" fill="none" stroke="#fff" stroke-linecap="round" stroke-linejoin="round" stroke-width="20"/>
        <g>
          <g>
            <g>
              <path d="M201.38,282.488s29.69-39.671,19.051-43.446c-10.639-3.775-52.867,32.868-52.867,32.868l33.816,10.578Z" fill="#fff"/>
              <path d="M193.725,292.196s29.69-39.671,19.051-43.446c-10.639-3.775-52.867,32.868-52.867,32.868l33.816,10.578Z" fill="#9bc8ec"/>
              <g>
                <path d="M222.028,271.313c-1.249.631-2.452-.193-2.72-1.021-.319-.986.14-2.059,1.079-2.425.99-.385,2.088.094,2.483,1.088.063.16.101.33.16.492.502,1.367.435,1.493-1.002,1.866Z" fill="#fff"/>
                <path d="M224.704,241.411c.272.902-.228,1.848-1.132,2.143-.95.309-1.924-.206-2.186-1.157-.247-.897.285-1.856,1.18-2.127.892-.27,1.87.252,2.138,1.141Z" fill="#fff"/>
                <path d="M208.577,254.355c.223.758-.14,1.346-.999,1.621-.828.265-1.692-.171-1.928-.975-.23-.781.227-1.59,1.026-1.82.838-.241,1.63.247,1.902,1.173Z" fill="#fff"/>
                <path d="M202.183,262.924c-.212-.786.219-1.552.985-1.753.759-.198,1.532.258,1.741,1.029.226.833-.203,1.658-.966,1.857-.768.201-1.532-.291-1.76-1.134Z" fill="#fff"/>
                <path d="M222.801,259.442c.225.755-.203,1.568-.946,1.799-.754.234-1.556-.197-1.78-.959-.228-.774.184-1.551.949-1.788.771-.24,1.548.175,1.778.948Z" fill="#fff"/>
                <path d="M211.079,279.065c.189.725-.277,1.48-1.02,1.654-.708.166-1.421-.254-1.623-.955-.213-.741.21-1.479.964-1.679.738-.196,1.486.241,1.679.98Z" fill="#fff"/>
                <path d="M216.666,236.461c.719-.183,1.412.22,1.615.939.211.749-.216,1.483-.972,1.67-.716.177-1.425-.234-1.622-.94-.208-.746.219-1.475.979-1.669Z" fill="#fff"/>
                <path d="M205.56,272.888c-.176-.68.194-1.344.83-1.488.659-.149,1.384.284,1.554.928.175.662-.192,1.291-.858,1.471-.688.185-1.342-.205-1.525-.911Z" fill="#fff"/>
                <path d="M231.199,243.059c.053.193.128.383.156.579.085.606-.17,1.024-.777,1.129-.615.107-.984-.231-1.107-.814-.065-.305-.03-.63-.086-.937-.103-.566.054-.99.637-1.122.594-.134.906.212,1.041.757.034.139.076.276.114.414.008-.002.016-.004.023-.006Z" fill="#fff"/>
                <path d="M199.227,250.72c-.198-.649.149-1.341.763-1.524.622-.185,1.375.243,1.564.889.178.609-.229,1.328-.843,1.49-.631.167-1.287-.212-1.484-.855Z" fill="#fff"/>
                <path d="M239.864,263.212c.714-.226,1.356.041,1.572.653.202.576-.153,1.258-.758,1.455-.608.198-1.739-.409-1.905-1.022-.131-.484.186-.8,1.091-1.086Z" fill="#fff"/>
                <path d="M234.39,270.937c-.162-.649.24-1.313.911-1.443.701-.136,1.192.157,1.411.834.211.65-.179,1.298-.848,1.472-.663.172-1.31-.206-1.474-.863Z" fill="#fff"/>
                <path d="M240.995,252.627c.144.626-.292,1.305-.936,1.456-.656.154-1.239-.204-1.384-.85-.147-.654.263-1.314.907-1.461.611-.139,1.276.263,1.413.855Z" fill="#fff"/>
                <path d="M224.188,248.911c.603-.168,1.27.194,1.45.785.189.621-.219,1.308-.872,1.467-.617.15-1.262-.229-1.415-.832-.152-.598.233-1.252.836-1.42Z" fill="#fff"/>
                <path d="M228.794,263.641c-.549.077-1.006-.142-1.198-.762-.176-.568.202-1.237.769-1.349.625-.123,1.077.15,1.281.747.188.554-.207,1.201-.852,1.364Z" fill="#fff"/>
                <path d="M211.708,243.566c-.362-.285-.866-.498-1.054-.871-.281-.555.087-1.022.652-1.196.583-.18,1.128.082,1.214.652.061.403-.263.865-.415,1.301l-.397.114Z" fill="#fff"/>
                <path d="M212.987,260.631c.593.388,1.026.552,1.232.865.081.124-.279.735-.553.851-.485.206-.931-.057-.998-.625-.029-.252.145-.527.319-1.092Z" fill="#fff"/>
                <path d="M207.495,250.821c.389-.455.575-.866.821-.907.261-.043.58.266.873.422-.165.288-.27.723-.513.823-.232.096-.608-.156-1.181-.338Z" fill="#fff"/>
                <path d="M217.174,247.309c-.358.424-.525.802-.754.845-.24.045-.54-.233-.814-.37.157-.288.25-.693.491-.825.178-.097.551.164,1.077.35Z" fill="#fff"/>
                <path d="M233.283,238.295c-.384.449-.563.842-.783.867-.245.028-.632-.226-.756-.462-.073-.139.198-.627.403-.697.236-.08.569.129,1.135.292Z" fill="#fff"/>
                <path d="M227.914,251.197c.42.379.795.56.822.783.03.242-.265.523-.418.786-.265-.156-.663-.257-.756-.484-.085-.206.161-.548.352-1.086Z" fill="#fff"/>
                <path d="M230.626,256.241c.396.314.752.459.788.662.038.214-.185.629-.375.686-.191.057-.604-.163-.693-.363-.084-.187.129-.507.279-.984Z" fill="#fff"/>
                <path d="M205.804,244.342c.39.323.719.467.776.683.05.188-.191.636-.334.65-.247.024-.636-.137-.743-.338-.09-.169.138-.506.301-.995Z" fill="#fff"/>
                <path d="M209.418,241.264c-.392-.335-.743-.494-.773-.7-.034-.227.227-.497.359-.749.246.142.613.232.702.441.083.193-.132.513-.288,1.008Z" fill="#fff"/>
                <path d="M225.66,273.872c.313.259.66.418.662.58.002.236-.245.474-.386.711-.23-.156-.558-.268-.656-.484-.066-.144.194-.437.38-.807Z" fill="#fff"/>
                <path d="M214.655,280.149c.301-.315.482-.654.657-.65.232.005.459.276.688.433-.16.203-.29.525-.488.574-.197.048-.461-.178-.857-.357Z" fill="#fff"/>
                <path d="M214.49,249.751c-.24.321-.364.641-.518.657-.222.022-.467-.178-.702-.283.137-.215.231-.515.427-.618.139-.073.418.118.793.244Z" fill="#fff"/>
                <path d="M214.323,255.922c-.238.307-.348.567-.535.645-.115.048-.497-.187-.494-.287.006-.208.144-.479.315-.591.104-.068.37.111.714.233Z" fill="#fff"/>
              </g>
            </g>
            <g filter="url(#d)">
              <g>
                <path d="M119.154,182.825s-17.362-21.084-50.286-28.112c-24.157-5.157-68.121-6.076-89.822-6.199-7.393-.042-13.698,5.291-14.914,12.584l-5.776,34.659,160.799-12.931Z" fill="#b1ddea"/>
                <g clip-path="url(#f)">
                  <path d="M21.292,157.244h93.739v21.365H21.292c-3.912,0-7.089-3.176-7.089-7.089v-7.188c0-3.912,3.176-7.089,7.089-7.089Z" fill="#42496f"/>
                </g>
              </g>
              <g>
                <path d="M241.064,161.359l13.978-30.063c.993-2.135-.591-4.598-2.945-4.571-73.885.86-136.276,20.393-146.72,45.41" fill="none" stroke="#6498d1" stroke-linecap="round" stroke-linejoin="round" stroke-width="1.452"/>
                <g>
                  <line x1="125.025" y1="152.969" x2="117.703" y2="169.406" fill="none" stroke="#6498d1" stroke-linecap="round" stroke-linejoin="round" stroke-width="1.452"/>
                  <line x1="134.211" y1="148.701" x2="125.359" y2="168.572" fill="none" stroke="#6498d1" stroke-linecap="round" stroke-linejoin="round" stroke-width="1.452"/>
                  <line x1="143.788" y1="144.887" x2="133.407" y2="168.19" fill="none" stroke="#6498d1" stroke-linecap="round" stroke-linejoin="round" stroke-width="1.452"/>
                  <line x1="154.234" y1="141.318" x2="142.324" y2="168.055" fill="none" stroke="#6498d1" stroke-linecap="round" stroke-linejoin="round" stroke-width="1.452"/>
                  <line x1="166.03" y1="137.79" x2="152.59" y2="167.96" fill="none" stroke="#6498d1" stroke-linecap="round" stroke-linejoin="round" stroke-width="1.452"/>
                  <line x1="179.653" y1="134.094" x2="164.684" y2="167.697" fill="none" stroke="#6498d1" stroke-linecap="round" stroke-linejoin="round" stroke-width="1.452"/>
                  <line x1="194.391" y1="131.579" x2="178.762" y2="166.406" fill="none" stroke="#6498d1" stroke-linecap="round" stroke-linejoin="round" stroke-width="1.452"/>
                  <line x1="208.072" y1="129.746" x2="191.781" y2="165.797" fill="none" stroke="#6498d1" stroke-linecap="round" stroke-linejoin="round" stroke-width="1.452"/>
                  <line x1="220.827" y1="128.445" x2="203.876" y2="165.72" fill="none" stroke="#6498d1" stroke-linecap="round" stroke-linejoin="round" stroke-width="1.452"/>
                  <line x1="232.79" y1="127.528" x2="215.178" y2="166.027" fill="none" stroke="#6498d1" stroke-linecap="round" stroke-linejoin="round" stroke-width="1.452"/>
                  <line x1="244.094" y1="126.848" x2="225.821" y2="166.571" fill="none" stroke="#6498d1" stroke-linecap="round" stroke-linejoin="round" stroke-width="1.452"/>
                </g>
              </g>
              <path d="M244.025,157.244s-8.208,90.52-89.17,134.093H-75.098s-31.192-69.998-31.192-104.575c226.569,0,181.42-29.517,350.315-29.517Z" fill="#b1ddea"/>
              <path d="M244.025,157.244s-8.208,90.52-89.17,134.093H-75.098s-31.192-69.998-31.192-104.575c226.569,0,181.42-29.517,350.315-29.517Z" fill="#fff" opacity=".75"/>
              <g clip-path="url(#g)">
                <path d="M-119.233,226.211c179.915,4.873,266.499-42.355,374.447-33.734" fill="none" stroke="#e86170" stroke-miterlimit="10" stroke-width="17.429"/>
                <path d="M146.891,306.798s70.467-45.353,83.211-119.193c0,0-67.468-16.867-159.674,17.991-92.206,34.858-158.925,25.488-158.925,25.488,0,0,2.624,35.608,18.741,71.216l216.647,4.498Z" fill="#a384bb" mix-blend-mode="multiply" opacity=".25"/>
              </g>
              <g>
                <rect x="116.01" y="187.322" width="20.99" height="40.481" rx="10.495" ry="10.495" fill="#a384bb" mix-blend-mode="multiply" opacity=".25"/>
                <rect x="118.779" y="180.598" width="20.99" height="40.481" rx="10.495" ry="10.495" fill="#ffd66e"/>
                <rect x="120.808" y="186.309" width="8.817" height="30.37" rx="4.12" ry="4.12" fill="#f4af13" mix-blend-mode="multiply" opacity=".25"/>
                <path d="M131.648,163.147c-1.311,0-2.374,1.063-2.374,2.374v15.076" fill="none" stroke="#42496f" stroke-linecap="round" stroke-linejoin="round" stroke-width="1.452"/>
              </g>
              <g>
                <rect x="150.125" y="182.746" width="20.99" height="40.481" rx="10.495" ry="10.495" fill="#a384bb" mix-blend-mode="multiply" opacity=".25"/>
                <rect x="152.894" y="176.021" width="20.99" height="40.481" rx="10.495" ry="10.495" fill="#ffd66e"/>
                <rect x="154.923" y="181.732" width="8.817" height="30.37" rx="4.12" ry="4.12" fill="#f4af13" mix-blend-mode="multiply" opacity=".25"/>
                <path d="M165.763,158.571c-1.311,0-2.374,1.063-2.374,2.374v15.076" fill="none" stroke="#42496f" stroke-linecap="round" stroke-linejoin="round" stroke-width="1.452"/>
              </g>
            </g>
          </g>
          <g>
            <path d="M180.895,279.969s-22.799-62.479-43.062-48.243c-5.732,4.027,9.305,36.086,9.305,36.086,0,0-20.015-9.722-21.615-1.372-1.599,8.351-9.298,14.852-24.696,11.772-15.398-3.08,43.455,18.67,44.824,9.934,1.369-8.736,19.45,8.261,23.497,4.04,4.048-4.222-2.967-16.621,11.746-12.217Z" fill="#9bc8ec"/>
            <path d="M172.722,270.928c.733-13.514-20.081-49.848-34.888-39.201-9.748,7.009,6.868,27.667,9.305,36.086-12.368-7.141-26.823-7.974-30.692-3.988-3.869,3.986,7.135,5.681,4.107,9.305s-31.46,3.698-31.46,3.698c0,0,32.594,11.53,41.824,7.485,5.815-2.548-3.532-10.841,1.623-12.645,12.884-4.508,24.517,18.795,34.366,16.29,5.835-1.484-8.44-20.232-4.673-21.783,3.766-1.551,10.49,4.752,10.49,4.752Z" fill="#fff"/>
            <g>
              <g>
                <path d="M88.566,270.566c.851.475.844,1.491.471,1.968-.445.569-1.243.722-1.82.322-.608-.421-.76-1.242-.34-1.857.068-.099.151-.187.222-.284.594-.823.692-.833,1.467-.149Z" fill="#fff"/>
                <path d="M70.26,280.676c.415-.509,1.156-.589,1.678-.182.549.428.631,1.191.184,1.713-.422.492-1.182.559-1.688.148-.504-.41-.584-1.178-.175-1.679Z" fill="#fff"/>
                <path d="M84.019,284.941c.351-.424.831-.444,1.326-.055.476.374.561,1.044.189,1.493-.361.437-1.006.489-1.45.117-.466-.39-.492-1.037-.064-1.555Z" fill="#fff"/>
                <path d="M91.458,285.292c-.371.429-.981.479-1.396.115-.41-.361-.448-.985-.085-1.406.393-.455,1.036-.529,1.449-.166.415.365.429.998.031,1.458Z" fill="#fff"/>
                <path d="M81.411,274.747c.348-.424.984-.494,1.407-.155.429.344.493.975.141,1.402-.358.433-.967.498-1.402.149-.439-.352-.503-.962-.146-1.396Z" fill="#fff"/>
                <path d="M97.309,273.865c.345-.392.962-.417,1.353-.056.371.344.407.919.081,1.309-.345.412-.936.455-1.345.098-.401-.35-.44-.952-.089-1.351Z" fill="#fff"/>
                <path d="M70.536,287.247c-.386-.343-.424-.901-.087-1.298.35-.414.941-.453,1.343-.09.381.344.42.914.09,1.303-.35.411-.937.448-1.345.085Z" fill="#fff"/>
                <path d="M95.894,279.459c-.324.367-.851.412-1.182.101-.343-.322-.375-.91-.07-1.259.314-.359.82-.392,1.184-.078.375.325.405.855.069,1.236Z" fill="#fff"/>
                <path d="M68.68,276.285c.091-.106.171-.223.274-.316.317-.285.657-.301.955.008.301.313.25.658-.038.957-.151.156-.352.263-.508.415-.286.28-.593.355-.896.07-.309-.291-.231-.605.031-.896.067-.074.13-.151.195-.227-.004-.004-.009-.007-.013-.011Z" fill="#fff"/>
                <path d="M85.565,291.756c-.298.367-.832.437-1.177.154-.35-.287-.396-.889-.096-1.25.282-.34.856-.385,1.189-.094.342.299.38.826.085,1.19Z" fill="#fff"/>
                <path d="M76.936,263.427c-.409-.324-.505-.799-.236-1.162.254-.341.786-.402,1.135-.13.351.274.442,1.163.152,1.498-.228.264-.534.204-1.052-.206Z" fill="#fff"/>
                <path d="M83.53,263.575c-.311.347-.851.373-1.188.037-.352-.351-.374-.749-.068-1.14.293-.375.819-.403,1.18-.084.358.316.392.837.076,1.187Z" fill="#fff"/>
                <path d="M70.385,266.9c.305-.328.867-.34,1.205-.027.344.319.365.795.049,1.13-.321.34-.861.36-1.197.046-.319-.299-.346-.84-.057-1.149Z" fill="#fff"/>
                <path d="M74.791,278.051c-.332-.283-.383-.809-.112-1.143.285-.351.841-.383,1.186-.069.327.298.36.818.071,1.141-.286.321-.814.353-1.146.071Z" fill="#fff"/>
                <path d="M81.499,269.651c.259.287.31.636.027.989-.259.323-.793.366-1.079.082-.315-.313-.333-.68-.068-1.031.246-.325.774-.348,1.119-.04Z" fill="#fff"/>
                <path d="M76.57,287.339c-.023.32.05.694-.092.948-.211.379-.624.348-.945.09-.331-.266-.392-.683-.097-.955.209-.193.602-.185.913-.267l.221.184Z" fill="#fff"/>
                <path d="M85.923,279.949c-.007-.493-.081-.808.02-1.048.04-.095.533-.126.707-.012.308.2.33.56.028.819-.134.115-.361.122-.755.241Z" fill="#fff"/>
                <path d="M82.401,286.944c-.415-.047-.724.006-.843-.12-.126-.134-.072-.438-.097-.669.231-.017.523-.126.675-.025.146.097.147.412.265.814Z" fill="#fff"/>
                <path d="M76.601,282.725c.384.041.668-.01.782.106.119.121.076.403.104.614-.227.022-.498.126-.668.038-.125-.065-.12-.382-.218-.758Z" fill="#fff"/>
                <path d="M65.117,276.939c.409.046.706-.004.806.114.112.131.116.453.028.616-.052.096-.439.13-.559.039-.138-.105-.147-.379-.274-.769Z" fill="#fff"/>
                <path d="M74.659,275.009c.055-.39.013-.677.132-.78.128-.111.405-.051.617-.065.013.214.11.483.016.625-.086.129-.38.121-.764.22Z" fill="#fff"/>
                <path d="M76.513,271.477c.027-.351-.028-.613.075-.713.109-.105.435-.139.542-.051.107.088.141.412.06.542-.075.121-.343.123-.677.222Z" fill="#fff"/>
                <path d="M79.319,290.445c.035-.351-.011-.597.092-.714.089-.102.441-.138.505-.06.11.133.169.421.094.561-.062.117-.346.117-.692.214Z" fill="#fff"/>
                <path d="M76.134,289.559c-.041.357.005.621-.102.719-.118.108-.376.063-.572.084-.014-.197-.105-.444-.019-.577.079-.123.348-.124.694-.227Z" fill="#fff"/>
                <path d="M88.627,267.471c.028-.281-.016-.544.077-.608.135-.093.369-.043.561-.055,0,.194.063.426-.024.568-.058.094-.328.058-.614.095Z" fill="#fff"/>
                <path d="M96.541,271.378c-.299-.051-.565-.024-.631-.126-.088-.136-.019-.373-.018-.566.179.013.416-.037.521.058.105.095.077.336.128.634Z" fill="#fff"/>
                <path d="M79.056,283.322c.278.013.512-.04.581.043.099.12.079.339.11.515-.178.005-.387.067-.523-.006-.097-.052-.095-.287-.168-.553Z" fill="#fff"/>
                <path d="M82.684,281.013c.27.018.463-.02.581.057.072.047.086.36.027.397-.123.078-.333.104-.464.049-.08-.033-.08-.257-.144-.503Z" fill="#fff"/>
              </g>
              <g>
                <path d="M140.196,271.177c.26,1.911-1.356,3.106-2.553,3.083-1.428-.028-2.618-1.109-2.672-2.497-.056-1.462,1.063-2.677,2.534-2.743.237-.011.475.018.712.013,2.006-.038,2.14.106,1.979,2.144Z" fill="#fff"/>
                <path d="M102.464,254.233c1.297.052,2.304,1.129,2.281,2.439-.025,1.377-1.134,2.413-2.491,2.326-1.279-.082-2.289-1.206-2.239-2.494.05-1.284,1.169-2.322,2.449-2.271Z" fill="#fff"/>
                <path d="M112.061,281.059c1.087.051,1.69.788,1.662,2.031-.027,1.198-.985,2.126-2.137,2.072-1.12-.052-1.968-1.011-1.908-2.155.063-1.2,1.056-2.011,2.383-1.948Z" fill="#fff"/>
                <path d="M120.341,293.242c-1.118-.077-1.923-.983-1.839-2.071.083-1.078,1.026-1.879,2.124-1.804,1.187.081,2.068,1.01,1.984,2.094-.084,1.091-1.069,1.864-2.269,1.781Z" fill="#fff"/>
                <path d="M125.087,264.827c1.084.047,1.95.97,1.916,2.042-.034,1.088-.957,1.937-2.05,1.887-1.11-.051-1.936-.938-1.902-2.04.035-1.112.924-1.937,2.035-1.889Z" fill="#fff"/>
                <path d="M145.363,288.922c1.029.08,1.803,1.027,1.695,2.073-.103.996-.971,1.736-1.974,1.683-1.061-.056-1.831-.939-1.752-2.011.077-1.049.983-1.827,2.031-1.746Z" fill="#fff"/>
                <path d="M92.4,262.473c.085-1.018.922-1.74,1.95-1.68,1.07.062,1.834.949,1.737,2.018-.092,1.012-.946,1.75-1.954,1.689-1.065-.064-1.822-.949-1.732-2.026Z" fill="#fff"/>
                <path d="M134.836,293.329c-.964-.076-1.663-.857-1.564-1.75.103-.924.993-1.674,1.908-1.606.941.07,1.595.832,1.529,1.78-.068.98-.872,1.656-1.873,1.576Z" fill="#fff"/>
                <path d="M107.533,246.518c.275.017.556.005.825.058.828.162,1.256.683,1.121,1.52-.138.848-.743,1.177-1.559,1.076-.426-.053-.834-.244-1.259-.31-.783-.12-1.265-.516-1.174-1.335.092-.834.683-1.084,1.454-1.014.196.018.394.026.59.038,0-.011.001-.022.002-.033Z" fill="#fff"/>
                <path d="M103.119,291.598c-.934-.034-1.68-.797-1.641-1.68.039-.894.935-1.682,1.862-1.636.873.043,1.626.896,1.561,1.769-.067.897-.855,1.581-1.782,1.547Z" fill="#fff"/>
                <path d="M137.675,244.304c.027-1.032.664-1.748,1.558-1.753.841-.004,1.569.765,1.553,1.641-.016.881-1.315,2.08-2.188,2.02-.689-.047-.957-.602-.923-1.909Z" fill="#fff"/>
                <path d="M145.271,254.909c-.918-.081-1.601-.904-1.469-1.836.138-.974.741-1.481,1.722-1.462.942.019,1.609.817,1.535,1.766-.074.942-.858,1.613-1.787,1.531Z" fill="#fff"/>
                <path d="M124.401,238.069c.88.094,1.568.968,1.474,1.874-.095.923-.824,1.521-1.729,1.419-.918-.104-1.593-.934-1.494-1.839.094-.858.917-1.544,1.749-1.455Z" fill="#fff"/>
                <path d="M111.997,258.281c.053-.86.824-1.567,1.675-1.535.894.033,1.605.874,1.518,1.795-.082.871-.866,1.54-1.721,1.468-.847-.071-1.525-.868-1.472-1.728Z" fill="#fff"/>
                <path d="M133.251,258.913c-.147.75-.637,1.246-1.531,1.217-.818-.027-1.52-.82-1.41-1.609.121-.869.68-1.335,1.549-1.331.806.004,1.47.81,1.392,1.723Z" fill="#fff"/>
                <path d="M99.421,272.127c-.534.344-1.038.903-1.608.981-.85.116-1.292-.573-1.264-1.387.028-.839.614-1.432,1.395-1.287.553.102,1.008.732,1.507,1.126l-.03.568Z" fill="#fff"/>
                <path d="M122.217,278.142c.772-.597,1.181-1.088,1.681-1.214.198-.05.831.693.859,1.103.05.725-.494,1.187-1.262,1.018-.341-.075-.622-.426-1.278-.907Z" fill="#fff"/>
                <path d="M106.971,280.878c-.418-.712-.869-1.138-.811-1.477.062-.359.608-.635.942-.947.301.345.82.677.841,1.038.02.345-.477.721-.972,1.385Z" fill="#fff"/>
                <path d="M106.755,266.694c.391.657.809,1.044.761,1.362-.05.333-.546.599-.848.894-.305-.334-.791-.637-.853-1.011-.046-.276.461-.644.94-1.245Z" fill="#fff"/>
                <path d="M102.267,241.659c.412.702.844,1.112.777,1.409-.075.332-.578.722-.942.776-.213.032-.727-.54-.726-.839.002-.343.424-.683.891-1.347Z" fill="#fff"/>
                <path d="M116.651,254.458c.683-.377,1.086-.783,1.389-.718.328.07.561.58.836.898-.322.275-.633.748-.97.767-.307.018-.642-.457-1.255-.947Z" fill="#fff"/>
                <path d="M124.44,253.196c.587-.375.937-.773,1.216-.728.296.047.736.523.725.796-.011.274-.484.712-.785.739-.281.025-.602-.396-1.156-.807Z" fill="#fff"/>
                <path d="M97.774,280.163c.597-.362.932-.726,1.239-.703.267.02.742.534.696.728-.08.333-.465.767-.775.815-.26.041-.597-.408-1.16-.84Z" fill="#fff"/>
                <path d="M95.392,274.072c-.613.359-.977.745-1.259.692-.31-.058-.545-.519-.813-.805.295-.256.578-.693.89-.716.289-.021.609.403,1.183.828Z" fill="#fff"/>
                <path d="M145.164,267.599c.478-.29.841-.672,1.053-.601.308.103.507.532.752.822-.307.229-.6.606-.926.637-.217.021-.482-.449-.879-.858Z" fill="#fff"/>
                <path d="M148.384,284.754c-.274-.534-.634-.922-.551-1.148.111-.3.566-.473.874-.701.192.299.553.614.528.893-.026.278-.44.52-.85.955Z" fill="#fff"/>
                <path d="M108.727,271.287c.31.456.671.762.622.97-.071.299-.441.528-.684.786-.219-.276-.566-.532-.613-.834-.033-.214.341-.491.675-.922Z" fill="#fff"/>
                <path d="M116.687,274.282c.292.448.582.709.6.987.011.171-.467.563-.595.514-.268-.102-.559-.403-.628-.676-.042-.166.312-.432.624-.825Z" fill="#fff"/>
              </g>
              <g>
                <path d="M156.34,232.066c.745.831.359,1.928-.222,2.305-.693.45-1.614.319-2.09-.328-.502-.682-.36-1.627.323-2.136.11-.082.233-.146.345-.225.948-.669,1.059-.644,1.643.384Z" fill="#fff"/>
                <path d="M132.771,236.202c.638-.396,1.47-.207,1.884.427.435.667.24,1.523-.438,1.922-.639.376-1.487.165-1.882-.467-.393-.631-.194-1.491.435-1.882Z" fill="#fff"/>
                <path d="M146.076,245.932c.537-.328,1.065-.171,1.455.433.376.582.219,1.338-.351,1.686-.553.339-1.271.155-1.613-.413-.359-.595-.147-1.306.509-1.707Z" fill="#fff"/>
                <path d="M153.995,249.078c-.561.326-1.24.153-1.553-.395-.31-.543-.119-1.233.431-1.553.595-.347,1.318-.187,1.63.359.314.55.093,1.239-.508,1.589Z" fill="#fff"/>
                <path d="M147.043,233.93c.534-.329,1.249-.168,1.58.356.337.532.171,1.238-.369,1.569-.548.336-1.232.18-1.573-.36-.344-.544-.186-1.228.361-1.565Z" fill="#fff"/>
                <path d="M164.575,238.886c.519-.296,1.197-.094,1.485.442.274.51.099,1.146-.399,1.447-.526.318-1.182.145-1.492-.394-.304-.527-.123-1.194.406-1.495Z" fill="#fff"/>
                <path d="M130.627,243.415c-.29-.515-.123-1.133.388-1.438.532-.318,1.186-.141,1.487.402.285.514.115,1.145-.387,1.443-.531.315-1.181.137-1.487-.408Z" fill="#fff"/>
                <path d="M160.965,244.414c-.487.277-1.074.129-1.317-.33-.251-.476-.068-1.124.392-1.389.473-.272,1.034-.12,1.31.356.285.491.12,1.076-.385,1.363Z" fill="#fff"/>
                <path d="M132.694,230.862c.137-.081.268-.178.414-.24.449-.191.823-.081,1.03.364.21.451.026.805-.397,1.021-.221.113-.479.154-.704.261-.414.197-.773.163-.995-.258-.227-.429-.025-.741.367-.958.1-.055.197-.115.295-.173-.003-.006-.007-.011-.01-.017Z" fill="#fff"/>
                <path d="M145.215,253.882c-.458.287-1.063.164-1.331-.271-.272-.441-.098-1.109.36-1.388.432-.263,1.07-.099,1.322.34.259.451.104,1.035-.351,1.319Z" fill="#fff"/>
                <path d="M146.409,220.017c-.322-.503-.25-1.052.177-1.345.401-.275,1-.143,1.277.282.278.427.045,1.423-.392,1.678-.345.201-.654.022-1.062-.614Z" fill="#fff"/>
                <path d="M153.489,222.628c-.466.259-1.06.087-1.299-.402-.25-.511-.126-.95.35-1.259.457-.297,1.036-.131,1.308.348.27.475.113,1.051-.359,1.313Z" fill="#fff"/>
                <path d="M138.028,221.34c.452-.241,1.065-.046,1.314.419.254.473.099.996-.367,1.241-.473.248-1.066.07-1.312-.395-.234-.441-.062-1.037.365-1.265Z" fill="#fff"/>
                <path d="M138.65,235.045c-.254-.429-.114-1.018.304-1.279.439-.274,1.052-.102,1.309.367.243.444.085,1.019-.347,1.262-.429.241-1.012.08-1.266-.349Z" fill="#fff"/>
                <path d="M149.033,228.448c.173.407.099.804-.338,1.08-.4.253-.994.101-1.198-.312-.224-.455-.108-.86.31-1.14.387-.26.967-.089,1.226.373Z" fill="#fff"/>
                <path d="M137.123,245.758c-.144.338-.204.769-.452.992-.369.331-.805.145-1.056-.254-.259-.411-.171-.885.25-1.069.298-.131.72.023,1.087.05l.17.281Z" fill="#fff"/>
                <path d="M149.992,241.238c.176-.537.212-.904.411-1.127.079-.088.623.062.77.249.259.331.149.729-.274.897-.188.075-.436-.002-.907-.019Z" fill="#fff"/>
                <path d="M143.58,247.497c-.431-.205-.786-.263-.868-.444-.087-.192.085-.501.144-.76.256.067.612.058.74.224.122.159.006.5-.016.979Z" fill="#fff"/>
                <path d="M138.871,240.776c.401.187.726.238.807.405.084.176-.067.464-.116.703-.254-.061-.585-.048-.737-.207-.112-.117.012-.458.046-.901Z" fill="#fff"/>
                <path d="M128.595,230.245c.425.202.765.258.83.423.072.183-.043.533-.199.678-.092.085-.524-.023-.62-.166-.11-.165-.019-.465-.011-.934Z" fill="#fff"/>
                <path d="M139.638,231.704c.204-.402.266-.727.432-.795.18-.073.457.095.692.158-.065.236-.06.564-.216.682-.141.108-.456-.011-.908-.046Z" fill="#fff"/>
                <path d="M142.958,228.571c.159-.37.198-.674.346-.744.157-.074.522.012.606.146.084.135,0,.498-.136.609-.127.103-.417.006-.816-.011Z" fill="#fff"/>
                <path d="M138.943,250.141c.168-.367.211-.65.365-.739.134-.077.529.015.569.123.07.185.026.518-.106.642-.111.104-.418-.002-.828-.026Z" fill="#fff"/>
                <path d="M135.825,247.997c-.177.371-.226.674-.378.74-.168.073-.43-.072-.651-.121.058-.219.052-.52.194-.632.132-.104.422-.005.835.013Z" fill="#fff"/>
                <path d="M157.557,228.74c.135-.294.185-.595.309-.629.181-.05.416.09.627.149-.072.21-.091.485-.237.605-.097.081-.377-.059-.7-.125Z" fill="#fff"/>
                <path d="M164.668,235.909c-.305-.166-.603-.236-.637-.371-.044-.18.118-.41.191-.619.189.081.464.114.543.256.078.141-.042.392-.097.733Z" fill="#fff"/>
                <path d="M141.307,242.335c.296.118.569.147.613.263.063.166-.04.396-.072.599-.194-.061-.444-.071-.564-.201-.085-.092.004-.346.024-.661Z" fill="#fff"/>
                <path d="M146.09,241.185c.286.12.509.151.607.278.061.078-.041.421-.118.439-.162.038-.398-.012-.52-.12-.074-.066.009-.308.031-.597Z" fill="#fff"/>
              </g>
            </g>
          </g>
        </g>
      </g>
    </g>
  </g>
</svg>