<?xml version="1.0" encoding="UTF-8"?>
<svg xmlns="http://www.w3.org/2000/svg" width="300" height="300" xmlns:xlink="http://www.w3.org/1999/xlink" viewBox="0 0 300 300">
  <defs>
    <clipPath id="b">
      <path d="M126.772,270.147c-.714.568-1.284,1.023-1.977,1.575-.003-.058.007.152.018.393-3.196-.319-3.327-2.383-.098-2.884,1.266-.458,1.292-1.73,1.796-3.082-1.457.556-2.442.47-3.814.697.252.876.893.851,1.45,1.442-.481.508-1.165.591-1.771.508-.164-1.022-1.028-2.49.117-3.246,1.081-.446-.186-1.686-.567-2.013-.576.277-1.111.961-.617,1.595.308.467.508.864-.116,1.321-1.184,3.272-3.027-.469-4.858-1.096.043-.188.129-.569.249-1.096-1.736,1.039-.908-3.182-2.925-.821-1.624-1.05-2.16-4.844-4.273-4.346-.195.121-.721-.087-.862-.323-.793-2.584-3.2-3.697-4.05-6.08-.648-1.513-1.976-2.377-3.113-3.449-.105-.152-.742-.109-.861.057-.955,1.197-2.936.12-3.038-1.301-.305-.566-1.47-1.131-1.391-1.989-.993-1.138.043-1.066.753-1.648-.713-.298-.871-.891-.862-1.733.182-.805-1.666-2.151-.396-2.576,1.456-.278.308-1.173.293-2.22-.995,1.425-2.019,2.272-3.674,2.052-.749.61-1.209.199-1.709-.265-1.289-1.414-3.222.461-4.368,1.389.096-3.759-4.685.9-6.54,1.179-.045-1.293-1.546-2.313-2.535-1.037-2.249-.607-2.976-3.952-4.684-5.586-.354-1.535-2.399-1.151-2.496-2.62-.174-1.629-2.3-1.873-2.288-3.673-1.441-.59-1.123-2.543-2.161-3.441-1.784-2.289-6.496-5.151-5.755-8.104.894-.917,0-1.194-.607-1.76-.469-1.012-1.005-.044-1.776-.239,1.881-2.059-1.466-2.334,1.303-5.969.307-.896-.85-.648-1.11-.104-.689,1.234-1.677,1.063-2.634.934-.512-.549-.059-1.924-1.332-1.664-.087-.365-.174-.73-.265-1.114-1.241.3-1.93,1.597-.515,2.208-1.318,1.253-3.583,4.501-4.84,1.678-1.488.342-1.344-2.237-2.996-.947-.081-.699-.146-1.267-.22-1.908-.179.118-.405.268-.633.418-.357-.743-.386-1.794-1.555-1.625-.128-.956-.256-1.902-.401-2.984-.273.4-.459.674-.57.836-1.739-.398-2.103-2.224-3.029-3.533-.095.013-.19.027-.285.04-.063.335-.127.67-.19,1.006-.1-.005-.2-.01-.301-.014.267-3.392-2.866-4.422-3.859-7.278.268-1.007.296-1.422-.313-2.239-.385.414-.736.792-1.218,1.311-.78-.576-.39-2-1.553-1.698-.335-1.357-.028-2.349.869-3.26-.982-1.094,1.552-3.478-.432-3.648-.108.467-.211.908-.313,1.349h-.215c.026-1.112.053-2.223.084-3.524,2.431,1.178,2.282-2.245,2.499-3.943-.967.712-1.639,2.005-2.82,1.039.176.3.352.6.614,1.048-.519.131-.969.245-1.271.321-.347-1.909.465-3.139,1.711-4.501.127.086.294.199.395.268,2.901-4.637,5.805-9.825,10.004-13.792-1.101-.897-1.671-2.744-.22-3.567.661.055,1.365.339,1.709.081.63-.781,1.133-1.841-.331-2.352-.007-1.37,1.816-2.873.508-4.08-.762-.851-.499-2.634-1.967-2.737-1.541-.467-2.351.923-3.668,1.337-1.282-.241-1.534,1.02-2.196,1.866-.778-.443-1.737-.572-2.254-1.223-.354-1.428-1.427-.995-2.579-1.251.279-.295.512-.541.756-.799-1.61-.454-1.243,1.18-.684,1.971-.347.287-.659.544-1.161.959-.146-.998.719-2.27-.491-2.696-2.003-.024-2.094-3.775-4.13-2.353.013-.316.026-.622.039-.933-1.119-.022-1.15-.978-1.739-1.663-2.298-1.886-1.623-1.258-2.3-3.981-.202.134-.39.26-.632.421-.647-.984-1.563-1.132-1.856-2.568-1.328-2.881-5.346-3.058-7.079-5.386-.585.083-1.041.148-1.601.228,1.383-2.045.167-3.317.285-5.289.802-1.974,1.602-3.943,2.4-5.907l.357.032c-.084.989-.167,1.98-.27,3.197.814-.916.531-1.853.959-2.706.183.12.335.22.487.32.067-.034.134-.067.201-.101.024-1.515-1.858-.945-.615-2.467,8.097-15.249,14.395-31.292,23.079-46.174.452-.861.735-1.603,1.645-.565,1.744.56,1.811-2.35,3.56-2.194.431-.026.743-1.269.438-1.892-.072.32-.123.543-.188.83-.996.023-1.962.045-2.946.068.288-2.054,2.598-2.155,4.1-1.523,1.683-2.489,2.304-6.224,5.744-6.788-.14-.172-.266-.327-.539-.662,2.52-.59,4.58,2.546,6.67,1.905.44-.39.743-.297.818.309-.216.079-.43.157-.716.261,4.26,1.531,8.617,5.253,12.519,6.025.919,2.415,2.378-.584,3.433-1.49.519-.833,1.393-.071,2.021-.601,8.953-9.038,16.928-19.513,26.772-26.991.548-.009,1.596.235,1.946.822,1.848,1.277,2.466-3.795,6.841,1.161.667,1.147,2.425-.463,2.708,1.046.282,1.139,1.689,1.087,2.207,2.067,1.786,1.081,2.565,3.146,4.737,3.803.689.392.8.85,1.497-.017.118,1.414.309,1.516,1.399.76.079.407.154.792.229,1.178l1.123-.477c-.465,6.943,24.591-23.986,27.83-25.766,1.614.353-.188,1.261.697,2.163.504.143.961-.691,1.338-.89,1.676-.328-.022,1.919,1.229,2.224.722.181.831,1.901,1.677.962.181.363.422.654.47.981.121.87,1.498.81,1.687.114.111-.926-.632-2.356.922-2.128.695.044.417,1.093.954,1.37-.252.402-.445.71-.638,1.018.435.124.871.249,1.436.41-.455,1.116-.409,1.297.704,1.757.236,1.007,1.231,1.468,1.973,2.04.853.704,1.654,2.045,3.013,1.97-.367,1.39,1.423.545,2.121.967-1.036.973-.927,1.293.14,1.928-.026.064-.052.129-.078.193-.473-.052-.945-.105-1.599-.177.27.731,1.157.622.746,1.475-.068.73,1.223.916,1.837.424-.165.316-.264.505-.399.765.57-.039.209,1.014.965.708.422-.171.76-.545,1.101-.949-1.081.652-1.342-.397-.403-.954,1.362.035,2.055-.861,2.827-1.742,1.164-1.315,2.162-2.092,3.896-1.315.42.365.792.737,1.358.086,1.024.926,2.01,1.817,2.997,2.709.08-.067.161-.134.241-.2-.201-.332-.402-.663-.707-1.165,1.923,1.296,3.917-1.03,5.357.406.242,1.625,1.152,2.489,2.362,3.451,1.077.962.459,2.642,1.638,3.51.591.438.42,1.541,1.363.95,1.136-.803,2.064,1.302,1.41,2.168.424.081.745.143,1.018.195-.349.427-.657.804-.966,1.18.601.262-.509,1.372.736,1.339.079-.234.163-.483.242-.715.997.668,2.299,1.187,1.222,2.566.322.045.606.085.957.133-.052.234-.096.434-.112.508.399.361.738.669,1.123,1.017-.197.249-.374.474-.652.826.998-.259,1.849-.481,2.782-.723.017.314.026.498.036.679,2.534.548.472,4.428.011,6.054.081.056.162.112.243.169,1.616-1.377,2.453-3.491,3.878-5.066.083.048.165.097.248.145-.384.974-.893,1.909-1.079,2.947,1.031-.032,1.49-.808,2.019-1.568,3.259,2.237,14.631-18.5,13.479-7.991.094.03.189.059.283.089,1.094-2.144,4.509-2.623,4.519.402-.096.89.735.556,1.293.499.593-.139.81.106.812.662-.08,1.962,4.51.524,3.973,3.236,2.144-.457,1.241,2.226,2.864,2.406.605-.004,1.21.372,1.837.587-.225.485-.433.934-.678,1.461,5.02.996,1.101.777,3.501,2.933,4.404,2.295.161,6.216-.403,9.674.089.041.178.082.266.123-.185.117-.369.233-.605.382.059.154.126.329.196.511-1.449.027-.687,1.274-1.387,2.138-.349.477-.522.808.079,1.218.73.849.617,2.264.918,3.296-.073-.059-.231-.188-.271-.221-.656,1.441.088,2.991-1.8,3.481-.204.757-.278,1.634-1.183,2.076-.315-.334-.584-.62-.852-.905-.137-.009-.274-.017-.41-.026.293,2.122-.855,3.447-1.799,5.239,1.242.98,3,.811,3.902,1.869.136.202.265.614.366.604,1.437-.079,1.729,1.318,2.679,1.994.643-.661,1.245-1.281,1.864-1.918.26.187.466.335.672.483.052-.03.105-.061.157-.091l-.428-.924c1.562-3.164,1.703.665,2.812-1.18.475.196-.208,1.169.688.926.129-.035.115-.591.193-1.067,1.148-.008,1.437,1.548,2.789.384.073.773.039,1.143.215,1.756,1.685-.842,3.335-2.183,4.895-3.547,1.023-1.326,1.915-1.908,3.486-.744-.475.142-.748.223-1.02.305-.005.067-.011.135-.016.202.378.068.756.137,1.195.217.034-.181.063-.334.1-.528,1.723.228.025,1.229,1.078,1.799.134-.204.256-.391.296-.453,1.868.37,1.023-1.643.979-2.751l.204-.01c1.293,1.101,1.019,3.405,2.372,4.092.478.042.83.144,1.165.502,1.443.824.727-1.53,1.45-1.887.825-.061,1.284.754,1.73,1.415-.65,1.95,2.239,2.847,3.33,4.16-1.55-.417-2.332-.086-.804,1.442.229-.349.361-.551.594-.905.361.657.506,1.139,1.073,1.535.326-.601.054-1.047-.141-1.632.68.197,1.275.399.869,1.299.351,2.153,4.294-.792,3.39,2.185.898-.303,3.057.317,1.793,1.39-.131.095-.137.605-.006.756.169.194.628.381.795.285.865-.523,1.285.614,1.879,1.035,1.081,1.873-1.129,3.834-.969,5.528,1.202.529-.36,2.016-1.067.878-.308.414-.488.762.194.862,1.616,1.818-2.468,6.466-3.68,8.628.365-.107.59-.173.909-.267.159.618,1.012,1.706-.01,1.987-.745.554-.263,1.555-.229,2.5.289.015,1.168-.414,1.404-.381.598.516,1.12.261,1.637-.051.559-.337.696-.053.782.465.801,2.367,1.179,4.776,2.081,7.035.296,1.29.714,3.393,2.176,3.714.357.969,1.887,1.054,1.624,2.511,2.597-.272,2.122,3.134,2.166,4.769,2.929,1.423-1.903,4.927-2.06,7.046-1.368,1.049-1.719,3.218-2.761,3.844-.552.332.13,1.785-.94,1.65-.796.839-1.221,1.956-2.062,3.186,3.359.425,6.449.815,9.532,1.205.032,1.666.885.365,1.742,1.274-.463.32-.798.55-1.11.766,1.152,1.211,1.958,3.802.022,4.516-1.213-.421-.742.496-.819,1.117.542-.177.997-.326,1.52-.497.973,1.168-1.798,1.906-.43,3.306.013,5.671-9.282,6.554-2.154,13.149-.601.93.805,1.579.35,2.49-.864,1.241-.557,2.496,1.028,2.77.031-.119.095-.368.163-.633,1.014.619,2.481,4.084,2.35,5.432.203-.031.46-.071.716-.111-.01.096-.021.192-.031.288-.183.196-.365.393-.548.59.022.092.044.183.066.275.393-.066.786-.133,1.324-.224-.604.681-.237,2.147-1.186,2.219-.146-.009-.301.289-.452.446.707.611,1.519-.008,2.306-.16.039.066.079.131.118.197-3.126,4.171-9.064,6.455-10.856,11.429-.128,1.576-.41.812-1.467,1.079.511.307,1.427.88.622,1.38-.764.446.062,1.168-.253,1.875-.087.003-.174.006-.261.009-.122-.197-.243-.393-.517-.836-2.745,9.891-14.735,10.7-21.933,16.161-4.721,4.006-9.465,8.241-14.742,11.416-1.032,1.679-4.844,4.864-6.137,2.157.234-.101.458-.199.914-.396-.521-.325-.863-.539-1.347-.841.147,1.114-.969,3.195-.613,1.098-1.212-.582-.148-1.97-.78-3.19-.401.884-.706,1.557-1.011,2.231-1.428-.731-.155-3.632-1.829-3.831-.673,1.024-1.157.594-1.616-.31-.299.539-.537.97-.797,1.437-3.272-3.432-9.814,6.669-13.382,6.068-1.938.182-3.462,3.741-5.535,2.824-8.971-2.229-27.887,23.203-33.172,18.759.277-.119.533-.228,1.027-.44-.491-.356-.823-.597-1.214-.881-1.253,2.454-1.359-.662-1.252-1.807-.098-.031-.197-.062-.295-.093-.366.652-.732,1.305-1.092,1.947-1.624-.22.047-4.78-1.789-3.836-.899,1.306-.917.067-1.661-.321-.179.432-.346.837-.504,1.219-2.082-1.718-4.408.854-6.83.32-.817.38-2.702,1.194-2.44-.602.711-.752,1.476-3.949-.374-3.102-.693-1.096-.614-1.406.383-1.632-.13-1.436-.512-1.982-1.573-.714.167-2.383-1.748-3.383-1.153-5.508.157-.534-.429-1.418-.268-1.963.769-1.473-.333-2.133-.906-3.004-1.931-.74-2.614-2.2-3.516-4.067-.659.517-1.34,1.051-2.08,1.631.027-.286.049-.514.074-.772-2.134.455-.86,2.028-2.308,3.424-.48-2.06,1.266-3.471,1.159-5.483-7.491,8.85-14.265,20.34-21.905,27.933ZM281.647,165.413c.861.91-.177,1.368.871,1.808.243-.854,1.473-1.293.613-2.462l-.624.31-.413-.196c.221-.269.443-.537.662-.803-1.404-1.639-1.201.322-1.109,1.344ZM33.541,183.748c-.44.598-.881,1.197-1.321,1.794.416.232.892.496,1.372.764.972-1.015.967-1.809-.051-2.558ZM282.421,173.251c-.222-.095-.444-.189-.666-.284.342-.493.685-.986.992-1.43-.25-.17-.55-.375-.848-.578q-.56.478.02,1.052c-.282.189-.563.377-.843.564-.009.121-.018.242-.026.363.457.104.914.208,1.372.313ZM280.446,162.308c-.318.619-.555,1.08-.89,1.733,1.061-.275,2.309-1.141.89-1.733ZM230.913,89.214c-.07.023-.14.046-.21.069-.088.634-.176,1.268-.273,1.965l.902-.413c-.137-.532-.278-1.077-.419-1.622ZM179.677,43.765c-.848.503-.866.792-.101,1.425.035-.491.064-.905.101-1.425ZM38.809,78.717c.649.155,1.027.174,1.063-.485-.428-.544-.687.017-1.063.485ZM31.936,191.013c-.467.934-.379,1.117.477,1.239-.178-.463-.328-.851-.477-1.239ZM281.27,169.697c.154.012.308.025.462.037.005-.409.011-.818.016-1.226-.12-.01-.24-.02-.36-.03-.039.406-.079.812-.118,1.218ZM76.359,239.142c-.032.385-.064.77-.106,1.275.927-.494.838-.89.106-1.275Z" fill="none"/>
    </clipPath>
    <linearGradient id="c" data-name="Dégradé sans nom 13" x1="148.843" y1="67.007" x2="148.843" y2="252.017" gradientUnits="userSpaceOnUse">
      <stop offset="0" stop-color="#ffd66e"/>
      <stop offset="1" stop-color="#e86170"/>
    </linearGradient>
    <clipPath id="d">
      <path d="M-240.27-75.224v340.727c4.982.923,10.474,1.437,16.252,1.437,13.381,0,25.232-2.749,32.73-6.985.363-.016.726-.032,1.089-.048,4.04,4.263,10.45,7.033,17.691,7.033s13.656-2.772,17.696-7.038c5.156,4.266,13.339,7.038,22.584,7.038,7.618,0,14.519-1.882,19.601-4.929,5.936,3.047,13.995,4.929,22.893,4.929,7.668,0,14.707-1.405,20.31-3.739,1.379,2.334,3.11,3.739,4.997,3.739,1.858,0,3.565-1.365,4.934-3.638,5.563,2.272,12.502,3.638,20.057,3.638,9.878,0,18.719-2.322,24.767-5.982,5.179,3.66,12.748,5.982,21.207,5.982,7.847,0,14.943-1.991,20.064-5.2,5.98,3.209,14.268,5.2,23.432,5.2.405,0,.788-.044,1.188-.054.813.02,1.617.054,2.442.054,13.381,0,25.232-2.749,32.73-6.985.363-.016.726-.032,1.089-.048,4.04,4.263,10.45,7.033,17.691,7.033s13.656-2.772,17.696-7.038c5.156,4.266,13.339,7.038,22.584,7.038,7.618,0,14.519-1.882,19.601-4.929,5.936,3.047,13.995,4.929,22.893,4.929,7.668,0,14.707-1.405,20.31-3.739,1.379,2.334,3.11,3.739,4.997,3.739,1.858,0,3.565-1.365,4.934-3.638,5.563,2.272,12.502,3.638,20.057,3.638,9.878,0,18.719-2.322,24.767-5.982,5.179,3.66,12.748,5.982,21.207,5.982,7.847,0,14.943-1.991,20.064-5.2,5.98,3.209,14.268,5.2,23.432,5.2,1.64,0,3.234-.095,4.808-.219V-75.224H-240.27Z" fill="none"/>
    </clipPath>
    <filter id="e" data-name="drop-shadow-3" x="-166.276" y="27.11" width="452.122" height="258.981" filterUnits="userSpaceOnUse">
      <feOffset dx="-3" dy="0"/>
      <feGaussianBlur result="f" stdDeviation="0"/>
      <feFlood flood-color="#42496f" flood-opacity="1"/>
      <feComposite in2="f" operator="in"/>
      <feComposite in="SourceGraphic"/>
    </filter>
  </defs>
  <g isolation="isolate">
    <g id="a" data-name="bateau 07">
      <g clip-path="url(#b)">
        <rect x="5.286" y="7.067" width="287.116" height="269.478" fill="url(#c)"/>
        <path d="M298.568,226.787c-3.978-1.412-11.949,2.287-20.758,7.799v-34.027h8.035v-6.248h-69.463v-45.391h7.928s-22.2-16.476-49.585-16.476h0s-3.214,0-3.214,0H-28.264V59.193h13.908S-29.39,27.111-47.936,27.111h0s-3.214,0-3.214,0h-55.514c-18.545,0-33.579,32.083-33.579,32.083h13.908v73.89c-22.874,3.021-40.155,15.837-40.155,15.837h8.087v45.391h-8.087v6.248h8.087v34.524h-8.087l12.342,51.008H160.502h0s3.214,0,3.214,0h5.796c1.24.308,2.3.344,3.108,0h87.721l1.388-2.777,7.292,2.281s3.448-4.608,7.709-10.978l.76.238s32.849-43.892,21.078-48.069ZM259.294,235.083v-34.524h12.089v34.524h-12.089ZM252.866,235.083h-12.088v-34.524h12.088v34.524ZM234.35,235.083h-12.089v-34.524h12.089v34.524Z" fill="none" stroke="#fff" stroke-linecap="round" stroke-linejoin="round" stroke-width="20"/>
        <g>
          <g clip-path="url(#d)">
            <g>
              <path d="M277.49,274.856s32.849-43.892,21.078-48.069c-11.771-4.177-58.491,36.365-58.491,36.365l37.414,11.704Z" fill="#fff"/>
              <path d="M269.021,285.596s32.849-43.892,21.078-48.069c-11.771-4.177-58.491,36.365-58.491,36.365l37.414,11.704Z" fill="#9bc8ec"/>
              <g>
                <path d="M300.335,262.491c-1.382.698-2.713-.214-3.009-1.129-.353-1.091.155-2.278,1.194-2.683,1.095-.426,2.31.104,2.747,1.204.07.177.111.365.177.544.555,1.512.481,1.652-1.108,2.064Z" fill="#fff"/>
                <path d="M303.296,229.408c.301.998-.252,2.045-1.253,2.371-1.052.342-2.129-.228-2.419-1.28-.273-.993.315-2.053,1.305-2.353.987-.299,2.069.278,2.366,1.263Z" fill="#fff"/>
                <path d="M285.453,243.73c.246.838-.155,1.489-1.106,1.794-.916.294-1.872-.189-2.134-1.078-.254-.864.251-1.759,1.135-2.013.927-.267,1.803.274,2.104,1.298Z" fill="#fff"/>
                <path d="M278.378,253.21c-.235-.869.242-1.717,1.09-1.939.84-.22,1.695.286,1.926,1.139.25.922-.224,1.834-1.069,2.055-.85.222-1.695-.322-1.947-1.255Z" fill="#fff"/>
                <path d="M301.19,249.358c.249.835-.225,1.734-1.047,1.99-.835.259-1.722-.218-1.97-1.061-.252-.856.204-1.716,1.05-1.979.853-.265,1.713.193,1.967,1.049Z" fill="#fff"/>
                <path d="M288.221,271.068c.209.802-.306,1.638-1.129,1.83-.783.183-1.572-.281-1.795-1.057-.236-.82.233-1.636,1.066-1.857.816-.217,1.645.266,1.858,1.084Z" fill="#fff"/>
                <path d="M294.402,223.931c.795-.203,1.563.243,1.787,1.039.234.828-.239,1.641-1.076,1.848-.792.196-1.577-.259-1.795-1.04-.231-.826.243-1.632,1.083-1.846Z" fill="#fff"/>
                <path d="M282.115,264.234c-.195-.752.215-1.487.918-1.646.729-.165,1.531.315,1.72,1.027.194.733-.213,1.429-.95,1.627-.761.205-1.485-.227-1.688-1.008Z" fill="#fff"/>
                <path d="M275.108,239.707c-.219-.718.164-1.484.844-1.686.689-.205,1.522.269,1.73.984.196.674-.254,1.469-.933,1.649-.698.185-1.424-.234-1.642-.946Z" fill="#fff"/>
                <path d="M288.917,231.793c-.401-.315-.958-.551-1.166-.963-.311-.615.096-1.131.721-1.324.644-.199,1.248.09,1.343.721.068.446-.291.957-.459,1.439l-.439.127Z" fill="#fff"/>
                <path d="M290.332,250.673c.656.429,1.135.611,1.363.958.09.137-.308.813-.612.942-.537.228-1.031-.063-1.104-.691-.033-.279.16-.583.353-1.208Z" fill="#fff"/>
                <path d="M284.256,239.819c.431-.504.636-.958.908-1.003.289-.047.641.295.966.467-.183.319-.299.8-.568.911-.257.106-.672-.173-1.307-.374Z" fill="#fff"/>
                <path d="M294.964,235.934c-.396.469-.58.888-.834.935-.266.049-.598-.258-.901-.409.173-.319.276-.767.544-.913.197-.107.61.181,1.191.387Z" fill="#fff"/>
                <path d="M282.385,232.651c.431.358.796.517.859.756.055.208-.211.703-.37.719-.273.027-.704-.151-.822-.374-.099-.186.153-.56.333-1.1Z" fill="#fff"/>
                <path d="M286.383,229.245c-.434-.371-.822-.546-.856-.774-.037-.251.251-.55.397-.828.272.157.678.257.777.487.091.214-.146.568-.318,1.115Z" fill="#fff"/>
                <path d="M292.178,272.268c.333-.348.534-.723.727-.719.257.005.508.306.761.479-.177.224-.321.581-.54.635-.218.054-.51-.197-.948-.395Z" fill="#fff"/>
                <path d="M291.995,238.635c-.265.355-.402.709-.573.726-.246.025-.516-.197-.776-.313.152-.238.255-.569.472-.684.154-.081.462.13.877.27Z" fill="#fff"/>
                <path d="M291.81,245.463c-.264.34-.385.627-.592.714-.127.053-.549-.207-.546-.317.007-.231.159-.53.348-.654.115-.075.41.123.79.257Z" fill="#fff"/>
              </g>
            </g>
            <g filter="url(#e)">
              <rect x="-155.19" y="148.92" width="371.573" height="94.275" fill="#b1ddea"/>
              <path d="M-145.548,174.09c38.961,3.555,85.671,5.63,135.919,5.63s96.708-2.065,135.607-5.602v-20.213H-145.548v20.185Z" fill="#fff" opacity=".5"/>
              <rect x="136.242" y="148.92" width="80.141" height="94.275" fill="#a384bb" mix-blend-mode="multiply" opacity=".25"/>
              <rect x="209.644" y="145.507" width="6.739" height="97.688" fill="#336a9b"/>
              <rect x="135.764" y="145.507" width="6.739" height="97.688" fill="#336a9b"/>
              <g>
                <rect x="129.678" y="145.507" width="6.739" height="97.688" fill="#6498d1"/>
                <rect x="82.2" y="145.507" width="6.739" height="97.688" fill="#6498d1"/>
                <rect x="34.722" y="145.507" width="6.739" height="97.688" fill="#6498d1"/>
              </g>
              <g>
                <rect x="-113.691" y="132.444" width="288.417" height="16.476" fill="#a384bb"/>
                <path d="M174.726,132.445c-27.385,0-49.585,16.476-49.585,16.476h99.17s-22.2-16.476-49.585-16.476Z" fill="#a384bb"/>
                <path d="M174.726,132.445c-27.385,0-49.585,16.476-49.585,16.476h99.17s-22.2-16.476-49.585-16.476Z" fill="#a384bb" mix-blend-mode="multiply" opacity=".25"/>
              </g>
              <g>
                <line x1="276.204" y1="197.435" x2="276.204" y2="239.282" fill="none" stroke="#ffd66e" stroke-linecap="round" stroke-linejoin="round" stroke-width="3.214"/>
                <line x1="257.687" y1="197.435" x2="257.687" y2="239.282" fill="none" stroke="#ffd66e" stroke-linecap="round" stroke-linejoin="round" stroke-width="3.214"/>
                <line x1="239.171" y1="197.435" x2="239.171" y2="239.282" fill="none" stroke="#ffd66e" stroke-linecap="round" stroke-linejoin="round" stroke-width="3.214"/>
                <line x1="220.654" y1="197.435" x2="220.654" y2="239.282" fill="none" stroke="#ffd66e" stroke-linecap="round" stroke-linejoin="round" stroke-width="3.214"/>
                <line x1="202.138" y1="197.435" x2="202.138" y2="239.282" fill="none" stroke="#ffd66e" stroke-linecap="round" stroke-linejoin="round" stroke-width="3.214"/>
                <line x1="183.622" y1="197.435" x2="183.622" y2="239.282" fill="none" stroke="#ffd66e" stroke-linecap="round" stroke-linejoin="round" stroke-width="3.214"/>
              </g>
              <g mix-blend-mode="multiply" opacity=".5">
                <line x1="276.204" y1="197.435" x2="276.204" y2="239.282" fill="none" mix-blend-mode="multiply" opacity=".5" stroke="#e86170" stroke-linecap="round" stroke-linejoin="round" stroke-width="3.214"/>
                <line x1="257.687" y1="197.435" x2="257.687" y2="239.282" fill="none" mix-blend-mode="multiply" opacity=".5" stroke="#e86170" stroke-linecap="round" stroke-linejoin="round" stroke-width="3.214"/>
                <line x1="239.171" y1="197.435" x2="239.171" y2="239.282" fill="none" mix-blend-mode="multiply" opacity=".5" stroke="#e86170" stroke-linecap="round" stroke-linejoin="round" stroke-width="3.214"/>
                <line x1="220.654" y1="197.435" x2="220.654" y2="239.282" fill="none" mix-blend-mode="multiply" opacity=".5" stroke="#e86170" stroke-linecap="round" stroke-linejoin="round" stroke-width="3.214"/>
                <line x1="202.138" y1="197.435" x2="202.138" y2="239.282" fill="none" mix-blend-mode="multiply" opacity=".5" stroke="#e86170" stroke-linecap="round" stroke-linejoin="round" stroke-width="3.214"/>
                <line x1="183.622" y1="197.435" x2="183.622" y2="239.282" fill="none" mix-blend-mode="multiply" opacity=".5" stroke="#e86170" stroke-linecap="round" stroke-linejoin="round" stroke-width="3.214"/>
              </g>
              <g>
                <line x1="180.581" y1="197.435" x2="180.581" y2="239.282" fill="none" stroke="#ffd66e" stroke-linecap="round" stroke-linejoin="round" stroke-width="3.214"/>
                <line x1="161.028" y1="197.435" x2="161.028" y2="239.282" fill="none" stroke="#ffd66e" stroke-linecap="round" stroke-linejoin="round" stroke-width="3.214"/>
                <line x1="141.475" y1="197.435" x2="141.475" y2="239.282" fill="none" stroke="#ffd66e" stroke-linecap="round" stroke-linejoin="round" stroke-width="3.214"/>
                <line x1="121.922" y1="197.435" x2="121.922" y2="239.282" fill="none" stroke="#ffd66e" stroke-linecap="round" stroke-linejoin="round" stroke-width="3.214"/>
                <line x1="102.369" y1="197.435" x2="102.369" y2="239.282" fill="none" stroke="#ffd66e" stroke-linecap="round" stroke-linejoin="round" stroke-width="3.214"/>
                <line x1="82.816" y1="197.435" x2="82.816" y2="239.282" fill="none" stroke="#ffd66e" stroke-linecap="round" stroke-linejoin="round" stroke-width="3.214"/>
                <line x1="63.263" y1="197.435" x2="63.263" y2="239.282" fill="none" stroke="#ffd66e" stroke-linecap="round" stroke-linejoin="round" stroke-width="3.214"/>
                <line x1="43.71" y1="197.435" x2="43.71" y2="239.282" fill="none" stroke="#ffd66e" stroke-linecap="round" stroke-linejoin="round" stroke-width="3.214"/>
                <line x1="24.157" y1="197.435" x2="24.157" y2="239.282" fill="none" stroke="#ffd66e" stroke-linecap="round" stroke-linejoin="round" stroke-width="3.214"/>
                <line x1="4.604" y1="197.435" x2="4.604" y2="239.282" fill="none" stroke="#ffd66e" stroke-linecap="round" stroke-linejoin="round" stroke-width="3.214"/>
              </g>
              <rect x="-163.276" y="194.311" width="449.122" height="6.248" fill="#e86170"/>
              <polygon points="260.341 286.091 -150.935 286.091 -163.276 235.083 285.845 235.083 260.341 286.091" fill="#a384bb"/>
              <polygon points="189.22 235.083 163.716 286.091 260.341 286.091 285.845 235.083 189.22 235.083" fill="#a384bb" mix-blend-mode="multiply" opacity=".25"/>
            </g>
          </g>
          <g>
            <path d="M186.385,272.069s-25.225-69.126-47.643-53.375c-6.341,4.455,10.295,39.926,10.295,39.926,0,0-22.145-10.757-23.915-1.518-1.77,9.239-10.288,16.432-27.323,13.025-17.036-3.407,48.079,20.656,49.593,10.991,1.514-9.666,21.519,9.14,25.997,4.469,4.478-4.671-3.283-18.389,12.996-13.517Z" fill="#9bc8ec"/>
            <path d="M177.342,262.065c.811-14.952-22.217-55.152-38.6-43.372-10.785,7.755,7.599,30.611,10.295,39.926-13.684-7.9-29.677-8.823-33.958-4.412-4.281,4.411,7.894,6.286,4.543,10.295s-34.807,4.091-34.807,4.091c0,0,36.061,12.756,46.274,8.282,6.434-2.819-3.907-11.994,1.796-13.99,14.255-4.988,27.126,20.794,38.022,18.023,6.456-1.642-9.337-22.384-5.17-24.1,4.167-1.716,11.606,5.258,11.606,5.258Z" fill="#fff"/>
            <g>
              <g>
                <path d="M84.232,261.665c.942.526.934,1.65.521,2.178-.492.629-1.375.799-2.014.357-.673-.466-.84-1.374-.376-2.055.075-.11.167-.207.245-.314.657-.91.766-.922,1.624-.165Z" fill="#fff"/>
                <path d="M63.979,272.851c.459-.563,1.279-.651,1.857-.201.608.474.698,1.318.204,1.895-.466.545-1.308.619-1.867.164-.557-.453-.646-1.303-.193-1.858Z" fill="#fff"/>
                <path d="M79.202,277.569c.388-.469.92-.491,1.467-.061.527.414.62,1.155.209,1.652-.399.483-1.113.541-1.605.129-.515-.431-.545-1.148-.071-1.721Z" fill="#fff"/>
                <path d="M87.432,277.958c-.41.474-1.086.53-1.544.127-.454-.399-.496-1.09-.094-1.556.435-.504,1.146-.586,1.603-.184.46.404.475,1.104.035,1.613Z" fill="#fff"/>
                <path d="M76.316,266.291c.385-.469,1.089-.546,1.557-.171.475.381.545,1.079.156,1.551-.396.479-1.07.551-1.551.165-.486-.389-.556-1.064-.161-1.545Z" fill="#fff"/>
                <path d="M93.905,265.315c.381-.433,1.065-.462,1.496-.062.411.381.45,1.017.09,1.448-.381.456-1.035.504-1.488.108-.443-.387-.487-1.053-.099-1.495Z" fill="#fff"/>
                <path d="M64.284,280.121c-.427-.38-.469-.997-.097-1.437.387-.458,1.041-.501,1.486-.099.422.381.465,1.011.099,1.442-.387.455-1.037.496-1.488.094Z" fill="#fff"/>
                <path d="M92.34,271.504c-.358.406-.942.456-1.308.112-.379-.356-.415-1.007-.078-1.393.347-.397.908-.434,1.31-.086.415.36.448.946.076,1.367Z" fill="#fff"/>
                <path d="M62.23,267.992c.1-.117.189-.247.303-.349.351-.316.727-.333,1.056.009.333.346.277.728-.042,1.058-.167.173-.389.291-.562.459-.317.31-.656.392-.991.077-.342-.321-.255-.67.035-.991.074-.082.144-.167.215-.251-.005-.004-.01-.008-.014-.012Z" fill="#fff"/>
                <path d="M80.912,285.109c-.329.406-.921.484-1.303.17-.387-.318-.438-.983-.107-1.382.312-.376.947-.426,1.316-.104.379.331.42.914.094,1.317Z" fill="#fff"/>
                <path d="M71.365,253.766c-.452-.359-.559-.884-.261-1.286.28-.378.87-.445,1.256-.144.389.303.489,1.287.169,1.657-.253.292-.591.226-1.164-.228Z" fill="#fff"/>
                <path d="M78.66,253.931c-.345.383-.942.413-1.315.041-.389-.389-.413-.829-.075-1.261.325-.415.906-.446,1.306-.093.396.349.433.926.085,1.314Z" fill="#fff"/>
                <path d="M64.117,257.609c.338-.362.959-.376,1.334-.03.381.353.404.88.054,1.25-.355.376-.953.399-1.324.051-.353-.33-.382-.929-.063-1.271Z" fill="#fff"/>
                <path d="M68.992,269.947c-.367-.313-.424-.895-.124-1.265.315-.389.93-.424,1.313-.076.362.329.398.905.079,1.263-.316.355-.9.391-1.268.078Z" fill="#fff"/>
                <path d="M76.413,260.652c.286.318.343.704.03,1.094-.287.357-.877.405-1.193.09-.348-.346-.369-.753-.075-1.14.272-.359.856-.385,1.238-.044Z" fill="#fff"/>
                <path d="M70.96,280.223c-.026.354.055.768-.102,1.049-.234.419-.69.385-1.045.1-.366-.295-.434-.755-.107-1.056.231-.213.666-.205,1.01-.296l.244.204Z" fill="#fff"/>
                <path d="M81.308,272.047c-.008-.546-.09-.894.022-1.16.044-.105.589-.139.782-.014.341.221.365.62.031.907-.148.127-.399.135-.835.267Z" fill="#fff"/>
                <path d="M77.411,279.785c-.459-.052-.801.007-.933-.133-.14-.148-.08-.485-.107-.74.255-.019.578-.139.747-.027.161.107.162.456.293.9Z" fill="#fff"/>
                <path d="M70.994,275.117c.425.045.739-.011.865.117.132.134.084.446.115.679-.252.024-.551.14-.739.042-.139-.072-.133-.423-.241-.839Z" fill="#fff"/>
                <path d="M58.288,268.716c.452.051.781-.004.891.126.123.145.129.501.031.682-.057.106-.486.144-.619.043-.153-.116-.163-.419-.303-.851Z" fill="#fff"/>
                <path d="M68.845,266.581c.061-.432.015-.749.146-.862.142-.123.448-.056.682-.072.015.237.122.534.017.692-.095.143-.42.133-.845.243Z" fill="#fff"/>
                <path d="M70.897,262.673c.03-.388-.031-.679.083-.789.12-.117.481-.153.6-.057.119.097.156.456.067.599-.083.134-.379.136-.749.246Z" fill="#fff"/>
                <path d="M74.002,283.659c.038-.389-.012-.661.102-.79.098-.113.488-.152.559-.067.122.147.187.465.104.621-.069.13-.383.13-.765.237Z" fill="#fff"/>
                <path d="M70.477,282.678c-.045.395.005.687-.113.796-.13.119-.415.07-.633.093-.015-.218-.116-.491-.021-.638.088-.136.385-.137.768-.251Z" fill="#fff"/>
                <path d="M84.3,258.241c.031-.311-.018-.602.085-.673.15-.103.408-.048.62-.06,0,.214.069.472-.026.628-.064.104-.363.065-.679.105Z" fill="#fff"/>
                <path d="M93.055,262.563c-.331-.056-.626-.026-.699-.139-.097-.15-.021-.412-.02-.626.198.015.46-.041.577.064.116.105.085.371.142.701Z" fill="#fff"/>
                <path d="M73.711,275.778c.308.015.566-.044.643.048.11.132.088.375.122.57-.197.005-.428.075-.579-.006-.107-.057-.105-.318-.186-.612Z" fill="#fff"/>
                <path d="M77.724,273.224c.299.02.512-.022.643.063.08.052.095.398.03.439-.136.086-.368.115-.513.054-.088-.037-.089-.285-.159-.556Z" fill="#fff"/>
              </g>
              <g>
                <path d="M141.355,262.341c.287,2.114-1.5,3.437-2.825,3.411-1.58-.031-2.897-1.227-2.956-2.762-.062-1.618,1.176-2.962,2.804-3.035.262-.012.526.019.788.014,2.219-.042,2.367.117,2.189,2.372Z" fill="#fff"/>
                <path d="M99.609,243.594c1.435.057,2.55,1.249,2.523,2.698-.027,1.523-1.255,2.669-2.756,2.573-1.416-.091-2.532-1.334-2.477-2.759.055-1.42,1.294-2.569,2.709-2.512Z" fill="#fff"/>
                <path d="M110.227,273.274c1.203.057,1.869.871,1.838,2.247-.03,1.325-1.089,2.352-2.365,2.293-1.239-.058-2.178-1.118-2.111-2.384.07-1.327,1.168-2.225,2.637-2.156Z" fill="#fff"/>
                <path d="M119.388,286.754c-1.237-.085-2.127-1.088-2.034-2.292.092-1.193,1.135-2.079,2.35-1.996,1.313.089,2.288,1.118,2.195,2.317-.093,1.207-1.183,2.062-2.51,1.97Z" fill="#fff"/>
                <path d="M124.639,255.315c1.199.052,2.157,1.073,2.12,2.259-.038,1.204-1.059,2.144-2.268,2.088-1.228-.057-2.143-1.038-2.104-2.257.039-1.23,1.023-2.143,2.252-2.09Z" fill="#fff"/>
                <path d="M147.072,281.974c1.138.088,1.995,1.136,1.875,2.293-.114,1.102-1.074,1.921-2.184,1.862-1.174-.061-2.026-1.039-1.939-2.225.085-1.161,1.087-2.021,2.248-1.931Z" fill="#fff"/>
                <path d="M88.474,252.71c.094-1.127,1.02-1.925,2.157-1.859,1.184.069,2.029,1.05,1.922,2.232-.102,1.12-1.047,1.936-2.162,1.869-1.179-.071-2.016-1.05-1.917-2.242Z" fill="#fff"/>
                <path d="M135.425,286.85c-1.067-.084-1.839-.949-1.73-1.936.113-1.023,1.099-1.853,2.111-1.777,1.041.078,1.765.92,1.691,1.969-.076,1.084-.964,1.832-2.072,1.744Z" fill="#fff"/>
                <path d="M105.217,235.058c.305.019.615.006.912.064.916.18,1.39.755,1.24,1.682-.152.939-.823,1.302-1.724,1.19-.471-.059-.922-.27-1.393-.342-.866-.133-1.399-.571-1.299-1.477.102-.923.756-1.199,1.609-1.122.217.02.435.029.653.042,0-.012.002-.025.002-.037Z" fill="#fff"/>
                <path d="M100.333,284.935c-1.034-.038-1.858-.882-1.816-1.858.043-.989,1.035-1.861,2.06-1.81.966.047,1.799.992,1.727,1.957-.074.992-.946,1.749-1.971,1.712Z" fill="#fff"/>
                <path d="M138.566,232.609c.03-1.142.734-1.934,1.724-1.939.93-.005,1.736.847,1.719,1.816-.018.975-1.455,2.302-2.421,2.235-.762-.052-1.059-.666-1.021-2.112Z" fill="#fff"/>
                <path d="M146.971,244.342c-1.016-.09-1.771-1-1.625-2.031.153-1.077.82-1.638,1.905-1.617,1.042.021,1.781.903,1.698,1.954-.082,1.042-.949,1.785-1.977,1.694Z" fill="#fff"/>
                <path d="M123.879,225.71c.974.104,1.734,1.07,1.631,2.074-.105,1.022-.912,1.683-1.913,1.57-1.016-.115-1.762-1.033-1.653-2.034.104-.95,1.015-1.708,1.935-1.61Z" fill="#fff"/>
                <path d="M110.156,248.073c.058-.952.912-1.734,1.854-1.698.989.037,1.775.967,1.679,1.986-.091.964-.958,1.704-1.904,1.624-.937-.079-1.688-.96-1.629-1.912Z" fill="#fff"/>
                <path d="M133.671,248.772c-.163.83-.705,1.378-1.694,1.346-.905-.029-1.682-.907-1.56-1.78.134-.962.752-1.477,1.714-1.473.892.004,1.627.897,1.54,1.906Z" fill="#fff"/>
                <path d="M96.242,263.392c-.591.38-1.149.999-1.779,1.085-.94.128-1.429-.634-1.399-1.535.031-.929.679-1.584,1.544-1.424.612.113,1.116.81,1.668,1.246l-.033.628Z" fill="#fff"/>
                <path d="M121.464,270.047c.854-.661,1.306-1.204,1.86-1.343.219-.055.92.767.951,1.221.055.802-.546,1.313-1.397,1.126-.377-.083-.688-.471-1.414-1.004Z" fill="#fff"/>
                <path d="M104.596,273.074c-.462-.788-.962-1.259-.897-1.634.068-.397.672-.703,1.043-1.048.333.382.907.749.93,1.149.022.382-.528.798-1.076,1.533Z" fill="#fff"/>
                <path d="M104.357,257.381c.433.726.895,1.155.842,1.507-.055.368-.605.663-.938.989-.337-.369-.875-.705-.944-1.119-.051-.305.51-.713,1.04-1.377Z" fill="#fff"/>
                <path d="M99.391,229.683c.456.777.933,1.23.859,1.559-.082.367-.64.799-1.042.859-.236.036-.805-.598-.803-.928.002-.379.47-.756.985-1.491Z" fill="#fff"/>
                <path d="M115.306,243.844c.755-.417,1.202-.866,1.537-.794.363.078.621.641.925.993-.357.304-.701.827-1.074.849-.339.02-.71-.506-1.388-1.048Z" fill="#fff"/>
                <path d="M123.923,242.447c.649-.414,1.036-.855,1.346-.806.328.052.814.579.802.881-.012.303-.536.788-.869.817-.311.027-.666-.438-1.279-.893Z" fill="#fff"/>
                <path d="M94.42,272.283c.66-.401,1.031-.803,1.371-.778.295.022.821.591.77.805-.088.368-.514.848-.858.902-.287.045-.66-.451-1.283-.929Z" fill="#fff"/>
                <path d="M91.785,265.544c-.678.398-1.081.824-1.393.766-.343-.064-.603-.574-.9-.89.327-.283.639-.767.984-.792.32-.023.674.445,1.309.917Z" fill="#fff"/>
                <path d="M146.852,258.382c.529-.321.931-.743,1.165-.665.341.114.561.589.833.91-.34.254-.664.67-1.024.705-.241.023-.533-.497-.973-.949Z" fill="#fff"/>
                <path d="M150.415,277.362c-.304-.59-.702-1.021-.61-1.27.122-.332.627-.523.967-.775.212.331.612.679.584.988-.028.308-.486.576-.941,1.057Z" fill="#fff"/>
                <path d="M106.538,262.463c.343.505.743.843.688,1.073-.079.331-.488.584-.757.87-.242-.305-.627-.589-.678-.923-.036-.237.378-.543.747-1.02Z" fill="#fff"/>
                <path d="M115.345,265.776c.324.496.644.784.663,1.092.012.189-.517.622-.659.568-.297-.113-.618-.446-.695-.748-.047-.183.345-.478.691-.912Z" fill="#fff"/>
              </g>
              <g>
                <path d="M159.217,219.069c.824.919.398,2.133-.246,2.55-.767.498-1.785.353-2.312-.363-.555-.754-.398-1.8.357-2.363.122-.091.258-.161.382-.249,1.049-.741,1.172-.712,1.818.425Z" fill="#fff"/>
                <path d="M133.141,223.644c.706-.438,1.626-.23,2.084.473.481.738.266,1.686-.484,2.127-.707.416-1.646.183-2.082-.517-.435-.698-.214-1.65.482-2.082Z" fill="#fff"/>
                <path d="M147.861,234.41c.594-.363,1.178-.19,1.61.479.416.644.242,1.48-.388,1.866-.612.375-1.406.172-1.785-.457-.397-.658-.163-1.445.563-1.888Z" fill="#fff"/>
                <path d="M156.623,237.891c-.62.361-1.372.17-1.718-.437-.343-.601-.131-1.364.477-1.719.658-.384,1.458-.207,1.803.397.347.608.103,1.371-.562,1.758Z" fill="#fff"/>
                <path d="M148.931,221.131c.591-.364,1.381-.186,1.749.394.373.589.189,1.37-.408,1.736-.606.372-1.363.199-1.74-.398-.381-.602-.206-1.358.4-1.732Z" fill="#fff"/>
                <path d="M168.328,226.614c.574-.327,1.324-.104,1.642.489.303.565.109,1.268-.441,1.601-.582.352-1.307.16-1.651-.436-.336-.583-.136-1.321.449-1.654Z" fill="#fff"/>
                <path d="M130.768,231.625c-.321-.57-.136-1.253.429-1.591.589-.351,1.313-.156,1.645.445.315.569.127,1.267-.429,1.597-.588.349-1.306.151-1.646-.451Z" fill="#fff"/>
                <path d="M164.334,232.73c-.538.306-1.189.143-1.457-.365-.278-.527-.075-1.244.434-1.536.524-.301,1.144-.132,1.449.394.316.544.133,1.19-.426,1.508Z" fill="#fff"/>
                <path d="M133.055,217.736c.152-.09.297-.197.458-.265.497-.211.911-.09,1.14.403.232.499.029.891-.439,1.13-.245.125-.529.17-.778.288-.458.217-.855.181-1.101-.285-.251-.475-.028-.82.406-1.06.11-.061.218-.128.327-.192-.004-.006-.007-.012-.011-.018Z" fill="#fff"/>
                <path d="M146.908,243.205c-.507.317-1.176.181-1.473-.3-.301-.488-.109-1.227.399-1.536.478-.291,1.183-.109,1.462.376.287.499.115,1.145-.388,1.46Z" fill="#fff"/>
                <path d="M148.229,205.737c-.356-.557-.276-1.164.196-1.488.444-.304,1.106-.158,1.412.312.308.473.05,1.575-.434,1.856-.382.222-.723.025-1.175-.68Z" fill="#fff"/>
                <path d="M156.063,208.627c-.515.287-1.173.096-1.438-.445-.277-.565-.139-1.051.387-1.393.505-.328,1.146-.145,1.448.385.299.525.125,1.163-.397,1.453Z" fill="#fff"/>
                <path d="M138.957,207.201c.5-.267,1.178-.05,1.454.464.281.523.11,1.102-.406,1.373-.524.275-1.179.077-1.452-.437-.259-.488-.068-1.147.404-1.399Z" fill="#fff"/>
                <path d="M139.645,222.365c-.281-.475-.126-1.126.336-1.415.485-.303,1.164-.113,1.449.406.269.491.094,1.127-.384,1.396-.474.266-1.12.088-1.401-.387Z" fill="#fff"/>
                <path d="M151.132,215.066c.191.45.11.889-.374,1.195-.443.28-1.1.112-1.325-.346-.248-.504-.119-.952.343-1.262.428-.287,1.07-.099,1.357.413Z" fill="#fff"/>
                <path d="M137.955,234.218c-.159.374-.226.851-.5,1.097-.409.367-.89.16-1.168-.281-.286-.455-.189-.979.277-1.183.33-.144.797.026,1.203.055l.188.311Z" fill="#fff"/>
                <path d="M152.194,229.216c.195-.594.235-1,.455-1.247.087-.098.689.069.852.276.287.366.165.806-.303.993-.208.083-.482-.002-1.003-.022Z" fill="#fff"/>
                <path d="M145.099,236.142c-.477-.227-.869-.291-.96-.491-.096-.212.094-.555.159-.84.283.075.677.064.819.248.135.176.006.553-.017,1.083Z" fill="#fff"/>
                <path d="M139.89,228.705c.443.207.804.263.892.448.093.194-.074.514-.128.778-.281-.067-.648-.054-.815-.229-.123-.13.013-.507.051-.997Z" fill="#fff"/>
                <path d="M128.52,217.054c.47.224.846.286.918.468.08.203-.047.59-.22.75-.102.094-.579-.025-.686-.184-.122-.182-.021-.514-.012-1.034Z" fill="#fff"/>
                <path d="M140.738,218.668c.226-.445.294-.805.478-.879.199-.081.506.105.765.175-.072.262-.067.624-.238.755-.156.119-.504-.012-1.005-.051Z" fill="#fff"/>
                <path d="M144.411,215.202c.176-.409.219-.746.383-.823.174-.081.578.013.67.162.093.149,0,.551-.151.673-.14.114-.461.006-.902-.012Z" fill="#fff"/>
                <path d="M139.969,239.067c.186-.406.233-.72.404-.818.148-.085.585.017.63.136.077.205.029.573-.118.71-.123.115-.463-.002-.916-.028Z" fill="#fff"/>
                <path d="M136.52,236.695c-.196.411-.25.746-.418.819-.185.081-.475-.079-.72-.134.064-.242.057-.575.214-.699.146-.115.467-.006.924.014Z" fill="#fff"/>
                <path d="M160.564,215.389c.149-.326.204-.658.342-.696.2-.056.46.1.694.165-.08.232-.1.536-.262.67-.108.089-.417-.065-.774-.139Z" fill="#fff"/>
                <path d="M168.432,223.321c-.337-.184-.667-.261-.704-.41-.049-.199.13-.454.211-.685.209.09.514.127.6.284.086.156-.046.434-.107.811Z" fill="#fff"/>
                <path d="M142.584,230.43c.328.13.629.163.678.291.07.184-.044.438-.08.662-.215-.068-.491-.078-.624-.222-.094-.102.004-.383.026-.731Z" fill="#fff"/>
                <path d="M147.877,229.158c.316.133.563.167.672.307.067.087-.045.466-.131.486-.179.042-.441-.013-.576-.132-.082-.073.01-.341.034-.661Z" fill="#fff"/>
              </g>
            </g>
          </g>
        </g>
      </g>
    </g>
  </g>
</svg>