<?xml version="1.0" encoding="UTF-8"?>
<svg xmlns="http://www.w3.org/2000/svg" width="300" height="300" xmlns:xlink="http://www.w3.org/1999/xlink" viewBox="0 0 300 300">
  <defs>
    <clipPath id="b">
      <path d="M126.772,270.147c-.714.568-1.284,1.023-1.977,1.575-.003-.058.007.152.018.393-3.196-.319-3.327-2.383-.098-2.884,1.266-.458,1.292-1.73,1.796-3.082-1.457.556-2.442.47-3.814.697.252.876.893.851,1.45,1.442-.481.508-1.165.591-1.771.508-.164-1.022-1.028-2.49.117-3.246,1.081-.446-.186-1.686-.567-2.013-.576.277-1.111.961-.617,1.595.308.467.508.864-.116,1.321-1.184,3.272-3.027-.469-4.858-1.096.043-.188.129-.569.249-1.096-1.736,1.039-.908-3.182-2.925-.821-1.624-1.05-2.16-4.844-4.273-4.346-.195.121-.721-.087-.862-.323-.793-2.584-3.2-3.697-4.05-6.08-.648-1.513-1.976-2.377-3.113-3.449-.105-.152-.742-.109-.861.057-.955,1.197-2.936.12-3.038-1.301-.305-.566-1.47-1.131-1.391-1.989-.993-1.138.043-1.066.753-1.648-.713-.298-.871-.891-.862-1.733.182-.805-1.666-2.151-.396-2.576,1.456-.278.308-1.173.293-2.22-.995,1.425-2.019,2.272-3.674,2.052-.749.61-1.209.199-1.709-.265-1.289-1.414-3.222.461-4.368,1.389.096-3.759-4.685.9-6.54,1.179-.045-1.293-1.546-2.313-2.535-1.037-2.249-.607-2.976-3.952-4.684-5.586-.354-1.535-2.399-1.151-2.496-2.62-.174-1.629-2.3-1.873-2.288-3.673-1.441-.59-1.123-2.543-2.161-3.441-1.784-2.289-6.496-5.151-5.755-8.104.894-.917,0-1.194-.607-1.76-.469-1.012-1.005-.044-1.776-.239,1.881-2.059-1.466-2.334,1.303-5.969.307-.896-.85-.648-1.11-.104-.689,1.234-1.677,1.063-2.634.934-.512-.549-.059-1.924-1.332-1.664-.087-.365-.174-.73-.265-1.114-1.241.3-1.93,1.597-.515,2.208-1.318,1.253-3.583,4.501-4.84,1.678-1.488.342-1.344-2.237-2.996-.947-.081-.699-.146-1.267-.22-1.908-.179.118-.405.268-.633.418-.357-.743-.386-1.794-1.555-1.625-.128-.956-.256-1.902-.401-2.984-.273.4-.459.674-.57.836-1.739-.398-2.103-2.224-3.029-3.533-.095.013-.19.027-.285.04-.063.335-.127.67-.19,1.006-.1-.005-.2-.01-.301-.014.267-3.392-2.866-4.422-3.859-7.278.268-1.007.296-1.422-.313-2.239-.385.414-.736.792-1.218,1.311-.78-.576-.39-2-1.553-1.698-.335-1.357-.028-2.349.869-3.26-.982-1.094,1.552-3.478-.432-3.648-.108.467-.211.908-.313,1.349h-.215c.026-1.112.053-2.223.084-3.524,2.431,1.178,2.282-2.245,2.499-3.943-.967.712-1.639,2.005-2.82,1.039.176.3.352.6.614,1.048-.519.131-.969.245-1.271.321-.347-1.909.465-3.139,1.711-4.501.127.086.294.199.395.268,2.901-4.637,5.805-9.825,10.004-13.792-1.101-.897-1.671-2.744-.22-3.567.661.055,1.365.339,1.709.081.63-.781,1.133-1.841-.331-2.352-.007-1.37,1.816-2.873.508-4.08-.762-.851-.499-2.634-1.967-2.737-1.541-.467-2.351.923-3.668,1.337-1.282-.241-1.534,1.02-2.196,1.866-.778-.443-1.737-.572-2.254-1.223-.354-1.428-1.427-.995-2.579-1.251.279-.295.512-.541.756-.799-1.61-.454-1.243,1.18-.684,1.971-.347.287-.659.544-1.161.959-.146-.998.719-2.27-.491-2.696-2.003-.024-2.094-3.775-4.13-2.353.013-.316.026-.622.039-.933-1.119-.022-1.15-.978-1.739-1.663-2.298-1.886-1.623-1.258-2.3-3.981-.202.134-.39.26-.632.421-.647-.984-1.563-1.132-1.856-2.568-1.328-2.881-5.346-3.058-7.079-5.386-.585.083-1.041.148-1.601.228,1.383-2.045.167-3.317.285-5.289.802-1.974,1.602-3.943,2.4-5.907l.357.032c-.084.989-.167,1.98-.27,3.197.814-.916.531-1.853.959-2.706.183.12.335.22.487.32.067-.034.134-.067.201-.101.024-1.515-1.858-.945-.615-2.467,8.097-15.249,14.395-31.292,23.079-46.174.452-.861.735-1.603,1.645-.565,1.744.56,1.811-2.35,3.56-2.194.431-.026.743-1.269.438-1.892-.072.32-.123.543-.188.83-.996.023-1.962.045-2.946.068.288-2.054,2.598-2.155,4.1-1.523,1.683-2.489,2.304-6.224,5.744-6.788-.14-.172-.266-.327-.539-.662,2.52-.59,4.58,2.546,6.67,1.905.44-.39.743-.297.818.309-.216.079-.43.157-.716.261,4.26,1.531,8.617,5.253,12.519,6.025.919,2.415,2.378-.584,3.433-1.49.519-.833,1.393-.071,2.021-.601,8.953-9.038,16.928-19.513,26.772-26.991.548-.009,1.596.235,1.946.822,1.848,1.277,2.466-3.795,6.841,1.161.667,1.147,2.425-.463,2.708,1.046.282,1.139,1.689,1.087,2.207,2.067,1.786,1.081,2.565,3.146,4.737,3.803.689.392.8.85,1.497-.017.118,1.414.309,1.516,1.399.76.079.407.154.792.229,1.178l1.123-.477c-.465,6.943,24.591-23.986,27.83-25.766,1.614.353-.188,1.261.697,2.163.504.143.961-.691,1.338-.89,1.676-.328-.022,1.919,1.229,2.224.722.181.831,1.901,1.677.962.181.363.422.654.47.981.121.87,1.498.81,1.687.114.111-.926-.632-2.356.922-2.128.695.044.417,1.093.954,1.37-.252.402-.445.71-.638,1.018.435.124.871.249,1.436.41-.455,1.116-.409,1.297.704,1.757.236,1.007,1.231,1.468,1.973,2.04.853.704,1.654,2.045,3.013,1.97-.367,1.39,1.423.545,2.121.967-1.036.973-.927,1.293.14,1.928-.026.064-.052.129-.078.193-.473-.052-.945-.105-1.599-.177.27.731,1.157.622.746,1.475-.068.73,1.223.916,1.837.424-.165.316-.264.505-.399.765.57-.039.209,1.014.965.708.422-.171.76-.545,1.101-.949-1.081.652-1.342-.397-.403-.954,1.362.035,2.055-.861,2.827-1.742,1.164-1.315,2.162-2.092,3.896-1.315.42.365.792.737,1.358.086,1.024.926,2.01,1.817,2.997,2.709.08-.067.161-.134.241-.2-.201-.332-.402-.663-.707-1.165,1.923,1.296,3.917-1.03,5.357.406.242,1.625,1.152,2.489,2.362,3.451,1.077.962.459,2.642,1.638,3.51.591.438.42,1.541,1.363.95,1.136-.803,2.064,1.302,1.41,2.168.424.081.745.143,1.018.195-.349.427-.657.804-.966,1.18.601.262-.509,1.372.736,1.339.079-.234.163-.483.242-.715.997.668,2.299,1.187,1.222,2.566.322.045.606.085.957.133-.052.234-.096.434-.112.508.399.361.738.669,1.123,1.017-.197.249-.374.474-.652.826.998-.259,1.849-.481,2.782-.723.017.314.026.498.036.679,2.534.548.472,4.428.011,6.054.081.056.162.112.243.169,1.616-1.377,2.453-3.491,3.878-5.066.083.048.165.097.248.145-.384.974-.893,1.909-1.079,2.947,1.031-.032,1.49-.808,2.019-1.568,3.259,2.237,14.631-18.5,13.479-7.991.094.03.189.059.283.089,1.094-2.144,4.509-2.623,4.519.402-.096.89.735.556,1.293.499.593-.139.81.106.812.662-.08,1.962,4.51.524,3.973,3.236,2.144-.457,1.241,2.226,2.864,2.406.605-.004,1.21.372,1.837.587-.225.485-.433.934-.678,1.461,5.02.996,1.101.777,3.501,2.933,4.404,2.295.161,6.216-.403,9.674.089.041.178.082.266.123-.185.117-.369.233-.605.382.059.154.126.329.196.511-1.449.027-.687,1.274-1.387,2.138-.349.477-.522.808.079,1.218.73.849.617,2.264.918,3.296-.073-.059-.231-.188-.271-.221-.656,1.441.088,2.991-1.8,3.481-.204.757-.278,1.634-1.183,2.076-.315-.334-.584-.62-.852-.905-.137-.009-.274-.017-.41-.026.293,2.122-.855,3.447-1.799,5.239,1.242.98,3,.811,3.902,1.869.136.202.265.614.366.604,1.437-.079,1.729,1.318,2.679,1.994.643-.661,1.245-1.281,1.864-1.918.26.187.466.335.672.483.052-.03.105-.061.157-.091l-.428-.924c1.562-3.164,1.703.665,2.812-1.18.475.196-.208,1.169.688.926.129-.035.115-.591.193-1.067,1.148-.008,1.437,1.548,2.789.384.073.773.039,1.143.215,1.756,1.685-.842,3.335-2.183,4.895-3.547,1.023-1.326,1.915-1.908,3.486-.744-.475.142-.748.223-1.02.305-.005.067-.011.135-.016.202.378.068.756.137,1.195.217.034-.181.063-.334.1-.528,1.723.228.025,1.229,1.078,1.799.134-.204.256-.391.296-.453,1.868.37,1.023-1.643.979-2.751l.204-.01c1.293,1.101,1.019,3.405,2.372,4.092.478.042.83.144,1.165.502,1.443.824.727-1.53,1.45-1.887.825-.061,1.284.754,1.73,1.415-.65,1.95,2.239,2.847,3.33,4.16-1.55-.417-2.332-.086-.804,1.442.229-.349.361-.551.594-.905.361.657.506,1.139,1.073,1.535.326-.601.054-1.047-.141-1.632.68.197,1.275.399.869,1.299.351,2.153,4.294-.792,3.39,2.185.898-.303,3.057.317,1.793,1.39-.131.095-.137.605-.006.756.169.194.628.381.795.285.865-.523,1.285.614,1.879,1.035,1.081,1.873-1.129,3.834-.969,5.528,1.202.529-.36,2.016-1.067.878-.308.414-.488.762.194.862,1.616,1.818-2.468,6.466-3.68,8.628.365-.107.59-.173.909-.267.159.618,1.012,1.706-.01,1.987-.745.554-.263,1.555-.229,2.5.289.015,1.168-.414,1.404-.381.598.516,1.12.261,1.637-.051.559-.337.696-.053.782.465.801,2.367,1.179,4.776,2.081,7.035.296,1.29.714,3.393,2.176,3.714.357.969,1.887,1.054,1.624,2.511,2.597-.272,2.122,3.134,2.166,4.769,2.929,1.423-1.903,4.927-2.06,7.046-1.368,1.049-1.719,3.218-2.761,3.844-.552.332.13,1.785-.94,1.65-.796.839-1.221,1.956-2.062,3.186,3.359.425,6.449.815,9.532,1.205.032,1.666.885.365,1.742,1.274-.463.32-.798.55-1.11.766,1.152,1.211,1.958,3.802.022,4.516-1.213-.421-.742.496-.819,1.117.542-.177.997-.326,1.52-.497.973,1.168-1.798,1.906-.43,3.306.013,5.671-9.282,6.554-2.154,13.149-.601.93.805,1.579.35,2.49-.864,1.241-.557,2.496,1.028,2.77.031-.119.095-.368.163-.633,1.014.619,2.481,4.084,2.35,5.432.203-.031.46-.071.716-.111-.01.096-.021.192-.031.288-.183.196-.365.393-.548.59.022.092.044.183.066.275.393-.066.786-.133,1.324-.224-.604.681-.237,2.147-1.186,2.219-.146-.009-.301.289-.452.446.707.611,1.519-.008,2.306-.16.039.066.079.131.118.197-3.126,4.171-9.064,6.455-10.856,11.429-.128,1.576-.41.812-1.467,1.079.511.307,1.427.88.622,1.38-.764.446.062,1.168-.253,1.875-.087.003-.174.006-.261.009-.122-.197-.243-.393-.517-.836-2.745,9.891-14.735,10.7-21.933,16.161-4.721,4.006-9.465,8.241-14.742,11.416-1.032,1.679-4.844,4.864-6.137,2.157.234-.101.458-.199.914-.396-.521-.325-.863-.539-1.347-.841.147,1.114-.969,3.195-.613,1.098-1.212-.582-.148-1.97-.78-3.19-.401.884-.706,1.557-1.011,2.231-1.428-.731-.155-3.632-1.829-3.831-.673,1.024-1.157.594-1.616-.31-.299.539-.537.97-.797,1.437-3.272-3.432-9.814,6.669-13.382,6.068-1.938.182-3.462,3.741-5.535,2.824-8.971-2.229-27.887,23.203-33.172,18.759.277-.119.533-.228,1.027-.44-.491-.356-.823-.597-1.214-.881-1.253,2.454-1.359-.662-1.252-1.807-.098-.031-.197-.062-.295-.093-.366.652-.732,1.305-1.092,1.947-1.624-.22.047-4.78-1.789-3.836-.899,1.306-.917.067-1.661-.321-.179.432-.346.837-.504,1.219-2.082-1.718-4.408.854-6.83.32-.817.38-2.702,1.194-2.44-.602.711-.752,1.476-3.949-.374-3.102-.693-1.096-.614-1.406.383-1.632-.13-1.436-.512-1.982-1.573-.714.167-2.383-1.748-3.383-1.153-5.508.157-.534-.429-1.418-.268-1.963.769-1.473-.333-2.133-.906-3.004-1.931-.74-2.614-2.2-3.516-4.067-.659.517-1.34,1.051-2.08,1.631.027-.286.049-.514.074-.772-2.134.455-.86,2.028-2.308,3.424-.48-2.06,1.266-3.471,1.159-5.483-7.491,8.85-14.265,20.34-21.905,27.933ZM281.647,165.413c.861.91-.177,1.368.871,1.808.243-.854,1.473-1.293.613-2.462l-.624.31-.413-.196c.221-.269.443-.537.662-.803-1.404-1.639-1.201.322-1.109,1.344ZM33.541,183.748c-.44.598-.881,1.197-1.321,1.794.416.232.892.496,1.372.764.972-1.015.967-1.809-.051-2.558ZM282.421,173.251c-.222-.095-.444-.189-.666-.284.342-.493.685-.986.992-1.43-.25-.17-.55-.375-.848-.578q-.56.478.02,1.052c-.282.189-.563.377-.843.564-.009.121-.018.242-.026.363.457.104.914.208,1.372.313ZM280.446,162.308c-.318.619-.555,1.08-.89,1.733,1.061-.275,2.309-1.141.89-1.733ZM230.913,89.214c-.07.023-.14.046-.21.069-.088.634-.176,1.268-.273,1.965l.902-.413c-.137-.532-.278-1.077-.419-1.622ZM179.677,43.765c-.848.503-.866.792-.101,1.425.035-.491.064-.905.101-1.425ZM38.809,78.717c.649.155,1.027.174,1.063-.485-.428-.544-.687.017-1.063.485ZM31.936,191.013c-.467.934-.379,1.117.477,1.239-.178-.463-.328-.851-.477-1.239ZM281.27,169.697c.154.012.308.025.462.037.005-.409.011-.818.016-1.226-.12-.01-.24-.02-.36-.03-.039.406-.079.812-.118,1.218ZM76.359,239.142c-.032.385-.064.77-.106,1.275.927-.494.838-.89.106-1.275Z" fill="none"/>
    </clipPath>
    <linearGradient id="c" data-name="Dégradé sans nom 13" x1="148.843" y1="67.007" x2="148.843" y2="252.017" gradientUnits="userSpaceOnUse">
      <stop offset="0" stop-color="#ffd66e"/>
      <stop offset="1" stop-color="#e86170"/>
    </linearGradient>
    <clipPath id="d">
      <path d="M-264.808-76.764v354.955c5.19.961,10.911,1.498,16.93,1.498,13.94,0,26.285-2.864,34.097-7.277.378-.016.756-.034,1.134-.05,4.209,4.441,10.886,7.327,18.43,7.327s14.227-2.888,18.435-7.332c5.371,4.444,13.895,7.332,23.527,7.332,7.937,0,15.125-1.961,20.42-5.135,6.184,3.174,14.58,5.135,23.849,5.135,7.988,0,15.321-1.463,21.158-3.895,1.436,2.432,3.24,3.895,5.205,3.895,1.936,0,3.714-1.422,5.14-3.79,5.795,2.367,13.024,3.79,20.894,3.79,10.291,0,19.501-2.419,25.802-6.232,5.395,3.813,13.281,6.232,22.092,6.232,8.175,0,15.567-2.074,20.901-5.417,6.23,3.343,14.864,5.417,24.411,5.417.422,0,.821-.046,1.238-.056.846.021,1.684.056,2.544.056,13.94,0,26.285-2.864,34.097-7.277.378-.016.756-.034,1.134-.05,4.209,4.441,10.886,7.327,18.43,7.327s14.227-2.888,18.435-7.332c5.371,4.444,13.895,7.332,23.527,7.332,7.937,0,15.125-1.961,20.42-5.135,6.184,3.174,14.58,5.135,23.849,5.135,7.988,0,15.321-1.463,21.158-3.895,1.436,2.432,3.24,3.895,5.205,3.895,1.936,0,3.714-1.422,5.14-3.79,5.795,2.367,13.024,3.79,20.894,3.79,10.291,0,19.501-2.419,25.802-6.232,5.395,3.813,13.281,6.232,22.092,6.232,8.175,0,15.567-2.074,20.901-5.417,6.23,3.343,14.864,5.417,24.411,5.417,1.708,0,3.369-.099,5.009-.228V-76.764H-264.808Z" fill="none"/>
    </clipPath>
    <filter id="e" data-name="drop-shadow-5" x="-229.23" y="-49.819" width="462.864" height="333.837" filterUnits="userSpaceOnUse">
      <feOffset dx="-6" dy="0"/>
      <feGaussianBlur result="f" stdDeviation="0"/>
      <feFlood flood-color="#42496f" flood-opacity="1"/>
      <feComposite in2="f" operator="in"/>
      <feComposite in="SourceGraphic"/>
    </filter>
    <clipPath id="g">
      <path d="M-179.52,139.577H101.418c16.662,0,31.862-9.509,39.151-24.492h0c7.289-14.983,22.489-24.492,39.151-24.492h49.165s-13.848,193.34-148.99,193.34h-229.463l-29.953-144.356Z" fill="none"/>
    </clipPath>
  </defs>
  <g isolation="isolate">
    <g id="a" data-name="bateau 02">
      <g clip-path="url(#b)">
        <rect x="5.286" y="7.067" width="287.116" height="269.478" fill="url(#c)"/>
        <g>
          <path d="M187.332,237.858c-.79-.28-1.733-.364-2.801-.282,52.91-61.331,49.041-161.747,49.041-161.747h-13.609s.026,3.094-.204,8.528h-42.323c-18.792,0-35.92,11.073-43.634,28.209-5.555,12.34-17.889,20.313-31.422,20.313H-175.831l-4.238-20.318h-8.937l14.685,75.085-.43,6.708-.034.528h0l-1.443,22.512c-.298,4.646-2.698,8.902-6.52,11.56l-5.401,3.757c-4.08,2.838-6.746,7.291-7.32,12.228l-4.534,38.992H85.263s18.461,1.441,41.7-7.601c.212-.07.42-.145.631-.216l2.217.693c-7.217,5.766-12.236,10.121-12.236,10.121l38.976,12.193s3.592-4.801,8.031-11.436l.792.248s34.221-45.724,21.958-50.076Z" fill="none" stroke="#fff" stroke-linecap="round" stroke-linejoin="round" stroke-width="20"/>
          <g>
            <path d="M141.764,285.031s-26.278-72.013-49.633-55.604c-6.606,4.641,10.725,41.593,10.725,41.593,0,0-23.07-11.206-24.913-1.581s-10.717,17.118-28.464,13.569c-17.747-3.549,50.086,21.519,51.664,11.45,1.578-10.069,22.417,9.522,27.083,4.656,4.665-4.866-3.42-19.157,13.539-14.082Z" fill="#9bc8ec"/>
            <path d="M132.343,274.61c.844-15.577-23.145-57.455-40.212-45.183-11.236,8.079,7.916,31.889,10.725,41.593-14.255-8.23-30.916-9.191-35.376-4.596-4.46,4.595,8.224,6.548,4.733,10.725s-36.26,4.262-36.26,4.262c0,0,37.567,13.289,48.206,8.628,6.703-2.937-4.071-12.495,1.871-14.574,14.85-5.196,28.259,21.663,39.61,18.775,6.726-1.711-9.727-23.319-5.386-25.107,4.341-1.787,12.09,5.477,12.09,5.477Z" fill="#fff"/>
            <g>
              <g>
                <path d="M35.6,275.121c.98.549.97,1.72.539,2.27-.514.654-1.434.829-2.099.367-.7-.487-.873-1.433-.387-2.141.078-.114.175-.215.256-.327.686-.947.8-.959,1.692-.169Z" fill="#fff"/>
                <path d="M14.479,286.733c.479-.585,1.334-.676,1.935-.206.632.495.725,1.374.208,1.975-.487.567-1.364.642-1.946.167-.58-.474-.67-1.359-.198-1.936Z" fill="#fff"/>
                <path d="M30.328,291.679c.405-.488.959-.51,1.528-.061.548.433.644,1.204.215,1.722-.417.503-1.161.561-1.672.132-.536-.45-.565-1.197-.07-1.792Z" fill="#fff"/>
                <path d="M38.901,292.101c-.428.493-1.132.55-1.609.129-.472-.417-.514-1.136-.094-1.621.454-.524,1.195-.608,1.671-.188.478.422.492,1.151.033,1.68Z" fill="#fff"/>
                <path d="M27.345,279.924c.402-.488,1.135-.567,1.622-.175.494.398.566,1.125.159,1.616-.413.498-1.116.572-1.617.169-.505-.406-.577-1.11-.165-1.61Z" fill="#fff"/>
                <path d="M45.669,278.942c.398-.451,1.11-.479,1.559-.061.427.397.467,1.061.091,1.509-.398.474-1.079.522-1.55.11-.461-.404-.505-1.098-.1-1.558Z" fill="#fff"/>
                <path d="M14.782,294.307c-.444-.397-.486-1.04-.098-1.497.404-.476,1.085-.52,1.548-.1.439.398.482,1.054.1,1.502-.404.473-1.081.515-1.551.095Z" fill="#fff"/>
                <path d="M44.027,285.386c-.374.422-.982.473-1.363.114-.394-.372-.431-1.05-.078-1.451.363-.413.946-.45,1.364-.087.432.375.465.986.076,1.425Z" fill="#fff"/>
                <path d="M12.667,281.668c.105-.122.198-.257.316-.363.366-.328.758-.345,1.1.012.347.362.287.759-.046,1.103-.174.18-.406.302-.586.477-.331.322-.684.407-1.033.078-.356-.336-.265-.698.038-1.033.077-.085.15-.174.225-.261-.005-.004-.01-.008-.015-.013Z" fill="#fff"/>
                <path d="M32.095,299.537c-.344.423-.96.502-1.357.174-.402-.332-.454-1.025-.108-1.44.326-.391.988-.442,1.371-.106.394.346.436.953.095,1.372Z" fill="#fff"/>
                <path d="M22.211,266.867c-.471-.375-.581-.922-.269-1.34.293-.393.907-.462,1.309-.147.404.317.507,1.342.172,1.727-.264.304-.616.234-1.212-.24Z" fill="#fff"/>
                <path d="M29.811,267.052c-.36.399-.982.428-1.37.04-.405-.406-.429-.864-.076-1.314.339-.432.945-.462,1.36-.094.412.365.45.965.085,1.369Z" fill="#fff"/>
                <path d="M14.653,270.855c.352-.377,1-.39,1.389-.028.396.368.419.917.054,1.303-.37.391-.993.413-1.38.05-.367-.345-.396-.968-.063-1.324Z" fill="#fff"/>
                <path d="M19.707,283.718c-.382-.326-.44-.933-.127-1.318.329-.404.97-.44,1.368-.076.376.344.413.943.079,1.316-.33.369-.939.405-1.321.079Z" fill="#fff"/>
                <path d="M27.457,274.05c.297.332.356.734.029,1.139-.299.371-.915.42-1.243.092-.362-.361-.383-.785-.076-1.188.285-.374.893-.4,1.29-.043Z" fill="#fff"/>
                <path d="M21.737,294.427c-.027.369.056.8-.108,1.092-.244.436-.72.4-1.089.102-.381-.308-.451-.788-.11-1.101.241-.221.694-.212,1.053-.306l.254.213Z" fill="#fff"/>
                <path d="M32.533,285.93c-.007-.569-.092-.931.025-1.208.046-.11.614-.144.815-.013.355.231.379.646.031.945-.155.132-.416.14-.871.276Z" fill="#fff"/>
                <path d="M28.458,293.984c-.478-.055-.835.005-.972-.141-.145-.155-.082-.506-.11-.771.266-.019.603-.144.778-.027.168.112.168.475.304.938Z" fill="#fff"/>
                <path d="M21.782,289.108c.443.048.77-.01.901.124.137.14.087.464.119.708-.262.025-.574.144-.77.042-.144-.075-.138-.441-.249-.874Z" fill="#fff"/>
                <path d="M8.559,282.414c.471.054.813-.003.928.133.128.151.133.522.031.711-.06.111-.507.149-.645.044-.159-.121-.169-.437-.314-.887Z" fill="#fff"/>
                <path d="M19.561,280.211c.064-.45.017-.78.153-.898.148-.128.467-.058.711-.074.015.247.126.557.017.721-.099.149-.438.138-.881.252Z" fill="#fff"/>
                <path d="M21.706,276.144c.032-.404-.031-.707.088-.821.126-.121.502-.159.625-.058.124.101.162.475.068.624-.087.14-.395.141-.781.255Z" fill="#fff"/>
                <path d="M24.899,298.013c.041-.405-.011-.688.107-.823.103-.117.509-.158.583-.069.127.154.194.485.107.647-.072.135-.399.134-.798.245Z" fill="#fff"/>
                <path d="M21.229,296.984c-.048.411.004.716-.12.829-.136.124-.433.072-.66.096-.016-.227-.12-.512-.021-.665.092-.142.401-.142.8-.26Z" fill="#fff"/>
                <path d="M35.678,271.554c.033-.324-.017-.627.09-.701.156-.107.425-.049.646-.062,0,.223.071.492-.028.654-.067.108-.378.067-.708.108Z" fill="#fff"/>
                <path d="M44.79,276.074c-.345-.059-.652-.029-.727-.146-.101-.157-.021-.429-.019-.652.207.016.48-.042.601.068.12.109.088.387.146.731Z" fill="#fff"/>
                <path d="M24.611,289.802c.321.016.59-.045.67.051.114.138.091.39.126.594-.205.005-.446.077-.603-.008-.111-.06-.109-.331-.192-.637Z" fill="#fff"/>
                <path d="M28.797,287.149c.311.021.534-.022.67.067.083.055.098.415.03.457-.142.089-.384.119-.535.055-.092-.039-.092-.297-.165-.58Z" fill="#fff"/>
              </g>
              <g>
                <path d="M94.901,274.854c.3,2.202-1.562,3.58-2.943,3.553-1.646-.033-3.018-1.278-3.079-2.877-.065-1.685,1.225-3.085,2.921-3.162.273-.012.548.02.821.015,2.312-.044,2.466.122,2.281,2.471Z" fill="#fff"/>
                <path d="M51.411,255.325c1.495.06,2.656,1.301,2.629,2.811-.029,1.587-1.307,2.781-2.871,2.681-1.475-.094-2.638-1.39-2.58-2.874.058-1.48,1.348-2.676,2.822-2.617Z" fill="#fff"/>
                <path d="M62.473,286.245c1.253.059,1.947.908,1.915,2.341-.031,1.38-1.135,2.451-2.463,2.389-1.291-.06-2.269-1.165-2.199-2.484.073-1.383,1.217-2.318,2.747-2.246Z" fill="#fff"/>
                <path d="M72.016,300.287c-1.289-.089-2.216-1.133-2.119-2.387.096-1.242,1.183-2.165,2.448-2.079,1.368.093,2.383,1.164,2.286,2.414-.097,1.257-1.232,2.148-2.615,2.053Z" fill="#fff"/>
                <path d="M77.486,267.536c1.249.054,2.247,1.118,2.208,2.354-.039,1.254-1.103,2.233-2.362,2.175-1.279-.059-2.232-1.081-2.192-2.352.04-1.282,1.065-2.233,2.346-2.177Z" fill="#fff"/>
                <path d="M100.856,295.308c1.186.092,2.078,1.183,1.953,2.389-.119,1.148-1.119,2.001-2.275,1.94-1.223-.064-2.11-1.083-2.02-2.317.089-1.209,1.133-2.106,2.341-2.012Z" fill="#fff"/>
                <path d="M39.811,264.822c.098-1.174,1.063-2.006,2.247-1.937,1.233.071,2.114,1.094,2.002,2.325-.106,1.166-1.09,2.017-2.253,1.947-1.228-.074-2.1-1.094-1.997-2.336Z" fill="#fff"/>
                <path d="M88.723,300.387c-1.112-.088-1.916-.988-1.802-2.017.118-1.066,1.145-1.93,2.199-1.851,1.084.081,1.838.958,1.762,2.051-.079,1.129-1.005,1.908-2.159,1.817Z" fill="#fff"/>
                <path d="M57.253,246.432c.317.02.641.006.95.067.954.187,1.448.787,1.292,1.752-.159.978-.857,1.357-1.796,1.24-.491-.061-.961-.281-1.452-.357-.902-.139-1.458-.595-1.353-1.538.106-.961.787-1.249,1.676-1.169.226.02.454.03.681.044,0-.013.002-.026.002-.039Z" fill="#fff"/>
                <path d="M52.166,298.392c-1.077-.04-1.936-.919-1.892-1.936.045-1.03,1.078-1.938,2.146-1.886,1.006.049,1.874,1.033,1.799,2.039-.077,1.033-.985,1.822-2.053,1.783Z" fill="#fff"/>
                <path d="M91.995,243.881c.031-1.189.765-2.015,1.796-2.02.969-.005,1.809.882,1.79,1.892-.019,1.015-1.516,2.398-2.522,2.329-.794-.055-1.103-.694-1.064-2.2Z" fill="#fff"/>
                <path d="M100.751,256.105c-1.058-.093-1.845-1.042-1.693-2.116.159-1.122.854-1.707,1.984-1.685,1.085.021,1.855.941,1.769,2.036-.085,1.085-.989,1.859-2.06,1.765Z" fill="#fff"/>
                <path d="M76.695,236.694c1.015.108,1.807,1.115,1.699,2.16-.11,1.064-.95,1.754-1.993,1.636-1.058-.119-1.836-1.076-1.722-2.119.108-.989,1.057-1.779,2.016-1.677Z" fill="#fff"/>
                <path d="M62.399,259.991c.061-.992.95-1.806,1.931-1.769,1.03.038,1.849,1.008,1.749,2.069-.095,1.004-.998,1.775-1.983,1.692-.976-.082-1.758-1-1.697-1.992Z" fill="#fff"/>
                <path d="M86.896,260.719c-.17.864-.735,1.436-1.765,1.403-.943-.031-1.752-.945-1.626-1.854.139-1.002.783-1.539,1.786-1.534.929.004,1.694.934,1.605,1.986Z" fill="#fff"/>
                <path d="M47.904,275.949c-.615.396-1.197,1.041-1.854,1.13-.979.134-1.489-.661-1.457-1.599.033-.967.707-1.65,1.608-1.484.637.118,1.162.844,1.737,1.298l-.034.654Z" fill="#fff"/>
                <path d="M74.179,282.882c.89-.688,1.361-1.254,1.938-1.399.229-.058.958.799.991,1.272.058.836-.569,1.368-1.455,1.173-.393-.086-.716-.491-1.473-1.046Z" fill="#fff"/>
                <path d="M56.606,286.036c-.481-.82-1.002-1.312-.935-1.702.071-.414.701-.732,1.086-1.092.347.398.945.78.969,1.197.023.398-.55.831-1.121,1.597Z" fill="#fff"/>
                <path d="M56.357,269.687c.451.757.932,1.204.877,1.57-.058.384-.63.69-.977,1.03-.351-.385-.911-.734-.983-1.166-.053-.318.532-.742,1.084-1.435Z" fill="#fff"/>
                <path d="M51.184,240.833c.475.809.972,1.281.895,1.624-.086.383-.666.832-1.085.895-.246.037-.838-.623-.837-.967.002-.395.489-.787,1.027-1.553Z" fill="#fff"/>
                <path d="M67.764,255.585c.787-.434,1.252-.902,1.601-.827.378.081.647.668.964,1.035-.372.317-.73.862-1.118.884-.353.02-.739-.527-1.446-1.092Z" fill="#fff"/>
                <path d="M76.741,254.13c.676-.432,1.08-.891,1.402-.839.341.054.848.603.835.918-.013.316-.558.821-.905.851-.324.029-.693-.457-1.332-.93Z" fill="#fff"/>
                <path d="M46.006,285.212c.688-.417,1.074-.837,1.428-.811.307.023.855.616.802.839-.092.383-.535.884-.893.94-.299.047-.688-.47-1.337-.968Z" fill="#fff"/>
                <path d="M43.26,278.191c-.706.414-1.126.859-1.451.798-.358-.067-.629-.598-.937-.928.34-.295.666-.799,1.025-.825.333-.024.702.464,1.363.955Z" fill="#fff"/>
                <path d="M100.627,270.73c.551-.335.97-.774,1.213-.693.355.119.584.613.867.948-.354.264-.691.698-1.067.734-.251.024-.556-.518-1.013-.989Z" fill="#fff"/>
                <path d="M104.338,290.503c-.316-.615-.731-1.063-.635-1.323.128-.346.653-.545,1.007-.807.221.345.638.708.608,1.03-.029.32-.507.6-.98,1.101Z" fill="#fff"/>
                <path d="M58.63,274.982c.357.526.774.878.717,1.118-.082.345-.509.608-.788.906-.252-.318-.653-.613-.706-.961-.038-.247.393-.566.778-1.063Z" fill="#fff"/>
                <path d="M67.804,278.433c.337.517.67.817.691,1.137.013.197-.538.648-.686.592-.309-.118-.644-.464-.724-.779-.049-.191.359-.498.719-.95Z" fill="#fff"/>
              </g>
              <g>
                <path d="M113.461,229.818c.858.957.414,2.222-.256,2.657-.799.519-1.86.368-2.409-.378-.578-.786-.415-1.875.372-2.462.127-.095.269-.168.398-.259,1.093-.772,1.221-.742,1.894.443Z" fill="#fff"/>
                <path d="M86.296,234.585c.735-.457,1.694-.239,2.171.493.502.769.277,1.756-.504,2.216-.737.434-1.714.191-2.169-.539-.453-.727-.223-1.719.502-2.169Z" fill="#fff"/>
                <path d="M101.63,245.8c.619-.379,1.227-.198,1.677.499.433.671.252,1.542-.404,1.944-.638.39-1.464.179-1.859-.476-.414-.686-.17-1.505.586-1.967Z" fill="#fff"/>
                <path d="M110.759,249.426c-.646.376-1.429.177-1.79-.455-.357-.626-.137-1.421.497-1.79.685-.4,1.519-.216,1.879.414.362.634.107,1.429-.586,1.832Z" fill="#fff"/>
                <path d="M102.746,231.967c.616-.38,1.439-.194,1.822.41.388.613.197,1.427-.425,1.808-.632.387-1.42.207-1.813-.414-.397-.627-.215-1.415.417-1.804Z" fill="#fff"/>
                <path d="M122.952,237.679c.598-.341,1.379-.108,1.711.51.316.588.114,1.321-.46,1.668-.606.366-1.362.167-1.719-.454-.35-.608-.141-1.376.468-1.724Z" fill="#fff"/>
                <path d="M83.824,242.898c-.334-.594-.142-1.305.447-1.657.614-.366,1.367-.162,1.714.464.328.593.133,1.32-.447,1.664-.612.363-1.361.158-1.714-.47Z" fill="#fff"/>
                <path d="M118.792,244.05c-.561.319-1.238.149-1.518-.381-.289-.549-.078-1.296.452-1.6.546-.313,1.191-.138,1.51.41.329.566.138,1.24-.444,1.571Z" fill="#fff"/>
                <path d="M86.206,228.43c.158-.093.309-.205.477-.277.518-.22.949-.093,1.187.42.242.52.03.928-.458,1.177-.255.13-.552.177-.811.3-.477.227-.891.188-1.147-.297-.261-.495-.029-.854.423-1.104.115-.064.227-.133.34-.2-.004-.006-.008-.013-.011-.019Z" fill="#fff"/>
                <path d="M100.638,254.963c-.528.331-1.225.188-1.534-.313-.313-.508-.113-1.278.415-1.6.498-.303,1.233-.114,1.523.392.299.52.12,1.193-.404,1.52Z" fill="#fff"/>
                <path d="M102.014,215.93c-.371-.58-.288-1.213.204-1.55.462-.317,1.153-.165,1.471.325.321.492.052,1.64-.452,1.934-.398.232-.754.026-1.224-.708Z" fill="#fff"/>
                <path d="M110.175,218.94c-.537.299-1.222.1-1.498-.463-.288-.589-.145-1.095.403-1.451.527-.342,1.194-.152,1.508.401.311.547.13,1.211-.414,1.514Z" fill="#fff"/>
                <path d="M92.355,217.455c.521-.278,1.227-.053,1.515.483.293.545.115,1.148-.423,1.43-.545.286-1.229.08-1.512-.456-.27-.509-.071-1.195.421-1.458Z" fill="#fff"/>
                <path d="M93.072,233.252c-.293-.495-.131-1.173.35-1.474.506-.316,1.213-.118,1.509.423.281.512.098,1.174-.4,1.454-.494.278-1.166.092-1.459-.403Z" fill="#fff"/>
                <path d="M105.039,225.648c.199.469.114.926-.39,1.245-.461.291-1.146.116-1.38-.36-.259-.525-.124-.991.357-1.314.446-.299,1.115-.103,1.413.43Z" fill="#fff"/>
                <path d="M91.312,245.6c-.166.389-.235.887-.521,1.143-.426.382-.928.167-1.217-.293-.298-.474-.197-1.02.288-1.232.343-.151.83.027,1.253.058l.196.324Z" fill="#fff"/>
                <path d="M106.144,240.389c.203-.619.245-1.042.474-1.299.091-.102.718.072.887.287.299.381.172.84-.316,1.034-.216.086-.502-.003-1.045-.022Z" fill="#fff"/>
                <path d="M98.753,247.604c-.497-.237-.906-.303-1-.511-.1-.221.098-.578.166-.875.295.078.706.067.853.258.14.183.006.576-.018,1.128Z" fill="#fff"/>
                <path d="M93.327,239.857c.462.216.837.274.93.467.097.202-.078.535-.133.811-.293-.07-.675-.056-.849-.239-.129-.135.014-.528.053-1.039Z" fill="#fff"/>
                <path d="M81.482,227.719c.49.233.882.298.956.487.083.211-.049.615-.229.781-.106.098-.604-.026-.714-.191-.127-.19-.021-.536-.013-1.077Z" fill="#fff"/>
                <path d="M94.21,229.401c.236-.463.307-.838.498-.916.207-.084.527.11.797.183-.075.272-.07.65-.248.787-.163.124-.525-.012-1.047-.053Z" fill="#fff"/>
                <path d="M98.037,225.79c.184-.426.228-.777.399-.857.181-.085.602.014.698.168.096.155,0,.574-.157.701-.146.119-.48.007-.94-.013Z" fill="#fff"/>
                <path d="M93.41,250.651c.194-.423.243-.75.421-.852.155-.089.61.017.656.141.081.213.03.597-.123.74-.128.12-.482-.002-.954-.029Z" fill="#fff"/>
                <path d="M89.816,248.181c-.204.428-.26.777-.436.853-.193.084-.495-.082-.75-.14.067-.252.059-.599.223-.728.152-.119.487-.006.963.015Z" fill="#fff"/>
                <path d="M114.864,225.984c.155-.339.213-.686.356-.726.209-.058.479.104.723.172-.084.241-.104.559-.273.698-.112.093-.434-.068-.806-.145Z" fill="#fff"/>
                <path d="M123.06,234.247c-.351-.192-.695-.272-.734-.427-.051-.207.136-.473.22-.714.218.093.535.132.625.296.09.163-.048.452-.112.845Z" fill="#fff"/>
                <path d="M96.134,241.654c.342.136.656.169.706.303.073.192-.046.456-.083.69-.224-.07-.512-.082-.65-.231-.098-.106.005-.399.027-.761Z" fill="#fff"/>
                <path d="M101.647,240.328c.329.138.586.174.7.32.07.09-.047.485-.136.506-.186.044-.459-.013-.6-.138-.085-.076.01-.355.036-.689Z" fill="#fff"/>
              </g>
            </g>
          </g>
        </g>
        <g>
          <g clip-path="url(#d)">
            <g>
              <path d="M165.374,287.934s34.221-45.725,21.958-50.076c-12.263-4.351-60.934,37.883-60.934,37.883l38.976,12.193Z" fill="#fff"/>
              <path d="M156.551,299.123s34.221-45.725,21.958-50.076c-12.263-4.351-60.934,37.883-60.934,37.883l38.976,12.193Z" fill="#9bc8ec"/>
              <g>
                <path d="M189.172,275.054c-1.44.728-2.827-.223-3.135-1.176-.368-1.137.161-2.373,1.244-2.795,1.141-.444,2.407.109,2.861,1.254.073.184.116.38.184.567.578,1.576.501,1.721-1.154,2.15Z" fill="#fff"/>
                <path d="M192.258,240.589c.313,1.04-.263,2.131-1.305,2.47-1.095.357-2.218-.237-2.52-1.334-.285-1.034.328-2.139,1.36-2.452,1.029-.311,2.155.29,2.465,1.316Z" fill="#fff"/>
                <path d="M173.669,255.509c.257.874-.161,1.551-1.152,1.869-.954.306-1.95-.197-2.223-1.124-.265-.9.261-1.832,1.183-2.097.966-.278,1.878.285,2.192,1.352Z" fill="#fff"/>
                <path d="M166.299,265.385c-.245-.905.252-1.789,1.135-2.02.875-.229,1.766.298,2.007,1.186.261.961-.234,1.911-1.114,2.141-.886.231-1.766-.336-2.028-1.307Z" fill="#fff"/>
                <path d="M190.064,261.372c.259.87-.234,1.807-1.091,2.073-.869.27-1.793-.227-2.052-1.105-.263-.892.212-1.787,1.093-2.061.889-.276,1.784.201,2.05,1.093Z" fill="#fff"/>
                <path d="M176.553,283.989c.218.835-.319,1.706-1.176,1.907-.816.191-1.638-.293-1.87-1.101-.246-.854.242-1.705,1.111-1.935.85-.226,1.713.278,1.935,1.129Z" fill="#fff"/>
                <path d="M182.992,234.884c.828-.211,1.628.254,1.862,1.082.243.863-.249,1.71-1.121,1.925-.825.204-1.642-.27-1.87-1.084-.24-.86.253-1.7,1.129-1.924Z" fill="#fff"/>
                <path d="M170.192,276.87c-.203-.783.224-1.549.956-1.715.759-.172,1.595.328,1.791,1.069.202.763-.222,1.488-.989,1.695-.793.214-1.547-.237-1.758-1.05Z" fill="#fff"/>
                <path d="M199.743,242.488c.061.222.148.441.18.668.098.699-.197,1.18-.895,1.301-.708.123-1.134-.266-1.276-.938-.075-.351-.035-.726-.099-1.08-.119-.652.063-1.141.734-1.293.685-.155,1.044.244,1.199.873.04.16.087.318.131.477.009-.002.018-.005.027-.007Z" fill="#fff"/>
                <path d="M162.892,251.318c-.228-.748.171-1.546.88-1.757.717-.214,1.585.28,1.803,1.025.205.702-.264,1.531-.972,1.718-.727.192-1.484-.244-1.71-.986Z" fill="#fff"/>
                <path d="M209.731,265.716c.823-.261,1.563.047,1.812.753.233.664-.176,1.45-.873,1.677-.701.228-2.004-.472-2.196-1.178-.151-.558.214-.922,1.257-1.251Z" fill="#fff"/>
                <path d="M203.422,274.621c-.187-.748.277-1.513,1.05-1.663.808-.157,1.373.181,1.626.962.243.75-.206,1.496-.977,1.696-.765.199-1.51-.238-1.699-.995Z" fill="#fff"/>
                <path d="M211.033,253.516c.167.722-.337,1.504-1.079,1.678-.756.177-1.428-.236-1.595-.979-.169-.754.303-1.515,1.045-1.684.704-.161,1.471.303,1.629.985Z" fill="#fff"/>
                <path d="M191.662,249.233c.695-.193,1.464.223,1.672.905.218.716-.253,1.508-1.005,1.691-.711.173-1.454-.264-1.631-.959-.175-.689.269-1.443.964-1.636Z" fill="#fff"/>
                <path d="M196.971,266.211c-.633.089-1.159-.164-1.381-.878-.203-.654.233-1.426.887-1.555.72-.142,1.241.172,1.476.861.217.638-.239,1.384-.982,1.572Z" fill="#fff"/>
                <path d="M177.278,243.073c-.418-.328-.998-.574-1.215-1.004-.324-.64.1-1.178.751-1.379.671-.207,1.3.094,1.399.751.07.465-.303.997-.478,1.499l-.457.132Z" fill="#fff"/>
                <path d="M178.752,262.742c.683.447,1.183.636,1.419.998.094.143-.321.847-.638.981-.56.238-1.074-.066-1.15-.72-.034-.29.167-.608.368-1.259Z" fill="#fff"/>
                <path d="M172.422,251.435c.449-.525.662-.998.946-1.045.301-.049.668.307,1.006.486-.19.332-.311.833-.591.949-.267.11-.7-.18-1.361-.39Z" fill="#fff"/>
                <path d="M183.578,247.387c-.412.489-.605.925-.869.974-.277.051-.623-.268-.939-.426.181-.332.288-.799.566-.951.205-.112.635.189,1.241.403Z" fill="#fff"/>
                <path d="M202.145,236.997c-.442.518-.648.971-.902.999-.283.032-.729-.26-.871-.532-.084-.16.228-.723.465-.803.272-.092.656.149,1.309.336Z" fill="#fff"/>
                <path d="M195.957,251.868c.485.437.916.645.947.902.034.278-.305.602-.481.906-.306-.18-.764-.296-.872-.558-.098-.238.186-.632.406-1.251Z" fill="#fff"/>
                <path d="M199.083,257.682c.457.362.867.529.908.763.044.247-.213.725-.432.791-.22.066-.696-.188-.799-.419-.096-.216.149-.584.322-1.135Z" fill="#fff"/>
                <path d="M170.473,243.967c.449.373.829.539.895.787.057.216-.22.733-.385.749-.285.028-.733-.158-.857-.39-.103-.194.16-.583.347-1.146Z" fill="#fff"/>
                <path d="M174.638,240.42c-.452-.386-.856-.569-.891-.806-.039-.261.261-.573.414-.863.283.163.706.267.809.508.095.223-.152.592-.332,1.162Z" fill="#fff"/>
                <path d="M193.359,278.004c.36.299.761.482.763.668.002.272-.282.546-.444.82-.265-.18-.643-.309-.757-.558-.076-.166.224-.504.438-.93Z" fill="#fff"/>
                <path d="M180.675,285.238c.347-.363.556-.754.757-.749.268.005.529.318.793.499-.184.233-.334.605-.562.661-.227.056-.532-.205-.988-.411Z" fill="#fff"/>
                <path d="M180.485,250.202c-.276.37-.419.739-.597.757-.256.026-.538-.205-.809-.326.158-.248.266-.593.492-.712.161-.085.482.136.914.281Z" fill="#fff"/>
                <path d="M180.292,257.314c-.275.354-.402.654-.616.744-.132.055-.572-.215-.569-.33.007-.24.166-.552.363-.682.119-.079.427.128.822.268Z" fill="#fff"/>
              </g>
            </g>
            <g filter="url(#e)">
              <g>
                <path d="M-179.52,139.577H101.418c16.662,0,31.862-9.509,39.151-24.492h0c7.289-14.983,22.489-24.492,39.151-24.492h49.165s-13.848,193.34-148.99,193.34h-229.463l-29.953-144.356Z" fill="#ffd66e"/>
                <g mix-blend-mode="multiply" opacity=".5">
                  <g clip-path="url(#g)">
                    <g>
                      <line x1="-168.142" y1="156.483" x2="194.626" y2="156.483" fill="none" stroke="#a384bb" stroke-linecap="round" stroke-linejoin="round" stroke-width="1.674"/>
                      <line x1="-162.094" y1="173.217" x2="210.309" y2="173.217" fill="none" stroke="#a384bb" stroke-linecap="round" stroke-linejoin="round" stroke-width="1.674"/>
                      <line x1="-156.046" y1="189.952" x2="202.695" y2="189.952" fill="none" stroke="#a384bb" stroke-linecap="round" stroke-linejoin="round" stroke-width="1.674"/>
                      <line x1="-165.576" y1="206.687" x2="183.396" y2="206.687" fill="none" stroke="#a384bb" stroke-linecap="round" stroke-linejoin="round" stroke-width="1.674"/>
                      <line x1="-153.762" y1="223.422" x2="187.236" y2="223.422" fill="none" stroke="#a384bb" stroke-linecap="round" stroke-linejoin="round" stroke-width="1.674"/>
                      <line x1="-149.997" y1="240.156" x2="179.474" y2="240.156" fill="none" stroke="#a384bb" stroke-linecap="round" stroke-linejoin="round" stroke-width="1.674"/>
                      <line x1="-155.647" y1="256.891" x2="143.508" y2="256.891" fill="none" stroke="#a384bb" stroke-linecap="round" stroke-linejoin="round" stroke-width="1.674"/>
                      <line x1="-149.997" y1="273.626" x2="128.28" y2="273.626" fill="none" stroke="#a384bb" stroke-linecap="round" stroke-linejoin="round" stroke-width="1.674"/>
                      <line x1="217.685" y1="139.748" x2="146.196" y2="139.748" fill="none" stroke="#a384bb" stroke-linecap="round" stroke-linejoin="round" stroke-width="1.674"/>
                      <line x1="136.929" y1="123.013" x2="211.727" y2="123.013" fill="none" stroke="#a384bb" stroke-linecap="round" stroke-linejoin="round" stroke-width="1.674"/>
                      <line x1="158.773" y1="106.278" x2="223.642" y2="106.278" fill="none" stroke="#a384bb" stroke-linecap="round" stroke-linejoin="round" stroke-width="1.674"/>
                    </g>
                  </g>
                </g>
                <path d="M85.263,283.933s88.171,6.918,121.723-103.882c0,0-255.411,27.83-372.453,32.251l15.899,71.63H85.263Z" fill="#a384bb" mix-blend-mode="multiply" opacity=".25"/>
                <path d="M79.354,283.933c162.161-2.242,154.218-208.104,154.218-208.104h-13.609s1.694,198.581-140.609,208.104Z" fill="#f4af13"/>
                <path d="M-179.52,139.577H102.379c16.193,0,30.881-9.496,37.528-24.261h0c6.647-14.766,21.335-24.261,37.528-24.261h48.192" fill="none" stroke="#f4af13" stroke-miterlimit="10" stroke-width="13.393"/>
                <g>
                  <circle cx="188.633" cy="115.373" r="14.105" fill="#e86170"/>
                  <circle cx="188.633" cy="115.373" r="8.034" fill="#42496f"/>
                </g>
              </g>
            </g>
          </g>
          <g>
            <path d="M141.764,285.031s-26.278-72.013-49.633-55.604c-6.606,4.641,10.725,41.593,10.725,41.593,0,0-23.07-11.206-24.913-1.581s-10.717,17.118-28.464,13.569c-17.747-3.549,50.086,21.519,51.664,11.45,1.578-10.069,22.417,9.522,27.083,4.656,4.665-4.866-3.42-19.157,13.539-14.082Z" fill="#9bc8ec"/>
            <path d="M132.343,274.61c.844-15.577-23.145-57.455-40.212-45.183-11.236,8.079,7.916,31.889,10.725,41.593-14.255-8.23-30.916-9.191-35.376-4.596-4.46,4.595,8.224,6.548,4.733,10.725s-36.26,4.262-36.26,4.262c0,0,37.567,13.289,48.206,8.628,6.703-2.937-4.071-12.495,1.871-14.574,14.85-5.196,28.259,21.663,39.61,18.775,6.726-1.711-9.727-23.319-5.386-25.107,4.341-1.787,12.09,5.477,12.09,5.477Z" fill="#fff"/>
            <g>
              <g>
                <path d="M35.6,275.121c.98.549.97,1.72.539,2.27-.514.654-1.434.829-2.099.367-.7-.487-.873-1.433-.387-2.141.078-.114.175-.215.256-.327.686-.947.8-.959,1.692-.169Z" fill="#fff"/>
                <path d="M14.479,286.733c.479-.585,1.334-.676,1.935-.206.632.495.725,1.374.208,1.975-.487.567-1.364.642-1.946.167-.58-.474-.67-1.359-.198-1.936Z" fill="#fff"/>
                <path d="M30.328,291.679c.405-.488.959-.51,1.528-.061.548.433.644,1.204.215,1.722-.417.503-1.161.561-1.672.132-.536-.45-.565-1.197-.07-1.792Z" fill="#fff"/>
                <path d="M38.901,292.101c-.428.493-1.132.55-1.609.129-.472-.417-.514-1.136-.094-1.621.454-.524,1.195-.608,1.671-.188.478.422.492,1.151.033,1.68Z" fill="#fff"/>
                <path d="M27.345,279.924c.402-.488,1.135-.567,1.622-.175.494.398.566,1.125.159,1.616-.413.498-1.116.572-1.617.169-.505-.406-.577-1.11-.165-1.61Z" fill="#fff"/>
                <path d="M45.669,278.942c.398-.451,1.11-.479,1.559-.061.427.397.467,1.061.091,1.509-.398.474-1.079.522-1.55.11-.461-.404-.505-1.098-.1-1.558Z" fill="#fff"/>
                <path d="M14.782,294.307c-.444-.397-.486-1.04-.098-1.497.404-.476,1.085-.52,1.548-.1.439.398.482,1.054.1,1.502-.404.473-1.081.515-1.551.095Z" fill="#fff"/>
                <path d="M44.027,285.386c-.374.422-.982.473-1.363.114-.394-.372-.431-1.05-.078-1.451.363-.413.946-.45,1.364-.087.432.375.465.986.076,1.425Z" fill="#fff"/>
                <path d="M12.667,281.668c.105-.122.198-.257.316-.363.366-.328.758-.345,1.1.012.347.362.287.759-.046,1.103-.174.18-.406.302-.586.477-.331.322-.684.407-1.033.078-.356-.336-.265-.698.038-1.033.077-.085.15-.174.225-.261-.005-.004-.01-.008-.015-.013Z" fill="#fff"/>
                <path d="M32.095,299.537c-.344.423-.96.502-1.357.174-.402-.332-.454-1.025-.108-1.44.326-.391.988-.442,1.371-.106.394.346.436.953.095,1.372Z" fill="#fff"/>
                <path d="M22.211,266.867c-.471-.375-.581-.922-.269-1.34.293-.393.907-.462,1.309-.147.404.317.507,1.342.172,1.727-.264.304-.616.234-1.212-.24Z" fill="#fff"/>
                <path d="M29.811,267.052c-.36.399-.982.428-1.37.04-.405-.406-.429-.864-.076-1.314.339-.432.945-.462,1.36-.094.412.365.45.965.085,1.369Z" fill="#fff"/>
                <path d="M14.653,270.855c.352-.377,1-.39,1.389-.028.396.368.419.917.054,1.303-.37.391-.993.413-1.38.05-.367-.345-.396-.968-.063-1.324Z" fill="#fff"/>
                <path d="M19.707,283.718c-.382-.326-.44-.933-.127-1.318.329-.404.97-.44,1.368-.076.376.344.413.943.079,1.316-.33.369-.939.405-1.321.079Z" fill="#fff"/>
                <path d="M27.457,274.05c.297.332.356.734.029,1.139-.299.371-.915.42-1.243.092-.362-.361-.383-.785-.076-1.188.285-.374.893-.4,1.29-.043Z" fill="#fff"/>
                <path d="M21.737,294.427c-.027.369.056.8-.108,1.092-.244.436-.72.4-1.089.102-.381-.308-.451-.788-.11-1.101.241-.221.694-.212,1.053-.306l.254.213Z" fill="#fff"/>
                <path d="M32.533,285.93c-.007-.569-.092-.931.025-1.208.046-.11.614-.144.815-.013.355.231.379.646.031.945-.155.132-.416.14-.871.276Z" fill="#fff"/>
                <path d="M28.458,293.984c-.478-.055-.835.005-.972-.141-.145-.155-.082-.506-.11-.771.266-.019.603-.144.778-.027.168.112.168.475.304.938Z" fill="#fff"/>
                <path d="M21.782,289.108c.443.048.77-.01.901.124.137.14.087.464.119.708-.262.025-.574.144-.77.042-.144-.075-.138-.441-.249-.874Z" fill="#fff"/>
                <path d="M8.559,282.414c.471.054.813-.003.928.133.128.151.133.522.031.711-.06.111-.507.149-.645.044-.159-.121-.169-.437-.314-.887Z" fill="#fff"/>
                <path d="M19.561,280.211c.064-.45.017-.78.153-.898.148-.128.467-.058.711-.074.015.247.126.557.017.721-.099.149-.438.138-.881.252Z" fill="#fff"/>
                <path d="M21.706,276.144c.032-.404-.031-.707.088-.821.126-.121.502-.159.625-.058.124.101.162.475.068.624-.087.14-.395.141-.781.255Z" fill="#fff"/>
                <path d="M24.899,298.013c.041-.405-.011-.688.107-.823.103-.117.509-.158.583-.069.127.154.194.485.107.647-.072.135-.399.134-.798.245Z" fill="#fff"/>
                <path d="M21.229,296.984c-.048.411.004.716-.12.829-.136.124-.433.072-.66.096-.016-.227-.12-.512-.021-.665.092-.142.401-.142.8-.26Z" fill="#fff"/>
                <path d="M35.678,271.554c.033-.324-.017-.627.09-.701.156-.107.425-.049.646-.062,0,.223.071.492-.028.654-.067.108-.378.067-.708.108Z" fill="#fff"/>
                <path d="M44.79,276.074c-.345-.059-.652-.029-.727-.146-.101-.157-.021-.429-.019-.652.207.016.48-.042.601.068.12.109.088.387.146.731Z" fill="#fff"/>
                <path d="M24.611,289.802c.321.016.59-.045.67.051.114.138.091.39.126.594-.205.005-.446.077-.603-.008-.111-.06-.109-.331-.192-.637Z" fill="#fff"/>
                <path d="M28.797,287.149c.311.021.534-.022.67.067.083.055.098.415.03.457-.142.089-.384.119-.535.055-.092-.039-.092-.297-.165-.58Z" fill="#fff"/>
              </g>
              <g>
                <path d="M94.901,274.854c.3,2.202-1.562,3.58-2.943,3.553-1.646-.033-3.018-1.278-3.079-2.877-.065-1.685,1.225-3.085,2.921-3.162.273-.012.548.02.821.015,2.312-.044,2.466.122,2.281,2.471Z" fill="#fff"/>
                <path d="M51.411,255.325c1.495.06,2.656,1.301,2.629,2.811-.029,1.587-1.307,2.781-2.871,2.681-1.475-.094-2.638-1.39-2.58-2.874.058-1.48,1.348-2.676,2.822-2.617Z" fill="#fff"/>
                <path d="M62.473,286.245c1.253.059,1.947.908,1.915,2.341-.031,1.38-1.135,2.451-2.463,2.389-1.291-.06-2.269-1.165-2.199-2.484.073-1.383,1.217-2.318,2.747-2.246Z" fill="#fff"/>
                <path d="M72.016,300.287c-1.289-.089-2.216-1.133-2.119-2.387.096-1.242,1.183-2.165,2.448-2.079,1.368.093,2.383,1.164,2.286,2.414-.097,1.257-1.232,2.148-2.615,2.053Z" fill="#fff"/>
                <path d="M77.486,267.536c1.249.054,2.247,1.118,2.208,2.354-.039,1.254-1.103,2.233-2.362,2.175-1.279-.059-2.232-1.081-2.192-2.352.04-1.282,1.065-2.233,2.346-2.177Z" fill="#fff"/>
                <path d="M100.856,295.308c1.186.092,2.078,1.183,1.953,2.389-.119,1.148-1.119,2.001-2.275,1.94-1.223-.064-2.11-1.083-2.02-2.317.089-1.209,1.133-2.106,2.341-2.012Z" fill="#fff"/>
                <path d="M39.811,264.822c.098-1.174,1.063-2.006,2.247-1.937,1.233.071,2.114,1.094,2.002,2.325-.106,1.166-1.09,2.017-2.253,1.947-1.228-.074-2.1-1.094-1.997-2.336Z" fill="#fff"/>
                <path d="M88.723,300.387c-1.112-.088-1.916-.988-1.802-2.017.118-1.066,1.145-1.93,2.199-1.851,1.084.081,1.838.958,1.762,2.051-.079,1.129-1.005,1.908-2.159,1.817Z" fill="#fff"/>
                <path d="M57.253,246.432c.317.02.641.006.95.067.954.187,1.448.787,1.292,1.752-.159.978-.857,1.357-1.796,1.24-.491-.061-.961-.281-1.452-.357-.902-.139-1.458-.595-1.353-1.538.106-.961.787-1.249,1.676-1.169.226.02.454.03.681.044,0-.013.002-.026.002-.039Z" fill="#fff"/>
                <path d="M52.166,298.392c-1.077-.04-1.936-.919-1.892-1.936.045-1.03,1.078-1.938,2.146-1.886,1.006.049,1.874,1.033,1.799,2.039-.077,1.033-.985,1.822-2.053,1.783Z" fill="#fff"/>
                <path d="M91.995,243.881c.031-1.189.765-2.015,1.796-2.02.969-.005,1.809.882,1.79,1.892-.019,1.015-1.516,2.398-2.522,2.329-.794-.055-1.103-.694-1.064-2.2Z" fill="#fff"/>
                <path d="M100.751,256.105c-1.058-.093-1.845-1.042-1.693-2.116.159-1.122.854-1.707,1.984-1.685,1.085.021,1.855.941,1.769,2.036-.085,1.085-.989,1.859-2.06,1.765Z" fill="#fff"/>
                <path d="M76.695,236.694c1.015.108,1.807,1.115,1.699,2.16-.11,1.064-.95,1.754-1.993,1.636-1.058-.119-1.836-1.076-1.722-2.119.108-.989,1.057-1.779,2.016-1.677Z" fill="#fff"/>
                <path d="M62.399,259.991c.061-.992.95-1.806,1.931-1.769,1.03.038,1.849,1.008,1.749,2.069-.095,1.004-.998,1.775-1.983,1.692-.976-.082-1.758-1-1.697-1.992Z" fill="#fff"/>
                <path d="M86.896,260.719c-.17.864-.735,1.436-1.765,1.403-.943-.031-1.752-.945-1.626-1.854.139-1.002.783-1.539,1.786-1.534.929.004,1.694.934,1.605,1.986Z" fill="#fff"/>
                <path d="M47.904,275.949c-.615.396-1.197,1.041-1.854,1.13-.979.134-1.489-.661-1.457-1.599.033-.967.707-1.65,1.608-1.484.637.118,1.162.844,1.737,1.298l-.034.654Z" fill="#fff"/>
                <path d="M74.179,282.882c.89-.688,1.361-1.254,1.938-1.399.229-.058.958.799.991,1.272.058.836-.569,1.368-1.455,1.173-.393-.086-.716-.491-1.473-1.046Z" fill="#fff"/>
                <path d="M56.606,286.036c-.481-.82-1.002-1.312-.935-1.702.071-.414.701-.732,1.086-1.092.347.398.945.78.969,1.197.023.398-.55.831-1.121,1.597Z" fill="#fff"/>
                <path d="M56.357,269.687c.451.757.932,1.204.877,1.57-.058.384-.63.69-.977,1.03-.351-.385-.911-.734-.983-1.166-.053-.318.532-.742,1.084-1.435Z" fill="#fff"/>
                <path d="M51.184,240.833c.475.809.972,1.281.895,1.624-.086.383-.666.832-1.085.895-.246.037-.838-.623-.837-.967.002-.395.489-.787,1.027-1.553Z" fill="#fff"/>
                <path d="M67.764,255.585c.787-.434,1.252-.902,1.601-.827.378.081.647.668.964,1.035-.372.317-.73.862-1.118.884-.353.02-.739-.527-1.446-1.092Z" fill="#fff"/>
                <path d="M76.741,254.13c.676-.432,1.08-.891,1.402-.839.341.054.848.603.835.918-.013.316-.558.821-.905.851-.324.029-.693-.457-1.332-.93Z" fill="#fff"/>
                <path d="M46.006,285.212c.688-.417,1.074-.837,1.428-.811.307.023.855.616.802.839-.092.383-.535.884-.893.94-.299.047-.688-.47-1.337-.968Z" fill="#fff"/>
                <path d="M43.26,278.191c-.706.414-1.126.859-1.451.798-.358-.067-.629-.598-.937-.928.34-.295.666-.799,1.025-.825.333-.024.702.464,1.363.955Z" fill="#fff"/>
                <path d="M100.627,270.73c.551-.335.97-.774,1.213-.693.355.119.584.613.867.948-.354.264-.691.698-1.067.734-.251.024-.556-.518-1.013-.989Z" fill="#fff"/>
                <path d="M104.338,290.503c-.316-.615-.731-1.063-.635-1.323.128-.346.653-.545,1.007-.807.221.345.638.708.608,1.03-.029.32-.507.6-.98,1.101Z" fill="#fff"/>
                <path d="M58.63,274.982c.357.526.774.878.717,1.118-.082.345-.509.608-.788.906-.252-.318-.653-.613-.706-.961-.038-.247.393-.566.778-1.063Z" fill="#fff"/>
                <path d="M67.804,278.433c.337.517.67.817.691,1.137.013.197-.538.648-.686.592-.309-.118-.644-.464-.724-.779-.049-.191.359-.498.719-.95Z" fill="#fff"/>
              </g>
              <g>
                <path d="M113.461,229.818c.858.957.414,2.222-.256,2.657-.799.519-1.86.368-2.409-.378-.578-.786-.415-1.875.372-2.462.127-.095.269-.168.398-.259,1.093-.772,1.221-.742,1.894.443Z" fill="#fff"/>
                <path d="M86.296,234.585c.735-.457,1.694-.239,2.171.493.502.769.277,1.756-.504,2.216-.737.434-1.714.191-2.169-.539-.453-.727-.223-1.719.502-2.169Z" fill="#fff"/>
                <path d="M101.63,245.8c.619-.379,1.227-.198,1.677.499.433.671.252,1.542-.404,1.944-.638.39-1.464.179-1.859-.476-.414-.686-.17-1.505.586-1.967Z" fill="#fff"/>
                <path d="M110.759,249.426c-.646.376-1.429.177-1.79-.455-.357-.626-.137-1.421.497-1.79.685-.4,1.519-.216,1.879.414.362.634.107,1.429-.586,1.832Z" fill="#fff"/>
                <path d="M102.746,231.967c.616-.38,1.439-.194,1.822.41.388.613.197,1.427-.425,1.808-.632.387-1.42.207-1.813-.414-.397-.627-.215-1.415.417-1.804Z" fill="#fff"/>
                <path d="M122.952,237.679c.598-.341,1.379-.108,1.711.51.316.588.114,1.321-.46,1.668-.606.366-1.362.167-1.719-.454-.35-.608-.141-1.376.468-1.724Z" fill="#fff"/>
                <path d="M83.824,242.898c-.334-.594-.142-1.305.447-1.657.614-.366,1.367-.162,1.714.464.328.593.133,1.32-.447,1.664-.612.363-1.361.158-1.714-.47Z" fill="#fff"/>
                <path d="M118.792,244.05c-.561.319-1.238.149-1.518-.381-.289-.549-.078-1.296.452-1.6.546-.313,1.191-.138,1.51.41.329.566.138,1.24-.444,1.571Z" fill="#fff"/>
                <path d="M86.206,228.43c.158-.093.309-.205.477-.277.518-.22.949-.093,1.187.42.242.52.03.928-.458,1.177-.255.13-.552.177-.811.3-.477.227-.891.188-1.147-.297-.261-.495-.029-.854.423-1.104.115-.064.227-.133.34-.2-.004-.006-.008-.013-.011-.019Z" fill="#fff"/>
                <path d="M100.638,254.963c-.528.331-1.225.188-1.534-.313-.313-.508-.113-1.278.415-1.6.498-.303,1.233-.114,1.523.392.299.52.12,1.193-.404,1.52Z" fill="#fff"/>
                <path d="M102.014,215.93c-.371-.58-.288-1.213.204-1.55.462-.317,1.153-.165,1.471.325.321.492.052,1.64-.452,1.934-.398.232-.754.026-1.224-.708Z" fill="#fff"/>
                <path d="M110.175,218.94c-.537.299-1.222.1-1.498-.463-.288-.589-.145-1.095.403-1.451.527-.342,1.194-.152,1.508.401.311.547.13,1.211-.414,1.514Z" fill="#fff"/>
                <path d="M92.355,217.455c.521-.278,1.227-.053,1.515.483.293.545.115,1.148-.423,1.43-.545.286-1.229.08-1.512-.456-.27-.509-.071-1.195.421-1.458Z" fill="#fff"/>
                <path d="M93.072,233.252c-.293-.495-.131-1.173.35-1.474.506-.316,1.213-.118,1.509.423.281.512.098,1.174-.4,1.454-.494.278-1.166.092-1.459-.403Z" fill="#fff"/>
                <path d="M105.039,225.648c.199.469.114.926-.39,1.245-.461.291-1.146.116-1.38-.36-.259-.525-.124-.991.357-1.314.446-.299,1.115-.103,1.413.43Z" fill="#fff"/>
                <path d="M91.312,245.6c-.166.389-.235.887-.521,1.143-.426.382-.928.167-1.217-.293-.298-.474-.197-1.02.288-1.232.343-.151.83.027,1.253.058l.196.324Z" fill="#fff"/>
                <path d="M106.144,240.389c.203-.619.245-1.042.474-1.299.091-.102.718.072.887.287.299.381.172.84-.316,1.034-.216.086-.502-.003-1.045-.022Z" fill="#fff"/>
                <path d="M98.753,247.604c-.497-.237-.906-.303-1-.511-.1-.221.098-.578.166-.875.295.078.706.067.853.258.14.183.006.576-.018,1.128Z" fill="#fff"/>
                <path d="M93.327,239.857c.462.216.837.274.93.467.097.202-.078.535-.133.811-.293-.07-.675-.056-.849-.239-.129-.135.014-.528.053-1.039Z" fill="#fff"/>
                <path d="M81.482,227.719c.49.233.882.298.956.487.083.211-.049.615-.229.781-.106.098-.604-.026-.714-.191-.127-.19-.021-.536-.013-1.077Z" fill="#fff"/>
                <path d="M94.21,229.401c.236-.463.307-.838.498-.916.207-.084.527.11.797.183-.075.272-.07.65-.248.787-.163.124-.525-.012-1.047-.053Z" fill="#fff"/>
                <path d="M98.037,225.79c.184-.426.228-.777.399-.857.181-.085.602.014.698.168.096.155,0,.574-.157.701-.146.119-.48.007-.94-.013Z" fill="#fff"/>
                <path d="M93.41,250.651c.194-.423.243-.75.421-.852.155-.089.61.017.656.141.081.213.03.597-.123.74-.128.12-.482-.002-.954-.029Z" fill="#fff"/>
                <path d="M89.816,248.181c-.204.428-.26.777-.436.853-.193.084-.495-.082-.75-.14.067-.252.059-.599.223-.728.152-.119.487-.006.963.015Z" fill="#fff"/>
                <path d="M114.864,225.984c.155-.339.213-.686.356-.726.209-.058.479.104.723.172-.084.241-.104.559-.273.698-.112.093-.434-.068-.806-.145Z" fill="#fff"/>
                <path d="M123.06,234.247c-.351-.192-.695-.272-.734-.427-.051-.207.136-.473.22-.714.218.093.535.132.625.296.09.163-.048.452-.112.845Z" fill="#fff"/>
                <path d="M96.134,241.654c.342.136.656.169.706.303.073.192-.046.456-.083.69-.224-.07-.512-.082-.65-.231-.098-.106.005-.399.027-.761Z" fill="#fff"/>
                <path d="M101.647,240.328c.329.138.586.174.7.32.07.09-.047.485-.136.506-.186.044-.459-.013-.6-.138-.085-.076.01-.355.036-.689Z" fill="#fff"/>
              </g>
            </g>
          </g>
        </g>
      </g>
    </g>
  </g>
</svg>