<?xml version="1.0" encoding="UTF-8"?>
<svg xmlns="http://www.w3.org/2000/svg" width="300" height="300" xmlns:xlink="http://www.w3.org/1999/xlink" viewBox="0 0 300 300">
  <defs>
    <clipPath id="b">
      <path d="M126.772,270.147c-.714.568-1.284,1.023-1.977,1.575-.003-.058.007.152.018.393-3.196-.319-3.327-2.383-.098-2.884,1.266-.458,1.292-1.73,1.796-3.082-1.457.556-2.442.47-3.814.697.252.876.893.851,1.45,1.442-.481.508-1.165.591-1.771.508-.164-1.022-1.028-2.49.117-3.246,1.081-.446-.186-1.686-.567-2.013-.576.277-1.111.961-.617,1.595.308.467.508.864-.116,1.321-1.184,3.272-3.027-.469-4.858-1.096.043-.188.129-.569.249-1.096-1.736,1.039-.908-3.182-2.925-.821-1.624-1.05-2.16-4.844-4.273-4.346-.195.121-.721-.087-.862-.323-.793-2.584-3.2-3.697-4.05-6.08-.648-1.513-1.976-2.377-3.113-3.449-.105-.152-.742-.109-.861.057-.955,1.197-2.936.12-3.038-1.301-.305-.566-1.47-1.131-1.391-1.989-.993-1.138.043-1.066.753-1.648-.713-.298-.871-.891-.862-1.733.182-.805-1.666-2.151-.396-2.576,1.456-.278.308-1.173.293-2.22-.995,1.425-2.019,2.272-3.674,2.052-.749.61-1.209.199-1.709-.265-1.289-1.414-3.222.461-4.368,1.389.096-3.759-4.685.9-6.54,1.179-.045-1.293-1.546-2.313-2.535-1.037-2.249-.607-2.976-3.952-4.684-5.586-.354-1.535-2.399-1.151-2.496-2.62-.174-1.629-2.3-1.873-2.288-3.673-1.441-.59-1.123-2.543-2.161-3.441-1.784-2.289-6.496-5.151-5.755-8.104.894-.917,0-1.194-.607-1.76-.469-1.012-1.005-.044-1.776-.239,1.881-2.059-1.466-2.334,1.303-5.969.307-.896-.85-.648-1.11-.104-.689,1.234-1.677,1.063-2.634.934-.512-.549-.059-1.924-1.332-1.664-.087-.365-.174-.73-.265-1.114-1.241.3-1.93,1.597-.515,2.208-1.318,1.253-3.583,4.501-4.84,1.678-1.488.342-1.344-2.237-2.996-.947-.081-.699-.146-1.267-.22-1.908-.179.118-.405.268-.633.418-.357-.743-.386-1.794-1.555-1.625-.128-.956-.256-1.902-.401-2.984-.273.4-.459.674-.57.836-1.739-.398-2.103-2.224-3.029-3.533-.095.013-.19.027-.285.04-.063.335-.127.67-.19,1.006-.1-.005-.2-.01-.301-.014.267-3.392-2.866-4.422-3.859-7.278.268-1.007.296-1.422-.313-2.239-.385.414-.736.792-1.218,1.311-.78-.576-.39-2-1.553-1.698-.335-1.357-.028-2.349.869-3.26-.982-1.094,1.552-3.478-.432-3.648-.108.467-.211.908-.313,1.349h-.215c.026-1.112.053-2.223.084-3.524,2.431,1.178,2.282-2.245,2.499-3.943-.967.712-1.639,2.005-2.82,1.039.176.3.352.6.614,1.048-.519.131-.969.245-1.271.321-.347-1.909.465-3.139,1.711-4.501.127.086.294.199.395.268,2.901-4.637,5.805-9.825,10.004-13.792-1.101-.897-1.671-2.744-.22-3.567.661.055,1.365.339,1.709.081.63-.781,1.133-1.841-.331-2.352-.007-1.37,1.816-2.873.508-4.08-.762-.851-.499-2.634-1.967-2.737-1.541-.467-2.351.923-3.668,1.337-1.282-.241-1.534,1.02-2.196,1.866-.778-.443-1.737-.572-2.254-1.223-.354-1.428-1.427-.995-2.579-1.251.279-.295.512-.541.756-.799-1.61-.454-1.243,1.18-.684,1.971-.347.287-.659.544-1.161.959-.146-.998.719-2.27-.491-2.696-2.003-.024-2.094-3.775-4.13-2.353.013-.316.026-.622.039-.933-1.119-.022-1.15-.978-1.739-1.663-2.298-1.886-1.623-1.258-2.3-3.981-.202.134-.39.26-.632.421-.647-.984-1.563-1.132-1.856-2.568-1.328-2.881-5.346-3.058-7.079-5.386-.585.083-1.041.148-1.601.228,1.383-2.045.167-3.317.285-5.289.802-1.974,1.602-3.943,2.4-5.907l.357.032c-.084.989-.167,1.98-.27,3.197.814-.916.531-1.853.959-2.706.183.12.335.22.487.32.067-.034.134-.067.201-.101.024-1.515-1.858-.945-.615-2.467,8.097-15.249,14.395-31.292,23.079-46.174.452-.861.735-1.603,1.645-.565,1.744.56,1.811-2.35,3.56-2.194.431-.026.743-1.269.438-1.892-.072.32-.123.543-.188.83-.996.023-1.962.045-2.946.068.288-2.054,2.598-2.155,4.1-1.523,1.683-2.489,2.304-6.224,5.744-6.788-.14-.172-.266-.327-.539-.662,2.52-.59,4.58,2.546,6.67,1.905.44-.39.743-.297.818.309-.216.079-.43.157-.716.261,4.26,1.531,8.617,5.253,12.519,6.025.919,2.415,2.378-.584,3.433-1.49.519-.833,1.393-.071,2.021-.601,8.953-9.038,16.928-19.513,26.772-26.991.548-.009,1.596.235,1.946.822,1.848,1.277,2.466-3.795,6.841,1.161.667,1.147,2.425-.463,2.708,1.046.282,1.139,1.689,1.087,2.207,2.067,1.786,1.081,2.565,3.146,4.737,3.803.689.392.8.85,1.497-.017.118,1.414.309,1.516,1.399.76.079.407.154.792.229,1.178l1.123-.477c-.465,6.943,24.591-23.986,27.83-25.766,1.614.353-.188,1.261.697,2.163.504.143.961-.691,1.338-.89,1.676-.328-.022,1.919,1.229,2.224.722.181.831,1.901,1.677.962.181.363.422.654.47.981.121.87,1.498.81,1.687.114.111-.926-.632-2.356.922-2.128.695.044.417,1.093.954,1.37-.252.402-.445.71-.638,1.018.435.124.871.249,1.436.41-.455,1.116-.409,1.297.704,1.757.236,1.007,1.231,1.468,1.973,2.04.853.704,1.654,2.045,3.013,1.97-.367,1.39,1.423.545,2.121.967-1.036.973-.927,1.293.14,1.928-.026.064-.052.129-.078.193-.473-.052-.945-.105-1.599-.177.27.731,1.157.622.746,1.475-.068.73,1.223.916,1.837.424-.165.316-.264.505-.399.765.57-.039.209,1.014.965.708.422-.171.76-.545,1.101-.949-1.081.652-1.342-.397-.403-.954,1.362.035,2.055-.861,2.827-1.742,1.164-1.315,2.162-2.092,3.896-1.315.42.365.792.737,1.358.086,1.024.926,2.01,1.817,2.997,2.709.08-.067.161-.134.241-.2-.201-.332-.402-.663-.707-1.165,1.923,1.296,3.917-1.03,5.357.406.242,1.625,1.152,2.489,2.362,3.451,1.077.962.459,2.642,1.638,3.51.591.438.42,1.541,1.363.95,1.136-.803,2.064,1.302,1.41,2.168.424.081.745.143,1.018.195-.349.427-.657.804-.966,1.18.601.262-.509,1.372.736,1.339.079-.234.163-.483.242-.715.997.668,2.299,1.187,1.222,2.566.322.045.606.085.957.133-.052.234-.096.434-.112.508.399.361.738.669,1.123,1.017-.197.249-.374.474-.652.826.998-.259,1.849-.481,2.782-.723.017.314.026.498.036.679,2.534.548.472,4.428.011,6.054.081.056.162.112.243.169,1.616-1.377,2.453-3.491,3.878-5.066.083.048.165.097.248.145-.384.974-.893,1.909-1.079,2.947,1.031-.032,1.49-.808,2.019-1.568,3.259,2.237,14.631-18.5,13.479-7.991.094.03.189.059.283.089,1.094-2.144,4.509-2.623,4.519.402-.096.89.735.556,1.293.499.593-.139.81.106.812.662-.08,1.962,4.51.524,3.973,3.236,2.144-.457,1.241,2.226,2.864,2.406.605-.004,1.21.372,1.837.587-.225.485-.433.934-.678,1.461,5.02.996,1.101.777,3.501,2.933,4.404,2.295.161,6.216-.403,9.674.089.041.178.082.266.123-.185.117-.369.233-.605.382.059.154.126.329.196.511-1.449.027-.687,1.274-1.387,2.138-.349.477-.522.808.079,1.218.73.849.617,2.264.918,3.296-.073-.059-.231-.188-.271-.221-.656,1.441.088,2.991-1.8,3.481-.204.757-.278,1.634-1.183,2.076-.315-.334-.584-.62-.852-.905-.137-.009-.274-.017-.41-.026.293,2.122-.855,3.447-1.799,5.239,1.242.98,3,.811,3.902,1.869.136.202.265.614.366.604,1.437-.079,1.729,1.318,2.679,1.994.643-.661,1.245-1.281,1.864-1.918.26.187.466.335.672.483.052-.03.105-.061.157-.091l-.428-.924c1.562-3.164,1.703.665,2.812-1.18.475.196-.208,1.169.688.926.129-.035.115-.591.193-1.067,1.148-.008,1.437,1.548,2.789.384.073.773.039,1.143.215,1.756,1.685-.842,3.335-2.183,4.895-3.547,1.023-1.326,1.915-1.908,3.486-.744-.475.142-.748.223-1.02.305-.005.067-.011.135-.016.202.378.068.756.137,1.195.217.034-.181.063-.334.1-.528,1.723.228.025,1.229,1.078,1.799.134-.204.256-.391.296-.453,1.868.37,1.023-1.643.979-2.751l.204-.01c1.293,1.101,1.019,3.405,2.372,4.092.478.042.83.144,1.165.502,1.443.824.727-1.53,1.45-1.887.825-.061,1.284.754,1.73,1.415-.65,1.95,2.239,2.847,3.33,4.16-1.55-.417-2.332-.086-.804,1.442.229-.349.361-.551.594-.905.361.657.506,1.139,1.073,1.535.326-.601.054-1.047-.141-1.632.68.197,1.275.399.869,1.299.351,2.153,4.294-.792,3.39,2.185.898-.303,3.057.317,1.793,1.39-.131.095-.137.605-.006.756.169.194.628.381.795.285.865-.523,1.285.614,1.879,1.035,1.081,1.873-1.129,3.834-.969,5.528,1.202.529-.36,2.016-1.067.878-.308.414-.488.762.194.862,1.616,1.818-2.468,6.466-3.68,8.628.365-.107.59-.173.909-.267.159.618,1.012,1.706-.01,1.987-.745.554-.263,1.555-.229,2.5.289.015,1.168-.414,1.404-.381.598.516,1.12.261,1.637-.051.559-.337.696-.053.782.465.801,2.367,1.179,4.776,2.081,7.035.296,1.29.714,3.393,2.176,3.714.357.969,1.887,1.054,1.624,2.511,2.597-.272,2.122,3.134,2.166,4.769,2.929,1.423-1.903,4.927-2.06,7.046-1.368,1.049-1.719,3.218-2.761,3.844-.552.332.13,1.785-.94,1.65-.796.839-1.221,1.956-2.062,3.186,3.359.425,6.449.815,9.532,1.205.032,1.666.885.365,1.742,1.274-.463.32-.798.55-1.11.766,1.152,1.211,1.958,3.802.022,4.516-1.213-.421-.742.496-.819,1.117.542-.177.997-.326,1.52-.497.973,1.168-1.798,1.906-.43,3.306.013,5.671-9.282,6.554-2.154,13.149-.601.93.805,1.579.35,2.49-.864,1.241-.557,2.496,1.028,2.77.031-.119.095-.368.163-.633,1.014.619,2.481,4.084,2.35,5.432.203-.031.46-.071.716-.111-.01.096-.021.192-.031.288-.183.196-.365.393-.548.59.022.092.044.183.066.275.393-.066.786-.133,1.324-.224-.604.681-.237,2.147-1.186,2.219-.146-.009-.301.289-.452.446.707.611,1.519-.008,2.306-.16.039.066.079.131.118.197-3.126,4.171-9.064,6.455-10.856,11.429-.128,1.576-.41.812-1.467,1.079.511.307,1.427.88.622,1.38-.764.446.062,1.168-.253,1.875-.087.003-.174.006-.261.009-.122-.197-.243-.393-.517-.836-2.745,9.891-14.735,10.7-21.933,16.161-4.721,4.006-9.465,8.241-14.742,11.416-1.032,1.679-4.844,4.864-6.137,2.157.234-.101.458-.199.914-.396-.521-.325-.863-.539-1.347-.841.147,1.114-.969,3.195-.613,1.098-1.212-.582-.148-1.97-.78-3.19-.401.884-.706,1.557-1.011,2.231-1.428-.731-.155-3.632-1.829-3.831-.673,1.024-1.157.594-1.616-.31-.299.539-.537.97-.797,1.437-3.272-3.432-9.814,6.669-13.382,6.068-1.938.182-3.462,3.741-5.535,2.824-8.971-2.229-27.887,23.203-33.172,18.759.277-.119.533-.228,1.027-.44-.491-.356-.823-.597-1.214-.881-1.253,2.454-1.359-.662-1.252-1.807-.098-.031-.197-.062-.295-.093-.366.652-.732,1.305-1.092,1.947-1.624-.22.047-4.78-1.789-3.836-.899,1.306-.917.067-1.661-.321-.179.432-.346.837-.504,1.219-2.082-1.718-4.408.854-6.83.32-.817.38-2.702,1.194-2.44-.602.711-.752,1.476-3.949-.374-3.102-.693-1.096-.614-1.406.383-1.632-.13-1.436-.512-1.982-1.573-.714.167-2.383-1.748-3.383-1.153-5.508.157-.534-.429-1.418-.268-1.963.769-1.473-.333-2.133-.906-3.004-1.931-.74-2.614-2.2-3.516-4.067-.659.517-1.34,1.051-2.08,1.631.027-.286.049-.514.074-.772-2.134.455-.86,2.028-2.308,3.424-.48-2.06,1.266-3.471,1.159-5.483-7.491,8.85-14.265,20.34-21.905,27.933ZM281.647,165.413c.861.91-.177,1.368.871,1.808.243-.854,1.473-1.293.613-2.462l-.624.31-.413-.196c.221-.269.443-.537.662-.803-1.404-1.639-1.201.322-1.109,1.344ZM33.541,183.748c-.44.598-.881,1.197-1.321,1.794.416.232.892.496,1.372.764.972-1.015.967-1.809-.051-2.558ZM282.421,173.251c-.222-.095-.444-.189-.666-.284.342-.493.685-.986.992-1.43-.25-.17-.55-.375-.848-.578q-.56.478.02,1.052c-.282.189-.563.377-.843.564-.009.121-.018.242-.026.363.457.104.914.208,1.372.313ZM280.446,162.308c-.318.619-.555,1.08-.89,1.733,1.061-.275,2.309-1.141.89-1.733ZM230.913,89.214c-.07.023-.14.046-.21.069-.088.634-.176,1.268-.273,1.965l.902-.413c-.137-.532-.278-1.077-.419-1.622ZM179.677,43.765c-.848.503-.866.792-.101,1.425.035-.491.064-.905.101-1.425ZM38.809,78.717c.649.155,1.027.174,1.063-.485-.428-.544-.687.017-1.063.485ZM31.936,191.013c-.467.934-.379,1.117.477,1.239-.178-.463-.328-.851-.477-1.239ZM281.27,169.697c.154.012.308.025.462.037.005-.409.011-.818.016-1.226-.12-.01-.24-.02-.36-.03-.039.406-.079.812-.118,1.218ZM76.359,239.142c-.032.385-.064.77-.106,1.275.927-.494.838-.89.106-1.275Z" fill="none"/>
    </clipPath>
    <linearGradient id="c" data-name="Dégradé sans nom 13" x1="148.843" y1="67.007" x2="148.843" y2="252.017" gradientUnits="userSpaceOnUse">
      <stop offset="0" stop-color="#ffd66e"/>
      <stop offset="1" stop-color="#e86170"/>
    </linearGradient>
    <clipPath id="d">
      <path d="M-369.217-127.425v399.52c5.842,1.082,12.281,1.686,19.056,1.686,15.69,0,29.585-3.224,38.378-8.19.426-.018.851-.038,1.277-.056,4.737,4.999,12.253,8.246,20.744,8.246s16.013-3.251,20.75-8.253c6.045,5.002,15.64,8.253,26.481,8.253,8.933,0,17.024-2.207,22.984-5.78,6.96,3.573,16.41,5.78,26.843,5.78,8.991,0,17.245-1.647,23.815-4.384,1.617,2.737,3.647,4.384,5.859,4.384,2.179,0,4.181-1.601,5.785-4.265,6.522,2.664,14.659,4.265,23.517,4.265,11.583,0,21.949-2.722,29.041-7.014,6.073,4.292,14.948,7.014,24.866,7.014,9.201,0,17.522-2.334,23.526-6.097,7.012,3.763,16.73,6.097,27.476,6.097.475,0,.924-.052,1.393-.063.953.024,1.896.063,2.863.063,15.69,0,29.585-3.224,38.378-8.19.426-.018.851-.038,1.277-.056,4.737,4.999,12.253,8.246,20.744,8.246s16.013-3.251,20.75-8.253c6.045,5.002,15.64,8.253,26.481,8.253,8.933,0,17.024-2.207,22.984-5.78,6.96,3.573,16.41,5.78,26.843,5.78,8.991,0,17.245-1.647,23.815-4.384,1.617,2.737,3.647,4.384,5.859,4.384,2.179,0,4.181-1.601,5.785-4.265,6.522,2.664,14.659,4.265,23.517,4.265,11.583,0,21.949-2.722,29.041-7.014,6.073,4.292,14.948,7.014,24.866,7.014,9.201,0,17.522-2.334,23.526-6.097,7.012,3.763,16.73,6.097,27.476,6.097,1.923,0,3.792-.111,5.638-.257V-127.425H-369.217Z" fill="none"/>
    </clipPath>
    <filter id="e" data-name="drop-shadow-3" x="-327.591" y="85.747" width="535.596" height="228.727" filterUnits="userSpaceOnUse">
      <feOffset dx="-4" dy="0"/>
      <feGaussianBlur result="f" stdDeviation="0"/>
      <feFlood flood-color="#42496f" flood-opacity="1"/>
      <feComposite in2="f" operator="in"/>
      <feComposite in="SourceGraphic"/>
    </filter>
    <clipPath id="g">
      <path d="M-199.605,116.078H134.52c36.331,0,65.827,29.496,65.827,65.827v103.756h-465.779v-103.756c0-36.331,29.496-65.827,65.827-65.827Z" fill="none"/>
    </clipPath>
  </defs>
  <g isolation="isolate">
    <g id="a" data-name="bateau 03">
      <g clip-path="url(#b)">
        <rect x="5.286" y="7.067" width="287.116" height="269.478" fill="url(#c)"/>
        <path d="M228.4,226.699c-5.218-1.852-16.295,3.793-28.053,11.529v-56.323c0-19.969-8.904-37.847-22.944-49.92v-42.469h5.41c1.041,0,1.884-.844,1.884-1.884s-.844-1.884-1.884-1.884H-247.898c-1.041,0-1.884.844-1.884,1.884s.844,1.884,1.884,1.884h5.41v42.47c-14.04,12.072-22.944,29.951-22.944,49.919v103.756H161.804l31.95,9.995s4.043-5.404,9.039-12.872l.891.279s38.517-51.465,24.715-56.363ZM-202.858,116.16c-5.558.271-10.934,1.233-16.047,2.799v-29.443h16.047v26.644ZM-199.089,89.516h16.047v26.562h-16.047v-26.562ZM-179.274,89.516h16.047v26.562h-16.047v-26.562ZM-159.458,89.516h16.047v26.562h-16.047v-26.562ZM-139.643,89.516h16.047v26.562h-16.047v-26.562ZM-119.828,89.516h16.047v26.562h-16.047v-26.562ZM-100.012,89.516h16.047v26.562h-16.047v-26.562ZM-80.197,89.516h16.047v26.562h-16.047v-26.562ZM-60.381,89.516h16.047v26.562h-16.047v-26.562ZM-40.566,89.516h16.047v26.562h-16.047v-26.562ZM-20.75,89.516H-4.704v26.562h-16.047v-26.562ZM-.935,89.516H15.112v26.562H-.935v-26.562ZM18.88,89.516h16.047v26.562h-16.047v-26.562ZM38.696,89.516h16.047v26.562h-16.047v-26.562ZM58.511,89.516h16.046v26.562h-16.046v-26.562ZM78.326,89.516h16.047v26.562h-16.047v-26.562ZM98.142,89.516h16.047v26.562h-16.047v-26.562ZM117.957,89.516h16.047v26.562h-16.047v-26.562ZM137.772,89.516h16.047v29.443c-5.113-1.566-10.488-2.529-16.047-2.799v-26.644ZM173.635,128.963c-4.877-3.609-10.269-6.557-16.047-8.72v-30.727h16.047v39.447ZM-238.72,89.516h16.047v30.727c-5.778,2.163-11.17,5.111-16.047,8.72v-39.447Z" fill="none" stroke="#fff" stroke-linecap="round" stroke-linejoin="round" stroke-width="20"/>
        <g>
          <g clip-path="url(#d)">
            <g>
              <path d="M203.685,283.062s38.517-51.465,24.715-56.363c-13.803-4.898-68.584,42.64-68.584,42.64l43.869,13.723Z" fill="#fff"/>
              <path d="M193.755,295.656s38.517-51.465,24.715-56.363c-13.803-4.898-68.584,42.64-68.584,42.64l43.869,13.723Z" fill="#9bc8ec"/>
              <g>
                <g>
                  <path d="M221.928,216.869c1.148.827.968,2.291.35,2.916-.737.745-1.913.833-2.678.16-.806-.709-.887-1.918-.179-2.734.114-.131.249-.244.367-.372.993-1.086,1.138-1.085,2.141.031Z" fill="#fff"/>
                  <path d="M193.845,228.38c.683-.664,1.765-.655,2.45.019.72.709.71,1.823-.021,2.501-.69.639-1.798.608-2.458-.069-.658-.675-.644-1.796.029-2.45Z" fill="#fff"/>
                  <path d="M212.967,236.832c.577-.553,1.273-.501,1.92.142.624.62.634,1.598.022,2.184-.594.569-1.532.536-2.111-.074-.606-.64-.536-1.578.168-2.253Z" fill="#fff"/>
                  <path d="M223.633,238.584c-.606.556-1.495.526-2.031-.069-.531-.589-.481-1.495.113-2.042.643-.591,1.582-.589,2.117.003.538.596.451,1.511-.199,2.107Z" fill="#fff"/>
                  <path d="M210.914,221.698c.573-.553,1.501-.547,2.055.013.561.568.547,1.488-.032,2.044-.588.565-1.478.556-2.047-.019-.574-.581-.563-1.471.024-2.037Z" fill="#fff"/>
                  <path d="M233.98,223.088c.562-.507,1.457-.44,1.959.146.478.558.433,1.394-.102,1.901-.566.536-1.425.499-1.955-.084-.519-.571-.475-1.446.098-1.963Z" fill="#fff"/>
                  <path d="M193.142,237.899c-.499-.56-.46-1.37.091-1.887.574-.538,1.432-.496,1.951.095.492.56.453,1.388-.089,1.893-.573.534-1.426.49-1.954-.102Z" fill="#fff"/>
                  <path d="M231.005,230.916c-.528.475-1.296.451-1.721-.052-.44-.522-.389-1.375.11-1.827.513-.465,1.248-.428,1.719.086.487.531.44,1.3-.108,1.793Z" fill="#fff"/>
                  <path d="M192.301,221.785c.148-.138.284-.293.448-.409.505-.358.998-.323,1.375.172.382.502.25.99-.215,1.373-.243.2-.551.32-.801.514-.46.356-.914.412-1.303-.05-.397-.471-.232-.911.195-1.286.109-.095.213-.196.319-.295-.006-.006-.011-.012-.017-.018Z" fill="#fff"/>
                  <path d="M214.055,246.916c-.49.48-1.273.491-1.723.024-.456-.472-.422-1.347.07-1.817.464-.443,1.299-.412,1.73.063.443.489.409,1.254-.077,1.73Z" fill="#fff"/>
                  <path d="M206.357,204.63c-.535-.536-.595-1.236-.145-1.715.423-.45,1.2-.448,1.658.003.46.454.442,1.751-.031,2.185-.373.343-.804.205-1.482-.474Z" fill="#fff"/>
                  <path d="M215.838,205.948c-.507.447-1.29.395-1.719-.146-.448-.565-.413-1.143.092-1.655.486-.492,1.248-.444,1.715.076.464.515.425,1.272-.089,1.725Z" fill="#fff"/>
                  <path d="M196.331,208.541c.495-.421,1.307-.345,1.742.163.443.517.393,1.207-.119,1.637-.519.436-1.302.375-1.733-.134-.409-.484-.358-1.268.11-1.666Z" fill="#fff"/>
                  <path d="M200.816,225.355c-.431-.463-.417-1.23.03-1.667.469-.459,1.276-.412,1.722.1.422.484.382,1.239-.089,1.657-.466.414-1.232.373-1.663-.09Z" fill="#fff"/>
                  <path d="M211.893,214.366c.325.457.341.969-.126,1.43-.428.422-1.204.395-1.569-.063-.401-.504-.367-1.036.075-1.497.409-.427,1.174-.373,1.62.13Z" fill="#fff"/>
                  <path d="M201.827,239.043c-.087.458-.044,1.009-.291,1.351-.368.511-.958.398-1.377-.028-.432-.439-.452-1.05.02-1.393.334-.243.899-.167,1.361-.233l.287.303Z" fill="#fff"/>
                  <path d="M216.548,229.954c.072-.713.018-1.178.204-1.508.074-.131.789-.092,1.021.1.411.34.382.863-.096,1.186-.212.144-.541.115-1.129.222Z" fill="#fff"/>
                  <path d="M210.298,239.448c-.59-.138-1.045-.113-1.196-.315-.16-.214-.031-.644-.028-.98.336.014.775-.094.977.077.194.164.142.618.246,1.217Z" fill="#fff"/>
                  <path d="M202.643,232.395c.547.124.964.097,1.109.283.152.195.042.593.047.903-.331-.007-.739.099-.969-.057-.17-.115-.11-.571-.187-1.129Z" fill="#fff"/>
                  <path d="M187.056,222.131c.582.135,1.018.113,1.142.299.139.207.092.672-.063.893-.091.13-.655.114-.813-.038-.181-.174-.149-.571-.267-1.155Z" fill="#fff"/>
                  <path d="M201.135,220.946c.144-.554.133-.974.32-1.102.203-.139.592-.006.9.009-.016.311.078.715-.082.904-.145.172-.567.11-1.138.189Z" fill="#fff"/>
                  <path d="M204.399,216.165c.097-.502.062-.889.227-1.015.175-.134.65-.127.79.017.14.144.134.618-.004.791-.129.162-.515.12-1.014.207Z" fill="#fff"/>
                  <path d="M205.27,243.98c.109-.501.085-.863.252-1.015.145-.132.659-.125.739-.003.137.21.173.635.042.824-.11.159-.519.111-1.033.193Z" fill="#fff"/>
                  <path d="M200.826,242.169c-.119.508-.097.896-.268,1.02-.188.136-.552.028-.839.026.013-.287-.077-.658.069-.835.135-.164.522-.121,1.038-.211Z" fill="#fff"/>
                  <path d="M222.535,212.418c.087-.401.068-.787.212-.864.211-.112.539,0,.818.015-.033.279.019.625-.129.814-.099.126-.483.029-.901.034Z" fill="#fff"/>
                  <path d="M233.289,219.374c-.423-.124-.811-.129-.889-.287-.104-.211.035-.54.069-.819.256.049.606.016.742.171.135.154.055.497.079.935Z" fill="#fff"/>
                  <path d="M206.083,233.667c.399.066.745.028.83.159.123.189.058.501.073.761-.257-.023-.569.033-.753-.096-.131-.091-.089-.43-.15-.825Z" fill="#fff"/>
                  <path d="M211.699,230.946c.386.071.671.049.828.18.096.081.063.533-.028.576-.19.091-.497.094-.677-.007-.109-.061-.072-.384-.123-.749Z" fill="#fff"/>
                </g>
                <g>
                  <path d="M217.441,256.411c-.974-.568-.944-1.742-.503-2.286.527-.648,1.453-.808,2.112-.334.694.5.852,1.453.353,2.155-.08.113-.179.213-.262.324-.704.938-.818.948-1.7.141Z" fill="#fff"/>
                  <path d="M238.824,245.112c-.49.579-1.349.656-1.945.174-.626-.507-.704-1.391-.176-1.985.498-.56,1.379-.621,1.955-.135.574.485.65,1.374.166,1.945Z" fill="#fff"/>
                  <path d="M223.006,239.887c-.415.483-.971.496-1.534.035-.542-.443-.626-1.219-.187-1.731.427-.497,1.174-.544,1.68-.104.53.461.547,1.21.041,1.799Z" fill="#fff"/>
                  <path d="M214.412,239.321c.438-.488,1.145-.533,1.616-.103.467.426.497,1.149.068,1.628-.464.518-1.209.59-1.679.161-.472-.431-.475-1.163-.005-1.686Z" fill="#fff"/>
                  <path d="M225.803,251.73c-.412.483-1.148.55-1.63.149-.489-.407-.549-1.138-.133-1.624.423-.493,1.129-.555,1.625-.143.5.416.56,1.123.139,1.618Z" fill="#fff"/>
                  <path d="M207.403,252.409c-.407.445-1.122.462-1.565.036-.422-.406-.451-1.072-.066-1.515.407-.469,1.092-.506,1.557-.085.456.413.489,1.11.074,1.564Z" fill="#fff"/>
                  <path d="M238.645,237.509c.439.405.47,1.051.073,1.503-.413.471-1.097.504-1.555.075-.433-.406-.466-1.066-.076-1.509.413-.468,1.093-.498,1.557-.07Z" fill="#fff"/>
                  <path d="M209.158,245.972c.382-.417.993-.458,1.369-.091.389.38.415,1.06.054,1.457-.371.409-.957.436-1.37.065-.427-.384-.45-.997-.053-1.43Z" fill="#fff"/>
                  <path d="M240.557,250.224c-.107.121-.203.255-.323.359-.373.323-.767.334-1.104-.03-.342-.369-.275-.766.065-1.105.178-.177.412-.296.596-.469.337-.318.693-.397,1.037-.061.351.343.254.705-.056,1.035-.079.084-.153.172-.23.258.005.004.01.009.015.013Z" fill="#fff"/>
                  <path d="M221.364,231.974c.352-.418.972-.488,1.365-.152.398.339.439,1.036.085,1.447-.334.387-.998.427-1.377.083-.389-.353-.421-.963-.072-1.378Z" fill="#fff"/>
                  <path d="M230.735,264.914c.466.384.567.935.248,1.349-.3.389-.917.448-1.315.126-.4-.324-.486-1.355-.144-1.735.27-.301.622-.225,1.212.261Z" fill="#fff"/>
                  <path d="M223.114,264.601c.368-.394.993-.413,1.375-.017.399.414.416.874.054,1.319-.347.427-.955.448-1.366.072-.407-.373-.435-.976-.063-1.375Z" fill="#fff"/>
                  <path d="M238.384,261.038c-.36.372-1.01.375-1.394.005-.391-.376-.405-.927-.032-1.308.378-.386,1.003-.398,1.385-.027.362.352.382.978.042,1.33Z" fill="#fff"/>
                  <path d="M233.529,248.05c.378.334.426.943.105,1.324-.337.4-.98.425-1.373.054-.372-.351-.398-.953-.058-1.321.337-.365.949-.391,1.326-.057Z" fill="#fff"/>
                  <path d="M225.593,257.621c-.293-.338-.345-.742-.01-1.144.307-.368.925-.406,1.249-.071.357.368.371.794.056,1.193-.292.37-.902.386-1.295.022Z" fill="#fff"/>
                  <path d="M231.67,237.273c.034-.37-.043-.803.126-1.094.252-.433.729-.389,1.094-.084.377.315.439.798.092,1.106-.246.218-.7.202-1.061.29l-.251-.218Z" fill="#fff"/>
                  <path d="M220.697,245.618c-.002.571.077.936-.045,1.212-.048.109-.619.134-.818,0-.352-.238-.37-.655-.015-.948.157-.13.42-.133.878-.263Z" fill="#fff"/>
                  <path d="M224.92,237.606c.478.064.837.009.972.157.143.158.074.509.098.775-.267.015-.607.134-.781.014-.166-.115-.161-.479-.289-.946Z" fill="#fff"/>
                  <path d="M231.536,242.608c-.444-.056-.772-.003-.902-.139-.135-.143-.079-.467-.107-.712.263-.02.578-.135.773-.03.144.078.131.444.236.881Z" fill="#fff"/>
                  <path d="M244.691,249.544c-.472-.062-.816-.011-.929-.149-.126-.154-.125-.526-.019-.713.062-.11.511-.141.648-.033.157.124.162.441.301.895Z" fill="#fff"/>
                  <path d="M233.617,251.571c-.072.45-.03.782-.169.899-.15.126-.469.05-.714.063-.011-.248-.117-.561-.005-.723.102-.148.441-.131.888-.238Z" fill="#fff"/>
                  <path d="M231.397,255.615c-.038.405.019.71-.102.823-.128.12-.506.151-.628.048-.122-.104-.154-.48-.058-.628.09-.139.399-.135.788-.243Z" fill="#fff"/>
                  <path d="M228.558,233.623c-.048.405,0,.691-.121.824-.105.116-.513.15-.586.059-.125-.156-.186-.49-.097-.651.075-.134.403-.128.804-.233Z" fill="#fff"/>
                  <path d="M232.222,234.716c.055-.412.008-.718.134-.829.138-.122.436-.065.664-.085.012.228.112.516.01.668-.094.141-.405.136-.807.247Z" fill="#fff"/>
                  <path d="M217.304,259.988c-.038.325.007.629-.102.701-.158.105-.428.042-.65.051.005-.224-.063-.494.039-.656.069-.108.381-.061.712-.097Z" fill="#fff"/>
                  <path d="M208.237,255.301c.345.065.653.039.727.159.099.159.014.431.009.655-.207-.019-.482.034-.602-.078-.119-.112-.082-.39-.134-.735Z" fill="#fff"/>
                  <path d="M228.71,241.865c-.322-.021-.593.035-.671-.062-.112-.14-.084-.393-.116-.598.206-.002.449-.07.605.018.111.062.104.334.182.643Z" fill="#fff"/>
                  <path d="M224.466,244.457c-.312-.026-.536.013-.671-.079-.083-.056-.091-.418-.023-.459.144-.087.387-.113.538-.047.092.04.087.299.156.584Z" fill="#fff"/>
                </g>
              </g>
            </g>
            <g filter="url(#e)">
              <line x1="-247.898" y1="87.632" x2="182.813" y2="87.632" fill="none" stroke="#6498d1" stroke-linecap="round" stroke-linejoin="round" stroke-width="3.769"/>
              <g>
                <line x1="16.996" y1="140.148" x2="16.996" y2="87.632" fill="none" stroke="#6498d1" stroke-linecap="round" stroke-linejoin="round" stroke-width="3.769"/>
                <line x1="36.811" y1="140.148" x2="36.811" y2="87.632" fill="none" stroke="#6498d1" stroke-linecap="round" stroke-linejoin="round" stroke-width="3.769"/>
                <line x1="56.627" y1="140.148" x2="56.627" y2="87.632" fill="none" stroke="#6498d1" stroke-linecap="round" stroke-linejoin="round" stroke-width="3.769"/>
                <line x1="76.442" y1="140.148" x2="76.442" y2="87.632" fill="none" stroke="#6498d1" stroke-linecap="round" stroke-linejoin="round" stroke-width="3.769"/>
                <line x1="96.258" y1="140.148" x2="96.258" y2="87.632" fill="none" stroke="#6498d1" stroke-linecap="round" stroke-linejoin="round" stroke-width="3.769"/>
                <line x1="116.073" y1="140.148" x2="116.073" y2="87.632" fill="none" stroke="#6498d1" stroke-linecap="round" stroke-linejoin="round" stroke-width="3.769"/>
                <line x1="135.888" y1="140.148" x2="135.888" y2="87.632" fill="none" stroke="#6498d1" stroke-linecap="round" stroke-linejoin="round" stroke-width="3.769"/>
                <line x1="155.704" y1="140.148" x2="155.704" y2="87.632" fill="none" stroke="#6498d1" stroke-linecap="round" stroke-linejoin="round" stroke-width="3.769"/>
                <line x1="175.519" y1="140.148" x2="175.519" y2="87.632" fill="none" stroke="#6498d1" stroke-linecap="round" stroke-linejoin="round" stroke-width="3.769"/>
              </g>
              <path d="M-199.605,116.078H134.52c36.331,0,65.827,29.496,65.827,65.827v103.756h-465.779v-103.756c0-36.331,29.496-65.827,65.827-65.827Z" fill="#b1ddea"/>
              <g clip-path="url(#g)">
                <g mix-blend-mode="multiply" opacity=".5">
                  <line x1="-50.204" y1="157.169" x2="207.063" y2="157.169" fill="none" stroke="#a384bb" stroke-linecap="round" stroke-linejoin="round" stroke-width="1.884"/>
                  <line x1="66.667" y1="157.169" x2="66.667" y2="310.466" fill="none" stroke="#a384bb" stroke-linecap="round" stroke-linejoin="round" stroke-width="1.884"/>
                </g>
                <g mix-blend-mode="multiply" opacity=".25">
                  <g>
                    <line x1="56.411" y1="265.056" x2="56.411" y2="265.037" fill="none" stroke="#a384bb" stroke-linecap="round" stroke-linejoin="round" stroke-width="3.769"/>
                    <line x1="56.411" y1="254.098" x2="56.411" y2="171.764" fill="none" stroke="#a384bb" stroke-dasharray=".036 10.939" stroke-linecap="round" stroke-linejoin="round" stroke-width="3.769"/>
                    <line x1="56.411" y1="166.294" x2="56.411" y2="166.276" fill="none" stroke="#a384bb" stroke-linecap="round" stroke-linejoin="round" stroke-width="3.769"/>
                  </g>
                  <g>
                    <line x1="78.43" y1="265.056" x2="78.43" y2="265.037" fill="none" stroke="#a384bb" stroke-linecap="round" stroke-linejoin="round" stroke-width="3.769"/>
                    <line x1="78.43" y1="254.098" x2="78.43" y2="171.764" fill="none" stroke="#a384bb" stroke-dasharray=".036 10.939" stroke-linecap="round" stroke-linejoin="round" stroke-width="3.769"/>
                    <line x1="78.43" y1="166.294" x2="78.43" y2="166.276" fill="none" stroke="#a384bb" stroke-linecap="round" stroke-linejoin="round" stroke-width="3.769"/>
                  </g>
                </g>
                <g>
                  <circle cx="9.555" cy="196.871" r="20.516" fill="#6498d1"/>
                  <circle cx="9.555" cy="196.871" r="16.311" fill="#fff"/>
                  <path d="M9.555,182.038c-6.275,0-11.611,3.91-13.779,9.416,2.167,5.506,7.503,9.416,13.779,9.416s11.611-3.91,13.779-9.416c-2.167-5.506-7.503-9.416-13.779-9.416Z" fill="#9bc8ec" opacity=".25"/>
                </g>
                <g>
                  <circle cx="117.645" cy="196.871" r="20.516" fill="#6498d1"/>
                  <circle cx="117.645" cy="196.871" r="16.311" fill="#fff"/>
                  <path d="M117.645,182.038c-6.275,0-11.611,3.91-13.779,9.416,2.167,5.506,7.503,9.416,13.779,9.416s11.611-3.91,13.779-9.416c-2.167-5.506-7.503-9.416-13.779-9.416Z" fill="#9bc8ec" opacity=".25"/>
                </g>
                <path d="M194.539,292.751c-.839-.397-47.224-68.149-125.49-96.564-157.873-57.318-326.727,50.12-334.482,56.612v46.41l459.972-6.459Z" fill="#a384bb" mix-blend-mode="multiply" opacity=".25"/>
              </g>
            </g>
          </g>
          <g>
            <path d="M203.506,279.794s-29.578-81.054-55.864-62.586c-7.436,5.224,12.071,46.815,12.071,46.815,0,0-25.966-12.613-28.041-1.78s-12.063,19.267-32.038,15.272c-19.975-3.995,56.375,24.221,58.151,12.887,1.776-11.334,25.232,10.717,30.483,5.241,5.251-5.477-3.849-21.562,15.238-15.85Z" fill="#9bc8ec"/>
            <path d="M192.903,268.064c.95-17.532-26.051-64.669-45.261-50.856-12.646,9.093,8.91,35.893,12.071,46.815-16.045-9.264-34.798-10.345-39.817-5.173-5.02,5.172,9.256,7.37,5.327,12.071-3.929,4.701-40.813,4.797-40.813,4.797,0,0,42.284,14.957,54.258,9.711,7.544-3.306-4.582-14.064,2.106-16.404,16.714-5.849,31.807,24.382,44.583,21.133,7.57-1.926-10.949-26.247-6.063-28.259,4.886-2.012,13.608,6.165,13.608,6.165Z" fill="#fff"/>
            <g>
              <g>
                <path d="M96.946,283.802c-.058,2.535-2.402,3.753-3.953,3.475-1.848-.332-3.171-1.981-2.953-3.794.229-1.91,1.933-3.256,3.858-3.038.31.035.613.121.922.164,2.612.365,2.757.58,2.126,3.193Z" fill="#fff"/>
                <path d="M51.454,254c1.673.335,2.759,1.942,2.457,3.638-.317,1.783-1.971,2.898-3.715,2.505-1.644-.371-2.722-2.039-2.391-3.701.33-1.656,1.998-2.773,3.649-2.442Z" fill="#fff"/>
                <path d="M58.37,290.818c1.401.291,2.031,1.372,1.738,2.981-.283,1.55-1.718,2.557-3.204,2.249-1.443-.299-2.347-1.719-2.032-3.193.33-1.544,1.787-2.393,3.498-2.037Z" fill="#fff"/>
                <path d="M78.639,272.433c1.398.285,2.331,1.663,2.066,3.048-.269,1.406-1.643,2.318-3.051,2.027-1.431-.296-2.321-1.618-2.048-3.042.275-1.436,1.601-2.324,3.033-2.032Z" fill="#fff"/>
                <path d="M36.682,262.619c.321-1.305,1.557-2.069,2.879-1.779,1.376.302,2.185,1.612,1.838,2.979-.329,1.295-1.59,2.077-2.887,1.789-1.37-.304-2.17-1.61-1.831-2.989Z" fill="#fff"/>
                <path d="M59.63,245.029c.354.08.721.122,1.059.246,1.041.382,1.49,1.146,1.141,2.205-.354,1.073-1.209,1.375-2.246,1.075-.542-.157-1.032-.489-1.571-.662-.992-.318-1.535-.932-1.249-1.976.292-1.064,1.111-1.266,2.098-1.016.251.064.506.115.759.172.003-.014.006-.029.01-.043Z" fill="#fff"/>
                <path d="M44.579,302.654c-1.206-.238-2.016-1.383-1.784-2.52.235-1.153,1.562-1.99,2.756-1.74,1.124.236,1.926,1.5,1.661,2.62-.272,1.15-1.437,1.876-2.633,1.641Z" fill="#fff"/>
                <path d="M99.227,248.387c.249-1.334,1.223-2.133,2.385-1.954,1.093.168,1.88,1.318,1.678,2.452-.203,1.14-2.138,2.429-3.259,2.171-.885-.204-1.119-.98-.804-2.67Z" fill="#fff"/>
                <path d="M106.899,263.728c-1.175-.295-1.892-1.505-1.528-2.687.38-1.236,1.269-1.77,2.538-1.542,1.219.219,1.921,1.393,1.628,2.611-.291,1.207-1.448,1.917-2.637,1.619Z" fill="#fff"/>
                <path d="M83.28,237.545c1.124.304,1.836,1.58,1.527,2.739-.315,1.179-1.384,1.805-2.539,1.485-1.171-.324-1.875-1.542-1.56-2.696.299-1.095,1.51-1.815,2.572-1.528Z" fill="#fff"/>
                <path d="M62.996,261.228c.246-1.106,1.394-1.864,2.493-1.647,1.154.228,1.903,1.467,1.6,2.645-.287,1.114-1.443,1.821-2.538,1.551-1.085-.268-1.801-1.442-1.555-2.548Z" fill="#fff"/>
                <path d="M90.463,266.441c-.346.943-1.085,1.486-2.24,1.264-1.057-.204-1.804-1.379-1.499-2.381.337-1.104,1.159-1.593,2.287-1.408,1.046.172,1.741,1.356,1.452,2.525Z" fill="#fff"/>
                <path d="M43.803,276.606c-.764.336-1.535.958-2.291.941-1.127-.025-1.559-1.012-1.355-2.063.21-1.084,1.093-1.732,2.078-1.383.697.247,1.158,1.159,1.724,1.774l-.156.731Z" fill="#fff"/>
                <path d="M72.161,289.129c1.126-.616,1.758-1.168,2.434-1.229.268-.024.936,1.072.888,1.611-.085.952-.886,1.439-1.85,1.061-.427-.168-.719-.682-1.472-1.442Z" fill="#fff"/>
                <path d="M51.798,289.53c-.395-1.011-.894-1.658-.748-2.085.155-.454.92-.699,1.419-1.035.32.51.924,1.049.877,1.522-.045.452-.769.837-1.549,1.598Z" fill="#fff"/>
                <path d="M54.45,271.067c.373.934.834,1.523.707,1.926-.134.422-.833.665-1.286.986-.326-.496-.895-.991-.899-1.49-.003-.368.732-.741,1.478-1.422Z" fill="#fff"/>
                <path d="M53.797,237.632c.39.997.866,1.618.717,1.991-.165.416-.9.818-1.383.814-.284-.002-.833-.852-.769-1.239.073-.445.692-.799,1.435-1.565Z" fill="#fff"/>
                <path d="M69.83,257.226c.964-.348,1.573-.792,1.952-.645.411.159.609.869.9,1.338-.475.291-.977.84-1.419.796-.402-.04-.739-.726-1.434-1.489Z" fill="#fff"/>
                <path d="M80.204,257.197c.84-.365,1.376-.81,1.73-.694.375.122.847.832.776,1.184-.071.354-.776.825-1.172.797-.37-.026-.699-.639-1.334-1.287Z" fill="#fff"/>
                <path d="M40.003,286.7c.85-.347,1.361-.75,1.754-.657.342.081.853.847.753,1.089-.172.415-.762.899-1.175.899-.346,0-.69-.653-1.332-1.33Z" fill="#fff"/>
                <path d="M38.17,278.299c-.87.34-1.423.765-1.778.638-.391-.14-.601-.787-.89-1.213.436-.272.893-.781,1.303-.745.379.033.708.649,1.365,1.32Z" fill="#fff"/>
                <path d="M104.136,280.183c.681-.278,1.231-.698,1.491-.563.379.198.548.796.807,1.223-.446.235-.904.662-1.334.636-.287-.018-.533-.683-.964-1.296Z" fill="#fff"/>
                <path d="M56.06,277.44c.308.656.714,1.128.607,1.388-.154.374-.682.594-1.051.879-.227-.403-.625-.808-.623-1.21.002-.285.545-.567,1.067-1.058Z" fill="#fff"/>
                <path d="M65.777,282.974c.287.643.609,1.041.575,1.405-.021.224-.722.634-.879.544-.327-.188-.642-.639-.676-1.008-.021-.224.494-.497.981-.942Z" fill="#fff"/>
              </g>
              <g>
                <path d="M140.395,239.659c2.067.823,2.352,3.124,1.648,4.314-.839,1.418-2.599,2.002-4.024,1.268-1.501-.773-2.086-2.586-1.318-4.102.124-.244.287-.467.417-.708,1.1-2.037,1.32-2.09,3.277-.771Z" fill="#fff"/>
                <path d="M101.964,267.952c.788-1.273,2.442-1.674,3.744-.908,1.369.806,1.78,2.508.923,3.822-.808,1.239-2.51,1.615-3.775.834-1.261-.778-1.669-2.492-.892-3.748Z" fill="#fff"/>
                <path d="M134.359,273.531c.668-1.063,1.75-1.251,2.983-.517,1.188.707,1.577,2.195.869,3.323-.688,1.095-2.132,1.404-3.247.694-1.169-.744-1.421-2.202-.605-3.5Z" fill="#fff"/>
                <path d="M151.296,272.126c-.712,1.08-2.079,1.374-3.124.672-1.036-.695-1.305-2.097-.607-3.157.755-1.147,2.188-1.504,3.23-.804,1.048.704,1.266,2.131.502,3.29Z" fill="#fff"/>
                <path d="M125.443,251.236c.662-1.062,2.081-1.408,3.139-.766,1.073.652,1.403,2.061.733,3.13-.681,1.086-2.041,1.413-3.129.753-1.097-.666-1.422-2.028-.743-3.116Z" fill="#fff"/>
                <path d="M161.154,244.538c.664-.988,2.054-1.229,3.044-.526.942.668,1.193,1.96.571,2.938-.658,1.034-1.983,1.307-3.014.62-1.01-.673-1.278-2.024-.601-3.031Z" fill="#fff"/>
                <path d="M104.531,282.738c-.975-.663-1.225-1.914-.582-2.912.669-1.04,1.994-1.304,3.012-.6.964.666,1.222,1.943.588,2.922-.669,1.034-1.988,1.292-3.019.591Z" fill="#fff"/>
                <path d="M159.608,257.613c-.624.926-1.805,1.184-2.645.578-.871-.628-1.119-1.948-.531-2.828.604-.905,1.74-1.13,2.655-.526.945.624,1.169,1.815.521,2.776Z" fill="#fff"/>
                <path d="M97.089,258.482c.174-.267.321-.556.526-.796.633-.739,1.399-.875,2.163-.263.774.62.761,1.415.196,2.176-.295.398-.718.699-1.026,1.09-.565.718-1.236.977-2.007.422-.786-.566-.701-1.301-.194-2.037.129-.187.249-.381.374-.571-.011-.007-.022-.014-.032-.021Z" fill="#fff"/>
                <path d="M139.873,288.495c-.565.919-1.754,1.235-2.619.696-.876-.546-1.159-1.894-.587-2.799.538-.853,1.823-1.125,2.663-.565.863.576,1.103,1.756.543,2.668Z" fill="#fff"/>
                <path d="M111.968,226.945c-1.021-.613-1.38-1.658-.877-2.56.473-.847,1.66-1.142,2.53-.629.876.516,1.344,2.502.788,3.345-.439.665-1.148.62-2.441-.156Z" fill="#fff"/>
                <path d="M126.932,225.331c-.602.876-1.816,1.096-2.678.434-.9-.691-1.067-1.585-.491-2.559.553-.935,1.733-1.154,2.645-.54.904.609,1.134,1.777.524,2.664Z" fill="#fff"/>
                <path d="M98.171,236.742c.594-.831,1.861-1.026,2.719-.417.874.62,1.061,1.691.445,2.543-.625.863-1.842,1.07-2.695.458-.809-.581-1.03-1.797-.469-2.583Z" fill="#fff"/>
                <path d="M111.44,260.672c-.834-.541-1.107-1.717-.592-2.554.54-.879,1.789-1.116,2.664-.506.828.577,1.056,1.744.499,2.561-.552.81-1.737,1.04-2.571.499Z" fill="#fff"/>
                <path d="M124.133,239.678c.67.573.89,1.347.354,2.229-.491.807-1.686,1.062-2.416.504-.805-.615-.956-1.44-.458-2.312.461-.808,1.648-1.017,2.521-.421Z" fill="#fff"/>
                <path d="M118.213,281.162c.043.731.318,1.555.073,2.172-.366.919-1.309.973-2.111.483-.827-.505-1.09-1.429-.502-2.132.416-.497,1.307-.598,1.986-.875l.554.352Z" fill="#fff"/>
                <path d="M137.191,261.673c-.162-1.115-.423-1.803-.266-2.378.062-.228,1.168-.442,1.596-.237.757.361.913,1.169.306,1.846-.269.3-.781.383-1.637.769Z" fill="#fff"/>
                <path d="M131.289,278.542c-.952.016-1.637.228-1.944-.023-.326-.266-.293-.971-.417-1.484.517-.107,1.145-.439,1.52-.256.358.175.453.888.84,1.763Z" fill="#fff"/>
                <path d="M116.917,270.711c.882-.021,1.508-.22,1.8.008.306.239.292.889.417,1.359-.508.117-1.089.433-1.5.283-.303-.11-.385-.829-.717-1.651Z" fill="#fff"/>
                <path d="M89.22,261.016c.939-.016,1.595-.217,1.857.019.291.263.397.99.246,1.387-.089.233-.956.424-1.254.253-.343-.196-.446-.814-.848-1.659Z" fill="#fff"/>
                <path d="M110.24,253.827c.009-.9-.17-1.536.067-1.803.257-.289.901-.235,1.376-.331.094.48.392,1.06.22,1.41-.156.318-.823.385-1.664.723Z" fill="#fff"/>
                <path d="M113.391,245.286c-.043-.802-.245-1.379-.042-1.635.215-.271.943-.442,1.211-.276.269.167.441.891.297,1.208-.135.297-.739.38-1.467.703Z" fill="#fff"/>
                <path d="M125.352,287.376c-.025-.805-.201-1.348-.004-1.644.171-.257.958-.442,1.126-.286.289.269.507.902.379,1.241-.106.284-.748.368-1.501.689Z" fill="#fff"/>
                <path d="M117.882,286.313c.013.82.194,1.404-.019,1.658-.235.279-.831.253-1.27.36-.09-.442-.369-.974-.214-1.3.143-.302.75-.384,1.503-.718Z" fill="#fff"/>
                <path d="M139.619,232.638c-.02-.645-.198-1.226-.006-1.398.279-.251.822-.207,1.253-.289.056.439.268.946.115,1.291-.102.23-.725.229-1.361.397Z" fill="#fff"/>
                <path d="M158.68,239.137c-.692-.027-1.287.114-1.466-.098-.239-.281-.154-.837-.208-1.275.409-.023.931-.207,1.197-.023.265.183.273.737.477,1.396Z" fill="#fff"/>
                <path d="M122.65,271.337c.634-.052,1.146-.242,1.327-.074.26.241.28.743.402,1.133-.401.063-.856.267-1.186.142-.234-.089-.3-.622-.544-1.201Z" fill="#fff"/>
                <path d="M130.175,265.039c.616-.039,1.042-.182,1.332-.042.178.086.3.788.178.889-.255.212-.722.333-1.036.248-.19-.052-.257-.559-.474-1.095Z" fill="#fff"/>
              </g>
              <g>
                <path d="M170.165,228.404c.284,1.277-.74,2.177-1.551,2.229-.967.062-1.833-.601-1.948-1.536-.121-.985.566-1.87,1.557-1.998.159-.021.322-.015.482-.032,1.354-.14,1.452-.05,1.459,1.337Z" fill="#fff"/>
                <path d="M143.699,219.093c.88-.039,1.622.632,1.68,1.519.061.932-.63,1.695-1.552,1.713-.869.017-1.615-.685-1.655-1.559-.039-.87.659-1.636,1.526-1.674Z" fill="#fff"/>
                <path d="M151.708,236.681c.738-.027,1.187.436,1.238,1.279.05.811-.545,1.493-1.327,1.522-.76.028-1.388-.571-1.412-1.348-.025-.814.599-1.419,1.5-1.452Z" fill="#fff"/>
                <path d="M157.996,244.446c-.76.011-1.356-.555-1.36-1.296-.005-.733.587-1.328,1.333-1.34.807-.013,1.455.566,1.46,1.303.005.742-.617,1.32-1.432,1.333Z" fill="#fff"/>
                <path d="M159.592,224.97c.735-.03,1.373.545,1.411,1.272.039.737-.537,1.364-1.278,1.392-.753.028-1.362-.524-1.401-1.271-.039-.754.515-1.362,1.269-1.392Z" fill="#fff"/>
                <path d="M174.665,240.106c.7-.004,1.277.592,1.263,1.305-.013.679-.558,1.228-1.239,1.25-.72.023-1.291-.531-1.299-1.26-.007-.713.56-1.291,1.274-1.295Z" fill="#fff"/>
                <path d="M137.364,225.234c0-.693.525-1.228,1.223-1.247.727-.019,1.294.538,1.289,1.265-.005.689-.54,1.237-1.225,1.253-.724.017-1.286-.538-1.286-1.271Z" fill="#fff"/>
                <path d="M167.799,243.682c-.656.003-1.172-.485-1.156-1.094.017-.631.576-1.188,1.198-1.194.64-.006,1.125.472,1.134,1.116.009.666-.495,1.168-1.177,1.172Z" fill="#fff"/>
                <path d="M146.687,213.59c.187-.004.376-.028.561-.008.569.063.888.39.844.964-.045.581-.436.838-.992.816-.291-.012-.577-.118-.869-.138-.536-.037-.884-.277-.869-.835.015-.569.4-.771.925-.768.134,0,.268-.005.401-.008,0-.008,0-.015,0-.023Z" fill="#fff"/>
                <path d="M146.262,244.313c-.633.03-1.181-.444-1.205-1.042-.024-.606.537-1.19,1.166-1.212.592-.021,1.15.514,1.156,1.107.006.61-.488,1.117-1.116,1.147Z" fill="#fff"/>
                <path d="M166.935,210.383c-.04-.699.349-1.219.954-1.273.568-.051,1.104.428,1.143,1.021.039.596-.771,1.481-1.364,1.49-.468.007-.681-.353-.732-1.238Z" fill="#fff"/>
                <path d="M172.672,217.12c-.625-.003-1.134-.52-1.097-1.157.038-.666.417-1.043,1.081-1.086.637-.041,1.134.461,1.138,1.107.003.641-.488,1.139-1.121,1.136Z" fill="#fff"/>
                <path d="M157.609,206.922c.6.013,1.115.565,1.103,1.183-.012.63-.471,1.075-1.088,1.057-.626-.018-1.13-.541-1.114-1.158.015-.586.532-1.095,1.1-1.083Z" fill="#fff"/>
                <path d="M150.372,221.288c-.013-.584.468-1.106,1.045-1.133.606-.028,1.134.5,1.128,1.127-.006.594-.498,1.09-1.08,1.09-.576,0-1.08-.5-1.093-1.084Z" fill="#fff"/>
                <path d="M164.774,220.509c-.057.515-.36.878-.966.909-.555.029-1.074-.468-1.045-1.007.032-.594.384-.941.972-.988.545-.043,1.04.464,1.039,1.086Z" fill="#fff"/>
                <path d="M142.657,231.361c-.341.263-.65.669-1.031.754-.568.127-.906-.314-.933-.866-.028-.569.334-1.003.87-.949.379.038.723.437,1.083.676l.012.385Z" fill="#fff"/>
                <path d="M158.408,234.133c.488-.448.736-.802,1.068-.916.131-.045.601.421.644.697.075.487-.266.83-.796.76-.235-.031-.444-.253-.916-.541Z" fill="#fff"/>
                <path d="M148.258,236.847c-.323-.457-.652-.72-.632-.952.021-.246.375-.464.583-.694.223.216.593.411.627.654.033.232-.282.514-.578.992Z" fill="#fff"/>
                <path d="M147.307,227.272c.302.422.606.66.592.877-.015.228-.335.436-.522.652-.225-.208-.571-.386-.634-.635-.047-.184.275-.461.565-.895Z" fill="#fff"/>
                <path d="M142.852,210.605c.318.451.633.703.605.909-.032.229-.35.521-.592.578-.142.034-.522-.324-.538-.526-.018-.232.248-.486.526-.961Z" fill="#fff"/>
                <path d="M153.301,218.44c.44-.294.69-.591.898-.564.226.029.412.36.616.559-.202.204-.386.541-.612.574-.206.029-.46-.273-.902-.569Z" fill="#fff"/>
                <path d="M158.494,217.145c.375-.286.589-.575.781-.561.203.015.527.312.535.497.008.186-.287.509-.489.544-.189.033-.429-.234-.827-.48Z" fill="#fff"/>
                <path d="M142,236.886c.383-.279.589-.544.798-.546.181-.002.532.319.512.452-.035.229-.27.545-.478.595-.173.042-.426-.242-.832-.502Z" fill="#fff"/>
                <path d="M140.045,232.904c-.394.278-.618.559-.812.539-.213-.022-.398-.32-.595-.498.185-.19.351-.501.561-.534.194-.03.435.237.846.493Z" fill="#fff"/>
                <path d="M173.32,225.704c.307-.223.531-.502.677-.466.214.052.373.331.555.513-.194.173-.371.443-.59.483-.146.026-.351-.276-.643-.53Z" fill="#fff"/>
                <path d="M176.47,237.117c-.216-.345-.481-.588-.438-.745.058-.209.356-.352.551-.523.147.191.409.384.407.574-.001.189-.268.377-.52.694Z" fill="#fff"/>
                <path d="M148.9,230.265c.235.291.497.477.475.62-.031.206-.268.382-.418.57-.164-.174-.413-.327-.461-.529-.034-.143.203-.351.404-.662Z" fill="#fff"/>
                <path d="M154.45,231.838c.223.286.433.446.461.633.017.115-.284.407-.373.381-.187-.054-.401-.241-.463-.421-.038-.11.186-.31.375-.593Z" fill="#fff"/>
              </g>
            </g>
          </g>
        </g>
      </g>
    </g>
  </g>
</svg>