<?xml version="1.0" encoding="UTF-8"?>
<svg xmlns="http://www.w3.org/2000/svg" width="500" height="380" xmlns:xlink="http://www.w3.org/1999/xlink" viewBox="0 0 500 380">
  <defs>
    <pattern id="b" data-name="40 % 10 ppp 2" x="0" y="0" width="9.29" height="9.29" patternTransform="translate(-287.37 -846.825)" patternUnits="userSpaceOnUse" viewBox="0 0 9.29 9.29">
      <g>
        <rect width="9.29" height="9.29" fill="none"/>
        <g>
          <circle cx="8.312" cy="8.312" r=".978" fill="#1d1d1b"/>
          <circle cx="3.423" cy="8.312" r=".978" fill="#1d1d1b"/>
          <path d="M8.312,4.401c.54,0,.978-.438.978-.978s-.438-.978-.978-.978-.978.438-.978.978.438.978.978.978Z" fill="#1d1d1b"/>
          <path d="M3.423,4.401c.54,0,.978-.438.978-.978s-.438-.978-.978-.978-.978.438-.978.978.438.978.978.978Z" fill="#1d1d1b"/>
          <path d="M.978,6.845c.54,0,.978-.438.978-.978s-.438-.978-.978-.978S0,5.327,0,5.868s.438.978.978.978Z" fill="#1d1d1b"/>
          <circle cx="5.868" cy="5.868" r=".978" fill="#1d1d1b"/>
          <path d="M.978,1.956c.54,0,.978-.438.978-.978S1.518,0,.978,0,0,.438,0,.978s.438.978.978.978Z" fill="#1d1d1b"/>
          <circle cx="5.868" cy=".978" r=".978" fill="#1d1d1b"/>
        </g>
      </g>
    </pattern>
    <linearGradient id="c" data-name="Dégradé sans nom 44" x1="259.166" y1="17.504" x2="259.166" y2="354.435" gradientUnits="userSpaceOnUse">
      <stop offset="0" stop-color="#ffbd94"/>
      <stop offset="1" stop-color="#ffdf96" stop-opacity="0"/>
    </linearGradient>
    <clipPath id="d">
      <path d="M29.543,121.475l22.029-19.609s50.017-42.551,90.879,15.069c40.862,57.621,220.335,155.154,220.335,155.154l15.475,123.507-279.234,59.349L30.006,187.543s-14.434-45.552-.464-66.068Z" fill="none"/>
    </clipPath>
    <clipPath id="e">
      <path d="M34.546,116.472l22.029-19.609s50.017-42.551,90.879,15.069c40.862,57.621,220.335,155.154,220.335,155.154l15.475,123.507-279.234,59.349L35.01,182.54s-14.434-45.552-.464-66.068Z" fill="none"/>
    </clipPath>
    <clipPath id="f">
      <path d="M34.546,116.472l22.029-19.609s50.017-42.551,90.879,15.069c40.862,57.621,220.335,155.154,220.335,155.154l15.475,123.507-279.234,59.349L35.01,182.54s-14.434-45.552-.464-66.068Z" fill="none"/>
    </clipPath>
    <clipPath id="g">
      <polygon points="337.906 278.471 342.44 296.921 285.893 319.259 275.486 286.573 337.906 278.471" fill="none"/>
    </clipPath>
  </defs>
  <g isolation="isolate">
    <g id="a" data-name="Calque 3">
      <g>
        <polygon points="-18.15 -1.199 514.337 -19.317 541.515 379.293 -23.183 392.379 -18.15 -1.199" fill="#6a90c6"/>
        <polygon points="-63.719 -37.241 526.01 -64.214 539.986 485.072 -94.615 474.729 -63.719 -37.241" fill="url(#b)" mix-blend-mode="overlay" opacity=".25"/>
        <polygon points="-18.15 -1.199 514.337 -19.317 541.515 379.293 -23.183 392.379 -18.15 -1.199" fill="url(#c)"/>
      </g>
      <path d="M323.362,238.285c-49.409,39.069-52.325,104.244-160.536,81.471-69.934-14.717-66.884-81.471-71.088-111.868-5.024-36.317-63.819-154.023,21.025-187.736,79.369-31.537,107.435,41.054,161.191,57.142,53.756,16.088,63.833-1.354,94.039-21.385,38.066-25.244,111.653,0,100.09,73.572-21.047,133.907-100.332,73.705-144.72,108.804ZM416.118,249.685c-13.997-6.273-28.729,12.042-25.575,26.605,4.39,20.271,31.43,21.933,37.725,6.535,3.452-8.445,2.566-26.544-12.15-33.14Z" fill="#ffbd94" mix-blend-mode="color-burn"/>
      <g>
        <g clip-path="url(#d)">
          <path d="M307.205,296.472c9,36.409,1.635,80.507-29.797,104.139-14.903,11.058-36.137,18.212-54.802,15.178-20.229-3.225-34.004-20.803-41.789-38.359-11.286-25.163-16.182-52.056-20.989-78.861-3.096-19.418-13.316-36.645-29.118-48.661-23.263-18.147-54.29-28.268-72.718-53.009-17.336-24.676-33.465-57.407-21.795-87.803,4.71-12.045,13.857-21.926,24.358-29.066,0,0,5.304,7.743,5.304,7.743-4.631,3.179-8.891,6.811-12.48,10.953-3.575,4.144-6.512,8.775-8.448,13.813-10.034,26.426,5.537,56.8,20.989,78.247,18.543,23.488,48.289,31.985,71.841,50.026,15.4,11.328,27.074,27.776,31.997,46.335.838,3.054,1.586,6.13,2.139,9.224,4.634,25.701,9.323,52.268,19.66,76.186,13.357,30.412,33.361,39.92,64.62,26.972,26.551-11.02,40.436-38.329,41.328-66.224.412-11.181-.918-22.482-4.012-33.204l13.713-3.63h0Z" fill="#1d1061"/>
        </g>
        <path d="M393.313,252.916l-12.932-111.58c-3.709-31.999-20.862-58.752-44.867-75.783l6.064-10.43h0l3.396-5.841,12.804,7.444,7.283-12.526-48.906-28.433-7.283,12.526,12.804,7.444-9.912,17.05c-20.426-7.896-43.506-9.708-66.568-3.603h0c-23.062,6.105-42.223,19.099-56.067,36.067l-17.05-9.912,7.444-12.804-12.526-7.283-28.433,48.906,12.526,7.283,7.444-12.804,5.841,3.396h0l10.43,6.063c-12.434,26.677-14.104,58.413-1.495,88.056l43.968,103.365c5.826,13.697,20.829,21.035,35.218,17.226l51.321-13.586c1.9,8.873,2.704,17.794,1.676,26.234-1.194,10.271-5.499,19.612-12.909,26.811-9.086,9.034-22.784,14.773-35.74,18.102-29.374,7.417-62.095-3.234-82.439-25.526-23.725-25.396-28.494-61.967-25.023-95.553,1.492-17.686,4.003-36.489,1.833-54.636-2.061-18.693-9.155-36.676-19.527-52.287-17.368-26.438-48.419-43.793-80.29-42.764-.603.024-1.208.06-1.812.097l-15.464,13.766c.498-.176.997-.351,1.502-.51,33.791-9.908,71.668,9.466,88.848,39.265,11.195,18.283,16.589,39.268,15.702,60.796-.732,23.662-5.919,47.777-3.622,71.975,2.115,25.053,10.701,50.028,27.764,68.99,21.275,24.101,54.57,36.951,86.564,33.008,12.801-1.709,25.018-5.707,36.534-11.742,32.066-17.014,39.443-47.617,32.258-80.223l51.561-13.649c14.389-3.809,23.796-17.609,22.083-32.395Z" fill="#1d1061"/>
        <g clip-path="url(#e)">
          <path d="M312.208,291.469c9,36.409,1.635,80.507-29.797,104.139-14.903,11.058-36.137,18.212-54.802,15.178-20.229-3.225-34.004-20.803-41.789-38.359-11.286-25.163-16.182-52.056-20.989-78.861-3.096-19.418-13.316-36.645-29.118-48.661-23.263-18.147-54.29-28.268-72.718-53.009-17.336-24.676-33.465-57.407-21.795-87.803,4.71-12.045,13.857-21.926,24.358-29.066,0,0,5.304,7.743,5.304,7.743-4.631,3.179-8.891,6.811-12.48,10.953-3.575,4.144-6.512,8.775-8.448,13.813-10.034,26.426,5.537,56.8,20.989,78.247,18.543,23.488,48.289,31.985,71.841,50.026,15.4,11.328,27.074,27.776,31.997,46.335.838,3.054,1.586,6.13,2.139,9.224,4.634,25.701,9.323,52.268,19.66,76.186,13.357,30.412,33.361,39.92,64.62,26.972,26.551-11.02,40.436-38.329,41.328-66.224.412-11.181-.918-22.482-4.012-33.204l13.713-3.63h0Z" fill="#1d1061"/>
        </g>
        <g clip-path="url(#f)">
          <path d="M323.202,287.964c9.472,34.811,3.236,68.163-30.788,86.216-11.516,6.035-23.733,10.033-36.534,11.742-31.994,3.943-65.289-8.906-86.564-33.008-17.063-18.963-25.65-43.937-27.764-68.99-2.297-24.198,2.889-48.313,3.622-71.975.887-21.529-4.507-42.514-15.702-60.796-17.18-29.799-55.056-49.173-88.848-39.265-5.102,1.607-9.851,4.083-13.517,7.447-3.7,3.341-6.101,7.613-6.901,12.319l-10.292-1.672c1.084-7.008,4.836-13.655,10.028-18.383,10.035-9.17,23.419-12.551,36.456-13.065,31.871-1.028,62.922,16.326,80.29,42.764,10.372,15.61,17.466,33.594,19.527,52.287,2.169,18.147-.341,36.95-1.833,54.636-3.471,33.586,1.298,70.157,25.023,95.553,20.344,22.292,53.064,32.943,82.439,25.526,12.956-3.328,26.654-9.067,35.74-18.102,7.409-7.199,11.715-16.54,12.909-26.811,1.26-10.346-.23-21.416-3.122-32.233l15.831-4.191h0Z" fill="#ffcb57"/>
        </g>
        <g clip-path="url(#g)">
          <path d="M323.202,287.965c9.463,34.824,3.203,68.166-30.796,86.211-41.578,22.375-91.535,13.815-123.093-21.266-17.061-18.963-25.647-43.937-27.761-68.99-2.297-24.198,2.891-48.311,3.622-71.973.887-21.528-4.508-42.513-15.703-60.795-17.181-29.799-55.056-49.171-88.847-39.263-5.102,1.607-9.851,4.083-13.516,7.447-3.7,3.341-6.101,7.613-6.901,12.319l-10.292-1.672c1.084-7.008,4.835-13.655,10.028-18.383,10.034-9.17,23.419-12.551,36.456-13.065,54.038-1.209,93.751,43.712,99.818,95.048,2.17,18.147-.34,36.949-1.833,54.635-3.473,33.585,1.297,70.157,25.019,95.553,20.342,22.293,53.061,32.945,82.436,25.531,15.564-4.084,31.361-10.989,40.69-23.845,7.733-10.679,9.361-24.07,7.962-37.012-.582-5.415-1.681-10.87-3.12-16.291l15.831-4.191h0Z" fill="#1d1061"/>
        </g>
        <g>
          <rect x="319.535" y="33.175" width="26.951" height="26.951" transform="translate(68.565 -161.053) rotate(30.173)" fill="#dedede"/>
          <polygon points="328.134 28.228 324.277 34.861 346.581 50.12 351.433 41.773 328.134 28.228" fill="#1d1061"/>
          <rect x="313.683" y="23.998" width="56.571" height="14.49" transform="translate(62.034 -167.643) rotate(30.173)" fill="#dedede"/>
        </g>
        <g>
          <rect x="165.976" y="73.825" width="26.951" height="26.951" transform="translate(345.118 -23.96) rotate(120.173)" fill="#dedede"/>
          <polygon points="174.575 68.878 181.208 72.735 169.375 97.03 161.029 92.177 174.575 68.878" fill="#1d1061"/>
          <rect x="135.758" y="71.098" width="56.571" height="14.49" transform="translate(314.222 -24.1) rotate(120.173)" fill="#dedede"/>
        </g>
        <path d="M376.234,280.307l-118.738,31.432c-14.389,3.809-29.392-3.529-35.218-17.226l-43.968-103.365c-25.803-60.659,8.163-130.1,71.887-146.969h0c63.724-16.869,127.598,26.671,135.187,92.152l12.932,111.58c1.714,14.786-7.693,28.586-22.083,32.395Z" fill="#cecece"/>
        <line x1="339.091" y1="206.852" x2="251.066" y2="230.153" fill="none" stroke="#1d1061" stroke-linecap="round" stroke-linejoin="round"/>
        <path d="M336.912,86.259c-19.185-23.299-50.933-35.053-82.634-26.661h0c-31.7,8.392-53.475,34.315-58.619,64.054" fill="none" stroke="#1d1061" stroke-linecap="round" stroke-linejoin="round"/>
        <rect x="192.501" y="117.36" width="175.471" height="80.592" rx="5.513" ry="5.513" transform="translate(-31.014 76.964) rotate(-14.827)" fill="#1d1061"/>
        <rect x="282.247" y="247.709" width="48.105" height="16.808" transform="translate(-55.342 86.912) rotate(-14.827)" fill="#1d1061"/>
        <g>
          <path d="M213.211,155.2c-.169-.638.215-1.299.853-1.468.639-.169,1.299.216,1.468.854.169.639-.215,1.298-.853,1.467-.639.169-1.299-.214-1.468-.853ZM213.979,158.1c-.169-.639.215-1.299.854-1.468.638-.169,1.298.215,1.467.854.169.638-.215,1.298-.853,1.467-.639.169-1.299-.215-1.468-.853ZM214.748,161c-.17-.639.215-1.299.853-1.468s1.298.215,1.467.854c.169.638-.215,1.298-.853,1.467-.639.169-1.299-.215-1.467-.853ZM215.343,151.532c-.168-.639.215-1.299.854-1.468.638-.169,1.299.216,1.467.854.17.638-.156,1.282-.854,1.467-.637.169-1.297-.215-1.467-.854ZM215.515,163.9c-.17-.638.215-1.299.853-1.468s1.298.216,1.467.854-.215,1.297-.853,1.466c-.639.169-1.299-.214-1.467-.852ZM216.112,154.432c-.169-.639.214-1.299.853-1.468.638-.169,1.299.216,1.468.854.169.639-.157,1.282-.854,1.467-.638.169-1.298-.214-1.467-.853ZM216.283,166.799c-.169-.637.215-1.298.853-1.467s1.298.216,1.467.853c.169.639-.215,1.298-.853,1.467-.639.169-1.299-.214-1.467-.853ZM216.879,157.332c-.169-.639.215-1.299.853-1.468s1.299.215,1.468.854c.169.638-.157,1.282-.854,1.467-.638.169-1.298-.216-1.467-.853ZM217.05,169.7c-.169-.638.215-1.298.854-1.467.637-.169,1.297.215,1.466.853s-.215,1.298-.853,1.467-1.298-.215-1.467-.853ZM217.647,160.233c-.169-.639.215-1.299.853-1.468.639-.169,1.299.215,1.468.854.169.638-.157,1.282-.854,1.467-.638.169-1.298-.216-1.467-.853ZM217.818,172.6c-.169-.639.215-1.299.854-1.468.637-.169,1.297.215,1.466.854.169.638-.215,1.298-.853,1.467s-1.298-.215-1.467-.853ZM218.244,150.764c-.168-.639.215-1.299.854-1.468.638-.169,1.297.216,1.467.854.168.638-.156,1.282-.854,1.467-.638.169-1.297-.216-1.467-.854ZM218.415,163.131c-.169-.637.215-1.298.853-1.467.639-.169,1.299.216,1.468.854s-.157,1.281-.854,1.466c-.638.169-1.298-.214-1.467-.853ZM218.585,175.499c-.169-.638.215-1.299.854-1.468.637-.169,1.297.216,1.467.854.168.639-.215,1.298-.854,1.467-.638.169-1.298-.214-1.467-.853ZM219.012,153.664c-.169-.638.214-1.298.853-1.467.638-.169,1.298.216,1.467.854.169.639-.156,1.282-.853,1.467-.639.169-1.298-.215-1.467-.854ZM219.182,166.032c-.169-.637.215-1.298.853-1.467.639-.169,1.299.216,1.468.853.169.639-.157,1.282-.854,1.467-.638.169-1.298-.214-1.467-.853ZM219.353,178.4c-.169-.639.215-1.299.854-1.468.637-.169,1.298.215,1.467.854.168.638-.215,1.298-.853,1.467-.639.169-1.299-.215-1.468-.853ZM219.78,156.564c-.169-.639.214-1.298.853-1.467.638-.169,1.298.215,1.467.854.169.638-.156,1.282-.853,1.467-.639.169-1.298-.216-1.467-.854ZM219.95,168.932c-.169-.639.216-1.298.853-1.467.639-.169,1.299.215,1.468.853s-.157,1.282-.854,1.467c-.638.169-1.298-.216-1.467-.853ZM220.121,181.3c-.169-.639.215-1.299.854-1.468.638-.169,1.298.215,1.467.854.169.638-.215,1.298-.853,1.467-.639.169-1.299-.215-1.468-.853ZM220.547,159.464c-.169-.639.214-1.298.853-1.467s1.298.215,1.467.854c.169.638-.156,1.282-.853,1.467-.638.169-1.298-.216-1.467-.854ZM220.717,171.832c-.169-.639.216-1.299.853-1.468.639-.169,1.299.215,1.468.854.169.638-.157,1.282-.854,1.467-.638.169-1.298-.216-1.467-.853ZM220.888,184.2c-.168-.638.215-1.299.854-1.468.638-.169,1.298.216,1.467.854.169.639-.215,1.297-.853,1.466-.639.169-1.298-.213-1.468-.852ZM221.144,149.997c-.17-.639.215-1.299.853-1.468s1.298.215,1.467.854c.169.638-.157,1.283-.853,1.468-.639.169-1.299-.216-1.467-.854ZM221.315,162.364c-.169-.638.214-1.298.853-1.467s1.298.216,1.467.854-.156,1.281-.853,1.466c-.639.169-1.298-.215-1.467-.853ZM221.486,174.731c-.17-.637.215-1.298.852-1.467.639-.169,1.299.216,1.469.854.168.639-.158,1.282-.854,1.467-.639.169-1.299-.215-1.467-.854ZM221.656,187.1c-.168-.638.215-1.299.854-1.468.638-.169,1.298.216,1.467.854s-.215,1.297-.853,1.466c-.639.169-1.299-.214-1.468-.852ZM221.912,152.896c-.169-.638.215-1.298.853-1.467s1.298.215,1.467.853c.169.639-.156,1.283-.853,1.468-.638.169-1.298-.215-1.467-.854ZM222.083,165.263c-.169-.637.215-1.297.853-1.466.639-.169,1.298.216,1.467.853.169.639-.156,1.282-.853,1.467-.638.169-1.298-.215-1.467-.854ZM222.253,177.631c-.169-.639.215-1.298.852-1.467.639-.169,1.3.215,1.469.854.168.638-.157,1.282-.854,1.467-.638.169-1.299-.215-1.467-.854ZM222.424,190c-.169-.639.215-1.299.853-1.468s1.298.215,1.467.854c.169.637-.215,1.297-.853,1.466s-1.298-.215-1.467-.852ZM222.679,155.796c-.169-.639.215-1.298.853-1.467s1.298.214,1.467.853c.169.638-.156,1.283-.853,1.468-.638.169-1.298-.216-1.467-.854ZM222.85,168.164c-.169-.638.215-1.297.853-1.466.639-.169,1.299.215,1.467.853.169.638-.156,1.282-.853,1.467-.638.169-1.298-.216-1.467-.854ZM223.021,180.532c-.169-.639.215-1.298.853-1.467s1.299.215,1.468.854c.169.638-.157,1.282-.854,1.467-.638.169-1.298-.215-1.467-.854ZM223.192,192.899c-.169-.637.215-1.298.853-1.467.639-.169,1.299.216,1.467.853.169.639-.215,1.299-.853,1.468s-1.298-.215-1.467-.854ZM223.447,158.697c-.169-.639.215-1.298.854-1.467.637-.169,1.297.214,1.467.853.168.638-.157,1.283-.854,1.468-.638.169-1.298-.216-1.467-.854ZM223.618,171.064c-.169-.639.215-1.298.853-1.467.639-.169,1.298.215,1.467.854.169.638-.156,1.282-.853,1.467-.638.169-1.298-.216-1.467-.854ZM223.789,183.432c-.169-.639.215-1.299.853-1.468s1.299.216,1.468.854c.169.639-.157,1.281-.854,1.466-.638.169-1.298-.213-1.467-.852ZM224.044,149.229c-.17-.639.215-1.299.852-1.468.639-.169,1.299.215,1.468.854.169.638-.157,1.283-.853,1.468-.639.169-1.299-.216-1.467-.854ZM224.214,161.596c-.169-.638.215-1.298.854-1.467.637-.169,1.297.215,1.467.853.168.638-.157,1.282-.854,1.467-.638.169-1.298-.215-1.467-.853ZM224.386,173.963c-.17-.638.214-1.298.852-1.467.639-.169,1.299.216,1.467.854.17.639-.156,1.282-.852,1.467-.639.169-1.299-.215-1.467-.854ZM224.556,186.332c-.169-.639.215-1.299.853-1.468s1.299.216,1.468.854-.157,1.281-.854,1.466c-.638.169-1.298-.215-1.467-.852ZM224.812,152.128c-.169-.638.215-1.298.852-1.467.639-.169,1.299.215,1.468.853.169.639-.156,1.283-.853,1.468-.638.169-1.298-.215-1.467-.854ZM224.982,164.496c-.169-.637.215-1.297.854-1.466.638-.169,1.298.215,1.467.852.168.639-.157,1.283-.854,1.468-.638.169-1.298-.215-1.467-.854ZM225.154,176.864c-.169-.639.214-1.298.852-1.467.639-.169,1.299.215,1.467.854.17.638-.155,1.282-.852,1.467-.639.169-1.299-.216-1.467-.854ZM225.324,189.233c-.169-.639.215-1.299.853-1.468.639-.169,1.299.215,1.468.854.169.637-.157,1.281-.854,1.466-.638.169-1.298-.215-1.467-.852ZM225.58,155.029c-.169-.639.215-1.298.853-1.467s1.298.214,1.467.853c.169.638-.156,1.283-.853,1.468-.638.169-1.298-.216-1.467-.854ZM225.75,167.396c-.168-.638.215-1.297.854-1.466.638-.169,1.298.214,1.467.852s-.157,1.283-.853,1.468c-.639.169-1.299-.216-1.468-.854ZM225.921,179.764c-.169-.639.214-1.298.853-1.467.638-.169,1.298.215,1.467.854.169.638-.156,1.282-.853,1.467-.639.169-1.298-.216-1.467-.854ZM226.091,192.131c-.168-.637.215-1.298.854-1.467.638-.169,1.299.216,1.467.853.169.639-.157,1.283-.854,1.468-.638.169-1.298-.215-1.467-.854ZM226.347,157.929c-.169-.639.215-1.298.853-1.467s1.298.214,1.468.853c.168.638-.157,1.283-.854,1.468-.638.169-1.298-.216-1.467-.854ZM226.517,170.296c-.169-.639.215-1.298.854-1.467.638-.169,1.298.214,1.467.853.169.638-.157,1.283-.853,1.468-.639.169-1.299-.216-1.468-.854ZM226.689,182.664c-.169-.638.215-1.298.853-1.467s1.298.216,1.467.854c.169.639-.156,1.281-.853,1.466-.639.169-1.298-.214-1.467-.853ZM226.859,195.032c-.169-.639.215-1.299.853-1.468.639-.169,1.299.216,1.468.854.169.639-.157,1.282-.854,1.467-.638.169-1.298-.214-1.467-.853ZM226.944,148.461c-.169-.639.215-1.299.853-1.468.639-.169,1.299.215,1.467.854.17.638-.156,1.283-.853,1.468-.638.168-1.298-.216-1.467-.854ZM227.285,173.196c-.168-.638.215-1.298.854-1.467.638-.169,1.298.215,1.467.853.169.639-.156,1.283-.853,1.468-.638.169-1.298-.215-1.468-.854ZM227.457,185.564c-.169-.638.215-1.298.853-1.467s1.298.216,1.467.854-.156,1.281-.853,1.466c-.639.169-1.298-.215-1.467-.853ZM227.711,151.361c-.169-.638.215-1.298.853-1.467.639-.169,1.299.215,1.468.853.169.639-.157,1.283-.854,1.468-.638.169-1.298-.215-1.467-.854ZM228.052,176.096c-.168-.639.215-1.298.854-1.467.638-.169,1.298.214,1.467.853.169.638-.156,1.283-.853,1.468-.638.169-1.298-.216-1.468-.854ZM228.224,188.464c-.169-.639.215-1.298.853-1.467.639-.169,1.298.215,1.467.854.169.637-.156,1.281-.853,1.466-.639.169-1.298-.216-1.467-.853ZM228.479,154.261c-.169-.639.215-1.298.853-1.467.639-.169,1.299.214,1.468.853.169.638-.157,1.283-.854,1.468-.638.169-1.298-.216-1.467-.854ZM228.821,178.997c-.169-.639.215-1.298.853-1.467s1.298.214,1.467.853c.169.638-.156,1.283-.853,1.468-.638.169-1.298-.216-1.467-.854ZM228.992,191.363c-.168-.637.215-1.297.854-1.466.638-.169,1.297.216,1.466.853.169.639-.156,1.283-.853,1.468-.638.169-1.298-.216-1.467-.854ZM229.248,157.162c-.17-.639.215-1.298.852-1.467.639-.169,1.299.214,1.468.853.169.638-.157,1.283-.853,1.468-.639.169-1.299-.216-1.467-.854ZM229.588,181.896c-.169-.638.215-1.298.853-1.467.639-.169,1.299.215,1.467.853.17.639-.156,1.282-.853,1.467-.638.169-1.298-.214-1.467-.853ZM229.759,194.263c-.169-.638.215-1.298.853-1.467.639-.169,1.298.216,1.467.854.169.639-.156,1.282-.853,1.467-.638.169-1.298-.215-1.467-.854ZM229.843,147.694c-.169-.639.215-1.299.854-1.469.639-.168,1.299.216,1.467.854.17.638-.157,1.283-.853,1.468-.638.168-1.299-.216-1.468-.854ZM230.015,160.061c-.17-.638.215-1.299.852-1.467.639-.169,1.299.215,1.468.853s-.157,1.282-.854,1.467c-.638.169-1.298-.215-1.466-.853ZM230.356,184.796c-.169-.638.215-1.298.853-1.467.639-.169,1.299.215,1.467.853.169.638-.156,1.282-.853,1.467-.638.169-1.298-.215-1.467-.853ZM230.611,150.593c-.169-.638.215-1.298.854-1.468.639-.168,1.299.216,1.468.854.169.639-.158,1.283-.854,1.467-.638.17-1.299-.214-1.468-.853ZM230.783,162.96c-.169-.637.215-1.298.853-1.466.638-.169,1.298.215,1.467.852.169.639-.157,1.283-.853,1.468-.639.169-1.299-.215-1.467-.854ZM231.124,187.697c-.169-.639.215-1.298.854-1.467.638-.169,1.298.214,1.467.853.169.637-.157,1.282-.853,1.467-.639.169-1.299-.216-1.468-.853ZM231.378,153.494c-.169-.639.216-1.298.854-1.468.639-.168,1.299.215,1.468.854.169.638-.158,1.283-.854,1.467-.638.17-1.299-.215-1.468-.853ZM231.55,165.861c-.169-.638.215-1.298.853-1.466.638-.169,1.298.214,1.467.852s-.156,1.283-.853,1.468c-.638.169-1.298-.216-1.467-.854ZM231.891,190.595c-.169-.637.216-1.297.854-1.466s1.298.215,1.467.852c.169.639-.157,1.284-.853,1.469-.639.169-1.299-.216-1.468-.854ZM232.146,156.394c-.168-.639.216-1.298.854-1.468.639-.168,1.299.215,1.468.854.169.638-.157,1.283-.853,1.467-.639.17-1.299-.215-1.469-.853ZM232.318,168.761c-.169-.639.215-1.298.853-1.467s1.298.214,1.467.853c.169.638-.156,1.283-.853,1.468-.638.169-1.298-.216-1.467-.854ZM232.659,193.496c-.169-.638.215-1.298.854-1.467.638-.169,1.298.215,1.467.853.169.639-.157,1.283-.853,1.468-.639.169-1.299-.215-1.468-.854ZM232.744,146.926c-.169-.639.215-1.3.854-1.469.637-.168,1.297.216,1.467.854.168.638-.157,1.283-.854,1.467-.638.169-1.298-.215-1.467-.853ZM232.914,159.293c-.168-.638.216-1.299.854-1.467.639-.17,1.299.215,1.468.853s-.158,1.282-.854,1.466c-.638.17-1.299-.214-1.468-.852ZM233.085,171.661c-.169-.638.215-1.299.853-1.467.638-.169,1.298.215,1.468.853.168.639-.157,1.283-.854,1.468-.638.168-1.298-.215-1.467-.854ZM233.256,184.029c-.169-.638.215-1.298.853-1.467.639-.169,1.299.215,1.467.853.169.638-.156,1.282-.853,1.467-.638.169-1.298-.215-1.467-.853ZM233.511,149.826c-.169-.638.215-1.299.854-1.468.637-.168,1.298.216,1.467.854.169.639-.157,1.283-.853,1.467-.639.169-1.299-.214-1.468-.853ZM233.681,162.193c-.168-.637.216-1.298.854-1.466.638-.17,1.298.215,1.467.852.169.639-.157,1.283-.853,1.467-.639.17-1.299-.214-1.469-.853ZM233.853,174.561c-.169-.639.215-1.299.853-1.467.638-.169,1.299.214,1.468.853.168.638-.157,1.283-.854,1.468-.638.168-1.298-.216-1.467-.854ZM234.024,186.929c-.169-.639.215-1.298.853-1.467.639-.169,1.299.214,1.468.853.169.637-.157,1.282-.854,1.467-.638.169-1.298-.216-1.467-.853ZM234.279,152.726c-.169-.639.215-1.299.854-1.468.638-.168,1.298.215,1.467.854.169.638-.157,1.283-.853,1.467-.639.169-1.299-.215-1.468-.853ZM234.45,165.093c-.169-.638.216-1.298.854-1.466.638-.17,1.298.214,1.467.852s-.157,1.283-.853,1.467c-.639.17-1.299-.215-1.468-.853ZM234.621,177.461c-.169-.639.215-1.299.853-1.467.639-.169,1.299.214,1.468.853.169.638-.157,1.283-.854,1.468-.638.168-1.298-.216-1.467-.854ZM234.792,189.828c-.169-.637.216-1.297.853-1.466.639-.169,1.299.215,1.468.852.169.639-.157,1.284-.854,1.469-.638.169-1.298-.216-1.467-.854ZM235.046,155.626c-.168-.639.215-1.299.854-1.468.638-.168,1.298.215,1.467.854.169.638-.156,1.283-.853,1.467-.638.169-1.298-.215-1.468-.853ZM235.217,167.994c-.169-.639.216-1.298.854-1.468.638-.168,1.298.215,1.467.854.169.638-.157,1.283-.853,1.467-.639.17-1.299-.215-1.468-.853ZM235.388,180.361c-.168-.638.215-1.298.854-1.467.638-.169,1.298.215,1.467.853.169.639-.157,1.282-.854,1.467-.638.168-1.297-.214-1.467-.853ZM235.559,192.728c-.169-.638.215-1.298.853-1.467.639-.169,1.299.215,1.468.853.169.639-.157,1.283-.854,1.468-.638.169-1.298-.215-1.467-.854ZM235.814,158.526c-.168-.638.215-1.299.854-1.468.638-.169,1.298.216,1.467.854s-.157,1.282-.853,1.466c-.639.169-1.299-.214-1.468-.852ZM235.985,170.893c-.169-.638.216-1.299.854-1.467.638-.17,1.298.215,1.468.853.168.639-.158,1.283-.854,1.468-.639.168-1.299-.215-1.468-.854ZM236.156,183.261c-.168-.638.215-1.298.854-1.467.638-.169,1.298.215,1.467.853s-.157,1.282-.854,1.467c-.638.168-1.298-.215-1.467-.853ZM236.412,149.058c-.169-.638.215-1.299.853-1.468s1.299.216,1.468.854c.169.639-.157,1.283-.854,1.467-.638.169-1.298-.214-1.467-.853ZM236.582,161.425c-.168-.637.216-1.298.854-1.467s1.298.216,1.467.853c.169.639-.156,1.283-.853,1.467-.638.169-1.298-.214-1.468-.853ZM236.752,173.793c-.169-.639.216-1.299.854-1.467.638-.17,1.299.214,1.468.853.168.638-.158,1.283-.854,1.468-.638.168-1.299-.216-1.468-.854ZM236.924,186.162c-.169-.639.215-1.298.853-1.467s1.298.214,1.467.853c.169.637-.156,1.282-.854,1.467-.637.168-1.297-.216-1.466-.853ZM237.179,151.958c-.169-.639.215-1.299.853-1.468s1.299.215,1.468.854c.169.638-.157,1.283-.854,1.467-.638.169-1.298-.215-1.467-.853ZM237.35,164.326c-.169-.638.215-1.298.853-1.467.639-.169,1.299.215,1.467.853.169.638-.156,1.283-.853,1.467-.638.169-1.298-.215-1.467-.853ZM237.52,176.694c-.169-.639.216-1.299.854-1.467.639-.17,1.299.214,1.468.853.169.638-.158,1.283-.854,1.468-.638.168-1.299-.216-1.468-.854ZM237.692,189.06c-.169-.637.215-1.298.853-1.466.639-.169,1.299.215,1.467.852.169.639-.156,1.284-.853,1.469-.638.168-1.298-.216-1.467-.854ZM237.947,154.859c-.169-.639.215-1.299.854-1.468.637-.169,1.298.215,1.467.854.169.638-.157,1.283-.854,1.467-.638.169-1.298-.215-1.467-.853ZM238.118,167.226c-.169-.639.215-1.299.853-1.468.639-.168,1.298.215,1.467.854.169.638-.156,1.283-.853,1.467-.638.169-1.298-.215-1.467-.853ZM238.289,179.593c-.17-.638.215-1.298.854-1.468.638-.168,1.298.216,1.467.854.169.639-.158,1.282-.854,1.467-.638.168-1.299-.214-1.467-.853ZM238.459,191.96c-.169-.638.215-1.298.853-1.467s1.298.215,1.467.853c.169.639-.156,1.283-.853,1.468-.638.169-1.298-.215-1.467-.854ZM238.714,157.758c-.169-.638.215-1.299.854-1.468.637-.169,1.298.216,1.467.854s-.157,1.282-.854,1.466c-.638.169-1.298-.214-1.467-.852ZM238.885,170.125c-.169-.638.215-1.299.853-1.468.639-.169,1.299.216,1.467.854.17.639-.156,1.283-.852,1.467-.639.169-1.299-.214-1.468-.853ZM239.056,182.494c-.17-.638.215-1.298.854-1.468.638-.168,1.298.216,1.467.854s-.158,1.282-.854,1.467c-.638.168-1.299-.215-1.467-.853ZM239.482,160.658c-.169-.637.215-1.298.854-1.467.638-.169,1.298.216,1.467.853.169.639-.157,1.283-.854,1.467-.638.169-1.298-.214-1.467-.853ZM239.653,173.026c-.169-.639.215-1.299.853-1.468.639-.169,1.299.215,1.467.854.17.638-.156,1.283-.852,1.467-.639.169-1.299-.215-1.468-.853ZM239.824,185.394c-.169-.639.215-1.298.854-1.468.638-.168,1.298.215,1.467.854.169.637-.158,1.282-.854,1.467-.638.168-1.299-.216-1.467-.853ZM240.25,163.558c-.168-.638.215-1.298.854-1.467.638-.169,1.299.215,1.467.853.169.638-.157,1.283-.853,1.467-.639.169-1.299-.215-1.468-.853ZM240.42,175.926c-.169-.639.215-1.299.854-1.468.638-.169,1.298.215,1.467.854.169.638-.157,1.283-.853,1.467-.639.169-1.299-.215-1.468-.853ZM240.591,188.292c-.169-.637.215-1.298.854-1.466.639-.17,1.299.215,1.467.852.169.639-.157,1.284-.853,1.469-.639.168-1.299-.216-1.468-.854ZM241.017,166.458c-.169-.639.215-1.299.854-1.468.638-.169,1.298.215,1.467.854.169.638-.157,1.283-.853,1.467-.639.169-1.299-.215-1.468-.853ZM241.189,178.826c-.17-.638.215-1.299.853-1.468.638-.168,1.298.216,1.467.854.169.639-.157,1.282-.853,1.466-.639.169-1.299-.213-1.467-.852ZM241.359,191.193c-.169-.638.215-1.298.854-1.468.638-.168,1.298.216,1.467.854.169.639-.157,1.283-.853,1.467-.639.17-1.299-.214-1.468-.853ZM241.785,169.358c-.168-.638.215-1.299.854-1.468.638-.169,1.299.216,1.467.854.17.639-.156,1.282-.853,1.467-.638.169-1.298-.214-1.468-.853ZM241.957,181.726c-.17-.638.215-1.299.853-1.468.638-.168,1.298.216,1.467.854s-.157,1.282-.853,1.466c-.639.169-1.299-.214-1.467-.852ZM242.552,172.258c-.168-.639.215-1.299.854-1.468.638-.169,1.299.215,1.467.854.17.638-.156,1.282-.853,1.467-.638.169-1.298-.215-1.468-.853ZM242.724,184.626c-.169-.639.215-1.299.853-1.468.638-.168,1.298.215,1.467.854.169.637-.157,1.282-.853,1.466-.639.169-1.299-.215-1.467-.852ZM243.321,175.159c-.169-.639.215-1.299.853-1.468s1.299.215,1.468.854c.169.638-.157,1.282-.854,1.467-.638.169-1.298-.215-1.467-.853ZM243.492,187.525c-.169-.637.215-1.298.854-1.467.637-.169,1.297.216,1.466.853.169.639-.156,1.284-.853,1.468-.638.169-1.298-.215-1.467-.854ZM244.088,178.058c-.169-.638.215-1.299.853-1.468.639-.169,1.299.216,1.468.854.169.639-.157,1.281-.854,1.466-.638.169-1.298-.213-1.467-.852ZM244.259,190.425c-.169-.638.215-1.299.853-1.468.638-.168,1.298.216,1.467.854.169.639-.156,1.283-.853,1.467-.638.169-1.298-.214-1.467-.853ZM244.856,180.958c-.169-.638.215-1.299.853-1.468.639-.169,1.299.216,1.468.854s-.157,1.281-.854,1.466c-.638.169-1.298-.214-1.467-.852ZM245.624,183.859c-.169-.639.215-1.299.854-1.468.638-.169,1.298.215,1.467.854.169.637-.157,1.281-.853,1.466-.639.169-1.299-.215-1.468-.852ZM246.391,186.757c-.169-.637.216-1.298.854-1.467s1.298.216,1.467.853c.169.639-.157,1.283-.853,1.468-.639.169-1.299-.215-1.468-.854Z" fill="#6a90c6"/>
          <path d="M243.748,153.323c-.168-.639.215-1.298.854-1.467.638-.169,1.298.214,1.467.853.169.638-.215,1.299-.853,1.468s-1.298-.216-1.468-.854ZM244.515,156.222c-.168-.638.215-1.298.854-1.467.638-.169,1.298.215,1.467.853s-.215,1.298-.853,1.467c-.639.169-1.299-.215-1.468-.853ZM245.88,149.655c-.169-.639.215-1.299.853-1.467.638-.169,1.299.214,1.468.853.169.638-.157,1.283-.854,1.468-.638.168-1.298-.216-1.467-.854ZM246.648,152.555c-.169-.639.215-1.299.854-1.467.637-.169,1.298.214,1.467.853.169.638-.157,1.283-.854,1.468-.637.168-1.298-.216-1.467-.854ZM247.416,155.455c-.169-.638.215-1.299.854-1.467.637-.169,1.298.215,1.467.853s-.157,1.282-.854,1.467c-.638.168-1.298-.215-1.467-.853ZM248.013,145.987c-.169-.638.214-1.299.852-1.468.639-.169,1.299.216,1.468.854.169.639-.156,1.283-.853,1.467-.639.169-1.298-.214-1.467-.853ZM248.781,148.887c-.169-.639.214-1.299.853-1.468.638-.169,1.298.215,1.467.854.169.638-.156,1.283-.853,1.467-.639.169-1.298-.215-1.467-.853ZM249.548,151.788c-.169-.639.215-1.299.853-1.468s1.298.215,1.467.854c.169.638-.156,1.283-.853,1.467-.639.169-1.298-.215-1.467-.853ZM250.144,142.32c-.168-.639.215-1.3.854-1.469.638-.169,1.299.216,1.467.854.17.638-.156,1.283-.853,1.467-.638.169-1.298-.215-1.468-.853ZM250.316,154.687c-.169-.638.215-1.299.853-1.468s1.298.216,1.467.854-.156,1.282-.853,1.466c-.639.169-1.298-.214-1.467-.852ZM250.658,179.422c-.17-.638.215-1.298.853-1.467s1.298.215,1.467.853-.157,1.282-.853,1.467c-.639.169-1.299-.215-1.467-.853ZM250.913,145.219c-.169-.638.214-1.299.853-1.468.638-.169,1.299.216,1.468.854.169.639-.157,1.283-.854,1.467-.638.169-1.298-.214-1.467-.853ZM251.425,182.323c-.169-.639.215-1.298.853-1.467s1.298.214,1.467.853c.169.637-.157,1.282-.853,1.467-.639.169-1.299-.216-1.467-.853ZM251.68,148.12c-.169-.639.215-1.299.853-1.468s1.299.215,1.468.854c.169.638-.157,1.283-.854,1.467-.638.169-1.298-.215-1.467-.853ZM252.193,185.221c-.169-.637.215-1.297.854-1.466.637-.169,1.297.215,1.466.852.169.639-.156,1.284-.853,1.469-.638.169-1.298-.216-1.467-.854ZM252.448,151.02c-.169-.639.215-1.299.853-1.468.639-.169,1.299.215,1.468.854.169.638-.157,1.283-.853,1.467-.639.169-1.299-.215-1.468-.853ZM252.96,188.122c-.169-.638.215-1.298.853-1.467s1.298.215,1.467.853c.169.639-.156,1.283-.853,1.468-.638.169-1.298-.215-1.467-.854ZM253.044,141.552c-.168-.639.215-1.3.854-1.469.638-.169,1.298.216,1.467.854.169.638-.156,1.283-.854,1.467-.637.169-1.297-.215-1.467-.853ZM253.215,153.919c-.169-.638.215-1.299.853-1.468.639-.169,1.299.216,1.468.854s-.157,1.282-.854,1.466c-.638.169-1.298-.214-1.467-.852ZM253.557,178.655c-.169-.638.216-1.299.853-1.467.639-.169,1.299.215,1.468.853s-.157,1.282-.854,1.467c-.638.168-1.298-.215-1.467-.853ZM253.813,144.452c-.169-.638.214-1.299.853-1.468.638-.169,1.298.216,1.467.854.169.639-.156,1.282-.853,1.467-.638.169-1.298-.214-1.467-.853ZM253.983,156.819c-.169-.637.215-1.298.854-1.467.638-.169,1.298.216,1.467.853.169.639-.157,1.283-.853,1.467-.639.169-1.299-.214-1.468-.853ZM254.325,181.555c-.169-.639.216-1.299.854-1.467.638-.169,1.298.214,1.467.853.169.637-.157,1.282-.853,1.467-.639.168-1.299-.216-1.468-.853ZM254.581,147.352c-.169-.639.215-1.299.853-1.468s1.298.215,1.467.854c.169.638-.156,1.282-.853,1.467-.638.169-1.298-.215-1.467-.853ZM254.751,159.719c-.169-.638.216-1.298.854-1.467s1.298.215,1.467.853-.157,1.283-.853,1.467c-.639.169-1.299-.215-1.468-.853ZM255.092,184.454c-.169-.637.216-1.298.854-1.466.638-.169,1.298.215,1.467.852.169.639-.157,1.284-.853,1.469-.638.168-1.299-.216-1.468-.854ZM255.348,150.252c-.169-.639.215-1.299.853-1.468.639-.169,1.299.215,1.467.854.17.638-.156,1.282-.853,1.467-.638.169-1.298-.215-1.467-.853ZM255.518,162.62c-.169-.639.216-1.299.854-1.468s1.298.215,1.467.854c.169.638-.157,1.283-.853,1.467-.639.169-1.299-.215-1.468-.853ZM255.86,187.354c-.169-.638.216-1.299.854-1.467.638-.169,1.298.215,1.467.853.169.639-.157,1.283-.853,1.468-.638.168-1.299-.215-1.468-.854ZM255.945,140.784c-.169-.639.215-1.299.853-1.468s1.298.216,1.468.854c.168.637-.157,1.282-.854,1.467-.638.169-1.298-.215-1.467-.854ZM256.116,153.152c-.169-.638.215-1.299.853-1.468.639-.169,1.299.216,1.467.854.169.638-.156,1.281-.853,1.466-.638.169-1.298-.214-1.467-.852ZM256.287,165.519c-.17-.638.215-1.299.853-1.468s1.298.216,1.468.854c.168.639-.158,1.283-.854,1.467-.639.169-1.299-.214-1.467-.853ZM256.458,177.887c-.169-.638.214-1.299.853-1.468s1.298.216,1.467.854-.156,1.282-.853,1.466c-.639.169-1.298-.214-1.467-.852ZM256.712,143.684c-.169-.639.215-1.299.853-1.468s1.299.216,1.468.853c.169.639-.157,1.283-.854,1.468-.638.169-1.298-.214-1.467-.853ZM256.883,156.051c-.169-.637.215-1.298.853-1.467.639-.169,1.299.216,1.467.853.17.639-.156,1.282-.853,1.467-.638.169-1.298-.214-1.467-.853ZM257.054,168.419c-.169-.639.215-1.299.853-1.468s1.299.215,1.468.854c.168.638-.157,1.283-.854,1.467-.638.169-1.299-.215-1.467-.853ZM257.225,180.788c-.169-.639.215-1.299.853-1.468.639-.169,1.298.215,1.467.854.169.637-.156,1.282-.853,1.466-.638.169-1.298-.215-1.467-.852ZM257.48,146.584c-.169-.639.215-1.299.853-1.468.639-.169,1.299.214,1.468.853s-.157,1.283-.854,1.468c-.638.169-1.298-.216-1.467-.853ZM257.651,158.952c-.169-.638.216-1.298.853-1.467.639-.169,1.299.215,1.468.853s-.157,1.282-.854,1.467c-.638.169-1.298-.215-1.467-.853ZM257.822,171.32c-.169-.639.215-1.299.853-1.468s1.299.215,1.468.854c.169.638-.157,1.283-.854,1.467-.638.169-1.298-.215-1.467-.853ZM257.993,183.686c-.169-.637.215-1.298.853-1.467.639-.169,1.299.216,1.467.853.169.639-.156,1.284-.853,1.468-.638.169-1.298-.215-1.467-.854ZM258.248,149.485c-.168-.639.215-1.299.854-1.468.638-.169,1.298.214,1.467.853s-.156,1.283-.854,1.468c-.637.169-1.297-.216-1.467-.853ZM258.418,161.852c-.169-.639.216-1.299.853-1.468.639-.169,1.299.215,1.468.854.169.638-.157,1.282-.854,1.467-.638.169-1.298-.215-1.467-.853ZM258.589,174.219c-.169-.638.215-1.299.854-1.468.637-.169,1.298.216,1.467.854.169.639-.157,1.282-.854,1.466-.638.169-1.298-.213-1.467-.852ZM258.76,186.586c-.169-.638.215-1.299.853-1.468.639-.169,1.298.216,1.467.854.169.639-.156,1.283-.853,1.467-.638.169-1.298-.214-1.467-.853ZM258.844,140.016c-.169-.639.216-1.299.854-1.468s1.298.215,1.468.854c.168.638-.158,1.283-.854,1.468-.639.169-1.299-.216-1.468-.854ZM259.015,152.383c-.168-.637.215-1.298.854-1.467.638-.169,1.298.215,1.467.854.169.637-.157,1.281-.854,1.466-.638.169-1.298-.214-1.467-.853ZM259.187,164.751c-.17-.638.215-1.299.852-1.468.639-.169,1.299.216,1.468.854.169.639-.157,1.283-.853,1.467-.639.169-1.299-.214-1.467-.853ZM259.357,177.12c-.169-.638.215-1.299.854-1.468.637-.169,1.298.216,1.467.854s-.157,1.282-.854,1.466c-.638.169-1.298-.214-1.467-.852ZM259.612,142.915c-.169-.638.216-1.298.854-1.467s1.299.215,1.468.853c.169.639-.158,1.283-.854,1.468-.638.169-1.299-.215-1.468-.854ZM259.783,155.284c-.168-.637.216-1.298.854-1.467s1.298.215,1.467.852c.169.639-.156,1.283-.854,1.468-.637.169-1.297-.214-1.467-.853ZM259.955,167.652c-.169-.639.215-1.299.852-1.468.639-.169,1.299.215,1.468.854.169.638-.156,1.283-.853,1.467-.638.169-1.299-.215-1.467-.853ZM260.125,180.02c-.169-.639.215-1.299.854-1.468.638-.169,1.298.215,1.467.854.169.637-.157,1.282-.854,1.466-.638.169-1.298-.215-1.467-.852ZM260.379,145.816c-.169-.639.216-1.298.854-1.467.639-.169,1.299.214,1.468.853.169.638-.158,1.283-.854,1.468-.638.169-1.299-.216-1.468-.854ZM260.551,158.184c-.169-.639.215-1.298.853-1.467.639-.169,1.299.215,1.467.852.169.639-.156,1.283-.853,1.468-.638.169-1.298-.216-1.467-.853ZM260.722,170.552c-.169-.639.215-1.299.853-1.468s1.298.215,1.467.854c.169.638-.156,1.283-.853,1.467-.638.169-1.298-.215-1.467-.853ZM260.892,182.918c-.168-.637.215-1.298.854-1.467.638-.169,1.299.216,1.467.853.169.639-.157,1.284-.853,1.468-.639.169-1.299-.215-1.468-.854ZM261.148,148.716c-.17-.639.215-1.298.854-1.467.638-.169,1.298.214,1.467.853.169.638-.158,1.283-.854,1.468-.638.169-1.299-.216-1.467-.854ZM261.319,161.084c-.169-.639.215-1.299.853-1.468.639-.169,1.298.214,1.467.853s-.156,1.283-.853,1.468c-.638.169-1.298-.216-1.467-.853ZM261.49,173.452c-.169-.638.215-1.299.853-1.468s1.298.216,1.468.854c.168.639-.157,1.282-.854,1.466-.638.169-1.298-.213-1.467-.852ZM261.66,185.819c-.169-.638.215-1.299.854-1.468.638-.169,1.298.216,1.467.854.169.639-.157,1.283-.853,1.467-.639.169-1.299-.214-1.468-.853ZM261.916,151.616c-.17-.638.215-1.298.854-1.467.638-.169,1.298.215,1.467.853s-.158,1.282-.854,1.467c-.638.169-1.299-.215-1.467-.853ZM262.086,163.983c-.169-.637.215-1.298.853-1.467.639-.169,1.299.215,1.467.854.17.639-.156,1.282-.853,1.467-.638.169-1.298-.215-1.467-.854ZM262.257,176.352c-.169-.638.215-1.299.853-1.468s1.298.216,1.468.854c.168.638-.157,1.282-.854,1.466-.638.169-1.298-.214-1.467-.852ZM262.683,154.515c-.169-.637.215-1.297.854-1.466.638-.169,1.298.215,1.467.852.169.639-.158,1.283-.854,1.468-.638.169-1.299-.215-1.467-.854ZM262.854,166.883c-.169-.639.215-1.298.853-1.467.639-.169,1.299.215,1.467.854.17.637-.156,1.282-.853,1.467-.638.169-1.298-.215-1.467-.854ZM263.025,179.252c-.169-.639.215-1.299.853-1.468.639-.169,1.299.215,1.468.854.168.637-.157,1.282-.854,1.466-.638.169-1.298-.215-1.467-.852ZM263.451,157.415c-.169-.638.215-1.297.854-1.466s1.299.214,1.467.852c.169.638-.157,1.283-.853,1.468-.639.169-1.299-.216-1.468-.854ZM263.622,169.784c-.169-.639.215-1.298.853-1.467.639-.169,1.299.215,1.468.854.169.637-.157,1.282-.854,1.467-.638.169-1.298-.215-1.467-.854ZM263.793,182.151c-.168-.637.215-1.298.854-1.467.638-.169,1.298.216,1.467.853.169.639-.157,1.284-.854,1.468-.638.169-1.298-.215-1.467-.854ZM264.218,160.316c-.169-.639.215-1.298.854-1.467s1.298.214,1.467.853c.169.638-.157,1.283-.853,1.468-.639.169-1.299-.216-1.468-.854ZM264.39,172.684c-.17-.639.215-1.299.852-1.468.639-.169,1.299.216,1.468.853.169.639-.157,1.282-.854,1.467-.638.169-1.298-.213-1.466-.852ZM264.56,185.051c-.169-.638.215-1.299.853-1.468.639-.169,1.299.216,1.468.854.169.639-.157,1.282-.854,1.467-.638.169-1.298-.214-1.467-.853ZM264.986,163.215c-.169-.638.215-1.298.854-1.467s1.299.215,1.467.853c.17.639-.157,1.283-.853,1.468-.638.169-1.299-.215-1.468-.854ZM265.158,175.584c-.17-.639.215-1.299.852-1.468.639-.169,1.299.216,1.468.853.169.639-.157,1.282-.854,1.467-.638.169-1.298-.215-1.466-.852ZM265.753,166.116c-.169-.639.215-1.298.854-1.467s1.299.214,1.467.853c.17.638-.157,1.283-.853,1.468-.638.169-1.299-.216-1.468-.854ZM265.925,178.485c-.169-.639.215-1.299.853-1.468s1.298.214,1.467.853c.169.637-.157,1.282-.853,1.467-.639.169-1.299-.215-1.467-.852ZM266.521,169.016c-.169-.639.216-1.298.854-1.467.639-.169,1.299.214,1.468.853.169.638-.158,1.283-.854,1.468-.638.169-1.299-.216-1.468-.854ZM266.693,181.383c-.169-.637.215-1.298.853-1.467s1.298.215,1.467.852c.169.639-.156,1.284-.853,1.469-.638.169-1.298-.215-1.467-.854ZM267.289,171.915c-.168-.638.216-1.298.854-1.467.639-.169,1.299.215,1.468.853.169.639-.158,1.282-.854,1.467-.638.169-1.298-.214-1.468-.853ZM267.46,184.284c-.169-.639.215-1.299.853-1.468s1.298.216,1.467.853c.169.639-.156,1.283-.853,1.468-.638.169-1.298-.214-1.467-.853ZM268.056,174.816c-.168-.638.216-1.298.854-1.467.639-.169,1.299.215,1.468.853s-.158,1.282-.854,1.467c-.638.169-1.299-.215-1.468-.853ZM268.825,177.716c-.169-.639.215-1.298.854-1.467.638-.169,1.298.214,1.467.853.169.637-.157,1.282-.853,1.467-.639.169-1.299-.216-1.468-.853ZM269.592,180.615c-.169-.637.216-1.297.854-1.466s1.298.215,1.467.852c.169.639-.157,1.284-.853,1.469-.639.169-1.299-.216-1.468-.854ZM270.36,183.515c-.169-.638.215-1.298.854-1.467.638-.169,1.298.215,1.467.853.169.639-.157,1.283-.853,1.468-.639.169-1.299-.215-1.468-.854ZM270.957,174.048c-.168-.638.215-1.298.854-1.467.638-.169,1.298.215,1.467.853s-.157,1.282-.853,1.467c-.639.169-1.299-.215-1.468-.853ZM271.725,176.949c-.169-.639.215-1.298.853-1.467s1.298.214,1.467.853c.169.637-.156,1.282-.853,1.467-.638.169-1.298-.216-1.467-.853ZM272.493,179.847c-.169-.637.215-1.297.853-1.466.639-.169,1.299.215,1.467.852.169.639-.156,1.284-.853,1.469-.638.169-1.298-.216-1.467-.854ZM273.26,182.748c-.169-.638.215-1.298.853-1.467s1.298.215,1.467.853c.169.639-.156,1.283-.853,1.468-.638.169-1.298-.215-1.467-.854ZM273.857,173.281c-.169-.638.215-1.298.854-1.467.637-.169,1.298.215,1.467.853s-.157,1.282-.854,1.467c-.638.169-1.298-.215-1.467-.853ZM274.625,176.181c-.169-.639.215-1.298.854-1.467.638-.169,1.298.214,1.467.853.169.637-.157,1.282-.854,1.467-.638.169-1.298-.216-1.467-.853ZM275.392,179.08c-.168-.637.215-1.297.854-1.466.638-.169,1.299.215,1.467.852.169.639-.157,1.284-.853,1.469-.639.169-1.299-.216-1.468-.854ZM276.16,181.98c-.169-.638.215-1.298.854-1.467.638-.169,1.298.215,1.467.853.169.639-.157,1.283-.853,1.468-.639.169-1.299-.215-1.468-.854Z" fill="#6a90c6"/>
          <path d="M275.052,154.344c-.169-.637.215-1.297.854-1.466.637-.169,1.297.215,1.466.853s-.215,1.298-.853,1.467-1.298-.215-1.467-.854ZM275.82,157.245c-.169-.639.215-1.298.854-1.467.637-.169,1.297.215,1.466.854.169.638-.215,1.298-.853,1.467s-1.298-.215-1.467-.854ZM276.587,160.145c-.169-.639.215-1.299.854-1.468.637-.169,1.297.216,1.467.854.168.639-.215,1.298-.854,1.467-.638.169-1.298-.214-1.467-.853ZM277.355,163.045c-.169-.639.215-1.299.854-1.468.637-.169,1.298.215,1.467.854.168.638-.215,1.298-.853,1.467-.639.169-1.299-.216-1.468-.853ZM277.952,153.577c-.169-.638.216-1.297.854-1.466s1.298.214,1.467.853c.169.637-.157,1.282-.853,1.467-.638.169-1.299-.216-1.468-.854ZM278.719,156.477c-.169-.639.216-1.298.854-1.467s1.298.215,1.467.854c.169.637-.157,1.282-.853,1.467-.638.169-1.299-.216-1.468-.854ZM279.488,159.376c-.17-.638.215-1.298.853-1.467s1.298.216,1.468.853c.168.639-.158,1.283-.854,1.468-.638.169-1.299-.215-1.467-.854ZM279.658,171.745c-.168-.637.215-1.298.854-1.467.638-.169,1.298.216,1.467.854s-.215,1.297-.853,1.466c-.639.169-1.299-.214-1.468-.853ZM280.255,162.277c-.169-.639.215-1.298.853-1.467s1.299.214,1.468.853c.168.639-.157,1.283-.854,1.468-.638.169-1.299-.216-1.467-.854ZM280.426,174.645c-.169-.639.215-1.298.853-1.467s1.298.215,1.467.854c.169.637-.215,1.297-.853,1.466s-1.298-.216-1.467-.853ZM280.852,152.809c-.169-.638.215-1.297.853-1.466.639-.169,1.299.214,1.467.853.169.637-.156,1.282-.853,1.467-.638.169-1.298-.216-1.467-.854ZM281.194,177.543c-.169-.637.215-1.297.853-1.466.639-.169,1.299.216,1.467.853.169.639-.215,1.299-.853,1.468s-1.298-.216-1.467-.854ZM281.62,155.709c-.169-.639.215-1.298.853-1.467.639-.169,1.298.215,1.467.854.169.637-.156,1.282-.853,1.467-.638.169-1.298-.216-1.467-.854ZM281.961,180.444c-.169-.637.215-1.298.853-1.467s1.298.216,1.467.854c.169.639-.215,1.298-.853,1.467s-1.298-.215-1.467-.854ZM282.388,158.609c-.17-.638.214-1.298.852-1.467.639-.169,1.299.216,1.467.853.17.639-.156,1.283-.852,1.468-.639.169-1.299-.215-1.467-.854ZM282.558,170.977c-.169-.638.215-1.298.854-1.467.638-.169,1.298.215,1.467.854.169.637-.157,1.281-.854,1.466-.638.169-1.298-.215-1.467-.853ZM283.156,161.509c-.169-.639.214-1.298.852-1.467.639-.169,1.299.214,1.467.853.17.639-.155,1.283-.852,1.468-.639.169-1.299-.216-1.467-.854ZM283.326,173.877c-.169-.639.216-1.298.854-1.467s1.298.215,1.467.854c.169.637-.157,1.281-.854,1.466-.637.169-1.298-.216-1.467-.853ZM284.093,176.776c-.168-.637.216-1.297.854-1.466.639-.169,1.299.216,1.467.853.169.639-.157,1.283-.853,1.468-.638.169-1.299-.216-1.468-.854ZM284.861,179.676c-.169-.638.216-1.298.854-1.467s1.298.215,1.467.854-.157,1.282-.853,1.467c-.638.169-1.299-.215-1.468-.854ZM285.459,170.209c-.169-.638.215-1.298.853-1.467s1.298.215,1.467.854c.169.637-.156,1.281-.853,1.466-.639.169-1.298-.215-1.467-.853ZM286.226,173.11c-.169-.639.215-1.298.853-1.467.639-.169,1.298.215,1.467.854.169.637-.156,1.281-.853,1.466-.639.169-1.298-.216-1.467-.853ZM286.994,176.008c-.168-.637.215-1.297.854-1.466.638-.169,1.297.216,1.466.853.169.639-.156,1.283-.853,1.468-.638.169-1.298-.216-1.467-.854ZM287.761,178.909c-.169-.638.215-1.298.853-1.467.639-.169,1.298.215,1.467.854s-.156,1.282-.853,1.467c-.638.169-1.298-.215-1.467-.854Z" fill="#6a90c6"/>
          <path d="M282.814,136.774c-.169-.638.215-1.299.854-1.468.637-.169,1.298.216,1.467.854.169.639-.215,1.298-.853,1.467-.639.169-1.299-.214-1.468-.853ZM283.582,139.674c-.169-.639.215-1.299.854-1.468.638-.169,1.298.215,1.467.854.169.638-.215,1.298-.853,1.467-.639.169-1.299-.215-1.468-.853ZM284.349,142.575c-.168-.639.215-1.299.854-1.468.638-.169,1.298.215,1.467.854.169.638-.215,1.298-.853,1.467s-1.298-.215-1.468-.853ZM284.947,133.107c-.17-.639.215-1.3.852-1.469.639-.169,1.299.216,1.468.854.169.638-.157,1.283-.853,1.467-.639.169-1.299-.215-1.467-.853ZM285.117,145.474c-.168-.638.215-1.299.854-1.468.638-.168,1.298.216,1.467.854s-.215,1.297-.853,1.466c-.639.169-1.299-.214-1.468-.852ZM285.714,136.006c-.169-.638.215-1.299.852-1.468.639-.169,1.299.216,1.468.854.169.639-.156,1.283-.853,1.467-.638.169-1.298-.214-1.467-.853ZM286.482,138.907c-.169-.639.215-1.299.853-1.468s1.298.215,1.467.854c.169.638-.156,1.283-.853,1.467-.638.169-1.298-.215-1.467-.853ZM287.25,141.807c-.169-.639.215-1.299.853-1.468s1.298.215,1.468.854c.168.638-.157,1.283-.854,1.467-.638.169-1.298-.215-1.467-.853ZM287.846,132.339c-.169-.639.215-1.3.853-1.469.639-.169,1.299.216,1.467.854.17.638-.156,1.283-.852,1.467-.639.169-1.299-.215-1.468-.853ZM288.017,144.706c-.169-.638.215-1.299.853-1.468s1.298.216,1.468.854c.168.638-.157,1.282-.854,1.466-.638.169-1.298-.214-1.467-.852ZM288.614,135.239c-.169-.638.215-1.299.853-1.468.639-.169,1.299.216,1.468.854.169.639-.157,1.282-.853,1.467-.639.169-1.299-.214-1.468-.853ZM289.381,138.139c-.169-.639.215-1.299.854-1.468.638-.169,1.298.215,1.467.854.169.638-.157,1.282-.853,1.467-.639.169-1.299-.215-1.468-.853ZM290.15,141.04c-.17-.639.215-1.299.853-1.468s1.298.215,1.467.854c.169.638-.157,1.282-.853,1.467-.639.169-1.299-.215-1.467-.853ZM290.492,165.774c-.17-.638.215-1.299.853-1.468s1.298.216,1.467.854c.169.639-.215,1.298-.853,1.466-.639.169-1.299-.213-1.467-.852ZM290.746,131.572c-.168-.639.215-1.3.854-1.469.638-.169,1.298.216,1.467.854.169.638-.156,1.283-.853,1.467-.638.169-1.298-.215-1.468-.853ZM290.918,143.939c-.17-.638.215-1.299.853-1.468s1.298.216,1.467.854-.157,1.281-.853,1.466c-.639.169-1.299-.214-1.467-.852ZM291.259,168.674c-.17-.638.215-1.299.853-1.468s1.298.216,1.467.854-.215,1.298-.853,1.466c-.639.169-1.299-.214-1.467-.852ZM291.514,134.471c-.169-.638.214-1.299.853-1.468.638-.169,1.298.216,1.467.854.169.639-.156,1.282-.853,1.467-.638.169-1.298-.214-1.467-.853ZM292.027,171.575c-.169-.639.215-1.299.853-1.468s1.298.215,1.467.854c.169.637-.215,1.298-.853,1.466-.639.169-1.299-.215-1.467-.852ZM292.282,137.372c-.169-.639.215-1.299.853-1.468s1.298.215,1.467.854c.169.638-.156,1.282-.853,1.467-.638.169-1.298-.215-1.467-.853ZM292.794,174.473c-.169-.637.215-1.298.854-1.467.637-.168,1.297.216,1.466.853.169.639-.215,1.3-.853,1.468-.638.169-1.298-.215-1.467-.854ZM293.049,140.272c-.169-.639.215-1.299.853-1.468.639-.169,1.299.215,1.467.854.17.638-.156,1.282-.852,1.467-.639.169-1.299-.215-1.468-.853ZM293.391,165.006c-.169-.638.215-1.299.853-1.468.639-.169,1.299.216,1.467.854.17.639-.156,1.282-.853,1.466-.638.169-1.298-.213-1.467-.852ZM293.646,130.803c-.169-.639.215-1.299.853-1.468s1.299.216,1.468.854c.169.637-.157,1.282-.854,1.467-.638.169-1.298-.216-1.467-.854ZM293.817,143.171c-.169-.638.215-1.299.853-1.468.639-.169,1.299.216,1.467.854.169.638-.156,1.281-.853,1.466-.638.169-1.298-.214-1.467-.852ZM294.159,167.907c-.169-.638.215-1.299.853-1.468.639-.169,1.299.216,1.467.854.169.638-.156,1.282-.853,1.466-.638.169-1.298-.214-1.467-.852ZM294.414,133.703c-.169-.638.215-1.298.853-1.467s1.299.216,1.468.853c.169.639-.157,1.283-.854,1.468-.638.169-1.298-.215-1.467-.854ZM294.926,170.807c-.169-.639.215-1.299.853-1.468.639-.169,1.299.215,1.468.854.169.637-.157,1.282-.854,1.466-.638.169-1.298-.215-1.467-.852ZM295.181,136.603c-.169-.639.215-1.298.853-1.467.639-.169,1.299.214,1.468.853s-.157,1.283-.854,1.468c-.638.169-1.298-.216-1.467-.854ZM295.352,148.971c-.169-.638.216-1.298.854-1.467s1.298.215,1.467.853-.157,1.282-.853,1.467c-.639.169-1.299-.215-1.468-.853ZM295.694,173.706c-.169-.637.216-1.298.853-1.467.639-.169,1.299.216,1.468.853.169.639-.157,1.284-.854,1.468-.638.169-1.298-.215-1.467-.854ZM295.949,139.503c-.168-.639.215-1.298.854-1.467.638-.169,1.299.214,1.467.853.17.639-.156,1.283-.854,1.468-.637.169-1.297-.216-1.467-.854ZM296.12,151.872c-.169-.639.216-1.299.854-1.468s1.298.215,1.467.854c.169.638-.157,1.282-.853,1.467-.639.169-1.299-.215-1.468-.853ZM296.291,164.239c-.168-.638.215-1.299.854-1.468s1.298.216,1.467.854c.169.639-.157,1.282-.853,1.466-.639.169-1.298-.213-1.468-.852ZM296.461,176.606c-.169-.638.215-1.299.853-1.468.639-.169,1.299.216,1.468.854.169.639-.157,1.283-.854,1.467-.638.169-1.298-.214-1.467-.853ZM296.546,130.036c-.169-.639.215-1.299.853-1.468s1.298.215,1.468.854c.168.638-.157,1.283-.854,1.468-.638.169-1.298-.216-1.467-.854ZM296.888,154.771c-.17-.638.215-1.299.853-1.468s1.298.216,1.467.854c.169.639-.157,1.283-.853,1.467-.639.169-1.299-.214-1.467-.853ZM297.058,167.139c-.168-.638.215-1.299.854-1.468s1.298.216,1.467.854-.157,1.282-.853,1.466c-.639.169-1.299-.214-1.468-.852ZM297.314,132.935c-.169-.638.215-1.298.853-1.467s1.299.215,1.468.853c.169.639-.157,1.283-.854,1.468-.638.169-1.298-.215-1.467-.854ZM297.656,157.671c-.169-.639.215-1.299.853-1.468s1.298.215,1.467.854c.169.638-.156,1.283-.853,1.467-.638.169-1.299-.215-1.467-.853ZM297.827,170.04c-.169-.639.215-1.299.853-1.468.639-.169,1.298.215,1.467.854.169.637-.156,1.282-.853,1.466-.638.169-1.298-.215-1.467-.852ZM298.082,135.835c-.169-.639.215-1.298.853-1.467.639-.169,1.299.214,1.468.853.169.638-.157,1.283-.854,1.468-.638.169-1.298-.216-1.467-.854ZM298.252,148.203c-.169-.638.215-1.297.853-1.466.639-.169,1.299.215,1.468.852.169.639-.157,1.283-.854,1.468-.638.169-1.298-.216-1.467-.854ZM298.594,172.938c-.169-.637.215-1.298.853-1.467.639-.169,1.299.216,1.467.853.169.639-.156,1.284-.853,1.468-.638.169-1.298-.215-1.467-.854ZM298.849,138.736c-.168-.639.215-1.298.854-1.467.638-.169,1.298.214,1.467.853.169.638-.156,1.283-.854,1.468-.637.169-1.297-.216-1.467-.854ZM299.02,151.103c-.169-.639.215-1.298.853-1.467.639-.169,1.299.214,1.468.853s-.157,1.283-.854,1.468c-.638.169-1.298-.216-1.467-.854ZM299.191,163.471c-.169-.638.215-1.299.854-1.468.637-.169,1.297.216,1.467.854.168.639-.157,1.282-.854,1.466-.638.169-1.298-.213-1.467-.852ZM299.362,175.838c-.169-.638.215-1.299.853-1.468.639-.169,1.298.216,1.467.854.169.639-.156,1.282-.853,1.467-.638.169-1.298-.214-1.467-.853ZM299.446,129.268c-.169-.639.215-1.299.853-1.468.639-.169,1.299.215,1.468.854.169.638-.157,1.283-.853,1.468-.639.169-1.299-.216-1.468-.854ZM299.617,141.635c-.168-.638.215-1.298.854-1.467.638-.169,1.298.215,1.467.853s-.157,1.282-.854,1.467c-.638.169-1.298-.215-1.467-.853ZM299.788,154.002c-.169-.638.215-1.298.853-1.467.639-.169,1.299.215,1.468.854s-.157,1.282-.854,1.467c-.638.169-1.298-.215-1.467-.854ZM299.959,166.372c-.169-.638.215-1.299.854-1.468.637-.169,1.297.216,1.467.854.168.638-.157,1.282-.854,1.466-.638.169-1.298-.214-1.467-.852ZM300.213,132.167c-.169-.638.215-1.298.853-1.467.639-.169,1.299.215,1.468.853.169.639-.157,1.283-.853,1.468-.639.169-1.299-.215-1.468-.854ZM300.384,144.535c-.168-.637.216-1.297.854-1.466s1.298.215,1.467.852c.169.639-.156,1.283-.854,1.468-.637.169-1.297-.215-1.467-.854ZM300.555,156.903c-.169-.639.215-1.298.853-1.467.639-.169,1.299.215,1.468.854.169.637-.157,1.282-.854,1.467-.638.169-1.298-.216-1.467-.854ZM300.726,169.272c-.169-.639.215-1.299.854-1.468.638-.169,1.298.215,1.467.854.168.637-.157,1.282-.854,1.466-.638.169-1.298-.215-1.467-.852ZM300.981,135.068c-.169-.639.215-1.298.854-1.467.638-.169,1.298.214,1.467.853.169.638-.157,1.283-.853,1.468-.639.169-1.299-.216-1.468-.854ZM301.153,147.435c-.169-.638.215-1.297.853-1.466.639-.169,1.299.214,1.467.852.169.638-.156,1.283-.853,1.468-.638.169-1.298-.216-1.467-.854ZM301.494,172.17c-.168-.637.215-1.298.854-1.467.638-.169,1.298.216,1.467.853.169.639-.157,1.284-.853,1.468-.639.169-1.299-.215-1.468-.854ZM301.75,137.968c-.17-.639.215-1.298.853-1.467s1.298.214,1.468.853c.168.638-.158,1.283-.854,1.468-.639.169-1.299-.216-1.467-.854ZM301.92,150.335c-.169-.639.215-1.298.853-1.467.639-.169,1.298.214,1.467.853.169.638-.156,1.283-.853,1.468-.638.169-1.298-.216-1.467-.854ZM302.261,175.071c-.169-.638.215-1.299.854-1.468.638-.169,1.298.216,1.467.854.169.639-.157,1.282-.853,1.467-.639.169-1.299-.214-1.468-.853ZM302.345,128.5c-.168-.639.216-1.299.854-1.468.639-.169,1.299.215,1.467.854.17.638-.156,1.283-.852,1.468-.639.169-1.299-.216-1.469-.854ZM302.517,140.868c-.17-.638.215-1.298.853-1.467s1.298.215,1.468.853c.168.638-.158,1.282-.854,1.467-.639.169-1.299-.215-1.467-.853ZM302.688,153.235c-.169-.638.215-1.298.853-1.467.639-.169,1.299.215,1.467.853.17.639-.156,1.283-.853,1.468-.638.169-1.298-.215-1.467-.854ZM302.859,165.603c-.17-.638.215-1.298.852-1.467.639-.169,1.299.216,1.469.853.168.639-.158,1.282-.854,1.467-.638.169-1.298-.215-1.466-.853ZM303.114,131.4c-.169-.638.215-1.298.853-1.467.639-.169,1.299.215,1.468.853.169.639-.157,1.283-.853,1.468-.639.169-1.299-.215-1.468-.854ZM303.285,143.767c-.169-.637.215-1.297.853-1.466.639-.169,1.299.215,1.468.852.168.639-.158,1.283-.854,1.468-.639.169-1.299-.215-1.467-.854ZM303.456,156.135c-.169-.639.215-1.298.853-1.467.639-.169,1.299.214,1.467.853.17.638-.156,1.283-.853,1.468-.638.169-1.298-.216-1.467-.854ZM303.626,168.503c-.169-.639.215-1.298.853-1.467s1.299.214,1.468.853c.168.637-.158,1.282-.854,1.467-.639.169-1.299-.216-1.467-.853ZM303.881,134.3c-.169-.639.215-1.298.854-1.467.638-.169,1.298.214,1.467.853.169.638-.157,1.283-.853,1.468-.639.169-1.299-.216-1.468-.854ZM304.052,146.667c-.169-.638.215-1.297.854-1.466.638-.169,1.298.214,1.467.852s-.157,1.283-.854,1.468c-.638.169-1.298-.216-1.467-.854ZM304.223,159.036c-.169-.639.215-1.298.853-1.467.639-.169,1.299.214,1.468.853.169.638-.157,1.283-.854,1.468-.638.169-1.298-.216-1.467-.854ZM304.394,171.402c-.169-.637.215-1.297.853-1.466s1.299.215,1.468.852c.169.639-.157,1.284-.854,1.469-.638.169-1.298-.216-1.467-.854ZM304.649,137.201c-.169-.639.216-1.298.854-1.467s1.298.214,1.467.853c.169.638-.157,1.283-.853,1.468-.639.169-1.299-.216-1.468-.854ZM304.82,149.568c-.169-.639.215-1.298.854-1.467.638-.169,1.298.214,1.467.853.169.638-.157,1.283-.854,1.468-.638.169-1.298-.216-1.467-.854ZM304.992,161.935c-.17-.638.215-1.298.852-1.467.639-.169,1.299.215,1.468.853.169.639-.157,1.282-.854,1.467-.638.169-1.298-.214-1.466-.853ZM305.162,174.302c-.169-.638.215-1.298.853-1.467s1.299.216,1.468.853c.169.639-.157,1.283-.854,1.468-.638.169-1.298-.215-1.467-.854ZM305.417,140.1c-.169-.638.216-1.298.854-1.467s1.298.215,1.467.853-.157,1.282-.853,1.467c-.639.169-1.299-.215-1.468-.853ZM305.587,152.467c-.169-.638.215-1.298.854-1.467.638-.169,1.298.215,1.467.853.169.639-.157,1.283-.854,1.468-.638.169-1.298-.215-1.467-.854ZM305.759,164.835c-.17-.638.215-1.298.852-1.467.639-.169,1.299.215,1.468.853s-.157,1.282-.854,1.467c-.638.169-1.298-.215-1.466-.853ZM306.014,130.632c-.169-.638.214-1.299.853-1.468.638-.168,1.298.216,1.467.854.169.639-.156,1.283-.853,1.467-.638.169-1.298-.214-1.467-.853ZM306.184,142.999c-.169-.637.216-1.297.854-1.466s1.298.215,1.467.852c.169.639-.157,1.283-.853,1.468-.639.169-1.299-.215-1.468-.854ZM306.355,155.368c-.169-.639.215-1.298.854-1.467.638-.169,1.298.214,1.467.853.169.638-.157,1.283-.853,1.468-.639.169-1.299-.216-1.468-.854ZM306.527,167.736c-.169-.639.215-1.298.853-1.467s1.298.214,1.467.853c.169.637-.157,1.282-.853,1.467-.639.169-1.299-.216-1.467-.853ZM306.782,133.533c-.169-.639.215-1.299.853-1.468.638-.168,1.298.215,1.467.854.169.638-.156,1.283-.853,1.467-.638.169-1.298-.215-1.467-.853ZM306.952,145.9c-.169-.638.216-1.297.854-1.466.637-.169,1.297.214,1.466.852s-.156,1.283-.853,1.468c-.638.169-1.299-.216-1.468-.854ZM307.123,158.268c-.169-.639.215-1.298.854-1.467.638-.169,1.298.214,1.467.853.169.638-.157,1.283-.853,1.468-.639.169-1.299-.216-1.468-.854ZM307.294,170.634c-.169-.637.215-1.297.853-1.466s1.298.215,1.467.852c.169.639-.156,1.284-.853,1.469-.638.169-1.298-.216-1.467-.854ZM307.549,136.433c-.169-.639.215-1.299.853-1.468.639-.168,1.299.215,1.467.854.17.638-.156,1.283-.852,1.467-.639.169-1.299-.215-1.468-.853ZM307.719,148.8c-.169-.639.216-1.298.854-1.467.637-.169,1.297.214,1.466.853.169.638-.156,1.283-.853,1.468-.638.169-1.299-.216-1.468-.854ZM307.89,161.167c-.168-.638.215-1.298.854-1.467s1.299.215,1.467.853c.17.639-.157,1.282-.853,1.467-.639.169-1.298-.214-1.468-.853ZM308.062,173.535c-.169-.638.215-1.298.853-1.467s1.298.215,1.467.853c.169.639-.156,1.283-.853,1.468-.638.169-1.298-.215-1.467-.854ZM308.317,139.332c-.169-.638.215-1.299.853-1.468.639-.169,1.299.216,1.467.854.169.638-.156,1.282-.853,1.466-.638.169-1.298-.214-1.467-.852ZM308.488,151.7c-.17-.638.215-1.298.854-1.467.637-.169,1.297.215,1.467.853.168.639-.157,1.283-.854,1.468-.638.169-1.299-.215-1.467-.854ZM308.658,164.068c-.168-.638.215-1.298.854-1.467s1.299.215,1.467.853c.169.638-.157,1.282-.853,1.467-.639.169-1.299-.215-1.468-.853ZM309.084,142.232c-.169-.637.215-1.298.854-1.467.638-.169,1.298.216,1.466.853.17.639-.156,1.283-.852,1.467-.639.169-1.299-.214-1.468-.853ZM309.255,154.6c-.169-.639.215-1.298.854-1.467.637-.169,1.298.214,1.467.853.168.638-.157,1.283-.853,1.468-.639.169-1.3-.216-1.468-.854ZM309.426,166.968c-.169-.639.215-1.298.853-1.467.639-.169,1.299.214,1.468.853.169.637-.157,1.282-.854,1.467-.638.169-1.298-.216-1.467-.853ZM309.852,145.132c-.169-.638.216-1.298.854-1.467s1.298.215,1.467.853-.157,1.283-.853,1.467c-.639.169-1.299-.215-1.468-.853ZM310.023,157.5c-.169-.639.215-1.298.854-1.467.638-.169,1.298.214,1.467.853.169.638-.157,1.283-.853,1.468-.639.169-1.299-.216-1.468-.854ZM310.194,169.867c-.169-.637.215-1.297.853-1.466.639-.169,1.299.215,1.468.852.169.639-.157,1.284-.854,1.469-.638.169-1.298-.216-1.467-.854ZM310.62,148.033c-.169-.639.216-1.299.854-1.468.638-.168,1.298.215,1.467.854.169.638-.157,1.283-.853,1.467-.639.169-1.299-.215-1.468-.853ZM310.791,160.4c-.169-.638.215-1.298.854-1.467.638-.169,1.298.215,1.467.853.169.639-.157,1.282-.853,1.467-.639.169-1.299-.214-1.468-.853ZM310.961,172.767c-.169-.638.215-1.298.853-1.467.639-.169,1.299.215,1.468.853.169.639-.157,1.283-.854,1.468-.638.169-1.298-.215-1.467-.854ZM311.558,163.3c-.169-.638.215-1.298.854-1.467.638-.169,1.298.215,1.467.853s-.157,1.282-.853,1.467c-.639.169-1.299-.215-1.468-.853ZM312.156,153.832c-.169-.639.215-1.299.853-1.468s1.298.215,1.467.854c.169.638-.156,1.283-.853,1.467-.638.169-1.299-.215-1.467-.853ZM312.326,166.201c-.169-.639.216-1.298.854-1.467s1.298.214,1.467.853c.169.637-.156,1.282-.853,1.467-.638.169-1.299-.216-1.468-.853ZM312.923,156.733c-.169-.639.215-1.299.853-1.468s1.298.215,1.467.854c.169.638-.156,1.283-.853,1.467-.638.169-1.298-.215-1.467-.853ZM313.093,169.099c-.168-.637.216-1.297.854-1.466.639-.169,1.299.215,1.467.852.169.639-.156,1.284-.853,1.469-.638.169-1.299-.216-1.468-.854ZM313.691,159.632c-.169-.638.215-1.299.854-1.468.637-.168,1.297.216,1.467.854.168.639-.157,1.282-.854,1.466-.638.169-1.298-.213-1.467-.852ZM313.861,171.999c-.169-.638.216-1.298.854-1.467s1.298.215,1.467.853c.169.639-.156,1.283-.853,1.468-.638.169-1.299-.215-1.468-.854ZM314.459,162.533c-.169-.638.215-1.299.854-1.468.637-.168,1.297.216,1.467.854.168.638-.157,1.282-.854,1.466-.638.169-1.298-.214-1.467-.852ZM315.226,165.433c-.169-.639.215-1.299.854-1.468.638-.168,1.298.215,1.467.854.168.637-.157,1.282-.854,1.466-.638.169-1.298-.215-1.467-.852ZM315.994,168.331c-.168-.637.215-1.298.854-1.467.638-.169,1.298.216,1.467.853.169.639-.157,1.284-.853,1.468-.639.169-1.299-.215-1.468-.854Z" fill="#6a90c6"/>
          <path d="M314.135,128.483c.169.639-.215,1.298-.853,1.467-.639.169-1.299-.215-1.468-.854-.169-.638.157-1.282.853-1.467.639-.169,1.299.215,1.468.854ZM314.903,131.383c.169.637-.215,1.298-.853,1.467-.639.169-1.299-.216-1.468-.854-.169-.639.157-1.282.854-1.467.638-.169,1.298.215,1.467.854ZM315.67,134.284c.169.637-.215,1.298-.853,1.467-.639.169-1.299-.216-1.467-.854-.17-.639.156-1.282.853-1.467.638-.169,1.298.215,1.467.854ZM316.267,124.815c.169.638-.215,1.299-.854,1.468-.637.169-1.297-.216-1.467-.854-.168-.639.157-1.284.854-1.468.638-.169,1.298.215,1.467.854ZM316.438,137.182c.169.639-.215,1.298-.853,1.467-.639.169-1.299-.215-1.467-.853-.17-.638.156-1.282.853-1.467.638-.169,1.298.216,1.467.853ZM317.035,127.714c.169.639-.215,1.299-.853,1.468s-1.298-.215-1.467-.854c-.169-.638.156-1.283.853-1.467.638-.169,1.298.215,1.467.853ZM317.206,140.082c.169.639-.215,1.298-.853,1.467-.639.169-1.299-.215-1.467-.854-.169-.637.156-1.281.853-1.466.638-.169,1.298.216,1.467.853ZM317.802,130.615c.169.638-.215,1.299-.853,1.468s-1.298-.216-1.467-.854c-.169-.639.156-1.283.853-1.467.638-.169,1.298.214,1.467.853ZM317.973,142.983c.169.637-.215,1.298-.853,1.467s-1.298-.216-1.467-.854.156-1.281.854-1.466c.637-.169,1.297.214,1.466.853ZM318.57,133.515c.17.638-.215,1.299-.853,1.468s-1.298-.216-1.467-.854c-.169-.639.157-1.283.853-1.467.639-.169,1.299.214,1.467.853ZM318.741,145.883c.169.637-.215,1.298-.853,1.467s-1.298-.216-1.467-.854c-.169-.639.156-1.282.854-1.467.637-.169,1.297.215,1.466.854ZM319.168,124.047c.168.638-.215,1.299-.854,1.468-.638.169-1.298-.216-1.467-.854-.169-.639.156-1.284.854-1.468.638-.169,1.297.215,1.467.854ZM319.337,136.415c.169.638-.215,1.298-.853,1.467s-1.298-.215-1.467-.853.157-1.283.853-1.467c.639-.169,1.299.215,1.467.853ZM319.509,148.782c.168.639-.215,1.299-.854,1.468-.638.169-1.298-.215-1.467-.854-.169-.638.156-1.282.854-1.467.637-.169,1.297.216,1.467.853ZM319.935,126.947c.169.639-.215,1.299-.853,1.468-.639.169-1.299-.215-1.468-.854-.169-.638.156-1.283.854-1.467.638-.169,1.298.215,1.467.853ZM320.105,139.314c.17.639-.215,1.299-.853,1.468s-1.298-.215-1.467-.854c-.169-.637.157-1.282.853-1.466.639-.169,1.299.215,1.467.852ZM320.703,129.847c.169.638-.215,1.299-.853,1.468-.639.169-1.299-.216-1.468-.854-.169-.639.157-1.283.854-1.467.638-.169,1.298.214,1.467.853ZM320.874,142.214c.169.638-.215,1.299-.854,1.468-.638.169-1.298-.216-1.467-.854s.157-1.282.853-1.466c.639-.169,1.299.214,1.468.852ZM321.47,132.748c.169.638-.215,1.299-.853,1.468s-1.298-.216-1.468-.854c-.168-.639.157-1.283.854-1.467.639-.169,1.298.214,1.467.853ZM321.641,145.115c.169.638-.215,1.299-.854,1.468-.638.169-1.298-.216-1.467-.854-.169-.639.157-1.283.853-1.467.639-.169,1.299.214,1.468.853ZM322.067,123.28c.169.638-.215,1.299-.853,1.467-.639.17-1.299-.215-1.467-.853-.17-.639.156-1.284.853-1.468.638-.169,1.298.215,1.467.854ZM322.238,135.647c.169.638-.215,1.298-.853,1.467-.639.169-1.299-.215-1.468-.853-.168-.638.157-1.283.854-1.467.639-.169,1.298.215,1.467.853ZM322.409,148.014c.169.639-.215,1.299-.853,1.468-.639.169-1.299-.215-1.467-.854-.17-.638.156-1.283.852-1.467.639-.169,1.299.215,1.468.853ZM322.58,160.383c.169.637-.215,1.297-.853,1.466-.639.169-1.299-.215-1.468-.853-.168-.638.157-1.282.854-1.467.638-.169,1.298.215,1.467.854ZM322.834,126.179c.169.639-.215,1.299-.853,1.468-.638.168-1.298-.215-1.467-.854-.169-.638.156-1.283.853-1.467.638-.169,1.298.215,1.467.853ZM323.005,138.546c.169.639-.215,1.299-.853,1.468s-1.298-.215-1.468-.854c-.168-.637.157-1.282.854-1.466.639-.169,1.298.215,1.467.852ZM323.176,150.915c.169.638-.215,1.299-.853,1.468s-1.299-.216-1.467-.854c-.169-.639.156-1.283.852-1.467.639-.169,1.299.214,1.468.853ZM323.347,163.284c.169.637-.215,1.297-.853,1.466s-1.298-.216-1.467-.853c-.169-.639.156-1.282.853-1.467.638-.169,1.298.215,1.467.854ZM323.602,129.08c.169.638-.215,1.299-.853,1.468-.638.168-1.298-.216-1.467-.854-.169-.639.156-1.283.853-1.467.638-.169,1.298.214,1.467.853ZM323.773,141.447c.169.638-.214,1.299-.853,1.468-.638.169-1.298-.216-1.467-.854s.157-1.282.853-1.466c.639-.169,1.299.214,1.467.852ZM324.115,166.182c.169.639-.215,1.299-.853,1.468s-1.298-.216-1.467-.854c-.169-.637.157-1.281.853-1.466.639-.169,1.299.216,1.467.853ZM324.371,131.98c.168.638-.215,1.299-.854,1.468-.638.168-1.298-.216-1.467-.854-.169-.639.156-1.283.854-1.467.637-.169,1.297.214,1.467.853ZM324.541,144.347c.169.638-.214,1.299-.853,1.468-.638.169-1.298-.216-1.467-.854-.169-.639.157-1.283.853-1.467.639-.169,1.298.214,1.467.853ZM324.882,169.082c.169.639-.215,1.298-.853,1.467s-1.298-.215-1.467-.854c-.169-.638.215-1.298.853-1.467s1.298.215,1.467.854ZM324.967,122.512c.169.638-.216,1.299-.854,1.467-.638.169-1.298-.215-1.467-.853-.169-.639.157-1.284.853-1.468.639-.17,1.299.215,1.468.854ZM325.138,134.879c.168.638-.216,1.298-.854,1.467-.638.168-1.298-.215-1.467-.853s.156-1.283.854-1.468c.637-.168,1.297.216,1.467.854ZM325.308,147.247c.17.639-.214,1.299-.852,1.468-.639.169-1.299-.215-1.468-.854-.169-.638.157-1.283.853-1.467.639-.169,1.299.215,1.467.853ZM325.48,159.615c.168.638-.216,1.298-.854,1.467s-1.298-.215-1.467-.853.156-1.283.853-1.467c.638-.169,1.298.215,1.468.853ZM325.735,125.412c.169.639-.215,1.298-.854,1.468-.638.168-1.298-.215-1.467-.854-.169-.638.157-1.283.853-1.467.639-.17,1.299.215,1.468.853ZM325.906,137.779c.168.639-.215,1.299-.854,1.468-.638.168-1.298-.215-1.467-.854-.169-.637.157-1.282.854-1.467.638-.168,1.298.216,1.467.853ZM326.076,150.147c.17.638-.214,1.299-.852,1.468-.639.169-1.299-.216-1.468-.854-.169-.639.157-1.283.853-1.467.639-.169,1.299.214,1.467.853ZM326.248,162.515c.168.637-.215,1.298-.854,1.467-.638.169-1.298-.216-1.467-.853-.169-.639.157-1.283.853-1.467.639-.169,1.299.214,1.468.853ZM326.502,128.312c.169.638-.215,1.298-.854,1.468-.638.168-1.298-.216-1.467-.854-.169-.639.157-1.283.853-1.467.639-.17,1.299.214,1.468.853ZM326.673,140.679c.169.638-.215,1.299-.853,1.468-.639.168-1.299-.216-1.468-.854-.168-.638.157-1.282.854-1.467.638-.168,1.298.215,1.467.853ZM327.015,165.414c.169.639-.215,1.3-.854,1.469-.638.169-1.298-.216-1.467-.854-.168-.637.157-1.282.854-1.466.638-.169,1.298.215,1.467.852ZM327.271,131.212c.168.638-.216,1.298-.854,1.468-.639.168-1.299-.216-1.467-.854-.17-.639.156-1.283.852-1.467.639-.17,1.299.214,1.469.853ZM327.441,143.58c.169.638-.215,1.299-.853,1.468-.639.168-1.299-.216-1.468-.854-.169-.639.157-1.283.854-1.467.638-.169,1.298.214,1.467.853ZM327.783,168.314c.169.639-.215,1.299-.854,1.468-.638.169-1.298-.215-1.467-.854-.169-.638.157-1.283.853-1.467.639-.169,1.299.215,1.468.853ZM327.867,121.745c.17.638-.215,1.298-.853,1.467s-1.298-.215-1.467-.853c-.169-.639.157-1.284.853-1.469.639-.169,1.299.216,1.467.854ZM328.209,146.479c.169.639-.215,1.299-.853,1.467-.638.17-1.298-.214-1.468-.853-.168-.638.157-1.283.854-1.468.638-.168,1.298.216,1.467.854ZM328.379,158.847c.169.638-.215,1.298-.853,1.467-.639.169-1.299-.215-1.467-.853-.17-.638.156-1.283.853-1.467.638-.169,1.298.215,1.467.853ZM328.635,124.644c.169.639-.215,1.298-.854,1.467-.638.169-1.298-.214-1.467-.853-.169-.638.157-1.283.853-1.468.639-.169,1.299.216,1.468.854ZM328.976,149.379c.169.638-.215,1.299-.853,1.467-.638.17-1.298-.215-1.468-.853-.168-.639.157-1.283.854-1.468.638-.168,1.298.215,1.467.854ZM329.147,161.748c.169.637-.214,1.298-.853,1.467s-1.299-.216-1.467-.853c-.169-.639.156-1.283.853-1.467.639-.169,1.298.214,1.467.853ZM329.403,127.544c.169.638-.215,1.298-.854,1.467-.638.169-1.298-.215-1.467-.853-.169-.639.157-1.283.853-1.468.639-.169,1.299.215,1.468.854ZM329.574,139.912c.169.638-.216,1.298-.854,1.468-.638.168-1.298-.216-1.467-.854s.157-1.282.853-1.467c.638-.168,1.299.215,1.468.853ZM329.915,164.646c.169.639-.214,1.3-.853,1.469-.638.169-1.298-.216-1.467-.854-.169-.637.156-1.282.854-1.466.638-.169,1.297.215,1.466.852ZM330.17,130.445c.169.638-.215,1.298-.853,1.467-.639.169-1.299-.215-1.467-.853-.17-.639.156-1.283.852-1.468.639-.169,1.299.215,1.468.854ZM330.341,142.812c.169.638-.216,1.298-.854,1.468-.638.168-1.298-.216-1.467-.854-.169-.639.157-1.283.853-1.467.638-.17,1.299.214,1.468.853ZM330.682,167.546c.169.639-.214,1.299-.853,1.468-.638.169-1.298-.215-1.467-.854-.169-.638.156-1.283.853-1.467.639-.169,1.298.215,1.467.853ZM330.767,120.977c.169.638-.215,1.298-.854,1.467-.638.169-1.298-.215-1.467-.853-.169-.639.157-1.284.854-1.469.638-.169,1.298.216,1.467.854ZM330.938,133.344c.169.638-.215,1.297-.854,1.466-.638.169-1.298-.214-1.466-.852-.17-.638.156-1.283.852-1.468.639-.169,1.299.216,1.468.854ZM331.109,145.711c.169.639-.215,1.299-.854,1.467-.638.169-1.298-.214-1.467-.853-.169-.638.157-1.283.853-1.468.638-.168,1.299.216,1.468.854ZM331.279,158.08c.169.638-.215,1.298-.853,1.466-.638.17-1.298-.214-1.467-.852s.157-1.283.853-1.467c.639-.169,1.299.215,1.467.853ZM331.535,123.876c.169.639-.215,1.298-.853,1.467-.639.169-1.299-.214-1.468-.853-.169-.638.157-1.283.854-1.468.638-.169,1.298.216,1.467.854ZM331.706,136.244c.169.639-.215,1.298-.853,1.467-.639.169-1.299-.214-1.467-.853-.169-.637.156-1.282.853-1.467.638-.169,1.298.216,1.467.853ZM331.876,148.612c.169.638-.215,1.299-.854,1.467-.638.169-1.298-.215-1.467-.853-.169-.639.157-1.283.853-1.468.638-.168,1.299.215,1.468.854ZM332.047,160.98c.169.637-.216,1.298-.853,1.466-.639.17-1.299-.215-1.468-.852-.169-.639.157-1.283.854-1.467.638-.169,1.298.214,1.467.853ZM332.302,126.777c.169.638-.215,1.298-.853,1.467-.639.169-1.299-.215-1.468-.853-.169-.639.157-1.283.854-1.468.638-.169,1.298.215,1.467.854ZM332.473,139.144c.169.638-.215,1.298-.853,1.467s-1.298-.215-1.467-.853.156-1.282.853-1.467c.638-.169,1.298.215,1.467.853ZM332.815,163.878c.169.639-.215,1.3-.853,1.468-.639.17-1.299-.215-1.468-.854-.169-.637.157-1.282.854-1.467.638-.168,1.298.216,1.467.853ZM333.07,129.677c.17.638-.215,1.298-.853,1.467s-1.298-.215-1.468-.853c-.168-.639.158-1.283.854-1.468.639-.169,1.299.215,1.467.854ZM333.241,142.044c.169.638-.215,1.298-.853,1.467s-1.298-.215-1.467-.853c-.169-.639.156-1.283.853-1.468.638-.169,1.298.215,1.467.854ZM333.583,166.779c.169.639-.215,1.299-.853,1.468-.639.168-1.299-.215-1.468-.854-.169-.638.157-1.283.854-1.467.638-.169,1.298.215,1.467.853ZM333.668,120.209c.168.638-.215,1.298-.854,1.467-.638.169-1.298-.215-1.467-.854s.156-1.283.854-1.468c.637-.169,1.297.216,1.467.854ZM333.837,132.577c.169.638-.215,1.297-.853,1.466-.639.169-1.299-.214-1.468-.852-.168-.638.158-1.283.854-1.468.639-.169,1.299.216,1.467.854ZM334.009,144.944c.168.639-.215,1.298-.854,1.467-.638.169-1.298-.214-1.467-.853-.169-.638.156-1.283.853-1.468.638-.169,1.298.216,1.468.854ZM334.179,157.312c.169.638-.215,1.298-.854,1.466-.638.169-1.298-.214-1.467-.852-.168-.638.158-1.283.854-1.467.638-.17,1.299.215,1.467.853ZM334.435,123.109c.169.639-.215,1.298-.853,1.467-.639.169-1.299-.214-1.468-.853s.156-1.283.854-1.468c.637-.169,1.298.216,1.467.854ZM334.605,135.476c.17.639-.215,1.298-.853,1.467s-1.298-.214-1.468-.853c-.168-.637.158-1.282.854-1.467.639-.169,1.299.216,1.467.853ZM334.777,147.844c.168.638-.215,1.298-.854,1.467-.638.169-1.298-.215-1.467-.853-.169-.639.156-1.283.853-1.468.638-.169,1.299.215,1.468.854ZM334.948,160.212c.169.637-.216,1.298-.854,1.466-.637.169-1.297-.215-1.466-.852-.169-.639.157-1.283.853-1.467.638-.17,1.299.214,1.468.853ZM335.203,126.009c.169.638-.215,1.298-.853,1.467-.639.169-1.299-.216-1.468-.853-.169-.639.157-1.283.854-1.468.638-.169,1.298.215,1.467.854ZM335.374,138.376c.169.638-.215,1.298-.854,1.467-.638.169-1.298-.215-1.467-.853s.157-1.282.853-1.467c.639-.169,1.299.215,1.468.853ZM335.544,150.745c.169.638-.215,1.298-.854,1.467-.638.169-1.298-.215-1.467-.853-.169-.639.157-1.283.853-1.468.639-.169,1.299.215,1.468.854ZM335.715,163.111c.169.639-.216,1.3-.854,1.468-.638.169-1.298-.215-1.467-.854-.169-.637.157-1.282.853-1.467.639-.168,1.299.216,1.468.853ZM335.97,128.91c.169.638-.215,1.298-.853,1.467s-1.298-.216-1.468-.853c-.168-.639.157-1.283.854-1.468.638-.169,1.298.215,1.467.854ZM336.141,141.277c.169.638-.215,1.298-.854,1.467-.638.169-1.298-.215-1.467-.853-.169-.639.157-1.283.853-1.468.639-.169,1.299.215,1.468.854ZM336.312,153.644c.169.639-.215,1.297-.854,1.466-.638.169-1.297-.213-1.467-.852-.168-.638.157-1.283.854-1.468.638-.169,1.298.216,1.467.854ZM336.483,166.011c.169.639-.216,1.298-.854,1.468-.638.168-1.298-.215-1.467-.854-.169-.638.157-1.283.853-1.467.638-.17,1.299.215,1.468.853ZM336.738,131.809c.169.638-.215,1.297-.853,1.466-.639.169-1.299-.214-1.468-.853-.168-.637.157-1.282.854-1.467.638-.169,1.298.216,1.467.854ZM336.909,144.176c.169.639-.215,1.298-.853,1.467-.639.169-1.299-.214-1.468-.853-.169-.638.157-1.283.853-1.468.639-.169,1.299.216,1.468.854ZM337.08,156.544c.169.638-.215,1.297-.854,1.466-.638.169-1.298-.214-1.467-.852-.168-.638.157-1.283.854-1.468.638-.169,1.298.216,1.467.854ZM337.334,122.34c.169.639-.215,1.299-.853,1.468s-1.298-.215-1.467-.854c-.169-.638.215-1.298.853-1.467s1.298.216,1.467.853ZM337.505,134.708c.169.639-.215,1.298-.853,1.467s-1.298-.214-1.468-.853c-.168-.637.157-1.282.854-1.467.638-.169,1.298.216,1.467.853ZM337.676,147.077c.169.638-.215,1.298-.853,1.467-.639.169-1.299-.215-1.468-.853-.169-.639.157-1.283.853-1.468.639-.169,1.299.215,1.468.854ZM337.847,159.445c.169.637-.215,1.297-.854,1.466-.637.169-1.297-.215-1.466-.852-.169-.639.156-1.283.853-1.468.638-.169,1.298.215,1.467.854ZM338.102,125.241c.169.639-.215,1.299-.853,1.468s-1.298-.216-1.467-.854c-.169-.639.215-1.298.853-1.467s1.298.214,1.467.853ZM338.273,137.609c.169.638-.215,1.298-.853,1.467s-1.298-.216-1.467-.853c-.169-.639.157-1.282.853-1.467.639-.169,1.299.215,1.467.853ZM338.444,149.977c.169.638-.215,1.298-.853,1.467-.639.169-1.299-.215-1.468-.853-.169-.639.157-1.283.854-1.468.638-.169,1.298.215,1.467.854ZM338.615,162.343c.169.639-.215,1.299-.853,1.468s-1.298-.215-1.467-.854c-.169-.637.157-1.282.853-1.467.639-.169,1.299.216,1.467.853ZM338.871,128.141c.168.639-.215,1.299-.854,1.468-.638.169-1.298-.216-1.467-.854-.169-.639.215-1.298.854-1.467.637-.169,1.297.214,1.467.853ZM339.041,140.509c.169.638-.215,1.298-.853,1.467s-1.298-.216-1.467-.853c-.169-.639.157-1.283.853-1.468.639-.169,1.298.215,1.467.854ZM339.212,152.876c.168.639-.216,1.297-.854,1.466-.639.169-1.299-.213-1.467-.852-.17-.638.156-1.283.853-1.468.638-.169,1.298.216,1.468.854ZM339.382,165.244c.169.639-.215,1.298-.853,1.467s-1.298-.214-1.467-.853c-.169-.638.156-1.283.853-1.468.638-.169,1.298.216,1.467.854ZM339.638,131.041c.168.637-.216,1.297-.854,1.466s-1.298-.215-1.467-.853.215-1.298.854-1.467c.637-.169,1.297.215,1.467.854ZM339.808,143.409c.17.639-.215,1.298-.852,1.467-.639.169-1.299-.215-1.468-.854-.169-.637.157-1.282.853-1.467.639-.169,1.299.216,1.467.854ZM339.98,155.777c.168.638-.216,1.297-.854,1.466-.639.169-1.299-.214-1.467-.852-.17-.638.156-1.283.853-1.468.638-.169,1.298.216,1.468.854ZM340.406,133.94c.168.639-.215,1.299-.854,1.468-.638.169-1.298-.215-1.467-.854-.169-.637.215-1.297.854-1.466.638-.169,1.298.215,1.467.852ZM340.576,146.309c.17.638-.214,1.298-.852,1.467-.639.169-1.299-.215-1.468-.854s.157-1.282.853-1.467c.639-.169,1.299.215,1.467.854ZM340.748,158.677c.168.637-.215,1.297-.854,1.466s-1.299-.215-1.467-.852c-.169-.639.157-1.283.853-1.468.639-.169,1.299.215,1.468.854ZM341.173,136.84c.169.639-.215,1.299-.853,1.468-.639.169-1.299-.216-1.468-.854-.168-.638.215-1.297.854-1.466.638-.169,1.298.215,1.467.852ZM341.344,149.209c.169.638-.215,1.298-.853,1.467-.639.169-1.299-.215-1.468-.854s.157-1.282.854-1.467c.638-.169,1.298.215,1.467.854ZM341.515,161.576c.169.639-.215,1.299-.854,1.468-.638.169-1.298-.215-1.467-.854-.169-.637.157-1.282.854-1.467.638-.169,1.298.216,1.467.853ZM341.941,139.741c.169.639-.215,1.299-.853,1.468-.639.169-1.299-.216-1.468-.854-.169-.639.215-1.298.854-1.467.638-.169,1.298.214,1.467.853ZM342.112,152.109c.169.639-.215,1.297-.853,1.466-.639.169-1.299-.213-1.467-.852-.17-.639.156-1.283.853-1.468.638-.169,1.298.216,1.467.854ZM342.283,164.476c.169.639-.215,1.298-.854,1.467-.638.169-1.298-.214-1.467-.853-.169-.638.157-1.283.853-1.468.639-.169,1.299.216,1.468.854ZM342.709,142.641c.169.639-.215,1.298-.853,1.467s-1.298-.215-1.468-.854c-.168-.638.215-1.298.854-1.467.638-.169,1.298.215,1.467.854ZM342.879,155.009c.169.638-.215,1.297-.853,1.466-.639.169-1.299-.215-1.467-.852-.17-.639.156-1.283.853-1.468.638-.169,1.298.216,1.467.854ZM343.476,145.541c.169.637-.215,1.298-.853,1.467s-1.298-.216-1.468-.854c-.168-.639.215-1.298.854-1.467.638-.169,1.298.215,1.467.854ZM343.647,157.91c.169.637-.215,1.297-.853,1.466-.639.169-1.299-.215-1.467-.852-.169-.639.156-1.283.853-1.468.638-.169,1.298.215,1.467.854ZM344.244,148.442c.169.637-.215,1.298-.853,1.467s-1.298-.216-1.467-.854c-.169-.639.215-1.298.853-1.467s1.298.215,1.467.854ZM344.415,160.808c.169.639-.215,1.299-.853,1.468s-1.298-.215-1.467-.854c-.169-.637.156-1.282.854-1.467.637-.169,1.297.216,1.466.853ZM345.011,151.34c.17.639-.215,1.298-.853,1.467s-1.298-.214-1.467-.853c-.169-.638.215-1.298.853-1.467.639-.169,1.299.216,1.467.853ZM345.182,163.708c.169.639-.215,1.298-.853,1.467s-1.298-.214-1.467-.853.156-1.283.853-1.468c.638-.169,1.298.216,1.467.854ZM345.779,154.241c.169.639-.215,1.298-.853,1.467s-1.298-.215-1.467-.853.215-1.298.853-1.467c.639-.169,1.299.216,1.467.853ZM346.547,157.141c.169.637-.216,1.298-.853,1.467-.639.169-1.299-.216-1.468-.853-.169-.639.215-1.298.854-1.467.638-.169,1.298.214,1.467.853ZM347.315,160.04c.169.639-.215,1.3-.853,1.469-.639.169-1.299-.216-1.468-.854-.169-.637.216-1.297.854-1.466s1.298.215,1.467.852Z" fill="#6a90c6"/>
        </g>
      </g>
    </g>
  </g>
</svg>