<?xml version="1.0" encoding="UTF-8"?>
<svg xmlns="http://www.w3.org/2000/svg" width="400" height="360" xmlns:xlink="http://www.w3.org/1999/xlink" viewBox="0 0 400 360">
  <defs>
    <pattern id="c" data-name="40 % 10 ppp 2" x="0" y="0" width="9.29" height="9.29" patternTransform="translate(-980.291 -52.409)" patternUnits="userSpaceOnUse" viewBox="0 0 9.29 9.29">
      <g>
        <rect width="9.29" height="9.29" fill="none"/>
        <g>
          <circle cx="8.312" cy="8.312" r=".978" fill="#1d1d1b"/>
          <circle cx="3.423" cy="8.312" r=".978" fill="#1d1d1b"/>
          <path d="M8.312,4.401c.54,0,.978-.438.978-.978s-.438-.978-.978-.978-.978.438-.978.978.438.978.978.978Z" fill="#1d1d1b"/>
          <path d="M3.423,4.401c.54,0,.978-.438.978-.978s-.438-.978-.978-.978-.978.438-.978.978.438.978.978.978Z" fill="#1d1d1b"/>
          <path d="M.978,6.845c.54,0,.978-.438.978-.978s-.438-.978-.978-.978S0,5.327,0,5.868s.438.978.978.978Z" fill="#1d1d1b"/>
          <circle cx="5.868" cy="5.868" r=".978" fill="#1d1d1b"/>
          <path d="M.978,1.956c.54,0,.978-.438.978-.978S1.518,0,.978,0,0,.438,0,.978s.438.978.978.978Z" fill="#1d1d1b"/>
          <circle cx="5.868" cy=".978" r=".978" fill="#1d1d1b"/>
        </g>
      </g>
    </pattern>
    <linearGradient id="d" data-name="Nouvelle nuance de dégradé 1" x1="210.926" y1="173.409" x2="210.926" y2="-116.353" gradientUnits="userSpaceOnUse">
      <stop offset="0" stop-color="#6a90c6" stop-opacity="0"/>
      <stop offset="1" stop-color="#6a90c6"/>
    </linearGradient>
    <pattern id="e" data-name="40 % 10 ppp 2" patternTransform="translate(-831.616 148.439) scale(1.026)" xlink:href="#c"/>
    <pattern id="f" data-name="40 % 10 ppp 2" patternTransform="translate(-831.616 148.439) scale(1.026)" xlink:href="#c"/>
    <pattern id="g" data-name="40 % 10 ppp 2" patternTransform="translate(-831.616 148.439) scale(1.026)" xlink:href="#c"/>
    <pattern id="h" data-name="40 % 10 ppp 2" patternTransform="translate(-831.616 148.439) scale(1.026)" xlink:href="#c"/>
  </defs>
  <g isolation="isolate">
    <g id="b" data-name="Calque 2">
      <g>
        <rect x="-16.16" y="-104.214" width="454.171" height="351.359" fill="#6a90c6"/>
        <rect x="-16.16" y="-104.214" width="454.171" height="351.359" fill="url(#c)" mix-blend-mode="multiply" opacity=".05"/>
        <rect x="-16.16" y="-104.214" width="454.171" height="351.359" fill="url(#d)"/>
        <path d="M322.599,47.207c.061-.794.093-1.6.093-2.416,0-12.692-7.54-22.982-16.84-22.982-2.859,0-5.55.976-7.909,2.691-3.311-6.541-8.167-10.676-13.583-10.676-6.858,0-12.824,6.622-15.883,16.376-2.461-5.031-5.924-8.17-9.764-8.17-6.875,0-12.547,10.046-13.401,23.043-2.286-1.115-4.853-1.742-7.567-1.742-4.135,0-7.929,1.453-10.904,3.875h95.757Z" fill="#6a90c6" mix-blend-mode="multiply" opacity=".5"/>
        <path d="M-14.132,78.276c-2.87-5.83-4.489-12.386-4.489-19.323C-18.62,34.755.996,15.138,25.194,15.138c17.151,0,31.991,9.861,39.185,24.217,2.506-1.41,5.014-1.88,7.308-1.176,7.492,2.299,9.874,16.192,5.321,31.029-.182.593-.375,1.175-.573,1.752,6.843.93,13.158,3.509,18.545,7.314H-14.132ZM79.406,15.138c-2.988,0-5.411,2.423-5.411,5.411s2.423,5.411,5.411,5.411,5.411-2.423,5.411-5.411-2.423-5.411-5.411-5.411ZM70.077,84.244c-1.574,0-2.85,1.276-2.85,2.85s1.276,2.85,2.85,2.85,2.85-1.276,2.85-2.85-1.276-2.85-2.85-2.85Z" fill="#6a90c6" mix-blend-mode="multiply" opacity=".5"/>
        <path d="M322.599,44.179c.061-.794.093-1.6.093-2.416,0-12.692-7.54-22.982-16.84-22.982-2.859,0-5.55.976-7.909,2.691-3.311-6.541-8.167-10.676-13.583-10.676-6.858,0-12.824,6.622-15.883,16.376-2.461-5.031-5.924-8.17-9.764-8.17-6.875,0-12.547,10.046-13.401,23.043-2.286-1.115-4.853-1.742-7.567-1.742-4.135,0-7.929,1.453-10.904,3.875h95.757Z" fill="#fdfdfd"/>
        <path d="M466.539,213.549c0,36.297-29.424,65.721-65.721,65.721-3.629,0-7.187-.299-10.656-.864-12.036,13.494-29.553,21.994-49.058,21.994-25.539,0-47.675-14.568-58.554-35.847-6.53,6.211-15.356,10.031-25.08,10.031-20.106,0-36.406-16.3-36.406-36.406s16.299-36.406,36.406-36.406c8.629,0,16.552,3.009,22.791,8.026,7.59-18.542,23.405-32.844,42.912-38.364-.262-1.322-.402-2.688-.402-4.086,0-11.541,9.356-20.898,20.898-20.898,8.846,0,16.402,5.499,19.452,13.262,10.672-7.487,23.67-11.884,37.697-11.884,36.297,0,65.721,29.424,65.721,65.721ZM286.771,174.167c5.428,0,9.828-4.4,9.828-9.828,0-5.428-4.4-9.829-9.828-9.829-5.428,0-9.828,4.4-9.829,9.829,0,5.428,4.4,9.829,9.828,9.829Z" fill="#6a90c6" mix-blend-mode="multiply" opacity=".5"/>
        <path d="M466.539,211.791c0,36.297-29.424,65.721-65.721,65.721-3.629,0-7.187-.299-10.656-.864-12.036,13.494-29.553,21.994-49.058,21.994-25.539,0-47.675-14.568-58.554-35.847-6.53,6.211-15.356,10.031-25.08,10.031-20.106,0-36.406-16.3-36.406-36.406s16.299-36.406,36.406-36.406c8.629,0,16.552,3.009,22.791,8.026,7.59-18.542,23.405-32.844,42.912-38.364-.262-1.322-.402-2.688-.402-4.086,0-11.541,9.356-20.898,20.898-20.898,8.846,0,16.402,5.499,19.452,13.262,10.672-7.487,23.67-11.884,37.697-11.884,36.297,0,65.721,29.424,65.721,65.721ZM286.771,172.409c5.428,0,9.828-4.4,9.828-9.828,0-5.428-4.4-9.829-9.828-9.829-5.428,0-9.828,4.4-9.829,9.829,0,5.428,4.4,9.829,9.828,9.829Z" fill="#fdfdfd"/>
        <path d="M426.246,238.427c-2.811,27.215-27.152,46.999-54.367,44.189-2.721-.281-5.366-.781-7.923-1.473-10.07,9.186-23.862,14.203-38.487,12.692-19.149-1.978-34.619-14.615-41.128-31.412-5.377,4.152-12.291,6.332-19.582,5.579-15.076-1.557-26.035-15.041-24.478-30.117,1.557-15.076,15.041-26.035,30.116-24.478,6.47.668,12.178,3.538,16.467,7.782,7.127-13.315,20.093-22.814,35.146-25.442-.094-1.011-.093-2.046.015-3.095.894-8.654,8.634-14.945,17.287-14.051,6.632.685,11.872,5.393,13.558,11.45,8.582-4.787,18.668-7.078,29.186-5.991,27.215,2.811,46.999,27.152,44.189,54.367Z" fill="url(#c)" mix-blend-mode="multiply" opacity=".05"/>
        <g>
          <path d="M122.223,244.629c0-14.258-14.36-25.817-32.074-25.817-.271,0-.538.011-.807.016-.958-9.751-7.812-17.315-16.131-17.315-8.253,0-15.064,7.444-16.107,17.083-5.283-7.578-13.015-12.365-21.635-12.365-12.25,0-22.708,9.659-26.885,23.275-1.007-.306-2.052-.472-3.126-.472-8.034,0-14.547,9.036-14.547,20.182H121.708c.332-1.489.515-3.02.515-4.587Z" fill="#fdfdfd"/>
          <path d="M112.378,251.712c0-12.778-12.869-23.136-28.744-23.136-.243,0-.482.01-.723.015-.858-8.739-7.001-15.517-14.456-15.517-7.396,0-13.5,6.671-14.435,15.309-4.735-6.791-11.664-11.081-19.389-11.081-10.978,0-20.351,8.656-24.093,20.858-.903-.274-1.839-.423-2.801-.423-7.2,0-13.036,8.098-13.036,18.086h117.217c.298-1.335.461-2.707.461-4.111Z" fill="#dedede" mix-blend-mode="multiply" opacity=".05"/>
          <path d="M112.378,251.712c0-12.778-12.869-23.136-28.744-23.136-.243,0-.482.01-.723.015-.858-8.739-7.001-15.517-14.456-15.517-7.396,0-13.5,6.671-14.435,15.309-4.735-6.791-11.664-11.081-19.389-11.081-10.978,0-20.351,8.656-24.093,20.858-.903-.274-1.839-.423-2.801-.423-7.2,0-13.036,8.098-13.036,18.086h117.217c.298-1.335.461-2.707.461-4.111Z" fill="url(#c)" mix-blend-mode="multiply" opacity=".05"/>
        </g>
        <path d="M-14.132,75.248c-2.87-5.83-4.489-12.386-4.489-19.323C-18.62,31.727.996,12.111,25.194,12.111c17.151,0,31.991,9.861,39.185,24.217,2.506-1.41,5.014-1.88,7.308-1.176,7.492,2.299,9.874,16.192,5.321,31.029-.182.593-.375,1.175-.573,1.752,6.843.93,13.158,3.509,18.545,7.314H-14.132ZM79.406,12.111c-2.988,0-5.411,2.423-5.411,5.411s2.423,5.411,5.411,5.411,5.411-2.423,5.411-5.411-2.423-5.411-5.411-5.411ZM70.077,81.216c-1.574,0-2.85,1.276-2.85,2.85s1.276,2.85,2.85,2.85,2.85-1.276,2.85-2.85-1.276-2.85-2.85-2.85Z" fill="#fff"/>
      </g>
      <g>
        <rect x="-18.772" y="263.24" width="470.323" height="109.68" fill="#db6b4c"/>
        <rect x="-14.126" y="236.531" width="465.677" height="26.71" fill="#91bf55"/>
        <line x1="392.974" y1="237.877" x2="392.974" y2="239.567" fill="none" stroke="#d5d800" stroke-linecap="round" stroke-linejoin="round"/>
        <line x1="373.481" y1="249.032" x2="373.481" y2="251.173" fill="none" stroke="#d5d800" stroke-linecap="round" stroke-linejoin="round"/>
        <line x1="107.809" y1="234.72" x2="107.809" y2="239.366" fill="none" stroke="#d5d800" stroke-linecap="round" stroke-linejoin="round"/>
        <line x1="92.325" y1="242.462" x2="92.325" y2="246.075" fill="none" stroke="#d5d800" stroke-linecap="round" stroke-linejoin="round"/>
        <line x1="68.841" y1="235.237" x2="68.841" y2="238.591" fill="none" stroke="#d5d800" stroke-linecap="round" stroke-linejoin="round"/>
        <line x1="65.486" y1="234.978" x2="65.486" y2="237.559" fill="none" stroke="#d5d800" stroke-linecap="round" stroke-linejoin="round"/>
        <line x1="218.362" y1="252.848" x2="218.362" y2="256.689" fill="none" stroke="#d5d800" stroke-linecap="round" stroke-linejoin="round"/>
        <line x1="32.192" y1="255.274" x2="32.192" y2="257.7" fill="none" stroke="#d5d800" stroke-linecap="round" stroke-linejoin="round"/>
        <line x1="28.554" y1="253.657" x2="28.554" y2="256.689" fill="none" stroke="#d5d800" stroke-linecap="round" stroke-linejoin="round"/>
        <line x1="214.825" y1="256.689" x2="214.825" y2="254.263" fill="none" stroke="#d5d800" stroke-linecap="round" stroke-linejoin="round"/>
        <line x1="-18.772" y1="263.24" x2="451.551" y2="263.24" fill="none" stroke="#fff" stroke-miterlimit="10" stroke-width="4"/>
        <line x1="-18.772" y1="303.169" x2="451.551" y2="303.169" fill="none" stroke="#fff" stroke-miterlimit="10" stroke-width="4"/>
        <line x1="-18.772" y1="346.137" x2="451.551" y2="346.137" fill="none" stroke="#fff" stroke-miterlimit="10" stroke-width="4"/>
        <line x1="187.524" y1="288.391" x2="288.901" y2="288.391" fill="none" stroke="#1d1061" stroke-linecap="round" stroke-linejoin="round" stroke-width="3"/>
      </g>
      <g opacity=".15">
        <polygon points="175.475 -33.212 477.169 331.784 471.762 -38.281 175.475 -33.212" fill="#1d1061" mix-blend-mode="overlay" opacity=".5"/>
        <path d="M112.498-38.281c.689,0,213.824,496.801,213.824,496.801,0,0,172.139-124.707,173.153-126.735S247.476-54.504,247.476-54.504l-134.978,16.222Z" fill="#1d1061" mix-blend-mode="overlay" opacity=".15"/>
        <polygon points="124.809 -49.036 11.207 -42.337 -87.561 294.029 62.493 392.617 124.809 -49.036" fill="#1d1061" mix-blend-mode="overlay" opacity=".5"/>
        <polygon points="175.475 -54.504 93.98 -54.504 -9.493 403.77 334.212 399.714 175.475 -54.504" fill="#1d1061" mix-blend-mode="overlay" opacity=".15"/>
        <polygon points="237.894 439.678 511.641 74.931 499.478 403.77 237.894 439.678" fill="#cd4d35" mix-blend-mode="soft-light" opacity=".5"/>
        <polygon points="182.131 425.315 -93.645 124.787 -78.436 422.517 182.131 425.315" fill="#cd4d35" mix-blend-mode="soft-light" opacity=".5"/>
        <polygon points="216.602 435.2 44.243 -74.781 -127.103 64.078 147.878 449.732 216.602 435.2" fill="#cd4d35" mix-blend-mode="soft-light" opacity=".25"/>
        <polygon points="203.906 449.732 271.787 471.7 542.583 49.765 254.116 -115.336 203.906 449.732" fill="#cd4d35" mix-blend-mode="soft-light" opacity=".25"/>
        <polygon points="133.105 476.769 249.733 483.866 364.07 -109.253 -9.493 -98.1 133.105 476.769" fill="#cd4d35" mix-blend-mode="soft-light" opacity=".1"/>
      </g>
      <g opacity=".25">
        <line x1="99.206" y1="171.619" x2="276.826" y2="171.619" fill="none" stroke="#1d1061" stroke-linecap="round" stroke-linejoin="round" stroke-width="2"/>
        <line x1="212.792" y1="104.403" x2="277.378" y2="104.403" fill="none" stroke="#1d1061" stroke-linecap="round" stroke-linejoin="round" stroke-width="2"/>
        <line x1="180.937" y1="104.403" x2="199.753" y2="104.403" fill="none" stroke="#1d1061" stroke-linecap="round" stroke-linejoin="round" stroke-width="2"/>
      </g>
      <path d="M321.263,128.97c.147-2.41.325-5.125.514-7.57,2.032-3.145,1.057-6.547.443-7.161,1.892-.097,2.385-2.516,2.961-4.839.576-2.323-2.139-3.097-2.961-2.516.331-2.081-3.685-3.774-4.701-2.419-.193-1.984-3.798-2.177-5.855-1.403,0-2.226-2.748-2.71-5.71-1.355-2.961,1.355-2.161,10.21-2.161,10.21-3.126,0-3.866,8.226-2.632,9.871s10.922.661,10.922.661l.063,2.874c-1.234-.347-1.963-.485-1.963-.485.344,2.41.774,24.096-.344,25.3-2.89,3.112-25.571,1.609-36.367.701.003-.014.007-.029.01-.042,0,0-2.133-1.578-5.782-3.414,1.958-.362,3.817-1.455,3.953-3.346,2.534,2.924,7.537,3.218,10.397.612,1.748.901,3.992,1.768,5.536.551.96-.757,1.255-2.12,1.044-3.329.543-.071,1.052-.151,1.503-.244,8.419-1.742,8.604-12.899,8.363-18.393-.337-7.666-1.515-15.578-2.606-21.561,3.992-.889,5.653-2.727,6.049-3.981.581-1.839-3.968-2.323-3.968-2.323,0,0,4.355-3.194,5.516-7.161,1.583-5.41-15.774.484-22.258,1.645-6.484,1.161-22.258-5.806-31.064-.484-6.49,3.922-7.478,8.466-4.718,12.609-2.051,1.622-3.719,4.461-4.952,6.294-4.97,7.39-9.516,15.438-11.768,23.961-10.209-7.207-22.066-15.096-25.059-15.096-5.508,0-27.078,21.247-31.381,26.755,0,0,.345.321.944.847-2.628.376-4.96,1.026-8.478,1.819-2.334.527-2.222,3.038-1.403,3.624-2.074.371-2.354,4.72-.74,5.235-1.81.835-.808,4.303.599,5.991-2.102.731-1.656,3.486.596,5.838,2.253,2.352,10.353-1.313,10.353-1.313,1.027,2.952,7.308.957,8.457-.749.993-1.475-.748-11.508-1.239-14.2,2.306,1.527,4.861,3.008,7.435,4.096,0,0,16.493-20.817,19.161-20.903,1.999-.064,16.412,9.848,23.519,14.826-10.087,8.326-25.402,23.351-30.196,41.013,0,0,.656.163,1.85.42-1.145,1.69-2.732,3.986-4.479,6.377h0c-4.22,5.775-9.375,12.102-11.5,11.784-3.682-.552-15.484-18.968-15.484-18.968l-.955,1.04-2.755-3.04-13.539,13.666s-7.965,7.447-15.268,11.173c0,0,8.163-1.462,14.47-3.181l-3.631,3.955s22.856,32.991,32.323,33.677c7.562.548,21.763-9.953,34.559-22.888.212-.215.422-.433.634-.649.58-.592,1.157-1.187,1.73-1.788.19-.199.378-.398.567-.598,18.979,22.155,50.911,56.182,61.027,61.923,0,0,3.507-3.442,7.943-8.097l3.09,2.678,26.71-28.258-12.894,5.219c.108-.194.219-.39.313-.574,0,0-32.521-28.117-56.568-61.249.599-.095,1.198-.191,1.794-.3l-1.161-8.129s11.56-12.257,18.482-22.99c8.489,1.044,44.561,5.164,50.325.538,6.54-5.249,8.606-29.001,8.606-29.001-2.143-1.525-4.248-2.767-6.216-3.784ZM241.09,140.795c.029.149.07.296.103.445-.066-.049-.138-.102-.205-.151.033-.098.072-.195.103-.294Z" fill="#1d1061"/>
      <g>
        <path d="M172.648,188.785l-4.677-5.161-13.539,13.666s-7.965,7.447-15.268,11.173c0,0,18.387-3.29,21.29-5.806l12.194-13.871Z" fill="#1d1061"/>
        <path d="M204.97,183.688s-13.935,21.484-17.806,20.903c-3.682-.552-15.484-18.968-15.484-18.968l-21.677,23.613s22.856,32.991,32.323,33.677c13.355.968,47.419-32.516,57.871-53.032l-35.226-6.194Z" fill="#ffcb57"/>
        <path d="M213.634,185.211l-8.664-1.523s-2.838,4.373-6.307,9.12c.109,3.357.589,6.64,1.798,8.865,1.768,3.254,8.142,12.388,14.064,20.697,6.751-6.578,13.241-13.958,18.35-20.926l-19.242-16.232Z" fill="#1d1061"/>
        <path d="M239.45,191.278l-3.038-2.062-31.441-5.528s-8.314,12.815-13.883,18.38c-.916,9.134-1.736,24.514,1.027,37.855,15.457-8.317,38.336-32.131,47.335-48.645Z" fill="url(#e)" mix-blend-mode="overlay" opacity=".25"/>
        <path d="M312.273,127.179l-.191-8.733s-9.688.984-10.922-.661-.494-9.871,2.632-9.871c0,0-.8-8.855,2.161-10.21,2.961-1.355,5.71-.871,5.71,1.355,2.057-.774,5.661-.581,5.855,1.403,1.016-1.355,5.032.339,4.701,2.419.823-.581,3.537.194,2.961,2.516-.576,2.323-1.069,4.742-2.961,4.839.615.615,1.589,4.016-.443,7.161-.464,6.022-.873,13.716-.873,14.323,0,.968-8.631-4.541-8.631-4.541Z" fill="#ffbd94"/>
        <path d="M267.788,146.317s38.239,3.921,42.05-.182c1.119-1.205.688-22.891.344-25.3,0,0,8.347,1.549,17.297,7.917,0,0-2.065,23.751-8.606,29.001-6.54,5.249-52.118-.765-52.118-.765l1.033-10.671Z" fill="#db6b4c"/>
        <polygon points="302.325 251.817 318.583 245.237 291.874 273.495 286.067 268.462 302.325 251.817" fill="#1d1061"/>
        <path d="M282.336,147.487c-7.76-.484-14.178-1.133-14.509-1.167l-.048.096-1.023,10.572s21.363,2.819,36.937,2.912c-9.071-3.476-17.41-9.384-21.357-12.412Z" fill="url(#f)" mix-blend-mode="overlay" opacity=".25"/>
        <path d="M204.97,183.688s-2.71,7.161.387,14.71c3.097,7.548,61.161,72.387,75.484,80.516,0,0,20.71-20.323,25.161-29.032,0,0-34.258-29.613-58.452-63.871l-42.581-2.323Z" fill="#ffcb57"/>
        <path d="M240.494,104.268c-7.137,10.612-13.413,22.577-13.253,35.364.014,1.096.486,2.567,1.573,2.429.381-.048.699-.307.976-.573,2.02-1.936,3.066-4.842,2.742-7.622-1.599,1.526-2.398,3.847-2.079,6.035.308,2.109,2.04,4.233,4.161,4.021.94-.094,1.779-.623,2.51-1.222,1.861-1.526,3.259-3.608,3.966-5.908.329,1.675.856,3.372,1.98,4.656,1.125,1.284,2.968,2.058,4.585,1.513s2.623-2.676,1.686-4.103c1.092,1.754,3.174,3.096,5.18,2.601s3.149-3.422,1.591-4.779c.996,4.243,5.662,6.774,10.019,6.837,2.404.035,5.347-1.085,5.519-3.483,2.534,2.924,7.537,3.218,10.397.612,1.748.901,3.992,1.768,5.537.551.99-.78,1.278-2.206,1.028-3.441-.25-1.235-.943-2.329-1.632-3.385-3.792-5.818-7.834-11.473-12.11-16.944-5.087-6.509-10.589-12.833-17.401-17.506-2.591-1.778-6.667-3.958-9.966-3.051-3.013.828-5.387,4.987-7.009,7.399Z" fill="#65447a"/>
        <path d="M273.481,146.793s-14.49-10.743-32.704-8.783c0,0-32.129,20.903-39.484,48,0,0,26.516,6.581,49.935,2.323l-1.161-8.129s21.478-22.766,23.414-33.411Z" fill="#db6b4c"/>
        <path d="M258.574,131.997s-.749,3.524-6.802,8.251c-2.27-1.19-1.09,6.018.886,8.127,5.96,6.361,5.713.857,5.713.857,0,0,7.202-6.501,11.49-14.826l-11.286-2.408Z" fill="#ffbd94"/>
        <path d="M258.574,131.997s-.75,3.524-6.802,8.251c-.27-.142-.489-.157-.666-.083,6.348,1.55,11.862.966,14.93.368,1.354-1.859,2.691-3.926,3.824-6.126l-11.286-2.408Z" fill="#db6b4c"/>
        <path d="M258.525,132.174c-.221.711-1.319,3.525-5.701,7.22,3.515.645,12.251.275,15.377-2.069.584-.942,1.144-1.917,1.661-2.92l-10.267-2.191-1.069-.04Z" fill="#1d1061"/>
        <path d="M186.844,139.6l-5.593,6.709s2.511,13.164,1.362,14.87-7.429,3.701-8.457.749c0,0-8.1,3.665-10.353,1.314-2.253-2.352-2.699-5.107-.596-5.838-1.407-1.688-2.409-5.156-.598-5.991-1.613-.515-1.334-4.864.74-5.235-.819-.586-.931-3.097,1.403-3.624,3.528-.796,5.863-1.447,8.5-1.823,4.306-4.236,9.669-9.768,10.068-10.225.636-.73,3.524,9.094,3.524,9.094Z" fill="#ffbd94"/>
        <path d="M232.782,143.945c-1.423,1.146-2.974,2.444-4.606,3.88,2.518.296,5.264.42,7.256-.044l-2.649-3.835Z" fill="url(#g)" mix-blend-mode="overlay" opacity=".25"/>
        <path d="M244.725,139.863s-35.55-26.73-41.058-26.73-27.078,21.247-31.381,26.755c0,0,8.175,7.659,16.523,11.187,0,0,16.494-20.817,19.161-20.903s27.461,17.608,27.461,17.608l9.294-7.917Z" fill="#db6b4c"/>
        <path d="M261.628,145.924c2.459-2.696,5.81-6.815,8.233-11.519l-11.286-2.408s-.463,2.175-3.594,5.398c.847,2.259,3.015,7.021,6.648,8.529Z" fill="url(#h)" mix-blend-mode="overlay" opacity=".25"/>
        <circle cx="248.97" cy="123.624" r="6.065" fill="#ffbd94"/>
        <path d="M293.809,87.688s4.014,16.264,4.685,31.542c.242,5.495.056,16.651-8.363,18.393s-33.677-.387-37.839-8.613c0,0-3.194-15.106-3.452-32.419,0,0,17.419-7.806,44.968-8.903Z" fill="#ffbd94"/>
        <path d="M262.022,107.175c.013,1.439-.266,2.911-1.024,4.133-.964,1.553-2.584,2.55-4.091,3.585-1.649,1.133-3.225,2.373-4.713,3.711-.516-1.131-2.195-.908-3.278-1.519-1.022-.577-1.398-1.839-1.68-2.978-.829-3.347-1.639-6.734-1.69-10.181-.024-1.627.13-3.29.783-4.78s1.866-2.796,3.426-3.261c6.187-1.844,12.215,5.817,12.266,11.29Z" fill="#65447a"/>
        <path d="M248.132,100.946c-5.613-4.839-6.054-10.693,2.032-15.581,8.806-5.323,24.581,1.645,31.065.484s23.842-7.055,22.258-1.645c-1.161,3.968-5.516,7.161-5.516,7.161,0,0,4.548.484,3.968,2.323s-3.871,4.935-13.258,4.452c-7.695-.397-14.323-3.097-19.355-2.129s-16.733,8.78-21.194,4.935Z" fill="#65447a"/>
        <circle cx="273.777" cy="122.14" r="3.871" fill="#ff7461" opacity=".25"/>
        <g>
          <line x1="246.598" y1="120.678" x2="252.054" y2="124.245" fill="none" stroke="#ea9668" stroke-linecap="round" stroke-linejoin="round"/>
          <line x1="249.947" y1="122.868" x2="246.508" y2="125.307" fill="none" stroke="#ea9668" stroke-linecap="round" stroke-linejoin="round"/>
        </g>
        <g>
          <line x1="283.598" y1="116.23" x2="283.789" y2="118.332" fill="none" stroke="#1d1061" stroke-linecap="round" stroke-linejoin="round"/>
          <line x1="296.625" y1="114.42" x2="296.741" y2="116.367" fill="none" stroke="#1d1061" stroke-linecap="round" stroke-linejoin="round"/>
          <polyline points="292.192 111.51 296.212 122.899 292.079 122.533" fill="none" stroke="#ea9668" stroke-linecap="round" stroke-linejoin="round"/>
          <path d="M291.498,105.497c.308-2.968,4.047-5.358,5.512-1.002" fill="none" stroke="#1d1061" stroke-linecap="round" stroke-linejoin="round"/>
          <path d="M275.888,106.306s4.625-6.787,9.829-.154" fill="none" stroke="#1d1061" stroke-linecap="round" stroke-linejoin="round"/>
        </g>
        <path d="M294.699,125.54c0,3.024-2.451,5.475-5.475,5.475h0c-3.024,0-5.475-2.451-5.475-5.475" fill="none" stroke="#ea9668" stroke-linecap="round" stroke-linejoin="round"/>
        <path d="M273.135,147.717s-2.775,6.816-4.571,9.468l11.509-4.408" fill="none" stroke="#1d1061" stroke-linecap="round" stroke-linejoin="round"/>
        <path d="M243.914,144.33s-3.211,6.337-8.483,3.45c-1.68-.92-3.924-2.797-3.924-2.797" fill="none" stroke="#1d1061" stroke-linecap="round" stroke-linejoin="round"/>
        <path d="M314.809,151.849s-3.556.184-4.971-5.714c0,0-2.964,5.714-1.609,10.166" fill="none" stroke="#1d1061" stroke-linecap="round" stroke-linejoin="round"/>
        <path d="M210.874,120.495c1.258,3.968-2.903,9.677-2.903,9.677,0,0-.387-4.065-3.484-7.935" fill="none" stroke="#1d1061" stroke-linecap="round" stroke-linejoin="round"/>
        <path d="M250.067,180.204s-9.774,1.258-20.903-4.452" fill="none" stroke="#1d1061" stroke-linecap="round" stroke-linejoin="round"/>
        <path d="M193.357,223.366c-.581-5.806-6.194-18.774-6.194-18.774,0,0-2.129,10.839-5.806,16.065" fill="none" stroke="#1d1061" stroke-linecap="round" stroke-linejoin="round"/>
        <path d="M303.793,107.914s9.329-.447,9.25,2.16c-.079,2.607-5.057,3.161-5.057,3.161,0,0,7.822-2.133,9.087,2.686" fill="none" stroke="#ea9668" stroke-linecap="round" stroke-linejoin="round"/>
      </g>
      <g opacity=".25">
        <line x1="141.301" y1="131.562" x2="222.665" y2="131.562" fill="none" stroke="#1d1061" stroke-linecap="round" stroke-linejoin="round" stroke-width="2"/>
        <line x1="79.081" y1="131.562" x2="86.526" y2="131.562" fill="none" stroke="#1d1061" stroke-linecap="round" stroke-linejoin="round" stroke-width="2"/>
        <line x1="149.405" y1="230.932" x2="250.782" y2="230.932" fill="none" stroke="#1d1061" stroke-linecap="round" stroke-linejoin="round" stroke-width="2"/>
        <line x1="107.197" y1="230.932" x2="124.649" y2="230.932" fill="none" stroke="#1d1061" stroke-linecap="round" stroke-linejoin="round" stroke-width="2"/>
      </g>
    </g>
  </g>
</svg>