<?xml version="1.0" encoding="UTF-8"?>
<svg xmlns="http://www.w3.org/2000/svg" width="400" height="360" xmlns:xlink="http://www.w3.org/1999/xlink" viewBox="0 0 400 360">
  <defs>
    <clipPath id="b">
      <rect width="400" height="360" fill="none"/>
    </clipPath>
    <pattern id="c" data-name="40 % 10 ppp" x="0" y="0" width="4.931" height="4.931" patternTransform="translate(16353.127 17052.182) scale(3.259)" patternUnits="userSpaceOnUse" viewBox="0 0 4.931 4.931">
      <g>
        <rect width="4.931" height="4.931" fill="none"/>
        <g>
          <circle cx="4.412" cy="4.412" r=".519" fill="#1d1d1b"/>
          <circle cx="1.817" cy="4.412" r=".519" fill="#1d1d1b"/>
          <path d="M4.412,2.336c.287,0,.519-.232.519-.519s-.233-.519-.519-.519-.519.232-.519.519.232.519.519.519Z" fill="#1d1d1b"/>
          <path d="M1.817,2.336c.287,0,.519-.232.519-.519s-.233-.519-.519-.519-.519.232-.519.519.232.519.519.519Z" fill="#1d1d1b"/>
          <path d="M.519,3.633c.287,0,.519-.232.519-.519s-.233-.519-.519-.519S0,2.827,0,3.114s.232.519.519.519Z" fill="#1d1d1b"/>
          <circle cx="3.114" cy="3.114" r=".519" fill="#1d1d1b"/>
          <path d="M.519,1.038c.287,0,.519-.232.519-.519S.806,0,.519,0,0,.232,0,.519s.232.519.519.519Z" fill="#1d1d1b"/>
          <circle cx="3.114" cy=".519" r=".519" fill="#1d1d1b"/>
        </g>
      </g>
    </pattern>
    <linearGradient id="d" data-name="Nouvelle nuance de dégradé 1" x1="245.509" y1="350.884" x2="245.509" y2="-414.717" gradientUnits="userSpaceOnUse">
      <stop offset="0" stop-color="#6a90c6" stop-opacity="0"/>
      <stop offset="1" stop-color="#6a90c6"/>
    </linearGradient>
    <clipPath id="f">
      <rect y="0" width="400" height="360" fill="none"/>
    </clipPath>
    <linearGradient id="g" data-name="Dégradé sans nom 6" x1="245.509" y1="350.884" x2="245.509" y2="-109.505" gradientUnits="userSpaceOnUse">
      <stop offset="0" stop-color="#ffcb57" stop-opacity="0"/>
      <stop offset="1" stop-color="#ffcb57"/>
    </linearGradient>
    <pattern id="o" data-name="40 % 10 ppp" patternTransform="translate(-1485.444 773.513) rotate(6.416) scale(1.053)" xlink:href="#c"/>
    <pattern id="w" data-name="40 % 10 ppp" patternTransform="translate(-1484.738 775.245) rotate(6.416) scale(1.053)" xlink:href="#c"/>
  </defs>
  <g isolation="isolate">
    <g id="a" data-name="bg">
      <g clip-path="url(#b)">
        <g>
          <rect x="-354.491" y="-382.646" width="1200" height="928.353" fill="#6a90c6"/>
          <rect x="-354.491" y="-382.646" width="1200" height="928.353" fill="url(#c)" mix-blend-mode="multiply" opacity=".05"/>
          <rect x="-354.491" y="-382.646" width="1200" height="928.353" fill="url(#d)"/>
          <path d="M-103.034,130.681c-5.07-10.299-7.93-21.883-7.93-34.138,0-42.749,34.655-77.405,77.405-77.405,30.301,0,56.518,17.421,69.227,42.784,4.427-2.491,8.858-3.321,12.912-2.077,13.236,4.062,17.445,28.605,9.4,54.818-.321,1.047-.663,2.076-1.013,3.096,12.089,1.642,23.245,6.2,32.763,12.921H-103.034ZM62.216,19.139c-5.28,0-9.56,4.28-9.56,9.56s4.28,9.56,9.56,9.56,9.56-4.28,9.56-9.56-4.28-9.56-9.56-9.56ZM45.734,141.224c-2.78,0-5.034,2.254-5.034,5.034s2.254,5.034,5.034,5.034,5.034-2.254,5.034-5.034-2.254-5.034-5.034-5.034Z" fill="#6a90c6" mix-blend-mode="multiply" opacity=".5"/>
          <path d="M-101.9,125.777c-5.047-10.252-7.894-21.783-7.894-33.983,0-42.555,34.498-77.053,77.053-77.053,30.163,0,56.261,17.342,68.912,42.589,4.407-2.48,8.817-3.306,12.853-2.067,13.176,4.044,17.365,28.475,9.357,54.569-.32,1.042-.66,2.067-1.008,3.082,12.034,1.635,23.139,6.171,32.614,12.863H-101.9ZM62.597,14.742c-5.256,0-9.516,4.26-9.516,9.516s4.26,9.516,9.516,9.516,9.516-4.26,9.516-9.516-4.26-9.516-9.516-9.516ZM46.19,136.272c-2.768,0-5.012,2.244-5.012,5.012s2.244,5.012,5.012,5.012,5.012-2.244,5.012-5.012-2.244-5.012-5.012-5.012Z" fill="#fff"/>
          <g mix-blend-mode="overlay" opacity=".25">
            <g mix-blend-mode="multiply">
              <rect x="74.647" y="128.29" width="33.719" height="13.601" transform="translate(-68.722 104.271) rotate(-45)" fill="#9b9b9b"/>
              <rect x="46.947" y="155.99" width="33.719" height="13.601" transform="translate(-96.421 92.797) rotate(-45)" fill="#9b9b9b"/>
              <rect x="19.247" y="183.69" width="33.719" height="13.601" transform="translate(-124.121 81.323) rotate(-45)" fill="#9b9b9b"/>
              <rect x="-8.453" y="211.39" width="33.719" height="13.601" transform="translate(-151.821 69.85) rotate(-45)" fill="#9b9b9b"/>
              <polygon points="109.418 117.179 94.063 116.136 110.461 132.534 109.418 117.179" fill="#9b9b9b"/>
            </g>
            <g mix-blend-mode="multiply">
              <rect x="315.268" y="92.104" width="144.295" height="10.223" transform="translate(44.729 302.418) rotate(-45)" fill="#9b9b9b"/>
            </g>
            <g mix-blend-mode="multiply">
              <rect x="368.645" y="318.645" width="155.912" height="21.851" transform="translate(-102.236 412.324) rotate(-45)" fill="#9b9b9b"/>
            </g>
            <rect x="101.108" y="-12.343" width="246.503" height="85.497" transform="translate(44.214 167.551) rotate(-45)" fill="#9b9b9b" mix-blend-mode="multiply"/>
            <g mix-blend-mode="multiply">
              <line x1="-92.041" y1="90.479" x2="10.061" y2="-11.623" fill="none" stroke="#9b9b9b" stroke-miterlimit="10" stroke-width="3.171"/>
              <polyline points="-15.278 -11.63 10.054 -11.629 10.054 13.729" fill="none" stroke="#9b9b9b" stroke-miterlimit="10" stroke-width="3.171"/>
            </g>
            <g mix-blend-mode="multiply">
              <polyline points="19.085 352.813 33.597 352.813 33.597 367.34" fill="none" stroke="#9b9b9b" stroke-miterlimit="10" stroke-width="1.697"/>
              <path d="M-108.134,468.903s50.911-31.163,60.597-80.806c9.686-49.643-9.327-47.763-14.422-38.479-7.432,13.543-5.463,58.148,33.99,46.175,25.357-7.696,61.567-42.98,61.567-42.98" fill="none" stroke="#9b9b9b" stroke-miterlimit="10" stroke-width="1.697"/>
            </g>
            <g mix-blend-mode="multiply">
              <polyline points="33.597 13.058 48.109 13.057 48.109 27.585" fill="none" stroke="#9b9b9b" stroke-miterlimit="10" stroke-width="1.697"/>
              <polyline points="-5.124 130.306 3.591 130.306 3.591 139.03" fill="none" stroke="#9b9b9b" stroke-miterlimit="10" stroke-width="1.697"/>
              <path d="M-60.294,150.004c44.719-44.719-10.493-98.104,12.757-121.355C-24.286,5.399,5.689,55.478,48.109,13.057" fill="none" stroke="#9b9b9b" stroke-miterlimit="10" stroke-width="1.697"/>
              <path d="M-94.034,309.916c20.962-20.962,29.547-34.937,27.95-50.11s-16.318-9.583-17.043,4.392c-.725,13.975,14.351,33.475,33.813,23.326,24.09-12.563,3.934-59.297,11.912-97.034,5.856-27.7,34.072-54.594,40.993-60.184" fill="none" stroke="#9b9b9b" stroke-miterlimit="10" stroke-width="1.697"/>
            </g>
            <g mix-blend-mode="multiply">
              <polyline points="321.405 7.658 335.918 7.658 335.918 22.185" fill="none" stroke="#9b9b9b" stroke-miterlimit="10" stroke-width="1.697"/>
              <path d="M96.969,67.791c25.39-25.39,96.605-39.161,134.99-.777,33.696,33.696,33.755,67.319,22.622,78.452-12.873,12.873-34.187-22.285-2.418-54.054,31.769-31.769,83.756-83.756,83.756-83.756" fill="none" stroke="#9b9b9b" stroke-miterlimit="10" stroke-width="1.697"/>
            </g>
            <polygon points="48.109 448.129 48.109 263.938 100.304 211.743 139.457 211.743 139.457 250.856 101.06 289.253 101.06 399.474 48.109 448.129" fill="#9b9b9b" mix-blend-mode="multiply"/>
          </g>
          <g>
            <path d="M173.474,386.596c0-37.673-37.942-68.212-84.746-68.212-.715,0-1.421.029-2.132.043-2.531-25.765-20.641-45.749-42.622-45.749-21.805,0-39.801,19.668-42.557,45.136-13.959-20.022-34.387-32.671-57.164-32.671-32.367,0-60,25.52-71.034,61.496-2.661-.809-5.422-1.247-8.258-1.247-21.227,0-38.434,23.874-38.434,53.323H172.113c.877-3.935,1.36-7.98,1.36-12.119Z" fill="#fdfdfd"/>
            <path d="M147.463,405.312c0-33.761-34.003-61.13-75.947-61.13-.641,0-1.274.026-1.911.039-2.268-23.09-18.498-40.999-38.197-40.999-19.541,0-35.669,17.626-38.139,40.45-12.51-17.944-30.817-29.279-51.229-29.279-29.007,0-53.77,22.871-63.659,55.111-2.385-.725-4.859-1.118-7.401-1.118-19.023,0-34.444,21.395-34.444,47.787H146.244c.786-3.527,1.219-7.152,1.219-10.861Z" fill="#dedede" mix-blend-mode="multiply" opacity=".05"/>
            <path d="M147.463,405.312c0-33.761-34.003-61.13-75.947-61.13-.641,0-1.274.026-1.911.039-2.268-23.09-18.498-40.999-38.197-40.999-19.541,0-35.669,17.626-38.139,40.45-12.51-17.944-30.817-29.279-51.229-29.279-29.007,0-53.77,22.871-63.659,55.111-2.385-.725-4.859-1.118-7.401-1.118-19.023,0-34.444,21.395-34.444,47.787H146.244c.786-3.527,1.219-7.152,1.219-10.861Z" fill="url(#c)" mix-blend-mode="multiply" opacity=".05"/>
          </g>
          <polygon points="-129.772 580.436 663.817 580.436 673.505 -18.858 439.152 -23.093 439.281 -4.693 423.623 -4.976 423.751 13.425 408.093 13.142 408.194 27.542 392.564 27.26 392.665 41.696 375.035 41.377 375.135 55.777 359.505 55.495 359.634 73.896 343.976 73.613 344.076 88.013 328.446 87.73 328.561 104.13 312.917 103.848 313.045 122.176 301.388 121.965 301.502 138.402 283.858 138.083 283.959 152.483 268.329 152.201 268.443 168.637 250.799 168.318 250.928 186.755 233.27 186.436 233.412 206.837 217.741 206.554 217.869 224.954 202.211 224.671 202.326 241.108 184.682 240.789 184.782 255.189 169.152 254.907 169.253 269.307 153.623 269.024 153.738 285.461 136.093 285.142 136.194 299.542 120.564 299.26 120.692 317.66 105.035 317.377 105.107 327.777 89.505 327.495 89.634 345.896 73.976 345.613 74.076 360.013 58.446 359.73 58.603 382.131 42.917 381.848 43.017 396.248 27.388 395.965 27.488 410.366 11.858 410.083 11.987 428.592 -9.671 428.201 -9.571 442.601 -25.201 442.318 -25.059 462.683 -38.73 462.436 -38.63 476.836 -54.259 476.554 -54.118 496.882 -65.789 496.671 -65.688 511.072 -81.318 510.789 -81.19 529.226 -98.848 528.907 -98.747 543.307 -114.377 543.024 -114.249 561.425 -129.907 561.142 -129.772 580.436" fill="#dedede"/>
          <g>
            <path d="M323.594,64.327c1.596-8.177,8.792-14.35,17.436-14.35,4.187,0,8.028,1.457,11.065,3.879,5.079-35.282,35.422-62.398,72.11-62.398,40.245,0,72.87,32.625,72.87,72.87h-173.48ZM362.238-31.867c-5.031,0-9.11,4.079-9.11,9.11s4.079,9.11,9.11,9.11,9.11-4.079,9.11-9.11-4.079-9.11-9.11-9.11ZM298.167,67.899c-3.959,0-7.169,3.21-7.169,7.169s3.21,7.169,7.169,7.169,7.169-3.21,7.169-7.169-3.21-7.169-7.169-7.169Z" fill="#dedede" mix-blend-mode="multiply"/>
            <path d="M321.594,58.327c1.596-8.177,8.792-14.35,17.436-14.35,4.187,0,8.028,1.457,11.065,3.879,5.079-35.282,35.422-62.398,72.11-62.398,40.245,0,72.87,32.625,72.87,72.87h-173.48ZM360.238-37.867c-5.031,0-9.11,4.079-9.11,9.11s4.079,9.11,9.11,9.11,9.11-4.079,9.11-9.11-4.079-9.11-9.11-9.11ZM296.167,61.899c-3.959,0-7.169,3.21-7.169,7.169s3.21,7.169,7.169,7.169,7.169-3.21,7.169-7.169-3.21-7.169-7.169-7.169Z" fill="#fff"/>
          </g>
        </g>
      </g>
    </g>
    <g id="e" data-name="bg win">
      <g clip-path="url(#f)">
        <g>
          <rect x="-354.491" y="-382.646" width="1200" height="928.353" fill="#ffcb57"/>
          <rect x="-354.491" y="-382.646" width="1200" height="928.353" fill="url(#c)" mix-blend-mode="multiply" opacity=".05"/>
          <rect x="-354.491" y="-382.646" width="1200" height="928.353" fill="url(#g)"/>
          <path d="M-103.034,130.681c-5.07-10.299-7.93-21.883-7.93-34.138,0-42.749,34.655-77.405,77.405-77.405,30.301,0,56.518,17.421,69.227,42.784,4.427-2.491,8.858-3.321,12.912-2.077,13.236,4.062,17.445,28.605,9.4,54.818-.321,1.047-.663,2.076-1.013,3.096,12.089,1.642,23.245,6.2,32.763,12.921H-103.034ZM62.216,19.139c-5.28,0-9.56,4.28-9.56,9.56s4.28,9.56,9.56,9.56,9.56-4.28,9.56-9.56-4.28-9.56-9.56-9.56ZM45.734,141.224c-2.78,0-5.034,2.254-5.034,5.034s2.254,5.034,5.034,5.034,5.034-2.254,5.034-5.034-2.254-5.034-5.034-5.034Z" fill="#dedede" mix-blend-mode="multiply"/>
          <path d="M-101.9,125.777c-5.047-10.252-7.894-21.783-7.894-33.983,0-42.555,34.498-77.053,77.053-77.053,30.163,0,56.261,17.342,68.912,42.589,4.407-2.48,8.817-3.306,12.853-2.067,13.176,4.044,17.365,28.475,9.357,54.569-.32,1.042-.66,2.067-1.008,3.082,12.034,1.635,23.139,6.171,32.614,12.863H-101.9ZM62.597,14.742c-5.256,0-9.516,4.26-9.516,9.516s4.26,9.516,9.516,9.516,9.516-4.26,9.516-9.516-4.26-9.516-9.516-9.516ZM46.19,136.272c-2.768,0-5.012,2.244-5.012,5.012s2.244,5.012,5.012,5.012,5.012-2.244,5.012-5.012-2.244-5.012-5.012-5.012Z" fill="#fff"/>
          <g mix-blend-mode="color-burn" opacity=".25">
            <g mix-blend-mode="multiply">
              <rect x="74.647" y="128.29" width="33.719" height="13.601" transform="translate(-68.722 104.271) rotate(-45)" fill="#9b9b9b"/>
              <rect x="46.947" y="155.99" width="33.719" height="13.601" transform="translate(-96.421 92.797) rotate(-45)" fill="#9b9b9b"/>
              <rect x="19.247" y="183.69" width="33.719" height="13.601" transform="translate(-124.121 81.323) rotate(-45)" fill="#9b9b9b"/>
              <rect x="-8.453" y="211.39" width="33.719" height="13.601" transform="translate(-151.821 69.85) rotate(-45)" fill="#9b9b9b"/>
              <polygon points="109.418 117.179 94.063 116.136 110.461 132.534 109.418 117.179" fill="#9b9b9b"/>
            </g>
            <g mix-blend-mode="multiply">
              <rect x="315.268" y="92.104" width="144.295" height="10.223" transform="translate(44.729 302.418) rotate(-45)" fill="#9b9b9b"/>
            </g>
            <g mix-blend-mode="multiply">
              <rect x="368.645" y="318.645" width="155.912" height="21.851" transform="translate(-102.236 412.324) rotate(-45)" fill="#9b9b9b"/>
            </g>
            <rect x="101.108" y="-12.343" width="246.503" height="85.497" transform="translate(44.214 167.551) rotate(-45)" fill="#9b9b9b" mix-blend-mode="multiply"/>
            <g mix-blend-mode="multiply">
              <line x1="-92.041" y1="90.479" x2="10.061" y2="-11.623" fill="none" stroke="#9b9b9b" stroke-miterlimit="10" stroke-width="3.171"/>
              <polyline points="-15.278 -11.63 10.054 -11.629 10.054 13.729" fill="none" stroke="#9b9b9b" stroke-miterlimit="10" stroke-width="3.171"/>
            </g>
            <g mix-blend-mode="multiply">
              <polyline points="19.085 352.813 33.597 352.813 33.597 367.34" fill="none" stroke="#9b9b9b" stroke-miterlimit="10" stroke-width="1.697"/>
              <path d="M-108.134,468.903s50.911-31.163,60.597-80.806c9.686-49.643-9.327-47.763-14.422-38.479-7.432,13.543-5.463,58.148,33.99,46.175,25.357-7.696,61.567-42.98,61.567-42.98" fill="none" stroke="#9b9b9b" stroke-miterlimit="10" stroke-width="1.697"/>
            </g>
            <g mix-blend-mode="multiply">
              <polyline points="33.597 13.058 48.109 13.057 48.109 27.585" fill="none" stroke="#9b9b9b" stroke-miterlimit="10" stroke-width="1.697"/>
              <polyline points="-5.124 130.306 3.591 130.306 3.591 139.03" fill="none" stroke="#9b9b9b" stroke-miterlimit="10" stroke-width="1.697"/>
              <path d="M-60.294,150.004c44.719-44.719-10.493-98.104,12.757-121.355C-24.286,5.399,5.689,55.478,48.109,13.057" fill="none" stroke="#9b9b9b" stroke-miterlimit="10" stroke-width="1.697"/>
              <path d="M-94.034,309.916c20.962-20.962,29.547-34.937,27.95-50.11-1.597-15.173-16.318-9.583-17.043,4.392-.725,13.975,14.351,33.475,33.813,23.326,24.09-12.563,3.934-59.297,11.912-97.034,5.856-27.7,34.072-54.594,40.993-60.184" fill="none" stroke="#9b9b9b" stroke-miterlimit="10" stroke-width="1.697"/>
            </g>
            <g mix-blend-mode="multiply">
              <polyline points="321.405 7.658 335.918 7.658 335.918 22.185" fill="none" stroke="#9b9b9b" stroke-miterlimit="10" stroke-width="1.697"/>
              <path d="M96.969,67.791c25.39-25.39,96.605-39.161,134.99-.777,33.696,33.696,33.755,67.319,22.622,78.452-12.873,12.873-34.187-22.285-2.418-54.054,31.769-31.769,83.756-83.756,83.756-83.756" fill="none" stroke="#9b9b9b" stroke-miterlimit="10" stroke-width="1.697"/>
            </g>
            <polygon points="48.109 448.129 48.109 263.938 100.304 211.743 139.457 211.743 139.457 250.856 101.06 289.253 101.06 399.474 48.109 448.129" fill="#9b9b9b" mix-blend-mode="multiply"/>
          </g>
          <g>
            <path d="M173.474,386.596c0-37.673-37.942-68.212-84.746-68.212-.715,0-1.421.029-2.132.043-2.531-25.765-20.641-45.749-42.622-45.749-21.805,0-39.801,19.668-42.557,45.136-13.959-20.022-34.387-32.671-57.164-32.671-32.367,0-60,25.52-71.034,61.496-2.661-.809-5.422-1.247-8.258-1.247-21.227,0-38.434,23.874-38.434,53.323H172.113c.877-3.935,1.36-7.98,1.36-12.119Z" fill="#fdfdfd"/>
            <path d="M147.463,405.312c0-33.761-34.003-61.13-75.947-61.13-.641,0-1.274.026-1.911.039-2.268-23.09-18.498-40.999-38.197-40.999-19.541,0-35.669,17.626-38.139,40.45-12.51-17.944-30.817-29.279-51.229-29.279-29.007,0-53.77,22.871-63.659,55.111-2.385-.725-4.859-1.118-7.401-1.118-19.023,0-34.444,21.395-34.444,47.787H146.244c.786-3.527,1.219-7.152,1.219-10.861Z" fill="#dedede" mix-blend-mode="multiply" opacity=".05"/>
            <path d="M147.463,405.312c0-33.761-34.003-61.13-75.947-61.13-.641,0-1.274.026-1.911.039-2.268-23.09-18.498-40.999-38.197-40.999-19.541,0-35.669,17.626-38.139,40.45-12.51-17.944-30.817-29.279-51.229-29.279-29.007,0-53.77,22.871-63.659,55.111-2.385-.725-4.859-1.118-7.401-1.118-19.023,0-34.444,21.395-34.444,47.787H146.244c.786-3.527,1.219-7.152,1.219-10.861Z" fill="url(#c)" mix-blend-mode="multiply" opacity=".05"/>
          </g>
          <polygon points="-129.772 580.436 663.817 580.436 673.505 -18.858 439.152 -23.093 439.281 -4.693 423.623 -4.976 423.751 13.425 408.093 13.142 408.194 27.542 392.564 27.26 392.665 41.696 375.035 41.377 375.135 55.777 359.505 55.495 359.634 73.896 343.976 73.613 344.076 88.013 328.446 87.73 328.561 104.13 312.917 103.848 313.045 122.176 301.388 121.965 301.502 138.402 283.858 138.083 283.959 152.483 268.329 152.201 268.443 168.637 250.799 168.318 250.928 186.755 233.27 186.436 233.412 206.837 217.741 206.554 217.869 224.954 202.211 224.671 202.326 241.108 184.682 240.789 184.782 255.189 169.152 254.907 169.253 269.307 153.623 269.024 153.738 285.461 136.093 285.142 136.194 299.542 120.564 299.26 120.692 317.66 105.035 317.377 105.107 327.777 89.505 327.495 89.634 345.896 73.976 345.613 74.076 360.013 58.446 359.73 58.603 382.131 42.917 381.848 43.017 396.248 27.388 395.965 27.488 410.366 11.858 410.083 11.987 428.592 -9.671 428.201 -9.571 442.601 -25.201 442.318 -25.059 462.683 -38.73 462.436 -38.63 476.836 -54.259 476.554 -54.118 496.882 -65.789 496.671 -65.688 511.072 -81.318 510.789 -81.19 529.226 -98.848 528.907 -98.747 543.307 -114.377 543.024 -114.249 561.425 -129.907 561.142 -129.772 580.436" fill="#dedede"/>
          <g>
            <path d="M323.594,64.327c1.596-8.177,8.792-14.35,17.436-14.35,4.187,0,8.028,1.457,11.065,3.879,5.079-35.282,35.422-62.398,72.11-62.398,40.245,0,72.87,32.625,72.87,72.87h-173.48ZM362.238-31.867c-5.031,0-9.11,4.079-9.11,9.11s4.079,9.11,9.11,9.11,9.11-4.079,9.11-9.11-4.079-9.11-9.11-9.11ZM298.167,67.899c-3.959,0-7.169,3.21-7.169,7.169s3.21,7.169,7.169,7.169,7.169-3.21,7.169-7.169-3.21-7.169-7.169-7.169Z" fill="#dedede" mix-blend-mode="multiply"/>
            <path d="M321.594,58.327c1.596-8.177,8.792-14.35,17.436-14.35,4.187,0,8.028,1.457,11.065,3.879,5.079-35.282,35.422-62.398,72.11-62.398,40.245,0,72.87,32.625,72.87,72.87h-173.48ZM360.238-37.867c-5.031,0-9.11,4.079-9.11,9.11s4.079,9.11,9.11,9.11,9.11-4.079,9.11-9.11-4.079-9.11-9.11-9.11ZM296.167,61.899c-3.959,0-7.169,3.21-7.169,7.169s3.21,7.169,7.169,7.169,7.169-3.21,7.169-7.169-3.21-7.169-7.169-7.169Z" fill="#fff"/>
          </g>
        </g>
      </g>
    </g>
    <g id="h" data-name="me">
      <g>
        <path d="M202.939,178.457c-.151-.108-.286-.196-.434-.299.459-.362.86-.834,1.189-1.444l-.64-1.561-8.268,3.753c-.493.199-.939.371-1.298.493l-.179-1.585c-6.629,1.687-10.422,2.606-11.381,2.757-1.869-1.944-4.163-4.316-6.881-7.115-2.262-2.304-3.981-3.551-5.174-3.773.008-.06.015-.124.023-.184-.959-.078-1.882-.125-2.783-.153l.051-2.24c.942-.627,1.723-1.7,1.269-2.694,1.846.687,4.152-.403,4.793-2.265,1.001-.024,2.215-.185,2.608-1.106.245-.573.04-1.254-.35-1.742.224-.163.438-.325.616-.476,3.336-2.834.694-7.862-.755-10.258-2.022-3.342-4.48-6.589-6.428-8.995,1.566-1.372,1.86-2.598,1.73-3.255-.189-.963-2.339-.069-2.339-.069,0,0,1.166-2.49.716-4.546-.614-2.803-6.928,4.068-9.541,6.169-2.613,2.102-11.36,2.841-13.994,7.369-1.942,3.337-1.273,5.609.973,6.785-.521,1.225-.574,2.899-.677,4.019-.597,6.483-.479,13.36,2.715,19.032.274.486.844,1.028,1.296.701.158-.115.237-.308.296-.494.063-.199.107-.403.141-.608.289.292.649.523,1.031.656-3.442,2.838-6.541,5.494-9.388,7.989-.026.251-1.006,7.19-2.94,20.816l1.922-.129,1.958-.13.087,3.004s-2.86-.327-2.991,2.63c-1.435.093-2.94-.064-4.515-.473-.174.772-.382,1.67-.624,2.694.65.49,1.869.873,3.659,1.147-1.435.514-2.677.825-3.725.93.28.709.625,1.383,1.032,2.022.219.345.454.68.704,1.005.731.06,1.679-.025,2.844-.255,1.158-.237,2.23-.626,3.219-1.166-.387.834-1.262,2.017-2.626,3.55-.177.202-.346.399-.509.59.794.552,1.675,1.044,2.643,1.476,1.116-.995,2.415-2.541,3.896-4.637.945-1.327,1.736-2.558,2.372-3.693-.178-.924-.385-2.077-.623-3.459-.37-2.029-.735-4.203-.941-5.625l.032-.002,1.573-.094c-.406-9.059-.593-14.239-.563-15.54,2.266-2.343,5.028-5.205,8.286-8.587.027-.028.049-.054.076-.082-.111.401-.218.79-.321,1.164-.937,3.431-.866,7.689.21,12.774,1.08,5.083,1.999,8.7,2.757,10.852.404-.249.822-.511,1.253-.786.163.352,1.17,17.539-.998,28.489-3.361,6.197-6.724,11.969-10.091,17.316-2.598,4.155-4.959,7.664-7.081,10.529,1.102.28,2.339.543,3.688.792-.598,1.423-1.375,3.274-1.631,3.877.01.003.021.007.031.011-.002.004-.004.009-.005.013,1.661.549,3.589,1.25,5.766,2.095,1.865.727,3.907,1.556,6.143,2.497.009,0,.016,0,.025,0,.142,0,.283.005.425.013,2.016.006,4.465.017,7.299.033.354.002.69.004,1.056.007,0,0-.001,0-.002,0,.009,0,.017,0,.027,0-.712-.298-2.698-1.243-5.957-2.833-1.59-1.546-3.06-3.262-3.898-4.408.097.01.203.024.299.033,3.402-6.25,6.878-13.96,10.427-23.128.432-1.202.833-2.331,1.205-3.385.583-3.842,1.228-9.362,1.934-16.561.541-5.81.026-10.457.308-13.323,2.324.033,6.286.364,10.032.377,2.021.009,3.906.014,5.653.016-.019.108-.041.217-.066.327-.526,2.935-1.277,6.775-2.251,11.518-1.167,5.562-2.575,11.796-4.225,18.701.694-.255,1.445-.534,2.238-.831.097.492.202,1.014.176,1.288-.077.891-.137,1.735-.179,2.531,4.371-2.202,9.565-4.832,15.584-7.892-1.681.121-4.003.209-5.795.243.049-.02.099-.039.148-.059.529-.216,1.057-.431,1.583-.645.652-5.772,1.075-9.685,1.27-11.74.361-3.559.694-8.012.999-13.359.054-.842.105-1.702.152-2.58.136-2.551.282-4.764.438-6.64-6.143-.258-12.609-.451-19.399-.579-1.477-.029-2.811-.05-4.003-.062.621-.451,1.193-.876,1.715-1.274-.678-.715-1.509-2.1-2.493-4.156-.845-1.756-1.558-3.712-2.141-5.867.226-3.557.52-6.937.87-10.173,3.518,4.828,6.731,9.028,9.63,12.58.174-.006,5.334-.001,15.48.014l-.206-1.884c.104.044.218.069.343.074,1.089.191,2.339.227,3.749.108.177,1.417.164,2.944-.038,4.583.58.071,1.26.152,2.041.244.31-.715.507-1.996.59-3.845.473,1.383.78,2.583.921,3.601.516-.355.989-.785,1.417-1.29.251-.261.486-.552.707-.873-.014-.708-.147-1.643-.401-2.805-.248-1.095-.601-2.116-1.059-3.061.625.297,1.549,1.018,2.773,2.161.161.132.323.265.484.397.347-.859.648-1.808.904-2.849-.809-.967-2.04-2.04-3.691-3.221ZM161.422,167.33c.404.262.849.456,1.324.568l-.028,1.268c-.171-.008-.336-.016-.51-.025-.295-.017-.625-.031-.971-.043.404-.484.456-1.228.185-1.768ZM153.99,170.426c.455.546.978,1.056,1.598,1.391-.554.443-1.107.886-1.645,1.321.21-.887.229-1.819.046-2.712Z" fill="#1d1061"/>
        <path d="M204.549,213.252c.097.01,2.187,1.211,2.283,1.221,3.402-6.25,6.446-17.276,9.995-26.445.432-1.202.833-2.331,1.205-3.385.583-3.842,1.228-9.362,1.934-16.561.541-5.81.952-10.148,1.234-13.015,2.42.499,11.793,2.696,14.512,3.602-.019.108-.371,14.787-3.346,24.389.632.107,1.533.289,2.376.371-.129.484-.264,1-.409,1.234-.461.766-.886,1.498-1.274,2.194,4.894-.055,10.716-.133,17.467-.235-1.563-.631-3.687-1.572-5.312-2.33.696.092,1.416.144,1.864.129.372-19.561-1.45-33.014-1.295-34.89-7.428-1-21.964-4.147-21.964-4.147l1.047-.671s-.775-1.468-1.065-3.729c-.252-1.933-.317-4.013-.195-6.242,1.329-3.307,2.668-6.424,4.015-9.387,1.827,5.688,3.562,10.683,5.202,14.965.167.049,5.066,1.671,14.696,4.865l.395-1.854c.085.074.185.134.303.178.974.523,2.149.949,3.526,1.277-.276,1.4-.767,2.847-1.473,4.34.528.249,1.149.539,1.861.872.518-.582,1.107-1.737,1.766-3.466.016,1.461-.069,2.697-.254,3.708.602-.176,1.185-.436,1.75-.781.32-.169.635-.372.945-.608.209-.677.375-1.607.499-2.789.108-1.118.092-2.197-.047-3.239.5.478,1.152,1.452,1.956,2.921.112.176.224.353.335.529.598-.707,1.182-1.514,1.751-2.423-.466-1.172-1.297-2.577-2.495-4.215-.109-.15-.211-.276-.318-.42.55-.2,1.078-.523,1.581-.998l-.118-1.683-9.027.973c-.53.035-1.008.058-1.387.061l.326-1.562c-6.823-.476-10.714-.792-11.672-.948-1.166-2.432-2.601-5.403-4.305-8.914-1.426-2.897-2.667-4.62-3.731-5.205.027-.055.053-.113.08-.168-.886-.375-1.748-.709-2.595-1.018l.75-2.112c1.091-.3,2.169-1.075,2.049-2.16,1.537,1.231,4.07.919,5.262-.649.958.291,2.161.519,2.823-.233.412-.468.431-1.178.213-1.764.264-.085.518-.171.734-.259,4.056-1.646,3.123-7.249,2.498-9.978-.873-3.807-2.19-7.661-3.286-10.556,1.917-.812,2.58-1.885,2.663-2.549.122-.974-2.2-.798-2.2-.798,0,0,1.887-1.999,2.104-4.092.296-2.854-7.854,1.691-10.994,2.868-3.14,1.177-11.678-.863-15.598,2.611-2.89,2.561-2.966,4.927-1.202,6.748-.878,1.001-1.454,2.573-1.903,3.604-2.599,5.969-4.642,12.536-3.387,18.924.108.548.479,1.241,1.011,1.072.186-.059.322-.218.436-.377.122-.169.228-.349.325-.533.183.368.453.7.774.946-4.158,1.617-7.933,3.167-11.419,4.645-.104.23-3.209,6.512-9.315,18.846l1.866.48,1.901.49-.858,2.88s-2.614-1.207-3.665,1.56c-1.392-.361-2.772-.983-4.139-1.864-.407.679-.886,1.466-1.437,2.362.463.669,1.502,1.415,3.115,2.236-1.524.039-2.8-.056-3.829-.284.044.761.16,1.509.347,2.243.1.397.218.788.353,1.175.675.286,1.602.502,2.781.649,1.174.138,2.314.105,3.422-.099-.629.67-1.831,1.52-3.607,2.548-.231.137-.454.27-.668.401.581.773,1.263,1.516,2.047,2.23,1.372-.596,3.089-1.656,5.153-3.182,1.313-.964,2.45-1.885,3.41-2.764.121-.933.285-2.093.493-3.48.285-2.043.619-4.222.869-5.636l.031.008,1.523.403c2.454-8.73,3.899-13.707,4.336-14.934,2.886-1.514,6.406-3.367,10.56-5.557.035-.018.064-.035.098-.054-.232.346-.455.682-.669,1.005-1.965,2.965-3.233,7.03-3.804,12.196-.568,5.165-.829,8.888-.783,11.169.462-.11.941-.228,1.436-.353.044.385.025,2.394,1.245,3.275.819.592,1.499.577,2.014.795-.383,5.821-.664,10.241-.843,12.29-.537,5.775-1.171,10.787-1.902,15.035-3.361,6.197-6.724,11.969-10.091,17.316-2.598,4.155-4.959,7.664-7.081,10.529.47.28,1.042.528,1.042.528,0,0-1.868.971-2.646,1.875,0,0,8.78,12.045,11.468,13.299h5.801l-5.355-4.839,1.104-6.64ZM218.695,116.942c.083.091.174.178.269.26-.025.009-.05.018-.075.027-.049-.103-.111-.201-.194-.287ZM222.401,116.055c.302.375.663.699,1.079.954l-.424,1.196c-.16-.062-.314-.121-.477-.184-.275-.109-.584-.225-.909-.345.535-.333.818-1.023.73-1.621ZM214.374,116.666c.26.661.598,1.31,1.082,1.822-.665.247-1.329.495-1.976.739.477-.776.788-1.656.894-2.561Z" fill="#1d1061"/>
        <g>
          <path d="M232.701,151.549c-.057-.041-.109-.076-.163-.112.352-.331.663-.739.93-1.232l-1.037.886c.388-.341.739-.752,1.026-1.284l-.64-1.561-8.268,3.753c-.493.199-.939.371-1.298.493l-.179-1.585c-6.629,1.687-10.422,2.606-11.381,2.757-1.869-1.944-4.163-4.316-6.881-7.115-2.261-2.304-3.981-3.552-5.174-3.774.008-.06.015-.124.023-.184-.3-.024-.577-.028-.872-.048.006-.01.013-.018.019-.028l-1.931-.083.071-3.129.308-3.946-.221.104.009-.388c7.553-3.708,13.596-8.112,13.596-8.112-2.354-4.001-5.675-7.617-8.75-10.478l.68-.447c-.452-.061-.832-.052-1.165-.002-1.904-1.738-3.682-3.168-5.045-4.206,3.291-4.3-2.438-11.633-8.463-8.407-2.116,1.133.004,4.836.004,4.836,0,0-5.865-.916-2.771,3.487-3.074,2.396-6.941,5.912-9.467,10.048l.42,1.425-1.86,2.501,7.756,6.868c-.737.562-1.207,1.453-1.178,2.451.046,1.646,1.418,2.942,3.064,2.896,1.142-.032,2.104-.709,2.577-1.666l1.857,2.373c1.437-.446,2.878-.975,4.299-1.556l-.063,2.9-.373,2.262c-.063-.003-.123-.006-.187-.009-.836-.048-1.879-.077-3.129-.087-6.802,5.314-12.355,10.014-17.205,14.265-.026.251-1.006,7.19-2.94,20.816l1.922-.129,1.958-.13.087,3.004s-2.86-.327-2.991,2.63c-1.435.093-2.94-.064-4.515-.473-.174.772-.382,1.67-.624,2.694.65.49,1.869.873,3.659,1.147-1.435.514-2.677.825-3.725.93.28.709.624,1.383,1.032,2.022.219.345.454.68.704,1.006.731.06,1.679-.025,2.844-.255,1.158-.237,2.231-.626,3.218-1.166-.387.834-1.262,2.017-2.626,3.55-.177.202-.346.399-.509.59.794.552,1.675,1.044,2.643,1.476,1.116-.996,2.415-2.541,3.896-4.637.945-1.327,1.736-2.558,2.372-3.693-.178-.924-.385-2.077-.623-3.459-.37-2.029-.735-4.204-.941-5.625l.032-.002,1.573-.094c-.405-9.059-.593-14.239-.563-15.54,2.266-2.343,5.028-5.205,8.286-8.587.027-.028.049-.054.076-.082-.004.013-.007.025-.011.038-.092.097-.194.207-.283.3-.016.066-.031.133-.044.201-.477,2.3-.717,4.408-.722,6.323.033-.036.06-.072.092-.108.021,2.177.304,4.569.858,7.184,1.08,5.083,1.998,8.7,2.757,10.852.404-.249.822-.511,1.253-.786.163.352.329.622.498.811.318.341.734.621,1.249.84-.383,5.821-.664,9.755-.843,11.803-.537,5.775-1.171,10.787-1.902,15.035-3.361,6.197-6.724,11.969-10.091,17.316-2.598,4.155-4.959,7.664-7.081,10.529,1.102.28,2.339.543,3.689.792-.598,1.423-1.375,3.274-1.631,3.877.01.003.021.007.031.011-.002.004-.004.009-.005.014,1.661.549,3.589,1.25,5.766,2.095,1.865.727,3.907,1.556,6.143,2.497.009,0,.016,0,.025,0,.142,0,.283.005.426.013,2.016.006,4.465.017,7.299.033.354.002.69.004,1.056.007,0,0-.001,0-.002,0,.009,0,.018,0,.027,0-.712-.298-2.698-1.243-5.957-2.833-1.59-1.546-3.06-3.262-3.898-4.408.097.01.203.024.299.033,3.403-6.25,6.878-13.96,10.428-23.128.432-1.202.833-2.331,1.205-3.385.116-.762.234-1.608.355-2.502.096.11.188.225.284.333l2.732-27.288c-.066,0-.147-.002-.215-.003.004-.037.008-.08.011-.116,2.324.033,5.36.056,9.106.068,2.022.009,3.906.014,5.653.016-.019.108-.041.217-.066.327-.526,2.935-1.277,6.775-2.251,11.518-1.167,5.562-2.575,11.796-4.225,18.701.693-.255,1.445-.534,2.238-.831.097.492.202,1.014.176,1.288-.077.891-.137,1.735-.179,2.531,4.371-2.202,9.565-4.832,15.584-7.892-1.681.121-4.003.209-5.795.243.049-.02.099-.039.148-.059.529-.216,1.057-.431,1.582-.645.652-5.772,1.075-9.685,1.27-11.74.361-3.559.694-8.012.999-13.358.054-.842.105-1.702.152-2.58.136-2.551.282-4.764.438-6.64-6.143-.258-12.609-.451-19.399-.579-1.477-.029-2.811-.05-4.003-.062.621-.452,1.193-.876,1.715-1.274-.678-.715-1.509-2.1-2.493-4.156-.845-1.756-1.558-3.712-2.141-5.867.22-3.468.506-6.766.844-9.929l3.169,4.011c2.31,3.079,4.475,5.861,6.487,8.326.174-.006,5.334-.001,15.48.014l-.206-1.884c.104.044.218.069.343.074,1.089.191,2.338.227,3.749.108.177,1.416.164,2.944-.038,4.583.58.071,1.26.152,2.041.244.31-.715.507-1.996.59-3.845.473,1.383.78,2.583.921,3.601.516-.355.989-.785,1.417-1.29.251-.261.486-.552.707-.873-.014-.708-.147-1.643-.401-2.805-.248-1.095-.601-2.116-1.059-3.061.625.297,1.549,1.018,2.773,2.16.161.132.323.265.484.397.347-.859.648-1.808.904-2.85-.809-.967-2.04-2.04-3.691-3.221Z" fill="#1d1061"/>
          <g>
            <g>
              <polygon points="194.568 135.791 194.372 144.805 198.77 144.681 199.015 133.849 194.568 135.791" fill="#ffbd94"/>
              <path d="M198.934,137.436l.081-3.587-4.447,1.942-.125,5.733c2.187-1.214,3.584-2.688,4.491-4.087Z" fill="#db6b4c"/>
              <path d="M194.568,135.791l-.064,2.932c2.183-1.125,3.578-2.242,4.473-3.211l.038-1.664-4.447,1.942Z" fill="#1d1061"/>
            </g>
            <g>
              <circle cx="185.747" cy="133.865" r="2.981" fill="#ffbd94"/>
              <circle cx="185.867" cy="133.739" r="1.824" fill="#d07b73"/>
              <path d="M195.732,108.869s11.228,7.405,16.876,17.006c0,0-11.32,8.254-22.343,11.676l-11.461-14.645s2.681-7.967,16.928-14.037Z" fill="#ffbd94"/>
              <path d="M180.464,120.98s8.41-8.541,14.542-10.265l-3.115-3.407s-9.512,5.626-14.26,13.397l.419,1.425-1.86,2.501,7.791,6.898s.65-.692,2.275-.518c0,0,3.482-8.336-5.792-10.031Z" fill="#db6b4c"/>
              <path d="M187.972,111.768s3.204,3.293,8.373.589c6.902-3.609.403-13.708-6.48-10.022-2.116,1.133.004,4.836.004,4.836,0,0-6.81-1.066-1.897,4.597Z" fill="#db6b4c"/>
              <line x1="200.099" y1="122.227" x2="200.49" y2="123.014" fill="none" stroke="#1d1061" stroke-linecap="round" stroke-linejoin="round"/>
              <line x1="204.395" y1="119.343" x2="204.985" y2="120.024" fill="none" stroke="#1d1061" stroke-linecap="round" stroke-linejoin="round"/>
              <polyline points="201.829 119.678 205.213 123.013 203.55 123.107" fill="none" stroke="#1d1061" stroke-linecap="round" stroke-linejoin="round"/>
              <path d="M201.363,117.039s.151-2.501,3.174-2.09" fill="none" stroke="#1d1061" stroke-linecap="round" stroke-linejoin="round"/>
              <path d="M194.7,119.686s1.125-2.863,4.108-1.413" fill="none" stroke="#1d1061" stroke-linecap="round" stroke-linejoin="round"/>
              <path d="M198.312,126.998c.547.301,1.469.434,2.767.397,1.963-.055,3.749-.755,5.358-2.099,1.086-.936,1.918-2.076,2.493-3.42" fill="none" stroke="#1d1061" stroke-linecap="round" stroke-linejoin="round"/>
              <g>
                <line x1="184.056" y1="134.228" x2="186.78" y2="132.551" fill="none" stroke="#1d1061" stroke-linecap="round" stroke-linejoin="round"/>
                <line x1="185.728" y1="133.199" x2="186.093" y2="135.235" fill="none" stroke="#1d1061" stroke-linecap="round" stroke-linejoin="round"/>
              </g>
              <path d="M188.937,111.655c.83.486,1.761.869,2.722.834s1.95-.574,2.289-1.474-.207-2.094-1.159-2.236c-.21-.031-.468.014-.552.209-.054.125-.016.27.032.399.515,1.377,2.175,2.208,3.586,1.796.375-.11.737-.303.982-.608.58-.724.329-1.794-.057-2.637-.604-1.319-1.474-2.515-2.544-3.494" fill="none" stroke="#cd4d35" stroke-linecap="round" stroke-linejoin="round"/>
              <path d="M176.569,122.146c.656.366,1.281.787,1.866,1.258" fill="none" stroke="#cd4d35" stroke-linecap="round" stroke-linejoin="round"/>
              <path d="M176.081,122.963c.417.345.865.653,1.338.918" fill="none" stroke="#cd4d35" stroke-linecap="round" stroke-linejoin="round"/>
            </g>
            <g>
              <g>
                <path d="M185.853,232.64c.256.716,2.318,3.306,4.595,5.52,3.259,1.59,5.245,2.535,5.957,2.833-.009,0-.018,0-.027,0,0,0,.001,0,.002,0-.366-.002-.702-.004-1.056-.007-2.833-.016-5.282-.027-7.299-.033-.142-.008-.284-.012-.426-.013-.009,0-.016,0-.025,0-2.236-.941-4.278-1.77-6.143-2.497-2.177-.844-4.105-1.546-5.766-2.095.002-.004.004-.009.005-.014-.01-.003-.021-.007-.031-.011.356-.837,1.719-4.092,2.208-5.246l8.005,1.56Z" fill="#1d1061"/>
                <path d="M211.964,206.483c-.041.429.364,1.793.315,2.301-.077.891-.137,1.735-.179,2.531,4.371-2.202,9.565-4.832,15.584-7.892-2.775.2-7.307.311-8.297.234l-7.423,2.826Z" fill="#1d1061"/>
                <path d="M191.753,175.323c.163.352.329.622.498.811.318.341.734.621,1.249.84.724.314,1.639.513,2.743.598.688.055,2.489.096,5.406.123,2.324.033,5.36.056,9.106.068,2.022.009,3.906.014,5.653.016-.019.108-.041.217-.066.327-.526,2.936-1.277,6.775-2.251,11.518-1.167,5.562-2.575,11.796-4.225,18.701.786-.289,1.636-.604,2.549-.947,1.003-.381,2.084-.795,3.241-1.242,2.14-.835,4.267-1.679,6.381-2.531.529-.216,1.057-.431,1.582-.645.652-5.772,1.075-9.685,1.27-11.74.361-3.559.694-8.012.999-13.358.054-.842.105-1.702.152-2.58.136-2.551.282-4.764.438-6.64-6.143-.258-12.609-.451-19.399-.579-1.477-.029-2.811-.05-4.003-.062" fill="#cd4d35"/>
                <path d="M193.5,176.975c-.383,5.821-.664,9.755-.843,11.803-.537,5.775-1.171,10.787-1.902,15.035-3.361,6.197-6.724,11.969-10.091,17.316-2.598,4.155-4.959,7.664-7.081,10.529,2.346.596,5.254,1.122,8.723,1.58,1.634.225,3.148.408,4.542.547,3.403-6.25,6.878-13.96,10.428-23.128.432-1.202.833-2.331,1.205-3.385.583-3.842,1.228-9.362,1.934-16.561.541-5.81.952-10.149,1.234-13.015" fill="#cd4d35"/>
              </g>
              <path d="M193.941,141.148c-.836-.048-1.879-.077-3.129-.087-1.381,4.666-2.474,8.473-3.279,11.422-.937,3.431-.867,7.689.21,12.774,1.08,5.083,1.999,8.7,2.757,10.852.404-.249.822-.511,1.253-.786,1.616-.937,3.394-2.029,5.335-3.277,2.34-1.516,4.336-2.865,5.988-4.045.621-.452,1.193-.876,1.715-1.274-.678-.715-1.509-2.1-2.493-4.156-.845-1.756-1.558-3.712-2.141-5.867.346-5.443.836-10.508,1.472-15.198-1.036-.084-2.038-.139-3.006-.165-1.392-.039-2.953-.104-4.682-.193" fill="#ffa544"/>
            </g>
            <path id="i" data-name="Layer0 0 MEMBER 1 MEMBER 0 1 STROKES" d="M222.713,177.927l-8.078.903" fill="none" stroke="#1d1061" stroke-linecap="round" stroke-linejoin="round"/>
            <path id="j" data-name="Layer0 0 MEMBER 1 MEMBER 1 1 STROKES" d="M196.03,184.231l4.063-4.916-2.093,7.362" fill="none" stroke="#1d1061" stroke-linecap="round" stroke-linejoin="round"/>
            <g>
              <path d="M171.644,181.517c-1.435.093-2.94-.064-4.515-.473-.174.772-.382,1.67-.624,2.694.65.49,1.869.873,3.659,1.147-1.435.514-2.677.825-3.725.93.28.709.624,1.383,1.032,2.022.219.345.454.68.704,1.006.731.06,1.679-.025,2.844-.255,1.158-.237,2.231-.626,3.218-1.166-.387.834-1.262,2.017-2.626,3.55-.177.202-.346.399-.509.59.794.552,1.675,1.044,2.643,1.476,1.116-.996,2.415-2.541,3.896-4.637.945-1.327,1.736-2.558,2.372-3.693-.178-.924-.385-2.077-.623-3.459-.456-2.501-.909-5.244-1.06-6.494l-3.807.253.113,3.879s-2.86-.327-2.991,2.63Z" fill="#ffbd94"/>
              <path d="M187.777,151.401c3.256-3.392,4.87-5.889,4.841-7.489-.033-1.592-.817-2.487-1.806-2.85-6.802,5.314-12.355,10.014-17.205,14.265-.026.251-1.006,7.19-2.94,20.816l1.922-.129,5.891-.391,1.573-.094c-.405-9.059-.593-14.239-.563-15.54,2.266-2.343,5.028-5.205,8.286-8.587Z" fill="#ffa544"/>
            </g>
            <g>
              <path d="M225.042,149.823c-6.629,1.687-10.422,2.606-11.381,2.757-1.869-1.944-4.163-4.316-6.881-7.115-2.715-2.767-4.661-4.032-5.836-3.797-1.172.268-1.85.915-2.032,1.939,4.359,6.083,8.274,11.252,11.746,15.506.174-.006,5.334-.001,15.48.014l-.206-1.884-.709-5.834-.179-1.585Z" fill="#ffa544"/>
              <path d="M234.671,150.465c-.151-.108-.286-.196-.434-.299.459-.362.86-.834,1.189-1.444l-.64-1.561-8.268,3.753c-.493.199-.939.371-1.298.493l.709,5.834c.104.044.218.069.343.074,1.089.191,2.338.227,3.749.108.177,1.416.164,2.944-.038,4.583.58.071,1.26.152,2.041.244.31-.715.507-1.996.59-3.845.473,1.383.78,2.583.921,3.601.516-.355.989-.785,1.417-1.29.251-.261.486-.552.707-.873-.014-.708-.147-1.643-.401-2.805-.248-1.095-.601-2.116-1.059-3.061.625.297,1.549,1.018,2.773,2.16.161.132.323.265.484.397.347-.859.648-1.808.904-2.85-.809-.967-2.04-2.04-3.691-3.221Z" fill="#ffbd94"/>
              <path id="k" data-name="Layer0 0 MEMBER 4 1 STROKES" d="M235.438,149.121c-.507.939-1.169,1.585-1.986,1.937-.856.325-1.495.628-1.918.908-.456.286-.719.52-.787.702-.054.823-.42,1.601-1.1,2.335-.826.862-1.842,1.419-3.05,1.673M230.675,151.715c.06.328.084.645.072.953" fill="none" stroke="#1d1061" stroke-linecap="round" stroke-linejoin="round"/>
            </g>
            <path id="l" data-name="Layer0 1 MEMBER 0 1 STROKES" d="M222.713,177.927l-8.078.903" fill="none" stroke="#1d1061" stroke-linecap="round" stroke-linejoin="round"/>
            <path id="m" data-name="Layer0 1 MEMBER 1 1 STROKES" d="M196.03,184.231l4.063-4.916-2.093,7.362" fill="none" stroke="#1d1061" stroke-linecap="round" stroke-linejoin="round"/>
            <g mix-blend-mode="overlay" opacity=".25">
              <g id="n" data-name="Layer0 2 FILL">
                <path d="M200.924,146.679l8.507,10.765c-1.437-4.998-4.103-9.658-7.997-13.98l-.51,3.216M201.852,177.815c-1.422-.013-3.341-.059-5.756-.138-.924-.029-1.744-.156-2.462-.381l-1.358,17.495c1.155,2.479,2.572,4.857,4.253,7.133.824,1.109,1.688,2.168,2.591,3.178l2.732-27.288M188.531,150.629c-.341.369-.665.711-.971,1.028-.016.066-.031.133-.044.201-.477,2.3-.717,4.408-.722,6.323,3.67-3.99,5.518-8.21,5.545-12.661-.938,1.65-2.207,3.353-3.808,5.109M194.929,136.293l-.812,4.925-3.304-.107c.187.826.608,1.548,1.261,2.165.042.041.077.073.103.097.438.428.914.748,1.428.96.689.314,1.443.46,2.263.436.897-.025,1.772-.333,2.625-.924.334-.219.66-.478.978-.778.534-.498.969-1.044,1.304-1.637l-2.103-.091.551-7.068-4.295,2.022Z" fill="url(#o)"/>
              </g>
            </g>
            <path d="M205.317,146.391l-4.168-.397c1.144.61,2.032,1.246,3.134,1.93" fill="none" stroke="#1d1061" stroke-linecap="round" stroke-linejoin="round"/>
            <path d="M191.142,141.924c.41.139.752.441.996.799s.394.772.502,1.191c.094.362.158.74.097,1.109-.164.99-1.106,1.87-1.7,2.64-.692.897-1.395,1.786-2.124,2.653" fill="none" stroke="#1d1061" stroke-linecap="round" stroke-linejoin="round"/>
          </g>
        </g>
      </g>
    </g>
    <g id="p" data-name="me win">
      <g>
        <path d="M202.939,184.057c-.151-.101-.286-.184-.434-.28.459-.34.86-.783,1.189-1.354l-.64-1.464-8.268,3.521c-.493.187-.939.348-1.298.462l-.179-1.487c-6.629,1.582-10.422,2.445-11.381,2.587-1.869-1.824-4.163-4.049-6.881-6.675-2.262-2.162-3.981-3.332-5.174-3.54.008-.057.015-.116.023-.173-.959-.073-1.882-.117-2.783-.144l.051-2.102c.942-.588,1.723-1.595,1.269-2.527,1.846.645,4.152-.378,4.793-2.125,1.001-.023,2.215-.173,2.608-1.037.245-.538.04-1.176-.35-1.634.224-.153.438-.305.616-.447,3.336-2.658.694-7.376-.755-9.623-2.022-3.135-4.48-6.181-6.428-8.438,1.566-1.287,1.86-2.438,1.73-3.054-.189-.904-2.339-.064-2.339-.064,0,0,1.166-2.336.716-4.265-.614-2.63-6.928,3.816-9.541,5.788-2.613,1.972-11.36,2.665-13.994,6.913-1.942,3.131-1.273,5.262.973,6.366-.521,1.15-.574,2.72-.677,3.771-.597,6.082-.479,12.533,2.715,17.855.274.456.844.964,1.296.658.158-.108.237-.289.296-.464.063-.186.107-.378.141-.57.289.274.649.49,1.031.615-3.442,2.663-6.541,5.154-9.388,7.495-.026.235-1.006,6.745-2.94,19.529l1.922-.121,1.958-.122.087,2.818s-2.86-.307-2.991,2.467c-1.435.087-2.94-.06-4.515-.444-.174.724-.382,1.567-.624,2.527.65.46,1.869.819,3.659,1.076-1.435.483-2.677.774-3.725.873.28.665.625,1.298,1.032,1.897.219.324.454.638.704.943.731.056,1.679-.023,2.844-.239,1.158-.222,2.23-.587,3.219-1.094-.387.782-1.262,1.892-2.626,3.331-.177.19-.346.374-.509.553.794.518,1.675.979,2.643,1.385,1.116-.934,2.415-2.384,3.896-4.35.945-1.245,1.736-2.4,2.372-3.465-.178-.866-.385-1.948-.623-3.245-.37-1.904-.735-3.944-.941-5.277l.032-.002,1.573-.089c-.406-8.499-.593-13.358-.563-14.579,2.266-2.198,5.028-4.883,8.286-8.056.027-.026.049-.05.076-.076-.111.377-.218.741-.321,1.092-.937,3.219-.866,7.214.21,11.984,1.08,4.769,1.999,8.162,2.757,10.181.404-.234.822-.479,1.253-.737.163.33,1.17,16.454-.998,26.727-3.361,5.814-6.724,11.229-10.091,16.245-2.598,3.898-4.959,7.19-7.081,9.877,1.102.262,2.339.509,3.688.743-.598,1.335-1.375,3.072-1.631,3.637.01.003.021.007.031.01-.002.004-.004.009-.005.013,1.661.515,3.589,1.173,5.766,1.965,1.865.682,3.907,1.46,6.143,2.342.009,0,.016,0,.025,0,.142,0,.283.005.425.012,2.016.006,4.465.016,7.299.031.354.002.69.004,1.056.006,0,0-.001,0-.002,0,.009,0,.017,0,.027,0-.712-.28-2.698-1.166-5.957-2.658-1.59-1.45-3.06-3.06-3.898-4.136.097.009.203.022.299.031,3.402-5.864,6.878-13.096,10.427-21.698.432-1.128.833-2.187,1.205-3.176.583-3.605,1.228-8.783,1.934-15.537.541-5.451.026-9.81.308-12.499,2.324.031,6.286.341,10.032.353,2.021.009,3.906.013,5.653.015-.019.101-.041.203-.066.307-.526,2.754-1.277,6.356-2.251,10.806-1.167,5.218-2.575,11.066-4.225,17.545.694-.239,1.445-.501,2.238-.78.097.461.202.951.176,1.209-.077.836-.137,1.627-.179,2.374,4.371-2.065,9.565-4.533,15.584-7.404-1.681.113-4.003.196-5.795.228.049-.019.099-.037.148-.055.529-.202,1.057-.404,1.583-.605.652-5.415,1.075-9.086,1.27-11.014.361-3.339.694-7.516.999-12.532.054-.79.105-1.597.152-2.421.136-2.393.282-4.469.438-6.229-6.143-.242-12.609-.423-19.399-.543-1.477-.027-2.811-.047-4.003-.058.621-.423,1.193-.822,1.715-1.195-.678-.671-1.509-1.97-2.493-3.899-.845-1.648-1.558-3.482-2.141-5.504.226-3.337.52-6.508.87-9.543,3.518,4.53,6.731,8.47,9.63,11.802.174-.005,5.334-.001,15.48.014l-.206-1.768c.104.041.218.065.343.069,1.089.179,2.339.213,3.749.101.177,1.329.164,2.762-.038,4.299.58.066,1.26.143,2.041.229.31-.671.507-1.873.59-3.607.473,1.297.78,2.423.921,3.378.516-.333.989-.737,1.417-1.21.251-.245.486-.518.707-.819-.014-.665-.147-1.542-.401-2.632-.248-1.027-.601-1.985-1.059-2.872.625.279,1.549.955,2.773,2.027.161.124.323.248.484.373.347-.806.648-1.697.904-2.673-.809-.907-2.04-1.914-3.691-3.022ZM161.422,173.617c.404.246.849.428,1.324.533l-.028,1.19c-.171-.008-.336-.015-.51-.024-.295-.016-.625-.029-.971-.04.404-.454.456-1.152.185-1.659ZM153.99,176.522c.455.513.978.991,1.598,1.305-.554.416-1.107.832-1.645,1.239.21-.832.229-1.707.046-2.545Z" fill="#1d1061"/>
        <path d="M184.772,230.94c.089.009,2.017,1.133,2.105,1.142,3.138-5.847,5.945-16.161,9.218-24.738.398-1.125.769-2.18,1.111-3.167.538-3.594,1.132-8.758,1.784-15.492.499-5.435.878-9.493,1.138-12.175,2.231.467,10.876,2.522,13.383,3.37-.018.101-.342,13.832-3.086,22.815.583.1,1.414.27,2.191.347-.119.453-.244.935-.377,1.155-.425.717-.817,1.401-1.175,2.053,4.513-.052,9.882-.125,16.108-.22-1.441-.59-3.4-1.471-4.898-2.18.641.086,1.306.134,1.719.121.343-18.299-1.338-30.883-1.194-32.638-6.85-.935-20.255-3.879-20.255-3.879l.966-.628s-.715-1.374-.982-3.489c-.232-1.808-.292-3.754-.179-5.839,1.226-3.094,2.461-6.01,3.702-8.781,1.685,5.321,3.285,9.993,4.798,13.999.154.046,4.671,1.563,13.552,4.551l.364-1.734c.078.07.171.125.279.166.898.489,1.982.887,3.252,1.195-.255,1.31-.707,2.663-1.358,4.06.487.233,1.059.504,1.717.815.478-.544,1.021-1.625,1.628-3.243.015,1.367-.064,2.523-.234,3.469.555-.164,1.093-.408,1.614-.73.295-.158.585-.348.871-.569.193-.633.346-1.503.46-2.609.1-1.046.085-2.055-.043-3.03.461.447,1.063,1.358,1.804,2.732.103.165.206.33.309.495.552-.661,1.09-1.416,1.615-2.266-.429-1.096-1.196-2.411-2.301-3.943-.101-.14-.194-.258-.293-.393.507-.187.994-.489,1.458-.934l-.109-1.574-8.325.91c-.489.032-.929.054-1.279.057l.301-1.461c-6.293-.445-9.88-.741-10.764-.887-1.075-2.275-2.398-5.054-3.97-8.338-1.315-2.71-2.46-4.322-3.441-4.869.025-.051.049-.106.074-.157-.817-.35-1.612-.663-2.393-.952l.692-1.975c1.006-.28,2-1.005,1.89-2.021,1.418,1.152,3.753.86,4.852-.607.883.272,1.993.485,2.603-.218.38-.438.397-1.102.197-1.65.243-.08.477-.16.677-.242,3.74-1.539,2.88-6.781,2.303-9.334-.805-3.562-2.019-7.166-3.03-9.875,1.768-.76,2.38-1.763,2.456-2.385.112-.911-2.029-.747-2.029-.747,0,0,1.74-1.87,1.94-3.828.273-2.67-7.243,1.582-10.138,2.683-2.895,1.101-10.769-.807-14.385,2.443-2.665,2.395-2.736,4.609-1.109,6.313-.81.936-1.341,2.407-1.755,3.372-2.396,5.584-4.281,11.727-3.123,17.703.099.512.442,1.161.932,1.003.172-.055.297-.204.402-.352.112-.158.21-.326.3-.499.169.344.417.655.714.885-3.834,1.512-7.316,2.963-10.53,4.345-.096.215-2.959,6.092-8.591,17.63l1.721.449,1.753.459-.792,2.694s-2.41-1.129-3.38,1.459c-1.283-.338-2.556-.919-3.817-1.744-.375.635-.817,1.372-1.325,2.21.427.626,1.385,1.323,2.872,2.092-1.405.036-2.582-.052-3.531-.266.041.712.147,1.412.32,2.099.092.371.201.737.326,1.099.623.268,1.477.47,2.564.607,1.082.129,2.134.098,3.156-.092-.58.627-1.689,1.422-3.326,2.384-.213.128-.418.253-.616.375.536.723,1.165,1.418,1.888,2.086,1.265-.557,2.849-1.549,4.752-2.977,1.211-.901,2.259-1.763,3.145-2.585.111-.873.263-1.958.454-3.255.263-1.911.571-3.95.801-5.272l.029.008,1.405.377c2.263-8.166,3.596-12.823,3.998-13.97,2.661-1.417,5.907-3.15,9.738-5.198.032-.017.059-.033.09-.05-.214.324-.42.638-.617.94-1.812,2.773-2.981,6.576-3.508,11.409-.524,4.832-.764,8.314-.722,10.448.426-.103.868-.213,1.325-.33.041.36.023,2.239,1.148,3.064.755.554,1.383.539,1.857.744-.353,5.445-.612,9.58-.777,11.497-.495,5.403-1.08,10.091-1.754,14.064-3.099,5.797-6.201,11.197-9.306,16.199-2.396,3.886-4.573,7.169-6.53,9.849.434.262.961.494.961.494,0,0-1.723.908-2.44,1.754,0,0,8.096,11.267,10.576,12.441h5.35l-4.938-4.526,1.018-6.211ZM197.817,140.848c.077.086.16.166.248.243-.023.008-.046.017-.069.025-.046-.097-.103-.188-.179-.269ZM201.235,140.017c.278.351.611.654.995.893l-.391,1.119c-.147-.058-.29-.113-.44-.172-.253-.102-.538-.21-.838-.323.493-.311.754-.957.673-1.516ZM193.833,140.589c.24.619.551,1.225.997,1.705-.613.231-1.226.463-1.822.691.44-.726.726-1.549.825-2.396Z" fill="#1d1061"/>
        <g>
          <path d="M281.637,96.021c-.057-.041-.109-.076-.163-.112.352-.331.663-.739.93-1.232l-1.037.886c.388-.341.739-.752,1.026-1.284l-.64-1.561-8.268,3.753c-.493.199-.939.371-1.298.493l-.179-1.585c-6.629,1.687-10.422,2.606-11.381,2.757-1.869-1.944-4.163-4.316-6.881-7.115-2.261-2.304-3.981-3.552-5.174-3.774.008-.06.015-.124.023-.184-.3-.024-.577-.028-.872-.048.006-.01.013-.018.019-.028l-1.931-.083.071-3.129.308-3.946-.221.104.009-.388c7.553-3.708,13.596-8.112,13.596-8.112-2.354-4.001-5.675-7.617-8.75-10.478l.68-.447c-.452-.061-.832-.052-1.165-.002-1.904-1.738-3.682-3.168-5.045-4.206,3.291-4.3-2.438-11.633-8.463-8.407-2.116,1.133.004,4.836.004,4.836,0,0-5.865-.916-2.771,3.487-3.074,2.396-6.941,5.912-9.467,10.048l.42,1.425-1.86,2.501,7.756,6.868c-.737.562-1.207,1.453-1.178,2.451.046,1.646,1.418,2.942,3.064,2.896,1.142-.032,2.104-.709,2.577-1.666l1.857,2.373c1.437-.446,2.878-.975,4.299-1.556l-.063,2.9-.373,2.262c-.063-.003-.123-.006-.187-.009-.836-.048-1.879-.077-3.129-.087-6.802,5.314-12.355,10.014-17.205,14.265-.026.251-1.006,7.19-2.94,20.816l1.922-.129,1.958-.13.087,3.004s-2.86-.327-2.991,2.63c-1.435.093-2.94-.064-4.515-.473-.174.772-.382,1.67-.624,2.694.65.49,1.869.873,3.659,1.147-1.435.514-2.677.825-3.725.93.28.709.624,1.383,1.032,2.022.219.345.454.68.704,1.006.731.06,1.679-.025,2.844-.255,1.158-.237,2.231-.626,3.218-1.166-.387.834-1.262,2.017-2.626,3.55-.177.202-.346.399-.509.59.794.552,1.675,1.044,2.643,1.476,1.116-.996,2.415-2.541,3.896-4.637.945-1.327,1.736-2.558,2.372-3.693-.178-.924-.385-2.077-.623-3.459-.37-2.029-.735-4.204-.941-5.625l.032-.002,1.573-.094c-.405-9.059-.593-14.239-.563-15.54,2.266-2.343,5.028-5.205,8.286-8.587.027-.028.049-.054.076-.082-.004.013-.007.025-.011.038-.092.097-.194.207-.283.3-.016.066-.031.133-.044.201-.477,2.3-.717,4.408-.722,6.323.033-.036.06-.072.092-.108.021,2.177.304,4.569.858,7.184,1.08,5.083,1.998,8.7,2.757,10.852.404-.249.822-.511,1.253-.786.163.352.329.622.498.811.318.341.734.621,1.249.84-.383,5.821-.664,9.755-.843,11.803-.537,5.775-1.171,10.787-1.902,15.035-3.361,6.197-6.724,11.969-10.091,17.316-2.598,4.155-4.959,7.664-7.081,10.529,1.102.28,2.339.543,3.689.792-.598,1.423-1.375,3.274-1.631,3.877.01.003.021.007.031.011-.002.004-.004.009-.005.014,1.661.549,3.589,1.25,5.766,2.095,1.865.727,3.907,1.556,6.143,2.497.009,0,.016,0,.025,0,.142,0,.283.005.426.013,2.016.006,4.465.017,7.299.033.354.002.69.004,1.056.007,0,0-.001,0-.002,0,.009,0,.018,0,.027,0-.712-.298-2.698-1.243-5.957-2.833-1.59-1.546-3.06-3.262-3.898-4.408.097.01.203.024.299.033,3.403-6.25,6.878-13.96,10.428-23.128.432-1.202.833-2.331,1.205-3.385.116-.762.234-1.608.355-2.502.096.11.188.225.284.333l2.732-27.288c-.066,0-.147-.002-.215-.003.004-.037.008-.08.011-.116,2.324.033,5.36.056,9.106.068,2.022.009,3.906.014,5.653.016-.019.108-.041.217-.066.327-.526,2.935-1.277,6.775-2.251,11.518-1.167,5.562-2.575,11.796-4.225,18.701.693-.255,1.445-.534,2.238-.831.097.492.202,1.014.176,1.288-.077.891-.137,1.735-.179,2.531,4.371-2.202,9.565-4.832,15.584-7.892-1.681.121-4.003.209-5.795.243.049-.02.099-.039.148-.059.529-.216,1.057-.431,1.582-.645.652-5.772,1.075-9.685,1.27-11.74.361-3.559.694-8.012.999-13.358.054-.842.105-1.702.152-2.58.136-2.551.282-4.764.438-6.64-6.143-.258-12.609-.451-19.399-.579-1.477-.029-2.811-.05-4.003-.062.621-.452,1.193-.876,1.715-1.274-.678-.715-1.509-2.1-2.493-4.156-.845-1.756-1.558-3.712-2.141-5.867.22-3.468.506-6.766.844-9.929l3.169,4.011c2.31,3.079,4.475,5.861,6.487,8.326.174-.006,5.334-.001,15.48.014l-.206-1.884c.104.044.218.069.343.074,1.089.191,2.338.227,3.749.108.177,1.416.164,2.944-.038,4.583.58.071,1.26.152,2.041.244.31-.715.507-1.996.59-3.845.473,1.383.78,2.583.921,3.601.516-.355.989-.785,1.417-1.29.251-.261.486-.552.707-.873-.014-.708-.147-1.643-.401-2.805-.248-1.095-.601-2.116-1.059-3.061.625.297,1.549,1.018,2.773,2.16.161.132.323.265.484.397.347-.859.648-1.808.904-2.85-.809-.967-2.04-2.04-3.691-3.221Z" fill="#1d1061"/>
          <g>
            <g>
              <polygon points="243.504 80.263 243.308 89.277 247.706 89.153 247.951 78.321 243.504 80.263" fill="#ffbd94"/>
              <path d="M247.87,81.908l.081-3.587-4.447,1.942-.125,5.733c2.187-1.214,3.584-2.688,4.491-4.087Z" fill="#db6b4c"/>
              <path d="M243.504,80.263l-.064,2.932c2.183-1.125,3.578-2.242,4.473-3.211l.038-1.664-4.447,1.942Z" fill="#1d1061"/>
            </g>
            <g>
              <circle cx="234.683" cy="78.337" r="2.981" fill="#ffbd94"/>
              <circle cx="234.802" cy="78.211" r="1.824" fill="#d07b73"/>
              <path d="M244.667,53.341s11.228,7.405,16.876,17.006c0,0-11.32,8.254-22.343,11.676l-11.461-14.645s2.681-7.967,16.928-14.037Z" fill="#ffbd94"/>
              <path d="M229.399,65.453s8.41-8.541,14.542-10.265l-3.115-3.407s-9.512,5.626-14.26,13.397l.419,1.425-1.86,2.501,7.791,6.898s.65-.692,2.275-.518c0,0,3.482-8.336-5.792-10.031Z" fill="#db6b4c"/>
              <path d="M236.907,56.24s3.204,3.293,8.373.589c6.902-3.609.403-13.708-6.48-10.022-2.116,1.133.004,4.836.004,4.836,0,0-6.81-1.066-1.897,4.597Z" fill="#db6b4c"/>
              <line x1="249.035" y1="66.699" x2="249.426" y2="67.486" fill="none" stroke="#1d1061" stroke-linecap="round" stroke-linejoin="round"/>
              <line x1="253.331" y1="63.815" x2="253.921" y2="64.496" fill="none" stroke="#1d1061" stroke-linecap="round" stroke-linejoin="round"/>
              <polyline points="250.764 64.15 254.148 67.485 252.486 67.579" fill="none" stroke="#1d1061" stroke-linecap="round" stroke-linejoin="round"/>
              <path d="M250.299,61.511s.151-2.501,3.174-2.09" fill="none" stroke="#1d1061" stroke-linecap="round" stroke-linejoin="round"/>
              <path d="M243.636,64.158s1.125-2.863,4.108-1.413" fill="none" stroke="#1d1061" stroke-linecap="round" stroke-linejoin="round"/>
              <path d="M247.248,71.47c.547.301,1.469.434,2.767.397,1.963-.055,3.749-.755,5.358-2.099,1.086-.936,1.918-2.076,2.493-3.42" fill="none" stroke="#1d1061" stroke-linecap="round" stroke-linejoin="round"/>
              <g>
                <line x1="232.992" y1="78.7" x2="235.716" y2="77.023" fill="none" stroke="#1d1061" stroke-linecap="round" stroke-linejoin="round"/>
                <line x1="234.664" y1="77.671" x2="235.028" y2="79.707" fill="none" stroke="#1d1061" stroke-linecap="round" stroke-linejoin="round"/>
              </g>
              <path d="M237.873,56.127c.83.486,1.761.869,2.722.834s1.95-.574,2.289-1.474-.207-2.094-1.159-2.236c-.21-.031-.468.014-.552.209-.054.125-.016.27.032.399.515,1.377,2.175,2.208,3.586,1.796.375-.11.737-.303.982-.608.58-.724.329-1.794-.057-2.637-.604-1.319-1.474-2.515-2.544-3.494" fill="none" stroke="#cd4d35" stroke-linecap="round" stroke-linejoin="round"/>
              <path d="M225.505,66.618c.656.366,1.281.787,1.866,1.258" fill="none" stroke="#cd4d35" stroke-linecap="round" stroke-linejoin="round"/>
              <path d="M225.016,67.435c.417.345.865.653,1.338.918" fill="none" stroke="#cd4d35" stroke-linecap="round" stroke-linejoin="round"/>
            </g>
            <g>
              <g>
                <path d="M234.788,177.112c.256.716,2.318,3.306,4.595,5.52,3.259,1.59,5.245,2.535,5.957,2.833-.009,0-.018,0-.027,0,0,0,.001,0,.002,0-.366-.002-.702-.004-1.056-.007-2.833-.016-5.282-.027-7.299-.033-.142-.008-.284-.012-.426-.013-.009,0-.016,0-.025,0-2.236-.941-4.278-1.77-6.143-2.497-2.177-.844-4.105-1.546-5.766-2.095.002-.004.004-.009.005-.014-.01-.003-.021-.007-.031-.011.356-.837,1.719-4.092,2.208-5.246l8.005,1.56Z" fill="#1d1061"/>
                <path d="M260.899,150.955c-.041.429.364,1.793.315,2.301-.077.891-.137,1.735-.179,2.531,4.371-2.202,9.565-4.832,15.584-7.892-2.775.2-7.307.311-8.297.234l-7.423,2.826Z" fill="#1d1061"/>
                <path d="M240.688,119.795c.163.352.329.622.498.811.318.341.734.621,1.249.84.724.314,1.639.513,2.743.598.688.055,2.489.096,5.406.123,2.324.033,5.36.056,9.106.068,2.022.009,3.906.014,5.653.016-.019.108-.041.217-.066.327-.526,2.936-1.277,6.775-2.251,11.518-1.167,5.562-2.575,11.796-4.225,18.701.786-.289,1.636-.604,2.549-.947,1.003-.381,2.084-.795,3.241-1.242,2.14-.835,4.267-1.679,6.381-2.531.529-.216,1.057-.431,1.582-.645.652-5.772,1.075-9.685,1.27-11.74.361-3.559.694-8.012.999-13.358.054-.842.105-1.702.152-2.58.136-2.551.282-4.764.438-6.64-6.143-.258-12.609-.451-19.399-.579-1.477-.029-2.811-.05-4.003-.062" fill="#cd4d35"/>
                <path d="M242.436,121.447c-.383,5.821-.664,9.755-.843,11.803-.537,5.775-1.171,10.787-1.902,15.035-3.361,6.197-6.724,11.969-10.091,17.316-2.598,4.155-4.959,7.664-7.081,10.529,2.346.596,5.254,1.122,8.723,1.58,1.634.225,3.148.408,4.542.547,3.403-6.25,6.878-13.96,10.428-23.128.432-1.202.833-2.331,1.205-3.385.583-3.842,1.228-9.362,1.934-16.561.541-5.81.952-10.149,1.234-13.015" fill="#cd4d35"/>
              </g>
              <path d="M242.876,85.62c-.836-.048-1.879-.077-3.129-.087-1.381,4.666-2.474,8.473-3.279,11.422-.937,3.431-.867,7.689.21,12.774,1.08,5.083,1.999,8.7,2.757,10.852.404-.249.822-.511,1.253-.786,1.616-.937,3.394-2.029,5.335-3.277,2.34-1.516,4.336-2.865,5.988-4.045.621-.452,1.193-.876,1.715-1.274-.678-.715-1.509-2.1-2.493-4.156-.845-1.756-1.558-3.712-2.141-5.867.346-5.443.836-10.508,1.472-15.198-1.036-.084-2.038-.139-3.006-.165-1.392-.039-2.953-.104-4.682-.193" fill="#ffa544"/>
            </g>
            <path id="q" data-name="Layer0 0 MEMBER 1 MEMBER 0 1 STROKES" d="M271.649,122.399l-8.078.903" fill="none" stroke="#1d1061" stroke-linecap="round" stroke-linejoin="round"/>
            <path id="r" data-name="Layer0 0 MEMBER 1 MEMBER 1 1 STROKES" d="M244.966,128.703l4.063-4.916-2.093,7.362" fill="none" stroke="#1d1061" stroke-linecap="round" stroke-linejoin="round"/>
            <g>
              <path d="M220.58,125.989c-1.435.093-2.94-.064-4.515-.473-.174.772-.382,1.67-.624,2.694.65.49,1.869.873,3.659,1.147-1.435.514-2.677.825-3.725.93.28.709.624,1.383,1.032,2.022.219.345.454.68.704,1.006.731.06,1.679-.025,2.844-.255,1.158-.237,2.231-.626,3.218-1.166-.387.834-1.262,2.017-2.626,3.55-.177.202-.346.399-.509.59.794.552,1.675,1.044,2.643,1.476,1.116-.996,2.415-2.541,3.896-4.637.945-1.327,1.736-2.558,2.372-3.693-.178-.924-.385-2.077-.623-3.459-.456-2.501-.909-5.244-1.06-6.494l-3.807.253.113,3.879s-2.86-.327-2.991,2.63Z" fill="#ffbd94"/>
              <path d="M236.713,95.873c3.256-3.392,4.87-5.889,4.841-7.489-.033-1.592-.817-2.487-1.806-2.85-6.802,5.314-12.355,10.014-17.205,14.265-.026.251-1.006,7.19-2.94,20.816l1.922-.129,5.891-.391,1.573-.094c-.405-9.059-.593-14.239-.563-15.54,2.266-2.343,5.028-5.205,8.286-8.587Z" fill="#ffa544"/>
            </g>
            <g>
              <path d="M273.978,94.295c-6.629,1.687-10.422,2.606-11.381,2.757-1.869-1.944-4.163-4.316-6.881-7.115-2.715-2.767-4.661-4.032-5.836-3.797-1.172.268-1.85.915-2.032,1.939,4.359,6.083,8.274,11.252,11.746,15.506.174-.006,5.334-.001,15.48.014l-.206-1.884-.709-5.834-.179-1.585Z" fill="#ffa544"/>
              <path d="M283.607,94.937c-.151-.108-.286-.196-.434-.299.459-.362.86-.834,1.189-1.444l-.64-1.561-8.268,3.753c-.493.199-.939.371-1.298.493l.709,5.834c.104.044.218.069.343.074,1.089.191,2.338.227,3.749.108.177,1.416.164,2.944-.038,4.583.58.071,1.26.152,2.041.244.31-.715.507-1.996.59-3.845.473,1.383.78,2.583.921,3.601.516-.355.989-.785,1.417-1.29.251-.261.486-.552.707-.873-.014-.708-.147-1.643-.401-2.805-.248-1.095-.601-2.116-1.059-3.061.625.297,1.549,1.018,2.773,2.16.161.132.323.265.484.397.347-.859.648-1.808.904-2.85-.809-.967-2.04-2.04-3.691-3.221Z" fill="#ffbd94"/>
              <path id="s" data-name="Layer0 0 MEMBER 4 1 STROKES" d="M284.373,93.593c-.507.939-1.169,1.585-1.986,1.937-.856.325-1.495.628-1.918.908-.456.286-.719.52-.787.702-.054.823-.42,1.601-1.1,2.335-.826.862-1.842,1.419-3.05,1.673M279.611,96.187c.06.328.084.645.072.953" fill="none" stroke="#1d1061" stroke-linecap="round" stroke-linejoin="round"/>
            </g>
            <path id="t" data-name="Layer0 1 MEMBER 0 1 STROKES" d="M271.649,122.399l-8.078.903" fill="none" stroke="#1d1061" stroke-linecap="round" stroke-linejoin="round"/>
            <path id="u" data-name="Layer0 1 MEMBER 1 1 STROKES" d="M244.966,128.703l4.063-4.916-2.093,7.362" fill="none" stroke="#1d1061" stroke-linecap="round" stroke-linejoin="round"/>
            <g mix-blend-mode="overlay" opacity=".25">
              <g id="v" data-name="Layer0 2 FILL">
                <path d="M249.86,91.151l8.507,10.765c-1.437-4.998-4.103-9.658-7.997-13.98l-.51,3.216M250.788,122.287c-1.422-.013-3.341-.059-5.756-.138-.924-.029-1.744-.156-2.462-.381l-1.358,17.495c1.155,2.479,2.572,4.857,4.253,7.133.824,1.109,1.688,2.168,2.591,3.178l2.732-27.288M237.466,95.101c-.341.369-.665.711-.971,1.028-.016.066-.031.133-.044.201-.477,2.3-.717,4.408-.722,6.323,3.67-3.99,5.518-8.21,5.545-12.661-.938,1.65-2.207,3.353-3.808,5.109M243.865,80.765l-.812,4.925-3.304-.107c.187.826.608,1.548,1.261,2.165.042.041.077.073.103.097.438.428.914.748,1.428.96.689.314,1.443.46,2.263.436.897-.025,1.772-.333,2.625-.924.334-.219.66-.478.978-.778.534-.498.969-1.044,1.304-1.637l-2.103-.091.551-7.068-4.295,2.022Z" fill="url(#w)"/>
              </g>
            </g>
            <path d="M254.253,90.863l-4.168-.397c1.144.61,2.032,1.246,3.134,1.93" fill="none" stroke="#1d1061" stroke-linecap="round" stroke-linejoin="round"/>
            <path d="M240.078,86.396c.41.139.752.441.996.799s.394.772.502,1.191c.094.362.158.74.097,1.109-.164.99-1.106,1.87-1.7,2.64-.692.897-1.395,1.786-2.124,2.653" fill="none" stroke="#1d1061" stroke-linecap="round" stroke-linejoin="round"/>
          </g>
        </g>
      </g>
    </g>
    <g id="x" data-name="me info">
      <g>
        <g mix-blend-mode="multiply">
          <rect x="233.766" y="209.301" width="135.879" height="86.995" fill="#dedede"/>
          <polygon points="243.094 209.983 227.748 203.279 227.74 203.271 227.742 203.277 227.74 203.275 227.743 203.279 234.448 218.625 238.769 214.304 238.771 214.306 243.094 209.983" fill="#dedede"/>
        </g>
        <g>
          <rect x="233.766" y="203.898" width="135.879" height="86.995" fill="#fdfdfd"/>
          <polygon points="243.094 204.58 227.748 197.876 227.74 197.867 227.742 197.873 227.74 197.872 227.743 197.876 234.448 213.222 238.769 208.901 238.771 208.903 243.094 204.58" fill="#fdfdfd"/>
        </g>
      </g>
      <g id="y" data-name="me num">
        <g>
          <g isolation="isolate">
            <path d="M244.481,258.658v-.096c0-4.081,1.872-6.48,5.424-8.113-2.592-1.584-4.271-3.744-4.271-7.345v-.096c0-5.137,4.704-9.217,11.809-9.217s11.809,4.032,11.809,9.217v.096c0,3.601-1.68,5.761-4.271,7.345,3.408,1.776,5.424,3.937,5.424,7.921v.096c0,6.241-5.521,9.89-12.961,9.89s-12.961-3.841-12.961-9.697ZM263.251,258.082v-.096c0-2.593-2.448-4.129-5.809-4.129s-5.809,1.536-5.809,4.129v.096c0,2.305,2.16,4.177,5.809,4.177s5.809-1.824,5.809-4.177ZM262.243,243.921v-.096c0-2.064-1.776-3.937-4.801-3.937s-4.801,1.824-4.801,3.889v.096c0,2.353,1.872,4.128,4.801,4.128s4.801-1.728,4.801-4.08Z" fill="#1d1061"/>
            <path d="M274.72,258.658v-.096c0-4.081,1.872-6.48,5.424-8.113-2.592-1.584-4.271-3.744-4.271-7.345v-.096c0-5.137,4.704-9.217,11.809-9.217s11.809,4.032,11.809,9.217v.096c0,3.601-1.68,5.761-4.271,7.345,3.408,1.776,5.424,3.937,5.424,7.921v.096c0,6.241-5.521,9.89-12.961,9.89s-12.961-3.841-12.961-9.697ZM293.49,258.082v-.096c0-2.593-2.448-4.129-5.809-4.129s-5.809,1.536-5.809,4.129v.096c0,2.305,2.16,4.177,5.809,4.177s5.809-1.824,5.809-4.177ZM292.482,243.921v-.096c0-2.064-1.776-3.937-4.801-3.937s-4.801,1.824-4.801,3.889v.096c0,2.353,1.872,4.128,4.801,4.128s4.801-1.728,4.801-4.08Z" fill="#1d1061"/>
            <path d="M304.96,258.658v-.096c0-4.081,1.872-6.48,5.425-8.113-2.592-1.584-4.272-3.744-4.272-7.345v-.096c0-5.137,4.704-9.217,11.809-9.217s11.81,4.032,11.81,9.217v.096c0,3.601-1.681,5.761-4.272,7.345,3.408,1.776,5.425,3.937,5.425,7.921v.096c0,6.241-5.521,9.89-12.962,9.89s-12.961-3.841-12.961-9.697ZM323.729,258.082v-.096c0-2.593-2.448-4.129-5.809-4.129s-5.808,1.536-5.808,4.129v.096c0,2.305,2.16,4.177,5.808,4.177s5.809-1.824,5.809-4.177ZM322.721,243.921v-.096c0-2.064-1.776-3.937-4.801-3.937s-4.8,1.824-4.8,3.889v.096c0,2.353,1.872,4.128,4.8,4.128s4.801-1.728,4.801-4.08Z" fill="#1d1061"/>
          </g>
          <g isolation="isolate">
            <path d="M335.553,232.253c-2.141,0-3.792-1.553-3.792-3.834v-.028c0-2.112,1.497-3.848,3.61-3.848,2.351,0,3.512,1.931,3.512,3.638,0,.477-.363.812-.798.812h-4.631c.182,1.204,1.035,1.875,2.127,1.875.713,0,1.273-.251,1.749-.644.126-.098.237-.153.434-.153.378,0,.672.294.672.686,0,.21-.099.392-.225.518-.671.602-1.511.979-2.658.979ZM334.406,223.452l-.951-.896c-.14-.126-.238-.267-.238-.42,0-.267.56-.546,1.008-.546.294,0,.518.154.672.405l.797,1.231c.057.084.126.21.126.309,0,.182-.182.293-.434.293-.392,0-.657-.069-.979-.377ZM337.232,227.873c-.111-1.091-.755-1.944-1.874-1.944-1.036,0-1.764.797-1.917,1.944h3.791Z" fill="#1d1061"/>
            <path d="M340.619,225.467c0-.476.363-.854.839-.854s.854.378.854.854v.35c.477-.657,1.12-1.273,2.253-1.273,1.063,0,1.819.518,2.211,1.302.588-.784,1.371-1.302,2.49-1.302,1.609,0,2.589,1.021,2.589,2.826v3.946c0,.476-.363.84-.84.84s-.854-.364-.854-.84v-3.428c0-1.176-.545-1.806-1.497-1.806-.923,0-1.581.644-1.581,1.833v3.4c0,.476-.378.84-.839.84-.477,0-.854-.364-.854-.84v-3.442c0-1.147-.561-1.791-1.498-1.791s-1.581.7-1.581,1.833v3.4c0,.476-.377.84-.854.84-.461,0-.839-.364-.839-.84v-5.849Z" fill="#1d1061"/>
            <path d="M357.297,232.253c-2.141,0-3.792-1.553-3.792-3.834v-.028c0-2.112,1.497-3.848,3.61-3.848,2.351,0,3.512,1.931,3.512,3.638,0,.477-.363.812-.798.812h-4.631c.182,1.204,1.035,1.875,2.127,1.875.713,0,1.273-.251,1.749-.644.126-.098.237-.153.434-.153.378,0,.672.294.672.686,0,.21-.099.392-.225.518-.671.602-1.511.979-2.658.979ZM358.975,227.873c-.111-1.091-.755-1.944-1.874-1.944-1.036,0-1.764.797-1.917,1.944h3.791Z" fill="#1d1061"/>
          </g>
        </g>
      </g>
    </g>
    <g id="z" data-name="AI-">
      <g>
        <polygon points="120.34 279.903 14.479 279.903 14.479 339.122 8.457 352.907 8.454 352.911 8.456 352.91 8.454 352.915 8.462 352.907 22.246 346.885 120.34 346.885 120.34 279.903" fill="#dedede" mix-blend-mode="multiply"/>
        <polygon points="120.34 274.5 14.479 274.5 14.479 333.719 8.457 347.504 8.454 347.507 8.456 347.506 8.454 347.512 8.462 347.504 22.246 341.482 120.34 341.482 120.34 274.5" fill="#5cc6a0"/>
      </g>
      <g id="aa" data-name="AI-1 num">
        <g>
          <g isolation="isolate">
            <path d="M22.947,318.794v-.072c0-3.06,1.403-4.859,4.067-6.083-1.943-1.188-3.203-2.808-3.203-5.507v-.072c0-3.852,3.527-6.911,8.854-6.911s8.854,3.023,8.854,6.911v.072c0,2.699-1.26,4.319-3.203,5.507,2.556,1.332,4.067,2.952,4.067,5.939v.072c0,4.679-4.14,7.415-9.719,7.415s-9.719-2.88-9.719-7.271ZM37.021,318.362v-.072c0-1.943-1.836-3.096-4.355-3.096s-4.355,1.152-4.355,3.096v.072c0,1.728,1.62,3.131,4.355,3.131s4.355-1.367,4.355-3.131ZM36.265,307.743v-.072c0-1.548-1.332-2.951-3.6-2.951s-3.6,1.368-3.6,2.916v.071c0,1.764,1.404,3.096,3.6,3.096s3.6-1.296,3.6-3.06Z" fill="#1d1061"/>
            <path d="M45.627,318.794v-.072c0-3.06,1.403-4.859,4.067-6.083-1.943-1.188-3.203-2.808-3.203-5.507v-.072c0-3.852,3.527-6.911,8.854-6.911s8.854,3.023,8.854,6.911v.072c0,2.699-1.26,4.319-3.203,5.507,2.556,1.332,4.067,2.952,4.067,5.939v.072c0,4.679-4.14,7.415-9.719,7.415s-9.719-2.88-9.719-7.271ZM59.701,318.362v-.072c0-1.943-1.836-3.096-4.355-3.096s-4.355,1.152-4.355,3.096v.072c0,1.728,1.62,3.131,4.355,3.131s4.355-1.367,4.355-3.131ZM58.945,307.743v-.072c0-1.548-1.332-2.951-3.6-2.951s-3.6,1.368-3.6,2.916v.071c0,1.764,1.404,3.096,3.6,3.096s3.6-1.296,3.6-3.06Z" fill="#1d1061"/>
            <path d="M68.306,318.794v-.072c0-3.06,1.403-4.859,4.067-6.083-1.943-1.188-3.203-2.808-3.203-5.507v-.072c0-3.852,3.527-6.911,8.854-6.911s8.854,3.023,8.854,6.911v.072c0,2.699-1.26,4.319-3.203,5.507,2.556,1.332,4.067,2.952,4.067,5.939v.072c0,4.679-4.14,7.415-9.719,7.415s-9.719-2.88-9.719-7.271ZM82.381,318.362v-.072c0-1.943-1.836-3.096-4.355-3.096s-4.355,1.152-4.355,3.096v.072c0,1.728,1.62,3.131,4.355,3.131s4.355-1.367,4.355-3.131ZM81.625,307.743v-.072c0-1.548-1.332-2.951-3.6-2.951s-3.6,1.368-3.6,2.916v.071c0,1.764,1.404,3.096,3.6,3.096s3.6-1.296,3.6-3.06Z" fill="#1d1061"/>
          </g>
          <g isolation="isolate">
            <path d="M92.705,295.215c-1.606,0-2.846-1.165-2.846-2.876v-.021c0-1.585,1.124-2.887,2.709-2.887,1.764,0,2.635,1.448,2.635,2.729,0,.356-.272.608-.599.608h-3.475c.137.903.777,1.407,1.596,1.407.535,0,.955-.189,1.312-.483.095-.073.179-.115.325-.115.283,0,.504.221.504.515,0,.157-.073.294-.168.388-.504.452-1.134.735-1.994.735ZM91.843,288.611l-.714-.672c-.104-.095-.179-.199-.179-.314,0-.2.42-.409.756-.409.221,0,.389.115.504.304l.599.924c.042.063.095.157.095.231,0,.137-.137.221-.325.221-.294,0-.494-.053-.735-.284ZM93.965,291.929c-.084-.818-.567-1.459-1.407-1.459-.776,0-1.322.599-1.438,1.459h2.846Z" fill="#1d1061"/>
            <path d="M96.503,290.123c0-.356.272-.64.63-.64s.64.283.64.64v.263c.357-.493.84-.955,1.69-.955.798,0,1.365.389,1.659.977.44-.588,1.028-.977,1.868-.977,1.207,0,1.942.766,1.942,2.12v2.961c0,.356-.273.63-.63.63s-.641-.273-.641-.63v-2.572c0-.882-.409-1.354-1.123-1.354-.693,0-1.187.483-1.187,1.375v2.552c0,.356-.283.63-.63.63-.356,0-.641-.273-.641-.63v-2.583c0-.86-.42-1.344-1.123-1.344s-1.187.525-1.187,1.375v2.552c0,.356-.283.63-.64.63-.347,0-.63-.273-.63-.63v-4.389Z" fill="#1d1061"/>
            <path d="M109.012,295.215c-1.606,0-2.846-1.165-2.846-2.876v-.021c0-1.585,1.124-2.887,2.709-2.887,1.764,0,2.635,1.448,2.635,2.729,0,.356-.272.608-.599.608h-3.475c.137.903.777,1.407,1.596,1.407.535,0,.955-.189,1.312-.483.095-.073.179-.115.325-.115.283,0,.504.221.504.515,0,.157-.073.294-.168.388-.504.452-1.134.735-1.994.735ZM110.272,291.929c-.084-.818-.567-1.459-1.407-1.459-.776,0-1.322.599-1.438,1.459h2.846Z" fill="#1d1061"/>
          </g>
        </g>
      </g>
    </g>
    <g id="ab" data-name="AI+">
      <g>
        <polygon points="381.369 18.874 381.361 18.882 367.577 24.904 269.483 24.904 269.483 91.886 375.343 91.886 375.343 32.667 381.366 18.882 381.369 18.878 381.367 18.879 381.369 18.874" fill="#dedede" mix-blend-mode="multiply"/>
        <polygon points="381.369 13.47 381.361 13.479 367.576 19.5 269.483 19.5 269.483 86.482 375.343 86.482 375.343 27.263 381.366 13.479 381.369 13.475 381.367 13.476 381.369 13.47" fill="#ff7461"/>
      </g>
      <g id="ac" data-name="AI+1 num">
        <g>
          <g isolation="isolate">
            <path d="M279.354,62.387v-.072c0-3.06,1.403-4.859,4.067-6.083-1.943-1.188-3.203-2.808-3.203-5.507v-.072c0-3.852,3.527-6.911,8.854-6.911s8.854,3.023,8.854,6.911v.072c0,2.699-1.26,4.319-3.203,5.507,2.556,1.332,4.067,2.952,4.067,5.939v.072c0,4.679-4.14,7.415-9.719,7.415s-9.719-2.88-9.719-7.271ZM293.428,61.955v-.072c0-1.943-1.835-3.096-4.355-3.096s-4.355,1.152-4.355,3.096v.072c0,1.728,1.62,3.131,4.355,3.131s4.355-1.367,4.355-3.131ZM292.673,51.336v-.072c0-1.548-1.331-2.951-3.6-2.951s-3.599,1.368-3.599,2.916v.071c0,1.764,1.403,3.096,3.599,3.096s3.6-1.296,3.6-3.06Z" fill="#1d1061"/>
            <path d="M302.034,62.387v-.072c0-3.06,1.403-4.859,4.067-6.083-1.943-1.188-3.203-2.808-3.203-5.507v-.072c0-3.852,3.527-6.911,8.854-6.911s8.854,3.023,8.854,6.911v.072c0,2.699-1.26,4.319-3.203,5.507,2.556,1.332,4.067,2.952,4.067,5.939v.072c0,4.679-4.14,7.415-9.719,7.415s-9.719-2.88-9.719-7.271ZM316.108,61.955v-.072c0-1.943-1.835-3.096-4.355-3.096s-4.355,1.152-4.355,3.096v.072c0,1.728,1.62,3.131,4.355,3.131s4.355-1.367,4.355-3.131ZM315.352,51.336v-.072c0-1.548-1.331-2.951-3.6-2.951s-3.599,1.368-3.599,2.916v.071c0,1.764,1.403,3.096,3.599,3.096s3.6-1.296,3.6-3.06Z" fill="#1d1061"/>
            <path d="M324.714,62.387v-.072c0-3.06,1.403-4.859,4.067-6.083-1.943-1.188-3.203-2.808-3.203-5.507v-.072c0-3.852,3.527-6.911,8.854-6.911s8.854,3.023,8.854,6.911v.072c0,2.699-1.26,4.319-3.203,5.507,2.556,1.332,4.067,2.952,4.067,5.939v.072c0,4.679-4.14,7.415-9.719,7.415s-9.719-2.88-9.719-7.271ZM338.788,61.955v-.072c0-1.943-1.835-3.096-4.355-3.096s-4.355,1.152-4.355,3.096v.072c0,1.728,1.62,3.131,4.355,3.131s4.355-1.367,4.355-3.131ZM338.032,51.336v-.072c0-1.548-1.331-2.951-3.6-2.951s-3.599,1.368-3.599,2.916v.071c0,1.764,1.403,3.096,3.599,3.096s3.6-1.296,3.6-3.06Z" fill="#1d1061"/>
          </g>
          <g isolation="isolate">
            <path d="M349.112,38.808c-1.605,0-2.845-1.165-2.845-2.876v-.021c0-1.585,1.123-2.887,2.709-2.887,1.764,0,2.635,1.448,2.635,2.729,0,.356-.273.608-.599.608h-3.475c.137.903.776,1.407,1.596,1.407.535,0,.955-.189,1.312-.483.094-.073.178-.115.325-.115.283,0,.504.221.504.515,0,.157-.073.294-.168.388-.504.452-1.134.735-1.995.735ZM348.252,32.204l-.714-.672c-.105-.095-.179-.199-.179-.314,0-.2.42-.409.756-.409.221,0,.389.115.504.304l.599.924c.042.063.095.157.095.231,0,.137-.137.221-.326.221-.294,0-.493-.053-.734-.284ZM350.372,35.521c-.084-.818-.566-1.459-1.406-1.459-.777,0-1.323.599-1.438,1.459h2.845Z" fill="#1d1061"/>
            <path d="M352.91,33.716c0-.356.273-.64.63-.64s.641.283.641.64v.263c.357-.493.84-.955,1.69-.955.798,0,1.364.389,1.658.977.441-.588,1.029-.977,1.869-.977,1.207,0,1.942.766,1.942,2.12v2.961c0,.356-.273.63-.63.63s-.641-.273-.641-.63v-2.572c0-.882-.409-1.354-1.123-1.354-.693,0-1.187.483-1.187,1.375v2.552c0,.356-.283.63-.63.63-.357,0-.641-.273-.641-.63v-2.583c0-.86-.42-1.344-1.123-1.344s-1.187.525-1.187,1.375v2.552c0,.356-.283.63-.641.63-.346,0-.63-.273-.63-.63v-4.389Z" fill="#1d1061"/>
            <path d="M365.42,38.808c-1.605,0-2.845-1.165-2.845-2.876v-.021c0-1.585,1.123-2.887,2.709-2.887,1.764,0,2.635,1.448,2.635,2.729,0,.356-.273.608-.599.608h-3.475c.137.903.776,1.407,1.596,1.407.535,0,.955-.189,1.312-.483.094-.073.178-.115.325-.115.283,0,.504.221.504.515,0,.157-.073.294-.168.388-.504.452-1.134.735-1.995.735ZM366.679,35.521c-.084-.818-.566-1.459-1.406-1.459-.777,0-1.323.599-1.438,1.459h2.845Z" fill="#1d1061"/>
          </g>
        </g>
      </g>
    </g>
  </g>
</svg>