<?xml version="1.0" encoding="UTF-8"?>
<svg xmlns="http://www.w3.org/2000/svg" width="500" height="380" xmlns:xlink="http://www.w3.org/1999/xlink" viewBox="0 0 500 380">
  <defs>
    <clipPath id="b">
      <rect width="500" height="380" fill="none"/>
    </clipPath>
    <pattern id="c" data-name="40 % 10 ppp" x="0" y="0" width="4.931" height="4.931" patternTransform="translate(16761.652 17613.344) scale(3.259)" patternUnits="userSpaceOnUse" viewBox="0 0 4.931 4.931">
      <g>
        <rect width="4.931" height="4.931" fill="none"/>
        <g>
          <circle cx="4.412" cy="4.412" r=".519" fill="#1d1d1b"/>
          <circle cx="1.817" cy="4.412" r=".519" fill="#1d1d1b"/>
          <path d="M4.412,2.336c.287,0,.519-.232.519-.519s-.233-.519-.519-.519-.519.232-.519.519.232.519.519.519Z" fill="#1d1d1b"/>
          <path d="M1.817,2.336c.287,0,.519-.232.519-.519s-.233-.519-.519-.519-.519.232-.519.519.232.519.519.519Z" fill="#1d1d1b"/>
          <path d="M.519,3.633c.287,0,.519-.232.519-.519s-.233-.519-.519-.519S0,2.827,0,3.114s.232.519.519.519Z" fill="#1d1d1b"/>
          <circle cx="3.114" cy="3.114" r=".519" fill="#1d1d1b"/>
          <path d="M.519,1.038c.287,0,.519-.232.519-.519S.806,0,.519,0,0,.232,0,.519s.232.519.519.519Z" fill="#1d1d1b"/>
          <circle cx="3.114" cy=".519" r=".519" fill="#1d1d1b"/>
        </g>
      </g>
    </pattern>
    <linearGradient id="d" data-name="Nouvelle nuance de dégradé 1" x1="290" y1="356.765" x2="290" y2="-26.036" gradientUnits="userSpaceOnUse">
      <stop offset="0" stop-color="#6a90c6" stop-opacity="0"/>
      <stop offset="1" stop-color="#6a90c6"/>
    </linearGradient>
    <pattern id="e" data-name="40 % 10 ppp" patternTransform="translate(16731.633 17543.3) scale(3.259)" xlink:href="#c"/>
    <clipPath id="g">
      <rect width="500" height="380" fill="none"/>
    </clipPath>
    <pattern id="h" data-name="40 % 10 ppp" patternTransform="translate(17259.771 17629.412) scale(3.259)" xlink:href="#c"/>
    <linearGradient id="i" data-name="Dégradé sans nom 18" x1="290" y1="356.765" x2="290" y2="-26.036" gradientUnits="userSpaceOnUse">
      <stop offset="0" stop-color="#ffcb57" stop-opacity="0"/>
      <stop offset="1" stop-color="#ffcb57"/>
    </linearGradient>
    <pattern id="j" data-name="40 % 10 ppp" patternTransform="translate(17255.469 17624.246) scale(3.259)" xlink:href="#c"/>
    <pattern id="k" data-name="40 % 10 ppp" patternTransform="translate(17254.99 17640.211) scale(3.259)" xlink:href="#c"/>
    <pattern id="u" data-name="40 % 10 ppp" patternTransform="translate(187.562 685.207) scale(1.076)" xlink:href="#c"/>
    <pattern id="x" data-name="40 % 10 ppp" patternTransform="translate(-33.888 314.25) scale(1.026)" xlink:href="#c"/>
    <pattern id="y" data-name="40 % 10 ppp" patternTransform="translate(-34.087 315.518) scale(1.026)" xlink:href="#c"/>
    <pattern id="aa" data-name="40 % 10 ppp" patternTransform="translate(7.835 311.827) scale(1.026)" xlink:href="#c"/>
    <pattern id="ab" data-name="40 % 10 ppp" patternTransform="translate(7.835 311.827) scale(1.026)" xlink:href="#c"/>
    <pattern id="ac" data-name="40 % 10 ppp" patternTransform="translate(7.835 311.827) scale(1.026)" xlink:href="#c"/>
    <pattern id="ad" data-name="40 % 10 ppp" patternTransform="translate(7.835 311.827) scale(1.026)" xlink:href="#c"/>
    <pattern id="ae" data-name="40 % 10 ppp" patternTransform="translate(7.835 311.827) scale(1.026)" xlink:href="#c"/>
    <pattern id="af" data-name="40 % 10 ppp" patternTransform="translate(7.835 311.827) scale(1.026)" xlink:href="#c"/>
  </defs>
  <g isolation="isolate">
    <g id="a" data-name="bg">
      <g clip-path="url(#b)">
        <g>
          <rect x="-10" y="-10" width="600" height="464.176" fill="#6a90c6"/>
          <rect x="-10" y="-10" width="600" height="464.176" fill="url(#c)" mix-blend-mode="multiply" opacity=".05"/>
          <rect x="-10" y="-10" width="600" height="464.176" fill="url(#d)"/>
          <g mix-blend-mode="overlay" opacity=".25">
            <g mix-blend-mode="multiply">
              <rect x="12.673" y="100.592" width="171.348" height="24.015" transform="translate(-50.815 102.521) rotate(-45)" fill="#9b9b9b"/>
              <polygon points="169.502 41.444 142.39 39.603 171.344 68.557 169.502 41.444" fill="#9b9b9b"/>
            </g>
            <g mix-blend-mode="multiply">
              <rect x="237.809" y="114.159" width="29.806" height="12.023" transform="translate(-10.956 213.89) rotate(-45)" fill="#9b9b9b"/>
              <rect x="213.324" y="138.644" width="29.806" height="12.023" transform="translate(-35.441 203.748) rotate(-45)" fill="#9b9b9b"/>
              <rect x="188.839" y="163.129" width="29.806" height="12.023" transform="translate(-59.926 193.606) rotate(-45)" fill="#9b9b9b"/>
              <rect x="164.354" y="187.614" width="29.806" height="12.023" transform="translate(-84.411 183.464) rotate(-45)" fill="#9b9b9b"/>
              <polygon points="268.545 104.337 254.972 103.415 269.467 117.91 268.545 104.337" fill="#9b9b9b"/>
            </g>
            <g mix-blend-mode="multiply">
              <rect x="450.504" y="82.173" width="127.548" height="9.037" transform="translate(89.328 389.041) rotate(-45)" fill="#9b9b9b"/>
            </g>
            <g mix-blend-mode="multiply">
              <rect x="-154.356" y="414.919" width="254.238" height="35.632" transform="translate(-313.968 107.486) rotate(-45)" fill="#9b9b9b"/>
              <polygon points="78.34 327.159 38.112 324.427 81.072 367.387 78.34 327.159" fill="#9b9b9b"/>
            </g>
            <g mix-blend-mode="multiply">
              <rect x="87.341" y="309.703" width="84.931" height="5.842" transform="translate(-183.039 183.352) rotate(-45)" fill="#9b9b9b"/>
              <polygon points="167.896 274.534 149.898 277.256 165.175 292.533 167.896 274.534" fill="#9b9b9b"/>
            </g>
            <rect x="261.2" y="-10.153" width="217.894" height="75.574" transform="translate(88.873 269.827) rotate(-45)" fill="#9b9b9b" mix-blend-mode="multiply"/>
            <g mix-blend-mode="multiply">
              <line x1="-43.656" y1="319.301" x2="85.12" y2="190.525" fill="none" stroke="#9b9b9b" stroke-miterlimit="10" stroke-width="8"/>
              <polyline points="53.161 190.516 85.112 190.516 85.112 222.5" fill="none" stroke="#9b9b9b" stroke-miterlimit="10" stroke-width="8"/>
            </g>
            <g mix-blend-mode="multiply">
              <line x1="90.467" y1="80.736" x2="180.719" y2="-9.516" fill="none" stroke="#9b9b9b" stroke-miterlimit="10" stroke-width="5.607"/>
              <polyline points="158.321 -9.522 180.714 -9.522 180.714 12.894" fill="none" stroke="#9b9b9b" stroke-miterlimit="10" stroke-width="5.607"/>
            </g>
            <g mix-blend-mode="multiply">
              <polyline points="188.696 312.624 201.524 312.624 201.524 325.465" fill="none" stroke="#9b9b9b" stroke-miterlimit="10" stroke-width="3"/>
              <path d="M76.242,415.241s45.003-27.546,53.564-71.428c8.562-43.882-8.245-42.22-12.748-34.013-6.57,11.971-4.829,51.4,30.045,40.816,22.414-6.803,54.421-37.992,54.421-37.992" fill="none" stroke="#9b9b9b" stroke-miterlimit="10" stroke-width="3"/>
            </g>
            <g mix-blend-mode="multiply">
              <polyline points="201.524 12.3 214.352 12.3 214.352 25.141" fill="none" stroke="#9b9b9b" stroke-miterlimit="10" stroke-width="3"/>
              <polyline points="167.297 115.941 175 115.941 175 123.652" fill="none" stroke="#9b9b9b" stroke-miterlimit="10" stroke-width="3"/>
              <path d="M118.529,133.353c39.529-39.529-9.275-86.718,11.277-107.27s47.049,23.715,84.546-13.783" fill="none" stroke="#9b9b9b" stroke-miterlimit="10" stroke-width="3"/>
              <path d="M88.706,274.706c18.529-18.529,26.118-30.882,24.706-44.294s-14.424-8.471-15.065,3.882c-.641,12.353,12.685,29.59,29.889,20.619,21.294-11.105,3.477-52.415,10.529-85.773,5.176-24.485,30.118-48.258,36.235-53.199" fill="none" stroke="#9b9b9b" stroke-miterlimit="10" stroke-width="3"/>
            </g>
            <g mix-blend-mode="multiply">
              <polyline points="455.93 7.527 468.758 7.527 468.758 20.368" fill="none" stroke="#9b9b9b" stroke-miterlimit="10" stroke-width="3"/>
              <path d="M257.541,60.681c22.443-22.443,85.393-34.616,119.323-.687,29.785,29.785,29.838,59.506,19.996,69.347-11.379,11.379-30.219-19.699-2.138-47.78,28.082-28.082,74.035-74.035,74.035-74.035" fill="none" stroke="#9b9b9b" stroke-miterlimit="10" stroke-width="3"/>
            </g>
            <polygon points="214.352 396.878 214.352 234.064 260.489 187.927 295.098 187.927 295.098 222.5 261.158 256.441 261.158 353.87 214.352 396.878" fill="#9b9b9b" mix-blend-mode="multiply"/>
          </g>
          <g>
            <path d="M411.549,111.436c.08-1.049.123-2.113.123-3.191,0-16.768-9.961-30.361-22.247-30.361-3.777,0-7.333,1.289-10.448,3.555-4.374-8.641-10.789-14.104-17.944-14.104-9.06,0-16.941,8.748-20.983,21.634-3.251-6.647-7.826-10.793-12.899-10.793-9.082,0-16.575,13.271-17.704,30.442-3.019-1.472-6.411-2.301-9.996-2.301-5.462,0-10.475,1.92-14.405,5.119h126.503Z" fill="#6a90c6" mix-blend-mode="multiply" opacity=".5"/>
            <path d="M411.549,107.436c.08-1.049.123-2.113.123-3.191,0-16.768-9.961-30.361-22.247-30.361-3.777,0-7.333,1.289-10.448,3.555-4.374-8.641-10.789-14.104-17.944-14.104-9.06,0-16.941,8.748-20.983,21.634-3.251-6.647-7.826-10.793-12.899-10.793-9.082,0-16.575,13.271-17.704,30.442-3.019-1.472-6.411-2.301-9.996-2.301-5.462,0-10.475,1.92-14.405,5.119h126.503Z" fill="#fdfdfd"/>
          </g>
          <g>
            <path d="M142.797,380.808c0-18.836-18.971-34.106-42.373-34.106-.358,0-.711.015-1.066.022-1.265-12.883-10.321-22.875-21.311-22.875-10.903,0-19.901,9.834-21.279,22.568-6.98-10.011-17.194-16.335-28.582-16.335-16.183,0-30,12.76-35.517,30.748-1.331-.404-2.711-.624-4.129-.624-10.613,0-19.217,11.937-19.217,26.662h172.794c.439-1.968.68-3.99.68-6.059Z" fill="#fdfdfd"/>
            <path d="M129.791,390.166c0-16.881-17.001-30.565-37.974-30.565-.32,0-.637.013-.955.019-1.134-11.545-9.249-20.5-19.098-20.5-9.771,0-17.834,8.813-19.069,20.225-6.255-8.972-15.409-14.639-25.615-14.639-14.503,0-26.885,11.435-31.83,27.556-1.192-.362-2.43-.559-3.701-.559-9.511,0-17.222,10.698-17.222,23.894h154.854c.393-1.763.61-3.576.61-5.43Z" fill="#dedede" mix-blend-mode="multiply" opacity=".05"/>
            <path d="M129.791,390.166c0-16.881-17.001-30.565-37.974-30.565-.32,0-.637.013-.955.019-1.134-11.545-9.249-20.5-19.098-20.5-9.771,0-17.834,8.813-19.069,20.225-6.255-8.972-15.409-14.639-25.615-14.639-14.503,0-26.885,11.435-31.83,27.556-1.192-.362-2.43-.559-3.701-.559-9.511,0-17.222,10.698-17.222,23.894h154.854c.393-1.763.61-3.576.61-5.43Z" fill="url(#e)" mix-blend-mode="multiply" opacity=".05"/>
          </g>
          <g>
            <path d="M70.547,146.173c-3.792-7.702-5.93-16.364-5.93-25.528,0-31.968,25.915-57.882,57.882-57.882,22.659,0,42.263,13.027,51.767,31.993,3.311-1.863,6.624-2.483,9.655-1.553,9.898,3.038,13.045,21.391,7.029,40.993-.24.783-.495,1.552-.757,2.315,9.04,1.228,17.382,4.636,24.5,9.663H70.547ZM194.119,62.762c-3.948,0-7.149,3.201-7.149,7.149s3.201,7.149,7.149,7.149,7.149-3.201,7.149-7.149-3.201-7.149-7.149-7.149ZM181.794,154.057c-2.079,0-3.765,1.686-3.765,3.765s1.686,3.765,3.765,3.765,3.765-1.686,3.765-3.765-1.686-3.765-3.765-3.765Z" fill="#6a90c6" mix-blend-mode="multiply" opacity=".5"/>
            <path d="M70.547,142.173c-3.792-7.702-5.93-16.364-5.93-25.528,0-31.968,25.915-57.882,57.882-57.882,22.659,0,42.263,13.027,51.767,31.993,3.311-1.863,6.624-2.483,9.655-1.553,9.898,3.038,13.045,21.391,7.029,40.993-.24.783-.495,1.552-.757,2.315,9.04,1.228,17.382,4.636,24.5,9.663H70.547ZM194.119,58.762c-3.948,0-7.149,3.201-7.149,7.149s3.201,7.149,7.149,7.149,7.149-3.201,7.149-7.149-3.201-7.149-7.149-7.149ZM181.794,150.057c-2.079,0-3.765,1.686-3.765,3.765s1.686,3.765,3.765,3.765,3.765-1.686,3.765-3.765-1.686-3.765-3.765-3.765Z" fill="#fff"/>
          </g>
          <polygon points="-18.461 477.34 798.895 477.34 798.895 -36.289 465.717 -36.289 465.826 -20.629 452.501 -20.87 452.61 -5.21 439.285 -5.451 439.37 6.804 426.068 6.564 426.154 18.849 411.15 18.578 411.236 30.833 397.934 30.593 398.043 46.253 384.718 46.012 384.803 58.267 371.502 58.027 371.599 71.984 358.285 71.743 358.394 87.342 348.473 87.162 348.571 101.15 333.555 100.879 333.641 113.134 320.339 112.894 320.437 126.882 305.421 126.611 305.53 142.301 290.503 142.029 290.624 159.391 277.286 159.15 277.396 174.81 264.07 174.569 264.168 188.557 249.152 188.286 249.237 200.541 235.936 200.301 236.021 212.556 222.72 212.315 222.817 226.304 207.801 226.032 207.887 238.287 194.585 238.047 194.694 253.707 181.369 253.466 181.431 262.316 168.153 262.076 168.262 277.736 154.937 277.495 155.022 289.75 141.72 289.51 141.853 308.574 128.504 308.333 128.59 320.588 115.288 320.348 115.374 332.603 102.072 332.362 102.182 348.114 83.749 347.781 83.835 360.036 70.533 359.796 70.654 377.127 59.019 376.917 59.105 389.172 45.803 388.932 45.924 406.232 35.991 406.053 36.077 418.308 22.775 418.067 22.884 433.758 7.857 433.486 7.942 445.741 -5.36 445.501 -5.25 461.161 -18.576 460.92 -18.461 477.34" fill="#dedede"/>
          <g>
            <path d="M434.037,59.291c.798-4.088,4.396-7.175,8.718-7.175,2.093,0,4.014.728,5.533,1.939,2.54-17.641,17.711-31.199,36.055-31.199,20.122,0,36.435,16.312,36.435,36.435h-86.74ZM453.358,11.194c-2.516,0-4.555,2.039-4.555,4.555s2.039,4.555,4.555,4.555,4.555-2.039,4.555-4.555-2.039-4.555-4.555-4.555ZM421.323,61.077c-1.98,0-3.584,1.605-3.584,3.584s1.605,3.584,3.584,3.584,3.584-1.605,3.584-3.584-1.605-3.584-3.584-3.584Z" fill="#dedede" mix-blend-mode="multiply"/>
            <path d="M433.037,56.291c.798-4.088,4.396-7.175,8.718-7.175,2.093,0,4.014.728,5.533,1.939,2.54-17.641,17.711-31.199,36.055-31.199,20.122,0,36.435,16.312,36.435,36.435h-86.74ZM452.358,8.194c-2.516,0-4.555,2.039-4.555,4.555s2.039,4.555,4.555,4.555,4.555-2.039,4.555-4.555-2.039-4.555-4.555-4.555ZM420.323,58.077c-1.98,0-3.584,1.605-3.584,3.584s1.605,3.584,3.584,3.584,3.584-1.605,3.584-3.584-1.605-3.584-3.584-3.584Z" fill="#fff"/>
          </g>
        </g>
      </g>
    </g>
    <g id="f" data-name="bg win">
      <g clip-path="url(#g)">
        <g>
          <rect x="-10" y="-10" width="600" height="464.176" fill="#ffcb57"/>
          <rect x="-10" y="-10" width="600" height="464.176" fill="url(#h)" mix-blend-mode="multiply" opacity=".05"/>
          <rect x="-10" y="-10" width="600" height="464.176" fill="url(#i)"/>
          <g mix-blend-mode="color-burn" opacity=".25">
            <g mix-blend-mode="multiply">
              <rect x="12.673" y="100.592" width="171.348" height="24.015" transform="translate(-50.815 102.521) rotate(-45)" fill="#9b9b9b"/>
              <polygon points="169.502 41.444 142.39 39.603 171.344 68.557 169.502 41.444" fill="#9b9b9b"/>
            </g>
            <g mix-blend-mode="multiply">
              <rect x="237.809" y="114.159" width="29.806" height="12.023" transform="translate(-10.956 213.89) rotate(-45)" fill="#9b9b9b"/>
              <rect x="213.324" y="138.644" width="29.806" height="12.023" transform="translate(-35.441 203.748) rotate(-45)" fill="#9b9b9b"/>
              <rect x="188.839" y="163.129" width="29.806" height="12.023" transform="translate(-59.926 193.606) rotate(-45)" fill="#9b9b9b"/>
              <rect x="164.354" y="187.614" width="29.806" height="12.023" transform="translate(-84.411 183.464) rotate(-45)" fill="#9b9b9b"/>
              <polygon points="268.545 104.337 254.972 103.415 269.467 117.91 268.545 104.337" fill="#9b9b9b"/>
            </g>
            <g mix-blend-mode="multiply">
              <rect x="450.504" y="82.173" width="127.548" height="9.037" transform="translate(89.328 389.041) rotate(-45)" fill="#9b9b9b"/>
            </g>
            <g mix-blend-mode="multiply">
              <rect x="-154.356" y="414.919" width="254.238" height="35.632" transform="translate(-313.968 107.486) rotate(-45)" fill="#9b9b9b"/>
              <polygon points="78.34 327.159 38.112 324.427 81.072 367.387 78.34 327.159" fill="#9b9b9b"/>
            </g>
            <g mix-blend-mode="multiply">
              <rect x="87.341" y="309.703" width="84.931" height="5.842" transform="translate(-183.039 183.352) rotate(-45)" fill="#9b9b9b"/>
              <polygon points="167.896 274.534 149.898 277.256 165.175 292.533 167.896 274.534" fill="#9b9b9b"/>
            </g>
            <rect x="261.2" y="-10.153" width="217.894" height="75.574" transform="translate(88.873 269.827) rotate(-45)" fill="#9b9b9b" mix-blend-mode="multiply"/>
            <g mix-blend-mode="multiply">
              <line x1="-43.656" y1="319.301" x2="85.12" y2="190.525" fill="none" stroke="#9b9b9b" stroke-miterlimit="10" stroke-width="8"/>
              <polyline points="53.161 190.516 85.112 190.516 85.112 222.5" fill="none" stroke="#9b9b9b" stroke-miterlimit="10" stroke-width="8"/>
            </g>
            <g mix-blend-mode="multiply">
              <line x1="90.467" y1="80.736" x2="180.719" y2="-9.516" fill="none" stroke="#9b9b9b" stroke-miterlimit="10" stroke-width="5.607"/>
              <polyline points="158.321 -9.522 180.714 -9.522 180.714 12.894" fill="none" stroke="#9b9b9b" stroke-miterlimit="10" stroke-width="5.607"/>
            </g>
            <g mix-blend-mode="multiply">
              <polyline points="188.696 312.624 201.524 312.624 201.524 325.465" fill="none" stroke="#9b9b9b" stroke-miterlimit="10" stroke-width="3"/>
              <path d="M76.242,415.241s45.003-27.546,53.564-71.428c8.562-43.882-8.245-42.22-12.748-34.013-6.57,11.971-4.829,51.4,30.045,40.816,22.414-6.803,54.421-37.992,54.421-37.992" fill="none" stroke="#9b9b9b" stroke-miterlimit="10" stroke-width="3"/>
            </g>
            <g mix-blend-mode="multiply">
              <polyline points="201.524 12.3 214.352 12.3 214.352 25.141" fill="none" stroke="#9b9b9b" stroke-miterlimit="10" stroke-width="3"/>
              <polyline points="167.297 115.941 175 115.941 175 123.652" fill="none" stroke="#9b9b9b" stroke-miterlimit="10" stroke-width="3"/>
              <path d="M118.529,133.353c39.529-39.529-9.275-86.718,11.277-107.27,20.552-20.552,47.049,23.715,84.546-13.783" fill="none" stroke="#9b9b9b" stroke-miterlimit="10" stroke-width="3"/>
              <path d="M88.706,274.706c18.529-18.529,26.118-30.882,24.706-44.294-1.412-13.412-14.424-8.471-15.065,3.882s12.685,29.59,29.889,20.619c21.294-11.105,3.477-52.415,10.529-85.773,5.176-24.485,30.118-48.258,36.235-53.199" fill="none" stroke="#9b9b9b" stroke-miterlimit="10" stroke-width="3"/>
            </g>
            <g mix-blend-mode="multiply">
              <polyline points="455.93 7.527 468.758 7.527 468.758 20.368" fill="none" stroke="#9b9b9b" stroke-miterlimit="10" stroke-width="3"/>
              <path d="M257.541,60.681c22.443-22.443,85.393-34.616,119.323-.687,29.785,29.785,29.838,59.506,19.996,69.347-11.379,11.379-30.219-19.699-2.138-47.78,28.082-28.082,74.035-74.035,74.035-74.035" fill="none" stroke="#9b9b9b" stroke-miterlimit="10" stroke-width="3"/>
            </g>
            <polygon points="214.352 396.878 214.352 234.064 260.489 187.927 295.098 187.927 295.098 222.5 261.158 256.441 261.158 353.87 214.352 396.878" fill="#9b9b9b" mix-blend-mode="multiply"/>
          </g>
          <g>
            <path d="M476.529,94.877c.08-1.049.123-2.113.123-3.191,0-16.768-9.961-30.361-22.247-30.361-3.777,0-7.333,1.289-10.448,3.555-4.374-8.641-10.789-14.104-17.944-14.104-9.06,0-16.941,8.748-20.983,21.634-3.251-6.647-7.826-10.793-12.899-10.793-9.082,0-16.575,13.271-17.704,30.442-3.019-1.472-6.411-2.301-9.996-2.301-5.462,0-10.475,1.92-14.405,5.119h126.503Z" fill="#6a90c6" mix-blend-mode="multiply" opacity=".5"/>
            <path d="M476.529,90.877c.08-1.049.123-2.113.123-3.191,0-16.768-9.961-30.361-22.247-30.361-3.777,0-7.333,1.289-10.448,3.555-4.374-8.641-10.789-14.104-17.944-14.104-9.06,0-16.941,8.748-20.983,21.634-3.251-6.647-7.826-10.793-12.899-10.793-9.082,0-16.575,13.271-17.704,30.442-3.019-1.472-6.411-2.301-9.996-2.301-5.462,0-10.475,1.92-14.405,5.119h126.503Z" fill="#fdfdfd"/>
          </g>
          <g>
            <circle cx="488.357" cy="241.624" r="86.824" fill="#fdfdfd"/>
            <circle cx="416.123" cy="220.525" r="39.523" fill="#fdfdfd"/>
            <ellipse cx="474.151" cy="254.928" rx="72.617" ry="73.519" fill="#dedede" mix-blend-mode="multiply" opacity=".05"/>
            <ellipse cx="474.151" cy="254.928" rx="72.617" ry="73.519" fill="url(#j)" mix-blend-mode="multiply" opacity=".05"/>
          </g>
          <g>
            <path d="M135.898,381.311c0-18.836-18.971-34.106-42.373-34.106-.358,0-.711.015-1.066.022-1.265-12.883-10.321-22.875-21.311-22.875-10.903,0-19.901,9.834-21.279,22.568-6.98-10.011-17.194-16.335-28.582-16.335-16.183,0-30,12.76-35.517,30.748-1.331-.404-2.711-.624-4.129-.624-10.613,0-19.217,11.937-19.217,26.662h172.794c.439-1.968.68-3.99.68-6.059Z" fill="#fdfdfd"/>
            <path d="M122.893,390.668c0-16.881-17.001-30.565-37.974-30.565-.32,0-.637.013-.955.019-1.134-11.545-9.249-20.5-19.098-20.5-9.771,0-17.834,8.813-19.069,20.225-6.255-8.972-15.409-14.639-25.615-14.639-14.503,0-26.885,11.435-31.83,27.556-1.192-.362-2.43-.559-3.701-.559-9.511,0-17.222,10.698-17.222,23.894H122.283c.393-1.763.61-3.576.61-5.43Z" fill="#dedede" mix-blend-mode="multiply" opacity=".05"/>
            <path d="M122.893,390.668c0-16.881-17.001-30.565-37.974-30.565-.32,0-.637.013-.955.019-1.134-11.545-9.249-20.5-19.098-20.5-9.771,0-17.834,8.813-19.069,20.225-6.255-8.972-15.409-14.639-25.615-14.639-14.503,0-26.885,11.435-31.83,27.556-1.192-.362-2.43-.559-3.701-.559-9.511,0-17.222,10.698-17.222,23.894H122.283c.393-1.763.61-3.576.61-5.43Z" fill="url(#k)" mix-blend-mode="multiply" opacity=".05"/>
          </g>
          <g>
            <path d="M21.359,111.155c-3.792-7.702-5.93-16.364-5.93-25.528,0-31.968,25.915-57.882,57.882-57.882,22.659,0,42.263,13.027,51.767,31.993,3.311-1.863,6.624-2.483,9.655-1.553,9.898,3.038,13.045,21.391,7.029,40.993-.24.783-.495,1.552-.757,2.315,9.04,1.228,17.382,4.636,24.5,9.663H21.359ZM144.93,27.745c-3.948,0-7.149,3.201-7.149,7.149s3.201,7.149,7.149,7.149,7.149-3.201,7.149-7.149-3.201-7.149-7.149-7.149ZM132.605,119.039c-2.079,0-3.765,1.686-3.765,3.765s1.686,3.765,3.765,3.765,3.765-1.686,3.765-3.765-1.686-3.765-3.765-3.765Z" fill="#6a90c6" mix-blend-mode="multiply" opacity=".5"/>
            <path d="M21.359,107.155c-3.792-7.702-5.93-16.364-5.93-25.528,0-31.968,25.915-57.882,57.882-57.882,22.659,0,42.263,13.027,51.767,31.993,3.311-1.863,6.624-2.483,9.655-1.553,9.898,3.038,13.045,21.391,7.029,40.993-.24.783-.495,1.552-.757,2.315,9.04,1.228,17.382,4.636,24.5,9.663H21.359ZM144.93,23.745c-3.948,0-7.149,3.201-7.149,7.149s3.201,7.149,7.149,7.149,7.149-3.201,7.149-7.149-3.201-7.149-7.149-7.149ZM132.605,115.039c-2.079,0-3.765,1.686-3.765,3.765s1.686,3.765,3.765,3.765,3.765-1.686,3.765-3.765-1.686-3.765-3.765-3.765Z" fill="#fff"/>
          </g>
          <polygon points="-268.273 726.452 549.083 726.452 549.083 212.823 215.906 212.823 216.015 228.483 202.689 228.242 202.799 243.902 189.473 243.661 189.559 255.916 176.257 255.676 176.343 267.961 161.339 267.69 161.424 279.945 148.123 279.705 148.232 295.365 134.906 295.124 134.992 307.379 121.69 307.138 121.788 321.096 108.474 320.855 108.583 336.453 98.662 336.274 98.76 350.262 83.744 349.991 83.829 362.246 70.528 362.006 70.625 375.994 55.609 375.722 55.719 391.413 40.691 391.141 40.812 408.503 27.475 408.262 27.584 423.922 14.259 423.681 14.356 437.669 -.659 437.398 -.574 449.653 -13.876 449.413 -13.79 461.668 -27.092 461.427 -26.994 475.415 -42.01 475.144 -41.925 487.399 -55.226 487.159 -55.117 502.818 -68.442 502.578 -68.381 511.428 -81.659 511.188 -81.549 526.848 -94.875 526.607 -94.789 538.862 -108.091 538.622 -107.958 557.686 -121.307 557.445 -121.222 569.7 -134.523 569.459 -134.438 581.715 -147.739 581.474 -147.63 597.226 -166.062 596.893 -165.976 609.148 -179.278 608.908 -179.157 626.239 -190.792 626.029 -190.707 638.284 -204.008 638.043 -203.888 655.344 -213.82 655.164 -213.735 667.42 -227.036 667.179 -226.927 682.869 -241.955 682.598 -241.869 694.853 -255.171 694.613 -255.062 710.272 -268.387 710.032 -268.273 726.452" fill="#dedede"/>
          <g>
            <path d="M401.534,351.166c1.207-6.183,6.648-10.851,13.183-10.851,3.166,0,6.07,1.101,8.366,2.933,3.841-26.677,26.783-47.18,54.523-47.18,30.43,0,55.098,24.668,55.098,55.098h-131.171ZM430.753,278.432c-3.804,0-6.888,3.084-6.888,6.888s3.084,6.888,6.888,6.888,6.888-3.084,6.888-6.888-3.084-6.888-6.888-6.888ZM382.308,353.866c-2.994,0-5.42,2.427-5.42,5.42s2.427,5.42,5.42,5.42,5.42-2.427,5.42-5.42-2.427-5.42-5.42-5.42Z" fill="#dedede" mix-blend-mode="multiply"/>
            <path d="M400.022,346.629c1.207-6.183,6.648-10.851,13.183-10.851,3.166,0,6.07,1.101,8.366,2.933,3.841-26.677,26.783-47.18,54.523-47.18,30.43,0,55.098,24.668,55.098,55.098h-131.171ZM429.24,273.895c-3.804,0-6.888,3.084-6.888,6.888s3.084,6.888,6.888,6.888,6.888-3.084,6.888-6.888-3.084-6.888-6.888-6.888ZM380.795,349.33c-2.994,0-5.42,2.427-5.42,5.42s2.427,5.42,5.42,5.42,5.42-2.427,5.42-5.42-2.427-5.42-5.42-5.42Z" fill="#fff"/>
          </g>
        </g>
      </g>
    </g>
    <g id="l" data-name="info+">
      <g id="m" data-name="info+ num">
        <g>
          <g isolation="isolate">
            <path d="M352.169,288.129v-.2c0-20.301,12.601-36.202,31.202-36.202,18.501,0,31.001,15.7,31.001,36.001v.2c0,20.301-12.5,36.202-31.201,36.202s-31.002-15.701-31.002-36.002ZM398.571,288.129v-.2c0-12.701-6.199-22.302-15.4-22.302s-15.201,9.301-15.201,22.102v.2c0,12.801,6.101,22.301,15.401,22.301s15.2-9.4,15.2-22.101Z" fill="#333"/>
          </g>
          <g isolation="isolate">
            <path d="M428.666,257.638c-4.282,0-7.584-3.106-7.584-7.668v-.056c0-4.226,2.994-7.695,7.22-7.695,4.701,0,7.024,3.862,7.024,7.276,0,.951-.728,1.623-1.596,1.623h-9.263c.364,2.407,2.071,3.75,4.254,3.75,1.427,0,2.547-.504,3.498-1.288.252-.196.476-.308.867-.308.756,0,1.344.588,1.344,1.371,0,.42-.196.784-.448,1.036-1.343,1.203-3.022,1.959-5.316,1.959ZM426.371,240.035l-1.903-1.791c-.279-.252-.476-.532-.476-.839,0-.532,1.119-1.091,2.015-1.091.588,0,1.036.308,1.344.812l1.595,2.462c.112.168.252.42.252.616,0,.364-.363.588-.867.588-.784,0-1.315-.14-1.959-.756ZM432.023,248.878c-.224-2.183-1.511-3.89-3.749-3.89-2.071,0-3.526,1.595-3.834,3.89h7.583Z" fill="#333"/>
            <path d="M438.796,244.065c0-.951.728-1.707,1.679-1.707s1.707.756,1.707,1.707v.7c.952-1.315,2.239-2.546,4.506-2.546,2.127,0,3.638,1.035,4.422,2.603,1.175-1.567,2.742-2.603,4.98-2.603,3.219,0,5.178,2.042,5.178,5.653v7.892c0,.951-.728,1.679-1.68,1.679s-1.707-.728-1.707-1.679v-6.856c0-2.351-1.091-3.61-2.994-3.61-1.847,0-3.162,1.287-3.162,3.666v6.8c0,.951-.756,1.679-1.679,1.679-.952,0-1.707-.728-1.707-1.679v-6.884c0-2.295-1.12-3.582-2.995-3.582s-3.162,1.399-3.162,3.666v6.8c0,.951-.755,1.679-1.707,1.679-.923,0-1.679-.728-1.679-1.679v-11.698Z" fill="#333"/>
            <path d="M472.152,257.638c-4.282,0-7.584-3.106-7.584-7.668v-.056c0-4.226,2.994-7.695,7.22-7.695,4.701,0,7.024,3.862,7.024,7.276,0,.951-.728,1.623-1.596,1.623h-9.263c.364,2.407,2.071,3.75,4.254,3.75,1.427,0,2.547-.504,3.498-1.288.252-.196.476-.308.867-.308.756,0,1.344.588,1.344,1.371,0,.42-.196.784-.448,1.036-1.343,1.203-3.022,1.959-5.316,1.959ZM475.51,248.878c-.224-2.183-1.511-3.89-3.749-3.89-2.071,0-3.526,1.595-3.834,3.89h7.583Z" fill="#333"/>
          </g>
        </g>
      </g>
    </g>
    <g id="n" data-name="me">
      <g>
        <path d="M260.316,133.203c-.058-.044-.112-.083-.168-.123.379-.337.717-.755,1.011-1.264l-1.114.898c.417-.346.797-.767,1.114-1.316l-.625-1.655-8.78,3.691c-.523.194-.995.361-1.375.478l-.141-1.668c-7.001,1.573-11.006,2.424-12.016,2.555-1.902-2.094-4.238-4.648-7.006-7.665-2.303-2.483-4.069-3.842-5.314-4.11.01-.063.019-.13.03-.193-.314-.034-.604-.047-.912-.076.006-.01.015-.019.021-.029l-2.022-.144.167-3.279.439-4.129-.235.102.021-.407c8.03-3.665,14.497-8.104,14.497-8.104-2.35-4.265-5.726-8.155-8.866-11.246l.726-.449c-.472-.078-.871-.079-1.222-.036-1.945-1.878-3.767-3.431-5.166-4.559,3.578-4.412-2.213-12.271-8.626-9.066-2.253,1.126-.138,5.071-.138,5.071,0,0-6.123-1.133-3.009,3.574-3.294,2.422-7.453,5.994-10.225,10.256l.398,1.507-.517.656c-.336-.242-.68-.472-1.036-.683l1.007.721-.624.791-.919-.669c.285.25.59.476.903.689l-.838,1.063,7.93,7.431c-.789.568-1.308,1.488-1.308,2.535,0,1.727,1.4,3.127,3.127,3.127,1.198,0,2.227-.682,2.752-1.671l1.877,2.543c1.52-.425,3.046-.938,4.554-1.505l-.152,3.039-.458,2.361c-.066-.005-.129-.01-.196-.015-.875-.076-1.968-.137-3.278-.184-7.29,5.371-13.252,10.136-18.463,14.45-.035.262-1.268,7.509-3.698,21.741l2.019-.079,2.058-.078.003,3.152s-2.99-.427-3.214,2.67c-1.507.055-3.081-.154-4.721-.629-.205.804-.45,1.74-.734,2.806.667.533,1.935.97,3.803,1.311-1.52.497-2.831.786-3.934.865.273.752.614,1.469,1.023,2.15.22.369.456.727.708,1.075.764.085,1.761.023,2.99-.184,1.221-.214,2.357-.59,3.409-1.128-.431.863-1.383,2.078-2.859,3.645-.191.207-.375.408-.551.603.816.602,1.726,1.144,2.727,1.626,1.2-1.011,2.607-2.593,4.222-4.747,1.03-1.363,1.896-2.631,2.596-3.803-.159-.974-.343-2.189-.551-3.645-.328-2.139-.646-4.43-.821-5.926h.034s1.652-.054,1.652-.054c-.157-9.511-.201-14.949-.131-16.312,2.445-2.39,5.426-5.309,8.943-8.759.029-.029.053-.055.082-.083-.004.013-.008.027-.012.04-.1.099-.209.212-.306.306-.019.069-.036.139-.052.21-.568,2.398-.883,4.601-.944,6.609.035-.036.065-.074.1-.11-.042,2.284.184,4.8.687,7.558.982,5.362,1.838,9.182,2.57,11.461.431-.249.877-.511,1.338-.787.16.374.326.662.498.865.323.367.752.673,1.285.918-.573,6.092-.984,10.21-1.233,12.352-.734,6.04-1.547,11.277-2.439,15.709-3.707,6.399-7.405,12.352-11.093,17.86-2.847,4.28-5.426,7.89-7.737,10.831,1.147.326,2.437.638,3.844.94-.67,1.475-1.539,3.393-1.825,4.017.01.004.022.008.032.012-.002.004-.004.01-.006.014,1.726.625,3.727,1.417,5.984,2.367,1.934.818,4.051,1.747,6.368,2.8.009,0,.017,0,.026,0,.148.005.297.014.446.026,2.114.066,4.682.15,7.652.25.371.013.723.025,1.107.038,0,0-.001,0-.002,0,.01,0,.018,0,.028,0-.738-.334-2.793-1.383-6.163-3.147-1.622-1.668-3.112-3.511-3.958-4.738.101.013.212.031.312.044,3.753-6.454,7.625-14.435,11.618-23.944.488-1.248.943-2.419,1.364-3.514.144-.795.293-1.68.446-2.613.097.118.19.241.288.358l3.672-28.534c-.069-.003-.154-.007-.225-.009.005-.039.011-.084.015-.122,2.436.103,5.618.217,9.546.341,2.12.069,4.095.13,5.927.184-.023.112-.05.226-.079.341-.639,3.063-1.539,7.066-2.701,12.011-1.388,5.798-3.049,12.293-4.983,19.486.735-.246,1.531-.517,2.372-.805.087.518.182,1.069.146,1.356-.107.932-.195,1.815-.262,2.649,4.648-2.179,10.173-4.785,16.575-7.815-1.766.077-4.204.101-6.084.083.052-.019.105-.038.157-.057.561-.211,1.121-.42,1.678-.629.854-6.033,1.413-10.124,1.678-12.274.484-3.721.965-8.381,1.442-13.978.082-.881.161-1.782.236-2.701.218-2.671.437-4.987.656-6.95-6.434-.452-13.209-.845-20.325-1.18-1.548-.074-2.946-.136-4.196-.184.665-.455,1.277-.883,1.836-1.285-.69-.77-1.52-2.247-2.491-4.432-.834-1.867-1.524-3.938-2.072-6.215.333-3.63.731-7.08,1.179-10.386l3.205,4.299c2.331,3.297,4.519,6.278,6.556,8.922.183-.001,5.593.156,16.232.473l-.161-1.982c.107.049.227.078.358.088,1.136.233,2.445.307,3.928.224.143,1.49.085,3.092-.176,4.804.606.091,1.317.197,2.133.317.346-.74.59-2.078.733-4.014.455,1.464.741,2.731.859,3.803.552-.357,1.06-.794,1.524-1.311.271-.266.526-.564.767-.895.007-.743-.106-1.728-.337-2.953-.227-1.156-.567-2.236-1.02-3.241.646.33,1.595,1.113,2.844,2.347.165.144.331.287.496.431.389-.89.733-1.877,1.032-2.961-.82-1.038-2.079-2.2-3.775-3.487Z" fill="#1d1061"/>
        <g>
          <g>
            <polygon points="221.844 115.581 221.372 125.028 225.988 125.028 226.565 113.676 221.844 115.581" fill="#ffbd94"/>
            <path d="M226.374,117.436l.191-3.759-4.721,1.905-.3,6.008c2.329-1.208,3.838-2.713,4.83-4.153Z" fill="#db6b4c"/>
            <path d="M221.844,115.581l-.154,3.073c2.322-1.115,3.818-2.245,4.786-3.234l.089-1.744-4.721,1.905Z" fill="#1d1061"/>
          </g>
          <g>
            <circle cx="212.651" cy="113.301" r="3.127" fill="#ffbd94"/>
            <circle cx="212.781" cy="113.172" r="1.913" fill="#d07b73"/>
            <path d="M223.86,87.385s11.555,8.096,17.194,18.332c0,0-12.114,8.321-23.774,11.583l-11.585-15.696s3.047-8.276,18.166-14.219Z" fill="#ffbd94"/>
            <path d="M207.492,99.634s9.071-8.707,15.552-10.334l-3.166-3.665s-10.141,5.618-15.349,13.627l.398,1.507-2.024,2.567,7.965,7.464s.702-.706,2.401-.476c0,0,3.898-8.638-5.777-10.69Z" fill="#db6b4c"/>
            <path d="M215.637,90.196s3.262,3.547,8.763.865c7.344-3.581.828-14.363-6.499-10.701-2.253,1.126-.138,5.071-.138,5.071,0,0-7.109-1.319-2.125,4.764Z" fill="#db6b4c"/>
            <line x1="228.046" y1="101.522" x2="228.432" y2="102.358" fill="none" stroke="#1d1061" stroke-linecap="round" stroke-linejoin="round" stroke-width=".495"/>
            <line x1="232.635" y1="98.624" x2="233.234" y2="99.356" fill="none" stroke="#1d1061" stroke-linecap="round" stroke-linejoin="round" stroke-width=".495"/>
            <polyline points="229.934 98.899 233.384 102.497 231.638 102.546" fill="none" stroke="#1d1061" stroke-linecap="round" stroke-linejoin="round" stroke-width=".495"/>
            <path d="M229.524,96.119s.232-2.618,3.391-2.097" fill="none" stroke="#1d1061" stroke-linecap="round" stroke-linejoin="round" stroke-width=".495"/>
            <path d="M222.459,98.698s1.264-2.969,4.35-1.361" fill="none" stroke="#1d1061" stroke-linecap="round" stroke-linejoin="round" stroke-width=".495"/>
            <path d="M226.031,106.472c.565.332,1.528.498,2.89.498,2.06,0,3.953-.681,5.68-2.043,1.167-.949,2.072-2.12,2.716-3.513" fill="none" stroke="#1d1061" stroke-linecap="round" stroke-linejoin="round" stroke-width=".495"/>
            <g>
              <line x1="210.868" y1="113.632" x2="213.774" y2="111.954" fill="none" stroke="#1d1061" stroke-linecap="round" stroke-linejoin="round" stroke-width=".495"/>
              <line x1="212.651" y1="112.602" x2="212.973" y2="114.748" fill="none" stroke="#1d1061" stroke-linecap="round" stroke-linejoin="round" stroke-width=".495"/>
            </g>
            <path d="M216.653,90.106c.856.534,1.821.964,2.83.955s2.062-.544,2.444-1.478-.155-2.202-1.149-2.379c-.219-.039-.491,0-.585.202-.061.13-.025.283.022.419.499,1.46,2.215,2.38,3.707,1.989.397-.104.782-.296,1.047-.608.629-.742.398-1.871.019-2.767-.594-1.401-1.472-2.68-2.564-3.739" fill="none" stroke="#cd4d35" stroke-linecap="round" stroke-linejoin="round" stroke-width=".495"/>
            <path d="M203.374,100.741c.677.403,1.32.863,1.92,1.374" fill="none" stroke="#cd4d35" stroke-linecap="round" stroke-linejoin="round" stroke-width=".495"/>
            <path d="M202.838,101.583c.427.375.888.71,1.376,1.002" fill="none" stroke="#cd4d35" stroke-linecap="round" stroke-linejoin="round" stroke-width=".495"/>
          </g>
          <g>
            <g>
              <path d="M209.843,216.881c.248.758,2.333,3.535,4.655,5.924,3.371,1.764,5.425,2.813,6.163,3.147-.01,0-.018,0-.028,0,0,0,.001,0,.002,0-.384-.013-.736-.025-1.107-.038-2.971-.1-5.538-.184-7.652-.25-.149-.012-.297-.021-.446-.026-.009,0-.017,0-.026,0-2.317-1.052-4.434-1.982-6.368-2.8-2.258-.95-4.259-1.742-5.984-2.367.002-.004.004-.01.006-.014-.01-.004-.022-.008-.032-.012.398-.867,1.924-4.24,2.471-5.436l8.348,1.873Z" fill="#1d1061"/>
              <path d="M237.996,190.224c-.056.448.329,1.891.262,2.422-.107.932-.194,1.815-.262,2.649,4.648-2.179,10.173-4.785,16.575-7.815-2.916.127-7.672.11-8.707,0l-7.868,2.744Z" fill="#1d1061"/>
              <path d="M217.724,156.952c.16.374.326.662.498.865.323.367.752.673,1.285.918.75.35,1.703.586,2.859.708.719.078,2.608.174,5.665.288,2.436.103,5.618.217,9.546.341,2.12.069,4.095.13,5.927.184-.023.112-.05.226-.079.341-.639,3.063-1.539,7.066-2.701,12.011-1.388,5.798-3.049,12.293-4.983,19.486.833-.279,1.733-.585,2.701-.918,1.063-.37,2.208-.772,3.436-1.206,2.269-.812,4.524-1.634,6.766-2.465.561-.211,1.121-.42,1.678-.629.854-6.033,1.413-10.124,1.678-12.274.484-3.721.965-8.38,1.442-13.978.082-.881.161-1.782.236-2.701.218-2.671.437-4.987.656-6.95-6.434-.452-13.209-.845-20.325-1.18-1.548-.074-2.946-.136-4.196-.184" fill="#cd4d35"/>
              <path d="M219.507,158.736c-.573,6.092-.984,10.21-1.233,12.352-.734,6.04-1.547,11.277-2.439,15.709-3.707,6.399-7.405,12.352-11.093,17.86-2.847,4.28-5.426,7.89-7.737,10.831,2.443.694,5.476,1.332,9.1,1.914,1.707.284,3.289.52,4.747.708,3.753-6.454,7.625-14.435,11.618-23.944.488-1.248.943-2.419,1.364-3.514.725-4.012,1.564-9.781,2.518-17.309.739-6.077,1.299-10.614,1.678-13.611" fill="#cd4d35"/>
            </g>
            <path d="M221.028,121.18c-.875-.076-1.968-.137-3.278-.184-1.586,4.852-2.845,8.812-3.777,11.88-1.084,3.57-1.136,8.037-.157,13.401.982,5.362,1.839,9.182,2.57,11.461.431-.249.877-.511,1.338-.787,1.722-.935,3.619-2.027,5.691-3.278,2.499-1.521,4.632-2.876,6.399-4.065.665-.455,1.277-.883,1.836-1.285-.69-.77-1.52-2.247-2.491-4.432-.834-1.867-1.524-3.938-2.072-6.215.523-5.697,1.188-10.994,1.993-15.893-1.084-.119-2.133-.206-3.147-.262-1.459-.082-3.093-.196-4.904-.341" fill="#ffa544"/>
          </g>
          <path id="o" data-name="Layer0 0 MEMBER 1 MEMBER 0 1 STROKES" d="M250.112,160.598l-8.497.708" fill="none" stroke="#1d1061" stroke-linecap="round" stroke-linejoin="round" stroke-width=".495"/>
          <path id="p" data-name="Layer0 0 MEMBER 1 MEMBER 1 1 STROKES" d="M221.946,166.42l4.406-5.035-2.413,7.658" fill="none" stroke="#1d1061" stroke-linecap="round" stroke-linejoin="round" stroke-width=".495"/>
          <g>
            <path d="M196.455,162.853c-1.507.055-3.081-.154-4.721-.629-.205.804-.45,1.74-.734,2.806.667.533,1.935.97,3.803,1.311-1.52.497-2.831.786-3.934.865.273.752.614,1.469,1.023,2.15.22.369.456.727.708,1.075.764.085,1.761.023,2.99-.184,1.221-.214,2.357-.59,3.409-1.128-.431.863-1.383,2.078-2.859,3.645-.191.207-.375.408-.551.603.816.602,1.726,1.144,2.727,1.626,1.2-1.011,2.607-2.593,4.222-4.747,1.03-1.363,1.896-2.631,2.596-3.803-.159-.974-.343-2.189-.551-3.645-.404-2.636-.799-5.526-.919-6.841l-4,.153.004,4.071s-2.99-.427-3.214,2.67Z" fill="#ffbd94"/>
            <path d="M214.262,131.749c3.515-3.461,5.281-6.031,5.298-7.71.012-1.67-.783-2.632-1.81-3.042-7.29,5.371-13.252,10.136-18.463,14.45-.035.262-1.268,7.509-3.698,21.741l2.019-.079,6.189-.236,1.652-.052c-.157-9.511-.201-14.949-.131-16.312,2.445-2.39,5.426-5.309,8.943-8.759Z" fill="#ffa544"/>
          </g>
          <g>
            <path d="M253.385,131.196c-7.001,1.573-11.006,2.424-12.016,2.555-1.902-2.094-4.238-4.648-7.006-7.665-2.766-2.981-4.768-4.366-6.008-4.154-1.237.247-1.967.904-2.188,1.973,4.391,6.508,8.343,12.044,11.858,16.607.183-.001,5.593.156,16.232.473l-.161-1.982-.572-6.139-.141-1.668Z" fill="#ffa544"/>
            <path d="M263.463,132.154c-.155-.118-.295-.214-.446-.326.492-.366.927-.85,1.289-1.479l-.625-1.655-8.78,3.691c-.523.194-.995.361-1.375.478l.572,6.139c.107.049.227.078.358.088,1.136.233,2.445.307,3.928.224.143,1.49.085,3.092-.176,4.804.606.091,1.317.197,2.133.317.346-.74.59-2.078.733-4.014.455,1.464.741,2.731.859,3.803.552-.357,1.06-.794,1.524-1.311.271-.266.526-.564.767-.895.007-.743-.106-1.728-.337-2.953-.227-1.156-.567-2.236-1.02-3.241.646.33,1.595,1.113,2.844,2.347.165.144.331.287.496.431.389-.89.733-1.877,1.032-2.961-.82-1.038-2.079-2.2-3.775-3.487Z" fill="#ffbd94"/>
            <path id="q" data-name="Layer0 0 MEMBER 4 1 STROKES" d="M264.307,130.767c-.559.97-1.272,1.627-2.139,1.972-.907.316-1.586.614-2.039.895-.487.287-.769.524-.846.713-.081.861-.488,1.666-1.222,2.416-.891.879-1.974,1.434-3.248,1.664M259.236,133.346c.053.346.069.679.047,1.001" fill="none" stroke="#1d1061" stroke-linecap="round" stroke-linejoin="round" stroke-width=".495"/>
          </g>
          <path id="r" data-name="Layer0 1 MEMBER 0 1 STROKES" d="M250.112,160.598l-8.497.708" fill="none" stroke="#1d1061" stroke-linecap="round" stroke-linejoin="round" stroke-width=".495"/>
          <path id="s" data-name="Layer0 1 MEMBER 1 1 STROKES" d="M221.946,166.42l4.406-5.035-2.413,7.658" fill="none" stroke="#1d1061" stroke-linecap="round" stroke-linejoin="round" stroke-width=".495"/>
          <g mix-blend-mode="multiply">
            <g mix-blend-mode="overlay" opacity=".25">
              <g id="t" data-name="Layer0 2 FILL">
                <path d="M228.188,127.186l8.602,11.539c-1.359-5.284-4.017-10.249-7.973-14.896l-.629,3.357M228.24,159.863c-1.491-.056-3.502-.161-6.032-.315-.968-.058-1.824-.215-2.57-.472l-1.941,18.306c1.138,2.634,2.554,5.169,4.249,7.605.832,1.187,1.706,2.323,2.623,3.409l3.672-28.534M215.075,130.963c-.369.377-.718.726-1.049,1.049-.019.069-.036.139-.052.21-.568,2.398-.883,4.601-.944,6.609,3.966-4.075,6.029-8.446,6.189-13.113-1.032,1.702-2.413,3.451-4.144,5.245M222.208,116.119l-.997,5.14-3.462-.21c.172.872.592,1.641,1.259,2.308.043.044.078.079.105.105.447.462.936.812,1.469,1.049.713.35,1.5.525,2.36.525.941,0,1.868-.297,2.78-.892.356-.22.706-.482,1.049-.787.575-.506,1.047-1.066,1.416-1.678l-2.203-.157.787-7.396-4.563,1.993Z" fill="url(#u)"/>
              </g>
            </g>
          </g>
          <path d="M232.803,127.014l-4.359-.539c1.181.674,2.094,1.367,3.229,2.116" fill="none" stroke="#1d1061" stroke-linecap="round" stroke-linejoin="round" stroke-width=".495"/>
          <path d="M218.07,121.911c.426.158.776.484,1.02.867s.39.821.491,1.264c.087.382.144.781.069,1.166-.201,1.034-1.215,1.928-1.86,2.718-.752.92-1.516,1.831-2.306,2.719" fill="none" stroke="#1d1061" stroke-linecap="round" stroke-linejoin="round" stroke-width=".495"/>
        </g>
      </g>
    </g>
    <g id="v" data-name="me win">
      <g>
        <g id="w" data-name="Layer2 0 FILL">
          <path d="M294.763,68.59v-.051c.103-.068.171-.12.205-.154h.051c.103-.137.205-.257.308-.359l-3.078-2.616c.308-.308.616-.599.923-.872l-2.924-2.514c-.547.513-1.146,1.077-1.796,1.693-.923.992-1.71,1.949-2.36,2.873-.068.137-.154.274-.257.41-.445-.342-.975-.667-1.59-.975-.103.239-.205.479-.308.718-.855,1.642-1.59,3.3-2.206,4.976,1.026.479,2.343,1.129,3.95,1.949.787.445,1.642.889,2.565,1.334.103.034.222.086.359.154-.41.855-.958,1.984-1.642,3.386-.376.752-.787,1.573-1.231,2.463l-.051.051c-.394-.379-.822-.772-1.283-1.18-1.646,3.691-3.715,7.829-6.208,12.415-.103-.539-.359-1.001-.77-1.385-.547-.513-1.214-.77-2.001-.77-.581,0-1.146.239-1.693.718-.195.16-.383.331-.564.513-.44-.814-.902-1.652-1.385-2.514-2.217-3.951-4.286-7.422-6.208-10.414-2.56.801-4.184,1.297-4.874,1.488.103-.511.154-1.058.154-1.642,0-1.744-.941-3.215-2.822-4.412-1.505-.992-2.924-1.488-4.258-1.488-1.642,0-2.462.616-2.462,1.847,0,.513.085,1.026.257,1.539.121.291.344.753.667,1.385l-2.001-.051c-1.744,0-2.616.496-2.616,1.488,0,.65.222,1.351.667,2.103.258.388.977,1.345,2.155,2.873-1.592.773-2.995,1.44-4.207,2.001.158,2.762.38,6.353.667,10.773.024.368.042.727.051,1.077-.462-.137-1.027-.205-1.693-.205-.445,0-.838.291-1.18.872-.18.299-.317.607-.41.923-1.009-1.259-2.052-2.542-3.129-3.848-5.196-6.311-8.359-10.159-9.491-11.543-.494.795-.362.574-.86,1.386-.249-.303-2.933-3.346-3.567-4.107.103-.074.206-.16.307-.258.776-.67,1.492-1.289,2.146-1.857,1.36-1.197,2.45-2.159,3.27-2.888-.958-1.456-2.059-2.905-3.303-4.345-.169-.181-.341-.368-.516-.562-.462.476-.905.922-1.328,1.34-.092-.101-.195-.203-.309-.306-.855-.744-1.867-1.474-3.037-2.192-.76-.456-1.48-.863-2.16-1.221l-2.191,3.191c.379.2.756.403,1.131.61l-2.345,3.294c.142.078.262.146.36.204.034.023.051.041.052.051.085.03.154.063.206.102h0l-2.245,2.729c.153.084.307.169.463.254,1.119.575,2.13,1.049,3.033,1.422-.136.247-.203.572-.201.976.003.581.296,1.076.879,1.484.634.436,1.524.706,2.671.809.505.405,1.02.864,1.545,1.378,1.169,1.12,2.865,2.956,3.086,3.228-.985,1.696-2.503,4.277-3.296,5.693,3.354,2.654,7.697,6.245,13.031,10.773,3.213,2.737,6.137,5.302,8.773,7.695,1.496,1.355,2.898,2.654,4.207,3.899,1.18,1.113,2.274,2.173,3.283,3.181l.718,15.852c.14,2.081.294,4.714.462,7.901.468-.057.947-.125,1.436-.205.061,2.087.198,6.448.41,13.082.274,11.047.41,20.128.41,27.241,0,9.033-.154,18.113-.462,27.241.417.095.827.18,1.231.257-3.262,1.382-5.708,2.409-7.336,3.078h14.929c.002-.438.002-.9,0-1.385.854.199,1.692.387,2.514.564-.189-9.79-.822-21.812-1.898-36.065-1.397-16.021-2.252-25.7-2.565-29.037.849-.175,1.858-.397,3.027-.667.409-.096.802-.198,1.18-.308,1.299,5.15,3.761,14.76,7.387,28.832,3.385,13.16,6.498,25.335,9.337,36.527.78-.21,1.567-.433,2.36-.667-.034.615-.085,1.351-.154,2.206h15.185c-2.359-1.321-4.924-2.775-7.695-4.361,1.269-.374,2.552-.768,3.848-1.18l-23.137-68.642c1.059-.223,2.085-.463,3.078-.718-1.817-6.401-4.194-14.797-7.131-25.189,2.491-3.183,5.432-7.082,8.824-11.697,5.325-7.258,9.053-12.594,11.184-16.006-.533-.524-1.081-1.054-1.642-1.59-.315-.304-.674-.646-1.077-1.026.909-1.878,1.781-3.486,2.616-4.822.376-.616.735-1.18,1.077-1.693,1.129-.41,1.95-.889,2.463-1.436.445-.547.599-1.094.462-1.642-.103-.41-.257-.701-.462-.872.787-.616,1.642-1.351,2.565-2.206.171-.137.291-.257.359-.359l-2.873-2.001M269.061,108.093c-.058.034-.126.051-.205.051-1.272.378-2.828.789-4.668,1.231-.347-1.469-.757-3.179-1.231-5.13,3.495-.518,6.659-1.117,9.491-1.796-.95,1.617-2.079,3.498-3.386,5.643M258.185,104.912c.232-.029.454-.063.667-.103.317,1.414.693,3.278,1.129,5.592-.155.033-.309.067-.462.103-2.135.509-3.948.919-5.438,1.231-.046-.06-.097-.129-.154-.205-1.53-1.873-3.137-3.84-4.822-5.9,2.445-.184,5.472-.423,9.08-.718Z" fill="#1d1061"/>
        </g>
        <g>
          <g>
            <circle cx="277.751" cy="93.274" r="3.518" fill="#ffbd94"/>
            <circle cx="277.751" cy="93.274" r="2.225" fill="#d07b73"/>
            <circle cx="249.328" cy="99.414" r="2.622" fill="#ffbd94"/>
            <circle cx="249.328" cy="99.414" r="1.656" fill="#d07b73"/>
            <path d="M268.738,77.596s-10.622,2.856-19.457,7.632l1.194,19.341s19.46-1.671,30.086-3.94c0,0-7.29-16.099-11.823-23.033Z" fill="#ffbd94"/>
            <g>
              <line x1="247.962" y1="99.024" x2="250.583" y2="99.179" fill="none" stroke="#1d1061" stroke-linecap="round" stroke-linejoin="round" stroke-width=".472"/>
              <line x1="249.581" y1="99.179" x2="248.81" y2="100.567" fill="none" stroke="#1d1061" stroke-linecap="round" stroke-linejoin="round" stroke-width=".472"/>
            </g>
            <polygon points="261.602 103.404 262.548 110.635 267.597 109.48 266.89 103.55 261.602 103.404" fill="#ffbd94"/>
            <path d="M267.32,107.207l-.43-3.657-5.289-.146.115.81c.418.675,2.796,3.168,5.604,2.993Z" fill="#d07b73"/>
          </g>
          <path d="M261.746,103.417s2.004,1.403,5.277,1.269l-.153-1.896-5.124.627Z" fill="#1d1061"/>
          <path d="M293.998,62.014l-4.024,4.555-1.8-.699-2.928,5.493,6.255,3.756-3.49,6.423,2.681,3.013,4.644-7.042s2.316.114,3.145-3.728l3.097-2.584-7.58-9.187Z" fill="#ffbd94"/>
          <path d="M223.903,70.675l5.253,3.057,1.488-1.231,4.509,4.292-4.754,5.534,5.509,4.983-2.603,4.109-5.793-5.613s-2.162.837-4.159-2.548l-3.753-1.478,4.302-11.106Z" fill="#ffbd94"/>
          <polygon points="263.779 209.907 255.432 213.406 271.984 213.406 271.725 211.724 263.779 209.907" fill="#1d1061"/>
          <polygon points="289.787 210.853 289.559 213.406 305.307 213.406 297.099 209.322 289.787 210.853" fill="#1d1061"/>
          <polygon points="277.694 137.136 260.235 140.469 260.797 209.769 273.484 212.823 268.591 146.955 271.813 146.26 288.434 211.929 301.435 208.262 277.694 137.136" fill="#cd4d35"/>
          <path d="M277.694,137.136l-17.459,3.333.019,2.352c9.026-1.741,14.227-4.091,17.549-5.316l-.11-.37Z" fill="#1d1061"/>
          <polygon points="271.754 108.096 288.391 78.673 295.785 85.451 275.143 113.18 282.229 136.903 258.968 141.217 257.687 117.832 228.764 94.673 234.926 84.198 258.632 111.005 271.754 108.096" fill="#ffa544"/>
          <g mix-blend-mode="multiply">
            <g mix-blend-mode="overlay" opacity=".25">
              <path d="M276.072,145.097c-.994.24-3.286.859-4.07,1.029.101.598,8.561,33.357,8.561,33.357,0,0-1.144-20.597-4.491-34.387Z" fill="url(#x)"/>
              <path d="M262.56,103.665c.68,3.454,1.083,6.638,1.19,6.638l-5.77,1.189s-2.985-2.813-3.567-3.6c0,0-.158,4.443,3.129,8.567,0,0,.835.434,2.849-.584,6.136-3.102,8.989-5.733,10.064-7.249l-2.704.702s-.891-6.062-.984-6.433l-4.207.77Z" fill="url(#y)"/>
            </g>
          </g>
          <path d="M272.058,96.265c-.033-.295-.091-.562-.173-.802-.14-.472-.362-.844-.667-1.118-.466-.418-1.018-.653-1.654-.705-.632-.054-1.455.343-2.469,1.19-1.016.854-2.341,1.348-3.975,1.482-1.636.136-3.018.095-4.148-.121-1.12-.224-2.017-.118-2.691.316-.67.443-.892,1.293-.667,2.551.015.085.031.166.049.243.318,1.139,1.413,1.957,3.284,2.454,2.008.53,3.862.623,5.772.385,1.902-.239,3.811-1.056,5.316-2.485,1.511-1.424,2.118-2.531,2.023-3.39Z" fill="#fff"/>
          <g>
            <g>
              <path d="M269.044,76.863s-8.614.321-20.331,7.597l1.231,12.519s3.799-5.243.482-10.7c0,0,13.964-6.046,17.762-7.169,0,0,.482,6.902,7.544,11.289,0,0-4.066-9.416-6.688-13.536Z" fill="#db6b4c"/>
              <g id="z" data-name="Layer2 2 FILL">
                <path d="M252.63,77.93c-.547.445-.787,1.043-.718,1.796,0,.513.205,1.146.616,1.898,1.06,1.778,2.531,2.856,4.412,3.232.616.137,1.419.137,2.411,0,1.71-.308,3.01-.975,3.899-2.001.547-.547.958-1.214,1.231-2.001.581-1.436.65-2.753.205-3.95-.205-.513-.496-1.009-.872-1.488-.752-.992-1.693-1.761-2.822-2.309-1.163-.547-2.343-.752-3.54-.616-1.026.068-1.693.445-2.001,1.129-.137.274-.171.701-.103,1.283.103,1.026.41,2.001.923,2.924-.479-.205-1.077-.342-1.796-.41-.787,0-1.402.171-1.847.513Z" fill="#db6b4c"/>
              </g>
            </g>
            <path d="M254.154,83.093c.749.614,1.671,1.093,2.686,1.188s2.125-.246,2.748-1,.622-1.922-.127-2.537c-.273-.225-.766-.338-.985-.057-.213.272.036.628.279.866.504.494,1.093.997,1.84,1.055.897.07,1.753-.573,2.073-1.349s.198-1.638-.086-2.41c-.52-1.414-1.576-2.648-2.951-3.449" fill="none" stroke="#cd4d35" stroke-linecap="round" stroke-linejoin="round" stroke-width=".472"/>
            <path d="M248.228,84.013l1.296,1.078" fill="none" stroke="#cd4d35" stroke-linecap="round" stroke-linejoin="round" stroke-width=".472"/>
            <path d="M248.353,85.27c.413.263.82.536,1.221.818" fill="none" stroke="#cd4d35" stroke-linecap="round" stroke-linejoin="round" stroke-width=".472"/>
          </g>
          <g>
            <path d="M296.201,65.848c-1.133.945-2.272,1.961-3.527,3.171.564.428,1.122.818,1.509,1.155-.249.119-.549.234-.9.345.747.57,1.43,1.066,2.05,1.49.589-.539,1.635-1.473,3.14-2.802M293.283,70.519c-.139.024-.278.048-.417.072-.729.117-2.069.241-3.519-.415-.331-.162-.661-.341-.989-.536-.326-.23-.651-.477-.974-.741M289.689,66.96c.722.46,2.143,1.443,2.985,2.059M295.333,72.009c1.104.836,1.986,1.433,2.645,1.791" fill="none" stroke="#1d1061" stroke-linecap="round" stroke-linejoin="round" stroke-width=".472"/>
            <line x1="259.821" y1="92.161" x2="259.901" y2="93.082" fill="none" stroke="#1d1061" stroke-linecap="round" stroke-linejoin="round" stroke-width=".472"/>
            <line x1="265.14" y1="90.989" x2="265.455" y2="91.884" fill="none" stroke="#1d1061" stroke-linecap="round" stroke-linejoin="round" stroke-width=".472"/>
            <path d="M228.856,74.259c-.741.941-.987,1.238-1.532,1.915-.491.628-.899,1.145-1.225,1.552.287.045.624.06,1.011.045.126-.014.262-.028.408-.044.738-.08,1.392-.237,1.962-.471.05-.021.099-.044.147-.068.461-.211.862-.479,1.203-.801.243-.216.505-.494.787-.834.229-.269.47-.579.725-.93M223.001,74.14c1.366.61,2.807,1.288,4.323,2.034M227.11,77.771c-.553.775-1.063,1.467-1.53,2.075-.83,1.078-1.517,1.884-2.06,2.416M221.688,77.971c1.871.872,3.169,1.497,3.893,1.874" fill="none" stroke="#1d1061" stroke-linecap="round" stroke-linejoin="round" stroke-width=".472"/>
            <path d="M270.38,96.501c.607-.452,1.163-1.008,1.667-1.667-.145-.498-.376-.892-.693-1.18-.485-.441-1.057-.689-1.719-.744-.656-.057-1.511.362-2.565,1.257-1.055.902-2.432,1.424-4.13,1.565-1.699.143-3.136.1-4.309-.128-1.163-.236-2.095-.125-2.796.333-.696.468-.927,1.366-.693,2.693.015.09.032.175.051.257.487.189,1.052.335,1.693.436M255.195,98.887c.331,1.202,1.468,2.066,3.412,2.591,2.086.559,4.012.658,5.996.406,1.976-.253,3.959-1.115,5.522-2.624,1.57-1.504,2.201-2.672,2.102-3.58-.034-.311-.094-.594-.18-.846M269.098,97.014l.103.462M258.427,99.323l-.051.308" fill="none" stroke="#1d1061" stroke-linecap="round" stroke-linejoin="round" stroke-width=".472"/>
            <path d="M274.317,147.046l-2.962-.756s2.33-.549,3.232-.77" fill="none" stroke="#1d1061" stroke-linecap="round" stroke-linejoin="round" stroke-width=".472"/>
            <g>
              <line x1="278.573" y1="91.776" x2="276.8" y2="93.704" fill="none" stroke="#1d1061" stroke-linecap="round" stroke-linejoin="round" stroke-width=".472"/>
              <line x1="277.416" y1="93.01" x2="279.19" y2="93.935" fill="none" stroke="#1d1061" stroke-linecap="round" stroke-linejoin="round" stroke-width=".472"/>
            </g>
            <polyline points="262.497 90.329 263.716 94.757 262.862 94.351" fill="none" stroke="#1d1061" stroke-linecap="round" stroke-linejoin="round" stroke-width=".472"/>
            <path d="M263.121,87.168s.572-2.574,3.647-1.645" fill="none" stroke="#1d1061" stroke-linecap="round" stroke-linejoin="round" stroke-width=".472"/>
            <path d="M255.756,88.813s1.645-2.789,4.505-.787" fill="none" stroke="#1d1061" stroke-linecap="round" stroke-linejoin="round" stroke-width=".472"/>
          </g>
        </g>
      </g>
      <g>
        <g>
          <polygon points="302.496 47.924 313.295 27.828 322.22 35.397 302.496 47.924" fill="#cd4d35"/>
          <polygon points="322.029 72.66 342.181 61.964 345.387 73.219 322.029 72.66" fill="#cd4d35"/>
          <polygon points="321.64 104.703 344.433 103.712 342.489 115.252 321.64 104.703" fill="#cd4d35"/>
          <polygon points="197.127 72.323 178.88 58.628 173.964 69.248 197.127 72.323" fill="#cd4d35"/>
          <polygon points="189.802 102.978 167.021 101.745 168.842 113.305 189.802 102.978" fill="#cd4d35"/>
          <polygon points="203.625 131.889 182.527 140.572 189.142 150.225 203.625 131.889" fill="#cd4d35"/>
        </g>
        <g mix-blend-mode="overlay" opacity=".5">
          <polygon points="300.952 48.268 311.751 28.172 320.675 35.741 300.952 48.268" fill="url(#aa)"/>
          <polygon points="320.484 73.004 340.636 62.308 343.843 73.563 320.484 73.004" fill="url(#ab)"/>
          <polygon points="320.096 105.047 342.889 104.056 340.945 115.596 320.096 105.047" fill="url(#ac)"/>
          <polygon points="195.582 72.667 177.336 58.972 172.42 69.592 195.582 72.667" fill="url(#ad)"/>
          <polygon points="188.258 103.322 165.477 102.089 167.298 113.649 188.258 103.322" fill="url(#ae)"/>
          <polygon points="202.08 132.233 180.983 140.916 187.598 150.569 202.08 132.233" fill="url(#af)"/>
        </g>
      </g>
    </g>
  </g>
</svg>