<?xml version="1.0" encoding="UTF-8"?>
<svg xmlns="http://www.w3.org/2000/svg" width="300" height="300" xmlns:xlink="http://www.w3.org/1999/xlink" viewBox="0 0 300 300">
  <defs>
    <linearGradient id="b" data-name="Dégradé sans nom 10" x1="21.213" y1="44.161" x2="135.321" y2="44.161" gradientUnits="userSpaceOnUse">
      <stop offset="0" stop-color="#9bc8ec" stop-opacity="0"/>
      <stop offset="1" stop-color="#9bc8ec" stop-opacity=".5"/>
    </linearGradient>
    <filter id="c" data-name="drop-shadow-3" x="83.052" y="62.257" width="68.415" height="116.487" filterUnits="userSpaceOnUse">
      <feOffset dx="-1.219" dy="0"/>
      <feGaussianBlur result="d" stdDeviation="0"/>
      <feFlood flood-color="#42496f" flood-opacity="1"/>
      <feComposite in2="d" operator="in"/>
      <feComposite in="SourceGraphic"/>
    </filter>
  </defs>
  <g isolation="isolate">
    <g id="a" data-name="bateau 04">
      <g>
        <path d="M133.868,62.839s4.05-4.774-1.376-7.92-10.333.056-14.943-1.101c-2.281-.572-4.108.844-4.108.844,0,0,2.456-7.607-6.116-6.506-2.281-9.045-11.089-16.516-16.044-16.516s-7.629,2.124-9.595,1.573c-1.966-5.584-5.505-10.696-13.842-9.123-8.337,1.573-21.156,10.618-20.134,12.426,1.022,1.809,3.842,3.409-1.658,3.356-5.499-.053-11.634-7.996-14.544-4.772-2.91,3.225-3.146,7.629-8.337,8.573-5.191.944.865,14.707,7.393,12.269,6.528-2.438,6.292-6.371,11.483-3.932,5.191,2.438,4.326.865,6.292.629s2.281,4.798,7.55,3.303c5.269-1.494,5.559-3.464,7.105-.434s.366,8.66,5.006,6.749c4.64-1.911,5.926-3.955,7.092-3.326,1.166.629,3.289,1.494,7.379,1.416s4.606,4.175,4.606,4.175l20.939-.449v-1.033s.359-.652-.674-2.337c1.932.337,6.574.541,6.63,1.842l19.896.295Z" fill="url(#b)"/>
        <g filter="url(#c)">
          <g>
            <polygon points="151.468 178.744 129.276 178.744 113.972 63.421 136.165 63.421 151.468 178.744" fill="#ffd66e"/>
            <polygon points="138.286 79.411 116.094 79.411 113.972 63.421 136.165 63.421 138.286 79.411" fill="#42496f"/>
            <rect x="111.956" y="62.257" width="26.068" height="1.164" fill="#42496f"/>
            <polygon points="136.165 63.421 113.972 63.421 114.552 67.789 136.289 64.36 136.165 63.421" fill="#a384bb" mix-blend-mode="multiply" opacity=".25"/>
          </g>
          <g>
            <polygon points="123.784 178.744 101.592 178.744 86.288 63.421 108.48 63.421 123.784 178.744" fill="#ffd66e"/>
            <polygon points="110.602 79.411 88.41 79.411 86.288 63.421 108.48 63.421 110.602 79.411" fill="#42496f"/>
            <rect x="84.272" y="62.257" width="26.068" height="1.164" fill="#42496f"/>
            <polygon points="108.48 63.421 86.288 63.421 86.868 67.789 108.605 64.36 108.48 63.421" fill="#a384bb" mix-blend-mode="multiply" opacity=".25"/>
          </g>
        </g>
      </g>
    </g>
  </g>
</svg>