<?xml version="1.0" encoding="UTF-8"?><svg xmlns="http://www.w3.org/2000/svg" xmlns:xlink="http://www.w3.org/1999/xlink" viewBox="0 0 300 300"><defs><style>.cls-1{fill:#ffd66e;}.cls-2{stroke-width:2.44px;}.cls-2,.cls-3,.cls-4,.cls-5{fill:none;}.cls-2,.cls-3,.cls-5{stroke-miterlimit:10;}.cls-2,.cls-5{stroke:#efa78e;}.cls-3{stroke:#ffd66e;stroke-width:12.19px;}.cls-6{fill:#fff;}.cls-7{filter:url(#drop-shadow-1);}.cls-8{isolation:isolate;}.cls-5{stroke-width:3.66px;}.cls-9{fill:#a384bb;mix-blend-mode:multiply;opacity:.5;}.cls-10{fill:#9bc8ec;}.cls-11{clip-path:url(#clippath);}</style><clipPath id="clippath"><path class="cls-4" d="M134.86,139.95H22.92v92.76c1.89.35,3.97.55,6.16.55,5.08,0,9.57-1.04,12.41-2.65.14,0,.28-.01.41-.02,1.53,1.62,3.96,2.67,6.71,2.67s5.18-1.05,6.71-2.67c1.96,1.62,5.06,2.67,8.57,2.67,2.89,0,5.51-.71,7.43-1.87,2.25,1.16,5.31,1.87,8.68,1.87,2.91,0,5.58-.53,7.7-1.42.52.89,1.18,1.42,1.9,1.42s1.35-.52,1.87-1.38c2.11.86,4.74,1.38,7.61,1.38,3.75,0,7.1-.88,9.39-2.27,1.96,1.39,4.84,2.27,8.04,2.27,2.98,0,5.67-.76,7.61-1.97,2.27,1.22,5.41,1.97,8.89,1.97.62,0,1.23-.04,1.82-.08v-93.22Z"/></clipPath><filter id="drop-shadow-1" x="39.6" y="175.64" width="81.63" height="77.97" filterUnits="userSpaceOnUse"><feOffset dx="-1.22" dy="0"/><feGaussianBlur result="blur" stdDeviation="0"/><feFlood flood-color="#42496f" flood-opacity="1"/><feComposite in2="blur" operator="in"/><feComposite in="SourceGraphic"/></filter></defs><g class="cls-8"><g id="bateau_07"><g class="cls-11"><g class="cls-7"><circle class="cls-5" cx="82.24" cy="214.62" r="37.02"/><line class="cls-2" x1="43.57" y1="224.81" x2="120.91" y2="204.44"/><line class="cls-2" x1="92.42" y1="253.3" x2="72.05" y2="175.95"/><line class="cls-2" x1="47.69" y1="194.48" x2="116.79" y2="234.77"/><line class="cls-2" x1="62.1" y1="249.17" x2="102.38" y2="180.07"/><circle class="cls-3" cx="82.24" cy="214.62" r="21.61"/><circle class="cls-1" cx="82.24" cy="214.62" r="6.02"/><path class="cls-9" d="M120.09,205.91l1.13-.3-.62-2.36-1.13.3c-2.72-9.14-8.72-16.88-16.63-21.85l.59-1.02-2.11-1.23-.59,1.01c-5.5-2.99-11.81-4.7-18.5-4.7-3,0-5.91.35-8.71,1l-.3-1.13-2.36.62.3,1.13c-9.14,2.72-16.88,8.72-21.85,16.63l-1.02-.59-1.23,2.11,1.01.59c-2.99,5.5-4.7,11.81-4.7,18.5,0,2.99.35,5.91,1,8.71l-1.13.3.62,2.36,1.13-.3c2.72,9.14,8.72,16.88,16.63,21.85l-.59,1.02,2.11,1.23.59-1.01c5.5,2.99,11.81,4.7,18.5,4.7,3,0,5.91-.35,8.71-1l.3,1.13,2.36-.62-.3-1.13c9.14-2.72,16.88-8.72,21.85-16.63l1.02.59,1.23-2.11-1.01-.59c2.99-5.5,4.7-11.81,4.7-18.5,0-3-.35-5.91-1-8.71ZM115.94,204.49l-7.24,1.91c-1.95-6.26-6.07-11.57-11.47-15.05l3.77-6.47c7.09,4.48,12.47,11.42,14.94,19.62ZM97.75,214.62c0,2.41-.57,4.69-1.56,6.73l-8.28-4.83c.2-.6.34-1.23.34-1.9,0-.11-.03-.21-.03-.32l9.27-2.44c.16.9.26,1.82.26,2.76ZM67.61,219.74l9.27-2.44c.34.68.8,1.28,1.35,1.78l-4.83,8.28c-2.66-1.85-4.7-4.51-5.79-7.62ZM66.72,214.62c0-2.41.57-4.69,1.56-6.73l8.28,4.83c-.2.6-.34,1.23-.34,1.9,0,.11.03.21.03.32l-9.27,2.44c-.16-.9-.26-1.81-.26-2.76ZM82.24,208.61c-.11,0-.21.03-.32.03l-2.44-9.27c.9-.16,1.82-.26,2.76-.26,2.41,0,4.69.57,6.73,1.56l-4.83,8.28c-.6-.2-1.23-.34-1.9-.34ZM79.57,209.26c-.68.34-1.28.8-1.78,1.35l-8.28-4.83c1.85-2.66,4.51-4.7,7.62-5.79l2.44,9.27ZM80.34,220.3c.6.2,1.23.34,1.9.34.11,0,.21-.03.32-.03l2.44,9.27c-.9.16-1.82.26-2.76.26-2.41,0-4.69-.57-6.73-1.56l4.83-8.28ZM84.91,219.99c.68-.34,1.28-.8,1.78-1.35l8.28,4.83c-1.85,2.66-4.51,4.7-7.62,5.79l-2.44-9.27ZM87.6,211.95c-.34-.68-.8-1.28-1.35-1.78l4.83-8.28c2.66,1.85,4.7,4.51,5.79,7.62l-9.27,2.44ZM82.24,179.43c6.02,0,11.7,1.52,16.66,4.2l-3.78,6.47c-3.85-2.03-8.23-3.19-12.88-3.19-2.01,0-3.98.22-5.87.63l-1.91-7.24c2.5-.57,5.1-.88,7.78-.88ZM72.1,180.92l1.91,7.24c-6.26,1.95-11.57,6.07-15.05,11.47l-6.47-3.77c4.48-7.09,11.42-12.47,19.62-14.94ZM47.05,214.62c0-6.02,1.52-11.7,4.2-16.66l6.48,3.78c-2.03,3.85-3.19,8.23-3.19,12.88,0,2.01.22,3.98.63,5.87l-7.24,1.91c-.57-2.5-.88-5.1-.88-7.78ZM48.54,224.76l7.24-1.91c1.95,6.26,6.07,11.57,11.47,15.05l-3.77,6.47c-7.09-4.48-12.47-11.42-14.94-19.62ZM82.24,249.82c-6.02,0-11.7-1.52-16.66-4.2l3.78-6.48c3.85,2.03,8.23,3.19,12.88,3.19,2.01,0,3.98-.22,5.87-.63l1.91,7.24c-2.5.57-5.11.88-7.78.88ZM92.38,248.32l-1.91-7.24c6.26-1.95,11.57-6.07,15.05-11.47l6.47,3.77c-4.48,7.09-11.42,12.47-19.62,14.94ZM106.76,227.5c2.03-3.85,3.19-8.23,3.19-12.88,0-2.01-.22-3.98-.63-5.87l7.24-1.91c.57,2.5.88,5.11.88,7.78,0,6.02-1.52,11.7-4.2,16.66l-6.48-3.78Z"/><circle class="cls-5" cx="79.8" cy="214.62" r="37.02"/><line class="cls-2" x1="41.13" y1="224.81" x2="118.47" y2="204.44"/><line class="cls-2" x1="89.99" y1="253.3" x2="69.61" y2="175.95"/><line class="cls-2" x1="45.25" y1="194.48" x2="114.35" y2="234.77"/><line class="cls-2" x1="59.66" y1="249.17" x2="99.94" y2="180.07"/><circle class="cls-3" cx="79.8" cy="214.62" r="21.61"/><circle class="cls-1" cx="79.8" cy="214.62" r="6.02"/></g></g><path class="cls-10" d="M53.95,232.17s-9.57-26.22-18.07-20.25c-2.41,1.69,3.9,15.14,3.9,15.14,0,0-8.4-4.08-9.07-.58s-3.9,6.23-10.36,4.94c-6.46-1.29,18.24,7.83,18.81,4.17s8.16,3.47,9.86,1.7c1.7-1.77-1.25-6.97,4.93-5.13Z"/><path class="cls-6" d="M50.52,228.37c.31-5.67-8.43-20.92-14.64-16.45-4.09,2.94,2.88,11.61,3.9,15.14-5.19-3-11.26-3.35-12.88-1.67s2.99,2.38,1.72,3.9c-1.27,1.52-13.2,1.55-13.2,1.55,0,0,13.68,4.84,17.55,3.14,2.44-1.07-1.48-4.55.68-5.31,5.41-1.89,10.29,7.89,14.42,6.84,2.45-.62-3.54-8.49-1.96-9.14,1.58-.65,4.4,1.99,4.4,1.99Z"/><path class="cls-6" d="M14.75,229.66c.28.3.14.7-.07.85-.25.17-.59.13-.77-.11-.19-.25-.14-.59.11-.79.04-.03.08-.05.13-.08.34-.25.38-.24.61.13Z"/><path class="cls-6" d="M6.14,231.32c.23-.15.54-.09.69.15.16.24.1.56-.15.71-.23.14-.54.07-.69-.16-.15-.23-.08-.55.15-.69Z"/><path class="cls-6" d="M11.08,234.8c.19-.12.39-.07.54.15.14.21.09.49-.12.62-.2.13-.46.06-.59-.14-.14-.22-.06-.48.18-.63Z"/><path class="cls-6" d="M14,235.91c-.2.12-.45.06-.57-.14-.12-.2-.05-.45.15-.57.22-.13.48-.08.6.12.12.2.04.45-.18.59Z"/><path class="cls-6" d="M11.36,230.4c.19-.12.46-.07.58.12.13.19.07.45-.13.58-.2.13-.45.07-.58-.12-.13-.2-.08-.45.12-.58Z"/><path class="cls-6" d="M17.82,232.11c.19-.11.44-.04.55.15.1.19.04.42-.14.53-.19.12-.43.06-.55-.14-.11-.19-.05-.44.14-.55Z"/><path class="cls-6" d="M5.4,233.98c-.11-.19-.05-.41.13-.53.19-.12.43-.06.55.14.11.19.05.42-.13.53-.19.12-.43.06-.55-.14Z"/><path class="cls-6" d="M16.53,234.15c-.18.1-.39.05-.48-.11-.1-.17-.03-.41.14-.51.17-.1.38-.05.48.12.11.18.05.39-.13.5Z"/><path class="cls-6" d="M6.08,229.36s.1-.07.15-.09c.16-.07.3-.03.38.13.08.16.01.3-.14.38-.08.04-.17.06-.26.1-.15.07-.28.06-.37-.09-.09-.16-.01-.27.13-.35.04-.02.07-.04.11-.07h0Z"/><path class="cls-6" d="M10.81,237.72c-.17.11-.39.07-.49-.09-.1-.16-.04-.41.12-.51.16-.1.39-.04.49.12.1.16.04.38-.12.49Z"/><path class="cls-6" d="M11.04,225.3c-.12-.18-.1-.38.06-.49.15-.1.37-.06.47.1.1.15.03.52-.13.62-.13.08-.24.01-.39-.22Z"/><path class="cls-6" d="M13.65,226.21c-.17.1-.39.04-.48-.14-.09-.19-.05-.35.12-.46.17-.11.38-.05.48.12.1.17.05.38-.12.48Z"/><path class="cls-6" d="M7.97,225.84c.16-.09.39-.02.48.15.1.17.04.36-.13.46-.17.09-.39.03-.48-.14-.09-.16-.03-.38.13-.47Z"/><path class="cls-6" d="M8.29,230.86c-.1-.16-.05-.37.1-.47.16-.1.39-.04.48.13.09.16.04.37-.12.46-.16.09-.37.04-.47-.12Z"/><path class="cls-6" d="M12.05,228.37c.07.15.04.29-.12.4-.15.1-.36.04-.44-.11-.09-.17-.04-.31.11-.42.14-.1.35-.04.45.13Z"/><path class="cls-6" d="M7.79,234.8c-.05.12-.07.28-.16.37-.13.12-.29.06-.39-.09-.1-.15-.07-.32.09-.39.11-.05.26,0,.4.01l.06.1Z"/><path class="cls-6" d="M12.48,233.06c.06-.2.07-.33.14-.42.03-.03.23.02.28.09.1.12.06.27-.09.33-.07.03-.16,0-.33,0Z"/><path class="cls-6" d="M10.17,235.39c-.16-.07-.29-.09-.32-.16-.03-.07.03-.18.05-.28.09.02.22.02.27.08.05.06,0,.18,0,.36Z"/><path class="cls-6" d="M8.4,232.96c.15.07.27.08.3.14.03.06-.02.17-.04.26-.09-.02-.21-.01-.27-.07-.04-.04,0-.17.01-.33Z"/><path class="cls-6" d="M4.57,229.16c.16.07.28.09.31.15.03.07-.01.2-.07.25-.03.03-.19,0-.23-.06-.04-.06,0-.17,0-.34Z"/><path class="cls-6" d="M8.63,229.63c.07-.15.09-.27.15-.29.07-.03.17.03.25.05-.02.09-.02.21-.07.25-.05.04-.17,0-.33-.01Z"/><path class="cls-6" d="M9.83,228.46c.06-.14.07-.25.12-.27.06-.03.19,0,.22.05.03.05,0,.18-.05.22-.05.04-.15,0-.3,0Z"/><path class="cls-6" d="M8.49,236.39c.06-.14.07-.24.13-.27.05-.03.19,0,.21.04.03.07.01.19-.04.24-.04.04-.15,0-.3,0Z"/><path class="cls-6" d="M7.33,235.62c-.06.14-.08.25-.13.27-.06.03-.16-.02-.24-.04.02-.08.02-.19.07-.23.05-.04.15,0,.31,0Z"/><path class="cls-6" d="M15.18,228.43c.05-.11.06-.22.11-.23.07-.02.15.03.23.05-.03.08-.03.18-.08.22-.04.03-.14-.02-.26-.04Z"/><path class="cls-6" d="M17.83,231.01c-.11-.06-.22-.08-.24-.13-.02-.07.04-.15.07-.23.07.03.17.04.2.09.03.05-.01.14-.03.27Z"/><path class="cls-6" d="M9.31,233.51c.11.04.21.05.23.09.02.06-.01.15-.02.22-.07-.02-.16-.02-.21-.07-.03-.03,0-.13,0-.24Z"/><path class="cls-6" d="M11.05,233.06c.11.04.19.05.22.1.02.03-.01.15-.04.16-.06.02-.15,0-.19-.04-.03-.02,0-.11,0-.22Z"/><path class="cls-6" d="M34.53,231.53c-.19.79-1.01,1.01-1.47.81-.55-.23-.85-.83-.66-1.38.2-.58.83-.88,1.41-.68.09.03.18.08.28.11.79.29.82.37.44,1.14Z"/><path class="cls-6" d="M22.39,219.13c.5.22.73.79.52,1.3-.22.53-.81.77-1.33.53-.49-.23-.71-.82-.49-1.32.22-.49.81-.73,1.3-.51Z"/><path class="cls-6" d="M22.03,231.08c.42.19.54.57.34,1.05-.19.46-.71.68-1.15.48-.43-.19-.61-.7-.41-1.13.21-.46.72-.62,1.23-.4Z"/><path class="cls-6" d="M23.39,237.11c-.43-.2-.6-.68-.4-1.09.2-.41.69-.58,1.11-.38.45.21.65.71.45,1.12-.2.41-.7.56-1.16.35Z"/><path class="cls-6" d="M29.61,226.74c.42.18.61.68.44,1.09-.18.42-.67.61-1.09.42-.43-.19-.61-.66-.43-1.09.18-.43.66-.61,1.08-.43Z"/><path class="cls-6" d="M33.83,239.26c.39.19.55.68.34,1.07-.19.37-.65.53-1.03.35-.41-.18-.57-.65-.38-1.05.19-.4.66-.56,1.06-.37Z"/><path class="cls-6" d="M17.2,220.8c.19-.38.63-.54,1.02-.36.41.19.57.65.37,1.05-.19.38-.64.54-1.02.36-.41-.19-.57-.65-.37-1.06Z"/><path class="cls-6" d="M29.04,239.37c-.37-.18-.52-.59-.34-.92.18-.35.64-.5.99-.33.36.17.5.57.32.93-.18.37-.59.51-.97.33Z"/><path class="cls-6" d="M25.56,216.89c.1.05.22.09.31.15.3.19.39.46.2.77-.18.31-.47.35-.77.18-.16-.09-.29-.22-.44-.31-.29-.17-.41-.4-.25-.7.16-.31.43-.32.72-.17.07.04.15.07.22.11,0,0,0,0,0-.01Z"/><path class="cls-6" d="M16.92,233.82c-.36-.16-.53-.57-.38-.91.15-.34.62-.51.98-.35.33.15.5.6.34.93-.16.34-.58.49-.93.33Z"/><path class="cls-6" d="M37.67,220.65c.17-.4.53-.58.88-.45.33.13.5.54.36.88-.14.34-.83.61-1.16.45-.26-.12-.28-.38-.07-.89Z"/><path class="cls-6" d="M39.01,225.96c-.35-.17-.49-.6-.29-.94.2-.36.52-.46.9-.31.36.15.5.57.33.93-.17.36-.58.5-.93.32Z"/><path class="cls-6" d="M33.44,216.18c.33.17.46.62.29.96-.18.35-.56.47-.89.29-.34-.18-.48-.61-.3-.95.17-.32.6-.46.91-.3Z"/><path class="cls-6" d="M25.5,222.17c.15-.33.56-.49.89-.34.34.15.49.59.32.93-.17.33-.57.47-.9.31-.32-.16-.46-.57-.31-.9Z"/><path class="cls-6" d="M33.7,225.68c-.17.27-.44.39-.78.24-.32-.14-.47-.55-.3-.84.18-.32.47-.42.81-.28.31.13.45.54.28.89Z"/><path class="cls-6" d="M18.46,225.65c-.26.05-.54.19-.78.14-.35-.09-.42-.42-.28-.74.14-.32.46-.47.74-.29.2.12.28.44.42.67l-.1.22Z"/><path class="cls-6" d="M26.44,231.5c.39-.11.63-.24.84-.22.09.01.22.4.17.56-.09.29-.37.39-.65.2-.12-.08-.18-.26-.36-.55Z"/><path class="cls-6" d="M20.07,230.23c-.05-.34-.17-.58-.09-.7.08-.13.33-.15.51-.23.06.18.22.39.17.53-.05.14-.3.21-.59.39Z"/><path class="cls-6" d="M22.16,224.65c.05.32.16.53.09.65-.07.12-.31.15-.47.22-.07-.18-.21-.37-.18-.53.02-.11.28-.18.56-.34Z"/><path class="cls-6" d="M24.24,214.19c.05.34.16.56.09.67-.08.12-.34.19-.49.16-.09-.02-.2-.32-.15-.44.05-.13.27-.2.55-.39Z"/><path class="cls-6" d="M27.9,221.39c.32-.04.54-.14.65-.07.12.08.13.31.19.48-.17.06-.36.19-.5.15-.12-.04-.18-.28-.34-.56Z"/><path class="cls-6" d="M31.14,222.09c.29-.06.48-.16.59-.1.11.06.21.32.16.42-.05.11-.3.2-.42.17-.11-.03-.17-.25-.33-.49Z"/><path class="cls-6" d="M16.58,228.54c.29-.05.48-.14.59-.08.1.05.21.32.16.39-.08.12-.3.23-.43.2-.11-.02-.17-.25-.32-.51Z"/><path class="cls-6" d="M16.59,225.79c-.29.05-.5.14-.6.08-.11-.07-.13-.29-.19-.44.15-.05.33-.18.46-.14.12.04.18.25.33.51Z"/><path class="cls-6" d="M37.02,230.9c.23-.04.43-.13.5-.07.1.09.12.29.17.44-.16.04-.33.14-.46.11-.09-.03-.12-.25-.21-.47Z"/><path class="cls-6" d="M35.65,238.09c-.03-.25-.11-.46-.04-.53.09-.1.29-.1.45-.14.03.15.12.32.07.43-.05.1-.25.14-.48.24Z"/><path class="cls-6" d="M22.22,226.75c.05.23.15.4.09.47-.07.11-.25.14-.39.2-.04-.14-.14-.29-.11-.42.02-.09.21-.14.41-.26Z"/><path class="cls-6" d="M24.87,229.14c.05.22.12.37.08.48-.02.07-.27.15-.31.11-.09-.08-.16-.24-.14-.36,0-.07.19-.12.37-.23Z"/><path class="cls-6" d="M42.87,210.43c.42.2.45.69.28.93-.2.29-.58.38-.86.21-.3-.18-.4-.57-.22-.88.03-.05.07-.09.1-.14.26-.41.31-.42.7-.11Z"/><path class="cls-6" d="M34.38,215.8c.18-.26.54-.31.8-.13.28.19.34.55.14.82-.19.25-.55.3-.8.12-.25-.18-.31-.55-.13-.8Z"/><path class="cls-6" d="M41.09,217.45c.16-.21.39-.24.63-.06.24.17.3.48.13.71-.16.22-.47.26-.69.1-.23-.17-.27-.48-.07-.74Z"/><path class="cls-6" d="M44.67,217.41c-.17.22-.46.26-.67.09-.21-.16-.24-.46-.08-.67.18-.23.48-.28.69-.12.21.16.23.47.06.7Z"/><path class="cls-6" d="M39.56,212.64c.15-.21.46-.26.67-.11.22.15.26.45.11.67-.16.22-.45.27-.67.11-.22-.16-.27-.45-.11-.67Z"/><path class="cls-6" d="M47.15,211.77c.15-.2.45-.23.65-.06.19.15.22.43.08.63-.15.21-.44.24-.64.08-.2-.16-.24-.44-.08-.65Z"/><path class="cls-6" d="M34.69,218.94c-.19-.15-.23-.42-.08-.62.16-.21.44-.24.64-.08.19.15.23.43.08.62-.16.21-.44.24-.64.08Z"/><path class="cls-6" d="M46.63,214.49c-.14.18-.4.22-.56.08-.17-.14-.21-.43-.07-.6.14-.18.38-.21.57-.07.19.15.22.4.07.59Z"/><path class="cls-6" d="M33.5,213.74c.04-.05.08-.11.12-.16.14-.15.31-.16.46-.02.15.14.14.31,0,.46-.07.08-.16.14-.23.21-.13.14-.27.19-.43.06-.16-.13-.13-.28-.01-.43.03-.04.06-.08.09-.11h0Z"/><path class="cls-6" d="M42.03,220.68c-.13.18-.39.23-.56.11-.18-.13-.21-.41-.08-.6.13-.17.4-.21.57-.08.17.13.21.39.07.57Z"/><path class="cls-6" d="M37.09,207.34c-.21-.14-.26-.37-.15-.55.11-.17.37-.21.54-.09.18.12.24.55.12.71-.1.13-.25.11-.51-.07Z"/><path class="cls-6" d="M40.26,207.23c-.14.17-.4.2-.57.05-.18-.16-.2-.35-.06-.54.13-.19.38-.22.56-.07.18.14.21.39.07.57Z"/><path class="cls-6" d="M34.05,209.19c.14-.17.41-.19.58-.05.17.14.2.37.06.54-.14.17-.4.2-.57.06-.16-.13-.19-.39-.06-.55Z"/><path class="cls-6" d="M36.47,214.41c-.17-.13-.21-.38-.09-.54.13-.18.39-.21.57-.07.17.13.2.38.07.55-.13.16-.38.19-.55.07Z"/><path class="cls-6" d="M39.45,210.19c.13.13.17.3.04.47-.12.16-.37.2-.51.07-.16-.14-.18-.32-.06-.49.11-.16.36-.19.54-.05Z"/><path class="cls-6" d="M37.59,218.81c0,.15.04.33-.02.46-.09.19-.29.18-.45.07-.17-.12-.21-.32-.07-.45.09-.1.28-.11.43-.15l.11.08Z"/><path class="cls-6" d="M41.86,215.01c-.02-.24-.06-.38-.02-.5.02-.05.25-.08.34-.03.15.09.17.26.04.39-.06.06-.17.07-.36.14Z"/><path class="cls-6" d="M40.37,218.46c-.2-.01-.35.02-.41-.03-.06-.06-.05-.21-.07-.32.11-.01.25-.08.32-.03.07.04.08.19.15.38Z"/><path class="cls-6" d="M37.47,216.6c.19,0,.32-.02.38.03.06.05.05.19.07.29-.11.02-.24.07-.32.04-.06-.03-.07-.18-.13-.36Z"/><path class="cls-6" d="M31.81,214.15c.2.01.34-.02.39.03.06.06.07.21.03.29-.02.05-.21.07-.27.03-.07-.05-.08-.18-.15-.36Z"/><path class="cls-6" d="M36.33,212.96c.02-.19-.01-.32.04-.38.06-.06.19-.04.29-.05.01.1.07.23.03.3-.04.06-.18.07-.36.13Z"/><path class="cls-6" d="M37.12,211.21c0-.17-.03-.29.02-.34.05-.05.2-.08.26-.04.05.04.08.19.04.26-.03.06-.16.07-.32.13Z"/><path class="cls-6" d="M38.99,220.22c0-.17-.02-.29.02-.35.04-.05.21-.08.24-.04.06.06.09.2.06.27-.03.06-.16.07-.33.12Z"/><path class="cls-6" d="M37.44,219.89c0,.17.02.3-.03.35-.05.06-.18.04-.27.06-.01-.09-.06-.21-.03-.28.03-.06.16-.07.33-.13Z"/><path class="cls-6" d="M42.81,208.95c0-.14-.02-.26.02-.29.06-.05.18-.03.27-.04,0,.09.04.2,0,.27-.02.05-.16.04-.29.06Z"/><path class="cls-6" d="M46.71,210.6c-.14-.02-.27,0-.31-.04-.05-.06-.02-.18-.02-.27.09,0,.2-.03.25.01.05.04.05.16.08.3Z"/><path class="cls-6" d="M38.67,216.82c.13,0,.24-.03.28,0,.05.05.05.16.07.24-.09,0-.18.04-.25.01-.05-.02-.05-.13-.1-.26Z"/><path class="cls-6" d="M40.34,215.61c.13,0,.22-.02.28.01.04.02.05.17.02.19-.06.04-.16.06-.22.04-.04-.01-.05-.12-.08-.24Z"/></g></g></svg>