<?xml version="1.0" encoding="UTF-8"?><svg xmlns="http://www.w3.org/2000/svg" xmlns:xlink="http://www.w3.org/1999/xlink" viewBox="0 0 300 300"><defs><style>.cls-1{fill:#f4af13;}.cls-2{opacity:.5;stroke:#9bc8ec;stroke-miterlimit:10;}.cls-2,.cls-3{mix-blend-mode:multiply;}.cls-2,.cls-4{fill:none;stroke-width:1.22px;}.cls-5{isolation:isolate;}.cls-3{fill:#a384bb;opacity:.25;}.cls-6{fill:#6498d1;}.cls-7{filter:url(#drop-shadow-3);}.cls-4{stroke:#42496f;stroke-linecap:round;stroke-linejoin:round;}.cls-8{fill:#42496f;}</style><filter id="drop-shadow-3" x="72.87" y="46.65" width="105.45" height="135.03" filterUnits="userSpaceOnUse"><feOffset dx="-1.22" dy="0"/><feGaussianBlur result="blur" stdDeviation="0"/><feFlood flood-color="#42496f" flood-opacity="1"/><feComposite in2="blur" operator="in"/><feComposite in="SourceGraphic"/></filter></defs><g class="cls-5"><g id="bateau_01"><g class="cls-7"><path class="cls-1" d="M135.32,181.68s-5.92-81.72-16.39-133.88c-.14-.68-.73-1.16-1.42-1.16h0c-.87,0-1.55.76-1.44,1.62,1.59,12.54,12.02,94.47,12.02,133.41h7.22Z"/><path class="cls-8" d="M132.87,152.8l-5.9.72c.2,2.99.38,5.9.53,8.74,1.96-.67,4.13-1.47,6.03-2.34-.2-2.24-.42-4.62-.65-7.12Z"/><path class="cls-6" d="M173.43,155.64c-28.88,0-57.76,0-86.63,0,.68-27.05-2.12-52.24-8.43-78.54,28.88,0,57.76,0,86.63,0,6.31,26.3,9.11,51.5,8.43,78.54Z"/><path class="cls-4" d="M120.21,136.09c-3.04-10.86-8.6-25-5.4-34.77,2.46-7.54,12.59-7.05,17.2-.85,0,0,.41-3.7,2.13-3.98,1.72-.28,5.26,5.62,3.79,7.12-1.47,1.5-7.12,1.42-13.39-.57-6.28-1.99-.52,14.93.07,16.68,1.67,4.92,1.27-3.59,5.43-3.9,4.16-.31,9.11.05,9.07,1.05-.04,1-9.07,1.5-8.5,8.27.56,6.77,4.11,10.97,4.11,10.97"/><path class="cls-4" d="M121.31,95.52s-3.57-1.24-7.01-1.29c-.75-.01-.97.89-.34,1.42.87.73,1.3,1.09,2.16,1.83,0,0-5.77,2.35-7.65,6.16-.25.51.19,1.19.8,1.26,1.61.2,2.42.31,4.03.51,0,0-1.88,4.36-1.66,8.22.03.49.45.9.93.9h1.49"/><path class="cls-4" d="M123.17,99.01s-.01.09,0,.14c.08.47.53.85.99.85.43,0,.71-.32.7-.73-.67-.1-1.01-.15-1.69-.26Z"/><path class="cls-4" d="M121.23,98.71c1.75.26,2.62.4,4.37.66"/><path class="cls-4" d="M133.03,115.7c-.31-2.79.65-5.76,4.06-5.76,6.99,0,4.62,11.59,7.55,11.53,2.93-.06.94-3.18,2.64-3.18s1.86,5.77-3.02,5.77c-4.87,0-3.28-9.12-5.49-9.53-1.53-.29-1.72,1.42-1.72,1.42"/><path class="cls-4" d="M139.38,107.06s8.18,1.53,9.06-1.38c.89-2.91-1.23-6.18-1.23-6.18-.23,1.06-.35,1.59-.6,2.65-1.1-.93-1.65-1.39-2.76-2.32,0,0,1.47,3.59.54,4.56-.93.96-5.02,2.67-5.02,2.67Z"/><path class="cls-4" d="M134.72,99.99c.26.54.39.82.65,1.36"/><path class="cls-2" d="M95.69,77.1c6.31,26.3,9.11,51.5,8.43,78.54"/><path class="cls-2" d="M113.02,77.1c6.31,26.3,9.12,51.5,8.43,78.54"/><path class="cls-2" d="M130.34,77.1c6.31,26.3,9.12,51.5,8.43,78.54"/><path class="cls-2" d="M147.67,77.1c6.31,26.3,9.11,51.5,8.43,78.54"/><path class="cls-3" d="M173.43,155.64c-28.88,0-57.76,0-86.63,0,.57-9.88.46-20.06-.3-29.93,22.93,19.09,58.13,24.03,87.12,25.53-.06,1.76-.09,2.64-.18,4.4Z"/><rect class="cls-1" x="83.07" y="154.17" width="95.25" height="2.96" rx="1.48" ry="1.48"/><rect class="cls-1" x="74.09" y="75.62" width="95.25" height="2.96" rx="1.48" ry="1.48"/></g></g></g></svg>