<?xml version="1.0" encoding="UTF-8"?>
<svg xmlns="http://www.w3.org/2000/svg" width="300" height="300" xmlns:xlink="http://www.w3.org/1999/xlink" viewBox="0 0 300 300">
  <defs>
    <filter id="b" data-name="drop-shadow-2" x="96.611" y="45.195" width="57.788" height="137.472" filterUnits="userSpaceOnUse">
      <feOffset dx="-1.219" dy="0"/>
      <feGaussianBlur result="c" stdDeviation="0"/>
      <feFlood flood-color="#42496f" flood-opacity="1"/>
      <feComposite in2="c" operator="in"/>
      <feComposite in="SourceGraphic"/>
    </filter>
    <clipPath id="d">
      <path d="M100.328,178.875l1.307-38.072c.096-2.808,2.401-5.034,5.21-5.034h24.009v-5.204c0-1.928,1.563-3.492,3.492-3.492h4.253c1.799,0,3.303,1.366,3.475,3.156l4.691,48.645h-46.436Z" fill="none"/>
    </clipPath>
  </defs>
  <g isolation="isolate">
    <g id="a" data-name="bateau 03">
      <g filter="url(#b)">
        <g>
          <path d="M124.517,45.195h-5.951c-1.58,0-2.776,1.331-2.613,2.908l4.336,42.06h3.533l-5.065-37.813c-.071-.532.328-.991.862-.991h5.163l-.264-6.163Z" fill="#b1ddea"/>
          <path d="M119.299,80.564l.379,3.677,3.331-.142-.53-3.96c-1.097.178-2.178.317-3.18.424Z" fill="#42496f"/>
          <ellipse cx="124.649" cy="48.277" rx="1.012" ry="3.085" transform="translate(-2.175 6.044) rotate(-2.754)" fill="#b1ddea"/>
          <ellipse cx="124.649" cy="48.277" rx=".853" ry="2.601" transform="translate(-2.175 6.044) rotate(-2.754)" fill="#fff"/>
          <path d="M124.553,46.041c-.287,0-.498.67-.538,1.585.119.915.388,1.585.674,1.585s.498-.67.538-1.585c-.119-.915-.388-1.585-.674-1.585Z" fill="#9bc8ec" opacity=".25"/>
          <path d="M141.632,182.667l-16.363-99.77c-.114-.695-.726-1.218-1.427-1.218h-4.628c-.797,0-1.401.671-1.319,1.467l10.135,98.814,13.601.708Z" fill="#b1ddea"/>
          <path d="M124.854,150.992l11.882,1.824-4.618-28.157c-1.805.129-3.174,1.623-3.095,3.467l.223,5.204h-6.204l1.812,17.663Z" fill="#42496f"/>
          <g>
            <g mix-blend-mode="multiply" opacity=".5">
              <line x1="130.596" y1="159.544" x2="123.842" y2="81.679" fill="none" stroke="#a384bb" stroke-linecap="round" stroke-linejoin="round" stroke-width=".61"/>
            </g>
            <g mix-blend-mode="multiply" opacity=".25">
              <line x1="127.04" y1="156.198" x2="121.148" y2="82.191" fill="none" stroke="#a384bb" stroke-dasharray=".012 3.657" stroke-linecap="round" stroke-linejoin="round" stroke-width="1.219"/>
            </g>
          </g>
        </g>
        <g>
          <path d="M100.328,178.875l1.307-38.072c.096-2.808,2.401-5.034,5.21-5.034h24.009v-5.204c0-1.928,1.563-3.492,3.492-3.492h4.253c1.799,0,3.303,1.366,3.475,3.156l4.691,48.645h-46.436Z" fill="#b1ddea"/>
          <g clip-path="url(#d)">
            <polygon points="97.83 177.765 97.83 174.995 148.417 172.955 148.417 179.8 97.83 177.765" fill="#42496f"/>
            <g mix-blend-mode="multiply" opacity=".5">
              <line x1="127.061" y1="154.268" x2="154.094" y2="154.268" fill="none" stroke="#a384bb" stroke-linecap="round" stroke-linejoin="round" stroke-width=".61"/>
              <line x1="127.061" y1="133.919" x2="127.061" y2="177.395" fill="none" stroke="#a384bb" stroke-linecap="round" stroke-linejoin="round" stroke-width=".61"/>
            </g>
            <g mix-blend-mode="multiply" opacity=".25">
              <line x1="124.286" y1="177.395" x2="124.286" y2="131.699" fill="none" stroke="#a384bb" stroke-dasharray=".012 3.657" stroke-linecap="round" stroke-linejoin="round" stroke-width="1.219"/>
              <line x1="130.021" y1="151.68" x2="130.021" y2="133.919" fill="none" stroke="#a384bb" stroke-dasharray=".012 3.657" stroke-linecap="round" stroke-linejoin="round" stroke-width="1.219"/>
              <line x1="130.021" y1="157.6" x2="130.021" y2="177.395" fill="none" stroke="#a384bb" stroke-dasharray=".012 3.657" stroke-linecap="round" stroke-linejoin="round" stroke-width="1.219"/>
            </g>
          </g>
          <g>
            <line x1="141.492" y1="134.659" x2="145.18" y2="134.659" fill="none" stroke="#6498d1" stroke-linecap="round" stroke-linejoin="round" stroke-width="1.219"/>
            <line x1="142.031" y1="139.654" x2="145.719" y2="139.654" fill="none" stroke="#6498d1" stroke-linecap="round" stroke-linejoin="round" stroke-width="1.219"/>
            <line x1="142.571" y1="144.649" x2="146.259" y2="144.649" fill="none" stroke="#6498d1" stroke-linecap="round" stroke-linejoin="round" stroke-width="1.219"/>
            <line x1="143.11" y1="149.645" x2="146.799" y2="149.645" fill="none" stroke="#6498d1" stroke-linecap="round" stroke-linejoin="round" stroke-width="1.219"/>
            <line x1="143.65" y1="154.64" x2="147.338" y2="154.64" fill="none" stroke="#6498d1" stroke-linecap="round" stroke-linejoin="round" stroke-width="1.219"/>
            <line x1="144.19" y1="159.635" x2="147.878" y2="159.635" fill="none" stroke="#6498d1" stroke-linecap="round" stroke-linejoin="round" stroke-width="1.219"/>
            <line x1="144.729" y1="164.63" x2="148.417" y2="164.63" fill="none" stroke="#6498d1" stroke-linecap="round" stroke-linejoin="round" stroke-width="1.219"/>
          </g>
          <g>
            <circle cx="116.032" cy="154.268" r="6.637" fill="#6498d1"/>
            <circle cx="116.032" cy="154.268" r="5.276" fill="#fff"/>
            <path d="M116.032,149.47c-2.03,0-3.756,1.265-4.457,3.046.701,1.781,2.427,3.046,4.457,3.046s3.756-1.265,4.457-3.046c-.701-1.781-2.427-3.046-4.457-3.046Z" fill="#9bc8ec" opacity=".25"/>
          </g>
          <path d="M144.361,177.564s-2.934-26.685-8.637-29.933c-5.702-3.247-30.269,15.28-35.396,31.244l44.033-1.312Z" fill="#a384bb" mix-blend-mode="multiply" opacity=".25"/>
        </g>
      </g>
    </g>
  </g>
</svg>