<?xml version="1.0" encoding="UTF-8"?><svg xmlns="http://www.w3.org/2000/svg" xmlns:xlink="http://www.w3.org/1999/xlink" viewBox="0 0 300 300"><defs><style>.cls-1{stroke:#42496f;}.cls-1,.cls-2,.cls-3{fill:none;}.cls-1,.cls-3{stroke-linecap:round;stroke-linejoin:round;stroke-width:.61px;}.cls-4{fill:#ffd66e;}.cls-5{fill:#fff;}.cls-6{fill:#e86170;}.cls-7{filter:url(#drop-shadow-1);}.cls-8{isolation:isolate;}.cls-9{opacity:.25;}.cls-9,.cls-10,.cls-11{mix-blend-mode:multiply;}.cls-9,.cls-12{fill:#a384bb;}.cls-10{opacity:.75;}.cls-3{stroke:#ffd66e;}.cls-13{fill:#42496f;}.cls-14{clip-path:url(#clippath);}.cls-11{opacity:.5;}</style><filter id="drop-shadow-1" x="160.09" y="125.76" width="77.5" height="73.81" filterUnits="userSpaceOnUse"><feOffset dx="-1.22" dy="0"/><feGaussianBlur result="blur" stdDeviation="0"/><feFlood flood-color="#42496f" flood-opacity="1"/><feComposite in2="blur" operator="in"/><feComposite in="SourceGraphic"/></filter><clipPath id="clippath"><path class="cls-2" d="M236.13,142s-.59-11.56-4.25-11.56-2.12,5.9-2.12,5.9l-11.09-1.18c-.24-1.77,3.07-.24,1.77-4.01-1.3-3.78-15.02-2.97-18.29,4.48-2.95,6.72-3.54,33.27-12.98,33.74-9.44.47-8.02-17.58-16.28-16.99s-12.51,19.47-8.26,28.55c4.25,9.08,7.2,17.81,2.6,18.64,13.8-2.6,0-26.78,5.9-28.55,5.9-1.77-1.77,25.36,19.35,25.01,21.12-.35,15.09-40.35,22.41-40.35,4.94,0,1.43,5.08,7.61,5.08,4.6,0,3.95-4.13,3.95-4.13h7.79s1.21.05,1.21-1.63h-8.65c-1.13,0-2.04.91-2.04,2.04h0c0,1.13-.91,2.04-2.04,2.04h-.42c-1.13,0-2.04-.91-2.04-2.04v-14.25c0-1.82,1.48-3.3,3.3-3.3h5.82c3.67,0,6.76,2.51,6.76,2.51Z"/></clipPath></defs><g class="cls-8"><g id="bateau_09"><g class="cls-7"><path class="cls-6" d="M206.55,171.3c-.07.93.02,1.87.26,2.78.18.68.46,1.37.97,1.85s1.3.73,1.95.45c.78-.34,1.08-1.27,1.3-2.1.47-1.77.94-3.54,1.4-5.3.12-.46.33-1,.79-1.08.22-.04.45.04.66-.04.34-.12.42-.61.23-.92s-.55-.46-.9-.54c-.6-.15-1.3-.13-1.77.29-.47.41-.57,1.09-.64,1.7-.09.77-.18,1.53-.27,2.3-.12,1.02-.25,2.06-.66,3-.09.2-.24.42-.45.39-.09-.01-.17-.08-.24-.14-.35-.36-.45-.88-.51-1.37s-.1-1.01-.36-1.43c-.26-.42-.82-.71-1.26-.48-.45.23-.53.83-.55,1.33"/><path class="cls-5" d="M222.25,138.44s-.16,3.77.94,3.67c1.1-.1,1.57-2.1,1.57-2.1,0,0,.42,3.14,1.89,3.25s1.15-3.25,1.15-3.25c0,0,1.46,4.66,2.72,4.72,1.21.05.94-6.29.94-6.29h-9.22Z"/><path class="cls-5" d="M233.56,155.42s-1.47-6.08-2.83-6.08-.94,4.93-.94,4.93c0,0-.58-1.78-1.57-1.89s-1.15,1.89-1.15,1.89c0,0-.52-1.1-1.26-1.05s-.63,2.93-.63,2.93l8.38-.73Z"/><path class="cls-6" d="M220.58,166.54c-.35-1.22-1.71-2.06-2.95-1.82-.55.11-1.05.39-1.53.69-.46.29-.91.59-1.35.9.28-.48.56-.96.84-1.44.35-.61.84-1.3,1.54-1.29.73,0,1.44.78,2.07.42.3-.17.42-.56.36-.9-.07-.34-.29-.62-.56-.84-.98-.81-2.57-.73-3.46.18-.39.4-.64.92-.87,1.44-.32.73-.59,1.49-.85,2.25-.16-.55-.29-1.1-.37-1.66-.04-.32-.05-.7.21-.89.3-.22.76-.02,1.08-.22.35-.22.26-.81-.08-1.06-.34-.24-.79-.23-1.21-.18-.41.05-.85.14-1.13.44-.45.48-.33,1.24-.18,1.88.23.98.46,1.95.69,2.93-.17.81-.29,1.64-.11,2.44.21.94.93,1.83,1.89,1.93.47.05.94-.11,1.36-.33.57-.3,1.12-.84,1.05-1.49-.04-.39-.33-.74-.7-.86s-.81,0-1.07.31c-.16.18-.24.42-.4.6-.16.18-.44.31-.64.18-.09-.06-.14-.15-.19-.24-.33-.63-.34-1.42-.02-2.07,0,0,0,0,0-.01.76-.36,1.52-.72,2.28-1.08.64-.3,1.43-.59,2-.19.6.42.75,1.46,1.47,1.52.34.03.67-.22.8-.54.14-.31.11-.68.02-1.01Z"/><g class="cls-10"><path class="cls-12" d="M220.58,166.54c-.35-1.22-1.71-2.06-2.95-1.82-.55.11-1.05.39-1.53.69-.46.29-.91.59-1.35.9.28-.48.56-.96.84-1.44.35-.61.84-1.3,1.54-1.29.73,0,1.44.78,2.07.42.3-.17.42-.56.36-.9-.07-.34-.29-.62-.56-.84-.98-.81-2.57-.73-3.46.18-.39.4-.64.92-.87,1.44-.32.73-.59,1.49-.85,2.25-.16-.55-.29-1.1-.37-1.66-.04-.32-.05-.7.21-.89.3-.22.76-.02,1.08-.22.35-.22.26-.81-.08-1.06-.34-.24-.79-.23-1.21-.18-.41.05-.85.14-1.13.44-.45.48-.33,1.24-.18,1.88.15.63.29,1.26.44,1.89-.42,0-.84.08-1.15.36-.46.41-.57,1.09-.64,1.7-.09.77-.18,1.53-.27,2.3-.12,1.02-.25,2.06-.66,3-.09.2-.24.42-.45.39-.09-.01-.17-.08-.24-.14-.35-.36-.45-.88-.51-1.37-.06-.49-.1-1.01-.36-1.43-.26-.42-.82-.71-1.26-.48-.3.15-.43.47-.49.81-.05.88.03,1.77.26,2.63.18.68.46,1.37.97,1.85.51.49,1.3.73,1.95.45.78-.34,1.08-1.27,1.3-2.1.47-1.77.94-3.54,1.4-5.3.06-.22.14-.45.25-.64-.06.49-.06.99.04,1.47.21.94.93,1.83,1.89,1.93.47.05.94-.11,1.36-.33.57-.3,1.12-.84,1.05-1.49-.04-.39-.33-.74-.7-.86-.37-.12-.81,0-1.07.31-.16.18-.24.42-.4.6-.16.18-.44.31-.64.18-.09-.06-.14-.15-.19-.24-.33-.63-.34-1.42-.02-2.07,0,0,0,0,0-.01.76-.36,1.52-.72,2.28-1.08.64-.3,1.43-.59,2-.19.6.42.75,1.46,1.47,1.52.34.03.67-.22.8-.54.14-.31.11-.68.02-1.01Z"/></g><path class="cls-4" d="M214.15,128.03c-5.53-1.94-11.88-.16-17.35-2.26,3.42,1.92,7.27,3.05,11.18,3.29-5.05.35-9.97,2.42-13.75,5.79-1.44,1.28-2.71,2.73-3.97,4.18,3.74-2.18,7.97-3.53,12.28-3.92-4.95,2.43-8.39,7.44-13.57,9.34,3.82-.59,7.85-1.27,10.8-3.77-3.74,4.75-8.11,8.99-12.98,12.58,1.71-.35,3.42-.71,5.14-1.06,2.24-.46,4.57-.97,6.37-2.38-2.17,2.71-4.55,5.25-7.13,7.58,2.71-.36,5.3-1.53,7.36-3.33-1.78,3.41-4.41,6.29-7,9.13,2.71-.33,5.37-1.63,6.95-3.85,1.72-2.41,1.99-5.52,2.45-8.45.5-3.2,1.3-6.35,2.2-9.46.37-1.28.77-2.57,1.44-3.72.92-1.56,2.34-2.82,4.01-3.53,2.63-1.12,5.75-.9,8.18-2.41l.25-1.7c-.58-1.04-1.72-1.65-2.85-2.04Z"/><path class="cls-3" d="M231.94,137.92h1.13c1.23,0,2.23,1,2.23,2.23v10.24c0,1.1.89,1.99,1.99,1.99h0"/><path class="cls-4" d="M184.09,162.01c-.11-.26-.33-.54-.6-.49-.12.02-.21.09-.3.17-.43.41-.68.97-.92,1.52-.23.54-.47,1.12-.41,1.71.07.7.55,1.29,1.02,1.82.66.74,1.34,1.47,2.04,2.18-.86-2.12.11-4.77-.84-6.9Z"/><path class="cls-4" d="M172.29,150.34c-.41-.28-.89-.5-1.38-.46-.49.03-.99.39-1.04.89-.02.21.03.41.09.61.14.53.29,1.05.43,1.58.06.23.13.46.3.63.26.26.67.27,1.04.25.82-.04,1.63-.13,2.44-.27l.31.03c-.26-1.32-1.06-2.52-2.18-3.26Z"/><path class="cls-4" d="M162.94,161.91c-.91.51-1.64,1.46-1.61,2.51,0,.12.02.25.09.35.14.22.43.25.69.26.77.03,1.53.06,2.3.09.19,0,.39.01.57-.05.53-.2.65-.93,1.12-1.25l-.12-2.62c-1.04.06-2.12.2-3.03.71Z"/><path class="cls-4" d="M163.93,174.18c-.14.88-1.04,1.38-1.63,2.04-.67.75-.98,1.81-.81,2.79.03.15.06.3.16.41.29.34.84.14,1.22-.09.54-.33,1.08-.68,1.46-1.18.37-.51.55-1.21.28-1.78l-.67-2.2Z"/><path class="cls-4" d="M168.76,188.61c.05-.15.03-.32,0-.48-.13-.73-.35-1.45-.67-2.12l-.6-.53c.17.53-.24,1.05-.6,1.46-.3.35-.6.71-.72,1.16-.12.44-.02.98.37,1.24.51.34,1.18.05,1.72-.24.21-.12.43-.25.51-.47Z"/><path class="cls-4" d="M170.28,195.25l-.11-.11c-.56.02-1.12.15-1.63.38-.31.14-.65.45-.53.76.06.15.2.24.34.32.34.21.7.42,1.1.45s.85-.19.94-.58c.1-.41-.21-.83-.12-1.23Z"/><path class="cls-6" d="M236.13,142s-.59-11.56-4.25-11.56-2.12,5.9-2.12,5.9l-11.09-1.18c-.24-1.77,3.07-.24,1.77-4.01-1.3-3.78-15.02-2.97-18.29,4.48-2.95,6.72-3.54,33.27-12.98,33.74-9.44.47-8.02-17.58-16.28-16.99s-12.51,19.47-8.26,28.55c4.25,9.08,7.2,17.81,2.6,18.64,13.8-2.6,0-26.78,5.9-28.55,5.9-1.77-1.77,25.36,19.35,25.01,21.12-.35,15.09-40.35,22.41-40.35,4.94,0,1.43,5.08,7.61,5.08,4.6,0,3.95-4.13,3.95-4.13h7.79s1.21.05,1.21-1.63h-8.65c-1.13,0-2.04.91-2.04,2.04h0c0,1.13-.91,2.04-2.04,2.04h-.42c-1.13,0-2.04-.91-2.04-2.04v-14.25c0-1.82,1.48-3.3,3.3-3.3h5.82c3.67,0,6.76,2.51,6.76,2.51Z"/><circle class="cls-13" cx="232.47" cy="134.97" r=".97"/><g class="cls-14"><path class="cls-9" d="M208.66,172.55s-3.85,24.31-19.01,25.07c-15.16.77-13.4-26.8-16.52-26.6-8.61.53,5.45,20.5-2.97,24.11.67-5.23-7.41-6.12-8.68-16.12-1.27-10,4.51-23.62,12.59-22.44,8.08,1.18,4.48,24.07,14.16,25.36s18.49-6.09,20.42-9.38Z"/></g><path class="cls-3" d="M230.47,137.92h-1.13c-1.23,0-2.23,1-2.23,2.23v10.24c0,1.1-.89,1.99-1.99,1.99h0"/><path class="cls-6" d="M195.4,169.36c.17,1.11.53,2.2,1.05,3.2.39.76.9,1.49,1.64,1.93s1.73.51,2.42,0c.83-.62.94-1.79.97-2.82.08-2.21.15-4.42.23-6.63.02-.57.12-1.27.64-1.49.25-.11.55-.08.77-.22.37-.24.33-.83.02-1.14s-.78-.39-1.21-.4c-.75-.01-1.57.2-2.01.81-.44.61-.38,1.43-.3,2.18.1.93.2,1.86.29,2.79.13,1.24.26,2.49.02,3.71-.05.25-.17.56-.43.58-.11,0-.22-.04-.32-.11-.5-.33-.76-.92-.96-1.48s-.39-1.16-.8-1.59-1.16-.62-1.62-.23c-.47.4-.4,1.12-.3,1.72"/><path class="cls-6" d="M210.66,159.97c-.73-1.35-2.56-1.97-3.97-1.35-.62.28-1.14.75-1.62,1.23-.46.46-.91.94-1.35,1.43.2-.64.4-1.28.6-1.92.25-.81.64-1.76,1.47-1.94.86-.19,1.91.53,2.55-.07.3-.28.35-.77.18-1.15-.17-.38-.51-.66-.88-.84-1.37-.69-3.23-.16-4.03,1.14-.36.58-.51,1.26-.64,1.93-.18.95-.3,1.91-.39,2.88-.33-.6-.64-1.22-.88-1.86-.14-.36-.24-.81.01-1.1.3-.34.89-.23,1.21-.55.36-.36.09-1.03-.38-1.23-.47-.2-1-.06-1.47.11-.47.17-.96.4-1.21.83-.4.68-.06,1.55.29,2.26.53,1.09,1.06,2.18,1.6,3.27.02,1,.1,2.01.52,2.9.5,1.05,1.59,1.91,2.75,1.76.57-.07,1.08-.38,1.52-.75.59-.51,1.09-1.3.84-2.03-.15-.45-.59-.79-1.06-.82s-.95.23-1.17.65c-.14.26-.18.56-.31.82-.14.26-.43.48-.71.38-.12-.04-.21-.13-.28-.23-.56-.66-.78-1.59-.58-2.43,0,0,0-.01,0-.02.8-.63,1.6-1.25,2.4-1.88.67-.53,1.52-1.08,2.31-.76.81.33,1.27,1.52,2.14,1.4.41-.06.73-.44.8-.85.08-.41-.05-.83-.25-1.19Z"/><g class="cls-11"><path class="cls-12" d="M195.44,169.68c0-.05,0-.1,0-.15-.01-.06-.03-.12-.04-.17l.04.32Z"/><path class="cls-12" d="M195.44,169.68c.01.16.04.33.06.48l-.06-.48Z"/><path class="cls-12" d="M210.66,159.97c-.73-1.35-2.56-1.97-3.97-1.35-.62.28-1.14.75-1.62,1.23-.46.46-.91.94-1.35,1.43.2-.64.4-1.28.6-1.92.25-.81.64-1.76,1.47-1.94.86-.19,1.91.53,2.55-.07.3-.28.35-.77.18-1.15-.17-.38-.51-.66-.88-.84-1.37-.69-3.23-.16-4.03,1.14-.36.58-.51,1.26-.64,1.93-.18.95-.3,1.91-.39,2.88-.33-.6-.64-1.22-.88-1.86-.14-.36-.24-.81.01-1.1.3-.34.89-.23,1.21-.55.36-.36.09-1.03-.38-1.23-.47-.2-1-.06-1.47.11-.47.17-.96.4-1.21.83-.4.68-.06,1.55.29,2.26.34.7.68,1.4,1.03,2.1-.5.1-.97.32-1.26.73-.44.61-.38,1.43-.3,2.18.1.93.2,1.86.29,2.79.13,1.24.26,2.49.02,3.71-.05.25-.17.56-.43.58-.11,0-.22-.04-.32-.11-.5-.33-.76-.92-.96-1.48-.2-.57-.39-1.16-.8-1.59-.42-.43-1.16-.62-1.62-.23-.31.26-.38.67-.36,1.09.18,1.05.51,2.08,1.01,3.03.39.76.9,1.49,1.64,1.93.73.44,1.73.51,2.42,0,.83-.62.94-1.79.97-2.82.08-2.21.15-4.42.23-6.63,0-.27.04-.56.12-.82.07.6.19,1.18.45,1.72.5,1.05,1.59,1.91,2.75,1.76.57-.07,1.08-.38,1.52-.75.59-.51,1.09-1.3.84-2.03-.15-.45-.59-.79-1.06-.82s-.95.23-1.17.65c-.14.26-.18.56-.31.82-.14.26-.43.48-.71.38-.12-.04-.21-.13-.28-.23-.56-.66-.78-1.59-.58-2.43,0,0,0-.01,0-.02.8-.63,1.6-1.25,2.4-1.88.67-.53,1.52-1.08,2.31-.76.81.33,1.27,1.52,2.14,1.4.41-.06.73-.44.8-.85.08-.41-.05-.83-.25-1.19Z"/></g><line class="cls-1" x1="211.25" y1="134.51" x2="217.39" y2="134.73"/><line class="cls-1" x1="215.83" y1="134.59" x2="215.83" y2="135.97"/></g></g></g></svg>