<?xml version="1.0" encoding="UTF-8"?>
<svg id="a" data-name="bateau 05" xmlns="http://www.w3.org/2000/svg" width="300" height="300" xmlns:xlink="http://www.w3.org/1999/xlink" viewBox="0 0 300 300">
  <defs>
    <filter id="b" data-name="drop-shadow-2" x="115.848" y="48.144" width="35.679" height="24.482" filterUnits="userSpaceOnUse">
      <feOffset dx="-1.219" dy="0"/>
      <feGaussianBlur result="c" stdDeviation="0"/>
      <feFlood flood-color="#42496f" flood-opacity="1"/>
      <feComposite in2="c" operator="in"/>
      <feComposite in="SourceGraphic"/>
    </filter>
  </defs>
  <path d="M118.761,75.217c1.192-.025,2.491-.095,3.802-.227l-.326-2.609-3.695.112.219,2.725Z" fill="#42496f"/>
  <g filter="url(#b)">
    <g>
      <path d="M151.527,72.064c-11.745-1.038-21.964.813-33.737.532-.776-9.526-1.165-14.304-1.942-23.89,11.745,1.038,21.964-.813,33.737-.532.777,9.525,1.165,14.304,1.942,23.891Z" fill="#fff"/>
      <path d="M125.617,56.997s4.605,4.078,8.416,3.319c-3.736.744-7.648,5.93-7.648,5.93-.307-3.697-.461-5.547-.769-9.249ZM142.963,54.399s-4.335,5.021-7.653,5.665c3.377-.656,8.422,3.623,8.422,3.623-.308-3.718-.462-5.576-.769-9.289ZM129.894,52.691s4.703,3.109,4.767,6.858c-.065-3.825,4.494-9.17,4.494-9.17-3.708.757-5.556,1.424-9.261,2.312ZM139.452,67.769s-4.712-3.61-4.769-6.939c.058,3.388-4.492,9.251-4.492,9.251,3.705-.887,5.553-1.555,9.261-2.312Z" fill="#e86170"/>
    </g>
  </g>
</svg>