<?xml version="1.0" encoding="UTF-8"?><svg id="bateau_05" xmlns="http://www.w3.org/2000/svg" xmlns:xlink="http://www.w3.org/1999/xlink" viewBox="0 0 300 300"><defs><style>.cls-1{filter:url(#drop-shadow-2);}.cls-2{fill:#fff;}.cls-3{fill:#e86170;}.cls-4{fill:#42496f;}</style><filter id="drop-shadow-2" x="115.85" y="48.14" width="35.68" height="24.48" filterUnits="userSpaceOnUse"><feOffset dx="-1.22" dy="0"/><feGaussianBlur result="blur" stdDeviation="0"/><feFlood flood-color="#42496f" flood-opacity="1"/><feComposite in2="blur" operator="in"/><feComposite in="SourceGraphic"/></filter></defs><path class="cls-4" d="M118.76,75.22c1.19-.02,2.49-.1,3.8-.23l-.33-2.61-3.7.11.22,2.72Z"/><g class="cls-1"><path class="cls-2" d="M151.53,72.06c-11.74-1.04-21.96.81-33.74.53-.78-9.53-1.16-14.3-1.94-23.89,11.74,1.04,21.96-.81,33.74-.53.78,9.53,1.17,14.3,1.94,23.89Z"/><path class="cls-3" d="M125.62,57s4.6,4.08,8.42,3.32c-3.74.74-7.65,5.93-7.65,5.93-.31-3.7-.46-5.55-.77-9.25ZM142.96,54.4s-4.33,5.02-7.65,5.67c3.38-.66,8.42,3.62,8.42,3.62-.31-3.72-.46-5.58-.77-9.29ZM129.89,52.69s4.7,3.11,4.77,6.86c-.07-3.82,4.49-9.17,4.49-9.17-3.71.76-5.56,1.42-9.26,2.31ZM139.45,67.77s-4.71-3.61-4.77-6.94c.06,3.39-4.49,9.25-4.49,9.25,3.7-.89,5.55-1.56,9.26-2.31Z"/></g></svg>