<?xml version="1.0" encoding="UTF-8"?>
<svg xmlns="http://www.w3.org/2000/svg" width="300" height="300" xmlns:xlink="http://www.w3.org/1999/xlink" viewBox="0 0 300 300">
  <defs>
    <clipPath id="b">
      <path d="M27.111,96.934v129.238c1.89.35,3.973.545,6.164.545,5.076,0,9.57-1.043,12.415-2.649.138-.006.275-.012.413-.018,1.532,1.617,3.964,2.668,6.71,2.668s5.18-1.051,6.712-2.67c1.956,1.618,5.059,2.67,8.566,2.67,2.89,0,5.507-.714,7.435-1.87,2.251,1.156,5.308,1.87,8.683,1.87,2.909,0,5.578-.533,7.704-1.418.523.885,1.18,1.418,1.895,1.418.705,0,1.352-.518,1.871-1.38,2.11.862,4.742,1.38,7.607,1.38,3.747,0,7.1-.881,9.394-2.269,1.964,1.388,4.835,2.269,8.044,2.269,2.976,0,5.668-.755,7.61-1.972,2.268,1.217,5.412,1.972,8.888,1.972.154,0,.299-.017.451-.021.308.008.613.021.926.021,5.076,0,9.57-1.043,12.415-2.649.138-.006.275-.012.413-.018,1.532,1.617,3.964,2.668,6.71,2.668s5.18-1.051,6.712-2.67c1.956,1.618,5.059,2.67,8.566,2.67,2.89,0,5.507-.714,7.435-1.87,2.251,1.156,5.308,1.87,8.683,1.87,2.909,0,5.578-.533,7.704-1.418.523.885,1.18,1.418,1.895,1.418.705,0,1.352-.518,1.871-1.38,2.11.862,4.742,1.38,7.607,1.38,3.747,0,7.1-.881,9.394-2.269,1.964,1.388,4.835,2.269,8.044,2.269,2.976,0,5.668-.755,7.61-1.972,2.268,1.217,5.412,1.972,8.888,1.972.622,0,1.226-.036,1.824-.083V96.934H27.111Z" fill="none"/>
    </clipPath>
    <filter id="c" data-name="drop-shadow-4" x="38.649" y="165.522" width="168.495" height="64.229" filterUnits="userSpaceOnUse">
      <feOffset dx="-1.219" dy="0"/>
      <feGaussianBlur result="d" stdDeviation="0"/>
      <feFlood flood-color="#42496f" flood-opacity="1"/>
      <feComposite in2="d" operator="in"/>
      <feComposite in="SourceGraphic"/>
    </filter>
    <clipPath id="e">
      <path d="M58.15,177.16h147.012s-6.977,52.56-52.56,52.56h-83.547l-10.906-52.56Z" fill="none"/>
    </clipPath>
    <clipPath id="f">
      <circle cx="77.172" cy="179.426" r="11.443" fill="none"/>
    </clipPath>
    <clipPath id="g">
      <circle cx="119.527" cy="179.426" r="11.443" fill="none"/>
    </clipPath>
    <clipPath id="h">
      <circle cx="161.882" cy="179.426" r="11.443" fill="none"/>
    </clipPath>
  </defs>
  <g isolation="isolate">
    <g id="a" data-name="bateau 01">
      <g>
        <g clip-path="url(#b)">
          <g>
            <path d="M183.739,229.719s12.46-16.648,7.995-18.232c-4.465-1.584-22.186,13.793-22.186,13.793l14.191,4.439Z" fill="#fff"/>
            <path d="M180.526,233.793s12.46-16.648,7.995-18.232c-4.465-1.584-22.186,13.793-22.186,13.793l14.191,4.439Z" fill="#9bc8ec"/>
            <g>
              <path d="M185.778,221.367c-.397-.254-.365-.744-.171-.964.231-.262.621-.313.888-.103.281.221.331.622.11.906-.035.046-.078.086-.115.131-.31.38-.358.382-.713.03Z" fill="#fff"/>
              <path d="M194.906,217.013c-.215.234-.575.251-.815.039-.253-.222-.27-.593-.04-.832.218-.226.587-.236.819-.023.231.212.248.585.036.816Z" fill="#fff"/>
              <path d="M188.386,214.558c-.182.195-.414.19-.642-.012-.219-.194-.241-.52-.048-.726.187-.201.5-.207.704-.015.214.202.208.515-.014.753Z" fill="#fff"/>
              <path d="M184.805,214.174c.191-.196.488-.203.677-.015.188.186.188.488,0,.681-.203.209-.515.226-.704.038-.19-.188-.178-.494.027-.705Z" fill="#fff"/>
              <path d="M189.352,219.555c-.18.195-.489.21-.684.034-.197-.178-.21-.485-.028-.681.185-.199.481-.213.681-.032.202.182.215.479.03.678Z" fill="#fff"/>
              <path d="M181.652,219.523c-.178.179-.477.174-.655-.012-.169-.177-.17-.456-.002-.634.178-.189.465-.193.652-.009.183.18.185.472.004.655Z" fill="#fff"/>
              <path d="M194.962,213.833c.176.177.179.447.005.629-.181.19-.467.192-.651.005-.174-.177-.177-.453-.006-.632.181-.188.465-.189.652-.002Z" fill="#fff"/>
              <path d="M182.496,216.863c.167-.168.423-.174.574-.015.156.165.155.45-.002.61-.162.164-.407.166-.574.003-.172-.168-.171-.424.002-.599Z" fill="#fff"/>
              <path d="M195.542,219.179c-.047.049-.089.103-.141.145-.161.129-.326.126-.461-.032-.136-.16-.102-.325.046-.461.077-.071.177-.117.257-.186.146-.127.296-.154.435-.008.141.149.094.299-.041.432-.034.034-.067.069-.101.104l.006.006Z" fill="#fff"/>
              <path d="M187.836,211.224c.154-.169.414-.187.573-.04.161.149.166.44.01.606-.146.156-.424.161-.577.011-.157-.154-.16-.41-.007-.577Z" fill="#fff"/>
              <path d="M191.186,225.148c.188.168.221.4.08.568-.132.157-.391.172-.552.03-.162-.142-.18-.574-.03-.728.118-.121.264-.083.502.13Z" fill="#fff"/>
              <path d="M188.007,224.887c.16-.158.422-.156.575.017.16.18.159.372,0,.552-.152.173-.407.171-.572.007-.164-.163-.165-.415-.003-.575Z" fill="#fff"/>
              <path d="M194.449,223.66c-.157.149-.428.139-.583-.022-.157-.164-.153-.394.009-.547.165-.155.426-.149.579.012.145.153.143.415-.005.556Z" fill="#fff"/>
              <path d="M192.643,218.15c.152.146.162.401.021.555-.148.161-.417.161-.575-.001-.149-.153-.15-.405-.001-.553.147-.147.403-.147.555-.001Z" fill="#fff"/>
              <path d="M189.163,222.012c-.117-.146-.131-.316.015-.478.134-.148.393-.154.523-.008.143.16.141.338.003.499-.128.15-.384.146-.542-.013Z" fill="#fff"/>
              <path d="M192.051,213.615c.02-.154-.004-.336.072-.455.113-.177.311-.15.459-.016.152.138.17.341.019.464-.107.087-.296.072-.448.103l-.101-.095Z" fill="#fff"/>
              <path d="M187.323,216.913c-.011.238.016.392-.04.506-.022.045-.261.045-.342-.014-.143-.105-.143-.28.01-.396.068-.052.178-.048.371-.095Z" fill="#fff"/>
              <path d="M189.225,213.638c.199.035.35.018.404.082.057.068.022.214.028.326-.112.002-.256.046-.327-.008-.068-.051-.059-.203-.104-.4Z" fill="#fff"/>
              <path d="M191.904,215.842c-.184-.031-.323-.014-.374-.074-.054-.062-.025-.197-.033-.299.11-.004.244-.047.324,0,.059.035.047.188.083.372Z" fill="#fff"/>
              <path d="M197.281,218.965c-.196-.034-.341-.019-.386-.078-.05-.066-.043-.222.004-.298.028-.045.216-.05.271-.003.064.055.06.187.11.379Z" fill="#fff"/>
              <path d="M192.619,219.622c-.038.187-.026.326-.086.373-.065.05-.197.013-.3.014,0-.104-.039-.236.01-.302.045-.06.187-.047.375-.084Z" fill="#fff"/>
              <path d="M191.622,221.274c-.023.169-.004.297-.057.342-.056.048-.214.054-.263.009-.049-.045-.056-.203-.014-.263.04-.056.169-.05.333-.088Z" fill="#fff"/>
              <path d="M190.814,212.036c-.027.169-.012.289-.065.342-.046.047-.217.054-.246.015-.049-.067-.069-.208-.029-.274.033-.055.17-.047.34-.083Z" fill="#fff"/>
              <path d="M192.326,212.556c.03-.171.016-.3.07-.344.06-.049.183-.02.279-.024.001.096.038.217-.007.279-.042.057-.171.05-.342.089Z" fill="#fff"/>
              <path d="M185.659,222.859c-.022.135-.008.263-.054.291-.068.041-.179.01-.272.01.006-.094-.018-.208.028-.273.03-.044.16-.019.299-.028Z" fill="#fff"/>
              <path d="M181.951,220.745c.143.033.272.028.301.079.038.068-.001.18-.008.274-.086-.012-.202.006-.25-.043-.048-.049-.027-.164-.044-.31Z" fill="#fff"/>
              <path d="M190.736,215.482c-.134-.014-.248.005-.279-.038-.045-.061-.029-.166-.038-.252.086.003.189-.021.252.018.045.028.038.141.065.272Z" fill="#fff"/>
              <path d="M188.918,216.493c-.13-.016-.224-.004-.279-.044-.034-.025-.031-.176-.002-.192.062-.034.164-.04.225-.01.038.018.031.127.055.247Z" fill="#fff"/>
            </g>
          </g>
          <g filter="url(#c)">
            <g>
              <g>
                <path d="M60.453,188.26l-1.105,17.233c-.108,1.691-.982,3.241-2.374,4.209l-1.966,1.368c-1.486,1.033-2.456,2.655-2.665,4.452l-1.651,14.197h18.364l-8.602-41.46Z" fill="#ffd66e"/>
                <path d="M60.453,188.26l-.579,9.037s1.776,17.316.326,32.423h8.856l-8.602-41.46Z" fill="#42496f"/>
              </g>
              <path d="M58.15,177.16h147.012s-6.977,52.56-52.56,52.56h-83.547l-10.906-52.56Z" fill="#ffd66e"/>
              <g mix-blend-mode="multiply" opacity=".5">
                <g clip-path="url(#e)">
                  <g>
                    <line x1="62.293" y1="183.26" x2="194.376" y2="183.26" fill="none" stroke="#a384bb" stroke-linecap="round" stroke-linejoin="round" stroke-width=".61"/>
                    <line x1="64.495" y1="189.361" x2="200.086" y2="189.361" fill="none" stroke="#a384bb" stroke-linecap="round" stroke-linejoin="round" stroke-width=".61"/>
                    <line x1="66.697" y1="195.462" x2="197.314" y2="195.462" fill="none" stroke="#a384bb" stroke-linecap="round" stroke-linejoin="round" stroke-width=".61"/>
                    <line x1="54.696" y1="201.563" x2="190.287" y2="201.563" fill="none" stroke="#a384bb" stroke-linecap="round" stroke-linejoin="round" stroke-width=".61"/>
                    <line x1="67.528" y1="207.664" x2="203.119" y2="207.664" fill="none" stroke="#a384bb" stroke-linecap="round" stroke-linejoin="round" stroke-width=".61"/>
                    <line x1="68.899" y1="213.765" x2="188.859" y2="213.765" fill="none" stroke="#a384bb" stroke-linecap="round" stroke-linejoin="round" stroke-width=".61"/>
                    <line x1="40.173" y1="219.866" x2="175.764" y2="219.866" fill="none" stroke="#a384bb" stroke-linecap="round" stroke-linejoin="round" stroke-width=".61"/>
                    <line x1="68.899" y1="225.966" x2="170.219" y2="225.966" fill="none" stroke="#a384bb" stroke-linecap="round" stroke-linejoin="round" stroke-width=".61"/>
                  </g>
                </g>
              </g>
              <path d="M154.557,229.719s32.103,2.519,44.319-37.823c0,0-92.994,10.133-135.609,11.743l5.789,26.08h85.501Z" fill="#a384bb" mix-blend-mode="multiply" opacity=".25"/>
              <rect x="58.15" y="175.703" width="145.177" height="3.409" fill="#f4af13"/>
              <path d="M152.405,229.719c52.757,0,54.739-64.198,54.739-64.198h-4.955s-2.359,60.166-49.784,64.198Z" fill="#f4af13"/>
              <polygon points="70.967 229.719 57.95 167.324 54.696 167.324 66.899 229.719 70.967 229.719" fill="#f4af13"/>
            </g>
            <g>
              <circle cx="77.172" cy="180.899" r="13.905" fill="#42496f"/>
              <circle cx="77.172" cy="179.426" r="13.905" fill="#6498d1"/>
              <circle cx="77.172" cy="179.426" r="11.443" fill="#ffd66e"/>
              <rect x="76.034" y="178.289" width="2.275" height="2.275" rx=".366" ry=".366" transform="translate(-104.267 107.113) rotate(-44.997)" fill="#b1ddea"/>
              <g mix-blend-mode="multiply" opacity=".5">
                <g clip-path="url(#f)">
                  <g>
                    <line x1="68.5" y1="170.448" x2="68.5" y2="186.01" fill="none" stroke="#a384bb" stroke-linecap="round" stroke-linejoin="round" stroke-width=".61"/>
                    <line x1="74.281" y1="167.638" x2="74.281" y2="191.494" fill="none" stroke="#a384bb" stroke-linecap="round" stroke-linejoin="round" stroke-width=".61"/>
                    <line x1="80.062" y1="191.494" x2="80.062" y2="169.831" fill="none" stroke="#a384bb" stroke-linecap="round" stroke-linejoin="round" stroke-width=".61"/>
                    <line x1="85.844" y1="170.722" x2="85.844" y2="185.461" fill="none" stroke="#a384bb" stroke-linecap="round" stroke-linejoin="round" stroke-width=".61"/>
                  </g>
                </g>
              </g>
            </g>
            <g>
              <circle cx="119.527" cy="180.899" r="13.905" fill="#42496f"/>
              <circle cx="119.527" cy="179.426" r="13.905" fill="#6498d1"/>
              <circle cx="119.527" cy="179.426" r="11.443" fill="#ffd66e"/>
              <rect x="118.39" y="178.289" width="2.275" height="2.275" rx=".366" ry=".366" transform="translate(-91.863 137.061) rotate(-44.997)" fill="#b1ddea"/>
              <g mix-blend-mode="multiply" opacity=".5">
                <g clip-path="url(#g)">
                  <g>
                    <line x1="110.855" y1="170.448" x2="110.855" y2="186.01" fill="none" stroke="#a384bb" stroke-linecap="round" stroke-linejoin="round" stroke-width=".61"/>
                    <line x1="116.636" y1="167.638" x2="116.636" y2="191.494" fill="none" stroke="#a384bb" stroke-linecap="round" stroke-linejoin="round" stroke-width=".61"/>
                    <line x1="122.418" y1="191.494" x2="122.418" y2="169.831" fill="none" stroke="#a384bb" stroke-linecap="round" stroke-linejoin="round" stroke-width=".61"/>
                    <line x1="128.199" y1="170.722" x2="128.199" y2="185.461" fill="none" stroke="#a384bb" stroke-linecap="round" stroke-linejoin="round" stroke-width=".61"/>
                  </g>
                </g>
              </g>
            </g>
            <g>
              <circle cx="161.882" cy="180.899" r="13.905" fill="#42496f"/>
              <circle cx="161.882" cy="179.426" r="13.905" fill="#6498d1"/>
              <circle cx="161.882" cy="179.426" r="11.443" fill="#ffd66e"/>
              <rect x="160.745" y="178.289" width="2.275" height="2.275" rx=".366" ry=".366" transform="translate(-79.459 167.01) rotate(-44.997)" fill="#b1ddea"/>
              <g mix-blend-mode="multiply" opacity=".5">
                <g clip-path="url(#h)">
                  <g>
                    <line x1="153.21" y1="170.448" x2="153.21" y2="186.01" fill="none" stroke="#a384bb" stroke-linecap="round" stroke-linejoin="round" stroke-width=".61"/>
                    <line x1="158.992" y1="167.638" x2="158.992" y2="191.494" fill="none" stroke="#a384bb" stroke-linecap="round" stroke-linejoin="round" stroke-width=".61"/>
                    <line x1="164.773" y1="191.494" x2="164.773" y2="169.831" fill="none" stroke="#a384bb" stroke-linecap="round" stroke-linejoin="round" stroke-width=".61"/>
                    <line x1="170.554" y1="170.722" x2="170.554" y2="185.461" fill="none" stroke="#a384bb" stroke-linecap="round" stroke-linejoin="round" stroke-width=".61"/>
                  </g>
                </g>
              </g>
            </g>
          </g>
        </g>
        <g>
          <path d="M175.142,228.662s-9.568-26.22-18.071-20.245c-2.405,1.69,3.905,15.144,3.905,15.144,0,0-8.4-4.08-9.071-.576s-3.902,6.233-10.364,4.94c-6.462-1.292,18.236,7.835,18.811,4.169.574-3.666,8.162,3.467,9.861,1.695,1.699-1.772-1.245-6.975,4.929-5.127Z" fill="#9bc8ec"/>
          <path d="M171.712,224.868c.307-5.671-8.427-20.919-14.641-16.451-4.091,2.941,2.882,11.611,3.905,15.144-5.19-2.997-11.257-3.346-12.88-1.674-1.624,1.673,2.994,2.384,1.723,3.905s-13.202,1.552-13.202,1.552c0,0,13.678,4.838,17.552,3.141,2.44-1.069-1.482-4.55.681-5.306,5.407-1.892,10.289,7.887,14.422,6.836,2.449-.623-3.542-8.49-1.961-9.141,1.581-.651,4.402,1.994,4.402,1.994Z" fill="#fff"/>
          <g>
            <g>
              <path d="M139.334,229.96c.047.76-.625,1.184-1.096,1.14-.562-.053-.999-.513-.98-1.062.021-.578.497-1.024,1.078-1.007.094.003.187.021.28.026.791.044.84.104.717.902Z" fill="#fff"/>
              <path d="M124.963,222.182c.509.058.875.512.827,1.027-.05.542-.517.917-1.049.844-.502-.07-.866-.542-.809-1.048.057-.504.529-.881,1.031-.823Z" fill="#fff"/>
              <path d="M127.961,233.032c.427.052.643.36.595.849-.046.471-.45.809-.903.754-.44-.053-.746-.456-.689-.905.06-.471.475-.761.996-.698Z" fill="#fff"/>
              <path d="M130.867,238.074c-.438-.063-.729-.444-.664-.87.064-.422.459-.71.889-.649.465.066.785.458.72.883-.065.427-.476.703-.946.635Z" fill="#fff"/>
              <path d="M133.567,227.017c.426.05.74.439.695.86-.045.428-.434.735-.863.684-.436-.053-.736-.426-.69-.859.046-.437.421-.736.857-.685Z" fill="#fff"/>
              <path d="M140.851,237.103c.403.062.68.457.607.866-.07.389-.433.656-.827.606-.416-.053-.694-.424-.632-.843.061-.411.44-.691.851-.628Z" fill="#fff"/>
              <path d="M120.757,225.135c.063-.399.414-.659.817-.605.42.056.695.428.625.846-.066.396-.424.662-.819.608-.418-.056-.69-.427-.623-.849Z" fill="#fff"/>
              <path d="M136.575,238.531c-.378-.058-.63-.386-.565-.735.067-.361.44-.631.799-.577.369.055.604.374.55.746-.056.384-.392.627-.784.566Z" fill="#fff"/>
              <path d="M127.186,219.291c.108.015.219.018.323.047.321.088.475.306.397.632-.079.33-.327.442-.645.378-.166-.033-.321-.121-.487-.159-.305-.07-.483-.24-.424-.56.061-.326.301-.407.603-.357.077.013.154.022.232.032,0-.004.001-.009.002-.013Z" fill="#fff"/>
              <path d="M124.13,236.923c-.367-.041-.639-.363-.598-.71.041-.351.418-.635.781-.59.343.042.614.401.563.743-.052.351-.383.598-.747.557Z" fill="#fff"/>
              <path d="M139.126,219.299c.041-.406.312-.669.665-.645.331.023.596.347.564.692-.032.347-.579.781-.921.732-.27-.039-.36-.265-.308-.779Z" fill="#fff"/>
              <path d="M141.809,223.699c-.359-.059-.604-.403-.525-.766.083-.38.335-.562.721-.526.37.035.61.369.553.741-.057.369-.385.61-.749.551Z" fill="#fff"/>
              <path d="M134.078,216.455c.344.063.589.427.526.782-.065.361-.369.575-.723.509-.359-.068-.6-.414-.535-.768.062-.335.407-.581.732-.522Z" fill="#fff"/>
              <path d="M128.601,224.056c.046-.337.37-.593.705-.556.351.039.607.391.545.752-.058.341-.386.581-.721.528-.332-.053-.576-.386-.53-.724Z" fill="#fff"/>
              <path d="M136.956,224.925c-.08.291-.288.472-.639.435-.322-.034-.575-.367-.509-.675.073-.339.307-.506.649-.479.317.025.556.362.498.72Z" fill="#fff"/>
              <path d="M123.242,229.143c-.22.12-.435.325-.662.339-.338.021-.492-.264-.458-.584.036-.33.284-.546.587-.466.215.056.376.318.561.488l-.028.223Z" fill="#fff"/>
              <path d="M132.047,232.179c.322-.213.497-.394.698-.429.08-.014.307.297.306.46-.002.287-.229.453-.527.364-.132-.04-.232-.186-.477-.395Z" fill="#fff"/>
              <path d="M125.961,232.812c-.144-.293-.309-.474-.276-.605.035-.14.258-.232.399-.346.109.145.303.291.301.434-.002.137-.209.27-.423.517Z" fill="#fff"/>
              <path d="M126.29,227.217c.135.27.288.435.26.559-.029.13-.233.22-.36.327-.11-.14-.293-.274-.307-.423-.01-.11.201-.24.407-.463Z" fill="#fff"/>
              <path d="M125.253,217.223c.142.289.3.463.265.578-.039.129-.249.267-.394.278-.085.006-.271-.234-.261-.352.011-.135.187-.257.39-.505Z" fill="#fff"/>
              <path d="M130.546,222.686c.28-.129.451-.277.568-.242.127.037.204.245.303.378-.135.099-.271.276-.405.274-.121-.002-.239-.199-.467-.41Z" fill="#fff"/>
              <path d="M133.652,222.416c.242-.13.392-.277.5-.251.115.027.275.228.262.335-.012.108-.212.266-.331.268-.112.002-.225-.174-.432-.352Z" fill="#fff"/>
              <path d="M122.358,232.261c.246-.125.388-.259.509-.241.104.016.277.232.253.307-.041.129-.205.288-.329.299-.104.008-.223-.178-.432-.365Z" fill="#fff"/>
              <path d="M121.598,229.792c-.252.124-.407.265-.516.236-.121-.032-.2-.221-.297-.341.124-.092.248-.256.371-.256.114,0,.228.176.442.361Z" fill="#fff"/>
              <path d="M141.396,228.696c.197-.1.351-.24.432-.206.118.05.184.224.272.346-.128.081-.254.221-.383.224-.086.002-.177-.191-.321-.364Z" fill="#fff"/>
              <path d="M142.163,235.548c-.093-.218-.223-.382-.184-.468.052-.115.237-.17.365-.25.067.123.2.258.182.367-.018.109-.188.192-.363.351Z" fill="#fff"/>
              <path d="M126.932,229.084c.109.189.242.32.217.4-.037.116-.189.195-.292.29-.078-.115-.208-.226-.217-.347-.007-.085.149-.184.293-.344Z" fill="#fff"/>
              <path d="M129.981,230.497c.102.185.208.296.207.406,0,.068-.2.208-.25.185-.103-.048-.208-.175-.228-.285-.012-.067.136-.161.27-.307Z" fill="#fff"/>
            </g>
            <g>
              <path d="M155.157,220.456c.468.429.311,1.071.003,1.317-.367.293-.896.271-1.201-.069-.322-.358-.295-.901.064-1.227.058-.053.124-.096.183-.147.499-.432.563-.424.952.126Z" fill="#fff"/>
              <path d="M142.048,224.113c.339-.26.82-.199,1.09.137.284.353.221.849-.14,1.112-.341.249-.833.177-1.091-.16-.258-.335-.193-.833.141-1.09Z" fill="#fff"/>
              <path d="M150.121,228.878c.286-.216.593-.156.848.164.245.309.199.745-.104.974-.294.223-.71.159-.936-.143-.236-.317-.156-.731.193-.994Z" fill="#fff"/>
              <path d="M154.78,230.216c-.299.216-.693.156-.901-.137-.206-.29-.136-.691.157-.903.317-.229.736-.18.943.112.208.294.122.696-.199.928Z" fill="#fff"/>
              <path d="M149.999,222.031c.284-.216.697-.165.914.113.22.282.166.691-.121.909-.292.221-.687.17-.91-.116-.225-.289-.174-.684.117-.906Z" fill="#fff"/>
              <path d="M160.199,223.857c.277-.196.672-.12.865.168.184.274.12.643-.145.841-.28.209-.661.148-.866-.14-.201-.282-.136-.669.146-.869Z" fill="#fff"/>
              <path d="M141.237,228.315c-.193-.275-.133-.634.139-.835.284-.21.664-.146.864.145.19.275.129.642-.139.839-.283.208-.661.143-.865-.148Z" fill="#fff"/>
              <path d="M158.464,227.187c-.26.184-.601.133-.764-.113-.169-.255-.101-.633.144-.808.253-.18.578-.125.761.128.189.262.128.602-.142.793Z" fill="#fff"/>
              <path d="M141.706,221.095c.073-.054.142-.116.221-.159.244-.133.461-.092.603.149.144.244.06.454-.168.6-.119.076-.262.114-.384.187-.223.134-.429.136-.578-.09-.152-.23-.055-.418.154-.563.053-.037.105-.076.157-.115-.002-.003-.004-.006-.007-.009Z" fill="#fff"/>
              <path d="M150.078,233.425c-.243.188-.593.152-.769-.079-.178-.234-.117-.622.126-.806.23-.173.6-.116.767.119.172.241.117.58-.125.766Z" fill="#fff"/>
              <path d="M148.863,214.191c-.21-.267-.2-.582.025-.771.212-.178.558-.137.738.088.181.226.105.803-.128.972-.184.133-.369.049-.635-.289Z" fill="#fff"/>
              <path d="M153.016,215.274c-.249.173-.595.108-.758-.155-.17-.275-.124-.531.128-.732.242-.193.579-.132.76.124.179.254.123.589-.13.763Z" fill="#fff"/>
              <path d="M144.193,215.408c.242-.162.6-.085.767.164.17.254.112.558-.139.723-.254.167-.599.099-.765-.151-.157-.237-.093-.583.136-.736Z" fill="#fff"/>
              <path d="M145.311,223.13c-.168-.229-.121-.57.101-.741.233-.18.59-.117.762.135.163.238.105.572-.126.733-.229.16-.568.102-.736-.127Z" fill="#fff"/>
              <path d="M150.819,218.816c.121.221.101.449-.131.63-.213.165-.557.113-.695-.11-.152-.245-.109-.481.112-.663.205-.169.542-.104.715.143Z" fill="#fff"/>
              <path d="M145.044,229.279c-.063.199-.073.447-.2.587-.191.208-.447.127-.612-.085-.169-.218-.146-.491.082-.619.161-.091.409-.027.618-.032l.112.15Z" fill="#fff"/>
              <path d="M152.076,226.002c.07-.314.07-.524.17-.661.04-.054.356,0,.45.098.165.173.125.404-.105.523-.102.053-.247.023-.514.04Z" fill="#fff"/>
              <path d="M148.796,229.903c-.255-.092-.459-.105-.516-.203-.06-.104.02-.289.039-.438.149.024.35-.001.431.086.078.083.031.283.046.555Z" fill="#fff"/>
              <path d="M145.756,226.361c.237.084.424.094.479.184.057.095-.012.266-.026.405-.147-.02-.334.005-.429-.076-.07-.06-.019-.26-.024-.513Z" fill="#fff"/>
              <path d="M139.351,220.974c.252.091.447.104.493.193.051.1.006.304-.075.395-.047.053-.298.016-.36-.059-.072-.087-.036-.262-.058-.528Z" fill="#fff"/>
              <path d="M145.683,221.184c.093-.239.11-.427.2-.474.098-.051.264.028.4.051-.024.137-.003.322-.084.398-.074.069-.258.019-.517.025Z" fill="#fff"/>
              <path d="M147.388,219.225c.07-.218.074-.393.154-.44.085-.05.296-.023.351.049.055.072.027.282-.043.352-.066.065-.236.026-.462.039Z" fill="#fff"/>
              <path d="M146.319,231.658c.075-.217.083-.38.165-.439.072-.051.3-.021.329.038.05.101.044.292-.024.369-.057.065-.237.022-.47.032Z" fill="#fff"/>
              <path d="M144.435,230.619c-.079.22-.09.394-.173.44-.091.051-.247-.017-.375-.032.021-.127,0-.297.074-.368.069-.066.239-.026.473-.039Z" fill="#fff"/>
              <path d="M155.66,218.506c.06-.174.071-.347.14-.374.1-.039.24.028.363.05-.029.123-.024.279-.1.356-.051.051-.216-.012-.403-.032Z" fill="#fff"/>
              <path d="M160.086,222.167c-.182-.077-.355-.1-.381-.174-.035-.099.044-.239.074-.361.111.035.269.039.321.115.052.076-.002.224-.014.421Z" fill="#fff"/>
              <path d="M147.221,227.108c.174.05.33.051.361.114.045.091,0,.226-.008.343-.113-.024-.255-.015-.33-.082-.053-.047-.017-.196-.023-.375Z" fill="#fff"/>
              <path d="M149.865,226.19c.168.052.296.057.359.123.039.041,0,.241-.042.255-.089.031-.226.016-.301-.039-.046-.033-.012-.175-.016-.34Z" fill="#fff"/>
            </g>
            <g>
              <path d="M168.366,211.571c.105.835-.605,1.349-1.128,1.334-.623-.019-1.138-.495-1.155-1.101-.018-.638.475-1.163,1.118-1.186.103-.004.207.01.311.009.875-.008.933.056.854.944Z" fill="#fff"/>
              <path d="M151.978,204.011c.566.028,1,.503.984,1.074-.017.601-.505,1.048-1.097,1.004-.558-.041-.993-.536-.966-1.098.027-.56.52-1.008,1.078-.98Z" fill="#fff"/>
              <path d="M156.047,215.758c.474.027.734.351.716.893-.017.522-.439.923-.942.895-.488-.028-.854-.45-.823-.949.033-.523.47-.873,1.048-.84Z" fill="#fff"/>
              <path d="M159.606,221.111c-.488-.039-.835-.437-.793-.912.041-.47.456-.815.935-.778.518.04.898.45.856.923-.042.476-.475.808-.998.767Z" fill="#fff"/>
              <path d="M161.802,208.734c.473.025.846.432.827.899-.02.474-.426.841-.903.814-.484-.027-.841-.418-.821-.899.02-.485.412-.841.896-.815Z" fill="#fff"/>
              <path d="M170.543,219.336c.449.039.782.456.73.912-.049.434-.431.753-.869.726-.463-.029-.795-.418-.756-.885.038-.457.437-.793.894-.753Z" fill="#fff"/>
              <path d="M147.551,207.562c.042-.444.41-.755.858-.725.467.032.796.422.749.888-.045.441-.42.759-.86.728-.465-.033-.791-.422-.747-.892Z" fill="#fff"/>
              <path d="M165.93,221.213c-.42-.038-.722-.381-.674-.77.049-.403.441-.726.84-.692.41.035.692.37.659.783-.034.427-.388.718-.824.68Z" fill="#fff"/>
              <path d="M154.224,200.668c.12.009.243.005.36.029.36.075.545.303.482.668-.064.37-.33.51-.685.462-.186-.025-.363-.11-.548-.141-.341-.056-.549-.231-.506-.587.044-.364.303-.47.639-.436.086.009.172.013.257.019,0-.005,0-.01.001-.015Z" fill="#fff"/>
              <path d="M152.099,220.317c-.407-.019-.729-.355-.709-.74.021-.39.415-.73.82-.706.381.023.706.398.673.779-.033.391-.38.686-.784.667Z" fill="#fff"/>
              <path d="M167.385,199.835c.016-.45.297-.76.687-.758.367.002.681.341.67.723-.011.384-.583.902-.964.872-.3-.024-.415-.267-.394-.837Z" fill="#fff"/>
              <path d="M170.653,204.496c-.4-.039-.695-.401-.633-.807.064-.424.33-.643.758-.63.411.012.699.363.662.777-.036.41-.381.7-.787.66Z" fill="#fff"/>
              <path d="M161.621,197.056c.384.045.68.429.635.824-.046.402-.366.66-.761.612-.4-.049-.691-.415-.644-.809.045-.374.407-.669.77-.627Z" fill="#fff"/>
              <path d="M156.12,205.82c.027-.375.366-.68.738-.662.39.018.696.389.654.79-.04.38-.385.668-.757.633-.369-.035-.662-.385-.635-.76Z" fill="#fff"/>
              <path d="M165.39,206.189c-.068.327-.284.541-.673.524-.357-.015-.66-.364-.608-.708.057-.379.302-.58.682-.574.352.005.638.36.6.758Z" fill="#fff"/>
              <path d="M150.572,211.805c-.234.148-.457.389-.706.421-.371.047-.561-.256-.546-.611.016-.366.274-.622.614-.555.241.047.437.324.653.498l-.015.248Z" fill="#fff"/>
              <path d="M160.491,214.53c.34-.257.52-.469.739-.522.087-.021.36.306.37.485.019.317-.221.516-.555.439-.149-.034-.269-.189-.554-.402Z" fill="#fff"/>
              <path d="M153.827,215.657c-.179-.312-.374-.5-.347-.648.029-.156.268-.274.415-.409.13.152.355.299.362.457.007.151-.211.312-.43.6Z" fill="#fff"/>
              <path d="M153.796,209.467c.168.288.348.459.326.598-.023.145-.241.259-.374.386-.131-.147-.342-.281-.368-.445-.019-.121.204-.279.416-.539Z" fill="#fff"/>
              <path d="M151.948,198.525c.177.308.363.489.333.618-.034.145-.255.312-.414.335-.093.013-.315-.239-.313-.369.002-.15.188-.296.395-.584Z" fill="#fff"/>
              <path d="M158.168,204.172c.299-.161.477-.337.609-.307.143.032.242.255.361.395-.142.119-.28.323-.427.33-.134.006-.278-.202-.543-.419Z" fill="#fff"/>
              <path d="M161.571,203.656c.258-.161.412-.333.534-.312.129.022.319.232.313.351-.006.12-.214.309-.346.319-.123.01-.261-.175-.501-.357Z" fill="#fff"/>
              <path d="M149.818,215.304c.262-.155.41-.313.544-.301.116.01.321.236.3.321-.036.145-.206.332-.342.352-.114.017-.259-.181-.502-.371Z" fill="#fff"/>
              <path d="M148.805,212.636c-.269.154-.43.321-.552.296-.135-.027-.236-.229-.351-.355.13-.11.255-.3.391-.308.126-.008.264.178.512.367Z" fill="#fff"/>
              <path d="M170.55,210.032c.21-.125.37-.289.462-.258.134.046.219.234.325.362-.135.099-.264.262-.407.274-.095.008-.208-.198-.38-.378Z" fill="#fff"/>
              <path d="M171.879,217.531c-.117-.234-.273-.405-.235-.503.05-.13.249-.204.384-.302.082.131.239.27.226.392-.012.121-.194.225-.375.413Z" fill="#fff"/>
              <path d="M154.636,211.48c.133.2.29.335.267.426-.032.13-.195.228-.302.34-.094-.121-.245-.235-.264-.367-.013-.094.151-.213.298-.399Z" fill="#fff"/>
              <path d="M158.095,212.822c.126.197.251.312.257.433.004.075-.206.243-.262.221-.117-.046-.242-.178-.271-.298-.018-.072.138-.187.276-.357Z" fill="#fff"/>
            </g>
          </g>
        </g>
      </g>
    </g>
  </g>
</svg>