<?xml version="1.0" encoding="UTF-8"?>
<svg xmlns="http://www.w3.org/2000/svg" width="300" height="300" xmlns:xlink="http://www.w3.org/1999/xlink" viewBox="0 0 300 300">
  <defs>
    <filter id="b" data-name="drop-shadow-3" x="73.626" y="45.871" width="105.449" height="135.032" filterUnits="userSpaceOnUse">
      <feOffset dx="-1.219" dy="0"/>
      <feGaussianBlur result="c" stdDeviation="0"/>
      <feFlood flood-color="#42496f" flood-opacity="1"/>
      <feComposite in2="c" operator="in"/>
      <feComposite in="SourceGraphic"/>
    </filter>
    <clipPath id="d">
      <path d="M168.643,123.91c-2.034-.313-4.068-.627-6.103-.941-.411-.063-.85-.14-1.17-.424-.352-.314-.473-.801-.551-1.253-.429-2.482-.194-5.023.681-7.244.169-.43.366-.876.291-1.358-.11-.707-.75-1.248-1.201-1.846-1.636-2.17-.747-5.031.561-7.017,1.589-2.413,3.697-4.423,6.189-5.87-.721-1.233.336-2.761,1.685-2.42-.367-.706-.945-1.336-1.629-1.779.07-1.057.941-1.805,1.988-1.927-1.259-6.221-1.985-9.326-3.628-15.51-6.342,0-9.513,0-15.854,0,.699,2.11,1.371,4.222,2.016,6.337.273.895.543,1.796.66,2.69.205,1.562-.057,3.07.242,4.641.212,1.113.68,2.39.077,3.203-1.327-.193-2.147-1.731-2.751-2.988-1.85-3.85-4.573-7.466-7.884-10.534-.467-.433-.959-.872-1.258-1.409-.348-.624-.388-1.289-.52-1.94h-49.433c1.078,1.727,2.138,3.456,3.179,5.187.652,1.082,1.321,2.25,1.272,3.36-.049,1.11-1.181,2.002-2.309,1.425.291.346.581.692.87,1.038-.852-.079-1.726-.34-2.545-.761-.855.292-.781,1.468-.892,2.383-.366,2.993-3.591,4.259-6.459,5.136.575,1.666.5,3.386-.08,4.849.61,3.508.884,5.263,1.371,8.776,1.109,1.247,2.394,2.435,2.906,3.957.403,1.199.264,2.461.623,3.666.331,1.109,1.084,2.229.819,3.296-.254,1.019-1.46,1.548-2.524,1.27-.157-.041-.299-.123-.447-.191.508,5.589.685,8.384.881,13.964.524.079,1.022.374,1.259.858.488-.405,1.34-.252,1.685.302.906-1.909,2.082-3.875,4.055-4.606,1.973-.731,4.821.566,4.838,2.705-.276.241-.552.482-.829.724,1.242.812,1.837,2.499,1.352,3.867,1.447.47,2.972.992,3.961,2.146.99,1.154,1.131,3.155-.108,4.027-.692.487-1.812.755-1.805,1.596.004.432.343.77.559,1.14.481.823.318,1.971-.376,2.655-.694.683-1.849.839-2.668.36.411,1.594.81,3.219.67,4.872-.015.18-.041.361-.071.542,13.795,0,27.589,0,41.384,0,.028-.213.046-.426.094-.638.325-1.426,1.241-2.834,2.625-3.336-.159-.434-.32-.867-.482-1.301,1.469-1.569,1.404-3.962,1.078-6.054-.326-2.093-.797-4.355.128-6.247.34-.695.956-1.344,1.736-1.346.567-.001,1.082.338,1.538.685,4.045,3.077,6.6,7.954,6.659,12.954.006.553-.009,1.136.25,1.616.259.48.91.791,1.387.488-.408.551.109,1.359.768,1.483.659.123,1.33-.197,1.943-.508-.186.295-.379.65-.253.962.126.312.744.273.714-.065.002.313.004.626.005.938.484-.942,1.864-1.185,2.725-.637.379.241.644.601.833,1.005,4.326,0,6.489,0,10.815,0,.446-8.737.472-13.13.137-21.933-1.839-3.004-3.733-6.011-5.68-9.02ZM129.692,106.132c.069,1.119-.029,2.329-.805,3.036-.971.885-2.591.653-3.996.309-.218,1.14-.694,2.202-1.385,3.096-.168.217-.374.438-.661.459-.276.021-.551-.15-.785-.333-2.264-1.767-2.728-4.877-3.031-7.588-1.08.308-2.237.616-3.401.258-1.164-.357-2.245-1.668-1.883-2.711-.449.267-1.133.05-1.56-.379-.427-.429-.637-1.015-.733-1.574-.267-1.552.264-3.085,1.385-3.959.693-.541,1.663-.949,1.734-1.876.07-.904-.763-1.766-1.299-2.63-.535-.863-.564-2.223.375-2.207.439.007.863.338,1.235.648.685.571,1.368,1.141,2.049,1.712.223.187.45.376.706.499.453.217.936.201,1.407.25,2.753.285,5.368,3.363,5.002,5.954.246-.216.369-.324.615-.539.598-.538,1.708-.302,2.443.309.735.61,1.167,1.492,1.497,2.349.62,1.61.99,3.274,1.091,4.918ZM149.558,112.789c-.645.55-.691,1.536-.809,2.41-.118.875-.478,1.852-1.344,2.016-.726.137-1.51-.403-1.915-1.08-.405-.676-.518-1.457-.626-2.211-.145-1.015-.296-2.031-.453-3.046-.051-.327-.098-.677.049-.947.109-.199.314-.33.413-.535.162-.337.002-.771-.155-1.152-1.08-2.63-2.006-5.314-2.771-8.021-.138-.487-.085-1.197.411-1.098.271.054.449.34.611.579,1.04,1.531,2.976,2.159,4.395,3.357,1.684,1.42,2.529,3.729,2.08,5.64.003-.007.003-.016.007-.023-.013.067-.02.101-.033.168.013-.047.015-.098.026-.145-.367.788-.22,1.844.372,2.618.161.21.362.425.376.675.021.373-.366.567-.633.796Z" fill="none"/>
    </clipPath>
  </defs>
  <g isolation="isolate">
    <g id="a" data-name="bateau 10">
      <g filter="url(#b)">
        <path d="M136.082,180.903s-5.916-81.718-16.385-133.877c-.136-.677-.731-1.156-1.421-1.156h0c-.872,0-1.547.758-1.437,1.623,1.595,12.536,12.023,94.466,12.023,133.409h7.221Z" fill="#f4af13"/>
        <path d="M133.632,152.017l-5.904.724c.199,2.988.375,5.905.527,8.737,1.959-.668,4.127-1.474,6.027-2.34-.2-2.245-.417-4.621-.65-7.121Z" fill="#42496f"/>
        <g>
          <path d="M168.643,123.91c-2.034-.313-4.068-.627-6.103-.941-.411-.063-.85-.14-1.17-.424-.352-.314-.473-.801-.551-1.253-.429-2.482-.194-5.023.681-7.244.169-.43.366-.876.291-1.358-.11-.707-.75-1.248-1.201-1.846-1.636-2.17-.747-5.031.561-7.017,1.589-2.413,3.697-4.423,6.189-5.87-.721-1.233.336-2.761,1.685-2.42-.367-.706-.945-1.336-1.629-1.779.07-1.057.941-1.805,1.988-1.927-1.259-6.221-1.985-9.326-3.628-15.51-6.342,0-9.513,0-15.854,0,.699,2.11,1.371,4.222,2.016,6.337.273.895.543,1.796.66,2.69.205,1.562-.057,3.07.242,4.641.212,1.113.68,2.39.077,3.203-1.327-.193-2.147-1.731-2.751-2.988-1.85-3.85-4.573-7.466-7.884-10.534-.467-.433-.959-.872-1.258-1.409-.348-.624-.388-1.289-.52-1.94h-49.433c1.078,1.727,2.138,3.456,3.179,5.187.652,1.082,1.321,2.25,1.272,3.36-.049,1.11-1.181,2.002-2.309,1.425.291.346.581.692.87,1.038-.852-.079-1.726-.34-2.545-.761-.855.292-.781,1.468-.892,2.383-.366,2.993-3.591,4.259-6.459,5.136.575,1.666.5,3.386-.08,4.849.61,3.508.884,5.263,1.371,8.776,1.109,1.247,2.394,2.435,2.906,3.957.403,1.199.264,2.461.623,3.666.331,1.109,1.084,2.229.819,3.296-.254,1.019-1.46,1.548-2.524,1.27-.157-.041-.299-.123-.447-.191.508,5.589.685,8.384.881,13.964.524.079,1.022.374,1.259.858.488-.405,1.34-.252,1.685.302.906-1.909,2.082-3.875,4.055-4.606,1.973-.731,4.821.566,4.838,2.705-.276.241-.552.482-.829.724,1.242.812,1.837,2.499,1.352,3.867,1.447.47,2.972.992,3.961,2.146.99,1.154,1.131,3.155-.108,4.027-.692.487-1.812.755-1.805,1.596.004.432.343.77.559,1.14.481.823.318,1.971-.376,2.655-.694.683-1.849.839-2.668.36.411,1.594.81,3.219.67,4.872-.015.18-.041.361-.071.542,13.795,0,27.589,0,41.384,0,.028-.213.046-.426.094-.638.325-1.426,1.241-2.834,2.625-3.336-.159-.434-.32-.867-.482-1.301,1.469-1.569,1.404-3.962,1.078-6.054-.326-2.093-.797-4.355.128-6.247.34-.695.956-1.344,1.736-1.346.567-.001,1.082.338,1.538.685,4.045,3.077,6.6,7.954,6.659,12.954.006.553-.009,1.136.25,1.616.259.48.91.791,1.387.488-.408.551.109,1.359.768,1.483.659.123,1.33-.197,1.943-.508-.186.295-.379.65-.253.962.126.312.744.273.714-.065.002.313.004.626.005.938.484-.942,1.864-1.185,2.725-.637.379.241.644.601.833,1.005,4.326,0,6.489,0,10.815,0,.446-8.737.472-13.13.137-21.933-1.839-3.004-3.733-6.011-5.68-9.02ZM129.692,106.132c.069,1.119-.029,2.329-.805,3.036-.971.885-2.591.653-3.996.309-.218,1.14-.694,2.202-1.385,3.096-.168.217-.374.438-.661.459-.276.021-.551-.15-.785-.333-2.264-1.767-2.728-4.877-3.031-7.588-1.08.308-2.237.616-3.401.258-1.164-.357-2.245-1.668-1.883-2.711-.449.267-1.133.05-1.56-.379-.427-.429-.637-1.015-.733-1.574-.267-1.552.264-3.085,1.385-3.959.693-.541,1.663-.949,1.734-1.876.07-.904-.763-1.766-1.299-2.63-.535-.863-.564-2.223.375-2.207.439.007.863.338,1.235.648.685.571,1.368,1.141,2.049,1.712.223.187.45.376.706.499.453.217.936.201,1.407.25,2.753.285,5.368,3.363,5.002,5.954.246-.216.369-.324.615-.539.598-.538,1.708-.302,2.443.309.735.61,1.167,1.492,1.497,2.349.62,1.61.99,3.274,1.091,4.918ZM149.558,112.789c-.645.55-.691,1.536-.809,2.41-.118.875-.478,1.852-1.344,2.016-.726.137-1.51-.403-1.915-1.08-.405-.676-.518-1.457-.626-2.211-.145-1.015-.296-2.031-.453-3.046-.051-.327-.098-.677.049-.947.109-.199.314-.33.413-.535.162-.337.002-.771-.155-1.152-1.08-2.63-2.006-5.314-2.771-8.021-.138-.487-.085-1.197.411-1.098.271.054.449.34.611.579,1.04,1.531,2.976,2.159,4.395,3.357,1.684,1.42,2.529,3.729,2.08,5.64.003-.007.003-.016.007-.023-.013.067-.02.101-.033.168.013-.047.015-.098.026-.145-.367.788-.22,1.844.372,2.618.161.21.362.425.376.675.021.373-.366.567-.633.796Z" fill="#a384bb"/>
          <g clip-path="url(#d)">
            <path d="M96.448,76.321c6.313,26.304,9.115,51.496,8.431,78.542" fill="none" opacity=".25" stroke="#9bc8ec" stroke-miterlimit="10" stroke-width="1.219"/>
            <path d="M113.775,76.321c6.313,26.304,9.115,51.496,8.431,78.542" fill="none" opacity=".25" stroke="#9bc8ec" stroke-miterlimit="10" stroke-width="1.219"/>
            <path d="M131.102,76.321c6.313,26.304,9.115,51.496,8.431,78.542" fill="none" opacity=".25" stroke="#9bc8ec" stroke-miterlimit="10" stroke-width="1.219"/>
            <path d="M148.429,76.321c6.313,26.304,9.115,51.496,8.431,78.542" fill="none" opacity=".25" stroke="#9bc8ec" stroke-miterlimit="10" stroke-width="1.219"/>
            <path d="M174.187,154.863c-28.878,0-57.756,0-86.635,0,.566-9.88.46-20.063-.296-29.929,22.933,19.088,58.129,24.026,87.115,25.531-.058,1.761-.095,2.641-.185,4.398Z" fill="#a384bb" mix-blend-mode="multiply" opacity=".25"/>
          </g>
        </g>
        <rect x="83.825" y="153.386" width="95.251" height="2.955" rx="1.478" ry="1.478" fill="#f4af13"/>
        <rect x="74.845" y="74.844" width="95.251" height="2.955" rx="1.478" ry="1.478" fill="#f4af13"/>
        <path d="M159.016,153.217c-4.389-.021-13.655-.108-13.655-.108-.11,2.743.485,5.397,1.174,8.153.172.689,1.08,1.424,1.596,1.424s1.22-.935,1.361-1.408c.141-.469.376-1.361.547-2.591.692,2.344,1.384,4.688,2.076,7.032.474,1.606,1.337,4.73,1.751,4.699s1.396-3.624,1.509-5.552c.023-.388.141-.899.53-.916.152-.007.292.075.422.154.45.274.901.548,1.351.822.079-.456.662-.74,1.07-.523.649-3.687.739-7.472.267-11.186Z" fill="#efa78e"/>
        <path d="M92.982,155.889c.139.942.982,1.952,1.883,1.643.504-.173,1.094-.699,1.449-.301.09.101.125.238.158.369.594,2.357,1.51,4.632,2.715,6.743.114-2.025.043-4.06-.213-6.071.589-.153,1.032.745,1.636.664.569-.076.643-.865.564-1.433-.201-1.438-.402-2.875-.603-4.313-2.114.035-6.264.055-7.703.168l.114,2.532Z" fill="#efa78e"/>
        <g mix-blend-mode="multiply" opacity=".25">
          <path d="M147.704,99.995c1.009-.701.665-2.674,1.73-3.252.253-.137.535-.156.799-.252.951-.348,1.434-1.636,1.301-2.662-.133-1.026-.702-1.863-1.191-2.714-1.793-3.122-2.757-7.012-5.461-9.214l-1.268-.752c.888.865,1.16,2.259,1.392,3.572.899,5.092,1.798,10.184,2.697,15.275Z" fill="#a384bb"/>
        </g>
        <path d="M150.045,98.814c.955-.673.368-2.524,1.394-3.083.244-.133.531-.154.792-.249.937-.341,1.281-1.559,1.023-2.521-.258-.963-.942-1.742-1.545-2.535-2.212-2.911-3.662-6.556-6.702-8.589l-1.392-.69c1.015.801,1.459,2.108,1.852,3.339,1.526,4.776,3.051,9.552,4.577,14.327Z" fill="#efa78e"/>
        <g mix-blend-mode="multiply" opacity=".25">
          <path d="M94.834,95.408c1.031.016,2.403-.263,2.596-1.409.061-.363-.028-.722-.117-1.066-.681-2.625-1.179-4.845-1.954-7.431-.521.856-1.692,1.04-2.468.63.223.363.447.725.67,1.087-.836.002-1.451-.315-2.188-.706-.91.423-1.267,1.865-1.545,2.915-.718,2.71-3.213,3.546-5.617,4.771,1.556,1.264,3.325,3.367,4.873,4.643.687.566,1.388,1.142,2.209,1.439.822.297,1.799.276,2.549-.295,1.266-.964,1.372-3.001.992-4.578Z" fill="#a384bb"/>
        </g>
        <path d="M95.498,94.411c1.039.003,2.403-.262,2.52-1.295.037-.327-.077-.649-.19-.957-.862-2.352-1.514-4.342-2.468-6.658-.468.775-1.635.953-2.443.593.249.323.499.647.748.97-.842.01-1.483-.267-2.251-.611-.888.39-1.15,1.69-1.359,2.636-.541,2.443-3.5,3.888-5.838,5.015,1.652,1.12,4.078,2.324,5.724,3.455.73.502,1.475,1.012,2.322,1.27.848.258,1.831.228,2.547-.293,1.21-.88,1.18-2.712.691-4.125Z" fill="#efa78e"/>
      </g>
    </g>
  </g>
</svg>