<?xml version="1.0" encoding="UTF-8"?>
<svg id="a" data-name="bateau 07" xmlns="http://www.w3.org/2000/svg" width="300" height="300" xmlns:xlink="http://www.w3.org/1999/xlink" viewBox="0 0 300 300">
  <defs>
    <filter id="b" data-name="drop-shadow-2" x="100.794" y="12.806" width="75.617" height="59.189" filterUnits="userSpaceOnUse">
      <feOffset dx="-1.219" dy="0"/>
      <feGaussianBlur result="c" stdDeviation="0"/>
      <feFlood flood-color="#42496f" flood-opacity="1"/>
      <feComposite in2="c" operator="in"/>
      <feComposite in="SourceGraphic"/>
    </filter>
  </defs>
  <g filter="url(#b)">
    <path d="M163.544,23.727c-1.408-1.257-3.697-1.382-5.234-.288-2.211,1.574-2.379,4.747-2.238,7.458s.232,5.812-1.739,7.678c-1.694,1.603-4.303,1.663-6.622,1.413-1.983-.215-3.947-.587-5.887-1.052-1.384-.332-4.454-1.21-5.599.096-2.244,2.56,6.381,3.594,7.878,3.9,3.696.754,7.482,1.203,11.254.869,2.678-.237,5.505-.971,7.274-2.996,1.123-1.286,1.696-2.959,2.087-4.621.539-2.291.78-4.652.717-7.005-.053-1.979-.413-4.133-1.89-5.451Z" fill="#f4af13"/>
    <path d="M132.525,36.259c-6.234-1.222-15.022,5.663-16.831,19.033l24.145.315c-2.595-7.865.708-17.775-7.314-19.347Z" fill="#93d1ad"/>
    <path d="M144.146,26.204c-.169-1.041.088-3.411-.072-4.367-.308-1.83-1.455-3.553-3.008-4.856-1.553-1.303-3.241-1.698-5.252-1.962-3.55-.464-7.292.59-10.016,2.913-2.724,2.324-4.363,5.898-4.249,9.476.102,3.234,1.572,6.318,3.635,8.81,2.24,2.705,5.496,4.896,9.002,4.685,1.932-.116,3.76-.952,5.361-2.039,2.126-1.443,4.09-3.376,4.962-5.793.634-1.758.053-4.312-.362-6.868Z" fill="#93d1ad"/>
    <path d="M123.312,22.184s-.413-6.046.885-8.317c1.298-2.271-4.719-1.357-1.593,7.314,0,0-2.615-4.463-2.772-5.722-.206-1.652-4.188,2.89,3.48,6.724Z" fill="#93d1ad"/>
    <path d="M131.717,31.12s2.566-.236,5.633.619c0,0-3.864.767-5.722,1.829" fill="none" stroke="#42496f" stroke-linecap="round" stroke-linejoin="round" stroke-width=".61"/>
    <path d="M140.663,29.882s-1.73-5.309-.157-8.415c1.573-3.107,3.567.371,3.567.371" fill="none" stroke="#42496f" stroke-linecap="round" stroke-linejoin="round" stroke-width=".61"/>
    <path d="M171.535,15.52c-4.65.657-17.244,2.97-20.577,4.135-2.228,3.434-4.33,11.569,1.351,15.924,0,0,9.789-1.404,20.769-.294,3.802-.069,3.151-20.218-1.544-19.765Z" fill="#336a9b"/>
    <ellipse cx="172.736" cy="25.394" rx="3.639" ry="7.523" transform="translate(-1.445 13.408) rotate(-4.427)" fill="#b1ddea"/>
    <path d="M153.347,22.574s-7.531,1.593-11.463,2.379c-1.165.233-1.711,1.239-1.121,4.286s2.053,3.033,2.595,2.949c3.185-.492,11.566-1.475,11.566-1.475l-1.578-8.14Z" fill="#336a9b"/>
    <path d="M147.13,36.696c-.997-.939-2.09-1.772-3.053-2.747-.471-.477-.914-.985-1.281-1.547-.258-.395-.532-1.489-.989-1.649-.284-.099-.608.043-.804.271-.196.228-.287.526-.358.818-.278,1.14-.319,2.326-.269,3.498.01.227.026.466.152.655.11.165.287.269.462.362,1.848.98,4.064,1.243,6.09.724.063-.016.133-.038.166-.094.057-.097-.03-.213-.114-.291Z" fill="#ffd66e"/>
    <path d="M156.952,21.255c.397-.637,1.235-1.437,1.351-2.199.256-1.687-2.092-.409-2.797.026-2.199,1.359-3.425,3.912-3.842,6.377.189-1.116.213-2.249.201-3.378-.009-.885.289-2.934-.114-3.701-.94-1.787-2.847,1.696-3.086,2.771-1.026,4.621.683,9.342,1.558,13.993.204,1.085.358,2.238-.044,3.266-.526,1.347-1.927,2.194-3.349,2.457-1.422.262-2.884.037-4.313-.189-1.903-.3-3.805-.601-5.708-.901-1.272-.201-2.781-.942-4.082-.64-1.192.277-2.374,1.536-1.585,2.797.486.777,1.406,1.151,2.278,1.433,4.366,1.413,8.999,1.727,13.578,2.032,2.343.156,4.861.271,6.855-.968,2.322-1.442,3.299-4.389,3.294-7.123-.005-2.733-.805-5.395-1.226-8.096s-.416-5.638,1.03-7.958Z" fill="#ffd66e"/>
    <path d="M116.689,53.681c.064-.934-.436-2.451-.579-2.999-.539-2.059-1.308-4.07-2.486-5.853-1.737-2.629-4.46-4.734-7.583-5.155-.792-.107-1.859.108-1.938.903-.048.487.33.899.681,1.24,2.828,2.748,5.656,5.496,8.483,8.243-.956-.856-2.009-1.605-3.077-2.319-1.262-.843-2.57-1.654-4.021-2.099-.819-.251-4.148-.865-4.155.489-.005.962,2.395,1.654,3.061,1.908,3.297,1.257,6.747,2.544,9.138,5.139.377.409.739.859,1.241,1.097.88.416,1.191.049,1.235-.593Z" fill="#ffd66e"/>
    <polygon points="140.802 71.691 115.71 71.691 112.231 51.795 144.281 51.795 140.802 71.691" fill="#a384bb"/>
    <g>
      <line x1="114.55" y1="51.795" x2="117.526" y2="71.691" fill="none" stroke="#ffd66e" stroke-linecap="round" stroke-linejoin="round" stroke-width=".61"/>
      <line x1="119.119" y1="51.795" x2="121.102" y2="71.691" fill="none" stroke="#ffd66e" stroke-linecap="round" stroke-linejoin="round" stroke-width=".61"/>
      <line x1="123.687" y1="51.795" x2="124.679" y2="71.691" fill="none" stroke="#ffd66e" stroke-linecap="round" stroke-linejoin="round" stroke-width=".61"/>
      <line x1="128.256" y1="51.795" x2="128.256" y2="71.691" fill="none" stroke="#ffd66e" stroke-linecap="round" stroke-linejoin="round" stroke-width=".61"/>
      <line x1="132.824" y1="51.795" x2="131.832" y2="71.691" fill="none" stroke="#ffd66e" stroke-linecap="round" stroke-linejoin="round" stroke-width=".61"/>
      <line x1="137.393" y1="51.795" x2="135.409" y2="71.691" fill="none" stroke="#ffd66e" stroke-linecap="round" stroke-linejoin="round" stroke-width=".61"/>
      <line x1="141.961" y1="51.795" x2="138.986" y2="71.691" fill="none" stroke="#ffd66e" stroke-linecap="round" stroke-linejoin="round" stroke-width=".61"/>
    </g>
  </g>
</svg>