<?xml version="1.0" encoding="UTF-8"?><svg id="bateau_01" xmlns="http://www.w3.org/2000/svg" xmlns:xlink="http://www.w3.org/1999/xlink" viewBox="0 0 300 300"><defs><style>.cls-1{fill:#ffd66e;}.cls-2{fill:#e86170;}.cls-3{filter:url(#drop-shadow-1);}.cls-4{fill:#42496f;}.cls-5{fill:#93d1ad;}</style><filter id="drop-shadow-1" x="174.54" y="102.11" width="83.65" height="88.76" filterUnits="userSpaceOnUse"><feOffset dx="-1.22" dy="0"/><feGaussianBlur result="blur" stdDeviation="0"/><feFlood flood-color="#42496f" flood-opacity="1"/><feComposite in2="blur" operator="in"/><feComposite in="SourceGraphic"/></filter></defs><g class="cls-3"><polygon class="cls-1" points="214.87 108.25 210.62 102.11 207.79 108.84 214.87 108.25"/><polygon class="cls-1" points="201.66 109.78 195.29 102.7 195.41 112.26 201.66 109.78"/><polygon class="cls-1" points="191.16 114.62 180.54 110.02 185.38 120.75 191.16 114.62"/><polygon class="cls-1" points="184.61 122.05 175.76 123.64 184.49 126.53 184.61 122.05"/><polygon class="cls-1" points="186.26 131.78 177.77 136.38 188.15 136.85 186.26 131.78"/><polygon class="cls-1" points="190.16 142.87 182.61 146.41 191.45 147.35 190.16 142.87"/><polygon class="cls-1" points="192.16 153.37 185.56 155.02 191.93 157.38 192.16 153.37"/><path class="cls-4" d="M228.66,129.19c-11.84.59-21.94,4.95-22.69,15.18l-8.65.55c1.97-10.34,15.38-21.07,31.34-15.73Z"/><path class="cls-1" d="M180.6,175.77c-4.39,8.91,22.46,21.92,25.6,10.85,3.14-11.08-22.32-17.51-25.6-10.85Z"/><path class="cls-5" d="M203.77,185.31s9.56-16.47,2.57-37.79l14.75-1.71c2.36-.27,4.03-2.43,3.72-4.78h0s-23.96,2.99-23.96,2.99c.69-2.23,2.55-7.05,7.27-10.84,8.6-6.89,19.21-4.34,20.54-3.99,0,0-4.52-13.1-5.59-16.6-1.34-4.8-11.53-6.4-20.94-4.37-3.57.77-14.47,3.51-17.97,11.84-3.96,9.4,5.58,16.41,6.28,31.66.48,10.48-3.47,19.31-7.13,25.39,0,0-.74,3.36,6.89,7.21,3.13,1.58,11.52,4.21,13.57.99Z"/><path class="cls-4" d="M217.43,120.71l3.9,1.9c-.53,1.01-1.66,1.49-2.6,1.2-1.14-.35-1.85-1.78-1.3-3.1Z"/><path class="cls-4" d="M223.77,120.36l-1.27,2.17c.43.94.98.98,1.31.62.4-.44.46-1.54-.04-2.78Z"/><path class="cls-4" d="M206.69,122.49s-2.2,6.19-11.8,3.7c0,0,1.13.11,3.36-1.12,0,0-3.36-.78-5.22-4.71l13.66,2.13Z"/><path class="cls-1" d="M194.38,121.03l10.96,1.81s-5.97,4.56-10.96-1.81Z"/><path class="cls-2" d="M209.88,140.52c2.15-2.89,4.37-5.07,8.94-7.11,7.01-3.14,11.7-1.7,17.95-4.62,7.23-3.38,10.35-10.11,10.35-10.11,0,1.74-.26,4.73-1.78,8.02-1.16,2.51-2.64,4.29-3.73,5.4,0,0,7.13-1.73,10.68-5.77-.61,2.8-4.25,9.36-12.49,11.23-8.24,1.87-11.42.06-20.39.75-2.27.18-5.57.67-9.52,2.2Z"/><path class="cls-2" d="M238.94,120.75c1.48,1.13,7.12-7.48,5.02-9.06-2.1-1.58-6.19,8.16-5.02,9.06Z"/><path class="cls-1" d="M239.17,120.54c.86.66,4.13-4.37,2.91-5.29-1.22-.92-3.59,4.77-2.91,5.29Z"/><path class="cls-2" d="M254.55,122.63c.53,1.49,4.82-.43,3.33-2.04-1.61-1.73-3.68,1.08-3.33,2.04Z"/><path class="cls-1" d="M254.73,122.67c.26.71,2.3-.21,1.59-.97-.77-.83-1.75.51-1.59.97Z"/><path class="cls-2" d="M249.01,140.55c-.1,1.93,6.87,1.3,6.2-1.11-.6-2.16-6.09-1.09-6.2,1.11Z"/><path class="cls-1" d="M249.18,140.53c-.05,1.02,3.65.69,3.29-.59-.32-1.15-3.23-.58-3.29.59Z"/><path class="cls-1" d="M210.32,140.19s4.19-2.3,10.33-2.72c5.46-.38,11.77-.51,11.44-3.06-.35-2.75-9.77-1.52-13.02-.13-3.72,1.59-6.77,3.8-8.75,5.92Z"/><path class="cls-4" d="M206.34,147.52l-2.17.21c-2.65.26-5.31-.46-7.47-2.01h0s1.78,5.71,10.76,5.71l-1.11-3.91Z"/></g></svg>