<?xml version="1.0" encoding="UTF-8"?><svg xmlns="http://www.w3.org/2000/svg" xmlns:xlink="http://www.w3.org/1999/xlink" viewBox="0 0 300 300"><defs><style>.cls-1{fill:#54bfd1;}.cls-2{fill:#ffd66e;}.cls-3{fill:#f4af13;}.cls-4{fill:#b1ddea;}.cls-5{stroke:#54bfd1;}.cls-5,.cls-6,.cls-7,.cls-8,.cls-9,.cls-10{fill:none;}.cls-5,.cls-7,.cls-9,.cls-10{stroke-linecap:round;stroke-linejoin:round;}.cls-5,.cls-9{stroke-width:1.22px;}.cls-11,.cls-12{opacity:.25;}.cls-11,.cls-12,.cls-13{mix-blend-mode:multiply;}.cls-7{stroke:#f4af13;}.cls-7,.cls-10{stroke-width:.61px;}.cls-14{clip-path:url(#clippath-1);}.cls-15{filter:url(#drop-shadow-1);}.cls-16{isolation:isolate;}.cls-12{fill:#a384bb;}.cls-17{clip-path:url(#clippath-3);}.cls-8{stroke:#336a9b;stroke-miterlimit:10;stroke-width:.61px;}.cls-9{stroke-dasharray:.01 3.66;}.cls-9,.cls-10{stroke:#a384bb;}.cls-18{clip-path:url(#clippath-2);}.cls-13{opacity:.5;}</style><clipPath id="clippath"><path class="cls-6" d="M526.77,670.15c-.71.57-1.28,1.02-1.98,1.57,0-.06,0,.15.02.39-3.2-.32-3.33-2.38-.1-2.88,1.27-.46,1.29-1.73,1.8-3.08-1.46.56-2.44.47-3.81.7.25.88.89.85,1.45,1.44-.48.51-1.17.59-1.77.51-.16-1.02-1.03-2.49.12-3.25,1.08-.45-.19-1.69-.57-2.01-.58.28-1.11.96-.62,1.6.31.47.51.86-.12,1.32-1.18,3.27-3.03-.47-4.86-1.1.04-.19.13-.57.25-1.1-1.74,1.04-.91-3.18-2.93-.82-1.62-1.05-2.16-4.84-4.27-4.35-.19.12-.72-.09-.86-.32-.79-2.58-3.2-3.7-4.05-6.08-.65-1.51-1.98-2.38-3.11-3.45-.1-.15-.74-.11-.86.06-.95,1.2-2.94.12-3.04-1.3-.3-.57-1.47-1.13-1.39-1.99-.99-1.14.04-1.07.75-1.65-.71-.3-.87-.89-.86-1.73.18-.81-1.67-2.15-.4-2.58,1.46-.28.31-1.17.29-2.22-1,1.43-2.02,2.27-3.67,2.05-.75.61-1.21.2-1.71-.27-1.29-1.41-3.22.46-4.37,1.39.1-3.76-4.69.9-6.54,1.18-.05-1.29-1.55-2.31-2.53-1.04-2.25-.61-2.98-3.95-4.68-5.59-.35-1.53-2.4-1.15-2.5-2.62-.17-1.63-2.3-1.87-2.29-3.67-1.44-.59-1.12-2.54-2.16-3.44-1.78-2.29-6.5-5.15-5.76-8.1.89-.92,0-1.19-.61-1.76-.47-1.01-1.01-.04-1.78-.24,1.88-2.06-1.47-2.33,1.3-5.97.31-.9-.85-.65-1.11-.1-.69,1.23-1.68,1.06-2.63.93-.51-.55-.06-1.92-1.33-1.66-.09-.37-.17-.73-.27-1.11-1.24.3-1.93,1.6-.52,2.21-1.32,1.25-3.58,4.5-4.84,1.68-1.49.34-1.34-2.24-3-.95-.08-.7-.15-1.27-.22-1.91-.18.12-.41.27-.63.42-.36-.74-.39-1.79-1.55-1.63-.13-.96-.26-1.9-.4-2.98-.27.4-.46.67-.57.84-1.74-.4-2.1-2.22-3.03-3.53-.1.01-.19.03-.29.04-.06.34-.13.67-.19,1.01-.1,0-.2,0-.3-.01.27-3.39-2.87-4.42-3.86-7.28.27-1.01.3-1.42-.31-2.24-.38.41-.74.79-1.22,1.31-.78-.58-.39-2-1.55-1.7-.33-1.36-.03-2.35.87-3.26-.98-1.09,1.55-3.48-.43-3.65-.11.47-.21.91-.31,1.35h-.22c.03-1.11.05-2.22.08-3.52,2.43,1.18,2.28-2.24,2.5-3.94-.97.71-1.64,2.01-2.82,1.04.18.3.35.6.61,1.05-.52.13-.97.25-1.27.32-.35-1.91.46-3.14,1.71-4.5.13.09.29.2.4.27,2.9-4.64,5.81-9.83,10-13.79-1.1-.9-1.67-2.74-.22-3.57.66.05,1.36.34,1.71.08.63-.78,1.13-1.84-.33-2.35,0-1.37,1.82-2.87.51-4.08-.76-.85-.5-2.63-1.97-2.74-1.54-.47-2.35.92-3.67,1.34-1.28-.24-1.53,1.02-2.2,1.87-.78-.44-1.74-.57-2.25-1.22-.35-1.43-1.43-.99-2.58-1.25.28-.3.51-.54.76-.8-1.61-.45-1.24,1.18-.68,1.97-.35.29-.66.54-1.16.96-.15-1,.72-2.27-.49-2.7-2-.02-2.09-3.77-4.13-2.35.01-.32.03-.62.04-.93-1.12-.02-1.15-.98-1.74-1.66-2.3-1.89-1.62-1.26-2.3-3.98-.2.13-.39.26-.63.42-.65-.98-1.56-1.13-1.86-2.57-1.33-2.88-5.35-3.06-7.08-5.39-.59.08-1.04.15-1.6.23,1.38-2.04.17-3.32.28-5.29.8-1.97,1.6-3.94,2.4-5.91l.36.03c-.08.99-.17,1.98-.27,3.2.81-.92.53-1.85.96-2.71.18.12.33.22.49.32.07-.03.13-.07.2-.1.02-1.52-1.86-.95-.62-2.47,8.1-15.25,14.39-31.29,23.08-46.17.45-.86.74-1.6,1.64-.57,1.74.56,1.81-2.35,3.56-2.19.43-.03.74-1.27.44-1.89-.07.32-.12.54-.19.83-1,.02-1.96.05-2.95.07.29-2.05,2.6-2.16,4.1-1.52,1.68-2.49,2.3-6.22,5.74-6.79-.14-.17-.27-.33-.54-.66,2.52-.59,4.58,2.55,6.67,1.91.44-.39.74-.3.82.31-.22.08-.43.16-.72.26,4.26,1.53,8.62,5.25,12.52,6.03.92,2.41,2.38-.58,3.43-1.49.52-.83,1.39-.07,2.02-.6,8.95-9.04,16.93-19.51,26.77-26.99.55,0,1.6.23,1.95.82,1.85,1.28,2.47-3.79,6.84,1.16.67,1.15,2.43-.46,2.71,1.05.28,1.14,1.69,1.09,2.21,2.07,1.79,1.08,2.56,3.15,4.74,3.8.69.39.8.85,1.5-.02.12,1.41.31,1.52,1.4.76.08.41.15.79.23,1.18l1.12-.48c-.47,6.94,24.59-23.99,27.83-25.77,1.61.35-.19,1.26.7,2.16.5.14.96-.69,1.34-.89,1.68-.33-.02,1.92,1.23,2.22.72.18.83,1.9,1.68.96.18.36.42.65.47.98.12.87,1.5.81,1.69.11.11-.93-.63-2.36.92-2.13.69.04.42,1.09.95,1.37-.25.4-.45.71-.64,1.02.44.12.87.25,1.44.41-.46,1.12-.41,1.3.7,1.76.24,1.01,1.23,1.47,1.97,2.04.85.7,1.65,2.05,3.01,1.97-.37,1.39,1.42.55,2.12.97-1.04.97-.93,1.29.14,1.93-.03.06-.05.13-.08.19-.47-.05-.95-.1-1.6-.18.27.73,1.16.62.75,1.48-.07.73,1.22.92,1.84.42-.16.32-.26.5-.4.76.57-.04.21,1.01.96.71.42-.17.76-.55,1.1-.95-1.08.65-1.34-.4-.4-.95,1.36.03,2.05-.86,2.83-1.74,1.16-1.32,2.16-2.09,3.9-1.32.42.37.79.74,1.36.09,1.02.93,2.01,1.82,3,2.71.08-.07.16-.13.24-.2-.2-.33-.4-.66-.71-1.16,1.92,1.3,3.92-1.03,5.36.41.24,1.62,1.15,2.49,2.36,3.45,1.08.96.46,2.64,1.64,3.51.59.44.42,1.54,1.36.95,1.14-.8,2.06,1.3,1.41,2.17.42.08.74.14,1.02.2-.35.43-.66.8-.97,1.18.6.26-.51,1.37.74,1.34.08-.23.16-.48.24-.72,1,.67,2.3,1.19,1.22,2.57.32.04.61.08.96.13-.05.23-.1.43-.11.51.4.36.74.67,1.12,1.02-.2.25-.37.47-.65.83,1-.26,1.85-.48,2.78-.72.02.31.03.5.04.68,2.53.55.47,4.43.01,6.05.08.06.16.11.24.17,1.62-1.38,2.45-3.49,3.88-5.07.08.05.17.1.25.15-.38.97-.89,1.91-1.08,2.95,1.03-.03,1.49-.81,2.02-1.57,3.26,2.24,14.63-18.5,13.48-7.99.09.03.19.06.28.09,1.09-2.14,4.51-2.62,4.52.4-.1.89.73.56,1.29.5.59-.14.81.11.81.66-.08,1.96,4.51.52,3.97,3.24,2.14-.46,1.24,2.23,2.86,2.41.6,0,1.21.37,1.84.59-.23.49-.43.93-.68,1.46,5.02,1,1.1.78,3.5,2.93,4.4,2.3.16,6.22-.4,9.67.09.04.18.08.27.12-.18.12-.37.23-.61.38.06.15.13.33.2.51-1.45.03-.69,1.27-1.39,2.14-.35.48-.52.81.08,1.22.73.85.62,2.26.92,3.3-.07-.06-.23-.19-.27-.22-.66,1.44.09,2.99-1.8,3.48-.2.76-.28,1.63-1.18,2.08-.32-.33-.58-.62-.85-.9-.14,0-.27-.02-.41-.03.29,2.12-.85,3.45-1.8,5.24,1.24.98,3,.81,3.9,1.87.14.2.27.61.37.6,1.44-.08,1.73,1.32,2.68,1.99.64-.66,1.25-1.28,1.86-1.92.26.19.47.34.67.48.05-.03.1-.06.16-.09l-.43-.92c1.56-3.16,1.7.66,2.81-1.18.48.2-.21,1.17.69.93.13-.03.11-.59.19-1.07,1.15,0,1.44,1.55,2.79.38.07.77.04,1.14.21,1.76,1.69-.84,3.34-2.18,4.89-3.55,1.02-1.33,1.92-1.91,3.49-.74-.48.14-.75.22-1.02.3,0,.07-.01.13-.02.2.38.07.76.14,1.19.22.03-.18.06-.33.1-.53,1.72.23.03,1.23,1.08,1.8.13-.2.26-.39.3-.45,1.87.37,1.02-1.64.98-2.75h.2c1.29,1.09,1.02,3.4,2.37,4.08.48.04.83.14,1.16.5,1.44.82.73-1.53,1.45-1.89.83-.06,1.28.75,1.73,1.41-.65,1.95,2.24,2.85,3.33,4.16-1.55-.42-2.33-.09-.8,1.44.23-.35.36-.55.59-.9.36.66.51,1.14,1.07,1.53.33-.6.05-1.05-.14-1.63.68.2,1.28.4.87,1.3.35,2.15,4.29-.79,3.39,2.19.9-.3,3.06.32,1.79,1.39-.13.09-.14.6,0,.76.17.19.63.38.8.28.86-.52,1.29.61,1.88,1.04,1.08,1.87-1.13,3.83-.97,5.53,1.2.53-.36,2.02-1.07.88-.31.41-.49.76.19.86,1.62,1.82-2.47,6.47-3.68,8.63.36-.11.59-.17.91-.27.16.62,1.01,1.71,0,1.99-.74.55-.26,1.55-.23,2.5.29.02,1.17-.41,1.4-.38.6.52,1.12.26,1.64-.05.56-.34.7-.05.78.47.8,2.37,1.18,4.78,2.08,7.04.3,1.29.71,3.39,2.18,3.71.36.97,1.89,1.05,1.62,2.51,2.6-.27,2.12,3.13,2.17,4.77,2.93,1.42-1.9,4.93-2.06,7.05-1.37,1.05-1.72,3.22-2.76,3.84-.55.33.13,1.79-.94,1.65-.8.84-1.22,1.96-2.06,3.19,3.36.42,6.45.82,9.53,1.21.03,1.67.88.37,1.74,1.27-.46.32-.8.55-1.11.77,1.15,1.21,1.96,3.8.02,4.52-1.21-.42-.74.5-.82,1.12.54-.18,1-.33,1.52-.5.97,1.17-1.8,1.91-.43,3.31.01,5.67-9.28,6.55-2.15,13.15-.6.93.81,1.58.35,2.49-.86,1.24-.56,2.5,1.03,2.77.03-.12.09-.37.16-.63,1.01.62,2.48,4.08,2.35,5.43.2-.03.46-.07.72-.11-.01.1-.02.19-.03.29-.18.2-.37.39-.55.59.02.09.04.18.07.27.39-.07.79-.13,1.32-.22-.6.68-.24,2.15-1.19,2.22-.15,0-.3.29-.45.45.71.61,1.52,0,2.31-.16.04.07.08.13.12.2-3.13,4.17-9.06,6.46-10.86,11.43-.13,1.58-.41.81-1.47,1.08.51.31,1.43.88.62,1.38-.76.45.06,1.17-.25,1.87-.09,0-.17,0-.26,0-.12-.2-.24-.39-.52-.84-2.75,9.89-14.74,10.7-21.93,16.16-4.72,4.01-9.46,8.24-14.74,11.42-1.03,1.68-4.84,4.86-6.14,2.16.23-.1.46-.2.91-.4-.52-.33-.86-.54-1.35-.84.15,1.11-.97,3.19-.61,1.1-1.21-.58-.15-1.97-.78-3.19-.4.88-.71,1.56-1.01,2.23-1.43-.73-.15-3.63-1.83-3.83-.67,1.02-1.16.59-1.62-.31-.3.54-.54.97-.8,1.44-3.27-3.43-9.81,6.67-13.38,6.07-1.94.18-3.46,3.74-5.53,2.82-8.97-2.23-27.89,23.2-33.17,18.76.28-.12.53-.23,1.03-.44-.49-.36-.82-.6-1.21-.88-1.25,2.45-1.36-.66-1.25-1.81-.1-.03-.2-.06-.3-.09-.37.65-.73,1.31-1.09,1.95-1.62-.22.05-4.78-1.79-3.84-.9,1.31-.92.07-1.66-.32-.18.43-.35.84-.5,1.22-2.08-1.72-4.41.85-6.83.32-.82.38-2.7,1.19-2.44-.6.71-.75,1.48-3.95-.37-3.1-.69-1.1-.61-1.41.38-1.63-.13-1.44-.51-1.98-1.57-.71.17-2.38-1.75-3.38-1.15-5.51.16-.53-.43-1.42-.27-1.96.77-1.47-.33-2.13-.91-3-1.93-.74-2.61-2.2-3.52-4.07-.66.52-1.34,1.05-2.08,1.63.03-.29.05-.51.07-.77-2.13.45-.86,2.03-2.31,3.42-.48-2.06,1.27-3.47,1.16-5.48-7.49,8.85-14.27,20.34-21.91,27.93ZM681.65,565.41c.86.91-.18,1.37.87,1.81.24-.85,1.47-1.29.61-2.46l-.62.31-.41-.2c.22-.27.44-.54.66-.8-1.4-1.64-1.2.32-1.11,1.34ZM433.54,583.75c-.44.6-.88,1.2-1.32,1.79.42.23.89.5,1.37.76.97-1.02.97-1.81-.05-2.56ZM682.42,573.25c-.22-.09-.44-.19-.67-.28.34-.49.68-.99.99-1.43-.25-.17-.55-.37-.85-.58q-.56.48.02,1.05c-.28.19-.56.38-.84.56,0,.12-.02.24-.03.36.46.1.91.21,1.37.31ZM680.45,562.31c-.32.62-.55,1.08-.89,1.73,1.06-.27,2.31-1.14.89-1.73ZM630.91,489.21c-.07.02-.14.05-.21.07-.09.63-.18,1.27-.27,1.97l.9-.41c-.14-.53-.28-1.08-.42-1.62ZM579.68,443.77c-.85.5-.87.79-.1,1.43.03-.49.06-.9.1-1.43ZM438.81,478.72c.65.15,1.03.17,1.06-.48-.43-.54-.69.02-1.06.48ZM431.94,591.01c-.47.93-.38,1.12.48,1.24-.18-.46-.33-.85-.48-1.24ZM681.27,569.7c.15.01.31.02.46.04,0-.41.01-.82.02-1.23-.12,0-.24-.02-.36-.03-.04.41-.08.81-.12,1.22ZM476.36,639.14c-.03.39-.06.77-.11,1.27.93-.49.84-.89.11-1.27Z"/></clipPath><filter id="drop-shadow-1" x="181.04" y="117.57" width="52.19" height="93.69" filterUnits="userSpaceOnUse"><feOffset dx="-1.22" dy="0"/><feGaussianBlur result="blur" stdDeviation="0"/><feFlood flood-color="#42496f" flood-opacity="1"/><feComposite in2="blur" operator="in"/><feComposite in="SourceGraphic"/></filter><clipPath id="clippath-1"><rect class="cls-6" x="189.98" y="133.42" width="38.68" height="63.94" rx="19.34" ry="19.34"/></clipPath><clipPath id="clippath-2"><path class="cls-6" d="M221.67,166.46h10.21v20.95h-10.21c-5.78,0-10.48-4.69-10.48-10.48h0c0-5.78,4.69-10.48,10.48-10.48Z"/></clipPath><clipPath id="clippath-3"><circle class="cls-6" cx="192.66" cy="171.84" r="9.4"/></clipPath></defs><g class="cls-16"><g id="bateau_03"><g class="cls-15"><polyline class="cls-5" points="209.32 135.03 209.59 127.24 205.29 128.59 205.83 120.8"/><circle class="cls-2" cx="205.83" cy="120.26" r="2.69"/><rect class="cls-4" x="189.98" y="133.42" width="38.68" height="63.94" rx="19.34" ry="19.34"/><g class="cls-14"><path class="cls-2" d="M221.67,166.46h10.21v20.95h-10.21c-5.78,0-10.48-4.69-10.48-10.48h0c0-5.78,4.69-10.48,10.48-10.48Z"/><g class="cls-18"><line class="cls-7" x1="211.2" y1="176.94" x2="232.92" y2="176.94"/><line class="cls-7" x1="216.3" y1="164.58" x2="216.3" y2="190.37"/><line class="cls-7" x1="221.81" y1="164.58" x2="221.81" y2="189.3"/><line class="cls-7" x1="227.32" y1="165.12" x2="227.32" y2="190.1"/></g><g class="cls-13"><line class="cls-10" x1="186.76" y1="152.52" x2="232.36" y2="152.52"/><line class="cls-10" x1="205.29" y1="152.52" x2="205.29" y2="209.22"/><line class="cls-10" x1="215.83" y1="132.17" x2="215.83" y2="152.52"/></g><g class="cls-11"><line class="cls-9" x1="202.06" y1="155.56" x2="202.06" y2="192.97"/><line class="cls-9" x1="208.44" y1="155.56" x2="208.44" y2="192.97"/><line class="cls-9" x1="212.37" y1="150.06" x2="212.37" y2="129.45"/><line class="cls-9" x1="219.29" y1="150.06" x2="219.29" y2="129.45"/></g><path class="cls-12" d="M226.11,190.14s-5.99,2.9-10.69,1.45c0,0-4.33-8.53-12.55-8.77,0,0-1.37-1.86-2.04-3.59,0,0,2.14-3.78.62-8.56-1.51-4.78-16.85-5.73-16.85-5.73v34.6s38.19,2.9,38.19,2.9l3.31-12.29Z"/><path class="cls-12" d="M221.42,157.2s-.34,5.23-6.55,5.23c-5.75,0-6.5-7.61-6.5-7.61l13.05,2.37Z"/></g><circle class="cls-2" cx="216.57" cy="157.87" r="3.49"/><polygon class="cls-1" points="223.18 158.27 207.19 156.19 207.82 151.39 223.64 154.68 223.18 158.27"/><circle class="cls-2" cx="192.66" cy="171.84" r="9.4"/><circle class="cls-3" cx="191.44" cy="171.84" r="3.49"/><g class="cls-17"><path class="cls-12" d="M182.26,173.71s4.19-1.87,7.62-1.87,9.09,5.67,9.09,5.67c0,0-10.57,9.32-16.71-3.8Z"/></g><path class="cls-2" d="M196.78,190.48c-2.21,2.05-4.07,4.6-5.19,7.35-1.18,2.7-1.43,5.78-.09,7.53.34.44.75.84,1.28,1.15.49.35.99.53,1.51.62,1.02.17,2.23-.17,3.42-.87,2.38-1.42,4.54-3.89,6.25-6.41l3.42,2.25c-1,1.5-2.08,2.87-3.32,4.18-1.24,1.3-2.61,2.53-4.29,3.52-1.65.97-3.8,1.73-6.09,1.38-1.12-.17-2.21-.61-3.08-1.2-.9-.55-1.72-1.3-2.38-2.18-1.34-1.79-1.79-4.03-1.7-5.99.07-2,.59-3.83,1.29-5.52,1.41-3.4,3.56-6.33,6.21-8.81l2.77,3.01Z"/><line class="cls-8" x1="207.37" y1="202.09" x2="203.95" y2="199.85"/><line class="cls-8" x1="204.46" y1="205.84" x2="201.43" y2="203.09"/><line class="cls-8" x1="200.84" y1="209.1" x2="198.49" y2="205.75"/><line class="cls-8" x1="195.9" y1="211.18" x2="195.36" y2="207.13"/><line class="cls-8" x1="190.29" y1="209.77" x2="192.61" y2="206.4"/><line class="cls-8" x1="186.9" y1="205.2" x2="190.82" y2="204.02"/><line class="cls-8" x1="186.73" y1="199.86" x2="190.75" y2="200.59"/><line class="cls-8" x1="188.3" y1="195.16" x2="191.99" y2="196.92"/><line class="cls-8" x1="190.8" y1="191.04" x2="194.07" y2="193.48"/><line class="cls-8" x1="194.01" y1="187.47" x2="196.78" y2="190.48"/><circle class="cls-1" cx="195.62" cy="188.76" r="6.18"/><circle class="cls-12" cx="194.23" cy="190.21" r="3.87" transform="translate(-51.87 305.7) rotate(-69.54)"/><path class="cls-1" d="M204.77,204.22l-1.89-.41,3.56-17.09,1.89.41c4,.87,6.44,5.4,5.46,10.12h0c-.98,4.72-5.02,7.84-9.02,6.97Z"/></g></g></g></svg>