<?xml version="1.0" encoding="UTF-8"?>
<svg id="a" data-name="bateau 06" xmlns="http://www.w3.org/2000/svg" width="300" height="300" xmlns:xlink="http://www.w3.org/1999/xlink" viewBox="0 0 300 300">
  <defs>
    <filter id="b" data-name="drop-shadow-2" x="108.132" y="43.021" width="96.515" height="32.808" filterUnits="userSpaceOnUse">
      <feOffset dx="-1.219" dy="0"/>
      <feGaussianBlur result="c" stdDeviation="0"/>
      <feFlood flood-color="#42496f" flood-opacity="1"/>
      <feComposite in2="c" operator="in"/>
      <feComposite in="SourceGraphic"/>
    </filter>
    <clipPath id="d">
      <path d="M139.209,74.757c.644,5.226,44.818-20.19,65.437-21.192,0,0-14.82-2.577-31.86,2.721,16.682-6.945,26.562-9.307,31.86-9.88-12.529-1.647-44.81,3.731-65.437,11.598,0,0-.859,11.527,0,16.753Z" fill="none"/>
    </clipPath>
    <clipPath id="e">
      <path d="M115.44,53.421s15.178-10.811,31.502-7.875l.573,16.18s-10.596,2.577-29.211,10.166l-2.864-18.471Z" fill="none"/>
    </clipPath>
  </defs>
  <g filter="url(#b)">
    <path d="M139.209,74.757c.644,5.226,44.818-20.19,65.437-21.192,0,0-14.82-2.577-31.86,2.721,16.682-6.945,26.562-9.307,31.86-9.88-12.529-1.647-44.81,3.731-65.437,11.598,0,0-.859,11.527,0,16.753Z" fill="#efa78e"/>
    <g clip-path="url(#d)">
      <g>
        <path d="M114.118,73.398c.117.461.034.911-.25,1.351-.16.244-.351.437-.57.578-.234.146-.566.272-.994.382-.612.156-1.229.159-1.85.01-.052-.009-.091-.066-.118-.171-.005-.021-.055-.209-.148-.562-.094-.354-.144-.544-.151-.571-.009-.037.018-.064.083-.08l.188-.049c.056-.014.091-.003.106.032.029.113.066.222.113.325.12.265.325.468.616.611.291.145.646.162,1.068.055.572-.146.918-.431,1.039-.855.05-.189.041-.42-.028-.69-.062-.243-.197-.417-.403-.521-.216-.149-.587-.237-1.116-.266-.588-.033-1.083-.149-1.483-.348-.401-.197-.673-.577-.817-1.14-.133-.521-.017-1.023.347-1.509.285-.375.712-.634,1.281-.779.627-.16,1.155-.147,1.583.038.059.028.098.062.115.104.085.194.183.507.293.938.016.063.011.1-.017.106l-.226.058c-.034.009-.06-.003-.079-.038-.052-.101-.114-.209-.186-.325-.106-.173-.258-.297-.454-.37-.335-.122-.726-.126-1.172-.012-.342.087-.583.245-.724.475-.156.261-.188.554-.095.88.062.221.217.41.464.569.126.08.523.162,1.193.246.399.052.692.1.877.145.311.075.583.182.819.322.333.195.563.551.694,1.062Z" fill="#fff"/>
        <path d="M118.863,73.179c-.001.021-.006.039-.014.059-.151.254-.374.498-.669.729-.311.247-.645.417-1.001.508-.569.146-1.062.101-1.479-.134-.478-.269-.812-.689-1.001-1.264-.095-.297-.143-.618-.142-.961.002-.493.109-.901.321-1.228.226-.356.543-.586.948-.689.326-.083.666-.106,1.02-.069.307.034.605.136.895.309.201.118.354.23.458.334.033.028.058.073.073.135.01.037-.009.072-.056.104-.047.034-.233.13-.557.29-.325.159-.532.258-.621.293-.177.075-.356.152-.536.231-.343.143-.569.229-.677.256-.015.004-.078.021-.186.053-.108.03-.172.048-.189.053-.031.008-.024.084.019.229.178.585.473,1.021.885,1.313.139.096.344.146.613.148.236.002.465-.026.686-.086.342-.098.601-.225.777-.382.112-.1.192-.19.24-.271.01-.013.022-.025.039-.039.016-.004.05.009.104.042.031.019.047.029.049.036ZM117.185,71.091c-.002-.007-.025-.043-.072-.109-.108-.117-.178-.188-.206-.212-.092-.076-.217-.15-.377-.224-.226-.103-.456-.125-.689-.065-.197.051-.344.201-.44.452-.033.09-.053.236-.06.44-.007.202.004.362.033.476.016.062.036.089.061.083.163-.042.381-.111.655-.207.093-.034.271-.117.538-.251.266-.133.436-.226.511-.277.041-.033.056-.068.047-.105Z" fill="#fff"/>
        <path d="M123.47,72.454c-.002.018-.011.045-.028.081-.117.197-.23.342-.341.437-.022.028-.049.047-.079.055-.225.058-.479.03-.76-.078-.282-.11-.499-.268-.649-.472-.035-.05-.062-.05-.079,0-.066.216-.166.413-.301.592-.216.281-.477.461-.781.539-.233.06-.455.06-.664-.002-.237-.07-.39-.235-.455-.493-.079-.308-.051-.603.083-.887.133-.283.353-.527.658-.733.321-.219.668-.425,1.041-.619.026-.013.033-.051.021-.113-.1-.464-.178-.772-.237-.928-.058-.149-.156-.255-.292-.317-.152-.07-.332-.078-.538-.025-.206.053-.366.138-.48.254-.055.054-.07.131-.044.233l.046.18c.041.159.042.301,0,.423-.052.207-.2.341-.443.403-.188.048-.302-.008-.342-.165-.037-.144-.006-.339.093-.588.099-.248.234-.453.406-.614.269-.258.627-.445,1.076-.561.394-.1.728-.088,1.002.039.1.043.197.143.292.3.085.138.141.268.168.39l.373,1.825c.075.345.23.567.465.668.206.088.439.135.699.142.053.003.082.014.088.035ZM121.235,71.227c-.015-.058-.047-.081-.096-.068-.207.053-.412.169-.619.35-.382.336-.527.689-.432,1.059.057.221.152.366.288.436.135.068.273.075.413.02.235-.093.42-.31.557-.648.036-.088.05-.182.042-.28-.034-.311-.084-.599-.153-.866Z" fill="#fff"/>
        <path d="M125.564,72.456c.068.381-.079.807-.442,1.271-.032.042-.083.092-.154.148-.116.046-.196.033-.24-.037-.023-.039.004-.117.083-.232.144-.221.19-.478.137-.772-.031-.162-.089-.254-.173-.274-.028-.01-.115.005-.26.042-.117.03-.238.009-.364-.06-.126-.07-.205-.168-.237-.294-.027-.104-.019-.2.024-.286.083-.152.268-.256.556-.309.222-.041.441.015.656.166.228.161.366.373.414.637Z" fill="#fff"/>
        <path d="M132.015,68.829c.117.461.034.91-.25,1.351-.16.244-.351.437-.57.578-.234.145-.566.272-.994.382-.612.156-1.229.159-1.85.01-.052-.01-.092-.067-.118-.172-.005-.021-.055-.208-.147-.561-.094-.354-.144-.544-.151-.571-.009-.037.019-.064.083-.081l.188-.048c.056-.015.091-.003.106.032.029.113.066.221.113.325.12.265.325.468.616.611s.646.162,1.068.055c.572-.146.918-.431,1.039-.856.05-.188.041-.419-.028-.689-.062-.243-.196-.417-.403-.521-.215-.148-.587-.236-1.116-.266-.588-.032-1.083-.148-1.483-.347-.401-.197-.673-.577-.817-1.14-.133-.521-.017-1.023.348-1.509.284-.375.711-.634,1.28-.779.627-.16,1.155-.147,1.583.038.059.027.098.062.115.104.085.194.184.507.293.938.017.063.011.1-.017.106l-.226.058c-.034.009-.06-.003-.079-.038-.053-.101-.114-.209-.187-.326-.106-.172-.258-.296-.454-.37-.335-.121-.726-.125-1.172-.011-.341.087-.583.245-.724.475-.156.261-.188.554-.095.879.063.222.217.411.464.57.126.079.523.162,1.194.246.4.052.692.1.877.144.311.076.583.182.818.322.333.196.563.552.694,1.062Z" fill="#fff"/>
        <path d="M136.761,68.609c-.001.021-.006.039-.014.058-.151.255-.374.498-.669.73-.311.247-.645.416-1.001.508-.569.145-1.062.101-1.479-.135-.478-.268-.812-.688-1.001-1.263-.095-.297-.143-.618-.142-.962.002-.492.109-.9.321-1.227.226-.356.543-.586.948-.689.326-.084.667-.107,1.02-.069.307.034.605.136.895.309.201.118.354.229.458.334.033.028.059.073.074.134.009.037-.01.072-.057.105-.047.034-.233.13-.557.29-.325.159-.531.258-.621.293-.178.075-.357.152-.536.231-.343.143-.569.229-.677.256-.015.004-.078.021-.186.053-.108.03-.171.048-.189.053-.031.008-.024.084.019.229.179.585.473,1.021.885,1.313.139.096.344.146.613.148.236.002.465-.027.686-.086.342-.099.602-.225.777-.382.112-.1.192-.19.24-.271.01-.014.022-.026.039-.039.016-.004.05.009.104.042.031.018.047.029.048.036ZM135.083,66.521c-.001-.007-.025-.043-.072-.109-.108-.117-.178-.188-.206-.213-.092-.075-.217-.149-.376-.223-.227-.103-.457-.125-.69-.065-.197.051-.344.201-.44.451-.032.091-.053.237-.06.441-.007.202.004.361.033.475.016.062.037.09.061.084.163-.042.381-.111.655-.207.093-.034.272-.117.538-.251.266-.133.436-.226.511-.277.041-.033.057-.068.047-.105Z" fill="#fff"/>
        <path d="M142.329,67.896c.011.043.007.066-.011.071l-2.206.563c-.031.008-.05-.003-.058-.034l-.043-.171c-.008-.031,0-.049.025-.056l.484-.124c.055-.014.077-.043.065-.09-.012-.043-.045-.088-.103-.131-.23-.197-.654-.557-1.272-1.077-.038-.031-.072-.025-.104.018-.293.394-.486.701-.58.925-.14.324-.192.555-.157.692.034.133.107.185.222.156l.434-.111c.025-.006.043.013.054.056l.034.133c.011.043-.002.069-.039.079l-1.804.461c-.043.011-.068.002-.076-.029l-.048-.189c-.006-.024.009-.042.046-.052l.332-.085c.064-.017.111-.065.139-.147.008-.019.05-.116.126-.293.204-.462.396-.826.576-1.096.21-.306.375-.532.495-.678.037-.049.041-.084.012-.105-.244-.2-.546-.431-.904-.693-.408-.299-.686-.496-.834-.592-.134-.089-.283-.11-.449-.068l-.208.053c-.031.008-.05-.002-.058-.033l-.043-.172c-.01-.037,0-.059.032-.066l2.173-.556c.025-.006.041.008.049.038l.046.18c.006.024-.006.04-.037.048l-.396.101c-.077.02-.109.055-.096.104.014.057.077.129.188.219.162.135.487.395.976.777.044.035.078.026.101-.025.113-.186.262-.433.446-.738.12-.207.153-.418.1-.63-.023-.089-.087-.121-.191-.095l-.396.102c-.028.007-.045,0-.051-.025l-.046-.18c0-.017,0-.029.003-.037.002-.009.018-.018.045-.025l1.786-.455c.031-.009.049,0,.056.024l.048.189c.008.031-.007.051-.044.061l-.286.073c-.086.021-.155.092-.208.205-.145.316-.354.693-.625,1.133-.092.151-.22.35-.384.594-.03.048-.023.09.021.123.622.475,1.109.854,1.461,1.142.386.317.652.456.8.419l.305-.078c.019-.005.031.006.037.03l.044.171Z" fill="#fff"/>
        <path d="M152.771,64.06c.029.113.032.228.009.343-.082.37-.22.685-.414.939-.096.123-.234.208-.412.254-.36.092-.701.128-1.024.11-.322-.018-.59-.053-.804-.106-.069-.015-.126-.003-.172.034-.474.416-1.141.734-2.002.954-1.126.287-1.989.281-2.591-.021-.515-.259-.856-.745-1.025-1.458-.094-.394-.096-.802-.004-1.228.058-.262.152-.466.284-.613.131-.148.242-.267.335-.353.031-.018.019-.054-.037-.107-.076-.076-.166-.168-.272-.274-.132-.159-.22-.326-.264-.498-.022-.086,0-.194.064-.325.211-.415.465-.748.761-1.002.058-.047.179-.095.367-.143.243-.062.503-.095.781-.101.21,0,.378.02.507.062.097.03.143.066.141.106.009.188.002.425-.021.709-.012.145-.035.219-.065.227-.019.004-.072-.024-.16-.09-.079-.053-.189-.099-.33-.139-.373-.098-.732-.103-1.08-.014-.24.062-.338.177-.295.346.02.076.079.163.179.259.241.236.519.471.833.701.492.363.888.621,1.186.774.023.015.042.023.057.029.058.021.081.008.068-.041-.124-.484-.058-.873.198-1.167.265-.311.592-.515.979-.614.314-.08.683-.116,1.107-.109.352.005.735-.047,1.15-.152.225-.058.387-.148.485-.275.125-.163.148-.323.069-.48-.033-.062-.04-.105-.022-.126.041-.07.086-.111.135-.124.016-.004.05.012.104.042.078.046.141.143.191.286.107.293.125.54.051.739-.126.339-.318.548-.577.624-.36.105-.66.137-.899.097-.038-.006-.059,0-.063.021-.005.017.007.04.037.064.191.183.335.425.435.724.021.071.04.138.057.202.139.544.086,1.056-.159,1.534-.016.038.001.067.053.091.089.053.273.085.552.1.217.014.417-.003.602-.051.277-.07.488-.293.635-.668.037-.098.068-.145.091-.141.029-.002.077,0,.144.002.027.003.044.018.051.046ZM149.488,65.424c-.292-.054-.647-.167-1.066-.343-.553-.231-1.025-.463-1.415-.694-.719-.427-1.271-.816-1.656-1.17-.043-.031-.082-.034-.115-.011-.266.239-.329.637-.187,1.193.153.6.513,1.068,1.081,1.405.333.197.748.299,1.248.306.322.006.673-.039,1.052-.136.437-.111.779-.259,1.026-.445.083-.061.093-.096.032-.105ZM150.229,63.21c-.098-.385-.296-.661-.594-.827-.319-.221-.691-.275-1.119-.166-.292.075-.508.197-.648.367-.032.041-.06.123-.084.247-.026.154-.022.3.013.435.082.323.206.533.373.633.186.109.461.235.829.378.397.157.725.263.98.314.093.02.155-.003.184-.066.173-.375.195-.813.067-1.314Z" fill="#fff"/>
        <path d="M159.403,61.836c.118.461.035.911-.25,1.351-.161.245-.351.438-.57.578-.234.146-.566.272-.994.382-.612.156-1.229.16-1.85.011-.052-.01-.091-.067-.118-.172-.005-.021-.055-.209-.148-.562-.094-.354-.144-.544-.15-.571-.01-.037.018-.063.082-.08l.189-.048c.055-.015.09-.004.106.032.029.113.066.221.112.324.12.265.325.469.616.611.291.145.646.163,1.068.056.571-.146.918-.432,1.039-.856.05-.188.04-.419-.029-.689-.062-.243-.197-.417-.403-.521-.215-.148-.587-.237-1.115-.266-.589-.033-1.083-.148-1.484-.348-.4-.196-.673-.576-.816-1.139-.133-.521-.018-1.023.347-1.509.284-.375.711-.634,1.28-.779.627-.16,1.155-.148,1.582.038.06.027.098.062.115.103.086.194.184.508.293.938.017.063.011.099-.017.106l-.226.058c-.034.009-.06-.004-.079-.038-.052-.102-.114-.21-.187-.326-.106-.173-.257-.296-.453-.37-.335-.121-.727-.125-1.173-.012-.341.087-.583.246-.724.476-.156.26-.188.554-.095.879.062.221.218.41.465.57.125.079.522.161,1.193.245.4.052.692.1.877.145.311.075.583.182.819.322.332.196.563.551.694,1.062Z" fill="#fff"/>
        <path d="M165.071,61.957c.006.024-.003.05-.029.075-.14.068-.301.15-.483.247-.056.037-.128.092-.218.163-.032.031-.05.048-.057.049-.024.007-.072-.006-.142-.037-.136-.057-.315-.232-.538-.526-.025-.036-.057-.031-.095.014-.091.132-.327.377-.711.737-.15.118-.433.229-.849.335-.267.068-.523.017-.767-.154-.229-.164-.377-.381-.446-.651l-.456-1.786c-.198-.775-.363-1.146-.495-1.111l-.513.131c-.043.011-.069,0-.077-.03l-.048-.189c-.008-.03,0-.049.025-.056l.595-.151c.286-.073.514-.146.682-.219.127-.052.222-.086.283-.102.04-.011.071.026.092.109.002.006.119.478.351,1.411.232.936.359,1.444.38,1.523.075.295.172.479.29.553.118.071.313.074.584.005.246-.062.476-.18.691-.354.097-.096.195-.191.296-.286.03-.008.039-.037.025-.091l-.594-2.324c-.109-.428-.221-.627-.334-.599l-.503.129c-.043.011-.068,0-.077-.03l-.048-.188c-.008-.03.003-.051.034-.059l.72-.185c.203-.052.375-.104.514-.16.023-.012.073-.033.148-.062.076-.03.126-.049.149-.06.042-.016.075.023.1.119.003.012.123.494.36,1.447.237.955.362,1.456.375,1.505.112.44.346.707.7.8.05.013.077.032.083.058Z" fill="#fff"/>
        <path d="M170.444,60.727c.009.037.001.059-.023.065l-1.966.502c-.031.008-.049,0-.055-.025l-.048-.189c-.008-.029.003-.051.034-.059l.351-.089c.034-.009.053-.04.054-.097-.058-.382-.214-1.072-.469-2.072-.129-.505-.285-.818-.467-.945-.183-.125-.412-.152-.689-.081-.271.068-.535.188-.794.355-.048.03-.063.079-.046.144.015.137.191.863.527,2.18.159.625.29.924.392.898l.461-.118c.034-.009.055.004.063.034l.048.189c.006.024-.008.04-.042.049l-2.137.545c-.015.004-.028.005-.037,0-.009-.004-.017-.019-.023-.044l-.046-.18c-.006-.025.006-.041.036-.049l.531-.136c.049-.013.068-.049.056-.107-.333-1.384-.574-2.362-.72-2.938-.117-.458-.227-.674-.328-.647l-.54.138c-.037.01-.06-.005-.069-.042l-.046-.18c-.007-.027.002-.045.026-.051l.623-.159c.196-.05.354-.097.47-.139.291-.107.447-.164.469-.17.043-.011.073.019.091.09.004.015.017.071.038.17.022.097.036.157.041.179.026.102.056.135.09.101.124-.141.286-.297.484-.469.23-.199.458-.327.683-.385.403-.103.74-.075,1.01.085.316.188.551.58.704,1.178.052.205.135.554.247,1.044.113.491.167.731.165.723.09.354.12.486.091.396.053.166.107.241.166.227l.484-.124c.037-.009.059-.004.063.015l.048.188Z" fill="#fff"/>
      </g>
    </g>
    <path d="M147.514,61.726c0,5.012-8.949,5.226-8.305,13.03l-1.718-13.603,10.023.573Z" fill="#42496f"/>
    <path d="M115.44,53.421s15.178-10.811,31.502-7.875l.573,16.18s-10.596,2.577-29.211,10.166l-2.864-18.471Z" fill="#efa78e"/>
    <g clip-path="url(#e)">
      <g>
        <path d="M129.423,59.483c.118.461.035.912-.249,1.352-.161.244-.351.438-.57.577-.234.146-.566.272-.994.382-.612.156-1.229.16-1.85.012-.052-.011-.091-.068-.118-.172-.005-.021-.055-.209-.148-.562-.094-.353-.144-.544-.151-.571-.009-.037.018-.062.083-.079l.189-.049c.055-.014.09-.004.106.031.029.113.067.223.113.325.12.265.325.469.616.612.291.145.646.162,1.067.055.572-.146.919-.431,1.04-.855.05-.189.04-.42-.029-.691-.062-.242-.197-.415-.404-.521-.215-.148-.586-.237-1.114-.266-.589-.033-1.083-.148-1.484-.347-.4-.197-.673-.576-.817-1.141-.133-.52-.017-1.021.347-1.508.285-.375.712-.635,1.281-.779.627-.16,1.155-.147,1.582.038.06.027.098.062.115.103.085.195.183.508.293.938.017.064.011.1-.017.107l-.226.058c-.034.008-.06-.004-.079-.039-.052-.102-.114-.21-.187-.326-.106-.173-.257-.297-.453-.37-.336-.12-.727-.125-1.173-.011-.341.087-.583.246-.724.475-.156.26-.188.553-.095.88.062.22.217.409.465.569.125.08.522.161,1.192.245.4.053.693.101.878.146.311.074.583.182.819.322.332.196.563.55.693,1.061Z" fill="#fff"/>
        <path d="M134.169,59.266c-.002.019-.006.038-.015.057-.151.255-.375.499-.669.731-.311.246-.644.415-1.001.506-.569.146-1.062.101-1.479-.133-.479-.269-.812-.688-1.001-1.264-.096-.297-.143-.617-.142-.961.001-.492.109-.901.32-1.228.227-.356.543-.586.95-.689.326-.083.665-.106,1.02-.069.307.033.604.137.895.308.2.119.354.23.459.335.033.027.058.073.073.135.009.036-.01.071-.057.105-.047.032-.233.13-.558.289-.325.159-.532.257-.621.293-.177.074-.355.151-.535.23-.344.143-.569.229-.677.257-.016.004-.078.021-.186.052-.109.031-.172.048-.19.053-.031.008-.024.085.02.231.178.585.474,1.021.886,1.313.139.096.343.145.613.147.236.002.465-.027.685-.087.342-.097.602-.224.778-.381.112-.101.192-.191.241-.271.01-.013.022-.026.039-.04.016-.004.05.011.104.042.031.02.047.031.049.038ZM132.491,57.177c-.001-.006-.025-.043-.072-.109-.108-.116-.177-.188-.206-.212-.091-.075-.217-.149-.377-.225-.226-.103-.456-.124-.689-.063-.196.05-.344.199-.44.45-.032.091-.052.237-.059.44-.008.203.003.362.032.476.016.062.036.089.061.083.163-.041.381-.109.655-.206.093-.034.272-.117.538-.25.266-.134.436-.226.512-.277.04-.034.056-.069.046-.106Z" fill="#fff"/>
        <path d="M138.776,58.54c-.002.017-.011.045-.028.081-.116.196-.23.343-.34.437-.022.028-.049.047-.08.055-.224.058-.478.031-.76-.079-.282-.109-.498-.267-.648-.47-.036-.051-.062-.05-.079,0-.066.217-.167.415-.3.594-.217.281-.478.461-.782.538-.234.061-.455.06-.665-.003-.237-.07-.389-.234-.455-.493-.078-.308-.051-.603.084-.886.134-.282.353-.528.657-.733.321-.219.668-.426,1.042-.62.025-.013.032-.051.02-.112-.099-.464-.178-.772-.236-.928-.058-.149-.156-.256-.293-.318-.152-.07-.331-.078-.538-.025-.206.053-.366.139-.48.255-.056.054-.07.132-.044.233l.046.18c.041.16.041.301,0,.422-.053.207-.199.342-.442.403-.188.048-.302-.006-.342-.163-.037-.144-.006-.34.093-.59.099-.248.234-.452.406-.614.269-.258.627-.444,1.076-.559.394-.101.729-.089,1.003.038.1.043.197.143.293.299.084.139.14.269.168.39l.373,1.826c.074.345.23.567.465.669.206.086.439.134.699.141.053.002.082.014.087.035ZM136.542,57.312c-.015-.058-.047-.08-.096-.068-.207.053-.413.169-.619.35-.383.337-.526.689-.433,1.059.057.223.152.367.288.436.135.068.273.076.413.021.235-.093.421-.31.557-.648.037-.088.05-.183.042-.281-.033-.31-.084-.598-.152-.866Z" fill="#fff"/>
        <path d="M140.871,58.542c.068.382-.079.807-.442,1.272-.032.041-.083.09-.153.147-.117.046-.197.033-.241-.037-.023-.039.005-.117.084-.232.143-.222.188-.478.136-.771-.032-.163-.089-.256-.173-.276-.028-.009-.114.005-.26.042-.116.03-.238.01-.363-.059-.126-.07-.205-.167-.237-.293-.027-.105-.019-.201.025-.287.082-.152.267-.256.555-.309.223-.041.441.016.657.165.228.161.366.375.414.638Z" fill="#fff"/>
        <path d="M147.321,54.914c.118.461.035.911-.249,1.352-.16.243-.351.437-.57.577-.234.146-.566.272-.994.382-.611.156-1.228.159-1.849.011-.052-.01-.091-.067-.118-.171-.005-.021-.055-.209-.148-.562-.094-.353-.144-.544-.151-.571-.009-.037.018-.062.083-.079l.189-.049c.055-.014.09-.004.106.031.029.113.067.223.113.325.12.265.325.468.616.612.291.145.646.161,1.068.054.572-.146.918-.43,1.04-.854.05-.19.04-.421-.029-.691-.062-.243-.196-.415-.403-.521-.216-.148-.587-.237-1.115-.266-.589-.033-1.083-.148-1.484-.347-.4-.197-.673-.577-.817-1.141-.133-.521-.017-1.022.347-1.508.284-.376.711-.635,1.28-.78.627-.16,1.155-.146,1.582.039.06.027.098.062.115.103.086.195.184.507.293.938.017.064.011.1-.017.106l-.226.058c-.034.009-.06-.003-.079-.038-.052-.102-.114-.21-.187-.326-.105-.173-.257-.297-.453-.37-.335-.121-.727-.125-1.173-.011-.341.087-.583.245-.724.475-.156.26-.188.553-.095.88.063.22.217.409.465.568.125.08.522.162,1.192.246.4.053.693.101.878.145.31.075.583.183.819.323.332.195.563.55.693,1.061Z" fill="#fff"/>
        <path d="M152.067,54.695c-.002.02-.006.039-.015.058-.151.255-.374.499-.668.73-.311.247-.645.416-1.002.507-.568.146-1.062.101-1.479-.134-.478-.268-.812-.688-1.001-1.263-.096-.297-.143-.618-.142-.961.001-.493.109-.902.321-1.228.227-.356.543-.586.949-.689.326-.083.666-.106,1.02-.069.307.033.604.136.895.308.201.119.354.23.459.334.033.028.058.074.073.136.01.036-.01.071-.057.104s-.233.131-.558.289c-.325.16-.531.258-.62.294-.178.074-.356.151-.536.23-.343.143-.569.229-.677.257-.016.004-.078.021-.186.052-.109.03-.171.048-.19.053-.031.008-.024.085.02.231.178.584.474,1.021.886,1.312.139.096.343.145.613.147.236.003.465-.026.685-.086.343-.097.602-.224.778-.381.112-.101.192-.191.241-.271.01-.013.022-.026.039-.04.016-.004.05.01.104.042.031.02.047.03.049.037ZM150.389,52.606c-.002-.006-.025-.042-.073-.109-.108-.115-.177-.187-.206-.211-.091-.076-.216-.15-.377-.225-.226-.103-.455-.124-.689-.064-.196.051-.344.2-.44.451-.032.091-.052.236-.059.44-.008.203.003.362.032.476.016.062.036.089.061.083.163-.042.382-.11.655-.206.093-.034.272-.117.538-.25.266-.134.437-.227.512-.277.04-.035.056-.07.047-.107Z" fill="#fff"/>
        <path d="M157.634,53.981c.011.043.008.066-.011.071l-2.206.563c-.031.008-.05-.004-.058-.035l-.044-.17c-.008-.031,0-.049.025-.056l.484-.123c.056-.015.077-.045.065-.091-.011-.044-.045-.087-.102-.131-.23-.197-.655-.556-1.272-1.076-.038-.033-.073-.027-.104.016-.292.394-.486.701-.58.926-.14.323-.192.555-.157.693.034.133.107.185.222.155l.434-.11c.024-.007.042.012.053.054l.035.135c.011.043-.002.069-.04.078l-1.804.461c-.043.011-.068,0-.076-.03l-.049-.188c-.006-.025.01-.042.046-.052l.333-.084c.064-.017.111-.066.139-.149.008-.018.051-.116.127-.292.203-.462.395-.826.575-1.095.21-.308.375-.533.495-.678.037-.049.041-.085.013-.106-.244-.199-.546-.432-.904-.693-.408-.299-.686-.496-.835-.593-.133-.087-.283-.109-.449-.067l-.208.054c-.031.008-.05-.004-.058-.035l-.043-.17c-.009-.037,0-.06.032-.067l2.173-.555c.025-.007.042.006.049.036l.046.18c.006.024-.006.041-.037.049l-.397.102c-.077.02-.108.054-.096.104.014.056.076.128.188.217.163.136.488.395.976.779.044.033.079.024.102-.026.113-.186.261-.433.445-.737.121-.209.154-.418.1-.63-.022-.089-.086-.122-.191-.095l-.397.101c-.028.008-.045-.002-.051-.026l-.046-.18c0-.016,0-.028.003-.037.002-.008.018-.017.045-.024l1.786-.455c.03-.008.049,0,.056.024l.048.189c.008.031-.007.052-.044.061l-.286.073c-.086.021-.155.091-.208.205-.145.315-.354.692-.625,1.133-.092.151-.22.35-.384.595-.03.046-.023.088.022.122.622.474,1.109.854,1.461,1.141.385.317.653.457.8.42l.305-.078c.019-.004.03.005.036.03l.044.171Z" fill="#fff"/>
        <path d="M168.077,50.146c.029.113.032.228.009.342-.082.371-.22.686-.414.94-.096.124-.233.208-.412.253-.36.092-.701.129-1.023.111-.322-.017-.59-.053-.804-.107-.069-.015-.127-.002-.173.036-.473.415-1.141.733-2.002.953-1.126.287-1.99.28-2.591-.022-.515-.258-.856-.744-1.025-1.458-.094-.393-.095-.801-.004-1.228.058-.261.152-.466.284-.612.13-.149.242-.266.335-.352.031-.019.019-.055-.038-.108-.075-.076-.166-.168-.271-.275-.133-.159-.221-.325-.265-.497-.022-.087,0-.194.064-.326.211-.415.466-.747.761-1.001.057-.047.179-.094.367-.143.243-.062.504-.095.78-.101.209,0,.379.02.508.062.096.03.143.065.14.105.009.188.002.425-.021.71-.012.144-.034.219-.065.227-.019.005-.072-.025-.161-.091-.079-.053-.188-.098-.33-.138-.372-.098-.732-.103-1.08-.014-.239.062-.338.176-.294.346.02.076.079.163.179.259.241.236.518.471.833.701.492.363.888.621,1.185.774.023.014.042.023.058.029.057.021.08.007.067-.042-.123-.483-.057-.872.198-1.165.266-.312.592-.516.979-.614.314-.08.683-.117,1.107-.111.352.006.735-.045,1.151-.151.224-.057.386-.148.484-.275.125-.163.148-.323.069-.48-.033-.063-.041-.105-.022-.127.041-.069.086-.11.136-.123.016-.004.05.011.104.043.077.045.141.141.191.285.108.293.125.54.051.738-.126.341-.318.549-.577.624-.36.105-.66.138-.9.098-.038-.007-.059,0-.063.021-.006.018.006.04.036.064.191.185.336.425.435.725.021.07.041.138.057.202.139.544.085,1.056-.159,1.535-.017.037,0,.067.053.089.088.053.272.087.551.101.217.014.417-.003.602-.05.277-.071.489-.294.636-.669.037-.099.068-.146.091-.142.029,0,.077,0,.143.003.027.003.044.019.051.046ZM164.793,51.51c-.292-.054-.647-.168-1.065-.343-.554-.232-1.026-.464-1.416-.695-.718-.426-1.271-.814-1.656-1.17-.043-.03-.082-.034-.115-.009-.267.237-.329.636-.187,1.191.153.601.513,1.068,1.081,1.406.333.197.749.298,1.248.305.323.007.674-.039,1.052-.136.437-.111.779-.259,1.027-.443.083-.061.093-.096.032-.106ZM165.535,49.295c-.098-.384-.296-.659-.594-.827-.318-.219-.691-.274-1.119-.166-.292.075-.508.198-.648.368-.032.04-.06.123-.084.247-.026.154-.022.299.012.435.083.322.207.534.373.632.186.109.461.236.829.378.398.158.725.263.98.315.092.019.155-.003.184-.067.173-.375.195-.812.067-1.314Z" fill="#fff"/>
        <path d="M174.709,47.921c.117.461.034.912-.25,1.352-.16.244-.351.438-.57.578-.234.146-.565.271-.993.381-.612.156-1.229.16-1.85.012-.052-.011-.091-.068-.118-.172-.006-.021-.055-.208-.148-.562-.094-.353-.144-.543-.15-.57-.009-.037.018-.063.083-.08l.188-.048c.056-.015.091-.005.106.031.029.113.066.222.113.325.12.265.325.468.616.612.291.144.646.161,1.068.054.572-.146.918-.43,1.039-.855.05-.189.041-.42-.028-.69-.062-.243-.197-.416-.403-.521-.216-.147-.587-.237-1.115-.266-.588-.032-1.083-.147-1.484-.346-.401-.197-.673-.577-.817-1.141-.133-.521-.017-1.022.347-1.509.284-.375.712-.634,1.281-.779.627-.16,1.155-.147,1.582.038.06.027.098.062.115.103.085.195.183.508.293.938.017.064.011.101-.017.107l-.226.058c-.034.009-.06-.004-.079-.038-.052-.103-.114-.21-.186-.327-.106-.172-.258-.296-.454-.37-.335-.12-.726-.124-1.172-.011-.342.088-.583.246-.724.476-.156.259-.188.553-.095.879.063.221.218.41.465.569.126.08.523.162,1.193.245.399.054.692.102.877.146.31.075.583.182.819.322.333.196.563.551.694,1.061Z" fill="#fff"/>
        <path d="M180.377,48.042c.006.024-.003.051-.03.076-.139.068-.3.15-.482.246-.056.037-.129.092-.219.165-.031.03-.05.047-.056.049-.024.006-.072-.007-.143-.038-.136-.057-.315-.232-.538-.526-.026-.036-.057-.031-.095.014-.09.132-.328.377-.711.737-.15.117-.433.229-.849.335-.267.068-.523.018-.766-.153-.229-.164-.377-.381-.446-.652l-.456-1.787c-.198-.773-.363-1.145-.495-1.111l-.513.131c-.043.012-.068,0-.076-.029l-.049-.189c-.008-.031,0-.049.025-.056l.595-.151c.286-.073.513-.146.681-.219.128-.052.222-.086.284-.102.04-.01.071.025.092.109,0,.006.118.477.35,1.411.232.936.359,1.443.379,1.523.075.295.172.479.291.552.119.073.313.074.583.005.246-.062.477-.18.691-.352.097-.098.195-.192.296-.288.031-.008.04-.037.026-.09l-.593-2.325c-.109-.428-.221-.627-.334-.598l-.503.128c-.043.012-.069.002-.077-.029l-.048-.189c-.008-.03.003-.05.034-.058l.721-.184c.202-.052.374-.105.514-.161.023-.012.073-.033.149-.062.075-.028.126-.048.149-.058.041-.018.075.022.099.118.003.012.123.494.36,1.447.237.955.362,1.455.375,1.506.112.439.346.705.7.799.05.014.077.032.083.057Z" fill="#fff"/>
        <path d="M185.75,46.812c.009.037.001.059-.023.065l-1.966.502c-.031.008-.049,0-.056-.025l-.048-.189c-.008-.03.003-.05.034-.058l.351-.09c.034-.009.052-.04.054-.098-.058-.381-.215-1.072-.47-2.071-.129-.505-.285-.819-.467-.944-.183-.126-.413-.153-.69-.082-.271.069-.535.187-.794.354-.048.031-.063.08-.047.145.016.137.191.864.527,2.181.16.624.29.923.392.897l.462-.118c.033-.009.055.003.062.033l.048.189c.007.024-.007.042-.041.05l-2.137.546c-.015.004-.027.004-.037,0-.009-.004-.017-.018-.023-.043l-.046-.18c-.006-.025.006-.041.037-.049l.53-.136c.05-.013.068-.049.057-.106-.333-1.384-.574-2.363-.721-2.938-.117-.458-.226-.673-.328-.647l-.539.138c-.037.01-.061-.005-.07-.042l-.046-.18c-.007-.027.001-.045.026-.051l.623-.159c.197-.05.354-.097.471-.14.29-.107.447-.163.468-.168.043-.012.073.019.091.089.004.016.017.071.039.17.021.098.035.157.041.179.025.102.056.135.089.1.125-.141.287-.295.485-.468.23-.2.458-.328.683-.386.403-.103.74-.074,1.01.087.316.187.552.579.704,1.177.053.206.135.554.247,1.045s.167.73.165.722c.09.353.121.485.091.395.052.167.108.243.167.228l.484-.123c.037-.01.058-.005.062.014l.048.188Z" fill="#fff"/>
      </g>
    </g>
  </g>
</svg>