<?xml version="1.0" encoding="UTF-8"?>
<svg id="a" data-name="bateau 05" xmlns="http://www.w3.org/2000/svg" width="300" height="300" xmlns:xlink="http://www.w3.org/1999/xlink" viewBox="0 0 300 300">
  <defs>
    <filter id="b" data-name="drop-shadow-1" x="173.317" y="131.013" width="61.579" height="57.122" filterUnits="userSpaceOnUse">
      <feOffset dx="-1.219" dy="0"/>
      <feGaussianBlur result="c" stdDeviation="0"/>
      <feFlood flood-color="#42496f" flood-opacity="1"/>
      <feComposite in2="c" operator="in"/>
      <feComposite in="SourceGraphic"/>
    </filter>
    <clipPath id="d">
      <path d="M217.71,147.697s5.622,5.801,6.212,11.021h4.815c1.8,0,3.105,1.736,2.574,3.455-.687,2.222-2.434,6.691-6.416,6.809-1.4,2.791-3.392,4.708-6.552,5.513l-3.859,3.158h-7.373l-4.011-31.794,14.611,1.838Z" fill="none"/>
    </clipPath>
  </defs>
  <g filter="url(#b)">
    <path d="M217.71,147.697s5.622,5.801,6.212,11.021h4.815c1.8,0,3.105,1.736,2.574,3.455-.687,2.222-2.434,6.691-6.416,6.809-1.4,2.791-3.392,4.708-6.552,5.513l-3.859,3.158h-7.373l-4.011-31.794,14.611,1.838Z" fill="#ffd66e"/>
    <g clip-path="url(#d)">
      <circle cx="231.43" cy="159.853" r="3.466" fill="#42496f"/>
      <path d="M226.723,169.424s-10.087-1.593-11.827-7.668" fill="none" stroke="#42496f" stroke-linecap="round" stroke-linejoin="round" stroke-width=".61"/>
    </g>
    <path d="M221.68,155.65s1.652,3.097-.708,3.924c-2.359.828-3.303-2.863-3.303-2.863" fill="none" stroke="#42496f" stroke-linecap="round" stroke-linejoin="round" stroke-width=".61"/>
    <path d="M216.791,135.707c.018.94.036,1.879.054,2.819-4.763-3.739-10.416-6.336-16.356-7.513,1.547,1.94,3.094,3.879,4.641,5.819-4.756-.286-9.537-.169-14.274.349,2.056,1.954,4.112,3.909,6.168,5.863-3.648.235-6.897,2.435-9.466,5.035-2.569,2.6-4.647,5.651-7.212,8.255,1.55-.02,3.101-.04,4.651-.06-.922,3.854-1.852,7.731-3.429,11.366-1.577,3.635-3.852,7.053-7.034,9.414,2.131.469,4.368.447,6.489-.064-.985,1.956-1.746,4.025-2.263,6.153,2.695-.278,5.334-1.086,7.723-2.364-.883,2.759-2.456,5.294-4.536,7.31,6.258.251,12.556-.524,18.567-2.284,1.024-.3,2.114-.629,3.136-.326,1.023.303,1.831,1.547,1.277,2.458,2.869-2.726,5.738-5.451,8.607-8.177,1.726-1.64,3.467-3.297,4.806-5.266-1.466.353-3.24,1.133-4.026,1.123.78-1.8-.475-3.758-1.348-5.515-1.807-3.635-4.681-7.21-3.278-11.018.447-1.212.936-2.468.692-3.736-.352-1.832-1.712-4.024-3.382-4.751,4.583-1.033,7.492.54,12.095-1.3,1.632-4.52.743-9.871-2.304-13.592Z" fill="#e86170"/>
    <path d="M199.943,158.032c2.372-1.655,2.772-6.423,2.772-6.423,0,0-4.66-3.598-6.371-1.062s3.598,7.484,3.598,7.484Z" fill="#ffd66e"/>
    <path d="M200.879,156.387c1.168-.711,1.365-2.761,1.365-2.761,0,0-2.294-1.547-3.136-.456-.842,1.09,1.771,3.217,1.771,3.217Z" fill="#f4af13"/>
  </g>
</svg>