<?xml version="1.0" encoding="UTF-8"?>
<svg xmlns="http://www.w3.org/2000/svg" width="300" height="300" xmlns:xlink="http://www.w3.org/1999/xlink" viewBox="0 0 300 300">
  <defs>
    <filter id="b" data-name="drop-shadow-1" x="88.962" y="179.553" width="74.365" height="28.897" filterUnits="userSpaceOnUse">
      <feOffset dx="-1.219" dy="0"/>
      <feGaussianBlur result="c" stdDeviation="0"/>
      <feFlood flood-color="#42496f" flood-opacity="1"/>
      <feComposite in2="c" operator="in"/>
      <feComposite in="SourceGraphic"/>
    </filter>
  </defs>
  <g isolation="isolate">
    <g id="a" data-name="bateau 02">
      <g filter="url(#b)">
        <g>
          <g>
            <polygon points="108.286 208.45 90.181 208.45 91.401 191.357 109.506 191.357 108.286 208.45" fill="#e86170"/>
            <polygon points="114.208 179.553 96.103 179.553 91.401 190.465 91.401 191.357 109.506 190.465 114.385 180.056 114.208 179.553" fill="#f4af13"/>
            <polygon points="114.385 180.056 96.28 180.056 91.401 191.357 109.506 191.357 114.385 180.056" fill="#e86170"/>
            <polygon points="110.841 188.265 95.296 182.336 91.401 191.357 109.506 191.357 110.841 188.265" fill="#a384bb" mix-blend-mode="multiply" opacity=".25"/>
            <polygon points="107.274 208.45 90.181 208.45 91.401 191.357 108.494 191.357 107.274 208.45" fill="#42496f"/>
            <polygon points="108.494 191.357 109.506 191.357 109.457 192.045 108.402 192.654 108.494 191.357" fill="#42496f"/>
          </g>
          <g>
            <path d="M93.296,193.894s-.026,6.428,2.703,10.513l9.444-.625c-1.213-2.064,0-3.879,0-3.879l3.102,3.674,4.099-.271v-8.133l-19.348-1.279Z" fill="#b1ddea"/>
            <ellipse cx="111.041" cy="199.189" rx="5.597" ry="6.535" fill="#b1ddea"/>
            <ellipse cx="111.29" cy="199.189" rx="3.228" ry="3.769" fill="#a384bb" mix-blend-mode="multiply" opacity=".25"/>
            <path d="M110.448,196.268l.663-.548c-.024,0-.046-.008-.07-.008-1.645,0-2.979,1.557-2.979,3.478s1.334,3.478,2.979,3.478,2.979-1.557,2.979-3.478c0-.165-.023-.323-.042-.482-.397-2.236-3.529-2.44-3.529-2.44Z" fill="#42496f"/>
          </g>
        </g>
        <g>
          <g>
            <polygon points="154.975 208.45 136.87 208.45 138.09 191.357 156.195 191.357 154.975 208.45" fill="#e86170"/>
            <polygon points="160.898 179.553 142.793 179.553 138.09 190.465 138.09 191.357 156.195 190.465 161.075 180.056 160.898 179.553" fill="#f4af13"/>
            <polygon points="161.075 180.056 142.97 180.056 138.09 191.357 156.195 191.357 161.075 180.056" fill="#e86170"/>
            <polygon points="157.53 188.265 141.985 182.336 138.09 191.357 156.195 191.357 157.53 188.265" fill="#a384bb" mix-blend-mode="multiply" opacity=".25"/>
            <polygon points="153.964 208.45 136.87 208.45 138.09 191.357 155.184 191.357 153.964 208.45" fill="#42496f"/>
            <polygon points="155.184 191.357 156.195 191.357 156.146 192.045 155.091 192.654 155.184 191.357" fill="#42496f"/>
          </g>
          <g>
            <path d="M139.986,193.894s-.026,6.428,2.703,10.513l9.444-.625c-1.213-2.064,0-3.879,0-3.879l3.102,3.674,4.099-.271v-8.133l-19.348-1.279Z" fill="#b1ddea"/>
            <ellipse cx="157.73" cy="199.189" rx="5.597" ry="6.535" fill="#b1ddea"/>
            <ellipse cx="157.979" cy="199.189" rx="3.228" ry="3.769" fill="#a384bb" mix-blend-mode="multiply" opacity=".25"/>
            <path d="M157.138,196.268l.663-.548c-.024,0-.046-.008-.07-.008-1.645,0-2.979,1.557-2.979,3.478s1.334,3.478,2.979,3.478,2.979-1.557,2.979-3.478c0-.165-.023-.323-.042-.482-.397-2.236-3.529-2.44-3.529-2.44Z" fill="#42496f"/>
          </g>
        </g>
      </g>
    </g>
  </g>
</svg>