<?xml version="1.0" encoding="UTF-8"?>
<svg xmlns="http://www.w3.org/2000/svg" width="300" height="300" xmlns:xlink="http://www.w3.org/1999/xlink" viewBox="0 0 300 300">
  <defs>
    <filter id="b" data-name="drop-shadow-1" x="160.093" y="125.764" width="77.496" height="73.81" filterUnits="userSpaceOnUse">
      <feOffset dx="-1.219" dy="0"/>
      <feGaussianBlur result="c" stdDeviation="0"/>
      <feFlood flood-color="#42496f" flood-opacity="1"/>
      <feComposite in2="c" operator="in"/>
      <feComposite in="SourceGraphic"/>
    </filter>
    <clipPath id="d">
      <path d="M236.133,142.004s-.59-11.561-4.247-11.561-2.124,5.899-2.124,5.899l-11.089-1.18c-.236-1.77,3.067-.236,1.77-4.011-1.298-3.775-15.019-2.965-18.286,4.483-2.949,6.724-3.539,33.268-12.977,33.74-9.438.472-8.022-17.578-16.28-16.988s-12.505,19.465-8.258,28.549c4.247,9.084,7.196,17.814,2.595,18.64,13.803-2.595,0-26.78,5.899-28.549,5.899-1.77-1.77,25.364,19.347,25.01,21.117-.354,15.085-40.347,22.415-40.347,4.939,0,1.428,5.077,7.611,5.077,4.601,0,3.95-4.133,3.95-4.133h7.786s1.206.046,1.206-1.631h-8.646c-1.129,0-2.043.915-2.043,2.043h0c0,1.129-.915,2.043-2.043,2.043h-.419c-1.129,0-2.043-.915-2.043-2.043v-14.252c0-1.823,1.478-3.301,3.301-3.301h5.816c3.668,0,6.76,2.512,6.76,2.512Z" fill="none"/>
    </clipPath>
  </defs>
  <g isolation="isolate">
    <g id="a" data-name="bateau 09">
      <g filter="url(#b)">
        <path d="M206.547,171.302c-.065.931.022,1.873.257,2.776.178.683.456,1.367.968,1.854.512.487,1.302.731,1.948.446.781-.344,1.084-1.273,1.302-2.098.468-1.768.935-3.536,1.403-5.305.121-.459.327-1,.794-1.084.219-.04.454.037.663-.039.338-.124.417-.611.225-.917s-.554-.457-.905-.542c-.604-.146-1.305-.127-1.771.285-.465.412-.568,1.086-.641,1.703-.091.767-.183,1.535-.274,2.302-.122,1.02-.248,2.058-.663,2.998-.086.196-.241.418-.453.387-.094-.013-.172-.076-.238-.144-.345-.357-.447-.879-.506-1.372s-.097-1.009-.355-1.433c-.258-.424-.822-.712-1.263-.483-.448.234-.529.829-.555,1.334" fill="#e86170"/>
        <path d="M222.247,138.444s-.157,3.773.943,3.668c1.1-.105,1.572-2.096,1.572-2.096,0,0,.419,3.144,1.886,3.249s1.153-3.249,1.153-3.249c0,0,1.464,4.661,2.725,4.716,1.205.052.943-6.288.943-6.288h-9.222Z" fill="#fff"/>
        <path d="M233.565,155.421s-1.467-6.078-2.829-6.078-.943,4.925-.943,4.925c0,0-.576-1.781-1.572-1.886s-1.153,1.886-1.153,1.886c0,0-.524-1.1-1.258-1.048s-.629,2.934-.629,2.934l8.384-.734Z" fill="#fff"/>
        <path d="M220.583,166.538c-.345-1.222-1.707-2.059-2.953-1.816-.553.108-1.054.394-1.533.691-.459.285-.907.589-1.348.902.279-.481.558-.961.837-1.442.354-.61.839-1.299,1.544-1.292.728.007,1.442.778,2.073.415.298-.171.423-.559.356-.896-.067-.337-.293-.623-.557-.842-.978-.81-2.574-.726-3.462.182-.394.403-.644.923-.869,1.44-.32.734-.594,1.487-.845,2.248-.158-.546-.29-1.101-.367-1.664-.044-.318-.048-.701.212-.889.301-.218.76-.022,1.075-.22.354-.222.258-.814-.081-1.059-.339-.244-.795-.233-1.21-.182-.411.05-.847.144-1.131.444-.451.477-.331,1.238-.181,1.877.229.976.458,1.953.687,2.93-.169.809-.29,1.636-.112,2.438.208.94.934,1.835,1.892,1.926.472.045.945-.106,1.364-.327.57-.301,1.117-.845,1.05-1.486-.041-.39-.329-.742-.703-.859s-.812.009-1.067.307c-.157.183-.244.418-.401.602-.157.183-.436.307-.639.176-.085-.055-.141-.145-.188-.235-.33-.634-.339-1.425-.025-2.066.002-.005.004-.01.007-.014.759-.358,1.519-.717,2.278-1.075.638-.301,1.428-.593,2.004-.187.595.419.745,1.459,1.471,1.519.342.028.666-.22.802-.535.136-.315.113-.679.019-1.009Z" fill="#e86170"/>
        <g mix-blend-mode="multiply" opacity=".75">
          <path d="M220.583,166.538c-.345-1.222-1.707-2.059-2.953-1.816-.553.108-1.054.394-1.533.692-.459.285-.907.589-1.348.902.279-.481.558-.961.837-1.442.354-.61.838-1.299,1.544-1.292.728.007,1.442.778,2.073.415.298-.171.423-.559.356-.896-.067-.337-.293-.623-.557-.842-.978-.81-2.574-.726-3.462.182-.394.403-.643.923-.869,1.44-.32.734-.594,1.487-.845,2.248-.158-.547-.29-1.101-.367-1.664-.044-.318-.048-.701.212-.889.301-.218.76-.022,1.075-.22.354-.222.258-.814-.081-1.059-.339-.244-.795-.233-1.21-.182-.411.05-.847.144-1.131.444-.451.477-.331,1.238-.181,1.877.147.628.295,1.257.442,1.885-.423-.008-.841.082-1.152.357-.465.412-.568,1.086-.641,1.703-.091.767-.183,1.535-.274,2.302-.122,1.021-.248,2.058-.663,2.998-.086.196-.241.418-.453.387-.094-.013-.172-.076-.238-.144-.345-.357-.447-.879-.506-1.372-.059-.493-.097-1.009-.355-1.433-.258-.424-.822-.712-1.263-.483-.297.155-.426.472-.491.814-.047.883.033,1.772.256,2.628.178.684.456,1.367.967,1.854.512.487,1.302.731,1.948.446.781-.344,1.084-1.273,1.302-2.098.468-1.768.935-3.536,1.403-5.305.057-.216.136-.447.248-.643-.055.493-.063.987.044,1.47.208.94.934,1.835,1.892,1.926.472.045.945-.106,1.364-.327.57-.301,1.117-.845,1.05-1.486-.041-.39-.329-.742-.703-.859-.374-.117-.812.01-1.067.307-.157.183-.244.418-.401.602-.157.183-.436.307-.639.176-.085-.055-.141-.145-.188-.235-.33-.634-.339-1.425-.025-2.066.002-.005.004-.01.007-.014.759-.358,1.519-.717,2.278-1.075.638-.301,1.428-.593,2.004-.187.595.419.745,1.459,1.471,1.519.342.028.666-.22.802-.535.136-.315.113-.679.019-1.009Z" fill="#a384bb"/>
        </g>
        <path d="M214.148,128.026c-5.533-1.936-11.879-.163-17.353-2.262,3.417,1.918,7.27,3.052,11.18,3.292-5.053.354-9.97,2.424-13.754,5.792-1.437,1.279-2.707,2.73-3.973,4.178,3.745-2.179,7.97-3.528,12.284-3.922-4.949,2.434-8.391,7.444-13.571,9.337,3.818-.589,7.849-1.272,10.797-3.77-3.736,4.748-8.114,8.991-12.977,12.577,1.712-.353,3.424-.707,5.136-1.06,2.24-.463,4.569-.965,6.366-2.381-2.168,2.712-4.553,5.25-7.125,7.581,2.709-.355,5.304-1.53,7.36-3.329-1.785,3.407-4.407,6.29-6.999,9.132,2.707-.329,5.368-1.631,6.951-3.851,1.719-2.411,1.986-5.523,2.446-8.449.504-3.2,1.303-6.347,2.204-9.459.371-1.281.765-2.571,1.439-3.721.916-1.564,2.345-2.822,4.011-3.533,2.626-1.121,5.752-.903,8.179-2.407l.252-1.7c-.584-1.045-1.724-1.649-2.854-2.045Z" fill="#ffd66e"/>
        <path d="M231.94,137.92h1.127c1.23,0,2.227.997,2.227,2.227v10.244c0,1.1.891,1.991,1.991,1.991h0" fill="none" stroke="#ffd66e" stroke-linecap="round" stroke-linejoin="round" stroke-width=".61"/>
        <g>
          <path d="M184.092,162.007c-.113-.255-.326-.536-.601-.49-.115.019-.212.094-.297.174-.435.407-.681.97-.915,1.517-.233.544-.471,1.118-.412,1.706.072.704.553,1.29,1.023,1.82.66.744,1.343,1.467,2.04,2.176-.862-2.118.111-4.768-.838-6.903Z" fill="#ffd66e"/>
          <path d="M172.287,150.34c-.412-.276-.89-.497-1.384-.462-.494.034-.991.393-1.042.886-.021.206.034.412.089.612.144.526.288,1.052.432,1.578.062.227.13.464.296.631.259.26.67.271,1.037.255.817-.037,1.632-.126,2.437-.267l.314.028c-.262-1.315-1.064-2.515-2.178-3.261Z" fill="#ffd66e"/>
          <path d="M162.943,161.908c-.914.509-1.644,1.465-1.613,2.51.004.122.019.249.085.353.138.215.435.248.691.259.767.032,1.533.063,2.299.095.191.008.389.015.567-.053.531-.201.65-.927,1.116-1.252l-.117-2.618c-1.044.06-2.115.197-3.029.706Z" fill="#ffd66e"/>
          <path d="M163.931,174.179c-.14.878-1.041,1.383-1.635,2.044-.67.747-.976,1.806-.809,2.795.025.147.063.299.159.413.288.341.839.139,1.221-.093.539-.325,1.082-.675,1.456-1.181.374-.506.547-1.207.276-1.775l-.668-2.204Z" fill="#ffd66e"/>
          <path d="M168.763,188.612c.054-.153.032-.322.003-.482-.129-.732-.354-1.448-.668-2.123l-.6-.535c.169.527-.237,1.047-.6,1.464-.302.346-.602.715-.723,1.157-.121.443-.015.979.365,1.236.506.342,1.183.054,1.716-.244.207-.116.428-.251.507-.474Z" fill="#ffd66e"/>
          <path d="M170.279,195.245l-.11-.11c-.561.017-1.119.149-1.63.384-.311.143-.651.446-.525.764.059.148.203.24.339.323.343.208.703.422,1.103.452s.85-.187.943-.577c.097-.406-.211-.826-.121-1.235Z" fill="#ffd66e"/>
        </g>
        <path d="M236.133,142.004s-.59-11.561-4.247-11.561-2.124,5.899-2.124,5.899l-11.089-1.18c-.236-1.77,3.067-.236,1.77-4.011-1.298-3.775-15.019-2.965-18.286,4.483-2.949,6.724-3.539,33.268-12.977,33.74-9.438.472-8.022-17.578-16.28-16.988s-12.505,19.465-8.258,28.549c4.247,9.084,7.196,17.814,2.595,18.64,13.803-2.595,0-26.78,5.899-28.549,5.899-1.77-1.77,25.364,19.347,25.01,21.117-.354,15.085-40.347,22.415-40.347,4.939,0,1.428,5.077,7.611,5.077,4.601,0,3.95-4.133,3.95-4.133h7.786s1.206.046,1.206-1.631h-8.646c-1.129,0-2.043.915-2.043,2.043h0c0,1.129-.915,2.043-2.043,2.043h-.419c-1.129,0-2.043-.915-2.043-2.043v-14.252c0-1.823,1.478-3.301,3.301-3.301h5.816c3.668,0,6.76,2.512,6.76,2.512Z" fill="#e86170"/>
        <circle cx="232.472" cy="134.969" r=".966" fill="#42496f"/>
        <g clip-path="url(#d)">
          <path d="M208.658,172.553s-3.847,24.308-19.006,25.075c-15.159.767-13.395-26.795-16.516-26.603-8.612.531,5.451,20.497-2.967,24.11.666-5.234-7.411-6.118-8.681-16.117s4.511-23.624,12.592-22.445c8.081,1.18,4.483,24.066,14.157,25.364s18.488-6.086,20.422-9.384Z" fill="#a384bb" mix-blend-mode="multiply" opacity=".25"/>
        </g>
        <path d="M230.473,137.92h-1.127c-1.23,0-2.227.997-2.227,2.227v10.244c0,1.1-.891,1.991-1.991,1.991h0" fill="none" stroke="#ffd66e" stroke-linecap="round" stroke-linejoin="round" stroke-width=".61"/>
        <path d="M195.401,169.355c.173,1.115.528,2.201,1.048,3.203.393.758.904,1.489,1.638,1.925.734.436,1.73.512,2.415.003.828-.615.936-1.791.972-2.822.077-2.209.153-4.419.23-6.628.02-.573.117-1.266.645-1.491.248-.106.545-.078.771-.224.366-.237.327-.832.019-1.141s-.776-.39-1.211-.395c-.752-.01-1.572.2-2.01.811-.438.61-.377,1.432-.299,2.179.098.929.196,1.858.294,2.787.13,1.235.26,2.492.023,3.711-.049.254-.172.557-.43.578-.114.009-.223-.044-.319-.106-.502-.328-.763-.916-.965-1.481s-.385-1.164-.803-1.594-1.16-.618-1.618-.23c-.465.395-.401,1.119-.296,1.72" fill="#e86170"/>
        <path d="M210.664,159.974c-.735-1.347-2.564-1.968-3.967-1.347-.623.276-1.136.748-1.621,1.226-.465.46-.911.938-1.347,1.425.2-.641.4-1.283.599-1.924.254-.814.64-1.755,1.472-1.937.859-.188,1.908.53,2.555-.067.305-.281.349-.773.18-1.151-.169-.379-.512-.656-.883-.843-1.37-.692-3.229-.165-4.031,1.143-.356.581-.511,1.26-.638,1.93-.181.951-.301,1.912-.393,2.876-.333-.601-.637-1.219-.879-1.863-.137-.363-.245-.813.012-1.104.296-.337.89-.23,1.208-.547.358-.357.086-1.029-.379-1.226-.465-.197-.999-.061-1.474.11-.47.169-.959.397-1.214.827-.404.683-.058,1.547.29,2.26.532,1.089,1.064,2.179,1.596,3.268.018.999.098,2.006.522,2.903.497,1.052,1.593,1.912,2.747,1.762.569-.074,1.085-.379,1.52-.752.592-.507,1.09-1.296.839-2.033-.152-.449-.587-.786-1.059-.824s-.954.229-1.175.648c-.136.258-.176.558-.311.817-.136.258-.431.479-.705.379-.115-.042-.205-.133-.285-.227-.559-.658-.782-1.588-.584-2.429.001-.006.003-.013.004-.019.799-.626,1.597-1.252,2.396-1.879.671-.526,1.523-1.082,2.312-.759.814.334,1.27,1.52,2.141,1.396.411-.059.726-.438.802-.846.076-.408-.05-.83-.248-1.195Z" fill="#e86170"/>
        <g mix-blend-mode="multiply" opacity=".5">
          <path d="M195.444,169.678c-.004-.05.001-.098,0-.148-.01-.059-.033-.115-.042-.175l.043.323Z" fill="#a384bb"/>
          <path d="M195.444,169.678c.013.163.037.326.064.481l-.064-.481Z" fill="#a384bb"/>
          <path d="M210.664,159.974c-.735-1.347-2.564-1.968-3.967-1.347-.623.276-1.136.748-1.621,1.226-.465.46-.911.938-1.347,1.425.2-.641.4-1.283.599-1.924.254-.814.64-1.755,1.472-1.937.859-.188,1.908.53,2.555-.067.305-.281.349-.773.18-1.151-.169-.379-.512-.656-.883-.843-1.37-.692-3.229-.165-4.031,1.143-.356.581-.511,1.26-.638,1.93-.181.951-.301,1.912-.393,2.876-.333-.601-.637-1.219-.879-1.863-.137-.363-.245-.813.012-1.104.296-.337.89-.23,1.208-.547.358-.357.086-1.029-.379-1.226-.465-.197-.999-.061-1.474.11-.47.169-.959.397-1.214.827-.404.683-.058,1.547.29,2.26.342.701.685,1.402,1.027,2.103-.5.104-.969.322-1.262.731-.438.61-.378,1.432-.299,2.179.098.929.196,1.858.294,2.787.131,1.235.26,2.492.023,3.711-.049.254-.172.557-.429.578-.114.009-.224-.044-.319-.106-.503-.328-.763-.916-.965-1.481-.202-.565-.386-1.163-.804-1.594-.418-.43-1.16-.618-1.618-.23-.309.263-.375.671-.36,1.091.182,1.053.514,2.08,1.006,3.028.393.757.904,1.489,1.638,1.925.734.436,1.73.513,2.415.003.828-.615.936-1.791.972-2.822.077-2.209.154-4.418.23-6.628.009-.27.04-.563.12-.824.067.596.19,1.18.446,1.721.497,1.052,1.593,1.912,2.747,1.762.569-.074,1.085-.379,1.52-.752.592-.507,1.09-1.296.839-2.033-.152-.449-.587-.786-1.059-.824s-.954.229-1.175.648c-.136.258-.176.558-.311.817-.136.258-.431.479-.705.379-.115-.042-.205-.133-.285-.227-.559-.658-.782-1.588-.584-2.429.001-.006.003-.013.004-.019.799-.626,1.597-1.252,2.396-1.879.671-.526,1.523-1.082,2.312-.759.814.334,1.27,1.52,2.141,1.396.411-.059.726-.438.802-.846.076-.408-.05-.83-.248-1.195Z" fill="#a384bb"/>
        </g>
        <line x1="211.25" y1="134.507" x2="217.385" y2="134.728" fill="none" stroke="#42496f" stroke-linecap="round" stroke-linejoin="round" stroke-width=".61"/>
        <line x1="215.828" y1="134.593" x2="215.828" y2="135.975" fill="none" stroke="#42496f" stroke-linecap="round" stroke-linejoin="round" stroke-width=".61"/>
      </g>
    </g>
  </g>
</svg>