<?xml version="1.0" encoding="UTF-8"?><svg xmlns="http://www.w3.org/2000/svg" xmlns:xlink="http://www.w3.org/1999/xlink" viewBox="0 0 300 300"><defs><style>.cls-1{fill:#ffd66e;}.cls-2{filter:url(#drop-shadow-2);}.cls-3,.cls-4{fill:#f4af13;}.cls-4,.cls-5{mix-blend-mode:multiply;opacity:.25;}.cls-6{fill:#b1ddea;}.cls-7,.cls-8,.cls-9{fill:#fff;}.cls-10{fill:#e86170;}.cls-11,.cls-12,.cls-13,.cls-14{fill:none;}.cls-12{stroke:#f4af13;stroke-width:.61px;}.cls-12,.cls-13,.cls-14{stroke-linecap:round;stroke-linejoin:round;}.cls-15{isolation:isolate;}.cls-5{fill:#a384bb;}.cls-8{opacity:.8;}.cls-9{opacity:.75;}.cls-13{stroke:#ffd66e;stroke-width:2.44px;}.cls-14{stroke:#42496f;stroke-width:1.22px;}.cls-16{fill:#42496f;}.cls-17{clip-path:url(#clippath);}</style><filter id="drop-shadow-2" x="175.49" y="109.21" width="70.2" height="80.97" filterUnits="userSpaceOnUse"><feOffset dx="-1.22" dy="0"/><feGaussianBlur result="blur" stdDeviation="0"/><feFlood flood-color="#42496f" flood-opacity="1"/><feComposite in2="blur" operator="in"/><feComposite in="SourceGraphic"/></filter><clipPath id="clippath"><path class="cls-11" d="M200.35,136.02c.13,6.34-14.58,8.29-14.64-5.69-.04-8.12,8.59-10.33,15.92-9.35,5.28.71,6.88,3.25,12.43,3.46,6.69,4.63-1.06,21.1-10.55,16.42,0,0-.87-3.52-3.15-4.84Z"/></clipPath></defs><g class="cls-15"><g id="bateau_02"><g class="cls-2"><path class="cls-16" d="M200.94,135.03c.13,6.35-14.05,7.4-14.11-6.58-.04-8.12,8.28-9.8,15.34-8.38,5.09,1.03,6.63,3.67,11.98,4.22,6.45,5.04-1.02,21.03-10.17,15.78,0,0-.84-3.57-3.04-5.03Z"/><path class="cls-6" d="M204.85,182.62s9.11-24.59,15.18-24.59c3.33,0,8.41,1.88,14.34,1.14,6.42-.8,11.23-6.93,11.33-15.46.02-2-4.31-18.44-17.87-20.81-35.2-6.17-19.48,22.65-26.47,29.87-3.74,3.86-7.57,3.58-11.8,6.04-8.19,4.75-4.41,17.36,5.04,16.93h.32s.24,6.65,9.93,6.9Z"/><path class="cls-8" d="M204.85,182.62s9.11-24.59,15.18-24.59c3.33,0,8.41,1.88,14.34,1.14,6.42-.8,11.23-6.93,11.33-15.46.02-2-4.31-18.44-17.87-20.81-35.2-6.17-19.48,22.65-26.47,29.87-3.74,3.86-7.57,3.58-11.8,6.04-8.19,4.75-4.41,17.36,5.04,16.93h.32s.24,6.65,9.93,6.9Z"/><path class="cls-5" d="M204.85,182.62s2.35-6.33,5.45-12.57c-.89-.17-1.82-.22-2.77-.11-.59.07-1.16.2-1.7.38-.31-.61-.97-1-1.68-.91-.38.05-.71.22-.96.47-.97-1.07-2.18-1.9-3.54-2.4.13-.33.19-.69.14-1.07-.09-.78-.58-1.41-1.23-1.73,1.13-1.71,1.68-3.82,1.42-6.01-.15-1.22-.54-2.36-1.11-3.36.3-.27.54-.61.68-.99-3.17,2.27-6.44,2.42-9.99,4.48-8.19,4.75-4.41,17.36,5.04,16.93h.32s.24,6.65,9.93,6.9Z"/><path class="cls-5" d="M212.49,124.6s4.06-.42,7.72.21c10.23,1.76,15.97.22,9.14-1.63l-16.57-.07-1.49.36,1.21,1.14Z"/><path class="cls-1" d="M226.95,117.99c-.68-4.34-4.51-10.19-13.26-8.48-8.75,1.71-9.57,8.51-9.02,12.58l22.28-4.1Z"/><path class="cls-10" d="M228.25,122.71l-.89-5.54s-17.36-.17-23.38,5.06l3.01,2.8s3.32-2.15,6.49-2.19c3.18-.03,11.93,1.3,14.76-.14Z"/><path class="cls-13" d="M209.08,124.11c1.85-.44,2.77-1.78,12.85-.96,10.08.82,16.75-3.25,16.75-3.25"/><path class="cls-3" d="M200.35,136.02c.13,6.34-14.58,8.29-14.64-5.69-.04-8.12,8.59-10.33,15.92-9.35,5.28.71,6.88,3.25,12.43,3.46,6.69,4.63-1.06,21.1-10.55,16.42,0,0-.87-3.52-3.15-4.84Z"/><path class="cls-9" d="M200.35,136.02c.13,6.34-14.58,8.29-14.64-5.69-.04-8.12,8.59-10.33,15.92-9.35,5.28.71,6.88,3.25,12.43,3.46,6.69,4.63-1.06,21.1-10.55,16.42,0,0-.87-3.52-3.15-4.84Z"/><circle class="cls-16" cx="225.34" cy="139.84" r="7.88" transform="translate(-32.88 200.3) rotate(-45)"/><circle class="cls-7" cx="225.34" cy="139.84" r="6.72"/><path class="cls-16" d="M231.05,143.38c.64-1.03,1.01-2.24,1.01-3.54,0-3.71-3.01-6.72-6.72-6.72-.75,0-1.48.13-2.15.36-1.35,1.16-2.22,2.87-2.22,4.79,0,3.51,2.84,6.35,6.35,6.35,1.4,0,2.68-.47,3.73-1.23Z"/><path class="cls-14" d="M238.67,145.99s.8,4.2,5.94,3.06"/><path class="cls-14" d="M232.07,150.46c-2.12-1-3.54,4.6,3.3,4.95,6.84.35,7.79-6.16,7.79-6.16"/><g class="cls-17"><path class="cls-12" d="M200.35,136.02c-1.34-.92-5.42-4.65-7.79-2.17-1.57,1.64,2.06,3.98,3.56,2.37"/><path class="cls-12" d="M202.31,138.07s6.19,1.19,9.35-4.54c1.9-3.43,1.76-6.86-1.04-10.18"/><path class="cls-12" d="M199.69,135.54s3.39-2.08,1.44-8.87c-2.18-7.61-5.98-8.72-5.98-8.72"/><path class="cls-12" d="M192.2,134.49s-5.85,2.21-8.57-4.54"/><path class="cls-12" d="M194.51,136.74c.07,1.4,1.26,6.04-3.07,6.81"/><path class="cls-12" d="M195.3,136.69s-.47-2.15,2.47-2.5"/><path class="cls-4" d="M215.26,137.66s1.31,2.11-3.98-.42c-5.29-2.53-13.33-10.25-18.21-7.97-4.88,2.28-3.71,6.04-2.8,7.78-1.05.6-3.86.5-5.69-2.17,0,0,4.53,15.36,11.67,15.48,7.14.13,19-12.71,19-12.71Z"/></g><path class="cls-7" d="M211.11,175.88c.55-.41.92-1.07.92-1.81,0-1.25-1.02-2.27-2.27-2.27-.91,0-1.68.54-2.05,1.3-1.15-.54-2.43-.85-3.79-.85-.59,0-1.17.06-1.74.17-.23-.64-.84-1.11-1.56-1.11-.38,0-.73.13-1.01.35-.83-1.18-1.93-2.15-3.22-2.81.17-.31.27-.67.27-1.05,0-.78-.4-1.47-1.01-1.87,1.33-1.56,2.13-3.59,2.13-5.8,0-1.23-.25-2.41-.7-3.47.65-.45,1.09-1.2,1.09-2.05,0-1.37-1.11-2.48-2.48-2.48-.66,0-1.26.26-1.7.69-1.46-1.03-3.24-1.65-5.17-1.65-4.44,0-8.11,3.23-8.83,7.46-.04,0-.08-.02-.12-.02-.65,0-1.18.53-1.18,1.18,0,.11.03.2.06.3-.99.41-1.69,1.4-1.69,2.54,0,.59.19,1.13.5,1.58-.54,1.15-.85,2.44-.85,3.8,0,3.4,1.89,6.35,4.67,7.87-.53.44-.88,1.1-.88,1.85,0,1.34,1.08,2.42,2.42,2.42.34,0,.67-.07.96-.2,1.27,3.4,4.54,5.83,8.39,5.83.9,0,1.76-.14,2.58-.38-.12.34-.2.69-.2,1.07,0,1.75,1.42,3.18,3.18,3.18.66,0,1.28-.21,1.79-.55,1.27.7,2.74,1.09,4.29,1.09,4.95,0,8.97-4.01,8.97-8.97,0-2-.67-3.85-1.78-5.34Z"/></g></g></g></svg>