<?xml version="1.0" encoding="UTF-8"?><svg id="bateau_06" xmlns="http://www.w3.org/2000/svg" xmlns:xlink="http://www.w3.org/1999/xlink" viewBox="0 0 300 300"><defs><style>.cls-1{fill:#ffd66e;}.cls-2{fill:#f4af13;}.cls-3,.cls-4{fill:#e86170;}.cls-5{stroke:#42496f;stroke-width:.91px;}.cls-5,.cls-6,.cls-7{fill:none;}.cls-5,.cls-7{stroke-linecap:round;stroke-linejoin:round;}.cls-7{stroke:#f4af13;stroke-width:.61px;}.cls-8{filter:url(#drop-shadow-1);}.cls-9{fill:#efa78e;}.cls-4{opacity:.5;}.cls-10{fill:#42496f;}.cls-11{clip-path:url(#clippath);}</style><filter id="drop-shadow-1" x="178.72" y="94.81" width="73.49" height="96.69" filterUnits="userSpaceOnUse"><feOffset dx="-1.22" dy="0"/><feGaussianBlur result="blur" stdDeviation="0"/><feFlood flood-color="#42496f" flood-opacity="1"/><feComposite in2="blur" operator="in"/><feComposite in="SourceGraphic"/></filter><clipPath id="clippath"><path class="cls-6" d="M218.94,125.25l5.1-29.02c.14-.82.85-1.41,1.68-1.41h0c.94,0,1.71.77,1.71,1.71v28.73h-8.49Z"/></clipPath></defs><g class="cls-8"><path class="cls-1" d="M218.94,125.25l5.1-29.02c.14-.82.85-1.41,1.68-1.41h0c.94,0,1.71.77,1.71,1.71v28.73h-8.49Z"/><g class="cls-11"><path class="cls-7" d="M228.02,124.12s-5.63-1.3-8.35-7.62"/><path class="cls-7" d="M228.25,116.5c-1.42-.05-5.6-2.48-7.41-6.69"/><path class="cls-7" d="M228.49,108.88c-2.83-.1-5.56-3.65-6.47-5.76"/><path class="cls-7" d="M228.72,101.26c-4.25-.15-5.53-4.83-5.53-4.83"/></g><path class="cls-9" d="M201.84,191.5c10.4-8.74,10.62-33.46,16.16-37.94,3.35-2.71,15.12-4.81,23.92-6.05,5.9-.83,10.29-5.88,10.29-11.84h0c0-6.37-4.99-11.62-11.35-11.94l-22.54-1.13c-4.81-.24-9.05,3.11-9.93,7.84-1.3,6.99-3.07,16.37-3.73,19.58-1.11,5.35-7.93,22.93-24.64,27.8,0,0-2.47,13.68,21.83,13.68Z"/><path class="cls-1" d="M244.39,124.46c-4.7,2.25-7.95,7.03-7.95,12.59,0,4.22,1.88,8,4.84,10.56.21-.03.43-.06.64-.09,5.9-.83,10.29-5.88,10.29-11.84h0c0-3.46-1.48-6.6-3.85-8.78-1.14-1.05-2.48-1.88-3.97-2.43Z"/><path class="cls-2" d="M243.24,131.39c-.17,0-.33.04-.47.1.46.19.79.64.79,1.16v6.29c0,.53-.33.98-.79,1.16.15.06.3.1.47.1.7,0,1.26-.56,1.26-1.26v-6.29c0-.7-.56-1.26-1.26-1.26Z"/><path class="cls-10" d="M243.56,138.94v-6.29c0-.53-.33-.98-.79-1.16-.46.19-.79.64-.79,1.16v6.29c0,.53.33.98.79,1.16.46-.19.79-.64.79-1.16Z"/><path class="cls-2" d="M247.96,131.39c-.17,0-.33.04-.47.1.46.19.79.64.79,1.16v6.29c0,.53-.33.98-.79,1.16.15.06.3.1.47.1.7,0,1.26-.56,1.26-1.26v-6.29c0-.7-.56-1.26-1.26-1.26Z"/><path class="cls-10" d="M248.28,138.94v-6.29c0-.53-.33-.98-.79-1.16-.46.19-.79.64-.79,1.16v6.29c0,.53.33.98.79,1.16.46-.19.79-.64.79-1.16Z"/><path class="cls-5" d="M221.62,142.16s-1.21-9.67,2.6-10.38,5.66,8.02,5.66,8.02"/><line class="cls-5" x1="221.43" y1="140.75" x2="215.64" y2="140.19"/><line class="cls-5" x1="216.07" y1="136.58" x2="221.47" y2="137.6"/><circle class="cls-4" cx="216.68" cy="145.15" r="2.99"/><path class="cls-9" d="M217.64,125.85s-6.77-.62-6.21-10.55c6.1,1.76,6.21,8.07,6.21,10.55Z"/><path class="cls-3" d="M223.15,116.01c-1.8.76-3.75,1.03-5.67,1.39-1.92.36-3.86.84-5.47,1.95s-2.82,2.96-2.66,4.91l.51.39c-.12.71.39,1.4,1.03,1.71s1.39.34,2.1.33c3.4-.02,7.19-.65,9.25-3.36,1.8-2.35,1.77-5.54,2.32-8.47-.25.52-.85.91-1.42,1.15Z"/><path class="cls-3" d="M209.01,126.58l.18-1.74c-2.06-.39-4.23.5-5.71,1.98-1.49,1.48-2.36,3.48-2.85,5.52-.32,1.33-.5,2.7-.37,4.06.12,1.28.52,2.53.65,3.81.3,2.94-.89,6-3.1,7.96,2.92-.05,5.8-1.22,7.93-3.22,2.13-2,3.48-4.8,3.71-7.71.29-3.55-1.02-7.13-.45-10.65Z"/><path class="cls-9" d="M211.04,130.03s-7.73-.71-7.08-12.03c6.96,2.01,7.08,9.2,7.08,12.03Z"/><path class="cls-1" d="M211.49,129.75s-3.5-.42-4.33-7.15c3.29,1.19,4.05,5.47,4.33,7.15Z"/><path class="cls-3" d="M204.74,138.93l-1.91.58c-.63,2.57-1.31,5.13-2.03,7.68-.31,1.1-.63,2.2-1.08,3.25-2.01,4.67-6.8,8.32-12.33,9.41,4.52,1.04,9.53,2.04,13.67.13,3.89-1.8,5.92-5.83,6.12-9.7.2-3.87-1.12-7.66-2.43-11.36Z"/><path class="cls-3" d="M199.82,155.69l1.06-.83c-1.28-.16-2.55.49-3.47,1.4-.91.91-1.54,2.07-2.18,3.19-1.62,2.84-3.43,5.59-5.48,8.14-1.5,1.86-3.16,3.64-5.25,4.81-1.01.56-2.14.96-3.28,1.12,1.1.33,2.2.76,3.29,1.05,4.97,1.34,10.66-.43,13.92-4.4,3.26-3.98,3.87-9.97,1.37-14.47Z"/></g></svg>