<?xml version="1.0" encoding="UTF-8"?><svg xmlns="http://www.w3.org/2000/svg" xmlns:xlink="http://www.w3.org/1999/xlink" viewBox="0 0 300 300"><defs><style>.cls-1{stroke:#9bc8ec;stroke-miterlimit:10;stroke-width:1.22px;}.cls-1,.cls-2,.cls-3{opacity:.25;}.cls-1,.cls-4{fill:none;}.cls-5{fill:#f4af13;}.cls-2,.cls-3{mix-blend-mode:multiply;}.cls-6{fill:#efa78e;}.cls-7{isolation:isolate;}.cls-3,.cls-8{fill:#a384bb;}.cls-9{filter:url(#drop-shadow-3);}.cls-10{fill:#42496f;}.cls-11{clip-path:url(#clippath);}</style><filter id="drop-shadow-3" x="73.63" y="45.87" width="105.45" height="135.03" filterUnits="userSpaceOnUse"><feOffset dx="-1.22" dy="0"/><feGaussianBlur result="blur" stdDeviation="0"/><feFlood flood-color="#42496f" flood-opacity="1"/><feComposite in2="blur" operator="in"/><feComposite in="SourceGraphic"/></filter><clipPath id="clippath"><path class="cls-4" d="M168.64,123.91c-2.03-.31-4.07-.63-6.1-.94-.41-.06-.85-.14-1.17-.42-.35-.31-.47-.8-.55-1.25-.43-2.48-.19-5.02.68-7.24.17-.43.37-.88.29-1.36-.11-.71-.75-1.25-1.2-1.85-1.64-2.17-.75-5.03.56-7.02,1.59-2.41,3.7-4.42,6.19-5.87-.72-1.23.34-2.76,1.68-2.42-.37-.71-.95-1.34-1.63-1.78.07-1.06.94-1.8,1.99-1.93-1.26-6.22-1.99-9.33-3.63-15.51-6.34,0-9.51,0-15.85,0,.7,2.11,1.37,4.22,2.02,6.34.27.9.54,1.8.66,2.69.21,1.56-.06,3.07.24,4.64.21,1.11.68,2.39.08,3.2-1.33-.19-2.15-1.73-2.75-2.99-1.85-3.85-4.57-7.47-7.88-10.53-.47-.43-.96-.87-1.26-1.41-.35-.62-.39-1.29-.52-1.94h-49.43c1.08,1.73,2.14,3.46,3.18,5.19.65,1.08,1.32,2.25,1.27,3.36-.05,1.11-1.18,2-2.31,1.43.29.35.58.69.87,1.04-.85-.08-1.73-.34-2.55-.76-.86.29-.78,1.47-.89,2.38-.37,2.99-3.59,4.26-6.46,5.14.57,1.67.5,3.39-.08,4.85.61,3.51.88,5.26,1.37,8.78,1.11,1.25,2.39,2.44,2.91,3.96.4,1.2.26,2.46.62,3.67.33,1.11,1.08,2.23.82,3.3-.25,1.02-1.46,1.55-2.52,1.27-.16-.04-.3-.12-.45-.19.51,5.59.68,8.38.88,13.96.52.08,1.02.37,1.26.86.49-.41,1.34-.25,1.68.3.91-1.91,2.08-3.87,4.05-4.61,1.97-.73,4.82.57,4.84,2.71-.28.24-.55.48-.83.72,1.24.81,1.84,2.5,1.35,3.87,1.45.47,2.97.99,3.96,2.15.99,1.15,1.13,3.15-.11,4.03-.69.49-1.81.75-1.8,1.6,0,.43.34.77.56,1.14.48.82.32,1.97-.38,2.65-.69.68-1.85.84-2.67.36.41,1.59.81,3.22.67,4.87-.02.18-.04.36-.07.54,13.79,0,27.59,0,41.38,0,.03-.21.05-.43.09-.64.32-1.43,1.24-2.83,2.63-3.34-.16-.43-.32-.87-.48-1.3,1.47-1.57,1.4-3.96,1.08-6.05-.33-2.09-.8-4.35.13-6.25.34-.69.96-1.34,1.74-1.35.57,0,1.08.34,1.54.68,4.04,3.08,6.6,7.95,6.66,12.95,0,.55,0,1.14.25,1.62.26.48.91.79,1.39.49-.41.55.11,1.36.77,1.48.66.12,1.33-.2,1.94-.51-.19.3-.38.65-.25.96.13.31.74.27.71-.07,0,.31,0,.63,0,.94.48-.94,1.86-1.19,2.73-.64.38.24.64.6.83,1,4.33,0,6.49,0,10.82,0,.45-8.74.47-13.13.14-21.93-1.84-3-3.73-6.01-5.68-9.02ZM129.69,106.13c.07,1.12-.03,2.33-.81,3.04-.97.89-2.59.65-4,.31-.22,1.14-.69,2.2-1.38,3.1-.17.22-.37.44-.66.46-.28.02-.55-.15-.79-.33-2.26-1.77-2.73-4.88-3.03-7.59-1.08.31-2.24.62-3.4.26-1.16-.36-2.25-1.67-1.88-2.71-.45.27-1.13.05-1.56-.38-.43-.43-.64-1.01-.73-1.57-.27-1.55.26-3.09,1.39-3.96.69-.54,1.66-.95,1.73-1.88.07-.9-.76-1.77-1.3-2.63-.54-.86-.56-2.22.38-2.21.44,0,.86.34,1.24.65.68.57,1.37,1.14,2.05,1.71.22.19.45.38.71.5.45.22.94.2,1.41.25,2.75.28,5.37,3.36,5,5.95.25-.22.37-.32.61-.54.6-.54,1.71-.3,2.44.31.74.61,1.17,1.49,1.5,2.35.62,1.61.99,3.27,1.09,4.92ZM149.56,112.79c-.64.55-.69,1.54-.81,2.41-.12.87-.48,1.85-1.34,2.02-.73.14-1.51-.4-1.92-1.08-.4-.68-.52-1.46-.63-2.21-.15-1.02-.3-2.03-.45-3.05-.05-.33-.1-.68.05-.95.11-.2.31-.33.41-.54.16-.34,0-.77-.16-1.15-1.08-2.63-2.01-5.31-2.77-8.02-.14-.49-.09-1.2.41-1.1.27.05.45.34.61.58,1.04,1.53,2.98,2.16,4.4,3.36,1.68,1.42,2.53,3.73,2.08,5.64,0,0,0-.02,0-.02-.01.07-.02.1-.03.17.01-.05.02-.1.03-.15-.37.79-.22,1.84.37,2.62.16.21.36.43.38.67.02.37-.37.57-.63.8Z"/></clipPath></defs><g class="cls-7"><g id="bateau_10"><g class="cls-9"><path class="cls-5" d="M136.08,180.9s-5.92-81.72-16.39-133.88c-.14-.68-.73-1.16-1.42-1.16h0c-.87,0-1.55.76-1.44,1.62,1.59,12.54,12.02,94.47,12.02,133.41h7.22Z"/><path class="cls-10" d="M133.63,152.02l-5.9.72c.2,2.99.38,5.9.53,8.74,1.96-.67,4.13-1.47,6.03-2.34-.2-2.24-.42-4.62-.65-7.12Z"/><path class="cls-8" d="M168.64,123.91c-2.03-.31-4.07-.63-6.1-.94-.41-.06-.85-.14-1.17-.42-.35-.31-.47-.8-.55-1.25-.43-2.48-.19-5.02.68-7.24.17-.43.37-.88.29-1.36-.11-.71-.75-1.25-1.2-1.85-1.64-2.17-.75-5.03.56-7.02,1.59-2.41,3.7-4.42,6.19-5.87-.72-1.23.34-2.76,1.68-2.42-.37-.71-.95-1.34-1.63-1.78.07-1.06.94-1.8,1.99-1.93-1.26-6.22-1.99-9.33-3.63-15.51-6.34,0-9.51,0-15.85,0,.7,2.11,1.37,4.22,2.02,6.34.27.9.54,1.8.66,2.69.21,1.56-.06,3.07.24,4.64.21,1.11.68,2.39.08,3.2-1.33-.19-2.15-1.73-2.75-2.99-1.85-3.85-4.57-7.47-7.88-10.53-.47-.43-.96-.87-1.26-1.41-.35-.62-.39-1.29-.52-1.94h-49.43c1.08,1.73,2.14,3.46,3.18,5.19.65,1.08,1.32,2.25,1.27,3.36-.05,1.11-1.18,2-2.31,1.43.29.35.58.69.87,1.04-.85-.08-1.73-.34-2.55-.76-.86.29-.78,1.47-.89,2.38-.37,2.99-3.59,4.26-6.46,5.14.57,1.67.5,3.39-.08,4.85.61,3.51.88,5.26,1.37,8.78,1.11,1.25,2.39,2.44,2.91,3.96.4,1.2.26,2.46.62,3.67.33,1.11,1.08,2.23.82,3.3-.25,1.02-1.46,1.55-2.52,1.27-.16-.04-.3-.12-.45-.19.51,5.59.68,8.38.88,13.96.52.08,1.02.37,1.26.86.49-.41,1.34-.25,1.68.3.91-1.91,2.08-3.87,4.05-4.61,1.97-.73,4.82.57,4.84,2.71-.28.24-.55.48-.83.72,1.24.81,1.84,2.5,1.35,3.87,1.45.47,2.97.99,3.96,2.15.99,1.15,1.13,3.15-.11,4.03-.69.49-1.81.75-1.8,1.6,0,.43.34.77.56,1.14.48.82.32,1.97-.38,2.65-.69.68-1.85.84-2.67.36.41,1.59.81,3.22.67,4.87-.02.18-.04.36-.07.54,13.79,0,27.59,0,41.38,0,.03-.21.05-.43.09-.64.32-1.43,1.24-2.83,2.63-3.34-.16-.43-.32-.87-.48-1.3,1.47-1.57,1.4-3.96,1.08-6.05-.33-2.09-.8-4.35.13-6.25.34-.69.96-1.34,1.74-1.35.57,0,1.08.34,1.54.68,4.04,3.08,6.6,7.95,6.66,12.95,0,.55,0,1.14.25,1.62.26.48.91.79,1.39.49-.41.55.11,1.36.77,1.48.66.12,1.33-.2,1.94-.51-.19.3-.38.65-.25.96.13.31.74.27.71-.07,0,.31,0,.63,0,.94.48-.94,1.86-1.19,2.73-.64.38.24.64.6.83,1,4.33,0,6.49,0,10.82,0,.45-8.74.47-13.13.14-21.93-1.84-3-3.73-6.01-5.68-9.02ZM129.69,106.13c.07,1.12-.03,2.33-.81,3.04-.97.89-2.59.65-4,.31-.22,1.14-.69,2.2-1.38,3.1-.17.22-.37.44-.66.46-.28.02-.55-.15-.79-.33-2.26-1.77-2.73-4.88-3.03-7.59-1.08.31-2.24.62-3.4.26-1.16-.36-2.25-1.67-1.88-2.71-.45.27-1.13.05-1.56-.38-.43-.43-.64-1.01-.73-1.57-.27-1.55.26-3.09,1.39-3.96.69-.54,1.66-.95,1.73-1.88.07-.9-.76-1.77-1.3-2.63-.54-.86-.56-2.22.38-2.21.44,0,.86.34,1.24.65.68.57,1.37,1.14,2.05,1.71.22.19.45.38.71.5.45.22.94.2,1.41.25,2.75.28,5.37,3.36,5,5.95.25-.22.37-.32.61-.54.6-.54,1.71-.3,2.44.31.74.61,1.17,1.49,1.5,2.35.62,1.61.99,3.27,1.09,4.92ZM149.56,112.79c-.64.55-.69,1.54-.81,2.41-.12.87-.48,1.85-1.34,2.02-.73.14-1.51-.4-1.92-1.08-.4-.68-.52-1.46-.63-2.21-.15-1.02-.3-2.03-.45-3.05-.05-.33-.1-.68.05-.95.11-.2.31-.33.41-.54.16-.34,0-.77-.16-1.15-1.08-2.63-2.01-5.31-2.77-8.02-.14-.49-.09-1.2.41-1.1.27.05.45.34.61.58,1.04,1.53,2.98,2.16,4.4,3.36,1.68,1.42,2.53,3.73,2.08,5.64,0,0,0-.02,0-.02-.01.07-.02.1-.03.17.01-.05.02-.1.03-.15-.37.79-.22,1.84.37,2.62.16.21.36.43.38.67.02.37-.37.57-.63.8Z"/><g class="cls-11"><path class="cls-1" d="M96.45,76.32c6.31,26.3,9.11,51.5,8.43,78.54"/><path class="cls-1" d="M113.77,76.32c6.31,26.3,9.12,51.5,8.43,78.54"/><path class="cls-1" d="M131.1,76.32c6.31,26.3,9.11,51.5,8.43,78.54"/><path class="cls-1" d="M148.43,76.32c6.31,26.3,9.11,51.5,8.43,78.54"/><path class="cls-3" d="M174.19,154.86c-28.88,0-57.76,0-86.63,0,.57-9.88.46-20.06-.3-29.93,22.93,19.09,58.13,24.03,87.12,25.53-.06,1.76-.09,2.64-.18,4.4Z"/></g><rect class="cls-5" x="83.82" y="153.39" width="95.25" height="2.96" rx="1.48" ry="1.48"/><rect class="cls-5" x="74.85" y="74.84" width="95.25" height="2.96" rx="1.48" ry="1.48"/><path class="cls-6" d="M159.02,153.22c-4.39-.02-13.65-.11-13.65-.11-.11,2.74.48,5.4,1.17,8.15.17.69,1.08,1.42,1.6,1.42s1.22-.94,1.36-1.41.38-1.36.55-2.59c.69,2.34,1.38,4.69,2.08,7.03.47,1.61,1.34,4.73,1.75,4.7s1.4-3.62,1.51-5.55c.02-.39.14-.9.53-.92.15,0,.29.08.42.15.45.27.9.55,1.35.82.08-.46.66-.74,1.07-.52.65-3.69.74-7.47.27-11.19Z"/><path class="cls-6" d="M92.98,155.89c.14.94.98,1.95,1.88,1.64.5-.17,1.09-.7,1.45-.3.09.1.13.24.16.37.59,2.36,1.51,4.63,2.71,6.74.11-2.02.04-4.06-.21-6.07.59-.15,1.03.75,1.64.66.57-.08.64-.86.56-1.43-.2-1.44-.4-2.88-.6-4.31-2.11.03-6.26.06-7.7.17l.11,2.53Z"/><g class="cls-2"><path class="cls-8" d="M147.7,100c1.01-.7.67-2.67,1.73-3.25.25-.14.53-.16.8-.25.95-.35,1.43-1.64,1.3-2.66-.13-1.03-.7-1.86-1.19-2.71-1.79-3.12-2.76-7.01-5.46-9.21l-1.27-.75c.89.86,1.16,2.26,1.39,3.57.9,5.09,1.8,10.18,2.7,15.28Z"/></g><path class="cls-6" d="M150.05,98.81c.95-.67.37-2.52,1.39-3.08.24-.13.53-.15.79-.25.94-.34,1.28-1.56,1.02-2.52-.26-.96-.94-1.74-1.54-2.54-2.21-2.91-3.66-6.56-6.7-8.59l-1.39-.69c1.01.8,1.46,2.11,1.85,3.34,1.53,4.78,3.05,9.55,4.58,14.33Z"/><g class="cls-2"><path class="cls-8" d="M94.83,95.41c1.03.02,2.4-.26,2.6-1.41.06-.36-.03-.72-.12-1.07-.68-2.62-1.18-4.85-1.95-7.43-.52.86-1.69,1.04-2.47.63.22.36.45.73.67,1.09-.84,0-1.45-.31-2.19-.71-.91.42-1.27,1.86-1.54,2.91-.72,2.71-3.21,3.55-5.62,4.77,1.56,1.26,3.32,3.37,4.87,4.64.69.57,1.39,1.14,2.21,1.44.82.3,1.8.28,2.55-.3,1.27-.96,1.37-3,.99-4.58Z"/></g><path class="cls-6" d="M95.5,94.41c1.04,0,2.4-.26,2.52-1.29.04-.33-.08-.65-.19-.96-.86-2.35-1.51-4.34-2.47-6.66-.47.78-1.63.95-2.44.59.25.32.5.65.75.97-.84.01-1.48-.27-2.25-.61-.89.39-1.15,1.69-1.36,2.64-.54,2.44-3.5,3.89-5.84,5.02,1.65,1.12,4.08,2.32,5.72,3.45.73.5,1.47,1.01,2.32,1.27.85.26,1.83.23,2.55-.29,1.21-.88,1.18-2.71.69-4.13Z"/></g></g></g></svg>