<?xml version="1.0" encoding="UTF-8"?>
<svg id="a" data-name="bateau 10" xmlns="http://www.w3.org/2000/svg" width="300" height="300" xmlns:xlink="http://www.w3.org/1999/xlink" viewBox="0 0 300 300">
  <defs>
    <filter id="b" data-name="drop-shadow-2" x="114.637" y="48.518" width="54.51" height="24.376" filterUnits="userSpaceOnUse">
      <feOffset dx="-1.219" dy="0"/>
      <feGaussianBlur result="c" stdDeviation="0"/>
      <feFlood flood-color="#42496f" flood-opacity="1"/>
      <feComposite in2="c" operator="in"/>
      <feComposite in="SourceGraphic"/>
    </filter>
  </defs>
  <g filter="url(#b)">
    <path d="M115.856,54.392s15.022-8.258,16.516-5.191-1.809,5.348-1.258,6.921c.551,1.573,4.168-.472,5.977-.157s9.032-5.26,21.465-2.827c0,0-5.971,2.434-6.836,2.198-.629-.236-2.989-1.73-5.348-.157-2.359,1.573-1.966,2.202-2.674,2.202s-3.618.315-3.618.315c0,0-2.674.236-2.202,1.73s-.157,2.989-.157,2.989c0,0,.472,1.258-.157,1.573s-2.202,1.258-2.202,1.258c0,0,.079,1.101.786,1.258.708.157.786-.079,3.461-.472s7.393-1.573,7.393-1.573c0,0,1.258-.315,2.202-.786s1.652-.865,2.674-.472.865,1.652,3.618.315,5.977-1.494,6.606-1.416,3.382.786,4.09.944,1.18.393,1.573-.157.786-1.73,1.258-1.73-.542.611-.662,1.089-.252,1.221-.451,1.327.013.756-.743.531-1.791-.491-2.68-.716-2.309-.504-4.325-.08c-2.017.425-4.06,1.022-4.883,1.088s-3.038.743-4.047.597-11.053,2.613-12.39,3.085c-1.337.472-2.536,1.101-3.264.983s-2.576-.983-2.949-.708-1.022.256-1.101.629-.472.767-1.376.786-1.868.433-1.927-.197-.02-1.101.669-1.809,2.831-2.989,1.612-4.404c-1.219-1.416-1.691-1.848-2.477-1.652-.786.197-2.635.708-2.949,1.691s-.963,1.711-1.062.904.944-4.09.944-4.09c0,0,.059-1.455-1.298-1.652-1.357-.197-2.713-1.298-3.382.472-.669,1.77-.236,6.803-.354,6.921s-.275,3.303.806,3.873c1.081.57,1.416.747,1.77.669s3.854-.315,4.168-.079l-7.55,2.477-3.264-18.502Z" fill="#42496f"/>
  </g>
</svg>