<?xml version="1.0" encoding="UTF-8"?>
<svg xmlns="http://www.w3.org/2000/svg" width="300" height="300" xmlns:xlink="http://www.w3.org/1999/xlink" viewBox="0 0 300 300">
  <defs>
    <clipPath id="b">
      <path d="M27.111,96.934v129.238c1.89.35,3.973.545,6.164.545,5.076,0,9.57-1.043,12.415-2.649.138-.006.275-.012.413-.018,1.532,1.617,3.964,2.668,6.71,2.668s5.18-1.051,6.712-2.67c1.956,1.618,5.059,2.67,8.566,2.67,2.89,0,5.507-.714,7.435-1.87,2.251,1.156,5.308,1.87,8.683,1.87,2.909,0,5.578-.533,7.704-1.418.523.885,1.18,1.418,1.895,1.418.705,0,1.352-.518,1.871-1.38,2.11.862,4.742,1.38,7.607,1.38,3.747,0,7.1-.881,9.394-2.269,1.964,1.388,4.835,2.269,8.044,2.269,2.976,0,5.668-.755,7.61-1.972,2.268,1.217,5.412,1.972,8.888,1.972.154,0,.299-.017.451-.021.308.008.613.021.926.021,5.076,0,9.57-1.043,12.415-2.649.138-.006.275-.012.413-.018,1.532,1.617,3.964,2.668,6.71,2.668s5.18-1.051,6.712-2.67c1.956,1.618,5.059,2.67,8.566,2.67,2.89,0,5.507-.714,7.435-1.87,2.251,1.156,5.308,1.87,8.683,1.87,2.909,0,5.578-.533,7.704-1.418.523.885,1.18,1.418,1.895,1.418.705,0,1.352-.518,1.871-1.38,2.11.862,4.742,1.38,7.607,1.38,3.747,0,7.1-.881,9.394-2.269,1.964,1.388,4.835,2.269,8.044,2.269,2.976,0,5.668-.755,7.61-1.972,2.268,1.217,5.412,1.972,8.888,1.972.622,0,1.226-.036,1.824-.083V96.934H27.111Z" fill="none"/>
    </clipPath>
    <filter id="c" data-name="drop-shadow-3" x="40.651" y="165.891" width="173.181" height="73.989" filterUnits="userSpaceOnUse">
      <feOffset dx="-1.219" dy="0"/>
      <feGaussianBlur result="d" stdDeviation="0"/>
      <feFlood flood-color="#42496f" flood-opacity="1"/>
      <feComposite in2="d" operator="in"/>
      <feComposite in="SourceGraphic"/>
    </filter>
    <clipPath id="e">
      <path d="M81.977,175.703h108.084c11.753,0,21.294,9.542,21.294,21.294v33.563H60.683v-33.563c0-11.753,9.542-21.294,21.294-21.294Z" fill="none"/>
    </clipPath>
    <clipPath id="f">
      <path d="M126.772,670.147c-.714.568-1.284,1.023-1.977,1.575-.003-.058.007.152.018.393-3.196-.319-3.327-2.383-.098-2.884,1.266-.458,1.292-1.73,1.796-3.082-1.457.556-2.442.47-3.814.697.252.876.893.851,1.45,1.442-.481.508-1.165.591-1.771.508-.164-1.022-1.028-2.49.117-3.246,1.081-.446-.186-1.686-.567-2.013-.576.277-1.111.961-.617,1.595.308.467.508.864-.116,1.321-1.184,3.272-3.027-.469-4.858-1.096.043-.188.129-.569.249-1.096-1.736,1.039-.908-3.182-2.925-.821-1.624-1.05-2.16-4.844-4.273-4.346-.195.121-.721-.087-.862-.323-.793-2.584-3.2-3.697-4.05-6.08-.648-1.513-1.976-2.377-3.113-3.449-.105-.152-.742-.109-.861.057-.955,1.197-2.936.12-3.038-1.301-.305-.566-1.47-1.131-1.391-1.989-.993-1.138.043-1.066.753-1.648-.713-.298-.871-.891-.862-1.733.182-.805-1.666-2.151-.396-2.576,1.456-.278.308-1.173.293-2.22-.995,1.425-2.019,2.272-3.674,2.052-.749.61-1.209.199-1.709-.265-1.289-1.414-3.222.461-4.368,1.389.096-3.759-4.685.9-6.54,1.179-.045-1.293-1.546-2.313-2.535-1.037-2.249-.607-2.976-3.952-4.684-5.586-.354-1.535-2.399-1.151-2.496-2.62-.174-1.629-2.3-1.873-2.288-3.673-1.441-.59-1.123-2.543-2.161-3.441-1.784-2.289-6.496-5.151-5.755-8.104.894-.917,0-1.194-.607-1.76-.469-1.012-1.005-.044-1.776-.239,1.881-2.059-1.466-2.334,1.303-5.969.307-.896-.85-.648-1.11-.104-.689,1.234-1.677,1.063-2.634.934-.512-.549-.059-1.924-1.332-1.664-.087-.365-.174-.73-.265-1.114-1.241.3-1.93,1.597-.515,2.208-1.318,1.253-3.583,4.501-4.84,1.678-1.488.342-1.344-2.237-2.996-.947-.081-.699-.146-1.267-.22-1.908-.179.118-.405.268-.633.418-.357-.743-.386-1.794-1.555-1.625-.128-.956-.256-1.902-.401-2.984-.273.4-.459.674-.57.836-1.739-.398-2.103-2.224-3.029-3.533-.095.013-.19.027-.285.04-.063.335-.127.67-.19,1.006-.1-.005-.2-.01-.301-.014.267-3.392-2.866-4.422-3.859-7.278.268-1.007.296-1.422-.313-2.239-.385.414-.736.792-1.218,1.311-.78-.576-.39-2-1.553-1.698-.335-1.357-.028-2.349.869-3.26-.982-1.094,1.552-3.478-.432-3.648-.108.467-.211.908-.313,1.349h-.215c.026-1.112.053-2.223.084-3.524,2.431,1.178,2.282-2.245,2.499-3.943-.967.712-1.639,2.005-2.82,1.039.176.3.352.6.614,1.048-.519.131-.969.245-1.271.321-.347-1.909.465-3.139,1.711-4.501.127.086.294.199.395.268,2.901-4.637,5.805-9.825,10.004-13.792-1.101-.897-1.671-2.744-.22-3.567.661.055,1.365.339,1.709.081.63-.781,1.133-1.841-.331-2.352-.007-1.37,1.816-2.873.508-4.08-.762-.851-.499-2.634-1.967-2.737-1.541-.467-2.351.923-3.668,1.337-1.282-.241-1.534,1.02-2.196,1.866-.778-.443-1.737-.572-2.254-1.223-.354-1.428-1.427-.995-2.579-1.251.279-.295.512-.541.756-.799-1.61-.454-1.243,1.18-.684,1.971-.347.287-.659.544-1.161.959-.146-.998.719-2.27-.491-2.696-2.003-.024-2.094-3.775-4.13-2.353.013-.316.026-.622.039-.933-1.119-.022-1.15-.978-1.739-1.663-2.298-1.886-1.623-1.258-2.3-3.981-.202.134-.39.26-.632.421-.647-.984-1.563-1.132-1.856-2.568-1.328-2.881-5.346-3.058-7.079-5.386-.585.083-1.041.148-1.601.228,1.383-2.045.167-3.317.285-5.289.802-1.974,1.602-3.943,2.4-5.907l.357.032c-.084.989-.167,1.98-.27,3.197.814-.916.531-1.853.959-2.706.183.12.335.22.487.32.067-.034.134-.067.201-.101.024-1.515-1.858-.945-.615-2.467,8.097-15.249,14.395-31.292,23.079-46.174.452-.861.735-1.603,1.645-.565,1.744.56,1.811-2.35,3.56-2.194.431-.026.743-1.269.438-1.892-.072.32-.123.543-.188.83-.996.023-1.962.045-2.946.068.288-2.054,2.598-2.155,4.1-1.523,1.683-2.489,2.304-6.224,5.744-6.788-.14-.172-.266-.327-.539-.662,2.52-.59,4.58,2.546,6.67,1.905.44-.39.743-.297.818.309-.216.079-.43.157-.716.261,4.26,1.531,8.617,5.253,12.519,6.025.919,2.415,2.378-.584,3.433-1.49.519-.833,1.393-.071,2.021-.601,8.953-9.038,16.928-19.513,26.772-26.991.548-.009,1.596.235,1.946.822,1.848,1.277,2.466-3.795,6.841,1.161.667,1.147,2.425-.463,2.708,1.046.282,1.139,1.689,1.087,2.207,2.067,1.786,1.081,2.565,3.146,4.737,3.803.689.392.8.85,1.497-.017.118,1.414.309,1.516,1.399.76.079.407.154.792.229,1.178l1.123-.477c-.465,6.943,24.591-23.986,27.83-25.766,1.614.353-.188,1.261.697,2.163.504.143.961-.691,1.338-.89,1.676-.328-.022,1.919,1.229,2.224.722.181.831,1.901,1.677.962.181.363.422.654.47.981.121.87,1.498.81,1.687.114.111-.926-.632-2.356.922-2.128.695.044.417,1.093.954,1.37-.252.402-.445.71-.638,1.018.435.124.871.249,1.436.41-.455,1.116-.409,1.297.704,1.757.236,1.007,1.231,1.468,1.973,2.04.853.704,1.654,2.045,3.013,1.97-.367,1.39,1.423.545,2.121.967-1.036.973-.927,1.293.14,1.928-.026.064-.052.129-.078.193-.473-.052-.945-.105-1.599-.177.27.731,1.157.622.746,1.475-.068.73,1.223.916,1.837.424-.165.316-.264.505-.399.765.57-.039.209,1.014.965.708.422-.171.76-.545,1.101-.949-1.081.652-1.342-.397-.403-.954,1.362.035,2.055-.861,2.827-1.742,1.164-1.315,2.162-2.092,3.896-1.315.42.365.792.737,1.358.086,1.024.926,2.01,1.817,2.997,2.709.08-.067.161-.134.241-.2-.201-.332-.402-.663-.707-1.165,1.923,1.296,3.917-1.03,5.357.406.242,1.625,1.152,2.489,2.362,3.451,1.077.962.459,2.642,1.638,3.51.591.438.42,1.541,1.363.95,1.136-.803,2.064,1.302,1.41,2.168.424.081.745.143,1.018.195-.349.427-.657.804-.966,1.18.601.262-.509,1.372.736,1.339.079-.234.163-.483.242-.715.997.668,2.299,1.187,1.222,2.566.322.045.606.085.957.133-.052.234-.096.434-.112.508.399.361.738.669,1.123,1.017-.197.249-.374.474-.652.826.998-.259,1.849-.481,2.782-.723.017.314.026.498.036.679,2.534.548.472,4.428.011,6.054.081.056.162.112.243.169,1.616-1.377,2.453-3.491,3.878-5.066.083.048.165.097.248.145-.384.974-.893,1.909-1.079,2.947,1.031-.032,1.49-.808,2.019-1.568,3.259,2.237,14.631-18.5,13.479-7.991.094.03.189.059.283.089,1.094-2.144,4.509-2.623,4.519.402-.096.89.735.556,1.293.499.593-.139.81.106.812.662-.08,1.962,4.51.524,3.973,3.236,2.144-.457,1.241,2.226,2.864,2.406.605-.004,1.21.372,1.837.587-.225.485-.433.934-.678,1.461,5.02.996,1.101.777,3.501,2.933,4.404,2.295.161,6.216-.403,9.674.089.041.178.082.266.123-.185.117-.369.233-.605.382.059.154.126.329.196.511-1.449.027-.687,1.274-1.387,2.138-.349.477-.522.808.079,1.218.73.849.617,2.264.918,3.296-.073-.059-.231-.188-.271-.221-.656,1.441.088,2.991-1.8,3.481-.204.757-.278,1.634-1.183,2.076-.315-.334-.584-.62-.852-.905-.137-.009-.274-.017-.41-.026.293,2.122-.855,3.447-1.799,5.239,1.242.98,3,.811,3.902,1.869.136.202.265.614.366.604,1.437-.079,1.729,1.318,2.679,1.994.643-.661,1.245-1.281,1.864-1.918.26.187.466.335.672.483.052-.03.105-.061.157-.091l-.428-.924c1.562-3.164,1.703.665,2.812-1.18.475.196-.208,1.169.688.926.129-.035.115-.591.193-1.067,1.148-.008,1.437,1.548,2.789.384.073.773.039,1.143.215,1.756,1.685-.842,3.335-2.183,4.895-3.547,1.023-1.326,1.915-1.908,3.486-.744-.475.142-.748.223-1.02.305-.005.067-.011.135-.016.202.378.068.756.137,1.195.217.034-.181.063-.334.1-.528,1.723.228.025,1.229,1.078,1.799.134-.204.256-.391.296-.453,1.868.37,1.023-1.643.979-2.751l.204-.01c1.293,1.101,1.019,3.405,2.372,4.092.478.042.83.144,1.165.502,1.443.824.727-1.53,1.45-1.887.825-.061,1.284.754,1.73,1.415-.65,1.95,2.239,2.847,3.33,4.16-1.55-.417-2.332-.086-.804,1.442.229-.349.361-.551.594-.905.361.657.506,1.139,1.073,1.535.326-.601.054-1.047-.141-1.632.68.197,1.275.399.869,1.299.351,2.153,4.294-.792,3.39,2.185.898-.303,3.057.317,1.793,1.39-.131.095-.137.605-.006.756.169.194.628.381.795.285.865-.523,1.285.614,1.879,1.035,1.081,1.873-1.129,3.834-.969,5.528,1.202.529-.36,2.016-1.067.878-.308.414-.488.762.194.862,1.616,1.818-2.468,6.466-3.68,8.628.365-.107.59-.173.909-.267.159.618,1.012,1.706-.01,1.987-.745.554-.263,1.555-.229,2.5.289.015,1.168-.414,1.404-.381.598.516,1.12.261,1.637-.051.559-.337.696-.053.782.465.801,2.367,1.179,4.776,2.081,7.035.296,1.29.714,3.393,2.176,3.714.357.969,1.887,1.054,1.624,2.511,2.597-.272,2.122,3.134,2.166,4.769,2.929,1.423-1.903,4.927-2.06,7.046-1.368,1.049-1.719,3.218-2.761,3.844-.552.332.13,1.785-.94,1.65-.796.839-1.221,1.956-2.062,3.186,3.359.425,6.449.815,9.532,1.205.032,1.666.885.365,1.742,1.274-.463.32-.798.55-1.11.766,1.152,1.211,1.958,3.802.022,4.516-1.213-.421-.742.496-.819,1.117.542-.177.997-.326,1.52-.497.973,1.168-1.798,1.906-.43,3.306.013,5.671-9.282,6.554-2.154,13.149-.601.93.805,1.579.35,2.49-.864,1.241-.557,2.496,1.028,2.77.031-.119.095-.368.163-.633,1.014.619,2.481,4.084,2.35,5.432.203-.031.46-.071.716-.111-.01.096-.021.192-.031.288-.183.196-.365.393-.548.59.022.092.044.183.066.275.393-.066.786-.133,1.324-.224-.604.681-.237,2.147-1.186,2.219-.146-.009-.301.289-.452.446.707.611,1.519-.008,2.306-.16.039.066.079.131.118.197-3.126,4.171-9.064,6.455-10.856,11.429-.128,1.576-.41.812-1.467,1.079.511.307,1.427.88.622,1.38-.764.446.062,1.168-.253,1.875-.087.003-.174.006-.261.009-.122-.197-.243-.393-.517-.836-2.745,9.891-14.735,10.7-21.933,16.161-4.721,4.006-9.465,8.241-14.742,11.416-1.032,1.679-4.844,4.864-6.137,2.157.234-.101.458-.199.914-.396-.521-.325-.863-.539-1.347-.841.147,1.114-.969,3.195-.613,1.098-1.212-.582-.148-1.97-.78-3.19-.401.884-.706,1.557-1.011,2.231-1.428-.731-.155-3.632-1.829-3.831-.673,1.024-1.157.594-1.616-.31-.299.539-.537.97-.797,1.437-3.272-3.432-9.814,6.669-13.382,6.068-1.938.182-3.462,3.741-5.535,2.824-8.971-2.229-27.887,23.203-33.172,18.759.277-.119.533-.228,1.027-.44-.491-.356-.823-.597-1.214-.881-1.253,2.454-1.359-.662-1.252-1.807-.098-.031-.197-.062-.295-.093-.366.652-.732,1.305-1.092,1.947-1.624-.22.047-4.78-1.789-3.836-.899,1.306-.917.067-1.661-.321-.179.432-.346.837-.504,1.219-2.082-1.718-4.408.854-6.83.32-.817.38-2.702,1.194-2.44-.602.711-.752,1.476-3.949-.374-3.102-.693-1.096-.614-1.406.383-1.632-.13-1.436-.512-1.982-1.573-.714.167-2.383-1.748-3.383-1.153-5.508.157-.534-.429-1.418-.268-1.963.769-1.473-.333-2.133-.906-3.004-1.931-.74-2.614-2.2-3.516-4.067-.659.517-1.34,1.051-2.08,1.631.027-.286.049-.514.074-.772-2.134.455-.86,2.028-2.308,3.424-.48-2.06,1.266-3.471,1.159-5.483-7.491,8.85-14.265,20.34-21.905,27.933ZM281.647,565.413c.861.91-.177,1.368.871,1.808.243-.854,1.473-1.293.613-2.462l-.624.31-.413-.196c.221-.269.443-.537.662-.803-1.404-1.639-1.201.322-1.109,1.344ZM33.541,583.748c-.44.598-.881,1.197-1.321,1.794.416.232.892.496,1.372.764.972-1.015.967-1.809-.051-2.558ZM282.421,573.251c-.222-.095-.444-.189-.666-.284.342-.493.685-.986.992-1.43-.25-.17-.55-.375-.848-.578q-.56.478.02,1.052c-.282.189-.563.377-.843.564-.009.121-.018.242-.026.363.457.104.914.208,1.372.313ZM280.446,562.308c-.318.619-.555,1.08-.89,1.733,1.061-.275,2.309-1.141.89-1.733ZM230.913,489.214c-.07.023-.14.046-.21.069-.088.634-.176,1.268-.273,1.965l.902-.413c-.137-.532-.278-1.077-.419-1.622ZM179.677,443.765c-.848.503-.866.792-.101,1.425.035-.491.064-.905.101-1.425ZM38.809,478.717c.649.155,1.027.174,1.063-.485-.428-.544-.687.017-1.063.485ZM31.936,591.013c-.467.934-.379,1.117.477,1.239-.178-.463-.328-.851-.477-1.239ZM281.27,569.697c.154.012.308.025.462.037.005-.409.011-.818.016-1.226-.12-.01-.24-.02-.36-.03-.039.406-.079.812-.118,1.218ZM76.359,639.142c-.032.385-.064.77-.106,1.275.927-.494.838-.89.106-1.275Z" fill="none"/>
    </clipPath>
  </defs>
  <g isolation="isolate">
    <g id="a" data-name="bateau 03">
      <g>
        <g clip-path="url(#b)">
          <g>
            <path d="M212.435,229.719s12.46-16.648,7.995-18.232c-4.465-1.584-22.186,13.793-22.186,13.793l14.191,4.439Z" fill="#fff"/>
            <path d="M209.222,233.793s12.46-16.648,7.995-18.232c-4.465-1.584-22.186,13.793-22.186,13.793l14.191,4.439Z" fill="#9bc8ec"/>
            <g>
              <g>
                <path d="M217.192,207.251c.435.143.523.612.393.865-.154.302-.508.444-.81.312-.318-.14-.461-.504-.323-.826.022-.052.053-.1.077-.151.2-.432.245-.446.663-.2Z" fill="#fff"/>
                <path d="M209.661,213.55c.146-.272.48-.375.757-.234.291.148.398.492.238.773-.15.265-.495.364-.765.219-.269-.144-.374-.49-.231-.758Z" fill="#fff"/>
                <path d="M216.384,214.283c.124-.227.343-.279.606-.144.253.13.352.431.221.671-.127.234-.42.315-.658.184-.25-.138-.32-.434-.169-.711Z" fill="#fff"/>
                <path d="M219.844,213.778c-.132.231-.409.309-.633.178-.221-.13-.295-.414-.165-.641.14-.245.43-.337.653-.206.224.131.287.422.145.669Z" fill="#fff"/>
                <path d="M214.269,209.818c.122-.227.409-.316.635-.197.229.12.314.405.19.633-.126.232-.401.316-.633.194-.234-.123-.318-.398-.192-.63Z" fill="#fff"/>
                <path d="M221.517,207.988c.124-.211.406-.278.618-.147.202.125.27.387.155.596-.122.221-.39.294-.611.166-.216-.125-.288-.399-.162-.615Z" fill="#fff"/>
                <path d="M210.377,216.553c-.209-.124-.276-.377-.157-.591.124-.222.393-.293.611-.162.207.125.276.384.158.592-.124.221-.392.291-.612.16Z" fill="#fff"/>
                <path d="M221.366,210.692c-.116.198-.355.266-.536.152-.187-.118-.255-.386-.145-.574.113-.194.343-.254.539-.142.202.116.263.358.142.563Z" fill="#fff"/>
                <path d="M208.54,211.667c.032-.057.059-.118.098-.17.121-.16.276-.197.441-.082.167.117.174.281.068.444-.055.085-.139.153-.197.237-.107.155-.241.216-.407.112-.169-.106-.161-.258-.066-.416.024-.04.046-.081.069-.122l-.007-.004Z" fill="#fff"/>
                <path d="M217.707,217.285c-.104.196-.344.276-.529.176-.187-.101-.262-.374-.156-.567.1-.182.36-.254.54-.15.185.107.249.347.146.541Z" fill="#fff"/>
                <path d="M211.193,205.002c-.218-.113-.304-.323-.213-.514.086-.18.326-.256.512-.161.186.095.308.497.204.677-.082.142-.228.142-.503,0Z" fill="#fff"/>
                <path d="M214.245,204.48c-.113.188-.359.248-.544.123-.194-.13-.239-.312-.134-.519.102-.199.341-.259.536-.145.193.113.255.35.142.54Z" fill="#fff"/>
                <path d="M208.485,207.189c.111-.178.369-.234.553-.12.187.116.239.334.124.516-.117.185-.365.243-.547.128-.174-.109-.234-.356-.129-.524Z" fill="#fff"/>
                <path d="M211.514,211.934c-.178-.101-.249-.338-.154-.517.1-.187.353-.252.541-.138.177.108.239.345.135.52-.103.173-.343.236-.522.135Z" fill="#fff"/>
                <path d="M213.853,207.462c.145.109.2.265.101.453-.091.172-.333.24-.49.134-.173-.116-.215-.284-.124-.469.084-.172.325-.23.512-.119Z" fill="#fff"/>
                <path d="M213.166,216.055c.018.15.085.315.043.445-.063.193-.256.216-.427.126-.176-.093-.242-.28-.13-.431.079-.107.261-.139.397-.205l.118.065Z" fill="#fff"/>
                <path d="M216.815,211.812c-.047-.227-.11-.365-.085-.485.01-.048.234-.106.325-.069.16.065.202.229.086.375-.051.065-.155.089-.326.179Z" fill="#fff"/>
                <path d="M215.818,215.351c-.195.015-.333.068-.399.02-.07-.05-.073-.196-.105-.299.105-.029.23-.105.309-.072.076.031.104.177.195.351Z" fill="#fff"/>
                <path d="M212.767,213.926c.181-.015.307-.064.37-.021.066.045.071.179.103.274-.103.03-.218.103-.304.077-.064-.019-.09-.165-.168-.33Z" fill="#fff"/>
                <path d="M206.956,212.288c.193-.015.325-.065.381-.02.063.05.094.198.068.282-.015.049-.191.099-.254.068-.073-.036-.102-.161-.195-.33Z" fill="#fff"/>
                <path d="M211.181,210.544c-.01-.185-.054-.313-.009-.371.049-.063.182-.06.278-.085.025.097.094.213.063.287-.028.067-.164.09-.332.17Z" fill="#fff"/>
                <path d="M211.719,208.75c-.019-.164-.068-.28-.029-.335.041-.058.188-.103.245-.072.057.031.102.177.076.244-.024.063-.147.087-.292.163Z" fill="#fff"/>
                <path d="M214.711,217.24c-.015-.165-.058-.274-.022-.337.032-.055.191-.103.228-.073.063.051.115.179.094.25-.018.06-.149.085-.3.161Z" fill="#fff"/>
                <path d="M213.164,217.117c.013.168.058.286.017.341-.045.06-.167.063-.256.09-.024-.09-.088-.195-.061-.264.026-.064.149-.088.3-.167Z" fill="#fff"/>
                <path d="M216.944,205.819c-.012-.132-.056-.249-.019-.287.054-.055.166-.053.254-.075.017.089.067.191.04.264-.018.049-.146.056-.274.099Z" fill="#fff"/>
                <path d="M220.94,206.91c-.142.003-.263.04-.302-.001-.053-.055-.042-.17-.059-.259.084-.01.188-.054.245-.02.057.034.066.148.116.281Z" fill="#fff"/>
                <path d="M213.952,213.981c.13-.019.232-.064.272-.032.057.046.067.149.097.228-.082.018-.172.066-.242.044-.049-.015-.069-.124-.127-.24Z" fill="#fff"/>
                <path d="M215.417,212.592c.126-.016.212-.051.273-.026.038.015.072.158.048.18-.05.047-.144.078-.21.064-.04-.008-.06-.111-.111-.219Z" fill="#fff"/>
              </g>
              <g>
                <path d="M217.039,221.293c-.327-.162-.343-.542-.212-.727.156-.221.451-.293.674-.154.235.146.307.45.161.688-.023.038-.053.073-.078.11-.207.318-.244.324-.546.083Z" fill="#fff"/>
                <path d="M223.694,217.18c-.146.198-.421.241-.624.099-.213-.15-.258-.433-.1-.637.149-.192.432-.231.628-.086.196.144.24.429.096.624Z" fill="#fff"/>
                <path d="M218.475,215.838c-.123.165-.303.181-.494.045-.185-.131-.229-.38-.098-.555.127-.17.367-.201.54-.07.181.137.203.379.052.58Z" fill="#fff"/>
                <path d="M215.689,215.843c.131-.167.358-.197.519-.068.16.127.185.36.057.524-.139.177-.377.217-.538.089-.162-.129-.179-.365-.038-.544Z" fill="#fff"/>
                <path d="M219.636,219.6c-.122.165-.359.202-.523.084-.167-.121-.202-.355-.078-.521.126-.168.352-.204.521-.081.17.123.205.35.08.519Z" fill="#fff"/>
                <path d="M213.712,220.22c-.122.153-.352.173-.504.046-.145-.122-.169-.336-.054-.488.121-.16.341-.187.501-.061.156.123.182.348.058.503Z" fill="#fff"/>
                <path d="M223.471,214.73c.15.121.175.329.056.484-.123.161-.343.187-.5.058-.149-.122-.174-.334-.057-.485.123-.16.342-.185.501-.056Z" fill="#fff"/>
                <path d="M214.138,218.104c.114-.143.311-.169.44-.059.134.114.157.333.049.469-.111.14-.299.162-.441.051-.146-.115-.167-.312-.048-.461Z" fill="#fff"/>
                <path d="M224.365,218.792c-.032.041-.06.087-.097.123-.113.112-.24.124-.357.014-.118-.112-.105-.241-.003-.358.053-.061.127-.105.182-.164.102-.11.215-.143.334-.042.121.103.097.222.005.335-.024.029-.046.059-.069.088l.005.004Z" fill="#fff"/>
                <path d="M217.773,213.32c.104-.143.303-.179.437-.079.136.101.164.325.059.465-.099.132-.313.16-.443.057-.133-.106-.157-.302-.053-.443Z" fill="#fff"/>
                <path d="M221.515,223.748c.159.114.203.289.109.43-.088.132-.286.165-.422.069-.136-.096-.186-.427-.084-.557.08-.103.196-.086.397.058Z" fill="#fff"/>
                <path d="M219.049,223.813c.11-.135.311-.155.443-.035.138.125.153.273.046.425-.103.145-.299.165-.439.053-.14-.111-.162-.305-.05-.442Z" fill="#fff"/>
                <path d="M223.899,222.33c-.108.128-.318.143-.45.032-.135-.113-.151-.29-.039-.421.114-.133.315-.15.446-.039.125.106.144.307.042.428Z" fill="#fff"/>
                <path d="M222.049,218.244c.129.1.158.295.063.425-.1.136-.307.159-.442.047-.128-.105-.149-.299-.047-.425.101-.125.298-.147.427-.047Z" fill="#fff"/>
                <path d="M219.696,221.506c-.102-.103-.128-.232-.028-.369.091-.125.29-.151.402-.05.123.111.137.248.044.384-.086.126-.283.144-.418.035Z" fill="#fff"/>
                <path d="M221.215,214.806c.003-.12-.031-.258.017-.356.072-.145.227-.142.351-.051.128.093.159.248.054.355-.075.076-.222.08-.336.117l-.086-.065Z" fill="#fff"/>
                <path d="M217.855,217.738c.012.184.045.3.012.392-.013.036-.197.057-.264.018-.119-.069-.134-.203-.026-.306.048-.045.133-.052.278-.104Z" fill="#fff"/>
                <path d="M219.043,215.06c.156.01.27-.015.317.03.05.048.035.163.048.248-.086.011-.193.057-.252.022-.056-.033-.062-.151-.114-.299Z" fill="#fff"/>
                <path d="M221.288,216.531c-.144-.008-.249.016-.294-.025-.047-.043-.036-.149-.05-.228.085-.012.184-.056.249-.026.048.022.052.141.095.279Z" fill="#fff"/>
                <path d="M225.684,218.483c-.154-.01-.264.014-.303-.028-.044-.047-.052-.167-.022-.23.018-.037.162-.057.208-.025.053.037.062.139.117.282Z" fill="#fff"/>
                <path d="M222.154,219.378c-.013.147.007.253-.035.294-.046.044-.15.026-.229.036-.009-.08-.05-.178-.017-.233.03-.05.14-.052.281-.096Z" fill="#fff"/>
                <path d="M221.526,220.732c-.004.132.022.229-.015.268-.039.041-.16.06-.202.029-.042-.031-.06-.151-.032-.201.026-.047.126-.052.249-.095Z" fill="#fff"/>
                <path d="M220.131,213.696c-.007.132.015.223-.021.269-.031.04-.162.06-.188.032-.044-.048-.071-.154-.046-.208.021-.045.127-.05.254-.093Z" fill="#fff"/>
                <path d="M221.337,213.969c.009-.134-.013-.232.025-.271.042-.042.139-.03.212-.042.009.073.047.164.018.215-.027.047-.128.053-.255.097Z" fill="#fff"/>
                <path d="M217.073,222.45c-.005.106.016.203-.018.229-.049.037-.137.023-.209.031-.003-.072-.031-.158-.002-.213.02-.036.121-.028.228-.047Z" fill="#fff"/>
                <path d="M214.044,221.135c.113.014.212-.001.238.035.035.049.014.139.017.211-.067-.002-.155.022-.196-.012-.041-.033-.035-.124-.059-.234Z" fill="#fff"/>
                <path d="M220.359,216.352c-.104,0-.191.024-.218-.005-.039-.043-.036-.125-.051-.19.066-.005.143-.032.196-.007.037.018.041.106.073.203Z" fill="#fff"/>
                <path d="M219.046,217.281c-.101-.002-.173.016-.218-.011-.028-.016-.039-.133-.017-.148.044-.031.122-.045.173-.027.03.011.035.095.063.185Z" fill="#fff"/>
              </g>
            </g>
          </g>
          <g filter="url(#c)">
            <g>
              <rect x="56.665" y="222.428" width="5.095" height="6.187" fill="#b1ddea"/>
              <polygon points="61.76 228.615 58.09 228.615 59.538 222.428 61.76 222.428 61.76 228.615" fill="#42496f"/>
              <path d="M55.895,228.615c-2-.226-3.247-.994-3.875-1.467-.57-.429-1.22-.932-1.22-1.626s.65-1.197,1.22-1.626c.629-.473,1.876-1.242,3.875-1.468v6.187Z" fill="#b1ddea"/>
              <path d="M55.895,228.615v-6.187c-.62.07-1.159.196-1.639.345-.028.883-.184,2.705-.87,5.174.649.29,1.477.552,2.508.668Z" fill="#42496f"/>
              <path d="M53.208,211.51c-4.185-2.638,2.351,10.495,2.254,14.011.097,3.516-6.44,16.65-2.254,14.011,4.185-2.639,3.457-14.011,3.457-14.011,0,0,.728-11.373-3.457-14.011Z" fill="#6498d1"/>
            </g>
            <line x1="66.355" y1="166.501" x2="205.683" y2="166.501" fill="none" stroke="#6498d1" stroke-linecap="round" stroke-linejoin="round" stroke-width="1.219"/>
            <g>
              <line x1="68.715" y1="183.489" x2="68.715" y2="166.501" fill="none" stroke="#6498d1" stroke-linecap="round" stroke-linejoin="round" stroke-width="1.219"/>
              <line x1="75.125" y1="183.489" x2="75.125" y2="166.501" fill="none" stroke="#6498d1" stroke-linecap="round" stroke-linejoin="round" stroke-width="1.219"/>
              <line x1="81.535" y1="183.489" x2="81.535" y2="166.501" fill="none" stroke="#6498d1" stroke-linecap="round" stroke-linejoin="round" stroke-width="1.219"/>
              <line x1="87.944" y1="183.489" x2="87.944" y2="166.501" fill="none" stroke="#6498d1" stroke-linecap="round" stroke-linejoin="round" stroke-width="1.219"/>
              <line x1="94.354" y1="183.489" x2="94.354" y2="166.501" fill="none" stroke="#6498d1" stroke-linecap="round" stroke-linejoin="round" stroke-width="1.219"/>
              <line x1="100.764" y1="183.489" x2="100.764" y2="166.501" fill="none" stroke="#6498d1" stroke-linecap="round" stroke-linejoin="round" stroke-width="1.219"/>
              <line x1="107.174" y1="183.489" x2="107.174" y2="166.501" fill="none" stroke="#6498d1" stroke-linecap="round" stroke-linejoin="round" stroke-width="1.219"/>
              <line x1="113.584" y1="183.489" x2="113.584" y2="166.501" fill="none" stroke="#6498d1" stroke-linecap="round" stroke-linejoin="round" stroke-width="1.219"/>
              <line x1="119.994" y1="183.489" x2="119.994" y2="166.501" fill="none" stroke="#6498d1" stroke-linecap="round" stroke-linejoin="round" stroke-width="1.219"/>
              <line x1="126.404" y1="183.489" x2="126.404" y2="166.501" fill="none" stroke="#6498d1" stroke-linecap="round" stroke-linejoin="round" stroke-width="1.219"/>
              <line x1="132.814" y1="183.489" x2="132.814" y2="166.501" fill="none" stroke="#6498d1" stroke-linecap="round" stroke-linejoin="round" stroke-width="1.219"/>
              <line x1="139.224" y1="183.489" x2="139.224" y2="166.501" fill="none" stroke="#6498d1" stroke-linecap="round" stroke-linejoin="round" stroke-width="1.219"/>
              <line x1="145.634" y1="183.489" x2="145.634" y2="166.501" fill="none" stroke="#6498d1" stroke-linecap="round" stroke-linejoin="round" stroke-width="1.219"/>
              <line x1="152.044" y1="183.489" x2="152.044" y2="166.501" fill="none" stroke="#6498d1" stroke-linecap="round" stroke-linejoin="round" stroke-width="1.219"/>
              <line x1="158.454" y1="183.489" x2="158.454" y2="166.501" fill="none" stroke="#6498d1" stroke-linecap="round" stroke-linejoin="round" stroke-width="1.219"/>
              <line x1="164.864" y1="183.489" x2="164.864" y2="166.501" fill="none" stroke="#6498d1" stroke-linecap="round" stroke-linejoin="round" stroke-width="1.219"/>
              <line x1="171.274" y1="183.489" x2="171.274" y2="166.501" fill="none" stroke="#6498d1" stroke-linecap="round" stroke-linejoin="round" stroke-width="1.219"/>
              <line x1="177.684" y1="183.489" x2="177.684" y2="166.501" fill="none" stroke="#6498d1" stroke-linecap="round" stroke-linejoin="round" stroke-width="1.219"/>
              <line x1="184.094" y1="183.489" x2="184.094" y2="166.501" fill="none" stroke="#6498d1" stroke-linecap="round" stroke-linejoin="round" stroke-width="1.219"/>
              <line x1="190.504" y1="183.489" x2="190.504" y2="166.501" fill="none" stroke="#6498d1" stroke-linecap="round" stroke-linejoin="round" stroke-width="1.219"/>
              <line x1="196.914" y1="183.489" x2="196.914" y2="166.501" fill="none" stroke="#6498d1" stroke-linecap="round" stroke-linejoin="round" stroke-width="1.219"/>
              <line x1="203.324" y1="183.489" x2="203.324" y2="166.501" fill="none" stroke="#6498d1" stroke-linecap="round" stroke-linejoin="round" stroke-width="1.219"/>
            </g>
            <path d="M81.977,175.703h108.084c11.753,0,21.294,9.542,21.294,21.294v33.563H60.683v-33.563c0-11.753,9.542-21.294,21.294-21.294Z" fill="#b1ddea"/>
            <g clip-path="url(#e)">
              <g mix-blend-mode="multiply" opacity=".5">
                <line x1="130.306" y1="173.283" x2="130.306" y2="233.183" fill="none" stroke="#a384bb" stroke-linecap="round" stroke-linejoin="round" stroke-width=".61"/>
                <line x1="130.306" y1="188.995" x2="213.528" y2="188.995" fill="none" stroke="#a384bb" stroke-linecap="round" stroke-linejoin="round" stroke-width=".61"/>
                <line x1="168.112" y1="188.995" x2="168.112" y2="238.584" fill="none" stroke="#a384bb" stroke-linecap="round" stroke-linejoin="round" stroke-width=".61"/>
                <line x1="130.306" y1="191.941" x2="42.175" y2="191.941" fill="none" stroke="#a384bb" stroke-linecap="round" stroke-linejoin="round" stroke-width=".61"/>
                <line x1="54.449" y1="213.789" x2="130.306" y2="213.789" fill="none" stroke="#a384bb" stroke-linecap="round" stroke-linejoin="round" stroke-width=".61"/>
                <line x1="95.201" y1="213.789" x2="95.201" y2="191.941" fill="none" stroke="#a384bb" stroke-linecap="round" stroke-linejoin="round" stroke-width=".61"/>
              </g>
              <g mix-blend-mode="multiply" opacity=".25">
                <g>
                  <line x1="164.794" y1="223.894" x2="164.794" y2="223.888" fill="none" stroke="#a384bb" stroke-linecap="round" stroke-linejoin="round" stroke-width="1.219"/>
                  <line x1="164.794" y1="220.35" x2="164.794" y2="193.716" fill="none" stroke="#a384bb" stroke-dasharray=".012 3.539" stroke-linecap="round" stroke-linejoin="round" stroke-width="1.219"/>
                  <line x1="164.794" y1="191.947" x2="164.794" y2="191.941" fill="none" stroke="#a384bb" stroke-linecap="round" stroke-linejoin="round" stroke-width="1.219"/>
                </g>
                <g>
                  <line x1="133.375" y1="223.894" x2="133.375" y2="223.888" fill="none" stroke="#a384bb" stroke-linecap="round" stroke-linejoin="round" stroke-width="1.219"/>
                  <line x1="133.375" y1="220.35" x2="133.375" y2="193.716" fill="none" stroke="#a384bb" stroke-dasharray=".012 3.539" stroke-linecap="round" stroke-linejoin="round" stroke-width="1.219"/>
                  <line x1="133.375" y1="191.947" x2="133.375" y2="191.941" fill="none" stroke="#a384bb" stroke-linecap="round" stroke-linejoin="round" stroke-width="1.219"/>
                </g>
                <g>
                  <line x1="127.061" y1="210.567" x2="127.061" y2="210.561" fill="none" stroke="#a384bb" stroke-linecap="round" stroke-linejoin="round" stroke-width="1.219"/>
                  <line x1="127.061" y1="206.717" x2="127.061" y2="197.069" fill="none" stroke="#a384bb" stroke-dasharray=".013 3.844" stroke-linecap="round" stroke-linejoin="round" stroke-width="1.219"/>
                  <line x1="127.061" y1="195.147" x2="127.061" y2="195.141" fill="none" stroke="#a384bb" stroke-linecap="round" stroke-linejoin="round" stroke-width="1.219"/>
                </g>
                <g>
                  <line x1="97.979" y1="210.567" x2="97.979" y2="210.561" fill="none" stroke="#a384bb" stroke-linecap="round" stroke-linejoin="round" stroke-width="1.219"/>
                  <line x1="97.979" y1="206.717" x2="97.979" y2="197.069" fill="none" stroke="#a384bb" stroke-dasharray=".013 3.844" stroke-linecap="round" stroke-linejoin="round" stroke-width="1.219"/>
                  <line x1="97.979" y1="195.147" x2="97.979" y2="195.141" fill="none" stroke="#a384bb" stroke-linecap="round" stroke-linejoin="round" stroke-width="1.219"/>
                </g>
                <g>
                  <line x1="92.378" y1="210.567" x2="92.378" y2="210.561" fill="none" stroke="#a384bb" stroke-linecap="round" stroke-linejoin="round" stroke-width="1.219"/>
                  <line x1="92.378" y1="206.717" x2="92.378" y2="197.069" fill="none" stroke="#a384bb" stroke-dasharray=".013 3.844" stroke-linecap="round" stroke-linejoin="round" stroke-width="1.219"/>
                  <line x1="92.378" y1="195.147" x2="92.378" y2="195.141" fill="none" stroke="#a384bb" stroke-linecap="round" stroke-linejoin="round" stroke-width="1.219"/>
                </g>
                <g>
                  <line x1="133.375" y1="185.862" x2="133.375" y2="185.856" fill="none" stroke="#a384bb" stroke-linecap="round" stroke-linejoin="round" stroke-width="1.219"/>
                  <line x1="133.375" y1="182.041" x2="133.375" y2="180.122" fill="none" stroke="#a384bb" stroke-dasharray=".013 3.814" stroke-linecap="round" stroke-linejoin="round" stroke-width="1.219"/>
                  <line x1="133.375" y1="178.214" x2="133.375" y2="178.208" fill="none" stroke="#a384bb" stroke-linecap="round" stroke-linejoin="round" stroke-width="1.219"/>
                </g>
                <g>
                  <line x1="127.061" y1="188.93" x2="127.061" y2="188.924" fill="none" stroke="#a384bb" stroke-linecap="round" stroke-linejoin="round" stroke-width="1.219"/>
                  <line x1="127.061" y1="185.362" x2="127.061" y2="179.995" fill="none" stroke="#a384bb" stroke-dasharray=".012 3.562" stroke-linecap="round" stroke-linejoin="round" stroke-width="1.219"/>
                  <line x1="127.061" y1="178.214" x2="127.061" y2="178.208" fill="none" stroke="#a384bb" stroke-linecap="round" stroke-linejoin="round" stroke-width="1.219"/>
                </g>
                <g>
                  <line x1="171.917" y1="223.894" x2="171.917" y2="223.888" fill="none" stroke="#a384bb" stroke-linecap="round" stroke-linejoin="round" stroke-width="1.219"/>
                  <line x1="171.917" y1="220.35" x2="171.917" y2="193.716" fill="none" stroke="#a384bb" stroke-dasharray=".012 3.539" stroke-linecap="round" stroke-linejoin="round" stroke-width="1.219"/>
                  <line x1="171.917" y1="191.947" x2="171.917" y2="191.941" fill="none" stroke="#a384bb" stroke-linecap="round" stroke-linejoin="round" stroke-width="1.219"/>
                </g>
              </g>
              <g>
                <circle cx="79.706" cy="201.838" r="6.637" fill="#6498d1"/>
                <circle cx="79.706" cy="201.838" r="5.276" fill="#fff"/>
                <path d="M79.706,197.04c-2.03,0-3.756,1.265-4.457,3.046.701,1.781,2.427,3.046,4.457,3.046s3.756-1.265,4.457-3.046c-.701-1.781-2.427-3.046-4.457-3.046Z" fill="#9bc8ec" opacity=".25"/>
              </g>
              <g>
                <circle cx="114.672" cy="201.838" r="6.637" fill="#6498d1"/>
                <circle cx="114.672" cy="201.838" r="5.276" fill="#fff"/>
                <path d="M114.672,197.04c-2.03,0-3.756,1.265-4.457,3.046.701,1.781,2.427,3.046,4.457,3.046s3.756-1.265,4.457-3.046c-.701-1.781-2.427-3.046-4.457-3.046Z" fill="#9bc8ec" opacity=".25"/>
              </g>
              <g>
                <circle cx="149.637" cy="201.838" r="6.637" fill="#6498d1"/>
                <circle cx="149.637" cy="201.838" r="5.276" fill="#fff"/>
                <path d="M149.637,197.04c-2.03,0-3.756,1.265-4.457,3.046.701,1.781,2.427,3.046,4.457,3.046s3.756-1.265,4.457-3.046c-.701-1.781-2.427-3.046-4.457-3.046Z" fill="#9bc8ec" opacity=".25"/>
              </g>
              <g>
                <circle cx="184.602" cy="201.838" r="6.637" fill="#6498d1"/>
                <circle cx="184.602" cy="201.838" r="5.276" fill="#fff"/>
                <path d="M184.602,197.04c-2.03,0-3.756,1.265-4.457,3.046.701,1.781,2.427,3.046,4.457,3.046s3.756-1.265,4.457-3.046c-.701-1.781-2.427-3.046-4.457-3.046Z" fill="#9bc8ec" opacity=".25"/>
              </g>
              <path d="M209.476,232.854c-.272-.129-15.276-22.045-40.594-31.237-51.069-18.541-105.691,16.213-108.199,18.313v15.013l148.793-2.089Z" fill="#a384bb" mix-blend-mode="multiply" opacity=".25"/>
            </g>
          </g>
        </g>
        <g>
          <path d="M212.377,228.662s-9.568-26.22-18.071-20.245c-2.405,1.69,3.905,15.144,3.905,15.144,0,0-8.4-4.08-9.071-.576s-3.902,6.233-10.364,4.94c-6.462-1.292,18.236,7.835,18.811,4.169.574-3.666,8.162,3.467,9.861,1.695,1.699-1.772-1.245-6.975,4.929-5.127Z" fill="#9bc8ec"/>
          <path d="M208.947,224.868c.307-5.671-8.427-20.919-14.641-16.451-4.091,2.941,2.882,11.611,3.905,15.144-5.19-2.997-11.257-3.346-12.88-1.674-1.624,1.673,2.994,2.384,1.723,3.905s-13.202,1.552-13.202,1.552c0,0,13.678,4.838,17.552,3.141,2.44-1.069-1.482-4.55.681-5.306,5.407-1.892,10.289,7.887,14.422,6.836,2.449-.623-3.542-8.49-1.961-9.141,1.581-.651,4.402,1.994,4.402,1.994Z" fill="#fff"/>
          <g>
            <g>
              <path d="M175.58,232.095c-.269.775-1.112.917-1.562.677-.536-.286-.779-.925-.532-1.461.26-.565.919-.81,1.489-.552.092.042.177.098.268.142.768.372.791.452.337,1.194Z" fill="#fff"/>
              <path d="M164.535,218.402c.482.269.656.872.395,1.364-.275.517-.895.696-1.393.402-.469-.278-.636-.898-.369-1.377.266-.477.891-.655,1.366-.389Z" fill="#fff"/>
              <path d="M163.008,230.424c.402.229.489.624.239,1.09-.241.449-.783.617-1.21.374-.415-.235-.552-.762-.308-1.185.255-.443.788-.559,1.279-.28Z" fill="#fff"/>
              <path d="M163.801,236.638c-.409-.245-.54-.743-.298-1.14.239-.393.751-.515,1.153-.275.435.259.589.781.349,1.176-.242.397-.764.501-1.203.238Z" fill="#fff"/>
              <path d="M171.074,226.777c.402.227.553.743.333,1.143-.223.406-.736.55-1.141.321-.411-.233-.554-.729-.328-1.14.227-.415.724-.557,1.136-.324Z" fill="#fff"/>
              <path d="M174.122,239.82c.375.228.486.737.243,1.113-.231.358-.702.471-1.073.258-.392-.225-.513-.709-.277-1.1.231-.383.725-.504,1.107-.271Z" fill="#fff"/>
              <path d="M159.132,219.588c.228-.37.685-.482,1.063-.262.394.23.513.713.27,1.1-.23.366-.696.481-1.067.264-.392-.23-.508-.711-.267-1.102Z" fill="#fff"/>
              <path d="M169.281,239.463c-.351-.215-.465-.645-.256-.965.217-.331.699-.444,1.033-.242.343.208.445.623.237.969-.215.358-.649.46-1.014.237Z" fill="#fff"/>
              <path d="M167.943,216.453c.101.06.21.109.302.181.283.221.345.501.132.792-.216.295-.509.303-.798.108-.151-.102-.269-.253-.418-.36-.274-.196-.38-.439-.188-.732.196-.299.468-.28.747-.105.071.045.144.086.217.128.002-.004.005-.008.007-.012Z" fill="#fff"/>
              <path d="M157.586,232.698c-.348-.193-.483-.626-.299-.953.187-.332.679-.458,1.021-.262.323.184.444.653.251.971-.198.327-.629.435-.974.244Z" fill="#fff"/>
              <path d="M179.8,221.419c.209-.386.588-.535.928-.365.32.16.448.593.273.922-.176.331-.9.536-1.219.345-.252-.151-.247-.413.018-.902Z" fill="#fff"/>
              <path d="M180.638,226.904c-.333-.208-.433-.651-.204-.979.24-.343.566-.419.934-.223.353.188.453.62.242.965-.209.343-.636.446-.973.236Z" fill="#fff"/>
              <path d="M175.967,216.497c.316.205.408.669.198.995-.214.332-.605.418-.929.205-.328-.216-.424-.661-.212-.985.201-.308.645-.409.944-.215Z" fill="#fff"/>
              <path d="M167.371,221.773c.186-.316.614-.435.931-.259.332.185.44.641.23.973-.199.315-.625.417-.935.225-.307-.19-.411-.623-.226-.939Z" fill="#fff"/>
              <path d="M175.309,226.107c-.2.256-.482.35-.815.167-.305-.168-.419-.604-.225-.882.213-.306.515-.375.844-.206.305.157.401.59.196.922Z" fill="#fff"/>
              <path d="M159.935,224.602c-.269.028-.568.142-.799.062-.345-.12-.38-.466-.212-.77.172-.313.508-.425.777-.219.19.145.241.472.355.717l-.121.21Z" fill="#fff"/>
              <path d="M167.421,231.273c.408-.078.657-.185.871-.137.085.019.182.423.113.584-.121.285-.416.355-.675.143-.115-.094-.154-.281-.31-.59Z" fill="#fff"/>
              <path d="M161.112,229.374c-.021-.35-.11-.599-.023-.716.093-.124.353-.124.54-.178.048.189.18.415.119.556-.059.135-.32.181-.636.338Z" fill="#fff"/>
              <path d="M163.762,223.954c.022.324.106.552.026.663-.083.117-.323.122-.494.176-.051-.185-.177-.394-.129-.548.036-.113.299-.155.596-.291Z" fill="#fff"/>
              <path d="M166.882,213.596c.021.346.106.584.023.684-.092.112-.358.162-.507.113-.087-.029-.172-.345-.114-.458.067-.13.293-.177.597-.339Z" fill="#fff"/>
              <path d="M169.872,221.22c.331-.011.563-.088.665-.005.111.09.101.328.144.501-.175.042-.384.162-.516.104-.12-.052-.155-.297-.293-.601Z" fill="#fff"/>
              <path d="M173.069,222.242c.295-.029.504-.113.601-.042.103.075.178.34.121.442-.057.102-.321.177-.44.129-.111-.045-.152-.266-.283-.529Z" fill="#fff"/>
              <path d="M157.762,227.332c.296-.022.493-.096.605-.028.097.059.178.346.124.41-.094.111-.324.201-.451.16-.106-.035-.148-.27-.278-.542Z" fill="#fff"/>
              <path d="M158.032,224.563c-.302.018-.514.094-.611.02-.107-.082-.107-.302-.153-.462.161-.04.353-.152.475-.1.114.048.154.27.289.542Z" fill="#fff"/>
              <path d="M178.153,231.695c.237-.018.448-.093.515-.025.097.099.09.299.127.457-.161.028-.344.114-.474.063-.086-.034-.096-.263-.168-.495Z" fill="#fff"/>
              <path d="M176.07,238.821c-.001-.255-.063-.472.012-.541.1-.092.306-.07.466-.097.015.15.092.339.028.44-.063.101-.267.113-.506.198Z" fill="#fff"/>
              <path d="M163.625,226.076c.03.233.108.418.049.488-.085.1-.269.115-.411.166-.03-.147-.112-.311-.072-.434.029-.088.224-.121.433-.22Z" fill="#fff"/>
              <path d="M166.067,228.744c.025.226.084.381.037.49-.029.067-.285.123-.325.08-.082-.09-.134-.26-.108-.377.016-.071.202-.104.395-.192Z" fill="#fff"/>
            </g>
            <g>
              <path d="M193.369,218.448c.505.513.289,1.232-.075,1.492-.433.31-1.031.253-1.357-.15-.343-.425-.28-1.038.145-1.386.068-.056.146-.101.216-.155.591-.459.663-.446,1.071.199Z" fill="#fff"/>
              <path d="M178.302,221.81c.399-.274.941-.177,1.227.22.3.417.2.975-.225,1.252-.401.261-.954.151-1.226-.246-.272-.395-.169-.955.225-1.226Z" fill="#fff"/>
              <path d="M187.164,227.687c.336-.228.681-.142.951.236.259.364.181.856-.176,1.097-.346.235-.814.137-1.052-.218-.249-.373-.133-.837.277-1.115Z" fill="#fff"/>
              <path d="M192.361,229.48c-.352.227-.795.136-1.012-.209-.216-.341-.113-.791.232-1.014.373-.241.844-.16,1.061.183.218.345.097.796-.281,1.039Z" fill="#fff"/>
              <path d="M187.433,219.924c.335-.228.8-.145,1.029.183.233.333.147.793-.191,1.022-.343.233-.789.152-1.024-.185-.238-.34-.156-.786.187-1.019Z" fill="#fff"/>
              <path d="M198.877,222.599c.325-.206.768-.096.97.241.192.321.098.736-.214.944-.33.22-.757.128-.973-.21-.211-.331-.114-.766.217-.976Z" fill="#fff"/>
              <path d="M177.133,226.522c-.202-.323-.113-.726.208-.938.334-.22.76-.126.97.215.199.323.108.735-.207.942-.333.219-.757.123-.971-.219Z" fill="#fff"/>
              <path d="M196.714,226.268c-.305.193-.689.115-.858-.174-.176-.299-.077-.723.212-.906.297-.189.663-.108.855.191.198.308.109.69-.208.89Z" fill="#fff"/>
              <path d="M178.094,218.371c.086-.056.168-.123.26-.167.284-.136.528-.076.675.204.148.284.041.518-.226.67-.139.079-.304.113-.446.189-.261.139-.493.128-.649-.137-.159-.27-.038-.477.208-.628.063-.039.123-.08.185-.12-.002-.003-.005-.007-.007-.01Z" fill="#fff"/>
              <path d="M186.844,232.836c-.287.198-.68.137-.866-.136-.188-.276-.096-.712.191-.905.271-.182.686-.095.862.18.18.283.098.664-.187.861Z" fill="#fff"/>
              <path d="M186.612,210.976c-.222-.315-.192-.671.074-.872.25-.189.64-.122.831.144.192.267.071.916-.203,1.093-.217.14-.421.034-.702-.365Z" fill="#fff"/>
              <path d="M191.252,212.45c-.293.181-.681.087-.849-.221-.176-.322-.109-.608.188-.822.286-.205.664-.115.853.185.188.298.104.674-.192.857Z" fill="#fff"/>
              <path d="M181.25,212.077c.284-.169.685-.061.859.231.178.297.094.639-.2.811-.298.174-.685.077-.857-.216-.164-.278-.071-.666.198-.826Z" fill="#fff"/>
              <path d="M182.057,220.891c-.176-.269-.104-.653.158-.833.275-.19.675-.097.855.198.17.279.085.654-.187.823-.269.168-.65.081-.826-.188Z" fill="#fff"/>
              <path d="M188.553,216.332c.124.257.088.515-.186.706-.251.175-.638.094-.781-.166-.158-.287-.095-.551.166-.744.242-.179.621-.086.801.204Z" fill="#fff"/>
              <path d="M181.389,227.84c-.083.222-.109.502-.262.652-.228.224-.514.117-.688-.132-.179-.257-.136-.565.13-.697.188-.093.465-.006.702,0l.118.176Z" fill="#fff"/>
              <path d="M189.549,224.546c.097-.351.11-.589.232-.739.048-.059.403.022.503.138.177.206.118.465-.15.586-.119.054-.281.011-.585.014Z" fill="#fff"/>
              <path d="M185.601,228.77c-.284-.12-.514-.146-.572-.26-.062-.121.04-.326.07-.494.167.036.396.019.483.123.083.099.018.322.019.631Z" fill="#fff"/>
              <path d="M182.368,224.577c.264.109.475.132.532.237.059.111-.03.301-.054.457-.166-.032-.379-.014-.481-.112-.075-.072-.006-.296.003-.582Z" fill="#fff"/>
              <path d="M175.434,218.094c.28.118.501.144.547.248.052.116-.012.345-.108.443-.057.057-.338,0-.404-.089-.076-.103-.026-.299-.035-.602Z" fill="#fff"/>
              <path d="M182.594,218.708c.12-.265.15-.477.255-.525.114-.052.297.048.45.082-.035.154-.022.365-.119.446-.088.074-.294.007-.587-.003Z" fill="#fff"/>
              <path d="M184.641,216.591c.092-.243.107-.44.201-.489.099-.052.337-.008.395.076.058.084.014.321-.07.396-.079.07-.268.016-.526.017Z" fill="#fff"/>
              <path d="M182.692,230.611c.098-.242.117-.425.213-.487.084-.054.341-.006.371.062.051.117.032.333-.05.417-.069.07-.27.011-.534.008Z" fill="#fff"/>
              <path d="M180.619,229.321c-.103.244-.126.441-.222.488-.106.052-.279-.033-.423-.059.031-.143.018-.336.106-.413.082-.071.272-.016.539-.017Z" fill="#fff"/>
              <path d="M194.055,216.268c.078-.194.101-.389.18-.415.115-.038.27.046.409.078-.041.137-.044.315-.135.397-.06.055-.244-.027-.455-.06Z" fill="#fff"/>
              <path d="M198.85,220.678c-.201-.098-.396-.134-.421-.22-.034-.114.064-.268.105-.405.124.047.303.06.357.149.054.089-.015.254-.041.476Z" fill="#fff"/>
              <path d="M183.984,225.51c.194.067.371.078.403.151.046.105-.014.256-.029.388-.127-.034-.288-.033-.369-.113-.058-.057-.008-.223-.004-.426Z" fill="#fff"/>
              <path d="M187.033,224.627c.188.069.332.082.4.161.041.049-.014.272-.063.287-.103.029-.257.004-.339-.062-.05-.04-.003-.199.002-.386Z" fill="#fff"/>
            </g>
            <g>
              <path d="M202.172,210.33c.242.347.046.742-.19.857-.282.137-.622.045-.772-.22-.157-.28-.06-.629.22-.789.045-.026.095-.044.14-.069.388-.208.428-.193.601.221Z" fill="#fff"/>
              <path d="M193.109,210.796c.258-.12.563-.01.689.248.133.271.02.585-.254.703-.258.112-.568-.007-.687-.263-.119-.256-.004-.57.251-.688Z" fill="#fff"/>
              <path d="M197.666,215.074c.217-.099.409-.015.528.23.115.237.02.514-.21.619-.224.102-.485,0-.588-.23-.108-.241.005-.498.271-.619Z" fill="#fff"/>
              <path d="M200.502,216.626c-.226.097-.474,0-.566-.221-.092-.219.012-.47.234-.565.24-.103.505-.01.597.211.093.221-.022.471-.265.575Z" fill="#fff"/>
              <path d="M198.586,210.601c.216-.099.478-.006.578.207.102.216.007.474-.212.574-.222.101-.472.011-.575-.208-.104-.221-.013-.471.209-.572Z" fill="#fff"/>
              <path d="M204.957,213.279c.209-.087.455.02.538.235.08.205-.016.436-.217.526-.213.095-.452,0-.543-.217-.09-.213.009-.455.222-.544Z" fill="#fff"/>
              <path d="M191.967,213.412c-.085-.207.006-.432.213-.523.215-.095.453.002.541.22.083.207-.01.436-.213.525-.215.094-.451-.003-.541-.222Z" fill="#fff"/>
              <path d="M203.342,215.192c-.196.082-.41-.001-.48-.185-.072-.191.026-.426.212-.505.191-.08.395.003.477.195.085.198-.005.41-.208.495Z" fill="#fff"/>
              <path d="M193.327,208.782c.056-.024.109-.055.167-.071.178-.051.314.008.371.185.058.179-.027.304-.197.366-.088.032-.187.036-.277.066-.165.055-.299.026-.363-.143-.065-.172.025-.28.183-.344.04-.016.079-.034.119-.052l-.003-.007Z" fill="#fff"/>
              <path d="M196.974,218.027c-.186.087-.408.012-.489-.164-.082-.178.014-.422.2-.506.175-.079.407.012.482.189.077.182-.009.394-.193.48Z" fill="#fff"/>
              <path d="M198.992,205.334c-.098-.204-.045-.408.129-.498.164-.085.383-.008.468.165.085.174-.049.538-.225.613-.139.06-.247-.022-.371-.28Z" fill="#fff"/>
              <path d="M201.536,206.645c-.187.076-.403-.016-.471-.212-.07-.204-.003-.363.19-.458.186-.091.396-.002.476.191.08.191-.006.401-.196.478Z" fill="#fff"/>
              <path d="M195.776,205.444c.181-.07.403.032.475.219.074.19-.009.38-.196.45-.19.072-.404-.023-.476-.21-.068-.177.025-.393.196-.459Z" fill="#fff"/>
              <path d="M195.375,210.633c-.076-.173.004-.388.174-.467.178-.083.401.01.476.199.071.178-.015.387-.189.459-.173.071-.385-.017-.46-.19Z" fill="#fff"/>
              <path d="M199.589,208.63c.046.161,0,.307-.177.391-.162.077-.379-.008-.436-.173-.063-.182,0-.329.169-.415.158-.08.368.011.444.197Z" fill="#fff"/>
              <path d="M194.304,214.595c-.07.121-.112.28-.216.352-.154.108-.31.017-.386-.144-.078-.167-.023-.341.144-.391.118-.035.27.042.407.069l.051.114Z" fill="#fff"/>
              <path d="M199.358,213.489c.091-.194.122-.331.207-.405.034-.03.232.052.278.13.082.137.022.281-.145.325-.074.019-.164-.021-.34-.049Z" fill="#fff"/>
              <path d="M196.654,215.548c-.153-.097-.284-.135-.306-.207-.024-.076.055-.185.089-.279.093.037.228.05.268.119.038.065-.021.189-.051.368Z" fill="#fff"/>
              <path d="M195.193,212.8c.142.089.262.123.285.19.024.07-.047.172-.076.259-.093-.035-.218-.045-.268-.112-.037-.049.026-.172.059-.337Z" fill="#fff"/>
              <path d="M191.812,208.36c.151.096.276.133.293.198.019.072-.041.199-.106.246-.038.028-.196-.033-.226-.091-.034-.067.015-.176.039-.352Z" fill="#fff"/>
              <path d="M195.902,209.42c.096-.142.134-.262.2-.279.071-.019.168.057.253.092-.035.086-.049.209-.113.247-.058.034-.171-.025-.34-.059Z" fill="#fff"/>
              <path d="M197.297,208.395c.077-.132.106-.245.165-.264.063-.02.196.029.221.083.025.055-.023.188-.079.223-.052.033-.157-.017-.306-.042Z" fill="#fff"/>
              <path d="M194.787,216.329c.08-.13.109-.235.172-.261.054-.023.198.03.209.072.018.073-.014.196-.07.237-.047.034-.157-.02-.31-.048Z" fill="#fff"/>
              <path d="M193.712,215.377c-.084.131-.116.243-.177.261-.066.02-.158-.047-.239-.076.032-.08.043-.193.102-.229.054-.033.159.018.314.043Z" fill="#fff"/>
              <path d="M202.785,209.134c.064-.105.097-.215.145-.223.071-.011.152.053.229.085-.037.076-.057.178-.117.217-.04.026-.139-.04-.258-.08Z" fill="#fff"/>
              <path d="M205.13,212.162c-.107-.077-.216-.117-.222-.169-.008-.07.063-.149.101-.224.067.039.169.065.192.122.023.057-.034.146-.07.272Z" fill="#fff"/>
              <path d="M196.038,213.5c.106.058.207.082.218.127.016.066-.033.147-.055.222-.07-.032-.164-.047-.203-.102-.028-.039.018-.13.04-.248Z" fill="#fff"/>
              <path d="M197.892,213.288c.102.058.185.08.216.133.019.032-.035.157-.065.16-.063.007-.149-.023-.19-.069-.025-.028.018-.116.039-.223Z" fill="#fff"/>
            </g>
          </g>
        </g>
        <g>
          <path d="M56.665,228.615s-4.554-6.982-8.88-9.892c-4.326-2.91,1.888,8.337,1.888,8.337,0,0-8.494-6.039-10.539-4.632s1.416,4.946,1.416,4.946c0,0-5.663-1.73-8.494.157,2.91,0,7.865,4.09,10.539,3.028,2.674-1.062.079-3.579,2.674-3.028,2.595.551,6.539,2.359,6.539,2.359-1.007-4.37-.497-6.092,4.858-1.276Z" fill="#9bc8ec"/>
          <path d="M56.665,228.615s-6.922-11.643-10.317-10.991c-3.395.652,3.325,9.436,3.325,9.436,0,0-8.178-5.167-9.496-4.333-1.857,1.176,1.052,4.647,1.052,4.647,0-2.281,5.64-1.086,9.413.245-3.914-9.398,1.894-3.543,6.023.995Z" fill="#fff"/>
          <g>
            <g>
              <path d="M41.618,216.599c-.101-.446.256-.763.539-.782.338-.023.642.208.684.535.044.345-.195.655-.542.701-.056.007-.113.006-.169.012-.473.051-.508.02-.513-.466Z" fill="#fff"/>
              <path d="M50.893,219.818c-.308.015-.568-.219-.59-.529-.023-.326.218-.594.54-.602.304-.007.566.237.581.543.015.305-.228.573-.532.588Z" fill="#fff"/>
              <path d="M48.064,213.675c-.258.011-.416-.151-.435-.446-.019-.284.188-.523.462-.535.266-.011.486.198.496.47.01.285-.208.497-.523.51Z" fill="#fff"/>
              <path d="M45.852,210.967c.266-.005.475.192.478.451.003.257-.203.466-.465.471-.282.006-.51-.196-.513-.454-.003-.26.214-.463.499-.468Z" fill="#fff"/>
              <path d="M45.323,217.785c-.257.011-.481-.189-.496-.443-.015-.258.186-.478.445-.489.264-.011.477.181.492.443.015.264-.178.477-.442.489Z" fill="#fff"/>
              <path d="M40.026,212.51c-.245.003-.448-.205-.444-.455.004-.238.193-.431.432-.439.252-.009.453.184.456.439.004.25-.194.453-.444.455Z" fill="#fff"/>
              <path d="M53.101,217.66c.001.243-.182.431-.426.438-.254.008-.453-.186-.453-.441,0-.241.187-.434.427-.44.253-.007.451.187.452.443Z" fill="#fff"/>
              <path d="M42.423,211.249c.23-.002.411.168.406.381-.005.221-.2.417-.418.42-.224.003-.394-.163-.399-.389-.004-.233.172-.41.41-.412Z" fill="#fff"/>
              <path d="M49.855,221.748c-.065.002-.132.01-.196.003-.199-.021-.311-.135-.297-.336.015-.203.151-.294.346-.287.102.004.202.04.304.047.188.012.31.096.305.291-.004.199-.139.271-.323.27-.047,0-.094.002-.14.003v.008Z" fill="#fff"/>
              <path d="M49.959,210.997c.222-.011.414.154.423.363.009.212-.186.417-.406.426-.207.008-.403-.178-.406-.386-.003-.213.169-.392.389-.403Z" fill="#fff"/>
              <path d="M42.774,222.9c.015.245-.12.427-.332.447-.199.019-.387-.148-.401-.356-.015-.209.268-.519.475-.523.164-.003.239.122.258.432Z" fill="#fff"/>
              <path d="M40.757,220.551c.219,0,.397.18.386.403-.012.233-.144.366-.377.381-.223.015-.398-.16-.4-.386-.002-.224.169-.399.391-.399Z" fill="#fff"/>
              <path d="M46.043,224.098c-.21-.004-.391-.196-.388-.412.003-.22.163-.377.379-.372.219.005.396.188.392.404-.004.205-.185.384-.383.381Z" fill="#fff"/>
              <path d="M48.554,219.06c.005.205-.162.388-.364.398-.212.011-.398-.173-.396-.393.001-.208.173-.382.376-.383.202,0,.379.173.384.378Z" fill="#fff"/>
              <path d="M43.515,219.354c.019-.18.125-.308.337-.32.194-.011.377.162.367.351-.01.208-.133.33-.339.347-.191.016-.365-.161-.365-.378Z" fill="#fff"/>
              <path d="M51.239,215.524c.119-.092.227-.235.36-.265.199-.045.317.109.328.302.011.199-.115.351-.303.333-.133-.013-.254-.152-.38-.235l-.005-.135Z" fill="#fff"/>
              <path d="M45.723,214.577c-.17.157-.257.282-.372.322-.046.016-.211-.147-.226-.243-.027-.17.092-.291.277-.267.082.011.156.088.321.188Z" fill="#fff"/>
              <path d="M49.271,213.612c.114.16.229.251.223.332-.007.086-.13.163-.203.244-.078-.075-.208-.143-.22-.228-.012-.081.098-.18.201-.348Z" fill="#fff"/>
              <path d="M49.618,216.961c-.106-.147-.213-.23-.208-.306.005-.08.117-.153.182-.229.079.073.2.134.223.221.017.064-.096.162-.196.314Z" fill="#fff"/>
              <path d="M51.201,222.787c-.112-.157-.223-.245-.213-.317.011-.08.122-.183.206-.203.05-.012.183.113.189.183.007.081-.086.17-.183.337Z" fill="#fff"/>
              <path d="M47.533,220.061c-.154.103-.241.208-.314.199-.079-.01-.145-.125-.216-.195.07-.072.134-.19.213-.202.072-.011.161.095.316.198Z" fill="#fff"/>
              <path d="M45.718,220.522c-.131.101-.205.202-.272.198-.071-.005-.185-.108-.188-.173-.003-.065.1-.179.17-.191.066-.012.151.081.29.167Z" fill="#fff"/>
              <path d="M51.461,213.589c-.134.098-.205.191-.278.192-.063,0-.187-.111-.18-.158.012-.08.094-.191.166-.209.061-.015.15.084.292.174Z" fill="#fff"/>
              <path d="M52.151,214.98c.137-.098.215-.196.283-.19.075.007.14.111.209.173-.064.067-.122.176-.195.188-.068.011-.152-.082-.297-.171Z" fill="#fff"/>
              <path d="M40.517,217.548c-.107.079-.185.176-.236.164-.075-.018-.131-.115-.195-.179.068-.061.129-.156.206-.17.051-.009.123.096.226.185Z" fill="#fff"/>
              <path d="M39.398,213.559c.076.12.169.205.154.26-.02.073-.124.124-.192.184-.052-.067-.144-.134-.143-.2,0-.066.093-.132.181-.244Z" fill="#fff"/>
              <path d="M49.056,215.916c-.083-.101-.175-.166-.167-.216.011-.072.093-.134.145-.2.057.061.145.114.162.184.012.05-.07.123-.14.232Z" fill="#fff"/>
              <path d="M47.112,215.374c-.078-.1-.152-.155-.162-.221-.006-.04.099-.143.13-.134.066.019.141.084.163.147.013.038-.065.109-.13.208Z" fill="#fff"/>
            </g>
            <g>
              <path d="M39.484,229.225c-.361.054-.591-.249-.589-.476.002-.27.204-.498.466-.511.276-.014.509.195.525.473.003.045-.002.09,0,.135.012.379-.015.405-.401.379Z" fill="#fff"/>
              <path d="M42.6,222.05c-.007.245-.208.438-.456.437-.26-.001-.459-.209-.446-.466.013-.242.223-.436.466-.429.243.006.442.216.435.458Z" fill="#fff"/>
              <path d="M37.549,223.927c-.007.206-.145.321-.38.319-.227-.002-.404-.181-.397-.399.007-.212.187-.375.403-.366.227.009.383.195.374.446Z" fill="#fff"/>
              <path d="M35.264,225.522c.012-.212.181-.366.387-.353.204.013.358.19.346.397-.012.225-.186.393-.391.38-.206-.013-.355-.198-.342-.425Z" fill="#fff"/>
              <path d="M40.649,226.353c-.006.205-.179.371-.382.367-.206-.004-.369-.176-.362-.383.007-.21.173-.368.381-.364.21.004.369.17.362.381Z" fill="#fff"/>
              <path d="M36.14,230.244c-.013.195-.19.343-.388.325-.189-.017-.331-.18-.323-.369.008-.201.173-.348.376-.336.199.012.348.182.335.38Z" fill="#fff"/>
              <path d="M41.018,220.166c.193.014.331.17.322.365-.009.202-.175.349-.378.333-.192-.015-.333-.175-.324-.366.01-.202.175-.347.379-.332Z" fill="#fff"/>
              <path d="M35.282,228.263c.012-.183.158-.316.327-.3.175.017.319.184.308.357-.011.178-.154.304-.333.293-.185-.011-.315-.161-.302-.351Z" fill="#fff"/>
              <path d="M44.071,222.99c-.003.052,0,.105-.009.156-.029.157-.126.239-.285.215-.161-.024-.224-.138-.207-.292.009-.081.044-.158.056-.239.021-.148.095-.24.25-.225.158.016.207.127.195.273-.003.037-.004.075-.006.112h.006Z" fill="#fff"/>
              <path d="M35.535,222.261c.004-.177.147-.32.314-.314.169.005.32.173.314.348-.006.165-.166.31-.331.299-.17-.011-.301-.158-.297-.333Z" fill="#fff"/>
              <path d="M44.56,228.686c.195.003.332.121.335.291.003.159-.141.299-.307.298-.167-.001-.397-.244-.387-.409.007-.13.112-.182.359-.179Z" fill="#fff"/>
              <path d="M42.572,230.147c.013-.174.167-.305.344-.282.184.024.282.137.28.322-.001.178-.151.306-.33.294-.178-.012-.307-.159-.294-.334Z" fill="#fff"/>
              <path d="M45.708,226.161c-.016.167-.179.299-.351.283-.175-.016-.29-.152-.272-.324.017-.174.173-.303.344-.287.163.016.294.17.279.327Z" fill="#fff"/>
              <path d="M41.857,223.862c.163.008.298.152.294.313-.004.169-.162.306-.336.291-.165-.014-.293-.16-.282-.322.012-.16.161-.29.323-.283Z" fill="#fff"/>
              <path d="M41.787,227.883c-.142-.026-.237-.118-.234-.287.003-.155.151-.289.301-.27.165.021.254.125.255.29.001.152-.15.28-.323.267Z" fill="#fff"/>
              <path d="M39.209,221.516c-.066-.1-.173-.194-.189-.302-.024-.16.105-.246.259-.242.159.003.272.113.247.261-.018.105-.136.192-.209.288l-.107-.004Z" fill="#fff"/>
              <path d="M38.125,225.841c.115.145.208.221.234.315.01.037-.129.159-.207.165-.137.011-.226-.091-.195-.236.013-.065.079-.119.169-.244Z" fill="#fff"/>
              <path d="M37.572,222.964c.134-.081.213-.167.277-.157.068.011.122.113.181.176-.065.058-.126.157-.194.161-.065.005-.137-.089-.264-.181Z" fill="#fff"/>
              <path d="M40.254,222.89c-.123.076-.196.155-.256.147-.063-.009-.115-.102-.171-.158.062-.058.119-.151.189-.164.052-.009.123.086.238.175Z" fill="#fff"/>
              <path d="M44.978,221.983c-.132.08-.208.162-.265.15-.063-.013-.138-.108-.149-.176-.007-.04.1-.139.157-.139.065,0,.13.079.257.165Z" fill="#fff"/>
              <path d="M42.591,224.734c.073.128.151.204.139.261-.013.062-.108.108-.168.16-.053-.06-.143-.118-.147-.182-.004-.058.085-.122.176-.24Z" fill="#fff"/>
              <path d="M42.848,226.204c.072.11.148.175.141.228-.008.056-.097.14-.149.139-.052-.001-.136-.09-.142-.147-.005-.053.074-.115.15-.221Z" fill="#fff"/>
              <path d="M37.685,221.223c.07.112.139.175.136.233-.003.05-.099.142-.136.133-.063-.014-.146-.086-.156-.145-.008-.049.076-.114.156-.221Z" fill="#fff"/>
              <path d="M38.832,220.759c-.069-.115-.143-.183-.134-.237.01-.059.097-.104.15-.156.049.055.132.108.137.167.005.055-.075.116-.154.226Z" fill="#fff"/>
              <path d="M40.172,230.157c.056.09.129.158.116.198-.019.059-.099.097-.154.144-.044-.058-.116-.112-.123-.174-.004-.041.084-.092.16-.168Z" fill="#fff"/>
              <path d="M36.935,230.806c.1-.053.173-.122.216-.107.057.02.091.106.135.164-.056.037-.115.106-.168.102-.053-.004-.099-.082-.183-.159Z" fill="#fff"/>
              <path d="M39.389,223.274c-.086.06-.143.129-.182.12-.057-.013-.101-.082-.15-.128.052-.042.099-.108.156-.118.04-.007.094.063.176.125Z" fill="#fff"/>
              <path d="M38.842,224.787c-.084.056-.133.112-.185.116-.032.002-.107-.087-.099-.111.019-.051.075-.107.126-.12.031-.008.082.058.157.116Z" fill="#fff"/>
            </g>
          </g>
        </g>
      </g>
    </g>
  </g>
</svg>