<?xml version="1.0" encoding="UTF-8"?><svg xmlns="http://www.w3.org/2000/svg" xmlns:xlink="http://www.w3.org/1999/xlink" viewBox="0 0 300 300"><defs><style>.cls-1,.cls-2{fill:#e86170;}.cls-1,.cls-3{opacity:.25;}.cls-4{fill:#ffd66e;}.cls-5{filter:url(#drop-shadow-2);}.cls-6{fill:#f4af13;}.cls-3{mix-blend-mode:multiply;}.cls-7,.cls-8{fill:none;}.cls-9{isolation:isolate;}.cls-10{fill:#fff;opacity:.8;}.cls-8{stroke:#42496f;stroke-linecap:round;stroke-linejoin:round;stroke-width:.3px;}.cls-11{fill:#9bc8ec;}.cls-12{fill:#42496f;}.cls-13{clip-path:url(#clippath);}</style><filter id="drop-shadow-2" x="103.2" y="24.76" width="41.32" height="43.14" filterUnits="userSpaceOnUse"><feOffset dx="-1.22" dy="0"/><feGaussianBlur result="blur" stdDeviation="0"/><feFlood flood-color="#42496f" flood-opacity="1"/><feComposite in2="blur" operator="in"/><feComposite in="SourceGraphic"/></filter><clipPath id="clippath"><path class="cls-7" d="M144.51,50.91s-3.09,3.07-4.55,4.68c1.68-2.02,3.57-6.7,2.59-7.27-.99-.57-5.05,3.57-7.29,5.73.63-.89.98-1.97.98-3.06-.83.36-1.56.96-2.07,1.71.04-.29.07-.57.11-.86-.34.32-.68.64-1.02.96.38-1.13.45-2.38.19-3.55-.13-.59-.37-1.19-.87-1.54-.96-.67-2.29-.03-3.12.79-1.58,1.54-2.47,3.64-3.28,5.69-.12-.95-1.14-2.6-1.14-2.6,0,0-.47,1.17-.41,1.8-.15-.1-.39.04-.36.22-.87-2.8-5.29-5.31-6.39-5.31s-.12,1.12.07,1.66c.59,1.62,1.32,3.19,2.19,4.68-.59-.67-1.33-1.21-2.15-1.58-.07.49.05,1,.32,1.41-.97-.89-1.95-1.78-2.97-2.61-1.61-1.3-4.6-2.46-5.64-1.86-1.04.6,2.54,3.48,4.13,4.94-.43-.28-.91-.49-1.41-.61-.02.22.11.45.32.53-2.28-1.23-4.76-2.5-7.33-2.18-.31.04-.64.12-.84.36-.35.43-.05,1.07.28,1.52,1.79,2.47,4.31,4.28,6.79,6.05-.48-.25-1.1-.19-1.52.13.96,1.08,2.37,1.67,3.79,1.91,1.42.24,21.11.08,21.11.08,2.07-.23,3.96-1.39,5.41-2.88,1.46-1.49,2.53-3.31,3.56-5.12-1.06.49-2.03,1.19-2.85,2.03,1.71-1.54,3.38-5.87,3.38-5.87Z"/></clipPath></defs><g class="cls-9"><g id="bateau_04"><g class="cls-5"><path class="cls-11" d="M110.34,46.94h27.37v.31c0,7.55-6.13,13.68-13.68,13.68h0c-7.55,0-13.68-6.13-13.68-13.68v-.31h0Z"/><path class="cls-11" d="M135.2,29.67c0,1.98-3.21,1.34-3.33,3.31s-2.48,6.39-3.83-3.31c-.27-1.96,1.6-3.58,3.58-3.58s3.58,1.6,3.58,3.58Z"/><path class="cls-11" d="M131.74,31.29h-2.97c0,6.72,4.76,10.46,4.76,15.65h4.19c0-5.19-5.98-8.93-5.98-15.65Z"/><path class="cls-10" d="M137.71,46.94c0-4.75-4.99-8.29-5.84-14,.17-1.91,3.32-1.3,3.32-3.26s-1.6-3.58-3.58-3.58-3.85,1.62-3.58,3.58c.32,2.3.69,3.79,1.08,4.73,1.1,4.88,4.4,8.21,4.4,12.54h-23.18v.31c0,7.56,6.13,13.68,13.68,13.68s13.68-6.13,13.68-13.68v-.31h0Z"/><path class="cls-12" d="M106.24,41.65c-.34.38.89,2.21,2.63,3.52-1.8-1.4-3.41-3.12-3.83-2.81-.37.27.97,1.97,2.27,3.39-1.14-1.15-2.49-2.18-2.7-1.94-.25.28,1.01,2.26,1.81,3.21,2.11,2.47,4.69,4.53,7.57,6.04-.51-.99-1.02-1.98-1.53-2.97.47.46,1.17.66,1.81.52-.76-.56-1.33-1.74-1.1-2s.56.03.78.19c-.17-.21-.29-.45-.23-.71.08-.36.5-.55.86-.52.36.03.69.24.99.44-.27-.25-.14-.74.18-.93.29-.17.64-.15.97-.07-4.08-1.31-10.17-5.71-10.49-5.35Z"/><path class="cls-2" d="M144,28.86c.19-.05.16-.34-.04-.34-2.33-.03-7.42-.11-9.03-.2-1.14,0-3.19,2.97-2.45,3.54.22.17,8.44-2.13,11.52-3Z"/><path class="cls-8" d="M131.44,28.43s-.1,1.46.79,1.36.64-1.36.64-1.36"/><line class="cls-8" x1="131.44" y1="28.64" x2="130.8" y2="28.53"/><line class="cls-8" x1="131.49" y1="29.12" x2="130.8" y2="29.23"/><circle class="cls-1" cx="130.25" cy="30.39" r=".9"/><path class="cls-11" d="M129.08,27.21s2.42-1.24,1.71-2.45l-.9,1.62s-.05-1.16-.81-1.21c0,0,.68,1.18,0,2.05Z"/><path class="cls-4" d="M144.51,50.91s-3.09,3.07-4.55,4.68c1.68-2.02,3.57-6.7,2.59-7.27-.99-.57-5.05,3.57-7.29,5.73.63-.89.98-1.97.98-3.06-.83.36-1.56.96-2.07,1.71.04-.29.07-.57.11-.86-.34.32-.68.64-1.02.96.38-1.13.45-2.38.19-3.55-.13-.59-.37-1.19-.87-1.54-.96-.67-2.29-.03-3.12.79-1.58,1.54-2.47,3.64-3.28,5.69-.12-.95-1.14-2.6-1.14-2.6,0,0-.47,1.17-.41,1.8-.15-.1-.39.04-.36.22-.87-2.8-5.29-5.31-6.39-5.31s-.12,1.12.07,1.66c.59,1.62,1.32,3.19,2.19,4.68-.59-.67-1.33-1.21-2.15-1.58-.07.49.05,1,.32,1.41-.97-.89-1.95-1.78-2.97-2.61-1.61-1.3-4.6-2.46-5.64-1.86-1.04.6,2.54,3.48,4.13,4.94-.43-.28-.91-.49-1.41-.61-.02.22.11.45.32.53-2.28-1.23-4.76-2.5-7.33-2.18-.31.04-.64.12-.84.36-.35.43-.05,1.07.28,1.52,1.79,2.47,4.31,4.28,6.79,6.05-.48-.25-1.1-.19-1.52.13.96,1.08,2.37,1.67,3.79,1.91,1.42.24,21.11.08,21.11.08,2.07-.23,3.96-1.39,5.41-2.88,1.46-1.49,2.53-3.31,3.56-5.12-1.06.49-2.03,1.19-2.85,2.03,1.71-1.54,3.38-5.87,3.38-5.87Z"/><g class="cls-13"><g class="cls-3"><path class="cls-6" d="M133.65,63.57c2.6-1.28,4.94-3.07,6.86-5.24.38-.43.76-.96.65-1.52-2.14,1.34-4.18,2.87-6.08,4.54,1.89-1.82,3.9-3.86,4.21-6.46-1.8,1.63-3.45,3.43-4.91,5.38,1.49-1.61,3.04-3.36,3.38-5.52-1.67,1.71-3.26,3.5-4.76,5.36.56-1.07,1.13-2.25.9-3.44-.4-.1-.73.32-.93.68-.62,1.11-1.25,2.22-1.87,3.33.35-.95.55-1.97.58-2.99-.79.71-1.25,1.7-1.69,2.66.73-1.79.87-3.81.38-5.69-.09-.35-.28-.75-.64-.77-.28-.01-.5.23-.65.47-1.2,1.84-1.05,4.26-2,6.23-.19-.86-.38-1.73-.57-2.59-.05-.22-.13-.48-.35-.54-.36-.1-.55.4-.58.77-.07,1.09-.15,2.19-.22,3.28-.25-.92-.51-1.84-.76-2.77-.09-.34-.37-.77-.68-.61.11.93.22,1.86.33,2.79-.54-2.37-1.26-4.98-3.32-6.26-.35.2-.31.72-.23,1.11.33,1.53.66,3.06.99,4.59-.91-1.07-1.83-2.14-2.74-3.21.3,1.5.86,2.96,1.65,4.27-.87-1.39-1.89-2.68-3.04-3.85.37.93.91,1.8,1.56,2.55-1.05-1.78-2.33-3.43-3.79-4.89-.47-.47-1.04-.95-1.71-.9,1.01,2.31,2.31,4.5,3.85,6.49-1.22-1.36-2.51-2.77-4.24-3.36.54,1.07,1.24,2.07,2.07,2.94-.98-.95-2.14-1.72-3.39-2.26.26.64.74,1.19,1.34,1.54-.32-.07-.57-.3-.87-.43s-.72-.11-.86.18c-.08.17-.03.36.03.54.39,1.13,1.3,2.07,2.42,2.49-.25-.07-.49.2-.48.46s.17.48.33.68c1.66,2.04,3.95,3.57,6.48,4.29"/></g></g></g></g></g></svg>