<?xml version="1.0" encoding="UTF-8"?><svg xmlns="http://www.w3.org/2000/svg" xmlns:xlink="http://www.w3.org/1999/xlink" viewBox="0 0 300 300"><defs><style>.cls-1{fill:#ffd66e;}.cls-2,.cls-3{fill:#f4af13;}.cls-4{stroke:#336a9b;stroke-linecap:round;stroke-linejoin:round;stroke-width:.61px;}.cls-4,.cls-5,.cls-6{fill:none;}.cls-7{fill:#fff;}.cls-5{stroke:#fff;stroke-miterlimit:10;stroke-width:1.22px;}.cls-8{filter:url(#drop-shadow-4);}.cls-9{clip-path:url(#clippath-1);}.cls-10{isolation:isolate;}.cls-11{fill:#a384bb;opacity:.25;}.cls-11,.cls-3{mix-blend-mode:multiply;}.cls-3{opacity:.5;}.cls-12{fill:#6498d1;}.cls-13{clip-path:url(#clippath-2);}.cls-14{fill:#9bc8ec;}.cls-15{fill:#42496f;}.cls-16{fill:#336a9b;}.cls-17{clip-path:url(#clippath);}</style><clipPath id="clippath"><path class="cls-6" d="M27.11,96.93v129.24c1.89.35,3.97.55,6.16.55,5.08,0,9.57-1.04,12.41-2.65.14,0,.28-.01.41-.02,1.53,1.62,3.96,2.67,6.71,2.67s5.18-1.05,6.71-2.67c1.96,1.62,5.06,2.67,8.57,2.67,2.89,0,5.51-.71,7.43-1.87,2.25,1.16,5.31,1.87,8.68,1.87,2.91,0,5.58-.53,7.7-1.42.52.89,1.18,1.42,1.9,1.42s1.35-.52,1.87-1.38c2.11.86,4.74,1.38,7.61,1.38,3.75,0,7.1-.88,9.39-2.27,1.96,1.39,4.84,2.27,8.04,2.27,2.98,0,5.67-.76,7.61-1.97,2.27,1.22,5.41,1.97,8.89,1.97.15,0,.3-.02.45-.02.31,0,.61.02.93.02,5.08,0,9.57-1.04,12.41-2.65.14,0,.28-.01.41-.02,1.53,1.62,3.96,2.67,6.71,2.67s5.18-1.05,6.71-2.67c1.96,1.62,5.06,2.67,8.57,2.67,2.89,0,5.51-.71,7.43-1.87,2.25,1.16,5.31,1.87,8.68,1.87,2.91,0,5.58-.53,7.7-1.42.52.89,1.18,1.42,1.9,1.42s1.35-.52,1.87-1.38c2.11.86,4.74,1.38,7.61,1.38,3.75,0,7.1-.88,9.39-2.27,1.96,1.39,4.84,2.27,8.04,2.27,2.98,0,5.67-.76,7.61-1.97,2.27,1.22,5.41,1.97,8.89,1.97.62,0,1.23-.04,1.82-.08V96.93H27.11Z"/></clipPath><filter id="drop-shadow-4" x="48.29" y="149.44" width="173.13" height="91.37" filterUnits="userSpaceOnUse"><feOffset dx="-1.22" dy="0"/><feGaussianBlur result="blur" stdDeviation="0"/><feFlood flood-color="#42496f" flood-opacity="1"/><feComposite in2="blur" operator="in"/><feComposite in="SourceGraphic"/></filter><clipPath id="clippath-1"><path class="cls-6" d="M65.48,149.44h0c-3.77-.18-7.2,7.59-7.65,17.35l13.66.64s0,0,0,0l21.07.98c.46-9.76,3.88-17.52,7.65-17.34l-34.73-1.61Z"/></clipPath><clipPath id="clippath-2"><path class="cls-6" d="M205.16,177.16s-1.03,22.07-18.66,36.25c-1.59,9.06-16.53,23.84-16.53,23.84h-84.85s4.61-35.02-28.28-51.04l2.22-14.2,44.49,3.81,1.91,5.32s68.63-.03,99.7-3.98Z"/></clipPath><clipPath id="clippath-3"><path class="cls-6" d="M126.77,670.15c-.71.57-1.28,1.02-1.98,1.57,0-.06,0,.15.02.39-3.2-.32-3.33-2.38-.1-2.88,1.27-.46,1.29-1.73,1.8-3.08-1.46.56-2.44.47-3.81.7.25.88.89.85,1.45,1.44-.48.51-1.17.59-1.77.51-.16-1.02-1.03-2.49.12-3.25,1.08-.45-.19-1.69-.57-2.01-.58.28-1.11.96-.62,1.6.31.47.51.86-.12,1.32-1.18,3.27-3.03-.47-4.86-1.1.04-.19.13-.57.25-1.1-1.74,1.04-.91-3.18-2.93-.82-1.62-1.05-2.16-4.84-4.27-4.35-.19.12-.72-.09-.86-.32-.79-2.58-3.2-3.7-4.05-6.08-.65-1.51-1.98-2.38-3.11-3.45-.1-.15-.74-.11-.86.06-.95,1.2-2.94.12-3.04-1.3-.3-.57-1.47-1.13-1.39-1.99-.99-1.14.04-1.07.75-1.65-.71-.3-.87-.89-.86-1.73.18-.81-1.67-2.15-.4-2.58,1.46-.28.31-1.17.29-2.22-1,1.43-2.02,2.27-3.67,2.05-.75.61-1.21.2-1.71-.27-1.29-1.41-3.22.46-4.37,1.39.1-3.76-4.69.9-6.54,1.18-.05-1.29-1.55-2.31-2.53-1.04-2.25-.61-2.98-3.95-4.68-5.59-.35-1.53-2.4-1.15-2.5-2.62-.17-1.63-2.3-1.87-2.29-3.67-1.44-.59-1.12-2.54-2.16-3.44-1.78-2.29-6.5-5.15-5.76-8.1.89-.92,0-1.19-.61-1.76-.47-1.01-1.01-.04-1.78-.24,1.88-2.06-1.47-2.33,1.3-5.97.31-.9-.85-.65-1.11-.1-.69,1.23-1.68,1.06-2.63.93-.51-.55-.06-1.92-1.33-1.66-.09-.37-.17-.73-.27-1.11-1.24.3-1.93,1.6-.52,2.21-1.32,1.25-3.58,4.5-4.84,1.68-1.49.34-1.34-2.24-3-.95-.08-.7-.15-1.27-.22-1.91-.18.12-.41.27-.63.42-.36-.74-.39-1.79-1.55-1.63-.13-.96-.26-1.9-.4-2.98-.27.4-.46.67-.57.84-1.74-.4-2.1-2.22-3.03-3.53-.1.01-.19.03-.29.04-.06.34-.13.67-.19,1.01-.1,0-.2,0-.3-.01.27-3.39-2.87-4.42-3.86-7.28.27-1.01.3-1.42-.31-2.24-.38.41-.74.79-1.22,1.31-.78-.58-.39-2-1.55-1.7-.33-1.36-.03-2.35.87-3.26-.98-1.09,1.55-3.48-.43-3.65-.11.47-.21.91-.31,1.35h-.22c.03-1.11.05-2.22.08-3.52,2.43,1.18,2.28-2.24,2.5-3.94-.97.71-1.64,2.01-2.82,1.04.18.3.35.6.61,1.05-.52.13-.97.25-1.27.32-.35-1.91.46-3.14,1.71-4.5.13.09.29.2.4.27,2.9-4.64,5.81-9.83,10-13.79-1.1-.9-1.67-2.74-.22-3.57.66.05,1.36.34,1.71.08.63-.78,1.13-1.84-.33-2.35,0-1.37,1.82-2.87.51-4.08-.76-.85-.5-2.63-1.97-2.74-1.54-.47-2.35.92-3.67,1.34-1.28-.24-1.53,1.02-2.2,1.87-.78-.44-1.74-.57-2.25-1.22-.35-1.43-1.43-.99-2.58-1.25.28-.3.51-.54.76-.8-1.61-.45-1.24,1.18-.68,1.97-.35.29-.66.54-1.16.96-.15-1,.72-2.27-.49-2.7-2-.02-2.09-3.77-4.13-2.35.01-.32.03-.62.04-.93-1.12-.02-1.15-.98-1.74-1.66-2.3-1.89-1.62-1.26-2.3-3.98-.2.13-.39.26-.63.42-.65-.98-1.56-1.13-1.86-2.57-1.33-2.88-5.35-3.06-7.08-5.39-.59.08-1.04.15-1.6.23,1.38-2.04.17-3.32.28-5.29.8-1.97,1.6-3.94,2.4-5.91l.36.03c-.08.99-.17,1.98-.27,3.2.81-.92.53-1.85.96-2.71.18.12.33.22.49.32.07-.03.13-.07.2-.1.02-1.52-1.86-.95-.62-2.47,8.1-15.25,14.39-31.29,23.08-46.17.45-.86.74-1.6,1.64-.57,1.74.56,1.81-2.35,3.56-2.19.43-.03.74-1.27.44-1.89-.07.32-.12.54-.19.83-1,.02-1.96.05-2.95.07.29-2.05,2.6-2.16,4.1-1.52,1.68-2.49,2.3-6.22,5.74-6.79-.14-.17-.27-.33-.54-.66,2.52-.59,4.58,2.55,6.67,1.91.44-.39.74-.3.82.31-.22.08-.43.16-.72.26,4.26,1.53,8.62,5.25,12.52,6.03.92,2.41,2.38-.58,3.43-1.49.52-.83,1.39-.07,2.02-.6,8.95-9.04,16.93-19.51,26.77-26.99.55,0,1.6.23,1.95.82,1.85,1.28,2.47-3.79,6.84,1.16.67,1.15,2.43-.46,2.71,1.05.28,1.14,1.69,1.09,2.21,2.07,1.79,1.08,2.56,3.15,4.74,3.8.69.39.8.85,1.5-.02.12,1.41.31,1.52,1.4.76.08.41.15.79.23,1.18l1.12-.48c-.47,6.94,24.59-23.99,27.83-25.77,1.61.35-.19,1.26.7,2.16.5.14.96-.69,1.34-.89,1.68-.33-.02,1.92,1.23,2.22.72.18.83,1.9,1.68.96.18.36.42.65.47.98.12.87,1.5.81,1.69.11.11-.93-.63-2.36.92-2.13.69.04.42,1.09.95,1.37-.25.4-.45.71-.64,1.02.44.12.87.25,1.44.41-.46,1.12-.41,1.3.7,1.76.24,1.01,1.23,1.47,1.97,2.04.85.7,1.65,2.05,3.01,1.97-.37,1.39,1.42.55,2.12.97-1.04.97-.93,1.29.14,1.93-.03.06-.05.13-.08.19-.47-.05-.95-.1-1.6-.18.27.73,1.16.62.75,1.48-.07.73,1.22.92,1.84.42-.16.32-.26.5-.4.76.57-.04.21,1.01.96.71.42-.17.76-.55,1.1-.95-1.08.65-1.34-.4-.4-.95,1.36.03,2.05-.86,2.83-1.74,1.16-1.32,2.16-2.09,3.9-1.32.42.37.79.74,1.36.09,1.02.93,2.01,1.82,3,2.71.08-.07.16-.13.24-.2-.2-.33-.4-.66-.71-1.16,1.92,1.3,3.92-1.03,5.36.41.24,1.62,1.15,2.49,2.36,3.45,1.08.96.46,2.64,1.64,3.51.59.44.42,1.54,1.36.95,1.14-.8,2.06,1.3,1.41,2.17.42.08.74.14,1.02.2-.35.43-.66.8-.97,1.18.6.26-.51,1.37.74,1.34.08-.23.16-.48.24-.72,1,.67,2.3,1.19,1.22,2.57.32.04.61.08.96.13-.05.23-.1.43-.11.51.4.36.74.67,1.12,1.02-.2.25-.37.47-.65.83,1-.26,1.85-.48,2.78-.72.02.31.03.5.04.68,2.53.55.47,4.43.01,6.05.08.06.16.11.24.17,1.62-1.38,2.45-3.49,3.88-5.07.08.05.17.1.25.15-.38.97-.89,1.91-1.08,2.95,1.03-.03,1.49-.81,2.02-1.57,3.26,2.24,14.63-18.5,13.48-7.99.09.03.19.06.28.09,1.09-2.14,4.51-2.62,4.52.4-.1.89.73.56,1.29.5.59-.14.81.11.81.66-.08,1.96,4.51.52,3.97,3.24,2.14-.46,1.24,2.23,2.86,2.41.6,0,1.21.37,1.84.59-.23.49-.43.93-.68,1.46,5.02,1,1.1.78,3.5,2.93,4.4,2.3.16,6.22-.4,9.67.09.04.18.08.27.12-.18.12-.37.23-.61.38.06.15.13.33.2.51-1.45.03-.69,1.27-1.39,2.14-.35.48-.52.81.08,1.22.73.85.62,2.26.92,3.3-.07-.06-.23-.19-.27-.22-.66,1.44.09,2.99-1.8,3.48-.2.76-.28,1.63-1.18,2.08-.32-.33-.58-.62-.85-.9-.14,0-.27-.02-.41-.03.29,2.12-.85,3.45-1.8,5.24,1.24.98,3,.81,3.9,1.87.14.2.27.61.37.6,1.44-.08,1.73,1.32,2.68,1.99.64-.66,1.25-1.28,1.86-1.92.26.19.47.34.67.48.05-.03.1-.06.16-.09l-.43-.92c1.56-3.16,1.7.66,2.81-1.18.48.2-.21,1.17.69.93.13-.03.11-.59.19-1.07,1.15,0,1.44,1.55,2.79.38.07.77.04,1.14.21,1.76,1.69-.84,3.34-2.18,4.89-3.55,1.02-1.33,1.92-1.91,3.49-.74-.48.14-.75.22-1.02.3,0,.07-.01.13-.02.2.38.07.76.14,1.19.22.03-.18.06-.33.1-.53,1.72.23.03,1.23,1.08,1.8.13-.2.26-.39.3-.45,1.87.37,1.02-1.64.98-2.75h.2c1.29,1.09,1.02,3.4,2.37,4.08.48.04.83.14,1.16.5,1.44.82.73-1.53,1.45-1.89.83-.06,1.28.75,1.73,1.41-.65,1.95,2.24,2.85,3.33,4.16-1.55-.42-2.33-.09-.8,1.44.23-.35.36-.55.59-.9.36.66.51,1.14,1.07,1.53.33-.6.05-1.05-.14-1.63.68.2,1.28.4.87,1.3.35,2.15,4.29-.79,3.39,2.19.9-.3,3.06.32,1.79,1.39-.13.09-.14.6,0,.76.17.19.63.38.8.28.86-.52,1.29.61,1.88,1.04,1.08,1.87-1.13,3.83-.97,5.53,1.2.53-.36,2.02-1.07.88-.31.41-.49.76.19.86,1.62,1.82-2.47,6.47-3.68,8.63.36-.11.59-.17.91-.27.16.62,1.01,1.71,0,1.99-.74.55-.26,1.55-.23,2.5.29.02,1.17-.41,1.4-.38.6.52,1.12.26,1.64-.05.56-.34.7-.05.78.47.8,2.37,1.18,4.78,2.08,7.04.3,1.29.71,3.39,2.18,3.71.36.97,1.89,1.05,1.62,2.51,2.6-.27,2.12,3.13,2.17,4.77,2.93,1.42-1.9,4.93-2.06,7.05-1.37,1.05-1.72,3.22-2.76,3.84-.55.33.13,1.79-.94,1.65-.8.84-1.22,1.96-2.06,3.19,3.36.42,6.45.82,9.53,1.21.03,1.67.88.37,1.74,1.27-.46.32-.8.55-1.11.77,1.15,1.21,1.96,3.8.02,4.52-1.21-.42-.74.5-.82,1.12.54-.18,1-.33,1.52-.5.97,1.17-1.8,1.91-.43,3.31.01,5.67-9.28,6.55-2.15,13.15-.6.93.81,1.58.35,2.49-.86,1.24-.56,2.5,1.03,2.77.03-.12.09-.37.16-.63,1.01.62,2.48,4.08,2.35,5.43.2-.03.46-.07.72-.11-.01.1-.02.19-.03.29-.18.2-.37.39-.55.59.02.09.04.18.07.27.39-.07.79-.13,1.32-.22-.6.68-.24,2.15-1.19,2.22-.15,0-.3.29-.45.45.71.61,1.52,0,2.31-.16.04.07.08.13.12.2-3.13,4.17-9.06,6.46-10.86,11.43-.13,1.58-.41.81-1.47,1.08.51.31,1.43.88.62,1.38-.76.45.06,1.17-.25,1.87-.09,0-.17,0-.26,0-.12-.2-.24-.39-.52-.84-2.75,9.89-14.74,10.7-21.93,16.16-4.72,4.01-9.46,8.24-14.74,11.42-1.03,1.68-4.84,4.86-6.14,2.16.23-.1.46-.2.91-.4-.52-.33-.86-.54-1.35-.84.15,1.11-.97,3.19-.61,1.1-1.21-.58-.15-1.97-.78-3.19-.4.88-.71,1.56-1.01,2.23-1.43-.73-.15-3.63-1.83-3.83-.67,1.02-1.16.59-1.62-.31-.3.54-.54.97-.8,1.44-3.27-3.43-9.81,6.67-13.38,6.07-1.94.18-3.46,3.74-5.53,2.82-8.97-2.23-27.89,23.2-33.17,18.76.28-.12.53-.23,1.03-.44-.49-.36-.82-.6-1.21-.88-1.25,2.45-1.36-.66-1.25-1.81-.1-.03-.2-.06-.3-.09-.37.65-.73,1.31-1.09,1.95-1.62-.22.05-4.78-1.79-3.84-.9,1.31-.92.07-1.66-.32-.18.43-.35.84-.5,1.22-2.08-1.72-4.41.85-6.83.32-.82.38-2.7,1.19-2.44-.6.71-.75,1.48-3.95-.37-3.1-.69-1.1-.61-1.41.38-1.63-.13-1.44-.51-1.98-1.57-.71.17-2.38-1.75-3.38-1.15-5.51.16-.53-.43-1.42-.27-1.96.77-1.47-.33-2.13-.91-3-1.93-.74-2.61-2.2-3.52-4.07-.66.52-1.34,1.05-2.08,1.63.03-.29.05-.51.07-.77-2.13.45-.86,2.03-2.31,3.42-.48-2.06,1.27-3.47,1.16-5.48-7.49,8.85-14.27,20.34-21.91,27.93ZM281.65,565.41c.86.91-.18,1.37.87,1.81.24-.85,1.47-1.29.61-2.46l-.62.31-.41-.2c.22-.27.44-.54.66-.8-1.4-1.64-1.2.32-1.11,1.34ZM33.54,583.75c-.44.6-.88,1.2-1.32,1.79.42.23.89.5,1.37.76.97-1.02.97-1.81-.05-2.56ZM282.42,573.25c-.22-.09-.44-.19-.67-.28.34-.49.68-.99.99-1.43-.25-.17-.55-.37-.85-.58q-.56.48.02,1.05c-.28.19-.56.38-.84.56,0,.12-.02.24-.03.36.46.1.91.21,1.37.31ZM280.45,562.31c-.32.62-.55,1.08-.89,1.73,1.06-.27,2.31-1.14.89-1.73ZM230.91,489.21c-.07.02-.14.05-.21.07-.09.63-.18,1.27-.27,1.97l.9-.41c-.14-.53-.28-1.08-.42-1.62ZM179.68,443.77c-.85.5-.87.79-.1,1.43.03-.49.06-.9.1-1.43ZM38.81,478.72c.65.15,1.03.17,1.06-.48-.43-.54-.69.02-1.06.48ZM31.94,591.01c-.47.93-.38,1.12.48,1.24-.18-.46-.33-.85-.48-1.24ZM281.27,569.7c.15.01.31.02.46.04,0-.41.01-.82.02-1.23-.12,0-.24-.02-.36-.03-.04.41-.08.81-.12,1.22ZM76.36,639.14c-.03.39-.06.77-.11,1.27.93-.49.84-.89.11-1.27Z"/></clipPath></defs><g class="cls-10"><g id="bateau_09"><g class="cls-17"><path class="cls-7" d="M187.62,229.72s12.46-16.65,7.99-18.23c-4.46-1.58-22.19,13.79-22.19,13.79l14.19,4.44Z"/><path class="cls-14" d="M184.4,233.79s12.46-16.65,7.99-18.23c-4.46-1.58-22.19,13.79-22.19,13.79l14.19,4.44Z"/><path class="cls-7" d="M196.28,225.03c-.52.26-1.03-.08-1.14-.43-.13-.41.06-.86.45-1.02.42-.16.88.04,1.04.46.03.07.04.14.07.21.21.57.18.63-.42.78Z"/><path class="cls-7" d="M197.4,212.48c.11.38-.1.78-.48.9-.4.13-.81-.09-.92-.49-.1-.38.12-.78.5-.89.37-.11.78.11.9.48Z"/><path class="cls-7" d="M190.64,217.91c.09.32-.06.56-.42.68-.35.11-.71-.07-.81-.41-.1-.33.1-.67.43-.76.35-.1.68.1.8.49Z"/><path class="cls-7" d="M187.95,221.51c-.09-.33.09-.65.41-.74.32-.08.64.11.73.43.09.35-.09.7-.41.78-.32.08-.64-.12-.74-.48Z"/><path class="cls-7" d="M196.6,220.05c.09.32-.09.66-.4.75-.32.1-.65-.08-.75-.4-.1-.32.08-.65.4-.75.32-.1.65.07.75.4Z"/><path class="cls-7" d="M191.69,228.28c.08.3-.12.62-.43.69-.3.07-.6-.11-.68-.4-.09-.31.09-.62.4-.7.31-.08.62.1.7.41Z"/><path class="cls-7" d="M194.03,210.4c.3-.08.59.09.68.39.09.31-.09.62-.41.7-.3.07-.6-.1-.68-.39-.09-.31.09-.62.41-.7Z"/><path class="cls-7" d="M189.37,225.69c-.07-.29.08-.56.35-.62.28-.06.58.12.65.39.07.28-.08.54-.36.62-.29.08-.56-.09-.64-.38Z"/><path class="cls-7" d="M200.13,213.17c.02.08.05.16.07.24.04.25-.07.43-.33.47-.26.04-.41-.1-.46-.34-.03-.13-.01-.26-.04-.39-.04-.24.02-.42.27-.47.25-.06.38.09.44.32.01.06.03.12.05.17h0Z"/><path class="cls-7" d="M186.71,216.39c-.08-.27.06-.56.32-.64.26-.08.58.1.66.37.07.26-.1.56-.35.63-.26.07-.54-.09-.62-.36Z"/><path class="cls-7" d="M203.77,221.63c.3-.09.57.02.66.27.08.24-.06.53-.32.61-.26.08-.73-.17-.8-.43-.05-.2.08-.34.46-.46Z"/><path class="cls-7" d="M201.47,224.87c-.07-.27.1-.55.38-.61.29-.06.5.07.59.35.09.27-.07.54-.36.62-.28.07-.55-.09-.62-.36Z"/><path class="cls-7" d="M204.24,217.19c.06.26-.12.55-.39.61-.28.06-.52-.09-.58-.36-.06-.27.11-.55.38-.61.26-.06.54.11.59.36Z"/><path class="cls-7" d="M197.19,215.63c.25-.07.53.08.61.33.08.26-.09.55-.37.62-.26.06-.53-.1-.59-.35-.06-.25.1-.53.35-.6Z"/><path class="cls-7" d="M199.12,221.81c-.23.03-.42-.06-.5-.32-.07-.24.08-.52.32-.57.26-.05.45.06.54.31.08.23-.09.5-.36.57Z"/><path class="cls-7" d="M191.95,213.39c-.15-.12-.36-.21-.44-.37-.12-.23.04-.43.27-.5.24-.08.47.03.51.27.03.17-.11.36-.17.55l-.17.05Z"/><path class="cls-7" d="M192.49,220.55c.25.16.43.23.52.36.03.05-.12.31-.23.36-.2.09-.39-.02-.42-.26-.01-.11.06-.22.13-.46Z"/><path class="cls-7" d="M190.18,216.43c.16-.19.24-.36.34-.38.11-.02.24.11.37.18-.07.12-.11.3-.22.35-.1.04-.25-.07-.5-.14Z"/><path class="cls-7" d="M194.24,214.96c-.15.18-.22.34-.32.35-.1.02-.23-.1-.34-.16.07-.12.1-.29.21-.35.07-.04.23.07.45.15Z"/><path class="cls-7" d="M201,211.17c-.16.19-.24.35-.33.36-.1.01-.27-.09-.32-.19-.03-.06.08-.26.17-.29.1-.03.24.05.48.12Z"/><path class="cls-7" d="M198.75,216.59c.18.16.33.23.34.33.01.1-.11.22-.18.33-.11-.07-.28-.11-.32-.2-.04-.09.07-.23.15-.46Z"/><path class="cls-7" d="M199.89,218.7c.17.13.32.19.33.28.02.09-.08.26-.16.29-.08.02-.25-.07-.29-.15-.04-.08.05-.21.12-.41Z"/><path class="cls-7" d="M189.47,213.71c.16.14.3.2.33.29.02.08-.08.27-.14.27-.1.01-.27-.06-.31-.14-.04-.07.06-.21.13-.42Z"/><path class="cls-7" d="M190.99,212.42c-.16-.14-.31-.21-.32-.29-.01-.1.1-.21.15-.31.1.06.26.1.29.18.03.08-.06.22-.12.42Z"/><path class="cls-7" d="M197.8,226.1c.13.11.28.18.28.24,0,.1-.1.2-.16.3-.1-.07-.23-.11-.28-.2-.03-.06.08-.18.16-.34Z"/><path class="cls-7" d="M193.19,228.74c.13-.13.2-.27.28-.27.1,0,.19.12.29.18-.07.08-.12.22-.2.24-.08.02-.19-.07-.36-.15Z"/><path class="cls-7" d="M193.12,215.98c-.1.13-.15.27-.22.28-.09,0-.2-.07-.29-.12.06-.09.1-.22.18-.26.06-.03.18.05.33.1Z"/><path class="cls-7" d="M193.05,218.57c-.1.13-.15.24-.22.27-.05.02-.21-.08-.21-.12,0-.09.06-.2.13-.25.04-.03.16.05.3.1Z"/><g class="cls-8"><path class="cls-2" d="M81.88,233.55l-2.52-34.84h-4.01s4.96,17.6-11.72,24.46v11.11l18.25-.73Z"/><path class="cls-15" d="M80.86,219.39l-1.49-20.68h-4.01s1.12,3.98.5,8.9c1.5,3.51,3.48,8.15,5.01,11.79Z"/><path class="cls-12" d="M100.21,151.05c-3.77-.18-7.2,7.59-7.65,17.35l13.66.64c.45-9.76-2.24-17.81-6.01-17.99Z"/><polygon class="cls-2" points="102.76 181.46 60.11 179.48 60.86 163.36 67.39 149.92 100.21 151.05 103.19 157.61 103.51 165.34 102.76 181.46"/><polygon class="cls-11" points="100.21 151.05 91.54 150.75 90.14 180.87 102.76 181.46 103.51 165.34 103.19 157.61 100.21 151.05"/><path class="cls-16" d="M100.21,151.05c-.53-.02-1.05.12-1.56.4,2.95,1.95,4.88,9.06,4.49,17.45l3.08.14c.45-9.76-2.24-17.81-6.01-17.99Z"/><path class="cls-7" d="M100.49,151.1v-.04s-.28-.01-.28-.01c.1,0,.19.04.28.05Z"/><path class="cls-14" d="M65.48,149.44h0c-3.77-.18-7.2,7.59-7.65,17.35l13.66.64s0,0,0,0l21.07.98c.46-9.76,3.88-17.52,7.65-17.34l-34.73-1.61Z"/><g class="cls-9"><line class="cls-4" x1="56.48" y1="165.58" x2="99.08" y2="167.56"/><line class="cls-4" x1="56.54" y1="164.17" x2="99.14" y2="166.15"/><line class="cls-4" x1="56.61" y1="162.75" x2="99.21" y2="164.73"/><line class="cls-4" x1="56.68" y1="161.33" x2="99.28" y2="163.31"/><line class="cls-4" x1="56.74" y1="159.92" x2="99.34" y2="161.9"/><line class="cls-4" x1="56.81" y1="158.5" x2="99.41" y2="160.48"/><line class="cls-4" x1="56.87" y1="157.08" x2="99.47" y2="159.06"/><line class="cls-4" x1="56.94" y1="155.66" x2="99.54" y2="157.64"/><line class="cls-4" x1="57" y1="154.25" x2="99.61" y2="156.23"/><line class="cls-4" x1="57.07" y1="152.83" x2="99.67" y2="154.81"/><line class="cls-4" x1="57.14" y1="151.41" x2="99.74" y2="153.39"/><line class="cls-4" x1="57.2" y1="150" x2="99.8" y2="151.98"/></g><path class="cls-1" d="M205.16,177.16s-1.03,22.07-18.66,36.25c-1.59,9.06-16.53,23.84-16.53,23.84h-84.85s4.61-35.02-28.28-51.04l2.22-14.2,44.49,3.81,1.91,5.32s68.63-.03,99.7-3.98Z"/><polygon class="cls-11" points="92.98 174.91 93.92 180.74 105.46 181.14 103.55 175.81 92.98 174.91"/><g class="cls-13"><path class="cls-5" d="M49.58,184.03s75.5,8.59,171.77-3.15"/><path class="cls-5" d="M49.58,191.15s75.5,8.59,171.77-3.15"/><path class="cls-5" d="M49.58,198.27s75.5,8.59,171.77-3.15"/><path class="cls-5" d="M49.58,205.4s75.5,8.59,171.77-3.15"/><path class="cls-5" d="M49.58,212.52s75.5,8.59,171.77-3.15"/><path class="cls-5" d="M49.58,219.65s75.5,8.59,171.77-3.15"/><path class="cls-3" d="M165.53,240.81s14.46-13.78,18.45-28.24c8.65-7.86,13.44-23.34,13.44-23.34,0,0-73.11,26.76-127.88,2.28,0,0,28.12,12.21,15.94,48.74-.11.34,80.05.57,80.05.57Z"/></g></g></g><path class="cls-14" d="M184.84,228.66s-9.57-26.22-18.07-20.25c-2.41,1.69,3.9,15.14,3.9,15.14,0,0-8.4-4.08-9.07-.58s-3.9,6.23-10.36,4.94c-6.46-1.29,18.24,7.83,18.81,4.17s8.16,3.47,9.86,1.7c1.7-1.77-1.25-6.97,4.93-5.13Z"/><path class="cls-7" d="M181.41,224.87c.31-5.67-8.43-20.92-14.64-16.45-4.09,2.94,2.88,11.61,3.9,15.14-5.19-3-11.26-3.35-12.88-1.67-1.62,1.67,2.99,2.38,1.72,3.9s-13.2,1.55-13.2,1.55c0,0,13.68,4.84,17.55,3.14,2.44-1.07-1.48-4.55.68-5.31,5.41-1.89,10.29,7.89,14.42,6.84,2.45-.62-3.54-8.49-1.96-9.14,1.58-.65,4.4,1.99,4.4,1.99Z"/><path class="cls-7" d="M145.65,226.15c.28.3.14.7-.07.85-.25.17-.59.13-.77-.11-.19-.25-.14-.59.11-.79.04-.03.08-.05.13-.08.34-.25.38-.24.61.13Z"/><path class="cls-7" d="M137.03,227.81c.23-.15.54-.09.69.15.16.24.1.56-.15.71-.23.14-.54.07-.69-.16-.15-.23-.08-.55.15-.69Z"/><path class="cls-7" d="M141.97,231.3c.19-.12.39-.07.54.15.14.21.09.49-.12.62-.2.13-.46.06-.59-.14-.14-.22-.06-.48.18-.63Z"/><path class="cls-7" d="M144.9,232.4c-.2.12-.45.06-.57-.14-.12-.2-.05-.45.15-.57.22-.13.48-.08.6.12.12.2.04.45-.18.59Z"/><path class="cls-7" d="M142.25,226.89c.19-.12.46-.07.58.12.13.19.07.45-.13.58-.2.13-.45.07-.58-.12-.13-.2-.08-.45.12-.58Z"/><path class="cls-7" d="M148.71,228.6c.19-.11.44-.04.55.15.1.19.04.42-.14.53-.19.12-.43.06-.55-.14-.11-.19-.05-.44.14-.55Z"/><path class="cls-7" d="M136.29,230.47c-.11-.19-.05-.41.13-.53.19-.12.43-.06.55.14.11.19.05.42-.13.53-.19.12-.43.06-.55-.14Z"/><path class="cls-7" d="M147.42,230.65c-.18.1-.39.05-.48-.11-.1-.17-.03-.41.14-.51.17-.1.38-.05.48.12.11.18.05.39-.13.5Z"/><path class="cls-7" d="M136.97,225.86s.1-.07.15-.09c.16-.07.3-.03.38.13.08.16.01.3-.14.38-.08.04-.17.06-.26.1-.15.07-.28.06-.37-.09-.09-.16-.01-.27.13-.35.04-.02.07-.04.11-.07h0Z"/><path class="cls-7" d="M141.71,234.22c-.17.11-.39.07-.49-.09-.1-.16-.04-.41.12-.51.16-.1.39-.04.49.12.1.16.04.38-.12.49Z"/><path class="cls-7" d="M141.93,221.79c-.12-.18-.1-.38.06-.49.15-.1.37-.06.47.1.1.15.03.52-.13.62-.13.08-.24.01-.39-.22Z"/><path class="cls-7" d="M144.55,222.71c-.17.1-.39.04-.48-.14-.09-.19-.05-.35.12-.46.17-.11.38-.05.48.12.1.17.05.38-.12.48Z"/><path class="cls-7" d="M138.87,222.33c.16-.09.39-.02.48.15.1.17.04.36-.13.46-.17.09-.39.03-.48-.14-.09-.16-.03-.38.13-.47Z"/><path class="cls-7" d="M139.18,227.35c-.1-.16-.05-.37.1-.47.16-.1.39-.04.48.13.09.16.04.37-.12.46-.16.09-.37.04-.47-.12Z"/><path class="cls-7" d="M142.95,224.87c.07.15.04.29-.12.4-.15.1-.36.04-.44-.11-.09-.17-.04-.31.11-.42.14-.1.35-.04.45.13Z"/><path class="cls-7" d="M138.69,231.29c-.05.12-.07.28-.16.37-.13.12-.29.06-.39-.09-.1-.15-.07-.32.09-.39.11-.05.26,0,.4.01l.06.1Z"/><path class="cls-7" d="M143.38,229.55c.06-.2.07-.33.14-.42.03-.03.23.02.28.09.1.12.06.27-.09.33-.07.03-.16,0-.33,0Z"/><path class="cls-7" d="M141.07,231.89c-.16-.07-.29-.09-.32-.16-.03-.07.03-.18.05-.28.09.02.22.02.27.08.05.06,0,.18,0,.36Z"/><path class="cls-7" d="M139.3,229.45c.15.07.27.08.3.14.03.06-.02.17-.04.26-.09-.02-.21-.01-.27-.07-.04-.04,0-.17.01-.33Z"/><path class="cls-7" d="M135.46,225.65c.16.07.28.09.31.15.03.07-.01.2-.07.25-.03.03-.19,0-.23-.06-.04-.06,0-.17,0-.34Z"/><path class="cls-7" d="M139.52,226.12c.07-.15.09-.27.15-.29.07-.03.17.03.25.05-.02.09-.02.21-.07.25-.05.04-.17,0-.33-.01Z"/><path class="cls-7" d="M140.72,224.95c.06-.14.07-.25.12-.27.06-.03.19,0,.22.05.03.05,0,.18-.05.22-.05.04-.15,0-.3,0Z"/><path class="cls-7" d="M139.38,232.89c.06-.14.07-.24.13-.27.05-.03.19,0,.21.04.03.07.01.19-.04.24-.04.04-.15,0-.3,0Z"/><path class="cls-7" d="M138.23,232.12c-.06.14-.08.25-.13.27-.06.03-.16-.02-.24-.04.02-.08.02-.19.07-.23.05-.04.15,0,.31,0Z"/><path class="cls-7" d="M146.08,224.92c.05-.11.06-.22.11-.23.07-.02.15.03.23.05-.03.08-.03.18-.08.22-.04.03-.14-.02-.26-.04Z"/><path class="cls-7" d="M148.73,227.51c-.11-.06-.22-.08-.24-.13-.02-.07.04-.15.07-.23.07.03.17.04.2.09.03.05-.01.14-.03.27Z"/><path class="cls-7" d="M140.2,230.01c.11.04.21.05.23.09.02.06-.01.15-.02.22-.07-.02-.16-.02-.21-.07-.03-.03,0-.13,0-.24Z"/><path class="cls-7" d="M141.95,229.56c.11.04.19.05.22.1.02.03-.01.15-.04.16-.06.02-.15,0-.19-.04-.03-.02,0-.11,0-.22Z"/><path class="cls-7" d="M165.43,228.03c-.19.79-1.01,1.01-1.47.81-.55-.23-.85-.83-.66-1.38.2-.58.83-.88,1.41-.68.09.03.18.08.28.11.79.29.82.37.44,1.14Z"/><path class="cls-7" d="M153.29,215.62c.5.22.73.79.52,1.3-.22.53-.81.77-1.33.53-.49-.23-.71-.82-.49-1.32.22-.49.81-.73,1.3-.51Z"/><path class="cls-7" d="M152.92,227.57c.42.19.54.57.34,1.05-.19.46-.71.68-1.15.48-.43-.19-.61-.7-.41-1.13.21-.46.72-.62,1.23-.4Z"/><path class="cls-7" d="M154.29,233.6c-.43-.2-.6-.68-.4-1.09.2-.41.69-.58,1.11-.38.45.21.65.71.45,1.12-.2.41-.7.56-1.16.35Z"/><path class="cls-7" d="M160.5,223.23c.42.18.61.68.44,1.09-.18.42-.67.61-1.09.42-.43-.19-.61-.66-.43-1.09.18-.43.66-.61,1.08-.43Z"/><path class="cls-7" d="M164.72,235.75c.39.19.55.68.34,1.07-.19.37-.65.53-1.03.35-.41-.18-.57-.65-.38-1.05.19-.4.66-.56,1.06-.37Z"/><path class="cls-7" d="M148.09,217.3c.19-.38.63-.54,1.02-.36.41.19.57.65.37,1.05-.19.38-.64.54-1.02.36-.41-.19-.57-.65-.37-1.06Z"/><path class="cls-7" d="M159.94,235.86c-.37-.18-.52-.59-.34-.92.18-.35.64-.5.99-.33.36.17.5.57.32.93-.18.37-.59.51-.97.33Z"/><path class="cls-7" d="M156.45,213.39c.1.05.22.09.31.15.3.19.39.46.2.77-.18.31-.47.35-.77.18-.16-.09-.29-.22-.44-.31-.29-.17-.41-.4-.25-.7.16-.31.43-.32.72-.17.07.04.15.07.22.11,0,0,0,0,0-.01Z"/><path class="cls-7" d="M147.81,230.32c-.36-.16-.53-.57-.38-.91.15-.34.62-.51.98-.35.33.15.5.6.34.93-.16.34-.58.49-.93.33Z"/><path class="cls-7" d="M168.56,217.15c.17-.4.53-.58.88-.45.33.13.5.54.36.88-.14.34-.83.61-1.16.45-.26-.12-.28-.38-.07-.89Z"/><path class="cls-7" d="M169.91,222.45c-.35-.17-.49-.6-.29-.94.2-.36.52-.46.9-.31.36.15.5.57.33.93-.17.36-.58.5-.93.32Z"/><path class="cls-7" d="M164.34,212.67c.33.17.46.62.29.96-.18.35-.56.47-.89.29-.34-.18-.48-.61-.3-.95.17-.32.6-.46.91-.3Z"/><path class="cls-7" d="M156.39,218.67c.15-.33.56-.49.89-.34.34.15.49.59.32.93-.17.33-.57.47-.9.31-.32-.16-.46-.57-.31-.9Z"/><path class="cls-7" d="M164.6,222.17c-.17.27-.44.39-.78.24-.32-.14-.47-.55-.3-.84.18-.32.47-.42.81-.28.31.13.45.54.28.89Z"/><path class="cls-7" d="M149.35,222.15c-.26.05-.54.19-.78.14-.35-.09-.42-.42-.28-.74.14-.32.46-.47.74-.29.2.12.28.44.42.67l-.1.22Z"/><path class="cls-7" d="M157.34,227.99c.39-.11.63-.24.84-.22.09.01.22.4.17.56-.09.29-.37.39-.65.2-.12-.08-.18-.26-.36-.55Z"/><path class="cls-7" d="M150.96,226.72c-.05-.34-.17-.58-.09-.7.08-.13.33-.15.51-.23.06.18.22.39.17.53-.05.14-.3.21-.59.39Z"/><path class="cls-7" d="M153.05,221.15c.05.32.16.53.09.65-.07.12-.31.15-.47.22-.07-.18-.21-.37-.18-.53.02-.11.28-.18.56-.34Z"/><path class="cls-7" d="M155.14,210.68c.05.34.16.56.09.67-.08.12-.34.19-.49.16-.09-.02-.2-.32-.15-.44.05-.13.27-.2.55-.39Z"/><path class="cls-7" d="M158.8,217.89c.32-.04.54-.14.65-.07.12.08.13.31.19.48-.17.06-.36.19-.5.15-.12-.04-.18-.28-.34-.56Z"/><path class="cls-7" d="M162.03,218.59c.29-.06.48-.16.59-.1.11.06.21.32.16.42-.05.11-.3.2-.42.17-.11-.03-.17-.25-.33-.49Z"/><path class="cls-7" d="M147.48,225.03c.29-.05.48-.14.59-.08.1.05.21.32.16.39-.08.12-.3.23-.43.2-.11-.02-.17-.25-.32-.51Z"/><path class="cls-7" d="M147.48,222.29c-.29.05-.5.14-.6.08-.11-.07-.13-.29-.19-.44.15-.05.33-.18.46-.14.12.04.18.25.33.51Z"/><path class="cls-7" d="M167.92,227.39c.23-.04.43-.13.5-.07.1.09.12.29.17.44-.16.04-.33.14-.46.11-.09-.03-.12-.25-.21-.47Z"/><path class="cls-7" d="M166.54,234.59c-.03-.25-.11-.46-.04-.53.09-.1.29-.1.45-.14.03.15.12.32.07.43-.05.1-.25.14-.48.24Z"/><path class="cls-7" d="M153.12,223.25c.05.23.15.4.09.47-.07.11-.25.14-.39.2-.04-.14-.14-.29-.11-.42.02-.09.21-.14.41-.26Z"/><path class="cls-7" d="M155.77,225.64c.05.22.12.37.08.48-.02.07-.27.15-.31.11-.09-.08-.16-.24-.14-.36,0-.07.19-.12.37-.23Z"/><path class="cls-7" d="M173.76,206.93c.42.2.45.69.28.93-.2.29-.58.38-.86.21-.3-.18-.4-.57-.22-.88.03-.05.07-.09.1-.14.26-.41.31-.42.7-.11Z"/><path class="cls-7" d="M165.27,212.29c.18-.26.54-.31.8-.13.28.19.34.55.14.82-.19.25-.55.3-.8.12-.25-.18-.31-.55-.13-.8Z"/><path class="cls-7" d="M171.99,213.95c.16-.21.39-.24.63-.06.24.17.3.48.13.71-.16.22-.47.26-.69.1-.23-.17-.27-.48-.07-.74Z"/><path class="cls-7" d="M175.56,213.91c-.17.22-.46.26-.67.09-.21-.16-.24-.46-.08-.67.18-.23.48-.28.69-.12.21.16.23.47.06.7Z"/><path class="cls-7" d="M170.45,209.13c.15-.21.46-.26.67-.11.22.15.26.45.11.67-.16.22-.45.27-.67.11-.22-.16-.27-.45-.11-.67Z"/><path class="cls-7" d="M178.05,208.26c.15-.2.45-.23.65-.06.19.15.22.43.08.63-.15.21-.44.24-.64.08-.2-.16-.24-.44-.08-.65Z"/><path class="cls-7" d="M165.59,215.43c-.19-.15-.23-.42-.08-.62.16-.21.44-.24.64-.08.19.15.23.43.08.62-.16.21-.44.24-.64.08Z"/><path class="cls-7" d="M177.53,210.99c-.14.18-.4.22-.56.08-.17-.14-.21-.43-.07-.6.14-.18.38-.21.57-.07.19.15.22.4.07.59Z"/><path class="cls-7" d="M164.39,210.23c.04-.05.08-.11.12-.16.14-.15.31-.16.46-.02.15.14.14.31,0,.46-.07.08-.16.14-.23.21-.13.14-.27.19-.43.06-.16-.13-.13-.28-.01-.43.03-.04.06-.08.09-.11h0Z"/><path class="cls-7" d="M172.92,217.17c-.13.18-.39.23-.56.11-.18-.13-.21-.41-.08-.6.13-.17.4-.21.57-.08.17.13.21.39.07.57Z"/><path class="cls-7" d="M167.99,203.83c-.21-.14-.26-.37-.15-.55.11-.17.37-.21.54-.09.18.12.24.55.12.71-.1.13-.25.11-.51-.07Z"/><path class="cls-7" d="M171.15,203.72c-.14.17-.4.2-.57.05-.18-.16-.2-.35-.06-.54.13-.19.38-.22.56-.07.18.14.21.39.07.57Z"/><path class="cls-7" d="M164.94,205.68c.14-.17.41-.19.58-.05.17.14.2.37.06.54-.14.17-.4.2-.57.06-.16-.13-.19-.39-.06-.55Z"/><path class="cls-7" d="M167.37,210.91c-.17-.13-.21-.38-.09-.54.13-.18.39-.21.57-.07.17.13.2.38.07.55-.13.16-.38.19-.55.07Z"/><path class="cls-7" d="M170.35,206.69c.13.13.17.3.04.47-.12.16-.37.2-.51.07-.16-.14-.18-.32-.06-.49.11-.16.36-.19.54-.05Z"/><path class="cls-7" d="M168.48,215.31c0,.15.04.33-.02.46-.09.19-.29.18-.45.07-.17-.12-.21-.32-.07-.45.09-.1.28-.11.43-.15l.11.08Z"/><path class="cls-7" d="M172.76,211.5c-.02-.24-.06-.38-.02-.5.02-.05.25-.08.34-.03.15.09.17.26.04.39-.06.06-.17.07-.36.14Z"/><path class="cls-7" d="M171.27,214.95c-.2-.01-.35.02-.41-.03-.06-.06-.05-.21-.07-.32.11-.01.25-.08.32-.03.07.04.08.19.15.38Z"/><path class="cls-7" d="M168.37,213.09c.19,0,.32-.02.38.03.06.05.05.19.07.29-.11.02-.24.07-.32.04-.06-.03-.07-.18-.13-.36Z"/><path class="cls-7" d="M162.7,210.64c.2.01.34-.02.39.03.06.06.07.21.03.29-.02.05-.21.07-.27.03-.07-.05-.08-.18-.15-.36Z"/><path class="cls-7" d="M167.22,209.45c.02-.19-.01-.32.04-.38.06-.06.19-.04.29-.05.01.1.07.23.03.3-.04.06-.18.07-.36.13Z"/><path class="cls-7" d="M168.01,207.71c0-.17-.03-.29.02-.34.05-.05.2-.08.26-.04.05.04.08.19.04.26-.03.06-.16.07-.32.13Z"/><path class="cls-7" d="M169.89,216.72c0-.17-.02-.29.02-.35.04-.05.21-.08.24-.04.06.06.09.2.06.27-.03.06-.16.07-.33.12Z"/><path class="cls-7" d="M168.34,216.38c0,.17.02.3-.03.35-.05.06-.18.04-.27.06-.01-.09-.06-.21-.03-.28.03-.06.16-.07.33-.13Z"/><path class="cls-7" d="M173.7,205.44c0-.14-.02-.26.02-.29.06-.05.18-.03.27-.04,0,.09.04.2,0,.27-.02.05-.16.04-.29.06Z"/><path class="cls-7" d="M177.61,207.09c-.14-.02-.27,0-.31-.04-.05-.06-.02-.18-.02-.27.09,0,.2-.03.25.01.05.04.05.16.08.3Z"/><path class="cls-7" d="M169.56,213.31c.13,0,.24-.03.28,0,.05.05.05.16.07.24-.09,0-.18.04-.25.01-.05-.02-.05-.13-.1-.26Z"/><path class="cls-7" d="M171.24,212.1c.13,0,.22-.02.28.01.04.02.05.17.02.19-.06.04-.16.06-.22.04-.04-.01-.05-.12-.08-.24Z"/></g></g></svg>