<?xml version="1.0" encoding="UTF-8"?><svg id="bateau_06" xmlns="http://www.w3.org/2000/svg" xmlns:xlink="http://www.w3.org/1999/xlink" viewBox="0 0 300 300"><defs><style>.cls-1{fill:none;stroke:#42496f;stroke-linecap:round;stroke-linejoin:round;stroke-width:.61px;}.cls-2{filter:url(#drop-shadow-2);}.cls-3{fill:#b1ddea;}.cls-4{fill:#fff;}.cls-5{filter:url(#drop-shadow-1);}.cls-6{fill:#9bc8ec;}.cls-7{fill:#42496f;}.cls-8{fill:#336a9b;}</style><filter id="drop-shadow-1" x="203.64" y="176.85" width="91.63" height="44.8" filterUnits="userSpaceOnUse"><feOffset dx="-1.22" dy="0"/><feGaussianBlur result="blur" stdDeviation="0"/><feFlood flood-color="#42496f" flood-opacity="1"/><feComposite in2="blur" operator="in"/><feComposite in="SourceGraphic"/></filter><filter id="drop-shadow-2" x="203.64" y="176.85" width="78.7" height="53.27" filterUnits="userSpaceOnUse"><feOffset dx="-1.22" dy="0"/><feGaussianBlur result="blur-2" stdDeviation="0"/><feFlood flood-color="#42496f" flood-opacity="1"/><feComposite in2="blur-2" operator="in"/><feComposite in="SourceGraphic"/></filter></defs><g class="cls-5"><path class="cls-8" d="M276.87,203s4.24,7.37,1.97,13.09l-6.17-7.43s.87-.57,0-2.41l4.2-3.26Z"/><path class="cls-3" d="M287.6,195.33c-1.55-5.73-10.25-9.18-19.09-5.34-.75.33-1.61.27-2.34-.09-3.85-1.87-9.23-2.82-13.08-.75-.88.47-.95,1.72-.12,2.28,1.46,1,3.67,2.6,5.52,4.21.86.75,1.05,2.02.4,2.95-5.92,8.58-10.04,20.5-10.04,20.5l7.96,2.56s14.92-15.24,20.88-17.48c5.96-2.24,10.62-1.43,11.94-2.2,1.32-.76-4.38-1.35-8.67-.66,0,0,3.89-2.24,12.12-2.44,3.27-.08,3.89-3.73-5.49-3.55Z"/><circle class="cls-7" cx="280.59" cy="200.63" r="1.75"/><line class="cls-1" x1="205.16" y1="177.16" x2="280.59" y2="200.63"/><path class="cls-3" d="M271.33,207.07c.32,5.43-1.52,10.87-5.6,12.1v-8.5s1.11-.18.99-1.65l4.61-1.95Z"/><line class="cls-1" x1="283.49" y1="194.76" x2="283.89" y2="195.98"/><line class="cls-1" x1="285.84" y1="194.58" x2="286.16" y2="195.71"/></g><path class="cls-4" d="M269.05,214.96c-.6-1.22-1.43-2.47-2.73-2.86-1.13-.34-2.56.41-2.74,1.48-.1-1.37-.83-2.66-1.7-3.75-.37-.47-.8-.93-1.35-1.15-.56-.22-1.29-.12-1.63.38-.69-2.07-1.64-4.14-3.28-5.58-1.64-1.44-4.12-2.1-6.07-1.11-2.52,1.28-3.17,4.65-2.67,7.44.5,2.78,1.81,5.4,2.05,8.21-2-2.53-5.56-3.7-8.68-2.85-.53.15-1.1.39-1.34.89-.2.43-.11.94.03,1.39.53,1.82,1.62,3.48,3.08,4.69l29.31,1.39c-.18-2.96-.96-5.88-2.28-8.54Z"/><path class="cls-4" d="M243.15,202.09c.37-.07.62.22.63.46.01.28-.18.52-.45.55-.28.03-.53-.17-.56-.46,0-.05,0-.09,0-.14-.03-.39,0-.41.39-.41Z"/><path class="cls-4" d="M240.34,209.58c0-.25.19-.46.44-.47.27-.01.48.19.48.45,0,.25-.2.46-.45.46-.25,0-.46-.2-.47-.45Z"/><path class="cls-4" d="M245.4,207.4c0-.21.13-.34.37-.35.23,0,.42.16.43.39,0,.22-.17.39-.39.39-.23,0-.4-.18-.41-.44Z"/><path class="cls-4" d="M247.65,205.65c0,.22-.17.38-.38.38-.21,0-.38-.18-.37-.39,0-.23.17-.41.38-.41.21,0,.37.18.37.42Z"/><path class="cls-4" d="M242.11,205.08c0-.21.16-.39.37-.39.21,0,.39.16.39.37,0,.21-.16.39-.37.39-.22,0-.39-.15-.39-.37Z"/><path class="cls-4" d="M246.51,200.87c0-.2.18-.36.38-.35.19,0,.35.17.35.36,0,.21-.16.36-.37.36-.2,0-.36-.17-.36-.37Z"/><path class="cls-4" d="M242.05,211.42c-.2,0-.35-.16-.35-.36,0-.21.16-.37.37-.36.2,0,.35.16.35.36,0,.21-.16.36-.37.36Z"/><path class="cls-4" d="M247.49,202.85c0,.19-.15.33-.32.32-.18,0-.34-.17-.33-.35,0-.18.14-.32.32-.32.19,0,.33.15.33.34Z"/><path class="cls-4" d="M238.78,208.69c0-.05,0-.11,0-.16.02-.16.12-.25.28-.23.17.02.24.13.23.29,0,.08-.04.16-.04.25-.01.15-.08.25-.24.24-.16,0-.22-.12-.21-.27,0-.04,0-.08,0-.11h0Z"/><path class="cls-4" d="M247.54,209c0,.18-.13.33-.3.34-.17,0-.34-.16-.34-.34,0-.17.15-.32.32-.32.17,0,.32.15.32.33Z"/><path class="cls-4" d="M237.99,202.9c-.2,0-.35-.11-.36-.28-.01-.16.13-.31.3-.32.17,0,.42.23.42.4,0,.13-.1.19-.36.2Z"/><path class="cls-4" d="M239.95,201.31c0,.18-.15.32-.34.31-.19-.01-.29-.13-.3-.31,0-.18.14-.32.32-.32.18,0,.32.15.32.33Z"/><path class="cls-4" d="M236.95,205.54c0-.17.17-.31.34-.31.18,0,.3.14.3.32,0,.18-.16.32-.34.31-.17,0-.31-.16-.3-.32Z"/><path class="cls-4" d="M241,207.69c-.17,0-.31-.14-.32-.3,0-.17.15-.32.33-.31.17,0,.31.15.3.31,0,.16-.15.31-.32.31Z"/><path class="cls-4" d="M240.86,203.58c.15.02.25.11.25.28,0,.16-.14.3-.29.29-.17-.01-.27-.11-.28-.28,0-.16.14-.29.32-.29Z"/><path class="cls-4" d="M243.83,209.95c.07.1.19.19.21.3.03.16-.09.26-.25.26-.16,0-.28-.1-.27-.25.01-.11.13-.2.2-.3h.11Z"/><path class="cls-4" d="M244.71,205.47c-.12-.14-.22-.21-.25-.31-.01-.04.12-.17.2-.18.14-.02.24.08.21.23-.01.07-.07.13-.16.26Z"/><path class="cls-4" d="M245.42,208.38c-.13.09-.21.18-.28.17-.07,0-.13-.11-.19-.17.06-.06.12-.17.19-.17.07,0,.14.08.28.17Z"/><path class="cls-4" d="M242.69,208.6c.12-.08.19-.17.25-.16.06,0,.12.1.18.15-.06.06-.11.16-.18.18-.05.01-.13-.08-.25-.17Z"/><path class="cls-4" d="M237.91,209.77c.13-.09.2-.18.26-.17.07.01.15.1.16.17,0,.04-.1.15-.15.15-.07,0-.14-.07-.27-.16Z"/><path class="cls-4" d="M240.21,206.84c-.08-.13-.16-.2-.16-.26,0-.06.11-.12.16-.17.06.06.15.11.16.18,0,.06-.08.13-.17.25Z"/><path class="cls-4" d="M239.87,205.35c-.08-.11-.16-.17-.16-.23,0-.06.09-.15.14-.15.05,0,.14.08.15.14,0,.05-.07.12-.14.23Z"/><path class="cls-4" d="M245.4,210.17c-.08-.11-.15-.17-.15-.23,0-.05.09-.15.13-.14.07.01.15.08.17.14.01.05-.07.12-.15.23Z"/><path class="cls-4" d="M244.25,210.7c.08.11.16.18.15.23,0,.06-.09.11-.15.17-.05-.05-.14-.1-.15-.16,0-.06.07-.12.15-.24Z"/><path class="cls-4" d="M242.4,201.17c-.06-.09-.14-.15-.13-.2.02-.06.1-.1.15-.16.05.06.12.11.13.17,0,.04-.08.1-.15.18Z"/><path class="cls-4" d="M245.67,200.34c-.1.06-.17.13-.21.12-.06-.02-.1-.1-.15-.16.06-.04.11-.11.17-.11.05,0,.11.08.19.15Z"/><path class="cls-4" d="M243.55,208.16c.08-.07.14-.14.18-.13.06.01.11.08.16.12-.05.05-.1.12-.15.13-.04,0-.1-.06-.19-.12Z"/><path class="cls-4" d="M244.03,206.59c.08-.06.13-.12.18-.13.03,0,.11.08.11.11-.02.05-.07.11-.12.13-.03.01-.09-.05-.17-.11Z"/><path class="cls-4" d="M260.27,211.44c-.46.64-1.27.54-1.62.2-.42-.41-.47-1.06-.09-1.49.39-.45,1.06-.5,1.52-.1.07.06.14.14.21.2.61.55.61.63-.01,1.19Z"/><path class="cls-4" d="M253.83,195.84c.37.38.37.98,0,1.36-.39.4-1.01.4-1.39,0-.36-.38-.34-1,.03-1.37.37-.37,1-.36,1.36.01Z"/><path class="cls-4" d="M249.16,206.49c.31.32.28.71-.08,1.07-.34.35-.89.36-1.21.02-.32-.33-.3-.85.04-1.17.35-.34.88-.3,1.25.09Z"/><path class="cls-4" d="M248.21,212.42c-.31-.34-.3-.83.03-1.13.33-.3.83-.27,1.14.06.33.36.33.88,0,1.18-.33.3-.84.25-1.17-.11Z"/><path class="cls-4" d="M257.57,205.32c.31.32.31.83,0,1.14-.31.31-.83.31-1.14-.01-.31-.33-.31-.82,0-1.14.32-.32.82-.32,1.13,0Z"/><path class="cls-4" d="M256.84,218.15c.28.31.25.81-.08,1.09-.31.27-.77.24-1.06-.05-.3-.31-.28-.79.04-1.09.32-.29.8-.27,1.09.05Z"/><path class="cls-4" d="M248.53,195.47c.31-.28.76-.26,1.05.05.3.32.28.8-.05,1.08-.31.27-.77.25-1.05-.05-.3-.32-.27-.79.05-1.09Z"/><path class="cls-4" d="M252.48,216.51c-.26-.29-.25-.72.03-.96.29-.25.76-.22,1.02.06.26.28.24.69-.04.96-.29.27-.72.25-1-.06Z"/><path class="cls-4" d="M257.49,194.98c.08.08.16.16.23.25.2.28.18.55-.09.76-.28.21-.55.14-.76-.12-.11-.14-.18-.31-.29-.44-.2-.25-.23-.51.03-.72.26-.22.51-.13.72.11.05.06.11.12.16.18,0,0,0,0,0,0Z"/><path class="cls-4" d="M243.56,207.11c-.27-.27-.28-.71-.02-.96.26-.25.75-.24,1.01.04.25.26.23.72-.03.96-.27.25-.7.23-.96-.04Z"/><path class="cls-4" d="M267.05,202.76c.3-.3.69-.33.95-.08.25.23.25.67,0,.92-.25.26-.97.25-1.21-.01-.19-.21-.12-.45.26-.82Z"/><path class="cls-4" d="M266.33,208.03c-.25-.28-.22-.72.08-.96.31-.25.63-.23.92.05.27.27.25.69-.04.95-.29.26-.71.24-.96-.05Z"/><path class="cls-4" d="M264.86,197.19c.23.27.19.73-.09.97-.29.25-.67.22-.91-.06-.24-.29-.21-.72.07-.96.27-.23.7-.2.93.06Z"/><path class="cls-4" d="M255.52,199.71c.26-.24.68-.23.93.01.26.26.23.71-.05.96-.27.24-.69.21-.92-.05-.23-.26-.21-.68.05-.92Z"/><path class="cls-4" d="M261.65,205.85c-.25.18-.54.19-.79-.07-.24-.24-.22-.67.03-.87.28-.22.58-.21.83.04.24.23.21.65-.07.9Z"/><path class="cls-4" d="M247.91,200.3c-.25-.05-.56-.02-.75-.16-.28-.2-.22-.53.01-.77.24-.24.58-.25.77,0,.14.19.09.5.13.76l-.17.16Z"/><path class="cls-4" d="M252.99,208.47c.4.04.65,0,.84.11.07.04.05.44-.05.57-.19.23-.48.21-.66-.05-.08-.12-.07-.3-.13-.63Z"/><path class="cls-4" d="M247.7,205.01c.08-.33.06-.58.17-.67.12-.09.36-.02.54-.02,0,.19.05.43-.04.54-.09.11-.34.08-.68.14Z"/><path class="cls-4" d="M251.61,200.74c-.07.3-.05.54-.16.62-.11.08-.33.02-.5.03,0-.18-.06-.41.03-.54.06-.09.32-.06.63-.11Z"/><path class="cls-4" d="M257.29,192.06c-.07.32-.06.57-.16.64-.12.08-.37.05-.5-.03-.07-.05-.06-.36.02-.45.1-.1.32-.08.64-.15Z"/><path class="cls-4" d="M257.97,199.88c.31.08.54.07.61.18.08.11,0,.33,0,.5-.17,0-.4.04-.5-.04-.1-.08-.06-.32-.11-.63Z"/><path class="cls-4" d="M260.63,201.69c.28.05.49.03.56.12.07.1.07.36,0,.44-.08.08-.34.08-.44,0-.09-.07-.07-.29-.12-.56Z"/><path class="cls-4" d="M245.17,202.22c.28.06.48.05.56.14.07.08.07.37,0,.41-.12.08-.35.1-.46.02-.09-.06-.06-.29-.11-.57Z"/><path class="cls-4" d="M246.17,199.75c-.28-.07-.5-.05-.57-.15-.08-.1-.02-.31-.02-.47.16,0,.37-.04.46.04.09.07.07.29.12.58Z"/><path class="cls-4" d="M262.75,211.77c.22.05.44.04.48.12.06.12,0,.3,0,.45-.16-.02-.35.01-.45-.07-.07-.05-.02-.27-.02-.5Z"/><path class="cls-4" d="M258.9,217.76c.07-.24.07-.45.16-.49.12-.06.3.02.46.04-.03.14,0,.34-.09.41-.09.08-.28.03-.52.05Z"/><path class="cls-4" d="M250.91,202.66c-.04.22-.01.41-.09.46-.1.07-.28.03-.42.04.01-.14-.02-.32.05-.42.05-.07.24-.05.46-.08Z"/><path class="cls-4" d="M252.43,205.77c-.04.21-.03.37-.1.46-.04.05-.3.04-.32-.01-.05-.11-.05-.28,0-.38.03-.06.21-.04.42-.07Z"/><g class="cls-2"><path class="cls-3" d="M282.32,224.55c-.41-1.72-7.55-1.64-7.55-1.64-1.8-4.17-5.73-8.52-13.7-10.31-1.24-.28-2.26-1.12-2.83-2.25-2.54-5.07-7.66-9.02-12.79-9.29-1.51-.08-2.55,1.5-1.94,2.89,1.02,2.34,1.83,4.9,2.37,6.83.31,1.08-.25,2.2-1.28,2.63-10.85,4.52-19.27,16.73-19.27,16.73l45-.33c6.16-3.45,12.4-3.53,11.99-5.26Z"/><circle class="cls-7" cx="267.62" cy="226.6" r="1.89"/><line class="cls-1" x1="268.98" y1="220.71" x2="269.38" y2="221.93"/><line class="cls-1" x1="271.33" y1="220.53" x2="271.65" y2="221.66"/><line class="cls-1" x1="267.62" y1="226.6" x2="205.16" y2="177.16"/></g><path class="cls-4" d="M216.99,231.27c8.67,0,51.82-.48,51.82-.48-3.73-4.89-8.07-9.39-13.22-12.77-1.16-.76-2.58-1.49-3.88-1.02-.61.22-.99.84-1.11,1.47-2.37-4.11-6.55-7.04-10.85-9.16-1.41-.7-3.05-1.34-4.52-.77-.63.24-1.1.82-1.33,1.46-.24-.24-.51-.46-.77-.64-2.51-1.72-5.94-3.3-8.38-1.5-1.85,1.37-2.1,4.18-1.17,6.29.92,2.11,2.72,3.69,4.47,5.19-1.69-1.16-3.93-1.9-5.76-.99-1.83.91-1.67,3.84-.45,4.89-1.39-.63-3.39.05-3.77,1.67-.38,1.62.39,3.27,1.15,4.75-.28.35-1.48,1.53-2.22,1.61Z"/><path class="cls-6" d="M248.08,221.35c-2.05-.41-4.23-.67-6.17.09-3.31,1.29-4.92,5.74-3.2,8.85-1.75-3.12-4.87-5.43-8.37-6.19-.9-.19-1.96-.24-2.6.42-.95,1-.19,2.62.59,3.76-.99-.51-2.85-.96-3.77-.19-1.01.84.98,2.26,2.24,3.08,1.26.82,2.8,1.03,4.3,1.2,12.56,1.43,25.29,1.3,37.82-.39l.17-.33c-5.96-5.16-13.27-8.75-21-10.3Z"/><path class="cls-4" d="M216.77,218.2c.7-.19,1.23.35,1.28.8.06.53-.28,1.03-.8,1.12-.54.09-1.05-.26-1.15-.81-.02-.09-.02-.18-.03-.27-.12-.75-.07-.8.7-.85Z"/><path class="cls-4" d="M212.34,233.16c-.05-.49.31-.92.8-.98.52-.06.96.3.99.81.03.48-.34.92-.82.96-.48.05-.93-.32-.97-.8Z"/><path class="cls-4" d="M221.88,228.22c-.04-.41.21-.67.68-.72.45-.05.84.26.88.69.04.42-.28.79-.71.82-.45.04-.8-.29-.85-.79Z"/><path class="cls-4" d="M226.01,224.51c.03.42-.27.77-.68.79-.41.02-.75-.29-.78-.7-.03-.45.27-.82.68-.85.41-.02.75.31.78.76Z"/><path class="cls-4" d="M215.15,224.17c-.04-.41.26-.78.67-.82.41-.04.77.26.81.67.04.42-.25.77-.67.81-.42.04-.77-.25-.81-.67Z"/><path class="cls-4" d="M223.14,215.38c-.02-.39.29-.73.69-.74.38-.01.7.28.73.65.03.4-.26.73-.66.76-.4.02-.73-.28-.75-.67Z"/><path class="cls-4" d="M215.92,236.5c-.38.02-.7-.26-.73-.64-.03-.4.26-.73.67-.75.38-.02.7.27.73.65.03.4-.26.73-.67.75Z"/><path class="cls-4" d="M225.31,219.09c.02.36-.24.66-.58.67-.35,0-.68-.29-.7-.63-.02-.36.23-.64.59-.66.37-.02.66.24.68.62Z"/><path class="cls-4" d="M209.2,231.65c0-.1-.03-.21-.02-.31.02-.32.19-.5.51-.5.32,0,.48.22.48.53,0,.16-.05.32-.05.49,0,.3-.13.5-.44.51-.32,0-.44-.2-.45-.49,0-.07-.01-.15-.02-.22,0,0,0,0-.01,0Z"/><path class="cls-4" d="M226.27,231.03c.03.35-.21.67-.54.7-.34.03-.68-.26-.71-.61-.03-.33.25-.65.58-.67.34-.02.63.24.67.59Z"/><path class="cls-4" d="M206.85,220.5c-.39.04-.69-.16-.73-.49-.04-.31.21-.63.53-.66.33-.04.84.39.87.72.02.26-.18.39-.67.44Z"/><path class="cls-4" d="M210.43,217.12c.02.35-.26.64-.61.64-.37,0-.59-.2-.63-.57-.04-.35.22-.64.58-.66.36-.02.65.24.66.59Z"/><path class="cls-4" d="M205.19,225.77c0-.33.28-.63.63-.65.35-.01.61.23.62.57,0,.35-.27.64-.61.65-.33,0-.62-.26-.63-.58Z"/><path class="cls-4" d="M213.37,229.39c-.32.02-.63-.23-.66-.55-.03-.34.25-.64.59-.66.33-.01.62.25.64.57.02.32-.25.61-.57.64Z"/><path class="cls-4" d="M212.53,221.41c.29.02.5.18.53.51.03.31-.23.61-.53.61-.33,0-.53-.19-.58-.51-.04-.3.23-.59.57-.61Z"/><path class="cls-4" d="M219.18,233.39c.16.18.39.34.45.55.09.31-.15.51-.45.54-.32.03-.57-.16-.55-.46.01-.21.22-.41.34-.62l.21-.02Z"/><path class="cls-4" d="M220.27,224.57c-.26-.26-.47-.39-.54-.57-.03-.07.22-.35.37-.38.27-.06.47.12.44.42-.01.13-.13.25-.27.52Z"/><path class="cls-4" d="M222.07,230.13c-.24.19-.38.38-.51.38-.14,0-.27-.2-.4-.3.11-.13.21-.34.35-.37.13-.02.29.14.57.29Z"/><path class="cls-4" d="M216.78,230.92c.23-.18.35-.35.47-.35.13,0,.25.17.38.27-.11.13-.2.33-.33.37-.1.03-.26-.14-.51-.29Z"/><path class="cls-4" d="M207.65,233.86c.24-.19.37-.37.49-.36.13.01.3.18.34.31.02.08-.17.3-.28.31-.13.02-.28-.12-.55-.26Z"/><path class="cls-4" d="M211.7,227.84c-.18-.24-.35-.37-.34-.48,0-.13.19-.24.29-.36.12.11.31.2.34.32.02.11-.14.26-.29.52Z"/><path class="cls-4" d="M210.84,225c-.17-.2-.34-.31-.33-.42,0-.11.16-.3.26-.31.1,0,.29.15.32.26.02.1-.12.24-.24.47Z"/><path class="cls-4" d="M222.26,233.6c-.17-.2-.32-.31-.33-.43,0-.1.16-.3.24-.3.13.01.31.13.34.25.03.1-.12.24-.26.48Z"/><path class="cls-4" d="M220.11,234.8c.17.21.33.33.32.44,0,.12-.17.23-.26.34-.11-.1-.29-.18-.31-.3-.02-.11.12-.25.25-.48Z"/><path class="cls-4" d="M215.18,216.53c-.13-.16-.29-.28-.28-.36.02-.12.17-.22.27-.32.1.1.26.19.28.31.02.08-.14.2-.28.37Z"/><path class="cls-4" d="M221.43,214.46c-.19.13-.31.28-.4.26-.12-.03-.21-.19-.31-.29.1-.09.2-.24.31-.24.11,0,.22.14.4.27Z"/><path class="cls-4" d="M218.39,229.96c.15-.14.25-.29.33-.28.12.01.22.14.33.22-.09.1-.17.24-.28.27-.08.02-.2-.1-.38-.21Z"/><path class="cls-4" d="M219.11,226.83c.15-.13.24-.25.34-.27.06-.01.23.15.22.2-.02.11-.12.23-.22.27-.06.02-.18-.09-.34-.19Z"/><path class="cls-4" d="M219.3,205.09c.43-.12.76.22.79.49.04.33-.17.64-.49.69-.33.06-.65-.16-.71-.5,0-.05-.01-.11-.02-.16-.07-.46-.04-.5.43-.52Z"/><path class="cls-4" d="M216.58,214.29c-.03-.3.19-.56.49-.6.32-.04.59.19.61.5.02.3-.21.56-.5.59-.3.03-.57-.2-.6-.49Z"/><path class="cls-4" d="M222.44,211.25c-.02-.25.13-.41.42-.45.28-.03.52.16.54.43.02.26-.17.48-.44.51-.28.02-.5-.18-.52-.49Z"/><path class="cls-4" d="M224.99,208.97c.02.26-.17.47-.42.49-.25.01-.46-.18-.48-.43-.02-.28.17-.51.42-.52.25-.01.46.19.48.47Z"/><path class="cls-4" d="M218.31,208.76c-.02-.25.16-.48.41-.5.25-.03.48.16.5.41.02.26-.16.47-.41.5-.26.03-.47-.15-.5-.41Z"/><path class="cls-4" d="M223.22,203.35c-.01-.24.18-.45.42-.45.23,0,.43.17.45.4.02.25-.16.45-.41.47-.24.01-.45-.17-.46-.41Z"/><path class="cls-4" d="M218.78,216.35c-.24.01-.43-.16-.45-.4-.02-.25.16-.45.41-.46.24-.01.43.16.45.4.02.25-.16.45-.41.46Z"/><path class="cls-4" d="M224.56,205.63c.01.22-.15.41-.35.41-.22,0-.42-.18-.43-.39-.01-.22.14-.39.36-.41.23-.01.41.15.42.38Z"/><path class="cls-4" d="M214.64,213.36c0-.06-.02-.13-.01-.19.01-.2.12-.31.31-.3.2,0,.29.13.3.32,0,.1-.03.2-.03.3,0,.18-.08.31-.27.31-.19,0-.27-.12-.28-.3,0-.05,0-.09,0-.14h0Z"/><path class="cls-4" d="M225.14,212.98c.02.22-.13.41-.34.43-.21.02-.42-.16-.43-.38-.02-.2.16-.4.36-.41.21-.01.39.15.41.36Z"/><path class="cls-4" d="M213.2,206.5c-.24.03-.42-.1-.45-.3-.03-.19.13-.38.33-.41.2-.02.52.24.53.44.01.16-.11.24-.41.27Z"/><path class="cls-4" d="M215.4,204.43c0,.21-.16.4-.38.39-.23,0-.36-.12-.39-.35-.02-.22.14-.4.36-.41.22-.01.4.15.41.36Z"/><path class="cls-4" d="M212.18,209.75c0-.21.17-.39.39-.4.22,0,.38.14.38.35,0,.21-.17.4-.38.4-.2,0-.38-.16-.39-.36Z"/><path class="cls-4" d="M217.21,211.97c-.2.01-.39-.14-.4-.34-.02-.21.15-.4.37-.4.2,0,.38.15.39.35,0,.2-.15.38-.35.39Z"/><path class="cls-4" d="M216.69,207.06c.18.01.31.11.33.31.02.19-.14.37-.33.37-.2,0-.33-.11-.35-.31-.02-.19.14-.36.35-.37Z"/><path class="cls-4" d="M220.78,214.43c.1.11.24.21.28.34.05.19-.09.31-.28.33-.19.02-.35-.1-.34-.28,0-.13.14-.25.21-.38h.13Z"/><path class="cls-4" d="M221.46,209c-.16-.16-.29-.24-.33-.35-.02-.04.13-.21.23-.23.17-.03.29.08.27.26,0,.08-.08.16-.17.32Z"/><path class="cls-4" d="M222.56,212.42c-.15.12-.23.24-.31.23-.08,0-.16-.12-.25-.19.07-.08.13-.21.21-.23.08-.02.18.09.35.18Z"/><path class="cls-4" d="M219.31,212.91c.14-.11.21-.22.29-.22.08,0,.15.11.23.17-.07.08-.12.2-.21.23-.06.02-.16-.09-.32-.18Z"/><path class="cls-4" d="M213.69,214.72c.15-.12.23-.23.3-.22.08,0,.18.11.21.19.01.05-.1.18-.17.19-.08.01-.17-.08-.34-.16Z"/><path class="cls-4" d="M216.19,211.02c-.11-.15-.21-.23-.21-.3,0-.08.12-.15.18-.22.07.07.19.12.21.2.01.07-.09.16-.18.32Z"/><path class="cls-4" d="M215.65,209.27c-.1-.12-.21-.19-.21-.26,0-.07.1-.19.16-.19.06,0,.18.09.19.16.01.06-.07.15-.15.29Z"/><path class="cls-4" d="M222.68,214.56c-.1-.13-.2-.19-.2-.26,0-.06.1-.19.15-.18.08,0,.19.08.21.15.02.06-.08.15-.16.29Z"/><path class="cls-4" d="M221.36,215.3c.1.13.2.2.2.27,0,.07-.1.14-.16.21-.07-.06-.18-.11-.19-.18-.01-.07.07-.15.15-.3Z"/><path class="cls-4" d="M218.32,204.06c-.08-.1-.18-.17-.17-.22.01-.07.11-.13.17-.2.06.06.16.12.18.19.01.05-.09.12-.17.23Z"/><path class="cls-4" d="M222.16,202.78c-.11.08-.19.17-.25.16-.07-.02-.13-.12-.19-.18.06-.05.12-.15.19-.15.06,0,.13.08.25.17Z"/><path class="cls-4" d="M220.3,212.32c.1-.09.15-.18.2-.17.07,0,.14.09.2.13-.06.06-.1.15-.17.17-.05.01-.12-.06-.23-.13Z"/><path class="cls-4" d="M220.74,210.39c.09-.08.14-.16.21-.17.04,0,.14.09.14.12-.02.06-.08.14-.14.17-.04.01-.11-.06-.21-.12Z"/><path class="cls-4" d="M240.92,202.74c.72.3.81,1.11.56,1.53-.3.5-.93.69-1.42.43-.53-.28-.72-.92-.45-1.45.04-.09.1-.16.15-.25.4-.71.47-.73,1.16-.26Z"/><path class="cls-4" d="M227.25,212.53c.28-.45.87-.58,1.32-.3.48.29.62.89.31,1.35-.29.43-.89.56-1.33.28-.44-.28-.58-.89-.3-1.33Z"/><path class="cls-4" d="M238.64,214.65c.24-.37.62-.43,1.05-.17.42.25.55.78.29,1.18-.25.38-.76.49-1.15.23-.41-.27-.49-.78-.2-1.24Z"/><path class="cls-4" d="M244.61,214.23c-.26.38-.74.47-1.1.22-.36-.25-.45-.74-.2-1.12.27-.4.78-.52,1.14-.27.37.25.44.76.16,1.16Z"/><path class="cls-4" d="M235.6,206.75c.24-.37.74-.49,1.11-.26.38.23.49.73.24,1.11-.25.38-.73.49-1.11.25-.38-.24-.49-.72-.25-1.1Z"/><path class="cls-4" d="M248.21,204.55c.24-.35.73-.42,1.08-.17.33.24.41.7.19,1.04-.24.36-.7.45-1.07.2-.35-.24-.44-.72-.2-1.07Z"/><path class="cls-4" d="M228.08,217.76c-.34-.24-.42-.68-.19-1.03.24-.36.71-.45,1.06-.2.34.24.42.69.19,1.03-.24.36-.71.45-1.07.19Z"/><path class="cls-4" d="M247.61,209.15c-.22.32-.64.41-.93.19-.3-.23-.39-.69-.17-1,.22-.32.62-.39.94-.17.33.22.4.65.17.98Z"/><path class="cls-4" d="M225.57,209.17c.06-.09.12-.19.19-.28.23-.26.5-.3.76-.08.27.22.26.5.06.77-.11.14-.26.24-.37.38-.2.25-.44.34-.71.14-.27-.2-.24-.46-.06-.72.05-.07.09-.13.13-.2,0,0,0,0-.01,0Z"/><path class="cls-4" d="M240.51,219.95c-.2.32-.62.43-.93.23-.31-.2-.4-.67-.19-.99.19-.3.65-.39.94-.19.3.21.38.62.18.94Z"/><path class="cls-4" d="M230.96,198.13c-.36-.22-.48-.59-.3-.91.17-.3.59-.4.89-.21.31.19.46.89.26,1.18-.16.23-.41.21-.86-.07Z"/><path class="cls-4" d="M236.24,197.62c-.22.31-.65.38-.95.14-.31-.25-.37-.56-.16-.9.2-.33.62-.4.93-.18.32.22.39.63.17.94Z"/><path class="cls-4" d="M226.05,201.52c.21-.29.66-.35.96-.13.31.22.37.6.15.9-.22.3-.65.37-.95.15-.28-.21-.35-.64-.15-.91Z"/><path class="cls-4" d="M230.62,210.01c-.29-.19-.38-.61-.2-.9.19-.31.64-.39.94-.17.29.21.36.62.16.91-.2.28-.62.36-.91.16Z"/><path class="cls-4" d="M235.19,202.67c.23.21.31.48.11.79-.18.28-.6.37-.85.17-.28-.22-.33-.51-.15-.82.17-.28.59-.35.89-.14Z"/><path class="cls-4" d="M232.91,217.26c.01.26.11.55.02.77-.13.32-.47.34-.75.16-.29-.18-.38-.51-.17-.75.15-.17.46-.2.7-.3l.19.13Z"/><path class="cls-4" d="M239.69,210.48c-.05-.39-.14-.64-.08-.84.02-.08.41-.15.56-.08.27.13.32.42.1.65-.1.1-.28.13-.58.26Z"/><path class="cls-4" d="M237.53,216.4c-.34,0-.58.07-.68-.02-.11-.1-.1-.34-.14-.53.18-.04.41-.15.54-.08.13.06.16.32.29.63Z"/><path class="cls-4" d="M232.5,213.57c.31,0,.53-.07.63.01.11.09.1.31.14.48-.18.04-.39.15-.53.09-.11-.04-.13-.29-.25-.59Z"/><path class="cls-4" d="M222.79,210.03c.33,0,.56-.07.65.02.1.09.14.35.08.49-.03.08-.34.15-.44.08-.12-.07-.15-.29-.29-.59Z"/><path class="cls-4" d="M230.23,207.59c0-.32-.05-.54.03-.64.09-.1.32-.08.49-.11.03.17.13.38.07.5-.06.11-.29.13-.59.25Z"/><path class="cls-4" d="M231.38,204.6c-.01-.28-.08-.49,0-.58.08-.09.33-.15.43-.09.09.06.15.32.1.43-.05.1-.26.13-.52.24Z"/><path class="cls-4" d="M235.4,219.49c0-.28-.06-.48,0-.58.06-.09.34-.15.4-.1.1.1.17.32.13.44-.04.1-.27.13-.53.24Z"/><path class="cls-4" d="M232.77,219.08c0,.29.06.5-.01.58-.08.1-.29.09-.45.12-.03-.16-.13-.34-.07-.46.05-.11.27-.13.53-.25Z"/><path class="cls-4" d="M240.68,200.26c0-.23-.06-.43,0-.49.1-.09.29-.07.44-.1.02.15.09.33.03.46-.04.08-.26.08-.48.13Z"/><path class="cls-4" d="M247.37,202.64c-.24-.01-.45.03-.52-.04-.08-.1-.05-.3-.07-.45.14,0,.33-.07.42,0,.09.07.09.26.16.49Z"/><path class="cls-4" d="M234.52,213.82c.22-.02.41-.08.47-.02.09.09.1.26.14.4-.14.02-.3.09-.42.04-.08-.03-.1-.22-.19-.43Z"/><path class="cls-4" d="M237.2,211.64c.22-.01.37-.06.47,0,.06.03.1.28.06.31-.09.07-.26.11-.37.08-.07-.02-.09-.2-.16-.39Z"/><path class="cls-4" d="M252.09,218.39c-.09.3-.42.36-.59.28-.21-.1-.31-.35-.22-.55.09-.22.34-.32.56-.23.04.01.07.04.1.05.3.13.31.16.14.45Z"/><path class="cls-4" d="M247.69,213.27c.19.1.26.33.17.52-.1.2-.34.28-.53.17-.18-.1-.25-.34-.16-.52.1-.19.33-.26.52-.17Z"/><path class="cls-4" d="M247.24,217.9c.16.08.19.23.1.42-.09.18-.29.25-.46.16-.16-.09-.22-.29-.13-.45.09-.17.3-.22.49-.12Z"/><path class="cls-4" d="M247.62,220.27c-.16-.09-.22-.28-.13-.43.09-.15.28-.21.44-.12.17.09.24.29.15.45-.09.16-.29.2-.46.11Z"/><path class="cls-4" d="M250.3,216.4c.16.08.22.28.14.43-.08.16-.28.22-.43.14-.16-.08-.22-.27-.14-.43.08-.16.27-.22.43-.14Z"/><path class="cls-4" d="M251.62,221.37c.15.08.2.28.11.42-.08.14-.26.19-.41.11-.15-.08-.21-.27-.12-.42.08-.15.27-.2.42-.12Z"/><path class="cls-4" d="M245.63,213.79c.08-.14.26-.19.4-.11.15.08.21.27.12.42-.08.14-.26.19-.41.11-.15-.08-.2-.27-.12-.42Z"/><path class="cls-4" d="M249.76,221.29c-.14-.08-.19-.24-.11-.37.08-.13.26-.18.39-.1.13.08.18.23.1.37-.08.14-.24.18-.39.1Z"/><path class="cls-4" d="M248.97,212.48s.08.04.12.07c.11.08.14.19.06.3-.08.12-.19.12-.3.05-.06-.04-.11-.09-.16-.13-.11-.07-.15-.16-.08-.28.07-.12.18-.11.29-.05.03.02.06.03.08.05h0Z"/><path class="cls-4" d="M245.19,218.83c-.14-.07-.19-.23-.13-.36.07-.13.25-.18.39-.11.13.07.18.25.11.37-.07.13-.24.17-.37.1Z"/><path class="cls-4" d="M253.58,214.25c.08-.15.22-.21.35-.15.12.06.18.22.12.35-.06.13-.34.22-.46.15-.1-.05-.1-.16,0-.35Z"/><path class="cls-4" d="M253.97,216.34c-.13-.08-.17-.24-.09-.37.09-.13.21-.17.36-.1.14.07.18.23.1.37-.08.13-.24.18-.37.1Z"/><path class="cls-4" d="M252.05,212.4c.12.07.16.25.09.38-.08.13-.23.17-.35.09-.13-.08-.17-.25-.09-.38.07-.12.24-.16.36-.09Z"/><path class="cls-4" d="M248.82,214.53c.07-.12.23-.17.35-.11.13.07.18.24.1.37-.07.12-.23.17-.36.1-.12-.07-.17-.23-.1-.36Z"/><path class="cls-4" d="M251.91,216.1c-.07.1-.18.14-.31.07-.12-.06-.17-.23-.1-.34.08-.12.19-.15.32-.09.12.06.16.22.09.35Z"/><path class="cls-4" d="M246,215.7c-.1.01-.22.06-.31.03-.13-.04-.15-.17-.09-.29.06-.12.19-.17.3-.09.07.05.1.18.14.27l-.04.08Z"/><path class="cls-4" d="M248.95,218.17c.16-.03.25-.08.33-.06.03,0,.07.16.05.22-.04.11-.16.14-.26.06-.05-.03-.06-.11-.13-.22Z"/><path class="cls-4" d="M246.5,217.52c-.01-.13-.05-.23-.02-.27.03-.05.13-.05.21-.07.02.07.07.16.05.21-.02.05-.12.07-.24.14Z"/><path class="cls-4" d="M247.46,215.41c.01.12.05.21.02.25-.03.05-.12.05-.19.07-.02-.07-.07-.15-.06-.21.01-.04.11-.06.23-.12Z"/><path class="cls-4" d="M248.53,211.4c.01.13.05.22.02.26-.03.04-.14.07-.19.05-.03-.01-.07-.13-.05-.17.02-.05.11-.07.23-.14Z"/><path class="cls-4" d="M249.77,214.29c.13,0,.21-.04.26,0,.04.03.04.12.06.19-.07.02-.15.07-.2.05-.05-.02-.06-.11-.12-.23Z"/><path class="cls-4" d="M251.01,214.64c.11-.01.19-.05.23-.02.04.03.07.13.05.17-.02.04-.12.07-.17.05-.04-.02-.06-.1-.11-.2Z"/><path class="cls-4" d="M245.19,216.77c.11-.01.19-.04.23-.02.04.02.07.13.05.16-.03.04-.12.08-.17.07-.04-.01-.06-.1-.11-.2Z"/><path class="cls-4" d="M245.27,215.71c-.12.01-.2.04-.23.01-.04-.03-.04-.11-.06-.18.06-.02.13-.06.18-.04.04.02.06.1.12.2Z"/><path class="cls-4" d="M253.07,218.21c.09,0,.17-.04.2-.02.04.04.04.11.05.17-.06.01-.13.05-.18.03-.03-.01-.04-.1-.07-.19Z"/><path class="cls-4" d="M252.35,220.97c0-.1-.03-.18,0-.21.04-.04.12-.03.18-.04,0,.06.04.13.02.17-.02.04-.1.05-.19.08Z"/><path class="cls-4" d="M247.43,216.22c.01.09.05.16.02.19-.03.04-.1.05-.16.07-.01-.06-.05-.12-.03-.17.01-.03.08-.05.16-.09Z"/><path class="cls-4" d="M248.4,217.22c.01.09.04.15.02.19-.01.03-.11.05-.12.03-.03-.03-.05-.1-.05-.14,0-.03.08-.04.15-.08Z"/></svg>