<?xml version="1.0" encoding="UTF-8"?>
<svg xmlns="http://www.w3.org/2000/svg" width="300" height="300" xmlns:xlink="http://www.w3.org/1999/xlink" viewBox="0 0 300 300">
  <defs>
    <clipPath id="b">
      <path d="M27.111,96.934v129.238c1.89.35,3.973.545,6.164.545,5.076,0,9.57-1.043,12.415-2.649.138-.006.275-.012.413-.018,1.532,1.617,3.964,2.668,6.71,2.668s5.18-1.051,6.712-2.67c1.956,1.618,5.059,2.67,8.566,2.67,2.89,0,5.507-.714,7.435-1.87,2.251,1.156,5.308,1.87,8.683,1.87,2.909,0,5.578-.533,7.704-1.418.523.885,1.18,1.418,1.895,1.418.705,0,1.352-.518,1.871-1.38,2.11.862,4.742,1.38,7.607,1.38,3.747,0,7.1-.881,9.394-2.269,1.964,1.388,4.835,2.269,8.044,2.269,2.976,0,5.668-.755,7.61-1.972,2.268,1.217,5.412,1.972,8.888,1.972.154,0,.299-.017.451-.021.308.008.613.021.926.021,5.076,0,9.57-1.043,12.415-2.649.138-.006.275-.012.413-.018,1.532,1.617,3.964,2.668,6.71,2.668s5.18-1.051,6.712-2.67c1.956,1.618,5.059,2.67,8.566,2.67,2.89,0,5.507-.714,7.435-1.87,2.251,1.156,5.308,1.87,8.683,1.87,2.909,0,5.578-.533,7.704-1.418.523.885,1.18,1.418,1.895,1.418.705,0,1.352-.518,1.871-1.38,2.11.862,4.742,1.38,7.607,1.38,3.747,0,7.1-.881,9.394-2.269,1.964,1.388,4.835,2.269,8.044,2.269,2.976,0,5.668-.755,7.61-1.972,2.268,1.217,5.412,1.972,8.888,1.972.622,0,1.226-.036,1.824-.083V96.934H27.111Z" fill="none"/>
    </clipPath>
    <filter id="c" data-name="drop-shadow-4" x="52.732" y="109.093" width="184.187" height="128.783" filterUnits="userSpaceOnUse">
      <feOffset dx="-1.219" dy="0"/>
      <feGaussianBlur result="d" stdDeviation="0"/>
      <feFlood flood-color="#42496f" flood-opacity="1"/>
      <feComposite in2="d" operator="in"/>
      <feComposite in="SourceGraphic"/>
    </filter>
    <clipPath id="e">
      <path d="M205.162,177.16c-.391-17.098.868-25.491-4.578-25.05s-7.899,10.454,0,8.242c0,0,6.034,16.808-10.597,16.808h-121.862c-5.004,0-11.774-35.647,13.54-29.465,0,0,5.887-1.03,2.944-8.242-13.627-1.044-31.58,5.653-26.46,37.707s17.041,55.897,17.041,55.897h148.648v-13.54c-18.676-1.766-26.492-2.208-25.609-8.536.883-6.329,7.405-13.16,6.933-33.82Z" fill="none"/>
    </clipPath>
    <clipPath id="f">
      <path d="M68.502,172.007h121.512c0,10.08-8.183,18.263-18.263,18.263h-84.986c-10.08,0-18.263-8.183-18.263-18.263h0Z" fill="none"/>
    </clipPath>
    <clipPath id="g">
      <path d="M126.772,616.986c-.714.568-1.284,1.023-1.977,1.575-.003-.058.007.152.018.393-3.196-.319-3.327-2.383-.098-2.884,1.266-.458,1.292-1.73,1.796-3.082-1.457.556-2.442.47-3.814.697.252.876.893.851,1.45,1.442-.481.508-1.165.591-1.771.508-.164-1.022-1.028-2.49.117-3.246,1.081-.446-.186-1.686-.567-2.013-.576.277-1.111.961-.617,1.595.308.467.508.864-.116,1.321-1.184,3.272-3.027-.469-4.858-1.096.043-.188.129-.569.249-1.096-1.736,1.039-.908-3.182-2.925-.821-1.624-1.05-2.16-4.844-4.273-4.346-.195.121-.721-.087-.862-.323-.793-2.584-3.2-3.697-4.05-6.08-.648-1.513-1.976-2.377-3.113-3.449-.105-.152-.742-.109-.861.057-.955,1.197-2.936.12-3.038-1.301-.305-.566-1.47-1.131-1.391-1.989-.993-1.138.043-1.066.753-1.648-.713-.298-.871-.891-.862-1.733.182-.805-1.666-2.151-.396-2.576,1.456-.278.308-1.173.293-2.22-.995,1.425-2.019,2.272-3.674,2.052-.749.61-1.209.199-1.709-.265-1.289-1.414-3.222.461-4.368,1.389.096-3.759-4.685.9-6.54,1.179-.045-1.293-1.546-2.313-2.535-1.037-2.249-.607-2.976-3.952-4.684-5.586-.354-1.535-2.399-1.151-2.496-2.62-.174-1.629-2.3-1.873-2.288-3.673-1.441-.59-1.123-2.543-2.161-3.441-1.784-2.289-6.496-5.151-5.755-8.104.894-.917,0-1.194-.607-1.76-.469-1.012-1.005-.044-1.776-.239,1.881-2.059-1.466-2.334,1.303-5.969.307-.896-.85-.648-1.11-.104-.689,1.234-1.677,1.063-2.634.934-.512-.549-.059-1.924-1.332-1.664-.087-.365-.174-.73-.265-1.114-1.241.3-1.93,1.597-.515,2.208-1.318,1.253-3.583,4.501-4.84,1.678-1.488.342-1.344-2.237-2.996-.947-.081-.699-.146-1.267-.22-1.908-.179.118-.405.268-.633.418-.357-.743-.386-1.794-1.555-1.625-.128-.956-.256-1.902-.401-2.984-.273.4-.459.674-.57.836-1.739-.398-2.103-2.224-3.029-3.533-.095.013-.19.027-.285.04-.063.335-.127.67-.19,1.006-.1-.005-.2-.01-.301-.014.267-3.392-2.866-4.422-3.859-7.278.268-1.007.296-1.422-.313-2.239-.385.414-.736.792-1.218,1.311-.78-.576-.39-2-1.553-1.698-.335-1.357-.028-2.349.869-3.26-.982-1.094,1.552-3.478-.432-3.648-.108.467-.211.908-.313,1.349h-.215c.026-1.112.053-2.223.084-3.524,2.431,1.178,2.282-2.245,2.499-3.943-.967.712-1.639,2.005-2.82,1.039.176.3.352.6.614,1.048-.519.131-.969.245-1.271.321-.347-1.909.465-3.139,1.711-4.501.127.086.294.199.395.268,2.901-4.637,5.805-9.825,10.004-13.792-1.101-.897-1.671-2.744-.22-3.567.661.055,1.365.339,1.709.081.63-.781,1.133-1.841-.331-2.352-.007-1.37,1.816-2.873.508-4.08-.762-.851-.499-2.634-1.967-2.737-1.541-.467-2.351.923-3.668,1.337-1.282-.241-1.534,1.02-2.196,1.866-.778-.443-1.737-.572-2.254-1.223-.354-1.428-1.427-.995-2.579-1.251.279-.295.512-.541.756-.799-1.61-.454-1.243,1.18-.684,1.971-.347.287-.659.544-1.161.959-.146-.998.719-2.27-.491-2.696-2.003-.024-2.094-3.775-4.13-2.353.013-.316.026-.622.039-.933-1.119-.022-1.15-.978-1.739-1.663-2.298-1.886-1.623-1.258-2.3-3.981-.202.134-.39.26-.632.421-.647-.984-1.563-1.132-1.856-2.568-1.328-2.881-5.346-3.058-7.079-5.386-.585.083-1.041.148-1.601.228,1.383-2.045.167-3.317.285-5.289.802-1.974,1.602-3.943,2.4-5.907l.357.032c-.084.989-.167,1.98-.27,3.197.814-.916.531-1.853.959-2.706.183.12.335.22.487.32.067-.034.134-.067.201-.101.024-1.515-1.858-.945-.615-2.467,8.097-15.249,14.395-31.292,23.079-46.174.452-.861.735-1.603,1.645-.565,1.744.56,1.811-2.35,3.56-2.194.431-.026.743-1.269.438-1.892-.072.32-.123.543-.188.83-.996.023-1.962.045-2.946.068.288-2.054,2.598-2.155,4.1-1.523,1.683-2.489,2.304-6.224,5.744-6.788-.14-.172-.266-.327-.539-.662,2.52-.59,4.58,2.546,6.67,1.905.44-.39.743-.297.818.309-.216.079-.43.157-.716.261,4.26,1.531,8.617,5.253,12.519,6.025.919,2.415,2.378-.584,3.433-1.49.519-.833,1.393-.071,2.021-.601,8.953-9.038,16.928-19.513,26.772-26.991.548-.009,1.596.235,1.946.822,1.848,1.277,2.466-3.795,6.841,1.161.667,1.147,2.425-.463,2.708,1.046.282,1.139,1.689,1.087,2.207,2.067,1.786,1.081,2.565,3.146,4.737,3.803.689.392.8.85,1.497-.017.118,1.414.309,1.516,1.399.76.079.407.154.792.229,1.178l1.123-.477c-.465,6.943,24.591-23.986,27.83-25.766,1.614.353-.188,1.261.697,2.163.504.143.961-.691,1.338-.89,1.676-.328-.022,1.919,1.229,2.224.722.181.831,1.901,1.677.962.181.363.422.654.47.981.121.87,1.498.81,1.687.114.111-.926-.632-2.356.922-2.128.695.044.417,1.093.954,1.37-.252.402-.445.71-.638,1.018.435.124.871.249,1.436.41-.455,1.116-.409,1.297.704,1.757.236,1.007,1.231,1.468,1.973,2.04.853.704,1.654,2.045,3.013,1.97-.367,1.39,1.423.545,2.121.967-1.036.973-.927,1.293.14,1.928-.026.064-.052.129-.078.193-.473-.052-.945-.105-1.599-.177.27.731,1.157.622.746,1.475-.068.73,1.223.916,1.837.424-.165.316-.264.505-.399.765.57-.039.209,1.014.965.708.422-.171.76-.545,1.101-.949-1.081.652-1.342-.397-.403-.954,1.362.035,2.055-.861,2.827-1.742,1.164-1.315,2.162-2.092,3.896-1.315.42.365.792.737,1.358.086,1.024.926,2.01,1.817,2.997,2.709.08-.067.161-.134.241-.2-.201-.332-.402-.663-.707-1.165,1.923,1.296,3.917-1.03,5.357.406.242,1.625,1.152,2.489,2.362,3.451,1.077.962.459,2.642,1.638,3.51.591.438.42,1.541,1.363.95,1.136-.803,2.064,1.302,1.41,2.168.424.081.745.143,1.018.195-.349.427-.657.804-.966,1.18.601.262-.509,1.372.736,1.339.079-.234.163-.483.242-.715.997.668,2.299,1.187,1.222,2.566.322.045.606.085.957.133-.052.234-.096.434-.112.508.399.361.738.669,1.123,1.017-.197.249-.374.474-.652.826.998-.259,1.849-.481,2.782-.723.017.314.026.498.036.679,2.534.548.472,4.428.011,6.054.081.056.162.112.243.169,1.616-1.377,2.453-3.491,3.878-5.066.083.048.165.097.248.145-.384.974-.893,1.909-1.079,2.947,1.031-.032,1.49-.808,2.019-1.568,3.259,2.237,14.631-18.5,13.479-7.991.094.03.189.059.283.089,1.094-2.144,4.509-2.623,4.519.402-.096.89.735.556,1.293.499.593-.139.81.106.812.662-.08,1.962,4.51.524,3.973,3.236,2.144-.457,1.241,2.226,2.864,2.406.605-.004,1.21.372,1.837.587-.225.485-.433.934-.678,1.461,5.02.996,1.101.777,3.501,2.933,4.404,2.295.161,6.216-.403,9.674.089.041.178.082.266.123-.185.117-.369.233-.605.382.059.154.126.329.196.511-1.449.027-.687,1.274-1.387,2.138-.349.477-.522.808.079,1.218.73.849.617,2.264.918,3.296-.073-.059-.231-.188-.271-.221-.656,1.441.088,2.991-1.8,3.481-.204.757-.278,1.634-1.183,2.076-.315-.334-.584-.62-.852-.905-.137-.009-.274-.017-.41-.026.293,2.122-.855,3.447-1.799,5.239,1.242.98,3,.811,3.902,1.869.136.202.265.614.366.604,1.437-.079,1.729,1.318,2.679,1.994.643-.661,1.245-1.281,1.864-1.918.26.187.466.335.672.483.052-.03.105-.061.157-.091l-.428-.924c1.562-3.164,1.703.665,2.812-1.18.475.196-.208,1.169.688.926.129-.035.115-.591.193-1.067,1.148-.008,1.437,1.548,2.789.384.073.773.039,1.143.215,1.756,1.685-.842,3.335-2.183,4.895-3.547,1.023-1.326,1.915-1.908,3.486-.744-.475.142-.748.223-1.02.305-.005.067-.011.135-.016.202.378.068.756.137,1.195.217.034-.181.063-.334.1-.528,1.723.228.025,1.229,1.078,1.799.134-.204.256-.391.296-.453,1.868.37,1.023-1.643.979-2.751l.204-.01c1.293,1.101,1.019,3.405,2.372,4.092.478.042.83.144,1.165.502,1.443.824.727-1.53,1.45-1.887.825-.061,1.284.754,1.73,1.415-.65,1.95,2.239,2.847,3.33,4.16-1.55-.417-2.332-.086-.804,1.442.229-.349.361-.551.594-.905.361.657.506,1.139,1.073,1.535.326-.601.054-1.047-.141-1.632.68.197,1.275.399.869,1.299.351,2.153,4.294-.792,3.39,2.185.898-.303,3.057.317,1.793,1.39-.131.095-.137.605-.006.756.169.194.628.381.795.285.865-.523,1.285.614,1.879,1.035,1.081,1.873-1.129,3.834-.969,5.528,1.202.529-.36,2.016-1.067.878-.308.414-.488.762.194.862,1.616,1.818-2.468,6.466-3.68,8.628.365-.107.59-.173.909-.267.159.618,1.012,1.706-.01,1.987-.745.554-.263,1.555-.229,2.5.289.015,1.168-.414,1.404-.381.598.516,1.12.261,1.637-.051.559-.337.696-.053.782.465.801,2.367,1.179,4.776,2.081,7.035.296,1.29.714,3.393,2.176,3.714.357.969,1.887,1.054,1.624,2.511,2.597-.272,2.122,3.134,2.166,4.769,2.929,1.423-1.903,4.927-2.06,7.046-1.368,1.049-1.719,3.218-2.761,3.844-.552.332.13,1.785-.94,1.65-.796.839-1.221,1.956-2.062,3.186,3.359.425,6.449.815,9.532,1.205.032,1.666.885.365,1.742,1.274-.463.32-.798.55-1.11.766,1.152,1.211,1.958,3.802.022,4.516-1.213-.421-.742.496-.819,1.117.542-.177.997-.326,1.52-.497.973,1.168-1.798,1.906-.43,3.306.013,5.671-9.282,6.554-2.154,13.149-.601.93.805,1.579.35,2.49-.864,1.241-.557,2.496,1.028,2.77.031-.119.095-.368.163-.633,1.014.619,2.481,4.084,2.35,5.432.203-.031.46-.071.716-.111-.01.096-.021.192-.031.288-.183.196-.365.393-.548.59.022.092.044.183.066.275.393-.066.786-.133,1.324-.224-.604.681-.237,2.147-1.186,2.219-.146-.009-.301.289-.452.446.707.611,1.519-.008,2.306-.16.039.066.079.131.118.197-3.126,4.171-9.064,6.455-10.856,11.429-.128,1.576-.41.812-1.467,1.079.511.307,1.427.88.622,1.38-.764.446.062,1.168-.253,1.875-.087.003-.174.006-.261.009-.122-.197-.243-.393-.517-.836-2.745,9.891-14.735,10.7-21.933,16.161-4.721,4.006-9.465,8.241-14.742,11.416-1.032,1.679-4.844,4.864-6.137,2.157.234-.101.458-.199.914-.396-.521-.325-.863-.539-1.347-.841.147,1.114-.969,3.195-.613,1.098-1.212-.582-.148-1.97-.78-3.19-.401.884-.706,1.557-1.011,2.231-1.428-.731-.155-3.632-1.829-3.831-.673,1.024-1.157.594-1.616-.31-.299.539-.537.97-.797,1.437-3.272-3.432-9.814,6.669-13.382,6.068-1.938.182-3.462,3.741-5.535,2.824-8.971-2.229-27.887,23.203-33.172,18.759.277-.119.533-.228,1.027-.44-.491-.356-.823-.597-1.214-.881-1.253,2.454-1.359-.662-1.252-1.807-.098-.031-.197-.062-.295-.093-.366.652-.732,1.305-1.092,1.947-1.624-.22.047-4.78-1.789-3.836-.899,1.306-.917.067-1.661-.321-.179.432-.346.837-.504,1.219-2.082-1.718-4.408.854-6.83.32-.817.38-2.702,1.194-2.44-.602.711-.752,1.476-3.949-.374-3.102-.693-1.096-.614-1.406.383-1.632-.13-1.436-.512-1.982-1.573-.714.167-2.383-1.748-3.383-1.153-5.508.157-.534-.429-1.418-.268-1.963.769-1.473-.333-2.133-.906-3.004-1.931-.74-2.614-2.2-3.516-4.067-.659.517-1.34,1.051-2.08,1.631.027-.286.049-.514.074-.772-2.134.455-.86,2.028-2.308,3.424-.48-2.06,1.266-3.471,1.159-5.483-7.491,8.85-14.265,20.34-21.905,27.933ZM281.647,512.252c.861.91-.177,1.368.871,1.808.243-.854,1.473-1.293.613-2.462l-.624.31-.413-.196c.221-.269.443-.537.662-.803-1.404-1.639-1.201.322-1.109,1.344ZM33.541,530.587c-.44.598-.881,1.197-1.321,1.794.416.232.892.496,1.372.764.972-1.015.967-1.809-.051-2.558ZM282.421,520.089c-.222-.095-.444-.189-.666-.284.342-.493.685-.986.992-1.43-.25-.17-.55-.375-.848-.578q-.56.478.02,1.052c-.282.189-.563.377-.843.564-.009.121-.018.242-.026.363.457.104.914.208,1.372.313ZM280.446,509.146c-.318.619-.555,1.08-.89,1.733,1.061-.275,2.309-1.141.89-1.733ZM230.913,436.053c-.07.023-.14.046-.21.069-.088.634-.176,1.268-.273,1.965l.902-.413c-.137-.532-.278-1.077-.419-1.622ZM179.677,390.604c-.848.503-.866.792-.101,1.425.035-.491.064-.905.101-1.425ZM38.809,425.556c.649.155,1.027.174,1.063-.485-.428-.544-.687.017-1.063.485ZM31.936,537.852c-.467.934-.379,1.117.477,1.239-.178-.463-.328-.851-.477-1.239ZM281.27,516.536c.154.012.308.025.462.037.005-.409.011-.818.016-1.226-.12-.01-.24-.02-.36-.03-.039.406-.079.812-.118,1.218ZM76.359,585.981c-.032.385-.064.77-.106,1.275.927-.494.838-.89.106-1.275Z" fill="none"/>
    </clipPath>
  </defs>
  <g isolation="isolate">
    <g id="a" data-name="bateau 08">
      <g>
        <g clip-path="url(#b)">
          <g>
            <path d="M201.541,227.28s12.46-16.648,7.995-18.232-22.186,13.793-22.186,13.793l14.191,4.439Z" fill="#fff"/>
            <path d="M198.329,231.353s12.46-16.648,7.995-18.232-22.186,13.793-22.186,13.793l14.191,4.439Z" fill="#9bc8ec"/>
            <g>
              <path d="M210.206,222.59c-.524.265-1.029-.081-1.141-.428-.134-.414.059-.864.453-1.018.415-.162.876.04,1.042.457.027.067.042.139.067.206.211.574.182.627-.42.783Z" fill="#fff"/>
              <path d="M211.329,210.041c.114.378-.096.776-.475.899-.399.13-.807-.086-.917-.486-.104-.376.119-.779.495-.893.375-.113.785.106.897.479Z" fill="#fff"/>
              <path d="M204.562,215.474c.093.318-.059.565-.419.68-.347.111-.71-.072-.809-.409-.096-.328.095-.667.431-.764.352-.101.684.104.798.492Z" fill="#fff"/>
              <path d="M201.878,219.069c-.089-.33.092-.651.413-.735.319-.083.643.108.731.432.095.35-.085.696-.406.779-.322.084-.643-.122-.738-.476Z" fill="#fff"/>
              <path d="M210.531,217.608c.094.317-.085.658-.397.755-.317.098-.653-.083-.747-.402-.096-.325.077-.651.398-.75.324-.101.65.073.746.398Z" fill="#fff"/>
              <path d="M205.612,225.843c.079.304-.116.621-.428.694-.297.069-.596-.107-.681-.401-.09-.311.088-.621.404-.705.31-.082.624.101.705.411Z" fill="#fff"/>
              <path d="M207.956,207.964c.302-.077.593.092.678.394.089.314-.091.622-.408.701-.3.074-.598-.098-.681-.395-.087-.313.092-.619.411-.7Z" fill="#fff"/>
              <path d="M203.295,223.251c-.074-.285.081-.564.348-.624.276-.062.581.119.652.389.073.278-.081.542-.36.617-.289.078-.563-.086-.64-.382Z" fill="#fff"/>
              <path d="M214.055,210.733c.022.081.054.161.065.243.036.254-.072.43-.326.474-.258.045-.413-.097-.465-.342-.027-.128-.013-.264-.036-.393-.043-.237.023-.415.267-.471.249-.056.38.089.437.318.014.058.032.116.048.174l.01-.003Z" fill="#fff"/>
              <path d="M200.638,213.948c-.083-.272.062-.563.32-.64.261-.078.577.102.656.373.075.256-.096.557-.354.625-.265.07-.54-.089-.623-.359Z" fill="#fff"/>
              <path d="M217.691,219.19c.3-.095.569.017.66.274.085.242-.064.528-.318.61-.255.083-.73-.172-.799-.429-.055-.203.078-.336.458-.456Z" fill="#fff"/>
              <path d="M215.394,222.432c-.068-.272.101-.551.382-.606.294-.057.5.066.592.35.088.273-.075.545-.356.618-.278.072-.55-.086-.619-.362Z" fill="#fff"/>
              <path d="M218.166,214.748c.061.263-.123.548-.393.611-.275.064-.52-.086-.581-.357-.062-.275.11-.551.381-.613.256-.058.536.11.593.359Z" fill="#fff"/>
              <path d="M211.113,213.189c.253-.07.533.081.609.33.079.261-.092.549-.366.616-.259.063-.53-.096-.594-.349-.064-.251.098-.525.351-.596Z" fill="#fff"/>
              <path d="M213.046,219.37c-.231.032-.422-.06-.503-.32-.074-.238.085-.519.323-.566.262-.052.452.063.537.314.079.232-.087.504-.357.572Z" fill="#fff"/>
              <path d="M205.875,210.946c-.152-.119-.363-.209-.442-.365-.118-.233.036-.429.274-.502.244-.075.473.034.509.274.026.169-.11.363-.174.546l-.166.048Z" fill="#fff"/>
              <path d="M206.412,218.107c.249.163.431.232.517.363.034.052-.117.308-.232.357-.204.087-.391-.024-.419-.262-.012-.106.061-.221.134-.458Z" fill="#fff"/>
              <path d="M204.107,213.99c.163-.191.241-.364.344-.38.11-.018.243.112.366.177-.069.121-.113.303-.215.345-.097.04-.255-.066-.496-.142Z" fill="#fff"/>
              <path d="M208.169,212.517c-.15.178-.22.337-.316.355-.101.019-.227-.098-.342-.155.066-.121.105-.291.206-.346.075-.041.231.069.452.147Z" fill="#fff"/>
              <path d="M214.93,208.733c-.161.189-.236.353-.328.364-.103.012-.265-.095-.317-.194-.03-.058.083-.263.169-.292.099-.034.239.054.476.122Z" fill="#fff"/>
              <path d="M212.676,214.148c.176.159.333.235.345.329.012.101-.111.219-.175.33-.111-.065-.278-.108-.317-.203-.036-.086.068-.23.148-.456Z" fill="#fff"/>
              <path d="M213.815,216.265c.166.132.316.193.331.278.016.09-.077.264-.157.288-.08.024-.253-.069-.291-.152-.035-.078.054-.213.117-.413Z" fill="#fff"/>
              <path d="M203.398,211.271c.164.136.302.196.326.287.021.079-.08.267-.14.273-.104.01-.267-.057-.312-.142-.038-.071.058-.212.126-.417Z" fill="#fff"/>
              <path d="M204.914,209.98c-.164-.141-.312-.207-.325-.294-.014-.095.095-.209.151-.314.103.06.257.097.295.185.035.081-.055.215-.121.423Z" fill="#fff"/>
              <path d="M211.73,223.664c.131.109.277.175.278.243,0,.099-.103.199-.162.298-.097-.066-.234-.112-.275-.203-.028-.061.081-.183.16-.339Z" fill="#fff"/>
              <path d="M207.112,226.298c.126-.132.202-.274.276-.273.097.002.193.116.289.182-.067.085-.122.22-.205.241-.083.02-.194-.075-.36-.15Z" fill="#fff"/>
              <path d="M207.043,213.541c-.101.135-.153.269-.217.276-.093.009-.196-.075-.294-.119.058-.09.097-.216.179-.259.058-.031.175.049.333.102Z" fill="#fff"/>
              <path d="M206.973,216.131c-.1.129-.146.238-.224.271-.048.02-.208-.078-.207-.12.003-.087.06-.201.132-.248.044-.029.155.047.299.098Z" fill="#fff"/>
            </g>
          </g>
          <g filter="url(#c)">
            <g>
              <g>
                <rect x="66.581" y="154.589" width="29.373" height="2.997" fill="#e86170"/>
                <path d="M66.581,154.589s14.687-3.069,14.687-5.979c0,2.91,14.687,5.979,14.687,5.979v1.499h-29.373v-1.499Z" fill="#e86170"/>
                <rect x="66.581" y="157.586" width="1.124" height="20.32" fill="#ffd66e"/>
                <rect x="84.894" y="157.586" width="1.124" height="20.32" fill="#ffd66e"/>
                <rect x="94.831" y="157.586" width="1.124" height="20.32" fill="#ffd66e"/>
                <rect x="80.564" y="148.323" width="1.408" height="1.408" transform="translate(-81.575 101.114) rotate(-45)" fill="#ffd66e"/>
              </g>
              <rect x="85.455" y="154.589" width="10.499" height="2.997" fill="#a384bb" mix-blend-mode="multiply" opacity=".25"/>
            </g>
            <path d="M205.162,177.16c-.391-17.098.868-25.491-4.578-25.05s-7.899,10.454,0,8.242c0,0,6.034,16.808-10.597,16.808h-121.862c-5.004,0-13.238-35.851,12.076-29.67,0,0,5.454-3.657.676-8.258-13.627-1.044-27.848,5.874-22.729,37.928s17.041,55.897,17.041,55.897h148.648v-13.54c-18.676-1.766-26.492-2.208-25.609-8.536.883-6.329,7.405-13.16,6.933-33.82Z" fill="#e86170"/>
            <g>
              <line x1="73.174" y1="183.415" x2="62.362" y2="113.104" fill="none" stroke="#f4af13" stroke-miterlimit="10" stroke-width="1.219"/>
              <circle cx="62.362" cy="113.104" r="4.011" fill="#ffd66e"/>
              <circle cx="64.092" cy="124.353" r="2.448" fill="#ffd66e"/>
              <circle cx="65.814" cy="135.55" r="2.448" fill="#ffd66e"/>
              <circle cx="64.953" cy="129.953" r="3.215" fill="#ffd66e"/>
              <rect x="55.317" y="118.496" width="16.241" height="3.461" transform="translate(-17.536 11.038) rotate(-8.742)" fill="#ffd66e"/>
            </g>
            <g clip-path="url(#e)">
              <g mix-blend-mode="multiply" opacity=".5">
                <line x1="54.256" y1="180.876" x2="68.728" y2="180.876" fill="none" stroke="#a384bb" stroke-linecap="round" stroke-linejoin="round" stroke-width=".61"/>
                <line x1="54.256" y1="193.223" x2="178.088" y2="193.223" fill="none" stroke="#a384bb" stroke-linecap="round" stroke-linejoin="round" stroke-width=".61"/>
                <line x1="66.722" y1="205.571" x2="204.986" y2="205.571" fill="none" stroke="#a384bb" stroke-linecap="round" stroke-linejoin="round" stroke-width=".61"/>
                <line x1="66.486" y1="217.919" x2="201.39" y2="217.919" fill="none" stroke="#a384bb" stroke-linecap="round" stroke-linejoin="round" stroke-width=".61"/>
                <line x1="76.75" y1="230.267" x2="227.755" y2="230.267" fill="none" stroke="#a384bb" stroke-linecap="round" stroke-linejoin="round" stroke-width=".61"/>
              </g>
              <g>
                <path d="M68.502,172.007h121.512c0,10.08-8.183,18.263-18.263,18.263h-84.986c-10.08,0-18.263-8.183-18.263-18.263h0Z" fill="#ffd66e"/>
                <g clip-path="url(#f)">
                  <g mix-blend-mode="multiply" opacity=".5">
                    <line x1="67.471" y1="186.597" x2="191.697" y2="186.597" fill="none" stroke="#f4af13" stroke-linecap="round" stroke-linejoin="round" stroke-width=".61"/>
                    <line x1="74.744" y1="182.811" x2="191.697" y2="182.811" fill="none" stroke="#f4af13" stroke-linecap="round" stroke-linejoin="round" stroke-width=".61"/>
                    <line x1="67.471" y1="179.025" x2="191.697" y2="179.025" fill="none" stroke="#f4af13" stroke-linecap="round" stroke-linejoin="round" stroke-width=".61"/>
                  </g>
                </g>
              </g>
              <g>
                <path d="M200.832,192.709s4.266-9.899-1.567-9.899c-7.225,0-14.843,9.899-14.843,9.899h17.03c.812,0,1.469.658,1.469,1.469h0" fill="none" stroke="#ffd66e" stroke-linecap="round" stroke-linejoin="round" stroke-width="1.219"/>
                <path d="M199.265,182.811c-1.057,0-2.12.23-3.169.592-.675.742-1.098,1.719-1.098,2.802,0,2.308,1.871,4.179,4.179,4.179,1.061,0,2.018-.408,2.755-1.059.689-2.867.875-6.513-2.667-6.513Z" fill="none" stroke="#ffd66e" stroke-linecap="round" stroke-linejoin="round" stroke-width="1.219"/>
                <path d="M206.925,184.026s-3.961-7.045-14.451-1.216c0,0,2.916-3.224,2.524-9.405" fill="none" stroke="#ffd66e" stroke-miterlimit="10" stroke-width="1.219"/>
                <path d="M226.653,224.663c.917.917-26.898.157-29.886-6.292-2.989-6.449,3.932-14.471,4.404-22.022-16.516,10.067-87.772,17.145-135.59,5.033,0,0,3.146,21.55,11.64,36.493h151.634s-2.674-13.685-2.202-13.213Z" fill="#a384bb" mix-blend-mode="multiply" opacity=".25"/>
              </g>
            </g>
            <path d="M222.641,217.821v15.963s14.234-.284,14.278-6.195c.044-5.911-14.278-9.769-14.278-9.769Z" fill="#336a9b"/>
            <g mix-blend-mode="multiply" opacity=".25">
              <path d="M106.502,191.608c-7.42,1.176-11.247,1.176-18.665,0v-19.063c7.418,1.171,11.245,1.173,18.665,0,0,7.625,0,11.438,0,19.063Z" fill="#9bc8ec"/>
            </g>
            <g mix-blend-mode="multiply" opacity=".25">
              <path d="M138.591,194.806c-7.42,1.177-11.247,1.177-18.665,0v-19.063c7.418,1.171,11.245,1.173,18.665,0,0,7.625,0,11.438,0,19.063Z" fill="#9bc8ec"/>
            </g>
            <g mix-blend-mode="multiply" opacity=".25">
              <path d="M165.799,194.806c-7.42,1.177-11.247,1.177-18.665,0v-19.063c7.418,1.171,11.245,1.173,18.665,0,0,7.625,0,11.438,0,19.063Z" fill="#9bc8ec"/>
            </g>
            <g>
              <path d="M111.382,191.975c-7.42,1.176-11.247,1.176-18.665,0v-19.063c7.418,1.171,11.245,1.173,18.665,0,0,7.625,0,11.438,0,19.063Z" fill="#9bc8ec"/>
              <path d="M109.932,190.698c-6.278.837-9.487.837-15.765,0v-16.087c6.278.838,9.487.838,15.765,0,0,6.435,0,9.651,0,16.086Z" fill="#336a9b"/>
              <path d="M94.167,190.698c6.278-5.598,9.487-8.814,15.765-16.086" fill="none" stroke="#9bc8ec" stroke-linecap="round" stroke-linejoin="round" stroke-width=".914"/>
              <path d="M94.167,174.612c6.278,7.272,9.487,10.489,15.765,16.087" fill="none" stroke="#9bc8ec" stroke-linecap="round" stroke-linejoin="round" stroke-width=".914"/>
              <path d="M103.914,183.148c-.746-.72-1.119-1.086-1.864-1.829-.746.743-1.119,1.109-1.864,1.829.745.767,1.118,1.144,1.864,1.888.746-.743,1.119-1.121,1.864-1.888Z" fill="#fff"/>
            </g>
            <g>
              <path d="M138.591,191.975c-7.42,1.176-11.247,1.176-18.665,0v-19.063c7.418,1.171,11.245,1.173,18.665,0,0,7.625,0,11.438,0,19.063Z" fill="#9bc8ec"/>
              <path d="M137.14,190.698c-6.278.837-9.487.837-15.765,0v-16.087c6.278.838,9.487.838,15.765,0,0,6.435,0,9.651,0,16.086Z" fill="#336a9b"/>
              <path d="M121.375,190.698c6.278-5.598,9.487-8.814,15.765-16.086" fill="none" stroke="#9bc8ec" stroke-linecap="round" stroke-linejoin="round" stroke-width=".914"/>
              <path d="M121.375,174.612c6.278,7.272,9.487,10.489,15.765,16.087" fill="none" stroke="#9bc8ec" stroke-linecap="round" stroke-linejoin="round" stroke-width=".914"/>
              <path d="M131.122,183.148c-.746-.72-1.119-1.086-1.864-1.829-.746.743-1.119,1.109-1.864,1.829.745.767,1.118,1.144,1.864,1.888.746-.743,1.119-1.121,1.864-1.888Z" fill="#fff"/>
            </g>
            <g>
              <path d="M165.799,191.975c-7.42,1.176-11.247,1.176-18.665,0v-19.063c7.418,1.171,11.245,1.173,18.665,0,0,7.625,0,11.438,0,19.063Z" fill="#9bc8ec"/>
              <path d="M164.349,190.698c-6.278.837-9.487.837-15.765,0v-16.087c6.278.838,9.487.838,15.765,0,0,6.435,0,9.651,0,16.086Z" fill="#336a9b"/>
              <path d="M148.584,190.698c6.278-5.598,9.487-8.814,15.765-16.086" fill="none" stroke="#9bc8ec" stroke-linecap="round" stroke-linejoin="round" stroke-width=".914"/>
              <path d="M148.584,174.612c6.278,7.272,9.487,10.489,15.765,16.087" fill="none" stroke="#9bc8ec" stroke-linecap="round" stroke-linejoin="round" stroke-width=".914"/>
              <path d="M158.331,183.148c-.746-.72-1.119-1.086-1.864-1.829-.746.743-1.119,1.109-1.864,1.829.745.767,1.118,1.144,1.864,1.888.746-.743,1.119-1.121,1.864-1.888Z" fill="#fff"/>
            </g>
          </g>
        </g>
        <g>
          <path d="M202.36,228.662s-9.568-26.22-18.071-20.245c-2.405,1.69,3.905,15.144,3.905,15.144,0,0-8.4-4.08-9.071-.576s-3.902,6.233-10.364,4.94c-6.462-1.292,18.236,7.835,18.811,4.169.574-3.666,8.162,3.467,9.861,1.695,1.699-1.772-1.245-6.975,4.929-5.127Z" fill="#9bc8ec"/>
          <path d="M198.93,224.868c.307-5.671-8.427-20.919-14.641-16.451-4.091,2.941,2.882,11.611,3.905,15.144-5.19-2.997-11.257-3.346-12.88-1.674-1.624,1.673,2.994,2.384,1.723,3.905s-13.202,1.552-13.202,1.552c0,0,13.678,4.838,17.552,3.141,2.44-1.069-1.482-4.55.681-5.306,5.407-1.892,10.289,7.887,14.422,6.836,2.449-.623-3.542-8.49-1.961-9.141,1.581-.651,4.402,1.994,4.402,1.994Z" fill="#fff"/>
          <g>
            <g>
              <path d="M163.166,226.15c.278.3.144.705-.067.847-.251.169-.59.127-.768-.107-.188-.247-.142-.594.105-.785.04-.031.085-.055.125-.085.344-.251.384-.243.605.131Z" fill="#fff"/>
              <path d="M154.549,227.813c.231-.149.538-.085.693.145.164.242.098.557-.149.708-.232.142-.544.07-.693-.16-.148-.229-.08-.546.148-.693Z" fill="#fff"/>
              <path d="M159.488,231.298c.195-.124.389-.069.536.15.141.211.089.489-.118.621-.201.128-.465.065-.594-.141-.135-.216-.062-.478.176-.629Z" fill="#fff"/>
              <path d="M162.411,232.403c-.204.123-.454.064-.572-.135-.117-.197-.051-.451.149-.572.216-.131.482-.077.6.122.118.2.042.454-.177.586Z" fill="#fff"/>
              <path d="M159.768,226.891c.194-.124.457-.07.582.121.127.193.07.453-.126.578-.199.127-.451.073-.579-.122-.13-.197-.076-.449.123-.576Z" fill="#fff"/>
              <path d="M166.228,228.6c.188-.112.438-.042.547.153.104.185.043.42-.137.533-.191.12-.432.06-.549-.135-.115-.191-.052-.437.14-.551Z" fill="#fff"/>
              <path d="M153.807,230.471c-.11-.187-.052-.415.133-.53.193-.12.434-.059.548.138.108.187.049.419-.133.532-.193.119-.432.058-.548-.14Z" fill="#fff"/>
              <path d="M164.938,230.649c-.177.104-.393.054-.485-.113-.095-.173-.032-.412.135-.512.172-.103.378-.05.483.122.108.178.051.394-.133.502Z" fill="#fff"/>
              <path d="M154.487,225.855c.05-.031.097-.067.15-.091.163-.073.301-.035.38.127.08.164.015.295-.139.377-.08.043-.175.059-.256.1-.151.075-.283.065-.367-.088-.086-.156-.014-.271.129-.354.036-.021.071-.044.107-.065l-.004-.006Z" fill="#fff"/>
              <path d="M159.221,234.219c-.166.108-.389.067-.49-.091-.102-.16-.043-.406.124-.511.157-.099.392-.043.487.117.098.164.045.379-.12.486Z" fill="#fff"/>
              <path d="M159.449,221.793c-.121-.182-.098-.384.057-.494.145-.103.366-.059.47.095.105.155.026.522-.133.618-.125.076-.24.012-.393-.219Z" fill="#fff"/>
              <path d="M162.062,222.707c-.169.098-.388.038-.479-.139-.095-.186-.052-.347.121-.464.166-.112.379-.055.482.119.102.172.048.385-.123.484Z" fill="#fff"/>
              <path d="M156.384,222.33c.164-.091.39-.023.485.146.096.172.043.365-.127.457-.172.094-.39.032-.484-.137-.088-.16-.029-.38.126-.466Z" fill="#fff"/>
              <path d="M156.697,227.352c-.096-.156-.048-.373.104-.471.159-.103.385-.044.482.126.092.161.038.373-.12.465-.156.091-.371.036-.466-.12Z" fill="#fff"/>
              <path d="M160.464,224.869c.066.148.041.294-.117.398-.145.095-.364.043-.441-.107-.085-.166-.045-.315.107-.42.14-.098.354-.039.452.129Z" fill="#fff"/>
              <path d="M156.204,231.29c-.051.125-.07.283-.159.366-.133.124-.294.058-.389-.087-.097-.149-.068-.323.085-.394.108-.05.264.004.399.012l.064.102Z" fill="#fff"/>
              <path d="M160.895,229.553c.061-.198.072-.333.144-.416.028-.033.229.019.284.087.097.12.059.266-.095.331-.068.029-.16.002-.333-.002Z" fill="#fff"/>
              <path d="M158.582,231.888c-.159-.073-.29-.091-.321-.157-.033-.07.028-.184.048-.279.094.023.225.018.273.078.046.057.005.183,0,.359Z" fill="#fff"/>
              <path d="M156.814,229.452c.148.066.268.083.298.144.032.064-.022.171-.038.259-.094-.021-.215-.014-.272-.071-.042-.042.001-.168.011-.331Z" fill="#fff"/>
              <path d="M152.98,225.654c.157.072.282.09.307.15.028.067-.012.196-.069.25-.033.032-.192-.005-.228-.057-.041-.06-.01-.17-.01-.343Z" fill="#fff"/>
              <path d="M157.039,226.121c.072-.149.093-.268.154-.294.065-.028.168.032.255.054-.022.087-.019.207-.075.252-.051.04-.167-.001-.333-.011Z" fill="#fff"/>
              <path d="M158.237,224.951c.056-.137.068-.248.122-.275.057-.028.192.001.223.05.032.049.003.183-.046.224-.046.039-.153.005-.299,0Z" fill="#fff"/>
              <path d="M156.898,232.886c.059-.136.073-.24.129-.273.049-.029.194.002.21.041.027.067.013.19-.035.236-.04.039-.153.002-.304-.004Z" fill="#fff"/>
              <path d="M155.742,232.119c-.063.137-.079.248-.134.274-.061.028-.158-.024-.239-.04.02-.081.016-.191.067-.233.048-.039.155-.004.306,0Z" fill="#fff"/>
              <path d="M163.591,224.923c.048-.109.064-.219.109-.233.066-.02.153.03.231.051-.025.077-.03.178-.083.223-.035.03-.138-.019-.257-.042Z" fill="#fff"/>
              <path d="M166.243,227.508c-.113-.059-.223-.083-.236-.132-.017-.066.041-.151.066-.228.07.029.171.039.201.091.029.051-.013.144-.031.27Z" fill="#fff"/>
              <path d="M157.717,230.009c.109.041.209.05.226.093.024.061-.012.145-.023.22-.072-.021-.163-.023-.208-.07-.032-.033,0-.127.005-.242Z" fill="#fff"/>
              <path d="M159.464,229.558c.105.042.187.052.224.098.023.028-.012.155-.041.162-.059.015-.146-.002-.192-.041-.028-.024.001-.113.008-.219Z" fill="#fff"/>
            </g>
            <g>
              <path d="M182.944,228.029c-.192.786-1.006,1.005-1.47.812-.553-.23-.853-.835-.661-1.385.202-.58.826-.883,1.411-.683.094.032.183.08.276.114.789.293.82.37.444,1.141Z" fill="#fff"/>
              <path d="M170.804,215.623c.499.219.727.794.517,1.302-.221.534-.813.768-1.33.526-.487-.228-.709-.822-.492-1.317.216-.494.813-.728,1.305-.511Z" fill="#fff"/>
              <path d="M170.438,227.574c.417.187.539.567.338,1.048-.194.464-.711.68-1.153.482-.429-.192-.614-.697-.415-1.134.209-.459.721-.624,1.23-.396Z" fill="#fff"/>
              <path d="M171.804,233.603c-.425-.202-.6-.679-.401-1.091.198-.408.689-.576,1.106-.379.451.214.653.712.454,1.122-.2.413-.703.564-1.159.348Z" fill="#fff"/>
              <path d="M178.016,223.231c.416.185.613.678.435,1.092-.18.42-.671.61-1.09.423-.426-.19-.613-.663-.43-1.089.184-.429.658-.615,1.085-.426Z" fill="#fff"/>
              <path d="M182.24,235.753c.39.189.547.678.344,1.07-.193.373-.645.529-1.029.355-.406-.184-.571-.648-.376-1.054.191-.398.664-.563,1.061-.37Z" fill="#fff"/>
              <path d="M165.609,217.298c.189-.385.627-.538,1.019-.357.408.188.571.652.369,1.055-.191.381-.638.539-1.023.36-.406-.189-.566-.65-.366-1.057Z" fill="#fff"/>
              <path d="M177.453,235.86c-.365-.178-.518-.59-.342-.923.182-.345.645-.502.992-.335.357.172.495.569.324.93-.177.372-.594.513-.973.328Z" fill="#fff"/>
              <path d="M173.967,213.387c.105.049.216.087.313.149.298.19.386.459.205.766-.184.31-.471.346-.774.181-.158-.086-.288-.223-.444-.314-.287-.167-.415-.396-.254-.701.164-.312.433-.319.724-.173.074.037.15.07.225.106.002-.004.004-.008.006-.013Z" fill="#fff"/>
              <path d="M165.329,230.319c-.36-.157-.534-.569-.384-.908.152-.343.623-.513.978-.354.334.151.498.6.338.93-.164.34-.576.486-.933.331Z" fill="#fff"/>
              <path d="M186.081,217.145c.169-.399.527-.581.877-.446.329.127.496.54.355.879-.141.342-.833.611-1.165.454-.262-.124-.282-.382-.068-.887Z" fill="#fff"/>
              <path d="M187.422,222.453c-.346-.172-.487-.599-.292-.942.203-.359.517-.465.897-.307.365.152.503.566.329.925-.173.356-.583.499-.933.324Z" fill="#fff"/>
              <path d="M181.852,212.674c.33.172.464.618.288.958-.179.346-.555.468-.893.289-.343-.181-.479-.609-.302-.947.168-.321.595-.462.906-.3Z" fill="#fff"/>
              <path d="M173.907,218.667c.153-.328.562-.486.89-.343.344.15.493.588.317.934-.166.328-.575.469-.897.31-.32-.158-.463-.573-.31-.901Z" fill="#fff"/>
              <path d="M182.112,222.173c-.173.27-.44.389-.785.24-.316-.136-.468-.553-.304-.845.181-.321.47-.417.809-.282.314.125.45.542.28.887Z" fill="#fff"/>
              <path d="M166.871,222.146c-.261.052-.544.193-.779.136-.35-.085-.417-.422-.281-.736.14-.324.459-.465.742-.289.2.125.282.441.416.671l-.099.217Z" fill="#fff"/>
              <path d="M174.853,227.992c.393-.115.628-.244.843-.216.085.011.218.398.166.563-.092.291-.375.388-.649.204-.122-.082-.177-.262-.36-.55Z" fill="#fff"/>
              <path d="M168.478,226.722c-.054-.342-.165-.578-.09-.701.079-.131.335-.155.513-.225.065.181.216.39.169.535-.045.138-.297.208-.592.392Z" fill="#fff"/>
              <path d="M170.569,221.149c.052.317.156.532.088.649-.071.122-.305.15-.468.219-.068-.177-.211-.37-.178-.526.024-.115.279-.181.558-.342Z" fill="#fff"/>
              <path d="M172.656,210.681c.053.337.159.564.087.67-.08.118-.337.193-.487.159-.088-.02-.201-.323-.155-.439.053-.134.271-.202.555-.39Z" fill="#fff"/>
              <path d="M176.311,217.887c.324-.043.544-.139.653-.067.117.078.13.313.189.479-.168.058-.362.195-.497.151-.122-.04-.18-.277-.345-.562Z" fill="#fff"/>
              <path d="M179.547,218.589c.287-.056.484-.158.587-.098.108.064.207.317.161.422-.046.105-.298.204-.42.168-.114-.033-.174-.247-.328-.493Z" fill="#fff"/>
              <path d="M164.995,225.033c.289-.05.475-.141.592-.085.101.049.208.323.16.391-.082.118-.299.228-.428.2-.108-.024-.17-.251-.324-.506Z" fill="#fff"/>
              <path d="M164.999,222.288c-.295.046-.496.141-.598.077-.112-.07-.133-.286-.194-.439.155-.055.332-.182.457-.143.116.036.176.251.335.505Z" fill="#fff"/>
              <path d="M185.433,227.393c.231-.04.432-.133.503-.073.104.088.116.286.168.437-.155.043-.327.145-.459.107-.088-.025-.119-.249-.212-.47Z" fill="#fff"/>
              <path d="M184.06,234.588c-.025-.251-.106-.458-.039-.533.089-.1.294-.098.449-.14.029.146.122.325.069.43-.053.105-.252.136-.479.243Z" fill="#fff"/>
              <path d="M170.635,223.245c.051.226.145.401.094.474-.074.106-.253.138-.388.202-.043-.141-.14-.295-.111-.42.02-.089.209-.139.405-.257Z" fill="#fff"/>
              <path d="M173.285,225.636c.045.22.118.366.083.477-.022.068-.269.148-.311.109-.089-.081-.156-.243-.142-.36.009-.071.188-.121.37-.226Z" fill="#fff"/>
            </g>
            <g>
              <path d="M191.278,206.929c.422.204.447.691.281.93-.197.285-.576.381-.864.206-.303-.185-.399-.574-.215-.881.03-.049.067-.094.098-.142.261-.411.308-.419.699-.113Z" fill="#fff"/>
              <path d="M182.788,212.291c.184-.255.538-.315.799-.134.275.19.336.553.137.816-.188.248-.551.301-.805.118-.253-.182-.313-.548-.131-.8Z" fill="#fff"/>
              <path d="M189.504,213.948c.156-.213.386-.236.634-.064.239.166.298.484.133.71-.161.22-.469.263-.692.097-.234-.174-.265-.483-.075-.744Z" fill="#fff"/>
              <path d="M193.08,213.907c-.166.216-.457.257-.666.094-.207-.161-.243-.46-.08-.672.176-.229.482-.283.69-.12.209.163.234.466.056.698Z" fill="#fff"/>
              <path d="M187.966,209.135c.155-.213.458-.264.67-.114.216.153.264.454.107.668-.159.218-.45.266-.668.111-.22-.156-.268-.447-.109-.665Z" fill="#fff"/>
              <path d="M195.562,208.264c.154-.197.45-.227.647-.065.188.154.221.429.076.625-.154.207-.436.245-.642.085-.202-.156-.238-.444-.081-.645Z" fill="#fff"/>
              <path d="M183.105,215.433c-.195-.154-.228-.42-.079-.62.156-.208.438-.244.641-.081.192.154.227.426.08.622-.156.207-.437.241-.642.079Z" fill="#fff"/>
              <path d="M195.042,210.985c-.145.185-.397.221-.564.082-.173-.145-.206-.426-.069-.602.14-.181.382-.211.565-.071.189.145.218.398.068.59Z" fill="#fff"/>
              <path d="M181.906,210.231c.04-.053.076-.112.122-.159.144-.146.307-.163.458-.023.153.142.138.308.009.46-.068.079-.161.136-.232.213-.129.142-.274.187-.428.059-.156-.131-.128-.284-.01-.43.03-.037.058-.076.087-.114l-.006-.005Z" fill="#fff"/>
              <path d="M190.437,217.171c-.132.184-.387.233-.56.107-.176-.128-.215-.415-.081-.596.126-.171.4-.209.567-.079.172.134.205.385.074.568Z" fill="#fff"/>
              <path d="M185.502,203.835c-.205-.144-.265-.369-.146-.55.112-.171.365-.215.54-.094.176.121.245.545.115.714-.102.133-.25.113-.51-.069Z" fill="#fff"/>
              <path d="M188.667,203.72c-.14.175-.398.203-.569.051-.179-.159-.2-.349-.065-.544.13-.188.381-.216.563-.074.181.141.211.39.07.567Z" fill="#fff"/>
              <path d="M182.459,205.684c.137-.166.406-.187.577-.047.174.143.197.371.055.54-.144.172-.403.197-.572.056-.161-.134-.189-.393-.06-.549Z" fill="#fff"/>
              <path d="M184.886,210.905c-.167-.126-.207-.377-.086-.545.127-.176.392-.207.567-.066.165.133.195.382.066.545-.128.162-.38.192-.547.066Z" fill="#fff"/>
              <path d="M187.865,206.689c.132.13.167.296.041.473-.115.162-.37.198-.515.07-.16-.141-.179-.317-.062-.492.109-.163.361-.189.535-.051Z" fill="#fff"/>
              <path d="M186,215.308c-.002.154.043.331-.017.457-.091.187-.289.185-.45.07-.166-.118-.207-.316-.073-.455.095-.098.283-.106.43-.154l.111.082Z" fill="#fff"/>
              <path d="M190.276,211.501c-.017-.236-.062-.385-.02-.503.016-.047.252-.075.339-.026.153.087.174.259.037.392-.061.059-.17.069-.355.137Z" fill="#fff"/>
              <path d="M188.784,214.954c-.2-.011-.347.023-.408-.034-.064-.061-.047-.208-.065-.318.11-.015.247-.075.323-.031.073.042.082.193.15.383Z" fill="#fff"/>
              <path d="M185.885,213.095c.185.009.32-.024.378.029.061.055.048.191.067.291-.108.017-.235.075-.319.037-.062-.028-.068-.18-.126-.357Z" fill="#fff"/>
              <path d="M180.217,210.645c.197.011.338-.022.389.032.057.06.068.214.031.295-.022.047-.207.075-.267.034-.069-.046-.081-.178-.153-.361Z" fill="#fff"/>
              <path d="M184.737,209.451c.015-.189-.013-.325.041-.377.058-.057.193-.036.294-.049.012.102.066.228.025.299-.038.064-.179.069-.36.127Z" fill="#fff"/>
              <path d="M185.526,207.705c.003-.169-.031-.293.016-.344.049-.054.205-.079.258-.04.054.039.079.194.044.258-.033.06-.161.069-.318.126Z" fill="#fff"/>
              <path d="M187.406,216.719c.007-.169-.022-.286.024-.345.04-.051.208-.078.241-.043.057.061.093.197.061.266-.027.058-.163.066-.325.122Z" fill="#fff"/>
              <path d="M185.854,216.384c-.009.172.02.298-.029.348-.053.055-.178.041-.272.057-.012-.094-.063-.21-.025-.276.035-.061.163-.069.326-.128Z" fill="#fff"/>
              <path d="M191.22,205.444c.005-.136-.023-.26.02-.294.062-.048.176-.031.267-.042.005.093.042.203.005.273-.025.047-.156.037-.292.063Z" fill="#fff"/>
              <path d="M195.124,207.093c-.145-.016-.272.005-.306-.042-.046-.063-.02-.178-.025-.271.086.001.198-.03.252.013.053.042.046.159.079.3Z" fill="#fff"/>
              <path d="M187.079,213.312c.134-.001.244-.034.28.004.051.055.048.16.067.244-.085.007-.184.043-.251.012-.048-.022-.054-.135-.096-.26Z" fill="#fff"/>
              <path d="M188.753,212.103c.13,0,.221-.023.28.011.036.021.051.17.024.189-.057.041-.156.059-.221.036-.039-.014-.046-.121-.083-.237Z" fill="#fff"/>
            </g>
          </g>
        </g>
      </g>
      <g clip-path="url(#g)">
        <path d="M272.474,598.188v.977c-2.029-.638-3.281-.977-3.281-.977v3.949c-15.081-1.415-27.264-2.565-36.732-4.054,6.111-10.879,10.307-21.534,4.746-23.508-5.249-1.863-17.306,4.987-29.221,13.291-1.263-2.218-1.654-4.87-1.205-8.089,2.376-17.031,19.929-35.413,18.656-91.014-1.053-46.012,2.335-68.6-12.319-67.411-.206.017-.405.057-.608.083-.818-.129-1.703-.162-2.673-.083-13.709,1.112-20.368,24.759-3.766,22.932,1.155.144,2.482.117,3.982-.103,1.77,5.505,12.87,44.583-28.733,44.583h-61.813c0-3.81,0-7.62,0-11.43-1.091.185-2.185.354-3.281.511v-.511c-7.473,1.264-15.065,1.885-22.669,1.964-8.142-.082-16.279-.77-24.28-1.964v.459c-1.096-.144-2.19-.296-3.281-.459v11.43h-19.711c0-3.81,0-7.62,0-11.43-1.091.185-2.185.354-3.281.511v-.511c-7.473,1.264-15.065,1.885-22.669,1.964-8.142-.082-16.279-.77-24.28-1.964v.459c-1.096-.144-2.19-.296-3.281-.459v11.43h-19.711c0-3.81,0-7.62,0-11.43-1.091.185-2.185.354-3.281.511v-.511c-7.473,1.264-15.065,1.885-22.669,1.964-5.202-.052-10.402-.353-15.566-.876v-50.397s-31.483-6.58-38.25-13.562l1.407-1.407-2.68-2.68-1.64,1.64-1.64-1.64-2.68,2.68,1.407,1.407c-4.221,4.356-18.059,8.555-27.875,11.097l-2.179-14.171c4.128-2.548,9.239-4.115,15.499-4.354,3.908.13,8.207.722,12.961,1.883,0,0,.294-.199.752-.564.832.174,1.668.354,2.528.564,0,0,14.678-9.842,1.82-22.223-2.786-.213-5.582-.301-8.364-.247-9.808-.196-19.552,1.291-28.211,5.342l-1.376-8.951c2.699-1.154,4.388-4.016,3.921-7.051s-2.938-5.258-5.859-5.547l-.057-.37c3.83-1.365,6.28-5.291,5.639-9.458s-4.157-7.176-8.22-7.327l-.058-.38c2.699-1.154,4.388-4.016,3.921-7.051s-2.938-5.258-5.859-5.547l-.033-.212,19.926-3.064-1.415-9.204-3.205.493-.076-.493-16.721,2.571-.543-3.529c5-1.57,8.249-6.584,7.428-11.924-.906-5.891-6.414-9.932-12.305-9.029-1.062-.163-2.166-.172-3.285,0-5.892.906-9.934,6.417-9.028,12.309.821,5.34,5.426,9.146,10.667,9.141l.618,4.022-20.03,3.08,1.415,9.204,3.205-.493.076.493,15.964-2.455c-2.214,1.34-3.521,3.921-3.103,6.638.467,3.035,2.938,5.258,5.859,5.547l.058.38c-3.83,1.365-6.28,5.291-5.639,9.458.641,4.168,4.157,7.176,8.22,7.327l.057.37c-2.699,1.154-4.388,4.016-3.921,7.051s2.938,5.258,5.859,5.547l1.823,11.857c-18.794,12.435-30.364,39.914-21.794,93.569,13.777,86.261,45.858,150.423,45.858,150.423h396.801v1.96s1.251-.026,3.281-.159v.159s38.305-.764,38.424-16.67c.119-15.906-38.424-26.288-38.424-26.288ZM-109.981,414.463l.367-.367.367.367c-.115.119-.238.238-.367.356-.129-.119-.252-.237-.367-.356ZM-147.496,486.118c-.086-.103-.171-.206-.256-.314v-49.713h.256v50.028ZM-146.761,427.125c-2.472.577-4.015.9-4.015.9v52.779c-7.385-15.202-12.077-48.298,2.351-64.5l1.664,10.821ZM-144.472,488.535v-46.522l7.189,46.75h-6.055c-.372,0-.751-.085-1.134-.228ZM-98.472,436.091h.256v52.673h-.256v-52.673ZM-95.192,436.091h20.437v41.582c-.804-.109-1.607-.22-2.409-.339v.459c-1.096-.144-2.19-.296-3.281-.459v11.43h-14.748v-52.673ZM-71.475,478.09c-.086-.01-.171-.022-.256-.032v-41.968h.256v42ZM-130.683,488.763l-8.1-52.673h37.286v52.673h-29.187Z" fill="none" stroke="#fff" stroke-linecap="round" stroke-linejoin="round" stroke-width="20"/>
      </g>
    </g>
  </g>
</svg>