<?xml version="1.0" encoding="UTF-8"?><svg xmlns="http://www.w3.org/2000/svg" xmlns:xlink="http://www.w3.org/1999/xlink" viewBox="0 0 300 300"><defs><style>.cls-1{fill:#9bc8ec;}.cls-1,.cls-2,.cls-3{opacity:.25;}.cls-4{filter:url(#drop-shadow-2);}.cls-5{fill:#b1ddea;}.cls-6{fill:#fff;}.cls-2,.cls-3,.cls-7{mix-blend-mode:multiply;}.cls-8,.cls-9,.cls-10,.cls-11{fill:none;}.cls-12{isolation:isolate;}.cls-3{fill:#a384bb;}.cls-9{stroke-dasharray:.01 3.66;}.cls-9,.cls-10{stroke-width:1.22px;}.cls-9,.cls-10,.cls-11{stroke-linecap:round;stroke-linejoin:round;}.cls-9,.cls-11{stroke:#a384bb;}.cls-13{fill:#6498d1;}.cls-10{stroke:#6498d1;}.cls-14{fill:#42496f;}.cls-15{clip-path:url(#clippath);}.cls-11{stroke-width:.61px;}.cls-7{opacity:.5;}</style><filter id="drop-shadow-2" x="96.61" y="45.19" width="57.79" height="137.47" filterUnits="userSpaceOnUse"><feOffset dx="-1.22" dy="0"/><feGaussianBlur result="blur" stdDeviation="0"/><feFlood flood-color="#42496f" flood-opacity="1"/><feComposite in2="blur" operator="in"/><feComposite in="SourceGraphic"/></filter><clipPath id="clippath"><path class="cls-8" d="M100.33,178.88l1.31-38.07c.1-2.81,2.4-5.03,5.21-5.03h24.01v-5.2c0-1.93,1.56-3.49,3.49-3.49h4.25c1.8,0,3.3,1.37,3.48,3.16l4.69,48.65h-46.44Z"/></clipPath></defs><g class="cls-12"><g id="bateau_03"><g class="cls-4"><path class="cls-5" d="M124.52,45.19h-5.95c-1.58,0-2.78,1.33-2.61,2.91l4.34,42.06h3.53l-5.06-37.81c-.07-.53.33-.99.86-.99h5.16l-.26-6.16Z"/><path class="cls-14" d="M119.3,80.56l.38,3.68,3.33-.14-.53-3.96c-1.1.18-2.18.32-3.18.42Z"/><ellipse class="cls-5" cx="124.65" cy="48.28" rx="1.01" ry="3.08" transform="translate(-2.18 6.04) rotate(-2.75)"/><ellipse class="cls-6" cx="124.65" cy="48.28" rx=".85" ry="2.6" transform="translate(-2.18 6.04) rotate(-2.75)"/><path class="cls-1" d="M124.55,46.04c-.29,0-.5.67-.54,1.59.12.92.39,1.59.67,1.59s.5-.67.54-1.59c-.12-.92-.39-1.59-.67-1.59Z"/><path class="cls-5" d="M141.63,182.67l-16.36-99.77c-.11-.7-.73-1.22-1.43-1.22h-4.63c-.8,0-1.4.67-1.32,1.47l10.14,98.81,13.6.71Z"/><path class="cls-14" d="M124.85,150.99l11.88,1.82-4.62-28.16c-1.81.13-3.17,1.62-3.1,3.47l.22,5.2h-6.2l1.81,17.66Z"/><g class="cls-7"><line class="cls-11" x1="130.6" y1="159.54" x2="123.84" y2="81.68"/></g><g class="cls-2"><line class="cls-9" x1="127.04" y1="156.2" x2="121.15" y2="82.19"/></g><path class="cls-5" d="M100.33,178.88l1.31-38.07c.1-2.81,2.4-5.03,5.21-5.03h24.01v-5.2c0-1.93,1.56-3.49,3.49-3.49h4.25c1.8,0,3.3,1.37,3.48,3.16l4.69,48.65h-46.44Z"/><g class="cls-15"><polygon class="cls-14" points="97.83 177.77 97.83 174.99 148.42 172.96 148.42 179.8 97.83 177.77"/><g class="cls-7"><line class="cls-11" x1="127.06" y1="154.27" x2="154.09" y2="154.27"/><line class="cls-11" x1="127.06" y1="133.92" x2="127.06" y2="177.4"/></g><g class="cls-2"><line class="cls-9" x1="124.29" y1="177.4" x2="124.29" y2="131.7"/><line class="cls-9" x1="130.02" y1="151.68" x2="130.02" y2="133.92"/><line class="cls-9" x1="130.02" y1="157.6" x2="130.02" y2="177.4"/></g></g><line class="cls-10" x1="141.49" y1="134.66" x2="145.18" y2="134.66"/><line class="cls-10" x1="142.03" y1="139.65" x2="145.72" y2="139.65"/><line class="cls-10" x1="142.57" y1="144.65" x2="146.26" y2="144.65"/><line class="cls-10" x1="143.11" y1="149.64" x2="146.8" y2="149.64"/><line class="cls-10" x1="143.65" y1="154.64" x2="147.34" y2="154.64"/><line class="cls-10" x1="144.19" y1="159.63" x2="147.88" y2="159.63"/><line class="cls-10" x1="144.73" y1="164.63" x2="148.42" y2="164.63"/><circle class="cls-13" cx="116.03" cy="154.27" r="6.64"/><circle class="cls-6" cx="116.03" cy="154.27" r="5.28"/><path class="cls-1" d="M116.03,149.47c-2.03,0-3.76,1.26-4.46,3.05.7,1.78,2.43,3.05,4.46,3.05s3.76-1.26,4.46-3.05c-.7-1.78-2.43-3.05-4.46-3.05Z"/><path class="cls-3" d="M144.36,177.56s-2.93-26.69-8.64-29.93c-5.7-3.25-30.27,15.28-35.4,31.24l44.03-1.31Z"/></g></g></g></svg>