<?xml version="1.0" encoding="UTF-8"?><svg xmlns="http://www.w3.org/2000/svg" xmlns:xlink="http://www.w3.org/1999/xlink" viewBox="0 0 300 300"><defs><style>.cls-1{stroke:#42496f;}.cls-1,.cls-2,.cls-3{fill:none;stroke-linecap:round;stroke-linejoin:round;stroke-width:.61px;}.cls-4{fill:#ffd66e;}.cls-5{fill:#e86170;}.cls-2{stroke:#f4af13;}.cls-6{filter:url(#drop-shadow-1);}.cls-7{isolation:isolate;}.cls-3{stroke:#a384bb;}.cls-8{mix-blend-mode:multiply;opacity:.5;}</style><filter id="drop-shadow-1" x="178.87" y="135.52" width="51.01" height="55.79" filterUnits="userSpaceOnUse"><feOffset dx="-1.22" dy="0"/><feGaussianBlur result="blur" stdDeviation="0"/><feFlood flood-color="#42496f" flood-opacity="1"/><feComposite in2="blur" operator="in"/><feComposite in="SourceGraphic"/></filter></defs><g class="cls-7"><g id="bateau_08"><g class="cls-6"><path class="cls-5" d="M203.29,188.56c-.15,2.23,2.44,3.58,4.18,2.18,7.04-5.67,19.79-17.45,19.79-28.48,0-12.41-3.42-15.32-3.42-15.32,0,0,3.96-.25,4.1-2.37,0,0-.11-7.72-2.2-8.92-1.6-.93-13.62,3.4-19.17,5.49-1.6.6-2.45,2.34-1.96,3.97.75,2.47,1.87,5.9,2.81,7.69-.82,3.37-2.72,14.77-3.03,19.21-.2,2.81-.74,10.96-1.1,16.56Z"/><path class="cls-4" d="M227.94,144.57s.78.36,1.58,1.45c.13.18.39.08.37-.19-.24-4.06-2.19-9.05-4.15-10.19-.51-.3-2.09-.05-4.17.48v11.01l2.27-.2s3.96-.25,4.1-2.37Z"/><path class="cls-2" d="M227.94,144.57s-3.09-.87-4.1.18"/><line class="cls-1" x1="215.5" y1="141.6" x2="220.56" y2="141.6"/><line class="cls-1" x1="218.03" y1="141.6" x2="218.92" y2="143.47"/><path class="cls-5" d="M209.95,153.17s-23.75-11.63-29.44-15.12c0,0-2.15,6.49,3.28,10.47,0,0-2.42,6.05,4.3,10.78,0,0-1.47,6.46,4.38,9.31s15.07,7.2,15.07,7.2l2.4-22.64Z"/><g class="cls-8"><path class="cls-3" d="M218.94,159.3c1.33-.92,2.23-2.44,2.4-4.05-.05.71.22,1.45.71,1.96.17.17.39.34.63.31.27-.03.45-.29.56-.54.41-.93.3-2.07-.29-2.9"/><path class="cls-3" d="M216.37,168.52c.51.24,1.12-.05,1.52-.45.68-.67,1.02-1.67.9-2.62"/><path class="cls-3" d="M222.09,166.08c.17.31.62.38.94.23s.54-.46.7-.78c.27-.5.46-1.04.57-1.6"/><path class="cls-3" d="M197.18,149.57c-.99-.16-1.93.73-2.06,1.73s.4,1.98,1.14,2.65,1.67,1.09,2.58,1.5c-1.05.44-1.77,1.57-1.73,2.71s.83,2.21,1.9,2.59c-1.02,1.88-.25,4.52,1.62,5.55"/><path class="cls-3" d="M193.56,153.17c-1.11.46-1.41,2.03-.86,3.1.55,1.07,1.69,1.71,2.82,2.12-.95.44-1.41,1.67-1.09,2.67s1.32,1.71,2.36,1.82"/></g></g></g></g></svg>