<?xml version="1.0" encoding="UTF-8"?>
<svg xmlns="http://www.w3.org/2000/svg" width="300" height="300" xmlns:xlink="http://www.w3.org/1999/xlink" viewBox="0 0 300 300">
  <defs>
    <filter id="b" data-name="drop-shadow-1" x="169.675" y="129.539" width="62.191" height="66.941" filterUnits="userSpaceOnUse">
      <feOffset dx="-1.219" dy="0"/>
      <feGaussianBlur result="c" stdDeviation="0"/>
      <feFlood flood-color="#42496f" flood-opacity="1"/>
      <feComposite in2="c" operator="in"/>
      <feComposite in="SourceGraphic"/>
    </filter>
    <clipPath id="d">
      <path d="M202.44,136.339c-5.507,1.807-10.335,8.424-8.529,15.616,1.807,7.192,13.25,7.192,13.25,7.192l-4.722-22.808Z" fill="none"/>
    </clipPath>
    <clipPath id="e">
      <path d="M210.033,161.411s-19.856,3.577-32.089,14.538c-12.233,10.961,22.765,2.636,27.757-.246,4.992-2.882,4.332-14.292,4.332-14.292Z" fill="none"/>
    </clipPath>
    <clipPath id="f">
      <path d="M209.324,149.157l-3.357,4.225s1.382,6.351,9.546,3.176l-.944-5.363s-3.906,0-5.245-2.037Z" fill="none"/>
    </clipPath>
  </defs>
  <g isolation="isolate">
    <g id="a" data-name="bateau 07">
      <g filter="url(#b)">
        <path d="M202.44,136.339c-5.507,1.807-10.335,8.424-8.529,15.616,1.807,7.192,13.25,7.192,13.25,7.192l-4.722-22.808Z" fill="#ffd66e"/>
        <g clip-path="url(#d)">
          <g mix-blend-mode="multiply" opacity=".5">
            <line x1="201.428" y1="140.145" x2="187.925" y2="145.363" fill="none" stroke="#f4af13" stroke-linecap="round" stroke-linejoin="round" stroke-width=".61"/>
            <line x1="201.275" y1="143.214" x2="188.845" y2="153.035" fill="none" stroke="#f4af13" stroke-linecap="round" stroke-linejoin="round" stroke-width=".61"/>
            <line x1="201.889" y1="146.283" x2="191.761" y2="158.713" fill="none" stroke="#f4af13" stroke-linecap="round" stroke-linejoin="round" stroke-width=".61"/>
            <line x1="202.656" y1="149.813" x2="197.285" y2="160.401" fill="none" stroke="#f4af13" stroke-linecap="round" stroke-linejoin="round" stroke-width=".61"/>
            <line x1="204.497" y1="153.956" x2="202.656" y2="160.401" fill="none" stroke="#f4af13" stroke-linecap="round" stroke-linejoin="round" stroke-width=".61"/>
          </g>
        </g>
        <path d="M194.025,193.012s6.295-9.324,9.48-16.042c3.185-6.718,5.943-14.396-.064-22.656s-5.866-20.392,4.458-23.747c10.325-3.356,14.605,2.834,18.948-.154-.469,2.377-3.117,5.832-3.117,5.832,3.356.824,6.441-1.467,6.441-1.467.068,4.365-4.427,7.395-6.554,11.054-4.341,7.469,10.717,7.14,7.892,23.089-4.171,23.548-35.764,27.544-35.764,27.544-2.192.196-2.843-1.637-1.721-3.454Z" fill="#6498d1"/>
        <path d="M210.033,161.411s-19.856,3.577-32.089,14.538c-12.233,10.961,22.765,2.636,27.757-.246,4.992-2.882,4.332-14.292,4.332-14.292Z" fill="#ffd66e"/>
        <g clip-path="url(#e)">
          <g mix-blend-mode="multiply" opacity=".5">
            <line x1="213.781" y1="161.858" x2="172.119" y2="177.894" fill="none" stroke="#f4af13" stroke-linecap="round" stroke-linejoin="round" stroke-width=".61"/>
            <line x1="212.323" y1="164.697" x2="171.199" y2="183.111" fill="none" stroke="#f4af13" stroke-linecap="round" stroke-linejoin="round" stroke-width=".61"/>
            <line x1="211.556" y1="168.227" x2="183.782" y2="184.492" fill="none" stroke="#f4af13" stroke-linecap="round" stroke-linejoin="round" stroke-width=".61"/>
          </g>
        </g>
        <path d="M209.324,149.157l-2.856,4.58s2.134,6.885,9.922,3.443l-1.579-5.814s-3.906,0-5.486-2.209Z" fill="#42496f"/>
        <path d="M209.324,149.157l-3.357,4.225s1.382,6.351,9.546,3.176l-.944-5.363s-3.906,0-5.245-2.037Z" fill="#ffd66e"/>
        <g clip-path="url(#f)">
          <g mix-blend-mode="multiply" opacity=".5">
            <line x1="210.942" y1="149.199" x2="205.878" y2="157.178" fill="none" stroke="#f4af13" stroke-linecap="round" stroke-linejoin="round" stroke-width=".61"/>
            <line x1="212.477" y1="148.892" x2="209.715" y2="159.02" fill="none" stroke="#f4af13" stroke-linecap="round" stroke-linejoin="round" stroke-width=".61"/>
            <line x1="213.704" y1="149.506" x2="213.704" y2="158.559" fill="none" stroke="#f4af13" stroke-linecap="round" stroke-linejoin="round" stroke-width=".61"/>
          </g>
        </g>
        <path d="M207.985,147.119s1.865,5.405,9.062,3.764" fill="none" stroke="#42496f" stroke-linecap="round" stroke-linejoin="round" stroke-width=".61"/>
        <path d="M214.452,140.041s-3.56-3.169-1.935-4.483,4.531,2.241,4.531,2.241" fill="none" stroke="#42496f" stroke-linecap="round" stroke-linejoin="round" stroke-width=".61"/>
        <path d="M219.261,136.339s-3.078-3.139-1.89-4.023c1.189-.884,4.084,2.012,4.084,2.012" fill="none" stroke="#42496f" stroke-linecap="round" stroke-linejoin="round" stroke-width=".61"/>
      </g>
    </g>
  </g>
</svg>