<?xml version="1.0" encoding="UTF-8"?>
<svg id="a" data-name="bateau 03" xmlns="http://www.w3.org/2000/svg" width="300" height="300" xmlns:xlink="http://www.w3.org/1999/xlink" viewBox="0 0 300 300">
  <defs>
    <filter id="b" data-name="drop-shadow-2" x="115.543" y="45.433" width="45.089" height="27.864" filterUnits="userSpaceOnUse">
      <feOffset dx="-1.219" dy="0"/>
      <feGaussianBlur result="c" stdDeviation="0"/>
      <feFlood flood-color="#42496f" flood-opacity="1"/>
      <feComposite in2="c" operator="in"/>
      <feComposite in="SourceGraphic"/>
    </filter>
    <clipPath id="d">
      <path d="M156.532,69.714c-10.836-1.872-16.253,1.288-27.089,2.317-1.023-8.933-1.534-13.411-2.557-22.397,10.836-.467,16.252-3.729,27.089-2.822,1.023,9.117,1.534,13.694,2.557,22.902Z" fill="none"/>
    </clipPath>
  </defs>
  <g filter="url(#b)">
    <g>
      <path d="M156.532,69.714c-10.836-1.872-16.253,1.288-27.089,2.317-1.023-8.933-1.534-13.411-2.557-22.397,10.836-.467,16.252-3.729,27.089-2.822,1.023,9.117,1.534,13.694,2.557,22.902Z" fill="#e86170"/>
      <g clip-path="url(#d)">
        <g>
          <path d="M126.886,49.634c9.915,6.74,20.707,11.954,29.646,20.08" fill="none" stroke="#ffd66e" stroke-miterlimit="10" stroke-width="3.657"/>
          <path d="M129.443,72.032c8.115-8.464,15.671-17.501,24.532-25.219" fill="none" stroke="#ffd66e" stroke-miterlimit="10" stroke-width="3.657"/>
          <path d="M124.381,67.998c3.735-2.74,5.602-4.41,9.336-7.796-4.373-2.154-6.559-3.249-10.932-6.364.638,5.679.958,8.511,1.596,14.16Z" fill="#fff"/>
          <path d="M160.632,66.517c-4.373-4.32-6.56-5.844-10.933-8.506,3.735-2.951,5.603-4.276,9.337-6.075.638,5.81.958,8.725,1.596,14.581Z" fill="#fff"/>
        </g>
      </g>
    </g>
    <path d="M127.14,53.27c-4.456.336-6.684.319-11.14-1.02" fill="none" stroke="#42496f" stroke-linecap="round" stroke-linejoin="round" stroke-width=".914"/>
    <path d="M129.179,71.137c-4.498.642-6.747.829-11.245-.031" fill="none" stroke="#42496f" stroke-linecap="round" stroke-linejoin="round" stroke-width=".914"/>
  </g>
</svg>