<?xml version="1.0" encoding="UTF-8"?><svg id="bateau_05" xmlns="http://www.w3.org/2000/svg" xmlns:xlink="http://www.w3.org/1999/xlink" viewBox="0 0 300 300"><defs><style>.cls-1{stroke:#42496f;stroke-linecap:round;stroke-linejoin:round;stroke-width:.61px;}.cls-1,.cls-2{fill:none;}.cls-3{fill:#ffd66e;}.cls-4{fill:#f4af13;}.cls-5{fill:#e86170;}.cls-6{filter:url(#drop-shadow-1);}.cls-7{fill:#42496f;}.cls-8{clip-path:url(#clippath);}</style><filter id="drop-shadow-1" x="173.32" y="131.01" width="61.58" height="57.12" filterUnits="userSpaceOnUse"><feOffset dx="-1.22" dy="0"/><feGaussianBlur result="blur" stdDeviation="0"/><feFlood flood-color="#42496f" flood-opacity="1"/><feComposite in2="blur" operator="in"/><feComposite in="SourceGraphic"/></filter><clipPath id="clippath"><path class="cls-2" d="M217.71,147.7s5.62,5.8,6.21,11.02h4.81c1.8,0,3.11,1.74,2.57,3.46-.69,2.22-2.43,6.69-6.42,6.81-1.4,2.79-3.39,4.71-6.55,5.51l-3.86,3.16h-7.37l-4.01-31.79,14.61,1.84Z"/></clipPath></defs><g class="cls-6"><path class="cls-3" d="M217.71,147.7s5.62,5.8,6.21,11.02h4.81c1.8,0,3.11,1.74,2.57,3.46-.69,2.22-2.43,6.69-6.42,6.81-1.4,2.79-3.39,4.71-6.55,5.51l-3.86,3.16h-7.37l-4.01-31.79,14.61,1.84Z"/><g class="cls-8"><circle class="cls-7" cx="231.43" cy="159.85" r="3.47"/><path class="cls-1" d="M226.72,169.42s-10.09-1.59-11.83-7.67"/></g><path class="cls-1" d="M221.68,155.65s1.65,3.1-.71,3.92c-2.36.83-3.3-2.86-3.3-2.86"/><path class="cls-5" d="M216.79,135.71c.02.94.04,1.88.05,2.82-4.76-3.74-10.42-6.34-16.36-7.51,1.55,1.94,3.09,3.88,4.64,5.82-4.76-.29-9.54-.17-14.27.35,2.06,1.95,4.11,3.91,6.17,5.86-3.65.23-6.9,2.43-9.47,5.04-2.57,2.6-4.65,5.65-7.21,8.25,1.55-.02,3.1-.04,4.65-.06-.92,3.85-1.85,7.73-3.43,11.37-1.58,3.64-3.85,7.05-7.03,9.41,2.13.47,4.37.45,6.49-.06-.99,1.96-1.75,4.02-2.26,6.15,2.69-.28,5.33-1.09,7.72-2.36-.88,2.76-2.46,5.29-4.54,7.31,6.26.25,12.56-.52,18.57-2.28,1.02-.3,2.11-.63,3.14-.33,1.02.3,1.83,1.55,1.28,2.46,2.87-2.73,5.74-5.45,8.61-8.18,1.73-1.64,3.47-3.3,4.81-5.27-1.47.35-3.24,1.13-4.03,1.12.78-1.8-.47-3.76-1.35-5.51-1.81-3.63-4.68-7.21-3.28-11.02.45-1.21.94-2.47.69-3.74-.35-1.83-1.71-4.02-3.38-4.75,4.58-1.03,7.49.54,12.09-1.3,1.63-4.52.74-9.87-2.3-13.59Z"/><path class="cls-3" d="M199.94,158.03c2.37-1.66,2.77-6.42,2.77-6.42,0,0-4.66-3.6-6.37-1.06s3.6,7.48,3.6,7.48Z"/><path class="cls-4" d="M200.88,156.39c1.17-.71,1.36-2.76,1.36-2.76,0,0-2.29-1.55-3.14-.46-.84,1.09,1.77,3.22,1.77,3.22Z"/></g></svg>