<?xml version="1.0" encoding="UTF-8"?><svg xmlns="http://www.w3.org/2000/svg" xmlns:xlink="http://www.w3.org/1999/xlink" viewBox="0 0 300 300"><defs><style>.cls-1{fill:#e86170;}.cls-2,.cls-3,.cls-4{fill:none;}.cls-3{stroke-width:1px;}.cls-3,.cls-4{stroke:#42496f;stroke-miterlimit:10;}.cls-5{clip-path:url(#clippath-1);}.cls-6{isolation:isolate;}.cls-7{fill:#a384bb;mix-blend-mode:multiply;opacity:.25;}.cls-8{filter:url(#drop-shadow-3);}.cls-4{stroke-width:1.22px;}.cls-9{fill:#42496f;}.cls-10{clip-path:url(#clippath);}</style><filter id="drop-shadow-3" x="43.05" y="45.47" width="121.35" height="139.39" filterUnits="userSpaceOnUse"><feOffset dx="-1.22" dy="0"/><feGaussianBlur result="blur" stdDeviation="0"/><feFlood flood-color="#42496f" flood-opacity="1"/><feComposite in2="blur" operator="in"/><feComposite in="SourceGraphic"/></filter><clipPath id="clippath"><polygon class="cls-2" points="156.16 68.94 141.32 77 126.47 87.65 114.31 99.83 103.48 119.22 96.06 134.92 160.27 158.07 160.58 113.23 156.16 68.94"/></clipPath><clipPath id="clippath-1"><polygon class="cls-2" points="109.01 49.4 92.54 61.7 76.51 77.11 63.98 93.9 54.31 119.13 48.1 139.34 129.48 156.05 122.05 101.98 109.01 49.4"/></clipPath></defs><g class="cls-6"><g id="bateau_09"><g class="cls-8"><polygon class="cls-1" points="156.16 68.94 141.32 77 126.47 87.65 114.31 99.83 103.48 119.22 96.06 134.92 160.27 158.07 160.58 113.23 156.16 68.94"/><g class="cls-10"><polygon class="cls-7" points="160.58 113.23 153.56 80.65 141.05 87.08 130.33 99.23 121.75 114.6 118.54 132.11 117.82 150.69 160.7 160.34 160.58 113.23"/></g><path class="cls-9" d="M156.36,181.43l5.58-112.53c.04-.72.68-1.26,1.4-1.15h0c.61.09,1.06.62,1.05,1.24l-2.18,113.11-5.85-.66Z"/><polyline class="cls-3" points="140.05 74.62 160.58 113.23 155.84 65.75"/><line class="cls-3" x1="124.63" y1="85.9" x2="160.29" y2="120.26"/><line class="cls-3" x1="112.15" y1="98.25" x2="159.61" y2="133.76"/><line class="cls-3" x1="101.23" y1="118.16" x2="159.28" y2="145.41"/><line class="cls-3" x1="158.81" y1="157.5" x2="93.12" y2="133.85"/><polygon class="cls-1" points="109.01 49.4 92.54 61.7 76.51 77.11 63.98 93.9 54.31 119.13 48.1 139.34 129.48 156.05 122.05 101.98 109.01 49.4"/><g class="cls-5"><path class="cls-7" d="M122.47,106.02l-15.37-43.95-10.36,10.72-11.08,15.01-12.51,17.51-7.15,22.51-3.57,19.65s66.64,11.61,66.11,10.72-6.07-52.17-6.07-52.17Z"/></g><path class="cls-9" d="M128.85,184.86l-12.87-136.52c-.08-.88.61-1.63,1.48-1.63h0c.75,0,1.39.56,1.48,1.31l17.06,136.62-7.16.22Z"/><polyline class="cls-4" points="90.59 59.05 122.05 101.98 108.07 45.61"/><line class="cls-4" x1="73.99" y1="75.32" x2="122.92" y2="110.5"/><line class="cls-4" x1="61.1" y1="92.36" x2="124.45" y2="126.88"/><line class="cls-4" x1="51.42" y1="118.26" x2="126.09" y2="140.97"/><line class="cls-4" x1="44.39" y1="138.57" x2="127.62" y2="155.61"/></g></g></g></svg>