<?xml version="1.0" encoding="UTF-8"?>
<svg xmlns="http://www.w3.org/2000/svg" width="300" height="300" xmlns:xlink="http://www.w3.org/1999/xlink" viewBox="0 0 300 300">
  <defs>
    <linearGradient id="b" data-name="Dégradé sans nom 10" x1="83.413" y1="54.503" x2="139.201" y2="54.503" gradientUnits="userSpaceOnUse">
      <stop offset="0" stop-color="#9bc8ec" stop-opacity="0"/>
      <stop offset="1" stop-color="#9bc8ec" stop-opacity=".5"/>
    </linearGradient>
    <filter id="c" data-name="drop-shadow-3" x="113.03" y="71.691" width="43.44" height="106.297" filterUnits="userSpaceOnUse">
      <feOffset dx="-1.219" dy="0"/>
      <feGaussianBlur result="d" stdDeviation="0"/>
      <feFlood flood-color="#42496f" flood-opacity="1"/>
      <feComposite in2="d" operator="in"/>
      <feComposite in="SourceGraphic"/>
    </filter>
  </defs>
  <g isolation="isolate">
    <g id="a" data-name="bateau 07">
      <g>
        <path d="M138.325,72.486s2.268-5.096-.493-7.856c-2.76-2.76-3.072-.757-5.417-1.772-1.16-.502-2.09.74-2.09.74,0,0,1.25-6.675-3.111-5.709-1.16-7.936-5.641-14.491-8.161-14.491s-3.881,1.863-4.881,1.38c-1-4.899-2.8-9.385-7.041-8.005-4.241,1.38-10.761,9.316-10.241,10.903s1.954,2.991-.843,2.945c-2.797-.046-5.918-7.016-7.398-4.187-1.48,2.829-1.6,6.693-4.241,7.522-2.64.828.44,12.904,3.761,10.765,3.32-2.139,3.2-5.589,5.841-3.45s2.2.759,3.2.552c1-.207,1.16,4.209,3.841,2.898,2.68-1.311,2.828-3.039,3.614-.381s.186,7.598,2.547,5.922,3.015-3.47,3.608-2.918,1.673,1.311,3.753,1.242c2.08-.069,2.343,3.663,2.343,3.663l6.319-.255.1-.907s.083-.572-.442-2.05c2.287.157,9.288.753,9.262,2.801l6.171.648Z" fill="url(#b)"/>
        <g filter="url(#c)">
          <polygon points="133.381 81.481 138.344 81.481 140.688 177.987 131.037 177.987 133.381 81.481" fill="#336a9b"/>
          <polygon points="131.266 168.576 140.443 167.912 140.066 152.375 131.69 151.113 131.266 168.576" fill="#42496f"/>
          <polygon points="133.381 81.481 138.344 81.481 142.376 76.586 129.35 76.586 133.381 81.481" fill="#42496f"/>
          <polygon points="129.35 76.586 142.376 76.586 138.344 71.691 133.381 71.691 129.35 76.586" fill="#336a9b"/>
          <rect x="120.624" y="156.48" width="35.845" height="20.404" fill="#a384bb"/>
          <polygon points="128.396 176.885 120.624 176.885 120.624 156.48 126.238 156.48 128.396 176.885" fill="#42496f"/>
          <rect x="140.339" y="156.48" width="16.13" height="20.404" fill="#a384bb" mix-blend-mode="multiply" opacity=".25"/>
          <polygon points="118.281 81.481 123.244 81.481 125.587 177.987 115.937 177.987 118.281 81.481" fill="#336a9b"/>
          <polygon points="118.281 81.481 123.244 81.481 127.275 76.586 114.249 76.586 118.281 81.481" fill="#42496f"/>
          <polygon points="114.249 76.586 127.275 76.586 123.244 71.691 118.281 71.691 114.249 76.586" fill="#336a9b"/>
        </g>
      </g>
    </g>
  </g>
</svg>