<?xml version="1.0" encoding="UTF-8"?><svg id="bateau_01" xmlns="http://www.w3.org/2000/svg" xmlns:xlink="http://www.w3.org/1999/xlink" viewBox="0 0 300 300"><defs><style>.cls-1{filter:url(#drop-shadow-2);}.cls-2{fill:#6498d1;}.cls-3{fill:none;stroke:#42496f;stroke-linecap:round;stroke-linejoin:round;stroke-width:1.22px;}.cls-4{fill:#42496f;}</style><filter id="drop-shadow-2" x="114.85" y="44.09" width="48.78" height="30.83" filterUnits="userSpaceOnUse"><feOffset dx="-1.22" dy="0"/><feGaussianBlur result="blur" stdDeviation="0"/><feFlood flood-color="#42496f" flood-opacity="1"/><feComposite in2="blur" operator="in"/><feComposite in="SourceGraphic"/></filter></defs><g class="cls-1"><path class="cls-4" d="M122.97,70.54l-4.03.98c.13,1.11.26,2.23.4,3.39,1.84.1,3.2-.31,4.17-.88-.18-1.17-.36-2.33-.54-3.48Z"/><path class="cls-4" d="M136.55,71.69l-.1-5.33h2s1.25,4.26-1.9,5.33Z"/><path class="cls-2" d="M116.07,51.35s22.62-12.88,23-4.34c0,0-.19,3.17-.19,6.33,6.33-2.69,16.21-3.07,21.1-2.69-8.25,2.97-13.05,8.63-13.05,8.63,0,0,12.85-.29,16.69.58-10.55,3.93-23.02,14.58-26.09,13.05-3.07-1.53,2.21-4.12-.58-5.37-2.78-1.25-18.27,6.55-18.27,6.55l-2.62-22.73Z"/><line class="cls-3" x1="128.51" y1="52.02" x2="136.45" y2="64.62"/><path class="cls-3" d="M137.77,55.43c-1.09.05-3.47.32-5.93,1.87s-3.73,3.58-4.25,4.54l-4.17-6.61c1.09-.05,3.47-.32,5.93-1.87s3.73-3.58,4.25-4.54l4.17,6.61Z"/><path class="cls-4" d="M138.88,53.34v8.01s2.69-4.27,2.65-8.95l-2.65.94Z"/></g></svg>