<?xml version="1.0" encoding="UTF-8"?>
<svg xmlns="http://www.w3.org/2000/svg" width="300" height="300" xmlns:xlink="http://www.w3.org/1999/xlink" viewBox="0 0 300 300">
  <defs>
    <filter id="b" data-name="drop-shadow-4" x="73.424" y="45.21" width="105.449" height="135.032" filterUnits="userSpaceOnUse">
      <feOffset dx="-1.219" dy="0"/>
      <feGaussianBlur result="c" stdDeviation="0"/>
      <feFlood flood-color="#42496f" flood-opacity="1"/>
      <feComposite in2="c" operator="in"/>
      <feComposite in="SourceGraphic"/>
    </filter>
  </defs>
  <g isolation="isolate">
    <g id="a" data-name="bateau 02">
      <g filter="url(#b)">
        <path d="M135.881,180.243s-5.916-81.718-16.385-133.877c-.136-.677-.731-1.156-1.421-1.156h0c-.872,0-1.547.758-1.437,1.623,1.595,12.536,12.023,94.466,12.023,133.409h7.221Z" fill="#f4af13"/>
        <path d="M133.431,151.357l-5.904.724c.199,2.988.375,5.905.527,8.737,1.959-.668,4.127-1.474,6.027-2.34-.2-2.245-.417-4.621-.65-7.121Z" fill="#42496f"/>
        <g>
          <path d="M173.985,154.203c-28.878,0-57.756,0-86.635,0,.684-27.046-2.118-52.238-8.431-78.542,28.878,0,57.756,0,86.635,0,6.312,26.304,9.114,51.496,8.431,78.542Z" fill="#42496f"/>
          <path d="M96.246,75.66c6.313,26.304,9.115,51.496,8.431,78.542" fill="none" opacity=".25" stroke="#9bc8ec" stroke-miterlimit="10" stroke-width="1.219"/>
          <path d="M113.573,75.66c6.313,26.304,9.115,51.496,8.431,78.543" fill="none" opacity=".25" stroke="#9bc8ec" stroke-miterlimit="10" stroke-width="1.219"/>
          <path d="M130.9,75.66c6.313,26.304,9.115,51.496,8.431,78.543" fill="none" opacity=".25" stroke="#9bc8ec" stroke-miterlimit="10" stroke-width="1.219"/>
          <path d="M148.227,75.66c6.313,26.304,9.115,51.496,8.431,78.542" fill="none" opacity=".25" stroke="#9bc8ec" stroke-miterlimit="10" stroke-width="1.219"/>
          <g>
            <path d="M148.26,110.055c1.373,9.617-6.393,17.826-16.054,17.726-9.872-.102-18.006-8.074-19.296-17.726-1.299-9.716,5.182-17.845,14.804-17.708,9.915.141,19.134,7.812,20.547,17.708Z" fill="#fff"/>
            <path d="M127.509,125.717s.568,10.829,3.415,9.784c2.847-1.045.968-7.219.968-7.219,0,0,4.31,7.245,6.79,6.278,2.479-.967-1.207-7.325-1.207-7.325,0,0,4.489,4.632,6.844,3.036,2.355-1.596-1.948-7.172-1.948-7.172-5.939,1.048-8.911,1.571-14.861,2.618Z" fill="#fff"/>
            <path d="M135.159,115.594c1.75-1.521,2.619-2.281,4.345-3.801,1.313,2.118.589,4.384-.861,4.928-1.021.383-2.427-.076-3.484-1.126Z" fill="#42496f"/>
            <path d="M129.726,115.313c-2.706-1.436-4.065-2.154-6.792-3.59-.671,2.622,1.054,5.196,2.999,5.632,1.42.318,3.008-.495,3.792-2.041Z" fill="#42496f"/>
            <path d="M132.712,117.776c-.575.031-.874,2.015-.855,4.716,1.2-.084,1.801-.127,3.001-.211-.683-2.63-1.573-4.536-2.146-4.505Z" fill="#42496f"/>
            <path d="M145.651,100.289c.715,1.265,1.069,1.898,1.768,3.164,1.087-1.519,1.624-2.279,2.688-3.797,0,0,3.222,6.259,6.126,5.486s-1.011-7.172-5.908-7.875c0,0,1.438-8.633-1.726-9.474-3.164-.841-.64,9.193-.64,9.193-.914,1.321-1.376,1.981-2.308,3.303Z" fill="#fff"/>
            <path d="M112.073,100.289c-2.376-1.8-3.571-2.699-5.979-4.497,0,0,3.393-6.843,1.656-8.839-1.736-1.997-5.893.945-6.152,2.734-.259,1.788,1.804,4.842,1.804,4.842,0,0-6.823.07-7.604,1.756-.781,1.686.809,2.389,2.833,2.529,2.024.141,5.736-.914,5.736-.914,2.765,2.164,4.137,3.247,6.855,5.413.347-1.21.517-1.815.85-3.024Z" fill="#fff"/>
            <path d="M122.115,126.186c-3.135,2.842-4.722,4.263-7.938,7.101-2.321-2.213-4.358-3.62-5.091-2.741-.732.879-1.147,5.094-.412,7.164.735,2.07,3.859,1.895,6.449-.421-1.772,2.912.974,7.255,2.771,6.1,1.797-1.156-.209-7.714-.209-7.714,3.235-3.145,4.828-4.721,7.964-7.871-1.412-.647-2.119-.97-3.534-1.618Z" fill="#fff"/>
            <path d="M147.01,121.542c-.896,1.07-1.347,1.605-2.254,2.674,2.939,3.067,4.384,4.601,7.228,7.665-1.292,2.811-2.653,8.073-.37,8.494,2.283.421,2.775-8.002,2.775-8.002,3.729,4.919,6.105.808,7.195-.843s.269-7.173-1.866-7.103c-2.135.07-5.364,4.08-5.364,4.08-2.899-2.785-4.368-4.177-7.344-6.964Z" fill="#fff"/>
          </g>
          <path d="M173.985,154.203c-28.878,0-57.756,0-86.635,0,.566-9.88.46-20.063-.296-29.929,22.933,19.088,58.129,24.026,87.115,25.531-.058,1.761-.095,2.641-.185,4.398Z" fill="#a384bb" mix-blend-mode="multiply" opacity=".25"/>
        </g>
        <rect x="83.623" y="152.725" width="95.251" height="2.955" rx="1.478" ry="1.478" fill="#f4af13"/>
        <rect x="74.644" y="74.183" width="95.251" height="2.955" rx="1.478" ry="1.478" fill="#f4af13"/>
      </g>
    </g>
  </g>
</svg>