<?xml version="1.0" encoding="UTF-8"?><svg id="bateau_07" xmlns="http://www.w3.org/2000/svg" xmlns:xlink="http://www.w3.org/1999/xlink" viewBox="0 0 300 300"><defs><style>.cls-1{stroke:#42496f;}.cls-1,.cls-2{fill:none;stroke-linecap:round;stroke-linejoin:round;stroke-width:.61px;}.cls-3{fill:#ffd66e;}.cls-4{filter:url(#drop-shadow-2);}.cls-5{fill:#f4af13;}.cls-6{fill:#b1ddea;}.cls-7{fill:#a384bb;}.cls-2{stroke:#ffd66e;}.cls-8{fill:#93d1ad;}.cls-9{fill:#336a9b;}</style><filter id="drop-shadow-2" x="100.79" y="12.81" width="75.62" height="59.19" filterUnits="userSpaceOnUse"><feOffset dx="-1.22" dy="0"/><feGaussianBlur result="blur" stdDeviation="0"/><feFlood flood-color="#42496f" flood-opacity="1"/><feComposite in2="blur" operator="in"/><feComposite in="SourceGraphic"/></filter></defs><g class="cls-4"><path class="cls-5" d="M163.54,23.73c-1.41-1.26-3.7-1.38-5.23-.29-2.21,1.57-2.38,4.75-2.24,7.46s.23,5.81-1.74,7.68c-1.69,1.6-4.3,1.66-6.62,1.41-1.98-.21-3.95-.59-5.89-1.05-1.38-.33-4.45-1.21-5.6.1-2.24,2.56,6.38,3.59,7.88,3.9,3.7.75,7.48,1.2,11.25.87,2.68-.24,5.51-.97,7.27-3,1.12-1.29,1.7-2.96,2.09-4.62.54-2.29.78-4.65.72-7.01-.05-1.98-.41-4.13-1.89-5.45Z"/><path class="cls-8" d="M132.52,36.26c-6.23-1.22-15.02,5.66-16.83,19.03l24.15.31c-2.6-7.86.71-17.77-7.31-19.35Z"/><path class="cls-8" d="M144.15,26.2c-.17-1.04.09-3.41-.07-4.37-.31-1.83-1.45-3.55-3.01-4.86-1.55-1.3-3.24-1.7-5.25-1.96-3.55-.46-7.29.59-10.02,2.91-2.72,2.32-4.36,5.9-4.25,9.48.1,3.23,1.57,6.32,3.63,8.81,2.24,2.71,5.5,4.9,9,4.69,1.93-.12,3.76-.95,5.36-2.04,2.13-1.44,4.09-3.38,4.96-5.79.63-1.76.05-4.31-.36-6.87Z"/><path class="cls-8" d="M123.31,22.18s-.41-6.05.88-8.32c1.3-2.27-4.72-1.36-1.59,7.31,0,0-2.62-4.46-2.77-5.72-.21-1.65-4.19,2.89,3.48,6.72Z"/><path class="cls-1" d="M131.72,31.12s2.57-.24,5.63.62c0,0-3.86.77-5.72,1.83"/><path class="cls-1" d="M140.66,29.88s-1.73-5.31-.16-8.42c1.57-3.11,3.57.37,3.57.37"/><path class="cls-9" d="M171.53,15.52c-4.65.66-17.24,2.97-20.58,4.13-2.23,3.43-4.33,11.57,1.35,15.92,0,0,9.79-1.4,20.77-.29,3.8-.07,3.15-20.22-1.54-19.76Z"/><ellipse class="cls-6" cx="172.74" cy="25.39" rx="3.64" ry="7.52" transform="translate(-1.44 13.41) rotate(-4.43)"/><path class="cls-9" d="M153.35,22.57s-7.53,1.59-11.46,2.38c-1.16.23-1.71,1.24-1.12,4.29s2.05,3.03,2.6,2.95c3.19-.49,11.57-1.47,11.57-1.47l-1.58-8.14Z"/><path class="cls-3" d="M147.13,36.7c-1-.94-2.09-1.77-3.05-2.75-.47-.48-.91-.98-1.28-1.55-.26-.39-.53-1.49-.99-1.65-.28-.1-.61.04-.8.27-.2.23-.29.53-.36.82-.28,1.14-.32,2.33-.27,3.5,0,.23.03.47.15.65.11.16.29.27.46.36,1.85.98,4.06,1.24,6.09.72.06-.02.13-.04.17-.09.06-.1-.03-.21-.11-.29Z"/><path class="cls-3" d="M156.95,21.26c.4-.64,1.24-1.44,1.35-2.2.26-1.69-2.09-.41-2.8.03-2.2,1.36-3.43,3.91-3.84,6.38.19-1.12.21-2.25.2-3.38,0-.89.29-2.93-.11-3.7-.94-1.79-2.85,1.7-3.09,2.77-1.03,4.62.68,9.34,1.56,13.99.2,1.08.36,2.24-.04,3.27-.53,1.35-1.93,2.19-3.35,2.46-1.42.26-2.88.04-4.31-.19-1.9-.3-3.81-.6-5.71-.9-1.27-.2-2.78-.94-4.08-.64-1.19.28-2.37,1.54-1.59,2.8.49.78,1.41,1.15,2.28,1.43,4.37,1.41,9,1.73,13.58,2.03,2.34.16,4.86.27,6.86-.97,2.32-1.44,3.3-4.39,3.29-7.12,0-2.73-.81-5.39-1.23-8.1s-.42-5.64,1.03-7.96Z"/><path class="cls-3" d="M116.69,53.68c.06-.93-.44-2.45-.58-3-.54-2.06-1.31-4.07-2.49-5.85-1.74-2.63-4.46-4.73-7.58-5.16-.79-.11-1.86.11-1.94.9-.05.49.33.9.68,1.24,2.83,2.75,5.66,5.5,8.48,8.24-.96-.86-2.01-1.61-3.08-2.32-1.26-.84-2.57-1.65-4.02-2.1-.82-.25-4.15-.87-4.15.49,0,.96,2.39,1.65,3.06,1.91,3.3,1.26,6.75,2.54,9.14,5.14.38.41.74.86,1.24,1.1.88.42,1.19.05,1.24-.59Z"/><polygon class="cls-7" points="140.8 71.69 115.71 71.69 112.23 51.79 144.28 51.79 140.8 71.69"/><line class="cls-2" x1="114.55" y1="51.79" x2="117.53" y2="71.69"/><line class="cls-2" x1="119.12" y1="51.79" x2="121.1" y2="71.69"/><line class="cls-2" x1="123.69" y1="51.79" x2="124.68" y2="71.69"/><line class="cls-2" x1="128.26" y1="51.79" x2="128.26" y2="71.69"/><line class="cls-2" x1="132.82" y1="51.79" x2="131.83" y2="71.69"/><line class="cls-2" x1="137.39" y1="51.79" x2="135.41" y2="71.69"/><line class="cls-2" x1="141.96" y1="51.79" x2="138.99" y2="71.69"/></g></svg>