<?xml version="1.0" encoding="UTF-8"?><svg xmlns="http://www.w3.org/2000/svg" xmlns:xlink="http://www.w3.org/1999/xlink" viewBox="0 0 300 300"><defs><style>.cls-1{fill:#ffd66e;}.cls-2{fill:#b1ddea;}.cls-3,.cls-4{fill:#fff;}.cls-5{stroke:#e86170;}.cls-5,.cls-6{stroke-linecap:round;stroke-linejoin:round;stroke-width:1.22px;}.cls-5,.cls-6,.cls-7{fill:none;}.cls-5,.cls-4,.cls-8,.cls-9,.cls-10{opacity:.5;}.cls-5,.cls-8,.cls-11,.cls-10{mix-blend-mode:multiply;}.cls-6{stroke:#ffd66e;}.cls-12,.cls-8{fill:#e86170;}.cls-13{isolation:isolate;}.cls-11{opacity:.25;}.cls-11,.cls-14{fill:#a384bb;}.cls-15{fill:#6498d1;}.cls-16{filter:url(#drop-shadow-3);}.cls-17,.cls-9{fill:#9bc8ec;}.cls-18{fill:#42496f;}.cls-19{fill:#336a9b;}.cls-20{clip-path:url(#clippath);}</style><clipPath id="clippath"><path class="cls-7" d="M27.11,96.93v129.24c1.89.35,3.97.55,6.16.55,5.08,0,9.57-1.04,12.41-2.65.14,0,.28-.01.41-.02,1.53,1.62,3.96,2.67,6.71,2.67s5.18-1.05,6.71-2.67c1.96,1.62,5.06,2.67,8.57,2.67,2.89,0,5.51-.71,7.43-1.87,2.25,1.16,5.31,1.87,8.68,1.87,2.91,0,5.58-.53,7.7-1.42.52.89,1.18,1.42,1.9,1.42s1.35-.52,1.87-1.38c2.11.86,4.74,1.38,7.61,1.38,3.75,0,7.1-.88,9.39-2.27,1.96,1.39,4.84,2.27,8.04,2.27,2.98,0,5.67-.76,7.61-1.97,2.27,1.22,5.41,1.97,8.89,1.97.15,0,.3-.02.45-.02.31,0,.61.02.93.02,5.08,0,9.57-1.04,12.41-2.65.14,0,.28-.01.41-.02,1.53,1.62,3.96,2.67,6.71,2.67s5.18-1.05,6.71-2.67c1.96,1.62,5.06,2.67,8.57,2.67,2.89,0,5.51-.71,7.43-1.87,2.25,1.16,5.31,1.87,8.68,1.87,2.91,0,5.58-.53,7.7-1.42.52.89,1.18,1.42,1.9,1.42s1.35-.52,1.87-1.38c2.11.86,4.74,1.38,7.61,1.38,3.75,0,7.1-.88,9.39-2.27,1.96,1.39,4.84,2.27,8.04,2.27,2.98,0,5.67-.76,7.61-1.97,2.27,1.22,5.41,1.97,8.89,1.97.62,0,1.23-.04,1.82-.08V96.93H27.11Z"/></clipPath><filter id="drop-shadow-3" x="55.1" y="135.75" width="171.57" height="98.23" filterUnits="userSpaceOnUse"><feOffset dx="-1.22" dy="0"/><feGaussianBlur result="blur" stdDeviation="0"/><feFlood flood-color="#42496f" flood-opacity="1"/><feComposite in2="blur" operator="in"/><feComposite in="SourceGraphic"/></filter></defs><g class="cls-13"><g id="bateau_07"><g class="cls-20"><path class="cls-3" d="M223.5,229.72s12.46-16.65,7.99-18.23c-4.46-1.58-22.19,13.79-22.19,13.79l14.19,4.44Z"/><path class="cls-17" d="M220.29,233.79s12.46-16.65,7.99-18.23c-4.46-1.58-22.19,13.79-22.19,13.79l14.19,4.44Z"/><path class="cls-3" d="M232.16,225.03c-.52.26-1.03-.08-1.14-.43-.13-.41.06-.86.45-1.02.42-.16.88.04,1.04.46.03.07.04.14.07.21.21.57.18.63-.42.78Z"/><path class="cls-3" d="M233.29,212.48c.11.38-.1.78-.48.9-.4.13-.81-.09-.92-.49-.1-.38.12-.78.5-.89.37-.11.78.11.9.48Z"/><path class="cls-3" d="M226.52,217.91c.09.32-.06.56-.42.68-.35.11-.71-.07-.81-.41-.1-.33.1-.67.43-.76.35-.1.68.1.8.49Z"/><path class="cls-3" d="M223.83,221.51c-.09-.33.09-.65.41-.74.32-.08.64.11.73.43.09.35-.09.7-.41.78-.32.08-.64-.12-.74-.48Z"/><path class="cls-3" d="M232.49,220.05c.09.32-.09.66-.4.75-.32.1-.65-.08-.75-.4-.1-.32.08-.65.4-.75.32-.1.65.07.75.4Z"/><path class="cls-3" d="M227.57,228.28c.08.3-.12.62-.43.69-.3.07-.6-.11-.68-.4-.09-.31.09-.62.4-.7.31-.08.62.1.7.41Z"/><path class="cls-3" d="M229.91,210.4c.3-.08.59.09.68.39.09.31-.09.62-.41.7-.3.07-.6-.1-.68-.39-.09-.31.09-.62.41-.7Z"/><path class="cls-3" d="M225.25,225.69c-.07-.29.08-.56.35-.62.28-.06.58.12.65.39.07.28-.08.54-.36.62-.29.08-.56-.09-.64-.38Z"/><path class="cls-3" d="M236.01,213.17c.02.08.05.16.07.24.04.25-.07.43-.33.47-.26.04-.41-.1-.46-.34-.03-.13-.01-.26-.04-.39-.04-.24.02-.42.27-.47.25-.06.38.09.44.32.01.06.03.12.05.17h0Z"/><path class="cls-3" d="M222.59,216.39c-.08-.27.06-.56.32-.64.26-.08.58.1.66.37.07.26-.1.56-.35.63-.26.07-.54-.09-.62-.36Z"/><path class="cls-3" d="M239.65,221.63c.3-.09.57.02.66.27.08.24-.06.53-.32.61-.26.08-.73-.17-.8-.43-.05-.2.08-.34.46-.46Z"/><path class="cls-3" d="M237.35,224.87c-.07-.27.1-.55.38-.61.29-.06.5.07.59.35.09.27-.07.54-.36.62-.28.07-.55-.09-.62-.36Z"/><path class="cls-3" d="M240.12,217.19c.06.26-.12.55-.39.61-.28.06-.52-.09-.58-.36-.06-.27.11-.55.38-.61.26-.06.54.11.59.36Z"/><path class="cls-3" d="M233.07,215.63c.25-.07.53.08.61.33.08.26-.09.55-.37.62-.26.06-.53-.1-.59-.35-.06-.25.1-.53.35-.6Z"/><path class="cls-3" d="M235,221.81c-.23.03-.42-.06-.5-.32-.07-.24.08-.52.32-.57.26-.05.45.06.54.31.08.23-.09.5-.36.57Z"/><path class="cls-3" d="M227.83,213.39c-.15-.12-.36-.21-.44-.37-.12-.23.04-.43.27-.5.24-.08.47.03.51.27.03.17-.11.36-.17.55l-.17.05Z"/><path class="cls-3" d="M228.37,220.55c.25.16.43.23.52.36.03.05-.12.31-.23.36-.2.09-.39-.02-.42-.26-.01-.11.06-.22.13-.46Z"/><path class="cls-3" d="M226.06,216.43c.16-.19.24-.36.34-.38.11-.02.24.11.37.18-.07.12-.11.3-.22.35-.1.04-.25-.07-.5-.14Z"/><path class="cls-3" d="M230.13,214.96c-.15.18-.22.34-.32.35-.1.02-.23-.1-.34-.16.07-.12.1-.29.21-.35.07-.04.23.07.45.15Z"/><path class="cls-3" d="M236.89,211.17c-.16.19-.24.35-.33.36-.1.01-.27-.09-.32-.19-.03-.06.08-.26.17-.29.1-.03.24.05.48.12Z"/><path class="cls-3" d="M234.63,216.59c.18.16.33.23.34.33.01.1-.11.22-.18.33-.11-.07-.28-.11-.32-.2-.04-.09.07-.23.15-.46Z"/><path class="cls-3" d="M235.77,218.7c.17.13.32.19.33.28.02.09-.08.26-.16.29-.08.02-.25-.07-.29-.15-.04-.08.05-.21.12-.41Z"/><path class="cls-3" d="M225.35,213.71c.16.14.3.2.33.29.02.08-.08.27-.14.27-.1.01-.27-.06-.31-.14-.04-.07.06-.21.13-.42Z"/><path class="cls-3" d="M226.87,212.42c-.16-.14-.31-.21-.32-.29-.01-.1.1-.21.15-.31.1.06.26.1.29.18.03.08-.06.22-.12.42Z"/><path class="cls-3" d="M233.69,226.1c.13.11.28.18.28.24,0,.1-.1.2-.16.3-.1-.07-.23-.11-.28-.2-.03-.06.08-.18.16-.34Z"/><path class="cls-3" d="M229.07,228.74c.13-.13.2-.27.28-.27.1,0,.19.12.29.18-.07.08-.12.22-.2.24-.08.02-.19-.07-.36-.15Z"/><path class="cls-3" d="M229,215.98c-.1.13-.15.27-.22.28-.09,0-.2-.07-.29-.12.06-.09.1-.22.18-.26.06-.03.18.05.33.1Z"/><path class="cls-3" d="M228.93,218.57c-.1.13-.15.24-.22.27-.05.02-.21-.08-.21-.12,0-.09.06-.2.13-.25.04-.03.16.05.3.1Z"/><g class="cls-16"><rect class="cls-1" x="71.55" y="146.54" width="35.98" height="29.74"/><rect class="cls-11" x="93.76" y="146.54" width="13.77" height="29.74"/><rect class="cls-14" x="79.01" y="135.75" width="21.06" height="12.17"/><path class="cls-14" d="M100.06,135.75c-7.03,0-12.74,12.17-12.74,12.17h25.47s-5.7-12.17-12.74-12.17Z"/><path class="cls-14" d="M79.01,135.75c-7.03,0-12.74,12.17-12.74,12.17h25.47s-5.7-12.17-12.74-12.17Z"/><path class="cls-11" d="M100.06,135.75c-7.03,0-12.74,12.17-12.74,12.17h25.47s-5.7-12.17-12.74-12.17Z"/><rect class="cls-18" x="73.7" y="152.97" width="17.46" height="12.11"/><path class="cls-18" d="M100.01,150.28c-2.52.31-4.48,2.44-4.48,5.05v21.31h8.97v-21.31c0-2.61-1.96-4.74-4.48-5.05Z"/><path class="cls-8" d="M100.64,150.22h0c-.22,0-.42.04-.63.06,2.52.31,4.48,2.44,4.48,5.05v21.31h1.26v-21.31c0-2.82-2.29-5.11-5.11-5.11Z"/><path class="cls-9" d="M74.32,158.27c2.43.51,5.17.81,8.08.81s5.7-.3,8.14-.82v-4.69h-16.22v4.7Z"/><rect class="cls-2" x="59.38" y="181.95" width="140.94" height="35.76"/><path class="cls-4" d="M63.04,191.5c14.78,1.35,32.49,2.14,51.55,2.14s36.68-.78,51.44-2.13v-7.67H63.04v7.66Z"/><rect class="cls-11" x="169.92" y="181.95" width="30.4" height="35.76"/><rect class="cls-19" x="197.76" y="180.66" width="2.56" height="37.05"/><rect class="cls-19" x="169.74" y="180.66" width="2.56" height="37.05"/><rect class="cls-15" x="167.43" y="180.66" width="2.56" height="37.05"/><rect class="cls-15" x="149.42" y="180.66" width="2.56" height="37.05"/><rect class="cls-15" x="131.42" y="180.66" width="2.56" height="37.05"/><rect class="cls-15" x="113.41" y="180.66" width="2.56" height="37.05"/><rect class="cls-15" x="95.4" y="180.66" width="2.56" height="37.05"/><rect class="cls-15" x="77.39" y="180.66" width="2.56" height="37.05"/><rect class="cls-15" x="59.38" y="180.66" width="2.56" height="37.05"/><rect class="cls-14" x="75.12" y="175.7" width="109.4" height="6.25"/><path class="cls-14" d="M184.52,175.7c-10.39,0-18.81,6.25-18.81,6.25h37.62s-8.42-6.25-18.81-6.25Z"/><path class="cls-14" d="M75.12,175.7c-10.39,0-18.81,6.25-18.81,6.25h37.62s-8.42-6.25-18.81-6.25Z"/><path class="cls-11" d="M184.52,175.7c-10.39,0-18.81,6.25-18.81,6.25h37.62s-8.42-6.25-18.81-6.25Z"/><line class="cls-6" x1="223.01" y1="200.35" x2="223.01" y2="216.23"/><line class="cls-6" x1="215.99" y1="200.35" x2="215.99" y2="216.23"/><line class="cls-6" x1="208.96" y1="200.35" x2="208.96" y2="216.23"/><line class="cls-6" x1="201.94" y1="200.35" x2="201.94" y2="216.23"/><line class="cls-6" x1="194.92" y1="200.35" x2="194.92" y2="216.23"/><line class="cls-6" x1="187.89" y1="200.35" x2="187.89" y2="216.23"/><g class="cls-10"><line class="cls-5" x1="223.01" y1="200.35" x2="223.01" y2="216.23"/><line class="cls-5" x1="215.99" y1="200.35" x2="215.99" y2="216.23"/><line class="cls-5" x1="208.96" y1="200.35" x2="208.96" y2="216.23"/><line class="cls-5" x1="201.94" y1="200.35" x2="201.94" y2="216.23"/><line class="cls-5" x1="194.92" y1="200.35" x2="194.92" y2="216.23"/><line class="cls-5" x1="187.89" y1="200.35" x2="187.89" y2="216.23"/></g><line class="cls-6" x1="186.74" y1="200.35" x2="186.74" y2="216.23"/><line class="cls-6" x1="179.32" y1="200.35" x2="179.32" y2="216.23"/><line class="cls-6" x1="171.91" y1="200.35" x2="171.91" y2="216.23"/><line class="cls-6" x1="164.49" y1="200.35" x2="164.49" y2="216.23"/><line class="cls-6" x1="157.07" y1="200.35" x2="157.07" y2="216.23"/><line class="cls-6" x1="149.66" y1="200.35" x2="149.66" y2="216.23"/><line class="cls-6" x1="142.24" y1="200.35" x2="142.24" y2="216.23"/><line class="cls-6" x1="134.82" y1="200.35" x2="134.82" y2="216.23"/><line class="cls-6" x1="127.41" y1="200.35" x2="127.41" y2="216.23"/><line class="cls-6" x1="119.99" y1="200.35" x2="119.99" y2="216.23"/><line class="cls-6" x1="112.58" y1="200.35" x2="112.58" y2="216.23"/><line class="cls-6" x1="105.16" y1="200.35" x2="105.16" y2="216.23"/><line class="cls-6" x1="97.74" y1="200.35" x2="97.74" y2="216.23"/><line class="cls-6" x1="90.33" y1="200.35" x2="90.33" y2="216.23"/><line class="cls-6" x1="82.91" y1="200.35" x2="82.91" y2="216.23"/><line class="cls-6" x1="75.49" y1="200.35" x2="75.49" y2="216.23"/><line class="cls-6" x1="68.08" y1="200.35" x2="68.08" y2="216.23"/><line class="cls-6" x1="60.66" y1="200.35" x2="60.66" y2="216.23"/><rect class="cls-12" x="56.31" y="199.17" width="170.35" height="2.37"/><polygon class="cls-14" points="216.99 233.98 61 233.98 56.31 214.63 226.67 214.63 216.99 233.98"/><polygon class="cls-11" points="190.02 214.63 180.34 233.98 216.99 233.98 226.67 214.63 190.02 214.63"/></g></g><path class="cls-17" d="M188.94,228.66s-9.57-26.22-18.07-20.25c-2.41,1.69,3.9,15.14,3.9,15.14,0,0-8.4-4.08-9.07-.58s-3.9,6.23-10.36,4.94c-6.46-1.29,18.24,7.83,18.81,4.17s8.16,3.47,9.86,1.7c1.7-1.77-1.25-6.97,4.93-5.13Z"/><path class="cls-3" d="M185.51,224.87c.31-5.67-8.43-20.92-14.64-16.45-4.09,2.94,2.88,11.61,3.9,15.14-5.19-3-11.26-3.35-12.88-1.67-1.62,1.67,2.99,2.38,1.72,3.9s-13.2,1.55-13.2,1.55c0,0,13.68,4.84,17.55,3.14,2.44-1.07-1.48-4.55.68-5.31,5.41-1.89,10.29,7.89,14.42,6.84,2.45-.62-3.54-8.49-1.96-9.14,1.58-.65,4.4,1.99,4.4,1.99Z"/><path class="cls-3" d="M149.75,226.15c.28.3.14.7-.07.85-.25.17-.59.13-.77-.11-.19-.25-.14-.59.11-.79.04-.03.08-.05.13-.08.34-.25.38-.24.61.13Z"/><path class="cls-3" d="M141.13,227.81c.23-.15.54-.09.69.15.16.24.1.56-.15.71-.23.14-.54.07-.69-.16-.15-.23-.08-.55.15-.69Z"/><path class="cls-3" d="M146.07,231.3c.19-.12.39-.07.54.15.14.21.09.49-.12.62-.2.13-.46.06-.59-.14-.14-.22-.06-.48.18-.63Z"/><path class="cls-3" d="M148.99,232.4c-.2.12-.45.06-.57-.14-.12-.2-.05-.45.15-.57.22-.13.48-.08.6.12.12.2.04.45-.18.59Z"/><path class="cls-3" d="M146.35,226.89c.19-.12.46-.07.58.12.13.19.07.45-.13.58-.2.13-.45.07-.58-.12-.13-.2-.08-.45.12-.58Z"/><path class="cls-3" d="M152.81,228.6c.19-.11.44-.04.55.15.1.19.04.42-.14.53-.19.12-.43.06-.55-.14-.11-.19-.05-.44.14-.55Z"/><path class="cls-3" d="M140.39,230.47c-.11-.19-.05-.41.13-.53.19-.12.43-.06.55.14.11.19.05.42-.13.53-.19.12-.43.06-.55-.14Z"/><path class="cls-3" d="M151.52,230.65c-.18.1-.39.05-.48-.11-.1-.17-.03-.41.14-.51.17-.1.38-.05.48.12.11.18.05.39-.13.5Z"/><path class="cls-3" d="M141.07,225.86s.1-.07.15-.09c.16-.07.3-.03.38.13.08.16.01.3-.14.38-.08.04-.17.06-.26.1-.15.07-.28.06-.37-.09-.09-.16-.01-.27.13-.35.04-.02.07-.04.11-.07h0Z"/><path class="cls-3" d="M145.8,234.22c-.17.11-.39.07-.49-.09-.1-.16-.04-.41.12-.51.16-.1.39-.04.49.12.1.16.04.38-.12.49Z"/><path class="cls-3" d="M146.03,221.79c-.12-.18-.1-.38.06-.49.15-.1.37-.06.47.1.1.15.03.52-.13.62-.13.08-.24.01-.39-.22Z"/><path class="cls-3" d="M148.64,222.71c-.17.1-.39.04-.48-.14-.09-.19-.05-.35.12-.46.17-.11.38-.05.48.12.1.17.05.38-.12.48Z"/><path class="cls-3" d="M142.97,222.33c.16-.09.39-.02.48.15.1.17.04.36-.13.46-.17.09-.39.03-.48-.14-.09-.16-.03-.38.13-.47Z"/><path class="cls-3" d="M143.28,227.35c-.1-.16-.05-.37.1-.47.16-.1.39-.04.48.13.09.16.04.37-.12.46-.16.09-.37.04-.47-.12Z"/><path class="cls-3" d="M147.05,224.87c.07.15.04.29-.12.4-.15.1-.36.04-.44-.11-.09-.17-.04-.31.11-.42.14-.1.35-.04.45.13Z"/><path class="cls-3" d="M142.79,231.29c-.05.12-.07.28-.16.37-.13.12-.29.06-.39-.09-.1-.15-.07-.32.09-.39.11-.05.26,0,.4.01l.06.1Z"/><path class="cls-3" d="M147.48,229.55c.06-.2.07-.33.14-.42.03-.03.23.02.28.09.1.12.06.27-.09.33-.07.03-.16,0-.33,0Z"/><path class="cls-3" d="M145.16,231.89c-.16-.07-.29-.09-.32-.16-.03-.07.03-.18.05-.28.09.02.22.02.27.08.05.06,0,.18,0,.36Z"/><path class="cls-3" d="M143.4,229.45c.15.07.27.08.3.14.03.06-.02.17-.04.26-.09-.02-.21-.01-.27-.07-.04-.04,0-.17.01-.33Z"/><path class="cls-3" d="M139.56,225.65c.16.07.28.09.31.15.03.07-.01.2-.07.25-.03.03-.19,0-.23-.06-.04-.06,0-.17,0-.34Z"/><path class="cls-3" d="M143.62,226.12c.07-.15.09-.27.15-.29.07-.03.17.03.25.05-.02.09-.02.21-.07.25-.05.04-.17,0-.33-.01Z"/><path class="cls-3" d="M144.82,224.95c.06-.14.07-.25.12-.27.06-.03.19,0,.22.05.03.05,0,.18-.05.22-.05.04-.15,0-.3,0Z"/><path class="cls-3" d="M143.48,232.89c.06-.14.07-.24.13-.27.05-.03.19,0,.21.04.03.07.01.19-.04.24-.04.04-.15,0-.3,0Z"/><path class="cls-3" d="M142.32,232.12c-.06.14-.08.25-.13.27-.06.03-.16-.02-.24-.04.02-.08.02-.19.07-.23.05-.04.15,0,.31,0Z"/><path class="cls-3" d="M150.17,224.92c.05-.11.06-.22.11-.23.07-.02.15.03.23.05-.03.08-.03.18-.08.22-.04.03-.14-.02-.26-.04Z"/><path class="cls-3" d="M152.83,227.51c-.11-.06-.22-.08-.24-.13-.02-.07.04-.15.07-.23.07.03.17.04.2.09.03.05-.01.14-.03.27Z"/><path class="cls-3" d="M144.3,230.01c.11.04.21.05.23.09.02.06-.01.15-.02.22-.07-.02-.16-.02-.21-.07-.03-.03,0-.13,0-.24Z"/><path class="cls-3" d="M146.05,229.56c.11.04.19.05.22.1.02.03-.01.15-.04.16-.06.02-.15,0-.19-.04-.03-.02,0-.11,0-.22Z"/><path class="cls-3" d="M169.53,228.03c-.19.79-1.01,1.01-1.47.81-.55-.23-.85-.83-.66-1.38.2-.58.83-.88,1.41-.68.09.03.18.08.28.11.79.29.82.37.44,1.14Z"/><path class="cls-3" d="M157.39,215.62c.5.22.73.79.52,1.3-.22.53-.81.77-1.33.53-.49-.23-.71-.82-.49-1.32.22-.49.81-.73,1.3-.51Z"/><path class="cls-3" d="M157.02,227.57c.42.19.54.57.34,1.05-.19.46-.71.68-1.15.48-.43-.19-.61-.7-.41-1.13.21-.46.72-.62,1.23-.4Z"/><path class="cls-3" d="M158.39,233.6c-.43-.2-.6-.68-.4-1.09.2-.41.69-.58,1.11-.38.45.21.65.71.45,1.12-.2.41-.7.56-1.16.35Z"/><path class="cls-3" d="M164.6,223.23c.42.18.61.68.44,1.09-.18.42-.67.61-1.09.42-.43-.19-.61-.66-.43-1.09.18-.43.66-.61,1.08-.43Z"/><path class="cls-3" d="M168.82,235.75c.39.19.55.68.34,1.07-.19.37-.65.53-1.03.35-.41-.18-.57-.65-.38-1.05.19-.4.66-.56,1.06-.37Z"/><path class="cls-3" d="M152.19,217.3c.19-.38.63-.54,1.02-.36.41.19.57.65.37,1.05-.19.38-.64.54-1.02.36-.41-.19-.57-.65-.37-1.06Z"/><path class="cls-3" d="M164.03,235.86c-.37-.18-.52-.59-.34-.92.18-.35.64-.5.99-.33.36.17.5.57.32.93-.18.37-.59.51-.97.33Z"/><path class="cls-3" d="M160.55,213.39c.1.05.22.09.31.15.3.19.39.46.2.77-.18.31-.47.35-.77.18-.16-.09-.29-.22-.44-.31-.29-.17-.41-.4-.25-.7.16-.31.43-.32.72-.17.07.04.15.07.22.11,0,0,0,0,0-.01Z"/><path class="cls-3" d="M151.91,230.32c-.36-.16-.53-.57-.38-.91.15-.34.62-.51.98-.35.33.15.5.6.34.93-.16.34-.58.49-.93.33Z"/><path class="cls-3" d="M172.66,217.15c.17-.4.53-.58.88-.45.33.13.5.54.36.88-.14.34-.83.61-1.16.45-.26-.12-.28-.38-.07-.89Z"/><path class="cls-3" d="M174,222.45c-.35-.17-.49-.6-.29-.94.2-.36.52-.46.9-.31.36.15.5.57.33.93-.17.36-.58.5-.93.32Z"/><path class="cls-3" d="M168.43,212.67c.33.17.46.62.29.96-.18.35-.56.47-.89.29-.34-.18-.48-.61-.3-.95.17-.32.6-.46.91-.3Z"/><path class="cls-3" d="M160.49,218.67c.15-.33.56-.49.89-.34.34.15.49.59.32.93-.17.33-.57.47-.9.31-.32-.16-.46-.57-.31-.9Z"/><path class="cls-3" d="M168.69,222.17c-.17.27-.44.39-.78.24-.32-.14-.47-.55-.3-.84.18-.32.47-.42.81-.28.31.13.45.54.28.89Z"/><path class="cls-3" d="M153.45,222.15c-.26.05-.54.19-.78.14-.35-.09-.42-.42-.28-.74.14-.32.46-.47.74-.29.2.12.28.44.42.67l-.1.22Z"/><path class="cls-3" d="M161.43,227.99c.39-.11.63-.24.84-.22.09.01.22.4.17.56-.09.29-.37.39-.65.2-.12-.08-.18-.26-.36-.55Z"/><path class="cls-3" d="M155.06,226.72c-.05-.34-.17-.58-.09-.7.08-.13.33-.15.51-.23.06.18.22.39.17.53-.05.14-.3.21-.59.39Z"/><path class="cls-3" d="M157.15,221.15c.05.32.16.53.09.65-.07.12-.31.15-.47.22-.07-.18-.21-.37-.18-.53.02-.11.28-.18.56-.34Z"/><path class="cls-3" d="M159.24,210.68c.05.34.16.56.09.67-.08.12-.34.19-.49.16-.09-.02-.2-.32-.15-.44.05-.13.27-.2.55-.39Z"/><path class="cls-3" d="M162.89,217.89c.32-.04.54-.14.65-.07.12.08.13.31.19.48-.17.06-.36.19-.5.15-.12-.04-.18-.28-.34-.56Z"/><path class="cls-3" d="M166.13,218.59c.29-.06.48-.16.59-.1.11.06.21.32.16.42-.05.11-.3.2-.42.17-.11-.03-.17-.25-.33-.49Z"/><path class="cls-3" d="M151.58,225.03c.29-.05.48-.14.59-.08.1.05.21.32.16.39-.08.12-.3.23-.43.2-.11-.02-.17-.25-.32-.51Z"/><path class="cls-3" d="M151.58,222.29c-.29.05-.5.14-.6.08-.11-.07-.13-.29-.19-.44.15-.05.33-.18.46-.14.12.04.18.25.33.51Z"/><path class="cls-3" d="M172.02,227.39c.23-.04.43-.13.5-.07.1.09.12.29.17.44-.16.04-.33.14-.46.11-.09-.03-.12-.25-.21-.47Z"/><path class="cls-3" d="M170.64,234.59c-.03-.25-.11-.46-.04-.53.09-.1.29-.1.45-.14.03.15.12.32.07.43-.05.1-.25.14-.48.24Z"/><path class="cls-3" d="M157.22,223.25c.05.23.15.4.09.47-.07.11-.25.14-.39.2-.04-.14-.14-.29-.11-.42.02-.09.21-.14.41-.26Z"/><path class="cls-3" d="M159.87,225.64c.05.22.12.37.08.48-.02.07-.27.15-.31.11-.09-.08-.16-.24-.14-.36,0-.07.19-.12.37-.23Z"/><path class="cls-3" d="M177.86,206.93c.42.2.45.69.28.93-.2.29-.58.38-.86.21-.3-.18-.4-.57-.22-.88.03-.05.07-.09.1-.14.26-.41.31-.42.7-.11Z"/><path class="cls-3" d="M169.37,212.29c.18-.26.54-.31.8-.13.28.19.34.55.14.82-.19.25-.55.3-.8.12-.25-.18-.31-.55-.13-.8Z"/><path class="cls-3" d="M176.09,213.95c.16-.21.39-.24.63-.06.24.17.3.48.13.71-.16.22-.47.26-.69.1-.23-.17-.27-.48-.07-.74Z"/><path class="cls-3" d="M179.66,213.91c-.17.22-.46.26-.67.09-.21-.16-.24-.46-.08-.67.18-.23.48-.28.69-.12.21.16.23.47.06.7Z"/><path class="cls-3" d="M174.55,209.13c.15-.21.46-.26.67-.11.22.15.26.45.11.67-.16.22-.45.27-.67.11-.22-.16-.27-.45-.11-.67Z"/><path class="cls-3" d="M182.14,208.26c.15-.2.45-.23.65-.06.19.15.22.43.08.63-.15.21-.44.24-.64.08-.2-.16-.24-.44-.08-.65Z"/><path class="cls-3" d="M169.69,215.43c-.19-.15-.23-.42-.08-.62.16-.21.44-.24.64-.08.19.15.23.43.08.62-.16.21-.44.24-.64.08Z"/><path class="cls-3" d="M181.62,210.99c-.14.18-.4.22-.56.08-.17-.14-.21-.43-.07-.6.14-.18.38-.21.57-.07.19.15.22.4.07.59Z"/><path class="cls-3" d="M168.49,210.23c.04-.05.08-.11.12-.16.14-.15.31-.16.46-.02.15.14.14.31,0,.46-.07.08-.16.14-.23.21-.13.14-.27.19-.43.06-.16-.13-.13-.28-.01-.43.03-.04.06-.08.09-.11h0Z"/><path class="cls-3" d="M177.02,217.17c-.13.18-.39.23-.56.11-.18-.13-.21-.41-.08-.6.13-.17.4-.21.57-.08.17.13.21.39.07.57Z"/><path class="cls-3" d="M172.08,203.83c-.21-.14-.26-.37-.15-.55.11-.17.37-.21.54-.09.18.12.24.55.12.71-.1.13-.25.11-.51-.07Z"/><path class="cls-3" d="M175.25,203.72c-.14.17-.4.2-.57.05-.18-.16-.2-.35-.06-.54.13-.19.38-.22.56-.07.18.14.21.39.07.57Z"/><path class="cls-3" d="M169.04,205.68c.14-.17.41-.19.58-.05.17.14.2.37.06.54-.14.17-.4.2-.57.06-.16-.13-.19-.39-.06-.55Z"/><path class="cls-3" d="M171.47,210.91c-.17-.13-.21-.38-.09-.54.13-.18.39-.21.57-.07.17.13.2.38.07.55-.13.16-.38.19-.55.07Z"/><path class="cls-3" d="M174.45,206.69c.13.13.17.3.04.47-.12.16-.37.2-.51.07-.16-.14-.18-.32-.06-.49.11-.16.36-.19.54-.05Z"/><path class="cls-3" d="M172.58,215.31c0,.15.04.33-.02.46-.09.19-.29.18-.45.07-.17-.12-.21-.32-.07-.45.09-.1.28-.11.43-.15l.11.08Z"/><path class="cls-3" d="M176.86,211.5c-.02-.24-.06-.38-.02-.5.02-.05.25-.08.34-.03.15.09.17.26.04.39-.06.06-.17.07-.36.14Z"/><path class="cls-3" d="M175.37,214.95c-.2-.01-.35.02-.41-.03-.06-.06-.05-.21-.07-.32.11-.01.25-.08.32-.03.07.04.08.19.15.38Z"/><path class="cls-3" d="M172.47,213.09c.19,0,.32-.02.38.03.06.05.05.19.07.29-.11.02-.24.07-.32.04-.06-.03-.07-.18-.13-.36Z"/><path class="cls-3" d="M166.8,210.64c.2.01.34-.02.39.03.06.06.07.21.03.29-.02.05-.21.07-.27.03-.07-.05-.08-.18-.15-.36Z"/><path class="cls-3" d="M171.32,209.45c.02-.19-.01-.32.04-.38.06-.06.19-.04.29-.05.01.1.07.23.03.3-.04.06-.18.07-.36.13Z"/><path class="cls-3" d="M172.11,207.71c0-.17-.03-.29.02-.34.05-.05.2-.08.26-.04.05.04.08.19.04.26-.03.06-.16.07-.32.13Z"/><path class="cls-3" d="M173.99,216.72c0-.17-.02-.29.02-.35.04-.05.21-.08.24-.04.06.06.09.2.06.27-.03.06-.16.07-.33.12Z"/><path class="cls-3" d="M172.44,216.38c0,.17.02.3-.03.35-.05.06-.18.04-.27.06-.01-.09-.06-.21-.03-.28.03-.06.16-.07.33-.13Z"/><path class="cls-3" d="M177.8,205.44c0-.14-.02-.26.02-.29.06-.05.18-.03.27-.04,0,.09.04.2,0,.27-.02.05-.16.04-.29.06Z"/><path class="cls-3" d="M181.71,207.09c-.14-.02-.27,0-.31-.04-.05-.06-.02-.18-.02-.27.09,0,.2-.03.25.01.05.04.05.16.08.3Z"/><path class="cls-3" d="M173.66,213.31c.13,0,.24-.03.28,0,.05.05.05.16.07.24-.09,0-.18.04-.25.01-.05-.02-.05-.13-.1-.26Z"/><path class="cls-3" d="M175.33,212.1c.13,0,.22-.02.28.01.04.02.05.17.02.19-.06.04-.16.06-.22.04-.04-.01-.05-.12-.08-.24Z"/></g></g></svg>