<?xml version="1.0" encoding="UTF-8"?>
<svg id="a" data-name="bateau 01" xmlns="http://www.w3.org/2000/svg" width="300" height="300" xmlns:xlink="http://www.w3.org/1999/xlink" viewBox="0 0 300 300">
  <defs>
    <clipPath id="b">
      <path d="M158.992,142.871H47.056v92.758c1.89.35,3.973.545,6.164.545,5.076,0,9.57-1.043,12.415-2.649.138-.006.275-.012.413-.018,1.532,1.617,3.964,2.668,6.71,2.668s5.18-1.051,6.712-2.67c1.956,1.618,5.059,2.67,8.566,2.67,2.89,0,5.507-.714,7.435-1.87,2.251,1.156,5.308,1.87,8.683,1.87,2.909,0,5.578-.533,7.704-1.418.523.885,1.18,1.418,1.895,1.418.705,0,1.352-.518,1.871-1.38,2.11.862,4.742,1.38,7.607,1.38,3.747,0,7.1-.881,9.394-2.269,1.964,1.388,4.835,2.269,8.044,2.269,2.976,0,5.668-.755,7.61-1.972,2.268,1.217,5.412,1.972,8.888,1.972.622,0,1.226-.036,1.824-.083v-93.22Z" fill="none"/>
    </clipPath>
    <filter id="c" data-name="drop-shadow-1" x="53.324" y="160.317" width="99.405" height="94.471" filterUnits="userSpaceOnUse">
      <feOffset dx="-1.219" dy="0"/>
      <feGaussianBlur result="d" stdDeviation="0"/>
      <feFlood flood-color="#42496f" flood-opacity="1"/>
      <feComposite in2="d" operator="in"/>
      <feComposite in="SourceGraphic"/>
    </filter>
  </defs>
  <g clip-path="url(#b)">
    <g filter="url(#c)">
      <g>
        <rect x="41.443" y="199.321" width="90.337" height="1.442" rx=".721" ry=".721" transform="translate(-130.462 180.11) rotate(-61.343)" fill="#336a9b"/>
        <rect x="45.665" y="229.024" width="44.913" height="10.794" rx="5.397" ry="5.397" transform="translate(-170.253 181.777) rotate(-61.343)" fill="#a384bb"/>
      </g>
      <g>
        <rect x="85.523" y="199.321" width="90.337" height="1.442" rx=".721" ry=".721" transform="translate(-107.521 218.79) rotate(-61.343)" fill="#336a9b"/>
        <rect x="89.746" y="229.024" width="44.913" height="10.794" rx="5.397" ry="5.397" transform="translate(-147.312 220.457) rotate(-61.343)" fill="#a384bb"/>
      </g>
    </g>
  </g>
</svg>