<?xml version="1.0" encoding="UTF-8"?><svg xmlns="http://www.w3.org/2000/svg" xmlns:xlink="http://www.w3.org/1999/xlink" viewBox="0 0 300 300"><defs><style>.cls-1{fill:none;stroke:#9bc8ec;stroke-miterlimit:10;stroke-width:1.22px;}.cls-1,.cls-2{opacity:.25;}.cls-3{fill:#f4af13;}.cls-4{fill:#fff;}.cls-5{filter:url(#drop-shadow-4);}.cls-6{isolation:isolate;}.cls-2{fill:#a384bb;mix-blend-mode:multiply;}.cls-7{fill:#42496f;}</style><filter id="drop-shadow-4" x="73.42" y="45.21" width="105.45" height="135.03" filterUnits="userSpaceOnUse"><feOffset dx="-1.22" dy="0"/><feGaussianBlur result="blur" stdDeviation="0"/><feFlood flood-color="#42496f" flood-opacity="1"/><feComposite in2="blur" operator="in"/><feComposite in="SourceGraphic"/></filter></defs><g class="cls-6"><g id="bateau_02"><g class="cls-5"><path class="cls-3" d="M135.88,180.24s-5.92-81.72-16.39-133.88c-.14-.68-.73-1.16-1.42-1.16h0c-.87,0-1.55.76-1.44,1.62,1.59,12.54,12.02,94.47,12.02,133.41h7.22Z"/><path class="cls-7" d="M133.43,151.36l-5.9.72c.2,2.99.38,5.9.53,8.74,1.96-.67,4.13-1.47,6.03-2.34-.2-2.24-.42-4.62-.65-7.12Z"/><path class="cls-7" d="M173.99,154.2c-28.88,0-57.76,0-86.63,0,.68-27.05-2.12-52.24-8.43-78.54,28.88,0,57.76,0,86.63,0,6.31,26.3,9.11,51.5,8.43,78.54Z"/><path class="cls-1" d="M96.25,75.66c6.31,26.3,9.12,51.5,8.43,78.54"/><path class="cls-1" d="M113.57,75.66c6.31,26.3,9.12,51.5,8.43,78.54"/><path class="cls-1" d="M130.9,75.66c6.31,26.3,9.12,51.5,8.43,78.54"/><path class="cls-1" d="M148.23,75.66c6.31,26.3,9.11,51.5,8.43,78.54"/><path class="cls-4" d="M148.26,110.06c1.37,9.62-6.39,17.83-16.05,17.73-9.87-.1-18.01-8.07-19.3-17.73-1.3-9.72,5.18-17.84,14.8-17.71,9.92.14,19.13,7.81,20.55,17.71Z"/><path class="cls-4" d="M127.51,125.72s.57,10.83,3.42,9.78c2.85-1.05.97-7.22.97-7.22,0,0,4.31,7.25,6.79,6.28,2.48-.97-1.21-7.32-1.21-7.32,0,0,4.49,4.63,6.84,3.04,2.36-1.6-1.95-7.17-1.95-7.17-5.94,1.05-8.91,1.57-14.86,2.62Z"/><path class="cls-7" d="M135.16,115.59c1.75-1.52,2.62-2.28,4.35-3.8,1.31,2.12.59,4.38-.86,4.93-1.02.38-2.43-.08-3.48-1.13Z"/><path class="cls-7" d="M129.73,115.31c-2.71-1.44-4.06-2.15-6.79-3.59-.67,2.62,1.05,5.2,3,5.63,1.42.32,3.01-.49,3.79-2.04Z"/><path class="cls-7" d="M132.71,117.78c-.58.03-.87,2.02-.85,4.72,1.2-.08,1.8-.13,3-.21-.68-2.63-1.57-4.54-2.15-4.5Z"/><path class="cls-4" d="M145.65,100.29c.72,1.27,1.07,1.9,1.77,3.16,1.09-1.52,1.62-2.28,2.69-3.8,0,0,3.22,6.26,6.13,5.49s-1.01-7.17-5.91-7.87c0,0,1.44-8.63-1.73-9.47-3.16-.84-.64,9.19-.64,9.19-.91,1.32-1.38,1.98-2.31,3.3Z"/><path class="cls-4" d="M112.07,100.29c-2.38-1.8-3.57-2.7-5.98-4.5,0,0,3.39-6.84,1.66-8.84-1.74-2-5.89.95-6.15,2.73-.26,1.79,1.8,4.84,1.8,4.84,0,0-6.82.07-7.6,1.76-.78,1.69.81,2.39,2.83,2.53,2.02.14,5.74-.91,5.74-.91,2.77,2.16,4.14,3.25,6.86,5.41.35-1.21.52-1.81.85-3.02Z"/><path class="cls-4" d="M122.12,126.19c-3.13,2.84-4.72,4.26-7.94,7.1-2.32-2.21-4.36-3.62-5.09-2.74-.73.88-1.15,5.09-.41,7.16.74,2.07,3.86,1.89,6.45-.42-1.77,2.91.97,7.26,2.77,6.1,1.8-1.16-.21-7.71-.21-7.71,3.24-3.15,4.83-4.72,7.96-7.87-1.41-.65-2.12-.97-3.53-1.62Z"/><path class="cls-4" d="M147.01,121.54c-.9,1.07-1.35,1.6-2.25,2.67,2.94,3.07,4.38,4.6,7.23,7.67-1.29,2.81-2.65,8.07-.37,8.49,2.28.42,2.77-8,2.77-8,3.73,4.92,6.1.81,7.19-.84s.27-7.17-1.87-7.1c-2.14.07-5.36,4.08-5.36,4.08-2.9-2.79-4.37-4.18-7.34-6.96Z"/><path class="cls-2" d="M173.99,154.2c-28.88,0-57.76,0-86.63,0,.57-9.88.46-20.06-.3-29.93,22.93,19.09,58.13,24.03,87.12,25.53-.06,1.76-.09,2.64-.18,4.4Z"/><rect class="cls-3" x="83.62" y="152.73" width="95.25" height="2.96" rx="1.48" ry="1.48"/><rect class="cls-3" x="74.64" y="74.18" width="95.25" height="2.96" rx="1.48" ry="1.48"/></g></g></g></svg>