<?xml version="1.0" encoding="UTF-8"?><svg xmlns="http://www.w3.org/2000/svg" xmlns:xlink="http://www.w3.org/1999/xlink" viewBox="0 0 300 300"><defs><style>.cls-1{isolation:isolate;}.cls-2{mix-blend-mode:multiply;opacity:.25;}.cls-2,.cls-3{fill:#a384bb;}.cls-4{filter:url(#drop-shadow-3);}.cls-5{fill:#42496f;}.cls-6{fill:url(#Dégradé_sans_nom_10);}.cls-7{fill:#336a9b;}</style><linearGradient id="Dégradé_sans_nom_10" x1="83.41" y1="54.5" x2="139.2" y2="54.5" gradientUnits="userSpaceOnUse"><stop offset="0" stop-color="#9bc8ec" stop-opacity="0"/><stop offset="1" stop-color="#9bc8ec" stop-opacity=".5"/></linearGradient><filter id="drop-shadow-3" x="113.03" y="71.69" width="43.44" height="106.3" filterUnits="userSpaceOnUse"><feOffset dx="-1.22" dy="0"/><feGaussianBlur result="blur" stdDeviation="0"/><feFlood flood-color="#42496f" flood-opacity="1"/><feComposite in2="blur" operator="in"/><feComposite in="SourceGraphic"/></filter></defs><g class="cls-1"><g id="bateau_07"><path class="cls-6" d="M138.32,72.49s2.27-5.1-.49-7.86c-2.76-2.76-3.07-.76-5.42-1.77-1.16-.5-2.09.74-2.09.74,0,0,1.25-6.67-3.11-5.71-1.16-7.94-5.64-14.49-8.16-14.49s-3.88,1.86-4.88,1.38c-1-4.9-2.8-9.38-7.04-8-4.24,1.38-10.76,9.32-10.24,10.9s1.95,2.99-.84,2.94c-2.8-.05-5.92-7.02-7.4-4.19-1.48,2.83-1.6,6.69-4.24,7.52-2.64.83.44,12.9,3.76,10.76,3.32-2.14,3.2-5.59,5.84-3.45s2.2.76,3.2.55c1-.21,1.16,4.21,3.84,2.9,2.68-1.31,2.83-3.04,3.61-.38s.19,7.6,2.55,5.92,3.01-3.47,3.61-2.92,1.67,1.31,3.75,1.24c2.08-.07,2.34,3.66,2.34,3.66l6.32-.25.1-.91s.08-.57-.44-2.05c2.29.16,9.29.75,9.26,2.8l6.17.65Z"/><g class="cls-4"><polygon class="cls-7" points="133.38 81.48 138.34 81.48 140.69 177.99 131.04 177.99 133.38 81.48"/><polygon class="cls-5" points="131.27 168.58 140.44 167.91 140.07 152.37 131.69 151.11 131.27 168.58"/><polygon class="cls-5" points="133.38 81.48 138.34 81.48 142.38 76.59 129.35 76.59 133.38 81.48"/><polygon class="cls-7" points="129.35 76.59 142.38 76.59 138.34 71.69 133.38 71.69 129.35 76.59"/><rect class="cls-3" x="120.62" y="156.48" width="35.85" height="20.4"/><polygon class="cls-5" points="128.4 176.88 120.62 176.88 120.62 156.48 126.24 156.48 128.4 176.88"/><rect class="cls-2" x="140.34" y="156.48" width="16.13" height="20.4"/><polygon class="cls-7" points="118.28 81.48 123.24 81.48 125.59 177.99 115.94 177.99 118.28 81.48"/><polygon class="cls-5" points="118.28 81.48 123.24 81.48 127.28 76.59 114.25 76.59 118.28 81.48"/><polygon class="cls-7" points="114.25 76.59 127.28 76.59 123.24 71.69 118.28 71.69 114.25 76.59"/></g></g></g></svg>