<?xml version="1.0" encoding="UTF-8"?>
<svg id="a" data-name="bateau 02" xmlns="http://www.w3.org/2000/svg" width="300" height="300" xmlns:xlink="http://www.w3.org/1999/xlink" viewBox="0 0 300 300">
  <defs>
    <filter id="b" data-name="drop-shadow-3" x="114.665" y="44.883" width="43.689" height="24.819" filterUnits="userSpaceOnUse">
      <feOffset dx="-1.219" dy="0"/>
      <feGaussianBlur result="c" stdDeviation="0"/>
      <feFlood flood-color="#42496f" flood-opacity="1"/>
      <feComposite in2="c" operator="in"/>
      <feComposite in="SourceGraphic"/>
    </filter>
  </defs>
  <g filter="url(#b)">
    <path d="M151.04,51.534c-2.477.118-5.899,1.18-5.899,1.18-.118-3.067-2.124-7.55-2.124-7.55-1.949-.395-4.522-.342-7.305-.035-.072,1.343-.798,1.962-1.366,2.395-.645.492-2.51.492-2.709-.508-.102.274-.258.462-.442.462-.004,0-.008-.005-.012-.005-.104-.049-.471-.263-.471-1.413,0-.061.007-.118.01-.178-7.506,1.397-14.839,3.765-14.839,3.765l2.595,20.055s14.629-6.135,16.044-6.842c1.416-.708.59,4.955,2.124,4.247,1.04-.48,5.385-3.508,9.144-6.622-.037-.109-.069-.221-.069-.342,0-.554.424-.994.962-1.054-.027-.113-.069-.221-.069-.343,0-.826.67-1.496,1.496-1.496.356,0,.669.142.925.349.481-.468.924-.922,1.295-1.345,2.154-2.451,8.022-3.775,8.022-3.775,0,0-4.837-1.062-7.314-.944Z" fill="#42496f"/>
    <path d="M139.896,52.734c-.181-2.43-2.297-4.253-4.727-4.073-2.43.181-4.254,2.297-4.073,4.727.151,2.038,1.67,3.632,3.588,3.993.088.715.345,2.271.884,2.029.696-.313.179-1.818.179-1.818,0,0,1.135,1.726,1.741,1.439s-.356-1.804-.356-1.804c0,0,1.145,1.072,1.72.63.446-.342-.102-1.202-.373-1.573.951-.881,1.52-2.157,1.416-3.551ZM137.695,53.331c.303.506.106,1.086-.259,1.249-.257.115-.604.026-.859-.217l1.118-1.032ZM135.954,54.954c.143-.018.352.442.52,1.086l-.747.108c-.003-.674.084-1.175.227-1.194ZM133.571,53.62l1.656.773c-.207.401-.606.634-.958.581-.482-.073-.895-.684-.698-1.353ZM140.077,49.456s-.317-2.488.441-2.334.14,2.361.14,2.361c1.201.086,2.035,1.623,1.298,1.871s-1.411-1.265-1.411-1.265l-.751,1.004-.373-.763.655-.874ZM130.787,51.728l-1.585-1.235s-.95.334-1.451.336-.88-.145-.641-.585,1.942-.584,1.942-.584c0,0-.423-.733-.299-1.19s1.266-1.28,1.626-.806-.692,2.265-.692,2.265l1.376,1.022-.276.776ZM134.191,57.588l-1.916,2.11s.602,1.598.178,1.919-1.195-.71-.794-1.469c-.612.625-1.386.727-1.599.224s-.151-1.561.025-1.794.691.08,1.291.589l1.93-1.918.886.338ZM141.34,57.232s.791-1.06,1.322-1.117.756,1.305.498,1.737-.811,1.501-1.784.343c0,0-.01,2.109-.586,2.046s-.315-1.399-.017-2.124l-1.836-1.778.562-.709,1.84,1.602Z" fill="#fff"/>
  </g>
</svg>