<?xml version="1.0" encoding="UTF-8"?><svg id="bateau_06" xmlns="http://www.w3.org/2000/svg" xmlns:xlink="http://www.w3.org/1999/xlink" viewBox="0 0 300 300"><defs><style>.cls-1{filter:url(#drop-shadow-2);}.cls-2{fill:none;}.cls-3{clip-path:url(#clippath-1);}.cls-4{fill:#efa78e;}.cls-5{fill:#fff;font-family:CalifornianFB-Bold, 'Californian FB';font-size:9.75px;font-weight:700;}.cls-6{fill:#42496f;}.cls-7{clip-path:url(#clippath);}</style><filter id="drop-shadow-2" x="106.77" y="38.96" width="97.87" height="39.67" filterUnits="userSpaceOnUse"><feOffset dx="-1.22" dy="0"/><feGaussianBlur result="blur" stdDeviation="0"/><feFlood flood-color="#42496f" flood-opacity="1"/><feComposite in2="blur" operator="in"/><feComposite in="SourceGraphic"/></filter><clipPath id="clippath"><path class="cls-2" d="M139.21,74.76c.64,5.23,44.82-20.19,65.44-21.19,0,0-14.82-2.58-31.86,2.72,16.68-6.94,26.56-9.31,31.86-9.88-12.53-1.65-44.81,3.73-65.44,11.6,0,0-.86,11.53,0,16.75Z"/></clipPath><clipPath id="clippath-1"><path class="cls-2" d="M115.44,53.42s15.18-10.81,31.5-7.88l.57,16.18s-10.6,2.58-29.21,10.17l-2.86-18.47Z"/></clipPath></defs><g class="cls-1"><path class="cls-4" d="M139.21,74.76c.64,5.23,44.82-20.19,65.44-21.19,0,0-14.82-2.58-31.86,2.72,16.68-6.94,26.56-9.31,31.86-9.88-12.53-1.65-44.81,3.73-65.44,11.6,0,0-.86,11.53,0,16.75Z"/><g class="cls-7"><text class="cls-5" transform="translate(110 76.22) rotate(-14.32)"><tspan x="0" y="0">Sea, Sex &amp; Sun</tspan></text></g><path class="cls-6" d="M147.51,61.73c0,5.01-8.95,5.23-8.3,13.03l-1.72-13.6,10.02.57Z"/><path class="cls-4" d="M115.44,53.42s15.18-10.81,31.5-7.88l.57,16.18s-10.6,2.58-29.21,10.17l-2.86-18.47Z"/><g class="cls-3"><text class="cls-5" transform="translate(125.3 62.3) rotate(-14.32)"><tspan x="0" y="0">Sea, Sex &amp; Sun</tspan></text></g></g></svg>