<?xml version="1.0" encoding="UTF-8"?><svg id="bateau_10" xmlns="http://www.w3.org/2000/svg" xmlns:xlink="http://www.w3.org/1999/xlink" viewBox="0 0 300 300"><defs><style>.cls-1{filter:url(#drop-shadow-2);}.cls-2{fill:#42496f;}</style><filter id="drop-shadow-2" x="114.64" y="48.52" width="54.51" height="24.38" filterUnits="userSpaceOnUse"><feOffset dx="-1.22" dy="0"/><feGaussianBlur result="blur" stdDeviation="0"/><feFlood flood-color="#42496f" flood-opacity="1"/><feComposite in2="blur" operator="in"/><feComposite in="SourceGraphic"/></filter></defs><g class="cls-1"><path class="cls-2" d="M115.86,54.39s15.02-8.26,16.52-5.19-1.81,5.35-1.26,6.92c.55,1.57,4.17-.47,5.98-.16s9.03-5.26,21.46-2.83c0,0-5.97,2.43-6.84,2.2-.63-.24-2.99-1.73-5.35-.16-2.36,1.57-1.97,2.2-2.67,2.2s-3.62.31-3.62.31c0,0-2.67.24-2.2,1.73s-.16,2.99-.16,2.99c0,0,.47,1.26-.16,1.57s-2.2,1.26-2.2,1.26c0,0,.08,1.1.79,1.26.71.16.79-.08,3.46-.47s7.39-1.57,7.39-1.57c0,0,1.26-.31,2.2-.79s1.65-.87,2.67-.47.87,1.65,3.62.31,5.98-1.49,6.61-1.42,3.38.79,4.09.94,1.18.39,1.57-.16.79-1.73,1.26-1.73-.54.61-.66,1.09-.25,1.22-.45,1.33.01.76-.74.53-1.79-.49-2.68-.72-2.31-.5-4.33-.08c-2.02.42-4.06,1.02-4.88,1.09s-3.04.74-4.05.6-11.05,2.61-12.39,3.09c-1.34.47-2.54,1.1-3.26.98s-2.58-.98-2.95-.71-1.02.26-1.1.63-.47.77-1.38.79-1.87.43-1.93-.2-.02-1.1.67-1.81,2.83-2.99,1.61-4.4c-1.22-1.42-1.69-1.85-2.48-1.65-.79.2-2.63.71-2.95,1.69s-.96,1.71-1.06.9.94-4.09.94-4.09c0,0,.06-1.45-1.3-1.65-1.36-.2-2.71-1.3-3.38.47-.67,1.77-.24,6.8-.35,6.92s-.28,3.3.81,3.87c1.08.57,1.42.75,1.77.67s3.85-.31,4.17-.08l-7.55,2.48-3.26-18.5Z"/></g></svg>