<?xml version="1.0" encoding="UTF-8"?><svg id="bateau_02" xmlns="http://www.w3.org/2000/svg" xmlns:xlink="http://www.w3.org/1999/xlink" viewBox="0 0 300 300"><defs><style>.cls-1{fill:#fff;}.cls-2{filter:url(#drop-shadow-3);}.cls-3{fill:#42496f;}</style><filter id="drop-shadow-3" x="114.66" y="44.88" width="43.69" height="24.82" filterUnits="userSpaceOnUse"><feOffset dx="-1.22" dy="0"/><feGaussianBlur result="blur" stdDeviation="0"/><feFlood flood-color="#42496f" flood-opacity="1"/><feComposite in2="blur" operator="in"/><feComposite in="SourceGraphic"/></filter></defs><g class="cls-2"><path class="cls-3" d="M151.04,51.53c-2.48.12-5.9,1.18-5.9,1.18-.12-3.07-2.12-7.55-2.12-7.55-1.95-.4-4.52-.34-7.31-.04-.07,1.34-.8,1.96-1.37,2.39-.65.49-2.51.49-2.71-.51-.1.27-.26.46-.44.46,0,0,0,0-.01,0-.1-.05-.47-.26-.47-1.41,0-.06,0-.12.01-.18-7.51,1.4-14.84,3.76-14.84,3.76l2.6,20.06s14.63-6.13,16.04-6.84c1.42-.71.59,4.95,2.12,4.25,1.04-.48,5.39-3.51,9.14-6.62-.04-.11-.07-.22-.07-.34,0-.55.42-.99.96-1.05-.03-.11-.07-.22-.07-.34,0-.83.67-1.5,1.5-1.5.36,0,.67.14.93.35.48-.47.92-.92,1.3-1.34,2.15-2.45,8.02-3.78,8.02-3.78,0,0-4.84-1.06-7.31-.94Z"/><path class="cls-1" d="M139.9,52.73c-.18-2.43-2.3-4.25-4.73-4.07-2.43.18-4.25,2.3-4.07,4.73.15,2.04,1.67,3.63,3.59,3.99.09.71.34,2.27.88,2.03.7-.31.18-1.82.18-1.82,0,0,1.14,1.73,1.74,1.44s-.36-1.8-.36-1.8c0,0,1.15,1.07,1.72.63.45-.34-.1-1.2-.37-1.57.95-.88,1.52-2.16,1.42-3.55ZM137.7,53.33c.3.51.11,1.09-.26,1.25-.26.11-.6.03-.86-.22l1.12-1.03ZM135.95,54.95c.14-.02.35.44.52,1.09l-.75.11c0-.67.08-1.18.23-1.19ZM133.57,53.62l1.66.77c-.21.4-.61.63-.96.58-.48-.07-.89-.68-.7-1.35ZM140.08,49.46s-.32-2.49.44-2.33.14,2.36.14,2.36c1.2.09,2.04,1.62,1.3,1.87s-1.41-1.27-1.41-1.27l-.75,1-.37-.76.66-.87ZM130.79,51.73l-1.58-1.23s-.95.33-1.45.34-.88-.15-.64-.58,1.94-.58,1.94-.58c0,0-.42-.73-.3-1.19s1.27-1.28,1.63-.81-.69,2.26-.69,2.26l1.38,1.02-.28.78ZM134.19,57.59l-1.92,2.11s.6,1.6.18,1.92-1.19-.71-.79-1.47c-.61.63-1.39.73-1.6.22s-.15-1.56.02-1.79.69.08,1.29.59l1.93-1.92.89.34ZM141.34,57.23s.79-1.06,1.32-1.12.76,1.31.5,1.74-.81,1.5-1.78.34c0,0-.01,2.11-.59,2.05s-.31-1.4-.02-2.12l-1.84-1.78.56-.71,1.84,1.6Z"/></g></svg>