<?xml version="1.0" encoding="UTF-8"?>
<svg id="a" data-name="bateau 08" xmlns="http://www.w3.org/2000/svg" width="300" height="300" xmlns:xlink="http://www.w3.org/1999/xlink" viewBox="0 0 300 300">
  <defs>
    <filter id="b" data-name="drop-shadow-2" x="114.856" y="48.633" width="38.43" height="24.486" filterUnits="userSpaceOnUse">
      <feOffset dx="-1.219" dy="0"/>
      <feGaussianBlur result="c" stdDeviation="0"/>
      <feFlood flood-color="#42496f" flood-opacity="1"/>
      <feComposite in2="c" operator="in"/>
      <feComposite in="SourceGraphic"/>
    </filter>
  </defs>
  <g filter="url(#b)">
    <path d="M122.974,68.737l-4.028.977c.131,1.105.264,2.231.4,3.388,1.843.102,3.201-.312,4.172-.883-.179-1.167-.361-2.326-.544-3.482Z" fill="#42496f"/>
    <path d="M116.075,52.783l1.893,18.56s5.952-3.387,11.349-3.387c7.328,0,8.42,2.39,14.864,2.493,5.621.089,9.105-4.118,9.105-4.118,0,0-5.756-1.253-8.301-5.873,0,0,7.172-3.876,6.421-9.358-3.782,1.856-6.887,3.373-11.284,3.387-4.8.015-8.45-5.854-14.715-5.854-5.952,0-9.332,4.15-9.332,4.15Z" fill="#e86170"/>
    <g>
      <path d="M125.451,59.805c0,.418-.154.79-.46,1.143-.173.195-.358.35-.555.457-.208.112-.492.206-.844.301-.504.136-.983.172-1.434.092-.038-.005-.057-.056-.057-.156,0-.019-.001-.197-.004-.53-.002-.335-.004-.516-.004-.541,0-.035.027-.064.08-.086.062-.026.094-.038.156-.063.046-.018.074-.008.076.023.008.097.008.208.023.305.04.246.159.425.356.548.196.124.468.128.815.036.472-.124.797-.349.974-.716.076-.164.114-.369.114-.617,0-.223-.089-.392-.209-.508-.137-.132-.407-.272-.81-.324-.449-.057-.81-.157-1.08-.329-.271-.172-.407-.519-.407-1.05,0-.493.189-.993.567-1.447.292-.351.675-.576,1.145-.65.517-.082.923.021,1.217.259.04.035.063.071.068.111.028.183.042.469.042.86,0,.06-.011.089-.034.091-.074.004-.112.006-.186.012-.028.002-.046-.013-.053-.047-.021-.096-.047-.202-.08-.314-.048-.168-.141-.3-.278-.393-.236-.156-.538-.21-.905-.142-.281.052-.5.189-.654.4-.173.237-.255.514-.247.82.005.206.087.384.247.534.081.076.373.15.875.277.299.078.516.154.65.216.226.103.416.236.571.395.218.222.327.568.327,1.031Z" fill="#fff"/>
      <path d="M130.149,57.86c0,.399-.145.708-.43.941-.314.256-.763.34-1.346.264-.279-.036-.546-.103-.803-.199-.021-.007-.031.008-.031.046v1.182c0,.614.055.924.164.931.24.016.361.027.601.05.031.003.046.022.046.058v.164c0,.032-.01.047-.03.045-.904-.086-1.356-.11-2.26-.072-.021,0-.03-.01-.03-.032v-.186c0-.036.013-.055.038-.056.221-.008.331-.01.552-.01.043,0,.065-.033.065-.098,0-1.65,0-2.475,0-4.125,0-.498-.032-.75-.095-.755-.178-.012-.267-.017-.445-.024-.036-.001-.053-.013-.053-.035,0-.078,0-.118,0-.196,0-.026.015-.039.046-.038.4-.002.6.004,1,.03.132.01.472.042,1.02.133.299.05.551.117.753.19.301.11.588.319.844.627.264.318.396.708.396,1.165ZM129.346,57.752c0-.319-.125-.65-.374-.99-.25-.341-.653-.567-1.208-.645-.089-.013-.143-.013-.158-.004-.016.01-.028.037-.036.078-.015.164-.023.567-.023,1.212,0,.024-.002.209-.004.555-.002.347-.004.529-.004.549,0,.037.018.063.053.078.173.078.373.13.601.159.39.049.673.002.848-.153.203-.179.304-.455.304-.838Z" fill="#fff"/>
      <path d="M136.615,63.901c0,.042-.224.08-.673.088-.312.006-.609-.008-.89-.035-.112-.011-.208-.042-.289-.095-.261-.177-.538-.418-.833-.728-.205-.21-.468-.511-.787-.916-.03-.05-.086-.083-.164-.099-.387-.077-.736-.205-1.027-.391-.258-.165-.462-.342-.609-.53-.406-.509-.609-1.183-.609-2.014,0-.412.055-.764.164-1.053.135-.359.321-.627.548-.805.218-.171.519-.286.902-.337.348-.046.721-.015,1.122.083.593.146,1.055.32,1.381.53.283.183.542.439.776.764.327.455.491.97.491,1.564,0,.736-.218,1.318-.654,1.737-.208.203-.462.36-.761.469-.228.084-.453.123-.673.118-.071,0-.091.016-.061.05.218.245.548.531.989.839.276.194.533.341.77.444.237.103.436.156.596.162.135.005.221.002.255.001.024,0,.038.012.038.036v.116ZM135.208,60.028c0-.37-.035-.676-.103-.915-.082-.289-.224-.572-.422-.852-.16-.227-.368-.425-.62-.589-.271-.177-.544-.301-.818-.368-.329-.081-.588-.086-.772-.015-.262.102-.462.295-.593.582-.145.317-.217.727-.217,1.223,0,.74.127,1.354.38,1.837.152.285.387.537.704.753.238.161.508.267.81.317.314.053.612.005.894-.144.215-.113.398-.337.551-.66.134-.281.205-.672.205-1.17Z" fill="#fff"/>
      <path d="M141.86,61.591c0,.026-.011.044-.034.054-.542.238-.812.333-1.354.485-.061.017-.11.017-.148,0-.135-.064-.464-.322-.989-.85-.238-.24-.443-.524-.616-.842-.017-.035-.038-.052-.061-.05-.139-.001-.313-.007-.521-.021-.043-.003-.065.015-.065.054,0-.041.002.066.004.32.002.257.004.52.004.795,0,.503.059.752.179.744.25-.017.374-.028.624-.058.028-.003.042.007.042.032v.154c0,.023-.011.036-.034.038-.847.105-1.271.114-2.118.085-.036-.001-.053-.013-.053-.037v-.151c0-.031.015-.046.046-.045.178.007.267.009.445.011.046,0,.068-.034.068-.104,0-.743,0-1.115,0-1.858,0-.544,0-.816,0-1.36-.005-.63-.051-.948-.137-.955-.175-.015-.262-.024-.437-.043-.025-.003-.038-.016-.038-.04v-.158c0-.024.01-.036.03-.036.479.045.719.059,1.198.065.401.005.702-.006.905-.014.218-.008.4-.012.544-.007.372.014.682.084.928.225.279.159.418.381.418.689,0,.347-.137.678-.411.976-.157.171-.402.343-.734.499-.021.011-.028.026-.023.044.223.319.486.592.787.8.235.162.393.258.472.306.17.095.318.153.441.182.169.04.359.018.567-.072.048-.021.072-.017.072.011v.132ZM139.856,59.057c0-.296-.112-.52-.335-.682-.293-.213-.725-.303-1.293-.307-.089,0-.144.026-.148.067-.06.561-.005,1.031-.015,1.194,0,.294,0,.441,0,.734,0,.037.02.06.057.065.095.013.239.013.426-.002.253-.02.441-.058.563-.102.497-.174.745-.513.745-.969Z" fill="#fff"/>
    </g>
  </g>
</svg>