<?xml version="1.0" encoding="UTF-8"?><svg xmlns="http://www.w3.org/2000/svg" xmlns:xlink="http://www.w3.org/1999/xlink" viewBox="0 0 300 300"><defs><style>.cls-1{fill:#f4af13;}.cls-2{fill:#b1ddea;}.cls-3{fill:#e86170;}.cls-4{filter:url(#drop-shadow-1);}.cls-5{isolation:isolate;}.cls-6{fill:#a384bb;mix-blend-mode:multiply;opacity:.25;}.cls-7{fill:#42496f;}</style><filter id="drop-shadow-1" x="88.96" y="179.55" width="74.37" height="28.9" filterUnits="userSpaceOnUse"><feOffset dx="-1.22" dy="0"/><feGaussianBlur result="blur" stdDeviation="0"/><feFlood flood-color="#42496f" flood-opacity="1"/><feComposite in2="blur" operator="in"/><feComposite in="SourceGraphic"/></filter></defs><g class="cls-5"><g id="bateau_02"><g class="cls-4"><polygon class="cls-3" points="108.29 208.45 90.18 208.45 91.4 191.36 109.51 191.36 108.29 208.45"/><polygon class="cls-1" points="114.21 179.55 96.1 179.55 91.4 190.46 91.4 191.36 109.51 190.46 114.39 180.06 114.21 179.55"/><polygon class="cls-3" points="114.39 180.06 96.28 180.06 91.4 191.36 109.51 191.36 114.39 180.06"/><polygon class="cls-6" points="110.84 188.27 95.3 182.34 91.4 191.36 109.51 191.36 110.84 188.27"/><polygon class="cls-7" points="107.27 208.45 90.18 208.45 91.4 191.36 108.49 191.36 107.27 208.45"/><polygon class="cls-7" points="108.49 191.36 109.51 191.36 109.46 192.05 108.4 192.65 108.49 191.36"/><path class="cls-2" d="M93.3,193.89s-.03,6.43,2.7,10.51l9.44-.62c-1.21-2.06,0-3.88,0-3.88l3.1,3.67,4.1-.27v-8.13l-19.35-1.28Z"/><ellipse class="cls-2" cx="111.04" cy="199.19" rx="5.6" ry="6.53"/><ellipse class="cls-6" cx="111.29" cy="199.19" rx="3.23" ry="3.77"/><path class="cls-7" d="M110.45,196.27l.66-.55s-.05,0-.07,0c-1.64,0-2.98,1.56-2.98,3.48s1.33,3.48,2.98,3.48,2.98-1.56,2.98-3.48c0-.16-.02-.32-.04-.48-.4-2.24-3.53-2.44-3.53-2.44Z"/><polygon class="cls-3" points="154.98 208.45 136.87 208.45 138.09 191.36 156.2 191.36 154.98 208.45"/><polygon class="cls-1" points="160.9 179.55 142.79 179.55 138.09 190.46 138.09 191.36 156.2 190.46 161.07 180.06 160.9 179.55"/><polygon class="cls-3" points="161.07 180.06 142.97 180.06 138.09 191.36 156.2 191.36 161.07 180.06"/><polygon class="cls-6" points="157.53 188.27 141.98 182.34 138.09 191.36 156.2 191.36 157.53 188.27"/><polygon class="cls-7" points="153.96 208.45 136.87 208.45 138.09 191.36 155.18 191.36 153.96 208.45"/><polygon class="cls-7" points="155.18 191.36 156.2 191.36 156.15 192.05 155.09 192.65 155.18 191.36"/><path class="cls-2" d="M139.99,193.89s-.03,6.43,2.7,10.51l9.44-.62c-1.21-2.06,0-3.88,0-3.88l3.1,3.67,4.1-.27v-8.13l-19.35-1.28Z"/><ellipse class="cls-2" cx="157.73" cy="199.19" rx="5.6" ry="6.53"/><ellipse class="cls-6" cx="157.98" cy="199.19" rx="3.23" ry="3.77"/><path class="cls-7" d="M157.14,196.27l.66-.55s-.05,0-.07,0c-1.64,0-2.98,1.56-2.98,3.48s1.33,3.48,2.98,3.48,2.98-1.56,2.98-3.48c0-.16-.02-.32-.04-.48-.4-2.24-3.53-2.44-3.53-2.44Z"/></g></g></g></svg>