<?xml version="1.0" encoding="UTF-8"?><svg id="bateau_05" xmlns="http://www.w3.org/2000/svg" xmlns:xlink="http://www.w3.org/1999/xlink" viewBox="0 0 300 300"><defs><style>.cls-1{filter:url(#drop-shadow-6);}.cls-1,.cls-2,.cls-3{fill:#ffd66e;}.cls-2{filter:url(#drop-shadow-2);}.cls-3{filter:url(#drop-shadow-4);}.cls-4{fill:none;}.cls-5{clip-path:url(#clippath-1);}.cls-6{filter:url(#drop-shadow-3);}.cls-6,.cls-7,.cls-8{fill:#e86170;}.cls-7{filter:url(#drop-shadow-1);}.cls-8{filter:url(#drop-shadow-5);}.cls-9{clip-path:url(#clippath-2);}.cls-10{fill:#42496f;}.cls-11{clip-path:url(#clippath);}</style><filter id="drop-shadow-1" x="100.86" y="194.57" width="10.63" height="9.63" filterUnits="userSpaceOnUse"><feOffset dx="-1" dy="0"/><feGaussianBlur result="blur" stdDeviation="0"/><feFlood flood-color="#42496f" flood-opacity="1"/><feComposite in2="blur" operator="in"/><feComposite in="SourceGraphic"/></filter><clipPath id="clippath"><path class="cls-4" d="M80.97,232.61s2.29.06,3.54-1.25c0,0,.52,1.17,2.85,1.17l25.41-35.63-6.1-3.38-25.7,39.09Z"/></clipPath><filter id="drop-shadow-2" x="78" y="199.38" width="29.27" height="39.98" filterUnits="userSpaceOnUse"><feOffset dx="-1" dy="0"/><feGaussianBlur result="blur-2" stdDeviation="0"/><feFlood flood-color="#42496f" flood-opacity="1"/><feComposite in2="blur-2" operator="in"/><feComposite in="SourceGraphic"/></filter><filter id="drop-shadow-3" x="123.39" y="194.57" width="10.63" height="9.63" filterUnits="userSpaceOnUse"><feOffset dx="-1" dy="0"/><feGaussianBlur result="blur-3" stdDeviation="0"/><feFlood flood-color="#42496f" flood-opacity="1"/><feComposite in2="blur-3" operator="in"/><feComposite in="SourceGraphic"/></filter><clipPath id="clippath-1"><path class="cls-4" d="M103.5,232.61s2.29.06,3.54-1.25c0,0,.52,1.17,2.85,1.17l25.41-35.63-6.1-3.38-25.7,39.09Z"/></clipPath><filter id="drop-shadow-4" x="100.53" y="199.38" width="29.27" height="39.98" filterUnits="userSpaceOnUse"><feOffset dx="-1" dy="0"/><feGaussianBlur result="blur-4" stdDeviation="0"/><feFlood flood-color="#42496f" flood-opacity="1"/><feComposite in2="blur-4" operator="in"/><feComposite in="SourceGraphic"/></filter><filter id="drop-shadow-5" x="145.93" y="194.57" width="10.63" height="9.63" filterUnits="userSpaceOnUse"><feOffset dx="-1" dy="0"/><feGaussianBlur result="blur-5" stdDeviation="0"/><feFlood flood-color="#42496f" flood-opacity="1"/><feComposite in2="blur-5" operator="in"/><feComposite in="SourceGraphic"/></filter><clipPath id="clippath-2"><path class="cls-4" d="M126.03,232.61s2.29.06,3.54-1.25c0,0,.52,1.17,2.85,1.17l25.41-35.63-6.1-3.38-25.7,39.09Z"/></clipPath><filter id="drop-shadow-6" x="123.07" y="199.38" width="29.27" height="39.98" filterUnits="userSpaceOnUse"><feOffset dx="-1" dy="0"/><feGaussianBlur result="blur-6" stdDeviation="0"/><feFlood flood-color="#42496f" flood-opacity="1"/><feComposite in2="blur-6" operator="in"/><feComposite in="SourceGraphic"/></filter></defs><circle class="cls-7" cx="106.67" cy="199.38" r="4.81"/><circle class="cls-10" cx="106.67" cy="199.38" r="3.4"/><polygon class="cls-10" points="105.38 214.27 107.26 215.36 107.26 200.68 105.38 200.68 105.38 214.27"/><path class="cls-10" d="M107.04,216.03s-1.47-1.03-1.49-.92.13,1.39.68,1.7c.55.31.81-.78.81-.78Z"/><path class="cls-10" d="M105.7,217.1l1.15.88s-1.15.25-1.15-.88Z"/><g class="cls-11"><path class="cls-2" d="M80.62,239.37l-1.62-1.12,26.77-38.87s-.03.42,1.49,1.3l-26.65,38.69Z"/></g><circle class="cls-6" cx="129.2" cy="199.38" r="4.81"/><circle class="cls-10" cx="129.2" cy="199.38" r="3.4"/><polygon class="cls-10" points="127.91 214.27 129.8 215.36 129.8 200.68 127.91 200.68 127.91 214.27"/><path class="cls-10" d="M129.57,216.03s-1.47-1.03-1.49-.92.13,1.39.68,1.7c.55.31.81-.78.81-.78Z"/><path class="cls-10" d="M128.24,217.1l1.15.88s-1.15.25-1.15-.88Z"/><g class="cls-5"><path class="cls-3" d="M103.15,239.37l-1.62-1.12,26.77-38.87s-.03.42,1.49,1.3l-26.65,38.69Z"/></g><circle class="cls-8" cx="151.74" cy="199.38" r="4.81"/><circle class="cls-10" cx="151.74" cy="199.38" r="3.4"/><polygon class="cls-10" points="150.45 214.27 152.33 215.36 152.33 200.68 150.45 200.68 150.45 214.27"/><path class="cls-10" d="M152.11,216.03s-1.47-1.03-1.49-.92.13,1.39.68,1.7c.55.31.81-.78.81-.78Z"/><path class="cls-10" d="M150.77,217.1l1.15.88s-1.15.25-1.15-.88Z"/><g class="cls-9"><path class="cls-1" d="M125.69,239.37l-1.62-1.12,26.77-38.87s-.03.42,1.49,1.3l-26.65,38.69Z"/></g></svg>