<?xml version="1.0" encoding="UTF-8"?><svg xmlns="http://www.w3.org/2000/svg" xmlns:xlink="http://www.w3.org/1999/xlink" viewBox="0 0 300 300"><defs><style>.cls-1{stroke:#ffd66e;stroke-linecap:round;stroke-linejoin:round;stroke-width:1.22px;}.cls-1,.cls-2{fill:none;}.cls-3{filter:url(#drop-shadow-1);}.cls-4{isolation:isolate;}.cls-5{fill:#a384bb;mix-blend-mode:multiply;opacity:.25;}.cls-6{fill:#336a9b;}.cls-7{clip-path:url(#clippath);}</style><clipPath id="clippath"><path class="cls-2" d="M172.99,142.21H61.05v92.76c1.89.35,3.97.55,6.16.55,5.08,0,9.57-1.04,12.41-2.65.14,0,.28-.01.41-.02,1.53,1.62,3.96,2.67,6.71,2.67s5.18-1.05,6.71-2.67c1.96,1.62,5.06,2.67,8.57,2.67,2.89,0,5.51-.71,7.43-1.87,2.25,1.16,5.31,1.87,8.68,1.87,2.91,0,5.58-.53,7.7-1.42.52.89,1.18,1.42,1.9,1.42s1.35-.52,1.87-1.38c2.11.86,4.74,1.38,7.61,1.38,3.75,0,7.1-.88,9.39-2.27,1.96,1.39,4.84,2.27,8.04,2.27,2.98,0,5.67-.76,7.61-1.97,2.27,1.22,5.41,1.97,8.89,1.97.62,0,1.23-.04,1.82-.08v-93.22Z"/></clipPath><filter id="drop-shadow-1" x="60.98" y="200.99" width="105.67" height="40.24" filterUnits="userSpaceOnUse"><feOffset dx="-1.22" dy="0"/><feGaussianBlur result="blur" stdDeviation="0"/><feFlood flood-color="#42496f" flood-opacity="1"/><feComposite in2="blur" operator="in"/><feComposite in="SourceGraphic"/></filter></defs><g class="cls-4"><g id="bateau_08"><g class="cls-7"><path class="cls-5" d="M77.46,205.14v15.1h5.75c0-3.13,2.54-5.66,5.66-5.66s5.66,2.54,5.66,5.66h17.86c0-3.13,2.54-5.66,5.66-5.66s5.66,2.54,5.66,5.66h17.86c0-3.13,2.54-5.66,5.66-5.66s5.66,2.54,5.66,5.66h13.74v-15.1h-89.19Z"/><g class="cls-3"><line class="cls-1" x1="95.95" y1="209.65" x2="62.81" y2="240.62"/><line class="cls-1" x1="124.62" y1="209.65" x2="91.47" y2="240.62"/><line class="cls-1" x1="153.28" y1="209.65" x2="120.14" y2="240.62"/><path class="cls-6" d="M77.46,200.99v15.1h5.75c0-3.13,2.54-5.66,5.66-5.66s5.66,2.54,5.66,5.66h17.86c0-3.13,2.54-5.66,5.66-5.66s5.66,2.54,5.66,5.66h17.86c0-3.13,2.54-5.66,5.66-5.66s5.66,2.54,5.66,5.66h13.74v-15.1h-89.19Z"/><rect class="cls-5" x="158.15" y="200.99" width="8.49" height="15.1"/></g></g></g></g></svg>