<?xml version="1.0" encoding="UTF-8"?>
<svg xmlns="http://www.w3.org/2000/svg" width="300" height="300" xmlns:xlink="http://www.w3.org/1999/xlink" viewBox="0 0 300 300">
  <defs>
    <clipPath id="b">
      <path d="M134.857,139.952H22.921v92.758c1.89.35,3.973.545,6.164.545,5.076,0,9.57-1.043,12.415-2.649.138-.006.275-.012.413-.018,1.532,1.617,3.964,2.668,6.71,2.668s5.18-1.051,6.712-2.67c1.956,1.618,5.059,2.67,8.566,2.67,2.89,0,5.507-.714,7.435-1.87,2.251,1.156,5.308,1.87,8.683,1.87,2.909,0,5.578-.533,7.704-1.418.523.885,1.18,1.418,1.895,1.418.705,0,1.352-.518,1.871-1.38,2.11.862,4.742,1.38,7.607,1.38,3.747,0,7.1-.881,9.394-2.269,1.964,1.388,4.835,2.269,8.044,2.269,2.976,0,5.668-.755,7.61-1.972,2.268,1.217,5.412,1.972,8.888,1.972.622,0,1.226-.036,1.824-.083v-93.22Z" fill="none"/>
    </clipPath>
    <filter id="c" data-name="drop-shadow-1" x="39.596" y="175.638" width="81.627" height="77.968" filterUnits="userSpaceOnUse">
      <feOffset dx="-1.219" dy="0"/>
      <feGaussianBlur result="d" stdDeviation="0"/>
      <feFlood flood-color="#42496f" flood-opacity="1"/>
      <feComposite in2="d" operator="in"/>
      <feComposite in="SourceGraphic"/>
    </filter>
  </defs>
  <g isolation="isolate">
    <g id="a" data-name="bateau 07">
      <g>
        <g clip-path="url(#b)">
          <g filter="url(#c)">
            <g>
              <circle cx="82.239" cy="214.622" r="37.021" fill="none" stroke="#efa78e" stroke-miterlimit="10" stroke-width="3.657"/>
              <g>
                <line x1="43.565" y1="224.808" x2="120.912" y2="204.436" fill="none" stroke="#efa78e" stroke-miterlimit="10" stroke-width="2.438"/>
                <line x1="92.425" y1="253.295" x2="72.052" y2="175.949" fill="none" stroke="#efa78e" stroke-miterlimit="10" stroke-width="2.438"/>
                <line x1="47.69" y1="194.479" x2="116.787" y2="234.766" fill="none" stroke="#efa78e" stroke-miterlimit="10" stroke-width="2.438"/>
                <line x1="62.095" y1="249.171" x2="102.382" y2="180.073" fill="none" stroke="#efa78e" stroke-miterlimit="10" stroke-width="2.438"/>
              </g>
              <circle cx="82.239" cy="214.622" r="21.61" fill="none" stroke="#ffd66e" stroke-miterlimit="10" stroke-width="12.19"/>
              <circle cx="82.239" cy="214.622" r="6.016" fill="#ffd66e"/>
            </g>
            <path d="M120.092,205.912l1.131-.298-.621-2.357-1.128.297c-2.722-9.14-8.722-16.877-16.633-21.846l.595-1.02-2.106-1.229-.588,1.009c-5.504-2.994-11.808-4.696-18.502-4.696-2.995,0-5.908.352-8.71.997l-.298-1.131-2.357.621.297,1.128c-9.14,2.722-16.877,8.721-21.846,16.632l-1.02-.595-1.229,2.107,1.009.588c-2.994,5.504-4.696,11.808-4.696,18.502,0,2.995.352,5.907.997,8.71l-1.131.298.621,2.357,1.128-.297c2.722,9.14,8.722,16.877,16.633,21.847l-.595,1.02,2.106,1.229.588-1.009c5.504,2.994,11.808,4.696,18.502,4.696,2.995,0,5.908-.352,8.71-.997l.298,1.13,2.357-.621-.297-1.127c9.14-2.722,16.877-8.722,21.847-16.633l1.02.595,1.229-2.107-1.008-.588c2.993-5.504,4.695-11.808,4.695-18.502,0-2.995-.352-5.908-.997-8.71ZM115.937,204.485l-7.241,1.907c-1.951-6.259-6.071-11.566-11.471-15.054l3.772-6.471c7.087,4.484,12.469,11.423,14.939,19.618ZM97.754,214.622c0,2.412-.569,4.688-1.556,6.726l-8.279-4.827c.201-.6.336-1.232.336-1.9,0-.108-.026-.209-.032-.316l9.271-2.442c.162.897.26,1.816.26,2.758ZM67.608,219.736l9.267-2.441c.339.679.796,1.28,1.355,1.783l-4.827,8.28c-2.659-1.851-4.704-4.512-5.795-7.622ZM66.724,214.622c0-2.413.569-4.689,1.556-6.727l8.279,4.827c-.201.601-.336,1.232-.336,1.9,0,.108.026.209.032.315l-9.271,2.442c-.162-.896-.26-1.815-.26-2.757ZM82.239,208.606c-.108,0-.209.026-.316.032l-2.442-9.271c.897-.162,1.815-.26,2.758-.26,2.413,0,4.689.57,6.728,1.556l-4.827,8.279c-.601-.201-1.232-.336-1.901-.336ZM79.566,209.259c-.678.339-1.28.796-1.783,1.354l-8.28-4.827c1.851-2.659,4.511-4.703,7.621-5.794l2.441,9.268ZM80.338,220.302c.601.201,1.232.336,1.9.336.108,0,.209-.026.316-.032l2.442,9.271c-.897.162-1.815.26-2.758.26-2.412,0-4.689-.569-6.727-1.556l4.827-8.279ZM84.912,219.985c.678-.339,1.28-.796,1.783-1.354l8.28,4.828c-1.851,2.659-4.512,4.703-7.622,5.794l-2.441-9.268ZM87.602,211.949c-.339-.678-.796-1.28-1.354-1.782l4.828-8.28c2.659,1.851,4.703,4.512,5.794,7.621l-9.268,2.441ZM82.239,179.429c6.023,0,11.696,1.523,16.659,4.201l-3.775,6.475c-3.852-2.032-8.234-3.189-12.883-3.189-2.014,0-3.977.222-5.871.632l-1.907-7.242c2.504-.567,5.105-.877,7.778-.877ZM72.102,180.924l1.907,7.24c-6.259,1.951-11.566,6.071-15.054,11.471l-6.47-3.773c4.484-7.087,11.423-12.469,19.618-14.938ZM47.046,214.622c0-6.023,1.523-11.696,4.201-16.658l6.475,3.775c-2.032,3.852-3.189,8.234-3.189,12.883,0,2.014.222,3.977.632,5.87l-7.243,1.908c-.567-2.504-.877-5.104-.877-7.778ZM48.54,224.758l7.241-1.907c1.951,6.26,6.071,11.567,11.472,15.055l-3.773,6.471c-7.087-4.484-12.47-11.424-14.939-19.619ZM82.239,249.815c-6.023,0-11.696-1.523-16.659-4.201l3.776-6.476c3.852,2.032,8.234,3.189,12.883,3.189,2.014,0,3.977-.222,5.871-.632l1.908,7.243c-2.504.567-5.105.877-7.778.877ZM92.375,248.321l-1.907-7.241c6.259-1.951,11.566-6.071,15.054-11.471l6.471,3.773c-4.484,7.087-11.423,12.469-19.618,14.939ZM106.756,227.505c2.032-3.851,3.188-8.233,3.188-12.882,0-2.015-.222-3.978-.632-5.871l7.242-1.908c.567,2.504.877,5.105.877,7.779,0,6.023-1.523,11.696-4.201,16.657l-6.475-3.775Z" fill="#a384bb" mix-blend-mode="multiply" opacity=".5"/>
            <g>
              <circle cx="79.799" cy="214.622" r="37.021" fill="none" stroke="#efa78e" stroke-miterlimit="10" stroke-width="3.657"/>
              <g>
                <line x1="41.126" y1="224.808" x2="118.472" y2="204.436" fill="none" stroke="#efa78e" stroke-miterlimit="10" stroke-width="2.438"/>
                <line x1="89.985" y1="253.295" x2="69.613" y2="175.949" fill="none" stroke="#efa78e" stroke-miterlimit="10" stroke-width="2.438"/>
                <line x1="45.25" y1="194.479" x2="114.348" y2="234.766" fill="none" stroke="#efa78e" stroke-miterlimit="10" stroke-width="2.438"/>
                <line x1="59.655" y1="249.171" x2="99.942" y2="180.073" fill="none" stroke="#efa78e" stroke-miterlimit="10" stroke-width="2.438"/>
              </g>
              <circle cx="79.799" cy="214.622" r="21.61" fill="none" stroke="#ffd66e" stroke-miterlimit="10" stroke-width="12.19"/>
              <circle cx="79.799" cy="214.622" r="6.016" fill="#ffd66e"/>
            </g>
          </g>
        </g>
        <g>
          <path d="M53.949,232.168s-9.568-26.22-18.071-20.245c-2.405,1.69,3.905,15.144,3.905,15.144,0,0-8.4-4.08-9.071-.576-.671,3.504-3.902,6.233-10.364,4.94-6.462-1.292,18.236,7.835,18.811,4.169.574-3.666,8.162,3.467,9.861,1.695,1.699-1.772-1.245-6.975,4.929-5.127Z" fill="#9bc8ec"/>
          <path d="M50.519,228.373c.307-5.671-8.427-20.919-14.641-16.451-4.091,2.941,2.882,11.611,3.905,15.144-5.19-2.997-11.257-3.346-12.88-1.674s2.994,2.384,1.723,3.905c-1.271,1.521-13.202,1.552-13.202,1.552,0,0,13.678,4.838,17.552,3.141,2.44-1.069-1.482-4.55.681-5.306,5.407-1.892,10.289,7.887,14.422,6.836,2.449-.623-3.542-8.49-1.961-9.141,1.581-.651,4.402,1.994,4.402,1.994Z" fill="#fff"/>
          <g>
            <g>
              <path d="M14.755,229.655c.278.3.144.705-.067.847-.251.169-.59.127-.768-.107-.188-.247-.142-.594.105-.785.04-.031.085-.055.125-.085.344-.251.384-.243.605.131Z" fill="#fff"/>
              <path d="M6.138,231.318c.231-.149.538-.085.693.145.164.242.098.557-.149.708-.232.142-.544.07-.693-.16-.148-.229-.08-.546.148-.693Z" fill="#fff"/>
              <path d="M11.077,234.804c.195-.124.389-.069.536.15.141.211.089.489-.118.621-.201.128-.465.065-.594-.141-.135-.216-.062-.478.176-.629Z" fill="#fff"/>
              <path d="M14.001,235.908c-.204.123-.454.064-.572-.135-.117-.197-.051-.451.149-.572.216-.131.482-.077.6.122.118.2.042.454-.177.586Z" fill="#fff"/>
              <path d="M11.357,230.397c.194-.124.457-.07.582.121.127.193.07.453-.126.578-.199.127-.451.073-.579-.122-.13-.197-.076-.449.123-.576Z" fill="#fff"/>
              <path d="M17.817,232.105c.188-.112.438-.042.547.153.104.185.043.42-.137.533-.191.12-.432.06-.549-.135-.115-.191-.052-.437.14-.551Z" fill="#fff"/>
              <path d="M5.396,233.976c-.11-.187-.052-.415.133-.53.193-.12.434-.059.548.138.108.187.049.419-.133.532-.193.119-.432.058-.548-.14Z" fill="#fff"/>
              <path d="M16.527,234.155c-.177.104-.393.054-.485-.113-.095-.173-.032-.412.135-.512.172-.103.378-.05.483.122.108.178.051.394-.133.502Z" fill="#fff"/>
              <path d="M6.076,229.36c.05-.031.097-.067.15-.091.163-.073.301-.035.38.127.08.164.015.295-.139.377-.08.043-.175.059-.256.1-.151.075-.283.065-.367-.088-.086-.156-.014-.271.129-.354.036-.021.071-.044.107-.065l-.004-.006Z" fill="#fff"/>
              <path d="M10.811,237.724c-.166.108-.389.067-.49-.091-.102-.16-.043-.406.124-.511.157-.099.392-.043.487.117.098.164.045.379-.12.486Z" fill="#fff"/>
              <path d="M11.038,225.299c-.121-.182-.098-.384.057-.494.145-.103.366-.059.47.095.105.155.026.522-.133.618-.125.076-.24.012-.393-.219Z" fill="#fff"/>
              <path d="M13.651,226.212c-.169.098-.388.038-.479-.139-.095-.186-.052-.347.121-.464.166-.112.379-.055.482.119.102.172.048.385-.123.484Z" fill="#fff"/>
              <path d="M7.973,225.836c.164-.091.39-.023.485.146.096.172.043.365-.127.457-.172.094-.39.032-.484-.137-.088-.16-.029-.38.126-.466Z" fill="#fff"/>
              <path d="M8.287,230.858c-.096-.156-.048-.373.104-.471.159-.103.385-.044.482.126.092.161.038.373-.12.465-.156.091-.371.036-.466-.12Z" fill="#fff"/>
              <path d="M12.053,228.374c.066.148.041.294-.117.398-.145.095-.364.043-.441-.107-.085-.166-.045-.315.107-.42.14-.098.354-.039.452.129Z" fill="#fff"/>
              <path d="M7.793,234.796c-.051.125-.07.283-.159.366-.133.124-.294.058-.389-.087-.097-.149-.068-.323.085-.394.108-.05.264.004.399.012l.064.102Z" fill="#fff"/>
              <path d="M12.484,233.058c.061-.198.072-.333.144-.416.028-.033.229.019.284.087.097.12.059.266-.095.331-.068.029-.16.002-.333-.002Z" fill="#fff"/>
              <path d="M10.171,235.393c-.159-.073-.29-.091-.321-.157-.033-.07.028-.184.048-.279.094.023.225.018.273.078.046.057.005.183,0,.359Z" fill="#fff"/>
              <path d="M8.403,232.958c.148.066.268.083.298.144.032.064-.022.171-.038.259-.094-.021-.215-.014-.272-.071-.042-.042.001-.168.011-.331Z" fill="#fff"/>
              <path d="M4.569,229.16c.157.072.282.09.307.15.028.067-.012.196-.069.25-.033.032-.192-.005-.228-.057-.041-.06-.01-.17-.01-.343Z" fill="#fff"/>
              <path d="M8.628,229.626c.072-.149.093-.268.154-.294.065-.028.168.032.255.054-.022.087-.019.207-.075.252-.051.04-.167-.001-.333-.011Z" fill="#fff"/>
              <path d="M9.826,228.457c.056-.137.068-.248.122-.275.057-.028.192.001.223.05.032.049.003.183-.046.224-.046.039-.153.005-.299,0Z" fill="#fff"/>
              <path d="M8.488,236.391c.059-.136.073-.24.129-.273.049-.029.194.002.21.041.027.067.013.19-.035.236-.04.039-.153.002-.304-.004Z" fill="#fff"/>
              <path d="M7.331,235.625c-.063.137-.079.248-.134.274-.061.028-.158-.024-.239-.04.02-.081.016-.191.067-.233.048-.039.155-.004.306,0Z" fill="#fff"/>
              <path d="M15.181,228.428c.048-.109.064-.219.109-.233.066-.02.153.03.231.051-.025.077-.03.178-.083.223-.035.03-.138-.019-.257-.042Z" fill="#fff"/>
              <path d="M17.833,231.013c-.113-.059-.223-.083-.236-.132-.017-.066.041-.151.066-.228.07.029.171.039.201.091.029.051-.013.144-.031.27Z" fill="#fff"/>
              <path d="M9.306,233.514c.109.041.209.05.226.093.024.061-.012.145-.023.22-.072-.021-.163-.023-.208-.07-.032-.033,0-.127.005-.242Z" fill="#fff"/>
              <path d="M11.053,233.063c.105.042.187.052.224.098.023.028-.012.155-.041.162-.059.015-.146-.002-.192-.041-.028-.024.001-.113.008-.219Z" fill="#fff"/>
            </g>
            <g>
              <path d="M34.533,231.534c-.192.786-1.006,1.005-1.47.812-.553-.23-.853-.835-.661-1.385.202-.58.826-.883,1.411-.683.094.032.183.08.276.114.789.293.82.37.444,1.141Z" fill="#fff"/>
              <path d="M22.393,219.128c.499.219.727.794.517,1.302-.221.534-.813.768-1.33.526-.487-.228-.709-.822-.492-1.317.216-.494.813-.728,1.305-.511Z" fill="#fff"/>
              <path d="M22.027,231.079c.417.187.539.567.338,1.048-.194.464-.711.68-1.153.482-.429-.192-.614-.697-.415-1.134.209-.459.721-.624,1.23-.396Z" fill="#fff"/>
              <path d="M23.393,237.108c-.425-.202-.6-.679-.401-1.091.198-.408.689-.576,1.106-.379.451.214.653.712.454,1.122-.2.413-.703.564-1.159.348Z" fill="#fff"/>
              <path d="M29.605,226.737c.416.185.613.678.435,1.092-.18.42-.671.61-1.09.423-.426-.19-.613-.663-.43-1.089.184-.429.658-.615,1.085-.426Z" fill="#fff"/>
              <path d="M33.83,239.259c.39.189.547.678.344,1.07-.193.373-.645.529-1.029.355-.406-.184-.571-.648-.376-1.054.191-.398.664-.563,1.061-.37Z" fill="#fff"/>
              <path d="M17.198,220.803c.189-.385.627-.538,1.019-.357.408.188.571.652.369,1.055-.191.381-.638.539-1.023.36-.406-.189-.566-.65-.366-1.057Z" fill="#fff"/>
              <path d="M29.042,239.366c-.365-.178-.518-.59-.342-.923.182-.345.645-.502.992-.335.357.172.495.569.324.93-.177.372-.594.513-.973.328Z" fill="#fff"/>
              <path d="M25.557,216.892c.105.049.216.087.313.149.298.19.386.459.205.766-.184.31-.471.346-.774.181-.158-.086-.288-.223-.444-.314-.287-.167-.415-.396-.254-.701.164-.312.433-.319.724-.173.074.037.15.07.225.106.002-.004.004-.008.006-.013Z" fill="#fff"/>
              <path d="M16.918,233.825c-.36-.157-.534-.569-.384-.908.152-.343.623-.513.978-.354.334.151.498.6.338.93-.164.34-.576.486-.933.331Z" fill="#fff"/>
              <path d="M37.67,220.651c.169-.399.527-.581.877-.446.329.127.496.54.355.879-.141.342-.833.611-1.165.454-.262-.124-.282-.382-.068-.887Z" fill="#fff"/>
              <path d="M39.011,225.958c-.346-.172-.487-.599-.292-.942.203-.359.517-.465.897-.307.365.152.503.566.329.925-.173.356-.583.499-.933.324Z" fill="#fff"/>
              <path d="M33.441,216.179c.33.172.464.618.288.958-.179.346-.555.468-.893.289-.343-.181-.479-.609-.302-.947.168-.321.595-.462.906-.3Z" fill="#fff"/>
              <path d="M25.496,222.172c.153-.328.562-.486.89-.343.344.15.493.588.317.934-.166.328-.575.469-.897.31-.32-.158-.463-.573-.31-.901Z" fill="#fff"/>
              <path d="M33.702,225.679c-.173.27-.44.389-.785.24-.316-.136-.468-.553-.304-.845.181-.321.47-.417.809-.282.314.125.45.542.28.887Z" fill="#fff"/>
              <path d="M18.46,225.651c-.261.052-.544.193-.779.136-.35-.085-.417-.422-.281-.736.14-.324.459-.465.742-.289.2.125.282.441.416.671l-.099.217Z" fill="#fff"/>
              <path d="M26.442,231.498c.393-.115.628-.244.843-.216.085.011.218.398.166.563-.092.291-.375.388-.649.204-.122-.082-.177-.262-.36-.55Z" fill="#fff"/>
              <path d="M20.067,230.228c-.054-.342-.165-.578-.09-.701.079-.131.335-.155.513-.225.065.181.216.39.169.535-.045.138-.297.208-.592.392Z" fill="#fff"/>
              <path d="M22.158,224.654c.052.317.156.532.088.649-.071.122-.305.15-.468.219-.068-.177-.211-.37-.178-.526.024-.115.279-.181.558-.342Z" fill="#fff"/>
              <path d="M24.245,214.187c.053.337.159.564.087.67-.08.118-.337.193-.487.159-.088-.02-.201-.323-.155-.439.053-.134.271-.202.555-.39Z" fill="#fff"/>
              <path d="M27.901,221.393c.324-.043.544-.139.653-.067.117.078.13.313.189.479-.168.058-.362.195-.497.151-.122-.04-.18-.277-.345-.562Z" fill="#fff"/>
              <path d="M31.137,222.094c.287-.056.484-.158.587-.098.108.064.207.317.161.422-.046.105-.298.204-.42.168-.114-.033-.174-.247-.328-.493Z" fill="#fff"/>
              <path d="M16.584,228.538c.289-.05.475-.141.592-.085.101.049.208.323.16.391-.082.118-.299.228-.428.2-.108-.024-.17-.251-.324-.506Z" fill="#fff"/>
              <path d="M16.588,225.793c-.295.046-.496.141-.598.077-.112-.07-.133-.286-.194-.439.155-.055.332-.182.457-.143.116.036.176.251.335.505Z" fill="#fff"/>
              <path d="M37.023,230.899c.231-.04.432-.133.503-.073.104.088.116.286.168.437-.155.043-.327.145-.459.107-.088-.025-.119-.249-.212-.47Z" fill="#fff"/>
              <path d="M35.649,238.094c-.025-.251-.106-.458-.039-.533.089-.1.294-.098.449-.14.029.146.122.325.069.43-.053.105-.252.136-.479.243Z" fill="#fff"/>
              <path d="M22.224,226.751c.051.226.145.401.094.474-.074.106-.253.138-.388.202-.043-.141-.14-.295-.111-.42.02-.089.209-.139.405-.257Z" fill="#fff"/>
              <path d="M24.874,229.142c.045.22.118.366.083.477-.022.068-.269.148-.311.109-.089-.081-.156-.243-.142-.36.009-.071.188-.121.37-.226Z" fill="#fff"/>
            </g>
            <g>
              <path d="M42.867,210.435c.422.204.447.691.281.93-.197.285-.576.381-.864.206-.303-.185-.399-.574-.215-.881.03-.049.067-.094.098-.142.261-.411.308-.419.699-.113Z" fill="#fff"/>
              <path d="M34.377,215.797c.184-.255.538-.315.799-.134.275.19.336.553.137.816-.188.248-.551.301-.805.118-.253-.182-.313-.548-.131-.8Z" fill="#fff"/>
              <path d="M41.093,217.453c.156-.213.386-.236.634-.064.239.166.298.484.133.71-.161.22-.469.263-.692.097-.234-.174-.265-.483-.075-.744Z" fill="#fff"/>
              <path d="M44.669,217.412c-.166.216-.457.257-.666.094-.207-.161-.243-.46-.08-.672.176-.229.482-.283.69-.12.209.163.234.466.056.698Z" fill="#fff"/>
              <path d="M39.555,212.64c.155-.213.458-.264.67-.114.216.153.264.454.107.668-.159.218-.45.266-.668.111-.22-.156-.268-.447-.109-.665Z" fill="#fff"/>
              <path d="M47.151,211.769c.154-.197.45-.227.647-.065.188.154.221.429.076.625-.154.207-.436.245-.642.085-.202-.156-.238-.444-.081-.645Z" fill="#fff"/>
              <path d="M34.694,218.939c-.195-.154-.228-.42-.079-.62.156-.208.438-.244.641-.081.192.154.227.426.08.622-.156.207-.437.241-.642.079Z" fill="#fff"/>
              <path d="M46.631,214.491c-.145.185-.397.221-.564.082-.173-.145-.206-.426-.069-.602.14-.181.382-.211.565-.071.189.145.218.398.068.59Z" fill="#fff"/>
              <path d="M33.496,213.736c.04-.053.076-.112.122-.159.144-.146.307-.163.458-.023.153.142.138.308.009.46-.068.079-.161.136-.232.213-.129.142-.274.187-.428.059-.156-.131-.128-.284-.01-.43.03-.037.058-.076.087-.114l-.006-.005Z" fill="#fff"/>
              <path d="M42.026,220.677c-.132.184-.387.233-.56.107-.176-.128-.215-.415-.081-.596.126-.171.4-.209.567-.079.172.134.205.385.074.568Z" fill="#fff"/>
              <path d="M37.091,207.34c-.205-.144-.265-.369-.146-.55.112-.171.365-.215.54-.094.176.121.245.545.115.714-.102.133-.25.113-.51-.069Z" fill="#fff"/>
              <path d="M40.256,207.225c-.14.175-.398.203-.569.051-.179-.159-.2-.349-.065-.544.13-.188.381-.216.563-.074.181.141.211.39.07.567Z" fill="#fff"/>
              <path d="M34.049,209.19c.137-.166.406-.187.577-.047.174.143.197.371.055.54-.144.172-.403.197-.572.056-.161-.134-.189-.393-.06-.549Z" fill="#fff"/>
              <path d="M36.475,214.411c-.167-.126-.207-.377-.086-.545.127-.176.392-.207.567-.066.165.133.195.382.066.545-.128.162-.38.192-.547.066Z" fill="#fff"/>
              <path d="M39.454,210.195c.132.13.167.296.041.473-.115.162-.37.198-.515.07-.16-.141-.179-.317-.062-.492.109-.163.361-.189.535-.051Z" fill="#fff"/>
              <path d="M37.59,218.813c-.002.154.043.331-.017.457-.091.187-.289.185-.45.07-.166-.118-.207-.316-.073-.455.095-.098.283-.106.43-.154l.111.082Z" fill="#fff"/>
              <path d="M41.865,215.007c-.017-.236-.062-.385-.02-.503.016-.047.252-.075.339-.026.153.087.174.259.037.392-.061.059-.17.069-.355.137Z" fill="#fff"/>
              <path d="M40.373,218.459c-.2-.011-.347.023-.408-.034-.064-.061-.047-.208-.065-.318.11-.015.247-.075.323-.031.073.042.082.193.15.383Z" fill="#fff"/>
              <path d="M37.474,216.6c.185.009.32-.024.378.029.061.055.048.191.067.291-.108.017-.235.075-.319.037-.062-.028-.068-.18-.126-.357Z" fill="#fff"/>
              <path d="M31.806,214.15c.197.011.338-.022.389.032.057.06.068.214.031.295-.022.047-.207.075-.267.034-.069-.046-.081-.178-.153-.361Z" fill="#fff"/>
              <path d="M36.326,212.956c.015-.189-.013-.325.041-.377.058-.057.193-.036.294-.049.012.102.066.228.025.299-.038.064-.179.069-.36.127Z" fill="#fff"/>
              <path d="M37.115,211.211c.003-.169-.031-.293.016-.344.049-.054.205-.079.258-.04.054.039.079.194.044.258-.033.06-.161.069-.318.126Z" fill="#fff"/>
              <path d="M38.995,220.224c.007-.169-.022-.286.024-.345.04-.051.208-.078.241-.043.057.061.093.197.061.266-.027.058-.163.066-.325.122Z" fill="#fff"/>
              <path d="M37.443,219.889c-.009.172.02.298-.029.348-.053.055-.178.041-.272.057-.012-.094-.063-.21-.025-.276.035-.061.163-.069.326-.128Z" fill="#fff"/>
              <path d="M42.81,208.949c.005-.136-.023-.26.02-.294.062-.048.176-.031.267-.042.005.093.042.203.005.273-.025.047-.156.037-.292.063Z" fill="#fff"/>
              <path d="M46.713,210.599c-.145-.016-.272.005-.306-.042-.046-.063-.02-.178-.025-.271.086.001.198-.03.252.013.053.042.046.159.079.3Z" fill="#fff"/>
              <path d="M38.668,216.817c.134-.001.244-.034.28.004.051.055.048.16.067.244-.085.007-.184.043-.251.012-.048-.022-.054-.135-.096-.26Z" fill="#fff"/>
              <path d="M40.342,215.608c.13,0,.221-.023.28.011.036.021.051.17.024.189-.057.041-.156.059-.221.036-.039-.014-.046-.121-.083-.237Z" fill="#fff"/>
            </g>
          </g>
        </g>
      </g>
    </g>
  </g>
</svg>