<?xml version="1.0" encoding="UTF-8"?>
<svg xmlns="http://www.w3.org/2000/svg" width="300" height="300" xmlns:xlink="http://www.w3.org/1999/xlink" viewBox="0 0 300 300">
  <defs>
    <clipPath id="b">
      <path d="M27.111,96.934v129.238c1.89.35,3.973.545,6.164.545,5.076,0,9.57-1.043,12.415-2.649.138-.006.275-.012.413-.018,1.532,1.617,3.964,2.668,6.71,2.668s5.18-1.051,6.712-2.67c1.956,1.618,5.059,2.67,8.566,2.67,2.89,0,5.507-.714,7.435-1.87,2.251,1.156,5.308,1.87,8.683,1.87,2.909,0,5.578-.533,7.704-1.418.523.885,1.18,1.418,1.895,1.418.705,0,1.352-.518,1.871-1.38,2.11.862,4.742,1.38,7.607,1.38,3.747,0,7.1-.881,9.394-2.269,1.964,1.388,4.835,2.269,8.044,2.269,2.976,0,5.668-.755,7.61-1.972,2.268,1.217,5.412,1.972,8.888,1.972.154,0,.299-.017.451-.021.308.008.613.021.926.021,5.076,0,9.57-1.043,12.415-2.649.138-.006.275-.012.413-.018,1.532,1.617,3.964,2.668,6.71,2.668s5.18-1.051,6.712-2.67c1.956,1.618,5.059,2.67,8.566,2.67,2.89,0,5.507-.714,7.435-1.87,2.251,1.156,5.308,1.87,8.683,1.87,2.909,0,5.578-.533,7.704-1.418.523.885,1.18,1.418,1.895,1.418.705,0,1.352-.518,1.871-1.38,2.11.862,4.742,1.38,7.607,1.38,3.747,0,7.1-.881,9.394-2.269,1.964,1.388,4.835,2.269,8.044,2.269,2.976,0,5.668-.755,7.61-1.972,2.268,1.217,5.412,1.972,8.888,1.972.622,0,1.226-.036,1.824-.083V96.934H27.111Z" fill="none"/>
    </clipPath>
    <filter id="c" data-name="drop-shadow-4" x="51.128" y="139.955" width="172.938" height="91.287" filterUnits="userSpaceOnUse">
      <feOffset dx="-1.219" dy="0"/>
      <feGaussianBlur result="d" stdDeviation="0"/>
      <feFlood flood-color="#42496f" flood-opacity="1"/>
      <feComposite in2="d" operator="in"/>
      <feComposite in="SourceGraphic"/>
    </filter>
    <clipPath id="e">
      <path d="M179.053,157.77c.522.087,3.308,4.179,3.308,4.179l.174,1.567,1.153.945-.872,1.09.969.775-1.09.92-.315.945s-7.892,14.419-8.049,14.36-11.483-1.022-11.483-1.022l2.006-10.893,14.199-12.865Z" fill="none"/>
    </clipPath>
    <clipPath id="f">
      <path d="M170.719,198.113l1.695-2.102-2.232-.588,4.401-3.026-2.751-2.751,30.815-2.004c7.481-22.75,6.455-44.756,6.455-44.756l-6.601,1.926s-5.501,25.305-18.429,31.907h-84.993l-9.627-34.107h-34.933s.912,7.177,1.948,15.163h15.463l-2.595,3.539,3.539,2.36-2.124.472,2.124,1.888h-15.327c.534,4.045,1.028,7.721,1.373,10.136.535,3.742,2.814,14.515,5.231,25.545l19.937-.24-3.576,2.475,3.851,2.751-1.925,1.926,4.126,1.1-20.542.461c2.517,11.326,4.726,20.993,4.726,20.993.413.138,96.545,0,96.545,0,15.616-7.211,25.424-20.06,31.58-33.763l-28.155.695Z" fill="none"/>
    </clipPath>
  </defs>
  <g isolation="isolate">
    <g id="a" data-name="bateau 10">
      <g>
        <g clip-path="url(#b)">
          <g>
            <path d="M187.393,229.719s12.46-16.648,7.995-18.232c-4.465-1.584-22.186,13.793-22.186,13.793l14.191,4.439Z" fill="#fff"/>
            <path d="M184.181,233.793s12.46-16.648,7.995-18.232c-4.465-1.584-22.186,13.793-22.186,13.793l14.191,4.439Z" fill="#9bc8ec"/>
            <g>
              <path d="M196.058,225.029c-.524.265-1.029-.081-1.141-.428-.134-.414.059-.864.453-1.018.415-.162.876.04,1.042.457.027.067.042.139.067.206.211.574.182.627-.42.783Z" fill="#fff"/>
              <path d="M197.182,212.481c.114.378-.096.776-.475.899-.399.13-.807-.086-.917-.486-.104-.376.119-.779.495-.893.375-.113.785.106.897.479Z" fill="#fff"/>
              <path d="M190.414,217.913c.093.318-.059.565-.419.68-.347.111-.71-.072-.809-.409-.096-.328.095-.667.431-.764.352-.101.684.104.798.492Z" fill="#fff"/>
              <path d="M187.73,221.509c-.089-.33.092-.651.413-.735.319-.083.643.108.731.432.095.35-.085.696-.406.779-.322.084-.643-.122-.738-.476Z" fill="#fff"/>
              <path d="M196.383,220.048c.094.317-.085.658-.397.755-.317.098-.653-.083-.747-.402-.096-.325.077-.651.398-.75.324-.101.65.073.746.398Z" fill="#fff"/>
              <path d="M191.464,228.283c.079.304-.116.621-.428.694-.297.069-.596-.107-.681-.401-.09-.311.088-.621.404-.705.31-.082.624.101.705.411Z" fill="#fff"/>
              <path d="M193.808,210.404c.302-.077.593.092.678.394.089.314-.091.622-.408.701-.3.074-.598-.098-.681-.395-.087-.313.092-.619.411-.7Z" fill="#fff"/>
              <path d="M189.148,225.691c-.074-.285.081-.564.348-.624.276-.062.581.119.652.389.073.278-.081.542-.36.617-.289.078-.563-.086-.64-.382Z" fill="#fff"/>
              <path d="M199.907,213.172c.022.081.054.161.065.243.036.254-.072.43-.326.474-.258.045-.413-.097-.465-.342-.027-.128-.013-.264-.036-.393-.043-.237.023-.415.267-.471.249-.056.38.089.437.318.014.058.032.116.048.174l.01-.003Z" fill="#fff"/>
              <path d="M186.49,216.387c-.083-.272.062-.563.32-.64.261-.078.577.102.656.373.075.256-.096.557-.354.625-.265.07-.54-.089-.623-.359Z" fill="#fff"/>
              <path d="M203.544,221.63c.3-.095.569.017.66.274.085.242-.064.528-.318.61-.255.083-.73-.172-.799-.429-.055-.203.078-.336.458-.456Z" fill="#fff"/>
              <path d="M201.246,224.872c-.068-.272.101-.551.382-.606.294-.057.5.066.592.35.088.273-.075.545-.356.618-.278.072-.55-.086-.619-.362Z" fill="#fff"/>
              <path d="M204.018,217.188c.061.263-.123.548-.393.611-.275.064-.52-.086-.581-.357-.062-.275.11-.551.381-.613.256-.058.536.11.593.359Z" fill="#fff"/>
              <path d="M196.965,215.628c.253-.07.533.081.609.33.079.261-.092.549-.366.616-.259.063-.53-.096-.594-.349-.064-.251.098-.525.351-.596Z" fill="#fff"/>
              <path d="M198.898,221.81c-.231.032-.422-.06-.503-.32-.074-.238.085-.519.323-.566.262-.052.452.063.537.314.079.232-.087.504-.357.572Z" fill="#fff"/>
              <path d="M191.727,213.385c-.152-.119-.363-.209-.442-.365-.118-.233.036-.429.274-.502.244-.075.473.034.509.274.026.169-.11.363-.174.546l-.166.048Z" fill="#fff"/>
              <path d="M192.264,220.547c.249.163.431.232.517.363.034.052-.117.308-.232.357-.204.087-.391-.024-.419-.262-.012-.106.061-.221.134-.458Z" fill="#fff"/>
              <path d="M189.959,216.43c.163-.191.241-.364.344-.38.11-.018.243.112.366.177-.069.121-.113.303-.215.345-.097.04-.255-.066-.496-.142Z" fill="#fff"/>
              <path d="M194.021,214.956c-.15.178-.22.337-.316.355-.101.019-.227-.098-.342-.155.066-.121.105-.291.206-.346.075-.041.231.069.452.147Z" fill="#fff"/>
              <path d="M200.782,211.173c-.161.189-.236.353-.328.364-.103.012-.265-.095-.317-.194-.03-.058.083-.263.169-.292.099-.034.239.054.476.122Z" fill="#fff"/>
              <path d="M198.528,216.588c.176.159.333.235.345.329.012.101-.111.219-.175.33-.111-.065-.278-.108-.317-.203-.036-.086.068-.23.148-.456Z" fill="#fff"/>
              <path d="M199.667,218.704c.166.132.316.193.331.278.016.09-.077.264-.157.288-.08.024-.253-.069-.291-.152-.035-.078.054-.213.117-.413Z" fill="#fff"/>
              <path d="M189.25,213.711c.164.136.302.196.326.287.021.079-.08.267-.14.273-.104.01-.267-.057-.312-.142-.038-.071.058-.212.126-.417Z" fill="#fff"/>
              <path d="M190.767,212.419c-.164-.141-.312-.207-.325-.294-.014-.095.095-.209.151-.314.103.06.257.097.295.185.035.081-.055.215-.121.423Z" fill="#fff"/>
              <path d="M197.583,226.104c.131.109.277.175.278.243,0,.099-.103.199-.162.298-.097-.066-.234-.112-.275-.203-.028-.061.081-.183.16-.339Z" fill="#fff"/>
              <path d="M192.964,228.738c.126-.132.202-.274.276-.273.097.002.193.116.289.182-.067.085-.122.22-.205.241-.083.02-.194-.075-.36-.15Z" fill="#fff"/>
              <path d="M192.895,215.981c-.101.135-.153.269-.217.276-.093.009-.196-.075-.294-.119.058-.09.097-.216.179-.259.058-.031.175.049.333.102Z" fill="#fff"/>
              <path d="M192.825,218.57c-.1.129-.146.238-.224.271-.048.02-.208-.078-.207-.12.003-.087.06-.201.132-.248.044-.029.155.047.299.098Z" fill="#fff"/>
            </g>
          </g>
          <g filter="url(#c)">
            <polygon points="191.705 187.163 193.196 190.689 190.688 192.926 193.196 194.96 191.23 198.486 166.21 200.249 168.855 188.383 191.705 187.163" fill="#42496f"/>
            <polygon points="72.649 211.094 71.166 207.464 73.66 205.402 71.166 203.192 73.121 199.804 97.995 199.791 95.366 211.472 72.649 211.094" fill="#42496f"/>
            <polygon points="62.257 155.888 65.324 161.315 63.201 162.966 64.616 164.618 61.785 167.449 78.065 166.506 73.818 152.703 62.257 155.888" fill="#42496f"/>
            <polygon points="189.852 169.714 181.352 169.775 182.086 169.102 181.23 168.246 182.208 166.779 177.499 166.412 171.201 175.095 183.92 175.034 189.852 169.714" fill="#e86170"/>
            <g clip-path="url(#e)">
              <polyline points="183.651 165.09 176.69 165.09 165.837 181.37" fill="none" stroke="#42496f" stroke-miterlimit="10" stroke-width="4.876"/>
            </g>
            <path d="M170.719,198.113l1.695-2.102-2.232-.588,4.401-3.026-2.751-2.751,30.815-2.004c7.481-22.75,6.455-44.756,6.455-44.756l-6.601,1.926s-5.501,25.305-18.429,31.907h-84.993l-9.627-34.107h-34.933s.912,7.177,1.948,15.163h15.463l-2.595,3.539,3.539,2.36-2.124.472,2.124,1.888h-15.327c.534,4.045,1.028,7.721,1.373,10.136.535,3.742,2.814,14.515,5.231,25.545l19.937-.24-3.576,2.475,3.851,2.751-1.925,1.926,4.126,1.1-20.542.461c2.517,11.326,4.726,20.993,4.726,20.993.413.138,96.545,0,96.545,0,15.616-7.211,25.424-20.06,31.58-33.763l-28.155.695Z" fill="#e86170"/>
            <g clip-path="url(#f)">
              <g mix-blend-mode="multiply" opacity=".5">
                <line x1="54.235" y1="173.702" x2="93.048" y2="173.702" fill="none" stroke="#a384bb" stroke-linecap="round" stroke-linejoin="round" stroke-width=".61"/>
                <line x1="79.009" y1="166.623" x2="117.822" y2="166.623" fill="none" stroke="#a384bb" stroke-linecap="round" stroke-linejoin="round" stroke-width=".61"/>
                <line x1="162.77" y1="166.623" x2="201.583" y2="166.623" fill="none" stroke="#a384bb" stroke-linecap="round" stroke-linejoin="round" stroke-width=".61"/>
                <line x1="78.301" y1="158.011" x2="117.114" y2="158.011" fill="none" stroke="#a384bb" stroke-linecap="round" stroke-linejoin="round" stroke-width=".61"/>
                <line x1="184.948" y1="158.011" x2="223.761" y2="158.011" fill="none" stroke="#a384bb" stroke-linecap="round" stroke-linejoin="round" stroke-width=".61"/>
                <line x1="53.291" y1="149.989" x2="93.166" y2="149.989" fill="none" stroke="#a384bb" stroke-linecap="round" stroke-linejoin="round" stroke-width=".61"/>
                <line x1="55.179" y1="181.96" x2="194.032" y2="181.37" fill="none" stroke="#a384bb" stroke-linecap="round" stroke-linejoin="round" stroke-width=".61"/>
                <line x1="56.83" y1="190.218" x2="158.287" y2="190.336" fill="none" stroke="#a384bb" stroke-linecap="round" stroke-linejoin="round" stroke-width=".61"/>
                <line x1="97.649" y1="200.953" x2="163.241" y2="199.42" fill="none" stroke="#a384bb" stroke-linecap="round" stroke-linejoin="round" stroke-width=".61"/>
                <line x1="89.745" y1="209.094" x2="130.209" y2="209.094" fill="none" stroke="#a384bb" stroke-linecap="round" stroke-linejoin="round" stroke-width=".61"/>
                <line x1="62.611" y1="217.489" x2="128.094" y2="217.489" fill="none" stroke="#a384bb" stroke-linecap="round" stroke-linejoin="round" stroke-width=".61"/>
                <line x1="163.006" y1="209.565" x2="192.971" y2="209.565" fill="none" stroke="#a384bb" stroke-linecap="round" stroke-linejoin="round" stroke-width=".61"/>
              </g>
            </g>
            <polygon points="89.452 142.612 80.094 142.612 87.282 176.72 99.079 176.72 89.452 142.612" fill="#a384bb" mix-blend-mode="multiply" opacity=".25"/>
            <polygon points="133.041 208.74 151.208 208.74 152.388 210.391 146.961 212.515 153.096 214.638 149.557 217.47 133.512 217.47 130.917 215.346 137.288 212.751 132.333 210.627 135.164 210.155 133.041 208.74" fill="#42496f"/>
            <g>
              <circle cx="94.11" cy="194.229" r="6.017" fill="#f4af13"/>
              <circle cx="94.11" cy="194.229" r="3.657" fill="#42496f"/>
            </g>
            <g>
              <circle cx="73.818" cy="156.36" r="6.017" fill="#f4af13"/>
              <circle cx="73.818" cy="156.36" r="3.657" fill="#42496f"/>
            </g>
            <g>
              <circle cx="121.833" cy="194.229" r="6.017" fill="#f4af13"/>
              <circle cx="121.833" cy="194.229" r="3.657" fill="#42496f"/>
            </g>
            <g>
              <circle cx="149.557" cy="194.229" r="6.017" fill="#f4af13"/>
              <circle cx="149.557" cy="194.229" r="3.657" fill="#42496f"/>
            </g>
            <rect x="52.347" y="141.731" width="39.403" height="4.011" fill="#42496f"/>
            <path d="M87.282,176.72h93.692c8.368,0,19.328-22.395,21.527-31.907l8.475-2.521" fill="none" stroke="#42496f" stroke-miterlimit="10" stroke-width="4.876"/>
            <g>
              <path d="M72.29,178.98s30.716-6.011,34.576-6.907l-1.038,2.717-3.901,2.032,4.422-.668-1.375,1.476,2.944.217.175,1.366s-29.577,6.674-33.83,7.254l-.676-1.208,2.896-.087-2.531-1.188,1.827-.817-1.602-.992,1.811-2.021-3.158-.116-.539-1.057Z" fill="#42496f"/>
              <path d="M72.592,178.376s30.716-6.011,34.576-6.907l-1.038,2.717-3.901,2.032,4.422-.668-1.375,1.476,2.944.217.175,1.366s-29.577,6.674-33.83,7.254l-.676-1.208,2.896-.087-2.531-1.188,1.827-.817-1.602-.992,1.811-2.021-3.158-.116-.539-1.057Z" fill="#e86170"/>
            </g>
          </g>
        </g>
        <g>
          <path d="M184.682,228.662s-9.568-26.22-18.071-20.245c-2.405,1.69,3.905,15.144,3.905,15.144,0,0-8.4-4.08-9.071-.576s-3.902,6.233-10.364,4.94c-6.462-1.292,18.236,7.835,18.811,4.169s8.162,3.467,9.861,1.695c1.699-1.772-1.245-6.975,4.929-5.127Z" fill="#9bc8ec"/>
          <path d="M181.252,224.868c.307-5.671-8.427-20.919-14.641-16.451-4.091,2.941,2.882,11.611,3.905,15.144-5.19-2.997-11.257-3.346-12.88-1.674-1.624,1.673,2.994,2.384,1.723,3.905s-13.202,1.552-13.202,1.552c0,0,13.678,4.838,17.552,3.141,2.44-1.069-1.482-4.55.681-5.306,5.407-1.892,10.289,7.887,14.422,6.836,2.449-.623-3.542-8.49-1.961-9.141,1.581-.651,4.402,1.994,4.402,1.994Z" fill="#fff"/>
          <g>
            <g>
              <path d="M145.487,226.15c.278.3.144.705-.067.847-.251.169-.59.127-.768-.107-.188-.247-.142-.594.105-.785.04-.031.085-.055.125-.085.344-.251.384-.243.605.131Z" fill="#fff"/>
              <path d="M136.871,227.813c.231-.149.538-.085.693.145.164.242.098.557-.149.708-.232.142-.544.07-.693-.16-.148-.229-.08-.546.148-.693Z" fill="#fff"/>
              <path d="M141.81,231.298c.195-.124.389-.069.536.15.141.211.089.489-.118.621-.201.128-.465.065-.594-.141-.135-.216-.062-.478.176-.629Z" fill="#fff"/>
              <path d="M144.733,232.403c-.204.123-.454.064-.572-.135-.117-.197-.051-.451.149-.572.216-.131.482-.077.6.122.118.2.042.454-.177.586Z" fill="#fff"/>
              <path d="M142.09,226.891c.194-.124.457-.07.582.121.127.193.07.453-.126.578-.199.127-.451.073-.579-.122-.13-.197-.076-.449.123-.576Z" fill="#fff"/>
              <path d="M148.55,228.6c.188-.112.438-.042.547.153.104.185.043.42-.137.533-.191.12-.432.06-.549-.135-.115-.191-.052-.437.14-.551Z" fill="#fff"/>
              <path d="M136.129,230.471c-.11-.187-.052-.415.133-.53.193-.12.434-.059.548.138.108.187.049.419-.133.532-.193.119-.432.058-.548-.14Z" fill="#fff"/>
              <path d="M147.26,230.649c-.177.104-.393.054-.485-.113-.095-.173-.032-.412.135-.512.172-.103.378-.05.483.122.108.178.051.394-.133.502Z" fill="#fff"/>
              <path d="M136.809,225.855c.05-.031.097-.067.15-.091.163-.073.301-.035.38.127.08.164.015.295-.139.377-.08.043-.175.059-.256.1-.151.075-.283.065-.367-.088-.086-.156-.014-.271.129-.354.036-.021.071-.044.107-.065l-.004-.006Z" fill="#fff"/>
              <path d="M141.543,234.219c-.166.108-.389.067-.49-.091-.102-.16-.043-.406.124-.511.157-.099.392-.043.487.117.098.164.045.379-.12.486Z" fill="#fff"/>
              <path d="M141.771,221.793c-.121-.182-.098-.384.057-.494.145-.103.366-.059.47.095.105.155.026.522-.133.618-.125.076-.24.012-.393-.219Z" fill="#fff"/>
              <path d="M144.384,222.707c-.169.098-.388.038-.479-.139-.095-.186-.052-.347.121-.464.166-.112.379-.055.482.119.102.172.048.385-.123.484Z" fill="#fff"/>
              <path d="M138.706,222.33c.164-.091.39-.023.485.146.096.172.043.365-.127.457-.172.094-.39.032-.484-.137-.088-.16-.029-.38.126-.466Z" fill="#fff"/>
              <path d="M139.019,227.352c-.096-.156-.048-.373.104-.471.159-.103.385-.044.482.126.092.161.038.373-.12.465-.156.091-.371.036-.466-.12Z" fill="#fff"/>
              <path d="M142.786,224.869c.066.148.041.294-.117.398-.145.095-.364.043-.441-.107-.085-.166-.045-.315.107-.42.14-.098.354-.039.452.129Z" fill="#fff"/>
              <path d="M138.526,231.29c-.051.125-.07.283-.159.366-.133.124-.294.058-.389-.087-.097-.149-.068-.323.085-.394.108-.05.264.004.399.012l.064.102Z" fill="#fff"/>
              <path d="M143.217,229.553c.061-.198.072-.333.144-.416.028-.033.229.019.284.087.097.12.059.266-.095.331-.068.029-.16.002-.333-.002Z" fill="#fff"/>
              <path d="M140.904,231.888c-.159-.073-.29-.091-.321-.157-.033-.07.028-.184.048-.279.094.023.225.018.273.078.046.057.005.183,0,.359Z" fill="#fff"/>
              <path d="M139.136,229.452c.148.066.268.083.298.144.032.064-.022.171-.038.259-.094-.021-.215-.014-.272-.071-.042-.042.001-.168.011-.331Z" fill="#fff"/>
              <path d="M135.302,225.654c.157.072.282.09.307.15.028.067-.012.196-.069.25-.033.032-.192-.005-.228-.057-.041-.06-.01-.17-.01-.343Z" fill="#fff"/>
              <path d="M139.361,226.121c.072-.149.093-.268.154-.294.065-.028.168.032.255.054-.022.087-.019.207-.075.252-.051.04-.167-.001-.333-.011Z" fill="#fff"/>
              <path d="M140.559,224.951c.056-.137.068-.248.122-.275.057-.028.192.001.223.05.032.049.003.183-.046.224-.046.039-.153.005-.299,0Z" fill="#fff"/>
              <path d="M139.22,232.886c.059-.136.073-.24.129-.273.049-.029.194.002.21.041.027.067.013.19-.035.236-.04.039-.153.002-.304-.004Z" fill="#fff"/>
              <path d="M138.064,232.119c-.063.137-.079.248-.134.274-.061.028-.158-.024-.239-.04.02-.081.016-.191.067-.233.048-.039.155-.004.306,0Z" fill="#fff"/>
              <path d="M145.913,224.923c.048-.109.064-.219.109-.233.066-.02.153.03.231.051-.025.077-.03.178-.083.223-.035.03-.138-.019-.257-.042Z" fill="#fff"/>
              <path d="M148.565,227.508c-.113-.059-.223-.083-.236-.132-.017-.066.041-.151.066-.228.07.029.171.039.201.091.029.051-.013.144-.031.27Z" fill="#fff"/>
              <path d="M140.039,230.009c.109.041.209.05.226.093.024.061-.012.145-.023.22-.072-.021-.163-.023-.208-.07-.032-.033,0-.127.005-.242Z" fill="#fff"/>
              <path d="M141.786,229.558c.105.042.187.052.224.098.023.028-.012.155-.041.162-.059.015-.146-.002-.192-.041-.028-.024.001-.113.008-.219Z" fill="#fff"/>
            </g>
            <g>
              <path d="M165.266,228.029c-.192.786-1.006,1.005-1.47.812-.553-.23-.853-.835-.661-1.385.202-.58.826-.883,1.411-.683.094.032.183.08.276.114.789.293.82.37.444,1.141Z" fill="#fff"/>
              <path d="M153.126,215.623c.499.219.727.794.517,1.302-.221.534-.813.768-1.33.526-.487-.228-.709-.822-.492-1.317.216-.494.813-.728,1.305-.511Z" fill="#fff"/>
              <path d="M152.76,227.574c.417.187.539.567.338,1.048-.194.464-.711.68-1.153.482-.429-.192-.614-.697-.415-1.134.209-.459.721-.624,1.23-.396Z" fill="#fff"/>
              <path d="M154.126,233.603c-.425-.202-.6-.679-.401-1.091.198-.408.689-.576,1.106-.379.451.214.653.712.454,1.122-.2.413-.703.564-1.159.348Z" fill="#fff"/>
              <path d="M160.338,223.231c.416.185.613.678.435,1.092-.18.42-.671.61-1.09.423-.426-.19-.613-.663-.43-1.089.184-.429.658-.615,1.085-.426Z" fill="#fff"/>
              <path d="M164.562,235.753c.39.189.547.678.344,1.07-.193.373-.645.529-1.029.355-.406-.184-.571-.648-.376-1.054.191-.398.664-.563,1.061-.37Z" fill="#fff"/>
              <path d="M147.931,217.298c.189-.385.627-.538,1.019-.357.408.188.571.652.369,1.055-.191.381-.638.539-1.023.36-.406-.189-.566-.65-.366-1.057Z" fill="#fff"/>
              <path d="M159.775,235.86c-.365-.178-.518-.59-.342-.923.182-.345.645-.502.992-.335.357.172.495.569.324.93-.177.372-.594.513-.973.328Z" fill="#fff"/>
              <path d="M156.289,213.387c.105.049.216.087.313.149.298.19.386.459.205.766-.184.31-.471.346-.774.181-.158-.086-.288-.223-.444-.314-.287-.167-.415-.396-.254-.701.164-.312.433-.319.724-.173.074.037.15.07.225.106.002-.004.004-.008.006-.013Z" fill="#fff"/>
              <path d="M147.651,230.319c-.36-.157-.534-.569-.384-.908.152-.343.623-.513.978-.354.334.151.498.6.338.93-.164.34-.576.486-.933.331Z" fill="#fff"/>
              <path d="M168.403,217.145c.169-.399.527-.581.877-.446.329.127.496.54.355.879-.141.342-.833.611-1.165.454-.262-.124-.282-.382-.068-.887Z" fill="#fff"/>
              <path d="M169.744,222.453c-.346-.172-.487-.599-.292-.942.203-.359.517-.465.897-.307.365.152.503.566.329.925-.173.356-.583.499-.933.324Z" fill="#fff"/>
              <path d="M164.174,212.674c.33.172.464.618.288.958-.179.346-.555.468-.893.289-.343-.181-.479-.609-.302-.947.168-.321.595-.462.906-.3Z" fill="#fff"/>
              <path d="M156.229,218.667c.153-.328.562-.486.89-.343.344.15.493.588.317.934-.166.328-.575.469-.897.31-.32-.158-.463-.573-.31-.901Z" fill="#fff"/>
              <path d="M164.434,222.173c-.173.27-.44.389-.785.24-.316-.136-.468-.553-.304-.845.181-.321.47-.417.809-.282.314.125.45.542.28.887Z" fill="#fff"/>
              <path d="M149.193,222.146c-.261.052-.544.193-.779.136-.35-.085-.417-.422-.281-.736.14-.324.459-.465.742-.289.2.125.282.441.416.671l-.099.217Z" fill="#fff"/>
              <path d="M157.175,227.992c.393-.115.628-.244.843-.216.085.011.218.398.166.563-.092.291-.375.388-.649.204-.122-.082-.177-.262-.36-.55Z" fill="#fff"/>
              <path d="M150.8,226.722c-.054-.342-.165-.578-.09-.701.079-.131.335-.155.513-.225.065.181.216.39.169.535-.045.138-.297.208-.592.392Z" fill="#fff"/>
              <path d="M152.891,221.149c.052.317.156.532.088.649-.071.122-.305.15-.468.219-.068-.177-.211-.37-.178-.526.024-.115.279-.181.558-.342Z" fill="#fff"/>
              <path d="M154.978,210.681c.053.337.159.564.087.67-.08.118-.337.193-.487.159-.088-.02-.201-.323-.155-.439.053-.134.271-.202.555-.39Z" fill="#fff"/>
              <path d="M158.633,217.887c.324-.043.544-.139.653-.067.117.078.13.313.189.479-.168.058-.362.195-.497.151-.122-.04-.18-.277-.345-.562Z" fill="#fff"/>
              <path d="M161.869,218.589c.287-.056.484-.158.587-.098.108.064.207.317.161.422-.046.105-.298.204-.42.168-.114-.033-.174-.247-.328-.493Z" fill="#fff"/>
              <path d="M147.317,225.033c.289-.05.475-.141.592-.085.101.049.208.323.16.391-.082.118-.299.228-.428.2-.108-.024-.17-.251-.324-.506Z" fill="#fff"/>
              <path d="M147.321,222.288c-.295.046-.496.141-.598.077-.112-.07-.133-.286-.194-.439.155-.055.332-.182.457-.143.116.036.176.251.335.505Z" fill="#fff"/>
              <path d="M167.755,227.393c.231-.04.432-.133.503-.073.104.088.116.286.168.437-.155.043-.327.145-.459.107-.088-.025-.119-.249-.212-.47Z" fill="#fff"/>
              <path d="M166.382,234.588c-.025-.251-.106-.458-.039-.533.089-.1.294-.098.449-.14.029.146.122.325.069.43-.053.105-.252.136-.479.243Z" fill="#fff"/>
              <path d="M152.957,223.245c.051.226.145.401.094.474-.074.106-.253.138-.388.202-.043-.141-.14-.295-.111-.42.02-.089.209-.139.405-.257Z" fill="#fff"/>
              <path d="M155.607,225.636c.045.22.118.366.083.477-.022.068-.269.148-.311.109-.089-.081-.156-.243-.142-.36.009-.071.188-.121.37-.226Z" fill="#fff"/>
            </g>
            <g>
              <path d="M173.6,206.929c.422.204.447.691.281.93-.197.285-.576.381-.864.206-.303-.185-.399-.574-.215-.881.03-.049.067-.094.098-.142.261-.411.308-.419.699-.113Z" fill="#fff"/>
              <path d="M165.11,212.291c.184-.255.538-.315.799-.134.275.19.336.553.137.816-.188.248-.551.301-.805.118-.253-.182-.313-.548-.131-.8Z" fill="#fff"/>
              <path d="M171.826,213.948c.156-.213.386-.236.634-.064.239.166.298.484.133.71-.161.22-.469.263-.692.097-.234-.174-.265-.483-.075-.744Z" fill="#fff"/>
              <path d="M175.402,213.907c-.166.216-.457.257-.666.094-.207-.161-.243-.46-.08-.672.176-.229.482-.283.69-.12.209.163.234.466.056.698Z" fill="#fff"/>
              <path d="M170.288,209.135c.155-.213.458-.264.67-.114.216.153.264.454.107.668-.159.218-.45.266-.668.111-.22-.156-.268-.447-.109-.665Z" fill="#fff"/>
              <path d="M177.884,208.264c.154-.197.45-.227.647-.065.188.154.221.429.076.625-.154.207-.436.245-.642.085-.202-.156-.238-.444-.081-.645Z" fill="#fff"/>
              <path d="M165.427,215.433c-.195-.154-.228-.42-.079-.62.156-.208.438-.244.641-.081.192.154.227.426.08.622-.156.207-.437.241-.642.079Z" fill="#fff"/>
              <path d="M177.364,210.985c-.145.185-.397.221-.564.082-.173-.145-.206-.426-.069-.602.14-.181.382-.211.565-.071.189.145.218.398.068.59Z" fill="#fff"/>
              <path d="M164.228,210.231c.04-.053.076-.112.122-.159.144-.146.307-.163.458-.023.153.142.138.308.009.46-.068.079-.161.136-.232.213-.129.142-.274.187-.428.059-.156-.131-.128-.284-.01-.43.03-.037.058-.076.087-.114l-.006-.005Z" fill="#fff"/>
              <path d="M172.759,217.171c-.132.184-.387.233-.56.107-.176-.128-.215-.415-.081-.596.126-.171.4-.209.567-.079.172.134.205.385.074.568Z" fill="#fff"/>
              <path d="M167.824,203.835c-.205-.144-.265-.369-.146-.55.112-.171.365-.215.54-.094.176.121.245.545.115.714-.102.133-.25.113-.51-.069Z" fill="#fff"/>
              <path d="M170.989,203.72c-.14.175-.398.203-.569.051-.179-.159-.2-.349-.065-.544.13-.188.381-.216.563-.074.181.141.211.39.07.567Z" fill="#fff"/>
              <path d="M164.781,205.684c.137-.166.406-.187.577-.047.174.143.197.371.055.54-.144.172-.403.197-.572.056-.161-.134-.189-.393-.06-.549Z" fill="#fff"/>
              <path d="M167.208,210.905c-.167-.126-.207-.377-.086-.545.127-.176.392-.207.567-.066.165.133.195.382.066.545-.128.162-.38.192-.547.066Z" fill="#fff"/>
              <path d="M170.187,206.689c.132.13.167.296.041.473-.115.162-.37.198-.515.07-.16-.141-.179-.317-.062-.492.109-.163.361-.189.535-.051Z" fill="#fff"/>
              <path d="M168.322,215.308c-.002.154.043.331-.017.457-.091.187-.289.185-.45.07-.166-.118-.207-.316-.073-.455.095-.098.283-.106.43-.154l.111.082Z" fill="#fff"/>
              <path d="M172.598,211.501c-.017-.236-.062-.385-.02-.503.016-.047.252-.075.339-.026.153.087.174.259.037.392-.061.059-.17.069-.355.137Z" fill="#fff"/>
              <path d="M171.106,214.954c-.2-.011-.347.023-.408-.034-.064-.061-.047-.208-.065-.318.11-.015.247-.075.323-.031.073.042.082.193.15.383Z" fill="#fff"/>
              <path d="M168.207,213.095c.185.009.32-.024.378.029.061.055.048.191.067.291-.108.017-.235.075-.319.037-.062-.028-.068-.18-.126-.357Z" fill="#fff"/>
              <path d="M162.539,210.645c.197.011.338-.022.389.032.057.06.068.214.031.295-.022.047-.207.075-.267.034-.069-.046-.081-.178-.153-.361Z" fill="#fff"/>
              <path d="M167.058,209.451c.015-.189-.013-.325.041-.377.058-.057.193-.036.294-.049.012.102.066.228.025.299-.038.064-.179.069-.36.127Z" fill="#fff"/>
              <path d="M167.848,207.705c.003-.169-.031-.293.016-.344.049-.054.205-.079.258-.04.054.039.079.194.044.258-.033.06-.161.069-.318.126Z" fill="#fff"/>
              <path d="M169.728,216.719c.007-.169-.022-.286.024-.345.04-.051.208-.078.241-.043.057.061.093.197.061.266-.027.058-.163.066-.325.122Z" fill="#fff"/>
              <path d="M168.176,216.384c-.009.172.02.298-.029.348-.053.055-.178.041-.272.057-.012-.094-.063-.21-.025-.276.035-.061.163-.069.326-.128Z" fill="#fff"/>
              <path d="M173.542,205.444c.005-.136-.023-.26.02-.294.062-.048.176-.031.267-.042.005.093.042.203.005.273-.025.047-.156.037-.292.063Z" fill="#fff"/>
              <path d="M177.446,207.093c-.145-.016-.272.005-.306-.042-.046-.063-.02-.178-.025-.271.086.001.198-.03.252.013.053.042.046.159.079.3Z" fill="#fff"/>
              <path d="M169.401,213.312c.134-.001.244-.034.28.004.051.055.048.16.067.244-.085.007-.184.043-.251.012-.048-.022-.054-.135-.096-.26Z" fill="#fff"/>
              <path d="M171.075,212.103c.13,0,.221-.023.28.011.036.021.051.17.024.189-.057.041-.156.059-.221.036-.039-.014-.046-.121-.083-.237Z" fill="#fff"/>
            </g>
          </g>
        </g>
      </g>
    </g>
  </g>
</svg>