<?xml version="1.0" encoding="UTF-8"?><svg xmlns="http://www.w3.org/2000/svg" xmlns:xlink="http://www.w3.org/1999/xlink" viewBox="0 0 300 300"><defs><style>.cls-1{fill:#ffd66e;}.cls-2{opacity:.5;stroke:#9bc8ec;stroke-miterlimit:10;stroke-width:1.22px;}.cls-2,.cls-3{mix-blend-mode:multiply;}.cls-2,.cls-4{fill:none;}.cls-5{fill:#fff;}.cls-6{fill:#e86170;}.cls-7{isolation:isolate;}.cls-3{fill:#a384bb;opacity:.25;}.cls-8{filter:url(#drop-shadow-3);}.cls-9{fill:#42496f;}.cls-10{fill:#336a9b;}.cls-4{stroke:#fff;stroke-linecap:round;stroke-linejoin:round;stroke-width:.9px;}</style><filter id="drop-shadow-3" x="72.87" y="46.65" width="105.45" height="135.03" filterUnits="userSpaceOnUse"><feOffset dx="-1.22" dy="0"/><feGaussianBlur result="blur" stdDeviation="0"/><feFlood flood-color="#42496f" flood-opacity="1"/><feComposite in2="blur" operator="in"/><feComposite in="SourceGraphic"/></filter></defs><g class="cls-7"><g id="bateau_08"><g class="cls-8"><path class="cls-1" d="M135.33,181.68s-5.92-81.72-16.39-133.88c-.14-.68-.73-1.16-1.42-1.16h0c-.87,0-1.55.76-1.44,1.62,1.59,12.54,12.02,94.47,12.02,133.41h7.22Z"/><path class="cls-9" d="M132.88,152.8l-5.9.72c.2,2.99.38,5.9.53,8.74,1.96-.67,4.13-1.47,6.03-2.34-.2-2.24-.42-4.62-.65-7.12Z"/><path class="cls-6" d="M173.43,155.64c-28.88,0-57.76,0-86.63,0,.68-27.05-2.12-52.24-8.43-78.54,28.88,0,57.76,0,86.63,0,6.31,26.3,9.11,51.5,8.43,78.54Z"/><path class="cls-4" d="M126.07,121c-.85-2.49-1.82-4.74-3.07-7.11.42,1.57.79,3.18.8,4.77,0,.77-.07,1.59-.41,2.26-.22.43-.31.64-.73.33-.59-.44-.75-1.37-.93-2.02.16,1.81-.23,3.62-1.08,5.15-.37.66-1.08,1.34-1.81,1-.38-.18-.6-.57-.76-.96-.34-.82-.53-1.7-.53-2.56-.6,2.3-2.29,4.23-4.48,5.16-.19.08-.4.16-.61.12-.58-.11-.69-.9-.66-1.48.43-7.02.56-14.06-.09-21.12-.2-2.13-.45-4.36.34-6.17.79-1.81,3.06-2.97,5.09-1.89,1.66.89,2.46,2.8,3.06,4.51.64-.02,1.33.03,2-.02-1.41-2.86-2.48-6.13-3.1-9.13-.18-.88-.32-1.84.13-2.5.32-.46.88-.7,1.44-.86,1.61-.47,3.42-.53,5.24-.17.76.15,1.53.38,2.22.83,2,1.3,2.53,3.84,2.77,5.99-.42-.4-.87-.81-1.39-1.02-.53-.21-1.16-.15-1.38.28-.14.27-.1.63-.03.96.43,2.14,1.72,4.17,3.53,5.64h1.89c.02-1.71.13-3.62,1.46-4.51,1.63-1.09,4.34.07,5.78,1.89,1.44,1.81,1.94,4.05,2.4,6.17,1.54,7.06,3.25,14.1,4.66,21.12.12.58.11,1.36-.46,1.48-.21.04-.43-.03-.63-.12-2.31-.93-4.26-2.86-5.25-5.16.14.86.1,1.74-.12,2.56-.1.38-.27.78-.62.96-.68.34-1.49-.34-1.96-1-1.1-1.55-1.52-3.19-1.97-4.92.21.8-.43,2.23-1.18,1.68-.57-.42-.81-1.61-.95-2.22-.37-1.66-.34-3.38-.28-5.03-.69,2.38-1.23,4.65-1.64,7.13"/><path class="cls-4" d="M125.88,91.44c.07.35.11.53.18.88"/><path class="cls-4" d="M131.36,103.55c.51.3.96.85,1.1,1.37.12.43.14,1.06-.16,1.4-.26.3-.78.12-1.05-.19-.29-.32-.44-.73-.72-1.06.42.51.49,1.25.16,1.72-.33.47-1.04.62-1.63.36-.43-.19-.77-.56-1.1-.91-.24-.26-.47-.51-.71-.77-.06-.06-.12-.12-.19-.15-.21-.07-.33.17-.41.36-.36.86-1.64,1.1-2.5.46"/><path class="cls-4" d="M127.6,91.44c.07.35.11.53.18.88"/><path class="cls-4" d="M134.58,122.89h-9.42c-.06-.73-.09-1.09-.15-1.82h9.42c.06.73.1,1.09.15,1.82Z"/><path class="cls-4" d="M126.15,122.82c-.19,1.58-.76,3.12-.68,4.75.02.4.14,1.94.68,2.03,1.05.18,1.38-3.21,1.52-3.79-.17,1.37.02,2.8.54,4.12.22.57.8.58,1.1.07.54-.92.62-2.43.96-4.15-.05.27.12.76.17,1.04.07.39.15.77.26,1.15.18.66.41,1.48.9,1.98.69.71.79-1.28.81-1.55.05-.94-.05-1.9-.3-2.82.37,1.36.84,2.97,2.15,3.75.08.05.16.09.24.07.31-.08.23-.79.24-1.03.01-.65-.08-1.29-.24-1.93-.32-1.3-.91-2.55-1.5-3.77"/><path class="cls-4" d="M125.35,124.74c-.86,2.08-1.3,3.12-2.2,5.2-.8-1.2-1.21-1.8-2.02-3-2.63,4.25-3.99,6.38-6.79,10.62"/><path class="cls-4" d="M114.33,133.75c0,1.59-.02,2.39-.05,3.98,1.4-.39,2.1-.59,3.49-.98"/><path class="cls-4" d="M127.39,129.39c-.39,2.26-.6,3.38-1.04,5.64-1.02-1-1.54-1.5-2.57-2.5-1.66,4.8-2.55,7.19-4.44,11.98"/><path class="cls-4" d="M118.58,140.78c.31,1.56.46,2.34.74,3.91,1.28-.7,1.93-1.05,3.2-1.75"/><path class="cls-4" d="M135.58,124.62c1.17,2.08,1.74,3.12,2.87,5.2.67-1.2,1.01-1.8,1.66-3,3.18,4.25,4.73,6.38,7.73,10.62"/><path class="cls-4" d="M147.61,133.63c.13,1.59.19,2.39.29,3.98-1.41-.39-2.12-.59-3.54-.98"/><path class="cls-4" d="M134.15,129.27c.64,2.26.95,3.38,1.54,5.64.96-1,1.43-1.5,2.38-2.5,2.07,4.8,3.05,7.19,4.89,11.98"/><path class="cls-4" d="M143.7,140.66c-.28,1.56-.42,2.34-.73,3.91-1.28-.7-1.92-1.05-3.2-1.75"/><path class="cls-5" d="M126.71,139.8c0,.3-.11.56-.35.78-.13.12-.28.21-.43.26-.16.05-.38.08-.66.08-.39,0-.77-.09-1.12-.28-.03-.01-.05-.05-.05-.12,0-.01,0-.13,0-.36,0-.23,0-.35,0-.37,0-.02.02-.04.06-.04h.12s.06.01.06.04c0,.07,0,.14.02.21.03.18.13.33.28.46.15.13.37.2.64.2.37,0,.62-.12.76-.36.06-.11.09-.25.08-.42,0-.16-.07-.28-.17-.38-.11-.11-.32-.23-.64-.33-.35-.11-.64-.26-.85-.44-.22-.18-.33-.45-.33-.81,0-.33.13-.62.42-.86.22-.18.52-.27.89-.27.4,0,.72.09.96.27.03.03.05.05.06.08.03.13.04.33.05.61,0,.04,0,.06-.03.06h-.15s-.04-.01-.04-.04c-.02-.07-.04-.15-.07-.23-.04-.12-.11-.22-.22-.29-.19-.13-.42-.19-.71-.19-.22,0-.39.06-.51.18-.13.13-.19.3-.18.52,0,.14.07.28.2.42.06.07.29.18.69.33.24.09.41.17.51.22.18.09.33.2.45.32.17.17.26.42.27.75Z"/><path class="cls-5" d="M130.34,138.04c0,.3-.1.56-.32.78-.24.24-.59.36-1.04.36-.22,0-.43-.03-.63-.08-.02,0-.02,0-.02.04,0,.35,0,.52.01.86,0,.45.05.67.14.67h.47s.04.01.04.04c0,.05,0,.07,0,.12,0,.02,0,.04-.02.04h-1.76s-.02,0-.02-.02c0-.05,0-.08,0-.13,0-.03,0-.04.03-.04h.43s.05-.02.05-.07c-.01-1.19-.02-1.79-.05-2.98,0-.36-.04-.54-.09-.54h-.35s-.04,0-.04-.02c0-.06,0-.08,0-.14,0-.02.01-.03.03-.03.31-.01.47-.02.78-.03.1,0,.37,0,.8,0,.23,0,.43.01.59.04.24.04.46.15.67.34.21.2.32.47.33.82ZM129.72,138.09c0-.24-.11-.47-.31-.69-.2-.22-.52-.33-.95-.33-.07,0-.11,0-.12.01-.01,0-.02.03-.03.06,0,.12,0,.42,0,.89,0,.02,0,.15,0,.41,0,.25,0,.39,0,.4,0,.03.01.05.04.05.14.05.29.07.47.07.3,0,.52-.07.66-.21.16-.16.23-.38.22-.67Z"/><path class="cls-5" d="M135.44,142.02s-.17.07-.52.09c-.24.02-.47.03-.69.03-.09,0-.16-.02-.23-.05-.2-.12-.42-.29-.65-.5-.16-.14-.37-.35-.62-.63-.02-.04-.07-.05-.13-.06-.3,0-.57-.06-.8-.16-.2-.09-.36-.2-.48-.32-.32-.33-.48-.82-.5-1.46,0-.32.03-.59.11-.83.1-.3.24-.54.41-.72.17-.17.4-.32.69-.44.27-.11.56-.16.87-.16.46,0,.83.06,1.08.17.22.1.43.27.62.51.26.33.4.75.41,1.24.01.61-.15,1.11-.49,1.5-.16.19-.36.34-.59.46-.18.09-.35.15-.52.18-.06,0-.07.02-.05.05.17.17.43.36.78.57.22.13.42.23.6.31.19.07.34.11.47.11.11,0,.17,0,.2,0,.02,0,.03,0,.03.03,0,.04,0,.06,0,.1ZM134.31,138.91c0-.3-.04-.55-.09-.74-.07-.22-.18-.44-.34-.63-.13-.16-.29-.28-.49-.37-.21-.09-.43-.14-.64-.14-.26,0-.46.05-.6.14-.2.13-.35.32-.45.57-.11.27-.16.61-.15.99.01.57.12,1.03.32,1.37.12.2.31.36.55.49.19.09.4.14.63.14s.48-.08.7-.23c.17-.12.31-.32.42-.6.1-.25.15-.57.15-.98Z"/><path class="cls-5" d="M139.52,140.83s0,.04-.03.04h-1.06s-.09-.01-.12-.04c-.11-.09-.37-.4-.78-.93-.19-.24-.35-.51-.49-.8-.01-.03-.03-.05-.05-.05-.11,0-.24-.02-.41-.04-.03,0-.05.01-.05.05,0-.04,0,.06,0,.28,0,.22,0,.45.01.68,0,.43.05.65.15.65h.49s.03.01.03.03c0,.05,0,.08,0,.13,0,.02,0,.03-.03.03h-1.65s-.04,0-.04-.03v-.13s.01-.04.03-.04h.35s.05-.03.05-.09c0-.63-.01-.95-.02-1.58,0-.46-.01-.69-.02-1.15-.02-.53-.06-.8-.13-.8h-.34s-.03,0-.03-.03c0-.05,0-.08,0-.13,0-.02,0-.03.02-.03.37,0,.56-.01.93-.02.31,0,.55-.01.71-.01.17,0,.31,0,.42.02.29.04.54.14.73.31.22.19.34.42.34.7,0,.31-.1.58-.3.79-.12.12-.31.23-.57.32-.02,0-.02.02-.02.04.18.31.39.59.63.85.19.2.31.33.37.39.13.13.25.23.35.3.13.09.28.14.44.14.04,0,.06.01.06.04,0,.05,0,.07,0,.12ZM137.92,138.01c0-.26-.1-.48-.28-.64-.23-.22-.57-.33-1.02-.33-.07,0-.11.02-.11.06-.04.49.02.89.01,1.03,0,.25,0,.38.01.63,0,.03.02.05.05.06.07.01.19.02.33.01.2,0,.34-.02.44-.05.39-.11.58-.36.57-.77Z"/><path class="cls-2" d="M95.7,77.1c6.31,26.3,9.12,51.5,8.43,78.54"/><path class="cls-2" d="M113.02,77.1c6.31,26.3,9.12,51.5,8.43,78.54"/><path class="cls-2" d="M130.35,77.1c6.31,26.3,9.12,51.5,8.43,78.54"/><path class="cls-2" d="M147.68,77.1c6.31,26.3,9.11,51.5,8.43,78.54"/><path class="cls-3" d="M173.43,155.64c-28.88,0-57.76,0-86.63,0,.57-9.88.46-20.06-.3-29.93,22.93,19.09,58.13,24.03,87.12,25.53-.06,1.76-.09,2.64-.18,4.4Z"/><rect class="cls-10" x="83.07" y="154.17" width="95.25" height="2.96" rx="1.48" ry="1.48"/><rect class="cls-10" x="74.09" y="75.62" width="95.25" height="2.96" rx="1.48" ry="1.48"/></g></g></g></svg>