<?xml version="1.0" encoding="UTF-8"?><svg xmlns="http://www.w3.org/2000/svg" xmlns:xlink="http://www.w3.org/1999/xlink" viewBox="0 0 300 300"><defs><style>.cls-1{fill:#ffd66e;}.cls-2{isolation:isolate;}.cls-3{fill:#a384bb;mix-blend-mode:multiply;opacity:.25;}.cls-4{filter:url(#drop-shadow-3);}.cls-5{fill:#42496f;}.cls-6{fill:url(#Dégradé_sans_nom_10);}</style><linearGradient id="Dégradé_sans_nom_10" x1="21.21" y1="44.16" x2="135.32" y2="44.16" gradientUnits="userSpaceOnUse"><stop offset="0" stop-color="#9bc8ec" stop-opacity="0"/><stop offset="1" stop-color="#9bc8ec" stop-opacity=".5"/></linearGradient><filter id="drop-shadow-3" x="83.05" y="62.26" width="68.42" height="116.49" filterUnits="userSpaceOnUse"><feOffset dx="-1.22" dy="0"/><feGaussianBlur result="blur" stdDeviation="0"/><feFlood flood-color="#42496f" flood-opacity="1"/><feComposite in2="blur" operator="in"/><feComposite in="SourceGraphic"/></filter></defs><g class="cls-2"><g id="bateau_04"><path class="cls-6" d="M133.87,62.84s4.05-4.77-1.38-7.92-10.33.06-14.94-1.1c-2.28-.57-4.11.84-4.11.84,0,0,2.46-7.61-6.12-6.51-2.28-9.04-11.09-16.52-16.04-16.52s-7.63,2.12-9.6,1.57c-1.97-5.58-5.51-10.7-13.84-9.12-8.34,1.57-21.16,10.62-20.13,12.43,1.02,1.81,3.84,3.41-1.66,3.36s-11.63-8-14.54-4.77c-2.91,3.22-3.15,7.63-8.34,8.57-5.19.94.87,14.71,7.39,12.27,6.53-2.44,6.29-6.37,11.48-3.93,5.19,2.44,4.33.87,6.29.63s2.28,4.8,7.55,3.3c5.27-1.49,5.56-3.46,7.11-.43s.37,8.66,5.01,6.75c4.64-1.91,5.93-3.96,7.09-3.33,1.17.63,3.29,1.49,7.38,1.42s4.61,4.18,4.61,4.18l20.94-.45v-1.03s.36-.65-.67-2.34c1.93.34,6.57.54,6.63,1.84l19.9.29Z"/><g class="cls-4"><polygon class="cls-1" points="151.47 178.74 129.28 178.74 113.97 63.42 136.16 63.42 151.47 178.74"/><polygon class="cls-5" points="138.29 79.41 116.09 79.41 113.97 63.42 136.16 63.42 138.29 79.41"/><rect class="cls-5" x="111.96" y="62.26" width="26.07" height="1.16"/><polygon class="cls-3" points="136.16 63.42 113.97 63.42 114.55 67.79 136.29 64.36 136.16 63.42"/><polygon class="cls-1" points="123.78 178.74 101.59 178.74 86.29 63.42 108.48 63.42 123.78 178.74"/><polygon class="cls-5" points="110.6 79.41 88.41 79.41 86.29 63.42 108.48 63.42 110.6 79.41"/><rect class="cls-5" x="84.27" y="62.26" width="26.07" height="1.16"/><polygon class="cls-3" points="108.48 63.42 86.29 63.42 86.87 67.79 108.6 64.36 108.48 63.42"/></g></g></g></svg>