<?xml version="1.0" encoding="UTF-8"?>
<svg xmlns="http://www.w3.org/2000/svg" width="300" height="300" xmlns:xlink="http://www.w3.org/1999/xlink" viewBox="0 0 300 300">
  <defs>
    <filter id="b" data-name="drop-shadow-2" x="57.786" y="28.947" width="143.941" height="155.968" filterUnits="userSpaceOnUse">
      <feOffset dx="-1.219" dy="0"/>
      <feGaussianBlur result="c" stdDeviation="0"/>
      <feFlood flood-color="#42496f" flood-opacity="1"/>
      <feComposite in2="c" operator="in"/>
      <feComposite in="SourceGraphic"/>
    </filter>
    <clipPath id="d">
      <path d="M129.091,184.804l-12.868-136.521c-.082-.875.606-1.631,1.485-1.631h0c.752,0,1.387.56,1.48,1.307l17.064,136.623-7.16.223Z" fill="none"/>
    </clipPath>
    <clipPath id="e">
      <path d="M68.273,34.188s2.992,76.514,10.591,108.602c0,0,73.427,15.79,114.757,13.007L68.273,34.188Z" fill="none"/>
    </clipPath>
  </defs>
  <g isolation="isolate">
    <g id="a" data-name="bateau 05">
      <g filter="url(#b)">
        <path d="M129.091,184.804l-12.868-136.521c-.082-.875.606-1.631,1.485-1.631h0c.752,0,1.387.56,1.48,1.307l17.064,136.623-7.16.223Z" fill="#efa78e"/>
        <g clip-path="url(#d)">
          <path d="M138.041,173.934s-12.605,5.115-12.605,5.28.264,4.356.264,4.356l11.088.858,1.254-10.494Z" fill="#42496f"/>
        </g>
        <g>
          <g>
            <g>
              <line x1="81.952" y1="138.565" x2="59.251" y2="169.632" fill="none" stroke="#336a9b" stroke-miterlimit="10" stroke-width=".61"/>
              <rect x="72.847" y="147.52" width="2.202" height="3.731" rx="1.101" ry="1.101" transform="translate(101.693 -14.976) rotate(35.918)" fill="#e86170"/>
            </g>
            <g>
              <line x1="164.325" y1="154.459" x2="156.674" y2="184.804" fill="none" stroke="#336a9b" stroke-miterlimit="10" stroke-width=".61"/>
              <line x1="156.674" y1="154.459" x2="144.842" y2="184.804" fill="none" stroke="#336a9b" stroke-miterlimit="10" stroke-width=".61"/>
              <rect x="151.595" y="162.799" width="2.202" height="3.731" rx="1.101" ry="1.101" transform="translate(69.597 -43.962) rotate(21.122)" fill="#e86170"/>
              <path d="M161.222,166.957h0c-.581-.155-.931-.771-.78-1.376l.377-1.521c.15-.605.743-.97,1.324-.815h0c.581.155.931.771.78,1.376l-.377,1.521c-.15.605-.743.97-1.324.815Z" fill="#e86170"/>
            </g>
            <g>
              <line x1="190.751" y1="155.798" x2="201.447" y2="180.699" fill="none" stroke="#336a9b" stroke-miterlimit="10" stroke-width=".61"/>
              <path d="M195.209,166.208h0c-.558.225-1.207-.059-1.45-.633l-.611-1.444c-.243-.574.012-1.221.57-1.446h0c.558-.225,1.207.059,1.45.633l.611,1.444c.243.574-.012,1.221-.57,1.446Z" fill="#e86170"/>
            </g>
          </g>
          <path d="M68.273,34.188s2.992,76.514,10.591,108.602c0,0,73.427,15.79,114.757,13.007L68.273,34.188Z" fill="#fff"/>
          <path d="M90.621,102.896s8.367,8.579,15.423,8.579c-6.917,0-14.297,8.579-14.297,8.579l-1.127-17.159ZM122.706,102.896s-8.155,8.579-14.297,8.579c6.251,0,15.423,8.579,15.423,8.579l-1.127-17.159ZM98.647,95.997s8.579,7.38,8.579,14.296c0-7.056,8.579-15.423,8.579-15.423l-17.159,1.127ZM115.806,126.954s-8.579-8.155-8.579-14.296c0,6.25-8.579,15.423-8.579,15.423l17.159-1.127Z" fill="#e86170"/>
          <g clip-path="url(#e)">
            <g>
              <path d="M75.033,34.188s4.146,83.109,11.745,115.197" fill="none" mix-blend-mode="multiply" opacity=".5" stroke="#6498d1" stroke-linecap="round" stroke-linejoin="round" stroke-width=".5"/>
              <path d="M83.291,42.255s3.89,77.668,11.045,107.924" fill="none" mix-blend-mode="multiply" opacity=".5" stroke="#6498d1" stroke-linecap="round" stroke-linejoin="round" stroke-width=".5"/>
              <path d="M91.549,50.322s3.634,72.227,10.345,100.651" fill="none" mix-blend-mode="multiply" opacity=".5" stroke="#6498d1" stroke-linecap="round" stroke-linejoin="round" stroke-width=".5"/>
              <path d="M99.806,58.389s3.378,66.787,9.645,93.379" fill="none" mix-blend-mode="multiply" opacity=".5" stroke="#6498d1" stroke-linecap="round" stroke-linejoin="round" stroke-width=".5"/>
              <path d="M108.064,66.456s3.122,61.346,8.945,86.106" fill="none" mix-blend-mode="multiply" opacity=".5" stroke="#6498d1" stroke-linecap="round" stroke-linejoin="round" stroke-width=".5"/>
              <path d="M116.322,74.523s2.866,55.906,8.246,78.833" fill="none" mix-blend-mode="multiply" opacity=".5" stroke="#6498d1" stroke-linecap="round" stroke-linejoin="round" stroke-width=".5"/>
              <path d="M124.58,82.59s2.61,50.465,7.546,71.56" fill="none" mix-blend-mode="multiply" opacity=".5" stroke="#6498d1" stroke-linecap="round" stroke-linejoin="round" stroke-width=".5"/>
              <path d="M132.837,90.657s2.354,45.025,6.846,64.287" fill="none" mix-blend-mode="multiply" opacity=".5" stroke="#6498d1" stroke-linecap="round" stroke-linejoin="round" stroke-width=".5"/>
              <path d="M141.095,98.724s2.098,39.584,6.146,57.015" fill="none" mix-blend-mode="multiply" opacity=".5" stroke="#6498d1" stroke-linecap="round" stroke-linejoin="round" stroke-width=".5"/>
              <path d="M149.353,106.791s1.842,34.144,5.446,49.742" fill="none" mix-blend-mode="multiply" opacity=".5" stroke="#6498d1" stroke-linecap="round" stroke-linejoin="round" stroke-width=".5"/>
              <path d="M157.61,114.859s1.586,28.703,4.746,42.469" fill="none" mix-blend-mode="multiply" opacity=".5" stroke="#6498d1" stroke-linecap="round" stroke-linejoin="round" stroke-width=".5"/>
              <path d="M165.868,122.926s1.329,23.263,4.046,35.196" fill="none" mix-blend-mode="multiply" opacity=".5" stroke="#6498d1" stroke-linecap="round" stroke-linejoin="round" stroke-width=".5"/>
              <path d="M174.126,130.993s1.073,17.822,3.346,27.923" fill="none" mix-blend-mode="multiply" opacity=".5" stroke="#6498d1" stroke-linecap="round" stroke-linejoin="round" stroke-width=".5"/>
              <path d="M182.384,139.06s.817,12.382,2.647,20.651" fill="none" mix-blend-mode="multiply" opacity=".5" stroke="#6498d1" stroke-linecap="round" stroke-linejoin="round" stroke-width=".5"/>
            </g>
            <path d="M194.464,164.446s-20.386-28.892-73.08-40.846c-52.694-11.955-43.728,39.639-43.728,39.639l116.809,1.208Z" fill="#a384bb" mix-blend-mode="multiply" opacity=".25"/>
          </g>
          <line x1="64.127" y1="30.166" x2="197.515" y2="159.575" fill="none" stroke="#e86170" stroke-linecap="round" stroke-linejoin="round" stroke-width="2.438"/>
        </g>
      </g>
    </g>
  </g>
</svg>