<?xml version="1.0" encoding="UTF-8"?>
<svg xmlns="http://www.w3.org/2000/svg" width="300" height="300" xmlns:xlink="http://www.w3.org/1999/xlink" viewBox="0 0 300 300">
  <defs>
    <clipPath id="b">
      <path d="M172.986,142.209H61.05v92.758c1.89.35,3.973.545,6.164.545,5.076,0,9.57-1.043,12.415-2.649.138-.006.275-.012.413-.018,1.532,1.617,3.964,2.668,6.71,2.668s5.18-1.051,6.712-2.67c1.956,1.618,5.059,2.67,8.566,2.67,2.89,0,5.507-.714,7.435-1.87,2.251,1.156,5.308,1.87,8.683,1.87,2.909,0,5.578-.533,7.704-1.418.523.885,1.18,1.418,1.895,1.418.705,0,1.352-.518,1.871-1.38,2.11.862,4.742,1.38,7.607,1.38,3.747,0,7.1-.881,9.394-2.269,1.964,1.388,4.835,2.269,8.044,2.269,2.976,0,5.668-.755,7.61-1.972,2.268,1.217,5.412,1.972,8.888,1.972.622,0,1.226-.036,1.824-.083v-93.22Z" fill="none"/>
    </clipPath>
    <filter id="c" data-name="drop-shadow-1" x="60.98" y="200.99" width="105.665" height="40.243" filterUnits="userSpaceOnUse">
      <feOffset dx="-1.219" dy="0"/>
      <feGaussianBlur result="d" stdDeviation="0"/>
      <feFlood flood-color="#42496f" flood-opacity="1"/>
      <feComposite in2="d" operator="in"/>
      <feComposite in="SourceGraphic"/>
    </filter>
  </defs>
  <g isolation="isolate">
    <g id="a" data-name="bateau 08">
      <g clip-path="url(#b)">
        <g>
          <path d="M77.458,205.137v15.1h5.754c0-3.127,2.535-5.663,5.663-5.663s5.663,2.535,5.663,5.663h17.861c0-3.127,2.535-5.663,5.663-5.663s5.663,2.535,5.663,5.663h17.861c0-3.127,2.535-5.663,5.663-5.663s5.663,2.535,5.663,5.663h13.735v-15.1h-89.187Z" fill="#a384bb" mix-blend-mode="multiply" opacity=".25"/>
          <g filter="url(#c)">
            <line x1="95.954" y1="209.653" x2="62.808" y2="240.623" fill="none" stroke="#ffd66e" stroke-linecap="round" stroke-linejoin="round" stroke-width="1.219"/>
            <line x1="124.618" y1="209.653" x2="91.472" y2="240.623" fill="none" stroke="#ffd66e" stroke-linecap="round" stroke-linejoin="round" stroke-width="1.219"/>
            <line x1="153.282" y1="209.653" x2="120.135" y2="240.623" fill="none" stroke="#ffd66e" stroke-linecap="round" stroke-linejoin="round" stroke-width="1.219"/>
            <path d="M77.458,200.99v15.1h5.754c0-3.127,2.535-5.663,5.663-5.663s5.663,2.535,5.663,5.663h17.861c0-3.127,2.535-5.663,5.663-5.663s5.663,2.535,5.663,5.663h17.861c0-3.127,2.535-5.663,5.663-5.663s5.663,2.535,5.663,5.663h13.735v-15.1h-89.187Z" fill="#336a9b"/>
            <rect x="158.151" y="200.99" width="8.494" height="15.1" fill="#a384bb" mix-blend-mode="multiply" opacity=".25"/>
          </g>
        </g>
      </g>
    </g>
  </g>
</svg>