<?xml version="1.0" encoding="UTF-8"?><svg xmlns="http://www.w3.org/2000/svg" xmlns:xlink="http://www.w3.org/1999/xlink" viewBox="0 0 300 300"><defs><style>.cls-1,.cls-2,.cls-3{opacity:.25;}.cls-1,.cls-4{fill:#9bc8ec;}.cls-5,.cls-6,.cls-7,.cls-8,.cls-9,.cls-10,.cls-11,.cls-12{fill:none;}.cls-5,.cls-6,.cls-8,.cls-9,.cls-10,.cls-11{stroke-width:1.22px;}.cls-5,.cls-6,.cls-8,.cls-9,.cls-10,.cls-11,.cls-12{stroke-linecap:round;stroke-linejoin:round;}.cls-5,.cls-6,.cls-8,.cls-9,.cls-10,.cls-12{stroke:#a384bb;}.cls-13{fill:#b1ddea;}.cls-6{stroke-dasharray:.01 3.54;}.cls-14{fill:#fff;}.cls-2,.cls-3,.cls-15{mix-blend-mode:multiply;}.cls-8{stroke-dasharray:.01 3.56;}.cls-16{clip-path:url(#clippath-1);}.cls-17{isolation:isolate;}.cls-9{stroke-dasharray:.01 3.84;}.cls-3{fill:#a384bb;}.cls-10{stroke-dasharray:.01 3.81;}.cls-18{fill:#6498d1;}.cls-19{filter:url(#drop-shadow-3);}.cls-11{stroke:#6498d1;}.cls-20{fill:#42496f;}.cls-21{clip-path:url(#clippath);}.cls-12{stroke-width:.61px;}.cls-15{opacity:.5;}</style><clipPath id="clippath"><path class="cls-7" d="M27.11,96.93v129.24c1.89.35,3.97.55,6.16.55,5.08,0,9.57-1.04,12.41-2.65.14,0,.28-.01.41-.02,1.53,1.62,3.96,2.67,6.71,2.67s5.18-1.05,6.71-2.67c1.96,1.62,5.06,2.67,8.57,2.67,2.89,0,5.51-.71,7.43-1.87,2.25,1.16,5.31,1.87,8.68,1.87,2.91,0,5.58-.53,7.7-1.42.52.89,1.18,1.42,1.9,1.42s1.35-.52,1.87-1.38c2.11.86,4.74,1.38,7.61,1.38,3.75,0,7.1-.88,9.39-2.27,1.96,1.39,4.84,2.27,8.04,2.27,2.98,0,5.67-.76,7.61-1.97,2.27,1.22,5.41,1.97,8.89,1.97.15,0,.3-.02.45-.02.31,0,.61.02.93.02,5.08,0,9.57-1.04,12.41-2.65.14,0,.28-.01.41-.02,1.53,1.62,3.96,2.67,6.71,2.67s5.18-1.05,6.71-2.67c1.96,1.62,5.06,2.67,8.57,2.67,2.89,0,5.51-.71,7.43-1.87,2.25,1.16,5.31,1.87,8.68,1.87,2.91,0,5.58-.53,7.7-1.42.52.89,1.18,1.42,1.9,1.42s1.35-.52,1.87-1.38c2.11.86,4.74,1.38,7.61,1.38,3.75,0,7.1-.88,9.39-2.27,1.96,1.39,4.84,2.27,8.04,2.27,2.98,0,5.67-.76,7.61-1.97,2.27,1.22,5.41,1.97,8.89,1.97.62,0,1.23-.04,1.82-.08V96.93H27.11Z"/></clipPath><filter id="drop-shadow-3" x="40.65" y="165.89" width="173.18" height="73.99" filterUnits="userSpaceOnUse"><feOffset dx="-1.22" dy="0"/><feGaussianBlur result="blur" stdDeviation="0"/><feFlood flood-color="#42496f" flood-opacity="1"/><feComposite in2="blur" operator="in"/><feComposite in="SourceGraphic"/></filter><clipPath id="clippath-1"><path class="cls-7" d="M81.98,175.7h108.08c11.75,0,21.29,9.54,21.29,21.29v33.56H60.68v-33.56c0-11.75,9.54-21.29,21.29-21.29Z"/></clipPath><clipPath id="clippath-2"><path class="cls-7" d="M126.77,670.15c-.71.57-1.28,1.02-1.98,1.57,0-.06,0,.15.02.39-3.2-.32-3.33-2.38-.1-2.88,1.27-.46,1.29-1.73,1.8-3.08-1.46.56-2.44.47-3.81.7.25.88.89.85,1.45,1.44-.48.51-1.17.59-1.77.51-.16-1.02-1.03-2.49.12-3.25,1.08-.45-.19-1.69-.57-2.01-.58.28-1.11.96-.62,1.6.31.47.51.86-.12,1.32-1.18,3.27-3.03-.47-4.86-1.1.04-.19.13-.57.25-1.1-1.74,1.04-.91-3.18-2.93-.82-1.62-1.05-2.16-4.84-4.27-4.35-.19.12-.72-.09-.86-.32-.79-2.58-3.2-3.7-4.05-6.08-.65-1.51-1.98-2.38-3.11-3.45-.1-.15-.74-.11-.86.06-.95,1.2-2.94.12-3.04-1.3-.3-.57-1.47-1.13-1.39-1.99-.99-1.14.04-1.07.75-1.65-.71-.3-.87-.89-.86-1.73.18-.81-1.67-2.15-.4-2.58,1.46-.28.31-1.17.29-2.22-1,1.43-2.02,2.27-3.67,2.05-.75.61-1.21.2-1.71-.27-1.29-1.41-3.22.46-4.37,1.39.1-3.76-4.69.9-6.54,1.18-.05-1.29-1.55-2.31-2.53-1.04-2.25-.61-2.98-3.95-4.68-5.59-.35-1.53-2.4-1.15-2.5-2.62-.17-1.63-2.3-1.87-2.29-3.67-1.44-.59-1.12-2.54-2.16-3.44-1.78-2.29-6.5-5.15-5.76-8.1.89-.92,0-1.19-.61-1.76-.47-1.01-1.01-.04-1.78-.24,1.88-2.06-1.47-2.33,1.3-5.97.31-.9-.85-.65-1.11-.1-.69,1.23-1.68,1.06-2.63.93-.51-.55-.06-1.92-1.33-1.66-.09-.37-.17-.73-.27-1.11-1.24.3-1.93,1.6-.52,2.21-1.32,1.25-3.58,4.5-4.84,1.68-1.49.34-1.34-2.24-3-.95-.08-.7-.15-1.27-.22-1.91-.18.12-.41.27-.63.42-.36-.74-.39-1.79-1.55-1.63-.13-.96-.26-1.9-.4-2.98-.27.4-.46.67-.57.84-1.74-.4-2.1-2.22-3.03-3.53-.1.01-.19.03-.29.04-.06.34-.13.67-.19,1.01-.1,0-.2,0-.3-.01.27-3.39-2.87-4.42-3.86-7.28.27-1.01.3-1.42-.31-2.24-.38.41-.74.79-1.22,1.31-.78-.58-.39-2-1.55-1.7-.33-1.36-.03-2.35.87-3.26-.98-1.09,1.55-3.48-.43-3.65-.11.47-.21.91-.31,1.35h-.22c.03-1.11.05-2.22.08-3.52,2.43,1.18,2.28-2.24,2.5-3.94-.97.71-1.64,2.01-2.82,1.04.18.3.35.6.61,1.05-.52.13-.97.25-1.27.32-.35-1.91.46-3.14,1.71-4.5.13.09.29.2.4.27,2.9-4.64,5.81-9.83,10-13.79-1.1-.9-1.67-2.74-.22-3.57.66.05,1.36.34,1.71.08.63-.78,1.13-1.84-.33-2.35,0-1.37,1.82-2.87.51-4.08-.76-.85-.5-2.63-1.97-2.74-1.54-.47-2.35.92-3.67,1.34-1.28-.24-1.53,1.02-2.2,1.87-.78-.44-1.74-.57-2.25-1.22-.35-1.43-1.43-.99-2.58-1.25.28-.3.51-.54.76-.8-1.61-.45-1.24,1.18-.68,1.97-.35.29-.66.54-1.16.96-.15-1,.72-2.27-.49-2.7-2-.02-2.09-3.77-4.13-2.35.01-.32.03-.62.04-.93-1.12-.02-1.15-.98-1.74-1.66-2.3-1.89-1.62-1.26-2.3-3.98-.2.13-.39.26-.63.42-.65-.98-1.56-1.13-1.86-2.57-1.33-2.88-5.35-3.06-7.08-5.39-.59.08-1.04.15-1.6.23,1.38-2.04.17-3.32.28-5.29.8-1.97,1.6-3.94,2.4-5.91l.36.03c-.08.99-.17,1.98-.27,3.2.81-.92.53-1.85.96-2.71.18.12.33.22.49.32.07-.03.13-.07.2-.1.02-1.52-1.86-.95-.62-2.47,8.1-15.25,14.39-31.29,23.08-46.17.45-.86.74-1.6,1.64-.57,1.74.56,1.81-2.35,3.56-2.19.43-.03.74-1.27.44-1.89-.07.32-.12.54-.19.83-1,.02-1.96.05-2.95.07.29-2.05,2.6-2.16,4.1-1.52,1.68-2.49,2.3-6.22,5.74-6.79-.14-.17-.27-.33-.54-.66,2.52-.59,4.58,2.55,6.67,1.91.44-.39.74-.3.82.31-.22.08-.43.16-.72.26,4.26,1.53,8.62,5.25,12.52,6.03.92,2.41,2.38-.58,3.43-1.49.52-.83,1.39-.07,2.02-.6,8.95-9.04,16.93-19.51,26.77-26.99.55,0,1.6.23,1.95.82,1.85,1.28,2.47-3.79,6.84,1.16.67,1.15,2.43-.46,2.71,1.05.28,1.14,1.69,1.09,2.21,2.07,1.79,1.08,2.56,3.15,4.74,3.8.69.39.8.85,1.5-.02.12,1.41.31,1.52,1.4.76.08.41.15.79.23,1.18l1.12-.48c-.47,6.94,24.59-23.99,27.83-25.77,1.61.35-.19,1.26.7,2.16.5.14.96-.69,1.34-.89,1.68-.33-.02,1.92,1.23,2.22.72.18.83,1.9,1.68.96.18.36.42.65.47.98.12.87,1.5.81,1.69.11.11-.93-.63-2.36.92-2.13.69.04.42,1.09.95,1.37-.25.4-.45.71-.64,1.02.44.12.87.25,1.44.41-.46,1.12-.41,1.3.7,1.76.24,1.01,1.23,1.47,1.97,2.04.85.7,1.65,2.05,3.01,1.97-.37,1.39,1.42.55,2.12.97-1.04.97-.93,1.29.14,1.93-.03.06-.05.13-.08.19-.47-.05-.95-.1-1.6-.18.27.73,1.16.62.75,1.48-.07.73,1.22.92,1.84.42-.16.32-.26.5-.4.76.57-.04.21,1.01.96.71.42-.17.76-.55,1.1-.95-1.08.65-1.34-.4-.4-.95,1.36.03,2.05-.86,2.83-1.74,1.16-1.32,2.16-2.09,3.9-1.32.42.37.79.74,1.36.09,1.02.93,2.01,1.82,3,2.71.08-.07.16-.13.24-.2-.2-.33-.4-.66-.71-1.16,1.92,1.3,3.92-1.03,5.36.41.24,1.62,1.15,2.49,2.36,3.45,1.08.96.46,2.64,1.64,3.51.59.44.42,1.54,1.36.95,1.14-.8,2.06,1.3,1.41,2.17.42.08.74.14,1.02.2-.35.43-.66.8-.97,1.18.6.26-.51,1.37.74,1.34.08-.23.16-.48.24-.72,1,.67,2.3,1.19,1.22,2.57.32.04.61.08.96.13-.05.23-.1.43-.11.51.4.36.74.67,1.12,1.02-.2.25-.37.47-.65.83,1-.26,1.85-.48,2.78-.72.02.31.03.5.04.68,2.53.55.47,4.43.01,6.05.08.06.16.11.24.17,1.62-1.38,2.45-3.49,3.88-5.07.08.05.17.1.25.15-.38.97-.89,1.91-1.08,2.95,1.03-.03,1.49-.81,2.02-1.57,3.26,2.24,14.63-18.5,13.48-7.99.09.03.19.06.28.09,1.09-2.14,4.51-2.62,4.52.4-.1.89.73.56,1.29.5.59-.14.81.11.81.66-.08,1.96,4.51.52,3.97,3.24,2.14-.46,1.24,2.23,2.86,2.41.6,0,1.21.37,1.84.59-.23.49-.43.93-.68,1.46,5.02,1,1.1.78,3.5,2.93,4.4,2.3.16,6.22-.4,9.67.09.04.18.08.27.12-.18.12-.37.23-.61.38.06.15.13.33.2.51-1.45.03-.69,1.27-1.39,2.14-.35.48-.52.81.08,1.22.73.85.62,2.26.92,3.3-.07-.06-.23-.19-.27-.22-.66,1.44.09,2.99-1.8,3.48-.2.76-.28,1.63-1.18,2.08-.32-.33-.58-.62-.85-.9-.14,0-.27-.02-.41-.03.29,2.12-.85,3.45-1.8,5.24,1.24.98,3,.81,3.9,1.87.14.2.27.61.37.6,1.44-.08,1.73,1.32,2.68,1.99.64-.66,1.25-1.28,1.86-1.92.26.19.47.34.67.48.05-.03.1-.06.16-.09l-.43-.92c1.56-3.16,1.7.66,2.81-1.18.48.2-.21,1.17.69.93.13-.03.11-.59.19-1.07,1.15,0,1.44,1.55,2.79.38.07.77.04,1.14.21,1.76,1.69-.84,3.34-2.18,4.89-3.55,1.02-1.33,1.92-1.91,3.49-.74-.48.14-.75.22-1.02.3,0,.07-.01.13-.02.2.38.07.76.14,1.19.22.03-.18.06-.33.1-.53,1.72.23.03,1.23,1.08,1.8.13-.2.26-.39.3-.45,1.87.37,1.02-1.64.98-2.75h.2c1.29,1.09,1.02,3.4,2.37,4.08.48.04.83.14,1.16.5,1.44.82.73-1.53,1.45-1.89.83-.06,1.28.75,1.73,1.41-.65,1.95,2.24,2.85,3.33,4.16-1.55-.42-2.33-.09-.8,1.44.23-.35.36-.55.59-.9.36.66.51,1.14,1.07,1.53.33-.6.05-1.05-.14-1.63.68.2,1.28.4.87,1.3.35,2.15,4.29-.79,3.39,2.19.9-.3,3.06.32,1.79,1.39-.13.09-.14.6,0,.76.17.19.63.38.8.28.86-.52,1.29.61,1.88,1.04,1.08,1.87-1.13,3.83-.97,5.53,1.2.53-.36,2.02-1.07.88-.31.41-.49.76.19.86,1.62,1.82-2.47,6.47-3.68,8.63.36-.11.59-.17.91-.27.16.62,1.01,1.71,0,1.99-.74.55-.26,1.55-.23,2.5.29.02,1.17-.41,1.4-.38.6.52,1.12.26,1.64-.05.56-.34.7-.05.78.47.8,2.37,1.18,4.78,2.08,7.04.3,1.29.71,3.39,2.18,3.71.36.97,1.89,1.05,1.62,2.51,2.6-.27,2.12,3.13,2.17,4.77,2.93,1.42-1.9,4.93-2.06,7.05-1.37,1.05-1.72,3.22-2.76,3.84-.55.33.13,1.79-.94,1.65-.8.84-1.22,1.96-2.06,3.19,3.36.42,6.45.82,9.53,1.21.03,1.67.88.37,1.74,1.27-.46.32-.8.55-1.11.77,1.15,1.21,1.96,3.8.02,4.52-1.21-.42-.74.5-.82,1.12.54-.18,1-.33,1.52-.5.97,1.17-1.8,1.91-.43,3.31.01,5.67-9.28,6.55-2.15,13.15-.6.93.81,1.58.35,2.49-.86,1.24-.56,2.5,1.03,2.77.03-.12.09-.37.16-.63,1.01.62,2.48,4.08,2.35,5.43.2-.03.46-.07.72-.11-.01.1-.02.19-.03.29-.18.2-.37.39-.55.59.02.09.04.18.07.27.39-.07.79-.13,1.32-.22-.6.68-.24,2.15-1.19,2.22-.15,0-.3.29-.45.45.71.61,1.52,0,2.31-.16.04.07.08.13.12.2-3.13,4.17-9.06,6.46-10.86,11.43-.13,1.58-.41.81-1.47,1.08.51.31,1.43.88.62,1.38-.76.45.06,1.17-.25,1.87-.09,0-.17,0-.26,0-.12-.2-.24-.39-.52-.84-2.75,9.89-14.74,10.7-21.93,16.16-4.72,4.01-9.46,8.24-14.74,11.42-1.03,1.68-4.84,4.86-6.14,2.16.23-.1.46-.2.91-.4-.52-.33-.86-.54-1.35-.84.15,1.11-.97,3.19-.61,1.1-1.21-.58-.15-1.97-.78-3.19-.4.88-.71,1.56-1.01,2.23-1.43-.73-.15-3.63-1.83-3.83-.67,1.02-1.16.59-1.62-.31-.3.54-.54.97-.8,1.44-3.27-3.43-9.81,6.67-13.38,6.07-1.94.18-3.46,3.74-5.53,2.82-8.97-2.23-27.89,23.2-33.17,18.76.28-.12.53-.23,1.03-.44-.49-.36-.82-.6-1.21-.88-1.25,2.45-1.36-.66-1.25-1.81-.1-.03-.2-.06-.3-.09-.37.65-.73,1.31-1.09,1.95-1.62-.22.05-4.78-1.79-3.84-.9,1.31-.92.07-1.66-.32-.18.43-.35.84-.5,1.22-2.08-1.72-4.41.85-6.83.32-.82.38-2.7,1.19-2.44-.6.71-.75,1.48-3.95-.37-3.1-.69-1.1-.61-1.41.38-1.63-.13-1.44-.51-1.98-1.57-.71.17-2.38-1.75-3.38-1.15-5.51.16-.53-.43-1.42-.27-1.96.77-1.47-.33-2.13-.91-3-1.93-.74-2.61-2.2-3.52-4.07-.66.52-1.34,1.05-2.08,1.63.03-.29.05-.51.07-.77-2.13.45-.86,2.03-2.31,3.42-.48-2.06,1.27-3.47,1.16-5.48-7.49,8.85-14.27,20.34-21.91,27.93ZM281.65,565.41c.86.91-.18,1.37.87,1.81.24-.85,1.47-1.29.61-2.46l-.62.31-.41-.2c.22-.27.44-.54.66-.8-1.4-1.64-1.2.32-1.11,1.34ZM33.54,583.75c-.44.6-.88,1.2-1.32,1.79.42.23.89.5,1.37.76.97-1.02.97-1.81-.05-2.56ZM282.42,573.25c-.22-.09-.44-.19-.67-.28.34-.49.68-.99.99-1.43-.25-.17-.55-.37-.85-.58q-.56.48.02,1.05c-.28.19-.56.38-.84.56,0,.12-.02.24-.03.36.46.1.91.21,1.37.31ZM280.45,562.31c-.32.62-.55,1.08-.89,1.73,1.06-.27,2.31-1.14.89-1.73ZM230.91,489.21c-.07.02-.14.05-.21.07-.09.63-.18,1.27-.27,1.97l.9-.41c-.14-.53-.28-1.08-.42-1.62ZM179.68,443.77c-.85.5-.87.79-.1,1.43.03-.49.06-.9.1-1.43ZM38.81,478.72c.65.15,1.03.17,1.06-.48-.43-.54-.69.02-1.06.48ZM31.94,591.01c-.47.93-.38,1.12.48,1.24-.18-.46-.33-.85-.48-1.24ZM281.27,569.7c.15.01.31.02.46.04,0-.41.01-.82.02-1.23-.12,0-.24-.02-.36-.03-.04.41-.08.81-.12,1.22ZM76.36,639.14c-.03.39-.06.77-.11,1.27.93-.49.84-.89.11-1.27Z"/></clipPath></defs><g class="cls-17"><g id="bateau_03"><g class="cls-21"><path class="cls-14" d="M212.43,229.72s12.46-16.65,7.99-18.23c-4.46-1.58-22.19,13.79-22.19,13.79l14.19,4.44Z"/><path class="cls-4" d="M209.22,233.79s12.46-16.65,7.99-18.23c-4.46-1.58-22.19,13.79-22.19,13.79l14.19,4.44Z"/><path class="cls-14" d="M217.19,207.25c.43.14.52.61.39.86-.15.3-.51.44-.81.31-.32-.14-.46-.5-.32-.83.02-.05.05-.1.08-.15.2-.43.24-.45.66-.2Z"/><path class="cls-14" d="M209.66,213.55c.15-.27.48-.37.76-.23.29.15.4.49.24.77-.15.26-.49.36-.76.22-.27-.14-.37-.49-.23-.76Z"/><path class="cls-14" d="M216.38,214.28c.12-.23.34-.28.61-.14.25.13.35.43.22.67-.13.23-.42.32-.66.18-.25-.14-.32-.43-.17-.71Z"/><path class="cls-14" d="M219.84,213.78c-.13.23-.41.31-.63.18-.22-.13-.29-.41-.16-.64.14-.25.43-.34.65-.21.22.13.29.42.14.67Z"/><path class="cls-14" d="M214.27,209.82c.12-.23.41-.32.63-.2.23.12.31.41.19.63-.13.23-.4.32-.63.19-.23-.12-.32-.4-.19-.63Z"/><path class="cls-14" d="M221.52,207.99c.12-.21.41-.28.62-.15.2.13.27.39.15.6-.12.22-.39.29-.61.17-.22-.13-.29-.4-.16-.61Z"/><path class="cls-14" d="M210.38,216.55c-.21-.12-.28-.38-.16-.59.12-.22.39-.29.61-.16.21.12.28.38.16.59-.12.22-.39.29-.61.16Z"/><path class="cls-14" d="M221.37,210.69c-.12.2-.36.27-.54.15-.19-.12-.25-.39-.15-.57.11-.19.34-.25.54-.14.2.12.26.36.14.56Z"/><path class="cls-14" d="M208.54,211.67c.03-.06.06-.12.1-.17.12-.16.28-.2.44-.08.17.12.17.28.07.44-.06.09-.14.15-.2.24-.11.15-.24.22-.41.11-.17-.11-.16-.26-.07-.42.02-.04.05-.08.07-.12h0Z"/><path class="cls-14" d="M217.71,217.29c-.1.2-.34.28-.53.18-.19-.1-.26-.37-.16-.57.1-.18.36-.25.54-.15.18.11.25.35.15.54Z"/><path class="cls-14" d="M211.19,205c-.22-.11-.3-.32-.21-.51.09-.18.33-.26.51-.16.19.09.31.5.2.68-.08.14-.23.14-.5,0Z"/><path class="cls-14" d="M214.25,204.48c-.11.19-.36.25-.54.12-.19-.13-.24-.31-.13-.52.1-.2.34-.26.54-.14.19.11.26.35.14.54Z"/><path class="cls-14" d="M208.49,207.19c.11-.18.37-.23.55-.12.19.12.24.33.12.52-.12.19-.36.24-.55.13-.17-.11-.23-.36-.13-.52Z"/><path class="cls-14" d="M211.51,211.93c-.18-.1-.25-.34-.15-.52.1-.19.35-.25.54-.14.18.11.24.34.13.52-.1.17-.34.24-.52.14Z"/><path class="cls-14" d="M213.85,207.46c.14.11.2.27.1.45-.09.17-.33.24-.49.13-.17-.12-.21-.28-.12-.47.08-.17.33-.23.51-.12Z"/><path class="cls-14" d="M213.17,216.06c.02.15.09.32.04.45-.06.19-.26.22-.43.13-.18-.09-.24-.28-.13-.43.08-.11.26-.14.4-.21l.12.07Z"/><path class="cls-14" d="M216.81,211.81c-.05-.23-.11-.36-.08-.48,0-.05.23-.11.32-.07.16.06.2.23.09.38-.05.07-.16.09-.33.18Z"/><path class="cls-14" d="M215.82,215.35c-.2.02-.33.07-.4.02-.07-.05-.07-.2-.1-.3.1-.03.23-.1.31-.07.08.03.1.18.19.35Z"/><path class="cls-14" d="M212.77,213.93c.18-.02.31-.06.37-.02.07.05.07.18.1.27-.1.03-.22.1-.3.08-.06-.02-.09-.17-.17-.33Z"/><path class="cls-14" d="M206.96,212.29c.19-.02.32-.06.38-.02.06.05.09.2.07.28-.02.05-.19.1-.25.07-.07-.04-.1-.16-.2-.33Z"/><path class="cls-14" d="M211.18,210.54c0-.18-.05-.31,0-.37.05-.06.18-.06.28-.09.03.1.09.21.06.29-.03.07-.16.09-.33.17Z"/><path class="cls-14" d="M211.72,208.75c-.02-.16-.07-.28-.03-.34.04-.06.19-.1.25-.07.06.03.1.18.08.24-.02.06-.15.09-.29.16Z"/><path class="cls-14" d="M214.71,217.24c-.02-.16-.06-.27-.02-.34.03-.05.19-.1.23-.07.06.05.12.18.09.25-.02.06-.15.09-.3.16Z"/><path class="cls-14" d="M213.16,217.12c.01.17.06.29.02.34-.04.06-.17.06-.26.09-.02-.09-.09-.2-.06-.26.03-.06.15-.09.3-.17Z"/><path class="cls-14" d="M216.94,205.82c-.01-.13-.06-.25-.02-.29.05-.06.17-.05.25-.08.02.09.07.19.04.26-.02.05-.15.06-.27.1Z"/><path class="cls-14" d="M220.94,206.91c-.14,0-.26.04-.3,0-.05-.05-.04-.17-.06-.26.08,0,.19-.05.25-.02.06.03.07.15.12.28Z"/><path class="cls-14" d="M213.95,213.98c.13-.02.23-.06.27-.03.06.05.07.15.1.23-.08.02-.17.07-.24.04-.05-.02-.07-.12-.13-.24Z"/><path class="cls-14" d="M215.42,212.59c.13-.02.21-.05.27-.03.04.02.07.16.05.18-.05.05-.14.08-.21.06-.04,0-.06-.11-.11-.22Z"/><path class="cls-14" d="M217.04,221.29c-.33-.16-.34-.54-.21-.73.16-.22.45-.29.67-.15.23.15.31.45.16.69-.02.04-.05.07-.08.11-.21.32-.24.32-.55.08Z"/><path class="cls-14" d="M223.69,217.18c-.15.2-.42.24-.62.1-.21-.15-.26-.43-.1-.64.15-.19.43-.23.63-.09.2.14.24.43.1.62Z"/><path class="cls-14" d="M218.48,215.84c-.12.16-.3.18-.49.04-.18-.13-.23-.38-.1-.55.13-.17.37-.2.54-.07.18.14.2.38.05.58Z"/><path class="cls-14" d="M215.69,215.84c.13-.17.36-.2.52-.07.16.13.19.36.06.52-.14.18-.38.22-.54.09-.16-.13-.18-.37-.04-.54Z"/><path class="cls-14" d="M219.64,219.6c-.12.16-.36.2-.52.08-.17-.12-.2-.36-.08-.52.13-.17.35-.2.52-.08.17.12.21.35.08.52Z"/><path class="cls-14" d="M213.71,220.22c-.12.15-.35.17-.5.05-.15-.12-.17-.34-.05-.49.12-.16.34-.19.5-.06.16.12.18.35.06.5Z"/><path class="cls-14" d="M223.47,214.73c.15.12.17.33.06.48-.12.16-.34.19-.5.06-.15-.12-.17-.33-.06-.49.12-.16.34-.18.5-.06Z"/><path class="cls-14" d="M214.14,218.1c.11-.14.31-.17.44-.06.13.11.16.33.05.47-.11.14-.3.16-.44.05-.15-.11-.17-.31-.05-.46Z"/><path class="cls-14" d="M224.36,218.79s-.06.09-.1.12c-.11.11-.24.12-.36.01-.12-.11-.11-.24,0-.36.05-.06.13-.1.18-.16.1-.11.21-.14.33-.04.12.1.1.22,0,.34-.02.03-.05.06-.07.09h0Z"/><path class="cls-14" d="M217.77,213.32c.1-.14.3-.18.44-.08.14.1.16.32.06.47-.1.13-.31.16-.44.06-.13-.11-.16-.3-.05-.44Z"/><path class="cls-14" d="M221.51,223.75c.16.11.2.29.11.43-.09.13-.29.16-.42.07-.14-.1-.19-.43-.08-.56.08-.1.2-.09.4.06Z"/><path class="cls-14" d="M219.05,223.81c.11-.14.31-.15.44-.04.14.12.15.27.05.42-.1.15-.3.17-.44.05-.14-.11-.16-.31-.05-.44Z"/><path class="cls-14" d="M223.9,222.33c-.11.13-.32.14-.45.03-.13-.11-.15-.29-.04-.42.11-.13.32-.15.45-.04.12.11.14.31.04.43Z"/><path class="cls-14" d="M222.05,218.24c.13.1.16.3.06.43-.1.14-.31.16-.44.05-.13-.11-.15-.3-.05-.43.1-.13.3-.15.43-.05Z"/><path class="cls-14" d="M219.7,221.51c-.1-.1-.13-.23-.03-.37.09-.13.29-.15.4-.05.12.11.14.25.04.38-.09.13-.28.14-.42.04Z"/><path class="cls-14" d="M221.21,214.81c0-.12-.03-.26.02-.36.07-.15.23-.14.35-.05.13.09.16.25.05.36-.07.08-.22.08-.34.12l-.09-.06Z"/><path class="cls-14" d="M217.85,217.74c.01.18.05.3.01.39-.01.04-.2.06-.26.02-.12-.07-.13-.2-.03-.31.05-.05.13-.05.28-.1Z"/><path class="cls-14" d="M219.04,215.06c.16.01.27-.02.32.03.05.05.03.16.05.25-.09.01-.19.06-.25.02-.06-.03-.06-.15-.11-.3Z"/><path class="cls-14" d="M221.29,216.53c-.14,0-.25.02-.29-.03-.05-.04-.04-.15-.05-.23.08-.01.18-.06.25-.03.05.02.05.14.1.28Z"/><path class="cls-14" d="M225.68,218.48c-.15,0-.26.01-.3-.03-.04-.05-.05-.17-.02-.23.02-.04.16-.06.21-.02.05.04.06.14.12.28Z"/><path class="cls-14" d="M222.15,219.38c-.01.15,0,.25-.03.29-.05.04-.15.03-.23.04,0-.08-.05-.18-.02-.23.03-.05.14-.05.28-.1Z"/><path class="cls-14" d="M221.53,220.73c0,.13.02.23-.01.27-.04.04-.16.06-.2.03-.04-.03-.06-.15-.03-.2.03-.05.13-.05.25-.1Z"/><path class="cls-14" d="M220.13,213.7c0,.13.01.22-.02.27-.03.04-.16.06-.19.03-.04-.05-.07-.15-.05-.21.02-.05.13-.05.25-.09Z"/><path class="cls-14" d="M221.34,213.97c0-.13-.01-.23.03-.27.04-.04.14-.03.21-.04,0,.07.05.16.02.22-.03.05-.13.05-.26.1Z"/><path class="cls-14" d="M217.07,222.45c0,.11.02.2-.02.23-.05.04-.14.02-.21.03,0-.07-.03-.16,0-.21.02-.04.12-.03.23-.05Z"/><path class="cls-14" d="M214.04,221.14c.11.01.21,0,.24.04.04.05.01.14.02.21-.07,0-.15.02-.2-.01-.04-.03-.03-.12-.06-.23Z"/><path class="cls-14" d="M220.36,216.35c-.1,0-.19.02-.22,0-.04-.04-.04-.13-.05-.19.07,0,.14-.03.2,0,.04.02.04.11.07.2Z"/><path class="cls-14" d="M219.05,217.28c-.1,0-.17.02-.22-.01-.03-.02-.04-.13-.02-.15.04-.03.12-.04.17-.03.03.01.03.09.06.19Z"/><g class="cls-19"><rect class="cls-13" x="56.66" y="222.43" width="5.09" height="6.19"/><polygon class="cls-20" points="61.76 228.62 58.09 228.62 59.54 222.43 61.76 222.43 61.76 228.62"/><path class="cls-13" d="M55.89,228.62c-2-.23-3.25-.99-3.88-1.47-.57-.43-1.22-.93-1.22-1.63s.65-1.2,1.22-1.63c.63-.47,1.88-1.24,3.88-1.47v6.19Z"/><path class="cls-20" d="M55.89,228.62v-6.19c-.62.07-1.16.2-1.64.34-.03.88-.18,2.7-.87,5.17.65.29,1.48.55,2.51.67Z"/><path class="cls-18" d="M53.21,211.51c-4.19-2.64,2.35,10.49,2.25,14.01.1,3.52-6.44,16.65-2.25,14.01,4.19-2.64,3.46-14.01,3.46-14.01,0,0,.73-11.37-3.46-14.01Z"/><line class="cls-11" x1="66.36" y1="166.5" x2="205.68" y2="166.5"/><line class="cls-11" x1="68.71" y1="183.49" x2="68.71" y2="166.5"/><line class="cls-11" x1="75.12" y1="183.49" x2="75.12" y2="166.5"/><line class="cls-11" x1="81.53" y1="183.49" x2="81.53" y2="166.5"/><line class="cls-11" x1="87.94" y1="183.49" x2="87.94" y2="166.5"/><line class="cls-11" x1="94.35" y1="183.49" x2="94.35" y2="166.5"/><line class="cls-11" x1="100.76" y1="183.49" x2="100.76" y2="166.5"/><line class="cls-11" x1="107.17" y1="183.49" x2="107.17" y2="166.5"/><line class="cls-11" x1="113.58" y1="183.49" x2="113.58" y2="166.5"/><line class="cls-11" x1="119.99" y1="183.49" x2="119.99" y2="166.5"/><line class="cls-11" x1="126.4" y1="183.49" x2="126.4" y2="166.5"/><line class="cls-11" x1="132.81" y1="183.49" x2="132.81" y2="166.5"/><line class="cls-11" x1="139.22" y1="183.49" x2="139.22" y2="166.5"/><line class="cls-11" x1="145.63" y1="183.49" x2="145.63" y2="166.5"/><line class="cls-11" x1="152.04" y1="183.49" x2="152.04" y2="166.5"/><line class="cls-11" x1="158.45" y1="183.49" x2="158.45" y2="166.5"/><line class="cls-11" x1="164.86" y1="183.49" x2="164.86" y2="166.5"/><line class="cls-11" x1="171.27" y1="183.49" x2="171.27" y2="166.5"/><line class="cls-11" x1="177.68" y1="183.49" x2="177.68" y2="166.5"/><line class="cls-11" x1="184.09" y1="183.49" x2="184.09" y2="166.5"/><line class="cls-11" x1="190.5" y1="183.49" x2="190.5" y2="166.5"/><line class="cls-11" x1="196.91" y1="183.49" x2="196.91" y2="166.5"/><line class="cls-11" x1="203.32" y1="183.49" x2="203.32" y2="166.5"/><path class="cls-13" d="M81.98,175.7h108.08c11.75,0,21.29,9.54,21.29,21.29v33.56H60.68v-33.56c0-11.75,9.54-21.29,21.29-21.29Z"/><g class="cls-16"><g class="cls-15"><line class="cls-12" x1="130.31" y1="173.28" x2="130.31" y2="233.18"/><line class="cls-12" x1="130.31" y1="188.99" x2="213.53" y2="188.99"/><line class="cls-12" x1="168.11" y1="188.99" x2="168.11" y2="238.58"/><line class="cls-12" x1="130.31" y1="191.94" x2="42.17" y2="191.94"/><line class="cls-12" x1="54.45" y1="213.79" x2="130.31" y2="213.79"/><line class="cls-12" x1="95.2" y1="213.79" x2="95.2" y2="191.94"/></g><g class="cls-2"><line class="cls-5" x1="164.79" y1="223.89" x2="164.79" y2="223.89"/><line class="cls-6" x1="164.79" y1="220.35" x2="164.79" y2="193.72"/><line class="cls-5" x1="164.79" y1="191.95" x2="164.79" y2="191.94"/><line class="cls-5" x1="133.38" y1="223.89" x2="133.38" y2="223.89"/><line class="cls-6" x1="133.38" y1="220.35" x2="133.38" y2="193.72"/><line class="cls-5" x1="133.38" y1="191.95" x2="133.38" y2="191.94"/><line class="cls-5" x1="127.06" y1="210.57" x2="127.06" y2="210.56"/><line class="cls-9" x1="127.06" y1="206.72" x2="127.06" y2="197.07"/><line class="cls-5" x1="127.06" y1="195.15" x2="127.06" y2="195.14"/><line class="cls-5" x1="97.98" y1="210.57" x2="97.98" y2="210.56"/><line class="cls-9" x1="97.98" y1="206.72" x2="97.98" y2="197.07"/><line class="cls-5" x1="97.98" y1="195.15" x2="97.98" y2="195.14"/><line class="cls-5" x1="92.38" y1="210.57" x2="92.38" y2="210.56"/><line class="cls-9" x1="92.38" y1="206.72" x2="92.38" y2="197.07"/><line class="cls-5" x1="92.38" y1="195.15" x2="92.38" y2="195.14"/><line class="cls-5" x1="133.38" y1="185.86" x2="133.38" y2="185.86"/><line class="cls-10" x1="133.38" y1="182.04" x2="133.38" y2="180.12"/><line class="cls-5" x1="133.38" y1="178.21" x2="133.38" y2="178.21"/><line class="cls-5" x1="127.06" y1="188.93" x2="127.06" y2="188.92"/><line class="cls-8" x1="127.06" y1="185.36" x2="127.06" y2="180"/><line class="cls-5" x1="127.06" y1="178.21" x2="127.06" y2="178.21"/><line class="cls-5" x1="171.92" y1="223.89" x2="171.92" y2="223.89"/><line class="cls-6" x1="171.92" y1="220.35" x2="171.92" y2="193.72"/><line class="cls-5" x1="171.92" y1="191.95" x2="171.92" y2="191.94"/></g><circle class="cls-18" cx="79.71" cy="201.84" r="6.64"/><circle class="cls-14" cx="79.71" cy="201.84" r="5.28"/><path class="cls-1" d="M79.71,197.04c-2.03,0-3.76,1.26-4.46,3.05.7,1.78,2.43,3.05,4.46,3.05s3.76-1.26,4.46-3.05c-.7-1.78-2.43-3.05-4.46-3.05Z"/><circle class="cls-18" cx="114.67" cy="201.84" r="6.64"/><circle class="cls-14" cx="114.67" cy="201.84" r="5.28"/><path class="cls-1" d="M114.67,197.04c-2.03,0-3.76,1.26-4.46,3.05.7,1.78,2.43,3.05,4.46,3.05s3.76-1.26,4.46-3.05c-.7-1.78-2.43-3.05-4.46-3.05Z"/><circle class="cls-18" cx="149.64" cy="201.84" r="6.64"/><circle class="cls-14" cx="149.64" cy="201.84" r="5.28"/><path class="cls-1" d="M149.64,197.04c-2.03,0-3.76,1.26-4.46,3.05.7,1.78,2.43,3.05,4.46,3.05s3.76-1.26,4.46-3.05c-.7-1.78-2.43-3.05-4.46-3.05Z"/><circle class="cls-18" cx="184.6" cy="201.84" r="6.64"/><circle class="cls-14" cx="184.6" cy="201.84" r="5.28"/><path class="cls-1" d="M184.6,197.04c-2.03,0-3.76,1.26-4.46,3.05.7,1.78,2.43,3.05,4.46,3.05s3.76-1.26,4.46-3.05c-.7-1.78-2.43-3.05-4.46-3.05Z"/><path class="cls-3" d="M209.48,232.85c-.27-.13-15.28-22.05-40.59-31.24-51.07-18.54-105.69,16.21-108.2,18.31v15.01l148.79-2.09Z"/></g></g></g><path class="cls-4" d="M212.38,228.66s-9.57-26.22-18.07-20.25c-2.41,1.69,3.9,15.14,3.9,15.14,0,0-8.4-4.08-9.07-.58s-3.9,6.23-10.36,4.94c-6.46-1.29,18.24,7.83,18.81,4.17.57-3.67,8.16,3.47,9.86,1.7,1.7-1.77-1.25-6.97,4.93-5.13Z"/><path class="cls-14" d="M208.95,224.87c.31-5.67-8.43-20.92-14.64-16.45-4.09,2.94,2.88,11.61,3.9,15.14-5.19-3-11.26-3.35-12.88-1.67-1.62,1.67,2.99,2.38,1.72,3.9s-13.2,1.55-13.2,1.55c0,0,13.68,4.84,17.55,3.14,2.44-1.07-1.48-4.55.68-5.31,5.41-1.89,10.29,7.89,14.42,6.84,2.45-.62-3.54-8.49-1.96-9.14,1.58-.65,4.4,1.99,4.4,1.99Z"/><path class="cls-14" d="M175.58,232.1c-.27.77-1.11.92-1.56.68-.54-.29-.78-.92-.53-1.46.26-.57.92-.81,1.49-.55.09.04.18.1.27.14.77.37.79.45.34,1.19Z"/><path class="cls-14" d="M164.54,218.4c.48.27.66.87.4,1.36-.27.52-.89.7-1.39.4-.47-.28-.64-.9-.37-1.38.27-.48.89-.66,1.37-.39Z"/><path class="cls-14" d="M163.01,230.42c.4.23.49.62.24,1.09-.24.45-.78.62-1.21.37-.41-.24-.55-.76-.31-1.18.26-.44.79-.56,1.28-.28Z"/><path class="cls-14" d="M163.8,236.64c-.41-.24-.54-.74-.3-1.14.24-.39.75-.51,1.15-.28.43.26.59.78.35,1.18-.24.4-.76.5-1.2.24Z"/><path class="cls-14" d="M171.07,226.78c.4.23.55.74.33,1.14-.22.41-.74.55-1.14.32-.41-.23-.55-.73-.33-1.14.23-.41.72-.56,1.14-.32Z"/><path class="cls-14" d="M174.12,239.82c.37.23.49.74.24,1.11-.23.36-.7.47-1.07.26-.39-.23-.51-.71-.28-1.1.23-.38.72-.5,1.11-.27Z"/><path class="cls-14" d="M159.13,219.59c.23-.37.68-.48,1.06-.26.39.23.51.71.27,1.1-.23.37-.7.48-1.07.26-.39-.23-.51-.71-.27-1.1Z"/><path class="cls-14" d="M169.28,239.46c-.35-.21-.47-.65-.26-.96.22-.33.7-.44,1.03-.24.34.21.44.62.24.97-.21.36-.65.46-1.01.24Z"/><path class="cls-14" d="M167.94,216.45c.1.06.21.11.3.18.28.22.34.5.13.79-.22.3-.51.3-.8.11-.15-.1-.27-.25-.42-.36-.27-.2-.38-.44-.19-.73.2-.3.47-.28.75-.1.07.04.14.09.22.13,0,0,0,0,0-.01Z"/><path class="cls-14" d="M157.59,232.7c-.35-.19-.48-.63-.3-.95.19-.33.68-.46,1.02-.26.32.18.44.65.25.97-.2.33-.63.43-.97.24Z"/><path class="cls-14" d="M179.8,221.42c.21-.39.59-.54.93-.36.32.16.45.59.27.92-.18.33-.9.54-1.22.34-.25-.15-.25-.41.02-.9Z"/><path class="cls-14" d="M180.64,226.9c-.33-.21-.43-.65-.2-.98.24-.34.57-.42.93-.22.35.19.45.62.24.97-.21.34-.64.45-.97.24Z"/><path class="cls-14" d="M175.97,216.5c.32.21.41.67.2.99-.21.33-.61.42-.93.21-.33-.22-.42-.66-.21-.98.2-.31.65-.41.94-.21Z"/><path class="cls-14" d="M167.37,221.77c.19-.32.61-.44.93-.26.33.18.44.64.23.97-.2.31-.63.42-.94.23-.31-.19-.41-.62-.23-.94Z"/><path class="cls-14" d="M175.31,226.11c-.2.26-.48.35-.82.17-.31-.17-.42-.6-.22-.88.21-.31.51-.38.84-.21.3.16.4.59.2.92Z"/><path class="cls-14" d="M159.93,224.6c-.27.03-.57.14-.8.06-.34-.12-.38-.47-.21-.77.17-.31.51-.42.78-.22.19.15.24.47.35.72l-.12.21Z"/><path class="cls-14" d="M167.42,231.27c.41-.08.66-.19.87-.14.08.02.18.42.11.58-.12.28-.42.36-.67.14-.11-.09-.15-.28-.31-.59Z"/><path class="cls-14" d="M161.11,229.37c-.02-.35-.11-.6-.02-.72.09-.12.35-.12.54-.18.05.19.18.41.12.56-.06.13-.32.18-.64.34Z"/><path class="cls-14" d="M163.76,223.95c.02.32.11.55.03.66-.08.12-.32.12-.49.18-.05-.19-.18-.39-.13-.55.04-.11.3-.16.6-.29Z"/><path class="cls-14" d="M166.88,213.6c.02.35.11.58.02.68-.09.11-.36.16-.51.11-.09-.03-.17-.35-.11-.46.07-.13.29-.18.6-.34Z"/><path class="cls-14" d="M169.87,221.22c.33-.01.56-.09.67,0,.11.09.1.33.14.5-.18.04-.38.16-.52.1-.12-.05-.16-.3-.29-.6Z"/><path class="cls-14" d="M173.07,222.24c.29-.03.5-.11.6-.04.1.07.18.34.12.44-.06.1-.32.18-.44.13-.11-.04-.15-.27-.28-.53Z"/><path class="cls-14" d="M157.76,227.33c.3-.02.49-.1.61-.03.1.06.18.35.12.41-.09.11-.32.2-.45.16-.11-.03-.15-.27-.28-.54Z"/><path class="cls-14" d="M158.03,224.56c-.3.02-.51.09-.61.02-.11-.08-.11-.3-.15-.46.16-.04.35-.15.48-.1.11.05.15.27.29.54Z"/><path class="cls-14" d="M178.15,231.7c.24-.02.45-.09.51-.03.1.1.09.3.13.46-.16.03-.34.11-.47.06-.09-.03-.1-.26-.17-.49Z"/><path class="cls-14" d="M176.07,238.82c0-.26-.06-.47.01-.54.1-.09.31-.07.47-.1.02.15.09.34.03.44-.06.1-.27.11-.51.2Z"/><path class="cls-14" d="M163.63,226.08c.03.23.11.42.05.49-.08.1-.27.12-.41.17-.03-.15-.11-.31-.07-.43.03-.09.22-.12.43-.22Z"/><path class="cls-14" d="M166.07,228.74c.02.23.08.38.04.49-.03.07-.29.12-.32.08-.08-.09-.13-.26-.11-.38.02-.07.2-.1.4-.19Z"/><path class="cls-14" d="M193.37,218.45c.5.51.29,1.23-.07,1.49-.43.31-1.03.25-1.36-.15-.34-.42-.28-1.04.14-1.39.07-.06.15-.1.22-.16.59-.46.66-.45,1.07.2Z"/><path class="cls-14" d="M178.3,221.81c.4-.27.94-.18,1.23.22.3.42.2.97-.23,1.25-.4.26-.95.15-1.23-.25-.27-.39-.17-.96.22-1.23Z"/><path class="cls-14" d="M187.16,227.69c.34-.23.68-.14.95.24.26.36.18.86-.18,1.1-.35.23-.81.14-1.05-.22-.25-.37-.13-.84.28-1.11Z"/><path class="cls-14" d="M192.36,229.48c-.35.23-.79.14-1.01-.21-.22-.34-.11-.79.23-1.01.37-.24.84-.16,1.06.18.22.34.1.8-.28,1.04Z"/><path class="cls-14" d="M187.43,219.92c.33-.23.8-.15,1.03.18.23.33.15.79-.19,1.02-.34.23-.79.15-1.02-.19-.24-.34-.16-.79.19-1.02Z"/><path class="cls-14" d="M198.88,222.6c.33-.21.77-.1.97.24.19.32.1.74-.21.94-.33.22-.76.13-.97-.21-.21-.33-.11-.77.22-.98Z"/><path class="cls-14" d="M177.13,226.52c-.2-.32-.11-.73.21-.94.33-.22.76-.13.97.22.2.32.11.73-.21.94-.33.22-.76.12-.97-.22Z"/><path class="cls-14" d="M196.71,226.27c-.31.19-.69.12-.86-.17-.18-.3-.08-.72.21-.91.3-.19.66-.11.85.19.2.31.11.69-.21.89Z"/><path class="cls-14" d="M178.09,218.37c.09-.06.17-.12.26-.17.28-.14.53-.08.67.2.15.28.04.52-.23.67-.14.08-.3.11-.45.19-.26.14-.49.13-.65-.14-.16-.27-.04-.48.21-.63.06-.04.12-.08.19-.12,0,0,0,0,0-.01Z"/><path class="cls-14" d="M186.84,232.84c-.29.2-.68.14-.87-.14-.19-.28-.1-.71.19-.91.27-.18.69-.1.86.18.18.28.1.66-.19.86Z"/><path class="cls-14" d="M186.61,210.98c-.22-.31-.19-.67.07-.87.25-.19.64-.12.83.14.19.27.07.92-.2,1.09-.22.14-.42.03-.7-.36Z"/><path class="cls-14" d="M191.25,212.45c-.29.18-.68.09-.85-.22-.18-.32-.11-.61.19-.82.29-.2.66-.12.85.19.19.3.1.67-.19.86Z"/><path class="cls-14" d="M181.25,212.08c.28-.17.68-.06.86.23.18.3.09.64-.2.81-.3.17-.68.08-.86-.22-.16-.28-.07-.67.2-.83Z"/><path class="cls-14" d="M182.06,220.89c-.18-.27-.1-.65.16-.83.27-.19.68-.1.85.2.17.28.09.65-.19.82-.27.17-.65.08-.83-.19Z"/><path class="cls-14" d="M188.55,216.33c.12.26.09.51-.19.71-.25.17-.64.09-.78-.17-.16-.29-.1-.55.17-.74.24-.18.62-.09.8.2Z"/><path class="cls-14" d="M181.39,227.84c-.08.22-.11.5-.26.65-.23.22-.51.12-.69-.13-.18-.26-.14-.57.13-.7.19-.09.46,0,.7,0l.12.18Z"/><path class="cls-14" d="M189.55,224.55c.1-.35.11-.59.23-.74.05-.06.4.02.5.14.18.21.12.47-.15.59-.12.05-.28.01-.58.01Z"/><path class="cls-14" d="M185.6,228.77c-.28-.12-.51-.15-.57-.26-.06-.12.04-.33.07-.49.17.04.4.02.48.12.08.1.02.32.02.63Z"/><path class="cls-14" d="M182.37,224.58c.26.11.48.13.53.24.06.11-.03.3-.05.46-.17-.03-.38-.01-.48-.11-.08-.07,0-.3,0-.58Z"/><path class="cls-14" d="M175.43,218.09c.28.12.5.14.55.25.05.12-.01.34-.11.44-.06.06-.34,0-.4-.09-.08-.1-.03-.3-.03-.6Z"/><path class="cls-14" d="M182.59,218.71c.12-.27.15-.48.26-.52.11-.05.3.05.45.08-.03.15-.02.37-.12.45-.09.07-.29,0-.59,0Z"/><path class="cls-14" d="M184.64,216.59c.09-.24.11-.44.2-.49.1-.05.34,0,.39.08.06.08.01.32-.07.4-.08.07-.27.02-.53.02Z"/><path class="cls-14" d="M182.69,230.61c.1-.24.12-.43.21-.49.08-.05.34,0,.37.06.05.12.03.33-.05.42-.07.07-.27.01-.53,0Z"/><path class="cls-14" d="M180.62,229.32c-.1.24-.13.44-.22.49-.11.05-.28-.03-.42-.06.03-.14.02-.34.11-.41.08-.07.27-.02.54-.02Z"/><path class="cls-14" d="M194.05,216.27c.08-.19.1-.39.18-.41.12-.04.27.05.41.08-.04.14-.04.32-.13.4-.06.05-.24-.03-.45-.06Z"/><path class="cls-14" d="M198.85,220.68c-.2-.1-.4-.13-.42-.22-.03-.11.06-.27.1-.4.12.05.3.06.36.15.05.09-.02.25-.04.48Z"/><path class="cls-14" d="M183.98,225.51c.19.07.37.08.4.15.05.11-.01.26-.03.39-.13-.03-.29-.03-.37-.11-.06-.06,0-.22,0-.43Z"/><path class="cls-14" d="M187.03,224.63c.19.07.33.08.4.16.04.05-.01.27-.06.29-.1.03-.26,0-.34-.06-.05-.04,0-.2,0-.39Z"/><path class="cls-14" d="M202.17,210.33c.24.35.05.74-.19.86-.28.14-.62.05-.77-.22-.16-.28-.06-.63.22-.79.05-.03.09-.04.14-.07.39-.21.43-.19.6.22Z"/><path class="cls-14" d="M193.11,210.8c.26-.12.56-.01.69.25.13.27.02.58-.25.7-.26.11-.57,0-.69-.26-.12-.26,0-.57.25-.69Z"/><path class="cls-14" d="M197.67,215.07c.22-.1.41-.02.53.23.11.24.02.51-.21.62-.22.1-.49,0-.59-.23-.11-.24,0-.5.27-.62Z"/><path class="cls-14" d="M200.5,216.63c-.23.1-.47,0-.57-.22-.09-.22.01-.47.23-.56.24-.1.5,0,.6.21.09.22-.02.47-.26.57Z"/><path class="cls-14" d="M198.59,210.6c.22-.1.48,0,.58.21.1.22,0,.47-.21.57-.22.1-.47.01-.58-.21-.1-.22-.01-.47.21-.57Z"/><path class="cls-14" d="M204.96,213.28c.21-.09.45.02.54.24.08.2-.02.44-.22.53-.21.1-.45,0-.54-.22-.09-.21,0-.46.22-.54Z"/><path class="cls-14" d="M191.97,213.41c-.09-.21,0-.43.21-.52.22-.09.45,0,.54.22.08.21,0,.44-.21.53-.21.09-.45,0-.54-.22Z"/><path class="cls-14" d="M203.34,215.19c-.2.08-.41,0-.48-.19-.07-.19.03-.43.21-.5.19-.08.39,0,.48.19.08.2,0,.41-.21.5Z"/><path class="cls-14" d="M193.33,208.78c.06-.02.11-.05.17-.07.18-.05.31,0,.37.18.06.18-.03.3-.2.37-.09.03-.19.04-.28.07-.16.05-.3.03-.36-.14-.07-.17.02-.28.18-.34.04-.02.08-.03.12-.05h0Z"/><path class="cls-14" d="M196.97,218.03c-.19.09-.41.01-.49-.16-.08-.18.01-.42.2-.51.17-.08.41.01.48.19.08.18,0,.39-.19.48Z"/><path class="cls-14" d="M198.99,205.33c-.1-.2-.05-.41.13-.5.16-.08.38,0,.47.17.08.17-.05.54-.23.61-.14.06-.25-.02-.37-.28Z"/><path class="cls-14" d="M201.54,206.65c-.19.08-.4-.02-.47-.21-.07-.2,0-.36.19-.46.19-.09.4,0,.48.19.08.19,0,.4-.2.48Z"/><path class="cls-14" d="M195.78,205.44c.18-.07.4.03.48.22.07.19,0,.38-.2.45-.19.07-.4-.02-.48-.21-.07-.18.02-.39.2-.46Z"/><path class="cls-14" d="M195.38,210.63c-.08-.17,0-.39.17-.47.18-.08.4.01.48.2.07.18-.02.39-.19.46-.17.07-.38-.02-.46-.19Z"/><path class="cls-14" d="M199.59,208.63c.05.16,0,.31-.18.39-.16.08-.38,0-.44-.17-.06-.18,0-.33.17-.41.16-.08.37.01.44.2Z"/><path class="cls-14" d="M194.3,214.59c-.07.12-.11.28-.22.35-.15.11-.31.02-.39-.14-.08-.17-.02-.34.14-.39.12-.04.27.04.41.07l.05.11Z"/><path class="cls-14" d="M199.36,213.49c.09-.19.12-.33.21-.41.03-.03.23.05.28.13.08.14.02.28-.14.33-.07.02-.16-.02-.34-.05Z"/><path class="cls-14" d="M196.65,215.55c-.15-.1-.28-.14-.31-.21-.02-.08.06-.18.09-.28.09.04.23.05.27.12.04.07-.02.19-.05.37Z"/><path class="cls-14" d="M195.19,212.8c.14.09.26.12.28.19.02.07-.05.17-.08.26-.09-.03-.22-.05-.27-.11-.04-.05.03-.17.06-.34Z"/><path class="cls-14" d="M191.81,208.36c.15.1.28.13.29.2.02.07-.04.2-.11.25-.04.03-.2-.03-.23-.09-.03-.07.01-.18.04-.35Z"/><path class="cls-14" d="M195.9,209.42c.1-.14.13-.26.2-.28.07-.02.17.06.25.09-.04.09-.05.21-.11.25-.06.03-.17-.03-.34-.06Z"/><path class="cls-14" d="M197.3,208.39c.08-.13.11-.24.16-.26.06-.02.2.03.22.08.03.05-.02.19-.08.22-.05.03-.16-.02-.31-.04Z"/><path class="cls-14" d="M194.79,216.33c.08-.13.11-.24.17-.26.05-.02.2.03.21.07.02.07-.01.2-.07.24-.05.03-.16-.02-.31-.05Z"/><path class="cls-14" d="M193.71,215.38c-.08.13-.12.24-.18.26-.07.02-.16-.05-.24-.08.03-.08.04-.19.1-.23.05-.03.16.02.31.04Z"/><path class="cls-14" d="M202.78,209.13c.06-.1.1-.22.15-.22.07-.01.15.05.23.09-.04.08-.06.18-.12.22-.04.03-.14-.04-.26-.08Z"/><path class="cls-14" d="M205.13,212.16c-.11-.08-.22-.12-.22-.17,0-.07.06-.15.1-.22.07.04.17.06.19.12.02.06-.03.15-.07.27Z"/><path class="cls-14" d="M196.04,213.5c.11.06.21.08.22.13.02.07-.03.15-.05.22-.07-.03-.16-.05-.2-.1-.03-.04.02-.13.04-.25Z"/><path class="cls-14" d="M197.89,213.29c.1.06.18.08.22.13.02.03-.03.16-.06.16-.06,0-.15-.02-.19-.07-.02-.03.02-.12.04-.22Z"/><path class="cls-4" d="M56.66,228.62s-4.55-6.98-8.88-9.89c-4.33-2.91,1.89,8.34,1.89,8.34,0,0-8.49-6.04-10.54-4.63s1.42,4.95,1.42,4.95c0,0-5.66-1.73-8.49.16,2.91,0,7.86,4.09,10.54,3.03,2.67-1.06.08-3.58,2.67-3.03,2.6.55,6.54,2.36,6.54,2.36-1.01-4.37-.5-6.09,4.86-1.28Z"/><path class="cls-14" d="M56.66,228.62s-6.92-11.64-10.32-10.99c-3.4.65,3.32,9.44,3.32,9.44,0,0-8.18-5.17-9.5-4.33-1.86,1.18,1.05,4.65,1.05,4.65,0-2.28,5.64-1.09,9.41.25-3.91-9.4,1.89-3.54,6.02,1Z"/><path class="cls-14" d="M41.62,216.6c-.1-.45.26-.76.54-.78.34-.02.64.21.68.53.04.34-.2.66-.54.7-.06,0-.11,0-.17.01-.47.05-.51.02-.51-.47Z"/><path class="cls-14" d="M50.89,219.82c-.31.01-.57-.22-.59-.53-.02-.33.22-.59.54-.6.3,0,.57.24.58.54.01.3-.23.57-.53.59Z"/><path class="cls-14" d="M48.06,213.68c-.26.01-.42-.15-.44-.45-.02-.28.19-.52.46-.53.27-.01.49.2.5.47.01.28-.21.5-.52.51Z"/><path class="cls-14" d="M45.85,210.97c.27,0,.48.19.48.45,0,.26-.2.47-.46.47-.28,0-.51-.2-.51-.45,0-.26.21-.46.5-.47Z"/><path class="cls-14" d="M45.32,217.79c-.26.01-.48-.19-.5-.44-.01-.26.19-.48.45-.49.26-.01.48.18.49.44.01.26-.18.48-.44.49Z"/><path class="cls-14" d="M40.03,212.51c-.24,0-.45-.21-.44-.45,0-.24.19-.43.43-.44.25,0,.45.18.46.44,0,.25-.19.45-.44.46Z"/><path class="cls-14" d="M53.1,217.66c0,.24-.18.43-.43.44-.25,0-.45-.19-.45-.44,0-.24.19-.43.43-.44.25,0,.45.19.45.44Z"/><path class="cls-14" d="M42.42,211.25c.23,0,.41.17.41.38,0,.22-.2.42-.42.42-.22,0-.39-.16-.4-.39,0-.23.17-.41.41-.41Z"/><path class="cls-14" d="M49.86,221.75c-.07,0-.13.01-.2,0-.2-.02-.31-.14-.3-.34.01-.2.15-.29.35-.29.1,0,.2.04.3.05.19.01.31.1.31.29,0,.2-.14.27-.32.27-.05,0-.09,0-.14,0h0Z"/><path class="cls-14" d="M49.96,211c.22-.01.41.15.42.36,0,.21-.19.42-.41.43-.21,0-.4-.18-.41-.39,0-.21.17-.39.39-.4Z"/><path class="cls-14" d="M42.77,222.9c.02.24-.12.43-.33.45-.2.02-.39-.15-.4-.36-.01-.21.27-.52.48-.52.16,0,.24.12.26.43Z"/><path class="cls-14" d="M40.76,220.55c.22,0,.4.18.39.4-.01.23-.14.37-.38.38-.22.02-.4-.16-.4-.39,0-.22.17-.4.39-.4Z"/><path class="cls-14" d="M46.04,224.1c-.21,0-.39-.2-.39-.41,0-.22.16-.38.38-.37.22,0,.4.19.39.4,0,.2-.18.38-.38.38Z"/><path class="cls-14" d="M48.55,219.06c0,.2-.16.39-.36.4-.21.01-.4-.17-.4-.39,0-.21.17-.38.38-.38.2,0,.38.17.38.38Z"/><path class="cls-14" d="M43.52,219.35c.02-.18.12-.31.34-.32.19-.01.38.16.37.35-.01.21-.13.33-.34.35-.19.02-.36-.16-.37-.38Z"/><path class="cls-14" d="M51.24,215.52c.12-.09.23-.24.36-.27.2-.05.32.11.33.3.01.2-.12.35-.3.33-.13-.01-.25-.15-.38-.23v-.13Z"/><path class="cls-14" d="M45.72,214.58c-.17.16-.26.28-.37.32-.05.02-.21-.15-.23-.24-.03-.17.09-.29.28-.27.08.01.16.09.32.19Z"/><path class="cls-14" d="M49.27,213.61c.11.16.23.25.22.33,0,.09-.13.16-.2.24-.08-.08-.21-.14-.22-.23-.01-.08.1-.18.2-.35Z"/><path class="cls-14" d="M49.62,216.96c-.11-.15-.21-.23-.21-.31,0-.08.12-.15.18-.23.08.07.2.13.22.22.02.06-.1.16-.2.31Z"/><path class="cls-14" d="M51.2,222.79c-.11-.16-.22-.25-.21-.32.01-.08.12-.18.21-.2.05-.01.18.11.19.18,0,.08-.09.17-.18.34Z"/><path class="cls-14" d="M47.53,220.06c-.15.1-.24.21-.31.2-.08,0-.14-.13-.22-.19.07-.07.13-.19.21-.2.07-.01.16.09.32.2Z"/><path class="cls-14" d="M45.72,220.52c-.13.1-.21.2-.27.2-.07,0-.18-.11-.19-.17,0-.07.1-.18.17-.19.07-.01.15.08.29.17Z"/><path class="cls-14" d="M51.46,213.59c-.13.1-.21.19-.28.19-.06,0-.19-.11-.18-.16.01-.08.09-.19.17-.21.06-.02.15.08.29.17Z"/><path class="cls-14" d="M52.15,214.98c.14-.1.22-.2.28-.19.07,0,.14.11.21.17-.06.07-.12.18-.2.19-.07.01-.15-.08-.3-.17Z"/><path class="cls-14" d="M40.52,217.55c-.11.08-.18.18-.24.16-.08-.02-.13-.12-.2-.18.07-.06.13-.16.21-.17.05,0,.12.1.23.18Z"/><path class="cls-14" d="M39.4,213.56c.08.12.17.2.15.26-.02.07-.12.12-.19.18-.05-.07-.14-.13-.14-.2,0-.07.09-.13.18-.24Z"/><path class="cls-14" d="M49.06,215.92c-.08-.1-.17-.17-.17-.22.01-.07.09-.13.15-.2.06.06.15.11.16.18.01.05-.07.12-.14.23Z"/><path class="cls-14" d="M47.11,215.37c-.08-.1-.15-.16-.16-.22,0-.04.1-.14.13-.13.07.02.14.08.16.15.01.04-.06.11-.13.21Z"/><path class="cls-14" d="M39.48,229.23c-.36.05-.59-.25-.59-.48,0-.27.2-.5.47-.51.28-.01.51.19.52.47,0,.04,0,.09,0,.13.01.38-.02.4-.4.38Z"/><path class="cls-14" d="M42.6,222.05c0,.25-.21.44-.46.44-.26,0-.46-.21-.45-.47.01-.24.22-.44.47-.43.24,0,.44.22.44.46Z"/><path class="cls-14" d="M37.55,223.93c0,.21-.15.32-.38.32-.23,0-.4-.18-.4-.4,0-.21.19-.37.4-.37.23,0,.38.19.37.45Z"/><path class="cls-14" d="M35.26,225.52c.01-.21.18-.37.39-.35.2.01.36.19.35.4-.01.22-.19.39-.39.38-.21-.01-.35-.2-.34-.42Z"/><path class="cls-14" d="M40.65,226.35c0,.21-.18.37-.38.37-.21,0-.37-.18-.36-.38,0-.21.17-.37.38-.36.21,0,.37.17.36.38Z"/><path class="cls-14" d="M36.14,230.24c-.01.19-.19.34-.39.33-.19-.02-.33-.18-.32-.37,0-.2.17-.35.38-.34.2.01.35.18.33.38Z"/><path class="cls-14" d="M41.02,220.17c.19.01.33.17.32.36,0,.2-.18.35-.38.33-.19-.02-.33-.17-.32-.37,0-.2.18-.35.38-.33Z"/><path class="cls-14" d="M35.28,228.26c.01-.18.16-.32.33-.3.18.02.32.18.31.36-.01.18-.15.3-.33.29-.19-.01-.32-.16-.3-.35Z"/><path class="cls-14" d="M44.07,222.99c0,.05,0,.11,0,.16-.03.16-.13.24-.28.22-.16-.02-.22-.14-.21-.29,0-.08.04-.16.06-.24.02-.15.09-.24.25-.23.16.02.21.13.2.27,0,.04,0,.07,0,.11h0Z"/><path class="cls-14" d="M35.54,222.26c0-.18.15-.32.31-.31.17,0,.32.17.31.35,0,.17-.17.31-.33.3-.17-.01-.3-.16-.3-.33Z"/><path class="cls-14" d="M44.56,228.69c.2,0,.33.12.34.29,0,.16-.14.3-.31.3-.17,0-.4-.24-.39-.41,0-.13.11-.18.36-.18Z"/><path class="cls-14" d="M42.57,230.15c.01-.17.17-.3.34-.28.18.02.28.14.28.32,0,.18-.15.31-.33.29-.18-.01-.31-.16-.29-.33Z"/><path class="cls-14" d="M45.71,226.16c-.02.17-.18.3-.35.28-.17-.02-.29-.15-.27-.32.02-.17.17-.3.34-.29.16.02.29.17.28.33Z"/><path class="cls-14" d="M41.86,223.86c.16,0,.3.15.29.31,0,.17-.16.31-.34.29-.16-.01-.29-.16-.28-.32.01-.16.16-.29.32-.28Z"/><path class="cls-14" d="M41.79,227.88c-.14-.03-.24-.12-.23-.29,0-.15.15-.29.3-.27.16.02.25.13.26.29,0,.15-.15.28-.32.27Z"/><path class="cls-14" d="M39.21,221.52c-.07-.1-.17-.19-.19-.3-.02-.16.11-.25.26-.24.16,0,.27.11.25.26-.02.1-.14.19-.21.29h-.11Z"/><path class="cls-14" d="M38.12,225.84c.11.14.21.22.23.32,0,.04-.13.16-.21.17-.14.01-.23-.09-.2-.24.01-.06.08-.12.17-.24Z"/><path class="cls-14" d="M37.57,222.96c.13-.08.21-.17.28-.16.07.01.12.11.18.18-.06.06-.13.16-.19.16-.07,0-.14-.09-.26-.18Z"/><path class="cls-14" d="M40.25,222.89c-.12.08-.2.16-.26.15-.06,0-.11-.1-.17-.16.06-.06.12-.15.19-.16.05,0,.12.09.24.17Z"/><path class="cls-14" d="M44.98,221.98c-.13.08-.21.16-.26.15-.06-.01-.14-.11-.15-.18,0-.04.1-.14.16-.14.06,0,.13.08.26.17Z"/><path class="cls-14" d="M42.59,224.73c.07.13.15.2.14.26-.01.06-.11.11-.17.16-.05-.06-.14-.12-.15-.18,0-.06.08-.12.18-.24Z"/><path class="cls-14" d="M42.85,226.2c.07.11.15.18.14.23,0,.06-.1.14-.15.14-.05,0-.14-.09-.14-.15,0-.05.07-.11.15-.22Z"/><path class="cls-14" d="M37.69,221.22c.07.11.14.17.14.23,0,.05-.1.14-.14.13-.06-.01-.15-.09-.16-.14,0-.05.08-.11.16-.22Z"/><path class="cls-14" d="M38.83,220.76c-.07-.12-.14-.18-.13-.24.01-.06.1-.1.15-.16.05.06.13.11.14.17,0,.05-.07.12-.15.23Z"/><path class="cls-14" d="M40.17,230.16c.06.09.13.16.12.2-.02.06-.1.1-.15.14-.04-.06-.12-.11-.12-.17,0-.04.08-.09.16-.17Z"/><path class="cls-14" d="M36.94,230.81c.1-.05.17-.12.22-.11.06.02.09.11.13.16-.06.04-.11.11-.17.1-.05,0-.1-.08-.18-.16Z"/><path class="cls-14" d="M39.39,223.27c-.09.06-.14.13-.18.12-.06-.01-.1-.08-.15-.13.05-.04.1-.11.16-.12.04,0,.09.06.18.13Z"/><path class="cls-14" d="M38.84,224.79c-.08.06-.13.11-.19.12-.03,0-.11-.09-.1-.11.02-.05.07-.11.13-.12.03,0,.08.06.16.12Z"/></g></g></svg>