<?xml version="1.0" encoding="UTF-8"?>
<svg id="a" data-name="bateau 01" xmlns="http://www.w3.org/2000/svg" width="300" height="300" xmlns:xlink="http://www.w3.org/1999/xlink" viewBox="0 0 300 300">
  <defs>
    <filter id="b" data-name="drop-shadow-1" x="174.545" y="102.111" width="83.652" height="88.758" filterUnits="userSpaceOnUse">
      <feOffset dx="-1.219" dy="0"/>
      <feGaussianBlur result="c" stdDeviation="0"/>
      <feFlood flood-color="#42496f" flood-opacity="1"/>
      <feComposite in2="c" operator="in"/>
      <feComposite in="SourceGraphic"/>
    </filter>
  </defs>
  <g filter="url(#b)">
    <polygon points="214.872 108.246 210.625 102.111 207.793 108.836 214.872 108.246" fill="#ffd66e"/>
    <polygon points="201.659 109.78 195.288 102.701 195.406 112.257 201.659 109.78" fill="#ffd66e"/>
    <polygon points="191.159 114.617 180.542 110.016 185.379 120.751 191.159 114.617" fill="#ffd66e"/>
    <polygon points="184.612 122.049 175.764 123.641 184.494 126.532 184.612 122.049" fill="#ffd66e"/>
    <polygon points="186.263 131.782 177.769 136.382 188.151 136.854 186.263 131.782" fill="#ffd66e"/>
    <polygon points="190.157 142.871 182.606 146.41 191.454 147.354 190.157 142.871" fill="#ffd66e"/>
    <polygon points="192.162 153.371 185.556 155.022 191.926 157.382 192.162 153.371" fill="#ffd66e"/>
    <path d="M228.656,129.189c-11.838.587-21.944,4.952-22.691,15.176l-8.651.551c1.966-10.342,15.378-21.071,31.343-15.726Z" fill="#42496f"/>
    <path d="M180.6,175.765c-4.392,8.906,22.464,21.923,25.601,10.845,3.137-11.078-22.315-17.508-25.601-10.845Z" fill="#ffd66e"/>
    <path d="M203.77,185.309s9.555-16.472,2.567-37.793l14.752-1.713c2.356-.274,4.031-2.425,3.717-4.776h0s-23.96,2.995-23.96,2.995c.694-2.229,2.547-7.052,7.273-10.839,8.6-6.89,19.209-4.336,20.537-3.993,0,0-4.516-13.104-5.585-16.598-1.337-4.798-11.527-6.398-20.942-4.366-3.574.771-14.465,3.51-17.97,11.837-3.956,9.401,5.58,16.411,6.275,31.661.478,10.479-3.472,19.312-7.131,25.386,0,0-.737,3.356,6.892,7.21,3.134,1.583,11.522,4.208,13.574.99Z" fill="#93d1ad"/>
    <path d="M217.431,120.711l3.899,1.899c-.531,1.011-1.661,1.487-2.599,1.2-1.14-.349-1.849-1.783-1.3-3.099Z" fill="#42496f"/>
    <path d="M223.767,120.362l-1.273,2.166c.433.941.982.981,1.314.616.404-.444.463-1.544-.041-2.782Z" fill="#42496f"/>
    <path d="M206.689,122.489s-2.203,6.186-11.802,3.702c0,0,1.129.112,3.362-1.119,0,0-3.362-.782-5.217-4.711l13.656,2.128Z" fill="#42496f"/>
    <path d="M194.376,121.028l10.959,1.807s-5.97,4.555-10.959-1.807Z" fill="#ffd66e"/>
    <g>
      <path d="M209.879,140.524c2.152-2.885,4.374-5.067,8.938-7.114,7.013-3.144,11.7-1.7,17.948-4.617,7.235-3.377,10.348-10.115,10.348-10.115-.009,1.738-.255,4.727-1.778,8.022-1.16,2.51-2.643,4.29-3.734,5.405,0,0,7.134-1.731,10.682-5.767-.612,2.804-4.246,9.356-12.49,11.228-8.244,1.872-11.418.06-20.394.755-2.268.175-5.567.675-9.52,2.203Z" fill="#e86170"/>
      <path d="M238.942,120.753c1.481,1.133,7.119-7.48,5.016-9.057-2.103-1.577-6.186,8.163-5.016,9.057Z" fill="#e86170"/>
      <path d="M239.175,120.541c.862.658,4.135-4.374,2.911-5.291-1.223-.917-3.592,4.771-2.911,5.291Z" fill="#ffd66e"/>
      <path d="M254.554,122.633c.535,1.489,4.817-.435,3.33-2.039-1.607-1.734-3.676,1.077-3.33,2.039Z" fill="#e86170"/>
      <path d="M254.728,122.666c.255.71,2.298-.207,1.589-.973-.767-.827-1.754.514-1.589.973Z" fill="#ffd66e"/>
      <path d="M249.015,140.547c-.096,1.928,6.868,1.298,6.197-1.108-.601-2.156-6.088-1.091-6.197,1.108Z" fill="#e86170"/>
      <path d="M249.178,140.528c-.051,1.024,3.648.689,3.291-.589-.319-1.145-3.233-.579-3.291.589Z" fill="#ffd66e"/>
      <path d="M210.319,140.192s4.193-2.295,10.333-2.723c5.456-.38,11.768-.506,11.443-3.061-.351-2.755-9.774-1.524-13.025-.133-3.716,1.59-6.765,3.796-8.751,5.918Z" fill="#ffd66e"/>
    </g>
    <path d="M206.337,147.516l-2.172.211c-2.652.258-5.306-.458-7.469-2.013h0s1.778,5.713,10.755,5.713l-1.114-3.911Z" fill="#42496f"/>
  </g>
</svg>