<?xml version="1.0" encoding="UTF-8"?><svg xmlns="http://www.w3.org/2000/svg" xmlns:xlink="http://www.w3.org/1999/xlink" viewBox="0 0 300 300"><defs><style>.cls-1{stroke:#42496f;}.cls-1,.cls-2,.cls-3{fill:none;}.cls-1,.cls-3{stroke-linecap:round;stroke-linejoin:round;stroke-width:.61px;}.cls-4{filter:url(#drop-shadow-2);}.cls-5,.cls-6{fill:#fff;}.cls-6{opacity:.5;}.cls-7{fill:#e86170;}.cls-8{fill:#efa78e;}.cls-9{isolation:isolate;}.cls-10{fill:#a384bb;mix-blend-mode:multiply;opacity:.25;}.cls-3{stroke:#ffd66e;}.cls-11{fill:#42496f;}.cls-12{clip-path:url(#clippath);}</style><filter id="drop-shadow-2" x="116.3" y="32.92" width="95.45" height="30.2" filterUnits="userSpaceOnUse"><feOffset dx="-1.22" dy="0"/><feGaussianBlur result="blur" stdDeviation="0"/><feFlood flood-color="#42496f" flood-opacity="1"/><feComposite in2="blur" operator="in"/><feComposite in="SourceGraphic"/></filter><clipPath id="clippath"><path class="cls-2" d="M128.25,42.02s-1.93,2.2,0,11c0,0,6.33,3.71,22.56,3.3,16.23-.41,27.64-7.39,34.93-7.14,7.29.26,13.75,2.18,21.45-.02,0,0-6.7-3.58-18.75-3.58,7.47-2.06,14.49-.96,20.95-1.93,0,0-2.06-2.75-9.35-3.03s-11.39,1.51-15.53,1.38c-4.14-.14-24.1-3.32-34.97-3.19s-21.3,3.19-21.3,3.19Z"/></clipPath></defs><g class="cls-9"><g id="bateau_09"><g class="cls-4"><polyline class="cls-1" points="128.78 42.93 117.83 48.31 128.67 52.3"/><path class="cls-8" d="M128.25,42.02s-1.93,2.2,0,11c0,0,6.33,3.71,22.56,3.3,16.23-.41,27.64-7.39,34.93-7.14,7.29.26,13.75,2.18,21.45-.02,0,0-6.7-3.58-18.75-3.58,7.47-2.06,14.49-.96,20.95-1.93,0,0-2.06-2.75-9.35-3.03s-11.39,1.51-15.53,1.38c-4.14-.14-24.1-3.32-34.97-3.19s-21.3,3.19-21.3,3.19Z"/><g class="cls-12"><path class="cls-6" d="M143.49,63.12s5.74-12.9,2.67-30.2l-24.07,3.78-1.42,25.17,22.81,1.26Z"/><path class="cls-6" d="M188.63,37.01s2.91,3.93,1.73,16.52l18.88-1.26,2.52-14.47-23.12-.79Z"/><path class="cls-3" d="M148.21,55.23c1.59,0,2.87-1.29,2.87-2.87,0-1.05-.57-1.96-1.41-2.46.84-.5,1.41-1.41,1.41-2.46s-.57-1.96-1.41-2.46c.84-.5,1.41-1.41,1.41-2.46,0-1.59-1.29-2.87-2.87-2.87"/><path class="cls-3" d="M145.41,57.77c1.59,0,2.87-1.29,2.87-2.87,0-1.05-.57-1.96-1.41-2.46.84-.5,1.41-1.41,1.41-2.46s-.57-1.96-1.41-2.46c.84-.5,1.41-1.41,1.41-2.46s-.57-1.96-1.41-2.46c.84-.5,1.41-1.41,1.41-2.46,0-1.59-1.29-2.87-2.87-2.87"/><path class="cls-3" d="M153.63,55.23c1.59,0,2.87-1.29,2.87-2.87,0-1.05-.57-1.96-1.41-2.46.84-.5,1.41-1.41,1.41-2.46s-.57-1.96-1.41-2.46c.84-.5,1.41-1.41,1.41-2.46,0-1.59-1.29-2.87-2.87-2.87"/><path class="cls-3" d="M150.83,57.77c1.59,0,2.87-1.29,2.87-2.87,0-1.05-.57-1.96-1.41-2.46.84-.5,1.41-1.41,1.41-2.46s-.57-1.96-1.41-2.46c.84-.5,1.41-1.41,1.41-2.46s-.57-1.96-1.41-2.46c.84-.5,1.41-1.41,1.41-2.46,0-1.59-1.29-2.87-2.87-2.87"/><path class="cls-3" d="M159.04,55.23c1.59,0,2.87-1.29,2.87-2.87,0-1.05-.57-1.96-1.41-2.46.84-.5,1.41-1.41,1.41-2.46s-.57-1.96-1.41-2.46c.84-.5,1.41-1.41,1.41-2.46,0-1.59-1.29-2.87-2.87-2.87"/><path class="cls-3" d="M156.25,57.77c1.59,0,2.87-1.29,2.87-2.87,0-1.05-.57-1.96-1.41-2.46.84-.5,1.41-1.41,1.41-2.46s-.57-1.96-1.41-2.46c.84-.5,1.41-1.41,1.41-2.46s-.57-1.96-1.41-2.46c.84-.5,1.41-1.41,1.41-2.46,0-1.59-1.29-2.87-2.87-2.87"/><path class="cls-3" d="M164.46,55.23c1.59,0,2.87-1.29,2.87-2.87,0-1.05-.57-1.96-1.41-2.46.84-.5,1.41-1.41,1.41-2.46s-.57-1.96-1.41-2.46c.84-.5,1.41-1.41,1.41-2.46,0-1.59-1.29-2.87-2.87-2.87"/><path class="cls-3" d="M161.66,57.77c1.59,0,2.87-1.29,2.87-2.87,0-1.05-.57-1.96-1.41-2.46.84-.5,1.41-1.41,1.41-2.46s-.57-1.96-1.41-2.46c.84-.5,1.41-1.41,1.41-2.46s-.57-1.96-1.41-2.46c.84-.5,1.41-1.41,1.41-2.46,0-1.59-1.29-2.87-2.87-2.87"/><path class="cls-3" d="M169.88,55.23c1.59,0,2.87-1.29,2.87-2.87,0-1.05-.57-1.96-1.41-2.46.84-.5,1.41-1.41,1.41-2.46s-.57-1.96-1.41-2.46c.84-.5,1.41-1.41,1.41-2.46,0-1.59-1.29-2.87-2.87-2.87"/><path class="cls-3" d="M167.08,57.77c1.59,0,2.87-1.29,2.87-2.87,0-1.05-.57-1.96-1.41-2.46.84-.5,1.41-1.41,1.41-2.46s-.57-1.96-1.41-2.46c.84-.5,1.41-1.41,1.41-2.46s-.57-1.96-1.41-2.46c.84-.5,1.41-1.41,1.41-2.46,0-1.59-1.29-2.87-2.87-2.87"/><path class="cls-3" d="M175.29,55.23c1.59,0,2.87-1.29,2.87-2.87,0-1.05-.57-1.96-1.41-2.46.84-.5,1.41-1.41,1.41-2.46s-.57-1.96-1.41-2.46c.84-.5,1.41-1.41,1.41-2.46,0-1.59-1.29-2.87-2.87-2.87"/><path class="cls-3" d="M172.5,57.77c1.59,0,2.87-1.29,2.87-2.87,0-1.05-.57-1.96-1.41-2.46.84-.5,1.41-1.41,1.41-2.46s-.57-1.96-1.41-2.46c.84-.5,1.41-1.41,1.41-2.46s-.57-1.96-1.41-2.46c.84-.5,1.41-1.41,1.41-2.46,0-1.59-1.29-2.87-2.87-2.87"/><path class="cls-3" d="M180.71,55.23c1.59,0,2.87-1.29,2.87-2.87,0-1.05-.57-1.96-1.41-2.46.84-.5,1.41-1.41,1.41-2.46s-.57-1.96-1.41-2.46c.84-.5,1.41-1.41,1.41-2.46,0-1.59-1.29-2.87-2.87-2.87"/><path class="cls-3" d="M177.91,57.77c1.59,0,2.87-1.29,2.87-2.87,0-1.05-.57-1.96-1.41-2.46.84-.5,1.41-1.41,1.41-2.46s-.57-1.96-1.41-2.46c.84-.5,1.41-1.41,1.41-2.46s-.57-1.96-1.41-2.46c.84-.5,1.41-1.41,1.41-2.46,0-1.59-1.29-2.87-2.87-2.87"/><path class="cls-3" d="M186.12,55.23c1.59,0,2.87-1.29,2.87-2.87,0-1.05-.57-1.96-1.41-2.46.84-.5,1.41-1.41,1.41-2.46s-.57-1.96-1.41-2.46c.84-.5,1.41-1.41,1.41-2.46,0-1.59-1.29-2.87-2.87-2.87"/><path class="cls-3" d="M183.33,57.77c1.59,0,2.87-1.29,2.87-2.87,0-1.05-.57-1.96-1.41-2.46.84-.5,1.41-1.41,1.41-2.46s-.57-1.96-1.41-2.46c.84-.5,1.41-1.41,1.41-2.46s-.57-1.96-1.41-2.46c.84-.5,1.41-1.41,1.41-2.46,0-1.59-1.29-2.87-2.87-2.87"/><path class="cls-11" d="M147.14,54.75s2.8,4.74,2.83,4.65,10.54-2.95,11.42-3.22c.24-1.16.3-3.43-1.33-6.28l-3.09.04-9.83,4.81Z"/><path class="cls-11" d="M128.78,42.95s1.1,6.17-.08,9.36c0,0-1.38-4.76.08-9.36Z"/><path class="cls-10" d="M202.47,51.64s-17.83-5.43-26.58-3.85c-8.76,1.57-34.44,5-43.5,2.46,0,0-1.94-8.04-3-8.04-2.47.02-1.44,11.82-1.44,11.82l24.19,6.81,50.33-9.2Z"/></g><path class="cls-7" d="M147.14,54.75l11.46,4.4s2.35-7.15,0-9.9h-8.95l-2.51,5.5Z"/><circle class="cls-5" cx="139.91" cy="49.72" r="4.09"/><circle class="cls-11" cx="138.18" cy="50.06" r="1.73"/></g></g></g></svg>