<?xml version="1.0" encoding="UTF-8"?><svg id="bateau_08" xmlns="http://www.w3.org/2000/svg" xmlns:xlink="http://www.w3.org/1999/xlink" viewBox="0 0 300 300"><defs><style>.cls-1{filter:url(#drop-shadow-2);}.cls-2{fill:#fff;}.cls-3{fill:#e86170;}.cls-4{fill:#42496f;}</style><filter id="drop-shadow-2" x="114.86" y="48.63" width="38.43" height="24.49" filterUnits="userSpaceOnUse"><feOffset dx="-1.22" dy="0"/><feGaussianBlur result="blur" stdDeviation="0"/><feFlood flood-color="#42496f" flood-opacity="1"/><feComposite in2="blur" operator="in"/><feComposite in="SourceGraphic"/></filter></defs><g class="cls-1"><path class="cls-4" d="M122.97,68.74l-4.03.98c.13,1.11.26,2.23.4,3.39,1.84.1,3.2-.31,4.17-.88-.18-1.17-.36-2.33-.54-3.48Z"/><path class="cls-3" d="M116.08,52.78l1.89,18.56s5.95-3.39,11.35-3.39c7.33,0,8.42,2.39,14.86,2.49,5.62.09,9.11-4.12,9.11-4.12,0,0-5.76-1.25-8.3-5.87,0,0,7.17-3.88,6.42-9.36-3.78,1.86-6.89,3.37-11.28,3.39-4.8.02-8.45-5.85-14.72-5.85-5.95,0-9.33,4.15-9.33,4.15Z"/><path class="cls-2" d="M125.45,59.81c0,.42-.15.79-.46,1.14-.17.19-.36.35-.56.46-.21.11-.49.21-.84.3-.5.14-.98.17-1.43.09-.04,0-.06-.06-.06-.16,0-.02,0-.2,0-.53,0-.34,0-.52,0-.54,0-.04.03-.06.08-.09.06-.03.09-.04.16-.06.05-.02.07,0,.08.02,0,.1,0,.21.02.3.04.25.16.43.36.55.2.12.47.13.82.04.47-.12.8-.35.97-.72.08-.16.11-.37.11-.62,0-.22-.09-.39-.21-.51-.14-.13-.41-.27-.81-.32-.45-.06-.81-.16-1.08-.33-.27-.17-.41-.52-.41-1.05,0-.49.19-.99.57-1.45.29-.35.68-.58,1.14-.65.52-.08.92.02,1.22.26.04.04.06.07.07.11.03.18.04.47.04.86,0,.06-.01.09-.03.09-.07,0-.11,0-.19.01-.03,0-.05-.01-.05-.05-.02-.1-.05-.2-.08-.31-.05-.17-.14-.3-.28-.39-.24-.16-.54-.21-.91-.14-.28.05-.5.19-.65.4-.17.24-.25.51-.25.82,0,.21.09.38.25.53.08.08.37.15.87.28.3.08.52.15.65.22.23.1.42.24.57.39.22.22.33.57.33,1.03Z"/><path class="cls-2" d="M130.15,57.86c0,.4-.15.71-.43.94-.31.26-.76.34-1.35.26-.28-.04-.55-.1-.8-.2-.02,0-.03,0-.03.05v1.18c0,.61.05.92.16.93.24.02.36.03.6.05.03,0,.05.02.05.06v.16s0,.05-.03.05c-.9-.09-1.36-.11-2.26-.07-.02,0-.03-.01-.03-.03v-.19s.01-.06.04-.06c.22,0,.33-.01.55-.01.04,0,.06-.03.06-.1,0-1.65,0-2.48,0-4.13,0-.5-.03-.75-.1-.75-.18-.01-.27-.02-.45-.02-.04,0-.05-.01-.05-.03,0-.08,0-.12,0-.2,0-.03.02-.04.05-.04.4,0,.6,0,1,.03.13,0,.47.04,1.02.13.3.05.55.12.75.19.3.11.59.32.84.63.26.32.4.71.4,1.16ZM129.35,57.75c0-.32-.12-.65-.37-.99-.25-.34-.65-.57-1.21-.65-.09-.01-.14-.01-.16,0-.02,0-.03.04-.04.08-.02.16-.02.57-.02,1.21,0,.02,0,.21,0,.55,0,.35,0,.53,0,.55,0,.04.02.06.05.08.17.08.37.13.6.16.39.05.67,0,.85-.15.2-.18.3-.46.3-.84Z"/><path class="cls-2" d="M136.62,63.9s-.22.08-.67.09c-.31,0-.61,0-.89-.03-.11-.01-.21-.04-.29-.09-.26-.18-.54-.42-.83-.73-.21-.21-.47-.51-.79-.92-.03-.05-.09-.08-.16-.1-.39-.08-.74-.21-1.03-.39-.26-.16-.46-.34-.61-.53-.41-.51-.61-1.18-.61-2.01,0-.41.05-.76.16-1.05.13-.36.32-.63.55-.8.22-.17.52-.29.9-.34.35-.05.72-.02,1.12.08.59.15,1.06.32,1.38.53.28.18.54.44.78.76.33.46.49.97.49,1.56,0,.74-.22,1.32-.65,1.74-.21.2-.46.36-.76.47-.23.08-.45.12-.67.12-.07,0-.09.02-.06.05.22.24.55.53.99.84.28.19.53.34.77.44.24.1.44.16.6.16.13,0,.22,0,.25,0,.02,0,.04.01.04.04v.12ZM135.21,60.03c0-.37-.03-.68-.1-.91-.08-.29-.22-.57-.42-.85-.16-.23-.37-.42-.62-.59-.27-.18-.54-.3-.82-.37-.33-.08-.59-.09-.77-.01-.26.1-.46.29-.59.58-.14.32-.22.73-.22,1.22,0,.74.13,1.35.38,1.84.15.29.39.54.7.75.24.16.51.27.81.32.31.05.61,0,.89-.14.22-.11.4-.34.55-.66.13-.28.21-.67.21-1.17Z"/><path class="cls-2" d="M141.86,61.59s-.01.04-.03.05c-.54.24-.81.33-1.35.49-.06.02-.11.02-.15,0-.13-.06-.46-.32-.99-.85-.24-.24-.44-.52-.62-.84-.02-.04-.04-.05-.06-.05-.14,0-.31,0-.52-.02-.04,0-.06.02-.06.05,0-.04,0,.07,0,.32,0,.26,0,.52,0,.79,0,.5.06.75.18.74.25-.02.37-.03.62-.06.03,0,.04,0,.04.03v.15s-.01.04-.03.04c-.85.11-1.27.11-2.12.09-.04,0-.05-.01-.05-.04v-.15s.02-.05.05-.04c.18,0,.27,0,.45.01.05,0,.07-.03.07-.1,0-.74,0-1.11,0-1.86,0-.54,0-.82,0-1.36,0-.63-.05-.95-.14-.96-.17-.01-.26-.02-.44-.04-.03,0-.04-.02-.04-.04v-.16s0-.04.03-.04c.48.04.72.06,1.2.07.4,0,.7,0,.91-.01.22,0,.4-.01.54,0,.37.01.68.08.93.22.28.16.42.38.42.69,0,.35-.14.68-.41.98-.16.17-.4.34-.73.5-.02.01-.03.03-.02.04.22.32.49.59.79.8.23.16.39.26.47.31.17.1.32.15.44.18.17.04.36.02.57-.07.05-.02.07-.02.07.01v.13ZM139.86,59.06c0-.3-.11-.52-.33-.68-.29-.21-.72-.3-1.29-.31-.09,0-.14.03-.15.07-.06.56,0,1.03-.02,1.19,0,.29,0,.44,0,.73,0,.04.02.06.06.07.09.01.24.01.43,0,.25-.02.44-.06.56-.1.5-.17.75-.51.75-.97Z"/></g></svg>