<?xml version="1.0" encoding="UTF-8"?>
<svg xmlns="http://www.w3.org/2000/svg" width="300" height="300" xmlns:xlink="http://www.w3.org/1999/xlink" viewBox="0 0 300 300">
  <defs>
    <clipPath id="b">
      <path d="M27.111,96.934v129.238c1.89.35,3.973.545,6.164.545,5.076,0,9.57-1.043,12.415-2.649.138-.006.275-.012.413-.018,1.532,1.617,3.964,2.668,6.71,2.668s5.18-1.051,6.712-2.67c1.956,1.618,5.059,2.67,8.566,2.67,2.89,0,5.507-.714,7.435-1.87,2.251,1.156,5.308,1.87,8.683,1.87,2.909,0,5.578-.533,7.704-1.418.523.885,1.18,1.418,1.895,1.418.705,0,1.352-.518,1.871-1.38,2.11.862,4.742,1.38,7.607,1.38,3.747,0,7.1-.881,9.394-2.269,1.964,1.388,4.835,2.269,8.044,2.269,2.976,0,5.668-.755,7.61-1.972,2.268,1.217,5.412,1.972,8.888,1.972.154,0,.299-.017.451-.021.308.008.613.021.926.021,5.076,0,9.57-1.043,12.415-2.649.138-.006.275-.012.413-.018,1.532,1.617,3.964,2.668,6.71,2.668s5.18-1.051,6.712-2.67c1.956,1.618,5.059,2.67,8.566,2.67,2.89,0,5.507-.714,7.435-1.87,2.251,1.156,5.308,1.87,8.683,1.87,2.909,0,5.578-.533,7.704-1.418.523.885,1.18,1.418,1.895,1.418.705,0,1.352-.518,1.871-1.38,2.11.862,4.742,1.38,7.607,1.38,3.747,0,7.1-.881,9.394-2.269,1.964,1.388,4.835,2.269,8.044,2.269,2.976,0,5.668-.755,7.61-1.972,2.268,1.217,5.412,1.972,8.888,1.972.622,0,1.226-.036,1.824-.083V96.934H27.111Z" fill="none"/>
    </clipPath>
    <filter id="c" data-name="drop-shadow-3" x="51.956" y="155.095" width="166.145" height="83.861" filterUnits="userSpaceOnUse">
      <feOffset dx="-1.219" dy="0"/>
      <feGaussianBlur result="d" stdDeviation="0"/>
      <feFlood flood-color="#42496f" flood-opacity="1"/>
      <feComposite in2="d" operator="in"/>
      <feComposite in="SourceGraphic"/>
    </filter>
    <clipPath id="e">
      <path d="M58.15,177.16h147.012s-10.249,41.246-14.924,52.857h-118.824l-3.902-27.831c-.406-2.899-1.63-5.623-3.527-7.852l-2.16-2.539c-2.373-2.789-3.676-6.331-3.676-9.993v-4.641Z" fill="none"/>
    </clipPath>
  </defs>
  <g isolation="isolate">
    <g id="a" data-name="bateau 04">
      <g>
        <g clip-path="url(#b)">
          <g>
            <path d="M200.642,229.719s12.46-16.648,7.995-18.232c-4.465-1.584-22.186,13.793-22.186,13.793l14.191,4.439Z" fill="#fff"/>
            <path d="M197.43,233.793s12.46-16.648,7.995-18.232c-4.465-1.584-22.186,13.793-22.186,13.793l14.191,4.439Z" fill="#9bc8ec"/>
            <g>
              <path d="M209.307,225.029c-.524.265-1.029-.081-1.141-.428-.134-.414.059-.864.453-1.018.415-.162.876.04,1.042.457.027.067.042.139.067.206.211.574.182.627-.42.783Z" fill="#fff"/>
              <path d="M210.43,212.481c.114.378-.096.776-.475.899-.399.13-.807-.086-.917-.486-.104-.376.119-.779.495-.893.375-.113.785.106.897.479Z" fill="#fff"/>
              <path d="M203.662,217.913c.093.318-.059.565-.419.68-.347.111-.71-.072-.809-.409-.096-.328.095-.667.431-.764.352-.101.684.104.798.492Z" fill="#fff"/>
              <path d="M200.979,221.509c-.089-.33.092-.651.413-.735.319-.083.643.108.731.432.095.35-.085.696-.406.779-.322.084-.643-.122-.738-.476Z" fill="#fff"/>
              <path d="M209.631,220.048c.094.317-.085.658-.397.755-.317.098-.653-.083-.747-.402-.096-.325.077-.651.398-.75.324-.101.65.073.746.398Z" fill="#fff"/>
              <path d="M204.712,228.283c.079.304-.116.621-.428.694-.297.069-.596-.107-.681-.401-.09-.311.088-.621.404-.705.31-.082.624.101.705.411Z" fill="#fff"/>
              <path d="M207.057,210.404c.302-.077.593.092.678.394.089.314-.091.622-.408.701-.3.074-.598-.098-.681-.395-.087-.313.092-.619.411-.7Z" fill="#fff"/>
              <path d="M202.396,225.691c-.074-.285.081-.564.348-.624.276-.062.581.119.652.389.073.278-.081.542-.36.617-.289.078-.563-.086-.64-.382Z" fill="#fff"/>
              <path d="M213.156,213.172c.022.081.054.161.065.243.036.254-.072.43-.326.474-.258.045-.413-.097-.465-.342-.027-.128-.013-.264-.036-.393-.043-.237.023-.415.267-.471.249-.056.38.089.437.318.014.058.032.116.048.174l.01-.003Z" fill="#fff"/>
              <path d="M199.738,216.387c-.083-.272.062-.563.32-.64.261-.078.577.102.656.373.075.256-.096.557-.354.625-.265.07-.54-.089-.623-.359Z" fill="#fff"/>
              <path d="M216.792,221.63c.3-.095.569.017.66.274.085.242-.064.528-.318.61-.255.083-.73-.172-.799-.429-.055-.203.078-.336.458-.456Z" fill="#fff"/>
              <path d="M214.495,224.872c-.068-.272.101-.551.382-.606.294-.057.5.066.592.35.088.273-.075.545-.356.618-.278.072-.55-.086-.619-.362Z" fill="#fff"/>
              <path d="M217.266,217.188c.061.263-.123.548-.393.611-.275.064-.52-.086-.581-.357-.062-.275.11-.551.381-.613.256-.058.536.11.593.359Z" fill="#fff"/>
              <path d="M210.213,215.628c.253-.07.533.081.609.33.079.261-.092.549-.366.616-.259.063-.53-.096-.594-.349-.064-.251.098-.525.351-.596Z" fill="#fff"/>
              <path d="M212.146,221.81c-.231.032-.422-.06-.503-.32-.074-.238.085-.519.323-.566.262-.052.452.063.537.314.079.232-.087.504-.357.572Z" fill="#fff"/>
              <path d="M204.976,213.385c-.152-.119-.363-.209-.442-.365-.118-.233.036-.429.274-.502.244-.075.473.034.509.274.026.169-.11.363-.174.546l-.166.048Z" fill="#fff"/>
              <path d="M205.513,220.547c.249.163.431.232.517.363.034.052-.117.308-.232.357-.204.087-.391-.024-.419-.262-.012-.106.061-.221.134-.458Z" fill="#fff"/>
              <path d="M203.208,216.43c.163-.191.241-.364.344-.38.11-.018.243.112.366.177-.069.121-.113.303-.215.345-.097.04-.255-.066-.496-.142Z" fill="#fff"/>
              <path d="M207.27,214.956c-.15.178-.22.337-.316.355-.101.019-.227-.098-.342-.155.066-.121.105-.291.206-.346.075-.041.231.069.452.147Z" fill="#fff"/>
              <path d="M214.03,211.173c-.161.189-.236.353-.328.364-.103.012-.265-.095-.317-.194-.03-.058.083-.263.169-.292.099-.034.239.054.476.122Z" fill="#fff"/>
              <path d="M211.777,216.588c.176.159.333.235.345.329.012.101-.111.219-.175.33-.111-.065-.278-.108-.317-.203-.036-.086.068-.23.148-.456Z" fill="#fff"/>
              <path d="M212.915,218.704c.166.132.316.193.331.278.016.09-.077.264-.157.288-.08.024-.253-.069-.291-.152-.035-.078.054-.213.117-.413Z" fill="#fff"/>
              <path d="M202.499,213.711c.164.136.302.196.326.287.021.079-.08.267-.14.273-.104.01-.267-.057-.312-.142-.038-.071.058-.212.126-.417Z" fill="#fff"/>
              <path d="M204.015,212.419c-.164-.141-.312-.207-.325-.294-.014-.095.095-.209.151-.314.103.06.257.097.295.185.035.081-.055.215-.121.423Z" fill="#fff"/>
              <path d="M210.831,226.104c.131.109.277.175.278.243,0,.099-.103.199-.162.298-.097-.066-.234-.112-.275-.203-.028-.061.081-.183.16-.339Z" fill="#fff"/>
              <path d="M206.213,228.738c.126-.132.202-.274.276-.273.097.002.193.116.289.182-.067.085-.122.22-.205.241-.083.02-.194-.075-.36-.15Z" fill="#fff"/>
              <path d="M206.144,215.981c-.101.135-.153.269-.217.276-.093.009-.196-.075-.294-.119.058-.09.097-.216.179-.259.058-.031.175.049.333.102Z" fill="#fff"/>
              <path d="M206.074,218.57c-.1.129-.146.238-.224.271-.048.02-.208-.078-.207-.12.003-.087.06-.201.132-.248.044-.029.155.047.299.098Z" fill="#fff"/>
            </g>
          </g>
          <g filter="url(#c)">
            <g>
              <polygon points="173.129 157.233 173.129 155.095 170.519 155.095 69.804 155.095 67.194 155.095 67.194 157.233 69.804 157.233 69.804 166.892 67.194 166.892 67.194 169.031 69.804 169.031 69.804 177.975 170.519 177.975 170.519 169.031 173.129 169.031 173.129 166.892 170.519 166.892 170.519 157.233 173.129 157.233" fill="#9bc8ec"/>
              <polygon points="173.129 157.233 173.129 155.095 170.519 155.095 69.804 155.095 67.194 155.095 67.194 157.233 69.804 157.233 69.804 166.892 67.194 166.892 67.194 169.031 69.804 169.031 69.804 177.975 170.519 177.975 170.519 169.031 173.129 169.031 173.129 166.892 170.519 166.892 170.519 157.233 173.129 157.233" fill="#fff" opacity=".8"/>
              <polygon points="170.519 180.415 69.804 180.415 69.804 176.275 170.519 173.836 170.519 180.415" fill="#42496f"/>
              <polygon points="170.512 157.233 69.798 157.233 69.798 160.801 170.512 158.361 170.512 157.233" fill="#a384bb" mix-blend-mode="multiply" opacity=".25"/>
              <polygon points="170.519 169.031 69.804 169.031 69.804 172.599 170.519 170.159 170.519 169.031" fill="#a384bb" mix-blend-mode="multiply" opacity=".25"/>
              <rect x="147.514" y="158.735" width="22.965" height="6.921" fill="#42496f"/>
              <polygon points="173.129 157.233 173.129 155.095 170.519 155.095 151.604 155.095 148.994 155.095 148.994 157.233 151.604 157.233 151.604 166.892 148.994 166.892 148.994 169.031 151.604 169.031 151.604 177.975 170.519 177.975 170.519 169.031 173.129 169.031 173.129 166.892 170.519 166.892 170.519 157.233 173.129 157.233" fill="#a384bb" mix-blend-mode="multiply" opacity=".25"/>
              <circle cx="131.705" cy="161.96" r="2.595" fill="#42496f"/>
              <circle cx="115.897" cy="161.96" r="2.595" fill="#42496f"/>
              <circle cx="100.089" cy="161.96" r="2.595" fill="#42496f"/>
              <circle cx="84.281" cy="161.96" r="2.595" fill="#42496f"/>
              <path d="M84.281,159.852c-.837,0-1.554.485-1.906,1.185.352.7,1.069,1.185,1.906,1.185s1.554-.485,1.906-1.185c-.352-.7-1.069-1.185-1.906-1.185Z" fill="#9bc8ec" opacity=".25"/>
              <path d="M100.089,159.852c-.837,0-1.554.485-1.906,1.185.352.7,1.069,1.185,1.906,1.185s1.554-.485,1.906-1.185c-.352-.7-1.069-1.185-1.906-1.185Z" fill="#9bc8ec" opacity=".25"/>
              <path d="M115.897,159.852c-.837,0-1.554.485-1.906,1.185.352.7,1.069,1.185,1.906,1.185s1.554-.485,1.906-1.185c-.352-.7-1.069-1.185-1.906-1.185Z" fill="#9bc8ec" opacity=".25"/>
              <path d="M131.705,159.852c-.837,0-1.554.485-1.906,1.185.352.7,1.069,1.185,1.906,1.185s1.554-.485,1.906-1.185c-.352-.7-1.069-1.185-1.906-1.185Z" fill="#9bc8ec" opacity=".25"/>
            </g>
            <g>
              <g>
                <path d="M204.059,177.16l1.66-8.549s-13.136-.5-26.147,3.253v6.881" fill="none" stroke="#336a9b" stroke-linecap="round" stroke-linejoin="round" stroke-width="1.219"/>
                <g>
                  <line x1="201.185" y1="168.64" x2="199.816" y2="180.37" fill="none" stroke="#336a9b" stroke-linecap="round" stroke-linejoin="round" stroke-width="1.219"/>
                  <line x1="196.805" y1="169.184" x2="195.779" y2="180.12" fill="none" stroke="#336a9b" stroke-linecap="round" stroke-linejoin="round" stroke-width="1.219"/>
                  <line x1="192.426" y1="169.728" x2="191.741" y2="179.87" fill="none" stroke="#336a9b" stroke-linecap="round" stroke-linejoin="round" stroke-width="1.219"/>
                  <line x1="188.046" y1="170.272" x2="187.704" y2="179.62" fill="none" stroke="#336a9b" stroke-linecap="round" stroke-linejoin="round" stroke-width="1.219"/>
                  <line x1="183.667" y1="170.816" x2="183.667" y2="179.37" fill="none" stroke="#336a9b" stroke-linecap="round" stroke-linejoin="round" stroke-width="1.219"/>
                </g>
              </g>
              <g>
                <polyline points="59.695 181.229 56.242 170.816 77.713 170.816 81.017 180.37" fill="none" stroke="#336a9b" stroke-linecap="round" stroke-linejoin="round" stroke-width="1.219"/>
                <g>
                  <line x1="64.082" y1="181.229" x2="60.63" y2="170.816" fill="none" stroke="#336a9b" stroke-linecap="round" stroke-linejoin="round" stroke-width="1.219"/>
                  <line x1="68.353" y1="181.229" x2="64.901" y2="170.816" fill="none" stroke="#336a9b" stroke-linecap="round" stroke-linejoin="round" stroke-width="1.219"/>
                  <line x1="72.625" y1="181.229" x2="69.172" y2="170.816" fill="none" stroke="#336a9b" stroke-linecap="round" stroke-linejoin="round" stroke-width="1.219"/>
                  <line x1="76.896" y1="181.229" x2="73.443" y2="170.816" fill="none" stroke="#336a9b" stroke-linecap="round" stroke-linejoin="round" stroke-width="1.219"/>
                </g>
              </g>
              <g>
                <path d="M66.27,193.852l-.762.965c-1.806,2.287-2.848,5.084-2.979,7.995l-1.214,26.903h13.213l-5.191-30.437-3.067-5.427Z" fill="#e86170"/>
                <path d="M62.529,202.812l-.66,14.634h10.567l-3.098-18.168-3.067-5.427-.762.965c-1.806,2.287-2.848,5.084-2.979,7.995Z" fill="#42496f"/>
              </g>
              <polygon points="65.208 196.329 68.04 229.597 74.528 229.715 69.691 196.093 65.208 196.329" fill="#42496f"/>
              <path d="M58.15,177.16h147.012s-10.249,41.246-14.924,52.857h-118.824l-3.902-27.831c-.406-2.899-1.63-5.623-3.527-7.852l-2.16-2.539c-2.373-2.789-3.676-6.331-3.676-9.993v-4.641Z" fill="#9bc8ec"/>
              <path d="M58.15,177.16h147.012s-10.249,41.246-14.924,52.857h-118.824l-3.902-27.831c-.406-2.899-1.63-5.623-3.527-7.852l-2.16-2.539c-2.373-2.789-3.676-6.331-3.676-9.993v-4.641Z" fill="#fff" opacity=".8"/>
              <g clip-path="url(#e)">
                <rect x="53.175" y="185.896" width="164.926" height="34.264" fill="#42496f"/>
                <rect x="53.175" y="217.225" width="164.926" height="21.659" transform="translate(271.276 456.11) rotate(180)" fill="#e86170"/>
                <rect x="53.175" y="183.942" width="164.926" height="2.831" fill="#ffd66e"/>
                <g>
                  <circle cx="84.221" cy="192.485" r="3.082" fill="#e86170"/>
                  <circle cx="84.221" cy="192.485" r="2.488" fill="#fff"/>
                  <path d="M84.221,190.345c-.837,0-1.554.485-1.906,1.185.352.7,1.069,1.185,1.906,1.185s1.554-.485,1.906-1.185c-.352-.7-1.069-1.185-1.906-1.185Z" fill="#9bc8ec" opacity=".25"/>
                </g>
                <g>
                  <circle cx="102.396" cy="192.485" r="3.082" fill="#e86170"/>
                  <circle cx="102.396" cy="192.485" r="2.488" fill="#fff"/>
                  <path d="M102.396,190.345c-.837,0-1.554.485-1.906,1.185.352.7,1.069,1.185,1.906,1.185s1.554-.485,1.906-1.185c-.352-.7-1.069-1.185-1.906-1.185Z" fill="#9bc8ec" opacity=".25"/>
                </g>
                <g>
                  <circle cx="120.571" cy="192.485" r="3.082" fill="#e86170"/>
                  <circle cx="120.571" cy="192.485" r="2.488" fill="#fff"/>
                  <path d="M120.57,190.345c-.837,0-1.554.485-1.906,1.185.352.7,1.069,1.185,1.906,1.185s1.554-.485,1.906-1.185c-.352-.7-1.069-1.185-1.906-1.185Z" fill="#9bc8ec" opacity=".25"/>
                </g>
                <g>
                  <circle cx="138.745" cy="192.485" r="3.082" fill="#e86170"/>
                  <circle cx="138.745" cy="192.485" r="2.488" fill="#fff"/>
                  <path d="M138.745,190.345c-.837,0-1.554.485-1.906,1.185.352.7,1.069,1.185,1.906,1.185s1.554-.485,1.906-1.185c-.352-.7-1.069-1.185-1.906-1.185Z" fill="#9bc8ec" opacity=".25"/>
                </g>
                <g>
                  <circle cx="156.92" cy="192.485" r="3.082" fill="#e86170"/>
                  <circle cx="156.92" cy="192.485" r="2.488" fill="#fff"/>
                  <path d="M156.92,190.345c-.837,0-1.554.485-1.906,1.185.352.7,1.069,1.185,1.906,1.185s1.554-.485,1.906-1.185c-.352-.7-1.069-1.185-1.906-1.185Z" fill="#9bc8ec" opacity=".25"/>
                </g>
                <g>
                  <circle cx="175.095" cy="192.485" r="3.082" fill="#e86170"/>
                  <circle cx="175.095" cy="192.485" r="2.488" fill="#fff"/>
                  <path d="M175.095,190.345c-.837,0-1.554.485-1.906,1.185.352.7,1.069,1.185,1.906,1.185s1.554-.485,1.906-1.185c-.352-.7-1.069-1.185-1.906-1.185Z" fill="#9bc8ec" opacity=".25"/>
                </g>
                <path d="M186.681,234.552s11.334-28.374,8.809-37.437c-2.674-9.595-132.758-12.741-129.927,5.663,1.309,8.511,4.719,36.178,4.719,36.178l116.4-4.404Z" fill="#a384bb" mix-blend-mode="multiply" opacity=".25"/>
                <g>
                  <path d="M183.534,191.779h-.78v2.116h-.626v-2.116h-.766v-.483h2.173v.483Z" fill="#fff"/>
                  <path d="M184.466,193.896h-.625v-2.6h.625v2.6Z" fill="#fff"/>
                  <path d="M186.891,191.779h-.78v2.116h-.626v-2.116h-.766v-.483h2.173v.483Z" fill="#fff"/>
                  <path d="M187.342,192.109l-.265-.143c.099-.171.149-.339.152-.504v-.311h.439v.291c0,.111-.032.229-.096.354-.063.126-.141.229-.231.312Z" fill="#fff"/>
                  <path d="M190.214,193.896h-.623l-.921-1.618v1.618h-.627v-2.6h.627l.919,1.617v-1.617h.625v2.6Z" fill="#fff"/>
                  <path d="M191.279,193.896h-.625v-2.6h.625v2.6Z" fill="#fff"/>
                  <path d="M193.818,193.016c-.008.181-.057.34-.146.479-.089.14-.215.247-.376.323-.162.076-.346.114-.553.114-.342,0-.611-.111-.807-.334-.197-.223-.295-.537-.295-.943v-.129c0-.254.044-.478.133-.668.088-.191.216-.339.383-.443.167-.104.36-.156.579-.156.315,0,.569.083.761.249.192.166.301.396.327.687h-.625c-.004-.158-.044-.271-.12-.341-.075-.069-.189-.104-.343-.104-.156,0-.27.059-.343.175-.073.117-.111.304-.114.56v.184c0,.277.035.476.104.595s.189.179.36.179c.144,0,.254-.034.33-.103.076-.067.117-.175.122-.322h.623Z" fill="#fff"/>
                </g>
              </g>
            </g>
          </g>
        </g>
        <g>
          <path d="M192.045,228.662s-9.568-26.22-18.071-20.245c-2.405,1.69,3.905,15.144,3.905,15.144,0,0-8.4-4.08-9.071-.576s-3.902,6.233-10.364,4.94c-6.462-1.292,18.236,7.835,18.811,4.169s8.162,3.467,9.861,1.695c1.699-1.772-1.245-6.975,4.929-5.127Z" fill="#9bc8ec"/>
          <path d="M188.615,224.868c.307-5.671-8.427-20.919-14.641-16.451-4.091,2.941,2.882,11.611,3.905,15.144-5.19-2.997-11.257-3.346-12.88-1.674-1.624,1.673,2.994,2.384,1.723,3.905s-13.202,1.552-13.202,1.552c0,0,13.678,4.838,17.552,3.141,2.44-1.069-1.482-4.55.681-5.306,5.407-1.892,10.289,7.887,14.422,6.836,2.449-.623-3.542-8.49-1.961-9.141,1.581-.651,4.402,1.994,4.402,1.994Z" fill="#fff"/>
          <g>
            <g>
              <path d="M152.851,226.15c.278.3.144.705-.067.847-.251.169-.59.127-.768-.107-.188-.247-.142-.594.105-.785.04-.031.085-.055.125-.085.344-.251.384-.243.605.131Z" fill="#fff"/>
              <path d="M144.234,227.813c.231-.149.538-.085.693.145.164.242.098.557-.149.708-.232.142-.544.07-.693-.16-.148-.229-.08-.546.148-.693Z" fill="#fff"/>
              <path d="M149.173,231.298c.195-.124.389-.069.536.15.141.211.089.489-.118.621-.201.128-.465.065-.594-.141-.135-.216-.062-.478.176-.629Z" fill="#fff"/>
              <path d="M152.097,232.403c-.204.123-.454.064-.572-.135-.117-.197-.051-.451.149-.572.216-.131.482-.077.6.122.118.2.042.454-.177.586Z" fill="#fff"/>
              <path d="M149.454,226.891c.194-.124.457-.07.582.121.127.193.07.453-.126.578-.199.127-.451.073-.579-.122-.13-.197-.076-.449.123-.576Z" fill="#fff"/>
              <path d="M155.913,228.6c.188-.112.438-.042.547.153.104.185.043.42-.137.533-.191.12-.432.06-.549-.135-.115-.191-.052-.437.14-.551Z" fill="#fff"/>
              <path d="M143.493,230.471c-.11-.187-.052-.415.133-.53.193-.12.434-.059.548.138.108.187.049.419-.133.532-.193.119-.432.058-.548-.14Z" fill="#fff"/>
              <path d="M154.624,230.649c-.177.104-.393.054-.485-.113-.095-.173-.032-.412.135-.512.172-.103.378-.05.483.122.108.178.051.394-.133.502Z" fill="#fff"/>
              <path d="M144.173,225.855c.05-.031.097-.067.15-.091.163-.073.301-.035.38.127.08.164.015.295-.139.377-.08.043-.175.059-.256.1-.151.075-.283.065-.367-.088-.086-.156-.014-.271.129-.354.036-.021.071-.044.107-.065l-.004-.006Z" fill="#fff"/>
              <path d="M148.907,234.219c-.166.108-.389.067-.49-.091-.102-.16-.043-.406.124-.511.157-.099.392-.043.487.117.098.164.045.379-.12.486Z" fill="#fff"/>
              <path d="M149.135,221.793c-.121-.182-.098-.384.057-.494.145-.103.366-.059.47.095.105.155.026.522-.133.618-.125.076-.24.012-.393-.219Z" fill="#fff"/>
              <path d="M151.747,222.707c-.169.098-.388.038-.479-.139-.095-.186-.052-.347.121-.464.166-.112.379-.055.482.119.102.172.048.385-.123.484Z" fill="#fff"/>
              <path d="M146.07,222.33c.164-.091.39-.023.485.146.096.172.043.365-.127.457-.172.094-.39.032-.484-.137-.088-.16-.029-.38.126-.466Z" fill="#fff"/>
              <path d="M146.383,227.352c-.096-.156-.048-.373.104-.471.159-.103.385-.044.482.126.092.161.038.373-.12.465-.156.091-.371.036-.466-.12Z" fill="#fff"/>
              <path d="M150.149,224.869c.066.148.041.294-.117.398-.145.095-.364.043-.441-.107-.085-.166-.045-.315.107-.42.14-.098.354-.039.452.129Z" fill="#fff"/>
              <path d="M145.889,231.29c-.051.125-.07.283-.159.366-.133.124-.294.058-.389-.087-.097-.149-.068-.323.085-.394.108-.05.264.004.399.012l.064.102Z" fill="#fff"/>
              <path d="M150.58,229.553c.061-.198.072-.333.144-.416.028-.033.229.019.284.087.097.12.059.266-.095.331-.068.029-.16.002-.333-.002Z" fill="#fff"/>
              <path d="M148.268,231.888c-.159-.073-.29-.091-.321-.157-.033-.07.028-.184.048-.279.094.023.225.018.273.078.046.057.005.183,0,.359Z" fill="#fff"/>
              <path d="M146.5,229.452c.148.066.268.083.298.144.032.064-.022.171-.038.259-.094-.021-.215-.014-.272-.071-.042-.042.001-.168.011-.331Z" fill="#fff"/>
              <path d="M142.666,225.654c.157.072.282.09.307.15.028.067-.012.196-.069.25-.033.032-.192-.005-.228-.057-.041-.06-.01-.17-.01-.343Z" fill="#fff"/>
              <path d="M146.725,226.121c.072-.149.093-.268.154-.294.065-.028.168.032.255.054-.022.087-.019.207-.075.252-.051.04-.167-.001-.333-.011Z" fill="#fff"/>
              <path d="M147.923,224.951c.056-.137.068-.248.122-.275.057-.028.192.001.223.05.032.049.003.183-.046.224-.046.039-.153.005-.299,0Z" fill="#fff"/>
              <path d="M146.584,232.886c.059-.136.073-.24.129-.273.049-.029.194.002.21.041.027.067.013.19-.035.236-.04.039-.153.002-.304-.004Z" fill="#fff"/>
              <path d="M145.428,232.119c-.063.137-.079.248-.134.274-.061.028-.158-.024-.239-.04.02-.081.016-.191.067-.233.048-.039.155-.004.306,0Z" fill="#fff"/>
              <path d="M153.277,224.923c.048-.109.064-.219.109-.233.066-.02.153.03.231.051-.025.077-.03.178-.083.223-.035.03-.138-.019-.257-.042Z" fill="#fff"/>
              <path d="M155.929,227.508c-.113-.059-.223-.083-.236-.132-.017-.066.041-.151.066-.228.07.029.171.039.201.091.029.051-.013.144-.031.27Z" fill="#fff"/>
              <path d="M147.402,230.009c.109.041.209.05.226.093.024.061-.012.145-.023.22-.072-.021-.163-.023-.208-.07-.032-.033,0-.127.005-.242Z" fill="#fff"/>
              <path d="M149.149,229.558c.105.042.187.052.224.098.023.028-.012.155-.041.162-.059.015-.146-.002-.192-.041-.028-.024.001-.113.008-.219Z" fill="#fff"/>
            </g>
            <g>
              <path d="M172.63,228.029c-.192.786-1.006,1.005-1.47.812-.553-.23-.853-.835-.661-1.385.202-.58.826-.883,1.411-.683.094.032.183.08.276.114.789.293.82.37.444,1.141Z" fill="#fff"/>
              <path d="M160.49,215.623c.499.219.727.794.517,1.302-.221.534-.813.768-1.33.526-.487-.228-.709-.822-.492-1.317.216-.494.813-.728,1.305-.511Z" fill="#fff"/>
              <path d="M160.124,227.574c.417.187.539.567.338,1.048-.194.464-.711.68-1.153.482-.429-.192-.614-.697-.415-1.134.209-.459.721-.624,1.23-.396Z" fill="#fff"/>
              <path d="M161.489,233.603c-.425-.202-.6-.679-.401-1.091.198-.408.689-.576,1.106-.379.451.214.653.712.454,1.122-.2.413-.703.564-1.159.348Z" fill="#fff"/>
              <path d="M167.702,223.231c.416.185.613.678.435,1.092-.18.42-.671.61-1.09.423-.426-.19-.613-.663-.43-1.089.184-.429.658-.615,1.085-.426Z" fill="#fff"/>
              <path d="M171.926,235.753c.39.189.547.678.344,1.07-.193.373-.645.529-1.029.355-.406-.184-.571-.648-.376-1.054.191-.398.664-.563,1.061-.37Z" fill="#fff"/>
              <path d="M155.295,217.298c.189-.385.627-.538,1.019-.357.408.188.571.652.369,1.055-.191.381-.638.539-1.023.36-.406-.189-.566-.65-.366-1.057Z" fill="#fff"/>
              <path d="M167.138,235.86c-.365-.178-.518-.59-.342-.923.182-.345.645-.502.992-.335.357.172.495.569.324.93-.177.372-.594.513-.973.328Z" fill="#fff"/>
              <path d="M163.653,213.387c.105.049.216.087.313.149.298.19.386.459.205.766-.184.31-.471.346-.774.181-.158-.086-.288-.223-.444-.314-.287-.167-.415-.396-.254-.701.164-.312.433-.319.724-.173.074.037.15.07.225.106.002-.004.004-.008.006-.013Z" fill="#fff"/>
              <path d="M155.014,230.319c-.36-.157-.534-.569-.384-.908.152-.343.623-.513.978-.354.334.151.498.6.338.93-.164.34-.576.486-.933.331Z" fill="#fff"/>
              <path d="M175.767,217.145c.169-.399.527-.581.877-.446.329.127.496.54.355.879-.141.342-.833.611-1.165.454-.262-.124-.282-.382-.068-.887Z" fill="#fff"/>
              <path d="M177.108,222.453c-.346-.172-.487-.599-.292-.942.203-.359.517-.465.897-.307.365.152.503.566.329.925-.173.356-.583.499-.933.324Z" fill="#fff"/>
              <path d="M171.538,212.674c.33.172.464.618.288.958-.179.346-.555.468-.893.289-.343-.181-.479-.609-.302-.947.168-.321.595-.462.906-.3Z" fill="#fff"/>
              <path d="M163.593,218.667c.153-.328.562-.486.89-.343.344.15.493.588.317.934-.166.328-.575.469-.897.31-.32-.158-.463-.573-.31-.901Z" fill="#fff"/>
              <path d="M171.798,222.173c-.173.27-.44.389-.785.24-.316-.136-.468-.553-.304-.845.181-.321.47-.417.809-.282.314.125.45.542.28.887Z" fill="#fff"/>
              <path d="M156.556,222.146c-.261.052-.544.193-.779.136-.35-.085-.417-.422-.281-.736.14-.324.459-.465.742-.289.2.125.282.441.416.671l-.099.217Z" fill="#fff"/>
              <path d="M164.539,227.992c.393-.115.628-.244.843-.216.085.011.218.398.166.563-.092.291-.375.388-.649.204-.122-.082-.177-.262-.36-.55Z" fill="#fff"/>
              <path d="M158.164,226.722c-.054-.342-.165-.578-.09-.701.079-.131.335-.155.513-.225.065.181.216.39.169.535-.045.138-.297.208-.592.392Z" fill="#fff"/>
              <path d="M160.255,221.149c.052.317.156.532.088.649-.071.122-.305.15-.468.219-.068-.177-.211-.37-.178-.526.024-.115.279-.181.558-.342Z" fill="#fff"/>
              <path d="M162.341,210.681c.053.337.159.564.087.67-.08.118-.337.193-.487.159-.088-.02-.201-.323-.155-.439.053-.134.271-.202.555-.39Z" fill="#fff"/>
              <path d="M165.997,217.887c.324-.043.544-.139.653-.067.117.078.13.313.189.479-.168.058-.362.195-.497.151-.122-.04-.18-.277-.345-.562Z" fill="#fff"/>
              <path d="M169.233,218.589c.287-.056.484-.158.587-.098.108.064.207.317.161.422-.046.105-.298.204-.42.168-.114-.033-.174-.247-.328-.493Z" fill="#fff"/>
              <path d="M154.681,225.033c.289-.05.475-.141.592-.085.101.049.208.323.16.391-.082.118-.299.228-.428.2-.108-.024-.17-.251-.324-.506Z" fill="#fff"/>
              <path d="M154.684,222.288c-.295.046-.496.141-.598.077-.112-.07-.133-.286-.194-.439.155-.055.332-.182.457-.143.116.036.176.251.335.505Z" fill="#fff"/>
              <path d="M175.119,227.393c.231-.04.432-.133.503-.073.104.088.116.286.168.437-.155.043-.327.145-.459.107-.088-.025-.119-.249-.212-.47Z" fill="#fff"/>
              <path d="M173.746,234.588c-.025-.251-.106-.458-.039-.533.089-.1.294-.098.449-.14.029.146.122.325.069.43-.053.105-.252.136-.479.243Z" fill="#fff"/>
              <path d="M160.32,223.245c.051.226.145.401.094.474-.074.106-.253.138-.388.202-.043-.141-.14-.295-.111-.42.02-.089.209-.139.405-.257Z" fill="#fff"/>
              <path d="M162.97,225.636c.045.22.118.366.083.477-.022.068-.269.148-.311.109-.089-.081-.156-.243-.142-.36.009-.071.188-.121.37-.226Z" fill="#fff"/>
            </g>
            <g>
              <path d="M180.964,206.929c.422.204.447.691.281.93-.197.285-.576.381-.864.206-.303-.185-.399-.574-.215-.881.03-.049.067-.094.098-.142.261-.411.308-.419.699-.113Z" fill="#fff"/>
              <path d="M172.474,212.291c.184-.255.538-.315.799-.134.275.19.336.553.137.816-.188.248-.551.301-.805.118-.253-.182-.313-.548-.131-.8Z" fill="#fff"/>
              <path d="M179.189,213.948c.156-.213.386-.236.634-.064.239.166.298.484.133.71-.161.22-.469.263-.692.097-.234-.174-.265-.483-.075-.744Z" fill="#fff"/>
              <path d="M182.765,213.907c-.166.216-.457.257-.666.094-.207-.161-.243-.46-.08-.672.176-.229.482-.283.69-.12.209.163.234.466.056.698Z" fill="#fff"/>
              <path d="M177.652,209.135c.155-.213.458-.264.67-.114.216.153.264.454.107.668-.159.218-.45.266-.668.111-.22-.156-.268-.447-.109-.665Z" fill="#fff"/>
              <path d="M185.248,208.264c.154-.197.45-.227.647-.065.188.154.221.429.076.625-.154.207-.436.245-.642.085-.202-.156-.238-.444-.081-.645Z" fill="#fff"/>
              <path d="M172.791,215.433c-.195-.154-.228-.42-.079-.62.156-.208.438-.244.641-.081.192.154.227.426.08.622-.156.207-.437.241-.642.079Z" fill="#fff"/>
              <path d="M184.727,210.985c-.145.185-.397.221-.564.082-.173-.145-.206-.426-.069-.602.14-.181.382-.211.565-.071.189.145.218.398.068.59Z" fill="#fff"/>
              <path d="M171.592,210.231c.04-.053.076-.112.122-.159.144-.146.307-.163.458-.023.153.142.138.308.009.46-.068.079-.161.136-.232.213-.129.142-.274.187-.428.059-.156-.131-.128-.284-.01-.43.03-.037.058-.076.087-.114l-.006-.005Z" fill="#fff"/>
              <path d="M180.122,217.171c-.132.184-.387.233-.56.107-.176-.128-.215-.415-.081-.596.126-.171.4-.209.567-.079.172.134.205.385.074.568Z" fill="#fff"/>
              <path d="M175.188,203.835c-.205-.144-.265-.369-.146-.55.112-.171.365-.215.54-.094.176.121.245.545.115.714-.102.133-.25.113-.51-.069Z" fill="#fff"/>
              <path d="M178.353,203.72c-.14.175-.398.203-.569.051-.179-.159-.2-.349-.065-.544.13-.188.381-.216.563-.074.181.141.211.39.07.567Z" fill="#fff"/>
              <path d="M172.145,205.684c.137-.166.406-.187.577-.047.174.143.197.371.055.54-.144.172-.403.197-.572.056-.161-.134-.189-.393-.06-.549Z" fill="#fff"/>
              <path d="M174.572,210.905c-.167-.126-.207-.377-.086-.545.127-.176.392-.207.567-.066.165.133.195.382.066.545-.128.162-.38.192-.547.066Z" fill="#fff"/>
              <path d="M177.55,206.689c.132.13.167.296.041.473-.115.162-.37.198-.515.07-.16-.141-.179-.317-.062-.492.109-.163.361-.189.535-.051Z" fill="#fff"/>
              <path d="M175.686,215.308c-.002.154.043.331-.017.457-.091.187-.289.185-.45.07-.166-.118-.207-.316-.073-.455.095-.098.283-.106.43-.154l.111.082Z" fill="#fff"/>
              <path d="M179.961,211.501c-.017-.236-.062-.385-.02-.503.016-.047.252-.075.339-.026.153.087.174.259.037.392-.061.059-.17.069-.355.137Z" fill="#fff"/>
              <path d="M178.47,214.954c-.2-.011-.347.023-.408-.034-.064-.061-.047-.208-.065-.318.11-.015.247-.075.323-.031.073.042.082.193.15.383Z" fill="#fff"/>
              <path d="M175.571,213.095c.185.009.32-.024.378.029.061.055.048.191.067.291-.108.017-.235.075-.319.037-.062-.028-.068-.18-.126-.357Z" fill="#fff"/>
              <path d="M169.903,210.645c.197.011.338-.022.389.032.057.06.068.214.031.295-.022.047-.207.075-.267.034-.069-.046-.081-.178-.153-.361Z" fill="#fff"/>
              <path d="M174.422,209.451c.015-.189-.013-.325.041-.377.058-.057.193-.036.294-.049.012.102.066.228.025.299-.038.064-.179.069-.36.127Z" fill="#fff"/>
              <path d="M175.212,207.705c.003-.169-.031-.293.016-.344.049-.054.205-.079.258-.04.054.039.079.194.044.258-.033.06-.161.069-.318.126Z" fill="#fff"/>
              <path d="M177.091,216.719c.007-.169-.022-.286.024-.345.04-.051.208-.078.241-.043.057.061.093.197.061.266-.027.058-.163.066-.325.122Z" fill="#fff"/>
              <path d="M175.539,216.384c-.009.172.02.298-.029.348-.053.055-.178.041-.272.057-.012-.094-.063-.21-.025-.276.035-.061.163-.069.326-.128Z" fill="#fff"/>
              <path d="M180.906,205.444c.005-.136-.023-.26.02-.294.062-.048.176-.031.267-.042.005.093.042.203.005.273-.025.047-.156.037-.292.063Z" fill="#fff"/>
              <path d="M184.81,207.093c-.145-.016-.272.005-.306-.042-.046-.063-.02-.178-.025-.271.086.001.198-.03.252.013.053.042.046.159.079.3Z" fill="#fff"/>
              <path d="M176.765,213.312c.134-.001.244-.034.28.004.051.055.048.16.067.244-.085.007-.184.043-.251.012-.048-.022-.054-.135-.096-.26Z" fill="#fff"/>
              <path d="M178.438,212.103c.13,0,.221-.023.28.011.036.021.051.17.024.189-.057.041-.156.059-.221.036-.039-.014-.046-.121-.083-.237Z" fill="#fff"/>
            </g>
          </g>
        </g>
      </g>
    </g>
  </g>
</svg>