<?xml version="1.0" encoding="UTF-8"?>
<svg xmlns="http://www.w3.org/2000/svg" width="300" height="300" xmlns:xlink="http://www.w3.org/1999/xlink" viewBox="0 0 300 300">
  <defs>
    <filter id="b" data-name="drop-shadow-2" x="103.197" y="24.761" width="41.317" height="43.143" filterUnits="userSpaceOnUse">
      <feOffset dx="-1.219" dy="0"/>
      <feGaussianBlur result="c" stdDeviation="0"/>
      <feFlood flood-color="#42496f" flood-opacity="1"/>
      <feComposite in2="c" operator="in"/>
      <feComposite in="SourceGraphic"/>
    </filter>
    <clipPath id="d">
      <path d="M144.514,50.906s-3.091,3.066-4.546,4.684c1.679-2.02,3.574-6.701,2.588-7.271-.986-.569-5.053,3.573-7.286,5.726.632-.885.981-1.969.984-3.057-.833.361-1.561.963-2.073,1.713.035-.285.071-.571.106-.857-.339.321-.678.642-1.017.963.385-1.135.45-2.376.187-3.545-.133-.588-.374-1.194-.868-1.538-.957-.666-2.287-.028-3.123.785-1.581,1.539-2.47,3.637-3.278,5.69-.124-.95-1.143-2.595-1.143-2.595,0,0-.473,1.174-.412,1.796-.147-.104-.389.044-.363.223-.866-2.798-5.289-5.306-6.391-5.306s-.121,1.121.075,1.659c.59,1.622,1.324,3.191,2.19,4.684-.593-.67-1.331-1.21-2.148-1.575-.069.488.049.999.323,1.408-.969-.894-1.948-1.779-2.972-2.61-1.608-1.304-4.597-2.463-5.639-1.862-1.042.601,2.542,3.483,4.129,4.936-.433-.279-.911-.487-1.411-.614-.023.22.112.447.316.533-2.283-1.229-4.759-2.498-7.333-2.177-.31.039-.643.116-.838.36-.347.434-.049,1.071.277,1.521,1.79,2.465,4.314,4.282,6.793,6.054-.479-.245-1.096-.191-1.525.134.958,1.078,2.369,1.669,3.791,1.909,1.422.239,21.108.076,21.108.076,2.072-.228,3.955-1.391,5.411-2.883,1.456-1.493,2.534-3.305,3.555-5.123-1.062.494-2.032,1.185-2.846,2.027,1.706-1.535,3.379-5.868,3.379-5.868Z" fill="none"/>
    </clipPath>
  </defs>
  <g isolation="isolate">
    <g id="a" data-name="bateau 04">
      <g filter="url(#b)">
        <g>
          <path d="M110.344,46.937h27.37v.315c0,7.553-6.132,13.685-13.685,13.685h0c-7.553,0-13.685-6.132-13.685-13.685v-.315h0Z" fill="#9bc8ec"/>
          <path d="M135.197,29.673c0,1.976-3.213,1.341-3.331,3.308s-2.484,6.391-3.826-3.308c-.271-1.958,1.602-3.579,3.579-3.579s3.579,1.602,3.579,3.579Z" fill="#9bc8ec"/>
          <path d="M131.736,31.285h-2.972c0,6.724,4.757,10.46,4.757,15.651h4.192c0-5.191-5.977-8.927-5.977-15.651Z" fill="#9bc8ec"/>
          <path d="M137.714,46.937c0-4.748-4.987-8.285-5.841-13.999.165-1.91,3.324-1.304,3.324-3.265,0-1.976-1.602-3.579-3.579-3.579s-3.849,1.621-3.578,3.579c.318,2.296.693,3.794,1.082,4.727,1.099,4.883,4.399,8.207,4.399,12.536h-23.177v.315c0,7.558,6.127,13.685,13.685,13.685s13.685-6.127,13.685-13.685v-.315h0Z" fill="#fff" opacity=".8"/>
          <path d="M106.241,41.65c-.344.382.892,2.214,2.633,3.522-1.802-1.404-3.405-3.125-3.829-2.81-.367.273.968,1.967,2.273,3.388-1.139-1.151-2.488-2.181-2.697-1.945-.247.279,1.007,2.264,1.814,3.209,2.107,2.47,4.691,4.533,7.567,6.04-.509-.989-1.018-1.978-1.527-2.966.465.458,1.168.659,1.805.517-.762-.557-1.333-1.744-1.103-2.003s.559.026.785.189c-.17-.213-.293-.45-.232-.706.084-.355.497-.55.861-.515.363.034.686.238.993.435-.273-.245-.137-.74.176-.93.286-.173.644-.152.973-.074-4.083-1.305-10.166-5.713-10.492-5.351Z" fill="#42496f"/>
          <path d="M143.999,28.859c.193-.054.16-.338-.04-.34-2.334-.031-7.421-.106-9.034-.201-1.142,0-3.192,2.968-2.445,3.538.218.167,8.438-2.128,11.519-2.997Z" fill="#e86170"/>
          <path d="M131.442,28.433s-.103,1.456.785,1.363.641-1.363.641-1.363" fill="none" stroke="#42496f" stroke-linecap="round" stroke-linejoin="round" stroke-width=".305"/>
          <line x1="131.438" y1="28.635" x2="130.796" y2="28.53" fill="none" stroke="#42496f" stroke-linecap="round" stroke-linejoin="round" stroke-width=".305"/>
          <line x1="131.494" y1="29.117" x2="130.796" y2="29.234" fill="none" stroke="#42496f" stroke-linecap="round" stroke-linejoin="round" stroke-width=".305"/>
          <circle cx="130.249" cy="30.39" r=".896" fill="#e86170" opacity=".25"/>
          <path d="M129.083,27.211s2.416-1.238,1.713-2.45l-.905,1.616s-.051-1.162-.808-1.212c0,0,.682,1.179,0,2.046Z" fill="#9bc8ec"/>
        </g>
        <path d="M144.514,50.906s-3.091,3.066-4.546,4.684c1.679-2.02,3.574-6.701,2.588-7.271-.986-.569-5.053,3.573-7.286,5.726.632-.885.981-1.969.984-3.057-.833.361-1.561.963-2.073,1.713.035-.285.071-.571.106-.857-.339.321-.678.642-1.017.963.385-1.135.45-2.376.187-3.545-.133-.588-.374-1.194-.868-1.538-.957-.666-2.287-.028-3.123.785-1.581,1.539-2.47,3.637-3.278,5.69-.124-.95-1.143-2.595-1.143-2.595,0,0-.473,1.174-.412,1.796-.147-.104-.389.044-.363.223-.866-2.798-5.289-5.306-6.391-5.306s-.121,1.121.075,1.659c.59,1.622,1.324,3.191,2.19,4.684-.593-.67-1.331-1.21-2.148-1.575-.069.488.049.999.323,1.408-.969-.894-1.948-1.779-2.972-2.61-1.608-1.304-4.597-2.463-5.639-1.862-1.042.601,2.542,3.483,4.129,4.936-.433-.279-.911-.487-1.411-.614-.023.22.112.447.316.533-2.283-1.229-4.759-2.498-7.333-2.177-.31.039-.643.116-.838.36-.347.434-.049,1.071.277,1.521,1.79,2.465,4.314,4.282,6.793,6.054-.479-.245-1.096-.191-1.525.134.958,1.078,2.369,1.669,3.791,1.909,1.422.239,21.108.076,21.108.076,2.072-.228,3.955-1.391,5.411-2.883,1.456-1.493,2.534-3.305,3.555-5.123-1.062.494-2.032,1.185-2.846,2.027,1.706-1.535,3.379-5.868,3.379-5.868Z" fill="#ffd66e"/>
        <g clip-path="url(#d)">
          <g mix-blend-mode="multiply" opacity=".25">
            <path d="M133.653,63.574c2.597-1.276,4.941-3.066,6.856-5.236.379-.429.764-.959.65-1.519-2.145,1.345-4.179,2.865-6.075,4.542,1.893-1.821,3.898-3.857,4.214-6.465-1.8,1.632-3.445,3.435-4.907,5.376,1.488-1.61,3.044-3.356,3.378-5.523-1.673,1.708-3.261,3.498-4.759,5.361.555-1.075,1.128-2.254.901-3.442-.404-.098-.728.322-.932.685-.623,1.111-1.246,2.223-1.87,3.334.355-.955.551-1.968.578-2.985-.787.707-1.249,1.697-1.691,2.659.733-1.788.87-3.815.384-5.685-.09-.347-.282-.755-.64-.769-.279-.011-.496.232-.648.466-1.196,1.837-1.046,4.259-2.004,6.23-.188-.864-.377-1.729-.565-2.593-.048-.221-.13-.48-.348-.541-.357-.101-.554.402-.579.772-.075,1.093-.15,2.187-.224,3.28-.253-.922-.505-1.843-.758-2.765-.093-.339-.369-.769-.682-.609.111.93.222,1.86.333,2.79-.544-2.367-1.256-4.979-3.317-6.264-.351.205-.311.716-.226,1.113.329,1.529.659,3.058.988,4.587-.914-1.071-1.828-2.143-2.742-3.214.298,1.505.859,2.958,1.649,4.273-.873-1.386-1.893-2.68-3.038-3.851.374.93.905,1.796,1.563,2.552-1.05-1.782-2.329-3.429-3.795-4.888-.471-.468-1.042-.948-1.705-.905,1.009,2.311,2.305,4.496,3.849,6.49-1.218-1.358-2.512-2.768-4.236-3.365.544,1.073,1.245,2.067,2.072,2.941-.985-.947-2.14-1.717-3.393-2.262.263.64.741,1.189,1.339,1.536-.317-.067-.572-.298-.869-.429s-.722-.113-.857.182c-.077.168-.03.364.029.539.388,1.133,1.302,2.073,2.424,2.491-.249-.069-.486.205-.481.463s.169.484.332.685c1.657,2.044,3.951,3.565,6.479,4.295" fill="#f4af13"/>
          </g>
        </g>
      </g>
    </g>
  </g>
</svg>