<?xml version="1.0" encoding="UTF-8"?>
<svg id="a" data-name="bateau 06" xmlns="http://www.w3.org/2000/svg" width="300" height="300" xmlns:xlink="http://www.w3.org/1999/xlink" viewBox="0 0 300 300">
  <defs>
    <filter id="b" data-name="drop-shadow-1" x="178.719" y="94.815" width="73.492" height="96.688" filterUnits="userSpaceOnUse">
      <feOffset dx="-1.219" dy="0"/>
      <feGaussianBlur result="c" stdDeviation="0"/>
      <feFlood flood-color="#42496f" flood-opacity="1"/>
      <feComposite in2="c" operator="in"/>
      <feComposite in="SourceGraphic"/>
    </filter>
    <clipPath id="d">
      <path d="M218.942,125.252l5.102-29.024c.144-.817.853-1.413,1.683-1.413h0c.944,0,1.709.765,1.709,1.709v28.728h-8.494Z" fill="none"/>
    </clipPath>
  </defs>
  <g filter="url(#b)">
    <path d="M218.942,125.252l5.102-29.024c.144-.817.853-1.413,1.683-1.413h0c.944,0,1.709.765,1.709,1.709v28.728h-8.494Z" fill="#ffd66e"/>
    <g clip-path="url(#d)">
      <g>
        <path d="M228.02,124.116s-5.629-1.305-8.346-7.619" fill="none" stroke="#f4af13" stroke-linecap="round" stroke-linejoin="round" stroke-width=".61"/>
        <path d="M228.252,116.496c-1.415-.048-5.595-2.479-7.407-6.689" fill="none" stroke="#f4af13" stroke-linecap="round" stroke-linejoin="round" stroke-width=".61"/>
        <path d="M228.485,108.877c-2.831-.097-5.562-3.653-6.468-5.758" fill="none" stroke="#f4af13" stroke-linecap="round" stroke-linejoin="round" stroke-width=".61"/>
        <path d="M228.718,101.258c-4.246-.145-5.529-4.827-5.529-4.827" fill="none" stroke="#f4af13" stroke-linecap="round" stroke-linejoin="round" stroke-width=".61"/>
      </g>
    </g>
    <path d="M201.837,191.503c10.404-8.741,10.617-33.455,16.161-37.938,3.347-2.706,15.118-4.81,23.924-6.053,5.902-.833,10.288-5.876,10.288-11.836h0c0-6.369-4.993-11.619-11.354-11.938l-22.544-1.132c-4.807-.241-9.051,3.106-9.933,7.838-1.303,6.991-3.065,16.373-3.733,19.582-1.113,5.349-7.926,22.934-24.638,27.801,0,0-2.473,13.677,21.828,13.677Z" fill="#efa78e"/>
    <path d="M244.391,124.463c-4.697,2.248-7.95,7.031-7.95,12.585,0,4.221,1.881,7.996,4.842,10.555.212-.03.43-.063.639-.092,5.902-.833,10.288-5.876,10.288-11.836h0c0-3.464-1.479-6.595-3.851-8.782-1.139-1.05-2.483-1.883-3.969-2.43Z" fill="#ffd66e"/>
    <g>
      <g>
        <path d="M243.244,131.386c-.167,0-.326.036-.472.095.46.187.786.636.786,1.163v6.292c0,.528-.326.976-.786,1.163.146.06.304.095.472.095.695,0,1.258-.563,1.258-1.258v-6.292c0-.695-.563-1.259-1.258-1.259Z" fill="#f4af13"/>
        <path d="M243.559,138.936v-6.292c0-.528-.326-.976-.786-1.163-.46.187-.786.636-.786,1.163v6.292c0,.528.326.976.786,1.163.46-.187.786-.635.786-1.163Z" fill="#42496f"/>
      </g>
      <g>
        <path d="M247.963,131.386c-.167,0-.326.036-.472.095.46.187.786.636.786,1.163v6.292c0,.528-.326.976-.786,1.163.146.06.304.095.472.095.695,0,1.258-.563,1.258-1.258v-6.292c0-.695-.563-1.259-1.258-1.259Z" fill="#f4af13"/>
        <path d="M248.278,138.936v-6.292c0-.528-.326-.976-.786-1.163-.46.187-.786.636-.786,1.163v6.292c0,.528.326.976.786,1.163.46-.187.786-.635.786-1.163Z" fill="#42496f"/>
      </g>
    </g>
    <path d="M221.616,142.161s-1.213-9.674,2.595-10.382,5.663,8.022,5.663,8.022" fill="none" stroke="#42496f" stroke-linecap="round" stroke-linejoin="round" stroke-width=".914"/>
    <line x1="221.432" y1="140.745" x2="215.639" y2="140.195" fill="none" stroke="#42496f" stroke-linecap="round" stroke-linejoin="round" stroke-width=".914"/>
    <line x1="216.074" y1="136.577" x2="221.466" y2="137.6" fill="none" stroke="#42496f" stroke-linecap="round" stroke-linejoin="round" stroke-width=".914"/>
    <circle cx="216.683" cy="145.152" r="2.991" fill="#e86170" opacity=".5"/>
    <path d="M217.644,125.851s-6.774-.621-6.205-10.549c6.102,1.758,6.205,8.067,6.205,10.549Z" fill="#efa78e"/>
    <path d="M223.146,116.012c-1.796.758-3.751,1.028-5.666,1.39-1.915.362-3.861.843-5.466,1.949s-2.818,2.963-2.665,4.906l.511.386c-.121.705.391,1.399,1.034,1.715s1.385.337,2.101.334c3.402-.015,7.186-.655,9.252-3.358,1.799-2.354,1.766-5.541,2.319-8.474-.249.522-.853.913-1.42,1.152Z" fill="#e86170"/>
    <path d="M209.013,126.577l.183-1.74c-2.06-.391-4.227.501-5.712,1.981-1.485,1.481-2.358,3.48-2.854,5.518-.322,1.326-.499,2.7-.368,4.058.124,1.282.52,2.526.652,3.807.304,2.941-.888,5.998-3.102,7.957,2.919-.05,5.805-1.221,7.933-3.219,2.129-1.998,3.48-4.804,3.714-7.714.286-3.551-1.025-7.132-.448-10.647Z" fill="#e86170"/>
    <path d="M211.038,130.03s-7.727-.708-7.078-12.033c6.96,2.006,7.078,9.202,7.078,12.033Z" fill="#efa78e"/>
    <path d="M211.491,129.748s-3.498-.421-4.329-7.154c3.286,1.192,4.049,5.471,4.329,7.154Z" fill="#ffd66e"/>
    <path d="M204.739,138.928l-1.914.578c-.632,2.569-1.309,5.13-2.029,7.681-.31,1.097-.629,2.196-1.085,3.253-2.009,4.667-6.798,8.323-12.326,9.411,4.517,1.041,9.533,2.04,13.668.13,3.893-1.798,5.922-5.828,6.121-9.697.199-3.869-1.125-7.659-2.434-11.356Z" fill="#e86170"/>
    <path d="M199.82,155.693l1.064-.835c-1.281-.159-2.553.49-3.467,1.402-.914.911-1.537,2.066-2.176,3.187-1.621,2.845-3.429,5.588-5.482,8.139-1.497,1.859-3.161,3.645-5.247,4.806-1.011.563-2.138.957-3.284,1.121,1.1.325,2.195.757,3.295,1.052,4.969,1.336,10.659-.427,13.924-4.404,3.265-3.976,3.868-9.97,1.372-14.469Z" fill="#e86170"/>
  </g>
</svg>