<?xml version="1.0" encoding="UTF-8"?>
<svg xmlns="http://www.w3.org/2000/svg" width="300" height="300" xmlns:xlink="http://www.w3.org/1999/xlink" viewBox="0 0 300 300">
  <defs>
    <filter id="b" data-name="drop-shadow-3" x="72.868" y="46.652" width="105.449" height="135.032" filterUnits="userSpaceOnUse">
      <feOffset dx="-1.219" dy="0"/>
      <feGaussianBlur result="c" stdDeviation="0"/>
      <feFlood flood-color="#42496f" flood-opacity="1"/>
      <feComposite in2="c" operator="in"/>
      <feComposite in="SourceGraphic"/>
    </filter>
  </defs>
  <g isolation="isolate">
    <g id="a" data-name="bateau 01">
      <g filter="url(#b)">
        <path d="M135.324,181.684s-5.916-81.718-16.385-133.877c-.136-.677-.731-1.156-1.421-1.156h0c-.872,0-1.547.758-1.437,1.623,1.595,12.536,12.023,94.466,12.023,133.409h7.221Z" fill="#f4af13"/>
        <path d="M132.874,152.798l-5.904.724c.199,2.988.375,5.905.527,8.737,1.959-.668,4.127-1.474,6.027-2.34-.2-2.245-.417-4.621-.65-7.121Z" fill="#42496f"/>
        <g>
          <path d="M173.428,155.644c-28.878,0-57.756,0-86.635,0,.684-27.046-2.118-52.238-8.431-78.542,28.878,0,57.756,0,86.635,0,6.312,26.304,9.114,51.496,8.431,78.542Z" fill="#6498d1"/>
          <g>
            <path d="M120.214,136.087c-3.041-10.86-8.595-24.998-5.4-34.774,2.465-7.54,12.586-7.048,17.198-.854,0,0,.407-3.7,2.13-3.985,1.724-.284,5.256,5.622,3.787,7.118-1.469,1.496-7.115,1.424-13.394-.57-6.279-1.994-.521,14.927.074,16.68,1.671,4.92,1.271-3.592,5.431-3.9,4.16-.307,9.105.049,9.068,1.047-.037.998-9.066,1.499-8.504,8.27.562,6.77,4.108,10.967,4.108,10.967" fill="none" stroke="#42496f" stroke-linecap="round" stroke-linejoin="round" stroke-width="1.219"/>
            <path d="M121.311,95.523s-3.568-1.242-7.007-1.294c-.752-.011-.969.886-.338,1.416.868.73,1.301,1.095,2.165,1.825,0,0-5.772,2.354-7.648,6.162-.249.505.191,1.186.8,1.263,1.614.205,2.421.307,4.034.512,0,0-1.883,4.364-1.664,8.221.027.486.448.901.933.901h1.495" fill="none" stroke="#42496f" stroke-linecap="round" stroke-linejoin="round" stroke-width="1.219"/>
            <path d="M123.168,99.007c0,.047-.012.091-.004.141.082.468.527.847.994.847.427,0,.709-.322.695-.733-.674-.102-1.011-.153-1.685-.255Z" fill="none" stroke="#42496f" stroke-linecap="round" stroke-linejoin="round" stroke-width="1.219"/>
            <path d="M121.23,98.713c1.747.264,2.621.397,4.367.661" fill="none" stroke="#42496f" stroke-linecap="round" stroke-linejoin="round" stroke-width="1.219"/>
            <path d="M133.026,115.697c-.307-2.791.652-5.756,4.059-5.756,6.991,0,4.622,11.587,7.554,11.528,2.932-.059.937-3.182,2.64-3.182s1.858,5.774-3.015,5.774c-4.873,0-3.281-9.122-5.495-9.534-1.533-.286-1.724,1.424-1.724,1.424" fill="none" stroke="#42496f" stroke-linecap="round" stroke-linejoin="round" stroke-width="1.219"/>
            <path d="M139.382,107.064s8.175,1.526,9.065-1.383c.89-2.91-1.231-6.18-1.231-6.18-.233,1.06-.352,1.59-.595,2.651-1.101-.926-1.653-1.389-2.763-2.315,0,0,1.474,3.594.541,4.558-.933.964-5.017,2.669-5.017,2.669Z" fill="none" stroke="#42496f" stroke-linecap="round" stroke-linejoin="round" stroke-width="1.219"/>
            <path d="M134.723,99.994c.263.544.393.816.653,1.36" fill="none" stroke="#42496f" stroke-linecap="round" stroke-linejoin="round" stroke-width="1.219"/>
          </g>
          <path d="M95.689,77.102c6.313,26.304,9.115,51.496,8.431,78.542" fill="none" mix-blend-mode="multiply" opacity=".5" stroke="#9bc8ec" stroke-miterlimit="10" stroke-width="1.219"/>
          <path d="M113.016,77.102c6.313,26.304,9.115,51.496,8.431,78.542" fill="none" mix-blend-mode="multiply" opacity=".5" stroke="#9bc8ec" stroke-miterlimit="10" stroke-width="1.219"/>
          <path d="M130.343,77.102c6.313,26.304,9.115,51.496,8.431,78.542" fill="none" mix-blend-mode="multiply" opacity=".5" stroke="#9bc8ec" stroke-miterlimit="10" stroke-width="1.219"/>
          <path d="M147.67,77.102c6.313,26.304,9.115,51.496,8.431,78.542" fill="none" mix-blend-mode="multiply" opacity=".5" stroke="#9bc8ec" stroke-miterlimit="10" stroke-width="1.219"/>
          <path d="M173.428,155.644c-28.878,0-57.756,0-86.635,0,.566-9.88.46-20.063-.296-29.929,22.933,19.088,58.129,24.026,87.115,25.531-.058,1.761-.095,2.641-.185,4.398Z" fill="#a384bb" mix-blend-mode="multiply" opacity=".25"/>
        </g>
        <rect x="83.066" y="154.167" width="95.251" height="2.955" rx="1.478" ry="1.478" fill="#f4af13"/>
        <rect x="74.087" y="75.625" width="95.251" height="2.955" rx="1.478" ry="1.478" fill="#f4af13"/>
      </g>
    </g>
  </g>
</svg>