<?xml version="1.0" encoding="UTF-8"?><svg xmlns="http://www.w3.org/2000/svg" xmlns:xlink="http://www.w3.org/1999/xlink" viewBox="0 0 300 300"><defs><style>.cls-1{fill:#ffd66e;}.cls-2{fill:#f4af13;}.cls-3{fill:#e86170;}.cls-4{isolation:isolate;}.cls-5{fill:#a384bb;mix-blend-mode:multiply;opacity:.25;}.cls-6{stroke:#9bc8ec;}.cls-6,.cls-7{fill:none;stroke-miterlimit:10;stroke-width:.61px;}.cls-7{stroke:#336a9b;}.cls-8{filter:url(#drop-shadow-3);}</style><filter id="drop-shadow-3" x="53.48" y="46.65" width="155.31" height="144.07" filterUnits="userSpaceOnUse"><feOffset dx="-1.22" dy="0"/><feGaussianBlur result="blur" stdDeviation="0"/><feFlood flood-color="#42496f" flood-opacity="1"/><feComposite in2="blur" operator="in"/><feComposite in="SourceGraphic"/></filter></defs><g class="cls-4"><g id="bateau_06"><g class="cls-8"><path class="cls-3" d="M121.56,73.98s-31.31,58.06-61.24,83.7h70.62l-9.37-83.7Z"/><path class="cls-5" d="M121.56,73.98s-14.34,62.13-41.71,82.42l51.08,1.28-9.37-83.7Z"/><path class="cls-1" d="M56.49,155.88h73.38v3.6H56.49c-.99,0-1.8-.81-1.8-1.8h0c0-.99.81-1.8,1.8-1.8Z"/><path class="cls-1" d="M135.32,181.68s-5.92-81.72-16.39-133.88c-.14-.68-.73-1.16-1.42-1.16h0c-.87,0-1.55.76-1.44,1.62,1.59,12.54,12.02,94.47,12.02,133.41h7.22Z"/><line class="cls-7" x1="116.09" y1="159.47" x2="93.39" y2="190.54"/><path class="cls-3" d="M121.1,71.01s45.49,44.95,83.51,88.46c0,0-40.53-4.56-94.66,7.97,0,0,17.98-57.59,11.15-96.43Z"/><path class="cls-5" d="M204.61,159.47s-56.92-39.45-94.66,7.97c0,0,41.83-12.93,94.66-7.97Z"/><rect class="cls-2" x="106.98" y="168.43" width="2.2" height="3.73" rx="1.1" ry="1.1" transform="translate(120.45 -31.02) rotate(35.92)"/><line class="cls-6" x1="204.65" y1="159.47" x2="208.55" y2="164.35"/></g></g></g></svg>