<?xml version="1.0" encoding="UTF-8"?><svg id="bateau_03" xmlns="http://www.w3.org/2000/svg" xmlns:xlink="http://www.w3.org/1999/xlink" viewBox="0 0 300 300"><defs><style>.cls-1{filter:url(#drop-shadow-2);}.cls-2{fill:#fff;}.cls-3{fill:#e86170;}.cls-4{stroke:#42496f;stroke-linecap:round;stroke-linejoin:round;stroke-width:.91px;}.cls-4,.cls-5,.cls-6{fill:none;}.cls-6{stroke:#ffd66e;stroke-miterlimit:10;stroke-width:3.66px;}.cls-7{clip-path:url(#clippath);}</style><filter id="drop-shadow-2" x="115.54" y="45.43" width="45.09" height="27.86" filterUnits="userSpaceOnUse"><feOffset dx="-1.22" dy="0"/><feGaussianBlur result="blur" stdDeviation="0"/><feFlood flood-color="#42496f" flood-opacity="1"/><feComposite in2="blur" operator="in"/><feComposite in="SourceGraphic"/></filter><clipPath id="clippath"><path class="cls-5" d="M156.53,69.71c-10.84-1.87-16.25,1.29-27.09,2.32-1.02-8.93-1.53-13.41-2.56-22.4,10.84-.47,16.25-3.73,27.09-2.82,1.02,9.12,1.53,13.69,2.56,22.9Z"/></clipPath></defs><g class="cls-1"><path class="cls-3" d="M156.53,69.71c-10.84-1.87-16.25,1.29-27.09,2.32-1.02-8.93-1.53-13.41-2.56-22.4,10.84-.47,16.25-3.73,27.09-2.82,1.02,9.12,1.53,13.69,2.56,22.9Z"/><g class="cls-7"><path class="cls-6" d="M126.89,49.63c9.91,6.74,20.71,11.95,29.65,20.08"/><path class="cls-6" d="M129.44,72.03c8.11-8.46,15.67-17.5,24.53-25.22"/><path class="cls-2" d="M124.38,68c3.73-2.74,5.6-4.41,9.34-7.8-4.37-2.15-6.56-3.25-10.93-6.36.64,5.68.96,8.51,1.6,14.16Z"/><path class="cls-2" d="M160.63,66.52c-4.37-4.32-6.56-5.84-10.93-8.51,3.73-2.95,5.6-4.28,9.34-6.07.64,5.81.96,8.73,1.6,14.58Z"/></g><path class="cls-4" d="M127.14,53.27c-4.46.34-6.68.32-11.14-1.02"/><path class="cls-4" d="M129.18,71.14c-4.5.64-6.75.83-11.25-.03"/></g></svg>