<?xml version="1.0" encoding="UTF-8"?>
<svg xmlns="http://www.w3.org/2000/svg" width="300" height="300" xmlns:xlink="http://www.w3.org/1999/xlink" viewBox="0 0 300 300">
  <defs>
    <clipPath id="b">
      <path d="M153.818,137.261H41.882v92.758c1.89.35,3.973.545,6.164.545,5.076,0,9.57-1.043,12.415-2.649.138-.006.275-.012.413-.018,1.532,1.617,3.964,2.668,6.71,2.668s5.18-1.051,6.712-2.67c1.956,1.618,5.059,2.67,8.566,2.67,2.89,0,5.507-.714,7.435-1.87,2.251,1.156,5.308,1.87,8.683,1.87,2.909,0,5.578-.533,7.704-1.418.523.885,1.18,1.418,1.895,1.418.705,0,1.352-.518,1.871-1.38,2.11.862,4.742,1.38,7.607,1.38,3.747,0,7.1-.881,9.394-2.269,1.964,1.388,4.835,2.269,8.044,2.269,2.976,0,5.668-.755,7.61-1.972,2.268,1.217,5.412,1.972,8.888,1.972.622,0,1.226-.036,1.824-.083v-93.22Z" fill="none"/>
    </clipPath>
    <filter id="c" data-name="drop-shadow-1" x="71.111" y="181.943" width="50.832" height="58.048" filterUnits="userSpaceOnUse">
      <feOffset dx="-1.219" dy="0"/>
      <feGaussianBlur result="d" stdDeviation="0"/>
      <feFlood flood-color="#42496f" flood-opacity="1"/>
      <feComposite in2="d" operator="in"/>
      <feComposite in="SourceGraphic"/>
    </filter>
    <clipPath id="e">
      <path d="M104.609,233.514c4.011-11.561-5.191-28.962-2.949-35.628,2.241-6.665,11.384-16.398,13.095-15.926s3.185,3.716,1.298,6.724c-1.888,3.008-4.247,9.084-4.129,14.275.118,5.191,7.427,8.634,8.612,16.752.778,5.332-.944,13.449-.944,13.449-4.07,3.067-13.626,2.065-14.983.354Z" fill="none"/>
    </clipPath>
    <clipPath id="f">
      <path d="M90.629,229.267c.649-4.011.059-9.792-2.359-12.151-4.795-4.678-11.14-12.95-12.977-12.387-1.651.506-4.542,3.716-1.888,7.904,3.11,4.906,6.076,9.733,5.781,11.443-.295,1.711-1.062,5.663-1.062,5.663,3.008,2.477,9.497,2.713,12.505-.472Z" fill="none"/>
    </clipPath>
    <clipPath id="g">
      <path d="M126.772,670.147c-.714.568-1.284,1.023-1.977,1.575-.003-.058.007.152.018.393-3.196-.319-3.327-2.383-.098-2.884,1.266-.458,1.292-1.73,1.796-3.082-1.457.556-2.442.47-3.814.697.252.876.893.851,1.45,1.442-.481.508-1.165.591-1.771.508-.164-1.022-1.028-2.49.117-3.246,1.081-.446-.186-1.686-.567-2.013-.576.277-1.111.961-.617,1.595.308.467.508.864-.116,1.321-1.184,3.272-3.027-.469-4.858-1.096.043-.188.129-.569.249-1.096-1.736,1.039-.908-3.182-2.925-.821-1.624-1.05-2.16-4.844-4.273-4.346-.195.121-.721-.087-.862-.323-.793-2.584-3.2-3.697-4.05-6.08-.648-1.513-1.976-2.377-3.113-3.449-.105-.152-.742-.109-.861.057-.955,1.197-2.936.12-3.038-1.301-.305-.566-1.47-1.131-1.391-1.989-.993-1.138.043-1.066.753-1.648-.713-.298-.871-.891-.862-1.733.182-.805-1.666-2.151-.396-2.576,1.456-.278.308-1.173.293-2.22-.995,1.425-2.019,2.272-3.674,2.052-.749.61-1.209.199-1.709-.265-1.289-1.414-3.222.461-4.368,1.389.096-3.759-4.685.9-6.54,1.179-.045-1.293-1.546-2.313-2.535-1.037-2.249-.607-2.976-3.952-4.684-5.586-.354-1.535-2.399-1.151-2.496-2.62-.174-1.629-2.3-1.873-2.288-3.673-1.441-.59-1.123-2.543-2.161-3.441-1.784-2.289-6.496-5.151-5.755-8.104.894-.917,0-1.194-.607-1.76-.469-1.012-1.005-.044-1.776-.239,1.881-2.059-1.466-2.334,1.303-5.969.307-.896-.85-.648-1.11-.104-.689,1.234-1.677,1.063-2.634.934-.512-.549-.059-1.924-1.332-1.664-.087-.365-.174-.73-.265-1.114-1.241.3-1.93,1.597-.515,2.208-1.318,1.253-3.583,4.501-4.84,1.678-1.488.342-1.344-2.237-2.996-.947-.081-.699-.146-1.267-.22-1.908-.179.118-.405.268-.633.418-.357-.743-.386-1.794-1.555-1.625-.128-.956-.256-1.902-.401-2.984-.273.4-.459.674-.57.836-1.739-.398-2.103-2.224-3.029-3.533-.095.013-.19.027-.285.04-.063.335-.127.67-.19,1.006-.1-.005-.2-.01-.301-.014.267-3.392-2.866-4.422-3.859-7.278.268-1.007.296-1.422-.313-2.239-.385.414-.736.792-1.218,1.311-.78-.576-.39-2-1.553-1.698-.335-1.357-.028-2.349.869-3.26-.982-1.094,1.552-3.478-.432-3.648-.108.467-.211.908-.313,1.349h-.215c.026-1.112.053-2.223.084-3.524,2.431,1.178,2.282-2.245,2.499-3.943-.967.712-1.639,2.005-2.82,1.039.176.3.352.6.614,1.048-.519.131-.969.245-1.271.321-.347-1.909.465-3.139,1.711-4.501.127.086.294.199.395.268,2.901-4.637,5.805-9.825,10.004-13.792-1.101-.897-1.671-2.744-.22-3.567.661.055,1.365.339,1.709.081.63-.781,1.133-1.841-.331-2.352-.007-1.37,1.816-2.873.508-4.08-.762-.851-.499-2.634-1.967-2.737-1.541-.467-2.351.923-3.668,1.337-1.282-.241-1.534,1.02-2.196,1.866-.778-.443-1.737-.572-2.254-1.223-.354-1.428-1.427-.995-2.579-1.251.279-.295.512-.541.756-.799-1.61-.454-1.243,1.18-.684,1.971-.347.287-.659.544-1.161.959-.146-.998.719-2.27-.491-2.696-2.003-.024-2.094-3.775-4.13-2.353.013-.316.026-.622.039-.933-1.119-.022-1.15-.978-1.739-1.663-2.298-1.886-1.623-1.258-2.3-3.981-.202.134-.39.26-.632.421-.647-.984-1.563-1.132-1.856-2.568-1.328-2.881-5.346-3.058-7.079-5.386-.585.083-1.041.148-1.601.228,1.383-2.045.167-3.317.285-5.289.802-1.974,1.602-3.943,2.4-5.907l.357.032c-.084.989-.167,1.98-.27,3.197.814-.916.531-1.853.959-2.706.183.12.335.22.487.32.067-.034.134-.067.201-.101.024-1.515-1.858-.945-.615-2.467,8.097-15.249,14.395-31.292,23.079-46.174.452-.861.735-1.603,1.645-.565,1.744.56,1.811-2.35,3.56-2.194.431-.026.743-1.269.438-1.892-.072.32-.123.543-.188.83-.996.023-1.962.045-2.946.068.288-2.054,2.598-2.155,4.1-1.523,1.683-2.489,2.304-6.224,5.744-6.788-.14-.172-.266-.327-.539-.662,2.52-.59,4.58,2.546,6.67,1.905.44-.39.743-.297.818.309-.216.079-.43.157-.716.261,4.26,1.531,8.617,5.253,12.519,6.025.919,2.415,2.378-.584,3.433-1.49.519-.833,1.393-.071,2.021-.601,8.953-9.038,16.928-19.513,26.772-26.991.548-.009,1.596.235,1.946.822,1.848,1.277,2.466-3.795,6.841,1.161.667,1.147,2.425-.463,2.708,1.046.282,1.139,1.689,1.087,2.207,2.067,1.786,1.081,2.565,3.146,4.737,3.803.689.392.8.85,1.497-.017.118,1.414.309,1.516,1.399.76.079.407.154.792.229,1.178l1.123-.477c-.465,6.943,24.591-23.986,27.83-25.766,1.614.353-.188,1.261.697,2.163.504.143.961-.691,1.338-.89,1.676-.328-.022,1.919,1.229,2.224.722.181.831,1.901,1.677.962.181.363.422.654.47.981.121.87,1.498.81,1.687.114.111-.926-.632-2.356.922-2.128.695.044.417,1.093.954,1.37-.252.402-.445.71-.638,1.018.435.124.871.249,1.436.41-.455,1.116-.409,1.297.704,1.757.236,1.007,1.231,1.468,1.973,2.04.853.704,1.654,2.045,3.013,1.97-.367,1.39,1.423.545,2.121.967-1.036.973-.927,1.293.14,1.928-.026.064-.052.129-.078.193-.473-.052-.945-.105-1.599-.177.27.731,1.157.622.746,1.475-.068.73,1.223.916,1.837.424-.165.316-.264.505-.399.765.57-.039.209,1.014.965.708.422-.171.76-.545,1.101-.949-1.081.652-1.342-.397-.403-.954,1.362.035,2.055-.861,2.827-1.742,1.164-1.315,2.162-2.092,3.896-1.315.42.365.792.737,1.358.086,1.024.926,2.01,1.817,2.997,2.709.08-.067.161-.134.241-.2-.201-.332-.402-.663-.707-1.165,1.923,1.296,3.917-1.03,5.357.406.242,1.625,1.152,2.489,2.362,3.451,1.077.962.459,2.642,1.638,3.51.591.438.42,1.541,1.363.95,1.136-.803,2.064,1.302,1.41,2.168.424.081.745.143,1.018.195-.349.427-.657.804-.966,1.18.601.262-.509,1.372.736,1.339.079-.234.163-.483.242-.715.997.668,2.299,1.187,1.222,2.566.322.045.606.085.957.133-.052.234-.096.434-.112.508.399.361.738.669,1.123,1.017-.197.249-.374.474-.652.826.998-.259,1.849-.481,2.782-.723.017.314.026.498.036.679,2.534.548.472,4.428.011,6.054.081.056.162.112.243.169,1.616-1.377,2.453-3.491,3.878-5.066.083.048.165.097.248.145-.384.974-.893,1.909-1.079,2.947,1.031-.032,1.49-.808,2.019-1.568,3.259,2.237,14.631-18.5,13.479-7.991.094.03.189.059.283.089,1.094-2.144,4.509-2.623,4.519.402-.096.89.735.556,1.293.499.593-.139.81.106.812.662-.08,1.962,4.51.524,3.973,3.236,2.144-.457,1.241,2.226,2.864,2.406.605-.004,1.21.372,1.837.587-.225.485-.433.934-.678,1.461,5.02.996,1.101.777,3.501,2.933,4.404,2.295.161,6.216-.403,9.674.089.041.178.082.266.123-.185.117-.369.233-.605.382.059.154.126.329.196.511-1.449.027-.687,1.274-1.387,2.138-.349.477-.522.808.079,1.218.73.849.617,2.264.918,3.296-.073-.059-.231-.188-.271-.221-.656,1.441.088,2.991-1.8,3.481-.204.757-.278,1.634-1.183,2.076-.315-.334-.584-.62-.852-.905-.137-.009-.274-.017-.41-.026.293,2.122-.855,3.447-1.799,5.239,1.242.98,3,.811,3.902,1.869.136.202.265.614.366.604,1.437-.079,1.729,1.318,2.679,1.994.643-.661,1.245-1.281,1.864-1.918.26.187.466.335.672.483.052-.03.105-.061.157-.091l-.428-.924c1.562-3.164,1.703.665,2.812-1.18.475.196-.208,1.169.688.926.129-.035.115-.591.193-1.067,1.148-.008,1.437,1.548,2.789.384.073.773.039,1.143.215,1.756,1.685-.842,3.335-2.183,4.895-3.547,1.023-1.326,1.915-1.908,3.486-.744-.475.142-.748.223-1.02.305-.005.067-.011.135-.016.202.378.068.756.137,1.195.217.034-.181.063-.334.1-.528,1.723.228.025,1.229,1.078,1.799.134-.204.256-.391.296-.453,1.868.37,1.023-1.643.979-2.751l.204-.01c1.293,1.101,1.019,3.405,2.372,4.092.478.042.83.144,1.165.502,1.443.824.727-1.53,1.45-1.887.825-.061,1.284.754,1.73,1.415-.65,1.95,2.239,2.847,3.33,4.16-1.55-.417-2.332-.086-.804,1.442.229-.349.361-.551.594-.905.361.657.506,1.139,1.073,1.535.326-.601.054-1.047-.141-1.632.68.197,1.275.399.869,1.299.351,2.153,4.294-.792,3.39,2.185.898-.303,3.057.317,1.793,1.39-.131.095-.137.605-.006.756.169.194.628.381.795.285.865-.523,1.285.614,1.879,1.035,1.081,1.873-1.129,3.834-.969,5.528,1.202.529-.36,2.016-1.067.878-.308.414-.488.762.194.862,1.616,1.818-2.468,6.466-3.68,8.628.365-.107.59-.173.909-.267.159.618,1.012,1.706-.01,1.987-.745.554-.263,1.555-.229,2.5.289.015,1.168-.414,1.404-.381.598.516,1.12.261,1.637-.051.559-.337.696-.053.782.465.801,2.367,1.179,4.776,2.081,7.035.296,1.29.714,3.393,2.176,3.714.357.969,1.887,1.054,1.624,2.511,2.597-.272,2.122,3.134,2.166,4.769,2.929,1.423-1.903,4.927-2.06,7.046-1.368,1.049-1.719,3.218-2.761,3.844-.552.332.13,1.785-.94,1.65-.796.839-1.221,1.956-2.062,3.186,3.359.425,6.449.815,9.532,1.205.032,1.666.885.365,1.742,1.274-.463.32-.798.55-1.11.766,1.152,1.211,1.958,3.802.022,4.516-1.213-.421-.742.496-.819,1.117.542-.177.997-.326,1.52-.497.973,1.168-1.798,1.906-.43,3.306.013,5.671-9.282,6.554-2.154,13.149-.601.93.805,1.579.35,2.49-.864,1.241-.557,2.496,1.028,2.77.031-.119.095-.368.163-.633,1.014.619,2.481,4.084,2.35,5.432.203-.031.46-.071.716-.111-.01.096-.021.192-.031.288-.183.196-.365.393-.548.59.022.092.044.183.066.275.393-.066.786-.133,1.324-.224-.604.681-.237,2.147-1.186,2.219-.146-.009-.301.289-.452.446.707.611,1.519-.008,2.306-.16.039.066.079.131.118.197-3.126,4.171-9.064,6.455-10.856,11.429-.128,1.576-.41.812-1.467,1.079.511.307,1.427.88.622,1.38-.764.446.062,1.168-.253,1.875-.087.003-.174.006-.261.009-.122-.197-.243-.393-.517-.836-2.745,9.891-14.735,10.7-21.933,16.161-4.721,4.006-9.465,8.241-14.742,11.416-1.032,1.679-4.844,4.864-6.137,2.157.234-.101.458-.199.914-.396-.521-.325-.863-.539-1.347-.841.147,1.114-.969,3.195-.613,1.098-1.212-.582-.148-1.97-.78-3.19-.401.884-.706,1.557-1.011,2.231-1.428-.731-.155-3.632-1.829-3.831-.673,1.024-1.157.594-1.616-.31-.299.539-.537.97-.797,1.437-3.272-3.432-9.814,6.669-13.382,6.068-1.938.182-3.462,3.741-5.535,2.824-8.971-2.229-27.887,23.203-33.172,18.759.277-.119.533-.228,1.027-.44-.491-.356-.823-.597-1.214-.881-1.253,2.454-1.359-.662-1.252-1.807-.098-.031-.197-.062-.295-.093-.366.652-.732,1.305-1.092,1.947-1.624-.22.047-4.78-1.789-3.836-.899,1.306-.917.067-1.661-.321-.179.432-.346.837-.504,1.219-2.082-1.718-4.408.854-6.83.32-.817.38-2.702,1.194-2.44-.602.711-.752,1.476-3.949-.374-3.102-.693-1.096-.614-1.406.383-1.632-.13-1.436-.512-1.982-1.573-.714.167-2.383-1.748-3.383-1.153-5.508.157-.534-.429-1.418-.268-1.963.769-1.473-.333-2.133-.906-3.004-1.931-.74-2.614-2.2-3.516-4.067-.659.517-1.34,1.051-2.08,1.631.027-.286.049-.514.074-.772-2.134.455-.86,2.028-2.308,3.424-.48-2.06,1.266-3.471,1.159-5.483-7.491,8.85-14.265,20.34-21.905,27.933ZM281.647,565.413c.861.91-.177,1.368.871,1.808.243-.854,1.473-1.293.613-2.462l-.624.31-.413-.196c.221-.269.443-.537.662-.803-1.404-1.639-1.201.322-1.109,1.344ZM33.541,583.748c-.44.598-.881,1.197-1.321,1.794.416.232.892.496,1.372.764.972-1.015.967-1.809-.051-2.558ZM282.421,573.251c-.222-.095-.444-.189-.666-.284.342-.493.685-.986.992-1.43-.25-.17-.55-.375-.848-.578q-.56.478.02,1.052c-.282.189-.563.377-.843.564-.009.121-.018.242-.026.363.457.104.914.208,1.372.313ZM280.446,562.308c-.318.619-.555,1.08-.89,1.733,1.061-.275,2.309-1.141.89-1.733ZM230.913,489.214c-.07.023-.14.046-.21.069-.088.634-.176,1.268-.273,1.965l.902-.413c-.137-.532-.278-1.077-.419-1.622ZM179.677,443.765c-.848.503-.866.792-.101,1.425.035-.491.064-.905.101-1.425ZM38.809,478.717c.649.155,1.027.174,1.063-.485-.428-.544-.687.017-1.063.485ZM31.936,591.013c-.467.934-.379,1.117.477,1.239-.178-.463-.328-.851-.477-1.239ZM281.27,569.697c.154.012.308.025.462.037.005-.409.011-.818.016-1.226-.12-.01-.24-.02-.36-.03-.039.406-.079.812-.118,1.218ZM76.359,639.142c-.032.385-.064.77-.106,1.275.927-.494.838-.89.106-1.275Z" fill="none"/>
    </clipPath>
  </defs>
  <g isolation="isolate">
    <g id="a" data-name="bateau 10">
      <g>
        <g mix-blend-mode="multiply" opacity=".5">
          <path d="M105.596,232.026c-1.512,1.1,3.932,4.05,8.573,3.225,4.64-.826,6.449-3.539,2.438-2.989-4.011.551-9.713-1.18-11.011-.236Z" fill="#336a9b"/>
          <path d="M107.13,235.88c-2.775-.571-5.466-.079-3.539,1.258,1.927,1.337,6.419,1.198,5.82,0-.275-.551-.944-.983-2.281-1.258Z" fill="#336a9b"/>
          <path d="M117.354,238.318c-2.596-.824-5.781.983-7.708,1.022-1.927.039-3.028,1.73-.629,1.73s10.814-1.966,8.337-2.753Z" fill="#336a9b"/>
        </g>
        <g mix-blend-mode="multiply" opacity=".5">
          <path d="M89.013,233.032c-1.712-.571-.865.551-3.618.393s-5.112.039-4.247.944c.865.904,5.191,1.809,6.488.904,1.298-.904,1.966-2.045,1.376-2.241Z" fill="#336a9b"/>
          <path d="M80.676,232.638c2.594-.805-3.618-1.652-3.146-.786s2.006,1.14,3.146.786Z" fill="#336a9b"/>
          <path d="M80.519,235.784c-1.19-.793-2.473.051-2.06.704s1.745,1.892,3.082,1.027-.551-1.416-1.022-1.73Z" fill="#336a9b"/>
        </g>
        <g clip-path="url(#b)">
          <g filter="url(#c)">
            <g>
              <path d="M104.609,233.514c4.011-11.561-5.191-28.962-2.949-35.628,2.241-6.665,11.384-16.398,13.095-15.926s3.185,3.716,1.298,6.724c-1.888,3.008-4.247,9.084-4.129,14.275.118,5.191,7.427,8.634,8.612,16.752.778,5.332-.944,13.449-.944,13.449-4.07,3.067-13.626,2.065-14.983.354Z" fill="#a384bb"/>
              <path d="M119.592,233.16s1.722-8.117.944-13.449c-1.185-8.118-8.494-11.561-8.612-16.752-.118-5.19,2.242-11.266,4.129-14.274-1.132-3.584-5.981,7.715-6.114,13.996-.083,3.915,5.331,11.578,7.746,16.909,1.793,3.957-.084,11.212-1.171,14.964,1.176-.315,2.245-.765,3.078-1.393Z" fill="#efa78e"/>
              <path d="M114.555,195.572c-.566,1.458-.972,2.573-1.827,2.241s-1.09-1.783-.524-3.241,1.718-2.37,2.573-2.038.344,1.581-.222,3.038Z" fill="#ffd66e"/>
              <path d="M116.707,208.909c.952,1.243,1.728,2.13.944,2.723s-2.191.065-3.143-1.178-1.089-2.731-.305-3.324,1.552.536,2.504,1.779Z" fill="#ffd66e"/>
              <path d="M121.889,223.718c-.1,1.563-.205,2.781-1.121,2.716-.916-.065-1.578-1.385-1.478-2.948.1-1.563.923-2.777,1.839-2.712.916.065.86,1.381.76,2.944Z" fill="#ffd66e"/>
              <path d="M121.096,222.189c-.501-.215-.849,2.662-.113,2.945.736.283.51-2.775.113-2.945Z" fill="#f4af13"/>
              <path d="M115.041,208.246c-.515.178,1.162,2.541,1.898,2.255s-1.49-2.396-1.898-2.255Z" fill="#f4af13"/>
              <path d="M114.5,194.098c-.291-.332-1.628,2.078-1.189,2.538s1.419-2.275,1.189-2.538Z" fill="#f4af13"/>
            </g>
            <g>
              <path d="M90.629,229.267c.649-4.011.059-9.792-2.359-12.151-4.795-4.678-11.14-12.95-12.977-12.387-1.651.506-4.542,3.716-1.888,7.904,3.11,4.906,6.076,9.733,5.781,11.443-.295,1.711-1.062,5.663-1.062,5.663,3.008,2.477,9.497,2.713,12.505-.472Z" fill="#a384bb"/>
              <path d="M72.435,210.279c.144.738.445,1.526.97,2.354,3.11,4.907,6.076,9.733,5.781,11.443-.295,1.71-1.062,5.663-1.062,5.663.835.688,1.944,1.196,3.167,1.513.712-2.56,1.577-5.977,1.577-7.497,0-2.582-2.999-4.665-5.164-8.663-1.843-3.402-2.855-5.096-5.268-4.812Z" fill="#efa78e"/>
              <path d="M75.87,214.191c.727,1.384.634,2.864-.207,3.306-.841.442-1.412-.749-2.139-2.133s-1.335-2.437-.493-2.879,2.112.321,2.839,1.705Z" fill="#ffd66e"/>
              <path d="M80.534,226.062c-.354,1.508-1.418,2.554-2.376,2.337s-.684-1.304-.33-2.812c.354-1.508.653-2.866,1.612-2.649s1.449,1.615,1.095,3.123Z" fill="#ffd66e"/>
              <path d="M73.691,213.898c.361-.408,1.908,2.043,1.364,2.613-.544.571-1.649-2.29-1.364-2.613Z" fill="#f4af13"/>
              <path d="M79.214,224.272c.546.024-.112,3.125-.904,3.056-.792-.069.471-3.075.904-3.056Z" fill="#f4af13"/>
            </g>
            <g clip-path="url(#e)">
              <path d="M114.937,237.951s2.912-5.835-1.7-14.623c-2.724-5.191-7.237-16.841-6.897-21.432.34-4.591,1.513-11.341-1.077-8.525-3.17,3.447-3.278,5.697-3.108,10.033s4.801,17.726,4.462,26.743c-.197,5.243-3.922,9.845-3.922,9.845l12.243-2.04Z" fill="#a384bb" mix-blend-mode="multiply" opacity=".25"/>
            </g>
            <g clip-path="url(#f)">
              <path d="M86.541,235.23s2.581-6.854.626-9.915c-1.955-3.061-4.994-4.948-6.524-8.094s-6.032-9.571-6.863-8.709c-2.231,2.314,1.089,5.983,2.493,8.063,1.404,2.08,4.721,8.212,3.416,10.494-1.305,2.282-2.462,6.278-2.462,6.278l9.314,1.883Z" fill="#a384bb" mix-blend-mode="multiply" opacity=".25"/>
            </g>
          </g>
        </g>
      </g>
    </g>
  </g>
</svg>