<?xml version="1.0" encoding="UTF-8"?>
<svg id="a" data-name="bateau 06" xmlns="http://www.w3.org/2000/svg" width="300" height="300" xmlns:xlink="http://www.w3.org/1999/xlink" viewBox="0 0 300 300">
  <defs>
    <filter id="b" data-name="drop-shadow-1" x="203.639" y="176.855" width="91.634" height="44.804" filterUnits="userSpaceOnUse">
      <feOffset dx="-1.219" dy="0"/>
      <feGaussianBlur result="c" stdDeviation="0"/>
      <feFlood flood-color="#42496f" flood-opacity="1"/>
      <feComposite in2="c" operator="in"/>
      <feComposite in="SourceGraphic"/>
    </filter>
    <filter id="d" data-name="drop-shadow-2" x="203.639" y="176.855" width="78.698" height="53.275" filterUnits="userSpaceOnUse">
      <feOffset dx="-1.219" dy="0"/>
      <feGaussianBlur result="e" stdDeviation="0"/>
      <feFlood flood-color="#42496f" flood-opacity="1"/>
      <feComposite in2="e" operator="in"/>
      <feComposite in="SourceGraphic"/>
    </filter>
  </defs>
  <g>
    <g filter="url(#b)">
      <path d="M276.866,202.996s4.24,7.373,1.973,13.095l-6.173-7.432s.873-.568,0-2.408l4.2-3.255Z" fill="#336a9b"/>
      <path d="M287.602,195.327c-1.553-5.731-10.253-9.182-19.085-5.336-.751.327-1.608.269-2.345-.09-3.847-1.872-9.229-2.82-13.08-.752-.881.473-.947,1.717-.123,2.284,1.46,1.005,3.674,2.596,5.524,4.211.858.75,1.046,2.017.399,2.955-5.924,8.578-10.043,20.499-10.043,20.499l7.963,2.56s14.924-15.242,20.881-17.484c5.958-2.241,10.623-1.434,11.943-2.196s-4.379-1.353-8.669-.665c0,0,3.889-2.24,12.124-2.438,3.272-.079,3.891-3.73-5.488-3.549Z" fill="#b1ddea"/>
      <circle cx="280.588" cy="200.626" r="1.749" fill="#42496f"/>
      <line x1="205.162" y1="177.16" x2="280.588" y2="200.626" fill="none" stroke="#42496f" stroke-linecap="round" stroke-linejoin="round" stroke-width=".61"/>
      <path d="M271.329,207.066c.317,5.427-1.518,10.873-5.599,12.102v-8.504s1.109-.177.991-1.652l4.608-1.947Z" fill="#b1ddea"/>
      <line x1="283.487" y1="194.762" x2="283.894" y2="195.984" fill="none" stroke="#42496f" stroke-linecap="round" stroke-linejoin="round" stroke-width=".61"/>
      <line x1="285.84" y1="194.581" x2="286.157" y2="195.713" fill="none" stroke="#42496f" stroke-linecap="round" stroke-linejoin="round" stroke-width=".61"/>
    </g>
    <path d="M269.048,214.955c-.605-1.215-1.434-2.467-2.733-2.861-1.126-.341-2.559.409-2.735,1.479-.096-1.373-.831-2.662-1.698-3.754-.373-.47-.796-.934-1.355-1.154-.559-.22-1.285-.12-1.625.375-.692-2.072-1.64-4.141-3.283-5.58-1.643-1.439-4.122-2.1-6.07-1.113-2.52,1.277-3.17,4.653-2.674,7.435.496,2.782,1.811,5.395,2.049,8.211-1.999-2.53-5.564-3.704-8.675-2.854-.533.146-1.101.388-1.338.887-.203.429-.108.935.025,1.391.533,1.822,1.622,3.478,3.084,4.688l29.309,1.39c-.179-2.961-.96-5.885-2.281-8.541Z" fill="#fff"/>
    <g>
      <g>
        <path d="M243.147,202.088c.366-.073.616.224.626.455.012.276-.182.519-.449.546-.282.029-.53-.173-.56-.456-.005-.046-.002-.092-.006-.138-.032-.387-.006-.414.39-.408Z" fill="#fff"/>
        <path d="M240.336,209.578c-.006-.251.19-.459.443-.47.266-.012.48.19.479.453,0,.248-.205.456-.454.463-.248.006-.462-.197-.468-.445Z" fill="#fff"/>
        <path d="M245.398,207.399c-.003-.21.131-.336.372-.345.232-.009.422.164.426.387.004.217-.171.392-.393.395-.232.002-.401-.179-.405-.436Z" fill="#fff"/>
        <path d="M247.649,205.652c-.001.217-.166.383-.377.38-.209-.003-.375-.175-.374-.388.001-.23.17-.411.38-.408.212.003.373.184.371.416Z" fill="#fff"/>
        <path d="M242.105,205.082c-.004-.21.164-.388.371-.395.21-.007.386.161.389.373.004.215-.157.385-.371.392-.215.007-.385-.155-.389-.37Z" fill="#fff"/>
        <path d="M246.51,200.874c.003-.2.176-.361.38-.352.193.008.347.166.349.361.002.205-.159.365-.367.363-.203-.002-.365-.167-.362-.371Z" fill="#fff"/>
        <path d="M242.049,211.42c-.198-.004-.347-.157-.348-.356-.001-.207.161-.366.368-.36.196.005.349.161.35.357,0,.206-.161.363-.37.359Z" fill="#fff"/>
        <path d="M247.489,202.853c-.003.187-.145.331-.319.323-.18-.009-.335-.171-.333-.349.002-.182.141-.318.325-.317.19.001.33.148.327.342Z" fill="#fff"/>
        <path d="M238.785,208.693c0-.053-.006-.107.001-.16.021-.162.117-.251.28-.235.165.016.236.129.227.288-.005.083-.037.164-.044.247-.014.153-.084.25-.243.243-.162-.008-.218-.119-.214-.268.001-.038,0-.076,0-.114h-.006Z" fill="#fff"/>
        <path d="M247.541,208.997c.005.181-.133.334-.304.337-.173.003-.336-.16-.339-.34-.002-.169.153-.325.322-.323.174.002.316.146.32.325Z" fill="#fff"/>
        <path d="M237.99,202.902c-.2.007-.346-.107-.357-.279-.011-.162.129-.312.298-.32.17-.008.418.229.417.398,0,.134-.105.192-.357.201Z" fill="#fff"/>
        <path d="M239.945,201.306c-.004.178-.155.32-.336.306-.19-.015-.295-.125-.303-.315-.008-.182.138-.321.322-.318.183.003.322.146.317.326Z" fill="#fff"/>
        <path d="M236.948,205.54c.007-.171.168-.314.344-.307.179.007.304.141.295.317-.009.178-.161.319-.337.311-.167-.008-.309-.158-.302-.32Z" fill="#fff"/>
        <path d="M241.001,207.688c-.167,0-.312-.14-.317-.305-.004-.173.149-.32.328-.315.169.005.308.148.304.314-.003.164-.149.305-.316.305Z" fill="#fff"/>
        <path d="M240.864,203.578c.147.019.248.108.254.281.005.158-.14.303-.293.292-.169-.013-.266-.115-.276-.283-.009-.156.139-.294.316-.29Z" fill="#fff"/>
        <path d="M243.827,209.948c.073.099.187.189.209.299.033.163-.095.256-.252.261-.162.005-.284-.101-.265-.254.013-.108.129-.204.199-.305h.11Z" fill="#fff"/>
        <path d="M244.711,205.474c-.125-.142-.224-.215-.255-.31-.012-.038.124-.169.203-.179.139-.018.235.081.212.231-.01.067-.075.125-.16.258Z" fill="#fff"/>
        <path d="M245.425,208.384c-.132.089-.209.182-.275.175-.07-.008-.13-.11-.194-.17.063-.062.121-.166.19-.175.066-.008.145.083.279.171Z" fill="#fff"/>
        <path d="M242.689,208.598c.122-.084.192-.169.254-.163.065.006.122.098.183.153-.061.063-.113.16-.185.177-.053.012-.13-.081-.252-.166Z" fill="#fff"/>
        <path d="M237.911,209.769c.13-.088.204-.176.263-.167.065.01.146.103.161.172.009.041-.095.147-.153.15-.066.004-.137-.074-.271-.156Z" fill="#fff"/>
        <path d="M240.207,206.836c-.081-.127-.164-.2-.155-.259.01-.064.105-.115.163-.172.057.059.152.113.16.178.007.059-.08.129-.168.254Z" fill="#fff"/>
        <path d="M239.868,205.348c-.079-.109-.161-.171-.155-.226.005-.058.092-.148.145-.15.053-.001.143.085.152.143.008.054-.069.121-.142.233Z" fill="#fff"/>
        <path d="M245.398,210.168c-.077-.111-.152-.171-.151-.231,0-.052.094-.15.132-.143.065.011.154.08.167.14.011.05-.072.12-.148.234Z" fill="#fff"/>
        <path d="M244.252,210.702c.077.114.156.18.149.235-.007.061-.094.112-.145.167-.053-.054-.141-.103-.149-.163-.008-.055.07-.123.146-.238Z" fill="#fff"/>
        <path d="M242.396,201.172c-.062-.089-.14-.154-.129-.196.016-.061.097-.104.15-.155.048.056.124.108.134.171.007.042-.081.099-.155.18Z" fill="#fff"/>
        <path d="M245.669,200.342c-.1.059-.17.134-.215.12-.059-.018-.098-.104-.146-.16.055-.041.112-.114.166-.113.054.002.106.079.195.152Z" fill="#fff"/>
        <path d="M243.552,208.161c.084-.065.139-.139.18-.132.059.01.107.079.16.122-.051.046-.096.116-.154.128-.041.009-.099-.06-.186-.119Z" fill="#fff"/>
        <path d="M244.033,206.588c.083-.062.13-.121.183-.128.033-.004.114.083.106.109-.016.053-.071.113-.123.13-.031.01-.087-.055-.167-.11Z" fill="#fff"/>
      </g>
      <g>
        <path d="M260.274,211.436c-.458.64-1.272.542-1.621.199-.416-.408-.466-1.062-.093-1.489.393-.449,1.065-.496,1.52-.104.073.063.136.138.208.203.606.55.605.631-.013,1.19Z" fill="#fff"/>
        <path d="M253.826,195.844c.37.379.367.98-.006,1.362-.393.401-1.012.398-1.39-.008-.357-.383-.341-.999.034-1.367.374-.367.997-.361,1.362.012Z" fill="#fff"/>
        <path d="M249.161,206.489c.308.32.281.707-.076,1.068-.343.348-.887.355-1.214.016-.318-.329-.301-.851.038-1.173.355-.338.876-.301,1.253.089Z" fill="#fff"/>
        <path d="M248.205,212.422c-.31-.336-.295-.83.035-1.129.327-.296.83-.27,1.135.06.33.356.33.879.002,1.177-.33.3-.839.254-1.172-.107Z" fill="#fff"/>
        <path d="M257.57,205.322c.308.317.307.834-.003,1.142-.315.313-.826.307-1.136-.014-.315-.326-.312-.82.007-1.138.322-.32.817-.316,1.133.01Z" fill="#fff"/>
        <path d="M256.838,218.147c.283.312.247.809-.078,1.089-.309.267-.774.243-1.057-.053-.299-.314-.28-.791.043-1.087.317-.29.803-.267,1.091.051Z" fill="#fff"/>
        <path d="M248.533,195.471c.31-.278.761-.258,1.049.047.3.318.278.795-.05,1.085-.311.274-.771.254-1.053-.046-.298-.317-.275-.792.054-1.086Z" fill="#fff"/>
        <path d="M252.481,216.507c-.265-.293-.253-.72.026-.957.289-.246.764-.219,1.016.058.259.284.24.693-.045.956-.295.271-.722.247-.997-.057Z" fill="#fff"/>
        <path d="M257.49,194.975c.077.082.164.157.228.248.2.28.181.554-.093.765-.278.213-.55.141-.764-.117-.112-.135-.179-.306-.287-.444-.199-.255-.231-.507.025-.725.261-.222.506-.13.715.106.053.06.11.118.164.177.003-.003.007-.006.01-.009Z" fill="#fff"/>
        <path d="M243.557,207.112c-.268-.272-.275-.707-.017-.958.262-.254.748-.237,1.01.036.247.257.231.721-.032.962-.271.247-.696.23-.962-.04Z" fill="#fff"/>
        <path d="M267.051,202.759c.297-.299.686-.333.953-.084.251.234.251.667.001.922-.252.257-.973.249-1.215-.013-.191-.207-.115-.447.261-.825Z" fill="#fff"/>
        <path d="M266.335,208.032c-.25-.281-.222-.716.078-.956.314-.25.635-.232.92.049.274.269.249.693-.039.954-.286.259-.706.238-.959-.046Z" fill="#fff"/>
        <path d="M264.859,197.192c.235.274.194.726-.088.969-.287.247-.67.221-.91-.063-.243-.288-.211-.723.072-.964.268-.228.704-.201.926.058Z" fill="#fff"/>
        <path d="M255.52,199.715c.257-.24.683-.234.927.014.256.26.231.709-.052.957-.268.235-.688.214-.921-.046-.231-.258-.21-.684.047-.925Z" fill="#fff"/>
        <path d="M261.648,205.853c-.254.181-.538.191-.795-.068-.235-.237-.221-.669.032-.872.279-.224.575-.206.832.039.238.227.209.652-.069.901Z" fill="#fff"/>
        <path d="M247.912,200.3c-.255-.047-.561-.023-.752-.159-.285-.204-.223-.532.013-.766.243-.241.583-.253.774.009.135.185.094.499.132.756l-.168.16Z" fill="#fff"/>
        <path d="M252.99,208.468c.396.039.655.008.839.111.073.041.052.438-.054.568-.188.229-.479.214-.66-.052-.08-.118-.065-.3-.125-.627Z" fill="#fff"/>
        <path d="M247.702,205.01c.075-.328.061-.581.173-.665.119-.089.358-.018.545-.017-.007.187.054.43-.041.544-.091.108-.343.08-.676.139Z" fill="#fff"/>
        <path d="M251.609,200.742c-.068.304-.053.536-.156.617-.108.085-.33.025-.502.028.003-.184-.056-.41.03-.539.064-.095.317-.062.627-.106Z" fill="#fff"/>
        <path d="M257.288,192.059c-.074.324-.061.566-.164.636-.115.078-.374.052-.497-.033-.072-.05-.065-.364.02-.452.097-.101.317-.084.641-.15Z" fill="#fff"/>
        <path d="M257.971,199.884c.308.079.541.072.613.176.078.113.004.329-.003.5-.173-.009-.397.044-.503-.044-.096-.081-.062-.315-.107-.632Z" fill="#fff"/>
        <path d="M260.635,201.691c.279.053.494.033.565.125.075.097.072.361-.008.439-.08.078-.343.076-.44,0-.09-.071-.068-.286-.117-.563Z" fill="#fff"/>
        <path d="M245.174,202.223c.278.06.48.046.565.138.074.081.071.366.003.411-.117.076-.352.097-.458.025-.089-.061-.063-.288-.109-.574Z" fill="#fff"/>
        <path d="M246.173,199.749c-.282-.065-.498-.053-.567-.147-.076-.104-.016-.307-.016-.466.159.007.365-.044.464.037.091.075.068.29.119.577Z" fill="#fff"/>
        <path d="M262.75,211.766c.223.048.438.036.481.116.062.117.001.3-.007.455-.155-.018-.347.012-.453-.07-.07-.055-.017-.268-.021-.501Z" fill="#fff"/>
        <path d="M258.901,217.757c.068-.235.07-.451.158-.495.117-.058.3.018.455.037-.027.142-.008.337-.094.413-.085.075-.276.031-.52.045Z" fill="#fff"/>
        <path d="M250.908,202.657c-.036.222-.014.414-.087.462-.105.069-.279.033-.423.042.012-.143-.019-.316.052-.419.05-.073.239-.05.458-.085Z" fill="#fff"/>
        <path d="M252.431,205.774c-.039.215-.026.373-.098.461-.045.054-.296.036-.32-.014-.051-.105-.053-.276.003-.376.034-.061.214-.041.416-.07Z" fill="#fff"/>
      </g>
    </g>
  </g>
  <g>
    <g filter="url(#d)">
      <path d="M282.318,224.545c-.411-1.724-7.555-1.642-7.555-1.642-1.803-4.166-5.732-8.516-13.698-10.313-1.238-.279-2.26-1.118-2.83-2.252-2.543-5.067-7.661-9.019-12.79-9.289-1.51-.079-2.547,1.499-1.945,2.886,1.016,2.34,1.827,4.898,2.375,6.832.306,1.078-.247,2.203-1.281,2.634-10.847,4.522-19.267,16.729-19.267,16.729l45.002-.329c6.159-3.449,12.4-3.531,11.99-5.256Z" fill="#b1ddea"/>
      <circle cx="267.618" cy="226.598" r="1.889" fill="#42496f"/>
      <line x1="268.976" y1="220.709" x2="269.383" y2="221.931" fill="none" stroke="#42496f" stroke-linecap="round" stroke-linejoin="round" stroke-width=".61"/>
      <line x1="271.329" y1="220.528" x2="271.646" y2="221.659" fill="none" stroke="#42496f" stroke-linecap="round" stroke-linejoin="round" stroke-width=".61"/>
      <line x1="267.618" y1="226.598" x2="205.162" y2="177.16" fill="none" stroke="#42496f" stroke-linecap="round" stroke-linejoin="round" stroke-width=".61"/>
    </g>
    <path d="M216.992,231.27c8.675,0,51.816-.482,51.816-.482-3.732-4.894-8.07-9.388-13.215-12.765-1.163-.763-2.576-1.493-3.885-1.022-.608.219-.993.839-1.108,1.468-2.371-4.109-6.547-7.036-10.855-9.157-1.413-.696-3.049-1.337-4.52-.773-.632.242-1.096.823-1.327,1.462-.24-.243-.506-.463-.767-.641-2.507-1.716-5.938-3.299-8.384-1.497-1.854,1.367-2.096,4.176-1.174,6.287s2.725,3.685,4.472,5.187c-1.685-1.157-3.927-1.904-5.757-.993-1.83.911-1.667,3.841-.446,4.891-1.395-.628-3.391.046-3.772,1.668-.381,1.622.393,3.268,1.147,4.754-.276.355-1.483,1.527-2.224,1.613Z" fill="#fff"/>
    <path d="M248.079,221.351c-2.045-.409-4.226-.667-6.169.09-3.307,1.289-4.917,5.739-3.2,8.845-1.748-3.12-4.874-5.433-8.369-6.191-.898-.195-1.964-.243-2.599.42-.954.996-.191,2.624.595,3.757-.987-.505-2.846-.957-3.768-.192-1.009.838.977,2.262,2.235,3.081,1.258.819,2.805,1.032,4.296,1.201,12.557,1.432,25.291,1.302,37.816-.386l.167-.329c-5.958-5.165-13.272-8.751-21.003-10.297Z" fill="#9bc8ec"/>
    <g>
      <g>
        <path d="M216.765,218.201c.701-.193,1.229.35,1.281.799.061.535-.282,1.034-.798,1.124-.544.095-1.054-.262-1.153-.809-.016-.088-.017-.178-.031-.267-.115-.748-.068-.805.701-.848Z" fill="#fff"/>
        <path d="M212.336,233.156c-.046-.487.306-.918.796-.975.516-.06.959.302.995.814.034.482-.335.916-.819.962-.482.046-.927-.32-.972-.801Z" fill="#fff"/>
        <path d="M221.877,228.217c-.036-.409.209-.671.675-.723.449-.05.844.261.882.694.037.421-.278.786-.709.822-.451.037-.805-.293-.848-.792Z" fill="#fff"/>
        <path d="M226.012,224.508c.028.422-.27.768-.681.792-.407.023-.754-.289-.781-.703-.03-.448.273-.824.683-.847.412-.023.75.306.78.758Z" fill="#fff"/>
        <path d="M215.154,224.168c-.037-.407.264-.778.666-.819.408-.042.772.26.808.671.037.417-.253.771-.667.814-.417.043-.77-.248-.808-.665Z" fill="#fff"/>
        <path d="M223.136,215.376c-.022-.388.293-.726.689-.738.377-.012.698.275.729.653.033.399-.259.732-.663.756-.396.024-.732-.275-.755-.671Z" fill="#fff"/>
        <path d="M215.922,236.501c-.385.02-.697-.257-.726-.644-.031-.403.262-.733.666-.751.383-.017.702.265.73.645.03.401-.263.729-.67.75Z" fill="#fff"/>
        <path d="M225.313,219.087c.02.364-.237.665-.575.673-.351.008-.676-.287-.696-.632-.021-.355.23-.638.588-.661.37-.024.663.242.684.62Z" fill="#fff"/>
        <path d="M209.197,231.651c-.007-.104-.026-.208-.02-.311.019-.318.192-.504.511-.495.324.009.477.218.481.528.002.162-.049.324-.052.486-.005.299-.129.499-.44.506-.316.008-.44-.201-.452-.492-.003-.074-.01-.148-.015-.223-.004,0-.008,0-.013,0Z" fill="#fff"/>
        <path d="M226.266,231.027c.034.351-.213.668-.545.698-.336.031-.676-.265-.705-.613-.028-.328.253-.653.582-.673.338-.02.634.24.668.588Z" fill="#fff"/>
        <path d="M206.85,220.498c-.387.042-.687-.16-.733-.494-.044-.314.207-.625.535-.663.33-.038.844.387.865.716.017.26-.177.388-.667.441Z" fill="#fff"/>
        <path d="M210.43,217.125c.016.347-.257.644-.612.642-.371-.002-.591-.202-.633-.57-.041-.353.224-.643.583-.663.356-.02.646.239.662.591Z" fill="#fff"/>
        <path d="M205.189,225.773c-.009-.334.283-.635.626-.645.35-.011.61.231.618.575.008.348-.269.642-.612.651-.326.008-.623-.265-.632-.58Z" fill="#fff"/>
        <path d="M213.368,229.389c-.324.024-.627-.229-.658-.549-.033-.336.246-.644.594-.658.33-.013.619.246.635.569.016.32-.247.614-.572.637Z" fill="#fff"/>
        <path d="M212.532,221.415c.288.017.498.175.532.511.031.307-.23.609-.53.608-.331-.001-.533-.187-.576-.512-.039-.301.229-.59.574-.607Z" fill="#fff"/>
        <path d="M219.176,233.391c.155.182.39.342.448.552.086.312-.149.512-.455.542-.315.032-.566-.157-.551-.456.01-.212.223-.414.345-.62l.214-.018Z" fill="#fff"/>
        <path d="M220.274,224.568c-.262-.258-.466-.386-.538-.567-.029-.072.217-.346.369-.377.268-.055.469.125.444.42-.011.131-.128.254-.275.523Z" fill="#fff"/>
        <path d="M222.066,230.128c-.245.192-.381.382-.511.378-.137-.005-.268-.195-.401-.304.114-.13.212-.34.346-.367.128-.025.293.142.567.293Z" fill="#fff"/>
        <path d="M216.776,230.924c.226-.179.349-.355.471-.353.127.002.251.174.377.272-.109.131-.198.328-.335.37-.101.031-.264-.14-.513-.289Z" fill="#fff"/>
        <path d="M207.647,233.863c.242-.189.373-.371.488-.361.128.011.299.18.338.313.023.078-.165.299-.277.314-.128.017-.277-.124-.548-.265Z" fill="#fff"/>
        <path d="M211.705,227.843c-.175-.236-.347-.367-.338-.483.01-.126.188-.239.293-.358.119.107.311.199.336.324.022.114-.138.263-.291.517Z" fill="#fff"/>
        <path d="M210.84,224.996c-.17-.2-.336-.311-.333-.418.003-.113.158-.301.261-.311.103-.01.291.145.316.256.023.104-.118.245-.243.473Z" fill="#fff"/>
        <path d="M222.262,233.601c-.165-.205-.318-.312-.325-.428-.006-.101.162-.304.237-.297.128.013.31.135.344.249.028.095-.122.244-.255.476Z" fill="#fff"/>
        <path d="M220.106,234.798c.165.211.328.328.322.436-.006.119-.167.23-.26.345-.111-.097-.288-.181-.312-.296-.022-.107.12-.248.25-.484Z" fill="#fff"/>
        <path d="M215.177,216.525c-.133-.164-.293-.281-.278-.363.023-.12.173-.216.269-.323.101.103.257.194.285.314.019.08-.144.203-.276.372Z" fill="#fff"/>
        <path d="M221.426,214.457c-.186.129-.313.284-.401.264-.118-.026-.205-.188-.306-.291.102-.087.202-.238.307-.242.105-.004.217.138.4.27Z" fill="#fff"/>
        <path d="M218.393,229.955c.155-.139.251-.289.331-.281.115.011.219.138.328.216-.092.096-.17.238-.281.271-.078.023-.201-.103-.379-.206Z" fill="#fff"/>
        <path d="M219.111,226.83c.153-.132.236-.253.339-.274.063-.013.234.146.222.197-.025.105-.122.229-.221.269-.06.024-.177-.095-.34-.192Z" fill="#fff"/>
      </g>
      <g>
        <path d="M219.298,205.087c.431-.119.756.215.788.491.038.329-.173.636-.491.692-.334.058-.648-.161-.709-.497-.01-.054-.011-.11-.019-.164-.071-.46-.042-.495.431-.521Z" fill="#fff"/>
        <path d="M216.575,214.288c-.028-.3.188-.565.49-.6.317-.037.59.186.612.5.021.297-.206.564-.504.592-.297.028-.57-.197-.598-.492Z" fill="#fff"/>
        <path d="M222.444,211.248c-.022-.251.129-.413.415-.445.276-.031.519.16.543.427.023.259-.171.484-.436.506-.278.023-.495-.18-.522-.487Z" fill="#fff"/>
        <path d="M224.988,208.966c.017.26-.166.473-.419.487-.25.014-.464-.177-.481-.432-.018-.275.168-.507.42-.521.253-.014.462.188.48.466Z" fill="#fff"/>
        <path d="M218.308,208.758c-.023-.251.162-.478.41-.504.251-.026.475.16.497.413.023.257-.155.474-.41.501-.257.027-.474-.152-.497-.409Z" fill="#fff"/>
        <path d="M223.217,203.348c-.014-.239.18-.446.424-.454.232-.007.429.169.448.401.02.246-.159.45-.408.465-.244.015-.451-.169-.464-.413Z" fill="#fff"/>
        <path d="M218.782,216.345c-.237.012-.429-.158-.447-.396-.019-.248.161-.451.41-.462.235-.01.432.163.449.397.018.247-.162.448-.412.461Z" fill="#fff"/>
        <path d="M224.557,205.631c.012.224-.145.409-.354.414-.216.005-.416-.176-.429-.389-.013-.218.142-.392.362-.407.227-.015.408.149.421.382Z" fill="#fff"/>
        <path d="M214.644,213.362c-.005-.064-.016-.128-.012-.191.012-.195.118-.31.315-.305.199.005.294.134.296.325.001.1-.03.199-.032.299-.003.184-.079.307-.27.311-.195.005-.27-.123-.278-.303-.002-.046-.006-.091-.01-.137h-.008Z" fill="#fff"/>
        <path d="M225.145,212.976c.021.216-.131.411-.335.43-.207.019-.416-.163-.434-.377-.017-.202.156-.402.358-.414.208-.013.39.147.411.361Z" fill="#fff"/>
        <path d="M213.199,206.502c-.238.026-.422-.098-.451-.304-.027-.193.127-.385.329-.408.203-.024.519.238.532.44.011.16-.109.239-.41.271Z" fill="#fff"/>
        <path d="M215.401,204.426c.01.214-.158.396-.376.395-.228-.001-.363-.124-.39-.35-.025-.217.138-.395.358-.408.219-.012.398.147.408.363Z" fill="#fff"/>
        <path d="M212.178,209.747c-.006-.205.174-.39.385-.397.215-.007.375.142.38.353.005.214-.165.395-.376.401-.2.005-.383-.163-.389-.357Z" fill="#fff"/>
        <path d="M217.21,211.97c-.199.015-.386-.141-.405-.337-.02-.206.151-.396.366-.405.203-.008.381.151.391.35.01.197-.152.378-.351.392Z" fill="#fff"/>
        <path d="M216.694,207.065c.177.011.306.108.327.314.019.189-.141.375-.326.374-.204,0-.328-.115-.354-.315-.024-.185.141-.363.353-.374Z" fill="#fff"/>
        <path d="M220.784,214.431c.096.112.24.211.275.339.053.192-.092.315-.28.334-.194.02-.348-.097-.339-.281.006-.13.137-.255.212-.381l.131-.011Z" fill="#fff"/>
        <path d="M221.458,209.004c-.161-.159-.287-.238-.331-.349-.018-.044.134-.213.227-.232.165-.034.288.077.273.259-.007.081-.079.156-.169.322Z" fill="#fff"/>
        <path d="M222.561,212.423c-.151.118-.235.235-.314.232-.084-.003-.165-.12-.247-.187.07-.08.13-.209.213-.226.079-.015.181.087.349.18Z" fill="#fff"/>
        <path d="M219.307,212.914c.139-.11.215-.218.289-.217.078.001.155.107.232.167-.067.08-.122.202-.206.228-.062.019-.162-.086-.315-.177Z" fill="#fff"/>
        <path d="M213.691,214.724c.149-.117.229-.229.3-.222.079.007.184.11.208.192.014.048-.102.184-.17.193-.079.01-.17-.076-.337-.163Z" fill="#fff"/>
        <path d="M216.186,211.019c-.108-.145-.214-.225-.208-.297.006-.078.116-.147.18-.22.073.066.192.122.207.199.014.07-.085.162-.179.318Z" fill="#fff"/>
        <path d="M215.654,209.268c-.104-.123-.207-.191-.205-.257.002-.07.097-.185.161-.191.063-.006.179.089.194.158.014.064-.072.151-.15.291Z" fill="#fff"/>
        <path d="M222.682,214.56c-.102-.126-.196-.192-.2-.263-.004-.062.1-.187.146-.183.079.008.191.083.212.153.017.058-.075.15-.157.293Z" fill="#fff"/>
        <path d="M221.356,215.297c.102.13.202.201.198.268-.004.073-.102.142-.16.212-.068-.06-.177-.111-.192-.182-.014-.066.074-.153.154-.298Z" fill="#fff"/>
        <path d="M218.321,204.056c-.082-.101-.181-.173-.171-.223.014-.074.107-.133.166-.199.062.063.158.119.175.193.012.049-.088.125-.17.229Z" fill="#fff"/>
        <path d="M222.165,202.783c-.114.08-.192.174-.247.162-.072-.016-.126-.115-.188-.179.063-.053.124-.146.189-.149.065-.003.133.085.246.166Z" fill="#fff"/>
        <path d="M220.301,212.318c.095-.085.154-.178.204-.173.071.007.135.085.202.133-.057.059-.105.147-.173.167-.048.014-.124-.063-.233-.126Z" fill="#fff"/>
        <path d="M220.742,210.395c.094-.081.145-.156.208-.168.039-.008.144.09.137.121-.015.065-.075.141-.136.165-.037.015-.109-.058-.209-.118Z" fill="#fff"/>
      </g>
      <g>
        <path d="M240.92,202.737c.725.3.815,1.112.561,1.528-.302.496-.925.694-1.424.428-.525-.279-.723-.921-.446-1.452.045-.085.103-.163.15-.248.397-.713.475-.73,1.158-.257Z" fill="#fff"/>
        <path d="M227.246,212.533c.284-.445.868-.579,1.324-.303.479.29.616.892.308,1.351-.291.433-.892.558-1.335.277-.441-.28-.577-.886-.297-1.325Z" fill="#fff"/>
        <path d="M238.638,214.648c.24-.372.622-.433,1.054-.169.415.254.546.781.291,1.175-.247.383-.758.485-1.148.23-.409-.268-.491-.782-.197-1.236Z" fill="#fff"/>
        <path d="M244.614,214.23c-.256.377-.739.475-1.104.223-.362-.25-.45-.745-.2-1.116.271-.401.778-.52,1.142-.269.366.253.436.757.162,1.162Z" fill="#fff"/>
        <path d="M235.598,206.748c.238-.371.74-.487,1.11-.256.375.235.485.733.244,1.106-.245.38-.726.489-1.106.251-.384-.24-.492-.721-.248-1.102Z" fill="#fff"/>
        <path d="M248.215,204.551c.239-.345.73-.424,1.075-.172.329.24.412.696.188,1.038-.237.362-.705.451-1.065.205-.353-.242-.441-.719-.198-1.071Z" fill="#fff"/>
        <path d="M228.083,217.756c-.341-.238-.423-.68-.192-1.029.241-.363.709-.45,1.065-.198.337.239.422.691.194,1.033-.241.361-.706.446-1.067.194Z" fill="#fff"/>
        <path d="M247.61,209.152c-.224.323-.642.409-.935.192-.304-.225-.385-.692-.174-.999.217-.316.619-.391.938-.173.33.224.404.645.171.981Z" fill="#fff"/>
        <path d="M225.571,209.173c.062-.093.116-.194.189-.278.226-.258.497-.302.763-.083.27.222.262.502.059.768-.106.139-.256.243-.366.379-.202.251-.44.339-.709.14-.274-.203-.241-.462-.059-.719.046-.065.09-.133.134-.2-.004-.003-.008-.005-.011-.008Z" fill="#fff"/>
        <path d="M240.513,219.947c-.203.321-.624.427-.926.233-.306-.197-.4-.673-.194-.989.194-.298.648-.388.941-.187.302.207.381.624.179.943Z" fill="#fff"/>
        <path d="M230.959,198.125c-.357-.221-.479-.591-.297-.906.17-.296.59-.395.895-.21.306.186.462.888.263,1.182-.158.233-.408.213-.86-.066Z" fill="#fff"/>
        <path d="M236.241,197.625c-.216.306-.645.378-.946.141-.314-.248-.369-.563-.162-.904.199-.327.616-.399.935-.178.316.219.391.632.173.941Z" fill="#fff"/>
        <path d="M226.052,201.515c.213-.29.661-.353.96-.135.305.222.366.601.145.898-.224.301-.654.369-.952.149-.283-.209-.355-.638-.154-.913Z" fill="#fff"/>
        <path d="M230.619,210.01c-.292-.195-.382-.61-.197-.903.195-.307.636-.385.941-.166.289.207.364.619.164.905-.198.283-.617.359-.909.164Z" fill="#fff"/>
        <path d="M235.189,202.669c.234.205.308.479.114.787-.177.282-.599.367-.854.167-.281-.22-.33-.512-.151-.817.166-.283.586-.351.89-.137Z" fill="#fff"/>
        <path d="M232.913,217.263c.012.258.105.55.016.766-.133.322-.466.337-.746.161-.289-.182-.378-.509-.167-.754.149-.173.463-.205.704-.299l.194.127Z" fill="#fff"/>
        <path d="M239.691,210.481c-.052-.394-.141-.638-.083-.839.023-.08.414-.15.564-.076.265.131.316.416.1.652-.096.105-.277.131-.58.264Z" fill="#fff"/>
        <path d="M237.533,216.399c-.336.001-.578.073-.685-.017-.114-.095-.099-.344-.14-.525.183-.035.406-.15.537-.083.125.063.156.315.288.625Z" fill="#fff"/>
        <path d="M232.504,213.574c.311-.003.533-.071.634.011.107.086.099.315.141.481-.18.039-.386.148-.53.093-.106-.04-.132-.294-.245-.585Z" fill="#fff"/>
        <path d="M222.786,210.03c.331-.001.563-.069.654.015.101.094.135.351.08.49-.032.082-.339.145-.443.084-.12-.071-.153-.289-.291-.589Z" fill="#fff"/>
        <path d="M230.227,207.592c.007-.317-.053-.542.032-.635.092-.101.319-.079.487-.11.031.17.133.376.071.498-.056.111-.292.132-.59.247Z" fill="#fff"/>
        <path d="M231.377,204.596c-.012-.283-.08-.487-.007-.576.077-.094.334-.152.428-.092.094.06.151.316.099.427-.049.104-.262.13-.52.241Z" fill="#fff"/>
        <path d="M235.401,219.486c-.005-.284-.065-.476.006-.579.061-.09.34-.152.398-.096.101.096.174.32.128.439-.039.1-.265.126-.532.236Z" fill="#fff"/>
        <path d="M232.772,219.077c0,.289.062.496-.014.584-.084.097-.294.086-.449.121-.03-.156-.126-.345-.07-.459.052-.106.266-.132.533-.246Z" fill="#fff"/>
        <path d="M240.679,200.258c-.004-.227-.064-.433.004-.493.099-.087.291-.069.443-.096.018.155.09.335.034.456-.037.081-.257.077-.481.134Z" fill="#fff"/>
        <path d="M247.368,202.636c-.244-.013-.454.034-.516-.041-.083-.1-.05-.296-.067-.45.144-.006.329-.069.422-.003.093.066.093.261.162.494Z" fill="#fff"/>
        <path d="M234.521,213.82c.224-.016.405-.08.468-.02.091.086.095.263.136.401-.142.02-.303.09-.419.045-.082-.032-.103-.22-.186-.426Z" fill="#fff"/>
        <path d="M237.203,211.635c.217-.011.368-.059.47-.009.062.031.102.279.059.314-.091.073-.256.114-.366.083-.067-.019-.088-.198-.162-.388Z" fill="#fff"/>
      </g>
      <g>
        <path d="M252.087,218.392c-.094.3-.416.365-.591.278-.209-.103-.31-.346-.221-.554.093-.22.343-.322.565-.229.036.015.069.036.104.051.299.134.309.164.143.454Z" fill="#fff"/>
        <path d="M247.689,213.268c.188.098.262.327.168.519-.099.202-.335.278-.53.171-.183-.101-.254-.337-.158-.524.097-.186.334-.262.519-.165Z" fill="#fff"/>
        <path d="M247.244,217.898c.157.083.195.234.104.415-.087.175-.293.246-.46.158-.162-.085-.221-.286-.132-.451.093-.173.296-.224.487-.122Z" fill="#fff"/>
        <path d="M247.621,220.273c-.16-.089-.216-.279-.128-.434.087-.153.282-.206.439-.119.17.094.235.293.148.447-.088.155-.287.201-.459.106Z" fill="#fff"/>
        <path d="M250.296,216.404c.157.082.221.279.141.435-.081.158-.276.22-.434.136-.16-.085-.221-.273-.139-.434.082-.162.271-.222.432-.138Z" fill="#fff"/>
        <path d="M251.618,221.372c.146.083.195.277.106.424-.084.14-.264.189-.409.112-.153-.082-.205-.266-.119-.419.084-.15.272-.202.421-.117Z" fill="#fff"/>
        <path d="M245.629,213.787c.083-.145.257-.193.405-.113.154.083.205.268.117.419-.084.143-.261.193-.406.114-.153-.084-.203-.267-.115-.42Z" fill="#fff"/>
        <path d="M249.757,221.293c-.137-.078-.186-.242-.11-.367.079-.129.263-.178.393-.105.134.076.178.234.102.369-.078.14-.244.184-.386.103Z" fill="#fff"/>
        <path d="M248.973,212.48c.039.022.082.039.118.066.111.081.138.188.06.302-.079.116-.192.122-.305.051-.059-.037-.106-.094-.165-.133-.107-.072-.151-.164-.081-.279.072-.117.176-.113.285-.049.028.016.056.031.085.047l.003-.005Z" fill="#fff"/>
        <path d="M245.191,218.834c-.136-.07-.193-.234-.126-.362.068-.129.255-.184.389-.112.126.067.178.245.108.37-.072.128-.236.174-.371.105Z" fill="#fff"/>
        <path d="M253.581,214.246c.076-.151.219-.212.352-.151.125.058.179.222.116.35-.064.129-.339.216-.464.147-.099-.055-.1-.155-.004-.346Z" fill="#fff"/>
        <path d="M253.967,216.34c-.13-.076-.174-.245-.09-.373.088-.134.212-.167.356-.096.138.068.181.232.104.368-.076.134-.239.179-.37.102Z" fill="#fff"/>
        <path d="M252.052,212.403c.124.075.164.252.088.379-.078.13-.227.168-.354.09-.128-.079-.17-.249-.093-.375.073-.12.243-.164.36-.094Z" fill="#fff"/>
        <path d="M248.816,214.528c.068-.123.231-.174.354-.11.13.067.176.241.1.371-.073.123-.235.167-.356.097-.12-.069-.165-.234-.098-.358Z" fill="#fff"/>
        <path d="M251.913,216.097c-.074.101-.181.14-.311.073-.119-.061-.168-.227-.097-.336.078-.12.193-.15.321-.089.119.057.161.222.086.351Z" fill="#fff"/>
        <path d="M245.996,215.701c-.103.014-.216.061-.306.033-.134-.042-.151-.174-.09-.293.062-.122.19-.169.296-.093.075.053.098.178.145.271l-.044.082Z" fill="#fff"/>
        <path d="M248.947,218.172c.156-.035.25-.079.333-.063.033.006.075.16.05.223-.043.111-.155.141-.257.063-.045-.035-.062-.106-.126-.223Z" fill="#fff"/>
        <path d="M246.504,217.518c-.012-.134-.049-.229-.017-.275.034-.049.134-.052.205-.075.021.072.074.157.052.212-.021.052-.121.073-.24.137Z" fill="#fff"/>
        <path d="M247.457,215.407c.012.124.047.21.018.254-.031.046-.122.051-.187.073-.022-.07-.073-.149-.056-.209.012-.044.113-.063.225-.119Z" fill="#fff"/>
        <path d="M248.533,211.396c.012.132.047.223.017.262-.034.044-.136.066-.193.049-.034-.01-.07-.13-.049-.174.024-.051.11-.071.225-.137Z" fill="#fff"/>
        <path d="M249.769,214.286c.127-.008.215-.04.255-.01.044.033.043.125.061.191-.067.018-.145.067-.197.046-.047-.019-.063-.112-.12-.227Z" fill="#fff"/>
        <path d="M251.008,214.641c.113-.015.192-.049.23-.023.04.028.072.128.052.168-.021.04-.121.072-.167.055-.043-.016-.061-.1-.115-.2Z" fill="#fff"/>
        <path d="M245.195,216.774c.113-.012.188-.043.232-.018.038.021.073.13.052.156-.035.044-.122.081-.171.067-.041-.012-.06-.102-.113-.205Z" fill="#fff"/>
        <path d="M245.266,215.708c-.116.011-.196.042-.234.015-.042-.03-.045-.115-.064-.175.061-.017.133-.062.181-.044.044.017.062.102.117.205Z" fill="#fff"/>
        <path d="M253.07,218.208c.091-.01.171-.041.197-.016.038.037.038.114.054.174-.061.013-.131.048-.181.03-.034-.012-.04-.1-.07-.188Z" fill="#fff"/>
        <path d="M252.354,220.966c-.003-.098-.03-.18-.002-.208.037-.037.117-.031.178-.043.008.058.039.129.016.169-.023.039-.101.046-.192.082Z" fill="#fff"/>
        <path d="M247.43,216.223c.014.089.046.159.025.187-.031.039-.102.047-.156.069-.013-.056-.047-.118-.033-.166.01-.034.085-.049.164-.089Z" fill="#fff"/>
        <path d="M248.398,217.218c.012.087.037.145.02.187-.01.026-.108.051-.124.035-.033-.034-.055-.098-.046-.144.005-.027.076-.042.149-.078Z" fill="#fff"/>
      </g>
    </g>
  </g>
</svg>