<?xml version="1.0" encoding="UTF-8"?><svg id="bateau_01" xmlns="http://www.w3.org/2000/svg" xmlns:xlink="http://www.w3.org/1999/xlink" viewBox="0 0 300 300"><defs><style>.cls-1{fill:none;}.cls-2{filter:url(#drop-shadow-1);}.cls-3{fill:#a384bb;}.cls-4{fill:#336a9b;}.cls-5{clip-path:url(#clippath);}</style><clipPath id="clippath"><path class="cls-1" d="M158.99,142.87H47.06v92.76c1.89.35,3.97.55,6.16.55,5.08,0,9.57-1.04,12.41-2.65.14,0,.28-.01.41-.02,1.53,1.62,3.96,2.67,6.71,2.67s5.18-1.05,6.71-2.67c1.96,1.62,5.06,2.67,8.57,2.67,2.89,0,5.51-.71,7.43-1.87,2.25,1.16,5.31,1.87,8.68,1.87,2.91,0,5.58-.53,7.7-1.42.52.89,1.18,1.42,1.9,1.42s1.35-.52,1.87-1.38c2.11.86,4.74,1.38,7.61,1.38,3.75,0,7.1-.88,9.39-2.27,1.96,1.39,4.84,2.27,8.04,2.27,2.98,0,5.67-.76,7.61-1.97,2.27,1.22,5.41,1.97,8.89,1.97.62,0,1.23-.04,1.82-.08v-93.22Z"/></clipPath><filter id="drop-shadow-1" x="53.32" y="160.32" width="99.4" height="94.47" filterUnits="userSpaceOnUse"><feOffset dx="-1.22" dy="0"/><feGaussianBlur result="blur" stdDeviation="0"/><feFlood flood-color="#42496f" flood-opacity="1"/><feComposite in2="blur" operator="in"/><feComposite in="SourceGraphic"/></filter></defs><g class="cls-5"><g class="cls-2"><rect class="cls-4" x="41.44" y="199.32" width="90.34" height="1.44" rx=".72" ry=".72" transform="translate(-130.46 180.11) rotate(-61.34)"/><rect class="cls-3" x="45.67" y="229.02" width="44.91" height="10.79" rx="5.4" ry="5.4" transform="translate(-170.25 181.78) rotate(-61.34)"/><rect class="cls-4" x="85.52" y="199.32" width="90.34" height="1.44" rx=".72" ry=".72" transform="translate(-107.52 218.79) rotate(-61.34)"/><rect class="cls-3" x="89.75" y="229.02" width="44.91" height="10.79" rx="5.4" ry="5.4" transform="translate(-147.31 220.46) rotate(-61.34)"/></g></g></svg>