<?xml version="1.0" encoding="UTF-8"?>
<svg xmlns="http://www.w3.org/2000/svg" width="300" height="300" xmlns:xlink="http://www.w3.org/1999/xlink" viewBox="0 0 300 300">
  <defs>
    <filter id="b" data-name="drop-shadow-3" x="72.874" y="46.652" width="105.449" height="135.032" filterUnits="userSpaceOnUse">
      <feOffset dx="-1.219" dy="0"/>
      <feGaussianBlur result="c" stdDeviation="0"/>
      <feFlood flood-color="#42496f" flood-opacity="1"/>
      <feComposite in2="c" operator="in"/>
      <feComposite in="SourceGraphic"/>
    </filter>
  </defs>
  <g isolation="isolate">
    <g id="a" data-name="bateau 08">
      <g filter="url(#b)">
        <path d="M135.331,181.684s-5.916-81.718-16.385-133.877c-.136-.677-.731-1.156-1.421-1.156h0c-.872,0-1.547.758-1.437,1.623,1.595,12.536,12.023,94.466,12.023,133.409h7.221Z" fill="#ffd66e"/>
        <path d="M132.88,152.798l-5.904.724c.199,2.988.375,5.905.527,8.737,1.959-.668,4.127-1.474,6.027-2.34-.2-2.245-.417-4.621-.65-7.121Z" fill="#42496f"/>
        <g>
          <path d="M173.435,155.644c-28.878,0-57.756,0-86.635,0,.684-27.046-2.118-52.238-8.431-78.542,28.878,0,57.756,0,86.635,0,6.312,26.304,9.114,51.496,8.431,78.542Z" fill="#e86170"/>
          <g>
            <path d="M126.071,121c-.85-2.489-1.821-4.736-3.067-7.113.418,1.571.791,3.182.796,4.771.003.769-.066,1.587-.415,2.256-.222.427-.311.644-.729.327-.586-.445-.754-1.37-.931-2.02.156,1.815-.225,3.622-1.079,5.154-.368.661-1.083,1.342-1.81,1.001-.376-.176-.6-.574-.761-.956-.345-.82-.527-1.698-.532-2.563-.603,2.305-2.288,4.233-4.476,5.165-.192.082-.401.158-.613.116-.577-.114-.69-.899-.655-1.477.426-7.02.558-14.056-.09-21.121-.195-2.128-.451-4.362.342-6.174.793-1.812,3.061-2.972,5.094-1.886,1.657.885,2.462,2.796,3.063,4.505.641-.02,1.331.029,2.005-.02-1.407-2.864-2.48-6.13-3.099-9.133-.182-.882-.315-1.843.133-2.499.317-.464.878-.698,1.443-.864,1.607-.474,3.418-.533,5.236-.169.757.151,1.532.382,2.218.828,2.002,1.302,2.526,3.84,2.772,5.993-.422-.4-.865-.812-1.391-1.021-.526-.209-1.159-.147-1.382.282-.141.271-.096.625-.029.959.434,2.141,1.72,4.174,3.525,5.645.757,0,1.135,0,1.893,0,.023-1.709.134-3.62,1.46-4.505,1.627-1.086,4.342.074,5.785,1.886,1.443,1.812,1.941,4.046,2.403,6.174,1.535,7.065,3.246,14.101,4.659,21.121.116.578.107,1.363-.456,1.477-.207.042-.426-.034-.628-.116-2.309-.932-4.256-2.86-5.253-5.165.143.865.101,1.743-.12,2.563-.103.382-.27.78-.62.956-.678.341-1.489-.341-1.957-1.001-1.099-1.551-1.518-3.188-1.968-4.925.206.799-.43,2.23-1.18,1.68-.568-.417-.811-1.606-.948-2.215-.374-1.665-.336-3.378-.284-5.027-.689,2.377-1.231,4.645-1.639,7.134" fill="none" stroke="#fff" stroke-linecap="round" stroke-linejoin="round" stroke-width=".897"/>
            <path d="M125.88,91.439c.073.351.109.527.18.878" fill="none" stroke="#fff" stroke-linecap="round" stroke-linejoin="round" stroke-width=".897"/>
            <path d="M131.356,103.548c.509.304.958.851,1.097,1.371.117.435.145,1.058-.155,1.404-.264.305-.775.117-1.052-.188-.289-.318-.441-.727-.716-1.057.422.513.489,1.254.156,1.723-.333.469-1.036.625-1.631.361-.431-.191-.773-.557-1.099-.91-.237-.257-.475-.515-.713-.772-.056-.061-.117-.125-.194-.15-.211-.071-.328.173-.406.358-.362.861-1.64,1.1-2.495.465" fill="none" stroke="#fff" stroke-linecap="round" stroke-linejoin="round" stroke-width=".897"/>
            <path d="M127.6,91.439c.073.351.109.527.18.878" fill="none" stroke="#fff" stroke-linecap="round" stroke-linejoin="round" stroke-width=".897"/>
            <path d="M134.585,122.892c-3.768,0-5.653,0-9.421,0-.059-.728-.09-1.092-.155-1.82,3.768,0,5.653,0,9.421,0,.065.728.096,1.092.155,1.82Z" fill="none" stroke="#fff" stroke-linecap="round" stroke-linejoin="round" stroke-width=".897"/>
            <path d="M126.15,122.822c-.188,1.582-.764,3.12-.675,4.754.022.399.136,1.936.68,2.027,1.055.177,1.384-3.212,1.522-3.794-.169,1.367.018,2.802.536,4.12.223.566.801.58,1.102.068.539-.916.622-2.433.964-4.152-.054.272.118.756.17,1.038.07.385.15.77.256,1.149.182.655.408,1.476.903,1.982.694.71.794-1.285.81-1.553.054-.939-.046-1.896-.301-2.823.373,1.359.836,2.971,2.147,3.752.076.045.163.088.245.066.307-.081.234-.787.238-1.032.01-.647-.078-1.295-.235-1.933-.322-1.305-.908-2.547-1.504-3.771" fill="none" stroke="#fff" stroke-linecap="round" stroke-linejoin="round" stroke-width=".897"/>
            <path d="M125.351,124.741c-.86,2.08-1.301,3.119-2.205,5.198-.801-1.201-1.206-1.802-2.022-3.003-2.627,4.251-3.985,6.377-6.793,10.619" fill="none" stroke="#fff" stroke-linecap="round" stroke-linejoin="round" stroke-width=".897"/>
            <path d="M114.331,133.749c-.009,1.593-.019,2.388-.054,3.979,1.397-.392,2.096-.588,3.491-.98" fill="none" stroke="#fff" stroke-linecap="round" stroke-linejoin="round" stroke-width=".897"/>
            <path d="M127.387,129.393c-.391,2.255-.6,3.383-1.042,5.636-1.023-1.001-1.538-1.501-2.571-2.502-1.659,4.798-2.546,7.194-4.437,11.975" fill="none" stroke="#fff" stroke-linecap="round" stroke-linejoin="round" stroke-width=".897"/>
            <path d="M118.578,140.777c.309,1.564.458,2.345.742,3.906,1.284-.7,1.925-1.05,3.205-1.75" fill="none" stroke="#fff" stroke-linecap="round" stroke-linejoin="round" stroke-width=".897"/>
            <path d="M135.577,124.619c1.169,2.08,1.743,3.119,2.869,5.198.673-1.201,1.006-1.802,1.665-3.003,3.183,4.251,4.73,6.377,7.732,10.619" fill="none" stroke="#fff" stroke-linecap="round" stroke-linejoin="round" stroke-width=".897"/>
            <path d="M147.61,133.627c.13,1.593.189,2.389.294,3.979-1.415-.392-2.122-.588-3.539-.98" fill="none" stroke="#fff" stroke-linecap="round" stroke-linejoin="round" stroke-width=".897"/>
            <path d="M134.145,129.272c.642,2.255.951,3.383,1.542,5.636.957-1.001,1.433-1.501,2.381-2.502,2.072,4.798,3.051,7.194,4.892,11.976" fill="none" stroke="#fff" stroke-linecap="round" stroke-linejoin="round" stroke-width=".897"/>
            <path d="M143.701,140.655c-.278,1.564-.423,2.345-.726,3.907-1.276-.7-1.915-1.05-3.197-1.75" fill="none" stroke="#fff" stroke-linecap="round" stroke-linejoin="round" stroke-width=".897"/>
            <g>
              <path d="M126.707,139.801c.004.297-.113.555-.35.777-.133.122-.278.212-.431.261-.162.052-.383.077-.658.077-.394,0-.768-.093-1.122-.279-.03-.014-.045-.055-.046-.122,0-.013-.003-.134-.007-.361-.005-.228-.008-.351-.008-.368,0-.024.02-.036.062-.036h.122c.036,0,.058.014.06.036.007.066.008.144.021.214.034.178.128.332.283.464.155.132.367.197.638.197.368,0,.62-.119.756-.356.058-.107.086-.247.084-.421-.002-.157-.072-.282-.169-.377-.109-.107-.321-.233-.637-.332-.352-.11-.635-.256-.85-.437-.215-.182-.326-.454-.333-.815-.007-.335.134-.624.423-.859.223-.182.52-.273.886-.273.404,0,.722.089.956.267.032.026.051.052.055.081.025.131.041.334.047.61,0,.043-.008.063-.025.063h-.146c-.022,0-.036-.012-.042-.036-.018-.069-.04-.145-.067-.226-.04-.121-.115-.219-.223-.293-.187-.126-.424-.188-.711-.188-.22,0-.389.058-.506.176-.132.132-.192.304-.181.515.007.143.074.281.202.416.065.068.294.178.689.332.235.094.406.167.512.223.178.093.328.199.451.321.173.17.262.419.267.748Z" fill="#fff"/>
              <path d="M130.343,138.044c.006.303-.102.562-.321.778-.241.238-.589.36-1.045.36-.218,0-.427-.027-.628-.081-.016-.004-.024.008-.023.036.006.346.008.518.013.864.006.449.05.673.135.673h.469c.024,0,.036.013.036.039,0,.048,0,.073.001.121,0,.024-.007.036-.023.036h-1.763c-.016,0-.024-.008-.024-.024,0-.053,0-.08-.001-.133,0-.026.01-.039.029-.039.172,0,.258,0,.43,0,.034,0,.05-.024.05-.071-.012-1.191-.022-1.787-.049-2.98-.008-.36-.038-.54-.087-.54h-.347c-.028,0-.042-.008-.042-.024-.001-.056-.002-.084-.003-.14,0-.019.011-.029.035-.029.312-.013.468-.02.78-.033.103-.004.368-.006.795-.006.233,0,.43.014.589.039.236.037.463.147.667.337.211.196.32.47.327.817ZM129.717,138.085c-.005-.24-.107-.469-.307-.688-.2-.219-.517-.328-.951-.328-.069,0-.111.005-.123.013-.012.009-.021.03-.026.061-.009.121-.008.417.002.888,0,.018.002.153.005.406.003.254.004.387.004.401,0,.027.014.045.042.053.136.045.292.068.47.068.305,0,.524-.069.658-.207.156-.159.23-.381.225-.668Z" fill="#fff"/>
              <path d="M135.439,142.022c0,.036-.175.068-.525.095-.243.019-.475.027-.694.027-.087,0-.162-.018-.226-.053-.204-.121-.422-.288-.653-.504-.161-.145-.367-.355-.619-.632-.024-.036-.068-.054-.128-.056-.303-.008-.575-.059-.803-.163-.202-.092-.362-.199-.478-.324-.32-.335-.485-.82-.495-1.456-.005-.316.032-.594.112-.835.099-.299.239-.539.412-.721.166-.175.397-.323.693-.439.269-.106.559-.158.872-.158.463,0,.825.058,1.082.175.223.102.43.273.618.511.263.333.399.747.408,1.242.011.613-.153,1.113-.488,1.5-.16.186-.356.341-.589.463-.177.094-.352.152-.524.176-.055.008-.071.024-.047.047.172.17.431.361.776.572.216.133.418.235.603.306.186.071.341.107.465.107.105,0,.173-.004.199-.006.018-.001.03.009.03.03,0,.039,0,.058,0,.097ZM134.306,138.913c-.005-.304-.037-.55-.094-.736-.068-.225-.185-.436-.343-.632-.128-.159-.293-.284-.492-.371-.214-.094-.428-.14-.642-.14-.257,0-.457.047-.599.14-.202.132-.353.322-.45.57-.107.274-.156.606-.149.99.01.575.116,1.03.318,1.369.121.199.306.362.555.487.187.093.398.139.634.139.245,0,.477-.076.695-.23.167-.117.307-.321.423-.603.101-.246.152-.574.145-.983Z" fill="#fff"/>
              <path d="M139.523,140.833c0,.024-.009.036-.026.036-.423,0-.634,0-1.057,0-.047,0-.086-.012-.116-.036-.106-.089-.366-.4-.782-.932-.189-.241-.353-.507-.493-.795-.014-.032-.03-.048-.048-.048-.109-.009-.245-.023-.407-.039-.034-.004-.05.012-.05.045,0-.036.002.057.007.275.005.221.01.447.013.684.005.432.054.649.147.649h.487c.022,0,.033.011.033.032,0,.054,0,.08.001.134,0,.02-.009.03-.026.03-.661,0-.992,0-1.653,0-.028,0-.042-.01-.042-.03,0-.051,0-.076-.001-.127,0-.026.011-.039.035-.039h.347c.036,0,.053-.03.053-.089-.007-.63-.011-.946-.021-1.576-.008-.462-.012-.692-.022-1.154-.016-.534-.058-.802-.125-.802h-.341c-.02,0-.03-.009-.03-.03-.001-.053-.002-.08-.003-.133,0-.02.007-.031.023-.033.374-.01.561-.014.934-.024.313-.008.548-.012.706-.012.17,0,.312.008.425.024.291.041.536.145.732.311.222.189.336.422.342.698.007.312-.095.576-.305.79-.121.122-.309.23-.567.324-.016.007-.022.019-.017.036.179.31.388.592.627.845.187.196.311.325.373.389.134.132.251.23.348.297.133.092.282.139.444.139.037,0,.057.013.057.039,0,.048,0,.073.001.121ZM137.916,138.011c-.005-.262-.098-.478-.275-.644-.234-.217-.574-.327-1.017-.327-.069,0-.112.024-.114.059-.036.49.016.887.011,1.027.005.253.008.379.012.632,0,.032.016.052.046.057.074.013.187.016.333.012.197-.005.344-.023.438-.05.386-.107.575-.363.567-.767Z" fill="#fff"/>
            </g>
          </g>
          <path d="M95.696,77.102c6.313,26.304,9.115,51.496,8.431,78.542" fill="none" mix-blend-mode="multiply" opacity=".5" stroke="#9bc8ec" stroke-miterlimit="10" stroke-width="1.219"/>
          <path d="M113.023,77.102c6.313,26.304,9.115,51.496,8.431,78.543" fill="none" mix-blend-mode="multiply" opacity=".5" stroke="#9bc8ec" stroke-miterlimit="10" stroke-width="1.219"/>
          <path d="M130.35,77.102c6.313,26.304,9.115,51.496,8.431,78.543" fill="none" mix-blend-mode="multiply" opacity=".5" stroke="#9bc8ec" stroke-miterlimit="10" stroke-width="1.219"/>
          <path d="M147.677,77.102c6.313,26.304,9.115,51.496,8.431,78.542" fill="none" mix-blend-mode="multiply" opacity=".5" stroke="#9bc8ec" stroke-miterlimit="10" stroke-width="1.219"/>
          <path d="M173.435,155.644c-28.878,0-57.756,0-86.635,0,.566-9.88.46-20.063-.296-29.929,22.933,19.088,58.129,24.026,87.115,25.531-.058,1.761-.095,2.641-.185,4.398Z" fill="#a384bb" mix-blend-mode="multiply" opacity=".25"/>
        </g>
        <rect x="83.073" y="154.167" width="95.251" height="2.955" rx="1.478" ry="1.478" fill="#336a9b"/>
        <rect x="74.093" y="75.625" width="95.251" height="2.955" rx="1.478" ry="1.478" fill="#336a9b"/>
      </g>
    </g>
  </g>
</svg>