<?xml version="1.0" encoding="UTF-8"?>
<svg id="a" data-name="bateau 01" xmlns="http://www.w3.org/2000/svg" width="300" height="300" xmlns:xlink="http://www.w3.org/1999/xlink" viewBox="0 0 300 300">
  <defs>
    <filter id="b" data-name="drop-shadow-2" x="114.85" y="44.088" width="48.779" height="30.831" filterUnits="userSpaceOnUse">
      <feOffset dx="-1.219" dy="0"/>
      <feGaussianBlur result="c" stdDeviation="0"/>
      <feFlood flood-color="#42496f" flood-opacity="1"/>
      <feComposite in2="c" operator="in"/>
      <feComposite in="SourceGraphic"/>
    </filter>
  </defs>
  <g filter="url(#b)">
    <path d="M122.967,70.538l-4.028.977c.131,1.105.264,2.231.4,3.388,1.843.102,3.201-.312,4.172-.883-.179-1.167-.361-2.326-.544-3.482Z" fill="#42496f"/>
    <g>
      <path d="M136.548,71.693l-.098-5.331h1.996s1.245,4.264-1.898,5.331Z" fill="#42496f"/>
      <g>
        <path d="M116.069,51.354s22.62-12.88,23.003-4.343c0,0-.192,3.165-.192,6.331,6.331-2.686,16.211-3.07,21.103-2.686-8.249,2.974-13.046,8.633-13.046,8.633,0,0,12.854-.288,16.691.576-10.552,3.933-23.022,14.58-26.091,13.046-3.07-1.535,2.206-4.125-.576-5.372-2.782-1.247-18.27,6.545-18.27,6.545l-2.622-22.73Z" fill="#6498d1"/>
        <line x1="128.513" y1="52.022" x2="136.45" y2="64.621" fill="none" stroke="#42496f" stroke-linecap="round" stroke-linejoin="round" stroke-width="1.219"/>
        <path d="M137.772,55.429c-1.094.054-3.465.318-5.933,1.873s-3.73,3.58-4.251,4.543l-4.167-6.615c1.094-.054,3.465-.318,5.933-1.873s3.73-3.58,4.251-4.543l4.167,6.615Z" fill="none" stroke="#42496f" stroke-linecap="round" stroke-linejoin="round" stroke-width="1.219"/>
        <path d="M138.88,53.342v8.009s2.691-4.272,2.652-8.949l-2.652.94Z" fill="#42496f"/>
      </g>
    </g>
  </g>
</svg>