<?xml version="1.0" encoding="UTF-8"?><svg xmlns="http://www.w3.org/2000/svg" xmlns:xlink="http://www.w3.org/1999/xlink" viewBox="0 0 300 300"><defs><style>.cls-1{stroke:#42496f;}.cls-1,.cls-2,.cls-3{fill:none;}.cls-1,.cls-3{stroke-linecap:round;stroke-linejoin:round;stroke-width:.61px;}.cls-4{fill:#ffd66e;}.cls-3{stroke:#f4af13;}.cls-5{clip-path:url(#clippath-1);}.cls-6{filter:url(#drop-shadow-1);}.cls-7{isolation:isolate;}.cls-8{fill:#6498d1;}.cls-9{clip-path:url(#clippath-2);}.cls-10{fill:#42496f;}.cls-11{clip-path:url(#clippath);}.cls-12{mix-blend-mode:multiply;opacity:.5;}</style><filter id="drop-shadow-1" x="169.67" y="129.54" width="62.19" height="66.94" filterUnits="userSpaceOnUse"><feOffset dx="-1.22" dy="0"/><feGaussianBlur result="blur" stdDeviation="0"/><feFlood flood-color="#42496f" flood-opacity="1"/><feComposite in2="blur" operator="in"/><feComposite in="SourceGraphic"/></filter><clipPath id="clippath"><path class="cls-2" d="M202.44,136.34c-5.51,1.81-10.34,8.42-8.53,15.62,1.81,7.19,13.25,7.19,13.25,7.19l-4.72-22.81Z"/></clipPath><clipPath id="clippath-1"><path class="cls-2" d="M210.03,161.41s-19.86,3.58-32.09,14.54c-12.23,10.96,22.76,2.64,27.76-.25,4.99-2.88,4.33-14.29,4.33-14.29Z"/></clipPath><clipPath id="clippath-2"><path class="cls-2" d="M209.32,149.16l-3.36,4.22s1.38,6.35,9.55,3.18l-.94-5.36s-3.91,0-5.24-2.04Z"/></clipPath></defs><g class="cls-7"><g id="bateau_07"><g class="cls-6"><path class="cls-4" d="M202.44,136.34c-5.51,1.81-10.34,8.42-8.53,15.62,1.81,7.19,13.25,7.19,13.25,7.19l-4.72-22.81Z"/><g class="cls-11"><g class="cls-12"><line class="cls-3" x1="201.43" y1="140.15" x2="187.92" y2="145.36"/><line class="cls-3" x1="201.27" y1="143.21" x2="188.85" y2="153.04"/><line class="cls-3" x1="201.89" y1="146.28" x2="191.76" y2="158.71"/><line class="cls-3" x1="202.66" y1="149.81" x2="197.29" y2="160.4"/><line class="cls-3" x1="204.5" y1="153.96" x2="202.66" y2="160.4"/></g></g><path class="cls-8" d="M194.03,193.01s6.29-9.32,9.48-16.04,5.94-14.4-.06-22.66c-6.01-8.26-5.87-20.39,4.46-23.75,10.32-3.36,14.6,2.83,18.95-.15-.47,2.38-3.12,5.83-3.12,5.83,3.36.82,6.44-1.47,6.44-1.47.07,4.36-4.43,7.39-6.55,11.05-4.34,7.47,10.72,7.14,7.89,23.09-4.17,23.55-35.76,27.54-35.76,27.54-2.19.2-2.84-1.64-1.72-3.45Z"/><path class="cls-4" d="M210.03,161.41s-19.86,3.58-32.09,14.54c-12.23,10.96,22.76,2.64,27.76-.25,4.99-2.88,4.33-14.29,4.33-14.29Z"/><g class="cls-5"><g class="cls-12"><line class="cls-3" x1="213.78" y1="161.86" x2="172.12" y2="177.89"/><line class="cls-3" x1="212.32" y1="164.7" x2="171.2" y2="183.11"/><line class="cls-3" x1="211.56" y1="168.23" x2="183.78" y2="184.49"/></g></g><path class="cls-10" d="M209.32,149.16l-2.86,4.58s2.13,6.89,9.92,3.44l-1.58-5.81s-3.91,0-5.49-2.21Z"/><path class="cls-4" d="M209.32,149.16l-3.36,4.22s1.38,6.35,9.55,3.18l-.94-5.36s-3.91,0-5.24-2.04Z"/><g class="cls-9"><g class="cls-12"><line class="cls-3" x1="210.94" y1="149.2" x2="205.88" y2="157.18"/><line class="cls-3" x1="212.48" y1="148.89" x2="209.71" y2="159.02"/><line class="cls-3" x1="213.7" y1="149.51" x2="213.7" y2="158.56"/></g></g><path class="cls-1" d="M207.99,147.12s1.87,5.41,9.06,3.76"/><path class="cls-1" d="M214.45,140.04s-3.56-3.17-1.94-4.48,4.53,2.24,4.53,2.24"/><path class="cls-1" d="M219.26,136.34s-3.08-3.14-1.89-4.02c1.19-.88,4.08,2.01,4.08,2.01"/></g></g></g></svg>