<?xml version="1.0" encoding="UTF-8"?>
<svg xmlns="http://www.w3.org/2000/svg" width="300" height="300" xmlns:xlink="http://www.w3.org/1999/xlink" viewBox="0 0 300 300">
  <defs>
    <filter id="b" data-name="drop-shadow-2" x="116.305" y="32.918" width="95.447" height="30.201" filterUnits="userSpaceOnUse">
      <feOffset dx="-1.219" dy="0"/>
      <feGaussianBlur result="c" stdDeviation="0"/>
      <feFlood flood-color="#42496f" flood-opacity="1"/>
      <feComposite in2="c" operator="in"/>
      <feComposite in="SourceGraphic"/>
    </filter>
    <clipPath id="d">
      <path d="M128.247,42.021s-1.925,2.2,0,11.002c0,0,6.328,3.713,22.557,3.301,16.228-.413,27.641-7.395,34.93-7.136,7.289.259,13.753,2.184,21.455-.016,0,0-6.697-3.576-18.752-3.576,7.474-2.063,14.488-.963,20.952-1.925,0,0-2.063-2.751-9.352-3.026s-11.39,1.513-15.528,1.375c-4.139-.138-24.101-3.323-34.965-3.185s-21.297,3.185-21.297,3.185Z" fill="none"/>
    </clipPath>
  </defs>
  <g isolation="isolate">
    <g id="a" data-name="bateau 09">
      <g filter="url(#b)">
        <polyline points="128.777 42.931 117.828 48.306 128.671 52.298" fill="none" stroke="#42496f" stroke-linecap="round" stroke-linejoin="round" stroke-width=".61"/>
        <path d="M128.247,42.021s-1.925,2.2,0,11.002c0,0,6.328,3.713,22.557,3.301,16.228-.413,27.641-7.395,34.93-7.136,7.289.259,13.753,2.184,21.455-.016,0,0-6.697-3.576-18.752-3.576,7.474-2.063,14.488-.963,20.952-1.925,0,0-2.063-2.751-9.352-3.026s-11.39,1.513-15.528,1.375c-4.139-.138-24.101-3.323-34.965-3.185s-21.297,3.185-21.297,3.185Z" fill="#efa78e"/>
        <g clip-path="url(#d)">
          <path d="M143.485,63.119s5.741-12.898,2.674-30.201l-24.066,3.775-1.416,25.167,22.808,1.258Z" fill="#fff" opacity=".5"/>
          <path d="M188.629,37.008s2.91,3.932,1.73,16.516l18.876-1.258,2.517-14.471-23.123-.786Z" fill="#fff" opacity=".5"/>
          <g>
            <path d="M148.21,55.226c1.585,0,2.871-1.285,2.871-2.871,0-1.049-.568-1.957-1.408-2.458.84-.501,1.408-1.409,1.408-2.458s-.568-1.957-1.408-2.458c.84-.501,1.408-1.409,1.408-2.458,0-1.585-1.285-2.871-2.871-2.871" fill="none" stroke="#ffd66e" stroke-linecap="round" stroke-linejoin="round" stroke-width=".61"/>
            <path d="M145.414,57.771c1.586,0,2.871-1.285,2.871-2.871,0-1.049-.568-1.957-1.408-2.458.84-.501,1.408-1.409,1.408-2.458s-.568-1.957-1.408-2.458c.84-.501,1.408-1.409,1.408-2.458s-.568-1.957-1.408-2.458c.84-.501,1.408-1.409,1.408-2.458,0-1.585-1.285-2.871-2.871-2.871" fill="none" stroke="#ffd66e" stroke-linecap="round" stroke-linejoin="round" stroke-width=".61"/>
            <path d="M153.626,55.226c1.585,0,2.871-1.285,2.871-2.871,0-1.049-.568-1.957-1.408-2.458.84-.501,1.408-1.409,1.408-2.458s-.568-1.957-1.408-2.458c.84-.501,1.408-1.409,1.408-2.458,0-1.585-1.285-2.871-2.871-2.871" fill="none" stroke="#ffd66e" stroke-linecap="round" stroke-linejoin="round" stroke-width=".61"/>
            <path d="M150.83,57.771c1.586,0,2.871-1.285,2.871-2.871,0-1.049-.568-1.957-1.408-2.458.84-.501,1.408-1.409,1.408-2.458s-.568-1.957-1.408-2.458c.84-.501,1.408-1.409,1.408-2.458s-.568-1.957-1.408-2.458c.84-.501,1.408-1.409,1.408-2.458,0-1.585-1.285-2.871-2.871-2.871" fill="none" stroke="#ffd66e" stroke-linecap="round" stroke-linejoin="round" stroke-width=".61"/>
            <path d="M159.042,55.226c1.585,0,2.871-1.285,2.871-2.871,0-1.049-.568-1.957-1.408-2.458.84-.501,1.408-1.409,1.408-2.458s-.568-1.957-1.408-2.458c.84-.501,1.408-1.409,1.408-2.458,0-1.585-1.285-2.871-2.871-2.871" fill="none" stroke="#ffd66e" stroke-linecap="round" stroke-linejoin="round" stroke-width=".61"/>
            <path d="M156.247,57.771c1.586,0,2.871-1.285,2.871-2.871,0-1.049-.568-1.957-1.408-2.458.84-.501,1.408-1.409,1.408-2.458s-.568-1.957-1.408-2.458c.84-.501,1.408-1.409,1.408-2.458s-.568-1.957-1.408-2.458c.84-.501,1.408-1.409,1.408-2.458,0-1.585-1.285-2.871-2.871-2.871" fill="none" stroke="#ffd66e" stroke-linecap="round" stroke-linejoin="round" stroke-width=".61"/>
            <path d="M164.459,55.226c1.585,0,2.871-1.285,2.871-2.871,0-1.049-.568-1.957-1.408-2.458.84-.501,1.408-1.409,1.408-2.458s-.568-1.957-1.408-2.458c.84-.501,1.408-1.409,1.408-2.458,0-1.585-1.285-2.871-2.871-2.871" fill="none" stroke="#ffd66e" stroke-linecap="round" stroke-linejoin="round" stroke-width=".61"/>
            <path d="M161.663,57.771c1.586,0,2.871-1.285,2.871-2.871,0-1.049-.568-1.957-1.408-2.458.84-.501,1.408-1.409,1.408-2.458s-.568-1.957-1.408-2.458c.84-.501,1.408-1.409,1.408-2.458s-.568-1.957-1.408-2.458c.84-.501,1.408-1.409,1.408-2.458,0-1.585-1.285-2.871-2.871-2.871" fill="none" stroke="#ffd66e" stroke-linecap="round" stroke-linejoin="round" stroke-width=".61"/>
            <path d="M169.875,55.226c1.585,0,2.871-1.285,2.871-2.871,0-1.049-.568-1.957-1.408-2.458.84-.501,1.408-1.409,1.408-2.458s-.568-1.957-1.408-2.458c.84-.501,1.408-1.409,1.408-2.458,0-1.585-1.285-2.871-2.871-2.871" fill="none" stroke="#ffd66e" stroke-linecap="round" stroke-linejoin="round" stroke-width=".61"/>
            <path d="M167.08,57.771c1.586,0,2.871-1.285,2.871-2.871,0-1.049-.568-1.957-1.408-2.458.84-.501,1.408-1.409,1.408-2.458s-.568-1.957-1.408-2.458c.84-.501,1.408-1.409,1.408-2.458s-.568-1.957-1.408-2.458c.84-.501,1.408-1.409,1.408-2.458,0-1.585-1.285-2.871-2.871-2.871" fill="none" stroke="#ffd66e" stroke-linecap="round" stroke-linejoin="round" stroke-width=".61"/>
            <path d="M175.291,55.226c1.585,0,2.871-1.285,2.871-2.871,0-1.049-.568-1.957-1.408-2.458.84-.501,1.408-1.409,1.408-2.458s-.568-1.957-1.408-2.458c.84-.501,1.408-1.409,1.408-2.458,0-1.585-1.285-2.871-2.871-2.871" fill="none" stroke="#ffd66e" stroke-linecap="round" stroke-linejoin="round" stroke-width=".61"/>
            <path d="M172.496,57.771c1.586,0,2.871-1.285,2.871-2.871,0-1.049-.568-1.957-1.408-2.458.84-.501,1.408-1.409,1.408-2.458s-.568-1.957-1.408-2.458c.84-.501,1.408-1.409,1.408-2.458s-.568-1.957-1.408-2.458c.84-.501,1.408-1.409,1.408-2.458,0-1.585-1.285-2.871-2.871-2.871" fill="none" stroke="#ffd66e" stroke-linecap="round" stroke-linejoin="round" stroke-width=".61"/>
            <path d="M180.708,55.226c1.585,0,2.871-1.285,2.871-2.871,0-1.049-.568-1.957-1.408-2.458.84-.501,1.408-1.409,1.408-2.458s-.568-1.957-1.408-2.458c.84-.501,1.408-1.409,1.408-2.458,0-1.585-1.285-2.871-2.871-2.871" fill="none" stroke="#ffd66e" stroke-linecap="round" stroke-linejoin="round" stroke-width=".61"/>
            <path d="M177.912,57.771c1.586,0,2.871-1.285,2.871-2.871,0-1.049-.568-1.957-1.408-2.458.84-.501,1.408-1.409,1.408-2.458s-.568-1.957-1.408-2.458c.84-.501,1.408-1.409,1.408-2.458s-.568-1.957-1.408-2.458c.84-.501,1.408-1.409,1.408-2.458,0-1.585-1.285-2.871-2.871-2.871" fill="none" stroke="#ffd66e" stroke-linecap="round" stroke-linejoin="round" stroke-width=".61"/>
            <path d="M186.124,55.226c1.585,0,2.871-1.285,2.871-2.871,0-1.049-.568-1.957-1.408-2.458.84-.501,1.408-1.409,1.408-2.458s-.568-1.957-1.408-2.458c.84-.501,1.408-1.409,1.408-2.458,0-1.585-1.285-2.871-2.871-2.871" fill="none" stroke="#ffd66e" stroke-linecap="round" stroke-linejoin="round" stroke-width=".61"/>
            <path d="M183.329,57.771c1.586,0,2.871-1.285,2.871-2.871,0-1.049-.568-1.957-1.408-2.458.84-.501,1.408-1.409,1.408-2.458s-.568-1.957-1.408-2.458c.84-.501,1.408-1.409,1.408-2.458s-.568-1.957-1.408-2.458c.84-.501,1.408-1.409,1.408-2.458,0-1.585-1.285-2.871-2.871-2.871" fill="none" stroke="#ffd66e" stroke-linecap="round" stroke-linejoin="round" stroke-width=".61"/>
          </g>
          <path d="M147.14,54.752s2.798,4.742,2.833,4.649,10.539-2.947,11.418-3.218c.242-1.165.301-3.426-1.331-6.277l-3.087.039-9.833,4.806Z" fill="#42496f"/>
          <path d="M128.778,42.946s1.101,6.174-.079,9.359c0,0-1.376-4.758.079-9.359Z" fill="#42496f"/>
          <path d="M202.471,51.637s-17.827-5.428-26.583-3.854c-8.756,1.575-34.441,5.001-43.501,2.464,0,0-1.936-8.044-3.003-8.037-2.474.016-1.439,11.819-1.439,11.819l24.191,6.809,50.335-9.202Z" fill="#a384bb" mix-blend-mode="multiply" opacity=".25"/>
        </g>
        <path d="M147.14,54.752l11.464,4.401s2.353-7.152,0-9.902h-8.954l-2.51,5.501Z" fill="#e86170"/>
        <circle cx="139.907" cy="49.723" r="4.09" fill="#fff"/>
        <circle cx="138.176" cy="50.064" r="1.73" fill="#42496f"/>
      </g>
    </g>
  </g>
</svg>