<?xml version="1.0" encoding="UTF-8"?>
<svg xmlns="http://www.w3.org/2000/svg" width="300" height="300" xmlns:xlink="http://www.w3.org/1999/xlink" viewBox="0 0 300 300">
  <defs>
    <filter id="b" data-name="drop-shadow-2" x="175.491" y="109.208" width="70.205" height="80.972" filterUnits="userSpaceOnUse">
      <feOffset dx="-1.219" dy="0"/>
      <feGaussianBlur result="c" stdDeviation="0"/>
      <feFlood flood-color="#42496f" flood-opacity="1"/>
      <feComposite in2="c" operator="in"/>
      <feComposite in="SourceGraphic"/>
    </filter>
    <clipPath id="d">
      <path d="M200.35,136.024c.134,6.34-14.577,8.288-14.645-5.685-.039-8.119,8.594-10.328,15.921-9.35,5.283.705,6.877,3.247,12.428,3.456,6.689,4.628-1.058,21.095-10.552,16.42,0,0-.868-3.522-3.152-4.84Z" fill="none"/>
    </clipPath>
  </defs>
  <g isolation="isolate">
    <g id="a" data-name="bateau 02">
      <g filter="url(#b)">
        <path d="M200.938,135.033c.129,6.348-14.049,7.397-14.113-6.58-.038-8.121,8.283-9.803,15.343-8.377,5.091,1.028,6.628,3.667,11.977,4.215,6.446,5.037-1.019,21.031-10.169,15.775,0,0-.836-3.575-3.038-5.033Z" fill="#42496f"/>
        <path d="M204.851,182.617s9.109-24.593,15.182-24.593c3.326,0,8.406,1.876,14.336,1.135,6.421-.801,11.23-6.931,11.327-15.464.023-2.003-4.313-18.438-17.871-20.812-35.201-6.166-19.481,22.652-26.468,29.867-3.74,3.862-7.57,3.582-11.799,6.036-8.188,4.749-4.412,17.36,5.044,16.932l.318-.015s.238,6.666,9.93,6.914Z" fill="#b1ddea"/>
        <path d="M204.851,182.617s9.109-24.593,15.182-24.593c3.326,0,8.406,1.876,14.336,1.135,6.421-.801,11.23-6.931,11.327-15.464.023-2.003-4.313-18.438-17.871-20.812-35.201-6.166-19.481,22.652-26.468,29.867-3.74,3.862-7.57,3.582-11.799,6.036-8.188,4.749-4.412,17.36,5.044,16.932l.318-.015s.238,6.666,9.93,6.914Z" fill="#fff" opacity=".8"/>
        <path d="M204.851,182.617s2.346-6.33,5.45-12.568c-.89-.173-1.819-.222-2.769-.107-.59.072-1.158.203-1.702.38-.306-.612-.967-.999-1.685-.912-.379.046-.708.221-.96.47-.966-1.07-2.18-1.897-3.54-2.403.128-.331.188-.693.142-1.071-.095-.775-.576-1.408-1.227-1.732,1.129-1.713,1.683-3.817,1.416-6.013-.149-1.223-.539-2.357-1.114-3.363.305-.267.539-.608.684-.989-3.17,2.274-6.438,2.416-9.987,4.475-8.188,4.749-4.412,17.36,5.044,16.932l.318-.015s.238,6.666,9.93,6.914Z" fill="#a384bb" mix-blend-mode="multiply" opacity=".25"/>
        <path d="M212.493,124.598s4.057-.423,7.715.207c10.229,1.764,15.966.224,9.137-1.63l-16.568-.071-1.493.356,1.209,1.138Z" fill="#a384bb" mix-blend-mode="multiply" opacity=".25"/>
        <g>
          <path d="M226.954,117.989c-.684-4.341-4.511-10.185-13.261-8.476-8.75,1.709-9.57,8.51-9.023,12.577l22.284-4.101Z" fill="#ffd66e"/>
          <path d="M228.253,122.706l-.889-5.537s-17.362-.171-23.378,5.058l3.008,2.803s3.315-2.153,6.494-2.187c3.179-.034,11.928,1.299,14.765-.137Z" fill="#e86170"/>
          <path d="M209.075,124.107c1.846-.444,2.768-1.777,12.851-.957,10.082.82,16.749-3.247,16.749-3.247" fill="none" stroke="#ffd66e" stroke-linecap="round" stroke-linejoin="round" stroke-width="2.438"/>
        </g>
        <path d="M200.35,136.024c.134,6.34-14.577,8.288-14.645-5.685-.039-8.119,8.594-10.328,15.921-9.35,5.283.705,6.877,3.247,12.428,3.456,6.689,4.628-1.058,21.095-10.552,16.42,0,0-.868-3.522-3.152-4.84Z" fill="#f4af13"/>
        <path d="M200.35,136.024c.134,6.34-14.577,8.288-14.645-5.685-.039-8.119,8.594-10.328,15.921-9.35,5.283.705,6.877,3.247,12.428,3.456,6.689,4.628-1.058,21.095-10.552,16.42,0,0-.868-3.522-3.152-4.84Z" fill="#fff" opacity=".75"/>
        <circle cx="225.344" cy="139.838" r="7.882" transform="translate(-32.879 200.3) rotate(-45)" fill="#42496f"/>
        <circle cx="225.344" cy="139.838" r="6.724" fill="#fff"/>
        <path d="M231.054,143.376c.639-1.029,1.014-2.238,1.014-3.538,0-3.714-3.011-6.724-6.724-6.724-.754,0-1.476.129-2.152.358-1.348,1.165-2.219,2.866-2.219,4.787,0,3.507,2.843,6.351,6.351,6.351,1.399,0,2.682-.466,3.731-1.233Z" fill="#42496f"/>
        <path d="M238.675,145.99s.796,4.198,5.943,3.064" fill="none" stroke="#42496f" stroke-linecap="round" stroke-linejoin="round" stroke-width="1.219"/>
        <path d="M232.068,150.455c-2.123-1.003-3.539,4.601,3.303,4.955,6.842.354,7.786-6.162,7.786-6.162" fill="none" stroke="#42496f" stroke-linecap="round" stroke-linejoin="round" stroke-width="1.219"/>
        <g clip-path="url(#d)">
          <g>
            <path d="M200.35,136.024c-1.339-.915-5.417-4.652-7.793-2.171-1.57,1.64,2.058,3.977,3.558,2.372" fill="none" stroke="#f4af13" stroke-linecap="round" stroke-linejoin="round" stroke-width=".61"/>
            <path d="M202.312,138.074s6.187,1.187,9.354-4.54c1.895-3.429,1.756-6.859-1.038-10.182" fill="none" stroke="#f4af13" stroke-linecap="round" stroke-linejoin="round" stroke-width=".61"/>
            <path d="M199.694,135.541s3.387-2.076,1.441-8.874c-2.179-7.612-5.977-8.721-5.977-8.721" fill="none" stroke="#f4af13" stroke-linecap="round" stroke-linejoin="round" stroke-width=".61"/>
            <path d="M192.199,134.486s-5.852,2.207-8.573-4.54" fill="none" stroke="#f4af13" stroke-linecap="round" stroke-linejoin="round" stroke-width=".61"/>
            <path d="M194.507,136.74c.073,1.405,1.259,6.044-3.067,6.812" fill="none" stroke="#f4af13" stroke-linecap="round" stroke-linejoin="round" stroke-width=".61"/>
            <path d="M195.305,136.694s-.468-2.15,2.474-2.5" fill="none" stroke="#f4af13" stroke-linecap="round" stroke-linejoin="round" stroke-width=".61"/>
          </g>
          <path d="M215.263,137.664s1.309,2.114-3.978-.416c-5.288-2.53-13.326-10.246-18.209-7.969-4.883,2.277-3.713,6.04-2.796,7.78-1.048.605-3.858.503-5.692-2.168,0,0,4.53,15.355,11.673,15.482,7.143.126,19.003-12.708,19.003-12.708Z" fill="#f4af13" mix-blend-mode="multiply" opacity=".25"/>
        </g>
        <path d="M211.113,175.875c.553-.414.916-1.068.916-1.812,0-1.253-1.016-2.269-2.269-2.269-.907,0-1.683.535-2.046,1.304-1.153-.54-2.435-.85-3.792-.85-.594,0-1.174.061-1.735.171-.229-.645-.839-1.109-1.562-1.109-.382,0-.729.134-1.01.35-.829-1.179-1.934-2.147-3.223-2.813.167-.313.27-.666.27-1.046,0-.781-.401-1.467-1.008-1.868,1.328-1.564,2.133-3.585,2.133-5.798,0-1.232-.249-2.405-.699-3.473.655-.447,1.086-1.198,1.086-2.05,0-1.37-1.11-2.481-2.48-2.481-.662,0-1.26.263-1.704.686-1.462-1.034-3.242-1.647-5.168-1.647-4.437,0-8.112,3.226-8.83,7.459-.041-.004-.076-.024-.118-.024-.652,0-1.18.528-1.18,1.18,0,.107.034.204.061.303-.995.415-1.695,1.395-1.695,2.541,0,.588.187,1.129.501,1.576-.541,1.154-.852,2.437-.852,3.796,0,3.397,1.89,6.352,4.675,7.873-.531.444-.876,1.103-.876,1.849,0,1.337,1.083,2.42,2.42,2.42.342,0,.666-.073.961-.201,1.272,3.404,4.544,5.833,8.392,5.833.898,0,1.764-.136,2.582-.381-.121.336-.198.693-.198,1.071,0,1.754,1.422,3.176,3.176,3.176.664,0,1.28-.205,1.79-.554,1.274.696,2.736,1.092,4.29,1.092,4.952,0,8.966-4.014,8.966-8.966,0-2.003-.665-3.846-1.775-5.339Z" fill="#fff"/>
      </g>
    </g>
  </g>
</svg>