<?xml version="1.0" encoding="UTF-8"?><svg xmlns="http://www.w3.org/2000/svg" xmlns:xlink="http://www.w3.org/1999/xlink" viewBox="0 0 300 300"><defs><style>.cls-1{clip-path:url(#clippath-4);}.cls-2{fill:#ffd66e;}.cls-3{fill:#f4af13;}.cls-4{fill:#b1ddea;}.cls-5{fill:#fff;}.cls-6,.cls-7{fill:none;}.cls-8{filter:url(#drop-shadow-4);}.cls-9{clip-path:url(#clippath-1);}.cls-10{isolation:isolate;}.cls-11{fill:#a384bb;opacity:.25;}.cls-11,.cls-12{mix-blend-mode:multiply;}.cls-13{clip-path:url(#clippath-3);}.cls-14{fill:#6498d1;}.cls-15{clip-path:url(#clippath-2);}.cls-16{fill:#9bc8ec;}.cls-17{fill:#42496f;}.cls-18{clip-path:url(#clippath);}.cls-7{stroke:#a384bb;stroke-linecap:round;stroke-linejoin:round;stroke-width:.61px;}.cls-12{opacity:.5;}</style><clipPath id="clippath"><path class="cls-6" d="M27.11,96.93v129.24c1.89.35,3.97.55,6.16.55,5.08,0,9.57-1.04,12.41-2.65.14,0,.28-.01.41-.02,1.53,1.62,3.96,2.67,6.71,2.67s5.18-1.05,6.71-2.67c1.96,1.62,5.06,2.67,8.57,2.67,2.89,0,5.51-.71,7.43-1.87,2.25,1.16,5.31,1.87,8.68,1.87,2.91,0,5.58-.53,7.7-1.42.52.89,1.18,1.42,1.9,1.42s1.35-.52,1.87-1.38c2.11.86,4.74,1.38,7.61,1.38,3.75,0,7.1-.88,9.39-2.27,1.96,1.39,4.84,2.27,8.04,2.27,2.98,0,5.67-.76,7.61-1.97,2.27,1.22,5.41,1.97,8.89,1.97.15,0,.3-.02.45-.02.31,0,.61.02.93.02,5.08,0,9.57-1.04,12.41-2.65.14,0,.28-.01.41-.02,1.53,1.62,3.96,2.67,6.71,2.67s5.18-1.05,6.71-2.67c1.96,1.62,5.06,2.67,8.57,2.67,2.89,0,5.51-.71,7.43-1.87,2.25,1.16,5.31,1.87,8.68,1.87,2.91,0,5.58-.53,7.7-1.42.52.89,1.18,1.42,1.9,1.42s1.35-.52,1.87-1.38c2.11.86,4.74,1.38,7.61,1.38,3.75,0,7.1-.88,9.39-2.27,1.96,1.39,4.84,2.27,8.04,2.27,2.98,0,5.67-.76,7.61-1.97,2.27,1.22,5.41,1.97,8.89,1.97.62,0,1.23-.04,1.82-.08V96.93H27.11Z"/></clipPath><filter id="drop-shadow-4" x="38.65" y="165.52" width="168.5" height="64.23" filterUnits="userSpaceOnUse"><feOffset dx="-1.22" dy="0"/><feGaussianBlur result="blur" stdDeviation="0"/><feFlood flood-color="#42496f" flood-opacity="1"/><feComposite in2="blur" operator="in"/><feComposite in="SourceGraphic"/></filter><clipPath id="clippath-1"><path class="cls-6" d="M58.15,177.16h147.01s-6.98,52.56-52.56,52.56h-83.55l-10.91-52.56Z"/></clipPath><clipPath id="clippath-2"><circle class="cls-6" cx="77.17" cy="179.43" r="11.44"/></clipPath><clipPath id="clippath-3"><circle class="cls-6" cx="119.53" cy="179.43" r="11.44"/></clipPath><clipPath id="clippath-4"><circle class="cls-6" cx="161.88" cy="179.43" r="11.44"/></clipPath></defs><g class="cls-10"><g id="bateau_01"><g class="cls-18"><path class="cls-5" d="M183.74,229.72s12.46-16.65,7.99-18.23c-4.46-1.58-22.19,13.79-22.19,13.79l14.19,4.44Z"/><path class="cls-16" d="M180.53,233.79s12.46-16.65,7.99-18.23c-4.46-1.58-22.19,13.79-22.19,13.79l14.19,4.44Z"/><path class="cls-5" d="M185.78,221.37c-.4-.25-.36-.74-.17-.96.23-.26.62-.31.89-.1.28.22.33.62.11.91-.04.05-.08.09-.12.13-.31.38-.36.38-.71.03Z"/><path class="cls-5" d="M194.91,217.01c-.21.23-.58.25-.82.04-.25-.22-.27-.59-.04-.83.22-.23.59-.24.82-.02.23.21.25.59.04.82Z"/><path class="cls-5" d="M188.39,214.56c-.18.19-.41.19-.64-.01-.22-.19-.24-.52-.05-.73.19-.2.5-.21.7-.01.21.2.21.51-.01.75Z"/><path class="cls-5" d="M184.81,214.17c.19-.2.49-.2.68-.02.19.19.19.49,0,.68-.2.21-.52.23-.7.04-.19-.19-.18-.49.03-.7Z"/><path class="cls-5" d="M189.35,219.55c-.18.19-.49.21-.68.03-.2-.18-.21-.48-.03-.68.19-.2.48-.21.68-.03.2.18.21.48.03.68Z"/><path class="cls-5" d="M181.65,219.52c-.18.18-.48.17-.65-.01-.17-.18-.17-.46,0-.63.18-.19.46-.19.65,0,.18.18.19.47,0,.65Z"/><path class="cls-5" d="M194.96,213.83c.18.18.18.45,0,.63-.18.19-.47.19-.65,0-.17-.18-.18-.45,0-.63.18-.19.47-.19.65,0Z"/><path class="cls-5" d="M182.5,216.86c.17-.17.42-.17.57-.01.16.17.16.45,0,.61-.16.16-.41.17-.57,0-.17-.17-.17-.42,0-.6Z"/><path class="cls-5" d="M195.54,219.18s-.09.1-.14.14c-.16.13-.33.13-.46-.03-.14-.16-.1-.32.05-.46.08-.07.18-.12.26-.19.15-.13.3-.15.43,0,.14.15.09.3-.04.43-.03.03-.07.07-.1.1h0Z"/><path class="cls-5" d="M187.84,211.22c.15-.17.41-.19.57-.04.16.15.17.44.01.61-.15.16-.42.16-.58.01-.16-.15-.16-.41,0-.58Z"/><path class="cls-5" d="M191.19,225.15c.19.17.22.4.08.57-.13.16-.39.17-.55.03-.16-.14-.18-.57-.03-.73.12-.12.26-.08.5.13Z"/><path class="cls-5" d="M188.01,224.89c.16-.16.42-.16.57.02.16.18.16.37,0,.55-.15.17-.41.17-.57,0-.16-.16-.17-.42,0-.58Z"/><path class="cls-5" d="M194.45,223.66c-.16.15-.43.14-.58-.02-.16-.16-.15-.39,0-.55.16-.15.43-.15.58.01.15.15.14.42,0,.56Z"/><path class="cls-5" d="M192.64,218.15c.15.15.16.4.02.56-.15.16-.42.16-.57,0-.15-.15-.15-.41,0-.55.15-.15.4-.15.56,0Z"/><path class="cls-5" d="M189.16,222.01c-.12-.15-.13-.32.02-.48.13-.15.39-.15.52,0,.14.16.14.34,0,.5-.13.15-.38.15-.54-.01Z"/><path class="cls-5" d="M192.05,213.61c.02-.15,0-.34.07-.45.11-.18.31-.15.46-.02.15.14.17.34.02.46-.11.09-.3.07-.45.1l-.1-.1Z"/><path class="cls-5" d="M187.32,216.91c-.01.24.02.39-.04.51-.02.04-.26.05-.34-.01-.14-.11-.14-.28,0-.4.07-.05.18-.05.37-.09Z"/><path class="cls-5" d="M189.23,213.64c.2.03.35.02.4.08.06.07.02.21.03.33-.11,0-.26.05-.33,0-.07-.05-.06-.2-.1-.4Z"/><path class="cls-5" d="M191.9,215.84c-.18-.03-.32-.01-.37-.07-.05-.06-.03-.2-.03-.3.11,0,.24-.05.32,0,.06.04.05.19.08.37Z"/><path class="cls-5" d="M197.28,218.97c-.2-.03-.34-.02-.39-.08-.05-.07-.04-.22,0-.3.03-.04.22-.05.27,0,.06.05.06.19.11.38Z"/><path class="cls-5" d="M192.62,219.62c-.04.19-.03.33-.09.37-.06.05-.2.01-.3.01,0-.1-.04-.24.01-.3.05-.06.19-.05.38-.08Z"/><path class="cls-5" d="M191.62,221.27c-.02.17,0,.3-.06.34-.06.05-.21.05-.26,0-.05-.05-.06-.2-.01-.26.04-.06.17-.05.33-.09Z"/><path class="cls-5" d="M190.81,212.04c-.03.17-.01.29-.06.34-.05.05-.22.05-.25.01-.05-.07-.07-.21-.03-.27.03-.05.17-.05.34-.08Z"/><path class="cls-5" d="M192.33,212.56c.03-.17.02-.3.07-.34.06-.05.18-.02.28-.02,0,.1.04.22,0,.28-.04.06-.17.05-.34.09Z"/><path class="cls-5" d="M185.66,222.86c-.02.14,0,.26-.05.29-.07.04-.18.01-.27.01,0-.09-.02-.21.03-.27.03-.04.16-.02.3-.03Z"/><path class="cls-5" d="M181.95,220.75c.14.03.27.03.3.08.04.07,0,.18,0,.27-.09-.01-.2,0-.25-.04-.05-.05-.03-.16-.04-.31Z"/><path class="cls-5" d="M190.74,215.48c-.13-.01-.25,0-.28-.04-.04-.06-.03-.17-.04-.25.09,0,.19-.02.25.02.05.03.04.14.07.27Z"/><path class="cls-5" d="M188.92,216.49c-.13-.02-.22,0-.28-.04-.03-.02-.03-.18,0-.19.06-.03.16-.04.23-.01.04.02.03.13.05.25Z"/><g class="cls-8"><path class="cls-2" d="M60.45,188.26l-1.11,17.23c-.11,1.69-.98,3.24-2.37,4.21l-1.97,1.37c-1.49,1.03-2.46,2.65-2.67,4.45l-1.65,14.2h18.36l-8.6-41.46Z"/><path class="cls-17" d="M60.45,188.26l-.58,9.04s1.78,17.32.33,32.42h8.86l-8.6-41.46Z"/><path class="cls-2" d="M58.15,177.16h147.01s-6.98,52.56-52.56,52.56h-83.55l-10.91-52.56Z"/><g class="cls-12"><g class="cls-9"><line class="cls-7" x1="62.29" y1="183.26" x2="194.38" y2="183.26"/><line class="cls-7" x1="64.5" y1="189.36" x2="200.09" y2="189.36"/><line class="cls-7" x1="66.7" y1="195.46" x2="197.31" y2="195.46"/><line class="cls-7" x1="54.7" y1="201.56" x2="190.29" y2="201.56"/><line class="cls-7" x1="67.53" y1="207.66" x2="203.12" y2="207.66"/><line class="cls-7" x1="68.9" y1="213.76" x2="188.86" y2="213.76"/><line class="cls-7" x1="40.17" y1="219.87" x2="175.76" y2="219.87"/><line class="cls-7" x1="68.9" y1="225.97" x2="170.22" y2="225.97"/></g></g><path class="cls-11" d="M154.56,229.72s32.1,2.52,44.32-37.82c0,0-92.99,10.13-135.61,11.74l5.79,26.08h85.5Z"/><rect class="cls-3" x="58.15" y="175.7" width="145.18" height="3.41"/><path class="cls-3" d="M152.41,229.72c52.76,0,54.74-64.2,54.74-64.2h-4.95s-2.36,60.17-49.78,64.2Z"/><polygon class="cls-3" points="70.97 229.72 57.95 167.32 54.7 167.32 66.9 229.72 70.97 229.72"/><circle class="cls-17" cx="77.17" cy="180.9" r="13.9"/><circle class="cls-14" cx="77.17" cy="179.43" r="13.9"/><circle class="cls-2" cx="77.17" cy="179.43" r="11.44"/><rect class="cls-4" x="76.03" y="178.29" width="2.27" height="2.27" rx=".37" ry=".37" transform="translate(-104.27 107.11) rotate(-45)"/><g class="cls-12"><g class="cls-15"><line class="cls-7" x1="68.5" y1="170.45" x2="68.5" y2="186.01"/><line class="cls-7" x1="74.28" y1="167.64" x2="74.28" y2="191.49"/><line class="cls-7" x1="80.06" y1="191.49" x2="80.06" y2="169.83"/><line class="cls-7" x1="85.84" y1="170.72" x2="85.84" y2="185.46"/></g></g><circle class="cls-17" cx="119.53" cy="180.9" r="13.9"/><circle class="cls-14" cx="119.53" cy="179.43" r="13.9"/><circle class="cls-2" cx="119.53" cy="179.43" r="11.44"/><rect class="cls-4" x="118.39" y="178.29" width="2.27" height="2.27" rx=".37" ry=".37" transform="translate(-91.86 137.06) rotate(-45)"/><g class="cls-12"><g class="cls-13"><line class="cls-7" x1="110.86" y1="170.45" x2="110.86" y2="186.01"/><line class="cls-7" x1="116.64" y1="167.64" x2="116.64" y2="191.49"/><line class="cls-7" x1="122.42" y1="191.49" x2="122.42" y2="169.83"/><line class="cls-7" x1="128.2" y1="170.72" x2="128.2" y2="185.46"/></g></g><circle class="cls-17" cx="161.88" cy="180.9" r="13.9"/><circle class="cls-14" cx="161.88" cy="179.43" r="13.9"/><circle class="cls-2" cx="161.88" cy="179.43" r="11.44"/><rect class="cls-4" x="160.75" y="178.29" width="2.27" height="2.27" rx=".37" ry=".37" transform="translate(-79.46 167.01) rotate(-45)"/><g class="cls-12"><g class="cls-1"><line class="cls-7" x1="153.21" y1="170.45" x2="153.21" y2="186.01"/><line class="cls-7" x1="158.99" y1="167.64" x2="158.99" y2="191.49"/><line class="cls-7" x1="164.77" y1="191.49" x2="164.77" y2="169.83"/><line class="cls-7" x1="170.55" y1="170.72" x2="170.55" y2="185.46"/></g></g></g></g><path class="cls-16" d="M175.14,228.66s-9.57-26.22-18.07-20.25c-2.41,1.69,3.9,15.14,3.9,15.14,0,0-8.4-4.08-9.07-.58s-3.9,6.23-10.36,4.94c-6.46-1.29,18.24,7.83,18.81,4.17.57-3.67,8.16,3.47,9.86,1.7,1.7-1.77-1.25-6.97,4.93-5.13Z"/><path class="cls-5" d="M171.71,224.87c.31-5.67-8.43-20.92-14.64-16.45-4.09,2.94,2.88,11.61,3.9,15.14-5.19-3-11.26-3.35-12.88-1.67-1.62,1.67,2.99,2.38,1.72,3.9s-13.2,1.55-13.2,1.55c0,0,13.68,4.84,17.55,3.14,2.44-1.07-1.48-4.55.68-5.31,5.41-1.89,10.29,7.89,14.42,6.84,2.45-.62-3.54-8.49-1.96-9.14,1.58-.65,4.4,1.99,4.4,1.99Z"/><path class="cls-5" d="M139.33,229.96c.05.76-.62,1.18-1.1,1.14-.56-.05-1-.51-.98-1.06.02-.58.5-1.02,1.08-1.01.09,0,.19.02.28.03.79.04.84.1.72.9Z"/><path class="cls-5" d="M124.96,222.18c.51.06.87.51.83,1.03-.05.54-.52.92-1.05.84-.5-.07-.87-.54-.81-1.05.06-.5.53-.88,1.03-.82Z"/><path class="cls-5" d="M127.96,233.03c.43.05.64.36.6.85-.05.47-.45.81-.9.75-.44-.05-.75-.46-.69-.9.06-.47.47-.76,1-.7Z"/><path class="cls-5" d="M130.87,238.07c-.44-.06-.73-.44-.66-.87.06-.42.46-.71.89-.65.47.07.79.46.72.88-.07.43-.48.7-.95.64Z"/><path class="cls-5" d="M133.57,227.02c.43.05.74.44.7.86-.05.43-.43.74-.86.68-.44-.05-.74-.43-.69-.86.05-.44.42-.74.86-.68Z"/><path class="cls-5" d="M140.85,237.1c.4.06.68.46.61.87-.07.39-.43.66-.83.61-.42-.05-.69-.42-.63-.84.06-.41.44-.69.85-.63Z"/><path class="cls-5" d="M120.76,225.13c.06-.4.41-.66.82-.61.42.06.69.43.63.85-.07.4-.42.66-.82.61-.42-.06-.69-.43-.62-.85Z"/><path class="cls-5" d="M136.58,238.53c-.38-.06-.63-.39-.56-.74.07-.36.44-.63.8-.58.37.06.6.37.55.75-.06.38-.39.63-.78.57Z"/><path class="cls-5" d="M127.19,219.29c.11.01.22.02.32.05.32.09.48.31.4.63-.08.33-.33.44-.65.38-.17-.03-.32-.12-.49-.16-.3-.07-.48-.24-.42-.56.06-.33.3-.41.6-.36.08.01.15.02.23.03,0,0,0,0,0-.01Z"/><path class="cls-5" d="M124.13,236.92c-.37-.04-.64-.36-.6-.71.04-.35.42-.64.78-.59.34.04.61.4.56.74-.05.35-.38.6-.75.56Z"/><path class="cls-5" d="M139.13,219.3c.04-.41.31-.67.66-.64.33.02.6.35.56.69-.03.35-.58.78-.92.73-.27-.04-.36-.27-.31-.78Z"/><path class="cls-5" d="M141.81,223.7c-.36-.06-.6-.4-.53-.77.08-.38.34-.56.72-.53.37.03.61.37.55.74-.06.37-.39.61-.75.55Z"/><path class="cls-5" d="M134.08,216.45c.34.06.59.43.53.78-.06.36-.37.58-.72.51-.36-.07-.6-.41-.53-.77.06-.34.41-.58.73-.52Z"/><path class="cls-5" d="M128.6,224.06c.05-.34.37-.59.7-.56.35.04.61.39.55.75-.06.34-.39.58-.72.53-.33-.05-.58-.39-.53-.72Z"/><path class="cls-5" d="M136.96,224.93c-.08.29-.29.47-.64.43-.32-.03-.57-.37-.51-.68.07-.34.31-.51.65-.48.32.03.56.36.5.72Z"/><path class="cls-5" d="M123.24,229.14c-.22.12-.44.33-.66.34-.34.02-.49-.26-.46-.58.04-.33.28-.55.59-.47.21.06.38.32.56.49l-.03.22Z"/><path class="cls-5" d="M132.05,232.18c.32-.21.5-.39.7-.43.08-.01.31.3.31.46,0,.29-.23.45-.53.36-.13-.04-.23-.19-.48-.39Z"/><path class="cls-5" d="M125.96,232.81c-.14-.29-.31-.47-.28-.61.03-.14.26-.23.4-.35.11.14.3.29.3.43,0,.14-.21.27-.42.52Z"/><path class="cls-5" d="M126.29,227.22c.14.27.29.44.26.56-.03.13-.23.22-.36.33-.11-.14-.29-.27-.31-.42-.01-.11.2-.24.41-.46Z"/><path class="cls-5" d="M125.25,217.22c.14.29.3.46.26.58-.04.13-.25.27-.39.28-.09,0-.27-.23-.26-.35.01-.13.19-.26.39-.5Z"/><path class="cls-5" d="M130.55,222.69c.28-.13.45-.28.57-.24.13.04.2.24.3.38-.14.1-.27.28-.4.27-.12,0-.24-.2-.47-.41Z"/><path class="cls-5" d="M133.65,222.42c.24-.13.39-.28.5-.25.12.03.27.23.26.33-.01.11-.21.27-.33.27-.11,0-.23-.17-.43-.35Z"/><path class="cls-5" d="M122.36,232.26c.25-.13.39-.26.51-.24.1.02.28.23.25.31-.04.13-.21.29-.33.3-.1,0-.22-.18-.43-.36Z"/><path class="cls-5" d="M121.6,229.79c-.25.12-.41.26-.52.24-.12-.03-.2-.22-.3-.34.12-.09.25-.26.37-.26.11,0,.23.18.44.36Z"/><path class="cls-5" d="M141.4,228.7c.2-.1.35-.24.43-.21.12.05.18.22.27.35-.13.08-.25.22-.38.22-.09,0-.18-.19-.32-.36Z"/><path class="cls-5" d="M142.16,235.55c-.09-.22-.22-.38-.18-.47.05-.12.24-.17.36-.25.07.12.2.26.18.37-.02.11-.19.19-.36.35Z"/><path class="cls-5" d="M126.93,229.08c.11.19.24.32.22.4-.04.12-.19.19-.29.29-.08-.12-.21-.23-.22-.35,0-.09.15-.18.29-.34Z"/><path class="cls-5" d="M129.98,230.5c.1.19.21.3.21.41,0,.07-.2.21-.25.18-.1-.05-.21-.18-.23-.28-.01-.07.14-.16.27-.31Z"/><path class="cls-5" d="M155.16,220.46c.47.43.31,1.07,0,1.32-.37.29-.9.27-1.2-.07-.32-.36-.29-.9.06-1.23.06-.05.12-.1.18-.15.5-.43.56-.42.95.13Z"/><path class="cls-5" d="M142.05,224.11c.34-.26.82-.2,1.09.14.28.35.22.85-.14,1.11-.34.25-.83.18-1.09-.16-.26-.34-.19-.83.14-1.09Z"/><path class="cls-5" d="M150.12,228.88c.29-.22.59-.16.85.16.25.31.2.74-.1.97-.29.22-.71.16-.94-.14-.24-.32-.16-.73.19-.99Z"/><path class="cls-5" d="M154.78,230.22c-.3.22-.69.16-.9-.14-.21-.29-.14-.69.16-.9.32-.23.74-.18.94.11.21.29.12.7-.2.93Z"/><path class="cls-5" d="M150,222.03c.28-.22.7-.17.91.11.22.28.17.69-.12.91-.29.22-.69.17-.91-.12-.23-.29-.17-.68.12-.91Z"/><path class="cls-5" d="M160.2,223.86c.28-.2.67-.12.86.17.18.27.12.64-.14.84-.28.21-.66.15-.87-.14-.2-.28-.14-.67.15-.87Z"/><path class="cls-5" d="M141.24,228.32c-.19-.28-.13-.63.14-.84.28-.21.66-.15.86.14.19.28.13.64-.14.84-.28.21-.66.14-.86-.15Z"/><path class="cls-5" d="M158.46,227.19c-.26.18-.6.13-.76-.11-.17-.26-.1-.63.14-.81.25-.18.58-.13.76.13.19.26.13.6-.14.79Z"/><path class="cls-5" d="M141.71,221.09c.07-.05.14-.12.22-.16.24-.13.46-.09.6.15.14.24.06.45-.17.6-.12.08-.26.11-.38.19-.22.13-.43.14-.58-.09-.15-.23-.06-.42.15-.56.05-.04.1-.08.16-.11,0,0,0,0,0,0Z"/><path class="cls-5" d="M150.08,233.43c-.24.19-.59.15-.77-.08-.18-.23-.12-.62.13-.81.23-.17.6-.12.77.12.17.24.12.58-.12.77Z"/><path class="cls-5" d="M148.86,214.19c-.21-.27-.2-.58.03-.77.21-.18.56-.14.74.09.18.23.11.8-.13.97-.18.13-.37.05-.64-.29Z"/><path class="cls-5" d="M153.02,215.27c-.25.17-.6.11-.76-.16-.17-.28-.12-.53.13-.73.24-.19.58-.13.76.12.18.25.12.59-.13.76Z"/><path class="cls-5" d="M144.19,215.41c.24-.16.6-.09.77.16.17.25.11.56-.14.72-.25.17-.6.1-.76-.15-.16-.24-.09-.58.14-.74Z"/><path class="cls-5" d="M145.31,223.13c-.17-.23-.12-.57.1-.74.23-.18.59-.12.76.13.16.24.11.57-.13.73-.23.16-.57.1-.74-.13Z"/><path class="cls-5" d="M150.82,218.82c.12.22.1.45-.13.63-.21.17-.56.11-.7-.11-.15-.25-.11-.48.11-.66.2-.17.54-.1.71.14Z"/><path class="cls-5" d="M145.04,229.28c-.06.2-.07.45-.2.59-.19.21-.45.13-.61-.08-.17-.22-.15-.49.08-.62.16-.09.41-.03.62-.03l.11.15Z"/><path class="cls-5" d="M152.08,226c.07-.31.07-.52.17-.66.04-.05.36,0,.45.1.17.17.13.4-.11.52-.1.05-.25.02-.51.04Z"/><path class="cls-5" d="M148.8,229.9c-.26-.09-.46-.1-.52-.2-.06-.1.02-.29.04-.44.15.02.35,0,.43.09.08.08.03.28.05.55Z"/><path class="cls-5" d="M145.76,226.36c.24.08.42.09.48.18.06.09-.01.27-.03.4-.15-.02-.33,0-.43-.08-.07-.06-.02-.26-.02-.51Z"/><path class="cls-5" d="M139.35,220.97c.25.09.45.1.49.19.05.1,0,.3-.07.39-.05.05-.3.02-.36-.06-.07-.09-.04-.26-.06-.53Z"/><path class="cls-5" d="M145.68,221.18c.09-.24.11-.43.2-.47.1-.05.26.03.4.05-.02.14,0,.32-.08.4-.07.07-.26.02-.52.02Z"/><path class="cls-5" d="M147.39,219.23c.07-.22.07-.39.15-.44.08-.05.3-.02.35.05.05.07.03.28-.04.35-.07.07-.24.03-.46.04Z"/><path class="cls-5" d="M146.32,231.66c.07-.22.08-.38.17-.44.07-.05.3-.02.33.04.05.1.04.29-.02.37-.06.07-.24.02-.47.03Z"/><path class="cls-5" d="M144.44,230.62c-.08.22-.09.39-.17.44-.09.05-.25-.02-.38-.03.02-.13,0-.3.07-.37.07-.07.24-.03.47-.04Z"/><path class="cls-5" d="M155.66,218.51c.06-.17.07-.35.14-.37.1-.04.24.03.36.05-.03.12-.02.28-.1.36-.05.05-.22-.01-.4-.03Z"/><path class="cls-5" d="M160.09,222.17c-.18-.08-.35-.1-.38-.17-.04-.1.04-.24.07-.36.11.04.27.04.32.11.05.08,0,.22-.01.42Z"/><path class="cls-5" d="M147.22,227.11c.17.05.33.05.36.11.05.09,0,.23,0,.34-.11-.02-.26-.02-.33-.08-.05-.05-.02-.2-.02-.38Z"/><path class="cls-5" d="M149.86,226.19c.17.05.3.06.36.12.04.04,0,.24-.04.26-.09.03-.23.02-.3-.04-.05-.03-.01-.17-.02-.34Z"/><path class="cls-5" d="M168.37,211.57c.1.83-.61,1.35-1.13,1.33-.62-.02-1.14-.5-1.15-1.1-.02-.64.48-1.16,1.12-1.19.1,0,.21,0,.31,0,.88,0,.93.06.85.94Z"/><path class="cls-5" d="M151.98,204.01c.57.03,1,.5.98,1.07-.02.6-.51,1.05-1.1,1-.56-.04-.99-.54-.97-1.1.03-.56.52-1.01,1.08-.98Z"/><path class="cls-5" d="M156.05,215.76c.47.03.73.35.72.89-.02.52-.44.92-.94.89-.49-.03-.85-.45-.82-.95.03-.52.47-.87,1.05-.84Z"/><path class="cls-5" d="M159.61,221.11c-.49-.04-.83-.44-.79-.91.04-.47.46-.82.93-.78.52.04.9.45.86.92-.04.48-.47.81-1,.77Z"/><path class="cls-5" d="M161.8,208.73c.47.03.85.43.83.9-.02.47-.43.84-.9.81-.48-.03-.84-.42-.82-.9.02-.48.41-.84.9-.82Z"/><path class="cls-5" d="M170.54,219.34c.45.04.78.46.73.91-.05.43-.43.75-.87.73-.46-.03-.79-.42-.76-.88.04-.46.44-.79.89-.75Z"/><path class="cls-5" d="M147.55,207.56c.04-.44.41-.76.86-.72.47.03.8.42.75.89-.04.44-.42.76-.86.73-.46-.03-.79-.42-.75-.89Z"/><path class="cls-5" d="M165.93,221.21c-.42-.04-.72-.38-.67-.77.05-.4.44-.73.84-.69.41.03.69.37.66.78-.03.43-.39.72-.82.68Z"/><path class="cls-5" d="M154.22,200.67c.12,0,.24,0,.36.03.36.07.55.3.48.67-.06.37-.33.51-.68.46-.19-.02-.36-.11-.55-.14-.34-.06-.55-.23-.51-.59.04-.36.3-.47.64-.44.09,0,.17.01.26.02,0,0,0,0,0-.01Z"/><path class="cls-5" d="M152.1,220.32c-.41-.02-.73-.36-.71-.74.02-.39.42-.73.82-.71.38.02.71.4.67.78-.03.39-.38.69-.78.67Z"/><path class="cls-5" d="M167.39,199.83c.02-.45.3-.76.69-.76.37,0,.68.34.67.72-.01.38-.58.9-.96.87-.3-.02-.42-.27-.39-.84Z"/><path class="cls-5" d="M170.65,204.5c-.4-.04-.69-.4-.63-.81.06-.42.33-.64.76-.63.41.01.7.36.66.78-.04.41-.38.7-.79.66Z"/><path class="cls-5" d="M161.62,197.06c.38.04.68.43.63.82-.05.4-.37.66-.76.61-.4-.05-.69-.41-.64-.81.04-.37.41-.67.77-.63Z"/><path class="cls-5" d="M156.12,205.82c.03-.38.37-.68.74-.66.39.02.7.39.65.79-.04.38-.38.67-.76.63-.37-.03-.66-.39-.63-.76Z"/><path class="cls-5" d="M165.39,206.19c-.07.33-.28.54-.67.52-.36-.02-.66-.36-.61-.71.06-.38.3-.58.68-.57.35,0,.64.36.6.76Z"/><path class="cls-5" d="M150.57,211.81c-.23.15-.46.39-.71.42-.37.05-.56-.26-.55-.61.02-.37.27-.62.61-.56.24.05.44.32.65.5l-.02.25Z"/><path class="cls-5" d="M160.49,214.53c.34-.26.52-.47.74-.52.09-.02.36.31.37.49.02.32-.22.52-.56.44-.15-.03-.27-.19-.55-.4Z"/><path class="cls-5" d="M153.83,215.66c-.18-.31-.37-.5-.35-.65.03-.16.27-.27.42-.41.13.15.35.3.36.46,0,.15-.21.31-.43.6Z"/><path class="cls-5" d="M153.8,209.47c.17.29.35.46.33.6-.02.15-.24.26-.37.39-.13-.15-.34-.28-.37-.45-.02-.12.2-.28.42-.54Z"/><path class="cls-5" d="M151.95,198.52c.18.31.36.49.33.62-.03.14-.26.31-.41.33-.09.01-.32-.24-.31-.37,0-.15.19-.3.39-.58Z"/><path class="cls-5" d="M158.17,204.17c.3-.16.48-.34.61-.31.14.03.24.26.36.4-.14.12-.28.32-.43.33-.13,0-.28-.2-.54-.42Z"/><path class="cls-5" d="M161.57,203.66c.26-.16.41-.33.53-.31.13.02.32.23.31.35,0,.12-.21.31-.35.32-.12,0-.26-.18-.5-.36Z"/><path class="cls-5" d="M149.82,215.3c.26-.16.41-.31.54-.3.12,0,.32.24.3.32-.04.14-.21.33-.34.35-.11.02-.26-.18-.5-.37Z"/><path class="cls-5" d="M148.81,212.64c-.27.15-.43.32-.55.3-.14-.03-.24-.23-.35-.35.13-.11.26-.3.39-.31.13,0,.26.18.51.37Z"/><path class="cls-5" d="M170.55,210.03c.21-.12.37-.29.46-.26.13.05.22.23.32.36-.13.1-.26.26-.41.27-.09,0-.21-.2-.38-.38Z"/><path class="cls-5" d="M171.88,217.53c-.12-.23-.27-.41-.24-.5.05-.13.25-.2.38-.3.08.13.24.27.23.39-.01.12-.19.23-.38.41Z"/><path class="cls-5" d="M154.64,211.48c.13.2.29.34.27.43-.03.13-.19.23-.3.34-.09-.12-.24-.23-.26-.37-.01-.09.15-.21.3-.4Z"/><path class="cls-5" d="M158.1,212.82c.13.2.25.31.26.43,0,.07-.21.24-.26.22-.12-.05-.24-.18-.27-.3-.02-.07.14-.19.28-.36Z"/></g></g></svg>