<?xml version="1.0" encoding="UTF-8"?>
<svg id="a" data-name="Calque 17" xmlns="http://www.w3.org/2000/svg" width="300" height="300" xmlns:xlink="http://www.w3.org/1999/xlink" viewBox="0 0 300 300">
  <defs>
    <clipPath id="b">
      <path d="M126.931,284.703c-.71.566-1.278,1.018-1.968,1.568-.003-.058.007.151.018.391-3.182-.318-3.312-2.372-.097-2.871,1.26-.456,1.286-1.722,1.788-3.068-1.45.553-2.431.468-3.797.694.251.872.889.847,1.443,1.435-.478.506-1.16.588-1.763.506-.163-1.018-1.023-2.478.116-3.231,1.076-.444-.185-1.678-.564-2.004-.574.275-1.106.957-.614,1.588.307.465.506.861-.115,1.315-1.179,3.258-3.013-.467-4.836-1.091.042-.187.129-.567.248-1.091-1.729,1.034-.904-3.167-2.912-.817-1.617-1.045-2.15-4.822-4.253-4.327-.194.12-.717-.087-.858-.322-.789-2.572-3.186-3.68-4.031-6.052-.645-1.506-1.967-2.366-3.099-3.434-.104-.151-.738-.109-.857.057-.95,1.191-2.923.12-3.025-1.295-.303-.563-1.463-1.126-1.385-1.98-.989-1.133.043-1.061.75-1.641-.71-.296-.867-.887-.858-1.725.181-.801-1.658-2.142-.394-2.564,1.45-.277.306-1.168.291-2.209-.991,1.419-2.01,2.262-3.657,2.043-.745.607-1.203.198-1.701-.264-1.283-1.407-3.207.459-4.348,1.383.096-3.742-4.664.896-6.51,1.174-.045-1.287-1.539-2.302-2.523-1.033-2.238-.605-2.963-3.934-4.662-5.561-.353-1.528-2.388-1.146-2.484-2.608-.173-1.621-2.29-1.865-2.277-3.657-1.435-.587-1.118-2.531-2.151-3.426-1.776-2.278-6.467-5.128-5.729-8.067.89-.913,0-1.189-.604-1.752-.467-1.007-1.001-.044-1.768-.238,1.872-2.049-1.46-2.324,1.297-5.942.306-.892-.846-.645-1.105-.103-.686,1.228-1.67,1.058-2.622.93-.509-.547-.059-1.915-1.326-1.657-.086-.363-.173-.727-.264-1.109-1.235.299-1.921,1.589-.513,2.198-1.312,1.247-3.567,4.48-4.818,1.671-1.481.34-1.338-2.227-2.982-.943-.08-.696-.145-1.262-.219-1.899-.178.118-.404.267-.63.416-.356-.739-.385-1.786-1.548-1.618-.128-.952-.254-1.893-.399-2.97-.271.398-.457.671-.567.833-1.731-.397-2.094-2.214-3.015-3.517-.095.013-.189.027-.284.04-.063.334-.126.667-.19,1.001-.1-.005-.199-.01-.299-.014.266-3.377-2.853-4.402-3.841-7.245.266-1.003.294-1.416-.312-2.229-.383.412-.733.789-1.213,1.305-.777-.573-.388-1.991-1.546-1.691-.333-1.351-.028-2.338.866-3.246-.977-1.089,1.545-3.462-.43-3.631-.108.465-.21.904-.311,1.343h-.214c.026-1.107.053-2.213.083-3.508,2.42,1.173,2.272-2.235,2.487-3.925-.963.708-1.632,1.996-2.808,1.034.175.299.35.597.611,1.043-.516.131-.965.244-1.265.32-.346-1.9.463-3.125,1.703-4.481.126.086.292.198.393.267,2.888-4.616,5.779-9.781,9.959-13.73-1.096-.893-1.664-2.732-.219-3.551.658.054,1.359.338,1.701.081.627-.777,1.128-1.833-.33-2.341-.007-1.364,1.807-2.86.506-4.062-.759-.847-.497-2.622-1.958-2.725-1.534-.464-2.34.919-3.652,1.331-1.276-.24-1.527,1.015-2.186,1.858-.774-.441-1.729-.57-2.244-1.218-.353-1.422-1.42-.99-2.567-1.245.278-.294.509-.538.752-.795-1.602-.452-1.238,1.175-.681,1.962-.346.286-.656.541-1.156.955-.145-.994.716-2.26-.489-2.684-1.994-.023-2.085-3.758-4.111-2.343.013-.314.026-.62.039-.929-1.114-.022-1.145-.973-1.731-1.655-2.288-1.877-1.616-1.252-2.29-3.963-.201.134-.388.259-.629.419-.644-.979-1.556-1.127-1.847-2.556-1.322-2.868-5.321-3.044-7.047-5.361-.583.083-1.036.147-1.594.227,1.376-2.036.166-3.302.283-5.265.798-1.965,1.595-3.925,2.389-5.88l.356.032c-.083.985-.167,1.971-.269,3.182.81-.912.528-1.844.955-2.694.182.12.333.219.485.319.067-.034.133-.067.2-.101.024-1.508-1.849-.941-.612-2.456,8.06-15.18,14.329-31.15,22.974-45.965.45-.858.732-1.596,1.637-.563,1.737.557,1.803-2.339,3.544-2.184.429-.025.74-1.264.436-1.883-.072.319-.122.541-.187.826-.991.023-1.953.045-2.933.068.286-2.045,2.587-2.145,4.081-1.516,1.675-2.478,2.294-6.195,5.718-6.757-.139-.171-.265-.325-.536-.659,2.508-.587,4.559,2.535,6.64,1.896.438-.388.74-.295.814.307-.215.078-.428.156-.713.26,4.241,1.524,8.578,5.229,12.462,5.998.915,2.404,2.368-.581,3.418-1.483.517-.829,1.386-.071,2.011-.599,8.912-8.997,16.852-19.425,26.65-26.869.546-.009,1.589.234,1.938.818,1.839,1.271,2.454-3.778,6.81,1.155.664,1.141,2.414-.461,2.696,1.041.28,1.134,1.681,1.082,2.197,2.057,1.778,1.076,2.553,3.132,4.715,3.786.686.39.797.846,1.49-.017.118,1.408.307,1.509,1.393.757.079.405.153.789.228,1.173l1.118-.475c-.463,6.911,24.479-23.878,27.704-25.649,1.607.351-.187,1.255.694,2.154.501.142.957-.688,1.332-.886,1.669-.326-.022,1.91,1.224,2.214.719.181.828,1.892,1.669.958.18.361.42.651.468.976.12.866,1.491.806,1.679.114.11-.922-.629-2.345.918-2.119.692.044.415,1.088.949,1.364-.251.401-.443.707-.635,1.013.433.124.867.248,1.429.409-.453,1.111-.407,1.292.7,1.749.235,1.002,1.225,1.461,1.964,2.031.849.701,1.647,2.036,3,1.961-.365,1.384,1.417.543,2.111.962-1.032.968-.923,1.287.139,1.919-.026.064-.052.128-.078.192-.471-.052-.941-.104-1.592-.177.269.727,1.152.619.743,1.469-.067.727,1.217.912,1.829.422-.164.314-.262.503-.397.761.568-.039.208,1.01.96.704.42-.17.757-.543,1.096-.945-1.076.649-1.336-.396-.401-.949,1.356.034,2.046-.857,2.814-1.735,1.159-1.309,2.153-2.082,3.879-1.309.418.364.789.734,1.352.085,1.02.922,2.001,1.808,2.983,2.696.08-.066.16-.133.24-.199-.2-.33-.401-.66-.704-1.16,1.915,1.291,3.899-1.026,5.333.404.241,1.618,1.147,2.478,2.352,3.436,1.072.957.457,2.63,1.631,3.494.588.436.418,1.534,1.356.945,1.131-.799,2.055,1.296,1.404,2.158.422.081.742.142,1.013.194-.348.425-.654.8-.961,1.175.598.261-.507,1.366.732,1.333.079-.233.163-.48.241-.712.992.665,2.288,1.182,1.216,2.554.321.045.604.084.953.133-.051.233-.095.432-.111.505.397.36.735.666,1.118,1.013-.196.248-.373.472-.649.822.993-.258,1.841-.479,2.77-.72.017.313.026.495.036.676,2.522.546.47,4.408.011,6.026.081.056.161.112.242.168,1.608-1.371,2.442-3.475,3.86-5.043.082.048.165.096.247.145-.382.969-.889,1.901-1.074,2.934,1.027-.032,1.483-.804,2.01-1.56,3.244,2.227,14.565-18.416,13.418-7.955.094.029.188.059.282.088,1.089-2.134,4.489-2.611,4.498.4-.095.886.732.553,1.287.496.59-.138.806.106.809.659-.079,1.954,4.489.522,3.955,3.221,2.135-.455,1.236,2.216,2.851,2.395.602-.004,1.205.37,1.829.584-.224.483-.431.93-.675,1.454,4.998.991,1.096.773,3.485,2.92,4.384,2.285.16,6.188-.401,9.63.088.041.177.082.265.123-.184.116-.368.232-.602.38.059.154.125.327.195.508-1.442.027-.683,1.268-1.381,2.129-.347.475-.52.804.079,1.213.727.845.614,2.254.914,3.281-.073-.059-.23-.187-.27-.22-.653,1.435.087,2.977-1.791,3.465-.203.753-.277,1.627-1.178,2.066-.314-.333-.581-.617-.849-.901-.136-.009-.272-.017-.408-.026.292,2.113-.851,3.431-1.791,5.215,1.236.976,2.986.808,3.884,1.861.135.201.264.611.364.601,1.431-.079,1.721,1.312,2.666,1.985.64-.658,1.24-1.275,1.856-1.909.259.186.464.334.669.481.052-.03.104-.061.157-.091l-.426-.92c1.555-3.15,1.695.662,2.799-1.174.473.195-.207,1.164.685.922.128-.035.114-.588.192-1.062,1.143-.008,1.43,1.541,2.776.382.073.769.038,1.138.214,1.749,1.678-.838,3.32-2.173,4.873-3.53,1.019-1.32,1.907-1.899,3.47-.741-.473.141-.744.222-1.016.303-.005.067-.011.134-.016.201.376.068.752.136,1.189.216.034-.18.063-.332.1-.526,1.715.227.025,1.223,1.074,1.791.133-.203.255-.389.295-.451,1.86.369,1.018-1.635.974-2.739l.204-.01c1.287,1.096,1.014,3.39,2.361,4.073.475.042.826.144,1.16.5,1.436.82.724-1.523,1.443-1.879.822-.061,1.278.751,1.722,1.408-.647,1.941,2.229,2.834,3.315,4.141-1.543-.415-2.321-.086-.801,1.436.228-.348.36-.548.591-.901.359.654.504,1.134,1.068,1.528.325-.598.054-1.042-.14-1.624.677.196,1.27.398.865,1.293.349,2.144,4.274-.788,3.375,2.175.894-.302,3.043.316,1.784,1.384-.13.094-.136.602-.006.753.168.193.625.379.792.283.861-.521,1.279.612,1.87,1.031,1.076,1.865-1.124,3.817-.964,5.503,1.196.527-.358,2.006-1.062.874-.307.412-.486.759.194.858,1.609,1.81-2.457,6.436-3.663,8.589.363-.107.587-.172.905-.265.158.615,1.007,1.698-.01,1.978-.741.551-.262,1.547-.228,2.488.287.015,1.163-.412,1.398-.38.595.514,1.115.26,1.63-.051.557-.336.693-.053.778.463.798,2.356,1.174,4.754,2.072,7.003.295,1.285.711,3.377,2.166,3.698.356.965,1.878,1.05,1.617,2.499,2.586-.271,2.113,3.12,2.156,4.747,2.916,1.417-1.894,4.905-2.05,7.014-1.361,1.044-1.711,3.203-2.749,3.826-.549.33.129,1.777-.936,1.642-.793.835-1.215,1.947-2.053,3.171,3.344.423,6.42.812,9.489,1.2.032,1.659.881.363,1.734,1.268-.461.318-.794.548-1.105.762,1.147,1.206,1.949,3.785.022,4.495-1.208-.419-.739.494-.815,1.111.539-.176.993-.325,1.513-.495.968,1.163-1.79,1.897-.428,3.291.013,5.646-9.24,6.524-2.144,13.089-.599.926.802,1.572.348,2.479-.86,1.235-.555,2.485,1.024,2.758.03-.119.094-.367.162-.63,1.009.616,2.47,4.066,2.339,5.408.202-.031.457-.071.713-.111-.01.096-.02.191-.031.287-.182.196-.363.391-.545.587.022.091.044.182.066.273.391-.066.783-.132,1.318-.223-.601.678-.236,2.137-1.181,2.209-.145-.009-.3.288-.45.444.703.608,1.512-.008,2.295-.159.039.065.078.131.117.196-3.112,4.152-9.023,6.426-10.807,11.377-.127,1.569-.408.809-1.46,1.074.509.305,1.421.876.619,1.374-.761.444.062,1.162-.252,1.866-.086.003-.173.006-.259.009-.121-.196-.242-.392-.515-.832-2.733,9.846-14.668,10.652-21.834,16.088-4.7,3.987-9.422,8.204-14.675,11.364-1.027,1.671-4.822,4.842-6.109,2.147.233-.101.456-.198.91-.395-.518-.324-.859-.536-1.341-.837.147,1.109-.965,3.18-.61,1.093-1.206-.579-.147-1.961-.776-3.175-.399.88-.702,1.55-1.007,2.221-1.422-.728-.154-3.616-1.821-3.814-.67,1.019-1.152.592-1.609-.308-.298.537-.535.965-.793,1.431-3.258-3.416-9.77,6.639-13.322,6.04-1.929.182-3.446,3.724-5.51,2.811-8.931-2.219-27.761,23.098-33.021,18.674.276-.118.531-.227,1.022-.438-.489-.355-.819-.594-1.208-.877-1.247,2.443-1.353-.659-1.246-1.798-.098-.031-.196-.062-.294-.092-.364.649-.728,1.299-1.087,1.938-1.617-.219.047-4.759-1.781-3.818-.895,1.3-.913.067-1.653-.32-.178.43-.344.833-.502,1.213-2.073-1.711-4.388.85-6.799.319-.814.378-2.69,1.189-2.429-.6.708-.748,1.469-3.931-.373-3.088-.69-1.091-.612-1.399.382-1.625-.13-1.429-.51-1.973-1.566-.711.167-2.372-1.74-3.368-1.148-5.483.156-.532-.427-1.412-.267-1.955.766-1.467-.332-2.124-.902-2.99-1.922-.736-2.602-2.19-3.5-4.049-.656.514-1.334,1.046-2.071,1.624.027-.284.049-.512.074-.768-2.125.453-.856,2.019-2.298,3.408-.478-2.05,1.26-3.456,1.154-5.458-7.457,8.81-14.2,20.247-21.806,27.806ZM281.104,180.444c.857.906-.176,1.362.867,1.799.242-.85,1.466-1.287.61-2.451l-.622.308-.411-.195c.22-.268.441-.535.659-.8-1.397-1.631-1.196.32-1.104,1.338ZM34.123,198.695c-.438.595-.877,1.191-1.315,1.786.415.231.888.494,1.366.76.968-1.011.963-1.8-.051-2.546ZM281.874,188.246c-.221-.094-.442-.189-.663-.283.341-.491.682-.982.988-1.423-.249-.169-.548-.373-.845-.575q-.557.476.02,1.047c-.281.188-.56.375-.84.562-.009.121-.017.241-.026.362.455.104.91.207,1.366.311ZM279.909,177.352c-.317.616-.552,1.075-.886,1.725,1.056-.274,2.299-1.136.886-1.725ZM230.6,104.59c-.07.023-.139.046-.209.069-.088.631-.175,1.263-.272,1.956l.898-.411c-.137-.53-.277-1.072-.417-1.614ZM179.596,59.347c-.844.501-.862.788-.101,1.419.035-.489.064-.901.101-1.419ZM39.366,94.141c.646.154,1.022.173,1.058-.483-.426-.541-.684.017-1.058.483ZM32.524,205.928c-.465.93-.378,1.112.475,1.233-.178-.461-.326-.847-.475-1.233ZM280.728,184.708c.153.012.307.025.46.037.005-.407.011-.814.016-1.221-.119-.01-.239-.02-.358-.029-.039.404-.079.808-.118,1.213ZM76.746,253.838c-.032.383-.064.767-.105,1.269.923-.492.835-.886.105-1.269Z" fill="none"/>
    </clipPath>
    <linearGradient id="c" data-name="Dégradé sans nom 35" x1="148.902" y1="70.122" x2="148.902" y2="216.138" gradientUnits="userSpaceOnUse">
      <stop offset="0" stop-color="#b1ddea"/>
      <stop offset="1" stop-color="#54bfd1"/>
    </linearGradient>
    <linearGradient id="d" data-name="Dégradé sans nom 14" x1="150.648" y1="239.026" x2="150.648" y2="280.495" gradientUnits="userSpaceOnUse">
      <stop offset="0" stop-color="#6498d1"/>
      <stop offset="1" stop-color="#336a9b"/>
    </linearGradient>
  </defs>
  <g clip-path="url(#b)">
    <g>
      <rect x="5.995" y="22.815" width="285.814" height="212.68" fill="url(#c)"/>
      <g opacity=".33">
        <path d="M288.974,197.259c.502,8.12,1.004,16.239,1.506,24.359.766,3.689-2.858,5.165-6.24,5.024-58.296.073-117.088,5.361-175.109-1.455,10.361-10.295,10.877-13.781,26.605-10.261,13.641.296,20.096-13.503,28.153-21.891,2.304-1.304,5.325.198,7.848-.63,7.818-4.358.345-19.743,12.571-24.479,11.031-4.048,25.936,7.768,26.096,19.002,4.06-2.59,10.969-.145,12.453,7.511,9.864-63.104,68.42-33.933,65.406-8.441l.71,11.263Z" fill="#b1ddea"/>
      </g>
      <g opacity=".2">
        <path d="M2.951,204.872c.648,12.456.141,25.283,1.397,37.568,45.225,2.255,91.637-9.052,137.275-6.276,7.314-.291,16.677,2.076,22.672-3.612-.59-5.252-4.366-9.752-6.17-14.619-3.302-9.223-9.442-12.715-16.983-12.724-2.809-1.387-7.989-5.042-9.457.231.761-21.586-13.239-55.168-37.156-42.878-8.095-29.819-53.542-12.231-56.674.533.851-4.632.391-11.287-1.733-12.821-2.123-1.534-4.481-1.941-4.387-.846-2.031-23.721-27.162-21.687-27.054,19.321l-1.73,36.123Z" fill="#b1ddea"/>
      </g>
      <path d="M254.538,222.441c-4.217.774-9.459,1.239-15.162,1.239s-10.945-.465-15.162-1.239h-.231c-4.217.774-9.459,1.239-15.162,1.239s-10.945-.465-15.162-1.239h-.231c-4.217.774-9.459,1.239-15.162,1.239s-10.945-.465-15.162-1.239h-.231c-4.217.774-9.459,1.239-15.162,1.239s-10.945-.465-15.162-1.239h-.231c-4.217.774-9.459,1.239-15.162,1.239s-10.945-.465-15.162-1.239h-.231c-4.217.774-9.459,1.239-15.162,1.239s-10.945-.465-15.162-1.239H4.176l-.817,92.432h293.761l.817-92.432h-43.4Z" fill="url(#d)"/>
      <g opacity=".5">
        <path d="M169.752,244.081s8.46-2.902,10.498-4.323c0,0,.247,3.026,10.992,3.211-13.276,3.829-9.633-.371-21.489,1.112Z" fill="#fff"/>
        <path d="M206.061,232.719s2.532-1.297,2.964-1.976c1.685.973,4.446,2.161,5.187,1.976-5.311-.645-5.642,1.448-8.151,0Z" fill="#fff"/>
        <path d="M84.829,236.015s3.183-.489,4.247-1.416c1.39,1.03,5.254,1.416,5.254,1.416-4.365-.009-6.684.962-9.501,0Z" fill="#fff"/>
        <path d="M101.224,245.802c3.573.201,8.165-2.11,9.588-3.109,1.798,2.01,4.995,3.572,9.853,1.47,3.052,1.28,8.066,1.822,10.337,1.216-8.408,1.391-7.068.379-9.444.729s-5.766,2.205-10.828.125c-3.712,1.131-7.173,1.061-9.507-.431Z" fill="#fff"/>
      </g>
    </g>
  </g>
</svg>