<?xml version="1.0" encoding="UTF-8"?>
<svg xmlns="http://www.w3.org/2000/svg" width="300" height="300" xmlns:xlink="http://www.w3.org/1999/xlink" viewBox="0 0 300 300">
  <defs>
    <clipPath id="l">
      <path d="M124.732,280.19c-.771.617-1.388,1.111-2.136,1.71-.003-.063.007.165.019.426-3.448-.34-3.584-2.575-.1-3.124,1.366-.499,1.398-1.877,1.944-3.343-1.573.605-2.636.515-4.117.763.27.948.962.92,1.561,1.559-.52.551-1.258.643-1.912.554-.175-1.107-1.104-2.695.133-3.516,1.167-.485-.197-1.826-.607-2.18-.622.301-1.201,1.044-.669,1.729.331.505.546.936-.127,1.431-1.284,3.548-3.265-.502-5.239-1.178.046-.203.141-.617.271-1.188-1.876,1.129-.973-3.445-3.154-.883-1.75-1.134-2.321-5.244-4.601-4.7-.21.131-.777-.093-.93-.349-.85-2.798-3.445-3.999-4.357-6.579-.696-1.638-2.128-2.571-3.352-3.731-.113-.164-.8-.117-.929.064-1.033,1.299-3.168.136-3.275-1.403-.328-.613-1.584-1.223-1.497-2.152-1.069-1.231.049-1.155.816-1.787-.769-.321-.938-.963-.926-1.875.198-.873-1.793-2.328-.422-2.79,1.572-.304.334-1.272.32-2.405-1.077,1.546-2.183,2.466-3.968,2.231-.809.662-1.304.218-1.843-.284-1.388-1.529-3.477.506-4.716,1.514.111-4.073-5.057.985-7.058,1.29-.046-1.401-1.663-2.502-2.733-1.119-2.425-.653-3.203-4.276-5.042-6.043-.379-1.662-2.586-1.243-2.687-2.833-.184-1.764-2.478-2.025-2.461-3.975-1.554-.636-1.206-2.752-2.324-3.724-1.921-2.476-6.999-5.568-6.193-8.768.967-.995.003-1.294-.651-1.905-.504-1.095-1.085-.046-1.916-.256,2.033-2.234-1.577-2.526,1.418-6.469.333-.972-.915-.7-1.197-.11-.746,1.338-1.812,1.155-2.844,1.018-.551-.594-.06-2.084-1.434-1.801-.093-.395-.186-.791-.284-1.207-1.339.328-2.085,1.734-.56,2.393-1.425,1.36-3.875,4.883-5.226,1.828-1.606.373-1.445-2.421-3.23-1.02-.085-.757-.155-1.373-.233-2.066-.193.128-.438.291-.684.455-.384-.804-.413-1.943-1.674-1.757-.137-1.036-.272-2.06-.427-3.232-.295.434-.497.732-.616.907-1.875-.428-2.265-2.406-3.261-3.822-.103.015-.205.029-.308.044-.069.363-.138.727-.207,1.09-.108-.005-.216-.01-.324-.015.295-3.676-3.083-4.785-4.149-7.877.291-1.092.322-1.541-.333-2.425-.416.449-.796.86-1.317,1.423-.841-.623-.417-2.166-1.672-1.837-.358-1.47-.026-2.545.945-3.534-1.057-1.183,1.681-3.771-.459-3.951-.118.506-.229.984-.34,1.462h-.232c.031-1.205.062-2.408.098-3.817,2.621,1.271,2.467-2.437,2.704-4.277-1.045.773-1.773,2.176-3.045,1.131.189.325.378.649.66,1.134-.56.143-1.046.267-1.372.351-.371-2.067.508-3.402,1.855-4.88.137.093.316.215.426.29,3.139-5.03,6.283-10.656,10.822-14.962-1.186-.97-1.798-2.97-.23-3.864.714.058,1.472.365,1.843.085.681-.847,1.226-1.997-.353-2.547-.005-1.484,1.965-3.117.556-4.422-.821-.92-.534-2.853-2.117-2.962-1.661-.502-2.538,1.005-3.96,1.456-1.383-.258-1.657,1.108-2.373,2.026-.838-.478-1.872-.616-2.429-1.321-.379-1.546-1.537-1.075-2.78-1.35.302-.32.553-.587.817-.867-1.736-.489-1.344,1.281-.742,2.137-.375.312-.712.591-1.255,1.041-.155-1.081.781-2.461-.524-2.92-2.161-.021-2.252-4.086-4.451-2.541.015-.342.029-.674.044-1.011-1.207-.022-1.239-1.057-1.873-1.798-2.476-2.039-1.749-1.36-2.473-4.309-.218.146-.421.282-.683.457-.696-1.064-1.684-1.223-1.997-2.778-1.427-3.119-5.761-3.302-7.627-5.821-.632.091-1.123.163-1.728.25,1.496-2.218.186-3.594.318-5.73.869-2.14,1.736-4.275,2.601-6.404l.385.034c-.092,1.072-.185,2.145-.298,3.464.88-.994.577-2.008,1.041-2.934.197.13.361.238.525.346.072-.037.145-.073.217-.11.029-1.641-2.002-1.02-.659-2.672,8.766-16.537,15.594-33.931,24.993-50.072.49-.934.796-1.738,1.776-.616,1.881.603,1.959-2.549,3.846-2.384.465-.029.805-1.377.477-2.05-.079.347-.134.589-.204.9-1.075.027-2.117.053-3.179.079.314-2.226,2.808-2.34,4.426-1.658,1.82-2.7,2.499-6.747,6.211-7.365-.15-.186-.286-.353-.58-.716,2.72-.644,4.937,2.749,7.193,2.05.476-.423.802-.323.882.333-.233.086-.464.171-.773.285,4.593,1.65,9.287,5.674,13.494,6.503.987,2.615,2.567-.637,3.707-1.621.562-.903,1.503-.08,2.181-.656,9.678-9.81,18.304-21.175,28.939-29.296.591-.01,1.721.251,2.098.886,1.991,1.38,2.668-4.116,7.379,1.244.717,1.241,2.618-.507,2.92,1.128.301,1.233,1.82,1.174,2.376,2.235,1.925,1.167,36.263-20.371,39.761-22.305,1.741.379-.205,1.366.747,2.342.543.154,1.038-.75,1.446-.967,1.809-.358-.027,2.079,1.322,2.407.779.195.893,2.058,1.807,1.039.195.393.454.708.505,1.062.129.942,1.615.874,1.82.12.121-1.004-.677-2.551.999-2.308.75.046.448,1.183,1.026,1.482-.273.437-.482.77-.691,1.104.47.134.939.268,1.548.442-.493,1.21-.443,1.406.756,1.902.252,1.09,1.325,1.588,2.124,2.206.919.761,1.781,2.213,3.247,2.128-.399,1.507,1.535.588,2.286,1.043-1.12,1.056-1.003,1.403.147,2.088-.028.07-.056.139-.084.209-.51-.056-1.02-.112-1.725-.189.29.791,1.247.671.802,1.597-.074.791,1.318.99,1.981.456-.178.342-.285.547-.432.829.615-.043.223,1.099,1.039.765.455-.186.821-.592,1.19-1.031-1.167.709-1.447-.428-.432-1.032,1.47.035,2.219-.937,3.053-1.893,1.259-1.427,2.337-2.271,4.206-1.433.452.395.853.797,1.465.09,1.103,1.001,2.165,1.964,3.228,2.928.087-.073.174-.145.26-.217-.217-.359-.433-.718-.76-1.261,2.073,1.401,4.228-1.124,5.779.429.258,1.76,1.238,2.694,2.542,3.734,1.16,1.04,34.243-7.396,31.914,8.956-.015.106.204.064.305.095,1.185-2.325,4.87-2.851,4.874.427-.105.965.792.6,1.394.538.64-.152.874.114.875.715-.09,2.126,4.865.559,4.28,3.498,2.314-.5,1.335,2.409,3.085,2.601.653-.005,1.305.401,1.981.632-.244.526-.469,1.013-.734,1.584,5.415,1.068,1.186.84,3.771,3.171,4.747,2.478.161,6.735-.454,10.482.096.044.191.089.287.133-.2.127-.399.254-.654.415.063.167.135.356.21.553-1.563.033-.743,1.382-1.501,2.319-.377.517-.565.876.083,1.32.786.918.661,2.452.984,3.569-.079-.064-.249-.203-.292-.239-.71,1.563.088,3.24-1.949,3.775-.221.82-.303,1.771-1.281,2.251-.339-.362-.629-.67-.918-.978-.148-.009-.295-.018-.443-.027.312,2.299-.929,3.736-1.951,5.679,1.338,1.059,3.235.873,4.206,2.017.146.219.285.665.393.653,1.551-.088,1.862,1.424,2.886,2.154.695-.718,1.346-1.39,2.015-2.082.28.202.502.362.724.522.057-.033.113-.066.17-.099l-.46-1.001c1.692-3.432,1.836.717,3.036-1.284.513.211-.227,1.267.74,1.002.139-.038.125-.64.211-1.157,1.239-.011,1.547,1.674,3.008.41.078.837.039,1.239.228,1.903,1.82-.916,3.603-2.372,5.288-3.852,1.107-1.439,2.07-2.071,3.763-.813-.513.155-.807.243-1.101.332-.006.073-.012.146-.018.219.407.073.815.147,1.289.232.038-.196.069-.362.109-.573,1.858.244.025,1.331,1.16,1.947.145-.222.277-.424.321-.491,2.015.397,1.107-1.782,1.062-2.983l.221-.011c1.393,1.19,1.093,3.687,2.551,4.428.515.045.895.155,1.256.542,1.555.89.787-1.659,1.568-2.048.891-.068,1.384.815,1.864,1.529-.706,2.114,2.41,3.08,3.585,4.5-1.671-.449-2.516-.089-.871,1.564.248-.379.391-.597.643-.982.388.711.544,1.233,1.154,1.66.353-.652.061-1.135-.149-1.768.733.212,1.375.43.935,1.405.374,2.332,4.634-.866,3.653,2.361.969-.33,3.298.337,1.931,1.503-.142.103-.149.656-.008.819.181.21.677.411.857.307.934-.569,1.385.663,2.025,1.118,1.162,2.027-1.226,4.156-1.056,5.992,1.295.571-.393,2.184-1.153.954-.333.449-.528.826.208.934,1.74,1.966-2.676,7.01-3.988,9.355.394-.117.637-.189.982-.291.17.669,1.088,1.846-.015,2.153-.805.601-.287,1.685-.252,2.709.311.016,1.261-.451,1.516-.416.644.558,1.208.281,1.767-.058.604-.367.752-.059.843.502.86,2.562,1.262,5.172,2.231,7.618.317,1.397.763,3.674,2.34,4.02.383,1.049,2.033,1.138,1.747,2.717,2.803-.3,2.283,3.391,2.327,5.162,3.157,1.536-2.063,5.342-2.237,7.638-1.478,1.139-1.861,3.49-2.987,4.17-.596.361.137,1.934-1.018,1.789-.861.91-1.321,2.122-2.231,3.455,3.624.453,6.957.87,10.282,1.286.031,1.805.954.394,1.877,1.377-.501.347-.862.598-1.199.832,1.24,1.31,2.105,4.115.015,4.892-1.308-.454-.801.539-.885,1.211.585-.193,1.077-.356,1.64-.542,1.047,1.263-1.944,2.069-.47,3.583.003,6.144-10.028,7.119-2.35,14.249-.651,1.009.866,1.709.373,2.697-.934,1.346-.606,2.705,1.104,2.999.033-.129.103-.399.177-.686,1.092.669,2.668,4.42,2.524,5.881.219-.034.496-.078.773-.122-.011.104-.023.208-.034.313-.197.213-.395.427-.592.64.024.099.047.198.071.298.424-.073.848-.146,1.429-.245-.653.739-.26,2.327-1.284,2.407-.158-.009-.326.314-.489.484.761.66,1.639-.012,2.488-.178.042.071.084.142.127.213-3.381,4.526-9.792,7.012-11.736,12.404-.141,1.708-.444.881-1.585,1.172.551.331,1.538.95.668,1.494-.825.485.065,1.265-.277,2.031-.094.003-.187.007-.281.01-.131-.213-.262-.426-.556-.905-2.982,10.721-15.92,11.623-23.697,17.553-5.102,4.349-10.229,8.948-15.928,12.397-1.117,1.821-5.236,5.279-6.626,2.349.252-.11.494-.216.987-.431-.561-.351-.93-.582-1.452-.909.157,1.206-1.052,3.463-.664,1.191-1.306-.628-.156-2.134-.835-3.454-.434.959-.764,1.688-1.096,2.419-1.539-.789-.16-3.935-1.966-4.147-.728,1.11-1.249.646-1.743-.332-.324.585-.582,1.051-.863,1.559-3.524-3.711-10.602,7.245-14.451,6.601-2.091.201-3.743,4.06-5.977,3.071-9.675-2.397-30.135,25.194-35.827,20.391.299-.129.576-.248,1.109-.478-.529-.385-.886-.645-1.308-.952-1.357,2.661-1.465-.714-1.347-1.955-.106-.033-.212-.067-.318-.1-.396.707-.792,1.416-1.182,2.112-1.752-.235.06-5.179-1.922-4.152-.972,1.417-.989.075-1.791-.345-.194.468-.375.907-.546,1.321-2.243-1.858-4.758.934-7.369.361-.883.413-2.918,1.299-2.632-.648.769-.816,1.6-4.282-.398-3.36-.746-1.186-.66-1.522.417-1.769-.137-1.555-.549-2.146-1.695-.77.185-2.582-1.879-3.662-1.233-5.965.17-.579-.46-1.536-.285-2.127.833-1.598-.355-2.311-.971-3.253-2.081-.798-2.815-2.378-3.785-4.399-.712.561-1.448,1.141-2.247,1.771.03-.309.054-.557.081-.836-2.304.497-.932,2.199-2.497,3.714-.514-2.231,1.373-3.763,1.262-5.943-8.1,9.603-15.432,22.065-23.69,30.307ZM292.04,166.409c.927.984-.194,1.482.936,1.957.264-.926,1.592-1.404.666-2.669l-.674.337-.445-.211c.239-.292.479-.583.716-.872-1.511-1.772-1.297.351-1.199,1.458ZM24.318,186.773c-.476.649-.953,1.298-1.429,1.947.449.25.961.536,1.479.825,1.051-1.102,1.047-1.961-.05-2.771ZM292.86,174.898c-.239-.102-.479-.204-.718-.306.37-.535.741-1.07,1.073-1.551-.269-.184-.593-.405-.914-.624q-.605.519.02,1.139c-.305.205-.608.409-.911.613-.01.131-.019.262-.029.394.493.112.986.224,1.479.336ZM290.751,163.046c-.344.671-.601,1.171-.964,1.879,1.145-.3,2.494-1.241.964-1.879ZM237.457,83.957c-.076.025-.151.05-.227.075-.096.687-.193,1.374-.298,2.13l.974-.449c-.147-.576-.298-1.166-.449-1.756ZM182.269,34.821c-.916.547-.936.86-.112,1.544.039-.532.071-.981.112-1.544ZM30.213,72.972c.7.166,1.108.186,1.148-.528-.461-.588-.741.02-1.148.528ZM22.571,194.647c-.506,1.013-.412,1.211.512,1.341-.192-.502-.352-.922-.512-1.341ZM291.625,171.05c.166.013.333.026.499.04.007-.443.013-.886.02-1.329-.129-.01-.259-.021-.388-.031-.043.44-.087.88-.13,1.32ZM70.403,246.7c-.035.417-.07.835-.117,1.381,1.002-.537.906-.966.117-1.381Z" fill="none"/>
    </clipPath>
    <filter id="m" data-name="drop-shadow-1" x="-56.674" y="132.907" width="176.651" height="72.085" filterUnits="userSpaceOnUse">
      <feOffset dx="-4" dy="0"/>
      <feGaussianBlur result="n" stdDeviation="0"/>
      <feFlood flood-color="#42496f" flood-opacity="1"/>
      <feComposite in2="n" operator="in"/>
      <feComposite in="SourceGraphic"/>
    </filter>
    <clipPath id="o">
      <path d="M-46.617,168.508v-29.115l164.214-6.486,1.987,33.419c1.448.908-1.587,9.267-1.415,10.938.29,2.818-1.964,5.143-5.032,5.194-1.484.025-2.88-.495-3.966-1.348-.977.896-2.225,1.452-3.646,1.475-2.292.038-4.433-1.285-5.792-3.299-3.612,2.113-9.73,3.558-16.816,3.676-7.514.125-14.248-1.272-18.215-3.472-2.8,2.415-7.015,3.98-11.886,4.061-4.705.078-9.088-1.24-12.344-3.415-2.66,2.21-6.669,3.644-11.296,3.722-4.242.071-8.203-1.012-11.226-2.819-1.575,1.903-3.729,3.069-6.206,3.11-2.835.047-5.551-1.388-7.644-3.739-1.211,2.31-4.04,3.934-7.504,3.992-3.843.064-7.302-1.817-8.793-4.495-3.493,2.837-10.119,4.81-17.926,4.94-11.897.199-21.984-3.944-22.53-9.252-.282-2.75,2.066-5.267,6.034-7.088Z" fill="none"/>
    </clipPath>
    <filter id="p" data-name="drop-shadow-2" x="-29.951" y="164.507" width="144.079" height="40.484" filterUnits="userSpaceOnUse">
      <feOffset dx="-4" dy="0"/>
      <feGaussianBlur result="q" stdDeviation="0"/>
      <feFlood flood-color="#42496f" flood-opacity="1"/>
      <feComposite in2="q" operator="in"/>
      <feComposite in="SourceGraphic"/>
    </filter>
    <clipPath id="r">
      <path d="M39.084,176.266v-16.992l51.3.784v-1.474l25.685,2.437v-1.032l16.222,1.539v19.594c.003.075,0,1.128,0,1.204,0,2.483-4.468,2.51-6.459,2.321-1.151-.109-2.164-.89-2.824-2-1.121.778-2.599,1.19-4.236,1.035-3.015-.286-5.527-2.355-6.152-4.858,0,0-11.573,3.217-11.573,4.577,0,2.646-2.825,4.522-6.309,4.192-2.127-.202-3.998-1.184-5.141-2.517-.938.796-2.152,1.235-3.496,1.108-2.945-.279-5.332-3.08-5.332-6.254,0-1.459-42.518-2.727-41.687-3.662Z" fill="none"/>
    </clipPath>
    <filter id="s" data-name="drop-shadow-3" x="37.415" y="166.042" width="89.327" height="27.984" filterUnits="userSpaceOnUse">
      <feOffset dx="-4" dy="0"/>
      <feGaussianBlur result="t" stdDeviation="0"/>
      <feFlood flood-color="#42496f" flood-opacity="1"/>
      <feComposite in2="t" operator="in"/>
      <feComposite in="SourceGraphic"/>
    </filter>
  </defs>
  <g isolation="isolate">
    <g id="k" data-name="Calque 12">
      <g clip-path="url(#l)">
        <g>
          <g filter="url(#m)">
            <g>
              <path d="M1.951,165.227s-.394.852,4.422.852,4.816-.852,4.816-.852v-7.633H2.551l-.599,7.633Z" fill="#e86170"/>
              <path d="M11.189,157.594s-1.76,2.33-8.809,2.184l.172-2.184h8.638Z" fill="#42496f"/>
              <path d="M-1.132,157.594c0,.954,2.98.951,6.655.951,6.655,0,6.655-.773,6.655-1.727s-.827-1.727-4.503-1.727-8.807,1.55-8.807,2.504Z" fill="#e86170"/>
            </g>
            <g>
              <path d="M107.053,165.227s.394.852-4.422.852-4.816-.852-4.816-.852v-7.633h8.638l.599,7.633Z" fill="#e86170"/>
              <path d="M97.816,157.594s1.76,2.33,8.809,2.184l-.172-2.184h-8.638Z" fill="#42496f"/>
              <path d="M110.136,157.594c0,.954-2.98.951-6.655.951-6.655,0-6.655-.773-6.655-1.727s.827-1.727,4.503-1.727,8.807,1.55,8.807,2.504Z" fill="#e86170"/>
            </g>
            <g clip-path="url(#o)">
              <g filter="url(#p)">
                <polygon points="-25.951 199.128 114.128 204.991 113.256 164.854 -25.577 164.507 -25.951 199.128" fill="#b1ddea"/>
                <rect x="41.415" y="170.042" width="38.654" height="18.446" transform="translate(121.484 358.529) rotate(180)" fill="#a384bb" mix-blend-mode="multiply" opacity=".5"/>
                <g>
                  <circle cx="29.004" cy="173.923" r="3.38" fill="none" stroke="#336a9b" stroke-miterlimit="10" stroke-width="1.125"/>
                  <circle cx="29.004" cy="169.959" r=".918" fill="none" stroke="#336a9b" stroke-miterlimit="10" stroke-width="1.5"/>
                </g>
              </g>
            </g>
          </g>
          <g>
            <path d="M1.917,181.25c-.145-.397.145-.728.403-.779.307-.06.612.115.688.41.08.31-.103.623-.415.705-.05.013-.103.018-.153.03-.428.102-.463.077-.523-.367Z" fill="#fff"/>
            <path d="M10.784,183.119c-.28.049-.546-.134-.602-.416-.059-.296.13-.569.425-.614.278-.042.546.152.595.429.049.277-.142.552-.418.6Z" fill="#fff"/>
            <path d="M7.479,177.823c-.235.04-.398-.09-.45-.357-.05-.258.112-.501.361-.543.242-.041.468.125.509.372.042.26-.132.48-.419.528Z" fill="#fff"/>
            <path d="M5.139,175.601c.243-.036.457.121.49.358.032.235-.132.45-.371.485-.258.038-.49-.12-.522-.356-.033-.237.142-.449.403-.487Z" fill="#fff"/>
            <path d="M5.447,181.905c-.234.04-.463-.117-.505-.348-.043-.234.115-.459.351-.499.24-.041.458.111.502.348.044.24-.108.458-.348.499Z" fill="#fff"/>
            <path d="M-.016,177.692c-.224.031-.434-.136-.459-.365-.024-.218.127-.417.344-.452.23-.038.436.116.469.349.032.228-.125.437-.353.468Z" fill="#fff"/>
            <path d="M12.554,180.886c.029.222-.116.415-.339.451-.232.037-.437-.118-.466-.351-.027-.221.121-.419.34-.453.231-.036.434.118.465.353Z" fill="#fff"/>
            <path d="M2.032,176.258c.21-.029.396.106.416.302.021.203-.135.405-.334.433-.205.029-.38-.104-.41-.31-.031-.213.109-.395.327-.425Z" fill="#fff"/>
            <path d="M10.058,185.006c-.06.009-.119.025-.179.026-.185.004-.301-.088-.311-.273-.01-.188.104-.287.284-.303.094-.009.19.013.284.008.173-.011.295.052.314.231.019.183-.096.264-.264.285-.043.005-.085.013-.128.019v.007Z" fill="#fff"/>
            <path d="M8.902,175.151c.202-.036.397.092.43.283.033.193-.122.404-.322.437-.189.032-.39-.116-.417-.306-.027-.195.109-.378.309-.414Z" fill="#fff"/>
            <path d="M3.709,186.885c.042.222-.061.405-.252.448-.18.04-.372-.091-.409-.279-.038-.189.185-.507.374-.534.15-.022.233.084.287.366Z" fill="#fff"/>
            <path d="M1.589,184.969c.2-.025.385.119.4.324.016.215-.09.352-.3.393-.202.04-.383-.1-.411-.307-.028-.205.108-.385.311-.411Z" fill="#fff"/>
            <path d="M6.841,187.601c-.193.021-.381-.134-.403-.333-.023-.202.105-.364.304-.384.201-.021.384.126.405.324.02.188-.124.373-.307.393Z" fill="#fff"/>
            <path d="M8.554,182.696c.029.187-.103.374-.287.407-.193.035-.384-.112-.409-.314-.023-.19.114-.37.3-.394.185-.024.367.115.396.301Z" fill="#fff"/>
            <path d="M3.975,183.552c-.003-.167.078-.296.271-.332.176-.032.364.105.377.279.015.192-.083.317-.27.357-.173.037-.352-.105-.378-.304Z" fill="#fff"/>
            <path d="M10.601,179.146c.098-.098.18-.242.299-.285.176-.064.303.063.335.238.033.181-.065.335-.239.341-.123.004-.25-.11-.375-.171l-.02-.123Z" fill="#fff"/>
            <path d="M5.441,178.921c-.137.164-.202.288-.303.338-.04.02-.21-.11-.235-.196-.044-.153.05-.277.223-.277.077,0,.153.062.316.135Z" fill="#fff"/>
            <path d="M8.577,177.625c.123.133.239.203.242.278.004.08-.101.164-.158.247-.081-.06-.207-.107-.228-.183-.02-.073.069-.177.144-.342Z" fill="#fff"/>
            <path d="M9.285,180.651c-.114-.122-.222-.186-.226-.256-.005-.074.089-.154.14-.231.081.057.199.1.23.177.023.057-.069.159-.143.31Z" fill="#fff"/>
            <path d="M11.412,185.801c-.121-.131-.232-.199-.232-.265,0-.075.09-.181.165-.21.044-.017.181.082.194.146.016.073-.059.166-.128.33Z" fill="#fff"/>
            <path d="M7.736,183.731c-.129.113-.196.218-.264.218-.073,0-.147-.098-.221-.153.056-.074.101-.19.172-.209.065-.018.159.068.313.144Z" fill="#fff"/>
            <path d="M6.128,184.365c-.108.108-.165.209-.226.213-.066.004-.182-.078-.192-.137-.01-.059.07-.175.134-.195.059-.018.147.057.285.119Z" fill="#fff"/>
            <path d="M10.579,177.349c-.111.105-.166.199-.232.208-.058.008-.184-.08-.183-.123.002-.075.064-.186.128-.211.054-.021.147.06.287.126Z" fill="#fff"/>
            <path d="M11.373,178.542c.114-.105.174-.205.237-.207.069-.002.141.086.212.134-.051.069-.091.175-.157.195-.061.018-.149-.058-.292-.122Z" fill="#fff"/>
            <path d="M1.021,182.247c-.089.084-.149.183-.197.178-.071-.008-.133-.09-.199-.141.055-.063.1-.158.168-.179.046-.015.124.074.228.143Z" fill="#fff"/>
            <path d="M8.648,179.76c-.088-.083-.179-.132-.178-.179.001-.067.07-.134.11-.2.06.049.146.087.17.15.017.044-.05.121-.101.229Z" fill="#fff"/>
            <path d="M6.805,179.49c-.083-.082-.158-.125-.174-.183-.01-.036.074-.142.103-.138.062.009.138.06.166.115.017.034-.047.107-.095.206Z" fill="#fff"/>
          </g>
          <g>
            <g>
              <path d="M58.599,183.187c-.29-.144-.304-.481-.188-.646.139-.196.401-.26.599-.136.209.13.272.4.143.611-.021.034-.047.064-.069.098-.184.283-.216.288-.485.073Z" fill="#fff"/>
              <path d="M64.512,179.534c-.129.176-.374.214-.554.087-.189-.133-.229-.385-.089-.566.132-.17.384-.205.558-.076.174.128.213.382.085.555Z" fill="#fff"/>
              <path d="M59.875,178.341c-.11.146-.269.161-.439.04-.164-.117-.203-.337-.087-.493.113-.151.326-.179.48-.062.161.122.18.336.046.515Z" fill="#fff"/>
              <path d="M57.4,178.344c.116-.148.318-.175.461-.061.142.113.165.32.051.466-.123.158-.335.192-.478.079-.144-.115-.159-.324-.034-.484Z" fill="#fff"/>
              <path d="M60.906,181.683c-.109.146-.319.18-.465.074-.148-.107-.179-.316-.069-.463.112-.15.313-.181.463-.072.151.11.182.311.071.461Z" fill="#fff"/>
              <path d="M55.643,182.233c-.108.136-.313.154-.448.04-.129-.108-.15-.299-.048-.433.108-.142.303-.166.445-.054.139.11.162.309.051.447Z" fill="#fff"/>
              <path d="M64.314,177.357c.134.108.155.292.05.43-.109.143-.305.166-.444.051-.132-.108-.154-.297-.051-.431.109-.142.304-.164.445-.05Z" fill="#fff"/>
              <path d="M56.022,180.353c.102-.127.276-.15.391-.053.119.101.139.296.044.417-.098.124-.266.144-.392.045-.13-.102-.148-.277-.043-.409Z" fill="#fff"/>
              <path d="M65.108,180.967c-.028.037-.053.077-.086.109-.101.1-.213.11-.317.013-.105-.099-.094-.214-.003-.318.048-.054.113-.093.162-.146.091-.098.191-.127.296-.038.107.091.086.197.004.298-.021.026-.041.052-.061.079l.004.003Z" fill="#fff"/>
              <path d="M59.252,176.103c.093-.127.269-.159.388-.07.121.09.146.289.052.413-.088.117-.278.142-.393.05-.118-.094-.139-.268-.047-.394Z" fill="#fff"/>
              <path d="M62.575,185.369c.141.101.181.257.097.382-.079.117-.254.146-.375.061-.121-.085-.165-.379-.075-.495.072-.091.174-.076.353.052Z" fill="#fff"/>
              <path d="M60.383,185.426c.098-.12.277-.138.394-.031.122.111.136.243.041.377-.091.129-.265.147-.39.047-.124-.099-.144-.271-.045-.393Z" fill="#fff"/>
              <path d="M64.693,184.11c-.096.114-.282.127-.4.028-.119-.1-.134-.258-.034-.374.101-.118.28-.134.397-.035.111.094.128.273.038.381Z" fill="#fff"/>
              <path d="M63.05,180.479c.115.088.14.262.056.378-.089.121-.273.141-.393.042-.113-.094-.133-.266-.042-.378.09-.111.264-.13.379-.042Z" fill="#fff"/>
              <path d="M60.959,183.376c-.09-.091-.113-.206-.025-.328.081-.111.257-.134.357-.045.11.099.122.22.039.341-.076.112-.251.128-.371.031Z" fill="#fff"/>
              <path d="M62.31,177.424c.002-.107-.028-.23.015-.316.064-.129.202-.126.312-.045.114.083.141.22.048.315-.066.067-.197.071-.299.104l-.076-.058Z" fill="#fff"/>
              <path d="M59.324,180.029c.01.164.04.267.01.348-.012.032-.175.05-.235.016-.106-.061-.119-.181-.023-.272.043-.04.118-.046.247-.092Z" fill="#fff"/>
              <path d="M60.38,177.65c.138.009.24-.014.282.026.044.042.031.144.043.22-.076.009-.171.05-.224.019-.05-.03-.055-.134-.101-.266Z" fill="#fff"/>
              <path d="M62.374,178.957c-.128-.007-.222.014-.261-.023-.042-.038-.032-.132-.044-.202.075-.011.163-.05.221-.023.043.02.046.125.085.248Z" fill="#fff"/>
              <path d="M66.28,180.692c-.136-.009-.234.013-.269-.025-.039-.042-.046-.148-.019-.204.016-.033.144-.05.185-.022.048.033.055.123.103.251Z" fill="#fff"/>
              <path d="M63.144,181.487c-.012.13.006.225-.031.261-.041.039-.134.023-.204.032-.008-.071-.044-.159-.015-.207.026-.044.124-.046.25-.085Z" fill="#fff"/>
              <path d="M62.585,182.689c-.003.117.019.203-.013.238-.034.037-.142.053-.179.026-.037-.027-.053-.135-.029-.179.023-.041.112-.046.221-.085Z" fill="#fff"/>
              <path d="M61.347,176.438c-.006.117.013.198-.019.239-.028.035-.144.053-.167.028-.039-.042-.063-.137-.04-.185.019-.04.113-.045.226-.082Z" fill="#fff"/>
              <path d="M62.419,176.68c.008-.119-.012-.206.022-.24.037-.038.124-.027.189-.037.008.065.042.146.016.191-.024.042-.113.047-.227.086Z" fill="#fff"/>
              <path d="M58.628,184.215c-.005.094.014.18-.016.203-.043.033-.122.02-.185.027-.003-.064-.028-.141-.001-.189.018-.032.108-.025.202-.041Z" fill="#fff"/>
              <path d="M55.938,183.046c.1.012.188-.001.212.032.031.044.012.123.015.188-.06-.002-.138.019-.174-.011-.036-.03-.031-.11-.053-.208Z" fill="#fff"/>
              <path d="M61.549,178.798c-.093,0-.169.022-.194-.005-.035-.038-.032-.111-.045-.169.059-.004.127-.029.174-.007.033.016.036.094.065.181Z" fill="#fff"/>
              <path d="M60.382,179.623c-.09-.002-.153.014-.194-.01-.025-.015-.034-.118-.015-.131.04-.028.109-.04.153-.024.027.01.031.084.056.165Z" fill="#fff"/>
            </g>
            <g>
              <path d="M49.15,184.187c-.205-.29-.042-.622.155-.72.236-.117.522-.041.648.181.133.234.054.527-.181.663-.038.022-.079.037-.117.058-.324.177-.358.164-.505-.182Z" fill="#fff"/>
              <path d="M56.751,183.749c-.216.102-.472.011-.58-.205-.113-.227-.02-.49.209-.591.216-.095.476.003.577.217.101.214.006.478-.207.579Z" fill="#fff"/>
              <path d="M52.905,180.183c-.182.084-.343.015-.444-.191-.097-.198-.02-.431.173-.52.187-.087.407-.002.495.19.092.201-.002.418-.224.521Z" fill="#fff"/>
              <path d="M50.518,178.897c.189-.082.398-.003.476.182.078.183-.008.394-.194.475-.201.088-.423.011-.502-.174-.079-.185.016-.395.219-.484Z" fill="#fff"/>
              <path d="M52.156,183.94c-.181.084-.401.007-.486-.171-.087-.181-.008-.398.174-.482.186-.086.396-.011.484.172.089.185.014.395-.172.481Z" fill="#fff"/>
              <path d="M46.799,181.728c-.175.074-.382-.015-.453-.195-.068-.171.011-.366.179-.443.178-.081.379-.002.457.179.077.178-.005.382-.183.458Z" fill="#fff"/>
              <path d="M57.694,181.549c.073.174-.003.362-.176.44-.18.081-.38,0-.455-.182-.071-.173.006-.366.176-.442.179-.08.378,0,.455.184Z" fill="#fff"/>
              <path d="M48.143,180.114c.164-.069.344-.001.404.153.062.16-.02.358-.175.424-.16.068-.331,0-.401-.161-.072-.166.002-.344.172-.417Z" fill="#fff"/>
              <path d="M56.578,185.439c-.046.021-.091.046-.14.061-.149.044-.263-.005-.312-.153-.05-.15.021-.255.163-.308.074-.028.157-.031.232-.056.138-.047.25-.023.305.118.056.144-.019.235-.151.289-.034.014-.066.029-.1.044l.002.006Z" fill="#fff"/>
              <path d="M53.47,177.703c.155-.074.342-.012.411.135.07.149-.01.354-.165.425-.146.067-.342-.008-.405-.156-.065-.152.005-.331.16-.404Z" fill="#fff"/>
              <path d="M51.844,188.361c.083.171.04.342-.106.419-.137.072-.321.008-.393-.136-.072-.145.038-.451.186-.516.117-.051.207.017.313.233Z" fill="#fff"/>
              <path d="M49.703,187.275c.157-.065.338.012.396.175.06.171.005.305-.157.385-.155.077-.332.003-.401-.158-.068-.16.003-.336.162-.402Z" fill="#fff"/>
              <path d="M54.541,188.252c-.152.059-.338-.025-.4-.181-.063-.159.005-.318.162-.379.159-.061.339.017.4.173.058.148-.019.33-.162.386Z" fill="#fff"/>
              <path d="M54.85,183.898c.064.145-.001.326-.143.393-.149.07-.336-.006-.4-.164-.061-.149.011-.325.156-.386.144-.06.323.012.387.157Z" fill="#fff"/>
              <path d="M51.326,185.6c-.04-.135-.002-.258.147-.329.136-.065.318.005.367.143.054.152.002.276-.14.349-.132.068-.309-.007-.374-.163Z" fill="#fff"/>
              <path d="M55.728,180.568c.058-.101.093-.236.179-.297.129-.091.26-.016.324.119.067.139.021.286-.118.329-.099.03-.227-.034-.342-.056l-.043-.095Z" fill="#fff"/>
              <path d="M51.494,181.522c-.075.163-.1.278-.171.341-.028.025-.195-.043-.234-.107-.07-.114-.02-.236.12-.273.062-.017.138.017.286.04Z" fill="#fff"/>
              <path d="M53.751,179.781c.129.081.239.112.258.172.02.064-.045.155-.073.235-.078-.031-.191-.041-.226-.098-.033-.055.017-.158.041-.309Z" fill="#fff"/>
              <path d="M54.991,182.079c-.12-.074-.221-.102-.24-.158-.02-.059.038-.144.063-.218.078.029.183.037.225.093.031.041-.021.144-.048.283Z" fill="#fff"/>
              <path d="M57.851,185.785c-.127-.08-.232-.11-.247-.164-.016-.061.033-.167.088-.207.032-.023.165.026.19.075.029.056-.011.148-.031.296Z" fill="#fff"/>
              <path d="M54.415,184.917c-.079.12-.111.22-.166.235-.059.016-.141-.047-.213-.076.029-.072.04-.176.093-.208.049-.029.144.02.285.048Z" fill="#fff"/>
              <path d="M53.25,185.785c-.064.111-.087.206-.137.222-.052.017-.165-.023-.186-.068-.021-.046.019-.157.065-.187.044-.028.132.014.257.034Z" fill="#fff"/>
              <path d="M55.314,179.116c-.067.11-.091.198-.143.22-.045.019-.167-.024-.175-.06-.015-.061.011-.165.057-.199.039-.029.132.016.261.039Z" fill="#fff"/>
              <path d="M56.22,179.909c.07-.111.096-.205.147-.22.056-.017.133.038.201.062-.026.067-.035.162-.084.192-.045.028-.134-.014-.264-.035Z" fill="#fff"/>
              <path d="M48.642,185.193c-.053.088-.08.181-.121.188-.059.009-.128-.044-.193-.07.031-.064.047-.15.097-.183.034-.022.117.032.216.065Z" fill="#fff"/>
              <path d="M46.659,182.665c.09.064.182.097.187.141.007.058-.052.125-.083.189-.057-.033-.142-.053-.162-.101-.019-.048.028-.122.058-.228Z" fill="#fff"/>
              <path d="M54.279,181.496c-.089-.048-.174-.067-.184-.106-.014-.055.027-.124.045-.186.059.026.138.039.171.084.024.032-.014.109-.032.208Z" fill="#fff"/>
              <path d="M52.725,181.683c-.086-.048-.155-.066-.182-.11-.016-.027.028-.132.054-.134.053-.006.125.018.16.057.021.023-.014.097-.032.188Z" fill="#fff"/>
            </g>
            <g>
              <path d="M40.021,184.075c-.153-.353.092-.669.324-.73.276-.072.562.071.648.335.09.278-.059.571-.338.663-.045.015-.092.022-.137.036-.383.116-.416.095-.496-.305Z" fill="#fff"/>
              <path d="M48.178,185.289c-.252.06-.503-.092-.569-.345-.07-.266.087-.524.352-.581.25-.053.504.108.564.358.06.249-.099.509-.347.568Z" fill="#fff"/>
              <path d="M44.887,180.659c-.211.049-.367-.06-.429-.3-.06-.231.074-.461.298-.513.218-.05.432.088.483.311.053.234-.094.443-.352.503Z" fill="#fff"/>
              <path d="M42.64,178.768c.219-.046.422.085.465.298.042.211-.095.416-.31.461-.232.049-.451-.082-.494-.295-.043-.214.105-.415.339-.464Z" fill="#fff"/>
              <path d="M43.264,184.478c-.211.049-.427-.081-.478-.288-.052-.211.079-.424.291-.473.216-.05.422.075.475.289.053.215-.073.422-.289.472Z" fill="#fff"/>
              <path d="M38.071,180.948c-.202.04-.401-.1-.437-.306-.034-.197.093-.386.288-.43.207-.047.402.081.445.291.042.205-.09.404-.296.445Z" fill="#fff"/>
              <path d="M49.664,183.164c.039.2-.083.384-.283.428-.209.046-.403-.083-.442-.293-.037-.199.087-.387.284-.43.208-.045.401.084.442.295Z" fill="#fff"/>
              <path d="M39.853,179.534c.189-.037.365.075.395.251.03.183-.1.375-.279.411-.184.037-.351-.073-.39-.259-.04-.192.078-.365.274-.404Z" fill="#fff"/>
              <path d="M47.622,187.044c-.054.012-.107.029-.161.033-.168.014-.278-.063-.297-.231-.019-.17.079-.266.241-.291.085-.013.173.002.258-.009.157-.019.271.031.297.193.027.165-.073.245-.224.273-.039.007-.077.016-.115.025v.007Z" fill="#fff"/>
              <path d="M46.034,178.153c.181-.044.365.062.406.234.041.174-.089.373-.269.415-.17.039-.361-.084-.395-.255-.036-.176.079-.35.258-.393Z" fill="#fff"/>
              <path d="M41.956,189.097c.051.2-.033.371-.204.421-.161.046-.343-.062-.387-.231-.044-.17.14-.47.311-.506.135-.028.216.064.28.317Z" fill="#fff"/>
              <path d="M39.925,187.472c.181-.034.356.087.381.273.026.194-.062.324-.251.374-.182.047-.353-.07-.39-.256-.037-.185.078-.356.26-.39Z" fill="#fff"/>
              <path d="M44.841,189.576c-.174.03-.353-.101-.384-.28-.032-.182.076-.336.255-.366.182-.03.356.093.386.272.028.17-.093.346-.257.374Z" fill="#fff"/>
              <path d="M46.129,185.027c.036.168-.074.345-.239.385-.173.042-.355-.081-.388-.263-.031-.172.083-.342.251-.375.166-.032.34.084.376.252Z" fill="#fff"/>
              <path d="M42.016,186.054c-.012-.152.055-.274.228-.316.158-.039.336.075.358.233.024.173-.058.293-.225.339-.155.043-.326-.076-.36-.255Z" fill="#fff"/>
              <path d="M47.795,181.69c.084-.095.15-.229.256-.275.157-.068.279.04.318.198.04.163-.04.308-.198.322-.112.01-.233-.086-.35-.135l-.025-.111Z" fill="#fff"/>
              <path d="M43.095,181.767c-.116.156-.168.273-.257.324-.035.02-.197-.088-.225-.165-.049-.136.031-.255.187-.264.07-.004.142.048.294.105Z" fill="#fff"/>
              <path d="M45.874,180.419c.119.114.228.171.235.24.008.072-.082.155-.13.233-.076-.05-.194-.086-.217-.154-.023-.065.053-.164.112-.318Z" fill="#fff"/>
              <path d="M46.681,183.129c-.111-.105-.212-.157-.22-.22-.008-.067.073-.144.114-.217.076.048.186.08.218.148.024.05-.054.149-.113.29Z" fill="#fff"/>
              <path d="M48.895,187.692c-.117-.112-.222-.168-.225-.229-.004-.068.072-.17.139-.2.039-.018.169.064.185.122.018.066-.045.154-.098.307Z" fill="#fff"/>
              <path d="M45.443,186.012c-.111.109-.166.209-.228.213-.067.004-.139-.081-.209-.127.047-.07.081-.178.145-.2.058-.02.148.053.292.114Z" fill="#fff"/>
              <path d="M44.016,186.675c-.092.104-.138.199-.194.205-.059.007-.169-.061-.182-.114-.013-.053.054-.163.111-.184.053-.02.137.044.265.092Z" fill="#fff"/>
              <path d="M47.677,180.059c-.095.102-.14.19-.2.202-.052.011-.171-.062-.173-.102-.003-.068.048-.172.105-.198.048-.022.137.046.268.099Z" fill="#fff"/>
              <path d="M48.464,181.1c.098-.102.147-.196.204-.201.063-.006.133.07.2.111-.043.065-.073.164-.132.185-.054.02-.139-.044-.272-.095Z" fill="#fff"/>
              <path d="M39.261,185.03c-.076.082-.125.174-.17.172-.065-.003-.126-.075-.189-.117.047-.061.082-.149.143-.172.041-.016.117.06.215.117Z" fill="#fff"/>
              <path d="M37.716,181.912c.081.088.172.143.168.191-.005.064-.083.121-.13.182-.053-.047-.139-.088-.15-.143-.01-.055.056-.124.112-.229Z" fill="#fff"/>
              <path d="M46.055,182.354c-.084-.071-.17-.11-.172-.153-.003-.061.056-.125.089-.188.057.041.137.072.163.127.018.039-.039.113-.08.213Z" fill="#fff"/>
              <path d="M44.365,182.209c-.08-.07-.15-.105-.168-.157-.011-.032.059-.133.087-.131.057.005.129.047.157.096.017.03-.037.1-.075.192Z" fill="#fff"/>
            </g>
          </g>
          <g>
            <g>
              <path d="M113.61,179.669c-.264-.226-.189-.58-.025-.72.195-.167.485-.164.658.016.183.19.177.487-.013.672-.031.03-.066.055-.097.084-.265.245-.301.242-.523-.052Z" fill="#fff"/>
              <path d="M120.714,177.432c-.181.148-.445.124-.599-.055-.161-.188-.136-.46.057-.611.182-.142.452-.112.6.068.147.179.121.452-.058.599Z" fill="#fff"/>
              <path d="M116.213,174.972c-.152.123-.322.096-.467-.074-.14-.164-.122-.404.039-.535.157-.127.386-.1.515.062.135.169.099.397-.087.547Z" fill="#fff"/>
              <path d="M113.64,174.324c.16-.123.376-.098.495.059.118.155.087.376-.07.497-.169.131-.399.112-.518-.044-.119-.157-.079-.379.092-.511Z" fill="#fff"/>
              <path d="M116.403,178.714c-.151.123-.378.103-.502-.045-.126-.15-.103-.375.05-.499.155-.126.373-.106.5.047.128.154.108.371-.048.498Z" fill="#fff"/>
              <path d="M110.791,177.9c-.148.112-.365.078-.476-.076-.105-.146-.077-.35.064-.463.149-.12.359-.093.476.061.115.15.087.363-.064.478Z" fill="#fff"/>
              <path d="M121.082,175.119c.11.147.084.344-.061.459-.151.12-.36.092-.475-.064-.109-.147-.082-.349.061-.461.151-.119.359-.09.476.065Z" fill="#fff"/>
              <path d="M111.68,176.047c.139-.105.326-.084.42.048.097.137.067.344-.064.444-.135.103-.314.079-.419-.056-.108-.14-.081-.327.063-.436Z" fill="#fff"/>
              <path d="M120.956,179.076c-.039.031-.075.066-.118.091-.131.077-.251.059-.333-.07-.083-.131-.041-.247.081-.331.064-.044.141-.067.206-.109.12-.078.232-.082.318.039.087.123.038.228-.074.311-.029.021-.056.044-.084.066l.004.005Z" fill="#fff"/>
              <path d="M116.154,172.484c.13-.107.321-.094.422.029.102.125.075.338-.055.443-.123.099-.326.074-.422-.051-.098-.129-.074-.315.054-.421Z" fill="#fff"/>
              <path d="M117.166,182.982c.12.142.12.315,0,.422-.113.101-.303.085-.405-.035-.103-.12-.072-.437.053-.534.098-.076.201-.034.353.146Z" fill="#fff"/>
              <path d="M114.875,182.465c.133-.099.324-.07.417.071.098.147.078.288-.057.403-.129.11-.314.083-.418-.054-.103-.136-.078-.32.057-.42Z" fill="#fff"/>
              <path d="M119.698,182.232c-.13.093-.327.057-.423-.076-.098-.136-.071-.303.063-.398.136-.096.326-.065.421.069.09.127.061.317-.061.405Z" fill="#fff"/>
              <path d="M118.947,178.028c.096.122.077.309-.042.407-.124.102-.32.074-.419-.06-.093-.127-.068-.311.056-.403.122-.092.309-.066.405.056Z" fill="#fff"/>
              <path d="M116.013,180.487c-.07-.119-.063-.244.06-.347.113-.094.303-.072.382.048.088.131.068.261-.049.365-.109.096-.295.067-.394-.065Z" fill="#fff"/>
              <path d="M118.982,174.66c.031-.11.032-.246.099-.324.1-.117.242-.078.336.035.097.116.089.266-.034.34-.087.052-.223.022-.338.029l-.064-.08Z" fill="#fff"/>
              <path d="M115.195,176.58c-.032.173-.029.288-.081.365-.021.03-.195.006-.248-.046-.093-.092-.076-.219.048-.288.055-.031.135-.017.281-.031Z" fill="#fff"/>
              <path d="M116.919,174.387c.141.046.253.049.286.102.035.056-.006.158-.013.24-.082-.01-.191.007-.237-.039-.044-.044-.022-.154-.035-.303Z" fill="#fff"/>
              <path d="M118.646,176.269c-.131-.041-.234-.044-.265-.092-.033-.051.002-.146.007-.222.081.008.183-.009.236.034.039.032.015.142.023.28Z" fill="#fff"/>
              <path d="M122.246,179.1c-.139-.045-.247-.049-.273-.097-.03-.054-.009-.166.034-.217.025-.03.163-.014.198.026.041.046.025.143.041.288Z" fill="#fff"/>
              <path d="M118.779,179.1c-.047.132-.052.235-.101.263-.053.03-.145-.011-.22-.021.01-.076-.004-.176.039-.219.039-.039.141-.015.282-.023Z" fill="#fff"/>
              <path d="M117.882,180.202c-.034.121-.034.216-.076.244-.045.029-.162.018-.193-.02-.031-.038-.02-.154.017-.193.035-.037.128-.019.252-.03Z" fill="#fff"/>
              <path d="M118.242,173.382c-.037.12-.038.209-.082.243-.038.029-.164.017-.181-.015-.029-.054-.029-.159.007-.202.03-.037.129-.017.257-.026Z" fill="#fff"/>
              <path d="M119.291,173.917c.039-.122.042-.217.087-.244.049-.029.136.005.206.011-.009.07.005.162-.034.203-.036.037-.13.019-.258.03Z" fill="#fff"/>
              <path d="M113.37,180.745c-.03.096-.033.191-.07.207-.054.023-.132-.011-.2-.021.014-.068.008-.153.048-.196.027-.029.119.003.221.01Z" fill="#fff"/>
              <path d="M110.884,178.822c.101.039.196.048.212.088.021.054-.02.131-.034.199-.062-.017-.148-.016-.178-.057-.03-.04-.003-.123,0-.23Z" fill="#fff"/>
              <path d="M117.831,175.887c-.096-.024-.182-.022-.2-.056-.026-.049-.004-.124-.002-.188.062.011.14.004.182.039.03.025.013.107.02.205Z" fill="#fff"/>
              <path d="M116.401,176.437c-.093-.025-.163-.026-.199-.061-.022-.022-.005-.132.019-.14.048-.018.123-.013.165.016.026.017.01.095.015.186Z" fill="#fff"/>
            </g>
            <g>
              <path d="M103.751,177.147c-.072-.413.269-.686.53-.69.31-.005.578.22.6.521.024.317-.209.59-.528.616-.051.004-.103,0-.155.003-.435.024-.466-.006-.447-.45Z" fill="#fff"/>
              <path d="M112.083,180.524c-.282,0-.51-.227-.515-.511-.006-.299.227-.533.522-.525.279.008.507.244.506.524,0,.279-.235.514-.514.513Z" fill="#fff"/>
              <path d="M109.783,174.774c-.237-.002-.373-.158-.377-.428-.004-.26.197-.47.448-.467.244.002.436.204.432.453-.004.261-.213.445-.502.442Z" fill="#fff"/>
              <path d="M107.887,172.194c.244.008.426.198.416.435-.009.235-.208.416-.447.409-.259-.008-.457-.203-.448-.439.01-.238.217-.413.479-.405Z" fill="#fff"/>
              <path d="M107.084,178.405c-.236-.002-.431-.195-.433-.428-.001-.237.192-.429.43-.426.242.002.428.188.429.428.001.242-.185.428-.427.427Z" fill="#fff"/>
              <path d="M102.486,173.334c-.224-.009-.4-.209-.385-.437.014-.217.197-.385.415-.382.231.004.405.189.397.423-.008.228-.199.405-.427.396Z" fill="#fff"/>
              <path d="M114.203,178.653c-.01.222-.186.385-.41.381-.233-.005-.406-.192-.394-.424.012-.221.191-.388.411-.383.232.005.403.192.393.426Z" fill="#fff"/>
              <path d="M104.738,172.292c.21.009.368.173.354.368-.015.202-.202.372-.402.364-.205-.008-.353-.168-.346-.374.007-.213.176-.367.394-.357Z" fill="#fff"/>
              <path d="M111.044,182.241c-.06-.002-.121.003-.18-.006-.181-.029-.278-.138-.256-.321.023-.185.152-.262.33-.246.093.008.183.046.276.057.171.02.279.102.266.28-.013.182-.14.241-.308.232-.043-.002-.086-.002-.129-.004v.007Z" fill="#fff"/>
              <path d="M111.641,172.413c.203,0,.371.16.37.352-.001.194-.19.373-.391.37-.19-.002-.36-.182-.353-.372.007-.195.173-.35.375-.35Z" fill="#fff"/>
              <path d="M104.515,182.963c.002.224-.13.385-.324.393-.183.008-.347-.154-.351-.344-.004-.191.269-.462.459-.456.15.005.213.123.216.407Z" fill="#fff"/>
              <path d="M102.779,180.721c.2.01.355.183.334.387-.022.213-.149.328-.362.331-.205.004-.356-.164-.348-.371.009-.205.173-.357.376-.347Z" fill="#fff"/>
              <path d="M107.448,184.211c-.192-.013-.348-.198-.335-.395.013-.201.167-.337.364-.322.2.015.353.19.339.387-.013.187-.187.343-.368.33Z" fill="#fff"/>
              <path d="M109.98,179.721c-.005.187-.166.347-.352.347-.194,0-.356-.177-.344-.378.011-.19.176-.341.362-.333.185.009.338.176.334.364Z" fill="#fff"/>
              <path d="M105.358,179.755c.026-.164.128-.276.323-.277.178,0,.337.166.319.338-.019.19-.137.295-.326.302-.175.006-.326-.164-.316-.363Z" fill="#fff"/>
              <path d="M112.601,176.613c.113-.079.218-.204.341-.226.184-.032.285.114.286.291,0,.183-.122.316-.293.291-.121-.018-.225-.151-.336-.232l.002-.124Z" fill="#fff"/>
              <path d="M107.601,175.489c-.163.136-.248.246-.355.277-.043.012-.186-.144-.196-.233-.017-.157.098-.262.266-.231.075.014.138.088.285.187Z" fill="#fff"/>
              <path d="M110.89,174.773c.096.151.198.24.188.314-.011.079-.127.143-.197.213-.068-.073-.183-.14-.191-.219-.007-.075.098-.16.2-.309Z" fill="#fff"/>
              <path d="M111.051,177.852c-.09-.139-.184-.22-.176-.29.008-.073.114-.134.177-.201.069.07.177.132.193.213.012.06-.095.144-.194.278Z" fill="#fff"/>
              <path d="M112.227,183.254c-.095-.149-.192-.235-.18-.3.014-.073.12-.161.198-.176.046-.009.162.112.164.176.002.074-.087.152-.183.3Z" fill="#fff"/>
              <path d="M109,180.589c-.145.087-.23.179-.296.167-.072-.013-.127-.121-.189-.188.068-.062.132-.168.205-.174.066-.006.143.094.28.196Z" fill="#fff"/>
              <path d="M107.318,180.926c-.124.086-.197.175-.258.168-.065-.008-.164-.108-.164-.167,0-.06.099-.159.165-.167.061-.008.134.081.258.166Z" fill="#fff"/>
              <path d="M112.894,174.854c-.127.083-.197.165-.263.163-.058-.002-.165-.11-.157-.152.015-.073.095-.17.162-.183.056-.011.133.084.259.173Z" fill="#fff"/>
              <path d="M113.46,176.158c.13-.083.206-.17.268-.16.068.01.123.108.183.168-.062.058-.12.155-.188.163-.063.007-.136-.083-.264-.17Z" fill="#fff"/>
              <path d="M102.701,177.964c-.102.067-.177.153-.224.139-.068-.02-.114-.112-.17-.173.065-.052.125-.136.196-.146.047-.006.108.094.198.179Z" fill="#fff"/>
              <path d="M101.864,174.263c.064.114.145.195.129.245-.022.066-.119.107-.184.159-.044-.063-.125-.129-.122-.19.003-.061.091-.117.177-.214Z" fill="#fff"/>
              <path d="M110.586,176.87c-.071-.097-.152-.16-.143-.206.013-.066.092-.118.142-.176.05.058.127.111.14.176.009.046-.07.109-.139.206Z" fill="#fff"/>
              <path d="M108.833,176.283c-.067-.095-.132-.149-.138-.21-.004-.037.097-.126.125-.116.059.02.125.083.142.142.01.036-.064.096-.129.184Z" fill="#fff"/>
            </g>
            <g>
              <path d="M97.584,180.006c.045-.257.302-.345.455-.293.183.062.292.25.242.431-.053.191-.247.302-.439.25-.031-.008-.061-.022-.091-.031-.26-.077-.271-.101-.167-.357Z" fill="#fff"/>
              <path d="M101.754,183.735c-.165-.06-.251-.24-.194-.408.06-.176.245-.265.416-.198.162.063.246.249.186.413-.059.163-.246.251-.409.192Z" fill="#fff"/>
              <path d="M101.615,179.884c-.138-.051-.186-.171-.131-.33.053-.153.214-.234.36-.18.142.053.212.211.158.356-.057.152-.218.216-.387.154Z" fill="#fff"/>
              <path d="M101.047,177.975c.141.056.208.205.152.342-.055.136-.209.2-.348.146-.15-.059-.225-.215-.17-.351.056-.137.214-.196.365-.137Z" fill="#fff"/>
              <path d="M99.272,181.443c-.138-.05-.212-.205-.163-.342.049-.139.203-.211.341-.159.141.052.211.2.162.341-.05.142-.198.212-.34.16Z" fill="#fff"/>
              <path d="M97.645,177.507c-.129-.052-.19-.206-.134-.337.054-.124.196-.184.323-.136.134.051.198.196.144.331-.053.132-.201.195-.333.142Z" fill="#fff"/>
              <path d="M103.389,183.085c-.053.128-.19.187-.32.137-.135-.052-.198-.197-.141-.331.053-.127.194-.187.321-.138.135.052.196.197.14.332Z" fill="#fff"/>
              <path d="M99.182,177.37c.121.049.179.179.13.29-.051.115-.197.175-.312.129-.118-.048-.172-.172-.124-.292.049-.123.18-.178.306-.126Z" fill="#fff"/>
              <path d="M100.785,184.522c-.035-.014-.071-.023-.104-.041-.1-.055-.134-.139-.082-.242.052-.104.144-.121.245-.075.053.024.097.066.15.091.096.048.142.118.097.22-.046.104-.132.112-.229.071-.025-.01-.05-.019-.075-.029l-.002.004Z" fill="#fff"/>
              <path d="M103.2,178.892c.119.043.184.172.143.284-.042.114-.189.178-.307.135-.111-.041-.173-.182-.129-.292.045-.113.175-.169.293-.126Z" fill="#fff"/>
              <path d="M96.809,183.573c-.046.132-.157.198-.273.162-.109-.034-.171-.163-.133-.275.038-.113.255-.214.365-.171.087.034.099.117.041.284Z" fill="#fff"/>
              <path d="M96.264,181.895c.115.048.169.182.114.297-.058.12-.156.161-.282.118-.121-.041-.174-.171-.125-.291.048-.118.177-.173.293-.124Z" fill="#fff"/>
              <path d="M98.265,184.92c-.11-.048-.162-.189-.113-.302.05-.115.168-.162.281-.112.114.051.167.186.117.298-.047.107-.181.161-.285.116Z" fill="#fff"/>
              <path d="M100.691,182.823c-.042.109-.17.168-.279.129-.114-.041-.171-.178-.122-.294.046-.109.175-.163.282-.119.106.044.161.174.119.283Z" fill="#fff"/>
              <path d="M97.977,181.871c.05-.091.133-.134.247-.094.104.037.162.168.116.265-.051.107-.142.144-.254.108-.104-.033-.156-.165-.109-.279Z" fill="#fff"/>
              <path d="M102.879,181.553c.083-.022.171-.074.247-.061.114.02.143.127.106.231-.038.107-.138.159-.233.109-.067-.036-.1-.136-.148-.207l.027-.072Z" fill="#fff"/>
              <path d="M100.187,179.844c-.124.045-.197.092-.266.088-.028-.002-.079-.123-.066-.177.023-.095.112-.133.204-.08.041.024.063.08.128.169Z" fill="#fff"/>
              <path d="M102.264,180.116c.025.109.065.182.044.224-.023.044-.104.057-.16.084-.025-.057-.078-.121-.066-.168.012-.045.091-.073.182-.139Z" fill="#fff"/>
              <path d="M101.711,181.953c-.024-.101-.061-.168-.042-.207.02-.041.095-.055.146-.081.026.055.076.115.069.165-.005.037-.086.064-.172.122Z" fill="#fff"/>
              <path d="M101.265,185.363c-.024-.107-.063-.178-.042-.213.023-.04.104-.069.153-.062.029.005.072.099.059.138-.014.044-.083.071-.17.137Z" fill="#fff"/>
              <path d="M99.935,183.125c-.103.021-.172.056-.208.036-.039-.022-.049-.098-.071-.15.053-.022.112-.07.156-.059.04.01.064.085.123.173Z" fill="#fff"/>
              <path d="M98.879,182.968c-.091.024-.152.061-.187.044-.036-.018-.073-.098-.061-.132.013-.035.092-.072.131-.063.037.008.061.076.116.151Z" fill="#fff"/>
              <path d="M103.42,180.584c-.092.022-.15.055-.188.04-.034-.013-.074-.099-.06-.122.024-.04.091-.08.133-.073.035.005.06.077.115.156Z" fill="#fff"/>
              <path d="M103.478,181.467c.094-.021.156-.056.191-.038.038.02.049.089.072.137-.049.021-.103.066-.144.056-.038-.009-.062-.077-.119-.155Z" fill="#fff"/>
              <path d="M96.798,180.264c-.074.018-.136.052-.16.034-.035-.026-.044-.089-.063-.137.049-.017.102-.053.145-.044.029.006.044.078.078.147Z" fill="#fff"/>
              <path d="M97.085,177.92c.014.08.044.145.024.171-.027.034-.092.038-.141.055-.012-.046-.046-.102-.031-.137.015-.035.078-.049.149-.088Z" fill="#fff"/>
              <path d="M101.645,181.28c-.021-.071-.055-.126-.04-.151.021-.036.078-.05.12-.073.017.045.051.092.045.133-.005.029-.064.049-.125.091Z" fill="#fff"/>
              <path d="M100.742,180.568c-.019-.07-.046-.115-.037-.152.006-.022.083-.053.098-.042.03.024.056.075.053.113-.001.023-.058.043-.114.081Z" fill="#fff"/>
            </g>
            <g>
              <path d="M87.869,185.154c-.345-.198-.337-.612-.182-.804.184-.23.51-.288.743-.123.246.175.304.51.129.759-.028.04-.063.075-.092.115-.246.332-.286.336-.599.054Z" fill="#fff"/>
              <path d="M95.378,181.122c-.171.205-.474.234-.685.066-.222-.177-.251-.488-.067-.699.174-.199.485-.222.689-.052.203.169.232.483.063.685Z" fill="#fff"/>
              <path d="M89.791,179.318c-.145.171-.341.177-.541.016-.192-.155-.223-.428-.07-.609.149-.176.412-.194.592-.041.188.161.196.425.019.634Z" fill="#fff"/>
              <path d="M86.761,179.139c.153-.173.402-.19.569-.04.166.149.178.404.028.574-.162.184-.425.211-.591.061-.168-.151-.17-.409-.006-.594Z" fill="#fff"/>
              <path d="M90.805,183.485c-.144.171-.403.196-.574.056-.173-.142-.196-.4-.051-.572.148-.175.397-.198.572-.054.177.145.2.394.053.57Z" fill="#fff"/>
              <path d="M84.322,183.768c-.142.158-.394.165-.552.016-.15-.142-.161-.377-.027-.534.142-.166.384-.181.549-.033.162.144.175.39.03.551Z" fill="#fff"/>
              <path d="M95.297,178.443c.156.142.168.369.029.53-.145.167-.386.18-.548.03-.154-.142-.167-.374-.03-.531.144-.166.384-.178.549-.028Z" fill="#fff"/>
              <path d="M84.925,181.495c.134-.148.349-.164.482-.035.138.133.149.373.023.513-.13.145-.336.156-.483.026-.151-.134-.161-.35-.022-.504Z" fill="#fff"/>
              <path d="M96.001,182.92c-.037.043-.071.09-.113.127-.131.115-.269.119-.389-.008-.121-.129-.099-.269.02-.39.062-.063.145-.105.209-.167.118-.113.243-.142.365-.024.125.12.091.248-.017.365-.028.03-.054.061-.08.092l.005.005Z" fill="#fff"/>
              <path d="M89.194,176.533c.123-.148.341-.174.481-.057.141.119.157.364.033.51-.117.137-.351.153-.485.033-.138-.124-.151-.338-.029-.485Z" fill="#fff"/>
              <path d="M92.574,188.12c.165.134.202.328.09.475-.105.138-.322.16-.463.047-.142-.113-.174-.476-.055-.611.094-.107.219-.081.428.089Z" fill="#fff"/>
              <path d="M89.887,188.028c.129-.14.349-.148.484-.009.142.145.149.307.022.465-.121.151-.336.16-.481.029-.144-.13-.156-.343-.025-.484Z" fill="#fff"/>
              <path d="M95.261,186.736c-.126.132-.355.134-.491.005-.139-.132-.145-.326-.014-.461.132-.137.353-.143.488-.013.128.123.137.344.018.469Z" fill="#fff"/>
              <path d="M93.519,182.17c.134.117.152.331.04.467-.118.142-.344.152-.484.022-.132-.123-.143-.335-.023-.465.118-.129.333-.14.467-.023Z" fill="#fff"/>
              <path d="M90.744,185.562c-.104-.118-.123-.261-.006-.403.107-.13.325-.145.44-.028.127.129.133.279.023.42-.102.131-.317.138-.456.011Z" fill="#fff"/>
              <path d="M92.839,178.376c.011-.13-.017-.283.042-.386.088-.153.256-.139.385-.032.133.11.157.28.035.39-.086.077-.246.073-.373.105l-.089-.076Z" fill="#fff"/>
              <path d="M88.991,181.343c0,.201.029.33-.013.427-.017.039-.218.049-.288.002-.125-.083-.132-.23-.008-.334.055-.046.148-.048.309-.095Z" fill="#fff"/>
              <path d="M90.46,178.509c.169.021.295.001.343.053.051.055.027.179.036.273-.094.006-.214.049-.275.007-.059-.04-.058-.169-.104-.333Z" fill="#fff"/>
              <path d="M92.804,180.257c-.156-.019-.272,0-.318-.047-.048-.05-.029-.164-.039-.251.093-.008.203-.049.272-.012.051.027.047.156.085.31Z" fill="#fff"/>
              <path d="M97.456,182.67c-.166-.021-.288-.002-.328-.05-.045-.054-.045-.185-.008-.251.022-.039.18-.051.228-.013.056.043.058.155.108.315Z" fill="#fff"/>
              <path d="M93.558,183.411c-.024.159-.009.276-.057.317-.053.045-.165.019-.252.024-.004-.087-.043-.197-.003-.255.036-.052.155-.047.312-.086Z" fill="#fff"/>
              <path d="M92.785,184.841c-.013.143.008.25-.034.29-.045.042-.178.054-.221.018-.043-.036-.055-.169-.022-.221.031-.049.14-.048.277-.087Z" fill="#fff"/>
              <path d="M91.733,177.097c-.016.143.001.243-.041.291-.037.041-.181.054-.206.022-.044-.055-.067-.172-.036-.229.026-.048.142-.046.283-.084Z" fill="#fff"/>
              <path d="M93.027,177.474c.018-.145.001-.253.045-.293.049-.043.153-.024.234-.032.005.08.041.181.005.235-.033.05-.142.049-.284.089Z" fill="#fff"/>
              <path d="M87.829,186.415c-.013.115.004.222-.034.247-.056.037-.151.016-.229.02.001-.079-.023-.174.012-.231.024-.038.134-.022.251-.036Z" fill="#fff"/>
              <path d="M84.623,184.785c.122.022.23.012.257.054.035.056.006.152.005.231-.073-.006-.17.013-.212-.026-.042-.039-.03-.137-.049-.259Z" fill="#fff"/>
              <path d="M91.806,180.001c-.113-.007-.209.014-.237-.02-.04-.049-.031-.138-.042-.211.073-.001.158-.026.213.005.039.022.037.117.066.226Z" fill="#fff"/>
              <path d="M90.316,180.925c-.11-.009-.189.006-.237-.026-.029-.02-.033-.147-.009-.162.05-.031.136-.041.189-.018.032.014.031.105.056.206Z" fill="#fff"/>
            </g>
          </g>
          <g clip-path="url(#r)">
            <g filter="url(#s)">
              <polygon points="86.183 183.715 73.394 169.999 77.689 170.071 86.743 179.545 86.183 183.715" fill="#336a9b"/>
              <polygon points="90.551 183.762 90.551 179.26 97.478 171.987 102.049 171.16 90.551 183.762" fill="#336a9b"/>
              <polygon points="121.875 183.122 112.455 171.485 116.334 171.485 122.568 178.622 121.875 183.122" fill="#336a9b"/>
              <rect x="41.415" y="169.041" width="83.713" height="3.173" transform="translate(166.543 341.255) rotate(180)" fill="#e86170"/>
              <rect x="41.415" y="169.041" width="45.106" height="3.173" transform="translate(127.936 341.255) rotate(180)" fill="#a384bb" mix-blend-mode="multiply" opacity=".5"/>
              <g>
                <polygon points="121.201 194.026 126.742 194.026 125.747 166.042 121.201 166.042 121.201 194.026" fill="#e86170"/>
                <polygon points="85.232 191.989 91.327 191.989 90.15 166.042 85.32 166.498 85.232 191.989" fill="#e86170"/>
              </g>
            </g>
          </g>
          <g>
            <g>
              <path d="M101.48,188.539c-.29-.144-.304-.481-.188-.646.139-.196.401-.26.599-.136.209.13.272.4.143.611-.021.034-.047.064-.069.098-.184.283-.216.288-.485.073Z" fill="#fff"/>
              <path d="M107.393,184.887c-.129.176-.374.214-.554.087-.189-.133-.229-.385-.089-.566.132-.17.384-.205.558-.076.174.128.213.382.085.555Z" fill="#fff"/>
              <path d="M102.757,183.694c-.11.146-.269.161-.439.04-.164-.117-.203-.337-.087-.493.113-.151.326-.179.48-.062.161.122.18.336.046.515Z" fill="#fff"/>
              <path d="M100.281,183.697c.116-.148.318-.175.461-.061.142.113.165.32.051.466-.123.158-.335.192-.478.079-.144-.115-.159-.324-.034-.484Z" fill="#fff"/>
              <path d="M103.787,187.036c-.109.146-.319.18-.465.074-.148-.107-.179-.316-.069-.463.112-.15.313-.181.463-.072.151.11.182.311.071.461Z" fill="#fff"/>
              <path d="M98.524,187.586c-.108.136-.313.154-.448.04-.129-.108-.15-.299-.048-.433.108-.142.303-.166.445-.054.139.11.162.309.051.447Z" fill="#fff"/>
              <path d="M107.195,182.71c.134.108.155.292.05.43-.109.143-.305.166-.444.051-.132-.108-.154-.297-.051-.431.109-.142.304-.164.445-.05Z" fill="#fff"/>
              <path d="M98.903,185.706c.102-.127.276-.15.391-.053.119.101.139.296.044.417-.098.124-.266.144-.392.045-.13-.102-.148-.277-.043-.409Z" fill="#fff"/>
              <path d="M107.989,186.319c-.028.037-.053.077-.086.109-.101.1-.213.11-.317.013-.105-.099-.094-.214-.003-.318.048-.054.113-.093.162-.146.091-.098.191-.127.296-.038.107.091.086.197.004.298-.021.026-.041.052-.061.079l.004.003Z" fill="#fff"/>
              <path d="M102.133,181.456c.093-.127.269-.159.388-.07.121.09.146.289.052.413-.088.117-.278.142-.393.05-.118-.094-.139-.268-.047-.394Z" fill="#fff"/>
              <path d="M105.456,190.721c.141.101.181.257.097.382-.079.117-.254.146-.375.061-.121-.085-.165-.379-.075-.495.072-.091.174-.076.353.052Z" fill="#fff"/>
              <path d="M103.264,190.779c.098-.12.277-.138.394-.031.122.111.136.243.041.377-.091.129-.265.147-.39.047-.124-.099-.144-.271-.045-.393Z" fill="#fff"/>
              <path d="M107.575,189.462c-.096.114-.282.127-.4.028-.119-.1-.134-.258-.034-.374.101-.118.28-.134.397-.035.111.094.128.273.038.381Z" fill="#fff"/>
              <path d="M105.931,185.832c.115.088.14.262.056.378-.089.121-.273.141-.393.042-.113-.094-.133-.266-.042-.378.09-.111.264-.13.379-.042Z" fill="#fff"/>
              <path d="M103.84,188.729c-.09-.091-.113-.206-.025-.328.081-.111.257-.134.357-.045.11.099.122.22.039.341-.076.112-.251.128-.371.031Z" fill="#fff"/>
              <path d="M105.191,182.777c.002-.107-.028-.23.015-.316.064-.129.202-.126.312-.045.114.083.141.22.048.315-.066.067-.197.071-.299.104l-.076-.058Z" fill="#fff"/>
              <path d="M102.205,185.382c.01.164.04.267.01.348-.012.032-.175.05-.235.016-.106-.061-.119-.181-.023-.272.043-.04.118-.046.247-.092Z" fill="#fff"/>
              <path d="M103.261,183.003c.138.009.24-.014.282.026.044.042.031.144.043.22-.076.009-.171.05-.224.019-.05-.03-.055-.134-.101-.266Z" fill="#fff"/>
              <path d="M105.255,184.309c-.128-.007-.222.014-.261-.023-.042-.038-.032-.132-.044-.202.075-.011.163-.05.221-.023.043.02.046.125.085.248Z" fill="#fff"/>
              <path d="M109.161,186.045c-.136-.009-.234.013-.269-.025-.039-.042-.046-.148-.019-.204.016-.033.144-.05.185-.022.048.033.055.123.103.251Z" fill="#fff"/>
              <path d="M106.025,186.839c-.012.13.006.225-.031.261-.041.039-.134.023-.204.032-.008-.071-.044-.159-.015-.207.026-.044.124-.046.25-.085Z" fill="#fff"/>
              <path d="M105.466,188.042c-.003.117.019.203-.013.238-.034.037-.142.053-.179.026-.037-.027-.053-.135-.029-.179.023-.041.112-.046.221-.085Z" fill="#fff"/>
              <path d="M104.228,181.79c-.006.117.013.198-.019.239-.028.035-.144.053-.167.028-.039-.042-.063-.137-.04-.185.019-.04.113-.045.226-.082Z" fill="#fff"/>
              <path d="M105.3,182.033c.008-.119-.012-.206.022-.24.037-.038.124-.027.189-.037.008.065.042.146.016.191-.024.042-.113.047-.227.086Z" fill="#fff"/>
              <path d="M101.509,189.568c-.005.094.014.18-.016.203-.043.033-.122.02-.185.027-.003-.064-.028-.141-.001-.189.018-.032.108-.025.202-.041Z" fill="#fff"/>
              <path d="M98.819,188.399c.1.012.188-.001.212.032.031.044.012.123.015.188-.06-.002-.138.019-.174-.011-.036-.03-.031-.11-.053-.208Z" fill="#fff"/>
              <path d="M104.43,184.151c-.093,0-.169.022-.194-.005-.035-.038-.032-.111-.045-.169.059-.004.127-.029.174-.007.033.016.036.094.065.181Z" fill="#fff"/>
              <path d="M103.263,184.976c-.09-.002-.153.014-.194-.01-.025-.015-.034-.118-.015-.131.04-.028.109-.04.153-.024.027.01.031.084.056.165Z" fill="#fff"/>
            </g>
            <g>
              <path d="M92.031,189.54c-.205-.29-.042-.622.155-.72.236-.117.522-.041.648.181.133.234.054.527-.181.663-.038.022-.079.037-.117.058-.324.177-.358.164-.505-.182Z" fill="#fff"/>
              <path d="M99.632,189.102c-.216.102-.472.011-.58-.205-.113-.227-.02-.49.209-.591.216-.095.476.003.577.217.101.214.006.478-.207.579Z" fill="#fff"/>
              <path d="M95.786,185.536c-.182.084-.343.015-.444-.191-.097-.198-.02-.431.173-.52.187-.087.407-.002.495.19.092.201-.002.418-.224.521Z" fill="#fff"/>
              <path d="M93.399,184.25c.189-.082.398-.003.476.182.078.183-.008.394-.194.475-.201.088-.423.011-.502-.174-.079-.185.016-.395.219-.484Z" fill="#fff"/>
              <path d="M95.038,189.293c-.181.084-.401.007-.486-.171-.087-.181-.008-.398.174-.482.186-.086.396-.011.484.172.089.185.014.395-.172.481Z" fill="#fff"/>
              <path d="M89.68,187.081c-.175.074-.382-.015-.453-.195-.068-.171.011-.366.179-.443.178-.081.379-.002.457.179.077.178-.005.382-.183.458Z" fill="#fff"/>
              <path d="M100.575,186.901c.073.174-.003.362-.176.44-.18.081-.38,0-.455-.182-.071-.173.006-.366.176-.442.179-.08.378,0,.455.184Z" fill="#fff"/>
              <path d="M91.025,185.467c.164-.069.344-.001.404.153.062.16-.02.358-.175.424-.16.068-.331,0-.401-.161-.072-.166.002-.344.172-.417Z" fill="#fff"/>
              <path d="M99.459,190.792c-.046.021-.091.046-.14.061-.149.044-.263-.005-.312-.153-.05-.15.021-.255.163-.308.074-.028.157-.031.232-.056.138-.047.25-.023.305.118.056.144-.019.235-.151.289-.034.014-.066.029-.1.044l.002.006Z" fill="#fff"/>
              <path d="M96.351,183.055c.155-.074.342-.012.411.135.07.149-.01.354-.165.425-.146.067-.342-.008-.405-.156-.065-.152.005-.331.16-.404Z" fill="#fff"/>
              <path d="M94.725,193.714c.083.171.04.342-.106.419-.137.072-.321.008-.393-.136-.072-.145.038-.451.186-.516.117-.051.207.017.313.233Z" fill="#fff"/>
              <path d="M92.584,192.627c.157-.065.338.012.396.175.06.171.005.305-.157.385-.155.077-.332.003-.401-.158-.068-.16.003-.336.162-.402Z" fill="#fff"/>
              <path d="M97.422,193.605c-.152.059-.338-.025-.4-.181-.063-.159.005-.318.162-.379.159-.061.339.017.4.173.058.148-.019.33-.162.386Z" fill="#fff"/>
              <path d="M97.731,189.25c.064.145-.001.326-.143.393-.149.07-.336-.006-.4-.164-.061-.149.011-.325.156-.386.144-.06.323.012.387.157Z" fill="#fff"/>
              <path d="M94.207,190.953c-.04-.135-.002-.258.147-.329.136-.065.318.005.367.143.054.152.002.276-.14.349-.132.068-.309-.007-.374-.163Z" fill="#fff"/>
              <path d="M98.609,185.921c.058-.101.093-.236.179-.297.129-.091.26-.016.324.119.067.139.021.286-.118.329-.099.03-.227-.034-.342-.056l-.043-.095Z" fill="#fff"/>
              <path d="M94.375,186.875c-.075.163-.1.278-.171.341-.028.025-.195-.043-.234-.107-.07-.114-.02-.236.12-.273.062-.017.138.017.286.04Z" fill="#fff"/>
              <path d="M96.632,185.133c.129.081.239.112.258.172.02.064-.045.155-.073.235-.078-.031-.191-.041-.226-.098-.033-.055.017-.158.041-.309Z" fill="#fff"/>
              <path d="M97.873,187.431c-.12-.074-.221-.102-.24-.158-.02-.059.038-.144.063-.218.078.029.183.037.225.093.031.041-.021.144-.048.283Z" fill="#fff"/>
              <path d="M100.732,191.138c-.127-.08-.232-.11-.247-.164-.016-.061.033-.167.088-.207.032-.023.165.026.19.075.029.056-.011.148-.031.296Z" fill="#fff"/>
              <path d="M97.296,190.27c-.079.12-.111.22-.166.235-.059.016-.141-.047-.213-.076.029-.072.04-.176.093-.208.049-.029.144.02.285.048Z" fill="#fff"/>
              <path d="M96.131,191.138c-.064.111-.087.206-.137.222-.052.017-.165-.023-.186-.068-.021-.046.019-.157.065-.187.044-.028.132.014.257.034Z" fill="#fff"/>
              <path d="M98.195,184.469c-.067.11-.091.198-.143.22-.045.019-.167-.024-.175-.06-.015-.061.011-.165.057-.199.039-.029.132.016.261.039Z" fill="#fff"/>
              <path d="M99.101,185.261c.07-.111.096-.205.147-.22.056-.017.133.038.201.062-.026.067-.035.162-.084.192-.045.028-.134-.014-.264-.035Z" fill="#fff"/>
              <path d="M91.524,190.546c-.053.088-.08.181-.121.188-.059.009-.128-.044-.193-.07.031-.064.047-.15.097-.183.034-.022.117.032.216.065Z" fill="#fff"/>
              <path d="M89.541,188.018c.09.064.182.097.187.141.007.058-.052.125-.083.189-.057-.033-.142-.053-.162-.101-.019-.048.028-.122.058-.228Z" fill="#fff"/>
              <path d="M97.16,186.849c-.089-.048-.174-.067-.184-.106-.014-.055.027-.124.045-.186.059.026.138.039.171.084.024.032-.014.109-.032.208Z" fill="#fff"/>
              <path d="M95.606,187.036c-.086-.048-.155-.066-.182-.11-.016-.027.028-.132.054-.134.053-.006.125.018.16.057.021.023-.014.097-.032.188Z" fill="#fff"/>
            </g>
            <g>
              <path d="M82.902,189.428c-.153-.353.092-.669.324-.73.276-.072.562.071.648.335.09.278-.059.571-.338.663-.045.015-.092.022-.137.036-.383.116-.416.095-.496-.305Z" fill="#fff"/>
              <path d="M91.059,190.642c-.252.06-.503-.092-.569-.345-.07-.266.087-.524.352-.581.25-.053.504.108.564.358.06.249-.099.509-.347.568Z" fill="#fff"/>
              <path d="M87.768,186.012c-.211.049-.367-.06-.429-.3-.06-.231.074-.461.298-.513.218-.05.432.088.483.311.053.234-.094.443-.352.503Z" fill="#fff"/>
              <path d="M85.521,184.121c.219-.046.422.085.465.298.042.211-.095.416-.31.461-.232.049-.451-.082-.494-.295-.043-.214.105-.415.339-.464Z" fill="#fff"/>
              <path d="M86.145,189.831c-.211.049-.427-.081-.478-.288-.052-.211.079-.424.291-.473.216-.05.422.075.475.289.053.215-.073.422-.289.472Z" fill="#fff"/>
              <path d="M80.952,186.301c-.202.04-.401-.1-.437-.306-.034-.197.093-.386.288-.43.207-.047.402.081.445.291.042.205-.09.404-.296.445Z" fill="#fff"/>
              <path d="M92.545,188.517c.039.2-.083.384-.283.428-.209.046-.403-.083-.442-.293-.037-.199.087-.387.284-.43.208-.045.401.084.442.295Z" fill="#fff"/>
              <path d="M82.734,184.887c.189-.037.365.075.395.251.03.183-.1.375-.279.411-.184.037-.351-.073-.39-.259-.04-.192.078-.365.274-.404Z" fill="#fff"/>
              <path d="M90.503,192.397c-.054.012-.107.029-.161.033-.168.014-.278-.063-.297-.231-.019-.17.079-.266.241-.291.085-.013.173.002.258-.009.157-.019.271.031.297.193.027.165-.073.245-.224.273-.039.007-.077.016-.115.025v.007Z" fill="#fff"/>
              <path d="M88.915,183.506c.181-.044.365.062.406.234.041.174-.089.373-.269.415-.17.039-.361-.084-.395-.255-.036-.176.079-.35.258-.393Z" fill="#fff"/>
              <path d="M84.837,194.449c.051.2-.033.371-.204.421-.161.046-.343-.062-.387-.231-.044-.17.14-.47.311-.506.135-.028.216.064.28.317Z" fill="#fff"/>
              <path d="M82.806,192.824c.181-.034.356.087.381.273.026.194-.062.324-.251.374-.182.047-.353-.07-.39-.256-.037-.185.078-.356.26-.39Z" fill="#fff"/>
              <path d="M87.722,194.929c-.174.03-.353-.101-.384-.28-.032-.182.076-.336.255-.366.182-.03.356.093.386.272.028.17-.093.346-.257.374Z" fill="#fff"/>
              <path d="M89.011,190.38c.036.168-.074.345-.239.385-.173.042-.355-.081-.388-.263-.031-.172.083-.342.251-.375.166-.032.34.084.376.252Z" fill="#fff"/>
              <path d="M84.897,191.407c-.012-.152.055-.274.228-.316.158-.039.336.075.358.233.024.173-.058.293-.225.339-.155.043-.326-.076-.36-.255Z" fill="#fff"/>
              <path d="M90.676,187.043c.084-.095.15-.229.256-.275.157-.068.279.04.318.198.04.163-.04.308-.198.322-.112.01-.233-.086-.35-.135l-.025-.111Z" fill="#fff"/>
              <path d="M85.976,187.12c-.116.156-.168.273-.257.324-.035.02-.197-.088-.225-.165-.049-.136.031-.255.187-.264.07-.004.142.048.294.105Z" fill="#fff"/>
              <path d="M88.755,185.771c.119.114.228.171.235.24.008.072-.082.155-.13.233-.076-.05-.194-.086-.217-.154-.023-.065.053-.164.112-.318Z" fill="#fff"/>
              <path d="M89.562,188.482c-.111-.105-.212-.157-.22-.22-.008-.067.073-.144.114-.217.076.048.186.08.218.148.024.05-.054.149-.113.29Z" fill="#fff"/>
              <path d="M91.776,193.045c-.117-.112-.222-.168-.225-.229-.004-.068.072-.17.139-.2.039-.018.169.064.185.122.018.066-.045.154-.098.307Z" fill="#fff"/>
              <path d="M88.324,191.365c-.111.109-.166.209-.228.213-.067.004-.139-.081-.209-.127.047-.07.081-.178.145-.2.058-.02.148.053.292.114Z" fill="#fff"/>
              <path d="M86.897,192.028c-.092.104-.138.199-.194.205-.059.007-.169-.061-.182-.114-.013-.053.054-.163.111-.184.053-.02.137.044.265.092Z" fill="#fff"/>
              <path d="M90.558,185.412c-.095.102-.14.19-.2.202-.052.011-.171-.062-.173-.102-.003-.068.048-.172.105-.198.048-.022.137.046.268.099Z" fill="#fff"/>
              <path d="M91.345,186.452c.098-.102.147-.196.204-.201.063-.006.133.07.2.111-.043.065-.073.164-.132.185-.054.02-.139-.044-.272-.095Z" fill="#fff"/>
              <path d="M82.142,190.383c-.076.082-.125.174-.17.172-.065-.003-.126-.075-.189-.117.047-.061.082-.149.143-.172.041-.016.117.06.215.117Z" fill="#fff"/>
              <path d="M80.597,187.264c.081.088.172.143.168.191-.005.064-.083.121-.13.182-.053-.047-.139-.088-.15-.143-.01-.055.056-.124.112-.229Z" fill="#fff"/>
              <path d="M88.936,187.707c-.084-.071-.17-.11-.172-.153-.003-.061.056-.125.089-.188.057.041.137.072.163.127.018.039-.039.113-.08.213Z" fill="#fff"/>
              <path d="M87.246,187.562c-.08-.07-.15-.105-.168-.157-.011-.032.059-.133.087-.131.057.005.129.047.157.096.017.03-.037.1-.075.192Z" fill="#fff"/>
            </g>
          </g>
          <g>
            <path d="M120.185,184.679c-.142-.357.113-.666.346-.719.278-.063.56.089.637.355.081.28-.077.569-.359.652-.045.013-.093.019-.139.032-.386.104-.419.082-.486-.32Z" fill="#fff"/>
            <path d="M128.299,186.15c-.253.052-.5-.108-.558-.363-.061-.268.104-.521.371-.57.252-.045.501.124.553.375.052.251-.115.505-.365.557Z" fill="#fff"/>
            <path d="M125.156,181.418c-.213.042-.365-.071-.419-.313-.052-.233.089-.459.314-.504.219-.044.429.101.473.326.045.235-.108.44-.368.491Z" fill="#fff"/>
            <path d="M122.97,179.457c.22-.039.419.098.455.313.036.213-.109.413-.325.451-.234.041-.449-.096-.484-.31-.036-.215.118-.412.354-.453Z" fill="#fff"/>
            <path d="M123.413,185.184c-.212.043-.424-.094-.469-.303-.046-.212.092-.421.306-.463.217-.043.42.089.466.304.047.217-.086.419-.303.463Z" fill="#fff"/>
            <path d="M118.334,181.492c-.203.034-.398-.112-.427-.32-.028-.198.105-.382.301-.42.208-.04.399.094.436.305.035.207-.103.401-.309.435Z" fill="#fff"/>
            <path d="M129.852,184.073c.032.201-.095.381-.297.419-.21.039-.4-.096-.433-.307-.031-.2.099-.384.297-.421.209-.039.398.096.432.309Z" fill="#fff"/>
            <path d="M120.16,180.135c.19-.031.363.086.386.264.024.184-.112.372-.292.402-.185.032-.349-.084-.381-.271-.034-.193.089-.362.287-.395Z" fill="#fff"/>
            <path d="M127.688,187.886c-.054.01-.108.026-.162.028-.168.008-.276-.072-.29-.24-.014-.171.087-.263.25-.283.085-.01.173.007.259,0,.157-.014.269.039.291.202.022.166-.08.243-.233.266-.039.006-.077.014-.116.021v.007Z" fill="#fff"/>
            <path d="M126.382,178.95c.182-.038.363.074.398.246.035.175-.1.37-.282.406-.171.034-.358-.096-.387-.268-.03-.177.09-.347.271-.385Z" fill="#fff"/>
            <path d="M121.96,189.759c.044.201-.045.37-.218.414-.163.041-.34-.073-.379-.243-.039-.171.155-.466.327-.496.136-.024.214.071.27.325Z" fill="#fff"/>
            <path d="M119.982,188.071c.182-.028.353.098.372.285.02.195-.072.322-.263.365-.183.042-.351-.081-.382-.268-.031-.186.089-.353.273-.382Z" fill="#fff"/>
            <path d="M124.828,190.33c-.175.024-.35-.112-.375-.292-.026-.183.087-.334.267-.358.183-.024.353.104.377.284.023.171-.104.343-.269.365Z" fill="#fff"/>
            <path d="M126.26,185.823c.031.169-.084.343-.251.377-.175.036-.352-.092-.38-.275-.026-.173.094-.34.263-.367.167-.027.337.095.368.264Z" fill="#fff"/>
            <path d="M122.117,186.72c-.007-.152.064-.272.238-.309.16-.034.333.086.35.244.018.174-.068.291-.236.332-.156.038-.323-.086-.352-.267Z" fill="#fff"/>
            <path d="M128.031,182.541c.087-.092.158-.225.264-.267.159-.063.278.049.311.208.035.164-.05.306-.208.316-.112.007-.23-.093-.346-.146l-.021-.111Z" fill="#fff"/>
            <path d="M123.33,182.469c-.121.153-.176.267-.267.316-.036.019-.194-.094-.219-.172-.044-.138.039-.253.196-.258.07-.002.141.053.291.114Z" fill="#fff"/>
            <path d="M126.15,181.209c.115.118.223.179.228.247.005.072-.087.152-.137.228-.075-.052-.191-.092-.213-.161-.02-.066.058-.162.122-.315Z" fill="#fff"/>
            <path d="M126.872,183.944c-.107-.108-.207-.163-.213-.227-.006-.067.077-.142.121-.214.075.05.184.085.214.155.022.051-.058.147-.122.286Z" fill="#fff"/>
            <path d="M128.94,188.574c-.113-.116-.217-.175-.218-.236-.001-.068.077-.167.145-.195.04-.016.167.07.181.128.016.066-.049.153-.108.303Z" fill="#fff"/>
            <path d="M125.543,186.786c-.114.106-.173.204-.234.205-.067.002-.136-.085-.205-.134.049-.069.087-.175.151-.195.058-.018.146.058.288.123Z" fill="#fff"/>
            <path d="M124.096,187.404c-.096.101-.144.194-.2.199-.06.005-.167-.066-.178-.119-.011-.054.06-.161.117-.181.053-.018.135.048.262.101Z" fill="#fff"/>
            <path d="M127.964,180.907c-.098.099-.146.185-.206.196-.053.009-.169-.068-.17-.107,0-.068.053-.171.111-.195.048-.02.135.05.265.107Z" fill="#fff"/>
            <path d="M128.717,181.971c.101-.099.153-.191.211-.194.063-.004.13.074.196.117-.045.064-.079.162-.138.181-.055.018-.137-.049-.269-.104Z" fill="#fff"/>
            <path d="M119.395,185.61c-.079.079-.131.17-.175.167-.065-.005-.124-.079-.185-.123.048-.059.087-.146.149-.168.041-.014.115.064.211.124Z" fill="#fff"/>
            <path d="M117.949,182.444c.079.09.167.148.162.196-.007.063-.087.119-.136.177-.051-.049-.136-.092-.145-.148-.008-.055.06-.122.119-.226Z" fill="#fff"/>
            <path d="M126.27,183.149c-.082-.073-.166-.115-.167-.158,0-.061.06-.123.095-.185.056.043.135.076.159.132.017.04-.043.111-.086.211Z" fill="#fff"/>
            <path d="M124.586,182.951c-.078-.073-.147-.109-.163-.162-.01-.033.063-.131.091-.128.057.007.127.051.154.101.016.03-.04.099-.081.189Z" fill="#fff"/>
          </g>
        </g>
      </g>
    </g>
  </g>
</svg>