<?xml version="1.0" encoding="UTF-8"?>
<svg xmlns="http://www.w3.org/2000/svg" width="300" height="300" xmlns:xlink="http://www.w3.org/1999/xlink" viewBox="0 0 300 300">
  <defs>
    <clipPath id="b">
      <path d="M124.732,280.19c-.771.617-1.388,1.111-2.136,1.71-.003-.063.007.165.019.426-3.448-.34-3.584-2.575-.1-3.124,1.366-.499,1.398-1.877,1.944-3.343-1.573.605-2.636.515-4.117.763.27.948.962.92,1.561,1.559-.52.551-1.258.643-1.912.554-.175-1.107-1.104-2.695.133-3.516,1.167-.485-.197-1.826-.607-2.18-.622.301-1.201,1.044-.669,1.729.331.505.546.936-.127,1.431-1.284,3.548-3.265-.502-5.239-1.178.046-.203.141-.617.271-1.188-1.876,1.129-.973-3.445-3.154-.883-1.75-1.134-2.321-5.244-4.601-4.7-.21.131-.777-.093-.93-.349-.85-2.798-3.445-3.999-4.357-6.579-.696-1.638-2.128-2.571-3.352-3.731-.113-.164-.8-.117-.929.064-1.033,1.299-3.168.136-3.275-1.403-.328-.613-1.584-1.223-1.497-2.152-1.069-1.231.049-1.155.816-1.787-.769-.321-.938-.963-.926-1.875.198-.873-1.793-2.328-.422-2.79,1.572-.304.334-1.272.32-2.405-1.077,1.546-2.183,2.466-3.968,2.231-.809.662-1.304.218-1.843-.284-1.388-1.529-3.477.506-4.716,1.514.111-4.073-5.057.985-7.058,1.29-.046-1.401-1.663-2.502-2.733-1.119-2.425-.653-3.203-4.276-5.042-6.043-.379-1.662-2.586-1.243-2.687-2.833-.184-1.764-2.478-2.025-2.461-3.975-1.554-.636-1.206-2.752-2.324-3.724-1.921-2.476-6.999-5.568-6.193-8.768.967-.995.003-1.294-.651-1.905-.504-1.095-1.085-.046-1.916-.256,2.033-2.234-1.577-2.526,1.418-6.469.333-.972-.915-.7-1.197-.11-.746,1.338-1.812,1.155-2.844,1.018-.551-.594-.06-2.084-1.434-1.801-.093-.395-.186-.791-.284-1.207-1.339.328-2.085,1.734-.56,2.393-1.425,1.36-3.875,4.883-5.226,1.828-1.606.373-1.445-2.421-3.23-1.02-.085-.757-.155-1.373-.233-2.066-.193.128-.438.291-.684.455-.384-.804-.413-1.943-1.674-1.757-.137-1.036-.272-2.06-.427-3.232-.295.434-.497.732-.616.907-1.875-.428-2.265-2.406-3.261-3.822-.103.015-.205.029-.308.044-.069.363-.138.727-.207,1.09-.108-.005-.216-.01-.324-.015.295-3.676-3.083-4.785-4.149-7.877.291-1.092.322-1.541-.333-2.425-.416.449-.796.86-1.317,1.423-.841-.623-.417-2.166-1.672-1.837-.358-1.47-.026-2.545.945-3.534-1.057-1.183,1.681-3.771-.459-3.951-.118.506-.229.984-.34,1.462h-.232c.031-1.205.062-2.408.098-3.817,2.621,1.271,2.467-2.437,2.704-4.277-1.045.773-1.773,2.176-3.045,1.131.189.325.378.649.66,1.134-.56.143-1.046.267-1.372.351-.371-2.067.508-3.402,1.855-4.88.137.093.316.215.426.29,3.139-5.03,6.283-10.656,10.822-14.962-1.186-.97-1.798-2.97-.23-3.864.714.058,1.472.365,1.843.085.681-.847,1.226-1.997-.353-2.547-.005-1.484,1.965-3.117.556-4.422-.821-.92-.534-2.853-2.117-2.962-1.661-.502-2.538,1.005-3.96,1.456-1.383-.258-1.657,1.108-2.373,2.026-.838-.478-1.872-.616-2.429-1.321-.379-1.546-1.537-1.075-2.78-1.35.302-.32.553-.587.817-.867-1.736-.489-1.344,1.281-.742,2.137-.375.312-.712.591-1.255,1.041-.155-1.081.781-2.461-.524-2.92-2.161-.021-2.252-4.086-4.451-2.541.015-.342.029-.674.044-1.011-1.207-.022-1.239-1.057-1.873-1.798-2.476-2.039-1.749-1.36-2.473-4.309-.218.146-.421.282-.683.457-.696-1.064-1.684-1.223-1.997-2.778-1.427-3.119-5.761-3.302-7.627-5.821-.632.091-1.123.163-1.728.25,1.496-2.218.186-3.594.318-5.73.869-2.14,1.736-4.275,2.601-6.404l.385.034c-.092,1.072-.185,2.145-.298,3.464.88-.994.577-2.008,1.041-2.934.197.13.361.238.525.346.072-.037.145-.073.217-.11.029-1.641-2.002-1.02-.659-2.672,8.766-16.537,15.594-33.931,24.993-50.072.49-.934.796-1.738,1.776-.616,1.881.603,1.959-2.549,3.846-2.384.465-.029.805-1.377.477-2.05-.079.347-.134.589-.204.9-1.075.027-2.117.053-3.179.079.314-2.226,2.808-2.34,4.426-1.658,1.82-2.7,2.499-6.747,6.211-7.365-.15-.186-.286-.353-.58-.716,2.72-.644,4.937,2.749,7.193,2.05.476-.423.802-.323.882.333-.233.086-.464.171-.773.285,4.593,1.65,9.287,5.674,13.494,6.503.987,2.615,2.567-.637,3.707-1.621.562-.903,1.503-.08,2.181-.656,9.678-9.81,18.304-21.175,28.939-29.296.591-.01,1.721.251,2.098.886,1.991,1.38,2.668-4.116,7.379,1.244.717,1.241,2.618-.507,2.92,1.128.301,1.233,1.82,1.174,2.376,2.235,1.925,1.167,36.263-20.371,39.761-22.305,1.741.379-.205,1.366.747,2.342.543.154,1.038-.75,1.446-.967,1.809-.358-.027,2.079,1.322,2.407.779.195.893,2.058,1.807,1.039.195.393.454.708.505,1.062.129.942,1.615.874,1.82.12.121-1.004-.677-2.551.999-2.308.75.046.448,1.183,1.026,1.482-.273.437-.482.77-.691,1.104.47.134.939.268,1.548.442-.493,1.21-.443,1.406.756,1.902.252,1.09,1.325,1.588,2.124,2.206.919.761,1.781,2.213,3.247,2.128-.399,1.507,1.535.588,2.286,1.043-1.12,1.056-1.003,1.403.147,2.088-.028.07-.056.139-.084.209-.51-.056-1.02-.112-1.725-.189.29.791,1.247.671.802,1.597-.074.791,1.318.99,1.981.456-.178.342-.285.547-.432.829.615-.043.223,1.099,1.039.765.455-.186.821-.592,1.19-1.031-1.167.709-1.447-.428-.432-1.032,1.47.035,2.219-.937,3.053-1.893,1.259-1.427,2.337-2.271,4.206-1.433.452.395.853.797,1.465.09,1.103,1.001,2.165,1.964,3.228,2.928.087-.073.174-.145.26-.217-.217-.359-.433-.718-.76-1.261,2.073,1.401,4.228-1.124,5.779.429.258,1.76,1.238,2.694,2.542,3.734,1.16,1.04,34.243-7.396,31.914,8.956-.015.106.204.064.305.095,1.185-2.325,4.87-2.851,4.874.427-.105.965.792.6,1.394.538.64-.152.874.114.875.715-.09,2.126,4.865.559,4.28,3.498,2.314-.5,1.335,2.409,3.085,2.601.653-.005,1.305.401,1.981.632-.244.526-.469,1.013-.734,1.584,5.415,1.068,1.186.84,3.771,3.171,4.747,2.478.161,6.735-.454,10.482.096.044.191.089.287.133-.2.127-.399.254-.654.415.063.167.135.356.21.553-1.563.033-.743,1.382-1.501,2.319-.377.517-.565.876.083,1.32.786.918.661,2.452.984,3.569-.079-.064-.249-.203-.292-.239-.71,1.563.088,3.24-1.949,3.775-.221.82-.303,1.771-1.281,2.251-.339-.362-.629-.67-.918-.978-.148-.009-.295-.018-.443-.027.312,2.299-.929,3.736-1.951,5.679,1.338,1.059,3.235.873,4.206,2.017.146.219.285.665.393.653,1.551-.088,1.862,1.424,2.886,2.154.695-.718,1.346-1.39,2.015-2.082.28.202.502.362.724.522.057-.033.113-.066.17-.099l-.46-1.001c1.692-3.432,1.836.717,3.036-1.284.513.211-.227,1.267.74,1.002.139-.038.125-.64.211-1.157,1.239-.011,1.547,1.674,3.008.41.078.837.039,1.239.228,1.903,1.82-.916,3.603-2.372,5.288-3.852,1.107-1.439,2.07-2.071,3.763-.813-.513.155-.807.243-1.101.332-.006.073-.012.146-.018.219.407.073.815.147,1.289.232.038-.196.069-.362.109-.573,1.858.244.025,1.331,1.16,1.947.145-.222.277-.424.321-.491,2.015.397,1.107-1.782,1.062-2.983l.221-.011c1.393,1.19,1.093,3.687,2.551,4.428.515.045.895.155,1.256.542,1.555.89.787-1.659,1.568-2.048.891-.068,1.384.815,1.864,1.529-.706,2.114,2.41,3.08,3.585,4.5-1.671-.449-2.516-.089-.871,1.564.248-.379.391-.597.643-.982.388.711.544,1.233,1.154,1.66.353-.652.061-1.135-.149-1.768.733.212,1.375.43.935,1.405.374,2.332,4.634-.866,3.653,2.361.969-.33,3.298.337,1.931,1.503-.142.103-.149.656-.008.819.181.21.677.411.857.307.934-.569,1.385.663,2.025,1.118,1.162,2.027-1.226,4.156-1.056,5.992,1.295.571-.393,2.184-1.153.954-.333.449-.528.826.208.934,1.74,1.966-2.676,7.01-3.988,9.355.394-.117.637-.189.982-.291.17.669,1.088,1.846-.015,2.153-.805.601-.287,1.685-.252,2.709.311.016,1.261-.451,1.516-.416.644.558,1.208.281,1.767-.058.604-.367.752-.059.843.502.86,2.562,1.262,5.172,2.231,7.618.317,1.397.763,3.674,2.34,4.02.383,1.049,2.033,1.138,1.747,2.717,2.803-.3,2.283,3.391,2.327,5.162,3.157,1.536-2.063,5.342-2.237,7.638-1.478,1.139-1.861,3.49-2.987,4.17-.596.361.137,1.934-1.018,1.789-.861.91-1.321,2.122-2.231,3.455,3.624.453,6.957.87,10.282,1.286.031,1.805.954.394,1.877,1.377-.501.347-.862.598-1.199.832,1.24,1.31,2.105,4.115.015,4.892-1.308-.454-.801.539-.885,1.211.585-.193,1.077-.356,1.64-.542,1.047,1.263-1.944,2.069-.47,3.583.003,6.144-10.028,7.119-2.35,14.249-.651,1.009.866,1.709.373,2.697-.934,1.346-.606,2.705,1.104,2.999.033-.129.103-.399.177-.686,1.092.669,2.668,4.42,2.524,5.881.219-.034.496-.078.773-.122-.011.104-.023.208-.034.313-.197.213-.395.427-.592.64.024.099.047.198.071.298.424-.073.848-.146,1.429-.245-.653.739-.26,2.327-1.284,2.407-.158-.009-.326.314-.489.484.761.66,1.639-.012,2.488-.178.042.071.084.142.127.213-3.381,4.526-9.792,7.012-11.736,12.404-.141,1.708-.444.881-1.585,1.172.551.331,1.538.95.668,1.494-.825.485.065,1.265-.277,2.031-.094.003-.187.007-.281.01-.131-.213-.262-.426-.556-.905-2.982,10.721-15.92,11.623-23.697,17.553-5.102,4.349-10.229,8.948-15.928,12.397-1.117,1.821-5.236,5.279-6.626,2.349.252-.11.494-.216.987-.431-.561-.351-.93-.582-1.452-.909.157,1.206-1.052,3.463-.664,1.191-1.306-.628-.156-2.134-.835-3.454-.434.959-.764,1.688-1.096,2.419-1.539-.789-.16-3.935-1.966-4.147-.728,1.11-1.249.646-1.743-.332-.324.585-.582,1.051-.863,1.559-3.524-3.711-10.602,7.245-14.451,6.601-2.091.201-3.743,4.06-5.977,3.071-9.675-2.397-30.135,25.194-35.827,20.391.299-.129.576-.248,1.109-.478-.529-.385-.886-.645-1.308-.952-1.357,2.661-1.465-.714-1.347-1.955-.106-.033-.212-.067-.318-.1-.396.707-.792,1.416-1.182,2.112-1.752-.235.06-5.179-1.922-4.152-.972,1.417-.989.075-1.791-.345-.194.468-.375.907-.546,1.321-2.243-1.858-4.758.934-7.369.361-.883.413-2.918,1.299-2.632-.648.769-.816,1.6-4.282-.398-3.36-.746-1.186-.66-1.522.417-1.769-.137-1.555-.549-2.146-1.695-.77.185-2.582-1.879-3.662-1.233-5.965.17-.579-.46-1.536-.285-2.127.833-1.598-.355-2.311-.971-3.253-2.081-.798-2.815-2.378-3.785-4.399-.712.561-1.448,1.141-2.247,1.771.03-.309.054-.557.081-.836-2.304.497-.932,2.199-2.497,3.714-.514-2.231,1.373-3.763,1.262-5.943-8.1,9.603-15.432,22.065-23.69,30.307ZM292.04,166.409c.927.984-.194,1.482.936,1.957.264-.926,1.592-1.404.666-2.669l-.674.337-.445-.211c.239-.292.479-.583.716-.872-1.511-1.772-1.297.351-1.199,1.458ZM24.318,186.773c-.476.649-.953,1.298-1.429,1.947.449.25.961.536,1.479.825,1.051-1.102,1.047-1.961-.05-2.771ZM292.86,174.898c-.239-.102-.479-.204-.718-.306.37-.535.741-1.07,1.073-1.551-.269-.184-.593-.405-.914-.624q-.605.519.02,1.139c-.305.205-.608.409-.911.613-.01.131-.019.262-.029.394.493.112.986.224,1.479.336ZM290.751,163.046c-.344.671-.601,1.171-.964,1.879,1.145-.3,2.494-1.241.964-1.879ZM237.457,83.957c-.076.025-.151.05-.227.075-.096.687-.193,1.374-.298,2.13.322-.149.594-.274.974-.449-.147-.576-.298-1.166-.449-1.756ZM182.269,34.821c-.916.547-.936.86-.112,1.544.039-.532.071-.981.112-1.544ZM30.213,72.972c.7.166,1.108.186,1.148-.528-.461-.588-.741.02-1.148.528ZM22.571,194.647c-.506,1.013-.412,1.211.512,1.341-.192-.502-.352-.922-.512-1.341ZM291.625,171.05c.166.013.333.026.499.04.007-.443.013-.886.02-1.329-.129-.01-.259-.021-.388-.031-.043.44-.087.88-.13,1.32ZM70.403,246.7c-.035.417-.07.835-.117,1.381,1.002-.537.906-.966.117-1.381Z" fill="none"/>
    </clipPath>
    <filter id="c" data-name="drop-shadow-1" x="157.059" y="132.907" width="176.651" height="72.085" filterUnits="userSpaceOnUse">
      <feOffset dx="-4" dy="0"/>
      <feGaussianBlur result="d" stdDeviation="0"/>
      <feFlood flood-color="#42496f" flood-opacity="1"/>
      <feComposite in2="d" operator="in"/>
      <feComposite in="SourceGraphic"/>
    </filter>
    <clipPath id="e">
      <path d="M327.652,168.508v-29.115l-164.214-6.486-1.987,33.419c-1.448.908,1.587,9.267,1.415,10.938-.29,2.818,1.964,5.143,5.032,5.194,1.484.025,2.88-.495,3.966-1.348.977.896,2.225,1.452,3.646,1.475,2.292.038,4.433-1.285,5.792-3.299,3.612,2.113,9.73,3.558,16.816,3.676,7.514.125,14.248-1.272,18.215-3.472,2.8,2.415,7.015,3.98,11.886,4.061,4.705.078,9.088-1.24,12.344-3.415,2.66,2.21,6.669,3.644,11.296,3.722,4.242.071,8.203-1.012,11.226-2.819,1.575,1.903,3.729,3.069,6.206,3.11,2.835.047,5.551-1.388,7.644-3.739,1.211,2.31,4.04,3.934,7.504,3.992,3.843.064,7.302-1.817,8.793-4.495,3.493,2.837,10.119,4.81,17.926,4.94,11.897.199,21.984-3.944,22.53-9.252.282-2.75-2.066-5.267-6.034-7.088Z" fill="none"/>
    </clipPath>
    <clipPath id="f">
      <path d="M241.952,176.266v-16.992l-51.3.784v-1.474l-25.685,2.437v-1.032l-16.222,1.539v19.594c-.003.075,0,1.128,0,1.204,0,2.483,4.468,2.51,6.459,2.321,1.151-.109,2.164-.89,2.824-2,1.121.778,2.599,1.19,4.236,1.035,3.015-.286,5.527-2.355,6.152-4.858,0,0,11.573,3.217,11.573,4.577,0,2.646,2.825,4.522,6.309,4.192,2.127-.202,3.998-1.184,5.141-2.517.938.796,2.152,1.235,3.496,1.108,2.945-.279,5.332-3.08,5.332-6.254,0-1.459,42.518-2.727,41.687-3.662Z" fill="none"/>
    </clipPath>
    <filter id="g" data-name="drop-shadow-2" x="150.293" y="166.042" width="89.327" height="27.984" filterUnits="userSpaceOnUse">
      <feOffset dx="-4" dy="0"/>
      <feGaussianBlur result="h" stdDeviation="0"/>
      <feFlood flood-color="#42496f" flood-opacity="1"/>
      <feComposite in2="h" operator="in"/>
      <feComposite in="SourceGraphic"/>
    </filter>
  </defs>
  <g isolation="isolate">
    <g id="a" data-name="Calque 21">
      <g clip-path="url(#b)">
        <g>
          <g filter="url(#c)">
            <g>
              <path d="M279.084,165.227s.394.852-4.422.852-4.816-.852-4.816-.852v-7.633h8.638l.599,7.633Z" fill="#e86170"/>
              <path d="M269.847,157.594s1.76,2.33,8.809,2.184l-.172-2.184h-8.638Z" fill="#42496f"/>
              <path d="M282.167,157.594c0,.954-2.98.951-6.655.951-6.655,0-6.655-.773-6.655-1.727s.827-1.727,4.503-1.727,8.807,1.55,8.807,2.504Z" fill="#e86170"/>
            </g>
            <g>
              <path d="M173.983,165.227s-.394.852,4.422.852,4.816-.852,4.816-.852v-7.633h-8.638l-.599,7.633Z" fill="#e86170"/>
              <path d="M183.22,157.594s-1.76,2.33-8.809,2.184l.172-2.184h8.638Z" fill="#42496f"/>
              <path d="M170.9,157.594c0,.954,2.98.951,6.655.951,6.655,0,6.655-.773,6.655-1.727s-.827-1.727-4.503-1.727-8.807,1.55-8.807,2.504Z" fill="#e86170"/>
            </g>
            <g clip-path="url(#e)">
              <g>
                <polygon points="306.987 199.128 166.908 204.991 167.78 164.854 306.613 164.507 306.987 199.128" fill="#b1ddea"/>
                <g>
                  <circle cx="252.031" cy="173.923" r="3.38" fill="none" stroke="#336a9b" stroke-miterlimit="10" stroke-width="1.125"/>
                  <circle cx="252.031" cy="169.959" r=".918" fill="none" stroke="#336a9b" stroke-miterlimit="10" stroke-width="1.5"/>
                </g>
                <g>
                  <circle cx="289.582" cy="173.923" r="3.38" fill="none" stroke="#336a9b" stroke-miterlimit="10" stroke-width="1.125"/>
                  <circle cx="289.582" cy="169.959" r=".918" fill="none" stroke="#336a9b" stroke-miterlimit="10" stroke-width="1.5"/>
                </g>
              </g>
              <rect x="200.967" y="170.042" width="38.654" height="18.446" fill="#a384bb" mix-blend-mode="multiply" opacity=".5"/>
            </g>
          </g>
          <g>
            <g>
              <path d="M278.906,179.857c.256.336.078.738-.153.863-.275.149-.619.072-.779-.187-.169-.273-.087-.625.186-.797.044-.028.092-.048.137-.075.378-.224.419-.211.609.195Z" fill="#fff"/>
              <path d="M269.885,180.708c.253-.13.561-.034.698.218.144.265.045.582-.223.712-.253.123-.566.018-.696-.233-.129-.25-.028-.569.221-.697Z" fill="#fff"/>
              <path d="M274.615,184.782c.213-.108.407-.033.536.207.124.231.042.512-.183.626-.219.111-.484.02-.597-.204-.118-.235-.016-.497.243-.629Z" fill="#fff"/>
              <path d="M277.51,186.208c-.221.106-.473.021-.574-.196-.101-.214-.008-.469.21-.573.235-.113.503-.031.604.185.102.217-.002.471-.24.585Z" fill="#fff"/>
              <path d="M275.341,180.281c.212-.108.476-.026.586.182.111.211.027.473-.186.581-.217.11-.47.031-.583-.183-.114-.216-.033-.469.184-.58Z" fill="#fff"/>
              <path d="M281.81,182.679c.205-.096.455,0,.547.212.088.201.003.436-.194.534-.208.104-.45.019-.551-.194-.099-.208-.01-.454.198-.552Z" fill="#fff"/>
              <path d="M268.859,183.367c-.094-.203-.012-.431.19-.531.211-.104.452-.017.549.197.092.203.009.436-.19.533-.21.103-.45.016-.549-.199Z" fill="#fff"/>
              <path d="M280.281,184.657c-.192.09-.409.016-.487-.164-.08-.187.008-.426.19-.512.187-.088.394-.014.484.174.093.194.013.41-.186.503Z" fill="#fff"/>
              <path d="M270.017,178.69c.054-.026.107-.059.163-.078.175-.059.313-.006.378.168.066.177-.014.305-.181.373-.087.036-.185.044-.273.077-.162.062-.297.038-.368-.127-.073-.169.013-.28.167-.351.039-.018.078-.038.117-.057l-.003-.007Z" fill="#fff"/>
              <path d="M274.05,187.757c-.182.094-.406.03-.494-.143-.089-.175-.004-.422.178-.513.171-.086.407-.005.489.168.084.178.008.394-.172.487Z" fill="#fff"/>
              <path d="M275.52,175.009c-.106-.2-.063-.405.107-.502.16-.092.382-.024.473.145.092.17-.026.539-.198.622-.136.065-.248-.011-.382-.264Z" fill="#fff"/>
              <path d="M278.114,176.208c-.184.084-.403,0-.478-.191-.079-.2-.019-.362.17-.465.181-.098.395-.018.483.171.088.187.011.4-.175.485Z" fill="#fff"/>
              <path d="M272.317,175.257c.178-.077.403.015.484.198.082.186.008.379-.176.457-.186.08-.404-.006-.483-.189-.075-.174.008-.393.176-.466Z" fill="#fff"/>
              <path d="M272.139,180.449c-.083-.17-.012-.388.153-.474.174-.09.4-.007.483.178.079.175.001.387-.169.466-.169.078-.384,0-.467-.17Z" fill="#fff"/>
              <path d="M276.257,178.271c.053.159.013.306-.16.397-.159.083-.378.008-.443-.154-.071-.179-.015-.328.151-.421.154-.086.368-.005.452.178Z" fill="#fff"/>
              <path d="M271.24,184.447c-.065.123-.1.284-.2.361-.149.114-.308.03-.391-.128-.085-.163-.038-.339.127-.396.116-.04.271.03.409.052l.056.111Z" fill="#fff"/>
              <path d="M276.234,183.128c.083-.197.107-.335.189-.413.032-.031.233.042.283.117.088.133.034.28-.13.33-.073.023-.164-.014-.342-.035Z" fill="#fff"/>
              <path d="M273.625,185.298c-.157-.09-.289-.123-.314-.194-.027-.075.047-.187.077-.282.095.033.229.04.273.107.041.064-.013.189-.035.369Z" fill="#fff"/>
              <path d="M272.05,182.619c.146.083.267.112.292.177.026.069-.039.173-.065.262-.094-.031-.22-.036-.272-.1-.039-.048.018-.173.045-.339Z" fill="#fff"/>
              <path d="M268.488,178.334c.154.089.281.121.3.185.022.071-.032.2-.095.25-.037.029-.197-.024-.229-.081-.037-.066.007-.176.024-.353Z" fill="#fff"/>
              <path d="M272.613,179.217c.089-.146.122-.267.187-.287.07-.022.17.05.256.081-.032.087-.04.211-.102.251-.056.037-.172-.018-.342-.045Z" fill="#fff"/>
              <path d="M273.96,178.135c.071-.135.095-.249.153-.27.062-.023.197.02.224.073.028.053-.015.188-.07.226-.051.035-.157-.01-.308-.029Z" fill="#fff"/>
              <path d="M271.796,186.156c.075-.134.099-.239.16-.268.053-.025.199.022.211.063.021.072-.006.196-.06.239-.045.036-.158-.013-.312-.035Z" fill="#fff"/>
              <path d="M270.683,185.253c-.078.135-.106.248-.165.268-.065.022-.16-.04-.242-.065.029-.081.035-.195.092-.233.053-.035.16.011.315.03Z" fill="#fff"/>
              <path d="M279.466,178.638c.06-.107.088-.219.136-.228.07-.014.154.047.232.075-.034.077-.049.18-.108.221-.039.027-.14-.033-.26-.068Z" fill="#fff"/>
              <path d="M281.935,181.558c-.11-.072-.221-.107-.229-.159-.011-.069.057-.151.091-.228.069.036.172.057.197.113.025.056-.027.147-.059.274Z" fill="#fff"/>
              <path d="M272.923,183.281c.108.053.21.073.223.118.019.065-.027.148-.045.224-.072-.029-.165-.04-.207-.093-.029-.037.012-.13.029-.249Z" fill="#fff"/>
              <path d="M274.763,182.99c.104.054.187.072.221.123.021.031-.028.158-.058.162-.062.01-.15-.016-.193-.061-.026-.027.013-.116.03-.225Z" fill="#fff"/>
            </g>
            <g>
              <path d="M290.423,185.078c-.17.206-.444.154-.554.03-.131-.148-.134-.371.003-.507.143-.143.372-.144.518,0,.023.023.043.05.066.074.193.201.191.228-.032.403Z" fill="#fff"/>
              <path d="M288.597,179.644c.117.137.102.341-.034.462-.142.127-.352.112-.471-.035-.112-.138-.093-.346.043-.462.135-.116.346-.099.461.035Z" fill="#fff"/>
              <path d="M286.77,183.145c.097.115.079.246-.05.36-.124.11-.309.1-.412-.022-.1-.119-.082-.295.04-.397.128-.106.304-.082.423.059Z" fill="#fff"/>
              <path d="M286.31,185.134c-.097-.121-.081-.288.038-.382.118-.093.288-.072.383.046.104.128.092.305-.026.399-.119.094-.29.067-.395-.063Z" fill="#fff"/>
              <path d="M289.647,182.943c.097.115.085.29-.027.387-.114.099-.287.085-.385-.031-.099-.118-.087-.285.029-.385.116-.101.284-.088.384.029Z" fill="#fff"/>
              <path d="M289.104,187.273c.089.112.065.28-.051.368-.111.083-.268.065-.357-.042-.094-.113-.077-.275.04-.367.114-.091.278-.072.369.042Z" fill="#fff"/>
              <path d="M286.811,179.395c.112-.087.264-.07.354.04.094.115.076.276-.042.367-.112.086-.267.068-.356-.04-.094-.114-.075-.275.043-.367Z" fill="#fff"/>
              <path d="M287.665,186.617c-.083-.105-.069-.25.031-.324.104-.077.264-.056.343.043.081.102.065.241-.037.323-.106.085-.25.067-.337-.042Z" fill="#fff"/>
              <path d="M289.859,179.434c.024.03.052.057.072.089.061.1.049.192-.049.257-.099.066-.19.035-.256-.057-.035-.048-.054-.108-.087-.157-.061-.091-.066-.177.025-.245.094-.069.175-.033.24.053.017.022.034.042.052.064l.004-.003Z" fill="#fff"/>
              <path d="M284.856,183.227c-.084-.098-.077-.246.016-.325.095-.08.259-.063.342.035.078.093.062.25-.033.325-.098.078-.241.062-.325-.036Z" fill="#fff"/>
              <path d="M292.92,182.292c.108-.094.24-.097.325-.006.08.085.07.232-.021.312-.091.081-.335.062-.411-.033-.06-.075-.029-.154.107-.274Z" fill="#fff"/>
              <path d="M292.556,184.063c-.078-.101-.059-.248.049-.322.112-.078.22-.064.311.038.087.098.068.241-.035.322-.103.081-.245.064-.324-.038Z" fill="#fff"/>
              <path d="M292.306,180.355c.073.098.049.251-.052.326-.103.077-.232.059-.307-.042-.076-.103-.055-.25.046-.325.096-.071.243-.052.313.041Z" fill="#fff"/>
              <path d="M289.082,180.995c.093-.076.237-.064.314.026.081.094.062.246-.04.323-.096.074-.238.057-.311-.037-.072-.093-.055-.237.037-.312Z" fill="#fff"/>
              <path d="M291.017,183.217c-.09.056-.187.052-.268-.041-.074-.086-.06-.232.031-.295.1-.069.2-.056.281.032.075.082.056.226-.044.304Z" fill="#fff"/>
              <path d="M286.49,181.018c-.085-.022-.19-.021-.251-.071-.092-.076-.063-.185.022-.259.088-.076.203-.072.262.021.042.066.02.171.027.259l-.061.05Z" fill="#fff"/>
              <path d="M288.023,183.904c.133.022.222.018.282.057.024.015.008.15-.031.191-.069.073-.167.061-.222-.033-.024-.042-.015-.103-.028-.215Z" fill="#fff"/>
              <path d="M286.31,182.61c.033-.109.034-.196.074-.221.042-.028.122.002.185.007-.007.063.008.147-.027.183-.033.035-.118.019-.232.031Z" fill="#fff"/>
              <path d="M287.732,181.253c-.03.102-.03.181-.067.206-.039.026-.112,0-.171-.002.005-.062-.01-.14.023-.182.024-.031.109-.014.215-.021Z" fill="#fff"/>
              <path d="M289.857,178.441c-.033.108-.034.19-.07.212-.041.024-.128.009-.168-.023-.023-.019-.013-.125.017-.153.035-.032.109-.021.221-.036Z" fill="#fff"/>
              <path d="M289.909,181.109c.103.034.182.037.204.074.024.04-.006.112-.013.17-.058-.007-.136.006-.169-.027-.031-.03-.014-.108-.022-.217Z" fill="#fff"/>
              <path d="M290.77,181.783c.093.024.167.023.189.055.023.035.016.124-.013.149-.029.025-.118.018-.149-.01-.029-.026-.016-.098-.027-.194Z" fill="#fff"/>
              <path d="M285.517,181.607c.093.027.162.027.188.06.023.029.015.126-.009.139-.041.023-.122.025-.156-.002-.029-.023-.015-.099-.024-.197Z" fill="#fff"/>
              <path d="M285.913,180.791c-.094-.029-.168-.029-.189-.063-.023-.037.002-.104.005-.158.054.006.125-.006.157.023.029.027.016.1.027.198Z" fill="#fff"/>
              <path d="M291.255,185.246c.075.021.148.022.16.051.018.041-.006.102-.013.154-.052-.01-.118-.004-.152-.034-.023-.02,0-.091.005-.17Z" fill="#fff"/>
              <path d="M289.812,187.188c.028-.078.034-.151.065-.164.041-.017.101.013.153.023-.012.048-.01.114-.041.138-.031.024-.094.004-.177.003Z" fill="#fff"/>
              <path d="M287.451,181.886c-.017.074-.014.14-.04.155-.037.021-.095.005-.144.004.007-.048,0-.108.027-.141.019-.024.082-.011.157-.018Z" fill="#fff"/>
              <path d="M287.895,182.978c-.018.072-.017.126-.044.154-.016.017-.101.005-.108-.012-.015-.037-.012-.095.01-.128.013-.02.073-.009.143-.014Z" fill="#fff"/>
            </g>
          </g>
          <g>
            <g>
              <path d="M223.049,180.09c.214.244.098.561-.072.669-.203.129-.47.088-.606-.102-.144-.2-.1-.474.1-.619.032-.023.068-.042.101-.064.277-.192.31-.184.476.117Z" fill="#fff"/>
              <path d="M216.191,181.218c.186-.113.428-.056.546.13.124.195.065.443-.133.557-.187.107-.433.043-.545-.142-.112-.184-.052-.434.132-.545Z" fill="#fff"/>
              <path d="M220.025,184.085c.157-.094.31-.047.421.13.107.17.059.389-.107.489-.162.097-.37.041-.467-.125-.102-.174-.039-.38.153-.494Z" fill="#fff"/>
              <path d="M222.316,185.024c-.164.093-.361.041-.45-.119-.088-.159-.031-.358.13-.45.174-.099.383-.05.472.109.089.161.023.36-.153.46Z" fill="#fff"/>
              <path d="M220.343,180.602c.156-.094.363-.045.458.108.096.156.046.36-.112.455-.16.096-.358.048-.456-.109-.098-.159-.05-.357.11-.453Z" fill="#fff"/>
              <path d="M225.42,182.096c.152-.084.348-.024.43.133.078.149.025.333-.12.419-.154.091-.344.038-.432-.119-.087-.154-.032-.347.123-.433Z" fill="#fff"/>
              <path d="M215.546,183.307c-.083-.151-.032-.329.117-.416.156-.091.345-.037.431.121.081.15.03.333-.117.418-.155.09-.343.036-.431-.123Z" fill="#fff"/>
              <path d="M224.354,183.69c-.142.079-.312.034-.381-.1-.071-.139-.016-.327.118-.402.138-.078.301-.032.379.107.081.144.032.313-.116.395Z" fill="#fff"/>
              <path d="M216.185,179.667c.04-.023.078-.051.121-.068.131-.054.239-.021.298.109.059.132.005.234-.118.295-.065.032-.139.043-.205.074-.121.056-.225.045-.288-.078-.064-.125-.005-.215.11-.277.029-.016.058-.033.086-.049l-.003-.005Z" fill="#fff"/>
              <path d="M219.751,186.392c-.134.082-.309.044-.386-.083-.078-.129-.025-.322.109-.402.126-.075.311-.025.383.103.074.132.027.301-.106.382Z" fill="#fff"/>
              <path d="M220.202,176.559c-.092-.147-.069-.306.056-.39.117-.079.291-.038.37.086.079.125.009.414-.119.486-.101.057-.19.005-.306-.182Z" fill="#fff"/>
              <path d="M222.25,177.34c-.136.074-.308.022-.376-.121-.071-.149-.034-.276.106-.365.134-.085.301-.035.379.105.077.139.03.306-.108.38Z" fill="#fff"/>
              <path d="M217.763,176.918c.132-.069.309-.01.38.126.072.138.026.29-.111.359-.138.071-.31.017-.38-.119-.067-.129-.015-.301.11-.366Z" fill="#fff"/>
              <path d="M217.902,180.901c-.072-.125-.03-.296.092-.371.128-.078.306-.026.379.111.069.13.022.296-.105.365-.125.069-.294.02-.367-.105Z" fill="#fff"/>
              <path d="M220.938,179.016c.049.119.026.234-.102.313-.117.072-.289.026-.347-.094-.064-.133-.029-.25.093-.33.113-.074.281-.023.355.112Z" fill="#fff"/>
              <path d="M217.425,184.007c-.043.098-.062.223-.134.287-.108.095-.234.04-.306-.077-.074-.12-.047-.258.076-.31.087-.037.209.009.316.018l.049.082Z" fill="#fff"/>
              <path d="M221.177,182.734c.053-.155.064-.262.123-.326.023-.025.181.02.223.075.074.097.041.212-.082.26-.055.021-.127-.002-.263-.008Z" fill="#fff"/>
              <path d="M219.295,184.532c-.125-.061-.227-.079-.251-.132-.025-.056.026-.145.044-.22.074.02.178.019.214.067.035.046,0,.145-.008.284Z" fill="#fff"/>
              <path d="M217.948,182.566c.116.056.21.071.233.12.024.051-.021.135-.036.204-.074-.018-.17-.016-.213-.062-.032-.034.005-.133.016-.262Z" fill="#fff"/>
              <path d="M214.996,179.475c.123.06.221.077.24.125.02.053-.014.155-.06.196-.027.024-.152-.008-.18-.05-.032-.048-.004-.135,0-.271Z" fill="#fff"/>
              <path d="M218.199,179.933c.061-.116.08-.21.128-.229.052-.021.132.029.2.048-.02.068-.019.164-.065.198-.041.031-.132-.004-.264-.016Z" fill="#fff"/>
              <path d="M219.173,179.033c.047-.107.059-.195.103-.215.046-.021.152.005.175.044.024.039-.002.145-.041.176-.037.03-.121,0-.237-.006Z" fill="#fff"/>
              <path d="M217.94,185.286c.05-.106.063-.188.108-.214.039-.022.154.006.165.037.02.054.006.15-.033.186-.033.03-.121-.002-.24-.01Z" fill="#fff"/>
              <path d="M217.041,184.654c-.052.107-.068.195-.112.214-.049.021-.125-.022-.189-.037.018-.063.017-.151.058-.183.039-.03.123,0,.243.006Z" fill="#fff"/>
              <path d="M223.413,179.127c.04-.085.055-.172.092-.182.053-.014.12.027.182.045-.022.061-.028.14-.071.175-.029.023-.109-.018-.203-.039Z" fill="#fff"/>
              <path d="M225.456,181.231c-.088-.049-.174-.07-.184-.11-.012-.052.035-.119.057-.179.055.024.134.035.157.076.022.041-.013.114-.03.213Z" fill="#fff"/>
              <path d="M218.651,183.026c.086.035.165.044.177.078.018.049-.013.115-.023.174-.056-.018-.129-.022-.163-.06-.024-.027.002-.1.009-.192Z" fill="#fff"/>
              <path d="M220.044,182.707c.083.036.147.045.176.083.017.023-.013.122-.036.127-.047.011-.116-.005-.151-.036-.021-.019.004-.089.011-.173Z" fill="#fff"/>
            </g>
            <g>
              <path d="M232.169,182.576c.094.342-.172.6-.392.624-.261.029-.505-.139-.548-.391-.046-.265.129-.514.396-.562.043-.008.087-.008.13-.015.365-.055.393-.032.413.343Z" fill="#fff"/>
              <path d="M224.875,180.395c.238-.022.448.15.475.39.029.252-.149.468-.398.485-.235.016-.447-.165-.469-.401-.022-.235.157-.452.392-.473Z" fill="#fff"/>
              <path d="M227.273,185.059c.2-.017.327.103.352.331.024.219-.128.412-.34.43-.206.018-.384-.137-.4-.347-.017-.22.144-.392.388-.413Z" fill="#fff"/>
              <path d="M229.078,187.082c-.206.013-.375-.133-.386-.334-.011-.199.142-.368.344-.38.219-.014.402.134.413.334.011.201-.15.366-.371.38Z" fill="#fff"/>
              <path d="M229.259,181.782c.199-.018.379.13.399.326.02.199-.128.377-.328.394-.204.017-.376-.124-.396-.326-.02-.204.122-.376.326-.394Z" fill="#fff"/>
              <path d="M233.54,185.69c.19-.01.354.144.359.337.005.184-.135.34-.32.355-.195.015-.357-.127-.368-.325-.011-.193.135-.357.329-.368Z" fill="#fff"/>
              <path d="M223.237,182.142c-.009-.188.126-.34.315-.354.197-.015.358.129.366.326.008.187-.13.342-.316.355-.196.014-.355-.129-.365-.328Z" fill="#fff"/>
              <path d="M231.726,186.748c-.178.009-.324-.116-.328-.282-.004-.171.141-.33.309-.339.173-.01.311.113.322.288.011.18-.119.323-.304.333Z" fill="#fff"/>
              <path d="M225.613,178.865c.051-.003.102-.012.152-.009.155.01.246.094.241.25-.005.158-.107.233-.258.234-.079,0-.158-.024-.237-.026-.146-.003-.243-.064-.246-.215-.003-.154.098-.214.241-.22.036-.001.072-.005.109-.007v-.006Z" fill="#fff"/>
              <path d="M225.896,187.198c-.171.016-.326-.105-.34-.267-.014-.164.13-.329.3-.344.16-.013.318.124.328.285.009.165-.118.309-.288.325Z" fill="#fff"/>
              <path d="M231.06,177.733c-.02-.189.079-.335.242-.357.153-.021.305.102.323.262.018.161-.19.411-.351.421-.127.008-.189-.087-.214-.326Z" fill="#fff"/>
              <path d="M232.703,179.485c-.169.007-.314-.126-.312-.3.002-.181.1-.288.279-.308.172-.019.313.11.323.285.009.174-.118.315-.289.323Z" fill="#fff"/>
              <path d="M228.488,176.916c.163-.004.309.139.314.306.005.171-.114.298-.281.301-.17.003-.313-.132-.317-.299-.004-.159.13-.304.284-.308Z" fill="#fff"/>
              <path d="M226.712,180.904c-.011-.158.113-.306.269-.321.164-.016.314.121.32.291.006.161-.121.302-.279.309-.156.007-.299-.121-.31-.28Z" fill="#fff"/>
              <path d="M230.606,180.506c-.009.14-.086.243-.25.259-.15.015-.297-.113-.296-.26.001-.162.092-.26.251-.28.147-.019.288.112.296.281Z" fill="#fff"/>
              <path d="M224.751,183.734c-.089.076-.168.19-.27.218-.152.042-.25-.073-.264-.223-.015-.154.077-.276.224-.269.103.005.202.109.302.169l.008.104Z" fill="#fff"/>
              <path d="M229.056,184.281c.126-.128.189-.227.278-.262.035-.014.168.106.183.181.027.131-.061.229-.206.216-.064-.005-.124-.063-.255-.135Z" fill="#fff"/>
              <path d="M226.34,185.148c-.093-.12-.186-.187-.184-.25.003-.067.096-.131.149-.196.063.056.166.104.179.169.012.063-.07.143-.144.276Z" fill="#fff"/>
              <path d="M225.959,182.565c.087.11.173.171.172.23-.001.062-.085.122-.133.184-.064-.054-.16-.097-.18-.164-.015-.049.069-.129.142-.25Z" fill="#fff"/>
              <path d="M224.535,178.105c.092.118.181.182.176.238-.006.062-.088.146-.153.164-.038.011-.146-.081-.153-.136-.008-.063.061-.135.13-.267Z" fill="#fff"/>
              <path d="M227.469,180.094c.115-.085.179-.169.236-.164.062.005.116.092.174.144-.052.058-.098.152-.159.163-.056.011-.128-.068-.252-.143Z" fill="#fff"/>
              <path d="M228.86,179.675c.098-.083.152-.164.204-.162.055.001.147.078.151.128.005.05-.071.142-.125.154-.051.011-.119-.058-.23-.119Z" fill="#fff"/>
              <path d="M224.645,185.24c.1-.08.153-.155.209-.158.049-.003.148.08.145.116-.006.063-.066.151-.122.168-.046.014-.119-.06-.232-.125Z" fill="#fff"/>
              <path d="M224.063,184.186c-.103.08-.16.16-.213.157-.058-.003-.112-.082-.168-.127.048-.054.089-.14.145-.152.052-.011.121.059.236.123Z" fill="#fff"/>
              <path d="M232.989,181.803c.08-.065.137-.143.178-.135.059.011.105.085.157.132-.05.049-.095.125-.154.139-.039.009-.099-.07-.181-.135Z" fill="#fff"/>
              <path d="M233.991,184.856c-.063-.091-.138-.153-.128-.196.013-.057.092-.1.143-.149.042.05.116.099.118.15.002.051-.068.106-.132.195Z" fill="#fff"/>
              <path d="M226.429,183.356c.068.076.141.123.137.162-.006.056-.068.107-.106.16-.047-.045-.116-.083-.132-.137-.011-.038.05-.098.101-.185Z" fill="#fff"/>
              <path d="M227.954,183.71c.064.075.123.115.133.166.006.031-.072.114-.096.108-.051-.012-.112-.06-.131-.108-.012-.029.046-.086.094-.166Z" fill="#fff"/>
            </g>
            <g>
              <path d="M240.712,185.795c.024.384-.315.598-.553.575-.283-.027-.504-.259-.495-.536.01-.292.251-.517.544-.508.047.001.094.01.141.013.399.022.424.053.362.455Z" fill="#fff"/>
              <path d="M233.459,181.872c.257.029.442.258.418.518-.025.273-.261.463-.529.426-.253-.035-.437-.273-.408-.529.029-.255.267-.444.52-.416Z" fill="#fff"/>
              <path d="M234.973,187.347c.215.026.324.181.301.428-.023.238-.227.408-.455.381-.222-.027-.377-.23-.348-.457.03-.238.239-.384.503-.352Z" fill="#fff"/>
              <path d="M236.44,189.891c-.221-.032-.368-.224-.335-.439.032-.213.232-.358.449-.328.235.033.396.231.364.446-.033.216-.24.355-.477.321Z" fill="#fff"/>
              <path d="M237.801,184.311c.215.025.373.222.351.434-.023.216-.219.371-.435.345-.22-.027-.371-.215-.348-.434.023-.221.212-.372.432-.346Z" fill="#fff"/>
              <path d="M241.479,189.4c.203.031.343.231.307.437-.035.197-.219.331-.417.306-.21-.027-.35-.214-.319-.426.031-.207.222-.349.43-.317Z" fill="#fff"/>
              <path d="M231.336,183.362c.032-.201.209-.332.412-.305.212.028.351.216.316.427-.033.2-.214.334-.413.307-.211-.028-.348-.216-.315-.428Z" fill="#fff"/>
              <path d="M239.321,190.121c-.191-.029-.318-.195-.285-.371.034-.182.222-.318.403-.291.186.028.305.189.278.376-.028.194-.198.316-.396.286Z" fill="#fff"/>
              <path d="M234.58,180.412c.054.008.111.009.163.024.162.044.24.154.2.319-.04.167-.165.223-.326.191-.084-.017-.162-.061-.246-.08-.154-.035-.244-.121-.214-.283.031-.164.152-.206.304-.18.039.006.078.011.117.016v-.007Z" fill="#fff"/>
              <path d="M233.04,189.311c-.185-.021-.322-.183-.302-.358.021-.177.211-.321.394-.298.173.021.31.202.284.375-.026.177-.193.302-.377.281Z" fill="#fff"/>
              <path d="M240.606,180.415c.021-.205.158-.338.336-.326.167.011.301.175.285.349-.016.175-.292.394-.465.37-.136-.02-.182-.134-.155-.393Z" fill="#fff"/>
              <path d="M241.961,182.635c-.181-.03-.305-.203-.265-.387.042-.192.169-.284.364-.265.187.018.308.186.279.374-.029.186-.194.308-.378.278Z" fill="#fff"/>
              <path d="M238.058,178.98c.174.032.297.215.266.394-.033.182-.186.29-.365.257-.181-.034-.303-.209-.27-.388.031-.169.205-.293.369-.264Z" fill="#fff"/>
              <path d="M235.295,182.817c.023-.17.187-.299.356-.281.177.02.306.197.275.379-.029.172-.195.293-.364.267-.167-.027-.291-.195-.267-.365Z" fill="#fff"/>
              <path d="M239.512,183.255c-.04.147-.145.238-.322.219-.162-.017-.29-.185-.257-.341.037-.171.155-.256.328-.242.16.013.28.183.252.363Z" fill="#fff"/>
              <path d="M232.591,185.385c-.111.061-.22.164-.334.171-.171.011-.248-.133-.231-.294.018-.166.143-.276.296-.235.108.028.19.16.283.246l-.014.112Z" fill="#fff"/>
              <path d="M237.035,186.916c.162-.107.251-.199.352-.217.04-.007.155.15.155.232,0,.145-.116.229-.266.184-.067-.02-.117-.094-.241-.199Z" fill="#fff"/>
              <path d="M233.963,187.236c-.073-.148-.156-.239-.14-.306.018-.071.13-.117.201-.174.055.073.153.147.152.219-.001.069-.105.136-.214.261Z" fill="#fff"/>
              <path d="M234.129,184.412c.068.136.145.22.131.282-.015.065-.117.111-.182.165-.056-.071-.148-.138-.155-.214-.005-.056.101-.121.205-.234Z" fill="#fff"/>
              <path d="M233.604,179.369c.072.146.151.233.134.292-.02.065-.126.135-.199.141-.043.003-.137-.118-.132-.177.005-.068.094-.13.197-.255Z" fill="#fff"/>
              <path d="M236.276,182.125c.141-.065.228-.14.287-.122.064.019.103.124.153.191-.068.05-.137.139-.204.138-.061,0-.121-.1-.236-.207Z" fill="#fff"/>
              <path d="M237.844,181.989c.122-.066.198-.14.253-.127.058.014.139.115.132.169-.006.054-.107.135-.167.135-.056,0-.114-.088-.218-.177Z" fill="#fff"/>
              <path d="M232.145,186.959c.124-.063.196-.131.257-.122.053.008.14.117.128.155-.021.065-.104.146-.166.151-.052.004-.113-.09-.218-.184Z" fill="#fff"/>
              <path d="M231.761,185.713c-.127.062-.205.134-.261.119-.061-.016-.101-.111-.15-.172.062-.047.125-.129.187-.129.058,0,.115.089.223.182Z" fill="#fff"/>
              <path d="M241.753,185.157c.099-.051.177-.121.218-.104.06.025.093.113.138.175-.064.041-.128.112-.193.113-.044,0-.089-.096-.162-.184Z" fill="#fff"/>
              <path d="M242.141,188.615c-.047-.11-.113-.193-.093-.236.026-.058.12-.086.184-.126.034.062.101.13.092.185-.009.055-.095.097-.183.177Z" fill="#fff"/>
              <path d="M234.453,185.355c.055.095.122.161.109.202-.019.058-.096.098-.148.146-.039-.058-.105-.114-.11-.175-.003-.043.075-.093.148-.173Z" fill="#fff"/>
              <path d="M235.992,186.067c.052.093.105.15.105.205,0,.034-.101.105-.126.093-.052-.024-.105-.088-.115-.144-.006-.034.068-.081.136-.155Z" fill="#fff"/>
            </g>
          </g>
          <g>
            <g>
              <path d="M167.396,177.589c.27.219.206.575.046.719-.191.172-.48.178-.658.002-.188-.185-.191-.482-.006-.672.03-.031.064-.056.095-.086.258-.253.294-.25.524.037Z" fill="#fff"/>
              <path d="M160.357,180.023c.176-.153.442-.136.6.038.167.184.149.456-.04.612-.178.147-.449.124-.601-.051-.152-.174-.133-.449.041-.6Z" fill="#fff"/>
              <path d="M164.926,182.356c.149-.127.319-.105.469.061.144.16.133.4-.025.536-.153.131-.383.11-.516-.047-.14-.165-.11-.394.072-.55Z" fill="#fff"/>
              <path d="M167.515,182.932c-.156.128-.373.108-.497-.045-.122-.152-.097-.373.056-.499.166-.136.396-.123.519.03.124.153.09.376-.078.514Z" fill="#fff"/>
              <path d="M164.631,178.62c.148-.128.375-.113.503.031.13.147.114.372-.036.5-.152.13-.37.116-.501-.033-.133-.15-.118-.368.034-.499Z" fill="#fff"/>
              <path d="M170.263,179.278c.145-.116.363-.088.478.063.109.143.087.347-.051.464-.146.124-.356.103-.478-.047-.119-.147-.097-.361.051-.48Z" fill="#fff"/>
              <path d="M160.054,182.345c-.115-.144-.094-.342.048-.461.148-.124.358-.102.477.05.113.144.092.346-.048.463-.148.123-.356.1-.477-.052Z" fill="#fff"/>
              <path d="M169.427,181.155c-.136.109-.324.093-.421-.037-.101-.134-.076-.342.052-.446.132-.107.312-.088.42.045.112.137.09.325-.051.438Z" fill="#fff"/>
              <path d="M160.07,178.386c.038-.032.074-.068.115-.094.129-.081.249-.065.334.061.087.128.048.246-.072.333-.062.046-.139.071-.203.115-.117.081-.23.088-.319-.03-.091-.121-.044-.226.066-.312.028-.022.055-.045.082-.068l-.004-.005Z" fill="#fff"/>
              <path d="M165.054,184.842c-.127.111-.319.103-.423-.018-.105-.122-.085-.336.042-.444.12-.102.324-.083.423.039.102.126.083.313-.043.423Z" fill="#fff"/>
              <path d="M163.749,174.376c-.124-.139-.129-.311-.012-.422.11-.104.3-.093.406.024.107.118.084.435-.038.535-.096.079-.2.039-.357-.136Z" fill="#fff"/>
              <path d="M166.054,174.829c-.13.103-.321.079-.419-.059-.102-.145-.086-.286.045-.404.126-.114.312-.092.419.042.106.133.087.317-.045.421Z" fill="#fff"/>
              <path d="M161.239,175.196c.127-.096.325-.067.425.064.101.133.08.301-.052.4-.133.1-.324.074-.423-.057-.094-.124-.07-.316.05-.407Z" fill="#fff"/>
              <path d="M162.107,179.377c-.099-.119-.085-.307.03-.408.121-.106.318-.083.421.048.097.124.076.309-.044.405-.12.095-.307.074-.406-.045Z" fill="#fff"/>
              <path d="M164.972,176.837c.073.117.07.242-.051.349-.111.097-.3.08-.383-.037-.091-.129-.076-.259.039-.366.106-.099.293-.075.395.054Z" fill="#fff"/>
              <path d="M162.166,182.745c-.028.111-.025.247-.09.327-.097.12-.24.084-.337-.026-.1-.114-.096-.263.024-.341.085-.055.223-.028.337-.038l.066.078Z" fill="#fff"/>
              <path d="M165.898,180.72c.028-.174.021-.288.071-.367.02-.031.195-.012.249.039.096.089.082.217-.04.289-.054.032-.134.021-.28.039Z" fill="#fff"/>
              <path d="M164.236,182.961c-.143-.042-.254-.042-.289-.094-.036-.055.001-.158.007-.24.082.008.191-.012.238.032.045.043.026.153.043.302Z" fill="#fff"/>
              <path d="M162.458,181.127c.132.038.235.037.268.085.035.05.002.146,0,.222-.081-.006-.182.014-.237-.027-.04-.03-.019-.141-.03-.279Z" fill="#fff"/>
              <path d="M158.78,178.398c.141.041.248.042.276.089.031.053.013.166-.028.218-.024.031-.162.019-.199-.02-.042-.045-.029-.142-.049-.287Z" fill="#fff"/>
              <path d="M162.246,178.302c.043-.134.046-.237.094-.266.052-.031.145.007.22.015-.008.076.009.176-.033.22-.038.04-.141.019-.281.031Z" fill="#fff"/>
              <path d="M163.111,177.175c.031-.122.027-.217.07-.246.045-.03.161-.022.193.015.032.037.024.153-.012.194-.034.038-.128.022-.251.037Z" fill="#fff"/>
              <path d="M162.942,184.002c.034-.121.033-.21.076-.245.037-.03.163-.022.181.01.031.053.034.158-.001.203-.029.037-.129.02-.256.033Z" fill="#fff"/>
              <path d="M161.878,183.497c-.036.123-.036.218-.08.246-.048.031-.136,0-.206-.005.007-.07-.01-.162.028-.204.035-.038.13-.022.257-.037Z" fill="#fff"/>
              <path d="M167.606,176.506c.027-.097.027-.192.064-.209.053-.024.132.007.2.015-.012.068-.004.153-.043.198-.026.03-.119,0-.221-.004Z" fill="#fff"/>
              <path d="M170.145,178.359c-.102-.036-.197-.043-.214-.083-.023-.053.016-.132.028-.2.062.016.148.012.179.052.031.04.007.122.006.23Z" fill="#fff"/>
              <path d="M163.283,181.486c.097.022.182.017.201.05.028.048.007.124.007.188-.063-.009-.14,0-.183-.034-.031-.024-.016-.107-.025-.204Z" fill="#fff"/>
              <path d="M164.696,180.897c.094.023.164.021.2.055.023.021.008.131-.015.141-.048.02-.123.016-.166-.011-.026-.017-.012-.095-.02-.185Z" fill="#fff"/>
            </g>
            <g>
              <path d="M175.314,182.924c-.195.371-.632.378-.841.223-.249-.185-.323-.527-.157-.779.175-.266.526-.339.795-.165.043.028.082.063.124.092.36.247.365.289.079.629Z" fill="#fff"/>
              <path d="M170.781,175.161c.223.173.265.491.095.719-.178.24-.505.283-.734.097-.216-.176-.252-.502-.081-.724.171-.221.5-.263.72-.092Z" fill="#fff"/>
              <path d="M169.09,181.118c.186.146.199.353.037.569-.156.208-.443.252-.64.097-.191-.151-.22-.427-.065-.622.163-.204.441-.222.668-.044Z" fill="#fff"/>
              <path d="M169.015,184.319c-.188-.155-.216-.417-.064-.599.151-.18.419-.203.604-.051.2.164.238.44.086.621-.153.182-.425.195-.626.028Z" fill="#fff"/>
              <path d="M173.444,179.892c.186.145.222.418.081.603-.143.188-.414.222-.601.075-.19-.149-.224-.411-.079-.601.147-.192.408-.226.599-.077Z" fill="#fff"/>
              <path d="M173.987,186.716c.172.144.189.409.038.581-.144.163-.391.184-.562.048-.181-.144-.205-.397-.056-.577.146-.176.405-.199.58-.052Z" fill="#fff"/>
              <path d="M167.96,175.347c.144-.169.383-.191.557-.051.181.146.204.4.052.576-.144.167-.388.19-.559.052-.18-.146-.202-.398-.05-.577Z" fill="#fff"/>
              <path d="M171.568,186.165c-.161-.135-.186-.362-.056-.507.135-.151.387-.171.54-.043.158.131.177.349.046.508-.136.165-.363.183-.53.042Z" fill="#fff"/>
              <path d="M172.652,174.436c.046.038.098.071.139.114.126.133.136.279.006.41-.132.133-.28.114-.412-.007-.069-.063-.117-.149-.184-.214-.123-.12-.158-.251-.039-.384.122-.136.258-.105.385.004.032.028.066.054.1.081l.005-.006Z" fill="#fff"/>
              <path d="M166.176,181.852c-.161-.124-.196-.353-.078-.504.12-.153.378-.179.536-.054.149.118.174.364.053.51-.125.15-.351.172-.511.049Z" fill="#fff"/>
              <path d="M178.263,177.853c.135-.179.338-.225.497-.113.149.105.181.334.067.487-.114.154-.495.202-.642.081-.116-.095-.093-.227.078-.454Z" fill="#fff"/>
              <path d="M178.267,180.688c-.152-.13-.169-.362-.028-.51.147-.155.318-.168.489-.041.164.122.182.348.048.506-.132.157-.356.177-.51.045Z" fill="#fff"/>
              <path d="M176.703,175.073c.144.128.155.369.024.518-.134.151-.338.165-.485.033-.149-.134-.164-.366-.032-.514.125-.14.357-.157.493-.036Z" fill="#fff"/>
              <path d="M171.956,177.081c.118-.145.344-.173.49-.06.154.119.173.357.042.509-.125.144-.348.163-.49.042-.141-.12-.16-.346-.042-.492Z" fill="#fff"/>
              <path d="M175.635,179.878c-.121.114-.27.14-.425.022-.141-.108-.165-.337-.046-.463.131-.138.289-.15.442-.04.142.102.158.329.029.481Z" fill="#fff"/>
              <path d="M167.982,177.941c-.138-.007-.298.029-.408-.03-.165-.087-.156-.265-.048-.405.111-.145.289-.176.409-.051.085.088.086.257.124.39l-.077.097Z" fill="#fff"/>
              <path d="M171.255,181.885c.212-.008.346-.043.451-.002.041.016.059.228.013.304-.083.135-.237.148-.352.021-.051-.056-.056-.154-.111-.322Z" fill="#fff"/>
              <path d="M168.212,180.443c.016-.179-.01-.311.043-.364.056-.056.188-.036.286-.049.01.099.059.223.018.29-.04.064-.175.067-.347.122Z" fill="#fff"/>
              <path d="M169.966,177.907c-.014.166.011.287-.037.337-.051.053-.172.037-.263.051-.012-.098-.059-.213-.023-.287.027-.055.163-.056.324-.101Z" fill="#fff"/>
              <path d="M172.335,172.912c-.016.176.009.303-.041.347-.055.049-.193.055-.265.018-.042-.021-.06-.187-.022-.24.044-.06.161-.067.328-.126Z" fill="#fff"/>
              <path d="M173.262,176.993c.168.02.291-.001.336.049.049.054.026.173.034.264-.092.008-.206.052-.269.013-.056-.036-.056-.162-.102-.326Z" fill="#fff"/>
              <path d="M174.799,177.753c.151.008.263-.018.307.025.046.046.064.186.028.232-.037.047-.176.065-.232.031-.053-.031-.056-.146-.103-.289Z" fill="#fff"/>
              <path d="M166.676,179.155c.151.011.257-.011.308.032.045.037.064.188.031.217-.056.049-.179.077-.24.046-.051-.026-.054-.148-.099-.295Z" fill="#fff"/>
              <path d="M167.024,177.776c-.154-.014-.267.008-.31-.037-.048-.049-.031-.161-.042-.245.085-.008.19-.05.248-.014.054.033.057.148.105.296Z" fill="#fff"/>
              <path d="M176.645,182.919c.121.009.234-.013.262.027.041.057.022.158.029.24-.083.002-.183.031-.244-.004-.041-.024-.028-.14-.047-.263Z" fill="#fff"/>
              <path d="M175.048,186.36c.019-.129.004-.243.048-.273.057-.039.16-.012.243-.014-.004.077.02.178-.02.225-.04.046-.143.037-.271.062Z" fill="#fff"/>
              <path d="M169.734,178.968c-.003.12.022.22-.013.25-.05.044-.145.038-.22.053-.004-.076-.033-.166-.003-.225.021-.042.122-.044.236-.078Z" fill="#fff"/>
              <path d="M170.764,180.504c-.005.116.013.199-.019.25-.02.032-.154.041-.17.016-.035-.052-.048-.142-.026-.199.013-.035.11-.037.215-.067Z" fill="#fff"/>
            </g>
            <g>
              <path d="M181.944,184.428c-.192.176-.45.089-.539-.046-.107-.161-.078-.376.072-.489.158-.119.379-.088.5.07.019.025.035.054.053.08.159.22.153.246-.086.385Z" fill="#fff"/>
              <path d="M180.92,178.928c.094.148.052.343-.095.441-.155.103-.356.06-.45-.098-.089-.149-.042-.347.105-.441.147-.093.348-.049.441.097Z" fill="#fff"/>
              <path d="M178.678,182.062c.078.125.043.248-.098.341-.135.089-.312.054-.395-.078-.08-.128-.039-.297.093-.378.138-.085.305-.038.4.115Z" fill="#fff"/>
              <path d="M177.961,183.921c-.078-.13-.039-.289.089-.364.126-.074.288-.031.364.097.082.138.047.308-.08.382-.128.075-.29.025-.373-.115Z" fill="#fff"/>
              <path d="M181.485,182.259c.078.124.042.291-.079.37-.124.08-.289.043-.368-.082-.08-.127-.045-.288.08-.369.126-.082.287-.046.367.081Z" fill="#fff"/>
              <path d="M180.369,186.369c.07.121.025.28-.1.348-.119.065-.268.026-.339-.09-.076-.122-.037-.276.088-.35.123-.072.279-.032.351.091Z" fill="#fff"/>
              <path d="M179.229,178.444c.12-.069.264-.032.337.087.076.124.036.277-.09.349-.12.068-.267.03-.338-.087-.075-.123-.035-.276.092-.349Z" fill="#fff"/>
              <path d="M179.068,185.539c-.066-.113-.033-.251.074-.309.111-.06.263-.019.326.088.065.11.03.241-.08.307-.114.068-.251.031-.32-.087Z" fill="#fff"/>
              <path d="M182.168,178.897c.019.032.042.062.057.096.046.105.021.192-.083.242-.105.05-.188.008-.24-.09-.027-.051-.037-.111-.063-.164-.047-.096-.04-.18.058-.233.1-.054.173-.008.225.084.013.023.027.046.041.069l.004-.002Z" fill="#fff"/>
              <path d="M176.817,181.88c-.068-.106-.041-.248.06-.312.102-.065.259-.026.325.081.062.1.026.25-.076.31-.105.062-.242.027-.309-.079Z" fill="#fff"/>
              <path d="M184.736,182.077c.117-.076.245-.061.315.038.065.093.036.233-.063.299-.099.066-.333.014-.393-.088-.048-.08-.007-.153.141-.25Z" fill="#fff"/>
              <path d="M184.143,183.739c-.062-.108-.023-.248.091-.305.119-.06.222-.032.295.079.07.106.033.242-.078.307-.11.064-.245.029-.308-.081Z" fill="#fff"/>
              <path d="M184.407,180.121c.057.105.013.249-.095.308-.11.061-.233.026-.291-.083-.059-.11-.019-.249.089-.308.103-.056.242-.017.297.082Z" fill="#fff"/>
              <path d="M181.205,180.3c.1-.06.238-.029.3.068.065.102.026.246-.083.307-.103.058-.238.022-.296-.078-.057-.1-.021-.236.079-.297Z" fill="#fff"/>
              <path d="M182.772,182.711c-.095.041-.188.025-.253-.076-.06-.093-.026-.232.07-.281.106-.054.201-.027.267.07.062.09.023.226-.084.288Z" fill="#fff"/>
              <path d="M178.697,179.969c-.079-.033-.18-.046-.233-.103-.078-.086-.036-.188.057-.247.095-.062.206-.042.251.056.031.069-.004.168-.009.254l-.065.04Z" fill="#fff"/>
              <path d="M179.784,182.966c.126.04.212.047.264.093.021.018-.013.146-.056.181-.077.061-.17.037-.21-.062-.018-.044,0-.102.002-.212Z" fill="#fff"/>
              <path d="M178.306,181.482c.047-.101.06-.184.102-.204.045-.021.117.019.178.032-.015.06-.012.143-.051.173-.037.029-.117.002-.229-.001Z" fill="#fff"/>
              <path d="M179.866,180.365c-.043.094-.054.17-.093.19-.041.02-.109-.015-.165-.025.014-.06.01-.137.047-.173.027-.026.107.002.211.009Z" fill="#fff"/>
              <path d="M182.303,177.938c-.046.1-.059.179-.097.195-.043.017-.125-.009-.159-.045-.02-.021.004-.122.037-.145.038-.026.109-.005.218-.005Z" fill="#fff"/>
              <path d="M181.988,180.523c.094.047.171.06.187.099.017.042-.021.107-.035.162-.055-.015-.132-.013-.16-.049-.026-.033.001-.107.009-.212Z" fill="#fff"/>
              <path d="M182.728,181.291c.087.036.158.045.175.079.018.037-.001.122-.033.142-.031.02-.116.001-.143-.03-.024-.029-.002-.097,0-.191Z" fill="#fff"/>
              <path d="M177.677,180.405c.086.038.153.048.174.084.018.031-.002.124-.027.133-.043.017-.121.007-.15-.023-.025-.026,0-.098.004-.194Z" fill="#fff"/>
              <path d="M178.17,179.671c-.087-.04-.158-.051-.174-.087-.017-.039.016-.101.027-.152.051.013.122.011.148.044.025.031.002.099,0,.195Z" fill="#fff"/>
              <path d="M182.724,184.704c.069.031.139.042.148.071.012.042-.02.097-.033.147-.049-.016-.114-.02-.142-.054-.019-.023.013-.088.028-.164Z" fill="#fff"/>
              <path d="M181.065,186.384c.038-.072.054-.142.085-.15.042-.011.096.027.145.043-.018.044-.026.109-.059.127-.033.019-.092-.009-.172-.021Z" fill="#fff"/>
              <path d="M179.507,180.938c-.027.07-.033.133-.06.144-.039.015-.093-.008-.14-.015.014-.046.015-.104.046-.132.021-.02.081,0,.154.004Z" fill="#fff"/>
              <path d="M179.787,182.054c-.027.067-.034.119-.064.143-.018.014-.098-.009-.103-.027-.009-.038.002-.093.027-.122.015-.017.072.001.14.006Z" fill="#fff"/>
            </g>
            <g>
              <path d="M193.539,183.379c.236.319.063.696-.156.81-.261.136-.583.059-.73-.186-.155-.259-.073-.589.186-.747.042-.025.088-.044.13-.068.359-.206.397-.193.57.191Z" fill="#fff"/>
              <path d="M185.043,184.058c.239-.119.528-.024.654.215.132.251.034.548-.219.667-.239.112-.533.009-.652-.229-.118-.237-.019-.535.217-.653Z" fill="#fff"/>
              <path d="M189.435,187.953c.201-.099.383-.025.502.202.114.219.033.482-.181.586-.207.102-.456.013-.558-.2-.107-.223-.009-.468.237-.588Z" fill="#fff"/>
              <path d="M192.139,189.333c-.21.097-.445.013-.538-.192-.092-.203,0-.441.205-.536.222-.103.474-.022.566.182.093.205-.008.443-.233.547Z" fill="#fff"/>
              <path d="M190.18,183.729c.2-.099.448-.018.549.179.102.2.019.445-.183.544-.206.101-.443.022-.546-.18-.104-.204-.025-.442.18-.543Z" fill="#fff"/>
              <path d="M196.231,186.073c.194-.088.427.007.512.207.08.19-.003.41-.19.5-.197.095-.424.012-.516-.19-.09-.197-.004-.427.194-.517Z" fill="#fff"/>
              <path d="M184.041,186.544c-.086-.192-.006-.406.186-.497.199-.095.425-.01.514.192.084.192.003.41-.186.499-.199.094-.423.009-.514-.194Z" fill="#fff"/>
              <path d="M194.766,187.912c-.182.082-.385.01-.456-.161-.073-.177.013-.401.185-.479.177-.081.371-.008.453.17.085.184.007.385-.182.47Z" fill="#fff"/>
              <path d="M185.193,182.162c.051-.024.101-.054.155-.071.166-.053.295-.001.353.164.059.167-.018.286-.175.349-.082.033-.175.039-.258.069-.153.056-.28.032-.344-.125-.066-.16.016-.264.162-.327.037-.016.074-.034.11-.052l-.003-.006Z" fill="#fff"/>
              <path d="M188.864,190.743c-.172.086-.382.022-.463-.141-.082-.165.002-.397.174-.48.162-.079.383,0,.457.165.077.169.002.37-.169.456Z" fill="#fff"/>
              <path d="M190.42,178.774c-.097-.189-.053-.382.108-.471.151-.084.359-.017.443.143.084.161-.031.506-.195.582-.129.06-.233-.014-.356-.253Z" fill="#fff"/>
              <path d="M192.843,179.937c-.174.076-.379-.005-.447-.186-.072-.19-.013-.341.166-.435.172-.09.372-.012.452.167.08.177.005.376-.171.454Z" fill="#fff"/>
              <path d="M187.403,178.963c.168-.07.379.019.452.193.074.176.002.357-.172.428-.176.072-.38-.011-.452-.184-.068-.164.013-.37.172-.436Z" fill="#fff"/>
              <path d="M187.166,183.844c-.076-.161-.006-.365.151-.443.165-.083.377-.001.452.174.071.166-.004.364-.165.436-.16.071-.362-.006-.437-.166Z" fill="#fff"/>
              <path d="M191.068,181.852c.048.15.008.288-.156.372-.15.076-.356.003-.414-.151-.064-.169-.01-.309.148-.394.146-.079.346,0,.422.173Z" fill="#fff"/>
              <path d="M186.266,187.592c-.062.115-.098.266-.193.337-.142.105-.29.024-.366-.125-.078-.154-.031-.319.124-.371.11-.036.255.032.384.054l.051.106Z" fill="#fff"/>
              <path d="M190.981,186.419c.08-.184.105-.314.183-.386.031-.029.219.043.265.114.081.126.028.263-.127.309-.069.02-.155-.015-.321-.037Z" fill="#fff"/>
              <path d="M188.498,188.425c-.146-.087-.27-.119-.293-.186-.024-.071.047-.175.076-.265.089.032.215.041.255.104.038.06-.015.178-.038.347Z" fill="#fff"/>
              <path d="M187.053,185.884c.136.08.25.109.272.171.024.065-.039.162-.065.246-.088-.03-.206-.037-.254-.098-.036-.045.019-.162.046-.318Z" fill="#fff"/>
              <path d="M183.761,181.806c.144.086.263.117.28.178.019.067-.033.188-.093.234-.035.027-.185-.026-.214-.08-.034-.062.009-.165.027-.332Z" fill="#fff"/>
              <path d="M187.628,182.692c.086-.136.119-.249.18-.267.066-.02.159.049.24.079-.031.082-.04.198-.099.235-.054.034-.161-.019-.321-.047Z" fill="#fff"/>
              <path d="M188.91,181.692c.069-.126.093-.232.148-.252.058-.021.185.022.21.072.025.051-.017.177-.069.211-.048.032-.148-.012-.289-.031Z" fill="#fff"/>
              <path d="M186.765,189.207c.072-.125.096-.224.154-.25.05-.023.187.023.198.062.019.068-.008.185-.059.224-.043.033-.148-.015-.293-.037Z" fill="#fff"/>
              <path d="M185.731,188.343c-.075.126-.103.231-.159.25-.062.02-.15-.04-.227-.065.028-.076.036-.183.09-.217.05-.032.15.012.296.032Z" fill="#fff"/>
              <path d="M194.082,182.24c.058-.1.085-.205.131-.213.066-.012.144.046.217.074-.033.072-.048.169-.104.207-.037.025-.132-.033-.244-.068Z" fill="#fff"/>
              <path d="M196.364,185.02c-.102-.069-.206-.104-.213-.153-.01-.065.055-.142.088-.213.064.035.161.056.184.109.023.053-.028.138-.059.257Z" fill="#fff"/>
              <path d="M187.864,186.518c.101.052.197.071.209.114.017.061-.027.139-.046.21-.067-.028-.155-.04-.193-.09-.027-.036.013-.123.03-.233Z" fill="#fff"/>
              <path d="M189.599,186.27c.097.052.175.07.206.119.019.03-.029.148-.057.152-.059.008-.141-.017-.181-.06-.024-.026.014-.109.031-.211Z" fill="#fff"/>
            </g>
          </g>
          <g clip-path="url(#f)">
            <g filter="url(#g)">
              <polygon points="194.853 183.715 207.641 169.999 203.347 170.071 194.292 179.545 194.853 183.715" fill="#336a9b"/>
              <polygon points="190.485 183.762 190.485 179.26 183.558 171.987 178.986 171.16 190.485 183.762" fill="#336a9b"/>
              <polygon points="159.161 183.122 168.581 171.485 164.702 171.485 158.468 178.622 159.161 183.122" fill="#336a9b"/>
              <rect x="155.907" y="169.041" width="83.713" height="3.173" fill="#e86170"/>
              <rect x="194.514" y="169.041" width="45.106" height="3.173" fill="#a384bb" mix-blend-mode="multiply" opacity=".5"/>
              <g>
                <polygon points="159.835 194.026 154.293 194.026 155.289 166.042 159.835 166.042 159.835 194.026" fill="#e86170"/>
                <polygon points="195.804 191.989 189.708 191.989 190.885 166.042 195.715 166.498 195.804 191.989" fill="#e86170"/>
              </g>
            </g>
          </g>
          <g>
            <g>
              <path d="M180.168,185.442c.214.244.098.561-.072.669-.203.129-.47.088-.606-.102-.144-.2-.1-.474.1-.619.032-.023.068-.042.101-.064.277-.192.31-.184.476.117Z" fill="#fff"/>
              <path d="M173.31,186.571c.186-.113.428-.056.546.13.124.195.065.443-.133.557-.187.107-.433.043-.545-.142-.112-.184-.052-.434.132-.545Z" fill="#fff"/>
              <path d="M177.144,189.438c.157-.094.31-.047.421.13.107.17.059.389-.107.489-.162.097-.37.041-.467-.125-.102-.174-.039-.38.153-.494Z" fill="#fff"/>
              <path d="M179.435,190.376c-.164.093-.361.041-.45-.119-.088-.159-.031-.358.13-.45.174-.099.383-.05.472.109.089.161.023.36-.153.46Z" fill="#fff"/>
              <path d="M177.462,185.955c.156-.094.363-.045.458.108.096.156.046.36-.112.455-.16.096-.358.048-.456-.109-.098-.159-.05-.357.11-.453Z" fill="#fff"/>
              <path d="M182.539,187.449c.152-.084.348-.024.43.133.078.149.025.333-.12.419-.154.091-.344.038-.432-.119-.087-.154-.032-.347.123-.433Z" fill="#fff"/>
              <path d="M172.665,188.659c-.083-.151-.032-.329.117-.416.156-.091.345-.037.431.121.081.15.03.333-.117.418-.155.09-.343.036-.431-.123Z" fill="#fff"/>
              <path d="M181.473,189.043c-.142.079-.312.034-.381-.1-.071-.139-.016-.327.118-.402.138-.078.301-.032.379.107.081.144.032.313-.116.395Z" fill="#fff"/>
              <path d="M173.303,185.02c.04-.023.078-.051.121-.068.131-.054.239-.021.298.109.059.132.005.234-.118.295-.065.032-.139.043-.205.074-.121.056-.225.045-.288-.078-.064-.125-.005-.215.11-.277.029-.016.058-.033.086-.049l-.003-.005Z" fill="#fff"/>
              <path d="M176.87,191.745c-.134.082-.309.044-.386-.083-.078-.129-.025-.322.109-.402.126-.075.311-.025.383.103.074.132.027.301-.106.382Z" fill="#fff"/>
              <path d="M177.32,181.912c-.092-.147-.069-.306.056-.39.117-.079.291-.038.37.086.079.125.009.414-.119.486-.101.057-.19.005-.306-.182Z" fill="#fff"/>
              <path d="M179.369,182.692c-.136.074-.308.022-.376-.121-.071-.149-.034-.276.106-.365.134-.085.301-.035.379.105.077.139.03.306-.108.38Z" fill="#fff"/>
              <path d="M174.882,182.271c.132-.069.309-.01.38.126.072.138.026.29-.111.359-.138.071-.31.017-.38-.119-.067-.129-.015-.301.11-.366Z" fill="#fff"/>
              <path d="M175.021,186.253c-.072-.125-.03-.296.092-.371.128-.078.306-.026.379.111.069.13.022.296-.105.365-.125.069-.294.02-.367-.105Z" fill="#fff"/>
              <path d="M178.057,184.369c.049.119.026.234-.102.313-.117.072-.289.026-.347-.094-.064-.133-.029-.25.093-.33.113-.074.281-.023.355.112Z" fill="#fff"/>
              <path d="M174.544,189.36c-.043.098-.062.223-.134.287-.108.095-.234.04-.306-.077-.074-.12-.047-.258.076-.31.087-.037.209.009.316.018l.049.082Z" fill="#fff"/>
              <path d="M178.296,188.087c.053-.155.064-.262.123-.326.023-.025.181.02.223.075.074.097.041.212-.082.26-.055.021-.127-.002-.263-.008Z" fill="#fff"/>
              <path d="M176.414,189.885c-.125-.061-.227-.079-.251-.132-.025-.056.026-.145.044-.22.074.02.178.019.214.067.035.046,0,.145-.008.284Z" fill="#fff"/>
              <path d="M175.067,187.918c.116.056.21.071.233.12.024.051-.021.135-.036.204-.074-.018-.17-.016-.213-.062-.032-.034.005-.133.016-.262Z" fill="#fff"/>
              <path d="M172.115,184.828c.123.06.221.077.24.125.02.053-.014.155-.06.196-.027.024-.152-.008-.18-.05-.032-.048-.004-.135,0-.271Z" fill="#fff"/>
              <path d="M175.318,185.286c.061-.116.08-.21.128-.229.052-.021.132.029.2.048-.02.068-.019.164-.065.198-.041.031-.132-.004-.264-.016Z" fill="#fff"/>
              <path d="M176.292,184.386c.047-.107.059-.195.103-.215.046-.021.152.005.175.044.024.039-.002.145-.041.176-.037.03-.121,0-.237-.006Z" fill="#fff"/>
              <path d="M175.059,190.639c.05-.106.063-.188.108-.214.039-.022.154.006.165.037.02.054.006.15-.033.186-.033.03-.121-.002-.24-.01Z" fill="#fff"/>
              <path d="M174.16,190.007c-.052.107-.068.195-.112.214-.049.021-.125-.022-.189-.037.018-.063.017-.151.058-.183.039-.03.123,0,.243.006Z" fill="#fff"/>
              <path d="M180.532,184.48c.04-.085.055-.172.092-.182.053-.014.12.027.182.045-.022.061-.028.14-.071.175-.029.023-.109-.018-.203-.039Z" fill="#fff"/>
              <path d="M182.575,186.584c-.088-.049-.174-.07-.184-.11-.012-.052.035-.119.057-.179.055.024.134.035.157.076.022.041-.013.114-.03.213Z" fill="#fff"/>
              <path d="M175.77,188.379c.086.035.165.044.177.078.018.049-.013.115-.023.174-.056-.018-.129-.022-.163-.06-.024-.027.002-.1.009-.192Z" fill="#fff"/>
              <path d="M177.163,188.059c.083.036.147.045.176.083.017.023-.013.122-.036.127-.047.011-.116-.005-.151-.036-.021-.019.004-.089.011-.173Z" fill="#fff"/>
            </g>
            <g>
              <path d="M189.288,187.929c.094.342-.172.6-.392.624-.261.029-.505-.139-.548-.391-.046-.265.129-.514.396-.562.043-.008.087-.008.13-.015.365-.055.393-.032.413.343Z" fill="#fff"/>
              <path d="M181.994,185.748c.238-.022.448.15.475.39.029.252-.149.468-.398.485-.235.016-.447-.165-.469-.401-.022-.235.157-.452.392-.473Z" fill="#fff"/>
              <path d="M184.392,190.411c.2-.017.327.103.352.331.024.219-.128.412-.34.43-.206.018-.384-.137-.4-.347-.017-.22.144-.392.388-.413Z" fill="#fff"/>
              <path d="M186.197,192.435c-.206.013-.375-.133-.386-.334-.011-.199.142-.368.344-.38.219-.014.402.134.413.334.011.201-.15.366-.371.38Z" fill="#fff"/>
              <path d="M186.378,187.135c.199-.018.379.13.399.326.02.199-.128.377-.328.394-.204.017-.376-.124-.396-.326-.02-.204.122-.376.326-.394Z" fill="#fff"/>
              <path d="M190.659,191.042c.19-.01.354.144.359.337.005.184-.135.34-.32.355-.195.015-.357-.127-.368-.325-.011-.193.135-.357.329-.368Z" fill="#fff"/>
              <path d="M180.356,187.494c-.009-.188.126-.34.315-.354.197-.015.358.129.366.326.008.187-.13.342-.316.355-.196.014-.355-.129-.365-.328Z" fill="#fff"/>
              <path d="M188.845,192.101c-.178.009-.324-.116-.328-.282-.004-.171.141-.33.309-.339.173-.01.311.113.322.288.011.18-.119.323-.304.333Z" fill="#fff"/>
              <path d="M182.732,184.218c.051-.003.102-.012.152-.009.155.01.246.094.241.25-.005.158-.107.233-.258.234-.079,0-.158-.024-.237-.026-.146-.003-.243-.064-.246-.215-.003-.154.098-.214.241-.22.036-.001.072-.005.109-.007v-.006Z" fill="#fff"/>
              <path d="M183.015,192.55c-.171.016-.326-.105-.34-.267-.014-.164.13-.329.3-.344.16-.013.318.124.328.285.009.165-.118.309-.288.325Z" fill="#fff"/>
              <path d="M188.179,183.086c-.02-.189.079-.335.242-.357.153-.021.305.102.323.262.018.161-.19.411-.351.421-.127.008-.189-.087-.214-.326Z" fill="#fff"/>
              <path d="M189.821,184.838c-.169.007-.314-.126-.312-.3.002-.181.1-.288.279-.308.172-.019.313.11.323.285.009.174-.118.315-.289.323Z" fill="#fff"/>
              <path d="M185.606,182.269c.163-.004.309.139.314.306.005.171-.114.298-.281.301-.17.003-.313-.132-.317-.299-.004-.159.13-.304.284-.308Z" fill="#fff"/>
              <path d="M183.831,186.256c-.011-.158.113-.306.269-.321.164-.016.314.121.32.291.006.161-.121.302-.279.309-.156.007-.299-.121-.31-.28Z" fill="#fff"/>
              <path d="M187.725,185.859c-.009.14-.086.243-.25.259-.15.015-.297-.113-.296-.26.001-.162.092-.26.251-.28.147-.019.288.112.296.281Z" fill="#fff"/>
              <path d="M181.87,189.086c-.089.076-.168.19-.27.218-.152.042-.25-.073-.264-.223-.015-.154.077-.276.224-.269.103.005.202.109.302.169l.008.104Z" fill="#fff"/>
              <path d="M186.175,189.634c.126-.128.189-.227.278-.262.035-.014.168.106.183.181.027.131-.061.229-.206.216-.064-.005-.124-.063-.255-.135Z" fill="#fff"/>
              <path d="M183.459,190.501c-.093-.12-.186-.187-.184-.25.003-.067.096-.131.149-.196.063.056.166.104.179.169.012.063-.07.143-.144.276Z" fill="#fff"/>
              <path d="M183.077,187.918c.087.11.173.171.172.23-.001.062-.085.122-.133.184-.064-.054-.16-.097-.18-.164-.015-.049.069-.129.142-.25Z" fill="#fff"/>
              <path d="M181.654,183.458c.092.118.181.182.176.238-.006.062-.088.146-.153.164-.038.011-.146-.081-.153-.136-.008-.063.061-.135.13-.267Z" fill="#fff"/>
              <path d="M184.588,185.446c.115-.085.179-.169.236-.164.062.005.116.092.174.144-.052.058-.098.152-.159.163-.056.011-.128-.068-.252-.143Z" fill="#fff"/>
              <path d="M185.979,185.028c.098-.083.152-.164.204-.162.055.001.147.078.151.128.005.05-.071.142-.125.154-.051.011-.119-.058-.23-.119Z" fill="#fff"/>
              <path d="M181.764,190.593c.1-.08.153-.155.209-.158.049-.003.148.08.145.116-.006.063-.066.151-.122.168-.046.014-.119-.06-.232-.125Z" fill="#fff"/>
              <path d="M181.182,189.539c-.103.08-.16.16-.213.157-.058-.003-.112-.082-.168-.127.048-.054.089-.14.145-.152.052-.011.121.059.236.123Z" fill="#fff"/>
              <path d="M190.108,187.156c.08-.065.137-.143.178-.135.059.011.105.085.157.132-.05.049-.095.125-.154.139-.039.009-.099-.07-.181-.135Z" fill="#fff"/>
              <path d="M191.11,190.209c-.063-.091-.138-.153-.128-.196.013-.057.092-.1.143-.149.042.05.116.099.118.15.002.051-.068.106-.132.195Z" fill="#fff"/>
              <path d="M183.548,188.709c.068.076.141.123.137.162-.006.056-.068.107-.106.16-.047-.045-.116-.083-.132-.137-.011-.038.05-.098.101-.185Z" fill="#fff"/>
              <path d="M185.073,189.063c.064.075.123.115.133.166.006.031-.072.114-.096.108-.051-.012-.112-.06-.131-.108-.012-.029.046-.086.094-.166Z" fill="#fff"/>
            </g>
            <g>
              <path d="M197.831,191.148c.024.384-.315.598-.553.575-.283-.027-.504-.259-.495-.536.01-.292.251-.517.544-.508.047.001.094.01.141.013.399.022.424.053.362.455Z" fill="#fff"/>
              <path d="M190.578,187.224c.257.029.442.258.418.518-.025.273-.261.463-.529.426-.253-.035-.437-.273-.408-.529.029-.255.267-.444.52-.416Z" fill="#fff"/>
              <path d="M192.092,192.7c.215.026.324.181.301.428-.023.238-.227.408-.455.381-.222-.027-.377-.23-.348-.457.03-.238.239-.384.503-.352Z" fill="#fff"/>
              <path d="M193.559,195.244c-.221-.032-.368-.224-.335-.439.032-.213.232-.358.449-.328.235.033.396.231.364.446-.033.216-.24.355-.477.321Z" fill="#fff"/>
              <path d="M194.92,189.663c.215.025.373.222.351.434-.023.216-.219.371-.435.345-.22-.027-.371-.215-.348-.434.023-.221.212-.372.432-.346Z" fill="#fff"/>
              <path d="M198.598,194.753c.203.031.343.231.307.437-.035.197-.219.331-.417.306-.21-.027-.35-.214-.319-.426.031-.207.222-.349.43-.317Z" fill="#fff"/>
              <path d="M188.455,188.715c.032-.201.209-.332.412-.305.212.028.351.216.316.427-.033.2-.214.334-.413.307-.211-.028-.348-.216-.315-.428Z" fill="#fff"/>
              <path d="M196.44,195.474c-.191-.029-.318-.195-.285-.371.034-.182.222-.318.403-.291.186.028.305.189.278.376-.028.194-.198.316-.396.286Z" fill="#fff"/>
              <path d="M191.699,185.765c.054.008.111.009.163.024.162.044.24.154.2.319-.04.167-.165.223-.326.191-.084-.017-.162-.061-.246-.08-.154-.035-.244-.121-.214-.283.031-.164.152-.206.304-.18.039.006.078.011.117.016v-.007Z" fill="#fff"/>
              <path d="M190.159,194.664c-.185-.021-.322-.183-.302-.358.021-.177.211-.321.394-.298.173.021.31.202.284.375-.026.177-.193.302-.377.281Z" fill="#fff"/>
              <path d="M197.725,185.768c.021-.205.158-.338.336-.326.167.011.301.175.285.349-.016.175-.292.394-.465.37-.136-.02-.182-.134-.155-.393Z" fill="#fff"/>
              <path d="M199.08,187.988c-.181-.03-.305-.203-.265-.387.042-.192.169-.284.364-.265.187.018.308.186.279.374-.029.186-.194.308-.378.278Z" fill="#fff"/>
              <path d="M195.177,184.333c.174.032.297.215.266.394-.033.182-.186.29-.365.257-.181-.034-.303-.209-.27-.388.031-.169.205-.293.369-.264Z" fill="#fff"/>
              <path d="M192.414,188.17c.023-.17.187-.299.356-.281.177.02.306.197.275.379-.029.172-.195.293-.364.267-.167-.027-.291-.195-.267-.365Z" fill="#fff"/>
              <path d="M196.631,188.607c-.04.147-.145.238-.322.219-.162-.017-.29-.185-.257-.341.037-.171.155-.256.328-.242.16.013.28.183.252.363Z" fill="#fff"/>
              <path d="M189.709,190.738c-.111.061-.22.164-.334.171-.171.011-.248-.133-.231-.294.018-.166.143-.276.296-.235.108.028.19.16.283.246l-.014.112Z" fill="#fff"/>
              <path d="M194.154,192.269c.162-.107.251-.199.352-.217.04-.007.155.15.155.232,0,.145-.116.229-.266.184-.067-.02-.117-.094-.241-.199Z" fill="#fff"/>
              <path d="M191.082,192.589c-.073-.148-.156-.239-.14-.306.018-.071.13-.117.201-.174.055.073.153.147.152.219-.001.069-.105.136-.214.261Z" fill="#fff"/>
              <path d="M191.248,189.765c.068.136.145.22.131.282-.015.065-.117.111-.182.165-.056-.071-.148-.138-.155-.214-.005-.056.101-.121.205-.234Z" fill="#fff"/>
              <path d="M190.723,184.721c.072.146.151.233.134.292-.02.065-.126.135-.199.141-.043.003-.137-.118-.132-.177.005-.068.094-.13.197-.255Z" fill="#fff"/>
              <path d="M193.395,187.478c.141-.065.228-.14.287-.122.064.019.103.124.153.191-.068.05-.137.139-.204.138-.061,0-.121-.1-.236-.207Z" fill="#fff"/>
              <path d="M194.963,187.341c.122-.066.198-.14.253-.127.058.014.139.115.132.169-.006.054-.107.135-.167.135-.056,0-.114-.088-.218-.177Z" fill="#fff"/>
              <path d="M189.264,192.311c.124-.063.196-.131.257-.122.053.008.14.117.128.155-.021.065-.104.146-.166.151-.052.004-.113-.09-.218-.184Z" fill="#fff"/>
              <path d="M188.88,191.065c-.127.062-.205.134-.261.119-.061-.016-.101-.111-.15-.172.062-.047.125-.129.187-.129.058,0,.115.089.223.182Z" fill="#fff"/>
              <path d="M198.872,190.51c.099-.051.177-.121.218-.104.06.025.093.113.138.175-.064.041-.128.112-.193.113-.044,0-.089-.096-.162-.184Z" fill="#fff"/>
              <path d="M199.26,193.968c-.047-.11-.113-.193-.093-.236.026-.058.12-.086.184-.126.034.062.101.13.092.185-.009.055-.095.097-.183.177Z" fill="#fff"/>
              <path d="M191.572,190.708c.055.095.122.161.109.202-.019.058-.096.098-.148.146-.039-.058-.105-.114-.11-.175-.003-.043.075-.093.148-.173Z" fill="#fff"/>
              <path d="M193.111,191.42c.052.093.105.15.105.205,0,.034-.101.105-.126.093-.052-.024-.105-.088-.115-.144-.006-.034.068-.081.136-.155Z" fill="#fff"/>
            </g>
          </g>
          <g>
            <path d="M160.603,186.408c.036.383-.296.607-.535.593-.284-.018-.512-.243-.511-.52.001-.292.234-.524.528-.525.047,0,.095.008.142.009.4.009.425.039.376.444Z" fill="#fff"/>
            <path d="M153.229,182.715c.258.021.45.244.434.505-.017.274-.246.471-.516.442-.254-.027-.446-.26-.425-.516.021-.255.252-.453.507-.432Z" fill="#fff"/>
            <path d="M154.915,188.14c.216.019.33.171.314.419-.015.238-.214.415-.443.395-.223-.02-.384-.218-.362-.445.023-.238.227-.392.491-.368Z" fill="#fff"/>
            <path d="M156.462,190.636c-.222-.025-.375-.212-.349-.428.026-.214.22-.366.438-.342.236.026.403.219.378.434-.026.217-.229.362-.467.336Z" fill="#fff"/>
            <path d="M157.646,185.016c.216.019.38.21.365.423-.016.216-.207.378-.424.359-.221-.02-.378-.203-.362-.422.016-.221.2-.378.421-.359Z" fill="#fff"/>
            <path d="M161.483,189.986c.204.025.351.22.32.427-.029.198-.208.338-.407.319-.211-.02-.357-.203-.332-.415.024-.208.211-.356.419-.331Z" fill="#fff"/>
            <path d="M151.155,184.272c.025-.202.198-.339.403-.318.213.021.357.205.329.417-.027.201-.203.341-.404.32-.212-.022-.355-.204-.328-.418Z" fill="#fff"/>
            <path d="M159.349,190.776c-.191-.023-.324-.185-.297-.362.028-.183.212-.325.394-.304.187.022.311.179.29.367-.022.195-.188.322-.386.298Z" fill="#fff"/>
            <path d="M154.304,181.221c.055.006.111.006.164.018.164.039.245.147.21.312-.035.168-.158.228-.32.201-.084-.014-.164-.056-.248-.072-.155-.031-.248-.113-.223-.276.025-.165.145-.21.298-.19.039.005.078.008.117.013v-.007Z" fill="#fff"/>
            <path d="M153.045,190.164c-.186-.015-.328-.173-.313-.348.015-.178.2-.327.385-.31.173.016.316.192.296.366-.021.178-.184.308-.368.293Z" fill="#fff"/>
            <path d="M160.327,181.034c.014-.205.147-.343.325-.336.168.006.306.166.296.34-.011.175-.28.403-.453.384-.137-.015-.186-.128-.168-.388Z" fill="#fff"/>
            <path d="M161.751,183.21c-.182-.024-.311-.194-.277-.378.036-.193.16-.289.355-.277.187.012.314.176.291.365-.023.187-.184.314-.369.29Z" fill="#fff"/>
            <path d="M157.735,179.68c.175.026.304.206.278.386-.027.183-.177.296-.356.268-.182-.028-.309-.199-.282-.379.026-.17.196-.3.361-.275Z" fill="#fff"/>
            <path d="M155.094,183.602c.018-.171.177-.305.347-.292.178.014.312.188.287.37-.024.173-.186.299-.355.278-.168-.021-.297-.186-.279-.357Z" fill="#fff"/>
            <path d="M159.323,183.906c-.036.148-.137.243-.315.23-.163-.012-.296-.176-.267-.332.031-.172.147-.26.32-.252.161.008.286.174.263.355Z" fill="#fff"/>
            <path d="M152.472,186.254c-.109.064-.214.171-.329.182-.17.016-.253-.125-.24-.287.013-.167.134-.28.289-.245.109.025.195.154.291.237l-.011.113Z" fill="#fff"/>
            <path d="M156.963,187.644c.159-.112.244-.207.345-.228.04-.008.16.145.162.227.004.145-.108.232-.26.192-.067-.018-.12-.09-.247-.191Z" fill="#fff"/>
            <path d="M153.903,188.061c-.077-.145-.164-.234-.149-.301.015-.071.126-.121.196-.181.057.071.158.142.159.214.001.069-.101.14-.205.268Z" fill="#fff"/>
            <path d="M153.979,185.233c.072.134.152.215.14.278-.013.066-.114.115-.176.171-.058-.069-.152-.134-.161-.209-.007-.055.097-.124.198-.24Z" fill="#fff"/>
            <path d="M153.296,180.209c.076.143.159.229.143.287-.018.066-.121.139-.194.147-.043.005-.14-.114-.138-.173.003-.068.09-.133.189-.261Z" fill="#fff"/>
            <path d="M156.053,182.879c.139-.069.223-.147.283-.131.065.017.107.12.159.186-.067.052-.132.144-.2.145-.061,0-.124-.096-.242-.199Z" fill="#fff"/>
            <path d="M157.616,182.693c.12-.07.193-.146.248-.135.059.012.142.11.138.165-.005.055-.102.138-.163.141-.056.003-.117-.084-.223-.17Z" fill="#fff"/>
            <path d="M152.077,187.841c.122-.067.192-.137.253-.13.053.006.143.113.132.151-.019.066-.099.149-.161.156-.052.006-.115-.086-.224-.177Z" fill="#fff"/>
            <path d="M151.653,186.608c-.125.066-.201.14-.257.127-.061-.014-.104-.108-.155-.167.061-.049.121-.133.183-.135.058-.002.118.085.229.175Z" fill="#fff"/>
            <path d="M161.623,185.737c.098-.054.173-.127.215-.111.06.023.097.11.143.17-.063.043-.125.116-.19.119-.043.002-.092-.094-.168-.178Z" fill="#fff"/>
            <path d="M162.12,189.181c-.05-.109-.119-.189-.1-.233.025-.059.117-.089.18-.132.036.061.105.127.098.182-.007.055-.092.1-.177.183Z" fill="#fff"/>
            <path d="M154.333,186.165c.058.093.127.157.116.198-.017.059-.092.101-.143.151-.041-.057-.108-.111-.115-.171-.005-.043.072-.095.142-.178Z" fill="#fff"/>
            <path d="M155.894,186.829c.054.092.11.146.111.202,0,.034-.098.108-.123.097-.053-.023-.108-.085-.119-.14-.007-.033.066-.083.131-.159Z" fill="#fff"/>
          </g>
        </g>
      </g>
    </g>
  </g>
</svg>