<?xml version="1.0" encoding="UTF-8"?>
<svg xmlns="http://www.w3.org/2000/svg" width="300" height="300" xmlns:xlink="http://www.w3.org/1999/xlink" viewBox="0 0 300 300">
  <defs>
    <clipPath id="s">
      <path d="M129.292,164.225v-62.525H35.555v72.251c-4.723,1.641-7.876,4.551-7.876,7.878,0,5.131,7.474,9.29,16.694,9.29,5.358,0,10.113-1.41,13.168-3.594,2.499,1.511,5.757,2.433,9.332,2.433,4.263,0,8.077-1.308,10.684-3.368.612,1.169,1.544,1.932,2.602,1.932.374,0,.727-.115,1.063-.287,3.082,1.264,6.84,2.014,10.909,2.014,6.809,0,12.758-2.088,16.077-5.207.334.034.672.054,1.016.054,3.745,0,6.974-2.096,8.51-5.13,1.783,1.56,4.139,2.517,6.731,2.517,5.552,0,10.052-4.354,10.052-9.726,0-3.679-2.112-6.879-5.226-8.531Z" fill="none"/>
    </clipPath>
    <filter id="t" data-name="drop-shadow-1" x="62.343" y="123.624" width="51.248" height="33.544" filterUnits="userSpaceOnUse">
      <feOffset dx="-4" dy="0"/>
      <feGaussianBlur result="u" stdDeviation="0"/>
      <feFlood flood-color="#42496f" flood-opacity="1"/>
      <feComposite in2="u" operator="in"/>
      <feComposite in="SourceGraphic"/>
    </filter>
    <filter id="v" data-name="drop-shadow-2" x="38.634" y="150.477" width="79.336" height="57.443" filterUnits="userSpaceOnUse">
      <feOffset dx="-4" dy="0"/>
      <feGaussianBlur result="w" stdDeviation="0"/>
      <feFlood flood-color="#42496f" flood-opacity="1"/>
      <feComposite in2="w" operator="in"/>
      <feComposite in="SourceGraphic"/>
    </filter>
    <clipPath id="x">
      <path d="M113.721,188.212l-.867-30.125s3.793.325,1.517-.867c-2.276-1.192-10.403-2.384-11.92-2.384s-15.821.217-18.422.65c-2.601.433-16.255,1.409-20.589,1.517-4.335.108-14.867,1.131-16.471,1.517-2.7.65,1.433,1.979,1.433,1.979,0,0,.531,8.418.158,12.713-1.746,1.346-1.08,20.994-1.08,20.994l66.241-1.01v-4.985Z" fill="none"/>
    </clipPath>
  </defs>
  <g isolation="isolate">
    <g id="r" data-name="Calque 5">
      <g>
        <g>
          <g>
            <path d="M140.832,237.439c-6.24-7.908-17.826-12.456-22.643-12.872-4.818-.415-40.71,2.907-45.286,4.567-4.577,1.661-11.081,4.152-12.044,7.889-.964,3.737.518,5.696,1.118,6.318,1.54,1.596,12.853,8.63,22.007,9.46,9.154.83,37.096-3.529,47.213-5.398,10.117-1.868,13.73-4.775,9.635-9.965Z" fill="#b1ddea"/>
            <path d="M142.475,240.98c-.063-1.047-.6-2.219-1.643-3.541-6.24-7.908-17.825-12.457-22.643-12.872-4.818-.415-40.709,2.907-45.286,4.568-3.041,1.103-6.924,2.576-9.476,4.534-3.646,2.398-.845,4.644.592,6.195,1.503,1.622,9.63,9.247,18.783,10.078s36.941-1.932,47.059-3.8c3.812-.704,10.713-4.096,12.614-5.162Z" fill="#fff" opacity=".75"/>
            <g mix-blend-mode="multiply" opacity=".5">
              <path d="M67.419,249.171c-1.793-.807-3.665-1.534-5.198-2.67,0,0-1.344-.437-.601.446.134.159.254.324.429.451,1.834,1.336,3.797,2.542,5.86,3.601,1.315.675,3.952,1.817,4.263,1.342s-2.96-2.361-4.753-3.168Z" fill="#336a9b"/>
              <path d="M101.73,253.152c-2.607-.145-5.177.479-7.738.924-1.776.309-5.209.3-5.376.671-.27.579,6.456.492,8.632.37,1.733-.097,3.546-.352,4.926-1.262.109-.072.221-.158.246-.274.057-.273-.368-.412-.69-.43Z" fill="#336a9b"/>
              <path d="M132.885,248.782c-2.381.219-8.17.568-8.751,1.435-.581.866,7.344.062,9.495-.251,1.713-.249,4.41-1.635,4.097-2.129s-2.461.726-4.842.945Z" fill="#336a9b"/>
              <path d="M89.003,256.86c-1.28-.155-2.561-.3-3.844-.434-1.597-.168-3.208-.154-4.773.165-.732.149-.007.286-.007.286,2.216.443,4.474.729,6.744.853.724.04,1.459.062,2.167-.075.302-.058.629-.168.76-.411-.232-.27-.66-.338-1.046-.385Z" fill="#336a9b"/>
              <path d="M74.664,255.467c.406.025,1.237.054,1.097-.338s-4.486-1.631-5.207-1.234c-.721.397,2.585,1.478,4.111,1.572Z" fill="#336a9b"/>
              <path d="M124.746,252.498c.393-.091,1.189-.299.907-.63s-4.858-.272-5.389.307c-.53.579,3.005.665,4.482.323Z" fill="#336a9b"/>
            </g>
          </g>
          <g>
            <path d="M166.376,244.533c-5.576-1.442-26.979,1.038-34.206,2.076-7.227,1.038-13.971,2.076-13.971,2.076,0,0-8.672,8.72-7.227,11.626,1.445,2.907,13.008,5.605,19.753,5.398,6.745-.208,5.059-1.246,9.635,0,4.577,1.246,6.745,2.907,11.562,1.246,4.818-1.661,11.322-3.737,14.453-5.398,3.132-1.661,7.949-7.474,9.154-9.135,1.204-1.661.482-5.398-9.154-7.889Z" fill="#b1ddea"/>
            <path d="M132.17,246.609c-7.227,1.038-13.972,2.076-13.972,2.076,0,0-4.328,4.36-6.355,7.942.025.096.032.203.074.289,1.445,2.907,12.552,7.393,19.296,7.186,6.745-.208,5.515-3.034,10.092-1.788,4.577,1.245,7.138,4.259,11.956,2.598,4.817-1.661,11.398-4.694,14.53-6.355,2.688-1.426,8.168-7.351,7.954-8.583-.696-1.744-3.203-3.847-9.37-5.441-5.576-1.442-26.979,1.038-34.205,2.076Z" fill="#fff" opacity=".75"/>
            <g mix-blend-mode="multiply" opacity=".5">
              <path d="M116.536,265.112c-1.793-.807-3.665-1.534-5.198-2.67,0,0-1.344-.437-.601.446.134.159.254.324.429.451,1.834,1.336,3.797,2.542,5.86,3.601,1.315.675,3.952,1.817,4.263,1.342s-2.96-2.361-4.753-3.168Z" fill="#336a9b"/>
              <path d="M141.783,267.474c-1.28-.155-2.561-.3-3.844-.434-1.597-.168-3.208-.154-4.773.165-.732.149-.007.286-.007.286,2.216.443,4.474.729,6.744.853.724.04,1.459.062,2.167-.075.302-.058.629-.168.76-.411-.232-.27-.66-.338-1.046-.385Z" fill="#336a9b"/>
              <path d="M125.269,267.659c.406.025,1.237.054,1.097-.338s-4.486-1.631-5.207-1.234c-.721.397,2.585,1.478,4.111,1.572Z" fill="#336a9b"/>
            </g>
          </g>
        </g>
        <g>
          <g clip-path="url(#s)">
            <g filter="url(#t)">
              <path d="M106.302,143.787c1.943.122,1.326,10.401,1.998,10.632.673.231,5.437.541,5.287,2.749l-9.008-1.235c-1.927-.282-.254-12.271,1.724-12.146Z" fill="#336a9b"/>
              <path d="M108.28,135.232c1.016,4.754.543,12.665,1.27,12.665,1.016,0,1.306-11.105.617-15.569,0,0-1.923,2.831-1.887,2.903Z" fill="#fff"/>
              <path d="M70.744,152.222s-5.804-3.891-4.082-6.889c1.722-2.998,4.848,2.424,4.848,2.424,0,0-.319-5.167,3.827-5.167,1.271,0-.191,2.615.702,6.251,5.549-.128,10.397-4.401,13.076-10.142,2.679-5.741.064-13.65,9.057-14.926,8.994-1.276,10.919,6.015,10.919,6.015,0,0,1.652-.363,1.524,1.742s-.707,3.916-2.876,5.51c0,0,.344,15.623-3.25,18.791,0,0-1.279.345-7.083.345s-23.154.893-23.154.893c0,0-2.424-.893-3.508-4.848Z" fill="#6498d1"/>
              <path d="M92.363,143.359c-1.946-.08-2.399,10.207-3.092,10.367s-5.463-.027-5.543,2.185l9.088-.293c1.946-.08,1.526-12.178-.453-12.26Z" fill="#336a9b"/>
              <path d="M105.183,133.853c-1.016,4.754-.87,14.407-1.597,14.407-1.016,0-1.706-10.27-1.016-14.734,0,0,2.649.254,2.613.327Z" fill="#fff"/>
              <path d="M101.313,133.563s1.56,5.952,5.734,1.452l.29-2.613-6.097.145.073,1.016Z" fill="#6498d1"/>
              <path d="M106.265,131.653s.086.903,1.528.729c1.442-.174,1.118-1.273,1.118-1.273,0,0-1.708.054-2.646.544Z" fill="#efa78e"/>
              <path d="M106.442,129.042s.43,1.675,1.439,1.546c1.009-.129.021-1.761.021-1.761" fill="none" stroke="#336a9b" stroke-linecap="round" stroke-linejoin="round" stroke-width=".375"/>
              <path d="M102.941,129.493s.215,1.933,1.396,1.718.193-2.04.193-2.04" fill="none" stroke="#336a9b" stroke-linecap="round" stroke-linejoin="round" stroke-width=".375"/>
              <g>
                <path d="M110.063,131.556c.388.68.644,1.435.751,2.21" fill="none" stroke="#336a9b" stroke-linecap="round" stroke-linejoin="round" stroke-width=".375"/>
                <path d="M109.276,132.114c.253.633.409,1.304.462,1.983" fill="none" stroke="#336a9b" stroke-linecap="round" stroke-linejoin="round" stroke-width=".375"/>
                <path d="M108.285,132.647c.198.604.286,1.243.258,1.878" fill="none" stroke="#336a9b" stroke-linecap="round" stroke-linejoin="round" stroke-width=".375"/>
                <path d="M107.239,132.682l.031,2.081" fill="none" stroke="#336a9b" stroke-linecap="round" stroke-linejoin="round" stroke-width=".375"/>
                <path d="M106.194,132.48c-.058.84-.13,1.68-.216,2.518" fill="none" stroke="#336a9b" stroke-linecap="round" stroke-linejoin="round" stroke-width=".375"/>
                <path d="M105.201,132.467c-.218.797-.435,1.595-.653,2.392" fill="none" stroke="#336a9b" stroke-linecap="round" stroke-linejoin="round" stroke-width=".375"/>
                <path d="M110.552,130.922c.506.515.913,1.126,1.192,1.791" fill="none" stroke="#336a9b" stroke-linecap="round" stroke-linejoin="round" stroke-width=".375"/>
                <path d="M104.214,132.4c-.369.67-.7,1.361-.991,2.069" fill="none" stroke="#336a9b" stroke-linecap="round" stroke-linejoin="round" stroke-width=".375"/>
                <path d="M103.108,132.16c-.351.492-.679.999-.985,1.52" fill="none" stroke="#336a9b" stroke-linecap="round" stroke-linejoin="round" stroke-width=".375"/>
              </g>
              <path d="M101.313,133.563s1.415,6.133,6.768,1.071c0,0,.057,3.274,1.943-.341" fill="none" stroke="#336a9b" stroke-linecap="round" stroke-linejoin="round" stroke-width=".375"/>
            </g>
            <g filter="url(#v)">
              <path d="M113.721,188.212l-.867-30.125s3.793.325,1.517-.867c-2.276-1.192-10.403-2.384-11.92-2.384s-15.821.217-18.422.65c-2.601.433-16.255,1.409-20.589,1.517-4.335.108-14.867,1.131-16.471,1.517-2.7.65,1.433,1.979,1.433,1.979,0,0,.531,8.418.158,12.713-1.746,1.346-1.08,20.994-1.08,20.994l66.241-1.01v-4.985Z" fill="#b1ddea"/>
              <g clip-path="url(#x)">
                <path d="M116.422,151.732l-51.871-1.255-15.484,3.578s1.452,9.097,1.161,11.807c-.29,2.71,3.677,11.806,3.677,11.806l2.129-14.903,2.323,3.484s3.702,1.242,5.226,11.806c.371,2.57,2.743,5.119,6.157,7.529.174-1.18.385-2.355.598-3.515.39.825.78,1.651,1.169,2.476.901-5.736,1.801-11.472,2.702-17.208,1.589-.279,2.675,18.323,3.213,19.844,1.902,5.381.611-18.058,1.229-12.384.222-1.193,3.423,17.312,4.334-1.011.555,3.638,1.84,16.334,3.753,20.371.901.359,1.791.704,2.671,1.038.093-.175.156-.364.149-.556-.869-23.826.226-28.561,2.778-22.701,1.529,31.039,4.525-7.376,5.49,16.573.546-.706,1.092-1.411,1.638-2.117.417,1.337.835,2.675,1.252,4.012.126.406.279.846.641,1.069.883.546,1.813-.625,2.197-1.589.699-1.753,1.397-3.506,2.096-5.26.885.902,1.682,1.891,2.375,2.948.678-3.021,1.268-6.061,1.77-9.116,2.251,4.732,6.303,9.929,6.49,15.166l1.222,2.311c.056-4.84.465-21.378.465-21.378l-1.548-22.825Z" fill="#fff" opacity=".75"/>
                <path d="M49.209,206.665l51.871,1.255,15.484-3.578s-1.452-9.097-1.161-11.807c.29-2.71-3.678-11.806-3.678-11.806l-2.129,14.903-2.323-3.484s-3.702-1.242-5.226-11.807c-.371-2.57-2.743-5.119-6.157-7.529-.174,1.18-.385,2.355-.598,3.515-.39-.825-.78-1.651-1.169-2.476-.9,5.736-1.801,11.472-2.701,17.208-1.589.279-2.675-18.323-3.213-19.844-1.902-5.381-.611,18.059-1.229,12.384-.222,1.193-3.423-17.312-4.334,1.011-.555-3.638-1.84-16.335-3.753-20.371-.901-.359-1.791-.704-2.671-1.038-.093.175-.156.364-.149.556.869,23.826-.226,28.561-2.778,22.701-1.529-31.039-4.525,7.376-5.49-16.573-.546.706-1.092,1.411-1.638,2.117-.417-1.337-.835-2.675-1.252-4.012-.126-.406-.279-.846-.641-1.069-.883-.546-1.813.625-2.197,1.589-.699,1.753-1.397,3.506-2.096,5.26-.886-.902-1.682-1.891-2.375-2.948-.678,3.021-1.268,6.061-1.77,9.116-2.251-4.732-6.303-9.929-6.49-15.167l-1.222-2.311c-.056,4.84-.465,21.378-.465,21.378l1.548,22.826Z" fill="#fff" opacity=".25"/>
                <path d="M114.371,157.22c-2.276-1.192-10.403-2.384-11.92-2.384s-15.821.217-18.422.65c-2.601.433-16.255,1.409-20.589,1.517-4.335.108-14.955.867-16.471,1.517-1.517.65-4.335.65-4.335.65v1.547c4.57.784,8.684-.107,13.322-1.014,3.248-.636,7.166-1.871,10.475-1.928,2.613-.045,5.311-.075,7.729.918.947.388,1.857.935,2.876,1.03.7.065,1.4-.089,2.086-.242,2.161-.482,4.322-.964,6.483-1.447.357-.08.732-.159,1.085-.063.497.136.844.589,1.321.784.786.321,1.655-.128,2.501-.204,1.098-.098,2.137.442,3.191.766,1.054.324,2.375.359,3.074-.494.136-.166.244-.361.42-.483.237-.164.546-.161.834-.165,2.283-.033,4.496-.868,6.778-.916,4.081-.086,2.308,2.337,6.341,1.709.986-.153,1.006-.171,1.706-.883,0,0,3.793.325,1.517-.867Z" fill="#fff"/>
              </g>
            </g>
          </g>
          <g>
            <g>
              <path d="M80.132,184.23c.15-.162.374-.106.459.002.101.129.092.313-.027.418-.125.111-.315.101-.428-.025-.018-.02-.033-.043-.051-.064-.149-.175-.146-.197.046-.331Z" fill="#fff"/>
              <path d="M81.378,188.806c-.09-.119-.068-.286.05-.38.124-.098.296-.075.387.051.086.119.06.291-.058.38-.117.089-.291.065-.379-.052Z" fill="#fff"/>
              <path d="M83.056,186.003c-.075-.1-.053-.207.059-.295.108-.085.26-.068.339.039.077.103.054.248-.052.326-.111.082-.255.053-.346-.069Z" fill="#fff"/>
              <path d="M83.533,184.383c.075.105.053.242-.05.314-.102.071-.241.046-.314-.057-.079-.111-.061-.257.041-.328.103-.072.243-.041.323.071Z" fill="#fff"/>
              <path d="M80.669,186.031c-.075-.099-.056-.243.041-.318.099-.076.241-.056.316.044.076.102.058.24-.042.317-.101.078-.239.059-.316-.043Z" fill="#fff"/>
              <path d="M81.328,182.48c-.068-.097-.04-.234.06-.301.096-.063.224-.04.293.052.072.098.05.231-.051.302-.099.07-.233.046-.303-.053Z" fill="#fff"/>
              <path d="M82.84,189.098c-.096.067-.221.045-.291-.05-.072-.099-.049-.232.052-.301.096-.066.224-.044.292.05.072.099.049.231-.053.301Z" fill="#fff"/>
              <path d="M82.485,183.092c.063.091.045.21-.041.266-.089.058-.221.034-.281-.052-.062-.088-.042-.202.046-.265.092-.065.21-.043.276.051Z" fill="#fff"/>
              <path d="M80.325,188.919c-.018-.026-.04-.05-.055-.077-.046-.085-.031-.161.053-.21.085-.05.158-.02.209.06.026.042.039.092.064.134.046.078.046.15-.033.201-.081.053-.146.018-.196-.055-.013-.019-.026-.037-.04-.055l-.003.002Z" fill="#fff"/>
              <path d="M84.641,186.028c.065.085.052.207-.029.268-.082.062-.217.04-.281-.046-.06-.08-.039-.209.043-.267.084-.059.202-.039.267.045Z" fill="#fff"/>
              <path d="M77.935,186.409c-.093.073-.203.068-.269-.01-.062-.074-.046-.195.032-.257.079-.063.28-.035.338.047.046.065.016.129-.102.221Z" fill="#fff"/>
              <path d="M78.321,184.964c.06.087.036.208-.056.264-.096.059-.185.042-.255-.046-.067-.085-.045-.202.045-.265.089-.062.205-.041.266.047Z" fill="#fff"/>
              <path d="M78.348,188.039c-.056-.085-.028-.209.059-.267.089-.059.195-.038.252.05.058.089.033.209-.054.266-.083.054-.204.031-.256-.049Z" fill="#fff"/>
              <path d="M81.042,187.667c-.08.058-.199.041-.258-.037-.062-.082-.039-.206.049-.265.083-.056.2-.035.255.046.055.08.034.198-.046.256Z" fill="#fff"/>
              <path d="M79.551,185.738c.077-.042.157-.034.219.047.057.074.038.194-.04.242-.086.053-.168.037-.231-.04-.058-.072-.035-.189.051-.249Z" fill="#fff"/>
              <path d="M83.185,187.773c.069.022.156.026.204.071.072.067.043.156-.031.213-.076.059-.172.05-.216-.03-.031-.056-.009-.143-.01-.216l.052-.039Z" fill="#fff"/>
              <path d="M82.058,185.316c-.109-.025-.182-.025-.23-.061-.019-.014,0-.124.035-.156.061-.057.141-.043.182.038.018.036.008.086.013.179Z" fill="#fff"/>
              <path d="M83.41,186.467c-.033.089-.038.16-.072.179-.036.021-.101-.008-.153-.015.009-.052,0-.122.031-.15.029-.027.099-.01.194-.015Z" fill="#fff"/>
              <path d="M82.169,187.519c.03-.082.034-.148.065-.167.033-.02.093.005.141.01-.007.051.001.116-.027.149-.021.024-.091.006-.179.007Z" fill="#fff"/>
              <path d="M80.278,189.739c.032-.088.037-.156.068-.171.035-.018.106-.001.137.027.018.017.005.104-.021.125-.031.025-.091.012-.184.019Z" fill="#fff"/>
              <path d="M80.365,187.533c-.083-.033-.148-.039-.165-.071-.018-.034.01-.092.019-.139.048.009.112.002.139.03.024.026.006.09.007.18Z" fill="#fff"/>
              <path d="M79.686,186.935c-.076-.025-.137-.027-.153-.055-.017-.03-.007-.103.018-.122.025-.019.098-.009.123.016.023.023.009.082.013.161Z" fill="#fff"/>
              <path d="M84.017,187.334c-.076-.027-.132-.03-.153-.059-.018-.025-.007-.105.014-.115.035-.017.102-.015.129.009.023.02.007.083.01.164Z" fill="#fff"/>
              <path d="M83.65,187.989c.076.028.137.032.153.061.017.032-.006.086-.012.131-.044-.008-.103,0-.128-.027-.023-.024-.009-.083-.013-.165Z" fill="#fff"/>
              <path d="M79.453,184.05c-.061-.021-.121-.026-.13-.05-.013-.035.01-.084.018-.127.043.01.097.009.124.036.018.018-.005.075-.012.14Z" fill="#fff"/>
              <path d="M80.739,182.516c-.027.063-.036.123-.062.132-.035.012-.083-.016-.126-.026.013-.039.014-.094.041-.112.026-.018.078.001.147.006Z" fill="#fff"/>
              <path d="M82.433,187.01c.018-.061.019-.115.041-.126.032-.015.079,0,.119.003-.009.039-.006.089-.029.115-.017.019-.068.006-.131.007Z" fill="#fff"/>
              <path d="M82.119,186.087c.018-.059.02-.103.044-.125.014-.013.084,0,.089.015.01.031.005.079-.014.105-.012.016-.061.004-.118.005Z" fill="#fff"/>
            </g>
            <g>
              <path d="M71.75,187.954c-.148-.089-.141-.268-.072-.35.082-.098.224-.121.323-.047.105.078.127.224.05.33-.012.017-.028.032-.041.049-.109.142-.127.143-.26.018Z" fill="#fff"/>
              <path d="M75.039,186.27c-.076.088-.207.098-.297.023-.095-.079-.105-.214-.023-.304.077-.085.212-.092.299-.017.087.075.097.211.022.298Z" fill="#fff"/>
              <path d="M72.632,185.441c-.064.073-.149.074-.234.002-.082-.069-.093-.187-.025-.265.066-.075.18-.081.257-.013.08.071.081.186.003.275Z" fill="#fff"/>
              <path d="M71.321,185.338c.068-.074.176-.079.247-.013.07.066.074.176.007.249-.072.078-.186.088-.257.021-.071-.067-.07-.179.003-.258Z" fill="#fff"/>
              <path d="M73.037,187.255c-.064.073-.177.082-.249.02-.074-.063-.082-.175-.017-.248.066-.075.174-.083.248-.019.076.065.083.173.018.247Z" fill="#fff"/>
              <path d="M70.224,187.324c-.063.067-.172.068-.239.002-.064-.063-.067-.165-.007-.232.063-.071.168-.075.238-.01.069.064.073.171.008.239Z" fill="#fff"/>
              <path d="M75.026,185.108c.066.063.07.161.008.23-.064.071-.169.075-.238.008-.065-.063-.069-.164-.009-.231.064-.071.168-.074.238-.008Z" fill="#fff"/>
              <path d="M70.505,186.344c.059-.063.153-.068.209-.011.059.059.061.163.005.223-.057.062-.147.065-.209.007-.064-.059-.067-.153-.005-.219Z" fill="#fff"/>
              <path d="M75.293,187.054c-.017.018-.031.038-.05.054-.058.049-.118.049-.169-.007-.051-.057-.041-.118.012-.169.027-.027.064-.044.092-.071.052-.048.107-.059.159-.007.053.053.037.108-.01.158-.012.013-.024.026-.036.039l.002.002Z" fill="#fff"/>
              <path d="M72.397,184.229c.055-.063.149-.073.209-.021.06.053.065.159.01.221-.052.058-.153.063-.211.01-.059-.055-.062-.148-.008-.211Z" fill="#fff"/>
              <path d="M73.764,189.279c.07.06.085.144.035.206-.047.059-.141.067-.201.017-.061-.05-.072-.208-.019-.265.042-.045.095-.033.185.042Z" fill="#fff"/>
              <path d="M72.601,189.217c.057-.059.152-.061.21,0,.06.064.062.134.006.202-.054.065-.147.067-.209.008-.062-.058-.065-.15-.007-.21Z" fill="#fff"/>
              <path d="M74.941,188.702c-.056.056-.155.055-.213-.002-.059-.058-.06-.142-.002-.2.058-.058.154-.059.212-.001.055.054.056.15.004.203Z" fill="#fff"/>
              <path d="M74.224,186.708c.057.052.063.145.013.203-.052.06-.151.063-.21.006-.056-.054-.059-.146-.006-.202.052-.055.146-.058.203-.006Z" fill="#fff"/>
              <path d="M72.993,188.155c-.044-.052-.051-.114,0-.175.048-.056.142-.06.191-.008.054.057.055.122.006.182-.045.056-.139.057-.198,0Z" fill="#fff"/>
              <path d="M73.961,185.058c.006-.056-.005-.123.021-.167.039-.066.112-.058.167-.011.057.049.066.123.012.169-.038.033-.107.029-.163.042l-.038-.034Z" fill="#fff"/>
              <path d="M72.269,186.312c-.001.087.01.143-.009.185-.008.017-.095.019-.125-.002-.053-.037-.055-.101,0-.145.024-.02.064-.02.135-.038Z" fill="#fff"/>
              <path d="M72.929,185.096c.073.011.128.003.148.026.022.024.01.078.013.119-.041.002-.093.019-.119,0-.025-.018-.024-.074-.042-.145Z" fill="#fff"/>
              <path d="M73.93,185.873c-.068-.009-.118-.002-.137-.023-.02-.022-.011-.072-.015-.109.04-.003.089-.02.118-.003.022.012.019.068.034.135Z" fill="#fff"/>
              <path d="M75.926,186.958c-.072-.01-.125-.003-.142-.025-.019-.024-.018-.081-.002-.109.01-.017.078-.021.099-.004.024.019.024.068.044.137Z" fill="#fff"/>
              <path d="M74.231,187.246c-.012.069-.006.119-.028.137-.023.019-.072.007-.109.008-.001-.038-.017-.086,0-.11.016-.022.068-.019.136-.035Z" fill="#fff"/>
              <path d="M73.884,187.86c-.007.062.002.108-.017.125-.02.018-.078.022-.096.006-.018-.016-.023-.074-.008-.096.014-.021.061-.02.121-.036Z" fill="#fff"/>
              <path d="M73.493,184.495c-.008.062-.001.106-.02.126-.016.017-.079.022-.09.008-.019-.024-.028-.075-.014-.1.012-.02.062-.019.123-.034Z" fill="#fff"/>
              <path d="M74.05,184.669c.009-.063.003-.11.022-.126.021-.018.067-.009.102-.012.001.035.016.079,0,.102-.015.021-.062.02-.124.036Z" fill="#fff"/>
              <path d="M71.722,188.5c-.006.05,0,.096-.017.107-.024.016-.065.006-.099.007.001-.034-.009-.076.007-.1.011-.016.058-.009.109-.013Z" fill="#fff"/>
              <path d="M70.346,187.767c.053.011.1.007.111.026.015.024.001.066,0,.1-.032-.003-.074.004-.092-.013-.018-.017-.012-.06-.019-.113Z" fill="#fff"/>
              <path d="M73.5,185.754c-.049-.004-.091.004-.102-.011-.017-.022-.012-.06-.017-.092.031,0,.069-.01.092.004.017.01.015.051.027.099Z" fill="#fff"/>
              <path d="M72.846,186.142c-.048-.005-.082,0-.102-.013-.013-.009-.013-.064-.003-.07.022-.013.059-.016.082-.006.014.006.013.046.023.09Z" fill="#fff"/>
            </g>
          </g>
          <g>
            <g>
              <path d="M112.957,180.582c.15-.162.374-.106.459.002.101.129.092.313-.027.418-.125.111-.315.101-.428-.025-.018-.02-.033-.043-.051-.064-.149-.175-.146-.197.046-.331Z" fill="#fff"/>
              <path d="M114.203,185.159c-.09-.119-.068-.286.05-.38.124-.098.296-.075.387.051.086.119.06.291-.058.38-.117.089-.291.065-.379-.052Z" fill="#fff"/>
              <path d="M115.881,182.356c-.075-.1-.053-.207.059-.295.108-.085.26-.068.339.039.077.103.054.248-.052.326-.111.082-.255.053-.346-.069Z" fill="#fff"/>
              <path d="M116.358,180.735c.075.105.053.242-.05.314-.102.071-.241.046-.314-.057-.079-.111-.061-.257.041-.328.103-.072.243-.041.323.071Z" fill="#fff"/>
              <path d="M113.495,182.383c-.075-.099-.056-.243.041-.318.099-.076.241-.056.316.044.076.102.058.24-.042.317-.101.078-.239.059-.316-.043Z" fill="#fff"/>
              <path d="M114.154,178.833c-.068-.097-.04-.234.06-.301.096-.063.224-.04.293.052.072.098.05.231-.051.302-.099.07-.233.046-.303-.053Z" fill="#fff"/>
              <path d="M115.666,185.451c-.096.067-.221.045-.291-.05-.072-.099-.049-.232.052-.301.096-.066.224-.044.292.05.072.099.049.231-.053.301Z" fill="#fff"/>
              <path d="M115.31,179.445c.063.091.045.21-.041.266-.089.058-.221.034-.281-.052-.062-.088-.042-.202.046-.265.092-.065.21-.043.276.051Z" fill="#fff"/>
              <path d="M113.15,185.272c-.018-.026-.04-.05-.055-.077-.046-.085-.031-.161.053-.21.085-.05.158-.02.209.06.026.042.039.092.064.134.046.078.046.15-.033.201-.081.053-.146.018-.196-.055-.013-.019-.026-.037-.04-.055l-.003.002Z" fill="#fff"/>
              <path d="M117.466,182.381c.065.085.052.207-.029.268-.082.062-.217.04-.281-.046-.06-.08-.039-.209.043-.267.084-.059.202-.039.267.045Z" fill="#fff"/>
              <path d="M110.76,182.762c-.093.073-.203.068-.269-.01-.062-.074-.046-.195.032-.257.079-.063.28-.035.338.047.046.065.016.129-.102.221Z" fill="#fff"/>
              <path d="M111.146,181.317c.06.087.036.208-.056.264-.096.059-.185.042-.255-.046-.067-.085-.045-.202.045-.265.089-.062.205-.041.266.047Z" fill="#fff"/>
              <path d="M111.174,184.392c-.056-.085-.028-.209.059-.267.089-.059.195-.038.252.05.058.089.033.209-.054.266-.083.054-.204.031-.256-.049Z" fill="#fff"/>
              <path d="M113.868,184.02c-.08.058-.199.041-.258-.037-.062-.082-.039-.206.049-.265.083-.056.2-.035.255.046.055.08.034.198-.046.256Z" fill="#fff"/>
              <path d="M112.376,182.091c.077-.042.157-.034.219.047.057.074.038.194-.04.242-.086.053-.168.037-.231-.04-.058-.072-.035-.189.051-.249Z" fill="#fff"/>
              <path d="M116.01,184.126c.069.022.156.026.204.071.072.067.043.156-.031.213-.076.059-.172.05-.216-.03-.031-.056-.009-.143-.01-.216l.052-.039Z" fill="#fff"/>
              <path d="M114.883,181.668c-.109-.025-.182-.025-.23-.061-.019-.014,0-.124.035-.156.061-.057.141-.043.182.038.018.036.008.086.013.179Z" fill="#fff"/>
              <path d="M116.236,182.82c-.033.089-.038.16-.072.179-.036.021-.101-.008-.153-.015.009-.052,0-.122.031-.15.029-.027.099-.01.194-.015Z" fill="#fff"/>
              <path d="M114.995,183.872c.03-.082.034-.148.065-.167.033-.02.093.005.141.01-.007.051.001.116-.027.149-.021.024-.091.006-.179.007Z" fill="#fff"/>
              <path d="M113.103,186.092c.032-.088.037-.156.068-.171.035-.018.106-.001.137.027.018.017.005.104-.021.125-.031.025-.091.012-.184.019Z" fill="#fff"/>
              <path d="M113.19,183.886c-.083-.033-.148-.039-.165-.071-.018-.034.01-.092.019-.139.048.009.112.002.139.03.024.026.006.09.007.18Z" fill="#fff"/>
              <path d="M112.511,183.287c-.076-.025-.137-.027-.153-.055-.017-.03-.007-.103.018-.122.025-.019.098-.009.123.016.023.023.009.082.013.161Z" fill="#fff"/>
              <path d="M116.842,183.687c-.076-.027-.132-.03-.153-.059-.018-.025-.007-.105.014-.115.035-.017.102-.015.129.009.023.02.007.083.01.164Z" fill="#fff"/>
              <path d="M116.475,184.342c.076.028.137.032.153.061.017.032-.006.086-.012.131-.044-.008-.103,0-.128-.027-.023-.024-.009-.083-.013-.165Z" fill="#fff"/>
              <path d="M112.279,180.403c-.061-.021-.121-.026-.13-.05-.013-.035.01-.084.018-.127.043.01.097.009.124.036.018.018-.005.075-.012.14Z" fill="#fff"/>
              <path d="M113.564,178.869c-.027.063-.036.123-.062.132-.035.012-.083-.016-.126-.026.013-.039.014-.094.041-.112.026-.018.078.001.147.006Z" fill="#fff"/>
              <path d="M115.258,183.363c.018-.061.019-.115.041-.126.032-.015.079,0,.119.003-.009.039-.006.089-.029.115-.017.019-.068.006-.131.007Z" fill="#fff"/>
              <path d="M114.944,182.439c.018-.059.02-.103.044-.125.014-.013.084,0,.089.015.01.031.005.079-.014.105-.012.016-.061.004-.118.005Z" fill="#fff"/>
            </g>
            <g>
              <path d="M104.575,184.307c-.148-.089-.141-.268-.072-.35.082-.098.224-.121.323-.047.105.078.127.224.05.33-.012.017-.028.032-.041.049-.109.142-.127.143-.26.018Z" fill="#fff"/>
              <path d="M107.864,182.623c-.076.088-.207.098-.297.023-.095-.079-.105-.214-.023-.304.077-.085.212-.092.299-.017.087.075.097.211.022.298Z" fill="#fff"/>
              <path d="M105.457,181.794c-.064.073-.149.074-.234.002-.082-.069-.093-.187-.025-.265.066-.075.18-.081.257-.013.08.071.081.186.003.275Z" fill="#fff"/>
              <path d="M104.146,181.691c.068-.074.176-.079.247-.013.07.066.074.176.007.249-.072.078-.186.088-.257.021-.071-.067-.07-.179.003-.258Z" fill="#fff"/>
              <path d="M105.862,183.608c-.064.073-.177.082-.249.02-.074-.063-.082-.175-.017-.248.066-.075.174-.083.248-.019.076.065.083.173.018.247Z" fill="#fff"/>
              <path d="M103.05,183.676c-.063.067-.172.068-.239.002-.064-.063-.067-.165-.007-.232.063-.071.168-.075.238-.01.069.064.073.171.008.239Z" fill="#fff"/>
              <path d="M107.851,181.461c.066.063.07.161.008.23-.064.071-.169.075-.238.008-.065-.063-.069-.164-.009-.231.064-.071.168-.074.238-.008Z" fill="#fff"/>
              <path d="M103.33,182.696c.059-.063.153-.068.209-.011.059.059.061.163.005.223-.057.062-.147.065-.209.007-.064-.059-.067-.153-.005-.219Z" fill="#fff"/>
              <path d="M108.119,183.407c-.017.018-.031.038-.05.054-.058.049-.118.049-.169-.007-.051-.057-.041-.118.012-.169.027-.027.064-.044.092-.071.052-.048.107-.059.159-.007.053.053.037.108-.01.158-.012.013-.024.026-.036.039l.002.002Z" fill="#fff"/>
              <path d="M105.222,180.582c.055-.063.149-.073.209-.021.06.053.065.159.01.221-.052.058-.153.063-.211.01-.059-.055-.062-.148-.008-.211Z" fill="#fff"/>
              <path d="M106.59,185.632c.07.06.085.144.035.206-.047.059-.141.067-.201.017-.061-.05-.072-.208-.019-.265.042-.045.095-.033.185.042Z" fill="#fff"/>
              <path d="M105.426,185.569c.057-.059.152-.061.21,0,.06.064.062.134.006.202-.054.065-.147.067-.209.008-.062-.058-.065-.15-.007-.21Z" fill="#fff"/>
              <path d="M107.766,185.055c-.056.056-.155.055-.213-.002-.059-.058-.06-.142-.002-.2.058-.058.154-.059.212-.001.055.054.056.15.004.203Z" fill="#fff"/>
              <path d="M107.049,183.061c.057.052.063.145.013.203-.052.06-.151.063-.21.006-.056-.054-.059-.146-.006-.202.052-.055.146-.058.203-.006Z" fill="#fff"/>
              <path d="M105.818,184.508c-.044-.052-.051-.114,0-.175.048-.056.142-.06.191-.008.054.057.055.122.006.182-.045.056-.139.057-.198,0Z" fill="#fff"/>
              <path d="M106.786,181.411c.006-.056-.005-.123.021-.167.039-.066.112-.058.167-.011.057.049.066.123.012.169-.038.033-.107.029-.163.042l-.038-.034Z" fill="#fff"/>
              <path d="M105.094,182.665c-.001.087.01.143-.009.185-.008.017-.095.019-.125-.002-.053-.037-.055-.101,0-.145.024-.02.064-.02.135-.038Z" fill="#fff"/>
              <path d="M105.754,181.449c.073.011.128.003.148.026.022.024.01.078.013.119-.041.002-.093.019-.119,0-.025-.018-.024-.074-.042-.145Z" fill="#fff"/>
              <path d="M106.755,182.226c-.068-.009-.118-.002-.137-.023-.02-.022-.011-.072-.015-.109.04-.003.089-.02.118-.003.022.012.019.068.034.135Z" fill="#fff"/>
              <path d="M108.751,183.311c-.072-.01-.125-.003-.142-.025-.019-.024-.018-.081-.002-.109.01-.017.078-.021.099-.004.024.019.024.068.044.137Z" fill="#fff"/>
              <path d="M107.056,183.599c-.012.069-.006.119-.028.137-.023.019-.072.007-.109.008-.001-.038-.017-.086,0-.11.016-.022.068-.019.136-.035Z" fill="#fff"/>
              <path d="M106.709,184.213c-.007.062.002.108-.017.125-.02.018-.078.022-.096.006-.018-.016-.023-.074-.008-.096.014-.021.061-.02.121-.036Z" fill="#fff"/>
              <path d="M106.318,180.848c-.008.062-.001.106-.02.126-.016.017-.079.022-.09.008-.019-.024-.028-.075-.014-.1.012-.02.062-.019.123-.034Z" fill="#fff"/>
              <path d="M106.875,181.022c.009-.063.003-.11.022-.126.021-.018.067-.009.102-.012.001.035.016.079,0,.102-.015.021-.062.02-.124.036Z" fill="#fff"/>
              <path d="M104.547,184.853c-.006.05,0,.096-.017.107-.024.016-.065.006-.099.007.001-.034-.009-.076.007-.1.011-.016.058-.009.109-.013Z" fill="#fff"/>
              <path d="M103.171,184.12c.053.011.1.007.111.026.015.024.001.066,0,.1-.032-.003-.074.004-.092-.013-.018-.017-.012-.06-.019-.113Z" fill="#fff"/>
              <path d="M106.325,182.107c-.049-.004-.091.004-.102-.011-.017-.022-.012-.06-.017-.092.031,0,.069-.01.092.004.017.01.015.051.027.099Z" fill="#fff"/>
              <path d="M105.672,182.495c-.048-.005-.082,0-.102-.013-.013-.009-.013-.064-.003-.07.022-.013.059-.016.082-.006.014.006.013.046.023.09Z" fill="#fff"/>
            </g>
          </g>
        </g>
      </g>
    </g>
  </g>
</svg>