<?xml version="1.0" encoding="UTF-8"?><svg xmlns="http://www.w3.org/2000/svg" xmlns:xlink="http://www.w3.org/1999/xlink" viewBox="0 0 300 300"><defs><style>.cls-1{fill:#ffd66e;}.cls-2,.cls-3{fill:#f4af13;}.cls-3,.cls-4{mix-blend-mode:multiply;opacity:.25;}.cls-5{fill:#b1ddea;}.cls-6{fill:#fff;}.cls-7{fill:#e86170;}.cls-8,.cls-9{fill:none;}.cls-10{clip-path:url(#clippath-1);}.cls-11{filter:url(#drop-shadow-1);}.cls-12{isolation:isolate;}.cls-9{stroke:#42496f;stroke-miterlimit:10;stroke-width:.47px;}.cls-13,.cls-4{fill:#6498d1;}.cls-14{fill:#42496f;}.cls-15{fill:#93d1ad;}.cls-16{clip-path:url(#clippath);}.cls-17{opacity:.5;}</style><filter id="drop-shadow-1" x="171.36" y="93.06" width="60.38" height="96.62" filterUnits="userSpaceOnUse"><feOffset dx="-4" dy="0"/><feGaussianBlur result="blur" stdDeviation="0"/><feFlood flood-color="#42496f" flood-opacity="1"/><feComposite in2="blur" operator="in"/><feComposite in="SourceGraphic"/></filter><clipPath id="clippath"><polygon class="cls-8" points="192.26 173.75 193.53 121.82 210.03 120.09 217.37 171.76 192.26 173.75"/></clipPath><clipPath id="clippath-1"><path class="cls-8" d="M226.84,187.39l-3.26-17.4s-19.31,3.72-21.21,3.81-18.85,2.18-18.85,2.18l-.91,12.87s44.5-1.72,44.23-1.45Z"/></clipPath></defs><g class="cls-12"><g id="Calque_15"><g class="cls-11"><polygon class="cls-6" points="192.26 173.75 193.53 121.82 210.03 120.09 217.37 171.76 192.26 173.75"/><g class="cls-16"><polygon class="cls-7" points="220.09 153.58 189.64 156.94 189.64 166.45 220.09 163.1 220.09 153.58"/><polygon class="cls-7" points="218.14 136 187.6 138.35 187.6 147.51 218.14 145.16 218.14 136"/><polygon class="cls-7" points="217.15 117.81 186.96 120.26 186.96 129.41 217.15 126.97 217.15 117.81"/><path class="cls-14" d="M211.77,118.55l.18,3.93s-8.46,7.92-21.93,8.94v-10.76l21.75-2.11Z"/><path class="cls-4" d="M195.06,119.2s9.49,19.16,11.6,50.88c4.83.24,17.16-2.05,17.16-2.05v10.88h-38.19v-58.85l9.43-.85Z"/></g><path class="cls-5" d="M211.69,120.79l-19.91.19-.29-16.02c-.34-5.71,3.77-10.41,9.19-10.49h0c5.42-.08,10.09,4.49,10.43,10.2l.59,16.12Z"/><path class="cls-5" d="M202.52,94.56c0,.78-.65,1.39-1.43,1.34s-1.41-.71-1.41-1.5c0-.78.65-1.39,1.43-1.34s1.41.71,1.41,1.5Z"/><ellipse class="cls-1" cx="196.45" cy="109.92" rx="2.74" ry="6.82" transform="translate(-7.48 14.6) rotate(-4.18)"/><path class="cls-1" d="M206.41,102.92c-6.09.11-4.43,13.71-9.52,13.81l-.87-13.61c5.21-.1,4.4,13.55,11.27,13.42"/><ellipse class="cls-6" cx="206.85" cy="109.72" rx="2.74" ry="6.82" transform="translate(-7.44 15.36) rotate(-4.18)"/><path class="cls-4" d="M208.42,119.99s-6.31-25.43-11.99-22.38c-4.36,2.34-4.18,6.59-4.18,8.44s.28,14.36.28,14.36l15.9-.42Z"/><path class="cls-9" d="M188.37,120.15l-.23-5.76c-.04-.92.65-1.67,1.56-1.71l25.29-1.18c1-.05,1.87.78,1.88,1.79l.04,6.23"/><line class="cls-9" x1="214.47" y1="119.39" x2="214.43" y2="111.28"/><line class="cls-9" x1="212.31" y1="119.47" x2="212.26" y2="111.43"/><line class="cls-9" x1="210.15" y1="119.55" x2="210.08" y2="111.58"/><line class="cls-9" x1="208" y1="119.63" x2="207.91" y2="111.72"/><line class="cls-9" x1="205.84" y1="119.71" x2="205.73" y2="111.87"/><line class="cls-9" x1="203.68" y1="119.79" x2="203.56" y2="112.01"/><line class="cls-9" x1="201.53" y1="119.87" x2="201.38" y2="112.16"/><line class="cls-9" x1="199.37" y1="119.95" x2="199.2" y2="112.3"/><line class="cls-9" x1="197.21" y1="120.03" x2="197.03" y2="112.45"/><line class="cls-9" x1="195.05" y1="120.11" x2="194.85" y2="112.6"/><line class="cls-9" x1="192.9" y1="120.2" x2="192.68" y2="112.74"/><line class="cls-9" x1="190.74" y1="120.28" x2="190.5" y2="112.89"/><polygon class="cls-6" points="187.65 119.49 187.74 122.16 217.7 121.6 217.73 118.75 187.65 119.49"/><path class="cls-2" d="M231.74,186.12s-2.27-10.06-4.35-10.33-4.89,4.35-4.89,4.35l2.54,8.52,6.71-2.54Z"/><path class="cls-3" d="M229.32,185.49s-.97-9.61-3.02-8.58c-2.05,1.03-3.5,3.99-3.5,3.99l2.54,6.04,3.99-1.45Z"/><path class="cls-1" d="M226.84,187.39l-3.26-17.4s-19.31,3.72-21.21,3.81-18.85,2.18-18.85,2.18l-.91,12.87s44.5-1.72,44.23-1.45Z"/><g class="cls-10"><path class="cls-3" d="M179.43,189.67c2.71-.49,6.75-.32,6.75-.32,0,0,.24-8.46,1.37-9.77,1.59-.39,5.95-.88,5.95-.88l-3.09,2.29c2.47-.64,5.8-1.8,6.84-2.45s4.39-.39,4.39-.39c-.99,1.08-1.01,3.03-1.01,3.03,0,0,4.47-2.97,5.29-4.27-.29,1.3.35,3.67.35,3.67,0,0,1.27-1.46,1.51-2.27l.09,1.58s1.87-2.42,2.09-3.62c0,0,1.91,2.72,3.98,3.23,0,0-1.03-1.72-.88-3.15,0,0,1.91,1.07,4.33,1.26,0,0-1.57-1.98-1.66-2.93,4.32-2.17,10.34.34,13.26-2.11l-.58-9.72-49.4,2.94s.42,24.16.4,23.88Z"/></g><path class="cls-2" d="M175.36,188.12s7.7-5.08,9.79-4.89,4.71,4.53,4.71,4.53l-14.5.36Z"/><path class="cls-15" d="M204.28,172.21s-9.87.1-12.64.53-9.81,1.91-11.72,2.5c.92.66,2.96.79,2.96.79,0,0-1.78,1.84-2.76,2.11,4.38-.53,5.43-1.61,7.04-1.91s5.99-.53,5.99-.53l-3.23,2.11c2.5-.49,5.89-1.45,6.98-2.04,1.09-.59,4.41-.13,4.41-.13-1.05,1.02-1.18,2.96-1.18,2.96,0,0,4.64-2.7,5.53-3.95-.36,1.28.13,3.69.13,3.69,0,0,1.35-1.38,1.65-2.17v1.58s2.01-2.3,2.3-3.49c0,0,1.74,2.83,3.79,3.46,0,0-.92-1.78-.69-3.19,0,0,1.84,1.18,4.25,1.51,0,0-1.45-2.07-1.48-3.03,4.44-1.91,10.3.95,13.36-1.32-2.4-.16-4.71-1.35-4.71-1.35,0,0,1.94.26,2.93-1.15-1.81-.26-3.55-.46-6.19.1s-11.32,2.63-15.4,3c-.49-1.25-2.5-1.68-2.5-1.68l1.18,1.61Z"/></g><path class="cls-13" d="M172.72,187.22s9.87,2.14,18.32-4.88c0,0,1.93,7.22,12.62,1.63,0,0,7.02,4.07,15.26-.61,0,0,6.11,4.07,11.19-.81,0,0,4.68,2.44,9.56,2.44v8.95h-67.57l.61-6.72Z"/><g class="cls-17"><path class="cls-6" d="M230.11,182.53c-1.56,1.5-3.22,2.15-4.77,2.34.66.19,1.36.32,2.1.32,1.28,0,2.46-.33,3.48-.86.72.18,1.49.3,2.29.3.7,0,1.37-.1,2-.23-2.93-.72-5.11-1.86-5.11-1.86Z"/><path class="cls-6" d="M209.85,185.57c-3.72-.19-6.2-1.61-6.2-1.61-1.2.63-2.28,1.08-3.27,1.41.96-.01,1.86-.13,2.68-.33,1.08.62,2.46,1,3.98,1,1.02,0,1.96-.18,2.81-.47Z"/><path class="cls-6" d="M182.67,187.27c2.74,0,5.22-.61,7.07-1.59,1.04.51,2.21.83,3.48.83.95,0,1.85-.17,2.68-.47-3.96-.36-4.87-3.72-4.87-3.72-3.53,2.93-7.3,4.26-10.5,4.82.69.08,1.4.13,2.13.13Z"/></g></g></g></svg>