<?xml version="1.0" encoding="UTF-8"?><svg xmlns="http://www.w3.org/2000/svg" xmlns:xlink="http://www.w3.org/1999/xlink" viewBox="0 0 300 300"><defs><style>.cls-1{filter:url(#drop-shadow-2);}.cls-1,.cls-2{fill:#ffd66e;}.cls-3{fill:#fff;}.cls-4{fill:none;}.cls-5{clip-path:url(#clippath-1);}.cls-6{filter:url(#drop-shadow-1);}.cls-7{isolation:isolate;}.cls-8{clip-path:url(#clippath-3);}.cls-9{fill:#f4af13;mix-blend-mode:multiply;opacity:.5;}.cls-10{filter:url(#drop-shadow-3);}.cls-11{clip-path:url(#clippath-2);}.cls-12{fill:#93d1ad;}.cls-13{clip-path:url(#clippath);}</style><clipPath id="clippath"><path class="cls-4" d="M291.65,46.19h-112.77v135.2h10.63c.51,1.18,2.3,2.06,4.46,2.06,1.07,0,2.05-.23,2.83-.59.96.36,2.07.59,3.26.59,1.56,0,2.97-.37,4.09-.96,1.16.6,2.54.96,4.03.96,1.23,0,2.37-.26,3.38-.68,1.56.43,3.46.68,5.51.68,1.94,0,3.74-.23,5.25-.61.79.38,1.78.61,2.88.61s2.05-.23,2.83-.59c.96.36,2.07.59,3.26.59,1.56,0,2.97-.37,4.09-.96,1.16.6,2.54.96,4.03.96,1.23,0,2.37-.26,3.38-.68,1.56.43,3.46.68,5.51.68,1.46,0,2.84-.13,4.08-.36,1.24.23,2.62.36,4.08.36,2.05,0,3.95-.25,5.51-.68,1.02.42,2.16.68,3.38.68,1.49,0,2.87-.36,4.03-.96,1.12.59,2.53.96,4.09.96,1.2,0,2.3-.22,3.26-.59.78.36,1.76.59,2.83.59,2.16,0,3.95-.88,4.46-2.06h7.61V46.19Z"/></clipPath><filter id="drop-shadow-1" x="187.39" y="88.22" width="102.82" height="106.73" filterUnits="userSpaceOnUse"><feOffset dx="-4" dy="0"/><feGaussianBlur result="blur" stdDeviation="0"/><feFlood flood-color="#42496f" flood-opacity="1"/><feComposite in2="blur" operator="in"/><feComposite in="SourceGraphic"/></filter><clipPath id="clippath-1"><path class="cls-4" d="M277.59,95.64c-24.49-.4-48.98-.06-73.45,1.01l-.63.54c-1.5,7.22-2.7,25.59-2.7,25.59,0,0-.04,2.21-.06,3.32-.09,5.23-.19,10.46-.16,15.69.01,2.7-.95,7.99-.95,7.99,0,0-2.65,6.43-2.98,7.97-1.99,9.11-3.75,18.28-5.27,27.48,29.01-.2,58.01,1.44,86.86-1.53.87-28.28,1.73-59.87-.66-88.07Z"/></clipPath><filter id="drop-shadow-2" x="177.98" y="163.11" width="17.06" height="27.43" filterUnits="userSpaceOnUse"><feOffset dx="-4" dy="0"/><feGaussianBlur result="blur-2" stdDeviation="0"/><feFlood flood-color="#42496f" flood-opacity="1"/><feComposite in2="blur-2" operator="in"/><feComposite in="SourceGraphic"/></filter><clipPath id="clippath-2"><path class="cls-4" d="M319.52,70.92h-96.51v115.71h9.1c.43,1.01,1.97,1.77,3.82,1.77.92,0,1.75-.19,2.42-.5.82.31,1.77.5,2.79.5,1.33,0,2.54-.32,3.5-.82.99.52,2.18.82,3.45.82,1.05,0,2.03-.22,2.9-.58,1.34.37,2.96.58,4.72.58,1.66,0,3.2-.19,4.49-.52.68.32,1.53.52,2.46.52s1.75-.19,2.42-.5c.82.31,1.77.5,2.79.5,1.33,0,2.54-.32,3.5-.82.99.52,2.18.82,3.45.82,1.05,0,2.03-.22,2.9-.58,1.34.37,2.96.58,4.72.58,1.25,0,2.43-.11,3.49-.31,1.06.19,2.24.31,3.49.31,1.76,0,3.38-.22,4.72-.58.87.36,1.85.58,2.9.58,1.28,0,2.46-.31,3.45-.82.96.51,2.16.82,3.5.82,1.02,0,1.97-.19,2.79-.5.67.31,1.5.5,2.42.5,1.85,0,3.38-.75,3.82-1.77h6.52v-115.71Z"/></clipPath><filter id="drop-shadow-3" x="249.24" y="104.58" width="43.47" height="86.36" filterUnits="userSpaceOnUse"><feOffset dx="-4" dy="0"/><feGaussianBlur result="blur-3" stdDeviation="0"/><feFlood flood-color="#42496f" flood-opacity="1"/><feComposite in2="blur-3" operator="in"/><feComposite in="SourceGraphic"/></filter><clipPath id="clippath-3"><path class="cls-4" d="M284.9,110.54c-1.73.1-3.45.36-5.13.79l-20.29.39c-.18,10.15-.37,20.3-.55,30.45-.02,1.06-.04,2.14-.26,3.18-.34,1.66-1.17,3.18-1.68,4.79-.72,2.31-.77,4.77-.85,7.19-.32,10.31-1.36,22.19-2.8,32.41,11.67-.82,23.5,1.87,35.17,1.04.49-8.62.53-22.36.44-30.99-1.35-16.42-2.71-32.83-4.06-49.25Z"/></clipPath></defs><g class="cls-7"><g id="Calque_25"><g class="cls-13"><g class="cls-6"><path class="cls-2" d="M277.59,95.64c-24.49-.4-48.98-.06-73.45,1.01l-.63.54c-1.5,7.22-2.7,25.59-2.7,25.59,0,0-.04,2.21-.06,3.32-.09,5.23-.19,10.46-.16,15.69.01,2.7-.95,7.99-.95,7.99,0,0-2.65,6.43-2.98,7.97-1.99,9.11-3.75,18.28-5.27,27.48,29.01-.2,58.01,1.44,86.86-1.53.87-28.28,1.73-59.87-.66-88.07Z"/><g class="cls-5"><path class="cls-9" d="M283.52,136.56c-.37-1.6-.79-3.2-.94-4.84-.18-1.85-.01-3.71.11-5.56.72-10.95-.02-21.99-2.18-32.74-2.6.97-4.83-1.96-7.29-3.23-1.74-.9-3.78-.96-5.74-1.01-11.21-.26-22.42-.51-33.62-.77-10.62-.24-21.31-.48-31.82,1.06l-3.45,12.58,3.63-1.77-3.58,7.1c2.28-1.51,4.55-3.02,6.83-4.52-.47,1.19-.95,2.39-1.42,3.58,1.05-.74,2.1-1.49,3.15-2.23-.09.84-.17,1.68-.26,2.52,5.39-3.31,12.27-4.08,18.27-2.04-.36.74-.72,1.47-1.08,2.21,1.58-.93,3.15-1.86,4.73-2.79-.12,1.59,1.64,2.75,3.24,2.82,1.6.08,3.15-.53,4.74-.65,5.11-.39,9.77,4.19,14.83,3.35-.32,13.53-2.44,25.66-3.23,36.61-3.57,1.53-6.62,3.12-8.58,7.27-2.87,13.09-5.41,27.58-7.52,41.46,15.62-.79,31.24-1.59,46.86-2.38.88-.04,1.86-.13,2.46-.77.48-.51.6-1.25.71-1.95,2.59-17.69,5.16-35.86,1.19-53.29Z"/></g><path class="cls-12" d="M280.35,97.44c3.65.39,6.23,1.16,9.86,2.22-3.2-2.94-7.37-4.21-11.76-4.78.89-.53,1.29-1.37,1.72-2.23-1.24.86-2.61,1.54-4.04,2-.4-.03-.79-.06-1.19-.08.42-.67.8-1.37,1.09-2.1-1.31.92-2.8,1.56-4.36,1.93-.3-.26-.63-.48-.99-.65,0,0,0,0,0,0,.65-.73.91-1.56,1.07-2.69-.96,1.24-2.53,1.85-4.06,2.21-.88.2-1.78.35-2.66.53-.32,0-.63,0-.95,0,.24-.24.41-.54.48-.87-.55.29-1.11.59-1.66.88-.1,0-.2,0-.3,0l.15-.26c-.15.09-.3.18-.45.27-16.86.14-33.72.28-50.58.41-.52,0-1.04.01-1.57.02-1.63-.36-3.19-1.03-4.56-1.98.29.74.67,1.43,1.09,2.1-.4.02-.8.05-1.19.08-1.44-.46-2.8-1.14-4.04-2,.42.86.83,1.71,1.72,2.23h-.01c-4.38.57-8.55,1.84-11.75,4.78,3.63-1.06,6.22-1.83,9.86-2.22-1.79,1.4-3.18,3.29-4,5.4,4.02-1.69,8.04-3.38,12.05-5.07-1.32.6-2.25,1.98-2.3,3.43,2.19-.88,4.38-1.77,6.56-2.65.48.95,1.86.98,2.95.84,1.82-.24,3.64-.47,5.45-.71.89-.12,1.86-.22,2.64.24.78.46,1.11,1.72.38,2.25,3.24-1.27,6.49-2.55,9.73-3.82-1.55,1.82-1.98,4.03-1.98,5.47,2.46-1.49,4.93-2.98,7.39-4.48.42,1.83,1.71,3.44,3.41,4.24,1.33-1.54,3-2.78,4.86-3.61-.27.84-.29,1.75-.06,2.6,1.49-.89,2.99-1.79,4.48-2.68.58,1.45,1.16,2.91,1.75,4.36,1.87-2.84,5.34-4.3,8.74-4.57.29-.02.59-.03.88-.04l.9.95c1.04.13,2.34.1,2.87-.73.17.02.34.04.51.07,2.04.83,4.08,1.65,6.13,2.48-.03-.93-.42-1.82-1.04-2.51,0-.13,0-.26,0-.4,3.6,1.51,7.2,3.03,10.79,4.54-.82-2.12-2.22-4-4-5.4Z"/></g></g><path class="cls-1" d="M190.67,165.7c-.36-1.15-.99-2.51-2.2-2.59-1.5-.1-2.22,1.78-2.47,3.26-1.18,6.96-2.35,13.92-3.53,20.89-.17.99-.33,1.97-.5,2.96l13.06.33c-.39-8.42-1.86-16.79-4.37-24.84Z"/><path class="cls-3" d="M175.11,191.33s9.42-6.89,11.08-12.51c0,0-1.74,9.5-1.27,10.61.47,1.11,8.23-3.32,8.23-3.32,0,0,3.14,4.47,6.36,4.29-7.71,2.36-8.1.14-8.1.14,0,0-5.86,2.22-9.02,1.74s-1.42-2.37-1.42-2.37c0,0-2.14,1.5-5.86,1.42Z"/><path class="cls-3" d="M186.12,178.09c.18-.47.7-.55.97-.39.32.18.46.58.3.9-.17.34-.58.48-.92.32-.06-.03-.11-.06-.16-.09-.47-.24-.48-.29-.19-.74Z"/><path class="cls-3" d="M192.68,186.65c-.29-.17-.39-.54-.22-.84.18-.31.56-.41.86-.23.28.18.38.56.21.85-.17.29-.56.39-.84.22Z"/><path class="cls-3" d="M193.8,179.3c-.24-.15-.29-.39-.13-.67.15-.27.49-.37.75-.21.25.15.33.48.17.73-.16.27-.49.33-.79.15Z"/><path class="cls-3" d="M193.41,175.48c.25.16.32.46.17.7-.15.24-.47.3-.71.15-.26-.17-.35-.49-.2-.73.15-.24.48-.3.74-.13Z"/><path class="cls-3" d="M188.8,181.42c-.24-.15-.33-.46-.19-.71.14-.25.46-.33.7-.18.25.15.33.46.18.7-.15.25-.45.33-.7.18Z"/><path class="cls-3" d="M187.13,173.37c-.23-.15-.29-.46-.13-.69.15-.22.44-.28.66-.14.24.14.3.44.15.68-.15.23-.45.3-.68.15Z"/><path class="cls-3" d="M196.01,186c-.15.22-.43.29-.66.14-.24-.15-.3-.45-.15-.68.15-.22.43-.28.66-.15.24.15.3.44.15.68Z"/><path class="cls-3" d="M190.09,173.66c.21.14.28.4.14.6-.14.2-.44.26-.64.13-.21-.13-.26-.39-.13-.6.14-.22.41-.27.63-.13Z"/><path class="cls-3" d="M190.56,187.8c-.06-.04-.13-.07-.18-.12-.17-.14-.2-.31-.07-.49.14-.18.32-.18.49-.05.09.06.16.16.25.23.16.12.23.28.1.45-.12.18-.29.16-.46.05-.04-.03-.09-.05-.13-.08h0Z"/><path class="cls-3" d="M197.16,177.99c.21.12.29.39.17.59-.12.2-.42.27-.63.15-.2-.12-.26-.41-.14-.6.13-.2.39-.26.6-.13Z"/><path class="cls-3" d="M183.37,184.57c-.13.23-.37.32-.57.21-.19-.1-.27-.37-.15-.57.11-.2.56-.31.75-.19.15.1.15.26-.02.55Z"/><path class="cls-3" d="M182.94,181.2c.2.13.26.41.11.6-.15.21-.35.25-.58.12-.21-.12-.27-.39-.13-.6.13-.21.4-.26.6-.13Z"/><path class="cls-3" d="M185.64,187.65c-.19-.13-.24-.42-.11-.61.14-.2.38-.25.57-.11.2.14.25.41.12.61-.13.19-.4.24-.58.12Z"/><path class="cls-3" d="M190.99,184.54c-.12.19-.38.26-.57.15-.2-.12-.26-.4-.13-.6.13-.19.39-.25.58-.12.19.12.24.39.12.58Z"/><path class="cls-3" d="M186.19,181.76c.13-.15.3-.21.5-.09.18.11.25.38.12.54-.14.18-.32.22-.52.11-.18-.1-.24-.37-.11-.57Z"/><path class="cls-3" d="M195.6,182.92c.17-.01.35-.08.49-.03.21.08.23.29.12.48-.11.19-.32.25-.48.12-.11-.09-.14-.29-.21-.45l.08-.13Z"/><path class="cls-3" d="M191.11,178.71c-.25.04-.41.1-.54.07-.05-.01-.11-.26-.06-.36.08-.17.26-.21.42-.08.07.06.09.17.18.37Z"/><path class="cls-3" d="M194.95,179.97c0,.22.06.37,0,.44-.06.07-.22.07-.33.1-.03-.12-.1-.26-.06-.34.04-.08.2-.11.39-.2Z"/><path class="cls-3" d="M193.24,183.26c0-.2-.06-.34,0-.41.05-.07.2-.07.31-.1.03.11.1.24.07.34-.02.07-.19.09-.37.17Z"/><path class="cls-3" d="M191.17,189.56c0-.21-.06-.36,0-.42.06-.07.22-.09.31-.06.05.02.1.21.06.28-.04.08-.18.1-.37.2Z"/><path class="cls-3" d="M189.45,184.84c-.2,0-.35.05-.41,0-.07-.06-.06-.2-.08-.31.11-.02.24-.09.32-.06.07.03.09.18.17.37Z"/><path class="cls-3" d="M187.51,184.17c-.18.01-.31.06-.37.02-.06-.05-.1-.21-.07-.27.04-.06.2-.1.27-.07.07.03.09.17.17.33Z"/><path class="cls-3" d="M196.97,181.28c-.18,0-.3.05-.37,0-.06-.04-.1-.21-.07-.25.06-.07.2-.12.28-.09.06.02.09.17.16.34Z"/><path class="cls-3" d="M196.76,182.97c.19,0,.32-.05.37,0,.06.05.06.19.09.29-.1.02-.22.09-.29.05-.07-.03-.09-.17-.17-.34Z"/><path class="cls-3" d="M184.53,178.29c-.15,0-.28.05-.32,0-.06-.06-.05-.18-.07-.28.1-.01.21-.06.29-.03.05.02.06.16.1.31Z"/><path class="cls-3" d="M185.92,173.96c0,.16.03.29-.02.33-.06.06-.19.04-.29.05,0-.09-.05-.21-.01-.27.04-.06.17-.07.31-.11Z"/><path class="cls-3" d="M193.36,181.96c-.01-.14-.06-.26-.02-.3.05-.06.17-.07.25-.1.02.09.06.19.04.27-.02.05-.14.07-.27.13Z"/><path class="cls-3" d="M191.9,180.29c-.01-.14-.05-.23-.02-.3.02-.04.18-.07.2-.04.05.06.08.16.06.23-.01.04-.13.06-.25.11Z"/><g class="cls-11"><g class="cls-10"><path class="cls-2" d="M284.9,110.54c-1.73.1-3.45.36-5.13.79l-20.29.39c-.18,10.15-.37,20.3-.55,30.45-.02,1.06-.04,2.14-.26,3.18-.34,1.66-1.17,3.18-1.68,4.79-.72,2.31-.77,4.77-.85,7.19-.32,10.31-1.36,22.19-2.8,32.41,11.67-.82,23.5,1.87,35.17,1.04.49-8.62.53-22.36.44-30.99-1.35-16.42-2.71-32.83-4.06-49.25Z"/><g class="cls-8"><path class="cls-9" d="M260.33,108.73c-2,3.07-3.41,6.52-4.14,10.1,1.95-1.09,3.89-2.18,5.84-3.27-1.17,2.19-1.89,4.63-2.1,7.1,1.15-1.15,2.33-2.26,3.54-3.35.04.69.08,1.38.12,2.07.85-.76,1.7-1.53,2.54-2.29.46,1.06,1.98.93,3.11.68,4.29-.93,8.78-.9,13.05.08,2.58.59,5.15,1.53,7.79,1.29-.79-3.91-2.02-7.74-3.64-11.39-.37-.83-.77-1.66-1.42-2.29-.9-.87-2.15-1.24-3.37-1.52-6.38-1.48-13.01-1.43-19.57-1.36-.96,0-1.96.03-2.84.43-2.04.93-2.67,3.47-3.05,5.68"/><path class="cls-9" d="M257.45,148.23c.82.19,1.53.69,2.15,1.26,3.21,2.94,4.34,7.45,5.32,11.69-.08-4.63-.57-9.26-1.46-13.81-.2-1.02-.44-2.08-1.13-2.85-.59-.66-1.43-1.03-2.27-1.33-1.16-.41-2.36-.73-3.57-.93-.11-.02-1.27,5.59-1.31,6.07.67-.05,1.58-.26,2.27-.1Z"/><path class="cls-9" d="M283.99,157.12c-1.62-.46-3.26-.86-4.91-1.19-1.05,4.16-2.1,8.32-3.15,12.48.2-5.03,2.78-15.88,2.78-15.88,0,0,4.65-.04,5.72.92,1.2,1.08,2.09,19.96,2.09,19.96,0,0-1.1-10.88-2.53-16.28Z"/></g><path class="cls-12" d="M292.71,110.56c-2.09-.24-4.14-.72-6.12-1.42.45-.02.87-.29,1.07-.69-2.69-.03-5.39.13-8.06.44-4.06.83-8.28.58-12.44.55-2.03-1.15-4.11-2.2-6.24-3.16.1,1.18.48,2.33,1.08,3.36-.43.04-.86.1-1.28.16-.71-.46-1.4-.95-2.06-1.48.24.62.64,1.18,1.13,1.63-2.33.42-4.57,1.17-6.55,2.46,2.08-.39,4.17-.77,6.25-1.16-1.84.89-3.36,2.43-4.22,4.29,2-.54,3.89-1.47,5.55-2.7-1.02,1.3-1.81,2.78-2.32,4.35,2.24-1.69,4.62-3.19,7.11-4.47-.3.88-.61,1.77-.91,2.65,2.59-1.29,5.47-2.02,8.36-2.12-.31.34-.12.93.26,1.18s.87.28,1.32.29c3.65.07,7.3-.03,10.95-.12,2.2-.06,4.39-.11,6.59-.17-1.67-.92-3.33-1.85-5-2.77,1.89.3,3.89-.1,5.52-1.1Z"/></g></g><path class="cls-3" d="M246.31,189.99s10-9.23,11.42-18.78c0,0-1.81,14.33-.66,15.6s3.95-5.71,3.95-5.71c0,0-1.65,6.92.77,6.04s4.28-1.65,4.28-1.65c0,0,1.65,3.24,8.68,3.41-7.14,1.37-10-.99-10-.99,0,0-1.98,3.08-4.83,2.86s-1.76-1.98-1.76-1.98c0,0-5,4.01-6.59-1.1,0,0-2.14,2.2-5.27,2.31Z"/><path class="cls-3" d="M256.47,177.24c.35-.33.82-.18.99.06.2.29.16.69-.11.9-.28.22-.69.18-.92-.11-.04-.05-.07-.1-.1-.14-.3-.4-.29-.44.14-.71Z"/><path class="cls-3" d="M258.58,187.28c-.18-.27-.11-.63.16-.81.28-.2.65-.13.83.16.17.27.09.64-.17.81-.26.18-.64.1-.81-.16Z"/><path class="cls-3" d="M262.56,181.44c-.15-.23-.09-.45.16-.63.24-.17.57-.11.73.13.15.23.08.54-.15.7-.25.16-.56.08-.74-.19Z"/><path class="cls-3" d="M263.79,178c.15.24.08.53-.15.67-.23.14-.53.07-.67-.16-.16-.25-.1-.56.13-.7.23-.14.53-.06.69.19Z"/><path class="cls-3" d="M257.4,181.2c-.15-.22-.09-.53.13-.68.22-.15.53-.09.68.14.15.23.09.53-.13.68-.23.16-.52.1-.68-.13Z"/><path class="cls-3" d="M259.27,173.62c-.13-.22-.06-.51.17-.64.21-.12.49-.06.63.15.14.22.08.5-.15.65-.22.14-.51.07-.65-.15Z"/><path class="cls-3" d="M261.71,188.1c-.22.13-.48.07-.62-.15-.14-.22-.08-.51.15-.64.22-.13.49-.07.62.14.14.22.08.5-.15.64Z"/><path class="cls-3" d="M261.69,175.08c.13.2.07.46-.12.57-.2.11-.48.05-.6-.15-.12-.2-.07-.44.13-.57.21-.13.46-.07.59.15Z"/><path class="cls-3" d="M256.3,187.39c-.04-.06-.08-.11-.11-.17-.09-.19-.05-.35.14-.45.19-.1.34-.02.44.16.05.09.07.2.12.3.09.17.08.33-.1.43-.18.1-.32.02-.42-.14-.03-.04-.05-.08-.08-.12h0Z"/><path class="cls-3" d="M265.98,181.69c.13.19.09.45-.1.57-.18.12-.47.06-.6-.13-.12-.18-.06-.46.13-.57.19-.12.44-.06.57.13Z"/><path class="cls-3" d="M251.45,181.68c-.21.15-.45.12-.58-.06-.12-.17-.08-.43.1-.55.18-.13.61-.04.72.14.09.15.02.28-.25.46Z"/><path class="cls-3" d="M252.46,178.6c.12.2.05.45-.15.56-.22.11-.41.07-.54-.13-.13-.19-.07-.44.13-.57.2-.12.45-.06.57.13Z"/><path class="cls-3" d="M252.14,185.25c-.11-.19-.04-.46.16-.57.2-.12.43-.06.54.14.11.2.05.46-.15.57-.19.11-.44.04-.55-.14Z"/><path class="cls-3" d="M258,184.78c-.18.12-.43.06-.55-.11-.12-.18-.06-.45.14-.57.19-.11.44-.05.55.13.11.18.05.43-.13.55Z"/><path class="cls-3" d="M255.02,180.43c.17-.08.34-.05.47.13.11.17.06.42-.12.52-.19.1-.37.06-.49-.12-.12-.16-.05-.41.14-.53Z"/><path class="cls-3" d="M262.61,185.28c.15.06.33.08.43.18.15.15.07.34-.09.46-.17.12-.38.09-.46-.09-.06-.13,0-.31,0-.47l.12-.08Z"/><path class="cls-3" d="M260.49,179.83c-.23-.07-.39-.08-.49-.16-.04-.03.02-.27.1-.33.14-.12.31-.07.39.1.03.08,0,.19,0,.39Z"/><path class="cls-3" d="M263.27,182.49c-.08.19-.1.34-.18.38-.08.04-.22-.03-.33-.05.03-.11.02-.26.09-.32.07-.05.21,0,.42,0Z"/><path class="cls-3" d="M260.45,184.6c.07-.17.09-.31.16-.35.07-.04.2.02.3.04-.02.11-.01.25-.08.32-.05.05-.2,0-.39,0Z"/><path class="cls-3" d="M256.09,189.16c.08-.19.1-.33.17-.36.08-.03.23.01.29.08.04.04,0,.22-.06.27-.07.05-.2.01-.4.02Z"/><path class="cls-3" d="M256.56,184.41c-.18-.08-.32-.1-.35-.17-.03-.08.03-.2.06-.3.1.02.24.02.3.08.05.06,0,.2,0,.39Z"/><path class="cls-3" d="M255.16,183.03c-.16-.06-.29-.07-.32-.14-.03-.07,0-.22.05-.26.06-.04.21,0,.26.05.05.05,0,.18,0,.35Z"/><path class="cls-3" d="M264.47,184.44c-.16-.07-.28-.08-.32-.15-.04-.06,0-.23.04-.25.08-.03.22-.02.28.04.05.05,0,.18,0,.36Z"/><path class="cls-3" d="M263.59,185.8c.16.07.29.09.32.15.03.07-.02.19-.04.28-.09-.02-.22-.01-.27-.07-.05-.05,0-.18,0-.36Z"/><path class="cls-3" d="M255.02,176.77c-.13-.05-.26-.07-.27-.12-.02-.08.03-.18.05-.27.09.03.21.03.26.09.04.04-.02.16-.04.3Z"/><path class="cls-3" d="M257.99,173.62c-.07.13-.09.26-.15.28-.08.02-.18-.04-.27-.07.03-.08.04-.2.1-.24.06-.04.17.01.32.03Z"/><path class="cls-3" d="M261.09,183.54c.05-.13.05-.25.1-.27.07-.03.17.01.26.02-.02.08-.02.19-.08.24-.04.04-.15,0-.28,0Z"/><path class="cls-3" d="M260.52,181.5c.05-.12.06-.22.11-.26.03-.03.18.01.19.04.02.07,0,.17-.04.22-.03.03-.13,0-.26,0Z"/><path class="cls-3" d="M260.72,164.34c.52.12.66.66.54.97-.15.36-.55.56-.91.44-.38-.13-.58-.54-.45-.93.02-.06.05-.12.07-.18.19-.52.24-.54.75-.29Z"/><path class="cls-3" d="M252.58,172.35c.14-.33.52-.48.86-.34.35.14.51.53.35.87-.15.32-.54.47-.87.33-.33-.14-.48-.53-.34-.86Z"/><path class="cls-3" d="M260.44,172.57c.12-.27.37-.36.69-.22.31.13.45.47.32.76-.13.28-.46.41-.75.27-.3-.14-.41-.47-.26-.81Z"/><path class="cls-3" d="M264.41,171.66c-.13.28-.45.4-.72.27-.27-.13-.38-.45-.25-.73.14-.3.47-.43.74-.3.27.13.37.46.23.76Z"/><path class="cls-3" d="M257.57,167.59c.12-.27.44-.4.72-.29.28.12.4.44.28.72-.12.28-.44.4-.72.28-.28-.12-.41-.43-.28-.71Z"/><path class="cls-3" d="M265.8,164.79c.12-.26.44-.36.7-.23.25.13.35.42.24.68-.12.27-.43.38-.69.25-.26-.12-.37-.44-.25-.7Z"/><path class="cls-3" d="M253.69,175.76c-.25-.12-.36-.41-.24-.67.12-.27.43-.38.69-.24.25.13.36.42.24.67-.12.27-.43.37-.69.24Z"/><path class="cls-3" d="M265.88,167.94c-.12.24-.39.34-.61.23-.23-.12-.33-.42-.22-.65.11-.24.37-.33.61-.21.25.12.34.39.22.64Z"/><path class="cls-3" d="M251.1,170.27c.03-.07.06-.14.1-.21.12-.2.3-.25.5-.14.2.12.23.31.12.51-.06.1-.15.19-.21.29-.11.19-.26.27-.46.17-.21-.11-.21-.28-.12-.48.02-.05.05-.1.07-.15h0Z"/><path class="cls-3" d="M262.26,175.93c-.1.24-.37.35-.6.25-.23-.1-.34-.41-.23-.64.1-.22.39-.33.61-.22.22.11.32.38.22.61Z"/><path class="cls-3" d="M253.55,162.3c-.26-.11-.38-.35-.29-.58.08-.22.35-.33.58-.24.22.09.4.55.3.77-.08.17-.25.19-.58.05Z"/><path class="cls-3" d="M257.04,161.4c-.11.23-.39.32-.62.19-.24-.13-.31-.34-.2-.59.1-.24.37-.33.61-.22.23.11.33.38.21.61Z"/><path class="cls-3" d="M250.62,165.09c.11-.22.41-.31.63-.19.23.12.31.36.19.59-.12.23-.4.32-.62.2-.21-.11-.31-.39-.2-.6Z"/><path class="cls-3" d="M254.58,170.3c-.22-.1-.32-.37-.23-.58.1-.23.39-.33.61-.21.22.11.31.38.21.59-.1.21-.38.31-.59.21Z"/><path class="cls-3" d="M256.87,164.9c.18.11.26.29.16.52-.09.21-.36.31-.56.2-.21-.12-.28-.31-.19-.53.08-.21.36-.3.58-.19Z"/><path class="cls-3" d="M256.88,174.93c.03.17.13.36.09.51-.06.23-.28.27-.48.19-.21-.09-.31-.3-.19-.49.08-.13.29-.19.44-.27l.14.06Z"/><path class="cls-3" d="M260.71,169.66c-.08-.26-.16-.41-.14-.55,0-.06.26-.14.37-.11.19.06.26.25.14.43-.05.08-.17.12-.36.24Z"/><path class="cls-3" d="M259.89,173.86c-.22.04-.38.11-.46.06-.09-.05-.1-.22-.15-.34.12-.04.26-.14.35-.11.09.03.14.19.26.39Z"/><path class="cls-3" d="M256.22,172.49c.21-.03.35-.1.43-.06.08.05.1.2.15.31-.12.04-.24.14-.35.12-.08-.02-.12-.18-.23-.37Z"/><path class="cls-3" d="M249.33,171.14c.22-.04.37-.11.44-.06.08.05.13.22.11.32-.01.06-.21.13-.29.1-.09-.03-.13-.18-.26-.36Z"/><path class="cls-3" d="M254.06,168.72c-.03-.21-.09-.36-.05-.43.05-.08.21-.09.31-.13.04.11.13.24.1.33-.03.08-.18.12-.37.23Z"/><path class="cls-3" d="M254.52,166.59c-.04-.19-.1-.32-.07-.39.04-.07.21-.14.28-.11.07.03.13.2.11.28-.02.07-.16.12-.32.22Z"/><path class="cls-3" d="M258.78,176.15c-.03-.19-.09-.31-.06-.39.03-.07.21-.14.26-.11.08.05.15.2.13.28-.02.07-.16.11-.33.21Z"/><path class="cls-3" d="M256.97,176.16c.03.19.09.33.05.39-.05.07-.19.09-.29.13-.04-.1-.12-.22-.09-.3.02-.08.16-.12.33-.22Z"/><path class="cls-3" d="M260.3,162.7c-.03-.15-.09-.28-.05-.33.06-.07.19-.08.29-.11.03.1.1.21.07.3-.02.06-.16.08-.31.14Z"/><path class="cls-3" d="M265.03,163.59c-.16.02-.3.07-.35.03-.07-.06-.06-.19-.09-.29.1-.02.21-.08.28-.05.07.03.09.17.16.31Z"/><path class="cls-3" d="M257.59,172.45c.15-.03.26-.1.31-.06.07.05.09.17.13.25-.09.03-.19.09-.28.07-.06-.01-.09-.14-.17-.27Z"/><path class="cls-3" d="M259.16,170.7c.14-.03.24-.08.31-.06.05.01.1.18.07.2-.05.06-.16.1-.24.09-.05,0-.08-.12-.15-.24Z"/></g></g></svg>