<?xml version="1.0" encoding="UTF-8"?>
<svg xmlns="http://www.w3.org/2000/svg" width="300" height="300" xmlns:xlink="http://www.w3.org/1999/xlink" viewBox="0 0 300 300">
  <defs>
    <clipPath id="d">
      <path d="M288.814,107.923h-132.308v73.405h12.471c.593,1.389,2.701,2.421,5.233,2.421,1.258,0,2.401-.264,3.32-.69,1.128.428,2.425.69,3.828.69,1.828,0,3.482-.434,4.794-1.128,1.361.708,2.983,1.128,4.732,1.128,1.439,0,2.776-.306,3.971-.799,1.833.502,4.061.799,6.469.799,2.272,0,4.383-.265,6.155-.717.928.442,2.091.717,3.374.717,1.258,0,2.401-.264,3.32-.69,1.128.428,2.425.69,3.828.69,1.827,0,3.482-.434,4.793-1.128,1.361.708,2.983,1.128,4.732,1.128,1.439,0,2.776-.306,3.971-.799,1.833.502,4.061.799,6.469.799,1.713,0,3.331-.153,4.785-.42,1.455.267,3.073.42,4.786.42,2.408,0,4.635-.297,6.469-.799,1.194.494,2.531.799,3.97.799,1.749,0,3.37-.419,4.732-1.128,1.312.694,2.966,1.128,4.794,1.128,1.403,0,2.7-.263,3.828-.69.92.426,2.063.69,3.321.69,2.531,0,4.639-1.032,5.233-2.421h8.933v-73.405Z" fill="none"/>
    </clipPath>
    <filter id="e" data-name="drop-shadow-1" x="159.056" y="124.039" width="115.608" height="69.91" filterUnits="userSpaceOnUse">
      <feOffset dx="-4" dy="0"/>
      <feGaussianBlur result="f" stdDeviation="0"/>
      <feFlood flood-color="#42496f" flood-opacity="1"/>
      <feComposite in2="f" operator="in"/>
      <feComposite in="SourceGraphic"/>
    </filter>
    <clipPath id="g">
      <path d="M180.318,186.161c-6.535-10.921-13.366-31.58-13.366-31.58-.673-1.682.569-3.415,2.377-3.511,20.299-1.074,43.663.627,56.374,8.057,15.845,8.862,21.347,23.448,28.377,21.037,12.264-4.207,5.461-24.17,7.072-29.899l1.969-.447c1.787,2.821,6.714,14.412,5.371,24.528-1.077,8.115-2.864,10.205-4.565,11.548,0,0-79.044.269-83.61.269Z" fill="none"/>
    </clipPath>
  </defs>
  <g isolation="isolate">
    <g id="c" data-name="Calque 19">
      <g clip-path="url(#d)">
        <g filter="url(#e)">
          <path d="M263.781,156.189c5.417-.757,11.967-4.612,10.731-18.267,0,0-13.776,1.145-12.902,7.295-1.085-6.119-13.685-4.039-13.685-4.039,0,0,2.05,16.941,15.856,15.012Z" fill="#b1ddea"/>
          <path d="M264.393,155.981c4.15-.58,9.168-3.533,8.222-13.995,0,0-11.18.846-10.51,5.557-.831-4.688-9.859-3.063-9.859-3.063,0,0,1.57,12.979,12.148,11.501Z" fill="#6498d1" mix-blend-mode="multiply" opacity=".25"/>
          <path d="M180.318,186.161c-6.535-10.921-13.366-31.58-13.366-31.58-.673-1.682.569-3.415,2.377-3.511,20.299-1.074,43.663.627,56.374,8.057,15.845,8.862,21.347,23.448,28.377,21.037,12.264-4.207,5.461-24.17,7.072-29.899.273-.949.629-1.764,1.105-1.803.429-.034,1.082.592,1.225,1.334,1.531,4.507,5.885,18.136,5.01,24.548-1.106,8.111-2.864,10.205-4.565,11.548,0,0-79.044.269-83.61.269Z" fill="#b1ddea"/>
          <path d="M188.668,153.617s-.89,2.847,1.068,2.892c1.957.044,2.447-3.114,2.447-3.114" fill="none" stroke="#42496f" stroke-linecap="round" stroke-linejoin="round" stroke-width=".463"/>
          <line x1="188.446" y1="154.373" x2="185.777" y2="154.151" fill="none" stroke="#42496f" stroke-linecap="round" stroke-linejoin="round" stroke-width=".463"/>
          <line x1="188.401" y1="155.352" x2="186.088" y2="155.441" fill="none" stroke="#42496f" stroke-linecap="round" stroke-linejoin="round" stroke-width=".463"/>
          <path d="M198.878,154.462s-.667,3.248,1.602,3.203,2.669-3.292,2.669-3.292" fill="none" stroke="#42496f" stroke-linecap="round" stroke-linejoin="round" stroke-width=".463"/>
          <line x1="202.837" y1="155.441" x2="206.085" y2="155.575" fill="none" stroke="#42496f" stroke-linecap="round" stroke-linejoin="round" stroke-width=".463"/>
          <line x1="202.392" y1="156.42" x2="204.839" y2="157.265" fill="none" stroke="#42496f" stroke-linecap="round" stroke-linejoin="round" stroke-width=".463"/>
          <path d="M245.648,177.296l5.604.255c.73.033,1.293.655,1.254,1.385l-.138,2.56-6.719-4.2Z" fill="#b1ddea"/>
          <path d="M224.974,157.397c-.526-.241-.985-.519-1.341-.795l-2.238.746,5.774,3.36-.902-2.87c-.401-.096-.832-.23-1.293-.441Z" fill="#b1ddea"/>
          <g clip-path="url(#g)">
            <g>
              <path d="M174.928,185.653l42.921.359s-6.375-10.057-9.698-26.758c0,0-6.98,2.018-45.096-3.543l11.872,29.941Z" fill="#fff6e3"/>
              <path d="M164.872,156.022s34.425,4.941,43.28,3.233c5.118-.988,3.83-4.054,1.675-3.702" fill="none" stroke="#42496f" stroke-linecap="round" stroke-linejoin="round" stroke-width=".463"/>
              <g>
                <path d="M202.877,161.186s4.744,17.456,9.31,26.139" fill="none" stroke="#ffd66e" stroke-linecap="round" stroke-linejoin="round" stroke-width=".463"/>
                <path d="M197.583,160.725s4.744,17.456,9.31,26.139" fill="none" stroke="#ffd66e" stroke-linecap="round" stroke-linejoin="round" stroke-width=".463"/>
                <path d="M192.288,160.265s4.744,17.456,9.31,26.139" fill="none" stroke="#ffd66e" stroke-linecap="round" stroke-linejoin="round" stroke-width=".463"/>
                <path d="M186.994,159.805s4.744,17.456,9.31,26.139" fill="none" stroke="#ffd66e" stroke-linecap="round" stroke-linejoin="round" stroke-width=".463"/>
                <path d="M181.7,159.344s4.744,17.456,9.31,26.139" fill="none" stroke="#ffd66e" stroke-linecap="round" stroke-linejoin="round" stroke-width=".463"/>
                <path d="M176.405,158.884s4.744,17.456,9.31,26.139" fill="none" stroke="#ffd66e" stroke-linecap="round" stroke-linejoin="round" stroke-width=".463"/>
                <path d="M171.111,158.423s4.744,17.456,9.31,26.139" fill="none" stroke="#ffd66e" stroke-linecap="round" stroke-linejoin="round" stroke-width=".463"/>
                <path d="M165.817,157.963s4.744,17.456,9.31,26.139" fill="none" stroke="#ffd66e" stroke-linecap="round" stroke-linejoin="round" stroke-width=".463"/>
              </g>
            </g>
            <path d="M181.393,193.949s-13.696-35.539-11.816-37.239c1.88-1.701,25.154,1.701,38.224,5.282,11.264,3.086,17.993,25.542,35.897,25.542,17.43,0,21.126-8.713,22.2-15.248s4.207,3.223-1.432,16.113l-83.072,5.55Z" fill="#6498d1" mix-blend-mode="multiply" opacity=".25"/>
          </g>
          <path d="M222.755,179.175c-.03.291,1.347,6.422,6.34,10.064,3.843,2.803,6.238,2.163,6.944,2.013l.085-.048c1.637-.935,2.246-2.978,1.408-4.667-.641-1.291-1.457-2.698-2.499-4.141-2.024-2.804-4.189-4.761-5.837-6.038" fill="none" stroke="#42496f" stroke-linecap="round" stroke-linejoin="round" stroke-width=".463"/>
          <path d="M226.39,155.069s3.7-9.071,7.519-15.158c0,0,2.686,4.595,6.207,2.506,3.521-2.089.239-4.416.239-4.416,5.55-2.327,1.492-7.221-2.626-5.968,4.536-12.294-14.383-9.19-11.339,1.074-5.252-.716-6.684,10.503,3.581,6.803,0,0-1.969,9.489-4.655,14.562l1.074.597Z" fill="#fff"/>
          <ellipse cx="183.526" cy="155.115" rx="1.301" ry="1.694" transform="translate(-18.27 285.578) rotate(-73.087)" fill="#e86170" opacity=".25"/>
          <ellipse cx="207.657" cy="157.219" rx="1.694" ry="1.301" transform="translate(-36.756 67.211) rotate(-16.913)" fill="#e86170" opacity=".25"/>
          <g opacity=".5">
            <circle cx="183.629" cy="154.007" r=".387" fill="#e86170"/>
            <circle cx="182.598" cy="155.554" r=".472" fill="#e86170"/>
            <circle cx="184.23" cy="155.897" r=".301" fill="#e86170"/>
            <circle cx="206.907" cy="157.014" r=".387" fill="#e86170"/>
            <circle cx="208.453" cy="157.443" r=".301" fill="#e86170"/>
            <circle cx="207.336" cy="158.302" r=".301" fill="#e86170"/>
            <circle cx="207.766" cy="156.327" r=".215" fill="#e86170"/>
            <circle cx="184.402" cy="154.781" r=".215" fill="#e86170"/>
          </g>
        </g>
      </g>
    </g>
  </g>
</svg>