<?xml version="1.0" encoding="UTF-8"?>
<svg xmlns="http://www.w3.org/2000/svg" width="300" height="300" xmlns:xlink="http://www.w3.org/1999/xlink" viewBox="0 0 300 300">
  <defs>
    <clipPath id="p">
      <path d="M18.276,46.191h112.772v135.2h-10.629c-.506,1.184-2.303,2.063-4.46,2.063-1.072,0-2.047-.225-2.83-.588-.961.365-2.067.588-3.263.588-1.558,0-2.968-.37-4.086-.961-1.16.604-2.542.961-4.033.961-1.227,0-2.366-.261-3.384-.681-1.563.428-3.461.681-5.514.681-1.936,0-3.736-.226-5.246-.611-.791.376-1.782.611-2.876.611-1.072,0-2.047-.225-2.83-.588-.962.365-2.067.588-3.263.588-1.558,0-2.968-.37-4.085-.961-1.16.604-2.542.961-4.033.961-1.227,0-2.366-.261-3.384-.681-1.563.428-3.461.681-5.514.681-1.46,0-2.839-.131-4.079-.358-1.24.228-2.619.358-4.079.358-2.052,0-3.951-.253-5.514-.681-1.018.421-2.157.681-3.384.681-1.491,0-2.873-.357-4.033-.961-1.118.592-2.528.961-4.086.961-1.196,0-2.301-.224-3.263-.588-.784.363-1.758.588-2.83.588-2.157,0-3.954-.88-4.46-2.063h-7.614V46.191Z" fill="none"/>
    </clipPath>
    <filter id="q" data-name="drop-shadow-1" x="15.717" y="88.221" width="102.823" height="106.727" filterUnits="userSpaceOnUse">
      <feOffset dx="-4" dy="0"/>
      <feGaussianBlur result="r" stdDeviation="0"/>
      <feFlood flood-color="#42496f" flood-opacity="1"/>
      <feComposite in2="r" operator="in"/>
      <feComposite in="SourceGraphic"/>
    </filter>
    <clipPath id="s">
      <path d="M32.338,95.639c24.485-.399,48.982-.063,73.447,1.008l.627.539c1.499,7.222,2.696,25.593,2.696,25.593,0,0,.04,2.21.06,3.315.095,5.23.189,10.46.161,15.691-.015,2.702.953,7.995.953,7.995,0,0,2.647,6.43,2.983,7.968,1.991,9.115,3.75,18.28,5.274,27.484-29.008-.198-58.006,1.441-86.863-1.526-.867-28.285-1.732-59.871.661-88.067Z" fill="none"/>
    </clipPath>
    <filter id="t" data-name="drop-shadow-2" x="108.39" y="159.161" width="17.058" height="27.433" filterUnits="userSpaceOnUse">
      <feOffset dx="-4" dy="0"/>
      <feGaussianBlur result="u" stdDeviation="0"/>
      <feFlood flood-color="#42496f" flood-opacity="1"/>
      <feComposite in2="u" operator="in"/>
      <feComposite in="SourceGraphic"/>
    </filter>
    <clipPath id="v">
      <path d="M87.596,70.919H-8.916v115.706H.181c.433,1.013,1.971,1.766,3.817,1.766.918,0,1.751-.193,2.422-.504.823.312,1.769.504,2.792.504,1.333,0,2.54-.316,3.497-.823.993.517,2.176.823,3.452.823,1.05,0,2.025-.223,2.896-.583,1.337.366,2.962.583,4.719.583,1.657,0,3.197-.193,4.49-.523.677.322,1.525.523,2.461.523.918,0,1.751-.193,2.422-.504.823.312,1.769.504,2.793.504,1.333,0,2.54-.316,3.496-.823.993.517,2.176.823,3.452.823,1.05,0,2.025-.223,2.896-.583,1.337.366,2.962.583,4.719.583,1.25,0,2.429-.112,3.491-.307,1.062.195,2.242.307,3.491.307,1.756,0,3.381-.217,4.719-.583.871.36,1.846.583,2.896.583,1.276,0,2.458-.306,3.452-.823.957.506,2.163.823,3.497.823,1.023,0,1.97-.192,2.792-.504.671.311,1.505.504,2.422.504,1.846,0,3.384-.753,3.817-1.766h6.516v-115.706Z" fill="none"/>
    </clipPath>
    <filter id="w" data-name="drop-shadow-3" x="17.314" y="104.577" width="43.474" height="86.355" filterUnits="userSpaceOnUse">
      <feOffset dx="-4" dy="0"/>
      <feGaussianBlur result="x" stdDeviation="0"/>
      <feFlood flood-color="#42496f" flood-opacity="1"/>
      <feComposite in2="x" operator="in"/>
      <feComposite in="SourceGraphic"/>
    </filter>
    <clipPath id="y">
      <path d="M52.983,110.537c-1.73.102-3.451.358-5.131.785l-20.291.388c-.184,10.15-.368,20.301-.551,30.451-.019,1.065-.039,2.137-.256,3.179-.345,1.659-1.172,3.175-1.677,4.792-.722,2.311-.772,4.77-.847,7.19-.319,10.311-1.364,22.194-2.798,32.409,11.669-.825,23.504,1.865,35.173,1.04.488-8.618.526-22.357.44-30.991-1.354-16.415-2.707-32.83-4.061-49.245Z" fill="none"/>
    </clipPath>
  </defs>
  <g isolation="isolate">
    <g id="o" data-name="Calque 8">
      <g>
        <g clip-path="url(#p)">
          <g filter="url(#q)">
            <path d="M32.338,95.639c24.485-.399,48.982-.063,73.447,1.008l.627.539c1.499,7.222,2.696,25.593,2.696,25.593,0,0,.04,2.21.06,3.315.095,5.23.189,10.46.161,15.691-.015,2.702.953,7.995.953,7.995,0,0,2.647,6.43,2.983,7.968,1.991,9.115,3.75,18.28,5.274,27.484-29.008-.198-58.006,1.441-86.863-1.526-.867-28.285-1.732-59.871.661-88.067Z" fill="#ffd66e"/>
            <g clip-path="url(#s)">
              <path d="M26.404,136.558c.365-1.604.786-3.203.943-4.84.177-1.849.014-3.71-.107-5.563-.717-10.947.018-21.988,2.18-32.743,2.596.971,4.831-1.961,7.293-3.234,1.743-.901,3.783-.965,5.744-1.01,11.208-.256,22.415-.513,33.623-.769,10.622-.243,21.305-.482,31.818,1.063,1.151,4.192,2.302,8.384,3.453,12.576l-3.628-1.768c1.193,2.366,2.385,4.732,3.578,7.099-2.276-1.508-4.552-3.016-6.828-4.524.474,1.194.948,2.388,1.422,3.581-1.051-.745-2.103-1.49-3.154-2.234.087.841.175,1.682.262,2.523-5.393-3.31-12.275-4.081-18.267-2.045.359.737.719,1.474,1.078,2.211-1.575-.931-3.151-1.861-4.726-2.792.116,1.594-1.641,2.748-3.237,2.825-1.596.077-3.146-.531-4.74-.652-5.113-.389-9.768,4.19-14.827,3.349.322,13.526,2.445,25.665,3.225,36.609,3.567,1.534,6.617,3.121,8.583,7.266,2.87,13.095,5.411,27.575,7.521,41.465-15.618-.794-31.237-1.588-46.855-2.382-.881-.045-1.855-.131-2.459-.774-.48-.511-.604-1.252-.705-1.947-2.586-17.687-5.158-35.859-1.19-53.288Z" fill="#f4af13" mix-blend-mode="multiply" opacity=".5"/>
            </g>
            <path d="M29.578,97.445c-3.646.391-6.234,1.16-9.861,2.224,3.204-2.943,7.369-4.214,11.764-4.782-.89-.525-1.292-1.371-1.717-2.234,1.238.864,2.606,1.541,4.042,2.004.397-.03.795-.057,1.193-.08-.42-.67-.795-1.368-1.086-2.103,1.311.915,2.802,1.563,4.359,1.929.303-.256.634-.479.993-.653.001,0,.003,0,.004,0-.645-.726-.913-1.563-1.072-2.694.964,1.24,2.525,1.854,4.055,2.206.881.203,1.779.346,2.662.534.316.003.631.005.947.008-.235-.242-.41-.544-.483-.874.554.295,1.107.589,1.661.884.101,0,.202.002.303.002l-.153-.264c.151.089.302.177.453.266,16.86.138,33.719.276,50.578.415.518.004,1.041.011,1.566.02,1.63-.356,3.191-1.029,4.559-1.983-.291.735-.666,1.433-1.086,2.103.398.022.795.049,1.193.08,1.437-.463,2.805-1.14,4.042-2.004-.425.863-.827,1.709-1.717,2.234l.015.007c4.38.562,8.545,1.833,11.749,4.776-3.627-1.064-6.215-1.834-9.861-2.224,1.786,1.399,3.184,3.287,4.002,5.404-4.018-1.69-8.036-3.38-12.054-5.07,1.324.595,2.253,1.984,2.298,3.435-2.188-.885-4.375-1.769-6.563-2.654-.482.951-1.862.979-2.947.839-1.818-.236-3.635-.471-5.453-.707-.894-.116-1.865-.218-2.642.239-.778.456-1.11,1.717-.383,2.25-3.243-1.273-6.486-2.545-9.73-3.818,1.551,1.823,1.982,4.029,1.978,5.469-2.463-1.492-4.926-2.984-7.389-4.476-.416,1.833-1.713,3.444-3.414,4.244-1.332-1.538-3.003-2.781-4.858-3.615.27.836.29,1.75.059,2.597-1.493-.894-2.986-1.789-4.479-2.683-.582,1.453-1.164,2.905-1.746,4.358-1.875-2.84-5.344-4.302-8.736-4.571-.293-.023-.586-.029-.879-.038l-.9.954c-1.039.135-2.339.105-2.872-.731-.17.023-.341.043-.511.069-2.042.826-4.085,1.652-6.127,2.478.028-.926.42-1.824,1.041-2.51-.006-.132-.008-.264-.003-.396-3.598,1.514-7.196,3.027-10.794,4.541.817-2.116,2.216-4.005,4.002-5.404Z" fill="#93d1ad"/>
          </g>
        </g>
        <g>
          <path d="M121.079,161.752c-.359-1.152-.992-2.506-2.196-2.587-1.497-.101-2.215,1.776-2.465,3.255-1.176,6.962-2.352,13.925-3.528,20.887-.166.985-.333,1.971-.499,2.956l13.058.331c-.388-8.422-1.86-16.793-4.369-24.842Z" fill="#ffd66e" filter="url(#t)"/>
          <path d="M105.52,187.385s9.421-6.887,11.083-12.508c0,0-1.742,9.5-1.267,10.608.475,1.108,8.233-3.325,8.233-3.325,0,0,3.143,4.472,6.361,4.294-7.707,2.355-8.102.139-8.102.139,0,0-5.858,2.217-9.025,1.742s-1.425-2.375-1.425-2.375c0,0-2.137,1.504-5.858,1.425Z" fill="#fff"/>
          <g>
            <path d="M116.525,174.139c.177-.471.696-.546.968-.392.324.183.464.579.305.904-.168.343-.575.483-.922.316-.056-.027-.107-.063-.162-.091-.465-.24-.478-.289-.189-.737Z" fill="#fff"/>
            <path d="M123.093,182.702c-.291-.172-.389-.545-.222-.842.176-.313.559-.414.86-.226.284.177.376.56.205.85-.17.289-.556.388-.844.218Z" fill="#fff"/>
            <path d="M124.211,175.353c-.243-.146-.291-.39-.13-.672.154-.272.489-.366.747-.211.251.151.327.476.171.731-.163.268-.491.331-.789.152Z" fill="#fff"/>
            <path d="M123.818,171.53c.247.156.32.464.166.703-.153.237-.468.304-.711.151-.263-.166-.35-.488-.196-.727.154-.24.476-.296.742-.128Z" fill="#fff"/>
            <path d="M119.209,177.468c-.243-.145-.328-.464-.187-.706.143-.246.46-.326.704-.18.249.149.329.455.184.704-.146.251-.452.33-.701.182Z" fill="#fff"/>
            <path d="M117.536,169.424c-.226-.146-.287-.459-.133-.686.147-.216.438-.279.662-.142.237.144.304.442.154.679-.148.231-.452.298-.683.149Z" fill="#fff"/>
            <path d="M126.425,182.056c-.146.223-.427.285-.656.145-.238-.147-.304-.445-.149-.678.146-.221.434-.285.658-.146.237.147.301.444.147.68Z" fill="#fff"/>
            <path d="M120.499,169.715c.212.137.276.403.142.595-.138.2-.435.262-.637.133-.207-.133-.263-.388-.131-.598.137-.217.405-.272.625-.13Z" fill="#fff"/>
            <path d="M120.974,183.847c-.061-.038-.127-.07-.182-.115-.17-.14-.204-.312-.069-.488.137-.178.316-.178.491-.054.091.065.161.159.251.227.165.125.227.275.104.452-.124.18-.291.164-.46.053-.043-.028-.087-.055-.131-.082l-.005.007Z" fill="#fff"/>
            <path d="M127.569,174.04c.21.124.287.391.169.589-.12.2-.423.27-.63.145-.195-.118-.262-.407-.14-.6.126-.198.392-.257.601-.135Z" fill="#fff"/>
            <path d="M113.777,180.623c-.134.234-.369.319-.575.21-.194-.103-.266-.37-.154-.569.113-.2.56-.315.753-.193.152.096.145.257-.024.553Z" fill="#fff"/>
            <path d="M113.345,177.247c.201.132.256.406.11.604-.152.207-.354.248-.576.123-.214-.121-.269-.387-.134-.596.134-.207.397-.264.6-.13Z" fill="#fff"/>
            <path d="M116.054,183.699c-.191-.131-.24-.416-.106-.613.136-.2.378-.247.573-.112.198.137.25.412.115.607-.128.186-.402.241-.582.118Z" fill="#fff"/>
            <path d="M121.405,180.592c-.119.191-.383.258-.575.145-.201-.118-.26-.399-.126-.6.127-.19.39-.246.577-.124.186.121.243.388.124.579Z" fill="#fff"/>
            <path d="M116.602,177.815c.127-.154.301-.207.502-.09.185.107.248.376.125.544-.135.185-.321.222-.521.114-.185-.101-.237-.368-.106-.568Z" fill="#fff"/>
            <path d="M126.008,178.969c.165-.013.35-.079.491-.026.21.079.226.292.119.475-.11.189-.318.253-.48.123-.114-.092-.141-.293-.207-.445l.077-.127Z" fill="#fff"/>
            <path d="M121.517,174.765c-.251.042-.406.104-.536.071-.052-.013-.105-.262-.061-.36.078-.173.26-.212.416-.077.069.059.09.175.181.367Z" fill="#fff"/>
            <path d="M125.357,176.025c.008.215.059.369.003.44-.059.075-.218.071-.334.101-.026-.117-.104-.257-.065-.343.038-.082.199-.106.395-.198Z" fill="#fff"/>
            <path d="M123.651,179.309c-.009-.199-.056-.34-.006-.407.053-.07.2-.07.305-.1.029.114.103.244.071.338-.024.069-.186.091-.37.169Z" fill="#fff"/>
            <path d="M121.582,185.614c-.008-.212-.056-.36-.004-.42.058-.067.222-.094.312-.062.053.019.1.214.063.282-.043.078-.182.104-.371.199Z" fill="#fff"/>
            <path d="M119.863,180.894c-.203.002-.346.045-.408-.007-.067-.057-.057-.203-.081-.31.108-.023.238-.093.318-.056.073.034.091.184.171.373Z" fill="#fff"/>
            <path d="M117.918,180.219c-.181.013-.311.061-.37.017-.062-.047-.104-.211-.068-.273.036-.062.199-.104.272-.072.068.029.089.165.166.328Z" fill="#fff"/>
            <path d="M127.381,177.328c-.182.009-.304.051-.372.008-.059-.038-.104-.215-.07-.253.059-.067.202-.119.279-.091.065.023.087.168.162.336Z" fill="#fff"/>
            <path d="M127.174,179.021c.185-.007.317-.05.375-.003.064.052.061.187.087.286-.1.022-.219.088-.293.054-.069-.031-.09-.168-.169-.337Z" fill="#fff"/>
            <path d="M114.941,174.346c-.146.007-.276.05-.316.008-.058-.062-.051-.185-.071-.282.099-.015.213-.065.291-.032.053.022.055.163.096.306Z" fill="#fff"/>
            <path d="M116.326,170.007c-.003.157.031.29-.016.332-.063.055-.189.039-.287.053-.007-.092-.051-.21-.011-.27.04-.061.165-.065.314-.114Z" fill="#fff"/>
            <path d="M123.767,178.01c-.015-.143-.06-.258-.023-.3.053-.06.167-.067.254-.096.016.09.064.192.037.267-.019.053-.139.071-.269.128Z" fill="#fff"/>
            <path d="M122.309,176.337c-.012-.139-.046-.235-.016-.301.019-.041.177-.071.2-.044.049.057.078.162.061.233-.011.043-.125.061-.245.112Z" fill="#fff"/>
          </g>
        </g>
        <g>
          <g clip-path="url(#v)">
            <g filter="url(#w)">
              <path d="M52.983,110.537c-1.73.102-3.451.358-5.131.785l-20.291.388c-.184,10.15-.368,20.301-.551,30.451-.019,1.065-.039,2.137-.256,3.179-.345,1.659-1.172,3.175-1.677,4.792-.722,2.311-.772,4.77-.847,7.19-.319,10.311-1.364,22.194-2.798,32.409,11.669-.825,23.504,1.865,35.173,1.04.488-8.618.526-22.357.44-30.991-1.354-16.415-2.707-32.83-4.061-49.245Z" fill="#ffd66e"/>
              <g clip-path="url(#y)">
                <g>
                  <path d="M28.412,108.731c-1.996,3.07-3.409,6.517-4.141,10.104,1.946-1.089,3.892-2.177,5.838-3.266-1.172,2.193-1.891,4.626-2.101,7.104,1.15-1.148,2.331-2.264,3.543-3.347.038.69.077,1.38.115,2.069.848-.764,1.696-1.528,2.545-2.293.462,1.059,1.978.929,3.107.685,4.286-.927,8.776-.901,13.051.075,2.579.589,5.155,1.525,7.79,1.294-.795-3.913-2.017-7.739-3.637-11.388-.366-.825-.767-1.661-1.415-2.289-.896-.867-2.152-1.235-3.367-1.518-6.384-1.484-13.012-1.426-19.566-1.361-.964.01-1.961.026-2.838.426-2.04.93-2.667,3.473-3.049,5.682" fill="#f4af13" mix-blend-mode="multiply" opacity=".5"/>
                  <path d="M25.528,148.233c.819.185,1.53.691,2.149,1.258,3.21,2.937,4.344,7.448,5.324,11.687-.081-4.633-.57-9.259-1.46-13.807-.199-1.015-.441-2.076-1.129-2.849-.588-.662-1.433-1.031-2.267-1.327-1.162-.413-2.359-.725-3.574-.931-.109-.019-1.271,5.593-1.313,6.071.671-.046,1.577-.26,2.27-.103Z" fill="#f4af13" mix-blend-mode="multiply" opacity=".5"/>
                  <path d="M52.069,157.119c-1.619-.462-3.256-.861-4.907-1.195-1.049,4.16-2.099,8.321-3.148,12.481.201-5.035,2.777-15.885,2.777-15.885,0,0,4.646-.039,5.715.917,1.203,1.075,2.095,19.964,2.095,19.964,0,0-1.102-10.882-2.532-16.282Z" fill="#f4af13" mix-blend-mode="multiply" opacity=".5"/>
                </g>
              </g>
              <path d="M60.788,110.559c-2.086-.24-4.144-.718-6.123-1.42.445-.017.872-.292,1.072-.69-2.693-.026-5.386.127-8.061.443-4.063.835-8.278.579-12.444.551-2.03-1.146-4.11-2.204-6.236-3.16.103,1.183.482,2.334,1.076,3.361-.429.044-.856.096-1.28.158-.71-.457-1.398-.949-2.059-1.476.241.623.638,1.176,1.13,1.627-2.33.424-4.566,1.171-6.549,2.458,2.083-.385,4.167-.771,6.25-1.156-1.843.887-3.362,2.431-4.219,4.289,1.998-.544,3.893-1.467,5.554-2.705-1.022,1.298-1.812,2.777-2.324,4.348,2.236-1.691,4.619-3.188,7.113-4.467-.303.883-.606,1.765-.909,2.648,2.595-1.289,5.467-2.017,8.363-2.119-.308.339-.117.926.262,1.183s.866.277,1.324.286c3.649.068,7.3-.025,10.949-.119,2.197-.056,4.395-.112,6.592-.169-1.666-.923-3.332-1.845-4.998-2.768,1.892.297,3.886-.103,5.518-1.105Z" fill="#93d1ad"/>
            </g>
          </g>
          <g>
            <path d="M64.914,189.993s-9.995-9.226-11.423-18.782c0,0,1.812,14.334.659,15.597-1.153,1.263-3.954-5.712-3.954-5.712,0,0,1.648,6.92-.769,6.041s-4.284-1.648-4.284-1.648c0,0-1.648,3.24-8.677,3.405,7.14,1.373,9.995-.989,9.995-.989,0,0,1.977,3.075,4.833,2.856s1.757-1.977,1.757-1.977c0,0,4.998,4.009,6.59-1.098,0,0,2.142,2.197,5.272,2.307Z" fill="#fff"/>
            <g>
              <g>
                <path d="M57.183,178.319c.477.033.687.485.621.775-.079.345-.401.58-.741.524-.358-.06-.597-.393-.539-.753.009-.058.028-.115.039-.172.091-.489.133-.515.62-.373Z" fill="#fff"/>
                <path d="M51.172,186.635c.078-.312.39-.503.707-.432.333.075.529.397.44.722-.084.307-.408.495-.718.419-.309-.077-.505-.401-.429-.709Z" fill="#fff"/>
                <path d="M58.171,185.651c.067-.262.276-.371.577-.302.29.067.467.346.396.623-.069.269-.344.427-.619.355-.288-.076-.435-.357-.354-.677Z" fill="#fff"/>
                <path d="M61.547,184.251c-.075.268-.335.418-.596.343-.258-.074-.405-.344-.332-.607.079-.284.349-.452.608-.377.261.075.399.353.319.641Z" fill="#fff"/>
                <path d="M54.882,181.671c.066-.261.334-.425.592-.363.263.063.423.33.356.593-.068.267-.325.423-.591.36-.268-.064-.424-.322-.357-.589Z" fill="#fff"/>
                <path d="M61.754,177.955c.071-.246.34-.386.589-.308.237.075.373.323.31.564-.067.255-.32.398-.576.325-.251-.071-.395-.33-.322-.581Z" fill="#fff"/>
                <path d="M52.669,189.494c-.243-.072-.376-.311-.31-.558.069-.257.323-.398.577-.321.241.073.378.318.312.56-.069.256-.322.395-.579.319Z" fill="#fff"/>
                <path d="M62.296,180.734c-.067.23-.292.361-.504.292-.219-.071-.357-.325-.294-.544.064-.225.282-.346.509-.282.235.066.358.295.289.534Z" fill="#fff"/>
                <path d="M49.553,185.016c.018-.066.029-.135.055-.197.081-.193.229-.271.425-.196.199.076.249.24.183.433-.034.101-.101.19-.138.29-.069.184-.189.281-.383.218-.198-.064-.229-.22-.173-.404.014-.047.026-.094.039-.142l-.008-.002Z" fill="#fff"/>
                <path d="M60.283,188.352c-.055.225-.278.368-.49.314-.215-.054-.362-.312-.304-.534.054-.21.299-.35.508-.29.214.061.341.287.286.51Z" fill="#fff"/>
                <path d="M50.528,177.583c-.249-.058-.391-.249-.348-.466.041-.204.265-.343.477-.295.213.048.439.424.381.633-.046.165-.194.202-.51.128Z" fill="#fff"/>
                <path d="M53.486,176.27c-.066.219-.3.344-.52.265-.23-.082-.323-.254-.269-.492.052-.228.279-.35.506-.284.225.065.349.289.282.511Z" fill="#fff"/>
                <path d="M48.347,180.494c.067-.209.314-.332.529-.264.22.07.328.277.258.491-.071.218-.307.34-.522.271-.204-.066-.329-.3-.266-.498Z" fill="#fff"/>
                <path d="M52.635,184.522c-.206-.056-.339-.279-.289-.484.053-.215.293-.346.512-.279.208.064.331.288.27.492-.06.202-.287.327-.494.271Z" fill="#fff"/>
                <path d="M53.855,179.391c.175.073.271.217.219.433-.048.197-.275.328-.462.262-.205-.073-.29-.232-.246-.443.041-.196.271-.316.488-.252Z" fill="#fff"/>
                <path d="M55.367,188.273c.057.147.167.298.158.44-.015.212-.204.285-.401.238-.202-.049-.317-.221-.243-.404.053-.129.228-.208.349-.31l.136.036Z" fill="#fff"/>
                <path d="M57.973,183.037c-.106-.218-.205-.341-.211-.469-.002-.051.21-.167.311-.153.179.024.264.18.184.358-.035.079-.135.13-.285.265Z" fill="#fff"/>
                <path d="M57.872,186.878c-.194.066-.32.154-.399.123-.084-.033-.124-.18-.183-.276.099-.056.206-.165.295-.152.085.012.151.152.288.306Z" fill="#fff"/>
                <path d="M54.415,186.218c.179-.062.294-.144.369-.116.078.029.118.163.175.251-.096.057-.194.16-.289.157-.069-.003-.133-.144-.255-.291Z" fill="#fff"/>
                <path d="M48.108,186.052c.191-.065.312-.149.381-.118.077.035.146.177.141.268-.003.053-.168.15-.24.134-.083-.018-.145-.137-.283-.284Z" fill="#fff"/>
                <path d="M51.94,183.2c-.057-.185-.136-.303-.105-.374.034-.076.169-.107.26-.158.051.092.15.191.138.274-.011.075-.143.133-.293.257Z" fill="#fff"/>
                <path d="M52.024,181.244c-.062-.161-.141-.266-.116-.332.026-.07.164-.152.23-.136.066.016.149.153.14.228-.008.07-.126.126-.254.24Z" fill="#fff"/>
                <path d="M57.236,189.076c-.058-.163-.13-.263-.109-.336.018-.064.167-.153.212-.133.077.036.163.151.159.229-.003.065-.129.124-.262.24Z" fill="#fff"/>
                <path d="M55.637,189.349c.057.167.132.275.105.341-.03.072-.154.106-.236.157-.047-.085-.139-.175-.129-.252.009-.071.128-.128.261-.246Z" fill="#fff"/>
                <path d="M56.563,176.933c-.047-.131-.121-.238-.093-.286.041-.07.155-.096.237-.142.04.086.117.176.108.257-.006.054-.133.095-.253.171Z" fill="#fff"/>
                <path d="M60.893,177.012c-.143.04-.256.108-.307.076-.067-.042-.086-.161-.126-.247.082-.032.177-.104.244-.083.066.02.104.133.189.255Z" fill="#fff"/>
                <path d="M55.63,185.97c.126-.052.219-.125.267-.102.069.032.106.134.157.206-.078.039-.158.111-.233.107-.054-.003-.102-.108-.19-.21Z" fill="#fff"/>
                <path d="M56.757,184.187c.124-.049.201-.106.27-.096.042.006.113.142.095.17-.038.06-.126.116-.196.119-.042.002-.089-.097-.169-.193Z" fill="#fff"/>
              </g>
              <g>
                <path d="M55.331,163.858c.532.02.781.516.717.841-.075.387-.426.66-.806.608-.4-.054-.678-.416-.626-.819.008-.065.027-.128.037-.193.085-.547.13-.577.677-.437Z" fill="#fff"/>
                <path d="M48.934,173.318c.076-.35.416-.573.771-.505.373.072.603.423.515.788-.083.344-.437.565-.784.491-.347-.074-.576-.428-.502-.774Z" fill="#fff"/>
                <path d="M56.686,171.979c.065-.293.294-.422.631-.356.324.064.532.369.462.68-.067.302-.368.487-.677.417-.323-.074-.497-.382-.417-.741Z" fill="#fff"/>
                <path d="M60.392,170.304c-.074.301-.359.476-.651.402-.289-.074-.462-.368-.39-.663.078-.319.373-.515.664-.44.293.075.456.379.377.701Z" fill="#fff"/>
                <path d="M52.888,167.667c.064-.293.356-.484.646-.424.294.061.482.352.416.647-.067.299-.347.482-.645.421-.301-.062-.483-.343-.417-.643Z" fill="#fff"/>
                <path d="M60.402,163.293c.07-.276.365-.442.644-.363.266.075.426.346.364.617-.065.286-.342.454-.63.381-.282-.071-.45-.354-.379-.635Z" fill="#fff"/>
                <path d="M50.699,176.446c-.273-.071-.43-.333-.365-.61.068-.288.345-.454.631-.377.271.073.431.34.367.612-.068.287-.345.451-.633.375Z" fill="#fff"/>
                <path d="M61.102,166.365c-.066.259-.312.412-.55.342-.247-.072-.408-.35-.347-.595.064-.253.302-.394.557-.332.263.065.409.315.34.584Z" fill="#fff"/>
                <path d="M47.076,171.574c.018-.074.028-.151.055-.222.083-.217.245-.309.466-.233.224.078.285.258.219.475-.035.113-.106.215-.144.328-.07.207-.2.32-.419.256-.222-.065-.262-.237-.207-.444.014-.053.026-.106.038-.159l-.009-.002Z" fill="#fff"/>
                <path d="M59.129,174.91c-.054.252-.296.419-.535.367-.241-.053-.413-.334-.357-.584.053-.235.321-.4.555-.341.241.061.39.307.336.558Z" fill="#fff"/>
                <path d="M47.902,163.27c-.279-.056-.444-.263-.403-.507.039-.229.283-.391.52-.345.239.046.504.456.446.691-.046.185-.209.232-.563.161Z" fill="#fff"/>
                <path d="M51.146,161.707c-.066.246-.322.393-.569.313-.258-.084-.368-.272-.316-.538.05-.255.298-.399.553-.334.253.065.398.31.332.559Z" fill="#fff"/>
                <path d="M45.577,166.586c.067-.235.337-.381.58-.312.247.07.375.296.304.538-.072.245-.329.389-.571.319-.229-.066-.376-.323-.313-.545Z" fill="#fff"/>
                <path d="M50.487,170.917c-.231-.055-.387-.298-.338-.528.051-.242.314-.395.56-.328.233.064.378.309.318.538-.06.227-.308.374-.54.319Z" fill="#fff"/>
                <path d="M51.666,165.166c.197.076.309.232.258.474-.046.221-.295.375-.504.307-.231-.074-.331-.248-.289-.484.039-.219.29-.361.535-.297Z" fill="#fff"/>
                <path d="M53.657,174.994c.068.161.196.325.191.484-.009.237-.217.324-.437.278-.227-.047-.36-.235-.284-.44.054-.146.247-.24.378-.357l.153.035Z" fill="#fff"/>
                <path d="M56.373,169.078c-.126-.238-.24-.373-.251-.515-.004-.056.228-.193.341-.181.2.021.3.191.217.392-.037.089-.145.149-.307.305Z" fill="#fff"/>
                <path d="M56.395,173.355c-.213.08-.351.183-.44.151-.095-.034-.144-.195-.213-.301.108-.066.223-.191.322-.18.095.011.173.164.331.33Z" fill="#fff"/>
                <path d="M52.527,172.741c.197-.075.322-.17.407-.142.088.029.137.177.203.273-.105.067-.211.185-.316.184-.077,0-.153-.156-.294-.315Z" fill="#fff"/>
                <path d="M45.505,172.776c.21-.079.342-.177.42-.145.087.036.169.191.167.293-.001.06-.181.172-.263.158-.093-.017-.166-.148-.324-.306Z" fill="#fff"/>
                <path d="M49.668,169.47c-.07-.204-.161-.333-.129-.412.035-.086.184-.125.284-.185.06.101.173.208.163.3-.01.084-.155.153-.317.296Z" fill="#fff"/>
                <path d="M49.694,167.292c-.074-.177-.166-.291-.14-.365.027-.078.177-.175.251-.159.074.016.171.166.164.249-.007.078-.136.145-.274.276Z" fill="#fff"/>
                <path d="M55.765,175.822c-.07-.179-.153-.288-.133-.37.018-.072.18-.177.231-.155.087.037.186.163.185.249-.001.073-.139.143-.283.276Z" fill="#fff"/>
                <path d="M53.996,176.182c.069.184.156.301.129.375-.031.082-.167.124-.257.183-.056-.092-.161-.19-.153-.276.008-.08.138-.147.281-.282Z" fill="#fff"/>
                <path d="M54.593,162.337c-.056-.144-.143-.261-.114-.315.043-.079.169-.113.259-.166.048.094.136.192.129.282-.005.06-.145.11-.275.199Z" fill="#fff"/>
                <path d="M59.412,162.274c-.158.049-.281.129-.338.096-.076-.044-.102-.176-.149-.271.09-.038.193-.121.268-.101.074.02.121.144.22.277Z" fill="#fff"/>
                <path d="M53.87,172.423c.139-.063.239-.146.293-.123.078.034.123.145.181.223-.085.046-.172.129-.256.127-.06-.001-.117-.116-.219-.227Z" fill="#fff"/>
                <path d="M55.062,170.399c.136-.058.22-.125.297-.116.047.005.131.154.112.186-.041.068-.136.133-.214.139-.047.004-.103-.105-.195-.209Z" fill="#fff"/>
              </g>
            </g>
          </g>
        </g>
      </g>
    </g>
  </g>
</svg>