<?xml version="1.0" encoding="UTF-8"?>
<svg xmlns="http://www.w3.org/2000/svg" width="300" height="300" xmlns:xlink="http://www.w3.org/1999/xlink" viewBox="0 0 300 300">
  <defs>
    <filter id="h" data-name="drop-shadow-1" x="171.361" y="93.058" width="60.377" height="96.618" filterUnits="userSpaceOnUse">
      <feOffset dx="-4" dy="0"/>
      <feGaussianBlur result="i" stdDeviation="0"/>
      <feFlood flood-color="#42496f" flood-opacity="1"/>
      <feComposite in2="i" operator="in"/>
      <feComposite in="SourceGraphic"/>
    </filter>
    <clipPath id="j">
      <polygon points="192.265 173.751 193.534 121.815 210.03 120.093 217.372 171.757 192.265 173.751" fill="none"/>
    </clipPath>
    <clipPath id="k">
      <path d="M226.843,187.392l-3.263-17.403s-19.306,3.716-21.209,3.807-18.853,2.175-18.853,2.175l-.906,12.871s44.504-1.722,44.232-1.45Z" fill="none"/>
    </clipPath>
  </defs>
  <g isolation="isolate">
    <g id="g" data-name="Calque 15">
      <g>
        <g filter="url(#h)">
          <polygon points="192.265 173.751 193.534 121.815 210.03 120.093 217.372 171.757 192.265 173.751" fill="#fff"/>
          <g clip-path="url(#j)">
            <polygon points="220.091 153.584 189.636 156.938 189.636 166.455 220.091 163.101 220.091 153.584" fill="#e86170"/>
            <polygon points="218.142 136 187.597 138.355 187.597 147.511 218.142 145.157 218.142 136" fill="#e86170"/>
            <polygon points="217.145 117.811 186.962 120.256 186.962 129.413 217.145 126.967 217.145 117.811" fill="#e86170"/>
            <path d="M211.767,118.548l.181,3.928s-8.46,7.916-21.935,8.943v-10.756l21.753-2.115Z" fill="#42496f"/>
            <path d="M195.059,119.202s9.487,19.155,11.602,50.879c4.834.242,17.161-2.054,17.161-2.054v10.877h-38.189v-58.855l9.426-.846Z" fill="#6498d1" mix-blend-mode="multiply" opacity=".25"/>
          </g>
          <g>
            <path d="M211.692,120.79l-19.912.189-.288-16.024c-.344-5.714,3.769-10.411,9.185-10.491h0c5.416-.079,10.086,4.489,10.429,10.203l.585,16.123Z" fill="#b1ddea"/>
            <path d="M202.517,94.557c-.007.784-.648,1.386-1.431,1.343s-1.414-.713-1.407-1.497c.007-.784.648-1.386,1.431-1.343s1.414.713,1.407,1.497Z" fill="#b1ddea"/>
            <g>
              <ellipse cx="196.451" cy="109.92" rx="2.74" ry="6.822" transform="translate(-7.484 14.6) rotate(-4.177)" fill="#ffd66e"/>
              <path d="M206.411,102.918c-6.088.115-4.429,13.713-9.523,13.809l-.875-13.613c5.214-.098,4.401,13.547,11.272,13.418" fill="#ffd66e"/>
              <ellipse cx="206.848" cy="109.724" rx="2.74" ry="6.822" transform="translate(-7.442 15.357) rotate(-4.177)" fill="#fff"/>
            </g>
            <path d="M208.423,119.985s-6.309-25.427-11.992-22.381c-4.358,2.336-4.183,6.589-4.183,8.436s.279,14.363.279,14.363l15.897-.418Z" fill="#6498d1" mix-blend-mode="multiply" opacity=".25"/>
            <path d="M188.371,120.148l-.233-5.757c-.037-.916.648-1.668,1.559-1.711l25.285-1.178c1.003-.047,1.869.779,1.876,1.787l.04,6.23" fill="none" stroke="#42496f" stroke-miterlimit="10" stroke-width=".468"/>
            <g>
              <line x1="214.466" y1="119.387" x2="214.435" y2="111.285" fill="none" stroke="#42496f" stroke-miterlimit="10" stroke-width=".468"/>
              <line x1="212.309" y1="119.468" x2="212.259" y2="111.431" fill="none" stroke="#42496f" stroke-miterlimit="10" stroke-width=".468"/>
              <line x1="210.152" y1="119.549" x2="210.083" y2="111.576" fill="none" stroke="#42496f" stroke-miterlimit="10" stroke-width=".468"/>
              <line x1="207.996" y1="119.63" x2="207.908" y2="111.722" fill="none" stroke="#42496f" stroke-miterlimit="10" stroke-width=".468"/>
              <line x1="205.839" y1="119.711" x2="205.732" y2="111.868" fill="none" stroke="#42496f" stroke-miterlimit="10" stroke-width=".468"/>
              <line x1="203.682" y1="119.791" x2="203.556" y2="112.013" fill="none" stroke="#42496f" stroke-miterlimit="10" stroke-width=".468"/>
              <line x1="201.525" y1="119.872" x2="201.381" y2="112.159" fill="none" stroke="#42496f" stroke-miterlimit="10" stroke-width=".468"/>
              <line x1="199.368" y1="119.953" x2="199.205" y2="112.305" fill="none" stroke="#42496f" stroke-miterlimit="10" stroke-width=".468"/>
              <line x1="197.211" y1="120.034" x2="197.029" y2="112.451" fill="none" stroke="#42496f" stroke-miterlimit="10" stroke-width=".468"/>
              <line x1="195.054" y1="120.115" x2="194.854" y2="112.596" fill="none" stroke="#42496f" stroke-miterlimit="10" stroke-width=".468"/>
              <line x1="192.898" y1="120.195" x2="192.678" y2="112.742" fill="none" stroke="#42496f" stroke-miterlimit="10" stroke-width=".468"/>
              <line x1="190.741" y1="120.276" x2="190.502" y2="112.888" fill="none" stroke="#42496f" stroke-miterlimit="10" stroke-width=".468"/>
            </g>
            <polygon points="187.649 119.486 187.74 122.163 217.703 121.605 217.735 118.749 187.649 119.486" fill="#fff"/>
          </g>
          <g>
            <path d="M231.738,186.123s-2.266-10.061-4.351-10.333-4.894,4.351-4.894,4.351l2.538,8.52,6.707-2.538Z" fill="#f4af13"/>
            <path d="M229.321,185.489s-.967-9.608-3.021-8.58c-2.054,1.027-3.505,3.988-3.505,3.988l2.538,6.043,3.988-1.45Z" fill="#f4af13" mix-blend-mode="multiply" opacity=".25"/>
            <path d="M226.843,187.392l-3.263-17.403s-19.306,3.716-21.209,3.807-18.853,2.175-18.853,2.175l-.906,12.871s44.504-1.722,44.232-1.45Z" fill="#ffd66e"/>
            <g clip-path="url(#k)">
              <path d="M179.43,189.674c2.712-.491,6.747-.318,6.747-.318,0,0,.242-8.46,1.372-9.768,1.592-.391,5.949-.881,5.949-.881l-3.095,2.294c2.468-.641,5.795-1.795,6.844-2.451s4.395-.393,4.395-.393c-.991,1.081-1.007,3.027-1.007,3.027,0,0,4.473-2.97,5.286-4.271-.285,1.303.35,3.672.35,3.672,0,0,1.265-1.46,1.514-2.266l.094,1.577s1.868-2.419,2.093-3.619c0,0,1.909,2.722,3.984,3.225,0,0-1.025-1.72-.879-3.146,0,0,1.91,1.073,4.328,1.259,0,0-1.569-1.984-1.658-2.935,4.322-2.169,10.341.341,13.262-2.107l-.578-9.721-49.4,2.937s.418,24.163.401,23.885Z" fill="#f4af13" mix-blend-mode="multiply" opacity=".25"/>
            </g>
            <path d="M175.361,188.118s7.704-5.076,9.789-4.894,4.713,4.532,4.713,4.532l-14.502.363Z" fill="#f4af13"/>
            <path d="M204.281,172.206s-9.874.099-12.639.527-9.808,1.909-11.717,2.501c.922.658,2.962.79,2.962.79,0,0-1.777,1.843-2.765,2.107,4.378-.527,5.431-1.613,7.044-1.909s5.99-.527,5.99-.527l-3.226,2.107c2.501-.494,5.892-1.448,6.978-2.041,1.086-.592,4.411-.132,4.411-.132-1.053,1.02-1.185,2.962-1.185,2.962,0,0,4.641-2.699,5.53-3.95-.362,1.284.132,3.686.132,3.686,0,0,1.349-1.382,1.646-2.172v1.58s2.008-2.304,2.304-3.489c0,0,1.744,2.831,3.785,3.456,0,0-.922-1.777-.691-3.193,0,0,1.843,1.185,4.246,1.514,0,0-1.448-2.074-1.481-3.028,4.443-1.909,10.302.955,13.363-1.317-2.403-.165-4.707-1.349-4.707-1.349,0,0,1.942.263,2.929-1.152-1.81-.263-3.555-.461-6.188.099s-11.323,2.633-15.404,2.995c-.494-1.251-2.501-1.679-2.501-1.679l1.185,1.613Z" fill="#93d1ad"/>
          </g>
        </g>
        <path d="M172.718,187.215s9.87,2.137,18.316-4.884c0,0,1.933,7.225,12.618,1.628,0,0,7.021,4.07,15.263-.611,0,0,6.105,4.07,11.193-.814,0,0,4.681,2.442,9.565,2.442v8.954h-67.565l.611-6.716Z" fill="#6498d1"/>
        <g opacity=".5">
          <path d="M230.108,182.535c-1.562,1.499-3.219,2.15-4.766,2.339.664.19,1.36.318,2.097.318,1.279,0,2.462-.326,3.479-.863.72.181,1.485.295,2.295.295.702,0,1.366-.095,2.003-.233-2.931-.722-5.107-1.856-5.107-1.856Z" fill="#fff"/>
          <path d="M209.85,185.569c-3.723-.191-6.198-1.609-6.198-1.609-1.204.631-2.282,1.078-3.273,1.412.956-.012,1.862-.127,2.684-.328,1.083.615,2.458,1,3.977,1,1.016,0,1.961-.181,2.809-.474Z" fill="#fff"/>
          <path d="M182.668,187.273c2.738,0,5.22-.606,7.073-1.587,1.036.513,2.211.83,3.481.83.948,0,1.849-.172,2.679-.469-3.961-.362-4.866-3.716-4.866-3.716-3.528,2.933-7.297,4.257-10.499,4.817.689.082,1.402.126,2.133.126Z" fill="#fff"/>
        </g>
      </g>
    </g>
  </g>
</svg>