<?xml version="1.0" encoding="UTF-8"?>
<svg xmlns="http://www.w3.org/2000/svg" width="300" height="300" xmlns:xlink="http://www.w3.org/1999/xlink" viewBox="0 0 300 300">
  <defs>
    <filter id="q" data-name="drop-shadow-1" x="39.451" y="71.585" width="75.021" height="115.193" filterUnits="userSpaceOnUse">
      <feOffset dx="-4" dy="0"/>
      <feGaussianBlur result="r" stdDeviation="0"/>
      <feFlood flood-color="#42496f" flood-opacity="1"/>
      <feComposite in2="r" operator="in"/>
      <feComposite in="SourceGraphic"/>
    </filter>
    <clipPath id="s">
      <path d="M79.588,123.795s.097-25.79.581-27.871c0,0,3.484-4.984,1.258-6.677-2.226-1.694-4.065.29-4.065.29,0,0-.919-1.016-1.645-.581s-1.887,5.516-.194,6.871-3.532,34.984-3.774,41.032l7.839-13.065Z" fill="none"/>
    </clipPath>
    <clipPath id="t">
      <path d="M66.292,167.857v-4.584h-1.363l2.057-8.243h-.765s3.072-16.649,5.577-21.267c3.097-5.71,3.29-7.548,6.774-10.935,0-.048.484.097.484.097l-2.419,7.645s7.79-3.581,9.194-8.226l3.504,2.023s-.56,21.88,0,24.154l-.794.581v9.581l-.871.581,2.613,7.839-23.99.755Z" fill="none"/>
    </clipPath>
    <clipPath id="u">
      <path d="M85.443,124.424s-.888-1.403-.162-3.726l-5.548-.242-1.742,4.645-1.935,5.806s7.548-.629,9.387-6.484Z" fill="none"/>
    </clipPath>
    <clipPath id="v">
      <polygon points="83.895 127.424 82.637 143.005 72.959 142.134 73.83 127.134 83.895 127.424" fill="none"/>
    </clipPath>
    <clipPath id="w">
      <path d="M80.121,108.263s-3.242,2.081-2.516,3.871c-1.742,2.71-1.984,9.048,1.258,9.387,3.242.339,8.081-.048,10.258-2.806,0,0,2.226-.532,1.935-1.935.339-.194,1.258-3.532.581-5.613-.677-2.081-3.968-6.532-11.516-2.903Z" fill="none"/>
    </clipPath>
  </defs>
  <g isolation="isolate">
    <g id="p" data-name="Calque 7">
      <g filter="url(#q)">
        <path d="M114.472,182.075c0,1.188-4.544,1.2-10.331,2.012-6.492.911.248,3.283-25.18,2.553-19.604-.563-35.511-2.044-35.511-4.566,0-1.643,14.34-3.666,35.511-4.566,19.594-.833,35.511,2.044,35.511,4.566Z" fill="#93d1ad"/>
        <g>
          <rect x="77.411" y="86.585" width="2.516" height="4.935" fill="#93d1ad"/>
          <path d="M81.862,83.392s2.419-1.5,1.548-4.645-5.71-4.065-4.161-7.161c-3.097,2.371-7.742,5.903-3.484,11.806h6.097Z" fill="#93d1ad"/>
          <path d="M81.862,83.392s2.419-1.5,1.548-4.645-5.71-4.065-4.161-7.161c-3.097,2.371-7.742,5.903-3.484,11.806h6.097Z" fill="#fff" opacity=".25"/>
          <path d="M77.411,88.378v3.143h2.516v-3.985c-1.14-.186-2.027.397-2.516.841Z" fill="#42496f"/>
          <rect x="78.379" y="83.392" width=".968" height="2.032" fill="#93d1ad"/>
          <polygon points="79.346 84.602 78.354 84.075 78.379 83.392 79.346 83.392 79.346 84.602" fill="#42496f"/>
          <rect x="74.121" y="82.908" width="8.71" height=".774" fill="#93d1ad"/>
          <path d="M82.83,82.908s2.903-2.371,2.226-3.097-4.452,3.581-4.452,3.581l2.226-.484Z" fill="#93d1ad"/>
          <path d="M74.121,82.908s-4.306-2.758-3.194-3.194c1.113-.435,5.71,3.29,5.71,3.29l-2.516-.097Z" fill="#93d1ad"/>
          <path d="M80.808,83.102s.599-4.694-.277-4.742c-.876-.048-1.475,4.839-1.475,4.839l1.752-.097Z" fill="#93d1ad"/>
          <path d="M77.03,83.102s-.599-4.694.277-4.742,1.475,4.839,1.475,4.839l-1.752-.097Z" fill="#93d1ad"/>
          <path d="M84.446,80.639c-.35-.519-2.263,1.546-2.984,2.358h-.843c.064-.642.354-3.838-.21-3.875-.544-.035-.938,3.054-1.033,3.875h-1.001c-.083-.707-.479-3.819-1.031-3.784-.575.036-.255,3.291-.204,3.784h-.957c-.664-.525-3.45-2.675-4.193-2.384-.777.304,1.917,2.094,2.36,2.384h-.041v.547h8.335v-.413c.527-.457,2.169-1.95,1.804-2.492Z" fill="#93d1ad" mix-blend-mode="multiply" opacity=".25"/>
          <path d="M78.766,84.747c-1.979.132-1.935,2.71-1.935,2.71l3.774-.097s.339-2.758-1.839-2.613Z" fill="#93d1ad"/>
          <path d="M79.588,123.795s.097-25.79.581-27.871c0,0,3.484-4.984,1.258-6.677-2.226-1.694-4.065.29-4.065.29,0,0-.919-1.016-1.645-.581s-1.887,5.516-.194,6.871-3.532,34.984-3.774,41.032l7.839-13.065Z" fill="#93d1ad"/>
          <g clip-path="url(#s)">
            <path d="M73.492,133.666s3-32.419,6.387-34.065l2.323,31.161-8.71,2.903Z" fill="#93d1ad" mix-blend-mode="multiply" opacity=".5"/>
          </g>
        </g>
        <path d="M66.292,167.857v-4.584h-1.363l2.057-8.243h-.765s3.072-16.649,5.577-21.267c3.097-5.71,3.29-7.548,6.774-10.935,0-.048.484.097.484.097l-2.419,7.645s7.79-3.581,9.194-8.226l3.504,2.023s-.56,21.88,0,24.154l-.794.581v9.581l-.871.581,2.613,7.839-23.99.755Z" fill="#93d1ad"/>
        <g clip-path="url(#t)">
          <path d="M89.698,168.912c-.125-.314-2.507-8.734-2.507-8.734l1.537-.97-.93-8.815,2.143-2.062-1.32-17.094s-3.762,7.274-9.28,6.145-6.521-.627-6.521-.627l-1.129,9.155,5.769.502s2.281,1.847,3.511,2.508c-2.006,2.508-8.778,5.33-17.181,6.584l-.627,1.317s14.422-1.003,18.811-3.01l1.63,5.142s-13.857,4.515-22.448,4.891v6.019l28.541-.949Z" fill="#93d1ad" mix-blend-mode="multiply" opacity=".5"/>
          <path d="M71.895,134.972s-.653,2.069-.109,3.738c.544,1.669.98,1.27.98,1.27l-.218,3.411,11.25,1.016.218-2.976s2.032,1.524,8.129,1.016v-6.532l-20.25-.944Z" fill="#42496f"/>
          <path d="M77.869,127.19l7.111-.36-.54,6.391s.63.855,1.35-.72c.72-1.575,2.34-5.491,2.34-5.491l-.09,8.732-9.812,1.17-.36-9.722Z" fill="#93d1ad" mix-blend-mode="multiply" opacity=".5"/>
        </g>
        <g>
          <path d="M85.443,124.424s-.888-1.403-.162-3.726l-5.548-.242-1.742,4.645-1.935,5.806s7.548-.629,9.387-6.484Z" fill="#93d1ad"/>
          <path d="M85.443,124.424s-.888-1.403-.162-3.726l-5.548-.242-1.742,4.645-1.935,5.806s7.548-.629,9.387-6.484Z" fill="#fff" opacity=".25"/>
          <g clip-path="url(#u)">
            <path d="M85.977,119.787s.391,2.571-7.41,3.297l.603-2.433,6.807-.864Z" fill="#42496f"/>
          </g>
        </g>
        <g>
          <polygon points="83.895 127.424 82.637 143.005 72.959 142.134 73.83 127.134 83.895 127.424" fill="#93d1ad"/>
          <polygon points="83.895 127.424 82.637 143.005 72.959 142.134 73.83 127.134 83.895 127.424" fill="#fff" opacity=".15"/>
          <g clip-path="url(#v)">
            <path d="M83.653,142.303s.189-12.916-.508-13.065c-4.101-.871-7.476,2.238-9.798,9.121l-.798,5.032,11.25,1.016-.145-2.105Z" fill="#93d1ad" mix-blend-mode="multiply" opacity=".25"/>
          </g>
        </g>
        <path d="M89.024,125.489c2.674,1.684,6.29,10.258,3.677,14.226s-10.79,0-13.742-1.258c-2.952-1.258-5.613-.097-5.613-.097v.871s-1.113-.339-1.161-.774-1.839-6.919.968-7.548,4.742.774,4.742.774c.871,1.403-.581,1.984.871,2.613s6.919.823,7.742-1.548c.823-2.371,1.21-8.081,2.516-7.258Z" fill="#93d1ad"/>
        <g>
          <path d="M88.257,117.564c1.285.66,2.744,1.077,1.737,2.64-1.007,1.563-3.82,2.501-4.168,1.598-.347-.903.347-2.987.347-2.987l2.084-1.25Z" fill="#93d1ad"/>
          <path d="M87.691,117.564c.997.609,2.129.994,1.348,2.437s-2.965,2.308-3.234,1.475c-.27-.834.27-2.757.27-2.757l1.617-1.154Z" fill="#42496f"/>
          <path d="M80.121,108.263s-3.242,2.081-2.516,3.871c-1.742,2.71-1.984,9.048,1.258,9.387,3.242.339,8.081-.048,10.258-2.806,0,0,2.226-.532,1.935-1.935.339-.194,1.258-3.532.581-5.613-.677-2.081-3.968-6.532-11.516-2.903Z" fill="#93d1ad"/>
          <g clip-path="url(#w)">
            <path d="M77.604,112.134s3.719-.762,5.038-2.667c0,0,.674,2.946,5.745,5.276,0,0-.835,2.536-.264,2.638s1.554-1.642,1.554-1.642c0,0,.997-.454,1.627,1.642,0,0,2.594-4.998,2.594-5.394s-4.045-8.061-4.045-8.061l-8.354.235-5.423,4.221,1.528,3.752Z" fill="#fff" opacity=".25"/>
          </g>
          <path d="M92.217,112.811s-4.548-5.468-13.21-3.968l.435-.968s-4.742-4.403-4.065-5.032c.677-.629,6.29,4.258,6.29,4.258,0,0,7.113-1.984,10.548,5.71Z" fill="#93d1ad"/>
          <path d="M83.798,107.779s-2.274-8.323-.968-8.806c1.306-.484,3,9,3,9l-2.032-.194Z" fill="#93d1ad"/>
          <path d="M87.379,108.456s1.21-7.79,2.032-7.839c.823-.048-.194,8.613-.194,8.613l-1.839-.774Z" fill="#93d1ad"/>
          <path d="M88.988,108.706c.164-1.704.641-7.084.099-7.048-.507.034-1.201,4.297-1.472,6.097-.805-.417-1.614-.631-2.363-.726-.412-2.256-1.443-7.364-2.283-7.024-.842.34.122,4.987.58,6.988-.977.082-1.628.302-1.628.302,0,0-4.938-4.032-5.534-3.435-.596.597,3.576,4.247,3.576,4.247l-.383.884c7.62-1.812,11.622,2.795,11.622,2.795-.626-1.377-1.394-2.359-2.213-3.078Z" fill="#93d1ad" mix-blend-mode="multiply" opacity=".25"/>
        </g>
        <g>
          <rect x="62.761" y="165.007" width="31.589" height="12.59" fill="#b1ddea"/>
          <rect x="82.83" y="165.007" width="11.519" height="12.59" fill="#9bc8ec" mix-blend-mode="multiply" opacity=".5"/>
          <rect x="59.787" y="176.158" width="37.045" height="3.841" fill="#9bc8ec"/>
          <rect x="80.75" y="176.158" width="16.082" height="3.841" fill="#9bc8ec" mix-blend-mode="multiply" opacity=".5"/>
        </g>
        <g>
          <path d="M77.943,113.658s-.968,1.911.532,1.984c1.5.073,1.79-1.645,1.79-1.645" fill="none" stroke="#336a9b" stroke-linecap="round" stroke-linejoin="round" stroke-width=".375"/>
          <path d="M82.153,113.997s-.968,1.911.532,1.984c1.5.073,1.79-1.645,1.79-1.645" fill="none" stroke="#336a9b" stroke-linecap="round" stroke-linejoin="round" stroke-width=".375"/>
          <line x1="83.895" y1="115.497" x2="84.766" y2="115.932" fill="none" stroke="#336a9b" stroke-linecap="round" stroke-linejoin="round" stroke-width=".375"/>
          <line x1="84.33" y1="114.819" x2="85.153" y2="115.061" fill="none" stroke="#336a9b" stroke-linecap="round" stroke-linejoin="round" stroke-width=".375"/>
          <line x1="77.653" y1="114.819" x2="76.637" y2="114.916" fill="none" stroke="#336a9b" stroke-linecap="round" stroke-linejoin="round" stroke-width=".375"/>
          <line x1="77.75" y1="113.997" x2="76.879" y2="113.852" fill="none" stroke="#336a9b" stroke-linecap="round" stroke-linejoin="round" stroke-width=".375"/>
          <path d="M78.862,117.432s-.266,2.613.387,2.71,1.645-2.613,1.645-2.613l-2.032-.097Z" fill="#336a9b"/>
        </g>
      </g>
    </g>
  </g>
</svg>