<?xml version="1.0" encoding="UTF-8"?><svg xmlns="http://www.w3.org/2000/svg" xmlns:xlink="http://www.w3.org/1999/xlink" viewBox="0 0 300 300"><defs><style>.cls-1{filter:url(#drop-shadow-2);}.cls-1,.cls-2{fill:#ffd66e;}.cls-3{fill:#fff;}.cls-4{fill:none;}.cls-5{clip-path:url(#clippath-1);}.cls-6{filter:url(#drop-shadow-1);}.cls-7{isolation:isolate;}.cls-8{clip-path:url(#clippath-3);}.cls-9{fill:#f4af13;mix-blend-mode:multiply;opacity:.5;}.cls-10{filter:url(#drop-shadow-3);}.cls-11{clip-path:url(#clippath-2);}.cls-12{fill:#93d1ad;}.cls-13{clip-path:url(#clippath);}</style><clipPath id="clippath"><path class="cls-4" d="M18.28,46.19h112.77v135.2h-10.63c-.51,1.18-2.3,2.06-4.46,2.06-1.07,0-2.05-.23-2.83-.59-.96.36-2.07.59-3.26.59-1.56,0-2.97-.37-4.09-.96-1.16.6-2.54.96-4.03.96-1.23,0-2.37-.26-3.38-.68-1.56.43-3.46.68-5.51.68-1.94,0-3.74-.23-5.25-.61-.79.38-1.78.61-2.88.61s-2.05-.23-2.83-.59c-.96.36-2.07.59-3.26.59-1.56,0-2.97-.37-4.09-.96-1.16.6-2.54.96-4.03.96-1.23,0-2.37-.26-3.38-.68-1.56.43-3.46.68-5.51.68-1.46,0-2.84-.13-4.08-.36-1.24.23-2.62.36-4.08.36-2.05,0-3.95-.25-5.51-.68-1.02.42-2.16.68-3.38.68-1.49,0-2.87-.36-4.03-.96-1.12.59-2.53.96-4.09.96-1.2,0-2.3-.22-3.26-.59-.78.36-1.76.59-2.83.59-2.16,0-3.95-.88-4.46-2.06h-7.61V46.19Z"/></clipPath><filter id="drop-shadow-1" x="15.72" y="88.22" width="102.82" height="106.73" filterUnits="userSpaceOnUse"><feOffset dx="-4" dy="0"/><feGaussianBlur result="blur" stdDeviation="0"/><feFlood flood-color="#42496f" flood-opacity="1"/><feComposite in2="blur" operator="in"/><feComposite in="SourceGraphic"/></filter><clipPath id="clippath-1"><path class="cls-4" d="M32.34,95.64c24.49-.4,48.98-.06,73.45,1.01l.63.54c1.5,7.22,2.7,25.59,2.7,25.59,0,0,.04,2.21.06,3.32.09,5.23.19,10.46.16,15.69-.01,2.7.95,7.99.95,7.99,0,0,2.65,6.43,2.98,7.97,1.99,9.11,3.75,18.28,5.27,27.48-29.01-.2-58.01,1.44-86.86-1.53-.87-28.28-1.73-59.87.66-88.07Z"/></clipPath><filter id="drop-shadow-2" x="108.39" y="159.16" width="17.06" height="27.43" filterUnits="userSpaceOnUse"><feOffset dx="-4" dy="0"/><feGaussianBlur result="blur-2" stdDeviation="0"/><feFlood flood-color="#42496f" flood-opacity="1"/><feComposite in2="blur-2" operator="in"/><feComposite in="SourceGraphic"/></filter><clipPath id="clippath-2"><path class="cls-4" d="M87.6,70.92H-8.92v115.71H.18c.43,1.01,1.97,1.77,3.82,1.77.92,0,1.75-.19,2.42-.5.82.31,1.77.5,2.79.5,1.33,0,2.54-.32,3.5-.82.99.52,2.18.82,3.45.82,1.05,0,2.03-.22,2.9-.58,1.34.37,2.96.58,4.72.58,1.66,0,3.2-.19,4.49-.52.68.32,1.53.52,2.46.52s1.75-.19,2.42-.5c.82.31,1.77.5,2.79.5,1.33,0,2.54-.32,3.5-.82.99.52,2.18.82,3.45.82,1.05,0,2.03-.22,2.9-.58,1.34.37,2.96.58,4.72.58,1.25,0,2.43-.11,3.49-.31,1.06.19,2.24.31,3.49.31,1.76,0,3.38-.22,4.72-.58.87.36,1.85.58,2.9.58,1.28,0,2.46-.31,3.45-.82.96.51,2.16.82,3.5.82,1.02,0,1.97-.19,2.79-.5.67.31,1.5.5,2.42.5,1.85,0,3.38-.75,3.82-1.77h6.52v-115.71Z"/></clipPath><filter id="drop-shadow-3" x="17.31" y="104.58" width="43.47" height="86.36" filterUnits="userSpaceOnUse"><feOffset dx="-4" dy="0"/><feGaussianBlur result="blur-3" stdDeviation="0"/><feFlood flood-color="#42496f" flood-opacity="1"/><feComposite in2="blur-3" operator="in"/><feComposite in="SourceGraphic"/></filter><clipPath id="clippath-3"><path class="cls-4" d="M52.98,110.54c-1.73.1-3.45.36-5.13.79l-20.29.39c-.18,10.15-.37,20.3-.55,30.45-.02,1.06-.04,2.14-.26,3.18-.34,1.66-1.17,3.18-1.68,4.79-.72,2.31-.77,4.77-.85,7.19-.32,10.31-1.36,22.19-2.8,32.41,11.67-.82,23.5,1.87,35.17,1.04.49-8.62.53-22.36.44-30.99-1.35-16.42-2.71-32.83-4.06-49.25Z"/></clipPath></defs><g class="cls-7"><g id="Calque_8"><g class="cls-13"><g class="cls-6"><path class="cls-2" d="M32.34,95.64c24.49-.4,48.98-.06,73.45,1.01l.63.54c1.5,7.22,2.7,25.59,2.7,25.59,0,0,.04,2.21.06,3.32.09,5.23.19,10.46.16,15.69-.01,2.7.95,7.99.95,7.99,0,0,2.65,6.43,2.98,7.97,1.99,9.11,3.75,18.28,5.27,27.48-29.01-.2-58.01,1.44-86.86-1.53-.87-28.28-1.73-59.87.66-88.07Z"/><g class="cls-5"><path class="cls-9" d="M26.4,136.56c.37-1.6.79-3.2.94-4.84.18-1.85.01-3.71-.11-5.56-.72-10.95.02-21.99,2.18-32.74,2.6.97,4.83-1.96,7.29-3.23,1.74-.9,3.78-.96,5.74-1.01,11.21-.26,22.42-.51,33.62-.77,10.62-.24,21.31-.48,31.82,1.06l3.45,12.58-3.63-1.77,3.58,7.1c-2.28-1.51-4.55-3.02-6.83-4.52.47,1.19.95,2.39,1.42,3.58-1.05-.74-2.1-1.49-3.15-2.23.09.84.17,1.68.26,2.52-5.39-3.31-12.27-4.08-18.27-2.04.36.74.72,1.47,1.08,2.21-1.58-.93-3.15-1.86-4.73-2.79.12,1.59-1.64,2.75-3.24,2.82-1.6.08-3.15-.53-4.74-.65-5.11-.39-9.77,4.19-14.83,3.35.32,13.53,2.44,25.66,3.23,36.61,3.57,1.53,6.62,3.12,8.58,7.27,2.87,13.09,5.41,27.58,7.52,41.46-15.62-.79-31.24-1.59-46.86-2.38-.88-.04-1.86-.13-2.46-.77-.48-.51-.6-1.25-.71-1.95-2.59-17.69-5.16-35.86-1.19-53.29Z"/></g><path class="cls-12" d="M29.58,97.44c-3.65.39-6.23,1.16-9.86,2.22,3.2-2.94,7.37-4.21,11.76-4.78-.89-.53-1.29-1.37-1.72-2.23,1.24.86,2.61,1.54,4.04,2,.4-.03.79-.06,1.19-.08-.42-.67-.8-1.37-1.09-2.1,1.31.92,2.8,1.56,4.36,1.93.3-.26.63-.48.99-.65,0,0,0,0,0,0-.65-.73-.91-1.56-1.07-2.69.96,1.24,2.53,1.85,4.06,2.21.88.2,1.78.35,2.66.53.32,0,.63,0,.95,0-.24-.24-.41-.54-.48-.87.55.29,1.11.59,1.66.88.1,0,.2,0,.3,0l-.15-.26c.15.09.3.18.45.27,16.86.14,33.72.28,50.58.41.52,0,1.04.01,1.57.02,1.63-.36,3.19-1.03,4.56-1.98-.29.74-.67,1.43-1.09,2.1.4.02.8.05,1.19.08,1.44-.46,2.8-1.14,4.04-2-.42.86-.83,1.71-1.72,2.23h.01c4.38.57,8.55,1.84,11.75,4.78-3.63-1.06-6.22-1.83-9.86-2.22,1.79,1.4,3.18,3.29,4,5.4-4.02-1.69-8.04-3.38-12.05-5.07,1.32.6,2.25,1.98,2.3,3.43-2.19-.88-4.38-1.77-6.56-2.65-.48.95-1.86.98-2.95.84-1.82-.24-3.64-.47-5.45-.71-.89-.12-1.86-.22-2.64.24-.78.46-1.11,1.72-.38,2.25-3.24-1.27-6.49-2.55-9.73-3.82,1.55,1.82,1.98,4.03,1.98,5.47-2.46-1.49-4.93-2.98-7.39-4.48-.42,1.83-1.71,3.44-3.41,4.24-1.33-1.54-3-2.78-4.86-3.61.27.84.29,1.75.06,2.6-1.49-.89-2.99-1.79-4.48-2.68-.58,1.45-1.16,2.91-1.75,4.36-1.87-2.84-5.34-4.3-8.74-4.57-.29-.02-.59-.03-.88-.04l-.9.95c-1.04.13-2.34.1-2.87-.73-.17.02-.34.04-.51.07-2.04.83-4.08,1.65-6.13,2.48.03-.93.42-1.82,1.04-2.51,0-.13,0-.26,0-.4-3.6,1.51-7.2,3.03-10.79,4.54.82-2.12,2.22-4,4-5.4Z"/></g></g><path class="cls-1" d="M121.08,161.75c-.36-1.15-.99-2.51-2.2-2.59-1.5-.1-2.22,1.78-2.47,3.26-1.18,6.96-2.35,13.92-3.53,20.89-.17.99-.33,1.97-.5,2.96l13.06.33c-.39-8.42-1.86-16.79-4.37-24.84Z"/><path class="cls-3" d="M105.52,187.39s9.42-6.89,11.08-12.51c0,0-1.74,9.5-1.27,10.61.47,1.11,8.23-3.32,8.23-3.32,0,0,3.14,4.47,6.36,4.29-7.71,2.36-8.1.14-8.1.14,0,0-5.86,2.22-9.02,1.74s-1.42-2.37-1.42-2.37c0,0-2.14,1.5-5.86,1.42Z"/><path class="cls-3" d="M116.53,174.14c.18-.47.7-.55.97-.39.32.18.46.58.3.9-.17.34-.58.48-.92.32-.06-.03-.11-.06-.16-.09-.47-.24-.48-.29-.19-.74Z"/><path class="cls-3" d="M123.09,182.7c-.29-.17-.39-.54-.22-.84.18-.31.56-.41.86-.23.28.18.38.56.21.85-.17.29-.56.39-.84.22Z"/><path class="cls-3" d="M124.21,175.35c-.24-.15-.29-.39-.13-.67.15-.27.49-.37.75-.21.25.15.33.48.17.73-.16.27-.49.33-.79.15Z"/><path class="cls-3" d="M123.82,171.53c.25.16.32.46.17.7-.15.24-.47.3-.71.15-.26-.17-.35-.49-.2-.73.15-.24.48-.3.74-.13Z"/><path class="cls-3" d="M119.21,177.47c-.24-.15-.33-.46-.19-.71.14-.25.46-.33.7-.18.25.15.33.46.18.7-.15.25-.45.33-.7.18Z"/><path class="cls-3" d="M117.54,169.42c-.23-.15-.29-.46-.13-.69.15-.22.44-.28.66-.14.24.14.3.44.15.68-.15.23-.45.3-.68.15Z"/><path class="cls-3" d="M126.42,182.06c-.15.22-.43.29-.66.14-.24-.15-.3-.45-.15-.68.15-.22.43-.28.66-.15.24.15.3.44.15.68Z"/><path class="cls-3" d="M120.5,169.71c.21.14.28.4.14.6-.14.2-.44.26-.64.13-.21-.13-.26-.39-.13-.6.14-.22.41-.27.63-.13Z"/><path class="cls-3" d="M120.97,183.85c-.06-.04-.13-.07-.18-.12-.17-.14-.2-.31-.07-.49.14-.18.32-.18.49-.05.09.06.16.16.25.23.16.12.23.28.1.45-.12.18-.29.16-.46.05-.04-.03-.09-.05-.13-.08h0Z"/><path class="cls-3" d="M127.57,174.04c.21.12.29.39.17.59-.12.2-.42.27-.63.15-.2-.12-.26-.41-.14-.6.13-.2.39-.26.6-.13Z"/><path class="cls-3" d="M113.78,180.62c-.13.23-.37.32-.57.21-.19-.1-.27-.37-.15-.57.11-.2.56-.31.75-.19.15.1.15.26-.02.55Z"/><path class="cls-3" d="M113.35,177.25c.2.13.26.41.11.6-.15.21-.35.25-.58.12-.21-.12-.27-.39-.13-.6.13-.21.4-.26.6-.13Z"/><path class="cls-3" d="M116.05,183.7c-.19-.13-.24-.42-.11-.61.14-.2.38-.25.57-.11.2.14.25.41.12.61-.13.19-.4.24-.58.12Z"/><path class="cls-3" d="M121.41,180.59c-.12.19-.38.26-.57.15-.2-.12-.26-.4-.13-.6.13-.19.39-.25.58-.12.19.12.24.39.12.58Z"/><path class="cls-3" d="M116.6,177.82c.13-.15.3-.21.5-.09.18.11.25.38.12.54-.14.18-.32.22-.52.11-.18-.1-.24-.37-.11-.57Z"/><path class="cls-3" d="M126.01,178.97c.17-.01.35-.08.49-.03.21.08.23.29.12.48-.11.19-.32.25-.48.12-.11-.09-.14-.29-.21-.45l.08-.13Z"/><path class="cls-3" d="M121.52,174.77c-.25.04-.41.1-.54.07-.05-.01-.11-.26-.06-.36.08-.17.26-.21.42-.08.07.06.09.17.18.37Z"/><path class="cls-3" d="M125.36,176.02c0,.22.06.37,0,.44-.06.07-.22.07-.33.1-.03-.12-.1-.26-.06-.34.04-.08.2-.11.39-.2Z"/><path class="cls-3" d="M123.65,179.31c0-.2-.06-.34,0-.41.05-.07.2-.07.31-.1.03.11.1.24.07.34-.02.07-.19.09-.37.17Z"/><path class="cls-3" d="M121.58,185.61c0-.21-.06-.36,0-.42.06-.07.22-.09.31-.06.05.02.1.21.06.28-.04.08-.18.1-.37.2Z"/><path class="cls-3" d="M119.86,180.89c-.2,0-.35.05-.41,0-.07-.06-.06-.2-.08-.31.11-.02.24-.09.32-.06.07.03.09.18.17.37Z"/><path class="cls-3" d="M117.92,180.22c-.18.01-.31.06-.37.02-.06-.05-.1-.21-.07-.27.04-.06.2-.1.27-.07.07.03.09.17.17.33Z"/><path class="cls-3" d="M127.38,177.33c-.18,0-.3.05-.37,0-.06-.04-.1-.21-.07-.25.06-.07.2-.12.28-.09.06.02.09.17.16.34Z"/><path class="cls-3" d="M127.17,179.02c.19,0,.32-.05.37,0,.06.05.06.19.09.29-.1.02-.22.09-.29.05-.07-.03-.09-.17-.17-.34Z"/><path class="cls-3" d="M114.94,174.35c-.15,0-.28.05-.32,0-.06-.06-.05-.18-.07-.28.1-.01.21-.06.29-.03.05.02.06.16.1.31Z"/><path class="cls-3" d="M116.33,170.01c0,.16.03.29-.02.33-.06.06-.19.04-.29.05,0-.09-.05-.21-.01-.27.04-.06.17-.07.31-.11Z"/><path class="cls-3" d="M123.77,178.01c-.01-.14-.06-.26-.02-.3.05-.06.17-.07.25-.1.02.09.06.19.04.27-.02.05-.14.07-.27.13Z"/><path class="cls-3" d="M122.31,176.34c-.01-.14-.05-.23-.02-.3.02-.04.18-.07.2-.04.05.06.08.16.06.23-.01.04-.13.06-.25.11Z"/><g class="cls-11"><g class="cls-10"><path class="cls-2" d="M52.98,110.54c-1.73.1-3.45.36-5.13.79l-20.29.39c-.18,10.15-.37,20.3-.55,30.45-.02,1.06-.04,2.14-.26,3.18-.34,1.66-1.17,3.18-1.68,4.79-.72,2.31-.77,4.77-.85,7.19-.32,10.31-1.36,22.19-2.8,32.41,11.67-.82,23.5,1.87,35.17,1.04.49-8.62.53-22.36.44-30.99-1.35-16.42-2.71-32.83-4.06-49.25Z"/><g class="cls-8"><path class="cls-9" d="M28.41,108.73c-2,3.07-3.41,6.52-4.14,10.1,1.95-1.09,3.89-2.18,5.84-3.27-1.17,2.19-1.89,4.63-2.1,7.1,1.15-1.15,2.33-2.26,3.54-3.35.04.69.08,1.38.12,2.07.85-.76,1.7-1.53,2.54-2.29.46,1.06,1.98.93,3.11.68,4.29-.93,8.78-.9,13.05.08,2.58.59,5.15,1.53,7.79,1.29-.79-3.91-2.02-7.74-3.64-11.39-.37-.83-.77-1.66-1.42-2.29-.9-.87-2.15-1.24-3.37-1.52-6.38-1.48-13.01-1.43-19.57-1.36-.96,0-1.96.03-2.84.43-2.04.93-2.67,3.47-3.05,5.68"/><path class="cls-9" d="M25.53,148.23c.82.19,1.53.69,2.15,1.26,3.21,2.94,4.34,7.45,5.32,11.69-.08-4.63-.57-9.26-1.46-13.81-.2-1.02-.44-2.08-1.13-2.85-.59-.66-1.43-1.03-2.27-1.33-1.16-.41-2.36-.73-3.57-.93-.11-.02-1.27,5.59-1.31,6.07.67-.05,1.58-.26,2.27-.1Z"/><path class="cls-9" d="M52.07,157.12c-1.62-.46-3.26-.86-4.91-1.19-1.05,4.16-2.1,8.32-3.15,12.48.2-5.03,2.78-15.88,2.78-15.88,0,0,4.65-.04,5.72.92,1.2,1.08,2.09,19.96,2.09,19.96,0,0-1.1-10.88-2.53-16.28Z"/></g><path class="cls-12" d="M60.79,110.56c-2.09-.24-4.14-.72-6.12-1.42.45-.02.87-.29,1.07-.69-2.69-.03-5.39.13-8.06.44-4.06.83-8.28.58-12.44.55-2.03-1.15-4.11-2.2-6.24-3.16.1,1.18.48,2.33,1.08,3.36-.43.04-.86.1-1.28.16-.71-.46-1.4-.95-2.06-1.48.24.62.64,1.18,1.13,1.63-2.33.42-4.57,1.17-6.55,2.46,2.08-.39,4.17-.77,6.25-1.16-1.84.89-3.36,2.43-4.22,4.29,2-.54,3.89-1.47,5.55-2.7-1.02,1.3-1.81,2.78-2.32,4.35,2.24-1.69,4.62-3.19,7.11-4.47-.3.88-.61,1.77-.91,2.65,2.59-1.29,5.47-2.02,8.36-2.12-.31.34-.12.93.26,1.18s.87.28,1.32.29c3.65.07,7.3-.03,10.95-.12,2.2-.06,4.39-.11,6.59-.17-1.67-.92-3.33-1.85-5-2.77,1.89.3,3.89-.1,5.52-1.1Z"/></g></g><path class="cls-3" d="M64.91,189.99s-10-9.23-11.42-18.78c0,0,1.81,14.33.66,15.6s-3.95-5.71-3.95-5.71c0,0,1.65,6.92-.77,6.04s-4.28-1.65-4.28-1.65c0,0-1.65,3.24-8.68,3.41,7.14,1.37,10-.99,10-.99,0,0,1.98,3.08,4.83,2.86s1.76-1.98,1.76-1.98c0,0,5,4.01,6.59-1.1,0,0,2.14,2.2,5.27,2.31Z"/><path class="cls-3" d="M57.18,178.32c.48.03.69.49.62.78-.08.35-.4.58-.74.52-.36-.06-.6-.39-.54-.75,0-.06.03-.11.04-.17.09-.49.13-.51.62-.37Z"/><path class="cls-3" d="M51.17,186.64c.08-.31.39-.5.71-.43.33.08.53.4.44.72-.08.31-.41.5-.72.42-.31-.08-.51-.4-.43-.71Z"/><path class="cls-3" d="M58.17,185.65c.07-.26.28-.37.58-.3.29.07.47.35.4.62-.07.27-.34.43-.62.36-.29-.08-.44-.36-.35-.68Z"/><path class="cls-3" d="M61.55,184.25c-.07.27-.34.42-.6.34-.26-.07-.4-.34-.33-.61.08-.28.35-.45.61-.38.26.08.4.35.32.64Z"/><path class="cls-3" d="M54.88,181.67c.07-.26.33-.42.59-.36.26.06.42.33.36.59-.07.27-.33.42-.59.36-.27-.06-.42-.32-.36-.59Z"/><path class="cls-3" d="M61.75,177.96c.07-.25.34-.39.59-.31.24.07.37.32.31.56-.07.25-.32.4-.58.32-.25-.07-.39-.33-.32-.58Z"/><path class="cls-3" d="M52.67,189.49c-.24-.07-.38-.31-.31-.56.07-.26.32-.4.58-.32.24.07.38.32.31.56-.07.26-.32.39-.58.32Z"/><path class="cls-3" d="M62.3,180.73c-.07.23-.29.36-.5.29-.22-.07-.36-.33-.29-.54.06-.23.28-.35.51-.28.23.07.36.29.29.53Z"/><path class="cls-3" d="M49.55,185.02c.02-.07.03-.13.06-.2.08-.19.23-.27.43-.2.2.08.25.24.18.43-.03.1-.1.19-.14.29-.07.18-.19.28-.38.22-.2-.06-.23-.22-.17-.4.01-.05.03-.09.04-.14h0Z"/><path class="cls-3" d="M60.28,188.35c-.06.23-.28.37-.49.31-.22-.05-.36-.31-.3-.53.05-.21.3-.35.51-.29.21.06.34.29.29.51Z"/><path class="cls-3" d="M50.53,177.58c-.25-.06-.39-.25-.35-.47.04-.2.26-.34.48-.29.21.05.44.42.38.63-.05.17-.19.2-.51.13Z"/><path class="cls-3" d="M53.49,176.27c-.07.22-.3.34-.52.26-.23-.08-.32-.25-.27-.49.05-.23.28-.35.51-.28.23.07.35.29.28.51Z"/><path class="cls-3" d="M48.35,180.49c.07-.21.31-.33.53-.26.22.07.33.28.26.49-.07.22-.31.34-.52.27-.2-.07-.33-.3-.27-.5Z"/><path class="cls-3" d="M52.63,184.52c-.21-.06-.34-.28-.29-.48.05-.22.29-.35.51-.28.21.06.33.29.27.49-.06.2-.29.33-.49.27Z"/><path class="cls-3" d="M53.86,179.39c.17.07.27.22.22.43-.05.2-.28.33-.46.26-.21-.07-.29-.23-.25-.44.04-.2.27-.32.49-.25Z"/><path class="cls-3" d="M55.37,188.27c.06.15.17.3.16.44-.01.21-.2.29-.4.24-.2-.05-.32-.22-.24-.4.05-.13.23-.21.35-.31l.14.04Z"/><path class="cls-3" d="M57.97,183.04c-.11-.22-.2-.34-.21-.47,0-.05.21-.17.31-.15.18.02.26.18.18.36-.04.08-.13.13-.28.26Z"/><path class="cls-3" d="M57.87,186.88c-.19.07-.32.15-.4.12-.08-.03-.12-.18-.18-.28.1-.06.21-.17.29-.15.08.01.15.15.29.31Z"/><path class="cls-3" d="M54.42,186.22c.18-.06.29-.14.37-.12.08.03.12.16.17.25-.1.06-.19.16-.29.16-.07,0-.13-.14-.26-.29Z"/><path class="cls-3" d="M48.11,186.05c.19-.06.31-.15.38-.12.08.03.15.18.14.27,0,.05-.17.15-.24.13-.08-.02-.14-.14-.28-.28Z"/><path class="cls-3" d="M51.94,183.2c-.06-.18-.14-.3-.1-.37.03-.08.17-.11.26-.16.05.09.15.19.14.27-.01.08-.14.13-.29.26Z"/><path class="cls-3" d="M52.02,181.24c-.06-.16-.14-.27-.12-.33.03-.07.16-.15.23-.14.07.02.15.15.14.23,0,.07-.13.13-.25.24Z"/><path class="cls-3" d="M57.24,189.08c-.06-.16-.13-.26-.11-.34.02-.06.17-.15.21-.13.08.04.16.15.16.23,0,.07-.13.12-.26.24Z"/><path class="cls-3" d="M55.64,189.35c.06.17.13.27.1.34-.03.07-.15.11-.24.16-.05-.08-.14-.18-.13-.25,0-.07.13-.13.26-.25Z"/><path class="cls-3" d="M56.56,176.93c-.05-.13-.12-.24-.09-.29.04-.07.15-.1.24-.14.04.09.12.18.11.26,0,.05-.13.09-.25.17Z"/><path class="cls-3" d="M60.89,177.01c-.14.04-.26.11-.31.08-.07-.04-.09-.16-.13-.25.08-.03.18-.1.24-.08.07.02.1.13.19.25Z"/><path class="cls-3" d="M55.63,185.97c.13-.05.22-.12.27-.1.07.03.11.13.16.21-.08.04-.16.11-.23.11-.05,0-.1-.11-.19-.21Z"/><path class="cls-3" d="M56.76,184.19c.12-.05.2-.11.27-.1.04,0,.11.14.09.17-.04.06-.13.12-.2.12-.04,0-.09-.1-.17-.19Z"/><path class="cls-3" d="M55.33,163.86c.53.02.78.52.72.84-.08.39-.43.66-.81.61-.4-.05-.68-.42-.63-.82,0-.06.03-.13.04-.19.08-.55.13-.58.68-.44Z"/><path class="cls-3" d="M48.93,173.32c.08-.35.42-.57.77-.5.37.07.6.42.51.79-.08.34-.44.57-.78.49-.35-.07-.58-.43-.5-.77Z"/><path class="cls-3" d="M56.69,171.98c.07-.29.29-.42.63-.36.32.06.53.37.46.68-.07.3-.37.49-.68.42-.32-.07-.5-.38-.42-.74Z"/><path class="cls-3" d="M60.39,170.3c-.07.3-.36.48-.65.4-.29-.07-.46-.37-.39-.66.08-.32.37-.51.66-.44.29.07.46.38.38.7Z"/><path class="cls-3" d="M52.89,167.67c.06-.29.36-.48.65-.42.29.06.48.35.42.65-.07.3-.35.48-.65.42-.3-.06-.48-.34-.42-.64Z"/><path class="cls-3" d="M60.4,163.29c.07-.28.36-.44.64-.36.27.08.43.35.36.62-.07.29-.34.45-.63.38-.28-.07-.45-.35-.38-.64Z"/><path class="cls-3" d="M50.7,176.45c-.27-.07-.43-.33-.36-.61.07-.29.35-.45.63-.38.27.07.43.34.37.61-.07.29-.34.45-.63.38Z"/><path class="cls-3" d="M61.1,166.37c-.07.26-.31.41-.55.34-.25-.07-.41-.35-.35-.6.06-.25.3-.39.56-.33.26.07.41.32.34.58Z"/><path class="cls-3" d="M47.08,171.57c.02-.07.03-.15.05-.22.08-.22.25-.31.47-.23.22.08.28.26.22.47-.03.11-.11.22-.14.33-.07.21-.2.32-.42.26-.22-.06-.26-.24-.21-.44.01-.05.03-.11.04-.16h0Z"/><path class="cls-3" d="M59.13,174.91c-.05.25-.3.42-.53.37-.24-.05-.41-.33-.36-.58.05-.24.32-.4.56-.34.24.06.39.31.34.56Z"/><path class="cls-3" d="M47.9,163.27c-.28-.06-.44-.26-.4-.51.04-.23.28-.39.52-.34.24.05.5.46.45.69-.05.19-.21.23-.56.16Z"/><path class="cls-3" d="M51.15,161.71c-.07.25-.32.39-.57.31-.26-.08-.37-.27-.32-.54.05-.26.3-.4.55-.33.25.06.4.31.33.56Z"/><path class="cls-3" d="M45.58,166.59c.07-.24.34-.38.58-.31.25.07.37.3.3.54-.07.24-.33.39-.57.32-.23-.07-.38-.32-.31-.54Z"/><path class="cls-3" d="M50.49,170.92c-.23-.06-.39-.3-.34-.53.05-.24.31-.4.56-.33.23.06.38.31.32.54-.06.23-.31.37-.54.32Z"/><path class="cls-3" d="M51.67,165.17c.2.08.31.23.26.47-.05.22-.29.37-.5.31-.23-.07-.33-.25-.29-.48.04-.22.29-.36.53-.3Z"/><path class="cls-3" d="M53.66,174.99c.07.16.2.33.19.48,0,.24-.22.32-.44.28-.23-.05-.36-.23-.28-.44.05-.15.25-.24.38-.36l.15.03Z"/><path class="cls-3" d="M56.37,169.08c-.13-.24-.24-.37-.25-.51,0-.06.23-.19.34-.18.2.02.3.19.22.39-.04.09-.15.15-.31.3Z"/><path class="cls-3" d="M56.4,173.35c-.21.08-.35.18-.44.15-.09-.03-.14-.2-.21-.3.11-.07.22-.19.32-.18.09.01.17.16.33.33Z"/><path class="cls-3" d="M52.53,172.74c.2-.08.32-.17.41-.14.09.03.14.18.2.27-.11.07-.21.18-.32.18-.08,0-.15-.16-.29-.31Z"/><path class="cls-3" d="M45.5,172.78c.21-.08.34-.18.42-.14.09.04.17.19.17.29,0,.06-.18.17-.26.16-.09-.02-.17-.15-.32-.31Z"/><path class="cls-3" d="M49.67,169.47c-.07-.2-.16-.33-.13-.41.03-.09.18-.13.28-.18.06.1.17.21.16.3,0,.08-.15.15-.32.3Z"/><path class="cls-3" d="M49.69,167.29c-.07-.18-.17-.29-.14-.37.03-.08.18-.18.25-.16.07.02.17.17.16.25,0,.08-.14.14-.27.28Z"/><path class="cls-3" d="M55.77,175.82c-.07-.18-.15-.29-.13-.37.02-.07.18-.18.23-.15.09.04.19.16.19.25,0,.07-.14.14-.28.28Z"/><path class="cls-3" d="M54,176.18c.07.18.16.3.13.38-.03.08-.17.12-.26.18-.06-.09-.16-.19-.15-.28,0-.08.14-.15.28-.28Z"/><path class="cls-3" d="M54.59,162.34c-.06-.14-.14-.26-.11-.31.04-.08.17-.11.26-.17.05.09.14.19.13.28,0,.06-.15.11-.28.2Z"/><path class="cls-3" d="M59.41,162.27c-.16.05-.28.13-.34.1-.08-.04-.1-.18-.15-.27.09-.04.19-.12.27-.1.07.02.12.14.22.28Z"/><path class="cls-3" d="M53.87,172.42c.14-.06.24-.15.29-.12.08.03.12.15.18.22-.09.05-.17.13-.26.13-.06,0-.12-.12-.22-.23Z"/><path class="cls-3" d="M55.06,170.4c.14-.06.22-.12.3-.12.05,0,.13.15.11.19-.04.07-.14.13-.21.14-.05,0-.1-.11-.19-.21Z"/></g></g></svg>