<?xml version="1.0" encoding="UTF-8"?><svg xmlns="http://www.w3.org/2000/svg" xmlns:xlink="http://www.w3.org/1999/xlink" viewBox="0 0 300 300"><defs><style>.cls-1{fill:#ffd66e;}.cls-2,.cls-3{fill:#f4af13;}.cls-3,.cls-4{mix-blend-mode:multiply;opacity:.25;}.cls-5{fill:#b1ddea;}.cls-6{fill:#fff;}.cls-7{fill:#e86170;}.cls-8{stroke:#42496f;stroke-miterlimit:10;stroke-width:.47px;}.cls-8,.cls-9{fill:none;}.cls-10{clip-path:url(#clippath-1);}.cls-11{filter:url(#drop-shadow-1);}.cls-12{isolation:isolate;}.cls-13,.cls-4{fill:#6498d1;}.cls-14{fill:#42496f;}.cls-15{fill:#93d1ad;}.cls-16{clip-path:url(#clippath);}.cls-17{opacity:.5;}</style><filter id="drop-shadow-1" x="49.94" y="91.84" width="60.38" height="96.62" filterUnits="userSpaceOnUse"><feOffset dx="-4" dy="0"/><feGaussianBlur result="blur" stdDeviation="0"/><feFlood flood-color="#42496f" flood-opacity="1"/><feComposite in2="blur" operator="in"/><feComposite in="SourceGraphic"/></filter><clipPath id="clippath"><polygon class="cls-9" points="70.85 172.53 72.12 120.6 88.61 118.88 95.95 170.54 70.85 172.53"/></clipPath><clipPath id="clippath-1"><path class="cls-9" d="M105.43,186.17l-3.26-17.4s-19.31,3.72-21.21,3.81-18.85,2.18-18.85,2.18l-.91,12.87s44.5-1.72,44.23-1.45Z"/></clipPath></defs><g class="cls-12"><g id="Calque_6"><g class="cls-11"><polygon class="cls-6" points="70.85 172.53 72.12 120.6 88.61 118.88 95.95 170.54 70.85 172.53"/><g class="cls-16"><polygon class="cls-7" points="98.67 152.37 68.22 155.72 68.22 165.24 98.67 161.88 98.67 152.37"/><polygon class="cls-7" points="96.72 134.78 66.18 137.14 66.18 146.29 96.72 143.94 96.72 134.78"/><polygon class="cls-7" points="95.73 116.59 65.54 119.04 65.54 128.2 95.73 125.75 95.73 116.59"/><path class="cls-14" d="M90.35,117.33l.18,3.93s-8.46,7.92-21.93,8.94v-10.76l21.75-2.11Z"/><path class="cls-4" d="M73.64,117.98s9.49,19.16,11.6,50.88c4.83.24,17.16-2.05,17.16-2.05v10.88h-38.19v-58.85l9.43-.85Z"/></g><path class="cls-5" d="M90.27,119.57l-19.91.19-.29-16.02c-.34-5.71,3.77-10.41,9.19-10.49h0c5.42-.08,10.09,4.49,10.43,10.2l.59,16.12Z"/><path class="cls-5" d="M81.1,93.34c0,.78-.65,1.39-1.43,1.34s-1.41-.71-1.41-1.5.65-1.39,1.43-1.34,1.41.71,1.41,1.5Z"/><ellipse class="cls-1" cx="75.03" cy="108.7" rx="2.74" ry="6.82" transform="translate(-7.72 5.75) rotate(-4.18)"/><path class="cls-1" d="M84.99,101.7c-6.09.11-4.43,13.71-9.52,13.81l-.87-13.61c5.21-.1,4.4,13.55,11.27,13.42"/><ellipse class="cls-6" cx="85.43" cy="108.51" rx="2.74" ry="6.82" transform="translate(-7.68 6.51) rotate(-4.18)"/><path class="cls-4" d="M87.01,118.77s-6.31-25.43-11.99-22.38c-4.36,2.34-4.18,6.59-4.18,8.44s.28,14.36.28,14.36l15.9-.42Z"/><path class="cls-8" d="M66.95,118.93l-.23-5.76c-.04-.92.65-1.67,1.56-1.71l25.29-1.18c1-.05,1.87.78,1.88,1.79l.04,6.23"/><line class="cls-8" x1="93.05" y1="118.17" x2="93.02" y2="110.07"/><line class="cls-8" x1="90.89" y1="118.25" x2="90.84" y2="110.21"/><line class="cls-8" x1="88.73" y1="118.33" x2="88.67" y2="110.36"/><line class="cls-8" x1="86.58" y1="118.41" x2="86.49" y2="110.5"/><line class="cls-8" x1="84.42" y1="118.49" x2="84.31" y2="110.65"/><line class="cls-8" x1="82.26" y1="118.57" x2="82.14" y2="110.8"/><line class="cls-8" x1="80.11" y1="118.65" x2="79.96" y2="110.94"/><line class="cls-8" x1="77.95" y1="118.74" x2="77.79" y2="111.09"/><line class="cls-8" x1="75.79" y1="118.82" x2="75.61" y2="111.23"/><line class="cls-8" x1="73.64" y1="118.9" x2="73.44" y2="111.38"/><line class="cls-8" x1="71.48" y1="118.98" x2="71.26" y2="111.52"/><line class="cls-8" x1="69.32" y1="119.06" x2="69.08" y2="111.67"/><polygon class="cls-6" points="66.23 118.27 66.32 120.95 96.29 120.39 96.32 117.53 66.23 118.27"/><path class="cls-2" d="M110.32,184.91s-2.27-10.06-4.35-10.33-4.89,4.35-4.89,4.35l2.54,8.52,6.71-2.54Z"/><path class="cls-3" d="M107.9,184.27s-.97-9.61-3.02-8.58c-2.05,1.03-3.5,3.99-3.5,3.99l2.54,6.04,3.99-1.45Z"/><path class="cls-1" d="M105.43,186.17l-3.26-17.4s-19.31,3.72-21.21,3.81-18.85,2.18-18.85,2.18l-.91,12.87s44.5-1.72,44.23-1.45Z"/><g class="cls-10"><path class="cls-3" d="M58.01,188.46c2.71-.49,6.75-.32,6.75-.32,0,0,.24-8.46,1.37-9.77,1.59-.39,5.95-.88,5.95-.88l-3.09,2.29c2.47-.64,5.8-1.8,6.84-2.45s4.39-.39,4.39-.39c-.99,1.08-1.01,3.03-1.01,3.03,0,0,4.47-2.97,5.29-4.27-.29,1.3.35,3.67.35,3.67,0,0,1.27-1.46,1.51-2.27l.09,1.58s1.87-2.42,2.09-3.62c0,0,1.91,2.72,3.98,3.23,0,0-1.03-1.72-.88-3.15,0,0,1.91,1.07,4.33,1.26,0,0-1.57-1.98-1.66-2.93,4.32-2.17,10.34.34,13.26-2.11l-.58-9.72-49.4,2.94s.42,24.16.4,23.88Z"/></g><path class="cls-2" d="M53.94,186.9s7.7-5.08,9.79-4.89,4.71,4.53,4.71,4.53l-14.5.36Z"/><path class="cls-15" d="M82.86,170.99s-9.87.1-12.64.53c-2.76.43-9.81,1.91-11.72,2.5.92.66,2.96.79,2.96.79,0,0-1.78,1.84-2.76,2.11,4.38-.53,5.43-1.61,7.04-1.91s5.99-.53,5.99-.53l-3.23,2.11c2.5-.49,5.89-1.45,6.98-2.04,1.09-.59,4.41-.13,4.41-.13-1.05,1.02-1.18,2.96-1.18,2.96,0,0,4.64-2.7,5.53-3.95-.36,1.28.13,3.69.13,3.69,0,0,1.35-1.38,1.65-2.17v1.58s2.01-2.3,2.3-3.49c0,0,1.74,2.83,3.79,3.46,0,0-.92-1.78-.69-3.19,0,0,1.84,1.18,4.25,1.51,0,0-1.45-2.07-1.48-3.03,4.44-1.91,10.3.95,13.36-1.32-2.4-.16-4.71-1.35-4.71-1.35,0,0,1.94.26,2.93-1.15-1.81-.26-3.55-.46-6.19.1s-11.32,2.63-15.4,3c-.49-1.25-2.5-1.68-2.5-1.68l1.18,1.61Z"/></g><path class="cls-13" d="M51.3,186s9.87,2.14,18.32-4.88c0,0,1.93,7.22,12.62,1.63,0,0,7.02,4.07,15.26-.61,0,0,6.11,4.07,11.19-.81,0,0,4.68,2.44,9.56,2.44v8.95H50.69l.61-6.72Z"/><g class="cls-17"><path class="cls-6" d="M108.69,181.32c-1.56,1.5-3.22,2.15-4.77,2.34.66.19,1.36.32,2.1.32,1.28,0,2.46-.33,3.48-.86.72.18,1.49.3,2.29.3.7,0,1.37-.1,2-.23-2.93-.72-5.11-1.86-5.11-1.86Z"/><path class="cls-6" d="M88.43,184.35c-3.72-.19-6.2-1.61-6.2-1.61-1.2.63-2.28,1.08-3.27,1.41.96-.01,1.86-.13,2.68-.33,1.08.62,2.46,1,3.98,1,1.02,0,1.96-.18,2.81-.47Z"/><path class="cls-6" d="M61.25,186.06c2.74,0,5.22-.61,7.07-1.59,1.04.51,2.21.83,3.48.83.95,0,1.85-.17,2.68-.47-3.96-.36-4.87-3.72-4.87-3.72-3.53,2.93-7.3,4.26-10.5,4.82.69.08,1.4.13,2.13.13Z"/></g></g></g></svg>