<?xml version="1.0" encoding="UTF-8"?>
<svg xmlns="http://www.w3.org/2000/svg" width="300" height="300" xmlns:xlink="http://www.w3.org/1999/xlink" viewBox="0 0 300 300">
  <defs>
    <clipPath id="f">
      <path d="M291.65,46.191h-112.772v135.2h10.629c.506,1.184,2.303,2.063,4.46,2.063,1.072,0,2.047-.225,2.83-.588.961.365,2.067.588,3.263.588,1.558,0,2.968-.37,4.086-.961,1.16.604,2.542.961,4.033.961,1.227,0,2.366-.261,3.384-.681,1.563.428,3.461.681,5.514.681,1.936,0,3.736-.226,5.246-.611.791.376,1.782.611,2.876.611,1.072,0,2.047-.225,2.83-.588.962.365,2.067.588,3.263.588,1.558,0,2.968-.37,4.085-.961,1.16.604,2.542.961,4.033.961,1.227,0,2.366-.261,3.384-.681,1.563.428,3.461.681,5.514.681,1.46,0,2.839-.131,4.079-.358,1.24.228,2.619.358,4.079.358,2.052,0,3.951-.253,5.514-.681,1.018.421,2.157.681,3.384.681,1.491,0,2.873-.357,4.033-.961,1.118.592,2.528.961,4.086.961,1.196,0,2.301-.224,3.263-.588.784.363,1.758.588,2.83.588,2.157,0,3.954-.88,4.46-2.063h7.614V46.191Z" fill="none"/>
    </clipPath>
    <filter id="g" data-name="drop-shadow-1" x="187.386" y="88.221" width="102.823" height="106.727" filterUnits="userSpaceOnUse">
      <feOffset dx="-4" dy="0"/>
      <feGaussianBlur result="h" stdDeviation="0"/>
      <feFlood flood-color="#42496f" flood-opacity="1"/>
      <feComposite in2="h" operator="in"/>
      <feComposite in="SourceGraphic"/>
    </filter>
    <clipPath id="i">
      <path d="M277.588,95.639c-24.485-.399-48.982-.063-73.447,1.008l-.627.539c-1.499,7.222-2.696,25.593-2.696,25.593,0,0-.04,2.21-.06,3.315-.095,5.23-.189,10.46-.161,15.691.015,2.702-.953,7.995-.953,7.995,0,0-2.647,6.43-2.983,7.968-1.991,9.115-3.75,18.28-5.274,27.484,29.008-.198,58.006,1.441,86.863-1.526.867-28.285,1.732-59.871-.661-88.067Z" fill="none"/>
    </clipPath>
    <filter id="j" data-name="drop-shadow-2" x="177.98" y="163.11" width="17.058" height="27.433" filterUnits="userSpaceOnUse">
      <feOffset dx="-4" dy="0"/>
      <feGaussianBlur result="k" stdDeviation="0"/>
      <feFlood flood-color="#42496f" flood-opacity="1"/>
      <feComposite in2="k" operator="in"/>
      <feComposite in="SourceGraphic"/>
    </filter>
    <clipPath id="l">
      <path d="M319.517,70.919h-96.511v115.706h9.097c.433,1.013,1.971,1.766,3.817,1.766.918,0,1.751-.193,2.422-.504.823.312,1.769.504,2.792.504,1.333,0,2.54-.316,3.497-.823.993.517,2.176.823,3.452.823,1.05,0,2.025-.223,2.896-.583,1.337.366,2.962.583,4.719.583,1.657,0,3.197-.193,4.49-.523.677.322,1.525.523,2.461.523.918,0,1.751-.193,2.422-.504.823.312,1.769.504,2.793.504,1.333,0,2.54-.316,3.496-.823.993.517,2.176.823,3.452.823,1.05,0,2.025-.223,2.896-.583,1.337.366,2.962.583,4.719.583,1.25,0,2.429-.112,3.491-.307,1.062.195,2.242.307,3.491.307,1.756,0,3.381-.217,4.719-.583.871.36,1.846.583,2.896.583,1.276,0,2.458-.306,3.452-.823.957.506,2.163.823,3.497.823,1.023,0,1.97-.192,2.792-.504.671.311,1.505.504,2.422.504,1.846,0,3.384-.753,3.817-1.766h6.516v-115.706Z" fill="none"/>
    </clipPath>
    <filter id="m" data-name="drop-shadow-3" x="249.235" y="104.577" width="43.474" height="86.355" filterUnits="userSpaceOnUse">
      <feOffset dx="-4" dy="0"/>
      <feGaussianBlur result="n" stdDeviation="0"/>
      <feFlood flood-color="#42496f" flood-opacity="1"/>
      <feComposite in2="n" operator="in"/>
      <feComposite in="SourceGraphic"/>
    </filter>
    <clipPath id="o">
      <path d="M284.905,110.537c-1.73.102-3.451.358-5.131.785l-20.291.388c-.184,10.15-.368,20.301-.551,30.451-.019,1.065-.039,2.137-.256,3.179-.345,1.659-1.172,3.175-1.677,4.792-.722,2.311-.772,4.77-.847,7.19-.319,10.311-1.364,22.194-2.798,32.409,11.669-.825,23.504,1.865,35.173,1.04.488-8.618.526-22.357.44-30.991-1.354-16.415-2.707-32.83-4.061-49.245Z" fill="none"/>
    </clipPath>
  </defs>
  <g isolation="isolate">
    <g id="e" data-name="Calque 25">
      <g>
        <g clip-path="url(#f)">
          <g filter="url(#g)">
            <path d="M277.588,95.639c-24.485-.399-48.982-.063-73.447,1.008l-.627.539c-1.499,7.222-2.696,25.593-2.696,25.593,0,0-.04,2.21-.06,3.315-.095,5.23-.189,10.46-.161,15.691.015,2.702-.953,7.995-.953,7.995,0,0-2.647,6.43-2.983,7.968-1.991,9.115-3.75,18.28-5.274,27.484,29.008-.198,58.006,1.441,86.863-1.526.867-28.285,1.732-59.871-.661-88.067Z" fill="#ffd66e"/>
            <g clip-path="url(#i)">
              <path d="M283.523,136.558c-.365-1.604-.786-3.203-.943-4.84-.177-1.849-.014-3.71.107-5.563.717-10.947-.018-21.988-2.18-32.743-2.596.971-4.831-1.961-7.293-3.234-1.743-.901-3.783-.965-5.744-1.01-11.208-.256-22.415-.513-33.623-.769-10.622-.243-21.305-.482-31.818,1.063-1.151,4.192-2.302,8.384-3.453,12.576l3.628-1.768c-1.193,2.366-2.385,4.732-3.578,7.099,2.276-1.508,4.552-3.016,6.828-4.524-.474,1.194-.948,2.388-1.422,3.581,1.051-.745,2.103-1.49,3.154-2.234-.087.841-.175,1.682-.262,2.523,5.393-3.31,12.275-4.081,18.267-2.045-.359.737-.719,1.474-1.078,2.211,1.575-.931,3.151-1.861,4.726-2.792-.116,1.594,1.641,2.748,3.237,2.825,1.596.077,3.146-.531,4.74-.652,5.113-.389,9.768,4.19,14.827,3.349-.322,13.526-2.445,25.665-3.225,36.609-3.567,1.534-6.617,3.121-8.583,7.266-2.87,13.095-5.411,27.575-7.521,41.465,15.618-.794,31.237-1.588,46.855-2.382.881-.045,1.855-.131,2.459-.774.48-.511.604-1.252.705-1.947,2.586-17.687,5.158-35.859,1.19-53.288Z" fill="#f4af13" mix-blend-mode="multiply" opacity=".5"/>
            </g>
            <path d="M280.349,97.445c3.646.391,6.234,1.16,9.861,2.224-3.204-2.943-7.369-4.214-11.764-4.782.89-.525,1.292-1.371,1.717-2.234-1.238.864-2.606,1.541-4.042,2.004-.397-.03-.795-.057-1.193-.08.42-.67.795-1.368,1.086-2.103-1.311.915-2.802,1.563-4.359,1.929-.303-.256-.634-.479-.993-.653-.001,0-.003,0-.004,0,.645-.726.913-1.563,1.072-2.694-.964,1.24-2.525,1.854-4.055,2.206-.881.203-1.779.346-2.662.534-.316.003-.631.005-.947.008.235-.242.41-.544.483-.874-.554.295-1.107.589-1.661.884-.101,0-.202.002-.303.002l.153-.264c-.151.089-.302.177-.453.266-16.86.138-33.719.276-50.578.415-.518.004-1.041.011-1.566.02-1.63-.356-3.191-1.029-4.559-1.983.291.735.666,1.433,1.086,2.103-.398.022-.795.049-1.193.08-1.437-.463-2.805-1.14-4.042-2.004.425.863.827,1.709,1.717,2.234l-.015.007c-4.38.562-8.545,1.833-11.749,4.776,3.627-1.064,6.215-1.834,9.861-2.224-1.786,1.399-3.184,3.287-4.002,5.404,4.018-1.69,8.036-3.38,12.054-5.07-1.324.595-2.253,1.984-2.298,3.435,2.188-.885,4.375-1.769,6.563-2.654.482.951,1.862.979,2.947.839,1.818-.236,3.635-.471,5.453-.707.894-.116,1.865-.218,2.642.239.778.456,1.11,1.717.383,2.25,3.243-1.273,6.486-2.545,9.73-3.818-1.551,1.823-1.982,4.029-1.978,5.469,2.463-1.492,4.926-2.984,7.389-4.476.416,1.833,1.713,3.444,3.414,4.244,1.332-1.538,3.003-2.781,4.858-3.615-.27.836-.29,1.75-.059,2.597,1.493-.894,2.986-1.789,4.479-2.683.582,1.453,1.164,2.905,1.746,4.358,1.875-2.84,5.344-4.302,8.736-4.571.293-.023.586-.029.879-.038l.9.954c1.039.135,2.339.105,2.872-.731.17.023.341.043.511.069,2.042.826,4.085,1.652,6.127,2.478-.028-.926-.42-1.824-1.041-2.51.006-.132.008-.264.003-.396,3.598,1.514,7.196,3.027,10.794,4.541-.817-2.116-2.216-4.005-4.002-5.404Z" fill="#93d1ad"/>
          </g>
        </g>
        <g>
          <path d="M190.669,165.701c-.359-1.152-.992-2.506-2.196-2.587-1.497-.101-2.215,1.776-2.465,3.255-1.176,6.962-2.352,13.925-3.528,20.887-.166.985-.333,1.971-.499,2.956l13.058.331c-.388-8.422-1.86-16.793-4.369-24.842Z" fill="#ffd66e" filter="url(#j)"/>
          <path d="M175.11,191.334s9.421-6.887,11.083-12.508c0,0-1.742,9.5-1.267,10.608.475,1.108,8.233-3.325,8.233-3.325,0,0,3.143,4.472,6.361,4.294-7.707,2.355-8.102.139-8.102.139,0,0-5.858,2.217-9.025,1.742s-1.425-2.375-1.425-2.375c0,0-2.137,1.504-5.858,1.425Z" fill="#fff"/>
          <g>
            <path d="M186.115,178.088c.177-.471.696-.546.968-.392.324.183.464.579.305.904-.168.343-.575.483-.922.316-.056-.027-.107-.063-.162-.091-.465-.24-.478-.289-.189-.737Z" fill="#fff"/>
            <path d="M192.683,186.651c-.291-.172-.389-.545-.222-.842.176-.313.559-.414.86-.226.284.177.376.56.205.85-.17.289-.556.388-.844.218Z" fill="#fff"/>
            <path d="M193.801,179.302c-.243-.146-.291-.39-.13-.672.154-.272.489-.366.747-.211.251.151.327.476.171.731-.163.268-.491.331-.789.152Z" fill="#fff"/>
            <path d="M193.408,175.478c.247.156.32.464.166.703-.153.237-.468.304-.711.151-.263-.166-.35-.488-.196-.727.154-.24.476-.296.742-.128Z" fill="#fff"/>
            <path d="M188.799,181.417c-.243-.145-.328-.464-.187-.706.143-.246.46-.326.704-.18.249.149.329.455.184.704-.146.251-.452.33-.701.182Z" fill="#fff"/>
            <path d="M187.126,173.372c-.226-.146-.287-.459-.133-.686.147-.216.438-.279.662-.142.237.144.304.442.154.679-.148.231-.452.298-.683.149Z" fill="#fff"/>
            <path d="M196.015,186.005c-.146.223-.427.285-.656.145-.238-.147-.304-.445-.149-.678.146-.221.434-.285.658-.146.237.147.301.444.147.68Z" fill="#fff"/>
            <path d="M190.089,173.664c.212.137.276.403.142.595-.138.2-.435.262-.637.133-.207-.133-.263-.388-.131-.598.137-.217.405-.272.625-.13Z" fill="#fff"/>
            <path d="M190.564,187.795c-.061-.038-.127-.07-.182-.115-.17-.14-.204-.312-.069-.488.137-.178.316-.178.491-.054.091.065.161.159.251.227.165.125.227.275.104.452-.124.18-.291.164-.46.053-.043-.028-.087-.055-.131-.082l-.005.007Z" fill="#fff"/>
            <path d="M197.159,177.988c.21.124.287.391.169.589-.12.2-.423.27-.63.145-.195-.118-.262-.407-.14-.6.126-.198.392-.257.601-.135Z" fill="#fff"/>
            <path d="M183.367,184.572c-.134.234-.369.319-.575.21-.194-.103-.266-.37-.154-.569.113-.2.56-.315.753-.193.152.096.145.257-.024.553Z" fill="#fff"/>
            <path d="M182.935,181.195c.201.132.256.406.11.604-.152.207-.354.248-.576.123-.214-.121-.269-.387-.134-.596.134-.207.397-.264.6-.13Z" fill="#fff"/>
            <path d="M185.644,187.647c-.191-.131-.24-.416-.106-.613.136-.2.378-.247.573-.112.198.137.25.412.115.607-.128.186-.402.241-.582.118Z" fill="#fff"/>
            <path d="M190.995,184.541c-.119.191-.383.258-.575.145-.201-.118-.26-.399-.126-.6.127-.19.39-.246.577-.124.186.121.243.388.124.579Z" fill="#fff"/>
            <path d="M186.192,181.764c.127-.154.301-.207.502-.09.185.107.248.376.125.544-.135.185-.321.222-.521.114-.185-.101-.237-.368-.106-.568Z" fill="#fff"/>
            <path d="M195.598,182.918c.165-.013.35-.079.491-.026.21.079.226.292.119.475-.11.189-.318.253-.48.123-.114-.092-.141-.293-.207-.445l.077-.127Z" fill="#fff"/>
            <path d="M191.107,178.714c-.251.042-.406.104-.536.071-.052-.013-.105-.262-.061-.36.078-.173.26-.212.416-.077.069.059.09.175.181.367Z" fill="#fff"/>
            <path d="M194.947,179.973c.008.215.059.369.003.44-.059.075-.218.071-.334.101-.026-.117-.104-.257-.065-.343.038-.082.199-.106.395-.198Z" fill="#fff"/>
            <path d="M193.241,183.258c-.009-.199-.056-.34-.006-.407.053-.07.2-.07.305-.1.029.114.103.244.071.338-.024.069-.186.091-.37.169Z" fill="#fff"/>
            <path d="M191.172,189.563c-.008-.212-.056-.36-.004-.42.058-.067.222-.094.312-.062.053.019.1.214.063.282-.043.078-.182.104-.371.199Z" fill="#fff"/>
            <path d="M189.453,184.843c-.203.002-.346.045-.408-.007-.067-.057-.057-.203-.081-.31.108-.023.238-.093.318-.056.073.034.091.184.171.373Z" fill="#fff"/>
            <path d="M187.508,184.168c-.181.013-.311.061-.37.017-.062-.047-.104-.211-.068-.273.036-.062.199-.104.272-.072.068.029.089.165.166.328Z" fill="#fff"/>
            <path d="M196.971,181.276c-.182.009-.304.051-.372.008-.059-.038-.104-.215-.07-.253.059-.067.202-.119.279-.091.065.023.087.168.162.336Z" fill="#fff"/>
            <path d="M196.764,182.97c.185-.007.317-.05.375-.003.064.052.061.187.087.286-.1.022-.219.088-.293.054-.069-.031-.09-.168-.169-.337Z" fill="#fff"/>
            <path d="M184.531,178.294c-.146.007-.276.05-.316.008-.058-.062-.051-.185-.071-.282.099-.015.213-.065.291-.032.053.022.055.163.096.306Z" fill="#fff"/>
            <path d="M185.916,173.956c-.003.157.031.29-.016.332-.063.055-.189.039-.287.053-.007-.092-.051-.21-.011-.27.04-.061.165-.065.314-.114Z" fill="#fff"/>
            <path d="M193.356,181.959c-.015-.143-.06-.258-.023-.3.053-.06.167-.067.254-.096.016.09.064.192.037.267-.019.053-.139.071-.269.128Z" fill="#fff"/>
            <path d="M191.899,180.285c-.012-.139-.046-.235-.016-.301.019-.041.177-.071.2-.044.049.057.078.162.061.233-.011.043-.125.061-.245.112Z" fill="#fff"/>
          </g>
        </g>
        <g>
          <g clip-path="url(#l)">
            <g filter="url(#m)">
              <path d="M284.905,110.537c-1.73.102-3.451.358-5.131.785l-20.291.388c-.184,10.15-.368,20.301-.551,30.451-.019,1.065-.039,2.137-.256,3.179-.345,1.659-1.172,3.175-1.677,4.792-.722,2.311-.772,4.77-.847,7.19-.319,10.311-1.364,22.194-2.798,32.409,11.669-.825,23.504,1.865,35.173,1.04.488-8.618.526-22.357.44-30.991-1.354-16.415-2.707-32.83-4.061-49.245Z" fill="#ffd66e"/>
              <g clip-path="url(#o)">
                <g>
                  <path d="M260.333,108.731c-1.996,3.07-3.409,6.517-4.141,10.104,1.946-1.089,3.892-2.177,5.838-3.266-1.172,2.193-1.891,4.626-2.101,7.104,1.15-1.148,2.331-2.264,3.543-3.347.038.69.077,1.38.115,2.069.848-.764,1.696-1.528,2.545-2.293.462,1.059,1.978.929,3.107.685,4.286-.927,8.776-.901,13.051.075,2.579.589,5.155,1.525,7.79,1.294-.795-3.913-2.017-7.739-3.637-11.388-.366-.825-.767-1.661-1.415-2.289-.896-.867-2.152-1.235-3.367-1.518-6.384-1.484-13.012-1.426-19.566-1.361-.964.01-1.961.026-2.838.426-2.04.93-2.667,3.473-3.049,5.682" fill="#f4af13" mix-blend-mode="multiply" opacity=".5"/>
                  <path d="M257.449,148.233c.819.185,1.53.691,2.149,1.258,3.21,2.937,4.344,7.448,5.324,11.687-.081-4.633-.57-9.259-1.46-13.807-.199-1.015-.441-2.076-1.129-2.849-.588-.662-1.433-1.031-2.267-1.327-1.162-.413-2.359-.725-3.574-.931-.109-.019-1.271,5.593-1.313,6.071.671-.046,1.577-.26,2.27-.103Z" fill="#f4af13" mix-blend-mode="multiply" opacity=".5"/>
                  <path d="M283.991,157.119c-1.619-.462-3.256-.861-4.907-1.195l-3.148,12.481c.201-5.035,2.777-15.885,2.777-15.885,0,0,4.646-.039,5.715.917,1.203,1.075,2.095,19.964,2.095,19.964,0,0-1.102-10.882-2.532-16.282Z" fill="#f4af13" mix-blend-mode="multiply" opacity=".5"/>
                </g>
              </g>
              <path d="M292.71,110.559c-2.086-.24-4.144-.718-6.123-1.42.445-.017.872-.292,1.072-.69-2.693-.026-5.386.127-8.061.443-4.063.835-8.278.579-12.444.551-2.03-1.146-4.11-2.204-6.236-3.16.103,1.183.482,2.334,1.076,3.361-.429.044-.856.096-1.28.158-.71-.457-1.398-.949-2.059-1.476.241.623.638,1.176,1.13,1.627-2.33.424-4.566,1.171-6.549,2.458,2.083-.385,4.167-.771,6.25-1.156-1.843.887-3.362,2.431-4.219,4.289,1.998-.544,3.893-1.467,5.554-2.705-1.022,1.298-1.812,2.777-2.324,4.348,2.236-1.691,4.619-3.188,7.113-4.467-.303.883-.606,1.765-.909,2.648,2.595-1.289,5.467-2.017,8.363-2.119-.308.339-.117.926.262,1.183s.866.277,1.324.286c3.649.068,7.3-.025,10.949-.119,2.197-.056,4.395-.112,6.592-.169-1.666-.923-3.332-1.845-4.998-2.768,1.892.297,3.886-.103,5.518-1.105Z" fill="#93d1ad"/>
            </g>
          </g>
          <g>
            <path d="M246.306,189.993s9.995-9.226,11.423-18.782c0,0-1.812,14.334-.659,15.597,1.153,1.263,3.954-5.712,3.954-5.712,0,0-1.648,6.92.769,6.041s4.284-1.648,4.284-1.648c0,0,1.648,3.24,8.677,3.405-7.14,1.373-9.995-.989-9.995-.989,0,0-1.977,3.075-4.833,2.856s-1.757-1.977-1.757-1.977c0,0-4.998,4.009-6.59-1.098,0,0-2.142,2.197-5.272,2.307Z" fill="#fff"/>
            <g>
              <g>
                <path d="M256.467,177.244c.345-.331.821-.182.991.062.203.29.16.687-.11.9-.285.225-.692.178-.92-.107-.037-.046-.066-.098-.101-.145-.301-.397-.291-.444.141-.71Z" fill="#fff"/>
                <path d="M258.583,187.284c-.179-.268-.11-.627.156-.814.28-.196.649-.125.83.16.171.268.093.635-.173.813-.265.178-.636.105-.813-.159Z" fill="#fff"/>
                <path d="M262.559,181.44c-.149-.225-.089-.454.164-.63.244-.17.57-.113.728.126.153.232.085.542-.153.697-.25.163-.557.082-.739-.193Z" fill="#fff"/>
                <path d="M263.791,178c.148.235.084.529-.147.671-.228.141-.527.069-.672-.162-.157-.25-.1-.562.13-.704.231-.142.53-.058.689.195Z" fill="#fff"/>
                <path d="M257.401,181.2c-.149-.224-.09-.533.129-.682.223-.152.528-.091.678.135.152.23.095.525-.131.679-.228.155-.523.098-.676-.132Z" fill="#fff"/>
                <path d="M259.269,173.615c-.134-.218-.058-.511.168-.643.215-.125.49-.059.626.15.144.221.079.504-.147.645-.222.138-.51.07-.647-.152Z" fill="#fff"/>
                <path d="M261.705,188.097c-.217.132-.484.069-.622-.145-.144-.224-.078-.506.151-.643.216-.129.489-.066.624.145.143.223.076.504-.153.643Z" fill="#fff"/>
                <path d="M261.691,175.082c.126.204.071.459-.122.569-.2.115-.481.046-.601-.148-.123-.199-.066-.441.133-.567.206-.129.459-.067.59.145Z" fill="#fff"/>
                <path d="M256.296,187.395c-.037-.058-.08-.112-.109-.174-.088-.19-.047-.352.141-.447.19-.096.345-.023.443.155.052.093.073.203.122.298.09.175.081.329-.096.43-.181.103-.317.021-.416-.143-.025-.042-.052-.083-.079-.124l-.007.004Z" fill="#fff"/>
                <path d="M265.978,181.693c.13.192.086.453-.097.574-.185.123-.474.058-.6-.134-.119-.181-.058-.457.127-.571.19-.118.442-.06.57.131Z" fill="#fff"/>
                <path d="M251.448,181.675c-.211.145-.447.122-.579-.056-.124-.168-.076-.426.102-.551.179-.125.609-.04.725.143.091.145.019.28-.248.464Z" fill="#fff"/>
                <path d="M252.464,178.603c.118.196.053.453-.153.563-.215.115-.405.068-.545-.132-.134-.191-.071-.442.13-.566.2-.123.449-.064.568.135Z" fill="#fff"/>
                <path d="M252.137,185.248c-.11-.19-.035-.456.16-.569.199-.116.425-.057.537.139.113.199.045.456-.15.568-.186.107-.444.042-.547-.138Z" fill="#fff"/>
                <path d="M258.002,184.781c-.18.115-.435.064-.553-.112-.124-.184-.059-.449.138-.567.187-.111.435-.051.546.13.109.18.049.433-.131.548Z" fill="#fff"/>
                <path d="M255.023,180.428c.172-.08.343-.054.468.129.114.168.058.425-.116.518-.192.103-.367.059-.493-.116-.117-.162-.052-.413.142-.531Z" fill="#fff"/>
                <path d="M262.615,185.279c.147.057.333.076.432.179.147.153.074.343-.093.456-.172.117-.377.086-.462-.092-.06-.126,0-.309.006-.467l.118-.077Z" fill="#fff"/>
                <path d="M260.49,179.83c-.233-.068-.391-.078-.489-.16-.039-.032.018-.268.096-.334.138-.116.31-.074.389.104.035.079.005.187.005.389Z" fill="#fff"/>
                <path d="M263.266,182.487c-.082.188-.101.341-.178.378-.081.04-.216-.029-.328-.051.025-.111.016-.263.085-.32.066-.055.214-.01.42-.008Z" fill="#fff"/>
                <path d="M260.454,184.603c.074-.174.091-.315.162-.352.074-.039.2.022.303.039-.022.11-.012.252-.078.319-.049.05-.196.002-.387-.007Z" fill="#fff"/>
                <path d="M256.091,189.16c.08-.185.1-.332.169-.362.077-.034.229.01.293.075.038.038-.002.225-.062.268-.069.05-.199.015-.4.018Z" fill="#fff"/>
                <path d="M256.555,184.406c-.175-.082-.316-.103-.347-.174-.034-.076.034-.197.058-.299.102.024.242.018.296.082.048.059.002.195-.007.39Z" fill="#fff"/>
                <path d="M255.164,183.029c-.161-.063-.292-.075-.324-.137-.034-.066-.003-.224.054-.262.057-.038.214-.007.263.049.046.053.009.178.007.35Z" fill="#fff"/>
                <path d="M264.467,184.435c-.16-.067-.282-.081-.322-.146-.035-.056-.001-.227.044-.246.078-.033.222-.019.277.036.046.046.005.179.001.355Z" fill="#fff"/>
                <path d="M263.593,185.803c.162.07.292.087.323.151.034.071-.024.185-.043.281-.095-.022-.223-.014-.273-.074-.046-.055-.008-.181-.007-.358Z" fill="#fff"/>
                <path d="M255.024,176.77c-.128-.053-.258-.07-.274-.123-.024-.077.033-.179.055-.271.091.028.209.032.263.093.036.041-.02.162-.044.302Z" fill="#fff"/>
                <path d="M257.992,173.618c-.067.133-.092.262-.15.278-.076.022-.178-.044-.268-.073.032-.082.042-.201.102-.236.059-.036.169.012.316.031Z" fill="#fff"/>
                <path d="M261.087,183.536c.046-.129.055-.246.104-.266.07-.029.17.011.258.022-.023.084-.024.191-.078.245-.038.038-.148.003-.283,0Z" fill="#fff"/>
                <path d="M260.524,181.503c.047-.124.057-.22.11-.264.033-.027.181.011.19.044.019.069,0,.171-.044.225-.027.033-.132,0-.256-.005Z" fill="#fff"/>
              </g>
              <g>
                <path d="M260.721,164.34c.518.125.663.66.537.966-.15.364-.548.563-.91.437-.382-.132-.582-.542-.452-.927.021-.062.052-.12.075-.182.191-.52.242-.54.75-.294Z" fill="#fff"/>
                <path d="M252.58,172.349c.143-.328.521-.48.856-.342.352.144.507.534.349.874-.149.321-.54.468-.866.326-.325-.141-.48-.534-.339-.858Z" fill="#fff"/>
                <path d="M260.443,172.569c.122-.275.372-.356.689-.224.305.127.448.466.319.758-.126.283-.457.405-.746.275-.302-.137-.411-.473-.262-.808Z" fill="#fff"/>
                <path d="M264.407,171.66c-.132.28-.446.396-.717.265-.269-.129-.38-.452-.251-.727.14-.297.467-.431.738-.3.272.131.372.462.231.762Z" fill="#fff"/>
                <path d="M257.573,167.591c.121-.274.445-.404.717-.288.276.118.403.44.28.716-.124.28-.435.404-.715.285-.283-.12-.406-.432-.282-.713Z" fill="#fff"/>
                <path d="M265.804,164.79c.124-.257.445-.361.703-.228.246.126.349.424.235.677-.121.267-.425.377-.693.249-.262-.125-.372-.436-.245-.698Z" fill="#fff"/>
                <path d="M253.691,175.764c-.253-.124-.355-.412-.237-.67.123-.269.428-.377.693-.245.251.125.355.419.239.672-.123.268-.427.374-.695.243Z" fill="#fff"/>
                <path d="M265.882,167.939c-.116.24-.387.342-.607.227-.228-.119-.331-.423-.222-.652.112-.235.374-.327.611-.215.245.116.339.39.218.64Z" fill="#fff"/>
                <path d="M251.103,170.272c.032-.069.057-.143.098-.206.125-.197.302-.255.503-.136.204.12.228.309.121.509-.056.104-.146.19-.206.293-.109.189-.26.274-.461.168-.205-.107-.21-.284-.115-.476.024-.049.046-.099.069-.148l-.008-.004Z" fill="#fff"/>
                <path d="M262.258,175.926c-.102.237-.373.352-.597.254-.226-.1-.339-.409-.234-.643.098-.22.394-.328.612-.224.224.107.321.378.219.613Z" fill="#fff"/>
                <path d="M253.555,162.295c-.263-.11-.383-.346-.295-.576.083-.217.354-.327.578-.235.225.092.403.547.3.765-.081.173-.251.186-.584.046Z" fill="#fff"/>
                <path d="M257.044,161.404c-.113.228-.393.321-.62.194-.237-.133-.307-.339-.203-.589.099-.24.371-.332.608-.218.235.113.329.382.215.613Z" fill="#fff"/>
                <path d="M250.62,165.085c.112-.217.406-.306.63-.191.228.117.309.364.192.587-.119.226-.4.316-.623.2-.211-.11-.305-.391-.199-.596Z" fill="#fff"/>
                <path d="M254.577,170.302c-.216-.1-.32-.369-.227-.585.098-.227.386-.325.614-.211.216.108.309.377.205.59-.103.211-.376.305-.592.206Z" fill="#fff"/>
                <path d="M256.869,164.898c.178.113.257.289.16.516-.089.208-.363.309-.555.202-.212-.118-.275-.309-.187-.532.082-.207.356-.297.583-.185Z" fill="#fff"/>
                <path d="M256.878,174.925c.035.172.128.358.091.512-.055.23-.277.275-.484.186-.213-.091-.307-.301-.191-.488.082-.132.289-.186.441-.275l.143.065Z" fill="#fff"/>
                <path d="M260.71,169.664c-.076-.258-.162-.413-.144-.554.007-.056.262-.144.37-.111.192.06.256.246.135.427-.053.08-.172.117-.362.238Z" fill="#fff"/>
                <path d="M259.886,173.86c-.225.036-.38.11-.461.061-.086-.052-.102-.22-.149-.337.119-.043.256-.143.351-.112.091.029.138.195.259.389Z" fill="#fff"/>
                <path d="M256.216,172.494c.208-.035.35-.103.427-.059.081.046.099.201.145.308-.116.045-.243.14-.346.118-.076-.016-.119-.183-.226-.367Z" fill="#fff"/>
                <path d="M249.325,171.139c.222-.036.371-.106.44-.059.078.052.128.221.105.32-.013.058-.212.133-.288.103-.088-.035-.133-.178-.257-.364Z" fill="#fff"/>
                <path d="M254.06,168.722c-.029-.213-.092-.358-.045-.429.051-.077.205-.086.315-.125.038.111.129.238.1.327-.026.081-.182.119-.369.228Z" fill="#fff"/>
                <path d="M254.516,166.591c-.038-.189-.105-.318-.065-.386.042-.071.208-.137.278-.107.069.03.135.196.111.276-.022.075-.162.115-.323.217Z" fill="#fff"/>
                <path d="M258.781,176.154c-.033-.19-.093-.313-.057-.389.032-.067.212-.137.257-.106.078.054.151.196.132.281-.016.071-.165.113-.332.214Z" fill="#fff"/>
                <path d="M256.975,176.157c.031.194.094.326.052.393-.046.074-.188.088-.289.129-.036-.102-.12-.218-.095-.301.024-.076.165-.116.332-.221Z" fill="#fff"/>
                <path d="M260.298,162.704c-.027-.152-.089-.284-.049-.331.057-.069.188-.077.287-.111.028.102.096.215.071.302-.016.058-.164.079-.309.14Z" fill="#fff"/>
                <path d="M265.034,163.594c-.165.017-.301.071-.351.027-.066-.059-.065-.193-.093-.295.096-.019.213-.081.283-.046.069.034.09.165.161.314Z" fill="#fff"/>
                <path d="M257.595,172.447c.148-.034.263-.096.312-.063.07.048.091.166.134.255-.093.029-.194.092-.276.074-.058-.013-.092-.137-.17-.266Z" fill="#fff"/>
                <path d="M259.163,170.699c.145-.03.241-.079.314-.055.045.014.098.176.072.205-.053.059-.16.103-.237.094-.047-.006-.08-.124-.15-.243Z" fill="#fff"/>
              </g>
            </g>
          </g>
        </g>
      </g>
    </g>
  </g>
</svg>