<?xml version="1.0" encoding="UTF-8"?>
<svg xmlns="http://www.w3.org/2000/svg" width="300" height="300" xmlns:xlink="http://www.w3.org/1999/xlink" viewBox="0 0 300 300">
  <defs>
    <filter id="u" data-name="drop-shadow-1" x="-13.213" y="-13.291" width="346.679" height="311.52" filterUnits="userSpaceOnUse">
      <feOffset dx="-3.746" dy="0"/>
      <feGaussianBlur result="v" stdDeviation="0"/>
      <feFlood flood-color="#42496f" flood-opacity="1"/>
      <feComposite in2="v" operator="in"/>
      <feComposite in="SourceGraphic"/>
    </filter>
    <clipPath id="w">
      <path d="M126.772,270.147c-.714.568-1.284,1.023-1.977,1.575-.003-.058.007.152.018.393-3.196-.319-3.327-2.383-.098-2.884,1.266-.458,1.292-1.73,1.796-3.082-1.457.556-2.442.47-3.814.697.252.876.893.851,1.45,1.442-.481.508-1.165.591-1.771.508-.164-1.022-1.028-2.49.117-3.246,1.081-.446-.186-1.686-.567-2.013-.576.277-1.111.961-.617,1.595.308.467.508.864-.116,1.321-1.184,3.272-3.027-.469-4.858-1.096.043-.188.129-.569.249-1.096-1.736,1.039-.908-3.182-2.925-.821-1.624-1.05-2.16-4.844-4.273-4.346-.195.121-.721-.087-.862-.323-.793-2.584-3.2-3.697-4.05-6.08-.648-1.513-1.976-2.377-3.113-3.449-.105-.152-.742-.109-.861.057-.955,1.197-2.936.12-3.038-1.301-.305-.566-1.47-1.131-1.391-1.989-.993-1.138.043-1.066.753-1.648-.713-.298-.871-.891-.862-1.733.182-.805-1.666-2.151-.396-2.576,1.456-.278.308-1.173.293-2.22-.995,1.425-2.019,2.272-3.674,2.052-.749.61-1.209.199-1.709-.265-1.289-1.414-3.222.461-4.368,1.389.096-3.759-4.685.9-6.54,1.179-.045-1.293-1.546-2.313-2.535-1.037-2.249-.607-2.976-3.952-4.684-5.586-.354-1.535-2.399-1.151-2.496-2.62-.174-1.629-2.3-1.873-2.288-3.673-1.441-.59-1.123-2.543-2.161-3.441-1.784-2.289-6.496-5.151-5.755-8.104.894-.917,0-1.194-.607-1.76-.469-1.012-1.005-.044-1.776-.239,1.881-2.059-1.466-2.334,1.303-5.969.307-.896-.85-.648-1.11-.104-.689,1.234-1.677,1.063-2.634.934-.512-.549-.059-1.924-1.332-1.664-.087-.365-.174-.73-.265-1.114-1.241.3-1.93,1.597-.515,2.208-1.318,1.253-3.583,4.501-4.84,1.678-1.488.342-1.344-2.237-2.996-.947-.081-.699-.146-1.267-.22-1.908-.179.118-.405.268-.633.418-.357-.743-.386-1.794-1.555-1.625-.128-.956-.256-1.902-.401-2.984-.273.4-.459.674-.57.836-1.739-.398-2.103-2.224-3.029-3.533-.095.013-.19.027-.285.04-.063.335-.127.67-.19,1.006-.1-.005-.2-.01-.301-.014.267-3.392-2.866-4.422-3.859-7.278.268-1.007.296-1.422-.313-2.239-.385.414-.736.792-1.218,1.311-.78-.576-.39-2-1.553-1.698-.335-1.357-.028-2.349.869-3.26-.982-1.094,1.552-3.478-.432-3.648-.108.467-.211.908-.313,1.349h-.215c.026-1.112.053-2.223.084-3.524,2.431,1.178,2.282-2.245,2.499-3.943-.967.712-1.639,2.005-2.82,1.039.176.3.352.6.614,1.048-.519.131-.969.245-1.271.321-.347-1.909.465-3.139,1.711-4.501.127.086.294.199.395.268,2.901-4.637,5.805-9.825,10.004-13.792-1.101-.897-1.671-2.744-.22-3.567.661.055,1.365.339,1.709.081.63-.781,1.133-1.841-.331-2.352-.007-1.37,1.816-2.873.508-4.08-.762-.851-.499-2.634-1.967-2.737-1.541-.467-2.351.923-3.668,1.337-1.282-.241-1.534,1.02-2.196,1.866-.778-.443-1.737-.572-2.254-1.223-.354-1.428-1.427-.995-2.579-1.251.279-.295.512-.541.756-.799-1.61-.454-1.243,1.18-.684,1.971-.347.287-.659.544-1.161.959-.146-.998.719-2.27-.491-2.696-2.003-.024-2.094-3.775-4.13-2.353.013-.316.026-.622.039-.933-1.119-.022-1.15-.978-1.739-1.663-2.298-1.886-1.623-1.258-2.3-3.981-.202.134-.39.26-.632.421-.647-.984-1.563-1.132-1.856-2.568-1.328-2.881-5.346-3.058-7.079-5.386-.585.083-1.041.148-1.601.228,1.383-2.045.167-3.317.285-5.289.802-1.974,1.602-3.943,2.4-5.907l.357.032c-.084.989-.167,1.98-.27,3.197.814-.916.531-1.853.959-2.706.183.12.335.22.487.32.067-.034.134-.067.201-.101.024-1.515-1.858-.945-.615-2.467,8.097-15.249,14.395-31.292,23.079-46.174.452-.861.735-1.603,1.645-.565,1.744.56,1.811-2.35,3.56-2.194.431-.026.743-1.269.438-1.892-.072.32-.123.543-.188.83-.996.023-1.962.045-2.946.068.288-2.054,2.598-2.155,4.1-1.523,1.683-2.489,2.304-6.224,5.744-6.788-.14-.172-.266-.327-.539-.662,2.52-.59,4.58,2.546,6.67,1.905.44-.39.743-.297.818.309-.216.079-.43.157-.716.261,4.26,1.531,8.617,5.253,12.519,6.025.919,2.415,2.378-.584,3.433-1.49.519-.833,1.393-.071,2.021-.601,8.953-9.038,16.928-19.513,26.772-26.991.548-.009,1.596.235,1.946.822,1.848,1.277,2.466-3.795,6.841,1.161.667,1.147,2.425-.463,2.708,1.046.282,1.139,1.689,1.087,2.207,2.067,1.786,1.081,2.565,3.146,4.737,3.803.689.392.8.85,1.497-.017.118,1.414.309,1.516,1.399.76.079.407.154.792.229,1.178.343-.146.685-.291,1.123-.477-.465,6.943,24.591-23.986,27.83-25.766,1.614.353-.188,1.261.697,2.163.504.143.961-.691,1.338-.89,1.676-.328-.022,1.919,1.229,2.224.722.181.831,1.901,1.677.962.181.363.422.654.47.981.121.87,1.498.81,1.687.114.111-.926-.632-2.356.922-2.128.695.044.417,1.093.954,1.37-.252.402-.445.71-.638,1.018.435.124.871.249,1.436.41-.455,1.116-.409,1.297.704,1.757.236,1.007,1.231,1.468,1.973,2.04.853.704,1.654,2.045,3.013,1.97-.367,1.39,1.423.545,2.121.967-1.036.973-.927,1.293.14,1.928-.026.064-.052.129-.078.193-.473-.052-.945-.105-1.599-.177.27.731,1.157.622.746,1.475-.068.73,1.223.916,1.837.424-.165.316-.264.505-.399.765.57-.039.209,1.014.965.708.422-.171.76-.545,1.101-.949-1.081.652-1.342-.397-.403-.954,1.362.035,2.055-.861,2.827-1.742,1.164-1.315,2.162-2.092,3.896-1.315.42.365.792.737,1.358.086,1.024.926,2.01,1.817,2.997,2.709.08-.067.161-.134.241-.2-.201-.332-.402-.663-.707-1.165,1.923,1.296,3.917-1.03,5.357.406.242,1.625,1.152,2.489,2.362,3.451,1.077.962.459,2.642,1.638,3.51.591.438.42,1.541,1.363.95,1.136-.803,2.064,1.302,1.41,2.168.424.081.745.143,1.018.195-.349.427-.657.804-.966,1.18.601.262-.509,1.372.736,1.339.079-.234.163-.483.242-.715.997.668,2.299,1.187,1.222,2.566.322.045.606.085.957.133-.052.234-.096.434-.112.508.399.361.738.669,1.123,1.017-.197.249-.374.474-.652.826.998-.259,1.849-.481,2.782-.723.017.314.026.498.036.679,2.534.548.472,4.428.011,6.054.081.056.162.112.243.169,1.616-1.377,2.453-3.491,3.878-5.066.083.048.165.097.248.145-.384.974-.893,1.909-1.079,2.947,1.031-.032,1.49-.808,2.019-1.568,3.259,2.237,14.631-18.5,13.479-7.991.094.03.189.059.283.089,1.094-2.144,4.509-2.623,4.519.402-.096.89.735.556,1.293.499.593-.139.81.106.812.662-.08,1.962,4.51.524,3.973,3.236,2.144-.457,1.241,2.226,2.864,2.406.605-.004,1.21.372,1.837.587-.225.485-.433.934-.678,1.461,5.02.996,1.101.777,3.501,2.933,4.404,2.295.161,6.216-.403,9.674.089.041.178.082.266.123-.185.117-.369.233-.605.382.059.154.126.329.196.511-1.449.027-.687,1.274-1.387,2.138-.349.477-.522.808.079,1.218.73.849.617,2.264.918,3.296-.073-.059-.231-.188-.271-.221-.656,1.441.088,2.991-1.8,3.481-.204.757-.278,1.634-1.183,2.076-.315-.334-.584-.62-.852-.905-.137-.009-.274-.017-.41-.026.293,2.122-.855,3.447-1.799,5.239,1.242.98,3,.811,3.902,1.869.136.202.265.614.366.604,1.437-.079,1.729,1.318,2.679,1.994.643-.661,1.245-1.281,1.864-1.918.26.187.466.335.672.483.052-.03.105-.061.157-.091-.128-.276-.256-.553-.428-.924,1.562-3.164,1.703.665,2.812-1.18.475.196-.208,1.169.688.926.129-.035.115-.591.193-1.067,1.148-.008,1.437,1.548,2.789.384.073.773.039,1.143.215,1.756,1.685-.842,3.335-2.183,4.895-3.547,1.023-1.326,1.915-1.908,3.486-.744-.475.142-.748.223-1.02.305-.005.067-.011.135-.016.202.378.068.756.137,1.195.217.034-.181.063-.334.1-.528,1.723.228.025,1.229,1.078,1.799.134-.204.256-.391.296-.453,1.868.37,1.023-1.643.979-2.751l.204-.01c1.293,1.101,1.019,3.405,2.372,4.092.478.042.83.144,1.165.502,1.443.824.727-1.53,1.45-1.887.825-.061,1.284.754,1.73,1.415-.65,1.95,2.239,2.847,3.33,4.16-1.55-.417-2.332-.086-.804,1.442.229-.349.361-.551.594-.905.361.657.506,1.139,1.073,1.535.326-.601.054-1.047-.141-1.632.68.197,1.275.399.869,1.299.351,2.153,4.294-.792,3.39,2.185.898-.303,3.057.317,1.793,1.39-.131.095-.137.605-.006.756.169.194.628.381.795.285.865-.523,1.285.614,1.879,1.035,1.081,1.873-1.129,3.834-.969,5.528,1.202.529-.36,2.016-1.067.878-.308.414-.488.762.194.862,1.616,1.818-2.468,6.466-3.68,8.628.365-.107.59-.173.909-.267.159.618,1.012,1.706-.01,1.987-.745.554-.263,1.555-.229,2.5.289.015,1.168-.414,1.404-.381.598.516,1.12.261,1.637-.051.559-.337.696-.053.782.465.801,2.367,1.179,4.776,2.081,7.035.296,1.29.714,3.393,2.176,3.714.357.969,1.887,1.054,1.624,2.511,2.597-.272,2.122,3.134,2.166,4.769,2.929,1.423-1.903,4.927-2.06,7.046-1.368,1.049-1.719,3.218-2.761,3.844-.552.332.13,1.785-.94,1.65-.796.839-1.221,1.956-2.062,3.186,3.359.425,6.449.815,9.532,1.205.032,1.666.885.365,1.742,1.274-.463.32-.798.55-1.11.766,1.152,1.211,1.958,3.802.022,4.516-1.213-.421-.742.496-.819,1.117.542-.177.997-.326,1.52-.497.973,1.168-1.798,1.906-.43,3.306.013,5.671-9.282,6.554-2.154,13.149-.601.93.805,1.579.35,2.49-.864,1.241-.557,2.496,1.028,2.77.031-.119.095-.368.163-.633,1.014.619,2.481,4.084,2.35,5.432.203-.031.46-.071.716-.111-.01.096-.021.192-.031.288-.183.196-.365.393-.548.59.022.092.044.183.066.275.393-.066.786-.133,1.324-.224-.604.681-.237,2.147-1.186,2.219-.146-.009-.301.289-.452.446.707.611,1.519-.008,2.306-.16.039.066.079.131.118.197-3.126,4.171-9.064,6.455-10.856,11.429-.128,1.576-.41.812-1.467,1.079.511.307,1.427.88.622,1.38-.764.446.062,1.168-.253,1.875-.087.003-.174.006-.261.009-.122-.197-.243-.393-.517-.836-2.745,9.891-14.735,10.7-21.933,16.161-4.721,4.006-9.465,8.241-14.742,11.416-1.032,1.679-4.844,4.864-6.137,2.157.234-.101.458-.199.914-.396-.521-.325-.863-.539-1.347-.841.147,1.114-.969,3.195-.613,1.098-1.212-.582-.148-1.97-.78-3.19-.401.884-.706,1.557-1.011,2.231-1.428-.731-.155-3.632-1.829-3.831-.673,1.024-1.157.594-1.616-.31-.299.539-.537.97-.797,1.437-3.272-3.432-9.814,6.669-13.382,6.068-1.938.182-3.462,3.741-5.535,2.824-8.971-2.229-27.887,23.203-33.172,18.759.277-.119.533-.228,1.027-.44-.491-.356-.823-.597-1.214-.881-1.253,2.454-1.359-.662-1.252-1.807-.098-.031-.197-.062-.295-.093-.366.652-.732,1.305-1.092,1.947-1.624-.22.047-4.78-1.789-3.836-.899,1.306-.917.067-1.661-.321-.179.432-.346.837-.504,1.219-2.082-1.718-4.408.854-6.83.32-.817.38-2.702,1.194-2.44-.602.711-.752,1.476-3.949-.374-3.102-.693-1.096-.614-1.406.383-1.632-.13-1.436-.512-1.982-1.573-.714.167-2.383-1.748-3.383-1.153-5.508.157-.534-.429-1.418-.268-1.963.769-1.473-.333-2.133-.906-3.004-1.931-.74-2.614-2.2-3.516-4.067-.659.517-1.34,1.051-2.08,1.631.027-.286.049-.514.074-.772-2.134.455-.86,2.028-2.308,3.424-.48-2.06,1.266-3.471,1.159-5.483-7.491,8.85-14.265,20.34-21.905,27.933ZM281.647,165.413c.861.91-.177,1.368.871,1.808.243-.854,1.473-1.293.613-2.462l-.624.31-.413-.196c.221-.269.443-.537.662-.803-1.404-1.639-1.201.322-1.109,1.344ZM33.541,183.748c-.44.598-.881,1.197-1.321,1.794.416.232.892.496,1.372.764.972-1.015.967-1.809-.051-2.558ZM282.421,173.251c-.222-.095-.444-.189-.666-.284.342-.493.685-.986.992-1.43-.25-.17-.55-.375-.848-.578q-.56.478.02,1.052c-.282.189-.563.377-.843.564-.009.121-.018.242-.026.363.457.104.914.208,1.372.313ZM280.446,162.308c-.318.619-.555,1.08-.89,1.733,1.061-.275,2.309-1.141.89-1.733ZM230.913,89.214c-.07.023-.14.046-.21.069-.088.634-.176,1.268-.273,1.965.299-.137.55-.252.902-.413-.137-.532-.278-1.077-.419-1.622ZM179.677,43.765c-.848.503-.866.792-.101,1.425.035-.491.064-.905.101-1.425ZM38.809,78.717c.649.155,1.027.174,1.063-.485-.428-.544-.687.017-1.063.485ZM31.936,191.013c-.467.934-.379,1.117.477,1.239-.178-.463-.328-.851-.477-1.239ZM281.27,169.697c.154.012.308.025.462.037.005-.409.011-.818.016-1.226-.12-.01-.24-.02-.36-.03-.039.406-.079.812-.118,1.218ZM76.359,239.142c-.032.385-.064.77-.106,1.275.927-.494.838-.89.106-1.275Z" fill="none"/>
    </clipPath>
    <linearGradient id="x" data-name="Dégradé sans nom 35" x1="147.278" y1="38.554" x2="147.278" y2="198.581" gradientUnits="userSpaceOnUse">
      <stop offset="0" stop-color="#b1ddea"/>
      <stop offset="1" stop-color="#54bfd1"/>
    </linearGradient>
    <linearGradient id="y" data-name="Dégradé sans nom 14" x1="165.059" y1="199.488" x2="165.059" y2="253.473" gradientUnits="userSpaceOnUse">
      <stop offset="0" stop-color="#6498d1"/>
      <stop offset="1" stop-color="#336a9b"/>
    </linearGradient>
    <filter id="z" data-name="drop-shadow-2" x="132.802" y="116.376" width="83.347" height="86.53" filterUnits="userSpaceOnUse">
      <feOffset dx="-4" dy="0"/>
      <feGaussianBlur result="aa" stdDeviation="0"/>
      <feFlood flood-color="#42496f" flood-opacity="1"/>
      <feComposite in2="aa" operator="in"/>
      <feComposite in="SourceGraphic"/>
    </filter>
    <clipPath id="ab">
      <path d="M145.627,192.446s63.951-7.354,70.522-8.542c-1.957,5.941-9.147,13.777-21.693,16.852,0,0-38.628-1.126-44.341-1.335-3.76-2.171-4.487-6.975-4.487-6.975Z" fill="none"/>
    </clipPath>
    <clipPath id="ac">
      <path d="M274.831,215.256c-12.311,6.991-23.359,4.958-29.021,3.029-.49.525-1.183.858-1.958.858-1.339,0-2.44-.983-2.643-2.264-22.57,11.509-26.689-3.825-26.689-3.825-18.27,15.188-39.621,10.566-39.621,10.566l-1.321-82.892h94.837l6.416,74.527Z" fill="none"/>
    </clipPath>
    <filter id="ad" data-name="drop-shadow-3" x="226.053" y="157.755" width="34.228" height="76.141" filterUnits="userSpaceOnUse">
      <feOffset dx="-4" dy="0"/>
      <feGaussianBlur result="ae" stdDeviation="0"/>
      <feFlood flood-color="#42496f" flood-opacity="1"/>
      <feComposite in2="ae" operator="in"/>
      <feComposite in="SourceGraphic"/>
    </filter>
  </defs>
  <g isolation="isolate">
    <g id="t" data-name="Calque 23">
      <g>
        <g filter="url(#u)">
          <g clip-path="url(#w)">
            <g>
              <rect x="-13.213" y="-13.291" width="320.982" height="233.088" fill="#54bfd1"/>
              <rect x="-13.213" y="-13.291" width="320.982" height="233.088" fill="url(#x)"/>
              <path d="M309.241,128.113c-1.241-1.224-35.365-21.906-51.703,10.357-6.618-13.65-16.959-5.584-21.095,21.508-5.311-3.066-11.995,5.352-11.995,5.352,3.102-17.967-5.998-15.064-10.341,1.891-5.17-6.002-11.581-5.994-16.545,0-4.963-5.588-12.814-5.325-17.885,4.884-5.071-7.783-12.192-2.274-15.618,2.367-1.497-3.513-5.17-5.975-9.513-3.513-4.343,2.462-.859,7.828-10.042,8.144s-12.923-3.044-21.826.689v9.073h187.897l-1.334-60.752Z" fill="#b1ddea" opacity=".5"/>
              <path d="M7.66,158.078c2.34-22.365,26.104-63.266,42.782-56.921,16.678,6.345,11.964,34.449,11.964,34.449,15.046-5.626,22.195,8.788,20.847,22.472,8.32-13.313,18.633-17.014,28.279,0,5.713-3.298,16.137-1.693,17.13,9.143,5.669-1.071,11.418,4.342,6.272,16.527H7.66v-25.67Z" fill="#b1ddea" opacity=".5"/>
              <path d="M310.357,177.897c-6.48,1.19-14.535,1.903-23.298,1.903s-16.818-.714-23.298-1.903h-.355c-6.48,1.19-14.535,1.903-23.298,1.903s-16.818-.714-23.298-1.903h-.355c-6.48,1.19-14.535,1.903-23.298,1.903s-16.818-.714-23.298-1.903h-.355c-6.48,1.19-14.535,1.903-23.298,1.903s-16.818-.714-23.298-1.903h-.355c-6.48,1.19-14.535,1.903-23.298,1.903s-16.818-.714-23.298-1.903h-.355c-6.48,1.19-14.535,1.903-23.298,1.903s-16.818-.714-23.298-1.903H-3.348v120.332h336.814v-120.332h-23.109Z" fill="url(#y)"/>
              <g opacity=".5">
                <path d="M167.006,226.438s12.999-4.46,16.131-6.642c0,0,.38,4.649,16.89,4.934-20.4,5.883-14.802-.569-33.02,1.708Z" fill="#fff"/>
                <path d="M241.753,202.264s3.89-1.993,4.555-3.036c2.59,1.495,6.832,3.321,7.97,3.036-8.16-.99-8.67,2.226-12.525,0Z" fill="#fff"/>
                <path d="M47.131,192.393s4.891-.752,6.526-2.175c2.136,1.583,8.073,2.175,8.073,2.175-6.707-.014-10.271,1.478-14.599,0Z" fill="#fff"/>
                <path d="M84.377,214.71c5.49.309,12.547-3.243,14.733-4.777,2.764,3.089,7.675,5.489,15.141,2.258,4.69,1.966,12.394,2.8,15.884,1.869-12.92,2.137-10.861.582-14.511,1.12-3.65.538-8.86,3.388-16.639.193-5.704,1.737-11.023,1.63-14.608-.662Z" fill="#fff"/>
                <path d="M174.503,189.975c3.049.171,6.967-1.802,8.182-2.654,1.535,1.716,4.263,3.049,8.408,1.254,2.604,1.092,6.883,1.555,8.821,1.038-7.175,1.187-6.032.323-8.058.622-2.027.299-4.92,1.882-9.24.107-3.168.965-6.121.906-8.112-.367Z" fill="#fff"/>
              </g>
              <g>
                <g>
                  <path d="M142.869,197.449l.309.309" fill="none"/>
                  <g>
                    <path d="M142.755,191.631c.429-.276.897-.022,1.025.268.153.346.027.752-.3.92-.344.177-.761.045-.941-.301-.029-.056-.049-.116-.077-.172-.233-.477-.214-.525.293-.714Z" fill="#fff"/>
                    <path d="M142.911,202.577c-.133-.317.013-.679.33-.82.333-.148.706.002.836.337.123.316-.033.684-.348.816-.313.132-.688-.021-.819-.333Z" fill="#fff"/>
                    <path d="M148.272,197.274c-.109-.266,0-.493.301-.626.29-.127.62-.002.736.281.113.274-.022.585-.304.699-.295.119-.6-.028-.734-.354Z" fill="#fff"/>
                    <path d="M150.268,193.926c.107.277-.021.571-.291.673-.268.101-.565-.036-.67-.308-.113-.294.011-.609.281-.71.271-.102.567.048.681.345Z" fill="#fff"/>
                    <path d="M142.922,195.966c-.11-.265.015-.576.275-.688.265-.113.572.013.682.281.112.272-.008.569-.277.684-.271.116-.568-.005-.681-.277Z" fill="#fff"/>
                    <path d="M146.433,188.407c-.096-.256.045-.547.308-.638.25-.087.525.039.625.285.105.261-.02.544-.286.645-.26.099-.548-.031-.646-.292Z" fill="#fff"/>
                    <path d="M146.013,204.069c-.254.094-.52-.027-.621-.28-.105-.264.023-.546.29-.642.253-.091.526.031.624.28.104.263-.024.543-.292.642Z" fill="#fff"/>
                    <path d="M148.668,190.439c.09.24-.02.495-.245.571-.233.079-.513-.051-.599-.278-.088-.234.021-.476.256-.566.243-.093.495.024.588.273Z" fill="#fff"/>
                    <path d="M140.494,202.224c-.027-.068-.061-.134-.078-.204-.054-.217.023-.378.239-.439.219-.062.365.047.432.254.035.108.035.227.067.337.059.201.018.361-.189.431-.21.071-.336-.043-.406-.235-.018-.049-.038-.097-.057-.146l-.008.003Z" fill="#fff"/>
                    <path d="M151.8,198.24c.096.228-.003.492-.219.582-.219.091-.508-.036-.601-.264-.087-.214.033-.49.25-.572.223-.084.475.028.57.254Z" fill="#fff"/>
                    <path d="M136.591,195.242c-.251.109-.493.036-.595-.178-.095-.201.008-.462.22-.556.213-.095.646.083.729.299.066.171-.037.297-.355.435Z" fill="#fff"/>
                    <path d="M138.285,192.233c.083.229-.038.485-.276.558-.249.076-.438-.012-.543-.249-.101-.228.016-.477.252-.566.234-.088.483.025.567.257Z" fill="#fff"/>
                    <path d="M136.58,199.123c-.076-.222.057-.484.285-.563.232-.08.457.027.534.256.078.232-.046.486-.274.564-.216.074-.473-.047-.545-.257Z" fill="#fff"/>
                    <path d="M142.816,199.837c-.212.084-.468-.022-.556-.23-.092-.218.03-.483.261-.565.218-.078.466.036.545.249.078.211-.037.463-.25.546Z" fill="#fff"/>
                    <path d="M140.59,194.669c.196-.049.37.014.463.231.085.199-.027.456-.228.518-.222.068-.396-.014-.493-.223-.089-.194.03-.443.258-.527Z" fill="#fff"/>
                    <path d="M147.543,201.305c.142.09.333.148.415.276.123.191.007.374-.191.458-.204.087-.412.013-.465-.191-.037-.144.063-.324.102-.487l.14-.056Z" fill="#fff"/>
                    <path d="M146.436,195.165c-.23-.118-.393-.162-.479-.267-.034-.042.073-.277.169-.33.168-.093.34-.014.385.189.02.09-.033.197-.075.408Z" fill="#fff"/>
                    <path d="M148.798,198.515c-.124.18-.176.336-.263.36-.093.025-.22-.075-.333-.12.049-.111.071-.272.155-.318.081-.043.226.034.441.078Z" fill="#fff"/>
                    <path d="M145.42,200.154c.114-.167.16-.311.242-.335.085-.025.205.064.309.103-.046.11-.064.261-.147.318-.061.042-.206-.039-.404-.086Z" fill="#fff"/>
                    <path d="M139.917,204.03c.122-.177.172-.327.251-.344.088-.019.238.058.292.139.032.048-.048.235-.12.268-.082.038-.211-.025-.423-.063Z" fill="#fff"/>
                    <path d="M141.378,199.149c-.167-.122-.309-.173-.328-.253-.02-.086.076-.199.122-.301.102.047.25.068.293.147.039.072-.038.205-.087.407Z" fill="#fff"/>
                    <path d="M140.204,197.422c-.155-.099-.29-.138-.311-.21-.022-.076.043-.235.11-.263.067-.028.225.037.265.106.037.065-.028.189-.064.368Z" fill="#fff"/>
                    <path d="M149.655,200.801c-.154-.103-.278-.142-.307-.218-.025-.066.045-.238.097-.248.089-.018.236.026.282.095.039.058-.031.189-.072.372Z" fill="#fff"/>
                    <path d="M148.461,202.054c.155.107.288.151.307.225.021.081-.064.189-.102.285-.094-.042-.231-.061-.271-.133-.037-.067.028-.191.066-.376Z" fill="#fff"/>
                    <path d="M141.341,190.84c-.123-.082-.255-.127-.262-.185-.01-.085.071-.181.113-.272.089.048.212.076.256.151.029.05-.054.166-.107.307Z" fill="#fff"/>
                    <path d="M145.096,188.149c-.097.126-.15.255-.214.261-.084.007-.177-.083-.266-.131.05-.079.085-.201.155-.226.07-.025.174.047.324.097Z" fill="#fff"/>
                    <path d="M146.301,199.167c.075-.125.108-.246.163-.258.08-.016.176.047.265.076-.042.083-.064.195-.132.24-.048.032-.156-.027-.297-.059Z" fill="#fff"/>
                    <path d="M146.129,196.923c.075-.12.105-.219.17-.254.04-.022.187.049.19.085.006.076-.034.179-.092.226-.035.029-.139-.026-.268-.057Z" fill="#fff"/>
                  </g>
                </g>
                <g>
                  <path d="M208.968,195.958l.309.309" fill="none"/>
                  <g>
                    <path d="M206.653,192.697c.203-.336.611-.319.798-.162.222.187.273.51.104.736-.178.239-.51.288-.751.111-.039-.029-.073-.063-.111-.093-.322-.25-.325-.29-.04-.592Z" fill="#fff"/>
                    <path d="M210.463,200.197c-.199-.174-.221-.473-.05-.677.18-.215.488-.237.691-.05.192.176.208.483.036.681-.172.197-.482.218-.678.047Z" fill="#fff"/>
                    <path d="M212.369,194.725c-.166-.147-.167-.34-.004-.534.157-.186.427-.211.603-.055.171.151.183.411.027.585-.163.182-.424.184-.626.004Z" fill="#fff"/>
                    <path d="M212.614,191.738c.167.155.179.401.027.563-.151.16-.402.166-.567.014-.178-.164-.198-.424-.047-.585.153-.162.407-.159.587.008Z" fill="#fff"/>
                    <path d="M208.234,195.631c-.166-.146-.185-.403-.043-.568.144-.168.399-.185.565-.037.169.15.187.396.041.566-.148.172-.394.189-.563.039Z" fill="#fff"/>
                    <path d="M208.1,189.228c-.153-.144-.154-.393-.004-.545.143-.145.375-.151.527-.014.161.144.17.383.021.542-.146.156-.389.164-.545.017Z" fill="#fff"/>
                    <path d="M213.109,200.178c-.143.15-.368.158-.523.017-.161-.146-.169-.384-.017-.541.144-.148.373-.156.525-.018.16.146.167.383.016.542Z" fill="#fff"/>
                    <path d="M210.33,189.874c.143.135.154.348.024.477-.134.133-.371.138-.507.011-.14-.131-.146-.335-.015-.477.136-.146.349-.151.498-.01Z" fill="#fff"/>
                    <path d="M208.676,200.772c-.041-.038-.087-.072-.123-.114-.11-.131-.112-.269.017-.384.13-.117.268-.091.384.029.061.063.101.145.16.21.109.119.134.243.015.361-.121.12-.247.084-.36-.025-.029-.028-.059-.054-.089-.081l-.005.005Z" fill="#fff"/>
                    <path d="M215.13,194.198c.144.125.164.341.045.476-.12.137-.363.147-.504.021-.133-.118-.143-.35-.021-.479.125-.133.337-.141.48-.017Z" fill="#fff"/>
                    <path d="M203.621,197.273c-.136.16-.328.192-.47.079-.134-.107-.151-.322-.036-.458.115-.137.474-.161.604-.04.103.095.075.218-.098.42Z" fill="#fff"/>
                    <path d="M203.772,194.624c.135.13.138.348-.002.478-.146.137-.306.14-.459.012-.147-.123-.151-.335-.017-.476.132-.14.342-.146.478-.014Z" fill="#fff"/>
                    <path d="M204.926,199.956c-.127-.127-.125-.353.006-.485.133-.134.325-.136.455-.004.132.134.133.351.002.482-.124.124-.342.127-.463.007Z" fill="#fff"/>
                    <path d="M209.471,198.339c-.118.129-.331.143-.461.029-.137-.119-.142-.343-.011-.478.124-.127.334-.133.46-.013.125.119.131.332.012.462Z" fill="#fff"/>
                    <path d="M206.186,195.525c.119-.1.26-.116.398.003.126.109.136.324.018.435-.13.122-.278.125-.415.013-.127-.104-.129-.316,0-.451Z" fill="#fff"/>
                    <path d="M213.23,197.753c.128.014.28-.01.38.05.149.09.131.256.023.381-.112.129-.28.148-.385.026-.074-.087-.066-.245-.095-.371l.077-.086Z" fill="#fff"/>
                    <path d="M210.388,193.89c-.198-.004-.326.021-.421-.022-.038-.017-.043-.216.005-.284.085-.121.23-.125.33,0,.044.055.044.147.087.307Z" fill="#fff"/>
                    <path d="M213.152,195.403c-.025.166-.008.291-.06.337-.056.049-.177.023-.27.03-.004-.093-.043-.212,0-.272.041-.057.168-.053.331-.095Z" fill="#fff"/>
                    <path d="M211.375,197.677c.022-.154.005-.269.053-.313.05-.046.163-.025.248-.033.006.092.044.202.006.269-.028.05-.155.043-.308.077Z" fill="#fff"/>
                    <path d="M208.889,202.213c.024-.164.008-.284.057-.322.054-.043.184-.04.248-.003.038.022.046.178.008.225-.044.054-.154.054-.313.1Z" fill="#fff"/>
                    <path d="M208.246,198.35c-.156-.027-.272-.015-.312-.064-.043-.053-.015-.163-.018-.249.086-.002.196-.038.252.002.051.036.043.154.078.31Z" fill="#fff"/>
                    <path d="M206.851,197.555c-.141-.016-.247.003-.286-.04-.041-.045-.05-.177-.013-.219.037-.042.168-.051.219-.017.048.032.045.14.08.275Z" fill="#fff"/>
                    <path d="M214.517,196.691c-.141-.019-.24-.004-.286-.047-.04-.037-.049-.179-.017-.204.055-.042.171-.062.227-.03.046.027.042.141.076.281Z" fill="#fff"/>
                    <path d="M214.116,197.959c.143.021.25.007.288.051.042.049.02.152.026.231-.079.003-.18.036-.232,0-.048-.034-.045-.142-.081-.282Z" fill="#fff"/>
                    <path d="M205.409,192.629c-.113-.015-.219-.001-.243-.039-.036-.056-.012-.149-.014-.226.078.003.172-.019.228.017.037.024.019.133.03.248Z" fill="#fff"/>
                    <path d="M207.09,189.502c-.025.12-.017.227-.059.252-.056.033-.15.003-.228,0,.008-.072-.009-.168.031-.209.04-.041.136-.026.257-.043Z" fill="#fff"/>
                    <path d="M211.649,196.698c.009-.112-.009-.206.025-.233.049-.038.137-.027.209-.037,0,.072.022.157-.01.21-.022.038-.117.034-.225.06Z" fill="#fff"/>
                    <path d="M210.771,195.207c.011-.108-.002-.187.031-.233.02-.028.146-.029.16-.005.029.05.037.135.013.187-.014.032-.105.029-.204.051Z" fill="#fff"/>
                  </g>
                </g>
              </g>
              <g>
                <g filter="url(#z)">
                  <path d="M164.972,126.072s39.542,37.911,49.693,56.084c-13.055-2.866-31.787-.699-38.637,1.747l-11.056-57.831Z" fill="#e86170"/>
                  <path d="M165.905,129.063s16.918,42.013,23.473,47.819c0,0-11.029,4.055-13.349,7.021l-10.123-54.841Z" fill="#6498d1" mix-blend-mode="multiply" opacity=".25"/>
                  <path d="M164.972,128.873s-17.415,49.067-25.616,58.526l35.181-5.032-9.565-53.493Z" fill="#e86170"/>
                  <path d="M165.591,130.923s-2.143,44.64-17.334,54.798l26.184-3.588-8.85-51.21Z" fill="#6498d1" mix-blend-mode="multiply" opacity=".25"/>
                  <polygon points="163.142 119.484 164.139 119.299 178.331 189.253 175.019 189.869 163.142 119.484" fill="#fff"/>
                  <path d="M145.627,192.446s63.951-7.354,70.522-8.542c-1.957,5.941-9.147,13.777-21.693,16.852,0,0-38.628-1.126-44.341-1.335-3.76-2.171-4.487-6.975-4.487-6.975Z" fill="#fff"/>
                  <g clip-path="url(#ab)">
                    <path d="M195.507,202.907s9.214-2.584,15.365-12.988c.519-.878-.17-1.987-1.186-1.896-9.999.896-49.956,4.252-61.191,5.423-1.052.11-1.773,1.13-1.49,2.149.508,1.83,1.689,4.443,4.384,5.503l44.116,1.809Z" fill="#6498d1" mix-blend-mode="multiply" opacity=".25"/>
                  </g>
                  <polygon points="137.112 188.466 174.537 183.632 174.441 182.133 136.802 187.518 137.112 188.466" fill="#fff"/>
                  <path d="M164.972,118.736c1.962-1.68,4.818-3.538,7.947-1.394,9.944,6.814,8.241-.783,15.212-.135-4.469,1.025-4.642,7.962-12.294,8.208-4.729.152-4.835-2.59-9.526.736l-1.339-7.415Z" fill="#e86170"/>
                </g>
                <path d="M214.159,199.235c-1.114-.885-3.094-1.609-4.974-1.632-3.384-.041-4.348.698-4.348.698-4.453-2.571-13.291-7.898-20.421-5.032-7.129,2.866,19.144,12.403,20.541,11.285,1.398-1.118-7.775-4.837-5.936-5.036,1.966-.214,5.105.043,6.922.462,2.445-.919,10.852,1.35,8.215-.745Z" fill="#a7caec"/>
                <g>
                  <path d="M184.719,196.752l.309.309" fill="none"/>
                  <g>
                    <path d="M182.354,196.093c-.013-.229.19-.355.332-.34.169.017.299.156.292.321-.007.174-.151.307-.326.3-.028,0-.056-.007-.084-.008-.238-.015-.252-.033-.214-.273Z" fill="#fff"/>
                    <path d="M186.657,198.457c-.153-.018-.262-.156-.247-.31.016-.163.157-.275.317-.251.151.022.259.165.241.316-.018.151-.161.264-.311.245Z" fill="#fff"/>
                    <path d="M185.777,195.192c-.128-.016-.192-.109-.177-.256.015-.141.137-.242.273-.225.132.017.223.138.205.273-.019.141-.144.228-.301.208Z" fill="#fff"/>
                    <path d="M184.914,193.671c.132.02.218.135.198.263-.02.127-.139.213-.269.193-.14-.021-.235-.139-.215-.267.02-.128.144-.21.285-.189Z" fill="#fff"/>
                    <path d="M184.081,196.988c-.128-.016-.221-.133-.207-.26.014-.128.132-.22.261-.204.131.017.22.129.206.26-.015.131-.128.22-.259.204Z" fill="#fff"/>
                    <path d="M181.912,193.944c-.121-.019-.204-.139-.181-.261.022-.117.131-.196.25-.18.125.017.208.129.188.255-.019.123-.134.207-.257.187Z" fill="#fff"/>
                    <path d="M187.926,197.578c-.02.12-.126.197-.247.18-.126-.018-.208-.13-.186-.255.021-.119.129-.198.247-.181.125.018.207.13.186.256Z" fill="#fff"/>
                    <path d="M183.199,193.523c.113.018.189.117.168.222-.021.108-.133.189-.241.172-.111-.017-.181-.114-.164-.225.017-.115.119-.188.237-.169Z" fill="#fff"/>
                    <path d="M185.984,199.322c-.032-.005-.066-.006-.097-.015-.096-.027-.142-.093-.118-.191.024-.099.099-.132.195-.112.05.01.096.037.146.049.091.022.145.073.126.169-.019.098-.091.122-.182.106-.023-.004-.046-.007-.07-.01v.004Z" fill="#fff"/>
                    <path d="M186.936,194.03c.11.013.191.11.178.214-.013.105-.127.19-.236.176-.103-.013-.184-.122-.168-.224.016-.105.116-.179.226-.166Z" fill="#fff"/>
                    <path d="M182.396,199.297c-.013.122-.095.201-.201.193-.1-.008-.178-.106-.168-.209.01-.104.175-.234.278-.218.081.012.108.08.091.235Z" fill="#fff"/>
                    <path d="M181.598,197.969c.108.018.181.122.156.231-.026.114-.102.168-.218.157-.111-.011-.183-.112-.165-.224.018-.111.117-.183.226-.164Z" fill="#fff"/>
                    <path d="M183.907,200.161c-.103-.019-.176-.129-.157-.236.02-.108.112-.172.218-.151.108.021.18.126.159.232-.019.101-.123.174-.221.156Z" fill="#fff"/>
                    <path d="M185.568,197.887c-.014.101-.112.178-.213.166-.105-.012-.182-.119-.162-.227.018-.102.117-.174.218-.157.1.017.172.117.158.219Z" fill="#fff"/>
                    <path d="M183.059,197.61c.025-.087.087-.141.193-.129.097.011.172.111.152.204-.023.102-.093.152-.196.143-.095-.008-.166-.11-.148-.217Z" fill="#fff"/>
                    <path d="M187.188,196.369c.066-.036.131-.097.2-.101.102-.006.147.08.136.176-.011.099-.086.164-.177.139-.064-.017-.112-.096-.168-.148l.009-.067Z" fill="#fff"/>
                    <path d="M184.548,195.44c-.097.063-.15.117-.211.128-.024.004-.092-.09-.091-.139.001-.086.07-.136.159-.108.04.012.069.056.143.12Z" fill="#fff"/>
                    <path d="M186.378,195.262c.043.088.092.143.082.182-.011.042-.078.069-.121.103-.032-.044-.091-.088-.09-.131,0-.041.063-.081.128-.155Z" fill="#fff"/>
                    <path d="M186.268,196.942c-.04-.081-.086-.131-.077-.168.009-.039.07-.066.109-.098.033.042.087.083.091.128.003.033-.061.072-.123.138Z" fill="#fff"/>
                    <path d="M186.56,199.947c-.042-.087-.089-.14-.078-.174.012-.039.075-.08.119-.083.026-.002.081.071.078.106-.003.041-.057.077-.118.151Z" fill="#fff"/>
                    <path d="M184.98,198.295c-.084.038-.136.082-.171.072-.038-.011-.061-.074-.09-.114.041-.029.082-.082.122-.082.036,0,.072.06.139.124Z" fill="#fff"/>
                    <path d="M184.047,198.371c-.073.039-.118.083-.151.075-.035-.008-.082-.069-.078-.101.004-.032.064-.08.1-.08.034,0,.067.053.129.107Z" fill="#fff"/>
                    <path d="M187.459,195.434c-.074.037-.117.077-.153.071-.031-.005-.083-.07-.075-.093.013-.039.062-.086.099-.089.031-.002.067.054.129.11Z" fill="#fff"/>
                    <path d="M187.683,196.177c.076-.037.123-.079.156-.07.036.01.06.067.089.103-.037.028-.075.077-.112.076-.034,0-.068-.053-.132-.109Z" fill="#fff"/>
                    <path d="M181.732,196.469c-.059.03-.106.071-.13.061-.035-.015-.055-.068-.081-.104.039-.024.077-.066.116-.067.026,0,.053.058.096.11Z" fill="#fff"/>
                    <path d="M181.514,194.408c.027.066.066.115.054.141-.016.034-.072.051-.11.075-.02-.037-.06-.078-.054-.111.006-.033.057-.057.11-.105Z" fill="#fff"/>
                    <path d="M186.079,196.38c-.032-.057-.072-.097-.064-.121.011-.035.057-.058.088-.087.023.035.062.068.065.105.002.026-.045.055-.089.103Z" fill="#fff"/>
                    <path d="M185.165,195.949c-.03-.056-.062-.089-.062-.122,0-.02.061-.062.075-.055.031.015.062.053.068.086.003.02-.041.048-.082.092Z" fill="#fff"/>
                  </g>
                </g>
                <path d="M196.543,200.259s-5.414.265-10.694-.559c-5.28-.824-7.814-2.476-10.714-2.406-2.901.07,2.676,2.406,2.676,2.406,0,0-5.004-.982-7.294-.268-1.786.557,1.632,1.666,1.632,1.666,0,0-7.374-.909-9.925-.419s-7.059,1.048-10.834.419c-3.774-.629,1.712,1.677,4.963,1.747,3.25.07,5.032-.944,9.296-.349,4.264.594,11.049-.136,11.154-.695s-4.319-.868-2.767-1.053c.872-.104,2.077.031,5.102.349,5.724.603,15.342,1.398,17.404-.839Z" fill="#a7caec"/>
                <path d="M172.106,200.048s-1.81-.208-6.369-.243-5.524-.611-8.559-.568-12.664.197-16.507.24-6.896-.26-7.817-.243c-4.651.09,5.917.882,8.69.835,2.773-.047,4.738-.421,7.293-.398s8.86.485,11.764.398,8.192,1.067,8.982,1.172c3.52.469,5.3-1.001,2.522-1.195Z" fill="#a7caec"/>
                <g>
                  <path d="M194.068,193.623c-2.13-1.808-5.084-2.603-7.833-2.108-.772.139-1.598.428-1.989,1.107-.641,1.114.232,2.537-.05,3.791-.212.943-1.07,1.635-1.995,1.914s-1.915.214-2.877.117c-2.429-.245-4.843-.679-7.283-.732-2.44-.053-4.956.3-7.068,1.523" fill="none"/>
                  <g>
                    <g>
                      <path d="M172.495,197.85c.227.297.07.654-.134.765-.243.132-.548.065-.691-.164-.15-.241-.078-.554.164-.706.039-.025.082-.043.121-.066.335-.199.371-.188.54.171Z" fill="#a7caec"/>
                      <path d="M164.503,198.619c.224-.116.497-.031.619.192.128.235.041.516-.196.632-.224.109-.502.017-.617-.205-.115-.221-.026-.504.195-.618Z" fill="#a7caec"/>
                      <path d="M168.7,202.22c.188-.096.361-.03.475.183.111.205.038.453-.161.555-.194.099-.429.019-.529-.18-.105-.208-.015-.441.215-.558Z" fill="#a7caec"/>
                      <path d="M171.267,203.479c-.196.095-.419.019-.509-.173-.09-.19-.008-.415.185-.508.208-.101.446-.028.536.163.091.192-.001.417-.211.518Z" fill="#a7caec"/>
                      <path d="M169.336,198.231c.187-.096.422-.024.519.16.099.187.025.419-.164.515-.192.098-.417.028-.517-.161-.101-.191-.03-.415.162-.514Z" fill="#a7caec"/>
                      <path d="M175.072,200.346c.181-.085.403,0,.485.187.078.178.003.386-.171.474-.184.093-.399.018-.489-.171-.088-.184-.01-.403.175-.49Z" fill="#a7caec"/>
                      <path d="M163.598,200.976c-.084-.18-.012-.382.167-.471.186-.092.401-.016.487.173.082.179.009.386-.167.473-.186.092-.399.015-.487-.175Z" fill="#a7caec"/>
                      <path d="M173.72,202.101c-.17.08-.363.015-.432-.145-.072-.166.007-.378.167-.454.165-.079.349-.013.429.153.083.172.012.363-.164.446Z" fill="#a7caec"/>
                      <path d="M164.616,196.831c.048-.024.094-.053.145-.069.155-.052.277-.006.335.149.058.156-.012.27-.159.331-.077.032-.164.039-.242.069-.144.055-.263.034-.326-.112-.065-.15.011-.248.148-.311.035-.016.069-.033.103-.05l-.003-.006Z" fill="#a7caec"/>
                      <path d="M168.205,204.857c-.161.084-.36.027-.438-.125-.079-.154-.004-.373.157-.455.151-.077.36-.005.433.148.075.158.008.349-.152.432Z" fill="#a7caec"/>
                      <path d="M169.487,193.56c-.095-.177-.056-.359.094-.445.141-.082.338-.022.42.127.082.15-.022.477-.175.551-.121.058-.219-.01-.339-.233Z" fill="#a7caec"/>
                      <path d="M171.787,194.619c-.163.075-.357.001-.424-.168-.07-.177-.017-.321.15-.412.161-.087.35-.017.429.15.078.166.01.354-.154.43Z" fill="#a7caec"/>
                      <path d="M166.649,193.785c.157-.069.357.012.429.174.073.165.007.336-.155.406-.165.071-.358-.004-.429-.166-.067-.154.006-.348.155-.414Z" fill="#a7caec"/>
                      <path d="M166.5,198.386c-.074-.15-.012-.343.135-.42.154-.08.355-.007.428.157.07.155.002.343-.149.413-.15.069-.341,0-.414-.15Z" fill="#a7caec"/>
                      <path d="M170.145,196.449c.047.141.012.271-.141.352-.141.074-.335.008-.392-.136-.063-.158-.014-.29.133-.373.136-.077.326-.005.4.157Z" fill="#a7caec"/>
                      <path d="M165.71,201.929c-.057.109-.088.252-.177.32-.132.101-.273.028-.347-.112-.076-.144-.034-.3.112-.351.103-.036.24.026.362.045l.05.099Z" fill="#a7caec"/>
                      <path d="M170.132,200.752c.073-.175.095-.297.167-.366.029-.027.207.037.251.103.078.117.031.248-.115.293-.065.02-.146-.012-.303-.03Z" fill="#a7caec"/>
                      <path d="M167.824,202.679c-.139-.08-.256-.108-.279-.171-.024-.067.041-.165.068-.25.084.029.203.035.242.094.037.056-.011.167-.031.327Z" fill="#a7caec"/>
                      <path d="M166.424,200.308c.129.073.237.098.259.157.024.061-.035.154-.057.232-.083-.027-.195-.031-.241-.089-.034-.042.016-.153.039-.3Z" fill="#a7caec"/>
                      <path d="M163.261,196.518c.137.079.249.106.266.163.019.063-.028.177-.084.221-.033.026-.175-.021-.203-.072-.033-.058.006-.156.021-.313Z" fill="#a7caec"/>
                      <path d="M166.917,197.294c.079-.129.108-.236.165-.255.062-.02.15.044.227.071-.028.077-.035.187-.09.223-.05.032-.152-.015-.303-.039Z" fill="#a7caec"/>
                      <path d="M168.109,196.332c.063-.12.084-.22.135-.24.054-.021.174.018.199.065.024.047-.013.167-.061.2-.045.031-.14-.009-.272-.025Z" fill="#a7caec"/>
                      <path d="M166.205,203.443c.066-.118.087-.212.141-.238.047-.022.176.019.187.056.019.064-.005.174-.052.212-.04.032-.14-.011-.276-.03Z" fill="#a7caec"/>
                      <path d="M165.218,202.644c-.069.12-.093.22-.146.238-.058.02-.142-.035-.215-.058.025-.072.031-.172.081-.206.047-.031.141.009.279.026Z" fill="#a7caec"/>
                      <path d="M172.988,196.769c.053-.095.077-.194.12-.203.062-.012.137.041.206.066-.03.068-.043.16-.095.196-.035.024-.124-.029-.231-.06Z" fill="#a7caec"/>
                      <path d="M175.18,199.352c-.098-.064-.196-.095-.203-.141-.01-.061.05-.134.08-.202.061.032.152.05.175.1.022.049-.024.13-.052.243Z" fill="#a7caec"/>
                      <path d="M167.198,200.893c.096.047.186.064.198.104.017.057-.024.131-.04.198-.063-.025-.147-.035-.183-.082-.026-.033.01-.116.025-.22Z" fill="#a7caec"/>
                      <path d="M168.829,200.633c.092.047.166.064.196.109.018.028-.025.14-.051.144-.055.009-.133-.014-.171-.054-.023-.024.011-.103.026-.199Z" fill="#a7caec"/>
                    </g>
                    <g>
                      <path d="M178.705,198.316c.109.218-.036.426-.18.472-.172.055-.358-.026-.421-.19-.066-.172.018-.363.191-.431.028-.011.057-.017.086-.027.238-.086.26-.074.324.176Z" fill="#a7caec"/>
                      <path d="M173.507,197.827c.157-.047.321.041.372.199.053.166-.037.334-.203.379-.156.042-.323-.051-.369-.207-.046-.155.045-.325.2-.371Z" fill="#a7caec"/>
                      <path d="M175.745,200.642c.132-.038.234.025.281.175.046.144-.031.294-.171.335-.136.039-.276-.041-.316-.18-.041-.146.044-.283.206-.33Z" fill="#a7caec"/>
                      <path d="M177.23,201.761c-.137.036-.27-.039-.304-.173-.034-.132.046-.266.18-.302.145-.039.288.037.322.17.034.134-.052.266-.199.305Z" fill="#a7caec"/>
                      <path d="M176.641,198.172c.131-.038.272.037.312.166.04.131-.036.27-.168.309-.135.039-.27-.033-.31-.166-.041-.134.032-.269.166-.308Z" fill="#a7caec"/>
                      <path d="M180.044,200.226c.126-.032.257.049.287.179.028.123-.045.247-.167.281-.129.037-.257-.038-.291-.169-.033-.128.043-.258.172-.291Z" fill="#a7caec"/>
                      <path d="M172.64,199.221c-.031-.125.039-.245.165-.28.13-.036.258.039.29.17.03.125-.042.248-.165.281-.13.036-.256-.039-.289-.172Z" fill="#a7caec"/>
                      <path d="M178.966,201.181c-.118.03-.234-.035-.258-.145-.025-.115.051-.24.163-.27.115-.03.224.034.255.15.032.12-.037.233-.16.265Z" fill="#a7caec"/>
                      <path d="M173.799,196.699c.034-.009.067-.022.101-.027.106-.014.178.03.196.136.018.107-.041.171-.142.192-.053.011-.11.005-.163.014-.098.017-.172-.01-.195-.112-.023-.103.038-.157.133-.18.024-.006.048-.013.072-.019v-.004Z" fill="#a7caec"/>
                      <path d="M175.105,202.265c-.113.034-.233-.027-.264-.134-.032-.108.043-.239.156-.271.106-.03.231.041.258.148.029.11-.038.224-.15.257Z" fill="#a7caec"/>
                      <path d="M177.31,195.208c-.039-.124.008-.236.115-.273.1-.035.219.028.252.133.034.106-.073.302-.179.33-.084.022-.139-.033-.188-.191Z" fill="#a7caec"/>
                      <path d="M178.65,196.166c-.113.028-.228-.043-.25-.16-.023-.122.028-.207.146-.245.113-.036.226.032.255.149.029.116-.037.228-.151.256Z" fill="#a7caec"/>
                      <path d="M175.471,195.003c.109-.025.227.052.252.164.026.114-.037.215-.149.24-.114.025-.228-.047-.253-.159-.024-.106.047-.222.15-.245Z" fill="#a7caec"/>
                      <path d="M174.811,197.923c-.029-.105.035-.221.138-.252.108-.032.227.039.254.153.026.107-.041.219-.146.245-.104.026-.218-.042-.246-.147Z" fill="#a7caec"/>
                      <path d="M177.376,197.133c.013.096-.025.175-.133.208-.099.03-.215-.036-.234-.135-.021-.109.027-.187.131-.222.096-.032.209.037.236.149Z" fill="#a7caec"/>
                      <path d="M173.872,200.089c-.05.063-.087.15-.152.183-.097.048-.178-.016-.208-.114-.031-.101.015-.196.114-.211.07-.01.15.046.226.073l.02.069Z" fill="#a7caec"/>
                      <path d="M176.84,199.88c.068-.103.097-.178.152-.213.022-.014.128.049.148.097.035.085-.011.162-.109.173-.044.005-.092-.026-.19-.056Z" fill="#a7caec"/>
                      <path d="M175.13,200.827c-.079-.068-.15-.101-.157-.143-.007-.045.047-.101.074-.152.05.029.125.048.143.09.016.04-.028.106-.06.205Z" fill="#a7caec"/>
                      <path d="M174.527,199.141c.073.063.139.092.146.132.008.042-.041.094-.065.141-.05-.027-.12-.044-.143-.086-.017-.031.029-.096.062-.187Z" fill="#a7caec"/>
                      <path d="M172.972,196.332c.078.067.146.098.15.137.005.043-.04.11-.081.131-.024.013-.109-.035-.121-.071-.014-.041.023-.099.052-.197Z" fill="#a7caec"/>
                      <path d="M175.212,197.277c.066-.073.098-.138.137-.142.042-.005.091.046.136.073-.027.046-.045.115-.085.131-.036.015-.095-.029-.188-.062Z" fill="#a7caec"/>
                      <path d="M176.091,196.809c.055-.069.08-.13.116-.136.037-.006.109.033.119.066.01.033-.029.105-.064.12-.033.014-.088-.023-.171-.049Z" fill="#a7caec"/>
                      <path d="M174.002,201.116c.057-.068.082-.125.119-.134.033-.008.11.034.113.059.004.043-.024.11-.059.129-.029.015-.088-.024-.173-.053Z" fill="#a7caec"/>
                      <path d="M173.469,200.485c-.059.068-.086.129-.122.134-.039.006-.086-.04-.13-.063.025-.043.041-.106.077-.122.034-.014.089.023.175.051Z" fill="#a7caec"/>
                      <path d="M179.153,197.687c.045-.054.073-.115.101-.115.041,0,.082.043.123.068-.027.04-.047.097-.085.114-.025.011-.076-.034-.14-.067Z" fill="#a7caec"/>
                      <path d="M180.236,199.605c-.054-.053-.113-.084-.113-.115.001-.04.048-.08.076-.119.035.028.091.051.099.085.008.034-.031.08-.063.149Z" fill="#a7caec"/>
                      <path d="M174.949,199.61c.056.042.111.064.114.091.004.039-.031.081-.05.122-.037-.024-.089-.041-.107-.075-.013-.024.021-.073.043-.138Z" fill="#a7caec"/>
                      <path d="M176.022,199.644c.053.042.098.061.112.094.008.02-.033.086-.05.086-.036-.001-.083-.025-.103-.055-.012-.018.02-.064.041-.124Z" fill="#a7caec"/>
                    </g>
                    <g>
                      <path d="M185.131,196.591c.126.119.08.294-.005.36-.101.079-.246.07-.328-.024-.086-.099-.077-.247.023-.335.016-.014.034-.026.051-.039.138-.116.156-.113.259.038Z" fill="#a7caec"/>
                      <path d="M181.536,197.534c.094-.07.225-.051.297.042.076.098.057.233-.043.303-.094.066-.228.045-.297-.048-.069-.093-.049-.228.043-.297Z" fill="#a7caec"/>
                      <path d="M183.72,198.869c.079-.058.163-.04.231.048.066.085.051.204-.033.266-.081.06-.195.04-.255-.043-.063-.087-.04-.2.057-.271Z" fill="#a7caec"/>
                      <path d="M184.987,199.254c-.083.058-.19.04-.245-.041-.055-.08-.034-.189.047-.246.088-.061.202-.046.257.035.056.081.03.191-.058.253Z" fill="#a7caec"/>
                      <path d="M183.716,196.999c.078-.058.191-.042.249.035.059.078.042.189-.037.248-.081.059-.188.044-.248-.035-.06-.08-.045-.188.036-.247Z" fill="#a7caec"/>
                      <path d="M186.493,197.54c.076-.052.184-.03.235.049.049.075.03.176-.043.229-.077.056-.181.038-.236-.042-.054-.078-.034-.183.044-.237Z" fill="#a7caec"/>
                      <path d="M181.297,198.678c-.052-.076-.034-.174.042-.228.078-.056.182-.037.235.043.051.076.033.176-.041.228-.078.056-.181.036-.235-.044Z" fill="#a7caec"/>
                      <path d="M186.006,198.442c-.072.049-.165.034-.208-.034-.045-.07-.025-.173.043-.22.07-.048.158-.032.207.038.05.072.032.165-.042.216Z" fill="#a7caec"/>
                      <path d="M181.455,196.708c.02-.014.039-.031.061-.042.067-.035.126-.023.164.043.038.067.014.124-.048.163-.033.02-.072.03-.106.049-.062.036-.118.035-.157-.027-.041-.064-.013-.114.045-.153.015-.01.029-.02.043-.031l-.002-.002Z" fill="#a7caec"/>
                      <path d="M183.689,200.111c-.067.05-.162.039-.21-.025-.048-.065-.029-.17.038-.219.063-.046.164-.029.209.036.046.066.029.159-.037.209Z" fill="#a7caec"/>
                      <path d="M183.439,194.853c-.056-.074-.052-.16.01-.21.059-.048.153-.035.201.027.049.063.025.22-.039.265-.051.036-.101.012-.172-.081Z" fill="#a7caec"/>
                      <path d="M184.568,195.167c-.069.046-.163.027-.206-.046-.045-.076-.032-.145.038-.199.067-.052.159-.034.207.037.048.07.031.161-.039.208Z" fill="#a7caec"/>
                      <path d="M182.158,195.166c.067-.043.164-.021.209.048.045.07.028.153-.041.197-.07.045-.164.025-.208-.044-.042-.065-.023-.16.04-.2Z" fill="#a7caec"/>
                      <path d="M182.431,197.279c-.045-.063-.031-.156.031-.202.064-.048.162-.029.207.04.043.066.026.157-.038.2-.063.043-.156.025-.2-.038Z" fill="#a7caec"/>
                      <path d="M183.953,196.125c.032.061.026.123-.038.171-.059.044-.153.028-.189-.033-.041-.068-.028-.132.033-.181.057-.045.149-.026.195.042Z" fill="#a7caec"/>
                      <path d="M182.332,198.957c-.018.054-.022.122-.057.159-.053.056-.123.033-.167-.026-.045-.06-.038-.135.025-.169.044-.024.112-.006.169-.006l.03.041Z" fill="#a7caec"/>
                      <path d="M184.266,198.092c.02-.085.021-.143.049-.18.011-.015.097.002.122.029.044.048.032.111-.031.142-.028.014-.068.005-.141.009Z" fill="#a7caec"/>
                      <path d="M183.354,199.143c-.069-.026-.125-.031-.14-.058-.016-.029.007-.079.012-.119.041.007.096.001.117.025.021.023.007.077.01.152Z" fill="#a7caec"/>
                      <path d="M182.539,198.163c.064.024.115.027.13.052.015.026-.004.073-.009.11-.04-.006-.091,0-.117-.023-.019-.017-.004-.071-.004-.14Z" fill="#a7caec"/>
                      <path d="M180.813,196.666c.068.026.122.03.134.055.014.027,0,.083-.022.107-.013.014-.081.003-.098-.018-.019-.024-.009-.072-.014-.144Z" fill="#a7caec"/>
                      <path d="M182.541,196.749c.026-.065.032-.116.057-.129.027-.014.072.009.109.016-.007.037-.002.088-.025.108-.02.019-.071.004-.141.005Z" fill="#a7caec"/>
                      <path d="M183.015,196.222c.02-.059.022-.107.044-.12.023-.013.081-.005.096.015.015.02.006.077-.013.096-.018.018-.064.006-.126.009Z" fill="#a7caec"/>
                      <path d="M182.671,199.612c.021-.059.024-.103.047-.119.02-.014.082-.004.09.012.013.028.011.08-.008.101-.016.018-.065.005-.128.007Z" fill="#a7caec"/>
                      <path d="M182.16,199.32c-.023.06-.026.107-.049.119-.025.013-.067-.006-.102-.01.006-.035.001-.081.022-.1.019-.018.065-.006.129-.009Z" fill="#a7caec"/>
                      <path d="M185.277,196.06c.017-.047.021-.094.04-.101.027-.01.065.009.099.015-.009.033-.008.076-.029.097-.014.014-.059-.004-.11-.01Z" fill="#a7caec"/>
                      <path d="M186.469,197.078c-.049-.022-.096-.029-.103-.049-.009-.027.013-.065.022-.098.03.01.073.012.087.033.014.021-.001.061-.006.115Z" fill="#a7caec"/>
                      <path d="M182.936,198.374c.047.014.09.015.098.033.012.025-.001.062-.003.094-.031-.007-.07-.005-.09-.024-.014-.013-.004-.054-.005-.103Z" fill="#a7caec"/>
                      <path d="M183.662,198.134c.046.015.081.017.098.035.01.011,0,.066-.013.07-.025.008-.062.003-.082-.012-.012-.009-.003-.048-.003-.093Z" fill="#a7caec"/>
                    </g>
                    <g>
                      <path d="M188.709,193.575c-.147.267-.464.266-.613.151-.178-.138-.228-.387-.104-.567.13-.191.386-.239.579-.109.031.021.059.047.089.069.258.184.261.214.049.458Z" fill="#a7caec"/>
                      <path d="M185.52,187.882c.159.128.186.36.06.523-.133.172-.37.199-.534.061-.154-.131-.177-.368-.049-.526.127-.158.366-.184.524-.058Z" fill="#a7caec"/>
                      <path d="M184.216,192.183c.133.109.14.259.02.414-.116.149-.325.177-.466.062-.137-.112-.154-.313-.039-.452.121-.146.323-.156.485-.023Z" fill="#a7caec"/>
                      <path d="M184.12,194.505c-.134-.115-.151-.305-.038-.435.112-.129.307-.142.439-.029.143.122.167.322.055.452-.113.13-.311.136-.455.012Z" fill="#a7caec"/>
                      <path d="M187.391,191.35c.133.108.156.306.051.439-.107.135-.303.156-.437.047-.136-.111-.157-.301-.049-.437.109-.138.299-.159.435-.048Z" fill="#a7caec"/>
                      <path d="M187.697,196.309c.123.107.132.3.02.422-.107.117-.286.129-.408.028-.129-.107-.144-.291-.033-.419.108-.126.296-.139.421-.03Z" fill="#a7caec"/>
                      <path d="M183.471,187.98c.106-.121.28-.134.405-.03.13.108.143.293.031.419-.107.12-.284.133-.406.03-.129-.108-.142-.292-.029-.42Z" fill="#a7caec"/>
                      <path d="M185.949,195.878c-.115-.1-.13-.265-.034-.369.1-.108.283-.119.393-.024.113.097.124.255.026.369-.101.118-.266.128-.385.024Z" fill="#a7caec"/>
                      <path d="M186.888,187.381c.033.028.07.053.099.085.09.098.095.205,0,.298-.097.095-.205.079-.299-.01-.049-.047-.083-.109-.131-.158-.088-.089-.112-.184-.023-.279.09-.097.188-.073.28.008.023.021.047.04.071.06l.003-.004Z" fill="#a7caec"/>
                      <path d="M182.092,192.678c-.115-.092-.138-.259-.05-.367.089-.11.277-.125.39-.032.107.087.122.266.032.371-.093.107-.257.12-.371.029Z" fill="#a7caec"/>
                      <path d="M190.915,189.933c.1-.128.248-.159.362-.076.107.078.127.244.043.354-.085.11-.362.14-.467.05-.083-.071-.065-.166.062-.329Z" fill="#a7caec"/>
                      <path d="M190.881,191.99c-.109-.097-.118-.265-.014-.371.109-.11.233-.118.356-.023.118.091.127.255.029.368-.098.112-.26.124-.37.026Z" fill="#a7caec"/>
                      <path d="M189.819,187.895c.103.095.108.27.011.376-.099.108-.247.115-.352.017-.107-.099-.114-.268-.017-.373.093-.1.261-.109.358-.02Z" fill="#a7caec"/>
                      <path d="M186.348,189.291c.088-.104.252-.121.357-.037.11.088.121.262.024.37-.092.103-.254.114-.356.024-.101-.089-.112-.253-.024-.357Z" fill="#a7caec"/>
                      <path d="M188.982,191.368c-.089.081-.198.098-.308.01-.101-.08-.116-.247-.028-.336.097-.099.212-.105.321-.023.102.076.11.241.015.349Z" fill="#a7caec"/>
                      <path d="M183.453,189.863c-.1-.007-.216.017-.296-.027-.119-.065-.11-.194-.03-.295.082-.104.212-.124.298-.032.06.065.059.187.085.284l-.057.069Z" fill="#a7caec"/>
                      <path d="M185.777,192.768c.154-.003.252-.027.327.004.03.012.04.166.005.221-.062.097-.174.104-.256.01-.036-.042-.039-.112-.077-.235Z" fill="#a7caec"/>
                      <path d="M183.588,191.682c.014-.129-.003-.226.036-.263.042-.04.137-.023.208-.031.006.072.04.163.009.211-.03.046-.128.047-.253.084Z" fill="#a7caec"/>
                      <path d="M184.893,189.864c-.012.12.004.208-.032.244-.038.037-.126.025-.191.034-.007-.071-.04-.155-.013-.208.02-.039.119-.038.236-.069Z" fill="#a7caec"/>
                      <path d="M186.677,186.27c-.014.128.002.22-.034.252-.041.035-.141.037-.192.01-.03-.016-.041-.137-.013-.174.032-.043.118-.047.239-.087Z" fill="#a7caec"/>
                      <path d="M187.297,189.244c.122.016.211.003.243.04.035.04.017.126.022.192-.067.005-.151.035-.195.006-.041-.027-.038-.118-.07-.238Z" fill="#a7caec"/>
                      <path d="M188.402,189.816c.11.008.191-.01.223.022.033.034.044.135.017.169-.027.034-.128.045-.169.02-.038-.023-.039-.107-.071-.211Z" fill="#a7caec"/>
                      <path d="M182.489,190.727c.11.01.186-.004.223.027.032.028.044.137.02.158-.041.035-.131.053-.175.03-.037-.019-.037-.108-.068-.215Z" fill="#a7caec"/>
                      <path d="M182.76,189.731c-.111-.012-.194.003-.225-.031-.034-.037-.02-.117-.027-.178.061-.005.138-.034.18-.007.039.025.039.108.072.216Z" fill="#a7caec"/>
                      <path d="M189.675,193.588c.088.008.17-.006.19.023.029.042.014.115.018.175-.06,0-.133.02-.177-.006-.03-.018-.019-.102-.031-.191Z" fill="#a7caec"/>
                      <path d="M188.471,196.065c.015-.093.006-.176.038-.197.042-.028.116-.007.177-.007-.004.056.012.13-.017.163-.029.033-.105.025-.197.041Z" fill="#a7caec"/>
                      <path d="M184.711,190.632c-.004.087.013.16-.012.181-.037.031-.106.025-.161.035-.002-.056-.022-.121,0-.163.016-.03.089-.03.172-.053Z" fill="#a7caec"/>
                      <path d="M185.439,191.759c-.005.084.007.144-.017.181-.015.023-.112.027-.124.009-.024-.038-.033-.104-.016-.145.01-.025.08-.025.157-.046Z" fill="#a7caec"/>
                    </g>
                    <g>
                      <path d="M195.468,194.249c.047.143-.06.257-.152.272-.11.018-.216-.048-.239-.154-.025-.111.044-.22.155-.245.018-.004.037-.005.055-.009.153-.031.165-.022.181.136Z" fill="#a7caec"/>
                      <path d="M192.344,193.482c.1-.014.192.054.209.155.017.106-.053.2-.158.213-.099.012-.192-.06-.206-.159-.014-.099.057-.194.155-.208Z" fill="#a7caec"/>
                      <path d="M193.454,195.4c.084-.011.14.037.156.132.015.092-.045.176-.134.189-.086.012-.165-.05-.176-.138-.012-.093.053-.169.155-.182Z" fill="#a7caec"/>
                      <path d="M194.259,196.216c-.087.01-.161-.048-.17-.133-.009-.084.052-.158.137-.168.092-.01.172.048.181.132.009.085-.056.158-.149.168Z" fill="#a7caec"/>
                      <path d="M194.223,193.975c.084-.012.163.047.175.129.013.084-.046.162-.13.173-.086.012-.161-.045-.174-.129-.013-.086.044-.161.129-.173Z" fill="#a7caec"/>
                      <path d="M196.112,195.534c.08-.008.152.053.159.135.006.078-.05.146-.127.156-.082.011-.153-.046-.162-.129-.009-.081.05-.154.131-.162Z" fill="#a7caec"/>
                      <path d="M191.689,194.254c-.008-.079.046-.146.126-.156.083-.01.154.047.161.13.007.079-.048.147-.126.157-.082.01-.153-.047-.161-.131Z" fill="#a7caec"/>
                      <path d="M195.369,196.019c-.075.008-.139-.042-.144-.112-.005-.072.052-.142.123-.15.073-.008.134.041.142.115.009.076-.043.139-.121.147Z" fill="#a7caec"/>
                      <path d="M192.623,192.821c.021-.003.043-.007.064-.007.066,0,.106.035.107.101.001.067-.04.1-.104.104-.033.002-.067-.007-.101-.006-.062.002-.104-.022-.109-.086-.005-.065.037-.093.097-.098.015-.001.03-.004.046-.005v-.003Z" fill="#a7caec"/>
                      <path d="M192.918,196.332c-.072.01-.14-.037-.149-.105-.01-.069.048-.142.119-.151.067-.009.137.046.144.113.007.07-.043.133-.115.143Z" fill="#a7caec"/>
                      <path d="M194.898,192.229c-.012-.079.026-.143.095-.156.064-.012.131.037.142.104.011.068-.071.178-.139.185-.053.006-.082-.033-.097-.133Z" fill="#a7caec"/>
                      <path d="M195.628,192.934c-.071.007-.135-.047-.138-.12-.003-.076.036-.124.111-.136.072-.012.135.04.142.114.008.073-.043.135-.115.142Z" fill="#a7caec"/>
                      <path d="M193.795,191.938c.069-.005.134.052.139.123.006.072-.042.128-.112.133-.072.005-.135-.049-.14-.12-.005-.067.049-.131.113-.136Z" fill="#a7caec"/>
                      <path d="M193.13,193.658c-.008-.067.041-.131.107-.141.069-.01.135.044.141.116.006.068-.045.13-.111.136-.066.006-.129-.045-.137-.112Z" fill="#a7caec"/>
                      <path d="M194.765,193.408c0,.059-.031.104-.1.115-.063.009-.128-.041-.13-.103-.003-.068.033-.112.1-.124.062-.011.124.041.131.112Z" fill="#a7caec"/>
                      <path d="M192.362,194.894c-.036.034-.067.084-.109.098-.063.021-.107-.026-.116-.088-.01-.065.027-.118.089-.118.044,0,.087.042.131.065l.006.044Z" fill="#a7caec"/>
                      <path d="M194.19,195.034c.051-.057.075-.1.112-.116.014-.007.073.041.081.072.014.055-.021.098-.082.096-.027,0-.054-.024-.111-.051Z" fill="#a7caec"/>
                      <path d="M193.062,195.458c-.042-.049-.082-.075-.083-.102,0-.028.038-.057.059-.086.028.022.072.04.079.068.006.026-.026.062-.055.12Z" fill="#a7caec"/>
                      <path d="M192.847,194.375c.039.045.077.069.077.094,0,.026-.033.053-.052.08-.028-.021-.069-.038-.079-.065-.007-.02.026-.056.054-.108Z" fill="#a7caec"/>
                      <path d="M192.152,192.523c.041.048.08.073.079.097-.001.026-.034.063-.061.073-.016.005-.063-.031-.067-.054-.005-.026.023-.058.049-.116Z" fill="#a7caec"/>
                      <path d="M193.432,193.301c.047-.038.072-.075.096-.074.026,0,.051.036.077.057-.021.026-.038.066-.063.072-.023.006-.055-.026-.109-.055Z" fill="#a7caec"/>
                      <path d="M194.01,193.095c.04-.037.061-.072.083-.073.023,0,.064.03.067.051.003.021-.027.061-.05.068-.021.006-.052-.022-.1-.046Z" fill="#a7caec"/>
                      <path d="M192.349,195.532c.041-.036.061-.069.085-.071.021-.002.064.03.063.046-.001.027-.025.065-.048.073-.019.007-.051-.023-.1-.048Z" fill="#a7caec"/>
                      <path d="M192.081,195.099c-.042.036-.064.071-.087.071-.025,0-.049-.032-.074-.05.019-.024.034-.061.058-.067.022-.006.052.022.102.047Z" fill="#a7caec"/>
                      <path d="M195.798,193.906c.033-.029.055-.063.072-.061.025.004.046.034.069.052-.02.022-.037.055-.062.062-.016.005-.043-.028-.079-.053Z" fill="#a7caec"/>
                      <path d="M196.285,195.173c-.028-.037-.061-.062-.058-.08.004-.025.037-.044.057-.066.019.02.051.039.053.061.002.022-.026.046-.052.085Z" fill="#a7caec"/>
                      <path d="M193.062,194.699c.03.031.062.049.061.065-.001.024-.026.047-.041.07-.021-.018-.051-.033-.059-.055-.006-.016.019-.042.039-.08Z" fill="#a7caec"/>
                      <path d="M193.713,194.817c.029.03.054.046.06.067.003.013-.028.05-.038.048-.022-.004-.048-.023-.058-.043-.006-.012.018-.037.036-.072Z" fill="#a7caec"/>
                    </g>
                  </g>
                </g>
              </g>
            </g>
          </g>
        </g>
        <g clip-path="url(#ac)">
          <g filter="url(#ad)">
            <circle cx="240.767" cy="219.182" r="14.712" fill="#e86170"/>
            <circle cx="238.819" cy="219.217" r="11.242" fill="#6498d1" mix-blend-mode="multiply" opacity=".25"/>
            <path d="M238.152,182.996l21.273-13.111c1.339-.825,1.048-2.85-.468-3.266l-24.101-6.604c-1.249-.342-2.439.708-2.256,1.99l2.828,19.716c.184,1.282,1.621,1.955,2.724,1.276Z" fill="#e86170"/>
            <path d="M235.459,157.525h0c1.059,0,1.918.86,1.918,1.918v47.367h-3.836v-47.367c0-1.059.86-1.918,1.918-1.918Z" transform="translate(-23.474 35.268) rotate(-8.161)" fill="#42496f"/>
            <path d="M235.946,200.701h5.326c1.034,0,1.873.839,1.873,1.873v4.992h-9.072v-4.992c0-1.034.839-1.873,1.873-1.873Z" transform="translate(-26.56 35.937) rotate(-8.161)" fill="#e86170"/>
          </g>
        </g>
      </g>
    </g>
  </g>
</svg>