<?xml version="1.0" encoding="UTF-8"?>
<svg xmlns="http://www.w3.org/2000/svg" width="300" height="300" xmlns:xlink="http://www.w3.org/1999/xlink" viewBox="0 0 300 300">
  <defs>
    <clipPath id="m">
      <path d="M45.975,190.156s8.274.574,19.161-8.565c-5.298,6.024-9,14.501,9.726-1.895-5.298,8.645-.861,12.935,7.694,7.846-2.032,4.427,8.855,5.095,13.79,2.62,4.935.719,12.411,1.853,19.016-2.017,3.537,2.042,15.024,2.735,20.177,1.864v-52.839H45.975v52.984Z" fill="none"/>
    </clipPath>
    <filter id="n" data-name="drop-shadow-1" x="48.487" y="153.595" width="77.037" height="42.513" filterUnits="userSpaceOnUse">
      <feOffset dx="-4" dy="0"/>
      <feGaussianBlur result="o" stdDeviation="0"/>
      <feFlood flood-color="#42496f" flood-opacity="1"/>
      <feComposite in2="o" operator="in"/>
      <feComposite in="SourceGraphic"/>
    </filter>
    <clipPath id="p">
      <path d="M54.368,194.738s10.332-29.509,17.393-32.779h6.69s8.253-7.854,11.744-8.325c3.491-.471,14.494,3.493,15.312,5.649.818,2.156.52,9.366,1.189,11.001.669,1.635,7.507,18.508,9.291,23.339l-61.619,1.115Z" fill="none"/>
    </clipPath>
    <clipPath id="q">
      <path d="M124.312,192.359s-5.946-11.001-7.284-11.298-3.969-.494-5.812.422c-1.844.916-4.965,4.261-5.634,5.822-.669,1.561-3.419,8.176-3.419,8.176l22.15-3.122Z" fill="none"/>
    </clipPath>
    <clipPath id="r">
      <path d="M29.777,220.811s7.745-1.69,12.128-6.95c0,0-2.521,6.269-.545,6.95s7.699-5.451,7.699-5.451c0,0-2.385,8.517,8.381,8.04,0,0,3.824,4.475,11.174-.681,0,0,2.495,4.289,8.585.136,0,0,3.611,2.395,7.631,1.772,4.02-.624,1.635-5.095,1.635-5.095,0,0,4.838,4.687,10.629,4.55v-60.642h-60.914l-6.405,57.371Z" fill="none"/>
    </clipPath>
    <filter id="s" data-name="drop-shadow-2" x="31.789" y="175.676" width="61.194" height="55.041" filterUnits="userSpaceOnUse">
      <feOffset dx="-4" dy="0"/>
      <feGaussianBlur result="t" stdDeviation="0"/>
      <feFlood flood-color="#42496f" flood-opacity="1"/>
      <feComposite in2="t" operator="in"/>
      <feComposite in="SourceGraphic"/>
    </filter>
    <clipPath id="u">
      <path d="M38.589,227.55s1.868-13.169,3.923-19.24c2.055-6.071,3.795-24.003,7.595-27.458,3.8-3.456,3.426-5.503,7.162-5.133,3.736.37,3.175,20.45,3.175,20.45,9.433,1.681,7.005,5.324,10.647,7.472s6.351,5.977,6.351,5.977c3.269-4.67,5.697-4.109,7.285-3.175,1.588.934,3.082,10.927,3.549,13.636.467,2.708,1.006,7.392,1.006,7.392l-50.693.079Z" fill="none"/>
    </clipPath>
    <clipPath id="v">
      <path d="M59.757,221.487v-15.598h-20.714v14.718c-2.447.658-4.224,2.513-4.224,4.725,0,2.76,2.75,4.998,6.142,4.998,2.132,0,4.008-.885,5.109-2.227,1.103.906,2.497,1.473,4.036,1.473,1.931,0,3.641-.874,4.813-2.227.842.948,2.202,1.571,3.747,1.571,2.559,0,4.633-1.69,4.633-3.774,0-1.777-1.513-3.257-3.543-3.658Z" fill="none"/>
    </clipPath>
    <filter id="w" data-name="drop-shadow-3" x="39.714" y="211.531" width="16.785" height="21.907" filterUnits="userSpaceOnUse">
      <feOffset dx="-4" dy="0"/>
      <feGaussianBlur result="x" stdDeviation="0"/>
      <feFlood flood-color="#42496f" flood-opacity="1"/>
      <feComposite in2="x" operator="in"/>
      <feComposite in="SourceGraphic"/>
    </filter>
    <clipPath id="y">
      <path d="M43.714,232.074s1.858-14.346,3.345-15.609c1.487-3.122,1.412-5.203,3.419-4.906s3.865,7.061,4.46,9.812c.988,2.23,1.561,10.703,1.561,10.703h-12.785Z" fill="none"/>
    </clipPath>
  </defs>
  <g isolation="isolate">
    <g id="l" data-name="Calque 11">
      <g>
        <g>
          <g clip-path="url(#m)">
            <g filter="url(#n)">
              <g>
                <path d="M54.368,194.738s10.332-29.509,17.393-32.779h6.69s8.253-7.854,11.744-8.325c3.491-.471,14.494,3.493,15.312,5.649.818,2.156.52,9.366,1.189,11.001.669,1.635,7.507,18.508,9.291,23.339l-61.619,1.115Z" fill="#ffd66e"/>
                <g clip-path="url(#p)">
                  <polygon points="60.422 169.854 114.959 166.247 115.58 168.7 57.969 174.166 60.422 169.854" fill="#efa78e" opacity=".5"/>
                  <polygon points="52.487 184.138 118.277 177.934 118.277 179.665 53.641 186.302 52.487 184.138" fill="#efa78e" opacity=".5"/>
                  <path d="M107.327,163.144c.056-.278-1.998-4.496-3.886-4.774-1.887-.278-3.108.278-3.441,1.665s-1.721,17.984-2.109,19.428c-1.499-2.609-2.942-2.442-3.441-1.665-.5.777-4.108,5.051-4.885,7.771-.777,2.72-1.998,2.578-1.998,2.578,0,0-.512-3.163-2.997.001-2.485,3.164-3.886,7.333-3.886,7.333,0,0,38.578.032,38.411,0s-11.768-32.337-11.768-32.337Z" fill="#f4af13" mix-blend-mode="multiply" opacity=".25"/>
                </g>
              </g>
              <g>
                <path d="M124.312,192.359s-5.946-11.001-7.284-11.298-3.969-.494-5.812.422c-1.844.916-4.965,4.261-5.634,5.822-.669,1.561-3.419,8.176-3.419,8.176l22.15-3.122Z" fill="#f4af13"/>
                <g clip-path="url(#q)">
                  <path d="M125.523,196.108s-6.807-13.065-9.536-12.919c-2.73.145-5.996,2.685-6.141,3.339-.145.653-4.21,9.581-4.21,9.581h19.887Z" fill="#f4af13" mix-blend-mode="multiply" opacity=".5"/>
                </g>
              </g>
            </g>
          </g>
          <path d="M59.04,188.477s.041,6.067,9.511.518c.795,2.58,4.219,2.415,7.645.714-3.957-.019-5.063-3.928-1.334-10.012-18.726,16.396-15.024,7.919-9.726,1.895-5.888,4.942-10.996,7.032-14.46,7.92,1.681.387,4.282.254,8.363-1.035Z" fill="#fff" opacity=".5"/>
          <g>
            <g>
              <path d="M68.764,178.654c.108.318-.128.575-.333.611-.245.043-.484-.102-.539-.337-.058-.248.092-.492.341-.553.04-.01.082-.013.122-.021.341-.073.369-.053.409.3Z" fill="#fff"/>
              <path d="M61.758,177.018c.223-.034.431.116.471.34.042.236-.113.45-.348.48-.221.029-.431-.13-.465-.351-.034-.221.122-.435.342-.469Z" fill="#fff"/>
              <path d="M64.289,181.278c.187-.027.315.078.351.291.035.205-.097.396-.296.425-.193.028-.37-.107-.397-.304-.029-.207.113-.378.342-.412Z" fill="#fff"/>
              <path d="M66.108,183.082c-.194.024-.361-.104-.383-.292-.022-.187.113-.355.303-.379.205-.026.387.104.408.292.022.189-.12.354-.328.38Z" fill="#fff"/>
              <path d="M65.973,178.073c.187-.028.365.101.395.285.03.187-.099.363-.287.39-.191.028-.362-.096-.393-.285-.031-.191.093-.361.285-.39Z" fill="#fff"/>
              <path d="M70.236,181.512c.178-.021.342.115.358.297.016.173-.108.329-.281.353-.183.026-.344-.099-.366-.285-.022-.182.107-.345.289-.366Z" fill="#fff"/>
              <path d="M60.314,178.76c-.019-.177.1-.328.277-.352.185-.025.345.101.364.287.018.176-.103.33-.277.353-.184.024-.343-.101-.363-.288Z" fill="#fff"/>
              <path d="M68.586,182.615c-.167.019-.312-.091-.325-.247-.013-.161.114-.319.272-.338.163-.019.3.089.32.253.021.17-.094.312-.267.331Z" fill="#fff"/>
              <path d="M62.366,175.532c.048-.006.095-.018.143-.018.147,0,.237.075.242.222.005.149-.088.226-.23.236-.074.005-.15-.014-.225-.011-.138.006-.233-.046-.245-.189-.012-.145.081-.208.215-.222.034-.004.068-.009.102-.013v-.006Z" fill="#fff"/>
              <path d="M63.114,183.375c-.161.025-.313-.08-.336-.232-.023-.154.104-.318.263-.341.15-.022.307.099.325.25.018.155-.093.298-.253.323Z" fill="#fff"/>
              <path d="M67.439,174.151c-.03-.177.055-.321.208-.351.143-.029.293.078.32.228.027.151-.155.399-.306.418-.119.015-.183-.071-.221-.295Z" fill="#fff"/>
              <path d="M69.088,175.708c-.159.017-.303-.101-.312-.264-.009-.171.077-.277.245-.307.161-.028.302.086.321.25.019.163-.093.304-.254.321Z" fill="#fff"/>
              <path d="M64.965,173.528c.153-.013.3.113.314.271.014.161-.09.287-.248.3-.16.013-.303-.106-.316-.264-.013-.15.105-.294.25-.307Z" fill="#fff"/>
              <path d="M63.52,177.392c-.02-.149.089-.295.235-.318.154-.024.303.096.319.256.015.151-.097.292-.245.308-.147.016-.289-.097-.309-.246Z" fill="#fff"/>
              <path d="M67.17,176.792c0,.133-.067.234-.221.259-.141.023-.287-.089-.294-.228-.008-.152.072-.251.22-.279.138-.026.278.089.295.248Z" fill="#fff"/>
              <path d="M61.834,180.174c-.08.076-.147.189-.242.221-.141.048-.24-.055-.262-.195-.023-.144.057-.265.195-.266.098,0,.196.091.295.142l.014.098Z" fill="#fff"/>
              <path d="M65.926,180.442c.112-.128.165-.225.247-.263.032-.015.165.091.183.16.033.122-.045.219-.182.216-.061-.001-.12-.052-.248-.112Z" fill="#fff"/>
              <path d="M63.414,181.417c-.095-.108-.186-.165-.188-.225-.001-.063.083-.129.129-.193.063.049.162.088.178.149.015.058-.057.139-.12.269Z" fill="#fff"/>
              <path d="M62.905,179.002c.089.099.173.151.175.207.003.059-.073.12-.115.181-.063-.047-.156-.082-.179-.144-.017-.046.057-.125.119-.244Z" fill="#fff"/>
              <path d="M61.306,174.878c.094.106.181.162.18.215-.002.059-.075.142-.135.164-.035.013-.142-.068-.152-.119-.011-.059.05-.131.107-.26Z" fill="#fff"/>
              <path d="M64.187,176.584c.104-.087.159-.17.213-.169.058.001.115.08.173.125-.046.058-.083.149-.14.163-.052.013-.125-.057-.246-.12Z" fill="#fff"/>
              <path d="M65.475,176.109c.088-.083.134-.163.183-.165.052-.002.143.065.15.112.007.047-.059.138-.109.152-.047.014-.116-.048-.224-.099Z" fill="#fff"/>
              <path d="M61.82,181.601c.09-.082.135-.155.188-.161.046-.006.144.067.143.101-.003.059-.054.146-.105.165-.043.016-.115-.05-.226-.105Z" fill="#fff"/>
              <path d="M61.211,180.64c-.093.082-.142.16-.192.16-.055,0-.11-.07-.166-.11.042-.054.076-.138.128-.152.049-.013.117.048.229.102Z" fill="#fff"/>
              <path d="M69.493,177.878c.072-.065.121-.143.16-.138.056.007.104.074.156.115-.045.049-.082.123-.137.14-.036.011-.097-.061-.179-.117Z" fill="#fff"/>
              <path d="M70.613,180.7c-.065-.082-.139-.136-.132-.178.009-.055.081-.1.126-.149.043.045.115.086.12.135.005.048-.058.103-.113.191Z" fill="#fff"/>
              <path d="M63.395,179.721c.068.068.14.108.138.145-.002.053-.058.105-.091.157-.047-.04-.114-.072-.132-.122-.013-.036.042-.095.084-.18Z" fill="#fff"/>
              <path d="M64.853,179.967c.065.067.123.102.135.149.008.029-.061.112-.085.108-.049-.009-.109-.05-.13-.094-.013-.027.039-.084.079-.162Z" fill="#fff"/>
            </g>
            <g>
              <path d="M74.328,182.944c-.101.156-.295.141-.38.064-.102-.092-.121-.246-.038-.35.088-.11.246-.128.358-.04.018.014.034.031.051.046.149.124.149.143.009.281Z" fill="#fff"/>
              <path d="M72.645,179.331c.091.086.097.228.013.322-.089.099-.235.104-.328.013-.088-.087-.091-.232-.006-.323.085-.09.232-.096.322-.011Z" fill="#fff"/>
              <path d="M71.654,181.892c.076.072.074.164-.007.253-.077.086-.206.093-.286.016-.078-.074-.08-.198-.003-.277.08-.083.204-.08.297.008Z" fill="#fff"/>
              <path d="M71.49,183.302c-.077-.076-.078-.193-.004-.267.074-.073.193-.072.269.002.081.081.087.204.013.278-.075.074-.195.069-.278-.013Z" fill="#fff"/>
              <path d="M73.627,181.529c.076.072.081.194.011.27-.071.077-.192.081-.268.008-.078-.074-.082-.19-.01-.269.073-.079.189-.083.267-.009Z" fill="#fff"/>
              <path d="M73.587,184.564c.07.071.067.188-.007.258-.07.066-.18.065-.25-.002-.074-.071-.074-.184-.001-.257.072-.072.187-.071.258,0Z" fill="#fff"/>
              <path d="M71.391,179.297c.07-.069.177-.069.248,0,.074.072.074.185,0,.257-.07.068-.179.068-.249,0-.074-.072-.073-.184.001-.257Z" fill="#fff"/>
              <path d="M72.542,184.222c-.066-.066-.067-.167-.004-.226.066-.061.178-.06.24.003.064.064.064.161,0,.226-.067.067-.168.066-.236-.003Z" fill="#fff"/>
              <path d="M73.5,179.087c.019.019.04.035.056.056.05.064.049.129-.014.181-.063.053-.128.039-.181-.02-.028-.031-.045-.07-.072-.102-.05-.058-.06-.117-.002-.171.059-.055.118-.036.17.018.013.014.027.027.041.04l.002-.002Z" fill="#fff"/>
              <path d="M70.338,182.097c-.066-.061-.072-.164-.014-.226.059-.063.174-.064.239-.002.061.058.062.168.002.227-.061.061-.162.061-.227,0Z" fill="#fff"/>
              <path d="M75.838,180.825c.067-.074.159-.086.224-.03.062.053.066.155.01.218-.057.063-.227.069-.287.009-.047-.047-.032-.104.053-.197Z" fill="#fff"/>
              <path d="M75.724,182.078c-.062-.064-.06-.167.009-.226.071-.062.147-.061.218.002.067.061.066.161,0,.226-.065.064-.164.064-.227,0Z" fill="#fff"/>
              <path d="M75.263,179.534c.058.062.053.169-.011.23-.065.061-.156.059-.216-.005-.06-.065-.057-.168.007-.228.061-.057.164-.055.219.004Z" fill="#fff"/>
              <path d="M73.085,180.227c.058-.059.159-.062.219-.006.063.059.062.165-.002.227-.061.058-.16.058-.218-.001-.057-.059-.057-.159.002-.219Z" fill="#fff"/>
              <path d="M74.595,181.612c-.058.045-.125.051-.188-.008-.058-.053-.059-.156-.001-.206.064-.056.134-.055.197,0,.059.051.056.152-.007.213Z" fill="#fff"/>
              <path d="M71.295,180.444c-.061-.009-.133,0-.179-.03-.069-.045-.058-.123-.005-.181.055-.059.135-.066.183-.006.034.042.027.117.039.177l-.038.04Z" fill="#fff"/>
              <path d="M72.578,182.319c.094.005.155-.005.199.017.018.009.017.103-.007.135-.042.056-.111.055-.156-.005-.02-.027-.018-.07-.036-.147Z" fill="#fff"/>
              <path d="M71.294,181.558c.014-.078.008-.138.034-.159.027-.022.084-.008.128-.01,0,.044.017.101-.004.129-.02.026-.08.022-.158.04Z" fill="#fff"/>
              <path d="M72.172,180.51c-.013.073-.007.127-.03.147-.025.021-.078.009-.118.012-.001-.044-.018-.096.002-.128.014-.023.074-.018.147-.032Z" fill="#fff"/>
              <path d="M73.422,178.401c-.014.077-.009.134-.032.152-.026.02-.088.016-.118-.003-.018-.011-.019-.085,0-.107.022-.025.074-.023.15-.042Z" fill="#fff"/>
              <path d="M73.665,180.241c.074.016.129.011.147.035.019.026.004.078.004.118-.041,0-.093.015-.119-.005-.023-.018-.018-.074-.032-.148Z" fill="#fff"/>
              <path d="M74.312,180.64c.066.01.117.003.135.024.019.022.021.085.003.104-.018.019-.08.021-.104.004-.022-.016-.019-.067-.033-.132Z" fill="#fff"/>
              <path d="M70.668,180.926c.066.011.114.006.135.027.018.018.02.086.005.097-.027.019-.082.027-.108.011-.022-.013-.018-.067-.032-.134Z" fill="#fff"/>
              <path d="M70.879,180.332c-.067-.012-.118-.007-.135-.029-.019-.024-.007-.072-.009-.11.038,0,.086-.014.11.004.022.017.019.068.034.135Z" fill="#fff"/>
              <path d="M74.916,182.996c.053.009.104.004.115.023.016.027.003.071.003.107-.037-.003-.082.006-.108-.012-.017-.012-.007-.063-.01-.118Z" fill="#fff"/>
              <path d="M74.07,184.45c.014-.056.012-.107.032-.118.027-.015.071.001.108.004-.005.034.002.08-.018.098-.019.019-.065.01-.122.016Z" fill="#fff"/>
              <path d="M72.027,180.969c-.006.053,0,.098-.016.11-.024.017-.065.011-.099.014.001-.034-.008-.074.008-.099.011-.018.056-.014.107-.025Z" fill="#fff"/>
              <path d="M72.418,181.689c-.007.051-.002.088-.018.11-.01.013-.069.012-.076,0-.013-.024-.015-.065-.003-.089.007-.015.05-.012.097-.021Z" fill="#fff"/>
            </g>
          </g>
        </g>
        <g>
          <g clip-path="url(#r)">
            <g filter="url(#s)">
              <path d="M38.589,227.55s1.868-13.169,3.923-19.24c2.055-6.071,3.795-24.003,7.595-27.458,3.8-3.456,3.426-5.503,7.162-5.133,3.736.37,3.175,20.45,3.175,20.45,9.433,1.681,7.005,5.324,10.647,7.472s6.351,5.977,6.351,5.977c3.269-4.67,5.697-4.109,7.285-3.175,1.588.934,3.082,10.927,3.549,13.636.467,2.708,1.006,7.392,1.006,7.392l-50.693.079Z" fill="#ffd66e"/>
              <g clip-path="url(#u)">
                <polygon points="41.983 191.3 63.935 188.977 63.935 195.364 35.789 199.429 41.983 191.3" fill="#efa78e" opacity=".5"/>
                <polygon points="38.589 206.784 79.338 204.848 77.789 206.784 37.531 209.106 38.589 206.784" fill="#efa78e" opacity=".5"/>
                <polygon points="92.983 215.203 38.589 213.074 38.589 215.203 92.983 219.461 92.983 215.203" fill="#efa78e" opacity=".5"/>
                <path d="M91.508,230.218s-2.586-18.477-8.326-19.539-4.885,4.441-4.885,4.441c-1.745-1.008-1.721,1.61-2.331,2.442-2.717-.383-3.386-4.219-5.551-5.107-2.165-.888-5.884-9.899-10.602-10.843,0-6.864-1.277-20.075-2.498-20.242-1.221-.167-2.553,4.829-4.441,6.883-1.887,2.054-3.268,39.521-3.552,42.463l42.186-.5Z" fill="#f4af13" mix-blend-mode="multiply" opacity=".25"/>
              </g>
            </g>
          </g>
          <g opacity=".5">
            <path d="M32.872,222.215c3.755.081,6.267-2.053,6.267-2.053,0,0-1.102,4.825,3.836,3.728,2.755-.612,5.132-2.539,5.132-2.539,0,0,.807,3.777,9.594,2.304-.167-.151-.261-.255-.261-.255-10.766.477-8.381-8.04-8.381-8.04,0,0-5.724,6.132-7.7,5.451-1.976-.681.545-6.95.545-6.95-3.214,3.857-8.225,5.789-10.675,6.548-.126.977.213,1.775,1.642,1.806Z" fill="#fff"/>
            <path d="M88.195,224.43c4.979,1.37,6.627.446,7.162-.459-4.988-.674-8.891-4.44-8.891-4.44,0,0,2.385,4.472-1.635,5.095-.872.135-1.716.111-2.517.017,3.154,1.533,5.88-.213,5.88-.213Z" fill="#fff"/>
          </g>
          <g>
            <g>
              <path d="M43.716,212.752c.086-.299.402-.371.577-.29.209.097.315.334.233.542-.087.22-.331.327-.552.241-.036-.014-.069-.033-.104-.048-.299-.124-.309-.154-.153-.445Z" fill="#fff"/>
              <path d="M48.192,217.703c-.188-.092-.267-.316-.179-.508.093-.202.324-.283.519-.182.184.095.26.327.169.514-.091.186-.323.267-.509.177Z" fill="#fff"/>
              <path d="M48.514,213.117c-.157-.078-.199-.226-.114-.408.082-.175.283-.25.45-.168.162.08.225.277.142.442-.087.173-.286.229-.479.133Z" fill="#fff"/>
              <path d="M48.081,210.78c.16.084.22.27.137.425-.082.154-.273.211-.431.129-.17-.089-.24-.283-.157-.438.083-.156.279-.206.451-.116Z" fill="#fff"/>
              <path d="M45.537,214.67c-.157-.077-.225-.27-.151-.426.076-.158.267-.224.425-.146.161.08.225.264.149.425-.077.162-.262.226-.423.147Z" fill="#fff"/>
              <path d="M44.104,209.795c-.147-.079-.2-.269-.116-.416.08-.14.256-.193.401-.121.153.077.21.258.128.411-.079.15-.264.206-.413.126Z" fill="#fff"/>
              <path d="M50.213,217.139c-.079.145-.249.197-.397.122-.154-.079-.209-.259-.126-.411.079-.144.253-.197.398-.123.153.079.208.258.124.412Z" fill="#fff"/>
              <path d="M45.945,209.827c.138.074.19.235.117.36-.075.13-.255.183-.386.114-.134-.071-.182-.226-.11-.362.074-.14.236-.188.379-.111Z" fill="#fff"/>
              <path d="M46.942,218.514c-.04-.02-.082-.037-.118-.062-.112-.078-.141-.182-.067-.297.075-.116.186-.126.3-.058.059.035.107.09.166.127.108.069.153.158.087.273-.068.117-.171.116-.281.056-.028-.015-.056-.029-.085-.044l-.002.005Z" fill="#fff"/>
              <path d="M50.519,212.14c.136.066.196.227.134.355-.064.13-.247.188-.381.121-.126-.063-.182-.238-.116-.363.068-.128.229-.178.364-.113Z" fill="#fff"/>
              <path d="M42.346,216.885c-.071.151-.211.215-.344.158-.125-.054-.182-.215-.123-.343.06-.129.329-.222.454-.157.099.052.102.151.013.342Z" fill="#fff"/>
              <path d="M41.911,214.826c.13.072.178.237.098.367-.084.135-.206.171-.349.104-.138-.064-.185-.225-.112-.361.072-.134.231-.183.363-.11Z" fill="#fff"/>
              <path d="M43.902,218.668c-.124-.071-.169-.245-.096-.373.074-.13.22-.171.348-.097.129.075.175.241.101.369-.07.121-.236.169-.353.101Z" fill="#fff"/>
              <path d="M47.046,216.486c-.064.124-.223.178-.347.118-.13-.063-.18-.233-.108-.364.069-.123.228-.171.349-.105.12.065.169.227.105.351Z" fill="#fff"/>
              <path d="M43.947,215.014c.07-.101.175-.143.305-.08.119.057.171.22.104.329-.074.121-.187.153-.315.096-.119-.053-.165-.215-.094-.345Z" fill="#fff"/>
              <path d="M49.802,215.257c.101-.016.212-.066.301-.041.133.038.154.169.097.287-.059.122-.184.172-.29.1-.075-.051-.101-.174-.15-.264l.041-.082Z" fill="#fff"/>
              <path d="M46.824,212.889c-.153.038-.245.084-.327.07-.033-.005-.078-.156-.055-.219.04-.11.15-.143.253-.068.046.033.064.103.13.217Z" fill="#fff"/>
              <path d="M49.254,213.474c.016.132.055.225.024.271-.032.049-.131.054-.201.079-.022-.07-.077-.153-.057-.208.019-.052.117-.076.234-.142Z" fill="#fff"/>
              <path d="M48.366,215.584c-.015-.122-.052-.207-.024-.251.029-.046.12-.053.183-.077.023.069.075.145.06.205-.011.044-.11.065-.22.123Z" fill="#fff"/>
              <path d="M47.405,219.573c-.015-.13-.053-.219-.023-.259.033-.044.132-.069.19-.054.034.009.072.127.053.171-.023.051-.107.073-.219.141Z" fill="#fff"/>
              <path d="M46.11,216.749c-.125.011-.211.045-.252.016-.044-.032-.045-.122-.065-.187.065-.02.142-.069.193-.05.046.017.065.109.124.221Z" fill="#fff"/>
              <path d="M44.878,216.43c-.111.017-.189.053-.227.029-.041-.026-.075-.125-.055-.165.019-.04.118-.074.164-.058.043.015.063.098.118.194Z" fill="#fff"/>
              <path d="M50.567,214.176c-.112.015-.185.047-.229.024-.038-.02-.075-.127-.056-.153.033-.044.118-.083.167-.07.041.011.062.099.117.199Z" fill="#fff"/>
              <path d="M50.523,215.231c.114-.013.193-.047.231-.021.042.029.047.112.068.172-.06.019-.13.065-.178.048-.044-.016-.064-.099-.121-.199Z" fill="#fff"/>
              <path d="M42.75,212.958c-.089.012-.168.045-.194.02-.039-.035-.04-.111-.058-.17.06-.014.128-.051.178-.034.033.011.042.098.074.184Z" fill="#fff"/>
              <path d="M43.387,210.215c.006.097.034.177.007.205-.036.037-.114.033-.175.047-.009-.057-.042-.127-.02-.166.022-.039.099-.048.188-.086Z" fill="#fff"/>
              <path d="M48.373,214.777c-.016-.087-.05-.156-.029-.184.03-.04.099-.049.152-.072.014.055.049.115.036.163-.009.034-.082.05-.16.092Z" fill="#fff"/>
              <path d="M47.391,213.818c-.014-.085-.04-.142-.025-.185.009-.026.105-.053.121-.037.033.033.056.096.049.141-.005.027-.074.044-.146.081Z" fill="#fff"/>
            </g>
            <g>
              <path d="M36.635,218.84c-.405-.046-.566-.44-.499-.684.08-.291.364-.479.651-.418.303.065.493.357.43.663-.01.049-.028.096-.04.145-.097.413-.133.433-.543.294Z" fill="#fff"/>
              <path d="M42.077,211.988c-.078.263-.352.414-.619.34-.281-.077-.436-.358-.347-.632.084-.258.367-.406.628-.329.261.077.415.361.338.62Z" fill="#fff"/>
              <path d="M36.076,212.557c-.067.22-.25.305-.503.235-.244-.068-.385-.313-.313-.546.069-.227.31-.351.541-.279.243.076.357.321.275.59Z" fill="#fff"/>
              <path d="M33.147,213.619c.074-.225.302-.343.521-.269.217.073.332.308.259.529-.078.239-.315.371-.533.297-.219-.074-.326-.316-.247-.558Z" fill="#fff"/>
              <path d="M38.725,216.074c-.066.22-.301.349-.519.286-.221-.064-.347-.297-.28-.519.068-.225.293-.348.517-.284.226.065.349.291.281.516Z" fill="#fff"/>
              <path d="M32.728,218.974c-.07.207-.305.316-.513.239-.199-.073-.305-.29-.242-.492.067-.215.288-.326.504-.254.211.071.323.297.252.507Z" fill="#fff"/>
              <path d="M40.912,209.495c.204.07.309.28.243.487-.068.216-.29.326-.504.251-.203-.072-.309-.285-.244-.489.069-.215.29-.324.506-.25Z" fill="#fff"/>
              <path d="M32.373,216.586c.066-.194.262-.296.44-.229.184.069.292.291.23.475-.063.189-.254.284-.445.221-.197-.065-.294-.265-.226-.466Z" fill="#fff"/>
              <path d="M43.394,213.429c-.018.056-.03.114-.055.166-.076.161-.205.222-.37.15-.167-.072-.203-.214-.139-.376.033-.085.094-.158.129-.242.065-.154.172-.232.335-.171.166.062.187.197.132.351-.014.039-.026.079-.039.119l.007.002Z" fill="#fff"/>
              <path d="M34.382,210.174c.056-.19.251-.303.43-.249.181.055.296.279.238.467-.054.177-.269.287-.444.228-.18-.06-.28-.258-.224-.446Z" fill="#fff"/>
              <path d="M42.276,219.724c.21.059.324.227.278.411-.043.173-.239.282-.417.233-.18-.049-.358-.378-.3-.554.046-.139.173-.165.439-.09Z" fill="#fff"/>
              <path d="M39.706,220.729c.064-.184.269-.281.453-.205.192.079.265.229.21.429-.053.192-.251.287-.442.223-.189-.064-.286-.26-.221-.446Z" fill="#fff"/>
              <path d="M44.247,217.328c-.065.176-.28.271-.461.204-.184-.068-.269-.248-.201-.429.069-.183.275-.278.455-.21.171.064.269.269.207.435Z" fill="#fff"/>
              <path d="M40.749,213.731c.174.056.278.251.227.424-.053.181-.263.283-.447.218-.174-.062-.271-.258-.211-.429.059-.17.257-.267.431-.212Z" fill="#fff"/>
              <path d="M39.512,218.056c-.146-.069-.222-.196-.17-.377.048-.166.247-.269.403-.205.172.07.238.209.192.387-.043.165-.243.259-.426.196Z" fill="#fff"/>
              <path d="M38.567,210.431c-.043-.127-.131-.26-.117-.381.021-.18.185-.235.35-.187.171.05.262.2.191.353-.05.108-.203.169-.309.25l-.115-.036Z" fill="#fff"/>
              <path d="M36.145,214.791c.082.189.161.299.161.408,0,.043-.185.134-.271.119-.151-.028-.218-.163-.143-.312.033-.066.12-.105.253-.215Z" fill="#fff"/>
              <path d="M36.379,211.523c.168-.048.279-.119.345-.089.07.031.098.158.145.243-.086.044-.182.133-.257.118-.072-.014-.123-.135-.233-.272Z" fill="#fff"/>
              <path d="M39.298,212.218c-.155.046-.256.111-.319.085-.066-.028-.094-.143-.139-.22.084-.045.172-.129.252-.122.059.005.108.128.206.258Z" fill="#fff"/>
              <path d="M44.665,212.603c-.165.048-.272.115-.329.086-.064-.033-.118-.156-.11-.234.005-.045.149-.121.21-.105.07.018.118.123.23.253Z" fill="#fff"/>
              <path d="M41.291,214.885c.042.16.104.264.075.322-.031.064-.148.085-.228.125-.04-.08-.12-.169-.107-.239.012-.064.127-.108.26-.208Z" fill="#fff"/>
              <path d="M41.143,216.547c.046.14.11.232.086.287-.025.058-.146.124-.201.107-.056-.017-.121-.136-.111-.199.01-.059.113-.103.226-.195Z" fill="#fff"/>
              <path d="M37.005,209.674c.043.141.1.229.08.291-.018.054-.148.124-.185.105-.064-.034-.133-.135-.127-.201.005-.055.115-.101.233-.194Z" fill="#fff"/>
              <path d="M38.378,209.504c-.042-.144-.102-.239-.076-.294.028-.061.135-.085.207-.125.037.074.112.155.1.22-.011.06-.114.104-.232.199Z" fill="#fff"/>
              <path d="M37.11,220.045c.035.113.094.208.068.247-.037.058-.136.076-.208.111-.031-.075-.093-.155-.082-.223.007-.046.117-.075.222-.136Z" fill="#fff"/>
              <path d="M33.425,219.811c.124-.028.222-.082.264-.053.056.038.067.141.098.216-.071.024-.155.081-.211.062-.056-.02-.084-.117-.151-.224Z" fill="#fff"/>
              <path d="M38.254,212.383c-.11.04-.191.098-.231.077-.058-.03-.085-.118-.126-.181.068-.03.139-.088.203-.082.046.004.083.096.154.186Z" fill="#fff"/>
              <path d="M37.224,213.858c-.107.037-.176.082-.234.071-.036-.007-.091-.125-.074-.149.035-.05.112-.094.171-.094.036,0,.072.086.136.171Z" fill="#fff"/>
            </g>
          </g>
          <g>
            <g>
              <path d="M85.42,221.964c.101.269-.094.496-.268.532-.208.043-.417-.074-.47-.274-.057-.21.066-.424.277-.482.034-.009.07-.013.104-.022.29-.072.314-.055.358.246Z" fill="#fff"/>
              <path d="M79.384,220.755c.19-.035.372.088.412.278.042.201-.085.388-.284.42-.188.03-.372-.099-.407-.288-.035-.188.093-.376.28-.411Z" fill="#fff"/>
              <path d="M81.665,224.33c.159-.029.271.058.308.24.036.175-.072.341-.242.372-.164.03-.319-.081-.348-.25-.031-.176.087-.327.281-.362Z" fill="#fff"/>
              <path d="M83.27,225.824c-.165.026-.312-.079-.335-.24-.024-.159.087-.307.248-.332.175-.028.334.078.357.238.024.161-.093.306-.27.334Z" fill="#fff"/>
              <path d="M83.018,221.543c.159-.029.315.076.346.233.031.159-.075.313-.235.342-.163.029-.312-.072-.344-.233-.032-.163.07-.312.233-.341Z" fill="#fff"/>
              <path d="M86.758,224.369c.152-.022.296.089.315.245.018.148-.083.284-.231.31-.156.027-.297-.076-.321-.234-.024-.155.082-.298.237-.321Z" fill="#fff"/>
              <path d="M78.196,222.284c-.021-.151.076-.283.227-.308.157-.026.298.077.319.235.02.15-.079.285-.228.31-.157.026-.296-.077-.318-.237Z" fill="#fff"/>
              <path d="M85.376,225.357c-.142.021-.27-.069-.285-.202-.016-.138.089-.276.224-.296.139-.021.259.068.281.208.023.144-.072.269-.22.291Z" fill="#fff"/>
              <path d="M79.864,219.467c.041-.007.081-.018.122-.019.125-.004.205.057.213.183.008.128-.069.195-.191.208-.064.006-.129-.008-.193-.003-.118.008-.201-.033-.215-.155-.014-.124.063-.18.177-.195.029-.004.058-.009.087-.014v-.005Z" fill="#fff"/>
              <path d="M80.716,226.156c-.137.026-.27-.06-.294-.189-.024-.131.08-.275.216-.299.128-.023.266.076.285.205.02.132-.072.258-.207.283Z" fill="#fff"/>
              <path d="M84.165,218.148c-.03-.151.038-.276.168-.306.122-.028.253.059.28.187.027.128-.122.345-.251.366-.102.016-.159-.056-.197-.246Z" fill="#fff"/>
              <path d="M85.618,219.436c-.136.019-.262-.078-.274-.218-.012-.146.059-.239.201-.269.137-.028.261.065.281.205.02.139-.071.263-.209.281Z" fill="#fff"/>
              <path d="M82.032,217.683c.131-.016.26.088.276.223.017.137-.069.248-.204.263-.137.015-.262-.083-.278-.217-.015-.128.082-.254.206-.269Z" fill="#fff"/>
              <path d="M80.901,221.027c-.021-.127.068-.255.192-.278.131-.025.262.074.28.21.017.129-.075.252-.201.27-.125.018-.25-.075-.271-.202Z" fill="#fff"/>
              <path d="M84.006,220.415c.003.114-.051.202-.182.227-.12.023-.248-.069-.258-.187-.011-.13.054-.216.181-.244.117-.026.24.069.259.204Z" fill="#fff"/>
              <path d="M79.535,223.452c-.066.068-.121.165-.201.196-.119.045-.206-.04-.229-.159-.024-.123.042-.228.16-.233.084-.003.171.073.256.114l.015.083Z" fill="#fff"/>
              <path d="M83.042,223.57c.092-.112.135-.197.204-.232.027-.014.144.073.161.132.031.104-.032.189-.15.19-.052,0-.104-.041-.216-.089Z" fill="#fff"/>
              <path d="M80.92,224.472c-.084-.089-.164-.136-.167-.187-.003-.054.067-.112.105-.169.055.04.141.071.156.123.014.049-.045.12-.095.233Z" fill="#fff"/>
              <path d="M80.419,222.421c.079.082.152.125.156.172.004.05-.059.105-.093.158-.055-.038-.136-.066-.157-.119-.016-.038.046-.109.095-.212Z" fill="#fff"/>
              <path d="M78.939,218.937c.083.088.159.133.159.179,0,.051-.06.124-.111.144-.03.012-.123-.054-.133-.098-.011-.05.039-.113.085-.225Z" fill="#fff"/>
              <path d="M81.45,220.318c.087-.077.132-.15.178-.15.05,0,.101.066.151.103-.038.051-.067.129-.115.143-.044.013-.108-.045-.213-.096Z" fill="#fff"/>
              <path d="M82.539,219.877c.073-.074.11-.143.152-.146.045-.003.124.052.132.092.007.04-.047.119-.089.133-.04.013-.1-.038-.194-.079Z" fill="#fff"/>
              <path d="M79.562,224.673c.075-.072.111-.136.157-.143.039-.006.125.053.125.083,0,.051-.042.127-.085.144-.036.015-.1-.039-.196-.083Z" fill="#fff"/>
              <path d="M79.014,223.868c-.077.072-.117.14-.16.142-.047.002-.096-.057-.145-.09.034-.047.061-.12.105-.133.041-.013.102.038.199.081Z" fill="#fff"/>
              <path d="M86.023,221.281c.06-.058.1-.125.133-.122.048.005.091.06.136.094-.037.043-.067.108-.113.123-.031.01-.085-.049-.156-.095Z" fill="#fff"/>
              <path d="M87.058,223.664c-.057-.068-.123-.113-.118-.148.006-.047.067-.087.104-.131.038.037.101.071.106.112.006.041-.047.09-.092.167Z" fill="#fff"/>
              <path d="M80.857,223.022c.06.056.123.088.122.12,0,.046-.047.091-.073.137-.041-.033-.1-.058-.117-.101-.012-.03.033-.083.067-.156Z" fill="#fff"/>
              <path d="M82.112,223.193c.057.055.108.084.12.123.007.024-.049.097-.069.094-.042-.006-.094-.04-.114-.077-.012-.023.031-.073.063-.14Z" fill="#fff"/>
            </g>
            <g>
              <path d="M93.78,222.157c-.145.379-.564.436-.782.311-.26-.149-.371-.469-.241-.73.137-.275.466-.386.744-.25.045.022.086.051.13.074.374.196.384.236.148.595Z" fill="#fff"/>
              <path d="M88.532,215.223c.234.14.311.441.174.68-.144.251-.453.33-.694.177-.228-.144-.3-.454-.161-.686.139-.232.45-.31.681-.172Z" fill="#fff"/>
              <path d="M87.593,221.139c.195.119.232.316.101.542-.126.218-.396.293-.603.166-.201-.123-.261-.385-.134-.59.133-.215.398-.264.636-.119Z" fill="#fff"/>
              <path d="M87.89,224.222c-.198-.127-.255-.375-.13-.568.124-.19.379-.243.574-.118.211.135.279.395.154.587-.126.193-.385.236-.598.099Z" fill="#fff"/>
              <path d="M91.634,219.461c.195.118.262.376.147.57-.116.197-.372.261-.569.141-.2-.122-.262-.369-.145-.568.119-.202.366-.264.566-.143Z" fill="#fff"/>
              <path d="M92.941,225.952c.182.119.229.371.103.553-.12.173-.354.222-.534.111-.19-.117-.243-.358-.12-.548.12-.186.366-.238.551-.117Z" fill="#fff"/>
              <path d="M85.844,215.726c.118-.179.346-.228.529-.113.191.119.242.36.117.547-.119.177-.351.227-.531.114-.19-.119-.24-.359-.115-.549Z" fill="#fff"/>
              <path d="M90.554,225.701c-.17-.111-.22-.326-.112-.481.112-.16.352-.209.514-.104.166.108.21.314.102.483-.112.174-.328.217-.505.102Z" fill="#fff"/>
              <path d="M90.246,214.312c.049.031.102.057.146.094.136.114.163.253.053.393-.111.143-.256.142-.396.041-.073-.053-.129-.129-.201-.184-.132-.101-.181-.223-.082-.365.101-.144.235-.131.371-.04.034.023.07.045.105.067l.004-.006Z" fill="#fff"/>
              <path d="M84.88,222.18c-.169-.101-.229-.317-.133-.476.097-.161.342-.216.509-.114.157.096.209.329.109.484-.103.159-.317.205-.485.105Z" fill="#fff"/>
              <path d="M96.028,216.947c.109-.188.299-.255.464-.166.156.084.212.3.121.46-.092.161-.453.251-.608.152-.122-.078-.116-.208.023-.445Z" fill="#fff"/>
              <path d="M96.358,219.67c-.161-.108-.204-.328-.086-.487.124-.166.286-.198.465-.096.172.098.214.313.105.481-.109.166-.321.211-.484.102Z" fill="#fff"/>
              <path d="M94.21,214.457c.153.106.191.337.083.495-.111.161-.306.197-.462.087-.159-.112-.199-.333-.09-.49.104-.149.325-.192.47-.092Z" fill="#fff"/>
              <path d="M89.881,216.932c.097-.153.31-.206.464-.114.161.096.208.323.099.484-.103.152-.315.197-.466.097-.149-.099-.194-.314-.097-.467Z" fill="#fff"/>
              <path d="M93.737,219.194c-.103.123-.243.165-.405.07-.148-.088-.198-.305-.098-.439.11-.148.26-.178.42-.089.148.082.189.298.083.458Z" fill="#fff"/>
              <path d="M86.164,218.215c-.133.01-.283.062-.396.018-.168-.064-.18-.236-.093-.384.09-.152.258-.202.387-.097.092.075.112.237.164.36l-.063.102Z" fill="#fff"/>
              <path d="M89.761,221.626c.203-.032.328-.081.433-.054.042.011.083.212.047.29-.064.139-.211.169-.336.06-.055-.048-.072-.141-.144-.296Z" fill="#fff"/>
              <path d="M86.673,220.592c-.005-.173-.045-.298,0-.354.048-.06.176-.056.269-.08.021.094.083.208.05.276-.031.066-.161.085-.319.157Z" fill="#fff"/>
              <path d="M88.065,217.954c.006.161.044.274.003.328-.043.056-.161.055-.247.079-.022-.092-.081-.197-.055-.273.019-.056.15-.072.299-.135Z" fill="#fff"/>
              <path d="M89.765,212.884c.005.171.043.29,0,.338-.047.054-.18.075-.252.048-.043-.016-.08-.173-.049-.228.035-.063.147-.083.3-.159Z" fill="#fff"/>
              <path d="M91.126,216.697c.164,0,.279-.035.329.008.053.046.045.164.064.25-.087.018-.192.074-.256.044-.058-.028-.072-.149-.136-.301Z" fill="#fff"/>
              <path d="M92.689,217.25c.146-.01.251-.048.298-.012.05.039.083.171.053.22-.03.049-.161.082-.219.057-.054-.024-.071-.134-.132-.266Z" fill="#fff"/>
              <path d="M85.049,219.531c.147-.007.245-.04.3-.005.047.031.083.173.055.204-.048.053-.163.094-.225.072-.052-.019-.069-.135-.129-.272Z" fill="#fff"/>
              <path d="M85.225,218.167c-.149.004-.255.039-.302,0-.051-.042-.048-.151-.069-.231.08-.017.177-.07.236-.042.055.025.072.136.134.272Z" fill="#fff"/>
              <path d="M95.057,221.999c.118-.005.223-.039.255-.005.046.05.04.149.056.228-.08.011-.172.051-.235.024-.042-.018-.044-.132-.076-.247Z" fill="#fff"/>
              <path d="M93.919,225.488c.003-.126-.024-.234.014-.267.051-.044.152-.03.232-.041.005.075.04.169.007.218-.033.049-.134.052-.253.09Z" fill="#fff"/>
              <path d="M87.965,219c.011.115.047.208.017.242-.043.048-.135.053-.206.076-.012-.073-.051-.155-.029-.216.016-.043.113-.056.218-.102Z" fill="#fff"/>
              <path d="M89.131,220.356c.009.112.036.189.011.243-.015.033-.143.057-.162.035-.039-.046-.062-.131-.048-.188.009-.035.101-.048.198-.089Z" fill="#fff"/>
            </g>
          </g>
          <g clip-path="url(#v)">
            <g filter="url(#w)">
              <path d="M43.714,232.074s1.858-14.346,3.345-15.609c1.487-3.122,1.412-5.203,3.419-4.906s3.865,7.061,4.46,9.812c.988,2.23,1.561,10.703,1.561,10.703h-12.785Z" fill="#f4af13"/>
              <g clip-path="url(#y)">
                <path d="M55.872,233.437s-.554-7.512-1.443-10.879c-.979-3.71-2.265-8.23-3.219-8.77-.954-.54-2.387,6.704-2.886,8.015s-1.554,11.635-1.554,11.635h9.103Z" fill="#f4af13" mix-blend-mode="multiply" opacity=".5"/>
              </g>
            </g>
          </g>
          <g>
            <g>
              <path d="M51.194,226.694c-.098.263-.387.305-.539.22-.181-.102-.26-.322-.171-.504.093-.191.32-.27.513-.178.031.015.06.035.091.051.26.133.267.16.107.411Z" fill="#fff"/>
              <path d="M47.517,221.93c.163.096.218.303.125.469-.098.175-.311.232-.479.127-.159-.098-.211-.312-.116-.474.095-.161.309-.218.47-.123Z" fill="#fff"/>
              <path d="M46.906,226.03c.136.081.163.217.074.375-.086.152-.272.205-.416.119-.14-.084-.183-.265-.097-.407.09-.15.273-.185.44-.086Z" fill="#fff"/>
              <path d="M47.132,228.162c-.138-.087-.179-.258-.094-.392.085-.133.261-.171.396-.086.147.092.196.272.111.405-.086.134-.265.166-.413.073Z" fill="#fff"/>
              <path d="M49.692,224.842c.136.08.184.258.106.394-.079.137-.256.183-.392.101-.139-.083-.184-.253-.104-.392.081-.14.252-.185.391-.103Z" fill="#fff"/>
              <path d="M50.639,229.326c.126.081.161.255.075.382-.082.121-.244.156-.369.08-.132-.08-.17-.246-.087-.378.082-.129.251-.167.38-.084Z" fill="#fff"/>
              <path d="M45.66,222.296c.081-.125.238-.16.366-.082.133.081.17.248.084.378-.081.124-.242.16-.367.083-.132-.081-.169-.247-.083-.379Z" fill="#fff"/>
              <path d="M48.986,229.168c-.119-.076-.154-.224-.08-.332.077-.112.242-.147.355-.075.116.074.148.216.074.333-.076.121-.225.153-.349.074Z" fill="#fff"/>
              <path d="M48.697,221.288c.034.021.071.039.102.064.095.078.114.174.039.272-.076.099-.176.1-.274.031-.051-.036-.09-.089-.14-.126-.092-.069-.127-.153-.059-.252.069-.101.162-.092.256-.03.024.016.049.03.073.045l.003-.004Z" fill="#fff"/>
              <path d="M45.036,226.769c-.117-.069-.161-.218-.095-.328.066-.112.235-.152.351-.082.109.065.147.227.079.334-.07.11-.218.144-.335.076Z" fill="#fff"/>
              <path d="M52.716,223.074c.074-.131.205-.179.32-.118.108.057.149.206.087.317-.063.112-.312.177-.419.109-.085-.053-.081-.143.013-.308Z" fill="#fff"/>
              <path d="M52.962,224.956c-.112-.073-.143-.226-.062-.336.085-.115.197-.139.321-.069.12.067.15.215.076.332-.074.116-.221.148-.334.074Z" fill="#fff"/>
              <path d="M51.441,221.362c.107.072.135.232.06.342-.076.112-.21.139-.319.063-.111-.076-.14-.229-.065-.338.071-.104.224-.135.324-.067Z" fill="#fff"/>
              <path d="M48.462,223.104c.066-.107.213-.144.32-.082.112.066.146.222.071.334-.07.106-.217.138-.322.07-.104-.067-.136-.216-.07-.323Z" fill="#fff"/>
              <path d="M51.145,224.644c-.07.086-.167.116-.28.051-.103-.06-.139-.21-.07-.303.075-.103.179-.125.29-.064.103.056.133.205.06.317Z" fill="#fff"/>
              <path d="M45.898,224.017c-.092.007-.195.045-.274.015-.117-.043-.126-.162-.067-.265.061-.106.177-.142.267-.069.064.051.079.163.116.248l-.043.071Z" fill="#fff"/>
              <path d="M48.41,226.353c.14-.024.226-.058.299-.04.029.007.059.146.035.201-.043.096-.145.118-.232.044-.039-.033-.05-.097-.102-.204Z" fill="#fff"/>
              <path d="M46.266,225.658c-.005-.12-.033-.206-.003-.245.033-.042.122-.04.186-.057.015.065.059.143.037.191-.021.046-.111.06-.22.111Z" fill="#fff"/>
              <path d="M47.212,223.823c.005.111.032.189.004.227-.029.039-.111.039-.17.056-.016-.064-.058-.136-.04-.188.013-.039.103-.051.206-.095Z" fill="#fff"/>
              <path d="M48.355,220.303c.005.118.032.201.003.234-.032.037-.124.053-.174.035-.03-.011-.056-.119-.036-.157.024-.044.101-.059.207-.112Z" fill="#fff"/>
              <path d="M49.322,222.933c.113-.001.193-.026.228.003.037.032.032.113.046.173-.06.013-.133.052-.177.032-.041-.019-.051-.103-.096-.208Z" fill="#fff"/>
              <path d="M50.407,223.306c.101-.008.173-.035.206-.01.035.026.058.118.038.152-.02.034-.111.058-.151.041-.038-.016-.05-.092-.093-.183Z" fill="#fff"/>
              <path d="M45.135,224.935c.101-.005.169-.029.207-.005.033.021.059.119.039.141-.033.037-.112.066-.155.051-.036-.013-.049-.093-.091-.187Z" fill="#fff"/>
              <path d="M45.248,223.99c-.103.004-.176.028-.209.002-.036-.029-.034-.104-.049-.159.055-.013.122-.049.163-.031.038.017.051.093.095.187Z" fill="#fff"/>
              <path d="M52.077,226.576c.081-.004.154-.028.176-.005.032.034.029.103.04.157-.055.008-.119.037-.162.018-.029-.012-.031-.091-.054-.17Z" fill="#fff"/>
              <path d="M51.313,228.998c.001-.087-.018-.162.008-.185.035-.031.105-.022.16-.03.004.052.029.117.006.151-.022.034-.092.037-.175.064Z" fill="#fff"/>
              <path d="M47.15,224.548c.008.08.034.144.013.167-.03.034-.093.037-.142.054-.009-.05-.036-.107-.021-.149.011-.03.078-.04.15-.072Z" fill="#fff"/>
              <path d="M47.965,225.479c.007.078.026.131.009.168-.01.023-.099.04-.112.025-.027-.032-.044-.09-.034-.13.006-.024.07-.034.137-.063Z" fill="#fff"/>
            </g>
            <g>
              <path d="M61.528,225.502c.311.281.211.706.009.87-.241.196-.59.184-.794-.039-.215-.235-.199-.593.035-.811.038-.035.081-.064.12-.098.327-.288.37-.283.629.078Z" fill="#fff"/>
              <path d="M52.888,227.988c.222-.173.541-.136.721.084.189.232.151.56-.087.736-.224.166-.549.121-.722-.1-.172-.22-.132-.549.088-.721Z" fill="#fff"/>
              <path d="M58.247,231.092c.188-.144.391-.107.561.104.164.203.135.491-.064.644-.193.149-.468.109-.619-.09-.158-.208-.107-.482.122-.658Z" fill="#fff"/>
              <path d="M61.331,231.951c-.196.144-.457.107-.596-.086-.138-.191-.094-.456.099-.598.208-.153.485-.123.623.069.139.193.084.459-.126.614Z" fill="#fff"/>
              <path d="M58.129,226.569c.186-.144.46-.113.605.07.147.185.113.456-.075.601-.191.147-.453.116-.602-.072-.15-.189-.119-.451.073-.599Z" fill="#fff"/>
              <path d="M64.877,227.721c.182-.131.443-.083.572.106.123.18.083.424-.091.556-.184.14-.436.101-.573-.088-.134-.185-.093-.441.092-.575Z" fill="#fff"/>
              <path d="M52.375,230.768c-.129-.181-.091-.418.088-.553.186-.14.438-.1.571.091.127.181.089.423-.087.555-.186.139-.436.098-.572-.093Z" fill="#fff"/>
              <path d="M63.749,229.93c-.171.123-.396.091-.505-.071-.113-.168-.07-.417.091-.534.166-.12.381-.086.504.081.126.172.088.397-.089.525Z" fill="#fff"/>
              <path d="M52.646,225.996c.048-.036.093-.077.145-.106.16-.089.304-.063.399.095.096.16.042.3-.108.397-.078.051-.173.077-.252.125-.147.09-.282.092-.382-.057-.102-.151-.039-.276.099-.373.035-.025.069-.051.103-.077l-.004-.006Z" fill="#fff"/>
              <path d="M58.243,234.096c-.16.125-.391.104-.508-.048-.119-.154-.081-.41.079-.533.151-.115.396-.08.507.074.115.158.08.382-.078.507Z" fill="#fff"/>
              <path d="M57.337,221.397c-.14-.175-.135-.383.012-.51.139-.119.368-.093.488.054.121.148.074.53-.079.642-.121.089-.243.034-.421-.187Z" fill="#fff"/>
              <path d="M60.086,222.09c-.164.115-.393.075-.502-.098-.114-.181-.085-.35.08-.484.159-.129.382-.09.503.078.12.167.084.388-.082.505Z" fill="#fff"/>
              <path d="M54.259,222.225c.159-.108.396-.06.508.104.114.167.077.368-.088.478-.167.112-.395.069-.506-.095-.105-.156-.064-.385.086-.487Z" fill="#fff"/>
              <path d="M55.038,227.321c-.112-.15-.083-.376.062-.49.153-.12.389-.08.504.085.109.156.072.377-.079.485-.151.107-.375.07-.487-.08Z" fill="#fff"/>
              <path d="M58.654,224.442c.081.145.069.296-.083.417-.139.11-.367.077-.46-.069-.102-.161-.075-.317.07-.438.134-.113.358-.072.473.09Z" fill="#fff"/>
              <path d="M54.895,231.384c-.04.132-.045.296-.129.389-.125.139-.295.086-.405-.053-.113-.143-.099-.324.051-.409.106-.061.27-.02.408-.025l.075.098Z" fill="#fff"/>
              <path d="M59.522,229.182c.044-.207.043-.346.109-.438.026-.036.235-.002.298.062.11.113.085.266-.067.346-.067.035-.163.017-.34.029Z" fill="#fff"/>
              <path d="M57.377,231.776c-.169-.059-.304-.067-.342-.131-.04-.068.012-.191.023-.289.098.015.231-.003.285.054.052.054.022.187.033.366Z" fill="#fff"/>
              <path d="M55.349,229.453c.157.054.281.06.317.119.038.062-.007.176-.015.267-.097-.013-.221.005-.284-.048-.046-.039-.014-.172-.019-.339Z" fill="#fff"/>
              <path d="M51.09,225.929c.167.059.296.066.327.125.034.066.005.201-.047.261-.031.035-.197.012-.238-.037-.048-.057-.025-.173-.041-.349Z" fill="#fff"/>
              <path d="M55.274,226.033c.06-.158.07-.282.13-.314.064-.034.175.017.265.032-.015.091,0,.213-.053.264-.048.046-.171.014-.341.019Z" fill="#fff"/>
              <path d="M56.389,224.73c.045-.145.047-.26.1-.292.056-.034.196-.016.232.03.037.047.02.186-.027.233-.043.044-.155.019-.305.028Z" fill="#fff"/>
              <path d="M55.75,232.949c.048-.144.053-.251.107-.291.047-.034.198-.016.218.023.033.066.031.192-.014.244-.037.043-.156.016-.31.023Z" fill="#fff"/>
              <path d="M54.5,232.272c-.051.146-.058.261-.112.292-.06.034-.163-.01-.248-.019.013-.084-.001-.196.047-.244.045-.044.158-.019.313-.029Z" fill="#fff"/>
              <path d="M61.85,224.21c.039-.115.045-.23.09-.247.066-.026.159.017.24.031-.019.081-.015.185-.064.236-.033.034-.143-.007-.266-.019Z" fill="#fff"/>
              <path d="M64.793,226.605c-.12-.05-.235-.064-.253-.113-.024-.065.028-.158.047-.239.074.023.178.024.213.074.035.05,0,.148-.007.278Z" fill="#fff"/>
              <path d="M56.322,229.938c.115.032.218.032.239.074.03.06,0,.15-.003.226-.075-.015-.169-.009-.219-.052-.036-.031-.012-.129-.018-.248Z" fill="#fff"/>
              <path d="M58.063,229.318c.111.033.196.036.238.08.026.027.002.159-.027.169-.059.021-.149.012-.199-.024-.03-.022-.009-.116-.012-.224Z" fill="#fff"/>
            </g>
          </g>
          <g>
            <g>
              <path d="M44.109,213.895c-.029-.221.158-.358.296-.354.165.004.302.129.307.289.006.169-.124.308-.294.315-.027.001-.055-.002-.082-.002-.231.003-.247-.013-.227-.248Z" fill="#fff"/>
              <path d="M48.454,215.866c-.15-.007-.265-.131-.262-.282.003-.159.132-.278.288-.267.148.01.263.14.257.289-.006.148-.136.267-.283.261Z" fill="#fff"/>
              <path d="M47.359,212.768c-.125-.006-.195-.092-.191-.235.004-.138.115-.245.247-.238.129.007.227.117.219.249-.008.138-.123.231-.276.224Z" fill="#fff"/>
              <path d="M46.409,211.358c.129.009.221.114.211.24-.01.124-.119.216-.246.207-.137-.01-.238-.117-.228-.243.01-.126.124-.215.263-.204Z" fill="#fff"/>
              <path d="M45.849,214.634c-.125-.006-.224-.113-.22-.236.004-.125.111-.223.237-.217.128.006.223.109.218.236-.005.128-.107.223-.236.217Z" fill="#fff"/>
              <path d="M43.521,211.846c-.119-.01-.208-.119-.195-.24.012-.115.113-.2.228-.193.122.007.211.109.201.233-.009.121-.114.21-.235.2Z" fill="#fff"/>
              <path d="M49.618,214.92c-.01.117-.107.2-.226.193-.123-.008-.211-.11-.199-.234.011-.117.11-.201.226-.194.123.008.21.11.199.235Z" fill="#fff"/>
              <path d="M44.737,211.342c.111.009.191.1.18.203-.012.107-.115.193-.221.184-.109-.009-.184-.097-.176-.206.008-.113.101-.191.217-.181Z" fill="#fff"/>
              <path d="M47.866,216.754c-.032-.002-.064,0-.095-.007-.095-.019-.145-.079-.129-.176.016-.098.086-.135.18-.123.049.006.096.029.145.036.09.014.146.06.135.154-.011.096-.079.125-.168.116-.023-.002-.045-.003-.068-.005v.004Z" fill="#fff"/>
              <path d="M48.395,211.556c.108.004.193.093.189.194-.005.103-.109.194-.216.188-.101-.005-.187-.104-.179-.205.008-.103.099-.182.206-.178Z" fill="#fff"/>
              <path d="M44.388,216.996c-.004.119-.077.201-.18.201-.097,0-.181-.089-.178-.19.002-.102.153-.239.253-.232.079.006.11.07.106.221Z" fill="#fff"/>
              <path d="M43.516,215.769c.106.01.184.105.169.212-.016.112-.086.17-.199.168-.109-.003-.185-.095-.176-.204.009-.109.1-.186.207-.176Z" fill="#fff"/>
              <path d="M45.916,217.721c-.102-.011-.18-.112-.169-.217.011-.106.096-.175.2-.163.106.012.183.108.172.213-.011.099-.107.178-.202.167Z" fill="#fff"/>
              <path d="M47.356,215.395c-.006.099-.096.18-.194.176-.103-.004-.185-.102-.174-.208.01-.1.101-.177.199-.169.098.009.176.101.169.2Z" fill="#fff"/>
              <path d="M44.905,215.313c.017-.086.074-.143.177-.14.094.003.175.095.162.186-.014.1-.079.154-.179.153-.093,0-.169-.094-.16-.199Z" fill="#fff"/>
              <path d="M48.813,213.804c.062-.039.12-.104.186-.112.098-.013.149.067.145.161-.004.097-.071.165-.162.148-.064-.012-.116-.085-.173-.131l.004-.065Z" fill="#fff"/>
              <path d="M46.186,213.1c-.089.069-.137.125-.194.139-.023.006-.096-.08-.099-.128-.005-.084.057-.137.146-.117.039.009.072.049.147.105Z" fill="#fff"/>
              <path d="M47.946,212.791c.048.082.1.132.093.171-.007.041-.07.073-.109.109-.035-.04-.094-.078-.097-.12-.002-.04.055-.083.113-.159Z" fill="#fff"/>
              <path d="M47.964,214.427c-.045-.076-.093-.121-.087-.157.006-.038.063-.069.098-.103.035.039.091.074.098.117.005.032-.053.074-.109.143Z" fill="#fff"/>
              <path d="M48.471,217.317c-.047-.081-.097-.129-.089-.163.009-.038.067-.083.109-.089.025-.004.084.063.083.097,0,.04-.049.079-.103.155Z" fill="#fff"/>
              <path d="M46.817,215.834c-.079.043-.126.09-.161.082-.038-.008-.064-.067-.096-.104.037-.032.073-.086.112-.088.035-.002.074.053.144.11Z" fill="#fff"/>
              <path d="M45.918,215.976c-.068.043-.108.089-.141.083-.034-.006-.085-.061-.083-.092.001-.032.056-.082.091-.085.032-.003.069.046.133.094Z" fill="#fff"/>
              <path d="M49.007,212.877c-.069.042-.108.083-.143.081-.031-.002-.085-.062-.08-.084.009-.038.054-.088.09-.094.03-.005.069.047.133.097Z" fill="#fff"/>
              <path d="M49.279,213.581c.071-.041.113-.085.146-.079.036.007.063.06.093.093-.034.029-.067.08-.103.082-.033.002-.07-.047-.136-.096Z" fill="#fff"/>
              <path d="M43.534,214.305c-.055.033-.097.077-.122.069-.035-.012-.058-.062-.086-.095.036-.026.069-.07.107-.073.025-.002.055.052.101.099Z" fill="#fff"/>
              <path d="M43.17,212.325c.031.062.073.107.063.133-.013.035-.066.054-.101.08-.022-.035-.064-.071-.06-.103.003-.032.051-.06.099-.11Z" fill="#fff"/>
              <path d="M47.739,213.896c-.036-.053-.077-.088-.071-.112.008-.034.051-.061.079-.09.025.032.065.062.07.096.004.025-.04.057-.078.106Z" fill="#fff"/>
              <path d="M46.822,213.547c-.034-.052-.067-.082-.069-.114-.001-.02.054-.065.069-.059.031.012.064.047.072.078.005.019-.036.05-.072.095Z" fill="#fff"/>
            </g>
            <g>
              <path d="M34.258,214.897c-.174-.359.067-.698.304-.77.283-.086.586.05.686.319.105.284-.037.594-.322.702-.046.017-.095.027-.141.043-.392.136-.427.117-.527-.294Z" fill="#fff"/>
              <path d="M42.763,215.806c-.258.073-.526-.074-.605-.333-.084-.272.068-.547.34-.617.257-.066.527.09.6.347.073.256-.081.532-.336.604Z" fill="#fff"/>
              <path d="M39.154,211.148c-.217.06-.383-.046-.457-.293-.072-.237.057-.481.287-.545.223-.062.452.072.513.301.065.24-.078.463-.343.536Z" fill="#fff"/>
              <path d="M36.745,209.285c.225-.057.441.07.494.289.053.217-.081.435-.302.491-.239.06-.471-.066-.524-.284-.053-.22.091-.435.332-.496Z" fill="#fff"/>
              <path d="M37.636,215.176c-.216.06-.446-.066-.508-.278-.063-.216.064-.442.282-.503.222-.061.441.06.505.279.064.221-.057.44-.279.502Z" fill="#fff"/>
              <path d="M32.103,211.74c-.207.05-.42-.086-.466-.299-.044-.202.079-.404.28-.458.212-.057.42.067.474.283.052.211-.076.422-.287.474Z" fill="#fff"/>
              <path d="M44.213,213.54c.049.206-.07.401-.275.456-.214.057-.422-.069-.471-.285-.047-.205.074-.405.276-.458.214-.056.419.07.471.287Z" fill="#fff"/>
              <path d="M33.889,210.198c.195-.047.382.062.42.244.039.188-.088.393-.272.438-.189.047-.367-.061-.415-.252-.049-.197.065-.381.267-.43Z" fill="#fff"/>
              <path d="M42.262,217.648c-.055.014-.11.035-.166.042-.173.021-.291-.054-.318-.227-.027-.176.071-.279.237-.312.087-.017.18-.006.267-.02.162-.027.282.02.316.187.035.17-.065.257-.221.293-.04.009-.079.02-.119.03l.002.007Z" fill="#fff"/>
              <path d="M40.236,208.502c.186-.053.381.049.431.225.05.178-.076.391-.261.441-.174.048-.377-.072-.42-.248-.044-.181.067-.366.251-.419Z" fill="#fff"/>
              <path d="M36.479,220.019c.061.205-.018.386-.194.445-.165.055-.358-.05-.411-.223-.053-.174.125-.493.3-.538.139-.035.227.057.304.316Z" fill="#fff"/>
              <path d="M34.304,218.421c.186-.043.373.075.407.267.035.2-.051.339-.245.398-.186.057-.369-.057-.415-.249-.046-.19.065-.372.253-.416Z" fill="#fff"/>
              <path d="M39.489,220.392c-.179.038-.37-.09-.41-.274-.041-.188.064-.352.249-.39.187-.039.373.081.412.266.037.175-.081.362-.25.398Z" fill="#fff"/>
              <path d="M40.629,215.622c.045.173-.061.361-.231.409-.178.051-.372-.069-.414-.255-.04-.177.071-.358.244-.399.171-.04.356.073.4.245Z" fill="#fff"/>
              <path d="M36.41,216.863c-.019-.157.045-.286.223-.338.163-.047.351.064.381.226.032.179-.048.306-.219.361-.159.051-.341-.065-.384-.249Z" fill="#fff"/>
              <path d="M42.213,212.093c.083-.102.146-.244.253-.296.16-.077.291.03.338.192.048.167-.029.321-.192.343-.115.015-.245-.079-.369-.125l-.031-.114Z" fill="#fff"/>
              <path d="M37.345,212.374c-.113.167-.162.29-.253.347-.036.023-.208-.083-.24-.162-.056-.139.021-.265.183-.281.072-.007.15.044.31.096Z" fill="#fff"/>
              <path d="M40.167,210.857c.128.113.244.168.254.238.011.075-.079.164-.124.247-.081-.048-.205-.08-.232-.15-.026-.067.048-.172.102-.335Z" fill="#fff"/>
              <path d="M41.12,213.632c-.119-.104-.226-.153-.237-.219-.012-.069.069-.153.109-.23.081.046.196.074.233.144.027.051-.049.156-.105.305Z" fill="#fff"/>
              <path d="M43.609,218.265c-.126-.112-.237-.164-.243-.227-.007-.07.067-.179.135-.213.04-.02.178.06.197.118.022.068-.04.162-.089.322Z" fill="#fff"/>
              <path d="M39.96,216.673c-.11.118-.163.224-.227.23-.069.007-.148-.078-.222-.123.046-.075.076-.188.142-.213.059-.023.155.049.308.106Z" fill="#fff"/>
              <path d="M38.51,217.421c-.091.111-.135.212-.192.221-.061.01-.178-.056-.194-.11-.015-.055.049-.171.107-.196.054-.023.144.039.279.084Z" fill="#fff"/>
              <path d="M42.021,210.407c-.094.11-.137.203-.198.218-.054.013-.18-.057-.184-.098-.006-.07.042-.181.1-.21.048-.025.143.042.282.091Z" fill="#fff"/>
              <path d="M42.88,211.452c.097-.11.144-.209.203-.217.065-.009.141.067.212.106-.042.069-.069.173-.129.198-.055.023-.146-.04-.286-.087Z" fill="#fff"/>
              <path d="M33.511,215.92c-.075.088-.122.186-.168.186-.067,0-.134-.072-.201-.113.046-.065.079-.158.141-.185.041-.018.124.057.228.112Z" fill="#fff"/>
              <path d="M31.776,212.754c.088.087.184.141.182.19-.002.066-.081.129-.127.194-.057-.047-.148-.085-.161-.142-.013-.056.053-.131.106-.242Z" fill="#fff"/>
              <path d="M40.437,212.855c-.09-.07-.181-.107-.185-.151-.005-.063.053-.132.084-.198.061.04.146.068.174.125.02.04-.036.118-.073.225Z" fill="#fff"/>
              <path d="M38.68,212.778c-.086-.069-.16-.102-.181-.156-.013-.033.056-.141.084-.139.059.003.136.043.167.093.019.03-.034.105-.07.202Z" fill="#fff"/>
            </g>
          </g>
        </g>
      </g>
    </g>
  </g>
</svg>