<?xml version="1.0" encoding="UTF-8"?>
<svg xmlns="http://www.w3.org/2000/svg" width="360" height="300" xmlns:xlink="http://www.w3.org/1999/xlink" viewBox="0 0 360 300">
  <defs>
    <filter id="b" data-name="drop-shadow-1" x="18.19" y="-11.42" width="345.041" height="312.221" filterUnits="userSpaceOnUse">
      <feOffset dx="-3.746" dy="0"/>
      <feGaussianBlur result="c" stdDeviation="0"/>
      <feFlood flood-color="#42496f" flood-opacity="1"/>
      <feComposite in2="c" operator="in"/>
      <feComposite in="SourceGraphic"/>
    </filter>
    <clipPath id="d">
      <path d="M156.772,270.147c-.714.568-1.284,1.023-1.977,1.575-.003-.058.007.152.018.393-3.196-.319-3.327-2.383-.098-2.884,1.266-.458,1.292-1.73,1.796-3.082-1.457.556-2.442.47-3.814.697.252.876.893.851,1.45,1.442-.481.508-1.165.591-1.771.508-.164-1.022-1.028-2.49.117-3.246,1.081-.446-.186-1.686-.567-2.013-.576.277-1.111.961-.617,1.595.308.467.508.864-.116,1.321-1.184,3.272-3.027-.469-4.858-1.096.043-.188.129-.569.249-1.096-1.736,1.039-.908-3.182-2.925-.821-1.624-1.05-2.16-4.844-4.273-4.346-.195.121-.721-.087-.862-.323-.793-2.584-3.2-3.697-4.05-6.08-.648-1.513-1.976-2.377-3.113-3.449-.105-.152-.742-.109-.861.057-.955,1.197-2.936.12-3.038-1.301-.305-.566-1.47-1.131-1.391-1.989-.993-1.138.043-1.066.753-1.648-.713-.298-.871-.891-.862-1.733.182-.805-1.666-2.151-.396-2.576,1.456-.278.308-1.173.293-2.22-.995,1.425-2.019,2.272-3.674,2.052-.749.61-1.209.199-1.709-.265-1.289-1.414-3.222.461-4.368,1.389.096-3.759-4.685.9-6.54,1.179-.045-1.293-1.546-2.313-2.535-1.037-2.249-.607-2.976-3.952-4.684-5.586-.354-1.535-2.399-1.151-2.496-2.62-.174-1.629-2.3-1.873-2.288-3.673-1.441-.59-1.123-2.543-2.161-3.441-1.784-2.289-6.496-5.151-5.755-8.104.894-.917,0-1.194-.607-1.76-.469-1.012-1.005-.044-1.776-.239,1.881-2.059-1.466-2.334,1.303-5.969.307-.896-.85-.648-1.11-.104-.689,1.234-1.677,1.063-2.634.934-.512-.549-.059-1.924-1.332-1.664-.087-.365-.174-.73-.265-1.114-1.241.3-1.93,1.597-.515,2.208-1.318,1.253-3.583,4.501-4.84,1.678-1.488.342-1.344-2.237-2.996-.947-.081-.699-.146-1.267-.22-1.908-.179.118-.405.268-.633.418-.357-.743-.386-1.794-1.555-1.625-.128-.956-.256-1.902-.401-2.984-.273.4-.459.674-.57.836-1.739-.398-2.103-2.224-3.029-3.533-.095.013-.19.027-.285.04-.063.335-.127.67-.19,1.006-.1-.005-.2-.01-.301-.014.267-3.392-2.866-4.422-3.859-7.278.268-1.007.296-1.422-.313-2.239-.385.414-.736.792-1.218,1.311-.78-.576-.39-2-1.553-1.698-.335-1.357-.028-2.349.869-3.26-.982-1.094,1.552-3.478-.432-3.648-.108.467-.211.908-.313,1.349h-.215c.026-1.112.053-2.223.084-3.524,2.431,1.178,2.282-2.245,2.499-3.943-.967.712-1.639,2.005-2.82,1.039.176.3.352.6.614,1.048-.519.131-.969.245-1.271.321-.347-1.909.465-3.139,1.711-4.501.127.086.294.199.395.268,2.901-4.637,5.805-9.825,10.004-13.792-1.101-.897-1.671-2.744-.22-3.567.661.055,1.365.339,1.709.081.63-.781,1.133-1.841-.331-2.352-.007-1.37,1.816-2.873.508-4.08-.762-.851-.499-2.634-1.967-2.737-1.541-.467-2.351.923-3.668,1.337-1.282-.241-1.534,1.02-2.196,1.866-.778-.443-1.737-.572-2.254-1.223-.354-1.428-1.427-.995-2.579-1.251.279-.295.512-.541.756-.799-1.61-.454-1.243,1.18-.684,1.971-.347.287-.659.544-1.161.959-.146-.998.719-2.27-.491-2.696-2.003-.024-2.094-3.775-4.13-2.353.013-.316.026-.622.039-.933-1.119-.022-1.15-.978-1.739-1.663-2.298-1.886-1.623-1.258-2.3-3.981-.202.134-.39.26-.632.421-.647-.984-1.563-1.132-1.856-2.568-1.328-2.881-5.346-3.058-7.079-5.386-.585.083-1.041.148-1.601.228,1.383-2.045.167-3.317.285-5.289.802-1.974,1.602-3.943,2.4-5.907l.357.032c-.084.989-.167,1.98-.27,3.197.814-.916.531-1.853.959-2.706.183.12.335.22.487.32.067-.034.134-.067.201-.101.024-1.515-1.858-.945-.615-2.467,8.097-15.249,14.395-31.292,23.079-46.174.452-.861.735-1.603,1.645-.565,1.744.56,1.811-2.35,3.56-2.194.431-.026.743-1.269.438-1.892-.072.32-.123.543-.188.83-.996.023-1.962.045-2.946.068.288-2.054,2.598-2.155,4.1-1.523,1.683-2.489,2.304-6.224,5.744-6.788-.14-.172-.266-.327-.539-.662,2.52-.59,4.58,2.546,6.67,1.905.44-.39.743-.297.818.309-.216.079-.43.157-.716.261,4.26,1.531,8.617,5.253,12.519,6.025.919,2.415,2.378-.584,3.433-1.49.519-.833,1.393-.071,2.021-.601,8.953-9.038,16.928-19.513,26.772-26.991.548-.009,1.596.235,1.946.822,1.848,1.277,2.466-3.795,6.841,1.161.667,1.147,2.425-.463,2.708,1.046.282,1.139,1.689,1.087,2.207,2.067,1.786,1.081,2.565,3.146,4.737,3.803.689.392.8.85,1.497-.017.118,1.414.309,1.516,1.399.76.079.407.154.792.229,1.178.343-.146.685-.291,1.123-.477-.465,6.943,24.591-23.986,27.83-25.766,1.614.353-.188,1.261.697,2.163.504.143.961-.691,1.338-.89,1.676-.328-.022,1.919,1.229,2.224.722.181.831,1.901,1.677.962.181.363.422.654.47.981.121.87,1.498.81,1.687.114.111-.926-.632-2.356.922-2.128.695.044.417,1.093.954,1.37-.252.402-.445.71-.638,1.018.435.124.871.249,1.436.41-.455,1.116-.409,1.297.704,1.757.236,1.007,1.231,1.468,1.973,2.04.853.704,1.654,2.045,3.013,1.97-.367,1.39,1.423.545,2.121.967-1.036.973-.927,1.293.14,1.928-.026.064-.052.129-.078.193-.473-.052-.945-.105-1.599-.177.27.731,1.157.622.746,1.475-.068.73,1.223.916,1.837.424-.165.316-.264.505-.399.765.57-.039.209,1.014.965.708.422-.171.76-.545,1.101-.949-1.081.652-1.342-.397-.403-.954,1.362.035,2.055-.861,2.827-1.742,1.164-1.315,2.162-2.092,3.896-1.315.42.365.792.737,1.358.086,1.024.926,2.01,1.817,2.997,2.709.08-.067.161-.134.241-.2-.201-.332-.402-.663-.707-1.165,1.923,1.296,3.917-1.03,5.357.406.242,1.625,1.152,2.489,2.362,3.451,1.077.962.459,2.642,1.638,3.51.591.438.42,1.541,1.363.95,1.136-.803,2.064,1.302,1.41,2.168.424.081.745.143,1.018.195-.349.427-.657.804-.966,1.18.601.262-.509,1.372.736,1.339.079-.234.163-.483.242-.715.997.668,2.299,1.187,1.222,2.566.322.045.606.085.957.133-.052.234-.096.434-.112.508.399.361.738.669,1.123,1.017-.197.249-.374.474-.652.826.998-.259,1.849-.481,2.782-.723.017.314.026.498.036.679,2.534.548.472,4.428.011,6.054.081.056.162.112.243.169,1.616-1.377,2.453-3.491,3.878-5.066.083.048.165.097.248.145-.384.974-.893,1.909-1.079,2.947,1.031-.032,1.49-.808,2.019-1.568,3.259,2.237,14.631-18.5,13.479-7.991.094.03.189.059.283.089,1.094-2.144,4.509-2.623,4.519.402-.096.89.735.556,1.293.499.593-.139.81.106.812.662-.08,1.962,4.51.524,3.973,3.236,2.144-.457,1.241,2.226,2.864,2.406.605-.004,1.21.372,1.837.587-.225.485-.433.934-.678,1.461,5.02.996,1.101.777,3.501,2.933,4.404,2.295.161,6.216-.403,9.674.089.041.178.082.266.123-.185.117-.369.233-.605.382.059.154.126.329.196.511-1.449.027-.687,1.274-1.387,2.138-.349.477-.522.808.079,1.218.73.849.617,2.264.918,3.296-.073-.059-.231-.188-.271-.221-.656,1.441.088,2.991-1.8,3.481-.204.757-.278,1.634-1.183,2.076-.315-.334-.584-.62-.852-.905-.137-.009-.274-.017-.41-.026.293,2.122-.855,3.447-1.799,5.239,1.242.98,3,.811,3.902,1.869.136.202.265.614.366.604,1.437-.079,1.729,1.318,2.679,1.994.643-.661,1.245-1.281,1.864-1.918.26.187.466.335.672.483.052-.03.105-.061.157-.091l-.428-.924c1.562-3.164,1.703.665,2.812-1.18.475.196-.208,1.169.688.926.129-.035.115-.591.193-1.067,1.148-.008,1.437,1.548,2.789.384.073.773.039,1.143.215,1.756,1.685-.842,3.335-2.183,4.895-3.547,1.023-1.326,1.915-1.908,3.486-.744-.475.142-.748.223-1.02.305-.005.067-.011.135-.016.202.378.068.756.137,1.195.217.034-.181.063-.334.1-.528,1.723.228.025,1.229,1.078,1.799.134-.204.256-.391.296-.453,1.868.37,1.023-1.643.979-2.751l.204-.01c1.293,1.101,1.019,3.405,2.372,4.092.478.042.83.144,1.165.502,1.443.824.727-1.53,1.45-1.887.825-.061,1.284.754,1.73,1.415-.65,1.95,2.239,2.847,3.33,4.16-1.55-.417-2.332-.086-.804,1.442.229-.349.361-.551.594-.905.361.657.506,1.139,1.073,1.535.326-.601.054-1.047-.141-1.632.68.197,1.275.399.869,1.299.351,2.153,4.294-.792,3.39,2.185.898-.303,3.057.317,1.793,1.39-.131.095-.137.605-.006.756.169.194.628.381.795.285.865-.523,1.285.614,1.879,1.035,1.081,1.873-1.129,3.834-.969,5.528,1.202.529-.36,2.016-1.067.878-.308.414-.488.762.194.862,1.616,1.818-2.468,6.466-3.68,8.628.365-.107.59-.173.909-.267.159.618,1.012,1.706-.01,1.987-.745.554-.263,1.555-.229,2.5.289.015,1.168-.414,1.404-.381.598.516,1.12.261,1.637-.051.559-.337.696-.053.782.465.801,2.367,1.179,4.776,2.081,7.035.296,1.29.714,3.393,2.176,3.714.357.969,1.887,1.054,1.624,2.511,2.597-.272,2.122,3.134,2.166,4.769,2.929,1.423-1.903,4.927-2.06,7.046-1.368,1.049-1.719,3.218-2.761,3.844-.552.332.13,1.785-.94,1.65-.796.839-1.221,1.956-2.062,3.186,3.359.425,6.449.815,9.532,1.205.032,1.666.885.365,1.742,1.274-.463.32-.798.55-1.11.766,1.152,1.211,1.958,3.802.022,4.516-1.213-.421-.742.496-.819,1.117.542-.177.997-.326,1.52-.497.973,1.168-1.798,1.906-.43,3.306.013,5.671-9.282,6.554-2.154,13.149-.601.93.805,1.579.35,2.49-.864,1.241-.557,2.496,1.028,2.77.031-.119.095-.368.163-.633,1.014.619,2.481,4.084,2.35,5.432.203-.031.46-.071.716-.111-.01.096-.021.192-.031.288-.183.196-.365.393-.548.59.022.092.044.183.066.275.393-.066.786-.133,1.324-.224-.604.681-.237,2.147-1.186,2.219-.146-.009-.301.289-.452.446.707.611,1.519-.008,2.306-.16.039.066.079.131.118.197-3.126,4.171-9.064,6.455-10.856,11.429-.128,1.576-.41.812-1.467,1.079.511.307,1.427.88.622,1.38-.764.446.062,1.168-.253,1.875-.087.003-.174.006-.261.009-.122-.197-.243-.393-.517-.836-2.745,9.891-14.735,10.7-21.933,16.161-4.721,4.006-9.465,8.241-14.742,11.416-1.032,1.679-4.844,4.864-6.137,2.157.234-.101.458-.199.914-.396-.521-.325-.863-.539-1.347-.841.147,1.114-.969,3.195-.613,1.098-1.212-.582-.148-1.97-.78-3.19-.401.884-.706,1.557-1.011,2.231-1.428-.731-.155-3.632-1.829-3.831-.673,1.024-1.157.594-1.616-.31-.299.539-.537.97-.797,1.437-3.272-3.432-9.814,6.669-13.382,6.068-1.938.182-3.462,3.741-5.535,2.824-8.971-2.229-27.887,23.203-33.172,18.759.277-.119.533-.228,1.027-.44-.491-.356-.823-.597-1.214-.881-1.253,2.454-1.359-.662-1.252-1.807-.098-.031-.197-.062-.295-.093-.366.652-.732,1.305-1.092,1.947-1.624-.22.047-4.78-1.789-3.836-.899,1.306-.917.067-1.661-.321-.179.432-.346.837-.504,1.219-2.082-1.718-4.408.854-6.83.32-.817.38-2.702,1.194-2.44-.602.711-.752,1.476-3.949-.374-3.102-.693-1.096-.614-1.406.383-1.632-.13-1.436-.512-1.982-1.573-.714.167-2.383-1.748-3.383-1.153-5.508.157-.534-.429-1.418-.268-1.963.769-1.473-.333-2.133-.906-3.004-1.931-.74-2.614-2.2-3.516-4.067-.659.517-1.34,1.051-2.08,1.631.027-.286.049-.514.074-.772-2.134.455-.86,2.028-2.308,3.424-.48-2.06,1.266-3.471,1.159-5.483-7.491,8.85-14.265,20.34-21.905,27.933ZM311.647,165.413c.861.91-.177,1.368.871,1.808.243-.854,1.473-1.293.613-2.462l-.624.31-.413-.196c.221-.269.443-.537.662-.803-1.404-1.639-1.201.322-1.109,1.344ZM63.541,183.748c-.44.598-.881,1.197-1.321,1.794.416.232.892.496,1.372.764.972-1.015.967-1.809-.051-2.558ZM312.421,173.251c-.222-.095-.444-.189-.666-.284.342-.493.685-.986.992-1.43-.25-.17-.55-.375-.848-.578q-.56.478.02,1.052c-.282.189-.563.377-.843.564-.009.121-.018.242-.026.363.457.104.914.208,1.372.313ZM310.446,162.308c-.318.619-.555,1.08-.89,1.733,1.061-.275,2.309-1.141.89-1.733ZM260.913,89.214c-.07.023-.14.046-.21.069-.088.634-.176,1.268-.273,1.965l.902-.413c-.137-.532-.278-1.077-.419-1.622ZM209.677,43.765c-.848.503-.866.792-.101,1.425.035-.491.064-.905.101-1.425ZM68.809,78.717c.649.155,1.027.174,1.063-.485-.428-.544-.687.017-1.063.485ZM61.936,191.013c-.467.934-.379,1.117.477,1.239-.178-.463-.328-.851-.477-1.239ZM311.27,169.697c.154.012.308.025.462.037.005-.409.011-.818.016-1.226-.12-.01-.24-.02-.36-.03-.039.406-.079.812-.118,1.218ZM106.359,239.142c-.032.385-.064.77-.106,1.275.927-.494.838-.89.106-1.275Z" fill="none"/>
    </clipPath>
    <linearGradient id="e" data-name="Dégradé sans nom 35" x1="178.681" y1="40.426" x2="178.681" y2="200.453" gradientUnits="userSpaceOnUse">
      <stop offset="0" stop-color="#b1ddea"/>
      <stop offset="1" stop-color="#54bfd1"/>
    </linearGradient>
    <linearGradient id="f" data-name="Dégradé sans nom 14" x1="195.644" y1="201.485" x2="195.644" y2="255.785" gradientUnits="userSpaceOnUse">
      <stop offset="0" stop-color="#6498d1"/>
      <stop offset="1" stop-color="#336a9b"/>
    </linearGradient>
    <filter id="g" data-name="drop-shadow-2" x="111.714" y="59.253" width="144.992" height="151.575" filterUnits="userSpaceOnUse">
      <feOffset dx="-6" dy="0"/>
      <feGaussianBlur result="h" stdDeviation="0"/>
      <feFlood flood-color="#42496f" flood-opacity="1"/>
      <feComposite in2="h" operator="in"/>
      <feComposite in="SourceGraphic"/>
    </filter>
    <clipPath id="i">
      <path d="M133.173,192.504s112.024-12.882,123.533-14.963c-3.428,10.407-16.023,24.133-38,29.52,0,0-67.664-1.972-77.672-2.339-6.586-3.802-7.861-12.218-7.861-12.218Z" fill="none"/>
    </clipPath>
    <clipPath id="j">
      <path d="M255.999,214.393c-5.279,5.068-11.613.845-11.613.845-5.905,3.353-11.204,2.378-13.92,1.453-.235.252-.567.412-.939.412-.642,0-1.17-.471-1.268-1.086-10.825,5.52-12.801-1.834-12.801-1.834-8.763,7.285-19.003,5.068-19.003,5.068l-.633-39.758h70.102v37.435c-5.068,0-9.924-2.534-9.924-2.534Z" fill="none"/>
    </clipPath>
  </defs>
  <g isolation="isolate">
    <g id="a" data-name="Calque 22">
      <g filter="url(#b)">
        <g clip-path="url(#d)">
          <g>
            <rect x="18.19" y="-11.42" width="320.982" height="233.088" fill="#54bfd1"/>
            <rect x="18.19" y="-11.42" width="320.982" height="233.088" fill="url(#e)"/>
            <path d="M340.645,129.984c-1.241-1.224-35.365-21.906-51.703,10.357-6.618-13.65-16.959-5.584-21.095,21.508-5.311-3.066-11.995,5.352-11.995,5.352,3.102-17.967-5.998-15.064-10.341,1.891-5.17-6.002-11.581-5.994-16.545,0-4.963-5.588-12.814-5.325-17.885,4.884-5.071-7.783-12.192-2.274-15.618,2.367-1.497-3.513-5.17-5.975-9.513-3.513-4.343,2.462-.859,7.828-10.042,8.144-9.184.316-12.923-3.044-21.826.689v9.073h187.897l-1.334-60.752Z" fill="#b1ddea" opacity=".5"/>
            <path d="M39.063,159.949c2.34-22.365,26.104-63.266,42.782-56.921,16.678,6.345,11.964,34.449,11.964,34.449,15.046-5.626,22.195,8.788,20.847,22.472,8.32-13.313,18.633-17.014,28.279,0,5.713-3.298,16.137-1.693,17.13,9.143,5.669-1.071,11.418,4.342,6.272,16.527H39.063v-25.67Z" fill="#b1ddea" opacity=".5"/>
            <path d="M341.76,179.768c-6.48,1.19-14.535,1.903-23.298,1.903s-16.818-.714-23.298-1.903h-.355c-6.48,1.19-14.535,1.903-23.298,1.903s-16.818-.714-23.298-1.903h-.355c-6.48,1.19-14.535,1.903-23.298,1.903s-16.818-.714-23.298-1.903h-.355c-6.48,1.19-14.535,1.903-23.298,1.903s-16.818-.714-23.298-1.903h-.355c-6.48,1.19-14.535,1.903-23.298,1.903s-16.818-.714-23.298-1.903h-.355c-6.48,1.19-14.535,1.903-23.298,1.903s-16.818-.714-23.298-1.903H28.055v120.332l335.176.702v-120.332l-21.472-.702Z" fill="url(#f)"/>
            <g opacity=".5">
              <path d="M198.409,228.31s12.999-4.46,16.131-6.642c0,0,.38,4.649,16.89,4.934-20.4,5.883-14.802-.569-33.02,1.708Z" fill="#fff"/>
              <path d="M273.157,204.135s3.89-1.993,4.555-3.036c2.59,1.495,6.832,3.321,7.97,3.036-8.16-.99-8.67,2.226-12.525,0Z" fill="#fff"/>
              <path d="M78.534,194.265s4.891-.752,6.526-2.175c2.136,1.583,8.073,2.175,8.073,2.175-6.707-.014-10.271,1.478-14.599,0Z" fill="#fff"/>
              <path d="M115.78,216.581c5.49.309,12.547-3.243,14.733-4.777,2.764,3.089,7.675,5.489,15.141,2.258,4.69,1.966,12.394,2.8,15.884,1.869-12.92,2.137-10.861.582-14.511,1.12-3.65.538-8.86,3.388-16.639.193-5.704,1.737-11.023,1.63-14.608-.662Z" fill="#fff"/>
              <path d="M205.906,191.846c3.049.171,6.967-1.802,8.182-2.654,1.535,1.716,4.263,3.049,8.408,1.254,2.604,1.092,6.883,1.555,8.821,1.038-7.175,1.187-6.032.323-8.058.622s-4.92,1.882-9.24.107c-3.168.965-6.121.906-8.112-.367Z" fill="#fff"/>
            </g>
            <g>
              <g>
                <g>
                  <path d="M125.631,198.833l.309.309" fill="none"/>
                  <g>
                    <path d="M125.01,193.77c.382-.275.826-.064.958.197.158.311.061.692-.232.863-.309.18-.699.078-.883-.232-.029-.05-.051-.105-.079-.155-.239-.428-.223-.474.235-.673Z" fill="#fff"/>
                    <path d="M125.687,203.856c-.138-.286-.021-.627.264-.772.3-.153.651-.032.788.27.129.285.003.632-.281.769-.283.137-.635.014-.771-.268Z" fill="#fff"/>
                    <path d="M130.372,198.705c-.114-.24-.024-.455.247-.592.261-.132.572-.032.692.223.117.248.008.541-.246.659-.266.124-.555.003-.694-.29Z" fill="#fff"/>
                    <path d="M132.05,195.521c.112.25.009.528-.236.634-.242.106-.523-.006-.633-.251-.119-.265-.019-.562.224-.668.245-.107.525.017.645.285Z" fill="#fff"/>
                    <path d="M125.375,197.759c-.114-.239-.015-.532.221-.648.239-.118.528-.016.642.226.116.245.02.525-.222.645-.244.12-.524.023-.641-.222Z" fill="#fff"/>
                    <path d="M128.246,190.618c-.101-.231.015-.507.253-.604.227-.092.486.01.59.233.11.235.008.503-.233.609-.235.104-.507-.002-.61-.238Z" fill="#fff"/>
                    <path d="M128.62,205.081c-.229.099-.481,0-.586-.228-.109-.238-.006-.505.236-.606.229-.096.486.003.589.228.108.237.004.502-.238.606Z" fill="#fff"/>
                    <path d="M130.405,192.383c.094.217.006.457-.198.538-.211.084-.475-.022-.566-.227-.093-.211-.004-.44.208-.534.219-.098.457-.002.555.223Z" fill="#fff"/>
                    <path d="M123.44,203.648c-.028-.061-.063-.121-.082-.185-.06-.197.003-.349.199-.416.199-.068.339.025.411.213.037.098.043.208.078.307.064.183.034.332-.153.407-.191.076-.312-.023-.386-.197-.019-.044-.04-.088-.06-.132l-.007.003Z" fill="#fff"/>
                    <path d="M133.673,199.425c.1.205.021.454-.174.547-.197.094-.47-.009-.567-.214-.091-.193.007-.454.202-.54.201-.089.439.003.538.207Z" fill="#fff"/>
                    <path d="M119.502,197.399c-.226.113-.453.058-.557-.135-.097-.181-.015-.426.176-.524.192-.098.6.045.687.24.069.154-.02.276-.306.418Z" fill="#fff"/>
                    <path d="M120.918,194.543c.088.207-.011.449-.227.528-.226.082-.405.01-.513-.204-.104-.205-.009-.441.205-.534.212-.092.447,0,.535.21Z" fill="#fff"/>
                    <path d="M119.681,200.979c-.081-.201.029-.449.235-.533.21-.085.423.003.505.21.083.21-.019.451-.225.533-.196.078-.438-.021-.515-.21Z" fill="#fff"/>
                    <path d="M125.466,201.334c-.192.087-.433.002-.524-.185-.095-.197.004-.447.213-.534.197-.082.432.01.514.203.082.191-.012.429-.204.516Z" fill="#fff"/>
                    <path d="M123.162,196.676c.179-.054.342-.005.438.191.088.18-.002.422-.185.489-.201.074-.366.007-.465-.181-.092-.174.006-.41.212-.498Z" fill="#fff"/>
                    <path d="M129.897,202.458c.135.076.314.12.396.234.123.17.025.345-.154.432-.184.09-.379.032-.438-.153-.041-.131.042-.302.07-.454l.126-.059Z" fill="#fff"/>
                    <path d="M128.577,196.849c-.217-.098-.37-.13-.455-.223-.034-.037.054-.259.139-.312.151-.094.313-.03.365.156.023.082-.021.183-.049.38Z" fill="#fff"/>
                    <path d="M130.918,199.824c-.106.172-.146.318-.225.345-.085.028-.207-.058-.313-.095.04-.105.052-.255.127-.301.072-.044.21.02.41.051Z" fill="#fff"/>
                    <path d="M127.882,201.499c.097-.16.132-.294.206-.321.078-.027.192.049.29.08-.037.104-.047.244-.12.3-.054.042-.192-.026-.376-.06Z" fill="#fff"/>
                    <path d="M122.997,205.342c.104-.17.143-.31.215-.329.08-.022.222.042.276.114.031.042-.033.219-.098.253-.074.039-.196-.013-.393-.037Z" fill="#fff"/>
                    <path d="M124.107,200.769c-.16-.104-.294-.145-.314-.217-.022-.079.061-.188.098-.283.096.038.234.051.277.121.039.064-.025.191-.06.379Z" fill="#fff"/>
                    <path d="M122.94,199.234c-.148-.084-.274-.113-.297-.179-.024-.069.028-.219.089-.248.06-.029.209.023.25.085.038.058-.016.175-.041.342Z" fill="#fff"/>
                    <path d="M131.819,201.891c-.147-.087-.264-.118-.294-.187-.026-.06.03-.221.077-.234.081-.021.219.012.265.074.039.051-.02.176-.048.347Z" fill="#fff"/>
                    <path d="M130.779,203.104c.148.091.273.125.294.192.023.074-.049.177-.08.268-.089-.034-.216-.045-.257-.11-.038-.06.017-.178.043-.35Z" fill="#fff"/>
                    <path d="M123.668,193.109c-.118-.07-.242-.104-.25-.158-.013-.078.057-.17.091-.257.085.04.199.06.244.127.029.044-.042.156-.084.288Z" fill="#fff"/>
                    <path d="M126.999,190.445c-.084.12-.126.243-.184.251-.077.011-.167-.068-.251-.108.043-.076.069-.19.132-.216.063-.026.163.035.304.074Z" fill="#fff"/>
                    <path d="M128.647,200.547c.063-.119.087-.232.138-.246.073-.019.164.035.248.057-.034.079-.05.183-.11.228-.043.032-.145-.017-.276-.04Z" fill="#fff"/>
                    <path d="M128.379,198.486c.063-.115.086-.207.144-.243.036-.022.175.036.179.069.009.07-.023.167-.074.213-.031.028-.129-.018-.25-.04Z" fill="#fff"/>
                  </g>
                </g>
                <g>
                  <path d="M164.515,197.701l.309.309" fill="none"/>
                  <g>
                    <path d="M163.486,193.844c.233-.273.6-.197.745-.027.173.202.17.501-.016.681-.196.189-.504.184-.695-.012-.031-.032-.056-.068-.087-.101-.254-.274-.251-.311.053-.541Z" fill="#fff"/>
                    <path d="M165.807,201.19c-.154-.187-.129-.46.056-.619.194-.167.476-.141.632.058.147.188.116.468-.069.62-.185.152-.468.125-.619-.059Z" fill="#fff"/>
                    <path d="M168.347,196.53c-.128-.157-.1-.333.076-.483.17-.145.418-.127.553.04.132.162.103.399-.063.532-.175.14-.41.102-.566-.09Z" fill="#fff"/>
                    <path d="M169.015,193.869c.128.165.102.389-.06.512-.16.122-.388.09-.514-.072-.136-.175-.116-.413.045-.535.162-.123.392-.082.529.095Z" fill="#fff"/>
                    <path d="M164.476,196.732c-.128-.157-.107-.391.046-.52.155-.13.388-.107.516.051.13.161.11.385-.048.517-.159.133-.384.112-.515-.049Z" fill="#fff"/>
                    <path d="M165.312,190.926c-.116-.153-.081-.378.078-.493.151-.109.362-.08.479.066.124.154.096.371-.062.493-.155.119-.376.09-.495-.066Z" fill="#fff"/>
                    <path d="M168.2,201.568c-.152.114-.356.087-.475-.063-.124-.156-.095-.373.065-.492.152-.113.361-.085.477.062.123.156.094.371-.067.492Z" fill="#fff"/>
                    <path d="M167.23,191.843c.109.144.087.337-.049.434-.141.1-.356.069-.46-.066-.107-.14-.082-.325.058-.433.145-.112.338-.084.451.065Z" fill="#fff"/>
                    <path d="M164.106,201.442c-.032-.04-.068-.078-.094-.122-.08-.135-.061-.259.072-.344.135-.086.256-.043.343.083.045.066.069.146.113.213.08.124.085.24-.04.329-.127.091-.235.039-.321-.076-.022-.03-.045-.058-.068-.087l-.005.004Z" fill="#fff"/>
                    <path d="M170.921,196.467c.111.134.097.332-.03.436-.129.105-.35.078-.458-.056-.102-.127-.077-.337.052-.436.133-.102.326-.077.436.056Z" fill="#fff"/>
                    <path d="M160.062,197.525c-.147.124-.325.124-.437,0-.105-.116-.088-.313.036-.419.124-.107.452-.075.552.054.079.102.035.208-.151.365Z" fill="#fff"/>
                    <path d="M160.595,195.155c.103.138.073.335-.073.432-.152.102-.298.081-.417-.058-.114-.133-.086-.325.055-.432.14-.106.331-.081.434.059Z" fill="#fff"/>
                    <path d="M160.841,200.144c-.096-.134-.06-.338.078-.437.14-.101.314-.074.412.064.099.14.068.337-.07.436-.131.093-.328.064-.419-.063Z" fill="#fff"/>
                    <path d="M165.188,199.363c-.126.099-.32.08-.421-.043-.106-.128-.077-.331.061-.434.131-.097.321-.07.417.057.095.127.068.32-.058.419Z" fill="#fff"/>
                    <path d="M162.641,196.33c.123-.073.252-.066.359.062.098.117.074.313-.049.396-.136.091-.27.071-.377-.05-.099-.113-.07-.305.067-.407Z" fill="#fff"/>
                    <path d="M168.672,199.395c.114.032.254.032.336.102.121.104.08.251-.036.348-.12.1-.275.092-.352-.034-.054-.09-.023-.231-.03-.349l.083-.066Z" fill="#fff"/>
                    <path d="M166.683,195.48c-.179-.033-.298-.029-.377-.083-.032-.021-.007-.202.047-.256.095-.097.226-.079.298.049.032.057.018.139.032.29Z" fill="#fff"/>
                    <path d="M168.953,197.26c-.047.146-.05.262-.105.296-.058.036-.164-.006-.249-.014.011-.085-.007-.198.04-.246.045-.046.159-.023.313-.037Z" fill="#fff"/>
                    <path d="M167.008,199.049c.043-.136.045-.242.095-.275.052-.034.151.002.229.007-.009.084.009.189-.035.244-.033.041-.147.016-.29.024Z" fill="#fff"/>
                    <path d="M164.084,202.776c.046-.144.05-.255.1-.283.055-.031.172-.009.225.035.031.026.015.168-.027.205-.048.042-.148.026-.298.043Z" fill="#fff"/>
                    <path d="M164.08,199.19c-.137-.048-.243-.054-.272-.104-.031-.054.011-.15.021-.228.078.011.182-.005.227.04.04.04.016.146.024.292Z" fill="#fff"/>
                    <path d="M162.939,198.263c-.125-.035-.224-.034-.252-.079-.03-.047-.018-.167.021-.2.039-.032.159-.021.2.018.038.036.02.133.031.261Z" fill="#fff"/>
                    <path d="M169.994,198.628c-.124-.038-.217-.04-.251-.085-.03-.04-.018-.169.015-.187.056-.03.164-.03.209.007.038.031.017.134.027.265Z" fill="#fff"/>
                    <path d="M169.442,199.714c.126.041.225.043.252.089.03.05-.005.14-.011.213-.072-.009-.168.006-.21-.035-.039-.038-.02-.135-.031-.267Z" fill="#fff"/>
                    <path d="M162.372,193.597c-.1-.03-.198-.034-.214-.072-.024-.056.011-.136.021-.207.07.014.159.008.203.05.03.028-.003.123-.01.229Z" fill="#fff"/>
                    <path d="M164.358,191.022c-.04.104-.05.203-.091.219-.055.022-.136-.02-.206-.035.018-.064.017-.153.059-.184.042-.031.127-.003.238,0Z" fill="#fff"/>
                    <path d="M167.402,198.205c.025-.1.023-.188.058-.207.05-.027.128-.004.194-.002-.011.065-.004.145-.04.189-.026.031-.111.013-.212.021Z" fill="#fff"/>
                    <path d="M166.832,196.727c.026-.096.026-.169.063-.206.022-.023.136-.005.145.019.019.05.013.128-.016.171-.018.026-.099.01-.192.015Z" fill="#fff"/>
                  </g>
                </g>
              </g>
              <g filter="url(#g)">
                <path d="M167.061,76.238s69.266,66.409,87.046,98.242c-22.868-5.02-55.681-1.224-67.68,3.061l-19.367-101.303Z" fill="#e86170"/>
                <path d="M168.695,81.477s29.635,73.595,41.117,83.765c0,0-19.32,7.102-23.384,12.299l-17.733-96.064Z" fill="#6498d1" mix-blend-mode="multiply" opacity=".25"/>
                <path d="M167.061,81.143s-30.506,85.95-44.871,102.52l61.626-8.815-16.755-93.704Z" fill="#e86170"/>
                <path d="M168.144,84.734s-3.755,78.196-30.364,95.99l45.867-6.285-15.503-89.705Z" fill="#6498d1" mix-blend-mode="multiply" opacity=".25"/>
                <polygon points="163.854 64.697 165.602 64.373 190.461 186.911 184.659 187.989 163.854 64.697" fill="#fff"/>
                <path d="M133.173,192.504s112.024-12.882,123.533-14.963c-3.428,10.407-16.023,24.133-38,29.52,0,0-67.664-1.972-77.672-2.339-6.586-3.802-7.861-12.218-7.861-12.218Z" fill="#fff"/>
                <g clip-path="url(#i)">
                  <path d="M220.548,210.828s16.141-4.527,26.915-22.75c.909-1.538-.298-3.48-2.077-3.32-17.515,1.57-87.508,7.448-107.188,9.499-1.842.192-3.105,1.98-2.61,3.765.89,3.205,2.958,7.782,7.68,9.639l77.279,3.168Z" fill="#6498d1" mix-blend-mode="multiply" opacity=".25"/>
                </g>
                <polygon points="118.258 185.532 183.816 177.065 183.647 174.439 117.714 183.871 118.258 185.532" fill="#fff"/>
                <path d="M167.061,63.387c3.438-2.942,8.439-6.198,13.92-2.442,17.418,11.936,14.436-1.371,26.647-.236-7.829,1.796-8.132,13.946-21.535,14.378-8.285.267-8.469-4.537-16.687,1.289l-2.345-12.989Z" fill="#e86170"/>
              </g>
              <path d="M253.221,204.396c-1.952-1.55-5.42-2.818-8.713-2.858-5.927-.071-7.617,1.223-7.617,1.223-7.8-4.503-23.282-13.834-35.771-8.814-12.488,5.02,33.534,21.726,35.982,19.767,2.449-1.959-13.619-8.472-10.398-8.822,3.444-.374,8.942.075,12.126.809,4.282-1.61,19.01,2.365,14.391-1.305Z" fill="#a7caec"/>
              <g>
                <path d="M201.652,200.047l.542.542" fill="none"/>
                <g>
                  <path d="M197.508,198.892c-.022-.4.333-.621.581-.596.295.03.524.274.512.562-.013.304-.265.537-.571.526-.049-.002-.098-.012-.147-.015-.416-.026-.442-.058-.374-.477Z" fill="#fff"/>
                  <path d="M205.046,203.034c-.268-.032-.459-.273-.432-.544.028-.285.275-.481.555-.44.264.038.454.288.422.554-.032.265-.281.462-.545.43Z" fill="#fff"/>
                  <path d="M203.505,197.314c-.224-.029-.337-.191-.311-.449.026-.248.24-.424.478-.394.231.03.391.242.359.479-.033.248-.252.399-.527.364Z" fill="#fff"/>
                  <path d="M201.992,194.65c.231.035.382.236.347.46-.035.222-.244.372-.47.338-.245-.037-.412-.244-.376-.467.036-.225.253-.368.5-.331Z" fill="#fff"/>
                  <path d="M200.534,200.461c-.224-.028-.388-.234-.363-.455.025-.225.231-.386.456-.357.229.029.386.227.36.455-.026.23-.224.386-.453.357Z" fill="#fff"/>
                  <path d="M196.734,195.128c-.212-.034-.357-.243-.317-.458.038-.205.23-.344.437-.316.219.029.364.225.33.446-.034.216-.234.362-.45.328Z" fill="#fff"/>
                  <path d="M207.27,201.494c-.035.21-.22.345-.432.316-.221-.031-.364-.227-.326-.447.036-.208.225-.347.433-.317.22.031.362.227.325.449Z" fill="#fff"/>
                  <path d="M198.989,194.39c.199.032.33.205.295.389-.037.19-.234.33-.422.301-.194-.03-.317-.199-.287-.394.031-.202.208-.329.415-.295Z" fill="#fff"/>
                  <path d="M203.867,204.549c-.057-.008-.115-.01-.17-.026-.169-.047-.249-.163-.207-.334.043-.174.174-.232.341-.197.087.018.169.065.256.085.16.038.253.128.221.296-.033.171-.16.213-.318.186-.04-.007-.081-.012-.122-.018v.007Z" fill="#fff"/>
                  <path d="M205.534,195.278c.193.023.335.193.312.376-.023.185-.222.333-.413.308-.18-.023-.322-.213-.294-.393.029-.185.204-.313.395-.291Z" fill="#fff"/>
                  <path d="M197.582,204.504c-.023.213-.167.351-.352.337-.174-.013-.313-.185-.295-.366.018-.182.307-.409.487-.382.142.021.188.141.159.411Z" fill="#fff"/>
                  <path d="M196.185,202.179c.189.032.317.214.274.405-.045.2-.178.295-.381.274-.195-.02-.32-.196-.289-.392.031-.194.205-.32.396-.288Z" fill="#fff"/>
                  <path d="M200.229,206.018c-.181-.034-.309-.227-.274-.413.035-.19.196-.302.382-.265.189.037.315.22.279.406-.034.176-.216.305-.387.272Z" fill="#fff"/>
                  <path d="M203.138,202.036c-.025.177-.197.311-.373.29-.185-.022-.318-.208-.285-.397.032-.179.205-.305.381-.276.174.029.302.205.276.383Z" fill="#fff"/>
                  <path d="M198.743,201.55c.043-.153.153-.248.338-.227.169.019.301.195.265.357-.04.178-.163.265-.343.25-.167-.014-.291-.193-.26-.38Z" fill="#fff"/>
                  <path d="M205.976,199.376c.116-.062.23-.17.35-.176.178-.01.258.14.239.309-.02.173-.151.286-.311.244-.113-.03-.197-.169-.294-.259l.016-.117Z" fill="#fff"/>
                  <path d="M201.351,197.749c-.17.111-.263.206-.369.224-.042.007-.161-.158-.16-.243.002-.151.122-.238.279-.19.069.021.122.099.25.209Z" fill="#fff"/>
                  <path d="M204.557,197.436c.075.155.161.25.143.32-.019.073-.137.121-.211.181-.057-.077-.159-.154-.157-.229.002-.072.111-.141.225-.271Z" fill="#fff"/>
                  <path d="M204.365,200.38c-.07-.143-.15-.23-.135-.295.016-.068.123-.115.191-.171.058.074.153.145.16.224.005.058-.106.126-.216.242Z" fill="#fff"/>
                  <path d="M204.877,205.644c-.074-.152-.156-.244-.137-.305.021-.068.132-.14.208-.145.045-.003.142.124.136.186-.006.071-.099.135-.207.264Z" fill="#fff"/>
                  <path d="M202.109,202.751c-.148.067-.238.144-.3.126-.067-.02-.107-.13-.158-.2.071-.052.144-.144.214-.143.064.001.125.105.244.217Z" fill="#fff"/>
                  <path d="M200.474,202.882c-.128.068-.207.145-.264.131-.061-.015-.144-.121-.137-.177.007-.057.112-.14.175-.14.059,0,.118.092.226.187Z" fill="#fff"/>
                  <path d="M206.451,197.738c-.13.065-.205.135-.269.125-.055-.009-.145-.123-.132-.162.022-.068.109-.151.174-.156.055-.004.117.095.226.193Z" fill="#fff"/>
                  <path d="M206.843,199.04c.133-.064.215-.138.273-.122.063.017.104.117.155.18-.065.048-.131.134-.196.133-.06,0-.12-.094-.231-.191Z" fill="#fff"/>
                  <path d="M196.419,199.551c-.104.052-.186.125-.228.107-.062-.027-.096-.119-.142-.183.067-.042.134-.115.203-.117.045,0,.092.101.168.193Z" fill="#fff"/>
                  <path d="M196.038,195.941c.048.115.116.202.095.247-.028.06-.125.089-.193.131-.035-.065-.104-.137-.094-.194.01-.057.1-.101.192-.184Z" fill="#fff"/>
                  <path d="M204.033,199.395c-.057-.1-.126-.169-.113-.211.02-.061.1-.102.155-.152.041.061.109.12.113.183.003.045-.079.096-.155.18Z" fill="#fff"/>
                  <path d="M202.433,198.641c-.053-.098-.109-.157-.108-.215,0-.036.106-.109.132-.097.054.026.109.093.119.151.006.035-.072.084-.143.16Z" fill="#fff"/>
                </g>
              </g>
              <path d="M222.363,206.191s-9.483.464-18.733-.979c-9.249-1.444-13.687-4.337-18.768-4.215s4.688,4.215,4.688,4.215c0,0-8.765-1.721-12.776-.47-3.129.976,2.859,2.919,2.859,2.919,0,0-12.917-1.592-17.386-.735s-12.366,1.837-18.978.735c-6.612-1.102,3,2.938,8.693,3.061,5.693.122,8.815-1.653,16.284-.612,7.469,1.041,19.355-.238,19.539-1.217.184-.979-7.565-1.521-4.847-1.844,1.528-.181,3.638.054,8.938.612,10.026,1.055,26.875,2.449,30.487-1.469Z" fill="#a7caec"/>
              <path d="M179.556,205.821s-3.17-.364-11.156-.425c-7.986-.061-9.677-1.071-14.993-.994-5.316.076-22.184.344-28.915.421s-12.079-.456-13.693-.425c-8.147.157,10.365,1.546,15.223,1.463,4.857-.082,8.3-.738,12.775-.697,4.475.041,15.52.85,20.607.697,5.087-.153,14.35,1.869,15.734,2.054,6.166.822,9.285-1.753,4.418-2.093Z" fill="#a7caec"/>
              <g>
                <path d="M218.029,194.566c-3.731-3.167-8.905-4.559-13.722-3.693-1.352.243-2.799.749-3.484,1.94-1.123,1.951.407,4.445-.088,6.64-.372,1.651-1.875,2.864-3.495,3.353s-3.355.375-5.039.205c-4.254-.429-8.483-1.189-12.757-1.282-4.275-.093-8.681.526-12.382,2.667" fill="none"/>
                <g>
                  <g>
                    <path d="M180.588,201.894c.398.521.123,1.146-.235,1.34-.427.232-.96.113-1.21-.288-.263-.422-.137-.97.287-1.237.068-.043.143-.075.213-.116.586-.349.65-.329.945.3Z" fill="#a7caec"/>
                    <path d="M166.589,203.242c.392-.203.871-.054,1.084.336.225.411.071.904-.344,1.106-.392.191-.879.029-1.081-.36-.201-.388-.045-.883.341-1.083Z" fill="#a7caec"/>
                    <path d="M173.941,209.551c.33-.168.632-.052.833.32.194.358.067.794-.282.972-.34.173-.752.033-.926-.315-.183-.365-.027-.772.376-.977Z" fill="#a7caec"/>
                    <path d="M178.438,211.755c-.343.166-.734.033-.892-.302-.157-.332-.013-.728.324-.891.364-.176.781-.05.939.285.159.336-.002.731-.37.908Z" fill="#a7caec"/>
                    <path d="M175.056,202.563c.328-.169.739-.042.91.281.173.327.044.733-.288.902-.337.172-.73.049-.905-.282-.177-.334-.053-.728.283-.901Z" fill="#a7caec"/>
                    <path d="M185.102,206.266c.317-.15.705,0,.85.327.137.311.006.676-.3.83-.323.162-.699.031-.856-.299-.154-.323-.017-.705.306-.858Z" fill="#a7caec"/>
                    <path d="M165.004,207.371c-.146-.315-.021-.669.293-.825.326-.162.702-.028.853.304.143.314.015.676-.293.828-.326.16-.698.026-.853-.307Z" fill="#a7caec"/>
                    <path d="M182.734,209.341c-.298.14-.635.027-.757-.254-.125-.29.011-.662.293-.796.29-.138.611-.023.751.268.145.301.021.636-.288.781Z" fill="#a7caec"/>
                    <path d="M166.787,200.11c.084-.041.165-.092.253-.122.272-.091.486-.01.587.26.102.274-.021.473-.279.58-.135.056-.287.068-.424.121-.252.096-.46.06-.572-.197-.113-.262.019-.435.259-.545.061-.028.121-.059.181-.088-.002-.003-.003-.007-.005-.01Z" fill="#a7caec"/>
                    <path d="M173.074,214.17c-.282.147-.63.047-.768-.22-.139-.271-.007-.654.274-.797.265-.134.631-.009.759.26.131.276.014.611-.266.757Z" fill="#a7caec"/>
                    <path d="M175.319,194.381c-.166-.309-.098-.628.165-.78.248-.143.593-.038.735.223.143.263-.038.836-.306.965-.212.102-.384-.017-.594-.408Z" fill="#a7caec"/>
                    <path d="M179.348,196.234c-.285.131-.625.003-.743-.295-.123-.311-.03-.562.262-.722.281-.153.613-.03.751.263.137.291.018.621-.27.753Z" fill="#a7caec"/>
                    <path d="M170.348,194.774c.276-.121.626.022.751.306.127.289.013.588-.272.71-.289.124-.628-.008-.751-.292-.117-.269.011-.61.272-.724Z" fill="#a7caec"/>
                    <path d="M170.087,202.833c-.129-.263-.02-.602.236-.736.27-.141.621-.012.751.275.122.271.003.601-.261.723-.262.122-.597,0-.726-.263Z" fill="#a7caec"/>
                    <path d="M176.471,199.441c.083.246.021.475-.247.617-.246.13-.587.014-.687-.238-.111-.277-.024-.509.234-.654.239-.135.571-.008.701.275Z" fill="#a7caec"/>
                    <path d="M168.703,209.04c-.1.191-.155.442-.31.56-.232.177-.478.048-.607-.197-.133-.253-.06-.526.195-.615.181-.063.421.046.635.079l.087.173Z" fill="#a7caec"/>
                    <path d="M176.45,206.979c.128-.306.166-.52.292-.642.05-.048.362.065.44.181.137.206.054.434-.202.513-.113.035-.255-.021-.53-.053Z" fill="#a7caec"/>
                    <path d="M172.407,210.354c-.243-.14-.448-.19-.488-.3-.042-.117.073-.29.119-.438.147.051.356.062.423.165.064.099-.02.293-.054.573Z" fill="#a7caec"/>
                    <path d="M169.955,206.201c.226.128.415.172.454.274.041.107-.061.269-.1.407-.146-.047-.341-.055-.422-.155-.06-.074.028-.268.068-.526Z" fill="#a7caec"/>
                    <path d="M164.414,199.561c.24.138.436.186.467.286.034.111-.049.311-.147.388-.058.045-.306-.037-.356-.126-.057-.102.01-.273.036-.548Z" fill="#a7caec"/>
                    <path d="M170.818,200.92c.138-.226.189-.414.29-.446.109-.034.263.077.398.124-.049.136-.061.327-.157.39-.088.057-.266-.027-.53-.068Z" fill="#a7caec"/>
                    <path d="M172.906,199.236c.11-.209.147-.386.237-.42.095-.036.305.031.348.113.043.083-.023.292-.108.35-.079.055-.244-.016-.477-.044Z" fill="#a7caec"/>
                    <path d="M169.57,211.691c.115-.207.153-.371.248-.416.082-.039.309.033.328.098.032.112-.008.305-.092.371-.07.056-.245-.02-.484-.053Z" fill="#a7caec"/>
                    <path d="M167.841,210.293c-.121.209-.163.385-.255.416-.101.035-.249-.062-.376-.101.044-.125.054-.302.142-.361.082-.055.248.016.489.046Z" fill="#a7caec"/>
                    <path d="M181.453,200.001c.092-.166.135-.34.21-.355.108-.021.239.072.361.116-.052.119-.075.28-.166.344-.061.043-.218-.052-.404-.105Z" fill="#a7caec"/>
                    <path d="M185.293,204.526c-.171-.111-.343-.166-.356-.246-.018-.107.088-.235.14-.354.107.056.267.088.306.175.039.086-.042.228-.09.425Z" fill="#a7caec"/>
                    <path d="M171.311,207.226c.168.083.327.112.347.182.029.1-.042.23-.07.347-.111-.045-.257-.062-.321-.143-.046-.058.018-.203.044-.386Z" fill="#a7caec"/>
                    <path d="M174.166,206.77c.162.083.291.111.343.191.032.049-.043.245-.089.252-.096.015-.233-.025-.299-.094-.04-.042.019-.18.046-.349Z" fill="#a7caec"/>
                  </g>
                  <g>
                    <path d="M191.473,202.823c.191.381-.062.747-.315.827-.301.096-.627-.045-.737-.332-.116-.302.032-.636.335-.755.049-.019.101-.03.15-.048.417-.151.455-.13.567.308Z" fill="#a7caec"/>
                    <path d="M182.368,201.965c.275-.082.563.072.651.348.093.29-.065.586-.356.664-.274.074-.565-.089-.646-.362-.081-.272.079-.569.351-.65Z" fill="#a7caec"/>
                    <path d="M186.288,206.896c.231-.067.41.044.493.307.08.253-.055.515-.3.586-.238.069-.484-.071-.553-.315-.072-.256.078-.496.36-.578Z" fill="#a7caec"/>
                    <path d="M188.889,208.856c-.24.064-.473-.069-.532-.303-.059-.232.081-.466.316-.529.254-.068.505.064.564.297.06.234-.091.466-.348.534Z" fill="#a7caec"/>
                    <path d="M187.858,202.571c.23-.067.477.064.547.291.07.23-.062.474-.295.541-.236.068-.472-.058-.543-.292-.072-.235.055-.471.291-.54Z" fill="#a7caec"/>
                    <path d="M193.819,206.169c.221-.057.451.086.502.313.049.216-.079.432-.293.493-.226.064-.45-.066-.51-.296-.059-.225.075-.452.301-.51Z" fill="#a7caec"/>
                    <path d="M180.849,204.407c-.055-.219.069-.43.288-.491.228-.063.452.068.507.299.053.218-.073.434-.289.493-.228.062-.449-.069-.507-.301Z" fill="#a7caec"/>
                    <path d="M191.93,207.841c-.207.053-.409-.061-.452-.255-.044-.201.089-.421.285-.472.202-.052.393.06.447.264.056.21-.064.409-.28.463Z" fill="#a7caec"/>
                    <path d="M182.879,199.989c.059-.016.117-.039.177-.047.185-.025.312.053.343.238.032.187-.072.299-.25.336-.093.019-.192.008-.286.025-.172.031-.301-.018-.341-.196-.04-.181.066-.276.232-.316.042-.01.084-.023.126-.034l-.002-.007Z" fill="#a7caec"/>
                    <path d="M185.168,209.739c-.198.059-.408-.047-.463-.235-.056-.19.076-.419.273-.475.186-.053.404.072.453.259.05.192-.066.392-.263.451Z" fill="#a7caec"/>
                    <path d="M189.03,197.378c-.068-.218.014-.413.201-.478.176-.061.383.048.442.233.059.186-.127.529-.314.579-.148.039-.243-.058-.329-.334Z" fill="#a7caec"/>
                    <path d="M191.376,199.056c-.198.048-.4-.075-.438-.28-.041-.214.05-.363.256-.429.198-.063.395.056.447.26.052.202-.065.399-.265.448Z" fill="#a7caec"/>
                    <path d="M185.807,197.019c.191-.043.397.091.442.287.046.2-.064.377-.261.42-.2.044-.4-.082-.444-.278-.042-.186.082-.388.262-.429Z" fill="#a7caec"/>
                    <path d="M184.652,202.133c-.05-.184.061-.387.241-.441.189-.057.398.069.446.268.045.188-.072.384-.256.43-.182.045-.381-.073-.431-.257Z" fill="#a7caec"/>
                    <path d="M189.145,200.751c.023.167-.045.306-.234.364-.173.053-.377-.063-.41-.236-.037-.191.047-.328.229-.389.169-.057.365.065.414.261Z" fill="#a7caec"/>
                    <path d="M183.006,205.927c-.087.11-.153.263-.267.32-.17.085-.311-.028-.364-.2-.054-.178.026-.343.2-.369.123-.018.263.081.396.128l.034.121Z" fill="#a7caec"/>
                    <path d="M188.206,205.562c.119-.18.17-.312.265-.374.038-.025.223.086.259.17.062.148-.019.284-.192.303-.077.009-.16-.045-.332-.099Z" fill="#a7caec"/>
                    <path d="M185.21,207.221c-.138-.119-.263-.176-.275-.251-.013-.08.082-.176.13-.265.088.051.22.083.25.157.029.071-.049.185-.105.359Z" fill="#a7caec"/>
                    <path d="M184.154,204.268c.129.11.244.161.256.231.013.073-.072.164-.114.248-.088-.048-.211-.077-.251-.151-.029-.054.051-.168.108-.328Z" fill="#a7caec"/>
                    <path d="M181.431,199.348c.136.118.256.173.263.24.008.075-.07.192-.142.23-.042.022-.191-.061-.212-.124-.024-.072.04-.173.09-.345Z" fill="#a7caec"/>
                    <path d="M185.353,201.002c.116-.128.172-.241.24-.249.074-.009.159.081.239.128-.048.081-.079.202-.148.23-.063.026-.167-.05-.33-.109Z" fill="#a7caec"/>
                    <path d="M186.894,200.182c.096-.12.141-.228.203-.239.065-.011.191.057.208.115.017.058-.051.184-.112.211-.057.025-.154-.04-.299-.087Z" fill="#a7caec"/>
                    <path d="M183.234,207.727c.099-.118.143-.218.209-.236.057-.015.193.059.197.103.007.075-.043.194-.104.226-.051.027-.154-.043-.303-.093Z" fill="#a7caec"/>
                    <path d="M182.302,206.622c-.103.119-.151.226-.214.235-.069.01-.151-.07-.228-.11.044-.075.071-.186.135-.213.059-.025.156.041.307.089Z" fill="#a7caec"/>
                    <path d="M192.258,201.72c.079-.095.128-.201.177-.201.072,0,.144.075.216.118-.048.07-.082.169-.148.199-.044.02-.133-.06-.245-.117Z" fill="#a7caec"/>
                    <path d="M194.154,205.081c-.095-.092-.198-.148-.197-.201.002-.071.085-.139.133-.209.061.049.16.089.174.149.014.06-.055.14-.11.261Z" fill="#a7caec"/>
                    <path d="M184.894,205.089c.097.073.195.112.199.159.006.068-.055.142-.087.213-.065-.042-.156-.071-.188-.131-.022-.043.036-.127.076-.241Z" fill="#a7caec"/>
                    <path d="M186.773,205.148c.093.073.172.107.196.164.014.035-.058.151-.088.15-.063-.002-.146-.045-.18-.097-.021-.032.034-.113.072-.217Z" fill="#a7caec"/>
                  </g>
                  <g>
                    <path d="M202.631,199.516c.221.208.141.515-.008.63-.178.138-.43.123-.574-.042-.151-.174-.134-.433.039-.586.028-.025.06-.045.089-.069.242-.203.273-.198.454.067Z" fill="#a7caec"/>
                    <path d="M196.334,201.169c.164-.122.394-.089.52.073.133.171.099.408-.075.531-.165.116-.4.078-.521-.084-.121-.162-.086-.4.076-.52Z" fill="#a7caec"/>
                    <path d="M200.161,203.507c.138-.101.285-.07.404.085.115.149.089.358-.057.465-.142.104-.341.071-.447-.076-.111-.153-.069-.351.099-.474Z" fill="#a7caec"/>
                    <path d="M202.379,204.182c-.145.101-.333.07-.43-.072-.096-.14-.06-.332.082-.431.153-.107.353-.081.45.061.097.142.053.334-.102.442Z" fill="#a7caec"/>
                    <path d="M200.153,200.231c.137-.101.335-.074.437.061.103.137.074.332-.065.434-.141.103-.33.076-.435-.062-.106-.14-.078-.329.063-.433Z" fill="#a7caec"/>
                    <path d="M205.018,201.18c.134-.092.322-.052.412.087.086.132.053.309-.076.401-.135.098-.317.066-.413-.073-.094-.136-.06-.321.076-.415Z" fill="#a7caec"/>
                    <path d="M195.915,203.173c-.09-.133-.059-.304.073-.399.137-.098.319-.065.412.076.089.133.057.308-.073.4-.137.097-.317.064-.412-.077Z" fill="#a7caec"/>
                    <path d="M204.163,202.76c-.126.086-.288.059-.364-.06-.079-.123-.044-.303.075-.385.122-.084.278-.056.363.067.088.127.057.289-.074.378Z" fill="#a7caec"/>
                    <path d="M196.193,199.723c.035-.025.069-.054.107-.074.117-.062.221-.04.287.075.067.118.025.218-.085.286-.057.036-.126.052-.185.087-.108.063-.206.062-.276-.047-.071-.111-.023-.2.078-.268.026-.017.051-.036.076-.054l-.003-.004Z" fill="#a7caec"/>
                    <path d="M200.106,205.682c-.118.088-.285.068-.367-.044-.084-.113-.052-.298.066-.384.111-.081.288-.051.366.062.08.116.051.278-.065.366Z" fill="#a7caec"/>
                    <path d="M199.667,196.473c-.099-.129-.091-.28.018-.369.103-.084.268-.061.352.048.085.11.044.385-.068.464-.089.062-.177.021-.302-.143Z" fill="#a7caec"/>
                    <path d="M201.646,197.022c-.12.081-.285.047-.361-.08-.079-.133-.056-.255.067-.349.117-.091.278-.059.363.065.084.123.054.282-.068.364Z" fill="#a7caec"/>
                    <path d="M197.424,197.021c.117-.076.288-.036.366.084.08.123.049.268-.072.345-.123.078-.287.043-.365-.078-.073-.114-.04-.28.071-.351Z" fill="#a7caec"/>
                    <path d="M197.902,200.723c-.079-.111-.054-.273.054-.354.113-.084.283-.051.363.07.076.115.046.274-.066.35-.111.075-.273.044-.351-.066Z" fill="#a7caec"/>
                    <path d="M200.568,198.7c.056.106.045.216-.067.3-.103.078-.267.05-.332-.058-.071-.118-.049-.231.058-.316.099-.079.26-.046.341.074Z" fill="#a7caec"/>
                    <path d="M197.729,203.662c-.031.095-.038.213-.1.279-.093.098-.215.057-.292-.045-.079-.106-.066-.236.044-.296.078-.042.196-.01.296-.011l.052.072Z" fill="#a7caec"/>
                    <path d="M201.117,202.146c.036-.149.037-.25.086-.315.019-.026.17.003.214.05.078.084.057.194-.054.249-.049.025-.118.009-.246.015Z" fill="#a7caec"/>
                    <path d="M199.519,203.988c-.122-.046-.219-.054-.245-.101-.028-.05.012-.138.022-.209.071.013.167.002.206.044.037.04.013.135.018.266Z" fill="#a7caec"/>
                    <path d="M198.091,202.271c.113.042.202.048.228.092.027.046-.008.127-.016.193-.07-.011-.16,0-.204-.04-.033-.029-.007-.124-.008-.245Z" fill="#a7caec"/>
                    <path d="M195.067,199.648c.12.045.213.053.234.096.024.048,0,.146-.039.188-.023.025-.143.006-.172-.031-.034-.042-.016-.126-.024-.253Z" fill="#a7caec"/>
                    <path d="M198.095,199.795c.046-.114.056-.203.099-.225.047-.024.126.016.191.027-.012.066-.004.154-.043.19-.036.032-.124.007-.247.008Z" fill="#a7caec"/>
                    <path d="M198.924,198.87c.035-.104.038-.187.077-.209.041-.023.142-.009.168.026.026.035.011.135-.023.168-.032.031-.113.011-.221.015Z" fill="#a7caec"/>
                    <path d="M198.322,204.809c.037-.103.042-.181.082-.209.035-.024.144-.008.157.02.023.049.019.14-.014.176-.028.031-.113.009-.225.012Z" fill="#a7caec"/>
                    <path d="M197.428,204.298c-.04.105-.046.188-.086.209-.044.024-.118-.01-.179-.018.011-.061.002-.142.038-.176.033-.031.114-.011.227-.015Z" fill="#a7caec"/>
                    <path d="M202.886,198.587c.03-.083.037-.165.07-.178.048-.018.115.015.173.026-.015.058-.014.133-.05.169-.025.024-.103-.007-.193-.018Z" fill="#a7caec"/>
                    <path d="M204.976,200.371c-.086-.038-.169-.05-.181-.086-.016-.048.023-.114.038-.172.053.018.128.021.153.057.024.037-.002.107-.01.201Z" fill="#a7caec"/>
                    <path d="M198.787,202.639c.083.025.158.027.172.057.021.044-.002.108-.006.164-.054-.012-.122-.009-.157-.042-.025-.023-.007-.094-.008-.18Z" fill="#a7caec"/>
                    <path d="M200.058,202.22c.08.026.141.029.171.062.018.02-.002.115-.022.122-.043.014-.108.006-.144-.021-.022-.016-.004-.084-.005-.163Z" fill="#a7caec"/>
                  </g>
                  <g>
                    <path d="M209.657,193.479c-.15.511-.693.63-.992.489-.357-.168-.535-.575-.392-.931.151-.375.57-.555.949-.406.061.024.118.058.178.084.51.217.528.268.257.764Z" fill="#a7caec"/>
                    <path d="M202.055,184.944c.321.16.454.545.3.873-.162.344-.559.48-.891.305-.313-.165-.441-.563-.283-.882.158-.318.557-.453.874-.296Z" fill="#a7caec"/>
                    <path d="M201.445,192.793c.268.136.337.39.19.7-.142.299-.488.425-.773.281-.277-.14-.382-.477-.238-.759.151-.295.493-.388.821-.222Z" fill="#a7caec"/>
                    <path d="M202.157,196.801c-.273-.146-.374-.465-.23-.73.143-.262.471-.358.739-.215.29.154.407.488.264.752-.145.266-.48.349-.773.193Z" fill="#a7caec"/>
                    <path d="M206.564,190.171c.268.134.382.465.253.731-.132.27-.46.381-.73.244-.274-.138-.382-.455-.249-.729.134-.276.452-.384.727-.246Z" fill="#a7caec"/>
                    <path d="M208.956,198.538c.25.136.339.463.193.714-.138.24-.441.328-.688.202-.261-.134-.356-.444-.215-.705.138-.256.454-.35.71-.211Z" fill="#a7caec"/>
                    <path d="M198.586,185.885c.136-.247.429-.335.682-.204.263.136.355.447.21.705-.137.245-.436.335-.684.205-.261-.137-.352-.445-.208-.707Z" fill="#a7caec"/>
                    <path d="M205.803,198.461c-.235-.128-.322-.404-.197-.618.13-.222.44-.31.663-.19.229.124.308.39.185.622-.128.239-.407.319-.65.186Z" fill="#a7caec"/>
                    <path d="M204.205,183.57c.067.036.14.064.201.108.19.134.24.314.111.51-.131.198-.32.213-.515.095-.101-.061-.183-.156-.283-.22-.184-.119-.261-.273-.145-.469.117-.2.295-.196.481-.092.048.027.096.051.145.076l.004-.008Z" fill="#a7caec"/>
                    <path d="M198,194.441c-.232-.114-.334-.391-.224-.609.111-.221.426-.318.654-.202.215.109.309.41.194.622-.118.219-.394.302-.624.189Z" fill="#a7caec"/>
                    <path d="M212.057,186.417c.123-.257.365-.366.591-.266.213.094.309.37.206.589-.104.22-.567.376-.78.262-.168-.09-.173-.26-.017-.586Z" fill="#a7caec"/>
                    <path d="M212.775,189.95c-.222-.124-.302-.409-.163-.629.145-.23.354-.29.599-.174.235.111.314.388.188.619-.125.229-.399.31-.624.184Z" fill="#a7caec"/>
                    <path d="M209.414,183.345c.211.123.286.421.16.639-.128.222-.38.291-.596.163-.22-.13-.296-.415-.169-.632.121-.206.406-.286.606-.169Z" fill="#a7caec"/>
                    <path d="M204.002,187.042c.111-.211.385-.302.596-.198.222.109.306.402.18.624-.119.21-.392.291-.6.176-.206-.114-.287-.391-.176-.602Z" fill="#a7caec"/>
                    <path d="M209.291,189.602c-.122.173-.302.242-.524.134-.203-.099-.291-.378-.174-.565.129-.206.322-.26.541-.161.203.092.279.37.157.592Z" fill="#a7caec"/>
                    <path d="M199.267,189.113c-.173.026-.364.11-.516.066-.227-.067-.261-.291-.162-.493.102-.208.317-.292.497-.167.128.088.172.298.253.454l-.072.14Z" fill="#a7caec"/>
                    <path d="M204.336,193.205c.262-.063.421-.141.561-.116.056.01.131.269.092.375-.069.188-.259.244-.433.114-.078-.057-.109-.178-.22-.373Z" fill="#a7caec"/>
                    <path d="M200.182,192.173c-.025-.227-.091-.385-.038-.464.056-.084.225-.091.345-.132.037.121.13.263.095.357-.034.089-.202.128-.402.24Z" fill="#a7caec"/>
                    <path d="M201.73,188.571c.025.21.086.355.038.429-.05.078-.205.089-.315.13-.039-.119-.127-.25-.101-.351.02-.075.189-.11.378-.208Z" fill="#a7caec"/>
                    <path d="M203.426,181.75c.025.224.087.376.037.443-.056.075-.227.117-.325.089-.057-.016-.122-.218-.088-.293.039-.086.184-.124.377-.239Z" fill="#a7caec"/>
                    <path d="M205.608,186.603c.215-.018.362-.075.431-.024.075.055.076.21.109.321-.112.033-.244.117-.331.084-.079-.03-.11-.188-.21-.381Z" fill="#a7caec"/>
                    <path d="M207.715,187.165c.19-.028.324-.089.389-.046.069.045.126.215.093.283-.034.068-.203.125-.281.098-.074-.026-.107-.168-.2-.334Z" fill="#a7caec"/>
                    <path d="M197.943,190.953c.191-.024.317-.078.392-.037.065.035.127.219.093.262-.058.075-.204.141-.288.118-.07-.019-.104-.17-.198-.343Z" fill="#a7caec"/>
                    <path d="M198.031,189.148c-.195.021-.331.077-.396.032-.072-.05-.079-.193-.114-.295.103-.031.224-.11.305-.08.075.027.108.17.205.343Z" fill="#a7caec"/>
                    <path d="M211.314,193.138c.153-.019.288-.074.333-.033.066.061.068.191.097.292-.103.023-.22.085-.305.056-.057-.019-.071-.168-.125-.316Z" fill="#a7caec"/>
                    <path d="M210.189,197.828c-.009-.166-.056-.304-.009-.352.062-.063.196-.055.299-.078.015.097.07.217.032.285-.038.067-.17.082-.322.145Z" fill="#a7caec"/>
                    <path d="M201.708,189.952c.027.15.083.268.047.315-.052.067-.171.083-.261.121-.024-.094-.083-.198-.06-.28.016-.058.142-.085.274-.156Z" fill="#a7caec"/>
                    <path d="M203.378,191.607c.023.146.067.244.04.317-.017.044-.181.089-.208.062-.056-.056-.095-.165-.082-.241.008-.047.127-.074.251-.137Z" fill="#a7caec"/>
                  </g>
                  <g>
                    <path d="M220.187,196.165c.026.261-.2.416-.363.407-.194-.011-.351-.164-.352-.353,0-.199.158-.359.358-.361.032,0,.065.005.097.005.273.005.291.025.259.302Z" fill="#a7caec"/>
                    <path d="M215.131,193.675c.176.013.308.165.299.343-.01.187-.166.323-.35.305-.174-.017-.306-.175-.293-.35.013-.175.17-.31.344-.297Z" fill="#a7caec"/>
                    <path d="M216.308,197.374c.148.012.226.115.216.285-.009.163-.144.285-.301.272-.152-.013-.263-.147-.249-.303.014-.163.154-.269.334-.254Z" fill="#a7caec"/>
                    <path d="M217.376,199.073c-.152-.016-.257-.143-.24-.291.017-.146.149-.251.298-.235.161.017.277.148.26.295-.017.148-.155.249-.318.231Z" fill="#a7caec"/>
                    <path d="M218.16,195.227c.147.012.261.142.251.287-.01.148-.14.259-.288.247-.151-.012-.259-.137-.249-.287.01-.151.135-.259.286-.247Z" fill="#a7caec"/>
                    <path d="M220.804,198.606c.14.016.241.149.221.29-.019.135-.141.232-.277.22-.144-.013-.245-.137-.229-.282.016-.142.143-.244.285-.228Z" fill="#a7caec"/>
                    <path d="M213.721,194.748c.016-.138.134-.232.274-.219.145.014.245.138.227.283-.017.137-.137.234-.274.221-.145-.014-.243-.138-.226-.284Z" fill="#a7caec"/>
                    <path d="M219.349,199.155c-.131-.015-.222-.125-.204-.246.018-.125.143-.223.268-.209.128.014.213.121.2.25-.014.133-.127.221-.263.206Z" fill="#a7caec"/>
                    <path d="M215.859,192.649c.037.004.076.003.112.012.112.026.168.099.145.212-.023.115-.107.157-.217.139-.058-.009-.112-.037-.17-.048-.106-.02-.17-.076-.153-.187.017-.113.098-.144.203-.131.027.003.053.005.08.008v-.005Z" fill="#a7caec"/>
                    <path d="M215.039,198.766c-.127-.009-.225-.117-.215-.237.01-.122.136-.224.261-.214.119.01.217.13.204.248-.013.122-.124.211-.25.202Z" fill="#a7caec"/>
                    <path d="M219.974,192.494c.009-.14.099-.235.221-.231.115.003.21.112.204.231-.006.12-.189.277-.308.264-.094-.01-.127-.087-.116-.264Z" fill="#a7caec"/>
                    <path d="M220.957,193.974c-.125-.015-.214-.131-.191-.257.024-.132.108-.198.242-.191.128.007.215.119.2.248-.015.128-.125.215-.251.2Z" fill="#a7caec"/>
                    <path d="M218.196,191.58c.119.017.209.139.192.262-.017.125-.12.203-.242.185-.124-.019-.212-.135-.195-.258.017-.116.132-.206.245-.19Z" fill="#a7caec"/>
                    <path d="M216.41,194.272c.011-.117.12-.209.236-.201.122.009.214.127.198.252-.015.118-.125.205-.241.192-.115-.014-.203-.126-.192-.242Z" fill="#a7caec"/>
                    <path d="M219.3,194.461c-.024.101-.093.167-.214.158-.111-.008-.203-.119-.184-.226.021-.118.099-.179.217-.174.11.004.196.117.181.241Z" fill="#a7caec"/>
                    <path d="M214.63,196.096c-.074.044-.146.118-.224.126-.116.012-.173-.084-.165-.195.008-.114.091-.192.196-.169.075.017.134.105.2.161l-.007.077Z" fill="#a7caec"/>
                    <path d="M217.705,197.026c.108-.078.166-.142.235-.157.027-.006.11.098.112.154.003.099-.073.159-.177.132-.046-.012-.083-.061-.17-.13Z" fill="#a7caec"/>
                    <path d="M215.616,197.325c-.053-.099-.113-.159-.103-.205.01-.049.086-.084.133-.124.039.048.108.096.109.145.001.047-.068.096-.139.184Z" fill="#a7caec"/>
                    <path d="M215.655,195.392c.05.091.105.146.097.189-.008.045-.077.079-.12.118-.04-.047-.105-.091-.111-.142-.005-.038.066-.085.134-.165Z" fill="#a7caec"/>
                    <path d="M215.165,191.962c.053.098.109.155.099.196-.012.045-.082.095-.132.101-.029.003-.096-.077-.095-.118.002-.047.061-.091.128-.179Z" fill="#a7caec"/>
                    <path d="M217.062,193.774c.095-.048.152-.101.193-.091.044.011.074.082.109.126-.045.036-.09.099-.136.1-.042,0-.085-.065-.166-.135Z" fill="#a7caec"/>
                    <path d="M218.129,193.64c.082-.048.131-.101.169-.093.04.008.098.075.095.112-.003.037-.069.095-.11.097-.038.002-.08-.057-.153-.115Z" fill="#a7caec"/>
                    <path d="M214.367,197.183c.083-.046.13-.094.172-.09.036.004.098.076.091.102-.012.045-.067.102-.109.107-.036.004-.079-.058-.154-.12Z" fill="#a7caec"/>
                    <path d="M214.072,196.342c-.085.046-.137.097-.175.088-.042-.009-.072-.073-.107-.114.041-.033.082-.092.125-.093.039-.001.081.058.157.119Z" fill="#a7caec"/>
                    <path d="M220.88,195.702c.067-.037.118-.087.146-.077.041.016.066.075.098.116-.043.03-.085.08-.129.082-.03.002-.063-.064-.116-.121Z" fill="#a7caec"/>
                    <path d="M221.236,198.053c-.035-.074-.082-.129-.069-.159.017-.04.079-.062.122-.091.025.042.072.086.067.124-.005.038-.062.069-.12.126Z" fill="#a7caec"/>
                    <path d="M215.901,196.027c.04.064.088.107.08.135-.011.04-.063.07-.097.104-.028-.039-.075-.075-.079-.117-.003-.029.049-.065.096-.122Z" fill="#a7caec"/>
                    <path d="M216.971,196.474c.038.062.076.099.077.137,0,.023-.066.074-.084.067-.036-.015-.074-.058-.082-.095-.005-.023.045-.057.089-.109Z" fill="#a7caec"/>
                  </g>
                </g>
              </g>
            </g>
          </g>
          <g>
            <g clip-path="url(#j)">
              <g>
                <path d="M230.178,195.842c-1.78-.106-3.309,1.251-3.415,3.031-.106,1.78,1.251,3.309,3.031,3.415s3.309-1.251,3.415-3.031c.106-1.78-1.251-3.309-3.031-3.415ZM229.898,200.548c-.819-.049-1.443-.752-1.394-1.571s.752-1.443,1.571-1.394,1.443.752,1.394,1.571-.752,1.443-1.571,1.394Z" fill="#f4af13"/>
                <path d="M237.107,224.328l-5.461,8.282c-1.838,2.788-6.006,2.54-7.5-.447l-4.439-8.872c-1.838-3.675-1.578-8.051.684-11.481l5.461-8.282c1.838-2.788,6.006-2.54,7.5.447l4.439,8.872c1.838,3.675,1.578,8.051-.684,11.481Z" fill="#ffd66e"/>
                <rect x="217.294" y="215.224" width="22.967" height="5.625" rx="1.581" ry="1.581" transform="translate(13.378 -13.225) rotate(3.411)" fill="#f4af13"/>
                <path d="M236.311,216.089l-.032-.002c-.167-.867-.448-1.719-.854-2.53l-3.783-7.562c-1.274-2.546-4.826-2.757-6.393-.381l-4.655,7.059c-.5.758-.879,1.571-1.148,2.413-.737-.036-1.368.525-1.412,1.263l-.125,2.096c-.044.734.51,1.361,1.24,1.418.165.89.446,1.764.862,2.596l3.783,7.562c1.274,2.546,4.826,2.757,6.393.381l4.655-7.059c.511-.775.893-1.608,1.163-2.47h.02c.743.045,1.381-.521,1.425-1.264l.125-2.096c.044-.743-.522-1.381-1.265-1.425Z" fill="#f4af13" mix-blend-mode="multiply" opacity=".25"/>
              </g>
            </g>
            <g mix-blend-mode="multiply" opacity=".5">
              <g>
                <path d="M221.395,221.306c1.801-.441,3.659.229,5.482.567,2.656.493,5.441.268,7.983-.643.222-.08.456-.174.594-.365s.129-.508-.079-.621c-.078-.042-.168-.049-.256-.055-1.659-.101-3.318.252-4.979.19-1.602-.06-3.167-.503-4.766-.62s-3.343.156-4.48,1.286c-.501.501.502.26.502.26Z" fill="#336a9b"/>
                <path d="M221.395,221.306c1.801-.441,3.659.229,5.482.567,2.656.493,5.441.268,7.983-.643.222-.08.456-.174.594-.365s.129-.508-.079-.621c-.078-.042-.168-.049-.256-.055-1.659-.101-3.318.252-4.979.19-1.602-.06-3.167-.503-4.766-.62s-3.343.156-4.48,1.286c-.501.501.502.26.502.26Z" fill="none"/>
              </g>
              <g>
                <path d="M230.902,223.356c-.646-.055-1.281-.204-1.928-.255s-1.93-.112-2.069.55c-.106.505.485.849,1.277,1.01.74.15,4.075.244,5.67-.093.554-.117,1.357-.511,1.327-.962s-2.847-.129-4.276-.25Z" fill="#336a9b"/>
                <path d="M230.902,223.356c-.646-.055-1.281-.204-1.928-.255s-1.93-.112-2.069.55c-.106.505.485.849,1.277,1.01.74.15,4.075.244,5.67-.093.554-.117,1.357-.511,1.327-.962s-2.847-.129-4.276-.25Z" fill="none"/>
              </g>
              <g>
                <path d="M227.981,225.679c-.223-.093-.464-.129-.703-.164-.38-.056-.76-.112-1.139-.168-.225-.033-.455-.067-.68-.034-.232.034-.637.138-.711.436-.032.127.148.199.276.23.153.036.486.091.746.135s1.228.143,1.994.154c.207.003.48-.053.499-.259.014-.154-.138-.269-.281-.329Z" fill="#336a9b"/>
                <path d="M227.981,225.679c-.223-.093-.464-.129-.703-.164-.38-.056-.76-.112-1.139-.168-.225-.033-.455-.067-.68-.034-.232.034-.637.138-.711.436-.032.127.148.199.276.23.153.036.486.091.746.135s1.228.143,1.994.154c.207.003.48-.053.499-.259.014-.154-.138-.269-.281-.329Z" fill="none"/>
              </g>
            </g>
          </g>
        </g>
      </g>
    </g>
  </g>
</svg>