<?xml version="1.0" encoding="UTF-8"?><svg xmlns="http://www.w3.org/2000/svg" xmlns:xlink="http://www.w3.org/1999/xlink" viewBox="0 0 300 300"><defs><style>.cls-1{fill:#f4af13;}.cls-2{fill:#fff;}.cls-3{fill:#e86170;}.cls-4,.cls-5{fill:none;}.cls-6{fill:#a7caec;}.cls-7{clip-path:url(#clippath-1);}.cls-8{filter:url(#drop-shadow-1);}.cls-9{isolation:isolate;}.cls-5{stroke:#f4af13;stroke-linecap:round;stroke-linejoin:round;stroke-width:3px;}.cls-10{fill:#42496f;}.cls-11{clip-path:url(#clippath);}.cls-12{fill:#6498d1;mix-blend-mode:multiply;opacity:.25;}</style><filter id="drop-shadow-1" x="174.74" y="79.89" width="37.03" height="38.2" filterUnits="userSpaceOnUse"><feOffset dx="-2" dy="0"/><feGaussianBlur result="blur" stdDeviation="0"/><feFlood flood-color="#42496f" flood-opacity="1"/><feComposite in2="blur" operator="in"/><feComposite in="SourceGraphic"/></filter><clipPath id="clippath"><path class="cls-4" d="M180.64,113.47s28.23-3.25,31.13-3.77c-.86,2.62-4.04,6.08-9.58,7.44,0,0-17.05-.5-19.58-.59-1.66-.96-1.98-3.08-1.98-3.08Z"/></clipPath><clipPath id="clippath-1"><path class="cls-4" d="M235.76,119.26c-3.95,3.8-8.7.63-8.7.63-4.42,2.51-8.39,1.78-10.43,1.09-.18.19-.43.31-.7.31-.48,0-.88-.35-.95-.81-8.11,4.13-9.59-1.37-9.59-1.37-6.56,5.46-14.23,3.8-14.23,3.8l-.47-29.78h52.51v28.04c-3.8,0-7.43-1.9-7.43-1.9Z"/></clipPath></defs><g class="cls-9"><g id="Calque_12"><path class="cls-5" d="M106.48,202.91c15.06-.73,26.98,1.88,38.98,1.32,17.36-.81,30.95-7.5,27.05-17.01-8.92-21.75-88.24-14.97-73.75-54.93,5.16-14.22,28.58-19.1,52.98,3.07,19.69,17.89,25.71,42.91,46.42,32.06,23.7-12.41-13.52-31.65-9.48-47.12,4.05-15.48,21.4-5.34,21.4-5.34"/><circle class="cls-1" cx="212.96" cy="115.99" r="5.02"/><g class="cls-8"><path class="cls-3" d="M189.18,84.17s17.46,16.74,21.94,24.76c-5.76-1.27-14.03-.31-17.06.77l-4.88-25.53Z"/><path class="cls-12" d="M189.59,85.49s7.47,18.55,10.36,21.11c0,0-4.87,1.79-5.89,3.1l-4.47-24.21Z"/><path class="cls-3" d="M189.18,85.41s-7.69,21.66-11.31,25.84l15.53-2.22-4.22-23.62Z"/><path class="cls-12" d="M189.45,86.31s-.95,19.71-7.65,24.19l11.56-1.58-3.91-22.61Z"/><polygon class="cls-2" points="188.37 81.26 188.81 81.18 195.07 112.06 193.61 112.33 188.37 81.26"/><path class="cls-2" d="M180.64,113.47s28.23-3.25,31.13-3.77c-.86,2.62-4.04,6.08-9.58,7.44,0,0-17.05-.5-19.58-.59-1.66-.96-1.98-3.08-1.98-3.08Z"/><g class="cls-11"><path class="cls-12" d="M202.66,118.09s4.07-1.14,6.78-5.73c.23-.39-.08-.88-.52-.84-4.41.4-22.05,1.88-27.01,2.39-.46.05-.78.5-.66.95.22.81.75,1.96,1.94,2.43l19.48.8Z"/></g><polygon class="cls-2" points="176.88 111.71 193.4 109.58 193.36 108.92 176.74 111.3 176.88 111.71"/><path class="cls-3" d="M189.18,80.93c.87-.74,2.13-1.56,3.51-.62,4.39,3.01,3.64-.35,6.72-.06-1.97.45-2.05,3.51-5.43,3.62-2.09.07-2.13-1.14-4.21.32l-.59-3.27Z"/></g><path class="cls-6" d="M210.89,116.47c-.49-.39-1.37-.71-2.2-.72-1.49-.02-1.92.31-1.92.31-1.97-1.13-5.87-3.49-9.01-2.22s8.45,5.48,9.07,4.98-3.43-2.14-2.62-2.22c.87-.09,2.25.02,3.06.2,1.08-.41,4.79.6,3.63-.33Z"/><path class="cls-2" d="M196.63,115.02c0-.12.1-.19.18-.18.09,0,.16.08.16.17,0,.09-.08.16-.17.16-.02,0-.03,0-.04,0-.13,0-.13-.02-.11-.15Z"/><path class="cls-2" d="M198.93,116.28c-.08,0-.14-.08-.13-.17,0-.09.08-.15.17-.13.08.01.14.09.13.17,0,.08-.09.14-.17.13Z"/><path class="cls-2" d="M198.46,114.54c-.07,0-.1-.06-.09-.14,0-.08.07-.13.15-.12.07,0,.12.07.11.15-.01.08-.08.12-.16.11Z"/><path class="cls-2" d="M198,113.73c.07.01.12.07.11.14-.01.07-.07.11-.14.1-.07-.01-.13-.07-.11-.14.01-.07.08-.11.15-.1Z"/><path class="cls-2" d="M197.55,115.5c-.07,0-.12-.07-.11-.14,0-.07.07-.12.14-.11.07,0,.12.07.11.14,0,.07-.07.12-.14.11Z"/><path class="cls-2" d="M196.39,113.87c-.06-.01-.11-.07-.1-.14.01-.06.07-.1.13-.1.07,0,.11.07.1.14-.01.07-.07.11-.14.1Z"/><path class="cls-2" d="M199.61,115.81c-.01.06-.07.11-.13.1-.07,0-.11-.07-.1-.14.01-.06.07-.11.13-.1.07,0,.11.07.1.14Z"/><path class="cls-2" d="M197.08,113.65c.06,0,.1.06.09.12-.01.06-.07.1-.13.09-.06,0-.1-.06-.09-.12,0-.06.06-.1.13-.09Z"/><path class="cls-2" d="M198.57,116.74s-.04,0-.05,0c-.05-.01-.08-.05-.06-.1.01-.05.05-.07.1-.06.03,0,.05.02.08.03.05.01.08.04.07.09-.01.05-.05.06-.1.06-.01,0-.02,0-.04,0h0Z"/><path class="cls-2" d="M199.08,113.92c.06,0,.1.06.1.11,0,.06-.07.1-.13.09-.05,0-.1-.06-.09-.12,0-.06.06-.1.12-.09Z"/><path class="cls-2" d="M196.65,116.73c0,.07-.05.11-.11.1-.05,0-.1-.06-.09-.11,0-.06.09-.12.15-.12.04,0,.06.04.05.13Z"/><path class="cls-2" d="M196.23,116.02c.06,0,.1.07.08.12-.01.06-.05.09-.12.08-.06,0-.1-.06-.09-.12,0-.06.06-.1.12-.09Z"/><path class="cls-2" d="M197.46,117.19c-.06-.01-.09-.07-.08-.13.01-.06.06-.09.12-.08.06.01.1.07.09.12-.01.05-.07.09-.12.08Z"/><path class="cls-2" d="M198.35,115.98c0,.05-.06.09-.11.09-.06,0-.1-.06-.09-.12,0-.05.06-.09.12-.08.05,0,.09.06.08.12Z"/><path class="cls-2" d="M197.01,115.83s.05-.08.1-.07c.05,0,.09.06.08.11-.01.05-.05.08-.1.08-.05,0-.09-.06-.08-.12Z"/><path class="cls-2" d="M199.21,115.17s.07-.05.11-.05c.05,0,.08.04.07.09,0,.05-.05.09-.09.07-.03,0-.06-.05-.09-.08v-.04Z"/><path class="cls-2" d="M197.8,114.67c-.05.03-.08.06-.11.07-.01,0-.05-.05-.05-.07,0-.05.04-.07.08-.06.02,0,.04.03.08.06Z"/><path class="cls-2" d="M198.78,114.58s.05.08.04.1c0,.02-.04.04-.06.06-.02-.02-.05-.05-.05-.07,0-.02.03-.04.07-.08Z"/><path class="cls-2" d="M198.72,115.47s-.05-.07-.04-.09c0-.02.04-.04.06-.05.02.02.05.04.05.07,0,.02-.03.04-.07.07Z"/><path class="cls-2" d="M198.88,117.08s-.05-.07-.04-.09c0-.02.04-.04.06-.04.01,0,.04.04.04.06,0,.02-.03.04-.06.08Z"/><path class="cls-2" d="M198.03,116.2s-.07.04-.09.04c-.02,0-.03-.04-.05-.06.02-.02.04-.04.07-.04.02,0,.04.03.07.07Z"/><path class="cls-2" d="M197.53,116.24s-.06.04-.08.04c-.02,0-.04-.04-.04-.05,0-.02.03-.04.05-.04.02,0,.04.03.07.06Z"/><path class="cls-2" d="M199.36,114.67s-.06.04-.08.04c-.02,0-.04-.04-.04-.05,0-.02.03-.05.05-.05.02,0,.04.03.07.06Z"/><path class="cls-2" d="M199.48,115.07s.07-.04.08-.04c.02,0,.03.04.05.05-.02.01-.04.04-.06.04-.02,0-.04-.03-.07-.06Z"/><path class="cls-2" d="M196.3,115.22s-.06.04-.07.03c-.02,0-.03-.04-.04-.06.02-.01.04-.04.06-.04.01,0,.03.03.05.06Z"/><path class="cls-2" d="M196.18,114.12s.04.06.03.08c0,.02-.04.03-.06.04-.01-.02-.03-.04-.03-.06,0-.02.03-.03.06-.06Z"/><path class="cls-2" d="M198.62,115.17s-.04-.05-.03-.06c0-.02.03-.03.05-.05.01.02.03.04.03.06,0,.01-.02.03-.05.05Z"/><path class="cls-2" d="M198.13,114.94s-.03-.05-.03-.07c0-.01.03-.03.04-.03.02,0,.03.03.04.05,0,.01-.02.03-.04.05Z"/><path class="cls-6" d="M203.11,116.92s-2.39.12-4.72-.25-3.45-1.09-4.73-1.06,1.18,1.06,1.18,1.06c0,0-2.21-.43-3.22-.12-.79.25.72.74.72.74,0,0-3.26-.4-4.38-.19s-3.12.46-4.78.19.76.74,2.19.77,2.22-.42,4.1-.15c1.88.26,4.88-.06,4.92-.31s-1.91-.38-1.22-.46c.38-.05.92.01,2.25.15,2.53.27,6.77.62,7.68-.37Z"/><path class="cls-6" d="M192.32,116.83s-.8-.09-2.81-.11-2.44-.27-3.78-.25-5.59.09-7.29.11-3.04-.11-3.45-.11c-2.05.04,2.61.39,3.84.37s2.09-.19,3.22-.18,3.91.21,5.19.18,3.62.47,3.97.52c1.55.21,2.34-.44,1.11-.53Z"/><path class="cls-6" d="M193.33,115.54c.09.09.05.22-.01.27-.08.06-.19.05-.24-.03-.06-.08-.05-.19.03-.25.01-.01.03-.02.04-.03.11-.08.12-.08.19.04Z"/><path class="cls-6" d="M190.61,116.14c.07-.05.17-.03.22.04.05.08.04.18-.04.23-.07.05-.17.03-.22-.04-.05-.07-.03-.17.04-.22Z"/><path class="cls-6" d="M192.21,117.2c.06-.04.12-.03.17.04.05.07.03.15-.03.2-.06.04-.15.02-.19-.04-.04-.07-.02-.15.05-.2Z"/><path class="cls-6" d="M193.15,117.53c-.06.04-.14.02-.18-.04-.04-.06-.02-.14.04-.18.07-.04.15-.03.19.03.04.06.02.14-.05.19Z"/><path class="cls-6" d="M192.26,115.8c.06-.04.14-.03.19.03.04.06.03.14-.03.18-.06.04-.14.03-.18-.03-.04-.06-.03-.14.03-.18Z"/><path class="cls-6" d="M194.32,116.29c.06-.04.14-.02.18.04.03.06.02.13-.04.17-.06.04-.14.02-.18-.04-.04-.06-.02-.14.04-.18Z"/><path class="cls-6" d="M190.4,116.99c-.04-.06-.02-.13.04-.17.06-.04.14-.02.18.04.04.06.02.13-.04.17-.06.04-.14.02-.18-.04Z"/><path class="cls-6" d="M193.93,116.95c-.06.03-.12.02-.15-.03-.03-.05-.01-.13.04-.16.05-.03.12-.02.15.03.04.06.02.12-.04.16Z"/><path class="cls-6" d="M190.57,115.52s.03-.02.05-.03c.05-.02.1-.01.12.04.03.05,0,.09-.04.12-.03.01-.05.02-.08.03-.05.03-.09.02-.12-.02-.03-.05,0-.09.04-.11.01,0,.02-.01.03-.02h0Z"/><path class="cls-6" d="M192.15,118.13c-.05.04-.12.02-.16-.02-.03-.05-.02-.13.03-.16.05-.03.12-.02.16.03.03.05.02.12-.03.16Z"/><path class="cls-6" d="M192.11,114.19c-.04-.06-.03-.12.01-.16.05-.03.12-.02.15.03.03.05.01.17-.04.2-.04.03-.08,0-.13-.07Z"/><path class="cls-6" d="M192.95,114.45c-.05.03-.12.02-.15-.04-.03-.06-.02-.11.03-.15.05-.04.12-.02.15.03.03.05.02.12-.03.15Z"/><path class="cls-6" d="M191.14,114.39c.05-.03.12-.01.16.04.03.05.02.12-.04.15-.05.03-.12.01-.15-.04-.03-.05-.01-.12.04-.15Z"/><path class="cls-6" d="M191.29,115.98s-.02-.12.03-.15c.05-.03.12-.02.15.04.03.05.02.12-.03.15-.05.03-.12.01-.15-.03Z"/><path class="cls-6" d="M192.46,115.16s.02.09-.03.13c-.05.03-.12.02-.14-.03-.03-.05-.02-.1.03-.13.04-.03.11-.02.14.04Z"/><path class="cls-6" d="M191.16,117.23s-.02.09-.05.12c-.04.04-.09.02-.12-.02-.03-.05-.02-.1.02-.13.03-.02.08,0,.13,0l.02.03Z"/><path class="cls-6" d="M192.64,116.64c.02-.06.02-.11.04-.13,0-.01.07,0,.09.03.03.04.02.08-.03.11-.02,0-.05,0-.11,0Z"/><path class="cls-6" d="M191.93,117.4c-.05-.02-.09-.03-.1-.05-.01-.02,0-.06.01-.09.03,0,.07,0,.09.02.01.02,0,.06,0,.11Z"/><path class="cls-6" d="M191.34,116.64s.09.02.1.04c.01.02,0,.05,0,.08-.03,0-.07,0-.09-.02-.01-.01,0-.05,0-.11Z"/><path class="cls-6" d="M190.09,115.47c.05.02.09.03.1.04,0,.02,0,.06-.02.08-.01.01-.06,0-.07-.02-.01-.02,0-.05,0-.11Z"/><path class="cls-6" d="M191.38,115.58s.03-.09.05-.09c.02,0,.05,0,.08.01,0,.03,0,.07-.02.08-.02.01-.05,0-.11,0Z"/><path class="cls-6" d="M191.75,115.2s.02-.08.04-.09c.02,0,.06,0,.07.01.01.02,0,.06-.01.07-.01.01-.05,0-.09,0Z"/><path class="cls-6" d="M191.4,117.73s.02-.08.04-.09c.02,0,.06,0,.07.01,0,.02,0,.06,0,.08-.01.01-.05,0-.1,0Z"/><path class="cls-6" d="M191.03,117.5s-.02.08-.04.09c-.02,0-.05,0-.08-.01,0-.03,0-.06.02-.07.01-.01.05,0,.1,0Z"/><path class="cls-6" d="M193.45,115.14s.02-.07.03-.07c.02,0,.05,0,.07.01,0,.02,0,.06-.02.07-.01,0-.04,0-.08-.01Z"/><path class="cls-6" d="M194.32,115.94s-.07-.02-.08-.04c0-.02.01-.05.02-.07.02,0,.05.01.06.03,0,.02,0,.05,0,.09Z"/><path class="cls-6" d="M191.63,116.81s.07.01.07.03c0,.02,0,.05,0,.07-.02,0-.05,0-.07-.02-.01-.01,0-.04,0-.08Z"/><path class="cls-6" d="M192.18,116.65s.06.01.07.03c0,0,0,.05-.01.05-.02,0-.05,0-.06-.01,0,0,0-.04,0-.07Z"/><path class="cls-6" d="M197,116.47c0,.09-.07.15-.13.14-.07,0-.12-.06-.12-.13,0-.07.06-.13.13-.13.01,0,.02,0,.03,0,.1,0,.1,0,.09.11Z"/><path class="cls-6" d="M195.23,115.58c.06,0,.11.06.1.12,0,.07-.06.11-.12.11-.06,0-.11-.06-.1-.12,0-.06.06-.11.12-.1Z"/><path class="cls-6" d="M195.63,116.89c.05,0,.08.04.08.1,0,.06-.05.1-.11.09-.05,0-.09-.05-.09-.11,0-.06.05-.09.12-.09Z"/><path class="cls-6" d="M196,117.49c-.05,0-.09-.05-.08-.1,0-.05.05-.09.11-.08.06,0,.1.05.09.1,0,.05-.06.09-.11.08Z"/><path class="cls-6" d="M196.29,116.14c.05,0,.09.05.09.1,0,.05-.05.09-.1.09-.05,0-.09-.05-.09-.1,0-.05.05-.09.1-.09Z"/><path class="cls-6" d="M197.21,117.33s.08.05.08.1c0,.05-.05.08-.1.08-.05,0-.09-.05-.08-.1,0-.05.05-.09.1-.08Z"/><path class="cls-6" d="M194.73,115.95s.05-.08.1-.08c.05,0,.09.05.08.1,0,.05-.05.08-.1.08-.05,0-.09-.05-.08-.1Z"/><path class="cls-6" d="M196.7,117.52s-.08-.04-.07-.09c0-.04.05-.08.09-.07.04,0,.07.04.07.09,0,.05-.05.08-.09.07Z"/><path class="cls-6" d="M195.49,115.22s.03,0,.04,0c.04,0,.06.04.05.08,0,.04-.04.05-.08.05-.02,0-.04-.01-.06-.02-.04,0-.06-.03-.05-.07,0-.04.04-.05.07-.05,0,0,.02,0,.03,0h0Z"/><path class="cls-6" d="M195.18,117.37s-.08-.04-.08-.08c0-.04.05-.08.09-.07.04,0,.08.05.07.09,0,.04-.04.07-.09.07Z"/><path class="cls-6" d="M196.94,115.18s.04-.08.08-.08c.04,0,.07.04.07.08,0,.04-.07.1-.11.09-.03,0-.04-.03-.04-.09Z"/><path class="cls-6" d="M197.28,115.7s-.07-.05-.07-.09c0-.05.04-.07.09-.07.05,0,.08.04.07.09,0,.04-.04.08-.09.07Z"/><path class="cls-6" d="M196.32,114.85s.07.05.07.09c0,.04-.04.07-.09.06-.04,0-.07-.05-.07-.09,0-.04.05-.07.09-.07Z"/><path class="cls-6" d="M195.68,115.79s.04-.07.08-.07c.04,0,.07.05.07.09,0,.04-.04.07-.09.07-.04,0-.07-.04-.07-.09Z"/><path class="cls-6" d="M196.7,115.87s-.03.06-.08.05c-.04,0-.07-.04-.06-.08,0-.04.04-.06.08-.06.04,0,.07.04.06.09Z"/><path class="cls-6" d="M195.05,116.43s-.05.04-.08.04c-.04,0-.06-.03-.06-.07,0-.04.03-.07.07-.06.03,0,.05.04.07.06v.03Z"/><path class="cls-6" d="M196.13,116.77s.06-.05.08-.05c0,0,.04.04.04.05,0,.03-.03.06-.06.05-.02,0-.03-.02-.06-.05Z"/><path class="cls-6" d="M195.39,116.87s-.04-.06-.04-.07c0-.02.03-.03.05-.04.01.02.04.03.04.05,0,.02-.02.03-.05.06Z"/><path class="cls-6" d="M195.41,116.19s.04.05.03.07c0,.02-.03.03-.04.04-.01-.02-.04-.03-.04-.05,0-.01.02-.03.05-.06Z"/><path class="cls-6" d="M195.25,114.98s.04.06.03.07c0,.02-.03.03-.05.04-.01,0-.03-.03-.03-.04,0-.02.02-.03.05-.06Z"/><path class="cls-6" d="M195.91,115.62s.05-.04.07-.03c.02,0,.03.03.04.04-.02.01-.03.03-.05.03-.01,0-.03-.02-.06-.05Z"/><path class="cls-6" d="M196.29,115.58s.05-.03.06-.03c.01,0,.03.03.03.04,0,.01-.02.03-.04.03-.01,0-.03-.02-.05-.04Z"/><path class="cls-6" d="M194.95,116.81s.05-.03.06-.03c.01,0,.03.03.03.04,0,.02-.02.04-.04.04-.01,0-.03-.02-.05-.04Z"/><path class="cls-6" d="M194.85,116.51s-.05.03-.06.03c-.01,0-.03-.03-.04-.04.01-.01.03-.03.04-.03.01,0,.03.02.05.04Z"/><path class="cls-6" d="M197.25,116.31s.04-.03.05-.03c.01,0,.02.03.03.04-.02.01-.03.03-.05.03-.01,0-.02-.02-.04-.04Z"/><path class="cls-6" d="M197.37,117.14s-.03-.05-.02-.06c0-.01.03-.02.04-.03,0,.01.03.03.02.04,0,.01-.02.02-.04.04Z"/><path class="cls-6" d="M195.49,116.41s.03.04.03.05c0,.01-.02.02-.03.04,0-.01-.03-.03-.03-.04,0-.01.02-.02.03-.04Z"/><path class="cls-6" d="M195.87,116.57s.03.04.03.05c0,0-.02.03-.03.02-.01,0-.03-.02-.03-.03,0,0,.02-.02.03-.04Z"/><path class="cls-6" d="M199.62,113.29c.04.16-.08.27-.18.29-.12.01-.23-.06-.25-.18-.02-.12.06-.24.18-.26.02,0,.04,0,.06,0,.17-.03.18-.02.19.16Z"/><path class="cls-6" d="M196.28,112.3c.11-.01.2.07.22.18.01.12-.07.21-.18.22-.11,0-.2-.08-.21-.18-.01-.11.07-.21.18-.22Z"/><path class="cls-6" d="M197.38,114.43c.09,0,.15.05.16.15.01.1-.06.19-.16.2-.09,0-.18-.06-.18-.16,0-.1.07-.18.18-.19Z"/><path class="cls-6" d="M198.21,115.36c-.09,0-.17-.06-.18-.15,0-.09.06-.17.16-.17.1,0,.18.06.19.15,0,.09-.07.17-.17.17Z"/><path class="cls-6" d="M198.29,112.93c.09,0,.17.06.18.15,0,.09-.06.17-.15.18-.09,0-.17-.06-.18-.15,0-.09.06-.17.15-.18Z"/><path class="cls-6" d="M200.25,114.72c.09,0,.16.07.16.15,0,.08-.06.16-.15.16-.09,0-.16-.06-.17-.15,0-.09.06-.16.15-.17Z"/><path class="cls-6" d="M195.53,113.1c0-.09.06-.16.14-.16.09,0,.16.06.17.15,0,.09-.06.16-.14.16-.09,0-.16-.06-.17-.15Z"/><path class="cls-6" d="M199.42,115.2c-.08,0-.15-.05-.15-.13,0-.08.06-.15.14-.16.08,0,.14.05.15.13,0,.08-.05.15-.14.15Z"/><path class="cls-6" d="M196.62,111.6s.05,0,.07,0c.07,0,.11.04.11.11,0,.07-.05.11-.12.11-.04,0-.07-.01-.11-.01-.07,0-.11-.03-.11-.1,0-.07.04-.1.11-.1.02,0,.03,0,.05,0h0Z"/><path class="cls-6" d="M196.75,115.41c-.08,0-.15-.05-.16-.12,0-.08.06-.15.14-.16.07,0,.15.06.15.13,0,.08-.05.14-.13.15Z"/><path class="cls-6" d="M199.11,111.08c0-.09.04-.15.11-.16.07,0,.14.05.15.12,0,.07-.09.19-.16.19-.06,0-.09-.04-.1-.15Z"/><path class="cls-6" d="M199.86,111.88c-.08,0-.14-.06-.14-.14,0-.08.05-.13.13-.14.08,0,.14.05.15.13,0,.08-.05.14-.13.15Z"/><path class="cls-6" d="M197.93,110.71c.07,0,.14.06.14.14,0,.08-.05.14-.13.14-.08,0-.14-.06-.15-.14,0-.07.06-.14.13-.14Z"/><path class="cls-6" d="M197.12,112.53c0-.07.05-.14.12-.15.07,0,.14.06.15.13,0,.07-.06.14-.13.14-.07,0-.14-.06-.14-.13Z"/><path class="cls-6" d="M198.9,112.35c0,.06-.04.11-.11.12-.07,0-.14-.05-.14-.12,0-.07.04-.12.11-.13.07,0,.13.05.14.13Z"/><path class="cls-6" d="M196.23,113.83s-.08.09-.12.1c-.07.02-.11-.03-.12-.1,0-.07.04-.13.1-.12.05,0,.09.05.14.08v.05Z"/><path class="cls-6" d="M198.2,114.08c.06-.06.09-.1.13-.12.02,0,.08.05.08.08.01.06-.03.1-.09.1-.03,0-.06-.03-.12-.06Z"/><path class="cls-6" d="M196.96,114.47c-.04-.05-.09-.09-.08-.11,0-.03.04-.06.07-.09.03.03.08.05.08.08,0,.03-.03.07-.07.13Z"/><path class="cls-6" d="M196.78,113.29c.04.05.08.08.08.11,0,.03-.04.06-.06.08-.03-.02-.07-.04-.08-.07,0-.02.03-.06.06-.11Z"/><path class="cls-6" d="M196.13,111.25c.04.05.08.08.08.11,0,.03-.04.07-.07.08-.02,0-.07-.04-.07-.06,0-.03.03-.06.06-.12Z"/><path class="cls-6" d="M197.47,112.16c.05-.04.08-.08.11-.08.03,0,.05.04.08.07-.02.03-.04.07-.07.07-.03,0-.06-.03-.12-.07Z"/><path class="cls-6" d="M198.11,111.97s.07-.07.09-.07c.03,0,.07.04.07.06,0,.02-.03.06-.06.07-.02,0-.05-.03-.11-.05Z"/><path class="cls-6" d="M196.18,114.52s.07-.07.1-.07c.02,0,.07.04.07.05,0,.03-.03.07-.06.08-.02,0-.05-.03-.11-.06Z"/><path class="cls-6" d="M195.91,114.03s-.07.07-.1.07c-.03,0-.05-.04-.08-.06.02-.02.04-.06.07-.07.02,0,.06.03.11.06Z"/><path class="cls-6" d="M200,112.94s.06-.07.08-.06c.03,0,.05.04.07.06-.02.02-.04.06-.07.06-.02,0-.05-.03-.08-.06Z"/><path class="cls-6" d="M200.46,114.34s-.06-.07-.06-.09c0-.03.04-.05.07-.07.02.02.05.05.05.07,0,.02-.03.05-.06.09Z"/><path class="cls-6" d="M197,113.65s.06.06.06.07c0,.03-.03.05-.05.07-.02-.02-.05-.04-.06-.06,0-.02.02-.04.05-.08Z"/><path class="cls-6" d="M197.69,113.81s.06.05.06.08c0,.01-.03.05-.04.05-.02,0-.05-.03-.06-.05,0-.01.02-.04.04-.08Z"/><path class="cls-6" d="M202.77,114.33c.02.08-.03.14-.08.15-.06,0-.12-.03-.13-.08-.01-.06.02-.12.08-.13,0,0,.02,0,.03,0,.08-.02.09-.01.1.07Z"/><path class="cls-6" d="M201.1,113.92c.05,0,.1.03.11.08,0,.06-.03.11-.08.11-.05,0-.1-.03-.11-.09,0-.05.03-.1.08-.11Z"/><path class="cls-6" d="M201.69,114.94s.07.02.08.07c0,.05-.02.09-.07.1-.05,0-.09-.03-.09-.07,0-.05.03-.09.08-.1Z"/><path class="cls-6" d="M202.12,115.38s-.09-.03-.09-.07c0-.04.03-.08.07-.09.05,0,.09.03.1.07,0,.05-.03.08-.08.09Z"/><path class="cls-6" d="M202.1,114.18s.09.03.09.07c0,.04-.02.09-.07.09-.05,0-.09-.02-.09-.07,0-.05.02-.09.07-.09Z"/><path class="cls-6" d="M203.11,115.01s.08.03.08.07c0,.04-.03.08-.07.08-.04,0-.08-.02-.09-.07,0-.04.03-.08.07-.09Z"/><path class="cls-6" d="M200.75,114.33s.02-.08.07-.08c.04,0,.08.03.09.07,0,.04-.03.08-.07.08-.04,0-.08-.03-.09-.07Z"/><path class="cls-6" d="M202.71,115.27s-.07-.02-.08-.06c0-.04.03-.08.07-.08.04,0,.07.02.08.06,0,.04-.02.07-.06.08Z"/><path class="cls-6" d="M201.25,113.56s.02,0,.03,0c.04,0,.06.02.06.05,0,.04-.02.05-.06.06-.02,0-.04,0-.05,0-.03,0-.06-.01-.06-.05,0-.03.02-.05.05-.05,0,0,.02,0,.02,0h0Z"/><path class="cls-6" d="M201.41,115.44s-.07-.02-.08-.06c0-.04.03-.08.06-.08.04,0,.07.02.08.06,0,.04-.02.07-.06.08Z"/><path class="cls-6" d="M202.46,113.25s.01-.08.05-.08c.03,0,.07.02.08.06,0,.04-.04.09-.07.1-.03,0-.04-.02-.05-.07Z"/><path class="cls-6" d="M202.85,113.62s-.07-.02-.07-.06c0-.04.02-.07.06-.07.04,0,.07.02.08.06,0,.04-.02.07-.06.08Z"/><path class="cls-6" d="M201.87,113.09s.07.03.07.07c0,.04-.02.07-.06.07-.04,0-.07-.03-.07-.06,0-.04.03-.07.06-.07Z"/><path class="cls-6" d="M201.52,114.01s.02-.07.06-.08c.04,0,.07.02.08.06,0,.04-.02.07-.06.07-.04,0-.07-.02-.07-.06Z"/><path class="cls-6" d="M202.39,113.88s-.02.06-.05.06c-.03,0-.07-.02-.07-.06,0-.04.02-.06.05-.07.03,0,.07.02.07.06Z"/><path class="cls-6" d="M201.11,114.67s-.04.04-.06.05c-.03.01-.06-.01-.06-.05,0-.03.01-.06.05-.06.02,0,.05.02.07.03v.02Z"/><path class="cls-6" d="M202.09,114.74s.04-.05.06-.06c0,0,.04.02.04.04,0,.03-.01.05-.04.05-.01,0-.03-.01-.06-.03Z"/><path class="cls-6" d="M201.48,114.97s-.04-.04-.04-.05c0-.02.02-.03.03-.05.01.01.04.02.04.04,0,.01-.01.03-.03.06Z"/><path class="cls-6" d="M201.37,114.39s.04.04.04.05c0,.01-.02.03-.03.04-.01-.01-.04-.02-.04-.03,0-.01.01-.03.03-.06Z"/><path class="cls-6" d="M201,113.4s.04.04.04.05c0,.01-.02.03-.03.04,0,0-.03-.02-.04-.03,0-.01.01-.03.03-.06Z"/><path class="cls-6" d="M201.68,113.82s.04-.04.05-.04c.01,0,.03.02.04.03-.01.01-.02.04-.03.04-.01,0-.03-.01-.06-.03Z"/><path class="cls-6" d="M201.99,113.71s.03-.04.04-.04c.01,0,.03.02.04.03,0,.01-.01.03-.03.04-.01,0-.03-.01-.05-.02Z"/><path class="cls-6" d="M201.1,115.01s.03-.04.05-.04c.01,0,.03.02.03.02,0,.01-.01.03-.03.04-.01,0-.03-.01-.05-.03Z"/><path class="cls-6" d="M200.96,114.78s-.03.04-.05.04c-.01,0-.03-.02-.04-.03.01-.01.02-.03.03-.04.01,0,.03.01.05.02Z"/><path class="cls-6" d="M202.94,114.14s.03-.03.04-.03c.01,0,.02.02.04.03-.01.01-.02.03-.03.03,0,0-.02-.01-.04-.03Z"/><path class="cls-6" d="M203.2,114.82s-.03-.03-.03-.04c0-.01.02-.02.03-.04.01.01.03.02.03.03,0,.01-.01.02-.03.05Z"/><path class="cls-6" d="M201.48,114.57s.03.03.03.03c0,.01-.01.02-.02.04-.01,0-.03-.02-.03-.03,0,0,.01-.02.02-.04Z"/><path class="cls-6" d="M201.83,114.63s.03.02.03.04c0,0-.01.03-.02.03-.01,0-.03-.01-.03-.02,0,0,0-.02.02-.04Z"/><g class="cls-7"><circle class="cls-3" cx="215.38" cy="122.63" r="6.67"/><circle class="cls-12" cx="214.5" cy="122.65" r="5.1"/><path class="cls-3" d="M214.2,106.23l9.64-5.94c.61-.37.48-1.29-.21-1.48l-10.92-2.99c-.57-.16-1.11.32-1.02.9l1.28,8.94c.08.58.73.89,1.23.58Z"/><path class="cls-10" d="M212.98,94.69h0c.48,0,.87.39.87.87v21.47h-1.74v-21.47c0-.48.39-.87.87-.87Z" transform="translate(-12.87 31.3) rotate(-8.16)"/><path class="cls-3" d="M213.2,114.26h2.41c.47,0,.85.38.85.85v2.26h-4.11v-2.26c0-.47.38-.85.85-.85Z" transform="translate(-14.27 31.61) rotate(-8.16)"/></g></g></g></svg>