<?xml version="1.0" encoding="UTF-8"?>
<svg xmlns="http://www.w3.org/2000/svg" width="300" height="300" xmlns:xlink="http://www.w3.org/1999/xlink" viewBox="0 0 300 300">
  <defs>
    <filter id="f" data-name="drop-shadow-1" x="117.081" y="104.378" width="30.045" height="31.109" filterUnits="userSpaceOnUse">
      <feOffset dx="-2" dy="0"/>
      <feGaussianBlur result="g" stdDeviation="0"/>
      <feFlood flood-color="#42496f" flood-opacity="1"/>
      <feComposite in2="g" operator="in"/>
      <feComposite in="SourceGraphic"/>
    </filter>
    <clipPath id="h">
      <path d="M122.072,130.594s22.711-1.044,25.054-1.304c-.833,2.046-3.556,4.633-8.051,5.413,0,0-13.583-1.331-15.591-1.543-1.272-.856-1.412-2.566-1.412-2.566Z" fill="none"/>
    </clipPath>
    <clipPath id="i">
      <path d="M235.761,119.262c-3.954,3.796-8.698.633-8.698.633-4.423,2.512-8.392,1.781-10.426,1.088-.176.189-.425.308-.703.308-.481,0-.876-.353-.95-.813-8.108,4.134-9.588-1.374-9.588-1.374-6.563,5.456-14.233,3.796-14.233,3.796l-.474-29.778h52.506v28.038c-3.796,0-7.433-1.898-7.433-1.898Z" fill="none"/>
    </clipPath>
  </defs>
  <g isolation="isolate">
    <g id="e" data-name="Calque 8">
      <g>
        <g>
          <g>
            <path d="M106.482,202.909c15.059-.735,26.976,1.88,38.98,1.322,17.36-.806,30.945-7.502,27.045-17.008-8.922-21.748-88.242-14.968-73.747-54.927,4.51-12.432,22.979-17.725,43.856-4.045" fill="none" stroke="#f4af13" stroke-linecap="round" stroke-linejoin="round" stroke-width="3"/>
            <circle cx="143.116" cy="129.177" r="5.025" fill="#f4af13"/>
          </g>
          <g>
            <g filter="url(#f)">
              <path d="M130.493,107.676s13.015,14.314,16.152,20.963c-4.53-1.325-11.183-1.015-13.656-.319l-2.497-20.644Z" fill="#e86170"/>
              <path d="M130.75,108.753s4.945,15.212,7.114,17.416c0,0-3.984,1.162-4.873,2.151l-2.24-19.568Z" fill="#6498d1" mix-blend-mode="multiply" opacity=".25"/>
              <path d="M130.426,108.663s-7.323,16.867-10.441,20.001l12.517-.922-2.076-19.079Z" fill="#e86170"/>
              <path d="M130.594,109.4s-1.835,15.677-7.433,18.888l9.313-.631-1.88-18.258Z" fill="#6498d1" mix-blend-mode="multiply" opacity=".25"/>
              <polygon points="130.008 105.311 130.364 105.27 133.672 130.261 132.49 130.397 130.008 105.311" fill="#fff"/>
              <path d="M122.072,130.594s22.711-1.044,25.054-1.304c-.833,2.046-3.556,4.633-8.051,5.413,0,0-13.583-1.331-15.591-1.543-1.272-.856-1.412-2.566-1.412-2.566Z" fill="#fff"/>
              <g clip-path="url(#h)">
                <path d="M139.393,135.487s3.309-.688,5.728-4.204c.204-.297-.012-.704-.372-.697-3.545.074-17.705.29-21.691.43-.373.013-.652.355-.577.721.135.657.487,1.606,1.412,2.045l15.5,1.704Z" fill="#6498d1" mix-blend-mode="multiply" opacity=".25"/>
              </g>
              <polygon points="119.168 128.986 132.471 128.188 132.474 127.658 119.081 128.644 119.168 128.986" fill="#fff"/>
              <path d="M130.671,105.091c.732-.544,1.783-1.13,2.834-.299,3.339,2.641,2.923-.076,5.363.321-1.6.253-1.828,2.693-4.53,2.595-1.67-.061-1.641-1.03-3.374.029l-.292-2.645Z" fill="#e86170"/>
            </g>
            <path d="M146.054,134.644c-.371-.339-1.051-.642-1.713-.695-1.191-.096-1.549.141-1.549.141-1.507-1.013-4.492-3.104-7.073-2.267s6.445,4.833,6.965,4.473-2.622-1.892-1.97-1.918c.698-.028,1.798.138,2.428.33.884-.265,3.791.738,2.913-.064Z" fill="#a7caec"/>
            <g>
              <path d="M134.753,132.707c.001-.098.091-.146.151-.135.071.012.123.075.115.145-.008.074-.073.126-.148.118-.012-.001-.024-.004-.036-.006-.101-.013-.106-.021-.083-.122Z" fill="#fff"/>
              <path d="M136.517,133.841c-.065-.012-.107-.074-.096-.139.012-.069.075-.112.142-.098.064.014.106.078.093.142-.012.064-.076.108-.14.095Z" fill="#fff"/>
              <path d="M136.238,132.423c-.054-.011-.079-.052-.068-.114.01-.06.065-.099.123-.088.056.011.091.065.079.122-.012.06-.068.093-.134.08Z" fill="#fff"/>
              <path d="M135.914,131.75c.055.012.089.064.077.118-.012.053-.066.086-.12.074-.059-.013-.096-.066-.084-.12.012-.054.068-.085.127-.072Z" fill="#fff"/>
              <path d="M135.463,133.139c-.054-.011-.09-.063-.081-.117.01-.054.063-.09.117-.079.055.011.09.062.08.117-.01.055-.061.09-.116.079Z" fill="#fff"/>
              <path d="M134.627,131.779c-.051-.012-.083-.065-.069-.117.013-.049.062-.08.112-.07.053.011.085.061.073.114-.012.052-.063.084-.115.072Z" fill="#fff"/>
              <path d="M137.084,133.503c-.012.05-.059.08-.11.07-.053-.011-.085-.061-.072-.114.012-.05.061-.081.111-.07.053.011.084.061.072.115Z" fill="#fff"/>
              <path d="M135.188,131.637c.048.011.077.055.065.099-.012.046-.062.076-.108.066-.047-.011-.074-.054-.063-.101.011-.049.056-.076.106-.065Z" fill="#fff"/>
              <path d="M136.205,134.189c-.014-.003-.028-.004-.041-.009-.04-.014-.058-.044-.045-.085.013-.042.046-.053.086-.042.021.006.04.019.061.025.038.012.06.035.049.076-.011.041-.042.049-.081.04-.01-.002-.02-.004-.029-.006v.002Z" fill="#fff"/>
              <path d="M136.765,131.962c.047.009.078.053.07.097-.009.045-.06.077-.106.068-.043-.009-.075-.057-.065-.1.01-.044.055-.073.101-.064Z" fill="#fff"/>
              <path d="M134.677,134.073c-.009.052-.046.083-.091.076-.042-.006-.073-.05-.066-.094.007-.044.082-.094.125-.085.034.008.043.037.032.103Z" fill="#fff"/>
              <path d="M134.376,133.485c.045.011.073.057.06.103-.014.048-.048.069-.097.06-.047-.008-.075-.053-.064-.1.011-.047.055-.074.101-.063Z" fill="#fff"/>
              <path d="M135.296,134.486c-.043-.011-.071-.06-.06-.105.012-.046.053-.07.097-.058.045.012.073.059.061.103-.011.042-.058.07-.099.06Z" fill="#fff"/>
              <path d="M136.07,133.566c-.009.043-.053.072-.096.064-.045-.008-.074-.056-.063-.101.011-.043.055-.071.097-.061.042.01.07.055.061.098Z" fill="#fff"/>
              <path d="M135.009,133.374c.013-.036.041-.058.086-.049.041.007.07.053.059.091-.013.043-.044.062-.088.055-.04-.006-.068-.052-.057-.097Z" fill="#fff"/>
              <path d="M136.804,132.966c.029-.013.059-.037.088-.037.043,0,.06.038.053.079-.008.042-.042.067-.08.054-.027-.009-.045-.044-.067-.068l.006-.028Z" fill="#fff"/>
              <path d="M135.707,132.493c-.043.024-.067.046-.093.048-.01.001-.036-.041-.035-.062.003-.037.034-.056.071-.042.017.006.028.026.057.055Z" fill="#fff"/>
              <path d="M136.492,132.471c.016.039.035.064.03.08-.006.018-.035.027-.054.04-.013-.02-.036-.04-.034-.058.002-.017.029-.033.059-.062Z" fill="#fff"/>
              <path d="M136.396,133.184c-.015-.036-.033-.058-.028-.074.005-.016.032-.026.049-.038.013.019.035.038.035.057,0,.014-.028.029-.056.055Z" fill="#fff"/>
              <path d="M136.432,134.472c-.015-.038-.034-.062-.028-.077.006-.016.034-.032.053-.032.011,0,.032.033.03.048-.003.017-.026.031-.055.061Z" fill="#fff"/>
              <path d="M135.808,133.723c-.037.014-.06.031-.075.026-.016-.006-.024-.033-.035-.051.018-.011.037-.033.054-.031.016.001.029.028.056.057Z" fill="#fff"/>
              <path d="M135.408,133.727c-.032.014-.053.032-.066.027-.014-.005-.033-.032-.03-.045.003-.014.03-.032.045-.031.014,0,.027.024.052.049Z" fill="#fff"/>
              <path d="M136.947,132.576c-.033.014-.052.029-.067.026-.013-.003-.033-.032-.029-.042.006-.016.029-.035.045-.035.013,0,.027.025.052.051Z" fill="#fff"/>
              <path d="M137.021,132.899c.033-.013.055-.03.068-.025.015.005.023.03.035.046-.017.011-.034.03-.05.029-.015-.001-.028-.025-.053-.05Z" fill="#fff"/>
              <path d="M134.477,132.849c-.026.011-.047.027-.057.022-.015-.008-.021-.03-.032-.047.017-.009.035-.026.051-.025.011,0,.021.026.038.05Z" fill="#fff"/>
              <path d="M134.444,131.965c.01.029.025.051.019.062-.008.014-.032.019-.049.029-.007-.016-.023-.035-.02-.049.003-.014.026-.023.05-.041Z" fill="#fff"/>
              <path d="M136.331,132.938c-.012-.025-.028-.043-.024-.053.006-.014.026-.023.04-.034.009.015.024.031.024.046,0,.011-.021.022-.041.041Z" fill="#fff"/>
              <path d="M135.955,132.728c-.011-.025-.024-.04-.023-.054,0-.009.028-.025.034-.021.013.007.025.024.026.039,0,.009-.019.019-.037.037Z" fill="#fff"/>
            </g>
            <path d="M139.822,134.579s-1.914-.038-3.754-.456-2.693-1.061-3.717-1.107.885.912.885.912c0,0-1.739-.467-2.563-.271-.643.153.535.627.535.627,0,0-2.576-.499-3.487-.388s-2.513.199-3.827-.114.563.632,1.706.736,1.796-.211,3.284.102,3.896.219,3.947.025-1.501-.41-.949-.438c.31-.015.731.061,1.789.247,2.002.351,5.372.864,6.152.125Z" fill="#a7caec"/>
            <path d="M131.217,133.913s-.633-.117-2.238-.24-1.932-.349-3.002-.407-4.467-.237-5.822-.315-2.423-.259-2.748-.275c-1.641-.081,2.064.454,3.042.505s1.68-.034,2.579.036,3.11.385,4.135.425,2.861.574,3.136.63c1.229.251,1.892-.224.918-.36Z" fill="#a7caec"/>
            <g>
              <g>
                <path d="M132.09,132.939c.068.079.029.18-.026.214-.066.04-.151.026-.194-.035-.045-.065-.03-.152.035-.198.01-.007.022-.013.033-.02.09-.06.1-.058.152.039Z" fill="#a7caec"/>
                <path d="M129.885,133.272c.06-.035.137-.016.175.044.039.063.019.142-.045.178-.06.034-.139.012-.174-.048-.035-.06-.015-.139.045-.174Z" fill="#a7caec"/>
                <path d="M131.103,134.208c.051-.029.1-.014.135.044.034.055.017.125-.036.156-.052.03-.119.012-.149-.042-.032-.056-.011-.122.051-.158Z" fill="#a7caec"/>
                <path d="M131.834,134.519c-.053.029-.116.012-.144-.04-.028-.051-.008-.115.044-.144.056-.031.123-.015.151.037.028.052.006.116-.051.147Z" fill="#a7caec"/>
                <path d="M131.22,133.092c.051-.029.117-.013.146.037.03.05.013.116-.038.145-.052.03-.115.014-.146-.037-.031-.051-.015-.115.037-.145Z" fill="#a7caec"/>
                <path d="M132.842,133.593c.049-.026.112-.006.137.045.024.048.007.107-.04.134-.05.028-.11.011-.138-.04-.027-.05-.009-.111.041-.138Z" fill="#a7caec"/>
                <path d="M129.67,133.94c-.026-.049-.009-.106.039-.133.05-.028.111-.01.138.041.025.049.008.107-.039.134-.05.028-.11.01-.138-.041Z" fill="#a7caec"/>
                <path d="M132.493,134.1c-.046.025-.1.01-.122-.034-.022-.045-.004-.105.04-.128.045-.024.097-.009.121.036.025.046.009.1-.039.126Z" fill="#a7caec"/>
                <path d="M129.89,132.775c.013-.007.025-.016.039-.021.042-.017.077-.006.095.036.019.042,0,.075-.039.094-.021.01-.045.013-.066.023-.039.017-.072.013-.092-.026-.02-.04,0-.069.036-.088.009-.005.019-.01.028-.015v-.002Z" fill="#a7caec"/>
                <path d="M131.005,134.947c-.043.026-.099.013-.123-.028-.024-.042-.007-.104.037-.128.041-.024.1-.007.122.035.023.043.007.097-.036.122Z" fill="#a7caec"/>
                <path d="M131.192,131.795c-.029-.048-.021-.099.019-.125.038-.025.093-.011.118.029.025.04.001.133-.04.155-.033.018-.061,0-.098-.06Z" fill="#a7caec"/>
                <path d="M131.845,132.054c-.044.023-.099.006-.12-.04-.022-.048-.01-.089.035-.116.043-.027.097-.01.121.035.024.045.008.098-.036.122Z" fill="#a7caec"/>
                <path d="M130.408,131.9c.043-.021.099-.002.122.042.023.045.007.093-.037.115-.045.022-.099.004-.121-.04-.021-.042-.003-.097.037-.117Z" fill="#a7caec"/>
                <path d="M130.436,133.178c-.023-.041-.008-.095.031-.118.041-.025.098-.007.121.037.022.042.006.095-.035.117-.04.021-.094.005-.117-.035Z" fill="#a7caec"/>
                <path d="M131.417,132.586c.015.038.007.075-.034.1-.038.023-.093.007-.111-.032-.02-.043-.008-.08.031-.106.037-.023.09-.006.113.037Z" fill="#a7caec"/>
                <path d="M130.269,134.172c-.014.031-.021.071-.044.091-.035.03-.075.012-.098-.026-.023-.039-.014-.083.026-.099.028-.012.067.004.101.007l.015.027Z" fill="#a7caec"/>
                <path d="M131.478,133.78c.018-.05.022-.084.041-.104.008-.008.058.007.071.025.023.031.012.068-.028.083-.018.007-.041-.001-.084-.004Z" fill="#a7caec"/>
                <path d="M130.867,134.349c-.04-.02-.073-.026-.08-.043-.008-.018.009-.047.015-.07.024.007.057.007.068.023.011.015,0,.047-.004.091Z" fill="#a7caec"/>
                <path d="M130.443,133.712c.037.018.067.024.074.04.007.017-.007.043-.012.065-.024-.006-.054-.006-.068-.021-.01-.011.002-.043.006-.084Z" fill="#a7caec"/>
                <path d="M129.509,132.708c.039.02.071.026.076.041.006.017-.005.05-.02.063-.009.008-.049-.003-.057-.017-.01-.016,0-.043.001-.087Z" fill="#a7caec"/>
                <path d="M130.535,132.869c.02-.037.026-.067.042-.073.017-.006.042.01.064.016-.007.022-.007.052-.022.063-.013.01-.042-.002-.085-.006Z" fill="#a7caec"/>
                <path d="M130.851,132.584c.016-.034.02-.062.034-.068.015-.007.049.002.056.015.007.013-.001.046-.014.056-.012.009-.039,0-.076-.003Z" fill="#a7caec"/>
                <path d="M130.429,134.585c.016-.034.021-.06.036-.068.013-.007.049.003.053.013.006.017.001.048-.011.06-.011.009-.039-.001-.077-.004Z" fill="#a7caec"/>
                <path d="M130.144,134.378c-.017.034-.023.062-.037.068-.016.006-.04-.008-.06-.013.006-.02.006-.048.019-.058.012-.009.039,0,.078.003Z" fill="#a7caec"/>
                <path d="M132.211,132.632c.013-.027.019-.055.03-.058.017-.004.039.009.058.015-.007.019-.01.045-.023.056-.009.007-.035-.006-.065-.013Z" fill="#a7caec"/>
                <path d="M132.857,133.316c-.028-.016-.056-.023-.058-.036-.004-.017.012-.038.019-.057.017.008.043.012.05.025.007.013-.005.036-.011.068Z" fill="#a7caec"/>
                <path d="M130.667,133.863c.027.012.053.015.056.026.006.016-.005.037-.008.056-.018-.006-.041-.008-.052-.02-.008-.009.001-.032.004-.061Z" fill="#a7caec"/>
                <path d="M131.115,133.766c.026.012.047.015.056.027.005.007-.005.039-.012.041-.015.003-.037-.002-.048-.012-.007-.006.002-.029.004-.056Z" fill="#a7caec"/>
              </g>
              <g>
                <path d="M134.971,133.887c.002.074-.065.113-.111.106-.054-.007-.095-.054-.091-.107.004-.056.052-.097.109-.094.009,0,.018.003.027.004.077.007.081.013.066.09Z" fill="#a7caec"/>
                <path d="M133.606,133.076c.049.008.083.053.076.103-.007.052-.054.087-.105.078-.048-.009-.082-.056-.074-.105.007-.049.055-.083.103-.076Z" fill="#a7caec"/>
                <path d="M133.855,134.141c.041.007.061.037.055.085-.006.046-.047.077-.091.07-.042-.007-.071-.047-.063-.09.008-.045.049-.072.099-.064Z" fill="#a7caec"/>
                <path d="M134.118,134.642c-.042-.008-.069-.046-.061-.087.008-.041.047-.067.089-.06.045.008.074.048.067.089-.008.041-.049.066-.094.058Z" fill="#a7caec"/>
                <path d="M134.422,133.579c.041.007.07.045.064.086-.006.041-.045.07-.086.063-.042-.007-.07-.044-.064-.086.006-.042.044-.07.086-.063Z" fill="#a7caec"/>
                <path d="M135.09,134.586c.039.008.064.047.056.086-.008.038-.045.062-.083.056-.04-.007-.066-.044-.058-.084.008-.04.045-.065.085-.058Z" fill="#a7caec"/>
                <path d="M133.186,133.347c.008-.038.043-.062.082-.056.041.007.066.044.057.084-.008.038-.044.063-.082.056-.04-.007-.065-.044-.057-.085Z" fill="#a7caec"/>
                <path d="M134.67,134.708c-.036-.007-.06-.04-.052-.074.008-.035.045-.06.08-.053.036.007.057.039.051.075-.007.037-.04.059-.078.052Z" fill="#a7caec"/>
                <path d="M133.833,132.804c.01.002.021.003.031.006.031.01.045.032.036.063-.009.032-.033.042-.064.034-.016-.004-.031-.013-.047-.017-.029-.008-.046-.025-.039-.056.007-.031.031-.038.06-.032.007.002.015.003.022.004h0Z" fill="#a7caec"/>
                <path d="M133.468,134.504c-.035-.005-.061-.038-.055-.071.005-.034.043-.06.078-.054.033.005.058.041.052.074-.006.034-.039.057-.075.051Z" fill="#a7caec"/>
                <path d="M134.992,132.851c.006-.039.033-.064.067-.06.032.003.057.036.052.069-.004.034-.059.074-.092.067-.026-.005-.034-.027-.027-.077Z" fill="#a7caec"/>
                <path d="M135.235,133.289c-.035-.007-.057-.041-.048-.076.01-.037.035-.053.072-.048.036.005.058.038.051.074-.007.036-.04.058-.075.051Z" fill="#a7caec"/>
                <path d="M134.513,132.556c.033.007.056.044.048.078-.008.035-.038.054-.072.047-.035-.008-.057-.043-.049-.077.007-.032.042-.055.073-.048Z" fill="#a7caec"/>
                <path d="M133.952,133.272c.006-.033.038-.056.071-.051.034.005.057.04.05.075-.007.033-.04.055-.072.048-.032-.006-.054-.04-.049-.072Z" fill="#a7caec"/>
                <path d="M134.759,133.389c-.009.028-.03.045-.064.04-.031-.005-.054-.038-.047-.067.008-.033.032-.048.065-.044.031.004.053.037.046.072Z" fill="#a7caec"/>
                <path d="M133.412,133.745c-.022.011-.044.03-.066.03-.033,0-.047-.027-.042-.058.005-.032.03-.052.059-.043.021.006.035.032.053.049l-.004.022Z" fill="#a7caec"/>
                <path d="M134.255,134.074c.032-.019.05-.036.069-.039.008-.001.029.03.028.046-.001.028-.024.043-.053.033-.013-.004-.022-.019-.045-.04Z" fill="#a7caec"/>
                <path d="M133.662,134.112c-.013-.029-.028-.047-.024-.06.004-.013.026-.022.04-.032.01.014.028.029.028.043,0,.013-.021.025-.043.049Z" fill="#a7caec"/>
                <path d="M133.715,133.57c.012.027.026.043.023.055-.003.012-.023.02-.036.03-.01-.014-.027-.028-.028-.042,0-.011.02-.023.041-.043Z" fill="#a7caec"/>
                <path d="M133.653,132.596c.013.029.027.046.023.057-.004.012-.025.025-.039.026-.008,0-.025-.024-.024-.035.002-.013.019-.024.04-.047Z" fill="#a7caec"/>
                <path d="M134.146,133.147c.028-.011.045-.025.056-.021.012.004.019.025.028.038-.013.009-.027.026-.04.025-.012,0-.022-.02-.044-.042Z" fill="#a7caec"/>
                <path d="M134.448,133.133c.024-.012.039-.025.05-.022.011.003.026.023.024.034-.002.01-.022.025-.033.025-.011,0-.021-.018-.041-.036Z" fill="#a7caec"/>
                <path d="M133.314,134.045c.024-.011.039-.024.05-.021.01.002.026.024.023.031-.004.012-.021.027-.033.028-.01,0-.021-.018-.041-.037Z" fill="#a7caec"/>
                <path d="M133.25,133.802c-.025.011-.04.024-.051.021-.012-.004-.019-.022-.028-.034.012-.008.025-.024.037-.023.011,0,.021.018.041.037Z" fill="#a7caec"/>
                <path d="M135.176,133.772c.019-.009.035-.022.043-.018.011.005.017.022.025.035-.013.007-.026.02-.038.02-.008,0-.016-.019-.03-.037Z" fill="#a7caec"/>
                <path d="M135.224,134.44c-.008-.022-.02-.038-.016-.046.006-.011.024-.016.036-.023.006.012.018.026.016.036-.002.01-.019.018-.037.033Z" fill="#a7caec"/>
                <path d="M133.77,133.754c.01.019.022.032.019.04-.004.011-.019.018-.03.027-.007-.011-.019-.023-.02-.034,0-.008.015-.017.03-.032Z" fill="#a7caec"/>
                <path d="M134.061,133.903c.009.018.019.03.019.04,0,.007-.02.019-.025.017-.01-.005-.02-.018-.021-.029,0-.007.014-.015.027-.029Z" fill="#a7caec"/>
              </g>
              <g>
                <path d="M137.235,131.493c.026.127-.078.215-.158.218-.096.004-.181-.063-.19-.156-.01-.098.06-.185.158-.195.016-.002.032,0,.048-.002.135-.011.144-.002.142.136Z" fill="#a7caec"/>
                <path d="M134.624,130.517c.087-.002.16.066.164.154.004.093-.066.167-.157.167-.086,0-.159-.071-.161-.158-.002-.087.069-.161.155-.163Z" fill="#a7caec"/>
                <path d="M135.386,132.279c.073-.001.117.046.121.129.003.081-.057.147-.135.149-.076.001-.137-.059-.138-.137,0-.081.062-.14.152-.141Z" fill="#a7caec"/>
                <path d="M135.995,133.062c-.076,0-.134-.058-.133-.131,0-.073.061-.131.135-.13.08,0,.143.059.142.132,0,.074-.064.13-.145.13Z" fill="#a7caec"/>
                <path d="M136.191,131.131c.073-.002.135.057.138.129.002.073-.056.134-.13.136-.075.001-.134-.055-.137-.129-.002-.075.054-.134.129-.136Z" fill="#a7caec"/>
                <path d="M137.659,132.663c.07,0,.126.061.123.132-.003.067-.058.121-.125.122-.072,0-.127-.055-.127-.128,0-.071.058-.127.129-.126Z" fill="#a7caec"/>
                <path d="M133.983,131.114c.001-.069.054-.121.124-.121.072,0,.127.056.126.128-.002.068-.056.122-.124.122-.072,0-.127-.056-.125-.129Z" fill="#a7caec"/>
                <path d="M136.97,133.005c-.065,0-.115-.05-.113-.111.003-.063.06-.117.121-.116.064,0,.111.049.11.113,0,.066-.051.115-.119.114Z" fill="#a7caec"/>
                <path d="M134.932,129.976c.019,0,.037-.002.056,0,.056.007.087.04.082.097-.006.058-.045.082-.1.079-.029-.002-.057-.013-.086-.015-.053-.005-.087-.029-.085-.085.003-.056.041-.076.093-.074.013,0,.027,0,.04,0v-.002Z" fill="#a7caec"/>
                <path d="M134.83,133.026c-.063.002-.116-.046-.118-.106-.001-.06.056-.117.118-.118.059,0,.113.053.113.112,0,.061-.051.11-.113.112Z" fill="#a7caec"/>
                <path d="M136.949,129.697c-.003-.07.037-.12.097-.125.057-.004.109.045.112.104.003.059-.079.146-.138.145-.047,0-.067-.036-.07-.124Z" fill="#a7caec"/>
                <path d="M137.505,130.377c-.062-.001-.112-.054-.107-.117.005-.066.043-.103.109-.106.063-.003.112.048.111.112,0,.064-.051.112-.114.111Z" fill="#a7caec"/>
                <path d="M136.029,129.335c.06.002.11.058.107.12-.002.062-.049.106-.11.103-.062-.003-.111-.056-.108-.117.003-.058.055-.108.111-.105Z" fill="#a7caec"/>
                <path d="M135.283,130.748c0-.058.049-.109.106-.11.06-.002.112.052.11.114-.002.059-.052.107-.109.106-.057-.001-.106-.052-.106-.11Z" fill="#a7caec"/>
                <path d="M136.715,130.698c-.007.051-.037.087-.098.088-.055.002-.106-.049-.102-.102.004-.059.04-.093.098-.096.054-.003.102.048.101.11Z" fill="#a7caec"/>
                <path d="M134.497,131.733c-.034.025-.066.065-.104.073-.057.011-.089-.033-.091-.088-.002-.057.035-.099.088-.093.038.004.071.045.106.069v.038Z" fill="#a7caec"/>
                <path d="M136.056,132.039c.049-.043.075-.078.108-.089.013-.004.059.043.063.07.006.049-.028.082-.08.074-.023-.004-.044-.026-.09-.055Z" fill="#a7caec"/>
                <path d="M135.043,132.289c-.031-.046-.063-.073-.061-.096.003-.024.038-.045.059-.068.022.022.058.042.061.066.003.023-.029.051-.059.097Z" fill="#a7caec"/>
                <path d="M134.967,131.336c.029.042.059.067.057.088-.002.023-.034.043-.053.064-.022-.021-.056-.039-.062-.064-.004-.018.028-.045.058-.088Z" fill="#a7caec"/>
                <path d="M134.557,129.672c.031.045.062.071.058.091-.004.023-.036.051-.06.056-.014.003-.051-.033-.052-.053-.001-.023.026-.048.054-.094Z" fill="#a7caec"/>
                <path d="M135.579,130.47c.044-.028.07-.057.09-.054.022.003.04.037.06.057-.02.02-.039.053-.062.056-.021.003-.045-.028-.088-.058Z" fill="#a7caec"/>
                <path d="M136.097,130.352c.038-.028.06-.056.079-.054.02.002.052.032.052.05,0,.018-.029.05-.05.053-.019.003-.042-.024-.081-.049Z" fill="#a7caec"/>
                <path d="M134.421,132.28c.039-.027.06-.053.08-.053.018,0,.052.033.05.046-.004.023-.028.054-.049.058-.017.004-.042-.025-.082-.051Z" fill="#a7caec"/>
                <path d="M134.235,131.881c-.04.027-.062.054-.082.052-.021-.003-.039-.033-.058-.051.019-.019.036-.049.057-.052.019-.003.043.024.083.051Z" fill="#a7caec"/>
                <path d="M137.553,131.23c.031-.022.054-.049.068-.045.021.006.036.034.054.052-.02.017-.038.043-.059.047-.015.002-.034-.028-.063-.054Z" fill="#a7caec"/>
                <path d="M137.844,132.37c-.021-.035-.047-.059-.042-.075.006-.021.036-.034.056-.051.014.019.04.039.039.058,0,.019-.027.037-.053.068Z" fill="#a7caec"/>
                <path d="M135.119,131.636c.023.029.048.048.046.063-.003.02-.027.037-.043.056-.016-.018-.04-.033-.045-.053-.003-.014.021-.035.041-.065Z" fill="#a7caec"/>
                <path d="M135.667,131.803c.022.029.042.045.045.064.001.011-.029.04-.038.037-.018-.006-.039-.025-.045-.043-.004-.011.019-.03.038-.058Z" fill="#a7caec"/>
              </g>
              <g>
                <path d="M139.689,132.489c.016.062-.033.108-.073.111-.047.004-.091-.027-.098-.072-.007-.048.025-.092.073-.1.008-.001.016-.001.024-.002.066-.009.071-.005.073.063Z" fill="#a7caec"/>
                <path d="M138.38,132.071c.043-.003.08.029.084.072.004.046-.028.084-.074.086-.043.002-.08-.031-.083-.074-.003-.043.03-.081.072-.084Z" fill="#a7caec"/>
                <path d="M138.798,132.92c.036-.002.059.02.062.061.004.04-.025.074-.063.076-.037.002-.069-.026-.071-.064-.002-.04.027-.07.071-.073Z" fill="#a7caec"/>
                <path d="M139.116,133.291c-.037.002-.067-.025-.068-.061-.001-.036.027-.066.063-.067.039-.002.072.026.073.062.001.036-.028.066-.068.067Z" fill="#a7caec"/>
                <path d="M139.167,132.336c.036-.002.068.025.071.06.003.036-.024.068-.061.07-.037.002-.067-.024-.07-.06-.003-.037.023-.067.06-.07Z" fill="#a7caec"/>
                <path d="M139.926,133.055c.034-.001.063.027.064.062,0,.033-.026.061-.059.063-.035.002-.064-.024-.065-.06-.001-.035.026-.064.061-.065Z" fill="#a7caec"/>
                <path d="M138.079,132.38c-.001-.034.024-.061.058-.063.036-.002.064.024.065.06,0,.034-.025.061-.058.063-.035.002-.064-.025-.065-.06Z" fill="#a7caec"/>
                <path d="M139.595,133.24c-.032.001-.058-.022-.058-.052,0-.031.027-.059.057-.06.031-.001.056.021.057.053.001.033-.023.058-.056.059Z" fill="#a7caec"/>
                <path d="M138.519,131.797c.009,0,.018-.002.027-.001.028.002.044.018.043.046-.001.029-.02.042-.047.041-.014,0-.028-.005-.043-.006-.026-.001-.044-.012-.044-.04,0-.028.018-.038.044-.039.007,0,.013,0,.02,0h0Z" fill="#a7caec"/>
                <path d="M138.542,133.301c-.031.002-.058-.02-.06-.049-.002-.03.025-.059.055-.061.029-.002.057.024.058.053.001.03-.022.055-.053.058Z" fill="#a7caec"/>
                <path d="M139.505,131.611c-.003-.034.015-.06.045-.064.028-.003.055.019.057.048.003.029-.036.074-.065.075-.023.001-.034-.016-.038-.06Z" fill="#a7caec"/>
                <path d="M139.796,131.933c-.031,0-.056-.024-.055-.055,0-.033.019-.052.051-.055.031-.003.056.021.057.053.001.031-.022.056-.053.057Z" fill="#a7caec"/>
                <path d="M139.044,131.455c.029,0,.055.026.056.056,0,.031-.022.053-.052.053-.031,0-.056-.025-.056-.055,0-.029.025-.054.052-.055Z" fill="#a7caec"/>
                <path d="M138.71,132.169c-.001-.029.021-.055.05-.057.03-.002.056.023.057.054,0,.029-.023.054-.051.055-.028,0-.054-.023-.055-.052Z" fill="#a7caec"/>
                <path d="M139.414,132.11c-.002.025-.016.044-.046.046-.027.002-.053-.021-.053-.048,0-.029.017-.047.046-.05.027-.003.052.021.052.052Z" fill="#a7caec"/>
                <path d="M138.347,132.673c-.016.013-.031.034-.049.038-.028.007-.045-.014-.047-.041-.002-.028.015-.05.041-.048.019.001.036.02.054.032v.019Z" fill="#a7caec"/>
                <path d="M139.122,132.786c.023-.023.035-.04.051-.046.006-.002.03.02.032.033.004.024-.012.041-.038.038-.012-.001-.022-.012-.046-.025Z" fill="#a7caec"/>
                <path d="M138.629,132.933c-.016-.022-.033-.034-.032-.046,0-.012.018-.023.028-.035.011.01.03.019.032.031.002.011-.013.026-.027.049Z" fill="#a7caec"/>
                <path d="M138.569,132.466c.015.02.031.031.03.042,0,.011-.016.022-.025.033-.011-.01-.028-.018-.032-.03-.003-.009.013-.023.026-.045Z" fill="#a7caec"/>
                <path d="M138.327,131.656c.016.022.032.034.031.044-.001.011-.016.026-.028.029-.007.002-.026-.015-.027-.025-.001-.011.011-.024.024-.048Z" fill="#a7caec"/>
                <path d="M138.85,132.025c.021-.015.033-.03.043-.029.011.001.021.017.031.027-.01.01-.018.027-.029.029-.01.002-.023-.013-.045-.027Z" fill="#a7caec"/>
                <path d="M139.102,131.954c.018-.015.028-.029.037-.029.01,0,.026.015.027.024,0,.009-.013.025-.023.027-.009.002-.021-.011-.041-.022Z" fill="#a7caec"/>
                <path d="M138.323,132.944c.018-.014.028-.027.038-.028.009,0,.026.015.026.021-.001.011-.012.027-.023.03-.008.002-.021-.011-.041-.023Z" fill="#a7caec"/>
                <path d="M138.221,132.752c-.019.014-.029.028-.039.028-.01,0-.02-.015-.03-.024.009-.01.016-.025.027-.027.009-.002.022.011.042.023Z" fill="#a7caec"/>
                <path d="M139.84,132.352c.015-.011.025-.025.032-.024.011.002.019.016.028.024-.009.009-.018.022-.028.024-.007.002-.018-.013-.032-.025Z" fill="#a7caec"/>
                <path d="M140.01,132.906c-.011-.017-.024-.028-.022-.036.003-.01.017-.018.026-.026.007.009.021.018.021.028,0,.009-.013.019-.024.035Z" fill="#a7caec"/>
                <path d="M138.651,132.61c.012.014.025.023.024.03-.001.01-.013.019-.02.029-.008-.008-.021-.015-.023-.025-.002-.007.009-.017.019-.033Z" fill="#a7caec"/>
                <path d="M138.925,132.679c.011.014.022.021.023.03.001.006-.013.02-.018.019-.009-.002-.02-.011-.023-.02-.002-.005.009-.015.018-.03Z" fill="#a7caec"/>
              </g>
            </g>
          </g>
        </g>
        <g clip-path="url(#i)">
          <g>
            <circle cx="215.384" cy="122.635" r="6.669" fill="#e86170"/>
            <circle cx="214.501" cy="122.651" r="5.096" fill="#6498d1" mix-blend-mode="multiply" opacity=".25"/>
            <path d="M214.198,106.232l9.643-5.943c.607-.374.475-1.292-.212-1.48l-10.924-2.994c-.566-.155-1.106.321-1.022.902l1.282,8.937c.083.581.735.886,1.235.578Z" fill="#e86170"/>
            <path d="M212.978,94.687h0c.48,0,.869.39.869.869v21.471h-1.739v-21.471c0-.48.39-.869.869-.869Z" transform="translate(-12.87 31.304) rotate(-8.161)" fill="#42496f"/>
            <path d="M213.199,114.258h2.414c.469,0,.849.38.849.849v2.263h-4.112v-2.263c0-.469.38-.849.849-.849Z" transform="translate(-14.269 31.607) rotate(-8.161)" fill="#e86170"/>
          </g>
        </g>
      </g>
    </g>
  </g>
</svg>