<?xml version="1.0" encoding="UTF-8"?>
<svg xmlns="http://www.w3.org/2000/svg" width="300" height="300" xmlns:xlink="http://www.w3.org/1999/xlink" viewBox="0 0 300 300">
  <defs>
    <filter id="l" data-name="drop-shadow-1" x="66.483" y="171.118" width="37.029" height="38.2" filterUnits="userSpaceOnUse">
      <feOffset dx="-2" dy="0"/>
      <feGaussianBlur result="m" stdDeviation="0"/>
      <feFlood flood-color="#42496f" flood-opacity="1"/>
      <feComposite in2="m" operator="in"/>
      <feComposite in="SourceGraphic"/>
    </filter>
    <clipPath id="n">
      <path d="M72.379,204.7s28.232-3.246,31.133-3.771c-.864,2.623-4.038,6.082-9.577,7.44,0,0-17.053-.497-19.575-.59-1.66-.958-1.981-3.079-1.981-3.079Z" fill="none"/>
    </clipPath>
    <clipPath id="o">
      <path d="M235.761,119.262c-3.954,3.796-8.698.633-8.698.633-4.423,2.512-8.392,1.781-10.426,1.088-.176.189-.425.308-.703.308-.481,0-.876-.353-.95-.813-8.108,4.134-9.588-1.374-9.588-1.374-6.563,5.456-14.233,3.796-14.233,3.796l-.474-29.778h52.506v28.038c-3.796,0-7.433-1.898-7.433-1.898Z" fill="none"/>
    </clipPath>
  </defs>
  <g isolation="isolate">
    <g id="k" data-name="Calque 2">
      <g>
        <g>
          <g filter="url(#l)">
            <path d="M80.919,175.399s17.456,16.736,21.937,24.759c-5.763-1.265-14.033-.309-17.057.771l-4.881-25.53Z" fill="#e86170"/>
            <path d="M81.331,176.719s7.469,18.547,10.362,21.11c0,0-4.869,1.79-5.893,3.1l-4.469-24.21Z" fill="#6498d1" mix-blend-mode="multiply" opacity=".25"/>
            <path d="M80.919,176.635s-7.688,21.661-11.309,25.837l15.531-2.222-4.223-23.615Z" fill="#e86170"/>
            <path d="M81.192,177.54s-.946,19.707-7.652,24.191l11.56-1.584-3.907-22.607Z" fill="#6498d1" mix-blend-mode="multiply" opacity=".25"/>
            <polygon points="80.111 172.49 80.551 172.409 86.816 203.291 85.354 203.562 80.111 172.49" fill="#fff"/>
            <path d="M72.379,204.7s28.232-3.246,31.133-3.771c-.864,2.623-4.038,6.082-9.577,7.44,0,0-17.053-.497-19.575-.59-1.66-.958-1.981-3.079-1.981-3.079Z" fill="#fff"/>
            <g clip-path="url(#n)">
              <path d="M94.399,209.318s4.068-1.141,6.783-5.734c.229-.388-.075-.877-.523-.837-4.414.396-22.054,1.877-27.013,2.394-.464.048-.783.499-.658.949.224.808.745,1.961,1.936,2.429l19.476.798Z" fill="#6498d1" mix-blend-mode="multiply" opacity=".25"/>
            </g>
            <polygon points="68.62 202.943 85.141 200.809 85.099 200.148 68.483 202.525 68.62 202.943" fill="#fff"/>
            <path d="M80.919,172.16c.866-.742,2.127-1.562,3.508-.615,4.39,3.008,3.638-.346,6.716-.059-1.973.453-2.049,3.515-5.427,3.624-2.088.067-2.134-1.143-4.205.325l-.591-3.274Z" fill="#e86170"/>
          </g>
          <path d="M102.633,207.697c-.492-.391-1.366-.71-2.196-.72-1.494-.018-1.92.308-1.92.308-1.966-1.135-5.868-3.487-9.015-2.221s8.451,5.475,9.068,4.982-3.432-2.135-2.62-2.223c.868-.094,2.254.019,3.056.204,1.079-.406,4.791.596,3.627-.329Z" fill="#a7caec"/>
          <g>
            <path d="M88.374,206.249c-.007-.122.101-.189.177-.182.09.009.16.083.156.171-.004.093-.081.164-.174.16-.015,0-.03-.004-.045-.004-.127-.008-.135-.018-.114-.146Z" fill="#fff"/>
            <path d="M90.671,207.512c-.082-.01-.14-.083-.132-.166.009-.087.084-.147.169-.134.08.012.138.088.129.169-.01.081-.086.141-.166.131Z" fill="#fff"/>
            <path d="M90.201,205.768c-.068-.009-.103-.058-.095-.137.008-.076.073-.129.146-.12.07.009.119.074.11.146-.01.075-.077.122-.16.111Z" fill="#fff"/>
            <path d="M89.74,204.957c.07.011.116.072.106.14-.011.068-.074.113-.143.103-.075-.011-.125-.074-.115-.142.011-.068.077-.112.152-.101Z" fill="#fff"/>
            <path d="M89.296,206.727c-.068-.008-.118-.071-.111-.139.008-.069.07-.118.139-.109.07.009.118.069.11.139-.008.07-.068.118-.138.109Z" fill="#fff"/>
            <path d="M88.138,205.102c-.065-.01-.109-.074-.097-.14.012-.062.07-.105.133-.096.067.009.111.069.1.136-.01.066-.071.11-.137.1Z" fill="#fff"/>
            <path d="M91.349,207.042c-.011.064-.067.105-.132.096-.067-.009-.111-.069-.099-.136.011-.063.069-.106.132-.097.067.009.11.069.099.137Z" fill="#fff"/>
            <path d="M88.825,204.877c.061.01.101.063.09.118-.011.058-.071.101-.129.092-.059-.009-.097-.061-.088-.12.009-.062.063-.1.126-.09Z" fill="#fff"/>
            <path d="M90.312,207.973c-.017-.003-.035-.003-.052-.008-.051-.014-.076-.05-.063-.102.013-.053.053-.071.104-.06.027.006.051.02.078.026.049.012.077.039.067.09-.01.052-.049.065-.097.057-.012-.002-.025-.004-.037-.005v.002Z" fill="#fff"/>
            <path d="M90.82,205.148c.059.007.102.059.095.114-.007.056-.068.101-.126.094-.055-.007-.098-.065-.09-.12.009-.056.062-.096.12-.089Z" fill="#fff"/>
            <path d="M88.396,207.96c-.007.065-.051.107-.107.103-.053-.004-.095-.056-.09-.112.006-.056.094-.125.149-.116.043.006.057.043.049.125Z" fill="#fff"/>
            <path d="M87.97,207.251c.058.01.097.065.083.123-.014.061-.054.09-.116.084-.059-.006-.098-.06-.088-.119.009-.059.062-.098.121-.088Z" fill="#fff"/>
            <path d="M89.203,208.421c-.055-.01-.094-.069-.084-.126.011-.058.06-.092.116-.081.057.011.096.067.085.124-.01.054-.066.093-.118.083Z" fill="#fff"/>
            <path d="M90.089,207.207c-.008.054-.06.095-.114.088-.056-.007-.097-.063-.087-.121.01-.055.063-.093.116-.084.053.009.092.063.084.117Z" fill="#fff"/>
            <path d="M88.75,207.059c.013-.047.047-.075.103-.069.052.006.092.06.081.109-.012.054-.05.081-.105.076-.051-.004-.089-.059-.079-.116Z" fill="#fff"/>
            <path d="M90.954,206.397c.035-.019.07-.052.107-.054.054-.003.079.043.073.094-.006.053-.046.087-.095.074-.034-.009-.06-.051-.089-.079l.005-.036Z" fill="#fff"/>
            <path d="M89.545,205.901c-.052.034-.08.063-.112.068-.013.002-.049-.048-.049-.074,0-.046.037-.072.085-.058.021.006.037.03.076.064Z" fill="#fff"/>
            <path d="M90.522,205.806c.023.047.049.076.044.097-.006.022-.042.037-.064.055-.017-.023-.048-.047-.048-.07,0-.022.034-.043.068-.083Z" fill="#fff"/>
            <path d="M90.463,206.703c-.021-.043-.046-.07-.041-.09.005-.021.038-.035.058-.052.018.023.047.044.049.068.002.018-.032.038-.066.074Z" fill="#fff"/>
            <path d="M90.619,208.307c-.022-.046-.048-.075-.042-.093.006-.021.04-.043.063-.044.014,0,.043.038.042.057-.002.022-.03.041-.063.081Z" fill="#fff"/>
            <path d="M89.776,207.425c-.045.02-.073.044-.091.038-.02-.006-.033-.039-.048-.061.022-.016.044-.044.065-.044.019,0,.038.032.074.066Z" fill="#fff"/>
            <path d="M89.277,207.465c-.039.021-.063.044-.081.04-.018-.004-.044-.037-.042-.054.002-.017.034-.043.053-.043.018,0,.036.028.069.057Z" fill="#fff"/>
            <path d="M91.099,205.898c-.04.02-.063.041-.082.038-.017-.003-.044-.038-.04-.05.007-.021.033-.046.053-.048.017-.001.036.029.069.059Z" fill="#fff"/>
            <path d="M91.219,206.294c.041-.02.066-.042.083-.037.019.005.032.036.047.055-.02.015-.04.041-.06.041-.018,0-.036-.029-.07-.058Z" fill="#fff"/>
            <path d="M88.042,206.45c-.032.016-.057.038-.07.033-.019-.008-.029-.036-.043-.056.021-.013.041-.035.062-.036.014,0,.028.031.051.059Z" fill="#fff"/>
            <path d="M87.926,205.35c.015.035.035.061.029.075-.009.018-.038.027-.059.04-.011-.02-.032-.042-.029-.059.003-.017.03-.031.059-.056Z" fill="#fff"/>
            <path d="M90.362,206.402c-.017-.03-.039-.052-.034-.064.006-.019.031-.031.047-.046.012.019.033.036.034.056,0,.014-.024.029-.047.055Z" fill="#fff"/>
            <path d="M89.875,206.173c-.016-.03-.033-.048-.033-.065,0-.011.032-.033.04-.029.016.008.033.028.036.046.002.011-.022.026-.044.049Z" fill="#fff"/>
          </g>
          <path d="M94.856,208.15s-2.39.117-4.721-.247-3.449-1.093-4.73-1.062,1.182,1.062,1.182,1.062c0,0-2.209-.434-3.22-.118-.789.246.721.736.721.736,0,0-3.255-.401-4.382-.185s-3.116.463-4.783.185.756.741,2.191.771,2.222-.417,4.104-.154,4.878-.06,4.924-.307-1.907-.383-1.221-.465c.385-.046.917.014,2.253.154,2.527.266,6.773.617,7.683-.37Z" fill="#a7caec"/>
          <path d="M84.068,208.056s-.799-.092-2.812-.107-2.439-.27-3.779-.251-5.591.087-7.287.106-3.044-.115-3.451-.107c-2.053.04,2.612.39,3.836.369s2.092-.186,3.219-.176,3.911.214,5.193.176,3.617.471,3.965.518c1.554.207,2.34-.442,1.113-.527Z" fill="#a7caec"/>
          <g>
            <g>
              <path d="M85.073,206.767c.091.093.052.222-.014.269-.078.056-.186.046-.245-.027-.062-.077-.05-.187.026-.25.012-.01.026-.018.039-.028.107-.083.12-.08.193.036Z" fill="#a7caec"/>
              <path d="M82.352,207.371c.072-.049.17-.032.221.04.054.075.036.176-.041.226-.072.047-.172.027-.221-.045-.049-.071-.03-.173.041-.221Z" fill="#a7caec"/>
              <path d="M83.951,208.434c.061-.041.123-.025.172.043.047.066.032.155-.032.198-.063.042-.147.025-.19-.04-.045-.067-.024-.151.05-.201Z" fill="#a7caec"/>
              <path d="M84.889,208.759c-.064.041-.143.024-.183-.038-.039-.062-.02-.143.042-.183.067-.043.152-.029.192.033.039.062.017.144-.051.188Z" fill="#a7caec"/>
              <path d="M84.001,207.032c.06-.041.144-.026.186.033.042.06.026.143-.035.184-.062.042-.142.027-.185-.034-.043-.061-.028-.142.034-.184Z" fill="#a7caec"/>
              <path d="M86.067,207.518c.059-.037.139-.017.175.044.035.058.017.133-.039.17-.06.04-.137.023-.176-.038-.038-.06-.02-.138.039-.176Z" fill="#a7caec"/>
              <path d="M82.14,208.221c-.036-.058-.02-.131.038-.169.06-.04.137-.023.175.039.036.058.019.133-.038.17-.06.039-.137.022-.175-.04Z" fill="#a7caec"/>
              <path d="M85.675,208.18c-.055.035-.124.021-.155-.032-.032-.054-.014-.13.038-.164.054-.034.12-.019.154.035.036.056.02.125-.038.161Z" fill="#a7caec"/>
              <path d="M82.315,206.75c.016-.01.03-.022.047-.03.051-.025.095-.014.122.037.027.051.007.094-.041.121-.025.014-.055.02-.081.034-.047.025-.089.023-.117-.025-.029-.049-.007-.086.038-.113.011-.007.022-.014.033-.022v-.002Z" fill="#a7caec"/>
              <path d="M83.892,209.363c-.052.036-.123.025-.156-.025-.034-.05-.017-.129.035-.163.049-.033.124-.017.156.033.033.051.017.12-.034.155Z" fill="#a7caec"/>
              <path d="M83.854,205.417c-.04-.057-.035-.121.014-.157.045-.034.116-.022.15.026.035.048.013.165-.037.197-.039.025-.076.006-.127-.066Z" fill="#a7caec"/>
              <path d="M84.692,205.684c-.053.033-.123.016-.153-.04-.032-.058-.02-.11.034-.148.052-.037.12-.021.154.034.034.054.019.122-.035.155Z" fill="#a7caec"/>
              <path d="M82.886,205.614c.051-.03.124-.011.155.042.032.054.017.115-.036.146-.054.031-.124.014-.155-.039-.03-.05-.013-.12.036-.149Z" fill="#a7caec"/>
              <path d="M83.03,207.206c-.032-.049-.019-.118.029-.15.05-.034.122-.017.154.036.031.05.015.118-.034.149-.049.03-.117.015-.149-.034Z" fill="#a7caec"/>
              <path d="M84.204,206.384c.022.046.016.093-.034.127-.045.032-.115.017-.141-.03-.028-.052-.017-.1.03-.134.044-.032.112-.015.145.037Z" fill="#a7caec"/>
              <path d="M82.908,208.46c-.015.04-.02.091-.047.118-.041.04-.093.021-.124-.024-.032-.046-.024-.102.024-.126.034-.017.084-.001.127,0l.021.032Z" fill="#a7caec"/>
              <path d="M84.382,207.867c.018-.063.02-.106.042-.133.009-.011.073.004.091.025.032.037.021.084-.027.106-.021.01-.051.002-.106.002Z" fill="#a7caec"/>
              <path d="M83.668,208.629c-.051-.022-.093-.026-.103-.047-.011-.022.007-.059.013-.089.03.007.072.004.087.022.015.018.003.058.003.114Z" fill="#a7caec"/>
              <path d="M83.086,207.871c.048.02.086.024.096.043.011.02-.005.054-.01.082-.03-.006-.068-.003-.087-.02-.014-.013-.001-.053,0-.105Z" fill="#a7caec"/>
              <path d="M81.835,206.699c.051.021.09.026.099.045.009.021-.002.062-.02.08-.01.01-.061,0-.073-.016-.014-.019-.005-.054-.006-.109Z" fill="#a7caec"/>
              <path d="M83.128,206.812c.022-.048.027-.086.046-.095.021-.009.054.009.081.015-.006.028-.004.066-.022.081-.016.013-.053.001-.106,0Z" fill="#a7caec"/>
              <path d="M83.497,206.43c.017-.044.019-.079.036-.088.018-.009.061-.001.071.014.01.015.003.058-.013.072-.014.013-.048.003-.095.003Z" fill="#a7caec"/>
              <path d="M83.143,208.961c.018-.044.021-.077.039-.088.015-.01.062-.001.067.011.009.021.006.06-.009.075-.012.013-.049.002-.096.001Z" fill="#a7caec"/>
              <path d="M82.769,208.727c-.019.044-.023.08-.04.088-.019.009-.05-.006-.076-.011.006-.026.003-.061.019-.074.015-.013.049-.003.097-.003Z" fill="#a7caec"/>
              <path d="M85.197,206.374c.014-.035.018-.07.033-.075.021-.007.049.008.074.014-.007.025-.008.057-.024.072-.011.01-.044-.005-.082-.011Z" fill="#a7caec"/>
              <path d="M86.062,207.171c-.036-.018-.071-.024-.076-.04-.006-.021.012-.048.019-.073.022.008.055.011.064.027.01.016-.003.046-.007.086Z" fill="#a7caec"/>
              <path d="M83.377,208.04c.035.012.067.014.073.027.008.019-.003.046-.005.07-.023-.006-.052-.006-.067-.02-.01-.01-.001-.04,0-.077Z" fill="#a7caec"/>
              <path d="M83.928,207.881c.034.012.06.015.072.029.007.009-.003.049-.011.052-.019.005-.046,0-.061-.011-.009-.007,0-.036,0-.07Z" fill="#a7caec"/>
            </g>
            <g>
              <path d="M88.746,207.702c.008.092-.072.146-.129.142-.068-.004-.123-.059-.123-.125,0-.07.057-.126.127-.126.011,0,.023.002.034.002.096.003.102.01.09.107Z" fill="#a7caec"/>
              <path d="M86.975,206.808c.062.005.108.059.104.122-.004.066-.06.113-.124.106-.061-.007-.107-.063-.102-.124.005-.061.061-.109.122-.103Z" fill="#a7caec"/>
              <path d="M87.377,208.114c.052.005.079.041.075.101-.004.057-.052.1-.107.095-.054-.005-.092-.053-.087-.107.006-.057.055-.094.118-.088Z" fill="#a7caec"/>
              <path d="M87.747,208.716c-.053-.006-.09-.051-.084-.103.006-.051.053-.088.106-.082.057.006.097.053.091.105-.006.052-.055.087-.113.08Z" fill="#a7caec"/>
              <path d="M88.036,207.365c.052.005.091.051.087.102-.004.052-.05.091-.102.086-.053-.005-.091-.049-.087-.102.004-.053.048-.091.102-.086Z" fill="#a7caec"/>
              <path d="M88.956,208.563c.049.006.084.053.077.103-.007.047-.05.081-.098.076-.051-.005-.086-.049-.08-.1.006-.05.051-.085.101-.079Z" fill="#a7caec"/>
              <path d="M86.475,207.181c.006-.049.048-.081.097-.076.051.005.086.049.079.1-.007.048-.049.082-.097.077-.051-.005-.085-.049-.079-.101Z" fill="#a7caec"/>
              <path d="M88.442,208.752c-.046-.006-.078-.045-.071-.087.007-.044.051-.078.095-.073.045.005.075.043.069.089-.005.047-.045.077-.093.071Z" fill="#a7caec"/>
              <path d="M87.235,206.449c.013.001.027.001.039.005.039.01.059.035.05.075-.008.04-.038.055-.077.048-.02-.003-.039-.014-.06-.018-.037-.007-.059-.027-.053-.066.006-.04.035-.05.072-.045.009.001.019.002.028.003v-.002Z" fill="#a7caec"/>
              <path d="M86.925,208.6c-.045-.004-.079-.042-.075-.084.004-.043.048-.079.093-.074.042.004.076.046.071.088-.005.043-.044.074-.089.07Z" fill="#a7caec"/>
              <path d="M88.684,206.409c.004-.049.036-.082.078-.081.04.002.074.04.071.082-.003.042-.068.097-.109.092-.033-.004-.045-.031-.04-.093Z" fill="#a7caec"/>
              <path d="M89.025,206.933c-.044-.006-.075-.047-.066-.091.009-.046.039-.069.086-.066.045.003.075.043.07.088-.006.045-.045.075-.089.069Z" fill="#a7caec"/>
              <path d="M88.061,206.081c.042.006.073.05.067.093-.007.044-.043.071-.086.064-.044-.007-.074-.048-.068-.091.006-.041.047-.072.087-.066Z" fill="#a7caec"/>
              <path d="M87.423,207.023c.004-.041.043-.073.084-.07.043.004.075.045.069.089-.006.042-.045.072-.086.067-.04-.005-.071-.045-.067-.086Z" fill="#a7caec"/>
              <path d="M88.44,207.099c-.009.036-.033.058-.076.055-.039-.003-.071-.043-.064-.08.008-.041.035-.063.077-.06.039.002.069.042.063.086Z" fill="#a7caec"/>
              <path d="M86.79,207.659c-.026.015-.052.041-.079.044-.041.004-.061-.03-.058-.069.003-.04.033-.067.07-.059.026.006.047.037.07.057l-.003.027Z" fill="#a7caec"/>
              <path d="M87.87,207.996c.038-.027.059-.05.083-.055.01-.002.038.035.039.055,0,.035-.026.056-.063.046-.016-.004-.029-.022-.059-.046Z" fill="#a7caec"/>
              <path d="M87.133,208.095c-.018-.035-.039-.056-.036-.073.004-.017.031-.029.047-.043.014.017.038.034.038.052,0,.017-.024.034-.05.064Z" fill="#a7caec"/>
              <path d="M87.154,207.414c.017.032.036.052.034.067-.003.016-.027.028-.043.041-.014-.017-.037-.032-.039-.05-.002-.013.023-.03.048-.058Z" fill="#a7caec"/>
              <path d="M86.993,206.205c.018.035.038.055.034.069-.004.016-.029.033-.047.035-.01.001-.034-.027-.033-.042,0-.016.022-.032.046-.063Z" fill="#a7caec"/>
              <path d="M87.654,206.849c.034-.017.054-.035.068-.031.016.004.026.029.038.045-.016.012-.032.034-.048.035-.015,0-.03-.023-.058-.048Z" fill="#a7caec"/>
              <path d="M88.03,206.806c.029-.017.047-.035.06-.032.014.003.034.027.033.04-.001.013-.025.033-.039.034-.014,0-.028-.02-.054-.041Z" fill="#a7caec"/>
              <path d="M86.694,208.04c.029-.016.046-.033.061-.031.013.002.034.027.032.036-.005.016-.024.036-.039.037-.013.001-.028-.021-.054-.043Z" fill="#a7caec"/>
              <path d="M86.593,207.743c-.03.016-.048.034-.062.03-.015-.003-.025-.026-.037-.04.015-.012.029-.032.044-.032.014,0,.028.021.055.042Z" fill="#a7caec"/>
              <path d="M88.992,207.541c.024-.013.042-.03.052-.027.015.006.023.027.034.041-.015.01-.03.028-.046.029-.01,0-.022-.023-.04-.043Z" fill="#a7caec"/>
              <path d="M89.109,208.37c-.012-.026-.028-.046-.024-.056.006-.014.028-.021.043-.032.009.015.025.031.023.044-.002.013-.022.024-.043.044Z" fill="#a7caec"/>
              <path d="M87.238,207.639c.014.023.031.038.028.048-.004.014-.022.024-.034.036-.01-.014-.026-.027-.028-.041-.001-.01.017-.023.034-.043Z" fill="#a7caec"/>
              <path d="M87.613,207.8c.013.022.026.035.027.049,0,.008-.024.026-.03.023-.013-.005-.026-.021-.029-.034-.002-.008.016-.02.032-.038Z" fill="#a7caec"/>
            </g>
            <g>
              <path d="M91.365,204.522c.043.157-.078.274-.179.286-.119.014-.231-.063-.251-.179-.021-.121.059-.235.181-.257.02-.004.04-.004.06-.007.167-.026.18-.015.189.157Z" fill="#a7caec"/>
              <path d="M88.026,203.529c.109-.01.205.069.218.178.013.115-.068.214-.182.222-.108.007-.205-.075-.215-.183-.01-.108.072-.207.179-.217Z" fill="#a7caec"/>
              <path d="M89.126,205.661c.091-.008.15.047.161.151.011.1-.058.188-.155.197-.094.008-.176-.062-.183-.159-.008-.101.066-.18.177-.189Z" fill="#a7caec"/>
              <path d="M89.953,206.586c-.094.006-.171-.061-.177-.152-.005-.091.065-.168.157-.174.1-.007.184.061.189.153.005.092-.068.167-.17.174Z" fill="#a7caec"/>
              <path d="M90.033,204.161c.091-.008.174.059.183.149.009.091-.058.172-.15.18-.093.008-.172-.057-.182-.149-.009-.093.056-.172.149-.18Z" fill="#a7caec"/>
              <path d="M91.994,205.946c.087-.005.162.066.165.154.003.084-.062.156-.146.163-.089.007-.163-.058-.169-.148-.005-.088.062-.163.15-.168Z" fill="#a7caec"/>
              <path d="M87.278,204.329c-.004-.086.058-.156.144-.162.09-.007.164.059.168.149.004.085-.059.157-.144.163-.09.007-.163-.059-.167-.15Z" fill="#a7caec"/>
              <path d="M91.164,206.431c-.081.004-.148-.053-.15-.129-.002-.078.064-.151.141-.155.079-.005.142.052.147.132.005.083-.054.148-.139.152Z" fill="#a7caec"/>
              <path d="M88.363,202.828c.023-.002.046-.006.069-.004.071.004.112.043.11.114-.002.072-.049.107-.118.107-.036,0-.072-.011-.109-.012-.067-.001-.111-.029-.113-.098-.002-.071.045-.098.11-.101.017,0,.033-.002.05-.003v-.003Z" fill="#a7caec"/>
              <path d="M88.497,206.64c-.078.008-.149-.048-.156-.122-.007-.075.059-.151.137-.157.073-.006.146.057.15.13.004.076-.054.142-.131.149Z" fill="#a7caec"/>
              <path d="M90.854,202.307c-.009-.086.036-.153.11-.164.07-.01.14.046.148.12.008.074-.087.188-.16.193-.058.004-.087-.04-.098-.149Z" fill="#a7caec"/>
              <path d="M91.607,203.108c-.078.003-.144-.058-.143-.137,0-.083.045-.132.127-.141.079-.009.143.05.148.13.004.079-.054.144-.132.148Z" fill="#a7caec"/>
              <path d="M89.677,201.935c.075-.002.142.063.144.14.002.078-.052.136-.129.138-.078.002-.143-.06-.145-.137-.002-.073.059-.139.13-.141Z" fill="#a7caec"/>
              <path d="M88.867,203.76c-.005-.072.051-.14.123-.147.075-.007.144.055.147.133.003.074-.055.138-.127.142-.071.003-.137-.055-.142-.128Z" fill="#a7caec"/>
              <path d="M90.648,203.576c-.004.064-.039.111-.114.119-.069.007-.136-.051-.136-.119,0-.074.042-.119.114-.128.067-.009.132.051.135.128Z" fill="#a7caec"/>
              <path d="M87.972,205.056c-.041.035-.077.087-.123.1-.07.019-.114-.033-.121-.102-.007-.07.035-.126.102-.123.047.002.092.05.138.077l.004.048Z" fill="#a7caec"/>
              <path d="M89.942,205.304c.058-.058.086-.104.127-.12.016-.006.077.049.084.083.012.06-.028.105-.094.099-.029-.002-.057-.029-.117-.061Z" fill="#a7caec"/>
              <path d="M88.699,205.703c-.043-.055-.085-.085-.084-.114.001-.031.044-.06.068-.09.029.025.076.047.082.077.006.029-.032.065-.066.126Z" fill="#a7caec"/>
              <path d="M88.523,204.521c.04.05.079.078.079.105,0,.028-.039.056-.061.084-.029-.024-.073-.044-.083-.075-.007-.023.031-.059.065-.114Z" fill="#a7caec"/>
              <path d="M87.869,202.481c.042.054.083.083.081.109-.003.029-.04.067-.07.075-.017.005-.067-.037-.07-.062-.004-.029.028-.062.059-.122Z" fill="#a7caec"/>
              <path d="M89.213,203.389c.053-.039.082-.077.108-.075.028.002.053.042.08.066-.024.027-.045.069-.072.075-.025.005-.059-.031-.115-.065Z" fill="#a7caec"/>
              <path d="M89.849,203.197c.045-.038.07-.075.093-.074.025,0,.067.035.069.058.002.023-.032.065-.057.07-.023.005-.055-.026-.105-.054Z" fill="#a7caec"/>
              <path d="M87.924,205.746c.046-.037.07-.071.096-.073.022-.001.068.036.066.053-.003.029-.03.069-.056.077-.021.006-.054-.027-.106-.057Z" fill="#a7caec"/>
              <path d="M87.657,205.264c-.047.037-.073.073-.097.072-.027-.001-.051-.037-.077-.058.022-.025.04-.064.066-.07.024-.005.055.027.108.056Z" fill="#a7caec"/>
              <path d="M91.739,204.168c.037-.03.063-.065.081-.062.027.005.048.039.072.06-.023.023-.043.057-.07.063-.018.004-.045-.032-.083-.062Z" fill="#a7caec"/>
              <path d="M92.2,205.564c-.029-.041-.063-.07-.059-.09.006-.026.042-.046.065-.068.019.023.053.045.054.069,0,.023-.031.048-.06.089Z" fill="#a7caec"/>
              <path d="M88.739,204.882c.031.035.065.056.063.074-.003.026-.031.049-.048.073-.021-.021-.053-.038-.06-.063-.005-.018.023-.045.046-.085Z" fill="#a7caec"/>
              <path d="M89.437,205.044c.029.034.056.053.061.076.003.014-.033.052-.044.05-.024-.006-.051-.027-.06-.049-.005-.013.021-.04.043-.076Z" fill="#a7caec"/>
            </g>
            <g>
              <path d="M94.511,205.554c.025.076-.032.137-.081.145-.059.01-.115-.026-.128-.082-.013-.059.023-.117.083-.131.01-.002.02-.003.029-.005.082-.017.088-.012.097.073Z" fill="#a7caec"/>
              <path d="M92.843,205.145c.053-.008.103.029.111.083.009.056-.028.107-.084.114-.053.006-.103-.032-.11-.085-.008-.053.03-.104.083-.111Z" fill="#a7caec"/>
              <path d="M93.436,206.169c.045-.006.075.02.083.071.008.049-.024.094-.072.101-.046.006-.088-.027-.094-.074-.006-.049.028-.09.083-.097Z" fill="#a7caec"/>
              <path d="M93.865,206.604c-.046.005-.086-.026-.091-.071-.005-.045.028-.084.073-.09.049-.006.092.026.097.071.005.045-.03.084-.079.09Z" fill="#a7caec"/>
              <path d="M93.846,205.408c.045-.006.087.025.094.069.007.045-.025.086-.07.092-.046.006-.086-.024-.093-.069-.007-.046.023-.086.069-.092Z" fill="#a7caec"/>
              <path d="M94.855,206.24c.043-.004.081.028.085.072.003.041-.027.078-.068.084-.044.006-.082-.025-.087-.069-.005-.043.026-.082.07-.087Z" fill="#a7caec"/>
              <path d="M92.494,205.557c-.004-.042.025-.078.067-.083.044-.005.082.025.086.069.004.042-.026.079-.067.084-.044.005-.082-.025-.086-.07Z" fill="#a7caec"/>
              <path d="M94.458,206.499c-.04.004-.074-.023-.077-.06-.003-.039.028-.076.066-.08.039-.004.071.022.076.061.005.041-.023.074-.065.078Z" fill="#a7caec"/>
              <path d="M92.992,204.792c.011-.001.023-.004.034-.004.035,0,.056.018.057.054,0,.036-.022.054-.056.056-.018.001-.036-.004-.054-.003-.033,0-.056-.012-.058-.046-.002-.035.02-.049.052-.052.008,0,.016-.002.024-.003h0Z" fill="#a7caec"/>
              <path d="M93.15,206.666c-.038.006-.075-.02-.08-.056-.005-.037.026-.076.064-.081.036-.005.073.024.077.061.004.037-.023.071-.061.077Z" fill="#a7caec"/>
              <path d="M94.207,204.476c-.007-.042.014-.076.05-.083.034-.006.07.02.076.055.006.036-.038.095-.074.099-.028.003-.044-.017-.052-.071Z" fill="#a7caec"/>
              <path d="M94.596,204.852c-.038.004-.072-.025-.074-.064-.002-.041.019-.066.059-.073.039-.006.072.021.076.061.004.039-.023.072-.062.076Z" fill="#a7caec"/>
              <path d="M93.618,204.32c.037-.003.071.028.074.066.003.038-.022.068-.06.071-.038.003-.072-.026-.075-.064-.003-.036.026-.07.061-.073Z" fill="#a7caec"/>
              <path d="M93.263,205.239c-.004-.036.022-.07.057-.075.037-.005.072.024.075.062.003.036-.024.069-.059.073-.035.003-.069-.024-.073-.06Z" fill="#a7caec"/>
              <path d="M94.135,205.105c0,.032-.017.056-.053.061-.034.005-.068-.022-.07-.055-.002-.036.018-.06.053-.066.033-.006.066.022.07.06Z" fill="#a7caec"/>
              <path d="M92.853,205.898c-.019.018-.036.045-.058.052-.034.011-.057-.014-.062-.047-.005-.034.014-.063.047-.063.023,0,.047.022.07.035l.003.023Z" fill="#a7caec"/>
              <path d="M93.829,205.973c.027-.03.04-.053.06-.062.008-.004.039.022.043.039.007.029-.011.052-.044.051-.014,0-.029-.013-.059-.027Z" fill="#a7caec"/>
              <path d="M93.227,206.199c-.022-.026-.044-.04-.044-.054,0-.015.02-.03.031-.046.015.012.039.022.042.036.003.014-.014.033-.029.064Z" fill="#a7caec"/>
              <path d="M93.112,205.622c.021.024.041.037.041.05,0,.014-.018.029-.028.043-.015-.011-.037-.02-.042-.035-.004-.011.014-.03.029-.058Z" fill="#a7caec"/>
              <path d="M92.741,204.633c.022.026.043.039.042.052,0,.014-.018.034-.033.039-.008.003-.034-.017-.036-.029-.002-.014.012-.031.026-.062Z" fill="#a7caec"/>
              <path d="M93.424,205.048c.025-.021.039-.04.051-.04.014,0,.027.019.041.03-.011.014-.02.035-.034.039-.012.003-.03-.014-.058-.029Z" fill="#a7caec"/>
              <path d="M93.733,204.938c.021-.02.032-.039.044-.039.012,0,.034.016.036.027.002.011-.014.033-.027.036-.011.003-.028-.012-.053-.024Z" fill="#a7caec"/>
              <path d="M92.846,206.239c.022-.019.033-.037.045-.038.011-.001.034.016.034.025,0,.014-.013.035-.026.039-.01.004-.027-.012-.054-.026Z" fill="#a7caec"/>
              <path d="M92.703,206.008c-.022.019-.034.038-.046.038-.013,0-.026-.017-.039-.027.01-.013.018-.033.031-.036.012-.003.028.012.055.025Z" fill="#a7caec"/>
              <path d="M94.687,205.371c.017-.015.029-.034.038-.032.013.002.025.018.037.028-.011.012-.02.029-.033.033-.009.002-.023-.015-.042-.028Z" fill="#a7caec"/>
              <path d="M94.947,206.047c-.015-.02-.033-.033-.031-.043.002-.013.02-.024.03-.035.01.011.027.021.028.033.001.012-.014.025-.028.045Z" fill="#a7caec"/>
              <path d="M93.227,205.794c.016.016.033.026.033.035,0,.013-.014.025-.022.037-.011-.01-.027-.017-.031-.029-.003-.009.01-.023.021-.043Z" fill="#a7caec"/>
              <path d="M93.574,205.857c.015.016.029.025.032.036.002.007-.015.026-.02.025-.012-.002-.026-.012-.031-.023-.003-.006.01-.02.019-.038Z" fill="#a7caec"/>
            </g>
          </g>
        </g>
        <g clip-path="url(#o)">
          <g>
            <circle cx="215.384" cy="122.635" r="6.669" fill="#e86170"/>
            <circle cx="214.501" cy="122.651" r="5.096" fill="#6498d1" mix-blend-mode="multiply" opacity=".25"/>
            <path d="M214.198,106.232l9.643-5.943c.607-.374.475-1.292-.212-1.48l-10.924-2.994c-.566-.155-1.106.321-1.022.902l1.282,8.937c.083.581.735.886,1.235.578Z" fill="#e86170"/>
            <path d="M212.978,94.687h0c.48,0,.869.39.869.869v21.471h-1.739v-21.471c0-.48.39-.869.869-.869Z" transform="translate(-12.87 31.304) rotate(-8.161)" fill="#42496f"/>
            <path d="M213.199,114.258h2.414c.469,0,.849.38.849.849v2.263h-4.112v-2.263c0-.469.38-.849.849-.849Z" transform="translate(-14.269 31.607) rotate(-8.161)" fill="#e86170"/>
          </g>
        </g>
      </g>
    </g>
  </g>
</svg>