<?xml version="1.0" encoding="UTF-8"?><svg xmlns="http://www.w3.org/2000/svg" xmlns:xlink="http://www.w3.org/1999/xlink" viewBox="0 0 300 300"><defs><style>.cls-1{fill:#f4af13;}.cls-2{fill:#fff;}.cls-3{fill:#e86170;}.cls-4,.cls-5{fill:none;}.cls-6{fill:#a7caec;}.cls-7{clip-path:url(#clippath-1);}.cls-8{filter:url(#drop-shadow-1);}.cls-9{isolation:isolate;}.cls-5{stroke:#f4af13;stroke-linecap:round;stroke-linejoin:round;stroke-width:3px;}.cls-10{fill:#42496f;}.cls-11{clip-path:url(#clippath);}.cls-12{fill:#6498d1;mix-blend-mode:multiply;opacity:.25;}</style><filter id="drop-shadow-1" x="135.59" y="145.53" width="30.04" height="31.11" filterUnits="userSpaceOnUse"><feOffset dx="-2" dy="0"/><feGaussianBlur result="blur" stdDeviation="0"/><feFlood flood-color="#42496f" flood-opacity="1"/><feComposite in2="blur" operator="in"/><feComposite in="SourceGraphic"/></filter><clipPath id="clippath"><path class="cls-4" d="M162.64,171.75s-22.71-1.04-25.05-1.3c.83,2.05,3.56,4.63,8.05,5.41,0,0,13.58-1.33,15.59-1.54,1.27-.86,1.41-2.57,1.41-2.57Z"/></clipPath><clipPath id="clippath-1"><path class="cls-4" d="M235.76,119.26c-3.95,3.8-8.7.63-8.7.63-4.42,2.51-8.39,1.78-10.43,1.09-.18.19-.43.31-.7.31-.48,0-.88-.35-.95-.81-8.11,4.13-9.59-1.37-9.59-1.37-6.56,5.46-14.23,3.8-14.23,3.8l-.47-29.78h52.51v28.04c-3.8,0-7.43-1.9-7.43-1.9Z"/></clipPath></defs><g class="cls-9"><g id="Calque_5"><path class="cls-5" d="M106.48,202.91c15.06-.73,26.98,1.88,38.98,1.32,17.36-.81,30.95-7.5,27.05-17.01-3.35-8.16-16.59-12.3-31.08-16.4"/><circle class="cls-1" cx="140.18" cy="170.47" r="5.02"/><g class="cls-8"><path class="cls-3" d="M154.22,148.83s-13.02,14.31-16.15,20.96c4.53-1.33,11.18-1.02,13.66-.32l2.5-20.64Z"/><path class="cls-12" d="M153.96,149.91s-4.94,15.21-7.11,17.42c0,0,3.98,1.16,4.87,2.15l2.24-19.57Z"/><path class="cls-3" d="M154.29,149.82s7.32,16.87,10.44,20l-12.52-.92,2.08-19.08Z"/><path class="cls-12" d="M154.12,150.56s1.84,15.68,7.43,18.89l-9.31-.63,1.88-18.26Z"/><polygon class="cls-2" points="154.7 146.47 154.35 146.43 151.04 171.42 152.22 171.55 154.7 146.47"/><path class="cls-2" d="M162.64,171.75s-22.71-1.04-25.05-1.3c.83,2.05,3.56,4.63,8.05,5.41,0,0,13.58-1.33,15.59-1.54,1.27-.86,1.41-2.57,1.41-2.57Z"/><g class="cls-11"><path class="cls-12" d="M145.32,176.64s-3.31-.69-5.73-4.2c-.2-.3.01-.7.37-.7,3.54.07,17.7.29,21.69.43.37.01.65.36.58.72-.13.66-.49,1.61-1.41,2.04l-15.5,1.7Z"/></g><polygon class="cls-2" points="165.54 170.14 152.24 169.35 152.24 168.82 165.63 169.8 165.54 170.14"/><path class="cls-3" d="M154.04,146.25c-.73-.54-1.78-1.13-2.83-.3-3.34,2.64-2.92-.08-5.36.32,1.6.25,1.83,2.69,4.53,2.59,1.67-.06,1.64-1.03,3.37.03l.29-2.65Z"/></g><path class="cls-6" d="M138.66,175.8c.37-.34,1.05-.64,1.71-.7,1.19-.1,1.55.14,1.55.14,1.51-1.01,4.49-3.1,7.07-2.27s-6.45,4.83-6.96,4.47,2.62-1.89,1.97-1.92c-.7-.03-1.8.14-2.43.33-.88-.26-3.79.74-2.91-.06Z"/><path class="cls-2" d="M149.18,173.19c.1-.01.16.07.15.13,0,.07-.06.13-.13.13-.07,0-.14-.06-.14-.13,0-.01,0-.02,0-.04,0-.1,0-.11.11-.1Z"/><path class="cls-2" d="M148.3,175.09c0-.07.06-.12.12-.11.07,0,.12.06.12.13,0,.06-.06.12-.13.11-.07,0-.12-.06-.11-.13Z"/><path class="cls-2" d="M149.67,174.62c0-.06.04-.09.1-.08.06,0,.11.05.1.11,0,.06-.05.1-.11.1-.06,0-.1-.05-.1-.12Z"/><path class="cls-2" d="M150.29,174.21c0,.06-.05.1-.11.09-.05,0-.09-.05-.09-.11,0-.06.05-.1.11-.1.06,0,.09.06.09.12Z"/><path class="cls-2" d="M148.85,173.95c0-.05.05-.1.1-.1.06,0,.1.05.09.11,0,.06-.05.1-.1.1-.06,0-.1-.05-.09-.1Z"/><path class="cls-2" d="M150.08,172.94c0-.05.05-.09.11-.08.05,0,.09.05.08.1,0,.05-.05.09-.1.09-.05,0-.09-.05-.09-.1Z"/><path class="cls-2" d="M148.71,175.61c-.05,0-.09-.05-.08-.1,0-.05.05-.09.1-.09.05,0,.09.05.08.1,0,.05-.05.09-.1.09Z"/><path class="cls-2" d="M150.3,173.47s-.04.08-.09.08c-.05,0-.08-.05-.08-.1,0-.05.04-.08.09-.08.05,0,.08.05.08.1Z"/><path class="cls-2" d="M147.91,174.83s0-.03,0-.04c0-.04.04-.06.08-.06.04,0,.06.04.05.08,0,.02-.01.04-.02.06,0,.04-.03.06-.07.06-.04,0-.05-.04-.05-.07,0,0,0-.02,0-.03h0Z"/><path class="cls-2" d="M150.19,175.08s-.04.08-.09.08c-.05,0-.08-.05-.08-.1,0-.04.05-.08.09-.08.05,0,.08.04.08.09Z"/><path class="cls-2" d="M147.82,173.3c-.05,0-.09-.03-.09-.08,0-.04.04-.08.08-.08.04,0,.1.07.1.11,0,.03-.03.05-.1.05Z"/><path class="cls-2" d="M148.36,172.92s-.05.08-.09.07c-.05,0-.07-.04-.07-.09,0-.05.04-.08.09-.08.05,0,.08.04.08.09Z"/><path class="cls-2" d="M147.49,173.97s.05-.08.1-.07c.05,0,.08.04.07.09,0,.05-.05.08-.09.07-.04,0-.08-.05-.07-.09Z"/><path class="cls-2" d="M148.51,174.61s-.08-.04-.08-.09c0-.05.05-.08.09-.08.04,0,.08.04.07.09,0,.04-.04.08-.09.07Z"/><path class="cls-2" d="M148.56,173.53s.06.03.06.08c0,.04-.04.08-.08.07-.04,0-.07-.04-.07-.08,0-.04.04-.07.09-.07Z"/><path class="cls-2" d="M149.21,175.26s.05.05.05.08c0,.04-.03.07-.07.06-.04,0-.07-.03-.06-.07,0-.03.04-.05.06-.08h.03Z"/><path class="cls-2" d="M149.52,174.1s-.05-.06-.06-.09c0-.01.04-.04.06-.04.04,0,.06.03.05.06,0,.02-.02.03-.05.06Z"/><path class="cls-2" d="M149.65,174.88s-.06.04-.08.04c-.02,0-.03-.03-.05-.05.02-.02.03-.04.05-.04.02,0,.04.02.07.05Z"/><path class="cls-2" d="M148.93,174.88s.05-.04.07-.04c.02,0,.03.03.04.04-.02.02-.03.04-.05.04-.01,0-.03-.02-.06-.05Z"/><path class="cls-2" d="M147.66,175.09s.06-.04.07-.04c.02,0,.04.03.04.05,0,.01-.03.04-.04.04-.02,0-.03-.02-.07-.05Z"/><path class="cls-2" d="M148.32,174.37s-.04-.06-.04-.07c0-.02.03-.03.05-.04.01.02.04.03.04.05,0,.02-.02.03-.05.06Z"/><path class="cls-2" d="M148.26,173.98s-.04-.05-.04-.06c0-.01.03-.04.04-.04.01,0,.04.02.04.04,0,.01-.02.03-.04.06Z"/><path class="cls-2" d="M149.61,175.34s-.04-.05-.03-.06c0-.01.03-.04.04-.03.02,0,.04.02.04.04,0,.01-.02.03-.04.06Z"/><path class="cls-2" d="M149.3,175.46s.04.05.03.06c0,.02-.03.03-.04.04-.01-.02-.03-.03-.04-.05,0-.01.02-.03.04-.06Z"/><path class="cls-2" d="M149,172.93s-.03-.04-.03-.05c0-.02.03-.03.04-.04.01.02.03.03.03.05,0,.01-.02.02-.04.04Z"/><path class="cls-2" d="M149.87,172.78s-.05.03-.06.03c-.02,0-.02-.03-.03-.04.02,0,.03-.03.05-.03.01,0,.03.02.05.04Z"/><path class="cls-2" d="M149.17,174.78s.04-.03.05-.03c.02,0,.03.02.04.04-.01.01-.03.03-.04.03-.01,0-.02-.02-.05-.03Z"/><path class="cls-2" d="M149.32,174.38s.04-.03.05-.03c0,0,.03.02.03.03,0,.01-.02.03-.03.03,0,0-.02-.02-.04-.03Z"/><path class="cls-6" d="M144.89,175.74s1.91-.04,3.75-.46,2.69-1.06,3.72-1.11-.88.91-.88.91c0,0,1.74-.47,2.56-.27.64.15-.53.63-.53.63,0,0,2.58-.5,3.49-.39s2.51.2,3.83-.11-.56.63-1.71.74-1.8-.21-3.28.1-3.9.22-3.95.03,1.5-.41.95-.44c-.31-.02-.73.06-1.79.25-2,.35-5.37.86-6.15.13Z"/><path class="cls-6" d="M153.49,175.07s.63-.12,2.24-.24,1.93-.35,3-.41,4.47-.24,5.82-.31,2.42-.26,2.75-.27c1.64-.08-2.06.45-3.04.5s-1.68-.03-2.58.04-3.11.39-4.14.42-2.86.57-3.14.63c-1.23.25-1.89-.22-.92-.36Z"/><path class="cls-6" d="M152.61,174.15c-.04-.09.02-.18.09-.2.07-.02.15.02.18.09.03.07-.01.15-.09.18-.01,0-.02,0-.04.01-.1.03-.11.03-.13-.08Z"/><path class="cls-6" d="M154.82,174.46c-.07.02-.14-.02-.15-.09-.02-.07.02-.14.09-.16.07-.02.14.03.15.1.02.07-.03.14-.09.15Z"/><path class="cls-6" d="M153.92,173.21c-.06.01-.1-.02-.12-.08-.02-.06.02-.12.08-.14.06-.01.12.02.13.08.01.06-.02.12-.09.14Z"/><path class="cls-6" d="M153.31,172.71c.06-.01.11.02.13.08.01.06-.02.11-.08.13-.06.01-.12-.02-.13-.08-.01-.06.03-.11.09-.13Z"/><path class="cls-6" d="M153.49,174.25c-.06.01-.12-.02-.13-.08-.01-.06.02-.11.08-.13.06-.01.11.02.13.08.02.06-.02.11-.08.13Z"/><path class="cls-6" d="M152.08,173.31c-.05.01-.11-.03-.12-.08,0-.05.02-.1.08-.12.06-.01.11.02.12.08.01.06-.02.11-.08.12Z"/><path class="cls-6" d="M155.22,173.88c.01.05-.02.1-.08.12-.06.01-.11-.02-.12-.08-.01-.05.02-.1.08-.12.06-.01.11.02.12.08Z"/><path class="cls-6" d="M152.56,172.92c.05-.01.1.02.11.07,0,.05-.03.1-.07.11-.05.01-.1-.02-.11-.07-.01-.05.02-.1.07-.11Z"/><path class="cls-6" d="M154.68,174.93s-.03,0-.04,0c-.05,0-.08-.02-.08-.06,0-.05.02-.07.06-.08.02,0,.05,0,.07,0,.04,0,.07,0,.08.05,0,.04-.02.07-.06.07-.01,0-.02,0-.03,0h0Z"/><path class="cls-6" d="M154.22,172.53s.1.02.11.06c.01.05-.02.1-.07.11-.05.01-.1-.02-.11-.07-.01-.05.02-.09.07-.11Z"/><path class="cls-6" d="M153.15,175.5c.01.05,0,.1-.05.11-.04.01-.09-.02-.11-.06-.01-.05.04-.13.08-.14.04,0,.06.02.08.08Z"/><path class="cls-6" d="M152.6,175.07s.1.02.1.07c0,.05-.02.09-.07.1-.05.01-.1-.02-.11-.07-.01-.05.02-.1.07-.11Z"/><path class="cls-6" d="M153.93,175.63s-.1-.03-.1-.07c0-.05.02-.09.07-.1.05,0,.1.02.11.07,0,.05-.02.09-.07.1Z"/><path class="cls-6" d="M154.27,174.39s-.02.09-.06.1c-.05.01-.1-.02-.11-.07,0-.05.02-.09.07-.1.04,0,.09.02.1.07Z"/><path class="cls-6" d="M153.16,174.68s.01-.07.06-.09c.04-.01.09.02.1.06,0,.05-.01.08-.06.09-.04.01-.09-.02-.1-.07Z"/><path class="cls-6" d="M154.71,173.49s.04-.06.07-.08c.04-.02.08.01.09.05.01.04-.01.08-.05.09-.03,0-.06-.02-.1-.04v-.03Z"/><path class="cls-6" d="M153.44,173.52s-.04.07-.07.09c0,0-.05-.02-.06-.04-.01-.04,0-.07.05-.07.02,0,.04.01.08.03Z"/><path class="cls-6" d="M154.19,173.15s.06.05.06.06c0,.02-.02.04-.03.06-.02-.01-.05-.02-.06-.04,0-.02.01-.04.03-.09Z"/><path class="cls-6" d="M154.41,173.88s-.06-.04-.06-.06c0-.02.02-.04.03-.06.02.01.05.02.06.04,0,.01-.01.04-.03.08Z"/><path class="cls-6" d="M155.02,175.1s-.06-.04-.06-.06c0-.02.02-.05.04-.05.01,0,.05.02.05.03,0,.02-.01.04-.03.08Z"/><path class="cls-6" d="M154.08,174.66s-.04.06-.06.06c-.02,0-.04-.02-.06-.03.01-.02.02-.05.04-.05.02,0,.04.01.08.03Z"/><path class="cls-6" d="M153.7,174.84s-.04.05-.05.06c-.02,0-.05-.02-.05-.03,0-.01.01-.04.03-.05.01,0,.04.01.07.02Z"/><path class="cls-6" d="M154.67,173.04s-.04.05-.05.06c-.01,0-.05-.02-.05-.03,0-.02.01-.05.03-.05.01,0,.04.01.07.03Z"/><path class="cls-6" d="M154.89,173.32s.04-.05.05-.05c.02,0,.04.02.05.03-.01.02-.02.04-.04.05-.01,0-.04-.01-.07-.02Z"/><path class="cls-6" d="M152.41,174.41s-.03.05-.05.05c-.02,0-.03-.02-.05-.03.01-.02.02-.04.04-.05.01,0,.03.02.06.03Z"/><path class="cls-6" d="M151.98,173.57s.05.04.05.05c0,.02-.02.03-.03.05-.01-.01-.04-.02-.04-.04,0-.01.01-.03.03-.06Z"/><path class="cls-6" d="M154.24,173.67s-.05-.03-.05-.04c0-.02.01-.03.02-.05.02.01.04.02.04.03,0,.01-.01.03-.02.06Z"/><path class="cls-6" d="M153.78,173.64s-.04-.03-.05-.04c0,0,.02-.04.02-.04.02,0,.04.01.04.03,0,0,0,.03-.02.05Z"/><path class="cls-6" d="M149.72,174.38c0-.07.06-.12.1-.11.05,0,.1.05.1.1,0,.06-.05.1-.1.1,0,0-.02,0-.03,0-.08,0-.08,0-.07-.09Z"/><path class="cls-6" d="M151.13,175.12s-.09-.05-.08-.1c0-.05.05-.09.1-.08.05,0,.09.05.08.1,0,.05-.05.09-.1.08Z"/><path class="cls-6" d="M150.82,174.07s-.06-.03-.06-.08c0-.05.04-.08.09-.07.04,0,.07.04.07.09,0,.05-.04.07-.1.07Z"/><path class="cls-6" d="M150.53,173.58s.07.04.07.08c0,.04-.04.07-.09.06-.05,0-.08-.04-.07-.08,0-.04.05-.07.09-.06Z"/><path class="cls-6" d="M150.29,174.66s-.07-.04-.07-.08c0-.04.04-.07.08-.07.04,0,.07.04.07.08,0,.04-.04.07-.08.07Z"/><path class="cls-6" d="M149.56,173.69s-.07-.04-.06-.08c0-.04.04-.06.08-.06.04,0,.07.04.06.08,0,.04-.04.07-.08.06Z"/><path class="cls-6" d="M151.53,174.82s-.04.06-.08.06c-.04,0-.07-.04-.06-.08,0-.04.04-.06.08-.06.04,0,.07.04.06.08Z"/><path class="cls-6" d="M149.98,173.55s.06.04.06.07c0,.04-.04.06-.08.06-.04,0-.06-.04-.05-.07,0-.04.04-.06.08-.06Z"/><path class="cls-6" d="M150.92,175.4s-.02,0-.03,0c-.03,0-.05-.03-.04-.06,0-.03.03-.04.06-.04.02,0,.03.01.05.01.03,0,.05.02.04.05,0,.03-.03.04-.06.04,0,0-.02,0-.02,0h0Z"/><path class="cls-6" d="M151.19,173.68s.06.03.06.07c0,.03-.04.06-.07.06-.03,0-.06-.04-.06-.07,0-.03.04-.06.07-.06Z"/><path class="cls-6" d="M149.76,175.42s-.03.07-.06.06c-.03,0-.06-.03-.06-.07,0-.03.06-.08.09-.07.03,0,.04.03.03.08Z"/><path class="cls-6" d="M149.49,174.99s.06.04.05.07c0,.04-.03.06-.07.05-.04,0-.06-.03-.05-.07,0-.04.04-.06.07-.05Z"/><path class="cls-6" d="M150.25,175.69s-.06-.04-.05-.08c0-.04.03-.06.07-.05.03,0,.06.04.05.07,0,.03-.04.06-.07.05Z"/><path class="cls-6" d="M150.77,174.94s-.04.06-.07.06c-.03,0-.06-.04-.05-.07,0-.03.04-.06.07-.05.03,0,.06.04.05.07Z"/><path class="cls-6" d="M149.96,174.87s.03-.05.06-.04c.03,0,.06.03.05.06,0,.03-.03.05-.06.05-.03,0-.05-.03-.05-.07Z"/><path class="cls-6" d="M151.29,174.44s.04-.03.06-.03c.03,0,.05.02.05.06,0,.03-.03.05-.06.05-.02,0-.04-.03-.06-.05v-.02Z"/><path class="cls-6" d="M150.43,174.16s-.05.04-.07.04c0,0-.03-.03-.03-.04,0-.03.02-.04.05-.04.01,0,.02.02.05.04Z"/><path class="cls-6" d="M151.02,174.08s.03.05.03.06c0,.01-.02.02-.04.03-.01-.01-.03-.03-.03-.04,0-.01.02-.03.04-.05Z"/><path class="cls-6" d="M150.99,174.63s-.03-.04-.03-.05c0-.01.02-.02.03-.03.01.01.03.03.03.04,0,.01-.02.02-.04.05Z"/><path class="cls-6" d="M151.11,175.6s-.03-.04-.03-.06c0-.01.02-.03.04-.03,0,0,.03.02.03.03,0,.01-.02.03-.04.05Z"/><path class="cls-6" d="M150.59,175.07s-.04.03-.05.02c-.01,0-.02-.02-.03-.04.01,0,.03-.03.04-.03.01,0,.02.02.05.04Z"/><path class="cls-6" d="M150.29,175.11s-.04.03-.05.03c-.01,0-.03-.02-.03-.03,0-.01.02-.03.03-.03.01,0,.02.02.04.03Z"/><path class="cls-6" d="M151.37,174.13s-.04.03-.05.02c-.01,0-.03-.02-.03-.03,0-.01.02-.03.03-.03.01,0,.02.02.04.03Z"/><path class="cls-6" d="M151.44,174.37s.04-.03.05-.02c.01,0,.02.02.03.03-.01,0-.02.03-.04.03-.01,0-.02-.02-.04-.03Z"/><path class="cls-6" d="M149.52,174.51s-.03.02-.04.02c-.01,0-.02-.02-.03-.03.01,0,.02-.02.04-.02,0,0,.02.02.03.03Z"/><path class="cls-6" d="M149.44,173.84s.02.04.02.05c0,.01-.02.02-.04.02,0-.01-.02-.02-.02-.04,0-.01.02-.02.03-.03Z"/><path class="cls-6" d="M150.93,174.45s-.02-.03-.02-.04c0-.01.02-.02.03-.03,0,.01.02.02.02.03,0,0-.01.02-.03.03Z"/><path class="cls-6" d="M150.63,174.32s-.02-.03-.02-.04c0,0,.02-.02.02-.02.01,0,.02.02.02.03,0,0-.01.02-.03.03Z"/><path class="cls-6" d="M147.97,171.61c.08-.1.21-.08.27-.02.06.07.07.18,0,.25-.07.07-.18.07-.25,0-.01-.01-.02-.02-.03-.04-.09-.1-.09-.11.01-.2Z"/><path class="cls-6" d="M148.88,174.24c-.06-.07-.05-.17.01-.22.07-.06.17-.06.23.01.06.07.05.17-.02.23-.07.06-.17.05-.22-.02Z"/><path class="cls-6" d="M149.75,172.53c-.05-.06-.04-.12.02-.18.06-.05.15-.05.2,0,.05.06.04.14-.02.19-.06.05-.15.04-.21-.03Z"/><path class="cls-6" d="M149.97,171.56c.05.06.04.14-.02.19-.06.05-.14.04-.19-.02-.05-.06-.05-.15.01-.19.06-.05.14-.03.19.03Z"/><path class="cls-6" d="M148.35,172.64c-.05-.06-.04-.14.01-.19.05-.05.14-.04.19.01.05.06.04.14-.01.19-.06.05-.14.04-.19-.01Z"/><path class="cls-6" d="M148.6,170.54c-.04-.05-.03-.14.02-.18.05-.04.13-.03.17.02.05.05.04.13-.02.18-.05.04-.13.04-.18-.02Z"/><path class="cls-6" d="M149.75,174.35c-.05.04-.13.04-.17-.02-.05-.06-.04-.13.02-.18.05-.04.13-.03.17.02.05.06.04.13-.02.18Z"/><path class="cls-6" d="M149.3,170.85c.04.05.03.12-.01.16-.05.04-.13.03-.17-.02-.04-.05-.03-.12.02-.16.05-.04.12-.03.16.02Z"/><path class="cls-6" d="M148.27,174.35s-.03-.03-.04-.04c-.03-.05-.02-.09.02-.13.05-.03.09-.02.12.03.02.02.03.05.04.08.03.04.03.09-.01.12-.05.03-.08.02-.12-.02,0-.01-.02-.02-.03-.03h0Z"/><path class="cls-6" d="M150.68,172.48s.04.12,0,.16c-.05.04-.13.03-.17-.02-.04-.04-.03-.12.01-.16.05-.04.12-.03.16.02Z"/><path class="cls-6" d="M146.77,172.98c-.05.05-.12.05-.16,0-.04-.04-.04-.11,0-.15.04-.04.16-.03.2.01.03.04.01.07-.05.13Z"/><path class="cls-6" d="M146.93,172.11s.03.12-.02.16c-.05.04-.11.03-.15-.02-.04-.05-.03-.12.02-.16.05-.04.12-.03.16.02Z"/><path class="cls-6" d="M147.07,173.91s-.03-.12.02-.16c.05-.04.11-.03.15.02.04.05.03.12-.02.16-.05.04-.12.03-.15-.02Z"/><path class="cls-6" d="M148.64,173.59s-.11.03-.15-.01c-.04-.05-.03-.12.02-.16.05-.04.12-.03.15.02.04.04.03.11-.02.15Z"/><path class="cls-6" d="M147.69,172.52s.09-.03.13.02c.04.04.03.11-.01.14-.05.03-.1.03-.14-.01-.04-.04-.03-.11.02-.15Z"/><path class="cls-6" d="M149.9,173.56s.09,0,.12.03c.04.04.03.09,0,.13-.04.04-.1.04-.13,0-.02-.03-.01-.08-.01-.13l.03-.02Z"/><path class="cls-6" d="M149.14,172.17c-.06-.01-.11,0-.14-.03-.01,0,0-.07.01-.09.03-.04.08-.03.11.01.01.02,0,.05.01.1Z"/><path class="cls-6" d="M149.98,172.79c-.02.05-.02.1-.03.11-.02.01-.06,0-.09,0,0-.03,0-.07.01-.09.02-.02.06,0,.11-.02Z"/><path class="cls-6" d="M149.29,173.46s.01-.09.03-.1c.02-.01.05,0,.08,0,0,.03,0,.07-.01.09-.01.02-.05,0-.1.01Z"/><path class="cls-6" d="M148.27,174.83c.02-.05.02-.09.03-.1.02-.01.06,0,.08.01.01,0,0,.06,0,.07-.02.02-.05.01-.11.02Z"/><path class="cls-6" d="M148.23,173.54c-.05-.02-.09-.02-.1-.03-.01-.02,0-.05,0-.08.03,0,.07,0,.08.01.02.01,0,.05.01.11Z"/><path class="cls-6" d="M147.81,173.21s-.08-.01-.09-.03c-.01-.02,0-.06,0-.07.01-.01.06,0,.07,0,.01.01,0,.05.01.09Z"/><path class="cls-6" d="M150.37,173.27s-.08-.01-.09-.03c-.01-.01,0-.06,0-.07.02-.01.06-.01.08,0,.01.01,0,.05.01.1Z"/><path class="cls-6" d="M150.18,173.67s.08.01.09.03c.01.02,0,.05,0,.08-.03,0-.06,0-.08-.01-.01-.01,0-.05-.01-.1Z"/><path class="cls-6" d="M147.56,171.53s-.07-.01-.08-.02c0-.02,0-.05,0-.07.03,0,.06,0,.07.02.01,0,0,.04,0,.08Z"/><path class="cls-6" d="M148.25,170.58s-.02.07-.03.08c-.02,0-.05,0-.07-.01,0-.02,0-.06.02-.07.01-.01.05,0,.09,0Z"/><path class="cls-6" d="M149.43,173.15s0-.07.02-.08c.02-.01.05,0,.07,0,0,.02,0,.05-.01.07,0,.01-.04,0-.08,0Z"/><path class="cls-6" d="M149.2,172.62s0-.06.02-.08c0,0,.05,0,.05,0,0,.02,0,.05,0,.06,0,0-.04,0-.07,0Z"/><path class="cls-6" d="M144.95,173.45c-.05-.04-.04-.11-.01-.13.03-.03.09-.03.12,0,.04.03.04.09,0,.12,0,0-.01.01-.02.02-.05.05-.05.05-.1,0Z"/><path class="cls-6" d="M146.24,172.98s-.08.03-.11,0c-.03-.03-.03-.08,0-.11.03-.03.08-.02.11,0,.03.03.03.08,0,.11Z"/><path class="cls-6" d="M145.39,172.56s-.06.02-.09,0c-.03-.03-.03-.07,0-.1.03-.02.07-.02.1,0,.03.03.02.07-.01.1Z"/><path class="cls-6" d="M144.91,172.47s.07-.02.09,0c.02.03.02.07,0,.09-.03.03-.07.02-.1,0-.02-.03-.02-.07.01-.1Z"/><path class="cls-6" d="M145.46,173.25s-.07.02-.09,0c-.02-.03-.02-.07,0-.09.03-.02.07-.02.09,0,.03.03.02.07,0,.09Z"/><path class="cls-6" d="M144.42,173.15s-.07.02-.09,0c-.02-.03-.02-.06,0-.09.03-.02.07-.02.09,0,.02.03.02.07,0,.09Z"/><path class="cls-6" d="M146.29,172.55s.02.06,0,.09c-.03.02-.07.02-.09,0-.02-.03-.02-.06,0-.09.03-.02.07-.02.09,0Z"/><path class="cls-6" d="M144.57,172.8s.06-.02.08,0c.02.02.02.06,0,.08-.02.02-.06.02-.08,0-.02-.02-.02-.06,0-.08Z"/><path class="cls-6" d="M146.3,173.28s-.01.01-.02.02c-.02.02-.05.01-.06,0-.02-.02,0-.05.01-.06.01,0,.03-.01.04-.02.02-.02.04-.02.06,0,.02.02,0,.04-.01.06,0,0,0,0-.01.01h0Z"/><path class="cls-6" d="M145.36,172.1s.06-.02.08,0c.02.02.02.06,0,.08-.02.02-.06.02-.08,0-.02-.02-.02-.06,0-.08Z"/><path class="cls-6" d="M145.64,174.03s.02.06,0,.08c-.02.02-.06.02-.08,0-.02-.02-.02-.08,0-.1.02-.01.04,0,.07.02Z"/><path class="cls-6" d="M145.21,173.96s.06-.02.08,0c.02.03.02.05,0,.07-.02.02-.06.02-.08,0-.02-.02-.02-.06,0-.08Z"/><path class="cls-6" d="M146.1,173.87s-.06.01-.08-.01c-.02-.02-.02-.06,0-.07.02-.02.06-.01.08,0,.02.02.01.06,0,.08Z"/><path class="cls-6" d="M145.92,173.1s.02.06,0,.08c-.02.02-.06.02-.08,0-.02-.02-.02-.06,0-.07.02-.02.06-.01.08,0Z"/><path class="cls-6" d="M145.4,173.58s-.01-.04,0-.06c.02-.02.06-.02.07,0,.02.02.01.05,0,.07-.02.02-.05.01-.07,0Z"/><path class="cls-6" d="M145.9,172.48s0-.05.02-.06c.02-.02.04-.02.06,0,.02.02.02.05,0,.06-.02.01-.04,0-.06,0h-.01Z"/><path class="cls-6" d="M145.22,172.87s0,.05-.01.07c0,0-.04,0-.05,0-.02-.02-.02-.04,0-.05,0,0,.02,0,.05,0Z"/><path class="cls-6" d="M145.52,172.45s.05,0,.05.02c0,0,0,.03,0,.04-.02,0-.04,0-.04,0,0,0,0-.03,0-.06Z"/><path class="cls-6" d="M145.85,172.78s-.04,0-.05-.01c0,0,0-.03,0-.04.01,0,.03,0,.04,0,0,0,0,.03,0,.05Z"/><path class="cls-6" d="M146.54,173.27s-.05,0-.05-.02c0,0,0-.03,0-.04,0,0,.03,0,.04,0,0,0,0,.03.01.05Z"/><path class="cls-6" d="M145.9,173.3s0,.04-.02.05c0,0-.03,0-.04,0,0-.01,0-.03,0-.04,0,0,.03,0,.05,0Z"/><path class="cls-6" d="M145.75,173.51s0,.04-.01.05c0,0-.03,0-.04,0,0,0,0-.03,0-.04,0,0,.02,0,.05,0Z"/><path class="cls-6" d="M145.75,172.25s0,.04-.01.05c0,0-.03,0-.03,0,0,0,0-.03,0-.04,0,0,.02,0,.05,0Z"/><path class="cls-6" d="M145.95,172.34s0-.04.01-.05c0,0,.03,0,.04,0,0,.01,0,.03,0,.04,0,0-.02,0-.05,0Z"/><path class="cls-6" d="M144.92,173.65s0,.04-.01.04c0,0-.02,0-.04,0,0-.01,0-.03,0-.04,0,0,.02,0,.04,0Z"/><path class="cls-6" d="M144.44,173.32s.04,0,.04.01c0,0,0,.02,0,.04-.01,0-.03,0-.03,0,0,0,0-.02,0-.04Z"/><path class="cls-6" d="M145.7,172.72s-.03,0-.04,0c0,0,0-.02,0-.03.01,0,.03,0,.03,0,0,0,0,.02,0,.04Z"/><path class="cls-6" d="M145.44,172.83s-.03,0-.04,0c0,0,0-.02,0-.03,0,0,.02,0,.03,0,0,0,0,.02,0,.03Z"/><g class="cls-7"><circle class="cls-3" cx="215.38" cy="122.63" r="6.67"/><circle class="cls-12" cx="214.5" cy="122.65" r="5.1"/><path class="cls-3" d="M214.2,106.23l9.64-5.94c.61-.37.48-1.29-.21-1.48l-10.92-2.99c-.57-.16-1.11.32-1.02.9l1.28,8.94c.08.58.73.89,1.23.58Z"/><path class="cls-10" d="M212.98,94.69h0c.48,0,.87.39.87.87v21.47h-1.74v-21.47c0-.48.39-.87.87-.87Z" transform="translate(-12.87 31.3) rotate(-8.16)"/><path class="cls-3" d="M213.2,114.26h2.41c.47,0,.85.38.85.85v2.26h-4.11v-2.26c0-.47.38-.85.85-.85Z" transform="translate(-14.27 31.61) rotate(-8.16)"/></g></g></g></svg>