<?xml version="1.0" encoding="UTF-8"?><svg xmlns="http://www.w3.org/2000/svg" xmlns:xlink="http://www.w3.org/1999/xlink" viewBox="0 0 300 300"><defs><style>.cls-1{fill:#f4af13;}.cls-2{fill:#fff;}.cls-3{fill:#e86170;}.cls-4,.cls-5{fill:none;}.cls-6{fill:#a7caec;}.cls-7{clip-path:url(#clippath-1);}.cls-8{filter:url(#drop-shadow-1);}.cls-9{isolation:isolate;}.cls-5{stroke:#f4af13;stroke-linecap:round;stroke-linejoin:round;stroke-width:3px;}.cls-10{fill:#42496f;}.cls-11{clip-path:url(#clippath);}.cls-12{fill:#6498d1;mix-blend-mode:multiply;opacity:.25;}</style><filter id="drop-shadow-1" x="117.08" y="104.38" width="30.04" height="31.11" filterUnits="userSpaceOnUse"><feOffset dx="-2" dy="0"/><feGaussianBlur result="blur" stdDeviation="0"/><feFlood flood-color="#42496f" flood-opacity="1"/><feComposite in2="blur" operator="in"/><feComposite in="SourceGraphic"/></filter><clipPath id="clippath"><path class="cls-4" d="M122.07,130.59s22.71-1.04,25.05-1.3c-.83,2.05-3.56,4.63-8.05,5.41,0,0-13.58-1.33-15.59-1.54-1.27-.86-1.41-2.57-1.41-2.57Z"/></clipPath><clipPath id="clippath-1"><path class="cls-4" d="M235.76,119.26c-3.95,3.8-8.7.63-8.7.63-4.42,2.51-8.39,1.78-10.43,1.09-.18.19-.43.31-.7.31-.48,0-.88-.35-.95-.81-8.11,4.13-9.59-1.37-9.59-1.37-6.56,5.46-14.23,3.8-14.23,3.8l-.47-29.78h52.51v28.04c-3.8,0-7.43-1.9-7.43-1.9Z"/></clipPath></defs><g class="cls-9"><g id="Calque_8"><path class="cls-5" d="M106.48,202.91c15.06-.73,26.98,1.88,38.98,1.32,17.36-.81,30.95-7.5,27.05-17.01-8.92-21.75-88.24-14.97-73.75-54.93,4.51-12.43,22.98-17.72,43.86-4.04"/><circle class="cls-1" cx="143.12" cy="129.18" r="5.02"/><g class="cls-8"><path class="cls-3" d="M130.49,107.68s13.02,14.31,16.15,20.96c-4.53-1.33-11.18-1.02-13.66-.32l-2.5-20.64Z"/><path class="cls-12" d="M130.75,108.75s4.94,15.21,7.11,17.42c0,0-3.98,1.16-4.87,2.15l-2.24-19.57Z"/><path class="cls-3" d="M130.43,108.66s-7.32,16.87-10.44,20l12.52-.92-2.08-19.08Z"/><path class="cls-12" d="M130.59,109.4s-1.84,15.68-7.43,18.89l9.31-.63-1.88-18.26Z"/><polygon class="cls-2" points="130.01 105.31 130.36 105.27 133.67 130.26 132.49 130.4 130.01 105.31"/><path class="cls-2" d="M122.07,130.59s22.71-1.04,25.05-1.3c-.83,2.05-3.56,4.63-8.05,5.41,0,0-13.58-1.33-15.59-1.54-1.27-.86-1.41-2.57-1.41-2.57Z"/><g class="cls-11"><path class="cls-12" d="M139.39,135.49s3.31-.69,5.73-4.2c.2-.3-.01-.7-.37-.7-3.54.07-17.7.29-21.69.43-.37.01-.65.36-.58.72.13.66.49,1.61,1.41,2.04l15.5,1.7Z"/></g><polygon class="cls-2" points="119.17 128.99 132.47 128.19 132.47 127.66 119.08 128.64 119.17 128.99"/><path class="cls-3" d="M130.67,105.09c.73-.54,1.78-1.13,2.83-.3,3.34,2.64,2.92-.08,5.36.32-1.6.25-1.83,2.69-4.53,2.59-1.67-.06-1.64-1.03-3.37.03l-.29-2.65Z"/></g><path class="cls-6" d="M146.05,134.64c-.37-.34-1.05-.64-1.71-.7-1.19-.1-1.55.14-1.55.14-1.51-1.01-4.49-3.1-7.07-2.27s6.45,4.83,6.96,4.47-2.62-1.89-1.97-1.92c.7-.03,1.8.14,2.43.33.88-.26,3.79.74,2.91-.06Z"/><path class="cls-2" d="M134.75,132.71c0-.1.09-.15.15-.14.07.01.12.08.12.15,0,.07-.07.13-.15.12-.01,0-.02,0-.04,0-.1-.01-.11-.02-.08-.12Z"/><path class="cls-2" d="M136.52,133.84c-.06-.01-.11-.07-.1-.14.01-.07.08-.11.14-.1.06.01.11.08.09.14-.01.06-.08.11-.14.1Z"/><path class="cls-2" d="M136.24,132.42c-.05-.01-.08-.05-.07-.11.01-.06.07-.1.12-.09.06.01.09.07.08.12-.01.06-.07.09-.13.08Z"/><path class="cls-2" d="M135.91,131.75c.06.01.09.06.08.12-.01.05-.07.09-.12.07-.06-.01-.1-.07-.08-.12.01-.05.07-.09.13-.07Z"/><path class="cls-2" d="M135.46,133.14c-.05-.01-.09-.06-.08-.12,0-.05.06-.09.12-.08.06.01.09.06.08.12-.01.06-.06.09-.12.08Z"/><path class="cls-2" d="M134.63,131.78c-.05-.01-.08-.07-.07-.12.01-.05.06-.08.11-.07.05.01.08.06.07.11-.01.05-.06.08-.11.07Z"/><path class="cls-2" d="M137.08,133.5c-.01.05-.06.08-.11.07-.05-.01-.08-.06-.07-.11.01-.05.06-.08.11-.07.05.01.08.06.07.11Z"/><path class="cls-2" d="M135.19,131.64s.08.06.07.1c-.01.05-.06.08-.11.07-.05-.01-.07-.05-.06-.1.01-.05.06-.08.11-.06Z"/><path class="cls-2" d="M136.2,134.19s-.03,0-.04,0c-.04-.01-.06-.04-.04-.08.01-.04.05-.05.09-.04.02,0,.04.02.06.02.04.01.06.04.05.08-.01.04-.04.05-.08.04,0,0-.02,0-.03,0h0Z"/><path class="cls-2" d="M136.77,131.96s.08.05.07.1c0,.04-.06.08-.11.07-.04,0-.07-.06-.06-.1.01-.04.05-.07.1-.06Z"/><path class="cls-2" d="M134.68,134.07c0,.05-.05.08-.09.08-.04,0-.07-.05-.07-.09,0-.04.08-.09.12-.08.03,0,.04.04.03.1Z"/><path class="cls-2" d="M134.38,133.48s.07.06.06.1c-.01.05-.05.07-.1.06-.05,0-.07-.05-.06-.1.01-.05.06-.07.1-.06Z"/><path class="cls-2" d="M135.3,134.49s-.07-.06-.06-.11c.01-.05.05-.07.1-.06.05.01.07.06.06.1-.01.04-.06.07-.1.06Z"/><path class="cls-2" d="M136.07,133.57s-.05.07-.1.06c-.04,0-.07-.06-.06-.1.01-.04.06-.07.1-.06.04,0,.07.05.06.1Z"/><path class="cls-2" d="M135.01,133.37s.04-.06.09-.05c.04,0,.07.05.06.09-.01.04-.04.06-.09.06-.04,0-.07-.05-.06-.1Z"/><path class="cls-2" d="M136.8,132.97s.06-.04.09-.04c.04,0,.06.04.05.08,0,.04-.04.07-.08.05-.03,0-.05-.04-.07-.07v-.03Z"/><path class="cls-2" d="M135.71,132.49s-.07.05-.09.05c-.01,0-.04-.04-.03-.06,0-.04.03-.06.07-.04.02,0,.03.03.06.06Z"/><path class="cls-2" d="M136.49,132.47s.04.06.03.08c0,.02-.04.03-.05.04-.01-.02-.04-.04-.03-.06,0-.02.03-.03.06-.06Z"/><path class="cls-2" d="M136.4,133.18s-.03-.06-.03-.07c0-.02.03-.03.05-.04.01.02.03.04.04.06,0,.01-.03.03-.06.06Z"/><path class="cls-2" d="M136.43,134.47s-.03-.06-.03-.08c0-.02.03-.03.05-.03.01,0,.03.03.03.05,0,.02-.03.03-.05.06Z"/><path class="cls-2" d="M135.81,133.72s-.06.03-.08.03c-.02,0-.02-.03-.04-.05.02-.01.04-.03.05-.03.02,0,.03.03.06.06Z"/><path class="cls-2" d="M135.41,133.73s-.05.03-.07.03c-.01,0-.03-.03-.03-.05,0-.01.03-.03.04-.03.01,0,.03.02.05.05Z"/><path class="cls-2" d="M136.95,132.58s-.05.03-.07.03c-.01,0-.03-.03-.03-.04,0-.02.03-.03.04-.04.01,0,.03.02.05.05Z"/><path class="cls-2" d="M137.02,132.9s.05-.03.07-.03c.02,0,.02.03.03.05-.02.01-.03.03-.05.03-.01,0-.03-.02-.05-.05Z"/><path class="cls-2" d="M134.48,132.85s-.05.03-.06.02c-.01,0-.02-.03-.03-.05.02,0,.03-.03.05-.02.01,0,.02.03.04.05Z"/><path class="cls-2" d="M134.44,131.96s.02.05.02.06c0,.01-.03.02-.05.03,0-.02-.02-.03-.02-.05,0-.01.03-.02.05-.04Z"/><path class="cls-2" d="M136.33,132.94s-.03-.04-.02-.05c0-.01.03-.02.04-.03,0,.02.02.03.02.05,0,.01-.02.02-.04.04Z"/><path class="cls-2" d="M135.95,132.73s-.02-.04-.02-.05c0,0,.03-.02.03-.02.01,0,.02.02.03.04,0,0-.02.02-.04.04Z"/><path class="cls-6" d="M139.82,134.58s-1.91-.04-3.75-.46-2.69-1.06-3.72-1.11.88.91.88.91c0,0-1.74-.47-2.56-.27-.64.15.53.63.53.63,0,0-2.58-.5-3.49-.39s-2.51.2-3.83-.11.56.63,1.71.74,1.8-.21,3.28.1,3.9.22,3.95.03-1.5-.41-.95-.44c.31-.02.73.06,1.79.25,2,.35,5.37.86,6.15.13Z"/><path class="cls-6" d="M131.22,133.91s-.63-.12-2.24-.24-1.93-.35-3-.41-4.47-.24-5.82-.31-2.42-.26-2.75-.27c-1.64-.08,2.06.45,3.04.5s1.68-.03,2.58.04,3.11.39,4.14.42,2.86.57,3.14.63c1.23.25,1.89-.22.92-.36Z"/><path class="cls-6" d="M132.09,132.94c.07.08.03.18-.03.21-.07.04-.15.03-.19-.04-.05-.06-.03-.15.03-.2.01,0,.02-.01.03-.02.09-.06.1-.06.15.04Z"/><path class="cls-6" d="M129.89,133.27c.06-.04.14-.02.17.04.04.06.02.14-.05.18-.06.03-.14.01-.17-.05-.04-.06-.01-.14.04-.17Z"/><path class="cls-6" d="M131.1,134.21c.05-.03.1-.01.13.04.03.06.02.13-.04.16-.05.03-.12.01-.15-.04-.03-.06-.01-.12.05-.16Z"/><path class="cls-6" d="M131.83,134.52c-.05.03-.12.01-.14-.04-.03-.05,0-.12.04-.14.06-.03.12-.01.15.04.03.05,0,.12-.05.15Z"/><path class="cls-6" d="M131.22,133.09c.05-.03.12-.01.15.04.03.05.01.12-.04.15-.05.03-.12.01-.15-.04-.03-.05-.01-.11.04-.14Z"/><path class="cls-6" d="M132.84,133.59s.11,0,.14.04c.02.05,0,.11-.04.13-.05.03-.11.01-.14-.04-.03-.05,0-.11.04-.14Z"/><path class="cls-6" d="M129.67,133.94s0-.11.04-.13c.05-.03.11-.01.14.04.03.05,0,.11-.04.13-.05.03-.11.01-.14-.04Z"/><path class="cls-6" d="M132.49,134.1s-.1,0-.12-.03c-.02-.04,0-.1.04-.13.04-.02.1,0,.12.04.03.05,0,.1-.04.13Z"/><path class="cls-6" d="M129.89,132.77s.03-.02.04-.02c.04-.02.08,0,.1.04.02.04,0,.08-.04.09-.02.01-.04.01-.07.02-.04.02-.07.01-.09-.03-.02-.04,0-.07.04-.09,0,0,.02-.01.03-.02h0Z"/><path class="cls-6" d="M131.01,134.95s-.1.01-.12-.03c-.02-.04,0-.1.04-.13.04-.02.1,0,.12.03.02.04,0,.1-.04.12Z"/><path class="cls-6" d="M131.19,131.79s-.02-.1.02-.12c.04-.02.09-.01.12.03.02.04,0,.13-.04.16-.03.02-.06,0-.1-.06Z"/><path class="cls-6" d="M131.85,132.05s-.1,0-.12-.04c-.02-.05,0-.09.04-.12.04-.03.1,0,.12.04.02.04,0,.1-.04.12Z"/><path class="cls-6" d="M130.41,131.9s.1,0,.12.04c.02.04,0,.09-.04.11-.04.02-.1,0-.12-.04-.02-.04,0-.1.04-.12Z"/><path class="cls-6" d="M130.44,133.18s0-.1.03-.12c.04-.02.1,0,.12.04.02.04,0,.1-.04.12-.04.02-.09,0-.12-.04Z"/><path class="cls-6" d="M131.42,132.59s0,.08-.03.1c-.04.02-.09,0-.11-.03-.02-.04,0-.08.03-.11.04-.02.09,0,.11.04Z"/><path class="cls-6" d="M130.27,134.17s-.02.07-.04.09c-.04.03-.08.01-.1-.03-.02-.04-.01-.08.03-.1.03-.01.07,0,.1,0l.02.03Z"/><path class="cls-6" d="M131.48,133.78s.02-.08.04-.1c0,0,.06,0,.07.02.02.03.01.07-.03.08-.02,0-.04,0-.08,0Z"/><path class="cls-6" d="M130.87,134.35s-.07-.03-.08-.04c0-.02,0-.05.02-.07.02,0,.06,0,.07.02.01.02,0,.05,0,.09Z"/><path class="cls-6" d="M130.44,133.71s.07.02.07.04c0,.02,0,.04-.01.07-.02,0-.05,0-.07-.02-.01-.01,0-.04,0-.08Z"/><path class="cls-6" d="M129.51,132.71s.07.03.08.04c0,.02,0,.05-.02.06,0,0-.05,0-.06-.02,0-.02,0-.04,0-.09Z"/><path class="cls-6" d="M130.53,132.87s.03-.07.04-.07c.02,0,.04,0,.06.02,0,.02,0,.05-.02.06-.01,0-.04,0-.08,0Z"/><path class="cls-6" d="M130.85,132.58s.02-.06.03-.07c.01,0,.05,0,.06.01,0,.01,0,.05-.01.06-.01,0-.04,0-.08,0Z"/><path class="cls-6" d="M130.43,134.58s.02-.06.04-.07c.01,0,.05,0,.05.01,0,.02,0,.05-.01.06-.01,0-.04,0-.08,0Z"/><path class="cls-6" d="M130.14,134.38s-.02.06-.04.07c-.02,0-.04,0-.06-.01,0-.02,0-.05.02-.06.01,0,.04,0,.08,0Z"/><path class="cls-6" d="M132.21,132.63s.02-.06.03-.06c.02,0,.04,0,.06.02,0,.02,0,.04-.02.06,0,0-.03,0-.06-.01Z"/><path class="cls-6" d="M132.86,133.32s-.06-.02-.06-.04c0-.02.01-.04.02-.06.02,0,.04.01.05.03,0,.01,0,.04-.01.07Z"/><path class="cls-6" d="M130.67,133.86s.05.01.06.03c0,.02,0,.04,0,.06-.02,0-.04,0-.05-.02,0,0,0-.03,0-.06Z"/><path class="cls-6" d="M131.11,133.77s.05.02.06.03c0,0,0,.04-.01.04-.02,0-.04,0-.05-.01,0,0,0-.03,0-.06Z"/><path class="cls-6" d="M134.97,133.89c0,.07-.07.11-.11.11-.05,0-.1-.05-.09-.11,0-.06.05-.1.11-.09,0,0,.02,0,.03,0,.08,0,.08.01.07.09Z"/><path class="cls-6" d="M133.61,133.08s.08.05.08.1c0,.05-.05.09-.11.08-.05,0-.08-.06-.07-.1,0-.05.05-.08.1-.08Z"/><path class="cls-6" d="M133.85,134.14s.06.04.05.08c0,.05-.05.08-.09.07-.04,0-.07-.05-.06-.09,0-.05.05-.07.1-.06Z"/><path class="cls-6" d="M134.12,134.64s-.07-.05-.06-.09c0-.04.05-.07.09-.06.04,0,.07.05.07.09,0,.04-.05.07-.09.06Z"/><path class="cls-6" d="M134.42,133.58s.07.05.06.09c0,.04-.04.07-.09.06-.04,0-.07-.04-.06-.09,0-.04.04-.07.09-.06Z"/><path class="cls-6" d="M135.09,134.59s.06.05.06.09c0,.04-.04.06-.08.06-.04,0-.07-.04-.06-.08,0-.04.05-.07.09-.06Z"/><path class="cls-6" d="M133.19,133.35s.04-.06.08-.06c.04,0,.07.04.06.08,0,.04-.04.06-.08.06-.04,0-.07-.04-.06-.08Z"/><path class="cls-6" d="M134.67,134.71s-.06-.04-.05-.07c0-.03.05-.06.08-.05.04,0,.06.04.05.07,0,.04-.04.06-.08.05Z"/><path class="cls-6" d="M133.83,132.8s.02,0,.03,0c.03,0,.04.03.04.06,0,.03-.03.04-.06.03-.02,0-.03-.01-.05-.02-.03,0-.05-.03-.04-.06,0-.03.03-.04.06-.03,0,0,.01,0,.02,0h0Z"/><path class="cls-6" d="M133.47,134.5s-.06-.04-.06-.07c0-.03.04-.06.08-.05.03,0,.06.04.05.07,0,.03-.04.06-.07.05Z"/><path class="cls-6" d="M134.99,132.85s.03-.06.07-.06c.03,0,.06.04.05.07,0,.03-.06.07-.09.07-.03,0-.03-.03-.03-.08Z"/><path class="cls-6" d="M135.24,133.29s-.06-.04-.05-.08c0-.04.03-.05.07-.05.04,0,.06.04.05.07,0,.04-.04.06-.07.05Z"/><path class="cls-6" d="M134.51,132.56s.06.04.05.08c0,.03-.04.05-.07.05-.03,0-.06-.04-.05-.08,0-.03.04-.05.07-.05Z"/><path class="cls-6" d="M133.95,133.27s.04-.06.07-.05c.03,0,.06.04.05.08,0,.03-.04.05-.07.05-.03,0-.05-.04-.05-.07Z"/><path class="cls-6" d="M134.76,133.39s-.03.04-.06.04c-.03,0-.05-.04-.05-.07,0-.03.03-.05.06-.04.03,0,.05.04.05.07Z"/><path class="cls-6" d="M133.41,133.75s-.04.03-.07.03c-.03,0-.05-.03-.04-.06,0-.03.03-.05.06-.04.02,0,.04.03.05.05v.02Z"/><path class="cls-6" d="M134.25,134.07s.05-.04.07-.04c0,0,.03.03.03.05,0,.03-.02.04-.05.03-.01,0-.02-.02-.04-.04Z"/><path class="cls-6" d="M133.66,134.11s-.03-.05-.02-.06c0-.01.03-.02.04-.03,0,.01.03.03.03.04,0,.01-.02.03-.04.05Z"/><path class="cls-6" d="M133.72,133.57s.03.04.02.06c0,.01-.02.02-.04.03-.01-.01-.03-.03-.03-.04,0-.01.02-.02.04-.04Z"/><path class="cls-6" d="M133.65,132.6s.03.05.02.06c0,.01-.03.02-.04.03,0,0-.03-.02-.02-.04,0-.01.02-.02.04-.05Z"/><path class="cls-6" d="M134.15,133.15s.04-.03.06-.02c.01,0,.02.02.03.04-.01,0-.03.03-.04.03-.01,0-.02-.02-.04-.04Z"/><path class="cls-6" d="M134.45,133.13s.04-.03.05-.02c.01,0,.03.02.02.03,0,.01-.02.03-.03.02-.01,0-.02-.02-.04-.04Z"/><path class="cls-6" d="M133.31,134.04s.04-.02.05-.02c.01,0,.03.02.02.03,0,.01-.02.03-.03.03-.01,0-.02-.02-.04-.04Z"/><path class="cls-6" d="M133.25,133.8s-.04.02-.05.02c-.01,0-.02-.02-.03-.03.01,0,.03-.02.04-.02.01,0,.02.02.04.04Z"/><path class="cls-6" d="M135.18,133.77s.04-.02.04-.02c.01,0,.02.02.03.03-.01,0-.03.02-.04.02,0,0-.02-.02-.03-.04Z"/><path class="cls-6" d="M135.22,134.44s-.02-.04-.02-.05c0-.01.02-.02.04-.02,0,.01.02.03.02.04,0,.01-.02.02-.04.03Z"/><path class="cls-6" d="M133.77,133.75s.02.03.02.04c0,.01-.02.02-.03.03,0-.01-.02-.02-.02-.03,0,0,.02-.02.03-.03Z"/><path class="cls-6" d="M134.06,133.9s.02.03.02.04c0,0-.02.02-.02.02,0,0-.02-.02-.02-.03,0,0,.01-.02.03-.03Z"/><path class="cls-6" d="M137.23,131.49c.03.13-.08.21-.16.22-.1,0-.18-.06-.19-.16-.01-.1.06-.18.16-.2.02,0,.03,0,.05,0,.13-.01.14,0,.14.14Z"/><path class="cls-6" d="M134.62,130.52c.09,0,.16.07.16.15,0,.09-.07.17-.16.17-.09,0-.16-.07-.16-.16,0-.09.07-.16.15-.16Z"/><path class="cls-6" d="M135.39,132.28c.07,0,.12.05.12.13,0,.08-.06.15-.13.15-.08,0-.14-.06-.14-.14,0-.08.06-.14.15-.14Z"/><path class="cls-6" d="M136,133.06c-.08,0-.13-.06-.13-.13,0-.07.06-.13.13-.13.08,0,.14.06.14.13,0,.07-.06.13-.14.13Z"/><path class="cls-6" d="M136.19,131.13c.07,0,.14.06.14.13,0,.07-.06.13-.13.14-.07,0-.13-.05-.14-.13,0-.07.05-.13.13-.14Z"/><path class="cls-6" d="M137.66,132.66c.07,0,.13.06.12.13,0,.07-.06.12-.13.12-.07,0-.13-.06-.13-.13,0-.07.06-.13.13-.13Z"/><path class="cls-6" d="M133.98,131.11c0-.07.05-.12.12-.12.07,0,.13.06.13.13,0,.07-.06.12-.12.12-.07,0-.13-.06-.13-.13Z"/><path class="cls-6" d="M136.97,133.01c-.07,0-.12-.05-.11-.11,0-.06.06-.12.12-.12.06,0,.11.05.11.11,0,.07-.05.12-.12.11Z"/><path class="cls-6" d="M134.93,129.98s.04,0,.06,0c.06,0,.09.04.08.1,0,.06-.04.08-.1.08-.03,0-.06-.01-.09-.02-.05,0-.09-.03-.08-.08,0-.06.04-.08.09-.07.01,0,.03,0,.04,0h0Z"/><path class="cls-6" d="M134.83,133.03c-.06,0-.12-.05-.12-.11,0-.06.06-.12.12-.12.06,0,.11.05.11.11,0,.06-.05.11-.11.11Z"/><path class="cls-6" d="M136.95,129.7c0-.07.04-.12.1-.12.06,0,.11.04.11.1,0,.06-.08.15-.14.15-.05,0-.07-.04-.07-.12Z"/><path class="cls-6" d="M137.51,130.38c-.06,0-.11-.05-.11-.12,0-.07.04-.1.11-.11.06,0,.11.05.11.11,0,.06-.05.11-.11.11Z"/><path class="cls-6" d="M136.03,129.33c.06,0,.11.06.11.12,0,.06-.05.11-.11.1-.06,0-.11-.06-.11-.12,0-.06.05-.11.11-.11Z"/><path class="cls-6" d="M135.28,130.75c0-.06.05-.11.11-.11.06,0,.11.05.11.11,0,.06-.05.11-.11.11-.06,0-.11-.05-.11-.11Z"/><path class="cls-6" d="M136.71,130.7c0,.05-.04.09-.1.09-.06,0-.11-.05-.1-.1,0-.06.04-.09.1-.1.05,0,.1.05.1.11Z"/><path class="cls-6" d="M134.5,131.73s-.07.07-.1.07c-.06.01-.09-.03-.09-.09,0-.06.04-.1.09-.09.04,0,.07.04.11.07v.04Z"/><path class="cls-6" d="M136.06,132.04s.07-.08.11-.09c.01,0,.06.04.06.07,0,.05-.03.08-.08.07-.02,0-.04-.03-.09-.06Z"/><path class="cls-6" d="M135.04,132.29s-.06-.07-.06-.1c0-.02.04-.05.06-.07.02.02.06.04.06.07,0,.02-.03.05-.06.1Z"/><path class="cls-6" d="M134.97,131.34s.06.07.06.09c0,.02-.03.04-.05.06-.02-.02-.06-.04-.06-.06,0-.02.03-.05.06-.09Z"/><path class="cls-6" d="M134.56,129.67s.06.07.06.09c0,.02-.04.05-.06.06-.01,0-.05-.03-.05-.05,0-.02.03-.05.05-.09Z"/><path class="cls-6" d="M135.58,130.47s.07-.06.09-.05c.02,0,.04.04.06.06-.02.02-.04.05-.06.06-.02,0-.05-.03-.09-.06Z"/><path class="cls-6" d="M136.1,130.35s.06-.06.08-.05c.02,0,.05.03.05.05,0,.02-.03.05-.05.05-.02,0-.04-.02-.08-.05Z"/><path class="cls-6" d="M134.42,132.28s.06-.05.08-.05c.02,0,.05.03.05.05,0,.02-.03.05-.05.06-.02,0-.04-.02-.08-.05Z"/><path class="cls-6" d="M134.23,131.88s-.06.05-.08.05c-.02,0-.04-.03-.06-.05.02-.02.04-.05.06-.05.02,0,.04.02.08.05Z"/><path class="cls-6" d="M137.55,131.23s.05-.05.07-.04c.02,0,.04.03.05.05-.02.02-.04.04-.06.05-.01,0-.03-.03-.06-.05Z"/><path class="cls-6" d="M137.84,132.37s-.05-.06-.04-.07c0-.02.04-.03.06-.05.01.02.04.04.04.06,0,.02-.03.04-.05.07Z"/><path class="cls-6" d="M135.12,131.64s.05.05.05.06c0,.02-.03.04-.04.06-.02-.02-.04-.03-.04-.05,0-.01.02-.03.04-.06Z"/><path class="cls-6" d="M135.67,131.8s.04.05.04.06c0,.01-.03.04-.04.04-.02,0-.04-.02-.05-.04,0-.01.02-.03.04-.06Z"/><path class="cls-6" d="M139.69,132.49c.02.06-.03.11-.07.11-.05,0-.09-.03-.1-.07,0-.05.03-.09.07-.1,0,0,.02,0,.02,0,.07,0,.07,0,.07.06Z"/><path class="cls-6" d="M138.38,132.07s.08.03.08.07c0,.05-.03.08-.07.09-.04,0-.08-.03-.08-.07,0-.04.03-.08.07-.08Z"/><path class="cls-6" d="M138.8,132.92s.06.02.06.06c0,.04-.02.07-.06.08-.04,0-.07-.03-.07-.06,0-.04.03-.07.07-.07Z"/><path class="cls-6" d="M139.12,133.29s-.07-.03-.07-.06c0-.04.03-.07.06-.07.04,0,.07.03.07.06,0,.04-.03.07-.07.07Z"/><path class="cls-6" d="M139.17,132.34s.07.02.07.06c0,.04-.02.07-.06.07-.04,0-.07-.02-.07-.06,0-.04.02-.07.06-.07Z"/><path class="cls-6" d="M139.93,133.06s.06.03.06.06c0,.03-.03.06-.06.06-.04,0-.06-.02-.07-.06,0-.03.03-.06.06-.07Z"/><path class="cls-6" d="M138.08,132.38s.02-.06.06-.06c.04,0,.06.02.06.06,0,.03-.02.06-.06.06-.04,0-.06-.02-.06-.06Z"/><path class="cls-6" d="M139.6,133.24s-.06-.02-.06-.05c0-.03.03-.06.06-.06.03,0,.06.02.06.05,0,.03-.02.06-.06.06Z"/><path class="cls-6" d="M138.52,131.8s.02,0,.03,0c.03,0,.04.02.04.05,0,.03-.02.04-.05.04-.01,0-.03,0-.04,0-.03,0-.04-.01-.04-.04,0-.03.02-.04.04-.04,0,0,.01,0,.02,0h0Z"/><path class="cls-6" d="M138.54,133.3s-.06-.02-.06-.05c0-.03.02-.06.06-.06.03,0,.06.02.06.05,0,.03-.02.06-.05.06Z"/><path class="cls-6" d="M139.51,131.61s.02-.06.04-.06c.03,0,.05.02.06.05,0,.03-.04.07-.06.07-.02,0-.03-.02-.04-.06Z"/><path class="cls-6" d="M139.8,131.93s-.06-.02-.06-.06c0-.03.02-.05.05-.05.03,0,.06.02.06.05,0,.03-.02.06-.05.06Z"/><path class="cls-6" d="M139.04,131.45s.06.03.06.06c0,.03-.02.05-.05.05-.03,0-.06-.02-.06-.06,0-.03.02-.05.05-.05Z"/><path class="cls-6" d="M138.71,132.17s.02-.05.05-.06c.03,0,.06.02.06.05,0,.03-.02.05-.05.05-.03,0-.05-.02-.06-.05Z"/><path class="cls-6" d="M139.41,132.11s-.02.04-.05.05c-.03,0-.05-.02-.05-.05,0-.03.02-.05.05-.05.03,0,.05.02.05.05Z"/><path class="cls-6" d="M138.35,132.67s-.03.03-.05.04c-.03,0-.04-.01-.05-.04,0-.03.01-.05.04-.05.02,0,.04.02.05.03v.02Z"/><path class="cls-6" d="M139.12,132.79s.03-.04.05-.05c0,0,.03.02.03.03,0,.02-.01.04-.04.04-.01,0-.02-.01-.05-.03Z"/><path class="cls-6" d="M138.63,132.93s-.03-.03-.03-.05c0-.01.02-.02.03-.03.01.01.03.02.03.03,0,.01-.01.03-.03.05Z"/><path class="cls-6" d="M138.57,132.47s.03.03.03.04c0,.01-.02.02-.02.03-.01,0-.03-.02-.03-.03,0,0,.01-.02.03-.04Z"/><path class="cls-6" d="M138.33,131.66s.03.03.03.04c0,.01-.02.03-.03.03,0,0-.03-.02-.03-.02,0-.01.01-.02.02-.05Z"/><path class="cls-6" d="M138.85,132.02s.03-.03.04-.03c.01,0,.02.02.03.03,0,.01-.02.03-.03.03-.01,0-.02-.01-.04-.03Z"/><path class="cls-6" d="M139.1,131.95s.03-.03.04-.03c0,0,.03.01.03.02,0,0-.01.03-.02.03,0,0-.02-.01-.04-.02Z"/><path class="cls-6" d="M138.32,132.94s.03-.03.04-.03c0,0,.03.01.03.02,0,.01-.01.03-.02.03,0,0-.02-.01-.04-.02Z"/><path class="cls-6" d="M138.22,132.75s-.03.03-.04.03c-.01,0-.02-.02-.03-.02,0,0,.02-.03.03-.03,0,0,.02.01.04.02Z"/><path class="cls-6" d="M139.84,132.35s.03-.03.03-.02c.01,0,.02.02.03.02,0,0-.02.02-.03.02,0,0-.02-.01-.03-.03Z"/><path class="cls-6" d="M140.01,132.91s-.02-.03-.02-.04c0-.01.02-.02.03-.03,0,0,.02.02.02.03,0,0-.01.02-.02.03Z"/><path class="cls-6" d="M138.65,132.61s.03.02.02.03c0,.01-.01.02-.02.03,0,0-.02-.02-.02-.03,0,0,0-.02.02-.03Z"/><path class="cls-6" d="M138.92,132.68s.02.02.02.03c0,0-.01.02-.02.02,0,0-.02-.01-.02-.02,0,0,0-.02.02-.03Z"/><g class="cls-7"><circle class="cls-3" cx="215.38" cy="122.63" r="6.67"/><circle class="cls-12" cx="214.5" cy="122.65" r="5.1"/><path class="cls-3" d="M214.2,106.23l9.64-5.94c.61-.37.48-1.29-.21-1.48l-10.92-2.99c-.57-.16-1.11.32-1.02.9l1.28,8.94c.08.58.73.89,1.23.58Z"/><path class="cls-10" d="M212.98,94.69h0c.48,0,.87.39.87.87v21.47h-1.74v-21.47c0-.48.39-.87.87-.87Z" transform="translate(-12.87 31.3) rotate(-8.16)"/><path class="cls-3" d="M213.2,114.26h2.41c.47,0,.85.38.85.85v2.26h-4.11v-2.26c0-.47.38-.85.85-.85Z" transform="translate(-14.27 31.61) rotate(-8.16)"/></g></g></g></svg>