<?xml version="1.0" encoding="UTF-8"?><svg xmlns="http://www.w3.org/2000/svg" xmlns:xlink="http://www.w3.org/1999/xlink" viewBox="0 0 300 300"><defs><style>.cls-1{fill:#f4af13;}.cls-2{fill:#fff;}.cls-3{fill:#e86170;}.cls-4,.cls-5{fill:none;}.cls-6{fill:#a7caec;}.cls-7{clip-path:url(#clippath-1);}.cls-8{filter:url(#drop-shadow-1);}.cls-9{isolation:isolate;}.cls-5{stroke:#f4af13;stroke-linecap:round;stroke-linejoin:round;stroke-width:3px;}.cls-10{fill:#42496f;}.cls-11{clip-path:url(#clippath);}.cls-12{fill:#6498d1;mix-blend-mode:multiply;opacity:.25;}</style><filter id="drop-shadow-1" x="118.98" y="179.26" width="30.05" height="31.04" filterUnits="userSpaceOnUse"><feOffset dx="-2" dy="0"/><feGaussianBlur result="blur" stdDeviation="0"/><feFlood flood-color="#42496f" flood-opacity="1"/><feComposite in2="blur" operator="in"/><feComposite in="SourceGraphic"/></filter><clipPath id="clippath"><path class="cls-4" d="M123.99,205.57s22.7-1.25,25.04-1.53c-.81,2.05-3.51,4.66-8,5.49,0,0-13.59-1.21-15.6-1.4-1.28-.84-1.44-2.55-1.44-2.55Z"/></clipPath><clipPath id="clippath-1"><path class="cls-4" d="M235.76,119.26c-3.95,3.8-8.7.63-8.7.63-4.42,2.51-8.39,1.78-10.43,1.09-.18.19-.43.31-.7.31-.48,0-.88-.35-.95-.81-8.11,4.13-9.59-1.37-9.59-1.37-6.56,5.46-14.23,3.8-14.23,3.8l-.47-29.78h52.51v28.04c-3.8,0-7.43-1.9-7.43-1.9Z"/></clipPath></defs><g class="cls-9"><g id="Calque_3"><path class="cls-5" d="M106.48,202.91c15.06-.73,26.98,1.88,38.98,1.32"/><circle class="cls-1" cx="144.7" cy="203.89" r="5.02"/><g class="cls-8"><path class="cls-3" d="M132.2,182.58s13.14,14.2,16.34,20.82c-4.54-1.28-11.19-.91-13.66-.2l-2.68-20.62Z"/><path class="cls-12" d="M132.47,183.65s5.08,15.17,7.27,17.35c0,0-3.97,1.2-4.85,2.19l-2.42-19.55Z"/><path class="cls-3" d="M132.14,183.57s-7.17,16.93-10.26,20.09l12.51-1.03-2.25-19.06Z"/><path class="cls-12" d="M132.32,184.3s-1.69,15.69-7.26,18.95l9.31-.71-2.04-18.24Z"/><polygon class="cls-2" points="131.69 180.22 132.05 180.17 135.58 205.13 134.4 205.28 131.69 180.22"/><path class="cls-2" d="M123.99,205.57s22.7-1.25,25.04-1.53c-.81,2.05-3.51,4.66-8,5.49,0,0-13.59-1.21-15.6-1.4-1.28-.84-1.44-2.55-1.44-2.55Z"/><g class="cls-11"><path class="cls-12" d="M141.35,210.31s3.3-.72,5.69-4.26c.2-.3-.02-.7-.38-.69-3.54.11-17.7.45-21.69.63-.37.02-.65.36-.57.73.14.66.5,1.6,1.43,2.03l15.52,1.56Z"/></g><polygon class="cls-2" points="121.07 203.99 134.36 203.07 134.36 202.54 120.98 203.65 121.07 203.99"/><path class="cls-3" d="M132.35,179.99c.73-.55,1.77-1.15,2.83-.32,3.36,2.61,2.92-.1,5.37.27-1.6.27-1.8,2.71-4.51,2.64-1.67-.05-1.65-1.01-3.37.06l-.32-2.64Z"/></g><path class="cls-6" d="M148,209.41c-.37-.34-1.06-.63-1.72-.68-1.19-.09-1.55.15-1.55.15-1.52-1-4.52-3.06-7.09-2.2s6.49,4.77,7,4.41-2.64-1.87-1.99-1.9c.7-.03,1.8.12,2.43.31.88-.27,3.8.7,2.91-.09Z"/><path class="cls-2" d="M136.69,207.57c0-.1.09-.15.15-.14.07.01.12.07.12.14,0,.07-.07.13-.15.12-.01,0-.02,0-.04,0-.1-.01-.11-.02-.08-.12Z"/><path class="cls-2" d="M138.46,208.69c-.06-.01-.11-.07-.1-.14.01-.07.07-.11.14-.1.06.01.11.08.09.14-.01.06-.08.11-.14.1Z"/><path class="cls-2" d="M138.17,207.27c-.05-.01-.08-.05-.07-.11,0-.06.06-.1.12-.09.06.01.09.06.08.12-.01.06-.07.09-.13.08Z"/><path class="cls-2" d="M137.84,206.6c.06.01.09.06.08.12-.01.05-.06.09-.12.08-.06-.01-.1-.07-.08-.12.01-.05.07-.09.13-.07Z"/><path class="cls-2" d="M137.4,208c-.05-.01-.09-.06-.08-.12,0-.05.06-.09.12-.08.06.01.09.06.08.12,0,.06-.06.09-.12.08Z"/><path class="cls-2" d="M136.55,206.64c-.05-.01-.08-.06-.07-.12.01-.05.06-.08.11-.07.05.01.09.06.07.11-.01.05-.06.08-.11.07Z"/><path class="cls-2" d="M139.02,208.35c-.01.05-.06.08-.11.07-.05-.01-.09-.06-.07-.11.01-.05.06-.08.11-.07.05.01.08.06.07.11Z"/><path class="cls-2" d="M137.11,206.5s.08.05.07.1c-.01.05-.06.08-.11.07-.05-.01-.07-.05-.06-.1.01-.05.06-.08.11-.07Z"/><path class="cls-2" d="M138.15,209.04s-.03,0-.04,0c-.04-.01-.06-.04-.05-.08.01-.04.05-.05.09-.04.02,0,.04.02.06.02.04.01.06.03.05.08-.01.04-.04.05-.08.04,0,0-.02,0-.03,0h0Z"/><path class="cls-2" d="M138.69,206.81s.08.05.07.1c0,.04-.06.08-.11.07-.04,0-.08-.06-.07-.1,0-.04.05-.07.1-.07Z"/><path class="cls-2" d="M136.62,208.94c0,.05-.05.08-.09.08-.04,0-.07-.05-.07-.09,0-.04.08-.1.12-.09.03,0,.04.04.03.1Z"/><path class="cls-2" d="M136.32,208.35s.07.06.06.1c-.01.05-.05.07-.1.06-.05,0-.08-.05-.06-.1.01-.05.05-.07.1-.06Z"/><path class="cls-2" d="M137.24,209.34s-.07-.06-.06-.1c.01-.05.05-.07.1-.06.05.01.07.06.06.1-.01.04-.06.07-.1.06Z"/><path class="cls-2" d="M138.01,208.42s-.05.07-.09.07c-.04,0-.07-.06-.06-.1.01-.04.05-.07.1-.06.04,0,.07.05.06.1Z"/><path class="cls-2" d="M136.95,208.24s.04-.06.09-.05c.04,0,.07.05.06.09-.01.04-.04.06-.09.06-.04,0-.07-.05-.06-.1Z"/><path class="cls-2" d="M138.74,207.81s.06-.04.09-.04c.04,0,.06.04.05.08,0,.04-.04.07-.08.05-.03,0-.05-.04-.07-.07v-.03Z"/><path class="cls-2" d="M137.64,207.35s-.07.05-.09.05c-.01,0-.04-.04-.04-.06,0-.04.03-.06.07-.04.02,0,.03.03.06.05Z"/><path class="cls-2" d="M138.42,207.32s.04.06.03.08c0,.02-.04.03-.05.04-.01-.02-.04-.04-.03-.06,0-.02.03-.03.06-.06Z"/><path class="cls-2" d="M138.33,208.03s-.03-.06-.03-.07c0-.02.03-.03.05-.04.01.02.04.04.04.06,0,.01-.03.03-.06.06Z"/><path class="cls-2" d="M138.38,209.32s-.03-.06-.03-.08c0-.02.03-.03.05-.03.01,0,.03.03.03.05,0,.02-.03.03-.05.06Z"/><path class="cls-2" d="M137.75,208.58s-.06.03-.07.03c-.02,0-.02-.03-.04-.05.02-.01.04-.03.05-.03.02,0,.03.03.06.06Z"/><path class="cls-2" d="M137.35,208.58s-.05.03-.07.03c-.01,0-.03-.03-.03-.05,0-.01.03-.03.04-.03.01,0,.03.02.05.05Z"/><path class="cls-2" d="M138.88,207.42s-.05.03-.07.03c-.01,0-.03-.03-.03-.04,0-.02.03-.04.04-.04.01,0,.03.02.05.05Z"/><path class="cls-2" d="M138.96,207.74s.05-.03.07-.03c.02,0,.02.03.04.05-.02.01-.03.03-.05.03-.01,0-.03-.02-.05-.05Z"/><path class="cls-2" d="M136.41,207.72s-.05.03-.06.02c-.01,0-.02-.03-.03-.05.02,0,.03-.03.05-.03.01,0,.02.03.04.05Z"/><path class="cls-2" d="M136.37,206.83s.03.05.02.06c0,.01-.03.02-.05.03,0-.02-.02-.03-.02-.05,0-.01.03-.02.05-.04Z"/><path class="cls-2" d="M138.27,207.79s-.03-.04-.02-.05c0-.01.03-.02.04-.03,0,.02.02.03.02.05,0,.01-.02.02-.04.04Z"/><path class="cls-2" d="M137.89,207.58s-.02-.04-.02-.05c0,0,.03-.02.03-.02.01,0,.03.02.03.04,0,0-.02.02-.04.04Z"/><path class="cls-6" d="M141.77,209.4s-1.91-.02-3.76-.42-2.7-1.04-3.73-1.07.89.9.89.9c0,0-1.74-.45-2.57-.25-.64.16.54.62.54.62,0,0-2.58-.48-3.49-.36s-2.51.22-3.83-.08.57.63,1.71.72,1.79-.23,3.28.07,3.9.18,3.95-.01-1.5-.4-.95-.43c.31-.02.73.05,1.79.23,2.01.33,5.38.82,6.15.07Z"/><path class="cls-6" d="M133.16,208.81s-.63-.11-2.24-.22-1.93-.33-3.01-.38-4.47-.2-5.82-.26-2.43-.24-2.75-.25c-1.64-.07,2.07.44,3.05.48s1.68-.05,2.58.01,3.11.36,4.14.39c1.03.03,2.87.55,3.14.6,1.23.24,1.89-.24.91-.37Z"/><path class="cls-6" d="M134.02,207.83c.07.08.03.18-.02.21-.07.04-.15.03-.19-.03-.05-.06-.03-.15.03-.2.01,0,.02-.01.03-.02.09-.06.1-.06.15.04Z"/><path class="cls-6" d="M131.82,208.18c.06-.04.14-.02.17.04.04.06.02.14-.04.18-.06.03-.14.01-.17-.05-.04-.06-.02-.14.04-.17Z"/><path class="cls-6" d="M133.05,209.1c.05-.03.1-.01.13.04.03.05.02.12-.03.16-.05.03-.12.01-.15-.04-.03-.06-.01-.12.05-.16Z"/><path class="cls-6" d="M133.78,209.41c-.05.03-.12.01-.14-.04-.03-.05,0-.12.04-.14.06-.03.12-.02.15.04.03.05,0,.12-.05.15Z"/><path class="cls-6" d="M133.16,207.99c.05-.03.12-.01.15.04.03.05.01.12-.04.15-.05.03-.12.02-.15-.04-.03-.05-.02-.11.04-.15Z"/><path class="cls-6" d="M134.78,208.47s.11,0,.14.04c.02.05,0,.11-.04.13-.05.03-.11.01-.14-.04-.03-.05,0-.11.04-.14Z"/><path class="cls-6" d="M131.61,208.85s0-.11.04-.13c.05-.03.11-.01.14.04.03.05,0,.11-.04.13-.05.03-.11.01-.14-.04Z"/><path class="cls-6" d="M134.44,208.98s-.1.01-.12-.03c-.02-.04,0-.1.04-.13.04-.02.1,0,.12.03.03.05,0,.1-.04.13Z"/><path class="cls-6" d="M131.82,207.68s.03-.02.04-.02c.04-.02.08,0,.1.04.02.04,0,.08-.04.09-.02.01-.04.01-.07.02-.04.02-.07.01-.09-.03-.02-.04,0-.07.04-.09,0,0,.02-.01.03-.02h0Z"/><path class="cls-6" d="M132.96,209.84s-.1.01-.12-.03c-.02-.04,0-.1.04-.13.04-.02.1,0,.12.03.02.04,0,.1-.03.12Z"/><path class="cls-6" d="M133.12,206.69s-.02-.1.02-.13c.04-.03.09-.01.12.03.03.04,0,.13-.04.16-.03.02-.06,0-.1-.06Z"/><path class="cls-6" d="M133.77,206.94s-.1,0-.12-.04c-.02-.05-.01-.09.03-.12.04-.03.1-.01.12.03.02.04,0,.1-.04.12Z"/><path class="cls-6" d="M132.33,206.8s.1,0,.12.04c.02.04,0,.09-.04.12-.04.02-.1,0-.12-.04-.02-.04,0-.1.04-.12Z"/><path class="cls-6" d="M132.37,208.08s0-.09.03-.12c.04-.02.1,0,.12.04.02.04,0,.1-.03.12-.04.02-.09,0-.12-.03Z"/><path class="cls-6" d="M133.35,207.48s0,.08-.03.1c-.04.02-.09,0-.11-.03-.02-.04,0-.08.03-.11.04-.02.09,0,.11.04Z"/><path class="cls-6" d="M132.22,209.08s-.02.07-.04.09c-.03.03-.08.01-.1-.03-.02-.04-.01-.08.02-.1.03-.01.07,0,.1,0l.02.03Z"/><path class="cls-6" d="M133.42,208.67s.02-.08.04-.1c0,0,.06,0,.07.02.02.03.01.07-.03.08-.02,0-.04,0-.08,0Z"/><path class="cls-6" d="M132.81,209.25s-.07-.03-.08-.04c0-.02,0-.05.01-.07.02,0,.06,0,.07.02.01.01,0,.05,0,.09Z"/><path class="cls-6" d="M132.39,208.61s.07.02.07.04c0,.02,0,.04-.01.07-.02,0-.05,0-.07-.02-.01-.01,0-.04,0-.08Z"/><path class="cls-6" d="M131.44,207.62s.07.03.08.04c0,.02,0,.05-.02.06,0,0-.05,0-.06-.02-.01-.02,0-.04,0-.09Z"/><path class="cls-6" d="M132.47,207.77s.03-.07.04-.07c.02,0,.04,0,.06.02,0,.02,0,.05-.02.06-.01,0-.04,0-.08,0Z"/><path class="cls-6" d="M132.78,207.48s.02-.06.03-.07c.01,0,.05,0,.06.01,0,.01,0,.05-.01.06-.01,0-.04,0-.08,0Z"/><path class="cls-6" d="M132.38,209.49s.02-.06.04-.07c.01,0,.05,0,.05.01,0,.02,0,.05-.01.06-.01,0-.04,0-.08,0Z"/><path class="cls-6" d="M132.09,209.28s-.02.06-.04.07c-.02,0-.04,0-.06-.01,0-.02,0-.05.02-.06.01,0,.04,0,.08,0Z"/><path class="cls-6" d="M134.14,207.52s.02-.06.03-.06c.02,0,.04,0,.06.01,0,.02,0,.05-.02.06,0,0-.04,0-.07-.01Z"/><path class="cls-6" d="M134.8,208.2s-.06-.02-.06-.04c0-.02.01-.04.02-.06.02,0,.04.01.05.02,0,.01,0,.04-.01.07Z"/><path class="cls-6" d="M132.61,208.76s.05.01.06.03c0,.02,0,.04,0,.06-.02,0-.04,0-.05-.02,0,0,0-.03,0-.06Z"/><path class="cls-6" d="M133.06,208.66s.05.01.06.03c0,0,0,.04-.01.04-.02,0-.04,0-.05-.01,0,0,0-.03,0-.06Z"/><path class="cls-6" d="M136.91,208.75c0,.07-.06.11-.11.11-.05,0-.1-.05-.09-.11,0-.06.05-.1.11-.09,0,0,.02,0,.03,0,.08,0,.08.01.07.09Z"/><path class="cls-6" d="M135.54,207.95s.08.05.08.1c0,.05-.05.09-.1.08-.05,0-.08-.06-.08-.1,0-.05.05-.08.1-.08Z"/><path class="cls-6" d="M135.8,209.01s.06.04.06.08c0,.05-.05.08-.09.07-.04,0-.07-.05-.06-.09,0-.05.05-.07.1-.06Z"/><path class="cls-6" d="M136.07,209.51s-.07-.05-.06-.09c0-.04.05-.07.09-.06.04,0,.07.05.07.09,0,.04-.05.07-.09.06Z"/><path class="cls-6" d="M136.36,208.45s.07.04.06.09c0,.04-.04.07-.09.06-.04,0-.07-.04-.06-.09,0-.04.04-.07.09-.06Z"/><path class="cls-6" d="M137.04,209.45s.06.05.06.09c0,.04-.04.06-.08.06-.04,0-.07-.04-.06-.08,0-.04.04-.07.08-.06Z"/><path class="cls-6" d="M135.12,208.22s.04-.06.08-.06c.04,0,.07.04.06.08,0,.04-.04.06-.08.06-.04,0-.07-.04-.06-.08Z"/><path class="cls-6" d="M136.62,209.57s-.06-.04-.05-.07c0-.03.04-.06.08-.05.04,0,.06.04.05.07,0,.04-.04.06-.08.05Z"/><path class="cls-6" d="M135.77,207.68s.02,0,.03,0c.03,0,.05.03.04.06,0,.03-.03.04-.06.03-.02,0-.03-.01-.05-.02-.03,0-.05-.02-.04-.06,0-.03.03-.04.06-.03,0,0,.01,0,.02,0h0Z"/><path class="cls-6" d="M135.42,209.38s-.06-.04-.06-.07c0-.03.04-.06.08-.05.03,0,.06.04.05.07,0,.03-.04.06-.07.05Z"/><path class="cls-6" d="M136.93,207.71s.03-.06.07-.06c.03,0,.06.04.05.07,0,.03-.06.07-.09.07-.03,0-.03-.03-.03-.08Z"/><path class="cls-6" d="M137.17,208.15s-.06-.04-.05-.08c0-.04.03-.05.07-.05.04,0,.06.04.05.07,0,.04-.04.06-.07.05Z"/><path class="cls-6" d="M136.44,207.42s.06.04.05.08c0,.03-.04.05-.07.05-.03,0-.06-.04-.05-.08,0-.03.04-.06.07-.05Z"/><path class="cls-6" d="M135.89,208.14s.04-.06.07-.05c.03,0,.06.04.05.07,0,.03-.04.06-.07.05-.03,0-.05-.04-.05-.07Z"/><path class="cls-6" d="M136.7,208.25s-.03.04-.06.04c-.03,0-.05-.04-.05-.07,0-.03.03-.05.06-.04.03,0,.05.04.05.07Z"/><path class="cls-6" d="M135.35,208.62s-.04.03-.07.03c-.03,0-.05-.03-.04-.06,0-.03.03-.05.06-.04.02,0,.04.03.05.05v.02Z"/><path class="cls-6" d="M136.2,208.94s.05-.04.07-.04c0,0,.03.03.03.05,0,.03-.02.04-.05.03-.01,0-.02-.02-.05-.04Z"/><path class="cls-6" d="M135.61,208.99s-.03-.05-.03-.06c0-.01.03-.02.04-.03.01.01.03.03.03.04,0,.01-.02.03-.04.05Z"/><path class="cls-6" d="M135.66,208.44s.03.04.02.06c0,.01-.02.02-.04.03-.01-.01-.03-.03-.03-.04,0-.01.02-.02.04-.04Z"/><path class="cls-6" d="M135.58,207.47s.03.05.02.06c0,.01-.02.03-.04.03,0,0-.03-.02-.02-.03,0-.01.02-.02.04-.05Z"/><path class="cls-6" d="M136.08,208.02s.04-.03.06-.02c.01,0,.02.02.03.04-.01,0-.03.03-.04.03-.01,0-.02-.02-.04-.04Z"/><path class="cls-6" d="M136.38,208s.04-.03.05-.02c.01,0,.03.02.02.03,0,.01-.02.03-.03.03-.01,0-.02-.02-.04-.04Z"/><path class="cls-6" d="M135.26,208.92s.04-.02.05-.02c.01,0,.03.02.02.03,0,.01-.02.03-.03.03-.01,0-.02-.02-.04-.04Z"/><path class="cls-6" d="M135.19,208.68s-.04.02-.05.02c-.01,0-.02-.02-.03-.03.01,0,.02-.02.04-.02.01,0,.02.02.04.04Z"/><path class="cls-6" d="M137.12,208.63s.03-.02.04-.02c.01,0,.02.02.03.03-.01,0-.03.02-.04.02,0,0-.02-.02-.03-.04Z"/><path class="cls-6" d="M137.17,209.3s-.02-.04-.02-.05c0-.01.02-.02.04-.02,0,.01.02.03.02.04,0,.01-.02.02-.04.03Z"/><path class="cls-6" d="M135.71,208.63s.02.03.02.04c0,.01-.02.02-.03.03,0-.01-.02-.02-.02-.03,0,0,.01-.02.03-.03Z"/><path class="cls-6" d="M136,208.77s.02.03.02.04c0,0-.02.02-.02.02,0,0-.02-.02-.02-.03,0,0,.01-.02.03-.03Z"/><path class="cls-6" d="M139.16,206.33c.03.13-.08.22-.16.22-.1,0-.18-.06-.19-.15-.01-.1.06-.19.16-.2.02,0,.03,0,.05,0,.13-.01.14,0,.14.13Z"/><path class="cls-6" d="M136.54,205.38c.09,0,.16.06.17.15,0,.09-.06.17-.16.17-.09,0-.16-.07-.16-.16,0-.09.07-.16.15-.16Z"/><path class="cls-6" d="M137.31,207.14c.07,0,.12.04.12.13,0,.08-.06.15-.13.15-.08,0-.14-.06-.14-.14,0-.08.06-.14.15-.14Z"/><path class="cls-6" d="M137.93,207.91c-.08,0-.13-.06-.13-.13,0-.07.06-.13.13-.13.08,0,.14.06.14.13,0,.07-.06.13-.14.13Z"/><path class="cls-6" d="M138.11,205.98c.07,0,.14.06.14.13,0,.07-.05.13-.13.14-.07,0-.13-.05-.14-.13,0-.07.05-.13.13-.14Z"/><path class="cls-6" d="M139.59,207.5c.07,0,.13.06.12.13,0,.07-.06.12-.12.12-.07,0-.13-.05-.13-.13,0-.07.06-.13.13-.13Z"/><path class="cls-6" d="M135.9,205.99c0-.07.05-.12.12-.12.07,0,.13.05.13.13,0,.07-.05.12-.12.12-.07,0-.13-.05-.13-.13Z"/><path class="cls-6" d="M138.91,207.85c-.07,0-.12-.05-.11-.11,0-.06.06-.12.12-.12.06,0,.11.05.11.11,0,.07-.05.12-.12.12Z"/><path class="cls-6" d="M136.84,204.84s.04,0,.06,0c.06,0,.09.04.08.1,0,.06-.04.08-.1.08-.03,0-.06-.01-.09-.01-.05,0-.09-.03-.09-.08,0-.06.04-.08.09-.08.01,0,.03,0,.04,0h0Z"/><path class="cls-6" d="M136.77,207.89c-.06,0-.12-.05-.12-.1,0-.06.05-.12.12-.12.06,0,.11.05.11.11,0,.06-.05.11-.11.11Z"/><path class="cls-6" d="M138.85,204.54c0-.07.04-.12.1-.13.06,0,.11.04.11.1,0,.06-.08.15-.14.15-.05,0-.07-.04-.07-.12Z"/><path class="cls-6" d="M139.42,205.22c-.06,0-.11-.05-.11-.12,0-.07.04-.1.11-.11.06,0,.11.05.11.11,0,.06-.05.11-.11.11Z"/><path class="cls-6" d="M137.93,204.19c.06,0,.11.06.11.12,0,.06-.05.11-.11.1-.06,0-.11-.05-.11-.12,0-.06.05-.11.11-.11Z"/><path class="cls-6" d="M137.2,205.61c0-.06.05-.11.1-.11.06,0,.11.05.11.11,0,.06-.05.11-.11.11-.06,0-.11-.05-.11-.11Z"/><path class="cls-6" d="M138.63,205.54c0,.05-.04.09-.1.09-.06,0-.11-.05-.1-.1,0-.06.04-.09.1-.1.05,0,.1.05.1.11Z"/><path class="cls-6" d="M136.42,206.6s-.07.07-.1.07c-.06.01-.09-.03-.09-.09,0-.06.03-.1.09-.09.04,0,.07.04.11.07v.04Z"/><path class="cls-6" d="M137.98,206.89s.07-.08.11-.09c.01,0,.06.04.06.07,0,.05-.03.08-.08.07-.02,0-.04-.03-.09-.05Z"/><path class="cls-6" d="M136.97,207.15s-.06-.07-.06-.1c0-.02.04-.05.06-.07.02.02.06.04.06.07,0,.02-.03.05-.06.1Z"/><path class="cls-6" d="M136.89,206.2s.06.07.06.09c0,.02-.03.04-.05.06-.02-.02-.06-.04-.06-.06,0-.02.03-.05.06-.09Z"/><path class="cls-6" d="M136.46,204.54s.06.07.06.09c0,.02-.04.05-.06.06-.01,0-.05-.03-.05-.05,0-.02.03-.05.05-.09Z"/><path class="cls-6" d="M137.49,205.33s.07-.06.09-.06c.02,0,.04.04.06.06-.02.02-.04.05-.06.06-.02,0-.05-.03-.09-.06Z"/><path class="cls-6" d="M138.01,205.2s.06-.06.08-.05c.02,0,.05.03.05.05,0,.02-.03.05-.05.05-.02,0-.04-.02-.08-.05Z"/><path class="cls-6" d="M136.35,207.15s.06-.05.08-.05c.02,0,.05.03.05.05,0,.02-.03.05-.05.06-.02,0-.04-.02-.08-.05Z"/><path class="cls-6" d="M136.16,206.75s-.06.05-.08.05c-.02,0-.04-.03-.06-.05.02-.02.04-.05.06-.05.02,0,.04.02.08.05Z"/><path class="cls-6" d="M139.47,206.07s.05-.05.07-.05c.02,0,.04.03.05.05-.02.02-.04.04-.06.05-.01,0-.03-.03-.06-.05Z"/><path class="cls-6" d="M139.77,207.21s-.05-.06-.04-.07c0-.02.04-.03.06-.05.01.02.04.04.04.06,0,.02-.03.04-.05.07Z"/><path class="cls-6" d="M137.04,206.5s.05.05.05.06c0,.02-.03.04-.04.06-.02-.02-.04-.03-.05-.05,0-.01.02-.03.04-.07Z"/><path class="cls-6" d="M137.59,206.66s.04.04.05.06c0,.01-.03.04-.04.04-.02,0-.04-.02-.05-.04,0-.01.02-.03.04-.06Z"/><path class="cls-6" d="M141.62,207.31c.02.06-.03.11-.07.11-.05,0-.09-.03-.1-.07,0-.05.02-.09.07-.1,0,0,.02,0,.02,0,.07,0,.07,0,.07.06Z"/><path class="cls-6" d="M140.31,206.9s.08.03.09.07c0,.05-.03.08-.07.09-.04,0-.08-.03-.08-.07,0-.04.03-.08.07-.08Z"/><path class="cls-6" d="M140.73,207.75s.06.02.06.06c0,.04-.02.07-.06.08-.04,0-.07-.03-.07-.06,0-.04.03-.07.07-.07Z"/><path class="cls-6" d="M141.05,208.12s-.07-.02-.07-.06c0-.04.03-.07.06-.07.04,0,.07.02.07.06,0,.04-.03.07-.07.07Z"/><path class="cls-6" d="M141.1,207.16s.07.02.07.06c0,.04-.02.07-.06.07-.04,0-.07-.02-.07-.06,0-.04.02-.07.06-.07Z"/><path class="cls-6" d="M141.86,207.87s.06.03.06.06c0,.03-.02.06-.06.06-.04,0-.06-.02-.07-.06,0-.03.03-.06.06-.07Z"/><path class="cls-6" d="M140.01,207.21s.02-.06.06-.06c.04,0,.06.02.07.06,0,.03-.02.06-.06.06-.04,0-.06-.02-.07-.06Z"/><path class="cls-6" d="M141.53,208.06s-.06-.02-.06-.05c0-.03.03-.06.06-.06.03,0,.06.02.06.05,0,.03-.02.06-.06.06Z"/><path class="cls-6" d="M140.44,206.63s.02,0,.03,0c.03,0,.04.02.04.05,0,.03-.02.04-.05.04-.01,0-.03,0-.04,0-.03,0-.04-.01-.04-.04,0-.03.02-.04.04-.04,0,0,.01,0,.02,0h0Z"/><path class="cls-6" d="M140.48,208.13s-.06-.02-.06-.05c0-.03.02-.06.05-.06.03,0,.06.02.06.05,0,.03-.02.06-.05.06Z"/><path class="cls-6" d="M141.43,206.43s.01-.06.04-.06c.03,0,.05.02.06.05,0,.03-.03.07-.06.08-.02,0-.03-.02-.04-.06Z"/><path class="cls-6" d="M141.72,206.75s-.06-.02-.06-.05c0-.03.02-.05.05-.06.03,0,.06.02.06.05,0,.03-.02.06-.05.06Z"/><path class="cls-6" d="M140.97,206.28s.06.03.06.06c0,.03-.02.05-.05.05-.03,0-.06-.02-.06-.05,0-.03.02-.05.05-.06Z"/><path class="cls-6" d="M140.64,207s.02-.05.05-.06c.03,0,.06.02.06.05,0,.03-.02.05-.05.06-.03,0-.05-.02-.06-.05Z"/><path class="cls-6" d="M141.34,206.93s-.02.04-.05.05c-.03,0-.05-.02-.05-.05,0-.03.02-.05.05-.05.03,0,.05.02.05.05Z"/><path class="cls-6" d="M140.28,207.5s-.03.03-.05.04c-.03,0-.04-.01-.05-.04,0-.03.01-.05.04-.05.02,0,.04.02.05.03v.02Z"/><path class="cls-6" d="M141.06,207.61s.03-.04.05-.05c0,0,.03.02.03.03,0,.02-.01.04-.04.04-.01,0-.02-.01-.05-.02Z"/><path class="cls-6" d="M140.56,207.76s-.03-.03-.03-.05c0-.01.02-.02.03-.04.01.01.03.02.03.03,0,.01-.01.03-.03.05Z"/><path class="cls-6" d="M140.5,207.3s.03.03.03.04c0,.01-.02.02-.02.03-.01,0-.03-.02-.03-.03,0,0,.01-.02.03-.04Z"/><path class="cls-6" d="M140.25,206.49s.03.03.03.04c0,.01-.02.03-.03.03,0,0-.03-.01-.03-.02,0-.01.01-.02.02-.05Z"/><path class="cls-6" d="M140.78,206.85s.03-.03.04-.03c.01,0,.02.02.03.03,0,.01-.02.03-.03.03-.01,0-.02-.01-.05-.03Z"/><path class="cls-6" d="M141.03,206.78s.03-.03.04-.03c0,0,.03.01.03.02,0,0-.01.03-.02.03,0,0-.02-.01-.04-.02Z"/><path class="cls-6" d="M140.26,207.78s.03-.03.04-.03c0,0,.03.01.03.02,0,.01-.01.03-.02.03,0,0-.02-.01-.04-.02Z"/><path class="cls-6" d="M140.15,207.58s-.03.03-.04.03c-.01,0-.02-.01-.03-.02,0,0,.02-.03.03-.03,0,0,.02.01.04.02Z"/><path class="cls-6" d="M141.77,207.17s.03-.03.03-.02c.01,0,.02.02.03.02,0,0-.02.02-.03.02,0,0-.02-.01-.03-.02Z"/><path class="cls-6" d="M141.94,207.72s-.02-.03-.02-.04c0-.01.02-.02.03-.03,0,0,.02.02.02.03,0,0-.01.02-.02.03Z"/><path class="cls-6" d="M140.58,207.44s.03.02.02.03c0,.01-.01.02-.02.03,0,0-.02-.02-.02-.03,0,0,0-.02.02-.03Z"/><path class="cls-6" d="M140.86,207.51s.02.02.02.03c0,0-.01.02-.02.02,0,0-.02-.01-.02-.02,0,0,0-.02.02-.03Z"/><g class="cls-7"><circle class="cls-3" cx="215.38" cy="122.63" r="6.67"/><circle class="cls-12" cx="214.5" cy="122.65" r="5.1"/><path class="cls-3" d="M214.2,106.23l9.64-5.94c.61-.37.48-1.29-.21-1.48l-10.92-2.99c-.57-.16-1.11.32-1.02.9l1.28,8.94c.08.58.73.89,1.23.58Z"/><path class="cls-10" d="M212.98,94.69h0c.48,0,.87.39.87.87v21.47h-1.74v-21.47c0-.48.39-.87.87-.87Z" transform="translate(-12.87 31.3) rotate(-8.16)"/><path class="cls-3" d="M213.2,114.26h2.41c.47,0,.85.38.85.85v2.26h-4.11v-2.26c0-.47.38-.85.85-.85Z" transform="translate(-14.27 31.61) rotate(-8.16)"/></g></g></g></svg>