<?xml version="1.0" encoding="UTF-8"?><svg xmlns="http://www.w3.org/2000/svg" xmlns:xlink="http://www.w3.org/1999/xlink" viewBox="0 0 300 300"><defs><style>.cls-1{fill:#f4af13;}.cls-2{fill:#fff;}.cls-3{fill:#e86170;}.cls-4,.cls-5{fill:none;}.cls-6{fill:#a7caec;}.cls-7{clip-path:url(#clippath-1);}.cls-8{filter:url(#drop-shadow-1);}.cls-9{isolation:isolate;}.cls-5{stroke:#f4af13;stroke-linecap:round;stroke-linejoin:round;stroke-width:3px;}.cls-10{fill:#42496f;}.cls-11{clip-path:url(#clippath);}.cls-12{fill:#6498d1;mix-blend-mode:multiply;opacity:.25;}</style><filter id="drop-shadow-1" x="185.54" y="104.4" width="30.04" height="31.11" filterUnits="userSpaceOnUse"><feOffset dx="-2" dy="0"/><feGaussianBlur result="blur" stdDeviation="0"/><feFlood flood-color="#42496f" flood-opacity="1"/><feComposite in2="blur" operator="in"/><feComposite in="SourceGraphic"/></filter><clipPath id="clippath"><path class="cls-4" d="M212.6,130.62s-22.71-1.04-25.05-1.3c.83,2.05,3.56,4.63,8.05,5.41,0,0,13.58-1.33,15.59-1.54,1.27-.86,1.41-2.57,1.41-2.57Z"/></clipPath><clipPath id="clippath-1"><path class="cls-4" d="M235.76,119.26c-3.95,3.8-8.7.63-8.7.63-4.42,2.51-8.39,1.78-10.43,1.09-.18.19-.43.31-.7.31-.48,0-.88-.35-.95-.81-8.11,4.13-9.59-1.37-9.59-1.37-6.56,5.46-14.23,3.8-14.23,3.8l-.47-29.78h52.51v28.04c-3.8,0-7.43-1.9-7.43-1.9Z"/></clipPath></defs><g class="cls-9"><g id="Calque_11"><path class="cls-5" d="M106.48,202.91c15.06-.73,26.98,1.88,38.98,1.32,17.36-.81,30.95-7.5,27.05-17.01-8.92-21.75-88.24-14.97-73.75-54.93,5.16-14.22,28.58-19.1,52.98,3.07,19.69,17.89,25.71,42.91,46.42,32.06,19.63-10.28-2.53-25.24-8.43-38.86"/><circle class="cls-1" cx="189.71" cy="128.99" r="5.02"/><g class="cls-8"><path class="cls-3" d="M204.17,107.7s-13.02,14.31-16.15,20.96c4.53-1.33,11.18-1.02,13.66-.32l2.5-20.64Z"/><path class="cls-12" d="M203.92,108.77s-4.94,15.21-7.11,17.42c0,0,3.98,1.16,4.87,2.15l2.24-19.57Z"/><path class="cls-3" d="M204.24,108.68s7.32,16.87,10.44,20l-12.52-.92,2.08-19.08Z"/><path class="cls-12" d="M204.07,109.42s1.84,15.68,7.43,18.89l-9.31-.63,1.88-18.26Z"/><polygon class="cls-2" points="204.66 105.33 204.3 105.29 201 130.28 202.18 130.42 204.66 105.33"/><path class="cls-2" d="M212.6,130.62s-22.71-1.04-25.05-1.3c.83,2.05,3.56,4.63,8.05,5.41,0,0,13.58-1.33,15.59-1.54,1.27-.86,1.41-2.57,1.41-2.57Z"/><g class="cls-11"><path class="cls-12" d="M195.27,135.51s-3.31-.69-5.73-4.2c-.2-.3.01-.7.37-.7,3.54.07,17.7.29,21.69.43.37.01.65.36.58.72-.13.66-.49,1.61-1.41,2.04l-15.5,1.7Z"/></g><polygon class="cls-2" points="215.5 129.01 202.2 128.21 202.19 127.68 215.59 128.67 215.5 129.01"/><path class="cls-3" d="M204,105.11c-.73-.54-1.78-1.13-2.83-.3-3.34,2.64-2.92-.08-5.36.32,1.6.25,1.83,2.69,4.53,2.59,1.67-.06,1.64-1.03,3.37.03l.29-2.65Z"/></g><path class="cls-6" d="M188.61,134.66c.37-.34,1.05-.64,1.71-.7,1.19-.1,1.55.14,1.55.14,1.51-1.01,4.49-3.1,7.07-2.27,2.58.84-6.45,4.83-6.96,4.47s2.62-1.89,1.97-1.92c-.7-.03-1.8.14-2.43.33-.88-.26-3.79.74-2.91-.06Z"/><path class="cls-2" d="M199.14,132.05c.1-.01.16.07.15.13,0,.07-.06.13-.13.13-.07,0-.14-.06-.14-.13,0-.01,0-.02,0-.04,0-.1,0-.11.11-.1Z"/><path class="cls-2" d="M198.26,133.95c0-.07.06-.12.12-.11.07,0,.12.06.12.13,0,.06-.06.12-.13.11-.07,0-.12-.06-.11-.13Z"/><path class="cls-2" d="M199.62,133.48c0-.06.04-.09.1-.08.06,0,.11.05.1.11,0,.06-.05.1-.11.1-.06,0-.1-.05-.1-.12Z"/><path class="cls-2" d="M200.24,133.07c0,.06-.05.1-.11.09-.05,0-.09-.05-.09-.11,0-.06.05-.1.11-.1.06,0,.09.06.09.12Z"/><path class="cls-2" d="M198.81,132.81c0-.05.05-.1.1-.1.06,0,.1.05.09.11,0,.06-.05.1-.1.1-.06,0-.1-.05-.09-.1Z"/><path class="cls-2" d="M200.04,131.8c0-.05.05-.09.11-.08.05,0,.09.05.08.1,0,.05-.05.09-.1.09-.05,0-.09-.05-.09-.1Z"/><path class="cls-2" d="M198.67,134.47c-.05,0-.09-.05-.08-.1,0-.05.05-.09.1-.09.05,0,.09.05.08.1,0,.05-.05.09-.1.09Z"/><path class="cls-2" d="M200.26,132.34s-.04.08-.09.08c-.05,0-.08-.05-.08-.1,0-.05.04-.08.09-.08.05,0,.08.05.08.1Z"/><path class="cls-2" d="M197.87,133.69s0-.03,0-.04c0-.04.04-.06.08-.06.04,0,.06.04.05.08,0,.02-.01.04-.02.06,0,.04-.03.06-.07.06-.04,0-.05-.04-.05-.07,0,0,0-.02,0-.03h0Z"/><path class="cls-2" d="M200.15,133.94s-.04.08-.09.08c-.05,0-.08-.05-.08-.1,0-.04.05-.08.09-.08.05,0,.08.04.08.09Z"/><path class="cls-2" d="M197.77,132.16c-.05,0-.09-.03-.09-.08,0-.04.04-.08.08-.08.04,0,.1.07.1.11,0,.03-.03.05-.1.05Z"/><path class="cls-2" d="M198.32,131.78s-.05.08-.09.07c-.05,0-.07-.04-.07-.09,0-.05.04-.08.09-.08.05,0,.08.04.08.09Z"/><path class="cls-2" d="M197.45,132.83s.05-.08.1-.07c.05,0,.08.04.07.09,0,.05-.05.08-.09.07-.04,0-.08-.05-.07-.09Z"/><path class="cls-2" d="M198.47,133.47s-.08-.04-.08-.09c0-.05.05-.08.09-.08.04,0,.08.04.07.09,0,.04-.04.08-.09.07Z"/><path class="cls-2" d="M198.51,132.4s.06.03.06.08c0,.04-.04.08-.08.07-.04,0-.07-.04-.07-.08,0-.04.04-.07.09-.07Z"/><path class="cls-2" d="M199.16,134.12s.05.05.05.08c0,.04-.03.07-.07.06-.04,0-.07-.03-.06-.07,0-.03.04-.05.06-.08h.03Z"/><path class="cls-2" d="M199.48,132.97s-.05-.06-.06-.09c0-.01.04-.04.06-.04.04,0,.06.03.05.06,0,.02-.02.03-.05.06Z"/><path class="cls-2" d="M199.61,133.74s-.06.04-.08.04c-.02,0-.03-.03-.05-.05.02-.02.03-.04.05-.04.02,0,.04.02.07.05Z"/><path class="cls-2" d="M198.89,133.74s.05-.04.07-.04c.02,0,.03.03.04.04-.02.02-.03.04-.05.04-.01,0-.03-.02-.06-.05Z"/><path class="cls-2" d="M197.62,133.96s.06-.04.07-.04c.02,0,.04.03.04.05,0,.01-.03.04-.04.04-.02,0-.03-.02-.07-.05Z"/><path class="cls-2" d="M198.28,133.23s-.04-.06-.04-.07c0-.02.03-.03.05-.04.01.02.04.03.04.05,0,.02-.02.03-.05.06Z"/><path class="cls-2" d="M198.22,132.84s-.04-.05-.04-.06c0-.01.03-.04.04-.04.01,0,.04.02.04.04,0,.01-.02.03-.04.06Z"/><path class="cls-2" d="M199.57,134.21s-.04-.05-.03-.06c0-.01.03-.04.04-.03.02,0,.04.02.04.04,0,.01-.02.03-.04.06Z"/><path class="cls-2" d="M199.26,134.32s.04.05.03.06c0,.02-.03.03-.04.04-.01-.02-.03-.03-.04-.05,0-.01.02-.03.04-.06Z"/><path class="cls-2" d="M198.96,131.8s-.03-.04-.03-.05c0-.02.03-.03.04-.04.01.02.03.03.03.05,0,.01-.02.02-.04.04Z"/><path class="cls-2" d="M199.83,131.64s-.05.03-.06.03c-.02,0-.02-.03-.03-.04.02,0,.03-.03.05-.03.01,0,.03.02.05.04Z"/><path class="cls-2" d="M199.12,133.65s.04-.03.05-.03c.02,0,.03.02.04.04-.01.01-.03.03-.04.03-.01,0-.02-.02-.05-.03Z"/><path class="cls-2" d="M199.28,133.24s.04-.03.05-.03c0,0,.03.02.03.03,0,.01-.02.03-.03.03,0,0-.02-.02-.04-.03Z"/><path class="cls-6" d="M194.84,134.6s1.91-.04,3.75-.46,2.69-1.06,3.72-1.11-.88.91-.88.91c0,0,1.74-.47,2.56-.27.64.15-.53.63-.53.63,0,0,2.58-.5,3.49-.39s2.51.2,3.83-.11-.56.63-1.71.74-1.8-.21-3.28.1-3.9.22-3.95.03,1.5-.41.95-.44c-.31-.02-.73.06-1.79.25-2,.35-5.37.86-6.15.13Z"/><path class="cls-6" d="M203.45,133.93s.63-.12,2.24-.24,1.93-.35,3-.41,4.47-.24,5.82-.31,2.42-.26,2.75-.27c1.64-.08-2.06.45-3.04.5s-1.68-.03-2.58.04-3.11.39-4.14.42-2.86.57-3.14.63c-1.23.25-1.89-.22-.92-.36Z"/><path class="cls-6" d="M202.57,133.01c-.04-.09.02-.18.09-.2.07-.02.15.02.18.09.03.07-.01.15-.09.18-.01,0-.02,0-.04.01-.1.03-.11.03-.13-.08Z"/><path class="cls-6" d="M204.78,133.32c-.07.02-.14-.02-.15-.09-.02-.07.02-.14.09-.16.07-.02.14.03.15.1.02.07-.03.14-.09.15Z"/><path class="cls-6" d="M203.88,132.08c-.06.01-.1-.02-.12-.08-.02-.06.02-.12.08-.14.06-.01.12.02.13.08.01.06-.02.12-.09.14Z"/><path class="cls-6" d="M203.26,131.57c.06-.01.11.02.13.08.01.06-.02.11-.08.13-.06.01-.12-.02-.13-.08-.01-.06.03-.11.09-.13Z"/><path class="cls-6" d="M203.45,133.11c-.06.01-.12-.02-.13-.08-.01-.06.02-.11.08-.13.06-.01.11.02.13.08.02.06-.02.11-.08.13Z"/><path class="cls-6" d="M202.03,132.18c-.05.01-.11-.03-.12-.08,0-.05.02-.1.08-.12.06-.01.11.02.12.08.01.06-.02.11-.08.12Z"/><path class="cls-6" d="M205.17,132.74c.01.05-.02.1-.08.12-.06.01-.11-.02-.12-.08-.01-.05.02-.1.08-.12.06-.01.11.02.12.08Z"/><path class="cls-6" d="M202.51,131.79c.05-.01.1.02.11.07,0,.05-.03.1-.07.11-.05.01-.1-.02-.11-.07-.01-.05.02-.1.07-.11Z"/><path class="cls-6" d="M204.63,133.8s-.03,0-.04,0c-.05,0-.08-.02-.08-.06,0-.05.02-.07.06-.08.02,0,.05,0,.07,0,.04,0,.07,0,.08.05,0,.04-.02.07-.06.07-.01,0-.02,0-.03,0h0Z"/><path class="cls-6" d="M204.18,131.4s.1.02.11.06c.01.05-.02.1-.07.11-.05.01-.1-.02-.11-.07-.01-.05.02-.09.07-.11Z"/><path class="cls-6" d="M203.11,134.37c.01.05,0,.1-.05.11-.04.01-.09-.02-.11-.06-.01-.05.04-.13.08-.14.04,0,.06.02.08.08Z"/><path class="cls-6" d="M202.55,133.93s.1.02.1.07c0,.05-.02.09-.07.1-.05.01-.1-.02-.11-.07-.01-.05.02-.1.07-.11Z"/><path class="cls-6" d="M203.89,134.49s-.1-.03-.1-.07c0-.05.02-.09.07-.1.05,0,.1.02.11.07,0,.05-.02.09-.07.1Z"/><path class="cls-6" d="M204.22,133.26s-.02.09-.06.1c-.05.01-.1-.02-.11-.07,0-.05.02-.09.07-.1.04,0,.09.02.1.07Z"/><path class="cls-6" d="M203.11,133.54s.01-.07.06-.09c.04-.01.09.02.1.06,0,.05-.01.08-.06.09-.04.01-.09-.02-.1-.07Z"/><path class="cls-6" d="M204.66,132.35s.04-.06.07-.08c.04-.02.08.01.09.05.01.04-.01.08-.05.09-.03,0-.06-.02-.1-.04v-.03Z"/><path class="cls-6" d="M203.39,132.38s-.04.07-.07.09c0,0-.05-.02-.06-.04-.01-.04,0-.07.05-.07.02,0,.04.01.08.03Z"/><path class="cls-6" d="M204.14,132.01s.06.05.06.06c0,.02-.02.04-.03.06-.02-.01-.05-.02-.06-.04,0-.02.01-.04.03-.09Z"/><path class="cls-6" d="M204.37,132.74s-.06-.04-.06-.06c0-.02.02-.04.03-.06.02.01.05.02.06.04,0,.01-.01.04-.03.08Z"/><path class="cls-6" d="M204.98,133.97s-.06-.04-.06-.06c0-.02.02-.05.04-.05.01,0,.05.02.05.03,0,.02-.01.04-.03.08Z"/><path class="cls-6" d="M204.04,133.52s-.04.06-.06.06c-.02,0-.04-.02-.06-.03.01-.02.02-.05.04-.05.02,0,.04.01.08.03Z"/><path class="cls-6" d="M203.66,133.71s-.04.05-.05.06c-.02,0-.05-.02-.05-.03,0-.01.01-.04.03-.05.01,0,.04.01.07.02Z"/><path class="cls-6" d="M204.63,131.91s-.04.05-.05.06c-.01,0-.05-.02-.05-.03,0-.02.01-.05.03-.05.01,0,.04.01.07.03Z"/><path class="cls-6" d="M204.84,132.19s.04-.05.05-.05c.02,0,.04.02.05.03-.01.02-.02.04-.04.05-.01,0-.04-.01-.07-.02Z"/><path class="cls-6" d="M202.37,133.28s-.03.05-.05.05c-.02,0-.03-.02-.05-.03.01-.02.02-.04.04-.05.01,0,.03.02.06.03Z"/><path class="cls-6" d="M201.94,132.44s.05.04.05.05c0,.02-.02.03-.03.05-.01-.01-.04-.02-.04-.04,0-.01.01-.03.03-.06Z"/><path class="cls-6" d="M204.2,132.53s-.05-.03-.05-.04c0-.02.01-.03.02-.05.02.01.04.02.04.03,0,.01-.01.03-.02.06Z"/><path class="cls-6" d="M203.74,132.5s-.04-.03-.05-.04c0,0,.02-.04.02-.04.02,0,.04.01.04.03,0,0,0,.03-.02.05Z"/><path class="cls-6" d="M199.68,133.25c0-.07.06-.12.1-.11.05,0,.1.05.1.1,0,.06-.05.1-.1.1,0,0-.02,0-.03,0-.08,0-.08,0-.07-.09Z"/><path class="cls-6" d="M201.09,133.98s-.09-.05-.08-.1c0-.05.05-.09.1-.08.05,0,.09.05.08.1,0,.05-.05.09-.1.08Z"/><path class="cls-6" d="M200.78,132.93s-.06-.03-.06-.08c0-.05.04-.08.09-.07.04,0,.07.04.07.09,0,.05-.04.07-.1.07Z"/><path class="cls-6" d="M200.49,132.44s.07.04.07.08c0,.04-.04.07-.09.06-.05,0-.08-.04-.07-.08,0-.04.05-.07.09-.06Z"/><path class="cls-6" d="M200.24,133.52s-.07-.04-.07-.08c0-.04.04-.07.08-.07.04,0,.07.04.07.08,0,.04-.04.07-.08.07Z"/><path class="cls-6" d="M199.52,132.55s-.07-.04-.06-.08c0-.04.04-.06.08-.06.04,0,.07.04.06.08,0,.04-.04.07-.08.06Z"/><path class="cls-6" d="M201.49,133.69s-.04.06-.08.06c-.04,0-.07-.04-.06-.08,0-.04.04-.06.08-.06.04,0,.07.04.06.08Z"/><path class="cls-6" d="M199.93,132.41s.06.04.06.07c0,.04-.04.06-.08.06-.04,0-.06-.04-.05-.07,0-.04.04-.06.08-.06Z"/><path class="cls-6" d="M200.87,134.26s-.02,0-.03,0c-.03,0-.05-.03-.04-.06,0-.03.03-.04.06-.04.02,0,.03.01.05.01.03,0,.05.02.04.05,0,.03-.03.04-.06.04,0,0-.02,0-.02,0h0Z"/><path class="cls-6" d="M201.14,132.55s.06.03.06.07c0,.03-.04.06-.07.06-.03,0-.06-.04-.06-.07,0-.03.04-.06.07-.06Z"/><path class="cls-6" d="M199.71,134.28s-.03.07-.06.06c-.03,0-.06-.03-.06-.07,0-.03.06-.08.09-.07.03,0,.04.03.03.08Z"/><path class="cls-6" d="M199.45,133.86s.06.04.05.07c0,.04-.03.06-.07.05-.04,0-.06-.03-.05-.07,0-.04.04-.06.07-.05Z"/><path class="cls-6" d="M200.21,134.55s-.06-.04-.05-.08c0-.04.03-.06.07-.05.03,0,.06.04.05.07,0,.03-.04.06-.07.05Z"/><path class="cls-6" d="M200.73,133.8s-.04.06-.07.06c-.03,0-.06-.04-.05-.07,0-.03.04-.06.07-.05.03,0,.06.04.05.07Z"/><path class="cls-6" d="M199.92,133.73s.03-.05.06-.04c.03,0,.06.03.05.06,0,.03-.03.05-.06.05-.03,0-.05-.03-.05-.07Z"/><path class="cls-6" d="M201.24,133.3s.04-.03.06-.03c.03,0,.05.02.05.06,0,.03-.03.05-.06.05-.02,0-.04-.03-.06-.05v-.02Z"/><path class="cls-6" d="M200.38,133.02s-.05.04-.07.04c0,0-.03-.03-.03-.04,0-.03.02-.04.05-.04.01,0,.02.02.05.04Z"/><path class="cls-6" d="M200.97,132.95s.03.05.03.06c0,.01-.02.02-.04.03-.01-.01-.03-.03-.03-.04,0-.01.02-.03.04-.05Z"/><path class="cls-6" d="M200.95,133.49s-.03-.04-.03-.05c0-.01.02-.02.03-.03.01.01.03.03.03.04,0,.01-.02.02-.04.05Z"/><path class="cls-6" d="M201.07,134.46s-.03-.04-.03-.06c0-.01.02-.03.04-.03,0,0,.03.02.03.03,0,.01-.02.03-.04.05Z"/><path class="cls-6" d="M200.54,133.94s-.04.03-.05.02c-.01,0-.02-.02-.03-.04.01,0,.03-.03.04-.03.01,0,.02.02.05.04Z"/><path class="cls-6" d="M200.24,133.97s-.04.03-.05.03c-.01,0-.03-.02-.03-.03,0-.01.02-.03.03-.03.01,0,.02.02.04.03Z"/><path class="cls-6" d="M201.32,133s-.04.03-.05.02c-.01,0-.03-.02-.03-.03,0-.01.02-.03.03-.03.01,0,.02.02.04.03Z"/><path class="cls-6" d="M201.4,133.23s.04-.03.05-.02c.01,0,.02.02.03.03-.01,0-.02.03-.04.03-.01,0-.02-.02-.04-.03Z"/><path class="cls-6" d="M199.48,133.37s-.03.02-.04.02c-.01,0-.02-.02-.03-.03.01,0,.02-.02.04-.02,0,0,.02.02.03.03Z"/><path class="cls-6" d="M199.39,132.71s.02.04.02.05c0,.01-.02.02-.04.02,0-.01-.02-.02-.02-.04,0-.01.02-.02.03-.03Z"/><path class="cls-6" d="M200.88,133.31s-.02-.03-.02-.04c0-.01.02-.02.03-.03,0,.01.02.02.02.03,0,0-.01.02-.03.03Z"/><path class="cls-6" d="M200.59,133.18s-.02-.03-.02-.04c0,0,.02-.02.02-.02.01,0,.02.02.02.03,0,0-.01.02-.03.03Z"/><path class="cls-6" d="M197.92,130.47c.08-.1.21-.08.27-.02.06.07.07.18,0,.25-.07.07-.18.07-.25,0-.01-.01-.02-.02-.03-.04-.09-.1-.09-.11.01-.2Z"/><path class="cls-6" d="M198.84,133.11c-.06-.07-.05-.17.01-.22.07-.06.17-.06.23.01.06.07.05.17-.02.23-.07.06-.17.05-.22-.02Z"/><path class="cls-6" d="M199.71,131.39c-.05-.06-.04-.12.02-.18.06-.05.15-.05.2,0,.05.06.04.14-.02.19-.06.05-.15.04-.21-.03Z"/><path class="cls-6" d="M199.92,130.43c.05.06.04.14-.02.19-.06.05-.14.04-.19-.02-.05-.06-.05-.15.01-.19.06-.05.14-.03.19.03Z"/><path class="cls-6" d="M198.31,131.51c-.05-.06-.04-.14.01-.19.05-.05.14-.04.19.01.05.06.04.14-.01.19-.06.05-.14.04-.19-.01Z"/><path class="cls-6" d="M198.55,129.4c-.04-.05-.03-.14.02-.18.05-.04.13-.03.17.02.05.05.04.13-.02.18-.05.04-.13.04-.18-.02Z"/><path class="cls-6" d="M199.7,133.22c-.05.04-.13.04-.17-.02-.05-.06-.04-.13.02-.18.05-.04.13-.03.17.02.05.06.04.13-.02.18Z"/><path class="cls-6" d="M199.26,129.71c.04.05.03.12-.01.16-.05.04-.13.03-.17-.02-.04-.05-.03-.12.02-.16.05-.04.12-.03.16.02Z"/><path class="cls-6" d="M198.22,133.21s-.03-.03-.04-.04c-.03-.05-.02-.09.02-.13.05-.03.09-.02.12.03.02.02.03.05.04.08.03.04.03.09-.01.12-.05.03-.08.02-.12-.02,0-.01-.02-.02-.03-.03h0Z"/><path class="cls-6" d="M200.64,131.35s.04.12,0,.16c-.05.04-.13.03-.17-.02-.04-.04-.03-.12.01-.16.05-.04.12-.03.16.02Z"/><path class="cls-6" d="M196.72,131.84c-.05.05-.12.05-.16,0-.04-.04-.04-.11,0-.15.04-.04.16-.03.2.01.03.04.01.07-.05.13Z"/><path class="cls-6" d="M196.89,130.98s.03.12-.02.16c-.05.04-.11.03-.15-.02-.04-.05-.03-.12.02-.16.05-.04.12-.03.16.02Z"/><path class="cls-6" d="M197.03,132.78s-.03-.12.02-.16c.05-.04.11-.03.15.02.04.05.03.12-.02.16-.05.04-.12.03-.15-.02Z"/><path class="cls-6" d="M198.59,132.45s-.11.03-.15-.01c-.04-.05-.03-.12.02-.16.05-.04.12-.03.15.02.04.04.03.11-.02.15Z"/><path class="cls-6" d="M197.64,131.38s.09-.03.13.02c.04.04.03.11-.01.14-.05.03-.1.03-.14-.01-.04-.04-.03-.11.02-.15Z"/><path class="cls-6" d="M199.85,132.43s.09,0,.12.03c.04.04.03.09,0,.13-.04.04-.1.04-.13,0-.02-.03-.01-.08-.01-.13l.03-.02Z"/><path class="cls-6" d="M199.09,131.03c-.06-.01-.11,0-.14-.03-.01,0,0-.07.01-.09.03-.04.08-.03.11.01.01.02,0,.05.01.1Z"/><path class="cls-6" d="M199.93,131.65c-.02.05-.02.1-.03.11-.02.01-.06,0-.09,0,0-.03,0-.07.01-.09.02-.02.06,0,.11-.02Z"/><path class="cls-6" d="M199.25,132.32s.01-.09.03-.1c.02-.01.05,0,.08,0,0,.03,0,.07-.01.09-.01.02-.05,0-.1.01Z"/><path class="cls-6" d="M198.23,133.7c.02-.05.02-.09.03-.1.02-.01.06,0,.08.01.01,0,0,.06,0,.07-.02.02-.05.01-.11.02Z"/><path class="cls-6" d="M198.19,132.4c-.05-.02-.09-.02-.1-.03-.01-.02,0-.05,0-.08.03,0,.07,0,.08.01.02.01,0,.05.01.11Z"/><path class="cls-6" d="M197.77,132.08s-.08-.01-.09-.03c-.01-.02,0-.06,0-.07.01-.01.06,0,.07,0,.01.01,0,.05.01.09Z"/><path class="cls-6" d="M200.32,132.14s-.08-.01-.09-.03c-.01-.01,0-.06,0-.07.02-.01.06-.01.08,0,.01.01,0,.05.01.1Z"/><path class="cls-6" d="M200.13,132.53s.08.01.09.03c.01.02,0,.05,0,.08-.03,0-.06,0-.08-.01-.01-.01,0-.05-.01-.1Z"/><path class="cls-6" d="M197.52,130.39s-.07-.01-.08-.02c0-.02,0-.05,0-.07.03,0,.06,0,.07.02.01,0,0,.04,0,.08Z"/><path class="cls-6" d="M198.21,129.44s-.02.07-.03.08c-.02,0-.05,0-.07-.01,0-.02,0-.06.02-.07.01-.01.05,0,.09,0Z"/><path class="cls-6" d="M199.38,132.01s0-.07.02-.08c.02-.01.05,0,.07,0,0,.02,0,.05-.01.07,0,.01-.04,0-.08,0Z"/><path class="cls-6" d="M199.16,131.48s0-.06.02-.08c0,0,.05,0,.05,0,0,.02,0,.05,0,.06,0,0-.04,0-.07,0Z"/><path class="cls-6" d="M194.91,132.31c-.05-.04-.04-.11-.01-.13.03-.03.09-.03.12,0,.04.03.04.09,0,.12,0,0-.01.01-.02.02-.05.05-.05.05-.1,0Z"/><path class="cls-6" d="M196.2,131.84s-.08.03-.11,0c-.03-.03-.03-.08,0-.11.03-.03.08-.02.11,0,.03.03.03.08,0,.11Z"/><path class="cls-6" d="M195.35,131.43s-.06.02-.09,0c-.03-.03-.03-.07,0-.1.03-.02.07-.02.1,0,.03.03.02.07-.01.1Z"/><path class="cls-6" d="M194.87,131.33s.07-.02.09,0c.02.03.02.07,0,.09-.03.03-.07.02-.1,0-.02-.03-.02-.07.01-.1Z"/><path class="cls-6" d="M195.42,132.11s-.07.02-.09,0c-.02-.03-.02-.07,0-.09.03-.02.07-.02.09,0,.03.03.02.07,0,.09Z"/><path class="cls-6" d="M194.38,132.01s-.07.02-.09,0c-.02-.03-.02-.06,0-.09.03-.02.07-.02.09,0,.02.03.02.07,0,.09Z"/><path class="cls-6" d="M196.25,131.41s.02.06,0,.09c-.03.02-.07.02-.09,0-.02-.03-.02-.06,0-.09.03-.02.07-.02.09,0Z"/><path class="cls-6" d="M194.52,131.66s.06-.02.08,0c.02.02.02.06,0,.08-.02.02-.06.02-.08,0-.02-.02-.02-.06,0-.08Z"/><path class="cls-6" d="M196.26,132.14s-.01.01-.02.02c-.02.02-.05.01-.06,0-.02-.02,0-.05.01-.06.01,0,.03-.01.04-.02.02-.02.04-.02.06,0,.02.02,0,.04-.01.06,0,0,0,0-.01.01h0Z"/><path class="cls-6" d="M195.32,130.97s.06-.02.08,0c.02.02.02.06,0,.08-.02.02-.06.02-.08,0-.02-.02-.02-.06,0-.08Z"/><path class="cls-6" d="M195.6,132.89s.02.06,0,.08c-.02.02-.06.02-.08,0-.02-.02-.02-.08,0-.1.02-.01.04,0,.07.02Z"/><path class="cls-6" d="M195.17,132.82s.06-.02.08,0c.02.03.02.05,0,.07-.02.02-.06.02-.08,0-.02-.02-.02-.06,0-.08Z"/><path class="cls-6" d="M196.06,132.73s-.06.01-.08-.01c-.02-.02-.02-.06,0-.07.02-.02.06-.01.08,0,.02.02.01.06,0,.08Z"/><path class="cls-6" d="M195.88,131.96s.02.06,0,.08c-.02.02-.06.02-.08,0-.02-.02-.02-.06,0-.07.02-.02.06-.01.08,0Z"/><path class="cls-6" d="M195.36,132.44s-.01-.04,0-.06c.02-.02.06-.02.07,0,.02.02.01.05,0,.07-.02.02-.05.01-.07,0Z"/><path class="cls-6" d="M195.86,131.34s0-.05.02-.06c.02-.02.04-.02.06,0,.02.02.02.05,0,.06-.02.01-.04,0-.06,0h-.01Z"/><path class="cls-6" d="M195.18,131.73s0,.05-.01.07c0,0-.04,0-.05,0-.02-.02-.02-.04,0-.05,0,0,.02,0,.05,0Z"/><path class="cls-6" d="M195.47,131.31s.05,0,.05.02c0,0,0,.03,0,.04-.02,0-.04,0-.04,0,0,0,0-.03,0-.06Z"/><path class="cls-6" d="M195.81,131.64s-.04,0-.05-.01c0,0,0-.03,0-.04.01,0,.03,0,.04,0,0,0,0,.03,0,.05Z"/><path class="cls-6" d="M196.5,132.13s-.05,0-.05-.02c0,0,0-.03,0-.04,0,0,.03,0,.04,0,0,0,0,.03.01.05Z"/><path class="cls-6" d="M195.86,132.16s0,.04-.02.05c0,0-.03,0-.04,0,0-.01,0-.03,0-.04,0,0,.03,0,.05,0Z"/><path class="cls-6" d="M195.7,132.37s0,.04-.01.05c0,0-.03,0-.04,0,0,0,0-.03,0-.04,0,0,.02,0,.05,0Z"/><path class="cls-6" d="M195.71,131.11s0,.04-.01.05c0,0-.03,0-.03,0,0,0,0-.03,0-.04,0,0,.02,0,.05,0Z"/><path class="cls-6" d="M195.91,131.2s0-.04.01-.05c0,0,.03,0,.04,0,0,.01,0,.03,0,.04,0,0-.02,0-.05,0Z"/><path class="cls-6" d="M194.88,132.52s0,.04-.01.04c0,0-.02,0-.04,0,0-.01,0-.03,0-.04,0,0,.02,0,.04,0Z"/><path class="cls-6" d="M194.4,132.18s.04,0,.04.01c0,0,0,.02,0,.04-.01,0-.03,0-.03,0,0,0,0-.02,0-.04Z"/><path class="cls-6" d="M195.65,131.58s-.03,0-.04,0c0,0,0-.02,0-.03.01,0,.03,0,.03,0,0,0,0,.02,0,.04Z"/><path class="cls-6" d="M195.4,131.69s-.03,0-.04,0c0,0,0-.02,0-.03,0,0,.02,0,.03,0,0,0,0,.02,0,.03Z"/><g class="cls-7"><circle class="cls-3" cx="215.38" cy="122.63" r="6.67"/><circle class="cls-12" cx="214.5" cy="122.65" r="5.1"/><path class="cls-3" d="M214.2,106.23l9.64-5.94c.61-.37.48-1.29-.21-1.48l-10.92-2.99c-.57-.16-1.11.32-1.02.9l1.28,8.94c.08.58.73.89,1.23.58Z"/><path class="cls-10" d="M212.98,94.69h0c.48,0,.87.39.87.87v21.47h-1.74v-21.47c0-.48.39-.87.87-.87Z" transform="translate(-12.87 31.3) rotate(-8.16)"/><path class="cls-3" d="M213.2,114.26h2.41c.47,0,.85.38.85.85v2.26h-4.11v-2.26c0-.47.38-.85.85-.85Z" transform="translate(-14.27 31.61) rotate(-8.16)"/></g></g></g></svg>