<?xml version="1.0" encoding="UTF-8"?>
<svg xmlns="http://www.w3.org/2000/svg" width="300" height="300" xmlns:xlink="http://www.w3.org/1999/xlink" viewBox="0 0 300 300">
  <defs>
    <filter id="c" data-name="drop-shadow-1" x="185.541" y="104.398" width="30.045" height="31.109" filterUnits="userSpaceOnUse">
      <feOffset dx="-2" dy="0"/>
      <feGaussianBlur result="d" stdDeviation="0"/>
      <feFlood flood-color="#42496f" flood-opacity="1"/>
      <feComposite in2="d" operator="in"/>
      <feComposite in="SourceGraphic"/>
    </filter>
    <clipPath id="e">
      <path d="M212.595,130.615s-22.711-1.044-25.054-1.304c.833,2.046,3.556,4.633,8.051,5.413,0,0,13.583-1.331,15.591-1.543,1.272-.856,1.412-2.566,1.412-2.566Z" fill="none"/>
    </clipPath>
    <clipPath id="f">
      <path d="M235.761,119.262c-3.954,3.796-8.698.633-8.698.633-4.423,2.512-8.392,1.781-10.426,1.088-.176.189-.425.308-.703.308-.481,0-.876-.353-.95-.813-8.108,4.134-9.588-1.374-9.588-1.374-6.563,5.456-14.233,3.796-14.233,3.796l-.474-29.778h52.506v28.038c-3.796,0-7.433-1.898-7.433-1.898Z" fill="none"/>
    </clipPath>
  </defs>
  <g isolation="isolate">
    <g id="b" data-name="Calque 11">
      <g>
        <g>
          <g>
            <path d="M106.482,202.909c15.059-.735,26.976,1.88,38.98,1.322,17.36-.806,30.945-7.502,27.045-17.008-8.922-21.748-88.242-14.968-73.747-54.927,5.158-14.22,28.579-19.099,52.975,3.067,19.688,17.888,25.712,42.907,46.423,32.064,19.627-10.276-2.53-25.236-8.427-38.864" fill="none" stroke="#f4af13" stroke-linecap="round" stroke-linejoin="round" stroke-width="3"/>
            <circle cx="189.709" cy="128.989" r="5.025" fill="#f4af13"/>
          </g>
          <g>
            <g filter="url(#c)">
              <path d="M204.174,107.697s-13.015,14.314-16.152,20.963c4.53-1.325,11.183-1.015,13.656-.319l2.497-20.644Z" fill="#e86170"/>
              <path d="M203.917,108.773s-4.945,15.212-7.114,17.416c0,0,3.984,1.162,4.873,2.151l2.24-19.568Z" fill="#6498d1" mix-blend-mode="multiply" opacity=".25"/>
              <path d="M204.241,108.684s7.323,16.867,10.441,20.001l-12.517-.922,2.076-19.079Z" fill="#e86170"/>
              <path d="M204.073,109.421s1.835,15.677,7.433,18.888l-9.313-.631,1.88-18.258Z" fill="#6498d1" mix-blend-mode="multiply" opacity=".25"/>
              <polygon points="204.659 105.331 204.303 105.29 200.995 130.281 202.177 130.418 204.659 105.331" fill="#fff"/>
              <path d="M212.595,130.615s-22.711-1.044-25.054-1.304c.833,2.046,3.556,4.633,8.051,5.413,0,0,13.583-1.331,15.591-1.543,1.272-.856,1.412-2.566,1.412-2.566Z" fill="#fff"/>
              <g clip-path="url(#e)">
                <path d="M195.274,135.507s-3.309-.688-5.728-4.204c-.204-.297.012-.704.372-.697,3.545.074,17.705.29,21.691.43.373.013.652.355.577.721-.135.657-.487,1.606-1.412,2.045l-15.5,1.704Z" fill="#6498d1" mix-blend-mode="multiply" opacity=".25"/>
              </g>
              <polygon points="215.499 129.007 202.196 128.209 202.194 127.679 215.586 128.665 215.499 129.007" fill="#fff"/>
              <path d="M203.996,105.112c-.732-.544-1.783-1.13-2.834-.299-3.339,2.641-2.923-.076-5.363.321,1.6.253,1.828,2.693,4.53,2.595,1.67-.061,1.641-1.03,3.374.029l.292-2.645Z" fill="#e86170"/>
            </g>
            <path d="M188.613,134.665c.371-.339,1.051-.642,1.713-.695,1.191-.096,1.549.141,1.549.141,1.507-1.013,4.492-3.104,7.073-2.267,2.581.837-6.445,4.833-6.965,4.473s2.622-1.892,1.97-1.918c-.698-.028-1.798.138-2.428.33-.884-.265-3.791.738-2.913-.064Z" fill="#a7caec"/>
            <g>
              <path d="M199.137,132.051c.097-.012.157.071.155.131-.002.072-.058.132-.128.134-.074.002-.135-.055-.138-.13,0-.012.001-.024.001-.036,0-.102.007-.108.11-.099Z" fill="#fff"/>
              <path d="M198.256,133.954c.003-.066.059-.116.125-.114.07.002.122.059.116.128-.005.065-.063.115-.128.112-.065-.003-.117-.061-.114-.125Z" fill="#fff"/>
              <path d="M199.622,133.483c.003-.055.041-.085.104-.083.061.002.107.051.104.11-.003.057-.052.099-.11.095-.061-.004-.101-.055-.097-.122Z" fill="#fff"/>
              <path d="M200.244,133.071c-.005.057-.051.097-.106.092-.055-.005-.095-.053-.09-.109.005-.06.052-.104.107-.099.055.005.094.055.089.116Z" fill="#fff"/>
              <path d="M198.807,132.813c.003-.055.05-.098.105-.096.055.002.098.05.094.105-.003.056-.049.098-.105.095-.056-.002-.098-.048-.095-.104Z" fill="#fff"/>
              <path d="M200.04,131.8c.005-.052.053-.091.106-.085.05.006.087.05.084.101-.003.054-.049.092-.103.088-.053-.005-.092-.051-.087-.104Z" fill="#fff"/>
              <path d="M198.668,134.469c-.052-.005-.088-.048-.084-.1.004-.054.049-.092.103-.087.051.005.088.049.084.1-.004.054-.049.092-.104.087Z" fill="#fff"/>
              <path d="M200.257,132.336c-.004.049-.044.084-.09.078-.047-.006-.084-.051-.08-.098.004-.048.043-.08.091-.076.05.004.083.045.079.096Z" fill="#fff"/>
              <path d="M197.868,133.692c.001-.014,0-.028.003-.042.009-.042.035-.063.078-.056.043.007.059.038.054.08-.003.022-.013.042-.016.064-.007.04-.027.064-.068.059-.042-.005-.055-.035-.051-.074.001-.01.002-.02.002-.03h-.002Z" fill="#fff"/>
              <path d="M200.15,133.943c-.002.047-.041.085-.086.082-.045-.003-.085-.048-.082-.095.003-.044.046-.082.091-.078.045.004.08.044.077.091Z" fill="#fff"/>
              <path d="M197.774,132.163c-.052-.002-.088-.035-.088-.08,0-.043.04-.079.084-.078.045.001.105.068.101.112-.003.035-.031.048-.097.046Z" fill="#fff"/>
              <path d="M198.316,131.784c-.005.046-.047.081-.094.073-.049-.008-.075-.038-.073-.088.002-.048.042-.081.09-.077.048.004.081.044.077.092Z" fill="#fff"/>
              <path d="M197.45,132.832c.005-.045.05-.079.096-.074.047.005.077.043.071.089-.006.046-.048.08-.094.075-.043-.005-.078-.047-.073-.09Z" fill="#fff"/>
              <path d="M198.467,133.473c-.044-.003-.079-.043-.077-.086.002-.045.045-.081.092-.076.044.005.078.045.073.088-.004.043-.045.077-.088.074Z" fill="#fff"/>
              <path d="M198.512,132.396c.038.008.063.033.061.078-.002.041-.042.077-.082.071-.044-.007-.067-.035-.067-.079,0-.041.042-.074.088-.07Z" fill="#fff"/>
              <path d="M199.161,134.119c.017.027.045.053.049.082.005.043-.03.065-.071.063-.043-.002-.072-.032-.064-.071.006-.028.038-.051.058-.076l.029.002Z" fill="#fff"/>
              <path d="M199.48,132.967c-.03-.04-.054-.061-.061-.086-.002-.01.036-.042.056-.043.037-.002.06.026.051.065-.004.017-.022.031-.047.064Z" fill="#fff"/>
              <path d="M199.609,133.741c-.036.021-.058.043-.075.04-.018-.003-.032-.031-.047-.048.018-.015.035-.041.053-.042.018,0,.036.025.07.05Z" fill="#fff"/>
              <path d="M198.89,133.743c.034-.019.053-.04.07-.038.017.003.03.028.045.044-.017.015-.033.04-.052.043-.014.002-.032-.024-.063-.048Z" fill="#fff"/>
              <path d="M197.618,133.956c.036-.02.057-.042.072-.039.017.004.036.03.039.048.002.011-.028.037-.043.036-.017,0-.034-.022-.068-.046Z" fill="#fff"/>
              <path d="M198.276,133.234c-.019-.035-.039-.056-.036-.071.004-.017.03-.028.046-.042.014.017.038.033.038.05,0,.016-.024.032-.049.063Z" fill="#fff"/>
              <path d="M198.217,132.839c-.019-.03-.039-.048-.036-.062.003-.015.027-.037.041-.036.014,0,.036.025.037.04.001.014-.02.03-.042.058Z" fill="#fff"/>
              <path d="M199.568,134.207c-.018-.03-.036-.048-.035-.063.001-.014.028-.037.037-.035.017.004.039.024.041.04.002.013-.021.03-.043.058Z" fill="#fff"/>
              <path d="M199.257,134.324c.018.031.037.05.034.064-.003.016-.027.027-.041.041-.013-.015-.035-.03-.036-.046,0-.015.021-.031.043-.059Z" fill="#fff"/>
              <path d="M198.959,131.797c-.014-.024-.034-.043-.03-.054.005-.016.027-.025.042-.038.011.016.03.031.032.047,0,.011-.023.024-.044.044Z" fill="#fff"/>
              <path d="M199.831,131.644c-.027.014-.047.032-.059.027-.015-.006-.024-.029-.035-.045.015-.01.031-.028.046-.026.014.001.026.023.048.044Z" fill="#fff"/>
              <path d="M199.124,133.646c.023-.015.039-.034.05-.031.015.004.026.023.039.035-.014.011-.027.028-.043.031-.011.002-.025-.018-.046-.035Z" fill="#fff"/>
              <path d="M199.281,133.245c.023-.015.036-.029.05-.03.009,0,.028.024.026.03-.005.014-.021.028-.035.031-.008.002-.022-.016-.041-.032Z" fill="#fff"/>
            </g>
            <path d="M194.845,134.6s1.914-.038,3.754-.456c1.841-.418,2.693-1.061,3.717-1.107s-.885.912-.885.912c0,0,1.739-.467,2.563-.271.643.153-.535.627-.535.627,0,0,2.576-.499,3.487-.388s2.513.199,3.827-.114c1.315-.313-.563.632-1.706.736s-1.796-.211-3.284.102-3.896.219-3.947.025,1.501-.41.949-.438c-.31-.015-.731.061-1.789.247-2.002.351-5.372.864-6.152.125Z" fill="#a7caec"/>
            <path d="M203.45,133.934s.633-.117,2.238-.24c1.605-.123,1.932-.349,3.002-.407s4.467-.237,5.822-.315c1.355-.078,2.423-.259,2.748-.275,1.641-.081-2.064.454-3.042.505-.978.051-1.68-.034-2.579.036-.9.07-3.11.385-4.135.425-1.025.039-2.861.574-3.136.63-1.229.251-1.892-.224-.918-.36Z" fill="#a7caec"/>
            <g>
              <g>
                <path d="M202.569,133.015c-.042-.095.023-.181.085-.198.074-.02.152.018.176.089.025.075-.014.155-.09.18-.012.004-.025.006-.037.01-.103.032-.112.027-.135-.081Z" fill="#a7caec"/>
                <path d="M204.778,133.32c-.068.017-.136-.024-.155-.092-.02-.072.022-.142.094-.158.067-.015.137.028.154.095.017.067-.025.138-.092.155Z" fill="#a7caec"/>
                <path d="M203.875,132.078c-.057.014-.099-.015-.117-.08-.017-.062.019-.125.079-.14.059-.014.117.022.131.083.015.063-.024.12-.094.137Z" fill="#a7caec"/>
                <path d="M203.262,131.573c.059-.013.114.022.126.079.012.057-.025.113-.083.125-.063.014-.122-.021-.134-.078-.012-.058.027-.113.09-.126Z" fill="#a7caec"/>
                <path d="M203.447,133.115c-.057.014-.116-.021-.13-.077-.015-.057.02-.115.077-.129.058-.014.114.019.129.077.015.058-.018.114-.077.129Z" fill="#a7caec"/>
                <path d="M202.033,132.175c-.054.011-.109-.026-.119-.082-.01-.053.024-.105.077-.117.056-.013.109.021.121.077.012.055-.023.109-.079.121Z" fill="#a7caec"/>
                <path d="M205.174,132.742c.011.054-.021.104-.075.116-.056.013-.109-.021-.12-.078-.011-.054.022-.105.076-.117.056-.013.109.022.12.079Z" fill="#a7caec"/>
                <path d="M202.511,131.788c.051-.011.099.019.107.067.009.049-.026.102-.074.112-.05.011-.095-.019-.106-.069-.011-.052.02-.099.073-.11Z" fill="#a7caec"/>
                <path d="M204.632,133.796c-.015.003-.029.008-.044.009-.045.004-.075-.016-.081-.062-.006-.046.021-.072.064-.079.023-.004.047,0,.07-.003.042-.006.073.008.081.051.008.045-.019.066-.06.074-.01.002-.021.005-.031.007v.002Z" fill="#a7caec"/>
                <path d="M204.178,131.397c.049-.012.099.016.11.062.012.047-.023.101-.072.113-.046.011-.098-.022-.108-.068-.01-.047.02-.095.069-.107Z" fill="#a7caec"/>
                <path d="M203.107,134.367c.014.054-.008.1-.054.114-.043.013-.093-.016-.105-.061-.012-.046.037-.128.083-.138.036-.008.059.017.077.085Z" fill="#a7caec"/>
                <path d="M202.553,133.933c.049-.01.097.023.104.073.008.052-.016.088-.067.102-.049.013-.096-.018-.106-.068-.01-.05.02-.096.069-.106Z" fill="#a7caec"/>
                <path d="M203.888,134.489c-.047.008-.096-.026-.105-.075-.009-.049.02-.091.068-.1.049-.009.097.024.105.072.008.046-.024.094-.068.102Z" fill="#a7caec"/>
                <path d="M204.223,133.255c.01.045-.019.094-.063.105-.047.012-.096-.021-.106-.07-.009-.046.021-.093.067-.102.045-.009.092.022.102.067Z" fill="#a7caec"/>
                <path d="M203.114,133.544c-.004-.041.014-.074.061-.086.043-.011.091.019.097.062.007.047-.015.079-.06.092-.042.012-.088-.02-.098-.068Z" fill="#a7caec"/>
                <path d="M204.664,132.348c.022-.026.04-.062.068-.075.042-.019.076.01.086.053.011.044-.01.083-.053.088-.03.003-.063-.023-.095-.035l-.007-.03Z" fill="#a7caec"/>
                <path d="M203.394,132.382c-.031.043-.045.074-.069.088-.01.006-.054-.023-.061-.044-.014-.037.008-.069.05-.072.019-.001.039.013.08.028Z" fill="#a7caec"/>
                <path d="M204.141,132.01c.032.031.062.046.064.064.002.02-.022.042-.034.063-.021-.013-.053-.023-.059-.041-.006-.018.014-.045.029-.086Z" fill="#a7caec"/>
                <path d="M204.367,132.741c-.03-.028-.058-.042-.06-.059-.002-.018.019-.039.03-.059.021.013.051.021.059.039.007.014-.014.04-.03.079Z" fill="#a7caec"/>
                <path d="M204.978,133.968c-.032-.03-.06-.045-.062-.061-.001-.018.019-.046.037-.054.011-.005.046.017.05.032.005.018-.012.042-.026.083Z" fill="#a7caec"/>
                <path d="M204.04,133.523c-.03.03-.044.057-.061.058-.018.001-.038-.021-.057-.034.013-.019.021-.048.039-.054.016-.006.04.014.079.03Z" fill="#a7caec"/>
                <path d="M203.657,133.707c-.025.028-.037.054-.052.056-.016.002-.046-.016-.05-.03-.004-.014.014-.044.029-.05.014-.006.037.011.072.024Z" fill="#a7caec"/>
                <path d="M204.628,131.908c-.025.028-.037.052-.053.055-.014.003-.046-.016-.047-.027,0-.018.012-.047.028-.054.013-.006.037.012.073.026Z" fill="#a7caec"/>
                <path d="M204.843,132.187c.026-.028.039-.053.055-.055.017-.002.036.019.054.029-.011.018-.019.045-.035.05-.015.005-.038-.012-.074-.025Z" fill="#a7caec"/>
                <path d="M202.366,133.275c-.02.022-.033.047-.045.047-.018,0-.034-.02-.051-.031.012-.017.022-.04.038-.047.011-.004.032.016.058.031Z" fill="#a7caec"/>
                <path d="M201.94,132.436c.022.023.047.038.046.051-.001.017-.022.033-.035.049-.014-.013-.038-.023-.041-.038-.003-.015.015-.034.03-.062Z" fill="#a7caec"/>
                <path d="M204.196,132.533c-.023-.019-.046-.029-.047-.041,0-.017.015-.034.023-.051.015.011.037.019.044.034.005.011-.01.031-.021.058Z" fill="#a7caec"/>
                <path d="M203.738,132.498c-.022-.019-.041-.028-.046-.042-.003-.009.016-.036.023-.036.015.001.035.012.043.025.005.008-.01.027-.02.052Z" fill="#a7caec"/>
              </g>
              <g>
                <path d="M199.678,133.245c-.006-.074.059-.116.105-.112.055.004.098.048.097.102-.001.056-.047.1-.103.099-.009,0-.018-.002-.027-.002-.077-.003-.082-.009-.071-.087Z" fill="#a7caec"/>
                <path d="M201.086,133.978c-.05-.005-.086-.048-.082-.098.004-.053.049-.09.101-.084.049.006.085.051.08.101-.005.049-.05.086-.099.082Z" fill="#a7caec"/>
                <path d="M200.778,132.929c-.042-.004-.063-.034-.059-.082.004-.046.042-.079.086-.075.043.004.073.043.068.087-.005.046-.045.075-.096.069Z" fill="#a7caec"/>
                <path d="M200.488,132.444c.043.005.071.042.066.083-.006.041-.043.07-.085.064-.045-.006-.077-.043-.071-.085.006-.042.045-.069.091-.063Z" fill="#a7caec"/>
                <path d="M200.243,133.522c-.041-.004-.073-.041-.069-.082.004-.042.041-.072.083-.068.042.004.072.04.068.082-.004.043-.04.072-.082.068Z" fill="#a7caec"/>
                <path d="M199.519,132.554c-.039-.005-.067-.043-.06-.083.006-.038.041-.064.079-.06.041.004.068.04.063.081-.005.04-.042.068-.082.062Z" fill="#a7caec"/>
                <path d="M201.49,133.685c-.006.039-.039.065-.078.06-.041-.005-.068-.04-.062-.081.006-.039.04-.065.079-.06.041.005.068.04.062.081Z" fill="#a7caec"/>
                <path d="M199.932,132.409c.037.005.062.037.056.071-.006.035-.042.062-.077.057-.036-.005-.059-.035-.055-.072.005-.037.037-.061.075-.056Z" fill="#a7caec"/>
                <path d="M200.874,134.263c-.011-.001-.021-.001-.031-.004-.031-.008-.047-.029-.04-.061.007-.032.031-.043.062-.038.016.003.031.011.048.015.03.006.047.023.042.054-.005.032-.029.04-.058.036-.007-.001-.015-.002-.023-.003h0Z" fill="#a7caec"/>
                <path d="M201.144,132.545c.036.003.063.034.059.068-.003.034-.04.062-.075.059-.033-.004-.06-.038-.056-.071.005-.034.036-.059.072-.055Z" fill="#a7caec"/>
                <path d="M199.715,134.281c-.003.039-.029.065-.064.064-.032-.002-.058-.033-.056-.066.003-.034.055-.077.088-.073.026.003.035.025.031.075Z" fill="#a7caec"/>
                <path d="M199.447,133.857c.035.005.059.038.052.074-.007.037-.032.055-.069.052-.036-.003-.06-.035-.055-.071.005-.036.036-.06.072-.055Z" fill="#a7caec"/>
                <path d="M200.209,134.549c-.034-.006-.058-.041-.052-.075.006-.035.035-.056.069-.051.035.006.059.039.053.074-.005.033-.039.057-.07.052Z" fill="#a7caec"/>
                <path d="M200.73,133.802c-.004.033-.035.058-.068.055-.034-.003-.06-.037-.054-.072.005-.033.037-.057.069-.052.032.005.057.037.053.069Z" fill="#a7caec"/>
                <path d="M199.917,133.731c.007-.028.027-.046.061-.043.031.003.056.035.05.065-.007.033-.029.05-.062.048-.031-.002-.055-.034-.05-.069Z" fill="#a7caec"/>
                <path d="M201.242,133.3c.021-.012.042-.032.064-.034.033-.003.048.025.045.056-.003.032-.027.053-.056.046-.021-.005-.037-.03-.055-.046l.002-.022Z" fill="#a7caec"/>
                <path d="M200.382,133.019c-.031.021-.048.039-.067.043-.008.001-.03-.028-.03-.044,0-.028.022-.044.051-.036.013.004.023.018.047.038Z" fill="#a7caec"/>
                <path d="M200.972,132.948c.014.028.031.046.028.058-.003.014-.025.023-.038.034-.011-.014-.03-.028-.03-.042,0-.013.02-.027.04-.051Z" fill="#a7caec"/>
                <path d="M200.949,133.492c-.014-.026-.029-.042-.026-.054.003-.013.022-.022.034-.032.011.013.029.026.03.041.001.011-.019.024-.039.046Z" fill="#a7caec"/>
                <path d="M201.065,134.461c-.014-.028-.03-.044-.027-.056.004-.013.024-.026.038-.028.008,0,.027.022.026.034,0,.013-.018.025-.037.05Z" fill="#a7caec"/>
                <path d="M200.543,133.938c-.027.013-.043.028-.055.024-.012-.003-.02-.023-.03-.036.013-.01.026-.027.039-.027.012,0,.024.019.046.039Z" fill="#a7caec"/>
                <path d="M200.242,133.969c-.023.013-.038.028-.048.025-.011-.002-.027-.022-.026-.032.001-.01.02-.026.032-.027.011,0,.022.017.042.033Z" fill="#a7caec"/>
                <path d="M201.323,132.995c-.024.013-.037.026-.049.024-.01-.001-.027-.022-.025-.029.004-.013.019-.028.032-.03.01,0,.022.017.043.035Z" fill="#a7caec"/>
                <path d="M201.401,133.234c.024-.012.039-.026.05-.024.012.003.02.021.029.033-.012.009-.024.025-.036.025-.011,0-.022-.017-.043-.034Z" fill="#a7caec"/>
                <path d="M199.48,133.372c-.019.01-.034.024-.042.021-.012-.005-.018-.022-.027-.033.012-.008.024-.022.037-.022.008,0,.017.018.032.035Z" fill="#a7caec"/>
                <path d="M199.394,132.707c.009.021.022.037.019.045-.005.011-.023.017-.035.025-.007-.012-.02-.025-.018-.035.002-.011.018-.019.035-.035Z" fill="#a7caec"/>
                <path d="M200.884,133.311c-.011-.018-.024-.031-.022-.039.003-.011.018-.019.028-.029.008.011.021.022.022.033,0,.008-.014.018-.028.034Z" fill="#a7caec"/>
                <path d="M200.585,133.179c-.01-.018-.021-.028-.021-.039,0-.007.019-.021.024-.018.01.005.021.017.023.027.001.006-.013.016-.026.03Z" fill="#a7caec"/>
              </g>
              <g>
                <path d="M197.922,130.473c.082-.101.215-.077.269-.017.065.071.067.18.001.246-.069.07-.18.072-.252.003-.011-.011-.021-.024-.032-.036-.095-.097-.094-.11.014-.196Z" fill="#a7caec"/>
                <path d="M198.835,133.105c-.057-.066-.051-.165.014-.225.069-.062.171-.056.229.015.055.067.047.168-.019.225-.065.057-.168.05-.224-.015Z" fill="#a7caec"/>
                <path d="M199.707,131.395c-.048-.056-.039-.119.023-.175.06-.054.15-.05.2.009.049.057.041.143-.017.193-.062.052-.147.041-.206-.027Z" fill="#a7caec"/>
                <path d="M199.921,130.426c.048.058.041.14-.017.186-.057.046-.14.037-.187-.021-.051-.062-.046-.148.011-.194.057-.046.141-.034.192.029Z" fill="#a7caec"/>
                <path d="M198.309,131.507c-.048-.055-.043-.14.012-.188.055-.049.139-.043.187.013.049.057.044.138-.012.188-.056.05-.138.044-.187-.012Z" fill="#a7caec"/>
                <path d="M198.553,129.399c-.044-.054-.033-.136.023-.179.054-.041.13-.033.174.019.046.055.039.133-.018.179-.055.045-.135.036-.179-.019Z" fill="#a7caec"/>
                <path d="M199.704,133.218c-.054.043-.128.035-.173-.018-.046-.055-.038-.134.019-.178.054-.042.13-.035.173.018.046.055.038.133-.019.179Z" fill="#a7caec"/>
                <path d="M199.255,129.711c.041.051.035.121-.013.158-.05.038-.128.029-.167-.019-.04-.049-.033-.117.017-.157.051-.042.121-.034.164.019Z" fill="#a7caec"/>
                <path d="M198.223,133.214c-.012-.014-.025-.028-.035-.043-.03-.048-.025-.093.023-.125.048-.032.092-.018.125.027.017.023.027.052.043.076.03.044.033.086-.011.119-.045.034-.085.017-.117-.024-.008-.01-.017-.02-.025-.031h-.002Z" fill="#a7caec"/>
                <path d="M200.637,131.346c.041.047.039.119-.006.158-.046.039-.126.032-.166-.016-.038-.045-.031-.121.015-.158.047-.038.117-.031.158.016Z" fill="#a7caec"/>
                <path d="M196.721,131.838c-.052.046-.116.048-.158.005-.039-.041-.035-.112.009-.152.044-.04.163-.032.2.014.03.036.015.075-.051.133Z" fill="#a7caec"/>
                <path d="M196.89,130.976c.038.049.03.12-.022.157-.054.038-.107.032-.151-.017-.043-.047-.034-.117.016-.157.05-.04.119-.033.158.017Z" fill="#a7caec"/>
                <path d="M197.029,132.777c-.036-.047-.025-.122.024-.159.05-.038.113-.03.15.019.037.05.028.121-.021.158-.046.035-.118.026-.152-.018Z" fill="#a7caec"/>
                <path d="M198.593,132.451c-.045.037-.115.032-.153-.011-.04-.045-.031-.119.018-.157.047-.036.116-.029.151.016.036.045.028.115-.017.152Z" fill="#a7caec"/>
                <path d="M197.642,131.38c.044-.027.091-.026.13.019.037.041.03.112-.014.143-.048.034-.097.028-.137-.014-.037-.04-.028-.11.02-.148Z" fill="#a7caec"/>
                <path d="M199.853,132.427c.042.01.092.009.122.033.045.036.032.09-.01.126-.042.037-.099.036-.128-.009-.021-.032-.011-.083-.014-.126l.029-.025Z" fill="#a7caec"/>
                <path d="M199.094,131.032c-.065-.01-.108-.008-.137-.026-.012-.007-.004-.073.014-.093.033-.036.081-.031.108.015.012.02.008.05.015.105Z" fill="#a7caec"/>
                <path d="M199.933,131.653c-.016.053-.016.095-.035.108-.02.014-.059,0-.09-.002.003-.031-.005-.071.012-.089.016-.017.057-.01.113-.016Z" fill="#a7caec"/>
                <path d="M199.248,132.319c.014-.05.014-.088.032-.1.019-.013.055,0,.083,0-.002.03.005.068-.01.089-.011.015-.053.007-.104.011Z" fill="#a7caec"/>
                <path d="M198.228,133.696c.015-.053.015-.093.033-.103.02-.012.062-.005.082.01.011.009.007.061-.008.074-.017.016-.053.011-.107.019Z" fill="#a7caec"/>
                <path d="M198.191,132.399c-.05-.016-.089-.017-.099-.035-.012-.019.002-.054.005-.082.028.003.066-.004.082.012.015.014.007.053.012.105Z" fill="#a7caec"/>
                <path d="M197.769,132.076c-.045-.011-.081-.01-.092-.026-.011-.017-.008-.06.006-.072.014-.012.057-.009.072.004.014.013.008.048.014.094Z" fill="#a7caec"/>
                <path d="M200.323,132.137c-.045-.013-.079-.012-.092-.028-.011-.014-.008-.061.003-.068.02-.011.059-.013.076,0,.014.011.008.048.012.096Z" fill="#a7caec"/>
                <path d="M200.135,132.535c.046.013.082.013.092.03.012.018,0,.051-.002.077-.026-.003-.061.004-.076-.011-.014-.013-.008-.048-.014-.096Z" fill="#a7caec"/>
                <path d="M197.517,130.394c-.036-.01-.072-.01-.078-.024-.009-.02.003-.049.006-.075.025.004.057.001.074.016.011.01,0,.044-.001.083Z" fill="#a7caec"/>
                <path d="M198.209,129.444c-.013.038-.016.074-.031.08-.02.008-.049-.006-.075-.01.006-.023.005-.055.019-.067.015-.012.046-.003.086-.002Z" fill="#a7caec"/>
                <path d="M199.382,132.01c.008-.036.006-.068.019-.075.018-.01.046-.003.07-.003-.003.023,0,.052-.013.069-.009.012-.04.006-.076.01Z" fill="#a7caec"/>
                <path d="M199.161,131.481c.008-.035.008-.061.021-.075.008-.008.049-.003.053.005.007.018.006.046-.004.062-.006.01-.036.005-.069.008Z" fill="#a7caec"/>
              </g>
              <g>
                <path d="M194.911,132.315c-.051-.039-.04-.105-.011-.132.035-.033.088-.035.121-.003.035.033.037.088.004.124-.005.006-.012.011-.017.016-.047.048-.053.047-.097-.005Z" fill="#a7caec"/>
                <path d="M196.2,131.839c-.032.029-.081.027-.111-.005-.031-.033-.029-.084.005-.113.032-.028.082-.025.111.007.029.032.026.082-.005.111Z" fill="#a7caec"/>
                <path d="M195.348,131.426c-.027.024-.058.021-.087-.01-.027-.029-.026-.073.002-.099.028-.025.07-.022.095.007.026.03.022.072-.011.102Z" fill="#a7caec"/>
                <path d="M194.869,131.33c.028-.024.068-.021.092.006.023.027.019.068-.008.092-.03.026-.073.024-.096-.004-.023-.028-.018-.069.012-.095Z" fill="#a7caec"/>
                <path d="M195.417,132.114c-.027.024-.069.022-.093-.004-.024-.027-.022-.068.005-.092.028-.025.068-.023.093.004.025.027.023.067-.004.092Z" fill="#a7caec"/>
                <path d="M194.376,132.014c-.026.022-.067.018-.088-.01-.021-.026-.017-.064.008-.086.026-.023.065-.02.088.007.023.027.019.066-.008.089Z" fill="#a7caec"/>
                <path d="M196.247,131.409c.022.026.019.063-.007.085-.027.023-.066.02-.088-.007-.021-.026-.018-.064.007-.086.027-.023.065-.02.088.008Z" fill="#a7caec"/>
                <path d="M194.523,131.665c.025-.021.059-.018.078.005.019.024.015.063-.008.082-.024.02-.057.017-.078-.007-.021-.025-.018-.06.008-.081Z" fill="#a7caec"/>
                <path d="M196.259,132.14c-.007.006-.013.013-.021.018-.023.015-.046.013-.062-.01-.016-.023-.01-.045.012-.062.011-.009.025-.014.037-.022.021-.015.042-.017.059.004.017.022.009.042-.011.058-.005.004-.01.009-.015.013h0Z" fill="#a7caec"/>
                <path d="M195.315,130.968c.023-.021.058-.02.078.002.02.022.017.062-.006.082-.022.019-.059.017-.078-.006-.019-.023-.017-.057.006-.078Z" fill="#a7caec"/>
                <path d="M195.596,132.893c.023.025.025.057.004.078-.02.02-.055.018-.075-.003-.02-.021-.017-.08.005-.099.017-.015.037-.008.066.024Z" fill="#a7caec"/>
                <path d="M195.169,132.818c.024-.019.059-.016.078.009.019.026.017.052-.007.075-.023.021-.057.018-.077-.006-.02-.024-.017-.058.007-.078Z" fill="#a7caec"/>
                <path d="M196.056,132.732c-.023.018-.06.014-.079-.01-.019-.024-.016-.055.008-.074.024-.019.059-.015.078.009.018.023.014.058-.008.075Z" fill="#a7caec"/>
                <path d="M195.88,131.965c.019.022.017.056-.004.075-.022.02-.058.017-.078-.007-.018-.023-.015-.057.007-.075.022-.018.056-.015.075.007Z" fill="#a7caec"/>
                <path d="M195.361,132.444c-.014-.021-.014-.044.008-.064.02-.018.055-.016.071.005.017.023.015.047-.006.068-.019.019-.054.015-.073-.008Z" fill="#a7caec"/>
                <path d="M195.856,131.344c.005-.021.004-.046.015-.061.017-.023.044-.016.062.003.019.021.019.048-.003.063-.015.01-.041.006-.062.008l-.013-.014Z" fill="#a7caec"/>
                <path d="M195.175,131.731c-.004.032-.003.053-.012.068-.004.006-.036.003-.046-.006-.018-.016-.016-.04.006-.054.01-.006.025-.004.051-.008Z" fill="#a7caec"/>
                <path d="M195.473,131.312c.026.007.047.007.054.016.007.01,0,.029,0,.044-.015-.001-.035.003-.044-.005-.009-.008-.005-.028-.009-.055Z" fill="#a7caec"/>
                <path d="M195.808,131.643c-.025-.006-.043-.006-.05-.015-.007-.009,0-.027,0-.041.015,0,.034-.003.044.004.008.005.004.026.007.051Z" fill="#a7caec"/>
                <path d="M196.497,132.132c-.026-.007-.046-.007-.051-.015-.006-.01-.003-.031.004-.04.004-.006.03-.004.037.003.008.008.006.026.01.053Z" fill="#a7caec"/>
                <path d="M195.858,132.163c-.007.025-.008.044-.016.049-.009.006-.027,0-.041-.002.001-.014-.002-.032.005-.041.007-.008.026-.004.052-.007Z" fill="#a7caec"/>
                <path d="M195.703,132.375c-.005.023-.004.04-.012.046-.008.006-.03.005-.036-.002-.006-.007-.005-.028.001-.036.006-.007.023-.005.046-.008Z" fill="#a7caec"/>
                <path d="M195.708,131.115c-.006.022-.005.039-.013.045-.007.006-.03.005-.033-.001-.006-.01-.007-.029,0-.037.005-.007.024-.004.047-.007Z" fill="#a7caec"/>
                <path d="M195.906,131.204c.006-.023.006-.04.014-.046.009-.006.025,0,.038,0-.001.013.002.03-.004.038-.006.007-.024.005-.047.008Z" fill="#a7caec"/>
                <path d="M194.876,132.515c-.005.018-.004.036-.011.039-.01.005-.024,0-.037-.002.002-.013,0-.028.007-.037.005-.006.022,0,.041,0Z" fill="#a7caec"/>
                <path d="M194.401,132.183c.019.006.036.007.04.014.004.01-.002.024-.004.037-.012-.003-.027-.002-.033-.009-.006-.007-.002-.023-.002-.042Z" fill="#a7caec"/>
                <path d="M195.655,131.58c-.018-.004-.034-.002-.037-.009-.005-.009-.002-.023-.002-.035.012.001.026,0,.034.006.006.004.003.02.005.038Z" fill="#a7caec"/>
                <path d="M195.396,131.694c-.017-.004-.03-.003-.037-.009-.004-.004-.002-.024.002-.026.009-.004.023-.003.031.001.005.003.003.018.004.034Z" fill="#a7caec"/>
              </g>
            </g>
          </g>
        </g>
        <g clip-path="url(#f)">
          <g>
            <circle cx="215.384" cy="122.635" r="6.669" fill="#e86170"/>
            <circle cx="214.501" cy="122.651" r="5.096" fill="#6498d1" mix-blend-mode="multiply" opacity=".25"/>
            <path d="M214.198,106.232l9.643-5.943c.607-.374.475-1.292-.212-1.48l-10.924-2.994c-.566-.155-1.106.321-1.022.902l1.282,8.937c.083.581.735.886,1.235.578Z" fill="#e86170"/>
            <path d="M212.978,94.687h0c.48,0,.869.39.869.869v21.471h-1.739v-21.471c0-.48.39-.869.869-.869Z" transform="translate(-12.87 31.304) rotate(-8.161)" fill="#42496f"/>
            <path d="M213.199,114.258h2.414c.469,0,.849.38.849.849v2.263h-4.112v-2.263c0-.469.38-.849.849-.849Z" transform="translate(-14.269 31.607) rotate(-8.161)" fill="#e86170"/>
          </g>
        </g>
      </g>
    </g>
  </g>
</svg>