<?xml version="1.0" encoding="UTF-8"?><svg xmlns="http://www.w3.org/2000/svg" xmlns:xlink="http://www.w3.org/1999/xlink" viewBox="0 0 300 300"><defs><style>.cls-1{fill:#f4af13;}.cls-2{fill:#fff;}.cls-3{fill:#e86170;}.cls-4,.cls-5{fill:none;}.cls-6{fill:#a7caec;}.cls-7{clip-path:url(#clippath-1);}.cls-8{filter:url(#drop-shadow-1);}.cls-9{isolation:isolate;}.cls-5{stroke:#f4af13;stroke-linecap:round;stroke-linejoin:round;stroke-width:3px;}.cls-10{fill:#42496f;}.cls-11{clip-path:url(#clippath);}.cls-12{fill:#6498d1;mix-blend-mode:multiply;opacity:.25;}</style><filter id="drop-shadow-1" x="80.34" y="98.33" width="30.04" height="31.11" filterUnits="userSpaceOnUse"><feOffset dx="-2" dy="0"/><feGaussianBlur result="blur" stdDeviation="0"/><feFlood flood-color="#42496f" flood-opacity="1"/><feComposite in2="blur" operator="in"/><feComposite in="SourceGraphic"/></filter><clipPath id="clippath"><path class="cls-4" d="M85.33,124.54s22.71-1.04,25.05-1.3c-.83,2.05-3.56,4.63-8.05,5.41,0,0-13.58-1.33-15.59-1.54-1.27-.86-1.41-2.57-1.41-2.57Z"/></clipPath><clipPath id="clippath-1"><path class="cls-4" d="M235.76,119.26c-3.95,3.8-8.7.63-8.7.63-4.42,2.51-8.39,1.78-10.43,1.09-.18.19-.43.31-.7.31-.48,0-.88-.35-.95-.81-8.11,4.13-9.59-1.37-9.59-1.37-6.56,5.46-14.23,3.8-14.23,3.8l-.47-29.78h52.51v28.04c-3.8,0-7.43-1.9-7.43-1.9Z"/></clipPath></defs><g class="cls-9"><g id="Calque_7"><path class="cls-5" d="M106.48,202.91c15.06-.73,26.98,1.88,38.98,1.32,17.36-.81,30.95-7.5,27.05-17.01-8.92-21.75-88.24-14.97-73.75-54.93,1.49-4.11,4.5-7.43,8.62-9.56"/><circle class="cls-1" cx="107.04" cy="123.09" r="5.02"/><g class="cls-8"><path class="cls-3" d="M93.75,101.63s13.02,14.31,16.15,20.96c-4.53-1.33-11.18-1.02-13.66-.32l-2.5-20.64Z"/><path class="cls-12" d="M94.01,102.7s4.94,15.21,7.11,17.42c0,0-3.98,1.16-4.87,2.15l-2.24-19.57Z"/><path class="cls-3" d="M93.68,102.61s-7.32,16.87-10.44,20l12.52-.92-2.08-19.08Z"/><path class="cls-12" d="M93.85,103.35s-1.84,15.68-7.43,18.89l9.31-.63-1.88-18.26Z"/><polygon class="cls-2" points="93.27 99.26 93.62 99.22 96.93 124.21 95.75 124.35 93.27 99.26"/><path class="cls-2" d="M85.33,124.54s22.71-1.04,25.05-1.3c-.83,2.05-3.56,4.63-8.05,5.41,0,0-13.58-1.33-15.59-1.54-1.27-.86-1.41-2.57-1.41-2.57Z"/><g class="cls-11"><path class="cls-12" d="M102.65,129.44s3.31-.69,5.73-4.2c.2-.3-.01-.7-.37-.7-3.54.07-17.7.29-21.69.43-.37.01-.65.36-.58.72.13.66.49,1.61,1.41,2.04l15.5,1.7Z"/></g><polygon class="cls-2" points="82.43 122.94 95.73 122.14 95.73 121.61 82.34 122.59 82.43 122.94"/><path class="cls-3" d="M93.93,99.04c.73-.54,1.78-1.13,2.83-.3,3.34,2.64,2.92-.08,5.36.32-1.6.25-1.83,2.69-4.53,2.59-1.67-.06-1.64-1.03-3.37.03l-.29-2.65Z"/></g><path class="cls-6" d="M109.31,128.59c-.37-.34-1.05-.64-1.71-.7-1.19-.1-1.55.14-1.55.14-1.51-1.01-4.49-3.1-7.07-2.27s6.45,4.83,6.96,4.47-2.62-1.89-1.97-1.92c.7-.03,1.8.14,2.43.33.88-.26,3.79.74,2.91-.06Z"/><path class="cls-2" d="M98.01,126.66c0-.1.09-.15.15-.14.07.01.12.08.12.15,0,.07-.07.13-.15.12-.01,0-.02,0-.04,0-.1-.01-.11-.02-.08-.12Z"/><path class="cls-2" d="M99.78,127.79c-.06-.01-.11-.07-.1-.14.01-.07.08-.11.14-.1.06.01.11.08.09.14-.01.06-.08.11-.14.1Z"/><path class="cls-2" d="M99.5,126.37c-.05-.01-.08-.05-.07-.11.01-.06.07-.1.12-.09.06.01.09.07.08.12-.01.06-.07.09-.13.08Z"/><path class="cls-2" d="M99.17,125.7c.06.01.09.06.08.12-.01.05-.07.09-.12.07-.06-.01-.1-.07-.08-.12.01-.05.07-.09.13-.07Z"/><path class="cls-2" d="M98.72,127.09c-.05-.01-.09-.06-.08-.12,0-.05.06-.09.12-.08.06.01.09.06.08.12-.01.06-.06.09-.12.08Z"/><path class="cls-2" d="M97.89,125.73c-.05-.01-.08-.07-.07-.12.01-.05.06-.08.11-.07.05.01.08.06.07.11-.01.05-.06.08-.11.07Z"/><path class="cls-2" d="M100.34,127.45c-.01.05-.06.08-.11.07-.05-.01-.08-.06-.07-.11.01-.05.06-.08.11-.07.05.01.08.06.07.11Z"/><path class="cls-2" d="M98.45,125.59s.08.06.07.1c-.01.05-.06.08-.11.07-.05-.01-.07-.05-.06-.1.01-.05.06-.08.11-.06Z"/><path class="cls-2" d="M99.46,128.14s-.03,0-.04,0c-.04-.01-.06-.04-.04-.08.01-.04.05-.05.09-.04.02,0,.04.02.06.02.04.01.06.04.05.08-.01.04-.04.05-.08.04,0,0-.02,0-.03,0h0Z"/><path class="cls-2" d="M100.02,125.91s.08.05.07.1c0,.04-.06.08-.11.07-.04,0-.07-.06-.06-.1.01-.04.05-.07.1-.06Z"/><path class="cls-2" d="M97.94,128.02c0,.05-.05.08-.09.08-.04,0-.07-.05-.07-.09,0-.04.08-.09.12-.08.03,0,.04.04.03.1Z"/><path class="cls-2" d="M97.63,127.43s.07.06.06.1c-.01.05-.05.07-.1.06-.05,0-.07-.05-.06-.1.01-.05.06-.07.1-.06Z"/><path class="cls-2" d="M98.55,128.43s-.07-.06-.06-.11c.01-.05.05-.07.1-.06.05.01.07.06.06.1-.01.04-.06.07-.1.06Z"/><path class="cls-2" d="M99.33,127.51s-.05.07-.1.06c-.04,0-.07-.06-.06-.1.01-.04.06-.07.1-.06.04,0,.07.05.06.1Z"/><path class="cls-2" d="M98.27,127.32s.04-.06.09-.05c.04,0,.07.05.06.09-.01.04-.04.06-.09.06-.04,0-.07-.05-.06-.1Z"/><path class="cls-2" d="M100.06,126.92s.06-.04.09-.04c.04,0,.06.04.05.08,0,.04-.04.07-.08.05-.03,0-.05-.04-.07-.07v-.03Z"/><path class="cls-2" d="M98.97,126.44s-.07.05-.09.05c-.01,0-.04-.04-.03-.06,0-.04.03-.06.07-.04.02,0,.03.03.06.06Z"/><path class="cls-2" d="M99.75,126.42s.04.06.03.08c0,.02-.04.03-.05.04-.01-.02-.04-.04-.03-.06,0-.02.03-.03.06-.06Z"/><path class="cls-2" d="M99.65,127.13s-.03-.06-.03-.07c0-.02.03-.03.05-.04.01.02.03.04.04.06,0,.01-.03.03-.06.06Z"/><path class="cls-2" d="M99.69,128.42s-.03-.06-.03-.08c0-.02.03-.03.05-.03.01,0,.03.03.03.05,0,.02-.03.03-.05.06Z"/><path class="cls-2" d="M99.07,127.67s-.06.03-.08.03c-.02,0-.02-.03-.04-.05.02-.01.04-.03.05-.03.02,0,.03.03.06.06Z"/><path class="cls-2" d="M98.67,127.68s-.05.03-.07.03c-.01,0-.03-.03-.03-.05,0-.01.03-.03.04-.03.01,0,.03.02.05.05Z"/><path class="cls-2" d="M100.21,126.52s-.05.03-.07.03c-.01,0-.03-.03-.03-.04,0-.02.03-.03.04-.04.01,0,.03.02.05.05Z"/><path class="cls-2" d="M100.28,126.85s.05-.03.07-.03c.02,0,.02.03.03.05-.02.01-.03.03-.05.03-.01,0-.03-.02-.05-.05Z"/><path class="cls-2" d="M97.74,126.8s-.05.03-.06.02c-.01,0-.02-.03-.03-.05.02,0,.03-.03.05-.02.01,0,.02.03.04.05Z"/><path class="cls-2" d="M97.7,125.91s.02.05.02.06c0,.01-.03.02-.05.03,0-.02-.02-.03-.02-.05,0-.01.03-.02.05-.04Z"/><path class="cls-2" d="M99.59,126.89s-.03-.04-.02-.05c0-.01.03-.02.04-.03,0,.02.02.03.02.05,0,.01-.02.02-.04.04Z"/><path class="cls-2" d="M99.21,126.68s-.02-.04-.02-.05c0,0,.03-.02.03-.02.01,0,.02.02.03.04,0,0-.02.02-.04.04Z"/><path class="cls-6" d="M103.08,128.53s-1.91-.04-3.75-.46-2.69-1.06-3.72-1.11.88.91.88.91c0,0-1.74-.47-2.56-.27-.64.15.53.63.53.63,0,0-2.58-.5-3.49-.39s-2.51.2-3.83-.11.56.63,1.71.74,1.8-.21,3.28.1,3.9.22,3.95.03-1.5-.41-.95-.44c.31-.02.73.06,1.79.25,2,.35,5.37.86,6.15.13Z"/><path class="cls-6" d="M94.48,127.86s-.63-.12-2.24-.24-1.93-.35-3-.41-4.47-.24-5.82-.31-2.42-.26-2.75-.27c-1.64-.08,2.06.45,3.04.5s1.68-.03,2.58.04,3.11.39,4.14.42,2.86.57,3.14.63c1.23.25,1.89-.22.92-.36Z"/><path class="cls-6" d="M95.35,126.89c.07.08.03.18-.03.21-.07.04-.15.03-.19-.04-.05-.06-.03-.15.03-.2.01,0,.02-.01.03-.02.09-.06.1-.06.15.04Z"/><path class="cls-6" d="M93.14,127.22c.06-.04.14-.02.17.04.04.06.02.14-.05.18-.06.03-.14.01-.17-.05-.04-.06-.01-.14.04-.17Z"/><path class="cls-6" d="M94.36,128.16c.05-.03.1-.01.13.04.03.06.02.13-.04.16-.05.03-.12.01-.15-.04-.03-.06-.01-.12.05-.16Z"/><path class="cls-6" d="M95.09,128.47c-.05.03-.12.01-.14-.04-.03-.05,0-.12.04-.14.06-.03.12-.01.15.04.03.05,0,.12-.05.15Z"/><path class="cls-6" d="M94.48,127.04c.05-.03.12-.01.15.04.03.05.01.12-.04.15-.05.03-.12.01-.15-.04-.03-.05-.01-.11.04-.14Z"/><path class="cls-6" d="M96.1,127.54s.11,0,.14.04c.02.05,0,.11-.04.13-.05.03-.11.01-.14-.04-.03-.05,0-.11.04-.14Z"/><path class="cls-6" d="M92.93,127.89s0-.11.04-.13c.05-.03.11-.01.14.04.03.05,0,.11-.04.13-.05.03-.11.01-.14-.04Z"/><path class="cls-6" d="M95.75,128.05s-.1,0-.12-.03c-.02-.04,0-.1.04-.13.04-.02.1,0,.12.04.03.05,0,.1-.04.13Z"/><path class="cls-6" d="M93.15,126.72s.03-.02.04-.02c.04-.02.08,0,.1.04.02.04,0,.08-.04.09-.02.01-.04.01-.07.02-.04.02-.07.01-.09-.03-.02-.04,0-.07.04-.09,0,0,.02-.01.03-.02h0Z"/><path class="cls-6" d="M94.26,128.9s-.1.01-.12-.03c-.02-.04,0-.1.04-.13.04-.02.1,0,.12.03.02.04,0,.1-.04.12Z"/><path class="cls-6" d="M94.45,125.74s-.02-.1.02-.12c.04-.02.09-.01.12.03.02.04,0,.13-.04.16-.03.02-.06,0-.1-.06Z"/><path class="cls-6" d="M95.1,126s-.1,0-.12-.04c-.02-.05,0-.09.04-.12.04-.03.1,0,.12.04.02.04,0,.1-.04.12Z"/><path class="cls-6" d="M93.67,125.85s.1,0,.12.04c.02.04,0,.09-.04.11-.04.02-.1,0-.12-.04-.02-.04,0-.1.04-.12Z"/><path class="cls-6" d="M93.69,127.13s0-.1.03-.12c.04-.02.1,0,.12.04.02.04,0,.1-.04.12-.04.02-.09,0-.12-.04Z"/><path class="cls-6" d="M94.68,126.54s0,.08-.03.1c-.04.02-.09,0-.11-.03-.02-.04,0-.08.03-.11.04-.02.09,0,.11.04Z"/><path class="cls-6" d="M93.53,128.12s-.02.07-.04.09c-.04.03-.08.01-.1-.03-.02-.04-.01-.08.03-.1.03-.01.07,0,.1,0l.02.03Z"/><path class="cls-6" d="M94.74,127.73s.02-.08.04-.1c0,0,.06,0,.07.02.02.03.01.07-.03.08-.02,0-.04,0-.08,0Z"/><path class="cls-6" d="M94.13,128.3s-.07-.03-.08-.04c0-.02,0-.05.02-.07.02,0,.06,0,.07.02.01.02,0,.05,0,.09Z"/><path class="cls-6" d="M93.7,127.66s.07.02.07.04c0,.02,0,.04-.01.07-.02,0-.05,0-.07-.02-.01-.01,0-.04,0-.08Z"/><path class="cls-6" d="M92.77,126.66s.07.03.08.04c0,.02,0,.05-.02.06,0,0-.05,0-.06-.02,0-.02,0-.04,0-.09Z"/><path class="cls-6" d="M93.79,126.82s.03-.07.04-.07c.02,0,.04,0,.06.02,0,.02,0,.05-.02.06-.01,0-.04,0-.08,0Z"/><path class="cls-6" d="M94.11,126.53s.02-.06.03-.07c.01,0,.05,0,.06.01,0,.01,0,.05-.01.06-.01,0-.04,0-.08,0Z"/><path class="cls-6" d="M93.69,128.53s.02-.06.04-.07c.01,0,.05,0,.05.01,0,.02,0,.05-.01.06-.01,0-.04,0-.08,0Z"/><path class="cls-6" d="M93.4,128.33s-.02.06-.04.07c-.02,0-.04,0-.06-.01,0-.02,0-.05.02-.06.01,0,.04,0,.08,0Z"/><path class="cls-6" d="M95.47,126.58s.02-.06.03-.06c.02,0,.04,0,.06.02,0,.02,0,.04-.02.06,0,0-.03,0-.06-.01Z"/><path class="cls-6" d="M96.12,127.26s-.06-.02-.06-.04c0-.02.01-.04.02-.06.02,0,.04.01.05.03,0,.01,0,.04-.01.07Z"/><path class="cls-6" d="M93.93,127.81s.05.01.06.03c0,.02,0,.04,0,.06-.02,0-.04,0-.05-.02,0,0,0-.03,0-.06Z"/><path class="cls-6" d="M94.37,127.72s.05.02.06.03c0,0,0,.04-.01.04-.02,0-.04,0-.05-.01,0,0,0-.03,0-.06Z"/><path class="cls-6" d="M98.23,127.84c0,.07-.07.11-.11.11-.05,0-.1-.05-.09-.11,0-.06.05-.1.11-.09,0,0,.02,0,.03,0,.08,0,.08.01.07.09Z"/><path class="cls-6" d="M96.86,127.03s.08.05.08.1c0,.05-.05.09-.11.08-.05,0-.08-.06-.07-.1,0-.05.05-.08.1-.08Z"/><path class="cls-6" d="M97.11,128.09s.06.04.05.08c0,.05-.05.08-.09.07-.04,0-.07-.05-.06-.09,0-.05.05-.07.1-.06Z"/><path class="cls-6" d="M97.38,128.59s-.07-.05-.06-.09c0-.04.05-.07.09-.06.04,0,.07.05.07.09,0,.04-.05.07-.09.06Z"/><path class="cls-6" d="M97.68,127.53s.07.05.06.09c0,.04-.04.07-.09.06-.04,0-.07-.04-.06-.09,0-.04.04-.07.09-.06Z"/><path class="cls-6" d="M98.35,128.53s.06.05.06.09c0,.04-.04.06-.08.06-.04,0-.07-.04-.06-.08,0-.04.05-.07.09-.06Z"/><path class="cls-6" d="M96.44,127.3s.04-.06.08-.06c.04,0,.07.04.06.08,0,.04-.04.06-.08.06-.04,0-.07-.04-.06-.08Z"/><path class="cls-6" d="M97.93,128.66s-.06-.04-.05-.07c0-.03.05-.06.08-.05.04,0,.06.04.05.07,0,.04-.04.06-.08.05Z"/><path class="cls-6" d="M97.09,126.75s.02,0,.03,0c.03,0,.04.03.04.06,0,.03-.03.04-.06.03-.02,0-.03-.01-.05-.02-.03,0-.05-.03-.04-.06,0-.03.03-.04.06-.03,0,0,.01,0,.02,0h0Z"/><path class="cls-6" d="M96.73,128.45s-.06-.04-.06-.07c0-.03.04-.06.08-.05.03,0,.06.04.05.07,0,.03-.04.06-.07.05Z"/><path class="cls-6" d="M98.25,126.8s.03-.06.07-.06c.03,0,.06.04.05.07,0,.03-.06.07-.09.07-.03,0-.03-.03-.03-.08Z"/><path class="cls-6" d="M98.49,127.24s-.06-.04-.05-.08c0-.04.03-.05.07-.05.04,0,.06.04.05.07,0,.04-.04.06-.07.05Z"/><path class="cls-6" d="M97.77,126.5s.06.04.05.08c0,.03-.04.05-.07.05-.03,0-.06-.04-.05-.08,0-.03.04-.05.07-.05Z"/><path class="cls-6" d="M97.21,127.22s.04-.06.07-.05c.03,0,.06.04.05.08,0,.03-.04.05-.07.05-.03,0-.05-.04-.05-.07Z"/><path class="cls-6" d="M98.02,127.34s-.03.04-.06.04c-.03,0-.05-.04-.05-.07,0-.03.03-.05.06-.04.03,0,.05.04.05.07Z"/><path class="cls-6" d="M96.67,127.69s-.04.03-.07.03c-.03,0-.05-.03-.04-.06,0-.03.03-.05.06-.04.02,0,.04.03.05.05v.02Z"/><path class="cls-6" d="M97.51,128.02s.05-.04.07-.04c0,0,.03.03.03.05,0,.03-.02.04-.05.03-.01,0-.02-.02-.04-.04Z"/><path class="cls-6" d="M96.92,128.06s-.03-.05-.02-.06c0-.01.03-.02.04-.03,0,.01.03.03.03.04,0,.01-.02.03-.04.05Z"/><path class="cls-6" d="M96.97,127.52s.03.04.02.06c0,.01-.02.02-.04.03-.01-.01-.03-.03-.03-.04,0-.01.02-.02.04-.04Z"/><path class="cls-6" d="M96.91,126.55s.03.05.02.06c0,.01-.03.02-.04.03,0,0-.03-.02-.02-.04,0-.01.02-.02.04-.05Z"/><path class="cls-6" d="M97.4,127.1s.04-.03.06-.02c.01,0,.02.02.03.04-.01,0-.03.03-.04.03-.01,0-.02-.02-.04-.04Z"/><path class="cls-6" d="M97.71,127.08s.04-.03.05-.02c.01,0,.03.02.02.03,0,.01-.02.03-.03.02-.01,0-.02-.02-.04-.04Z"/><path class="cls-6" d="M96.57,127.99s.04-.02.05-.02c.01,0,.03.02.02.03,0,.01-.02.03-.03.03-.01,0-.02-.02-.04-.04Z"/><path class="cls-6" d="M96.51,127.75s-.04.02-.05.02c-.01,0-.02-.02-.03-.03.01,0,.03-.02.04-.02.01,0,.02.02.04.04Z"/><path class="cls-6" d="M98.43,127.72s.04-.02.04-.02c.01,0,.02.02.03.03-.01,0-.03.02-.04.02,0,0-.02-.02-.03-.04Z"/><path class="cls-6" d="M98.48,128.39s-.02-.04-.02-.05c0-.01.02-.02.04-.02,0,.01.02.03.02.04,0,.01-.02.02-.04.03Z"/><path class="cls-6" d="M97.03,127.7s.02.03.02.04c0,.01-.02.02-.03.03,0-.01-.02-.02-.02-.03,0,0,.02-.02.03-.03Z"/><path class="cls-6" d="M97.32,127.85s.02.03.02.04c0,0-.02.02-.02.02,0,0-.02-.02-.02-.03,0,0,.01-.02.03-.03Z"/><path class="cls-6" d="M100.49,125.44c.03.13-.08.21-.16.22-.1,0-.18-.06-.19-.16-.01-.1.06-.18.16-.2.02,0,.03,0,.05,0,.13-.01.14,0,.14.14Z"/><path class="cls-6" d="M97.88,124.47c.09,0,.16.07.16.15,0,.09-.07.17-.16.17-.09,0-.16-.07-.16-.16,0-.09.07-.16.15-.16Z"/><path class="cls-6" d="M98.64,126.23c.07,0,.12.05.12.13,0,.08-.06.15-.13.15-.08,0-.14-.06-.14-.14,0-.08.06-.14.15-.14Z"/><path class="cls-6" d="M99.25,127.01c-.08,0-.13-.06-.13-.13,0-.07.06-.13.13-.13.08,0,.14.06.14.13,0,.07-.06.13-.14.13Z"/><path class="cls-6" d="M99.45,125.08c.07,0,.14.06.14.13,0,.07-.06.13-.13.14-.07,0-.13-.05-.14-.13,0-.07.05-.13.13-.14Z"/><path class="cls-6" d="M100.92,126.61c.07,0,.13.06.12.13,0,.07-.06.12-.13.12-.07,0-.13-.06-.13-.13,0-.07.06-.13.13-.13Z"/><path class="cls-6" d="M97.24,125.06c0-.07.05-.12.12-.12.07,0,.13.06.13.13,0,.07-.06.12-.12.12-.07,0-.13-.06-.13-.13Z"/><path class="cls-6" d="M100.23,126.95c-.07,0-.12-.05-.11-.11,0-.06.06-.12.12-.12.06,0,.11.05.11.11,0,.07-.05.12-.12.11Z"/><path class="cls-6" d="M98.19,123.93s.04,0,.06,0c.06,0,.09.04.08.1,0,.06-.04.08-.1.08-.03,0-.06-.01-.09-.02-.05,0-.09-.03-.08-.08,0-.06.04-.08.09-.07.01,0,.03,0,.04,0h0Z"/><path class="cls-6" d="M98.09,126.98c-.06,0-.12-.05-.12-.11,0-.06.06-.12.12-.12.06,0,.11.05.11.11,0,.06-.05.11-.11.11Z"/><path class="cls-6" d="M100.21,123.65c0-.07.04-.12.1-.12.06,0,.11.04.11.1,0,.06-.08.15-.14.15-.05,0-.07-.04-.07-.12Z"/><path class="cls-6" d="M100.76,124.33c-.06,0-.11-.05-.11-.12,0-.07.04-.1.11-.11.06,0,.11.05.11.11,0,.06-.05.11-.11.11Z"/><path class="cls-6" d="M99.29,123.28c.06,0,.11.06.11.12,0,.06-.05.11-.11.1-.06,0-.11-.06-.11-.12,0-.06.05-.11.11-.11Z"/><path class="cls-6" d="M98.54,124.7c0-.06.05-.11.11-.11.06,0,.11.05.11.11,0,.06-.05.11-.11.11-.06,0-.11-.05-.11-.11Z"/><path class="cls-6" d="M99.97,124.65c0,.05-.04.09-.1.09-.06,0-.11-.05-.1-.1,0-.06.04-.09.1-.1.05,0,.1.05.1.11Z"/><path class="cls-6" d="M97.76,125.68s-.07.07-.1.07c-.06.01-.09-.03-.09-.09,0-.06.04-.1.09-.09.04,0,.07.04.11.07v.04Z"/><path class="cls-6" d="M99.31,125.99s.07-.08.11-.09c.01,0,.06.04.06.07,0,.05-.03.08-.08.07-.02,0-.04-.03-.09-.06Z"/><path class="cls-6" d="M98.3,126.24s-.06-.07-.06-.1c0-.02.04-.05.06-.07.02.02.06.04.06.07,0,.02-.03.05-.06.1Z"/><path class="cls-6" d="M98.23,125.28s.06.07.06.09c0,.02-.03.04-.05.06-.02-.02-.06-.04-.06-.06,0-.02.03-.05.06-.09Z"/><path class="cls-6" d="M97.82,123.62s.06.07.06.09c0,.02-.04.05-.06.06-.01,0-.05-.03-.05-.05,0-.02.03-.05.05-.09Z"/><path class="cls-6" d="M98.84,124.42s.07-.06.09-.05c.02,0,.04.04.06.06-.02.02-.04.05-.06.06-.02,0-.05-.03-.09-.06Z"/><path class="cls-6" d="M99.36,124.3s.06-.06.08-.05c.02,0,.05.03.05.05,0,.02-.03.05-.05.05-.02,0-.04-.02-.08-.05Z"/><path class="cls-6" d="M97.68,126.23s.06-.05.08-.05c.02,0,.05.03.05.05,0,.02-.03.05-.05.06-.02,0-.04-.02-.08-.05Z"/><path class="cls-6" d="M97.49,125.83s-.06.05-.08.05c-.02,0-.04-.03-.06-.05.02-.02.04-.05.06-.05.02,0,.04.02.08.05Z"/><path class="cls-6" d="M100.81,125.18s.05-.05.07-.04c.02,0,.04.03.05.05-.02.02-.04.04-.06.05-.01,0-.03-.03-.06-.05Z"/><path class="cls-6" d="M101.1,126.32s-.05-.06-.04-.07c0-.02.04-.03.06-.05.01.02.04.04.04.06,0,.02-.03.04-.05.07Z"/><path class="cls-6" d="M98.38,125.59s.05.05.05.06c0,.02-.03.04-.04.06-.02-.02-.04-.03-.04-.05,0-.01.02-.03.04-.06Z"/><path class="cls-6" d="M98.93,125.75s.04.05.04.06c0,.01-.03.04-.04.04-.02,0-.04-.02-.05-.04,0-.01.02-.03.04-.06Z"/><path class="cls-6" d="M102.95,126.44c.02.06-.03.11-.07.11-.05,0-.09-.03-.1-.07,0-.05.03-.09.07-.1,0,0,.02,0,.02,0,.07,0,.07,0,.07.06Z"/><path class="cls-6" d="M101.64,126.02s.08.03.08.07c0,.05-.03.08-.07.09-.04,0-.08-.03-.08-.07,0-.04.03-.08.07-.08Z"/><path class="cls-6" d="M102.06,126.87s.06.02.06.06c0,.04-.02.07-.06.08-.04,0-.07-.03-.07-.06,0-.04.03-.07.07-.07Z"/><path class="cls-6" d="M102.37,127.24s-.07-.03-.07-.06c0-.04.03-.07.06-.07.04,0,.07.03.07.06,0,.04-.03.07-.07.07Z"/><path class="cls-6" d="M102.43,126.28s.07.02.07.06c0,.04-.02.07-.06.07-.04,0-.07-.02-.07-.06,0-.04.02-.07.06-.07Z"/><path class="cls-6" d="M103.18,127s.06.03.06.06c0,.03-.03.06-.06.06-.04,0-.06-.02-.07-.06,0-.03.03-.06.06-.07Z"/><path class="cls-6" d="M101.34,126.33s.02-.06.06-.06c.04,0,.06.02.06.06,0,.03-.02.06-.06.06-.04,0-.06-.02-.06-.06Z"/><path class="cls-6" d="M102.85,127.19s-.06-.02-.06-.05c0-.03.03-.06.06-.06.03,0,.06.02.06.05,0,.03-.02.06-.06.06Z"/><path class="cls-6" d="M101.78,125.75s.02,0,.03,0c.03,0,.04.02.04.05,0,.03-.02.04-.05.04-.01,0-.03,0-.04,0-.03,0-.04-.01-.04-.04,0-.03.02-.04.04-.04,0,0,.01,0,.02,0h0Z"/><path class="cls-6" d="M101.8,127.25s-.06-.02-.06-.05c0-.03.02-.06.06-.06.03,0,.06.02.06.05,0,.03-.02.06-.05.06Z"/><path class="cls-6" d="M102.76,125.56s.02-.06.04-.06c.03,0,.05.02.06.05,0,.03-.04.07-.06.07-.02,0-.03-.02-.04-.06Z"/><path class="cls-6" d="M103.05,125.88s-.06-.02-.06-.06c0-.03.02-.05.05-.05.03,0,.06.02.06.05,0,.03-.02.06-.05.06Z"/><path class="cls-6" d="M102.3,125.4s.06.03.06.06c0,.03-.02.05-.05.05-.03,0-.06-.02-.06-.06,0-.03.02-.05.05-.05Z"/><path class="cls-6" d="M101.97,126.12s.02-.05.05-.06c.03,0,.06.02.06.05,0,.03-.02.05-.05.05-.03,0-.05-.02-.06-.05Z"/><path class="cls-6" d="M102.67,126.06s-.02.04-.05.05c-.03,0-.05-.02-.05-.05,0-.03.02-.05.05-.05.03,0,.05.02.05.05Z"/><path class="cls-6" d="M101.61,126.62s-.03.03-.05.04c-.03,0-.04-.01-.05-.04,0-.03.01-.05.04-.05.02,0,.04.02.05.03v.02Z"/><path class="cls-6" d="M102.38,126.73s.03-.04.05-.05c0,0,.03.02.03.03,0,.02-.01.04-.04.04-.01,0-.02-.01-.05-.03Z"/><path class="cls-6" d="M101.89,126.88s-.03-.03-.03-.05c0-.01.02-.02.03-.03.01.01.03.02.03.03,0,.01-.01.03-.03.05Z"/><path class="cls-6" d="M101.83,126.41s.03.03.03.04c0,.01-.02.02-.02.03-.01,0-.03-.02-.03-.03,0,0,.01-.02.03-.04Z"/><path class="cls-6" d="M101.59,125.61s.03.03.03.04c0,.01-.02.03-.03.03,0,0-.03-.02-.03-.02,0-.01.01-.02.02-.05Z"/><path class="cls-6" d="M102.11,125.97s.03-.03.04-.03c.01,0,.02.02.03.03,0,.01-.02.03-.03.03-.01,0-.02-.01-.04-.03Z"/><path class="cls-6" d="M102.36,125.9s.03-.03.04-.03c0,0,.03.01.03.02,0,0-.01.03-.02.03,0,0-.02-.01-.04-.02Z"/><path class="cls-6" d="M101.58,126.89s.03-.03.04-.03c0,0,.03.01.03.02,0,.01-.01.03-.02.03,0,0-.02-.01-.04-.02Z"/><path class="cls-6" d="M101.48,126.7s-.03.03-.04.03c-.01,0-.02-.02-.03-.02,0,0,.02-.03.03-.03,0,0,.02.01.04.02Z"/><path class="cls-6" d="M103.1,126.3s.03-.03.03-.02c.01,0,.02.02.03.02,0,0-.02.02-.03.02,0,0-.02-.01-.03-.03Z"/><path class="cls-6" d="M103.27,126.86s-.02-.03-.02-.04c0-.01.02-.02.03-.03,0,0,.02.02.02.03,0,0-.01.02-.02.03Z"/><path class="cls-6" d="M101.91,126.56s.03.02.02.03c0,.01-.01.02-.02.03,0,0-.02-.02-.02-.03,0,0,0-.02.02-.03Z"/><path class="cls-6" d="M102.18,126.63s.02.02.02.03c0,0-.01.02-.02.02,0,0-.02-.01-.02-.02,0,0,0-.02.02-.03Z"/><g class="cls-7"><circle class="cls-3" cx="215.38" cy="122.63" r="6.67"/><circle class="cls-12" cx="214.5" cy="122.65" r="5.1"/><path class="cls-3" d="M214.2,106.23l9.64-5.94c.61-.37.48-1.29-.21-1.48l-10.92-2.99c-.57-.16-1.11.32-1.02.9l1.28,8.94c.08.58.73.89,1.23.58Z"/><path class="cls-10" d="M212.98,94.69h0c.48,0,.87.39.87.87v21.47h-1.74v-21.47c0-.48.39-.87.87-.87Z" transform="translate(-12.87 31.3) rotate(-8.16)"/><path class="cls-3" d="M213.2,114.26h2.41c.47,0,.85.38.85.85v2.26h-4.11v-2.26c0-.47.38-.85.85-.85Z" transform="translate(-14.27 31.61) rotate(-8.16)"/></g></g></g></svg>