<?xml version="1.0" encoding="UTF-8"?><svg xmlns="http://www.w3.org/2000/svg" xmlns:xlink="http://www.w3.org/1999/xlink" viewBox="0 0 300 300"><defs><style>.cls-1{fill:#f4af13;}.cls-2{fill:#fff;}.cls-3{fill:#e86170;}.cls-4,.cls-5{fill:none;}.cls-6{fill:#a7caec;}.cls-7{clip-path:url(#clippath-1);}.cls-8{filter:url(#drop-shadow-1);}.cls-9{isolation:isolate;}.cls-5{stroke:#f4af13;stroke-linecap:round;stroke-linejoin:round;stroke-width:3px;}.cls-10{fill:#42496f;}.cls-11{clip-path:url(#clippath);}.cls-12{fill:#6498d1;mix-blend-mode:multiply;opacity:.25;}</style><filter id="drop-shadow-1" x="147.77" y="136.58" width="30.04" height="31.11" filterUnits="userSpaceOnUse"><feOffset dx="-2" dy="0"/><feGaussianBlur result="blur" stdDeviation="0"/><feFlood flood-color="#42496f" flood-opacity="1"/><feComposite in2="blur" operator="in"/><feComposite in="SourceGraphic"/></filter><clipPath id="clippath"><path class="cls-4" d="M152.76,162.8s22.71-1.04,25.05-1.3c-.83,2.05-3.56,4.63-8.05,5.41,0,0-13.58-1.33-15.59-1.54-1.27-.86-1.41-2.57-1.41-2.57Z"/></clipPath><clipPath id="clippath-1"><path class="cls-4" d="M235.76,119.26c-3.95,3.8-8.7.63-8.7.63-4.42,2.51-8.39,1.78-10.43,1.09-.18.19-.43.31-.7.31-.48,0-.88-.35-.95-.81-8.11,4.13-9.59-1.37-9.59-1.37-6.56,5.46-14.23,3.8-14.23,3.8l-.47-29.78h52.51v28.04c-3.8,0-7.43-1.9-7.43-1.9Z"/></clipPath></defs><g class="cls-9"><g id="Calque_9"><path class="cls-5" d="M106.48,202.91c15.06-.73,26.98,1.88,38.98,1.32,17.36-.81,30.95-7.5,27.05-17.01-8.92-21.75-88.24-14.97-73.75-54.93,5.16-14.22,28.58-19.1,52.98,3.07,9.28,8.43,15.52,18.44,21.7,25.54"/><circle class="cls-1" cx="173.9" cy="161.23" r="5.02"/><g class="cls-8"><path class="cls-3" d="M161.18,139.88s13.02,14.31,16.15,20.96c-4.53-1.33-11.18-1.02-13.66-.32l-2.5-20.64Z"/><path class="cls-12" d="M161.43,140.96s4.94,15.21,7.11,17.42c0,0-3.98,1.16-4.87,2.15l-2.24-19.57Z"/><path class="cls-3" d="M161.11,140.87s-7.32,16.87-10.44,20l12.52-.92-2.08-19.08Z"/><path class="cls-12" d="M161.28,141.61s-1.84,15.68-7.43,18.89l9.31-.63-1.88-18.26Z"/><polygon class="cls-2" points="160.69 137.52 161.05 137.48 164.36 162.47 163.17 162.6 160.69 137.52"/><path class="cls-2" d="M152.76,162.8s22.71-1.04,25.05-1.3c-.83,2.05-3.56,4.63-8.05,5.41,0,0-13.58-1.33-15.59-1.54-1.27-.86-1.41-2.57-1.41-2.57Z"/><g class="cls-11"><path class="cls-12" d="M170.08,167.69s3.31-.69,5.73-4.2c.2-.3-.01-.7-.37-.7-3.54.07-17.7.29-21.69.43-.37.01-.65.36-.58.72.13.66.49,1.61,1.41,2.04l15.5,1.7Z"/></g><polygon class="cls-2" points="149.85 161.19 163.16 160.4 163.16 159.86 149.77 160.85 149.85 161.19"/><path class="cls-3" d="M161.35,137.3c.73-.54,1.78-1.13,2.83-.3,3.34,2.64,2.92-.08,5.36.32-1.6.25-1.83,2.69-4.53,2.59-1.67-.06-1.64-1.03-3.37.03l-.29-2.65Z"/></g><path class="cls-6" d="M176.74,166.85c-.37-.34-1.05-.64-1.71-.7-1.19-.1-1.55.14-1.55.14-1.51-1.01-4.49-3.1-7.07-2.27-2.58.84,6.45,4.83,6.96,4.47s-2.62-1.89-1.97-1.92c.7-.03,1.8.14,2.43.33.88-.26,3.79.74,2.91-.06Z"/><path class="cls-2" d="M165.44,164.91c0-.1.09-.15.15-.14.07.01.12.08.12.15,0,.07-.07.13-.15.12-.01,0-.02,0-.04,0-.1-.01-.11-.02-.08-.12Z"/><path class="cls-2" d="M167.2,166.05c-.06-.01-.11-.07-.1-.14.01-.07.08-.11.14-.1.06.01.11.08.09.14-.01.06-.08.11-.14.1Z"/><path class="cls-2" d="M166.92,164.63c-.05-.01-.08-.05-.07-.11.01-.06.07-.1.12-.09.06.01.09.07.08.12-.01.06-.07.09-.13.08Z"/><path class="cls-2" d="M166.6,163.96c.06.01.09.06.08.12-.01.05-.07.09-.12.07-.06-.01-.1-.07-.08-.12.01-.05.07-.09.13-.07Z"/><path class="cls-2" d="M166.15,165.35c-.05-.01-.09-.06-.08-.12,0-.05.06-.09.12-.08.06.01.09.06.08.12-.01.06-.06.09-.12.08Z"/><path class="cls-2" d="M165.31,163.99c-.05-.01-.08-.07-.07-.12.01-.05.06-.08.11-.07.05.01.08.06.07.11-.01.05-.06.08-.11.07Z"/><path class="cls-2" d="M167.77,165.71c-.01.05-.06.08-.11.07-.05-.01-.08-.06-.07-.11.01-.05.06-.08.11-.07.05.01.08.06.07.11Z"/><path class="cls-2" d="M165.87,163.84s.08.06.07.1c-.01.05-.06.08-.11.07-.05-.01-.07-.05-.06-.1.01-.05.06-.08.11-.06Z"/><path class="cls-2" d="M166.89,166.4s-.03,0-.04,0c-.04-.01-.06-.04-.04-.08.01-.04.05-.05.09-.04.02,0,.04.02.06.02.04.01.06.04.05.08-.01.04-.04.05-.08.04,0,0-.02,0-.03,0h0Z"/><path class="cls-2" d="M167.45,164.17s.08.05.07.1c0,.04-.06.08-.11.07-.04,0-.07-.06-.06-.1.01-.04.05-.07.1-.06Z"/><path class="cls-2" d="M165.36,166.28c0,.05-.05.08-.09.08-.04,0-.07-.05-.07-.09,0-.04.08-.09.12-.08.03,0,.04.04.03.1Z"/><path class="cls-2" d="M165.06,165.69s.07.06.06.1c-.01.05-.05.07-.1.06-.05,0-.07-.05-.06-.1.01-.05.06-.07.1-.06Z"/><path class="cls-2" d="M165.98,166.69s-.07-.06-.06-.11c.01-.05.05-.07.1-.06.05.01.07.06.06.1-.01.04-.06.07-.1.06Z"/><path class="cls-2" d="M166.75,165.77s-.05.07-.1.06c-.04,0-.07-.06-.06-.1.01-.04.06-.07.1-.06.04,0,.07.05.06.1Z"/><path class="cls-2" d="M165.69,165.58s.04-.06.09-.05c.04,0,.07.05.06.09-.01.04-.04.06-.09.06-.04,0-.07-.05-.06-.1Z"/><path class="cls-2" d="M167.49,165.17s.06-.04.09-.04c.04,0,.06.04.05.08,0,.04-.04.07-.08.05-.03,0-.05-.04-.07-.07v-.03Z"/><path class="cls-2" d="M166.39,164.7s-.07.05-.09.05c-.01,0-.04-.04-.03-.06,0-.04.03-.06.07-.04.02,0,.03.03.06.06Z"/><path class="cls-2" d="M167.18,164.68s.04.06.03.08c0,.02-.04.03-.05.04-.01-.02-.04-.04-.03-.06,0-.02.03-.03.06-.06Z"/><path class="cls-2" d="M167.08,165.39s-.03-.06-.03-.07c0-.02.03-.03.05-.04.01.02.03.04.04.06,0,.01-.03.03-.06.06Z"/><path class="cls-2" d="M167.12,166.68s-.03-.06-.03-.08c0-.02.03-.03.05-.03.01,0,.03.03.03.05,0,.02-.03.03-.05.06Z"/><path class="cls-2" d="M166.49,165.93s-.06.03-.08.03c-.02,0-.02-.03-.04-.05.02-.01.04-.03.05-.03.02,0,.03.03.06.06Z"/><path class="cls-2" d="M166.09,165.93s-.05.03-.07.03c-.01,0-.03-.03-.03-.05,0-.01.03-.03.04-.03.01,0,.03.02.05.05Z"/><path class="cls-2" d="M167.63,164.78s-.05.03-.07.03c-.01,0-.03-.03-.03-.04,0-.02.03-.03.04-.04.01,0,.03.02.05.05Z"/><path class="cls-2" d="M167.7,165.11s.05-.03.07-.03c.02,0,.02.03.03.05-.02.01-.03.03-.05.03-.01,0-.03-.02-.05-.05Z"/><path class="cls-2" d="M165.16,165.06s-.05.03-.06.02c-.01,0-.02-.03-.03-.05.02,0,.03-.03.05-.02.01,0,.02.03.04.05Z"/><path class="cls-2" d="M165.13,164.17s.02.05.02.06c0,.01-.03.02-.05.03,0-.02-.02-.03-.02-.05,0-.01.03-.02.05-.04Z"/><path class="cls-2" d="M167.02,165.15s-.03-.04-.02-.05c0-.01.03-.02.04-.03,0,.02.02.03.02.05,0,.01-.02.02-.04.04Z"/><path class="cls-2" d="M166.64,164.94s-.02-.04-.02-.05c0,0,.03-.02.03-.02.01,0,.02.02.03.04,0,0-.02.02-.04.04Z"/><path class="cls-6" d="M170.51,166.79s-1.91-.04-3.75-.46-2.69-1.06-3.72-1.11.88.91.88.91c0,0-1.74-.47-2.56-.27-.64.15.53.63.53.63,0,0-2.58-.5-3.49-.39s-2.51.2-3.83-.11.56.63,1.71.74,1.8-.21,3.28.1,3.9.22,3.95.03-1.5-.41-.95-.44c.31-.02.73.06,1.79.25,2,.35,5.37.86,6.15.13Z"/><path class="cls-6" d="M161.9,166.12s-.63-.12-2.24-.24-1.93-.35-3-.41-4.47-.24-5.82-.31-2.42-.26-2.75-.27c-1.64-.08,2.06.45,3.04.5s1.68-.03,2.58.04,3.11.39,4.14.42,2.86.57,3.14.63c1.23.25,1.89-.22.92-.36Z"/><path class="cls-6" d="M162.77,165.15c.07.08.03.18-.03.21-.07.04-.15.03-.19-.04-.05-.06-.03-.15.03-.2.01,0,.02-.01.03-.02.09-.06.1-.06.15.04Z"/><path class="cls-6" d="M160.57,165.48c.06-.04.14-.02.17.04.04.06.02.14-.05.18-.06.03-.14.01-.17-.05-.04-.06-.01-.14.04-.17Z"/><path class="cls-6" d="M161.79,166.42c.05-.03.1-.01.13.04.03.06.02.13-.04.16-.05.03-.12.01-.15-.04-.03-.06-.01-.12.05-.16Z"/><path class="cls-6" d="M162.52,166.73c-.05.03-.12.01-.14-.04-.03-.05,0-.12.04-.14.06-.03.12-.01.15.04.03.05,0,.12-.05.15Z"/><path class="cls-6" d="M161.9,165.3c.05-.03.12-.01.15.04.03.05.01.12-.04.15-.05.03-.12.01-.15-.04-.03-.05-.01-.11.04-.14Z"/><path class="cls-6" d="M163.53,165.8s.11,0,.14.04c.02.05,0,.11-.04.13-.05.03-.11.01-.14-.04-.03-.05,0-.11.04-.14Z"/><path class="cls-6" d="M160.35,166.15s0-.11.04-.13c.05-.03.11-.01.14.04.03.05,0,.11-.04.13-.05.03-.11.01-.14-.04Z"/><path class="cls-6" d="M163.18,166.31s-.1,0-.12-.03c-.02-.04,0-.1.04-.13.04-.02.1,0,.12.04.03.05,0,.1-.04.13Z"/><path class="cls-6" d="M160.57,164.98s.03-.02.04-.02c.04-.02.08,0,.1.04.02.04,0,.08-.04.09-.02.01-.04.01-.07.02-.04.02-.07.01-.09-.03-.02-.04,0-.07.04-.09,0,0,.02-.01.03-.02h0Z"/><path class="cls-6" d="M161.69,167.15s-.1.01-.12-.03c-.02-.04,0-.1.04-.13.04-.02.1,0,.12.03.02.04,0,.1-.04.12Z"/><path class="cls-6" d="M161.88,164s-.02-.1.02-.12c.04-.02.09-.01.12.03.02.04,0,.13-.04.16-.03.02-.06,0-.1-.06Z"/><path class="cls-6" d="M162.53,164.26s-.1,0-.12-.04c-.02-.05,0-.09.04-.12.04-.03.1,0,.12.04.02.04,0,.1-.04.12Z"/><path class="cls-6" d="M161.09,164.11s.1,0,.12.04c.02.04,0,.09-.04.11-.04.02-.1,0-.12-.04-.02-.04,0-.1.04-.12Z"/><path class="cls-6" d="M161.12,165.38s0-.1.03-.12c.04-.02.1,0,.12.04.02.04,0,.1-.04.12-.04.02-.09,0-.12-.04Z"/><path class="cls-6" d="M162.1,164.79s0,.08-.03.1c-.04.02-.09,0-.11-.03-.02-.04,0-.08.03-.11.04-.02.09,0,.11.04Z"/><path class="cls-6" d="M160.95,166.38s-.02.07-.04.09c-.04.03-.08.01-.1-.03-.02-.04-.01-.08.03-.1.03-.01.07,0,.1,0l.02.03Z"/><path class="cls-6" d="M162.16,165.99s.02-.08.04-.1c0,0,.06,0,.07.02.02.03.01.07-.03.08-.02,0-.04,0-.08,0Z"/><path class="cls-6" d="M161.55,166.56s-.07-.03-.08-.04c0-.02,0-.05.02-.07.02,0,.06,0,.07.02.01.02,0,.05,0,.09Z"/><path class="cls-6" d="M161.13,165.92s.07.02.07.04c0,.02,0,.04-.01.07-.02,0-.05,0-.07-.02-.01-.01,0-.04,0-.08Z"/><path class="cls-6" d="M160.19,164.92s.07.03.08.04c0,.02,0,.05-.02.06,0,0-.05,0-.06-.02,0-.02,0-.04,0-.09Z"/><path class="cls-6" d="M161.22,165.08s.03-.07.04-.07c.02,0,.04,0,.06.02,0,.02,0,.05-.02.06-.01,0-.04,0-.08,0Z"/><path class="cls-6" d="M161.54,164.79s.02-.06.03-.07c.01,0,.05,0,.06.01,0,.01,0,.05-.01.06-.01,0-.04,0-.08,0Z"/><path class="cls-6" d="M161.11,166.79s.02-.06.04-.07c.01,0,.05,0,.05.01,0,.02,0,.05-.01.06-.01,0-.04,0-.08,0Z"/><path class="cls-6" d="M160.83,166.58s-.02.06-.04.07c-.02,0-.04,0-.06-.01,0-.02,0-.05.02-.06.01,0,.04,0,.08,0Z"/><path class="cls-6" d="M162.89,164.84s.02-.06.03-.06c.02,0,.04,0,.06.02,0,.02,0,.04-.02.06,0,0-.03,0-.06-.01Z"/><path class="cls-6" d="M163.54,165.52s-.06-.02-.06-.04c0-.02.01-.04.02-.06.02,0,.04.01.05.03,0,.01,0,.04-.01.07Z"/><path class="cls-6" d="M161.35,166.07s.05.01.06.03c0,.02,0,.04,0,.06-.02,0-.04,0-.05-.02,0,0,0-.03,0-.06Z"/><path class="cls-6" d="M161.8,165.97s.05.02.06.03c0,0,0,.04-.01.04-.02,0-.04,0-.05-.01,0,0,0-.03,0-.06Z"/><path class="cls-6" d="M165.65,166.09c0,.07-.07.11-.11.11-.05,0-.1-.05-.09-.11,0-.06.05-.1.11-.09,0,0,.02,0,.03,0,.08,0,.08.01.07.09Z"/><path class="cls-6" d="M164.29,165.28s.08.05.08.1c0,.05-.05.09-.11.08-.05,0-.08-.06-.07-.1,0-.05.05-.08.1-.08Z"/><path class="cls-6" d="M164.54,166.35s.06.04.05.08c0,.05-.05.08-.09.07-.04,0-.07-.05-.06-.09,0-.05.05-.07.1-.06Z"/><path class="cls-6" d="M164.8,166.85s-.07-.05-.06-.09c0-.04.05-.07.09-.06.04,0,.07.05.07.09,0,.04-.05.07-.09.06Z"/><path class="cls-6" d="M165.11,165.79s.07.05.06.09c0,.04-.04.07-.09.06-.04,0-.07-.04-.06-.09,0-.04.04-.07.09-.06Z"/><path class="cls-6" d="M165.77,166.79s.06.05.06.09c0,.04-.04.06-.08.06-.04,0-.07-.04-.06-.08,0-.04.05-.07.09-.06Z"/><path class="cls-6" d="M163.87,165.55s.04-.06.08-.06c.04,0,.07.04.06.08,0,.04-.04.06-.08.06-.04,0-.07-.04-.06-.08Z"/><path class="cls-6" d="M165.35,166.92s-.06-.04-.05-.07c0-.03.05-.06.08-.05.04,0,.06.04.05.07,0,.04-.04.06-.08.05Z"/><path class="cls-6" d="M164.52,165.01s.02,0,.03,0c.03,0,.04.03.04.06,0,.03-.03.04-.06.03-.02,0-.03-.01-.05-.02-.03,0-.05-.03-.04-.06,0-.03.03-.04.06-.03,0,0,.01,0,.02,0h0Z"/><path class="cls-6" d="M164.15,166.71s-.06-.04-.06-.07c0-.03.04-.06.08-.05.03,0,.06.04.05.07,0,.03-.04.06-.07.05Z"/><path class="cls-6" d="M165.68,165.06s.03-.06.07-.06c.03,0,.06.04.05.07,0,.03-.06.07-.09.07-.03,0-.03-.03-.03-.08Z"/><path class="cls-6" d="M165.92,165.5s-.06-.04-.05-.08c0-.04.03-.05.07-.05.04,0,.06.04.05.07,0,.04-.04.06-.07.05Z"/><path class="cls-6" d="M165.2,164.76s.06.04.05.08c0,.03-.04.05-.07.05-.03,0-.06-.04-.05-.08,0-.03.04-.05.07-.05Z"/><path class="cls-6" d="M164.64,165.48s.04-.06.07-.05c.03,0,.06.04.05.08,0,.03-.04.05-.07.05-.03,0-.05-.04-.05-.07Z"/><path class="cls-6" d="M165.44,165.6s-.03.04-.06.04c-.03,0-.05-.04-.05-.07,0-.03.03-.05.06-.04.03,0,.05.04.05.07Z"/><path class="cls-6" d="M164.1,165.95s-.04.03-.07.03c-.03,0-.05-.03-.04-.06,0-.03.03-.05.06-.04.02,0,.04.03.05.05v.02Z"/><path class="cls-6" d="M164.94,166.28s.05-.04.07-.04c0,0,.03.03.03.05,0,.03-.02.04-.05.03-.01,0-.02-.02-.04-.04Z"/><path class="cls-6" d="M164.35,166.32s-.03-.05-.02-.06c0-.01.03-.02.04-.03,0,.01.03.03.03.04,0,.01-.02.03-.04.05Z"/><path class="cls-6" d="M164.4,165.78s.03.04.02.06c0,.01-.02.02-.04.03-.01-.01-.03-.03-.03-.04,0-.01.02-.02.04-.04Z"/><path class="cls-6" d="M164.34,164.8s.03.05.02.06c0,.01-.03.02-.04.03,0,0-.03-.02-.02-.04,0-.01.02-.02.04-.05Z"/><path class="cls-6" d="M164.83,165.35s.04-.03.06-.02c.01,0,.02.02.03.04-.01,0-.03.03-.04.03-.01,0-.02-.02-.04-.04Z"/><path class="cls-6" d="M165.13,165.34s.04-.03.05-.02c.01,0,.03.02.02.03,0,.01-.02.03-.03.02-.01,0-.02-.02-.04-.04Z"/><path class="cls-6" d="M164,166.25s.04-.02.05-.02c.01,0,.03.02.02.03,0,.01-.02.03-.03.03-.01,0-.02-.02-.04-.04Z"/><path class="cls-6" d="M163.93,166.01s-.04.02-.05.02c-.01,0-.02-.02-.03-.03.01,0,.03-.02.04-.02.01,0,.02.02.04.04Z"/><path class="cls-6" d="M165.86,165.98s.04-.02.04-.02c.01,0,.02.02.03.03-.01,0-.03.02-.04.02,0,0-.02-.02-.03-.04Z"/><path class="cls-6" d="M165.91,166.65s-.02-.04-.02-.05c0-.01.02-.02.04-.02,0,.01.02.03.02.04,0,.01-.02.02-.04.03Z"/><path class="cls-6" d="M164.45,165.96s.02.03.02.04c0,.01-.02.02-.03.03,0-.01-.02-.02-.02-.03,0,0,.02-.02.03-.03Z"/><path class="cls-6" d="M164.74,166.11s.02.03.02.04c0,0-.02.02-.02.02,0,0-.02-.02-.02-.03,0,0,.01-.02.03-.03Z"/><path class="cls-6" d="M167.92,163.7c.03.13-.08.21-.16.22-.1,0-.18-.06-.19-.16-.01-.1.06-.18.16-.2.02,0,.03,0,.05,0,.13-.01.14,0,.14.14Z"/><path class="cls-6" d="M165.31,162.72c.09,0,.16.07.16.15,0,.09-.07.17-.16.17-.09,0-.16-.07-.16-.16,0-.09.07-.16.15-.16Z"/><path class="cls-6" d="M166.07,164.49c.07,0,.12.05.12.13,0,.08-.06.15-.13.15-.08,0-.14-.06-.14-.14,0-.08.06-.14.15-.14Z"/><path class="cls-6" d="M166.68,165.27c-.08,0-.13-.06-.13-.13,0-.07.06-.13.13-.13.08,0,.14.06.14.13,0,.07-.06.13-.14.13Z"/><path class="cls-6" d="M166.88,163.34c.07,0,.14.06.14.13,0,.07-.06.13-.13.14-.07,0-.13-.05-.14-.13,0-.07.05-.13.13-.14Z"/><path class="cls-6" d="M168.34,164.87c.07,0,.13.06.12.13,0,.07-.06.12-.13.12-.07,0-.13-.06-.13-.13,0-.07.06-.13.13-.13Z"/><path class="cls-6" d="M164.67,163.32c0-.07.05-.12.12-.12.07,0,.13.06.13.13,0,.07-.06.12-.12.12-.07,0-.13-.06-.13-.13Z"/><path class="cls-6" d="M167.65,165.21c-.07,0-.12-.05-.11-.11,0-.06.06-.12.12-.12.06,0,.11.05.11.11,0,.07-.05.12-.12.11Z"/><path class="cls-6" d="M165.62,162.18s.04,0,.06,0c.06,0,.09.04.08.1,0,.06-.04.08-.1.08-.03,0-.06-.01-.09-.02-.05,0-.09-.03-.08-.08,0-.06.04-.08.09-.07.01,0,.03,0,.04,0h0Z"/><path class="cls-6" d="M165.51,165.23c-.06,0-.12-.05-.12-.11,0-.06.06-.12.12-.12.06,0,.11.05.11.11,0,.06-.05.11-.11.11Z"/><path class="cls-6" d="M167.63,161.9c0-.07.04-.12.1-.12.06,0,.11.04.11.1,0,.06-.08.15-.14.15-.05,0-.07-.04-.07-.12Z"/><path class="cls-6" d="M168.19,162.58c-.06,0-.11-.05-.11-.12,0-.07.04-.1.11-.11.06,0,.11.05.11.11,0,.06-.05.11-.11.11Z"/><path class="cls-6" d="M166.71,161.54c.06,0,.11.06.11.12,0,.06-.05.11-.11.1-.06,0-.11-.06-.11-.12,0-.06.05-.11.11-.11Z"/><path class="cls-6" d="M165.97,162.95c0-.06.05-.11.11-.11.06,0,.11.05.11.11,0,.06-.05.11-.11.11-.06,0-.11-.05-.11-.11Z"/><path class="cls-6" d="M167.4,162.91c0,.05-.04.09-.1.09-.06,0-.11-.05-.1-.1,0-.06.04-.09.1-.1.05,0,.1.05.1.11Z"/><path class="cls-6" d="M165.18,163.94s-.07.07-.1.07c-.06.01-.09-.03-.09-.09,0-.06.04-.1.09-.09.04,0,.07.04.11.07v.04Z"/><path class="cls-6" d="M166.74,164.25s.07-.08.11-.09c.01,0,.06.04.06.07,0,.05-.03.08-.08.07-.02,0-.04-.03-.09-.06Z"/><path class="cls-6" d="M165.73,164.5s-.06-.07-.06-.1c0-.02.04-.05.06-.07.02.02.06.04.06.07,0,.02-.03.05-.06.1Z"/><path class="cls-6" d="M165.65,163.54s.06.07.06.09c0,.02-.03.04-.05.06-.02-.02-.06-.04-.06-.06,0-.02.03-.05.06-.09Z"/><path class="cls-6" d="M165.24,161.88s.06.07.06.09c0,.02-.04.05-.06.06-.01,0-.05-.03-.05-.05,0-.02.03-.05.05-.09Z"/><path class="cls-6" d="M166.26,162.68s.07-.06.09-.05c.02,0,.04.04.06.06-.02.02-.04.05-.06.06-.02,0-.05-.03-.09-.06Z"/><path class="cls-6" d="M166.78,162.56s.06-.06.08-.05c.02,0,.05.03.05.05,0,.02-.03.05-.05.05-.02,0-.04-.02-.08-.05Z"/><path class="cls-6" d="M165.11,164.49s.06-.05.08-.05c.02,0,.05.03.05.05,0,.02-.03.05-.05.06-.02,0-.04-.02-.08-.05Z"/><path class="cls-6" d="M164.92,164.09s-.06.05-.08.05c-.02,0-.04-.03-.06-.05.02-.02.04-.05.06-.05.02,0,.04.02.08.05Z"/><path class="cls-6" d="M168.24,163.44s.05-.05.07-.04c.02,0,.04.03.05.05-.02.02-.04.04-.06.05-.01,0-.03-.03-.06-.05Z"/><path class="cls-6" d="M168.53,164.58s-.05-.06-.04-.07c0-.02.04-.03.06-.05.01.02.04.04.04.06,0,.02-.03.04-.05.07Z"/><path class="cls-6" d="M165.8,163.84s.05.05.05.06c0,.02-.03.04-.04.06-.02-.02-.04-.03-.04-.05,0-.01.02-.03.04-.06Z"/><path class="cls-6" d="M166.35,164.01s.04.05.04.06c0,.01-.03.04-.04.04-.02,0-.04-.02-.05-.04,0-.01.02-.03.04-.06Z"/><path class="cls-6" d="M170.37,164.7c.02.06-.03.11-.07.11-.05,0-.09-.03-.1-.07,0-.05.03-.09.07-.1,0,0,.02,0,.02,0,.07,0,.07,0,.07.06Z"/><path class="cls-6" d="M169.06,164.28s.08.03.08.07c0,.05-.03.08-.07.09-.04,0-.08-.03-.08-.07,0-.04.03-.08.07-.08Z"/><path class="cls-6" d="M169.48,165.13s.06.02.06.06c0,.04-.02.07-.06.08-.04,0-.07-.03-.07-.06,0-.04.03-.07.07-.07Z"/><path class="cls-6" d="M169.8,165.5s-.07-.03-.07-.06c0-.04.03-.07.06-.07.04,0,.07.03.07.06,0,.04-.03.07-.07.07Z"/><path class="cls-6" d="M169.85,164.54s.07.02.07.06c0,.04-.02.07-.06.07-.04,0-.07-.02-.07-.06,0-.04.02-.07.06-.07Z"/><path class="cls-6" d="M170.61,165.26s.06.03.06.06c0,.03-.03.06-.06.06-.04,0-.06-.02-.07-.06,0-.03.03-.06.06-.07Z"/><path class="cls-6" d="M168.76,164.59s.02-.06.06-.06c.04,0,.06.02.06.06,0,.03-.02.06-.06.06-.04,0-.06-.02-.06-.06Z"/><path class="cls-6" d="M170.28,165.45s-.06-.02-.06-.05c0-.03.03-.06.06-.06.03,0,.06.02.06.05,0,.03-.02.06-.06.06Z"/><path class="cls-6" d="M169.2,164s.02,0,.03,0c.03,0,.04.02.04.05,0,.03-.02.04-.05.04-.01,0-.03,0-.04,0-.03,0-.04-.01-.04-.04,0-.03.02-.04.04-.04,0,0,.01,0,.02,0h0Z"/><path class="cls-6" d="M169.23,165.51s-.06-.02-.06-.05c0-.03.02-.06.06-.06.03,0,.06.02.06.05,0,.03-.02.06-.05.06Z"/><path class="cls-6" d="M170.19,163.82s.02-.06.04-.06c.03,0,.05.02.06.05,0,.03-.04.07-.06.07-.02,0-.03-.02-.04-.06Z"/><path class="cls-6" d="M170.48,164.14s-.06-.02-.06-.06c0-.03.02-.05.05-.05.03,0,.06.02.06.05,0,.03-.02.06-.05.06Z"/><path class="cls-6" d="M169.73,163.66s.06.03.06.06c0,.03-.02.05-.05.05-.03,0-.06-.02-.06-.06,0-.03.02-.05.05-.05Z"/><path class="cls-6" d="M169.39,164.38s.02-.05.05-.06c.03,0,.06.02.06.05,0,.03-.02.05-.05.05-.03,0-.05-.02-.06-.05Z"/><path class="cls-6" d="M170.1,164.32s-.02.04-.05.05c-.03,0-.05-.02-.05-.05,0-.03.02-.05.05-.05.03,0,.05.02.05.05Z"/><path class="cls-6" d="M169.03,164.88s-.03.03-.05.04c-.03,0-.04-.01-.05-.04,0-.03.01-.05.04-.05.02,0,.04.02.05.03v.02Z"/><path class="cls-6" d="M169.81,164.99s.03-.04.05-.05c0,0,.03.02.03.03,0,.02-.01.04-.04.04-.01,0-.02-.01-.05-.03Z"/><path class="cls-6" d="M169.31,165.14s-.03-.03-.03-.05c0-.01.02-.02.03-.03.01.01.03.02.03.03,0,.01-.01.03-.03.05Z"/><path class="cls-6" d="M169.25,164.67s.03.03.03.04c0,.01-.02.02-.02.03-.01,0-.03-.02-.03-.03,0,0,.01-.02.03-.04Z"/><path class="cls-6" d="M169.01,163.86s.03.03.03.04c0,.01-.02.03-.03.03,0,0-.03-.02-.03-.02,0-.01.01-.02.02-.05Z"/><path class="cls-6" d="M169.53,164.23s.03-.03.04-.03c.01,0,.02.02.03.03,0,.01-.02.03-.03.03-.01,0-.02-.01-.04-.03Z"/><path class="cls-6" d="M169.79,164.16s.03-.03.04-.03c0,0,.03.01.03.02,0,0-.01.03-.02.03,0,0-.02-.01-.04-.02Z"/><path class="cls-6" d="M169.01,165.15s.03-.03.04-.03c0,0,.03.01.03.02,0,.01-.01.03-.02.03,0,0-.02-.01-.04-.02Z"/><path class="cls-6" d="M168.91,164.96s-.03.03-.04.03c-.01,0-.02-.02-.03-.02,0,0,.02-.03.03-.03,0,0,.02.01.04.02Z"/><path class="cls-6" d="M170.52,164.56s.03-.03.03-.02c.01,0,.02.02.03.02,0,0-.02.02-.03.02,0,0-.02-.01-.03-.03Z"/><path class="cls-6" d="M170.69,165.11s-.02-.03-.02-.04c0-.01.02-.02.03-.03,0,0,.02.02.02.03,0,0-.01.02-.02.03Z"/><path class="cls-6" d="M169.33,164.82s.03.02.02.03c0,.01-.01.02-.02.03,0,0-.02-.02-.02-.03,0,0,0-.02.02-.03Z"/><path class="cls-6" d="M169.61,164.89s.02.02.02.03c0,0-.01.02-.02.02,0,0-.02-.01-.02-.02,0,0,0-.02.02-.03Z"/><g class="cls-7"><circle class="cls-3" cx="215.38" cy="122.63" r="6.67"/><circle class="cls-12" cx="214.5" cy="122.65" r="5.1"/><path class="cls-3" d="M214.2,106.23l9.64-5.94c.61-.37.48-1.29-.21-1.48l-10.92-2.99c-.57-.16-1.11.32-1.02.9l1.28,8.94c.08.58.73.89,1.23.58Z"/><path class="cls-10" d="M212.98,94.69h0c.48,0,.87.39.87.87v21.47h-1.74v-21.47c0-.48.39-.87.87-.87Z" transform="translate(-12.87 31.3) rotate(-8.16)"/><path class="cls-3" d="M213.2,114.26h2.41c.47,0,.85.38.85.85v2.26h-4.11v-2.26c0-.47.38-.85.85-.85Z" transform="translate(-14.27 31.61) rotate(-8.16)"/></g></g></g></svg>