<?xml version="1.0" encoding="UTF-8"?>
<svg xmlns="http://www.w3.org/2000/svg" width="300" height="300" xmlns:xlink="http://www.w3.org/1999/xlink" viewBox="0 0 300 300">
  <defs>
    <filter id="k" data-name="drop-shadow-1" x="118.978" y="179.264" width="30.049" height="31.045" filterUnits="userSpaceOnUse">
      <feOffset dx="-2" dy="0"/>
      <feGaussianBlur result="l" stdDeviation="0"/>
      <feFlood flood-color="#42496f" flood-opacity="1"/>
      <feComposite in2="l" operator="in"/>
      <feComposite in="SourceGraphic"/>
    </filter>
    <clipPath id="m">
      <path d="M123.986,205.572s22.7-1.249,25.042-1.53c-.815,2.053-3.514,4.665-8.002,5.485,0,0-13.594-1.209-15.604-1.403-1.28-.844-1.435-2.553-1.435-2.553Z" fill="none"/>
    </clipPath>
    <clipPath id="n">
      <path d="M235.761,119.262c-3.954,3.796-8.698.633-8.698.633-4.423,2.512-8.392,1.781-10.426,1.088-.176.189-.425.308-.703.308-.481,0-.876-.353-.95-.813-8.108,4.134-9.588-1.374-9.588-1.374-6.563,5.456-14.233,3.796-14.233,3.796l-.474-29.778h52.506v28.038c-3.796,0-7.433-1.898-7.433-1.898Z" fill="none"/>
    </clipPath>
  </defs>
  <g isolation="isolate">
    <g id="j" data-name="Calque 3">
      <g>
        <g>
          <g>
            <path d="M106.482,202.909c15.059-.735,26.976,1.88,38.98,1.322" fill="none" stroke="#f4af13" stroke-linecap="round" stroke-linejoin="round" stroke-width="3"/>
            <circle cx="144.702" cy="203.894" r="5.025" fill="#f4af13"/>
          </g>
          <g>
            <g filter="url(#k)">
              <path d="M132.201,182.579s13.144,14.196,16.34,20.816c-4.542-1.285-11.192-.914-13.658-.196l-2.683-20.621Z" fill="#e86170"/>
              <path d="M132.467,183.653s5.081,15.167,7.27,17.352c0,0-3.973,1.198-4.854,2.195l-2.417-19.547Z" fill="#6498d1" mix-blend-mode="multiply" opacity=".25"/>
              <path d="M132.142,183.567s-7.171,16.932-10.261,20.095l12.509-1.035-2.248-19.06Z" fill="#e86170"/>
              <path d="M132.317,184.302s-1.694,15.693-7.263,18.955l9.307-.715-2.044-18.24Z" fill="#6498d1" mix-blend-mode="multiply" opacity=".25"/>
              <polygon points="131.694 180.218 132.049 180.174 135.583 205.134 134.402 205.281 131.694 180.218" fill="#fff"/>
              <path d="M123.986,205.572s22.7-1.249,25.042-1.53c-.815,2.053-3.514,4.665-8.002,5.485,0,0-13.594-1.209-15.604-1.403-1.28-.844-1.435-2.553-1.435-2.553Z" fill="#fff"/>
              <g clip-path="url(#m)">
                <path d="M141.351,210.309s3.303-.717,5.69-4.256c.201-.299-.018-.704-.378-.693-3.544.106-17.701.449-21.686.626-.373.017-.649.361-.57.726.141.656.502,1.602,1.43,2.032l15.515,1.565Z" fill="#6498d1" mix-blend-mode="multiply" opacity=".25"/>
              </g>
              <polygon points="121.068 203.99 134.363 203.073 134.361 202.542 120.978 203.65 121.068 203.99" fill="#fff"/>
              <path d="M132.355,179.993c.727-.551,1.773-1.146,2.831-.325,3.362,2.611,2.922-.103,5.366.272-1.597.268-1.804,2.709-4.507,2.635-1.671-.046-1.65-1.015-3.374.059l-.316-2.642Z" fill="#e86170"/>
            </g>
            <path d="M148.004,209.406c-.374-.335-1.057-.632-1.719-.68-1.192-.085-1.548.155-1.548.155-1.516-1-4.52-3.064-7.093-2.203s6.488,4.775,7.005,4.41-2.639-1.868-1.987-1.9c.698-.034,1.799.122,2.431.308.881-.273,3.798.704,2.912-.09Z" fill="#a7caec"/>
            <g>
              <path d="M136.686,207.571c0-.098.09-.146.15-.137.071.012.124.074.116.144-.008.074-.072.127-.147.12-.012-.001-.024-.004-.036-.006-.101-.012-.107-.02-.084-.122Z" fill="#fff"/>
              <path d="M138.46,208.688c-.065-.012-.108-.073-.097-.139.011-.069.074-.113.141-.099.064.013.106.077.095.141-.012.064-.075.108-.139.097Z" fill="#fff"/>
              <path d="M138.168,207.274c-.054-.01-.079-.051-.069-.114.01-.06.064-.1.122-.089.056.011.092.065.081.122-.012.06-.067.093-.133.081Z" fill="#fff"/>
              <path d="M137.838,206.604c.056.012.09.063.078.117-.012.054-.065.087-.119.076-.059-.012-.097-.065-.085-.119.012-.054.067-.086.126-.073Z" fill="#fff"/>
              <path d="M137.399,207.997c-.054-.01-.091-.062-.082-.116.009-.054.062-.09.116-.08.055.01.091.061.081.116-.01.056-.06.091-.116.08Z" fill="#fff"/>
              <path d="M136.552,206.643c-.051-.011-.083-.064-.07-.116.012-.049.061-.08.111-.071.053.01.085.06.074.113-.011.052-.062.085-.114.073Z" fill="#fff"/>
              <path d="M139.024,208.346c-.011.051-.059.081-.11.071-.053-.011-.085-.061-.073-.114.012-.05.06-.081.11-.071.053.011.085.061.073.114Z" fill="#fff"/>
              <path d="M137.111,206.497c.048.011.077.055.066.099-.012.046-.062.077-.107.067-.047-.01-.074-.053-.064-.1.01-.049.055-.077.105-.066Z" fill="#fff"/>
              <path d="M138.151,209.04c-.014-.003-.028-.004-.041-.009-.04-.014-.058-.043-.046-.084.013-.042.046-.054.086-.043.021.006.04.018.061.024.038.012.06.035.05.075-.011.041-.042.05-.08.041-.01-.002-.02-.004-.029-.006v.002Z" fill="#fff"/>
              <path d="M138.691,206.808c.047.008.079.052.071.096-.008.045-.059.078-.105.069-.044-.008-.075-.056-.066-.1.01-.045.054-.073.1-.065Z" fill="#fff"/>
              <path d="M136.622,208.938c-.009.052-.046.083-.091.077-.042-.006-.073-.05-.066-.093.007-.044.081-.095.124-.086.034.007.044.037.033.102Z" fill="#fff"/>
              <path d="M136.316,208.352c.046.011.074.057.061.103-.014.048-.048.069-.097.061-.047-.008-.075-.052-.065-.1.01-.047.054-.075.101-.064Z" fill="#fff"/>
              <path d="M137.244,209.345c-.044-.011-.072-.06-.061-.105.011-.046.052-.071.097-.059.045.012.073.058.062.103-.011.042-.057.071-.098.061Z" fill="#fff"/>
              <path d="M138.01,208.418c-.009.043-.052.073-.095.065-.045-.008-.074-.055-.063-.101.01-.043.054-.071.097-.062.042.01.07.054.062.097Z" fill="#fff"/>
              <path d="M136.948,208.236c.013-.037.041-.058.085-.05.041.007.071.052.059.091-.012.043-.044.062-.087.056-.04-.006-.068-.051-.058-.096Z" fill="#fff"/>
              <path d="M138.739,207.812c.029-.013.059-.038.088-.038.043,0,.061.038.054.079-.007.042-.041.068-.079.055-.027-.009-.045-.044-.068-.067l.005-.028Z" fill="#fff"/>
              <path d="M137.637,207.348c-.043.025-.067.046-.093.049-.01.001-.037-.041-.035-.061.003-.037.033-.056.071-.042.017.006.028.026.058.055Z" fill="#fff"/>
              <path d="M138.422,207.319c.016.039.036.063.03.08-.006.018-.035.028-.054.041-.013-.019-.036-.04-.035-.058.001-.017.029-.033.059-.063Z" fill="#fff"/>
              <path d="M138.333,208.032c-.015-.036-.033-.058-.029-.074.005-.016.032-.026.049-.039.013.019.035.038.036.057,0,.014-.028.029-.056.056Z" fill="#fff"/>
              <path d="M138.381,209.321c-.016-.038-.034-.062-.029-.076.006-.016.034-.032.053-.032.011,0,.033.032.031.047-.003.017-.026.031-.054.061Z" fill="#fff"/>
              <path d="M137.749,208.577c-.037.014-.06.032-.075.026-.016-.006-.024-.033-.036-.051.018-.012.037-.033.054-.032.016.001.029.027.056.056Z" fill="#fff"/>
              <path d="M137.349,208.585c-.032.015-.052.032-.066.028-.015-.004-.033-.031-.031-.045.002-.014.029-.032.045-.032.014,0,.027.024.052.049Z" fill="#fff"/>
              <path d="M138.879,207.42c-.033.014-.052.03-.067.027-.013-.003-.033-.032-.03-.041.006-.016.029-.035.045-.035.013,0,.027.025.052.05Z" fill="#fff"/>
              <path d="M138.955,207.742c.033-.014.054-.03.068-.026.015.005.024.03.035.046-.017.011-.034.031-.05.03-.015-.001-.028-.025-.054-.05Z" fill="#fff"/>
              <path d="M136.411,207.715c-.026.011-.047.028-.057.023-.015-.007-.022-.03-.032-.047.017-.009.034-.026.051-.025.011,0,.021.026.038.049Z" fill="#fff"/>
              <path d="M136.371,206.831c.01.029.025.051.02.062-.008.014-.032.02-.049.029-.008-.016-.023-.035-.02-.049.003-.014.026-.023.049-.042Z" fill="#fff"/>
              <path d="M138.266,207.788c-.012-.025-.028-.043-.024-.053.006-.015.026-.023.04-.035.009.015.025.031.025.046,0,.011-.021.022-.04.042Z" fill="#fff"/>
              <path d="M137.888,207.581c-.012-.025-.024-.04-.023-.054,0-.009.027-.025.034-.022.013.007.025.024.027.038,0,.009-.019.019-.037.037Z" fill="#fff"/>
            </g>
            <path d="M141.772,209.397s-1.914-.02-3.758-.422-2.703-1.037-3.727-1.073.893.904.893.904c0,0-1.743-.451-2.566-.248-.641.159.54.622.54.622,0,0-2.581-.475-3.49-.356s-2.511.221-3.828-.08.568.627,1.713.72,1.794-.227,3.285.072,3.898.184,3.947-.011-1.504-.397-.953-.429c.31-.018.732.055,1.791.23,2.005.333,5.379.815,6.153.07Z" fill="#a7caec"/>
            <path d="M133.161,208.809s-.634-.111-2.24-.219-1.935-.332-3.006-.38-4.469-.197-5.824-.262-2.426-.237-2.751-.25c-1.641-.066,2.068.435,3.046.477s1.679-.049,2.579.013,3.113.357,4.139.387c1.026.03,2.866.548,3.142.602,1.231.239,1.89-.241.914-.368Z" fill="#a7caec"/>
            <g>
              <g>
                <path d="M134.025,207.827c.068.078.031.18-.024.214-.065.041-.151.028-.194-.033-.046-.064-.031-.152.033-.199.01-.007.022-.013.032-.02.089-.061.1-.059.153.038Z" fill="#a7caec"/>
                <path d="M131.823,208.18c.06-.036.137-.017.175.042.04.063.02.142-.043.178-.06.034-.139.013-.175-.046-.036-.059-.016-.139.043-.175Z" fill="#a7caec"/>
                <path d="M133.049,209.105c.05-.03.099-.014.135.042.034.055.019.125-.035.157-.052.031-.119.013-.15-.041-.033-.056-.012-.122.05-.158Z" fill="#a7caec"/>
                <path d="M133.783,209.409c-.053.03-.116.013-.144-.039-.028-.051-.009-.115.042-.144.056-.031.123-.016.151.036.028.052.007.116-.05.147Z" fill="#a7caec"/>
                <path d="M133.156,207.988c.05-.03.117-.014.147.035.031.05.014.116-.037.146-.052.031-.115.015-.146-.036-.031-.051-.016-.115.036-.145Z" fill="#a7caec"/>
                <path d="M134.783,208.474c.049-.027.112-.007.138.043.025.048.008.107-.039.134-.049.029-.11.012-.138-.039-.028-.05-.01-.111.04-.139Z" fill="#a7caec"/>
                <path d="M131.614,208.849c-.026-.048-.01-.106.038-.133.05-.029.111-.011.138.04.026.048.009.107-.038.134-.05.029-.11.011-.138-.04Z" fill="#a7caec"/>
                <path d="M134.439,208.984c-.046.025-.1.011-.122-.033-.023-.045-.005-.105.038-.129.044-.025.096-.01.122.035.026.046.01.1-.038.126Z" fill="#a7caec"/>
                <path d="M131.823,207.682c.013-.007.025-.016.039-.022.042-.017.077-.006.095.035.019.042.001.075-.038.095-.021.01-.045.014-.066.023-.039.018-.072.014-.092-.025-.021-.04-.001-.069.036-.089.009-.005.019-.01.028-.016v-.002Z" fill="#a7caec"/>
                <path d="M132.958,209.844c-.043.026-.099.014-.124-.027-.025-.041-.008-.103.035-.129.041-.024.1-.008.123.034.024.042.008.097-.035.122Z" fill="#a7caec"/>
                <path d="M133.116,206.691c-.029-.047-.022-.098.018-.125.038-.025.093-.012.119.028.025.04.002.133-.039.156-.032.018-.061.001-.098-.059Z" fill="#a7caec"/>
                <path d="M133.772,206.944c-.044.024-.099.007-.121-.039-.023-.048-.01-.089.034-.117.043-.027.097-.011.121.034.025.045.009.098-.035.122Z" fill="#a7caec"/>
                <path d="M132.334,206.803c.042-.022.099-.003.122.041.023.044.008.093-.036.115-.044.022-.099.005-.122-.039-.021-.041-.004-.097.036-.117Z" fill="#a7caec"/>
                <path d="M132.373,208.08c-.023-.04-.009-.095.03-.119.041-.025.098-.008.121.036.022.042.007.095-.034.117-.04.022-.094.006-.117-.034Z" fill="#a7caec"/>
                <path d="M133.349,207.48c.016.038.008.075-.033.1-.038.023-.093.008-.111-.031-.02-.043-.009-.08.03-.106.036-.024.09-.007.114.036Z" fill="#a7caec"/>
                <path d="M132.216,209.076c-.014.031-.02.071-.043.092-.035.03-.075.012-.098-.025-.024-.039-.015-.083.025-.099.028-.012.067.003.101.006l.015.026Z" fill="#a7caec"/>
                <path d="M133.421,208.673c.017-.05.021-.084.04-.104.007-.008.058.007.071.024.024.031.013.068-.027.083-.018.007-.041,0-.084-.003Z" fill="#a7caec"/>
                <path d="M132.815,209.247c-.04-.02-.073-.026-.08-.043-.008-.018.009-.047.014-.071.024.007.057.006.069.022.011.015,0,.047-.003.091Z" fill="#a7caec"/>
                <path d="M132.385,208.615c.037.018.067.023.075.039.008.016-.007.043-.012.065-.024-.006-.054-.005-.068-.02-.01-.011.002-.043.006-.084Z" fill="#a7caec"/>
                <path d="M131.442,207.619c.039.019.071.025.077.041.006.017-.005.05-.019.063-.009.008-.049-.003-.058-.016-.01-.016-.001-.043,0-.087Z" fill="#a7caec"/>
                <path d="M132.469,207.77c.02-.037.026-.067.041-.073.017-.007.042.01.064.016-.006.022-.006.052-.021.063-.013.01-.042-.002-.085-.006Z" fill="#a7caec"/>
                <path d="M132.783,207.483c.015-.034.019-.063.033-.069.015-.007.049.002.056.014.008.013,0,.046-.014.057-.012.009-.039,0-.076-.002Z" fill="#a7caec"/>
                <path d="M132.379,209.487c.016-.034.021-.06.035-.068.013-.007.049.002.053.012.006.017.002.048-.011.06-.01.01-.039,0-.077-.004Z" fill="#a7caec"/>
                <path d="M132.092,209.283c-.017.034-.022.062-.036.068-.016.007-.04-.007-.06-.012.006-.02.006-.048.019-.059.012-.009.039,0,.078.002Z" fill="#a7caec"/>
                <path d="M134.143,207.519c.013-.027.018-.055.03-.058.017-.004.039.009.058.015-.007.019-.009.045-.023.056-.009.007-.035-.006-.065-.013Z" fill="#a7caec"/>
                <path d="M134.796,208.197c-.028-.016-.056-.023-.059-.035-.004-.017.012-.038.019-.057.017.008.043.011.05.025.007.013-.004.036-.01.068Z" fill="#a7caec"/>
                <path d="M132.61,208.763c.027.011.053.014.057.025.006.016-.004.037-.008.056-.018-.006-.041-.007-.052-.019-.008-.009,0-.032.003-.062Z" fill="#a7caec"/>
                <path d="M133.057,208.663c.026.012.047.015.056.027.006.007-.004.039-.012.041-.015.003-.037-.002-.048-.012-.007-.006.001-.029.004-.056Z" fill="#a7caec"/>
              </g>
              <g>
                <path d="M136.914,208.749c.002.074-.064.113-.11.107-.054-.007-.095-.053-.092-.106.004-.056.051-.098.108-.095.009,0,.018.003.027.003.077.007.081.013.067.09Z" fill="#a7caec"/>
                <path d="M135.542,207.95c.049.007.083.052.077.102-.006.052-.053.088-.104.079-.049-.008-.083-.055-.075-.104.007-.049.054-.084.103-.077Z" fill="#a7caec"/>
                <path d="M135.801,209.013c.041.006.061.037.055.084-.006.046-.046.077-.09.071-.043-.006-.071-.046-.064-.09.007-.046.048-.073.099-.065Z" fill="#a7caec"/>
                <path d="M136.068,209.511c-.042-.007-.069-.045-.062-.086.008-.041.047-.068.088-.06.045.008.075.047.067.088-.008.041-.048.067-.094.059Z" fill="#a7caec"/>
                <path d="M136.363,208.446c.041.006.071.045.065.086-.006.041-.044.07-.086.064-.042-.006-.07-.044-.064-.085.006-.042.043-.07.085-.064Z" fill="#a7caec"/>
                <path d="M137.04,209.447c.039.007.065.046.056.086-.008.038-.044.062-.082.056-.04-.006-.066-.043-.059-.084.007-.04.045-.066.085-.058Z" fill="#a7caec"/>
                <path d="M135.125,208.225c.007-.039.042-.063.081-.056.041.007.066.044.058.084-.008.038-.043.063-.081.057-.04-.007-.066-.044-.058-.084Z" fill="#a7caec"/>
                <path d="M136.621,209.572c-.037-.007-.06-.039-.053-.073.008-.035.045-.06.079-.054.036.006.058.038.051.074-.007.037-.04.06-.078.053Z" fill="#a7caec"/>
                <path d="M135.766,207.676c.01.002.021.002.031.006.031.01.045.031.037.063-.009.032-.033.042-.064.035-.016-.004-.031-.013-.047-.017-.029-.008-.046-.025-.039-.056.007-.031.03-.039.06-.033.007.001.015.003.022.004h0Z" fill="#a7caec"/>
                <path d="M135.417,209.379c-.036-.005-.061-.037-.056-.071.005-.034.042-.06.078-.055.033.005.058.041.052.074-.006.034-.039.057-.074.052Z" fill="#a7caec"/>
                <path d="M136.926,207.713c.005-.039.032-.064.066-.061.032.003.057.036.053.069-.004.034-.059.074-.092.068-.026-.005-.034-.027-.028-.077Z" fill="#a7caec"/>
                <path d="M137.173,208.148c-.035-.007-.057-.041-.049-.076.009-.037.034-.054.072-.049.036.004.058.038.051.074-.007.036-.039.058-.074.051Z" fill="#a7caec"/>
                <path d="M136.444,207.422c.033.007.056.043.049.077-.007.035-.038.055-.072.047-.035-.008-.057-.042-.05-.076.007-.032.041-.055.073-.049Z" fill="#a7caec"/>
                <path d="M135.89,208.143c.005-.033.038-.056.07-.052.034.005.058.04.051.075-.007.033-.039.055-.072.049-.032-.006-.055-.039-.049-.072Z" fill="#a7caec"/>
                <path d="M136.698,208.253c-.009.028-.029.045-.063.04-.031-.004-.055-.037-.047-.067.008-.033.031-.048.064-.045.031.003.053.037.046.071Z" fill="#a7caec"/>
                <path d="M135.354,208.621c-.022.011-.043.03-.065.031-.033.001-.047-.027-.043-.058.004-.032.029-.052.058-.044.021.006.036.032.053.049l-.003.022Z" fill="#a7caec"/>
                <path d="M136.2,208.942c.032-.02.049-.037.069-.04.008-.001.029.03.028.046-.001.028-.024.043-.052.034-.013-.004-.022-.019-.045-.04Z" fill="#a7caec"/>
                <path d="M135.607,208.985c-.013-.029-.029-.047-.025-.06.004-.013.026-.022.04-.032.01.014.029.029.028.043,0,.013-.021.026-.043.049Z" fill="#a7caec"/>
                <path d="M135.656,208.443c.012.027.027.043.024.055-.003.013-.023.021-.036.031-.01-.014-.028-.027-.029-.042,0-.011.02-.023.041-.044Z" fill="#a7caec"/>
                <path d="M135.585,207.47c.013.028.028.046.024.057-.004.012-.025.025-.039.026-.008,0-.026-.024-.024-.035.001-.013.019-.024.039-.048Z" fill="#a7caec"/>
                <path d="M136.083,208.016c.028-.012.045-.026.056-.022.012.004.019.024.028.038-.013.009-.027.026-.04.025-.012,0-.023-.02-.044-.041Z" fill="#a7caec"/>
                <path d="M136.385,207.999c.024-.012.039-.026.049-.023.011.003.026.023.024.033-.002.01-.021.025-.033.025-.011,0-.021-.018-.041-.035Z" fill="#a7caec"/>
                <path d="M135.259,208.921c.024-.011.038-.024.05-.022.01.002.026.023.024.031-.004.012-.021.027-.033.028-.01,0-.021-.018-.041-.037Z" fill="#a7caec"/>
                <path d="M135.193,208.679c-.025.011-.04.025-.051.021-.012-.003-.019-.022-.028-.034.012-.009.025-.024.037-.024.011,0,.022.018.042.036Z" fill="#a7caec"/>
                <path d="M137.118,208.632c.019-.009.035-.022.043-.019.011.005.017.022.025.034-.013.008-.025.021-.038.021-.008,0-.017-.019-.03-.036Z" fill="#a7caec"/>
                <path d="M137.172,209.3c-.008-.021-.021-.038-.016-.046.005-.011.024-.016.036-.023.006.012.019.026.017.036-.002.011-.019.018-.036.033Z" fill="#a7caec"/>
                <path d="M135.713,208.626c.01.019.023.032.02.04-.004.011-.019.018-.029.027-.007-.011-.019-.023-.02-.034,0-.008.015-.017.029-.032Z" fill="#a7caec"/>
                <path d="M136.004,208.773c.009.018.019.029.019.04,0,.007-.02.02-.025.017-.01-.005-.02-.018-.021-.028,0-.006.014-.015.027-.029Z" fill="#a7caec"/>
              </g>
              <g>
                <path d="M139.156,206.334c.027.127-.076.215-.156.22-.096.005-.181-.062-.192-.155-.011-.098.058-.185.157-.197.016-.002.032-.001.048-.003.135-.012.144-.003.144.134Z" fill="#a7caec"/>
                <path d="M136.537,205.382c.087-.003.16.064.165.153.005.093-.064.168-.156.169-.086,0-.16-.07-.163-.157-.003-.086.067-.162.153-.165Z" fill="#a7caec"/>
                <path d="M137.315,207.137c.073-.002.117.045.122.128.004.081-.056.148-.133.15-.075.002-.137-.058-.139-.135-.002-.081.061-.14.151-.143Z" fill="#a7caec"/>
                <path d="M137.931,207.915c-.076,0-.134-.057-.134-.13,0-.073.06-.131.134-.132.08,0,.144.058.144.131,0,.074-.063.131-.144.131Z" fill="#a7caec"/>
                <path d="M138.11,205.982c.073-.002.136.056.139.128.003.073-.055.135-.128.137-.075.002-.135-.053-.138-.128-.003-.075.053-.135.127-.137Z" fill="#a7caec"/>
                <path d="M139.591,207.501c.07,0,.126.06.124.131-.002.067-.057.121-.124.123-.072.002-.128-.054-.128-.126,0-.071.057-.128.128-.127Z" fill="#a7caec"/>
                <path d="M135.902,205.985c0-.069.053-.121.123-.123.072-.001.128.055.127.127-.001.068-.055.122-.123.123-.072,0-.127-.055-.126-.128Z" fill="#a7caec"/>
                <path d="M138.906,207.849c-.065,0-.116-.049-.114-.11.002-.063.058-.117.12-.117.064,0,.111.048.112.112,0,.066-.05.116-.118.115Z" fill="#a7caec"/>
                <path d="M136.84,204.838c.019,0,.037-.002.056,0,.056.007.088.04.083.097-.005.058-.044.083-.099.08-.029-.001-.057-.012-.086-.015-.053-.004-.088-.028-.085-.084.002-.056.041-.076.093-.075.013,0,.027,0,.04,0v-.002Z" fill="#a7caec"/>
                <path d="M136.766,207.889c-.063.002-.117-.045-.119-.105-.002-.06.055-.118.117-.119.059-.001.114.052.114.111,0,.061-.05.11-.112.113Z" fill="#a7caec"/>
                <path d="M138.854,204.541c-.003-.069.036-.121.096-.125.056-.004.109.044.112.103.003.059-.078.146-.137.147-.047,0-.067-.036-.071-.124Z" fill="#a7caec"/>
                <path d="M139.417,205.216c-.062,0-.112-.053-.108-.116.004-.066.042-.103.108-.107.063-.003.112.047.112.111,0,.064-.05.113-.113.112Z" fill="#a7caec"/>
                <path d="M137.931,204.187c.06.002.11.057.108.119-.002.063-.048.106-.109.104-.062-.002-.112-.055-.109-.116.002-.058.054-.108.11-.106Z" fill="#a7caec"/>
                <path d="M137.198,205.607c0-.058.048-.109.105-.111.06-.002.112.051.111.113-.001.059-.051.108-.108.107-.057,0-.107-.051-.107-.109Z" fill="#a7caec"/>
                <path d="M138.629,205.544c-.006.051-.037.087-.097.089-.055.002-.106-.048-.103-.101.004-.059.039-.093.098-.097.054-.004.103.047.102.109Z" fill="#a7caec"/>
                <path d="M136.421,206.599c-.034.026-.065.066-.103.074-.057.012-.09-.032-.092-.087-.002-.057.034-.099.087-.093.038.004.071.044.107.068v.038Z" fill="#a7caec"/>
                <path d="M137.983,206.891c.049-.044.074-.079.107-.09.013-.004.059.042.063.07.007.048-.027.082-.08.075-.023-.003-.044-.026-.09-.055Z" fill="#a7caec"/>
                <path d="M136.972,207.15c-.032-.046-.064-.072-.062-.095.002-.024.038-.046.059-.068.022.022.058.041.062.066.003.023-.029.051-.058.098Z" fill="#a7caec"/>
                <path d="M136.887,206.198c.03.042.059.066.058.088-.002.023-.034.043-.053.064-.022-.021-.056-.039-.062-.064-.004-.018.028-.046.057-.088Z" fill="#a7caec"/>
                <path d="M136.462,204.538c.031.045.062.071.059.091-.003.023-.035.051-.059.057-.014.003-.052-.033-.053-.053-.002-.023.025-.048.053-.095Z" fill="#a7caec"/>
                <path d="M137.492,205.327c.044-.029.069-.058.09-.055.022.003.041.036.061.056-.02.02-.039.053-.061.056-.021.003-.045-.028-.089-.057Z" fill="#a7caec"/>
                <path d="M138.009,205.204c.038-.028.059-.057.078-.055.02.002.052.032.053.05,0,.018-.029.05-.049.054-.019.003-.042-.024-.082-.049Z" fill="#a7caec"/>
                <path d="M136.35,207.147c.038-.027.059-.053.08-.053.018,0,.053.032.05.045-.004.023-.027.054-.048.059-.017.004-.042-.024-.082-.051Z" fill="#a7caec"/>
                <path d="M136.16,206.75c-.039.027-.062.055-.081.053-.021-.002-.039-.032-.059-.05.019-.019.035-.049.056-.052.019-.003.043.024.084.05Z" fill="#a7caec"/>
                <path d="M139.472,206.069c.031-.022.053-.049.068-.046.021.005.037.033.055.052-.019.017-.037.044-.059.047-.015.002-.035-.028-.063-.053Z" fill="#a7caec"/>
                <path d="M139.774,207.206c-.021-.034-.047-.059-.043-.074.006-.021.036-.035.055-.051.014.019.04.039.04.057,0,.019-.027.037-.052.068Z" fill="#a7caec"/>
                <path d="M137.042,206.497c.023.029.049.048.047.062-.003.02-.027.038-.042.056-.016-.017-.041-.033-.045-.053-.003-.014.021-.035.041-.065Z" fill="#a7caec"/>
                <path d="M137.592,206.659c.022.029.043.045.045.063.002.011-.029.04-.037.037-.019-.006-.04-.024-.046-.042-.004-.011.019-.031.038-.058Z" fill="#a7caec"/>
              </g>
              <g>
                <path d="M141.62,207.308c.016.062-.032.108-.072.112-.047.005-.091-.026-.098-.072-.008-.048.024-.093.072-.101.008-.001.016-.001.024-.002.066-.009.071-.005.074.063Z" fill="#a7caec"/>
                <path d="M140.307,206.902c.043-.004.081.028.085.071.005.045-.028.084-.073.087-.043.002-.08-.031-.084-.073-.004-.043.029-.081.072-.085Z" fill="#a7caec"/>
                <path d="M140.732,207.747c.036-.003.059.019.063.06.004.04-.024.074-.062.077-.037.003-.069-.025-.072-.063-.003-.04.027-.071.071-.074Z" fill="#a7caec"/>
                <path d="M141.054,208.116c-.037.002-.067-.025-.069-.061-.002-.036.026-.066.063-.068.039-.002.072.025.074.061.002.036-.028.066-.068.068Z" fill="#a7caec"/>
                <path d="M141.096,207.16c.036-.003.068.024.071.06.003.036-.024.068-.06.07-.037.003-.068-.023-.071-.06-.003-.037.023-.068.059-.07Z" fill="#a7caec"/>
                <path d="M141.862,207.872c.034-.002.064.027.064.062,0,.033-.025.061-.058.063-.035.002-.064-.024-.066-.059-.002-.035.025-.064.06-.066Z" fill="#a7caec"/>
                <path d="M140.009,207.214c-.001-.034.023-.061.058-.063.036-.002.064.024.065.06.001.034-.024.062-.058.064-.035.002-.064-.024-.065-.06Z" fill="#a7caec"/>
                <path d="M141.532,208.06c-.032.001-.058-.022-.059-.051,0-.031.026-.059.056-.061.031-.001.056.021.058.053.002.033-.022.058-.055.06Z" fill="#a7caec"/>
                <path d="M140.443,206.627c.009,0,.018-.002.027-.001.028.002.044.017.043.046-.001.029-.02.042-.047.042-.014,0-.028-.005-.043-.005-.026,0-.044-.012-.044-.039,0-.028.018-.038.044-.039.007,0,.013,0,.02-.001h0Z" fill="#a7caec"/>
                <path d="M140.48,208.131c-.031.003-.059-.02-.061-.049-.002-.03.024-.059.055-.061.029-.002.057.023.059.052.001.03-.022.056-.052.058Z" fill="#a7caec"/>
                <path d="M141.428,206.432c-.003-.034.015-.06.044-.064.028-.004.055.019.058.048.003.029-.035.074-.064.075-.023.001-.034-.016-.038-.059Z" fill="#a7caec"/>
                <path d="M141.721,206.751c-.031.001-.056-.023-.056-.055,0-.033.018-.052.051-.055.031-.003.056.02.058.052.001.031-.022.057-.053.058Z" fill="#a7caec"/>
                <path d="M140.965,206.28c.029,0,.056.026.056.056,0,.031-.021.053-.051.054-.031,0-.056-.024-.057-.055,0-.029.024-.055.052-.055Z" fill="#a7caec"/>
                <path d="M140.638,206.997c-.002-.029.021-.055.049-.057.03-.003.056.022.057.053,0,.029-.022.054-.051.055-.028.001-.054-.022-.056-.051Z" fill="#a7caec"/>
                <path d="M141.341,206.932c-.002.025-.016.044-.046.046-.027.002-.053-.021-.053-.047,0-.029.017-.047.046-.05.027-.003.052.021.053.051Z" fill="#a7caec"/>
                <path d="M140.279,207.504c-.016.013-.031.034-.049.039-.028.007-.045-.014-.047-.041-.002-.028.014-.05.041-.048.019.001.036.02.054.031v.019Z" fill="#a7caec"/>
                <path d="M141.055,207.61c.023-.023.035-.041.051-.047.006-.002.03.02.033.033.005.024-.011.041-.038.039-.012-.001-.022-.012-.046-.025Z" fill="#a7caec"/>
                <path d="M140.563,207.762c-.017-.022-.033-.034-.033-.045,0-.012.017-.023.027-.035.011.01.03.019.032.031.002.011-.013.026-.026.05Z" fill="#a7caec"/>
                <path d="M140.499,207.295c.016.02.031.031.031.042,0,.011-.016.022-.024.033-.011-.01-.029-.018-.032-.03-.003-.009.013-.023.026-.045Z" fill="#a7caec"/>
                <path d="M140.25,206.488c.016.021.032.033.031.043-.001.011-.016.026-.028.029-.007.002-.026-.015-.027-.025-.001-.011.011-.024.024-.048Z" fill="#a7caec"/>
                <path d="M140.776,206.852c.021-.015.033-.03.043-.029.011,0,.021.017.031.026-.01.01-.018.027-.029.029-.01.002-.023-.012-.045-.026Z" fill="#a7caec"/>
                <path d="M141.028,206.779c.018-.015.028-.029.037-.029.01,0,.026.014.027.023,0,.009-.013.025-.023.028-.009.002-.021-.011-.041-.022Z" fill="#a7caec"/>
                <path d="M140.257,207.776c.018-.014.028-.028.038-.028.009,0,.027.015.026.021-.001.011-.012.027-.022.03-.008.002-.021-.011-.042-.023Z" fill="#a7caec"/>
                <path d="M140.154,207.584c-.019.014-.029.029-.039.028-.01,0-.02-.015-.03-.023.009-.01.016-.025.026-.027.009-.002.022.011.042.023Z" fill="#a7caec"/>
                <path d="M141.769,207.17c.015-.012.025-.026.032-.024.011.002.019.015.028.024-.009.009-.017.022-.028.025-.007.002-.018-.013-.032-.025Z" fill="#a7caec"/>
                <path d="M141.945,207.723c-.011-.016-.025-.028-.023-.036.002-.01.017-.018.026-.027.008.009.021.018.021.027,0,.009-.012.019-.024.035Z" fill="#a7caec"/>
                <path d="M140.583,207.439c.012.014.025.022.024.029-.001.01-.012.019-.019.029-.008-.008-.021-.015-.024-.025-.002-.007.009-.018.019-.033Z" fill="#a7caec"/>
                <path d="M140.857,207.505c.011.014.022.021.024.03.001.006-.013.02-.018.019-.009-.002-.02-.011-.023-.02-.002-.005.009-.016.017-.03Z" fill="#a7caec"/>
              </g>
            </g>
          </g>
        </g>
        <g clip-path="url(#n)">
          <g>
            <circle cx="215.384" cy="122.635" r="6.669" fill="#e86170"/>
            <circle cx="214.501" cy="122.651" r="5.096" fill="#6498d1" mix-blend-mode="multiply" opacity=".25"/>
            <path d="M214.198,106.232l9.643-5.943c.607-.374.475-1.292-.212-1.48l-10.924-2.994c-.566-.155-1.106.321-1.022.902l1.282,8.937c.083.581.735.886,1.235.578Z" fill="#e86170"/>
            <path d="M212.978,94.687h0c.48,0,.869.39.869.869v21.471h-1.739v-21.471c0-.48.39-.869.869-.869Z" transform="translate(-12.87 31.304) rotate(-8.161)" fill="#42496f"/>
            <path d="M213.199,114.258h2.414c.469,0,.849.38.849.849v2.263h-4.112v-2.263c0-.469.38-.849.849-.849Z" transform="translate(-14.269 31.607) rotate(-8.161)" fill="#e86170"/>
          </g>
        </g>
      </g>
    </g>
  </g>
</svg>