<?xml version="1.0" encoding="UTF-8"?>
<svg xmlns="http://www.w3.org/2000/svg" width="300" height="300" xmlns:xlink="http://www.w3.org/1999/xlink" viewBox="0 0 300 300">
  <defs>
    <clipPath id="e">
      <path d="M294.986,142.744h-103.023v57.157h9.71c.462,1.081,2.103,1.885,4.074,1.885.979,0,1.87-.206,2.585-.538.878.333,1.888.538,2.981.538,1.423,0,2.712-.338,3.733-.878,1.06.552,2.323.878,3.684.878,1.121,0,2.162-.238,3.092-.622,1.428.391,3.162.622,5.037.622,1.769,0,3.413-.206,4.793-.558.722.344,1.628.558,2.628.558.979,0,1.87-.206,2.585-.538.879.333,1.889.538,2.981.538,1.423,0,2.711-.338,3.732-.878,1.06.552,2.323.878,3.684.878,1.121,0,2.162-.238,3.092-.622,1.428.391,3.162.622,5.037.622,1.334,0,2.593-.119,3.726-.327,1.133.208,2.393.327,3.727.327,1.875,0,3.609-.231,5.037-.622.93.384,1.971.622,3.091.622,1.362,0,2.624-.326,3.684-.878,1.021.54,2.309.878,3.733.878,1.092,0,2.102-.204,2.981-.538.716.332,1.606.538,2.586.538,1.971,0,3.612-.804,4.074-1.885h6.955v-57.157Z" fill="none"/>
    </clipPath>
    <filter id="f" data-name="drop-shadow-1" x="196.063" y="155.293" width="87.905" height="54.437" filterUnits="userSpaceOnUse">
      <feOffset dx="-1" dy="0"/>
      <feGaussianBlur result="g" stdDeviation="0"/>
      <feFlood flood-color="#42496f" flood-opacity="1"/>
      <feComposite in2="g" operator="in"/>
      <feComposite in="SourceGraphic"/>
    </filter>
    <clipPath id="h">
      <path d="M210.505,203.665c-5.088-8.504-10.408-24.59-10.408-24.59-.524-1.309.443-2.659,1.851-2.734,15.806-.836,33.998.488,43.897,6.273,12.338,6.901,16.622,18.258,22.096,16.38,9.55-3.276,4.252-18.82,5.507-23.281l1.533-.348c1.391,2.197,5.228,11.222,4.182,19.099-.839,6.318-2.23,7.946-3.555,8.992,0,0-61.549.209-65.104.209Z" fill="none"/>
    </clipPath>
  </defs>
  <g isolation="isolate">
    <g id="d" data-name="Calque 23">
      <g clip-path="url(#e)">
        <g filter="url(#f)">
          <path d="M275.494,180.327c4.218-.589,9.318-3.591,8.356-14.224,0,0-10.727.892-10.046,5.68-.845-4.765-10.656-3.145-10.656-3.145,0,0,1.596,13.191,12.346,11.689Z" fill="#b1ddea"/>
          <path d="M275.971,180.165c3.232-.452,7.139-2.751,6.402-10.897,0,0-8.705.659-8.184,4.327-.647-3.65-7.677-2.385-7.677-2.385,0,0,1.223,10.106,9.459,8.955Z" fill="#6498d1" mix-blend-mode="multiply" opacity=".25"/>
          <path d="M210.505,203.665c-5.088-8.504-10.408-24.59-10.408-24.59-.524-1.309.443-2.659,1.851-2.734,15.806-.836,33.998.488,43.897,6.273,12.338,6.901,16.622,18.258,22.096,16.38,9.55-3.276,4.252-18.82,5.507-23.281.213-.739.49-1.374.86-1.404.334-.027.843.461.954,1.039,1.192,3.509,4.582,14.121,3.901,19.115-.861,6.315-2.23,7.946-3.555,8.992,0,0-61.549.209-65.104.209Z" fill="#b1ddea"/>
          <path d="M217.007,178.324s-.693,2.217.831,2.252,1.905-2.425,1.905-2.425" fill="none" stroke="#42496f" stroke-linecap="round" stroke-linejoin="round" stroke-width=".25"/>
          <line x1="216.834" y1="178.913" x2="214.755" y2="178.74" fill="none" stroke="#42496f" stroke-linecap="round" stroke-linejoin="round" stroke-width=".25"/>
          <line x1="216.799" y1="179.675" x2="214.998" y2="179.745" fill="none" stroke="#42496f" stroke-linecap="round" stroke-linejoin="round" stroke-width=".25"/>
          <path d="M224.957,178.983s-.52,2.529,1.247,2.494,2.078-2.563,2.078-2.563" fill="none" stroke="#42496f" stroke-linecap="round" stroke-linejoin="round" stroke-width=".25"/>
          <line x1="228.04" y1="179.745" x2="230.568" y2="179.849" fill="none" stroke="#42496f" stroke-linecap="round" stroke-linejoin="round" stroke-width=".25"/>
          <line x1="227.693" y1="180.507" x2="229.598" y2="181.165" fill="none" stroke="#42496f" stroke-linecap="round" stroke-linejoin="round" stroke-width=".25"/>
          <path d="M261.374,196.762l4.363.198c.569.026,1.007.51.976,1.079l-.108,1.993-5.232-3.27Z" fill="#b1ddea"/>
          <path d="M245.277,181.268c-.409-.188-.767-.404-1.044-.619l-1.743.581,4.496,2.616-.702-2.235c-.312-.075-.648-.179-1.007-.344Z" fill="#b1ddea"/>
          <g clip-path="url(#h)">
            <g>
              <path d="M206.308,203.27l33.421.28s-4.964-7.831-7.551-20.835c0,0-5.435,1.571-35.114-2.758l9.245,23.314Z" fill="#fff6e3"/>
              <path d="M198.477,180.197s26.805,3.848,33.7,2.517c3.985-.769,2.982-3.157,1.305-2.883" fill="none" stroke="#42496f" stroke-linecap="round" stroke-linejoin="round" stroke-width=".25"/>
              <g>
                <path d="M228.07,184.218s3.694,13.592,7.249,20.354" fill="none" stroke="#ffd66e" stroke-linecap="round" stroke-linejoin="round" stroke-width=".25"/>
                <path d="M223.948,183.859s3.694,13.592,7.249,20.354" fill="none" stroke="#ffd66e" stroke-linecap="round" stroke-linejoin="round" stroke-width=".25"/>
                <path d="M219.825,183.501s3.694,13.592,7.249,20.354" fill="none" stroke="#ffd66e" stroke-linecap="round" stroke-linejoin="round" stroke-width=".25"/>
                <path d="M215.703,183.142s3.694,13.592,7.249,20.354" fill="none" stroke="#ffd66e" stroke-linecap="round" stroke-linejoin="round" stroke-width=".25"/>
                <path d="M211.58,182.784s3.694,13.592,7.249,20.354" fill="none" stroke="#ffd66e" stroke-linecap="round" stroke-linejoin="round" stroke-width=".25"/>
                <path d="M207.458,182.425s3.694,13.592,7.249,20.354" fill="none" stroke="#ffd66e" stroke-linecap="round" stroke-linejoin="round" stroke-width=".25"/>
                <path d="M203.335,182.067s3.694,13.592,7.249,20.354" fill="none" stroke="#ffd66e" stroke-linecap="round" stroke-linejoin="round" stroke-width=".25"/>
                <path d="M199.213,181.708s3.694,13.592,7.249,20.354" fill="none" stroke="#ffd66e" stroke-linecap="round" stroke-linejoin="round" stroke-width=".25"/>
              </g>
            </g>
            <path d="M211.341,209.729s-10.665-27.672-9.201-28.997c1.464-1.324,19.587,1.324,29.764,4.113,8.771,2.403,14.01,19.889,27.951,19.889,13.572,0,16.45-6.785,17.287-11.873s3.276,2.509-1.115,12.547l-64.685,4.322Z" fill="#6498d1" mix-blend-mode="multiply" opacity=".25"/>
          </g>
          <path d="M243.549,198.225c-.023.227,1.048,5.001,4.937,7.836,2.993,2.182,4.858,1.684,5.407,1.567l.066-.038c1.275-.728,1.749-2.319,1.096-3.634-.499-1.005-1.135-2.101-1.946-3.224-1.576-2.183-3.262-3.707-4.545-4.702" fill="none" stroke="#42496f" stroke-linecap="round" stroke-linejoin="round" stroke-width=".25"/>
          <path d="M246.379,179.455s2.881-7.063,5.855-11.803c0,0,2.091,3.578,4.833,1.952,2.742-1.626.186-3.439.186-3.439,4.322-1.812,1.162-5.623-2.045-4.647,3.532-9.573-11.199-7.156-8.829.836-4.089-.558-5.205,8.179,2.788,5.298,0,0-1.533,7.389-3.625,11.339l.836.465Z" fill="#fff"/>
          <ellipse cx="213.003" cy="179.491" rx="1.013" ry="1.319" transform="translate(-20.691 331.064) rotate(-73.087)" fill="#e86170" opacity=".25"/>
          <ellipse cx="231.793" cy="181.129" rx="1.319" ry="1.013" transform="translate(-42.668 75.266) rotate(-16.913)" fill="#e86170" opacity=".25"/>
          <g opacity=".5">
            <circle cx="213.083" cy="178.628" r=".301" fill="#e86170"/>
            <circle cx="212.28" cy="179.832" r=".368" fill="#e86170"/>
            <circle cx="213.551" cy="180.1" r=".234" fill="#e86170"/>
            <circle cx="231.208" cy="180.969" r=".301" fill="#e86170"/>
            <circle cx="232.412" cy="181.304" r=".234" fill="#e86170"/>
            <circle cx="231.543" cy="181.973" r=".234" fill="#e86170"/>
            <circle cx="231.877" cy="180.434" r=".167" fill="#e86170"/>
            <circle cx="213.685" cy="179.23" r=".167" fill="#e86170"/>
          </g>
        </g>
        <g>
          <path d="M249.536,178.99c-.078.265-.36.326-.515.252-.185-.088-.277-.299-.202-.483.079-.194.296-.287.492-.209.032.013.061.03.092.044.264.113.273.14.132.396Z" fill="#fff"/>
          <path d="M245.607,174.559c.166.083.234.283.154.452-.084.178-.29.248-.462.157-.162-.086-.228-.292-.146-.457.082-.165.289-.234.453-.152Z" fill="#fff"/>
          <path d="M245.282,178.625c.139.071.174.202.097.363-.074.155-.254.22-.401.145-.143-.073-.197-.248-.122-.393.079-.153.256-.2.426-.114Z" fill="#fff"/>
          <path d="M245.647,180.702c-.141-.076-.193-.241-.118-.379.074-.136.244-.185.383-.111.15.08.21.253.136.39-.075.137-.249.18-.401.099Z" fill="#fff"/>
          <path d="M247.937,177.272c.139.07.197.241.13.379-.068.14-.239.197-.379.126-.142-.072-.198-.236-.128-.378.07-.143.235-.198.377-.127Z" fill="#fff"/>
          <path d="M249.167,181.61c.13.071.175.24.099.37-.072.124-.229.17-.357.104-.135-.07-.184-.23-.11-.366.072-.132.236-.181.368-.108Z" fill="#fff"/>
          <path d="M243.809,175.043c.071-.128.223-.173.353-.105.136.071.184.232.108.366-.072.127-.226.173-.354.106-.135-.071-.182-.231-.107-.366Z" fill="#fff"/>
          <path d="M247.534,181.566c-.121-.067-.167-.21-.101-.32.068-.115.228-.16.344-.097.119.064.159.202.095.322-.067.124-.211.165-.337.096Z" fill="#fff"/>
          <path d="M246.723,173.85c.035.018.072.033.104.056.098.07.124.163.057.264-.068.103-.166.11-.267.049-.052-.032-.094-.081-.146-.114-.095-.062-.135-.142-.075-.243.061-.103.153-.101.249-.047.025.014.05.027.075.04l.002-.004Z" fill="#fff"/>
          <path d="M243.495,179.475c-.12-.059-.172-.203-.115-.316.058-.114.221-.165.339-.104.111.057.16.213.1.323-.061.113-.205.156-.324.097Z" fill="#fff"/>
          <path d="M250.787,175.334c.064-.133.189-.189.306-.137.11.049.16.192.106.306-.054.114-.294.194-.404.135-.087-.047-.09-.135-.008-.303Z" fill="#fff"/>
          <path d="M251.155,177.165c-.115-.065-.156-.212-.084-.326.075-.119.184-.15.311-.09.122.058.162.201.096.321-.065.119-.207.16-.323.095Z" fill="#fff"/>
          <path d="M249.421,173.739c.109.064.148.218.082.331-.067.115-.197.15-.309.084-.114-.068-.153-.216-.087-.328.063-.107.211-.148.314-.087Z" fill="#fff"/>
          <path d="M246.614,175.648c.057-.109.2-.156.309-.102.115.057.158.208.093.324-.062.109-.204.15-.311.09-.106-.059-.148-.203-.091-.312Z" fill="#fff"/>
          <path d="M249.351,176.981c-.063.089-.156.125-.271.069-.105-.052-.15-.196-.089-.293.067-.106.167-.134.281-.083.105.048.144.192.08.307Z" fill="#fff"/>
          <path d="M244.158,176.716c-.09.013-.189.057-.268.033-.118-.035-.135-.151-.083-.255.053-.108.164-.151.258-.086.066.046.089.155.131.236l-.037.072Z" fill="#fff"/>
          <path d="M246.78,178.842c.136-.033.218-.073.291-.06.029.005.068.139.047.195-.036.098-.134.126-.225.059-.04-.03-.056-.092-.113-.194Z" fill="#fff"/>
          <path d="M244.629,178.302c-.013-.117-.047-.2-.019-.24.029-.043.117-.047.179-.068.019.063.067.137.049.185-.018.046-.105.066-.208.124Z" fill="#fff"/>
          <path d="M245.435,176.438c.012.109.044.184.019.223-.026.041-.107.046-.163.067-.02-.061-.066-.13-.052-.182.01-.039.098-.057.196-.107Z" fill="#fff"/>
          <path d="M246.321,172.906c.013.116.045.195.019.23-.029.039-.118.06-.169.046-.03-.008-.063-.113-.045-.152.02-.045.096-.064.195-.123Z" fill="#fff"/>
          <path d="M247.446,175.423c.111-.009.188-.038.224-.012.039.028.039.109.056.166-.058.017-.127.06-.172.043-.041-.016-.057-.097-.108-.197Z" fill="#fff"/>
          <path d="M248.537,175.716c.099-.014.168-.046.202-.024.036.024.065.112.048.147-.018.035-.105.064-.146.05-.038-.013-.055-.087-.103-.173Z" fill="#fff"/>
          <path d="M243.47,177.668c.099-.012.164-.04.203-.019.034.018.065.113.048.136-.03.039-.106.073-.149.061-.036-.01-.054-.088-.102-.178Z" fill="#fff"/>
          <path d="M243.518,176.733c-.101.011-.171.04-.205.016-.037-.026-.041-.1-.059-.153.054-.016.116-.057.158-.041.039.014.056.088.106.178Z" fill="#fff"/>
          <path d="M250.395,178.815c.079-.01.149-.038.173-.017.034.032.035.099.05.152-.054.012-.114.044-.158.029-.03-.01-.036-.087-.064-.164Z" fill="#fff"/>
          <path d="M249.806,181.244c-.004-.086-.029-.158-.004-.182.032-.033.102-.028.155-.04.007.05.036.113.016.148-.02.035-.088.042-.167.075Z" fill="#fff"/>
          <path d="M245.422,177.153c.014.078.043.139.024.163-.027.035-.089.043-.136.062-.012-.049-.043-.103-.031-.145.008-.03.073-.044.142-.081Z" fill="#fff"/>
          <path d="M246.285,178.012c.012.076.034.127.02.164-.009.023-.094.046-.108.032-.029-.029-.049-.085-.042-.125.004-.024.066-.038.13-.071Z" fill="#fff"/>
        </g>
      </g>
    </g>
  </g>
</svg>