<?xml version="1.0" encoding="UTF-8"?>
<svg xmlns="http://www.w3.org/2000/svg" width="300" height="300" xmlns:xlink="http://www.w3.org/1999/xlink" viewBox="0 0 300 300">
  <defs>
    <filter id="i" data-name="drop-shadow-1" x="221.844" y="59.419" width="70.206" height="110.627" filterUnits="userSpaceOnUse">
      <feOffset dx="-2" dy="0"/>
      <feGaussianBlur result="j" stdDeviation="0"/>
      <feFlood flood-color="#42496f" flood-opacity="1"/>
      <feComposite in2="j" operator="in"/>
      <feComposite in="SourceGraphic"/>
    </filter>
    <clipPath id="k">
      <path d="M258.549,109.559s.093-24.768.558-26.766c0,0,3.346-4.786,1.208-6.413-2.138-1.626-3.903.279-3.903.279,0,0-.883-.976-1.58-.558s-1.812,5.298-.186,6.599-3.392,33.597-3.625,39.406l7.528-12.547Z" fill="none"/>
    </clipPath>
    <clipPath id="l">
      <path d="M245.78,151.875v-4.402h-1.309l1.976-7.916h-.735s2.95-15.989,5.356-20.424c2.974-5.483,3.16-7.249,6.506-10.502,0-.046.465.093.465.093l-2.323,7.342s7.482-3.439,8.829-7.9l3.365,1.943s-.538,21.013,0,23.197l-.763.558v9.201l-.836.558,2.509,7.528-23.039.725Z" fill="none"/>
    </clipPath>
    <clipPath id="m">
      <path d="M264.172,110.163s-.852-1.348-.155-3.578l-5.328-.232-1.673,4.461-1.859,5.576s7.249-.604,9.015-6.227Z" fill="none"/>
    </clipPath>
    <clipPath id="n">
      <polygon points="262.685 113.045 261.477 128.008 252.183 127.171 253.019 112.766 262.685 113.045" fill="none"/>
    </clipPath>
    <clipPath id="o">
      <path d="M259.06,94.643s-3.113,1.998-2.416,3.718c-1.673,2.602-1.905,8.69,1.208,9.015s7.76-.046,9.851-2.695c0,0,2.138-.511,1.859-1.859.325-.186,1.208-3.392.558-5.39-.651-1.998-3.81-6.273-11.06-2.788Z" fill="none"/>
    </clipPath>
  </defs>
  <g isolation="isolate">
    <g id="h" data-name="Calque 19">
      <g filter="url(#i)">
        <path d="M292.051,165.529c0,1.141-4.364,1.152-9.921,1.932-6.235.875.238,3.153-24.182,2.452-18.827-.54-34.103-1.963-34.103-4.385,0-1.578,13.772-3.521,34.103-4.385,18.818-.8,34.103,1.963,34.103,4.385Z" fill="#93d1ad"/>
        <g>
          <rect x="256.458" y="73.824" width="2.416" height="4.74" fill="#93d1ad"/>
          <path d="M260.733,70.758s2.323-1.441,1.487-4.461-5.483-3.903-3.996-6.877c-2.974,2.277-7.435,5.669-3.346,11.339h5.855Z" fill="#93d1ad"/>
          <path d="M260.733,70.758s2.323-1.441,1.487-4.461-5.483-3.903-3.996-6.877c-2.974,2.277-7.435,5.669-3.346,11.339h5.855Z" fill="#fff" opacity=".25"/>
          <path d="M256.458,75.546v3.019h2.417v-3.827c-1.095-.179-1.947.381-2.417.808Z" fill="#42496f"/>
          <rect x="257.388" y="70.758" width=".929" height="1.952" fill="#93d1ad"/>
          <polygon points="258.317 71.919 257.364 71.414 257.388 70.758 258.317 70.758 258.317 71.919" fill="#42496f"/>
          <rect x="253.298" y="70.293" width="8.364" height=".744" fill="#93d1ad"/>
          <path d="M261.663,70.293s2.788-2.277,2.138-2.974-4.275,3.439-4.275,3.439l2.138-.465Z" fill="#93d1ad"/>
          <path d="M253.298,70.293s-4.136-2.649-3.067-3.067c1.069-.418,5.483,3.16,5.483,3.16l-2.416-.093Z" fill="#93d1ad"/>
          <path d="M259.721,70.479s.576-4.508-.266-4.554-1.417,4.647-1.417,4.647l1.682-.093Z" fill="#93d1ad"/>
          <path d="M256.093,70.479s-.576-4.508.266-4.554c.841-.046,1.417,4.647,1.417,4.647l-1.682-.093Z" fill="#93d1ad"/>
          <path d="M263.215,68.114c-.336-.499-2.173,1.484-2.866,2.264h-.81c.061-.616.34-3.686-.202-3.721-.522-.034-.901,2.933-.992,3.721h-.962c-.079-.679-.46-3.667-.99-3.634-.552.035-.245,3.16-.196,3.634h-.919c-.638-.505-3.313-2.569-4.027-2.289-.746.292,1.841,2.011,2.267,2.289h-.04v.526h8.004v-.397c.506-.439,2.083-1.873,1.732-2.393Z" fill="#93d1ad" mix-blend-mode="multiply" opacity=".25"/>
          <path d="M257.759,72.059c-1.901.127-1.859,2.602-1.859,2.602l3.625-.093s.325-2.649-1.766-2.509Z" fill="#93d1ad"/>
          <path d="M258.549,109.559s.093-24.768.558-26.766c0,0,3.346-4.786,1.208-6.413-2.138-1.626-3.903.279-3.903.279,0,0-.883-.976-1.58-.558s-1.812,5.298-.186,6.599-3.392,33.597-3.625,39.406l7.528-12.547Z" fill="#93d1ad"/>
          <g clip-path="url(#k)">
            <path d="M252.694,119.039s2.881-31.134,6.134-32.714l2.231,29.926-8.364,2.788Z" fill="#93d1ad" mix-blend-mode="multiply" opacity=".5"/>
          </g>
        </g>
        <path d="M245.78,151.875v-4.402h-1.309l1.976-7.916h-.735s2.95-15.989,5.356-20.424c2.974-5.483,3.16-7.249,6.506-10.502,0-.046.465.093.465.093l-2.323,7.342s7.482-3.439,8.829-7.9l3.365,1.943s-.538,21.013,0,23.197l-.763.558v9.201l-.836.558,2.509,7.528-23.039.725Z" fill="#93d1ad"/>
        <g clip-path="url(#l)">
          <path d="M268.258,152.888c-.12-.301-2.408-8.388-2.408-8.388l1.476-.932-.893-8.465,2.058-1.98-1.268-16.417s-3.613,6.985-8.912,5.901-6.263-.602-6.263-.602l-1.084,8.792,5.54.482s2.191,1.774,3.372,2.409c-1.927,2.409-8.43,5.119-16.5,6.323l-.602,1.265s13.85-.963,18.065-2.89l1.566,4.938s-13.308,4.336-21.558,4.697v5.781l27.41-.912Z" fill="#93d1ad" mix-blend-mode="multiply" opacity=".5"/>
          <path d="M251.161,120.294s-.627,1.987-.105,3.59c.523,1.603.941,1.22.941,1.22l-.209,3.276,10.804.976.209-2.858s1.952,1.464,7.807.976v-6.273l-19.447-.906Z" fill="#42496f"/>
          <path d="M256.898,112.82l6.83-.346-.519,6.138s.605.821,1.297-.692c.692-1.513,2.248-5.273,2.248-5.273l-.086,8.386-9.423,1.124-.346-9.337Z" fill="#93d1ad" mix-blend-mode="multiply" opacity=".5"/>
        </g>
        <g>
          <path d="M264.172,110.163s-.852-1.348-.155-3.578l-5.328-.232-1.673,4.461-1.859,5.576s7.249-.604,9.015-6.227Z" fill="#93d1ad"/>
          <path d="M264.172,110.163s-.852-1.348-.155-3.578l-5.328-.232-1.673,4.461-1.859,5.576s7.249-.604,9.015-6.227Z" fill="#fff" opacity=".25"/>
          <g clip-path="url(#m)">
            <path d="M264.685,105.71s.376,2.469-7.117,3.166l.579-2.336,6.537-.83Z" fill="#42496f"/>
          </g>
        </g>
        <g>
          <polygon points="262.685 113.045 261.477 128.008 252.183 127.171 253.019 112.766 262.685 113.045" fill="#93d1ad"/>
          <polygon points="262.685 113.045 261.477 128.008 252.183 127.171 253.019 112.766 262.685 113.045" fill="#fff" opacity=".15"/>
          <g clip-path="url(#n)">
            <path d="M262.453,127.334s.182-12.404-.488-12.547c-3.938-.836-7.18,2.149-9.41,8.759l-.767,4.833,10.804.976-.139-2.021Z" fill="#93d1ad" mix-blend-mode="multiply" opacity=".25"/>
          </g>
        </g>
        <path d="M267.611,111.186c2.568,1.617,6.041,9.851,3.532,13.662s-10.363,0-13.197-1.208-5.39-.093-5.39-.093v.836s-1.069-.325-1.115-.744-1.766-6.645.929-7.249c2.695-.604,4.554.744,4.554.744.836,1.348-.558,1.905.836,2.509,1.394.604,6.645.79,7.435-1.487s1.162-7.76,2.416-6.97Z" fill="#93d1ad"/>
        <g>
          <path d="M266.875,103.576c1.234.634,2.635,1.034,1.668,2.535s-3.669,2.402-4.003,1.534.334-2.868.334-2.868l2.001-1.201Z" fill="#93d1ad"/>
          <path d="M266.331,103.576c.958.585,2.045.955,1.294,2.34s-2.847,2.217-3.106,1.416c-.259-.801.259-2.648.259-2.648l1.553-1.108Z" fill="#42496f"/>
          <path d="M259.06,94.643s-3.113,1.998-2.416,3.718c-1.673,2.602-1.905,8.69,1.208,9.015s7.76-.046,9.851-2.695c0,0,2.138-.511,1.859-1.859.325-.186,1.208-3.392.558-5.39-.651-1.998-3.81-6.273-11.06-2.788Z" fill="#93d1ad"/>
          <g clip-path="url(#o)">
            <path d="M256.644,98.36s3.572-.732,4.838-2.561c0,0,.647,2.829,5.518,5.067,0,0-.802,2.435-.253,2.534s1.492-1.576,1.492-1.576c0,0,.957-.436,1.562,1.576,0,0,2.491-4.8,2.491-5.18s-3.885-7.742-3.885-7.742l-8.023.225-5.208,4.054,1.468,3.603Z" fill="#fff" opacity=".25"/>
          </g>
          <path d="M270.678,99.011s-4.368-5.251-12.686-3.81l.418-.929s-4.554-4.229-3.903-4.833c.651-.604,6.041,4.089,6.041,4.089,0,0,6.831-1.905,10.13,5.483Z" fill="#93d1ad"/>
          <path d="M262.592,94.178s-2.184-7.993-.929-8.457c1.255-.465,2.881,8.643,2.881,8.643l-1.952-.186Z" fill="#93d1ad"/>
          <path d="M266.031,94.829s1.162-7.482,1.952-7.528c.79-.046-.186,8.272-.186,8.272l-1.766-.744Z" fill="#93d1ad"/>
          <path d="M267.576,95.068c.158-1.637.615-6.803.095-6.769-.487.032-1.153,4.127-1.413,5.855-.773-.4-1.55-.606-2.269-.697-.396-2.167-1.386-7.072-2.192-6.746-.809.327.117,4.789.557,6.711-.939.078-1.564.29-1.564.29,0,0-4.743-3.872-5.315-3.299-.572.573,3.434,4.078,3.434,4.078l-.368.849c7.318-1.741,11.161,2.684,11.161,2.684-.601-1.322-1.339-2.266-2.126-2.956Z" fill="#93d1ad" mix-blend-mode="multiply" opacity=".25"/>
        </g>
        <g>
          <rect x="242.388" y="149.138" width="30.337" height="12.091" fill="#b1ddea"/>
          <rect x="261.663" y="149.138" width="11.063" height="12.091" fill="#9bc8ec" mix-blend-mode="multiply" opacity=".5"/>
          <rect x="239.533" y="159.847" width="35.576" height="3.689" fill="#9bc8ec"/>
          <rect x="259.665" y="159.847" width="15.445" height="3.689" fill="#9bc8ec" mix-blend-mode="multiply" opacity=".5"/>
        </g>
        <g>
          <path d="M256.969,99.824s-.929,1.836.511,1.905c1.441.07,1.719-1.58,1.719-1.58" fill="none" stroke="#336a9b" stroke-linecap="round" stroke-linejoin="round" stroke-width=".25"/>
          <path d="M261.012,100.149s-.929,1.836.511,1.905c1.441.07,1.719-1.58,1.719-1.58" fill="none" stroke="#336a9b" stroke-linecap="round" stroke-linejoin="round" stroke-width=".25"/>
          <line x1="262.685" y1="101.59" x2="263.521" y2="102.008" fill="none" stroke="#336a9b" stroke-linecap="round" stroke-linejoin="round" stroke-width=".25"/>
          <line x1="263.103" y1="100.939" x2="263.893" y2="101.172" fill="none" stroke="#336a9b" stroke-linecap="round" stroke-linejoin="round" stroke-width=".25"/>
          <line x1="256.69" y1="100.939" x2="255.715" y2="101.032" fill="none" stroke="#336a9b" stroke-linecap="round" stroke-linejoin="round" stroke-width=".25"/>
          <line x1="256.783" y1="100.149" x2="255.947" y2="100.01" fill="none" stroke="#336a9b" stroke-linecap="round" stroke-linejoin="round" stroke-width=".25"/>
          <path d="M257.852,103.449s-.256,2.509.372,2.602,1.58-2.509,1.58-2.509l-1.952-.093Z" fill="#336a9b"/>
        </g>
      </g>
    </g>
  </g>
</svg>