<?xml version="1.0" encoding="UTF-8"?>
<svg xmlns="http://www.w3.org/2000/svg" width="300" height="300" xmlns:xlink="http://www.w3.org/1999/xlink" viewBox="0 0 300 300">
  <defs>
    <clipPath id="k">
      <path d="M116.567,86.974V26.927H26.545v69.387c-4.536,1.576-7.564,4.371-7.564,7.566,0,4.927,7.178,8.922,16.032,8.922,5.145,0,9.712-1.354,12.646-3.451,2.4,1.451,5.529,2.336,8.962,2.336,4.094,0,7.757-1.256,10.261-3.235.588,1.122,1.482,1.856,2.498,1.856.359,0,.698-.11,1.021-.276,2.96,1.214,6.569,1.934,10.477,1.934,6.539,0,12.253-2.005,15.44-5.001.321.033.646.052.976.052,3.597,0,6.697-2.013,8.173-4.927,1.712,1.498,3.975,2.418,6.465,2.418,5.332,0,9.654-4.182,9.654-9.34,0-3.533-2.028-6.606-5.019-8.193Z" fill="none"/>
    </clipPath>
    <filter id="l" data-name="drop-shadow-2" x="54.112" y="47.982" width="47.375" height="32.215" filterUnits="userSpaceOnUse">
      <feOffset dx="-2" dy="0"/>
      <feGaussianBlur result="m" stdDeviation="0"/>
      <feFlood flood-color="#42496f" flood-opacity="1"/>
      <feComposite in2="m" operator="in"/>
      <feComposite in="SourceGraphic"/>
    </filter>
    <clipPath id="n">
      <path d="M101.612,110.01l-.833-28.931s3.642.312,1.457-.833c-2.185-1.145-9.991-2.29-11.448-2.29s-15.194.208-17.692.624c-2.498.416-15.61,1.353-19.773,1.457-4.163.104-14.362.833-15.819,1.457-1.457.624-4.163.624-4.163.624v33.718l68.269-1.041v-4.787Z" fill="none"/>
    </clipPath>
  </defs>
  <g isolation="isolate">
    <g id="j" data-name="Calque 17">
      <g>
        <g>
          <path d="M267.605,201.339c-4.222-6.209-12.062-9.78-15.322-10.106-3.26-.326-27.547,2.282-30.644,3.586-3.097,1.304-7.498,3.26-8.15,6.194-.652,2.934.351,4.472.757,4.96,1.042,1.253,8.698,6.776,14.892,7.428,6.194.652,25.102-2.771,31.948-4.238,6.846-1.467,9.291-3.749,6.52-7.824Z" fill="#b1ddea"/>
          <path d="M268.717,204.12c-.043-.822-.406-1.742-1.112-2.78-4.222-6.209-12.062-9.78-15.322-10.106-3.26-.326-27.547,2.282-30.644,3.586-2.058.866-4.685,2.023-6.412,3.56-2.467,1.883-.572,3.646.401,4.864,1.017,1.273,6.516,7.26,12.71,7.912,6.194.652,24.998-1.517,31.844-2.984,2.579-.553,7.249-3.216,8.536-4.053Z" fill="#fff" opacity=".75"/>
          <path d="M270.865,214.379c-3.773-1.132-18.256.815-23.146,1.63-4.89.815-9.454,1.63-9.454,1.63,0,0-5.868,6.846-4.89,9.128.978,2.282,8.802,4.401,13.366,4.238,4.564-.163,3.423-.978,6.52,0,3.097.978,4.564,2.282,7.824.978,3.26-1.304,7.661-2.934,9.78-4.238,2.119-1.304,5.379-5.868,6.194-7.172.815-1.304.326-4.238-6.194-6.194Z" fill="#b1ddea"/>
          <path d="M247.719,216.009c-4.89.815-9.454,1.63-9.454,1.63,0,0-2.929,3.423-4.301,6.236.017.075.021.159.05.227.978,2.282,8.494,5.805,13.057,5.642,4.564-.163,3.732-2.382,6.829-1.404,3.097.978,4.83,3.344,8.09,2.04,3.26-1.304,7.713-3.685,9.832-4.989,1.819-1.119,5.527-5.772,5.383-6.739-.471-1.37-2.168-3.02-6.34-4.272-3.773-1.132-18.256.815-23.146,1.63Z" fill="#fff" opacity=".75"/>
          <g mix-blend-mode="multiply" opacity=".5">
            <path d="M217.928,210.551c-1.213-.633-2.48-1.204-3.517-2.096,0,0-.909-.343-.407.35.091.125.172.254.29.354,1.241,1.049,2.569,1.996,3.965,2.827.89.53,2.674,1.427,2.885,1.053s-2.003-1.854-3.216-2.488Z" fill="#336a9b"/>
            <path d="M241.146,213.676c-1.764-.114-3.503.376-5.236.726-1.202.242-3.525.235-3.638.527-.183.454,4.368.386,5.841.291,1.173-.076,2.4-.276,3.333-.991.074-.056.15-.124.166-.215.038-.215-.249-.323-.467-.337Z" fill="#336a9b"/>
            <path d="M262.228,210.246c-1.611.172-5.528.446-5.921,1.126-.393.68,4.97.049,6.425-.197,1.159-.196,2.984-1.284,2.773-1.672s-1.665.57-3.276.742Z" fill="#336a9b"/>
            <path d="M232.534,216.588c-.866-.122-1.733-.235-2.601-.341-1.08-.132-2.171-.121-3.23.13-.495.117-.005.225-.005.225,1.499.348,3.027.572,4.563.67.49.031.987.049,1.466-.059.205-.046.426-.132.514-.323-.157-.212-.447-.266-.708-.302Z" fill="#336a9b"/>
            <path d="M222.831,215.494c.275.02.837.042.742-.266s-3.035-1.281-3.524-.969c-.488.312,1.749,1.161,2.782,1.235Z" fill="#336a9b"/>
            <path d="M256.72,213.163c.266-.072.804-.235.614-.495s-3.288-.214-3.646.241,2.033.522,3.033.253Z" fill="#336a9b"/>
          </g>
          <g mix-blend-mode="multiply" opacity=".5">
            <path d="M237.14,230.537c-1.213-.633-2.48-1.204-3.517-2.096,0,0-.909-.343-.407.35.091.125.172.254.29.354,1.241,1.049,2.569,1.996,3.965,2.827.89.53,2.674,1.427,2.885,1.053s-2.003-1.854-3.216-2.488Z" fill="#336a9b"/>
            <path d="M254.224,232.391c-.866-.122-1.733-.235-2.601-.341-1.08-.132-2.171-.121-3.23.13-.495.117-.005.225-.005.225,1.499.348,3.027.572,4.563.67.49.031.987.049,1.466-.059.205-.046.426-.132.514-.323-.157-.212-.447-.266-.708-.302Z" fill="#336a9b"/>
            <path d="M243.049,232.537c.275.02.837.042.742-.266s-3.035-1.281-3.524-.969,1.749,1.161,2.782,1.235Z" fill="#336a9b"/>
          </g>
        </g>
        <g>
          <g clip-path="url(#k)">
            <g filter="url(#l)">
              <path d="M94.487,67.346c1.866.118,1.273,9.989,1.919,10.211.646.222,5.221.519,5.077,2.64l-8.651-1.186c-1.85-.27-.243-11.785,1.655-11.665Z" fill="#336a9b"/>
              <path d="M96.387,59.13c.976,4.566.522,12.163,1.22,12.163.976,0,1.255-10.665.592-14.951,0,0-1.847,2.718-1.812,2.788Z" fill="#fff"/>
              <path d="M60.339,75.446s-5.574-3.737-3.92-6.616c1.654-2.879,4.656,2.328,4.656,2.328,0,0-.306-4.962,3.675-4.962,1.221,0-.184,2.512.674,6.003,5.329-.123,9.985-4.227,12.558-9.74,2.573-5.513.061-13.109,8.698-14.334s10.487,5.777,10.487,5.777c0,0,1.586-.349,1.464,1.673-.123,2.021-.679,3.76-2.762,5.292,0,0,.331,15.004-3.121,18.046,0,0-1.228.331-6.802.331s-22.236.858-22.236.858c0,0-2.328-.858-3.369-4.656Z" fill="#6498d1"/>
              <path d="M81.101,66.935c-1.868-.077-2.304,9.803-2.969,9.956s-5.247-.026-5.324,2.099l8.728-.282c1.868-.077,1.466-11.696-.435-11.774Z" fill="#336a9b"/>
              <path d="M93.413,57.806c-.976,4.566-.836,13.836-1.533,13.836-.976,0-1.638-9.863-.976-14.15,0,0,2.544.244,2.509.314Z" fill="#fff"/>
              <path d="M89.696,57.527s1.499,5.716,5.507,1.394l.279-2.509-5.855.139.07.976Z" fill="#6498d1"/>
              <path d="M94.452,55.693s.083.867,1.467.7c1.384-.167,1.074-1.223,1.074-1.223,0,0-1.641.052-2.541.523Z" fill="#efa78e"/>
              <path d="M94.622,53.186s.413,1.609,1.382,1.485.021-1.691.021-1.691" fill="none" stroke="#336a9b" stroke-linecap="round" stroke-linejoin="round" stroke-width=".25"/>
              <path d="M91.26,53.619s.206,1.856,1.341,1.65.186-1.96.186-1.96" fill="none" stroke="#336a9b" stroke-linecap="round" stroke-linejoin="round" stroke-width=".25"/>
              <g>
                <path d="M98.1,55.6c.372.653.619,1.378.721,2.123" fill="none" stroke="#336a9b" stroke-linecap="round" stroke-linejoin="round" stroke-width=".25"/>
                <path d="M97.344,56.135c.243.608.393,1.252.444,1.904" fill="none" stroke="#336a9b" stroke-linecap="round" stroke-linejoin="round" stroke-width=".25"/>
                <path d="M96.392,56.647c.19.58.275,1.194.248,1.803" fill="none" stroke="#336a9b" stroke-linecap="round" stroke-linejoin="round" stroke-width=".25"/>
                <path d="M95.387,56.681c.01.666.02,1.332.03,1.998" fill="none" stroke="#336a9b" stroke-linecap="round" stroke-linejoin="round" stroke-width=".25"/>
                <path d="M94.383,56.488c-.055.807-.125,1.613-.207,2.418" fill="none" stroke="#336a9b" stroke-linecap="round" stroke-linejoin="round" stroke-width=".25"/>
                <path d="M93.43,56.475c-.209.766-.418,1.531-.627,2.297" fill="none" stroke="#336a9b" stroke-linecap="round" stroke-linejoin="round" stroke-width=".25"/>
                <path d="M98.569,54.991c.486.494.876,1.082,1.145,1.72" fill="none" stroke="#336a9b" stroke-linecap="round" stroke-linejoin="round" stroke-width=".25"/>
                <path d="M92.482,56.41c-.354.644-.672,1.307-.952,1.987" fill="none" stroke="#336a9b" stroke-linecap="round" stroke-linejoin="round" stroke-width=".25"/>
                <path d="M91.42,56.18c-.337.472-.652.959-.946,1.46" fill="none" stroke="#336a9b" stroke-linecap="round" stroke-linejoin="round" stroke-width=".25"/>
              </g>
              <path d="M89.696,57.527s1.359,5.89,6.5,1.028c0,0,.055,3.144,1.866-.327" fill="none" stroke="#336a9b" stroke-linecap="round" stroke-linejoin="round" stroke-width=".25"/>
            </g>
            <g>
              <path d="M101.612,110.01l-.833-28.931s3.642.312,1.457-.833c-2.185-1.145-9.991-2.29-11.448-2.29s-15.194.208-17.692.624c-2.498.416-15.61,1.353-19.773,1.457-4.163.104-14.362.833-15.819,1.457-1.457.624-4.163.624-4.163.624v33.718l68.269-1.041v-4.787Z" fill="#b1ddea"/>
              <g clip-path="url(#n)">
                <path d="M104.206,74.977l-49.815-1.206-14.87,3.436s1.394,8.736,1.115,11.339c-.279,2.602,3.532,11.338,3.532,11.338l2.045-14.312,2.23,3.346s3.556,1.193,5.019,11.339c.356,2.468,2.634,4.916,5.913,7.23.167-1.133.37-2.262.574-3.375.375.793.749,1.585,1.123,2.378.865-5.509,1.73-11.017,2.594-16.526,1.526-.268,2.569,17.597,3.085,19.058,1.827,5.168.587-17.343,1.181-11.893.213-1.146,3.287,16.626,4.162-.971.533,3.494,1.767,15.687,3.604,19.564.865.344,1.72.676,2.565.997.09-.168.149-.35.143-.534-.835-22.881.217-27.429,2.668-21.801,1.468,29.809,4.346-7.084,5.272,15.916.524-.678,1.048-1.355,1.573-2.033.401,1.284.802,2.569,1.202,3.853.121.39.268.812.615,1.027.848.524,1.742-.6,2.11-1.526.671-1.684,1.342-3.367,2.013-5.051.85.866,1.616,1.816,2.281,2.832.651-2.901,1.218-5.821,1.7-8.755,2.162,4.545,6.053,9.535,6.233,14.565l1.174,2.219c.054-4.649.447-20.53.447-20.53l-1.487-21.921Z" fill="#fff" opacity=".75"/>
                <path d="M102.237,80.246c-2.185-1.145-9.991-2.29-11.448-2.29s-15.194.208-17.692.624c-2.498.416-15.61,1.353-19.773,1.457-4.163.104-14.362.833-15.819,1.457-1.457.624-4.163.624-4.163.624v1.485c4.389.753,8.905-1.233,13.358-2.104,3.119-.61,6.317-.667,9.495-.721,2.509-.043,5.1-.072,7.422.881.909.373,1.784.898,2.762.989.672.063,1.344-.085,2.003-.232,2.076-.463,4.151-.926,6.226-1.389.343-.077.703-.153,1.042-.06.477.13.811.566,1.269.753.754.309,1.59-.123,2.402-.196,1.055-.094,2.052.425,3.064.736,1.013.311,2.281.345,2.952-.474.13-.159.234-.347.403-.464.228-.157.525-.155.801-.159,2.192-.032,4.317-.833,6.509-.879,3.919-.083,2.216,2.244,6.09,1.641.947-.147.966-.164,1.638-.848,0,0,3.643.312,1.457-.833Z" fill="#fff"/>
              </g>
            </g>
          </g>
          <g>
            <g>
              <path d="M70.796,110.077c-.097-.187.025-.369.149-.411.148-.05.31.018.367.158.06.148-.011.314-.16.375-.024.01-.05.016-.074.025-.205.078-.224.068-.282-.148Z" fill="#fff"/>
              <path d="M75.3,110.432c-.135.042-.279-.031-.324-.167-.048-.143.028-.29.171-.331.135-.039.28.04.322.174.042.134-.035.282-.168.324Z" fill="#fff"/>
              <path d="M73.326,108.025c-.114.035-.203-.019-.246-.148-.041-.124.023-.255.144-.292.117-.036.24.032.276.151.038.126-.035.246-.173.288Z" fill="#fff"/>
              <path d="M72.026,107.077c.118-.033.234.03.265.145.031.114-.036.231-.152.264-.125.035-.25-.028-.281-.142-.031-.115.041-.231.168-.267Z" fill="#fff"/>
              <path d="M72.583,110.174c-.113.035-.236-.028-.272-.14-.037-.113.027-.234.141-.269.116-.036.234.025.271.14.037.116-.024.233-.14.269Z" fill="#fff"/>
              <path d="M69.611,108.442c-.109.03-.223-.039-.251-.151-.026-.106.036-.214.141-.246.111-.033.223.029.254.142.031.111-.034.224-.145.254Z" fill="#fff"/>
              <path d="M76.032,109.214c.029.108-.031.213-.139.245-.112.033-.224-.03-.253-.144-.028-.107.033-.215.139-.246.112-.033.222.031.253.145Z" fill="#fff"/>
              <path d="M70.532,107.601c.102-.028.203.027.225.122.023.099-.041.209-.137.235-.099.027-.195-.027-.223-.127-.029-.103.029-.202.135-.231Z" fill="#fff"/>
              <path d="M75.062,111.412c-.029.008-.057.02-.087.024-.091.014-.154-.024-.171-.115-.017-.092.033-.148.121-.168.046-.01.095-.006.141-.015.085-.016.149.007.17.094.021.089-.03.137-.112.158-.021.005-.041.012-.062.018v.004Z" fill="#fff"/>
              <path d="M73.858,106.612c.097-.031.202.02.231.112.029.093-.034.207-.131.237-.091.028-.2-.032-.226-.125-.026-.095.03-.194.126-.225Z" fill="#fff"/>
              <path d="M72.044,112.748c.035.107-.004.204-.096.238-.086.031-.19-.021-.22-.112-.031-.091.059-.262.151-.288.073-.02.121.027.165.162Z" fill="#fff"/>
              <path d="M70.872,111.937c.097-.025.198.034.219.135.022.105-.022.18-.123.214-.098.033-.196-.025-.223-.125-.027-.1.029-.197.127-.223Z" fill="#fff"/>
              <path d="M73.638,112.901c-.094.023-.197-.042-.221-.139-.024-.098.029-.187.126-.21.098-.023.198.037.221.134.022.092-.038.193-.126.214Z" fill="#fff"/>
              <path d="M74.17,110.366c.026.09-.027.191-.116.22-.093.029-.197-.031-.222-.129-.024-.093.032-.19.123-.214.09-.024.189.033.215.124Z" fill="#fff"/>
              <path d="M71.961,111.083c-.012-.083.02-.152.113-.182.085-.027.187.028.204.114.02.094-.021.162-.11.194-.083.029-.181-.029-.207-.126Z" fill="#fff"/>
              <path d="M74.955,108.479c.042-.055.074-.131.129-.16.083-.043.154.011.181.096.028.087-.01.17-.096.184-.061.01-.131-.038-.196-.06l-.018-.059Z" fill="#fff"/>
              <path d="M72.388,108.699c-.057.09-.081.155-.128.187-.019.012-.111-.041-.129-.082-.032-.073.007-.14.092-.151.038-.005.08.021.165.046Z" fill="#fff"/>
              <path d="M73.856,107.857c.069.058.131.085.138.122.007.039-.039.088-.062.132-.044-.024-.109-.039-.125-.076-.015-.035.023-.092.049-.178Z" fill="#fff"/>
              <path d="M74.4,109.308c-.064-.053-.122-.078-.128-.112-.007-.036.034-.082.054-.123.044.023.105.036.125.073.015.027-.024.083-.051.163Z" fill="#fff"/>
              <path d="M75.783,111.718c-.068-.057-.128-.083-.132-.116-.005-.037.033-.096.068-.115.021-.011.095.029.106.06.012.035-.019.086-.042.171Z" fill="#fff"/>
              <path d="M73.832,110.93c-.056.064-.083.12-.116.125-.036.005-.079-.039-.119-.062.023-.04.038-.1.072-.115.031-.013.083.023.164.051Z" fill="#fff"/>
              <path d="M73.078,111.347c-.047.06-.068.114-.098.12-.032.006-.095-.027-.104-.055-.009-.029.024-.091.054-.105.028-.013.076.019.149.04Z" fill="#fff"/>
              <path d="M74.828,107.592c-.048.059-.069.109-.102.118-.028.008-.096-.028-.098-.049-.004-.037.02-.096.05-.112.025-.014.076.02.15.044Z" fill="#fff"/>
              <path d="M75.297,108.131c.05-.06.073-.113.104-.118.034-.005.075.033.113.053-.021.037-.034.093-.065.106-.029.013-.077-.019-.152-.042Z" fill="#fff"/>
              <path d="M70.416,110.628c-.039.047-.062.1-.086.101-.035,0-.072-.036-.108-.057.023-.035.039-.084.072-.1.022-.01.066.028.122.056Z" fill="#fff"/>
              <path d="M69.454,108.982c.048.045.099.072.099.098,0,.035-.041.069-.064.104-.031-.024-.079-.043-.087-.072-.008-.03.026-.07.052-.13Z" fill="#fff"/>
              <path d="M74.028,108.908c-.049-.036-.097-.054-.1-.077-.004-.033.026-.071.041-.106.033.02.078.034.094.063.011.021-.017.063-.035.12Z" fill="#fff"/>
              <path d="M73.099,108.893c-.047-.035-.086-.052-.098-.079-.007-.017.027-.075.042-.075.031,0,.072.021.09.046.01.015-.016.056-.034.108Z" fill="#fff"/>
            </g>
            <g>
              <path d="M67.333,105.619c.1-.108.249-.071.306.001.068.086.062.208-.018.279-.084.074-.21.067-.285-.017-.012-.013-.022-.029-.034-.043-.1-.117-.098-.132.031-.221Z" fill="#fff"/>
              <path d="M68.163,108.67c-.06-.079-.045-.191.033-.253.083-.065.198-.05.258.034.057.08.04.194-.039.253-.078.059-.194.044-.253-.034Z" fill="#fff"/>
              <path d="M69.282,106.801c-.05-.067-.035-.138.039-.197.072-.057.173-.045.226.026.051.069.036.165-.035.217-.074.054-.17.035-.231-.046Z" fill="#fff"/>
              <path d="M69.6,105.721c.05.07.035.161-.033.209-.068.047-.161.031-.21-.038-.053-.074-.041-.171.027-.219.069-.048.162-.027.215.048Z" fill="#fff"/>
              <path d="M67.691,106.819c-.05-.066-.037-.162.028-.212.066-.051.161-.037.211.029.051.068.039.16-.028.211-.067.052-.159.039-.21-.029Z" fill="#fff"/>
              <path d="M68.13,104.452c-.045-.065-.027-.156.04-.201.064-.042.15-.027.195.035.048.065.033.154-.034.201-.066.046-.156.031-.202-.035Z" fill="#fff"/>
              <path d="M69.138,108.864c-.064.044-.148.03-.194-.034-.048-.066-.033-.154.035-.201.064-.044.149-.029.195.033.048.066.032.154-.036.201Z" fill="#fff"/>
              <path d="M68.901,104.86c.042.061.03.14-.027.177-.06.039-.147.023-.187-.035-.042-.059-.028-.135.031-.177.061-.044.14-.029.184.034Z" fill="#fff"/>
              <path d="M67.461,108.745c-.012-.017-.027-.033-.037-.052-.031-.057-.021-.107.035-.14.057-.033.106-.013.139.04.018.028.026.061.043.089.031.052.031.1-.022.134-.054.035-.097.012-.13-.037-.008-.012-.018-.025-.026-.037h-.002Z" fill="#fff"/>
              <path d="M70.338,106.818c.043.057.034.138-.02.178-.055.041-.145.026-.187-.031-.04-.054-.026-.14.029-.178.056-.04.135-.026.178.03Z" fill="#fff"/>
              <path d="M65.868,107.072c-.062.048-.135.046-.179-.007-.041-.049-.031-.13.022-.171.053-.042.187-.023.226.031.031.043.011.086-.068.147Z" fill="#fff"/>
              <path d="M66.125,106.108c.04.058.024.138-.037.176-.064.039-.123.028-.17-.031-.045-.057-.03-.135.03-.176.059-.041.137-.028.177.031Z" fill="#fff"/>
              <path d="M66.143,108.158c-.037-.057-.019-.14.039-.178.059-.039.13-.025.168.033.038.059.022.139-.036.177-.055.036-.136.021-.171-.033Z" fill="#fff"/>
              <path d="M67.939,107.91c-.053.039-.133.027-.172-.024-.041-.054-.026-.137.032-.177.055-.037.133-.024.17.03.037.053.023.132-.031.171Z" fill="#fff"/>
              <path d="M66.945,106.624c.051-.028.105-.023.146.031.038.05.025.13-.027.161-.057.035-.112.025-.154-.027-.039-.048-.023-.126.034-.166Z" fill="#fff"/>
              <path d="M69.368,107.981c.046.015.104.018.136.047.048.045.029.104-.021.142-.051.039-.114.033-.144-.02-.021-.038-.006-.095-.007-.144l.035-.026Z" fill="#fff"/>
              <path d="M68.617,106.343c-.073-.017-.122-.017-.153-.04-.013-.009,0-.083.023-.104.04-.038.094-.028.121.025.012.024.005.057.008.12Z" fill="#fff"/>
              <path d="M69.518,107.11c-.022.059-.025.107-.048.12-.024.014-.067-.005-.102-.01.006-.035,0-.081.021-.1.019-.018.066-.007.129-.01Z" fill="#fff"/>
              <path d="M68.691,107.812c.02-.055.022-.098.044-.111.022-.013.062.003.094.007-.005.034,0,.078-.018.099-.014.016-.06.004-.119.005Z" fill="#fff"/>
              <path d="M67.43,109.292c.021-.058.025-.104.046-.114.023-.012.071,0,.092.018.012.011.003.069-.014.084-.02.017-.061.008-.123.013Z" fill="#fff"/>
              <path d="M67.488,107.821c-.055-.022-.099-.026-.11-.047-.012-.023.007-.061.012-.093.032.006.075.001.092.02.016.017.004.06.005.12Z" fill="#fff"/>
              <path d="M67.035,107.422c-.051-.016-.091-.018-.102-.036-.012-.02-.005-.069.012-.081.017-.013.066-.006.082.011.015.015.006.055.008.107Z" fill="#fff"/>
              <path d="M69.922,107.688c-.05-.018-.088-.02-.102-.039-.012-.017-.004-.07.009-.076.024-.011.068-.01.086.006.015.013.005.055.007.109Z" fill="#fff"/>
              <path d="M69.678,108.125c.051.019.091.022.102.041.012.021-.004.057-.008.087-.029-.005-.069,0-.085-.018-.015-.016-.006-.056-.008-.11Z" fill="#fff"/>
              <path d="M66.88,105.499c-.04-.014-.081-.017-.087-.033-.009-.023.007-.056.012-.084.028.007.065.006.083.024.012.012-.003.05-.008.094Z" fill="#fff"/>
              <path d="M67.737,104.476c-.018.042-.024.082-.041.088-.023.008-.055-.01-.084-.018.008-.026.009-.062.027-.075.018-.012.052,0,.098.004Z" fill="#fff"/>
              <path d="M68.866,107.472c.012-.04.012-.077.027-.084.021-.01.053,0,.08.002-.006.026-.004.059-.02.077-.011.012-.046.004-.087.005Z" fill="#fff"/>
              <path d="M68.657,106.857c.012-.039.014-.069.029-.083.01-.009.056,0,.059.01.007.021.003.053-.009.07-.008.011-.041.003-.079.003Z" fill="#fff"/>
            </g>
            <g>
              <path d="M61.755,109.495c-.098-.059-.094-.179-.048-.233.054-.065.149-.08.216-.031.07.052.085.149.033.22-.008.011-.019.021-.027.033-.073.095-.085.096-.173.012Z" fill="#fff"/>
              <path d="M63.947,108.372c-.051.058-.138.065-.198.015-.063-.052-.07-.143-.015-.202.051-.056.141-.061.199-.011.058.05.064.141.014.198Z" fill="#fff"/>
              <path d="M62.343,107.82c-.043.049-.1.049-.156.002-.055-.046-.062-.125-.017-.176.044-.05.12-.054.171-.008.053.048.054.124.002.183Z" fill="#fff"/>
              <path d="M61.468,107.751c.045-.049.117-.053.165-.008.047.044.049.118.005.166-.048.052-.124.058-.171.014-.048-.045-.047-.119.002-.172Z" fill="#fff"/>
              <path d="M62.612,109.029c-.043.049-.118.055-.166.013-.049-.042-.054-.117-.011-.166.044-.05.116-.055.166-.012.05.043.056.115.012.165Z" fill="#fff"/>
              <path d="M60.738,109.075c-.042.045-.115.046-.159.002-.042-.042-.045-.11-.005-.154.042-.047.112-.05.159-.007.046.043.048.114.006.159Z" fill="#fff"/>
              <path d="M63.939,107.598c.044.042.047.108.006.153-.043.047-.112.05-.158.006-.044-.042-.046-.109-.006-.154.043-.047.112-.049.159-.005Z" fill="#fff"/>
              <path d="M60.925,108.421c.039-.042.102-.045.14-.008.039.039.041.109.004.148-.038.041-.098.043-.14.005-.043-.04-.045-.102-.004-.146Z" fill="#fff"/>
              <path d="M64.117,108.895c-.011.012-.021.026-.033.036-.038.032-.079.033-.112-.004-.034-.038-.027-.078.008-.112.018-.018.042-.03.061-.047.035-.032.071-.04.106-.005.035.035.025.072-.007.105-.008.008-.016.017-.024.026h.001Z" fill="#fff"/>
              <path d="M62.186,107.012c.036-.042.1-.048.139-.014.04.035.043.106.007.147-.034.039-.102.042-.14.007-.039-.036-.042-.099-.006-.14Z" fill="#fff"/>
              <path d="M63.098,110.378c.047.04.057.096.023.138-.031.039-.094.044-.134.011-.04-.034-.048-.139-.012-.177.028-.03.064-.022.123.028Z" fill="#fff"/>
              <path d="M62.322,110.337c.038-.04.102-.041.14,0,.04.043.041.09.004.134-.036.043-.098.044-.139.006-.041-.038-.043-.1-.005-.14Z" fill="#fff"/>
              <path d="M63.882,109.994c-.037.037-.103.037-.142-.001-.039-.039-.04-.095-.002-.133.039-.039.103-.039.141,0,.036.036.038.1.003.135Z" fill="#fff"/>
              <path d="M63.404,108.665c.038.034.042.097.009.135-.035.04-.1.042-.14.004-.037-.036-.039-.098-.004-.135.035-.037.097-.039.135-.004Z" fill="#fff"/>
              <path d="M62.583,109.629c-.029-.035-.034-.076,0-.116.032-.037.095-.04.127-.006.036.038.037.081.004.122-.03.037-.092.038-.132,0Z" fill="#fff"/>
              <path d="M63.229,107.565c.004-.038-.003-.082.014-.111.026-.044.075-.039.112-.007.038.033.044.082.008.113-.025.022-.072.02-.108.028l-.025-.023Z" fill="#fff"/>
              <path d="M62.1,108.4c0,.058.007.095-.006.123-.005.011-.063.013-.083-.001-.036-.025-.037-.067,0-.097.016-.013.043-.013.09-.026Z" fill="#fff"/>
              <path d="M62.541,107.59c.049.007.085.002.099.017.014.016.007.052.009.079-.027.001-.062.013-.08,0-.017-.012-.016-.049-.028-.097Z" fill="#fff"/>
              <path d="M63.208,108.108c-.045-.006-.079-.001-.092-.015-.014-.015-.007-.048-.01-.073.027-.002.059-.013.079-.002.015.008.013.045.023.09Z" fill="#fff"/>
              <path d="M64.539,108.831c-.048-.007-.083-.002-.094-.016-.013-.016-.012-.054-.001-.073.006-.011.052-.014.066-.003.016.013.016.045.029.092Z" fill="#fff"/>
              <path d="M63.408,109.023c-.008.046-.004.08-.018.091-.015.013-.048.005-.073.005,0-.025-.011-.057,0-.074.011-.015.045-.013.091-.023Z" fill="#fff"/>
              <path d="M63.177,109.432c-.004.041.001.072-.011.084-.013.012-.052.015-.064.004-.012-.011-.015-.049-.005-.064.009-.014.041-.013.081-.024Z" fill="#fff"/>
              <path d="M62.916,107.189c-.005.041,0,.07-.013.084-.011.012-.052.015-.06.005-.012-.016-.018-.05-.009-.066.008-.014.041-.013.082-.023Z" fill="#fff"/>
              <path d="M63.288,107.305c.006-.042.002-.073.015-.084.014-.012.044-.006.068-.008,0,.023.011.053,0,.068-.01.014-.041.013-.083.024Z" fill="#fff"/>
              <path d="M61.736,109.859c-.004.033,0,.064-.011.071-.016.01-.044.004-.066.004,0-.023-.006-.05.005-.067.007-.011.039-.006.073-.009Z" fill="#fff"/>
              <path d="M60.819,109.37c.035.007.066.005.074.017.01.016,0,.044,0,.067-.021-.002-.049.003-.061-.009-.012-.012-.008-.04-.013-.075Z" fill="#fff"/>
              <path d="M62.921,108.028c-.033-.003-.06.003-.068-.007-.011-.014-.008-.04-.011-.061.021,0,.046-.007.062.003.011.006.01.034.018.066Z" fill="#fff"/>
              <path d="M62.486,108.287c-.032-.003-.055,0-.068-.009-.008-.006-.009-.043-.002-.047.015-.009.04-.011.055-.004.009.004.008.031.015.06Z" fill="#fff"/>
            </g>
          </g>
          <g>
            <g>
              <path d="M102.32,106.574c-.097-.187.025-.369.149-.411.148-.05.31.018.367.158.06.148-.011.314-.16.375-.024.01-.05.016-.074.025-.205.078-.224.068-.282-.148Z" fill="#fff"/>
              <path d="M106.824,106.929c-.135.042-.279-.031-.324-.167-.048-.143.028-.29.171-.331.135-.039.28.04.322.174.042.134-.035.282-.168.324Z" fill="#fff"/>
              <path d="M104.85,104.523c-.114.035-.203-.019-.246-.148-.041-.124.023-.255.144-.292.117-.036.24.032.276.151.038.126-.035.246-.173.288Z" fill="#fff"/>
              <path d="M103.55,103.574c.118-.033.234.03.265.145.031.114-.036.231-.152.264-.125.035-.25-.028-.281-.142-.031-.115.041-.231.168-.267Z" fill="#fff"/>
              <path d="M104.107,106.672c-.113.035-.236-.028-.272-.14-.037-.113.027-.234.141-.269.116-.036.234.025.271.14.037.116-.024.233-.14.269Z" fill="#fff"/>
              <path d="M101.135,104.939c-.109.03-.223-.039-.251-.151-.026-.106.036-.214.141-.246.111-.033.223.029.254.142.031.111-.034.224-.145.254Z" fill="#fff"/>
              <path d="M107.556,105.711c.029.108-.031.213-.139.245-.112.033-.224-.03-.253-.144-.028-.107.033-.215.139-.246.112-.033.222.031.253.145Z" fill="#fff"/>
              <path d="M102.056,104.099c.102-.028.203.027.225.122.023.099-.041.209-.137.235-.099.027-.195-.027-.223-.127-.029-.103.029-.202.135-.231Z" fill="#fff"/>
              <path d="M106.587,107.909c-.029.008-.057.02-.087.024-.091.014-.154-.024-.171-.115-.017-.092.033-.148.121-.168.046-.01.095-.006.141-.015.085-.016.149.007.17.094.021.089-.03.137-.112.158-.021.005-.041.012-.062.018v.004Z" fill="#fff"/>
              <path d="M105.382,103.11c.097-.031.202.02.231.112.029.093-.034.207-.131.237-.091.028-.2-.032-.226-.125-.026-.095.03-.194.126-.225Z" fill="#fff"/>
              <path d="M103.568,109.246c.035.107-.004.204-.096.238-.086.031-.19-.021-.22-.112-.031-.091.059-.262.151-.288.073-.02.121.027.165.162Z" fill="#fff"/>
              <path d="M102.396,108.434c.097-.025.198.034.219.135.022.105-.022.18-.123.214-.098.033-.196-.025-.223-.125-.027-.1.029-.197.127-.223Z" fill="#fff"/>
              <path d="M105.163,109.399c-.094.023-.197-.042-.221-.139-.024-.098.029-.187.126-.21.098-.023.198.037.221.134.022.092-.038.193-.126.214Z" fill="#fff"/>
              <path d="M105.695,106.863c.026.09-.027.191-.116.22-.093.029-.197-.031-.222-.129-.024-.093.032-.19.123-.214.09-.024.189.033.215.124Z" fill="#fff"/>
              <path d="M103.485,107.58c-.012-.083.02-.152.113-.182.085-.027.187.028.204.114.02.094-.021.162-.11.194-.083.029-.181-.029-.207-.126Z" fill="#fff"/>
              <path d="M106.479,104.976c.042-.055.074-.131.129-.16.083-.043.154.011.181.096.028.087-.01.17-.096.184-.061.01-.131-.038-.196-.06l-.018-.059Z" fill="#fff"/>
              <path d="M103.913,105.197c-.057.09-.081.155-.128.187-.019.012-.111-.041-.129-.082-.032-.073.007-.14.092-.151.038-.005.08.021.165.046Z" fill="#fff"/>
              <path d="M105.38,104.354c.069.058.131.085.138.122.007.039-.039.088-.062.132-.044-.024-.109-.039-.125-.076-.015-.035.023-.092.049-.178Z" fill="#fff"/>
              <path d="M105.924,105.805c-.064-.053-.122-.078-.128-.112-.007-.036.034-.082.054-.123.044.023.105.036.125.073.015.027-.024.083-.051.163Z" fill="#fff"/>
              <path d="M107.307,108.215c-.068-.057-.128-.083-.132-.116-.005-.037.033-.096.068-.115.021-.011.095.029.106.06.012.035-.019.086-.042.171Z" fill="#fff"/>
              <path d="M105.357,107.428c-.056.064-.083.12-.116.125-.036.005-.079-.039-.119-.062.023-.04.038-.1.072-.115.031-.013.083.023.164.051Z" fill="#fff"/>
              <path d="M104.602,107.844c-.047.06-.068.114-.098.12-.032.006-.095-.027-.104-.055-.009-.029.024-.091.054-.105.028-.013.076.019.149.04Z" fill="#fff"/>
              <path d="M106.352,104.089c-.048.059-.069.109-.102.118-.028.008-.096-.028-.098-.049-.004-.037.02-.096.05-.112.025-.014.076.02.15.044Z" fill="#fff"/>
              <path d="M106.821,104.628c.05-.06.073-.113.104-.118.034-.005.075.033.113.053-.021.037-.034.093-.065.106-.029.013-.077-.019-.152-.042Z" fill="#fff"/>
              <path d="M101.94,107.125c-.039.047-.062.1-.086.101-.035,0-.072-.036-.108-.057.023-.035.039-.084.072-.1.022-.01.066.028.122.056Z" fill="#fff"/>
              <path d="M100.978,105.479c.048.045.099.072.099.098,0,.035-.041.069-.064.104-.031-.024-.079-.043-.087-.072-.008-.03.026-.07.052-.13Z" fill="#fff"/>
              <path d="M105.552,105.405c-.049-.036-.097-.054-.1-.077-.004-.033.026-.071.041-.106.033.02.078.034.094.063.011.021-.017.063-.035.12Z" fill="#fff"/>
              <path d="M104.624,105.39c-.047-.035-.086-.052-.098-.079-.007-.017.027-.075.042-.075.031,0,.072.021.09.046.01.015-.016.056-.034.108Z" fill="#fff"/>
            </g>
            <g>
              <path d="M98.857,102.116c.1-.108.249-.071.306.001.068.086.062.208-.018.279-.084.074-.21.067-.285-.017-.012-.013-.022-.029-.034-.043-.1-.117-.098-.132.031-.221Z" fill="#fff"/>
              <path d="M99.687,105.167c-.06-.079-.045-.191.033-.253.083-.065.198-.05.258.034.057.08.04.194-.039.253-.078.059-.194.044-.253-.034Z" fill="#fff"/>
              <path d="M100.806,103.298c-.05-.067-.035-.138.039-.197.072-.057.173-.045.226.026.051.069.036.165-.035.217-.074.054-.17.035-.231-.046Z" fill="#fff"/>
              <path d="M101.124,102.218c.05.07.035.161-.033.209-.068.047-.161.031-.21-.038-.053-.074-.041-.171.027-.219.069-.048.162-.027.215.048Z" fill="#fff"/>
              <path d="M99.215,103.317c-.05-.066-.037-.162.028-.212.066-.051.161-.037.211.029.051.068.039.16-.028.211-.067.052-.159.039-.21-.029Z" fill="#fff"/>
              <path d="M99.654,100.95c-.045-.065-.027-.156.04-.201.064-.042.15-.027.195.035.048.065.033.154-.034.201-.066.046-.156.031-.202-.035Z" fill="#fff"/>
              <path d="M100.662,105.362c-.064.044-.148.03-.194-.034-.048-.066-.033-.154.035-.201.064-.044.149-.029.195.033.048.066.032.154-.036.201Z" fill="#fff"/>
              <path d="M100.425,101.357c.042.061.03.14-.027.177-.06.039-.147.023-.187-.035-.042-.059-.028-.135.031-.177.061-.044.14-.029.184.034Z" fill="#fff"/>
              <path d="M98.985,105.242c-.012-.017-.027-.033-.037-.052-.031-.057-.021-.107.035-.14.057-.033.106-.013.139.04.018.028.026.061.043.089.031.052.031.1-.022.134-.054.035-.097.012-.13-.037-.008-.012-.018-.025-.026-.037h-.002Z" fill="#fff"/>
              <path d="M101.862,103.315c.043.057.034.138-.02.178-.055.041-.145.026-.187-.031-.04-.054-.026-.14.029-.178.056-.04.135-.026.178.03Z" fill="#fff"/>
              <path d="M97.392,103.569c-.062.048-.135.046-.179-.007-.041-.049-.031-.13.022-.171.053-.042.187-.023.226.031.031.043.011.086-.068.147Z" fill="#fff"/>
              <path d="M97.649,102.606c.04.058.024.138-.037.176-.064.039-.123.028-.17-.031-.045-.057-.03-.135.03-.176.059-.041.137-.028.177.031Z" fill="#fff"/>
              <path d="M97.668,104.656c-.037-.057-.019-.14.039-.178.059-.039.13-.025.168.033.038.059.022.139-.036.177-.055.036-.136.021-.171-.033Z" fill="#fff"/>
              <path d="M99.464,104.408c-.053.039-.133.027-.172-.024-.041-.054-.026-.137.032-.177.055-.037.133-.024.17.03.037.053.023.132-.031.171Z" fill="#fff"/>
              <path d="M98.469,103.121c.051-.028.105-.023.146.031.038.05.025.13-.027.161-.057.035-.112.025-.154-.027-.039-.048-.023-.126.034-.166Z" fill="#fff"/>
              <path d="M100.892,104.478c.046.015.104.018.136.047.048.045.029.104-.021.142-.051.039-.114.033-.144-.02-.021-.038-.006-.095-.007-.144l.035-.026Z" fill="#fff"/>
              <path d="M100.141,102.84c-.073-.017-.122-.017-.153-.04-.013-.009,0-.083.023-.104.04-.038.094-.028.121.025.012.024.005.057.008.12Z" fill="#fff"/>
              <path d="M101.042,103.608c-.022.059-.025.107-.048.12-.024.014-.067-.005-.102-.01.006-.035,0-.081.021-.1.019-.018.066-.007.129-.01Z" fill="#fff"/>
              <path d="M100.215,104.309c.02-.055.022-.098.044-.111.022-.013.062.003.094.007-.005.034,0,.078-.018.099-.014.016-.06.004-.119.005Z" fill="#fff"/>
              <path d="M98.954,105.789c.021-.058.025-.104.046-.114.023-.012.071,0,.092.018.012.011.003.069-.014.084-.02.017-.061.008-.123.013Z" fill="#fff"/>
              <path d="M99.012,104.318c-.055-.022-.099-.026-.11-.047-.012-.023.007-.061.012-.093.032.006.075.001.092.02.016.017.004.06.005.12Z" fill="#fff"/>
              <path d="M98.559,103.919c-.051-.016-.091-.018-.102-.036-.012-.02-.005-.069.012-.081.017-.013.066-.006.082.011.015.015.006.055.008.107Z" fill="#fff"/>
              <path d="M101.446,104.186c-.05-.018-.088-.02-.102-.039-.012-.017-.004-.07.009-.076.024-.011.068-.01.086.006.015.013.005.055.007.109Z" fill="#fff"/>
              <path d="M101.202,104.622c.051.019.091.022.102.041.012.021-.004.057-.008.087-.029-.005-.069,0-.085-.018-.015-.016-.006-.056-.008-.11Z" fill="#fff"/>
              <path d="M98.404,101.996c-.04-.014-.081-.017-.087-.033-.009-.023.007-.056.012-.084.028.007.065.006.083.024.012.012-.003.05-.008.094Z" fill="#fff"/>
              <path d="M99.261,100.973c-.018.042-.024.082-.041.088-.023.008-.055-.01-.084-.018.008-.026.009-.062.027-.075.018-.012.052,0,.098.004Z" fill="#fff"/>
              <path d="M100.391,103.97c.012-.04.012-.077.027-.084.021-.01.053,0,.08.002-.006.026-.004.059-.02.077-.011.012-.046.004-.087.005Z" fill="#fff"/>
              <path d="M100.181,103.354c.012-.039.014-.069.029-.083.01-.009.056,0,.059.01.007.021.003.053-.009.07-.008.011-.041.003-.079.003Z" fill="#fff"/>
            </g>
            <g>
              <path d="M93.279,105.992c-.098-.059-.094-.179-.048-.233.054-.065.149-.08.216-.031.07.052.085.149.033.22-.008.011-.019.021-.027.033-.073.095-.085.096-.173.012Z" fill="#fff"/>
              <path d="M95.471,104.87c-.051.058-.138.065-.198.015-.063-.052-.07-.143-.015-.202.051-.056.141-.061.199-.011.058.05.064.141.014.198Z" fill="#fff"/>
              <path d="M93.867,104.317c-.043.049-.1.049-.156.002-.055-.046-.062-.125-.017-.176.044-.05.12-.054.171-.008.053.048.054.124.002.183Z" fill="#fff"/>
              <path d="M92.992,104.248c.045-.049.117-.053.165-.008.047.044.049.118.005.166-.048.052-.124.058-.171.014-.048-.045-.047-.119.002-.172Z" fill="#fff"/>
              <path d="M94.137,105.527c-.043.049-.118.055-.166.013-.049-.042-.054-.117-.011-.166.044-.05.116-.055.166-.012.05.043.056.115.012.165Z" fill="#fff"/>
              <path d="M92.262,105.572c-.042.045-.115.046-.159.002-.042-.042-.045-.11-.005-.154.042-.047.112-.05.159-.007.046.043.048.114.006.159Z" fill="#fff"/>
              <path d="M95.463,104.095c.044.042.047.108.006.153-.043.047-.112.05-.158.006-.044-.042-.046-.109-.006-.154.043-.047.112-.049.159-.005Z" fill="#fff"/>
              <path d="M92.449,104.919c.039-.042.102-.045.14-.008.039.039.041.109.004.148-.038.041-.098.043-.14.005-.043-.04-.045-.102-.004-.146Z" fill="#fff"/>
              <path d="M95.641,105.392c-.011.012-.021.026-.033.036-.038.032-.079.033-.112-.004-.034-.038-.027-.078.008-.112.018-.018.042-.03.061-.047.035-.032.071-.04.106-.005.035.035.025.072-.007.105-.008.008-.016.017-.024.026h.001Z" fill="#fff"/>
              <path d="M93.71,103.509c.036-.042.1-.048.139-.014.04.035.043.106.007.147-.034.039-.102.042-.14.007-.039-.036-.042-.099-.006-.14Z" fill="#fff"/>
              <path d="M94.622,106.876c.047.04.057.096.023.138-.031.039-.094.044-.134.011-.04-.034-.048-.139-.012-.177.028-.03.064-.022.123.028Z" fill="#fff"/>
              <path d="M93.846,106.834c.038-.04.102-.041.14,0,.04.043.041.09.004.134-.036.043-.098.044-.139.006-.041-.038-.043-.1-.005-.14Z" fill="#fff"/>
              <path d="M95.406,106.491c-.037.037-.103.037-.142-.001-.039-.039-.04-.095-.002-.133.039-.039.103-.039.141,0,.036.036.038.1.003.135Z" fill="#fff"/>
              <path d="M94.928,105.162c.038.034.042.097.009.135-.035.04-.1.042-.14.004-.037-.036-.039-.098-.004-.135.035-.037.097-.039.135-.004Z" fill="#fff"/>
              <path d="M94.107,106.126c-.029-.035-.034-.076,0-.116.032-.037.095-.04.127-.006.036.038.037.081.004.122-.03.037-.092.038-.132,0Z" fill="#fff"/>
              <path d="M94.753,104.062c.004-.038-.003-.082.014-.111.026-.044.075-.039.112-.007.038.033.044.082.008.113-.025.022-.072.02-.108.028l-.025-.023Z" fill="#fff"/>
              <path d="M93.624,104.898c0,.058.007.095-.006.123-.005.011-.063.013-.083-.001-.036-.025-.037-.067,0-.097.016-.013.043-.013.09-.026Z" fill="#fff"/>
              <path d="M94.065,104.087c.049.007.085.002.099.017.014.016.007.052.009.079-.027.001-.062.013-.08,0-.017-.012-.016-.049-.028-.097Z" fill="#fff"/>
              <path d="M94.732,104.605c-.045-.006-.079-.001-.092-.015-.014-.015-.007-.048-.01-.073.027-.002.059-.013.079-.002.015.008.013.045.023.09Z" fill="#fff"/>
              <path d="M96.063,105.328c-.048-.007-.083-.002-.094-.016-.013-.016-.012-.054-.001-.073.006-.011.052-.014.066-.003.016.013.016.045.029.092Z" fill="#fff"/>
              <path d="M94.932,105.521c-.008.046-.004.08-.018.091-.015.013-.048.005-.073.005,0-.025-.011-.057,0-.074.011-.015.045-.013.091-.023Z" fill="#fff"/>
              <path d="M94.701,105.93c-.004.041.001.072-.011.084-.013.012-.052.015-.064.004-.012-.011-.015-.049-.005-.064.009-.014.041-.013.081-.024Z" fill="#fff"/>
              <path d="M94.441,103.686c-.005.041,0,.07-.013.084-.011.012-.052.015-.06.005-.012-.016-.018-.05-.009-.066.008-.014.041-.013.082-.023Z" fill="#fff"/>
              <path d="M94.812,103.802c.006-.042.002-.073.015-.084.014-.012.044-.006.068-.008,0,.023.011.053,0,.068-.01.014-.041.013-.083.024Z" fill="#fff"/>
              <path d="M93.26,106.357c-.004.033,0,.064-.011.071-.016.01-.044.004-.066.004,0-.023-.006-.05.005-.067.007-.011.039-.006.073-.009Z" fill="#fff"/>
              <path d="M92.343,105.868c.035.007.066.005.074.017.01.016,0,.044,0,.067-.021-.002-.049.003-.061-.009-.012-.012-.008-.04-.013-.075Z" fill="#fff"/>
              <path d="M94.445,104.526c-.033-.003-.06.003-.068-.007-.011-.014-.008-.04-.011-.061.021,0,.046-.007.062.003.011.006.01.034.018.066Z" fill="#fff"/>
              <path d="M94.01,104.784c-.032-.003-.055,0-.068-.009-.008-.006-.009-.043-.002-.047.015-.009.04-.011.055-.004.009.004.008.031.015.06Z" fill="#fff"/>
            </g>
          </g>
        </g>
      </g>
    </g>
  </g>
</svg>