<?xml version="1.0" encoding="UTF-8"?>
<svg id="e" data-name="Calque 22" xmlns="http://www.w3.org/2000/svg" width="300" height="300" xmlns:xlink="http://www.w3.org/1999/xlink" viewBox="0 0 300 300">
  <defs>
    <clipPath id="f">
      <path d="M125.734,275.03c-.741.593-1.333,1.067-2.051,1.642-.003-.06.007.158.018.409-3.311-.326-3.442-2.473-.096-3,1.312-.479,1.342-1.803,1.867-3.211-1.51.581-2.531.494-3.954.733.26.911.924.884,1.499,1.497-.499.53-1.208.617-1.837.532-.168-1.063-1.06-2.588.127-3.377,1.121-.466-.189-1.754-.583-2.093-.598.289-1.153,1.002-.642,1.661.318.485.525.898-.122,1.375-1.233,3.407-3.135-.482-5.031-1.131.044-.195.135-.592.26-1.141-1.801,1.084-.935-3.308-3.029-.848-1.681-1.089-2.229-5.036-4.419-4.514-.202.126-.746-.089-.893-.335-.817-2.687-3.309-3.84-4.184-6.318-.669-1.573-2.043-2.469-3.219-3.583-.108-.158-.768-.112-.892.061-.992,1.247-3.042.131-3.146-1.348-.315-.588-1.521-1.174-1.438-2.067-1.027-1.183.047-1.109.784-1.717-.739-.308-.9-.925-.89-1.801.19-.838-1.722-2.235-.405-2.679,1.509-.292.321-1.222.308-2.31-1.034,1.485-2.097,2.368-3.811,2.142-.777.636-1.253.21-1.77-.273-1.333-1.468-3.339.485-4.529,1.454.107-3.912-4.856.946-6.778,1.239-.045-1.345-1.597-2.403-2.624-1.074-2.329-.628-3.076-4.106-4.842-5.803-.364-1.596-2.483-1.193-2.581-2.721-.177-1.694-2.38-1.944-2.363-3.817-1.492-.611-1.158-2.643-2.232-3.576-1.845-2.378-6.721-5.347-5.948-8.42.928-.956.003-1.242-.626-1.83-.484-1.052-1.042-.044-1.84-.245,1.953-2.146-1.515-2.426,1.362-6.213.32-.933-.879-.673-1.15-.106-.717,1.285-1.74,1.109-2.731.977-.529-.57-.058-2.002-1.377-1.729-.089-.38-.179-.76-.273-1.159-1.286.315-2.003,1.665-.538,2.298-1.368,1.306-3.721,4.69-5.019,1.755-1.542.359-1.388-2.325-3.102-.98-.082-.727-.149-1.318-.224-1.985-.186.123-.421.28-.657.436-.369-.772-.397-1.866-1.608-1.688-.131-.995-.261-1.978-.41-3.104-.283.417-.477.703-.592.871-1.801-.411-2.175-2.31-3.132-3.67-.099.014-.197.028-.296.042-.066.349-.133.698-.199,1.047-.104-.005-.208-.01-.311-.014.283-3.53-2.961-4.596-3.984-7.565.279-1.048.309-1.48-.32-2.329-.399.431-.764.826-1.265,1.366-.808-.598-.4-2.081-1.606-1.764-.344-1.412-.025-2.444.907-3.394-1.015-1.136,1.614-3.622-.441-3.794-.113.486-.22.945-.327,1.404h-.223c.03-1.157.059-2.312.094-3.666,2.517,1.221,2.369-2.34,2.597-4.108-1.003.742-1.702,2.09-2.924,1.086.182.312.363.624.634,1.089-.538.137-1.005.257-1.318.337-.356-1.985.488-3.267,1.782-4.687.131.089.304.207.409.278,3.015-4.831,6.034-10.234,10.393-14.369-1.139-.931-1.726-2.852-.221-3.711.685.055,1.413.35,1.77.081.654-.814,1.178-1.918-.339-2.446-.005-1.425,1.887-2.993.534-4.246-.788-.884-.512-2.74-2.033-2.844-1.595-.482-2.438.965-3.803,1.398-1.328-.248-1.592,1.064-2.279,1.946-.805-.459-1.798-.592-2.333-1.268-.364-1.485-1.477-1.032-2.67-1.296.29-.308.531-.564.785-.833-1.667-.469-1.291,1.231-.713,2.052-.361.299-.684.567-1.205,1-.149-1.038.75-2.364-.503-2.805-2.076-.021-2.162-3.924-4.274-2.441.014-.329.028-.648.042-.971-1.159-.021-1.19-1.015-1.799-1.726-2.378-1.958-1.679-1.306-2.375-4.138-.209.14-.404.271-.656.439-.668-1.022-1.618-1.175-1.918-2.668-1.37-2.995-5.533-3.171-7.325-5.59-.607.088-1.079.156-1.66.24,1.437-2.13.179-3.451.305-5.503.835-2.056,1.668-4.106,2.498-6.15l.37.032c-.089,1.029-.177,2.06-.286,3.327.845-.955.554-1.929.999-2.817.189.125.346.228.504.332.069-.035.139-.07.208-.105.027-1.576-1.923-.98-.633-2.566,8.419-15.882,14.976-32.586,24.003-48.087.47-.897.765-1.669,1.705-.592,1.806.579,1.881-2.448,3.693-2.29.446-.027.773-1.322.458-1.969-.076.333-.128.566-.196.864-1.032.026-2.033.051-3.053.076.302-2.138,2.696-2.247,4.251-1.592,1.748-2.593,2.4-6.48,5.964-7.073-.144-.178-.275-.339-.557-.688,2.612-.619,4.741,2.64,6.908,1.969.457-.406.77-.31.847.32-.224.082-.445.164-.742.273,4.411,1.585,8.919,5.449,12.96,6.245.948,2.511,2.466-.612,3.56-1.557.54-.867,1.443-.077,2.095-.63,9.294-9.421,17.578-20.335,27.792-28.135.568-.01,1.653.241,2.015.851,1.912,1.325,2.562-3.953,7.086,1.194.688,1.192,2.514-.487,2.804,1.083.29,1.184,1.748,1.127,2.282,2.146,1.849,1.121,34.826-19.563,38.186-21.421,1.672.364-.197,1.312.718,2.25.522.148.997-.72,1.388-.929,1.737-.344-.026,1.997,1.27,2.312.748.187.858,1.976,1.736.998.187.377.436.68.485,1.019.123.905,1.551.839,1.748.115.117-.964-.651-2.45.96-2.216.72.045.43,1.137.986,1.424-.262.419-.463.74-.663,1.06.451.129.902.257,1.487.424-.474,1.162-.426,1.351.726,1.827.242,1.047,1.272,1.525,2.04,2.119.882.731,1.71,2.125,3.118,2.044-.383,1.447,1.474.565,2.196,1.002-1.076,1.014-.963,1.347.141,2.005-.027.067-.054.134-.081.201-.49-.054-.979-.107-1.657-.181.279.76,1.197.645.77,1.534-.071.76,1.265.951,1.902.438-.171.329-.274.526-.415.796.591-.041.214,1.055.998.734.437-.179.789-.569,1.143-.99-1.121.681-1.39-.411-.415-.992,1.411.033,2.131-.899,2.932-1.818,1.209-1.371,2.245-2.181,4.04-1.376.434.379.82.766,1.407.087,1.06.961,2.079,1.886,3.1,2.812.083-.07.167-.139.25-.209-.208-.345-.416-.689-.73-1.211,1.99,1.345,4.061-1.08,5.55.412.248,1.69,1.189,2.587,2.441,3.586,1.114.999,32.886-7.103,30.649,8.601-.014.101.196.061.293.092,1.138-2.233,4.677-2.738,4.681.41-.101.926.76.577,1.338.516.615-.146.839.109.841.687-.086,2.042,4.672.537,4.111,3.359,2.223-.48,1.282,2.314,2.963,2.498.627-.005,1.253.385,1.903.607-.234.505-.451.972-.705,1.521,5.2,1.026,1.139.806,3.622,3.045,4.559,2.38.155,6.468-.436,10.066.092.043.184.085.276.128-.192.122-.383.243-.628.399.061.161.13.342.202.531-1.501.031-.714,1.327-1.442,2.228-.362.497-.543.842.08,1.267.755.882.635,2.355.945,3.427-.075-.062-.239-.195-.28-.229-.682,1.501.085,3.111-1.871,3.625-.213.788-.291,1.701-1.23,2.162-.326-.347-.604-.643-.882-.94-.142-.009-.283-.018-.425-.026.299,2.208-.892,3.588-1.874,5.454,1.285,1.017,3.107.838,4.039,1.937.14.21.274.638.378.627,1.489-.085,1.789,1.368,2.772,2.069.667-.689,1.293-1.335,1.935-1.999.269.194.482.348.696.502.054-.032.109-.064.163-.095l-.442-.961c1.625-3.295,1.763.689,2.916-1.233.492.203-.218,1.217.711.962.133-.037.12-.615.202-1.111,1.19-.01,1.485,1.608,2.889.394.074.804.038,1.19.219,1.827,1.748-.879,3.46-2.278,5.079-3.7,1.063-1.382,1.988-1.989,3.614-.781-.493.149-.775.234-1.058.319-.006.07-.012.14-.017.21.391.071.783.141,1.238.223.036-.189.066-.347.105-.55,1.785.234.024,1.278,1.114,1.87.139-.213.266-.407.308-.472,1.935.382,1.063-1.711,1.019-2.864l.212-.011c1.338,1.143,1.049,3.541,2.449,4.253.495.043.859.148,1.206.52,1.493.854.756-1.593,1.506-1.967.855-.066,1.329.782,1.79,1.468-.678,2.03,2.314,2.958,3.443,4.321-1.605-.431-2.416-.085-.836,1.502.238-.364.375-.574.617-.943.372.683.522,1.184,1.109,1.595.339-.626.058-1.09-.143-1.698.704.204,1.321.413.898,1.349.359,2.24,4.451-.832,3.509,2.267.931-.317,3.167.324,1.855,1.443-.136.099-.143.63-.007.787.174.202.65.395.823.295.897-.546,1.331.637,1.945,1.074,1.116,1.947-1.178,3.991-1.014,5.754,1.244.549-.377,2.098-1.107.916-.32.431-.507.794.2.897,1.671,1.889-2.57,6.732-3.83,8.984.378-.112.612-.181.943-.279.164.643,1.045,1.773-.014,2.068-.773.577-.276,1.618-.242,2.601.299.015,1.211-.433,1.456-.4.618.536,1.16.27,1.697-.056.58-.352.722-.056.809.482.826,2.461,1.212,4.967,2.143,7.316.305,1.342.733,3.529,2.247,3.86.368,1.008,1.953,1.093,1.678,2.609,2.692-.288,2.193,3.256,2.235,4.957,3.032,1.475-1.981,5.13-2.148,7.335-1.419,1.094-1.787,3.351-2.869,4.004-.572.346.131,1.857-.977,1.718-.827.874-1.269,2.037-2.143,3.319,3.48.435,6.681.836,9.874,1.235.03,1.734.916.378,1.802,1.322-.481.334-.828.574-1.152.799,1.191,1.258,2.021,3.952.014,4.698-1.256-.436-.77.518-.85,1.163.562-.185,1.034-.341,1.575-.52,1.006,1.213-1.867,1.987-.452,3.441.003,5.901-9.63,6.837-2.257,13.685-.625.969.831,1.641.358,2.59-.897,1.293-.582,2.598,1.06,2.881.032-.124.099-.384.17-.659,1.049.642,2.563,4.245,2.424,5.647.21-.033.476-.075.743-.117-.011.1-.022.2-.033.3-.19.205-.379.41-.569.615.023.095.045.19.068.286.407-.07.815-.14,1.372-.236-.627.71-.25,2.235-1.233,2.311-.151-.009-.313.301-.47.465.731.634,1.574-.011,2.389-.171.041.068.081.136.122.204-3.247,4.346-9.404,6.734-11.27,11.912-.136,1.64-.427.846-1.522,1.125.529.318,1.477.912.642,1.435-.793.466.062,1.215-.266,1.951-.09.003-.18.007-.27.01-.126-.204-.251-.409-.534-.869-2.864,10.297-15.289,11.162-22.758,16.857-4.9,4.177-9.823,8.593-15.297,11.906-1.073,1.749-5.028,5.07-6.363,2.256.242-.106.475-.207.948-.414-.539-.337-.893-.559-1.394-.873.151,1.159-1.01,3.326-.638,1.144-1.254-.603-.149-2.05-.802-3.317-.417.921-.734,1.621-1.052,2.323-1.478-.758-.153-3.779-1.888-3.982-.699,1.066-1.2.621-1.674-.319-.311.562-.559,1.01-.828,1.497-3.384-3.564-10.182,6.958-13.878,6.339-2.009.193-3.595,3.899-5.74,2.949-9.291-2.302-28.94,24.196-34.407,19.583.288-.124.553-.239,1.065-.459-.508-.37-.851-.62-1.256-.914-1.303,2.556-1.406-.686-1.294-1.877-.102-.032-.204-.064-.306-.096-.38.679-.761,1.359-1.135,2.028-1.683-.225.058-4.974-1.846-3.987-.934,1.361-.95.072-1.72-.331-.186.45-.36.871-.525,1.269-2.154-1.784-4.569.897-7.077.346-.848.396-2.802,1.248-2.527-.622.738-.784,1.537-4.112-.382-3.227-.716-1.139-.634-1.461.4-1.699-.132-1.493-.527-2.061-1.628-.74.178-2.479-1.805-3.517-1.184-5.729.163-.556-.442-1.475-.274-2.042.8-1.535-.341-2.219-.933-3.124-1.999-.766-2.704-2.284-3.635-4.225-.684.539-1.391,1.096-2.158,1.701.029-.297.052-.535.078-.803-2.212.477-.895,2.112-2.398,3.567-.493-2.142,1.319-3.614,1.212-5.707-7.779,9.223-14.82,21.19-22.752,29.105ZM286.41,165.758c.89.945-.186,1.423.899,1.879.253-.889,1.529-1.348.64-2.563l-.648.324-.428-.203c.23-.28.46-.56.687-.837-1.451-1.702-1.245.337-1.151,1.401ZM29.299,185.315c-.457.623-.915,1.247-1.372,1.869.431.24.923.515,1.42.792,1.01-1.058,1.006-1.884-.048-2.661ZM287.197,173.911c-.23-.098-.46-.196-.69-.294.356-.514.711-1.028,1.031-1.489-.259-.177-.57-.389-.878-.6q-.581.499.019,1.094c-.293.197-.584.393-.875.589-.009.126-.019.252-.028.378.474.108.947.215,1.421.323ZM285.173,162.529c-.331.645-.577,1.125-.926,1.804,1.1-.288,2.395-1.192.926-1.804ZM233.991,86.574c-.073.024-.145.048-.218.072-.092.66-.185,1.32-.287,2.045l.935-.431c-.141-.554-.286-1.12-.431-1.687ZM180.99,39.386c-.879.525-.898.826-.108,1.483.037-.511.068-.942.108-1.483ZM34.961,76.025c.672.16,1.064.179,1.102-.507-.443-.565-.712.019-1.102.507ZM27.622,192.878c-.486.973-.395,1.163.492,1.288-.184-.482-.338-.885-.492-1.288ZM286.011,170.216c.16.013.319.025.479.038.006-.425.013-.851.019-1.276-.124-.01-.249-.02-.373-.03-.042.422-.083.845-.125,1.268ZM73.558,242.867c-.034.401-.068.802-.112,1.326.962-.516.87-.927.112-1.326Z" fill="none"/>
    </clipPath>
    <filter id="g" data-name="drop-shadow-1" x="98.754" y="31.814" width="166.768" height="58.324" filterUnits="userSpaceOnUse">
      <feOffset dx="-2" dy="0"/>
      <feGaussianBlur result="h" stdDeviation="0"/>
      <feFlood flood-color="#42496f" flood-opacity="1"/>
      <feComposite in2="h" operator="in"/>
      <feComposite in="SourceGraphic"/>
    </filter>
    <clipPath id="i">
      <path d="M253.239,62.8v-27.961l-151.933-3.024,1.932,23.147c-1.34.761-2.301,2.08-2.46,3.672-.268,2.684,1.817,5.089,4.656,5.373,1.373.137,2.665-.255,3.67-.992.904.935,2.058,1.564,3.373,1.695,2.12.212,4.102-.896,5.358-2.726,3.342,2.305,9.002,4.16,15.559,4.814,6.953.694,13.182-.134,16.852-1.944,2.591,2.533,6.491,4.358,10.997,4.807,4.353.434,8.408-.498,11.421-2.337,2.462,2.325,6.17,4.009,10.451,4.436,3.925.392,7.589-.345,10.386-1.851,1.457,1.948,3.45,3.232,5.741,3.46,2.623.262,5.135-.909,7.072-3.008,1.121,2.311,3.737,4.086,6.943,4.406,3.555.355,6.756-1.188,8.135-3.645,3.232,2.991,9.362,5.392,16.585,6.113,11.007,1.099,20.34-2.11,20.845-7.166.261-2.619-1.911-5.216-5.583-7.268Z" fill="none"/>
    </clipPath>
    <filter id="j" data-name="drop-shadow-2" x="94.79" y="55.879" width="88.349" height="41.51" filterUnits="userSpaceOnUse">
      <feOffset dx="-2" dy="0"/>
      <feGaussianBlur result="k" stdDeviation="0"/>
      <feFlood flood-color="#42496f" flood-opacity="1"/>
      <feComposite in2="k" operator="in"/>
      <feComposite in="SourceGraphic"/>
    </filter>
    <clipPath id="l">
      <polygon points="183.138 57.361 139.134 77.175 103.872 74.372 154.429 55.879 183.138 57.361" fill="none"/>
    </clipPath>
    <clipPath id="m">
      <path d="M144.069,85.096v-16.319h-7.786v-1.416h-24.206v-.991h-15.288v18.261h2.706c-.003.072-.017.14-.017.212,0,2.384,1.521,4.317,3.397,4.317,1.085,0,2.039-.658,2.661-1.663,1.057.849,2.449,1.38,3.992,1.38,2.841,0,5.209-1.758,5.797-4.105h12.746v2.134c-1.13.837-1.84,2.01-1.84,3.316,0,2.541,2.662,4.601,5.945,4.601,2.004,0,3.768-.773,4.845-1.948.884.85,2.028,1.382,3.295,1.382,2.775,0,5.025-2.472,5.025-5.521,0-1.402-.491-2.667-1.274-3.64Z" fill="none"/>
    </clipPath>
  </defs>
  <g clip-path="url(#f)">
    <g>
      <g filter="url(#g)">
        <g clip-path="url(#i)">
          <g>
            <polygon points="265.522 50.423 139.064 46.168 114.148 51.627 248.274 59.046 265.522 50.423" fill="#b1ddea"/>
            <polygon points="265.522 50.423 139.064 46.168 114.148 51.627 248.274 59.046 265.522 50.423" fill="#fff" opacity=".5"/>
            <polygon points="248.274 90.138 113.308 90.138 114.148 51.627 248.274 59.046 248.274 90.138" fill="#b1ddea"/>
            <g>
              <circle cx="195.057" cy="65.456" r="3.246" fill="none" stroke="#336a9b" stroke-miterlimit="10" stroke-width=".75"/>
              <circle cx="195.057" cy="61.649" r=".882" fill="none" stroke="#336a9b" stroke-miterlimit="10"/>
            </g>
            <g>
              <circle cx="231.12" cy="66.807" r="3.246" fill="none" stroke="#336a9b" stroke-miterlimit="10" stroke-width=".75"/>
              <circle cx="231.12" cy="63" r=".882" fill="none" stroke="#336a9b" stroke-miterlimit="10"/>
            </g>
            <g>
              <circle cx="135.672" cy="60.302" r="3.246" fill="none" stroke="#336a9b" stroke-miterlimit="10" stroke-width=".75"/>
              <circle cx="135.672" cy="56.494" r=".882" fill="none" stroke="#336a9b" stroke-miterlimit="10"/>
            </g>
            <g>
              <path d="M135.494,50.623s.302.652-3.385.652-3.686-.652-3.686-.652v-5.843h6.612l.459,5.843Z" fill="#e86170"/>
              <path d="M128.423,44.78s1.347,1.784,6.743,1.672l-.131-1.672h-6.612Z" fill="#42496f"/>
              <path d="M137.854,44.78c0,.73-2.281.728-5.094.728-5.094,0-5.094-.592-5.094-1.322s.633-1.322,3.447-1.322,6.742,1.186,6.742,1.917Z" fill="#e86170"/>
            </g>
            <g>
              <path d="M217.6,54.515s.378.818-4.246.818-4.625-.818-4.625-.818v-7.33h8.296l.576,7.33Z" fill="#e86170"/>
              <path d="M208.729,47.185s1.69,2.238,8.46,2.097l-.165-2.097h-8.296Z" fill="#42496f"/>
              <path d="M220.561,47.185c0,.916-2.861.913-6.391.913-6.391,0-6.391-.743-6.391-1.659s.795-1.659,4.324-1.659,8.458,1.488,8.458,2.405Z" fill="#e86170"/>
            </g>
          </g>
        </g>
      </g>
      <g>
        <g>
          <path d="M215.219,71.516c-.035.175-.213.231-.317.192-.124-.046-.195-.176-.158-.299.039-.13.174-.202.305-.163.021.006.041.016.062.023.177.058.184.074.108.248Z" fill="#fff"/>
          <path d="M212.432,68.89c.112.044.167.169.126.283-.044.12-.172.177-.288.128-.109-.046-.164-.175-.12-.286.043-.111.173-.168.283-.124Z" fill="#fff"/>
          <path d="M212.458,71.528c.094.037.124.12.084.228-.039.104-.151.156-.25.116-.096-.039-.142-.148-.102-.246.042-.103.153-.144.268-.098Z" fill="#fff"/>
          <path d="M212.813,72.844c-.096-.041-.138-.144-.098-.237.04-.092.147-.133.241-.093.101.043.15.151.11.243-.04.093-.15.131-.252.087Z" fill="#fff"/>
          <path d="M214.09,70.503c.093.037.141.144.106.237-.036.094-.142.14-.237.103-.096-.038-.141-.141-.104-.236.037-.096.14-.141.235-.103Z" fill="#fff"/>
          <path d="M215.133,73.225c.088.038.127.144.085.233-.039.084-.138.122-.224.087-.091-.037-.132-.138-.092-.229.039-.089.141-.13.231-.091Z" fill="#fff"/>
          <path d="M211.302,69.305c.038-.087.133-.124.222-.088.092.038.132.139.091.229-.039.086-.136.124-.222.089-.091-.038-.131-.138-.09-.23Z" fill="#fff"/>
          <path d="M214.078,73.292c-.082-.036-.119-.125-.084-.201.037-.078.138-.116.216-.083.08.035.114.121.08.202-.036.084-.126.118-.212.081Z" fill="#fff"/>
          <path d="M213.109,68.369c.024.01.049.017.07.03.067.039.089.098.052.167-.038.07-.101.08-.169.047-.036-.018-.066-.047-.101-.065-.065-.034-.095-.084-.062-.152.033-.07.093-.074.158-.045.017.008.034.014.05.021v-.003Z" fill="#fff"/>
          <path d="M211.356,72.178c-.081-.031-.123-.121-.093-.197.031-.077.133-.119.213-.087.075.03.115.128.083.202-.033.076-.123.112-.203.081Z" fill="#fff"/>
          <path d="M215.813,69.089c.034-.089.111-.133.189-.106.074.025.114.115.086.191-.028.077-.178.142-.253.11-.059-.025-.065-.082-.023-.195Z" fill="#fff"/>
          <path d="M216.156,70.247c-.078-.035-.113-.128-.073-.205.042-.081.11-.107.195-.076.082.03.116.12.081.201-.035.08-.124.115-.203.08Z" fill="#fff"/>
          <path d="M214.841,68.141c.074.035.108.132.072.209-.036.078-.118.108-.194.072-.077-.037-.111-.13-.075-.206.034-.072.127-.107.197-.074Z" fill="#fff"/>
          <path d="M213.143,69.533c.031-.074.12-.112.193-.083.077.03.114.125.078.203-.034.074-.122.108-.195.076-.072-.032-.107-.122-.076-.196Z" fill="#fff"/>
          <path d="M214.983,70.233c-.036.061-.094.09-.171.06-.071-.027-.108-.118-.075-.184.037-.072.1-.096.176-.069.07.025.104.115.07.193Z" fill="#fff"/>
          <path d="M211.623,70.363c-.057.014-.118.048-.17.037-.078-.016-.096-.089-.069-.16.028-.073.097-.107.161-.07.045.026.066.095.098.144l-.02.049Z" fill="#fff"/>
          <path d="M213.435,71.58c.086-.029.136-.059.184-.055.019.002.052.086.042.123-.018.065-.079.089-.141.051-.028-.017-.041-.056-.084-.118Z" fill="#fff"/>
          <path d="M212.018,71.357c-.015-.075-.042-.126-.026-.154.016-.03.072-.037.111-.054.016.039.051.084.042.116-.009.031-.064.049-.127.092Z" fill="#fff"/>
          <path d="M212.429,70.11c.014.069.039.116.025.142-.014.028-.066.036-.101.052-.017-.038-.05-.08-.044-.114.004-.026.06-.042.12-.08Z" fill="#fff"/>
          <path d="M212.796,67.784c.015.074.04.123.025.147-.017.027-.072.046-.106.039-.02-.004-.047-.069-.038-.095.011-.03.058-.047.119-.091Z" fill="#fff"/>
          <path d="M213.666,69.34c.071-.012.119-.036.143-.021.027.016.032.068.046.104-.037.014-.078.046-.108.038-.027-.008-.042-.059-.081-.121Z" fill="#fff"/>
          <path d="M214.386,69.466c.063-.015.105-.039.128-.027.024.013.048.068.039.092-.009.024-.064.048-.091.041-.025-.006-.041-.053-.077-.106Z" fill="#fff"/>
          <path d="M211.235,71.016c.063-.014.104-.035.13-.024.023.01.049.069.039.085-.017.027-.064.053-.093.048-.024-.004-.04-.054-.076-.109Z" fill="#fff"/>
          <path d="M211.212,70.411c-.065.013-.108.036-.131.022-.025-.014-.032-.062-.047-.095.034-.013.072-.043.1-.036.026.007.041.054.078.108Z" fill="#fff"/>
          <path d="M215.762,71.354c.051-.011.094-.033.11-.021.024.018.028.062.041.095-.034.011-.071.035-.1.028-.02-.005-.029-.054-.051-.102Z" fill="#fff"/>
          <path d="M215.523,72.952c-.008-.055-.028-.1-.013-.117.019-.023.064-.024.098-.035.008.032.03.07.019.094-.011.024-.054.032-.103.058Z" fill="#fff"/>
          <path d="M212.463,70.572c.013.049.036.087.025.104-.015.024-.055.033-.084.048-.011-.031-.033-.064-.028-.092.004-.02.045-.033.087-.06Z" fill="#fff"/>
          <path d="M213.068,71.075c.012.048.029.08.023.105-.004.015-.058.035-.068.027-.02-.017-.037-.052-.034-.078.001-.016.04-.028.08-.053Z" fill="#fff"/>
        </g>
        <g>
          <path d="M220.157,71.851c-.044.104-.161.115-.221.078-.071-.044-.098-.134-.059-.206.041-.075.134-.103.21-.062.012.007.023.015.035.022.102.058.104.07.035.167Z" fill="#fff"/>
          <path d="M218.769,69.867c.064.042.082.126.041.191-.043.068-.129.087-.195.042-.062-.043-.079-.129-.038-.193.041-.063.128-.082.191-.041Z" fill="#fff"/>
          <path d="M218.446,71.503c.053.035.061.09.023.152-.037.059-.113.077-.17.04-.055-.036-.069-.11-.031-.166.039-.058.113-.069.178-.026Z" fill="#fff"/>
          <path d="M218.497,72.364c-.054-.037-.067-.107-.03-.159.037-.052.108-.064.161-.027.057.04.074.113.037.165-.037.052-.11.062-.168.021Z" fill="#fff"/>
          <path d="M219.588,71.078c.053.035.069.107.035.16-.034.054-.106.069-.16.033-.054-.036-.069-.105-.034-.16.035-.055.105-.07.159-.034Z" fill="#fff"/>
          <path d="M219.884,72.898c.049.035.06.106.023.155-.035.047-.101.058-.15.025-.052-.035-.064-.102-.028-.154.035-.05.104-.062.155-.027Z" fill="#fff"/>
          <path d="M218.016,69.979c.035-.049.099-.06.148-.026.052.035.064.103.027.154-.035.048-.1.06-.149.026-.052-.035-.063-.102-.026-.154Z" fill="#fff"/>
          <path d="M219.223,72.804c-.046-.033-.058-.093-.026-.135.033-.043.1-.054.144-.023.045.032.055.09.023.135-.033.047-.094.057-.141.023Z" fill="#fff"/>
          <path d="M219.256,69.631c.013.009.028.017.04.028.037.033.043.072.011.11-.032.039-.073.037-.111.007-.02-.015-.035-.037-.054-.053-.036-.03-.048-.064-.019-.102.03-.039.067-.034.104-.007.009.007.019.013.029.02v-.002Z" fill="#fff"/>
          <path d="M217.68,71.765c-.046-.03-.061-.091-.032-.134.029-.044.098-.056.143-.026.043.028.055.094.025.136-.03.043-.09.054-.136.024Z" fill="#fff"/>
          <path d="M220.837,70.424c.032-.051.086-.068.131-.041.042.025.056.086.029.129-.027.044-.129.065-.171.036-.033-.023-.03-.059.011-.124Z" fill="#fff"/>
          <path d="M220.901,71.186c-.044-.032-.053-.094-.019-.136.036-.045.082-.052.13-.022.047.029.056.089.024.135-.032.045-.092.055-.136.023Z" fill="#fff"/>
          <path d="M220.357,69.712c.041.031.05.096.018.138-.033.044-.087.052-.13.019-.043-.033-.052-.095-.02-.137.03-.04.092-.05.132-.021Z" fill="#fff"/>
          <path d="M219.127,70.356c.028-.042.088-.054.13-.027.044.028.054.092.022.136-.03.041-.09.051-.131.022-.04-.029-.051-.089-.022-.131Z" fill="#fff"/>
          <path d="M220.176,71.026c-.03.033-.069.043-.114.015-.04-.026-.052-.087-.023-.123.032-.04.074-.047.118-.02.04.024.05.085.018.128Z" fill="#fff"/>
          <path d="M218.079,70.675c-.037.001-.079.014-.11.001-.046-.02-.048-.068-.022-.108.027-.041.074-.054.109-.023.025.022.029.067.042.102l-.019.028Z" fill="#fff"/>
          <path d="M219.044,71.661c.057-.007.092-.019.121-.011.011.003.021.06.01.081-.019.038-.06.045-.094.013-.015-.014-.018-.04-.037-.084Z" fill="#fff"/>
          <path d="M218.196,71.341c0-.048-.01-.083.004-.099.014-.016.05-.014.076-.019.005.026.021.059.011.077-.009.018-.046.022-.09.04Z" fill="#fff"/>
          <path d="M218.611,70.622c0,.045.009.077-.003.091-.013.015-.045.014-.069.019-.005-.026-.021-.056-.013-.076.006-.015.043-.019.085-.034Z" fill="#fff"/>
          <path d="M219.137,69.228c0,.048.009.081-.003.094-.014.014-.051.019-.071.011-.012-.005-.02-.049-.011-.064.01-.017.042-.022.085-.041Z" fill="#fff"/>
          <path d="M219.476,70.304c.046.002.078-.007.091.006.014.013.011.046.015.07-.024.004-.054.019-.072.009-.016-.008-.019-.042-.035-.085Z" fill="#fff"/>
          <path d="M219.905,70.474c.041-.001.07-.011.083,0,.013.011.021.048.013.062-.009.013-.046.021-.062.014-.015-.007-.018-.038-.034-.075Z" fill="#fff"/>
          <path d="M217.755,71.029c.041,0,.069-.009.083.002.013.009.021.049.013.057-.014.014-.046.025-.063.018-.014-.006-.018-.038-.033-.077Z" fill="#fff"/>
          <path d="M217.818,70.652c-.042,0-.071.008-.084-.003-.014-.012-.012-.042-.017-.065.023-.004.05-.018.066-.009.015.008.019.039.035.077Z" fill="#fff"/>
          <path d="M220.515,71.82c.033,0,.062-.009.071.001.012.014.01.042.013.064-.022.002-.048.012-.066.004-.012-.005-.011-.037-.018-.07Z" fill="#fff"/>
          <path d="M220.162,72.779c.002-.035-.004-.065.007-.074.015-.012.043-.007.065-.009,0,.021.009.047,0,.061-.01.013-.038.013-.071.022Z" fill="#fff"/>
          <path d="M218.572,70.912c.002.032.011.058.002.067-.013.013-.038.013-.058.019-.003-.02-.013-.044-.006-.06.005-.012.032-.014.062-.026Z" fill="#fff"/>
          <path d="M218.882,71.301c.001.031.008.053,0,.068-.005.009-.04.014-.045.008-.01-.013-.016-.037-.011-.053.003-.01.029-.012.056-.023Z" fill="#fff"/>
        </g>
        <g>
          <path d="M226.602,73.278c.018.168-.127.269-.231.264-.125-.006-.227-.104-.228-.225-.001-.128.1-.232.229-.234.021,0,.042.003.062.003.176.002.187.015.168.193Z" fill="#fff"/>
          <path d="M223.34,71.699c.113.008.199.105.194.219-.006.121-.105.208-.224.197-.112-.01-.197-.111-.19-.224.008-.112.108-.2.22-.193Z" fill="#fff"/>
          <path d="M224.113,74.073c.095.007.146.073.14.182-.005.105-.092.184-.192.176-.098-.007-.17-.093-.162-.194.009-.105.098-.173.214-.165Z" fill="#fff"/>
          <path d="M224.808,75.161c-.098-.01-.166-.091-.156-.186.01-.094.095-.162.191-.153.104.01.179.094.168.188-.01.095-.098.161-.203.15Z" fill="#fff"/>
          <path d="M225.295,72.684c.095.007.168.09.163.184-.006.095-.089.167-.184.16-.097-.007-.167-.087-.161-.184.006-.097.086-.167.183-.16Z" fill="#fff"/>
          <path d="M227.01,74.846c.09.01.155.094.143.186-.012.087-.089.15-.177.142-.093-.008-.158-.087-.148-.181.009-.092.091-.158.182-.148Z" fill="#fff"/>
          <path d="M222.438,72.395c.01-.089.085-.15.175-.142.094.008.158.088.147.181-.011.088-.087.151-.175.143-.093-.008-.157-.088-.147-.182Z" fill="#fff"/>
          <path d="M226.077,75.205c-.084-.009-.143-.079-.133-.157.011-.081.091-.144.171-.136.082.009.138.077.129.16-.008.086-.081.143-.168.133Z" fill="#fff"/>
          <path d="M223.804,71.036c.024.002.049.002.072.007.072.016.108.063.094.136-.014.074-.068.101-.139.09-.037-.006-.072-.023-.11-.03-.068-.013-.109-.048-.099-.12.01-.073.063-.093.13-.085.017.002.034.003.052.005v-.003Z" fill="#fff"/>
          <path d="M223.303,74.974c-.082-.005-.145-.074-.14-.151.006-.078.086-.145.167-.139.076.006.14.083.132.159-.008.078-.079.136-.16.131Z" fill="#fff"/>
          <path d="M226.449,70.918c.005-.09.063-.151.141-.15.074.002.136.071.132.148-.004.077-.12.179-.197.171-.06-.006-.082-.055-.076-.17Z" fill="#fff"/>
          <path d="M227.088,71.866c-.08-.009-.138-.083-.124-.165.015-.085.069-.128.154-.124.082.004.139.076.13.159-.009.082-.079.139-.16.13Z" fill="#fff"/>
          <path d="M225.302,70.338c.077.01.135.089.124.168-.011.081-.076.131-.155.12-.08-.011-.137-.086-.126-.165.01-.075.084-.133.157-.123Z" fill="#fff"/>
          <path d="M224.165,72.078c.007-.075.076-.135.151-.13.078.005.138.081.128.161-.009.076-.08.133-.154.124-.074-.008-.131-.08-.125-.155Z" fill="#fff"/>
          <path d="M226.025,72.187c-.015.065-.059.108-.137.103-.072-.004-.131-.076-.119-.144.013-.076.063-.115.139-.113.071.002.127.075.118.154Z" fill="#fff"/>
          <path d="M223.028,73.259c-.048.029-.093.076-.143.082-.075.008-.112-.053-.107-.125.005-.073.057-.124.125-.109.048.01.086.067.129.102l-.004.05Z" fill="#fff"/>
          <path d="M225.01,73.843c.069-.05.106-.092.15-.102.017-.004.071.063.073.099.003.064-.046.103-.113.086-.03-.007-.053-.039-.11-.083Z" fill="#fff"/>
          <path d="M223.668,74.044c-.035-.063-.073-.102-.067-.131.006-.031.055-.054.085-.081.026.031.07.061.071.093,0,.03-.044.062-.089.119Z" fill="#fff"/>
          <path d="M223.685,72.801c.033.059.068.094.063.121-.005.029-.049.051-.077.076-.026-.03-.068-.058-.072-.091-.003-.024.042-.055.085-.107Z" fill="#fff"/>
          <path d="M223.355,70.597c.034.063.071.099.064.125-.007.029-.052.062-.084.066-.019.002-.062-.049-.061-.075.001-.03.039-.059.081-.116Z" fill="#fff"/>
          <path d="M224.582,71.755c.061-.031.097-.066.124-.059.029.007.048.052.071.081-.029.023-.057.064-.087.065-.027,0-.055-.042-.108-.086Z" fill="#fff"/>
          <path d="M225.268,71.664c.052-.031.084-.065.108-.061.026.005.063.048.061.072-.002.024-.044.061-.071.063-.025.001-.052-.036-.099-.074Z" fill="#fff"/>
          <path d="M222.864,73.958c.053-.03.083-.061.11-.058.023.002.064.049.059.065-.008.029-.043.066-.07.069-.023.003-.051-.037-.099-.076Z" fill="#fff"/>
          <path d="M222.671,73.419c-.055.03-.087.063-.112.057-.027-.006-.046-.047-.069-.073.027-.022.052-.059.08-.06.025-.001.052.037.102.076Z" fill="#fff"/>
          <path d="M227.047,72.978c.043-.024.075-.057.094-.05.027.01.043.048.064.074-.027.019-.054.052-.083.053-.019.001-.041-.041-.075-.077Z" fill="#fff"/>
          <path d="M227.285,74.488c-.023-.047-.053-.082-.045-.102.01-.026.051-.04.078-.059.016.027.047.055.044.08-.003.024-.04.044-.077.082Z" fill="#fff"/>
          <path d="M223.846,73.209c.026.041.057.068.052.087-.007.026-.04.045-.062.067-.018-.025-.048-.048-.052-.075-.002-.019.031-.042.061-.079Z" fill="#fff"/>
          <path d="M224.535,73.491c.024.04.049.064.05.088,0,.015-.042.048-.053.043-.023-.01-.048-.037-.053-.061-.003-.015.028-.037.057-.071Z" fill="#fff"/>
        </g>
        <g>
          <path d="M230.712,75.838c-.082.068-.186.027-.22-.03-.041-.068-.025-.156.039-.199.067-.046.157-.029.203.039.007.011.013.023.02.034.061.093.058.104-.043.156Z" fill="#fff"/>
          <path d="M230.401,73.566c.036.063.015.142-.048.179-.065.039-.147.018-.182-.049-.034-.063-.01-.143.052-.178.062-.035.144-.013.179.048Z" fill="#fff"/>
          <path d="M229.421,74.805c.03.053.013.103-.047.138-.057.034-.129.016-.16-.04-.03-.054-.01-.122.045-.153.058-.032.126-.009.162.055Z" fill="#fff"/>
          <path d="M229.092,75.552c-.029-.055-.01-.119.043-.147.053-.028.118-.007.147.047.031.058.013.127-.04.155-.054.028-.119.004-.15-.054Z" fill="#fff"/>
          <path d="M230.567,74.941c.03.052.012.12-.04.15-.052.03-.119.012-.149-.041-.03-.054-.013-.119.04-.149.053-.031.118-.013.149.04Z" fill="#fff"/>
          <path d="M230.029,76.602c.026.051.005.115-.048.141-.05.024-.11.005-.137-.043-.029-.052-.01-.114.043-.141.052-.027.115-.007.142.044Z" fill="#fff"/>
          <path d="M229.718,73.334c.05-.026.109-.008.136.042.028.052.009.114-.044.141-.05.025-.11.007-.137-.042-.028-.052-.009-.114.044-.141Z" fill="#fff"/>
          <path d="M229.513,76.236c-.025-.048-.008-.103.036-.125.046-.022.108-.002.132.043.024.046.008.099-.039.124-.048.026-.103.008-.129-.042Z" fill="#fff"/>
          <path d="M230.913,73.578c.007.013.016.026.021.04.017.044.005.079-.039.097-.044.018-.077,0-.096-.042-.01-.022-.013-.046-.022-.068-.017-.04-.013-.075.028-.094.042-.02.071,0,.09.039.005.01.01.019.016.029h.002Z" fill="#fff"/>
          <path d="M228.663,74.694c-.026-.045-.012-.102.031-.127.043-.024.107-.005.132.04.024.042.006.103-.037.125-.044.023-.099.006-.125-.038Z" fill="#fff"/>
          <path d="M231.902,74.93c.049-.029.102-.02.128.022.025.039.01.096-.032.121-.042.025-.136,0-.159-.044-.018-.034,0-.063.063-.099Z" fill="#fff"/>
          <path d="M231.626,75.599c-.023-.046-.005-.102.043-.123.05-.022.091-.009.119.038.027.045.009.1-.038.124-.046.024-.101.007-.124-.039Z" fill="#fff"/>
          <path d="M231.805,74.123c.021.044,0,.102-.045.124-.046.023-.096.006-.118-.04-.022-.046-.003-.102.043-.124.043-.021.1-.002.12.04Z" fill="#fff"/>
          <path d="M230.491,74.133c.042-.023.098-.007.121.034.025.043.006.101-.04.124-.043.022-.098.004-.12-.038-.022-.042-.004-.097.038-.12Z" fill="#fff"/>
          <path d="M231.085,75.151c-.04.015-.077.007-.102-.036-.023-.039-.006-.096.034-.114.044-.02.083-.007.108.034.023.038.005.093-.04.116Z" fill="#fff"/>
          <path d="M229.47,73.948c-.032-.015-.073-.022-.093-.047-.03-.037-.011-.078.028-.1.04-.023.085-.013.101.028.011.029-.005.069-.009.104l-.028.015Z" fill="#fff"/>
          <path d="M229.857,75.197c.051.019.086.024.106.043.008.008-.008.059-.027.073-.033.024-.07.012-.085-.029-.006-.018.002-.042.005-.087Z" fill="#fff"/>
          <path d="M229.281,74.56c.021-.041.028-.074.046-.081.019-.008.048.01.072.017-.007.024-.008.058-.024.07-.016.011-.048-.001-.094-.005Z" fill="#fff"/>
          <path d="M229.941,74.133c-.019.038-.025.069-.042.076-.017.007-.044-.008-.067-.014.007-.024.007-.056.023-.07.012-.01.044.003.086.008Z" fill="#fff"/>
          <path d="M230.987,73.187c-.021.04-.028.072-.043.078-.018.006-.051-.006-.064-.021-.008-.009.004-.05.018-.059.016-.01.045,0,.09.002Z" fill="#fff"/>
          <path d="M230.807,74.24c.038.021.069.028.075.044.006.017-.011.043-.018.066-.022-.007-.054-.008-.065-.023-.01-.014.003-.044.008-.087Z" fill="#fff"/>
          <path d="M231.095,74.569c.035.017.064.021.07.036.006.015-.003.05-.016.057-.013.008-.048-.002-.058-.015-.009-.012,0-.04.004-.078Z" fill="#fff"/>
          <path d="M229.044,74.107c.035.017.062.023.069.038.007.013-.003.051-.014.054-.018.006-.05,0-.061-.013-.01-.011.002-.04.005-.079Z" fill="#fff"/>
          <path d="M229.261,73.816c-.035-.018-.064-.024-.07-.039-.006-.016.008-.041.014-.062.021.006.05.007.06.021.009.013-.001.04-.004.08Z" fill="#fff"/>
          <path d="M231.026,75.966c.028.014.056.02.059.032.004.018-.01.039-.017.06-.02-.008-.046-.01-.057-.025-.007-.01.007-.036.015-.067Z" fill="#fff"/>
          <path d="M230.314,76.621c.017-.029.025-.057.038-.06.017-.004.039.013.059.021-.008.018-.013.044-.027.051-.014.007-.037-.005-.07-.012Z" fill="#fff"/>
          <path d="M229.783,74.361c-.012.028-.016.054-.027.058-.016.005-.038-.005-.057-.009.007-.018.008-.042.021-.053.009-.008.033.002.063.005Z" fill="#fff"/>
          <path d="M229.876,74.823c-.012.027-.016.048-.029.057-.008.006-.04-.005-.042-.013-.003-.016.003-.038.013-.049.007-.007.029.002.057.005Z" fill="#fff"/>
        </g>
      </g>
      <g>
        <g>
          <path d="M176.314,67.507c.143.162.066.374-.048.446-.135.086-.313.058-.404-.068-.096-.133-.066-.316.067-.413.021-.016.045-.028.067-.043.185-.128.206-.123.317.078Z" fill="#fff"/>
          <path d="M171.742,68.259c.124-.075.285-.037.364.087.083.13.043.295-.089.371-.125.072-.288.029-.363-.094-.075-.123-.034-.289.088-.364Z" fill="#fff"/>
          <path d="M174.298,70.171c.105-.062.207-.031.281.087.072.114.04.259-.071.326-.108.064-.246.027-.312-.083-.068-.116-.026-.253.102-.329Z" fill="#fff"/>
          <path d="M175.825,70.796c-.109.062-.24.027-.3-.08-.059-.106-.02-.239.087-.3.116-.066.256-.034.315.073.06.107.015.24-.102.307Z" fill="#fff"/>
          <path d="M174.51,67.849c.104-.063.242-.03.305.072.064.104.031.24-.075.303-.107.064-.239.032-.304-.073-.066-.106-.034-.238.073-.302Z" fill="#fff"/>
          <path d="M177.894,68.845c.101-.056.232-.016.287.089.052.099.017.222-.08.279-.103.06-.229.026-.288-.079-.058-.103-.021-.231.082-.289Z" fill="#fff"/>
          <path d="M171.312,69.652c-.055-.1-.022-.22.078-.278.104-.06.23-.025.287.081.054.1.02.222-.078.279-.103.06-.229.024-.287-.082Z" fill="#fff"/>
          <path d="M177.184,69.907c-.095.053-.208.023-.254-.067-.048-.093-.011-.218.079-.268.092-.052.2-.021.253.072.054.096.021.209-.077.263Z" fill="#fff"/>
          <path d="M171.738,67.225c.027-.015.052-.034.081-.046.087-.036.16-.014.199.073.04.088.003.156-.079.197-.043.021-.093.029-.137.049-.081.037-.15.03-.192-.052-.043-.084-.003-.143.073-.185.019-.01.038-.022.058-.033l-.002-.003Z" fill="#fff"/>
          <path d="M174.115,71.709c-.089.055-.206.029-.257-.055-.052-.086-.017-.215.073-.268.084-.05.207-.017.255.069.049.088.018.201-.071.255Z" fill="#fff"/>
          <path d="M174.416,65.153c-.061-.098-.046-.204.037-.26.078-.052.194-.026.247.057.053.083.006.276-.079.324-.067.038-.127.003-.204-.121Z" fill="#fff"/>
          <path d="M175.781,65.674c-.091.049-.205.015-.251-.081-.047-.099-.022-.184.07-.243.089-.057.201-.023.253.07.051.093.02.204-.072.254Z" fill="#fff"/>
          <path d="M172.79,65.392c.088-.046.206-.007.254.084.048.092.017.193-.074.24-.092.047-.207.011-.253-.079-.044-.086-.01-.201.073-.244Z" fill="#fff"/>
          <path d="M172.882,68.048c-.048-.084-.02-.197.061-.247.086-.052.204-.018.253.074.046.086.014.197-.07.244-.083.046-.196.013-.244-.07Z" fill="#fff"/>
          <path d="M174.906,66.791c.033.079.018.156-.068.208-.078.048-.193.018-.231-.063-.043-.089-.019-.167.062-.22.076-.05.187-.015.237.075Z" fill="#fff"/>
          <path d="M172.565,70.119c-.029.065-.041.149-.09.191-.072.063-.156.026-.204-.051-.049-.08-.031-.172.051-.207.058-.025.139.006.21.012l.032.055Z" fill="#fff"/>
          <path d="M175.066,69.27c.035-.104.043-.175.082-.217.015-.017.121.013.149.05.05.065.027.141-.055.173-.037.014-.084-.001-.176-.006Z" fill="#fff"/>
          <path d="M173.811,70.469c-.083-.041-.152-.052-.167-.088-.016-.037.017-.097.029-.147.049.014.118.013.143.045.023.031,0,.097-.005.19Z" fill="#fff"/>
          <path d="M172.913,69.158c.077.037.14.047.155.08.016.034-.014.09-.024.136-.049-.012-.113-.011-.142-.042-.021-.023.003-.089.011-.174Z" fill="#fff"/>
          <path d="M170.945,67.097c.082.04.148.052.16.084.014.036-.009.103-.04.131-.018.016-.101-.005-.12-.033-.021-.032-.003-.09,0-.181Z" fill="#fff"/>
          <path d="M173.08,67.403c.04-.077.053-.14.085-.153.035-.014.088.019.134.032-.013.046-.013.109-.043.132-.028.021-.088-.003-.176-.011Z" fill="#fff"/>
          <path d="M173.73,66.803c.032-.071.04-.13.069-.143.031-.014.101.003.117.03.016.026-.001.096-.028.118-.025.02-.081,0-.158-.004Z" fill="#fff"/>
          <path d="M172.908,70.971c.033-.071.042-.125.072-.142.026-.015.102.004.11.025.013.036.004.1-.022.124-.022.02-.081-.001-.16-.007Z" fill="#fff"/>
          <path d="M172.309,70.55c-.035.071-.045.13-.075.143-.033.014-.083-.015-.126-.025.012-.042.011-.1.039-.122.026-.02.082,0,.162.004Z" fill="#fff"/>
          <path d="M176.556,66.865c.027-.057.037-.115.061-.121.035-.009.08.018.121.03-.014.04-.019.094-.047.117-.019.015-.073-.012-.135-.026Z" fill="#fff"/>
          <path d="M177.919,68.268c-.059-.033-.116-.047-.122-.073-.008-.035.024-.079.038-.119.036.016.09.023.105.051.015.028-.009.076-.02.142Z" fill="#fff"/>
          <path d="M173.382,69.465c.057.023.11.03.118.052.012.032-.009.077-.015.116-.037-.012-.086-.015-.109-.04-.016-.018.001-.067.006-.128Z" fill="#fff"/>
          <path d="M174.31,69.252c.055.024.098.03.117.055.012.015-.009.081-.024.085-.031.007-.077-.003-.101-.024-.014-.013.002-.06.007-.116Z" fill="#fff"/>
        </g>
        <g>
          <path d="M182.404,69.108c.062.228-.115.4-.261.416-.174.02-.336-.093-.365-.261-.03-.177.086-.343.264-.374.029-.005.058-.006.087-.01.243-.037.262-.022.275.229Z" fill="#fff"/>
          <path d="M177.542,67.654c.159-.015.299.1.317.26.019.168-.099.312-.266.323-.157.011-.298-.11-.312-.267-.015-.157.105-.301.261-.316Z" fill="#fff"/>
          <path d="M179.141,70.763c.133-.011.218.069.235.22.016.146-.086.274-.227.287-.137.012-.256-.091-.267-.231-.012-.147.096-.262.259-.275Z" fill="#fff"/>
          <path d="M180.344,72.112c-.137.009-.25-.089-.257-.222-.007-.132.095-.245.229-.254.146-.009.268.09.275.223.007.134-.1.244-.247.253Z" fill="#fff"/>
          <path d="M180.464,68.579c.133-.012.253.087.266.218.013.133-.085.251-.219.263-.136.012-.251-.083-.264-.218-.014-.136.081-.251.217-.263Z" fill="#fff"/>
          <path d="M183.319,71.184c.126-.007.236.096.24.225.004.123-.09.227-.213.237-.13.01-.238-.085-.246-.216-.007-.129.09-.238.219-.245Z" fill="#fff"/>
          <path d="M176.45,68.818c-.006-.125.084-.227.21-.236.131-.01.238.086.244.217.005.125-.087.228-.211.237-.131.009-.237-.086-.243-.219Z" fill="#fff"/>
          <path d="M182.109,71.889c-.119.006-.216-.078-.218-.188-.002-.114.094-.22.206-.226.116-.007.207.075.215.192.007.12-.079.215-.202.222Z" fill="#fff"/>
          <path d="M178.034,66.634c.034-.002.068-.008.101-.006.103.006.164.063.161.167-.003.105-.072.155-.172.156-.053,0-.105-.016-.158-.017-.097-.002-.162-.042-.164-.143-.002-.103.066-.143.161-.147.024,0,.048-.003.072-.005v-.004Z" fill="#fff"/>
          <path d="M178.222,72.189c-.114.011-.217-.07-.227-.178-.01-.109.087-.22.2-.229.107-.009.212.083.218.19.006.11-.079.206-.192.217Z" fill="#fff"/>
          <path d="M181.665,65.879c-.013-.126.053-.223.161-.238.102-.014.203.068.215.175.012.107-.127.274-.234.281-.085.005-.126-.058-.143-.217Z" fill="#fff"/>
          <path d="M182.76,67.047c-.113.005-.209-.084-.208-.2.001-.121.066-.192.186-.206.115-.013.209.073.215.19.006.116-.078.21-.193.215Z" fill="#fff"/>
          <path d="M179.95,65.334c.109-.003.206.092.209.204.003.114-.076.198-.188.2-.113.002-.209-.088-.211-.2-.002-.106.087-.203.189-.205Z" fill="#fff"/>
          <path d="M178.766,67.993c-.007-.106.075-.204.179-.214.109-.01.209.081.214.194.004.107-.081.201-.186.206-.104.005-.2-.081-.207-.187Z" fill="#fff"/>
          <path d="M181.362,67.728c-.006.094-.058.162-.167.173-.1.01-.198-.075-.197-.173,0-.108.061-.173.167-.187.098-.013.192.075.197.187Z" fill="#fff"/>
          <path d="M177.459,69.88c-.059.05-.112.127-.18.145-.102.028-.166-.049-.176-.148-.01-.103.052-.184.149-.179.069.004.134.073.201.113l.006.07Z" fill="#fff"/>
          <path d="M180.329,70.245c.084-.085.126-.151.185-.175.023-.009.112.071.122.12.018.087-.041.152-.137.144-.043-.004-.082-.042-.17-.09Z" fill="#fff"/>
          <path d="M178.519,70.823c-.062-.08-.124-.124-.122-.167.002-.045.064-.087.099-.13.042.037.111.069.119.113.008.042-.046.095-.096.184Z" fill="#fff"/>
          <path d="M178.264,69.101c.058.074.115.114.114.153,0,.041-.057.082-.089.122-.042-.036-.106-.065-.12-.109-.01-.033.046-.086.094-.167Z" fill="#fff"/>
          <path d="M177.315,66.127c.061.079.121.122.117.159-.004.042-.059.097-.102.11-.025.007-.097-.054-.102-.09-.005-.042.041-.09.087-.178Z" fill="#fff"/>
          <path d="M179.271,67.453c.077-.057.12-.113.157-.11.041.003.078.061.116.096-.035.039-.065.101-.106.109-.037.007-.085-.045-.168-.095Z" fill="#fff"/>
          <path d="M180.198,67.174c.065-.055.102-.109.136-.108.037,0,.098.052.101.085.003.034-.047.094-.084.103-.034.008-.08-.039-.154-.08Z" fill="#fff"/>
          <path d="M177.388,70.884c.067-.054.102-.103.139-.106.033-.002.099.053.096.077-.004.042-.044.101-.081.112-.031.009-.079-.04-.155-.083Z" fill="#fff"/>
          <path d="M177,70.181c-.069.054-.107.106-.142.104-.039-.002-.075-.054-.112-.085.032-.036.059-.094.097-.101.035-.007.081.039.157.082Z" fill="#fff"/>
          <path d="M182.951,68.593c.054-.043.092-.095.118-.09.039.008.07.057.105.088-.034.033-.063.083-.102.092-.026.006-.066-.047-.121-.09Z" fill="#fff"/>
          <path d="M183.619,70.628c-.042-.06-.092-.102-.086-.131.009-.038.061-.067.095-.099.028.033.077.066.079.1.001.034-.045.07-.088.13Z" fill="#fff"/>
          <path d="M178.578,69.628c.045.051.094.082.091.108-.004.038-.045.071-.071.107-.031-.03-.077-.056-.088-.092-.007-.026.034-.065.067-.123Z" fill="#fff"/>
          <path d="M179.594,69.864c.043.05.082.077.089.11.004.021-.048.076-.064.072-.034-.008-.074-.04-.087-.072-.008-.019.031-.058.063-.11Z" fill="#fff"/>
        </g>
        <g>
          <path d="M188.1,71.254c.016.256-.21.398-.369.384-.189-.018-.336-.173-.33-.357.007-.194.167-.344.363-.339.031,0,.063.007.094.009.266.015.283.035.241.304Z" fill="#fff"/>
          <path d="M183.264,68.638c.171.02.294.172.278.346-.017.182-.174.309-.353.284-.169-.023-.292-.182-.272-.353.019-.17.178-.296.347-.277Z" fill="#fff"/>
          <path d="M184.274,72.288c.144.017.216.121.2.286-.015.158-.151.272-.304.254-.148-.018-.251-.153-.232-.304.02-.158.16-.256.335-.235Z" fill="#fff"/>
          <path d="M185.252,73.985c-.148-.021-.245-.149-.223-.293.022-.142.154-.239.299-.218.157.022.264.154.242.297-.022.144-.16.237-.318.214Z" fill="#fff"/>
          <path d="M186.159,70.264c.143.017.249.148.234.289-.015.144-.146.247-.29.23-.147-.018-.248-.143-.232-.289.016-.147.142-.248.288-.23Z" fill="#fff"/>
          <path d="M188.611,73.657c.136.021.229.154.204.291-.023.131-.146.221-.278.204-.14-.018-.234-.142-.213-.284.021-.138.148-.233.286-.212Z" fill="#fff"/>
          <path d="M181.849,69.632c.021-.134.139-.222.275-.204.141.019.234.144.21.284-.022.133-.143.223-.276.205-.141-.019-.232-.144-.21-.286Z" fill="#fff"/>
          <path d="M187.172,74.138c-.127-.02-.212-.13-.19-.247.023-.122.148-.212.269-.194.124.019.203.126.185.251-.019.129-.132.211-.264.191Z" fill="#fff"/>
          <path d="M184.012,67.665c.036.005.074.006.109.016.108.03.16.103.134.212-.027.111-.11.149-.217.127-.056-.011-.108-.041-.164-.053-.103-.024-.163-.081-.143-.188.02-.11.101-.137.203-.12.026.004.052.007.078.011v-.004Z" fill="#fff"/>
          <path d="M182.985,73.598c-.124-.014-.215-.122-.201-.239.014-.118.14-.214.263-.199.115.014.207.135.19.25-.018.118-.129.201-.251.188Z" fill="#fff"/>
          <path d="M188.029,67.667c.014-.137.105-.225.224-.217.112.008.201.117.19.233-.011.117-.195.263-.31.246-.091-.013-.121-.089-.104-.262Z" fill="#fff"/>
          <path d="M188.932,69.147c-.121-.02-.203-.135-.177-.258.028-.128.113-.189.243-.177.125.012.205.124.186.249-.019.124-.13.205-.252.185Z" fill="#fff"/>
          <path d="M186.331,66.71c.116.021.198.144.177.263-.022.121-.124.194-.243.171-.121-.023-.202-.139-.18-.258.021-.113.137-.196.246-.176Z" fill="#fff"/>
          <path d="M184.488,69.268c.015-.114.125-.2.237-.187.118.013.204.132.184.253-.019.115-.13.196-.242.178-.112-.018-.194-.13-.178-.243Z" fill="#fff"/>
          <path d="M187.3,69.56c-.027.098-.097.159-.215.146-.108-.012-.193-.124-.171-.227.025-.114.103-.17.218-.161.107.008.187.122.168.242Z" fill="#fff"/>
          <path d="M182.685,70.98c-.074.04-.146.11-.223.114-.114.007-.166-.089-.154-.196.012-.111.095-.184.198-.157.072.019.126.107.189.164l-.009.075Z" fill="#fff"/>
          <path d="M185.648,72.001c.108-.072.167-.133.235-.144.027-.005.103.1.103.155,0,.097-.077.153-.177.123-.044-.013-.078-.063-.161-.133Z" fill="#fff"/>
          <path d="M183.601,72.214c-.048-.098-.104-.159-.093-.204.012-.047.087-.078.134-.116.037.049.102.098.101.146,0,.046-.07.091-.142.174Z" fill="#fff"/>
          <path d="M183.711,70.332c.045.091.097.146.088.188-.01.044-.078.074-.121.11-.037-.047-.099-.092-.103-.142-.003-.037.067-.081.137-.156Z" fill="#fff"/>
          <path d="M183.361,66.97c.048.097.101.156.089.194-.013.043-.084.09-.132.094-.029.002-.091-.079-.088-.118.004-.045.063-.086.131-.17Z" fill="#fff"/>
          <path d="M185.143,68.807c.094-.043.152-.093.191-.082.043.013.069.082.102.127-.045.033-.091.093-.136.092-.041,0-.081-.067-.157-.138Z" fill="#fff"/>
          <path d="M186.188,68.716c.081-.044.132-.093.168-.085.039.009.092.077.088.113-.004.036-.071.09-.111.09-.038,0-.076-.058-.145-.118Z" fill="#fff"/>
          <path d="M182.388,72.03c.083-.042.131-.087.171-.081.035.005.093.078.085.103-.014.043-.069.097-.111.1-.035.003-.075-.06-.146-.123Z" fill="#fff"/>
          <path d="M182.132,71.199c-.085.042-.137.089-.174.079-.041-.011-.067-.074-.1-.115.042-.031.083-.086.125-.086.038,0,.077.059.149.121Z" fill="#fff"/>
          <path d="M188.794,70.828c.066-.034.118-.081.145-.069.04.017.062.076.092.116-.043.027-.085.074-.129.075-.029,0-.059-.064-.108-.122Z" fill="#fff"/>
          <path d="M189.052,73.134c-.031-.073-.075-.128-.062-.158.018-.039.08-.057.123-.084.022.042.067.087.061.124-.006.037-.063.065-.122.118Z" fill="#fff"/>
          <path d="M183.927,70.96c.037.064.082.108.073.135-.012.039-.064.066-.098.098-.026-.039-.07-.076-.073-.117-.002-.029.05-.062.098-.116Z" fill="#fff"/>
          <path d="M184.953,71.435c.034.062.07.1.07.137,0,.023-.067.07-.084.062-.035-.016-.07-.059-.077-.096-.004-.022.046-.054.091-.103Z" fill="#fff"/>
        </g>
      </g>
      <g>
        <g>
          <path d="M114.915,62.389c.019.17-.126.273-.233.268-.127-.005-.23-.104-.232-.227-.002-.13.1-.235.23-.238.021,0,.042.003.063.003.178,0,.189.014.171.194Z" fill="#fff"/>
          <path d="M111.604,60.811c.115.007.202.105.197.221-.005.122-.105.212-.225.201-.113-.01-.2-.112-.193-.226.007-.114.108-.203.222-.196Z" fill="#fff"/>
          <path d="M112.401,63.208c.096.007.148.073.143.183-.005.106-.092.186-.194.179-.099-.007-.172-.094-.165-.195.008-.106.098-.176.215-.168Z" fill="#fff"/>
          <path d="M113.111,64.305c-.099-.009-.168-.091-.159-.187.01-.095.095-.164.192-.156.105.01.181.094.172.19-.01.097-.099.163-.205.153Z" fill="#fff"/>
          <path d="M113.589,61.795c.096.006.171.09.166.185-.005.096-.089.17-.185.163-.098-.007-.17-.087-.164-.185.005-.098.086-.17.184-.163Z" fill="#fff"/>
          <path d="M115.338,63.972c.091.009.158.095.146.187-.011.088-.09.152-.178.145-.094-.007-.16-.087-.151-.182.009-.093.091-.16.184-.151Z" fill="#fff"/>
          <path d="M110.696,61.521c.01-.09.085-.152.176-.145.095.008.161.088.15.182-.01.09-.087.153-.177.146-.094-.008-.16-.088-.15-.183Z" fill="#fff"/>
          <path d="M114.395,64.342c-.085-.009-.146-.079-.135-.158.011-.082.091-.146.172-.139.083.008.14.077.132.161-.008.087-.081.145-.169.136Z" fill="#fff"/>
          <path d="M112.069,60.137c.024.002.049.002.073.007.073.016.11.063.096.137-.014.075-.068.103-.14.092-.038-.006-.073-.023-.111-.03-.069-.012-.111-.048-.101-.121.01-.074.063-.095.131-.087.017.002.035.003.052.005v-.003Z" fill="#fff"/>
          <path d="M111.587,64.125c-.083-.005-.147-.074-.142-.152.005-.079.086-.147.168-.141.077.006.142.083.135.16-.008.079-.079.138-.161.134Z" fill="#fff"/>
          <path d="M114.746,60.001c.004-.091.062-.154.142-.152.075.001.138.071.134.149-.003.078-.121.182-.198.175-.061-.006-.084-.055-.078-.171Z" fill="#fff"/>
          <path d="M115.398,60.957c-.081-.009-.14-.083-.127-.166.014-.086.069-.13.156-.126.083.004.141.076.133.16-.008.083-.079.141-.162.132Z" fill="#fff"/>
          <path d="M113.581,59.422c.078.01.137.089.127.169-.01.082-.076.133-.156.122-.081-.011-.139-.086-.129-.166.01-.076.084-.135.158-.125Z" fill="#fff"/>
          <path d="M112.441,61.189c.006-.076.076-.137.152-.133.079.005.14.081.131.162-.009.077-.08.135-.155.127-.075-.008-.133-.08-.127-.156Z" fill="#fff"/>
          <path d="M114.324,61.288c-.015.066-.059.109-.138.105-.072-.004-.133-.076-.122-.145.012-.077.063-.117.14-.115.071.002.129.075.12.156Z" fill="#fff"/>
          <path d="M111.299,62.391c-.048.029-.094.078-.145.084-.076.009-.113-.053-.109-.126.004-.074.057-.126.126-.111.049.01.088.067.131.103l-.004.05Z" fill="#fff"/>
          <path d="M113.307,62.97c.07-.051.107-.094.151-.104.018-.004.072.063.074.1.003.064-.046.104-.114.088-.03-.007-.054-.039-.111-.083Z" fill="#fff"/>
          <path d="M111.95,63.182c-.036-.064-.075-.103-.069-.133.006-.032.055-.055.085-.082.026.031.071.062.072.094.001.031-.044.063-.089.121Z" fill="#fff"/>
          <path d="M111.96,61.924c.033.059.07.094.065.122-.005.029-.05.052-.077.078-.026-.03-.069-.058-.074-.091-.004-.025.042-.056.086-.108Z" fill="#fff"/>
          <path d="M111.612,59.696c.035.063.073.1.066.127-.007.029-.053.063-.085.067-.019.002-.063-.049-.063-.076,0-.03.039-.06.082-.118Z" fill="#fff"/>
          <path d="M112.862,60.859c.061-.032.098-.067.125-.061.029.007.049.053.072.081-.029.024-.058.065-.088.066-.027,0-.056-.042-.109-.086Z" fill="#fff"/>
          <path d="M113.555,60.763c.053-.032.085-.067.109-.062.026.005.064.048.063.072-.002.024-.044.062-.071.064-.025.002-.053-.036-.101-.074Z" fill="#fff"/>
          <path d="M111.136,63.1c.054-.031.084-.062.111-.06.024.002.065.049.06.066-.008.029-.043.067-.07.071-.023.003-.052-.037-.101-.077Z" fill="#fff"/>
          <path d="M110.938,62.555c-.055.031-.088.064-.113.059-.027-.006-.047-.047-.07-.073.027-.022.053-.06.08-.062.026-.001.053.037.103.076Z" fill="#fff"/>
          <path d="M115.363,62.082c.043-.025.076-.058.095-.051.027.01.044.048.065.074-.028.02-.054.052-.083.055-.019.001-.042-.041-.076-.078Z" fill="#fff"/>
          <path d="M115.614,63.609c-.023-.048-.054-.083-.047-.103.01-.026.051-.041.079-.06.016.027.048.056.045.08-.003.025-.04.045-.077.083Z" fill="#fff"/>
          <path d="M112.125,62.335c.027.041.058.069.053.087-.007.026-.04.046-.062.068-.019-.025-.049-.048-.053-.075-.002-.019.031-.043.062-.08Z" fill="#fff"/>
          <path d="M112.825,62.617c.025.04.05.064.051.089,0,.015-.043.049-.054.044-.024-.01-.049-.037-.054-.061-.003-.015.029-.038.057-.072Z" fill="#fff"/>
        </g>
        <g>
          <path d="M121.276,61.789c.152.174.07.401-.052.478-.145.092-.336.062-.433-.073-.102-.143-.071-.338.072-.442.023-.017.049-.03.072-.046.198-.137.221-.131.34.084Z" fill="#fff"/>
          <path d="M116.376,62.589c.133-.081.306-.039.39.093.089.14.046.317-.096.398-.134.076-.309.031-.389-.102-.08-.132-.036-.31.095-.389Z" fill="#fff"/>
          <path d="M119.112,64.641c.112-.067.221-.033.301.093.077.122.042.278-.077.349-.116.069-.264.029-.334-.09-.073-.124-.027-.271.11-.353Z" fill="#fff"/>
          <path d="M120.747,65.313c-.117.066-.258.029-.321-.086-.063-.113-.022-.256.093-.321.124-.07.274-.036.337.079.064.115.016.257-.109.329Z" fill="#fff"/>
          <path d="M119.343,62.153c.112-.067.259-.032.327.078.069.111.032.257-.08.325-.115.068-.256.034-.325-.079-.07-.114-.036-.255.079-.324Z" fill="#fff"/>
          <path d="M122.968,63.225c.108-.06.249-.016.307.095.056.107.018.238-.086.299-.11.065-.246.027-.309-.085-.062-.11-.022-.248.088-.309Z" fill="#fff"/>
          <path d="M115.913,64.08c-.059-.108-.023-.235.084-.297.111-.065.247-.026.307.087.058.107.021.238-.084.299-.111.064-.245.025-.308-.088Z" fill="#fff"/>
          <path d="M122.205,64.363c-.102.056-.223.024-.272-.072-.051-.099-.011-.233.085-.287.099-.055.215-.022.271.077.058.103.022.223-.083.282Z" fill="#fff"/>
          <path d="M116.373,61.48c.029-.016.056-.036.086-.049.094-.038.171-.015.213.078.042.094.003.167-.085.211-.046.023-.1.031-.147.052-.086.04-.161.032-.206-.056-.046-.09-.003-.154.079-.198.021-.011.041-.023.062-.035l-.002-.003Z" fill="#fff"/>
          <path d="M118.913,66.288c-.096.058-.221.031-.276-.06-.055-.092-.018-.23.078-.287.09-.053.222-.018.273.074.053.094.019.215-.076.273Z" fill="#fff"/>
          <path d="M119.246,59.264c-.066-.105-.049-.219.04-.279.084-.056.208-.027.264.062.057.089.006.295-.086.347-.072.041-.136.003-.219-.13Z" fill="#fff"/>
          <path d="M120.708,59.824c-.097.053-.22.015-.269-.087-.051-.107-.024-.197.076-.26.096-.06.215-.025.271.075.055.099.021.218-.078.272Z" fill="#fff"/>
          <path d="M117.503,59.518c.094-.049.221-.007.272.09.052.099.018.207-.079.257-.099.05-.221.012-.271-.085-.047-.092-.01-.215.079-.261Z" fill="#fff"/>
          <path d="M117.598,62.363c-.052-.09-.021-.211.066-.265.092-.056.219-.019.271.079.049.093.015.212-.075.261-.09.049-.21.014-.262-.076Z" fill="#fff"/>
          <path d="M119.769,61.02c.035.085.019.167-.073.223-.084.051-.206.018-.248-.068-.045-.095-.02-.179.067-.236.081-.053.201-.016.253.08Z" fill="#fff"/>
          <path d="M117.255,64.582c-.031.07-.044.159-.096.205-.077.068-.167.028-.218-.055-.053-.086-.033-.184.055-.221.062-.026.149.007.225.013l.035.059Z" fill="#fff"/>
          <path d="M119.936,63.676c.038-.111.046-.187.088-.233.017-.018.129.014.159.054.053.069.029.152-.059.185-.039.015-.09-.002-.188-.006Z" fill="#fff"/>
          <path d="M118.59,64.959c-.089-.044-.162-.056-.179-.094-.018-.04.019-.104.032-.157.053.015.127.014.153.048.025.033,0,.104-.006.203Z" fill="#fff"/>
          <path d="M117.63,63.553c.083.04.15.051.166.086.017.037-.015.096-.026.146-.053-.013-.121-.012-.152-.045-.023-.025.004-.095.012-.187Z" fill="#fff"/>
          <path d="M115.524,61.342c.088.043.158.056.171.09.015.038-.01.111-.043.14-.019.017-.109-.006-.128-.036-.022-.034-.003-.097,0-.194Z" fill="#fff"/>
          <path d="M117.812,61.673c.043-.083.057-.15.092-.164.037-.015.095.021.143.035-.014.049-.014.117-.046.141-.03.022-.094-.003-.188-.012Z" fill="#fff"/>
          <path d="M118.508,61.031c.034-.076.043-.139.074-.153.033-.015.108.004.125.032.017.028-.001.103-.03.126-.027.021-.086,0-.169-.004Z" fill="#fff"/>
          <path d="M117.621,65.496c.036-.076.045-.134.078-.152.028-.016.11.004.118.027.014.039.004.108-.024.133-.023.021-.087-.001-.172-.007Z" fill="#fff"/>
          <path d="M116.98,65.044c-.038.077-.049.139-.08.153-.035.015-.089-.016-.135-.027.013-.045.012-.108.042-.131.028-.021.088,0,.173.005Z" fill="#fff"/>
          <path d="M121.537,61.102c.029-.061.04-.123.066-.13.038-.01.086.02.13.033-.016.043-.02.1-.051.125-.02.016-.078-.013-.145-.028Z" fill="#fff"/>
          <path d="M122.995,62.607c-.063-.035-.125-.05-.131-.079-.009-.037.025-.085.041-.128.039.017.096.025.112.055.016.03-.01.081-.022.152Z" fill="#fff"/>
          <path d="M118.131,63.883c.061.025.118.032.126.056.013.035-.009.082-.016.124-.04-.013-.092-.016-.117-.043-.017-.019.002-.072.007-.137Z" fill="#fff"/>
          <path d="M119.127,63.656c.059.026.105.033.125.059.012.016-.01.087-.026.091-.034.008-.083-.003-.108-.026-.015-.014.003-.064.008-.124Z" fill="#fff"/>
        </g>
        <g>
          <path d="M126.186,66.718c-.13.247-.421.252-.561.148-.166-.124-.215-.351-.105-.519.117-.177.351-.226.53-.11.029.019.055.042.083.062.24.164.243.193.053.419Z" fill="#fff"/>
          <path d="M123.164,61.542c.149.115.177.327.064.48-.119.16-.337.189-.49.064-.144-.117-.168-.335-.054-.483.114-.147.333-.175.48-.062Z" fill="#fff"/>
          <path d="M122.036,65.514c.124.098.133.235.025.379-.104.139-.295.168-.427.064-.128-.1-.147-.285-.043-.415.109-.136.294-.148.445-.029Z" fill="#fff"/>
          <path d="M121.987,67.648c-.125-.103-.144-.278-.042-.399.101-.12.279-.135.402-.034.133.109.159.293.058.414-.102.122-.283.13-.418.019Z" fill="#fff"/>
          <path d="M124.939,64.697c.124.097.148.279.054.402-.096.125-.276.148-.401.05-.127-.1-.149-.274-.052-.401.098-.128.272-.151.399-.051Z" fill="#fff"/>
          <path d="M125.301,69.246c.115.096.126.273.025.387-.096.109-.261.123-.375.032-.12-.096-.137-.265-.037-.385.097-.117.27-.133.387-.035Z" fill="#fff"/>
          <path d="M121.283,61.666c.096-.113.255-.128.371-.034.121.097.136.266.035.384-.096.112-.259.127-.373.035-.12-.097-.135-.265-.034-.385Z" fill="#fff"/>
          <path d="M123.689,68.879c-.107-.09-.124-.241-.037-.338.09-.1.258-.114.36-.029.105.088.118.232.03.339-.091.11-.242.122-.354.028Z" fill="#fff"/>
          <path d="M124.411,61.059c.031.025.065.047.092.076.084.089.091.186.004.274-.088.088-.187.076-.274-.004-.046-.042-.078-.099-.122-.143-.082-.08-.106-.167-.026-.256.081-.091.172-.07.257.003.022.019.044.036.066.054l.003-.004Z" fill="#fff"/>
          <path d="M120.094,66.003c-.107-.083-.131-.235-.052-.336.08-.102.252-.12.357-.036.099.079.116.243.035.34-.083.1-.234.114-.34.032Z" fill="#fff"/>
          <path d="M128.152,63.337c.09-.119.225-.15.331-.075.1.07.121.222.045.324-.076.103-.33.135-.428.054-.077-.064-.062-.152.052-.303Z" fill="#fff"/>
          <path d="M128.155,65.227c-.101-.087-.113-.241-.019-.34.098-.103.212-.112.326-.027.109.081.121.232.032.338-.088.105-.237.118-.34.03Z" fill="#fff"/>
          <path d="M127.112,61.484c.096.085.103.246.016.345-.089.101-.225.11-.323.022-.1-.09-.109-.244-.021-.343.083-.093.238-.105.329-.024Z" fill="#fff"/>
          <path d="M123.947,62.822c.079-.097.229-.115.327-.04.103.079.116.238.028.339-.083.096-.232.109-.327.028-.094-.08-.107-.231-.028-.328Z" fill="#fff"/>
          <path d="M126.4,64.687c-.081.076-.18.093-.283.015-.094-.072-.11-.225-.031-.308.087-.092.193-.1.295-.026.095.068.105.219.019.32Z" fill="#fff"/>
          <path d="M121.298,63.396c-.092-.004-.198.019-.272-.02-.11-.058-.104-.176-.032-.27.074-.097.193-.117.273-.034.057.059.057.171.083.26l-.051.064Z" fill="#fff"/>
          <path d="M123.48,66.025c.141-.005.231-.029.301-.002.028.011.04.152.008.203-.055.09-.158.098-.235.014-.034-.038-.037-.103-.074-.215Z" fill="#fff"/>
          <path d="M121.451,65.064c.011-.119-.007-.207.029-.242.038-.037.125-.024.191-.032.006.066.04.149.012.193-.027.042-.117.045-.231.081Z" fill="#fff"/>
          <path d="M122.62,63.373c-.009.11.007.191-.025.225-.034.035-.115.025-.175.034-.008-.065-.04-.142-.015-.191.018-.036.109-.037.216-.068Z" fill="#fff"/>
          <path d="M124.2,60.043c-.011.117.006.202-.027.232-.037.033-.129.036-.176.012-.028-.014-.04-.125-.015-.16.029-.04.108-.045.218-.084Z" fill="#fff"/>
          <path d="M124.818,62.764c.112.013.194,0,.224.032.033.036.017.116.023.176-.061.005-.138.035-.179.009-.038-.024-.037-.108-.068-.217Z" fill="#fff"/>
          <path d="M125.843,63.271c.101.005.176-.012.205.017.031.03.043.124.018.155-.024.031-.117.043-.155.021-.035-.021-.038-.097-.068-.193Z" fill="#fff"/>
          <path d="M120.427,64.205c.101.008.171-.007.205.021.03.025.043.126.021.144-.037.033-.119.051-.16.031-.034-.017-.036-.098-.066-.197Z" fill="#fff"/>
          <path d="M120.659,63.286c-.103-.009-.178.006-.207-.024-.032-.033-.021-.107-.028-.163.056-.005.127-.033.165-.009.036.022.038.099.07.197Z" fill="#fff"/>
          <path d="M127.073,66.715c.081.006.156-.008.175.018.028.038.015.105.019.16-.056.001-.122.021-.163-.003-.027-.016-.019-.094-.031-.175Z" fill="#fff"/>
          <path d="M126.008,69.009c.013-.086.003-.162.032-.182.038-.026.107-.008.162-.009-.003.051.014.119-.013.15-.026.031-.096.024-.181.041Z" fill="#fff"/>
          <path d="M122.466,64.081c-.002.08.015.146-.008.167-.034.029-.096.025-.147.035-.003-.051-.022-.11-.002-.15.014-.028.082-.029.157-.052Z" fill="#fff"/>
          <path d="M123.153,65.104c-.003.077.009.133-.012.167-.013.021-.102.027-.113.01-.023-.035-.032-.095-.017-.133.009-.023.073-.025.143-.045Z" fill="#fff"/>
        </g>
        <g>
          <path d="M130.902,67.358c-.113.132-.29.095-.361.013-.084-.098-.082-.243.008-.33.095-.092.244-.089.337.006.015.015.027.033.042.049.123.133.121.15-.026.262Z" fill="#fff"/>
          <path d="M129.778,63.803c.074.09.062.223-.027.3-.094.081-.23.068-.306-.028-.071-.091-.056-.226.034-.3.089-.074.226-.061.3.029Z" fill="#fff"/>
          <path d="M128.549,66.058c.062.076.048.161-.037.234-.082.07-.202.061-.268-.019-.064-.078-.05-.193.031-.258.085-.068.199-.05.274.043Z" fill="#fff"/>
          <path d="M128.226,67.346c-.062-.08-.049-.188.029-.248.078-.059.188-.044.249.035.066.085.056.2-.022.259-.078.06-.19.04-.256-.046Z" fill="#fff"/>
          <path d="M130.423,65.961c.062.076.052.189-.022.251-.075.063-.188.052-.25-.025-.063-.078-.053-.187.023-.25.077-.064.186-.054.249.024Z" fill="#fff"/>
          <path d="M130.018,68.771c.056.074.039.183-.038.238-.073.053-.175.039-.232-.032-.06-.075-.047-.18.03-.239.075-.058.182-.043.239.032Z" fill="#fff"/>
          <path d="M128.62,63.62c.074-.055.172-.042.23.03.06.076.046.18-.032.238-.074.055-.175.041-.231-.03-.06-.076-.045-.18.032-.238Z" fill="#fff"/>
          <path d="M129.089,68.327c-.053-.069-.042-.163.024-.21.068-.049.172-.034.223.032.052.068.04.157-.028.21-.07.054-.164.041-.218-.031Z" fill="#fff"/>
          <path d="M130.602,63.681c.015.02.033.038.046.059.039.065.029.126-.035.167-.065.042-.124.021-.166-.04-.022-.032-.034-.071-.055-.103-.039-.06-.041-.116.019-.159.062-.044.114-.019.156.037.011.014.022.028.033.042l.002-.002Z" fill="#fff"/>
          <path d="M127.303,66.088c-.054-.065-.047-.161.015-.211.062-.051.169-.038.222.027.049.061.037.163-.025.211-.064.049-.158.037-.211-.027Z" fill="#fff"/>
          <path d="M132.559,65.576c.071-.06.157-.06.211,0,.051.056.043.152-.017.203-.06.052-.219.036-.267-.026-.038-.049-.017-.101.073-.177Z" fill="#fff"/>
          <path d="M132.301,66.724c-.05-.067-.035-.162.035-.209.074-.049.144-.039.202.028.055.064.042.157-.027.209-.068.052-.16.039-.21-.028Z" fill="#fff"/>
          <path d="M132.182,64.309c.047.065.029.164-.038.212-.068.049-.152.036-.199-.031-.048-.068-.033-.163.034-.211.063-.045.159-.031.203.03Z" fill="#fff"/>
          <path d="M130.078,64.687c.061-.048.155-.039.204.021.051.062.037.16-.03.21-.064.047-.156.034-.202-.028-.046-.061-.033-.155.028-.203Z" fill="#fff"/>
          <path d="M131.311,66.155c-.059.035-.122.032-.174-.03-.047-.057-.036-.151.024-.191.066-.044.131-.034.183.024.048.054.034.148-.032.197Z" fill="#fff"/>
          <path d="M128.391,64.671c-.055-.015-.123-.016-.162-.049-.059-.05-.039-.121.018-.168.058-.048.133-.045.17.017.026.043.011.112.015.169l-.04.032Z" fill="#fff"/>
          <path d="M129.354,66.566c.087.016.144.014.183.04.015.01.003.098-.023.124-.046.047-.11.038-.144-.024-.015-.027-.009-.067-.016-.14Z" fill="#fff"/>
          <path d="M128.256,65.705c.023-.071.024-.127.051-.143.028-.017.079.003.12.007-.005.041.004.096-.019.119-.022.022-.077.011-.152.018Z" fill="#fff"/>
          <path d="M129.197,64.839c-.021.066-.022.117-.046.133-.025.017-.073,0-.111-.003.004-.041-.005-.091.017-.118.016-.02.071-.008.14-.011Z" fill="#fff"/>
          <path d="M130.613,63.035c-.023.07-.024.123-.048.137-.027.015-.083.004-.109-.017-.015-.012-.007-.081.013-.099.023-.02.071-.012.144-.021Z" fill="#fff"/>
          <path d="M130.614,64.771c.066.023.118.026.132.05.015.026-.005.073-.01.11-.038-.005-.088.002-.11-.019-.02-.02-.008-.071-.012-.141Z" fill="#fff"/>
          <path d="M131.167,65.219c.06.017.108.017.122.038.015.023.009.081-.01.097-.019.016-.077.01-.097-.009-.019-.017-.009-.064-.015-.126Z" fill="#fff"/>
          <path d="M127.752,65.043c.06.018.105.019.122.041.015.019.009.082-.007.09-.027.015-.079.015-.101-.003-.018-.015-.008-.065-.013-.128Z" fill="#fff"/>
          <path d="M128.019,64.517c-.061-.02-.109-.021-.122-.043-.015-.024.002-.068.005-.103.035.005.081-.003.102.017.019.018.009.065.015.129Z" fill="#fff"/>
          <path d="M131.441,67.478c.048.015.096.016.104.035.012.027-.005.066-.01.1-.034-.007-.077-.004-.098-.024-.014-.013.001-.059.005-.111Z" fill="#fff"/>
          <path d="M130.479,68.724c.019-.05.024-.098.044-.106.027-.011.066.01.1.017-.009.031-.008.074-.028.089-.02.015-.061.002-.115,0Z" fill="#fff"/>
          <path d="M129.006,65.247c-.012.048-.011.091-.028.1-.024.013-.062.002-.094.001.005-.031.002-.07.019-.091.012-.015.054-.006.103-.01Z" fill="#fff"/>
          <path d="M129.282,65.963c-.013.047-.013.082-.03.1-.011.011-.066.002-.07-.009-.009-.024-.006-.062.008-.083.009-.013.048-.005.093-.007Z" fill="#fff"/>
        </g>
        <g>
          <path d="M138.417,66.724c.158.213.042.464-.104.54-.174.091-.389.04-.487-.124-.103-.172-.049-.393.124-.498.028-.017.058-.029.087-.046.239-.137.265-.129.38.127Z" fill="#fff"/>
          <path d="M132.753,67.177c.16-.079.352-.016.436.143.088.167.023.366-.146.445-.16.075-.355.006-.434-.152-.079-.158-.013-.357.145-.435Z" fill="#fff"/>
          <path d="M135.682,69.773c.134-.066.256-.017.334.135.076.146.022.321-.12.391-.138.068-.304.008-.372-.133-.072-.149-.006-.312.158-.392Z" fill="#fff"/>
          <path d="M137.484,70.694c-.14.065-.297.009-.358-.128-.061-.135,0-.294.137-.358.148-.069.316-.015.377.121.062.137-.006.295-.156.364Z" fill="#fff"/>
          <path d="M136.178,66.958c.134-.066.299-.012.366.119.068.133.013.297-.122.363-.137.067-.295.015-.364-.12-.069-.136-.017-.294.12-.362Z" fill="#fff"/>
          <path d="M140.212,68.52c.129-.058.285.005.341.138.053.127-.002.273-.126.333-.131.063-.283.008-.344-.126-.06-.131-.002-.285.129-.344Z" fill="#fff"/>
          <path d="M132.085,68.834c-.057-.128-.004-.271.124-.331.133-.063.284-.007.343.128.056.128.002.273-.124.333-.133.063-.282.006-.343-.13Z" fill="#fff"/>
          <path d="M139.235,69.746c-.121.055-.257.007-.304-.107-.049-.118.009-.267.124-.32.118-.054.247-.005.302.113.056.122.004.257-.121.314Z" fill="#fff"/>
          <path d="M132.854,65.912c.034-.016.067-.036.103-.048.11-.035.196,0,.235.109.039.111-.012.191-.117.233-.055.022-.117.026-.172.046-.102.037-.186.021-.23-.083-.044-.107.011-.176.108-.218.025-.011.049-.023.074-.034l-.002-.004Z" fill="#fff"/>
          <path d="M135.301,71.634c-.115.058-.255.015-.309-.094-.054-.11.002-.264.116-.32.108-.053.255,0,.305.11.051.112.002.247-.112.304Z" fill="#fff"/>
          <path d="M136.338,63.654c-.065-.126-.036-.254.072-.314.101-.056.24-.012.296.095.056.107-.021.337-.13.388-.086.04-.155-.009-.237-.169Z" fill="#fff"/>
          <path d="M137.954,64.429c-.116.051-.253-.003-.298-.124-.048-.126-.009-.227.111-.29.115-.06.248-.008.302.111.053.118.003.251-.114.303Z" fill="#fff"/>
          <path d="M134.327,63.78c.112-.047.253.013.301.128.05.118.001.238-.114.285-.117.048-.254-.007-.301-.123-.045-.11.008-.247.115-.291Z" fill="#fff"/>
          <path d="M134.169,67.034c-.05-.107-.004-.243.1-.296.11-.055.251,0,.301.116.048.11-.003.243-.11.291-.107.047-.241-.004-.292-.111Z" fill="#fff"/>
          <path d="M136.77,65.706c.032.1.006.192-.104.248-.1.051-.237.002-.276-.101-.043-.113-.006-.206.099-.263.097-.053.231,0,.282.116Z" fill="#fff"/>
          <path d="M133.569,69.533c-.042.077-.065.177-.129.224-.095.07-.193.016-.244-.084-.052-.103-.021-.213.083-.247.073-.024.17.022.256.036l.034.07Z" fill="#fff"/>
          <path d="M136.712,68.751c.054-.123.07-.209.122-.257.021-.019.146.029.176.076.054.084.019.176-.085.206-.046.014-.103-.01-.214-.025Z" fill="#fff"/>
          <path d="M135.057,70.088c-.097-.058-.18-.08-.195-.124-.016-.047.031-.117.051-.176.059.022.143.027.17.07.025.04-.01.118-.026.231Z" fill="#fff"/>
          <path d="M134.093,68.394c.091.053.166.072.182.114.016.043-.026.108-.043.164-.059-.02-.137-.024-.17-.065-.024-.03.013-.108.031-.212Z" fill="#fff"/>
          <path d="M131.898,65.675c.096.057.175.078.187.118.013.045-.022.125-.062.156-.024.018-.123-.017-.143-.053-.022-.041.006-.11.018-.221Z" fill="#fff"/>
          <path d="M134.477,66.266c.057-.091.079-.166.12-.178.044-.013.106.033.16.053-.021.054-.027.132-.066.157-.036.022-.107-.013-.214-.031Z" fill="#fff"/>
          <path d="M135.331,65.6c.046-.084.062-.155.098-.168.039-.014.123.014.14.048.017.034-.011.118-.046.141-.032.022-.099-.008-.193-.021Z" fill="#fff"/>
          <path d="M133.902,70.61c.048-.083.064-.149.103-.167.033-.015.125.015.132.042.012.045-.005.123-.039.149-.029.022-.099-.01-.195-.024Z" fill="#fff"/>
          <path d="M133.212,70.033c-.05.084-.068.154-.106.167-.041.014-.1-.026-.151-.043.019-.05.024-.122.06-.145.033-.022.1.008.197.022Z" fill="#fff"/>
          <path d="M138.779,65.965c.038-.067.057-.137.087-.142.044-.008.096.031.145.049-.022.048-.032.113-.069.138-.025.017-.088-.022-.163-.045Z" fill="#fff"/>
          <path d="M140.301,67.818c-.068-.046-.137-.069-.142-.102-.007-.043.037-.094.059-.142.043.023.107.037.123.073.015.035-.019.092-.039.171Z" fill="#fff"/>
          <path d="M134.634,68.817c.067.034.131.047.139.076.011.041-.018.093-.03.14-.045-.019-.103-.027-.129-.06-.018-.024.009-.082.02-.156Z" fill="#fff"/>
          <path d="M135.791,68.652c.065.035.117.047.137.079.013.02-.019.099-.038.101-.039.005-.094-.012-.12-.04-.016-.017.009-.073.021-.141Z" fill="#fff"/>
        </g>
      </g>
      <g filter="url(#j)">
        <polygon points="139.134 90.138 148.708 74.372 144.584 75.902 138.464 85.149 139.134 90.138" fill="#336a9b"/>
        <polygon points="136.335 89.473 136.335 85.149 129.683 78.164 125.292 77.37 136.335 89.473" fill="#336a9b"/>
        <polygon points="105.867 87.743 114.914 76.568 111.189 76.568 105.202 83.422 105.867 87.743" fill="#336a9b"/>
        <polygon points="139.134 80.369 103.872 76.501 103.872 74.372 139.134 77.175 139.134 80.369" fill="#e86170"/>
        <polygon points="139.134 80.369 183.138 59.49 183.138 57.361 139.134 77.175 139.134 80.369" fill="#e86170"/>
        <polygon points="183.138 57.361 139.134 77.175 103.872 74.372 154.429 55.879 183.138 57.361" fill="#efa78e"/>
        <g clip-path="url(#l)">
          <g>
            <line x1="104.67" y1="71.503" x2="147.439" y2="74.843" fill="none" stroke="#336a9b" stroke-linecap="round" stroke-linejoin="round" stroke-width=".25"/>
            <line x1="109.41" y1="69.315" x2="151.296" y2="72.586" fill="none" stroke="#336a9b" stroke-linecap="round" stroke-linejoin="round" stroke-width=".25"/>
            <line x1="114.151" y1="67.127" x2="155.154" y2="70.33" fill="none" stroke="#336a9b" stroke-linecap="round" stroke-linejoin="round" stroke-width=".25"/>
            <line x1="118.891" y1="64.94" x2="159.011" y2="68.073" fill="none" stroke="#336a9b" stroke-linecap="round" stroke-linejoin="round" stroke-width=".25"/>
            <line x1="123.632" y1="62.752" x2="162.868" y2="65.816" fill="none" stroke="#336a9b" stroke-linecap="round" stroke-linejoin="round" stroke-width=".25"/>
            <line x1="128.373" y1="60.564" x2="166.725" y2="63.559" fill="none" stroke="#336a9b" stroke-linecap="round" stroke-linejoin="round" stroke-width=".25"/>
            <line x1="133.113" y1="58.376" x2="170.582" y2="61.303" fill="none" stroke="#336a9b" stroke-linecap="round" stroke-linejoin="round" stroke-width=".25"/>
            <line x1="137.854" y1="56.189" x2="174.44" y2="59.046" fill="none" stroke="#336a9b" stroke-linecap="round" stroke-linejoin="round" stroke-width=".25"/>
          </g>
        </g>
        <g clip-path="url(#m)">
          <polygon points="107.331 95.66 102.009 95.66 102.965 68.784 107.331 68.784 107.331 95.66" fill="#e86170"/>
          <polygon points="141.058 97.389 135.204 97.389 136.335 72.471 140.973 72.909 141.058 97.389" fill="#e86170"/>
        </g>
      </g>
      <g>
        <g>
          <path d="M132.561,88.961c.143.162.066.374-.048.446-.135.086-.313.058-.404-.068-.096-.133-.066-.316.067-.413.021-.016.045-.028.067-.043.185-.128.206-.123.317.078Z" fill="#fff"/>
          <path d="M127.989,89.713c.124-.075.285-.037.364.087.083.13.043.295-.089.371-.125.072-.288.029-.363-.094-.075-.123-.034-.289.088-.364Z" fill="#fff"/>
          <path d="M130.545,91.625c.105-.062.207-.031.281.087.072.114.04.259-.071.326-.108.064-.246.027-.312-.083-.068-.116-.026-.253.102-.329Z" fill="#fff"/>
          <path d="M132.072,92.25c-.109.062-.24.027-.3-.08-.059-.106-.02-.239.087-.3.116-.066.256-.034.315.073.06.107.015.24-.102.307Z" fill="#fff"/>
          <path d="M130.757,89.303c.104-.063.242-.03.305.072.064.104.031.24-.075.303-.107.064-.239.032-.304-.073-.066-.106-.034-.238.073-.302Z" fill="#fff"/>
          <path d="M134.141,90.298c.101-.056.232-.016.287.089.052.099.017.222-.08.279-.103.06-.229.026-.288-.079-.058-.103-.021-.231.082-.289Z" fill="#fff"/>
          <path d="M127.559,91.106c-.055-.1-.022-.22.078-.278.104-.06.23-.025.287.081.054.1.02.222-.078.279-.103.06-.229.024-.287-.082Z" fill="#fff"/>
          <path d="M133.431,91.361c-.095.053-.208.023-.254-.067-.048-.093-.011-.218.079-.268.092-.052.2-.021.253.072.054.096.021.209-.077.263Z" fill="#fff"/>
          <path d="M127.985,88.679c.027-.015.052-.034.081-.046.087-.036.16-.014.199.073.04.088.003.156-.079.197-.043.021-.093.029-.137.049-.081.037-.15.03-.192-.052-.043-.084-.003-.143.073-.185.019-.01.038-.022.058-.033l-.002-.003Z" fill="#fff"/>
          <path d="M130.362,93.162c-.089.055-.206.029-.257-.055-.052-.086-.017-.215.073-.268.084-.05.207-.017.255.069.049.088.018.201-.071.255Z" fill="#fff"/>
          <path d="M130.663,86.607c-.061-.098-.046-.204.037-.26.078-.052.194-.026.247.057.053.083.006.276-.079.324-.067.038-.127.003-.204-.121Z" fill="#fff"/>
          <path d="M132.028,87.128c-.091.049-.205.015-.251-.081-.047-.099-.022-.184.07-.243.089-.057.201-.023.253.07.051.093.02.204-.072.254Z" fill="#fff"/>
          <path d="M129.037,86.846c.088-.046.206-.007.254.084.048.092.017.193-.074.24-.092.047-.207.011-.253-.079-.044-.086-.01-.201.073-.244Z" fill="#fff"/>
          <path d="M129.129,89.501c-.048-.084-.02-.197.061-.247.086-.052.204-.018.253.074.046.086.014.197-.07.244-.083.046-.196.013-.244-.07Z" fill="#fff"/>
          <path d="M131.153,88.245c.033.079.018.156-.068.208-.078.048-.193.018-.231-.063-.043-.089-.019-.167.062-.22.076-.05.187-.015.237.075Z" fill="#fff"/>
          <path d="M128.812,91.573c-.029.065-.041.149-.09.191-.072.063-.156.026-.204-.051-.049-.08-.031-.172.051-.207.058-.025.139.006.21.012l.032.055Z" fill="#fff"/>
          <path d="M131.313,90.724c.035-.104.043-.175.082-.217.015-.017.121.013.149.05.05.065.027.141-.055.173-.037.014-.084-.001-.176-.006Z" fill="#fff"/>
          <path d="M130.058,91.923c-.083-.041-.152-.052-.167-.088-.016-.037.017-.097.029-.147.049.014.118.013.143.045.023.031,0,.097-.005.19Z" fill="#fff"/>
          <path d="M129.16,90.611c.077.037.14.047.155.08.016.034-.014.09-.024.136-.049-.012-.113-.011-.142-.042-.021-.023.003-.089.011-.174Z" fill="#fff"/>
          <path d="M127.192,88.551c.082.04.148.052.16.084.014.036-.009.103-.04.131-.018.016-.101-.005-.12-.033-.021-.032-.003-.09,0-.181Z" fill="#fff"/>
          <path d="M129.327,88.856c.04-.077.053-.14.085-.153.035-.014.088.019.134.032-.013.046-.013.109-.043.132-.028.021-.088-.003-.176-.011Z" fill="#fff"/>
          <path d="M129.977,88.257c.032-.071.04-.13.069-.143.031-.014.101.003.117.03.016.026-.001.096-.028.118-.025.02-.081,0-.158-.004Z" fill="#fff"/>
          <path d="M129.155,92.425c.033-.071.042-.125.072-.142.026-.015.102.004.11.025.013.036.004.1-.022.124-.022.02-.081-.001-.16-.007Z" fill="#fff"/>
          <path d="M128.556,92.004c-.035.071-.045.13-.075.143-.033.014-.083-.015-.126-.025.012-.042.011-.1.039-.122.026-.02.082,0,.162.004Z" fill="#fff"/>
          <path d="M132.803,88.319c.027-.057.037-.115.061-.121.035-.009.08.018.121.03-.014.04-.019.094-.047.117-.019.015-.073-.012-.135-.026Z" fill="#fff"/>
          <path d="M134.166,89.722c-.059-.033-.116-.047-.122-.073-.008-.035.024-.079.038-.119.036.016.09.023.105.051.015.028-.009.076-.02.142Z" fill="#fff"/>
          <path d="M129.629,90.918c.057.023.11.03.118.052.012.032-.009.077-.015.116-.037-.012-.086-.015-.109-.04-.016-.018.001-.067.006-.128Z" fill="#fff"/>
          <path d="M130.557,90.706c.055.024.098.03.117.055.012.015-.009.081-.024.085-.031.007-.077-.003-.101-.024-.014-.013.002-.06.007-.116Z" fill="#fff"/>
        </g>
        <g>
          <path d="M138.651,90.562c.062.228-.115.4-.261.416-.174.02-.336-.093-.365-.261-.03-.177.086-.343.264-.374.029-.005.058-.006.087-.01.243-.037.262-.022.275.229Z" fill="#fff"/>
          <path d="M133.789,89.108c.159-.015.299.1.317.26.019.168-.099.312-.266.323-.157.011-.298-.11-.312-.267-.015-.157.105-.301.261-.316Z" fill="#fff"/>
          <path d="M135.388,92.217c.133-.011.218.069.235.22.016.146-.086.274-.227.287-.137.012-.256-.091-.267-.231-.012-.147.096-.262.259-.275Z" fill="#fff"/>
          <path d="M136.591,93.566c-.137.009-.25-.089-.257-.222-.007-.132.095-.245.229-.254.146-.009.268.09.275.223.007.134-.1.244-.247.253Z" fill="#fff"/>
          <path d="M136.711,90.032c.133-.012.253.087.266.218.013.133-.085.251-.219.263-.136.012-.251-.083-.264-.218-.014-.136.081-.251.217-.263Z" fill="#fff"/>
          <path d="M139.566,92.637c.126-.007.236.096.24.225.004.123-.09.227-.213.237-.13.01-.238-.085-.246-.216-.007-.129.09-.238.219-.245Z" fill="#fff"/>
          <path d="M132.697,90.272c-.006-.125.084-.227.21-.236.131-.01.238.086.244.217.005.125-.087.228-.211.237-.131.009-.237-.086-.243-.219Z" fill="#fff"/>
          <path d="M138.356,93.343c-.119.006-.216-.078-.218-.188-.002-.114.094-.22.206-.226.116-.007.207.075.215.192.007.12-.079.215-.202.222Z" fill="#fff"/>
          <path d="M134.281,88.087c.034-.002.068-.008.101-.006.103.006.164.063.161.167-.003.105-.072.155-.172.156-.053,0-.105-.016-.158-.017-.097-.002-.162-.042-.164-.143-.002-.103.066-.143.161-.147.024,0,.048-.003.072-.005v-.004Z" fill="#fff"/>
          <path d="M134.469,93.643c-.114.011-.217-.07-.227-.178-.01-.109.087-.22.2-.229.107-.009.212.083.218.19.006.11-.079.206-.192.217Z" fill="#fff"/>
          <path d="M137.912,87.333c-.013-.126.053-.223.161-.238.102-.014.203.068.215.175.012.107-.127.274-.234.281-.085.005-.126-.058-.143-.217Z" fill="#fff"/>
          <path d="M139.007,88.501c-.113.005-.209-.084-.208-.2.001-.121.066-.192.186-.206.115-.013.209.073.215.19.006.116-.078.21-.193.215Z" fill="#fff"/>
          <path d="M136.197,86.788c.109-.003.206.092.209.204.003.114-.076.198-.188.2-.113.002-.209-.088-.211-.2-.002-.106.087-.203.189-.205Z" fill="#fff"/>
          <path d="M135.013,89.447c-.007-.106.075-.204.179-.214.109-.01.209.081.214.194.004.107-.081.201-.186.206-.104.005-.2-.081-.207-.187Z" fill="#fff"/>
          <path d="M137.609,89.182c-.006.094-.058.162-.167.173-.1.01-.198-.075-.197-.173,0-.108.061-.173.167-.187.098-.013.192.075.197.187Z" fill="#fff"/>
          <path d="M133.706,91.333c-.059.05-.112.127-.18.145-.102.028-.166-.049-.176-.148-.01-.103.052-.184.149-.179.069.004.134.073.201.113l.006.07Z" fill="#fff"/>
          <path d="M136.576,91.698c.084-.085.126-.151.185-.175.023-.009.112.071.122.12.018.087-.041.152-.137.144-.043-.004-.082-.042-.17-.09Z" fill="#fff"/>
          <path d="M134.766,92.277c-.062-.08-.124-.124-.122-.167.002-.045.064-.087.099-.13.042.037.111.069.119.113.008.042-.046.095-.096.184Z" fill="#fff"/>
          <path d="M134.511,90.554c.058.074.115.114.114.153,0,.041-.057.082-.089.122-.042-.036-.106-.065-.12-.109-.01-.033.046-.086.094-.167Z" fill="#fff"/>
          <path d="M133.562,87.581c.061.079.121.122.117.159-.004.042-.059.097-.102.11-.025.007-.097-.054-.102-.09-.005-.042.041-.09.087-.178Z" fill="#fff"/>
          <path d="M135.518,88.907c.077-.057.12-.113.157-.11.041.003.078.061.116.096-.035.039-.065.101-.106.109-.037.007-.085-.045-.168-.095Z" fill="#fff"/>
          <path d="M136.445,88.628c.065-.055.102-.109.136-.108.037,0,.098.052.101.085.003.034-.047.094-.084.103-.034.008-.08-.039-.154-.08Z" fill="#fff"/>
          <path d="M133.635,92.338c.067-.054.102-.103.139-.106.033-.002.099.053.096.077-.004.042-.044.101-.081.112-.031.009-.079-.04-.155-.083Z" fill="#fff"/>
          <path d="M133.247,91.635c-.069.054-.107.106-.142.104-.039-.002-.075-.054-.112-.085.032-.036.059-.094.097-.101.035-.007.081.039.157.082Z" fill="#fff"/>
          <path d="M139.198,90.047c.054-.043.092-.095.118-.09.039.008.07.057.105.088-.034.033-.063.083-.102.092-.026.006-.066-.047-.121-.09Z" fill="#fff"/>
          <path d="M139.866,92.082c-.042-.06-.092-.102-.086-.131.009-.038.061-.067.095-.099.028.033.077.066.079.1.001.034-.045.07-.088.13Z" fill="#fff"/>
          <path d="M134.825,91.082c.045.051.094.082.091.108-.004.038-.045.071-.071.107-.031-.03-.077-.056-.088-.092-.007-.026.034-.065.067-.123Z" fill="#fff"/>
          <path d="M135.841,91.318c.043.05.082.077.089.11.004.021-.048.076-.064.072-.034-.008-.074-.04-.087-.072-.008-.019.031-.058.063-.11Z" fill="#fff"/>
        </g>
        <g>
          <path d="M144.347,92.708c.016.256-.21.398-.369.384-.189-.018-.336-.173-.33-.357.007-.194.167-.344.363-.339.031,0,.063.007.094.009.266.015.283.035.241.304Z" fill="#fff"/>
          <path d="M139.511,90.092c.171.02.294.172.278.346-.017.182-.174.309-.353.284-.169-.023-.292-.182-.272-.353.019-.17.178-.296.347-.277Z" fill="#fff"/>
          <path d="M140.521,93.742c.144.017.216.121.2.286-.015.158-.151.272-.304.254-.148-.018-.251-.153-.232-.304.02-.158.16-.256.335-.235Z" fill="#fff"/>
          <path d="M141.499,95.438c-.148-.021-.245-.149-.223-.293.022-.142.154-.239.299-.218.157.022.264.154.242.297-.022.144-.16.237-.318.214Z" fill="#fff"/>
          <path d="M142.406,91.718c.143.017.249.148.234.289-.015.144-.146.247-.29.23-.147-.018-.248-.143-.232-.289.016-.147.142-.248.288-.23Z" fill="#fff"/>
          <path d="M144.858,95.111c.136.021.229.154.204.291-.023.131-.146.221-.278.204-.14-.018-.234-.142-.213-.284.021-.138.148-.233.286-.212Z" fill="#fff"/>
          <path d="M138.096,91.086c.021-.134.139-.222.275-.204.141.019.234.144.21.284-.022.133-.143.223-.276.205-.141-.019-.232-.144-.21-.286Z" fill="#fff"/>
          <path d="M143.419,95.592c-.127-.02-.212-.13-.19-.247.023-.122.148-.212.269-.194.124.019.203.126.185.251-.019.129-.132.211-.264.191Z" fill="#fff"/>
          <path d="M140.259,89.119c.036.005.074.006.109.016.108.03.16.103.134.212-.027.111-.11.149-.217.127-.056-.011-.108-.041-.164-.053-.103-.024-.163-.081-.143-.188.02-.11.101-.137.203-.12.026.004.052.007.078.011v-.004Z" fill="#fff"/>
          <path d="M139.232,95.052c-.124-.014-.215-.122-.201-.239.014-.118.14-.214.263-.199.115.014.207.135.19.25-.018.118-.129.201-.251.188Z" fill="#fff"/>
          <path d="M144.276,89.121c.014-.137.105-.225.224-.217.112.008.201.117.19.233-.011.117-.195.263-.31.246-.091-.013-.121-.089-.104-.262Z" fill="#fff"/>
          <path d="M145.179,90.601c-.121-.02-.203-.135-.177-.258.028-.128.113-.189.243-.177.125.012.205.124.186.249-.019.124-.13.205-.252.185Z" fill="#fff"/>
          <path d="M142.578,88.164c.116.021.198.144.177.263-.022.121-.124.194-.243.171-.121-.023-.202-.139-.18-.258.021-.113.137-.196.246-.176Z" fill="#fff"/>
          <path d="M140.735,90.722c.015-.114.125-.2.237-.187.118.013.204.132.184.253-.019.115-.13.196-.242.178-.112-.018-.194-.13-.178-.243Z" fill="#fff"/>
          <path d="M143.547,91.014c-.027.098-.097.159-.215.146-.108-.012-.193-.124-.171-.227.025-.114.103-.17.218-.161.107.008.187.122.168.242Z" fill="#fff"/>
          <path d="M138.932,92.434c-.074.04-.146.11-.223.114-.114.007-.166-.089-.154-.196.012-.111.095-.184.198-.157.072.019.126.107.189.164l-.009.075Z" fill="#fff"/>
          <path d="M141.895,93.455c.108-.072.167-.133.235-.144.027-.005.103.1.103.155,0,.097-.077.153-.177.123-.044-.013-.078-.063-.161-.133Z" fill="#fff"/>
          <path d="M139.848,93.668c-.048-.098-.104-.159-.093-.204.012-.047.087-.078.134-.116.037.049.102.098.101.146,0,.046-.07.091-.142.174Z" fill="#fff"/>
          <path d="M139.958,91.786c.045.091.097.146.088.188-.01.044-.078.074-.121.11-.037-.047-.099-.092-.103-.142-.003-.037.067-.081.137-.156Z" fill="#fff"/>
          <path d="M139.608,88.423c.048.097.101.156.089.194-.013.043-.084.09-.132.094-.029.002-.091-.079-.088-.118.004-.045.063-.086.131-.17Z" fill="#fff"/>
          <path d="M141.39,90.261c.094-.043.152-.093.191-.082.043.013.069.082.102.127-.045.033-.091.093-.136.092-.041,0-.081-.067-.157-.138Z" fill="#fff"/>
          <path d="M142.435,90.17c.081-.044.132-.093.168-.085.039.009.092.077.088.113-.004.036-.071.09-.111.09-.038,0-.076-.058-.145-.118Z" fill="#fff"/>
          <path d="M138.635,93.483c.083-.042.131-.087.171-.081.035.005.093.078.085.103-.014.043-.069.097-.111.1-.035.003-.075-.06-.146-.123Z" fill="#fff"/>
          <path d="M138.379,92.653c-.085.042-.137.089-.174.079-.041-.011-.067-.074-.1-.115.042-.031.083-.086.125-.086.038,0,.077.059.149.121Z" fill="#fff"/>
          <path d="M145.041,92.282c.066-.034.118-.081.145-.069.04.017.062.076.092.116-.043.027-.085.074-.129.075-.029,0-.059-.064-.108-.122Z" fill="#fff"/>
          <path d="M145.299,94.588c-.031-.073-.075-.128-.062-.158.018-.039.08-.057.123-.084.022.042.067.087.061.124-.006.037-.063.065-.122.118Z" fill="#fff"/>
          <path d="M140.174,92.414c.037.064.082.108.073.135-.012.039-.064.066-.098.098-.026-.039-.07-.076-.073-.117-.002-.029.05-.062.098-.116Z" fill="#fff"/>
          <path d="M141.2,92.889c.034.062.07.1.07.137,0,.023-.067.07-.084.062-.035-.016-.07-.059-.077-.096-.004-.022.046-.054.091-.103Z" fill="#fff"/>
        </g>
      </g>
      <g>
        <g>
          <path d="M102.82,86.224c.07.226-.102.403-.248.424-.173.025-.339-.082-.373-.249-.036-.176.075-.345.252-.383.028-.006.058-.007.087-.013.242-.045.261-.03.282.22Z" fill="#fff"/>
          <path d="M97.914,84.924c.158-.02.302.091.325.25.024.167-.089.315-.255.331-.157.016-.301-.1-.321-.257-.02-.156.095-.304.251-.324Z" fill="#fff"/>
          <path d="M99.61,87.982c.133-.015.22.062.242.213.021.146-.077.277-.217.294-.137.016-.258-.083-.274-.223-.016-.147.088-.265.25-.283Z" fill="#fff"/>
          <path d="M100.856,89.292c-.137.013-.252-.081-.264-.214-.011-.132.087-.248.221-.261.145-.014.27.081.282.214.012.134-.092.247-.239.261Z" fill="#fff"/>
          <path d="M100.864,85.757c.132-.016.255.079.273.209.018.132-.077.254-.211.269-.135.016-.253-.075-.271-.209-.018-.135.073-.253.209-.269Z" fill="#fff"/>
          <path d="M103.799,88.27c.126-.011.239.088.247.217.007.123-.083.23-.205.243-.13.014-.24-.077-.252-.209-.012-.129.083-.241.211-.252Z" fill="#fff"/>
          <path d="M96.859,86.123c-.01-.125.077-.229.203-.242.131-.014.241.078.251.21.009.124-.08.231-.203.243-.13.013-.24-.079-.25-.211Z" fill="#fff"/>
          <path d="M102.612,89.013c-.118.01-.218-.071-.224-.181-.006-.114.087-.223.199-.233.115-.01.21.069.221.185.011.12-.073.218-.195.228Z" fill="#fff"/>
          <path d="M98.374,83.889c.034-.003.067-.01.101-.009.103.003.166.058.166.162,0,.105-.067.157-.167.161-.053.002-.106-.013-.159-.012-.097.001-.163-.037-.169-.138-.005-.103.061-.145.156-.152.024-.002.048-.005.072-.007v-.004Z" fill="#fff"/>
          <path d="M98.737,89.436c-.114.014-.219-.063-.232-.171-.013-.109.08-.222.193-.235.107-.012.215.076.224.183.01.11-.072.208-.185.223Z" fill="#fff"/>
          <path d="M101.979,83.021c-.017-.125.046-.225.154-.243.102-.017.205.061.221.168.016.107-.118.278-.225.288-.084.008-.128-.054-.15-.213Z" fill="#fff"/>
          <path d="M103.111,84.153c-.113.008-.212-.078-.214-.193-.003-.121.06-.194.179-.211.114-.017.211.067.221.183.01.115-.072.212-.186.221Z" fill="#fff"/>
          <path d="M100.248,82.53c.108-.006.209.086.216.198.007.114-.069.201-.181.206-.113.006-.211-.081-.218-.193-.006-.106.08-.205.183-.211Z" fill="#fff"/>
          <path d="M99.149,85.225c-.011-.105.069-.206.172-.219.109-.014.212.074.22.187.007.107-.074.204-.179.212-.104.008-.202-.075-.213-.18Z" fill="#fff"/>
          <path d="M101.735,84.878c-.003.094-.052.164-.161.178-.1.013-.2-.069-.203-.167-.003-.108.056-.175.161-.192.098-.016.194.069.203.181Z" fill="#fff"/>
          <path d="M97.902,87.152c-.058.052-.108.13-.175.151-.101.031-.168-.044-.181-.143-.013-.102.046-.186.143-.184.069.001.137.069.205.106l.008.069Z" fill="#fff"/>
          <path d="M100.782,87.426c.082-.088.121-.155.179-.181.023-.01.114.067.126.116.02.087-.036.154-.133.148-.043-.002-.084-.039-.173-.084Z" fill="#fff"/>
          <path d="M98.99,88.061c-.065-.078-.128-.12-.128-.163,0-.045.061-.089.095-.133.043.036.113.066.123.109.009.041-.043.097-.09.187Z" fill="#fff"/>
          <path d="M98.682,86.348c.06.072.119.11.119.15,0,.041-.054.083-.085.125-.044-.034-.108-.061-.123-.105-.011-.032.043-.087.089-.169Z" fill="#fff"/>
          <path d="M97.639,83.406c.064.077.124.118.122.155-.002.042-.056.099-.099.113-.025.008-.099-.051-.105-.087-.007-.042.038-.091.081-.181Z" fill="#fff"/>
          <path d="M99.636,84.669c.075-.059.116-.116.154-.115.041.002.08.059.119.092-.034.04-.062.103-.102.112-.037.008-.087-.043-.171-.09Z" fill="#fff"/>
          <path d="M100.554,84.361c.064-.057.098-.112.133-.112.037,0,.1.049.104.082.004.033-.044.096-.08.105-.034.009-.081-.036-.156-.075Z" fill="#fff"/>
          <path d="M97.862,88.158c.065-.056.098-.106.136-.11.033-.003.101.05.099.074-.003.042-.041.102-.078.114-.031.01-.08-.038-.157-.079Z" fill="#fff"/>
          <path d="M97.453,87.468c-.067.056-.103.11-.139.109-.039,0-.076-.052-.115-.081.031-.037.056-.095.093-.104.035-.008.082.037.16.077Z" fill="#fff"/>
          <path d="M103.35,85.692c.052-.045.088-.098.115-.094.039.006.072.054.107.085-.033.034-.061.085-.099.096-.026.007-.067-.045-.124-.086Z" fill="#fff"/>
          <path d="M104.082,87.705c-.044-.059-.095-.099-.09-.128.007-.039.059-.069.092-.102.029.032.079.063.082.098.002.034-.043.072-.084.133Z" fill="#fff"/>
          <path d="M99.012,86.865c.047.049.096.079.095.105-.003.038-.043.073-.067.109-.032-.029-.079-.053-.091-.089-.008-.025.032-.066.063-.125Z" fill="#fff"/>
          <path d="M100.035,87.069c.044.048.085.074.092.108.005.02-.045.077-.062.074-.035-.007-.076-.038-.09-.069-.008-.019.029-.059.059-.112Z" fill="#fff"/>
        </g>
        <g>
          <path d="M108.581,88.19c.024.255-.197.405-.356.395-.189-.012-.342-.162-.341-.347,0-.195.156-.35.352-.35.032,0,.063.005.095.006.267.006.284.026.251.296Z" fill="#fff"/>
          <path d="M103.665,85.728c.172.014.3.163.289.337-.011.183-.164.314-.344.295-.169-.018-.297-.173-.283-.344.014-.17.168-.302.338-.288Z" fill="#fff"/>
          <path d="M104.789,89.344c.144.013.22.114.209.279-.01.159-.143.277-.295.263-.148-.013-.256-.145-.241-.297.015-.159.151-.261.327-.245Z" fill="#fff"/>
          <path d="M105.82,91.009c-.148-.017-.25-.141-.233-.285.017-.143.147-.244.292-.228.157.017.269.146.252.289-.017.144-.152.242-.311.224Z" fill="#fff"/>
          <path d="M106.61,87.262c.144.012.253.14.243.282-.011.144-.138.252-.283.239-.147-.013-.252-.135-.241-.282.011-.147.134-.252.281-.239Z" fill="#fff"/>
          <path d="M109.167,90.575c.136.016.234.146.213.285-.019.132-.139.225-.272.212-.141-.013-.238-.135-.221-.277.016-.139.141-.237.28-.22Z" fill="#fff"/>
          <path d="M102.282,86.766c.017-.135.132-.226.268-.212.142.014.238.136.219.278-.018.134-.135.227-.269.213-.141-.015-.237-.136-.219-.279Z" fill="#fff"/>
          <path d="M107.744,91.101c-.128-.016-.216-.123-.198-.241.019-.122.141-.217.262-.203.125.015.207.119.193.245-.015.13-.125.215-.258.199Z" fill="#fff"/>
          <path d="M104.381,84.732c.036.004.074.004.109.012.109.026.163.098.14.208-.023.112-.105.152-.213.134-.056-.009-.109-.037-.166-.048-.103-.02-.165-.076-.148-.184.017-.11.097-.14.199-.127.026.003.052.006.078.008v-.004Z" fill="#fff"/>
          <path d="M103.542,90.694c-.124-.01-.219-.115-.209-.232.01-.118.134-.218.256-.207.116.011.211.128.197.244-.014.119-.122.205-.245.195Z" fill="#fff"/>
          <path d="M108.396,84.607c.009-.137.098-.228.217-.224.112.004.204.11.197.227-.007.117-.186.269-.302.256-.091-.01-.124-.085-.112-.259Z" fill="#fff"/>
          <path d="M109.346,86.058c-.121-.016-.208-.129-.185-.252.024-.129.107-.193.237-.184.125.008.209.117.194.243-.015.125-.123.209-.246.193Z" fill="#fff"/>
          <path d="M106.669,83.704c.116.017.203.137.185.257-.018.122-.118.197-.238.179-.121-.019-.206-.133-.188-.253.017-.113.13-.2.24-.183Z" fill="#fff"/>
          <path d="M104.908,86.319c.012-.114.118-.203.231-.194.118.009.208.125.191.247-.016.115-.124.2-.237.185-.112-.014-.198-.124-.186-.238Z" fill="#fff"/>
          <path d="M107.727,86.522c-.024.099-.092.162-.21.153-.109-.008-.197-.117-.178-.222.021-.115.098-.174.213-.168.107.005.191.116.175.237Z" fill="#fff"/>
          <path d="M103.16,88.087c-.073.043-.143.114-.219.121-.114.011-.168-.083-.16-.191.008-.111.09-.187.192-.163.073.017.13.103.194.158l-.007.075Z" fill="#fff"/>
          <path d="M106.154,89.014c.106-.075.163-.138.23-.152.027-.006.107.097.108.151.003.097-.072.155-.173.128-.045-.012-.08-.06-.165-.128Z" fill="#fff"/>
          <path d="M104.114,89.292c-.051-.097-.109-.156-.099-.201.01-.047.084-.081.13-.121.038.047.105.095.106.143,0,.046-.067.093-.137.179Z" fill="#fff"/>
          <path d="M104.165,87.407c.048.089.102.143.093.185-.009.044-.076.076-.118.114-.039-.046-.101-.089-.108-.139-.005-.037.065-.083.132-.16Z" fill="#fff"/>
          <path d="M103.709,84.057c.051.096.106.152.095.192-.012.044-.081.093-.129.098-.029.003-.094-.076-.092-.115.002-.046.06-.088.126-.174Z" fill="#fff"/>
          <path d="M105.547,85.837c.093-.046.149-.098.189-.088.043.011.071.08.106.124-.044.035-.088.096-.133.096-.041,0-.083-.064-.161-.133Z" fill="#fff"/>
          <path d="M106.589,85.713c.08-.046.129-.097.166-.09.039.008.095.074.092.11-.003.036-.068.092-.108.094-.037.002-.078-.056-.149-.114Z" fill="#fff"/>
          <path d="M102.896,89.145c.081-.045.128-.091.168-.086.035.004.096.075.088.101-.012.044-.066.099-.108.104-.035.004-.077-.058-.149-.118Z" fill="#fff"/>
          <path d="M102.614,88.323c-.083.044-.134.093-.171.085-.041-.009-.07-.072-.104-.111.041-.032.081-.089.122-.09.038-.001.079.057.152.117Z" fill="#fff"/>
          <path d="M109.26,87.742c.065-.036.115-.085.143-.074.04.015.064.074.095.113-.042.029-.083.077-.127.079-.029.002-.061-.062-.112-.119Z" fill="#fff"/>
          <path d="M109.592,90.039c-.033-.072-.079-.126-.067-.156.016-.039.078-.06.12-.088.024.041.07.085.065.122-.005.037-.061.067-.118.122Z" fill="#fff"/>
          <path d="M104.401,88.028c.039.062.085.105.077.132-.011.039-.062.068-.095.101-.028-.038-.072-.074-.077-.114-.003-.029.048-.063.095-.119Z" fill="#fff"/>
          <path d="M105.441,88.47c.036.061.073.097.074.134,0,.023-.065.072-.082.065-.035-.015-.072-.057-.08-.093-.005-.022.044-.056.088-.106Z" fill="#fff"/>
        </g>
      </g>
    </g>
  </g>
</svg>