<?xml version="1.0" encoding="UTF-8"?>
<svg xmlns="http://www.w3.org/2000/svg" width="300" height="300" xmlns:xlink="http://www.w3.org/1999/xlink" viewBox="0 0 300 300">
  <defs>
    <filter id="c" data-name="drop-shadow-1" x="62.858" y="33.147" width="44.356" height="74.302" filterUnits="userSpaceOnUse">
      <feOffset dx="-1" dy="0"/>
      <feGaussianBlur result="d" stdDeviation="0"/>
      <feFlood flood-color="#42496f" flood-opacity="1"/>
      <feComposite in2="d" operator="in"/>
      <feComposite in="SourceGraphic"/>
    </filter>
    <clipPath id="e">
      <polygon points="76.858 95.203 77.834 55.262 90.52 53.938 96.166 93.669 76.858 95.203" fill="none"/>
    </clipPath>
    <clipPath id="f">
      <path d="M103.45,105.693l-2.509-13.383s-14.847,2.858-16.311,2.928-14.498,1.673-14.498,1.673l-.697,9.898s34.225-1.324,34.016-1.115Z" fill="none"/>
    </clipPath>
    <radialGradient id="g" data-name="Dégradé sans nom 75" cx="144.105" cy="151.64" fx="144.105" fy="151.64" r="134.431" gradientUnits="userSpaceOnUse">
      <stop offset="0" stop-color="#6498d1"/>
      <stop offset="1" stop-color="#336a9b"/>
    </radialGradient>
  </defs>
  <g isolation="isolate">
    <g id="b" data-name="Calque 25">
      <g>
        <g filter="url(#c)">
          <polygon points="76.858 95.203 77.834 55.262 90.52 53.938 96.166 93.669 76.858 95.203" fill="#fff"/>
          <g clip-path="url(#e)">
            <polygon points="98.257 79.694 74.837 82.273 74.837 89.592 98.257 87.013 98.257 79.694" fill="#e86170"/>
            <polygon points="96.758 66.171 73.268 67.982 73.268 75.023 96.758 73.213 96.758 66.171" fill="#e86170"/>
            <polygon points="95.992 52.183 72.78 54.063 72.78 61.105 95.992 59.225 95.992 52.183" fill="#e86170"/>
            <path d="M91.856,52.75l.139,3.021s-6.506,6.087-16.868,6.877v-8.272l16.729-1.626Z" fill="#42496f"/>
            <path d="M79.007,53.253s7.296,14.731,8.922,39.127c3.718.186,13.197-1.58,13.197-1.58v8.364h-29.369v-45.261l7.249-.651Z" fill="#6498d1" mix-blend-mode="multiply" opacity=".25"/>
          </g>
          <g>
            <path d="M91.798,54.474l-15.313.145-.221-12.323c-.264-4.395,2.898-8.007,7.064-8.068h0c4.165-.061,7.756,3.452,8.02,7.847l.45,12.399Z" fill="#b1ddea"/>
            <path d="M84.742,34.3c-.005.603-.498,1.066-1.101,1.033s-1.087-.548-1.082-1.151.498-1.066,1.101-1.033,1.087.548,1.082,1.151Z" fill="#b1ddea"/>
            <g>
              <ellipse cx="80.077" cy="46.115" rx="2.107" ry="5.246" transform="translate(-3.146 5.955) rotate(-4.177)" fill="#ffd66e"/>
              <path d="M87.737,40.73c-4.682.088-3.406,10.546-7.323,10.62l-.673-10.469c4.01-.075,3.384,10.418,8.669,10.319" fill="#ffd66e"/>
              <ellipse cx="88.073" cy="45.964" rx="2.107" ry="5.246" transform="translate(-3.114 6.537) rotate(-4.177)" fill="#fff"/>
            </g>
            <path d="M89.284,53.855s-4.852-19.554-9.222-17.212c-3.351,1.796-3.217,5.067-3.217,6.488s.214,11.045.214,11.045l12.225-.322Z" fill="#6498d1" mix-blend-mode="multiply" opacity=".25"/>
            <path d="M73.863,53.98l-.179-4.427c-.029-.705.498-1.283,1.199-1.316l19.445-.906c.771-.036,1.438.599,1.443,1.374l.031,4.791" fill="none" stroke="#42496f" stroke-miterlimit="10" stroke-width=".25"/>
            <g>
              <line x1="93.931" y1="53.395" x2="93.907" y2="47.164" fill="none" stroke="#42496f" stroke-miterlimit="10" stroke-width=".25"/>
              <line x1="92.273" y1="53.457" x2="92.234" y2="47.276" fill="none" stroke="#42496f" stroke-miterlimit="10" stroke-width=".25"/>
              <line x1="90.614" y1="53.52" x2="90.561" y2="47.388" fill="none" stroke="#42496f" stroke-miterlimit="10" stroke-width=".25"/>
              <line x1="88.955" y1="53.582" x2="88.888" y2="47.5" fill="none" stroke="#42496f" stroke-miterlimit="10" stroke-width=".25"/>
              <line x1="87.297" y1="53.644" x2="87.215" y2="47.612" fill="none" stroke="#42496f" stroke-miterlimit="10" stroke-width=".25"/>
              <line x1="85.638" y1="53.706" x2="85.541" y2="47.725" fill="none" stroke="#42496f" stroke-miterlimit="10" stroke-width=".25"/>
              <line x1="83.979" y1="53.768" x2="83.868" y2="47.837" fill="none" stroke="#42496f" stroke-miterlimit="10" stroke-width=".25"/>
              <line x1="82.321" y1="53.83" x2="82.195" y2="47.949" fill="none" stroke="#42496f" stroke-miterlimit="10" stroke-width=".25"/>
              <line x1="80.662" y1="53.892" x2="80.522" y2="48.061" fill="none" stroke="#42496f" stroke-miterlimit="10" stroke-width=".25"/>
              <line x1="79.003" y1="53.955" x2="78.849" y2="48.173" fill="none" stroke="#42496f" stroke-miterlimit="10" stroke-width=".25"/>
              <line x1="77.345" y1="54.017" x2="77.176" y2="48.285" fill="none" stroke="#42496f" stroke-miterlimit="10" stroke-width=".25"/>
              <line x1="75.686" y1="54.079" x2="75.502" y2="48.397" fill="none" stroke="#42496f" stroke-miterlimit="10" stroke-width=".25"/>
            </g>
            <polygon points="73.309 53.471 73.379 55.53 96.42 55.101 96.445 52.904 73.309 53.471" fill="#fff"/>
          </g>
          <g>
            <path d="M107.214,104.717s-1.743-7.737-3.346-7.946-3.764,3.346-3.764,3.346l1.952,6.552,5.158-1.952Z" fill="#f4af13"/>
            <path d="M105.355,104.229s-.744-7.389-2.323-6.599c-1.58.79-2.695,3.067-2.695,3.067l1.952,4.647,3.067-1.115Z" fill="#f4af13" mix-blend-mode="multiply" opacity=".25"/>
            <path d="M103.45,105.693l-2.509-13.383s-14.847,2.858-16.311,2.928-14.498,1.673-14.498,1.673l-.697,9.898s34.225-1.324,34.016-1.115Z" fill="#ffd66e"/>
            <g clip-path="url(#f)">
              <path d="M66.988,107.448c2.085-.378,5.188-.244,5.188-.244,0,0,.186-6.506,1.055-7.512,1.225-.301,4.575-.678,4.575-.678l-2.38,1.764c1.898-.493,4.457-1.381,5.264-1.885s3.38-.302,3.38-.302c-.762.831-.774,2.328-.774,2.328,0,0,3.44-2.284,4.065-3.284-.219,1.002.269,2.824.269,2.824,0,0,.973-1.123,1.164-1.743l.072,1.213s1.436-1.86,1.61-2.783c0,0,1.468,2.093,3.064,2.48,0,0-.789-1.322-.676-2.419,0,0,1.469.826,3.329.969,0,0-1.206-1.526-1.275-2.257,3.324-1.668,7.952.263,10.199-1.621l-.444-7.476-37.99,2.258s.321,18.582.309,18.368Z" fill="#f4af13" mix-blend-mode="multiply" opacity=".25"/>
            </g>
            <path d="M63.858,106.251s5.925-3.903,7.528-3.764,3.625,3.485,3.625,3.485l-11.153.279Z" fill="#f4af13"/>
            <path d="M86.098,94.015s-7.594.076-9.72.405-7.543,1.468-9.011,1.924c.709.506,2.278.607,2.278.607,0,0-1.367,1.417-2.126,1.62,3.367-.405,4.176-1.24,5.417-1.468s4.607-.405,4.607-.405l-2.481,1.62c1.924-.38,4.531-1.114,5.366-1.569s3.392-.101,3.392-.101c-.81.785-.911,2.278-.911,2.278,0,0,3.569-2.076,4.252-3.037-.278.987.101,2.835.101,2.835,0,0,1.038-1.063,1.266-1.671v1.215s1.544-1.772,1.772-2.683c0,0,1.342,2.177,2.911,2.658,0,0-.709-1.367-.532-2.455,0,0,1.417.911,3.265,1.164,0,0-1.114-1.595-1.139-2.329,3.417-1.468,7.923.734,10.277-1.012-1.848-.127-3.62-1.038-3.62-1.038,0,0,1.493.202,2.253-.886-1.392-.202-2.734-.354-4.759.076s-8.707,2.025-11.846,2.303c-.38-.962-1.924-1.291-1.924-1.291l.911,1.24Z" fill="#93d1ad"/>
          </g>
        </g>
        <path d="M61.826,105.557s7.591,1.643,14.085-3.756c0,0,1.487,5.556,9.703,1.252,0,0,5.399,3.13,11.738-.47,0,0,4.695,3.13,8.608-.626,0,0,3.6,1.878,7.356,1.878v6.886h-51.96l.47-5.165Z" fill="url(#g)"/>
        <g opacity=".5">
          <path d="M105.961,101.957c-1.201,1.153-2.475,1.654-3.665,1.798.51.146,1.046.245,1.613.245.983,0,1.893-.251,2.675-.664.554.139,1.142.227,1.765.227.54,0,1.051-.073,1.54-.179-2.254-.556-3.928-1.427-3.928-1.427Z" fill="#fff"/>
          <path d="M90.382,104.291c-2.863-.147-4.767-1.238-4.767-1.238-.926.485-1.755.829-2.517,1.086.735-.009,1.432-.097,2.064-.252.833.473,1.89.769,3.059.769.781,0,1.508-.139,2.16-.365Z" fill="#fff"/>
          <path d="M69.478,105.602c2.105,0,4.015-.466,5.439-1.221.797.394,1.7.638,2.677.638.729,0,1.422-.133,2.06-.36-3.046-.278-3.742-2.858-3.742-2.858-2.713,2.256-5.612,3.273-8.074,3.704.53.063,1.078.097,1.64.097Z" fill="#fff"/>
        </g>
      </g>
    </g>
  </g>
</svg>