<?xml version="1.0" encoding="UTF-8"?>
<svg xmlns="http://www.w3.org/2000/svg" width="300" height="300" xmlns:xlink="http://www.w3.org/1999/xlink" viewBox="0 0 300 300">
  <defs>
    <clipPath id="g">
      <path d="M47.72,84.935s7.946.551,18.402-8.225c-5.088,5.785-8.643,13.926,9.34-1.82-5.088,8.302-.827,12.423,7.389,7.535-1.952,4.252,8.504,4.893,13.244,2.516,4.74.69,11.919,1.779,18.262-1.937,3.397,1.961,14.429,2.627,19.378,1.79v-50.744H47.72v50.884Z" fill="none"/>
    </clipPath>
    <filter id="h" data-name="drop-shadow-1" x="51.974" y="49.822" width="72.142" height="40.828" filterUnits="userSpaceOnUse">
      <feOffset dx="-2" dy="0"/>
      <feGaussianBlur result="i" stdDeviation="0"/>
      <feFlood flood-color="#42496f" flood-opacity="1"/>
      <feComposite in2="i" operator="in"/>
      <feComposite in="SourceGraphic"/>
    </filter>
    <clipPath id="j">
      <path d="M55.781,89.334s9.922-28.339,16.704-31.48h6.425s7.926-7.543,11.279-7.995,13.92,3.355,14.705,5.425c.785,2.07.5,8.994,1.142,10.565.642,1.57,7.21,17.775,8.923,22.414l-59.177,1.071Z" fill="none"/>
    </clipPath>
    <clipPath id="k">
      <path d="M122.953,87.05s-5.711-10.565-6.996-10.85-3.811-.475-5.582.405-4.769,4.092-5.411,5.591c-.642,1.499-3.284,7.852-3.284,7.852l21.272-2.998Z" fill="none"/>
    </clipPath>
    <clipPath id="l">
      <path d="M207.796,206.742s7.438-1.623,11.648-6.675c0,0-2.421,6.02-.523,6.675,1.898.654,7.394-5.235,7.394-5.235,0,0-2.29,8.18,8.049,7.721,0,0,3.672,4.298,10.732-.654,0,0,2.396,4.119,8.245.131,0,0,3.468,2.3,7.329,1.701s1.57-4.893,1.57-4.893c0,0,4.646,4.501,10.208,4.37v-58.238h-58.5l-6.151,55.097Z" fill="none"/>
    </clipPath>
    <filter id="m" data-name="drop-shadow-2" x="211.571" y="163.396" width="56.927" height="52.86" filterUnits="userSpaceOnUse">
      <feOffset dx="-2" dy="0"/>
      <feGaussianBlur result="n" stdDeviation="0"/>
      <feFlood flood-color="#42496f" flood-opacity="1"/>
      <feComposite in2="n" operator="in"/>
      <feComposite in="SourceGraphic"/>
    </filter>
    <clipPath id="o">
      <path d="M216.259,213.214s1.794-12.647,3.767-18.477c1.973-5.83,3.645-23.051,7.294-26.37,3.649-3.319,3.29-5.284,6.878-4.929s3.05,19.639,3.05,19.639c9.059,1.614,6.727,5.113,10.225,7.176,3.498,2.063,6.099,5.74,6.099,5.74,3.139-4.485,5.471-3.947,6.996-3.05,1.525.897,2.96,10.494,3.408,13.095.448,2.601.966,7.099.966,7.099l-48.683.076Z" fill="none"/>
    </clipPath>
    <clipPath id="p">
      <path d="M236.588,207.391v-14.98h-19.893v14.135c-2.35.632-4.057,2.413-4.057,4.537,0,2.651,2.641,4.8,5.899,4.8,2.048,0,3.849-.85,4.907-2.139,1.06.871,2.398,1.415,3.876,1.415,1.854,0,3.497-.839,4.622-2.139.808.91,2.114,1.509,3.599,1.509,2.458,0,4.45-1.623,4.45-3.625,0-1.707-1.453-3.128-3.403-3.513Z" fill="none"/>
    </clipPath>
    <filter id="q" data-name="drop-shadow-3" x="219.181" y="197.83" width="14.278" height="21.038" filterUnits="userSpaceOnUse">
      <feOffset dx="-2" dy="0"/>
      <feGaussianBlur result="r" stdDeviation="0"/>
      <feFlood flood-color="#42496f" flood-opacity="1"/>
      <feComposite in2="r" operator="in"/>
      <feComposite in="SourceGraphic"/>
    </filter>
    <clipPath id="s">
      <path d="M221.181,217.559s1.785-13.777,3.212-14.991c1.428-2.998,1.356-4.997,3.284-4.711,1.927.286,3.712,6.781,4.283,9.423.949,2.142,1.499,10.279,1.499,10.279h-12.278Z" fill="none"/>
    </clipPath>
  </defs>
  <g isolation="isolate">
    <g id="f" data-name="Calque 21">
      <g>
        <g>
          <g clip-path="url(#g)">
            <g filter="url(#h)">
              <g>
                <path d="M55.781,89.334s9.922-28.339,16.704-31.48h6.425s7.926-7.543,11.279-7.995,13.92,3.355,14.705,5.425c.785,2.07.5,8.994,1.142,10.565.642,1.57,7.21,17.775,8.923,22.414l-59.177,1.071Z" fill="#ffd66e"/>
                <g clip-path="url(#j)">
                  <polygon points="61.595 65.437 113.97 61.973 114.567 64.329 59.239 69.578 61.595 65.437" fill="#efa78e" opacity=".5"/>
                  <polygon points="53.974 79.155 117.157 73.197 117.157 74.859 55.083 81.233 53.974 79.155" fill="#efa78e" opacity=".5"/>
                  <path d="M106.641,58.993c.053-.267-1.919-4.318-3.732-4.584s-2.985.267-3.305,1.599c-.32,1.333-1.653,17.272-2.026,18.658-1.439-2.505-2.825-2.346-3.305-1.599-.48.746-3.945,4.851-4.691,7.463-.746,2.612-1.919,2.476-1.919,2.476,0,0-.492-3.037-2.879.001-2.387,3.039-3.732,7.042-3.732,7.042,0,0,37.049.031,36.889,0s-11.301-31.055-11.301-31.055Z" fill="#f4af13" mix-blend-mode="multiply" opacity=".25"/>
                </g>
              </g>
              <g>
                <path d="M122.953,87.05s-5.711-10.565-6.996-10.85-3.811-.475-5.582.405-4.769,4.092-5.411,5.591c-.642,1.499-3.284,7.852-3.284,7.852l21.272-2.998Z" fill="#f4af13"/>
                <g clip-path="url(#k)">
                  <path d="M124.116,90.65s-6.537-12.547-9.158-12.407-5.758,2.579-5.898,3.206c-.139.627-4.043,9.201-4.043,9.201h19.099Z" fill="#f4af13" mix-blend-mode="multiply" opacity=".5"/>
                </g>
              </g>
            </g>
          </g>
          <path d="M60.267,83.322s.039,5.827,9.134.498c.764,2.477,4.052,2.32,7.342.686-3.8-.018-4.862-3.773-1.281-9.616-17.984,15.746-14.429,7.605-9.34,1.82-5.654,4.746-10.56,6.753-13.887,7.606,1.614.372,4.113.243,8.032-.994Z" fill="#fff" opacity=".5"/>
          <g>
            <g>
              <path d="M65.341,73.929c.109.153.024.33-.081.382-.125.062-.277.023-.344-.094-.071-.124-.03-.28.094-.352.02-.012.042-.02.062-.031.172-.094.19-.088.268.095Z" fill="#fff"/>
              <path d="M61.31,74.178c.114-.054.25-.007.308.107.06.12.012.26-.11.314-.114.051-.253,0-.307-.114-.054-.113-.004-.254.108-.307Z" fill="#fff"/>
              <path d="M63.358,76.061c.096-.045.182-.009.236.1.052.105.011.228-.091.276-.099.046-.216.002-.263-.1-.049-.107,0-.222.117-.277Z" fill="#fff"/>
              <path d="M64.627,76.737c-.1.044-.211.002-.253-.095-.042-.097.003-.209.102-.252.106-.047.225-.007.267.091.042.098-.008.21-.115.257Z" fill="#fff"/>
              <path d="M63.747,74.066c.096-.045.213-.005.258.089.046.096.005.211-.091.256-.098.046-.21.007-.257-.09-.047-.098-.008-.209.09-.256Z" fill="#fff"/>
              <path d="M66.593,75.228c.093-.04.202.007.241.102.036.091-.005.194-.094.235-.094.043-.201.002-.243-.094-.041-.094.002-.203.096-.243Z" fill="#fff"/>
              <path d="M60.815,75.347c-.039-.092,0-.192.092-.234.095-.043.202-.001.242.095.038.092-.002.194-.092.235-.095.043-.201,0-.242-.096Z" fill="#fff"/>
              <path d="M65.884,76.087c-.087.037-.183.001-.215-.08-.033-.085.01-.19.092-.225.085-.037.176,0,.213.084.039.088,0,.183-.09.221Z" fill="#fff"/>
              <path d="M61.398,73.281c.025-.011.048-.025.074-.032.079-.024.14.002.166.08.027.08-.011.135-.086.164-.039.015-.083.017-.123.03-.073.025-.133.013-.162-.062-.03-.076.01-.125.08-.154.018-.007.035-.016.053-.024v-.003Z" fill="#fff"/>
              <path d="M63.064,77.378c-.082.039-.181.007-.218-.071-.037-.079.004-.188.087-.226.077-.036.181.004.215.082.035.081-.002.175-.084.215Z" fill="#fff"/>
              <path d="M63.902,71.721c-.045-.09-.022-.181.055-.222.072-.039.17-.005.209.071.039.077-.019.24-.097.274-.062.027-.11-.009-.166-.123Z" fill="#fff"/>
              <path d="M65.041,72.292c-.083.035-.179-.005-.21-.092-.032-.09-.003-.162.082-.205.082-.041.176-.003.213.083.036.085,0,.178-.085.214Z" fill="#fff"/>
              <path d="M62.472,71.785c.08-.032.179.012.213.095.034.084-.002.169-.085.201-.084.033-.18-.008-.213-.091-.031-.078.009-.175.085-.205Z" fill="#fff"/>
              <path d="M62.318,74.095c-.035-.077,0-.173.075-.209.079-.038.178.003.213.086.032.079-.005.172-.082.205-.076.032-.171-.006-.206-.082Z" fill="#fff"/>
              <path d="M64.184,73.184c.021.072.001.137-.077.175-.072.035-.169-.002-.195-.075-.029-.081-.002-.146.073-.185.07-.036.164.003.199.086Z" fill="#fff"/>
              <path d="M61.86,75.863c-.031.054-.049.125-.094.158-.068.049-.138.009-.172-.062-.036-.074-.012-.152.062-.175.052-.016.12.017.181.029l.023.05Z" fill="#fff"/>
              <path d="M64.103,75.347c.04-.087.053-.148.09-.181.015-.013.103.022.124.056.037.06.011.125-.063.145-.033.009-.073-.009-.152-.02Z" fill="#fff"/>
              <path d="M62.91,76.276c-.068-.043-.127-.059-.137-.091-.011-.034.024-.082.038-.125.042.016.102.021.12.052.017.029-.008.084-.021.164Z" fill="#fff"/>
              <path d="M62.247,75.06c.064.039.117.054.128.083.011.031-.02.077-.033.116-.041-.015-.097-.019-.12-.049-.017-.022.011-.077.025-.15Z" fill="#fff"/>
              <path d="M60.722,73.1c.068.042.123.058.131.087.009.032-.017.089-.046.11-.017.012-.087-.014-.101-.04-.015-.03.006-.078.016-.157Z" fill="#fff"/>
              <path d="M62.547,73.553c.042-.064.058-.117.087-.125.032-.009.075.025.113.04-.015.038-.021.093-.049.11-.026.015-.076-.01-.151-.025Z" fill="#fff"/>
              <path d="M63.162,73.09c.034-.059.046-.109.072-.118.028-.009.087.012.099.036.011.024-.01.084-.034.1-.023.015-.07-.007-.137-.017Z" fill="#fff"/>
              <path d="M62.083,76.632c.035-.058.048-.105.075-.117.024-.01.088.012.093.031.008.032-.005.087-.03.106-.021.015-.07-.008-.138-.02Z" fill="#fff"/>
              <path d="M61.6,76.214c-.037.059-.051.109-.077.117-.029.009-.071-.02-.107-.033.014-.036.018-.086.044-.102.024-.015.071.007.14.018Z" fill="#fff"/>
              <path d="M65.608,73.394c.028-.047.042-.096.064-.1.031-.005.068.023.102.037-.016.034-.024.08-.051.097-.018.012-.062-.017-.115-.034Z" fill="#fff"/>
              <path d="M66.665,74.73c-.048-.034-.097-.051-.1-.074-.004-.031.027-.067.044-.1.03.017.076.028.086.053.01.025-.014.065-.03.121Z" fill="#fff"/>
              <path d="M62.626,75.367c.047.025.093.035.098.056.007.029-.014.066-.023.099-.031-.014-.073-.02-.091-.044-.013-.017.007-.058.016-.11Z" fill="#fff"/>
              <path d="M63.45,75.265c.046.025.082.035.097.058.009.014-.015.07-.028.071-.028.003-.067-.009-.085-.03-.011-.012.007-.052.016-.1Z" fill="#fff"/>
            </g>
            <g>
              <path d="M70.508,75.392c-.039.22-.259.295-.391.25-.157-.054-.25-.215-.207-.37.045-.163.212-.258.377-.213.027.007.052.019.078.027.223.067.233.087.143.307Z" fill="#fff"/>
              <path d="M66.939,72.188c.141.052.215.206.166.35-.051.151-.21.226-.357.169-.138-.054-.21-.214-.159-.355.051-.14.211-.215.351-.164Z" fill="#fff"/>
              <path d="M67.051,75.49c.118.044.159.147.112.283-.045.131-.184.2-.309.153-.122-.045-.182-.181-.135-.305.049-.13.188-.185.332-.131Z" fill="#fff"/>
              <path d="M67.535,77.128c-.121-.048-.178-.177-.13-.294.047-.116.18-.171.298-.124.128.051.193.185.145.301-.048.117-.184.168-.313.117Z" fill="#fff"/>
              <path d="M69.063,74.157c.118.043.181.176.139.293-.042.119-.174.18-.293.136-.121-.045-.181-.172-.138-.293.043-.122.171-.181.292-.137Z" fill="#fff"/>
              <path d="M70.451,77.534c.111.045.163.177.114.289-.047.106-.169.157-.277.116-.115-.044-.169-.168-.123-.284.046-.113.173-.167.286-.121Z" fill="#fff"/>
              <path d="M65.536,72.742c.045-.109.163-.16.275-.117.116.045.169.17.121.284-.046.109-.166.16-.276.118-.115-.045-.168-.169-.12-.285Z" fill="#fff"/>
              <path d="M69.133,77.649c-.104-.042-.153-.153-.111-.248.044-.098.169-.15.267-.11.101.041.147.148.106.251-.042.106-.155.152-.263.108Z" fill="#fff"/>
              <path d="M67.771,71.515c.03.012.061.02.089.036.086.047.115.12.07.207-.045.089-.124.104-.21.064-.045-.021-.083-.056-.128-.079-.082-.041-.121-.102-.083-.189.04-.089.114-.096.196-.061.021.009.043.017.064.025v-.004Z" fill="#fff"/>
              <path d="M65.691,76.338c-.102-.037-.157-.147-.122-.244.036-.097.163-.153.263-.115.095.036.148.156.11.251-.039.097-.15.144-.251.108Z" fill="#fff"/>
              <path d="M71.178,72.335c.039-.113.135-.17.234-.139.093.029.146.14.114.236-.033.097-.219.183-.313.146-.074-.03-.084-.1-.035-.243Z" fill="#fff"/>
              <path d="M71.643,73.775c-.099-.041-.145-.156-.097-.255.05-.103.134-.137.242-.101.103.035.149.147.107.249-.041.101-.152.148-.251.106Z" fill="#fff"/>
              <path d="M69.933,71.177c.094.041.139.162.097.259-.043.099-.145.139-.241.096-.098-.044-.143-.159-.1-.256.041-.092.156-.138.245-.099Z" fill="#fff"/>
              <path d="M67.849,72.972c.036-.093.146-.144.239-.11.098.035.146.153.104.252-.04.093-.15.139-.242.101-.091-.038-.138-.15-.102-.243Z" fill="#fff"/>
              <path d="M70.174,73.792c-.043.078-.114.115-.212.08-.089-.032-.139-.144-.099-.228.044-.092.122-.123.218-.092.089.029.134.141.093.239Z" fill="#fff"/>
              <path d="M65.971,74.056c-.071.019-.147.063-.212.052-.098-.017-.122-.109-.091-.198.033-.092.118-.136.2-.093.057.031.086.116.127.178l-.023.062Z" fill="#fff"/>
              <path d="M68.276,75.526c.106-.039.169-.078.229-.075.024.001.067.106.056.152-.02.082-.096.114-.175.068-.035-.02-.054-.069-.109-.145Z" fill="#fff"/>
              <path d="M66.495,75.29c-.021-.093-.056-.156-.037-.192.02-.037.09-.049.138-.071.021.049.067.104.056.144-.01.039-.078.063-.156.119Z" fill="#fff"/>
              <path d="M66.972,73.716c.02.086.052.144.036.177-.017.035-.082.047-.125.069-.022-.048-.065-.098-.059-.142.005-.032.074-.055.148-.104Z" fill="#fff"/>
              <path d="M67.361,70.792c.021.092.054.153.036.183-.02.034-.089.059-.131.052-.025-.004-.061-.085-.051-.118.012-.038.071-.06.146-.117Z" fill="#fff"/>
              <path d="M68.498,72.714c.089-.018.148-.048.179-.03.034.019.042.084.061.129-.045.019-.096.06-.134.05-.034-.009-.055-.073-.105-.149Z" fill="#fff"/>
              <path d="M69.403,72.85c.078-.021.131-.052.16-.037.031.016.063.084.052.114-.011.03-.079.062-.113.054-.032-.007-.052-.065-.099-.13Z" fill="#fff"/>
              <path d="M65.505,74.886c.079-.019.129-.047.162-.034.029.012.063.085.051.105-.021.034-.078.068-.114.063-.03-.005-.051-.066-.098-.134Z" fill="#fff"/>
              <path d="M65.457,74.129c-.08.018-.134.048-.164.032-.032-.017-.042-.077-.061-.118.042-.018.088-.056.124-.048.033.008.053.066.101.133Z" fill="#fff"/>
              <path d="M71.183,75.172c.063-.015.117-.044.137-.029.03.022.037.077.054.117-.042.015-.088.046-.125.038-.025-.005-.037-.067-.067-.126Z" fill="#fff"/>
              <path d="M70.932,77.181c-.011-.069-.037-.124-.02-.146.023-.029.079-.032.121-.047.011.04.039.087.027.117-.013.03-.067.042-.128.075Z" fill="#fff"/>
              <path d="M67.028,74.293c.018.061.047.108.034.129-.018.031-.067.043-.103.063-.014-.038-.044-.079-.038-.114.004-.025.055-.042.107-.078Z" fill="#fff"/>
              <path d="M67.801,74.904c.016.06.039.099.031.13-.005.019-.071.046-.084.036-.026-.021-.047-.064-.046-.097.001-.02.05-.037.098-.069Z" fill="#fff"/>
            </g>
            <g>
              <path d="M74.607,77.614c-.068.104-.196.094-.254.043-.068-.061-.081-.164-.025-.234.059-.073.164-.085.238-.027.012.009.022.021.034.031.099.082.1.095.006.187Z" fill="#fff"/>
              <path d="M73.485,75.205c.061.057.065.152.008.214-.059.066-.156.07-.219.008-.059-.058-.061-.155-.004-.215.056-.06.154-.064.214-.008Z" fill="#fff"/>
              <path d="M72.825,76.912c.051.048.049.109-.005.169-.052.057-.137.062-.191.011-.052-.05-.053-.132-.002-.185.053-.056.136-.053.198.005Z" fill="#fff"/>
              <path d="M72.715,77.852c-.051-.051-.052-.129-.002-.178.049-.049.129-.048.179.002.054.054.058.136.008.185-.05.049-.13.046-.185-.009Z" fill="#fff"/>
              <path d="M74.14,76.67c.051.048.054.129.007.18-.047.051-.128.054-.179.006-.052-.049-.055-.127-.007-.179.048-.053.126-.055.178-.006Z" fill="#fff"/>
              <path d="M74.113,78.693c.047.047.045.126-.005.172-.047.044-.12.044-.167-.001-.049-.047-.05-.123,0-.171.048-.048.125-.048.172,0Z" fill="#fff"/>
              <path d="M72.649,75.183c.047-.046.118-.046.165,0,.049.048.049.123,0,.171-.047.045-.12.045-.166,0-.049-.048-.049-.123,0-.171Z" fill="#fff"/>
              <path d="M73.416,78.465c-.044-.044-.045-.112-.003-.151.044-.041.119-.04.16.002.043.043.043.107,0,.151-.044.045-.112.044-.157-.002Z" fill="#fff"/>
              <path d="M74.055,75.043c.013.012.027.024.038.037.033.043.032.086-.009.121-.042.035-.086.026-.121-.013-.018-.02-.03-.047-.048-.068-.033-.039-.04-.078-.001-.114.04-.037.079-.024.113.012.009.009.018.018.027.027l.002-.002Z" fill="#fff"/>
              <path d="M71.947,77.049c-.044-.041-.048-.109-.009-.151.039-.042.116-.042.159-.001.041.039.041.112.002.152-.041.041-.108.041-.152,0Z" fill="#fff"/>
              <path d="M75.614,76.201c.045-.049.106-.057.149-.02.041.035.044.103.007.145-.038.042-.151.046-.191.006-.032-.031-.021-.069.035-.132Z" fill="#fff"/>
              <path d="M75.538,77.036c-.041-.043-.04-.111.006-.151.048-.042.098-.041.145.001.045.04.044.107,0,.15-.043.043-.109.042-.151,0Z" fill="#fff"/>
              <path d="M75.23,75.34c.039.042.036.113-.007.153-.043.041-.104.039-.144-.004-.04-.044-.038-.112.005-.152.041-.038.109-.037.146.003Z" fill="#fff"/>
              <path d="M73.778,75.802c.039-.04.106-.042.146-.004.042.039.041.11-.002.151-.041.039-.107.038-.145,0-.038-.039-.038-.106.001-.146Z" fill="#fff"/>
              <path d="M74.785,76.726c-.039.03-.083.034-.126-.005-.039-.036-.039-.104,0-.137.042-.037.089-.036.131,0,.039.034.037.101-.005.142Z" fill="#fff"/>
              <path d="M72.585,75.947c-.04-.006-.088,0-.119-.02-.046-.03-.039-.082-.003-.121.037-.04.09-.044.122-.004.023.028.018.078.026.118l-.025.026Z" fill="#fff"/>
              <path d="M73.441,77.197c.063.003.103-.003.133.012.012.006.011.069-.005.09-.028.037-.074.037-.104-.004-.013-.018-.012-.047-.024-.098Z" fill="#fff"/>
              <path d="M72.585,76.689c.01-.052.006-.092.023-.106.018-.015.056-.005.086-.006,0,.029.011.067-.003.086-.014.018-.053.015-.105.027Z" fill="#fff"/>
              <path d="M73.17,75.991c-.009.048-.005.085-.02.098-.016.014-.052.006-.079.008,0-.029-.012-.064.001-.085.009-.015.049-.012.098-.021Z" fill="#fff"/>
              <path d="M74.004,74.585c-.009.051-.006.089-.021.101-.018.013-.058.011-.078-.002-.012-.007-.013-.057,0-.071.014-.017.049-.015.1-.028Z" fill="#fff"/>
              <path d="M74.165,75.812c.049.01.086.008.098.023.013.017.003.052.003.079-.027,0-.062.01-.079-.003-.016-.012-.012-.049-.021-.099Z" fill="#fff"/>
              <path d="M74.597,76.078c.044.006.078.002.09.016.012.015.014.056.002.069-.012.013-.053.014-.069.003-.015-.011-.013-.045-.022-.088Z" fill="#fff"/>
              <path d="M72.168,76.268c.044.007.076.004.09.018.012.012.014.057.003.065-.018.013-.055.018-.072.007-.014-.009-.012-.045-.021-.09Z" fill="#fff"/>
              <path d="M72.308,75.872c-.045-.008-.079-.005-.09-.019-.013-.016-.005-.048-.006-.073.025,0,.057-.009.073.003.015.011.013.045.023.09Z" fill="#fff"/>
              <path d="M74.999,77.648c.035.006.069.003.076.015.011.018.002.047.002.072-.025-.002-.055.004-.072-.008-.011-.008-.005-.042-.007-.079Z" fill="#fff"/>
              <path d="M74.435,78.618c.009-.037.008-.071.021-.079.018-.01.047,0,.072.003-.003.023.001.053-.012.066-.013.012-.043.007-.081.011Z" fill="#fff"/>
              <path d="M73.073,76.297c-.004.035,0,.065-.011.073-.016.012-.044.007-.066.009,0-.023-.005-.05.005-.066.007-.012.037-.01.072-.016Z" fill="#fff"/>
              <path d="M73.334,76.777c-.005.034-.002.059-.012.073-.007.009-.046.008-.051,0-.009-.016-.01-.043-.002-.059.005-.01.033-.008.065-.014Z" fill="#fff"/>
            </g>
          </g>
        </g>
        <g>
          <g clip-path="url(#l)">
            <g filter="url(#m)">
              <path d="M216.259,213.214s1.794-12.647,3.767-18.477c1.973-5.83,3.645-23.051,7.294-26.37,3.649-3.319,3.29-5.284,6.878-4.929s3.05,19.639,3.05,19.639c9.059,1.614,6.727,5.113,10.225,7.176,3.498,2.063,6.099,5.74,6.099,5.74,3.139-4.485,5.471-3.947,6.996-3.05,1.525.897,2.96,10.494,3.408,13.095.448,2.601.966,7.099.966,7.099l-48.683.076Z" fill="#ffd66e"/>
              <g clip-path="url(#o)">
                <polygon points="219.519 178.401 240.601 176.17 240.601 182.304 213.571 186.207 219.519 178.401" fill="#efa78e" opacity=".5"/>
                <polygon points="216.259 193.271 255.393 191.412 253.906 193.271 215.244 195.501 216.259 193.271" fill="#efa78e" opacity=".5"/>
                <polygon points="268.497 201.356 216.259 199.312 216.259 201.356 268.497 205.446 268.497 201.356" fill="#efa78e" opacity=".5"/>
                <path d="M267.08,215.776s-2.484-17.745-7.996-18.764c-5.513-1.019-4.691,4.265-4.691,4.265-1.676-.968-1.653,1.546-2.239,2.346-2.609-.368-3.252-4.051-5.331-4.904-2.079-.853-5.651-9.507-10.182-10.413,0-6.592-1.226-19.279-2.399-19.439-1.173-.16-2.452,4.638-4.265,6.61-1.812,1.972-3.138,37.955-3.412,40.78l40.514-.48Z" fill="#f4af13" mix-blend-mode="multiply" opacity=".25"/>
              </g>
            </g>
          </g>
          <g opacity=".5">
            <path d="M210.769,208.091c3.606.078,6.019-1.972,6.019-1.972,0,0-1.058,4.634,3.684,3.58,2.646-.588,4.929-2.439,4.929-2.439,0,0,.775,3.627,9.214,2.213-.16-.145-.251-.245-.251-.245-10.339.458-8.049-7.721-8.049-7.721,0,0-5.497,5.889-7.394,5.235-1.897-.654.524-6.674.524-6.674-3.087,3.704-7.899,5.56-10.252,6.289-.121.938.204,1.705,1.577,1.735Z" fill="#fff"/>
            <path d="M263.899,210.218c4.782,1.316,6.364.428,6.878-.441-4.79-.647-8.538-4.264-8.538-4.264,0,0,2.29,4.294-1.57,4.893-.837.13-1.648.106-2.417.016,3.029,1.472,5.647-.205,5.647-.205Z" fill="#fff"/>
          </g>
          <g>
            <g>
              <path d="M225.433,199.346c.188-.217.481-.154.596-.018.137.162.134.402-.016.544-.158.15-.404.144-.556-.014-.024-.025-.045-.055-.069-.081-.201-.221-.199-.25.045-.432Z" fill="#fff"/>
              <path d="M227.249,205.23c-.122-.15-.1-.369.048-.495.156-.133.381-.11.505.05.117.151.09.374-.059.495-.148.121-.375.098-.495-.05Z" fill="#fff"/>
              <path d="M229.305,201.519c-.101-.127-.078-.266.064-.385.137-.115.335-.099.442.035.104.13.081.319-.053.425-.14.111-.329.08-.452-.075Z" fill="#fff"/>
              <path d="M229.853,199.396c.101.133.079.312-.051.409-.129.097-.311.07-.411-.06-.108-.141-.09-.331.039-.428.13-.098.313-.064.422.079Z" fill="#fff"/>
              <path d="M226.209,201.659c-.101-.126-.083-.313.04-.415.125-.103.311-.084.412.044.103.129.086.309-.041.413-.128.105-.307.087-.411-.042Z" fill="#fff"/>
              <path d="M226.909,197.023c-.092-.123-.062-.303.065-.393.121-.086.29-.062.382.055.098.124.075.297-.052.394-.125.095-.301.07-.395-.055Z" fill="#fff"/>
              <path d="M229.16,205.545c-.122.091-.285.068-.38-.053-.098-.126-.074-.298.055-.393.122-.089.289-.066.381.052.098.125.073.297-.056.393Z" fill="#fff"/>
              <path d="M228.437,197.767c.086.115.068.27-.042.347-.113.079-.285.054-.367-.055-.085-.112-.064-.26.049-.346.116-.089.271-.065.36.054Z" fill="#fff"/>
              <path d="M225.888,205.422c-.025-.032-.054-.063-.075-.098-.063-.109-.047-.208.06-.275.108-.068.205-.033.274.068.036.053.055.117.089.171.064.099.067.192-.034.262-.102.072-.188.03-.256-.063-.017-.024-.036-.047-.054-.07l-.004.003Z" fill="#fff"/>
              <path d="M231.362,201.483c.088.108.076.266-.026.349-.104.084-.28.061-.366-.047-.081-.102-.06-.27.044-.348.107-.081.261-.06.348.047Z" fill="#fff"/>
              <path d="M222.677,202.27c-.118.098-.261.098-.349-.002-.083-.094-.069-.251.031-.335.1-.085.362-.057.441.046.062.082.027.166-.123.291Z" fill="#fff"/>
              <path d="M223.116,200.378c.081.111.056.268-.061.345-.122.08-.238.063-.333-.049-.091-.107-.067-.26.047-.345.113-.084.265-.063.347.049Z" fill="#fff"/>
              <path d="M223.285,204.367c-.076-.108-.046-.27.065-.349.113-.08.251-.057.329.054.079.113.052.27-.059.348-.105.074-.263.049-.335-.052Z" fill="#fff"/>
              <path d="M226.764,203.766c-.101.079-.256.062-.336-.036-.084-.103-.06-.265.051-.346.105-.076.257-.055.333.048.075.102.053.256-.048.335Z" fill="#fff"/>
              <path d="M224.745,201.328c.098-.057.202-.051.287.052.077.094.058.251-.041.316-.109.072-.216.055-.301-.042-.079-.09-.054-.244.056-.325Z" fill="#fff"/>
              <path d="M229.549,203.811c.091.026.203.027.268.083.097.084.063.201-.031.278-.097.079-.22.072-.281-.029-.043-.072-.017-.185-.022-.279l.066-.053Z" fill="#fff"/>
              <path d="M227.98,200.671c-.143-.028-.238-.025-.301-.069-.025-.017-.004-.161.039-.205.076-.077.181-.062.238.041.025.046.013.111.024.232Z" fill="#fff"/>
              <path d="M229.785,202.106c-.039.117-.042.209-.085.236-.046.028-.131-.006-.199-.012.009-.068-.005-.158.033-.196.037-.036.128-.018.25-.028Z" fill="#fff"/>
              <path d="M228.22,203.525c.035-.108.037-.193.077-.219.042-.027.121.002.183.007-.007.067.007.151-.029.195-.026.032-.117.012-.232.017Z" fill="#fff"/>
              <path d="M225.863,206.488c.038-.115.041-.204.081-.225.044-.024.138-.006.179.029.025.021.011.134-.022.164-.039.033-.118.02-.238.033Z" fill="#fff"/>
              <path d="M225.879,203.622c-.109-.039-.194-.045-.217-.085-.024-.044.01-.12.018-.182.062.009.146-.003.181.033.032.033.012.117.018.233Z" fill="#fff"/>
              <path d="M224.972,202.875c-.1-.029-.178-.029-.201-.064-.024-.038-.014-.134.018-.159.032-.026.127-.016.16.015.03.029.015.106.023.209Z" fill="#fff"/>
              <path d="M230.609,203.205c-.099-.031-.173-.033-.2-.069-.024-.032-.013-.136.013-.149.045-.024.131-.023.167.006.03.025.013.107.02.212Z" fill="#fff"/>
              <path d="M230.163,204.07c.1.033.179.036.201.073.024.04-.004.112-.01.17-.058-.008-.134.004-.167-.029-.031-.03-.015-.108-.024-.214Z" fill="#fff"/>
              <path d="M224.545,199.142c-.079-.025-.158-.028-.171-.059-.019-.045.01-.109.018-.165.056.012.127.008.162.041.024.022-.003.098-.009.183Z" fill="#fff"/>
              <path d="M226.146,197.095c-.033.083-.041.162-.074.174-.044.017-.109-.017-.164-.029.015-.051.014-.122.048-.147.034-.024.101-.002.19.001Z" fill="#fff"/>
              <path d="M228.54,202.853c.021-.079.019-.15.047-.165.04-.021.102-.003.155,0-.009.052-.004.116-.033.151-.021.025-.088.01-.169.015Z" fill="#fff"/>
              <path d="M228.092,201.669c.021-.077.022-.135.051-.164.018-.018.109-.003.116.016.015.04.01.102-.014.137-.014.021-.079.008-.154.011Z" fill="#fff"/>
            </g>
            <g>
              <path d="M220.917,197.928c.173-.102.352.005.398.12.055.138,0,.295-.131.356-.138.064-.299.006-.365-.132-.011-.022-.017-.046-.027-.069-.084-.191-.076-.209.126-.276Z" fill="#fff"/>
              <path d="M220.814,202.225c-.047-.126.015-.266.142-.317.133-.053.277.011.323.145.044.126-.023.268-.149.315-.125.047-.269-.018-.316-.143Z" fill="#fff"/>
              <path d="M222.997,200.225c-.039-.106.007-.194.128-.241.116-.046.243.009.285.121.04.109-.018.229-.13.27-.117.042-.235-.02-.283-.15Z" fill="#fff"/>
              <path d="M223.83,198.941c.038.11-.017.224-.124.26-.107.035-.221-.023-.258-.131-.04-.117.013-.239.121-.274.108-.036.222.027.262.146Z" fill="#fff"/>
              <path d="M220.917,199.631c-.039-.106.014-.226.118-.266.106-.041.224.014.263.12.04.108-.012.223-.119.264-.108.041-.223-.01-.263-.119Z" fill="#fff"/>
              <path d="M222.408,196.718c-.034-.102.026-.214.13-.246.1-.03.205.023.241.121.037.104-.016.213-.122.249-.104.035-.215-.021-.249-.124Z" fill="#fff"/>
              <path d="M222.009,202.857c-.101.033-.204-.018-.24-.119-.037-.105.017-.214.123-.248.101-.032.206.02.241.119.037.105-.018.213-.124.248Z" fill="#fff"/>
              <path d="M223.255,197.549c.032.095-.015.194-.105.22-.093.027-.2-.028-.231-.118-.031-.093.015-.186.109-.218.097-.033.194.017.226.116Z" fill="#fff"/>
              <path d="M219.871,202.05c-.009-.027-.022-.053-.028-.081-.018-.086.015-.148.1-.169.087-.021.143.024.166.106.012.043.01.09.021.133.02.08.001.142-.081.166-.084.025-.131-.022-.156-.098-.006-.02-.013-.039-.02-.058h-.003Z" fill="#fff"/>
              <path d="M224.367,200.657c.034.091-.009.193-.095.225-.087.032-.199-.022-.232-.112-.031-.085.02-.192.107-.221.089-.03.186.018.22.108Z" fill="#fff"/>
              <path d="M218.445,199.252c-.1.039-.194.007-.231-.079-.034-.08.01-.181.095-.215.085-.034.252.042.282.128.023.068-.019.116-.146.165Z" fill="#fff"/>
              <path d="M219.154,198.097c.029.091-.022.19-.117.215-.099.026-.172-.011-.209-.106-.036-.091.013-.187.107-.218.093-.031.189.017.219.11Z" fill="#fff"/>
              <path d="M218.382,200.775c-.026-.088.03-.189.12-.217.092-.028.179.018.206.108.027.092-.025.19-.116.217-.086.026-.185-.026-.21-.109Z" fill="#fff"/>
              <path d="M220.818,201.149c-.085.03-.183-.016-.215-.099-.033-.087.019-.189.111-.218.087-.027.182.021.21.106.027.084-.022.181-.106.211Z" fill="#fff"/>
              <path d="M220.022,199.087c.078-.016.145.011.178.098.03.079-.017.179-.097.2-.088.023-.155-.011-.19-.095-.032-.077.018-.173.109-.203Z" fill="#fff"/>
              <path d="M222.651,201.796c.054.037.128.063.159.115.045.077-.003.147-.082.177-.082.031-.162-.001-.18-.082-.012-.057.029-.126.047-.19l.056-.02Z" fill="#fff"/>
              <path d="M222.308,199.37c-.088-.05-.152-.069-.184-.112-.013-.017.033-.108.071-.127.067-.034.134,0,.148.08.007.036-.016.077-.035.159Z" fill="#fff"/>
              <path d="M223.185,200.72c-.051.069-.074.129-.109.137-.037.009-.085-.033-.129-.052.021-.043.032-.106.066-.122.032-.016.088.017.172.037Z" fill="#fff"/>
              <path d="M221.835,201.312c.047-.064.067-.12.1-.128.034-.009.079.028.12.045-.02.043-.029.101-.062.122-.025.016-.08-.018-.157-.04Z" fill="#fff"/>
              <path d="M219.618,202.75c.051-.068.072-.126.104-.131.035-.006.092.026.112.059.012.019-.022.091-.051.103-.033.014-.083-.013-.165-.031Z" fill="#fff"/>
              <path d="M220.264,200.857c-.064-.05-.119-.073-.125-.104-.006-.034.033-.077.052-.116.039.02.097.031.113.062.014.029-.018.08-.04.158Z" fill="#fff"/>
              <path d="M219.829,200.162c-.06-.041-.112-.059-.119-.087-.007-.03.02-.092.047-.102.027-.01.088.018.102.045.014.026-.014.074-.031.143Z" fill="#fff"/>
              <path d="M223.487,201.63c-.059-.043-.107-.06-.117-.09-.009-.026.021-.093.042-.096.035-.006.092.014.109.041.014.023-.015.074-.034.145Z" fill="#fff"/>
              <path d="M222.999,202.103c.059.044.111.064.117.093.007.032-.028.073-.044.11-.036-.018-.09-.027-.104-.056-.014-.027.014-.075.032-.147Z" fill="#fff"/>
              <path d="M220.374,197.597c-.047-.034-.098-.054-.1-.077-.003-.034.031-.07.048-.105.034.02.082.033.098.063.011.02-.024.064-.047.119Z" fill="#fff"/>
              <path d="M221.887,196.597c-.04.048-.063.098-.088.099-.033.001-.068-.035-.102-.055.021-.03.037-.078.064-.087.028-.009.068.021.126.043Z" fill="#fff"/>
              <path d="M222.195,200.938c.031-.048.046-.095.068-.099.032-.005.068.021.103.034-.018.032-.028.076-.055.092-.019.012-.061-.013-.116-.027Z" fill="#fff"/>
              <path d="M222.161,200.055c.031-.046.044-.084.07-.097.016-.008.073.022.073.036.001.03-.016.07-.039.087-.014.011-.054-.012-.104-.027Z" fill="#fff"/>
            </g>
            <g>
              <path d="M214.203,202.677c-.198-.158-.154-.418-.038-.525.138-.127.349-.133.48-.006.138.134.143.351.009.491-.021.023-.047.042-.069.064-.187.186-.213.185-.383-.023Z" fill="#fff"/>
              <path d="M219.323,200.853c-.128.113-.321.102-.438-.024-.123-.133-.112-.332.025-.447.129-.109.327-.094.439.033.112.126.1.327-.026.438Z" fill="#fff"/>
              <path d="M215.973,199.181c-.108.094-.232.079-.342-.042-.106-.116-.1-.291.014-.391.111-.097.279-.083.377.031.103.12.083.287-.049.402Z" fill="#fff"/>
              <path d="M214.08,198.779c.113-.094.272-.082.363.029.09.11.074.271-.037.364-.12.1-.288.092-.379-.018-.091-.111-.068-.274.053-.375Z" fill="#fff"/>
              <path d="M216.214,201.905c-.107.094-.273.085-.367-.019-.096-.106-.085-.271.023-.365.11-.096.269-.087.366.021.098.109.088.268-.021.364Z" fill="#fff"/>
              <path d="M212.099,201.464c-.105.086-.264.067-.349-.043-.081-.104-.066-.253.034-.339.106-.091.259-.077.349.031.088.107.073.263-.034.35Z" fill="#fff"/>
              <path d="M219.528,199.157c.085.104.071.249-.032.337-.107.091-.26.077-.348-.033-.083-.104-.069-.252.032-.338.107-.091.259-.076.349.035Z" fill="#fff"/>
              <path d="M212.697,200.089c.098-.08.236-.07.307.024.074.097.058.249-.035.326-.096.079-.227.066-.307-.03-.083-.099-.068-.236.034-.32Z" fill="#fff"/>
              <path d="M219.543,202.046c-.028.023-.053.05-.083.069-.093.06-.181.049-.244-.042-.064-.093-.037-.179.05-.244.045-.034.101-.053.148-.085.085-.06.167-.066.233.02.067.088.034.165-.046.228-.02.016-.04.033-.059.05l.003.003Z" fill="#fff"/>
              <path d="M215.863,197.369c.092-.082.232-.077.308.01.078.088.064.245-.028.324-.087.075-.236.063-.309-.026-.075-.091-.063-.228.028-.309Z" fill="#fff"/>
              <path d="M216.886,204.997c.091.1.096.226.012.308-.079.077-.218.07-.297-.014-.079-.085-.064-.317.024-.391.07-.058.146-.03.261.097Z" fill="#fff"/>
              <path d="M215.201,204.682c.094-.076.234-.06.306.041.075.105.064.208-.03.295-.091.084-.227.069-.306-.028-.079-.096-.065-.231.03-.308Z" fill="#fff"/>
              <path d="M218.712,204.381c-.092.071-.237.051-.31-.044-.075-.096-.06-.219.035-.292.096-.074.236-.056.309.039.069.09.053.23-.034.297Z" fill="#fff"/>
              <path d="M218.05,201.336c.073.086.064.224-.019.298-.088.078-.232.063-.307-.032-.071-.09-.058-.225.03-.296.087-.07.224-.056.297.03Z" fill="#fff"/>
              <path d="M215.977,203.209c-.054-.085-.053-.176.035-.255.08-.072.219-.06.28.024.068.093.057.188-.026.267-.077.073-.213.057-.289-.037Z" fill="#fff"/>
              <path d="M217.984,198.879c.019-.081.016-.18.063-.239.07-.088.175-.063.246.017.074.082.072.192-.015.249-.062.041-.162.022-.245.03l-.049-.057Z" fill="#fff"/>
              <path d="M215.275,200.382c-.019.127-.013.211-.049.268-.014.023-.142.01-.182-.027-.071-.064-.061-.157.027-.211.039-.024.098-.016.204-.03Z" fill="#fff"/>
              <path d="M216.472,198.736c.104.03.186.029.211.066.027.04,0,.115-.003.176-.06-.005-.139.01-.174-.022-.033-.031-.02-.112-.034-.22Z" fill="#fff"/>
              <path d="M217.783,200.062c-.097-.027-.172-.026-.196-.06-.026-.036-.003-.106,0-.162.059.004.133-.011.173.018.029.022.015.103.024.204Z" fill="#fff"/>
              <path d="M220.485,202.028c-.103-.029-.181-.029-.202-.063-.023-.038-.011-.121.019-.159.017-.022.118-.015.145.014.031.033.022.103.038.209Z" fill="#fff"/>
              <path d="M217.956,202.122c-.03.098-.032.173-.067.194-.037.023-.106-.004-.161-.009.006-.055-.008-.128.022-.161.027-.03.102-.015.205-.024Z" fill="#fff"/>
              <path d="M217.332,202.95c-.022.089-.019.158-.049.18-.032.022-.117.017-.141-.01-.024-.027-.019-.112.007-.141.024-.028.093-.017.183-.029Z" fill="#fff"/>
              <path d="M217.41,197.967c-.024.089-.022.154-.054.179-.027.022-.119.017-.132-.006-.023-.039-.026-.115,0-.148.021-.027.094-.016.186-.026Z" fill="#fff"/>
              <path d="M218.189,198.329c.025-.09.025-.159.056-.18.035-.023.099,0,.15.002-.005.051.008.118-.019.149-.026.028-.094.017-.188.029Z" fill="#fff"/>
              <path d="M214.057,203.468c-.019.071-.019.14-.045.153-.039.018-.096-.004-.146-.01.008-.05.002-.112.03-.145.019-.022.087-.001.161.001Z" fill="#fff"/>
              <path d="M212.192,202.134c.075.026.144.03.157.059.017.039-.011.096-.019.146-.045-.011-.108-.008-.131-.037-.023-.029-.006-.089-.006-.168Z" fill="#fff"/>
              <path d="M217.178,199.805c-.071-.015-.133-.011-.147-.035-.02-.035-.006-.09-.007-.137.046.006.102-.001.134.023.023.017.012.078.02.149Z" fill="#fff"/>
              <path d="M216.151,200.245c-.069-.016-.12-.014-.147-.039-.017-.015-.007-.096.01-.103.035-.015.09-.013.121.007.019.012.01.069.016.135Z" fill="#fff"/>
            </g>
          </g>
          <g>
            <g>
              <path d="M257.114,206.592c.248.085.295.354.22.498-.09.172-.294.251-.466.173-.181-.082-.261-.292-.179-.475.013-.029.031-.057.045-.086.117-.246.143-.254.381-.11Z" fill="#fff"/>
              <path d="M252.758,210.149c.085-.155.277-.212.435-.129.166.087.224.285.131.444-.088.151-.286.205-.439.121-.153-.084-.211-.283-.127-.436Z" fill="#fff"/>
              <path d="M256.604,210.614c.072-.129.199-.158.348-.079.144.076.199.249.122.386-.074.133-.243.178-.378.101-.142-.081-.18-.251-.092-.408Z" fill="#fff"/>
              <path d="M258.589,210.348c-.077.131-.237.174-.364.098-.126-.076-.166-.239-.09-.368.082-.139.249-.19.375-.114.127.077.162.243.079.384Z" fill="#fff"/>
              <path d="M255.422,208.043c.072-.129.237-.178.365-.109.13.07.177.234.105.364-.074.132-.232.178-.364.107-.133-.072-.179-.23-.106-.362Z" fill="#fff"/>
              <path d="M259.585,207.043c.072-.12.235-.157.355-.08.115.073.152.224.085.342-.071.126-.226.166-.351.091-.123-.073-.162-.231-.089-.353Z" fill="#fff"/>
              <path d="M253.148,211.874c-.119-.072-.155-.218-.086-.339.073-.126.227-.165.351-.088.117.073.155.221.087.34-.073.126-.226.164-.352.087Z" fill="#fff"/>
              <path d="M259.481,208.591c-.068.113-.205.15-.308.084-.106-.069-.143-.223-.079-.33.066-.11.198-.143.309-.078.115.068.148.207.078.324Z" fill="#fff"/>
              <path d="M252.128,209.064c.019-.032.034-.067.057-.097.07-.091.159-.111.253-.044.095.068.098.162.036.255-.032.049-.08.087-.114.134-.062.088-.14.122-.234.062-.096-.062-.09-.149-.035-.239.014-.023.027-.046.041-.069l-.004-.002Z" fill="#fff"/>
              <path d="M257.341,212.343c-.061.112-.199.156-.304.097-.106-.059-.148-.216-.086-.326.058-.104.208-.143.31-.082.105.063.14.2.08.311Z" fill="#fff"/>
              <path d="M253.693,205.264c-.124-.066-.172-.187-.118-.296.051-.103.189-.144.294-.089.106.056.173.286.113.389-.048.081-.131.08-.288-.004Z" fill="#fff"/>
              <path d="M255.444,204.986c-.066.107-.207.14-.313.067-.11-.076-.135-.18-.073-.298.06-.113.197-.146.308-.079.11.066.144.202.077.31Z" fill="#fff"/>
              <path d="M252.127,206.499c.065-.101.213-.132.318-.065.106.068.135.193.067.297-.068.105-.21.137-.314.07-.099-.064-.132-.205-.071-.301Z" fill="#fff"/>
              <path d="M253.83,209.237c-.101-.059-.14-.195-.085-.297.058-.107.204-.142.311-.075.101.063.135.199.074.299-.06.099-.198.133-.3.074Z" fill="#fff"/>
              <path d="M255.2,206.691c.082.064.113.153.055.26-.053.098-.192.135-.281.074-.098-.068-.121-.164-.068-.269.049-.098.188-.129.294-.064Z" fill="#fff"/>
              <path d="M254.749,211.608c.009.086.047.181.021.255-.038.11-.148.122-.246.069-.1-.055-.137-.162-.072-.248.046-.061.15-.078.229-.115l.067.038Z" fill="#fff"/>
              <path d="M256.867,209.202c-.026-.13-.06-.21-.045-.278.006-.027.135-.059.186-.037.091.038.114.132.047.215-.03.037-.09.05-.188.1Z" fill="#fff"/>
              <path d="M256.272,211.222c-.112.007-.191.036-.229.009-.04-.029-.04-.113-.058-.172.06-.016.132-.058.177-.039.043.019.059.102.109.202Z" fill="#fff"/>
              <path d="M254.534,210.386c.104-.008.176-.035.212-.01.037.026.04.103.057.157-.059.017-.126.057-.175.042-.036-.011-.05-.095-.094-.19Z" fill="#fff"/>
              <path d="M251.217,209.409c.11-.007.186-.035.219-.009.036.029.053.114.037.162-.009.028-.11.056-.146.037-.042-.021-.057-.093-.11-.19Z" fill="#fff"/>
              <path d="M253.649,208.438c-.004-.106-.029-.18-.003-.213.028-.036.105-.033.16-.047.014.056.052.122.034.165-.016.038-.095.05-.192.095Z" fill="#fff"/>
              <path d="M253.969,207.414c-.01-.094-.037-.161-.015-.192.024-.033.108-.058.141-.04.033.018.057.102.042.14-.014.036-.085.049-.168.091Z" fill="#fff"/>
              <path d="M255.626,212.297c-.008-.095-.032-.158-.01-.193.019-.031.11-.058.131-.04.036.03.065.103.052.144-.011.034-.086.048-.173.09Z" fill="#fff"/>
              <path d="M254.74,212.216c.006.096.031.164.008.195-.026.034-.096.035-.147.05-.013-.051-.049-.112-.033-.152.015-.036.086-.05.173-.093Z" fill="#fff"/>
              <path d="M256.981,205.77c-.006-.076-.031-.143-.009-.165.031-.031.096-.029.146-.041.009.051.037.11.021.151-.011.028-.084.031-.158.055Z" fill="#fff"/>
              <path d="M259.262,206.422c-.082,0-.151.021-.173-.003-.03-.032-.023-.098-.032-.149.048-.005.108-.03.141-.01.032.02.037.085.064.161Z" fill="#fff"/>
              <path d="M255.213,210.425c.074-.01.133-.035.156-.017.032.027.037.086.054.131-.047.01-.099.037-.139.024-.028-.009-.039-.071-.071-.138Z" fill="#fff"/>
              <path d="M256.061,209.64c.072-.008.122-.028.156-.013.021.009.04.091.026.104-.029.026-.083.043-.12.035-.023-.005-.034-.064-.062-.126Z" fill="#fff"/>
            </g>
            <g>
              <path d="M262.83,206.561c.128.148.056.339-.047.404-.123.076-.284.05-.365-.065-.086-.121-.057-.287.064-.374.02-.014.041-.025.061-.038.169-.114.188-.109.287.073Z" fill="#fff"/>
              <path d="M258.681,207.201c.113-.067.259-.031.329.082.074.119.037.268-.084.336-.114.064-.262.024-.328-.089-.067-.112-.029-.262.083-.329Z" fill="#fff"/>
              <path d="M260.979,208.957c.095-.056.187-.026.254.081.064.104.034.235-.068.295-.098.057-.223.023-.281-.078-.061-.106-.021-.23.095-.298Z" fill="#fff"/>
              <path d="M262.357,209.537c-.1.055-.218.022-.271-.075-.052-.096-.016-.217.081-.271.106-.059.232-.028.285.069.053.098.012.218-.095.277Z" fill="#fff"/>
              <path d="M261.193,206.855c.095-.056.22-.025.276.068.057.095.025.218-.07.274-.097.057-.217.027-.275-.069-.058-.097-.028-.216.069-.273Z" fill="#fff"/>
              <path d="M264.25,207.788c.092-.05.21-.012.259.083.046.091.013.201-.075.252-.093.054-.208.021-.26-.075-.051-.094-.017-.21.077-.261Z" fill="#fff"/>
              <path d="M258.278,208.459c-.049-.091-.018-.199.073-.251.095-.054.209-.02.259.076.048.091.016.201-.073.252-.094.053-.208.02-.259-.077Z" fill="#fff"/>
              <path d="M263.597,208.744c-.086.047-.189.019-.23-.063-.042-.084-.008-.197.074-.242.084-.046.182-.017.228.067.048.087.017.189-.073.238Z" fill="#fff"/>
              <path d="M258.686,206.264c.024-.014.048-.03.073-.041.079-.032.145-.011.179.068.035.08.002.141-.073.178-.039.019-.085.025-.124.043-.073.033-.136.026-.174-.049-.038-.076-.002-.13.068-.167.018-.009.035-.02.052-.029l-.002-.003Z" fill="#fff"/>
              <path d="M260.8,210.348c-.081.049-.187.025-.233-.052-.046-.078-.013-.195.068-.242.077-.045.188-.013.231.064.044.08.014.182-.066.23Z" fill="#fff"/>
              <path d="M261.132,204.411c-.055-.089-.04-.186.036-.235.071-.047.176-.021.223.054.047.076.003.25-.075.293-.061.034-.115.002-.184-.112Z" fill="#fff"/>
              <path d="M262.364,204.895c-.083.044-.186.011-.227-.075-.042-.091-.019-.167.066-.22.081-.05.182-.019.228.066.046.084.016.185-.068.229Z" fill="#fff"/>
              <path d="M259.657,204.613c.08-.041.187-.004.229.078.043.084.014.175-.069.216-.084.042-.187.008-.229-.074-.039-.078-.007-.182.069-.221Z" fill="#fff"/>
              <path d="M259.716,207.02c-.043-.076-.016-.179.058-.223.078-.047.185-.014.228.069.041.079.011.179-.066.22-.076.041-.178.01-.221-.066Z" fill="#fff"/>
              <path d="M261.562,205.9c.029.072.014.141-.063.188-.071.043-.175.014-.209-.059-.038-.081-.016-.151.058-.199.069-.044.17-.012.214.07Z" fill="#fff"/>
              <path d="M259.409,208.894c-.026.059-.039.134-.083.172-.066.057-.142.023-.184-.048-.044-.073-.027-.156.048-.187.053-.022.126.007.191.013l.029.05Z" fill="#fff"/>
              <path d="M261.683,208.147c.033-.094.041-.158.076-.196.014-.015.109.013.134.047.044.059.024.128-.051.156-.033.012-.076-.002-.159-.007Z" fill="#fff"/>
              <path d="M260.536,209.222c-.075-.038-.137-.049-.151-.081-.015-.034.017-.088.028-.133.045.013.107.012.129.042.021.028,0,.088-.006.172Z" fill="#fff"/>
              <path d="M259.734,208.026c.07.034.127.044.14.074.014.031-.013.081-.023.123-.044-.012-.103-.011-.129-.039-.019-.021.004-.08.011-.158Z" fill="#fff"/>
              <path d="M257.97,206.141c.074.037.133.048.144.077.012.032-.009.093-.037.118-.016.015-.092-.006-.108-.031-.019-.029-.002-.082.001-.164Z" fill="#fff"/>
              <path d="M259.902,206.437c.037-.07.049-.127.079-.138.032-.012.08.018.121.03-.012.041-.013.099-.04.119-.025.018-.08-.004-.159-.011Z" fill="#fff"/>
              <path d="M260.495,205.9c.029-.064.037-.118.063-.129.028-.012.092.004.106.028.014.024-.002.087-.026.106-.023.018-.073,0-.143-.005Z" fill="#fff"/>
              <path d="M259.713,209.669c.031-.064.039-.113.067-.128.024-.013.093.005.099.024.012.033.003.091-.021.112-.02.018-.073-.002-.145-.007Z" fill="#fff"/>
              <path d="M259.174,209.282c-.032.064-.042.117-.069.128-.03.012-.075-.014-.114-.024.011-.038.011-.091.036-.11.023-.018.074,0,.146.005Z" fill="#fff"/>
              <path d="M263.056,205.982c.025-.051.035-.104.056-.109.032-.008.073.017.109.028-.013.036-.018.085-.044.105-.017.014-.066-.012-.122-.025Z" fill="#fff"/>
              <path d="M264.277,207.266c-.053-.03-.105-.044-.11-.067-.007-.032.022-.072.036-.108.033.015.081.022.094.047.013.025-.009.069-.02.128Z" fill="#fff"/>
              <path d="M260.156,208.308c.052.022.099.028.107.048.01.029-.008.069-.015.105-.034-.011-.078-.014-.098-.037-.015-.016.002-.061.007-.116Z" fill="#fff"/>
              <path d="M260.999,208.124c.05.022.089.028.106.051.01.014-.009.074-.022.077-.029.006-.07-.003-.091-.023-.013-.012.003-.054.008-.105Z" fill="#fff"/>
            </g>
            <g>
              <path d="M269.1,205.505c.081.247-.104.445-.263.471-.19.031-.374-.083-.415-.266-.043-.192.076-.381.269-.425.031-.007.063-.009.095-.016.265-.054.286-.038.314.236Z" fill="#fff"/>
              <path d="M263.688,204.18c.173-.025.333.093.362.267.03.183-.091.347-.273.369-.171.02-.333-.104-.357-.276-.025-.171.098-.336.269-.36Z" fill="#fff"/>
              <path d="M265.614,207.5c.145-.02.243.063.27.229.026.159-.079.306-.233.327-.15.02-.285-.086-.305-.239-.021-.16.091-.292.268-.316Z" fill="#fff"/>
              <path d="M267.007,208.912c-.15.017-.279-.083-.294-.23-.015-.145.09-.274.237-.291.159-.018.299.083.314.229.015.147-.096.273-.257.291Z" fill="#fff"/>
              <path d="M266.944,205.032c.145-.02.282.081.304.224.022.145-.08.28-.226.3-.148.02-.279-.077-.302-.224-.022-.148.075-.279.224-.3Z" fill="#fff"/>
              <path d="M270.217,207.73c.138-.014.264.092.275.233.011.134-.086.254-.22.271-.142.019-.265-.08-.281-.224-.015-.141.086-.266.227-.281Z" fill="#fff"/>
              <path d="M262.556,205.517c-.014-.137.08-.253.217-.27.143-.018.266.081.279.225.012.136-.083.255-.218.271-.143.017-.265-.081-.279-.226Z" fill="#fff"/>
              <path d="M268.93,208.57c-.13.013-.241-.073-.25-.194-.009-.125.091-.246.214-.259.126-.014.232.071.246.199.015.131-.075.241-.21.254Z" fill="#fff"/>
              <path d="M264.172,203.034c.037-.004.074-.013.111-.012.114.001.183.06.185.174.002.116-.07.174-.18.18-.058.003-.116-.012-.174-.01-.107.003-.18-.038-.188-.148-.008-.113.064-.16.168-.17.026-.002.053-.006.079-.009v-.004Z" fill="#fff"/>
              <path d="M264.686,209.114c-.125.018-.242-.065-.258-.183-.017-.119.083-.246.207-.262.117-.016.237.079.25.196.013.12-.075.23-.198.248Z" fill="#fff"/>
              <path d="M268.111,202.006c-.022-.137.045-.248.164-.27.111-.021.227.063.246.18.019.117-.124.308-.241.321-.092.011-.141-.056-.169-.23Z" fill="#fff"/>
              <path d="M269.376,203.226c-.124.012-.234-.081-.239-.207-.005-.132.062-.214.192-.236.125-.02.233.069.246.197.013.127-.074.235-.199.246Z" fill="#fff"/>
              <path d="M266.2,201.504c.119-.009.231.09.241.212.01.125-.072.222-.194.23-.124.009-.234-.085-.243-.207-.009-.116.084-.227.196-.235Z" fill="#fff"/>
              <path d="M265.05,204.484c-.014-.115.071-.228.185-.244.119-.017.234.077.245.201.01.117-.077.225-.192.236-.114.011-.223-.078-.237-.193Z" fill="#fff"/>
              <path d="M267.881,204.049c-.001.103-.054.181-.173.199-.109.016-.221-.072-.226-.179-.005-.118.057-.193.173-.214.107-.019.215.072.226.194Z" fill="#fff"/>
              <path d="M263.721,206.625c-.062.059-.116.145-.189.169-.11.036-.185-.044-.201-.153-.017-.112.046-.205.153-.205.076,0,.151.072.227.112l.01.076Z" fill="#fff"/>
              <path d="M266.888,206.866c.088-.098.13-.173.193-.202.025-.011.127.072.141.125.024.095-.036.169-.142.166-.047-.002-.093-.041-.191-.089Z" fill="#fff"/>
              <path d="M264.935,207.6c-.073-.084-.143-.13-.143-.176,0-.049.065-.099.102-.148.048.038.125.07.137.117.011.045-.046.107-.095.207Z" fill="#fff"/>
              <path d="M264.561,205.726c.068.077.133.119.134.162.001.045-.058.093-.091.139-.048-.037-.12-.065-.138-.113-.013-.035.045-.097.094-.188Z" fill="#fff"/>
              <path d="M263.356,202.519c.072.083.139.127.137.168-.002.046-.059.11-.106.126-.027.009-.11-.054-.117-.093-.008-.045.04-.101.085-.2Z" fill="#fff"/>
              <path d="M265.573,203.864c.081-.067.125-.13.167-.129.045.001.088.063.133.099-.036.044-.066.114-.11.125-.04.01-.096-.045-.189-.095Z" fill="#fff"/>
              <path d="M266.574,203.507c.069-.064.105-.125.143-.126.04,0,.11.051.115.088.005.037-.047.106-.086.117-.037.01-.089-.038-.173-.079Z" fill="#fff"/>
              <path d="M263.699,207.729c.07-.063.106-.119.147-.123.036-.004.111.053.11.079-.002.046-.043.113-.083.127-.033.012-.089-.04-.174-.083Z" fill="#fff"/>
              <path d="M263.235,206.981c-.072.063-.111.122-.15.122-.043,0-.085-.055-.127-.087.033-.041.06-.106.1-.116.038-.01.091.038.177.081Z" fill="#fff"/>
              <path d="M269.671,204.91c.056-.05.095-.11.125-.105.043.006.08.058.12.091-.035.038-.065.095-.107.107-.028.008-.075-.048-.137-.092Z" fill="#fff"/>
              <path d="M270.516,207.104c-.049-.064-.107-.107-.101-.139.007-.042.063-.076.099-.114.033.035.088.068.092.105.003.037-.046.08-.089.147Z" fill="#fff"/>
              <path d="M264.934,206.287c.052.053.108.085.106.113-.002.041-.046.081-.071.121-.036-.031-.088-.057-.101-.096-.01-.028.033-.073.067-.139Z" fill="#fff"/>
              <path d="M266.061,206.489c.05.052.094.08.103.116.006.022-.048.086-.066.083-.038-.007-.084-.04-.1-.074-.01-.021.031-.065.063-.124Z" fill="#fff"/>
            </g>
          </g>
          <g clip-path="url(#p)">
            <g filter="url(#q)">
              <path d="M221.181,217.559s1.785-13.777,3.212-14.991c1.428-2.998,1.356-4.997,3.284-4.711,1.927.286,3.712,6.781,4.283,9.423.949,2.142,1.499,10.279,1.499,10.279h-12.278Z" fill="#f4af13"/>
              <g clip-path="url(#s)">
                <path d="M232.857,218.868s-.532-7.215-1.386-10.448c-.941-3.563-2.176-7.904-3.092-8.423-.916-.518-2.292,6.438-2.772,7.697-.48,1.259-1.493,11.174-1.493,11.174h8.742Z" fill="#f4af13" mix-blend-mode="multiply" opacity=".5"/>
              </g>
            </g>
          </g>
          <g>
            <g>
              <path d="M225.815,210.601c.132.238-.019.479-.178.537-.19.069-.402-.012-.48-.192-.082-.19.003-.407.193-.491.031-.014.063-.022.095-.035.262-.108.287-.096.37.181Z" fill="#fff"/>
              <path d="M219.977,210.301c.173-.06.361.031.425.204.067.183-.026.376-.209.434-.173.055-.363-.042-.423-.214-.059-.172.035-.366.206-.424Z" fill="#fff"/>
              <path d="M222.615,213.343c.146-.049.263.017.323.182.058.159-.021.33-.175.382-.15.05-.311-.032-.362-.186-.053-.161.036-.319.214-.379Z" fill="#fff"/>
              <path d="M224.33,214.524c-.151.047-.304-.031-.348-.179-.044-.146.039-.3.187-.346.16-.05.324.027.369.174.045.148-.045.3-.208.351Z" fill="#fff"/>
              <path d="M223.499,210.538c.145-.049.306.028.357.171.051.145-.027.304-.173.354-.149.05-.303-.024-.355-.171-.052-.148.023-.302.171-.353Z" fill="#fff"/>
              <path d="M227.404,212.673c.14-.042.29.043.329.186.037.136-.039.278-.174.323-.143.047-.289-.03-.334-.175-.044-.142.036-.291.178-.334Z" fill="#fff"/>
              <path d="M219.074,211.902c-.041-.138.032-.276.171-.321.144-.047.29.031.332.177.04.138-.035.279-.171.323-.144.046-.289-.032-.332-.178Z" fill="#fff"/>
              <path d="M226.243,213.793c-.131.039-.263-.028-.296-.15-.034-.127.045-.271.169-.309.128-.039.253.028.293.156.041.133-.03.263-.166.304Z" fill="#fff"/>
              <path d="M220.25,209.025c.037-.012.074-.028.112-.035.117-.021.2.026.225.143.025.119-.038.193-.15.221-.059.015-.122.011-.182.024-.109.024-.193-.003-.223-.116-.031-.115.034-.178.14-.208.027-.008.053-.017.08-.025v-.005Z" fill="#fff"/>
              <path d="M221.977,215.189c-.125.043-.262-.019-.302-.137-.041-.12.037-.269.161-.311.117-.039.26.035.296.153.037.122-.032.252-.155.295Z" fill="#fff"/>
              <path d="M224.107,207.19c-.049-.137-.002-.264.115-.311.111-.044.246.02.289.137.043.117-.067.341-.185.378-.093.029-.157-.03-.219-.204Z" fill="#fff"/>
              <path d="M225.65,208.198c-.125.036-.257-.037-.288-.167-.032-.135.022-.233.152-.281.125-.046.254.025.293.154.038.128-.03.256-.157.293Z" fill="#fff"/>
              <path d="M222.039,207.049c.121-.033.256.047.29.171.035.127-.031.243-.155.275-.126.033-.258-.041-.291-.166-.032-.118.042-.25.156-.281Z" fill="#fff"/>
              <path d="M221.44,210.346c-.037-.116.028-.249.142-.288.119-.041.256.033.292.159.034.119-.035.247-.151.281-.115.034-.245-.036-.282-.152Z" fill="#fff"/>
              <path d="M224.272,209.341c.019.106-.02.197-.139.239-.109.038-.242-.03-.268-.14-.029-.121.021-.211.136-.255.106-.041.235.031.272.156Z" fill="#fff"/>
              <path d="M220.493,212.814c-.053.073-.091.172-.162.212-.106.059-.2-.009-.238-.118-.039-.112.008-.22.118-.241.078-.015.17.045.256.071l.025.076Z" fill="#fff"/>
              <path d="M223.803,212.439c.071-.118.1-.204.159-.246.024-.017.145.049.17.101.044.093-.004.182-.114.199-.049.008-.104-.024-.215-.054Z" fill="#fff"/>
              <path d="M221.935,213.58c-.091-.072-.173-.105-.182-.153-.01-.05.048-.115.076-.173.057.03.143.047.164.094.02.044-.026.119-.057.232Z" fill="#fff"/>
              <path d="M221.181,211.723c.085.066.16.096.17.14.01.046-.041.107-.066.161-.057-.028-.137-.043-.164-.09-.02-.034.028-.108.06-.212Z" fill="#fff"/>
              <path d="M219.307,208.655c.09.071.168.103.174.146.007.048-.039.125-.084.15-.026.015-.123-.034-.139-.073-.017-.045.021-.112.048-.223Z" fill="#fff"/>
              <path d="M221.857,209.604c.071-.085.103-.159.146-.166.047-.008.104.048.156.075-.028.053-.045.131-.089.151-.039.018-.108-.027-.214-.06Z" fill="#fff"/>
              <path d="M222.819,209.039c.058-.079.084-.15.123-.158.041-.009.124.031.136.068.013.037-.027.119-.066.138-.036.018-.1-.021-.194-.047Z" fill="#fff"/>
              <path d="M220.687,213.957c.06-.078.086-.143.127-.156.036-.011.125.032.129.06.007.048-.022.125-.06.147-.032.019-.099-.023-.196-.051Z" fill="#fff"/>
              <path d="M220.062,213.276c-.062.079-.091.148-.13.156-.044.008-.098-.04-.148-.064.026-.049.041-.121.081-.14.037-.018.101.022.198.049Z" fill="#fff"/>
              <path d="M226.286,209.875c.048-.063.076-.132.108-.133.046-.002.094.044.141.07-.029.046-.048.11-.089.131-.028.014-.086-.035-.16-.068Z" fill="#fff"/>
              <path d="M227.589,211.97c-.063-.056-.131-.089-.131-.123,0-.045.05-.091.079-.137.041.03.104.053.115.091.011.038-.031.091-.063.169Z" fill="#fff"/>
              <path d="M221.675,212.227c.064.044.127.066.132.096.006.043-.031.092-.05.139-.043-.025-.102-.041-.123-.078-.015-.027.02-.082.042-.156Z" fill="#fff"/>
              <path d="M222.877,212.214c.061.044.113.064.13.099.01.022-.033.098-.052.098-.041,0-.094-.024-.117-.057-.014-.02.019-.073.04-.141Z" fill="#fff"/>
            </g>
            <g>
              <path d="M230.052,212.736c-.046.154-.21.189-.3.146-.107-.051-.16-.174-.116-.281.046-.113.173-.166.287-.121.018.007.035.018.054.026.153.066.159.082.076.231Z" fill="#fff"/>
              <path d="M227.777,210.151c.096.049.136.165.089.263-.049.103-.169.144-.269.09-.094-.05-.132-.17-.084-.266.048-.096.169-.136.264-.088Z" fill="#fff"/>
              <path d="M227.579,212.515c.081.041.101.118.056.211-.043.09-.148.127-.233.083-.083-.043-.114-.144-.07-.229.046-.089.149-.116.248-.065Z" fill="#fff"/>
              <path d="M227.787,213.724c-.082-.044-.112-.141-.068-.22.043-.079.143-.107.223-.064.087.047.122.148.078.227-.044.08-.145.104-.233.057Z" fill="#fff"/>
              <path d="M229.126,211.734c.081.041.114.141.075.221-.04.081-.139.114-.22.072-.082-.042-.114-.138-.074-.22.041-.083.137-.115.219-.073Z" fill="#fff"/>
              <path d="M229.832,214.259c.075.042.101.14.057.216-.042.072-.133.098-.208.06-.078-.041-.106-.134-.063-.213.042-.077.137-.105.214-.062Z" fill="#fff"/>
              <path d="M226.73,210.429c.042-.074.13-.1.206-.06.079.042.106.135.062.213-.042.074-.132.1-.206.061-.079-.042-.105-.135-.061-.213Z" fill="#fff"/>
              <path d="M228.882,214.23c-.07-.039-.096-.122-.058-.187.04-.067.133-.093.2-.056.069.038.092.118.054.188-.039.072-.123.095-.196.055Z" fill="#fff"/>
              <path d="M228.427,209.741c.02.011.042.02.06.033.057.041.072.095.033.154-.04.06-.097.064-.155.028-.03-.019-.055-.047-.085-.067-.055-.036-.078-.083-.043-.142.036-.06.089-.059.145-.027.014.008.029.016.043.023v-.002Z" fill="#fff"/>
              <path d="M226.538,213.005c-.07-.035-.1-.118-.066-.184.034-.066.129-.095.198-.06.065.033.092.124.057.188-.036.066-.119.09-.188.056Z" fill="#fff"/>
              <path d="M230.788,210.612c.038-.077.111-.11.178-.079.064.029.093.112.061.178-.032.066-.171.112-.235.078-.051-.027-.052-.079-.004-.176Z" fill="#fff"/>
              <path d="M230.998,211.678c-.067-.038-.09-.124-.048-.19.044-.069.107-.087.181-.051.071.034.094.117.055.187-.038.069-.121.093-.188.054Z" fill="#fff"/>
              <path d="M229.997,209.682c.063.037.085.127.047.193-.039.067-.115.087-.18.048-.066-.039-.089-.126-.05-.191.037-.062.123-.085.183-.05Z" fill="#fff"/>
              <path d="M228.36,210.786c.034-.063.116-.09.18-.059.067.033.091.122.053.188-.036.063-.119.087-.181.052-.062-.035-.086-.118-.052-.182Z" fill="#fff"/>
              <path d="M229.949,211.567c-.037.052-.091.072-.158.039-.061-.03-.087-.115-.051-.171.039-.062.098-.078.163-.047.061.028.083.112.046.179Z" fill="#fff"/>
              <path d="M226.929,211.402c-.052.008-.11.033-.156.019-.068-.021-.078-.088-.048-.149.031-.063.096-.087.15-.049.038.027.051.09.075.137l-.022.042Z" fill="#fff"/>
              <path d="M228.45,212.644c.079-.019.127-.042.169-.034.017.003.039.081.027.113-.021.057-.078.073-.131.034-.023-.017-.032-.054-.066-.113Z" fill="#fff"/>
              <path d="M227.2,212.326c-.007-.068-.027-.116-.011-.14.017-.025.068-.027.104-.039.011.037.039.08.028.108-.01.027-.061.038-.121.071Z" fill="#fff"/>
              <path d="M227.673,211.243c.007.063.025.107.011.129-.015.024-.062.027-.095.039-.012-.036-.038-.076-.03-.106.006-.022.057-.033.114-.062Z" fill="#fff"/>
              <path d="M228.195,209.191c.007.067.026.113.01.134-.017.023-.069.035-.098.026-.017-.005-.037-.066-.026-.089.012-.026.056-.037.114-.071Z" fill="#fff"/>
              <path d="M228.844,210.657c.065-.005.109-.022.13-.006.022.017.023.063.032.097-.034.01-.074.035-.1.025-.024-.009-.033-.057-.062-.115Z" fill="#fff"/>
              <path d="M229.478,210.83c.057-.008.098-.026.117-.013.021.014.038.065.027.085-.01.02-.061.037-.085.029-.022-.008-.032-.051-.06-.101Z" fill="#fff"/>
              <path d="M226.528,211.954c.058-.007.096-.023.118-.011.02.011.038.066.028.079-.017.022-.062.042-.087.035-.021-.006-.031-.051-.059-.104Z" fill="#fff"/>
              <path d="M226.557,211.411c-.059.006-.1.023-.119.009-.022-.015-.023-.058-.034-.089.031-.009.068-.033.092-.024.023.008.032.052.061.104Z" fill="#fff"/>
              <path d="M230.552,212.636c.046-.006.087-.022.1-.009.02.018.02.058.029.088-.031.007-.066.025-.092.016-.017-.006-.021-.051-.037-.095Z" fill="#fff"/>
              <path d="M230.205,214.047c-.002-.05-.016-.092-.002-.106.019-.019.059-.016.09-.023.004.029.021.066.009.086-.012.02-.051.024-.097.043Z" fill="#fff"/>
              <path d="M227.664,211.659c.008.045.025.081.014.095-.016.02-.052.025-.079.036-.007-.028-.025-.06-.018-.084.005-.017.043-.025.083-.047Z" fill="#fff"/>
              <path d="M228.164,212.161c.007.044.02.074.011.095-.005.013-.055.027-.063.018-.017-.017-.028-.05-.024-.073.003-.014.039-.022.076-.041Z" fill="#fff"/>
            </g>
            <g>
              <path d="M235.475,212.89c-.005.097-.096.142-.155.13-.071-.014-.12-.079-.11-.149.011-.073.077-.123.151-.113.012.002.023.005.035.007.1.016.105.025.079.125Z" fill="#fff"/>
              <path d="M233.753,211.702c.064.014.104.077.091.142-.014.068-.079.11-.145.093-.063-.016-.103-.081-.088-.145.014-.063.079-.105.143-.091Z" fill="#fff"/>
              <path d="M233.985,213.124c.054.013.077.055.064.116-.012.059-.068.097-.125.084-.055-.013-.089-.068-.075-.125.014-.059.071-.09.136-.075Z" fill="#fff"/>
              <path d="M234.285,213.806c-.055-.014-.087-.067-.072-.12.014-.053.068-.084.122-.07.058.015.094.069.079.122-.014.053-.07.083-.129.068Z" fill="#fff"/>
              <path d="M234.781,212.436c.053.012.088.066.077.119-.012.054-.065.088-.119.075-.055-.013-.088-.064-.076-.119.012-.055.064-.088.119-.075Z" fill="#fff"/>
              <path d="M235.569,213.82c.05.013.08.068.065.119-.014.049-.064.077-.114.066-.052-.012-.082-.064-.069-.116.013-.051.066-.082.117-.068Z" fill="#fff"/>
              <path d="M233.177,212.019c.014-.05.062-.078.112-.066.053.013.083.064.068.116-.014.049-.063.078-.113.066-.052-.013-.082-.064-.068-.117Z" fill="#fff"/>
              <path d="M235.005,213.943c-.047-.013-.075-.058-.062-.101.014-.045.065-.074.11-.062.046.012.072.056.06.103-.012.048-.059.074-.108.061Z" fill="#fff"/>
              <path d="M234.076,211.364c.014.003.028.005.04.01.04.016.056.045.042.086-.015.041-.048.052-.087.039-.021-.007-.039-.02-.06-.027-.038-.013-.058-.037-.046-.077.012-.041.044-.048.082-.037.01.003.019.005.029.007v-.002Z" fill="#fff"/>
              <path d="M233.443,213.566c-.046-.01-.076-.055-.066-.099.01-.044.062-.075.108-.064.043.01.073.059.061.102-.012.044-.057.071-.103.061Z" fill="#fff"/>
              <path d="M235.596,211.53c.011-.051.049-.081.094-.073.042.007.071.052.062.096-.009.044-.085.091-.127.08-.034-.009-.042-.039-.028-.103Z" fill="#fff"/>
              <path d="M235.876,212.128c-.045-.012-.071-.06-.056-.105.016-.047.05-.067.099-.057.047.01.073.055.06.102-.012.046-.057.072-.103.06Z" fill="#fff"/>
              <path d="M234.993,211.099c.043.013.069.062.056.107-.013.045-.055.068-.099.055-.045-.014-.071-.061-.057-.105.013-.042.06-.068.1-.056Z" fill="#fff"/>
              <path d="M234.19,211.99c.011-.042.055-.07.097-.061.044.01.072.058.059.103-.012.043-.057.069-.099.057-.041-.011-.068-.057-.057-.099Z" fill="#fff"/>
              <path d="M235.242,212.217c-.014.036-.043.056-.087.046-.04-.009-.068-.055-.055-.093.014-.042.046-.06.089-.052.04.008.066.054.053.098Z" fill="#fff"/>
              <path d="M233.438,212.564c-.03.012-.06.035-.089.034-.043-.002-.059-.04-.05-.081.009-.041.044-.066.081-.051.027.01.043.046.065.07l-.007.028Z" fill="#fff"/>
              <path d="M234.517,213.072c.044-.023.069-.043.095-.045.01,0,.035.042.033.063-.004.037-.035.055-.072.039-.016-.007-.027-.027-.055-.057Z" fill="#fff"/>
              <path d="M233.733,213.068c-.014-.039-.033-.065-.027-.081.006-.017.036-.026.056-.038.012.02.035.041.032.059-.002.017-.03.031-.061.06Z" fill="#fff"/>
              <path d="M233.852,212.361c.013.036.031.059.025.075-.006.016-.033.025-.05.037-.012-.019-.033-.039-.033-.058,0-.014.029-.028.058-.053Z" fill="#fff"/>
              <path d="M233.859,211.074c.014.039.032.063.026.077-.007.016-.035.031-.054.03-.011,0-.031-.034-.028-.048.003-.017.027-.03.057-.059Z" fill="#fff"/>
              <path d="M234.457,211.843c.037-.012.061-.029.076-.023.016.006.023.034.033.052-.019.011-.038.031-.055.029-.015-.002-.028-.029-.054-.059Z" fill="#fff"/>
              <path d="M234.856,211.851c.033-.013.054-.03.067-.025.014.005.032.033.029.046-.003.014-.031.031-.046.03-.014-.001-.026-.025-.05-.051Z" fill="#fff"/>
              <path d="M233.282,212.948c.033-.013.053-.028.068-.024.013.003.032.033.028.043-.007.016-.03.034-.046.033-.013,0-.026-.026-.05-.052Z" fill="#fff"/>
              <path d="M233.22,212.624c-.034.012-.055.028-.069.023-.015-.006-.022-.031-.033-.047.017-.01.035-.029.051-.027.015.002.027.026.051.052Z" fill="#fff"/>
              <path d="M235.755,212.758c.026-.01.048-.026.058-.02.014.008.02.031.03.048-.017.009-.035.025-.052.023-.011,0-.02-.027-.036-.051Z" fill="#fff"/>
              <path d="M235.758,213.641c-.009-.029-.023-.052-.017-.062.008-.014.033-.018.05-.027.007.017.022.036.018.049-.004.014-.027.022-.051.04Z" fill="#fff"/>
              <path d="M233.908,212.607c.011.026.026.044.022.054-.006.014-.027.022-.041.033-.008-.016-.023-.032-.023-.047,0-.011.021-.021.042-.04Z" fill="#fff"/>
              <path d="M234.277,212.829c.01.025.022.041.021.055-.001.009-.028.024-.034.02-.012-.008-.024-.025-.025-.039,0-.009.019-.019.039-.035Z" fill="#fff"/>
            </g>
          </g>
          <g>
            <g>
              <path d="M224.218,202.006c-.076-.217.084-.395.224-.421.167-.031.332.067.372.227.042.169-.06.338-.23.381-.027.007-.056.009-.083.016-.233.053-.252.039-.282-.203Z" fill="#fff"/>
              <path d="M229.029,203.079c-.153.025-.296-.077-.325-.23-.03-.161.075-.309.235-.331.151-.021.296.086.321.237.025.151-.081.299-.231.324Z" fill="#fff"/>
              <path d="M227.265,200.178c-.128.02-.216-.051-.243-.197-.026-.14.064-.272.2-.293.132-.021.254.071.274.206.021.142-.075.26-.231.285Z" fill="#fff"/>
              <path d="M226.007,198.955c.132-.018.248.069.264.198.016.128-.075.244-.205.261-.14.019-.266-.068-.282-.197-.016-.129.08-.243.222-.262Z" fill="#fff"/>
              <path d="M226.134,202.385c-.128.02-.251-.066-.273-.192-.022-.128.065-.249.194-.269.131-.021.249.063.271.193.023.131-.061.248-.192.269Z" fill="#fff"/>
              <path d="M223.19,200.059c-.122.015-.235-.077-.248-.201-.012-.119.072-.226.19-.244.125-.019.236.066.253.193.016.124-.071.237-.195.252Z" fill="#fff"/>
              <path d="M230.006,201.876c.015.121-.066.225-.187.243-.126.018-.237-.067-.251-.194-.014-.12.068-.227.188-.244.126-.018.235.067.251.195Z" fill="#fff"/>
              <path d="M224.313,199.292c.114-.014.215.06.224.167.01.11-.076.219-.184.233-.112.014-.206-.059-.221-.171-.016-.116.062-.214.181-.229Z" fill="#fff"/>
              <path d="M228.622,204.101c-.033.005-.065.013-.098.013-.101,0-.163-.05-.167-.151-.004-.102.059-.155.156-.163.051-.004.103.009.154.006.094-.005.16.03.169.128.009.1-.054.143-.145.153-.023.003-.047.006-.07.01v.004Z" fill="#fff"/>
              <path d="M228.056,198.733c.11-.018.215.053.232.157.017.105-.069.219-.178.236-.103.016-.211-.066-.225-.169-.014-.106.062-.205.171-.223Z" fill="#fff"/>
              <path d="M225.157,205.082c.022.121-.036.22-.14.242-.098.021-.202-.052-.221-.154-.019-.103.104-.274.207-.288.082-.011.126.047.153.201Z" fill="#fff"/>
              <path d="M224.016,204.026c.109-.013.209.067.215.179.007.117-.051.191-.166.212-.11.02-.207-.057-.221-.169-.014-.112.061-.209.172-.222Z" fill="#fff"/>
              <path d="M226.856,205.492c-.105.01-.206-.075-.217-.183-.011-.11.06-.197.168-.207.11-.01.208.071.218.179.01.102-.07.202-.169.212Z" fill="#fff"/>
              <path d="M227.819,202.835c.014.102-.059.203-.159.219-.105.018-.208-.064-.22-.173-.011-.104.064-.201.166-.213.101-.012.199.065.213.166Z" fill="#fff"/>
              <path d="M225.323,203.271c0-.091.045-.161.15-.179.096-.017.197.059.203.154.007.104-.047.172-.149.193-.094.019-.191-.059-.204-.168Z" fill="#fff"/>
              <path d="M228.955,200.918c.054-.053.1-.13.164-.153.096-.034.165.036.181.132.017.099-.037.182-.132.184-.067.001-.135-.061-.203-.095l-.01-.067Z" fill="#fff"/>
              <path d="M226.15,200.762c-.076.088-.112.155-.167.182-.022.011-.114-.061-.127-.108-.023-.083.029-.15.123-.149.042,0,.083.035.171.075Z" fill="#fff"/>
              <path d="M227.864,200.077c.066.073.129.112.13.153.001.043-.056.089-.087.133-.043-.033-.112-.059-.123-.101-.011-.04.038-.096.08-.185Z" fill="#fff"/>
              <path d="M228.229,201.727c-.061-.067-.119-.102-.121-.141-.002-.04.049-.083.078-.125.044.032.108.055.124.098.012.031-.038.086-.08.168Z" fill="#fff"/>
              <path d="M229.353,204.542c-.065-.072-.125-.11-.124-.146,0-.041.05-.098.091-.113.024-.009.098.046.105.08.008.04-.033.09-.072.179Z" fill="#fff"/>
              <path d="M227.367,203.393c-.071.06-.108.117-.145.117-.04,0-.079-.054-.119-.085.031-.04.056-.102.095-.113.035-.009.086.038.169.08Z" fill="#fff"/>
              <path d="M226.488,203.727c-.06.058-.091.113-.124.114-.036.002-.098-.043-.104-.076-.005-.032.039-.095.074-.105.032-.01.08.032.154.066Z" fill="#fff"/>
              <path d="M228.954,199.94c-.061.057-.091.107-.128.112-.032.004-.099-.045-.099-.068.001-.041.036-.101.071-.114.029-.011.079.033.155.07Z" fill="#fff"/>
              <path d="M229.378,200.594c.063-.057.096-.11.13-.111.038,0,.076.048.114.074-.028.037-.051.095-.087.105-.033.009-.081-.032-.158-.068Z" fill="#fff"/>
              <path d="M223.724,202.543c-.049.045-.082.099-.108.095-.038-.005-.072-.05-.108-.078.03-.034.055-.085.093-.097.025-.008.067.041.123.079Z" fill="#fff"/>
              <path d="M222.937,200.618c.045.056.096.092.092.121-.006.038-.055.069-.085.103-.03-.03-.079-.058-.083-.092-.004-.033.039-.071.076-.132Z" fill="#fff"/>
              <path d="M227.889,201.239c-.047-.046-.097-.073-.096-.098.001-.037.039-.072.061-.108.032.027.079.049.091.083.009.024-.028.066-.057.124Z" fill="#fff"/>
              <path d="M226.888,201.08c-.045-.045-.085-.069-.094-.101-.005-.02.041-.077.057-.074.034.005.075.034.09.064.009.018-.026.058-.053.111Z" fill="#fff"/>
            </g>
            <g>
              <path d="M219.945,199.067c-.019-.147.105-.238.197-.236.11.003.201.086.205.193.004.112-.083.206-.196.21-.018,0-.037-.001-.055-.001-.154.002-.165-.009-.152-.165Z" fill="#fff"/>
              <path d="M222.841,200.381c-.1-.004-.177-.088-.175-.188.002-.106.088-.185.192-.178.098.007.176.093.171.192-.004.099-.091.178-.189.174Z" fill="#fff"/>
              <path d="M222.111,198.315c-.084-.004-.13-.061-.127-.157.002-.092.076-.163.165-.159.086.004.151.078.146.166-.005.092-.082.154-.184.149Z" fill="#fff"/>
              <path d="M221.478,197.376c.086.006.148.076.141.16-.007.083-.079.144-.164.138-.091-.007-.159-.078-.152-.162.007-.084.083-.143.175-.136Z" fill="#fff"/>
              <path d="M221.105,199.56c-.083-.004-.15-.075-.147-.158.003-.084.074-.149.158-.144.085.004.149.073.146.157-.003.085-.072.149-.157.145Z" fill="#fff"/>
              <path d="M219.553,197.701c-.079-.006-.138-.079-.13-.16.008-.077.075-.133.152-.129.082.005.141.073.134.155-.006.081-.076.14-.157.134Z" fill="#fff"/>
              <path d="M223.618,199.751c-.007.078-.071.134-.15.129-.082-.005-.141-.074-.133-.156.007-.078.073-.134.151-.129.082.005.14.074.133.156Z" fill="#fff"/>
              <path d="M220.364,197.365c.074.006.128.066.12.135-.008.071-.077.128-.147.123-.072-.006-.122-.064-.117-.137.006-.075.068-.127.145-.121Z" fill="#fff"/>
              <path d="M222.449,200.973c-.021-.001-.043,0-.063-.005-.064-.013-.096-.053-.086-.117.011-.065.058-.09.12-.082.033.004.064.019.097.024.06.009.097.04.09.103-.007.064-.053.083-.112.078-.015-.001-.03-.002-.045-.003v.003Z" fill="#fff"/>
              <path d="M222.802,197.508c.072.003.129.062.126.13-.003.069-.072.129-.144.125-.067-.004-.125-.069-.12-.137.005-.069.066-.121.137-.118Z" fill="#fff"/>
              <path d="M220.131,201.134c-.002.079-.052.134-.12.134-.065,0-.12-.059-.119-.127.002-.068.102-.16.169-.155.053.004.073.047.07.147Z" fill="#fff"/>
              <path d="M219.55,200.316c.071.007.123.07.112.142-.011.075-.057.114-.133.112-.072-.002-.124-.063-.117-.136.006-.072.066-.124.138-.117Z" fill="#fff"/>
              <path d="M221.15,201.618c-.068-.007-.12-.075-.113-.145.008-.071.064-.117.133-.109.071.008.122.072.114.142-.007.066-.071.118-.135.111Z" fill="#fff"/>
              <path d="M222.109,200.067c-.004.066-.064.12-.129.118-.069-.003-.123-.068-.116-.139.007-.067.067-.118.133-.112.065.006.117.067.113.133Z" fill="#fff"/>
              <path d="M220.475,200.012c.012-.058.049-.096.118-.093.063.002.117.063.108.124-.01.067-.053.102-.12.102-.062,0-.113-.063-.107-.133Z" fill="#fff"/>
              <path d="M223.081,199.006c.041-.026.08-.069.124-.075.065-.009.099.044.097.107-.002.065-.048.11-.108.099-.042-.008-.077-.057-.116-.087l.002-.044Z" fill="#fff"/>
              <path d="M221.329,198.537c-.06.046-.091.083-.13.093-.015.004-.064-.054-.066-.085-.004-.056.038-.091.097-.078.026.006.048.033.098.07Z" fill="#fff"/>
              <path d="M222.503,198.331c.032.055.067.088.062.114-.005.028-.047.049-.073.073-.023-.027-.063-.052-.064-.08-.001-.027.037-.055.075-.106Z" fill="#fff"/>
              <path d="M222.515,199.422c-.03-.051-.062-.081-.058-.105.004-.026.042-.046.065-.068.023.026.061.049.065.078.003.021-.036.049-.073.095Z" fill="#fff"/>
              <path d="M222.853,201.348c-.031-.054-.065-.086-.059-.109.006-.026.045-.055.073-.059.016-.002.056.042.056.065,0,.026-.033.052-.069.103Z" fill="#fff"/>
              <path d="M221.75,200.36c-.053.029-.084.06-.107.055-.025-.006-.043-.045-.064-.069.025-.021.049-.057.075-.059.024-.001.049.035.096.073Z" fill="#fff"/>
              <path d="M221.151,200.454c-.045.029-.072.059-.094.056-.023-.004-.056-.04-.056-.061,0-.021.037-.055.061-.057.022-.002.046.031.089.062Z" fill="#fff"/>
              <path d="M223.21,198.389c-.046.028-.072.056-.095.054-.02-.002-.057-.041-.053-.056.006-.026.036-.059.06-.062.02-.003.046.032.089.065Z" fill="#fff"/>
              <path d="M223.391,198.858c.047-.027.075-.057.097-.053.024.005.042.04.062.062-.023.02-.045.053-.069.055-.022.002-.047-.031-.091-.064Z" fill="#fff"/>
              <path d="M219.562,199.341c-.037.022-.065.051-.081.046-.024-.008-.039-.041-.058-.063.024-.018.046-.046.071-.049.017-.002.037.035.067.066Z" fill="#fff"/>
              <path d="M219.319,198.02c.021.041.048.071.042.088-.009.023-.044.036-.067.054-.015-.023-.042-.047-.04-.069.002-.021.034-.04.066-.073Z" fill="#fff"/>
              <path d="M222.365,199.068c-.024-.035-.051-.059-.048-.075.006-.023.034-.04.053-.06.017.021.043.041.047.064.002.017-.026.038-.052.071Z" fill="#fff"/>
              <path d="M221.754,198.835c-.022-.035-.045-.055-.046-.076,0-.013.036-.043.046-.039.021.008.043.031.048.052.003.013-.024.033-.048.063Z" fill="#fff"/>
            </g>
            <g>
              <path d="M213.388,201.129c-.116-.239.045-.465.203-.513.188-.057.391.033.457.213.07.189-.025.396-.215.468-.031.012-.063.018-.094.029-.261.091-.285.078-.351-.196Z" fill="#fff"/>
              <path d="M219.058,201.735c-.172.049-.35-.049-.403-.222-.056-.182.045-.365.227-.411.171-.044.352.06.4.231.048.17-.054.354-.224.402Z" fill="#fff"/>
              <path d="M216.652,198.629c-.145.04-.255-.031-.305-.195-.048-.158.038-.321.191-.363.149-.041.301.048.342.201.043.16-.052.309-.229.357Z" fill="#fff"/>
              <path d="M215.045,197.387c.15-.038.294.047.33.193.035.145-.054.29-.201.327-.159.04-.314-.044-.35-.19-.036-.147.06-.29.221-.331Z" fill="#fff"/>
              <path d="M215.64,201.314c-.144.04-.297-.044-.339-.186-.042-.144.043-.295.188-.335.148-.041.294.04.337.186.043.147-.038.293-.186.335Z" fill="#fff"/>
              <path d="M211.951,199.024c-.138.034-.28-.057-.311-.199-.029-.135.053-.269.187-.305.141-.038.28.045.316.189.035.141-.051.282-.192.316Z" fill="#fff"/>
              <path d="M220.024,200.224c.032.137-.046.268-.184.304-.143.038-.281-.046-.314-.19-.031-.137.049-.27.184-.305.142-.037.279.046.314.191Z" fill="#fff"/>
              <path d="M213.142,197.996c.13-.031.255.041.28.162.026.126-.059.262-.181.292-.126.031-.245-.041-.277-.168-.033-.131.043-.254.178-.287Z" fill="#fff"/>
              <path d="M218.724,202.963c-.037.009-.073.023-.111.028-.115.014-.194-.036-.212-.151-.018-.117.047-.186.158-.208.058-.011.12-.004.178-.013.108-.018.188.014.211.125.024.113-.043.171-.147.195-.026.006-.053.013-.079.02v.004Z" fill="#fff"/>
              <path d="M217.373,196.865c.124-.035.254.033.287.15.033.119-.051.26-.174.294-.116.032-.251-.048-.28-.165-.03-.12.044-.244.167-.279Z" fill="#fff"/>
              <path d="M214.868,204.543c.041.136-.012.257-.129.296-.11.037-.238-.033-.274-.149-.036-.116.083-.329.2-.358.092-.023.151.038.203.211Z" fill="#fff"/>
              <path d="M213.419,203.478c.124-.029.249.05.271.178.024.134-.034.226-.163.265-.124.038-.246-.038-.277-.166-.031-.127.043-.248.169-.277Z" fill="#fff"/>
              <path d="M216.875,204.792c-.119.025-.247-.06-.273-.183-.027-.125.043-.235.166-.26.125-.026.249.054.274.177.024.117-.054.242-.167.266Z" fill="#fff"/>
              <path d="M217.635,201.612c.03.115-.041.241-.154.273-.119.034-.248-.046-.276-.17-.027-.118.048-.239.163-.266.114-.027.237.048.267.163Z" fill="#fff"/>
              <path d="M214.823,202.439c-.013-.105.03-.191.149-.225.108-.032.234.042.254.15.021.119-.032.204-.146.241-.106.034-.227-.043-.256-.166Z" fill="#fff"/>
              <path d="M218.691,199.259c.055-.068.097-.163.169-.197.106-.052.194.02.225.128.032.111-.019.214-.128.228-.077.01-.163-.053-.246-.083l-.02-.076Z" fill="#fff"/>
              <path d="M215.446,199.446c-.076.111-.108.193-.168.231-.024.015-.139-.055-.16-.108-.038-.093.014-.177.122-.187.048-.005.1.029.206.064Z" fill="#fff"/>
              <path d="M217.327,198.435c.085.075.163.112.17.159.007.05-.052.109-.083.164-.054-.032-.136-.054-.155-.1-.017-.044.032-.115.068-.223Z" fill="#fff"/>
              <path d="M217.962,200.285c-.079-.069-.151-.102-.158-.146-.008-.046.046-.102.073-.153.054.031.131.05.155.096.018.034-.033.104-.07.203Z" fill="#fff"/>
              <path d="M219.622,203.374c-.084-.074-.158-.11-.162-.151-.004-.047.045-.119.09-.142.027-.013.118.04.131.079.014.045-.026.108-.059.215Z" fill="#fff"/>
              <path d="M217.189,202.312c-.073.079-.109.149-.151.154-.046.005-.098-.052-.148-.082.03-.05.051-.125.094-.142.039-.015.104.032.205.07Z" fill="#fff"/>
              <path d="M216.222,202.811c-.061.074-.09.141-.128.148-.041.007-.119-.037-.129-.073-.01-.036.033-.114.071-.13.036-.015.096.026.186.056Z" fill="#fff"/>
              <path d="M218.563,198.135c-.063.073-.091.135-.132.145-.036.009-.12-.038-.122-.066-.004-.047.028-.12.067-.14.032-.016.096.028.188.06Z" fill="#fff"/>
              <path d="M219.136,198.832c.065-.073.096-.139.135-.145.043-.006.094.045.141.071-.028.046-.046.116-.086.132-.037.015-.097-.027-.19-.058Z" fill="#fff"/>
              <path d="M212.89,201.81c-.05.059-.082.124-.112.124-.045,0-.089-.048-.134-.076.03-.043.053-.105.094-.123.028-.012.082.038.152.075Z" fill="#fff"/>
              <path d="M211.733,199.7c.059.058.123.094.121.127-.002.044-.054.086-.085.129-.038-.031-.099-.057-.107-.094-.009-.038.035-.087.071-.162Z" fill="#fff"/>
              <path d="M217.507,199.767c-.06-.047-.121-.071-.123-.101-.003-.042.035-.088.056-.132.04.027.097.045.116.083.013.027-.024.079-.049.15Z" fill="#fff"/>
              <path d="M216.336,199.716c-.058-.046-.107-.068-.121-.104-.009-.022.037-.094.056-.093.04.002.09.029.111.062.013.02-.022.07-.047.135Z" fill="#fff"/>
            </g>
          </g>
        </g>
      </g>
    </g>
  </g>
</svg>