<?xml version="1.0" encoding="UTF-8"?>
<svg xmlns="http://www.w3.org/2000/svg" width="300" height="300" xmlns:xlink="http://www.w3.org/1999/xlink" viewBox="0 0 300 300">
  <defs>
    <clipPath id="d">
      <path d="M125.734,275.03c-.741.593-1.333,1.067-2.051,1.642-.003-.06.007.158.018.409-3.311-.326-3.442-2.473-.096-3,1.312-.479,1.342-1.803,1.867-3.211-1.51.581-2.531.494-3.954.733.26.911.924.884,1.499,1.497-.499.53-1.208.617-1.837.532-.168-1.063-1.06-2.588.127-3.377,1.121-.466-.189-1.754-.583-2.093-.598.289-1.153,1.002-.642,1.661.318.485.525.898-.122,1.375-1.233,3.407-3.135-.482-5.031-1.131.044-.195.135-.592.26-1.141-1.801,1.084-.935-3.308-3.029-.848-1.681-1.089-2.229-5.036-4.419-4.514-.202.126-.746-.089-.893-.335-.817-2.687-3.309-3.84-4.184-6.318-.669-1.573-2.043-2.469-3.219-3.583-.108-.158-.768-.112-.892.061-.992,1.247-3.042.131-3.146-1.348-.315-.588-1.521-1.174-1.438-2.067-1.027-1.183.047-1.109.784-1.717-.739-.308-.9-.925-.89-1.801.19-.838-1.722-2.235-.405-2.679,1.509-.292.321-1.222.308-2.31-1.034,1.485-2.097,2.368-3.811,2.142-.777.636-1.253.21-1.77-.273-1.333-1.468-3.339.485-4.529,1.454.107-3.912-4.856.946-6.778,1.239-.045-1.345-1.597-2.403-2.624-1.074-2.329-.628-3.076-4.106-4.842-5.803-.364-1.596-2.483-1.193-2.581-2.721-.177-1.694-2.38-1.944-2.363-3.817-1.492-.611-1.158-2.643-2.232-3.576-1.845-2.378-6.721-5.347-5.948-8.42.928-.956.003-1.242-.626-1.83-.484-1.052-1.042-.044-1.84-.245,1.953-2.146-1.515-2.426,1.362-6.213.32-.933-.879-.673-1.15-.106-.717,1.285-1.74,1.109-2.731.977-.529-.57-.058-2.002-1.377-1.729-.089-.38-.179-.76-.273-1.159-1.286.315-2.003,1.665-.538,2.298-1.368,1.306-3.721,4.69-5.019,1.755-1.542.359-1.388-2.325-3.102-.98-.082-.727-.149-1.318-.224-1.985-.186.123-.421.28-.657.436-.369-.772-.397-1.866-1.608-1.688-.131-.995-.261-1.978-.41-3.104-.283.417-.477.703-.592.871-1.801-.411-2.175-2.31-3.132-3.67-.099.014-.197.028-.296.042-.066.349-.133.698-.199,1.047-.104-.005-.208-.01-.311-.014.283-3.53-2.961-4.596-3.984-7.565.279-1.048.309-1.48-.32-2.329-.399.431-.764.826-1.265,1.366-.808-.598-.4-2.081-1.606-1.764-.344-1.412-.025-2.444.907-3.394-1.015-1.136,1.614-3.622-.441-3.794-.113.486-.22.945-.327,1.404h-.223c.03-1.157.059-2.312.094-3.666,2.517,1.221,2.369-2.34,2.597-4.108-1.003.742-1.702,2.09-2.924,1.086.182.312.363.624.634,1.089-.538.137-1.005.257-1.318.337-.356-1.985.488-3.267,1.782-4.687.131.089.304.207.409.278,3.015-4.831,6.034-10.234,10.393-14.369-1.139-.931-1.726-2.852-.221-3.711.685.055,1.413.35,1.77.081.654-.814,1.178-1.918-.339-2.446-.005-1.425,1.887-2.993.534-4.246-.788-.884-.512-2.74-2.033-2.844-1.595-.482-2.438.965-3.803,1.398-1.328-.248-1.592,1.064-2.279,1.946-.805-.459-1.798-.592-2.333-1.268-.364-1.485-1.477-1.032-2.67-1.296.29-.308.531-.564.785-.833-1.667-.469-1.291,1.231-.713,2.052-.361.299-.684.567-1.205,1-.149-1.038.75-2.364-.503-2.805-2.076-.021-2.162-3.924-4.274-2.441.014-.329.028-.648.042-.971-1.159-.021-1.19-1.015-1.799-1.726-2.378-1.958-1.679-1.306-2.375-4.138-.209.14-.404.271-.656.439-.668-1.022-1.618-1.175-1.918-2.668-1.37-2.995-5.533-3.171-7.325-5.59-.607.088-1.079.156-1.66.24,1.437-2.13.179-3.451.305-5.503.835-2.056,1.668-4.106,2.498-6.15l.37.032c-.089,1.029-.177,2.06-.286,3.327.845-.955.554-1.929.999-2.817.189.125.346.228.504.332.069-.035.139-.07.208-.105.027-1.576-1.923-.98-.633-2.566,8.419-15.882,14.976-32.586,24.003-48.087.47-.897.765-1.669,1.705-.592,1.806.579,1.881-2.448,3.693-2.29.446-.027.773-1.322.458-1.969-.076.333-.128.566-.196.864-1.032.026-2.033.051-3.053.076.302-2.138,2.696-2.247,4.251-1.592,1.748-2.593,2.4-6.48,5.964-7.073-.144-.178-.275-.339-.557-.688,2.612-.619,4.741,2.64,6.908,1.969.457-.406.77-.31.847.32-.224.082-.445.164-.742.273,4.411,1.585,8.919,5.449,12.96,6.245.948,2.511,2.466-.612,3.56-1.557.54-.867,1.443-.077,2.095-.63,9.294-9.421,17.578-20.335,27.792-28.135.568-.01,1.653.241,2.015.851,1.912,1.325,2.562-3.953,7.086,1.194.688,1.192,2.514-.487,2.804,1.083.29,1.184,1.748,1.127,2.282,2.146,1.849,1.121,2.651,3.269,4.901,3.948.714.407.828.883,1.551-.021.12,1.471.317,1.577,1.448.789.081.423.158.824.235,1.225l1.165-.499c-.496,7.224,25.526-25.004,28.886-26.862,1.672.364-.197,1.312.718,2.25.522.148.997-.72,1.388-.929,1.737-.344-.026,1.997,1.27,2.312.748.187.858,1.976,1.736.998.187.377.436.68.485,1.019.123.905,1.551.839,1.748.115.117-.964-.651-2.45.96-2.216.72.045.43,1.137.986,1.424-.262.419-.463.74-.663,1.06.451.129.902.257,1.487.424-.474,1.162-.426,1.351.726,1.827.242,1.047,1.272,1.525,2.04,2.119.882.731,1.71,2.125,3.118,2.044-.383,1.447,1.474.565,2.196,1.002-1.076,1.014-.963,1.347.141,2.005-.027.067-.054.134-.081.201-.49-.054-.979-.107-1.657-.181.279.76,1.197.645.77,1.534-.071.76,1.265.951,1.902.438-.171.329-.274.526-.415.796.591-.041.214,1.055.998.734.437-.179.789-.569,1.143-.99-1.121.681-1.39-.411-.415-.992,1.411.033,2.131-.899,2.932-1.818,1.209-1.371,2.245-2.181,4.04-1.376.434.379.82.766,1.407.087,1.06.961,2.079,1.886,3.1,2.812.083-.07.167-.139.25-.209-.208-.345-.416-.689-.73-1.211,1.99,1.345,4.061-1.08,5.55.412.248,1.69,1.189,2.587,2.441,3.586,1.114.999.471,2.748,1.691,3.649.612.455.432,1.602,1.41.985,1.178-.838,2.136,1.351,1.457,2.253.439.084.772.147,1.054.201-.363.445-.683.837-1.003,1.23.622.271-.53,1.429.76,1.392.083-.244.17-.502.252-.745,1.031.693,2.38,1.231,1.261,2.667.334.046.628.087.991.137-.054.243-.1.452-.117.528.413.375.763.694,1.161,1.056-.205.26-.389.494-.677.86,1.035-.272,1.917-.504,2.884-.758.017.327.026.518.036.707,2.624.565.48,4.606,0,6.299.084.058.168.117.252.175,1.677-1.436,2.548-3.637,4.028-5.279.086.05.171.1.257.151-.4,1.014-.929,1.988-1.124,3.068,1.069-.035,1.546-.844,2.095-1.635,3.373,2.321,15.196-19.277,13.982-8.341.098.031.196.061.293.092,1.138-2.233,4.677-2.738,4.681.41-.101.926.76.577,1.338.516.615-.146.839.109.841.687-.086,2.042,4.672.537,4.111,3.359,2.223-.48,1.282,2.314,2.963,2.498.627-.005,1.253.385,1.903.607-.234.505-.451.972-.705,1.521,5.2,1.026,1.139.806,3.622,3.045,4.559,2.38.155,6.468-.436,10.066.092.043.184.085.276.128-.192.122-.383.243-.628.399.061.161.13.342.202.531-1.501.031-.714,1.327-1.442,2.228-.362.497-.543.842.08,1.267.755.882.635,2.355.945,3.427-.075-.062-.239-.195-.28-.229-.682,1.501.085,3.111-1.871,3.625-.213.788-.291,1.701-1.23,2.162-.326-.347-.604-.643-.882-.94-.142-.009-.283-.018-.425-.026.299,2.208-.892,3.588-1.874,5.454,1.285,1.017,3.107.838,4.039,1.937.14.21.274.638.378.627,1.489-.085,1.789,1.368,2.772,2.069.667-.689,1.293-1.335,1.935-1.999.269.194.482.348.696.502.054-.032.109-.064.163-.095l-.442-.961c1.625-3.295,1.763.689,2.916-1.233.492.203-.218,1.217.711.962.133-.037.12-.615.202-1.111,1.19-.01,1.485,1.608,2.889.394.074.804.038,1.19.219,1.827,1.748-.879,3.46-2.278,5.079-3.7,1.063-1.382,1.988-1.989,3.614-.781-.493.149-.775.234-1.058.319-.006.07-.012.14-.017.21.391.071.783.141,1.238.223.036-.189.066-.347.105-.55,1.785.234.024,1.278,1.114,1.87.139-.213.266-.407.308-.472,1.935.382,1.063-1.711,1.019-2.864l.212-.011c1.338,1.143,1.049,3.541,2.449,4.253.495.043.859.148,1.206.52,1.493.854.756-1.593,1.506-1.967.855-.066,1.329.782,1.79,1.468-.678,2.03,2.314,2.958,3.443,4.321-1.605-.431-2.416-.085-.836,1.502.238-.364.375-.574.617-.943.372.683.522,1.184,1.109,1.595.339-.626.058-1.09-.143-1.698.704.204,1.321.413.898,1.349.359,2.24,4.451-.832,3.509,2.267.931-.317,3.167.324,1.855,1.443-.136.099-.143.63-.007.787.174.202.65.395.823.295.897-.546,1.331.637,1.945,1.074,1.116,1.947-1.178,3.991-1.014,5.754,1.244.549-.377,2.098-1.107.916-.32.431-.507.794.2.897,1.671,1.889-2.57,6.732-3.83,8.984.378-.112.612-.181.943-.279.164.643,1.045,1.773-.014,2.068-.773.577-.276,1.618-.242,2.601.299.015,1.211-.433,1.456-.4.618.536,1.16.27,1.697-.056.58-.352.722-.056.809.482.826,2.461,1.212,4.967,2.143,7.316.305,1.342.733,3.529,2.247,3.86.368,1.008,1.953,1.093,1.678,2.609,2.692-.288,2.193,3.256,2.235,4.957,3.032,1.475-1.981,5.13-2.148,7.335-1.419,1.094-1.787,3.351-2.869,4.004-.572.346.131,1.857-.977,1.718-.827.874-1.269,2.037-2.143,3.319,3.48.435,6.681.836,9.874,1.235.03,1.734.916.378,1.802,1.322-.481.334-.828.574-1.152.799,1.191,1.258,2.021,3.952.014,4.698-1.256-.436-.77.518-.85,1.163.562-.185,1.034-.341,1.575-.52,1.006,1.213-1.867,1.987-.452,3.441.003,5.901-9.63,6.837-2.257,13.685-.625.969.831,1.641.358,2.59-.897,1.293-.582,2.598,1.06,2.881.032-.124.099-.384.17-.659,1.049.642,2.563,4.245,2.424,5.647.21-.033.476-.075.743-.117-.011.1-.022.2-.033.3-.19.205-.379.41-.569.615.023.095.045.19.068.286.407-.07.815-.14,1.372-.236-.627.71-.25,2.235-1.233,2.311-.151-.009-.313.301-.47.465.731.634,1.574-.011,2.389-.171.041.068.081.136.122.204-3.247,4.346-9.404,6.734-11.27,11.912-.136,1.64-.427.846-1.522,1.125.529.318,1.477.912.642,1.435-.793.466.062,1.215-.266,1.951-.09.003-.18.007-.27.01-.126-.204-.251-.409-.534-.869-2.864,10.297-15.289,11.162-22.758,16.857-4.9,4.177-9.823,8.593-15.297,11.906-1.073,1.749-5.028,5.07-6.363,2.256.242-.106.475-.207.948-.414-.539-.337-.893-.559-1.394-.873.151,1.159-1.01,3.326-.638,1.144-1.254-.603-.149-2.05-.802-3.317-.417.921-.734,1.621-1.052,2.323-1.478-.758-.153-3.779-1.888-3.982-.699,1.066-1.2.621-1.674-.319-.311.562-.559,1.01-.828,1.497-3.384-3.564-10.182,6.958-13.878,6.339-2.009.193-3.595,3.899-5.74,2.949-9.291-2.302-28.94,24.196-34.407,19.583.288-.124.553-.239,1.065-.459-.508-.37-.851-.62-1.256-.914-1.303,2.556-1.406-.686-1.294-1.877-.102-.032-.204-.064-.306-.096-.38.679-.761,1.359-1.135,2.028-1.683-.225.058-4.974-1.846-3.987-.934,1.361-.95.072-1.72-.331-.186.45-.36.871-.525,1.269-2.154-1.784-4.569.897-7.077.346-.848.396-2.802,1.248-2.527-.622.738-.784,1.537-4.112-.382-3.227-.716-1.139-.634-1.461.4-1.699-.132-1.493-.527-2.061-1.628-.74.178-2.479-1.805-3.517-1.184-5.729.163-.556-.442-1.475-.274-2.042.8-1.535-.341-2.219-.933-3.124-1.999-.766-2.704-2.284-3.635-4.225-.684.539-1.391,1.096-2.158,1.701.029-.297.052-.535.078-.803-2.212.477-.895,2.112-2.398,3.567-.493-2.142,1.319-3.614,1.212-5.707-7.779,9.223-14.82,21.19-22.752,29.105ZM286.41,165.758c.89.945-.186,1.423.899,1.879.253-.889,1.529-1.348.64-2.563l-.648.324-.428-.203c.23-.28.46-.56.687-.837-1.451-1.702-1.245.337-1.151,1.401ZM29.299,185.315c-.457.623-.915,1.247-1.372,1.869.431.24.923.515,1.42.792,1.01-1.058,1.006-1.884-.048-2.661ZM287.197,173.911c-.23-.098-.46-.196-.69-.294.356-.514.711-1.028,1.031-1.489-.259-.177-.57-.389-.878-.6q-.581.499.019,1.094c-.293.197-.584.393-.875.589-.009.126-.019.252-.028.378.474.108.947.215,1.421.323ZM285.173,162.529c-.331.645-.577,1.125-.926,1.804,1.1-.288,2.395-1.192.926-1.804ZM233.991,86.574c-.073.024-.145.048-.218.072-.092.66-.185,1.32-.287,2.045l.935-.431c-.141-.554-.286-1.12-.431-1.687ZM180.99,39.386c-.879.525-.898.826-.108,1.483.037-.511.068-.942.108-1.483ZM34.961,76.025c.672.16,1.064.179,1.102-.507-.443-.565-.712.019-1.102.507ZM27.622,192.878c-.486.973-.395,1.163.492,1.288-.184-.482-.338-.885-.492-1.288ZM286.011,170.216c.16.013.319.025.479.038.006-.425.013-.851.019-1.276-.124-.01-.249-.02-.373-.03-.042.422-.083.845-.125,1.268ZM73.558,242.867c-.034.401-.068.802-.112,1.326.962-.516.87-.927.112-1.326Z" fill="none"/>
    </clipPath>
    <filter id="e" data-name="drop-shadow-1" x="213.571" y="128.568" width="84.12" height="135.743" filterUnits="userSpaceOnUse">
      <feOffset dx="-1" dy="0"/>
      <feGaussianBlur result="f" stdDeviation="0"/>
      <feFlood flood-color="#42496f" flood-opacity="1"/>
      <feComposite in2="f" operator="in"/>
      <feComposite in="SourceGraphic"/>
    </filter>
    <clipPath id="g">
      <path d="M259.483,136.409l-1.115.279.976,29.694s-.906-2.091-2.231-1.952-1.115,13.383-1.115,13.383l20.075.279s1.812-37.013,1.533-37.361-9.759-7.807-9.759-7.807l-8.364,3.485Z" fill="none"/>
    </clipPath>
    <clipPath id="h">
      <path d="M221.099,204.557s.773,15.24.607,17.723c-.952-.703-1.2-.414-1.324,1.159-.124,1.572.414,28.634.414,28.634l31.199.579-9.434-50.399-21.462,2.304Z" fill="none"/>
    </clipPath>
  </defs>
  <g isolation="isolate">
    <g id="c" data-name="Calque 24">
      <g clip-path="url(#d)">
        <g>
          <g filter="url(#e)">
            <path d="M221.099,204.557s.773,15.24.607,17.723c-.952-.703-1.2-.414-1.324,1.159-.124,1.572.414,28.634.414,28.634l31.199.579-9.434-50.399-21.462,2.304Z" fill="#ffd66e"/>
            <path d="M259.483,136.409l-1.115.279.976,29.694s-.906-2.091-2.231-1.952-1.115,13.383-1.115,13.383l20.075.279s1.812-37.013,1.533-37.361-9.759-7.807-9.759-7.807l-8.364,3.485Z" fill="#ffd66e"/>
            <g clip-path="url(#g)">
              <g mix-blend-mode="multiply" opacity=".25">
                <path d="M214.571,213.847c1.819.012,3.638.023,5.457.035-1.081.237-2.073.862-2.752,1.735,2.048-.205,4.084-.524,6.096-.957-.936.729-1.872,1.457-2.809,2.186,4.34,1.022,8.68,2.044,13.021,3.066-1.052,2.003-2.105,4.007-3.157,6.01.014,2.051-1.372,4.039-3.302,4.735,1.465.484,3.114.385,4.51-.27-1.076,1.089-2.152,2.178-3.229,3.268,1.295-.249,2.591-.498,3.887-.746-.823.769-1.645,1.538-2.468,2.307.714.041,1.429.083,2.144.124.034,8.044.068,16.087.103,24.131,10.418.184,20.385,5.071,30.802,4.832,1.952-.045,3.922-.276,5.745-.973,2.366-.904,4.372-2.545,6.22-4.278,4.897-4.592,8.999-10.03,12.07-16,8.487-16.501,8.71-35.885,8.297-54.436-.33-14.857-.957-29.788-3.958-44.342l.301-15.183-41.067-.139v12.617c2.243-.019,4.487-.037,6.73-.056-1.777,1.045-3.287,2.54-4.348,4.307,2.649-.655,5.345-1.119,8.061-1.384-1.557.966-2.915,2.253-3.963,3.756.842.071,1.74.164,2.393.7s.86,1.686.183,2.191c1.708-.496,3.644,1.188,3.391,2.948,1.813-.273,3.734.273,5.132,1.459-.6.878-1.2,1.756-1.8,2.634,1.205-.396,2.638.049,3.407,1.058-.909.766-1.819,1.531-2.728,2.296.834-.19,1.768.224,2.188.969-1.957.467-3.756,1.572-5.056,3.107,1.285-.37,2.683-.336,3.949.098-1.457.775-2.915,1.551-4.372,2.326,1.414.177,2.828.354,4.241.531-2.079.376-4.054,1.304-5.671,2.663,1.44-.15,2.911.001,4.29.442-1.653.493-3.159,1.466-4.287,2.77,1.4-.128,2.8-.257,4.199-.385-3.004,1.461-4.283,5.654-2.605,8.543-.358-.198-46.989,0-46.989,0l-2.252,31.305Z" fill="#f4af13"/>
              </g>
            </g>
            <g clip-path="url(#h)">
              <g mix-blend-mode="multiply" opacity=".25">
                <path d="M214.571,213.847c1.819.012,3.638.023,5.457.035-1.081.237-2.073.862-2.752,1.735,2.048-.205,4.084-.524,6.096-.957-.936.729-1.872,1.457-2.809,2.186,4.34,1.022,8.68,2.044,13.021,3.066-1.052,2.003-2.105,4.007-3.157,6.01.014,2.051-1.372,4.039-3.302,4.735,1.465.484,3.114.385,4.51-.27-1.076,1.089-2.152,2.178-3.229,3.268,1.295-.249,2.591-.498,3.887-.746-.823.769-1.645,1.538-2.468,2.307.714.041,1.429.083,2.144.124.034,8.044.068,16.087.103,24.131,10.418.184,20.385,5.071,30.802,4.832,1.952-.045,3.922-.276,5.745-.973,2.366-.904,4.372-2.545,6.22-4.278,4.897-4.592,8.999-10.03,12.07-16,8.487-16.501,8.71-35.885,8.297-54.436-.33-14.857-.957-29.788-3.958-44.342l.301-15.183-41.067-.139v12.617c2.243-.019,4.487-.037,6.73-.056-1.777,1.045-3.287,2.54-4.348,4.307,2.649-.655,5.345-1.119,8.061-1.384-1.557.966-2.915,2.253-3.963,3.756.842.071,1.74.164,2.393.7s.86,1.686.183,2.191c1.708-.496,3.644,1.188,3.391,2.948,1.813-.273,3.734.273,5.132,1.459-.6.878-1.2,1.756-1.8,2.634,1.205-.396,2.638.049,3.407,1.058-.909.766-1.819,1.531-2.728,2.296.834-.19,1.768.224,2.188.969-1.957.467-3.756,1.572-5.056,3.107,1.285-.37,2.683-.336,3.949.098-1.457.775-2.915,1.551-4.372,2.326,1.414.177,2.828.354,4.241.531-2.079.376-4.054,1.304-5.671,2.663,1.44-.15,2.911.001,4.29.442-1.653.493-3.159,1.466-4.287,2.77,1.4-.128,2.8-.257,4.199-.385-3.004,1.461-4.283,5.654-2.605,8.543-.358-.198-46.989,0-46.989,0l-2.252,31.305Z" fill="#f4af13"/>
              </g>
            </g>
            <path d="M245.542,177.112s8.457-7.807,9.666-15.893c0,0-1.533,12.128-.558,13.197.976,1.069,3.346-4.833,3.346-4.833,0,0-1.394,5.855.651,5.112s3.625-1.394,3.625-1.394c0,0,1.394,2.742,7.342,2.881-6.041,1.162-8.457-.836-8.457-.836,0,0-1.673,2.602-4.089,2.416-2.416-.186-1.487-1.673-1.487-1.673,0,0-4.229,3.392-5.576-.929,0,0-1.812,1.859-4.461,1.952Z" fill="#fff"/>
            <path d="M248.888,179.765s-1.324-10.456-4.182-10.456-4.6,11.431-4.6,11.431l7.942.671.841-1.647Z" fill="#ffd66e"/>
            <path d="M229.575,182.481s7.971-5.828,9.378-10.583c0,0-1.474,8.038-1.072,8.976.402.938,6.966-2.813,6.966-2.813,0,0,2.659,3.784,5.382,3.634-6.521,1.993-6.856.117-6.856.117,0,0-4.957,1.876-7.636,1.474-2.679-.402-1.206-2.01-1.206-2.01,0,0-1.809,1.273-4.957,1.206Z" fill="#fff"/>
            <path d="M297.574,181.227c-.33-14.857-.957-29.788-3.958-44.342-.531-2.574-1.343-5.423-3.631-6.716-2.624-1.483-8.752-1.602-8.752-1.602-9.703.047-19.393,1.963-28.383,5.612,2.243-.019,4.487-.037,6.73-.056-1.777,1.045-3.287,2.54-4.348,4.307,2.649-.655,5.345-1.119,8.061-1.384-1.557.966-2.915,2.253-3.963,3.756.842.071,1.74.164,2.393.7s.86,1.686.183,2.191c1.708-.496,3.644,1.188,3.391,2.948,1.813-.273,3.734.273,5.132,1.459-.6.878-1.2,1.756-1.8,2.634,1.205-.396,2.638.049,3.407,1.058-.909.766-1.819,1.531-2.728,2.296.834-.19,1.768.224,2.188.969-1.957.467-3.756,1.572-5.056,3.107,1.285-.37,2.683-.336,3.949.098-1.457.775-2.915,1.551-4.372,2.326,1.414.177,2.828.354,4.241.531-2.079.376-4.054,1.304-5.671,2.663,1.44-.15,2.911.001,4.29.442-1.653.493-3.159,1.466-4.287,2.77,1.4-.128,2.8-.257,4.199-.385-3.004,1.461-4.283,5.654-2.605,8.543-3.854.541-7.757.722-11.644.54.907.5,1.815,1.001,2.722,1.501-1.896-.074-3.792-.149-5.689-.223,1.573.905,3.271,1.592,5.031,2.035-3.012-.168-6.072.692-8.556,2.405.727.149,1.455.299,2.182.448-1.286.675-2.573,1.35-3.859,2.025.462.181.949.293,1.443.344-2.044.17-4.055.731-5.875,1.678,1.536.352,3.072.704,4.608,1.055-1.225.031-2.432.534-3.317,1.382,1.274.365.535,2.32-.46,3.195-3.406,2.995-7.491,5.215-11.857,6.443.614.437,1.228.874,1.842,1.311-2.656-.122-5.342.514-7.662,1.813.599.1,1.198.201,1.796.301-3.705.691-7.202,2.467-9.946,5.051,1.819.012,3.638.023,5.457.035-1.081.237-2.073.862-2.752,1.735,2.048-.205,4.084-.524,6.096-.957-.936.729-1.872,1.457-2.809,2.186,4.34,1.022,8.68,2.044,13.021,3.066-1.052,2.003-2.105,4.007-3.157,6.01.014,2.051-1.372,4.039-3.302,4.735,1.465.484,3.114.385,4.51-.27-1.076,1.089-2.152,2.178-3.229,3.268,1.295-.249,2.591-.498,3.887-.746l-2.468,2.307c.714.041,1.429.083,2.144.124.034,8.044.068,16.087.103,24.131,10.418.184,20.385,5.071,30.802,4.832,1.952-.045,3.922-.276,5.745-.973,2.366-.904,4.372-2.545,6.22-4.278,4.897-4.592,8.999-10.03,12.07-16,8.487-16.501,8.71-35.885,8.297-54.436Z" fill="#93d1ad"/>
          </g>
          <g>
            <g>
              <path d="M240.272,172.83c.076-.202.298-.234.415-.168.139.079.199.248.13.387-.072.147-.247.207-.395.135-.024-.012-.046-.027-.069-.039-.199-.103-.205-.124-.081-.316Z" fill="#fff"/>
              <path d="M243.086,176.499c-.125-.074-.167-.233-.095-.361.075-.134.24-.177.368-.097.122.076.161.24.088.364-.073.124-.238.166-.361.094Z" fill="#fff"/>
              <path d="M243.565,173.35c-.104-.063-.124-.167-.056-.288.066-.116.21-.157.32-.091.107.065.14.204.073.313-.07.115-.211.142-.338.065Z" fill="#fff"/>
              <path d="M243.396,171.712c.106.067.137.199.071.301-.065.102-.201.13-.305.065-.113-.071-.15-.209-.084-.311.066-.103.204-.127.318-.055Z" fill="#fff"/>
              <path d="M241.422,174.256c-.104-.062-.14-.199-.08-.303.061-.105.197-.14.302-.077.107.064.141.195.079.302-.062.108-.194.142-.3.078Z" fill="#fff"/>
              <path d="M240.705,170.809c-.097-.062-.123-.197-.057-.294.063-.093.188-.119.284-.061.101.062.13.19.066.291-.063.099-.194.128-.293.064Z" fill="#fff"/>
              <path d="M244.514,176.222c-.062.096-.183.122-.281.062-.102-.063-.13-.191-.064-.291.063-.095.186-.122.282-.063.101.063.129.19.063.291Z" fill="#fff"/>
              <path d="M241.975,170.934c.091.059.118.173.061.255-.059.086-.187.112-.273.057-.089-.057-.113-.166-.056-.256.059-.093.174-.117.268-.056Z" fill="#fff"/>
              <path d="M242.178,176.989c-.026-.016-.054-.03-.078-.049-.073-.06-.087-.134-.03-.209.059-.076.136-.076.21-.023.039.028.069.068.108.097.071.053.097.118.045.194-.053.077-.125.07-.197.023-.018-.012-.037-.023-.056-.035l-.002.003Z" fill="#fff"/>
              <path d="M245.004,172.787c.09.053.123.168.072.252-.051.086-.181.116-.27.062-.084-.051-.112-.174-.06-.257.054-.085.168-.11.257-.058Z" fill="#fff"/>
              <path d="M239.095,175.608c-.057.1-.158.137-.246.09-.083-.044-.114-.159-.066-.244.048-.086.24-.135.323-.083.065.041.062.11-.01.237Z" fill="#fff"/>
              <path d="M238.91,174.161c.086.057.11.174.047.259-.065.088-.151.106-.247.052-.092-.052-.115-.166-.057-.255.057-.089.17-.113.257-.056Z" fill="#fff"/>
              <path d="M240.07,176.926c-.082-.056-.103-.178-.046-.263.058-.086.162-.106.245-.048.085.059.107.176.049.26-.055.08-.172.103-.249.05Z" fill="#fff"/>
              <path d="M242.363,175.595c-.051.082-.164.11-.246.062-.086-.051-.112-.171-.054-.257.054-.081.167-.106.247-.053.08.052.104.166.053.248Z" fill="#fff"/>
              <path d="M240.305,174.405c.054-.066.129-.089.215-.039.079.046.106.161.053.233-.058.079-.138.095-.223.049-.079-.043-.102-.158-.046-.243Z" fill="#fff"/>
              <path d="M244.335,174.899c.071-.006.15-.034.21-.011.09.034.097.125.051.204-.047.081-.136.108-.206.053-.049-.039-.06-.126-.089-.191l.033-.054Z" fill="#fff"/>
              <path d="M242.411,173.098c-.108.018-.174.044-.23.03-.022-.006-.045-.112-.026-.154.034-.074.112-.091.178-.033.03.025.039.075.078.157Z" fill="#fff"/>
              <path d="M244.056,173.638c.003.092.025.158.001.188-.025.032-.093.03-.143.043-.011-.05-.045-.11-.028-.147.016-.035.085-.046.169-.085Z" fill="#fff"/>
              <path d="M243.325,175.045c-.004-.085-.024-.146-.003-.174.023-.03.086-.03.131-.043.012.049.044.105.03.145-.01.03-.08.039-.159.073Z" fill="#fff"/>
              <path d="M242.438,177.747c-.003-.091-.024-.154-.002-.18.025-.029.095-.04.134-.026.023.008.043.092.027.121-.018.034-.078.045-.159.085Z" fill="#fff"/>
              <path d="M241.702,175.724c-.087,0-.148.019-.175-.003-.029-.024-.024-.087-.035-.133.046-.01.102-.04.136-.024.031.015.039.079.073.16Z" fill="#fff"/>
              <path d="M240.869,175.435c-.078.006-.133.026-.158.007-.027-.02-.045-.091-.029-.117.016-.026.085-.044.116-.031.029.012.038.071.071.141Z" fill="#fff"/>
              <path d="M244.923,174.196c-.078.004-.13.022-.159.003-.025-.016-.045-.092-.03-.109.025-.029.086-.051.12-.039.028.01.037.072.07.144Z" fill="#fff"/>
              <path d="M244.834,174.922c.079-.003.136-.021.161-.001.027.022.026.08.037.122-.043.01-.094.038-.126.023-.03-.013-.039-.072-.072-.144Z" fill="#fff"/>
              <path d="M239.593,172.918c-.062.003-.118.021-.135.003-.025-.027-.022-.079-.03-.121.042-.006.091-.028.125-.014.023.009.024.07.041.131Z" fill="#fff"/>
              <path d="M240.187,171.059c-.001.067.013.124-.007.142-.027.024-.081.017-.123.023-.003-.04-.022-.09-.005-.116.017-.026.071-.028.134-.049Z" fill="#fff"/>
              <path d="M243.375,174.488c-.006-.061-.026-.111-.01-.128.023-.026.071-.028.109-.041.007.039.028.082.016.115-.008.023-.06.03-.115.055Z" fill="#fff"/>
              <path d="M242.75,173.771c-.005-.06-.02-.101-.007-.129.008-.017.076-.031.086-.019.021.024.034.069.026.1-.005.019-.054.026-.105.048Z" fill="#fff"/>
            </g>
            <g>
              <g>
                <path d="M257.624,171.043c-.095-.104-.048-.242.025-.291.087-.058.203-.042.264.039.064.085.047.204-.038.269-.014.01-.029.019-.043.029-.119.085-.133.082-.207-.046Z" fill="#fff"/>
                <path d="M260.587,170.494c-.08.051-.185.028-.238-.052-.056-.084-.032-.192.053-.243.08-.048.187-.023.238.057.05.079.026.188-.053.238Z" fill="#fff"/>
                <path d="M258.9,169.284c-.067.042-.134.023-.184-.053-.048-.073-.029-.168.042-.213.069-.043.16-.021.204.05.046.075.02.164-.062.216Z" fill="#fff"/>
                <path d="M257.898,168.897c.07-.042.156-.021.196.048.04.068.016.155-.052.196-.074.044-.166.025-.206-.043-.04-.069-.013-.156.062-.201Z" fill="#fff"/>
                <path d="M258.792,170.797c-.067.042-.157.023-.199-.043-.043-.067-.023-.156.045-.198.069-.043.155-.024.199.043.044.068.025.154-.044.198Z" fill="#fff"/>
                <path d="M256.578,170.194c-.065.038-.151.013-.188-.054-.035-.064-.014-.144.048-.183.066-.041.149-.02.188.048.039.066.017.15-.049.189Z" fill="#fff"/>
                <path d="M260.849,169.583c.037.065.017.143-.047.182-.067.041-.149.019-.188-.049-.036-.064-.016-.144.047-.182.067-.04.149-.019.188.05Z" fill="#fff"/>
                <path d="M257.026,169.493c.061-.035.135-.018.166.04.032.06.01.142-.048.175-.059.035-.13.016-.165-.043-.037-.062-.016-.135.047-.172Z" fill="#fff"/>
                <path d="M260.603,171.166c-.017.01-.034.023-.052.031-.056.025-.104.011-.13-.045-.027-.057-.004-.101.049-.129.028-.014.06-.02.088-.034.052-.025.097-.022.126.031.029.054.004.093-.045.121-.013.007-.025.015-.037.022v.002Z" fill="#fff"/>
                <path d="M258.998,168.282c.057-.037.134-.022.168.033.035.055.014.14-.044.175-.054.034-.135.014-.167-.041-.033-.057-.014-.13.043-.167Z" fill="#fff"/>
                <path d="M258.889,172.549c.041.063.033.132-.021.17-.05.035-.126.019-.161-.034-.036-.053-.007-.179.047-.212.043-.026.082-.004.134.076Z" fill="#fff"/>
                <path d="M257.994,172.228c.058-.033.133-.012.164.049.032.064.017.119-.043.159-.057.038-.13.018-.165-.042-.035-.059-.015-.132.044-.166Z" fill="#fff"/>
                <path d="M259.943,172.372c-.057.031-.134.007-.166-.051-.033-.059-.014-.125.045-.157.059-.032.134-.01.166.048.03.055.009.131-.044.16Z" fill="#fff"/>
                <path d="M259.848,170.646c.033.054.016.128-.037.161-.055.035-.132.014-.165-.045-.031-.056-.012-.128.042-.159.054-.031.127-.011.16.042Z" fill="#fff"/>
                <path d="M258.548,171.49c-.022-.051-.013-.101.041-.136.05-.032.125-.014.151.038.029.057.015.108-.038.144-.048.033-.122.012-.155-.046Z" fill="#fff"/>
                <path d="M260.028,169.295c.018-.043.025-.097.056-.125.046-.042.101-.019.133.031.033.051.023.111-.03.135-.037.017-.091-.002-.137-.005l-.022-.035Z" fill="#fff"/>
                <path d="M258.412,169.88c-.022.068-.026.114-.05.142-.01.011-.079-.007-.097-.03-.033-.041-.02-.092.033-.113.024-.01.055,0,.114.001Z" fill="#fff"/>
                <path d="M259.212,169.084c.055.025.099.032.11.055.011.024-.01.063-.017.096-.032-.008-.077-.007-.093-.027-.016-.02-.001-.063,0-.123Z" fill="#fff"/>
                <path d="M259.813,169.925c-.051-.023-.092-.029-.102-.05-.011-.022.008-.059.014-.089.032.007.074.005.093.025.014.015,0,.058-.005.114Z" fill="#fff"/>
                <path d="M261.12,171.239c-.054-.025-.097-.032-.105-.052-.009-.023.005-.067.024-.086.011-.011.066.002.078.02.014.021.003.059.002.118Z" fill="#fff"/>
                <path d="M259.728,171.069c-.025.051-.033.092-.053.101-.023.009-.058-.011-.087-.019.008-.03.007-.071.026-.086.018-.014.057,0,.114.005Z" fill="#fff"/>
                <path d="M259.313,171.467c-.02.047-.024.085-.043.094-.02.009-.066,0-.076-.018-.011-.017,0-.063.016-.077.016-.013.052-.001.103,0Z" fill="#fff"/>
                <path d="M259.793,168.745c-.021.046-.026.082-.045.094-.017.01-.067-.001-.072-.015-.009-.023-.004-.065.013-.081.014-.013.053,0,.104.002Z" fill="#fff"/>
                <path d="M260.188,169.012c.022-.047.028-.085.047-.094.021-.009.054.008.082.014-.007.028-.006.066-.024.08-.016.013-.053.001-.105,0Z" fill="#fff"/>
                <path d="M257.474,171.464c-.017.037-.023.075-.038.08-.023.007-.052-.011-.079-.018.009-.026.011-.061.029-.077.012-.01.048.007.088.015Z" fill="#fff"/>
                <path d="M256.57,170.569c.039.021.076.029.081.046.006.023-.014.052-.023.078-.024-.01-.059-.014-.069-.032-.01-.018.005-.049.011-.092Z" fill="#fff"/>
                <path d="M259.505,169.731c-.037-.014-.072-.018-.077-.032-.008-.021.005-.05.008-.075.025.007.056.008.071.025.011.011,0,.044-.002.083Z" fill="#fff"/>
                <path d="M258.904,169.882c-.036-.015-.064-.018-.077-.034-.008-.01.005-.053.014-.055.02-.005.05,0,.066.014.009.008,0,.039-.003.075Z" fill="#fff"/>
              </g>
              <g>
                <path d="M256.978,168.615c.217.047.283.268.234.397-.059.154-.222.24-.375.192-.161-.051-.248-.22-.198-.382.008-.026.02-.051.029-.077.074-.219.095-.228.31-.13Z" fill="#fff"/>
                <path d="M253.667,172.04c.056-.138.212-.205.353-.152.148.057.217.217.155.361-.059.135-.22.201-.358.145-.137-.056-.206-.217-.15-.354Z" fill="#fff"/>
                <path d="M256.948,172.049c.048-.116.151-.152.285-.101.129.05.192.19.141.313-.049.119-.186.174-.308.122-.127-.054-.177-.193-.118-.334Z" fill="#fff"/>
                <path d="M258.592,171.629c-.052.118-.182.17-.296.118-.113-.051-.163-.185-.112-.301.055-.125.19-.184.304-.133.115.052.16.189.104.315Z" fill="#fff"/>
                <path d="M255.699,170.003c.047-.116.181-.173.296-.128.117.046.172.179.124.296-.049.118-.177.173-.295.126-.119-.047-.174-.176-.125-.294Z" fill="#fff"/>
                <path d="M259.102,168.749c.049-.108.182-.155.291-.103.104.05.15.173.105.28-.047.113-.173.162-.286.111-.111-.049-.159-.178-.11-.288Z" fill="#fff"/>
                <path d="M254.166,173.452c-.107-.049-.152-.168-.106-.277.049-.113.175-.162.286-.109.106.05.153.171.107.278-.049.113-.174.16-.287.108Z" fill="#fff"/>
                <path d="M259.168,170.062c-.046.101-.158.147-.251.101-.096-.047-.143-.173-.099-.269.044-.099.152-.14.253-.096.103.046.145.159.098.265Z" fill="#fff"/>
                <path d="M253.029,171.189c.013-.029.022-.06.039-.087.05-.083.123-.109.208-.062.087.048.098.127.056.211-.022.044-.059.081-.083.124-.044.08-.105.117-.19.075-.087-.043-.091-.116-.053-.197.01-.021.018-.042.027-.062l-.004-.002Z" fill="#fff"/>
                <path d="M257.74,173.43c-.04.1-.152.151-.246.112-.095-.039-.146-.167-.104-.266.039-.093.161-.141.253-.1.095.042.138.154.098.253Z" fill="#fff"/>
                <path d="M253.968,167.837c-.111-.043-.163-.14-.129-.237.032-.091.144-.14.239-.104.095.036.174.224.133.316-.032.073-.103.08-.243.025Z" fill="#fff"/>
                <path d="M255.414,167.429c-.045.096-.161.138-.256.087-.1-.053-.131-.138-.091-.244.039-.101.151-.142.251-.097.099.045.141.156.096.253Z" fill="#fff"/>
                <path d="M252.774,169.031c.045-.092.166-.132.261-.086.096.046.133.149.086.243-.047.095-.163.136-.258.09-.089-.044-.131-.16-.089-.246Z" fill="#fff"/>
                <path d="M254.478,171.165c-.091-.039-.138-.151-.101-.242.039-.096.157-.14.254-.094.091.043.133.154.092.244-.041.089-.154.131-.245.092Z" fill="#fff"/>
                <path d="M255.378,168.888c.075.045.11.118.072.213-.035.088-.148.133-.229.09-.089-.047-.118-.126-.084-.22.032-.087.145-.128.241-.083Z" fill="#fff"/>
                <path d="M255.486,173.069c.016.071.057.148.043.213-.021.097-.113.118-.2.083-.09-.036-.131-.122-.085-.201.033-.056.119-.081.181-.119l.06.025Z" fill="#fff"/>
                <path d="M257.029,170.835c-.035-.107-.072-.17-.066-.23.002-.023.108-.063.153-.05.08.023.109.1.061.177-.021.034-.07.051-.148.103Z" fill="#fff"/>
                <path d="M256.729,172.593c-.093.017-.157.05-.192.03-.036-.021-.045-.091-.066-.139.049-.019.105-.062.145-.05.038.011.059.08.112.159Z" fill="#fff"/>
                <path d="M255.184,172.062c.086-.017.145-.047.177-.029.034.018.043.083.064.127-.048.02-.1.061-.143.053-.032-.006-.052-.075-.098-.151Z" fill="#fff"/>
                <path d="M252.297,171.569c.092-.017.153-.048.183-.029.033.021.056.091.047.132-.005.024-.087.058-.119.046-.037-.014-.057-.073-.111-.149Z" fill="#fff"/>
                <path d="M254.246,170.512c-.014-.089-.042-.148-.023-.179.02-.033.085-.038.13-.055.017.046.056.098.045.135-.01.034-.075.052-.152.099Z" fill="#fff"/>
                <path d="M254.414,169.618c-.018-.078-.047-.132-.031-.16.017-.03.085-.059.115-.047.029.012.058.08.049.114-.008.031-.066.05-.133.094Z" fill="#fff"/>
                <path d="M256.292,173.562c-.016-.079-.042-.129-.028-.162.013-.028.087-.059.106-.047.033.022.065.08.058.116-.006.03-.068.049-.136.093Z" fill="#fff"/>
                <path d="M255.539,173.581c.015.08.042.135.026.163-.018.031-.078.039-.119.057-.016-.042-.053-.09-.043-.124.009-.032.067-.05.136-.096Z" fill="#fff"/>
                <path d="M256.784,167.937c-.013-.063-.04-.117-.024-.138.023-.029.077-.034.118-.049.013.042.042.089.033.125-.006.024-.068.035-.127.062Z" fill="#fff"/>
                <path d="M258.769,168.259c-.069.009-.125.033-.146.015-.028-.024-.029-.08-.042-.122.04-.009.088-.036.117-.022.029.014.039.068.07.129Z" fill="#fff"/>
                <path d="M255.759,172.028c.062-.016.109-.043.129-.029.03.019.04.068.058.105-.038.013-.08.041-.114.034-.025-.005-.04-.056-.074-.109Z" fill="#fff"/>
                <path d="M256.395,171.283c.06-.014.1-.035.13-.026.019.005.043.073.032.085-.022.025-.065.045-.098.042-.02-.002-.035-.051-.065-.1Z" fill="#fff"/>
              </g>
              <g>
                <path d="M255.493,162.836c.196-.058.348.092.365.218.02.15-.074.293-.219.321-.153.03-.298-.068-.329-.222-.005-.025-.006-.05-.01-.075-.037-.21-.024-.226.193-.243Z" fill="#fff"/>
                <path d="M254.326,167.074c-.016-.137.081-.26.219-.279.145-.02.272.08.285.224.012.136-.09.26-.226.276-.136.016-.263-.085-.278-.22Z" fill="#fff"/>
                <path d="M256.988,165.63c-.012-.115.055-.19.186-.208.126-.017.239.069.252.191.013.118-.074.223-.195.235-.127.013-.228-.078-.243-.219Z" fill="#fff"/>
                <path d="M258.133,164.563c.01.119-.072.218-.188.227-.115.009-.214-.077-.224-.194-.011-.126.073-.234.188-.242.116-.009.213.082.224.209Z" fill="#fff"/>
                <path d="M255.072,164.526c-.013-.115.07-.221.183-.234.115-.014.219.069.232.185.013.117-.067.219-.183.233-.117.014-.218-.066-.231-.183Z" fill="#fff"/>
                <path d="M257.273,162.005c-.008-.109.079-.206.19-.212.106-.005.198.074.209.18.011.112-.069.208-.183.217-.111.009-.208-.074-.216-.185Z" fill="#fff"/>
                <path d="M255.355,167.997c-.108.008-.198-.069-.208-.178-.011-.113.07-.208.184-.215.108-.007.199.071.209.178.011.113-.07.207-.185.215Z" fill="#fff"/>
                <path d="M257.907,163.039c.008.103-.063.189-.158.193-.099.004-.192-.077-.2-.174-.008-.1.061-.181.162-.189.104-.009.188.065.196.171Z" fill="#fff"/>
                <path d="M253.434,166.667c-.003-.029-.008-.059-.007-.088.004-.09.051-.143.141-.142.091,0,.136.059.138.146.001.046-.012.092-.012.137,0,.084-.034.141-.121.145-.089.004-.125-.054-.13-.136-.001-.021-.004-.042-.006-.063h-.004Z" fill="#fff"/>
                <path d="M258.241,166.398c.012.099-.056.189-.15.2-.095.01-.192-.071-.202-.169-.01-.092.068-.185.16-.193.095-.008.18.064.191.162Z" fill="#fff"/>
                <path d="M252.712,163.537c-.109.014-.194-.041-.209-.135-.014-.088.055-.177.147-.19.093-.013.24.104.248.197.006.073-.048.11-.186.128Z" fill="#fff"/>
                <path d="M253.702,162.567c.006.098-.069.183-.169.184-.105.001-.168-.054-.181-.157-.013-.099.06-.182.161-.19.1-.008.183.064.19.163Z" fill="#fff"/>
                <path d="M252.272,165.033c-.004-.094.076-.18.173-.185.099-.005.173.062.177.159.004.098-.072.182-.169.187-.092.004-.177-.071-.181-.16Z" fill="#fff"/>
                <path d="M254.597,166.007c-.091.008-.178-.061-.188-.151-.011-.094.066-.183.164-.189.093-.006.176.066.182.157.006.09-.066.174-.158.183Z" fill="#fff"/>
                <path d="M254.318,163.764c.081.003.141.047.153.141.011.086-.061.173-.146.174-.093.001-.151-.05-.165-.141-.013-.085.061-.168.158-.174Z" fill="#fff"/>
                <path d="M256.255,167.103c.045.05.112.094.129.153.026.087-.039.145-.125.155-.089.011-.16-.041-.158-.126.002-.06.06-.118.094-.177l.06-.006Z" fill="#fff"/>
                <path d="M256.517,164.611c-.075-.071-.133-.106-.155-.157-.008-.02.059-.099.102-.108.075-.017.133.033.127.116-.002.037-.035.072-.075.149Z" fill="#fff"/>
                <path d="M257.052,166.168c-.068.055-.105.11-.142.109-.039,0-.077-.054-.115-.084.031-.037.058-.097.095-.105.036-.008.083.038.161.08Z" fill="#fff"/>
                <path d="M255.566,166.421c.063-.052.097-.102.131-.102.036,0,.072.048.108.075-.03.037-.054.093-.092.106-.028.009-.075-.038-.146-.079Z" fill="#fff"/>
                <path d="M253.009,167.299c.067-.055.103-.107.135-.104.036.002.085.049.097.086.007.022-.045.085-.076.09-.036.005-.079-.033-.156-.072Z" fill="#fff"/>
                <path d="M254.12,165.58c-.051-.066-.1-.101-.098-.134.002-.036.052-.068.081-.102.034.029.089.054.096.089.007.032-.038.075-.079.147Z" fill="#fff"/>
                <path d="M253.861,164.783c-.049-.056-.096-.086-.096-.116,0-.032.043-.086.072-.089.029-.003.083.039.09.07.007.029-.032.07-.066.135Z" fill="#fff"/>
                <path d="M257.126,167.146c-.048-.057-.091-.086-.094-.119-.002-.028.044-.087.065-.085.036.003.088.036.098.068.009.027-.033.069-.069.135Z" fill="#fff"/>
                <path d="M256.525,167.495c.048.059.094.091.093.121-.001.034-.046.066-.071.099-.032-.027-.082-.049-.09-.082-.007-.03.032-.071.068-.138Z" fill="#fff"/>
                <path d="M255.037,162.372c-.038-.046-.084-.077-.08-.101.006-.034.048-.062.074-.092.029.029.073.053.082.087.006.022-.039.058-.076.106Z" fill="#fff"/>
                <path d="M256.786,161.755c-.052.037-.087.082-.112.077-.033-.007-.059-.052-.088-.08.028-.025.056-.068.085-.07.03-.002.062.038.114.074Z" fill="#fff"/>
                <path d="M256.016,166.139c.043-.04.069-.083.092-.081.033.003.063.038.094.059-.025.027-.047.068-.078.078-.022.007-.057-.028-.108-.056Z" fill="#fff"/>
                <path d="M256.201,165.255c.042-.038.065-.073.094-.079.018-.004.067.04.064.054-.006.03-.033.065-.061.077-.017.007-.05-.026-.097-.052Z" fill="#fff"/>
              </g>
              <g>
                <path d="M256.549,157.229c.221.055.283.284.228.415-.065.156-.236.24-.391.185-.163-.058-.248-.233-.191-.398.009-.027.023-.051.032-.078.083-.222.105-.231.322-.124Z" fill="#fff"/>
                <path d="M253.041,160.641c.062-.14.225-.204.368-.145.15.063.216.23.147.375-.065.137-.232.199-.372.138-.139-.061-.204-.23-.143-.368Z" fill="#fff"/>
                <path d="M256.41,160.754c.053-.117.16-.152.296-.094.131.055.191.201.135.325-.055.121-.197.172-.32.116-.129-.059-.175-.204-.11-.347Z" fill="#fff"/>
                <path d="M258.11,160.375c-.057.12-.192.169-.308.112-.115-.056-.162-.195-.106-.312.061-.127.201-.183.317-.127.116.057.158.199.097.327Z" fill="#fff"/>
                <path d="M255.192,158.614c.052-.117.192-.172.308-.122.118.051.171.19.118.308-.054.12-.188.172-.307.12-.121-.052-.173-.186-.119-.306Z" fill="#fff"/>
                <path d="M258.726,157.434c.054-.11.191-.154.302-.096.105.055.149.182.099.29-.052.114-.183.16-.297.105-.112-.054-.158-.188-.103-.299Z" fill="#fff"/>
                <path d="M253.509,162.107c-.108-.054-.151-.177-.1-.288.053-.115.184-.16.298-.103.107.054.151.18.101.289-.054.114-.184.159-.298.102Z" fill="#fff"/>
                <path d="M258.751,158.784c-.05.103-.167.145-.261.096-.097-.052-.141-.182-.094-.28.049-.1.161-.139.262-.091.105.05.144.168.092.275Z" fill="#fff"/>
                <path d="M252.414,159.747c.014-.03.025-.061.042-.088.054-.084.13-.108.216-.057.087.052.097.133.05.218-.024.045-.063.081-.089.125-.047.081-.112.117-.198.071-.088-.046-.089-.122-.048-.204.011-.021.02-.042.03-.063l-.004-.002Z" fill="#fff"/>
                <path d="M257.179,162.197c-.044.101-.161.15-.256.107-.097-.043-.144-.176-.099-.276.043-.094.169-.14.263-.095.096.046.137.163.093.263Z" fill="#fff"/>
                <path d="M253.484,156.336c-.112-.048-.163-.149-.125-.248.036-.093.153-.139.248-.099.096.04.171.235.127.329-.035.074-.108.079-.25.018Z" fill="#fff"/>
                <path d="M254.981,155.962c-.049.097-.169.137-.266.082-.101-.058-.131-.146-.086-.253.043-.103.16-.141.261-.092.1.049.14.165.091.263Z" fill="#fff"/>
                <path d="M252.219,157.524c.049-.093.175-.13.27-.08.097.051.131.157.081.252-.051.096-.172.134-.267.084-.09-.048-.13-.168-.084-.256Z" fill="#fff"/>
                <path d="M253.902,159.769c-.092-.043-.136-.159-.096-.251.043-.097.166-.138.264-.089.092.047.132.162.086.253-.045.09-.162.13-.254.087Z" fill="#fff"/>
                <path d="M254.897,157.459c.076.049.109.124.067.221-.039.089-.156.131-.238.085-.09-.051-.117-.133-.079-.228.036-.088.153-.126.25-.078Z" fill="#fff"/>
                <path d="M254.877,161.755c.015.074.054.154.038.22-.024.099-.119.117-.208.079-.091-.04-.131-.13-.081-.21.035-.056.124-.079.19-.117l.061.028Z" fill="#fff"/>
                <path d="M256.531,159.51c-.032-.111-.068-.177-.06-.238.003-.024.112-.061.159-.046.082.026.109.106.057.183-.023.034-.074.05-.155.101Z" fill="#fff"/>
                <path d="M256.168,161.306c-.096.015-.163.046-.198.025-.037-.022-.043-.095-.063-.145.051-.018.11-.061.151-.047.039.013.058.084.11.167Z" fill="#fff"/>
                <path d="M254.599,160.712c.089-.014.15-.043.183-.024.034.02.042.086.061.132-.05.019-.105.059-.148.05-.032-.007-.051-.079-.096-.158Z" fill="#fff"/>
                <path d="M251.65,160.115c.095-.015.159-.044.189-.024.033.023.054.095.044.137-.006.025-.091.056-.124.043-.038-.015-.057-.076-.109-.157Z" fill="#fff"/>
                <path d="M253.684,159.09c-.012-.091-.039-.154-.018-.184.022-.033.088-.036.135-.053.016.047.055.102.042.14-.011.034-.078.051-.159.097Z" fill="#fff"/>
                <path d="M253.885,158.179c-.016-.081-.044-.137-.027-.165.018-.031.09-.058.119-.045.03.013.057.084.047.119-.01.032-.07.049-.139.092Z" fill="#fff"/>
                <path d="M255.689,162.287c-.014-.081-.039-.134-.023-.167.014-.028.091-.058.11-.045.033.023.064.084.056.121-.007.03-.071.048-.143.091Z" fill="#fff"/>
                <path d="M254.915,162.283c.013.083.039.14.021.169-.02.032-.081.037-.124.054-.015-.044-.051-.094-.04-.129.01-.033.071-.049.143-.094Z" fill="#fff"/>
                <path d="M256.372,156.527c-.011-.065-.037-.122-.02-.142.025-.029.081-.033.123-.047.012.044.04.092.03.13-.007.025-.07.033-.133.059Z" fill="#fff"/>
                <path d="M258.399,156.921c-.071.007-.129.03-.15.011-.028-.025-.027-.083-.039-.127.041-.008.092-.034.121-.019.029.015.038.071.068.135Z" fill="#fff"/>
                <path d="M255.19,160.695c.064-.014.113-.041.134-.026.03.021.039.072.057.109-.04.012-.083.039-.118.031-.025-.006-.039-.059-.072-.114Z" fill="#fff"/>
                <path d="M255.866,159.95c.062-.013.103-.033.135-.023.019.006.042.076.031.088-.023.025-.069.044-.102.04-.02-.003-.034-.053-.063-.105Z" fill="#fff"/>
              </g>
            </g>
          </g>
        </g>
      </g>
    </g>
  </g>
</svg>