<?xml version="1.0" encoding="UTF-8"?><svg xmlns="http://www.w3.org/2000/svg" xmlns:xlink="http://www.w3.org/1999/xlink" viewBox="0 0 580 440.8"><defs><style>.cls-1{fill:#ffcb57;}.cls-2{fill:#cecece;}.cls-3{fill:#1d1061;}.cls-4,.cls-5,.cls-6{fill:none;}.cls-7{fill:#5cc6a0;}.cls-8{fill:#65447a;}.cls-9{isolation:isolate;}.cls-5{stroke:#1d1061;}.cls-5,.cls-6{stroke-linecap:round;stroke-linejoin:round;}.cls-10{fill:url(#_40_10_ppp);mix-blend-mode:multiply;opacity:.25;}.cls-11{fill:#a5a5a5;}.cls-12{fill:#fdfdfd;}.cls-6{stroke:#ffcb57;}</style><pattern id="_40_10_ppp" x="0" y="0" width="10" height="10" patternTransform="translate(1110 1275.39)" patternUnits="userSpaceOnUse" viewBox="0 0 10 10"><rect class="cls-4" width="10" height="10"/><circle class="cls-3" cx="8.95" cy="8.95" r="1.05"/><circle class="cls-3" cx="3.68" cy="8.95" r="1.05"/><path class="cls-3" d="M8.95,4.74c.58,0,1.05-.47,1.05-1.05s-.47-1.05-1.05-1.05-1.05.47-1.05,1.05.47,1.05,1.05,1.05Z"/><path class="cls-3" d="M3.68,4.74c.58,0,1.05-.47,1.05-1.05s-.47-1.05-1.05-1.05-1.05.47-1.05,1.05.47,1.05,1.05,1.05Z"/><path class="cls-3" d="M1.05,7.37c.58,0,1.05-.47,1.05-1.05s-.47-1.05-1.05-1.05S0,5.73,0,6.32s.47,1.05,1.05,1.05Z"/><circle class="cls-3" cx="6.32" cy="6.32" r="1.05"/><path class="cls-3" d="M1.05,2.11c.58,0,1.05-.47,1.05-1.05S1.63,0,1.05,0,0,.47,0,1.05s.47,1.05,1.05,1.05Z"/><circle class="cls-3" cx="6.32" cy="1.05" r="1.05"/></pattern></defs><g class="cls-9"><g id="ZONE_3_A"><path class="cls-3" d="M494.55,257.8c-1.03-1.93-2.51-1.27-3.24.66-.24-.3-.49-.58-.75-.85-1.62-1.69-1.82,2.9-1.81,5.48-.15.01-.29.03-.44.04-.33-.85-.84-1.73-1.52-1.8-.58-.06-.95.88-1.18,1.95-3.6.1-8.06-.18-10.35-1.95.78-1.4,1.61-3.01,2.39-4.69.04-.08.07-.16.11-.24.22-.48.44-.97.65-1.46.07-.15.13-.31.19-.46.18-.42.35-.84.52-1.26.08-.21.15-.41.23-.62.14-.37.28-.74.41-1.11.08-.23.14-.46.21-.69.11-.34.22-.68.32-1.02.08-.27.13-.54.2-.81.07-.28.15-.57.21-.85.06-.29.1-.56.14-.83.04-.25.1-.51.13-.75.03-.28.04-.54.06-.8.02-.23.05-.46.05-.68,0-.24-.03-.46-.04-.69-.01-.22,0-.46-.04-.67-.03-.24-.11-.46-.16-.68-.04-.17-.07-.36-.12-.52-.09-.24-.21-.45-.33-.66-.07-.12-.11-.26-.19-.37-.13-.19-.3-.33-.46-.49-.11-.11-.19-.24-.31-.34-.21-.17-.48-.3-.75-.43-.08-.04-.15-.1-.23-.13l.4-4.97c.02-.23-.15-.42-.38-.44-.23-.04-.42.15-.44.38l-.38,4.81c-.2-.05-.38-.12-.6-.15-.51-.07-1.02-.08-1.54-.04-.02,0-.04,0-.06,0l-1.39-3.44c-.08-.21-.32-.31-.53-.23-.21.08-.31.32-.23.53l1.32,3.28c-.23.04-.45.06-.68.12-.22.06-.45.16-.67.24-.3.11-.6.2-.91.33-.25.11-.51.26-.76.4-.28.15-.55.28-.83.45-.28.17-.55.37-.83.56-.25.18-.51.34-.76.53-.3.23-.6.49-.9.74-.23.19-.46.37-.68.58-.33.3-.65.62-.97.94-.2.2-.4.38-.59.59-.35.37-.7.76-1.04,1.15-.17.19-.33.37-.5.56-.37.44-.74.9-1.11,1.37-.13.17-.27.33-.4.51-.39.52-.78,1.06-1.17,1.61-.1.14-.2.28-.3.42-.26.37-.51.75-.77,1.14-2.68-.08-7.69-.11-7.97.72-.26.77,3.9,1.46,6.39,1.79-.11.18-.21.35-.32.53-.04.07-.09.15-.13.22-.42.73-.84,1.47-1.25,2.22-.02.04-.05.08-.07.12-.42.78-.83,1.58-1.23,2.38,0,.02-.02.03-.02.05-.41.82-.8,1.65-1.18,2.48,0,0,0,0,0,0-.38.84-.75,1.69-1.11,2.54,0,0,0,0,0,0h0c-.16.38-.33.76-.48,1.14-3.03,7.55-2.96,13.9.93,18.1-5.44,1.11-10.9,1.51-13.03,1.63.85-1.83,1.46-5.55,1.01-8.84-.48-3.54-3.64-7.87-4.92-6.06-.79,1.13,1.44,2.89,1.08,5.27-2.09-.96-6.01-1.8-6.21.43-.13,1.48,2.37,0,4.84,2.78,2.47,2.79.22,10.55,3.61,7.36.02-.02.04-.06.07-.09,1.59-.08,7.98-.45,14.21-1.78.74.68,1.62,1.27,2.59,1.81-.45,4.13-1.86,10.45,1.1,7.66.04-.04.08-.1.12-.14,2.06-.36,11.8-2.14,15.3-4.63,20.17-.63,32.76-8.85,20.47-31.94ZM461.67,288.51c2.92.83,6.49,1.27,10.76,1.24-3.54,1.78-10.21,3.14-12.96,3.65.69-1.14,1.48-2.89,2.2-4.89Z"/><path class="cls-1" d="M442.32,285.69c1.12-1.06,2.14-5.76,1.59-9.78-.48-3.54-3.64-7.87-4.92-6.06-.79,1.13,1.44,2.89,1.08,5.27-2.09-.96-6.01-1.8-6.21.43-.13,1.48,2.37,0,4.84,2.78,2.47,2.79.22,10.55,3.61,7.36Z"/><path class="cls-6" d="M441.98,285.21s9.08-.31,16.93-2.35"/><path class="cls-2" d="M478.66,238.47c-8.2-1.14-18.04,12.54-23.66,26.57-5.62,14.02-.71,23.96,19.92,23.52,20.63-.44,33.71-8.58,21.26-31.96-1.63-3.05-4.39.37-3.51,5.03,0,0-11.58,1.74-15.79-1.5,4.13-7.46,9.76-20.54,1.77-21.65Z"/><path class="cls-8" d="M476.9,260.1c4.13-7.46,9.74-20.52,1.76-21.63-7.98-1.11-17.5,11.82-23.18,25.43,4.77,1.27,14.78-.96,21.42-3.8Z"/><path class="cls-10" d="M477.69,261.06c4.13-7.46,9.74-20.52,1.76-21.63-7.98-1.11-17.5,11.82-23.18,25.43,4.77,1.27,14.78-.96,21.42-3.8Z"/><path class="cls-10" d="M476.59,265.08c-3.21,2.91-7.54,14.45,8.43,14.89,15.97.44,14.68-15.04,7.99-21.99-2.22-2.3-1.77,7.1-1.77,7.1,0,0-.67-3.25-2-3.38s-1.55,4.92-1.55,4.92c-5.85,0-8.91-3.51-11.09-1.53Z"/><path class="cls-7" d="M475.78,263.51c-3.21,2.91-7.54,14.45,8.43,14.89,15.97.44,14.68-15.04,7.99-21.99-2.22-2.3-1.77,7.1-1.77,7.1,0,0-.67-3.25-2-3.38s-1.55,4.92-1.55,4.92c-5.85,0-8.91-3.51-11.09-1.53Z"/><path class="cls-12" d="M480.57,278.05c1.08.19,2.28.31,3.63.35,2.88.08,5.19-.36,7.02-1.18.19-5.5-2.97-10.88-4.31-12.88-.04.42-.05.7-.05.7-1.26,0-2.38-.17-3.4-.4-.02,4.62-1.77,10.24-2.9,13.41Z"/><path class="cls-11" d="M486.43,278.34c10.08-.75,11.89-8.8,9.55-15.62-1.88-.28-3.87-.28-5.58-.17.01.58.03.96.03.96,0,0-.09-.41-.25-.95-1.25.08-2.32.22-3.08.33-.17,1.12-.22,2.15-.22,2.15-.38,0-.74-.02-1.09-.04,1.96,5.22,1.31,10.44.65,13.34Z"/><path class="cls-1" d="M464.02,250.89s-9.25-.48-9.63.66,8.21,2.02,8.21,2.02c0,0,.93.32,1.42-.75.68-1.48,0-1.93,0-1.93Z"/><line class="cls-5" x1="468.87" y1="247.48" x2="468.01" y2="249"/><line class="cls-5" x1="473.23" y1="249.95" x2="474.14" y2="248.17"/><line class="cls-5" x1="479.62" y1="239.26" x2="480.06" y2="233.85"/><line class="cls-5" x1="476.95" y1="239.26" x2="475.29" y2="235.14"/><path class="cls-1" d="M460.29,293.3c2.12-2,6.45-14.24,4.81-18.67-1.9-5.12-2.55,3.68-3.81,4.65-.54-1.84-2.25-7.61-3.91-6.09-1.1,1.01,1.98,7.09,1.92,10.82s-2.4,12.48.99,9.29Z"/><path class="cls-6" d="M459.95,292.82s11.93-1.95,15.64-4.69"/></g></g></svg>