<?xml version="1.0" encoding="UTF-8"?><svg xmlns="http://www.w3.org/2000/svg" xmlns:xlink="http://www.w3.org/1999/xlink" viewBox="0 0 580 440.8"><defs><style>.cls-1{fill:#1d1061;}.cls-2,.cls-3{fill:none;}.cls-4{isolation:isolate;}.cls-3{stroke:#1d1061;stroke-linecap:round;stroke-linejoin:round;}.cls-5{fill:url(#_40_10_ppp);mix-blend-mode:multiply;opacity:.25;}.cls-6{fill:#fdfdfd;}.cls-7{fill:#6a90c6;}</style><pattern id="_40_10_ppp" x="0" y="0" width="10" height="10" patternTransform="translate(-60 835.4)" patternUnits="userSpaceOnUse" viewBox="0 0 10 10"><rect class="cls-2" width="10" height="10"/><circle class="cls-1" cx="8.95" cy="8.95" r="1.05"/><circle class="cls-1" cx="3.68" cy="8.95" r="1.05"/><path class="cls-1" d="M8.95,4.74c.58,0,1.05-.47,1.05-1.05s-.47-1.05-1.05-1.05-1.05.47-1.05,1.05.47,1.05,1.05,1.05Z"/><path class="cls-1" d="M3.68,4.74c.58,0,1.05-.47,1.05-1.05s-.47-1.05-1.05-1.05-1.05.47-1.05,1.05.47,1.05,1.05,1.05Z"/><path class="cls-1" d="M1.05,7.37c.58,0,1.05-.47,1.05-1.05s-.47-1.05-1.05-1.05S0,5.73,0,6.32s.47,1.05,1.05,1.05Z"/><circle class="cls-1" cx="6.32" cy="6.32" r="1.05"/><path class="cls-1" d="M1.05,2.11c.58,0,1.05-.47,1.05-1.05S1.63,0,1.05,0,0,.47,0,1.05s.47,1.05,1.05,1.05Z"/><circle class="cls-1" cx="6.32" cy="1.05" r="1.05"/></pattern></defs><g class="cls-4"><g id="ZONE_1_A"><rect class="cls-1" x="53.1" y="269.23" width="85.52" height="6.78"/><polygon class="cls-1" points="43.22 220.79 107.97 220.79 111.97 269.22 47.22 269.22 43.22 220.79"/><rect class="cls-6" x="54.73" y="267.6" width="85.52" height="6.78"/><rect class="cls-5" x="53.39" y="268.95" width="36.8" height="6.78"/><polygon class="cls-6" points="44.86 219.15 109.61 219.15 113.61 267.58 48.86 267.58 44.86 219.15"/><polygon class="cls-5" points="43.78 220.04 47.11 220.04 51.11 268.46 47.78 268.46 43.78 220.04"/><polygon class="cls-7" points="51.84 222.26 106.64 222.26 110.13 264.48 55.33 264.48 51.84 222.26"/><line class="cls-3" x1="48.29" y1="220.69" x2="52.04" y2="266.12"/><line class="cls-3" x1="91.53" y1="268.94" x2="91.53" y2="273"/><line class="cls-3" x1="77.65" y1="220.69" x2="78.99" y2="220.69"/><line class="cls-3" x1="80.38" y1="220.69" x2="80.56" y2="220.69"/></g></g></svg>