<?xml version="1.0" encoding="UTF-8"?><svg xmlns="http://www.w3.org/2000/svg" xmlns:xlink="http://www.w3.org/1999/xlink" viewBox="0 0 580 440.8"><defs><style>.cls-1{fill:#ffcb57;}.cls-2{fill:url(#_40_10_ppp-2);opacity:.25;}.cls-2,.cls-3{mix-blend-mode:multiply;}.cls-4{fill:#fff;}.cls-5{fill:#1d1061;}.cls-6{stroke:#6a90c6;}.cls-6,.cls-7,.cls-8,.cls-9{fill:none;}.cls-6,.cls-8,.cls-9{stroke-linecap:round;stroke-linejoin:round;}.cls-10{fill:#5cc6a0;}.cls-11{clip-path:url(#clippath-1);}.cls-12{isolation:isolate;}.cls-13{fill:#f2f0ec;}.cls-3{fill:url(#_40_10_ppp);opacity:.1;}.cls-8{stroke:#ffcb57;}.cls-8,.cls-9{stroke-width:2px;}.cls-9{stroke:#1d1061;}.cls-14{clip-path:url(#clippath);}.cls-15{fill:#fdfdfd;}</style><pattern id="_40_10_ppp" x="0" y="0" width="10" height="10" patternTransform="translate(-1800 -104.59)" patternUnits="userSpaceOnUse" viewBox="0 0 10 10"><rect class="cls-7" width="10" height="10"/><circle class="cls-5" cx="8.95" cy="8.95" r="1.05"/><circle class="cls-5" cx="3.68" cy="8.95" r="1.05"/><path class="cls-5" d="M8.95,4.74c.58,0,1.05-.47,1.05-1.05s-.47-1.05-1.05-1.05-1.05.47-1.05,1.05.47,1.05,1.05,1.05Z"/><path class="cls-5" d="M3.68,4.74c.58,0,1.05-.47,1.05-1.05s-.47-1.05-1.05-1.05-1.05.47-1.05,1.05.47,1.05,1.05,1.05Z"/><path class="cls-5" d="M1.05,7.37c.58,0,1.05-.47,1.05-1.05s-.47-1.05-1.05-1.05S0,5.73,0,6.32s.47,1.05,1.05,1.05Z"/><circle class="cls-5" cx="6.32" cy="6.32" r="1.05"/><path class="cls-5" d="M1.05,2.11c.58,0,1.05-.47,1.05-1.05S1.63,0,1.05,0,0,.47,0,1.05s.47,1.05,1.05,1.05Z"/><circle class="cls-5" cx="6.32" cy="1.05" r="1.05"/></pattern><clipPath id="clippath"><path class="cls-7" d="M269.79,232.6c.16,1.87-12.97,1.87-12.97,1.87,0,0,11.09,1.71,11.09,4.37,0,1.41-11.56,1.56-11.56,1.56,0,0,.39,11.32-2.27,14.36h61.95c-2.69-3.01-2.3-14.39-2.3-14.39,0,0-11.56-.16-11.56-1.56,0-2.66,11.09-4.37,11.09-4.37,0,0-13.12,0-12.97-1.87.25-3,11.3-5.56,16.4-5.51-5.03-24.65-10.4-37.7-10.4-37.7-16.02,2.53-42.49,0-42.49,0-4.56,9.1-8.13,24.28-10.63,37.73,4.99-.13,16.36,2.46,16.61,5.51Z"/></clipPath><pattern id="_40_10_ppp-2" patternTransform="translate(-5635.79 -4209.78) scale(.52)" xlink:href="#_40_10_ppp"/><clipPath id="clippath-1"><path class="cls-7" d="M286.21,220.51c1.72,1.05,4.89,3.27,7.61,6.77,1.06,1.37-.06,3.28-1.89,3.28h-13.98c-1.83,0-2.95-1.9-1.89-3.28,2.72-3.5,5.89-5.73,7.61-6.77.77-.47,1.76-.47,2.54,0Z"/></clipPath></defs><g class="cls-12"><g id="ZONE_2_T-shirt_H"><polygon class="cls-13" points="306.29 189.37 330.24 207.54 320.55 222.07 310.71 213.16 306.29 189.37"/><polygon class="cls-13" points="263.81 189.37 239.86 207.54 249.55 222.07 259.39 213.16 263.81 189.37"/><path class="cls-3" d="M263.79,195.56s-15.39,9.88-20.64,14.89l6.38,10.38,11.26-8.76,3-16.51Z"/><path class="cls-4" d="M269.79,232.6c.16,1.87-12.97,1.87-12.97,1.87,0,0,11.09,1.71,11.09,4.37,0,1.41-11.56,1.56-11.56,1.56,0,0,.39,11.32-2.27,14.36h61.95c-2.69-3.01-2.3-14.39-2.3-14.39,0,0-11.56-.16-11.56-1.56,0-2.66,11.09-4.37,11.09-4.37,0,0-13.12,0-12.97-1.87.25-3,11.3-5.56,16.4-5.51-5.03-24.65-10.4-37.7-10.4-37.7-16.02,2.53-42.49,0-42.49,0-4.56,9.1-8.13,24.28-10.63,37.73,4.99-.13,16.36,2.46,16.61,5.51Z"/><path class="cls-6" d="M275.89,191.67s3.88,1.79,9.26,1.79"/><g class="cls-14"><polyline class="cls-1" points="274.66 214.01 274.66 206.27 272.63 208.1 271.55 207.05 274.77 204.07 280.38 204.07 280.38 214.01 282.11 214.01 282.11 215.01 272.93 215.01 272.93 214.01 274.66 214.01"/><polyline class="cls-8" points="291.37 207.76 291.37 214.59 285.66 214.59 285.66 207.76"/><rect class="cls-8" x="293.8" y="207.76" width="4.53" height="3.41"/><line class="cls-8" x1="293.8" y1="211.17" x2="293.8" y2="214.59"/><circle class="cls-5" cx="284.94" cy="228.27" r="11.82"/><path class="cls-13" d="M278.96,226.79h11.95v6.23c0,1.85-1.5,3.35-3.35,3.35h-5.25c-1.85,0-3.35-1.5-3.35-3.35v-6.23h0Z"/><polygon class="cls-5" points="278.96 231.52 278.96 226.79 290.91 226.79 290.91 230.99 278.96 231.52"/><line class="cls-9" x1="282.77" y1="229.75" x2="282.77" y2="232.7"/><line class="cls-9" x1="287.1" y1="229.75" x2="287.1" y2="232.7"/><path class="cls-10" d="M286.21,220.51c1.72,1.05,4.89,3.27,7.61,6.77,1.06,1.37-.06,3.28-1.89,3.28h-13.98c-1.83,0-2.95-1.9-1.89-3.28,2.72-3.5,5.89-5.73,7.61-6.77.77-.47,1.76-.47,2.54,0Z"/><path class="cls-2" d="M286.21,221.21c1.72,1.05,4.89,3.27,7.61,6.77,1.06,1.37-.06,3.28-1.89,3.28h-13.98c-1.83,0-2.95-1.9-1.89-3.28,2.72-3.5,5.89-5.73,7.61-6.77.77-.47,1.76-.47,2.54,0Z"/><g class="cls-11"><circle class="cls-15" cx="280.97" cy="230.56" r="3.77"/><circle class="cls-15" cx="289.19" cy="223.8" r="3.72"/><circle class="cls-15" cx="280.97" cy="222.72" r="1.92"/></g></g></g></g></svg>