<?xml version="1.0" encoding="UTF-8"?><svg xmlns="http://www.w3.org/2000/svg" xmlns:xlink="http://www.w3.org/1999/xlink" viewBox="0 0 580 440.8"><defs><style>.cls-1{clip-path:url(#clippath-6);}.cls-2{stroke:#f2f0ec;}.cls-2,.cls-3,.cls-4,.cls-5{fill:none;}.cls-2,.cls-3,.cls-5{stroke-linecap:round;stroke-linejoin:round;}.cls-2,.cls-6,.cls-7,.cls-8,.cls-9,.cls-10{mix-blend-mode:overlay;}.cls-2,.cls-5{stroke-width:.5px;}.cls-11{fill:#ffcb57;}.cls-12{clip-path:url(#clippath-4);}.cls-13{fill:#d07b73;}.cls-13,.cls-14{mix-blend-mode:soft-light;}.cls-15{fill:url(#Dégradé_sans_nom_51-2);mix-blend-mode:hard-light;}.cls-16{fill:#fff;}.cls-14,.cls-17{fill:#6a90c6;}.cls-18{mix-blend-mode:lighten;}.cls-18,.cls-19{fill:#f2f0ec;}.cls-18,.cls-20{opacity:.75;}.cls-21{fill:#1d1061;}.cls-3{stroke:#6a90c6;}.cls-22{fill:url(#Dégradé_sans_nom_51);}.cls-23{fill:#db6b4c;}.cls-6{fill:url(#_40_10_ppp-3);}.cls-6,.cls-7,.cls-8,.cls-9,.cls-10{opacity:.25;}.cls-24{isolation:isolate;}.cls-25{clip-path:url(#clippath-5);}.cls-7{fill:url(#_40_10_ppp-5);}.cls-26{clip-path:url(#clippath-3);}.cls-27{fill:#cd4d35;}.cls-28{fill:url(#_40_10_ppp);mix-blend-mode:multiply;opacity:.1;}.cls-29,.cls-20{fill:#ffa544;}.cls-30{mix-blend-mode:screen;}.cls-31{fill:url(#Dégradé_sans_nom_64);}.cls-5{stroke:#1d1061;}.cls-32{fill:#dedede;}.cls-33{fill:#a5a5a5;}.cls-8{fill:url(#_40_10_ppp-4);}.cls-9{fill:url(#_40_10_ppp-6);}.cls-10{fill:url(#_40_10_ppp-2);}</style><clipPath id="clippath"><rect class="cls-4" x="-630" y="493.9" width="580" height="450" rx="20" ry="20"/></clipPath><clipPath id="clippath-1"><path class="cls-4" d="M-26.88,780.29h-43.11v-43.93c0-2.43-1.53-4.59-3.84-5.37-16-5.46-80.03-23.97-152.99.08-2.32.76-3.87,2.95-3.87,5.39v153.92H-69.99v-28.67H-31.5v-6.93H7.76v-74.48H-26.88Z"/></clipPath><clipPath id="clippath-2"><rect class="cls-4" x="-641.73" y="474.02" width="643.14" height="576.69"/></clipPath><pattern id="_40_10_ppp" x="0" y="0" width="10" height="10" patternTransform="translate(-1270 -74.59)" patternUnits="userSpaceOnUse" viewBox="0 0 10 10"><rect class="cls-4" width="10" height="10"/><circle class="cls-21" cx="8.95" cy="8.95" r="1.05"/><circle class="cls-21" cx="3.68" cy="8.95" r="1.05"/><path class="cls-21" d="M8.95,4.74c.58,0,1.05-.47,1.05-1.05s-.47-1.05-1.05-1.05-1.05.47-1.05,1.05.47,1.05,1.05,1.05Z"/><path class="cls-21" d="M3.68,4.74c.58,0,1.05-.47,1.05-1.05s-.47-1.05-1.05-1.05-1.05.47-1.05,1.05.47,1.05,1.05,1.05Z"/><path class="cls-21" d="M1.05,7.37c.58,0,1.05-.47,1.05-1.05s-.47-1.05-1.05-1.05S0,5.73,0,6.32s.47,1.05,1.05,1.05Z"/><circle class="cls-21" cx="6.32" cy="6.32" r="1.05"/><path class="cls-21" d="M1.05,2.11c.58,0,1.05-.47,1.05-1.05S1.63,0,1.05,0,0,.47,0,1.05s.47,1.05,1.05,1.05Z"/><circle class="cls-21" cx="6.32" cy="1.05" r="1.05"/></pattern><clipPath id="clippath-3"><path class="cls-4" d="M269.79,232.6c.16,1.87-12.97,1.87-12.97,1.87,0,0,11.09,1.71,11.09,4.37,0,1.41-11.56,1.56-11.56,1.56,0,0,.39,11.32-2.27,14.36h61.95c-2.69-3.01-2.3-14.39-2.3-14.39,0,0-11.56-.16-11.56-1.56,0-2.66,11.09-4.37,11.09-4.37,0,0-13.12,0-12.97-1.87.25-3,11.3-5.56,16.4-5.51-5.03-24.65-10.4-37.7-10.4-37.7-16.02,2.53-42.49,0-42.49,0-4.56,9.1-8.13,24.28-10.63,37.73,4.99-.13,16.36,2.46,16.61,5.51Z"/></clipPath><clipPath id="clippath-4"><circle class="cls-4" cx="278.13" cy="226.23" r="17.8"/></clipPath><pattern id="_40_10_ppp-2" patternTransform="translate(-4503.9 -3583.46) scale(.59)" xlink:href="#_40_10_ppp"/><linearGradient id="Dégradé_sans_nom_51" x1="-3644.73" y1="-1616.92" x2="-3536.72" y2="-1636.99" gradientTransform="translate(-1348.26 -3380.97) rotate(-90) scale(1 -1)" gradientUnits="userSpaceOnUse"><stop offset="0" stop-color="#ffa544" stop-opacity="0"/><stop offset="1" stop-color="#db6b4c"/></linearGradient><linearGradient id="Dégradé_sans_nom_51-2" x1="-3633.44" y1="-1635.37" x2="-3555.65" y2="-1617.27" xlink:href="#Dégradé_sans_nom_51"/><clipPath id="clippath-5"><circle class="cls-4" cx="298.21" cy="212.59" r="6.37"/></clipPath><pattern id="_40_10_ppp-3" patternTransform="translate(-4503.9 -3583.46) scale(.59)" xlink:href="#_40_10_ppp"/><pattern id="_40_10_ppp-4" patternTransform="translate(-4503.9 -3583.46) scale(.59)" xlink:href="#_40_10_ppp"/><pattern id="_40_10_ppp-5" patternTransform="translate(-4503.9 -3583.46) scale(.59)" xlink:href="#_40_10_ppp"/><clipPath id="clippath-6"><circle class="cls-4" cx="278.66" cy="225.52" r="2.19"/></clipPath><linearGradient id="Dégradé_sans_nom_64" x1="692.97" y1="-937.65" x2="695.7" y2="-940.66" gradientTransform="translate(-886.54 307.32) rotate(49.49)" gradientUnits="userSpaceOnUse"><stop offset="0" stop-color="#fff" stop-opacity="0"/><stop offset="1" stop-color="#fff"/></linearGradient><pattern id="_40_10_ppp-6" patternTransform="translate(-4503.9 -3583.46) scale(.59)" xlink:href="#_40_10_ppp"/></defs><g class="cls-24"><g id="ZONE_2_T-shirt_H"><polygon class="cls-19" points="306.29 189.37 330.24 207.54 320.55 222.07 310.71 213.16 306.29 189.37"/><polygon class="cls-19" points="263.81 189.37 239.86 207.54 249.55 222.07 259.39 213.16 263.81 189.37"/><path class="cls-28" d="M263.79,195.56s-15.39,9.88-20.64,14.89l6.38,10.38,11.26-8.76,3-16.51Z"/><path class="cls-16" d="M269.79,232.6c.16,1.87-12.97,1.87-12.97,1.87,0,0,11.09,1.71,11.09,4.37,0,1.41-11.56,1.56-11.56,1.56,0,0,.39,11.32-2.27,14.36h61.95c-2.69-3.01-2.3-14.39-2.3-14.39,0,0-11.56-.16-11.56-1.56,0-2.66,11.09-4.37,11.09-4.37,0,0-13.12,0-12.97-1.87.25-3,11.3-5.56,16.4-5.51-5.03-24.65-10.4-37.7-10.4-37.7-16.02,2.53-42.49,0-42.49,0-4.56,9.1-8.13,24.28-10.63,37.73,4.99-.13,16.36,2.46,16.61,5.51Z"/><path class="cls-3" d="M275.89,191.67s3.88,1.79,9.26,1.79"/><g class="cls-26"><g class="cls-12"><rect class="cls-21" x="249.64" y="189.04" width="65.76" height="75.77"/><rect class="cls-10" x="247.71" y="188.86" width="65.1" height="85.92"/><path class="cls-22" d="M235.2,268.29s16.32.57,24.62,1.39c27.3,2.68,59.17,9.71,59.17,9.71l.79-122.12h-84.57s0,111.02,0,111.02Z"/><path class="cls-15" d="M224.14,249.76c11.67-1.63,23.58-2.3,35.68-1.11,31.01,3.05,49.68,6.66,64.75,9.59l8.29-77.04h-110.25s1.53,68.56,1.53,68.56Z"/><polygon class="cls-2" points="179.16 230.26 179.27 227.81 178.02 230.24 180.31 228.85 177.47 228.3 179.16 230.26"/><polygon class="cls-2" points="164.41 199.22 164.83 197.29 163.47 198.28 165.81 198.28 164.02 197.22 164.41 199.22"/><polygon class="cls-2" points="226.78 198.3 226.17 195.87 225.4 197.97 227.48 196.73 224.89 196.37 226.78 198.3"/><polygon class="cls-2" points="226.99 223.61 225.38 221.5 224.95 224.26 226.76 222.22 224.47 222.41 226.99 223.61"/><polygon class="cls-2" points="221.15 334.53 221.27 332.07 220.01 334.5 222.31 333.12 219.46 332.56 221.15 334.53"/><polygon class="cls-2" points="202.77 271.96 203.18 270.03 201.82 271.02 204.17 271.02 202.37 269.96 202.77 271.96"/><polygon class="cls-2" points="240.65 262.09 240.04 259.67 239.27 261.77 241.35 260.52 238.76 260.16 240.65 262.09"/><polygon class="cls-2" points="242.61 295.66 240.99 293.55 240.57 296.31 242.38 294.28 240.09 294.46 242.61 295.66"/><polygon class="cls-2" points="135.3 277.42 135.42 274.97 134.16 277.4 136.46 276.01 133.61 275.46 135.3 277.42"/><polygon class="cls-2" points="164.97 346.64 165.39 344.71 164.03 345.7 166.37 345.7 164.58 344.64 164.97 346.64"/><polygon class="cls-2" points="162.81 254.97 162.2 252.55 161.43 254.65 163.51 253.4 160.91 253.04 162.81 254.97"/><polygon class="cls-2" points="157.97 312.45 156.36 310.35 155.93 313.11 157.74 311.07 155.46 311.25 157.97 312.45"/><polygon class="cls-2" points="327.43 257.4 327.31 254.95 328.57 257.37 326.27 255.99 329.12 255.43 327.43 257.4"/><polygon class="cls-2" points="326.99 238.66 326.57 236.73 327.93 237.71 325.59 237.71 327.38 236.66 326.99 238.66"/><polygon class="cls-2" points="292.94 238.2 293.54 235.78 294.32 237.88 292.24 236.63 294.83 236.28 292.94 238.2"/><polygon class="cls-2" points="292.73 263.51 294.34 261.41 294.77 264.17 292.96 262.13 295.24 262.31 292.73 263.51"/><polygon class="cls-2" points="295.19 330.82 295.07 328.37 296.33 330.79 294.03 329.41 296.88 328.85 295.19 330.82"/><polygon class="cls-2" points="302.65 308.31 302.23 306.38 303.59 307.37 301.25 307.37 303.04 306.31 302.65 308.31"/><polygon class="cls-2" points="265.94 289.23 266.54 286.81 267.32 288.91 265.24 287.66 267.83 287.3 265.94 289.23"/><polygon class="cls-2" points="254.98 343.5 256.59 341.39 257.02 344.15 255.21 342.12 257.5 342.3 254.98 343.5"/><polygon class="cls-2" points="374.13 317.49 374.02 315.04 375.27 317.46 372.98 316.08 375.82 315.52 374.13 317.49"/><polygon class="cls-2" points="332.43 357.8 332.01 355.87 333.38 356.85 331.03 356.85 332.83 355.8 332.43 357.8"/><polygon class="cls-2" points="343.78 282.11 344.38 279.68 345.16 281.78 343.08 280.54 345.67 280.18 343.78 282.11"/><polygon class="cls-2" points="339.43 323.61 341.04 321.5 341.47 324.26 339.66 322.22 341.95 322.4 339.43 323.61"/><path class="cls-13" d="M295.48,214.33c-8.03-.19-10.97,5.52-20.3,5.32-5.83-.12-13.36-4.08-18.34-4.32-8.48-.41-16.56,2.95-16.2,5.6.53,3.94,10.93-.43,18.13,1.62,5.85,1.67,13.74,12.4,22.81,13.43,9.07,1.03,19.28-6.16,26.36-4.45s25.95-1.6,24.78-6.17c-1.46-5.76-11.5.52-21.68-3.38-5.99-2.29-7.04-7.45-15.56-7.65Z"/><path class="cls-5" d="M294.41,213.13c-8.03-.19-10.97,5.52-20.3,5.32-5.83-.12-13.36-4.08-18.34-4.32-8.48-.41-16.56,2.95-16.2,5.6.53,3.94,10.93-.43,18.13,1.62,5.85,1.67,13.74,12.4,22.81,13.43,9.07,1.03,19.28-6.16,26.36-4.45,7.08,1.72,25.95-1.6,24.78-6.17-1.46-5.76-11.5.52-21.68-3.38-5.99-2.29-7.04-7.45-15.56-7.65Z"/><path class="cls-13" d="M183.92,242.7c-4.88-.14-6.68,3.32-12.35,3.18-3.54-.09-8.11-2.51-11.13-2.67-5.15-.27-10.07,1.75-9.86,3.36.31,2.4,6.64-.23,11.01,1.03,3.55,1.03,8.32,7.57,13.83,8.22,5.51.65,11.73-3.7,16.03-2.63,4.3,1.06,15.77-.91,15.07-3.69-.88-3.5-6.99.29-13.17-2.11-3.63-1.41-4.26-4.54-9.43-4.69Z"/><path class="cls-5" d="M183.08,241.68c-4.88-.14-6.68,3.32-12.35,3.18-3.54-.09-8.11-2.51-11.13-2.67-5.15-.27-10.07,1.75-9.86,3.36.31,2.4,6.64-.23,11.01,1.03,3.55,1.03,8.32,7.57,13.83,8.22,5.51.65,11.73-3.7,16.03-2.63,4.3,1.06,15.77-.91,15.07-3.69-.88-3.5-6.99.29-13.17-2.11-3.63-1.41-4.26-4.54-9.43-4.69Z"/><path class="cls-14" d="M197.62,318.51c8.03.21,10.99-5.49,20.32-5.26,5.83.14,13.35,4.12,18.33,4.37,8.47.44,16.57-2.9,16.22-5.55-.52-3.95-10.93.4-18.12-1.67-5.84-1.68-13.71-12.44-22.77-13.49-9.07-1.05-19.3,6.11-26.37,4.37-7.08-1.74-25.95,1.53-24.8,6.1,1.45,5.76,11.5-.49,21.67,3.44,5.98,2.31,7.02,7.47,15.53,7.69Z"/><path class="cls-5" d="M196.58,317.27c8.03.21,10.99-5.49,20.32-5.26,5.83.14,13.35,4.12,18.33,4.37,8.47.44,16.57-2.9,16.22-5.55-.52-3.95-10.93.4-18.12-1.67-5.84-1.68-13.71-12.44-22.77-13.49-9.07-1.05-19.3,6.11-26.37,4.37-7.08-1.74-25.95,1.53-24.8,6.1,1.45,5.76,11.5-.49,21.67,3.44,5.98,2.31,7.02,7.47,15.53,7.69Z"/><path class="cls-14" d="M311.01,329.73c-6.47.19-8.59,4.9-16.1,5.14-4.69.15-10.92-2.71-14.93-2.7-6.83.03-13.19,3.07-12.79,5.19.6,3.15,8.77-.81,14.65.54,4.77,1.09,11.58,9.39,18.91,9.83,7.34.44,15.24-5.77,21.01-4.7,5.77,1.08,20.8-2.39,19.67-6.01-1.42-4.57-9.23.9-17.58-1.8-4.91-1.59-5.97-5.69-12.83-5.49Z"/><path class="cls-5" d="M309.84,328.62c-6.47.19-8.59,4.9-16.1,5.14-4.69.15-10.92-2.71-14.93-2.7-6.83.03-13.19,3.07-12.79,5.19.6,3.15,8.77-.81,14.65.54,4.77,1.09,11.58,9.39,18.91,9.83,7.34.44,15.24-5.77,21.01-4.7,5.77,1.08,20.8-2.39,19.67-6.01-1.42-4.57-9.23.9-17.58-1.8-4.91-1.59-5.97-5.69-12.83-5.49Z"/></g><g class="cls-30"><path class="cls-20" d="M294.4,200.56c-7.98,1.71-12.07,16.46-3.61,21.51,8.45,5.05,17.7-1.37,19.82-6.53,2.12-5.16-2.37-17.94-16.2-14.98Z"/><path class="cls-18" d="M305.55,215.97c4.04-6.95-3.17-14.2-9.7-12.22-6.52,1.98-8.52,8.63-6.23,12.68,2.26,4,11.66,6.87,15.93-.46Z"/></g><circle class="cls-27" cx="298.21" cy="212.59" r="6.37"/><g class="cls-25"><path class="cls-23" d="M289.47,214.32c.39-4.52,7.87-3.53,9.7-5.24,1.83-1.71,2.93-4.14,2.93-4.14l1.3.75s.46,3.61-2.19,5.7-7.61,1.05-9.38,6.51l-2.37-3.59Z"/><path class="cls-23" d="M295.76,219.76s2.05-3.5,3.68-4.72c1.58-1.18,5.1-3.09,5.99-5.33l.4.37c-1.62,3.99-3.1,2.91-5.84,6.78-1.58,2.23-2.32,3.81-2.32,3.81l-1.91-.91Z"/><path class="cls-23" d="M291.5,209.41c2.02-1.63,3.15-1.22,4.81-1.92,1.79-.76,2.34-2.4,2.34-2.4l-4.77.99-2.37,3.33Z"/><path class="cls-23" d="M304.86,214.57c-3.33,1.35-2.79,3.94-4.06,4.58l3.22-1.24.83-3.34Z"/></g><circle class="cls-6" cx="297.75" cy="213.15" r="5.36"/><circle class="cls-5" cx="297.87" cy="212.25" r="6.37"/><path class="cls-11" d="M271.01,232.3c-2.04-2.72-5.91-3.27-8.63-1.23-4.36,3.27-2.67,8.24-3.61,10.29l1.91-.65-.9,1.11c2.88,0,6.04,2.08,10-.89,2.72-2.04,3.27-5.91,1.23-8.63Z"/><circle class="cls-23" cx="268.26" cy="234.37" r="3.48"/><path class="cls-8" d="M270.42,232.18c-1.69-2.25-4.89-2.71-7.15-1.02-3.61,2.71-2.21,6.83-2.99,8.52l1.58-.54-.75.92c2.39,0,5.01,1.73,8.29-.74,2.25-1.69,2.71-4.89,1.02-7.15Z"/><path class="cls-21" d="M280.74,233.57c-.08-.32-.46-.45-.72-.24l-2.01,1.61c.03-.6-.02-1.17-.11-1.71,2.29-1.49,5.29-4.19,6.84-8.61h0s0,0,0,0c.23-.67.43-1.38.59-2.13,0-.03.01-.06.02-.08.03-.15.06-.3.09-.45,0-.05.02-.1.03-.15.02-.13.04-.26.06-.4,0-.06.02-.12.03-.18.02-.13.04-.27.05-.41,0-.06.01-.11.02-.17.02-.19.04-.39.06-.58,0-.05,0-.1,0-.15,0-.07-.03-.14-.06-.21-.02-.04-.04-.08-.07-.12-.04-.06-.09-.11-.14-.15-.11-.09-.25-.14-.4-.16-.2-.01-.39-.03-.59-.03-.06,0-.11,0-.17,0-.14,0-.27,0-.41-.01-.06,0-.12,0-.18,0-.14,0-.27,0-.4,0-.05,0-.1,0-.16,0-.15,0-.31,0-.46.02-.03,0-.06,0-.09,0-5.83.31-9.66,3.33-11.77,5.66-.52-.18-1.08-.31-1.67-.38l1.91-1.74c.24-.22.18-.62-.13-.75-1.31-.55-4.5-1.25-7.24,3.08-.13.21-.11.48.05.67l1.38,1.62c.21.24.57.27.81.05l.81-.74c.46.02,1.04.08,1.67.19.1.02.21.04.32.06,0,0,0,0,0,0,.11.02.21.05.32.07,0,0,0,0,0,0,.03,0,.06.01.08.02-.23.36-.34.57-.34.57l.59.7-1.37,1.94,4.14,4.85,2.13-1.05.59.7s.23-.08.62-.25c.02.21.03.42.04.62h0c.02.7-.01,1.32-.07,1.81l-.85.68c-.25.2-.28.57-.08.81l1.38,1.62c.16.19.43.25.65.15,4.71-2.03,4.51-5.29,4.18-6.67Z"/><polygon class="cls-21" points="270.07 227.82 268.44 230.14 272.58 234.99 275.12 233.74 270.07 227.82"/><path class="cls-33" d="M275.77,228.07s-2.75-3.79-7.14-3.73l-2.63,2.24s5.18-.39,8.05,2.96l1.72-1.47Z"/><path class="cls-21" d="M271.09,224.71c-.58.43-1.34,1.08-2.27,2.06.84.15,1.78.41,2.7.85l.63-2.5c-.33-.16-.68-.3-1.05-.42Z"/><path class="cls-29" d="M266.34,227.32l5.12-4.67c.24-.22.18-.62-.13-.75-1.31-.55-4.5-1.25-7.24,3.08-.13.21-.11.48.05.67l1.38,1.62c.21.24.57.27.81.05Z"/><path class="cls-33" d="M275.77,228.07s3.32,3.31,2.57,7.64l-2.63,2.24s1.2-5.06-1.67-8.41l1.72-1.47Z"/><path class="cls-21" d="M275.96,235.01c1.04-.57,1.83-1.2,2.4-1.76-.04-.26-.09-.51-.15-.76l-2.38,1.12c.08.48.11.95.13,1.39Z"/><path class="cls-29" d="M275.04,237.5l5.42-4.33c.26-.21.64-.08.72.24.34,1.38.54,4.64-4.18,6.67-.23.1-.49.04-.65-.15l-1.38-1.62c-.21-.24-.17-.61.08-.81Z"/><path class="cls-19" d="M285.45,219.12c-11.38-.85-16.24,8.39-16.24,8.39l6.09,7.13s9.88-3.36,10.82-14.73c.03-.4-.27-.76-.67-.79Z"/><path class="cls-21" d="M285.17,224.46c.47-1.35.81-2.86.95-4.55.03-.4-.27-.76-.67-.79-1.69-.13-3.23-.03-4.64.23l4.37,5.11Z"/><path class="cls-7" d="M280.89,221.5c-7.9-.43-11.4,6.01-11.4,6.01l4.14,4.85s6.91-2.45,7.72-10.32c.03-.28-.18-.52-.46-.53Z"/><circle class="cls-32" cx="278.66" cy="225.52" r="3.31"/><ellipse class="cls-21" cx="278.63" cy="225.46" rx="2.32" ry="2.35" transform="translate(-79.67 235.02) rotate(-40.51)"/><circle class="cls-17" cx="278.66" cy="225.52" r="2.19"/><g class="cls-1"><path class="cls-31" d="M276.05,224.06s.82-.85,2.44.19,2.93.21,2.93.21l.16.88s-1.11,1.36-2.68.73-2.25-.14-2.78.57l-.07-2.58Z"/></g><circle class="cls-9" cx="278.64" cy="225.44" r="1.89"/></g></g></g></svg>