<?xml version="1.0" encoding="UTF-8"?><svg xmlns="http://www.w3.org/2000/svg" xmlns:xlink="http://www.w3.org/1999/xlink" viewBox="0 0 580 440.8"><defs><style>.cls-1{fill:#1d1061;}.cls-2,.cls-3{fill:none;}.cls-4{isolation:isolate;}.cls-5{fill:url(#_40_10_ppp);mix-blend-mode:multiply;opacity:.05;}.cls-3{stroke:#1d1061;stroke-linecap:round;stroke-linejoin:round;}.cls-6{fill:#a5a5a5;}.cls-7{fill:#fdfdfd;}.cls-8{fill:#6a90c6;}</style><pattern id="_40_10_ppp" x="0" y="0" width="10" height="10" patternTransform="translate(-460 755.4)" patternUnits="userSpaceOnUse" viewBox="0 0 10 10"><rect class="cls-2" width="10" height="10"/><circle class="cls-1" cx="8.95" cy="8.95" r="1.05"/><circle class="cls-1" cx="3.68" cy="8.95" r="1.05"/><path class="cls-1" d="M8.95,4.74c.58,0,1.05-.47,1.05-1.05s-.47-1.05-1.05-1.05-1.05.47-1.05,1.05.47,1.05,1.05,1.05Z"/><path class="cls-1" d="M3.68,4.74c.58,0,1.05-.47,1.05-1.05s-.47-1.05-1.05-1.05-1.05.47-1.05,1.05.47,1.05,1.05,1.05Z"/><path class="cls-1" d="M1.05,7.37c.58,0,1.05-.47,1.05-1.05s-.47-1.05-1.05-1.05S0,5.73,0,6.32s.47,1.05,1.05,1.05Z"/><circle class="cls-1" cx="6.32" cy="6.32" r="1.05"/><path class="cls-1" d="M1.05,2.11c.58,0,1.05-.47,1.05-1.05S1.63,0,1.05,0,0,.47,0,1.05s.47,1.05,1.05,1.05Z"/><circle class="cls-1" cx="6.32" cy="1.05" r="1.05"/></pattern></defs><g class="cls-4"><g id="ZONE_1_A"><rect class="cls-1" x="77.4" y="218.29" width="66.97" height="57.73"/><rect class="cls-6" x="79.04" y="216.65" width="66.97" height="57.73"/><polygon class="cls-1" points="79.04 274.38 106.01 274.38 82.01 216.65 79.04 216.65 79.04 274.38"/><rect class="cls-5" x="77.4" y="218.29" width="41.95" height="57.73"/><rect class="cls-7" x="120.99" y="216.65" width="25.02" height="57.73"/><rect class="cls-3" x="125.03" y="222.81" width="18.67" height="5.97"/><rect class="cls-3" x="125.03" y="233.39" width="18.67" height="5.97"/><rect class="cls-5" x="126.09" y="223.8" width="18.67" height="5.97"/><rect class="cls-5" x="126.09" y="234.38" width="18.67" height="5.97"/><polygon class="cls-1" points="114.74 264.19 114.74 200.42 41.8 200.42 37.46 200.42 37.46 264.19 41.8 264.19 69.9 264.19 69.9 272.94 69.9 276.02 91.26 276.02 100.11 276.02 100.11 272.94 91.26 272.94 91.26 264.19 114.74 264.19"/><rect class="cls-7" x="39.1" y="198.79" width="77.28" height="63.76"/><rect class="cls-6" x="39.1" y="198.79" width="4.34" height="63.76"/><rect class="cls-5" x="37.66" y="199.75" width="4.34" height="63.76"/><rect class="cls-8" x="48.63" y="203.18" width="62.93" height="55.81"/><line class="cls-3" x1="43.44" y1="260.14" x2="43.44" y2="200.68"/><rect class="cls-6" x="71.54" y="262.55" width="21.36" height="11.83"/><polygon class="cls-1" points="92.9 264.57 71.54 266.2 71.54 262.55 92.9 262.55 92.9 264.57"/><rect class="cls-7" x="71.54" y="271.3" width="30.21" height="3.08"/></g></g></svg>