<?xml version="1.0" encoding="UTF-8"?><svg xmlns="http://www.w3.org/2000/svg" xmlns:xlink="http://www.w3.org/1999/xlink" viewBox="0 0 580 440.8"><defs><style>.cls-1{fill:#ffcb57;}.cls-2{fill:#fff;}.cls-3{fill:#1d1061;}.cls-4,.cls-5{fill:none;}.cls-6{fill:#5cc6a0;}.cls-7{fill:#65447a;}.cls-8{isolation:isolate;}.cls-9{fill:url(#_40_10_ppp);opacity:.05;}.cls-9,.cls-10,.cls-11{mix-blend-mode:multiply;}.cls-10{opacity:.5;}.cls-10,.cls-12{fill:#6a90c6;}.cls-13{fill:#f2f0ec;}.cls-5{stroke:#f2f0ec;stroke-miterlimit:10;stroke-width:.79px;}.cls-14{fill:url(#Nouvelle_nuance_de_dégradé_1);}.cls-11{fill:url(#_40_10_ppp_3);}.cls-11,.cls-15{opacity:.25;}.cls-15{fill:#fdfdfd;mix-blend-mode:overlay;}.cls-16{clip-path:url(#clippath);}</style><clipPath id="clippath"><rect class="cls-4" x="455.64" y="48.02" width="89.28" height="106.65"/></clipPath><pattern id="_40_10_ppp" x="0" y="0" width="10" height="10" patternTransform="translate(1100 2715.36)" patternUnits="userSpaceOnUse" viewBox="0 0 10 10"><rect class="cls-4" width="10" height="10"/><circle class="cls-3" cx="8.95" cy="8.95" r="1.05"/><circle class="cls-3" cx="3.68" cy="8.95" r="1.05"/><path class="cls-3" d="M8.95,4.74c.58,0,1.05-.47,1.05-1.05s-.47-1.05-1.05-1.05-1.05.47-1.05,1.05.47,1.05,1.05,1.05Z"/><path class="cls-3" d="M3.68,4.74c.58,0,1.05-.47,1.05-1.05s-.47-1.05-1.05-1.05-1.05.47-1.05,1.05.47,1.05,1.05,1.05Z"/><path class="cls-3" d="M1.05,7.37c.58,0,1.05-.47,1.05-1.05s-.47-1.05-1.05-1.05S0,5.73,0,6.32s.47,1.05,1.05,1.05Z"/><circle class="cls-3" cx="6.32" cy="6.32" r="1.05"/><path class="cls-3" d="M1.05,2.11c.58,0,1.05-.47,1.05-1.05S1.63,0,1.05,0,0,.47,0,1.05s.47,1.05,1.05,1.05Z"/><circle class="cls-3" cx="6.32" cy="1.05" r="1.05"/></pattern><linearGradient id="Nouvelle_nuance_de_dégradé_1" x1="500.44" y1="104.11" x2="500.44" y2="24.46" gradientUnits="userSpaceOnUse"><stop offset="0" stop-color="#6a90c6" stop-opacity="0"/><stop offset="1" stop-color="#6a90c6"/></linearGradient><pattern id="_40_10_ppp_3" x="0" y="0" width="10" height="10" patternTransform="translate(1120 2715.36)" patternUnits="userSpaceOnUse" viewBox="0 0 10 10"><rect class="cls-4" width="10" height="10"/><circle class="cls-1" cx="8.95" cy="8.95" r="1.05"/><circle class="cls-1" cx="3.68" cy="8.95" r="1.05"/><path class="cls-1" d="M8.95,4.74c.58,0,1.05-.47,1.05-1.05s-.47-1.05-1.05-1.05-1.05.47-1.05,1.05.47,1.05,1.05,1.05Z"/><path class="cls-1" d="M3.68,4.74c.58,0,1.05-.47,1.05-1.05s-.47-1.05-1.05-1.05-1.05.47-1.05,1.05.47,1.05,1.05,1.05Z"/><path class="cls-1" d="M1.05,7.37c.58,0,1.05-.47,1.05-1.05s-.47-1.05-1.05-1.05S0,5.73,0,6.32s.47,1.05,1.05,1.05Z"/><circle class="cls-1" cx="6.32" cy="6.32" r="1.05"/><path class="cls-1" d="M1.05,2.11c.58,0,1.05-.47,1.05-1.05S1.63,0,1.05,0,0,.47,0,1.05s.47,1.05,1.05,1.05Z"/><circle class="cls-1" cx="6.32" cy="1.05" r="1.05"/></pattern></defs><g class="cls-8"><g id="ZONE_4_B"><polygon class="cls-3" points="547.56 162.93 449.15 162.93 449.15 43.36 531.56 43.36 547.56 57.56 547.56 162.93"/><polygon class="cls-3" points="550.61 41.57 534.64 41.82 549.58 56.86 550.61 41.57"/><polygon class="cls-13" points="549.4 40.48 534.88 41.57 451.17 41.57 451.17 161.14 549.58 161.14 549.58 54.61 549.4 40.48"/><circle class="cls-3" cx="454.91" cy="45.86" r=".73"/><circle class="cls-3" cx="545.65" cy="45.12" r=".73"/><circle class="cls-3" cx="454.91" cy="158.25" r=".73"/><circle class="cls-3" cx="545.46" cy="158.25" r=".73"/><g class="cls-16"><rect class="cls-12" x="447.06" y="27.8" width="106.75" height="96.58"/><rect class="cls-9" x="447.06" y="27.8" width="106.75" height="96.58"/><rect class="cls-14" x="447.06" y="27.8" width="106.75" height="96.58"/><path class="cls-10" d="M481.52,89.49c-1.19-2.41-1.85-5.12-1.85-7.98,0-10,8.1-18.1,18.1-18.1,7.08,0,13.22,4.07,16.19,10,1.04-.58,2.07-.78,3.02-.49,3.09.95,4.08,6.69,2.2,12.82-.08.24-.15.49-.24.72,2.83.38,5.44,1.45,7.66,3.02h-45.07ZM520.16,63.41c-1.23,0-2.24,1-2.24,2.24s1,2.24,2.24,2.24,2.24-1,2.24-2.24-1-2.24-2.24-2.24ZM516.3,91.96c-.65,0-1.18.53-1.18,1.18s.53,1.18,1.18,1.18,1.18-.53,1.18-1.18-.53-1.18-1.18-1.18Z"/><path class="cls-2" d="M481.52,88.24c-1.19-2.41-1.85-5.12-1.85-7.98,0-10,8.1-18.1,18.1-18.1,7.08,0,13.22,4.07,16.19,10,1.04-.58,2.07-.78,3.02-.49,3.09.95,4.08,6.69,2.2,12.82-.08.24-.15.49-.24.72,2.83.38,5.44,1.45,7.66,3.02h-45.07ZM520.16,62.16c-1.23,0-2.24,1-2.24,2.24s1,2.24,2.24,2.24,2.24-1,2.24-2.24-1-2.24-2.24-2.24ZM516.3,90.71c-.65,0-1.18.53-1.18,1.18s.53,1.18,1.18,1.18,1.18-.53,1.18-1.18-.53-1.18-1.18-1.18Z"/><path class="cls-13" d="M461.73,20.49s20.92,76.43,60.08,76.43c33.48,0,39.16-23.82,39.16-23.82v45.44h-112.69V20.49h13.45Z"/><path class="cls-11" d="M457.84,21.38s20.92,76.43,60.08,76.43c33.48,0,39.16-23.82,39.16-23.82v45.44h-112.69V21.38h13.45Z"/><path class="cls-7" d="M448.87,69.51s25.41,37.07,68.15,37.07c29.59,0,40.35-14.65,40.35-14.65v41.25h-108.51v-63.67Z"/><polyline class="cls-15" points="530.39 133.45 530.39 111.46 500.22 111.46 500.22 133.45"/><polyline class="cls-9" points="530.39 133.45 530.39 111.46 500.22 111.46 500.22 133.45"/><polyline class="cls-5" points="528.7 131.76 528.7 109.76 498.53 109.76 498.53 131.76"/><path class="cls-6" d="M452.16,131.68s43.83-4.4,96.55,0v37.66h-96.55v-37.66Z"/><path class="cls-9" d="M454.85,133.18s43.83-4.4,96.55,0v37.66h-96.55v-37.66Z"/><ellipse class="cls-12" cx="489.5" cy="136.04" rx="9.03" ry="1.34"/><circle class="cls-13" cx="489.53" cy="125.3" r="10.74"/><path class="cls-3" d="M509.93,138.26s-5.46,3.85-15.09,2.79c0,0,.11-54.84-8.78-83.21,0,0-6.35,1.12-12.7.77,0,0-.85,57.15-8.89,79.64,0,0,4.02.59,8.05,0,0,0-4.91,4.01-13.13,2.98,0,0,8.26-48.24,7.2-83.39,0,0-2.12-6.14-1.69-13.13h24.56s2.33,7.2,3.81,13.34c1.48,6.14,9.95,35.49,8.47,80.2,0,0,5.6.59,8.2,0Z"/><path class="cls-3" d="M463.84,44.72s.54,8.89,1.69,13.76c0,0-.64,11.43-.85,12.91,0,0,8.61.88,11.54.19v-11.36s5.59.05,8.44-.91c0,0,1.31,9.43,1.53,11.54,8.16.4,11.95-1.6,11.95-1.6,0,0-4.09-18.86-6.77-25.62l-27.52,1.06Z"/><path class="cls-3" d="M506.34,129.76h1.34s-.73-3.02-.67-3.64,1.76-1.34,4.01-1.31c2.25.04,3.66.87,3.81,1.38s-.22,3.7-.22,3.7l1.27.03s.54-3.48,0-4.06-1.92-1.81-4.9-1.78-4.46.87-5.12,1.81.47,3.86.47,3.86Z"/><path class="cls-3" d="M509.64,124.38s.4-2.12.04-3.61h2.43s1.05,1.51.4,3.61h-2.87Z"/><path class="cls-3" d="M511.46,118.4c-.95-.14-1.74,0-1.74,0,0,0-1.13,1.89-.8,2.03s2.14.11,2.54,0,.34-1.98,0-2.03Z"/><path class="cls-3" d="M510.53,120.45s.18.35.4.46h.4s-.38-.42-.43-.52l-.37.06Z"/><circle class="cls-3" cx="511.73" cy="119.92" r=".32"/><path class="cls-3" d="M512.11,120.76c.44.05,2.62.25,2.92,0s-.52-2.66-.52-2.66l.9-.17s1.29,3.33-.28,3.42c-1.57.09-3.01-.22-3.01-.22v-.37Z"/><path class="cls-3" d="M509.68,120.76c-.65.06-3.19.12-3.24-.52s1-2.66,1-2.66l-1-.35s-1.59,3.08-.35,3.67,3.78.23,3.78.23l-.19-.38Z"/></g></g></g></svg>