<?xml version="1.0" encoding="UTF-8"?><svg xmlns="http://www.w3.org/2000/svg" xmlns:xlink="http://www.w3.org/1999/xlink" viewBox="0 0 580 440.8"><defs><style>.cls-1{fill:#ffcb57;}.cls-2{fill:#1d1061;}.cls-3,.cls-4,.cls-5{fill:none;}.cls-6{fill:#5cc6a0;}.cls-7{isolation:isolate;}.cls-8{fill:#f2f0ec;}.cls-4{stroke:#ffcb57;}.cls-4,.cls-5{stroke-linecap:round;stroke-linejoin:round;stroke-width:2px;}.cls-5{stroke:#1d1061;}.cls-9{fill:url(#_40_10_ppp);mix-blend-mode:multiply;opacity:.25;}.cls-10{clip-path:url(#clippath);}.cls-11{fill:#fdfdfd;}</style><pattern id="_40_10_ppp" x="0" y="0" width="10" height="10" patternTransform="translate(90 2665.36)" patternUnits="userSpaceOnUse" viewBox="0 0 10 10"><rect class="cls-3" width="10" height="10"/><circle class="cls-2" cx="8.95" cy="8.95" r="1.05"/><circle class="cls-2" cx="3.68" cy="8.95" r="1.05"/><path class="cls-2" d="M8.95,4.74c.58,0,1.05-.47,1.05-1.05s-.47-1.05-1.05-1.05-1.05.47-1.05,1.05.47,1.05,1.05,1.05Z"/><path class="cls-2" d="M3.68,4.74c.58,0,1.05-.47,1.05-1.05s-.47-1.05-1.05-1.05-1.05.47-1.05,1.05.47,1.05,1.05,1.05Z"/><path class="cls-2" d="M1.05,7.37c.58,0,1.05-.47,1.05-1.05s-.47-1.05-1.05-1.05S0,5.73,0,6.32s.47,1.05,1.05,1.05Z"/><circle class="cls-2" cx="6.32" cy="6.32" r="1.05"/><path class="cls-2" d="M1.05,2.11c.58,0,1.05-.47,1.05-1.05S1.63,0,1.05,0,0,.47,0,1.05s.47,1.05,1.05,1.05Z"/><circle class="cls-2" cx="6.32" cy="1.05" r="1.05"/></pattern><clipPath id="clippath"><path class="cls-3" d="M502.82,101.66c3.31,2.02,9.4,6.28,14.63,13.02,2.04,2.63-.11,6.3-3.63,6.3h-26.87c-3.53,0-5.68-3.66-3.63-6.3,5.22-6.74,11.32-11.01,14.63-13.02,1.49-.91,3.39-.91,4.88,0Z"/></clipPath></defs><g class="cls-7"><g id="ZONE_4_B"><polygon class="cls-2" points="547.56 162.93 449.15 162.93 449.15 43.36 531.56 43.36 547.56 57.56 547.56 162.93"/><polygon class="cls-2" points="550.61 41.57 534.64 41.82 549.58 56.86 550.61 41.57"/><polygon class="cls-8" points="549.4 40.48 534.88 41.57 451.17 41.57 451.17 161.14 549.58 161.14 549.58 54.61 549.4 40.48"/><circle class="cls-2" cx="454.91" cy="45.86" r=".73"/><circle class="cls-2" cx="545.65" cy="45.12" r=".73"/><circle class="cls-2" cx="454.91" cy="158.25" r=".73"/><circle class="cls-2" cx="545.46" cy="158.25" r=".73"/><rect class="cls-2" x="455.64" y="48.02" width="89.28" height="106.65"/><polyline class="cls-1" points="480.53 89.66 480.53 74.78 476.62 78.3 474.54 76.28 480.73 70.55 491.51 70.55 491.51 89.66 494.85 89.66 494.85 91.59 477.2 91.59 477.2 89.66 480.53 89.66"/><polyline class="cls-4" points="512.65 77.65 512.65 90.77 501.67 90.77 501.67 77.65"/><rect class="cls-4" x="517.32" y="77.65" width="8.71" height="6.56"/><line class="cls-4" x1="517.32" y1="84.21" x2="517.32" y2="90.77"/><path class="cls-8" d="M488.9,113.73h22.97v15.06c0,1.85-1.5,3.35-3.35,3.35h-16.27c-1.85,0-3.35-1.5-3.35-3.35v-15.06h0Z"/><polygon class="cls-2" points="488.9 122.81 488.9 113.73 511.87 113.73 511.87 121.79 488.9 122.81"/><line class="cls-5" x1="496.22" y1="119.41" x2="496.22" y2="125.08"/><line class="cls-5" x1="504.55" y1="119.41" x2="504.55" y2="125.08"/><path class="cls-6" d="M502.82,101.66c3.31,2.02,9.4,6.28,14.63,13.02,2.04,2.63-.11,6.3-3.63,6.3h-26.87c-3.53,0-5.68-3.66-3.63-6.3,5.22-6.74,11.32-11.01,14.63-13.02,1.49-.91,3.39-.91,4.88,0Z"/><path class="cls-9" d="M503.51,103c3.31,2.02,9.4,6.28,14.63,13.02,2.04,2.63-.11,6.3-3.63,6.3h-26.87c-3.53,0-5.68-3.66-3.63-6.3,5.22-6.74,11.32-11.01,14.63-13.02,1.49-.91,3.39-.91,4.88,0Z"/><g class="cls-10"><circle class="cls-11" cx="492.77" cy="120.97" r="7.25"/><circle class="cls-11" cx="508.56" cy="107.97" r="7.15"/><circle class="cls-11" cx="492.77" cy="105.9" r="3.69"/></g></g></g></svg>