<?xml version="1.0" encoding="UTF-8"?><svg xmlns="http://www.w3.org/2000/svg" xmlns:xlink="http://www.w3.org/1999/xlink" viewBox="0 0 580 440.8"><defs><style>.cls-1{opacity:.6;}.cls-2{stroke:#cd4d35;stroke-width:.5px;}.cls-2,.cls-3,.cls-4,.cls-5,.cls-6,.cls-7,.cls-8,.cls-9,.cls-10{fill:none;}.cls-2,.cls-3,.cls-5,.cls-6,.cls-7,.cls-8,.cls-9,.cls-10{stroke-linecap:round;stroke-linejoin:round;}.cls-11{fill:#dedede;opacity:.2;}.cls-11,.cls-12,.cls-13{mix-blend-mode:multiply;}.cls-3{stroke:#ff7461;}.cls-3,.cls-5,.cls-6,.cls-7,.cls-8,.cls-10{stroke-width:2px;}.cls-14{fill:#fff;}.cls-15{fill:#1d1061;}.cls-5{stroke:#65447a;}.cls-6{stroke:#6a90c6;}.cls-16{clip-path:url(#clippath-1);}.cls-7{stroke:#5cc6a0;}.cls-17{isolation:isolate;}.cls-12{fill:url(#_40_10_ppp);opacity:.05;}.cls-8{stroke:#f2f0ec;}.cls-13,.cls-18{opacity:.5;}.cls-13,.cls-19{fill:#6a90c6;}.cls-9{stroke:#1d1061;}.cls-20{fill:#cd4d35;}.cls-21{fill:#f2f0ec;}.cls-22,.cls-18{fill:#ff7461;}.cls-10{stroke:#ffcb57;}.cls-23{fill:url(#Nouvelle_nuance_de_dégradé_1);}.cls-24{clip-path:url(#clippath);}.cls-25{fill:#fdfdfd;}</style><clipPath id="clippath"><rect class="cls-4" x="455.64" y="48.02" width="89.28" height="106.65"/></clipPath><pattern id="_40_10_ppp" x="0" y="0" width="10" height="10" patternTransform="translate(480 2715.36)" patternUnits="userSpaceOnUse" viewBox="0 0 10 10"><rect class="cls-4" width="10" height="10"/><circle class="cls-15" cx="8.95" cy="8.95" r="1.05"/><circle class="cls-15" cx="3.68" cy="8.95" r="1.05"/><path class="cls-15" d="M8.95,4.74c.58,0,1.05-.47,1.05-1.05s-.47-1.05-1.05-1.05-1.05.47-1.05,1.05.47,1.05,1.05,1.05Z"/><path class="cls-15" d="M3.68,4.74c.58,0,1.05-.47,1.05-1.05s-.47-1.05-1.05-1.05-1.05.47-1.05,1.05.47,1.05,1.05,1.05Z"/><path class="cls-15" d="M1.05,7.37c.58,0,1.05-.47,1.05-1.05s-.47-1.05-1.05-1.05S0,5.73,0,6.32s.47,1.05,1.05,1.05Z"/><circle class="cls-15" cx="6.32" cy="6.32" r="1.05"/><path class="cls-15" d="M1.05,2.11c.58,0,1.05-.47,1.05-1.05S1.63,0,1.05,0,0,.47,0,1.05s.47,1.05,1.05,1.05Z"/><circle class="cls-15" cx="6.32" cy="1.05" r="1.05"/></pattern><linearGradient id="Nouvelle_nuance_de_dégradé_1" x1="500.62" y1="133.3" x2="500.62" y2="32.45" gradientUnits="userSpaceOnUse"><stop offset="0" stop-color="#6a90c6" stop-opacity="0"/><stop offset="1" stop-color="#6a90c6"/></linearGradient><clipPath id="clippath-1"><path class="cls-4" d="M502.35,79.06c.51-6.51-17.81-11.24-23.35-5.4-5.19,5.46,6.71,9.2,6.71,9.2,0,0-19.23,18.64-3.08,31.68,10.82,8.74,31.89,11.02,41.76-6.13,8.32-14.45-6.86-22.19-16.96-13.43-3.01,2.61-7.11-3.21-13.84-1.61,0,0,8.17-6.86,8.76-14.3Z"/></clipPath></defs><g class="cls-17"><g id="ZONE_4_B"><polygon class="cls-15" points="547.56 162.93 449.15 162.93 449.15 43.36 531.56 43.36 547.56 57.56 547.56 162.93"/><polygon class="cls-15" points="550.61 41.57 534.64 41.82 549.58 56.86 550.61 41.57"/><polygon class="cls-21" points="549.4 40.48 534.88 41.57 451.17 41.57 451.17 161.14 549.58 161.14 549.58 54.61 549.4 40.48"/><circle class="cls-15" cx="454.91" cy="45.86" r=".73"/><circle class="cls-15" cx="545.65" cy="45.12" r=".73"/><circle class="cls-15" cx="454.91" cy="158.25" r=".73"/><circle class="cls-15" cx="545.46" cy="158.25" r=".73"/><g class="cls-24"><rect class="cls-19" x="433.04" y="36.67" width="135.16" height="122.29"/><rect class="cls-12" x="433.04" y="36.67" width="135.16" height="122.29"/><rect class="cls-23" x="433.04" y="36.67" width="135.16" height="122.29"/><g class="cls-1"><path class="cls-13" d="M486.84,158.21c-2.1-4.27-3.29-9.07-3.29-14.15,0-17.72,14.36-32.08,32.08-32.08,12.56,0,23.42,7.22,28.69,17.73,1.83-1.03,3.67-1.38,5.35-.86,5.49,1.68,7.23,11.86,3.9,22.72-.13.43-.27.86-.42,1.28,5.01.68,9.63,2.57,13.58,5.36h-79.89ZM555.33,111.99c-2.19,0-3.96,1.77-3.96,3.96s1.77,3.96,3.96,3.96,3.96-1.77,3.96-3.96-1.77-3.96-3.96-3.96ZM548.5,162.58c-1.15,0-2.09.93-2.09,2.09s.93,2.09,2.09,2.09,2.09-.93,2.09-2.09-.93-2.09-2.09-2.09Z"/><path class="cls-14" d="M486.84,156c-2.1-4.27-3.29-9.07-3.29-14.15,0-17.72,14.36-32.08,32.08-32.08,12.56,0,23.42,7.22,28.69,17.73,1.83-1.03,3.67-1.38,5.35-.86,5.49,1.68,7.23,11.86,3.9,22.72-.13.43-.27.86-.42,1.28,5.01.68,9.63,2.57,13.58,5.36h-79.89ZM555.33,109.77c-2.19,0-3.96,1.77-3.96,3.96s1.77,3.96,3.96,3.96,3.96-1.77,3.96-3.96-1.77-3.96-3.96-3.96ZM548.5,160.37c-1.15,0-2.09.93-2.09,2.09s.93,2.09,2.09,2.09,2.09-.93,2.09-2.09-.93-2.09-2.09-2.09Z"/></g><path class="cls-25" d="M516.91,156.63c0-10.44-10.51-18.9-23.48-18.9-.2,0-.39,0-.59.01-.7-7.14-5.72-12.68-11.81-12.68s-11.03,5.45-11.79,12.51c-3.87-5.55-9.53-9.05-15.84-9.05-8.97,0-16.63,7.07-19.68,17.04-.74-.22-1.5-.35-2.29-.35-5.88,0-10.65,6.62-10.65,14.78h95.77c.24-1.09.38-2.21.38-3.36Z"/><path class="cls-11" d="M512.22,157.66c0-9.36-9.76-16.94-21.81-16.94-.18,0-.37,0-.55.01-.65-6.4-5.31-11.36-10.97-11.36s-10.24,4.88-10.95,11.21c-3.59-4.97-8.85-8.11-14.71-8.11-8.33,0-15.44,6.34-18.28,15.27-.68-.2-1.4-.31-2.13-.31-5.46,0-9.89,5.93-9.89,13.24h88.94c.23-.98.35-1.98.35-3.01Z"/><path class="cls-12" d="M512.22,157.66c0-9.36-9.76-16.94-21.81-16.94-.18,0-.37,0-.55.01-.65-6.4-5.31-11.36-10.97-11.36s-10.24,4.88-10.95,11.21c-3.59-4.97-8.85-8.11-14.71-8.11-8.33,0-15.44,6.34-18.28,15.27-.68-.2-1.4-.31-2.13-.31-5.46,0-9.89,5.93-9.89,13.24h88.94c.23-.98.35-1.98.35-3.01Z"/><path class="cls-25" d="M585.38,69.12c0-8.22-8.28-14.88-18.49-14.88-.16,0-.31,0-.47,0-.55-5.62-4.5-9.98-9.3-9.98s-8.68,4.29-9.28,9.85c-3.04-4.37-7.5-7.13-12.47-7.13-7.06,0-13.09,5.57-15.49,13.41-.58-.18-1.18-.27-1.8-.27-4.63,0-8.38,5.21-8.38,11.63h75.38c.19-.86.3-1.74.3-2.64Z"/><path class="cls-11" d="M578.4,70.69c0-7.36-7.42-13.33-16.57-13.33-.14,0-.28,0-.42,0-.49-5.04-4.04-8.94-8.33-8.94s-7.78,3.84-8.32,8.82c-2.73-3.91-6.72-6.39-11.17-6.39-6.33,0-11.73,4.99-13.89,12.02-.52-.16-1.06-.24-1.61-.24-4.15,0-7.51,4.67-7.51,10.42h67.56c.17-.77.27-1.56.27-2.37Z"/><path class="cls-12" d="M578.4,70.69c0-7.36-7.42-13.33-16.57-13.33-.14,0-.28,0-.42,0-.49-5.04-4.04-8.94-8.33-8.94s-7.78,3.84-8.32,8.82c-2.73-3.91-6.72-6.39-11.17-6.39-6.33,0-11.73,4.99-13.89,12.02-.52-.16-1.06-.24-1.61-.24-4.15,0-7.51,4.67-7.51,10.42h67.56c.17-.77.27-1.56.27-2.37Z"/><path class="cls-13" d="M563.9,153.58c.04-.58.07-1.73.07-2.32,0-9.29-5.52-16.83-12.33-16.83-2.09,0-4.06.71-5.79,1.97-2.42-4.79-5.98-7.82-9.94-7.82-5.02,0-9.39,4.85-11.63,11.99-1.8-3.68-4.34-5.98-7.15-5.98-5.03,0-9.19,7.36-9.81,16.87-1.67-.82-3.55-1.28-5.54-1.28-3.03,0-5.81,1.62-7.98,3.39h70.11Z"/><path class="cls-25" d="M565.07,151.92c.04-.58.07-1.17.07-1.77,0-9.29-5.52-16.83-12.33-16.83-2.09,0-4.06.71-5.79,1.97-2.42-4.79-5.98-7.82-9.94-7.82-5.02,0-9.39,4.85-11.63,11.99-1.8-3.68-4.34-5.98-7.15-5.98-5.03,0-9.19,7.36-9.81,16.87-1.67-.82-3.55-1.28-5.54-1.28-3.03,0-5.81,1.06-7.98,2.84h70.11Z"/><path class="cls-13" d="M415.07,92.89c-2.1-4.27-3.29-9.07-3.29-14.15,0-17.72,14.36-32.08,32.08-32.08,12.56,0,23.42,7.22,28.69,17.73,1.83-1.03,3.67-1.38,5.35-.86,5.49,1.68,7.23,11.86,3.9,22.72-.13.43-.27.86-.42,1.28,5.01.68,9.63,2.57,13.58,5.36h-79.89ZM483.55,46.67c-2.19,0-3.96,1.77-3.96,3.96s1.77,3.96,3.96,3.96,3.96-1.77,3.96-3.96-1.77-3.96-3.96-3.96ZM476.72,97.26c-1.15,0-2.09.93-2.09,2.09s.93,2.09,2.09,2.09,2.09-.93,2.09-2.09-.93-2.09-2.09-2.09Z"/><path class="cls-14" d="M415.07,90.68c-2.1-4.27-3.29-9.07-3.29-14.15,0-17.72,14.36-32.08,32.08-32.08,12.56,0,23.42,7.22,28.69,17.73,1.83-1.03,3.67-1.38,5.35-.86,5.49,1.68,7.23,11.86,3.9,22.72-.13.43-.27.86-.42,1.28,5.01.68,9.63,2.57,13.58,5.36h-79.89ZM483.55,44.45c-2.19,0-3.96,1.77-3.96,3.96s1.77,3.96,3.96,3.96,3.96-1.77,3.96-3.96-1.77-3.96-3.96-3.96ZM476.72,95.05c-1.15,0-2.09.93-2.09,2.09s.93,2.09,2.09,2.09,2.09-.93,2.09-2.09-.93-2.09-2.09-2.09Z"/><path class="cls-13" d="M537.85,82.05c-1.81-3.68-2.84-7.83-2.84-12.21,0-15.29,12.39-27.68,27.68-27.68,10.84,0,20.21,6.23,24.76,15.3,1.58-.89,3.17-1.19,4.62-.74,4.73,1.45,6.24,10.23,3.36,19.6-.11.37-.24.74-.36,1.11,4.32.59,8.31,2.22,11.72,4.62h-68.94ZM596.95,42.16c-1.89,0-3.42,1.53-3.42,3.42s1.53,3.42,3.42,3.42,3.42-1.53,3.42-3.42-1.53-3.42-3.42-3.42ZM591.05,85.82c-.99,0-1.8.81-1.8,1.8s.81,1.8,1.8,1.8,1.8-.81,1.8-1.8-.81-1.8-1.8-1.8Z"/><path class="cls-14" d="M537.85,80.14c-1.81-3.68-2.84-7.83-2.84-12.21,0-15.29,12.39-27.68,27.68-27.68,10.84,0,20.21,6.23,24.76,15.3,1.58-.89,3.17-1.19,4.62-.74,4.73,1.45,6.24,10.23,3.36,19.6-.11.37-.24.74-.36,1.11,4.32.59,8.31,2.22,11.72,4.62h-68.94ZM596.95,40.25c-1.89,0-3.42,1.53-3.42,3.42s1.53,3.42,3.42,3.42,3.42-1.53,3.42-3.42-1.53-3.42-3.42-3.42ZM591.05,83.91c-.99,0-1.8.81-1.8,1.8s.81,1.8,1.8,1.8,1.8-.81,1.8-1.8-.81-1.8-1.8-1.8Z"/><path class="cls-15" d="M533.44,103.83c-.67-.07-1.08.42-1.11,1-.14,2.82-.98,4.68-2.49,5.53-2.37,1.33-5.95.09-7.69-.66.21-.33.44-.61.63-.96.27-.47.51-.93.73-1.38.71.35,1.69.71,2.75.71.49,0,1-.07,1.51-.26,1.91-.69,3.24-2.66,3.94-5.87.13-.57-.24-1.13-.81-1.26-.58-.13-1.13.24-1.26.81-.53,2.41-1.42,3.9-2.58,4.32-.98.35-2.06-.05-2.73-.41,1.67-4.69.71-8.46-1.65-10.86,1.88-1.81,6-5.26,11.24-6.52.57-.14.92-.71.78-1.28-.14-.57-.71-.92-1.28-.78-2.84.68-5.36,1.93-7.43,3.26,1.7-1.62,3.77-3.35,6.16-4.87.49-.31.64-.96.33-1.46-.31-.5-.97-.64-1.46-.33-2.86,1.81-5.27,3.89-7.16,5.76,1.4-2.26,3.22-4.85,5.31-7.01.4-.42.39-1.09-.03-1.5-.42-.4-1.09-.39-1.5.03-2.98,3.1-5.39,6.9-6.93,9.62.83-2.93,2.27-6.75,4.64-9.72.37-.46.29-1.12-.17-1.49-.45-.37-1.12-.29-1.49.17-2.2,2.76-3.64,6.11-4.58,8.96.14-2.72.83-6.01,2.96-8.75.36-.46.28-1.13-.19-1.48-.46-.36-1.12-.28-1.48.19-3.96,5.09-3.63,11.57-3.23,14.43-3.58-.6-7.79.42-11.37,3.52-1.9,1.65-4.23-.05-7.37-1.14.04-.03.09-.05.12-.09.4-.43.37-1.1-.06-1.49l-1.23-1.14,1.48,1.13c.19.15.42.22.64.22.32,0,.63-.14.84-.42.36-.46.26-1.13-.2-1.48l-1.72-1.31,1.8,1.23c.18.12.39.18.6.18.34,0,.67-.16.87-.46.33-.48.2-1.14-.28-1.47l-3.34-2.28s-.01,0-.02,0c.02-.03.04-.06.06-.09.01,0,.02.02.03.03l3.46,1.93c.16.09.34.13.52.13.37,0,.73-.19.92-.54.29-.51.1-1.15-.41-1.44l-1.79-1,2.07.74c.12.04.24.06.36.06.43,0,.84-.27,1-.7.2-.55-.09-1.16-.64-1.36l-3.73-1.34s0,0,0-.01c.07.02.13.06.2.07l4.14.62c.05,0,.11.01.16.01.51,0,.97-.38,1.04-.9.09-.58-.31-1.12-.89-1.2l-2.05-.3,2.42-.27c.58-.07,1-.59.93-1.17-.07-.58-.61-1-1.17-.93l-2.49.28,2.57-.95c.55-.2.83-.81.62-1.36-.2-.55-.81-.83-1.36-.62l-1.88.7,2.14-1.83c.27-.23.37-.56.35-.88l.17-.15s-.1-.07-.24-.16c-.04-.1-.09-.21-.16-.3-.28-.33-.71-.44-1.1-.32-.16-.06-.32-.11-.5-.14l.06-.06c.42-.41.42-1.08,0-1.5-.41-.42-1.08-.41-1.5,0l-2.45,2.44,1.81-2.76c.32-.49.18-1.14-.3-1.46-.49-.32-1.14-.19-1.46.3l-1.78,2.72,1.12-2.97c.21-.55-.07-1.16-.62-1.36-.34-.13-.7-.05-.98.15.3-.91.59-1.85.88-2.79.03-.03.05-.04.08-.07.15-.14.15-.34.1-.52.4-1.37.75-2.68.99-3.78.16-.16.31-.32.46-.5.18-.23.14-.56-.08-.74-.04-.03-.1-.02-.14-.04.12-.89.08-1.48-.19-1.59-.9-.35-4.02,4.49-6.33,8.35-.15.09-.28.22-.29.4,0,.02.02.03.02.05-.25.41-.48.81-.7,1.18l-.07-3.01s-5.86,2.18-1.46,5.68c-.09.16-.15.27-.15.27,0,0,0,0,0,0-4.79-.85-9.86-.37-12.35,2.25-5.19,5.46,6.71,9.2,6.71,9.2,0,0-6.33,6.14-8.67,13.84-.95-1.03-2.31-2.05-4.02-2.16-2.44-.12-4.76,1.48-7,4.85-.32.49-.19,1.14.29,1.47.18.12.38.18.59.18.34,0,.68-.17.88-.47,1.77-2.66,3.56-4.05,5.1-3.91,1.69.11,2.98,1.81,3.55,2.7-.26,1.57-.33,3.18-.11,4.79-.63-.31-1.3-.55-2.04-.62-2.51-.23-4.98,1.2-7.31,4.28-.35.47-.26,1.13.2,1.48.47.35,1.13.26,1.48-.2,1.86-2.45,3.67-3.61,5.42-3.45,1.16.11,2.19.79,3.03,1.59.94,2.53,2.68,5.02,5.54,7.33,10.2,8.23,29.49,10.72,39.94-3.39,1.27.58,3.79,1.57,6.34,1.57,1.23,0,2.46-.23,3.56-.85,2.19-1.23,3.39-3.67,3.57-7.27.03-.58-.42-1.08-1-1.11ZM492.98,92.8l.62.67c-.52.04-1.06.11-1.62.24,0,0,.39-.33,1-.91Z"/><path class="cls-21" d="M493.11,72.22l-.15-6.77s-7.13,2.63.15,6.77Z"/><path class="cls-10" d="M521.78,93.86s4.37-6.26,11.42-10.73"/><path class="cls-7" d="M521.48,93.06s3.48-7.55,8.54-12.82"/><path class="cls-6" d="M520.29,93.46s1.19-8.84,5.86-14.7"/><path class="cls-5" d="M520.09,92.66s-2.09-8.74,2.78-15"/><path class="cls-3" d="M522.39,94.65s5.3-6.16,12.9-7.99"/><line class="cls-5" x1="497.35" y1="73.3" x2="498.84" y2="69.37"/><line class="cls-6" x1="499.01" y1="74.18" x2="501.37" y2="70.57"/><line class="cls-7" x1="500.33" y1="75.52" x2="503.64" y2="72.22"/><line class="cls-10" x1="501.7" y1="77.11" x2="505.13" y2="74.18"/><line class="cls-3" x1="502.34" y1="78.44" x2="505.92" y2="77.11"/><line class="cls-5" x1="502.19" y1="80.29" x2="506.34" y2="79.83"/><line class="cls-6" x1="501.78" y1="81.88" x2="505.92" y2="82.5"/><line class="cls-7" x1="501.02" y1="83.85" x2="504.8" y2="85.21"/><line class="cls-10" x1="500.19" y1="85.45" x2="503.64" y2="87.39"/><line class="cls-3" x1="499.01" y1="87.32" x2="502.34" y2="89.6"/><line class="cls-5" x1="497.8" y1="88.94" x2="501.02" y2="91.4"/><line class="cls-6" x1="496.57" y1="90.4" x2="499.41" y2="93.03"/><line class="cls-7" x1="495.34" y1="91.71" x2="497.8" y2="94.36"/><path class="cls-21" d="M502.35,79.06c.51-6.51-17.81-11.24-23.35-5.4-5.19,5.46,6.71,9.2,6.71,9.2,0,0-19.23,18.64-3.08,31.68,10.82,8.74,31.89,11.02,41.76-6.13,8.32-14.45-6.86-22.19-16.96-13.43-3.01,2.61-7.11-3.21-13.84-1.61,0,0,8.17-6.86,8.76-14.3Z"/><path class="cls-22" d="M496.37,73.95s5.43-14.89,3.96-15.47-8.98,12.92-8.98,12.92c0,0,.2,2.26,5.02,2.55Z"/><path class="cls-2" d="M492.02,71.01s2.55,1.07,5.33-1.14"/><path class="cls-2" d="M494.23,67.27s2.38.17,4.59-1.98"/><path class="cls-2" d="M497.35,62.51s1.75-.45,2.97-1.98"/><path class="cls-8" d="M477.68,99.41s-4.43-8.98-10.79.55"/><path class="cls-8" d="M480.3,109.8s-5.32-10.86-12.49-1.37"/><path class="cls-8" d="M522.23,109.8s12.17,6.66,12.76-5.26"/><path class="cls-8" d="M524.61,105.47s5.78,4.54,7.67-4.1"/><path class="cls-21" d="M501.04,78.8l5.3-4.85s-2.21-1.73-4.04-.65c-1.83,1.08-1.25,5.51-1.25,5.51Z"/><g class="cls-16"><ellipse class="cls-22" cx="479.73" cy="77.46" rx="4.95" ry="6.63"/><path class="cls-12" d="M497.8,93.25s-8.41,5.51-1.27,9.26,18.39-2.02,12.68-10.79c-5.71-8.77-11.41,1.53-11.41,1.53Z"/><path class="cls-12" d="M504.26,124.52c.22-2.28,3.95-16.07-9.57-14.72-13.52,1.35-15.64,7.31-15.64,7.31l25.22,7.41Z"/><path class="cls-12" d="M524.61,115.55s-15.13-9.46-2.38-12.56,8.67,6.28,8.67,6.28l-6.29,6.28Z"/><circle class="cls-20" cx="482.21" cy="76.68" r="1.45"/><circle class="cls-20" cx="478.95" cy="74.52" r="1.45"/></g><path class="cls-9" d="M489.33,76.39s3.12-2.16,2.7,1.38"/><path class="cls-9" d="M487.13,73.3s2.12-2.29-1.14-1.08"/><circle class="cls-18" cx="491.87" cy="80.36" r="1.55"/></g></g></g></svg>