<?xml version="1.0" encoding="UTF-8"?><svg xmlns="http://www.w3.org/2000/svg" xmlns:xlink="http://www.w3.org/1999/xlink" viewBox="0 0 580 440.8"><defs><style>.cls-1{fill:#1d1061;}.cls-2,.cls-3,.cls-4{fill:none;}.cls-5{fill:#db6b4c;}.cls-6{isolation:isolate;}.cls-3{mix-blend-mode:multiply;stroke:#1d1061;}.cls-3,.cls-7{opacity:.25;}.cls-3,.cls-4{stroke-linecap:round;stroke-linejoin:round;}.cls-7{fill:url(#_40_10_ppp);mix-blend-mode:overlay;}.cls-4{stroke:#ffcb57;}.cls-8{fill:#6a90c6;}</style><pattern id="_40_10_ppp" x="0" y="0" width="10" height="10" patternTransform="translate(390 365.4)" patternUnits="userSpaceOnUse" viewBox="0 0 10 10"><rect class="cls-2" width="10" height="10"/><circle class="cls-1" cx="8.95" cy="8.95" r="1.05"/><circle class="cls-1" cx="3.68" cy="8.95" r="1.05"/><path class="cls-1" d="M8.95,4.74c.58,0,1.05-.47,1.05-1.05s-.47-1.05-1.05-1.05-1.05.47-1.05,1.05.47,1.05,1.05,1.05Z"/><path class="cls-1" d="M3.68,4.74c.58,0,1.05-.47,1.05-1.05s-.47-1.05-1.05-1.05-1.05.47-1.05,1.05.47,1.05,1.05,1.05Z"/><path class="cls-1" d="M1.05,7.37c.58,0,1.05-.47,1.05-1.05s-.47-1.05-1.05-1.05S0,5.73,0,6.32s.47,1.05,1.05,1.05Z"/><circle class="cls-1" cx="6.32" cy="6.32" r="1.05"/><path class="cls-1" d="M1.05,2.11c.58,0,1.05-.47,1.05-1.05S1.63,0,1.05,0,0,.47,0,1.05s.47,1.05,1.05,1.05Z"/><circle class="cls-1" cx="6.32" cy="1.05" r="1.05"/></pattern></defs><g class="cls-6"><g id="ZONE_1_B"><ellipse class="cls-8" cx="74.07" cy="417.48" rx="29.51" ry="1.93"/><path class="cls-1" d="M104.4,401.23c0,6.09-15.02,17.8-33.54,17.8s-33.54-12.4-33.54-17.8,15.02-17.8,33.54-17.8,33.54,11.71,33.54,17.8Z"/><path class="cls-5" d="M106.4,400.23c0,6.09-15.02,17.8-33.54,17.8s-33.54-12.4-33.54-17.8,15.02-17.8,33.54-17.8,33.54,11.71,33.54,17.8Z"/><path class="cls-7" d="M104.84,402.23c0,4.99-13.63,14.59-30.45,14.59s-30.45-10.17-30.45-14.59,13.63-14.59,30.45-14.59,30.45,9.6,30.45,14.59Z"/><path class="cls-3" d="M40.68,401.8s6.7,8.19,29.23,8.19c30.32,0,34.86-8.19,34.86-8.19"/><line class="cls-4" x1="58.08" y1="405.89" x2="62.86" y2="412.68"/><line class="cls-4" x1="58.08" y1="412.26" x2="63.39" y2="406.55"/><line class="cls-4" x1="68.99" y1="406.55" x2="74.38" y2="413.42"/><line class="cls-4" x1="68.15" y1="413.42" x2="75.23" y2="406.55"/><line class="cls-4" x1="81.11" y1="412.68" x2="85.05" y2="406.55"/><line class="cls-4" x1="80.3" y1="406.55" x2="85.68" y2="411.62"/></g></g></svg>