<?xml version="1.0" encoding="UTF-8"?><svg xmlns="http://www.w3.org/2000/svg" xmlns:xlink="http://www.w3.org/1999/xlink" viewBox="0 0 580 440.8"><defs><style>.cls-1{fill:#ffcb57;}.cls-2{fill:#fff;}.cls-3{fill:#1d1061;}.cls-4{stroke:#6a90c6;stroke-linecap:round;stroke-linejoin:round;}.cls-4,.cls-5{fill:none;}.cls-6{fill:#5cc6a0;}.cls-7{isolation:isolate;}.cls-8{fill:url(#_40_10_ppp_3);opacity:.5;}.cls-8,.cls-9{mix-blend-mode:multiply;}.cls-10{fill:#f2f0ec;}.cls-11{fill:#ff7461;}.cls-9{fill:url(#_40_10_ppp);opacity:.1;}.cls-12{fill:#a5a5a5;}.cls-13{clip-path:url(#clippath);}.cls-14{fill:url(#_40_10_ppp-2);mix-blend-mode:overlay;opacity:.25;}.cls-15{fill:#fdfdfd;}</style><pattern id="_40_10_ppp" x="0" y="0" width="10" height="10" patternTransform="translate(-2430 -104.59)" patternUnits="userSpaceOnUse" viewBox="0 0 10 10"><rect class="cls-5" width="10" height="10"/><circle class="cls-3" cx="8.95" cy="8.95" r="1.05"/><circle class="cls-3" cx="3.68" cy="8.95" r="1.05"/><path class="cls-3" d="M8.95,4.74c.58,0,1.05-.47,1.05-1.05s-.47-1.05-1.05-1.05-1.05.47-1.05,1.05.47,1.05,1.05,1.05Z"/><path class="cls-3" d="M3.68,4.74c.58,0,1.05-.47,1.05-1.05s-.47-1.05-1.05-1.05-1.05.47-1.05,1.05.47,1.05,1.05,1.05Z"/><path class="cls-3" d="M1.05,7.37c.58,0,1.05-.47,1.05-1.05s-.47-1.05-1.05-1.05S0,5.73,0,6.32s.47,1.05,1.05,1.05Z"/><circle class="cls-3" cx="6.32" cy="6.32" r="1.05"/><path class="cls-3" d="M1.05,2.11c.58,0,1.05-.47,1.05-1.05S1.63,0,1.05,0,0,.47,0,1.05s.47,1.05,1.05,1.05Z"/><circle class="cls-3" cx="6.32" cy="1.05" r="1.05"/></pattern><clipPath id="clippath"><path class="cls-5" d="M269.79,232.6c.16,1.87-12.97,1.87-12.97,1.87,0,0,11.09,1.71,11.09,4.37,0,1.41-11.56,1.56-11.56,1.56,0,0,.39,11.32-2.27,14.36h61.95c-2.69-3.01-2.3-14.39-2.3-14.39,0,0-11.56-.16-11.56-1.56,0-2.66,11.09-4.37,11.09-4.37,0,0-13.12,0-12.97-1.87.25-3,11.3-5.56,16.4-5.51-5.03-24.65-10.4-37.7-10.4-37.7-16.02,2.53-42.49,0-42.49,0-4.56,9.1-8.13,24.28-10.63,37.73,4.99-.13,16.36,2.46,16.61,5.51Z"/></clipPath><pattern id="_40_10_ppp-2" patternTransform="translate(-5663.65 -3635.54) rotate(-.41) scale(.59)" xlink:href="#_40_10_ppp"/><pattern id="_40_10_ppp_3" x="0" y="0" width="10" height="10" patternTransform="translate(-8852.19 -3621.1) rotate(26.34) scale(.45)" patternUnits="userSpaceOnUse" viewBox="0 0 10 10"><rect class="cls-5" width="10" height="10"/><circle class="cls-1" cx="8.95" cy="8.95" r="1.05"/><circle class="cls-1" cx="3.68" cy="8.95" r="1.05"/><path class="cls-1" d="M8.95,4.74c.58,0,1.05-.47,1.05-1.05s-.47-1.05-1.05-1.05-1.05.47-1.05,1.05.47,1.05,1.05,1.05Z"/><path class="cls-1" d="M3.68,4.74c.58,0,1.05-.47,1.05-1.05s-.47-1.05-1.05-1.05-1.05.47-1.05,1.05.47,1.05,1.05,1.05Z"/><path class="cls-1" d="M1.05,7.37c.58,0,1.05-.47,1.05-1.05s-.47-1.05-1.05-1.05S0,5.73,0,6.32s.47,1.05,1.05,1.05Z"/><circle class="cls-1" cx="6.32" cy="6.32" r="1.05"/><path class="cls-1" d="M1.05,2.11c.58,0,1.05-.47,1.05-1.05S1.63,0,1.05,0,0,.47,0,1.05s.47,1.05,1.05,1.05Z"/><circle class="cls-1" cx="6.32" cy="1.05" r="1.05"/></pattern></defs><g class="cls-7"><g id="ZONE_2_T-shirt_H"><polygon class="cls-10" points="306.29 189.37 330.24 207.54 320.55 222.07 310.71 213.16 306.29 189.37"/><polygon class="cls-10" points="263.81 189.37 239.86 207.54 249.55 222.07 259.39 213.16 263.81 189.37"/><path class="cls-9" d="M263.79,195.56s-15.39,9.88-20.64,14.89l6.38,10.38,11.26-8.76,3-16.51Z"/><path class="cls-2" d="M269.79,232.6c.16,1.87-12.97,1.87-12.97,1.87,0,0,11.09,1.71,11.09,4.37,0,1.41-11.56,1.56-11.56,1.56,0,0,.39,11.32-2.27,14.36h61.95c-2.69-3.01-2.3-14.39-2.3-14.39,0,0-11.56-.16-11.56-1.56,0-2.66,11.09-4.37,11.09-4.37,0,0-13.12,0-12.97-1.87.25-3,11.3-5.56,16.4-5.51-5.03-24.65-10.4-37.7-10.4-37.7-16.02,2.53-42.49,0-42.49,0-4.56,9.1-8.13,24.28-10.63,37.73,4.99-.13,16.36,2.46,16.61,5.51Z"/><path class="cls-4" d="M275.89,191.67s3.88,1.79,9.26,1.79"/><g class="cls-13"><circle class="cls-11" cx="284.28" cy="220.91" r="15.66"/><circle class="cls-14" cx="285.14" cy="221.43" r="14.44"/><path class="cls-3" d="M299.14,216.64c.33-.67.34-1.42.09-2.07,1.44-1.2,3.44-2.85,1.38-5.09-.5-.63-1.33-1.31-2.58-2.05-3.6-2.1-6.57-2.16-9.18.7-.37.41-.81.88-1.3,1.39-.11-.06-.22-.12-.32-.17.14-1.07-.39-2.15-1.4-2.65-1.28-.63-2.83-.11-3.46,1.17-.63,1.28-.11,2.83,1.17,3.46.75.37,1.58.34,2.28,0-3.46,3.54-8.27,8.32-11.96,12.25.12-1.05-.4-2.12-1.41-2.62-1.28-.63-2.83-.11-3.46,1.17s-.11,2.83,1.17,3.46c.54.27,1.12.32,1.66.21-1.32,1.48-2.36,2.73-2.92,3.6-1.62,2.51-1.84,4.03-.37,5.64.59.74,1.53,1.48,2.85,2.34,2.87,1.86,5.78,2.25,8.28-1.21.65-.9,1.8-2.28,3.21-3.9,1.14.26,2.35-.27,2.9-1.37.33-.66.34-1.39.11-2.03,3.51-3.9,7.57-8.25,10.1-10.96,1.22.43,2.59-.09,3.17-1.28Z"/><path class="cls-3" d="M299.09,207.81c-3.6-2.1-6.57-2.16-9.18.7-4.34,4.76-17.33,17.19-19.96,21.26-2.28,3.52-1.8,5.09,2.26,7.73,2.87,1.86,5.78,2.25,8.28-1.21,3.15-4.35,17.74-19.74,18.72-20.82,1.36-1.49,6.35-3.87-.13-7.66Z"/><path class="cls-6" d="M298.87,207.56c-3.6-2.1-6.57-2.16-9.18.7-4.34,4.76-17.33,17.19-19.96,21.26-2.28,3.52-1.8,5.09,2.26,7.73,2.87,1.86,5.78,2.25,8.28-1.21,3.15-4.35,17.74-19.74,18.72-20.82,1.36-1.49,6.35-3.87-.13-7.66Z"/><path class="cls-12" d="M273.97,224.78s1.57,1.41,1.13,2.69l4.5,2.52,1.5-1.38-7.14-3.82Z"/><circle class="cls-1" cx="272.14" cy="223.4" r="2.58"/><circle class="cls-8" cx="272.64" cy="223.79" r="2.21"/><path class="cls-15" d="M272.92,222.8c2.69,1.43,11.77,6.28,11.77,6.28l-1.21,1.47-11.43-6.11c-.49-.26-.64-.88-.33-1.34h0c.27-.4.79-.53,1.21-.3Z"/><circle class="cls-1" cx="284.28" cy="229.89" r="2.58"/><circle class="cls-8" cx="284.95" cy="230.49" r="2.21"/><path class="cls-12" d="M287.35,210.52s1.57,1.41,1.13,2.69l4.5,2.52,1.5-1.38-7.14-3.82Z"/><circle class="cls-1" cx="285.52" cy="209.14" r="2.58"/><circle class="cls-8" cx="286.02" cy="209.53" r="2.21"/><path class="cls-15" d="M286.3,208.53c2.69,1.43,11.77,6.28,11.77,6.28l-1.21,1.47-11.43-6.11c-.49-.26-.64-.88-.33-1.34h0c.27-.4.79-.53,1.21-.3Z"/><circle class="cls-1" cx="297.67" cy="215.62" r="2.58"/><circle class="cls-8" cx="298.34" cy="216.23" r="2.21"/></g></g></g></svg>