<?xml version="1.0" encoding="UTF-8"?><svg xmlns="http://www.w3.org/2000/svg" xmlns:xlink="http://www.w3.org/1999/xlink" viewBox="0 0 580 440.8"><defs><style>.cls-1{stroke:#f2f0ec;}.cls-1,.cls-2,.cls-3{fill:none;}.cls-1,.cls-3{stroke-linecap:round;stroke-linejoin:round;stroke-width:.5px;}.cls-1,.cls-4{mix-blend-mode:overlay;}.cls-5{fill:#ffcb57;}.cls-6{fill:#d07b73;}.cls-6,.cls-7{mix-blend-mode:soft-light;}.cls-8{fill:url(#Dégradé_sans_nom_51-2);}.cls-8,.cls-9{mix-blend-mode:hard-light;}.cls-7,.cls-10{fill:#6a90c6;}.cls-11{mix-blend-mode:lighten;}.cls-11,.cls-12{fill:#f2f0ec;}.cls-11,.cls-13{opacity:.75;}.cls-14{fill:#1d1061;}.cls-15{fill:url(#Dégradé_sans_nom_2);}.cls-16{clip-path:url(#clippath-1);}.cls-17{fill:url(#Dégradé_sans_nom_51);}.cls-18{fill:#db6b4c;}.cls-19{isolation:isolate;}.cls-9{fill:url(#Dégradé_sans_nom_2-2);}.cls-20{fill:#cd4d35;}.cls-21,.cls-13{fill:#ffa544;}.cls-22{mix-blend-mode:screen;}.cls-23{fill:url(#Dégradé_sans_nom_64);}.cls-3{stroke:#1d1061;}.cls-24{fill:#dedede;}.cls-25{fill:#a5a5a5;}.cls-26{clip-path:url(#clippath-2);}.cls-27{fill:#fdfdfd;opacity:.5;}.cls-4{fill:url(#_40_10_ppp);opacity:.25;}.cls-28{clip-path:url(#clippath);}</style><clipPath id="clippath"><rect class="cls-2" x="455.64" y="48.02" width="89.28" height="106.65"/></clipPath><pattern id="_40_10_ppp" x="0" y="0" width="10" height="10" patternTransform="translate(-530 2665.36)" patternUnits="userSpaceOnUse" viewBox="0 0 10 10"><rect class="cls-2" width="10" height="10"/><circle class="cls-14" cx="8.95" cy="8.95" r="1.05"/><circle class="cls-14" cx="3.68" cy="8.95" r="1.05"/><path class="cls-14" d="M8.95,4.74c.58,0,1.05-.47,1.05-1.05s-.47-1.05-1.05-1.05-1.05.47-1.05,1.05.47,1.05,1.05,1.05Z"/><path class="cls-14" d="M3.68,4.74c.58,0,1.05-.47,1.05-1.05s-.47-1.05-1.05-1.05-1.05.47-1.05,1.05.47,1.05,1.05,1.05Z"/><path class="cls-14" d="M1.05,7.37c.58,0,1.05-.47,1.05-1.05s-.47-1.05-1.05-1.05S0,5.73,0,6.32s.47,1.05,1.05,1.05Z"/><circle class="cls-14" cx="6.32" cy="6.32" r="1.05"/><path class="cls-14" d="M1.05,2.11c.58,0,1.05-.47,1.05-1.05S1.63,0,1.05,0,0,.47,0,1.05s.47,1.05,1.05,1.05Z"/><circle class="cls-14" cx="6.32" cy="1.05" r="1.05"/></pattern><linearGradient id="Dégradé_sans_nom_2" x1="-4404.26" y1="3981.22" x2="-4197.31" y2="3952.44" gradientTransform="translate(-3532.93 4600.2) rotate(90) scale(1 -1)" gradientUnits="userSpaceOnUse"><stop offset="0" stop-color="#6a90c6" stop-opacity="0"/><stop offset="1" stop-color="#6a90c6"/></linearGradient><linearGradient id="Dégradé_sans_nom_2-2" x1="-4397.08" y1="3952.1" x2="-4201.06" y2="3994.26" xlink:href="#Dégradé_sans_nom_2"/><linearGradient id="Dégradé_sans_nom_51" x1="11.28" y1="1796.8" x2="236.07" y2="1755.03" gradientTransform="translate(2218.84 186.13) rotate(-90) scale(1 -1)" gradientUnits="userSpaceOnUse"><stop offset="0" stop-color="#ffa544" stop-opacity="0"/><stop offset="1" stop-color="#db6b4c"/></linearGradient><linearGradient id="Dégradé_sans_nom_51-2" x1="18.13" y1="1757.76" x2="241.94" y2="1809.84" xlink:href="#Dégradé_sans_nom_51"/><clipPath id="clippath-1"><circle class="cls-2" cx="529.46" cy="73.93" r="10.77"/></clipPath><clipPath id="clippath-2"><circle class="cls-2" cx="496.4" cy="95.81" r="3.71"/></clipPath><linearGradient id="Dégradé_sans_nom_64" x1="-1277.77" y1="321.92" x2="-1273.15" y2="316.82" gradientTransform="translate(1567.46 857.69) rotate(49.49)" gradientUnits="userSpaceOnUse"><stop offset="0" stop-color="#fff" stop-opacity="0"/><stop offset="1" stop-color="#fff"/></linearGradient></defs><g class="cls-19"><g id="ZONE_4_B"><polygon class="cls-14" points="547.56 162.93 449.15 162.93 449.15 43.36 531.56 43.36 547.56 57.56 547.56 162.93"/><polygon class="cls-14" points="550.61 41.57 534.64 41.82 549.58 56.86 550.61 41.57"/><polygon class="cls-12" points="549.4 40.48 534.88 41.57 451.17 41.57 451.17 161.14 549.58 161.14 549.58 54.61 549.4 40.48"/><circle class="cls-14" cx="454.91" cy="45.86" r=".73"/><circle class="cls-14" cx="545.65" cy="45.12" r=".73"/><circle class="cls-14" cx="454.91" cy="158.25" r=".73"/><circle class="cls-14" cx="545.46" cy="158.25" r=".73"/><g class="cls-28"><rect class="cls-14" x="200.53" y="-19.59" width="474.16" height="395.5"/><rect class="cls-4" x="200.53" y="-19.59" width="474.16" height="395.5"/><path class="cls-15" d="M674.69,375.91v-182.89c-119.9-47.71-207.52,17.42-319.1,10.66-72.45-4.39-90.49-47.79-155.06-34.03v206.26s474.16,0,474.16,0Z"/><path class="cls-9" d="M674.69,375.91v-174.16c-119.9-47.71-205.48,46.07-317.06,39.31-72.45-4.39-92.53-44.73-157.1-30.97v165.83s474.16,0,474.16,0Z"/><path class="cls-17" d="M200.53-19.59v169.65c74.02,34.94,165.21,10.7,264.03,20.41,120.5,11.83,130.82,34.95,210.13,31.28V-19.59s-474.16,0-474.16,0Z"/><path class="cls-8" d="M200.53-19.59v173.44c74.02,34.94,165.21-28.64,264.03-18.93,120.5,11.83,130.82,28.76,210.13,25.09V-19.59s-474.16,0-474.16,0Z"/><polygon class="cls-1" points="328.16 103.82 328.36 99.67 326.24 103.77 330.12 101.43 325.31 100.5 328.16 103.82"/><polygon class="cls-1" points="303.23 51.33 303.94 48.07 301.63 49.74 305.6 49.74 302.56 47.95 303.23 51.33"/><polygon class="cls-1" points="408.68 49.77 407.66 45.67 406.35 49.22 409.87 47.11 405.48 46.51 408.68 49.77"/><polygon class="cls-1" points="409.04 92.56 406.32 89 405.59 93.67 408.65 90.23 404.79 90.53 409.04 92.56"/><polygon class="cls-1" points="399.16 280.11 399.36 275.96 397.24 280.06 401.12 277.72 396.31 276.78 399.16 280.11"/><polygon class="cls-1" points="368.09 174.32 368.79 171.06 366.49 172.72 370.45 172.72 367.42 170.94 368.09 174.32"/><polygon class="cls-1" points="432.14 157.63 431.11 153.54 429.8 157.09 433.32 154.98 428.94 154.37 432.14 157.63"/><polygon class="cls-1" points="435.45 214.39 432.72 210.83 432 215.5 435.06 212.05 431.19 212.36 435.45 214.39"/><polygon class="cls-1" points="254.01 183.56 254.21 179.41 252.08 183.51 255.97 181.17 251.15 180.23 254.01 183.56"/><polygon class="cls-1" points="304.18 300.6 304.89 297.33 302.59 299 306.55 299 303.52 297.21 304.18 300.6"/><polygon class="cls-1" points="300.52 145.59 299.5 141.5 298.19 145.05 301.7 142.94 297.32 142.33 300.52 145.59"/><polygon class="cls-1" points="292.35 242.78 289.62 239.22 288.9 243.89 291.96 240.45 288.09 240.75 292.35 242.78"/><polygon class="cls-1" points="578.87 149.7 578.67 145.55 580.79 149.65 576.91 147.32 581.72 146.38 578.87 149.7"/><polygon class="cls-1" points="578.12 118.01 577.42 114.75 579.72 116.41 575.75 116.41 578.79 114.63 578.12 118.01"/><polygon class="cls-1" points="520.55 117.25 521.57 113.15 522.88 116.7 519.37 114.59 523.75 113.98 520.55 117.25"/><polygon class="cls-1" points="520.19 160.04 522.92 156.48 523.64 161.15 520.58 157.7 524.45 158.01 520.19 160.04"/><polygon class="cls-1" points="524.36 273.84 524.16 269.69 526.28 273.79 522.4 271.45 527.21 270.52 524.36 273.84"/><polygon class="cls-1" points="536.96 235.79 536.26 232.52 538.56 234.19 534.6 234.19 537.63 232.4 536.96 235.79"/><polygon class="cls-1" points="474.89 203.52 475.92 199.42 477.23 202.97 473.71 200.86 478.09 200.25 474.89 203.52"/><polygon class="cls-1" points="456.37 295.28 459.09 291.72 459.82 296.39 456.76 292.94 460.62 293.25 456.37 295.28"/><path class="cls-6" d="M524.84,76.87c-13.58-.32-18.55,9.33-34.33,9-9.85-.21-22.59-6.9-31.01-7.31-14.33-.7-28,4.98-27.4,9.47.9,6.67,18.48-.73,30.65,2.74,9.88,2.82,23.24,20.97,38.57,22.71,15.33,1.74,32.6-10.42,44.57-7.52,11.98,2.9,43.87-2.71,41.9-10.43-2.48-9.73-19.45.88-36.66-5.71-10.12-3.87-11.9-12.6-26.3-12.94Z"/><path class="cls-3" d="M523.03,74.84c-13.58-.32-18.55,9.33-34.33,9-9.85-.21-22.59-6.9-31.01-7.31-14.33-.7-28,4.98-27.4,9.47.9,6.67,18.48-.73,30.65,2.74,9.88,2.82,23.24,20.97,38.57,22.71,15.33,1.74,32.6-10.42,44.57-7.52,11.98,2.9,43.87-2.71,41.9-10.43-2.48-9.73-19.45.88-36.66-5.71-10.12-3.87-11.9-12.6-26.3-12.94Z"/><path class="cls-6" d="M336.21,124.85c-8.25-.23-11.3,5.62-20.88,5.38-5.99-.15-13.71-4.25-18.82-4.52-8.71-.46-17.03,2.96-16.67,5.68.53,4.05,11.23-.39,18.62,1.75,6,1.74,14.06,12.8,23.38,13.9,9.31,1.09,19.83-6.25,27.1-4.46,7.27,1.79,26.66-1.53,25.49-6.23-1.48-5.92-11.82.48-22.26-3.57-6.14-2.38-7.2-7.68-15.95-7.93Z"/><path class="cls-3" d="M334.8,123.13c-8.25-.23-11.3,5.62-20.88,5.38-5.99-.15-13.71-4.25-18.82-4.52-8.71-.46-17.03,2.96-16.67,5.68.53,4.05,11.23-.39,18.62,1.75,6,1.74,14.06,12.8,23.38,13.9,9.31,1.09,19.83-6.25,27.1-4.46,7.27,1.79,26.66-1.53,25.49-6.23-1.48-5.92-11.82.48-22.26-3.57-6.14-2.38-7.2-7.68-15.95-7.93Z"/><path class="cls-7" d="M359.38,253.02c13.58.36,18.58-9.27,34.36-8.9,9.85.23,22.57,6.96,30.98,7.4,14.33.74,28.02-4.9,27.42-9.39-.88-6.67-18.48.67-30.64-2.83-9.88-2.85-23.18-21.04-38.51-22.81-15.33-1.78-32.63,10.33-44.59,7.4-11.97-2.93-43.88,2.58-41.93,10.32,2.45,9.74,19.45-.82,36.65,5.82,10.11,3.9,11.86,12.63,26.27,13.01Z"/><path class="cls-3" d="M357.63,250.94c13.58.36,18.58-9.27,34.36-8.9,9.85.23,22.57,6.96,30.98,7.4,14.33.74,28.02-4.9,27.42-9.39-.88-6.67-18.48.67-30.64-2.83-9.88-2.85-23.18-21.04-38.51-22.81-15.33-1.78-32.63,10.33-44.59,7.4-11.97-2.93-43.88,2.58-41.93,10.32,2.45,9.74,19.45-.82,36.65,5.82,10.11,3.9,11.86,12.63,26.27,13.01Z"/><path class="cls-7" d="M551.1,272c-10.94.32-14.52,8.29-27.23,8.69-7.93.25-18.46-4.59-25.24-4.56-11.55.04-22.31,5.2-21.63,8.78,1.01,5.32,14.83-1.37,24.76.91,8.07,1.85,19.58,15.88,31.98,16.62,12.41.75,25.77-9.76,35.53-7.94,9.75,1.82,35.17-4.04,33.26-10.17-2.4-7.72-15.6,1.53-29.73-3.04-8.3-2.69-10.1-9.63-21.7-9.29Z"/><path class="cls-3" d="M549.13,270.12c-10.94.32-14.52,8.29-27.23,8.69-7.93.25-18.46-4.59-25.24-4.56-11.55.04-22.31,5.2-21.63,8.78,1.01,5.32,14.83-1.37,24.76.91,8.07,1.85,19.58,15.88,31.98,16.62,12.41.75,25.77-9.76,35.53-7.94,9.75,1.82,35.17-4.04,33.26-10.17-2.4-7.72-15.6,1.53-29.73-3.04-8.3-2.69-10.1-9.63-21.7-9.29Z"/><g class="cls-22"><path class="cls-13" d="M523.01,53.59c-13.49,2.89-20.4,27.83-6.11,36.37,14.29,8.54,29.92-2.32,33.5-11.04,3.58-8.72-4.01-30.33-27.39-25.32Z"/><path class="cls-11" d="M541.87,79.65c6.84-11.76-5.37-24.01-16.4-20.67-11.03,3.35-14.41,14.58-10.54,21.45,3.82,6.77,19.72,11.62,26.93-.78Z"/></g><circle class="cls-20" cx="529.46" cy="73.93" r="10.77"/><g class="cls-16"><path class="cls-18" d="M514.68,76.87c.65-7.65,13.31-5.97,16.4-8.86,3.09-2.89,4.96-7,4.96-7l2.2,1.27s.78,6.1-3.7,9.64c-4.48,3.54-12.87,1.77-15.86,11.01l-4.01-6.06Z"/><path class="cls-18" d="M525.32,86.06s3.47-5.91,6.23-7.99,8.63-5.22,10.14-9.01l.68.62c-2.73,6.75-5.24,4.93-9.88,11.46-2.67,3.77-3.93,6.45-3.93,6.45l-3.24-1.53Z"/><path class="cls-18" d="M518.12,68.56c3.41-2.76,5.32-2.06,8.13-3.25,3.03-1.29,3.95-4.06,3.95-4.06l-8.07,1.68-4.01,5.63Z"/><path class="cls-18" d="M540.7,77.28c-5.63,2.28-4.72,6.66-6.86,7.75l5.45-2.09,1.41-5.65Z"/></g><circle class="cls-4" cx="528.69" cy="74.89" r="9.06"/><circle class="cls-3" cx="528.88" cy="73.35" r="10.77"/><g id="E1"><path class="cls-27" d="M473.78,123.4c.45-.35.87-.71,1.26-1.1l-6.43-11.26c-1.46,2.02-3.22,3.8-5.29,5.34-2.35,1.74-4.91,3.04-7.68,3.88-1.26.35-2.21.61-2.84.8-1.1.33-2,.7-2.7,1.11-.79.46-1.5,1.04-2.11,1.74-.62.7-1.11,1.47-1.48,2.31-.26.62-.38,1.15-.38,1.61-1.29-.83-2.54-.9-3.76-.21-1.22.69-1.86,1.97-1.89,3.84-.84-.19-1.76-.24-2.77-.15-1.54.15-2.84.6-3.89,1.36-1.03.74-1.84,1.79-2.45,3.17-.22.5-.4,1.04-.56,1.62-.12-.09-.19-.14-.21-.16-.37-.23-.8-.39-1.28-.47-.32-.05-.61-.06-.86-.03-.8.1-1.53.61-2.19,1.51-.41.58-.72,1.21-.94,1.9-.09.29-.16.58-.2.87l9.68,11.7c.06.08.23.31.52.68,2.05,1.22,3.24.67,3.57-1.66,2.25-.55,4.26-1.43,6.03-2.62,1.32-.9,2.45-1.96,3.4-3.18.99-1.28,1.71-2.65,2.15-4.1.45-1.49.65-3.2.58-5.15-.02-.59-.08-1.31-.17-2.16.09.03.18.06.28.09.56.15,1.02.18,1.39.08.44-.12.81-.4,1.1-.83.22-.31.4-.74.53-1.28.07-.29.12-.58.14-.87.87.26,1.77.39,2.72.38,1.31-.01,2.55-.29,3.71-.85.55-.26,1.03-.57,1.43-.91.34-.3.7-.71,1.09-1.23.73-.98,1.33-1.97,1.8-2.97,1.98-.02,3.82-.36,5.52-1.02,1.16-.45,2.23-1.04,3.2-1.78Z"/><path class="cls-4" d="M474.16,124.17c.45-.35.87-.71,1.26-1.1l-6.43-11.26c-1.46,2.02-3.22,3.8-5.29,5.34-2.35,1.74-4.91,3.04-7.68,3.88-1.26.35-2.21.61-2.84.8-1.1.33-2,.7-2.7,1.11-.79.46-1.5,1.04-2.11,1.74-.62.7-1.11,1.47-1.48,2.31-.26.62-.38,1.15-.38,1.61-1.29-.83-2.54-.9-3.76-.21-1.22.69-1.86,1.97-1.89,3.84-.84-.19-1.76-.24-2.77-.15-1.54.15-2.84.6-3.89,1.36-1.03.74-1.84,1.79-2.45,3.17-.22.5-.4,1.04-.56,1.62-.12-.09-.19-.14-.21-.16-.37-.23-.8-.39-1.28-.47-.32-.05-.61-.06-.86-.03-.8.1-1.53.61-2.19,1.51-.41.58-.72,1.21-.94,1.9-.09.29-.16.58-.2.87l9.68,11.7c.06.08.23.31.52.68,2.05,1.22,3.24.67,3.57-1.66,2.25-.55,4.26-1.43,6.03-2.62,1.32-.9,2.45-1.96,3.4-3.18.99-1.28,1.71-2.65,2.15-4.1.45-1.49.65-3.2.58-5.15-.02-.59-.08-1.31-.17-2.16.09.03.18.06.28.09.56.15,1.02.18,1.39.08.44-.12.81-.4,1.1-.83.22-.31.4-.74.53-1.28.07-.29.12-.58.14-.87.87.26,1.77.39,2.72.38,1.31-.01,2.55-.29,3.71-.85.55-.26,1.03-.57,1.43-.91.34-.3.7-.71,1.09-1.23.73-.98,1.33-1.97,1.8-2.97,1.98-.02,3.82-.36,5.52-1.02,1.16-.45,2.23-1.04,3.2-1.78Z"/></g><path class="cls-5" d="M483.47,107.27c-3.46-4.6-9.99-5.53-14.59-2.07-7.37,5.54-4.51,13.94-6.1,17.39l3.22-1.1-1.53,1.87c4.87,0,10.22,3.52,16.91-1.51,4.6-3.46,5.53-9.99,2.07-14.59Z"/><circle class="cls-18" cx="478.82" cy="110.76" r="5.89" transform="translate(85.68 405.68) rotate(-49.9)"/><path class="cls-4" d="M482.47,107.05c-2.86-3.81-8.27-4.58-12.08-1.72-6.1,4.59-3.73,11.55-5.05,14.41l2.67-.91-1.26,1.55c4.03,0,8.46,2.92,14.01-1.25,3.81-2.86,4.58-8.27,1.72-12.08Z"/><path class="cls-14" d="M499.92,109.41c-.13-.54-.78-.76-1.22-.41l-3.41,2.72c.05-1.01-.03-1.98-.19-2.89,3.87-2.53,8.95-7.08,11.56-14.56h0s0,0,0,0c.4-1.13.73-2.33,1-3.59.01-.05.02-.1.03-.14.05-.25.1-.5.15-.76.02-.09.03-.17.05-.26.04-.22.08-.45.11-.67.02-.1.03-.2.05-.3.03-.23.06-.46.09-.69.01-.1.02-.19.04-.29.04-.33.07-.65.1-.99,0-.09,0-.17,0-.25-.01-.12-.05-.24-.1-.35-.03-.07-.07-.14-.12-.21-.07-.1-.15-.19-.24-.26-.19-.15-.42-.25-.67-.26-.33-.02-.66-.04-.99-.06-.1,0-.19,0-.29-.01-.23,0-.46-.02-.69-.02-.1,0-.21,0-.31,0-.23,0-.46,0-.68,0-.09,0-.18,0-.26,0-.26,0-.52.02-.77.03-.05,0-.1,0-.15,0-9.86.53-16.33,5.63-19.9,9.58-.88-.3-1.83-.52-2.83-.63l3.22-2.94c.41-.38.3-1.05-.22-1.27-2.22-.93-7.6-2.12-12.24,5.22-.22.35-.19.81.08,1.13l2.34,2.74c.35.41.97.45,1.37.09l1.36-1.24c.78.04,1.75.13,2.82.33.18.03.36.07.54.1,0,0,0,0,.01,0,.18.04.36.08.54.12,0,0,0,0,.01,0,.05.01.09.02.14.04-.39.61-.58.97-.58.97l1.01,1.18-2.31,3.28,7,8.2,3.6-1.77,1.01,1.18s.39-.13,1.05-.42c.03.36.05.71.06,1.05h0c.04,1.18-.02,2.23-.11,3.06l-1.44,1.15c-.42.34-.48.96-.13,1.37l2.34,2.74c.27.32.72.42,1.1.26,7.97-3.44,7.63-8.94,7.06-11.28Z"/><polygon class="cls-14" points="481.88 99.69 479.12 103.61 486.13 111.81 490.43 109.69 481.88 99.69"/><path class="cls-25" d="M491.53,100.1s-4.66-6.42-12.07-6.31l-4.44,3.79s8.76-.67,13.61,5l2.91-2.49Z"/><path class="cls-14" d="M483.61,94.43c-.98.72-2.27,1.82-3.84,3.49,1.42.26,3.01.7,4.56,1.44l1.06-4.22c-.56-.27-1.15-.51-1.78-.71Z"/><path class="cls-21" d="M475.57,98.84l8.67-7.9c.41-.38.3-1.05-.22-1.27-2.22-.93-7.6-2.12-12.24,5.22-.22.35-.19.81.08,1.13l2.34,2.74c.35.41.97.45,1.37.09Z"/><path class="cls-25" d="M491.53,100.1s5.61,5.6,4.35,12.91l-4.44,3.79s2.03-8.55-2.82-14.22l2.91-2.49Z"/><path class="cls-14" d="M491.84,111.84c1.76-.96,3.1-2.04,4.07-2.97-.07-.44-.15-.86-.26-1.28l-4.03,1.9c.13.81.19,1.61.22,2.35Z"/><path class="cls-21" d="M490.29,116.06l9.16-7.32c.44-.35,1.09-.13,1.22.41.57,2.33.91,7.84-7.06,11.28-.38.17-.83.06-1.1-.26l-2.34-2.74c-.35-.41-.29-1.03.13-1.37Z"/><path class="cls-12" d="M507.89,84.98c-19.25-1.43-27.46,14.18-27.46,14.18l10.3,12.06s16.71-5.68,18.3-24.91c.06-.68-.46-1.28-1.14-1.33Z"/><path class="cls-14" d="M507.42,94c.8-2.28,1.37-4.84,1.61-7.69.06-.68-.46-1.28-1.14-1.33-2.86-.21-5.47-.05-7.85.38l7.38,8.64Z"/><path class="cls-4" d="M500.17,89c-13.36-.73-19.28,10.16-19.28,10.16l7,8.19s11.69-4.15,13.05-17.45c.05-.47-.3-.88-.77-.9Z"/><circle class="cls-24" cx="496.4" cy="95.81" r="5.6"/><ellipse class="cls-14" cx="496.36" cy="95.7" rx="3.92" ry="3.97" transform="translate(56.8 345.34) rotate(-40.51)"/><circle class="cls-10" cx="496.4" cy="95.81" r="3.71"/><g class="cls-26"><path class="cls-23" d="M492,93.33s1.38-1.43,4.13.32c2.74,1.76,4.96.36,4.96.36l.28,1.48s-1.88,2.31-4.54,1.23c-2.66-1.08-3.8-.23-4.7.97l-.13-4.36Z"/></g><circle class="cls-4" cx="496.37" cy="95.67" r="3.19"/></g></g></g></svg>