<?xml version="1.0" encoding="UTF-8"?><svg xmlns="http://www.w3.org/2000/svg" xmlns:xlink="http://www.w3.org/1999/xlink" viewBox="0 0 580 440.8"><defs><style>.cls-1{fill:#ffcb57;}.cls-2{fill:url(#_40_10_ppp);mix-blend-mode:multiply;opacity:.15;}.cls-3{stroke:#f2f0ec;}.cls-3,.cls-4,.cls-5{fill:none;}.cls-3,.cls-5{stroke-linecap:round;stroke-linejoin:round;}.cls-6{fill:#1d1061;}.cls-7{fill:#65447a;}.cls-8{isolation:isolate;}.cls-5{stroke:#1d1061;}.cls-9{fill:#fdfdfd;}</style><pattern id="_40_10_ppp" x="0" y="0" width="10" height="10" patternTransform="translate(230 1245.39)" patternUnits="userSpaceOnUse" viewBox="0 0 10 10"><rect class="cls-4" width="10" height="10"/><circle class="cls-6" cx="8.95" cy="8.95" r="1.05"/><circle class="cls-6" cx="3.68" cy="8.95" r="1.05"/><path class="cls-6" d="M8.95,4.74c.58,0,1.05-.47,1.05-1.05s-.47-1.05-1.05-1.05-1.05.47-1.05,1.05.47,1.05,1.05,1.05Z"/><path class="cls-6" d="M3.68,4.74c.58,0,1.05-.47,1.05-1.05s-.47-1.05-1.05-1.05-1.05.47-1.05,1.05.47,1.05,1.05,1.05Z"/><path class="cls-6" d="M1.05,7.37c.58,0,1.05-.47,1.05-1.05s-.47-1.05-1.05-1.05S0,5.73,0,6.32s.47,1.05,1.05,1.05Z"/><circle class="cls-6" cx="6.32" cy="6.32" r="1.05"/><path class="cls-6" d="M1.05,2.11c.58,0,1.05-.47,1.05-1.05S1.63,0,1.05,0,0,.47,0,1.05s.47,1.05,1.05,1.05Z"/><circle class="cls-6" cx="6.32" cy="1.05" r="1.05"/></pattern></defs><g class="cls-8"><g id="ZONE_3_A"><path class="cls-6" d="M500.84,247.85c-3.93-1.78-7.24-2.97-10-3.65-1.24-11.82-3.1-22.62-8.38-25.83-.89-.54-1.88-.87-2.98-.95-.73-.05-1.44-.08-2.15-.09-.27,0-.53.01-.8.02-.43,0-.86.01-1.28.04-.34.02-.67.06-1,.09-.34.03-.68.06-1.02.11-.37.05-.73.12-1.1.19-.28.05-.56.1-.84.17-.39.09-.78.19-1.17.3-.23.07-.46.13-.69.21-.41.13-.82.28-1.22.44-.18.07-.37.15-.55.23-.43.19-.86.39-1.28.61-.13.07-.26.14-.39.22-.46.26-.91.53-1.35.83-.06.04-.12.09-.18.13-3.8,2.64-6.97,6.91-9.31,13.41-1.67.06-3.19.31-3.16,1.02.03.71,1.01,1.33,2.23,1.85-.4,1.34-.77,2.74-1.11,4.25-.18.8-.35,1.59-.53,2.38-2.89.19-7.07,1.79-12.75,5.2-7.59,4.55-3.22,15.63-1.33,15.9,1.9.27,1.12-2.99,2.21-3.73,3.11-2.11,6.42-3.87,9.28-5.53-2.66,12.58-4.5,23.2-3.43,27.36-2.77.11-5.71.36-8.34.86-7.26,1.39.62,6.18,3.45,5.4,2.52-.7,6.43-1.74,9.68-2.84,3.16.93,7.68,1.61,12.59,1.96-2.14.86-4.44,1.88-6.76,3.1-6.49,3.4,7.27,4.19,11.31,2.06,2.02-1.07,4.48-3.12,6.03-4.97,1.01-.04,2.01-.09,2.99-.17,0,0,.02,0,.03,0,1-.08,1.98-.17,2.93-.28.02,0,.05,0,.07,0,.94-.11,1.85-.25,2.72-.4.03,0,.06,0,.08-.01.89-.16,1.74-.34,2.54-.54.77-.19,1.51-.4,2.22-.63.92-.29,1.77-.61,2.58-.94,1.69-.68,3.18-1.43,4.44-2.22.93-.58,1.75-1.18,2.46-1.77.41-.34.78-.68,1.12-1.02,2.31-2.27,3.04-4.32,2.55-5-.74-1.04-4.23-.8-5.93-.61-.57.06-.93.12-.93.12,0,0-.27-1.81-.65-4.69-.06-.48-.13-.99-.2-1.52-.4-3.03-.89-6.91-1.35-10.98,2.96,1.25,6.15,2.59,9.23,4.19,1.36.71.9,4.61,3.07,4.03,2.17-.57,5.75-14.03-3.68-18.29Z"/><path class="cls-7" d="M459.06,244.94c-1.58-3.55-6.99-3.33-17.4,2.92-7.59,4.55-3.22,15.63-1.33,15.9,1.9.27,1.12-2.99,2.21-3.73,8.75-5.93,19.16-9.14,16.52-15.09Z"/><path class="cls-2" d="M459.24,246.67c-1.58-3.55-6.99-3.33-17.4,2.92-7.59,4.55-3.22,15.63-1.33,15.9,1.9.27,1.12-2.99,2.21-3.73,8.75-5.93,19.16-9.14,16.52-15.09Z"/><path class="cls-1" d="M458.76,281.96s-10.82-.76-18.7.75c-7.26,1.39.62,6.18,3.45,5.4,5.21-1.45,16.38-4.35,15.25-6.15Z"/><path class="cls-1" d="M476.95,283.69s-8.86,1.88-17.94,6.64c-6.49,3.4,7.27,4.19,11.31,2.06,4.04-2.13,9.8-8.19,6.63-8.7Z"/><path class="cls-9" d="M481.28,216.26c-12.21-.88-21.99,4.28-26.35,24.01-4.36,19.73-8.66,38.84-6.07,42.75,2.59,3.91,26.49,6.11,38.84,2.99,12.35-3.11,16.37-10.18,15.38-11.57-.99-1.39-6.86-.49-6.86-.49,0,0-1.89-12.9-2.95-24.47-1.49-16.15-3.2-32.59-11.99-33.22Z"/><path class="cls-7" d="M487.7,286.01c12.35-3.11,16.37-10.18,15.38-11.57-.99-1.39-6.86-.49-6.86-.49,0,0-1.89-12.9-2.95-24.47-1.49-16.15-3.19-32.59-11.99-33.22-11.12-.8-20.21,3.45-25.05,19.13,1.15,2.74,2.93,4.66,5.71,4.6,9.41-.21,22.03-16.09,24.9-6.1,1.52,5.29-7.46.78-10.56,11.17-2.34,7.85-2.23,26.52-.05,42.36,4.22-.15,8.24-.6,11.47-1.41Z"/><path class="cls-2" d="M485.19,237c-8.37-.6-15.09,2.93-18.08,16.47-2.99,13.54-5.94,26.65-4.17,29.33,1.78,2.68,18.18,4.19,26.65,2.05,8.47-2.14,11.23-6.99,10.55-7.94s-4.71-.34-4.71-.34c0,0-1.3-8.85-2.03-16.79-1.02-11.08-2.19-22.36-8.22-22.79Z"/><line class="cls-5" x1="477.06" y1="217.43" x2="476.49" y2="211.26"/><path class="cls-6" d="M482.03,245.64s-1.03,1.95,0,4.37,6.84,5.43,12.15,7.7l-.29-2.35-11.85-9.72Z"/><path class="cls-7" d="M482.03,245.64c1.36-4.34,7.67-4.81,20.61,1.05,9.43,4.27,5.85,17.72,3.68,18.29-2.17.57-1.71-3.32-3.07-4.03-10.97-5.72-23.49-8.04-21.21-15.31Z"/><path class="cls-2" d="M480.67,246.43c1.36-4.34,7.67-4.81,20.61,1.05,9.43,4.27,5.85,17.72,3.68,18.29-2.17.57-1.71-3.32-3.07-4.03-10.97-5.72-23.49-8.04-21.21-15.31Z"/><line class="cls-5" x1="479.98" y1="216.98" x2="480.61" y2="212.86"/><path class="cls-1" d="M461.24,233.27s-7.51-.66-7.44.9,4.69,2.71,6.5,3.21,3.63-3.76.94-4.1Z"/><line class="cls-3" x1="461.7" y1="229.16" x2="461.31" y2="231.36"/><line class="cls-3" x1="467.6" y1="229.99" x2="467.01" y2="232.3"/></g></g></svg>