<?xml version="1.0" encoding="UTF-8"?><svg xmlns="http://www.w3.org/2000/svg" xmlns:xlink="http://www.w3.org/1999/xlink" viewBox="0 0 580 440.8"><defs><style>.cls-1{fill:#ffcb57;}.cls-2{stroke:#f2f0ec;}.cls-2,.cls-3,.cls-4{fill:none;}.cls-2,.cls-4{stroke-linecap:round;stroke-linejoin:round;}.cls-5{fill:#1d1061;}.cls-6{isolation:isolate;}.cls-7{fill:url(#_40_10_ppp);mix-blend-mode:overlay;opacity:.25;}.cls-4{stroke:#ffac5a;}.cls-8{fill:#6a90c6;}</style><pattern id="_40_10_ppp" x="0" y="0" width="10" height="10" patternTransform="translate(1000 365.4)" patternUnits="userSpaceOnUse" viewBox="0 0 10 10"><rect class="cls-3" width="10" height="10"/><circle class="cls-5" cx="8.95" cy="8.95" r="1.05"/><circle class="cls-5" cx="3.68" cy="8.95" r="1.05"/><path class="cls-5" d="M8.95,4.74c.58,0,1.05-.47,1.05-1.05s-.47-1.05-1.05-1.05-1.05.47-1.05,1.05.47,1.05,1.05,1.05Z"/><path class="cls-5" d="M3.68,4.74c.58,0,1.05-.47,1.05-1.05s-.47-1.05-1.05-1.05-1.05.47-1.05,1.05.47,1.05,1.05,1.05Z"/><path class="cls-5" d="M1.05,7.37c.58,0,1.05-.47,1.05-1.05s-.47-1.05-1.05-1.05S0,5.73,0,6.32s.47,1.05,1.05,1.05Z"/><circle class="cls-5" cx="6.32" cy="6.32" r="1.05"/><path class="cls-5" d="M1.05,2.11c.58,0,1.05-.47,1.05-1.05S1.63,0,1.05,0,0,.47,0,1.05s.47,1.05,1.05,1.05Z"/><circle class="cls-5" cx="6.32" cy="1.05" r="1.05"/></pattern></defs><g class="cls-6"><g id="ZONE_1_B"><ellipse class="cls-8" cx="72.57" cy="417.49" rx="12.02" ry="1.92"/><circle class="cls-5" cx="71.96" cy="405.02" r="14.63"/><circle class="cls-1" cx="73.31" cy="403.82" r="14.63"/><circle class="cls-7" cx="75.89" cy="405.46" r="11.11"/><path class="cls-2" d="M82.69,393.86c.95,4.12-14.74.61-14.42,9.96.32,9.35,14.3,7.01,14.42,9.06"/><line class="cls-4" x1="75.89" y1="388.19" x2="75.49" y2="390.44"/><line class="cls-4" x1="72.66" y1="388.68" x2="72.66" y2="389.95"/><line class="cls-4" x1="57.78" y1="402.3" x2="59.68" y2="402.3"/><line class="cls-4" x1="58.06" y1="403.82" x2="59.39" y2="403.82"/><line class="cls-4" x1="63.47" y1="415.56" x2="64.38" y2="414.72"/><line class="cls-4" x1="77.57" y1="406.02" x2="78.34" y2="406.37"/><line class="cls-4" x1="83.26" y1="399.98" x2="84.59" y2="399.98"/><line class="cls-4" x1="82.73" y1="399.14" x2="83.61" y2="398.72"/></g></g></svg>