<?xml version="1.0" encoding="UTF-8"?><svg xmlns="http://www.w3.org/2000/svg" xmlns:xlink="http://www.w3.org/1999/xlink" viewBox="0 0 580 440.8"><defs><style>.cls-1{fill:#ffcb57;}.cls-2{fill:#1d1061;}.cls-3,.cls-4{fill:none;}.cls-5{fill:#5cc6a0;}.cls-6{fill:#ffdf96;}.cls-7{isolation:isolate;}.cls-8{fill:#f2f0ec;}.cls-4{stroke:#1d1061;stroke-linecap:round;stroke-linejoin:round;stroke-width:2px;}.cls-9{fill:url(#_40_10_ppp_3);}.cls-9,.cls-10{mix-blend-mode:multiply;opacity:.25;}.cls-10{fill:url(#_40_10_ppp);}.cls-11{clip-path:url(#clippath);}.cls-12{fill:url(#Dégradé_sans_nom_34);}</style><clipPath id="clippath"><path class="cls-3" d="M399.32,237.95c0-2.44,1.55-4.63,3.87-5.39,12.24-4.03,24.23-6.87,35.78-8.77v-108.42h-118.18v216.57h78.54v-93.99Z"/></clipPath><linearGradient id="Dégradé_sans_nom_34" x1="379.22" y1="216.76" x2="379.22" y2="121.89" gradientUnits="userSpaceOnUse"><stop offset="0" stop-color="#ffffb6" stop-opacity=".5"/><stop offset="1" stop-color="#ffffb6" stop-opacity="0"/></linearGradient><pattern id="_40_10_ppp_3" x="0" y="0" width="10" height="10" patternTransform="translate(-10 1735.38)" patternUnits="userSpaceOnUse" viewBox="0 0 10 10"><rect class="cls-3" width="10" height="10"/><circle class="cls-1" cx="8.95" cy="8.95" r="1.05"/><circle class="cls-1" cx="3.68" cy="8.95" r="1.05"/><path class="cls-1" d="M8.95,4.74c.58,0,1.05-.47,1.05-1.05s-.47-1.05-1.05-1.05-1.05.47-1.05,1.05.47,1.05,1.05,1.05Z"/><path class="cls-1" d="M3.68,4.74c.58,0,1.05-.47,1.05-1.05s-.47-1.05-1.05-1.05-1.05.47-1.05,1.05.47,1.05,1.05,1.05Z"/><path class="cls-1" d="M1.05,7.37c.58,0,1.05-.47,1.05-1.05s-.47-1.05-1.05-1.05S0,5.73,0,6.32s.47,1.05,1.05,1.05Z"/><circle class="cls-1" cx="6.32" cy="6.32" r="1.05"/><path class="cls-1" d="M1.05,2.11c.58,0,1.05-.47,1.05-1.05S1.63,0,1.05,0,0,.47,0,1.05s.47,1.05,1.05,1.05Z"/><circle class="cls-1" cx="6.32" cy="1.05" r="1.05"/></pattern><pattern id="_40_10_ppp" x="0" y="0" width="10" height="10" patternTransform="translate(0 1735.38)" patternUnits="userSpaceOnUse" viewBox="0 0 10 10"><rect class="cls-3" width="10" height="10"/><circle class="cls-2" cx="8.95" cy="8.95" r="1.05"/><circle class="cls-2" cx="3.68" cy="8.95" r="1.05"/><path class="cls-2" d="M8.95,4.74c.58,0,1.05-.47,1.05-1.05s-.47-1.05-1.05-1.05-1.05.47-1.05,1.05.47,1.05,1.05,1.05Z"/><path class="cls-2" d="M3.68,4.74c.58,0,1.05-.47,1.05-1.05s-.47-1.05-1.05-1.05-1.05.47-1.05,1.05.47,1.05,1.05,1.05Z"/><path class="cls-2" d="M1.05,7.37c.58,0,1.05-.47,1.05-1.05s-.47-1.05-1.05-1.05S0,5.73,0,6.32s.47,1.05,1.05,1.05Z"/><circle class="cls-2" cx="6.32" cy="6.32" r="1.05"/><path class="cls-2" d="M1.05,2.11c.58,0,1.05-.47,1.05-1.05S1.63,0,1.05,0,0,.47,0,1.05s.47,1.05,1.05,1.05Z"/><circle class="cls-2" cx="6.32" cy="1.05" r="1.05"/></pattern></defs><g class="cls-7"><g id="ZONE_3_B"><g class="cls-11"><path class="cls-12" d="M409.96,144.45l-30.31,71.88h-6.21l-18.67-47.8c9.56-4.78,26.71-12.82,51-22.2-29.33,2.97-46.89,8.05-55.34,11.09l-4.56-11.66c38.68-8.52,64.08-1.3,64.08-1.3ZM381.24,138.68s15.73-2.02,29.73-1.01l1.59-5.2s-21.74-1.88-31.32,6.21Z"/><path class="cls-2" d="M389.81,257.62l-3.23-14.03h-.77l-6.68-29.08h-9.24l-9.21,29.08h-.66l-4.35,13.72c-.81,2.57,1.1,5.19,3.8,5.19h26.45c2.56,0,4.46-2.38,3.88-4.88Z"/><path class="cls-9" d="M411.6,146.09l-30.31,71.88h-6.21l-18.67-47.8c9.56-4.78,26.71-12.82,51-22.2-29.33,2.97-46.89,8.05-55.34,11.09l-4.56-11.66c38.68-8.52,64.08-1.3,64.08-1.3ZM382.88,140.31s15.73-2.02,29.73-1.01l1.59-5.2s-21.74-1.88-31.32,6.21Z"/><path class="cls-6" d="M371.86,213.73h9.24l9.63,41.9c.54,2.34-1.24,4.58-3.64,4.58h-24.84c-2.53,0-4.33-2.46-3.57-4.87l13.18-41.61Z"/><path class="cls-5" d="M357.64,256.53c-.81,2.57,1.1,5.19,3.8,5.19h26.45c2.56,0,4.46-2.38,3.88-4.88l-3.23-14.03h-26.56l-4.35,13.72Z"/><path class="cls-4" d="M384.7,258.3h2.9c1.51,0,2.74,1.22,2.74,2.74h0c0,1.51-1.22,2.74-2.74,2.74h-7.93c-1.9,0-3.44,1.54-3.44,3.44v27.18c0,4.58,1.82,8.96,5.05,12.2l10.63,10.63c3.24,3.24,7.62,5.05,12.2,5.05h0"/><circle class="cls-8" cx="376.23" cy="287.01" r="5.64"/><circle class="cls-10" cx="377.26" cy="287.94" r="5.05"/></g></g></g></svg>