<?xml version="1.0" encoding="UTF-8"?><svg xmlns="http://www.w3.org/2000/svg" xmlns:xlink="http://www.w3.org/1999/xlink" viewBox="0 0 580 440.8"><defs><style>.cls-1{fill:url(#_40_10_ppp_3);}.cls-2{fill:#ffcb57;}.cls-3{fill:#1d1061;}.cls-4,.cls-5{mix-blend-mode:multiply;opacity:.25;}.cls-6,.cls-7{fill:none;}.cls-8{fill:#ffdf96;}.cls-9{isolation:isolate;}.cls-10{fill:#f2f0ec;}.cls-7{stroke:#1d1061;stroke-linecap:round;stroke-linejoin:round;stroke-width:2px;}.cls-5{fill:url(#_40_10_ppp);}.cls-11{fill:url(#Dégradé_sans_nom_34-2);}.cls-12{clip-path:url(#clippath);}.cls-13{fill:url(#Dégradé_sans_nom_34);}.cls-14{fill:#6a90c6;}</style><clipPath id="clippath"><path class="cls-6" d="M399.32,237.95c0-2.44,1.55-4.63,3.87-5.39,12.24-4.03,24.23-6.87,35.78-8.77v-108.42h-118.18v216.57h78.54v-93.99Z"/></clipPath><linearGradient id="Dégradé_sans_nom_34" x1="369.95" y1="218.89" x2="369.95" y2="254.62" gradientUnits="userSpaceOnUse"><stop offset="0" stop-color="#ffffb6" stop-opacity=".5"/><stop offset="1" stop-color="#ffffb6" stop-opacity="0"/></linearGradient><linearGradient id="Dégradé_sans_nom_34-2" x1="369.95" y1="200.25" x2="369.95" y2="161.29" xlink:href="#Dégradé_sans_nom_34"/><pattern id="_40_10_ppp_3" x="0" y="0" width="10" height="10" patternTransform="translate(1250 1735.38)" patternUnits="userSpaceOnUse" viewBox="0 0 10 10"><rect class="cls-6" width="10" height="10"/><circle class="cls-2" cx="8.95" cy="8.95" r="1.05"/><circle class="cls-2" cx="3.68" cy="8.95" r="1.05"/><path class="cls-2" d="M8.95,4.74c.58,0,1.05-.47,1.05-1.05s-.47-1.05-1.05-1.05-1.05.47-1.05,1.05.47,1.05,1.05,1.05Z"/><path class="cls-2" d="M3.68,4.74c.58,0,1.05-.47,1.05-1.05s-.47-1.05-1.05-1.05-1.05.47-1.05,1.05.47,1.05,1.05,1.05Z"/><path class="cls-2" d="M1.05,7.37c.58,0,1.05-.47,1.05-1.05s-.47-1.05-1.05-1.05S0,5.73,0,6.32s.47,1.05,1.05,1.05Z"/><circle class="cls-2" cx="6.32" cy="6.32" r="1.05"/><path class="cls-2" d="M1.05,2.11c.58,0,1.05-.47,1.05-1.05S1.63,0,1.05,0,0,.47,0,1.05s.47,1.05,1.05,1.05Z"/><circle class="cls-2" cx="6.32" cy="1.05" r="1.05"/></pattern><pattern id="_40_10_ppp" x="0" y="0" width="10" height="10" patternTransform="translate(1230 1735.38)" patternUnits="userSpaceOnUse" viewBox="0 0 10 10"><rect class="cls-6" width="10" height="10"/><circle class="cls-3" cx="8.95" cy="8.95" r="1.05"/><circle class="cls-3" cx="3.68" cy="8.95" r="1.05"/><path class="cls-3" d="M8.95,4.74c.58,0,1.05-.47,1.05-1.05s-.47-1.05-1.05-1.05-1.05.47-1.05,1.05.47,1.05,1.05,1.05Z"/><path class="cls-3" d="M3.68,4.74c.58,0,1.05-.47,1.05-1.05s-.47-1.05-1.05-1.05-1.05.47-1.05,1.05.47,1.05,1.05,1.05Z"/><path class="cls-3" d="M1.05,7.37c.58,0,1.05-.47,1.05-1.05s-.47-1.05-1.05-1.05S0,5.73,0,6.32s.47,1.05,1.05,1.05Z"/><circle class="cls-3" cx="6.32" cy="6.32" r="1.05"/><path class="cls-3" d="M1.05,2.11c.58,0,1.05-.47,1.05-1.05S1.63,0,1.05,0,0,.47,0,1.05s.47,1.05,1.05,1.05Z"/><circle class="cls-3" cx="6.32" cy="1.05" r="1.05"/></pattern></defs><g class="cls-9"><g id="ZONE_3_B"><g class="cls-12"><path class="cls-3" d="M399.86,234.18l-20.12-35.73h-23.76l-20.12,35.73h17.42c-3.47,3.63-5.62,8.54-5.62,13.96s2.27,10.65,5.94,14.31h28.53c3.67-3.66,5.94-8.72,5.94-14.31s-2.15-10.33-5.62-13.96h17.42Z"/><path class="cls-8" d="M355.68,261.72h28.53c3.67-3.66,5.94-8.72,5.94-14.31,0-11.16-9.05-20.21-20.21-20.21s-20.21,9.05-20.21,20.21c0,5.59,2.27,10.65,5.94,14.31Z"/><polygon class="cls-13" points="420.16 256.35 319.74 256.35 351.3 220.62 388.59 220.62 420.16 256.35"/><polygon class="cls-11" points="404.03 163.63 335.87 163.63 360.19 199.36 379.7 199.36 404.03 163.63"/><g class="cls-4"><polygon class="cls-1" points="423.51 258.07 323.09 258.07 354.66 222.34 391.94 222.34 423.51 258.07"/><polygon class="cls-1" points="407.38 165.35 339.22 165.35 363.54 201.07 383.05 201.07 407.38 165.35"/></g><polygon class="cls-14" points="401.94 233.45 337.95 233.45 358.07 197.72 381.83 197.72 401.94 233.45"/><path class="cls-7" d="M384.61,259.38h2.9c1.51,0,2.74,1.22,2.74,2.74h0c0,1.51-1.22,2.74-2.74,2.74h-7.93c-1.9,0-3.44,1.54-3.44,3.44v27.18c0,4.58,1.82,8.96,5.05,12.2l10.63,10.63c3.24,3.24,7.62,5.05,12.2,5.05h0"/><circle class="cls-10" cx="376.14" cy="288.09" r="5.64"/><circle class="cls-5" cx="377.17" cy="289.02" r="5.05"/></g></g></g></svg>