<?xml version="1.0" encoding="UTF-8"?><svg xmlns="http://www.w3.org/2000/svg" xmlns:xlink="http://www.w3.org/1999/xlink" viewBox="0 0 580 440.8"><defs><style>.cls-1{fill:#ffcb57;}.cls-2{fill:#1d1061;}.cls-3{fill:none;}.cls-4{fill:#5cc6a0;}.cls-5{isolation:isolate;}.cls-6{fill:url(#_40_10_ppp_3);mix-blend-mode:multiply;opacity:.5;}.cls-7{fill:#a5a5a5;}.cls-8{fill:#fdfdfd;}</style><pattern id="_40_10_ppp_3" x="0" y="0" width="10" height="10" patternTransform="translate(580 2255.37)" patternUnits="userSpaceOnUse" viewBox="0 0 10 10"><rect class="cls-3" width="10" height="10"/><circle class="cls-1" cx="8.95" cy="8.95" r="1.05"/><circle class="cls-1" cx="3.68" cy="8.95" r="1.05"/><path class="cls-1" d="M8.95,4.74c.58,0,1.05-.47,1.05-1.05s-.47-1.05-1.05-1.05-1.05.47-1.05,1.05.47,1.05,1.05,1.05Z"/><path class="cls-1" d="M3.68,4.74c.58,0,1.05-.47,1.05-1.05s-.47-1.05-1.05-1.05-1.05.47-1.05,1.05.47,1.05,1.05,1.05Z"/><path class="cls-1" d="M1.05,7.37c.58,0,1.05-.47,1.05-1.05s-.47-1.05-1.05-1.05S0,5.73,0,6.32s.47,1.05,1.05,1.05Z"/><circle class="cls-1" cx="6.32" cy="6.32" r="1.05"/><path class="cls-1" d="M1.05,2.11c.58,0,1.05-.47,1.05-1.05S1.63,0,1.05,0,0,.47,0,1.05s.47,1.05,1.05,1.05Z"/><circle class="cls-1" cx="6.32" cy="1.05" r="1.05"/></pattern></defs><g class="cls-5"><g id="ZONE_4_C"><path class="cls-2" d="M239.25,326.78c0-1.67-.73-3.16-1.87-4.21,1.67-3.81,4.04-9.06-2.27-11.5-1.63-.76-3.94-1.31-7.16-1.53-9.23-.63-15.21,2.17-17.58,10.45-.34,1.18-.75,2.55-1.22,4.05-.28,0-.54-.02-.81-.02-.77-2.26-2.89-3.9-5.41-3.9-3.17,0-5.74,2.57-5.74,5.74s2.57,5.74,5.74,5.74c1.85,0,3.48-.89,4.53-2.25-3.4,10.47-8.26,24.73-11.73,36.19-.79-2.22-2.89-3.82-5.39-3.82-3.17,0-5.74,2.57-5.74,5.74s2.57,5.74,5.74,5.74c1.33,0,2.54-.47,3.51-1.23-1.18,4.24-2.01,7.76-2.27,10.04-.76,6.59.31,9.83,4.82,11.6,1.91.88,4.51,1.44,7.99,1.85,7.55.87,13.73-1.22,15.31-10.57.41-2.44,1.33-6.31,2.54-10.92,2.53-.6,4.42-2.86,4.42-5.58,0-1.63-.69-3.1-1.78-4.14,3.14-11.22,6.94-23.9,9.31-31.79,2.85-.34,5.06-2.74,5.06-5.67Z"/><path class="cls-2" d="M230.45,309.24c-9.23-.63-15.21,2.17-17.58,10.45-3.95,13.76-17.56,51.33-18.8,62.02-1.07,9.27,1.44,11.92,12.13,13.15,7.55.87,13.73-1.22,15.31-10.57,1.99-11.78,15.87-56.81,16.76-59.93,1.23-4.32,8.84-13.98-7.81-15.12Z"/><path class="cls-4" d="M229.76,308.95c-9.23-.63-15.21,2.17-17.58,10.45-3.95,13.76-17.56,51.33-18.8,62.02-1.07,9.27,1.44,11.92,12.13,13.15,7.55.87,13.73-1.22,15.31-10.57,1.99-11.78,15.87-56.81,16.76-59.93,1.23-4.32,8.84-13.98-7.81-15.12Z"/><path class="cls-7" d="M197.14,367.8s4.52,1.25,4.91,4.23l11.45.58,1.64-4.23-17.99-.58Z"/><circle class="cls-1" cx="192.14" cy="366.86" r="5.74"/><circle class="cls-6" cx="193.52" cy="367.15" r="4.92"/><path class="cls-8" d="M193.09,364.89c6.77.2,29.63.91,29.63.91l-.96,4.12-28.78-.89c-1.23-.04-2.15-1.13-1.99-2.35h0c.14-1.05,1.05-1.83,2.11-1.8Z"/><circle class="cls-1" cx="222.72" cy="367.8" r="5.74"/><circle class="cls-6" cx="224.65" cy="368.34" r="4.92"/><path class="cls-7" d="M209.73,326.2s4.52,1.25,4.91,4.23l11.45.58,1.64-4.23-17.99-.58Z"/><circle class="cls-1" cx="204.73" cy="325.26" r="5.74"/><circle class="cls-6" cx="206.11" cy="325.55" r="4.92"/><path class="cls-8" d="M205.69,323.29c6.77.2,29.63.91,29.63.91l-.96,4.12-28.78-.89c-1.23-.04-2.15-1.13-1.99-2.35h0c.14-1.05,1.05-1.83,2.11-1.8Z"/><circle class="cls-1" cx="235.31" cy="326.2" r="5.74"/><circle class="cls-6" cx="237.24" cy="326.74" r="4.92"/></g></g></svg>