<?xml version="1.0" encoding="UTF-8"?><svg xmlns="http://www.w3.org/2000/svg" xmlns:xlink="http://www.w3.org/1999/xlink" viewBox="0 0 580 440.8"><defs><style>.cls-1{fill:#ffcb57;}.cls-2{fill:#1d1061;}.cls-3,.cls-4{fill:none;}.cls-5{fill:#5cc6a0;}.cls-6{isolation:isolate;}.cls-4{stroke:#1d1061;stroke-linecap:round;stroke-linejoin:round;}.cls-7{fill:#ff7461;}.cls-8{fill:url(#_40_10_ppp);}.cls-9{mix-blend-mode:multiply;opacity:.05;}.cls-10{fill:#6a90c6;}</style><pattern id="_40_10_ppp" x="0" y="0" width="10" height="10" patternTransform="translate(1230 3215.35)" patternUnits="userSpaceOnUse" viewBox="0 0 10 10"><rect class="cls-3" width="10" height="10"/><circle class="cls-2" cx="8.95" cy="8.95" r="1.05"/><circle class="cls-2" cx="3.68" cy="8.95" r="1.05"/><path class="cls-2" d="M8.95,4.74c.58,0,1.05-.47,1.05-1.05s-.47-1.05-1.05-1.05-1.05.47-1.05,1.05.47,1.05,1.05,1.05Z"/><path class="cls-2" d="M3.68,4.74c.58,0,1.05-.47,1.05-1.05s-.47-1.05-1.05-1.05-1.05.47-1.05,1.05.47,1.05,1.05,1.05Z"/><path class="cls-2" d="M1.05,7.37c.58,0,1.05-.47,1.05-1.05s-.47-1.05-1.05-1.05S0,5.73,0,6.32s.47,1.05,1.05,1.05Z"/><circle class="cls-2" cx="6.32" cy="6.32" r="1.05"/><path class="cls-2" d="M1.05,2.11c.58,0,1.05-.47,1.05-1.05S1.63,0,1.05,0,0,.47,0,1.05s.47,1.05,1.05,1.05Z"/><circle class="cls-2" cx="6.32" cy="1.05" r="1.05"/></pattern></defs><g class="cls-6"><g id="ZONE_4_A"><path class="cls-2" d="M106.33,49.17l-23.98,26.06-4.05-38.37c7.05,4.04,16.54,8.65,28.03,12.31ZM113.49,51.25l15.15,35.12,19.69-30.61c-12.79,0-24.49-1.8-34.84-4.5ZM159.71,55.27l16.77,28.79,10.2-33.8c-9.36,2.69-18.37,4.28-26.97,5.01ZM195.39,47.47l20.7,21.87,4.01-33.02c-8.44,4.63-16.69,8.31-24.72,11.15ZM67.59,66.16c0-1.88-1.42-3.4-3.17-3.4s-3.17,1.52-3.17,3.4,1.42,3.4,3.17,3.4,3.17-1.52,3.17-3.4ZM238.19,66.16c0-1.88-1.42-3.4-3.17-3.4s-3.17,1.52-3.17,3.4,1.42,3.4,3.17,3.4,3.17-1.52,3.17-3.4Z"/><path class="cls-4" d="M65.82,65.63V27.97s75.44,63.81,170.6,0v37.65"/><path class="cls-7" d="M79.7,36.33l4.05,38.37,23.98-26.06c-11.49-3.66-20.98-8.27-28.03-12.31Z"/><path class="cls-10" d="M114.89,50.71l15.15,35.12,19.69-30.61c-12.79,0-24.49-1.8-34.84-4.5Z"/><path class="cls-1" d="M161.11,54.73l16.77,28.79,10.2-33.8c-9.36,2.69-18.37,4.28-26.97,5.01Z"/><path class="cls-5" d="M196.79,46.94l20.7,21.87,4.01-33.02c-8.44,4.63-16.69,8.31-24.72,11.15Z"/><g class="cls-9"><path class="cls-8" d="M81.54,37.61l4.05,38.37,23.98-26.06c-11.49-3.66-20.98-8.27-28.03-12.31Z"/><path class="cls-8" d="M116.72,52l15.15,35.12,19.69-30.61c-12.79,0-24.49-1.8-34.84-4.5Z"/><path class="cls-8" d="M162.95,56.02l16.77,28.79,10.2-33.8c-9.36,2.69-18.37,4.28-26.97,5.01Z"/><path class="cls-8" d="M198.63,48.23l20.7,21.87,4.01-33.02c-8.44,4.63-16.69,8.31-24.72,11.15Z"/></g><ellipse class="cls-1" cx="65.82" cy="65.63" rx="3.17" ry="3.4"/><ellipse class="cls-1" cx="236.42" cy="65.63" rx="3.17" ry="3.4"/></g></g></svg>