<?xml version="1.0" encoding="UTF-8"?><svg xmlns="http://www.w3.org/2000/svg" xmlns:xlink="http://www.w3.org/1999/xlink" viewBox="0 0 580 440.8"><defs><style>.cls-1{fill:#ffcb57;}.cls-2{fill:#1d1061;}.cls-3{fill:none;}.cls-4{fill:#65447a;}.cls-5{isolation:isolate;}.cls-6{fill:url(#_40_10_ppp_3);opacity:.5;}.cls-6,.cls-7{mix-blend-mode:multiply;}.cls-8{fill:#f2f0ec;}.cls-7{fill:url(#_40_10_ppp);opacity:.25;}</style><pattern id="_40_10_ppp_3" x="0" y="0" width="10" height="10" patternTransform="translate(-50 2255.37)" patternUnits="userSpaceOnUse" viewBox="0 0 10 10"><rect class="cls-3" width="10" height="10"/><circle class="cls-1" cx="8.95" cy="8.95" r="1.05"/><circle class="cls-1" cx="3.68" cy="8.95" r="1.05"/><path class="cls-1" d="M8.95,4.74c.58,0,1.05-.47,1.05-1.05s-.47-1.05-1.05-1.05-1.05.47-1.05,1.05.47,1.05,1.05,1.05Z"/><path class="cls-1" d="M3.68,4.74c.58,0,1.05-.47,1.05-1.05s-.47-1.05-1.05-1.05-1.05.47-1.05,1.05.47,1.05,1.05,1.05Z"/><path class="cls-1" d="M1.05,7.37c.58,0,1.05-.47,1.05-1.05s-.47-1.05-1.05-1.05S0,5.73,0,6.32s.47,1.05,1.05,1.05Z"/><circle class="cls-1" cx="6.32" cy="6.32" r="1.05"/><path class="cls-1" d="M1.05,2.11c.58,0,1.05-.47,1.05-1.05S1.63,0,1.05,0,0,.47,0,1.05s.47,1.05,1.05,1.05Z"/><circle class="cls-1" cx="6.32" cy="1.05" r="1.05"/></pattern><pattern id="_40_10_ppp" x="0" y="0" width="10" height="10" patternTransform="translate(-60 2255.37)" patternUnits="userSpaceOnUse" viewBox="0 0 10 10"><rect class="cls-3" width="10" height="10"/><circle class="cls-2" cx="8.95" cy="8.95" r="1.05"/><circle class="cls-2" cx="3.68" cy="8.95" r="1.05"/><path class="cls-2" d="M8.95,4.74c.58,0,1.05-.47,1.05-1.05s-.47-1.05-1.05-1.05-1.05.47-1.05,1.05.47,1.05,1.05,1.05Z"/><path class="cls-2" d="M3.68,4.74c.58,0,1.05-.47,1.05-1.05s-.47-1.05-1.05-1.05-1.05.47-1.05,1.05.47,1.05,1.05,1.05Z"/><path class="cls-2" d="M1.05,7.37c.58,0,1.05-.47,1.05-1.05s-.47-1.05-1.05-1.05S0,5.73,0,6.32s.47,1.05,1.05,1.05Z"/><circle class="cls-2" cx="6.32" cy="6.32" r="1.05"/><path class="cls-2" d="M1.05,2.11c.58,0,1.05-.47,1.05-1.05S1.63,0,1.05,0,0,.47,0,1.05s.47,1.05,1.05,1.05Z"/><circle class="cls-2" cx="6.32" cy="1.05" r="1.05"/></pattern></defs><g class="cls-5"><g id="ZONE_4_C"><path class="cls-2" d="M236.34,386.11c0,3.59-2.99,6.51-6.67,6.51s-6.66-2.91-6.65-6.51c0-3.59,2.99-6.51,6.67-6.51s6.66,2.91,6.65,6.51ZM169.44,379.72c-3.68,0-6.62,2.86-6.57,6.39.05,3.53,3.08,6.39,6.76,6.39s6.62-2.86,6.57-6.39c-.05-3.53-3.08-6.39-6.76-6.39ZM260.75,299.92l-14.59-1.26-.15,1.62-17.41-1.51.15-1.62-14.59-1.26c-1.27-.11-2.39.82-2.51,2.08l-.08.91c-.12,1.26.82,2.36,2.09,2.47l14.59,1.26.12-1.32,6.66.58-6.48,70.97c-5.15.88-9.58,4.56-11.48,9.39h-35.34c-1.96-4.06-5.88-6.99-10.54-7.55-.88-.11-1.65.59-1.65,1.47,0,.73.53,1.36,1.25,1.45,3.38.4,6.26,2.38,7.9,5.18-.4.35-.68.85-.73,1.4-.1,1.07.7,1.94,1.77,1.94h39.69c1.08,0,2.03-.87,2.13-1.94.09-.93-.51-1.71-1.37-1.9,1.9-3.93,5.97-6.72,10.46-6.72,1.35,0,2.61.26,3.75.72l.28-3.1c-.61-.18-1.24-.32-1.89-.42l6.44-70.53,6.55.57-.12,1.32,14.59,1.26c1.27.11,2.39-.82,2.51-2.08l.08-.91c.12-1.26-.82-2.36-2.09-2.47Z"/><ellipse class="cls-1" cx="230.67" cy="385.11" rx="6.66" ry="6.51" transform="translate(-12.22 7.59) rotate(-1.84)"/><ellipse class="cls-1" cx="170.54" cy="385.11" rx="6.38" ry="6.67" transform="translate(-237.71 488.7) rotate(-80.35)"/><ellipse class="cls-6" cx="171.25" cy="385.76" rx="5.42" ry="5.67" transform="translate(-237.75 489.95) rotate(-80.35)"/><ellipse class="cls-6" cx="230.92" cy="385.78" rx="5.67" ry="5.53" transform="translate(-12.24 7.6) rotate(-1.84)"/><polygon class="cls-8" points="240.42 299.13 236.19 299.13 229.37 373.82 233.6 373.82 240.42 299.13"/><path class="cls-4" d="M220.31,383.72c1.16-5.17,5.95-9.16,11.33-9.16,1.35,0,2.61.26,3.75.72l.28-3.1c-1.18-.35-2.44-.55-3.77-.55-7,0-13.25,5.3-14.57,12.1h2.97Z"/><path class="cls-4" d="M180.32,383.04h3.13c-1.57-4.98-5.94-8.72-11.26-9.37-.88-.11-1.65.59-1.65,1.47h0c0,.73.53,1.36,1.25,1.45,3.87.45,7.09,2.99,8.54,6.46Z"/><path class="cls-8" d="M220.42,385.11h-39.69c-1.08,0-1.87-.87-1.77-1.94h0c.1-1.07,1.05-1.94,2.13-1.94h39.69c1.08,0,1.87.87,1.77,1.94h0c-.1,1.07-1.05,1.94-2.13,1.94Z"/><polygon class="cls-8" points="246.96 301.81 229.29 300.28 229.52 297.76 247.2 299.29 246.96 301.81"/><path class="cls-4" d="M214.66,300.34l14.59,1.26.5-5.46-14.59-1.26c-1.27-.11-2.39.82-2.51,2.08l-.08.91c-.12,1.26.82,2.36,2.09,2.47Z"/><path class="cls-4" d="M261.25,304.38l-14.59-1.26.5-5.46,14.59,1.26c1.27.11,2.21,1.22,2.09,2.47l-.08.91c-.12,1.26-1.24,2.19-2.51,2.08Z"/><path class="cls-7" d="M215.17,301.19l14.59,1.26.5-5.46-14.59-1.26c-1.27-.11-2.39.82-2.51,2.08l-.08.91c-.12,1.26.82,2.36,2.09,2.47Z"/><path class="cls-7" d="M261.76,305.22l-14.59-1.26.5-5.46,14.59,1.26c1.27.11,2.21,1.22,2.09,2.47l-.08.91c-.12,1.26-1.24,2.19-2.51,2.08Z"/></g></g></svg>