<?xml version="1.0" encoding="UTF-8"?><svg xmlns="http://www.w3.org/2000/svg" xmlns:xlink="http://www.w3.org/1999/xlink" viewBox="0 0 580 440.8"><defs><style>.cls-1{fill:#ffcb57;}.cls-2{fill:#1d1061;}.cls-3{fill:#65447a;opacity:.5;}.cls-4,.cls-5{fill:none;}.cls-6{fill:#5cc6a0;}.cls-7{isolation:isolate;}.cls-5{stroke:#1d1061;stroke-linecap:round;stroke-linejoin:round;}.cls-8{fill:url(#_40_10_ppp);mix-blend-mode:multiply;opacity:.25;}</style><pattern id="_40_10_ppp" x="0" y="0" width="10" height="10" patternTransform="translate(-390 1245.39)" patternUnits="userSpaceOnUse" viewBox="0 0 10 10"><rect class="cls-4" width="10" height="10"/><circle class="cls-2" cx="8.95" cy="8.95" r="1.05"/><circle class="cls-2" cx="3.68" cy="8.95" r="1.05"/><path class="cls-2" d="M8.95,4.74c.58,0,1.05-.47,1.05-1.05s-.47-1.05-1.05-1.05-1.05.47-1.05,1.05.47,1.05,1.05,1.05Z"/><path class="cls-2" d="M3.68,4.74c.58,0,1.05-.47,1.05-1.05s-.47-1.05-1.05-1.05-1.05.47-1.05,1.05.47,1.05,1.05,1.05Z"/><path class="cls-2" d="M1.05,7.37c.58,0,1.05-.47,1.05-1.05s-.47-1.05-1.05-1.05S0,5.73,0,6.32s.47,1.05,1.05,1.05Z"/><circle class="cls-2" cx="6.32" cy="6.32" r="1.05"/><path class="cls-2" d="M1.05,2.11c.58,0,1.05-.47,1.05-1.05S1.63,0,1.05,0,0,.47,0,1.05s.47,1.05,1.05,1.05Z"/><circle class="cls-2" cx="6.32" cy="1.05" r="1.05"/></pattern></defs><g class="cls-7"><g id="ZONE_3_A"><path class="cls-2" d="M527.35,269.32c-.95.07-1.91.18-2.88.34-.45.07-.88.17-1.31.27.02.02.04.04.06.05-6.16,1.68-9.16,6.76-11.4,11.95-.01,0-.02,0-.04,0-1.15,2.61-2.1,5.27-3.13,7.57,0,0,.01.01.02.02-1.42,3.04-3.06,5.36-5.67,5.91-20.98,4.42-11.87-29.36-19.07-39.48-7.21-10.11-18.37-16.21-21.13-33.03h16.16s0,0,0,0h17.19c-1.65,4.51-2.86,14.24,1.81,21.6.02.04.05.07.07.11.3.46.61.92.96,1.37.12.15.26.3.38.45.23.28.45.56.71.82-.06.27-.15.52-.17.82-.87,8.81,2.4,15.88,10.89,17.25,8.5,1.37,11.98-.38,16.56.93,4.58,1.31,17,1.74,18.3-8.5.38-2.94-8.72-1.31-8.93-3.7s.26-14.49-9.32-16.02c-2.16-.35-4.08-.18-5.71.2-.11-.25-.24-.51-.33-.77-1.15-3.14-1.11-6.02-.8-8.84h0c.11-.96.25-1.9.38-2.85.04-.31.09-.61.13-.92.02-.13.04-.26.05-.39.43-3.2.66-6.41-.71-9.91-1.39-3.58-5.74-6.8-11.14-8.57,0,0,0,0,0,0-1.5-.49-3.08-.86-4.71-1.1,0,0,0,0,0,0h0c-8.84-1.3-18.9,1.48-23.72,12.23-.07.16-.14.32-.21.48-.13.3-.26.6-.38.91-2.3-3.47-6.09-8.24-11.2-11.47.01-.03.02-.06.03-.09-2.67-1.67-5.72-2.88-9.07-3.28-.27-.03-.53-.06-.8-.08-.31-.02-.62-.05-.94-.06-2.33-.09-4.81.21-7.44,1.06-15.99,5.17-15.43,18.67-12.8,26.66,0,.02.02.04.02.07.22.65.44,1.26.68,1.83.02.04.03.07.05.11.23.55.47,1.06.7,1.52.01.03.03.06.04.09.24.47.49.89.72,1.25,2.52,3.86,4.64,7.35,6.45,10.55.9,1.6,1.72,3.13,2.47,4.59.37.73.73,1.44,1.07,2.14,1.02,2.1,1.89,4.06,2.63,5.91.25.62.48,1.22.7,1.81,1.33,3.56,2.21,6.72,2.87,9.71.22,1,.42,1.97.59,2.94.18.96.34,1.92.5,2.87.08.48.15.95.23,1.42.76,4.75,1.45,9.53,3.14,15.38.99,3.41,2.51,7.64,4.96,11.75.24.41.5.82.76,1.23,3.69,5.71,9.29,11.01,17.87,13.33,1.23.33,2.51.6,3.87.81,1.35.2,2.77.34,4.25.4,2.23.09,4.6,0,7.14-.27.85-.09,1.68-.22,2.48-.38.22-.04.43-.1.65-.15.58-.13,1.15-.25,1.7-.41.22-.06.43-.14.65-.21.53-.17,1.07-.33,1.58-.53.19-.07.37-.16.56-.23.53-.21,1.05-.43,1.55-.67.15-.07.29-.15.43-.22.53-.27,1.05-.54,1.56-.84.1-.06.2-.13.31-.19.54-.32,1.06-.66,1.57-1.02.06-.04.12-.09.18-.13.54-.39,1.07-.79,1.58-1.2.03-.02.05-.04.08-.07.54-.45,1.06-.91,1.57-1.38h0c11.49-10.87,13.78-29.32,16.43-30.1,3.6-1.06,15.89,2.33,17.8-2.54,1.8-4.6-9.07-12.29-23.13-11.05Z"/><path class="cls-6" d="M523.99,237.48c-4.64-9.19,1.64-16.1-1.73-24.75-4.22-10.85-35.57-18.56-41.48,8.37h17.19c-2,5.46-3.37,18.56,5.55,25.84l20.47-9.46Z"/><line class="cls-5" x1="501.59" y1="201.67" x2="500.7" y2="204.04"/><line class="cls-5" x1="498.02" y1="202.31" x2="498.42" y2="204.04"/><path class="cls-1" d="M497.97,221.11c.78-4.58-7.84-6.04-12.49,0h12.49Z"/><path class="cls-2" d="M480.77,221.11h9.89c-2.34-2.6-5.27-5.32-7.34-7.17-1.08,2.06-1.95,4.43-2.56,7.17Z"/><path class="cls-3" d="M523.29,218.64c-5.75-.68-13.46,1.78-12.99,6.78.34,3.68,7.23,2.61,12.1,1.39.31-2.74.87-5.41.89-8.18Z"/><path class="cls-3" d="M506.4,203.07c-5.35,3.17-7.46,7.75-4.02,8.55,3.16.74,8.81-3.18,12.95-5.66-2.6-1.39-5.68-2.41-8.93-2.89Z"/><path class="cls-8" d="M524.43,219.62c-5.75-.68-13.46,1.78-12.99,6.78.34,3.68,7.23,2.61,12.1,1.39.31-2.74.87-5.41.89-8.18Z"/><path class="cls-8" d="M507.54,204.04c-5.35,3.17-7.46,7.75-4.02,8.55,3.16.74,8.81-3.18,12.95-5.66-2.6-1.39-5.68-2.41-8.93-2.89Z"/><path class="cls-5" d="M491.75,218.53s-.13,1.42.96,2"/><path class="cls-2" d="M523.2,235.65c-1.56-.02-4.31.32-7.4,2.44,0,0-9.77-3.21-16.9,3.07,1.08,2.12,2.57,4.11,4.61,5.79l20.47-9.46c-.31-.62-.57-1.23-.79-1.83Z"/><path class="cls-5" d="M542.36,262.95s6.28-.97,9.12,1.62"/><path class="cls-5" d="M553.05,269.2s.08-3.42-1.57-4.62c0,0,3.11-.85,5.52,1.27"/><path class="cls-6" d="M547.48,255.94c.38-2.94-8.72-1.31-8.93-3.7-.22-2.4.26-14.49-9.32-16.02-6.64-1.06-11.12,2.68-11.12,2.68,0,0-15.52-1.45-16.39,7.36s2.4,15.88,10.89,17.25c8.5,1.37,11.98-.38,16.56.93,4.58,1.31,17,1.74,18.3-8.5Z"/><line class="cls-5" x1="533.83" y1="236.03" x2="531.49" y2="239.03"/><line class="cls-5" x1="535.84" y1="238.59" x2="534.15" y2="239.71"/><line class="cls-5" x1="545.62" y1="257.49" x2="546.86" y2="255.86"/><line class="cls-5" x1="538.14" y1="258.55" x2="541.4" y2="259.02"/><line class="cls-5" x1="535.84" y1="249.44" x2="536.32" y2="252.22"/><line class="cls-5" x1="529.71" y1="254.14" x2="529.23" y2="252.22"/><path class="cls-6" d="M484.68,221.1s-11.87-24.86-32-18.35c-20.13,6.51-14.03,26.25-10.6,31.52,20.13,30.84,15.24,38.59,20.66,57.32,3.16,10.91,11.76,30.2,38.85,27.24,26.37-2.88,29.29-36.66,32.89-37.72s15.89,2.33,17.8-2.54c1.91-4.87-10.38-13.22-25.64-10.74-15.26,2.48-13.12,23.95-21.83,25.79-20.98,4.42-11.87-29.36-19.07-39.48s-18.37-16.21-21.13-33.03h20.07Z"/><line class="cls-5" x1="443.3" y1="206.63" x2="444.93" y2="208.87"/><line class="cls-5" x1="441.23" y1="209.3" x2="442.86" y2="210.55"/><line class="cls-5" x1="551.48" y1="272.76" x2="548.64" y2="274.89"/><line class="cls-5" x1="550.71" y1="276.79" x2="553.65" y2="276.79"/><path class="cls-1" d="M498.03,315.65c-15.74.06-22.6-5.61-28.54-17.51-5.93-11.91-2.83-21.48-8.98-42.28-4.8-16.25-15.68-24.13-18.86-29.64-1.7-2.95-2.49-6.44-2.87-9.05-1.26,7.01,1.41,14.22,3.29,17.1,20.13,30.84,15.24,38.59,20.66,57.32,3.16,10.91,11.76,30.2,38.85,27.24,6.99-.76,12.32-3.71,16.46-7.63-5.37,2.34-12.22,4.42-20.02,4.45Z"/><path class="cls-5" d="M464.64,219.95s0-5.04,3.45-6.77"/><path class="cls-3" d="M470.93,205.12c-4.89-3.05-10.96-4.67-18.07-2.37-.46.15-.9.31-1.33.48-.27,2.33,1.49,4.83,9.31,5.46,6.92.56,9.41-1.36,10.09-3.57Z"/><path class="cls-3" d="M464.98,223.4c-6.19.32-14.1,4-11.63,9.16,2.26,4.73,8.91.98,14.3-1.21-1.11-2.37-2.03-5-2.68-7.95Z"/><path class="cls-3" d="M479.63,246.97c-5.66,1.3-13.87,4.78-11.97,9.62,2.17,5.54,11.46.31,18.03-2.5-1.85-2.51-3.93-4.82-6.06-7.13Z"/><path class="cls-3" d="M490.35,281.45c-.41-2.49-.66-5.17-.88-7.85-5.86-.19-13.45,1.39-13.16,6.87.31,5.87,7.37,2.15,14.03.97Z"/><path class="cls-3" d="M502.05,294.05c-2.84.15-5-.55-6.67-1.88-3.56,3.08-7.76,10.04-1.81,11.78,5.69,1.67,7.77-5.85,8.48-9.9Z"/><path class="cls-3" d="M510.45,287.69c3.37,2.22,7.35,7.3,10.46,5.8,3.56-1.72,4.26-11.04-7.33-13.37-1.15,2.61-2.1,5.27-3.13,7.57Z"/><path class="cls-3" d="M531.64,267.41c-1.74,0-3.53.14-5.38.44-.45.07-.88.17-1.31.27,2.33,1.87,4.58,5.52,8.59,4.99,3.71-.49,1.19-3.71-1.91-5.7Z"/><path class="cls-8" d="M471.69,206.88c-4.89-3.05-10.96-4.67-18.07-2.37-.46.15-.9.31-1.33.48-.27,2.33,1.49,4.83,9.31,5.46,6.92.56,9.41-1.36,10.09-3.57Z"/><path class="cls-8" d="M465.92,224.65c-6.19.32-14.1,4-11.63,9.16,2.26,4.73,8.91.98,14.3-1.21-1.11-2.37-2.03-5-2.68-7.95Z"/><path class="cls-8" d="M480.2,248.21c-5.66,1.3-13.87,4.78-11.97,9.62,2.17,5.54,11.46.31,18.03-2.5-1.85-2.51-3.93-4.82-6.06-7.13Z"/><path class="cls-8" d="M491.29,282.7c-.41-2.49-.66-5.17-.88-7.85-5.86-.19-13.45,1.39-13.16,6.87.31,5.87,7.37,2.15,14.03.97Z"/><path class="cls-8" d="M502.99,295.72c-2.84.15-5-.55-6.67-1.88-3.56,3.08-7.76,10.04-1.81,11.78,5.69,1.67,7.77-5.85,8.48-9.9Z"/><path class="cls-8" d="M511.66,288.94c3.37,2.22,7.35,7.3,10.46,5.8,3.56-1.72,4.26-11.04-7.33-13.37-1.15,2.61-2.1,5.27-3.13,7.57Z"/><path class="cls-8" d="M532.95,269.14c-1.74,0-3.53.14-5.38.44-.45.07-.88.17-1.31.27,2.33,1.87,4.58,5.52,8.59,4.99,3.71-.49,1.19-3.71-1.91-5.7Z"/><path class="cls-5" d="M444.06,231.57s-1.05,1.5-.68,2.99"/><path class="cls-5" d="M450.83,240.21s-1.66.95-1.66,3"/><path class="cls-5" d="M457.38,251.5s-1.79.7-2.33,3.56"/><path class="cls-5" d="M461.86,267.2s-1.42.36-2.19,1.78"/><path class="cls-5" d="M464.32,283.49s-1.48-.48-2.46.6"/><path class="cls-5" d="M467.01,294.84s-.79.89-1.28,1.78"/><path class="cls-5" d="M473.4,306.89s-.82.89-.82,1.78"/><line class="cls-5" x1="462.14" y1="293.12" x2="463.81" y2="292.59"/><line class="cls-5" x1="461.34" y1="290.75" x2="462.98" y2="290.75"/></g></g></svg>