<?xml version="1.0" encoding="UTF-8"?><svg xmlns="http://www.w3.org/2000/svg" xmlns:xlink="http://www.w3.org/1999/xlink" viewBox="0 0 580 440.8"><defs><style>.cls-1{fill:#1d1061;}.cls-2{fill:none;}.cls-3{fill:#5cc6a0;}.cls-4{fill:#65447a;}.cls-5{isolation:isolate;}.cls-6{fill:url(#_40_10_ppp);mix-blend-mode:multiply;opacity:.25;}</style><pattern id="_40_10_ppp" x="0" y="0" width="10" height="10" patternTransform="translate(0 3215.35)" patternUnits="userSpaceOnUse" viewBox="0 0 10 10"><rect class="cls-2" width="10" height="10"/><circle class="cls-1" cx="8.95" cy="8.95" r="1.05"/><circle class="cls-1" cx="3.68" cy="8.95" r="1.05"/><path class="cls-1" d="M8.95,4.74c.58,0,1.05-.47,1.05-1.05s-.47-1.05-1.05-1.05-1.05.47-1.05,1.05.47,1.05,1.05,1.05Z"/><path class="cls-1" d="M3.68,4.74c.58,0,1.05-.47,1.05-1.05s-.47-1.05-1.05-1.05-1.05.47-1.05,1.05.47,1.05,1.05,1.05Z"/><path class="cls-1" d="M1.05,7.37c.58,0,1.05-.47,1.05-1.05s-.47-1.05-1.05-1.05S0,5.73,0,6.32s.47,1.05,1.05,1.05Z"/><circle class="cls-1" cx="6.32" cy="6.32" r="1.05"/><path class="cls-1" d="M1.05,2.11c.58,0,1.05-.47,1.05-1.05S1.63,0,1.05,0,0,.47,0,1.05s.47,1.05,1.05,1.05Z"/><circle class="cls-1" cx="6.32" cy="1.05" r="1.05"/></pattern></defs><g class="cls-5"><g id="ZONE_4_A"><polygon class="cls-1" points="68.63 71.92 61.98 93.74 68.53 106.06 73.73 91.59 69.67 72.29 78.16 53.98 65.25 29.34 61.98 55.79 68.63 71.92"/><polygon class="cls-1" points="68.05 119.67 68.53 106.06 61.98 116.2 68.05 119.67"/><path class="cls-1" d="M235.32,28.42c.01-.06.01-.1-.01-.1-.62,0-21.13,4.6-21.13,4.6l-1.21,11.52-12.34-1.35-4.96,5.98-22.46.29-3.92,9.21-15.4-8.96-7.35,5.67-10.81-10.24-21,10.92-7.05-12.36-4.21,2.88-5.46-9.16-10.9.14-15.84-17.02-6.01,8.9,8.01,11.1,12.99-.17,10.03,13.48,4.26-3.3-2.76,6.49,19.63,3.75-1.3-2.28,14.06,8.12,15.49-9.09,3.87,8.84,20.28-5.74,15.71,6.88,10.95-16.76,11.41,7.26,6.27-11.02,12.04-4.12s7.79-11.58,8.98-14l-8.33,28.9s11.38-3.9,11.85-3.91c.45,0-3.12-23.69-3.37-25.34Z"/><polygon class="cls-1" points="238.05 73.06 231.47 86.34 238.53 88.34 238.53 73.72 238.69 53.76 226.85 57.67 238.05 73.06"/><polygon class="cls-3" points="71.2 72.31 80.16 52.98 63.98 54.79 71.2 72.31"/><polygon class="cls-4" points="70.05 118.67 63.98 115.2 70.53 105.06 70.05 118.67"/><polygon class="cls-3" points="70.53 105.06 75.73 90.59 63.98 92.74 70.53 105.06"/><polygon class="cls-4" points="63.98 92.74 71.2 69.04 75.73 90.59 63.98 92.74"/><polygon class="cls-4" points="63.98 54.79 67.25 28.34 80.16 52.98 63.98 54.79"/><polygon class="cls-3" points="67.25 28.34 73.26 19.44 75.27 39.44 67.25 28.34"/><polygon class="cls-4" points="73.26 19.44 91.68 39.23 75.27 39.44 73.26 19.44"/><polygon class="cls-3" points="86.19 36.5 100 36.32 98.29 52.75 86.19 36.5"/><polygon class="cls-4" points="100 36.32 106.15 46.65 98.29 52.75 100 36.32"/><polygon class="cls-3" points="103.72 46.68 109.67 42.6 99.79 55.93 103.72 46.68"/><polygon class="cls-4" points="109.67 42.6 119.42 59.68 99.79 55.93 109.67 42.6"/><polygon class="cls-3" points="115.22 55.74 137.72 44.04 132.17 65.52 115.22 55.74"/><polygon class="cls-4" points="137.72 44.04 149.61 55.3 132.17 65.52 137.72 44.04"/><polygon class="cls-3" points="147.17 55.33 155.88 48.61 151.53 65.28 147.17 55.33"/><polygon class="cls-3" points="170.66 59.03 175.21 48.36 187.52 66.42 170.66 59.03"/><polygon class="cls-3" points="214.66 46.4 228.2 41.77 216.18 31.92 214.66 46.4"/><path class="cls-4" d="M228.2,41.77s9.72-14.45,9.11-14.45-21.13,4.59-21.13,4.59l12.02,9.85Z"/><path class="cls-3" d="M237.31,27.33s3.85,25.43,3.38,25.43-11.85,3.91-11.85,3.91l8.46-29.34Z"/><polygon class="cls-4" points="228.85 56.67 240.53 72.72 240.69 52.76 228.85 56.67"/><polygon class="cls-3" points="240.53 71.09 233.47 85.34 240.53 87.34 240.53 71.09"/><polygon class="cls-3" points="197.09 48.77 202.63 42.1 209.88 56.91 197.09 48.77"/><polygon class="cls-6" points="72.84 73.94 81.8 54.62 65.62 56.43 72.84 73.94"/><polygon class="cls-6" points="72.16 106.7 77.36 92.22 65.62 94.37 72.16 106.7"/><polygon class="cls-6" points="68.89 29.97 74.9 21.08 76.9 41.08 68.89 29.97"/><polygon class="cls-6" points="87.83 38.13 101.64 37.96 99.92 54.39 87.83 38.13"/><polygon class="cls-6" points="103.94 47.32 111.09 44.24 101.21 57.57 103.94 47.32"/><polygon class="cls-6" points="116.86 57.37 139.36 45.68 133.81 67.16 116.86 57.37"/><polygon class="cls-6" points="148.81 56.96 157.51 50.25 153.16 66.91 148.81 56.96"/><polygon class="cls-6" points="172.3 60.66 176.84 50 189.16 68.05 172.3 60.66"/><polygon class="cls-6" points="216.29 48.04 229.84 43.41 217.82 33.56 216.29 48.04"/><path class="cls-6" d="M238.94,28.96s3.85,25.43,3.38,25.43-11.85,3.91-11.85,3.91l8.46-29.34Z"/><polygon class="cls-6" points="242.16 72.72 235.11 86.98 242.16 88.98 242.16 72.72"/><polygon class="cls-6" points="198.73 50.41 204.27 43.74 211.52 58.55 198.73 50.41"/><polygon class="cls-4" points="202.63 42.1 217.4 43.71 209.88 56.91 202.63 42.1"/><polygon class="cls-4" points="187.52 66.42 199.52 48.05 175.21 48.36 187.52 66.42"/><polygon class="cls-4" points="155.88 48.61 173.72 58.99 151.53 65.28 155.88 48.61"/></g></g></svg>