<?xml version="1.0" encoding="UTF-8"?><svg xmlns="http://www.w3.org/2000/svg" xmlns:xlink="http://www.w3.org/1999/xlink" viewBox="0 0 580 440.8"><defs><style>.cls-1{fill:#ffcb57;}.cls-2{stroke:#6a90c6;}.cls-2,.cls-3,.cls-4,.cls-5,.cls-6,.cls-7{fill:none;}.cls-2,.cls-4,.cls-5,.cls-6,.cls-7{stroke-linecap:round;stroke-linejoin:round;}.cls-4{stroke:#5cc6a0;}.cls-8{fill:#ffffb6;}.cls-8,.cls-9{opacity:.25;}.cls-10{isolation:isolate;}.cls-5{stroke:#ff7461;}.cls-6{stroke:#1d1061;}.cls-9{fill:url(#_40_10_ppp_3);mix-blend-mode:multiply;}.cls-7{stroke:#ffcb57;}</style><pattern id="_40_10_ppp_3" x="0" y="0" width="10" height="10" patternTransform="translate(620 3215.35)" patternUnits="userSpaceOnUse" viewBox="0 0 10 10"><rect class="cls-3" width="10" height="10"/><circle class="cls-1" cx="8.95" cy="8.95" r="1.05"/><circle class="cls-1" cx="3.68" cy="8.95" r="1.05"/><path class="cls-1" d="M8.95,4.74c.58,0,1.05-.47,1.05-1.05s-.47-1.05-1.05-1.05-1.05.47-1.05,1.05.47,1.05,1.05,1.05Z"/><path class="cls-1" d="M3.68,4.74c.58,0,1.05-.47,1.05-1.05s-.47-1.05-1.05-1.05-1.05.47-1.05,1.05.47,1.05,1.05,1.05Z"/><path class="cls-1" d="M1.05,7.37c.58,0,1.05-.47,1.05-1.05s-.47-1.05-1.05-1.05S0,5.73,0,6.32s.47,1.05,1.05,1.05Z"/><circle class="cls-1" cx="6.32" cy="6.32" r="1.05"/><path class="cls-1" d="M1.05,2.11c.58,0,1.05-.47,1.05-1.05S1.63,0,1.05,0,0,.47,0,1.05s.47,1.05,1.05,1.05Z"/><circle class="cls-1" cx="6.32" cy="1.05" r="1.05"/></pattern></defs><g class="cls-10"><g id="ZONE_4_A"><path class="cls-6" d="M66.87,93.74V28.27s75.44,63.81,170.6,0v76.91"/><circle class="cls-8" cx="209.35" cy="42.8" r="22.35"/><circle class="cls-8" cx="240.37" cy="62.21" r="25.39"/><circle class="cls-8" cx="236.91" cy="105.37" r="23.28"/><circle class="cls-8" cx="172.98" cy="56.49" r="25.39"/><circle class="cls-8" cx="130.69" cy="53.79" r="22.81"/><circle class="cls-8" cx="93.74" cy="43.3" r="25.39"/><circle class="cls-8" cx="66.99" cy="62.19" r="25.39"/><circle class="cls-8" cx="67.37" cy="92.12" r="22.89"/><circle class="cls-9" cx="212.62" cy="44.44" r="22.35"/><circle class="cls-9" cx="243.65" cy="63.84" r="25.39"/><circle class="cls-9" cx="240.18" cy="107.01" r="23.28"/><circle class="cls-9" cx="176.25" cy="58.12" r="25.39"/><circle class="cls-9" cx="133.96" cy="55.42" r="22.81"/><circle class="cls-9" cx="97.01" cy="44.93" r="25.39"/><circle class="cls-9" cx="70.26" cy="63.82" r="25.39"/><circle class="cls-9" cx="70.64" cy="93.75" r="22.89"/><path class="cls-6" d="M174.95,62.38c-4.59.47-9.36-1.77-11.93-5.61-2.45-3.68-2.44-9.41,1.22-11.88,2.84-1.91,6.75-1.22,9.76.41,2.08,1.12,4.02,2.75,4.86,4.96.84,2.21.27,5.06-1.74,6.31-2.01,1.25-5.24.02-5.45-2.33-.16-1.89,1.43-3.45,3.05-4.44,1.4-.85,3.14-1.52,4.65-.86,2.39,1.04,2.39,4.54,1.21,6.87-1.65,3.25-5.1,5.73-8.73,5.51-3.64-.22-6.98-3.68-6.43-7.28.62-4.05,5.24-6.19,9.33-6.54,1.41-.12,2.91-.1,4.14.59,1.8,1,2.64,3.18,2.75,5.24.28,5.23-3.65,10.32-8.74,11.53s-10.81-1.46-13.28-6.08c-1.42-2.65-1.81-5.93-.61-8.69,2.04-4.69,7.73-6.49,12.81-6.99,2.83-.28,6.06-.16,7.98,1.93,1.63,1.78,1.77,4.43,1.79,6.84.02,2.59,0,5.23-.83,7.68-.83,2.45-2.6,4.73-5.07,5.5-2.11.66-4.4.16-6.47-.62-2.97-1.12-5.81-2.9-7.49-5.58s-1.96-6.39-.1-8.96c1.47-2.01,4-3.03,6.48-3.19s4.95.44,7.34,1.11c1.1.31,2.23.65,3.13,1.36,1.7,1.32,2.27,3.68,2.11,5.83-.34,4.29-3.52,8.32-7.72,9.28-4.2.96-9.01-1.53-10.33-5.63-1.57-4.86,2.12-10.37,7.01-11.83,1.86-.56,4.02-.6,5.6.54,1.51,1.08,2.17,2.99,2.47,4.82.51,3.1-.31,7.03-3.31,7.96-1.75.54-3.63-.16-5.29-.95-1.85-.88-3.71-1.94-4.83-3.65-1.12-1.71-1.25-4.23.22-5.65,1.03-1,2.57-1.24,4.01-1.28,2.83-.07,5.88.57,7.81,2.65s2.13,5.85-.16,7.52c-.84.61-1.89.88-2.93.93-3.29.15-6.73-2.3-6.97-5.58-.24-3.29,3.63-6.33,6.55-4.8,1.21.64,2.04,1.87,2.45,3.18.88,2.78-.23,6.22-2.84,7.51s-6.37-.33-6.77-3.22c-.26-1.86.83-3.72,2.38-4.77,1.55-1.05,3.49-1.38,5.36-1.37,1.34.01,2.81.26,3.71,1.25,1.55,1.72-.16,5.03-2.45,4.77s-3.22-3.87-1.32-5.2c.75,1.75.76,3.8.03,5.56-1.84-.8-3.29-2.46-3.83-4.39M89.45,45.2c.73.53,1.47,1.06,2.2,1.58.88-.75,1.79-1.53,2.28-2.58s.44-2.44-.42-3.21c-1.19-1.05-3.23-.28-4.03,1.1-.8,1.38-.71,3.08-.6,4.67.05.72.25,1.63.96,1.77.39.08.78-.13,1.11-.35,1.92-1.27,3.29-3.34,3.71-5.61.1-.55.08-1.25-.43-1.5-.22-.11-.48-.09-.71-.05-2.22.34-4.01,2.54-3.8,4.78s2.47,4.08,4.69,3.76,3.86-2.85,3.18-4.99c-.94-2.95-4.97-3.57-7.91-2.62-.73.23-1.49.58-1.85,1.26-.28.54-.25,1.18-.12,1.77.35,1.64,1.47,3.16,3.04,3.75,1.57.59,3.55.1,4.48-1.3,1.71-2.58-1.18-6.17-4.27-6.38-2.77-.19-5.58,1.5-6.7,4.04-.43.97-.6,2.17.03,3.02.53.71,1.47.97,2.35,1.09,2.36.3,4.82-.17,6.9-1.32,1.06-.59,2.04-1.37,2.64-2.42,1.43-2.52-.08-6.14-2.82-7.08s-6.03.79-7.01,3.51c-.98,2.73.3,6.02,2.75,7.56.96.6,2.09.97,3.22.9,3.15-.2,5.23-4.2,3.85-7.04-1.38-2.84-5.42-3.81-8.13-2.2-2.71,1.61-3.85,5.28-2.88,8.28.58,1.79,1.87,3.4,3.6,4.13,1.58.67,3.42.58,5.03-.02,4.21-1.56,6.61-6.9,4.87-11.05-1.73-4.15-7.33-6.17-11.27-4s-5.16,8.11-2.32,11.6c1.05,1.29,2.5,2.2,4.03,2.85,2.67,1.13,5.99,1.43,8.31-.32,2.32-1.75,2.93-5.05,2.45-7.91-.65-3.83-3.09-7.4-6.61-9.05-3.52-1.64-8.05-1.11-10.85,1.58-2.8,2.69-3.43,7.48-1.14,10.61.8,1.08,1.87,1.94,3.02,2.63,3.38,2.05,7.79,2.75,11.32.95,3.52-1.79,5.58-6.46,3.78-9.98-1.9-3.72-7.28-4.62-10.91-2.55-2.71,1.54-4.61,4.51-4.65,7.63s1.91,6.23,4.82,7.34c1.19.46,2.49.59,3.76.52,3.97-.22,7.85-2.54,9.57-6.13s.95-8.31-2.06-10.9c-2.67-2.3-6.63-2.68-9.99-1.61-4.46,1.41-8.1,5.36-8.83,9.98-.73,4.62,1.7,9.66,5.91,11.69s9.87.64,12.41-3.29c1.67-2.57,1.94-5.8,1.8-8.87-.18-3.76-1.21-7.95-4.44-9.88-2.57-1.54-5.9-1.2-8.66-.02-5.14,2.19-9.09,7.94-7.63,13.34,1.52,5.61,8.72,8.54,14.06,6.25s8.22-8.75,7.18-14.47c-.86-4.71-4.49-9.14-9.24-9.75-3.15-.41-6.32.86-8.87,2.74-2.14,1.58-4,3.7-4.76,6.26-1.04,3.52.23,7.52,2.86,10.08,2.63,2.56,6.46,3.71,10.12,3.43,3.43-.26,7-1.97,8.36-5.13M127.39,51.48c-2.29,1.38-2.59,5.17-.47,6.8s5.81.24,6.2-2.4-2.93-5.05-5.27-3.75c-1.38.77-2.1,2.44-2.04,4.02.07,1.79,1.44,3.71,3.22,3.55.67-.06,1.29-.41,1.73-.91,1.56-1.76.07-5.06-2.28-5.19s-4.22,2.74-3.27,4.9c.94,2.15,4.13,2.81,5.95,1.33,1.32-1.08,1.81-3.18.84-4.58s-3.39-1.57-4.35-.15c-.78,1.16-.22,2.99,1.08,3.51s2.97-.41,3.2-1.8c.09-.53-.02-1.1-.35-1.52-.17-.22-.39-.38-.63-.52-1.76-.99-4.26.26-4.74,2.23-.48,1.96.92,4.11,2.85,4.7s4.14-.24,5.42-1.81c2.04-2.49,1.57-6.58-.89-8.65s-6.46-1.89-8.82.28c-2.37,2.17-2.92,6.02-1.38,8.85.87,1.59,2.38,2.89,4.17,3.22,2.98.56,5.8-1.56,7.75-3.89,1.98-2.36,3.48-6.04,1.39-8.31-.78-.84-1.9-1.27-3-1.6-3.69-1.09-8.21-1.11-10.79,1.74-2.49,2.76-1.95,7.55.87,9.98s7.29,2.45,10.38.37,4.76-5.92,4.63-9.64c-.05-1.53-.4-3.09-1.26-4.36-1.34-1.98-3.82-3-6.21-2.95s-4.68,1.06-6.62,2.45c-2.59,1.85-4.78,4.77-4.46,7.93.24,2.34,1.83,4.37,3.75,5.74,2.36,1.69,5.39,2.58,8.22,1.95,2.83-.63,5.33-2.96,5.73-5.83.62-4.46-3.92-8.29-8.41-8.65-1.97-.15-4.27.37-5.17,2.13-.67,1.31-.35,2.91.23,4.26,1.26,2.92,3.72,5.31,6.68,6.47,1.47.58,3.26.82,4.54-.1,1.67-1.2,1.64-3.71,1.02-5.68-1.11-3.54-3.6-6.63-6.82-8.47-.85-.49-1.88-.89-2.78-.5-1.58.69-1.3,3.04-.52,4.58,1.87,3.65,5.13,6.57,8.97,8.01.59.22,1.23.41,1.84.26,1.58-.38,1.81-2.53,1.59-4.14-.33-2.49-.92-5-2.24-7.13-1.32-2.13-3.49-3.86-5.98-4.15-1.28-.15-2.59.08-3.81.52-4.58,1.67-7.7,6.66-7.2,11.51s4.55,9.1,9.37,9.82,9.94-2.17,11.83-6.66c1.91-4.55.21-10.42-4-13-2.57-1.57-5.71-1.89-8.73-1.96-2.17-.05-4.45.03-6.33,1.12-3.63,2.1-4.35,7.28-2.85,11.2,1.09,2.86,3.14,5.35,5.74,6.98,1.81,1.13,3.92,1.86,6.05,1.78,3.56-.12,6.91-2.68,7.97-6.08s-.24-7.41-3.1-9.54c-3.21-2.39-8.08-2.15-11.1.47-3.02,2.62-3.97,7.32-2.3,10.95,1.68,3.63,5.8,5.95,9.78,5.59,1.9-.17,3.83-.95,4.97-2.48,1.78-2.38.91-6.26-1.71-7.65s-6.32.08-7.29,2.88M234.78,62.4l2.2,1.58c.88-.75,1.79-1.53,2.28-2.58.49-1.05.44-2.44-.42-3.21-1.19-1.05-3.23-.28-4.03,1.1-.8,1.38-.71,3.08-.6,4.67.05.72.25,1.63.96,1.77.39.08.78-.13,1.11-.35,1.92-1.27,3.29-3.34,3.71-5.61.1-.55.08-1.25-.43-1.5-.22-.11-.48-.09-.71-.05-2.22.34-4.01,2.54-3.8,4.78s2.47,4.08,4.69,3.76,3.86-2.85,3.18-4.99c-.94-2.95-4.97-3.57-7.91-2.62-.73.23-1.49.58-1.85,1.26-.28.54-.25,1.18-.12,1.77.35,1.64,1.47,3.16,3.04,3.75s3.55.1,4.48-1.3c1.71-2.58-1.18-6.17-4.27-6.38-2.77-.19-5.58,1.5-6.7,4.04-.43.97-.6,2.17.03,3.02.53.71,1.47.97,2.35,1.09,2.36.3,4.82-.17,6.9-1.32,1.06-.59,2.04-1.37,2.64-2.42,1.43-2.52-.08-6.14-2.82-7.08-2.74-.94-6.03.79-7.01,3.51-.98,2.73.3,6.02,2.75,7.56.96.6,2.09.97,3.22.9,3.15-.2,5.23-4.2,3.85-7.04s-5.42-3.81-8.13-2.2c-2.71,1.61-3.85,5.28-2.88,8.28.58,1.79,1.87,3.4,3.6,4.13,1.58.67,3.42.58,5.03-.02,4.21-1.56,6.61-6.9,4.87-11.05-1.73-4.15-7.33-6.17-11.27-4-3.93,2.18-5.16,8.11-2.32,11.6,1.05,1.29,2.5,2.2,4.03,2.85,2.67,1.13,5.99,1.43,8.31-.32,2.32-1.75,2.93-5.05,2.45-7.91-.65-3.83-3.09-7.4-6.61-9.05-3.52-1.64-8.05-1.11-10.85,1.58s-3.43,7.48-1.14,10.61c.8,1.08,1.87,1.94,3.02,2.63,3.38,2.05,7.79,2.75,11.32.95,3.52-1.79,5.58-6.46,3.78-9.98-1.9-3.72-7.28-4.62-10.91-2.55-2.71,1.54-4.61,4.51-4.65,7.63-.04,3.12,1.91,6.23,4.82,7.34,1.19.46,2.49.59,3.76.52,3.97-.22,7.85-2.54,9.57-6.13,1.71-3.58.95-8.31-2.06-10.9-2.67-2.3-6.63-2.68-9.99-1.61-4.46,1.41-8.1,5.36-8.83,9.98s1.7,9.66,5.91,11.69c4.21,2.03,9.87.64,12.41-3.29,1.67-2.57,1.94-5.8,1.8-8.87-.18-3.76-1.21-7.95-4.44-9.88-2.57-1.54-5.9-1.2-8.66-.02-5.14,2.19-9.09,7.94-7.63,13.34,1.52,5.61,8.72,8.54,14.06,6.25s8.22-8.75,7.18-14.47c-.86-4.71-4.49-9.14-9.24-9.75-3.15-.41-6.32.86-8.87,2.74-2.14,1.58-4,3.7-4.76,6.26-1.04,3.52.23,7.52,2.86,10.08,2.63,2.56,6.46,3.71,10.12,3.43,3.43-.26,7-1.97,8.36-5.13M233.72,100.65c-2.29,1.38-2.59,5.17-.47,6.8,2.12,1.64,5.81.24,6.2-2.4s-2.93-5.05-5.27-3.75c-1.38.77-2.1,2.44-2.04,4.02.07,1.79,1.44,3.71,3.22,3.55.67-.06,1.29-.41,1.73-.91,1.56-1.76.07-5.06-2.28-5.19-2.35-.13-4.22,2.74-3.27,4.9.94,2.15,4.13,2.81,5.95,1.33,1.32-1.08,1.81-3.18.84-4.58s-3.39-1.57-4.35-.15c-.78,1.16-.22,2.99,1.08,3.51s2.97-.41,3.2-1.8c.09-.53-.02-1.1-.35-1.52-.17-.22-.39-.38-.63-.52-1.76-.99-4.26.26-4.74,2.23-.48,1.96.92,4.11,2.85,4.7s4.14-.24,5.42-1.81c2.04-2.49,1.57-6.58-.89-8.65s-6.46-1.89-8.82.28c-2.37,2.17-2.92,6.02-1.38,8.85.87,1.59,2.38,2.89,4.17,3.22,2.98.56,5.8-1.56,7.75-3.89,1.98-2.36,3.48-6.04,1.39-8.31-.78-.84-1.9-1.27-3-1.6-3.69-1.09-8.21-1.11-10.79,1.74-2.49,2.76-1.95,7.55.87,9.98,2.82,2.43,7.29,2.45,10.38.37,3.09-2.07,4.76-5.92,4.63-9.64-.05-1.53-.4-3.09-1.26-4.36-1.34-1.98-3.82-3-6.21-2.95-2.39.05-4.68,1.06-6.62,2.45-2.59,1.85-5.84,6.08-5.52,9.24.24,2.34,2.9,3.06,4.81,4.43,2.36,1.69,5.39,2.58,8.22,1.95,2.83-.63,5.33-2.96,5.73-5.83.62-4.46-3.92-8.29-8.41-8.65-1.97-.15-4.27.37-5.17,2.13-.67,1.31-.35,2.91.23,4.26,1.26,2.92,3.72,5.31,6.68,6.47,1.47.58,3.26.82,4.54-.1,1.67-1.2,1.64-3.71,1.02-5.68-1.11-3.54-3.6-6.63-6.82-8.47-.85-.49-1.88-.89-2.78-.5-1.58.69-1.3,3.04-.52,4.58,1.87,3.65,5.13,6.57,8.97,8.01.59.22,1.23.41,1.84.26,1.58-.38,1.81-2.53,1.59-4.14-.33-2.49-.92-5-2.24-7.13s-3.49-3.86-5.98-4.15c-1.28-.15-2.59.08-3.81.52-4.58,1.67-7.7,6.66-7.2,11.51s4.55,9.1,9.37,9.82,9.94-2.17,11.83-6.66c1.91-4.55.21-10.42-4-13-2.57-1.57-5.71-1.89-8.73-1.96-2.17-.05-4.45.03-6.33,1.12-3.63,2.1-4.35,7.28-2.85,11.2,1.09,2.86,3.14,5.35,5.74,6.98,1.81,1.13,3.92,1.86,6.05,1.78,3.56-.12,6.91-2.68,7.97-6.08s-.24-7.41-3.1-9.54c-3.21-2.39-8.08-2.15-11.1.47s-3.97,7.32-2.3,10.95,5.8,5.95,9.78,5.59c1.9-.17,3.83-.95,4.97-2.48,1.78-2.38.91-6.26-1.71-7.65-2.62-1.39-6.32.08-7.29,2.88M206.62,45.7c.35-1-1.18-1.99-1.95-1.25.85.91,1.85,1.77,3.07,2s2.68-.38,2.99-1.59c.15-.56.02-1.18-.26-1.69-1.11-2.04-4.58-1.87-5.73.16s.12,4.88,2.3,5.69c1.32.49,3.05.21,3.73-1.02.58-1.04.24-2.35-.3-3.41-.51-1-1.26-1.98-2.34-2.32-1.86-.59-3.91,1.25-3.85,3.2.06,1.95,1.84,3.58,3.77,3.86,3.49.5,6.75-3.42,5.73-6.79s-5.76-4.87-8.6-2.78c-2.84,2.08-2.92,6.92-.22,9.18s7.34,1.44,9.19-1.56c1.86-2.99.64-7.42-2.44-9.14-3.57-2-8.75.18-9.82,4.13-.46,1.72-.23,3.57.44,5.22.8,1.96,2.28,3.73,4.27,4.45,3.65,1.33,7.97-1.59,8.72-5.4.74-3.81-1.62-7.81-5.03-9.66-2.27-1.23-5.19-1.6-7.39-.24-1.88,1.15-2.9,3.36-3.14,5.55-.42,3.78,1.48,7.82,4.86,9.55,3.38,1.73,8.05.71,10.07-2.51s.66-8.17-2.87-9.56c-3.43-1.36-7.31.68-9.85,3.35-1.91,2.01-3.37,5.31-1.55,7.41,1.27,1.46,3.49,1.51,5.4,1.24,3.8-.55,7.7-2.19,9.75-5.45,2.04-3.25,1.36-8.31-2.08-10.01-3.85-1.91-8.32,1.08-11.13,4.32-1.11,1.28-2.17,2.69-2.52,4.35s.19,3.61,1.67,4.45c1.03.58,2.29.52,3.47.41,2.45-.24,4.96-.67,7.02-2.01s3.58-3.77,3.18-6.2c-.32-1.95-1.8-3.55-3.48-4.6-4.28-2.67-10.97-1.73-13.05,2.86-.91,2.01-.83,4.36-.29,6.5.92,3.66,3.16,6.98,6.2,9.21,2.07,1.52,4.8,2.55,7.19,1.62,2.4-.93,3.71-3.53,4.25-6.05.93-4.3.16-8.94-2.09-12.71-2.06-3.45-5.88-6.31-9.83-5.61-3.92.69-6.53,4.62-7.32,8.53-.56,2.78-.42,5.8,1,8.25,2.07,3.59,6.75,5.31,10.76,4.25,4.01-1.05,7.15-4.59,8.11-8.62,1.09-4.61-.88-10.04-5.15-12.09-5.48-2.63-12.27,1.19-15.18,6.52-2.12,3.88-2.56,9.26.66,12.29,1.21,1.14,2.8,1.82,4.42,2.2,4.34,1.03,9.1.09,12.71-2.53,3.61-2.61,6-6.85,6.37-11.29.31-3.72-1.03-7.86-4.27-9.71-3.16-1.81-7.23-.99-10.41.78-3.42,1.9-6.34,5-7.29,8.8-.95,3.8.43,8.27,3.77,10.31M64.15,93.2c.54,1.93,1.99,3.59,3.83,4.39.73-1.76.71-3.81-.03-5.56-1.89,1.33-.97,4.94,1.32,5.2s4-3.05,2.45-4.77c-.9-1-2.36-1.24-3.71-1.25-1.87-.02-3.81.32-5.36,1.37s-2.64,2.92-2.38,4.77c.4,2.89,4.16,4.52,6.77,3.22s3.72-4.73,2.84-7.51c-.41-1.31-1.24-2.54-2.45-3.18-2.92-1.53-6.79,1.51-6.55,4.8.24,3.29,3.68,5.73,6.97,5.58,1.04-.05,2.09-.32,2.93-.93,2.29-1.67,2.09-5.45.16-7.52s-4.98-2.72-7.81-2.65c-1.44.04-2.98.28-4.01,1.28-1.47,1.42-1.34,3.94-.22,5.65s2.98,2.77,4.83,3.65c1.66.79,3.54,1.49,5.29.95,3-.93,3.82-4.86,3.31-7.96-.3-1.83-.96-3.74-2.47-4.82-1.58-1.13-3.74-1.09-5.6-.54-4.9,1.46-8.58,6.97-7.01,11.83,1.32,4.1,6.14,6.58,10.33,5.63s7.38-4.98,7.72-9.28c.17-2.15-.41-4.51-2.11-5.83-.9-.7-2.03-1.05-3.13-1.36-2.39-.68-4.86-1.27-7.34-1.11s-5.02,1.18-6.48,3.19c-1.87,2.56-1.59,6.27.1,8.96s4.52,4.46,7.49,5.58c2.07.78,4.36,1.28,6.47.62,2.47-.77,4.24-3.05,5.07-5.5s.85-5.1.83-7.68c-.02-2.41-.16-5.06-1.79-6.84-1.92-2.1-5.15-2.21-7.98-1.93-5.08.5-10.77,2.3-12.81,6.99-1.2,2.76-.81,6.04.61,8.69,2.48,4.61,8.19,7.29,13.28,6.08s9.02-6.31,8.74-11.53c-.11-2.06-.95-4.24-2.75-5.24-1.24-.69-2.73-.71-4.14-.59-4.09.35-8.71,2.48-9.33,6.54-.55,3.6,2.79,7.06,6.43,7.28s7.08-2.26,8.73-5.51c1.18-2.33,1.19-5.83-1.21-6.87-1.5-.65-3.25,0-4.65.86-1.62.99-3.21,2.55-3.05,4.44.21,2.36,3.44,3.58,5.45,2.33,2.01-1.25,2.58-4.1,1.74-6.31s-2.78-3.84-4.86-4.96c-3.01-1.63-6.92-2.32-9.76-.41-3.67,2.47-3.68,8.2-1.22,11.88,2.56,3.84,7.33,6.08,11.93,5.61M65.25,62.19c.35-1-1.18-1.99-1.95-1.25.85.91,1.85,1.77,3.07,2s2.68-.38,2.99-1.59c.15-.56.02-1.18-.26-1.69-1.11-2.04-4.58-1.87-5.73.16-1.15,2.02.12,4.88,2.3,5.69,1.32.49,3.05.21,3.73-1.02.58-1.04.24-2.35-.3-3.41-.51-1-1.26-1.98-2.34-2.32-1.86-.59-3.91,1.25-3.85,3.2.06,1.95,1.84,3.58,3.77,3.86,3.49.5,6.75-3.42,5.73-6.79s-5.76-4.87-8.6-2.78c-2.84,2.08-2.92,6.92-.22,9.18,2.7,2.26,7.34,1.44,9.19-1.56,1.86-2.99.64-7.42-2.44-9.14-3.57-2-8.75.18-9.82,4.13-.46,1.72-.23,3.57.44,5.22.8,1.96,2.28,3.73,4.27,4.45,3.65,1.33,7.97-1.59,8.72-5.4.74-3.81-1.62-7.81-5.03-9.66-2.27-1.23-5.19-1.6-7.39-.24-1.88,1.15-2.9,3.36-3.14,5.55-.42,3.78,1.48,7.82,4.86,9.55s8.05.71,10.07-2.51.66-8.17-2.87-9.56c-3.43-1.36-7.31.68-9.85,3.35-1.91,2.01-3.37,5.31-1.55,7.41,1.27,1.46,3.49,1.51,5.4,1.24,3.8-.55,7.7-2.19,9.75-5.45s1.36-8.31-2.08-10.01c-3.85-1.91-8.32,1.08-11.13,4.32-1.11,1.28-2.17,2.69-2.52,4.35-.35,1.66.19,3.61,1.67,4.45,1.03.58,2.29.52,3.47.41,2.45-.24,4.96-.67,7.02-2.01s3.58-3.77,3.18-6.2c-.32-1.95-1.8-3.55-3.48-4.6-4.28-2.67-10.97-1.73-13.05,2.86-.91,2.01-.83,4.36-.29,6.5.92,3.66,3.16,6.98,6.2,9.21,2.07,1.52,4.8,2.55,7.19,1.62,2.4-.93,3.71-3.53,4.25-6.05.93-4.3.16-8.94-2.09-12.71-2.06-3.45-5.88-6.31-9.83-5.61-3.92.69-6.53,4.62-7.32,8.53-.56,2.78-.42,5.8,1,8.25,2.07,3.59,6.75,5.31,10.76,4.25,4.01-1.05,7.15-4.59,8.11-8.62,1.09-4.61-.88-10.04-5.15-12.09-5.48-2.63-12.27,1.19-15.18,6.52-2.12,3.88-2.56,9.26.66,12.29,1.21,1.14,2.8,1.82,4.42,2.2,4.34,1.03,9.1.09,12.71-2.53,3.61-2.61,6-6.85,6.37-11.29.31-3.72-1.03-7.86-4.27-9.71-3.16-1.81-7.23-.99-10.41.78-3.42,1.9-6.34,5-7.29,8.8-.95,3.8.43,8.27,3.77,10.31"/><path class="cls-7" d="M170.55,51.69c.54,1.93,1.99,3.59,3.83,4.39.73-1.76.71-3.81-.03-5.56-1.89,1.33-.97,4.94,1.32,5.2s4-3.05,2.45-4.77c-.9-1-2.36-1.24-3.71-1.25-1.87-.02-3.81.32-5.36,1.37-1.55,1.05-2.64,2.92-2.38,4.77.4,2.89,4.16,4.52,6.77,3.22s3.72-4.73,2.84-7.51c-.41-1.31-1.24-2.54-2.45-3.18-2.92-1.53-6.79,1.51-6.55,4.8.24,3.29,3.68,5.73,6.97,5.58,1.04-.05,2.09-.32,2.93-.93,2.29-1.67,2.09-5.45.16-7.52s-4.98-2.72-7.81-2.65c-1.44.04-2.98.28-4.01,1.28-1.47,1.42-1.34,3.94-.22,5.65,1.12,1.71,2.98,2.77,4.83,3.65,1.66.79,3.54,1.49,5.29.95,3-.93,3.82-4.86,3.31-7.96-.3-1.83-.96-3.74-2.47-4.82-1.58-1.13-3.74-1.09-5.6-.54-4.9,1.46-8.58,6.97-7.01,11.83,1.32,4.1,6.14,6.58,10.33,5.63,4.2-.96,7.38-4.98,7.72-9.28.17-2.15-.41-4.51-2.11-5.83-.9-.7-2.03-1.05-3.13-1.36-2.39-.68-4.86-1.27-7.34-1.11s-5.02,1.18-6.48,3.19c-1.87,2.56-1.59,6.27.1,8.96s4.52,4.46,7.49,5.58c2.07.78,4.36,1.28,6.47.62,2.47-.77,4.24-3.05,5.07-5.5.83-2.45.85-5.1.83-7.68-.02-2.41-.16-5.06-1.79-6.84-1.92-2.1-5.15-2.21-7.98-1.93-5.08.5-10.77,2.3-12.81,6.99-1.2,2.76-.81,6.04.61,8.69,2.48,4.61,8.19,7.29,13.28,6.08s9.02-6.31,8.74-11.53c-.11-2.06-.95-4.24-2.75-5.24-1.24-.69-2.73-.71-4.14-.59-4.09.35-8.71,2.48-9.33,6.54-.55,3.6,2.79,7.06,6.43,7.28,3.64.22,7.08-2.26,8.73-5.51,1.18-2.33,1.19-5.83-1.21-6.87-1.5-.65-3.25,0-4.65.86-1.62.99-3.21,2.55-3.05,4.44.21,2.36,3.44,3.58,5.45,2.33,2.01-1.25,2.58-4.1,1.74-6.31-.84-2.21-2.78-3.84-4.86-4.96-3.01-1.63-6.92-2.32-9.76-.41-3.67,2.47-3.68,8.2-1.22,11.88,2.56,3.84,7.33,6.08,11.93,5.61"/><path class="cls-5" d="M90.45,44.2c.73.53,1.47,1.06,2.2,1.58.88-.75,1.79-1.53,2.28-2.58s.44-2.44-.42-3.21c-1.19-1.05-3.23-.28-4.03,1.1-.8,1.38-.71,3.08-.6,4.67.05.72.25,1.63.96,1.77.39.08.78-.13,1.11-.35,1.92-1.27,3.29-3.34,3.71-5.61.1-.55.08-1.25-.43-1.5-.22-.11-.48-.09-.71-.05-2.22.34-4.01,2.54-3.8,4.78s2.47,4.08,4.69,3.76,3.86-2.85,3.18-4.99c-.94-2.95-4.97-3.57-7.91-2.62-.73.23-1.49.58-1.85,1.26-.28.54-.25,1.18-.12,1.77.35,1.64,1.47,3.16,3.04,3.75,1.57.59,3.55.1,4.48-1.3,1.71-2.58-1.18-6.17-4.27-6.38-2.77-.19-5.58,1.5-6.7,4.04-.43.97-.6,2.17.03,3.02.53.71,1.47.97,2.35,1.09,2.36.3,4.82-.17,6.9-1.32,1.06-.59,2.04-1.37,2.64-2.42,1.43-2.52-.08-6.14-2.82-7.08s-6.03.79-7.01,3.51c-.98,2.73.3,6.02,2.75,7.56.96.6,2.09.97,3.22.9,3.15-.2,5.23-4.2,3.85-7.04-1.38-2.84-5.42-3.81-8.13-2.2-2.71,1.61-3.85,5.28-2.88,8.28.58,1.79,1.87,3.4,3.6,4.13,1.58.67,3.42.58,5.03-.02,4.21-1.56,6.61-6.9,4.87-11.05-1.73-4.15-7.33-6.17-11.27-4s-5.16,8.11-2.32,11.6c1.05,1.29,2.5,2.2,4.03,2.85,2.67,1.13,5.99,1.43,8.31-.32,2.32-1.75,2.93-5.05,2.45-7.91-.65-3.83-3.09-7.4-6.61-9.05-3.52-1.64-8.05-1.11-10.85,1.58-2.8,2.69-3.43,7.48-1.14,10.61.8,1.08,1.87,1.94,3.02,2.63,3.38,2.05,7.79,2.75,11.32.95,3.52-1.79,5.58-6.46,3.78-9.98-1.9-3.72-7.28-4.62-10.91-2.55-2.71,1.54-4.61,4.51-4.65,7.63s1.91,6.23,4.82,7.34c1.19.46,2.49.59,3.76.52,3.97-.22,7.85-2.54,9.57-6.13s.95-8.31-2.06-10.9c-2.67-2.3-6.63-2.68-9.99-1.61-4.46,1.41-8.1,5.36-8.83,9.98-.73,4.62,1.7,9.66,5.91,11.69s9.87.64,12.41-3.29c1.67-2.57,1.94-5.8,1.8-8.87-.18-3.76-1.21-7.95-4.44-9.88-2.57-1.54-5.9-1.2-8.66-.02-5.14,2.19-9.09,7.94-7.63,13.34,1.52,5.61,8.72,8.54,14.06,6.25s8.22-8.75,7.18-14.47c-.86-4.71-4.49-9.14-9.24-9.75-3.15-.41-6.32.86-8.87,2.74-2.14,1.58-4,3.7-4.76,6.26-1.04,3.52.23,7.52,2.86,10.08,2.63,2.56,6.46,3.71,10.12,3.43,3.43-.26,7-1.97,8.36-5.13"/><path class="cls-2" d="M128.39,50.48c-2.29,1.38-2.59,5.17-.47,6.8s5.81.24,6.2-2.4-2.93-5.05-5.27-3.75c-1.38.77-2.1,2.44-2.04,4.02.07,1.79,1.44,3.71,3.22,3.55.67-.06,1.29-.41,1.73-.91,1.56-1.76.07-5.06-2.28-5.19s-4.22,2.74-3.27,4.9c.94,2.15,4.13,2.81,5.95,1.33,1.32-1.08,1.81-3.18.84-4.58s-3.39-1.57-4.35-.15c-.78,1.16-.22,2.99,1.08,3.51s2.97-.41,3.2-1.8c.09-.53-.02-1.1-.35-1.52-.17-.22-.39-.38-.63-.52-1.76-.99-4.26.26-4.74,2.23-.48,1.96.92,4.11,2.85,4.7s4.14-.24,5.42-1.81c2.04-2.49,1.57-6.58-.89-8.65s-6.46-1.89-8.82.28c-2.37,2.17-2.92,6.02-1.38,8.85.87,1.59,2.38,2.89,4.17,3.22,2.98.56,5.8-1.56,7.75-3.89,1.98-2.36,3.48-6.04,1.39-8.31-.78-.84-1.9-1.27-3-1.6-3.69-1.09-8.21-1.11-10.79,1.74-2.49,2.76-1.95,7.55.87,9.98s7.29,2.45,10.38.37,4.76-5.92,4.63-9.64c-.05-1.53-.4-3.09-1.26-4.36-1.34-1.98-3.82-3-6.21-2.95s-4.68,1.06-6.62,2.45c-2.59,1.85-4.78,4.77-4.46,7.93.24,2.34,1.83,4.37,3.75,5.74,2.36,1.69,5.39,2.58,8.22,1.95,2.83-.63,5.33-2.96,5.73-5.83.62-4.46-3.92-8.29-8.41-8.65-1.97-.15-4.27.37-5.17,2.13-.67,1.31-.35,2.91.23,4.26,1.26,2.92,3.72,5.31,6.68,6.47,1.47.58,3.26.82,4.54-.1,1.67-1.2,1.64-3.71,1.02-5.68-1.11-3.54-3.6-6.63-6.82-8.47-.85-.49-1.88-.89-2.78-.5-1.58.69-1.3,3.04-.52,4.58,1.87,3.65,5.13,6.57,8.97,8.01.59.22,1.23.41,1.84.26,1.58-.38,1.81-2.53,1.59-4.14-.33-2.49-.92-5-2.24-7.13-1.32-2.13-3.49-3.86-5.98-4.15-1.28-.15-2.59.08-3.81.52-4.58,1.67-7.7,6.66-7.2,11.51s4.55,9.1,9.37,9.82,9.94-2.17,11.83-6.66c1.91-4.55.21-10.42-4-13-2.57-1.57-5.71-1.89-8.73-1.96-2.17-.05-4.45.03-6.33,1.12-3.63,2.1-4.35,7.28-2.85,11.2,1.09,2.86,3.14,5.35,5.74,6.98,1.81,1.13,3.92,1.86,6.05,1.78,3.56-.12,6.91-2.68,7.97-6.08s-.24-7.41-3.1-9.54c-3.21-2.39-8.08-2.15-11.1.47-3.02,2.62-3.97,7.32-2.3,10.95,1.68,3.63,5.8,5.95,9.78,5.59,1.9-.17,3.83-.95,4.97-2.48,1.78-2.38.91-6.26-1.71-7.65s-6.32.08-7.29,2.88"/><path class="cls-5" d="M235.78,61.4l2.2,1.58c.88-.75,1.79-1.53,2.28-2.58.49-1.05.44-2.44-.42-3.21-1.19-1.05-3.23-.28-4.03,1.1-.8,1.38-.71,3.08-.6,4.67.05.72.25,1.63.96,1.77.39.08.78-.13,1.11-.35,1.92-1.27,3.29-3.34,3.71-5.61.1-.55.08-1.25-.43-1.5-.22-.11-.48-.09-.71-.05-2.22.34-4.01,2.54-3.8,4.78s2.47,4.08,4.69,3.76,3.86-2.85,3.18-4.99c-.94-2.95-4.97-3.57-7.91-2.62-.73.23-1.49.58-1.85,1.26-.28.54-.25,1.18-.12,1.77.35,1.64,1.47,3.16,3.04,3.75s3.55.1,4.48-1.3c1.71-2.58-1.18-6.17-4.27-6.38-2.77-.19-5.58,1.5-6.7,4.04-.43.97-.6,2.17.03,3.02.53.71,1.47.97,2.35,1.09,2.36.3,4.82-.17,6.9-1.32,1.06-.59,2.04-1.37,2.64-2.42,1.43-2.52-.08-6.14-2.82-7.08-2.74-.94-6.03.79-7.01,3.51-.98,2.73.3,6.02,2.75,7.56.96.6,2.09.97,3.22.9,3.15-.2,5.23-4.2,3.85-7.04s-5.42-3.81-8.13-2.2c-2.71,1.61-3.85,5.28-2.88,8.28.58,1.79,1.87,3.4,3.6,4.13,1.58.67,3.42.58,5.03-.02,4.21-1.56,6.61-6.9,4.87-11.05-1.73-4.15-7.33-6.17-11.27-4-3.93,2.18-5.16,8.11-2.32,11.6,1.05,1.29,2.5,2.2,4.03,2.85,2.67,1.13,5.99,1.43,8.31-.32,2.32-1.75,2.93-5.05,2.45-7.91-.65-3.83-3.09-7.4-6.61-9.05-3.52-1.64-8.05-1.11-10.85,1.58s-3.43,7.48-1.14,10.61c.8,1.08,1.87,1.94,3.02,2.63,3.38,2.05,7.79,2.75,11.32.95,3.52-1.79,5.58-6.46,3.78-9.98-1.9-3.72-7.28-4.62-10.91-2.55-2.71,1.54-4.61,4.51-4.65,7.63-.04,3.12,1.91,6.23,4.82,7.34,1.19.46,2.49.59,3.76.52,3.97-.22,7.85-2.54,9.57-6.13,1.71-3.58.95-8.31-2.06-10.9-2.67-2.3-6.63-2.68-9.99-1.61-4.46,1.41-8.1,5.36-8.83,9.98s1.7,9.66,5.91,11.69c4.21,2.03,9.87.64,12.41-3.29,1.67-2.57,1.94-5.8,1.8-8.87-.18-3.76-1.21-7.95-4.44-9.88-2.57-1.54-5.9-1.2-8.66-.02-5.14,2.19-9.09,7.94-7.63,13.34,1.52,5.61,8.72,8.54,14.06,6.25s8.22-8.75,7.18-14.47c-.86-4.71-4.49-9.14-9.24-9.75-3.15-.41-6.32.86-8.87,2.74-2.14,1.58-4,3.7-4.76,6.26-1.04,3.52.23,7.52,2.86,10.08,2.63,2.56,6.46,3.71,10.12,3.43,3.43-.26,7-1.97,8.36-5.13"/><path class="cls-2" d="M234.72,99.65c-2.29,1.38-2.59,5.17-.47,6.8,2.12,1.64,5.81.24,6.2-2.4s-2.93-5.05-5.27-3.75c-1.38.77-2.1,2.44-2.04,4.02.07,1.79,1.44,3.71,3.22,3.55.67-.06,1.29-.41,1.73-.91,1.56-1.76.07-5.06-2.28-5.19-2.35-.13-4.22,2.74-3.27,4.9.94,2.15,4.13,2.81,5.95,1.33,1.32-1.08,1.81-3.18.84-4.58s-3.39-1.57-4.35-.15c-.78,1.16-.22,2.99,1.08,3.51s2.97-.41,3.2-1.8c.09-.53-.02-1.1-.35-1.52-.17-.22-.39-.38-.63-.52-1.76-.99-4.26.26-4.74,2.23-.48,1.96.92,4.11,2.85,4.7s4.14-.24,5.42-1.81c2.04-2.49,1.57-6.58-.89-8.65s-6.46-1.89-8.82.28c-2.37,2.17-2.92,6.02-1.38,8.85.87,1.59,2.38,2.89,4.17,3.22,2.98.56,5.8-1.56,7.75-3.89,1.98-2.36,3.48-6.04,1.39-8.31-.78-.84-1.9-1.27-3-1.6-3.69-1.09-8.21-1.11-10.79,1.74-2.49,2.76-1.95,7.55.87,9.98,2.82,2.43,7.29,2.45,10.38.37,3.09-2.07,4.76-5.92,4.63-9.64-.05-1.53-.4-3.09-1.26-4.36-1.34-1.98-3.82-3-6.21-2.95-2.39.05-4.68,1.06-6.62,2.45-2.59,1.85-5.84,6.08-5.52,9.24.24,2.34,2.9,3.06,4.81,4.43,2.36,1.69,5.39,2.58,8.22,1.95,2.83-.63,5.33-2.96,5.73-5.83.62-4.46-3.92-8.29-8.41-8.65-1.97-.15-4.27.37-5.17,2.13-.67,1.31-.35,2.91.23,4.26,1.26,2.92,3.72,5.31,6.68,6.47,1.47.58,3.26.82,4.54-.1,1.67-1.2,1.64-3.71,1.02-5.68-1.11-3.54-3.6-6.63-6.82-8.47-.85-.49-1.88-.89-2.78-.5-1.58.69-1.3,3.04-.52,4.58,1.87,3.65,5.13,6.57,8.97,8.01.59.22,1.23.41,1.84.26,1.58-.38,1.81-2.53,1.59-4.14-.33-2.49-.92-5-2.24-7.13s-3.49-3.86-5.98-4.15c-1.28-.15-2.59.08-3.81.52-4.58,1.67-7.7,6.66-7.2,11.51s4.55,9.1,9.37,9.82,9.94-2.17,11.83-6.66c1.91-4.55.21-10.42-4-13-2.57-1.57-5.71-1.89-8.73-1.96-2.17-.05-4.45.03-6.33,1.12-3.63,2.1-4.35,7.28-2.85,11.2,1.09,2.86,3.14,5.35,5.74,6.98,1.81,1.13,3.92,1.86,6.05,1.78,3.56-.12,6.91-2.68,7.97-6.08s-.24-7.41-3.1-9.54c-3.21-2.39-8.08-2.15-11.1.47s-3.97,7.32-2.3,10.95,5.8,5.95,9.78,5.59c1.9-.17,3.83-.95,4.97-2.48,1.78-2.38.91-6.26-1.71-7.65-2.62-1.39-6.32.08-7.29,2.88"/><path class="cls-4" d="M207.62,44.7c.35-1-1.18-1.99-1.95-1.25.85.91,1.85,1.77,3.07,2s2.68-.38,2.99-1.59c.15-.56.02-1.18-.26-1.69-1.11-2.04-4.58-1.87-5.73.16s.12,4.88,2.3,5.69c1.32.49,3.05.21,3.73-1.02.58-1.04.24-2.35-.3-3.41-.51-1-1.26-1.98-2.34-2.32-1.86-.59-3.91,1.25-3.85,3.2.06,1.95,1.84,3.58,3.77,3.86,3.49.5,6.75-3.42,5.73-6.79s-5.76-4.87-8.6-2.78c-2.84,2.08-2.92,6.92-.22,9.18s7.34,1.44,9.19-1.56c1.86-2.99.64-7.42-2.44-9.14-3.57-2-8.75.18-9.82,4.13-.46,1.72-.23,3.57.44,5.22.8,1.96,2.28,3.73,4.27,4.45,3.65,1.33,7.97-1.59,8.72-5.4.74-3.81-1.62-7.81-5.03-9.66-2.27-1.23-5.19-1.6-7.39-.24-1.88,1.15-2.9,3.36-3.14,5.55-.42,3.78,1.48,7.82,4.86,9.55,3.38,1.73,8.05.71,10.07-2.51s.66-8.17-2.87-9.56c-3.43-1.36-7.31.68-9.85,3.35-1.91,2.01-3.37,5.31-1.55,7.41,1.27,1.46,3.49,1.51,5.4,1.24,3.8-.55,7.7-2.19,9.75-5.45,2.04-3.25,1.36-8.31-2.08-10.01-3.85-1.91-8.32,1.08-11.13,4.32-1.11,1.28-2.17,2.69-2.52,4.35s.19,3.61,1.67,4.45c1.03.58,2.29.52,3.47.41,2.45-.24,4.96-.67,7.02-2.01s3.58-3.77,3.18-6.2c-.32-1.95-1.8-3.55-3.48-4.6-4.28-2.67-10.97-1.73-13.05,2.86-.91,2.01-.83,4.36-.29,6.5.92,3.66,3.16,6.98,6.2,9.21,2.07,1.52,4.8,2.55,7.19,1.62,2.4-.93,3.71-3.53,4.25-6.05.93-4.3.16-8.94-2.09-12.71-2.06-3.45-5.88-6.31-9.83-5.61-3.92.69-6.53,4.62-7.32,8.53-.56,2.78-.42,5.8,1,8.25,2.07,3.59,6.75,5.31,10.76,4.25,4.01-1.05,7.15-4.59,8.11-8.62,1.09-4.61-.88-10.04-5.15-12.09-5.48-2.63-12.27,1.19-15.18,6.52-2.12,3.88-2.56,9.26.66,12.29,1.21,1.14,2.8,1.82,4.42,2.2,4.34,1.03,9.1.09,12.71-2.53,3.61-2.61,6-6.85,6.37-11.29.31-3.72-1.03-7.86-4.27-9.71-3.16-1.81-7.23-.99-10.41.78-3.42,1.9-6.34,5-7.29,8.8-.95,3.8.43,8.27,3.77,10.31"/><path class="cls-7" d="M65.15,92.2c.54,1.93,1.99,3.59,3.83,4.39.73-1.76.71-3.81-.03-5.56-1.89,1.33-.97,4.94,1.32,5.2s4-3.05,2.45-4.77c-.9-1-2.36-1.24-3.71-1.25-1.87-.02-3.81.32-5.36,1.37s-2.64,2.92-2.38,4.77c.4,2.89,4.16,4.52,6.77,3.22s3.72-4.73,2.84-7.51c-.41-1.31-1.24-2.54-2.45-3.18-2.92-1.53-6.79,1.51-6.55,4.8.24,3.29,3.68,5.73,6.97,5.58,1.04-.05,2.09-.32,2.93-.93,2.29-1.67,2.09-5.45.16-7.52s-4.98-2.72-7.81-2.65c-1.44.04-2.98.28-4.01,1.28-1.47,1.42-1.34,3.94-.22,5.65s2.98,2.77,4.83,3.65c1.66.79,3.54,1.49,5.29.95,3-.93,3.82-4.86,3.31-7.96-.3-1.83-.96-3.74-2.47-4.82-1.58-1.13-3.74-1.09-5.6-.54-4.9,1.46-8.58,6.97-7.01,11.83,1.32,4.1,6.14,6.58,10.33,5.63s7.38-4.98,7.72-9.28c.17-2.15-.41-4.51-2.11-5.83-.9-.7-2.03-1.05-3.13-1.36-2.39-.68-4.86-1.27-7.34-1.11s-5.02,1.18-6.48,3.19c-1.87,2.56-1.59,6.27.1,8.96s4.52,4.46,7.49,5.58c2.07.78,4.36,1.28,6.47.62,2.47-.77,4.24-3.05,5.07-5.5s.85-5.1.83-7.68c-.02-2.41-.16-5.06-1.79-6.84-1.92-2.1-5.15-2.21-7.98-1.93-5.08.5-10.77,2.3-12.81,6.99-1.2,2.76-.81,6.04.61,8.69,2.48,4.61,8.19,7.29,13.28,6.08s9.02-6.31,8.74-11.53c-.11-2.06-.95-4.24-2.75-5.24-1.24-.69-2.73-.71-4.14-.59-4.09.35-8.71,2.48-9.33,6.54-.55,3.6,2.79,7.06,6.43,7.28s7.08-2.26,8.73-5.51c1.18-2.33,1.19-5.83-1.21-6.87-1.5-.65-3.25,0-4.65.86-1.62.99-3.21,2.55-3.05,4.44.21,2.36,3.44,3.58,5.45,2.33,2.01-1.25,2.58-4.1,1.74-6.31s-2.78-3.84-4.86-4.96c-3.01-1.63-6.92-2.32-9.76-.41-3.67,2.47-3.68,8.2-1.22,11.88,2.56,3.84,7.33,6.08,11.93,5.61"/><path class="cls-4" d="M66.25,61.19c.35-1-1.18-1.99-1.95-1.25.85.91,1.85,1.77,3.07,2s2.68-.38,2.99-1.59c.15-.56.02-1.18-.26-1.69-1.11-2.04-4.58-1.87-5.73.16-1.15,2.02.12,4.88,2.3,5.69,1.32.49,3.05.21,3.73-1.02.58-1.04.24-2.35-.3-3.41-.51-1-1.26-1.98-2.34-2.32-1.86-.59-3.91,1.25-3.85,3.2.06,1.95,1.84,3.58,3.77,3.86,3.49.5,6.75-3.42,5.73-6.79s-5.76-4.87-8.6-2.78c-2.84,2.08-2.92,6.92-.22,9.18,2.7,2.26,7.34,1.44,9.19-1.56,1.86-2.99.64-7.42-2.44-9.14-3.57-2-8.75.18-9.82,4.13-.46,1.72-.23,3.57.44,5.22.8,1.96,2.28,3.73,4.27,4.45,3.65,1.33,7.97-1.59,8.72-5.4.74-3.81-1.62-7.81-5.03-9.66-2.27-1.23-5.19-1.6-7.39-.24-1.88,1.15-2.9,3.36-3.14,5.55-.42,3.78,1.48,7.82,4.86,9.55s8.05.71,10.07-2.51.66-8.17-2.87-9.56c-3.43-1.36-7.31.68-9.85,3.35-1.91,2.01-3.37,5.31-1.55,7.41,1.27,1.46,3.49,1.51,5.4,1.24,3.8-.55,7.7-2.19,9.75-5.45s1.36-8.31-2.08-10.01c-3.85-1.91-8.32,1.08-11.13,4.32-1.11,1.28-2.17,2.69-2.52,4.35-.35,1.66.19,3.61,1.67,4.45,1.03.58,2.29.52,3.47.41,2.45-.24,4.96-.67,7.02-2.01s3.58-3.77,3.18-6.2c-.32-1.95-1.8-3.55-3.48-4.6-4.28-2.67-10.97-1.73-13.05,2.86-.91,2.01-.83,4.36-.29,6.5.92,3.66,3.16,6.98,6.2,9.21,2.07,1.52,4.8,2.55,7.19,1.62,2.4-.93,3.71-3.53,4.25-6.05.93-4.3.16-8.94-2.09-12.71-2.06-3.45-5.88-6.31-9.83-5.61-3.92.69-6.53,4.62-7.32,8.53-.56,2.78-.42,5.8,1,8.25,2.07,3.59,6.75,5.31,10.76,4.25,4.01-1.05,7.15-4.59,8.11-8.62,1.09-4.61-.88-10.04-5.15-12.09-5.48-2.63-12.27,1.19-15.18,6.52-2.12,3.88-2.56,9.26.66,12.29,1.21,1.14,2.8,1.82,4.42,2.2,4.34,1.03,9.1.09,12.71-2.53,3.61-2.61,6-6.85,6.37-11.29.31-3.72-1.03-7.86-4.27-9.71-3.16-1.81-7.23-.99-10.41.78-3.42,1.9-6.34,5-7.29,8.8-.95,3.8.43,8.27,3.77,10.31"/></g></g></svg>