<?xml version="1.0" encoding="UTF-8"?><svg xmlns="http://www.w3.org/2000/svg" xmlns:xlink="http://www.w3.org/1999/xlink" viewBox="0 0 580 440.8"><defs><style>.cls-1{fill:#ffcb57;}.cls-2{fill:#1d1061;}.cls-3,.cls-4,.cls-5{fill:none;}.cls-6{fill:#ffffb6;}.cls-6,.cls-7,.cls-8,.cls-9{opacity:.25;}.cls-10{fill:#db6b4c;}.cls-11{isolation:isolate;}.cls-4,.cls-5{stroke:#1d1061;stroke-linecap:round;stroke-linejoin:round;}.cls-12{fill:#f2f0ec;}.cls-5{stroke-width:2px;}.cls-7{fill:url(#_40_10_ppp_3);}.cls-7,.cls-8{mix-blend-mode:multiply;}.cls-8,.cls-9{fill:url(#_40_10_ppp);}.cls-9{mix-blend-mode:overlay;}.cls-13{clip-path:url(#clippath);}</style><clipPath id="clippath"><path class="cls-3" d="M399.32,237.95c0-2.44,1.55-4.63,3.87-5.39,12.24-4.03,24.23-6.87,35.78-8.77v-108.42h-118.18v216.57h78.54v-93.99Z"/></clipPath><pattern id="_40_10_ppp_3" x="0" y="0" width="10" height="10" patternTransform="translate(620 1735.38)" patternUnits="userSpaceOnUse" viewBox="0 0 10 10"><rect class="cls-3" width="10" height="10"/><circle class="cls-1" cx="8.95" cy="8.95" r="1.05"/><circle class="cls-1" cx="3.68" cy="8.95" r="1.05"/><path class="cls-1" d="M8.95,4.74c.58,0,1.05-.47,1.05-1.05s-.47-1.05-1.05-1.05-1.05.47-1.05,1.05.47,1.05,1.05,1.05Z"/><path class="cls-1" d="M3.68,4.74c.58,0,1.05-.47,1.05-1.05s-.47-1.05-1.05-1.05-1.05.47-1.05,1.05.47,1.05,1.05,1.05Z"/><path class="cls-1" d="M1.05,7.37c.58,0,1.05-.47,1.05-1.05s-.47-1.05-1.05-1.05S0,5.73,0,6.32s.47,1.05,1.05,1.05Z"/><circle class="cls-1" cx="6.32" cy="6.32" r="1.05"/><path class="cls-1" d="M1.05,2.11c.58,0,1.05-.47,1.05-1.05S1.63,0,1.05,0,0,.47,0,1.05s.47,1.05,1.05,1.05Z"/><circle class="cls-1" cx="6.32" cy="1.05" r="1.05"/></pattern><pattern id="_40_10_ppp" x="0" y="0" width="10" height="10" patternTransform="translate(610 1735.38)" patternUnits="userSpaceOnUse" viewBox="0 0 10 10"><rect class="cls-3" width="10" height="10"/><circle class="cls-2" cx="8.95" cy="8.95" r="1.05"/><circle class="cls-2" cx="3.68" cy="8.95" r="1.05"/><path class="cls-2" d="M8.95,4.74c.58,0,1.05-.47,1.05-1.05s-.47-1.05-1.05-1.05-1.05.47-1.05,1.05.47,1.05,1.05,1.05Z"/><path class="cls-2" d="M3.68,4.74c.58,0,1.05-.47,1.05-1.05s-.47-1.05-1.05-1.05-1.05.47-1.05,1.05.47,1.05,1.05,1.05Z"/><path class="cls-2" d="M1.05,7.37c.58,0,1.05-.47,1.05-1.05s-.47-1.05-1.05-1.05S0,5.73,0,6.32s.47,1.05,1.05,1.05Z"/><circle class="cls-2" cx="6.32" cy="6.32" r="1.05"/><path class="cls-2" d="M1.05,2.11c.58,0,1.05-.47,1.05-1.05S1.63,0,1.05,0,0,.47,0,1.05s.47,1.05,1.05,1.05Z"/><circle class="cls-2" cx="6.32" cy="1.05" r="1.05"/></pattern></defs><g class="cls-11"><g id="ZONE_3_B"><g class="cls-13"><circle class="cls-6" cx="373.71" cy="225.42" r="32.02"/><circle class="cls-7" cx="375.62" cy="227.21" r="32.02"/><path class="cls-2" d="M378.41,244.09c0-2.09,1.06-4.06,2.84-5.15,4.6-2.81,7.68-7.88,7.68-13.67,0-9.46-8.19-17.01-17.87-15.93-7.19.8-13.06,6.5-14.04,13.66-.92,6.7,2.31,12.73,7.48,15.92,1.79,1.1,2.88,3.06,2.88,5.17v3.21h-8.56v15.8h28.14v-15.8h-8.56v-3.21Z"/><path class="cls-1" d="M389.92,224.56c0-9.46-8.19-17.01-17.87-15.93-7.19.8-13.06,6.5-14.04,13.66-.92,6.7,2.31,12.73,7.48,15.92,1.79,1.1,2.88,3.06,2.88,5.17v4.29h11.03v-4.29c0-2.09,1.06-4.06,2.84-5.15,4.6-2.81,7.68-7.88,7.68-13.67Z"/><path class="cls-9" d="M391.03,226.4c0-9.46-8.19-17.01-17.87-15.93-7.19.8-13.06,6.5-14.04,13.66-.92,6.7,2.31,12.73,7.48,15.92,1.79,1.1,2.88,3.06,2.88,5.17v4.29h11.03v-4.29c0-2.09,1.06-4.06,2.84-5.15,4.6-2.81,7.68-7.88,7.68-13.67Z"/><path class="cls-4" d="M377.22,244.57s-.49-7.01.92-9.8c1.15-2.26,4.5-8.14,2.04-9.56-2.46-1.42-6.59,3.64-4.48,4.7s3.98-6.14-1.56-6.56c-5.55-.42-4.34,7.51-2.22,6.8,2.12-.71-1.45-6.95-4.46-4.45-2.34,1.94,1.44,5.52,2.53,9.66,1.09,4.14.97,8.19.97,8.19"/><rect class="cls-10" x="359.81" y="246.59" width="28.14" height="15.8"/><rect class="cls-9" x="358.11" y="247.59" width="11.7" height="15.8"/><path class="cls-5" d="M384.49,259.31h2.9c1.51,0,2.74,1.22,2.74,2.74h0c0,1.51-1.22,2.74-2.74,2.74h-7.93c-1.9,0-3.44,1.54-3.44,3.44v27.18c0,4.58,1.82,8.96,5.05,12.2l10.63,10.63c3.24,3.24,7.62,5.05,12.2,5.05h0"/><circle class="cls-12" cx="376.02" cy="288.02" r="5.64"/><circle class="cls-8" cx="377.05" cy="288.95" r="5.05"/></g></g></g></svg>