<?xml version="1.0" encoding="UTF-8"?><svg xmlns="http://www.w3.org/2000/svg" xmlns:xlink="http://www.w3.org/1999/xlink" viewBox="0 0 580 440.8"><defs><style>.cls-1{fill:#ffcb57;}.cls-2{fill:#cecece;}.cls-3{fill:#1d1061;}.cls-4,.cls-5{fill:none;}.cls-6{isolation:isolate;}.cls-5{stroke:#1d1061;stroke-linecap:round;stroke-linejoin:round;}.cls-7{fill:url(#_40_10_ppp);mix-blend-mode:multiply;opacity:.25;}.cls-8{fill:#fdfdfd;}.cls-9{fill:#6a90c6;}</style><pattern id="_40_10_ppp" x="0" y="0" width="10" height="10" patternTransform="translate(-15211.28 833.7) rotate(-180) scale(1 -1)" patternUnits="userSpaceOnUse" viewBox="0 0 10 10"><rect class="cls-4" width="10" height="10"/><circle class="cls-3" cx="8.95" cy="8.95" r="1.05"/><circle class="cls-3" cx="3.68" cy="8.95" r="1.05"/><path class="cls-3" d="M8.95,4.74c.58,0,1.05-.47,1.05-1.05s-.47-1.05-1.05-1.05-1.05.47-1.05,1.05.47,1.05,1.05,1.05Z"/><path class="cls-3" d="M3.68,4.74c.58,0,1.05-.47,1.05-1.05s-.47-1.05-1.05-1.05-1.05.47-1.05,1.05.47,1.05,1.05,1.05Z"/><path class="cls-3" d="M1.05,7.37c.58,0,1.05-.47,1.05-1.05s-.47-1.05-1.05-1.05S0,5.73,0,6.32s.47,1.05,1.05,1.05Z"/><circle class="cls-3" cx="6.32" cy="6.32" r="1.05"/><path class="cls-3" d="M1.05,2.11c.58,0,1.05-.47,1.05-1.05S1.63,0,1.05,0,0,.47,0,1.05s.47,1.05,1.05,1.05Z"/><circle class="cls-3" cx="6.32" cy="1.05" r="1.05"/></pattern></defs><g class="cls-6"><g id="ZONE_1_A"><path class="cls-1" d="M28.6,271.6h10.96l-5-56.82c-.27-3.03-2.94-5.48-5.96-5.48h0c-3.03,0-5.27,2.45-5,5.48l5,56.82Z"/><rect class="cls-1" x="14.35" y="197.16" width="56.37" height="6.99" rx="1.61" ry="1.61" transform="translate(220.19 303.18) rotate(131.96)"/><path class="cls-1" d="M56.05,186.77l8.33,1.93c1.87.49,3.78-.63,4.26-2.5h0c.49-1.87-.63-3.78-2.5-4.26l-8.33-1.93c-1.87-.49-3.78.63-4.26,2.5h0c-.49,1.87.63,3.78,2.5,4.26Z"/><circle class="cls-3" cx="56.69" cy="183.59" r=".86"/><circle class="cls-3" cx="28.13" cy="216.43" r=".86"/><rect class="cls-2" x="7.97" y="268.87" width="53.99" height="5.45" rx="1.26" ry="1.26" transform="translate(69.94 543.19) rotate(180)"/><path class="cls-3" d="M66.25,182.63l-2.13-11,17.62-3.4,2.13,11c.64,3.29,2.79,6.02,5.7,7.68,7.46,4.27,13.71,12.9,16.44,23.75l-48.59,9.39c-1.51-11.08,1.07-21.42,6.41-28.17,2.08-2.63,3.06-5.96,2.43-9.25Z"/><polygon class="cls-3" points="33.09 269.51 56.26 269.51 46.87 234.04 23.7 234.04 33.09 269.51"/><polygon class="cls-8" points="34.8 268.87 57.97 268.87 48.58 233.4 25.41 233.4 34.8 268.87"/><polygon class="cls-7" points="34.04 268.87 37.49 268.87 28.1 233.4 24.65 233.4 34.04 268.87"/><polygon class="cls-9" points="38.01 266.1 55.6 266.1 47.44 235.29 29.86 235.29 38.01 266.1"/><line class="cls-5" x1="40.02" y1="234.52" x2="38.68" y2="234.52"/><line class="cls-5" x1="37.29" y1="234.52" x2="37.11" y2="234.52"/><line class="cls-5" x1="47.95" y1="267.54" x2="46.66" y2="267.54"/></g></g></svg>