<?xml version="1.0" encoding="UTF-8"?><svg xmlns="http://www.w3.org/2000/svg" xmlns:xlink="http://www.w3.org/1999/xlink" viewBox="0 0 580 440.8"><defs><style>.cls-1{stroke:#db6b4c;stroke-linecap:round;stroke-linejoin:round;}.cls-1,.cls-2{fill:none;}.cls-3{fill:#ffcb57;}.cls-4{fill:#1d1061;}.cls-5{isolation:isolate;}.cls-6{fill:url(#_40_10_ppp_3);mix-blend-mode:multiply;opacity:.5;}.cls-7{fill:#6a90c6;}</style><pattern id="_40_10_ppp_3" x="0" y="0" width="10" height="10" patternTransform="translate(-230 365.4)" patternUnits="userSpaceOnUse" viewBox="0 0 10 10"><rect class="cls-2" width="10" height="10"/><circle class="cls-3" cx="8.95" cy="8.95" r="1.05"/><circle class="cls-3" cx="3.68" cy="8.95" r="1.05"/><path class="cls-3" d="M8.95,4.74c.58,0,1.05-.47,1.05-1.05s-.47-1.05-1.05-1.05-1.05.47-1.05,1.05.47,1.05,1.05,1.05Z"/><path class="cls-3" d="M3.68,4.74c.58,0,1.05-.47,1.05-1.05s-.47-1.05-1.05-1.05-1.05.47-1.05,1.05.47,1.05,1.05,1.05Z"/><path class="cls-3" d="M1.05,7.37c.58,0,1.05-.47,1.05-1.05s-.47-1.05-1.05-1.05S0,5.73,0,6.32s.47,1.05,1.05,1.05Z"/><circle class="cls-3" cx="6.32" cy="6.32" r="1.05"/><path class="cls-3" d="M1.05,2.11c.58,0,1.05-.47,1.05-1.05S1.63,0,1.05,0,0,.47,0,1.05s.47,1.05,1.05,1.05Z"/><circle class="cls-3" cx="6.32" cy="1.05" r="1.05"/></pattern></defs><g class="cls-5"><g id="ZONE_1_B"><ellipse class="cls-7" cx="75.33" cy="416.54" rx="25.41" ry="2.87"/><circle class="cls-4" cx="70.86" cy="386.82" r="31.46"/><circle class="cls-3" cx="72.86" cy="385.82" r="31.46"/><path class="cls-1" d="M43.85,380.48s11.11,5.63,29.01,5.34"/><path class="cls-1" d="M89.02,362.58s-11.26,7.94-16.17,23.24c0,0,7.36,18.47,5.34,29.01"/><path class="cls-1" d="M61.71,385.23s.32-11.68,15.33-25.53"/><path class="cls-1" d="M51.79,380.48s1.44-11.84,11.26-19.48"/><path class="cls-1" d="M75.75,395.51s-10.72,4.64-29.62-3.12"/><path class="cls-1" d="M75.64,406.52s-11.34,3.69-22.42-1.98"/><path class="cls-1" d="M77.36,376.26s9.44,6.87,12.36,27.08"/><path class="cls-1" d="M86.9,370.77s8.94,7.89,9.68,20.3"/><circle class="cls-6" cx="76.13" cy="389.09" r="25.78"/></g></g></svg>