<?xml version="1.0" encoding="UTF-8"?><svg xmlns="http://www.w3.org/2000/svg" xmlns:xlink="http://www.w3.org/1999/xlink" viewBox="0 0 580 440.8"><defs><style>.cls-1{stroke:#cd4d35;stroke-linecap:round;stroke-linejoin:round;}.cls-1,.cls-2{fill:none;}.cls-3{fill:#1d1061;}.cls-4{isolation:isolate;}.cls-5{fill:#ff7461;}.cls-6{fill:url(#_40_10_ppp);mix-blend-mode:overlay;opacity:.25;}.cls-7{fill:#6a90c6;}</style><pattern id="_40_10_ppp" x="0" y="0" width="10" height="10" patternTransform="translate(-840 365.4)" patternUnits="userSpaceOnUse" viewBox="0 0 10 10"><rect class="cls-2" width="10" height="10"/><circle class="cls-3" cx="8.95" cy="8.95" r="1.05"/><circle class="cls-3" cx="3.68" cy="8.95" r="1.05"/><path class="cls-3" d="M8.95,4.74c.58,0,1.05-.47,1.05-1.05s-.47-1.05-1.05-1.05-1.05.47-1.05,1.05.47,1.05,1.05,1.05Z"/><path class="cls-3" d="M3.68,4.74c.58,0,1.05-.47,1.05-1.05s-.47-1.05-1.05-1.05-1.05.47-1.05,1.05.47,1.05,1.05,1.05Z"/><path class="cls-3" d="M1.05,7.37c.58,0,1.05-.47,1.05-1.05s-.47-1.05-1.05-1.05S0,5.73,0,6.32s.47,1.05,1.05,1.05Z"/><circle class="cls-3" cx="6.32" cy="6.32" r="1.05"/><path class="cls-3" d="M1.05,2.11c.58,0,1.05-.47,1.05-1.05S1.63,0,1.05,0,0,.47,0,1.05s.47,1.05,1.05,1.05Z"/><circle class="cls-3" cx="6.32" cy="1.05" r="1.05"/></pattern></defs><g class="cls-4"><g id="ZONE_1_B"><ellipse class="cls-7" cx="74.11" cy="416.58" rx="30.24" ry="2.83"/><circle class="cls-3" cx="70.86" cy="381.51" r="38.1"/><circle class="cls-5" cx="72.86" cy="379.51" r="38.1"/><path class="cls-1" d="M65.43,343.3s21.29,2.01,28.54,39.24c4.12,21.16-5.4,30.03-5.4,30.03"/><path class="cls-1" d="M39.35,391.15s24.29,10.37,57.08-8.61c13.85-8.02,12.03-12.24,12.03-12.24"/><path class="cls-1" d="M39.35,364.65c7.71-1.9,28.65,22.5,52.91,10.64,17.44-8.53,6.64-22.11,6.64-22.11"/><path class="cls-1" d="M107.82,391.86s-2.83-5.15-12.82-1.09c-9.98,4.06-19.08,22.27-30.81,24.27"/><circle class="cls-6" cx="74.82" cy="381.47" r="34.26"/></g></g></svg>