<?xml version="1.0" encoding="UTF-8"?><svg xmlns="http://www.w3.org/2000/svg" xmlns:xlink="http://www.w3.org/1999/xlink" viewBox="0 0 580 440.8"><defs><style>.cls-1{fill:#ffcb57;}.cls-2{fill:#1d1061;}.cls-3,.cls-4{fill:none;}.cls-5{isolation:isolate;}.cls-4{stroke:#1d1061;stroke-linecap:round;stroke-linejoin:round;}.cls-6{fill:#d07b73;}.cls-7{fill:url(#_40_10_ppp);mix-blend-mode:multiply;opacity:.25;}</style><pattern id="_40_10_ppp" x="0" y="0" width="10" height="10" patternTransform="translate(480 1275.39)" patternUnits="userSpaceOnUse" viewBox="0 0 10 10"><rect class="cls-3" width="10" height="10"/><circle class="cls-2" cx="8.95" cy="8.95" r="1.05"/><circle class="cls-2" cx="3.68" cy="8.95" r="1.05"/><path class="cls-2" d="M8.95,4.74c.58,0,1.05-.47,1.05-1.05s-.47-1.05-1.05-1.05-1.05.47-1.05,1.05.47,1.05,1.05,1.05Z"/><path class="cls-2" d="M3.68,4.74c.58,0,1.05-.47,1.05-1.05s-.47-1.05-1.05-1.05-1.05.47-1.05,1.05.47,1.05,1.05,1.05Z"/><path class="cls-2" d="M1.05,7.37c.58,0,1.05-.47,1.05-1.05s-.47-1.05-1.05-1.05S0,5.73,0,6.32s.47,1.05,1.05,1.05Z"/><circle class="cls-2" cx="6.32" cy="6.32" r="1.05"/><path class="cls-2" d="M1.05,2.11c.58,0,1.05-.47,1.05-1.05S1.63,0,1.05,0,0,.47,0,1.05s.47,1.05,1.05,1.05Z"/><circle class="cls-2" cx="6.32" cy="1.05" r="1.05"/></pattern></defs><g class="cls-5"><g id="ZONE_3_A"><path class="cls-2" d="M533.03,274.92c-.49-8.97-14.25-6.29-18.58-5.22-1.31-2.04-2.92-4.02-4.82-5.83.19-.04.39-.07.6-.12h.04s0,0,0,0c4.88-.98,14.44-3.65,11.39-9.16-1.23-2.23-3.7-2.8-6.53-2.52.44-3,.24-6.26.11-7.74-.26-2.99-3.63-4.06-7.77-4.12-.19-.53-.38-1.03-.58-1.5h.03s8.35-7.55-1.3-12.04c-7.82-3.65-9.64,2.18-10.04,4.51-1.96-.13-4.18-.09-6.75.04-2.42.13-4.62.44-6.56,1.05-1.85-2.26-6.17-6.31-10.64-1.74-5.45,5.59-.7,9.92,1.79,11.63-1.63,6.07-2.37,13.09,6.88,15.88-.06.04-.12.09-.18.13h0s0,0,0,0c-.09.07-.18.14-.28.21-4.56-.67-18.57-2.14-19.58,4.77-.85,5.86,7.57,5.69,14.05,4.68l-.05.22c-.1.45-.2.9-.28,1.37l-.08.38s.01,0,.02,0c-.08.46-.16.92-.22,1.39-1.35-.09-3.33.28-4.13,3.01-1.27,4.32,3.48,5.39,3.48,5.39l.02-.09s.1.05.15.08c0,.12,0,.24,0,.35,0,.37.24.71.64,1.03,1.28,1.34,16.47,16.99,22.58,8.81,1.72-2.3,1.34-4.43-.11-6.32.31-.01.62-.03.93-.05.13,0,.26-.01.38-.02.56-.03,1.12-.07,1.68-.11.12,0,.24-.02.36-.03.57-.04,1.13-.09,1.68-.15.1-.01.21-.02.31-.03.57-.06,1.13-.12,1.68-.19.09-.01.18-.02.27-.03.56-.07,1.11-.15,1.66-.23.07-.01.14-.02.21-.03.56-.08,1.1-.17,1.63-.27.05,0,.1-.02.16-.03.54-.1,1.07-.21,1.59-.32.04,0,.07-.02.11-.02.52-.12,1.03-.24,1.52-.37.02,0,.04-.01.05-.01.5-.13.98-.27,1.44-.42,0,0,0,0,0,0h0c1.89-.6,3.4-1.32,4.36-2.17,3.62,1.22,17.17,5.2,16.67-4.03Z"/><path class="cls-6" d="M474.32,278.72s-4.75-1.07-3.48-5.39c1.27-4.32,5.49-2.74,5.49-2.74l-2.01,8.14Z"/><path class="cls-2" d="M476.01,279.25s-4.75-.95-3.48-4.75c1.27-3.81,5.49-2.42,5.49-2.42l-2.01,7.17Z"/><path class="cls-7" d="M474.71,277.93s-4.75-1.07-3.48-5.39c1.27-4.32,5.49-2.74,5.49-2.74l-2.01,8.14Z"/><path class="cls-6" d="M501.67,256.87s17.21-10.47,21.25-3.16c4.04,7.31-14.07,9.62-14.07,9.62l-7.18-6.46Z"/><path class="cls-1" d="M518.68,253.19c-2.12-1.02-5.32.62-4.94,4.04.3,2.7,3.78,3.27,5.76,1.61,1.98-1.66,1.61-4.49-.82-5.65Z"/><polygon class="cls-2" points="505.59 259.26 510.19 263.13 511.53 262.88 508.44 257.9 505.59 259.26"/><path class="cls-7" d="M502.33,257.55s17.21-10.47,21.25-3.16c4.04,7.31-14.07,9.62-14.07,9.62l-7.18-6.46Z"/><path class="cls-6" d="M489.95,254.68c-13.53.52-15.47,11.95-15.47,24.38,0,5.44,46.98,5.26,44.18-3.98-2.93-9.66-14.19-20.95-28.71-20.4Z"/><path class="cls-1" d="M513.25,280.26c-1.18-6.05-5.19-19.57-17.77-19.26-11.81.28-12.67,14.01-12.31,21.21,8.92,1,22.52.48,30.08-1.94Z"/><path class="cls-6" d="M514.41,269.18s19.29-5.77,19.87,4.88-17.55,3.72-17.55,3.72l-2.31-8.6Z"/><path class="cls-1" d="M529.56,271.96c-2.12-1.02-5.32.62-4.94,4.04.3,2.7,3.78,3.27,5.76,1.61s1.61-4.49-.82-5.65Z"/><path class="cls-6" d="M475.03,279.99s16.3,17.45,22.68,8.91c6.38-8.54-15.99-14.78-15.99-14.78l-6.69,5.87Z"/><path class="cls-2" d="M475.18,268.93s6.82-1.61,8.25-4.38l-7.77,2.07-.48,2.31Z"/><path class="cls-6" d="M482.53,257.73s-19.8-3.73-21,4.54c-1.2,8.27,16.07,4.53,20.3,3.37,4.23-1.15.7-7.92.7-7.92Z"/><path class="cls-1" d="M465.32,260.28c1.63-1.7,5.2-1.3,6.05,2.04.67,2.63-2.38,4.39-4.82,3.54-2.44-.85-3.09-3.63-1.23-5.58Z"/><path class="cls-6" d="M496.72,231.19s.51-9.9,10.16-5.4c9.64,4.5,1.3,12.06,1.3,12.06l-11.45-6.66Z"/><path class="cls-1" d="M499.92,231.06s.97-5.37,5.73-3.03-.17,6.52-.17,6.52l-5.56-3.49Z"/><path class="cls-2" d="M481.38,257.29s10.34,6.22,21.04,5.19c3.94-.38,5.3-2.15,5.3-2.15,0,0,3.17.8,3.81-4.01l-3.35-1.34-26.79,2.3Z"/><path class="cls-7" d="M499.92,266.61c6.88.11,9.85-1.8,11.14-3.43-5.25-5.09-12.61-8.83-21.11-8.5-.52.02-1,.09-1.49.14l-1.43.2c-3,.55-5.3,1.75-7.06,3.45,3.85,2.97,11.6,8.02,19.95,8.15Z"/><path class="cls-6" d="M490.08,230.33c11.96-.62,16.7.68,19.6,12.16,2.9,11.48-6.84,17.22-22.59,15.7-15.76-1.52-14.21-10.66-12.13-17.95,2.08-7.29,7.55-9.51,15.12-9.91Z"/><path class="cls-1" d="M493.5,242.39c4.91-2.47,22.4-5.92,23,1.06.32,3.65,1.08,18.06-8.35,12.81-4.4,4.71-10.08,3.31-18.39,2.06-2.27-7.53-2.93-12.55,3.74-15.92Z"/><path class="cls-2" d="M510.67,241.3s-5.55-.32-12.88,1.65c-7.33,1.97,6.25,9.37,10.53,8.75,4.28-.62,6.11-10.49,2.34-10.4Z"/><line class="cls-4" x1="503.05" y1="238.26" x2="503.4" y2="239.9"/><line class="cls-4" x1="495.13" y1="239.66" x2="495.6" y2="241.57"/><line class="cls-4" x1="492.37" y1="230.97" x2="493.02" y2="228.83"/><line class="cls-4" x1="490.42" y1="230.97" x2="491.01" y2="226.12"/><path class="cls-6" d="M484.46,232.66s-5.67-9.07-11.58-3.02c-7.1,7.27,3.09,12.43,3.09,12.43l8.48-9.41Z"/><path class="cls-1" d="M481.38,233.29s-3.14-4.52-6.52-1.69c-3.88,3.25,2.5,6.52,2.5,6.52l4.02-4.83Z"/><line class="cls-4" x1="493.79" y1="249.88" x2="493.84" y2="250.08"/><line class="cls-4" x1="492.33" y1="252.9" x2="492.37" y2="253.1"/><line class="cls-4" x1="495.6" y1="253.1" x2="495.65" y2="253.29"/><line class="cls-4" x1="514.5" y1="247.6" x2="514.55" y2="247.8"/><line class="cls-4" x1="513.51" y1="250.86" x2="513.56" y2="251.05"/><line class="cls-4" x1="515.86" y1="250.46" x2="515.91" y2="250.66"/></g></g></svg>