<?xml version="1.0" encoding="UTF-8"?><svg xmlns="http://www.w3.org/2000/svg" xmlns:xlink="http://www.w3.org/1999/xlink" viewBox="0 0 580 440.8"><defs><style>.cls-1{fill:#ffcb57;}.cls-2{fill:#1d1061;}.cls-3,.cls-4{fill:none;}.cls-5{isolation:isolate;}.cls-6{fill:url(#_40_10_ppp_3);opacity:.5;}.cls-6,.cls-7{mix-blend-mode:multiply;}.cls-4{stroke:#1d1061;stroke-linecap:round;stroke-linejoin:round;}.cls-7{fill:url(#_40_10_ppp);opacity:.25;}.cls-8{fill:#fdfdfd;}.cls-9{fill:#6a90c6;}</style><pattern id="_40_10_ppp_3" x="0" y="0" width="10" height="10" patternTransform="translate(1210 2255.37)" patternUnits="userSpaceOnUse" viewBox="0 0 10 10"><rect class="cls-3" width="10" height="10"/><circle class="cls-1" cx="8.95" cy="8.95" r="1.05"/><circle class="cls-1" cx="3.68" cy="8.95" r="1.05"/><path class="cls-1" d="M8.95,4.74c.58,0,1.05-.47,1.05-1.05s-.47-1.05-1.05-1.05-1.05.47-1.05,1.05.47,1.05,1.05,1.05Z"/><path class="cls-1" d="M3.68,4.74c.58,0,1.05-.47,1.05-1.05s-.47-1.05-1.05-1.05-1.05.47-1.05,1.05.47,1.05,1.05,1.05Z"/><path class="cls-1" d="M1.05,7.37c.58,0,1.05-.47,1.05-1.05s-.47-1.05-1.05-1.05S0,5.73,0,6.32s.47,1.05,1.05,1.05Z"/><circle class="cls-1" cx="6.32" cy="6.32" r="1.05"/><path class="cls-1" d="M1.05,2.11c.58,0,1.05-.47,1.05-1.05S1.63,0,1.05,0,0,.47,0,1.05s.47,1.05,1.05,1.05Z"/><circle class="cls-1" cx="6.32" cy="1.05" r="1.05"/></pattern><pattern id="_40_10_ppp" x="0" y="0" width="10" height="10" patternTransform="translate(1160 2255.37)" patternUnits="userSpaceOnUse" viewBox="0 0 10 10"><rect class="cls-3" width="10" height="10"/><circle class="cls-2" cx="8.95" cy="8.95" r="1.05"/><circle class="cls-2" cx="3.68" cy="8.95" r="1.05"/><path class="cls-2" d="M8.95,4.74c.58,0,1.05-.47,1.05-1.05s-.47-1.05-1.05-1.05-1.05.47-1.05,1.05.47,1.05,1.05,1.05Z"/><path class="cls-2" d="M3.68,4.74c.58,0,1.05-.47,1.05-1.05s-.47-1.05-1.05-1.05-1.05.47-1.05,1.05.47,1.05,1.05,1.05Z"/><path class="cls-2" d="M1.05,7.37c.58,0,1.05-.47,1.05-1.05s-.47-1.05-1.05-1.05S0,5.73,0,6.32s.47,1.05,1.05,1.05Z"/><circle class="cls-2" cx="6.32" cy="6.32" r="1.05"/><path class="cls-2" d="M1.05,2.11c.58,0,1.05-.47,1.05-1.05S1.63,0,1.05,0,0,.47,0,1.05s.47,1.05,1.05,1.05Z"/><circle class="cls-2" cx="6.32" cy="1.05" r="1.05"/></pattern></defs><g class="cls-5"><g id="ZONE_4_C"><circle class="cls-2" cx="229.59" cy="385.42" r="5.29"/><circle class="cls-2" cx="218.14" cy="385.42" r="5.29"/><circle class="cls-2" cx="206.69" cy="385.42" r="5.29"/><circle class="cls-2" cx="195.24" cy="385.42" r="5.29"/><path class="cls-2" d="M229.94,387.06h-34.56c-1.35,0-2.27-1.37-1.76-2.62l2.49-6.13h33.1l2.49,6.13c.51,1.25-.41,2.62-1.76,2.62Z"/><path class="cls-2" d="M211.12,379.2h-15.23c-2.43,0-4.25-2.24-3.75-4.62l1.79-8.56-.03-19.03h23.21l-5.99,32.21Z"/><path class="cls-2" d="M231.15,379.2h-21.99v-13.18l22.91,5.83c1.65.42,2.81,1.91,2.81,3.62h0c0,2.06-1.67,3.73-3.73,3.73Z"/><rect class="cls-2" x="200.05" y="352.9" width="18.57" height="4.33" rx="1.32" ry="1.32"/><path class="cls-2" d="M215.16,361.78h-7.79c-.23,0-.41-.18-.41-.41s.18-.41.41-.41h7.79c.23,0,.41.18.41.41s-.18.41-.41.41Z"/><path class="cls-2" d="M214.49,365.63h-7.12c-.23,0-.41-.18-.41-.41s.18-.41.41-.41h7.12c.23,0,.41.18.41.41s-.18.41-.41.41Z"/><path class="cls-2" d="M206.69,370.73c-.15,0-.3-.09-.37-.23-.1-.2,0-.45.2-.54l7.79-3.66c.2-.09.45,0,.54.2.1.2,0,.45-.2.54l-7.79,3.66c-.06.03-.12.04-.17.04Z"/><path class="cls-2" d="M213.33,372.17c-.1,0-.19-.03-.27-.1-.17-.15-.19-.41-.04-.58l3.77-4.33c.15-.17.41-.19.58-.04.17.15.19.41.04.58l-3.77,4.33c-.08.09-.19.14-.31.14Z"/><path class="cls-2" d="M218.14,372.55c-.07,0-.14-.02-.2-.05-.2-.11-.26-.36-.15-.56l2.12-3.66c.12-.2.37-.26.56-.15.2.11.26.36.15.56l-2.12,3.66c-.08.13-.21.2-.35.2Z"/><path class="cls-2" d="M220,381.9c2.06,0,3.73-1.67,3.73-3.73h0c0-1.71-1.16-3.2-2.81-3.62l-11.58-2.95.13-.22c.11-.19.05-.45-.15-.56-.19-.11-.45-.05-.56.15l-.24.42-2.56-.65.31-.35c.15-.17.13-.43-.04-.58-.17-.15-.43-.13-.58.04l-.58.66-2.11-.54.55-.26c.2-.1.29-.34.2-.54-.1-.2-.34-.29-.54-.2l-.87.41.2-1.07h.85c.23,0,.41-.18.41-.41s-.18-.41-.41-.41h-.69l.56-3.03h.8c.23,0,.41-.18.41-.41s-.18-.41-.41-.41h-.65l.69-3.73h1.26c1.2,0,2.17-.97,2.17-2.16s-.97-2.17-2.17-2.17h-.45l1.1-5.9h-23.21l.03,19.03-1.79,8.56c-.49,2.33,1.25,4.51,3.61,4.6l-.39.96s-.08-.01-.12-.01c-2.92,0-5.29,2.37-5.29,5.29s2.37,5.29,5.29,5.29c2.35,0,4.31-1.54,5-3.65h1.44c.69,2.11,2.66,3.65,5,3.65s4.31-1.54,5-3.65h1.44c.69,2.11,2.66,3.65,5,3.65s4.31-1.54,5-3.65h1.44c.69,2.11,2.66,3.65,5,3.65,2.92,0,5.29-2.37,5.29-5.29s-2.17-5.05-4.91-5.25l-.39-.97h1.58Z"/><circle class="cls-1" cx="219.84" cy="386.85" r="5.29"/><circle class="cls-1" cx="208.39" cy="386.85" r="5.29"/><circle class="cls-1" cx="196.94" cy="386.85" r="5.29"/><circle class="cls-1" cx="185.49" cy="386.85" r="5.29"/><circle class="cls-6" cx="220.33" cy="387.6" r="4.23"/><circle class="cls-6" cx="208.88" cy="387.6" r="4.23"/><circle class="cls-6" cx="197.43" cy="387.6" r="4.23"/><circle class="cls-6" cx="185.98" cy="387.6" r="4.23"/><path class="cls-8" d="M220.18,388.48h-34.56c-1.35,0-2.27-1.37-1.76-2.62l2.49-6.13h33.1l2.49,6.13c.51,1.25-.41,2.62-1.76,2.62Z"/><path class="cls-9" d="M222.32,373.28l-18.7-4.76,3.74-20.1h-23.21l.03,19.03-1.79,8.56c-.5,2.38,1.32,4.62,3.75,4.62h35.26c2.06,0,3.73-1.67,3.73-3.73,0-1.71-1.16-3.2-2.81-3.62Z"/><path class="cls-7" d="M223.53,374.75l-18.7-4.76,3.74-20.1h-23.21l.03,19.03-1.79,8.56c-.5,2.38,1.32,4.62,3.75,4.62h35.26c2.06,0,3.73-1.67,3.73-3.73,0-1.71-1.16-3.2-2.81-3.62Z"/><rect class="cls-8" x="190.3" y="354.33" width="18.57" height="4.33" rx="1.32" ry="1.32"/><line class="cls-4" x1="197.61" y1="362.79" x2="205.41" y2="362.79"/><line class="cls-4" x1="197.61" y1="366.64" x2="204.73" y2="366.64"/><line class="cls-4" x1="196.94" y1="371.74" x2="204.73" y2="368.09"/><line class="cls-4" x1="203.58" y1="373.19" x2="207.35" y2="368.86"/><line class="cls-4" x1="208.39" y1="373.57" x2="210.51" y2="369.91"/></g></g></svg>