<?xml version="1.0" encoding="UTF-8"?><svg xmlns="http://www.w3.org/2000/svg" xmlns:xlink="http://www.w3.org/1999/xlink" viewBox="0 0 580 440.8"><defs><style>.cls-1{fill:#ffcb57;}.cls-2{fill:#1d1061;}.cls-3,.cls-4{fill:none;}.cls-5{fill:#5cc6a0;}.cls-6{isolation:isolate;}.cls-4{stroke:#1d1061;stroke-linecap:round;stroke-linejoin:round;}.cls-7{fill:#ff7461;}.cls-8{fill:url(#_40_10_ppp);mix-blend-mode:multiply;opacity:.25;}.cls-9{fill:#fdfdfd;}.cls-10{fill:#6a90c6;}</style><pattern id="_40_10_ppp" x="0" y="0" width="10" height="10" patternTransform="translate(-14578.96 784.82) rotate(-180) scale(1 -1)" patternUnits="userSpaceOnUse" viewBox="0 0 10 10"><rect class="cls-3" width="10" height="10"/><circle class="cls-2" cx="8.95" cy="8.95" r="1.05"/><circle class="cls-2" cx="3.68" cy="8.95" r="1.05"/><path class="cls-2" d="M8.95,4.74c.58,0,1.05-.47,1.05-1.05s-.47-1.05-1.05-1.05-1.05.47-1.05,1.05.47,1.05,1.05,1.05Z"/><path class="cls-2" d="M3.68,4.74c.58,0,1.05-.47,1.05-1.05s-.47-1.05-1.05-1.05-1.05.47-1.05,1.05.47,1.05,1.05,1.05Z"/><path class="cls-2" d="M1.05,7.37c.58,0,1.05-.47,1.05-1.05s-.47-1.05-1.05-1.05S0,5.73,0,6.32s.47,1.05,1.05,1.05Z"/><circle class="cls-2" cx="6.32" cy="6.32" r="1.05"/><path class="cls-2" d="M1.05,2.11c.58,0,1.05-.47,1.05-1.05S1.63,0,1.05,0,0,.47,0,1.05s.47,1.05,1.05,1.05Z"/><circle class="cls-2" cx="6.32" cy="1.05" r="1.05"/></pattern></defs><g class="cls-6"><g id="ZONE_1_A"><rect class="cls-2" x="59.93" y="251.7" width="34.45" height="23.38"/><rect class="cls-1" x="89.72" y="251.05" width="6.74" height="7.79" transform="translate(186.19 509.89) rotate(180)"/><rect class="cls-7" x="83.05" y="251.05" width="6.74" height="7.79" transform="translate(172.84 509.89) rotate(180)"/><rect class="cls-9" x="76.37" y="251.07" width="6.74" height="7.79" transform="translate(159.49 509.94) rotate(180)"/><rect class="cls-10" x="71.61" y="251.07" width="4.85" height="7.79" transform="translate(148.07 509.94) rotate(180)"/><rect class="cls-1" x="66.81" y="251.07" width="4.85" height="7.79" transform="translate(138.48 509.94) rotate(180)"/><rect class="cls-5" x="62.02" y="251.07" width="4.85" height="7.79" transform="translate(128.89 509.94) rotate(180)"/><rect class="cls-10" x="89.72" y="258.84" width="6.74" height="7.79" transform="translate(186.19 525.48) rotate(180)"/><rect class="cls-1" x="83.05" y="258.84" width="6.74" height="7.79" transform="translate(172.84 525.48) rotate(180)"/><rect class="cls-7" x="76.37" y="258.84" width="6.74" height="7.79" transform="translate(159.49 525.48) rotate(180)"/><rect class="cls-1" x="71.61" y="258.87" width="4.85" height="7.79" transform="translate(148.07 525.53) rotate(180)"/><rect class="cls-5" x="66.81" y="258.87" width="4.85" height="7.79" transform="translate(138.48 525.53) rotate(180)"/><rect class="cls-9" x="62.02" y="258.87" width="4.85" height="7.79" transform="translate(128.89 525.53) rotate(180)"/><rect class="cls-9" x="89.72" y="266.64" width="6.74" height="7.79" transform="translate(186.19 541.06) rotate(180)"/><rect class="cls-5" x="83.05" y="266.64" width="6.74" height="7.79" transform="translate(172.84 541.06) rotate(180)"/><rect class="cls-10" x="76.37" y="266.64" width="6.74" height="7.79" transform="translate(159.49 541.06) rotate(180)"/><rect class="cls-9" x="71.61" y="266.66" width="4.85" height="7.79" transform="translate(148.07 541.12) rotate(180)"/><rect class="cls-7" x="66.81" y="266.66" width="4.85" height="7.79" transform="translate(138.48 541.12) rotate(180)"/><rect class="cls-1" x="62.02" y="266.66" width="4.85" height="7.79" transform="translate(128.89 541.12) rotate(180)"/><polygon class="cls-8" points="75.39 251.68 61.04 251.68 61.04 275.06 75.39 275.06 75.39 251.68"/><line class="cls-4" x1="89.79" y1="252.28" x2="89.79" y2="273.19"/><line class="cls-4" x1="71.7" y1="252.28" x2="71.7" y2="273.19"/><line class="cls-4" x1="67.01" y1="252.28" x2="67.01" y2="273.19"/><line class="cls-4" x1="63.48" y1="258.87" x2="94.7" y2="258.87"/><line class="cls-4" x1="94.7" y1="266.66" x2="63.37" y2="266.66"/><line class="cls-4" x1="83.12" y1="252.28" x2="83.12" y2="273.19"/></g></g></svg>